<?xml version="1.0" encoding="iso-8859-1"?>
<!-- Generator: Adobe Illustrator 19.0.0, SVG Export Plug-In . SVG Version: 6.00 Build 0)  -->
<svg version="1.1" id="Capa_1" xmlns="http://www.w3.org/2000/svg" xmlns:xlink="http://www.w3.org/1999/xlink" x="0px" y="0px"
	 viewBox="0 0 512 512" style="enable-background:new 0 0 512 512;" xml:space="preserve">
<polygon style="fill:#F3F3F3;" points="503.467,366.933 503.467,503.467 443.733,503.467 443.733,375.467 478.635,342.101 "/>
<path style="fill:#F5D0C7;" d="M486.4,238.933v34.219c-0.051,23.518-19.149,42.547-42.667,42.496
	c-23.518-0.051-42.547-19.149-42.496-42.667l0.085-34.048h8.277c18.85,0,34.133-15.283,34.133-34.133
	c0,18.85,15.283,34.133,34.133,34.133H486.4z"/>
<path style="fill:#6F6F6F;" d="M486.4,230.4v8.533h-8.533c-18.85,0-34.133-15.283-34.133-34.133v-8.533h8.533
	C471.117,196.267,486.4,211.55,486.4,230.4z"/>
<polygon style="fill:#00448F;" points="443.733,375.467 409.6,341.333 477.867,341.333 478.635,342.101 "/>
<path style="fill:#FFE491;" d="M452.267,102.4l-25.6,43.264l9.472,25.003H315.733v-51.2h-76.8
	c-23.561,0-42.667,19.106-42.667,42.667v8.533H86.784l7.083-16.469L59.733,102.4L102.4,59.733l51.2,33.536l59.733-25.003
	l8.533-59.733h68.267l8.533,59.733L358.4,93.269l51.2-33.536L452.267,102.4z"/>
<polygon style="fill:#F3F3F3;" points="443.733,375.467 443.733,503.467 384,503.467 384,366.933 409.6,341.333 "/>
<path style="fill:#6F6F6F;" d="M443.733,196.267v8.533c0,18.85-15.283,34.133-34.133,34.133h-8.277v-8.619
	c0.051-18.816,15.317-34.048,34.133-34.048H443.733z"/>
<polygon style="fill:#F3F3F3;" points="341.333,332.8 341.333,503.467 290.133,503.467 264.533,375.467 281.6,358.4 
	324.267,315.733 "/>
<polygon style="fill:#E6E6E6;" points="324.267,315.733 281.6,358.4 256,332.8 281.6,307.2 315.733,307.2 "/>
<path style="fill:#F5D0C7;" d="M273.067,170.667h-76.8v42.667c0,32.99,26.743,59.733,59.733,59.733s59.733-26.743,59.733-59.733V128
	C315.733,151.561,296.627,170.667,273.067,170.667z"/>
<path style="fill:#FFCB5A;" d="M315.733,119.467V128c0,23.561-19.106,42.667-42.667,42.667h-76.8v-8.533
	c0-23.561,19.106-42.667,42.667-42.667H315.733z"/>
<polygon style="fill:#00448F;" points="264.533,375.467 290.133,503.467 230.4,503.467 247.467,375.467 230.4,358.4 256,332.8 
	281.6,358.4 "/>
<polygon style="fill:#E6E6E6;" points="256,332.8 230.4,358.4 187.733,315.733 196.267,307.2 230.4,307.2 "/>
<g>
	<polygon style="fill:#F3F3F3;" points="247.467,375.467 230.4,503.467 170.667,503.467 170.667,332.8 187.733,315.733 230.4,358.4 
			"/>
	<polygon style="fill:#F3F3F3;" points="128,366.933 128,503.467 68.267,503.467 68.267,375.467 103.168,342.101 	"/>
</g>
<path style="fill:#F5D0C7;" d="M110.933,230.4v42.752c-0.051,23.518-19.149,42.547-42.667,42.496s-42.547-19.149-42.496-42.667
	l0.085-42.667h8.192c9.429,0.051,17.101-7.552,17.152-16.981c0-0.026,0-0.06,0-0.085v-15.787h0.085
	c0.589,18.372,15.667,32.956,34.048,32.939H110.933z"/>
<path style="fill:#FF8030;" d="M110.933,230.4h-25.6c-18.381,0.017-33.459-14.566-34.048-32.939c2.833-0.785,5.76-1.186,8.704-1.195
	H76.8C95.65,196.267,110.933,211.55,110.933,230.4z"/>
<polygon style="fill:#00448F;" points="68.267,375.467 34.133,341.333 102.4,341.333 103.168,342.101 "/>
<polygon style="fill:#F3F3F3;" points="68.267,375.467 68.267,503.467 8.533,503.467 8.533,366.933 34.133,341.333 "/>
<path style="fill:#FF8030;" d="M51.2,197.461v15.787c0,9.429-7.637,17.067-17.067,17.067c-0.026,0-0.06,0-0.085,0h-8.192
	C25.916,214.895,36.301,201.429,51.2,197.461z"/>
<path d="M408.474,70.673l33.075,33.075l-22.187,37.547c-1.323,2.227-1.562,4.932-0.649,7.356l9.463,24.994l15.966-6.042
	l-8.013-21.154l23.509-39.748c1.98-3.354,1.451-7.62-1.306-10.377l-42.667-42.667c-2.859-2.859-7.33-3.319-10.709-1.109
	l-47.411,31.078l-51.123-21.333l-7.842-54.972C297.975,3.123,294.374,0,290.133,0h-68.267c-4.241,0-7.842,3.123-8.448,7.322
	l-7.851,54.972l-51.072,21.333l-47.42-31.061c-3.379-2.21-7.851-1.749-10.709,1.109L53.7,96.341
	c-2.859,2.867-3.319,7.347-1.092,10.726l31.573,47.957l-5.291,12.228l15.667,6.775l7.125-16.452c1.143-2.645,0.879-5.683-0.708-8.09
	l-30.31-45.995l32.845-32.845l45.414,29.747c2.381,1.536,5.359,1.818,7.979,0.734l59.733-25.011c2.756-1.169,4.702-3.695,5.12-6.665
	l7.509-52.386h53.47l7.484,52.412c0.418,2.97,2.364,5.495,5.12,6.665l59.733,24.994c2.62,1.084,5.598,0.802,7.97-0.734
	L408.474,70.673z"/>
<path d="M162.133,332.8v170.667c0,4.71,3.823,8.533,8.533,8.533h170.667c4.71,0,8.533-3.823,8.533-8.533V332.8
	c0-2.261-0.896-4.437-2.5-6.033l-25.6-25.6c-1.596-1.604-3.772-2.5-6.033-2.5H196.267c-2.261,0-4.437,0.896-6.033,2.5l-25.6,25.6
	C163.029,328.363,162.133,330.539,162.133,332.8z M240.154,494.933l15.77-118.34c0.051-0.358,0.077-0.725,0.077-1.084
	c0,0.546,0.06,1.092,0.171,1.63l23.552,117.794H240.154z M256,320.734l-5.001-5.001h10.001L256,320.734z M256,344.866l13.534,13.534
	L258.5,369.434c-1.604,1.596-2.509,3.772-2.5,6.033c-0.017-2.244-0.913-4.386-2.5-5.973L242.466,358.4L256,344.866z M332.8,494.933
	h-35.669l-23.33-116.659l13.833-13.841l36.634-36.634l8.533,8.533V494.933z M281.6,346.334L268.066,332.8l17.067-17.067h27.068
	L281.6,346.334z M226.867,315.733l17.067,17.067L230.4,346.334l-30.601-30.601H226.867z M179.2,336.333l8.533-8.533l36.634,36.634
	l14.08,14.08l-15.514,116.42H179.2V336.333z"/>
<path d="M256,281.6c37.683-0.043,68.224-30.583,68.267-68.267v-93.867c0-4.71-3.823-8.533-8.533-8.533h-76.8
	c-28.262,0.026-51.174,22.938-51.2,51.2v51.2C187.776,251.017,218.317,281.557,256,281.6z M238.933,128H307.2
	c0,18.85-15.283,34.133-34.133,34.133H204.8C204.8,143.283,220.083,128,238.933,128z M204.8,179.2h68.267
	c12.612,0,24.772-4.685,34.133-13.141v47.275c0,28.279-22.921,51.2-51.2,51.2c-28.279,0-51.2-22.921-51.2-51.2V179.2z"/>
<path d="M375.467,366.933v136.533c0,4.71,3.823,8.533,8.533,8.533h119.467c4.71,0,8.533-3.823,8.533-8.533V366.933
	c0-2.261-0.896-4.437-2.5-6.033l-25.6-25.6c-1.596-1.604-3.772-2.5-6.033-2.5H409.6c-2.261,0-4.437,0.896-6.033,2.5l-25.6,25.6
	C376.363,362.496,375.467,364.672,375.467,366.933z M392.533,370.466L409.6,353.4l19.567,19.567l6.033-6.033l6.033-6.033
	l-11.034-11.034h27.742l-11.529,10.846l5.854,6.221l5.854,6.221l20.343-19.157l16.469,16.469v124.467h-42.667v-128H435.2v128
	h-42.667V370.466z"/>
<path d="M435.482,187.733c-23.492,0.043-42.539,19.029-42.667,42.522l-0.137,42.726c-0.094,28.228,22.716,51.191,50.944,51.285
	c0.06,0,0.111,0,0.171,0l0,0c28.22-0.034,51.089-22.895,51.14-51.115V230.4c-0.026-23.552-19.115-42.641-42.667-42.667H435.482z
	 M435.2,204.8c0,14.029-11.29,25.446-25.318,25.6v-0.085C409.924,216.32,421.205,204.954,435.2,204.8z M477.867,273.126
	c-0.034,18.799-15.249,34.022-34.048,34.074l0,0c-18.807,0-34.048-15.241-34.048-34.048c0-0.026,0-0.06,0-0.085l0.085-25.6
	c13.338-0.077,25.873-6.391,33.877-17.067c8.055,10.743,20.702,17.067,34.133,17.067L477.867,273.126L477.867,273.126z
	 M477.867,230.4c-14.14,0-25.6-11.46-25.6-25.6C466.406,204.8,477.867,216.26,477.867,230.4z"/>
<path d="M136.533,503.467V366.933c0-2.261-0.896-4.437-2.5-6.033l-25.6-25.6c-1.596-1.604-3.772-2.5-6.033-2.5H34.133
	c-2.261,0-4.437,0.896-6.033,2.5L2.5,360.9c-1.604,1.596-2.5,3.772-2.5,6.033v136.533C0,508.177,3.823,512,8.533,512H128
	C132.71,512,136.533,508.177,136.533,503.467z M119.467,494.933H76.8v-128H59.733v128H17.067V370.466L34.133,353.4L53.7,372.966
	l6.033-6.033l6.033-6.033l-11.034-11.034h27.742l-11.529,10.846l5.854,6.221l5.854,6.221l20.343-19.157l16.469,16.469V494.933z"/>
<path d="M17.212,272.981c-0.094,28.228,22.716,51.191,50.944,51.285c0.06,0,0.111,0,0.171,0l0,0
	c28.22-0.034,51.089-22.895,51.14-51.115V230.4c-0.026-23.552-19.115-42.641-42.667-42.667H60.015
	c-23.492,0.043-42.539,19.029-42.667,42.522L17.212,272.981z M68.352,307.2L68.352,307.2c-18.807,0-34.048-15.241-34.048-34.048
	c0-0.026,0-0.06,0-0.085l0.111-34.202c6.682-0.034,13.073-2.705,17.801-7.433c1.348-1.365,2.543-2.876,3.558-4.506
	c7.919,7.689,18.517,11.998,29.559,12.006H102.4v34.219C102.357,291.934,87.134,307.157,68.352,307.2z M100.83,221.867H85.333
	c-10.812-0.043-20.429-6.878-24.03-17.067H76.8C87.612,204.843,97.229,211.678,100.83,221.867z M42.667,211.695v1.562
	c0.009,2.27-0.896,4.446-2.517,6.042c-1.109,1.075-2.5,1.818-4.019,2.133C37.53,217.728,39.765,214.391,42.667,211.695z"/>
<g>
</g>
<g>
</g>
<g>
</g>
<g>
</g>
<g>
</g>
<g>
</g>
<g>
</g>
<g>
</g>
<g>
</g>
<g>
</g>
<g>
</g>
<g>
</g>
<g>
</g>
<g>
</g>
<g>
</g>
</svg>
