<?xml version="1.0" encoding="iso-8859-1"?>
<!-- Generator: Adobe Illustrator 19.0.0, SVG Export Plug-In . SVG Version: 6.00 Build 0)  -->
<svg version="1.1" id="Capa_1" xmlns="http://www.w3.org/2000/svg" xmlns:xlink="http://www.w3.org/1999/xlink" x="0px" y="0px"
	 viewBox="0 0 512 512" style="enable-background:new 0 0 512 512;" xml:space="preserve">
<path style="fill:#00448F;" d="M439.552,362.581L409.6,392.533V384c0-28.279,22.921-51.2,51.2-51.2h42.667v170.667H409.6v-59.733
	l-1.024-1.024c18.603-17.749,41.984-40.533,56.32-54.528c6.963-7.108,6.835-18.517-0.273-25.472
	C457.668,355.9,446.575,355.849,439.552,362.581z"/>
<path style="fill:#F5D0C7;" d="M503.467,221.867V307.2h-51.2c-23.561,0-42.667-19.106-42.667-42.667v-42.667H503.467z"/>
<path style="fill:#FFCB5A;" d="M503.467,221.867H409.6V204.8c0.026-9.412,7.654-17.041,17.067-17.067h42.667
	C488.184,187.733,503.467,203.017,503.467,221.867z"/>
<path style="fill:#62BEFF;" d="M464.981,362.581c7.049,7.014,7.066,18.415,0.051,25.463c-0.043,0.043-0.094,0.094-0.137,0.137
	c-14.336,13.995-37.717,36.779-56.32,54.528c-15.616,15.104-27.904,26.624-28.757,26.624h-89.685L256,435.2h110.933L384,418.133
	l25.6-25.6l29.952-29.952C446.609,355.644,457.924,355.644,464.981,362.581z"/>
<path style="fill:#FFCB5A;" d="M426.667,34.133V76.8c0,14.14-11.46,25.6-25.6,25.6h-8.533v42.667L358.4,102.4h-51.2
	c-14.14,0-25.6-11.46-25.6-25.6V34.133c0-14.14,11.46-25.6,25.6-25.6h93.867C415.206,8.533,426.667,19.994,426.667,34.133z"/>
<rect x="348.821" y="333.207" transform="matrix(-0.7071 0.7071 -0.7071 -0.7071 891.8572 381.4645)" style="fill:#62BEFF;" width="36.207" height="84.471"/>
<g>
	<polygon style="fill:#F5D0C7;" points="349.867,332.8 324.267,358.4 315.733,349.867 281.6,341.333 281.6,307.2 324.267,307.2 
		341.333,324.267 	"/>
	
		<rect x="231.875" y="445.176" transform="matrix(-0.7071 0.7071 -0.7071 -0.7071 768.8931 620.1381)" style="fill:#F5D0C7;" width="48.273" height="48.273"/>
</g>
<path style="fill:#62BEFF;" d="M256,435.2l-34.133,34.133h-89.685c-0.597,0-12.971-11.691-28.672-26.709
	c-18.603-17.835-41.984-40.533-56.32-54.443c-7.066-6.972-7.142-18.364-0.171-25.429c6.972-7.066,18.364-7.142,25.429-0.171
	l4.352,4.352l25.6,25.6l8.533,8.533l25.6,25.6l8.533,8.533H256z"/>
<polygon style="fill:#F5D0C7;" points="247.467,315.733 247.467,349.867 204.8,358.4 196.267,366.933 170.667,341.333 179.2,332.8 
	196.267,315.733 "/>
<path style="fill:#DAEFF6;" d="M230.4,34.133V76.8c0,14.14-11.46,25.6-25.6,25.6h-51.2l-34.133,42.667V102.4h-8.533
	c-14.14,0-25.6-11.46-25.6-25.6V34.133c0-14.14,11.46-25.6,25.6-25.6H204.8C218.94,8.533,230.4,19.994,230.4,34.133z"/>
<rect x="111.359" y="365.9" transform="matrix(-0.7071 0.7071 -0.7071 -0.7071 533.7329 546.9276)" style="fill:#62BEFF;" width="84.471" height="36.207"/>
<path style="fill:#00448F;" d="M103.509,442.624l-1.109,1.109v59.733H8.533V332.8H51.2c28.279,0,51.2,22.921,51.2,51.2v8.533
	l-25.6-25.6l-4.352-4.352c-7.066-6.972-18.458-6.895-25.429,0.171c-6.972,7.066-6.895,18.458,0.171,25.429
	C61.525,402.091,84.907,424.789,103.509,442.624z"/>
<path style="fill:#F5D0C7;" d="M102.4,221.867v42.667c0,23.561-19.106,42.667-42.667,42.667h-51.2v-85.333H102.4z"/>
<path style="fill:#FF8030;" d="M102.4,187.733v34.133H8.533c0-18.85,15.283-34.133,34.133-34.133H102.4z"/>
<g>
	<path style="fill:#E3BAAF;" d="M42.667,264.533H25.6v-17.067c0-4.71,3.823-8.533,8.533-8.533H51.2V256h-8.533V264.533z"/>
	<path style="fill:#E3BAAF;" d="M486.4,264.533h-17.067V256H460.8v-17.067h17.067c4.71,0,8.533,3.823,8.533,8.533V264.533z"/>
</g>
<path d="M0,221.867V307.2c0,4.71,3.823,8.533,8.533,8.533h51.2c28.262-0.026,51.174-22.938,51.2-51.2v-76.8
	c0-4.71-3.823-8.533-8.533-8.533H42.667C19.115,179.226,0.026,198.315,0,221.867z M59.733,298.667H17.067V230.4h76.8v34.133
	C93.867,283.383,78.583,298.667,59.733,298.667z M42.667,196.267h51.2v17.067h-75.23C22.238,203.145,31.855,196.309,42.667,196.267z
	"/>
<path d="M25.6,247.467v17.067h17.067V256H51.2v-17.067H34.133C29.423,238.933,25.6,242.756,25.6,247.467z"/>
<path d="M469.333,179.2h-42.667c-14.14,0-25.6,11.46-25.6,25.6v59.733c0.026,28.262,22.938,51.174,51.2,51.2h51.2
	c4.71,0,8.533-3.823,8.533-8.533v-85.333C511.974,198.315,492.885,179.226,469.333,179.2z M426.667,196.267h42.667
	c10.812,0.043,20.429,6.878,24.03,17.067h-75.23V204.8C418.133,200.09,421.956,196.267,426.667,196.267z M452.267,298.667
	c-18.85,0-34.133-15.283-34.133-34.133V230.4h76.8v68.267H452.267z"/>
<path d="M477.867,238.933H460.8V256h8.533v8.533H486.4v-17.067C486.4,242.756,482.577,238.933,477.867,238.933z"/>
<path d="M503.467,324.267H460.8c-28.723,0.051-53.35,20.506-58.675,48.725L332.8,303.667V281.6h-17.067v17.067H281.6
	c-4.71,0-8.533,3.823-8.533,8.533v34.133c0,3.917,2.671,7.33,6.468,8.277l31.829,7.962l60.587,60.587l-8.533,8.533H259.533
	l-14.566-14.566L232.9,424.192l2.5,2.5h-86.801l60.407-60.407l40.107-8.03c4.011-0.785,6.895-4.301,6.886-8.388v-34.133
	c0-4.71-3.823-8.533-8.533-8.533h-51.2c-2.261,0-4.437,0.896-6.033,2.5l-79.3,79.3V384c-0.043-32.973-26.761-59.691-59.733-59.733
	H8.533C3.823,324.267,0,328.09,0,332.8v170.667C0,508.177,3.823,512,8.533,512H102.4c4.71,0,8.533-3.823,8.533-8.533v-41.813
	c17.152,16.213,18.432,16.213,21.205,16.213h86.187l31.633,31.633c3.328,3.328,8.738,3.328,12.066,0l31.642-31.633h86.187
	c2.714,0,4.147,0,21.214-16.043v41.643c0,4.71,3.823,8.533,8.533,8.533h93.867c4.71,0,8.533-3.823,8.533-8.533V332.8
	C512,328.09,508.177,324.267,503.467,324.267z M290.133,334.669v-18.935h30.6l17.067,17.067l-13.534,13.534l-2.5-2.5
	c-1.092-1.092-2.466-1.869-3.968-2.244L290.133,334.669z M336.333,358.4l13.534-13.534l47.667,47.667L384,406.067L336.333,358.4z
	 M199.799,324.267h39.134v18.611l-35.84,7.159c-1.655,0.333-3.166,1.143-4.361,2.33l-2.466,2.5l-13.534-13.534L199.799,324.267z
	 M170.667,353.4l13.534,13.534l-47.667,47.667l-13.534-13.534L170.667,353.4z M93.867,494.933h-76.8v-153.6H51.2
	c17.766,0.043,33.647,11.11,39.834,27.767l-8.201-8.201l-4.352-4.352c-10.359-10.351-27.153-10.351-37.504,0.009
	c-5.009,5.018-7.808,11.827-7.765,18.91c0.026,7.083,2.91,13.858,8.004,18.773c23.236,22.605,40.166,39.057,52.651,51.098V494.933z
	 M53.12,382.046c-3.721-3.652-3.78-9.626-0.128-13.346c0.017-0.017,0.043-0.043,0.06-0.06c3.695-3.678,9.668-3.678,13.363,0
	l4.352,4.352l34.133,34.133l34.133,34.133c1.604,1.587,3.772,2.483,6.033,2.475h90.334L218.334,460.8h-83.183
	C128.418,454.827,104.183,431.718,53.12,382.046z M256,491.401l-22.067-22.067L256,447.266l22.067,22.067L256,491.401z
	 M376.96,460.8h-83.294l-17.067-17.067h90.334c2.261,0,4.437-0.896,6.033-2.5l42.667-42.667l29.935-29.926
	c3.686-3.721,9.685-3.746,13.406-0.06c1.818,1.801,2.825,4.258,2.807,6.818c-0.009,2.517-1.033,4.932-2.842,6.682
	C407.893,431.957,383.625,454.972,376.96,460.8z M494.933,494.933h-76.8v-49.382c12.501-12.049,29.457-28.553,52.71-51.268
	c10.453-10.249,10.624-27.034,0.375-37.495c-8.721-8.892-22.451-10.522-33.007-3.908l-0.512-0.512l-4.198,4.198l-12.535,12.535
	c6.187-16.657,22.067-27.725,39.834-27.767h34.133V494.933z"/>
<path d="M76.8,34.133V76.8c0,18.85,15.283,34.133,34.133,34.133v34.133c0,4.71,3.814,8.533,8.533,8.533
	c2.594,0,5.052-1.178,6.665-3.2l31.565-39.467H204.8c18.85,0,34.133-15.283,34.133-34.133V34.133C238.933,15.283,223.65,0,204.8,0
	h-93.867C92.083,0,76.8,15.283,76.8,34.133z M221.867,34.133V76.8c0,9.429-7.637,17.067-17.067,17.067h-51.2
	c-2.594,0-5.043,1.178-6.665,3.2L128,120.738V102.4c0-4.71-3.823-8.533-8.533-8.533h-8.533c-9.429,0-17.067-7.637-17.067-17.067
	V34.133c0-9.429,7.637-17.067,17.067-17.067H204.8C214.229,17.067,221.867,24.704,221.867,34.133z"/>
<path d="M273.067,34.133V76.8c0,18.85,15.283,34.133,34.133,34.133h47.104l31.573,39.467c2.953,3.678,8.32,4.267,11.998,1.314
	c2.014-1.613,3.191-4.062,3.191-6.647v-34.133c18.85,0,34.133-15.283,34.133-34.133V34.133C435.2,15.283,419.917,0,401.067,0H307.2
	C288.35,0,273.067,15.283,273.067,34.133z M418.133,34.133V76.8c0,9.429-7.637,17.067-17.067,17.067h-8.533
	c-4.71,0-8.533,3.823-8.533,8.533v18.338l-18.935-23.671c-1.621-2.022-4.07-3.2-6.665-3.2h-51.2
	c-9.429,0-17.067-7.637-17.067-17.067V34.133c0-9.429,7.637-17.067,17.067-17.067h93.867
	C410.496,17.067,418.133,24.704,418.133,34.133z"/>
<g>
</g>
<g>
</g>
<g>
</g>
<g>
</g>
<g>
</g>
<g>
</g>
<g>
</g>
<g>
</g>
<g>
</g>
<g>
</g>
<g>
</g>
<g>
</g>
<g>
</g>
<g>
</g>
<g>
</g>
</svg>
