<?xml version="1.0" encoding="iso-8859-1"?>
<!-- Generator: Adobe Illustrator 19.0.0, SVG Export Plug-In . SVG Version: 6.00 Build 0)  -->
<svg version="1.1" id="Capa_1" xmlns="http://www.w3.org/2000/svg" xmlns:xlink="http://www.w3.org/1999/xlink" x="0px" y="0px"
	 viewBox="0 0 512 512" style="enable-background:new 0 0 512 512;" xml:space="preserve">
<path style="fill:#F5D0C7;" d="M502.694,350.37L324.051,503.493H273.01l-161.63-59.548H0.792V350.37h110.589l42.534-25.52H273.01
	l34.027,8.507v34.027l-34.027,8.507h-68.055l110.589,51.041l129.644-93.66c13.56-9.723,32.164-8.218,43.98,3.573L502.694,350.37z"/>
<g>
	<path style="fill:#FFCB5A;" d="M213.463,146.207c-28.115-0.068-50.854-22.917-50.786-51.041
		c0.068-28.115,22.917-50.854,51.041-50.786c28.115,0.068,50.854,22.917,50.786,51.041c-0.034,13.441-5.385,26.329-14.878,35.839
		C240.038,140.847,227.022,146.224,213.463,146.207z M213.463,61.139c-18.715,0.077-33.832,15.304-33.755,34.027
		c0.077,18.724,15.304,33.832,34.027,33.755c18.724-0.077,33.832-15.304,33.755-34.027c-0.034-8.958-3.615-17.541-9.961-23.862
		C231.131,64.686,222.48,61.13,213.463,61.139z"/>
	<rect x="204.93" y="137.7" style="fill:#FFCB5A;" width="17.014" height="25.52"/>
	<rect x="204.93" y="27.111" style="fill:#FFCB5A;" width="17.014" height="25.52"/>
	
		<rect x="244.084" y="121.552" transform="matrix(-0.7071 0.7071 -0.7071 -0.7071 526.1664 50.6623)" style="fill:#FFCB5A;" width="17.013" height="25.503"/>
	
		<rect x="165.827" y="43.283" transform="matrix(-0.7071 0.7071 -0.7071 -0.7071 337.2286 -27.6147)" style="fill:#FFCB5A;" width="17.013" height="25.503"/>
	<rect x="255.971" y="86.659" style="fill:#FFCB5A;" width="25.52" height="17.014"/>
	<rect x="145.383" y="86.659" style="fill:#FFCB5A;" width="25.52" height="17.014"/>
	
		<rect x="239.823" y="47.558" transform="matrix(-0.7071 0.7071 -0.7071 -0.7071 470.8162 -82.8887)" style="fill:#FFCB5A;" width="25.503" height="17.013"/>
	
		<rect x="161.576" y="125.751" transform="matrix(-0.7071 0.7071 -0.7071 -0.7071 392.5307 105.9243)" style="fill:#FFCB5A;" width="25.503" height="17.013"/>
</g>
<g>
	<path style="fill:#F5B05C;" d="M153.294,34.317l-12.029-12.029c9.579-9.562,20.961-17.133,33.483-22.271l6.482,15.738
		C170.784,20.034,161.282,26.337,153.294,34.317z"/>
	<path style="fill:#F5B05C;" d="M122.533,140.898c-11.246-21.965-14.121-47.264-8.09-71.194l16.503,4.134
		c-5.028,19.931-2.637,41.003,6.72,59.301L122.533,140.898z"/>
	<path style="fill:#F5B05C;" d="M286.621,51.169c-3.624-6.15-8.022-11.807-13.075-16.844l12.037-12.046
		c6.065,6.065,11.34,12.871,15.687,20.255L286.621,51.169z"/>
</g>
<path style="fill:#FFCB5A;" d="M281.517,248.289c-28.115-0.068-50.854-22.917-50.786-51.041
	c0.068-28.115,22.917-50.854,51.041-50.786c28.124,0.068,50.854,22.917,50.786,51.041c-0.034,13.441-5.385,26.329-14.878,35.839
	C308.092,242.929,295.077,248.306,281.517,248.289z M281.517,163.22c-18.715,0.077-33.832,15.304-33.755,34.027
	c0.077,18.715,15.304,33.832,34.027,33.755c18.715-0.077,33.832-15.304,33.755-34.027c-0.034-8.958-3.615-17.541-9.961-23.862
	C299.186,166.768,290.534,163.212,281.517,163.22z"/>
<g>
	<path style="fill:#F5B05C;" d="M375.62,236.779l-15.687-6.593c4.398-10.421,6.661-21.624,6.652-32.938h17.014
		C383.616,210.825,380.902,224.265,375.62,236.779z"/>
	<path style="fill:#F5B05C;" d="M354.455,153.497c-10.608-17.618-27.196-30.829-46.736-37.226l5.266-16.163
		c23.419,7.665,43.308,23.496,56.026,44.601L354.455,153.497z"/>
	<path style="fill:#F5B05C;" d="M201.06,259.985c-14.062-17.881-21.684-39.991-21.624-62.738h17.014
		c-0.051,18.953,6.304,37.37,18.017,52.274L201.06,259.985z"/>
	<path style="fill:#F5B05C;" d="M281.517,299.329c-8.532-0.008-17.039-1.063-25.316-3.148l4.177-16.503
		c6.908,1.752,14.011,2.637,21.139,2.637V299.329z"/>
</g>
<g>
	<rect x="272.985" y="239.807" style="fill:#FFCB5A;" width="17.014" height="25.52"/>
	<rect x="272.985" y="129.193" style="fill:#FFCB5A;" width="17.014" height="25.52"/>
	
		<rect x="229.631" y="227.905" transform="matrix(-0.7071 0.7071 -0.7071 -0.7071 580.9404 232.1891)" style="fill:#FFCB5A;" width="25.503" height="17.013"/>
	
		<rect x="307.93" y="149.6" transform="matrix(-0.7071 0.7071 -0.7071 -0.7071 659.2354 43.1496)" style="fill:#FFCB5A;" width="25.503" height="17.013"/>
	<rect x="213.437" y="188.766" style="fill:#FFCB5A;" width="25.52" height="17.014"/>
	<rect x="324.026" y="188.766" style="fill:#FFCB5A;" width="25.52" height="17.014"/>
	
		<rect x="233.885" y="145.381" transform="matrix(-0.7071 0.7071 -0.7071 -0.7071 525.6047 98.5519)" style="fill:#FFCB5A;" width="17.013" height="25.503"/>
	
		<rect x="312.141" y="223.623" transform="matrix(-0.7071 0.7071 -0.7071 -0.7071 714.522 176.7843)" style="fill:#FFCB5A;" width="17.013" height="25.503"/>
</g>
<path d="M511.201,350.694c0.094-2.365-0.808-4.662-2.484-6.338l-13.543-13.551c-14.734-14.836-38.085-16.707-54.988-4.407
	L314.6,417.123l-70.913-32.726h29.323c0.698,0,1.387-0.085,2.059-0.255l34.027-8.507c3.786-0.944,6.448-4.347,6.448-8.252v-34.027
	c0-3.905-2.663-7.307-6.448-8.252l-34.027-8.507c-0.672-0.17-1.361-0.255-2.059-0.255H153.915c-1.54,0-3.054,0.417-4.381,1.216
	l-40.509,24.304H0.792v17.014h110.589c1.54,0,3.054-0.417,4.381-1.216l40.509-24.304h115.693l26.567,6.644v20.74l-26.567,6.644
	h-67.008c-4.696,0-8.507,3.811-8.507,8.507c0,3.318,1.931,6.338,4.942,7.724l110.589,51.041c2.782,1.268,6.031,0.944,8.507-0.851
	l129.661-93.601c10.149-7.375,24.159-6.253,32.998,2.646l7.035,7.035L320.904,494.986h-46.371l-160.209-59.02
	c-0.944-0.349-1.94-0.527-2.943-0.527H0.792v17.014h109.066l160.209,59.02c0.944,0.349,1.94,0.527,2.943,0.527h51.041
	c2.033,0,3.99-0.723,5.529-2.05l178.643-153.123C510.027,355.287,511.108,353.067,511.201,350.694z"/>
<path d="M221.969,44.89V27.111h-17.014V44.89c-7.58,1.276-14.768,4.262-21.02,8.719l-12.582-12.582l-12.029,12.029l12.582,12.582
	c-4.458,6.253-7.443,13.441-8.719,21.02h-17.779v17.014h17.779c1.276,7.58,4.262,14.768,8.719,21.02l-12.582,12.582l12.029,12.029
	l12.582-12.582c6.253,4.458,13.441,7.443,21.02,8.719v17.779h17.014v-17.779c7.58-1.276,14.768-4.262,21.02-8.719l12.582,12.582
	l12.029-12.029l-12.582-12.582c4.458-6.253,7.443-13.441,8.719-21.02h17.779V86.659h-17.779c-1.276-7.58-4.262-14.768-8.719-21.02
	L267.6,53.057l-12.029-12.029L242.99,53.61C236.737,49.152,229.549,46.167,221.969,44.89z M213.463,129.193
	c-18.792,0-34.027-15.236-34.027-34.027s15.236-34.027,34.027-34.027s34.027,15.236,34.027,34.027S232.254,129.193,213.463,129.193z
	"/>
<path d="M141.24,22.322l12.029,12.029c7.979-8.013,17.482-14.334,27.953-18.596L174.808,0
	C162.235,5.113,150.818,12.701,141.24,22.322z"/>
<path d="M122.491,140.907l15.151-7.724c-9.315-18.324-11.697-39.395-6.72-59.335l-16.52-4.1
	C108.446,93.669,111.313,118.934,122.491,140.907z"/>
<path d="M285.6,22.322l-12.029,12.029c5.036,5.028,9.426,10.668,13.049,16.792l14.632-8.651
	C296.915,35.133,291.649,28.353,285.6,22.322z"/>
<path d="M359.959,230.169l15.678,6.601c5.274-12.505,7.988-25.946,7.962-39.523h-17.014
	C366.602,208.553,364.348,219.748,359.959,230.169z"/>
<path d="M307.744,116.314c19.54,6.363,36.128,19.574,46.711,37.192l14.572-8.771c-12.701-21.131-32.598-36.971-56.034-44.601
	L307.744,116.314z"/>
<path d="M179.435,197.248c-0.068,22.739,7.537,44.839,21.59,62.721l13.407-10.463c-11.705-14.904-18.034-33.313-17.983-52.257
	L179.435,197.248L179.435,197.248z"/>
<path d="M256.184,296.148c8.277,2.118,16.792,3.182,25.333,3.182v-17.014c-7.12,0.009-14.206-0.885-21.105-2.654L256.184,296.148z"
	/>
<path d="M349.572,205.754v-17.014h-17.779c-1.276-7.58-4.262-14.768-8.72-21.02l12.582-12.582l-12.029-12.029l-12.582,12.582
	c-6.253-4.458-13.441-7.443-21.02-8.719v-17.779H273.01v17.779c-7.58,1.276-14.768,4.262-21.02,8.719l-12.582-12.582l-12.029,12.029
	l12.582,12.582c-4.458,6.253-7.443,13.441-8.719,21.02h-17.779v17.014h17.779c1.276,7.58,4.262,14.768,8.719,21.02l-12.582,12.582
	l12.029,12.029l12.582-12.582c6.253,4.458,13.441,7.443,21.02,8.719v17.779h17.014v-17.779c7.58-1.276,14.768-4.262,21.02-8.719
	l12.582,12.582l12.029-12.029l-12.582-12.582c4.458-6.253,7.443-13.441,8.72-21.02H349.572z M281.517,231.275
	c-18.792,0-34.027-15.236-34.027-34.027s15.236-34.027,34.027-34.027s34.027,15.236,34.027,34.027S300.309,231.275,281.517,231.275z
	"/>
<g>
</g>
<g>
</g>
<g>
</g>
<g>
</g>
<g>
</g>
<g>
</g>
<g>
</g>
<g>
</g>
<g>
</g>
<g>
</g>
<g>
</g>
<g>
</g>
<g>
</g>
<g>
</g>
<g>
</g>
</svg>
