<?xml version="1.0" encoding="iso-8859-1"?>
<!-- Generator: Adobe Illustrator 19.0.0, SVG Export Plug-In . SVG Version: 6.00 Build 0)  -->
<svg version="1.1" id="Capa_1" xmlns="http://www.w3.org/2000/svg" xmlns:xlink="http://www.w3.org/1999/xlink" x="0px" y="0px"
	 viewBox="0 0 512 512" style="enable-background:new 0 0 512 512;" xml:space="preserve">
<path style="fill:#FFCB5A;" d="M503.467,221.867v68.267l-59.733,8.533l-25.6,59.136l34.133,51.797L409.6,452.267l-51.2-33.536
	l-59.733,25.003l-8.533,59.733h-68.267l-8.533-59.733L153.6,418.731l-51.2,33.536L59.733,409.6l34.133-51.797l-25.6-59.136
	l-59.733-8.533v-68.267l59.733-8.533l25.6-59.136L59.733,102.4L102.4,59.733l51.2,33.536l59.733-25.003l8.533-59.733h68.267
	l8.533,59.733L358.4,93.269l51.2-33.536l42.667,42.667l-25.6,43.264l25.6,67.669L503.467,221.867z M384,256
	c0-70.69-57.31-128-128-128s-128,57.31-128,128s57.31,128,128,128C326.682,383.974,383.974,326.682,384,256z"/>
<polygon style="fill:#6F6F6F;" points="298.667,196.267 298.667,221.867 273.067,247.467 273.067,349.867 256,349.867 
	238.933,349.867 238.933,247.467 213.333,221.867 213.333,187.733 238.933,162.133 238.933,204.8 256,213.333 273.067,204.8 
	273.067,162.133 "/>
<g>
	<path style="fill:#F5B05C;" d="M150.921,144.119l-11.708-12.433C170.786,101.871,212.574,85.282,256,85.333V102.4
		C216.926,102.357,179.319,117.282,150.921,144.119z"/>
	<path style="fill:#F5B05C;" d="M256,426.667c-18.321,0.026-36.531-2.918-53.914-8.713
		c-50.961-17.084-90.965-57.088-108.032-108.058l16.213-5.393c15.369,45.892,51.388,81.911,97.28,97.28
		c15.625,5.205,31.983,7.842,48.452,7.817V426.667z"/>
	<path style="fill:#F5B05C;" d="M426.667,256H409.6c0.034-39.057-14.857-76.655-41.634-105.088l12.45-11.691
		C410.163,170.82,426.709,212.599,426.667,256z"/>
</g>
<path d="M504.875,213.453l-46.362-7.731l-22.417-59.23l23.518-39.748c1.98-3.354,1.442-7.62-1.314-10.377L415.633,53.7
	c-2.859-2.859-7.33-3.319-10.709-1.109l-47.377,31.036l-51.115-21.333l-7.851-54.946C297.993,3.132,294.383,0,290.133,0h-68.267
	c-4.241,0-7.842,3.123-8.448,7.322l-7.851,54.972l-51.072,21.333l-47.42-31.061c-3.379-2.21-7.851-1.749-10.709,1.109L53.7,96.341
	c-2.859,2.867-3.319,7.347-1.092,10.726l31.573,47.957l-21.845,50.534l-55.014,7.859C3.123,214.025,0,217.626,0,221.867v68.267
	c0,4.241,3.123,7.842,7.322,8.448l55.014,7.859l21.871,50.509l-31.573,47.957c-2.227,3.379-1.766,7.859,1.092,10.726L96.393,458.3
	c2.859,2.859,7.33,3.319,10.709,1.109l47.351-31.036l51.115,21.333l7.851,54.946c0.589,4.215,4.198,7.347,8.448,7.347h68.267
	c4.241,0,7.842-3.123,8.448-7.322l7.851-54.946l51.115-21.359l47.42,31.061c3.379,2.21,7.851,1.749,10.709-1.109l42.667-42.667
	c2.859-2.867,3.319-7.347,1.092-10.726l-31.573-47.957l21.845-50.534l55.014-7.859c4.181-0.623,7.279-4.215,7.279-8.448v-68.267
	C512,217.702,508.988,214.144,504.875,213.453z M494.933,282.735l-52.412,7.484c-2.935,0.427-5.436,2.338-6.613,5.06l-25.6,59.119
	c-1.143,2.645-0.879,5.683,0.708,8.09l30.302,45.995l-32.836,32.845l-45.414-29.747c-2.372-1.536-5.35-1.809-7.97-0.734
	l-59.733,25.011c-2.756,1.169-4.702,3.695-5.12,6.665l-7.509,52.412h-53.47l-7.484-52.412c-0.418-2.97-2.364-5.495-5.12-6.665
	l-59.733-24.994c-2.62-1.084-5.598-0.802-7.97,0.734l-45.397,29.73l-32.836-32.845l30.302-45.995c1.587-2.406,1.843-5.444,0.7-8.09
	l-25.6-59.119c-1.178-2.722-3.678-4.634-6.613-5.06l-52.446-7.484v-53.47l52.412-7.484c2.935-0.427,5.436-2.338,6.613-5.06
	l25.6-59.119c1.143-2.645,0.879-5.683-0.708-8.09l-30.302-45.995l32.836-32.845l45.414,29.747c2.372,1.536,5.35,1.809,7.97,0.734
	l59.733-25.011c2.756-1.169,4.702-3.695,5.12-6.665l7.509-52.412h53.47l7.484,52.412c0.418,2.97,2.364,5.495,5.12,6.665
	l59.733,24.994c2.62,1.084,5.598,0.802,7.97-0.734l45.397-29.73l33.075,33.075l-22.187,37.547c-1.314,2.227-1.545,4.932-0.631,7.356
	l25.6,67.661c1.075,2.842,3.575,4.89,6.571,5.393l44.066,7.39V282.735z"/>
<path d="M256,102.4V85.333c-43.418-0.043-85.197,16.529-116.779,46.319l11.682,12.433C179.328,117.274,216.926,102.357,256,102.4z"
	/>
<path d="M175.198,386.56c-30.532-18.97-53.504-47.983-64.947-82.057l-16.213,5.393c23.194,69.751,88.457,116.804,161.963,116.77
	V409.6C227.439,409.634,199.45,401.647,175.198,386.56z"/>
<path d="M367.923,150.921C394.726,179.337,409.643,216.934,409.6,256h17.067c0.043-43.409-16.521-85.188-46.302-116.77
	L367.923,150.921z"/>
<path d="M256,119.467c-75.409,0-136.533,61.124-136.533,136.533S180.591,392.533,256,392.533S392.533,331.409,392.533,256
	C392.448,180.634,331.366,119.552,256,119.467z M256,375.467c-65.98,0-119.467-53.487-119.467-119.467S190.02,136.533,256,136.533
	S375.467,190.02,375.467,256C375.398,321.954,321.954,375.398,256,375.467z"/>
<path d="M279.893,157.013c-2.825-3.772-8.175-4.531-11.947-1.707c-2.15,1.613-3.413,4.139-3.413,6.827v37.393L256,203.793
	l-8.533-4.267v-37.393c0-4.71-3.823-8.533-8.533-8.533c-2.261,0-4.429,0.896-6.033,2.5l-25.6,25.6c-1.604,1.596-2.5,3.772-2.5,6.033
	v34.133c0,2.261,0.896,4.437,2.5,6.033l23.1,23.1v98.867c0,4.71,3.823,8.533,8.533,8.533h34.133c4.71,0,8.533-3.823,8.533-8.533
	v-98.867l23.1-23.1c1.604-1.596,2.5-3.772,2.5-6.033v-25.6c0-1.843-0.597-3.644-1.707-5.12L279.893,157.013z M290.133,218.334
	l-23.1,23.1c-1.604,1.596-2.5,3.772-2.5,6.033v93.867h-17.067v-93.867c0-2.261-0.896-4.437-2.5-6.033l-23.1-23.1v-27.068
	l8.533-8.533V204.8c0,3.234,1.826,6.195,4.719,7.637l17.067,8.533c2.398,1.203,5.231,1.203,7.629,0l17.067-8.533
	c2.893-1.442,4.719-4.403,4.719-7.637v-17.067l8.533,11.375V218.334z"/>
<g>
</g>
<g>
</g>
<g>
</g>
<g>
</g>
<g>
</g>
<g>
</g>
<g>
</g>
<g>
</g>
<g>
</g>
<g>
</g>
<g>
</g>
<g>
</g>
<g>
</g>
<g>
</g>
<g>
</g>
</svg>
