<?xml version="1.0" encoding="iso-8859-1"?>
<!-- Generator: Adobe Illustrator 19.0.0, SVG Export Plug-In . SVG Version: 6.00 Build 0)  -->
<svg version="1.1" id="Capa_1" xmlns="http://www.w3.org/2000/svg" xmlns:xlink="http://www.w3.org/1999/xlink" x="0px" y="0px"
	 viewBox="0 0 512 512" style="enable-background:new 0 0 512 512;" xml:space="preserve">
<g>
	<path style="fill:#F5D0C7;" d="M452.267,349.867h17.067c14.14,0,25.6,11.46,25.6,25.6v17.067c0,14.14-11.46,25.6-25.6,25.6h-17.067
		c-14.14,0-25.6-11.46-25.6-25.6v-17.067C426.667,361.327,438.127,349.867,452.267,349.867z"/>
	<path style="fill:#F5D0C7;" d="M247.467,349.867h17.067c14.14,0,25.6,11.46,25.6,25.6v17.067c0,14.14-11.46,25.6-25.6,25.6h-17.067
		c-14.14,0-25.6-11.46-25.6-25.6v-17.067C221.867,361.327,233.327,349.867,247.467,349.867z"/>
	<path style="fill:#F5D0C7;" d="M247.467,8.533h17.067c14.14,0,25.6,11.46,25.6,25.6V51.2c0,14.14-11.46,25.6-25.6,25.6h-17.067
		c-14.14,0-25.6-11.46-25.6-25.6V34.133C221.867,19.994,233.327,8.533,247.467,8.533z"/>
	<path style="fill:#F5D0C7;" d="M42.667,349.867h17.067c14.14,0,25.6,11.46,25.6,25.6v17.067c0,14.14-11.46,25.6-25.6,25.6H42.667
		c-14.14,0-25.6-11.46-25.6-25.6v-17.067C17.067,361.327,28.527,349.867,42.667,349.867z"/>
</g>
<path style="fill:#168DE2;" d="M281.6,426.667h-51.2c-14.14,0-25.6,11.46-25.6,25.6v51.2c0,4.71,3.823,8.533,8.533,8.533h85.333
	c4.71,0,8.533-3.823,8.533-8.533v-51.2C307.2,438.127,295.74,426.667,281.6,426.667z"/>
<path style="fill:#F5D0C7;" d="M264.533,426.667h-17.067c-18.85,0-34.133-15.283-34.133-34.133v-17.067
	c0-18.85,15.283-34.133,34.133-34.133h17.067c18.85,0,34.133,15.283,34.133,34.133v17.067
	C298.667,411.383,283.383,426.667,264.533,426.667z M247.467,358.4c-9.429,0-17.067,7.637-17.067,17.067v17.067
	c0,9.429,7.637,17.067,17.067,17.067h17.067c9.429,0,17.067-7.637,17.067-17.067v-17.067c0-9.429-7.637-17.067-17.067-17.067
	H247.467z"/>
<path style="fill:#00448F;" d="M281.6,85.333h-51.2c-14.14,0-25.6,11.46-25.6,25.6v51.2c0,4.71,3.823,8.533,8.533,8.533h85.333
	c4.71,0,8.533-3.823,8.533-8.533v-51.2C307.2,96.794,295.74,85.333,281.6,85.333z"/>
<path style="fill:#F5D0C7;" d="M264.533,85.333h-17.067c-18.85,0-34.133-15.283-34.133-34.133V34.133
	C213.333,15.283,228.617,0,247.467,0h17.067c18.85,0,34.133,15.283,34.133,34.133V51.2C298.667,70.05,283.383,85.333,264.533,85.333
	z M247.467,17.067c-9.429,0-17.067,7.637-17.067,17.067V51.2c0,9.429,7.637,17.067,17.067,17.067h17.067
	c9.429,0,17.067-7.637,17.067-17.067V34.133c0-9.429-7.637-17.067-17.067-17.067H247.467z"/>
<path style="fill:#168DE2;" d="M486.4,426.667h-51.2c-14.14,0-25.6,11.46-25.6,25.6v51.2c0,4.71,3.823,8.533,8.533,8.533h85.333
	c4.71,0,8.533-3.823,8.533-8.533v-51.2C512,438.127,500.54,426.667,486.4,426.667z"/>
<path style="fill:#F5D0C7;" d="M469.333,426.667h-17.067c-18.85,0-34.133-15.283-34.133-34.133v-17.067
	c0-18.85,15.283-34.133,34.133-34.133h17.067c18.85,0,34.133,15.283,34.133,34.133v17.067
	C503.467,411.383,488.184,426.667,469.333,426.667z M452.267,358.4c-9.429,0-17.067,7.637-17.067,17.067v17.067
	c0,9.429,7.637,17.067,17.067,17.067h17.067c9.429,0,17.067-7.637,17.067-17.067v-17.067c0-9.429-7.637-17.067-17.067-17.067
	H452.267z"/>
<path style="fill:#168DE2;" d="M76.8,426.667H25.6c-14.14,0-25.6,11.46-25.6,25.6v51.2C0,508.177,3.823,512,8.533,512h85.333
	c4.71,0,8.533-3.823,8.533-8.533v-51.2C102.4,438.127,90.94,426.667,76.8,426.667z"/>
<path style="fill:#F5D0C7;" d="M59.733,426.667H42.667c-18.85,0-34.133-15.283-34.133-34.133v-17.067
	c0-18.85,15.283-34.133,34.133-34.133h17.067c18.85,0,34.133,15.283,34.133,34.133v17.067
	C93.867,411.383,78.583,426.667,59.733,426.667z M42.667,358.4c-9.429,0-17.067,7.637-17.067,17.067v17.067
	c0,9.429,7.637,17.067,17.067,17.067h17.067c9.429,0,17.067-7.637,17.067-17.067v-17.067c0-9.429-7.637-17.067-17.067-17.067H42.667
	z"/>
<g>
	<path style="fill:#454545;" d="M469.333,324.267h-17.067v-59.733H59.733v59.733H42.667V256c0-4.71,3.823-8.533,8.533-8.533h409.6
		c4.71,0,8.533,3.823,8.533,8.533V324.267z"/>
	<rect x="247.467" y="187.733" style="fill:#454545;" width="17.067" height="136.533"/>
</g>
<g>
	<path style="fill:#6F6F6F;" d="M435.2,324.267h-17.067v-25.6h-25.6V281.6h34.133c4.71,0,8.533,3.823,8.533,8.533V324.267z"/>
	<path style="fill:#6F6F6F;" d="M324.267,230.4h-34.133c-4.71,0-8.533-3.823-8.533-8.533v-34.133h17.067v25.6h25.6V230.4z"/>
	<path style="fill:#6F6F6F;" d="M93.867,324.267H76.8v-34.133c0-4.71,3.823-8.533,8.533-8.533h34.133v17.067h-25.6V324.267z"/>
	<rect x="213.333" y="281.6" style="fill:#6F6F6F;" width="17.067" height="34.133"/>
	<rect x="281.6" y="281.6" style="fill:#6F6F6F;" width="17.067" height="34.133"/>
	<path style="fill:#6F6F6F;" d="M221.867,230.4h-34.133v-17.067h25.6v-25.6H230.4v34.133C230.4,226.577,226.577,230.4,221.867,230.4
		z"/>
</g>
<path d="M307.2,503.467v-51.2c0-14.14-11.46-25.6-25.6-25.6h-17.067c18.85,0,34.133-15.283,34.133-34.133v-17.067
	c0-18.85-15.283-34.133-34.133-34.133h-17.067c-18.85,0-34.133,15.283-34.133,34.133v17.067c0,18.85,15.283,34.133,34.133,34.133
	H230.4c-14.14,0-25.6,11.46-25.6,25.6v51.2c0,4.71,3.823,8.533,8.533,8.533h85.333C303.377,512,307.2,508.177,307.2,503.467z
	 M230.4,392.533v-17.067c0-9.429,7.637-17.067,17.067-17.067h17.067c9.429,0,17.067,7.637,17.067,17.067v17.067
	c0,9.429-7.637,17.067-17.067,17.067h-17.067C238.037,409.6,230.4,401.963,230.4,392.533z M290.133,494.933h-68.267v-42.667
	c0-4.71,3.823-8.533,8.533-8.533h51.2c4.71,0,8.533,3.823,8.533,8.533V494.933z"/>
<path d="M204.8,110.933v51.2c0,4.71,3.823,8.533,8.533,8.533h85.333c4.71,0,8.533-3.823,8.533-8.533v-51.2
	c0-14.14-11.46-25.6-25.6-25.6h-17.067c18.85,0,34.133-15.283,34.133-34.133V34.133C298.667,15.283,283.383,0,264.533,0h-17.067
	c-18.85,0-34.133,15.283-34.133,34.133V51.2c0,18.85,15.283,34.133,34.133,34.133H230.4C216.26,85.333,204.8,96.794,204.8,110.933z
	 M230.4,51.2V34.133c0-9.429,7.637-17.067,17.067-17.067h17.067c9.429,0,17.067,7.637,17.067,17.067V51.2
	c0,9.429-7.637,17.067-17.067,17.067h-17.067C238.037,68.267,230.4,60.629,230.4,51.2z M281.6,102.4c4.71,0,8.533,3.823,8.533,8.533
	V153.6h-68.267v-42.667c0-4.71,3.823-8.533,8.533-8.533H281.6z"/>
<path d="M512,452.267c0-14.14-11.46-25.6-25.6-25.6h-17.067c18.85,0,34.133-15.283,34.133-34.133v-17.067
	c0-18.85-15.283-34.133-34.133-34.133h-17.067c-18.85,0-34.133,15.283-34.133,34.133v17.067c0,18.85,15.283,34.133,34.133,34.133
	H435.2c-14.14,0-25.6,11.46-25.6,25.6v51.2c0,4.71,3.823,8.533,8.533,8.533h85.333c4.71,0,8.533-3.823,8.533-8.533V452.267z
	 M435.2,392.533v-17.067c0-9.429,7.637-17.067,17.067-17.067h17.067c9.429,0,17.067,7.637,17.067,17.067v17.067
	c0,9.429-7.637,17.067-17.067,17.067h-17.067C442.837,409.6,435.2,401.963,435.2,392.533z M494.933,494.933h-68.267v-42.667
	c0-4.71,3.823-8.533,8.533-8.533h51.2c4.71,0,8.533,3.823,8.533,8.533V494.933z"/>
<path d="M0,503.467C0,508.177,3.823,512,8.533,512h85.333c4.71,0,8.533-3.823,8.533-8.533v-51.2c0-14.14-11.46-25.6-25.6-25.6
	H59.733c18.85,0,34.133-15.283,34.133-34.133v-17.067c0-18.85-15.283-34.133-34.133-34.133H42.667
	c-18.85,0-34.133,15.283-34.133,34.133v17.067c0,18.85,15.283,34.133,34.133,34.133H25.6c-14.14,0-25.6,11.46-25.6,25.6V503.467z
	 M25.6,392.533v-17.067c0-9.429,7.637-17.067,17.067-17.067h17.067c9.429,0,17.067,7.637,17.067,17.067v17.067
	c0,9.429-7.637,17.067-17.067,17.067H42.667C33.237,409.6,25.6,401.963,25.6,392.533z M17.067,452.267
	c0-4.71,3.823-8.533,8.533-8.533h51.2c4.71,0,8.533,3.823,8.533,8.533v42.667H17.067V452.267z"/>
<path d="M469.333,324.267V256c0-4.71-3.823-8.533-8.533-8.533H264.533v-59.733h-17.067v59.733H51.2c-4.71,0-8.533,3.823-8.533,8.533
	v68.267h17.067v-59.733h187.733v59.733h17.067v-59.733h187.733v59.733H469.333z"/>
<path d="M435.2,324.267v-34.133c0-4.71-3.823-8.533-8.533-8.533h-34.133v17.067h25.6v25.6H435.2z"/>
<path d="M281.6,187.733v34.133c0,4.71,3.823,8.533,8.533,8.533h34.133v-17.067h-25.6v-25.6H281.6z"/>
<path d="M76.8,290.133v34.133h17.067v-25.6h25.6V281.6H85.333C80.623,281.6,76.8,285.423,76.8,290.133z"/>
<rect x="213.333" y="281.6" width="17.067" height="34.133"/>
<rect x="281.6" y="281.6" width="17.067" height="34.133"/>
<path d="M213.333,213.333h-25.6V230.4h34.133c4.71,0,8.533-3.823,8.533-8.533v-34.133h-17.067V213.333z"/>
<g>
</g>
<g>
</g>
<g>
</g>
<g>
</g>
<g>
</g>
<g>
</g>
<g>
</g>
<g>
</g>
<g>
</g>
<g>
</g>
<g>
</g>
<g>
</g>
<g>
</g>
<g>
</g>
<g>
</g>
</svg>
