<?xml version="1.0" encoding="iso-8859-1"?>
<!-- Generator: Adobe Illustrator 19.0.0, SVG Export Plug-In . SVG Version: 6.00 Build 0)  -->
<svg version="1.1" id="Capa_1" xmlns="http://www.w3.org/2000/svg" xmlns:xlink="http://www.w3.org/1999/xlink" x="0px" y="0px"
	 viewBox="0 0 512.001 512.001" style="enable-background:new 0 0 512.001 512.001;" xml:space="preserve">
<path style="fill:#F5D0C7;" d="M295.21,318.288L281.56,354.63c-1.519,4.248-4.172,7.993-7.678,10.834l-57.157,45.811l-9.64-12.029
	c-4.854-6.048-7.499-13.573-7.507-21.327V181.709h268.127v119.518H331.04L295.21,318.288z"/>
<path style="fill:#168DE2;" d="M199.578,377.92v51.185h-49.479v-27.64l6.228,6.995c20.423-18.154,22.266-49.428,4.112-69.851
	c-0.009-0.009-0.009-0.009-0.017-0.017l-10.322-11.687V58.01h49.479V377.92z"/>
<polygon style="fill:#EC9821;" points="199.578,429.105 174.839,503.324 154.62,442.584 150.099,429.105 "/>
<path style="fill:#F5D0C7;" d="M160.421,338.592c18.162,20.415,16.337,51.689-4.078,69.851c-0.009,0.009-0.009,0.009-0.017,0.017
	l-6.228-6.995v-0.085l-79.935-89.831l-0.256-0.341c-8.437-9.538-8.284-23.912,0.341-33.271l79.849-83.859v71.916l-28.323,29.09
	l28.323,31.82L160.421,338.592z"/>
<path style="fill:#EBC3BA;" d="M150.099,429.105l4.521,13.479c-2.534,3.941-5.571,7.524-9.043,10.664l-86.418-97.252
	c-8.471-9.521-8.326-23.921,0.341-33.271l10.664-11.176l79.935,89.831L150.099,429.105L150.099,429.105z"/>
<g>
	<path style="fill:#454545;" d="M174.839,66.541c-4.709,0-8.531-3.822-8.531-8.531V8.531c0-4.709,3.822-8.531,8.531-8.531
		c4.709,0,8.531,3.822,8.531,8.531V58.01C183.37,62.719,179.548,66.541,174.839,66.541z"/>
	<path style="fill:#454545;" d="M112.99,165.5c-4.709,0-8.531-3.822-8.531-8.531V99.726c0.017-14.076,11.431-25.49,25.507-25.507
		h20.133c4.709,0,8.531,3.822,8.531,8.531s-3.822,8.531-8.531,8.531h-20.133c-4.666,0.009-8.437,3.779-8.446,8.446v57.242
		C121.52,161.678,117.699,165.5,112.99,165.5z"/>
</g>
<path style="fill:#EBC3BA;" d="M210.071,416.607l-9.64-12.029c-14.716-18.316-11.807-45.094,6.501-59.827l23.409-18.768
	l20.346-55.681l16.021,5.852l-21.157,57.925c-0.537,1.467-1.467,2.756-2.679,3.737l-25.251,20.218
	c-10.971,8.838-12.703,24.893-3.873,35.864c0,0,0,0.009,0.009,0.009l4.265,5.357l44.941-23.904
	C265.207,373.56,210.071,416.607,210.071,416.607z"/>
<path d="M52.761,361.711l86.418,97.252c3.131,3.523,8.514,3.839,12.037,0.717l0,0l15.492,46.451
	c1.467,4.479,6.296,6.91,10.766,5.443c2.576-0.845,4.598-2.866,5.443-5.443l24.74-74.219c0.247-0.802,0.384-1.629,0.392-2.465
	c0-0.085,0.043-0.154,0.043-0.23v-15.049l1.979,2.457c1.416,1.766,3.481,2.901,5.733,3.148c0.307,0,0.614,0,0.921,0
	c1.945,0,3.822-0.665,5.34-1.877l57.157-45.845c4.709-3.779,8.309-8.77,10.391-14.443l12.43-33.151l30.873-14.673h134.788v-17.062
	H330.997c-1.271,0.009-2.525,0.299-3.668,0.853l-16.704,7.951l6.902-18.427l-15.978-5.972l-27.973,74.628
	c-1.007,2.773-2.764,5.221-5.067,7.064l-50.469,40.513l-4.317-5.392c-8.812-10.979-7.055-27.017,3.924-35.83l25.2-20.286
	c1.211-0.981,2.133-2.261,2.67-3.72l21.191-57.916l-16.021-5.869L230.307,326l-22.18,17.838V190.282h259.579V173.22H208.092V58.01
	c0-4.709-3.822-8.531-8.531-8.531h-16.209V8.531c0-4.709-3.822-8.531-8.531-8.531c-4.709,0-8.531,3.822-8.531,8.531v40.948h-16.209
	c-4.709,0-8.531,3.822-8.531,8.531v16.209h-11.568c-14.093,0.034-25.507,11.448-25.533,25.542v57.208
	c0,4.709,3.822,8.531,8.531,8.531s8.531-3.822,8.531-8.531V99.761c0-4.683,3.788-8.471,8.471-8.48h11.576v99.385l-77.572,81.521
	c-9.708,10.45-11.619,25.943-4.743,38.44l-6.04,6.347C41.5,329.524,41.304,348.932,52.761,361.711z M65.506,350.373
	c-5.545-6.185-5.485-15.577,0.145-21.686l4.317-4.53l71.591,80.523v24.424c0,0.077,0.043,0.145,0.043,0.23
	c0.009,0.836,0.137,1.664,0.392,2.465l2.448,7.328L65.506,350.373z M174.83,476.341l-12.907-38.705h25.806L174.83,476.341z
	 M158.621,66.541h32.417v354.033h-32.417v-4.027c1.254-0.29,2.423-0.879,3.412-1.706c23.946-21.285,26.096-57.951,4.811-81.897
	l-8.19-9.222V66.541H158.621z M141.56,304.494l-8.121-9.128l8.121-8.352V304.494z M76.435,283.858l65.125-68.444v47.099
	l-25.891,26.685c-3.114,3.208-3.216,8.275-0.247,11.611l38.645,43.508c12.831,14.451,13.829,35.898,2.397,51.476l-80.191-90.18
	C70.685,299.41,70.753,289.974,76.435,283.858z"/>
<g>
</g>
<g>
</g>
<g>
</g>
<g>
</g>
<g>
</g>
<g>
</g>
<g>
</g>
<g>
</g>
<g>
</g>
<g>
</g>
<g>
</g>
<g>
</g>
<g>
</g>
<g>
</g>
<g>
</g>
</svg>
