<?xml version="1.0" encoding="iso-8859-1"?>
<!-- Generator: Adobe Illustrator 19.0.0, SVG Export Plug-In . SVG Version: 6.00 Build 0)  -->
<svg version="1.1" id="Capa_1" xmlns="http://www.w3.org/2000/svg" xmlns:xlink="http://www.w3.org/1999/xlink" x="0px" y="0px"
	 viewBox="0 0 512.003 512.003" style="enable-background:new 0 0 512.003 512.003;" xml:space="preserve">
<g>
	<path style="fill:#FFDB6F;" d="M291.242,369.948c0.469,0.401,0.845,0.896,1.109,1.451c-7.936,7.168-15.872,13.995-23.808,20.651
		l-0.256-0.256l-5.205-6.315c8.533-7.083,15.958-13.654,22.87-19.798L291.242,369.948z"/>
	<path style="fill:#FFDB6F;" d="M26.96,484.979c16.811,16.896,55.98,12.032,107.778-13.227c3.072,1.707,6.144,3.328,9.301,4.949
		c7.168-3.669,14.592-7.68,22.102-11.947l-21.248,12.374c2.901,1.451,5.803,2.816,8.704,4.181c-1.963,1.024-3.84,2.048-5.717,2.987
		c-36.097,18.262-67.158,27.478-91.479,27.478c-15.266,0.913-30.251-4.378-41.558-14.678c-23.382-23.382-18.859-70.657,12.8-133.037
		l7.68,13.91l2.389,4.267C14.587,431.474,10.576,468.68,26.96,484.979z"/>
	<path style="fill:#FFDB6F;" d="M268.287,391.794l0.171,0.256c-0.299-0.06-0.589-0.179-0.853-0.341l-7.168-4.011
		c0.853-0.768,1.621-1.451,2.475-2.133L268.287,391.794z"/>
</g>
<g>
	<path style="fill:#03AA6F;" d="M268.287,391.794l0.256,0.256h-0.085L268.287,391.794z"/>
	<path style="fill:#03AA6F;" d="M273.834,356.124l12.118,9.557c-6.912,6.144-14.336,12.715-22.87,19.798l5.205,6.315l-5.376-6.229
		c-0.853,0.683-1.621,1.365-2.475,2.133l-1.024-0.597c-1.715-0.913-2.458-2.987-1.707-4.779l10.24-24.662
		c0.751-1.929,2.927-2.893,4.864-2.142C273.177,355.663,273.518,355.868,273.834,356.124z"/>
	<path style="fill:#03AA6F;" d="M40.273,225.562c9.498,0.017,18.398,4.625,23.894,12.374l6.315,9.045
		c3.499,4.941,5.376,10.846,5.376,16.896l11.776,49.238c2.074,8.661,2.449,17.647,1.109,26.454l-12.715,86.273
		c-14.311-15.045-26.616-31.881-36.609-50.091c-1.451-2.56-2.816-5.205-4.181-7.851c-22.341-44.075-30.959-93.834-24.747-142.85
		L40.273,225.562z"/>
</g>
<g>
	<path style="fill:#FFDB6F;" d="M497.07,14.87c23.296,23.382,18.774,70.572-12.8,133.037c-0.939,1.877-1.963,3.84-2.987,5.717
		c-1.451-3.243-2.987-6.4-4.608-9.558c-1.621-3.157-3.243-6.229-4.949-9.216c25.259-51.884,30.123-91.052,13.227-107.863
		c-16.214-16.299-52.908-12.459-101.719,10.24l-13.056-6.485l-6.144-3.072C426.413-3.989,473.603-8.512,497.07,14.87z"/>
	<path style="fill:#FFDB6F;" d="M484.355,364.231c31.574,62.294,36.011,109.484,12.715,132.866
		c-11.324,10.326-26.351,15.625-41.643,14.678c-24.235,0-55.297-9.216-91.394-27.478c-1.877-0.939-3.84-1.963-5.717-2.987
		c3.243-1.451,6.4-2.987,9.557-4.608c-6.144-3.072-12.544-6.485-18.944-10.155l23.126,8.107c1.707-0.939,3.413-1.877,5.12-2.901
		c51.798,25.259,90.967,30.123,107.778,13.227c16.214-16.128,12.459-52.652-9.984-101.122L484.355,364.231z"/>
</g>
<path style="fill:#62BEFF;" d="M503.47,256.026c0.034,36.626-8.073,72.791-23.723,105.9c-1.024,2.048-2.048,4.011-3.072,6.059
	c-22.153,43.683-56.79,79.797-99.5,103.767c-1.792-0.853-3.669-1.707-5.461-2.645c-6.315-3.157-12.544-6.485-18.603-9.984
	c-29.244-16.802-57.174-35.806-83.543-56.833c1.451-1.28,2.987-2.475,4.437-3.755v0.085c8.96-7.595,16.896-14.422,24.064-20.822
	c13.824-12.459,27.648-25.43,40.961-38.742c11.094-11.179,21.59-22.187,31.233-32.769l10.923,20.992
	c1.007,1.877,3.345,2.577,5.222,1.57c1.237-0.666,2.014-1.954,2.031-3.362v-39.595c3.157-3.669,6.144-7.253,9.045-10.667
	c2.901-3.413,5.717-6.741,8.448-10.07c2.901-3.499,5.717-7.083,8.363-10.582h26.112c9.105-0.026,17.562-4.693,22.443-12.374
	l32.171-50.518C500.662,212.659,503.504,234.291,503.47,256.026z M429.399,389.063c0.06-1.425-0.751-2.739-2.048-3.328
	c-0.401-0.205-0.777-0.461-1.109-0.768l-22.102-23.382c-0.7-0.768-1.69-1.203-2.731-1.195h-36.609
	c-1.86-0.017-3.456,1.323-3.755,3.157l-3.243,18.176c-0.333,2.065,1.024,4.019,3.072,4.437l34.39,6.741h30.294
	c2.108,0.017,3.823-1.681,3.84-3.789C429.399,389.097,429.399,389.08,429.399,389.063z"/>
<path style="fill:#03AA6F;" d="M495.022,191.598v0.085l-32.171,50.518c-4.881,7.68-13.338,12.348-22.443,12.374h-26.112
	c25.336-31.557,47.762-65.341,66.988-100.951C486.957,165.853,491.557,178.559,495.022,191.598z"/>
<g>
	<path style="fill:#FFDB6F;" d="M476.675,144.067c1.621,3.157,3.157,6.315,4.608,9.558c-19.226,35.61-41.652,69.394-66.988,100.951
		c-5.419,0.188-10.65,2.005-15.019,5.205C429.024,224,454.966,185.224,476.675,144.067z"/>
	<path style="fill:#FFDB6F;" d="M471.725,134.851c1.707,2.987,3.413,6.059,4.949,9.216c-21.709,41.157-47.642,79.942-77.399,115.714
		c-3.524,2.517-6.34,5.897-8.192,9.814l-0.085,0.085c-7.936,9.557-16.214,19.03-24.918,28.587l-4.181-8.021
		c8.021-9.046,15.702-17.75,22.614-26.112c2.901-3.328,5.547-6.571,8.192-9.728c29.321-35.329,54.913-73.593,76.375-114.178
		C470.019,138.435,470.872,136.643,471.725,134.851z"/>
</g>
<g>
	<path style="fill:#03AA6F;" d="M471.725,134.851c-0.853,1.792-1.707,3.584-2.645,5.376
		c-21.462,40.585-47.054,78.849-76.375,114.178c-2.645,3.157-5.291,6.4-8.192,9.728c-6.912,8.363-14.592,17.067-22.614,26.112
		l-7.253-13.824c-3.925-7.407-11.094-12.561-19.371-13.91l-39.169-6.4c-6.366-0.998-12.886,0.341-18.347,3.755l-8.875,5.547
		c-22.341,13.875-35.926,38.307-35.926,64.598v7.339c0.017,9.754-2.671,19.328-7.765,27.648
		c-13.312-11.947-26.966-24.747-40.193-38.059c-11.947-11.947-23.552-24.064-34.475-36.182c-2.133-2.389-4.267-4.779-6.315-7.168
		V182.894c-0.043-6.818,2.594-13.372,7.339-18.262l42.411-44.801c6.059-6.417,13.193-11.734,21.078-15.702l59.222-30.038
		c10.82-5.478,22.776-8.337,34.902-8.363l105.474,0.341C437.694,85.322,457.039,108.636,471.725,134.851z"/>
	<path style="fill:#03AA6F;" d="M427.351,385.735c1.297,0.589,2.108,1.903,2.048,3.328c0.017,2.108-1.681,3.823-3.789,3.84
		c-0.017,0-0.034,0-0.051,0h-30.294l-34.39-6.741c-2.048-0.418-3.405-2.372-3.072-4.437l3.243-18.176
		c0.299-1.835,1.894-3.174,3.755-3.157h36.609c1.041-0.009,2.031,0.427,2.731,1.195l22.102,23.382
		C426.575,385.266,426.942,385.522,427.351,385.735z"/>
</g>
<path style="fill:#62BEFF;" d="M414.636,66.071L309.163,65.73c-12.126,0.026-24.081,2.884-34.902,8.363l-59.222,30.038
	c-7.885,3.968-15.019,9.284-21.078,15.702l-42.411,44.801c-4.745,4.89-7.381,11.443-7.339,18.262v100.695
	c-39.664-43.307-73.695-91.445-101.292-143.277c-0.939-1.792-1.792-3.584-2.731-5.376c3.157-5.888,6.741-11.52,10.411-17.067
	l0.597,0.427l46.422-6.485c0.393-0.034,0.768-0.154,1.109-0.341l35.926-16.47c11.955-5.496,22.187-14.14,29.611-25.003
	l13.568-19.968c0.196-0.29,0.333-0.606,0.427-0.939l10.326-31.233c59.837-16.862,123.812-10.65,179.288,17.408
	C384.616,43.654,400.309,53.996,414.636,66.071z"/>
<g>
	<path style="fill:#FFDB6F;" d="M414.295,254.575c-2.645,3.499-5.461,7.083-8.363,10.582c-2.731,3.328-5.547,6.741-8.448,10.069
		c-2.901,3.328-5.888,6.997-9.045,10.667V281.2c0-3.985,0.87-7.911,2.56-11.52l0.085-0.085c2.816-3.243,5.547-6.571,8.192-9.813
		C403.645,256.572,408.876,254.763,414.295,254.575z"/>
	<path style="fill:#FFDB6F;" d="M399.276,259.781c-2.645,3.243-5.376,6.571-8.192,9.814
		C392.927,265.678,395.752,262.298,399.276,259.781z"/>
	<path style="fill:#FFDB6F;" d="M390.999,269.68c-1.69,3.61-2.56,7.535-2.56,11.52v4.693c-5.035,5.888-10.411,11.947-16.043,18.091
		c-0.683,0.768-1.365,1.536-2.133,2.304l-4.181-8.021C374.785,288.709,383.062,279.237,390.999,269.68z"/>
</g>
<path style="fill:#03AA6F;" d="M388.439,301.083v24.406c-0.017,2.133-1.766,3.84-3.891,3.823c-1.408-0.017-2.697-0.794-3.362-2.031
	l-10.923-20.992c0.768-0.768,1.451-1.536,2.133-2.304c5.632-6.144,11.008-12.203,16.043-18.091V301.083z"/>
<g>
	<path style="fill:#FFDB6F;" d="M377.174,471.752c-1.707,1.024-3.413,1.963-5.12,2.901l-23.126-8.107
		c-30.174-17.357-58.992-36.984-86.188-58.71l6.827-5.547c26.368,21.026,54.298,40.031,83.543,56.833
		c6.059,3.499,12.288,6.827,18.603,9.984C373.505,470.046,375.382,470.899,377.174,471.752z"/>
	<path style="fill:#FFDB6F;" d="M366.081,298.267l4.181,8.021c-9.643,10.582-20.139,21.59-31.233,32.769
		c-13.312,13.312-27.136,26.283-40.961,38.742c-7.168,6.4-15.104,13.227-24.064,20.822v-0.085l-4.437-5.205l-1.024-1.28
		c1.152,0.333,2.398,0.077,3.328-0.683l19.371-15.446c1.382-1.067,1.843-2.944,1.109-4.523
		c13.568-12.118,27.111-24.918,40.619-38.401C344.491,321.478,355.585,309.872,366.081,298.267z"/>
	<path style="fill:#FFDB6F;" d="M361.899,290.245l4.181,8.021c-10.496,11.606-21.59,23.211-33.11,34.731
		c-13.483,13.483-27.026,26.283-40.619,38.401c-0.265-0.555-0.64-1.05-1.109-1.451l-5.291-4.267
		c0.256-0.171,0.427-0.427,0.683-0.597c13.654-12.203,27.222-25.003,40.278-38.145c11.691-11.691,22.784-23.211,32.854-34.39
		C360.449,291.781,361.131,291.013,361.899,290.245z"/>
</g>
<path style="fill:#62BEFF;" d="M354.646,276.421l7.253,13.824c-0.768,0.768-1.451,1.536-2.133,2.304
	c-10.07,11.179-21.163,22.699-32.854,34.39c-13.056,13.142-26.624,25.942-40.278,38.145c-0.256,0.171-0.427,0.427-0.683,0.597
	l-12.118-9.557c-1.596-1.323-3.968-1.092-5.282,0.512c-0.256,0.307-0.461,0.657-0.606,1.024l-10.24,24.662
	c-0.751,1.792-0.009,3.866,1.707,4.779l1.024,0.597c-1.536,1.195-2.987,2.475-4.523,3.669c-10.24-8.448-20.139-16.896-30.038-25.771
	c-0.256-0.171-0.427-0.427-0.683-0.597c5.094-8.32,7.783-17.895,7.765-27.648v-7.339c0-26.292,13.585-50.723,35.926-64.598
	l8.875-5.547c5.461-3.413,11.981-4.753,18.347-3.755l39.169,6.4C343.544,263.86,350.712,269.006,354.646,276.421z"/>
<path style="fill:#FFDB6F;" d="M367.873,476.702c-3.157,1.621-6.315,3.157-9.557,4.608c-4.608-2.304-9.216-4.779-13.654-7.339
	c-10.923-6.229-22.042-13.082-33.366-20.566l37.633,13.142C355.329,470.216,361.729,473.63,367.873,476.702z"/>
<path style="fill:#03AA6F;" d="M344.662,473.971c4.437,2.56,9.046,5.035,13.654,7.339c-65.034,29.586-139.684,29.586-204.718,0
	c5.461-2.816,11.094-5.888,16.726-9.131l-4.181-7.424l5.973-3.499l4.352,7.339c12.203-7.253,24.636-15.275,37.291-24.064
	c5.299-0.922,10.667-1.382,16.043-1.365h35.414c11.008-0.026,21.948,1.818,32.342,5.461l13.739,4.779
	C322.645,460.915,333.765,467.767,344.662,473.971z"/>
<path style="fill:#FFDB6F;" d="M348.929,466.547l-37.633-13.142c-18.006-11.776-36.523-25.174-55.382-40.193
	c1.792-1.365,3.499-2.731,5.291-4.181c0.495-0.427,1.007-0.819,1.536-1.195C289.937,429.563,318.746,449.19,348.929,466.547z"/>
<path style="fill:#62BEFF;" d="M311.296,453.405l-13.739-4.779c-10.394-3.644-21.334-5.487-32.342-5.461h-35.414
	c-5.376-0.017-10.744,0.444-16.043,1.365c13.91-9.557,27.964-19.994,42.155-31.318C274.773,428.232,293.29,441.629,311.296,453.405z
	"/>
<g>
	<path style="fill:#FFDB6F;" d="M292.352,371.399c0.734,1.579,0.273,3.456-1.109,4.523l-19.371,15.446
		c-0.93,0.759-2.176,1.015-3.328,0.683C276.479,385.394,284.415,378.567,292.352,371.399z"/>
	<path style="fill:#FFDB6F;" d="M269.567,393.33l4.437,5.205c-1.451,1.28-2.987,2.475-4.437,3.755
		c-2.304-1.792-4.523-3.584-6.827-5.461c1.963-1.536,3.84-3.157,5.717-4.779L269.567,393.33z"/>
</g>
<path style="fill:#62BEFF;" d="M268.543,392.05l1.024,1.28l-1.109-1.28H268.543z"/>
<g>
	<path style="fill:#FFDB6F;" d="M262.74,396.828c2.304,1.877,4.523,3.669,6.827,5.461l-6.827,5.547
		c-2.219-1.792-4.523-3.584-6.827-5.461C258.218,400.583,260.522,398.706,262.74,396.828z"/>
	<path style="fill:#FFDB6F;" d="M268.458,392.05c-1.877,1.621-3.755,3.243-5.717,4.779c-0.503-0.341-0.99-0.717-1.451-1.109
		l-5.376-4.352c1.536-1.195,2.987-2.475,4.523-3.669l7.168,4.011C267.861,391.871,268.151,391.982,268.458,392.05z"/>
	<path style="fill:#FFDB6F;" d="M255.914,402.375c2.304,1.877,4.608,3.669,6.827,5.461c-0.529,0.375-1.041,0.768-1.536,1.195
		c-1.792,1.451-3.499,2.816-5.291,4.181c-1.792-1.28-3.584-2.731-5.376-4.181c-0.495-0.427-1.007-0.819-1.536-1.195
		C251.306,406.045,253.61,404.253,255.914,402.375z"/>
	<path style="fill:#FFDB6F;" d="M261.29,395.719c0.461,0.393,0.947,0.768,1.451,1.109c-2.219,1.877-4.523,3.755-6.827,5.547
		c-2.219-1.792-4.523-3.669-6.741-5.547l1.365-1.109l5.376-4.352L261.29,395.719z"/>
	<path style="fill:#FFDB6F;" d="M255.914,391.367l-5.376,4.352l-1.365,1.109c-9.643-7.851-19.286-16.128-28.928-24.832
		c1.877-2.168,3.533-4.506,4.949-6.997c0.256,0.171,0.427,0.427,0.683,0.597C235.775,374.471,245.673,382.919,255.914,391.367z"/>
	<path style="fill:#FFDB6F;" d="M255.914,402.375c-2.304,1.877-4.608,3.669-6.912,5.461c-2.219-1.877-4.523-3.669-6.741-5.547
		c2.304-1.792,4.608-3.669,6.912-5.461C251.391,398.706,253.695,400.583,255.914,402.375z"/>
	<path style="fill:#FFDB6F;" d="M250.538,409.031c1.792,1.451,3.584,2.901,5.376,4.181c-14.166,11.35-28.22,21.786-42.155,31.318
		c-11.853,1.903-23.254,5.982-33.622,12.032l-8.021,4.693c26.778-16.094,52.464-33.946,76.887-53.42
		C249.531,408.204,250.043,408.605,250.538,409.031z"/>
	<path style="fill:#FFDB6F;" d="M249.172,396.828c-2.304,1.792-4.608,3.669-6.912,5.461c-9.387-7.765-18.774-15.872-27.734-23.979
		c-0.085-0.085-0.256-0.171-0.341-0.341c2.185-1.818,4.216-3.814,6.059-5.973C229.887,380.7,239.529,388.978,249.172,396.828z"/>
	<path style="fill:#FFDB6F;" d="M242.26,402.29c2.219,1.877,4.523,3.669,6.741,5.547c-24.423,19.473-50.109,37.325-76.887,53.42
		l-4.352-7.339C193.653,438.284,218.537,421.047,242.26,402.29z"/>
</g>
<path style="fill:#62BEFF;" d="M214.526,378.311c8.96,8.107,18.347,16.214,27.734,23.979
	c-23.723,18.757-48.607,36.003-74.497,51.628l4.352,7.339l-5.973,3.499l-4.181-7.424c-7.424,4.181-14.763,8.192-21.76,11.776
	c-1.792,0.939-3.669,1.792-5.461,2.645c-21.82-12.186-41.626-27.674-58.71-45.91l12.715-86.273
	c1.34-8.807,0.964-17.792-1.109-26.454l-11.776-49.238c0-6.05-1.877-11.955-5.376-16.896l-6.315-9.045
	c-5.496-7.748-14.396-12.356-23.894-12.374l-29.782-0.512c3.012-24.696,9.805-48.786,20.139-71.425
	c29.5,53.752,65.529,103.648,107.266,148.568c2.56,2.816,5.12,5.632,7.765,8.448c1.971,8.644,6.076,16.657,11.947,23.296
	l43.435,49.153c1.254,1.348,3.285,1.638,4.864,0.683l1.024-0.597c2.569-1.51,5.001-3.251,7.253-5.205
	C214.27,378.14,214.441,378.226,214.526,378.311z"/>
<g>
	<path style="fill:#FFDB6F;" d="M225.193,364.999c-1.417,2.492-3.072,4.83-4.949,6.997c-13.824-12.288-27.589-25.285-41.302-38.998
		c-12.118-12.118-23.697-24.295-34.731-36.523v-12.886c2.048,2.389,4.181,4.779,6.315,7.168
		c10.923,12.118,22.528,24.235,34.475,36.182C198.227,340.252,211.881,353.052,225.193,364.999z"/>
	<path style="fill:#FFDB6F;" d="M220.244,371.996c-1.843,2.159-3.874,4.156-6.059,5.973c-13.739-12.203-27.563-25.259-41.302-38.913
		c-9.301-9.387-18.518-18.944-27.222-28.416c-0.956-3.943-1.442-7.979-1.451-12.032v-2.133
		c11.008,12.203,22.588,24.38,34.731,36.523C192.681,346.737,206.445,359.733,220.244,371.996z"/>
</g>
<g>
	<path style="fill:#03AA6F;" d="M214.185,377.97c-2.253,1.954-4.685,3.695-7.253,5.205l-1.024,0.597
		c-1.579,0.956-3.61,0.666-4.864-0.683l-43.435-49.153c-5.871-6.639-9.976-14.652-11.947-23.296
		c8.704,9.472,17.92,19.03,27.222,28.416C186.622,352.71,200.446,365.767,214.185,377.97z"/>
	<path style="fill:#03AA6F;" d="M188.585,17.857l-10.326,31.233c-0.094,0.333-0.23,0.649-0.427,0.939l-13.568,19.968
		c-7.424,10.863-17.656,19.508-29.611,25.003l-35.926,16.47c-0.341,0.188-0.717,0.307-1.109,0.341l-46.422,6.485l-0.597-0.427
		c21.154-31.326,49.17-57.422,81.921-76.289c3.84-2.219,7.68-4.352,11.606-6.315C158.316,27.969,173.207,22.141,188.585,17.857z"/>
</g>
<g>
	<path style="fill:#FFDB6F;" d="M213.758,444.531c-12.63,8.789-25.063,16.811-37.291,24.064l-4.352-7.339l8.021-4.693
		C190.505,450.513,201.905,446.434,213.758,444.531z"/>
	<path style="fill:#FFDB6F;" d="M166.141,464.755l4.181,7.424c-5.632,3.243-11.264,6.315-16.726,9.131
		c-2.901-1.365-5.803-2.731-8.704-4.181L166.141,464.755z"/>
	<path style="fill:#FFDB6F;" d="M161.96,457.331l4.181,7.424c-7.509,4.267-14.934,8.277-22.102,11.947
		c-3.157-1.621-6.229-3.243-9.301-4.949c1.792-0.853,3.669-1.707,5.461-2.645C147.197,465.523,154.536,461.512,161.96,457.331z"/>
	<path style="fill:#FFDB6F;" d="M147.965,27.67l-17.408,10.411C80.807,14.699,43.345,10.518,26.96,26.988
		C9.979,43.884,14.928,83.053,40.187,134.936c-1.707,2.987-3.328,6.059-4.864,9.216c-1.621,3.157-3.157,6.315-4.693,9.472
		c-1.024-1.877-1.963-3.755-2.901-5.632C-4.016,85.613-8.539,38.337,14.843,14.87S85.5-3.989,147.965,27.67z"/>
	<path style="fill:#FFDB6F;" d="M145.661,310.64c-2.645-2.816-5.205-5.632-7.765-8.448C96.158,257.272,60.13,207.377,30.63,153.624
		c1.536-3.157,3.072-6.315,4.693-9.472c29.594,55.246,66.186,106.447,108.887,152.323v2.133
		C144.219,302.662,144.705,306.698,145.661,310.64z"/>
	<path style="fill:#FFDB6F;" d="M144.21,283.589v12.886c-42.702-45.876-79.293-97.077-108.887-152.323
		c1.536-3.157,3.157-6.229,4.864-9.216c0.939,1.792,1.792,3.584,2.731,5.376C70.507,192.145,104.547,240.282,144.21,283.589z"/>
</g>
<path d="M486.07,143.879c28.493-58.395,34.27-105.696,10.966-129.001C474.149-8.008,428.324-4.066,367.788,25.776
	c-70.597-34.356-153.065-34.356-223.662,0C83.623-4.057,37.764-8.017,14.851,14.879C-8.462,38.201-2.685,85.544,25.868,143.99
	c-34.45,70.623-34.492,153.167-0.119,223.825C-4.118,428.326-8.035,474.159,14.851,497.046
	c11.196,10.172,26.036,15.386,41.131,14.447c23.894,0,53.991-8.935,87.809-25.438c70.785,34.586,153.568,34.586,224.354,0
	c33.793,16.478,63.907,25.413,87.758,25.404c15.096,0.939,29.935-4.275,41.131-14.447c22.87-22.87,18.944-68.66-10.838-129.12
	c34.45-70.725,34.407-153.381-0.128-224.063V143.879z M485.686,190.37l-30.004,47.258c-3.311,5.24-9.08,8.405-15.275,8.388h-19.38
	c20.429-26.24,38.836-53.983,55.067-83.005C479.841,171.92,483.049,181.06,485.686,190.37z M384.308,264.432
	c-5.325,6.34-10.795,12.672-16.41,18.987l-5.717-10.931c-5.163-9.788-14.601-16.606-25.524-18.407l-39.143-6.349
	c-8.397-1.374-17.016,0.358-24.235,4.864l-8.917,5.555c-24.884,15.386-39.988,42.599-39.894,71.852v7.356
	c-0.026,7.637-2.005,15.138-5.752,21.795c-11.332-10.334-22.58-21.069-33.741-32.214c-11.324-11.332-22.068-22.58-32.248-33.75
	V182.92c-0.009-4.634,1.775-9.097,4.966-12.459l42.488-44.784c5.393-5.692,11.725-10.411,18.722-13.961l59.239-30.038
	c9.609-4.856,20.216-7.39,30.977-7.407l102.103,0.324c22.767,19.49,41.686,43.06,55.792,69.505
	c-20.95,39.075-45.799,75.931-74.147,110.014C389.377,256.965,386.467,260.472,384.308,264.432z M379.871,295.639v10.667
	l-3.516-6.707C377.55,298.275,378.693,296.987,379.871,295.639z M267.229,381.673l6.212-14.985l5.973,4.779
	c-3.985,3.499-7.962,6.946-11.947,10.343L267.229,381.673z M292.36,359.921l-13.235-10.488c-5.342-4.241-13.107-3.345-17.349,1.988
	c-0.708,0.896-1.297,1.886-1.732,2.944l0,0l-10.24,24.645c-0.845,2.176-1.041,4.548-0.563,6.827
	c-5.897-4.932-11.785-9.95-17.673-15.13c6.434-9.933,9.89-21.496,9.95-33.332v-7.356c-0.077-23.365,11.99-45.082,31.855-57.371
	l8.917-5.555c3.721-2.33,8.15-3.226,12.484-2.534l39.143,6.366c5.615,0.922,10.479,4.429,13.133,9.464l8.644,16.512
	c-9.284,10.078-18.876,20.088-28.783,30.029c-11.435,11.418-22.964,22.417-34.578,32.99L292.36,359.921z M207.759,372.158
	c-0.956,0.777-1.894,1.562-2.918,2.261l-27.853-31.463c10.223,10.129,20.472,19.866,30.746,29.202H207.759z M484.969,26.945
	c15.855,15.864,12.527,51.363-8.883,98.519c-21.982-36.865-52.805-67.662-89.695-89.602
	C433.581,14.461,469.097,11.115,484.969,26.945z M388.737,57.461l-79.592-0.265c-13.449,0.017-26.71,3.183-38.716,9.25
	L211.19,96.484c-8.738,4.429-16.649,10.326-23.39,17.434l-42.488,44.826c-6.195,6.52-9.643,15.181-9.634,24.175v91.12
	c-35.175-39.561-65.665-83.056-90.864-129.615c3.302-6.221,6.887-12.263,10.701-18.142l43.222-5.973
	c1.229-0.162,2.424-0.503,3.55-1.015l35.952-16.546c13.363-6.144,24.798-15.821,33.067-27.981l13.534-19.9
	c0.657-0.956,1.169-2.005,1.536-3.106l8.858-26.821C261.409,7.523,331.879,19.367,388.737,57.461z M170.383,45.778l-13.184,19.388
	c-6.52,9.592-15.539,17.229-26.078,22.068l-35.329,16.214l-26.454,3.669c27.606-34.603,64.249-60.886,105.875-75.948L170.383,45.778
	z M26.918,26.945c15.872-15.83,51.423-12.484,98.638,8.917C88.589,57.862,57.715,88.77,35.741,125.754
	C14.399,78.453,11.165,42.689,26.918,26.945z M135.72,299.811c0.265,14.686,5.752,28.792,15.488,39.792l43.47,49.11
	c3.925,4.437,10.462,5.461,15.557,2.432l1.092-0.649c3.277-2.005,6.366-4.309,9.208-6.895c7.322,6.434,14.618,12.647,21.88,18.646
	c-30.712,24.593-63.626,46.277-98.34,64.795c-21.812-11.623-41.703-26.548-58.958-44.246l12.092-81.921
	c1.468-9.882,1.033-19.951-1.297-29.671l-11.52-48.393c-0.196-7.45-2.603-14.678-6.912-20.753l-6.375-9.071
	c-7.057-9.976-18.501-15.932-30.721-15.975l-20.045-0.367c3.046-18.381,8.252-36.344,15.497-53.505
	C63.885,212.301,97.396,258.142,135.72,299.811z M255.939,413.307c10.633,8.431,21.154,16.359,31.574,23.791
	c-7.339-1.596-14.814-2.415-22.324-2.449h-35.397c-0.751,0-1.502,0.137-2.253,0.154c9.378-6.835,18.842-13.961,28.399-21.538
	V413.307z M18.137,233.711l22.11,0.401c6.724,0,13.031,3.268,16.922,8.755l6.375,9.02c2.475,3.49,3.797,7.663,3.797,11.947
	c0,0.666,0.077,1.323,0.23,1.971l11.785,49.323c1.818,7.603,2.159,15.488,1.015,23.228l-10.052,67.858
	c-34.501-42.454-53.317-95.498-53.257-150.189C17.062,248.5,17.454,241.067,18.137,233.711z M26.918,484.996
	c-15.83-15.864-12.476-51.389,8.917-98.57c21.94,36.89,52.737,67.713,89.602,89.687C78.272,497.524,42.782,500.852,26.918,484.996z
	 M255.999,494.963c-31.821,0.034-63.318-6.323-92.631-18.697l21.103-12.322c13.756-8.03,29.398-12.263,45.321-12.271h35.38
	c10.078,0,20.079,1.69,29.594,5.018l51.44,17.92c0.896,0.503,1.809,1.041,2.705,1.527
	C319.514,488.589,287.914,494.989,255.999,494.963z M484.969,484.996c-15.864,15.847-51.329,12.527-98.459-8.807
	c36.856-21.948,67.653-52.745,89.602-89.602C497.445,433.659,500.807,469.15,484.969,484.996z M371.201,465.267l-18.663-6.503
	c-29.065-16.743-56.833-35.636-83.082-56.517l2.338-1.929c1.946-0.316,3.789-1.101,5.368-2.287l19.397-15.411
	c2.364-1.886,3.934-4.574,4.429-7.552c12.672-11.443,25.327-23.459,37.983-36.062c8.653-8.653,17.024-17.323,25.123-26.019
	l9.549,18.245c3.166,6.042,10.624,8.38,16.666,5.214c4.07-2.133,6.622-6.34,6.622-10.931v-44.331
	c0.009-2.347,0.469-4.659,1.365-6.827c2.304-2.756,4.565-5.504,6.827-8.26c2.936-1.946,6.383-2.987,9.907-2.987h25.344
	c12.041,0.034,23.245-6.118,29.679-16.299l21.044-33.118C509.418,314.608,461.127,415.935,371.201,465.267z"/>
<path d="M431.985,378.558l-21.607-22.853c-2.33-2.466-5.572-3.857-8.969-3.866h-36.6c-5.991-0.009-11.119,4.292-12.16,10.189
	l-3.217,18.202c-1.152,6.639,3.209,12.979,9.822,14.285l34.475,6.733c0.768,0.119,1.545,0.188,2.321,0.213h29.577
	c6.818,0.009,12.348-5.513,12.356-12.322c0.009-4.326-2.261-8.346-5.965-10.582H431.985z M396.477,384.395l-29.432-5.743
	l1.707-9.745h30.61l14.652,15.488H396.477z"/>
<g>
</g>
<g>
</g>
<g>
</g>
<g>
</g>
<g>
</g>
<g>
</g>
<g>
</g>
<g>
</g>
<g>
</g>
<g>
</g>
<g>
</g>
<g>
</g>
<g>
</g>
<g>
</g>
<g>
</g>
</svg>
