<?xml version="1.0" encoding="iso-8859-1"?>
<!-- Generator: Adobe Illustrator 19.0.0, SVG Export Plug-In . SVG Version: 6.00 Build 0)  -->
<svg version="1.1" id="Capa_1" xmlns="http://www.w3.org/2000/svg" xmlns:xlink="http://www.w3.org/1999/xlink" x="0px" y="0px"
	 viewBox="0 0 512 512" style="enable-background:new 0 0 512 512;" xml:space="preserve">
<g>
	<circle style="fill:#EC9821;" cx="482.133" cy="170.664" r="21.333"/>
	<circle style="fill:#EC9821;" cx="482.133" cy="426.664" r="21.333"/>
</g>
<g>
	<path style="fill:#FFDB6F;" d="M396.8,132.264c21.205,0,38.4,17.195,38.4,38.4s-17.195,38.4-38.4,38.4h-21.333L384,243.198
		l-51.2-34.133h-89.6c-21.205,0-38.4-17.195-38.4-38.4s17.195-38.4,38.4-38.4H396.8z"/>
	<path style="fill:#FFDB6F;" d="M396.8,388.264c21.205,0,38.4,17.195,38.4,38.4s-17.195,38.4-38.4,38.4h-21.333L384,499.198
		l-51.2-34.133h-89.6c-21.205,0-38.4-17.195-38.4-38.4s17.195-38.4,38.4-38.4H396.8z"/>
</g>
<g>
	<path style="fill:#DAEFF6;" d="M268.8,12.798c21.205,0,38.4,17.195,38.4,38.4s-17.195,38.4-38.4,38.4h-89.6L128,123.731
		l8.533-34.133H115.2c-21.205,0-38.4-17.195-38.4-38.4s17.195-38.4,38.4-38.4H268.8z"/>
	<path style="fill:#DAEFF6;" d="M268.8,260.264c21.205,0,38.4,17.195,38.4,38.4c0,21.205-17.195,38.4-38.4,38.4h-89.6L128,371.198
		l8.533-34.133H115.2c-21.205,0-38.4-17.195-38.4-38.4c0-21.205,17.195-38.4,38.4-38.4H268.8z"/>
</g>
<g>
	<circle style="fill:#00448F;" cx="29.867" cy="51.198" r="21.333"/>
	<circle style="fill:#00448F;" cx="29.867" cy="298.664" r="21.333"/>
</g>
<g>
	<rect x="110.933" y="38.398" style="fill:#454545;" width="17.067" height="25.6"/>
	<rect x="145.067" y="38.398" style="fill:#454545;" width="17.067" height="25.6"/>
	<rect x="179.2" y="38.398" style="fill:#454545;" width="17.067" height="25.6"/>
	<rect x="213.333" y="38.398" style="fill:#454545;" width="17.067" height="25.6"/>
	<rect x="247.467" y="38.398" style="fill:#454545;" width="17.067" height="25.6"/>
	<rect x="384" y="157.864" style="fill:#454545;" width="17.067" height="25.6"/>
	<rect x="349.867" y="157.864" style="fill:#454545;" width="17.067" height="25.6"/>
	<rect x="315.733" y="157.864" style="fill:#454545;" width="17.067" height="25.6"/>
	<rect x="281.6" y="157.864" style="fill:#454545;" width="17.067" height="25.6"/>
	<rect x="247.467" y="157.864" style="fill:#454545;" width="17.067" height="25.6"/>
	<rect x="384" y="413.864" style="fill:#454545;" width="17.067" height="25.6"/>
	<rect x="349.867" y="413.864" style="fill:#454545;" width="17.067" height="25.6"/>
	<rect x="315.733" y="413.864" style="fill:#454545;" width="17.067" height="25.6"/>
	<rect x="281.6" y="413.864" style="fill:#454545;" width="17.067" height="25.6"/>
	<rect x="247.467" y="413.864" style="fill:#454545;" width="17.067" height="25.6"/>
	<rect x="110.933" y="285.864" style="fill:#454545;" width="17.067" height="25.6"/>
	<rect x="145.067" y="285.864" style="fill:#454545;" width="17.067" height="25.6"/>
	<rect x="179.2" y="285.864" style="fill:#454545;" width="17.067" height="25.6"/>
	<rect x="213.333" y="285.864" style="fill:#454545;" width="17.067" height="25.6"/>
	<rect x="247.467" y="285.864" style="fill:#454545;" width="17.067" height="25.6"/>
</g>
<path d="M29.867,81.064c16.495,0,29.867-13.372,29.867-29.867S46.362,21.331,29.867,21.331S0,34.703,0,51.198
	S13.372,81.064,29.867,81.064z M29.867,38.398c7.066,0,12.8,5.726,12.8,12.8s-5.734,12.8-12.8,12.8s-12.8-5.734-12.8-12.8
	S22.801,38.398,29.867,38.398z"/>
<path d="M482.133,140.798c-16.495,0-29.867,13.372-29.867,29.867s13.372,29.867,29.867,29.867S512,187.159,512,170.664l0,0
	C512,154.169,498.628,140.798,482.133,140.798z M482.133,183.464c-7.066,0-12.8-5.734-12.8-12.8s5.734-12.8,12.8-12.8
	s12.8,5.726,12.8,12.8S489.199,183.464,482.133,183.464z"/>
<rect x="110.933" y="38.398" width="17.067" height="25.6"/>
<rect x="145.067" y="38.398" width="17.067" height="25.6"/>
<rect x="179.2" y="38.398" width="17.067" height="25.6"/>
<rect x="213.333" y="38.398" width="17.067" height="25.6"/>
<rect x="247.467" y="38.398" width="17.067" height="25.6"/>
<path d="M115.2,98.131h10.402l-5.879,23.526c-1.143,4.574,1.63,9.207,6.204,10.351c2.338,0.589,4.813,0.154,6.81-1.178l49.024-32.7
	h87.04c25.924,0,46.933-21.009,46.933-46.933S294.724,4.264,268.8,4.264H115.2c-25.924,0-46.933,21.009-46.933,46.933
	S89.276,98.131,115.2,98.131z M115.2,21.331h153.6c16.495,0,29.867,13.372,29.867,29.867S285.295,81.064,268.8,81.064h-89.6
	c-1.681,0-3.328,0.503-4.736,1.434l-32.811,21.888l3.174-12.715c1.143-4.574-1.63-9.207-6.204-10.351
	c-0.683-0.171-1.382-0.256-2.091-0.256H115.2c-16.495,0-29.867-13.372-29.867-29.867S98.705,21.331,115.2,21.331z"/>
<rect x="384" y="157.864" width="17.067" height="25.6"/>
<rect x="349.867" y="157.864" width="17.067" height="25.6"/>
<rect x="315.733" y="157.864" width="17.067" height="25.6"/>
<rect x="281.6" y="157.864" width="17.067" height="25.6"/>
<rect x="247.467" y="157.864" width="17.067" height="25.6"/>
<path d="M196.267,170.664c0.026,25.907,21.026,46.908,46.933,46.933h87.04l49.05,32.7c3.917,2.62,9.216,1.562,11.836-2.364
	c1.34-2.005,1.766-4.48,1.178-6.81l-5.905-23.526H396.8c25.924,0,46.933-21.009,46.933-46.933s-21.009-46.933-46.933-46.933H243.2
	C217.293,123.757,196.292,144.757,196.267,170.664z M426.667,170.664c0,16.495-13.372,29.867-29.867,29.867l0,0h-21.333
	c-4.71,0-8.533,3.823-8.533,8.533c0,0.7,0.085,1.399,0.256,2.074l3.174,12.715l-32.828-21.888c-1.408-0.93-3.055-1.434-4.736-1.434
	h-89.6c-16.495,0-29.867-13.372-29.867-29.867s13.372-29.867,29.867-29.867h153.6C413.295,140.798,426.667,154.169,426.667,170.664z
	"/>
<path d="M512,426.664c0-16.495-13.372-29.867-29.867-29.867s-29.867,13.372-29.867,29.867s13.372,29.867,29.867,29.867l0,0
	C498.628,456.531,512,443.159,512,426.664z M469.333,426.664c0-7.066,5.734-12.8,12.8-12.8s12.8,5.726,12.8,12.8
	s-5.734,12.8-12.8,12.8S469.333,433.73,469.333,426.664z"/>
<rect x="384" y="413.864" width="17.067" height="25.6"/>
<rect x="349.867" y="413.864" width="17.067" height="25.6"/>
<rect x="315.733" y="413.864" width="17.067" height="25.6"/>
<rect x="281.6" y="413.864" width="17.067" height="25.6"/>
<rect x="247.467" y="413.864" width="17.067" height="25.6"/>
<path d="M379.264,506.297c3.917,2.62,9.216,1.562,11.836-2.364c1.34-2.005,1.766-4.48,1.178-6.81l-5.88-23.526H396.8
	c25.924,0,46.933-21.009,46.933-46.933s-21.009-46.933-46.933-46.933H243.2c-25.924,0-46.933,21.009-46.933,46.933
	s21.009,46.933,46.933,46.933h87.04L379.264,506.297z M213.333,426.664c0-16.495,13.372-29.867,29.867-29.867l0,0h153.6
	c16.495,0,29.867,13.372,29.867,29.867s-13.372,29.867-29.867,29.867h-21.333c-4.71,0-8.533,3.823-8.533,8.533
	c0,0.7,0.085,1.399,0.256,2.074l3.174,12.715l-32.828-21.888c-1.408-0.93-3.055-1.434-4.736-1.434h-89.6
	C226.705,456.531,213.333,443.159,213.333,426.664z"/>
<path d="M29.867,328.531c16.495,0,29.867-13.372,29.867-29.867c0-16.495-13.372-29.867-29.867-29.867S0,282.169,0,298.664
	C0,315.159,13.372,328.531,29.867,328.531z M29.867,285.864c7.066,0,12.8,5.726,12.8,12.8s-5.734,12.8-12.8,12.8
	s-12.8-5.734-12.8-12.8C17.067,291.599,22.801,285.864,29.867,285.864z"/>
<rect x="110.933" y="285.864" width="17.067" height="25.6"/>
<rect x="145.067" y="285.864" width="17.067" height="25.6"/>
<rect x="179.2" y="285.864" width="17.067" height="25.6"/>
<rect x="213.333" y="285.864" width="17.067" height="25.6"/>
<rect x="247.467" y="285.864" width="17.067" height="25.6"/>
<path d="M68.267,298.664c0.026,25.907,21.026,46.908,46.933,46.933h10.402l-5.879,23.526c-1.143,4.574,1.63,9.207,6.204,10.351
	c2.338,0.589,4.813,0.154,6.81-1.178l49.024-32.7h87.04c25.924,0,46.933-21.009,46.933-46.933s-21.009-46.933-46.933-46.933H115.2
	C89.293,251.757,68.292,272.757,68.267,298.664z M298.667,298.664c0,16.495-13.372,29.867-29.867,29.867h-89.6
	c-1.681,0-3.328,0.503-4.736,1.434l-32.811,21.888l3.174-12.715c1.143-4.574-1.63-9.207-6.204-10.351
	c-0.683-0.171-1.382-0.256-2.091-0.256H115.2c-16.495,0-29.867-13.372-29.867-29.867c0-16.495,13.372-29.867,29.867-29.867h153.6
	C285.295,268.798,298.667,282.169,298.667,298.664z"/>
<g>
</g>
<g>
</g>
<g>
</g>
<g>
</g>
<g>
</g>
<g>
</g>
<g>
</g>
<g>
</g>
<g>
</g>
<g>
</g>
<g>
</g>
<g>
</g>
<g>
</g>
<g>
</g>
<g>
</g>
</svg>
