<?xml version="1.0" encoding="iso-8859-1"?>
<!-- Generator: Adobe Illustrator 19.0.0, SVG Export Plug-In . SVG Version: 6.00 Build 0)  -->
<svg version="1.1" id="Capa_1" xmlns="http://www.w3.org/2000/svg" xmlns:xlink="http://www.w3.org/1999/xlink" x="0px" y="0px"
	 viewBox="0 0 512 512" style="enable-background:new 0 0 512 512;" xml:space="preserve">
<path style="fill:#E6E6E6;" d="M503.467,76.629v238.933h-358.4v-51.2h76.8v-42.667h-76.8V76.629H503.467z M460.8,272.896v-51.2
	c-0.026-9.412-7.654-17.041-17.067-17.067h-51.2c-9.412,0.026-17.041,7.654-17.067,17.067v51.2H460.8z M452.267,161.963v-17.067
	c0-14.14-11.46-25.6-25.6-25.6H409.6c-14.14,0-25.6,11.46-25.6,25.6v17.067c0,14.14,11.46,25.6,25.6,25.6h17.067
	C440.806,187.563,452.267,176.102,452.267,161.963z"/>
<path style="fill:#00448F;" d="M460.8,221.696v51.2h-85.333v-51.2c0.026-9.412,7.654-17.041,17.067-17.067h51.2
	C453.146,204.655,460.774,212.284,460.8,221.696z"/>
<g>
	<path style="fill:#F5D0C7;" d="M409.6,119.296h17.067c14.14,0,25.6,11.46,25.6,25.6v17.067c0,14.14-11.46,25.6-25.6,25.6H409.6
		c-14.14,0-25.6-11.46-25.6-25.6v-17.067C384,130.756,395.46,119.296,409.6,119.296z"/>
	<polygon style="fill:#F5D0C7;" points="307.2,392.363 307.2,435.029 187.733,435.2 187.733,435.029 187.733,392.363 	"/>
	<rect x="187.733" y="349.696" style="fill:#F5D0C7;" width="119.467" height="42.667"/>
	<rect x="187.733" y="315.563" style="fill:#F5D0C7;" width="119.467" height="34.133"/>
	<polygon style="fill:#F5D0C7;" points="145.067,264.363 145.067,315.563 187.733,315.563 187.733,349.696 187.733,392.363 
		187.733,435.029 187.733,435.2 114.688,435.371 76.459,397.141 0,397.141 0,255.829 85.333,255.829 119.467,221.696 
		145.067,221.696 221.867,221.696 221.867,264.363 	"/>
</g>
<g>
	<rect x="187.733" y="383.829" style="fill:#D6ABA1;" width="119.467" height="17.067"/>
	<rect x="187.733" y="341.163" style="fill:#D6ABA1;" width="119.467" height="17.067"/>
</g>
<g>
	<rect x="179.2" y="110.763" style="fill:#6F6F6F;" width="162.133" height="17.067"/>
	<rect x="179.2" y="144.896" style="fill:#6F6F6F;" width="162.133" height="17.067"/>
	<rect x="179.2" y="179.029" style="fill:#6F6F6F;" width="162.133" height="17.067"/>
	<rect x="256" y="213.163" style="fill:#6F6F6F;" width="85.333" height="17.067"/>
	<rect x="256" y="247.296" style="fill:#6F6F6F;" width="85.333" height="17.067"/>
</g>
<path d="M375.467,281.429H460.8c4.71,0,8.533-3.823,8.533-8.533v-51.2c0-14.14-11.46-25.6-25.6-25.6h-17.067
	c18.85,0,34.133-15.283,34.133-34.133v-17.067c0-18.85-15.283-34.133-34.133-34.133H409.6c-18.85,0-34.133,15.283-34.133,34.133
	v17.067c0,18.85,15.283,34.133,34.133,34.133h-17.067c-14.14,0-25.6,11.46-25.6,25.6v51.2
	C366.933,277.606,370.756,281.429,375.467,281.429z M392.533,161.963v-17.067c0-9.429,7.637-17.067,17.067-17.067h17.067
	c9.429,0,17.067,7.637,17.067,17.067v17.067c0,9.429-7.637,17.067-17.067,17.067H409.6
	C400.171,179.029,392.533,171.392,392.533,161.963z M384,221.696c0-4.71,3.823-8.533,8.533-8.533h51.2
	c4.71,0,8.533,3.823,8.533,8.533v42.667H384V221.696z"/>
<path d="M503.467,68.096h-358.4c-4.71,0-8.533,3.823-8.533,8.533v136.533h-17.067c-2.261,0-4.437,0.896-6.033,2.5l-31.633,31.633H0
	v17.067h85.333c2.261,0,4.437-0.896,6.033-2.5l31.633-31.633h90.334v25.6h-76.8v59.733c0,4.71,3.823,8.533,8.533,8.533H179.2v102.63
	l-60.979,0.102l-35.729-35.721c-1.596-1.604-3.772-2.5-6.033-2.5H0v17.067h72.926l35.729,35.729c1.596,1.604,3.772,2.5,6.033,2.5
	l0,0l192.512-0.341c4.71,0,8.533-3.823,8.533-8.533V324.096h187.733c4.71,0,8.533-3.823,8.533-8.533V76.629
	C512,71.919,508.177,68.096,503.467,68.096z M196.267,358.229h102.4v25.6h-102.4V358.229z M196.267,426.692v-25.796h102.4v25.6
	L196.267,426.692z M298.667,341.163h-102.4v-17.067h102.4V341.163z M494.933,307.029H153.6v-34.133h68.267
	c4.71,0,8.533-3.823,8.533-8.533v-42.667c0-4.71-3.823-8.533-8.533-8.533H153.6v-128h341.333V307.029z"/>
<rect x="179.2" y="110.763" width="162.133" height="17.067"/>
<rect x="179.2" y="144.896" width="162.133" height="17.067"/>
<rect x="179.2" y="179.029" width="162.133" height="17.067"/>
<rect x="256" y="213.163" width="85.333" height="17.067"/>
<rect x="256" y="247.296" width="85.333" height="17.067"/>
<g>
</g>
<g>
</g>
<g>
</g>
<g>
</g>
<g>
</g>
<g>
</g>
<g>
</g>
<g>
</g>
<g>
</g>
<g>
</g>
<g>
</g>
<g>
</g>
<g>
</g>
<g>
</g>
<g>
</g>
</svg>
