<?xml version="1.0" encoding="iso-8859-1"?>
<!-- Generator: Adobe Illustrator 19.0.0, SVG Export Plug-In . SVG Version: 6.00 Build 0)  -->
<svg version="1.1" id="Capa_1" xmlns="http://www.w3.org/2000/svg" xmlns:xlink="http://www.w3.org/1999/xlink" x="0px" y="0px"
	 viewBox="0 0 512 512" style="enable-background:new 0 0 512 512;" xml:space="preserve">
<polygon style="fill:#F3F3F3;" points="375.467,332.8 375.467,503.467 290.133,503.467 264.277,359.424 281.6,341.333 
	332.8,290.133 "/>
<path style="fill:#F5D0C7;" d="M221.867,228.267c-30.14-7.799-51.2-34.995-51.2-66.133V25.6c0,23.561,19.106,42.667,42.667,42.667
	h128v93.867c0,31.138-21.06,58.334-51.2,66.133c-5.581,1.408-11.315,2.125-17.067,2.133h-34.133
	C233.182,230.391,227.447,229.675,221.867,228.267z"/>
<path style="fill:#FF8030;" d="M341.333,59.733v8.533h-128c-23.561,0-42.667-19.106-42.667-42.667V8.533h119.467
	C318.413,8.533,341.333,31.454,341.333,59.733z"/>
<rect x="258.207" y="284.819" transform="matrix(-0.7071 0.7071 -0.7071 -0.7071 716.7869 308.9414)" style="fill:#E6E6E6;" width="72.405" height="36.207"/>
<polygon style="fill:#F5D0C7;" points="307.2,264.533 256,315.733 204.8,264.533 221.867,264.533 290.133,264.533 "/>
<polygon style="fill:#00448F;" points="264.277,359.424 290.133,503.467 221.867,503.467 247.467,358.4 230.4,341.333 256,315.733 
	281.6,341.333 "/>
<rect x="199.51" y="266.749" transform="matrix(-0.7071 0.7071 -0.7071 -0.7071 585.7075 363.2949)" style="fill:#E6E6E6;" width="36.207" height="72.405"/>
<polygon style="fill:#F3F3F3;" points="247.467,358.4 221.867,503.467 136.533,503.467 136.533,332.8 179.2,290.133 230.4,341.333 
	"/>
<g>
	<rect x="281.6" y="110.933" style="fill:#454545;" width="25.6" height="17.067"/>
	<rect x="204.8" y="110.933" style="fill:#454545;" width="25.6" height="17.067"/>
	<path style="fill:#454545;" d="M264.533,170.667h-17.067c-4.71,0-8.533-3.823-8.533-8.533c0-0.572,0.06-1.143,0.171-1.707
		l8.533-42.667l16.725,3.345l-6.485,32.495h6.656V170.667z"/>
	<path style="fill:#454545;" d="M269.568,204.8h-27.136c-9.975-0.034-19.533-3.994-26.598-11.034L227.9,181.7
		c3.857,3.84,9.062,6.007,14.507,6.033h27.136c5.444-0.026,10.65-2.193,14.507-6.033l12.066,12.066
		C289.058,200.789,279.526,204.757,269.568,204.8z"/>
</g>
<path style="fill:#F5D0C7;" d="M281.6,224.683v5.171c-2.833,0.358-5.683,0.538-8.533,0.546h-34.133
	c-2.85-0.009-5.7-0.188-8.533-0.546v-3.721h-17.067v38.4c0,4.71,3.823,8.533,8.533,8.533h68.267c4.71,0,8.533-3.823,8.533-8.533
	v-39.851H281.6z"/>
<path d="M384,503.467V332.8c0-2.261-0.896-4.437-2.5-6.033L338.833,284.1l-25.6-25.6c-0.794-0.802-1.741-1.434-2.79-1.852
	c-1.024-0.427-2.133-0.649-3.243-0.649h-8.533v-21.547c30.643-10.854,51.14-39.808,51.2-72.32v-102.4
	C349.833,26.761,323.106,0.034,290.133,0H170.667c-4.71,0-8.533,3.823-8.533,8.533v153.6c0.06,32.512,20.557,61.466,51.2,72.32V256
	H204.8c-1.109,0-2.219,0.222-3.243,0.649c-1.05,0.418-1.997,1.05-2.79,1.852l-25.6,25.6L130.5,326.767
	c-1.604,1.596-2.5,3.772-2.5,6.033v170.667c0,4.71,3.823,8.533,8.533,8.533h238.933C380.177,512,384,508.177,384,503.467z
	 M320.734,290.133L281.6,329.267l-13.534-13.534l39.134-39.134L320.734,290.133z M256,303.667l-30.601-30.601h61.201L256,303.667z
	 M256,327.799l13.653,13.653l-11.571,12.1c-1.041,1.118-1.758,2.5-2.082,3.994c-0.205-1.954-1.067-3.772-2.458-5.163l-11.076-11.051
	L256,327.799z M179.2,17.067h110.933c23.552,0.026,42.641,19.115,42.667,42.667H213.333c-18.85,0-34.133-15.283-34.133-34.133
	V17.067z M179.2,162.133V63.659c9.361,8.457,21.521,13.141,34.133,13.141H332.8v85.333c-0.034,32.973-26.761,59.699-59.733,59.733
	h-34.133C205.961,221.833,179.234,195.106,179.2,162.133z M230.4,238.43c2.833,0.324,5.683,0.495,8.533,0.503h34.133
	c2.85-0.009,5.7-0.179,8.533-0.503V256h-51.2V238.43z M204.8,276.599l39.134,39.134L230.4,329.267l-39.134-39.134L204.8,276.599z
	 M145.067,336.333l34.133-34.133l45.167,45.167l13.926,13.926l-23.586,133.641h-69.641V336.333z M232.038,494.933l23.748-134.554
	c0,0.196,0,0.401,0.077,0.597l24.073,133.956H232.038z M366.933,494.933h-69.666l-23.834-132.702l14.242-14.925l45.124-45.107
	l34.133,34.133V494.933z"/>
<rect x="281.6" y="110.933" width="25.6" height="17.067"/>
<rect x="204.8" y="110.933" width="25.6" height="17.067"/>
<path d="M247.467,170.667h17.067V153.6h-6.656l6.485-32.427l-16.725-3.413l-8.533,42.667c-0.939,4.617,2.039,9.122,6.656,10.069
	C246.323,170.607,246.895,170.667,247.467,170.667z"/>
<path d="M269.534,204.8c9.993,0.026,19.584-3.942,26.633-11.025L284.1,181.692c-3.857,3.874-9.097,6.05-14.566,6.042h-27.068
	c-5.47,0.009-10.709-2.167-14.566-6.042l-12.066,12.083c7.049,7.083,16.64,11.051,26.633,11.025H269.534z"/>
<g>
</g>
<g>
</g>
<g>
</g>
<g>
</g>
<g>
</g>
<g>
</g>
<g>
</g>
<g>
</g>
<g>
</g>
<g>
</g>
<g>
</g>
<g>
</g>
<g>
</g>
<g>
</g>
<g>
</g>
</svg>
