<?xml version="1.0" encoding="iso-8859-1"?>
<!-- Generator: Adobe Illustrator 19.0.0, SVG Export Plug-In . SVG Version: 6.00 Build 0)  -->
<svg version="1.1" id="Capa_1" xmlns="http://www.w3.org/2000/svg" xmlns:xlink="http://www.w3.org/1999/xlink" x="0px" y="0px"
	 viewBox="0 0 512 512" style="enable-background:new 0 0 512 512;" xml:space="preserve">
<path style="fill:#454545;" d="M358.059,123.392c2.543-0.009,5.069,0.333,7.509,1.024l-14.251,18.773l-13.568-18.773l-0.085-0.171
	c2.227-0.589,4.523-0.879,6.827-0.853H358.059z"/>
<g>
	<rect x="307.2" y="452.267" style="fill:#5B5B5B;" width="93.867" height="17.067"/>
	<rect x="375.467" y="418.133" style="fill:#5B5B5B;" width="25.6" height="17.067"/>
	<rect x="110.933" y="324.267" style="fill:#5B5B5B;" width="290.133" height="17.067"/>
	<rect x="110.933" y="281.6" style="fill:#5B5B5B;" width="290.133" height="17.067"/>
	<rect x="110.933" y="238.933" style="fill:#5B5B5B;" width="290.133" height="17.067"/>
	<rect x="341.333" y="418.133" style="fill:#5B5B5B;" width="25.6" height="17.067"/>
</g>
<path style="fill:#168DE2;" d="M365.568,124.416c12.604,3.345,21.367,14.771,21.333,27.819v36.437h-35.584v-45.483L365.568,124.416z
	"/>
<path style="fill:#F9B544;" d="M367.531,58.027c4.361,4.369,6.818,10.291,6.827,16.469v15.616c0,12.885-10.453,23.339-23.339,23.339
	s-23.339-10.453-23.339-23.339V74.496c0.026-12.885,10.496-23.313,23.381-23.296C357.248,51.149,363.187,53.615,367.531,58.027z"/>
<path style="fill:#168DE2;" d="M351.317,188.16v0.512h-35.584v-36.437c-0.026-13.278,9.037-24.841,21.931-27.989l0.085,0.171
	l13.568,18.773V188.16z"/>
<path style="fill:#EBEBEB;" d="M401.067,435.2v-17.067h-25.6V435.2H401.067z M332.8,435.2v-17.067h-25.6V435.2H332.8z
	 M401.067,452.267H307.2v17.067h93.867V452.267z M365.568,124.416c-2.441-0.691-4.966-1.033-7.509-1.024h-13.568
	c-2.304-0.026-4.599,0.265-6.827,0.853c-12.894,3.149-21.956,14.711-21.931,27.989v36.437h71.168v-36.437
	C386.936,139.187,378.172,127.761,365.568,124.416z M351.061,113.408c12.851,0.017,23.279-10.394,23.296-23.245
	c0-0.017,0-0.034,0-0.051V74.496c-0.009-6.178-2.466-12.1-6.827-16.469c-4.343-4.412-10.283-6.878-16.469-6.827
	c-12.885-0.017-23.356,10.411-23.381,23.296v15.616C327.706,102.997,338.176,113.425,351.061,113.408z M366.933,435.2v-17.067h-25.6
	V435.2H366.933z M110.933,85.333V102.4h162.133V85.333H110.933z M110.933,179.2v17.067h162.133V179.2H110.933z M110.933,256h290.133
	v-17.067H110.933V256z M110.933,298.667h290.133V281.6H110.933V298.667z M110.933,366.933V384h153.6v-17.067H110.933z
	 M110.933,341.333h290.133v-17.067H110.933V341.333z M273.067,153.6v-17.067H110.933V153.6H273.067z M273.067,59.733V42.667H110.933
	v17.067H273.067z M443.733,8.533v494.933H68.267V8.533H443.733z"/>
<g>
	<rect x="307.2" y="418.133" style="fill:#5B5B5B;" width="25.6" height="17.067"/>
	<rect x="110.933" y="179.2" style="fill:#5B5B5B;" width="162.133" height="17.067"/>
	<rect x="110.933" y="136.533" style="fill:#5B5B5B;" width="162.133" height="17.067"/>
	<rect x="110.933" y="85.333" style="fill:#5B5B5B;" width="162.133" height="17.067"/>
	<rect x="110.933" y="42.667" style="fill:#5B5B5B;" width="162.133" height="17.067"/>
	<rect x="110.933" y="366.933" style="fill:#5B5B5B;" width="153.6" height="17.067"/>
</g>
<path d="M315.733,197.188h71.134c4.71,0,8.533-3.823,8.533-8.533v-36.463c-0.06-16.478-10.948-30.959-26.761-35.593
	c8.883-5.897,14.217-15.855,14.225-26.513V74.53c-0.29-17.604-14.788-31.633-32.393-31.343
	c-17.195,0.282-31.061,14.148-31.343,31.343v15.556c0.009,10.743,5.444,20.753,14.438,26.624
	c-15.625,4.762-26.317,19.149-26.368,35.482v36.463C307.2,193.365,311.023,197.188,315.733,197.188L315.733,197.188z
	 M378.334,152.192v27.93h-18.5v-34.065l8.533-11.196C374.52,138.47,378.308,145.058,378.334,152.192z M336.213,74.539
	c0.196-8.175,6.98-14.643,15.155-14.447c7.902,0.188,14.259,6.545,14.447,14.447v15.556c0.196,8.175-6.272,14.959-14.447,15.155
	c-8.175,0.196-14.959-6.272-15.155-14.447c-0.009-0.239-0.009-0.469,0-0.708V74.539z M324.267,152.192
	c0.026-7.279,3.977-13.986,10.334-17.536l8.166,11.29v34.133h-18.5V152.192z"/>
<path d="M68.267,512h375.467c4.71,0,8.533-3.823,8.533-8.533V8.533c0-4.71-3.823-8.533-8.533-8.533H68.267
	c-4.71,0-8.533,3.823-8.533,8.533v494.933C59.733,508.177,63.556,512,68.267,512z M76.8,17.067h358.4v477.867H76.8V17.067z"/>
<rect x="110.933" y="42.667" width="162.133" height="17.067"/>
<rect x="110.933" y="85.333" width="162.133" height="17.067"/>
<rect x="110.933" y="136.533" width="162.133" height="17.067"/>
<rect x="110.933" y="179.2" width="162.133" height="17.067"/>
<rect x="110.933" y="238.933" width="290.133" height="17.067"/>
<rect x="110.933" y="281.6" width="290.133" height="17.067"/>
<rect x="110.933" y="324.267" width="290.133" height="17.067"/>
<rect x="110.933" y="366.933" width="153.6" height="17.067"/>
<rect x="307.2" y="418.133" width="25.6" height="17.067"/>
<rect x="375.467" y="418.133" width="25.6" height="17.067"/>
<rect x="341.333" y="418.133" width="25.6" height="17.067"/>
<rect x="307.2" y="452.267" width="93.867" height="17.067"/>
<g>
</g>
<g>
</g>
<g>
</g>
<g>
</g>
<g>
</g>
<g>
</g>
<g>
</g>
<g>
</g>
<g>
</g>
<g>
</g>
<g>
</g>
<g>
</g>
<g>
</g>
<g>
</g>
<g>
</g>
</svg>
