<?xml version="1.0" encoding="iso-8859-1"?>
<!-- Generator: Adobe Illustrator 19.0.0, SVG Export Plug-In . SVG Version: 6.00 Build 0)  -->
<svg version="1.1" id="Capa_1" xmlns="http://www.w3.org/2000/svg" xmlns:xlink="http://www.w3.org/1999/xlink" x="0px" y="0px"
	 viewBox="0 0 511.998 511.998" style="enable-background:new 0 0 511.998 511.998;" xml:space="preserve">
<path style="fill:#FFCB5A;" d="M452.267,93.951c40.013,14.174,60.954,58.103,46.78,98.116c-7.74,21.854-24.934,39.04-46.78,46.78
	V93.951z"/>
<polygon style="fill:#62BEFF;" points="452.267,238.847 452.267,302.932 409.6,302.932 409.6,294.399 409.6,38.399 409.6,29.866 
	452.267,29.866 452.267,93.951 "/>
<polygon style="fill:#168DE2;" points="409.6,38.399 409.6,294.399 307.2,274.516 307.2,58.282 "/>
<polygon style="fill:#E6E6E6;" points="307.2,58.282 307.2,274.516 230.4,259.583 230.4,73.215 "/>
<path style="fill:#F5D0C7;" d="M264.533,379.732v76.8c0,14.14-11.46,25.6-25.6,25.6l0,0H119.467l-34.133-34.133H0V337.066h110.933
	v-68.267H128c18.85,0,34.133,15.283,34.133,34.133v34.133h128v42.667H264.533z"/>
<polygon style="fill:#FF8030;" points="230.4,260.266 230.4,337.066 162.133,337.066 162.133,302.932 162.133,246.271 
	175.957,249.002 "/>
<polygon style="fill:#168DE2;" points="230.4,73.215 230.4,259.583 175.957,249.002 162.133,246.1 162.133,246.271 102.4,234.666 
	102.4,98.132 "/>
<polygon style="fill:#00448F;" points="102.4,98.132 102.4,234.666 42.667,277.332 42.667,63.999 "/>
<path d="M460.8,88.199V29.866c0-4.71-3.823-8.533-8.533-8.533H409.6c-4.71,0-8.533,3.823-8.533,8.533v1.502l-95.479,18.569l0,0
	l-76.8,14.933l0,0L103.885,89.155L46.933,56.592c-4.079-2.355-9.301-0.956-11.657,3.123c-0.751,1.306-1.143,2.782-1.143,4.284
	v213.333c0,4.71,3.823,8.533,8.533,8.533c1.783,0.009,3.516-0.555,4.958-1.596l56.747-40.533l49.229,9.574v15.71
	c-7.339-5.649-16.341-8.721-25.6-8.755h-17.067c-4.71,0-8.533,3.823-8.533,8.533v59.733H0v17.067h110.933
	c4.71,0,8.533-3.823,8.533-8.533v-59.733H128c14.14,0,25.6,11.46,25.6,25.6v34.133c0,4.71,3.823,8.533,8.533,8.533H281.6v25.6h-51.2
	v17.067H256v68.267c0,9.429-7.637,17.067-17.067,17.067H122.999l-31.633-31.633c-1.596-1.604-3.772-2.5-6.033-2.5H0v17.067h81.801
	l31.633,31.633c1.596,1.596,3.772,2.5,6.033,2.5h119.467c18.85,0,34.133-15.283,34.133-34.133v-68.267h17.067
	c4.71,0,8.533-3.823,8.533-8.533v-42.667c0-4.71-3.823-8.533-8.533-8.533h-51.2v-58.624l66.637,12.954l0,0l95.497,18.569v1.502
	c0,4.71,3.823,8.533,8.533,8.533h42.667c4.71,0,8.533-3.823,8.533-8.533v-58.334c43.187-18.867,62.908-69.171,44.041-112.358
	C496.239,112.537,480.503,96.81,460.8,88.199z M238.933,252.526V80.272l59.733-11.614V264.14L238.933,252.526z M51.2,78.71
	l42.667,24.371v127.189L51.2,260.752V78.71z M110.933,105.164l110.933-21.538v165.547l-46.08-8.96l-11.947-2.475
	c-0.239,0-0.469,0-0.708,0l-52.198-10.103V105.164z M170.667,328.532V256.63l1.263,0.247l49.937,10.334v61.321H170.667z
	 M315.733,267.459V65.339l85.333-16.589v235.298L315.733,267.459z M443.733,294.399h-25.6v-256h25.6V294.399z M460.8,225.398
	V107.399c32.58,18.731,43.819,60.331,25.079,92.919C479.889,210.747,471.228,219.399,460.8,225.398z"/>
<g>
</g>
<g>
</g>
<g>
</g>
<g>
</g>
<g>
</g>
<g>
</g>
<g>
</g>
<g>
</g>
<g>
</g>
<g>
</g>
<g>
</g>
<g>
</g>
<g>
</g>
<g>
</g>
<g>
</g>
</svg>
