<?xml version="1.0" encoding="iso-8859-1"?>
<!-- Generator: Adobe Illustrator 19.0.0, SVG Export Plug-In . SVG Version: 6.00 Build 0)  -->
<svg version="1.1" id="Capa_1" xmlns="http://www.w3.org/2000/svg" xmlns:xlink="http://www.w3.org/1999/xlink" x="0px" y="0px"
	 viewBox="0 0 480 480" style="enable-background:new 0 0 480 480;" xml:space="preserve">
<rect x="72" y="168" style="fill:#29485A;" width="336" height="240"/>
<path style="fill:#E7B900;" d="M254.817,126.817L240,112v264l5.061-3.977C312.578,318.975,352,237.864,352,152
	C317.437,161.875,280.236,152.235,254.817,126.817z"/>
<path style="fill:#FFD422;" d="M225.183,126.817C199.764,152.235,162.563,161.875,128,152c0,85.864,39.422,166.975,106.939,220.023
	L240,376V112L225.183,126.817z"/>
<g>
	<path style="fill:#FFFFFF;" d="M174.711,292.133c-21.797-36.18-34.938-77.758-37.992-120.234l15.953-1.141
		c2.875,39.969,15.234,79.086,35.742,113.109L174.711,292.133z"/>
	<path style="fill:#FFFFFF;" d="M218.438,347.031c-9.68-9.359-18.727-19.516-26.883-30.172l12.703-9.719
		c7.68,10.023,16.188,19.578,25.305,28.391L218.438,347.031z"/>
	<rect x="144" y="368" style="fill:#FFFFFF;" width="16" height="16"/>
	<path style="fill:#FFFFFF;" d="M128,384h-24c-4.422,0-8-3.578-8-8v-24h16v16h16V384z"/>
</g>
<g>
	<path style="fill:#F40E34;" d="M272,216c0,11.84-6.4,22.16-16,27.68V288h-32v-44.32c-9.6-5.52-16-15.84-16-27.68
		c0-17.68,14.32-32,32-32S272,198.32,272,216z"/>
	<rect x="232" y="32" style="fill:#F40E34;" width="16" height="40"/>
	
		<rect x="295.997" y="56.002" transform="matrix(-0.5998 0.8001 -0.8001 -0.5998 556.7515 -150.4492)" style="fill:#F40E34;" width="40" height="15.992"/>
	
		<rect x="156.001" y="44.002" transform="matrix(-0.8 0.6 -0.6 -0.8 333.5957 16.8062)" style="fill:#F40E34;" width="15.992" height="40"/>
</g>
<rect x="8" y="408" style="fill:#5AAAE7;" width="464" height="16"/>
<path style="fill:#1E81CE;" d="M24,440h432c8.836,0,16-7.164,16-16H8C8,432.836,15.164,440,24,440z"/>
<path d="M472,400H8c-4.422,0-8,3.578-8,8v16c0,13.234,10.766,24,24,24h432c13.234,0,24-10.766,24-24v-16
	C480,403.578,476.422,400,472,400z M464,424c0,4.414-3.586,8-8,8H24c-4.414,0-8-3.586-8-8v-8h448V424z"/>
<rect x="400" y="240" width="16" height="144"/>
<path d="M80,176h24v-16H72c-4.422,0-8,3.578-8,8v216h16V176z"/>
<path d="M229.992,378.313l5.063,3.977C236.508,383.43,238.258,384,240,384s3.492-0.57,4.945-1.711l5.063-3.977
	c50.514-39.69,85.354-93.812,100.854-154.313h66.274c3.577,13.764,15.995,24,30.864,24c17.648,0,32-14.352,32-32s-14.352-32-32-32
	c-14.87,0-27.288,10.236-30.864,24h-62.66c3.577-18.244,5.524-36.959,5.524-56c0-2.508-1.18-4.875-3.18-6.391
	c-2.008-1.5-4.617-1.977-7.016-1.305c-31.75,9.094-65.977,0.203-89.328-23.141l-14.82-14.82c-3.125-3.125-8.188-3.125-11.313,0
	l-14.82,14.82c-23.352,23.344-57.555,32.211-89.328,23.141c-2.398-0.672-5.008-0.195-7.016,1.305c-2,1.516-3.18,3.883-3.18,6.391
	C120,240.906,160.094,323.391,229.992,378.313z M448,200c8.82,0,16,7.18,16,16s-7.18,16-16,16s-16-7.18-16-16S439.18,200,448,200z
	 M230.836,132.477l9.164-9.164l9.164,9.164c24.922,24.922,60.359,35.781,94.656,29.633c-0.567,15.583-2.479,30.916-5.597,45.891
	h-59.032c-3.717-18.234-19.876-32-39.191-32c-22.055,0-40,17.945-40,40c0,12.633,6.031,24.492,16,31.969V288c0,4.422,3.578,8,8,8h32
	c4.422,0,8-3.578,8-8v-40.031c7.823-5.867,13.168-14.448,15.129-23.969h55.22c-15.132,55.522-47.633,105.125-94.232,141.734
	L240,365.828l-0.117-0.094c-63.367-49.781-100.789-123.547-103.703-203.625C170.484,168.266,205.914,157.398,230.836,132.477z
	 M262.436,224c-1.892,5.27-5.445,9.88-10.428,12.742c-2.477,1.43-4.008,4.078-4.008,6.938V280h-16v-36.32
	c0-2.859-1.531-5.508-4.008-6.938C220.594,232.492,216,224.539,216,216c0-13.234,10.766-24,24-24c10.416,0,19.213,6.708,22.526,16
	H232v16H262.436z"/>
<path d="M448,184c-14.87,0-27.288,10.236-30.864,24H232v16v32h16v-32h24v24h16v-24h129.136c3.577,13.764,15.995,24,30.864,24
	c17.648,0,32-14.352,32-32S465.648,184,448,184z M448,232c-8.82,0-16-7.18-16-16s7.18-16,16-16s16,7.18,16,16S456.82,232,448,232z"
	/>
<rect x="144" y="368" width="16" height="16"/>
<path d="M96,352v24c0,4.422,3.578,8,8,8h24v-16h-16v-16H96z"/>
<path d="M400,192h16v-24c0-4.422-3.578-8-8-8h-32v16h24V192z"/>
<rect x="232" y="32" width="16" height="40"/>
<rect x="295.997" y="56.002" transform="matrix(-0.5998 0.8001 -0.8001 -0.5998 556.7515 -150.4492)" width="40" height="15.992"/>
<rect x="156.001" y="44.002" transform="matrix(-0.8 0.6 -0.6 -0.8 333.5957 16.8062)" width="15.992" height="40"/>
<g>
</g>
<g>
</g>
<g>
</g>
<g>
</g>
<g>
</g>
<g>
</g>
<g>
</g>
<g>
</g>
<g>
</g>
<g>
</g>
<g>
</g>
<g>
</g>
<g>
</g>
<g>
</g>
<g>
</g>
</svg>
