<?xml version="1.0" encoding="iso-8859-1"?>
<!-- Generator: Adobe Illustrator 19.0.0, SVG Export Plug-In . SVG Version: 6.00 Build 0)  -->
<svg version="1.1" id="Capa_1" xmlns="http://www.w3.org/2000/svg" xmlns:xlink="http://www.w3.org/1999/xlink" x="0px" y="0px"
	 viewBox="0 0 485.859 485.859" style="enable-background:new 0 0 485.859 485.859;" xml:space="preserve">
<rect x="50.93" y="128" style="fill:#EBE5DD;" width="384" height="224"/>
<rect x="234.93" y="352" style="fill:#D4C8B8;" width="16" height="128"/>
<g>
	<path style="fill:#EBE5DD;" d="M349.484,485.859L242.93,386.914l-106.555,98.945l-10.891-11.719l112-104
		c3.078-2.859,7.813-2.859,10.891,0l112,104L349.484,485.859z"/>
	<path style="fill:#EBE5DD;" d="M317.273,101.656L242.93,27.313l-74.344,74.344l-11.313-11.313l80-80
		c3.125-3.125,8.188-3.125,11.313,0l80,80L317.273,101.656z"/>
</g>
<rect x="234.93" style="fill:#D4C8B8;" width="16" height="96"/>
<path style="fill:#69C229;" d="M322.93,240c0-44.183-35.817-80-80-80v80H322.93z"/>
<path style="fill:#5AAAE7;" d="M242.93,160c-44.183,0-80,35.817-80,80c0,44.183,35.817,80,80,80v-80V160z"/>
<g>
	<path style="fill:#F40E34;" d="M303.93,222.25l-10-12.5l40-32c1.422-1.133,3.18-1.75,5-1.75h32v16h-29.195L303.93,222.25z"/>
	<path style="fill:#F40E34;" d="M378.93,320h-32c-2.125,0-4.156-0.844-5.656-2.344l-48-48l11.313-11.313L350.242,304h28.688V320z"/>
	<rect x="130.93" y="232" style="fill:#F40E34;" width="72" height="16"/>
</g>
<rect x="82.93" y="208" style="fill:#5AAAE7;" width="48" height="104"/>
<rect x="82.93" y="168" style="fill:#FFD422;" width="48" height="40"/>
<rect x="370.93" y="160" style="fill:#69C229;" width="32" height="56"/>
<rect x="370.93" y="248" style="fill:#F40E34;" width="32" height="72"/>
<path style="fill:#FFD422;" d="M242.93,320c22.091,0,42.091-8.955,56.568-23.432L242.93,240V320z"/>
<path style="fill:#F40E34;" d="M242.93,240l56.568,56.568c14.477-14.477,23.432-34.477,23.432-56.568H242.93z"/>
<rect x="34.93" y="96" style="fill:#5AAAE7;" width="416" height="32"/>
<rect x="50.93" y="128" style="fill:#D4C8B8;" width="384" height="16"/>
<g>
	<rect x="66.93" y="112" style="fill:#FFFFFF;" width="16" height="16"/>
	<rect x="98.93" y="112" style="fill:#FFFFFF;" width="56" height="16"/>
	<rect x="98.93" y="200" style="fill:#FFFFFF;" width="16" height="16"/>
	<rect x="98.93" y="232" style="fill:#FFFFFF;" width="16" height="64"/>
	<path style="fill:#FFFFFF;" d="M202.93,216h-16c0-22.055,17.945-40,40-40v16C213.695,192,202.93,202.766,202.93,216z"/>
	<rect x="242.93" y="176" style="fill:#FFFFFF;" width="16" height="16"/>
</g>
<path d="M450.93,88H326.242L250.93,12.688V0h-16v12.688L159.617,88H34.93c-4.422,0-8,3.578-8,8v32c0,4.422,3.578,8,8,8h8v216
	c0,4.422,3.578,8,8,8h184v12.513L125.484,474.141l10.891,11.719l98.555-91.517V480h16v-85.657l98.555,91.517l10.891-11.719
	L250.93,372.513V360h184c4.422,0,8-3.578,8-8V136h8c4.422,0,8-3.578,8-8V96C458.93,91.578,455.352,88,450.93,88z M250.93,35.313
	L303.617,88H250.93V35.313z M234.93,35.313V88h-52.688L234.93,35.313z M426.93,344h-368V136h368V344z M442.93,120h-8h-384h-8v-16
	h400V120z"/>
<path d="M82.93,320h48c4.422,0,8-3.578,8-8v-64h16.405c4.06,44.783,41.771,80,87.595,80c29.535,0,55.656-14.673,71.625-37.062
	l26.718,26.718c1.5,1.5,3.531,2.344,5.656,2.344h16c0,4.422,3.578,8,8,8h32c4.422,0,8-3.578,8-8v-72c0-4.422-3.578-8-8-8h-32
	c-4.422,0-8,3.578-8,8v56h-12.688l-27.391-27.391c5.135-11.164,8.079-23.536,8.079-36.609c0-12.012-2.434-23.463-6.811-33.905
	L341.734,192h21.195v24c0,4.422,3.578,8,8,8h32c4.422,0,8-3.578,8-8v-56c0-4.422-3.578-8-8-8h-32c-4.422,0-8,3.578-8,8v16h-24
	c-1.82,0-3.578,0.617-5,1.75l-17.494,13.995C300.687,167.836,273.638,152,242.93,152c-45.823,0-83.535,35.217-87.595,80H138.93v-64
	c0-4.422-3.578-8-8-8h-48c-4.422,0-8,3.578-8,8v144C74.93,316.422,78.508,320,82.93,320z M378.93,304v-48h16v56h-16V304z
	 M378.93,168h16v40h-16V168z M310.599,264.356l-6.013-6.013l-11.313,11.313l9.809,9.809c-1.233,1.873-2.554,3.678-3.951,5.424
	L262.242,248h52.216C313.826,253.686,312.48,259.146,310.599,264.356z M250.93,168.472c22.309,2.479,41.52,15.206,52.927,33.337
	l-9.927,7.941l10,12.5l7.029-5.625c1.694,4.915,2.907,10.046,3.499,15.375H250.93V168.472z M250.93,259.313l36.889,36.889
	c-10.357,8.289-23.025,13.786-36.889,15.327V259.313z M171.401,232c3.703-33.318,30.21-59.825,63.528-63.528V240v71.528
	c-33.318-3.703-59.825-30.21-63.528-63.528h31.528v-16H171.401z M90.93,176h32v24h-32V176z M90.93,216h32v88h-32V216z"/>
<g>
</g>
<g>
</g>
<g>
</g>
<g>
</g>
<g>
</g>
<g>
</g>
<g>
</g>
<g>
</g>
<g>
</g>
<g>
</g>
<g>
</g>
<g>
</g>
<g>
</g>
<g>
</g>
<g>
</g>
</svg>
