<?xml version="1.0" encoding="iso-8859-1"?>
<!-- Generator: Adobe Illustrator 19.0.0, SVG Export Plug-In . SVG Version: 6.00 Build 0)  -->
<svg version="1.1" id="Capa_1" xmlns="http://www.w3.org/2000/svg" xmlns:xlink="http://www.w3.org/1999/xlink" x="0px" y="0px"
	 viewBox="0 0 480 480" style="enable-background:new 0 0 480 480;" xml:space="preserve">
<path style="fill:#ED539D;" d="M408,328v48c0,8.837-7.163,16-16,16h-24v16c0,8.837-7.163,16-16,16h-24v48h-24l-24-24
	c-28.688,9.735-59.658,10.516-88.8,2.24L168,472h-24l1.12-44.64C119.822,408.737,104.625,379.407,104,348c0-60,57.28-108,128-108
	c28.467-0.181,56.334,8.179,80,24l32-32v48h8c8.837,0,16,7.163,16,16v16h24C400.837,312,408,319.163,408,328z"/>
<ellipse style="fill:#F072AE;" cx="228" cy="328" rx="100" ry="72"/>
<path style="fill:#FE946F;" d="M272,40h16c8.836,0,16-7.164,16-16h-32V40z"/>
<path style="fill:#FFB398;" d="M376,120c0-8.837-7.164-16-16-16h-32V88h64c0-8.837-7.164-16-16-16h-8h-56V56h72
	c0-8.837-7.164-16-16-16h-80h-16l0,0V24h32V8h-72l-32,32h-80v112h240c0-8.837-7.164-16-16-16h-8v-16H376z"/>
<rect x="64" y="40" style="fill:#29485A;" width="56" height="112"/>
<rect x="64" y="152" style="fill:#1B333F;" width="56" height="16"/>
<g>
	<path style="fill:#FE946F;" d="M328,88v16h32h16c8.836,0,16-7.164,16-16H328z"/>
	<path style="fill:#FE946F;" d="M312,72h56c8.836,0,16-7.164,16-16h-72V72z"/>
	<path style="fill:#FE946F;" d="M120,168h16h192h16c8.836,0,16-7.164,16-16H120V168z"/>
	<path style="fill:#FE946F;" d="M336,136h8h16c8.836,0,16-7.164,16-16h-40V136z"/>
</g>
<path style="fill:#FFD422;" d="M232,72c-35.289,0-64,28.711-64,64s28.711,64,64,64s64-28.711,64-64S267.289,72,232,72z M240,174.526
	V184h-16v-8h-8v-16h16c4.41,0,8-3.59,8-8s-3.59-8-8-8c-13.234,0-24-10.766-24-24c0-10.416,6.708-19.213,16-22.526V88h16v8h8v16h-16
	c-4.41,0-8,3.59-8,8s3.59,8,8,8c13.234,0,24,10.766,24,24C256,162.416,249.292,171.213,240,174.526z"/>
<g>
	<path style="fill:#E7B900;" d="M232,56c-44.113,0-80,35.887-80,80s35.887,80,80,80s80-35.887,80-80S276.113,56,232,56z M232,200
		c-35.289,0-64-28.711-64-64s28.711-64,64-64s64,28.711,64,64S267.289,200,232,200z"/>
	<path style="fill:#E7B900;" d="M232,128c-4.41,0-8-3.59-8-8s3.59-8,8-8h16V96h-8v-8h-16v9.474c-9.292,3.313-16,12.11-16,22.526
		c0,13.234,10.766,24,24,24c4.41,0,8,3.59,8,8s-3.59,8-8,8h-16v16h8v8h16v-9.474c9.292-3.313,16-12.11,16-22.526
		C256,138.766,245.234,128,232,128z"/>
</g>
<g>
	<path style="fill:#FFFFFF;" d="M197.711,102.453l-11.43-11.195C198.434,78.844,214.672,72.004,232,72.004v16
		C219.012,88.004,206.832,93.137,197.711,102.453z"/>
	<path style="fill:#FFFFFF;" d="M257.004,194.906l-6.25-14.727c11.957-5.078,21.164-14.559,25.914-26.695l14.898,5.836
		C285.234,175.496,272.957,188.133,257.004,194.906z"/>
</g>
<path style="fill:#C22570;" d="M269.305,286.41c-24.063-8.617-50.547-8.617-74.609,0l-5.391-15.063
	c27.531-9.859,57.859-9.859,85.391,0L269.305,286.41z"/>
<g>
	<path style="fill:#FFFFFF;" d="M144,348h-16c0-4.551,0.457-9.117,1.355-13.582l15.688,3.164C144.352,341.008,144,344.512,144,348z"
		/>
	<path style="fill:#FFFFFF;" d="M159.949,408.52c-10.035-7.656-18.422-17.625-24.246-28.828l14.195-7.383
		c4.746,9.129,11.578,17.25,19.754,23.492L159.949,408.52z"/>
</g>
<g>
	<rect x="368" y="344" style="fill:#C22570;" width="16" height="16"/>
	<path style="fill:#C22570;" d="M104,352h-8c-13.234,0-24-10.766-24-24v-8h16v8c0,4.41,3.59,8,8,8h8V352z"/>
	<path style="fill:#C22570;" d="M368,400h-8c-13.234,0-24-10.766-24-24v-8h16v8c0,4.41,3.59,8,8,8h8V400z"/>
	<path style="fill:#C22570;" d="M328,328h-16c0-13.234,10.766-24,24-24v16C331.59,320,328,323.59,328,328z"/>
</g>
<rect x="64" y="128" style="fill:#FFD422;" width="16" height="16"/>
<path d="M392,304h-16v-8c0-13.234-10.766-24-24-24v-40c0-3.234-1.949-6.152-4.938-7.391c-2.996-1.246-6.43-0.559-8.719,1.734
	l-27.461,27.461c-23.531-14.297-50.328-21.809-77.922-21.809C162.372,231.542,103.924,277.317,96.753,336H96c-4.41,0-8-3.59-8-8v-8
	H72v8c0,13.234,10.766,24,24,24h0.293c1.732,30.837,16.605,59.958,40.726,79.227l-1.016,40.574c-0.055,2.152,0.762,4.242,2.27,5.785
	c1.504,1.543,3.57,2.414,5.727,2.414h24c2.035,0,3.992-0.773,5.473-2.164l19.953-18.719c27.875,7.07,56.859,6.375,84.371-2.004
	l20.547,20.543c1.5,1.5,3.535,2.344,5.656,2.344h24c4.418,0,8-3.582,8-8v-40h16c13.234,0,24-10.766,24-24v-8h16
	c13.234,0,24-10.766,24-24v-48C416,314.766,405.234,304,392,304z M400,376c0,4.41-3.59,8-8,8h-24h-8c-4.41,0-8-3.59-8-8v-8h-16v8
	c0,13.234,10.766,24,24,24v8c0,4.41-3.59,8-8,8h-24c-4.418,0-8,3.582-8,8v40h-12.688l-21.656-21.656
	c-2.152-2.156-5.355-2.891-8.227-1.918c-27.273,9.258-56.336,9.984-84.043,2.117c-2.707-0.766-5.609-0.066-7.66,1.859L164.836,464
	h-12.633l0.914-36.441c0.066-2.613-1.148-5.094-3.254-6.641C126.727,403.887,112.57,376.57,112,348c0-55.141,53.832-100,120.051-100
	c0.289-0.004,0.574-0.004,0.859-0.004c26.664,0,52.461,7.828,74.645,22.656c3.184,2.129,7.406,1.703,10.102-0.996L336,251.313V280
	c0,4.418,3.582,8,8,8h8c4.41,0,8,3.59,8,8v16c0,4.418,3.582,8,8,8h24c4.41,0,8,3.59,8,8V376z"/>
<path d="M189.305,271.348l5.391,15.063c24.063-8.617,50.547-8.617,74.609,0l5.391-15.063
	C247.164,261.488,216.836,261.488,189.305,271.348z"/>
<path d="M145.043,337.582l-15.688-3.164C128.457,338.883,128,343.449,128,348h16C144,344.512,144.352,341.008,145.043,337.582z"/>
<path d="M149.898,372.309l-14.195,7.383c5.824,11.203,14.211,21.172,24.246,28.828l9.703-12.719
	C161.477,389.559,154.645,381.438,149.898,372.309z"/>
<rect x="368" y="344" width="16" height="16"/>
<path d="M312,328h16c0-4.41,3.59-8,8-8v-16C322.766,304,312,314.766,312,328z"/>
<path d="M152,136c0,44.113,35.887,80,80,80s80-35.887,80-80s-35.887-80-80-80S152,91.887,152,136z M296,136
	c0,35.289-28.711,64-64,64s-64-28.711-64-64s28.711-64,64-64S296,100.711,296,136z"/>
<path d="M224,88v9.474c-9.292,3.313-16,12.11-16,22.526c0,13.234,10.766,24,24,24c4.41,0,8,3.59,8,8s-3.59,8-8,8h-16v16h8v8h16
	v-9.474c9.292-3.313,16-12.11,16-22.526c0-13.234-10.766-24-24-24c-4.41,0-8-3.59-8-8s3.59-8,8-8h16V96h-8v-8H224z"/>
<path d="M136,160h-8V48h72c2.121,0,4.156-0.844,5.656-2.344L235.313,16H296v8c0,4.41-3.59,8-8,8h-16v16h16h80c4.41,0,8,3.59,8,8
	s-3.59,8-8,8h-56v16h56h8c4.41,0,8,3.59,8,8s-3.59,8-8,8h-16h-32v16h32c4.41,0,8,3.59,8,8s-3.59,8-8,8h-16h-8v16h8
	c4.41,0,8,3.59,8,8s-3.59,8-8,8h-16v16h16c13.234,0,24-10.766,24-24c0-3.159-0.648-6.162-1.762-8.926
	C376.438,140.308,384,131.063,384,120c0-3.159-0.648-6.162-1.762-8.926C392.438,108.308,400,99.063,400,88
	c0-8.523-4.497-15.975-11.211-20.233C390.774,64.274,392,60.296,392,56c0-13.234-10.766-24-24-24h-57.474
	c0.896-2.515,1.474-5.181,1.474-8V8c0-4.418-3.582-8-8-8h-72c-2.121,0-4.156,0.844-5.656,2.344L196.688,32H64v16h48v112H64v16h72
	V160z"/>
<rect x="64" y="128" width="16" height="16"/>
<g>
</g>
<g>
</g>
<g>
</g>
<g>
</g>
<g>
</g>
<g>
</g>
<g>
</g>
<g>
</g>
<g>
</g>
<g>
</g>
<g>
</g>
<g>
</g>
<g>
</g>
<g>
</g>
<g>
</g>
</svg>
