<?xml version="1.0" encoding="iso-8859-1"?>
<!-- Generator: Adobe Illustrator 19.0.0, SVG Export Plug-In . SVG Version: 6.00 Build 0)  -->
<svg version="1.1" id="Capa_1" xmlns="http://www.w3.org/2000/svg" xmlns:xlink="http://www.w3.org/1999/xlink" x="0px" y="0px"
	 viewBox="0 0 480 480" style="enable-background:new 0 0 480 480;" xml:space="preserve">
<path style="fill:#69C229;" d="M208,448L208,448c-97.202,0-176-78.798-176-176v0h176V448z"/>
<path style="fill:#5EAC24;" d="M207.469,456c-42.43,0-83.797-14.844-116.555-41.828l10.172-12.344
	c27.969,23.039,62.828,36.383,98.914,38.008V280H40.18c0.953,21.023,5.813,41.414,14.477,60.727l-14.594,6.547
	C29.367,323.445,23.969,298.117,24,271.992c0.008-4.414,3.586-7.992,8-7.992h176c4.422,0,8,3.578,8,8v176
	c0,4.406-3.57,7.984-7.977,8C207.836,456,207.648,456,207.469,456z"/>
<g>
	<rect x="312" y="464" style="fill:#69C229;" width="16" height="16"/>
	<rect x="344" y="464" style="fill:#69C229;" width="16" height="16"/>
	<rect x="376" y="464" style="fill:#69C229;" width="16" height="16"/>
	<rect x="408" y="464" style="fill:#69C229;" width="16" height="16"/>
</g>
<path style="fill:#5AAAE7;" d="M64,240h176L115.549,115.549C83.7,147.399,64,191.399,64,240z"/>
<path style="fill:#1E81CE;" d="M240,248H64c-4.422,0-8-3.578-8-8c0-49.141,19.141-95.352,53.891-130.109c3-3,8.313-3,11.313,0
	l124.453,124.453c2.289,2.289,2.977,5.727,1.734,8.719C246.156,246.055,243.234,248,240,248z M72.188,232h148.5L115.68,126.992
	C89.242,156.016,74.008,192.789,72.188,232z"/>
<path style="fill:#FFD422;" d="M115.549,115.549L240,240V64C191.399,64,147.399,83.7,115.549,115.549z"/>
<path style="fill:#E7B900;" d="M240,248c-2.078,0-4.125-0.813-5.656-2.344L109.891,121.203c-1.5-1.5-2.344-3.531-2.344-5.656
	s0.844-4.156,2.344-5.656C144.648,75.141,190.859,56,240,56c4.422,0,8,3.578,8,8v176c0,3.234-1.945,6.156-4.938,7.391
	C242.07,247.805,241.031,248,240,248z M126.992,115.68L232,220.688v-148.5C192.789,74.008,156.016,89.242,126.992,115.68z"/>
<g>
	<path style="fill:#F40E34;" d="M240,64v176v176c97.202,0,176-78.798,176-176S337.202,64,240,64z"/>
	<rect x="320" y="8" style="fill:#F40E34;" width="32" height="32"/>
</g>
<g>
	<rect x="376" style="fill:#5AAAE7;" width="104" height="16"/>
	<rect x="376" y="32" style="fill:#5AAAE7;" width="104" height="16"/>
</g>
<g>
	<rect y="352" style="fill:#FFD422;" width="120" height="16"/>
	<rect y="384" style="fill:#FFD422;" width="120" height="16"/>
	<rect x="144" y="360" style="fill:#FFD422;" width="32" height="32"/>
</g>
<path style="fill:#A6001E;" d="M240,56c-4.422,0-8,3.578-8,8v352c0,4.422,3.578,8,8,8c101.461,0,184-82.539,184-184
	S341.461,56,240,56z M402.344,282.344l-120,120l0.127,0.127c-9.875,2.584-20.108,4.229-30.598,4.968l155.541-155.541
	c-0.738,10.464-2.448,20.64-5.023,30.493L402.344,282.344z M248,123.313l43.175-43.175c6.28,2.016,12.444,4.283,18.38,6.995
	L248,148.688V123.313z M248,171.313l76.484-76.484c5.283,3.086,10.322,6.529,15.22,10.155L248,196.688V171.313z M248,267.313
	l126.967-126.967c3.631,4.905,6.981,10.012,10.071,15.304L248,292.688V267.313z M248,315.313l144.766-144.766
	c2.702,5.918,5.126,11.979,7.136,18.239L248,340.688V315.313z M248,363.313l156.654-156.654c1.485,7.346,2.327,14.903,2.816,22.559
	L248,388.688V363.313z M364.8,127.887L248,244.688v-25.375l104.149-104.149C356.602,119.168,360.796,123.434,364.8,127.887z
	 M273.195,75.493L248,100.688v-28.5C256.604,72.593,264.974,73.835,273.195,75.493z M319.571,387.742l68.421-68.421
	C372.397,348.297,348.512,372.09,319.571,387.742z"/>
<g>
	<path style="fill:#FFFFFF;" d="M112,192.023L96,192c0-1.797,0.398-44.297,35.203-70.398l9.594,12.797
		C112.531,155.602,112,191.664,112,192.023z"/>
	
		<rect x="159.053" y="99.999" transform="matrix(-0.8944 0.4472 -0.4472 -0.8944 366.5568 129.4659)" style="fill:#FFFFFF;" width="17.888" height="16"/>
</g>
<path d="M208,264H32c-4.414,0-7.992,3.578-8,7.992c-0.031,26.125,5.367,51.453,16.063,75.281l14.594-6.547
	C45.992,321.414,41.133,301.023,40.18,280H200v159.836c-36.086-1.625-70.945-14.969-98.914-38.008l-10.172,12.344
	C123.672,441.156,165.039,456,207.469,456c0.18,0,0.367,0,0.555,0c4.406-0.016,7.977-3.594,7.977-8V272
	C216,267.578,212.422,264,208,264z"/>
<rect x="312" y="464" width="16" height="16"/>
<rect x="344" y="464" width="16" height="16"/>
<rect x="376" y="464" width="16" height="16"/>
<rect x="408" y="464" width="16" height="16"/>
<path d="M248,56.203V0h-16v56.203c-44.711,1.924-85.332,19.859-116.257,48.228L53.656,42.344L42.344,53.656l62.086,62.086
	C74.377,148.504,56,192.141,56,240c0,4.422,3.578,8,8,8h168v168c0,4.422,3.578,8,8,8c101.461,0,184-82.539,184-184
	C424,141.222,345.761,60.409,248,56.203z M364.779,127.909L248,244.688V240v-20.688l104.091-104.091
	C356.545,119.226,360.774,123.455,364.779,127.909z M402.344,282.344l-120,120l0.127,0.127c-9.875,2.584-20.108,4.229-30.598,4.968
	l155.541-155.541c-0.738,10.464-2.448,20.64-5.023,30.493L402.344,282.344z M248,171.313l76.361-76.361
	c5.29,3.089,10.373,6.469,15.276,10.099L248,196.688V171.313z M248,148.688v-25.375l43.251-43.251
	c6.256,2.01,12.302,4.458,18.216,7.159L248,148.688z M407.455,229.233L248,388.688v-25.375l156.653-156.653
	C406.139,214.008,406.965,221.574,407.455,229.233z M248,340.688v-25.375l144.78-144.78c2.701,5.914,5.149,11.96,7.159,18.216
	L248,340.688z M248,292.688v-25.375l126.949-126.949c3.63,4.903,7.01,9.986,10.099,15.276L248,292.688z M273.341,75.347L248,100.688
	V72.405C256.615,72.814,265.11,73.682,273.341,75.347z M232,72.394v148.294L127.152,115.84C155.152,90.369,191.72,74.304,232,72.394
	z M115.834,127.147L220.688,232h-148.5C74.085,191.697,90.35,155.159,115.834,127.147z M319.571,387.742l68.421-68.421
	C372.397,348.297,348.512,372.09,319.571,387.742z"/>
<path d="M320,48h32c4.422,0,8-3.578,8-8V8c0-4.422-3.578-8-8-8h-32c-4.422,0-8,3.578-8,8v32C312,44.422,315.578,48,320,48z M328,16
	h16v16h-16V16z"/>
<rect x="376" width="104" height="16"/>
<rect x="376" y="32" width="104" height="16"/>
<rect y="352" width="120" height="16"/>
<rect y="384" width="120" height="16"/>
<path d="M176,400c4.422,0,8-3.578,8-8v-32c0-4.422-3.578-8-8-8h-32c-4.422,0-8,3.578-8,8v32c0,4.422,3.578,8,8,8H176z M152,368h16
	v16h-16V368z"/>
<g>
</g>
<g>
</g>
<g>
</g>
<g>
</g>
<g>
</g>
<g>
</g>
<g>
</g>
<g>
</g>
<g>
</g>
<g>
</g>
<g>
</g>
<g>
</g>
<g>
</g>
<g>
</g>
<g>
</g>
</svg>
