<?xml version="1.0" encoding="iso-8859-1"?>
<!-- Generator: Adobe Illustrator 19.0.0, SVG Export Plug-In . SVG Version: 6.00 Build 0)  -->
<svg version="1.1" id="Capa_1" xmlns="http://www.w3.org/2000/svg" xmlns:xlink="http://www.w3.org/1999/xlink" x="0px" y="0px"
	 viewBox="0 0 480 480" style="enable-background:new 0 0 480 480;" xml:space="preserve">
<polygon style="fill:#5EAC24;" points="136,164.84 8,164.84 8,372.84 136,372.84 344,372.84 472,372.84 472,164.84 352,164.84 "/>
<g>
	<rect y="396.84" style="fill:#47821B;" width="480" height="16"/>
	<rect y="428.84" style="fill:#47821B;" width="480" height="16"/>
</g>
<g>
	<path style="fill:#69C229;" d="M144,340.84c-32-42.667-32-101.333,0-144H56c0,8.837-7.163,16-16,16v112c8.837,0,16,7.163,16,16H144
		z"/>
	<path style="fill:#69C229;" d="M336,340.84c32-42.667,32-101.333,0-144h88c0,8.837,7.163,16,16,16v112c-8.837,0-16,7.163-16,16H336
		z"/>
</g>
<path style="fill:#FFD422;" d="M326.074,311.766l8.008-13.852l6.544,3.782c1.518-3.113,2.894-6.306,4.123-9.568
	c0.014-0.037,0.026-0.073,0.04-0.109c1.215-3.236,2.283-6.541,3.198-9.909c0.017-0.063,0.031-0.125,0.048-0.188
	c0.907-3.361,1.663-6.784,2.255-10.263c0.008-0.048,0.015-0.097,0.022-0.145c0.592-3.505,1.025-7.064,1.282-10.674H344v-16h7.595
	c-0.257-3.61-0.69-7.169-1.282-10.674c-0.008-0.048-0.015-0.097-0.022-0.145c-0.592-3.479-1.349-6.901-2.255-10.263
	c-0.017-0.063-0.031-0.125-0.048-0.188c-0.915-3.368-1.983-6.673-3.198-9.909c-0.014-0.037-0.026-0.073-0.04-0.109
	c-1.229-3.263-2.604-6.455-4.123-9.568l-6.544,3.782l-8.008-13.852l6.635-3.834c-0.027-0.041-0.061-0.078-0.088-0.118
	c-7.956-11.683-18.06-21.787-29.743-29.743c-0.041-0.027-0.078-0.061-0.118-0.088l-3.834,6.635l-13.852-8.008l3.782-6.544
	c-3.113-1.518-6.306-2.894-9.568-4.123c-0.037-0.014-0.073-0.026-0.109-0.04c-3.236-1.215-6.541-2.283-9.909-3.198
	c-0.063-0.017-0.125-0.031-0.188-0.048c-3.361-0.907-6.784-1.663-10.263-2.255c-0.048-0.008-0.097-0.015-0.145-0.022
	c-3.505-0.592-7.064-1.025-10.674-1.282v7.595h-16v-7.595c-3.61,0.257-7.169,0.69-10.674,1.282
	c-0.048,0.008-0.097,0.015-0.145,0.022c-3.479,0.592-6.901,1.349-10.263,2.255c-0.063,0.017-0.125,0.031-0.188,0.048
	c-3.368,0.915-6.673,1.983-9.909,3.198c-0.037,0.014-0.073,0.026-0.109,0.04c-3.263,1.229-6.455,2.604-9.568,4.123l3.782,6.544
	l-13.852,8.008l-3.834-6.635c-0.041,0.027-0.078,0.061-0.118,0.088c-11.683,7.956-21.787,18.06-29.743,29.743
	c-0.027,0.041-0.061,0.078-0.088,0.118l6.635,3.834l-8.008,13.852l-6.544-3.782c-1.518,3.113-2.894,6.306-4.123,9.568
	c-0.014,0.037-0.026,0.073-0.04,0.109c-1.215,3.236-2.283,6.541-3.198,9.909c-0.017,0.063-0.031,0.125-0.048,0.188
	c-0.907,3.361-1.663,6.784-2.255,10.263c-0.008,0.048-0.015,0.097-0.022,0.145c-0.592,3.505-1.025,7.064-1.282,10.674H136v16h-7.595
	c0.257,3.61,0.69,7.169,1.282,10.674c0.008,0.048,0.015,0.097,0.022,0.145c0.592,3.479,1.349,6.901,2.255,10.263
	c0.017,0.063,0.031,0.125,0.048,0.188c0.915,3.368,1.983,6.673,3.198,9.909c0.014,0.037,0.026,0.073,0.04,0.109
	c1.229,3.263,2.604,6.455,4.123,9.568l6.544-3.782l8.008,13.852l-6.635,3.834c0.027,0.041,0.061,0.078,0.088,0.118
	c7.956,11.683,18.06,21.787,29.743,29.743c0.041,0.027,0.078,0.061,0.118,0.088l3.834-6.635l13.852,8.008l-3.782,6.544
	c3.113,1.518,6.306,2.894,9.568,4.123c0.037,0.014,0.073,0.026,0.109,0.04c3.236,1.215,6.541,2.283,9.909,3.198
	c0.063,0.017,0.125,0.031,0.188,0.048c3.361,0.907,6.784,1.663,10.263,2.255c0.048,0.008,0.097,0.015,0.145,0.022
	c3.505,0.592,7.064,1.025,10.674,1.282v-7.595h16v7.595c3.61-0.257,7.169-0.69,10.674-1.282c0.048-0.008,0.097-0.015,0.145-0.022
	c3.479-0.592,6.901-1.349,10.263-2.255c0.063-0.017,0.125-0.031,0.188-0.048c3.368-0.915,6.673-1.983,9.909-3.198
	c0.037-0.014,0.073-0.026,0.109-0.04c3.263-1.229,6.455-2.604,9.568-4.123l-3.782-6.544l13.852-8.008l3.834,6.635
	c0.041-0.027,0.078-0.061,0.118-0.088c11.683-7.956,21.787-18.06,29.743-29.743c0.027-0.041,0.061-0.078,0.088-0.118
	L326.074,311.766z M240,332.84c-44.113,0-80-35.887-80-80s35.887-80,80-80s80,35.887,80,80S284.113,332.84,240,332.84z"/>
<path style="fill:#F40E34;" d="M208,107.32c-0.004-1.034,0.042-2.068,0.137-3.098c1.635-17.597,17.226-30.538,34.823-28.902
	c16.836,2.086,29.374,16.558,29.04,33.52l32-1.68c0-35.346-28.654-64-64-64s-64,28.654-64,64v35
	c9.909-5.752,20.646-10.168,32-13.107V107.32z"/>
<path style="fill:#E7B900;" d="M240,124.84c-11.066,0-21.751,1.56-32,4.212c-11.354,2.939-22.091,7.355-32,13.107
	c-38.193,22.174-64,63.428-64,110.68c0,70.578,57.422,128,128,128s128-57.422,128-128S310.578,124.84,240,124.84z M332.621,315.718
	c-7.956,11.683-18.06,21.787-29.743,29.743c-0.041,0.028-0.078,0.061-0.118,0.088l0,0l-3.834-6.635l-13.852,8.008l3.782,6.544
	c-3.113,1.518-6.306,2.894-9.568,4.123c-0.036,0.014-0.073,0.026-0.109,0.04c-3.236,1.215-6.541,2.283-9.909,3.198
	c-0.063,0.017-0.125,0.032-0.188,0.048c-3.361,0.907-6.784,1.663-10.263,2.255c-0.048,0.008-0.097,0.014-0.145,0.022
	c-3.505,0.592-7.064,1.025-10.674,1.282v-7.595h-16v7.595c-3.61-0.257-7.169-0.69-10.674-1.282
	c-0.048-0.008-0.097-0.015-0.145-0.022c-3.479-0.592-6.901-1.349-10.263-2.255c-0.063-0.017-0.125-0.031-0.188-0.048
	c-3.368-0.915-6.673-1.983-9.909-3.198c-0.036-0.014-0.073-0.026-0.109-0.04c-3.263-1.229-6.455-2.604-9.568-4.123l3.782-6.544
	l-13.852-8.008l-3.834,6.635l0,0c-0.041-0.028-0.078-0.061-0.118-0.088c-11.683-7.956-21.787-18.06-29.743-29.743
	c-0.028-0.041-0.061-0.078-0.088-0.118l0,0l6.635-3.834l-8.008-13.852l-6.544,3.782c-1.518-3.113-2.894-6.306-4.123-9.568
	c-0.014-0.036-0.026-0.073-0.04-0.109c-1.215-3.236-2.283-6.541-3.198-9.909c-0.017-0.063-0.032-0.125-0.048-0.188
	c-0.907-3.361-1.663-6.784-2.255-10.263c-0.008-0.048-0.014-0.097-0.022-0.145c-0.592-3.505-1.025-7.064-1.282-10.674H136v-16
	h-7.595c0.257-3.61,0.69-7.169,1.282-10.674c0.008-0.048,0.015-0.097,0.022-0.145c0.592-3.479,1.349-6.901,2.255-10.263
	c0.017-0.063,0.031-0.125,0.048-0.188c0.915-3.368,1.983-6.673,3.198-9.909c0.014-0.036,0.026-0.073,0.04-0.109
	c1.229-3.263,2.604-6.455,4.123-9.568l6.544,3.782l8.008-13.852l-6.635-3.834l0,0c0.028-0.041,0.061-0.078,0.088-0.118
	c7.956-11.683,18.06-21.787,29.743-29.743c0.041-0.028,0.078-0.061,0.118-0.088l0,0l3.834,6.635l13.852-8.008l-3.782-6.544
	c3.113-1.518,6.306-2.894,9.568-4.123c0.036-0.014,0.073-0.026,0.109-0.04c3.236-1.215,6.541-2.283,9.909-3.198
	c0.063-0.017,0.125-0.032,0.188-0.048c3.361-0.907,6.784-1.663,10.263-2.255c0.048-0.008,0.097-0.014,0.145-0.022
	c3.505-0.592,7.064-1.025,10.674-1.282v7.595h16v-7.595c3.61,0.257,7.169,0.69,10.674,1.282c0.048,0.008,0.097,0.015,0.145,0.022
	c3.479,0.592,6.901,1.349,10.263,2.255c0.063,0.017,0.125,0.031,0.188,0.048c3.368,0.915,6.673,1.983,9.909,3.198
	c0.036,0.014,0.073,0.026,0.109,0.04c3.263,1.229,6.455,2.604,9.568,4.123l-3.782,6.544l13.852,8.008l3.834-6.635l0,0
	c0.041,0.028,0.078,0.061,0.118,0.088c11.683,7.956,21.787,18.06,29.743,29.743c0.028,0.041,0.061,0.078,0.088,0.118l0,0
	l-6.635,3.834l8.008,13.852l6.544-3.782c1.518,3.113,2.894,6.306,4.123,9.568c0.014,0.036,0.026,0.073,0.04,0.109
	c1.215,3.236,2.283,6.541,3.198,9.909c0.017,0.063,0.032,0.125,0.048,0.188c0.907,3.361,1.663,6.784,2.255,10.263
	c0.008,0.048,0.014,0.097,0.022,0.145c0.592,3.505,1.025,7.064,1.282,10.674H344v16h7.595c-0.257,3.61-0.69,7.169-1.282,10.674
	c-0.008,0.048-0.015,0.097-0.022,0.145c-0.592,3.479-1.349,6.901-2.255,10.263c-0.017,0.063-0.031,0.125-0.048,0.188
	c-0.915,3.368-1.983,6.673-3.198,9.909c-0.014,0.036-0.026,0.073-0.04,0.109c-1.229,3.263-2.604,6.455-4.123,9.568l-6.544-3.782
	l-8.008,13.852l6.635,3.834l0,0C332.682,315.641,332.649,315.678,332.621,315.718z"/>
<path style="fill:#FFD422;" d="M240,188.84c-35.289,0-64,28.711-64,64s28.711,64,64,64s64-28.711,64-64S275.289,188.84,240,188.84z
	 M248,291.366v9.474h-16v-8h-8v-16h16c4.41,0,8-3.59,8-8s-3.59-8-8-8c-13.234,0-24-10.766-24-24c0-10.416,6.708-19.213,16-22.526
	v-9.474h16v8h8v16h-16c-4.41,0-8,3.59-8,8s3.59,8,8,8c13.234,0,24,10.766,24,24C264,279.255,257.292,288.053,248,291.366z"/>
<g>
	<path style="fill:#E7B900;" d="M240,172.84c-44.113,0-80,35.887-80,80s35.887,80,80,80s80-35.887,80-80S284.113,172.84,240,172.84z
		 M240,316.84c-35.289,0-64-28.711-64-64s28.711-64,64-64s64,28.711,64,64S275.289,316.84,240,316.84z"/>
	<path style="fill:#E7B900;" d="M240,244.84c-4.41,0-8-3.59-8-8s3.59-8,8-8h16v-16h-8v-8h-16v9.474c-9.292,3.313-16,12.11-16,22.526
		c0,13.234,10.766,24,24,24c4.41,0,8,3.59,8,8s-3.59,8-8,8h-16v16h8v8h16v-9.474c9.292-3.313,16-12.11,16-22.526
		C264,255.605,253.234,244.84,240,244.84z"/>
</g>
<g>
	<path style="fill:#FFFFFF;" d="M174.406,194.172L162.484,183.5c19.719-22.027,47.973-34.66,77.516-34.66v16
		C215,164.84,191.094,175.531,174.406,194.172z"/>
	<path style="fill:#FFFFFF;" d="M261.289,354.641l-3.273-15.664c24.465-5.117,45.68-20.477,58.199-42.141l13.852,8.008
		C315.273,330.441,290.207,348.59,261.289,354.641z"/>
	<path style="fill:#FFFFFF;" d="M152,252.84h-16c0-11.887,1.992-23.547,5.918-34.664l15.086,5.328
		C153.684,232.906,152,242.773,152,252.84z"/>
</g>
<path d="M240,332.84c44.113,0,80-35.887,80-80s-35.887-80-80-80s-80,35.887-80,80S195.887,332.84,240,332.84z M240,188.84
	c35.289,0,64,28.711,64,64s-28.711,64-64,64s-64-28.711-64-64S204.711,188.84,240,188.84z"/>
<path d="M240,260.84c4.41,0,8,3.59,8,8s-3.59,8-8,8h-16v16h8v8h16v-9.474c9.292-3.313,16-12.11,16-22.526c0-13.234-10.766-24-24-24
	c-4.41,0-8-3.59-8-8s3.59-8,8-8h16v-16h-8v-8h-16v9.474c-9.292,3.313-16,12.11-16,22.526C216,250.074,226.766,260.84,240,260.84z"/>
<path d="M240,380.84c70.578,0,128-57.422,128-128s-57.422-128-128-128c-8.209,0-16.216,0.851-24,2.335v-19.886
	c-0.004-0.781,0.031-1.563,0.102-2.324c1.227-13.176,12.879-22.93,25.875-21.707c12.809,1.59,22.277,12.52,22.023,25.426
	c-0.043,2.223,0.84,4.359,2.438,5.906c1.598,1.543,3.828,2.371,5.98,2.238l32-1.68c4.25-0.223,7.582-3.734,7.582-7.988
	c0-39.699-32.301-72-72-72s-72,32.301-72,72v39.933c-33.772,23.069-56,61.853-56,105.747C112,323.418,169.422,380.84,240,380.84z
	 M184,107.16c0-30.879,25.121-56,56-56c28.313,0,51.785,21.121,55.492,48.438l-16.207,0.848
	c-3.27-17.234-17.305-30.828-35.582-33.09c-10.668-0.988-21.027,2.227-29.25,9.047c-8.219,6.824-13.293,16.441-14.285,27.098
	c-0.113,1.281-0.172,2.563-0.168,3.82v24.01c-5.521,1.822-10.838,4.062-16,6.588V107.16z M139.374,203.983l6.544,3.782l8.008-13.852
	l-6.635-3.834c7.997-11.775,18.174-21.953,29.949-29.949l3.834,6.635l13.852-8.008l-3.782-6.544
	c12.511-6.1,26.286-9.931,40.856-10.968v7.595h16v-7.595c14.57,1.037,28.346,4.868,40.856,10.968l-3.782,6.544l13.852,8.008
	l3.834-6.635c11.775,7.997,21.953,18.174,29.949,29.949l-6.635,3.834l8.008,13.852l6.544-3.782
	c6.1,12.511,9.931,26.286,10.968,40.856H344v16h7.595c-1.037,14.57-4.868,28.346-10.968,40.856l-6.544-3.782l-8.008,13.852
	l6.635,3.834c-7.997,11.775-18.174,21.953-29.949,29.949l-3.834-6.635l-13.852,8.008l3.782,6.544
	c-12.511,6.1-26.286,9.931-40.856,10.968v-7.595h-16v7.595c-14.57-1.037-28.346-4.868-40.856-10.968l3.782-6.544l-13.852-8.008
	l-3.834,6.635c-11.775-7.997-21.953-18.174-29.949-29.949l6.635-3.834l-8.008-13.852l-6.544,3.782
	c-6.1-12.511-9.931-26.286-10.968-40.856H136v-16h-7.595C129.442,230.27,133.273,216.494,139.374,203.983z"/>
<path d="M472,156.84H352v16h112v192H344v16h128c4.418,0,8-3.582,8-8v-208C480,160.422,476.418,156.84,472,156.84z"/>
<path d="M8,380.84h128v-16H16v-192h120v-16H8c-4.418,0-8,3.582-8,8v208C0,377.258,3.582,380.84,8,380.84z"/>
<rect y="396.84" width="480" height="16"/>
<rect y="428.84" width="480" height="16"/>
<path d="M62.629,204.84H112v-16H56c-4.418,0-8,3.582-8,8c0,4.41-3.59,8-8,8c-4.418,0-8,3.582-8,8v112c0,4.418,3.582,8,8,8
	c4.41,0,8,3.59,8,8c0,4.418,3.582,8,8,8h56v-16H62.629c-2.414-6.809-7.82-12.215-14.629-14.629v-98.742
	C54.809,217.055,60.215,211.648,62.629,204.84z"/>
<path d="M417.371,332.84H368v16h56c4.418,0,8-3.582,8-8c0-4.41,3.59-8,8-8c4.418,0,8-3.582,8-8v-112c0-4.418-3.582-8-8-8
	c-4.41,0-8-3.59-8-8c0-4.418-3.582-8-8-8h-48v16h41.371c2.414,6.809,7.82,12.215,14.629,14.629v98.742
	C425.191,320.625,419.785,326.031,417.371,332.84z"/>
<g>
</g>
<g>
</g>
<g>
</g>
<g>
</g>
<g>
</g>
<g>
</g>
<g>
</g>
<g>
</g>
<g>
</g>
<g>
</g>
<g>
</g>
<g>
</g>
<g>
</g>
<g>
</g>
<g>
</g>
</svg>
