<?xml version="1.0" encoding="iso-8859-1"?>
<!-- Generator: Adobe Illustrator 19.0.0, SVG Export Plug-In . SVG Version: 6.00 Build 0)  -->
<svg version="1.1" id="Capa_1" xmlns="http://www.w3.org/2000/svg" xmlns:xlink="http://www.w3.org/1999/xlink" x="0px" y="0px"
	 viewBox="0 0 480 480" style="enable-background:new 0 0 480 480;" xml:space="preserve">
<path id="SVGCleanerId_0" style="fill:#F40E34;" d="M128,136c0-8.837-7.164-16-16-16s-16,7.163-16,16v208c0,8.836,7.164,16,16,16
	s16-7.164,16-16v-8V144V136z"/>
<g>
	<polygon style="fill:#EBE5DD;" points="128,144 128,336 200,296 200,184 	"/>
	<rect x="232" y="176" style="fill:#EBE5DD;" width="96" height="128"/>
</g>
<g>
	<rect x="328" y="168" style="fill:#F40E34;" width="32" height="144"/>
	<rect x="200" y="168" style="fill:#F40E34;" width="32" height="144"/>
</g>
<polygon style="fill:#D4C8B8;" points="144,328 128,336 128,144 144,152 "/>
<g>
	<path style="fill:#F40E34;" d="M360,176h24c17.673,0,32,14.327,32,32v64c0,17.673-14.327,32-32,32h-24V176z"/>
	<path style="fill:#F40E34;" d="M272,304l-25.52,96c-2.563,10.381,3.774,20.873,14.155,23.436c1.468,0.362,2.973,0.552,4.485,0.564
		l0,0c8.732-0.024,16.367-5.889,18.64-14.32L312,304H272z"/>
</g>
<g>
	<rect x="384" y="232" style="fill:#A6001E;" width="32" height="16"/>
	<rect x="392" y="200" style="fill:#A6001E;" width="24" height="16"/>
	<rect x="392" y="264" style="fill:#A6001E;" width="24" height="16"/>
</g>
<rect x="288" y="200" style="fill:#D4C8B8;" width="16" height="16"/>
<polygon style="fill:#5AAAE7;" points="344,408 408,408 408,376 440,408 472,408 472,472 344,472 "/>
<g>
	<rect id="SVGCleanerId_1" x="432" y="432" width="16" height="16"/>
</g>
<rect x="400" y="432" width="16" height="16"/>
<g>
	<rect id="SVGCleanerId_2" x="368" y="432" width="16" height="16"/>
</g>
<polygon style="fill:#5AAAE7;" points="344,408 408,408 408,376 440,408 472,408 472,472 344,472 "/>
<g>
	<g>
		<rect id="SVGCleanerId_1_1_" x="432" y="432" style="fill:#FFD422;" width="16" height="16"/>
	</g>
	<rect x="400" y="432" style="fill:#FFD422;" width="16" height="16"/>
	<g>
		<rect id="SVGCleanerId_2_1_" x="368" y="432" style="fill:#FFD422;" width="16" height="16"/>
	</g>
	<polygon style="fill:#FFD422;" points="8,72 24,72 56,104 56,72 136,72 136,8 8,8 	"/>
</g>
<g>
	<rect x="96" y="32" style="fill:#5AAAE7;" width="16" height="16"/>
	<rect x="64" y="32" style="fill:#5AAAE7;" width="16" height="16"/>
	<rect x="32" y="32" style="fill:#5AAAE7;" width="16" height="16"/>
</g>
<rect x="360" y="176" style="fill:#A6001E;" width="16" height="128"/>
<g>
	<rect x="232" y="176" style="fill:#D4C8B8;" width="16" height="128"/>
	<rect x="64" y="240" style="fill:#D4C8B8;" width="32" height="24"/>
</g>
<rect x="64" y="216" style="fill:#EBE5DD;" width="32" height="24"/>
<g>
	<rect x="272" y="272" style="fill:#FFFFFF;" width="24" height="16"/>
	<rect x="312" y="272" style="fill:#FFFFFF;" width="64" height="16"/>
</g>
<g>
	<path id="SVGCleanerId_0_1_" style="fill:#F40E34;" d="M128,136c0-8.837-7.164-16-16-16s-16,7.163-16,16v208
		c0,8.836,7.164,16,16,16s16-7.164,16-16v-8V144V136z"/>
</g>
<polygon style="fill:#EBE5DD;" points="128,144 128,336 200,296 200,184 "/>
<path style="fill:#FFD422;" d="M272,304l-25.52,96c-2.563,10.381,3.774,20.873,14.155,23.436c1.468,0.362,2.973,0.552,4.485,0.564
	l0,0c8.732-0.024,16.367-5.889,18.64-14.32L312,304H272z"/>
<polygon style="fill:#5AAAE7;" points="344,408 408,408 408,376 440,408 472,408 472,472 344,472 "/>
<polygon style="fill:#FFD422;" points="8,72 24,72 56,104 56,72 136,72 136,8 8,8 "/>
<path d="M368,312h16c22.055,0,40-17.945,40-40v-24v-16v-24c0-22.055-17.945-40-40-40h-16c0-4.422-3.578-8-8-8h-32
	c-4.422,0-8,3.578-8,8h-80c0-4.422-3.578-8-8-8h-32c-4.422,0-8,3.578-8,8v2.405l-56-31.116V136c0-13.234-10.766-24-24-24
	s-24,10.766-24,24v72H64c-4.422,0-8,3.578-8,8v48c0,4.422,3.578,8,8,8h24v72c0,13.234,10.766,24,24,24s24-10.766,24-24v-3.289
	l56-31.116V312c0,4.422,3.578,8,8,8h32c4.422,0,8-3.578,8-8h21.593l-22.882,86.086c-3.617,14.641,5.359,29.5,20.023,33.125
	c2.055,0.5,4.172,0.766,6.406,0.789c12.305-0.031,23.133-8.352,26.344-20.258L318.14,312H320c0,4.422,3.578,8,8,8h32
	C364.422,320,368,316.422,368,312z M384,184c10.416,0,19.213,6.708,22.526,16H392v16h16v16h-16v16h16v16h-16v16h14.526
	c-3.313,9.292-12.11,16-22.526,16h-16V184H384z M72,256v-32h16v32H72z M120,344c0,4.414-3.586,8-8,8s-8-3.586-8-8v-80v-48v-80
	c0-4.414,3.586-8,8-8s8,3.586,8,8v8v192V344z M136,322.405V157.595l56,31.116v102.578L136,322.405z M208,304v-8V184v-8h16v128H208z
	 M276.031,407.594c-1.328,4.938-5.828,8.391-10.828,8.406c-0.906-0.008-1.805-0.125-2.648-0.328
	c-6.086-1.5-9.813-7.672-8.344-13.617L278.148,312h23.43L276.031,407.594z M312,296h-40h-32V184h80v112H312z M352,304h-16V176h16
	V304z"/>
<rect x="288" y="200" width="16" height="16"/>
<g>
	<rect id="SVGCleanerId_1_2_" x="432" y="432" width="16" height="16"/>
</g>
<rect x="400" y="432" width="16" height="16"/>
<g>
	<rect id="SVGCleanerId_2_2_" x="368" y="432" width="16" height="16"/>
</g>
<rect x="96" y="32" width="16" height="16"/>
<rect x="64" y="32" width="16" height="16"/>
<rect x="32" y="32" width="16" height="16"/>
<path d="M472,400h-28.688l-29.656-29.656c-2.289-2.289-5.719-2.969-8.719-1.734C401.945,369.844,400,372.766,400,376v24h-56
	c-4.422,0-8,3.578-8,8v64c0,4.422,3.578,8,8,8h128c4.422,0,8-3.578,8-8v-64C480,403.578,476.422,400,472,400z M464,464H352v-48h56
	c4.422,0,8-3.578,8-8v-12.688l18.344,18.344c1.5,1.5,3.531,2.344,5.656,2.344h24V464z"/>
<path d="M59.063,111.391C62.055,110.156,64,107.234,64,104V80h72c4.422,0,8-3.578,8-8V8c0-4.422-3.578-8-8-8H8C3.578,0,0,3.578,0,8
	v64c0,4.422,3.578,8,8,8h12.688l29.656,29.656C51.875,111.188,53.922,112,56,112C57.031,112,58.07,111.805,59.063,111.391z M48,72
	v12.688L29.656,66.344C28.156,64.844,26.125,64,24,64h-8V16h112v48H56C51.578,64,48,67.578,48,72z"/>
<g>
</g>
<g>
</g>
<g>
</g>
<g>
</g>
<g>
</g>
<g>
</g>
<g>
</g>
<g>
</g>
<g>
</g>
<g>
</g>
<g>
</g>
<g>
</g>
<g>
</g>
<g>
</g>
<g>
</g>
</svg>
