<?xml version="1.0" encoding="iso-8859-1"?>
<!-- Generator: Adobe Illustrator 19.0.0, SVG Export Plug-In . SVG Version: 6.00 Build 0)  -->
<svg version="1.1" id="Capa_1" xmlns="http://www.w3.org/2000/svg" xmlns:xlink="http://www.w3.org/1999/xlink" x="0px" y="0px"
	 viewBox="0 0 485.656 485.656" style="enable-background:new 0 0 485.656 485.656;" xml:space="preserve">
<g>
	<path style="fill:#D4C8B8;" d="M240,112c92.101,0,168.397,67.668,181.883,156c1.394-9.13,2.117-18.48,2.117-28
		c0-101.621-82.379-184-184-184S56,138.379,56,240c0,9.52,0.723,18.87,2.117,28C71.603,179.668,147.899,112,240,112z"/>
	<path style="fill:#D4C8B8;" d="M240,424c-92.101,0-168.397-67.668-181.883-156C56.723,277.13,56,286.48,56,296
		c0,101.62,82.379,184,184,184s184-82.38,184-184c0-9.52-0.723-18.87-2.117-28C408.397,356.332,332.101,424,240,424z"/>
</g>
<ellipse style="fill:#EBE5DD;" cx="240" cy="268" rx="181.88" ry="156"/>
<path style="fill:#FF9811;" d="M240,144L240,144c-44.183,0-80,35.817-80,80v56h-40c1.159,12.288,6.865,23.7,16,32l0,0
	c56.149,60.468,151.851,60.468,208,0l0,0c9.135-8.3,14.841-19.712,16-32h-40v-56C320,179.817,284.183,144,240,144L240,144"/>
<path style="fill:#FFB398;" d="M304,232c8.476-0.357,15.636,6.224,15.993,14.699c0.003,0.06,0.005,0.12,0.007,0.181l0,0
	c0,8.837-7.163,16-16,16h-1.36c-8.642,34.683-43.764,55.794-78.447,47.153c-23.228-5.788-41.365-23.924-47.153-47.153H176
	c-8.837,0-16-7.163-16-16l0,0c0.258-8.479,7.34-15.144,15.819-14.887c0.06,0.002,0.12,0.004,0.181,0.007h40c26.51,0,48-21.49,48-48
	h16v32c0,8.837,7.163,16,16,16H304z"/>
<path style="fill:#F072AE;" d="M144,376v-32c0-17.673,14.327-32,32-32h128c17.673,0,32,14.327,32,32v32H144z"/>
<g>
	<path style="fill:#ED539D;" d="M223.156,379.578l-14.313-7.156l14.59-29.18l-20.461,8.188c-2.473,0.984-5.258,0.68-7.457-0.805
		C193.316,349.133,192,346.656,192,344v-32h16v20.188l29.027-11.617c3.098-1.211,6.609-0.422,8.859,2.016s2.754,6.023,1.27,8.992
		L223.156,379.578z"/>
	<path style="fill:#ED539D;" d="M256.844,379.578l-24-48c-1.484-2.969-0.98-6.555,1.27-8.992c2.254-2.445,5.785-3.234,8.859-2.016
		L272,332.188V312h16v32c0,2.656-1.316,5.133-3.516,6.625c-2.191,1.492-4.98,1.797-7.457,0.805l-20.461-8.188l14.59,29.18
		L256.844,379.578z"/>
</g>
<polygon style="fill:#FFD422;" points="440,120 376,120 344,152 344,120 312,120 312,56 440,56 "/>
<g>
	<rect x="336" y="80" style="fill:#5AAAE7;" width="16" height="16"/>
	<rect x="368" y="80" style="fill:#5AAAE7;" width="16" height="16"/>
	<rect x="400" y="80" style="fill:#5AAAE7;" width="16" height="16"/>
</g>
<rect x="361.355" y="361.372" transform="matrix(-0.7071 0.7071 -0.7071 -0.7071 927.029 384.012)" style="fill:#E7B900;" width="45.256" height="45.256"/>
<rect x="378.725" y="390.074" transform="matrix(-0.7071 0.7071 -0.7071 -0.7071 1023.6041 424.0376)" style="fill:#FFD422;" width="90.512" height="67.88"/>
<g>
	<path style="fill:#FFFFFF;" d="M146.391,165.008l-12.477-10.016C159.922,122.586,198.59,104,240,104v16
		C203.469,120,169.348,136.406,146.391,165.008z"/>
	<path style="fill:#FFFFFF;" d="M120,240h-16c0-14.523,2.289-28.828,6.801-42.508l15.195,5.016C122.016,214.563,120,227.18,120,240z
		"/>
	<path style="fill:#FFFFFF;" d="M240,376v-16c21.078,0,41.82-5.57,59.988-16.102l8.023,13.844C287.414,369.688,263.895,376,240,376z
		"/>
	<path style="fill:#FFFFFF;" d="M338.672,333.508l-11.609-11.016c2.285-2.406,4.469-4.906,6.551-7.5l12.477,10.016
		C343.734,327.945,341.262,330.773,338.672,333.508z"/>
</g>
<path style="fill:#1E81CE;" d="M40,8L40,8C22.327,8,8,22.327,8,40v0h64v0C72,22.327,57.673,8,40,8z"/>
<path style="fill:#5AAAE7;" d="M144,8H72H40c17.673,0,32,14.327,32,32v128c0,17.673,14.327,32,32,32h72V40
	C176,22.327,161.673,8,144,8z"/>
<g>
	<path style="fill:#1E81CE;" d="M96,200h88c17.673,0,32-14.327,32-32v0h-88C128,185.673,113.673,200,96,200L96,200z"/>
	<rect x="96" y="96" style="fill:#1E81CE;" width="56" height="16"/>
	<rect x="96" y="64" style="fill:#1E81CE;" width="56" height="16"/>
	<rect x="96" y="128" style="fill:#1E81CE;" width="56" height="16"/>
</g>
<path d="M232,136v16h8c39.699,0,72,32.297,72,72v1.25c-2.595-0.855-5.331-1.318-8.152-1.25H296c-4.41,0-8-3.586-8-8v-32
	c0-4.422-3.582-8-8-8h-16c-4.418,0-8,3.578-8,8c0,22.055-17.945,40-40,40l-39.938-0.008c-2.774,0.018-5.484,0.5-8.063,1.338V224h-16
	v48h-32c-4.418,0-8,3.578-8,8c0,15.023,7.176,29.383,19.199,38.398l9.602-12.797c-5.84-4.383-9.965-10.648-11.773-17.602H160
	c4.418,0,8-3.578,8-8v-10.559c0.944,0.336,1.888,0.678,2.883,0.895c4.506,13.483,12.861,25.037,23.687,33.664H176
	c-22.055,0-40,17.945-40,40v32h16v-32c0-13.234,10.766-24,24-24h16v24c0,2.656,1.316,5.133,3.516,6.625
	c2.199,1.484,4.984,1.789,7.457,0.805l20.461-8.188l-14.59,29.18l14.313,7.156L240,345.891l16.844,33.688l14.313-7.156l-14.59-29.18
	l20.461,8.188c2.477,0.992,5.266,0.688,7.457-0.805c2.199-1.492,3.516-3.969,3.516-6.625v-24h16c13.234,0,24,10.766,24,24v32h16v-32
	c0-22.055-17.945-40-40-40h-18.826c10.647-8.481,19.025-19.953,23.599-33.594c1.113-0.226,2.175-0.581,3.227-0.957V280
	c0,4.422,3.582,8,8,8h30.25c-2.199,6.898-6.18,13.133-11.629,18.078l10.758,11.844c10.633-9.656,17.234-22.859,18.586-37.172
	c0.211-2.242-0.531-4.469-2.047-6.133S362.254,272,360,272h-32v-48c0-48.523-39.477-88-88-88H232z M272,332.188l-29.027-11.617
	c-0.216-0.085-0.444-0.086-0.664-0.152c-0.359-0.109-0.714-0.191-1.085-0.25c-0.42-0.064-0.83-0.096-1.25-0.094
	c-0.381,0-0.751,0.029-1.132,0.084c-0.401,0.06-0.786,0.146-1.173,0.266c-0.212,0.063-0.431,0.063-0.64,0.145L208,332.188V320h64
	V332.188z M304,254.883h-1.359c-3.672,0-6.875,2.5-7.762,6.063c-7.563,30.344-38.387,48.914-68.754,41.32
	c-20.402-5.086-36.238-20.914-41.324-41.32c-0.887-3.563-4.09-6.063-7.762-6.063H176c-4.403,0-7.985-3.576-8-7.739v-0.036
	c0.063-1.962,0.883-3.776,2.309-5.124c1.367-1.281,3.133-1.992,5.367-1.992c0.105,0,0.215,0.008,0.324,0.008h40
	c28.164,0,51.535-20.898,55.43-48H272v24c0,13.234,10.766,24,24,24h8c0.113,0,0.227,0,0.34-0.008
	c2.004-0.008,3.844,0.609,5.285,1.938c1.449,1.328,2.293,3.141,2.375,4.953C312,251.297,308.41,254.883,304,254.883z"/>
<path d="M94.805,387.719c-9.738-14.211-17.324-29.742-22.539-46.141l-15.25,4.844c5.691,17.898,13.965,34.836,24.594,50.344
	c37.164,54.227,97.402,83.398,158.652,83.398c37.387,0,75.16-10.883,108.262-33.563l-9.047-13.203
	C259.43,488.258,149.676,467.773,94.805,387.719z"/>
<path d="M293.582,72.266l4.836-15.25C263.164,45.828,225.641,45,189.926,54.594l4.148,15.453
	C226.844,61.25,261.25,62.023,293.582,72.266z"/>
<path d="M312,128h24v24c0,3.234,1.949,6.156,4.938,7.391C341.93,159.805,342.969,160,344,160c2.082,0,4.125-0.813,5.656-2.344
	L379.313,128H440c4.418,0,8-3.578,8-8V56c0-4.422-3.582-8-8-8H312c-4.418,0-8,3.578-8,8v64C304,124.422,307.582,128,312,128z
	 M320,64h112v48h-56c-2.121,0-4.156,0.844-5.656,2.344L352,132.688V120c0-4.422-3.582-8-8-8h-24V64z"/>
<rect x="336" y="80" width="16" height="16"/>
<rect x="368" y="80" width="16" height="16"/>
<rect x="400" y="80" width="16" height="16"/>
<path d="M293.582,128.266l4.836-15.25c-35.254-11.18-72.777-12.023-108.492-2.422l4.148,15.453
	C226.844,117.258,261.25,118.023,293.582,128.266z"/>
<path d="M437.656,362.344c-3.125-3.125-8.188-3.125-11.313,0L416,372.688l-20.426-20.426c46.022-63.752,49.848-152.18,3.036-220.769
	l-13.219,9.016c54.707,80.156,34.004,189.883-46.152,244.586c-80.152,54.703-189.879,34-244.582-46.148
	C65.688,296.5,56.719,243.703,70.047,194.078l-15.453-4.156c-14.539,54.141-4.754,111.742,26.844,158.039
	c37.137,54.406,97.496,83.711,158.871,83.703c37.266,0,74.914-10.805,107.953-33.352c1.336-0.913,2.61-1.882,3.917-2.822
	L372.688,416l-10.344,10.344c-3.125,3.125-3.125,8.188,0,11.313l48,48l11.313-11.313L379.313,432l10.344-10.344l32-32L432,379.313
	l42.344,42.344l11.313-11.313L437.656,362.344z M384,404.688l-19.122-19.122c7.513-6.423,14.416-13.339,20.711-20.664L404.688,384
	L384,404.688z"/>
<path d="M40,16c13.234,0,24,10.766,24,24v128c0,22.055,17.945,40,40,40h80c22.055,0,40-17.945,40-40c0-4.422-3.582-8-8-8h-80
	c-4.418,0-8,3.578-8,8c0,13.234-10.766,24-24,24s-24-10.766-24-24V40c0-9.04-3.128-17.294-8.205-24H144c13.234,0,24,10.766,24,24
	v104h16V40c0-22.055-17.945-40-40-40H40C17.945,0,0,17.945,0,40c0,4.422,3.582,8,8,8h40V32H17.371C20.672,22.688,29.57,16,40,16z
	 M143.195,176h63.434c-3.301,9.313-12.199,16-22.629,16h-48.02C139.48,187.344,141.992,181.906,143.195,176z"/>
<rect x="96" y="96" width="56" height="16"/>
<rect x="96" y="64" width="56" height="16"/>
<rect x="96" y="128" width="56" height="16"/>
<g>
</g>
<g>
</g>
<g>
</g>
<g>
</g>
<g>
</g>
<g>
</g>
<g>
</g>
<g>
</g>
<g>
</g>
<g>
</g>
<g>
</g>
<g>
</g>
<g>
</g>
<g>
</g>
<g>
</g>
</svg>
