<?xml version="1.0" encoding="iso-8859-1"?>
<!-- Generator: Adobe Illustrator 19.0.0, SVG Export Plug-In . SVG Version: 6.00 Build 0)  -->
<svg version="1.1" id="Capa_1" xmlns="http://www.w3.org/2000/svg" xmlns:xlink="http://www.w3.org/1999/xlink" x="0px" y="0px"
	 viewBox="0 0 424 424" style="enable-background:new 0 0 424 424;" xml:space="preserve">
<path style="fill:#5AAAE7;" d="M240,244V68c0-8.837-7.163-16-16-16H8v192H240z"/>
<g>
	<path style="fill:#1E81CE;" d="M128,52L96,20H24c-8.837,0-16,7.163-16,16v16H128z"/>
	<path style="fill:#1E81CE;" d="M240,76h16c8.837,0,16,7.163,16,16v152h-32V76z"/>
</g>
<path style="fill:#FFD422;" d="M121.6,212h216c8.837,0,16,7.163,16,16v176l0,0h-232l0,0V212L121.6,212z"/>
<g>
	<path style="fill:#E7B900;" d="M241.6,212l-32-32h-72c-8.837,0-16,7.163-16,16v16H241.6z"/>
	<path style="fill:#E7B900;" d="M360,404h24l32-152c0-8.837-7.163-16-16-16h-40V404z"/>
</g>
<polygon style="fill:#EBE5DD;" points="265.6,340 265.6,316 289.6,316 241.6,268 193.6,316 217.6,316 217.6,340 "/>
<g>
	<rect x="152" y="292" style="fill:#FFFFFF;" width="16" height="16"/>
	<path style="fill:#FFFFFF;" d="M192,372h-16c-13.234,0-24-10.766-24-24v-24h16v24c0,4.41,3.586,8,8,8h16V372z"/>
	<rect x="40" y="132" style="fill:#FFFFFF;" width="16" height="16"/>
	<path style="fill:#FFFFFF;" d="M80,212H64c-13.234,0-24-10.766-24-24v-24h16v24c0,4.41,3.586,8,8,8h16V212z"/>
</g>
<path d="M247.258,262.344c-3.125-3.125-8.188-3.125-11.313,0l-48,48c-2.289,2.289-2.977,5.727-1.734,8.719
	c1.234,2.988,4.156,4.938,7.391,4.938h16v16h16v-24c0-4.418-3.578-8-8-8h-4.688l28.688-28.688L270.289,308h-4.688
	c-4.422,0-8,3.582-8,8v24h16v-16h16c3.234,0,6.156-1.949,7.391-4.938c1.242-2.992,0.555-6.43-1.734-8.719L247.258,262.344z"/>
<path d="M16,60h208c4.414,0,8,3.59,8,8v104h16V84h8c4.414,0,8,3.59,8,8v96h16V92c0-13.234-10.766-24-24-24h-8
	c0-13.234-10.766-24-24-24h-92.688l-29.656-29.656C100.156,12.844,98.125,12,96,12H24C10.766,12,0,22.766,0,36v16v192
	c0,4.418,3.578,8,8,8h88v-16H16V60z M24,28h68.688l16,16H16v-8C16,31.59,19.586,28,24,28z"/>
<path d="M400,228h-38.4c0-13.2-10.8-24-24-24h-92.72l-29.6-29.68c-1.52-1.44-3.52-2.32-5.68-2.32h-72c-13.2,0-24,10.8-24,24v208
	c0,4.4,3.6,8,8,8H384c3.76,0,7.04-2.64,7.84-6.32l32-152c0.08-0.56,0.16-1.12,0.16-1.68C424,238.8,413.2,228,400,228z M129.6,196
	c0-4.4,3.6-8,8-8h68.72l16,16H129.6V196z M129.6,396V220h208c4.4,0,8,3.6,8,8v168H129.6z M377.52,396H361.6V244H400
	c4.16,0,7.6,3.2,8,7.28L377.52,396z"/>
<polygon points="211.07,69.699 129.646,133.423 36.531,69.406 27.469,82.594 116.438,143.76 27.07,213.699 36.93,226.301 
	130.258,153.261 155.469,170.594 164.531,157.406 143.466,142.924 220.93,82.301 "/>
<g>
</g>
<g>
</g>
<g>
</g>
<g>
</g>
<g>
</g>
<g>
</g>
<g>
</g>
<g>
</g>
<g>
</g>
<g>
</g>
<g>
</g>
<g>
</g>
<g>
</g>
<g>
</g>
<g>
</g>
</svg>
