<?xml version="1.0" encoding="iso-8859-1"?>
<!-- Generator: Adobe Illustrator 19.0.0, SVG Export Plug-In . SVG Version: 6.00 Build 0)  -->
<svg version="1.1" id="Capa_1" xmlns="http://www.w3.org/2000/svg" xmlns:xlink="http://www.w3.org/1999/xlink" x="0px" y="0px"
	 viewBox="0 0 440 440" style="enable-background:new 0 0 440 440;" xml:space="preserve">
<rect x="60" y="64" style="fill:#EBE5DD;" width="224" height="272"/>
<polygon style="fill:#D4C8B8;" points="284,112 332,112 332,384 108,384 108,336 284,336 "/>
<polygon style="fill:#B0A699;" points="332,160 380,160 380,432 156,432 156,384 332,384 "/>
<g>
	<rect x="188" y="96" style="fill:#05485A;" width="72" height="16"/>
	<rect x="164" y="152" style="fill:#05485A;" width="96" height="16"/>
	<rect x="84" y="184" style="fill:#05485A;" width="176" height="16"/>
	<rect x="84" y="216" style="fill:#05485A;" width="176" height="16"/>
	<rect x="84" y="248" style="fill:#05485A;" width="176" height="16"/>
	<rect x="84" y="288" style="fill:#05485A;" width="56" height="16"/>
	<rect x="204" y="288" style="fill:#05485A;" width="56" height="16"/>
</g>
<path style="fill:#FFD422;" d="M124,168c-13.234,0-24-10.766-24-24V32c0-17.645,14.352-32,32-32h16c17.648,0,32,14.355,32,32v8h-16
	v-8c0-8.824-7.18-16-16-16h-16c-8.82,0-16,7.176-16,16v112c0,4.41,3.586,8,8,8s8-3.59,8-8V32h16v112
	C148,157.234,137.234,168,124,168z"/>
<g>
	<path style="fill:#FFFFFF;" d="M140,288h-24c-13.234,0-24-10.766-24-24v-40h16v40c0,4.41,3.586,8,8,8h24V288z"/>
	<rect x="92" y="192" style="fill:#FFFFFF;" width="16" height="16"/>
</g>
<path d="M292,336V64c0-4.418-3.578-8-8-8H164v16h112v256H68V72h16V56H60c-4.422,0-8,3.582-8,8v272c0,4.418,3.578,8,8,8h224
	C288.422,344,292,340.418,292,336z"/>
<path d="M340,384V112c0-4.418-3.578-8-8-8h-24v16h16v256H116v-16h-16v24c0,4.418,3.578,8,8,8h224C336.422,392,340,388.418,340,384z"
	/>
<path d="M380,152h-24v16h16v256H164v-16h-16v24c0,4.418,3.578,8,8,8h224c4.422,0,8-3.582,8-8V160C388,155.582,384.422,152,380,152z"
	/>
<rect x="188" y="96" width="72" height="16"/>
<rect x="164" y="152" width="96" height="16"/>
<rect x="84" y="184" width="176" height="16"/>
<rect x="84" y="216" width="176" height="16"/>
<rect x="84" y="248" width="176" height="16"/>
<rect x="84" y="288" width="56" height="16"/>
<rect x="204" y="288" width="56" height="16"/>
<path d="M124,168c13.234,0,24-10.766,24-24V32h-16v112c0,4.41-3.586,8-8,8s-8-3.59-8-8V32c0-8.824,7.18-16,16-16h16
	c8.82,0,16,7.176,16,16v8h16v-8c0-17.645-14.352-32-32-32h-16c-17.648,0-32,14.355-32,32v112C100,157.234,110.766,168,124,168z"/>
<g>
</g>
<g>
</g>
<g>
</g>
<g>
</g>
<g>
</g>
<g>
</g>
<g>
</g>
<g>
</g>
<g>
</g>
<g>
</g>
<g>
</g>
<g>
</g>
<g>
</g>
<g>
</g>
<g>
</g>
</svg>
