<?xml version="1.0" encoding="iso-8859-1"?>
<!-- Generator: Adobe Illustrator 19.0.0, SVG Export Plug-In . SVG Version: 6.00 Build 0)  -->
<svg version="1.1" id="Capa_1" xmlns="http://www.w3.org/2000/svg" xmlns:xlink="http://www.w3.org/1999/xlink" x="0px" y="0px"
	 viewBox="0 0 480 480" style="enable-background:new 0 0 480 480;" xml:space="preserve">
<path style="fill:#FF9811;" d="M176,206.72v0.4h0.72c17.177-0.087,31.105-13.944,31.28-31.12v32c17.673,0,32-14.327,32-32v32
	c17.673,0,32-14.327,32-32c0,17.187,13.933,31.12,31.12,31.12H304v-0.4c8.836,0,16,7.164,16,16V200c0-44.183-35.817-80-80-80
	s-80,35.817-80,80v22.72C160,213.883,167.164,206.72,176,206.72z"/>
<path style="fill:#EC8600;" d="M320,256v-33.28c0,8.837-7.164,16-16,16h-1.36c-8.642,34.684-43.764,55.794-78.447,47.153
	c-23.229-5.788-41.365-23.924-47.153-47.153H176c-8.836,0-16-7.163-16-16V256h-40c0,12.59,5.928,24.446,16,32c0,0,40,48,104,48
	s104-48,104-48c10.072-7.554,16-19.41,16-32H320z"/>
<path style="fill:#FFB398;" d="M176,238.72h1.04c5.788,23.229,23.924,41.365,47.153,47.153
	c34.683,8.642,69.805-12.469,78.447-47.153H304c8.836,0,16-7.163,16-16c0-8.836-7.164-16-16-16v0.4h-0.88
	c-17.187,0-31.12-13.933-31.12-31.12c0,17.673-14.327,32-32,32v-32c0,17.673-14.327,32-32,32v-32
	c-0.175,17.176-14.103,31.033-31.28,31.12H176v-0.4c-8.836,0-16,7.164-16,16C160,231.557,167.164,238.72,176,238.72z"/>
<path style="fill:#29485A;" d="M144,352v-32c0-17.673,14.327-32,32-32h128c17.673,0,32,14.327,32,32v32H144z"/>
<g>
	<path style="fill:#FFD422;" d="M223.156,355.578l-14.313-7.156l14.594-29.18l-20.469,8.188c-2.453,0.977-5.258,0.688-7.453-0.805
		C193.32,325.137,192,322.656,192,320v-32h16v20.184l29.031-11.613c3.07-1.23,6.602-0.438,8.859,2.012
		c2.242,2.445,2.75,6.023,1.266,8.996L223.156,355.578z"/>
	<path style="fill:#FFD422;" d="M256.844,355.578l-24-48c-1.484-2.973-0.977-6.551,1.266-8.996c2.25-2.449,5.781-3.242,8.859-2.012
		L272,308.184V288h16v32c0,2.656-1.32,5.137-3.516,6.625c-2.203,1.496-5,1.789-7.453,0.805l-20.469-8.188l14.594,29.18
		L256.844,355.578z"/>
</g>
<path style="fill:#29485A;" d="M360,200h-16c0-57.348-46.656-104-104-104s-104,46.652-104,104h-16c0-66.168,53.828-120,120-120
	S360,133.832,360,200z"/>
<g>
	<path style="fill:#FFD422;" d="M136,224h-24c-8.837,0-16-7.163-16-16v-16c0-8.837,7.163-16,16-16h24V224z"/>
	<path style="fill:#FFD422;" d="M368,224h-24v-48h24c8.837,0,16,7.163,16,16v16C384,216.837,376.837,224,368,224z"/>
</g>
<path style="fill:#29485A;" d="M344,272H232v-16h112c4.414,0,8-3.59,8-8v-24h16v24C368,261.234,357.234,272,344,272z"/>
<polygon style="fill:#5AAAE7;" points="8,8 8,104 64,104 88,128 88,104 136,104 136,8 "/>
<g>
	<rect x="32" y="48" style="fill:#FFD422;" width="16" height="16"/>
	<rect x="64" y="48" style="fill:#FFD422;" width="16" height="16"/>
	<rect x="96" y="48" style="fill:#FFD422;" width="16" height="16"/>
</g>
<polygon style="fill:#F40E34;" points="472,472 472,376 416,376 392,352 392,376 344,376 344,472 "/>
<g>
	<rect x="368" y="432" style="fill:#FFD422;" width="80" height="16"/>
	<rect x="368" y="400" style="fill:#FFD422;" width="80" height="16"/>
</g>
<g>
	<rect x="184" y="192" style="fill:#FFFFFF;" width="16" height="16"/>
	<path style="fill:#FFFFFF;" d="M200,176h-16c0-22.055,17.945-40,40-40v16C210.766,152,200,162.766,200,176z"/>
</g>
<path d="M344,352v-32c0-22.055-17.945-40-40-40h-19.004c3.1-2.449,5.98-5.115,8.613-8H344c13.234,0,24-10.766,24-24v-16
	c13.234,0,24-10.766,24-24v-16c0-13.234-10.766-24-24-24h-12.464C341.482,117.341,295.077,80,240,80s-101.482,37.341-115.536,88H112
	c-13.234,0-24,10.766-24,24v16c0,13.234,10.766,24,24,24h16c4.422,0,8-3.582,8-8v-24c0-57.348,46.656-104,104-104
	s104,46.652,104,104v24c0,4.418,3.578,8,8,8v16c0,4.41-3.586,8-8,8h-39.364c1.587-3.139,3.008-6.376,4.138-9.758
	c10.541-2.139,18.521-11.227,19.113-22.242H328v-24c0-48.523-39.477-88-88-88s-88,39.477-88,88v48h-32c-4.422,0-8,3.582-8,8
	c0,15.027,7.18,29.379,19.195,38.398l9.609-12.797c-5.844-4.383-9.969-10.648-11.773-17.602H160c4.422,0,8-3.582,8-8v-10.726
	c0.944,0.336,1.888,0.677,2.883,0.894c4.534,13.571,12.96,25.189,23.883,33.832H176c-22.055,0-40,17.945-40,40v32h16v-32
	c0-13.234,10.766-24,24-24h16v24c0,2.656,1.32,5.137,3.516,6.625c2.195,1.492,5,1.781,7.453,0.805l20.469-8.188l-14.594,29.18
	l14.313,7.156L240,321.891l16.844,33.688l14.313-7.156l-14.594-29.18l20.469,8.188c2.453,0.984,5.25,0.691,7.453-0.805
	C286.68,325.137,288,322.656,288,320v-24h16c13.234,0,24,10.766,24,24v32H344z M120,216h-8c-4.414,0-8-3.59-8-8v-16
	c0-4.41,3.586-8,8-8h8V216z M360,184h8c4.414,0,8,3.59,8,8v16c0,4.41-3.586,8-8,8h-8V184z M240,128c39.703,0,72,32.301,72,72v0.193
	c-2.515-0.896-5.181-1.474-8-1.474c-0.789,0-1.555,0.129-2.273,0.359C289.625,198.359,280,188.281,280,176c0-4.418-3.578-8-8-8
	s-8,3.582-8,8c0,10.43-6.688,19.328-16,22.629V176c0-4.418-3.578-8-8-8s-8,3.582-8,8c0,10.43-6.688,19.328-16,22.629V176
	c0-4.402-3.555-7.977-7.961-8c-0.016,0-0.023,0-0.039,0c-4.383,0-7.953,3.531-8,7.922c-0.117,12.031-9.477,21.988-21.82,23.098
	c-0.695-0.195-1.422-0.301-2.18-0.301c-2.819,0-5.485,0.578-8,1.474V200C168,160.301,200.297,128,240,128z M184.805,236.785
	c-0.891-3.566-4.094-6.066-7.766-6.066H176c-4.414,0-8-3.59-8-8c0-3.918,2.828-7.188,6.555-7.871
	c0.742,0.184,1.336,0.277,2.203,0.273c8.672-0.043,16.719-2.941,23.242-7.793V208c0,4.418,3.578,8,8,8c9,0,17.313-2.988,24-8.02V208
	c0,4.418,3.578,8,8,8c13.133,0,24.813-6.367,32.109-16.172c7.156,9.293,18.398,15.293,31.008,15.293H304
	c0.602,0,1.18-0.074,1.742-0.211c3.578,0.797,6.258,3.996,6.258,7.809c0,4.41-3.586,8-8,8h-1.359c-3.672,0-6.875,2.5-7.766,6.066
	c-1.747,7.021-4.784,13.494-8.862,19.215H232v16h36.48c-12.858,7.527-27.859,9.72-42.355,6.109
	C205.727,273.027,189.891,257.191,184.805,236.785z M272,308.184l-29.031-11.613c-0.196-0.078-0.403-0.078-0.602-0.14
	c-0.397-0.124-0.789-0.218-1.2-0.279c-0.393-0.058-0.775-0.087-1.169-0.086c-0.393,0-0.774,0.028-1.167,0.086
	c-0.415,0.062-0.81,0.156-1.209,0.281c-0.195,0.061-0.398,0.061-0.59,0.137L208,308.184V296h64V308.184z"/>
<path d="M91.063,135.391C94.055,134.152,96,131.234,96,128v-16h40c4.422,0,8-3.582,8-8V8c0-4.418-3.578-8-8-8H8C3.578,0,0,3.582,0,8
	v96c0,4.418,3.578,8,8,8h52.688l21.656,21.656C83.875,135.188,85.922,136,88,136C89.031,136,90.07,135.801,91.063,135.391z M80,104
	v4.688L69.656,98.344C68.156,96.844,66.125,96,64,96H16V16h112v80H88C83.578,96,80,99.582,80,104z"/>
<rect x="32" y="48" width="16" height="16"/>
<rect x="64" y="48" width="16" height="16"/>
<rect x="96" y="48" width="16" height="16"/>
<path d="M472,368h-52.688l-21.656-21.656c-2.289-2.285-5.719-2.961-8.719-1.734C385.945,345.848,384,348.766,384,352v16h-40
	c-4.422,0-8,3.582-8,8v96c0,4.418,3.578,8,8,8h128c4.422,0,8-3.582,8-8v-96C480,371.582,476.422,368,472,368z M464,464H352v-80h40
	c4.422,0,8-3.582,8-8v-4.688l10.344,10.344c1.5,1.5,3.531,2.344,5.656,2.344h48V464z"/>
<rect x="368" y="432" width="80" height="16"/>
<rect x="368" y="400" width="80" height="16"/>
<g>
</g>
<g>
</g>
<g>
</g>
<g>
</g>
<g>
</g>
<g>
</g>
<g>
</g>
<g>
</g>
<g>
</g>
<g>
</g>
<g>
</g>
<g>
</g>
<g>
</g>
<g>
</g>
<g>
</g>
</svg>
