<?xml version="1.0" encoding="iso-8859-1"?>
<!-- Generator: Adobe Illustrator 19.0.0, SVG Export Plug-In . SVG Version: 6.00 Build 0)  -->
<svg version="1.1" id="Capa_1" xmlns="http://www.w3.org/2000/svg" xmlns:xlink="http://www.w3.org/1999/xlink" x="0px" y="0px"
	 viewBox="0 0 480 480" style="enable-background:new 0 0 480 480;" xml:space="preserve">
<path style="fill:#1E81CE;" d="M71.999,112h-48V80c0-17.673,14.327-32,32-32h40v64H71.999z"/>
<path style="fill:#5AAAE7;" d="M63.999,48c17.673,0,32,14.327,32,32v360c0,17.673,14.327,32,32,32h208V48H63.999z"/>
<path style="fill:#FFD422;" d="M423.999,96c0,10.88-17.52,18.16-21.44,27.52s3.04,27.28-4.32,34.64s-24.88,0-34.64,4.32
	s-16.72,21.52-27.6,21.52s-18.16-17.52-27.52-21.44s-27.28,3.04-34.64-4.32s0-24.88-4.32-34.64s-21.52-16.72-21.52-27.6
	s17.52-18.16,21.44-27.52s-3.04-27.28,4.32-34.64s24.88,0,34.64-4.32S325.119,8,335.999,8s18.16,17.52,27.52,21.44
	s27.28-3.04,34.64,4.32s0,24.88,4.32,34.64S423.999,85.12,423.999,96z"/>
<path style="fill:#1E81CE;" d="M359.999,472c17.673,0,32-14.327,32-32v-32h-224v32c0,17.673-14.327,32-32,32H359.999z"/>
<polygon style="fill:#F40E34;" points="247.999,152 215.999,184 247.999,184 247.999,216 279.999,184 "/>
<circle style="fill:#E7B900;" cx="335.999" cy="96" r="40"/>
<g>
	<path style="fill:#FFFFFF;" d="M315.437,52.617l-6.875-14.453c8.609-4.09,17.844-6.164,27.438-6.164v16
		C328.796,48,321.874,49.555,315.437,52.617z"/>
	<path style="fill:#FFFFFF;" d="M287.999,96h-16c0-17.34,6.82-33.578,19.211-45.715l11.203,11.43
		C293.116,70.82,287.999,82.996,287.999,96z"/>
	<path style="fill:#FFFFFF;" d="M335.999,160v-16c15.688,0,30.414-7.691,39.398-20.574l13.125,9.156
		C376.546,149.75,356.913,160,335.999,160z"/>
	<path style="fill:#FFFFFF;" d="M399.351,105.137l-15.844-2.273c0.328-2.262,0.492-4.57,0.492-6.863h16
		C399.999,99.051,399.78,102.125,399.351,105.137z"/>
</g>
<polygon style="fill:#F40E34;" points="423.999,152 455.999,184 423.999,184 423.999,216 391.999,184 "/>
<g>
	<rect x="119.999" y="328" style="fill:#FFFFFF;" width="192" height="48"/>
	<rect x="119.999" y="80" style="fill:#FFFFFF;" width="104" height="40"/>
	<rect x="119.999" y="288" style="fill:#FFFFFF;" width="192" height="16"/>
	<rect x="119.999" y="256" style="fill:#FFFFFF;" width="192" height="16"/>
	<rect x="119.999" y="224" style="fill:#FFFFFF;" width="104" height="16"/>
	<rect x="271.999" y="224" style="fill:#FFFFFF;" width="40" height="16"/>
	<rect x="119.999" y="192" style="fill:#FFFFFF;" width="64" height="16"/>
	<rect x="119.999" y="160" style="fill:#FFFFFF;" width="64" height="16"/>
</g>
<path d="M391.999,400h-224c-4.422,0-8,3.582-8,8v32c0,13.234-10.766,24-24,24h-8c-13.234,0-24-10.766-24-24V80
	c0-9.04-3.128-17.294-8.205-24h152.205V40h-192c-22.055,0-40,17.945-40,40v32c0,4.418,3.578,8,8,8h48v-16h-40V80
	c0-13.234,10.766-24,24-24h8c13.234,0,24,10.766,24,24v360c0,22.055,17.945,40,40,40h232c22.055,0,40-17.945,40-40v-32
	C399.999,403.582,396.421,400,391.999,400z M383.999,440c0,13.234-10.766,24-24,24H167.983c5.031-6.691,8.016-15.004,8.016-24v-24
	h208V440z"/>
<rect x="327.999" y="200" width="16" height="184"/>
<path d="M335.999,144c26.469,0,48-21.531,48-48s-21.531-48-48-48s-48,21.531-48,48S309.53,144,335.999,144z M335.999,64
	c17.648,0,32,14.355,32,32s-14.352,32-32,32s-32-14.355-32-32S318.351,64,335.999,64z"/>
<path d="M254.054,118.16c3.453,3.02,7.031,6.141,8.156,8.68c1.117,2.523,0.781,7.672,0.484,12.215
	c-0.547,8.523-1.172,18.18,5.492,24.84c6.719,6.723,16.664,6.148,25.422,5.629c4.453-0.258,9.461-0.551,11.781,0.414
	c2.266,0.949,5.477,4.621,8.305,7.863c5.531,6.324,12.414,14.199,22.305,14.199c9.883,0,16.695-7.793,22.164-14.055
	c3.023-3.453,6.141-7.027,8.68-8.148c2.523-1.125,7.68-0.789,12.219-0.492c8.508,0.551,18.172,1.176,24.836-5.488
	c6.727-6.727,6.141-16.66,5.625-25.422c-0.258-4.434-0.555-9.461,0.422-11.789c0.945-2.262,4.617-5.473,7.852-8.305
	c6.328-5.527,14.203-12.41,14.203-22.301c0-9.879-7.789-16.688-14.055-22.16c-3.453-3.02-7.031-6.141-8.156-8.68
	c-1.117-2.523-0.781-7.672-0.484-12.215c0.547-8.523,1.172-18.18-5.492-24.84c-6.727-6.727-16.664-6.141-25.422-5.629
	c-4.445,0.266-9.461,0.555-11.781-0.414c-2.266-0.949-5.477-4.621-8.305-7.863C352.773,7.875,345.89,0,335.999,0
	c-9.883,0-16.695,7.793-22.164,14.055c-3.023,3.453-6.141,7.027-8.68,8.148c-2.523,1.129-7.664,0.793-12.219,0.492
	c-8.492-0.543-18.164-1.168-24.836,5.488c-6.727,6.727-6.141,16.66-5.625,25.422c0.258,4.434,0.555,9.461-0.422,11.789
	c-0.945,2.262-4.617,5.473-7.852,8.305c-6.328,5.527-14.203,12.41-14.203,22.301C239.999,105.879,247.788,112.688,254.054,118.16z
	 M264.733,85.742c4.766-4.172,9.703-8.484,12.078-14.172c2.414-5.742,2.016-12.434,1.633-18.906
	c-0.266-4.586-0.68-11.52,0.969-13.168c1.547-1.535,8.148-1.113,12.492-0.832c6.695,0.434,13.617,0.875,19.734-1.828
	c5.773-2.559,10.078-7.488,14.242-12.254c3.344-3.824,7.5-8.582,10.117-8.582c2.625,0,7.039,5.047,10.258,8.73
	c4.172,4.773,8.484,9.707,14.18,12.09c5.734,2.406,12.43,2.016,18.891,1.629c4.578-0.273,11.531-0.676,13.172,0.973
	c1.547,1.539,1.117,8.129,0.836,12.488c-0.438,6.691-0.883,13.609,1.828,19.727c2.555,5.777,7.484,10.086,12.258,14.254
	c3.82,3.34,8.578,7.496,8.578,10.109c0,2.625-5.047,7.035-8.734,10.258c-4.766,4.172-9.703,8.484-12.078,14.172
	c-2.414,5.742-2.016,12.434-1.633,18.906c0.266,4.586,0.68,11.52-0.969,13.168c-1.547,1.551-8.141,1.121-12.492,0.832
	c-6.695-0.43-13.617-0.875-19.734,1.828c-5.773,2.559-10.078,7.488-14.242,12.254c-3.344,3.824-7.5,8.582-10.117,8.582
	c-2.625,0-7.039-5.047-10.258-8.73c-4.172-4.773-8.484-9.707-14.18-12.09c-3.594-1.508-7.57-1.914-11.625-1.914
	c-2.414,0-4.852,0.145-7.266,0.285c-4.586,0.27-11.531,0.68-13.172-0.973c-1.547-1.539-1.117-8.129-0.836-12.488
	c0.438-6.691,0.883-13.609-1.828-19.727c-2.555-5.777-7.484-10.086-12.258-14.254c-3.82-3.34-8.578-7.496-8.578-10.109
	C255.999,93.375,261.046,88.965,264.733,85.742z"/>
<path d="M242.343,146.344l-32,32c-2.289,2.289-2.977,5.727-1.734,8.719c1.234,2.988,4.156,4.938,7.391,4.938h24v24
	c0,3.234,1.945,6.152,4.938,7.391c0.992,0.41,2.031,0.609,3.063,0.609c2.078,0,4.125-0.813,5.656-2.344l32-32l-11.313-11.313
	l-18.344,18.344V184c0-4.418-3.578-8-8-8h-12.688l18.344-18.344L242.343,146.344z"/>
<path d="M461.655,178.344l-32-32l-11.313,11.313L436.687,176h-12.688c-4.422,0-8,3.582-8,8v12.688l-18.344-18.344l-11.313,11.313
	l32,32c1.531,1.531,3.578,2.344,5.656,2.344c1.031,0,2.07-0.199,3.063-0.609c2.992-1.238,4.938-4.156,4.938-7.391v-24h24
	c3.234,0,6.156-1.949,7.391-4.938C464.632,184.07,463.944,180.633,461.655,178.344z"/>
<path d="M127.999,320c-4.422,0-8,3.582-8,8v48c0,4.418,3.578,8,8,8h176c4.422,0,8-3.582,8-8v-48c0-4.418-3.578-8-8-8H127.999z
	 M295.999,368h-160v-32h160V368z"/>
<path d="M119.999,80v40c0,4.418,3.578,8,8,8h96v-16h-88V88h88V72h-96C123.577,72,119.999,75.582,119.999,80z"/>
<rect x="119.999" y="288" width="192" height="16"/>
<rect x="119.999" y="256" width="192" height="16"/>
<rect x="119.999" y="224" width="104" height="16"/>
<rect x="271.999" y="224" width="40" height="16"/>
<rect x="119.999" y="192" width="64" height="16"/>
<rect x="119.999" y="160" width="64" height="16"/>
<g>
</g>
<g>
</g>
<g>
</g>
<g>
</g>
<g>
</g>
<g>
</g>
<g>
</g>
<g>
</g>
<g>
</g>
<g>
</g>
<g>
</g>
<g>
</g>
<g>
</g>
<g>
</g>
<g>
</g>
</svg>
