<?xml version="1.0" encoding="iso-8859-1"?>
<!-- Generator: Adobe Illustrator 19.0.0, SVG Export Plug-In . SVG Version: 6.00 Build 0)  -->
<svg version="1.1" id="Capa_1" xmlns="http://www.w3.org/2000/svg" xmlns:xlink="http://www.w3.org/1999/xlink" x="0px" y="0px"
	 viewBox="0 0 480 480" style="enable-background:new 0 0 480 480;" xml:space="preserve">
<path style="fill:#5AAAE7;" d="M440,144h-32V8h64v104C472,129.673,457.673,144,440,144z"/>
<path style="fill:#1E81CE;" d="M408,112c0-17.673-14.327-32-32-32h-64c-17.673,0-32,14.327-32,32v32h128h32
	C422.327,144,408,129.673,408,112z"/>
<polygon style="fill:#FFD422;" points="8,360 8,232 264,232 264,200 360,200 360,232 472,232 472,360 "/>
<polygon style="fill:#1C313D;" points="200,8 200,40 72,40 72,56 216,56 216,8 "/>
<rect x="72" y="8" style="fill:#05485A;" width="128" height="32"/>
<rect x="128" y="56" style="fill:#D4C8B8;" width="32" height="24"/>
<g>
	<rect x="272" y="256" style="fill:#5AAAE7;" width="16" height="16"/>
	<rect x="272" y="288" style="fill:#5AAAE7;" width="16" height="16"/>
	<rect x="272" y="320" style="fill:#5AAAE7;" width="16" height="16"/>
	<rect x="304" y="256" style="fill:#5AAAE7;" width="16" height="16"/>
	<rect x="304" y="288" style="fill:#5AAAE7;" width="16" height="16"/>
	<rect x="304" y="320" style="fill:#5AAAE7;" width="48" height="16"/>
	<rect x="336" y="256" style="fill:#5AAAE7;" width="16" height="16"/>
	<rect x="336" y="288" style="fill:#5AAAE7;" width="16" height="16"/>
	<rect x="400" y="256" style="fill:#5AAAE7;" width="16" height="16"/>
	<rect x="400" y="288" style="fill:#5AAAE7;" width="16" height="16"/>
	<rect x="400" y="320" style="fill:#5AAAE7;" width="16" height="16"/>
	<rect x="368" y="256" style="fill:#5AAAE7;" width="16" height="16"/>
	<rect x="368" y="288" style="fill:#5AAAE7;" width="16" height="16"/>
	<rect x="368" y="320" style="fill:#5AAAE7;" width="16" height="16"/>
	<rect x="432" y="256" style="fill:#5AAAE7;" width="16" height="16"/>
	<rect x="432" y="288" style="fill:#5AAAE7;" width="16" height="48"/>
</g>
<polygon style="fill:#D4C8B8;" points="40,416 40,264 56,264 232,264 248,264 248,416 "/>
<polygon style="fill:#5EAC24;" points="208,216 208,328 80,328 80,216 80,104 208,104 "/>
<rect x="40" y="440" style="fill:#EBE5DD;" width="208" height="32"/>
<polygon style="fill:#F40E34;" points="128,352 128,368 104,368 144,408 184,368 160,368 160,352 "/>
<g>
	<path style="fill:#5AAAE7;" d="M344,80h-32c-17.673,0-32,14.327-32,32v88h64V80z"/>
	<path style="fill:#5AAAE7;" d="M344,112L344,112l0-32h32v0C358.327,80,344,94.327,344,112z"/>
</g>
<rect x="96" y="120" style="fill:#69C229;" width="96" height="192"/>
<g>
	<path style="fill:#5EAC24;" d="M176,264v16c-8.837,0-16,7.163-16,16h-16h-16c0-8.837-7.163-16-16-16v-16H176z"/>
	<circle style="fill:#5EAC24;" cx="144" cy="216" r="32"/>
	<path style="fill:#5EAC24;" d="M176,168v-16c-8.837,0-16-7.163-16-16h-16h-16c0,8.837-7.163,16-16,16v16H176z"/>
</g>
<rect x="264" y="200" style="fill:#E7B900;" width="96" height="32"/>
<g>
	<rect x="152" y="24" style="fill:#FFD422;" width="16" height="16"/>
	<rect x="120" y="24" style="fill:#FFD422;" width="16" height="16"/>
	<rect x="184" y="24" style="fill:#FFD422;" width="16" height="16"/>
</g>
<g>
	<polygon style="fill:#FFFFFF;" points="48,312 32,312 32,264 64,264 64,280 48,280 	"/>
	<rect x="104" y="240" style="fill:#FFFFFF;" width="16" height="16"/>
	<path style="fill:#FFFFFF;" d="M136,312h-8c-13.234,0-24-10.766-24-24v-8h16v8c0,4.41,3.59,8,8,8h8V312z"/>
</g>
<path d="M376,88c13.2,0,24,10.8,24,24c0,22.08,17.92,40,40,40s40-17.92,40-40V8c0-4.4-3.6-8-8-8h-64c-4.4,0-8,3.6-8,8v56h16V16h48
	v96c0,13.2-10.8,24-24,24s-24-10.8-24-24c0-22.08-17.92-40-40-40h-64c-22.08,0-40,17.92-40,40v80h-8c-4.4,0-8,3.6-8,8v24h-24v16h232
	v112H272v16h200c4.4,0,8-3.6,8-8V232c0-4.4-3.6-8-8-8H368v-24c0-4.4-3.6-8-8-8h-8v-80C352,98.8,362.8,88,376,88z M288,112
	c0-13.2,10.8-24,24-24h32c-5.04,6.72-8,15.04-8,24v80h-48V112z M352,224h-80v-16h80V224z"/>
<path d="M16,240h40v-16H8c-4.418,0-8,3.582-8,8v128c0,4.418,3.582,8,8,8h16v-16h-8V240z"/>
<path d="M72,64h48v16h16V64h16v16h16V64h48c4.418,0,8-3.582,8-8V8c0-4.418-3.582-8-8-8H72c-4.418,0-8,3.582-8,8v48
	C64,60.418,67.582,64,72,64z M80,16h128v32H80V16z"/>
<rect x="272" y="256" width="16" height="16"/>
<rect x="272" y="288" width="16" height="16"/>
<rect x="272" y="320" width="16" height="16"/>
<rect x="304" y="256" width="16" height="16"/>
<rect x="304" y="288" width="16" height="16"/>
<rect x="304" y="320" width="48" height="16"/>
<rect x="336" y="256" width="16" height="16"/>
<rect x="336" y="288" width="16" height="16"/>
<rect x="400" y="256" width="16" height="16"/>
<rect x="400" y="288" width="16" height="16"/>
<rect x="400" y="320" width="16" height="16"/>
<rect x="368" y="256" width="16" height="16"/>
<rect x="368" y="288" width="16" height="16"/>
<rect x="368" y="320" width="16" height="16"/>
<rect x="432" y="256" width="16" height="16"/>
<rect x="432" y="288" width="16" height="48"/>
<path d="M248,256h-16v16h8v144h16V264C256,259.582,252.418,256,248,256z"/>
<path d="M32,264v152h16V272h8v-16H40C35.582,256,32,259.582,32,264z"/>
<path d="M176,144c-4.41,0-8-3.59-8-8c0-4.418-3.582-8-8-8h-16h-16c-4.418,0-8,3.582-8,8c0,4.41-3.59,8-8,8c-4.418,0-8,3.582-8,8v16
	h16v-9.371c6.809-2.414,12.215-7.82,14.629-14.629H144h9.371c2.414,6.809,7.82,12.215,14.629,14.629V168h16v-16
	C184,147.582,180.418,144,176,144z"/>
<path d="M216,328V216V104c0-4.418-3.582-8-8-8H80c-4.418,0-8,3.582-8,8v112v112c0,4.418,3.582,8,8,8h128
	C212.418,336,216,332.418,216,328z M200,320H88V216V112h112v104V320z"/>
<path d="M168,273.371c-6.809,2.414-12.215,7.82-14.629,14.629H144h-9.371c-2.414-6.809-7.82-12.215-14.629-14.629V264h-16v16
	c0,4.418,3.582,8,8,8c4.41,0,8,3.59,8,8c0,4.418,3.582,8,8,8h16h16c4.418,0,8-3.582,8-8c0-4.41,3.59-8,8-8c4.418,0,8-3.582,8-8v-16
	h-16V273.371z"/>
<path d="M144,176c-22.055,0-40,17.945-40,40s17.945,40,40,40s40-17.945,40-40S166.055,176,144,176z M144,240
	c-13.234,0-24-10.766-24-24s10.766-24,24-24s24,10.766,24,24S157.234,240,144,240z"/>
<path d="M248,432H40c-4.418,0-8,3.582-8,8v32c0,4.418,3.582,8,8,8h208c4.418,0,8-3.582,8-8v-32C256,435.582,252.418,432,248,432z
	 M240,464H48v-16h192V464z"/>
<path d="M136,368v-16h-16v8h-16c-3.234,0-6.152,1.949-7.391,4.938c-1.238,2.992-0.555,6.43,1.734,8.719l40,40
	c1.563,1.563,3.609,2.344,5.656,2.344s4.094-0.781,5.656-2.344l40-40c2.289-2.289,2.973-5.727,1.734-8.719
	C190.152,361.949,187.234,360,184,360h-16v-8h-16v16c0,4.418,3.582,8,8,8h4.688L144,396.688L123.313,376H128
	C132.418,376,136,372.418,136,368z"/>
<g>
</g>
<g>
</g>
<g>
</g>
<g>
</g>
<g>
</g>
<g>
</g>
<g>
</g>
<g>
</g>
<g>
</g>
<g>
</g>
<g>
</g>
<g>
</g>
<g>
</g>
<g>
</g>
<g>
</g>
</svg>
