<?xml version="1.0" encoding="iso-8859-1"?>
<!-- Generator: Adobe Illustrator 19.0.0, SVG Export Plug-In . SVG Version: 6.00 Build 0)  -->
<svg version="1.1" id="Capa_1" xmlns="http://www.w3.org/2000/svg" xmlns:xlink="http://www.w3.org/1999/xlink" x="0px" y="0px"
	 viewBox="0 0 480 480" style="enable-background:new 0 0 480 480;" xml:space="preserve">
<path style="fill:#69C229;" d="M448,124c9.68,0,24,14.32,24,32v208c0,17.673-14.327,32-32,32H40c-17.673,0-32-14.327-32-32V156
	c0-17.673,14.327-32,32-32H448z"/>
<path style="fill:#FFB398;" d="M184,140L184,140c0.039,17.231,14.038,31.169,31.27,31.13c0.243-0.001,0.487-0.004,0.73-0.01l0,0
	v-0.4c8.837,0,16,7.163,16,16l0,0c0,8.837-7.163,16-16,16h-1.36c-8.642,34.683-43.764,55.794-78.447,47.153
	c-23.228-5.788-41.365-23.924-47.153-47.153H88c-8.837,0-16-7.163-16-16l0,0c0-8.837,7.163-16,16-16v0.4l0,0
	c17.226,0.442,31.548-13.164,31.99-30.39c0.006-0.243,0.01-0.487,0.01-0.73l0,0H184z"/>
<path style="fill:#FF9811;" d="M216,140v31.44l0,0c-17.226,0.442-31.548-13.163-31.991-30.389C184,140.701,183.997,140.35,184,140
	l0,0h-64l0,0c-0.039,17.231-14.038,31.169-31.27,31.13c-0.243-0.001-0.487-0.004-0.73-0.01V140c0,0,0-56,64-56S216,140,216,140z"/>
<polygon style="fill:#29485A;" points="184,252 184,284 168,276 168,332 152,348 136,332 136,276 120,284 120,252 88,252 88,356 
	216,356 216,252 "/>
<g>
	<path style="fill:#EBE5DD;" d="M56,284v72h32V252C70.327,252,56,266.327,56,284z"/>
	<path style="fill:#EBE5DD;" d="M216,252v104h32v-72C248,266.327,233.673,252,216,252z"/>
</g>
<g>
	<polygon style="fill:#FFD422;" points="136,276 136,332 152,348 168,332 168,276 184,284 184,252 120,252 120,284 	"/>
	<polygon style="fill:#FFD422;" points="400,220 352,220 400,172 	"/>
	<rect x="280" y="244" style="fill:#FFD422;" width="72" height="16"/>
	<rect x="368" y="244" style="fill:#FFD422;" width="80" height="16"/>
	<rect x="320" y="276" style="fill:#FFD422;" width="80" height="16"/>
	<rect x="296" y="308" style="fill:#FFD422;" width="16" height="16"/>
	<rect x="328" y="308" style="fill:#FFD422;" width="104" height="16"/>
	<rect x="296" y="340" style="fill:#FFD422;" width="16" height="16"/>
	<rect x="328" y="340" style="fill:#FFD422;" width="16" height="16"/>
	<rect x="360" y="340" style="fill:#FFD422;" width="16" height="16"/>
	<rect x="392" y="340" style="fill:#FFD422;" width="40" height="16"/>
	<polygon style="fill:#FFD422;" points="328,204 328,156 376,156 	"/>
</g>
<g>
	<path style="fill:#FFFFFF;" d="M448,204h-16v-24c0-4.414-3.59-8-8-8h-16v-16h16c13.234,0,24,10.766,24,24V204z"/>
	<rect x="432" y="220" style="fill:#FFFFFF;" width="16" height="24"/>
</g>
<path d="M448,116H240v16h208c4.773,0,16,10.133,16,24v208c0,13.234-10.766,24-24,24H40c-13.234,0-24-10.766-24-24V156
	c0-13.234,10.766-24,24-24h24v-16H40c-22.055,0-40,17.945-40,40v208c0,22.055,17.945,40,40,40h400c22.055,0,40-17.945,40-40V156
	C480,134.461,462.406,116,448,116z"/>
<path d="M64,186.719c0,11.477,8.102,21.102,18.883,23.453c4.536,13.568,12.961,25.185,23.882,33.828H88c-22.055,0-40,17.945-40,40
	v72h16v-72c0-10.416,6.708-19.213,16-22.526V356h16v-96h16v24c0,2.773,1.438,5.344,3.793,6.805c2.359,1.469,5.313,1.586,7.785,0.352
	l4.422-2.211V332c0,2.125,0.844,4.156,2.344,5.656l16,16c1.563,1.563,3.609,2.344,5.656,2.344s4.094-0.781,5.656-2.344l16-16
	c1.5-1.5,2.344-3.531,2.344-5.656v-43.055l4.422,2.211c2.48,1.234,5.422,1.117,7.785-0.352c2.355-1.461,3.793-4.031,3.793-6.805v-24
	h16v96h16v-94.526c9.292,3.313,16,12.11,16,22.526v72h16v-72c0-22.055-17.945-40-40-40h-19.005
	c11.046-8.726,19.294-20.336,23.782-33.758C231.73,208.023,240,198.32,240,186.719c0-10.416-6.708-19.213-16-22.526V140
	c0-0.641-0.824-64-72-64s-72,63.359-72,64v24.193C70.708,167.506,64,176.303,64,186.719z M176,271.055l-4.422-2.211
	c-2.477-1.234-5.426-1.109-7.785,0.352C161.438,270.656,160,273.227,160,276v52.688l-8,8l-8-8V276c0-2.773-1.438-5.344-3.793-6.805
	c-2.359-1.461-5.309-1.586-7.785-0.352L128,271.055V260h48V271.055z M152,92c54.012,0,55.957,43.063,56,48.023v21.883
	c-3.405-1.112-6.557-2.931-9.168-5.532c-1.069-1.066-2.013-2.223-2.843-3.445c-0.064-0.098-0.124-0.199-0.186-0.298
	c-0.613-0.933-1.109-1.927-1.578-2.933c-0.233-0.516-0.474-1.026-0.672-1.563c-0.227-0.6-0.386-1.223-0.563-1.842
	c-0.21-0.749-0.444-1.484-0.586-2.265c-0.236-1.326-0.402-2.671-0.405-4.045h-0.019c-0.004-2.095-0.814-4.119-2.293-5.609
	C188.184,132.852,186.137,132,184,132h-64c-4.41,0-7.988,3.57-8,7.984c-0.002,0.847-0.159,1.663-0.25,2.493
	c-0.086,0.781-0.127,1.574-0.289,2.335c-0.153,0.718-0.42,1.397-0.64,2.094c-0.232,0.738-0.423,1.491-0.729,2.2
	c-0.294,0.684-0.698,1.315-1.059,1.969c-0.367,0.664-0.691,1.349-1.123,1.976c-0.417,0.606-0.938,1.147-1.416,1.716
	c-0.502,0.598-0.967,1.22-1.534,1.771c-1.167,1.135-2.436,2.128-3.792,2.981c-0.3,0.19-0.623,0.333-0.93,0.508
	c-1.199,0.678-2.45,1.265-3.769,1.72c-0.157,0.055-0.313,0.107-0.471,0.159V140C96,138.039,96.637,92,152,92z M86.219,178.922
	c0.508,0.109,1.035,0.18,1.574,0.195c0.02,0,0.039-0.005,0.058-0.004c0.22,0.013,0.859,0.02,0.954,0.02
	c1.203,0,2.359-0.238,3.543-0.345c1.218-0.109,2.451-0.135,3.642-0.355c1.301-0.24,2.535-0.676,3.797-1.045
	c1.181-0.345,2.383-0.609,3.522-1.064c1.214-0.484,2.336-1.154,3.497-1.759c1.091-0.569,2.213-1.061,3.252-1.735
	c1.094-0.71,2.075-1.596,3.102-2.419c0.874-0.7,1.819-1.28,2.641-2.06c0.115-0.109,0.193-0.244,0.307-0.354
	c0.109-0.106,0.241-0.178,0.35-0.286c1.527-1.519,2.877-3.163,4.117-4.875c0.328-0.453,0.591-0.937,0.898-1.401
	c0.978-1.48,1.853-3.009,2.616-4.599c0.305-0.636,0.597-1.269,0.867-1.92c0.71-1.713,1.291-3.472,1.75-5.276
	c0.111-0.435,0.272-0.849,0.368-1.288c0.026-0.119,0.075-0.231,0.1-0.351h49.594c3.621,17.992,19.559,31.445,38.414,31.445
	c0.34,0,0.684,0,1.027-0.008c0.646-0.018,1.216-0.25,1.814-0.411c3.426,0.902,5.979,3.985,5.979,7.692c0,4.414-3.59,8-8,8h-1.359
	c-3.672,0-6.875,2.5-7.762,6.063c-3.664,14.703-12.832,27.102-25.816,34.906s-28.23,10.094-42.938,6.422
	c-20.402-5.086-36.238-20.922-41.324-41.328c-0.887-3.563-4.09-6.063-7.762-6.063H88c-4.41,0-8-3.586-8-8
	C80,182.922,82.664,179.727,86.219,178.922z"/>
<g>
	<path style="fill:#FFFFFF;" d="M88,372H64c-13.234,0-24-10.766-24-24v-24h16v24c0,4.414,3.59,8,8,8h24V372z"/>
	<rect x="40" y="292" style="fill:#FFFFFF;" width="16" height="16"/>
</g>
<path d="M403.063,164.609c-3-1.258-6.434-0.563-8.719,1.734l-48,48c-2.289,2.289-2.973,5.727-1.734,8.719S348.766,228,352,228h48
	c4.418,0,8-3.578,8-8v-48C408,168.766,406.051,165.844,403.063,164.609z M392,212h-20.688L392,191.313V212z"/>
<rect x="280" y="244" width="72" height="16"/>
<rect x="368" y="244" width="80" height="16"/>
<rect x="320" y="276" width="80" height="16"/>
<rect x="296" y="308" width="16" height="16"/>
<rect x="328" y="308" width="104" height="16"/>
<rect x="296" y="340" width="16" height="16"/>
<rect x="328" y="340" width="16" height="16"/>
<rect x="360" y="340" width="16" height="16"/>
<rect x="392" y="340" width="40" height="16"/>
<path d="M376,148h-48c-4.418,0-8,3.578-8,8v48c0,3.234,1.949,6.156,4.938,7.391C325.93,211.805,326.969,212,328,212
	c2.082,0,4.125-0.813,5.656-2.344l48-48c2.289-2.289,2.973-5.727,1.734-8.719S379.234,148,376,148z M336,184.688V164h20.688
	L336,184.688z"/>
<g>
</g>
<g>
</g>
<g>
</g>
<g>
</g>
<g>
</g>
<g>
</g>
<g>
</g>
<g>
</g>
<g>
</g>
<g>
</g>
<g>
</g>
<g>
</g>
<g>
</g>
<g>
</g>
<g>
</g>
</svg>
