<?xml version="1.0" encoding="iso-8859-1"?>
<!-- Generator: Adobe Illustrator 19.0.0, SVG Export Plug-In . SVG Version: 6.00 Build 0)  -->
<svg version="1.1" id="Capa_1" xmlns="http://www.w3.org/2000/svg" xmlns:xlink="http://www.w3.org/1999/xlink" x="0px" y="0px"
	 viewBox="0 0 480 480" style="enable-background:new 0 0 480 480;" xml:space="preserve">
<path style="fill:#5AAAE7;" d="M408,24H72c-17.673,0-32,14.327-32,32v112h400V56C440,38.327,425.673,24,408,24z"/>
<path style="fill:#EBE5DD;" d="M40,440c0,17.673,14.327,32,32,32h336c17.673,0,32-14.327,32-32V168H40V440z"/>
<path style="fill:#D4C8B8;" d="M408,192H72c-4.418,0-8,3.578-8,8v240c0,4.422,3.582,8,8,8h336c4.418,0,8-3.578,8-8V200
	C416,195.578,412.418,192,408,192z M400,240h-32v-32h32V240z M176,304h32v32h-32V304z M160,336h-32v-32h32V336z M256,288h-32v-32h32
	V288z M272,256h32v32h-32V256z M256,304v32h-32v-32H256z M208,288h-32v-32h32V288z M208,352v32h-32v-32H208z M224,352h32v32h-32V352
	z M272,352h32v32h-32V352z M272,336v-32h32v32H272z M320,304h32v32h-32V304z M320,288v-32h32v32H320z M320,240v-32h32v32H320z
	 M304,240h-32v-32h32V240z M256,240h-32v-32h32V240z M208,240h-32v-32h32V240z M160,240h-32v-32h32V240z M160,256v32h-32v-32H160z
	 M112,288H80v-32h32V288z M112,304v32H80v-32H112z M112,352v32H80v-32H112z M128,352h32v32h-32V352z M160,400v32h-32v-32H160z
	 M176,400h32v32h-32V400z M224,400h32v32h-32V400z M272,400h32v32h-32V400z M320,400h32v32h-32V400z M320,384v-32h32v32H320z
	 M368,352h32v32h-32V352z M368,336v-32h32v32H368z M368,288v-32h32v32H368z M112,208v32H80v-32H112z M80,400h32v32H80V400z M368,432
	v-32h32v32H368z"/>
<g>
	<rect x="88" style="fill:#FFD422;" width="16" height="48"/>
	<rect x="136" style="fill:#FFD422;" width="16" height="48"/>
	<rect x="184" style="fill:#FFD422;" width="16" height="48"/>
	<rect x="232" style="fill:#FFD422;" width="16" height="48"/>
	<rect x="280" style="fill:#FFD422;" width="16" height="48"/>
	<rect x="328" style="fill:#FFD422;" width="16" height="48"/>
	<rect x="376" style="fill:#FFD422;" width="16" height="48"/>
	<rect x="344" y="72" style="fill:#FFD422;" width="64" height="64"/>
</g>
<g>
	<rect x="64" y="80" style="fill:#1E81CE;" width="136" height="16"/>
	<rect x="216" y="80" style="fill:#1E81CE;" width="104" height="16"/>
	<rect x="64" y="112" style="fill:#1E81CE;" width="136" height="16"/>
	<rect x="216" y="112" style="fill:#1E81CE;" width="104" height="16"/>
</g>
<g>
	
		<rect x="254.055" y="311.99" transform="matrix(-0.7071 0.7071 -0.7071 -0.7071 717.9065 342.614)" style="fill:#F40E34;" width="67.88" height="16"/>
	
		<rect x="302.061" y="311.969" transform="matrix(-0.7071 0.7071 -0.7071 -0.7071 799.8416 308.6329)" style="fill:#F40E34;" width="67.88" height="16"/>
	
		<rect x="351.715" y="316.007" transform="matrix(-0.7071 0.7071 -0.7071 -0.7071 877.8005 284.4182)" style="fill:#F40E34;" width="56.56" height="16"/>
	
		<rect x="71.713" y="356.043" transform="matrix(-0.7071 0.7071 -0.7071 -0.7071 428.1156 550.7541)" style="fill:#F40E34;" width="56.56" height="16"/>
	
		<rect x="110.085" y="359.995" transform="matrix(-0.7071 0.7071 -0.7071 -0.7071 506.0782 526.3665)" style="fill:#F40E34;" width="67.88" height="16"/>
</g>
<path d="M408,16h-16V0h-16v16h-32V0h-16v16h-32V0h-16v16h-32V0h-16v16h-32V0h-16v16h-32V0h-16v16h-32V0H88v16H72
	c-22.055,0-40,17.945-40,40v384c0,22.055,17.945,40,40,40h336c22.055,0,40-17.945,40-40V56C448,33.945,430.055,16,408,16z M72,32h16
	v16h16V32h32v16h16V32h32v16h16V32h32v16h16V32h32v16h16V32h32v16h16V32h32v16h16V32h16c13.234,0,24,10.766,24,24v104H48V56
	C48,42.766,58.766,32,72,32z M408,464H72c-13.234,0-24-10.766-24-24V176h384v264C432,453.234,421.234,464,408,464z"/>
<path d="M408,192H72c-4.418,0-8,3.578-8,8v240c0,4.422,3.582,8,8,8h336c4.418,0,8-3.578,8-8V200C416,195.578,412.418,192,408,192z
	 M400,240h-32v-32h32V240z M256,336h-32v-32h32V336z M272,304h20.688L272,324.688V304z M304,315.313V336h-20.688L304,315.313z
	 M320,304h20.688L320,324.688V304z M272,288v-32h32v32H272z M256,288h-32v-32h32V288z M208,288h-32v-32h32V288z M208,304v32h-32v-32
	H208z M160,336h-32v-32h32V336z M148.688,352L128,372.688V352H148.688z M160,363.313V384h-20.688L160,363.313z M176,352h32v32h-32
	V352z M224,352h32v32h-32V352z M272,352h32v32h-32V352z M352,315.313V336h-20.688L352,315.313z M368,304h20.688L368,324.688V304z
	 M320,288v-32h32v32H320z M320,240v-32h32v32H320z M304,240h-32v-32h32V240z M256,240h-32v-32h32V240z M208,240h-32v-32h32V240z
	 M160,240h-32v-32h32V240z M160,256v32h-32v-32H160z M112,288H80v-32h32V288z M112,304v32H80v-32H112z M100.688,352L80,372.688V352
	H100.688z M112,363.313V384H91.313L112,363.313z M160,400v32h-32v-32H160z M176,400h32v32h-32V400z M224,400h32v32h-32V400z
	 M272,400h32v32h-32V400z M320,400h32v32h-32V400z M320,384v-32h32v32H320z M368,352h32v32h-32V352z M379.313,336L400,315.313V336
	H379.313z M368,288v-32h32v32H368z M112,208v32H80v-32H112z M80,400h32v32H80V400z M368,432v-32h32v32H368z"/>
<path d="M344,144h64c4.418,0,8-3.578,8-8V72c0-4.422-3.582-8-8-8h-64c-4.418,0-8,3.578-8,8v64C336,140.422,339.582,144,344,144z
	 M352,80h48v48h-48V80z"/>
<rect x="64" y="80" width="136" height="16"/>
<rect x="216" y="80" width="104" height="16"/>
<rect x="64" y="112" width="136" height="16"/>
<rect x="216" y="112" width="104" height="16"/>
<g>
	<path style="fill:#FFFFFF;" d="M88,136H72V96c0-13.234,10.766-24,24-24h24v16H96c-4.41,0-8,3.586-8,8V136z"/>
	<rect x="72" y="160" style="fill:#FFFFFF;" width="16" height="16"/>
</g>
<g>
</g>
<g>
</g>
<g>
</g>
<g>
</g>
<g>
</g>
<g>
</g>
<g>
</g>
<g>
</g>
<g>
</g>
<g>
</g>
<g>
</g>
<g>
</g>
<g>
</g>
<g>
</g>
<g>
</g>
</svg>
