<?xml version="1.0" encoding="iso-8859-1"?>
<!-- Generator: Adobe Illustrator 19.0.0, SVG Export Plug-In . SVG Version: 6.00 Build 0)  -->
<svg version="1.1" id="Capa_1" xmlns="http://www.w3.org/2000/svg" xmlns:xlink="http://www.w3.org/1999/xlink" x="0px" y="0px"
	 viewBox="0 0 480 480" style="enable-background:new 0 0 480 480;" xml:space="preserve">
<path style="fill:#FFD422;" d="M240,8c-57.438,0-104,46.563-104,104v112h24v-88v-0.8V112c0-44.183,35.817-80,80-80s80,35.817,80,80
	v24v88h24V112C344,54.563,297.438,8,240,8z"/>
<g>
	<path style="fill:#E7B900;" d="M304,152h-1.2c-9.514,34.684-45.343,55.087-80.027,45.573c-22.17-6.082-39.491-23.402-45.573-45.573
		H176c-8.836,0-16-7.164-16-16v88h160v-88C320,144.836,312.836,152,304,152z"/>
	<path style="fill:#E7B900;" d="M274.697,40H272c0,30.928-25.072,56-56,56h-40c-0.165-0.007-0.329-0.011-0.494-0.013
		c-8.251-0.079-14.994,6.38-15.432,14.539C160.065,111.021,160,111.502,160,112v23.2c0.081-8.482,7.023-15.293,15.506-15.212
		c0.165,0.001,0.33,0.006,0.494,0.013h40c30.928,0,56-25.072,56-56h16V48.109C283.856,44.991,279.411,42.276,274.697,40z"/>
	<path style="fill:#E7B900;" d="M304,96c-8.836,0-16-7.164-16-16v24c0,8.836,7.164,16,16,16s16,7.163,16,16v-24
		C320,103.163,312.836,96,304,96z"/>
</g>
<g>
	<path style="fill:#FBC900;" d="M288,48.109V64v16c0,8.836,7.164,16,16,16s16,7.163,16,16C320,85.853,307.398,62.707,288,48.109z"/>
	<path style="fill:#FBC900;" d="M175.506,95.987c0.165,0.001,0.33,0.006,0.494,0.013h40c30.928,0,56-25.072,56-56h2.697
		c-10.507-5.074-22.247-8-34.697-8c-43.685,0-79.132,35.03-79.926,78.526C160.512,102.367,167.254,95.909,175.506,95.987z"/>
</g>
<rect x="192" y="176" style="fill:#FE946F;" width="96" height="48"/>
<path style="fill:#29485A;" d="M168,264l-24-40h-32c-17.673,0-32,14.327-32,32v32l16,16L80,472h112l-48-208H168z"/>
<g>
	<polygon style="fill:#065F77;" points="144,224 168,264 144,264 192,472 192,224 	"/>
	<polygon style="fill:#065F77;" points="312,264 336,224 288,224 288,472 336,264 	"/>
</g>
<rect x="192" y="224" style="fill:#EBE5DD;" width="96" height="248"/>
<path style="fill:#29485A;" d="M400,256c0-17.673-14.327-32-32-32h-32l-24,40h24l-48,208h112l-16-168l16-16V256z"/>
<g>
	<path style="fill:#FFFFFF;" d="M218.707,43.688l-5.414-15.055c8.605-3.098,17.523-4.898,26.727-4.633l-0.039,16
		c-0.051,0-0.102,0-0.148,0C232.617,40,225.512,41.242,218.707,43.688z"/>
	<path style="fill:#FFFFFF;" d="M160,104.016c-0.023-12.281,2.871-24.586,8.363-35.59c4.875-9.816,11.605-18.402,19.988-25.496
		l10.336,12.219c-6.711,5.676-12.094,12.543-16.004,20.41c-4.391,8.801-6.699,18.625-6.684,28.426L160,104.016z"/>
</g>
<g>
	<path style="fill:#F40E34;" d="M248.02,368.57l-8-112c-0.164-2.316,0.684-4.586,2.324-6.227l8-8
		c2.809-2.813,7.27-3.137,10.457-0.742l32,24l-9.602,12.797l-26.449-19.836l-0.512,0.512l7.742,108.355L248.02,368.57z"/>
	<path style="fill:#F40E34;" d="M231.98,368.57l-15.961-1.141l7.742-108.355l-0.512-0.512l-26.449,19.836l-9.602-12.797l32-24
		c3.188-2.395,7.645-2.07,10.457,0.742l8,8c1.641,1.641,2.488,3.91,2.324,6.227L231.98,368.57z"/>
</g>
<path style="fill:#FFB398;" d="M176,152h1.2c6.082,22.17,23.402,39.491,45.573,45.573c34.684,9.514,70.513-10.889,80.027-45.573h1.2
	c8.836,0,16-7.164,16-16c0-8.837-7.164-16-16-16s-16-7.164-16-16V64h-16c0,30.928-25.072,56-56,56h-40
	c-0.165-0.007-0.329-0.011-0.494-0.013c-8.482-0.081-15.425,6.73-15.506,15.212v0.8C160,144.836,167.164,152,176,152z"/>
<g>
	<path style="fill:#065F77;" d="M128.07,473.059l-16-120c-0.184-1.363-0.008-2.754,0.5-4.031l16-40l14.859,5.945l-15.223,38.051
		l15.723,117.918L128.07,473.059z"/>
	<path style="fill:#065F77;" d="M351.93,473.059l-15.859-2.117l15.723-117.918l-15.223-38.051l14.859-5.945l16,40
		c0.508,1.277,0.684,2.668,0.5,4.031L351.93,473.059z"/>
</g>
<path d="M408,288v-32c0-22.055-17.945-40-40-40h-16V112C352,50.242,301.758,0,240,0S128,50.242,128,112v104h-16
	c-22.055,0-40,17.945-40,40v32c0,2.121,0.844,4.156,2.344,5.656l13.336,13.336l-15.645,164.25c-0.211,2.242,0.531,4.473,2.047,6.141
	S77.746,480,80,480h320c2.254,0,4.402-0.949,5.918-2.617s2.258-3.898,2.047-6.141l-15.645-164.25l13.336-13.336
	C407.156,292.156,408,290.121,408,288z M143.004,464l-14.797-110.977l15.223-38.051l-14.859-5.945l-16,40
	c-0.508,1.277-0.684,2.668-0.5,4.031L126.862,464H88.797l15.168-159.242c0.227-2.375-0.621-4.727-2.309-6.414L88,284.688V256
	c0-13.234,10.766-24,24-24h27.47l14.401,24H144c-2.438,0-4.742,1.113-6.262,3.02c-1.516,1.906-2.082,4.402-1.535,6.781L181.941,464
	H143.004z M184,401.752L154.055,272H168c2.883,0,5.543-1.551,6.961-4.059c1.422-2.508,1.383-5.586-0.102-8.059L158.13,232H184
	V401.752z M184,216h-40V112c0-52.934,43.066-96,96-96s96,43.066,96,96v104h-40v-34.468c5.387-6.429,9.844-13.756,12.809-22.017
	C319.746,157.281,328,147.586,328,136c0-13.234-10.766-24-24-24c-4.41,0-8-3.59-8-8V64c0-4.418-3.582-8-8-8h-16
	c-4.418,0-8,3.582-8,8c0,26.469-21.531,48-48,48l-40.414-0.012c-12.551-0.242-23.461,10.25-23.586,23.211V136
	c0,11.59,8.258,21.285,19.195,23.516c2.943,8.158,7.327,15.633,12.805,22.162V216z M280,256.001l-19.199-14.399
	c-3.188-2.395-7.648-2.07-10.457,0.742l-8,8c-1.641,1.641-2.488,3.91-2.324,6.227l8,112l15.961-1.141l-7.742-108.355l0.512-0.512
	L280,275.999V464h-80V275.999l23.25-17.437l0.512,0.512L216.02,367.43l15.961,1.141l8-112c0.164-2.316-0.684-4.586-2.324-6.227l-8-8
	c-2.813-2.813-7.27-3.137-10.457-0.742L200,256.001V232h80V256.001z M200,216v-20.204c6.304,4.149,13.211,7.451,20.656,9.493
	c3.78,1.037,7.566,1.664,11.344,2.081V216H200z M280,216h-32v-8.723c11.518-1.288,22.455-5.24,32-11.489V216z M224.891,189.859
	c-19.352-5.309-34.668-20.625-39.977-39.977c-0.953-3.473-4.113-5.883-7.715-5.883H176c-4.41,0-8-3.59-8-8v-0.723
	c0.039-4.027,3.32-7.277,7.891-7.277c0.039,0,0.074,0,0.109,0h40c32.578,0,59.551-24.473,63.504-56H280v32c0,13.234,10.766,24,24,24
	c4.41,0,8,3.59,8,8s-3.59,8-8,8h-1.199c-3.602,0-6.762,2.41-7.715,5.883C286.754,180.258,255.281,198.199,224.891,189.859z M296,232
	h25.87l-16.729,27.883c-1.484,2.473-1.523,5.551-0.102,8.059c1.418,2.508,4.078,4.059,6.961,4.059h13.945L296,401.752V232z
	 M392,284.688l-13.656,13.656c-1.688,1.688-2.535,4.039-2.309,6.414L391.203,464h-38.065l14.792-110.941
	c0.184-1.363,0.008-2.754-0.5-4.031l-16-40l-14.859,5.945l15.223,38.051L336.996,464h-38.937l45.738-198.199
	c0.547-2.379-0.02-4.875-1.535-6.781c-1.52-1.906-3.824-3.02-6.262-3.02h-9.871l14.401-24H368c13.234,0,24,10.766,24,24V284.688z"/>
<path d="M239.832,40c0.047,0,0.098,0,0.148,0l0.039-16c-9.203-0.266-18.121,1.535-26.727,4.633l5.414,15.055
	C225.512,41.242,232.617,40,239.832,40z"/>
<path d="M182.684,75.559c3.91-7.867,9.293-14.734,16.004-20.41L188.352,42.93c-8.383,7.094-15.113,15.68-19.988,25.496
	c-5.492,11.004-8.387,23.309-8.363,35.59l16-0.031C175.984,94.184,178.293,84.359,182.684,75.559z"/>
<g>
</g>
<g>
</g>
<g>
</g>
<g>
</g>
<g>
</g>
<g>
</g>
<g>
</g>
<g>
</g>
<g>
</g>
<g>
</g>
<g>
</g>
<g>
</g>
<g>
</g>
<g>
</g>
<g>
</g>
</svg>
