<?xml version="1.0" encoding="iso-8859-1"?>
<!-- Generator: Adobe Illustrator 19.0.0, SVG Export Plug-In . SVG Version: 6.00 Build 0)  -->
<svg version="1.1" id="Capa_1" xmlns="http://www.w3.org/2000/svg" xmlns:xlink="http://www.w3.org/1999/xlink" x="0px" y="0px"
	 viewBox="0 0 480 480" style="enable-background:new 0 0 480 480;" xml:space="preserve">
<path style="fill:#29485A;" d="M168,264l-24-40h-32c-17.673,0-32,14.327-32,32v216h112l-48-208H168z"/>
<polygon style="fill:#065F77;" points="192,224 144,224 168,264 144,264 192,472 192,272 "/>
<polygon style="fill:#F40E34;" points="224,256 224,264 224,424 240,440 256,424 256,264 256,256 288,272 288,224 192,224 192,272 
	"/>
<path style="fill:#29485A;" d="M368,224h-32l-24,40h24l-48,208h112V256C400,238.327,385.673,224,368,224z"/>
<polygon style="fill:#065F77;" points="312,264 336,224 288,224 288,272 288,472 336,264 "/>
<polygon style="fill:#EBE5DD;" points="256,256 256,264 256,424 240,440 224,424 224,264 224,256 192,272 192,472 288,472 288,272 
	"/>
<rect x="192" y="176" style="fill:#FE946F;" width="96" height="48"/>
<g>
	<rect x="128" y="320" style="fill:#065F77;" width="16" height="152"/>
	<rect x="336" y="320" style="fill:#065F77;" width="16" height="152"/>
</g>
<path style="fill:#FFB398;" d="M304,119.04c8.837,0,16,7.163,16,16l0,0c0,8.837-7.163,16-16,16h-1.36
	c-8.642,34.683-43.764,55.794-78.447,47.153c-23.228-5.788-41.365-23.924-47.153-47.153H176c-8.837,0-16-7.163-16-16l0,0
	c0-8.837,7.163-16,16-16V56h128V119.04z"/>
<g>
	<path style="fill:#693B00;" d="M304,96l24-24v-8c0-4.437-0.907-8.66-2.539-12.501L304,72.96V96z"/>
	<path style="fill:#693B00;" d="M272,64.96v-16l-8-8c-16.168,33.997-50.355,55.752-88,56V120c37.645-0.248,71.832-22.003,88-56l8,8
		v16c0.519,17.297,14.695,31.048,32,31.04V96C286.695,96.008,272.519,82.257,272,64.96z"/>
	<path style="fill:#693B00;" d="M147.917,56H144v8c0,17.673,14.327,32,32,32V72.96C163.795,72.96,153.314,66.049,147.917,56z"/>
</g>
<path style="fill:#884D00;" d="M296,32h-24v-8c0-8.837-7.164-16-16-16h-32c-26.51,0-48,21.49-48,48h-28.083
	c5.397,10.049,15.878,16.96,28.083,16.96V96v0.96c37.645-0.248,71.832-22.003,88-56l8,8v16c0.519,17.297,14.695,31.048,32,31.04
	V72.96l21.461-21.461C320.592,40.039,309.237,32,296,32z"/>
<g>
	<path style="fill:#FFFFFF;" d="M184,104l-0.023-16c3.316-0.02,13.809-1.098,18.367-5.656l11.313,11.313
		C203.605,103.711,185.977,104,184,104z"/>
	<path style="fill:#FFFFFF;" d="M200,56h-16c0-22.055,17.945-40,40-40v16C210.766,32,200,42.766,200,56z"/>
	<path style="fill:#FFFFFF;" d="M320,64h-16c0-4.41-3.59-8-8-8V40C309.234,40,320,50.766,320,64z"/>
	
		<rect x="214.348" y="68.016" transform="matrix(-0.7071 0.7071 -0.7071 -0.7071 429.322 -25.7987)" style="fill:#FFFFFF;" width="11.312" height="16"/>
</g>
<path d="M368,216h-72v-34.401c5.589-6.783,9.939-14.545,12.777-23.036C319.73,156.34,328,146.637,328,135.039
	c0-10.416-6.708-19.213-16-22.526V99.313l21.656-21.656c1.5-1.5,2.344-3.535,2.344-5.656v-8c0-22.055-17.945-40-40-40h-16
	c0-13.234-10.766-24-24-24h-32c-28.164,0-51.535,20.898-55.43,48H144c-4.418,0-8,3.582-8,8v8c0,19.316,13.766,35.48,32,39.195v9.318
	c-9.292,3.313-16,12.11-16,22.526c0,11.477,8.098,21.098,18.883,23.449c2.909,8.707,7.398,16.639,13.117,23.497V216h-72
	c-22.055,0-40,17.945-40,40v216c0,4.418,3.582,8,8,8h320c4.418,0,8-3.582,8-8V256C408,233.945,390.055,216,368,216z
	 M305.039,267.941c1.418,2.508,4.078,4.059,6.961,4.059h13.945L296,401.752V232h25.87l-16.729,27.883
	C303.656,262.355,303.617,265.434,305.039,267.941z M174.859,259.883L158.13,232H184v169.752L154.055,272H168
	c2.883,0,5.543-1.551,6.961-4.059C176.383,265.434,176.344,262.355,174.859,259.883z M280,232v27.055l-20.422-10.211
	c-2.477-1.234-5.426-1.105-7.785,0.352C249.438,250.652,248,253.227,248,256v164.688l-8,8l-8-8V256c0-2.773-1.438-5.348-3.793-6.805
	c-2.359-1.457-5.309-1.586-7.785-0.352L200,259.055V232H280z M200,276.945l16-8V424c0,2.121,0.844,4.156,2.344,5.656l16,16
	c1.563,1.563,3.609,2.344,5.656,2.344s4.094-0.781,5.656-2.344l16-16c1.5-1.5,2.344-3.535,2.344-5.656V268.945l16,8V464h-80V276.945
	z M152,64h24c4.418,0,8-3.582,8-8c0-22.055,17.945-40,40-40h32c4.41,0,8,3.59,8,8v8c0,4.418,3.582,8,8,8h24
	c13.234,0,24,10.766,24,24v4.688l-21.656,21.656c-1.5,1.5-2.344,3.535-2.344,5.656v13.703c-9.129-3.172-15.695-11.637-16-21.703V72
	c0-2.121-0.844-4.156-2.344-5.656l-8-8c-1.84-1.84-4.465-2.68-7.016-2.227c-2.563,0.441-4.75,2.098-5.863,4.445
	c-13.594,28.582-41.594,47.969-72.777,51.02V96c0-4.418-3.582-8-8-8C162.766,88,152,77.234,152,64z M177.039,143.039H176
	c-4.41,0-8-3.59-8-8c0-3.56,2.38-6.479,5.601-7.514c0.777,0.248,1.568,0.475,2.399,0.475c0.016,0,0.035,0,0.051,0
	c35.508-0.23,68.637-18.586,87.949-47.781l0.004,8.02c0.652,21.762,18.211,38.801,39.98,38.801c0.003,0,0.011,0,0.016,0
	c4.41,0,8,3.59,8,8s-3.59,8-8,8h-1.359c-3.672,0-6.875,2.5-7.762,6.066c-3.664,14.699-12.832,27.094-25.816,34.902
	c-12.988,7.805-28.242,10.07-42.938,6.422c-20.402-5.082-36.238-20.918-41.324-41.324
	C183.914,145.539,180.711,143.039,177.039,143.039z M200,196.099c6.729,4.41,14.177,7.841,22.258,9.854
	c5.871,1.465,11.813,2.188,17.715,2.188c13.031,0,25.871-3.531,37.332-10.422c0.93-0.559,1.796-1.19,2.695-1.785V216h-80V196.099z
	 M88,256c0-13.234,10.766-24,24-24h27.47l14.401,24H144c-2.438,0-4.742,1.113-6.262,3.02c-1.516,1.906-2.082,4.402-1.535,6.781
	L181.941,464H144V320h-16v144H88V256z M392,464h-40V320h-16v144h-37.941l45.738-198.199c0.547-2.379-0.02-4.875-1.535-6.781
	c-1.52-1.906-3.824-3.02-6.262-3.02h-9.871l14.401-24H368c13.234,0,24,10.766,24,24V464z"/>
<g>
</g>
<g>
</g>
<g>
</g>
<g>
</g>
<g>
</g>
<g>
</g>
<g>
</g>
<g>
</g>
<g>
</g>
<g>
</g>
<g>
</g>
<g>
</g>
<g>
</g>
<g>
</g>
<g>
</g>
</svg>
