<?xml version="1.0" encoding="iso-8859-1"?>
<!-- Generator: Adobe Illustrator 19.0.0, SVG Export Plug-In . SVG Version: 6.00 Build 0)  -->
<svg version="1.1" id="Capa_1" xmlns="http://www.w3.org/2000/svg" xmlns:xlink="http://www.w3.org/1999/xlink" x="0px" y="0px"
	 viewBox="0 0 496 496" style="enable-background:new 0 0 496 496;" xml:space="preserve">
<rect x="56" y="224" style="fill:#ECECEC;" width="384" height="264"/>
<rect x="56" y="224" style="fill:#B6C1CE;" width="384" height="48"/>
<rect x="40" y="216" style="fill:#48C397;" width="416" height="32"/>
<rect x="136" y="24" style="fill:#ECECEC;" width="224" height="464"/>
<g>
	<rect x="136" y="328" style="fill:#B6C1CE;" width="224" height="40"/>
	<rect x="136" y="24" style="fill:#B6C1CE;" width="224" height="40"/>
</g>
<g>
	<rect x="120" y="312" style="fill:#48C397;" width="256" height="32"/>
	<rect x="120" y="8" style="fill:#48C397;" width="256" height="32"/>
</g>
<rect x="184" y="376" style="fill:#39C3FC;" width="128" height="112"/>
<circle style="fill:#FEA82F;" cx="248" cy="152" r="80"/>
<path style="fill:#FF8031;" d="M248,208c-40.096,0-73.2-29.528-79-68c-0.592,3.928-1,7.912-1,12c0,44.184,35.816,80,80,80
	s80-35.816,80-80c0-4.088-0.408-8.072-1-12C321.2,178.472,288.096,208,248,208z"/>
<rect x="184" y="464" style="fill:#148CE0;" width="128" height="24"/>
<path d="M368,48h16V0H112v48h16v160H32v48h16v224H32v16h432v-16h-16V256h16v-48h-96V48z M336,336v16h16v128h-32v-96h16v-16H160v16
	h16v96h-32V352h176v-16H128v-16h240v16H336z M240,384v96h-48v-96H240z M256,384h48v96h-48V384z M320,48V32H128V16h240v16h-32v16h16
	v256H144V48H320z M64,256h48v-16H48v-16h80v80h-16v48h16v128H64V256z M448,224v16h-64v16h48v224h-64V352h16v-48h-16v-80H448z"/>
<path d="M240,128h16c4.408,0,8,3.584,8,8h16c0-13.232-10.768-24-24-24V96h-16v16c-13.232,0-24,10.768-24,24s10.768,24,24,24h16
	c4.408,0,8,3.584,8,8s-3.592,8-8,8h-16c-4.408,0-8-3.584-8-8h-16c0,13.232,10.768,24,24,24v16h16v-16c13.232,0,24-10.768,24-24
	s-10.768-24-24-24h-16c-4.408,0-8-3.584-8-8S235.592,128,240,128z"/>
<rect y="480" width="16" height="16"/>
<rect x="480" y="480" width="16" height="16"/>
<rect x="184" y="144" width="16" height="16"/>
<rect x="296" y="144" width="16" height="16"/>
<path d="M248,240c19.224,0,37.48-6.088,52.808-17.6l-9.608-12.8c-12.536,9.424-27.472,14.4-43.2,14.4c-39.696,0-72-32.296-72-72
	s32.304-72,72-72s72,32.296,72,72c0,17.784-6.536,34.856-18.4,48.08l11.904,10.688C328.008,194.608,336,173.736,336,152
	c0-48.52-39.48-88-88-88s-88,39.48-88,88S199.48,240,248,240z"/>
<g>
</g>
<g>
</g>
<g>
</g>
<g>
</g>
<g>
</g>
<g>
</g>
<g>
</g>
<g>
</g>
<g>
</g>
<g>
</g>
<g>
</g>
<g>
</g>
<g>
</g>
<g>
</g>
<g>
</g>
</svg>
