<?xml version="1.0" encoding="iso-8859-1"?>
<!-- Generator: Adobe Illustrator 19.0.0, SVG Export Plug-In . SVG Version: 6.00 Build 0)  -->
<svg version="1.1" id="Capa_1" xmlns="http://www.w3.org/2000/svg" xmlns:xlink="http://www.w3.org/1999/xlink" x="0px" y="0px"
	 viewBox="0 0 512 512" style="enable-background:new 0 0 512 512;" xml:space="preserve">
<path style="fill:#FFFFFF;" d="M432.981,502H79.006c-23.195,0-41.999-18.803-41.999-41.999V10.014L36.993,10l35.399,35.399
	L107.791,10l35.399,35.399L178.589,10l35.399,35.399L249.387,10l35.399,35.399L320.185,10l35.399,35.399L390.983,10v246"/>
<path style="fill:#FDCF84;" d="M432.995,502L432.995,502c-23.195,0-41.999-18.803-41.999-41.999V256h83.998v204.001
	C474.994,483.197,456.191,502,432.995,502z"/>
<path d="M474.994,246.001h-74.012V10c0-4.044-2.437-7.691-6.173-9.239c-3.738-1.549-8.039-0.691-10.898,2.167l-28.329,28.328
	L327.255,2.93c-3.905-3.905-10.237-3.905-14.143,0l-28.328,28.328L256.459,2.93c-3.905-3.905-10.237-3.905-14.143,0l-28.328,28.328
	L185.659,2.93c-3.905-3.905-10.237-3.905-14.142,0l-28.328,28.328L114.863,2.93c-3.905-3.905-10.237-3.905-14.143,0L72.392,31.258
	L44.065,2.93c-3.881-3.881-10.158-3.901-14.073-0.055c-2.056,2.021-3.053,4.714-2.984,7.389v449.738
	c0,28.672,23.326,51.998,51.998,51.998h353.976c0.002,0,0.003,0,0.005,0c0.003,0,0.006,0,0.009,0
	c28.672,0,51.998-23.326,51.998-51.998V256C484.994,250.477,480.517,246.001,474.994,246.001z M47.007,460.001V34.156L65.321,52.47
	c3.905,3.905,10.237,3.905,14.143,0l28.328-28.328L136.12,52.47c3.905,3.905,10.237,3.905,14.143,0l28.328-28.328L206.92,52.47
	c3.905,3.905,10.237,3.905,14.142,0l28.328-28.328l28.328,28.328c3.905,3.905,10.237,3.905,14.143,0l28.328-28.328l28.328,28.328
	c3.906,3.905,10.238,3.905,14.142,0l18.329-18.328V256c0,0.091,0.011,0.18,0.014,0.271v203.73c0,12.062,4.14,23.168,11.057,31.999
	H79.006C61.361,492,47.007,477.646,47.007,460.001z M464.994,460.001c0,17.644-14.355,31.999-31.999,31.999l0,0
	c-17.644,0-31.999-14.355-31.999-31.999V266h63.998V460.001z"/>
<path d="M213.995,209.677c-9.925,0-17.999-6.914-17.999-15.411c0-5.523-4.477-10-10-10c-5.523,0-10,4.477-10,10
	c0,16.301,11.884,30.055,27.999,34.157v8.16c0,5.523,4.477,10,10,10c5.523,0,10-4.477,10-10v-8.16
	c16.116-4.102,27.999-17.856,27.999-34.157c0-19.525-17.046-35.411-37.999-35.411c-9.925,0-17.999-6.914-17.999-15.411
	c0-8.498,8.075-15.412,17.999-15.412s17.999,6.914,17.999,15.412c0,5.523,4.477,10,10,10c5.523,0,10-4.477,10-10
	c0-16.301-11.884-30.055-27.999-34.157v-6.774c0-5.523-4.477-10-10-10c-5.523,0-10,4.477-10,10v6.774
	c-16.116,4.102-27.999,17.857-27.999,34.157c0,19.525,17.047,35.41,37.999,35.41c9.925,0,17.999,6.914,17.999,15.412
	S223.92,209.677,213.995,209.677z"/>
<path d="M294.97,178.856h19.49c5.523,0,10-4.477,10-10c0-5.523-4.477-10-10-10h-19.49c-5.523,0-10,4.477-10,10
	C284.971,174.379,289.448,178.856,294.97,178.856z"/>
<path d="M133.02,158.856h-19.49c-5.523,0-10,4.477-10,10c0,5.523,4.477,10,10,10h19.49c5.523,0,10-4.477,10-10
	C143.02,163.333,138.543,158.856,133.02,158.856z"/>
<path d="M319.52,270.007H161.097c-5.523,0-10,4.477-10,10c0,5.523,4.477,10,10,10H319.52c5.523,0,10-4.477,10-10
	C329.519,274.484,325.043,270.007,319.52,270.007z"/>
<path d="M108.468,270.007c-2.63,0-5.21,1.07-7.07,2.93c-1.86,1.86-2.93,4.44-2.93,7.07c0,2.63,1.07,5.21,2.93,7.07
	c1.86,1.86,4.44,2.93,7.07,2.93c2.63,0,5.21-1.07,7.07-2.93s2.93-4.44,2.93-7.07c0-2.63-1.07-5.21-2.93-7.07
	C113.678,271.077,111.098,270.007,108.468,270.007z"/>
<path d="M319.52,336.005H161.097c-5.523,0-10,4.477-10,10s4.477,10,10,10H319.52c5.523,0,10-4.477,10-10
	S325.043,336.005,319.52,336.005z"/>
<path d="M108.468,336.005c-2.63,0-5.21,1.07-7.07,2.93c-1.86,1.86-2.93,4.44-2.93,7.07c0,2.63,1.07,5.21,2.93,7.07
	c1.86,1.86,4.44,2.93,7.07,2.93c2.63,0,5.21-1.07,7.07-2.93c1.86-1.86,2.93-4.44,2.93-7.07c0-2.63-1.07-5.21-2.93-7.07
	S111.098,336.005,108.468,336.005z"/>
<path d="M319.52,402.003H161.097c-5.523,0-10,4.477-10,10c0,5.523,4.477,10,10,10H319.52c5.523,0,10-4.477,10-10
	C329.519,406.48,325.043,402.003,319.52,402.003z"/>
<path d="M108.468,402.003c-2.63,0-5.21,1.07-7.07,2.93c-1.86,1.86-2.93,4.44-2.93,7.07c0,2.63,1.07,5.21,2.93,7.07
	c1.86,1.86,4.44,2.93,7.07,2.93c2.63,0,5.21-1.07,7.07-2.93s2.93-4.44,2.93-7.07c0-2.63-1.07-5.21-2.93-7.07
	C113.678,403.073,111.098,402.003,108.468,402.003z"/>
<g>
</g>
<g>
</g>
<g>
</g>
<g>
</g>
<g>
</g>
<g>
</g>
<g>
</g>
<g>
</g>
<g>
</g>
<g>
</g>
<g>
</g>
<g>
</g>
<g>
</g>
<g>
</g>
<g>
</g>
</svg>
