<?xml version="1.0" encoding="iso-8859-1"?>
<!-- Generator: Adobe Illustrator 19.0.0, SVG Export Plug-In . SVG Version: 6.00 Build 0)  -->
<svg version="1.1" id="Capa_1" xmlns="http://www.w3.org/2000/svg" xmlns:xlink="http://www.w3.org/1999/xlink" x="0px" y="0px"
	 viewBox="0 0 469.333 469.333" style="enable-background:new 0 0 469.333 469.333;" xml:space="preserve">
<path style="fill:#303C42;" d="M467.065,366.76c-0.313-0.396-30.938-39.802-40.896-71.302c-2.354-7.5-5.313-18.063-8.708-30.167
	c-16.188-57.906-30.917-107.177-47.25-123.5c-17.698-17.698-86.105-29.508-114.208-33.711V42.667
	C256.002,19.135,236.856,0,213.336,0H42.669C19.148,0,0.002,19.135,0.002,42.667v298.667C0.002,364.865,19.148,384,42.669,384
	h170.667c4.595,0,9.047-1.025,13.413-2.527c9.292,8.62,19.811,15.178,30.837,21.861c21.729,13.188,44.229,26.823,63.854,60.688
	c1.917,3.292,5.417,5.313,9.229,5.313c101.5,0,137.604-91.26,137.958-92.188C469.961,373.656,469.377,369.708,467.065,366.76z
	 M293.481,240.625c-1.938,4.417-4.042,9.25-7,13c-10.681-7.612-21.523-23.746-30.479-40.895v-15.647l33.813,13.531
	c1.646,5.792,4.458,15.167,7.271,22.479C295.794,235.375,294.669,237.917,293.481,240.625z"/>
<path style="fill:#7CB342;" d="M161.3,229.129c-9.757,3.611-21.047,5.538-33.298,5.538c-31.854,0-64-13.198-64-42.667
	c0-33.771,42.786-45.936,77.401-41.865C133.821,174.854,145.618,206.029,161.3,229.129z"/>
<path style="fill:#96C268;" d="M153.099,130.625c-7.997-1.582-16.313-2.625-25.096-2.625c-51.042,0-85.333,25.719-85.333,64
	s34.292,64,85.333,64c16.418,0,31.574-3.02,44.65-8.548c10.673,19.016,18.089,38.531,19.392,52.225
	c0.292,2.979,0.417,5.802,0.542,8.594c0.184,3.986,0.389,8.021,0.934,12.301c-11.762,11.51-19.283,26.137-21.647,42.095H84.258
	c-4.723-32.574-30.348-58.199-62.922-62.922V84.255c32.574-4.723,58.199-30.348,62.922-62.922h87.49
	c4.723,32.574,30.348,58.199,62.922,62.922v86.303c-13.319-19.533-35.76-42.628-56.104-46.767
	C168.691,121.728,159.897,124.178,153.099,130.625z"/>
<g>
	<path style="fill:#7CB342;" d="M211.108,362.667h-17.896c1.341-6.372,4.047-12.318,7.629-17.806
		C203.337,350.186,206.698,356.085,211.108,362.667z"/>
	<path style="fill:#7CB342;" d="M234.669,42.667v20.254c-20.87-4.253-37.336-20.721-41.589-41.587h20.255
		C225.106,21.333,234.669,30.906,234.669,42.667z"/>
	<path style="fill:#7CB342;" d="M42.669,21.333h20.255c-4.253,20.866-20.719,37.335-41.589,41.587V42.667
		C21.336,30.906,30.898,21.333,42.669,21.333z"/>
	<path style="fill:#7CB342;" d="M21.336,341.333v-20.254c20.87,4.253,37.336,20.721,41.589,41.587H42.669
		C30.898,362.667,21.336,353.094,21.336,341.333z"/>
</g>
<g>
	<circle style="fill:#303C42;" cx="128" cy="298.667" r="21.333"/>
	<circle style="fill:#303C42;" cx="128" cy="85.333" r="21.333"/>
</g>
<path style="fill:#FDD1B0;" d="M336.622,447.75c-21.698-34.719-47.25-50.208-67.979-62.781
	c-14.542-8.813-27.094-16.427-36.021-28.698c-17.563-24.156-18.073-35.156-18.719-49.094c-0.146-3.135-0.302-6.313-0.625-9.646
	c-2.052-21.604-15.333-52.896-33.833-79.708c-16.448-23.844-27.177-56.458-11.906-71.74c1.24-1.25,2.896-2.271,6.76-1.521
	c16.719,3.406,43.688,34.49,50.469,51.302c8.167,20.219,30.271,68.542,59.135,80.531c3.281,1.333,7.042,0.99,10.01-0.979
	c10.667-7.104,15.531-18.219,19.094-26.333c1.031-2.333,2.427-5.542,2.396-5.771c4.365-3.021,5.844-8.792,3.469-13.542
	c-3.25-6.49-8.25-23.854-9.906-30c-0.875-3.24-3.219-5.885-6.344-7.135l-46.625-18.65v-44.413c38.766,6,89.074,17.135,99.125,27.177
	c13.708,13.708,31.292,76.594,41.802,114.167c3.458,12.375,6.479,23.177,8.906,30.833c8.938,28.333,31.375,60.458,40.51,72.833
	C437.935,391.625,406.174,444.854,336.622,447.75z"/>
<path style="opacity:0.1;enable-background:new    ;" d="M337.813,386.667c-25.333-20-43.438-28.907-76-60.667
	c-29.48-28.753-46.324-106.108-100.586-148.456c2.639,13.417,9.525,28.068,18.034,40.404c18.5,26.813,31.781,58.104,33.833,79.708
	c0.323,3.333,0.479,6.51,0.625,9.646c0.646,13.938,1.156,24.938,18.719,49.094c8.927,12.271,21.479,19.885,36.021,28.698
	c20.729,12.573,46.281,28.063,67.979,62.781c20.121-0.837,36.742-6.13,50.887-13.298
	C371.062,415.661,352.746,398.457,337.813,386.667z"/>
<path style="opacity:0.1;enable-background:new    ;" d="M277.336,133.366c-7.273-1.344-14.495-2.608-21.333-3.667v44.413
	l21.333,8.534V133.366z"/>
<linearGradient id="SVGID_1_" gradientUnits="userSpaceOnUse" x1="-68.8156" y1="618.7789" x2="-44.5933" y2="607.4828" gradientTransform="matrix(21.3333 0 0 -21.3333 1430.1111 13315.2227)">
	<stop  offset="0" style="stop-color:#FFFFFF;stop-opacity:0.2"/>
	<stop  offset="1" style="stop-color:#FFFFFF;stop-opacity:0"/>
</linearGradient>
<path style="fill:url(#SVGID_1_);" d="M467.065,366.76c-0.313-0.396-30.938-39.802-40.896-71.302
	c-2.354-7.5-5.313-18.063-8.708-30.167c-16.188-57.906-30.917-107.177-47.25-123.5c-17.698-17.698-86.105-29.508-114.208-33.711
	V42.667C256.002,19.135,236.856,0,213.336,0H42.669C19.148,0,0.002,19.135,0.002,42.667v298.667
	C0.002,364.865,19.148,384,42.669,384h170.667c4.595,0,9.047-1.025,13.413-2.527c9.292,8.62,19.811,15.178,30.837,21.861
	c21.729,13.188,44.229,26.823,63.854,60.688c1.917,3.292,5.417,5.313,9.229,5.313c101.5,0,137.604-91.26,137.958-92.188
	C469.961,373.656,469.377,369.708,467.065,366.76z M293.481,240.625c-1.938,4.417-4.042,9.25-7,13
	c-10.681-7.612-21.523-23.746-30.479-40.895v-15.647l33.813,13.531c1.646,5.792,4.458,15.167,7.271,22.479
	C295.794,235.375,294.669,237.917,293.481,240.625z"/>
<g>
</g>
<g>
</g>
<g>
</g>
<g>
</g>
<g>
</g>
<g>
</g>
<g>
</g>
<g>
</g>
<g>
</g>
<g>
</g>
<g>
</g>
<g>
</g>
<g>
</g>
<g>
</g>
<g>
</g>
</svg>
