<?xml version="1.0" encoding="iso-8859-1"?>
<!-- Generator: Adobe Illustrator 19.0.0, SVG Export Plug-In . SVG Version: 6.00 Build 0)  -->
<svg version="1.1" id="Capa_1" xmlns="http://www.w3.org/2000/svg" xmlns:xlink="http://www.w3.org/1999/xlink" x="0px" y="0px"
	 viewBox="0 0 512.568 512.568" style="enable-background:new 0 0 512.568 512.568;" xml:space="preserve">
<path style="fill:#FD3238;" d="M488.568,376.564h-464c-8.84,0-16-7.16-16-16v-88h496v88
	C504.568,369.404,497.408,376.564,488.568,376.564z"/>
<path style="fill:#BE262A;" d="M32.568,360.564v-88h-24v88c0,8.84,7.16,16,16,16h24C39.728,376.564,32.568,369.404,32.568,360.564z"
	/>
<path style="fill:#FCB641;" d="M504.568,344.564h-16c-8.84,0-16-7.16-16-16v-8c0-8.84,7.16-16,16-16h16V344.564z"/>
<path style="fill:#2EA6DB;" d="M344.568,272.564h-336v-192c0-13.256,10.744-24,24-24h288c13.256,0,24,10.744,24,24V272.564z"/>
<g style="opacity:0.5;">
	<path style="fill:#237DA4;" d="M24.568,96.564c0-13.256,10.744-24,24-24h288c2.408,0,4.688,0.464,6.88,1.12
		c-2.976-9.88-12.032-17.12-22.88-17.12h-288c-13.256,0-24,10.744-24,24v192h16V96.564z"/>
</g>
<rect x="192.568" y="368.644" width="128" height="15.816"/>
<polygon style="fill:#C6D1D6;" points="504.568,272.564 344.568,272.564 344.568,168.564 480.568,168.564 "/>
<path style="fill:#FD3238;" d="M480.568,168.564h-136v-48h108.464c6.888,0,13,4.408,15.176,10.944L480.568,168.564z"/>
<rect x="376.568" y="296.564" width="32" height="16"/>
<g>
	<path style="fill:#C6D1D6;" d="M88.568,88.564c-19.048,0-40.248,15.92-48,32h48v32h-48c7.752,16.08,28.952,32,48,32
		c26.512,0,48-21.488,48-48S115.08,88.564,88.568,88.564z"/>
	<path style="fill:#C6D1D6;" d="M264.568,88.564c19.048,0,40.248,15.92,48,32h-48v32h48c-7.752,16.08-28.952,32-48,32
		c-26.512,0-48-21.488-48-48S238.056,88.564,264.568,88.564z"/>
</g>
<rect x="128.568" y="112.564" style="fill:#A0B2BA;" width="96" height="48"/>
<g transform="matrix(1 -0.0063 0.0063 1 -0.316 0.096)">
	
		<ellipse transform="matrix(-1 -0.0063 0.0063 -1 234.1676 803.1885)" style="fill:#50595D;" cx="118.348" cy="401.226" rx="56" ry="56"/>
	
		<ellipse transform="matrix(-1 -0.0063 0.0063 -1 234.1676 803.1885)" style="fill:#737A7D;" cx="118.348" cy="401.226" rx="16" ry="16"/>
</g>
<path d="M120.568,424.564c-13.168,0-23.92-10.664-24-23.848c-0.08-13.232,10.616-24.064,23.848-24.152c0.048,0,0.104,0,0.152,0
	c13.168,0,23.92,10.664,24,23.848c0.08,13.232-10.616,24.064-23.848,24.152C120.672,424.564,120.616,424.564,120.568,424.564z
	 M120.568,392.564c-0.016,0-0.032,0-0.048,0c-4.408,0.024-7.976,3.64-7.952,8.056c0.024,4.392,3.616,7.944,8,7.944
	c0.016,0,0.032,0,0.048,0c4.408-0.024,7.976-3.64,7.952-8.056C128.544,396.116,124.952,392.564,120.568,392.564z"/>
<ellipse style="fill:#50595D;" cx="392.56" cy="400.582" rx="56.001" ry="56.001"/>
<path id="SVGCleanerId_0" d="M392.568,424.564c-13.168,0-23.92-10.664-24-23.848c-0.08-13.232,10.616-24.064,23.848-24.152
	c13.224,0.224,24.072,10.616,24.152,23.848s-10.616,24.064-23.848,24.152C392.672,424.564,392.616,424.564,392.568,424.564z
	 M392.568,392.564c-0.016,0-0.032,0-0.056,0c-4.408,0.024-7.976,3.64-7.944,8.056c0.024,4.392,3.608,7.944,8,7.944
	c0.016,0,0.032,0,0.056,0c4.408-0.024,7.976-3.64,7.944-8.056C400.544,396.116,396.96,392.564,392.568,392.564z"/>
<ellipse style="fill:#737A7D;" cx="392.56" cy="400.582" rx="16" ry="16"/>
<g>
	<path id="SVGCleanerId_0_1_" d="M392.568,424.564c-13.168,0-23.92-10.664-24-23.848c-0.08-13.232,10.616-24.064,23.848-24.152
		c13.224,0.224,24.072,10.616,24.152,23.848s-10.616,24.064-23.848,24.152C392.672,424.564,392.616,424.564,392.568,424.564z
		 M392.568,392.564c-0.016,0-0.032,0-0.056,0c-4.408,0.024-7.976,3.64-7.944,8.056c0.024,4.392,3.608,7.944,8,7.944
		c0.016,0,0.032,0,0.056,0c4.408-0.024,7.976-3.64,7.944-8.056C400.544,396.116,396.96,392.564,392.568,392.564z"/>
</g>
<path d="M304.568,344.468h-88c-2.648,0-5.112-1.32-6.576-3.52l-13.656-20.48h-67.768v-15.816h72c2.648,0,5.112,1.32,6.576,3.52
	l13.656,20.48h83.768V344.468z"/>
<g>
	<path style="fill:#FCB641;" d="M448.568,120.564h-104v-48h76.464c6.888,0,13,4.408,15.176,10.944L448.568,120.564z"/>
	<path style="fill:#FCB641;" d="M192.568,240.564h-32c-8.84,0-16-7.16-16-16v-16h64v16
		C208.568,233.404,201.408,240.564,192.568,240.564z"/>
</g>
<path d="M192.568,248.732h-32c-13.328,0-24.168-10.832-24.168-24.168v-16c0-4.504,3.656-8.168,8.168-8.168h64
	c4.504,0,8.168,3.656,8.168,8.168v16C216.736,237.892,205.896,248.732,192.568,248.732z M152.736,216.732v7.832
	c0,4.32,3.512,7.832,7.832,7.832h32c4.32,0,7.832-3.512,7.832-7.832v-7.832H152.736z"/>
<rect x="48.568" y="216.396" width="16" height="16.328"/>
<rect x="88.568" y="216.396" width="16" height="16.328"/>
<rect x="248.568" y="216.396" width="16" height="16.328"/>
<rect x="288.568" y="216.396" width="16" height="16.328"/>
<rect x="96.568" y="304.644" width="16" height="15.816"/>
<rect x="64.568" y="304.644" width="16" height="15.816"/>
<path style="fill:#FCB641;" d="M392.568,272.564h-48v-72h32c8.84,0,16,7.16,16,16V272.564z"/>
<rect x="448.568" y="192.644" width="16" height="15.816"/>
<rect x="416.568" y="192.644" width="16" height="15.816"/>
<path d="M512.368,271.564c-0.032-0.264,0.056-0.528,0-0.8l-24-104c-0.024-0.104-0.088-0.176-0.12-0.28
	c-0.04-0.152-0.04-0.304-0.096-0.456L475.8,128.964c-3.144-9.416-11.712-15.8-21.536-16.312l-10.552-31.664
	c-3.264-9.776-12.376-16.344-22.68-16.344h-72.224c-5.592-9.88-16.088-16.64-28.24-16.64h-288C14.608,48.004,0,62.604,0,80.564v192
	c0,1.16,0.24,2.264,0.664,3.272v84.728c0,13.176,10.72,23.904,23.904,23.904h24v-15.816h-24c-4.464,0-8.096-3.632-8.096-8.096
	v-79.44h320.096v55.448h0.096h15.816h0.088v-56h144v16.096h-8c-13.176,0-23.904,10.728-23.904,23.904v8
	c0,13.176,10.728,23.904,23.904,23.904h8v8.096c0,4.416-3.584,8-8,8h-24v16h24c13.232,0,24-10.768,24-24v-88
	C512.568,272.212,512.408,271.908,512.368,271.564z M460.632,134.036l8.832,26.528H353.128v-32h99.904
	C456.48,128.564,459.536,130.756,460.632,134.036z M384.664,264.564h-31.536v-56.096h23.44c4.464,0,8.096,3.632,8.096,8.096V264.564
	z M368.568,80.468v8.096h16v-8.096h16v8.096h16v-8.096h4.472c3.496,0,6.576,2.224,7.68,5.528l8.848,26.568h-84.44v-32
	c0-0.032-0.008-0.064-0.008-0.096H368.568z M17.136,80.564c0-8.504,6.92-15.44,15.432-15.44h288c8.504,0,15.44,6.928,15.44,15.44
	v183.44H17.136V80.564z M400.472,264.564v-48c0-13.176-10.728-23.904-23.904-23.904h-23.44v-16.096H474.2l20.312,88H400.472z
	 M488.568,336.66c-4.464,0-8.096-3.632-8.096-8.096v-8c0-4.464,3.632-8.096,8.096-8.096h8v24.184h-8V336.66z"/>
<path d="M438.104,445.532c12.016-12.168,18.568-28.28,18.464-45.368c-0.112-17.104-6.864-33.136-19.032-45.144
	c-12.072-11.912-28.016-18.456-44.952-18.456c-0.144,0-0.28,0-0.416,0c-17.104,0.112-33.136,6.864-45.144,19.032
	c-12.016,12.168-18.568,28.28-18.464,45.368c0.112,17.104,6.864,33.136,19.032,45.144c0.912,0.904,1.896,1.712,2.848,2.552H162.704
	c1.152-1.016,2.312-2.024,3.4-3.128c12.008-12.168,18.568-28.28,18.464-45.368c-0.224-35.152-28.888-63.6-64-63.6
	c-0.136,0-0.272,0-0.408,0c-17.096,0.112-33.12,6.864-45.136,19.032s-18.568,28.28-18.456,45.368
	c0.12,19.032,8.616,36.048,21.92,47.696H0.568v15.816h118.136c0.624,0.016,1.232,0.088,1.864,0.088c0.136,0,0.272,0,0.408,0
	c0.576,0,1.128-0.072,1.704-0.096h267.936c0.648,0.024,1.288,0.096,1.936,0.096c0.144,0,0.28,0,0.416,0
	c0.576,0,1.136-0.072,1.704-0.096h117.896v-15.816h-77.864C435.856,447.644,437.016,446.636,438.104,445.532z M344.568,400.868
	c-0.08-12.824,4.832-24.904,13.84-34.032s21.032-14.192,33.856-14.272c0.112,0,0.208,0,0.312,0c12.704,0,24.672,4.904,33.72,13.84
	c9.128,9.008,14.192,21.032,14.272,33.848s-4.832,24.904-13.84,34.032s-21.032,14.2-33.856,14.28c-0.112,0-0.208,0-0.312,0
	c-12.704,0-24.672-4.904-33.72-13.84C349.72,425.716,344.648,413.692,344.568,400.868z M72.568,400.868
	c-0.08-12.824,4.832-24.904,13.84-34.032c9.008-9.128,21.032-14.192,33.848-14.272c0.104,0,0.2,0,0.312,0
	c26.328,0,47.832,21.336,48,47.696c0.08,12.824-4.832,24.904-13.84,34.032c-9.008,9.128-21.032,14.192-33.848,14.272
	c-0.104,0-0.2,0-0.312,0C94.232,448.564,72.736,427.228,72.568,400.868z"/>
<path d="M312.568,144.396h-39.832v-15.672h39.832c2.816,0,5.424-1.448,6.912-3.824c1.496-2.384,1.664-5.36,0.44-7.888
	c-8.496-17.608-32.072-36.616-55.352-36.616c-19.008,0-35.808,9.512-45.976,24h-84.048c-10.168-14.488-26.968-24-45.976-24
	c-23.28,0-46.856,19.008-55.352,36.616c-1.216,2.528-1.056,5.504,0.44,7.888c1.488,2.384,4.104,3.832,6.912,3.832H80.4v15.672
	H40.568c-2.808,0-5.424,1.448-6.912,3.824c-1.496,2.384-1.664,5.36-0.44,7.888c8.496,17.608,32.08,36.616,55.352,36.616
	c19.008,0,35.808-9.512,45.976-24H218.6c10.168,14.488,26.968,24,45.976,24c23.28,0,46.856-19.008,55.352-36.616
	c1.224-2.528,1.056-5.504-0.44-7.888C317.992,145.844,315.384,144.396,312.568,144.396z M88.568,176.396
	c-11.28,0-23.56-7.024-32.08-15.672h32.08c4.504,0,8.168-3.656,8.168-8.168v-32c0-4.504-3.656-8.168-8.168-8.168h-32.08
	c8.52-8.648,20.8-15.672,32.08-15.672c21.968,0,39.832,17.864,39.832,39.832S110.536,176.396,88.568,176.396z M142.424,152.396
	c1.48-5.032,2.312-10.336,2.312-15.832s-0.832-10.808-2.312-15.832h68.296c-1.48,5.032-2.312,10.336-2.312,15.832
	s0.832,10.808,2.312,15.832H142.424z M264.568,176.396c-21.968,0-39.832-17.864-39.832-39.832s17.872-39.832,39.832-39.832
	c11.28,0,23.56,7.024,32.08,15.672h-32.08c-4.504,0-8.168,3.656-8.168,8.168v32c0,4.504,3.656,8.168,8.168,8.168h32.08
	C288.128,169.38,275.848,176.396,264.568,176.396z"/>
<g>
</g>
<g>
</g>
<g>
</g>
<g>
</g>
<g>
</g>
<g>
</g>
<g>
</g>
<g>
</g>
<g>
</g>
<g>
</g>
<g>
</g>
<g>
</g>
<g>
</g>
<g>
</g>
<g>
</g>
</svg>
