<?xml version="1.0" encoding="iso-8859-1"?>
<!-- Generator: Adobe Illustrator 19.0.0, SVG Export Plug-In . SVG Version: 6.00 Build 0)  -->
<svg version="1.1" id="Capa_1" xmlns="http://www.w3.org/2000/svg" xmlns:xlink="http://www.w3.org/1999/xlink" x="0px" y="0px"
	 viewBox="0 0 512 512" style="enable-background:new 0 0 512 512;" xml:space="preserve">
<g>
	
		<rect x="364.223" y="105.542" transform="matrix(-0.7071 -0.7071 0.7071 -0.7071 566.5894 512.6465)" style="fill:#90E7FC;" width="50.49" height="66.874"/>
	<path style="fill:#90E7FC;" d="M438.615,140.033l-50.197-50.197c-1.968-1.968-1.968-5.16,0-7.128l17.663-17.663
		c1.968-1.968,5.16-1.968,7.128,0l50.197,50.197c1.968,1.968,1.968,5.16,0,7.128l-17.663,17.663
		C443.774,142.001,440.583,142.001,438.615,140.033z"/>
</g>
<g>
	
		<rect x="390.992" y="116.625" transform="matrix(-0.7071 -0.7071 0.7071 -0.7071 577.684 539.409)" style="fill:#57D5EA;" width="19.13" height="66.874"/>
	<path style="fill:#57D5EA;" d="M463.405,122.373l-17.663,17.663c-1.973,1.963-5.157,1.963-7.129,0l-20.777-20.777l24.792-24.792
		l20.777,20.777C465.378,117.207,465.378,120.401,463.405,122.373z"/>
</g>
<g>
	<rect x="213.171" y="55.59" style="fill:#B3B3BA;" width="66.875" height="66.875"/>
	<path style="fill:#B3B3BA;" d="M297.163,55.595H196.053c-2.784,0-5.04-2.257-5.04-5.04V12.55c0-2.784,2.257-5.04,5.04-5.04h101.109
		c2.784,0,5.04,2.257,5.04,5.04v38.004C302.203,53.338,299.946,55.595,297.163,55.595z"/>
</g>
<g>
	<rect x="254.191" y="55.6" style="fill:#A0A0A5;" width="25.854" height="52.879"/>
	<path style="fill:#A0A0A5;" d="M302.204,12.55v38.01c0,2.784-2.253,5.037-5.037,5.037h-42.976V7.513h42.976
		C299.951,7.513,302.204,9.766,302.204,12.55z"/>
</g>
<circle style="fill:#B3B3BA;" cx="246.611" cy="305" r="199.49"/>
<path style="fill:#A0A0A5;" d="M446.092,305.003c0,110.174-89.307,199.491-199.481,199.491c-7.73,0-15.36-0.441-22.87-1.302
	c99.39-11.365,176.581-95.765,176.581-198.189s-77.191-186.825-176.581-198.19c7.51-0.861,15.14-1.302,22.87-1.302
	C356.786,105.511,446.092,194.828,446.092,305.003z"/>
<circle style="fill:#FFEFD8;" cx="246.611" cy="305" r="161.93"/>
<path style="fill:#EDDDC8;" d="M408.543,305.003c0,89.427-72.505,161.932-161.932,161.932c-6.709,0-13.317-0.411-19.806-1.202
	c80.095-9.763,142.126-78.002,142.126-160.73c0-82.738-62.031-150.968-142.126-160.73c6.488-0.791,13.097-1.202,19.806-1.202
	C336.038,143.07,408.543,215.565,408.543,305.003z"/>
<path d="M254.118,197.646v-28.729c0-4.147-3.362-7.51-7.51-7.51c-4.147,0-7.51,3.362-7.51,7.51v28.729c0,4.147,3.362,7.51,7.51,7.51
	C250.756,205.156,254.118,201.794,254.118,197.646z"/>
<path d="M239.098,412.356v28.729c0,4.147,3.362,7.51,7.51,7.51s7.51-3.362,7.51-7.51v-28.729c0-4.148-3.362-7.51-7.51-7.51
	C242.461,404.846,239.098,408.208,239.098,412.356z"/>
<path d="M185.07,183.395c-2.074-3.593-6.666-4.824-10.259-2.749c-3.592,2.073-4.823,6.667-2.749,10.259l14.365,24.88
	c1.391,2.409,3.915,3.756,6.51,3.756c1.274,0,2.565-0.325,3.748-1.008c3.592-2.073,4.823-6.667,2.749-10.259L185.07,183.395z"/>
<path d="M293.782,401.728l14.365,24.88c1.391,2.409,3.915,3.756,6.51,3.756c1.274,0,2.565-0.325,3.748-1.008
	c3.592-2.073,4.823-6.667,2.749-10.259l-14.365-24.88c-2.074-3.593-6.666-4.823-10.259-2.749
	C292.939,393.543,291.708,398.136,293.782,401.728z"/>
<path d="M157.391,244.82l-24.88-14.364c-3.593-2.074-8.185-0.843-10.259,2.749c-2.074,3.592-0.843,8.185,2.749,10.259l24.88,14.364
	c1.183,0.683,2.474,1.008,3.748,1.008c2.595,0,5.12-1.347,6.51-3.756C162.214,251.487,160.982,246.894,157.391,244.82z"/>
<path d="M335.825,365.182l24.88,14.365c1.183,0.683,2.474,1.008,3.748,1.008c2.595,0,5.119-1.347,6.51-3.756
	c2.074-3.592,0.843-8.185-2.749-10.259l-24.88-14.365c-3.592-2.075-8.185-0.844-10.259,2.749
	C331.003,358.515,332.233,363.108,335.825,365.182z"/>
<path d="M146.764,305.001c0-4.148-3.362-7.51-7.51-7.51h-28.729c-4.148,0-7.51,3.362-7.51,7.51c0,4.147,3.362,7.51,7.51,7.51h28.729
	C143.4,312.511,146.764,309.148,146.764,305.001z"/>
<path d="M346.453,305.001c0,4.147,3.362,7.51,7.51,7.51h28.729c4.148,0,7.51-3.362,7.51-7.51s-3.362-7.51-7.51-7.51h-28.729
	C349.815,297.491,346.453,300.853,346.453,305.001z"/>
<path d="M128.764,380.554c1.274,0,2.565-0.325,3.748-1.008l24.88-14.365c3.592-2.073,4.823-6.667,2.749-10.259
	s-6.667-4.823-10.259-2.749l-24.88,14.365c-3.592,2.073-4.823,6.667-2.749,10.259C123.644,379.207,126.168,380.554,128.764,380.554z
	"/>
<path d="M360.705,230.456l-24.88,14.364c-3.592,2.073-4.823,6.667-2.749,10.259c1.391,2.409,3.915,3.756,6.51,3.756
	c1.274,0,2.565-0.325,3.748-1.008l24.88-14.364c3.592-2.073,4.823-6.667,2.749-10.259
	C368.89,229.612,364.296,228.383,360.705,230.456z"/>
<path d="M174.812,429.356c1.183,0.683,2.474,1.008,3.748,1.008c2.595,0,5.119-1.347,6.51-3.756l14.365-24.88
	c2.074-3.592,0.843-8.185-2.749-10.259c-3.593-2.075-8.185-0.844-10.259,2.749l-14.365,24.88
	C169.989,422.689,171.219,427.283,174.812,429.356z"/>
<path d="M296.531,218.533c1.183,0.683,2.474,1.008,3.748,1.008c2.595,0,5.12-1.347,6.51-3.756l14.365-24.88
	c2.074-3.592,0.843-8.185-2.749-10.259c-3.593-2.075-8.185-0.844-10.259,2.749l-14.365,24.88
	C291.708,211.866,292.939,216.46,296.531,218.533z"/>
<path d="M433.304,145.343c2.447,2.447,5.66,3.67,8.874,3.67c3.213,0,6.428-1.223,8.874-3.67l17.663-17.663
	c2.37-2.37,3.676-5.522,3.676-8.875s-1.306-6.505-3.676-8.874l-50.198-50.198c-4.894-4.893-12.856-4.893-17.748,0l-17.663,17.663
	c-4.894,4.893-4.894,12.856,0,17.749l1.938,1.938l-31.026,31.026c-20.159-12.286-42.574-21.22-66.463-26.032V63.105h9.607
	c6.92,0,12.55-5.63,12.55-12.55V12.55c0-6.92-5.63-12.55-12.55-12.55H196.053c-6.92,0-12.55,5.63-12.55,12.55v38.004
	c0,6.92,5.63,12.55,12.55,12.55h9.607v38.973C111.068,121.135,39.61,204.877,39.61,305.001c0,36.856,9.81,73.047,28.369,104.658
	c18.01,30.676,43.772,56.362,74.499,74.281c3.583,2.089,8.182,0.879,10.271-2.704c2.089-3.583,0.879-8.181-2.704-10.271
	c-28.507-16.623-52.406-40.452-69.113-68.911c-17.207-29.307-26.302-62.868-26.302-97.053c0-105.857,86.122-191.979,191.979-191.979
	c105.858,0,191.979,86.122,191.979,191.979c0,105.858-86.122,191.979-191.979,191.979c-17.992,0-35.798-2.485-52.924-7.386
	c-3.984-1.141-8.144,1.166-9.286,5.154c-1.141,3.988,1.166,8.145,5.154,9.286c18.47,5.286,37.666,7.966,57.056,7.966
	c114.14,0,206.999-92.859,206.999-206.999c0-51.187-18.685-98.085-49.579-134.257l27.339-27.339L433.304,145.343z M272.536,99.623
	c-8.495-1.066-17.148-1.62-25.928-1.62s-17.432,0.554-25.927,1.62V63.105h51.855V99.623z M213.171,48.085h-14.648V15.02h96.17
	v33.065h-14.648H213.171z M409.645,72.101l46.705,46.705l-14.17,14.17l-46.705-46.705L409.645,72.101z M393.86,159.672
	c-8.336-8.445-17.385-16.182-27.058-23.104l28.466-28.466l25.081,25.081L393.86,159.672z"/>
<path d="M121.755,201.605c-3.314-2.497-8.021-1.837-10.518,1.475c-22.288,29.558-34.07,64.802-34.07,101.921
	c0,93.43,76.011,169.441,169.441,169.441s169.441-76.011,169.441-169.441S340.038,135.56,246.607,135.56
	c-36.083,0-70.529,11.19-99.615,32.361c-3.353,2.441-4.093,7.138-1.653,10.491c2.441,3.354,7.137,4.093,10.491,1.653
	c26.501-19.29,57.89-29.485,90.776-29.485c85.148,0,154.421,69.273,154.421,154.421s-69.273,154.421-154.421,154.421
	s-154.42-69.273-154.42-154.421c0-33.83,10.734-65.946,31.042-92.878C125.727,208.811,125.066,204.102,121.755,201.605z"/>
<path d="M226.26,285.91l-36.508-22.998c-3.51-2.211-8.147-1.157-10.357,2.351c-2.211,3.509-1.158,8.146,2.351,10.357l37.535,23.645
	c-0.388,1.852-0.595,3.77-0.595,5.736c0,15.397,12.526,27.922,27.922,27.922c15.397,0,27.922-12.526,27.922-27.922
	c0-15.397-12.526-27.922-27.922-27.922C238.59,277.079,231.357,280.48,226.26,285.91z M246.607,292.098
	c7.114,0,12.903,5.788,12.903,12.903s-5.788,12.903-12.903,12.903c-7.114,0-12.903-5.788-12.903-12.903
	S239.493,292.098,246.607,292.098z"/>
<g>
</g>
<g>
</g>
<g>
</g>
<g>
</g>
<g>
</g>
<g>
</g>
<g>
</g>
<g>
</g>
<g>
</g>
<g>
</g>
<g>
</g>
<g>
</g>
<g>
</g>
<g>
</g>
<g>
</g>
</svg>
