<?xml version="1.0" encoding="iso-8859-1"?>
<!-- Generator: Adobe Illustrator 19.0.0, SVG Export Plug-In . SVG Version: 6.00 Build 0)  -->
<svg version="1.1" id="Capa_1" xmlns="http://www.w3.org/2000/svg" xmlns:xlink="http://www.w3.org/1999/xlink" x="0px" y="0px"
	 viewBox="0 0 58 58" style="enable-background:new 0 0 58 58;" xml:space="preserve">
<rect y="0.5" style="fill:#ECF0F1;" width="58" height="57"/>
<path style="fill:#BDC3C7;" d="M46,12.5H12c-0.552,0-1-0.447-1-1s0.448-1,1-1h34c0.552,0,1,0.447,1,1S46.552,12.5,46,12.5z"/>
<path style="fill:#BDC3C7;" d="M46,19.5H12c-0.552,0-1-0.447-1-1s0.448-1,1-1h34c0.552,0,1,0.447,1,1S46.552,19.5,46,19.5z"/>
<path style="fill:#BDC3C7;" d="M46,26.5H12c-0.552,0-1-0.447-1-1s0.448-1,1-1h34c0.552,0,1,0.447,1,1S46.552,26.5,46,26.5z"/>
<path style="fill:#BDC3C7;" d="M46,33.5H12c-0.552,0-1-0.447-1-1s0.448-1,1-1h34c0.552,0,1,0.447,1,1S46.552,33.5,46,33.5z"/>
<path style="fill:#BDC3C7;" d="M46,40.5H12c-0.552,0-1-0.447-1-1s0.448-1,1-1h34c0.552,0,1,0.447,1,1S46.552,40.5,46,40.5z"/>
<path style="fill:#BDC3C7;" d="M46,47.5H12c-0.552,0-1-0.447-1-1s0.448-1,1-1h34c0.552,0,1,0.447,1,1S46.552,47.5,46,47.5z"/>
<g>
</g>
<g>
</g>
<g>
</g>
<g>
</g>
<g>
</g>
<g>
</g>
<g>
</g>
<g>
</g>
<g>
</g>
<g>
</g>
<g>
</g>
<g>
</g>
<g>
</g>
<g>
</g>
<g>
</g>
</svg>
