<?xml version="1.0" encoding="iso-8859-1"?>
<!-- Generator: Adobe Illustrator 19.0.0, SVG Export Plug-In . SVG Version: 6.00 Build 0)  -->
<svg version="1.1" id="Capa_1" xmlns="http://www.w3.org/2000/svg" xmlns:xlink="http://www.w3.org/1999/xlink" x="0px" y="0px"
	 viewBox="0 0 58 58" style="enable-background:new 0 0 58 58;" xml:space="preserve">
<rect y="0" style="fill:#ECF0F1;" width="58" height="58"/>
<rect y="0" style="fill:#546A79;" width="58" height="12"/>
<circle style="fill:#ED7161;" cx="6" cy="6" r="3"/>
<circle style="fill:#F0C419;" cx="15" cy="6" r="3"/>
<circle style="fill:#4FBA6F;" cx="24" cy="6" r="3"/>
<rect x="0" y="12" style="fill:#95A5A5;" width="58" height="24"/>
<rect x="6" y="40" style="fill:#8697CB;" width="12" height="5"/>
<rect x="40" y="40" style="fill:#F0C419;" width="12" height="5"/>
<rect x="23" y="40" style="fill:#71C285;" width="12" height="5"/>
<path style="fill:#BDC3C7;" d="M17,50H7c-0.553,0-1-0.448-1-1s0.447-1,1-1h10c0.553,0,1,0.448,1,1S17.553,50,17,50z"/>
<path style="fill:#BDC3C7;" d="M17,54H7c-0.553,0-1-0.448-1-1s0.447-1,1-1h10c0.553,0,1,0.448,1,1S17.553,54,17,54z"/>
<path style="fill:#BDC3C7;" d="M34,50H24c-0.553,0-1-0.448-1-1s0.447-1,1-1h10c0.553,0,1,0.448,1,1S34.553,50,34,50z"/>
<path style="fill:#BDC3C7;" d="M34,54H24c-0.553,0-1-0.448-1-1s0.447-1,1-1h10c0.553,0,1,0.448,1,1S34.553,54,34,54z"/>
<path style="fill:#BDC3C7;" d="M51,50H41c-0.553,0-1-0.448-1-1s0.447-1,1-1h10c0.553,0,1,0.448,1,1S51.553,50,51,50z"/>
<path style="fill:#BDC3C7;" d="M51,54H41c-0.553,0-1-0.448-1-1s0.447-1,1-1h10c0.553,0,1,0.448,1,1S51.553,54,51,54z"/>
<path style="fill:#FFFFFF;" d="M26,27.124v-6.249c0-0.573,0.62-0.932,1.116-0.646l5.398,3.1c0.497,0.285,0.499,1.001,0.004,1.29
	l-5.398,3.148C26.624,28.058,26,27.699,26,27.124z"/>
<g>
</g>
<g>
</g>
<g>
</g>
<g>
</g>
<g>
</g>
<g>
</g>
<g>
</g>
<g>
</g>
<g>
</g>
<g>
</g>
<g>
</g>
<g>
</g>
<g>
</g>
<g>
</g>
<g>
</g>
</svg>
