<?xml version="1.0" encoding="iso-8859-1"?>
<!-- Generator: Adobe Illustrator 19.0.0, SVG Export Plug-In . SVG Version: 6.00 Build 0)  -->
<svg version="1.1" id="Capa_1" xmlns="http://www.w3.org/2000/svg" xmlns:xlink="http://www.w3.org/1999/xlink" x="0px" y="0px"
	 viewBox="0 0 58 58" style="enable-background:new 0 0 58 58;" xml:space="preserve">
<rect style="fill:#ECF0F1;" width="58" height="58"/>
<rect style="fill:#546A79;" width="58" height="12"/>
<circle style="fill:#ED7161;" cx="6" cy="6" r="3"/>
<circle style="fill:#F0C419;" cx="15" cy="6" r="3"/>
<circle style="fill:#4FBA6F;" cx="24" cy="6" r="3"/>
<rect x="5" y="17" style="fill:#ED7161;" width="18" height="18"/>
<path style="fill:#BDC3C7;" d="M38,20h-9c-0.553,0-1-0.448-1-1s0.447-1,1-1h9c0.553,0,1,0.448,1,1S38.553,20,38,20z"/>
<path style="fill:#BDC3C7;" d="M47,25H29c-0.553,0-1-0.448-1-1s0.447-1,1-1h18c0.553,0,1,0.448,1,1S47.553,25,47,25z"/>
<path style="fill:#BDC3C7;" d="M53,30H29c-0.553,0-1-0.448-1-1s0.447-1,1-1h24c0.553,0,1,0.448,1,1S53.553,30,53,30z"/>
<path style="fill:#BDC3C7;" d="M50,35H29c-0.553,0-1-0.448-1-1s0.447-1,1-1h21c0.553,0,1,0.448,1,1S50.553,35,50,35z"/>
<rect x="5" y="42" style="fill:#D7DBDD;" width="48" height="10"/>
<path style="fill:#F0C419;" d="M18,20h-2c0-0.552-0.447-1-1-1s-1,0.448-1,1v5h-1.29C10.63,25,9,26.577,9,28.591
	C9,30.63,10.37,32,12.409,32C14.523,32,16,30.275,16,27.807V22h2c0.553,0,1-0.448,1-1S18.553,20,18,20z M14,27.807
	C14,28.867,13.582,30,12.409,30C11.461,30,11,29.539,11,28.591C11,27.684,11.735,27,12.71,27H14V27.807z"/>
<path style="fill:#ECF0F1;" d="M48,48H18c-0.553,0-1-0.448-1-1s0.447-1,1-1h30c0.553,0,1,0.448,1,1S48.553,48,48,48z"/>
<path style="fill:#E57E25;" d="M22,50c-0.553,0-1-0.448-1-1v-4c0-0.552,0.447-1,1-1s1,0.448,1,1v4C23,49.552,22.553,50,22,50z"/>
<g>
	<path style="fill:#556080;" d="M9,44c-0.553,0-1,0.448-1,1v4c0,0.552,0.447,1,1,1s1-0.448,1-1v-4C10,44.448,9.553,44,9,44z"/>
	<path style="fill:#556080;" d="M12,44c-0.553,0-1,0.448-1,1v4c0,0.552,0.447,1,1,1s1-0.448,1-1v-4C13,44.448,12.553,44,12,44z"/>
</g>
<g>
</g>
<g>
</g>
<g>
</g>
<g>
</g>
<g>
</g>
<g>
</g>
<g>
</g>
<g>
</g>
<g>
</g>
<g>
</g>
<g>
</g>
<g>
</g>
<g>
</g>
<g>
</g>
<g>
</g>
</svg>
