<?xml version="1.0" encoding="iso-8859-1"?>
<!-- Generator: Adobe Illustrator 19.0.0, SVG Export Plug-In . SVG Version: 6.00 Build 0)  -->
<svg version="1.1" id="Capa_1" xmlns="http://www.w3.org/2000/svg" xmlns:xlink="http://www.w3.org/1999/xlink" x="0px" y="0px"
	 viewBox="0 0 58 58" style="enable-background:new 0 0 58 58;" xml:space="preserve">
<rect style="fill:#ECF0F1;" width="58" height="58"/>
<rect x="6" y="18" style="fill:#FFFFFF;" width="12" height="6"/>
<rect x="6" y="29" style="fill:#FFFFFF;" width="12" height="6"/>
<rect x="6" y="40" style="fill:#FFFFFF;" width="12" height="6"/>
<rect x="23" y="18" style="fill:#FFFFFF;" width="12" height="6"/>
<rect x="23" y="29" style="fill:#FFFFFF;" width="12" height="6"/>
<rect x="23" y="40" style="fill:#FFFFFF;" width="12" height="6"/>
<rect x="40" y="18" style="fill:#FFFFFF;" width="12" height="6"/>
<rect x="40" y="29" style="fill:#FFFFFF;" width="12" height="6"/>
<rect x="40" y="40" style="fill:#FFFFFF;" width="12" height="6"/>
<rect style="fill:#BDC3C7;" width="58" height="12"/>
<circle style="fill:#ED7161;" cx="6" cy="6" r="2"/>
<circle style="fill:#F0C419;" cx="12" cy="6" r="2"/>
<circle style="fill:#4FBA6F;" cx="18" cy="6" r="2"/>
<path style="fill:#FFFFFF;" d="M40,12H25l1.298-4.894C26.717,5.849,27.894,5,29.22,5h6.559c1.326,0,2.503,0.849,2.923,2.106L40,12z"
	/>
<path style="fill:#FFFFFF;" d="M47,6h-1V5c0-0.553-0.448-1-1-1s-1,0.447-1,1v1h-1c-0.552,0-1,0.447-1,1s0.448,1,1,1h1v1
	c0,0.553,0.448,1,1,1s1-0.447,1-1V8h1c0.552,0,1-0.447,1-1S47.552,6,47,6z"/>
<g>
</g>
<g>
</g>
<g>
</g>
<g>
</g>
<g>
</g>
<g>
</g>
<g>
</g>
<g>
</g>
<g>
</g>
<g>
</g>
<g>
</g>
<g>
</g>
<g>
</g>
<g>
</g>
<g>
</g>
</svg>
