<?xml version="1.0" encoding="iso-8859-1"?>
<!-- Generator: Adobe Illustrator 19.0.0, SVG Export Plug-In . SVG Version: 6.00 Build 0)  -->
<svg version="1.1" id="Capa_1" xmlns="http://www.w3.org/2000/svg" xmlns:xlink="http://www.w3.org/1999/xlink" x="0px" y="0px"
	 viewBox="0 0 58 58" style="enable-background:new 0 0 58 58;" xml:space="preserve">
<rect style="fill:#ECF0F1;" width="58" height="58"/>
<rect style="fill:#546A79;" width="58" height="12"/>
<circle style="fill:#ED7161;" cx="6" cy="6" r="3"/>
<circle style="fill:#F0C419;" cx="15" cy="6" r="3"/>
<circle style="fill:#4FBA6F;" cx="24" cy="6" r="3"/>
<rect x="5" y="17" style="fill:#FFFFFF;" width="48" height="24"/>
<rect x="22" y="33" style="fill:#4FBA6F;" width="14" height="4"/>
<circle style="fill:#BDC3C7;" cx="19.5" cy="48.5" r="2.5"/>
<circle style="fill:#BDC3C7;" cx="28.5" cy="48.5" r="2.5"/>
<circle style="fill:#BDC3C7;" cx="37.5" cy="48.5" r="2.5"/>
<path style="fill:#BDC3C7;" d="M40.5,27h-23c-0.552,0-1-0.448-1-1s0.448-1,1-1h23c0.552,0,1,0.448,1,1S41.052,27,40.5,27z"/>
<path style="fill:#BDC3C7;" d="M36.5,23h-15c-0.552,0-1-0.448-1-1s0.448-1,1-1h15c0.552,0,1,0.448,1,1S37.052,23,36.5,23z"/>
<g>
</g>
<g>
</g>
<g>
</g>
<g>
</g>
<g>
</g>
<g>
</g>
<g>
</g>
<g>
</g>
<g>
</g>
<g>
</g>
<g>
</g>
<g>
</g>
<g>
</g>
<g>
</g>
<g>
</g>
</svg>
