<?xml version="1.0" encoding="iso-8859-1"?>
<!-- Generator: Adobe Illustrator 19.0.0, SVG Export Plug-In . SVG Version: 6.00 Build 0)  -->
<svg version="1.1" id="Capa_1" xmlns="http://www.w3.org/2000/svg" xmlns:xlink="http://www.w3.org/1999/xlink" x="0px" y="0px"
	 viewBox="0 0 58 58" style="enable-background:new 0 0 58 58;" xml:space="preserve">
<rect style="fill:#ECF0F1;" width="58" height="58"/>
<polygon style="fill:#4FBA6F;" points="5,49 5,53 53,53 53,42 38,29 28,40 22,35 "/>
<rect style="fill:#546A79;" width="58" height="12"/>
<circle style="fill:#ED7161;" cx="6" cy="6" r="3"/>
<circle style="fill:#F0C419;" cx="15" cy="6" r="3"/>
<circle style="fill:#4FBA6F;" cx="24" cy="6" r="3"/>
<polygon style="fill:#FFFFFF;" points="5,49 5,17 53,17 53,42 38,29 28,40 22,35 "/>
<path style="fill:#E6E6E6;" d="M4,16v38h50V16H4z M52,18v22.642L38.695,27.781c-0.195-0.188-0.456-0.293-0.727-0.281
	c-0.27,0.008-0.525,0.126-0.707,0.325l-9.795,10.727l-4.743-4.743c-0.372-0.373-0.972-0.392-1.368-0.043L6,47.287V18H52z M6,52
	v-2.048l15.974-14.064L32.275,46.19c0.391,0.391,1.023,0.391,1.414,0s0.391-1.023,0-1.414l-4.807-4.807l9.162-10.035L52,43.424V52H6
	z"/>
<circle style="fill:#F29C1F;" cx="14.569" cy="27.069" r="4.569"/>
<g>
</g>
<g>
</g>
<g>
</g>
<g>
</g>
<g>
</g>
<g>
</g>
<g>
</g>
<g>
</g>
<g>
</g>
<g>
</g>
<g>
</g>
<g>
</g>
<g>
</g>
<g>
</g>
<g>
</g>
</svg>
