<?xml version="1.0" encoding="iso-8859-1"?>
<!-- Generator: Adobe Illustrator 19.0.0, SVG Export Plug-In . SVG Version: 6.00 Build 0)  -->
<svg version="1.1" id="Capa_1" xmlns="http://www.w3.org/2000/svg" xmlns:xlink="http://www.w3.org/1999/xlink" x="0px" y="0px"
	 viewBox="0 0 59 59" style="enable-background:new 0 0 59 59;" xml:space="preserve">
<g>
	<path style="fill:#BDC3C7;" d="M59,59h-2c-0.553,0-1-0.447-1-1s0.447-1,1-1c0-0.553,0.447-1,1-1s1,0.447,1,1V59z"/>
	<path style="fill:#BDC3C7;" d="M52.77,59h-2.115c-0.553,0-1-0.447-1-1s0.447-1,1-1h2.115c0.553,0,1,0.447,1,1S53.322,59,52.77,59z
		 M46.424,59h-2.116c-0.552,0-1-0.447-1-1s0.448-1,1-1h2.116c0.553,0,1,0.447,1,1S46.977,59,46.424,59z"/>
	<path style="fill:#BDC3C7;" d="M40.077,59h-2.115c-0.552,0-1-0.447-1-1s0.448-1,1-1h2.115c0.552,0,1,0.447,1,1S40.629,59,40.077,59
		z M33.731,59h-2.115c-0.552,0-1-0.447-1-1s0.448-1,1-1h2.115c0.552,0,1,0.447,1,1S34.283,59,33.731,59z M27.385,59H25.27
		c-0.552,0-1-0.447-1-1s0.448-1,1-1h2.115c0.552,0,1,0.447,1,1S27.937,59,27.385,59z M21.039,59h-2.115c-0.552,0-1-0.447-1-1
		s0.448-1,1-1h2.115c0.552,0,1,0.447,1,1S21.591,59,21.039,59z M14.692,59h-2.115c-0.552,0-1-0.447-1-1s0.448-1,1-1h2.115
		c0.552,0,1,0.447,1,1S15.245,59,14.692,59z M8.346,59H6.231c-0.552,0-1-0.447-1-1s0.448-1,1-1h2.115c0.552,0,1,0.447,1,1
		S8.898,59,8.346,59z"/>
	<path style="fill:#BDC3C7;" d="M2,59H0v-2c0-0.553,0.448-1,1-1s1,0.447,1,1c0.552,0,1,0.447,1,1S2.552,59,2,59z"/>
	<path style="fill:#BDC3C7;" d="M1,53.77c-0.552,0-1-0.447-1-1v-2.115c0-0.553,0.448-1,1-1s1,0.447,1,1v2.115
		C2,53.322,1.552,53.77,1,53.77z"/>
	<path style="fill:#BDC3C7;" d="M52.769,2h-2.115c-0.553,0-1-0.447-1-1s0.447-1,1-1h2.115c0.553,0,1,0.447,1,1S53.321,2,52.769,2z"
		/>
	<path style="fill:#BDC3C7;" d="M58,3c-0.553,0-1-0.447-1-1c-0.553,0-1-0.447-1-1s0.447-1,1-1h2v2C59,2.553,58.553,3,58,3z"/>
	<path style="fill:#BDC3C7;" d="M58,15.692c-0.553,0-1-0.447-1-1v-2.116c0-0.553,0.447-1,1-1s1,0.447,1,1v2.116
		C59,15.245,58.553,15.692,58,15.692z M58,9.346c-0.553,0-1-0.447-1-1V6.23c0-0.553,0.447-1,1-1s1,0.447,1,1v2.115
		C59,8.898,58.553,9.346,58,9.346z"/>
	<path style="fill:#BDC3C7;" d="M58,53.769c-0.553,0-1-0.447-1-1v-2.115c0-0.553,0.447-1,1-1s1,0.447,1,1v2.115
		C59,53.321,58.553,53.769,58,53.769z M58,47.423c-0.553,0-1-0.447-1-1v-2.115c0-0.553,0.447-1,1-1s1,0.447,1,1v2.115
		C59,46.976,58.553,47.423,58,47.423z M58,41.077c-0.553,0-1-0.447-1-1v-2.116c0-0.553,0.447-1,1-1s1,0.447,1,1v2.116
		C59,40.63,58.553,41.077,58,41.077z M58,34.73c-0.553,0-1-0.447-1-1v-2.115c0-0.553,0.447-1,1-1s1,0.447,1,1v2.115
		C59,34.283,58.553,34.73,58,34.73z M58,28.385c-0.553,0-1-0.447-1-1v-2.116c0-0.553,0.447-1,1-1s1,0.447,1,1v2.116
		C59,27.938,58.553,28.385,58,28.385z M58,22.038c-0.553,0-1-0.447-1-1v-2.115c0-0.553,0.447-1,1-1s1,0.447,1,1v2.115
		C59,21.591,58.553,22.038,58,22.038z"/>
</g>
<rect style="fill:#ECF0F1;" width="45" height="45"/>
<rect style="fill:#546A79;" width="45" height="12"/>
<circle style="fill:#ED7161;" cx="6" cy="6" r="3"/>
<circle style="fill:#F0C419;" cx="15" cy="6" r="3"/>
<circle style="fill:#4FBA6F;" cx="24" cy="6" r="3"/>
<g>
</g>
<g>
</g>
<g>
</g>
<g>
</g>
<g>
</g>
<g>
</g>
<g>
</g>
<g>
</g>
<g>
</g>
<g>
</g>
<g>
</g>
<g>
</g>
<g>
</g>
<g>
</g>
<g>
</g>
</svg>
