<?xml version="1.0" encoding="iso-8859-1"?>
<!-- Generator: Adobe Illustrator 19.0.0, SVG Export Plug-In . SVG Version: 6.00 Build 0)  -->
<svg version="1.1" id="Capa_1" xmlns="http://www.w3.org/2000/svg" xmlns:xlink="http://www.w3.org/1999/xlink" x="0px" y="0px"
	 viewBox="0 0 58 58" style="enable-background:new 0 0 58 58;" xml:space="preserve">
<rect style="fill:#ECF0F1;" width="58" height="58"/>
<rect style="fill:#546A79;" width="58" height="12"/>
<circle style="fill:#ED7161;" cx="6" cy="6" r="3"/>
<circle style="fill:#F0C419;" cx="15" cy="6" r="3"/>
<circle style="fill:#4FBA6F;" cx="24" cy="6" r="3"/>
<g>
	<path style="fill:#BDC3C7;" d="M25,21h-6c-0.553,0-1,0.447-1,1s0.447,1,1,1h6c0.553,0,1-0.447,1-1S25.553,21,25,21z"/>
	<path style="fill:#BDC3C7;" d="M29,25c-0.553,0-1,0.447-1,1v5c0,0.553,0.447,1,1,1s1-0.447,1-1v-5C30,25.447,29.553,25,29,25z"/>
	<path style="fill:#BDC3C7;" d="M39,34h-6c-0.553,0-1,0.447-1,1s0.447,1,1,1h6c0.553,0,1-0.447,1-1S39.553,34,39,34z"/>
	<path style="fill:#BDC3C7;" d="M43,38c-0.553,0-1,0.447-1,1v5c0,0.553,0.447,1,1,1s1-0.447,1-1v-5C44,38.447,43.553,38,43,38z"/>
	<path style="fill:#BDC3C7;" d="M39,47h-6c-0.553,0-1,0.447-1,1s0.447,1,1,1h6c0.553,0,1-0.447,1-1S39.553,47,39,47z"/>
	<path style="fill:#BDC3C7;" d="M25,47h-6c-0.553,0-1,0.447-1,1s0.447,1,1,1h6c0.553,0,1-0.447,1-1S25.553,47,25,47z"/>
	<path style="fill:#BDC3C7;" d="M15,38c-0.553,0-1,0.447-1,1v5c0,0.553,0.447,1,1,1s1-0.447,1-1v-5C16,38.447,15.553,38,15,38z"/>
</g>
<circle style="fill:#BDC3C7;" cx="15" cy="22" r="4"/>
<circle style="fill:#BDC3C7;" cx="29" cy="22" r="4"/>
<circle style="fill:#FFFFFF;" cx="43" cy="22" r="4"/>
<circle style="fill:#BDC3C7;" cx="15" cy="35" r="4"/>
<circle style="fill:#BDC3C7;" cx="29" cy="35" r="4"/>
<circle style="fill:#BDC3C7;" cx="43" cy="35" r="4"/>
<circle style="fill:#BDC3C7;" cx="15" cy="48" r="4"/>
<circle style="fill:#BDC3C7;" cx="29" cy="48" r="4"/>
<circle style="fill:#BDC3C7;" cx="43" cy="48" r="4"/>
<g>
</g>
<g>
</g>
<g>
</g>
<g>
</g>
<g>
</g>
<g>
</g>
<g>
</g>
<g>
</g>
<g>
</g>
<g>
</g>
<g>
</g>
<g>
</g>
<g>
</g>
<g>
</g>
<g>
</g>
</svg>
