<?xml version="1.0" encoding="iso-8859-1"?>
<!-- Generator: Adobe Illustrator 19.0.0, SVG Export Plug-In . SVG Version: 6.00 Build 0)  -->
<svg version="1.1" id="Capa_1" xmlns="http://www.w3.org/2000/svg" xmlns:xlink="http://www.w3.org/1999/xlink" x="0px" y="0px"
	 viewBox="0 0 58 58" style="enable-background:new 0 0 58 58;" xml:space="preserve">
<rect style="fill:#ECF0F1;" width="58" height="58"/>
<rect style="fill:#546A79;" width="58" height="12"/>
<circle style="fill:#ED7161;" cx="6" cy="6" r="3"/>
<circle style="fill:#F0C419;" cx="15" cy="6" r="3"/>
<circle style="fill:#4FBA6F;" cx="24" cy="6" r="3"/>
<g>
	<path style="fill:#95A5A5;" d="M6,24h15c0.552,0,1-0.447,1-1s-0.448-1-1-1H6c-0.552,0-1,0.447-1,1S5.448,24,6,24z"/>
	<path style="fill:#95A5A5;" d="M9,20h9c0.552,0,1-0.447,1-1s-0.448-1-1-1H9c-0.552,0-1,0.447-1,1S8.448,20,9,20z"/>
	<path style="fill:#95A5A5;" d="M21,26H6c-0.552,0-1,0.447-1,1s0.448,1,1,1h15c0.552,0,1-0.447,1-1S21.552,26,21,26z"/>
</g>
<path style="fill:#4FBA6F;" d="M54,43l-8.879-8.879C44.578,34.664,43.828,35,43,35s-1.578-0.336-2.121-0.879L33,42l-4.879-4.879
	C27.578,37.664,26.828,38,26,38s-1.578-0.336-2.121-0.879L15,46l-5.879-5.879C8.578,40.664,7.828,41,7,41s-1.578-0.336-2.121-0.879
	L0,45v13h58V39L54,43z"/>
<circle style="fill:#EDED1B;stroke:#F0C419;stroke-width:2;stroke-linecap:round;stroke-miterlimit:10;" cx="7" cy="38" r="3"/>
<circle style="fill:#EDED1B;stroke:#F0C419;stroke-width:2;stroke-linecap:round;stroke-miterlimit:10;" cx="26" cy="35" r="3"/>
<circle style="fill:#EDED1B;stroke:#F0C419;stroke-width:2;stroke-linecap:round;stroke-miterlimit:10;" cx="43" cy="32" r="3"/>
<g>
</g>
<g>
</g>
<g>
</g>
<g>
</g>
<g>
</g>
<g>
</g>
<g>
</g>
<g>
</g>
<g>
</g>
<g>
</g>
<g>
</g>
<g>
</g>
<g>
</g>
<g>
</g>
<g>
</g>
</svg>
