<?xml version="1.0" encoding="iso-8859-1"?>
<!-- Generator: Adobe Illustrator 19.0.0, SVG Export Plug-In . SVG Version: 6.00 Build 0)  -->
<svg version="1.1" id="Capa_1" xmlns="http://www.w3.org/2000/svg" xmlns:xlink="http://www.w3.org/1999/xlink" x="0px" y="0px"
	 viewBox="0 0 58 58" style="enable-background:new 0 0 58 58;" xml:space="preserve">
<rect x="0.5" style="fill:#ECF0F1;" width="57" height="58"/>
<rect x="0.5" style="fill:#BDC3C7;" width="57" height="12"/>
<rect x="39.5" y="19" style="fill:#FFFFFF;" width="13" height="10"/>
<rect x="5.5" y="19" style="fill:#FFFFFF;" width="13" height="10"/>
<rect x="22.5" y="19" style="fill:#FFFFFF;" width="13" height="10"/>
<rect x="39.5" y="33" style="fill:#FFFFFF;" width="13" height="10"/>
<rect x="5.5" y="33" style="fill:#FFFFFF;" width="13" height="10"/>
<rect x="22.5" y="33" style="fill:#FFFFFF;" width="13" height="10"/>
<path style="fill:#FFFFFF;" d="M44.5,8h-18c-1.1,0-2-0.9-2-2v0c0-1.1,0.9-2,2-2h18c1.1,0,2,0.9,2,2v0C46.5,7.1,45.6,8,44.5,8z"/>
<circle style="fill:#ED7161;" cx="5.5" cy="6" r="2"/>
<circle style="fill:#F0C419;" cx="11.5" cy="6" r="2"/>
<circle style="fill:#4FBA6F;" cx="17.5" cy="6" r="2"/>
<g>
</g>
<g>
</g>
<g>
</g>
<g>
</g>
<g>
</g>
<g>
</g>
<g>
</g>
<g>
</g>
<g>
</g>
<g>
</g>
<g>
</g>
<g>
</g>
<g>
</g>
<g>
</g>
<g>
</g>
</svg>
