<?xml version="1.0" encoding="iso-8859-1"?>
<!-- Generator: Adobe Illustrator 19.0.0, SVG Export Plug-In . SVG Version: 6.00 Build 0)  -->
<svg version="1.1" id="Capa_1" xmlns="http://www.w3.org/2000/svg" xmlns:xlink="http://www.w3.org/1999/xlink" x="0px" y="0px"
	 viewBox="0 0 58 58" style="enable-background:new 0 0 58 58;" xml:space="preserve">
<rect style="fill:#ECF0F1;" width="58" height="58"/>
<rect style="fill:#546A79;" width="58" height="12"/>
<circle style="fill:#ED7161;" cx="6" cy="6" r="3"/>
<circle style="fill:#F0C419;" cx="15" cy="6" r="3"/>
<circle style="fill:#4FBA6F;" cx="24" cy="6" r="3"/>
<rect x="6" y="47" style="fill:#71C285;" width="46" height="5"/>
<rect x="6" y="18" style="fill:#71C285;" width="46" height="11"/>
<g>
	<path style="fill:#BDC3C7;" d="M7,34h19c0.552,0,1-0.448,1-1s-0.448-1-1-1H7c-0.552,0-1,0.448-1,1S6.448,34,7,34z"/>
	<path style="fill:#BDC3C7;" d="M7,38h44c0.552,0,1-0.448,1-1s-0.448-1-1-1H7c-0.552,0-1,0.448-1,1S6.448,38,7,38z"/>
	<path style="fill:#BDC3C7;" d="M51,40H7c-0.552,0-1,0.448-1,1s0.448,1,1,1h44c0.552,0,1-0.448,1-1S51.552,40,51,40z"/>
</g>
<g>
</g>
<g>
</g>
<g>
</g>
<g>
</g>
<g>
</g>
<g>
</g>
<g>
</g>
<g>
</g>
<g>
</g>
<g>
</g>
<g>
</g>
<g>
</g>
<g>
</g>
<g>
</g>
<g>
</g>
</svg>
