<?xml version="1.0" encoding="iso-8859-1"?>
<!-- Generator: Adobe Illustrator 19.0.0, SVG Export Plug-In . SVG Version: 6.00 Build 0)  -->
<svg version="1.1" id="Capa_1" xmlns="http://www.w3.org/2000/svg" xmlns:xlink="http://www.w3.org/1999/xlink" x="0px" y="0px"
	 viewBox="0 0 58 58" style="enable-background:new 0 0 58 58;" xml:space="preserve">
<rect style="fill:#ECF0F1;" width="58" height="58"/>
<rect style="fill:#546A79;" width="58" height="12"/>
<circle style="fill:#ED7161;" cx="6" cy="6" r="3"/>
<circle style="fill:#F0C419;" cx="15" cy="6" r="3"/>
<circle style="fill:#4FBA6F;" cx="24" cy="6" r="3"/>
<line style="fill:none;stroke:#F0C419;stroke-width:2;stroke-linecap:round;stroke-miterlimit:10;" x1="50" y1="46" x2="8" y2="46"/>
<line style="fill:none;stroke:#F0C419;stroke-width:2;stroke-linecap:round;stroke-miterlimit:10;" x1="14" y1="50" x2="14" y2="22"/>
<line style="fill:none;stroke:#F0C419;stroke-width:2;stroke-linecap:round;stroke-miterlimit:10;" x1="23" y1="26" x2="8" y2="26"/>
<line style="fill:none;stroke:#F0C419;stroke-width:2;stroke-linecap:round;stroke-miterlimit:10;" x1="50" y1="26" x2="39" y2="26"/>
<line style="fill:none;stroke:#F0C419;stroke-width:2;stroke-linecap:round;stroke-miterlimit:10;" x1="26" y1="36" x2="8" y2="36"/>
<line style="fill:none;stroke:#F0C419;stroke-width:2;stroke-linecap:round;stroke-miterlimit:10;" x1="50" y1="36" x2="36" y2="36"/>
<line style="fill:none;stroke:#F0C419;stroke-width:2;stroke-linecap:round;stroke-miterlimit:10;" x1="42" y1="32" x2="42" y2="51"/>
<path style="fill:#4FBA6F;" d="M38.895,22.742C38.51,19.805,36.974,16,30.947,16S23.385,19.805,23,22.742
	c-0.211,1.61-0.093,3.245,0.242,4.834c1.842,8.733,6.396,13.969,7.473,15.111c0.126,0.134,0.336,0.134,0.463,0
	c1.078-1.142,5.631-6.377,7.473-15.111C38.987,25.987,39.106,24.352,38.895,22.742z M30.947,27.426c-2.021,0-3.66-1.639-3.66-3.66
	s1.639-3.66,3.66-3.66s3.66,1.639,3.66,3.66S32.969,27.426,30.947,27.426z"/>
<g>
</g>
<g>
</g>
<g>
</g>
<g>
</g>
<g>
</g>
<g>
</g>
<g>
</g>
<g>
</g>
<g>
</g>
<g>
</g>
<g>
</g>
<g>
</g>
<g>
</g>
<g>
</g>
<g>
</g>
</svg>
