<?xml version="1.0" encoding="iso-8859-1"?>
<!-- Generator: Adobe Illustrator 19.0.0, SVG Export Plug-In . SVG Version: 6.00 Build 0)  -->
<svg version="1.1" id="Capa_1" xmlns="http://www.w3.org/2000/svg" xmlns:xlink="http://www.w3.org/1999/xlink" x="0px" y="0px"
	 viewBox="0 0 58 58" style="enable-background:new 0 0 58 58;" xml:space="preserve">
<rect style="fill:#ECF0F1;" width="58" height="58"/>
<rect style="fill:#546A79;" width="58" height="12"/>
<circle style="fill:#ED7161;" cx="6" cy="6" r="3"/>
<circle style="fill:#F0C419;" cx="15" cy="6" r="3"/>
<circle style="fill:#4FBA6F;" cx="24" cy="6" r="3"/>
<path style="fill:#BDC3C7;" d="M36,48H22c-0.552,0-1-0.447-1-1s0.448-1,1-1h14c0.552,0,1,0.447,1,1S36.552,48,36,48z"/>
<path style="fill:#BDC3C7;" d="M41,52H16c-0.552,0-1-0.447-1-1s0.448-1,1-1h25c0.552,0,1,0.447,1,1S41.552,52,41,52z"/>
<circle style="fill:#71C285;" cx="29" cy="30" r="12"/>
<path style="fill:#FFFFFF;" d="M34.707,30.293c-0.391-0.391-1.023-0.391-1.414,0L30,33.586V26c0-0.553-0.448-1-1-1s-1,0.447-1,1
	v7.586l-3.293-3.293c-0.391-0.391-1.023-0.391-1.414,0s-0.391,1.023,0,1.414l4.999,4.999c0.092,0.093,0.203,0.166,0.326,0.217
	C28.74,36.973,28.87,37,29,37s0.26-0.027,0.382-0.077c0.123-0.051,0.233-0.124,0.326-0.217l4.999-4.999
	C35.098,31.316,35.098,30.684,34.707,30.293z"/>
<g>
</g>
<g>
</g>
<g>
</g>
<g>
</g>
<g>
</g>
<g>
</g>
<g>
</g>
<g>
</g>
<g>
</g>
<g>
</g>
<g>
</g>
<g>
</g>
<g>
</g>
<g>
</g>
<g>
</g>
</svg>
