<?xml version="1.0" encoding="iso-8859-1"?>
<!-- Generator: Adobe Illustrator 19.0.0, SVG Export Plug-In . SVG Version: 6.00 Build 0)  -->
<svg version="1.1" id="Capa_1" xmlns="http://www.w3.org/2000/svg" xmlns:xlink="http://www.w3.org/1999/xlink" x="0px" y="0px"
	 viewBox="0 0 58 58" style="enable-background:new 0 0 58 58;" xml:space="preserve">
<rect x="0" y="0.5" style="fill:#ECF0F1;" width="58" height="57"/>
<path style="fill:#BDC3C7;" d="M48,47.5H28c-0.553,0-1-0.447-1-1s0.447-1,1-1h20c0.553,0,1,0.447,1,1S48.553,47.5,48,47.5z"/>
<path style="fill:#BDC3C7;" d="M41,40.5H28c-0.553,0-1-0.447-1-1s0.447-1,1-1h13c0.553,0,1,0.447,1,1S41.553,40.5,41,40.5z"/>
<path style="fill:#BDC3C7;" d="M48,33.5H28c-0.553,0-1-0.447-1-1s0.447-1,1-1h20c0.553,0,1,0.447,1,1S48.553,33.5,48,33.5z"/>
<path style="fill:#BDC3C7;" d="M46,26.5H28c-0.553,0-1-0.447-1-1s0.447-1,1-1h18c0.553,0,1,0.447,1,1S46.553,26.5,46,26.5z"/>
<path style="fill:#BDC3C7;" d="M42,19.5H28c-0.553,0-1-0.447-1-1s0.447-1,1-1h14c0.553,0,1,0.447,1,1S42.553,19.5,42,19.5z"/>
<path style="fill:#BDC3C7;" d="M48,12.5H28c-0.553,0-1-0.447-1-1s0.447-1,1-1h20c0.553,0,1,0.447,1,1S48.553,12.5,48,12.5z"/>
<path style="fill:#BDC3C7;" d="M15,27.5c-0.553,0-1-0.447-1-1v-17c0-0.553,0.447-1,1-1s1,0.447,1,1v17
	C16,27.053,15.553,27.5,15,27.5z"/>
<path style="fill:#BDC3C7;" d="M15,27.5c-0.256,0-0.512-0.098-0.707-0.293c-0.391-0.391-0.391-1.023,0-1.414l7-7
	c0.391-0.391,1.023-0.391,1.414,0s0.391,1.023,0,1.414l-7,7C15.512,27.402,15.256,27.5,15,27.5z"/>
<path style="fill:#BDC3C7;" d="M15,27.5c-0.256,0-0.512-0.098-0.707-0.293l-7-7c-0.391-0.391-0.391-1.023,0-1.414
	s1.023-0.391,1.414,0l7,7c0.391,0.391,0.391,1.023,0,1.414C15.512,27.402,15.256,27.5,15,27.5z"/>
<path style="fill:#BDC3C7;" d="M15,49.5c-0.553,0-1-0.447-1-1v-17c0-0.553,0.447-1,1-1s1,0.447,1,1v17
	C16,49.053,15.553,49.5,15,49.5z"/>
<path style="fill:#BDC3C7;" d="M8,39.5c-0.256,0-0.512-0.098-0.707-0.293c-0.391-0.391-0.391-1.023,0-1.414l7-7
	c0.391-0.391,1.023-0.391,1.414,0s0.391,1.023,0,1.414l-7,7C8.512,39.402,8.256,39.5,8,39.5z"/>
<path style="fill:#BDC3C7;" d="M22,39.5c-0.256,0-0.512-0.098-0.707-0.293l-7-7c-0.391-0.391-0.391-1.023,0-1.414
	s1.023-0.391,1.414,0l7,7c0.391,0.391,0.391,1.023,0,1.414C22.512,39.402,22.256,39.5,22,39.5z"/>
<g>
</g>
<g>
</g>
<g>
</g>
<g>
</g>
<g>
</g>
<g>
</g>
<g>
</g>
<g>
</g>
<g>
</g>
<g>
</g>
<g>
</g>
<g>
</g>
<g>
</g>
<g>
</g>
<g>
</g>
</svg>
