<?xml version="1.0" encoding="iso-8859-1"?>
<!-- Generator: Adobe Illustrator 19.0.0, SVG Export Plug-In . SVG Version: 6.00 Build 0)  -->
<svg version="1.1" id="Capa_1" xmlns="http://www.w3.org/2000/svg" xmlns:xlink="http://www.w3.org/1999/xlink" x="0px" y="0px"
	 viewBox="0 0 58 58" style="enable-background:new 0 0 58 58;" xml:space="preserve">
<rect x="0" y="0.5" style="fill:#ECF0F1;" width="58" height="57"/>
<path style="fill:#BDC3C7;" d="M47,10.5H12c-0.553,0-1-0.447-1-1s0.447-1,1-1h35c0.553,0,1,0.447,1,1S47.553,10.5,47,10.5z"/>
<path style="fill:#BDC3C7;" d="M47,17.5H12c-0.553,0-1-0.447-1-1s0.447-1,1-1h35c0.553,0,1,0.447,1,1S47.553,17.5,47,17.5z"/>
<path style="fill:#BDC3C7;" d="M29,26.5H12c-0.553,0-1-0.447-1-1s0.447-1,1-1h17c0.553,0,1,0.447,1,1S29.553,26.5,29,26.5z"/>
<path style="fill:#BDC3C7;" d="M29,33.5H12c-0.553,0-1-0.447-1-1s0.447-1,1-1h17c0.553,0,1,0.447,1,1S29.553,33.5,29,33.5z"/>
<path style="fill:#BDC3C7;" d="M47,42.5H12c-0.553,0-1-0.447-1-1s0.447-1,1-1h35c0.553,0,1,0.447,1,1S47.553,42.5,47,42.5z"/>
<path style="fill:#BDC3C7;" d="M47,49.5H12c-0.553,0-1-0.447-1-1s0.447-1,1-1h35c0.553,0,1,0.447,1,1S47.553,49.5,47,49.5z"/>
<g>
	<polygon style="fill:#BDC3C7;" points="36,29.5 43,23.5 43,26.5 51,26.5 51,32.5 43,32.5 43,35.5 	"/>
	<path style="fill:#BDC3C7;" d="M44,37.674L34.464,29.5L44,21.326V25.5h8v8h-8V37.674z M37.536,29.5L42,33.326V31.5h8v-4h-8v-1.826
		L37.536,29.5z"/>
</g>
<g>
</g>
<g>
</g>
<g>
</g>
<g>
</g>
<g>
</g>
<g>
</g>
<g>
</g>
<g>
</g>
<g>
</g>
<g>
</g>
<g>
</g>
<g>
</g>
<g>
</g>
<g>
</g>
<g>
</g>
</svg>
