<?xml version="1.0" encoding="iso-8859-1"?>
<!-- Generator: Adobe Illustrator 19.0.0, SVG Export Plug-In . SVG Version: 6.00 Build 0)  -->
<svg version="1.1" id="Capa_1" xmlns="http://www.w3.org/2000/svg" xmlns:xlink="http://www.w3.org/1999/xlink" x="0px" y="0px"
	 viewBox="0 0 58 58" style="enable-background:new 0 0 58 58;" xml:space="preserve">
<rect x="0" y="0.5" style="fill:#ECF0F1;" width="58" height="57"/>
<path style="fill:#BDC3C7;" d="M46,10.5H11c-0.553,0-1-0.447-1-1s0.447-1,1-1h35c0.553,0,1,0.447,1,1S46.553,10.5,46,10.5z"/>
<path style="fill:#BDC3C7;" d="M46,17.5H11c-0.553,0-1-0.447-1-1s0.447-1,1-1h35c0.553,0,1,0.447,1,1S46.553,17.5,46,17.5z"/>
<path style="fill:#BDC3C7;" d="M46,26.5H29c-0.553,0-1-0.447-1-1s0.447-1,1-1h17c0.553,0,1,0.447,1,1S46.553,26.5,46,26.5z"/>
<path style="fill:#BDC3C7;" d="M46,33.5H29c-0.553,0-1-0.447-1-1s0.447-1,1-1h17c0.553,0,1,0.447,1,1S46.553,33.5,46,33.5z"/>
<path style="fill:#BDC3C7;" d="M46,42.5H11c-0.553,0-1-0.447-1-1s0.447-1,1-1h35c0.553,0,1,0.447,1,1S46.553,42.5,46,42.5z"/>
<path style="fill:#BDC3C7;" d="M46,49.5H11c-0.553,0-1-0.447-1-1s0.447-1,1-1h35c0.553,0,1,0.447,1,1S46.553,49.5,46,49.5z"/>
<g>
	<polygon style="fill:#BDC3C7;" points="22,29.5 15,23.5 15,26.5 7,26.5 7,32.5 15,32.5 15,35.5 	"/>
	<path style="fill:#BDC3C7;" d="M14,37.674V33.5H6v-8h8v-4.174l9.536,8.174L14,37.674z M8,31.5h8v1.826l4.464-3.826L16,25.674V27.5
		H8V31.5z"/>
</g>
<g>
</g>
<g>
</g>
<g>
</g>
<g>
</g>
<g>
</g>
<g>
</g>
<g>
</g>
<g>
</g>
<g>
</g>
<g>
</g>
<g>
</g>
<g>
</g>
<g>
</g>
<g>
</g>
<g>
</g>
</svg>
