<?xml version="1.0" encoding="iso-8859-1"?>
<!-- Generator: Adobe Illustrator 19.0.0, SVG Export Plug-In . SVG Version: 6.00 Build 0)  -->
<svg version="1.1" id="Capa_1" xmlns="http://www.w3.org/2000/svg" xmlns:xlink="http://www.w3.org/1999/xlink" x="0px" y="0px"
	 viewBox="0 0 58 58" style="enable-background:new 0 0 58 58;" xml:space="preserve">
<rect x="0" y="0.5" style="fill:#ECF0F1;" width="58" height="57"/>
<path style="fill:#BDC3C7;" d="M47,14.5H25c-0.552,0-1-0.447-1-1s0.448-1,1-1h22c0.552,0,1,0.447,1,1S47.552,14.5,47,14.5z"/>
<path style="fill:#BDC3C7;" d="M47,30.5H25c-0.552,0-1-0.447-1-1s0.448-1,1-1h22c0.552,0,1,0.447,1,1S47.552,30.5,47,30.5z"/>
<path style="fill:#BDC3C7;" d="M47,46.5H25c-0.552,0-1-0.447-1-1s0.448-1,1-1h22c0.552,0,1,0.447,1,1S47.552,46.5,47,46.5z"/>
<path style="fill:#BDC3C7;" d="M18,18.5c-0.256,0-0.512-0.098-0.707-0.293l-8-8c-0.391-0.391-0.391-1.023,0-1.414
	s1.023-0.391,1.414,0l8,8c0.391,0.391,0.391,1.023,0,1.414C18.512,18.402,18.256,18.5,18,18.5z"/>
<path style="fill:#BDC3C7;" d="M10,18.5c-0.256,0-0.512-0.098-0.707-0.293c-0.391-0.391-0.391-1.023,0-1.414l8-8
	c0.391-0.391,1.023-0.391,1.414,0s0.391,1.023,0,1.414l-8,8C10.512,18.402,10.256,18.5,10,18.5z"/>
<path style="fill:#BDC3C7;" d="M18,34.5c-0.256,0-0.512-0.098-0.707-0.293l-8-8c-0.391-0.391-0.391-1.023,0-1.414
	s1.023-0.391,1.414,0l8,8c0.391,0.391,0.391,1.023,0,1.414C18.512,34.402,18.256,34.5,18,34.5z"/>
<path style="fill:#BDC3C7;" d="M10,34.5c-0.256,0-0.512-0.098-0.707-0.293c-0.391-0.391-0.391-1.023,0-1.414l8-8
	c0.391-0.391,1.023-0.391,1.414,0s0.391,1.023,0,1.414l-8,8C10.512,34.402,10.256,34.5,10,34.5z"/>
<path style="fill:#BDC3C7;" d="M18,50.5c-0.256,0-0.512-0.098-0.707-0.293l-8-8c-0.391-0.391-0.391-1.023,0-1.414
	s1.023-0.391,1.414,0l8,8c0.391,0.391,0.391,1.023,0,1.414C18.512,50.402,18.256,50.5,18,50.5z"/>
<path style="fill:#BDC3C7;" d="M10,50.5c-0.256,0-0.512-0.098-0.707-0.293c-0.391-0.391-0.391-1.023,0-1.414l8-8
	c0.391-0.391,1.023-0.391,1.414,0s0.391,1.023,0,1.414l-8,8C10.512,50.402,10.256,50.5,10,50.5z"/>
<g>
</g>
<g>
</g>
<g>
</g>
<g>
</g>
<g>
</g>
<g>
</g>
<g>
</g>
<g>
</g>
<g>
</g>
<g>
</g>
<g>
</g>
<g>
</g>
<g>
</g>
<g>
</g>
<g>
</g>
</svg>
