<?xml version="1.0" encoding="iso-8859-1"?>
<!-- Generator: Adobe Illustrator 19.0.0, SVG Export Plug-In . SVG Version: 6.00 Build 0)  -->
<svg version="1.1" id="Capa_1" xmlns="http://www.w3.org/2000/svg" xmlns:xlink="http://www.w3.org/1999/xlink" x="0px" y="0px"
	 viewBox="0 0 58 58" style="enable-background:new 0 0 58 58;" xml:space="preserve">
<rect x="0" y="0.5" style="fill:#ECF0F1;" width="58" height="57"/>
<g>
	<circle style="fill:#BDC3C7;" cx="14" cy="13.5" r="4"/>
	<path style="fill:#BDC3C7;" d="M14,18.5c-2.757,0-5-2.243-5-5s2.243-5,5-5s5,2.243,5,5S16.757,18.5,14,18.5z M14,10.5
		c-1.654,0-3,1.346-3,3s1.346,3,3,3s3-1.346,3-3S15.654,10.5,14,10.5z"/>
</g>
<g>
	<circle style="fill:#BDC3C7;" cx="14" cy="29.5" r="4"/>
	<path style="fill:#BDC3C7;" d="M14,34.5c-2.757,0-5-2.243-5-5s2.243-5,5-5s5,2.243,5,5S16.757,34.5,14,34.5z M14,26.5
		c-1.654,0-3,1.346-3,3s1.346,3,3,3s3-1.346,3-3S15.654,26.5,14,26.5z"/>
</g>
<g>
	<circle style="fill:#BDC3C7;" cx="14" cy="45.5" r="4"/>
	<path style="fill:#BDC3C7;" d="M14,50.5c-2.757,0-5-2.243-5-5s2.243-5,5-5s5,2.243,5,5S16.757,50.5,14,50.5z M14,42.5
		c-1.654,0-3,1.346-3,3s1.346,3,3,3s3-1.346,3-3S15.654,42.5,14,42.5z"/>
</g>
<path style="fill:#BDC3C7;" d="M47,14.5H24c-0.552,0-1-0.447-1-1s0.448-1,1-1h23c0.552,0,1,0.447,1,1S47.552,14.5,47,14.5z"/>
<path style="fill:#BDC3C7;" d="M47,30.5H24c-0.552,0-1-0.447-1-1s0.448-1,1-1h23c0.552,0,1,0.447,1,1S47.552,30.5,47,30.5z"/>
<path style="fill:#BDC3C7;" d="M47,46.5H24c-0.552,0-1-0.447-1-1s0.448-1,1-1h23c0.552,0,1,0.447,1,1S47.552,46.5,47,46.5z"/>
<g>
</g>
<g>
</g>
<g>
</g>
<g>
</g>
<g>
</g>
<g>
</g>
<g>
</g>
<g>
</g>
<g>
</g>
<g>
</g>
<g>
</g>
<g>
</g>
<g>
</g>
<g>
</g>
<g>
</g>
</svg>
