<?xml version="1.0" encoding="iso-8859-1"?>
<!-- Generator: Adobe Illustrator 19.0.0, SVG Export Plug-In . SVG Version: 6.00 Build 0)  -->
<svg version="1.1" id="Capa_1" xmlns="http://www.w3.org/2000/svg" xmlns:xlink="http://www.w3.org/1999/xlink" x="0px" y="0px"
	 viewBox="0 0 58 58" style="enable-background:new 0 0 58 58;" xml:space="preserve">
<rect x="0" y="0.5" style="fill:#ECF0F1;" width="58" height="57"/>
<path style="fill:#BDC3C7;" d="M47,13.5H25c-0.552,0-1-0.447-1-1s0.448-1,1-1h22c0.552,0,1,0.447,1,1S47.552,13.5,47,13.5z"/>
<path style="fill:#BDC3C7;" d="M47,29.5H25c-0.552,0-1-0.447-1-1s0.448-1,1-1h22c0.552,0,1,0.447,1,1S47.552,29.5,47,29.5z"/>
<path style="fill:#BDC3C7;" d="M47,45.5H25c-0.552,0-1-0.447-1-1s0.448-1,1-1h22c0.552,0,1,0.447,1,1S47.552,45.5,47,45.5z"/>
<path style="fill:#BDC3C7;" d="M15,13.5c-0.552,0-1-0.447-1-1v-5c0-0.553,0.448-1,1-1s1,0.447,1,1v5C16,13.053,15.552,13.5,15,13.5z
	"/>
<path style="fill:#BDC3C7;" d="M15,18.5c-0.552,0-1-0.447-1-1v-5c0-0.553,0.448-1,1-1s1,0.447,1,1v5C16,18.053,15.552,18.5,15,18.5z
	"/>
<path style="fill:#BDC3C7;" d="M11,12.5c-0.256,0-0.512-0.098-0.707-0.293c-0.391-0.391-0.391-1.023,0-1.414l4-4
	c0.391-0.391,1.023-0.391,1.414,0s0.391,1.023,0,1.414l-4,4C11.512,12.402,11.256,12.5,11,12.5z"/>
<path style="fill:#BDC3C7;" d="M17,34.5h-5.007c-0.478,0-0.916-0.28-1.115-0.715s-0.127-0.949,0.185-1.312l4.542-5.299
	c0.505-0.589,0.456-1.308,0.242-1.783c-0.119-0.264-0.484-0.878-1.313-0.892c-1.137,0-2.034,0.897-2.034,2c0,0.553-0.448,1-1,1
	s-1-0.447-1-1c0-2.206,1.794-4,4-4c1.416,0.022,2.605,0.815,3.17,2.07c0.595,1.321,0.385,2.818-0.547,3.905L13.674,32.5H17
	c0.552,0,1,0.447,1,1S17.552,34.5,17,34.5z"/>
<path style="fill:#BDC3C7;" d="M14,45.5h-2c-0.552,0-1-0.447-1-1s0.448-1,1-1h2c0.552,0,1,0.447,1,1S14.552,45.5,14,45.5z"/>
<path style="fill:#BDC3C7;" d="M14,50.5h-2c-0.552,0-1-0.447-1-1s0.448-1,1-1h2c0.827,0,1.5-0.673,1.5-1.5s-0.673-1.5-1.5-1.5v-2
	c0.827,0,1.5-0.673,1.5-1.5s-0.673-1.5-1.5-1.5h-2c-0.552,0-1-0.447-1-1s0.448-1,1-1h2c1.93,0,3.5,1.57,3.5,3.5
	c0,0.979-0.403,1.864-1.053,2.5c0.649,0.636,1.053,1.521,1.053,2.5C17.5,48.93,15.93,50.5,14,50.5z"/>
<g>
</g>
<g>
</g>
<g>
</g>
<g>
</g>
<g>
</g>
<g>
</g>
<g>
</g>
<g>
</g>
<g>
</g>
<g>
</g>
<g>
</g>
<g>
</g>
<g>
</g>
<g>
</g>
<g>
</g>
</svg>
