<?xml version="1.0" encoding="iso-8859-1"?>
<!-- Generator: Adobe Illustrator 19.0.0, SVG Export Plug-In . SVG Version: 6.00 Build 0)  -->
<svg version="1.1" id="Capa_1" xmlns="http://www.w3.org/2000/svg" xmlns:xlink="http://www.w3.org/1999/xlink" x="0px" y="0px"
	 viewBox="0 0 512 512" style="enable-background:new 0 0 512 512;" xml:space="preserve">
<circle style="fill:#C8F5FF;" cx="133.985" cy="134.015" r="123.986"/>
<path style="fill:#A5DC69;" d="M184.034,183.772l-19.322-3.572c-7.73-1.429-13.339-8.171-13.339-16.031v-4.296h-34.812v4.298
	c0,7.861-5.609,14.602-13.338,16.031l-19.313,3.571c-18.743,3.466-32.344,19.812-32.344,38.873v3.986
	C73.473,246.139,102.341,258,133.985,258c31.631,0,60.491-11.851,82.394-31.346v-4.007
	C216.38,203.584,202.778,187.238,184.034,183.772z"/>
<circle style="fill:#C8F5FF;" cx="378.016" cy="378.657" r="123.986"/>
<path style="fill:#E68CBE;" d="M428.065,428.415l-19.322-3.572c-7.73-1.429-13.339-8.171-13.339-16.031v-4.297h-34.812v4.298
	c0,7.861-5.609,14.602-13.338,16.031l-19.313,3.571c-18.743,3.466-32.344,19.812-32.344,38.872v3.986
	c21.908,19.509,50.776,31.369,82.42,31.369c31.631,0,60.491-11.851,82.395-31.346v-4.007
	C460.41,448.227,446.808,431.88,428.065,428.415z"/>
<polygon style="fill:#FFB487;" points="353.273,422.294 378.007,461.847 402.733,422.294 378.002,408.151 "/>
<path style="fill:#FFCDAC;" d="M420.678,338.964v26.512c0,23.569-19.107,42.675-42.675,42.675l0,0l0,0
	c-23.569,0-42.675-19.107-42.675-42.675v-26.512"/>
<path style="fill:#BEBEBE;" d="M378.002,294.402L378.002,294.402c-23.569,0-42.675,19.107-42.675,42.675v10.273h20.866
	c13.87,0,27.028-6.141,35.937-16.772l0,0l28.548,16.772v-10.273C420.678,313.508,401.572,294.402,378.002,294.402z"/>
<polygon style="fill:#FFB487;" points="109.243,177.652 133.978,217.204 158.702,177.652 133.973,163.509 "/>
<path style="fill:#FFCDAC;" d="M176.648,94.322v26.512c0,23.569-19.107,42.675-42.675,42.675l0,0l0,0
	c-23.569,0-42.675-19.107-42.675-42.675V94.322"/>
<path style="fill:#F5C86E;" d="M133.973,49.76L133.973,49.76c-23.569,0-42.675,19.107-42.675,42.675v10.273h20.866
	c13.87,0,27.028-6.141,35.937-16.772l0,0l28.548,16.772V92.435C176.648,68.866,157.542,49.76,133.973,49.76z"/>
<path d="M267.969,134.013c0-73.879-60.105-133.985-133.985-133.985S0,60.135,0,134.013s60.105,133.985,133.985,133.985
	S267.969,207.893,267.969,134.013z M61.579,221.986c0.309-13.954,10.364-25.834,24.148-28.383l19.312-3.571
	c0.045-0.008,0.088-0.022,0.134-0.031l20.327,32.504c1.828,2.923,5.031,4.697,8.478,4.697s6.65-1.776,8.478-4.698l20.316-32.5
	c0.042,0.008,0.081,0.021,0.123,0.029l19.321,3.572c13.791,2.551,23.85,14.438,24.15,28.401
	c-19.7,16.234-44.922,25.995-72.382,25.995C106.514,248,81.282,238.231,61.579,221.986z M101.296,112.706h10.867
	c13.979,0,27.287-5.092,37.604-14.194l16.882,9.918v12.404c0,18.019-14.658,32.677-32.676,32.677
	c-18.019,0-32.677-14.658-32.677-32.677L101.296,112.706L101.296,112.706z M101.296,92.709v-0.274
	c0-18.018,14.658-32.676,32.677-32.676c15.351,0,28.264,10.642,31.749,24.934l-12.558-7.377c-4.211-2.474-9.592-1.544-12.728,2.199
	c-7.028,8.386-17.333,13.194-28.274,13.194C112.164,92.709,101.296,92.709,101.296,92.709z M125.108,172.747
	c2.885,0.491,5.843,0.761,8.865,0.761c3.019,0,5.974-0.269,8.855-0.759c0.781,2.259,1.851,4.389,3.189,6.331l-12.042,19.263
	l-12.052-19.272C123.26,177.131,124.329,175.003,125.108,172.747z M19.998,134.013c0-62.852,51.135-113.987,113.987-113.987
	s113.987,51.135,113.987,113.987c0,26.809-9.308,51.481-24.855,70.967c-6.019-15.748-19.872-27.825-37.265-31.039l-19.321-3.572
	c-2.331-0.432-4.382-2.376-4.954-4.696c15.03-9.287,25.07-25.91,25.07-44.839v-28.4c0-29.045-23.629-52.674-52.674-52.674
	S81.298,63.389,81.298,92.434v28.399c0,18.925,10.037,35.545,25.062,44.833c-0.573,2.333-2.62,4.271-4.956,4.702l-19.313,3.571
	c-17.385,3.215-31.232,15.281-37.255,31.019C29.299,185.476,19.998,160.812,19.998,134.013z"/>
<path d="M378.015,244.002c-73.879,0-133.985,60.105-133.985,133.985s60.105,133.985,133.985,133.985S512,451.866,512,377.987
	S451.894,244.002,378.015,244.002z M305.628,465.974c0.415-13.852,10.437-25.613,24.143-28.147l19.313-3.571
	c0.045-0.008,0.088-0.022,0.133-0.031l20.326,32.503c1.827,2.923,5.031,4.697,8.478,4.697s6.65-1.776,8.478-4.698l20.317-32.501
	c0.042,0.008,0.081,0.021,0.123,0.028l19.322,3.573c13.706,2.534,23.728,14.293,24.144,28.145
	c-19.701,16.237-44.926,26.001-72.389,26.001C350.553,491.974,325.327,482.211,305.628,465.974z M345.339,356.93h10.867
	c13.98,0,27.288-5.092,37.603-14.195l16.883,9.919v12.404c0,18.018-14.658,32.676-32.677,32.676
	c-18.018,0-32.676-14.658-32.676-32.676L345.339,356.93L345.339,356.93z M345.339,336.933v-0.274
	c0-18.018,14.658-32.676,32.676-32.676c15.351,0,28.265,10.641,31.75,24.934l-12.559-7.378c-4.21-2.475-9.593-1.545-12.729,2.199
	c-7.026,8.386-17.331,13.195-28.272,13.195L345.339,336.933L345.339,336.933z M369.15,416.969c2.885,0.491,5.843,0.761,8.865,0.761
	c3.019,0,5.974-0.269,8.855-0.759c0.781,2.26,1.851,4.389,3.19,6.332l-12.042,19.263l-12.052-19.273
	C367.302,421.354,368.371,419.226,369.15,416.969z M429.894,418.164l-19.322-3.574c-2.33-0.43-4.382-2.377-4.954-4.695
	c15.03-9.287,25.071-25.909,25.071-44.838v-28.399c0-29.045-23.63-52.674-52.675-52.674s-52.674,23.629-52.674,52.674v28.399
	c0,18.925,10.037,35.544,25.061,44.832c-0.572,2.332-2.619,4.272-4.955,4.703l-19.313,3.571
	c-17.327,3.204-31.138,15.201-37.194,30.862c-15.581-19.498-24.913-44.197-24.913-71.038c0-62.852,51.135-113.987,113.987-113.987
	S492,315.136,492,377.988c0,26.841-9.331,51.54-24.912,71.038C461.035,433.363,447.222,421.367,429.894,418.164z"/>
<path d="M447.949,214.134c-2.63,0-5.209,1.06-7.069,2.92c-1.86,1.87-2.93,4.449-2.93,7.079s1.069,5.199,2.93,7.069
	c1.86,1.859,4.44,2.93,7.069,2.93s5.209-1.07,7.068-2.93c1.86-1.87,2.931-4.439,2.931-7.069s-1.07-5.209-2.931-7.079
	C453.159,215.194,450.579,214.134,447.949,214.134z"/>
<path d="M299.228,88.237c1.953,1.952,4.511,2.929,7.07,2.929s5.117-0.977,7.07-2.929c3.905-3.905,3.905-10.236,0-14.141
	l-0.076-0.076h124.659v112.987c0,5.521,4.477,9.999,9.999,9.999s9.999-4.477,9.999-9.999V64.021c0-5.521-4.477-9.999-9.999-9.999
	H313.292l0.076-0.076c3.905-3.905,3.905-10.236,0-14.141c-3.906-3.904-10.235-3.904-14.141,0L282.081,56.95
	c-3.905,3.905-3.905,10.236,0,14.141L299.228,88.237z"/>
<path d="M410.284,177.008c-2.63,0-5.209,1.069-7.069,2.93s-2.93,4.439-2.93,7.069c0,2.63,1.069,5.209,2.93,7.068
	c1.86,1.86,4.439,2.931,7.069,2.931c2.64,0,5.209-1.07,7.068-2.931c1.86-1.859,2.931-4.438,2.931-7.068
	c0-2.63-1.07-5.209-2.931-7.069C415.493,178.078,412.913,177.008,410.284,177.008z"/>
<path d="M417.352,139.942c-1.859-1.86-4.429-2.93-7.068-2.93c-2.63,0-5.199,1.069-7.069,2.93c-1.86,1.86-2.93,4.439-2.93,7.069
	s1.069,5.209,2.93,7.068c1.87,1.86,4.449,2.931,7.069,2.931c2.63,0,5.209-1.07,7.068-2.931c1.87-1.859,2.931-4.438,2.931-7.068
	S419.223,141.802,417.352,139.942z"/>
<path d="M417.352,99.947c-1.859-1.86-4.438-2.93-7.068-2.93s-5.209,1.069-7.069,2.93s-2.93,4.439-2.93,7.069s1.069,5.209,2.93,7.068
	c1.86,1.86,4.439,2.931,7.069,2.931s5.209-1.07,7.068-2.931c1.87-1.859,2.931-4.438,2.931-7.068S419.223,101.807,417.352,99.947z"/>
<path d="M56.924,278.926c-1.86,1.86-2.93,4.439-2.93,7.069s1.069,5.209,2.93,7.068c1.86,1.86,4.439,2.931,7.069,2.931
	c2.63,0,5.209-1.07,7.068-2.931c1.86-1.859,2.931-4.438,2.931-7.068s-1.07-5.209-2.931-7.069c-1.859-1.86-4.438-2.93-7.068-2.93
	C61.364,275.997,58.784,277.067,56.924,278.926z"/>
<path d="M212.715,423.762c-3.906-3.904-10.235-3.904-14.141,0c-3.905,3.905-3.905,10.236,0,14.141l0.076,0.076H73.992V324.992
	c0-5.521-4.477-9.999-9.999-9.999s-9.999,4.477-9.999,9.999v122.986c0,5.521,4.477,9.999,9.999,9.999h134.657l-0.076,0.076
	c-3.905,3.905-3.905,10.236,0,14.141c1.953,1.952,4.511,2.929,7.07,2.929c2.559,0,5.117-0.977,7.07-2.929l17.145-17.145
	c3.905-3.905,3.905-10.236,0-14.141L212.715,423.762z"/>
<path d="M108.728,317.922c-1.86-1.86-4.439-2.93-7.069-2.93c-2.64,0-5.209,1.069-7.069,2.93c-1.87,1.86-2.93,4.439-2.93,7.069
	c0,2.63,1.06,5.209,2.93,7.068c1.86,1.86,4.439,2.931,7.069,2.931s5.199-1.07,7.069-2.931c1.859-1.859,2.93-4.438,2.93-7.068
	C111.658,322.361,110.588,319.782,108.728,317.922z"/>
<path d="M108.728,357.917c-1.87-1.86-4.439-2.93-7.069-2.93s-5.209,1.069-7.069,2.93c-1.87,1.86-2.93,4.439-2.93,7.069
	s1.06,5.209,2.93,7.068c1.86,1.86,4.43,2.931,7.069,2.931c2.63,0,5.199-1.07,7.069-2.931c1.859-1.859,2.93-4.439,2.93-7.068
	S110.588,359.777,108.728,357.917z"/>
<path d="M101.659,394.983c-2.64,0-5.209,1.069-7.069,2.93c-1.87,1.86-2.93,4.439-2.93,7.069s1.06,5.209,2.93,7.068
	c1.86,1.86,4.43,2.931,7.069,2.931c2.63,0,5.209-1.07,7.069-2.931c1.859-1.859,2.93-4.439,2.93-7.068s-1.07-5.209-2.93-7.069
	S104.289,394.983,101.659,394.983z"/>
<g>
</g>
<g>
</g>
<g>
</g>
<g>
</g>
<g>
</g>
<g>
</g>
<g>
</g>
<g>
</g>
<g>
</g>
<g>
</g>
<g>
</g>
<g>
</g>
<g>
</g>
<g>
</g>
<g>
</g>
</svg>
