<?xml version="1.0" encoding="iso-8859-1"?>
<!-- Generator: Adobe Illustrator 19.0.0, SVG Export Plug-In . SVG Version: 6.00 Build 0)  -->
<svg version="1.1" id="Capa_1" xmlns="http://www.w3.org/2000/svg" xmlns:xlink="http://www.w3.org/1999/xlink" x="0px" y="0px"
	 viewBox="0 0 512.001 512.001" style="enable-background:new 0 0 512.001 512.001;" xml:space="preserve">
<path style="fill:#F5B955;" d="M276.826,310.476v-112.81c0-43.804,36.343-79.313,81.174-79.313l0,0
	c44.831,0,81.174,35.51,81.174,79.313v112.81H276.826z"/>
<rect x="121.999" y="384" style="fill:#FFB487;" width="379.99" height="117.997"/>
<path style="fill:#78D2FA;" d="M266.502,10H141.506c-16.292,0-29.499,13.208-29.499,29.499v44.999
	c0,16.292,13.208,29.499,29.499,29.499h82.165l32.332,32.332v-32.332h10.5c16.292,0,29.499-13.208,29.499-29.499V39.499
	C296.001,23.207,282.794,10,266.502,10z"/>
<path style="fill:#6E87F5;" d="M145.655,374.417v5.839c0,10.684,7.624,19.845,18.13,21.787l26.259,4.855
	c25.474,4.709,43.96,26.926,43.96,52.832V502H10.009v-42.272c0-25.905,18.485-48.121,43.958-52.832l26.247-4.853
	c10.505-1.942,18.129-11.105,18.129-21.787v-5.84"/>
<path style="fill:#FFCDAC;" d="M122.006,408.163l33.446-9.537c-5.963-4.016-9.798-10.805-9.798-18.37v-0.897H98.343v0.898
	c0,7.564-3.833,14.351-9.793,18.367L122.006,408.163z"/>
<path style="fill:#878791;" d="M122.006,224.766L122.006,224.766c-32.032,0-57.998,25.966-57.998,57.998v38.596
	c0,32.031,25.966,57.998,57.998,57.998l0,0l0,0c32.031,0,57.998-25.966,57.998-57.998v-38.596
	C180.005,250.732,154.037,224.766,122.006,224.766z"/>
<path style="fill:#4BB9F5;" d="M379.114,274.003v5.214c0,9.539,6.807,17.72,16.187,19.453l23.446,4.335
	c22.744,4.205,39.25,24.041,39.25,47.171v33.828H258.002v-33.829c0-23.129,16.505-42.965,39.248-47.171l23.435-4.333
	c9.38-1.734,16.187-9.915,16.187-19.453v-5.214h42.242V274.003z"/>
<path style="fill:#FFB487;" d="M358.014,344.005l33.919-46.271c-7.598-2.853-12.819-10.164-12.819-18.518v-5.214h-42.242v5.214
	c0,8.346-5.21,15.652-12.796,18.51L358.014,344.005z"/>
<path style="fill:#FFCDAC;" d="M331.424,194.759H306v32.188c0,28.718,23.28,51.999,51.999,51.999l0,0l0,0
	c28.718,0,51.999-23.28,51.999-51.999v-32.188l-34.785-20.436C364.359,187.276,348.325,194.759,331.424,194.759z"/>
<path style="fill:#A5DC69;" d="M164.505,64.012H39.508c-16.292,0-29.499,13.208-29.499,29.499v54.999
	c0,16.292,13.208,29.499,29.499,29.499h10.5v43.749l43.749-43.749h70.748c16.292,0,29.499-13.208,29.499-29.499V93.511
	C194.004,77.219,180.797,64.012,164.505,64.012z"/>
<rect x="284.005" y="384" style="fill:#FFFFFF;" width="147.996" height="73.998"/>
<path d="M501.996,374.004h-33.999v-23.828c0-16.749-7.168-32.063-18.824-42.747V197.666c0-49.247-40.9-89.312-91.173-89.312
	s-91.173,40.065-91.173,89.312v109.761c-11.656,10.683-18.824,25.998-18.824,42.747v23.829h-20.499c-5.523,0-10,4.478-10,10
	c0,5.522,4.477,10,10,10h30.499h16V458c0,5.522,4.477,10,10,10h34.999c5.523,0,10-4.478,10-10s-4.477-10-10-10h-24.999v-53.999
	h127.997v53.999h-26.999c-5.523,0-10,4.478-10,10s4.477,10,10,10h36.999c5.523,0,10-4.478,10-10v-63.998h16h33.999V492H244.003
	v-32.27c0-30.725-21.928-57.078-52.142-62.664l-26.259-4.854c-1.246-0.23-2.411-0.656-3.483-1.224
	c-0.608-0.52-1.278-0.958-1.989-1.318c-2.714-2.218-4.423-5.564-4.469-9.26c20.493-11.727,34.343-33.793,34.343-59.048v-38.597
	c0-37.494-30.504-67.998-67.998-67.998s-67.998,30.504-67.998,67.998v38.597c0,25.249,13.844,47.312,34.329,59.04
	c-0.044,3.712-1.765,7.072-4.498,9.291c-0.686,0.352-1.334,0.775-1.924,1.276c-1.082,0.579-2.26,1.011-3.52,1.244l-26.247,4.854
	c-30.212,5.586-52.141,31.939-52.141,62.664v42.271c0,5.522,4.477,10,10,10h223.994h267.993c5.523,0,10-4.478,10-10V384.005
	C511.996,378.481,507.519,374.004,501.996,374.004z M286.826,197.666c0-38.219,31.928-69.312,71.174-69.312
	s71.174,31.094,71.174,69.312v97.803c-2.774-0.969-5.644-1.749-8.609-2.297l-23.445-4.335c-4.216-0.78-7.372-4.196-7.914-8.353
	c18.398-10.766,30.792-30.726,30.792-53.539v-32.187c0-3.546-1.877-6.826-4.935-8.622L380.278,165.7
	c-4.213-2.476-9.594-1.544-12.73,2.199c-8.979,10.714-22.145,16.859-36.124,16.859H306c-5.523,0-10,4.478-10,10v32.187
	c0,22.807,12.388,42.764,30.78,53.532c-0.539,4.161-3.696,7.58-7.914,8.361l-23.435,4.333c-2.964,0.548-5.834,1.328-8.607,2.297
	v-97.801H286.826z M377.448,264.153c-1.735,0.292-3.319,1.021-4.628,2.084c-4.612,1.746-9.605,2.709-14.821,2.709
	c-5.227,0-10.229-0.968-14.849-2.72c-1.302-1.052-2.874-1.777-4.595-2.07c-13.393-7.027-22.555-21.064-22.555-37.209v-22.187h15.425
	c17.03,0,33.215-6.404,45.544-17.807l23.029,13.529v26.465C399.999,243.088,390.839,257.124,377.448,264.153z M345.633,287.702
	c3.998,0.813,8.133,1.242,12.366,1.242c4.229,0,8.36-0.429,12.354-1.24c1.409,4.739,3.965,9.015,7.385,12.469l-19.732,26.918
	l-19.747-26.927C341.673,296.712,344.225,292.439,345.633,287.702z M431.998,374.004H284.002h-16v-23.829
	c0-18.308,13.066-34.01,31.066-37.338l20.852-3.855l30.021,40.937c1.884,2.568,4.879,4.086,8.065,4.086s6.181-1.519,8.064-4.088
	l30.007-40.934l20.851,3.855c18.002,3.329,31.068,19.031,31.068,37.338v23.828H431.998z M74.007,321.36v-38.597
	c0-26.467,21.532-47.999,47.999-47.999s47.999,21.531,47.999,47.999v38.597c0,26.467-21.532,47.999-47.999,47.999
	S74.007,347.828,74.007,321.36z M122.006,389.358c4.992,0,9.855-0.556,14.544-1.582c0.442,1.841,1.043,3.623,1.79,5.332
	l-16.333,4.657l-16.346-4.661c0.746-1.709,1.347-3.491,1.789-5.332C112.141,388.801,117.009,389.358,122.006,389.358z
	 M20.009,476.001h68.388c5.523,0,10-4.478,10-10s-4.477-10-10-10H20.17c1.652-19.455,16.119-35.666,35.615-39.271l26.247-4.854
	c2.743-0.507,5.347-1.358,7.779-2.495l29.452,8.399c0.896,0.256,1.819,0.384,2.742,0.384c0.923,0,1.846-0.128,2.742-0.384
	l29.444-8.396c2.431,1.136,5.033,1.986,7.774,2.493l26.259,4.854c20.73,3.833,35.778,21.916,35.778,42.999v32.27H20.008v-16H20.009z
	"/>
<path d="M39.508,188.009h0.5v33.749c0,4.045,2.437,7.691,6.173,9.239c1.237,0.512,2.536,0.761,3.824,0.761
	c2.603,0,5.161-1.016,7.074-2.929l40.82-40.82h66.606c21.779,0,39.499-17.72,39.499-39.499v-24.513h15.524l29.403,29.404
	c1.914,1.913,4.471,2.929,7.074,2.929c1.288,0,2.587-0.249,3.824-0.761c3.737-1.548,6.173-5.194,6.173-9.239v-22.333h0.5
	c21.779,0,39.499-17.72,39.499-39.499V39.499C306,17.72,288.281,0,266.501,0H141.505c-21.779,0-39.499,17.72-39.499,39.499v14.514
	H39.507c-21.779,0-39.499,17.72-39.499,39.499v54.999C0.01,170.289,17.729,188.009,39.508,188.009z M122.006,39.499
	c0-10.752,8.748-19.499,19.499-19.499h124.997c10.752,0,19.499,8.748,19.499,19.499v44.999c0,10.752-8.748,19.499-19.499,19.499
	h-10.5c-5.523,0-10,4.478-10,10v8.191l-15.262-15.263c-1.875-1.875-4.419-2.929-7.071-2.929h-19.666V93.511
	c0-21.779-17.72-39.499-39.499-39.499h-42.499L122.006,39.499L122.006,39.499z M20.009,93.511c0-10.752,8.748-19.499,19.499-19.499
	h124.997c10.752,0,19.499,8.748,19.499,19.499v54.999c0,10.752-8.748,19.499-19.499,19.499H93.757c-2.652,0-5.196,1.054-7.071,2.929
	l-26.678,26.678V178.01c0-5.522-4.477-10-10-10h-10.5c-10.752,0-19.499-8.748-19.499-19.499
	C20.009,148.511,20.009,93.511,20.009,93.511z"/>
<path d="M345.45,223.388c0-2.63-1.07-5.21-2.93-7.07c-1.86-1.859-4.44-2.93-7.07-2.93c-2.63,0-5.21,1.07-7.07,2.93
	c-1.86,1.86-2.93,4.44-2.93,7.07c0,2.64,1.07,5.21,2.93,7.07c1.86,1.869,4.44,2.93,7.07,2.93c2.63,0,5.21-1.061,7.07-2.93
	C344.38,228.598,345.45,226.017,345.45,223.388z"/>
<path d="M380.549,213.388c-2.63,0-5.21,1.07-7.07,2.93c-1.86,1.86-2.93,4.44-2.93,7.07c0,2.63,1.07,5.21,2.93,7.07
	c1.86,1.869,4.44,2.93,7.07,2.93c2.63,0,5.21-1.061,7.07-2.93c1.86-1.86,2.93-4.44,2.93-7.07c0-2.63-1.07-5.21-2.93-7.07
	C385.759,214.458,383.179,213.388,380.549,213.388z"/>
<path d="M359.21,239.021c-0.725,0.726-1.905,0.725-2.629,0c-3.905-3.906-10.238-3.905-14.142,0.001
	c-3.905,3.905-3.905,10.236,0,14.142c4.261,4.261,9.859,6.392,15.456,6.392c5.598,0,11.195-2.131,15.457-6.392
	c3.905-3.905,3.906-10.236,0-14.142C369.447,235.118,363.116,235.118,359.21,239.021z"/>
<path d="M365.079,465.07c1.86-1.859,2.93-4.439,2.93-7.069c0-2.63-1.07-5.21-2.93-7.07c-1.87-1.86-4.44-2.93-7.07-2.93
	c-2.64,0-5.21,1.069-7.08,2.93c-1.86,1.86-2.93,4.44-2.93,7.07c0,2.63,1.07,5.21,2.93,7.069c1.87,1.86,4.44,2.931,7.08,2.931
	C360.639,468.001,363.21,466.93,365.079,465.07z"/>
<path d="M50.008,113.011h77.998c5.523,0,10-4.478,10-10c0-5.522-4.477-10-10-10H50.008c-5.523,0-10,4.478-10,10
	C40.008,108.533,44.485,113.011,50.008,113.011z"/>
<path d="M153.005,149.01c2.63,0,5.21-1.07,7.07-2.931c1.86-1.859,2.93-4.439,2.93-7.069c0-2.63-1.07-5.21-2.93-7.07
	s-4.44-2.93-7.07-2.93c-2.63,0-5.21,1.069-7.07,2.93c-1.86,1.86-2.93,4.44-2.93,7.07c0,2.63,1.07,5.21,2.93,7.069
	C147.795,147.939,150.374,149.01,153.005,149.01z"/>
<path d="M50.008,149.01h65.998c5.523,0,10-4.478,10-10s-4.477-10-10-10H50.008c-5.523,0-10,4.478-10,10S44.485,149.01,50.008,149.01
	z"/>
<path d="M123.266,456.002c-2.63,0-5.21,1.069-7.07,2.93c-1.86,1.86-2.93,4.44-2.93,7.07s1.07,5.21,2.93,7.069
	c1.86,1.86,4.44,2.931,7.07,2.931c2.64,0,5.21-1.07,7.07-2.931c1.87-1.859,2.94-4.439,2.94-7.069s-1.07-5.21-2.94-7.07
	C128.476,457.071,125.906,456.002,123.266,456.002z"/>
<g>
</g>
<g>
</g>
<g>
</g>
<g>
</g>
<g>
</g>
<g>
</g>
<g>
</g>
<g>
</g>
<g>
</g>
<g>
</g>
<g>
</g>
<g>
</g>
<g>
</g>
<g>
</g>
<g>
</g>
</svg>
