<?xml version="1.0" encoding="iso-8859-1"?>
<!-- Generator: Adobe Illustrator 19.0.0, SVG Export Plug-In . SVG Version: 6.00 Build 0)  -->
<svg version="1.1" id="Capa_1" xmlns="http://www.w3.org/2000/svg" xmlns:xlink="http://www.w3.org/1999/xlink" x="0px" y="0px"
	 viewBox="0 0 512.001 512.001" style="enable-background:new 0 0 512.001 512.001;" xml:space="preserve">
<path style="fill:#F5C86E;" d="M239.097,103.566v6.324c0,6.384-4.555,11.858-10.832,13.019l-22.219,4.108
	c-17.411,3.219-30.045,18.404-30.045,36.11v99.211h159.997v-99.21c0-17.707-12.635-32.891-30.046-36.11l-22.228-4.109
	c-6.277-1.16-10.833-6.635-10.833-13.019v-6.324"/>
<polygon style="fill:#FFB487;" points="235,120.331 256.004,165.984 276.999,120.331 256,106.616 "/>
<path style="fill:#FFCDAC;" d="M295.999,55.665v10.952c0,22.091-17.909,39.999-39.999,39.999l0,0l0,0
	c-22.091,0-39.999-17.909-39.999-39.999V55.665"/>
<path style="fill:#BEBEBE;" d="M256,10L256,10C233.909,10,216,27.908,216,49.999v9.629h19.557c13.001,0,25.333-5.756,33.683-15.721
	l0,0l26.757,15.721v-9.629C295.999,27.907,278.09,10,256,10z"/>
<g>
	<path style="fill:#78D2FA;" d="M256,255.995v126.582c0,12.38-10.036,22.416-22.416,22.416l0,0
		c-12.38,0-22.416-10.036-22.416-22.416V255.995"/>
	<path style="fill:#78D2FA;" d="M300.83,255.995v126.582c0,12.38-10.036,22.416-22.416,22.416l0,0
		c-12.38,0-22.416-10.036-22.416-22.416V255.995"/>
</g>
<path style="fill:#6E87F5;" d="M386.406,125.598L386.406,125.598c-10.042,10.042-10.627,26.181-1.245,36.84
	c26.66,30.293,42.835,70.038,42.835,113.565c0,94.991-77.006,171.997-171.997,171.997S84.003,370.994,84.003,276.003
	c0-43.527,16.174-83.271,42.835-113.565c9.382-10.661,8.797-26.798-1.245-36.84l-0.002-0.002
	c-10.973-10.973-28.99-10.524-39.247,1.121c-34.553,39.232-55.717,90.538-56.327,146.782C28.66,398.433,131.059,502,256.001,502
	c124.815,0,225.996-101.182,225.996-225.997c0-57.133-21.209-109.307-56.174-149.096
	C415.512,115.175,397.45,114.554,386.406,125.598z"/>
<path d="M176.001,277h25.169v1.005c0,5.522,4.477,10,10,10s10-4.478,10-10v-22.01v-0.41h24.852c-0.006,0.137-0.021,0.272-0.021,0.41
	v126.582c0,6.847-5.569,12.416-12.416,12.416c-6.847,0-12.416-5.569-12.416-12.416v-29.24c0-5.522-4.477-10-10-10s-10,4.478-10,10
	v29.24c0,17.874,14.542,32.415,32.415,32.415c8.692,0,16.589-3.445,22.416-9.033c5.827,5.588,13.724,9.033,22.416,9.033
	c17.874,0,32.415-14.542,32.415-32.415V277h25.169c5.523,0,10-4.478,10-10V163.128c0-22.526-16.078-41.848-38.228-45.942
	l-22.229-4.109c-1.536-0.284-2.65-1.624-2.65-3.186v-1.155C296.773,99.842,306,84.292,306,66.618v-6.989v-3.963v-5.667
	C306,22.43,283.57,0,256.001,0s-49.999,22.43-49.999,49.999v5.666v3.963v6.989c0,17.67,9.222,33.216,23.098,42.112v1.162
	c0,1.562-1.114,2.901-2.651,3.186l-22.219,4.108c-22.15,4.096-38.227,23.418-38.227,45.943V267
	C166.001,272.522,170.478,277,176.001,277z M290.83,382.577c0,6.847-5.569,12.416-12.416,12.416
	c-6.847,0-12.416-5.569-12.416-12.416V255.995c0-0.138-0.015-0.273-0.021-0.41h24.852v0.41v126.582H290.83z M248.277,116.018
	c2.518,0.392,5.097,0.598,7.723,0.598c2.623,0,5.198-0.206,7.714-0.597c0.473,1.73,1.156,3.375,1.996,4.927l-9.708,21.108
	l-9.717-21.119C247.124,119.386,247.805,117.744,248.277,116.018z M256,96.616c-15.526,0-28.333-11.856-29.848-26.988h9.406
	c13.104,0,25.583-4.718,35.318-13.162l15.124,8.885v1.266C285.999,83.158,272.541,96.616,256,96.616z M256,20
	c13.562,0,25.052,9.046,28.749,21.422l-10.443-6.136c-4.212-2.476-9.593-1.544-12.73,2.199
	c-6.467,7.718-15.951,12.144-26.019,12.144h-9.555C226.202,33.257,239.582,20,256,20z M186.001,163.128
	c0-12.884,9.195-23.936,21.864-26.277l21.868-4.044l17.187,37.356c1.632,3.548,5.18,5.82,9.085,5.82
	c3.905,0,7.453-2.273,9.084-5.821l17.179-37.353l21.867,4.042c12.669,2.343,21.865,13.394,21.865,26.276v93.872h-15.169v-1.004
	v-76.998c0-5.522-4.477-10-10-10c-5.523,0-10,4.478-10,10v56.589h-69.661v-56.589c0-5.522-4.477-10-10-10s-10,4.478-10,10v76.998
	V257H186L186.001,163.128L186.001,163.128z"/>
<path d="M211.17,324.254c2.63,0,5.21-1.07,7.07-2.931c1.86-1.859,2.93-4.439,2.93-7.069c0-2.641-1.07-5.21-2.93-7.07
	c-1.86-1.87-4.44-2.93-7.07-2.93c-2.63,0-5.21,1.06-7.07,2.93c-1.86,1.86-2.93,4.44-2.93,7.07c0,2.63,1.07,5.21,2.93,7.069
	C205.961,323.183,208.54,324.254,211.17,324.254z"/>
<path d="M433.333,120.306c-6.743-7.672-16.459-12.261-26.658-12.59c-10.181-0.318-20.141,3.614-27.339,10.812
	c-13.762,13.763-14.5,35.952-1.68,50.518c26.014,29.56,40.341,67.545,40.341,106.959c0,89.325-72.672,161.997-161.997,161.997
	S94.003,365.33,94.003,276.005c0-39.414,14.327-77.398,40.341-106.959c12.819-14.565,12.082-36.755-1.68-50.518
	c-0.021-0.021-0.042-0.042-0.063-0.063c-7.208-7.175-17.171-11.123-27.332-10.781c-10.272,0.325-19.658,4.737-26.428,12.425
	c-37.319,42.372-58.209,96.81-58.822,153.283c-0.686,63.131,23.658,122.889,68.544,168.266
	c44.872,45.361,104.336,70.344,167.439,70.344c45.616,0,89.883-13.04,128.018-37.708c4.637-3,5.964-9.19,2.965-13.828
	c-3.001-4.637-9.191-5.965-13.828-2.965c-34.89,22.571-75.402,34.501-117.155,34.501c-57.72,0-112.135-22.875-153.221-64.409
	c-41.101-41.551-63.391-96.237-62.764-153.985c0.561-51.685,19.679-101.504,53.832-140.281c3.081-3.497,7.361-5.505,12.053-5.653
	c4.77-0.167,9.249,1.622,12.619,4.994c0.016,0.016,0.031,0.03,0.047,0.046c6.279,6.325,6.619,16.468,0.765,23.119
	c-29.229,33.212-45.328,75.891-45.328,120.172C74.003,376.357,155.646,458,256,458s181.996-81.643,181.996-181.996
	c0-44.281-16.098-86.959-45.328-120.172c-5.868-6.667-5.512-16.842,0.809-23.163c3.354-3.354,7.823-5.133,12.554-4.964
	c4.765,0.153,9.126,2.214,12.28,5.802c34.62,39.396,53.686,90.003,53.686,142.496c0,46.437-14.509,90.682-41.958,127.952
	c-3.275,4.447-2.325,10.707,2.122,13.982s10.707,2.326,13.982-2.122c29.999-40.73,45.855-89.077,45.855-139.811
	C491.996,218.648,471.162,163.354,433.333,120.306z"/>
<path d="M408.738,428.731l-0.936,0.931c-3.926,3.885-3.959,10.216-0.075,14.142c1.956,1.977,4.532,2.967,7.109,2.967
	c2.542,0,5.083-0.963,7.033-2.892l1-0.995c3.908-3.902,3.913-10.233,0.011-14.142C418.977,424.834,412.646,424.829,408.738,428.731z
	"/>
<g>
</g>
<g>
</g>
<g>
</g>
<g>
</g>
<g>
</g>
<g>
</g>
<g>
</g>
<g>
</g>
<g>
</g>
<g>
</g>
<g>
</g>
<g>
</g>
<g>
</g>
<g>
</g>
<g>
</g>
</svg>
