<?xml version="1.0" encoding="iso-8859-1"?>
<!-- Generator: Adobe Illustrator 19.0.0, SVG Export Plug-In . SVG Version: 6.00 Build 0)  -->
<svg version="1.1" id="Capa_1" xmlns="http://www.w3.org/2000/svg" xmlns:xlink="http://www.w3.org/1999/xlink" x="0px" y="0px"
	 viewBox="0 0 512 512" style="enable-background:new 0 0 512 512;" xml:space="preserve">
<path style="fill:#AAE6FF;" d="M416,284.618v-57.236h-30.841c-3.373-15.328-9.4-29.66-17.586-42.484l21.8-21.8l-40.472-40.472
	l-21.8,21.8c-12.824-8.186-27.156-14.213-42.484-17.586V96h-57.236v30.877c-15.306,3.389-29.617,9.424-42.42,17.613l-21.863-21.863
	l-40.472,40.472L144.528,185c-8.153,12.798-14.158,27.094-17.523,42.382H96v57.236h31.042c3.38,15.266,9.394,29.541,17.55,42.318
	l-21.965,21.965l40.472,40.472l21.965-21.965c12.778,8.156,27.053,14.17,42.318,17.55V416h57.236v-31.006
	c15.288-3.365,29.584-9.37,42.382-17.523l21.901,21.901l40.472-40.472l-21.863-21.863c8.189-12.803,14.224-27.114,17.613-42.42H416
	V284.618z"/>
<path style="fill:#FFFFFF;" d="M256,348c-50.81,0-92-41.19-92-92s41.19-92,92-92s92,41.19,92,92S306.81,348,256,348z"/>
<path style="fill:#46C373;" d="M295.89,276.934l-15.769-2.941l-48.301,0.011l-15.71,2.93c-12.817,2.39-22.11,13.577-22.11,26.615
	v20.42C210.354,338.895,232.113,348,256,348s45.646-9.105,62-24.031v-20.42C318,290.51,308.707,279.324,295.89,276.934z"/>
<path style="fill:#FFCDAC;" d="M256.956,207.248h-1.912c-15.778,0-28.568,12.79-28.568,28.568v21.124
	c0,15.778,12.79,28.568,28.568,28.568h1.912c15.778,0,28.568-12.79,28.568-28.568v-21.124
	C285.524,220.038,272.734,207.248,256.956,207.248z"/>
<g>
	<circle style="fill:#FF8C8C;" cx="470" cy="470" r="32"/>
	<circle style="fill:#FF8C8C;" cx="42" cy="42" r="32"/>
</g>
<circle style="fill:#F5B955;" cx="42" cy="470" r="32"/>
<circle style="fill:#A5DC69;" cx="470" cy="42" r="32"/>
<path d="M256,154c-56.243,0-102,45.757-102,102s45.757,102,102,102s102-45.757,102-102S312.243,154,256,154z M204,319.354v-15.805
	c0-8.219,5.864-15.277,13.943-16.785l10.482-1.955c6.928,6.62,16.303,10.699,26.619,10.699h1.912
	c10.316,0,19.691-4.079,26.619-10.699l10.482,1.955c8.079,1.508,13.943,8.566,13.943,16.785v15.805
	C293.839,330.998,275.722,338,256,338S218.161,330.998,204,319.354z M275.524,256.939c0,10.238-8.33,18.568-18.568,18.568h-1.912
	c-10.238,0-18.568-8.33-18.568-18.568v-21.123c0-10.238,8.33-18.568,18.568-18.568h1.912c10.238,0,18.568,8.33,18.568,18.568
	L275.524,256.939L275.524,256.939z M327.303,296.419c-2.871-14.667-14.427-26.49-29.579-29.315l-3.393-0.633
	c0.778-3.05,1.194-6.243,1.194-9.531v-21.123c0-21.267-17.301-38.568-38.568-38.568h-1.912c-21.267,0-38.568,17.302-38.568,38.568
	v21.123c0,3.289,0.416,6.481,1.194,9.531l-3.394,0.633c-15.152,2.826-26.708,14.648-29.579,29.315
	C177.903,284.48,174,270.691,174,256c0-45.215,36.785-82,82-82s82,36.785,82,82C338,270.691,334.097,284.48,327.303,296.419z"/>
<path d="M396.444,341.83L380.1,325.486c5.489-9.762,9.779-20.095,12.816-30.868H416c5.523,0,10-4.478,10-10V266h36
	c5.523,0,10-4.478,10-10s-4.477-10-10-10h-36v-18.618c0-5.522-4.477-10-10-10h-23.038c-3.028-10.793-7.314-21.146-12.803-30.927
	l16.285-16.285c3.905-3.905,3.905-10.237,0-14.143l-40.472-40.472c-3.905-3.904-10.237-3.904-14.143,0l-16.285,16.285
	c-9.782-5.489-20.135-9.776-30.927-12.804V96c0-5.522-4.477-10-10-10h-57.235c-5.523,0-10,4.478-10,10v23.083
	c-10.774,3.036-21.107,7.326-30.869,12.816l-16.343-16.344c-3.905-3.904-10.237-3.904-14.143,0l-40.472,40.472
	c-3.905,3.905-3.905,10.237,0,14.143l16.392,16.392c-5.462,9.751-9.728,20.067-12.745,30.82H96c-5.523,0-10,4.478-10,10V246H50
	c-5.523,0-10,4.478-10,10s4.477,10,10,10h36v18.618c0,5.522,4.477,10,10,10h23.249c3.025,10.733,7.295,21.03,12.757,30.762
	l-16.45,16.45c-3.905,3.905-3.905,10.237,0,14.143l40.472,40.472c3.905,3.904,10.237,3.904,14.143,0l16.45-16.45
	c9.732,5.462,20.03,9.732,30.762,12.757V416c0,5.522,4.477,10,10,10h57.235c5.523,0,10-4.478,10-10v-23.202
	c10.751-3.017,21.068-7.283,30.821-12.745l16.392,16.392c3.905,3.904,10.237,3.904,14.143,0l40.472-40.472
	C400.349,352.067,400.349,345.735,396.444,341.83z M375.36,282.456c-3.09,13.954-8.566,27.142-16.274,39.194
	c-2.53,3.955-1.967,9.139,1.353,12.459l14.792,14.792l-26.33,26.329l-14.83-14.83c-3.315-3.315-8.49-3.883-12.444-1.363
	c-12.052,7.678-25.227,13.125-39.159,16.19c-4.585,1.009-7.851,5.072-7.851,9.767V406h-37.235v-21.042
	c0-4.689-3.259-8.75-7.838-9.764c-13.915-3.08-27.07-8.536-39.1-16.215c-3.955-2.524-9.133-1.96-12.452,1.357l-14.894,14.894
	l-26.33-26.329l14.894-14.894c3.318-3.318,3.882-8.497,1.358-12.452c-7.678-12.028-13.134-25.184-16.215-39.1
	c-1.014-4.579-5.074-7.838-9.764-7.838H106v-37.236h21.006c4.694,0,8.757-3.266,9.766-7.851c3.067-13.935,8.514-27.109,16.19-39.158
	c2.519-3.955,1.953-9.129-1.363-12.444l-14.831-14.83l26.33-26.329l14.792,14.792c3.321,3.319,8.503,3.883,12.459,1.353
	c12.052-7.709,25.239-13.184,39.194-16.273c4.579-1.014,7.838-5.073,7.838-9.764V106h37.235v20.841c0,4.694,3.266,8.758,7.851,9.767
	c13.971,3.074,27.178,8.541,39.252,16.248c3.956,2.525,9.135,1.961,12.451-1.357l14.729-14.729l26.33,26.329L360.5,177.828
	c-3.318,3.318-3.883,8.497-1.358,12.452c7.707,12.072,13.173,25.278,16.249,39.252c1.009,4.585,5.072,7.851,9.766,7.851H406v37.236
	h-20.876C380.434,274.618,376.374,277.877,375.36,282.456z"/>
<path d="M470,428c-19.713,0-36.288,13.655-40.787,32H379.5v-44c0-5.522-4.477-10-10-10s-10,4.478-10,10v54c0,5.522,4.477,10,10,10
	h59.713c4.499,18.345,21.075,32,40.787,32c23.159,0,42-18.841,42-42S493.159,428,470,428z M470,492c-12.131,0-22-9.869-22-22
	s9.869-22,22-22s22,9.869,22,22S482.131,492,470,492z"/>
<path d="M42,84c19.713,0,36.288-13.655,40.787-32H132.5v44c0,5.522,4.477,10,10,10s10-4.478,10-10V42c0-5.522-4.477-10-10-10H82.787
	C78.288,13.655,61.713,0,42,0C18.841,0,0,18.841,0,42S18.841,84,42,84z M42,20c12.131,0,22,9.869,22,22s-9.869,22-22,22
	s-22-9.869-22-22S29.869,20,42,20z"/>
<path d="M142.5,406c-5.523,0-10,4.478-10,10v44H82.787C78.288,441.655,61.713,428,42,428c-23.159,0-42,18.841-42,42s18.841,42,42,42
	c19.713,0,36.288-13.655,40.787-32H142.5c5.523,0,10-4.478,10-10v-54C152.5,410.478,148.023,406,142.5,406z M42,492
	c-12.131,0-22-9.869-22-22s9.869-22,22-22s22,9.869,22,22S54.131,492,42,492z"/>
<path d="M369.5,106c5.523,0,10-4.478,10-10V52h49.713c4.499,18.345,21.075,32,40.787,32c23.159,0,42-18.841,42-42S493.159,0,470,0
	c-19.713,0-36.288,13.655-40.787,32H369.5c-5.523,0-10,4.478-10,10v54C359.5,101.522,363.977,106,369.5,106z M470,20
	c12.131,0,22,9.869,22,22s-9.869,22-22,22s-22-9.869-22-22S457.869,20,470,20z"/>
<path d="M502,246c-2.63,0-5.21,1.069-7.07,2.93c-1.86,1.86-2.93,4.44-2.93,7.07s1.07,5.21,2.93,7.069
	c1.86,1.86,4.44,2.931,7.07,2.931s5.21-1.07,7.07-2.931c1.86-1.859,2.93-4.439,2.93-7.069s-1.07-5.21-2.93-7.07S504.63,246,502,246z
	"/>
<path d="M10,266c2.63,0,5.21-1.07,7.07-2.931C18.93,261.21,20,258.63,20,256s-1.07-5.21-2.93-7.07S12.63,246,10,246
	s-5.21,1.069-7.07,2.93C1.07,250.79,0,253.37,0,256s1.07,5.21,2.93,7.069C4.79,264.93,7.37,266,10,266z"/>
<path d="M208,52h0.099c5.523,0,9.951-4.478,9.951-10S213.523,32,208,32s-10,4.478-10,10S202.477,52,208,52z"/>
<path d="M255.951,52h0.099c5.523,0,9.951-4.478,9.951-10s-4.526-10-10.049-10s-10,4.478-10,10S250.428,52,255.951,52z"/>
<path d="M303.901,52H304c5.523,0,9.951-4.478,9.951-10s-4.526-10-10.049-10s-10,4.478-10,10S298.378,52,303.901,52z"/>
<path d="M208,460c-5.523,0-10,4.478-10,10s4.477,10,10,10h0.099c5.523,0,9.951-4.478,9.951-10S213.523,460,208,460z"/>
<path d="M255.951,460c-5.523,0-10,4.478-10,10s4.477,10,10,10h0.099c5.523,0,9.951-4.478,9.951-10S261.474,460,255.951,460z"/>
<path d="M303.901,460c-5.523,0-10,4.478-10,10s4.477,10,10,10H304c5.523,0,9.951-4.478,9.951-10S309.424,460,303.901,460z"/>
<g>
</g>
<g>
</g>
<g>
</g>
<g>
</g>
<g>
</g>
<g>
</g>
<g>
</g>
<g>
</g>
<g>
</g>
<g>
</g>
<g>
</g>
<g>
</g>
<g>
</g>
<g>
</g>
<g>
</g>
</svg>
