<?xml version="1.0" encoding="iso-8859-1"?>
<!-- Generator: Adobe Illustrator 19.0.0, SVG Export Plug-In . SVG Version: 6.00 Build 0)  -->
<svg version="1.1" id="Capa_1" xmlns="http://www.w3.org/2000/svg" xmlns:xlink="http://www.w3.org/1999/xlink" x="0px" y="0px"
	 viewBox="0 0 512 512" style="enable-background:new 0 0 512 512;" xml:space="preserve">
<polygon style="fill:#D7D7E6;" points="303.176,289.665 304.015,289.665 304.015,163.175 416.454,163.175 428.007,124.009 
	83.994,124.009 95.546,163.175 207.986,163.175 207.986,289.665 "/>
<polygon style="fill:#FF5A5A;" points="272.648,218.41 256.107,124.009 239.571,218.41 256.113,246.668 "/>
<path style="fill:#F5C86E;" d="M255.983,10.016L255.983,10.016c-26.064,0-47.193,21.129-47.193,47.193v3.361h23.074
	c15.338,0,29.89-6.792,39.741-18.548l0,0l31.57,18.548v-3.361C303.176,31.145,282.047,10.016,255.983,10.016z"/>
<path style="fill:#FFCDAC;" d="M303.176,54.013v22.802c0,26.064-21.129,47.193-47.193,47.193l0,0l0,0
	c-26.064,0-47.193-21.129-47.193-47.193V54.013"/>
<rect x="207.986" y="289.661" style="fill:#6E87F5;" width="95.994" height="172.319"/>
<g>
	<path style="fill:#AAE6FF;" d="M428.007,448.884L428.007,448.884c-40.866,0-73.995-33.129-73.995-73.995l0,0h147.99l0,0
		C502.002,415.755,468.873,448.884,428.007,448.884z"/>
	<path style="fill:#AAE6FF;" d="M83.994,448.884L83.994,448.884c-40.866,0-73.995-33.129-73.995-73.995l0,0h147.99l0,0
		C157.99,415.755,124.861,448.884,83.994,448.884z"/>
</g>
<rect x="159.659" y="461.989" style="fill:#BEBEBE;" width="192.657" height="39.997"/>
<path d="M303.98,364.893c-2.641,0-5.21,1.07-7.07,2.931c-1.86,1.85-2.93,4.43-2.93,7.069c0,2.631,1.069,5.21,2.93,7.07
	s4.44,2.93,7.07,2.93c2.63,0,5.21-1.069,7.069-2.93c1.86-1.86,2.931-4.439,2.931-7.07c0-2.64-1.07-5.21-2.931-7.069
	C309.189,365.963,306.61,364.893,303.98,364.893z"/>
<path d="M117.652,255.04c-1.86,1.859-2.931,4.439-2.931,7.069c0,2.631,1.07,5.21,2.931,7.07c1.869,1.86,4.439,2.93,7.069,2.93
	c2.63,0,5.21-1.069,7.07-2.93c1.86-1.861,2.93-4.439,2.93-7.07c0-2.63-1.06-5.21-2.93-7.069c-1.86-1.86-4.43-2.931-7.07-2.931
	C122.092,252.109,119.512,253.18,117.652,255.04z"/>
<path d="M511.589,372.063c0.001-0.001,0.002-0.002,0.003-0.002l-0.033-0.112c-0.005-0.016-0.009-0.033-0.015-0.05L437.597,121.18
	c-0.001-0.001-0.003-0.001-0.004-0.002c-0.332-1.124-0.859-2.195-1.579-3.157c-1.888-2.524-4.855-4.012-8.008-4.012H299.376
	c8.591-10.008,13.8-23,13.8-37.194V54.013c0-0.779-0.098-1.535-0.267-2.263c-2.759-28.984-27.232-51.734-56.926-51.734
	s-54.167,22.749-56.926,51.734c-0.168,0.728-0.267,1.483-0.267,2.263v22.802c0,14.193,5.209,27.185,13.8,37.194H83.994
	c-0.006,0-0.012,0.001-0.019,0.001v-0.001c-0.025,0-0.048,0.005-0.073,0.005c-3.119,0.029-6.048,1.506-7.916,4.006
	c-0.72,0.963-1.248,2.036-1.58,3.16c-0.001,0-0.002-0.001-0.003-0.001L0.456,371.899c-0.005,0.016-0.01,0.033-0.015,0.05
	l-0.033,0.112c0.001,0.001,0.002,0.003,0.003,0.004C0.147,372.961,0,373.908,0,374.89c0,46.314,37.68,83.994,83.994,83.994
	s83.994-37.681,83.994-83.994c0-0.982-0.147-1.929-0.412-2.826c0.001-0.001,0.002-0.002,0.003-0.003l-0.033-0.112
	c-0.005-0.016-0.009-0.033-0.015-0.05l-21.853-74.092c-1.563-5.296-7.116-8.325-12.42-6.763c-5.297,1.563-8.324,7.124-6.763,12.42
	l18.118,61.426H23.373l60.621-205.535l1.961,6.649c0.169,0.572,0.389,1.117,0.648,1.637l17.809,59.558
	c1.583,5.293,7.156,8.297,12.444,6.717c5.292-1.582,8.298-7.154,6.717-12.444l-14.441-48.297h88.855v116.49v162.322h-38.33
	c-5.522,0-9.999,4.478-9.999,9.999v39.997c0,5.522,4.478,9.999,9.999,9.999H352.31c5.522,0,9.999-4.478,9.999-9.999v-39.997
	c0-5.522-4.478-9.999-9.999-9.999h-38.33v-35.665c0-5.522-4.478-9.999-9.999-9.999s-9.999,4.478-9.999,9.999v35.665h-27.998V329.563
	c0-5.522-4.478-9.999-9.999-9.999s-9.999,4.478-9.999,9.999v122.424h-27.998V299.664h75.995v38.099c0,5.522,4.478,9.999,9.999,9.999
	s9.999-4.478,9.999-9.999v-47.421c0.015-0.225,0.034-0.448,0.034-0.677v-116.49h89.066l-58.612,198.725
	c-0.005,0.016-0.01,0.033-0.015,0.05l-0.033,0.112c0.001,0,0.002,0.001,0.004,0.001c-0.264,0.897-0.412,1.845-0.412,2.828
	c0,46.314,37.68,83.994,83.995,83.994c46.314,0,83.993-37.681,83.993-83.994C512,373.907,511.853,372.96,511.589,372.063z
	 M303.98,471.986h38.33v19.999H169.656v-19.999h38.33H303.98z M426.037,166.031c0.003-0.009,0.006-0.018,0.009-0.027l1.96-6.648
	l60.62,205.533h-121.24L426.037,166.031z M262.167,216.525l-6.056,10.347l-6.058-10.348l6.056-34.568L262.167,216.525z
	 M255.983,20.016c14.653,0,27.354,8.518,33.413,20.862l-12.725-7.477c-4.21-2.474-9.593-1.544-12.728,2.199
	c-7.973,9.514-19.666,14.971-32.078,14.971h-12.481C222.522,33.219,237.74,20.016,255.983,20.016z M218.789,76.816V70.57h13.075
	c15.459,0,30.161-5.728,41.455-15.943l19.857,11.666v10.522c0,20.509-16.686,37.194-37.194,37.194S218.789,97.325,218.789,76.816z
	 M83.994,438.886c-31.887,0-58.401-23.441-63.216-53.996H147.21C142.396,415.443,115.881,438.886,83.994,438.886z M304.014,153.176
	c-5.522,0-9.999,4.478-9.999,9.999v116.49h-76.029v-116.49c0-5.522-4.478-9.999-9.999-9.999H103.152l-5.731-19.168h146.783
	l-14.481,82.677c-0.409,2.332,0.023,4.734,1.22,6.777l16.541,28.258c1.794,3.065,5.079,4.948,8.63,4.948
	c3.552,0,6.836-1.884,8.629-4.949l16.535-28.258c1.195-2.044,1.628-4.445,1.219-6.776l-14.486-82.676h146.62l-5.654,19.168H304.014z
	 M428.007,438.886L428.007,438.886c-31.888,0-58.402-23.441-63.217-53.996H491.22C486.407,415.443,459.892,438.886,428.007,438.886z
	"/>
<path d="M256.11,83.368c-3.804-2.106-8.683-1.543-11.909,1.683c-3.905,3.905-3.905,10.236,0,14.142
	c3.284,3.283,7.596,4.925,11.909,4.925c4.313,0,8.625-1.642,11.909-4.925c3.905-3.905,3.905-10.236,0-14.142
	C264.793,81.827,259.914,81.263,256.11,83.368z"/>
<g>
</g>
<g>
</g>
<g>
</g>
<g>
</g>
<g>
</g>
<g>
</g>
<g>
</g>
<g>
</g>
<g>
</g>
<g>
</g>
<g>
</g>
<g>
</g>
<g>
</g>
<g>
</g>
<g>
</g>
</svg>
