<?xml version="1.0" encoding="iso-8859-1"?>
<!-- Generator: Adobe Illustrator 19.0.0, SVG Export Plug-In . SVG Version: 6.00 Build 0)  -->
<svg version="1.1" id="Capa_1" xmlns="http://www.w3.org/2000/svg" xmlns:xlink="http://www.w3.org/1999/xlink" x="0px" y="0px"
	 viewBox="0 0 512 512" style="enable-background:new 0 0 512 512;" xml:space="preserve">
<path style="fill:#FFCDAC;" d="M320.214,262.107V302c0,35.465-28.75,64.214-64.214,64.214l0,0l0,0
	c-35.465,0-64.214-28.75-64.214-64.214v-39.893H320.214z"/>
<path style="fill:#F5C86E;" d="M256,195.054L256,195.054c-35.465,0-64.214,28.75-64.214,64.214v15.458h31.397
	c20.871,0,40.67-9.241,54.075-25.237l0,0l42.957,25.237v-15.458C320.214,223.803,291.465,195.054,256,195.054z"/>
<path style="fill:#4BB9F5;" d="M282.183,360.743v6.465c0,11.828,8.441,21.973,20.072,24.123l29.074,5.375
	C359.533,401.92,380,426.517,380,455.199V502H132v-46.802c0-28.681,20.466-53.278,48.669-58.493l29.06-5.373
	c11.631-2.151,20.071-12.295,20.071-24.123v-6.466"/>
<polygon style="fill:#FFCDAC;" points="280.708,376.883 256.127,401.464 231.546,376.883 256,366.215 "/>
<polygon style="fill:#FFFFFF;" points="277.118,478.115 256.123,398.323 235.135,478.115 256.131,502 "/>
<circle style="fill:#FFB487;" cx="256" cy="50" r="40"/>
<circle style="fill:#FF8C8C;" cx="89.94" cy="90.05" r="40"/>
<circle style="fill:#D7FA91;" cx="462" cy="256.14" r="40"/>
<circle style="fill:#FF8C8C;" cx="422" cy="89.94" r="40"/>
<circle style="fill:#D7FA91;" cx="50" cy="256.14" r="40"/>
<path d="M356.007,406.425c-3.945,3.865-4.01,10.196-0.146,14.142c0.202,0.206,0.401,0.413,0.6,0.622
	c1.966,2.065,4.603,3.105,7.245,3.105c2.476,0,4.957-0.914,6.893-2.757c4-3.808,4.156-10.137,0.349-14.138
	c-0.265-0.277-0.53-0.555-0.799-0.829C366.283,402.626,359.952,402.561,356.007,406.425z"/>
<path d="M238.79,299.939c0-2.63-1.061-5.199-2.931-7.069c-1.859-1.86-4.43-2.931-7.069-2.931c-2.63,0-5.21,1.07-7.07,2.931
	c-1.86,1.859-2.93,4.439-2.93,7.069c0,2.641,1.069,5.21,2.93,7.08c1.87,1.86,4.44,2.931,7.07,2.931s5.21-1.07,7.069-2.931
	C237.729,305.149,238.79,302.58,238.79,299.939z"/>
<path d="M283.46,309.939c2.63,0,5.21-1.06,7.07-2.92c1.859-1.87,2.93-4.439,2.93-7.08c0-2.63-1.07-5.199-2.93-7.069
	c-1.86-1.86-4.44-2.931-7.07-2.931s-5.21,1.07-7.07,2.931c-1.859,1.87-2.93,4.439-2.93,7.069c0,2.641,1.07,5.21,2.93,7.08
	C278.25,308.88,280.83,309.939,283.46,309.939z"/>
<path d="M273.235,334.535c3.905-3.905,3.905-10.237,0-14.143c-3.906-3.904-10.236-3.904-14.143,0
	c-1.114,1.115-2.416,1.281-3.093,1.281s-1.979-0.166-3.093-1.281c-3.906-3.904-10.236-3.904-14.143,0
	c-3.905,3.905-3.905,10.237,0,14.143c4.752,4.752,10.994,7.127,17.235,7.127C262.239,341.662,268.483,339.287,273.235,334.535z"/>
<path d="M246,98.994v45.993c0,5.522,4.478,10,10,10s10-4.478,10-10V98.994c22.795-4.646,40-24.847,40-48.994c0-27.57-22.43-50-50-50
	s-50,22.43-50,50C206,74.146,223.205,94.348,246,98.994z M256,20c16.542,0,30,13.458,30,30c0,16.486-13.368,29.905-29.833,29.996
	c-0.056-0.001-0.111-0.008-0.167-0.008s-0.111,0.008-0.167,0.008C239.368,79.905,226,66.486,226,50C226,33.458,239.458,20,256,20z"
	/>
<path d="M89.939,140.049c10.204,0,19.7-3.079,27.619-8.347l29.37,29.37C148.882,163.023,151.44,164,154,164s5.118-0.977,7.071-2.929
	c3.905-3.905,3.905-10.237,0-14.143l-29.394-29.394c5.215-7.893,8.262-17.338,8.262-27.486c0-27.57-22.43-50-50-50s-50,22.43-50,50
	S62.369,140.049,89.939,140.049z M89.939,60.049c16.542,0,30,13.458,30,30s-13.458,30-30,30s-30-13.458-30-30
	S73.397,60.049,89.939,60.049z"/>
<path d="M413.006,246.138H363c-5.522,0-10,4.478-10,10s4.478,10,10,10h50.006c4.646,22.795,24.847,40,48.994,40
	c27.57,0,50-22.43,50-50s-22.43-50-50-50C437.854,206.138,417.652,223.343,413.006,246.138z M492,256.138c0,16.542-13.458,30-30,30
	s-30-13.458-30-30s13.458-30,30-30S492,239.596,492,256.138z"/>
<path d="M50,306.138c24.146,0,44.348-17.205,48.994-40H149c5.522,0,10-4.478,10-10s-4.478-10-10-10H98.994
	c-4.646-22.795-24.847-40-48.994-40c-27.57,0-50,22.43-50,50S22.43,306.138,50,306.138z M50,226.138c16.542,0,30,13.458,30,30
	s-13.458,30-30,30s-30-13.458-30-30S33.458,226.138,50,226.138z"/>
<path d="M334.04,187.96c2.63,0,5.21-1.07,7.069-2.93c1.86-1.86,2.931-4.44,2.931-7.07s-1.07-5.21-2.931-7.07
	c-1.859-1.859-4.439-2.93-7.069-2.93s-5.21,1.07-7.07,2.93c-1.86,1.86-2.93,4.44-2.93,7.07s1.069,5.21,2.93,7.07
	C328.83,186.89,331.399,187.96,334.04,187.96z"/>
<path d="M358.5,163.5c2.56,0,5.118-0.977,7.071-2.929l28.912-28.912c7.899,5.228,17.356,8.282,27.517,8.282c27.57,0,50-22.43,50-50
	s-22.43-50-50-50s-50,22.43-50,50c0,10.191,3.071,19.675,8.328,27.588l-28.899,28.899c-3.905,3.905-3.905,10.237,0,14.143
	C353.382,162.523,355.94,163.5,358.5,163.5z M422,59.941c16.542,0,30,13.458,30,30s-13.458,30-30,30s-30-13.458-30-30
	S405.458,59.941,422,59.941z"/>
<path d="M502,492H390v-36.801c0-5.522-4.478-10-10-10s-10,4.478-10,10V492h-91.771l6.4-7.284c2.196-2.499,3.006-5.928,2.159-9.146
	l-18.878-71.748l13.318-13.318c4.931,5.396,11.581,9.25,19.208,10.66l29.074,5.375c0.615,0.114,1.227,0.169,1.83,0.169
	c4.728,0,8.932-3.368,9.821-8.184c1.004-5.432-2.584-10.647-8.015-11.651l-29.074-5.375c-6.89-1.274-11.891-7.284-11.891-14.29
	v-0.445c22.669-12.716,38.031-36.972,38.031-64.762v-42.733c0-40.922-33.292-74.214-74.214-74.214s-74.214,33.292-74.214,74.214
	v42.733c0,27.783,15.354,52.034,38.015,64.752v0.456c0,7.006-5,13.015-11.89,14.289l-29.061,5.374
	C145.909,392.963,122,421.698,122,455.198V492H10.263c-5.522,0-10,4.478-10,10s4.478,10,10,10H132h248h122c5.522,0,10-4.478,10-10
	S507.522,492,502,492z M256.127,387.321l-12.083-12.083c3.895,0.634,7.885,0.977,11.956,0.977c4.179,0,8.273-0.365,12.265-1.032
	L256.127,387.321z M256.125,437.629l9.968,37.884l-9.963,11.339l-9.969-11.341L256.125,437.629z M201.786,259.268
	c0-29.894,24.32-54.214,54.214-54.214c29.211,0,53.101,23.225,54.176,52.178l-27.853-16.364c-4.211-2.474-9.594-1.544-12.729,2.199
	c-11.536,13.766-28.452,21.66-46.411,21.66h-21.396v-2.619v-2.84H201.786z M201.786,302.001v-17.274h21.396
	c21.022,0,40.97-8.131,55.912-22.561l31.119,18.283v21.552c0,29.894-24.32,54.214-54.214,54.214S201.786,331.895,201.786,302.001z
	 M142,455.198c0-23.857,17.027-44.322,40.487-48.66l29.061-5.374c7.693-1.422,14.394-5.33,19.337-10.8l13.453,13.453l-18.873,71.754
	c-0.847,3.219-0.037,6.646,2.16,9.146l6.401,7.282H142V455.198z"/>
<path d="M179.59,189.59c2.63,0,5.21-1.07,7.07-2.93c1.859-1.86,2.93-4.44,2.93-7.07s-1.07-5.21-2.93-7.07
	c-1.86-1.859-4.44-2.93-7.07-2.93s-5.21,1.07-7.07,2.93c-1.859,1.86-2.93,4.44-2.93,7.07s1.07,5.21,2.93,7.07
	C174.38,188.52,176.96,189.59,179.59,189.59z"/>
<g>
</g>
<g>
</g>
<g>
</g>
<g>
</g>
<g>
</g>
<g>
</g>
<g>
</g>
<g>
</g>
<g>
</g>
<g>
</g>
<g>
</g>
<g>
</g>
<g>
</g>
<g>
</g>
<g>
</g>
</svg>
