<?xml version="1.0" encoding="iso-8859-1"?>
<!-- Generator: Adobe Illustrator 19.0.0, SVG Export Plug-In . SVG Version: 6.00 Build 0)  -->
<svg version="1.1" id="Capa_1" xmlns="http://www.w3.org/2000/svg" xmlns:xlink="http://www.w3.org/1999/xlink" x="0px" y="0px"
	 viewBox="0 0 512 512" style="enable-background:new 0 0 512 512;" xml:space="preserve">
<path style="fill:#FFE682;" d="M331.717,355.121L331.717,355.121c-0.301-25.886,10.537-50.58,29.571-68.06
	c32.04-29.424,52.713-72.16,52.713-118.58C414.001,80.951,343.259,10,256.001,10S98,80.951,98,168.481
	c0,46.419,20.673,89.155,52.713,118.58c19.035,17.481,29.872,42.174,29.571,68.06l0,0H331.717z"/>
<g>
	<path style="fill:#BEBEBE;" d="M314.612,462H197.23c-11.046,0-20-8.954-20-20l0,0c0-11.046,8.954-20,20-20h117.382
		c11.046,0,20,8.954,20,20l0,0C334.612,453.046,325.658,462,314.612,462z"/>
	<path style="fill:#BEBEBE;" d="M314.612,502H197.23c-11.046,0-20-8.954-20-20l0,0c0-11.046,8.954-20,20-20h117.382
		c11.046,0,20,8.954,20,20l0,0C334.612,493.046,325.658,502,314.612,502z"/>
	<path style="fill:#BEBEBE;" d="M314.612,421.999H197.23c-11.046,0-20-8.954-20-20l0,0c0-11.046,8.954-20,20-20h117.382
		c11.046,0,20,8.954,20,20l0,0C334.612,413.045,325.658,421.999,314.612,421.999z"/>
</g>
<path style="fill:#A5DC69;" d="M331.992,355.121c1.788-22.896,12.253-52.408,29.296-68.06c3.265-2.999,6.405-6.142,9.424-9.407
	c-7.636-16.544-22.93-29.016-41.813-32.507l-28.136-5.201c-11.256-2.081-19.425-11.898-19.425-23.345v-6.257h-50.692v6.257
	c0,11.447-8.168,21.263-19.424,23.345l-28.123,5.2c-18.882,3.491-34.175,15.963-41.811,32.508c3.019,3.265,6.159,6.409,9.425,9.407
	c17.043,15.652,27.508,45.165,29.296,68.06H331.992z"/>
<path style="fill:#FFCDAC;" d="M318.143,114.889v38.606c0,34.321-27.822,62.143-62.143,62.143l0,0l0,0
	c-34.321,0-62.143-27.822-62.143-62.143v-38.606H318.143z"/>
<path style="fill:#FF9155;" d="M256,49.997L256,49.997c-34.321,0-62.143,27.822-62.143,62.143v14.96h30.384
	c20.197,0,39.358-8.943,52.331-24.423l0,0l41.571,24.423v-14.96C318.143,77.819,290.321,49.997,256,49.997z"/>
<polygon style="fill:#FFCDAC;" points="279.912,225.962 256.122,249.75 232.334,225.962 255.999,215.638 "/>
<polygon style="fill:#FF5A5A;" points="276.438,323.929 256.118,246.71 235.808,323.929 256.126,347.044 "/>
<path d="M314.612,371.999h-19.278c-5.522,0-10,4.478-10,10s4.478,10,10,10h19.278c5.514,0,10,4.486,10,10s-4.486,10-10,10H197.23
	c-5.514,0-10-4.486-10-10s4.486-10,10-10h18.455c5.522,0,10-4.478,10-10s-4.478-10-10-10H197.23c-16.542,0-30,13.458-30,30
	c0,7.678,2.902,14.688,7.664,20c-4.761,5.312-7.664,12.322-7.664,20c0,7.678,2.902,14.688,7.664,20
	c-4.761,5.312-7.664,12.322-7.664,20c0,16.542,13.458,30,30,30h117.382c16.542,0,30-13.458,30-30c0-7.678-2.902-14.688-7.664-20
	c4.761-5.312,7.664-12.322,7.664-20c0-7.678-2.902-14.688-7.664-20c4.761-5.312,7.664-12.322,7.664-20
	C344.612,385.457,331.154,371.999,314.612,371.999z M314.612,432c5.514,0,10,4.486,10,10s-4.486,10-10,10H197.23
	c-5.514,0-10-4.486-10-10s4.486-10,10-10H314.612z M314.612,492H197.23c-5.514,0-10-4.486-10-10s4.486-10,10-10h117.382
	c5.514,0,10,4.486,10,10S320.126,492,314.612,492z"/>
<path d="M262.991,389.068c1.859-1.859,2.93-4.439,2.93-7.069c0-2.63-1.07-5.21-2.93-7.07c-1.86-1.86-4.44-2.93-7.07-2.93
	c-2.63,0-5.21,1.069-7.07,2.93c-1.859,1.86-2.93,4.44-2.93,7.07c0,2.63,1.07,5.21,2.93,7.069c1.86,1.86,4.44,2.931,7.07,2.931
	C258.551,391.999,261.13,390.929,262.991,389.068z"/>
<path d="M361.328,64.171c1.958,1.994,4.546,2.993,7.136,2.993c2.528,0,5.06-0.953,7.006-2.865c3.94-3.87,3.997-10.201,0.128-14.142
	l-0.678-0.686c-3.888-3.925-10.221-3.952-14.142-0.063c-3.923,3.888-3.951,10.219-0.063,14.142L361.328,64.171z"/>
<path d="M390.519,84.708c-4.867,2.61-6.697,8.672-4.088,13.539C397.925,119.683,404,143.969,404,168.48
	c0,33.275-11.438,65.741-31.96,92.171c-10.074-13.122-24.75-22.275-41.323-25.338l-28.138-5.202
	c-6.515-1.204-11.242-6.886-11.242-13.511v-0.245c21.945-12.386,36.805-35.913,36.805-62.859v-26.394v-12.212v-2.748
	c0-39.779-32.363-72.143-72.143-72.143s-72.143,32.363-72.143,72.143v2.748v12.212v26.395c0,26.939,14.853,50.461,36.789,62.85
	v0.254c0,6.625-4.728,12.307-11.242,13.512l-28.123,5.2c-16.572,3.064-31.248,12.217-41.322,25.339
	c-20.522-26.429-31.959-58.895-31.959-92.171c0-81.872,66.393-148.48,148.001-148.48c25.404,0,50.459,6.563,72.456,18.979
	c4.812,2.712,10.91,1.018,13.624-3.794c2.714-4.81,1.016-10.909-3.794-13.624C313.296,7.456,284.842,0,256,0
	C163.364,0,88,75.579,88,168.48c0,47.386,20.393,93.291,55.949,125.945c17.002,15.615,26.602,37.694,26.336,60.578
	c-0.064,5.522,4.36,10.052,9.883,10.115c0.04,0.001,0.079,0.001,0.118,0.001c5.469,0,9.934-4.401,9.997-9.884
	c0.332-28.556-11.625-56.089-32.807-75.541c-1.318-1.21-2.603-2.448-3.873-3.698c7.056-10.93,18.356-18.623,31.314-21.019
	l28.123-5.2c7.398-1.368,13.854-5.091,18.662-10.304l12.652,12.652l-18.217,69.26c-0.847,3.219-0.037,6.646,2.16,9.146
	l20.318,23.114c1.898,2.16,4.636,3.397,7.512,3.397s5.612-1.239,7.511-3.399l20.311-23.114c2.196-2.499,3.006-5.928,2.159-9.146
	l-18.223-69.254l12.523-12.523c4.794,5.142,11.201,8.814,18.536,10.169l28.138,5.202c12.957,2.396,24.258,10.088,31.314,21.018
	c-1.27,1.25-2.555,2.488-3.873,3.698c-21.182,19.452-33.139,46.985-32.807,75.542l19.998-0.233
	c-0.266-22.883,9.334-44.963,26.336-60.578C403.608,261.77,424,215.864,424,168.479c0-27.798-6.896-55.353-19.942-79.684
	C401.449,83.929,395.387,82.101,390.519,84.708z M256.124,235.608l-10.761-10.761c3.473,0.516,7.024,0.79,10.638,0.79
	c3.711,0,7.357-0.283,10.919-0.826L256.124,235.608z M203.857,112.141c0-28.752,23.391-52.143,52.143-52.143
	c27.896,0,50.747,22.021,52.081,49.593l-26.444-15.536c-4.21-2.475-9.594-1.545-12.73,2.199
	c-11.101,13.248-27.38,20.847-44.665,20.847h-20.384v-2.212L203.857,112.141L203.857,112.141z M203.857,153.495v-16.394h20.384
	c20.347,0,39.656-7.838,54.155-21.753l29.746,17.476v20.672c0,28.752-23.391,52.143-52.143,52.143S203.857,182.247,203.857,153.495z
	 M256.126,331.896l-9.292-10.57l9.287-35.31l9.291,35.312L256.126,331.896z"/>
<path d="M239.669,151.508c0-2.64-1.07-5.21-2.93-7.07c-1.86-1.87-4.44-2.93-7.07-2.93s-5.21,1.06-7.07,2.93
	c-1.859,1.86-2.93,4.44-2.93,7.07s1.07,5.2,2.93,7.07c1.86,1.859,4.44,2.93,7.07,2.93s5.21-1.07,7.07-2.93
	C238.599,156.718,239.669,154.138,239.669,151.508z"/>
<path d="M282.57,161.508c2.641,0,5.211-1.07,7.08-2.93c1.86-1.87,2.92-4.44,2.92-7.07s-1.06-5.21-2.92-7.07
	c-1.869-1.87-4.449-2.93-7.08-2.93c-2.63,0-5.199,1.06-7.069,2.93c-1.86,1.86-2.931,4.431-2.931,7.07c0,2.63,1.07,5.21,2.931,7.07
	C277.36,160.438,279.94,161.508,282.57,161.508z"/>
<path d="M272.909,185.208c3.905-3.905,3.905-10.237,0-14.143c-3.906-3.904-10.236-3.904-14.143,0c-1.525,1.525-4.006,1.525-5.531,0
	c-3.906-3.904-10.236-3.904-14.143,0c-3.905,3.905-3.905,10.237,0,14.143c4.662,4.661,10.785,6.992,16.908,6.992
	S268.247,189.869,272.909,185.208z"/>
<path d="M478.443,168.253H463.48c-5.522,0-10,4.478-10,10s4.478,10,10,10h14.963c5.522,0,10-4.478,10-10
	S483.965,168.253,478.443,168.253z"/>
<path d="M448.75,144.35c2.561,0,5.122-0.978,7.074-2.933l10.48-10.49c3.903-3.906,3.9-10.238-0.007-14.142
	c-3.907-3.905-10.24-3.901-14.142,0.007l-10.48,10.49c-3.903,3.906-3.9,10.238,0.007,14.142
	C443.634,143.375,446.192,144.35,448.75,144.35z"/>
<path d="M455.621,214.93c-3.906-3.903-10.238-3.9-14.143,0.008c-3.902,3.907-3.899,10.239,0.008,14.142l10.42,10.41
	c1.952,1.95,4.51,2.925,7.067,2.925c2.561,0,5.122-0.978,7.075-2.933c3.902-3.907,3.899-10.239-0.008-14.143L455.621,214.93z"/>
<path d="M58.52,178.021c0-5.522-4.478-10-10-10H33.557c-5.522,0-10,4.478-10,10s4.478,10,10,10H48.52
	C54.042,188.021,58.52,183.543,58.52,178.021z"/>
<path d="M56.176,214.856l-10.48,10.49c-3.903,3.906-3.9,10.238,0.007,14.142c1.952,1.951,4.51,2.926,7.067,2.926
	c2.561,0,5.122-0.978,7.074-2.933l10.48-10.49c3.903-3.906,3.9-10.238-0.007-14.142C66.412,210.944,60.079,210.948,56.176,214.856z"
	/>
<path d="M60.094,116.784c-3.907-3.903-10.239-3.9-14.143,0.008c-3.902,3.907-3.899,10.239,0.008,14.143l10.42,10.409
	c1.952,1.95,4.51,2.925,7.067,2.925c2.561,0,5.122-0.978,7.075-2.933c3.902-3.907,3.899-10.239-0.008-14.142L60.094,116.784z"/>
<g>
</g>
<g>
</g>
<g>
</g>
<g>
</g>
<g>
</g>
<g>
</g>
<g>
</g>
<g>
</g>
<g>
</g>
<g>
</g>
<g>
</g>
<g>
</g>
<g>
</g>
<g>
</g>
<g>
</g>
</svg>
