<?xml version="1.0" encoding="iso-8859-1"?>
<!-- Generator: Adobe Illustrator 19.0.0, SVG Export Plug-In . SVG Version: 6.00 Build 0)  -->
<svg version="1.1" id="Capa_1" xmlns="http://www.w3.org/2000/svg" xmlns:xlink="http://www.w3.org/1999/xlink" x="0px" y="0px"
	 viewBox="0 0 512 512" style="enable-background:new 0 0 512 512;" xml:space="preserve">
<g>
	<path style="fill:#AAE6FF;" d="M132.65,502v-40.145c0-9.899,8.024-17.923,17.923-17.923h10.2c27.309,0,49.448-22.139,49.448-49.448
		v-9.872h45.775l-22.773-90.84V284.8c0-61.641-49.97-111.611-111.611-111.611l0,0c-61.648,0-111.62,49.98-111.611,111.628
		L10.028,502"/>
	<path style="fill:#AAE6FF;" d="M379.346,502v-40.145c0-9.899-8.024-17.923-17.923-17.923h-10.2
		c-27.309,0-49.448-22.139-49.448-49.448v-9.872H256l22.773-90.84V284.8c0-61.641,49.97-111.611,111.611-111.611l0,0
		c61.648,0,111.62,49.98,111.611,111.628L501.968,502"/>
</g>
<circle style="fill:#A5DC69;" cx="256" cy="75.17" r="32"/>
<circle style="fill:#E6AA46;" cx="437.09" cy="256" r="20"/>
<g>
	<circle style="fill:#FF5A5A;" cx="478" cy="75.15" r="24"/>
	<circle style="fill:#FF5A5A;" cx="34" cy="75.15" r="24"/>
</g>
<circle style="fill:#E6AA46;" cx="75.17" cy="256" r="20"/>
<path d="M390.384,163.189c-9.912,0-19.547,1.201-28.776,3.448l-48.623-48.623c-3.905-3.903-10.237-3.903-14.142,0
	c-3.905,3.905-3.905,10.237,0,14.143l41.715,41.715c-42.281,19.067-71.785,61.616-71.785,110.928v7.738l-12.775,50.959
	l-12.775-50.959V284.8c0-49.312-29.503-91.862-71.785-110.928l40.287-40.287c3.905-3.905,3.905-10.237,0-14.143
	c-3.905-3.904-10.237-3.904-14.143,0l-47.195,47.195c-9.229-2.248-18.865-3.449-28.776-3.449c-32.487,0-63.028,12.652-85.999,35.626
	C12.643,221.789-0.004,252.332,0,284.818l0.028,217.183c0,5.523,4.479,10,10.001,9.999s9.999-4.479,9.999-10.001L20,284.816
	c-0.004-27.145,10.564-52.665,29.756-71.86s44.711-29.767,71.855-29.767c3.91,0,7.767,0.23,11.563,0.662l-45.082,45.082
	c-3.916-1.877-8.3-2.931-12.925-2.931c-16.542,0-30,13.458-30,30s13.458,30,30,30s30-13.458,30-30c0-4.626-1.054-9.01-2.932-12.927
	l53.858-53.858c39.107,14.151,67.129,51.655,67.129,95.583v8.973c0,0.819,0.101,1.637,0.3,2.432l19.656,78.408H210.22
	c-5.523,0-10,4.478-10,10v9.871c0,1.841-0.137,3.649-0.382,5.423c-9.405-0.514-18.528-3.38-26.555-8.38
	c-4.687-2.922-10.855-1.488-13.775,3.199s-1.488,10.854,3.199,13.775c8.828,5.5,18.634,9.095,28.828,10.635
	c-7.236,9.011-18.334,14.796-30.763,14.796h-10.2c-15.396,0-27.923,12.526-27.923,27.923V502c0,5.522,4.477,10,10,10
	c5.523,0,10-4.478,10-10v-40.145c0-4.369,3.554-7.923,7.923-7.923h10.2c32.738,0,59.379-26.598,59.448-59.319h35.775
	c0,0,0.001,0,0.002,0s0.001,0,0.002,0h35.775c0.068,32.722,26.71,59.319,59.448,59.319h10.2c4.369,0,7.923,3.554,7.923,7.923V502
	c0,5.522,4.477,10,10,10s10-4.478,10-10v-40.145c0-15.396-12.526-27.923-27.923-27.923h-10.2c-12.429,0-23.527-5.784-30.763-14.796
	c10.194-1.54,20-5.135,28.828-10.635c4.688-2.921,6.12-9.088,3.199-13.775c-2.92-4.687-9.09-6.12-13.775-3.199
	c-8.026,5.001-17.149,7.866-26.555,8.38c-0.245-1.774-0.382-3.583-0.382-5.423v-9.871c0-5.522-4.477-10-10-10h-32.959l19.656-78.408
	c0.2-0.795,0.3-1.612,0.3-2.432V284.8c0-43.929,28.023-81.432,67.13-95.583l54.035,54.036c-1.826,3.872-2.852,8.192-2.852,12.749
	c0,16.542,13.458,30,30,30s30-13.458,30-30s-13.458-30-30-30c-4.694,0-9.138,1.086-13.098,3.016l-45.166-45.167
	c3.796-0.432,7.653-0.662,11.563-0.662c27.145,0,52.663,10.571,71.855,29.767s29.76,44.716,29.756,71.86l-0.028,217.183
	c0,5.522,4.476,10,9.999,10.001c0.001,0,0.001,0,0.001,0c5.522,0,10-4.477,10-9.999l0.028-217.182
	c0.005-32.487-12.643-63.03-35.613-86.004C453.413,175.842,422.871,163.189,390.384,163.189z M75.168,266.002
	c-5.514,0-10-4.486-10-10s4.486-10,10-10s10,4.486,10,10S80.682,266.002,75.168,266.002z M447.086,256.002c0,5.514-4.486,10-10,10
	s-10-4.486-10-10s4.486-10,10-10S447.086,250.488,447.086,256.002z"/>
<path d="M478,109.154c18.748,0,34-15.252,34-34s-15.252-34-34-34s-34,15.252-34,34S459.252,109.154,478,109.154z M478,61.154
	c7.72,0,14,6.28,14,14s-6.28,14-14,14s-14-6.28-14-14S470.28,61.154,478,61.154z"/>
<path d="M34,109.154c18.748,0,34-15.252,34-34s-15.252-34-34-34s-34,15.252-34,34S15.252,109.154,34,109.154z M34,61.154
	c7.72,0,14,6.28,14,14s-6.28,14-14,14s-14-6.28-14-14S26.28,61.154,34,61.154z"/>
<path d="M412.28,85.17c2.63,0,5.21-1.07,7.07-2.93c1.86-1.86,2.93-4.44,2.93-7.07s-1.07-5.21-2.93-7.07
	c-1.86-1.859-4.44-2.93-7.07-2.93s-5.21,1.07-7.07,2.93c-1.86,1.86-2.93,4.431-2.93,7.07c0,2.63,1.07,5.21,2.93,7.07
	C407.07,84.1,409.65,85.17,412.28,85.17z"/>
<path d="M138.996,85.168h76.213c4.499,18.345,21.075,32,40.787,32s36.288-13.655,40.787-32H373c5.523,0,10-4.478,10-10
	s-4.477-10-10-10h-76.217c-3.713-15.138-15.649-27.075-30.787-30.787V10c0-5.522-4.477-10-10-10s-10,4.478-10,10v24.38
	c-15.138,3.713-27.075,15.649-30.787,30.787h-76.213c-5.523,0-10,4.478-10,10S133.473,85.168,138.996,85.168z M255.996,53.168
	c12.131,0,22,9.869,22,22s-9.869,22-22,22c-12.111,0-21.967-9.838-21.999-21.942c0-0.02,0.003-0.038,0.003-0.058
	s-0.003-0.038-0.003-0.058C234.029,63.006,243.884,53.168,255.996,53.168z"/>
<path d="M99.72,85.17c2.63,0,5.2-1.07,7.07-2.93c1.86-1.86,2.93-4.44,2.93-7.07s-1.07-5.21-2.93-7.07
	c-1.86-1.859-4.44-2.93-7.07-2.93c-2.64,0-5.22,1.07-7.08,2.93s-2.92,4.431-2.92,7.07c0,2.63,1.06,5.21,2.92,7.07
	C94.51,84.1,97.09,85.17,99.72,85.17z"/>
<path d="M323.43,287.93c-1.86,1.86-2.93,4.44-2.93,7.07s1.07,5.21,2.93,7.069c1.86,1.86,4.44,2.931,7.07,2.931s5.21-1.07,7.07-2.931
	c1.86-1.859,2.93-4.439,2.93-7.069s-1.07-5.21-2.93-7.07s-4.44-2.93-7.07-2.93C327.86,285,325.29,286.069,323.43,287.93z"/>
<path d="M181.5,305c2.63,0,5.21-1.07,7.07-2.931c1.86-1.859,2.93-4.439,2.93-7.069s-1.07-5.21-2.93-7.07s-4.44-2.93-7.07-2.93
	c-2.64,0-5.21,1.069-7.07,2.93c-1.86,1.86-2.93,4.44-2.93,7.07s1.07,5.21,2.93,7.069C176.29,303.93,178.86,305,181.5,305z"/>
<g>
</g>
<g>
</g>
<g>
</g>
<g>
</g>
<g>
</g>
<g>
</g>
<g>
</g>
<g>
</g>
<g>
</g>
<g>
</g>
<g>
</g>
<g>
</g>
<g>
</g>
<g>
</g>
<g>
</g>
</svg>
