<?xml version="1.0" encoding="iso-8859-1"?>
<!-- Generator: Adobe Illustrator 19.0.0, SVG Export Plug-In . SVG Version: 6.00 Build 0)  -->
<svg version="1.1" id="Capa_1" xmlns="http://www.w3.org/2000/svg" xmlns:xlink="http://www.w3.org/1999/xlink" x="0px" y="0px"
	 viewBox="0 0 512 512" style="enable-background:new 0 0 512 512;" xml:space="preserve">
<polygon style="fill:#FFFFFF;" points="370,130.819 370,100.987 279,10 10,10 10,502 370,502 "/>
<g>
	<rect x="348.49" y="412.88" style="fill:#F5B955;" width="67.02" height="89.12"/>
	<polygon style="fill:#F5B955;" points="279,10 279,101 370,101 	"/>
</g>
<path style="fill:#9BBEFF;" d="M211.5,232h-127c-11.322,0-20.5-9.178-20.5-20.5v-127C64,73.178,73.178,64,84.5,64h127
	c11.322,0,20.5,9.178,20.5,20.5v127C232,222.822,222.822,232,211.5,232z"/>
<path style="fill:#46C373;" d="M212.39,232v-0.913c0-14.894-10.628-27.667-25.274-30.374l-15.097-2.791
	c-6.04-1.117-10.423-6.384-10.423-12.526v-3.357h-27.201v3.357c0,6.142-4.383,11.41-10.423,12.526l-15.09,2.79
	c-14.645,2.708-25.273,15.481-25.273,30.374V232"/>
<polygon style="fill:#FFB487;" points="128.677,195.931 148.004,226.836 167.323,195.931 148,182.039 "/>
<path style="fill:#FFCDAC;" d="M181.345,130.82v20.715c0,18.416-14.929,33.345-33.345,33.345l0,0l0,0
	c-18.416,0-33.345-14.929-33.345-33.345V130.82"/>
<path style="fill:#F5B955;" d="M148,96L148,96c-18.416,0-33.345,14.929-33.345,33.345v8.027h16.303
	c10.838,0,21.119-4.798,28.08-13.105l0,0l22.306,13.105v-8.027C181.345,110.929,166.416,96,148,96z"/>
<circle style="fill:#78D2FA;" cx="382" cy="256.29" r="120"/>
<path style="fill:#FFFFFF;" d="M326.846,311.448c-30.461-30.461-30.461-79.848,0-110.309s79.848-30.461,110.309,0
	s30.461,79.848,0,110.309S357.307,341.909,326.846,311.448z"/>
<rect x="348.49" y="412.88" style="fill:#FF5A5A;" width="67.01" height="33.28"/>
<path d="M63.988,354H174c5.523,0,10-4.478,10-10s-4.477-10-10-10H63.988c-5.523,0-10,4.478-10,10S58.465,354,63.988,354z"/>
<path d="M242,334h-28.255c-5.523,0-10,4.478-10,10s4.477,10,10,10H242c5.523,0,10-4.478,10-10S247.523,334,242,334z"/>
<path d="M63.988,398h138.887c5.523,0,10-4.478,10-10s-4.477-10-10-10H63.988c-5.523,0-10,4.478-10,10S58.465,398,63.988,398z"/>
<path d="M239.842,422H63.988c-5.523,0-10,4.478-10,10s4.477,10,10,10h175.854c5.523,0,10-4.478,10-10S245.365,422,239.842,422z"/>
<path d="M246.91,395.07c1.86-1.859,2.93-4.439,2.93-7.069s-1.07-5.21-2.93-7.07c-1.86-1.86-4.44-2.93-7.07-2.93
	s-5.21,1.069-7.07,2.93c-1.86,1.86-2.93,4.44-2.93,7.07s1.07,5.21,2.93,7.069c1.86,1.86,4.44,2.931,7.07,2.931
	C242.48,398,245.05,396.93,246.91,395.07z"/>
<path d="M63.988,310h94.779c5.523,0,10-4.478,10-10s-4.477-10-10-10H63.988c-5.523,0-10,4.478-10,10S58.465,310,63.988,310z"/>
<path d="M206.67,292.93c-1.86,1.86-2.93,4.44-2.93,7.07s1.07,5.21,2.93,7.069c1.86,1.86,4.44,2.931,7.07,2.931s5.21-1.07,7.07-2.931
	c1.86-1.859,2.93-4.439,2.93-7.069s-1.07-5.21-2.93-7.07c-1.86-1.86-4.44-2.93-7.07-2.93S208.53,291.07,206.67,292.93z"/>
<path d="M82.398,241.92c0.398,0.048,0.801,0.081,1.212,0.081c0.1,0,128.68,0,128.78,0c0.411,0,0.814-0.032,1.212-0.081
	C229.442,240.835,242,227.61,242,211.5v-127c0-16.817-13.682-30.5-30.5-30.5h-127C67.682,54,54,67.683,54,84.5v127
	C54,227.61,66.558,240.835,82.398,241.92z M124.434,208.006L133.186,222H95.698c2.822-5.832,8.283-10.213,15.003-11.455
	L124.434,208.006z M130.958,147.372c10.921,0,21.341-3.791,29.616-10.604l10.77,6.327v8.44c0,12.872-10.472,23.345-23.345,23.345
	s-23.345-10.473-23.345-23.345v-4.163H130.958z M124.738,127.372C125.743,115.42,135.792,106,148,106
	c8.858,0,16.58,4.959,20.535,12.247l-4.431-2.603c-4.211-2.477-9.594-1.544-12.73,2.199c-5.075,6.056-12.516,9.528-20.416,9.528
	L124.738,127.372L124.738,127.372z M185.299,210.546c6.719,1.242,12.18,5.623,15.003,11.454H162.82l8.747-13.993L185.299,210.546z
	 M148,194.88c1.872,0,3.712-0.133,5.522-0.364c0.384,0.875,0.817,1.724,1.305,2.54l-6.825,10.917l-6.832-10.925
	c0.486-0.813,0.917-1.66,1.3-2.533C144.283,194.747,146.125,194.88,148,194.88z M74,84.5C74,78.71,78.71,74,84.5,74h127
	c5.79,0,10.5,4.71,10.5,10.5v127c0,2.248-0.716,4.328-1.924,6.038c-4.747-13.505-16.405-23.934-31.142-26.658l-15.098-2.792
	c-0.184-0.034-0.358-0.09-0.526-0.158c-0.222-0.166-0.447-0.329-0.687-0.479c-0.068-0.043-0.14-0.075-0.209-0.116
	c-0.002-0.002-0.003-0.003-0.005-0.005c11.422-7.814,18.935-20.942,18.935-35.795v-14.163v-6.553v-1.475
	C191.345,105.445,171.9,86,148,86s-43.345,19.444-43.345,43.345v1.475v6.553v14.163c0,14.851,7.511,27.978,18.93,35.792
	c-0.006,0.006-0.012,0.012-0.018,0.018c-0.063,0.038-0.129,0.068-0.192,0.107c-0.233,0.146-0.452,0.306-0.669,0.467
	c-0.175,0.073-0.357,0.134-0.55,0.17l-15.091,2.79c-14.737,2.725-26.394,13.154-31.141,26.659c-1.207-1.71-1.924-3.79-1.924-6.038
	V84.5z"/>
<path d="M473.925,348.218C498.478,323.664,512,291.019,512,256.294s-13.522-67.37-38.076-91.924
	c-24.554-24.554-57.2-38.076-91.924-38.076c-0.668,0-1.334,0.014-2.001,0.024v-25.331c0-2.652-1.054-5.196-2.93-7.071l-91-90.987
	C284.195,1.054,281.652,0,279,0H10C4.477,0,0,4.478,0,10v492c0,5.522,4.477,10,10,10h363.667c5.523,0,10-4.478,10-10
	s-4.477-10-10-10H358.49v-35.846h47.021V502c0,5.522,4.477,10,10,10c5.522,0,10-4.478,10-10l0.001-89.125
	c0-2.652-1.054-5.195-2.929-7.071c-0.914-0.914-1.989-1.629-3.156-2.126c-0.013-0.005-0.025-0.012-0.038-0.018
	c-0.237-0.1-0.48-0.184-0.724-0.265c-0.07-0.023-0.136-0.052-0.207-0.074c-0.229-0.071-0.462-0.125-0.696-0.179
	c-0.088-0.02-0.173-0.048-0.262-0.066c-0.275-0.056-0.553-0.094-0.833-0.127c-0.051-0.006-0.1-0.017-0.151-0.022
	c-0.332-0.034-0.668-0.051-1.005-0.051h-0.013H392v-16.961C422.957,383.575,451.743,370.4,473.925,348.218z M459.783,178.513
	C480.559,199.288,492,226.912,492,256.294s-11.442,57.006-32.218,77.781c-20.776,20.776-48.399,32.219-77.781,32.219
	c-29.382,0-57.006-11.442-77.782-32.219l0,0c-20.776-20.775-32.218-48.399-32.218-77.781s11.442-57.006,32.218-77.781
	c20.776-20.776,48.399-32.219,77.782-32.219C411.383,146.294,439.006,157.737,459.783,178.513z M289,34.14L345.868,91H289V34.14z
	 M405.512,436.155h-47.021v-13.279h47.021V436.155z M348.491,402.875c-5.523,0-10,4.478-10,10L338.49,492H20V20h249v81
	c0,5.522,4.477,10,10,10h81v17.141c-26.357,4.467-50.637,16.943-69.923,36.229c-24.554,24.554-38.076,57.199-38.076,91.924
	s13.522,67.37,38.076,91.924c22.181,22.181,50.968,35.357,81.924,37.697v16.961h-23.51V402.875z"/>
<path d="M319.775,318.52c17.156,17.155,39.691,25.733,62.226,25.733s45.07-8.578,62.226-25.733
	c34.311-34.312,34.311-90.14,0-124.451c-34.312-34.311-90.141-34.31-124.452,0C285.464,228.38,285.464,284.208,319.775,318.52z
	 M333.917,208.211c13.258-13.259,30.668-19.885,48.083-19.885c17.411,0,34.828,6.63,48.083,19.885
	c26.513,26.513,26.513,69.653,0,96.166c-26.513,26.515-69.654,26.513-96.167,0C307.404,277.865,307.404,234.724,333.917,208.211z"/>
<path d="M343.475,266h0.083c5.523,0,9.958-4.478,9.958-10s-4.519-10-10.042-10s-10,4.478-10,10S337.952,266,343.475,266z"/>
<path d="M383.946,266h0.083c5.523,0,9.958-4.478,9.958-10s-4.519-10-10.042-10s-10,4.478-10,10S378.423,266,383.946,266z"/>
<path d="M424.417,266h0.083c5.523,0,9.958-4.478,9.958-10s-4.519-10-10.042-10s-10,4.478-10,10S418.894,266,424.417,266z"/>
<g>
</g>
<g>
</g>
<g>
</g>
<g>
</g>
<g>
</g>
<g>
</g>
<g>
</g>
<g>
</g>
<g>
</g>
<g>
</g>
<g>
</g>
<g>
</g>
<g>
</g>
<g>
</g>
<g>
</g>
</svg>
