<?xml version="1.0" encoding="iso-8859-1"?>
<!-- Generator: Adobe Illustrator 19.0.0, SVG Export Plug-In . SVG Version: 6.00 Build 0)  -->
<svg version="1.1" id="Capa_1" xmlns="http://www.w3.org/2000/svg" xmlns:xlink="http://www.w3.org/1999/xlink" x="0px" y="0px"
	 viewBox="0 0 512 512" style="enable-background:new 0 0 512 512;" xml:space="preserve">
<rect x="137.627" y="137.527" style="fill:#D7FA91;" width="242.354" height="40.586"/>
<g>
	<polygon style="fill:#FFCDAC;" points="234.994,140.337 255.997,160.63 276.993,140.337 255.993,126.619 	"/>
	<path style="fill:#FFCDAC;" d="M295.992,75.669V86.62c0,22.09-17.909,39.999-39.999,39.999l0,0l0,0
		c-22.09,0-39.999-17.909-39.999-39.999V75.669H295.992z"/>
</g>
<path style="fill:#FF6E37;" d="M255.993,30.003L255.993,30.003c-22.09,0-39.999,17.909-39.999,39.999v9.629h19.557
	c13.001,0,25.333-5.756,33.683-15.721l0,0l26.758,15.721v-9.629C295.992,47.911,278.084,30.003,255.993,30.003z"/>
<path style="fill:#FFCDAC;" d="M462,75.669V86.62c0,22.09-17.909,39.999-39.999,39.999l0,0l0,0
	c-22.09,0-39.999-17.909-39.999-39.999V75.669H462z"/>
<path style="fill:#F5C86E;" d="M422.001,30.003L422.001,30.003c-22.09,0-39.999,17.909-39.999,39.999v9.629h19.557
	c13.001,0,25.333-5.756,33.683-15.721l0,0l26.757,15.721v-9.629C462,47.911,444.093,30.003,422.001,30.003z"/>
<path style="fill:#FFCDAC;" d="M129.997,75.669V86.62c0,22.09-17.909,39.999-39.999,39.999l0,0l0,0
	c-22.09,0-39.999-17.909-39.999-39.999V75.669H129.997z"/>
<rect x="210.975" y="178.106" style="fill:#D7FA91;" width="89.658" height="110.047"/>
<path style="fill:#F5C86E;" d="M89.998,30.003L89.998,30.003c-22.09,0-39.999,17.909-39.999,39.999v9.629h19.557
	c13.001,0,25.333-5.756,33.683-15.721l0,0l26.758,15.721v-9.629C129.997,47.911,112.088,30.003,89.998,30.003z"/>
<polygon style="fill:#6E87F5;" points="271.66,223.353 255.99,160.63 240.327,223.353 255.996,242.127 "/>
<rect x="210.975" y="288.153" style="fill:#7D9BFF;" width="89.658" height="193.845"/>
<g>
	<path style="fill:#78D2FA;" d="M377.171,306.487L377.171,306.487h-35.168V183.133c0-17.706,12.635-32.89,30.045-36.11l22.218-4.108
		c6.277-1.161,10.832-6.635,10.832-13.019v-6.324h33.794v6.324c0,6.384,4.555,11.858,10.833,13.019l22.227,4.109
		c17.412,3.219,30.046,18.404,30.046,36.11v123.352h-35.168l0,0L377.171,306.487L377.171,306.487z"/>
	<path style="fill:#78D2FA;" d="M45.168,306.487L45.168,306.487H10V183.133c0-17.706,12.635-32.89,30.045-36.11l22.218-4.108
		c6.277-1.161,10.832-6.635,10.832-13.019v-6.324h33.794v6.324c0,6.384,4.555,11.858,10.833,13.019l22.227,4.109
		c17.412,3.219,30.046,18.404,30.046,36.11v123.352h-35.168l0,0L45.168,306.487L45.168,306.487z"/>
</g>
<g>
	<rect x="45.169" y="288.153" style="fill:#D7D7E6;" width="89.658" height="193.845"/>
	<rect x="377.16" y="288.153" style="fill:#D7D7E6;" width="89.658" height="193.845"/>
</g>
<polygon style="fill:#FFCDAC;" points="68.998,140.337 90.002,160.63 110.997,140.337 89.998,126.619 "/>
<polygon style="fill:#6E87F5;" points="105.664,223.353 89.995,160.63 74.331,223.353 90.001,242.127 "/>
<polygon style="fill:#FFCDAC;" points="442.998,140.337 421.993,160.63 400.999,140.337 421.998,126.619 "/>
<polygon style="fill:#6E87F5;" points="406.332,223.353 422.001,160.63 437.664,223.353 421.994,242.127 "/>
<path d="M335.658,140.913c0-5.523-4.478-10-10-10h-42.773v-2.172c13.88-8.894,23.106-24.443,23.106-42.118v-6.99v-3.962v-5.667
	c0-27.569-22.429-49.999-49.999-49.999s-49.999,22.429-49.999,49.999v5.667v3.962v6.99c0,17.67,9.222,33.216,23.097,42.112v2.178
	h-40.097c-5.522,0-10,4.477-10,10s4.478,10,10,10h42.554l13.343,12.892l-14.267,57.126c-0.773,3.098-0.021,6.379,2.024,8.831
	l15.67,18.775c1.9,2.277,4.713,3.593,7.679,3.593c2.966,0,5.778-1.317,7.678-3.594l15.664-18.776
	c2.045-2.452,2.797-5.732,2.023-8.83l-14.269-57.116l13.348-12.901h45.218C331.181,150.913,335.658,146.435,335.658,140.913z
	 M255.996,146.725l-6.905-6.672v-3.919c2.258,0.313,4.56,0.488,6.902,0.488c2.339,0,4.638-0.174,6.893-0.486v3.929L255.996,146.725z
	 M255.993,116.623c-15.526,0-28.333-11.856-29.848-26.989h9.406c13.104,0,25.584-4.717,35.317-13.162l15.125,8.885v1.267
	C285.993,103.165,272.535,116.623,255.993,116.623z M255.993,40.005c13.563,0,25.051,9.046,28.75,21.421L274.3,55.291
	c-4.211-2.475-9.592-1.544-12.73,2.2c-6.466,7.717-15.949,12.143-26.018,12.143h-9.556
	C226.196,53.263,239.576,40.005,255.993,40.005z M255.996,226.52l-4.736-5.674l4.733-18.951l4.734,18.953L255.996,226.52z"/>
<path d="M300.637,170.923c-5.522,0-10,4.477-10,10v97.231h-69.66v-97.231c0-5.523-4.478-10-10-10s-10,4.477-10,10v105.23v2v193.841
	c0,5.522,4.478,10,10,10h89.66c5.522,0,10-4.478,10-10v-193.84v-2V180.923C310.637,175.4,306.159,170.923,300.637,170.923z
	 M220.976,298.154h25.017v173.842h-25.017V298.154z M265.993,471.995V298.154h24.644v173.842h-24.644V471.995z"/>
<path d="M141.767,137.191l-22.228-4.109c-1.536-0.284-2.65-1.624-2.65-3.186v-1.155c13.881-8.894,23.107-24.443,23.107-42.118v-6.99
	v-3.962v-5.667c0-27.569-22.429-49.999-49.999-49.999S39.999,42.435,39.999,70.005v5.667v3.962v6.99
	c0,17.67,9.222,33.216,23.097,42.112v1.162c0,1.562-1.115,2.901-2.651,3.185l-22.218,4.108C16.077,141.286,0,160.607,0,183.133
	v123.353c0,5.522,4.478,10,10,10h25.168v165.509c0,5.522,4.478,10,10,10h89.66c5.522,0,10-4.478,10-10v-51.666
	c0-5.522-4.478-10-10-10c-5.522,0-10,4.478-10,10v41.666h-24.83V298.154h24.83v8.333v35.179c0,5.522,4.478,10,10,10
	c5.522,0,10-4.478,10-10v-25.179h25.168c5.522,0,10-4.478,10-10V183.134C179.995,160.607,163.919,141.286,141.767,137.191z
	 M89.997,201.894l4.734,18.953L90,226.519l-4.736-5.674L89.997,201.894z M90.001,146.725l-8.557-8.267
	c0.315-0.794,0.603-1.602,0.831-2.434c2.518,0.392,5.097,0.598,7.723,0.598c2.623,0,5.199-0.206,7.714-0.597
	c0.228,0.835,0.517,1.644,0.833,2.44L90.001,146.725z M89.998,116.623c-15.526,0-28.333-11.856-29.848-26.989h9.406
	c13.104,0,25.584-4.717,35.317-13.162l15.125,8.885v1.267C119.997,103.165,106.539,116.623,89.998,116.623z M89.998,40.005
	c13.563,0,25.051,9.046,28.75,21.421l-10.444-6.136c-4.211-2.475-9.593-1.544-12.73,2.2c-6.466,7.717-15.949,12.143-26.018,12.143
	H60C60.2,53.263,73.58,40.005,89.998,40.005z M79.998,471.995h-24.83V306.487v-8.333h24.83V471.995z M159.996,296.487h-15.169
	v-10.333v-84.775c0-5.523-4.478-10-10-10c-5.522,0-10,4.477-10,10v76.775h-69.66v-76.775c0-5.523-4.478-10-10-10s-10,4.477-10,10
	v84.775v10.333H19.999V183.133c0-12.884,9.195-23.934,21.863-26.276l22.218-4.108c0.915-0.169,1.799-0.408,2.669-0.678
	l12.145,11.734L64.628,220.93c-0.773,3.098-0.021,6.379,2.024,8.831l15.67,18.775c1.9,2.277,4.713,3.593,7.679,3.593
	c2.966,0,5.778-1.317,7.678-3.594l15.664-18.776c2.045-2.452,2.797-5.732,2.023-8.83l-14.268-57.116l12.147-11.741
	c0.867,0.269,1.749,0.507,2.66,0.676l22.227,4.109c12.67,2.342,21.864,13.393,21.864,26.276L159.996,296.487L159.996,296.487z"/>
<path d="M134.827,374.077c-2.63,0-5.21,1.06-7.07,2.92c-1.86,1.87-2.93,4.45-2.93,7.08s1.069,5.2,2.93,7.069
	c1.86,1.86,4.44,2.931,7.07,2.931c2.63,0,5.21-1.07,7.069-2.931c1.86-1.869,2.931-4.439,2.931-7.069c0-2.641-1.07-5.21-2.931-7.08
	C140.036,375.137,137.457,374.077,134.827,374.077z"/>
<path d="M501.997,236.331c-2.63,0-5.21,1.07-7.07,2.93c-1.859,1.87-2.93,4.44-2.93,7.07c0,2.63,1.07,5.21,2.93,7.07
	c1.86,1.87,4.44,2.93,7.07,2.93c2.64,0,5.21-1.06,7.07-2.93c1.87-1.86,2.93-4.44,2.93-7.07c0-2.63-1.06-5.2-2.93-7.07
	C507.207,237.4,504.636,236.331,501.997,236.331z"/>
<path d="M512,183.134c0-22.526-16.077-41.848-38.228-45.943l-22.228-4.109c-1.536-0.284-2.651-1.624-2.651-3.186v-1.154
	C462.774,119.848,472,104.299,472,86.623v-6.99v-3.962v-5.667c0-27.569-22.429-49.999-49.999-49.999s-49.999,22.429-49.999,49.999
	v5.667v3.962v6.99c0,17.67,9.222,33.216,23.096,42.111v1.162c0,1.562-1.114,2.901-2.65,3.185l-22.218,4.108
	c-22.149,4.096-38.227,23.417-38.227,45.943v123.353c0,5.522,4.478,10,10,10h25.167v165.509c0,5.522,4.478,10,10,10h89.661
	c5.522,0,10-4.478,10-10V316.486h25.168c5.522,0,10-4.478,10-10v-20.332c0-5.522-4.478-10-10-10c-5.522,0-10,4.478-10,10v10.333
	h-15.169v-10.333v-84.775c0-5.523-4.478-10-10-10c-5.522,0-10,4.477-10,10v76.775H387.17v-76.775c0-5.523-4.478-10-10-10
	c-5.522,0-10,4.477-10,10v84.775v10.333h-15.168V183.133c0-12.884,9.195-23.934,21.863-26.276l22.218-4.108
	c0.915-0.169,1.799-0.409,2.669-0.679l12.144,11.734l-14.266,57.127c-0.773,3.098-0.021,6.379,2.024,8.831l15.67,18.775
	c1.9,2.277,4.713,3.593,7.679,3.593c2.966,0,5.778-1.317,7.678-3.594l15.663-18.776c2.045-2.452,2.797-5.732,2.023-8.83
	l-14.269-57.115l12.148-11.742c0.867,0.269,1.748,0.507,2.659,0.675l22.228,4.109c12.67,2.342,21.864,13.393,21.864,26.276v24.534
	c0,5.523,4.478,10,10,10c5.522,0,10-4.477,10-10v-24.533H512z M387.171,306.487v-8.333h24.831v173.842h-24.831V306.487z
	 M456.832,471.995h-24.83V298.154h24.83v8.333V471.995z M422.005,146.725l-8.557-8.268c0.315-0.794,0.603-1.601,0.83-2.434
	c2.519,0.392,5.098,0.599,7.724,0.599c2.623,0,5.198-0.206,7.713-0.597c0.229,0.835,0.517,1.644,0.833,2.441L422.005,146.725z
	 M422.002,116.623c-15.526,0-28.333-11.856-29.848-26.989h9.406c13.104,0,25.584-4.717,35.317-13.162l15.124,8.885v1.267
	C452.002,103.165,438.544,116.623,422.002,116.623z M422.002,40.005c13.563,0,25.051,9.046,28.75,21.421l-10.444-6.136
	c-4.211-2.475-9.593-1.544-12.73,2.2c-6.466,7.717-15.949,12.143-26.018,12.143h-9.556
	C392.205,53.263,405.585,40.005,422.002,40.005z M422.003,226.519l-4.735-5.674l4.732-18.95l4.734,18.952L422.003,226.519z"/>
<g>
</g>
<g>
</g>
<g>
</g>
<g>
</g>
<g>
</g>
<g>
</g>
<g>
</g>
<g>
</g>
<g>
</g>
<g>
</g>
<g>
</g>
<g>
</g>
<g>
</g>
<g>
</g>
<g>
</g>
</svg>
