<?xml version="1.0" encoding="iso-8859-1"?>
<!-- Generator: Adobe Illustrator 19.0.0, SVG Export Plug-In . SVG Version: 6.00 Build 0)  -->
<svg version="1.1" id="Capa_1" xmlns="http://www.w3.org/2000/svg" xmlns:xlink="http://www.w3.org/1999/xlink" x="0px" y="0px"
	 viewBox="0 0 512 512" style="enable-background:new 0 0 512 512;" xml:space="preserve">
<path style="fill:#A5DC69;" d="M269.952,291.526c5.333,2.664,11.35,4.162,17.717,4.162h1.649c21.938,0,39.722-17.784,39.722-39.722
	l0,0c0-21.938-17.784-39.722-39.722-39.722h-1.649c-6.367,0-12.384,1.499-17.717,4.163c-6.415,3.204-13.952-1.571-13.952-8.742V161
	c0-15.464-12.536-28-28-28h-50.695h-1.368c-7.423,0-12.178-8.026-8.477-14.461c3.347-5.819,5.262-12.567,5.262-19.763v-1.649
	c0-21.938-17.784-39.721-39.722-39.721l0,0c-21.938,0-39.722,17.784-39.722,39.721v1.649c0,7.196,1.915,13.944,5.262,19.763
	c3.701,6.434-1.054,14.461-8.477,14.461h-1.368H38c-15.464,0-28,12.536-28,28v50.666c0,7.171,7.537,11.946,13.952,8.742
	c5.333-2.664,11.35-4.163,17.717-4.163h1.649c21.938,0,39.722,17.784,39.722,39.722l0,0c0,21.938-17.784,39.722-39.722,39.722
	h-1.649c-6.367,0-12.384-1.499-17.717-4.162c-6.415-3.205-13.952,1.57-13.952,8.74V351c0,15.464,12.536,28,28,28h190
	c15.464,0,28-12.536,28-28v-50.733C256,293.097,263.537,288.322,269.952,291.526z"/>
<path style="fill:#7D9BFF;" d="M474,133c15.464,0,28,12.536,28,28v190c0,15.464-12.536,28-28,28h-52.063
	c-7.423,0-12.178,8.026-8.477,14.461c3.347,5.819,5.262,12.567,5.262,19.763v1.649c0,21.938-17.784,39.722-39.722,39.722l0,0
	c-21.938,0-39.722-17.784-39.722-39.722v-1.649c0-7.196,1.914-13.944,5.262-19.763c3.701-6.434-1.054-14.461-8.477-14.461H284
	c-15.464,0-28-12.536-28-28v-50.733c0-7.171,7.537-11.946,13.952-8.742c5.333,2.664,11.349,4.163,17.717,4.163h1.649
	c21.938,0,39.722-17.784,39.722-39.722l0,0c0-21.938-17.784-39.722-39.722-39.722h-1.649c-6.368,0-12.384,1.499-17.717,4.163
	c-6.415,3.204-13.952-1.571-13.952-8.742V161c0-15.464,12.536-28,28-28H474z"/>
<path d="M474,123h-51.062c-5.522,0-10,4.477-10,10c0,5.523,4.478,10,10,10H474c9.925,0,18,8.075,18,18v190c0,9.925-8.075,18-18,18
	h-52.063c-7.133,0-13.526,3.691-17.104,9.875c-3.547,6.133-3.563,13.45-0.041,19.573c2.571,4.468,3.93,9.577,3.93,14.775v1.649
	c0,16.389-13.333,29.722-29.722,29.722s-29.722-13.333-29.722-29.722v-1.649c0-5.197,1.359-10.307,3.93-14.776
	c3.521-6.122,3.506-13.439-0.041-19.572c-3.577-6.184-9.971-9.875-17.104-9.875H284c-9.925,0-18-8.075-18-18v-29.073v-21.201
	c6.784,3.293,14.071,4.963,21.669,4.963h1.649c27.417,0,49.722-22.305,49.722-49.722s-22.305-49.722-49.722-49.722h-1.649
	c-7.599,0-14.885,1.669-21.669,4.962v-21.281V161c0-9.925,8.075-18,18-18h53c5.522,0,10-4.477,10-10s-4.478-10-10-10h-53
	c-11.071,0-21.048,4.761-28,12.341c-6.952-7.58-16.929-12.341-28-12.341h-51.573c4.12-7.373,6.295-15.735,6.295-24.224v-1.649
	c0-27.417-22.305-49.722-49.722-49.722S83.278,69.711,83.278,97.127v1.649c0,8.489,2.175,16.851,6.295,24.224H38
	c-20.953,0-38,17.047-38,38v50.666c0,6.895,3.505,13.178,9.377,16.808c5.819,3.599,12.941,3.928,19.044,0.88
	c4.129-2.063,8.587-3.108,13.248-3.108h1.649c16.389,0,29.722,13.333,29.722,29.722S59.707,285.69,43.318,285.69h-1.649
	c-4.661,0-9.118-1.046-13.248-3.109c-6.104-3.049-13.223-2.719-19.045,0.881C3.505,287.09,0,293.373,0,300.268V351
	c0,20.953,17.047,38,38,38h190c11.071,0,21.048-4.761,28-12.341c6.952,7.579,16.929,12.341,28,12.341h51.574
	c-4.121,7.373-6.296,15.734-6.296,24.224v1.649c0,27.417,22.305,49.722,49.722,49.722s49.722-22.305,49.722-49.722v-1.649
	c0-8.49-2.175-16.852-6.296-24.224H474c20.953,0,38-17.047,38-38V161C512,140.047,494.953,123,474,123z M228,369H38
	c-9.756,0-17.707-7.807-17.975-17.5h63.009c5.522,0,10-4.478,10-10s-4.478-10-10-10H20v-30.774
	c6.784,3.293,14.071,4.963,21.669,4.963h1.649c27.417,0,49.722-22.305,49.722-49.722s-22.305-49.722-49.722-49.722h-1.649
	c-7.599,0-14.885,1.669-21.669,4.962V161c0-9.925,8.075-18,18-18h52.063c7.133,0,13.526-3.691,17.104-9.875
	c3.547-6.133,3.563-13.45,0.041-19.572c-2.571-4.469-3.93-9.579-3.93-14.777v-1.649c0-16.389,13.333-29.722,29.722-29.722
	s29.722,13.333,29.722,29.722v1.649c0,5.197-1.359,10.307-3.93,14.777c-3.521,6.122-3.506,13.438,0.041,19.572
	c3.577,6.184,9.971,9.875,17.104,9.875H228c9.925,0,18,8.075,18,18v28.927v21.739c0,6.895,3.505,13.178,9.377,16.808
	c5.819,3.601,12.941,3.928,19.044,0.88c4.129-2.063,8.587-3.108,13.248-3.108h1.649c16.389,0,29.722,13.333,29.722,29.722
	s-13.333,29.722-29.722,29.722h-1.649c-4.661,0-9.118-1.046-13.248-3.109c-6.104-3.049-13.223-2.719-19.045,0.881
	c-5.871,3.63-9.376,9.913-9.376,16.808v21.659V351C246,360.925,237.925,369,228,369z"/>
<path d="M378.99,123c-2.631,0-5.211,1.07-7.07,2.93c-1.86,1.86-2.93,4.44-2.93,7.07s1.069,5.21,2.93,7.07
	c1.859,1.86,4.439,2.93,7.07,2.93c2.63,0,5.21-1.07,7.069-2.93c1.86-1.86,2.931-4.44,2.931-7.07s-1.07-5.21-2.931-7.07
	C384.2,124.07,381.62,123,378.99,123z"/>
<path d="M123.779,232.97c0-2.63-1.069-5.21-2.93-7.07c-1.859-1.86-4.439-2.93-7.07-2.93c-2.64,0-5.21,1.07-7.069,2.93
	c-1.87,1.86-2.931,4.44-2.931,7.07s1.061,5.21,2.931,7.07c1.859,1.86,4.439,2.93,7.069,2.93c2.631,0,5.2-1.07,7.07-2.93
	C122.71,238.18,123.779,235.6,123.779,232.97z"/>
<path d="M193.569,222.97c-2.63,0-5.199,1.07-7.069,2.93c-1.86,1.86-2.931,4.44-2.931,7.07s1.07,5.21,2.931,7.07
	c1.859,1.86,4.439,2.93,7.069,2.93c2.641,0,5.21-1.07,7.07-2.93c1.87-1.86,2.93-4.44,2.93-7.07s-1.06-5.21-2.93-7.07
	C198.779,224.04,196.2,222.97,193.569,222.97z"/>
<path d="M161.441,266.067c-4.281,4.283-11.25,4.283-15.531,0c-3.906-3.904-10.236-3.904-14.143,0
	c-3.905,3.905-3.905,10.237,0,14.143c5.853,5.852,13.633,9.074,21.908,9.074s16.056-3.223,21.908-9.074
	c3.905-3.905,3.905-10.237,0-14.143C171.678,262.163,165.348,262.163,161.441,266.067z"/>
<path d="M368.2,242.97c2.63,0,5.21-1.07,7.069-2.93c1.86-1.86,2.931-4.44,2.931-7.07s-1.07-5.21-2.931-7.07
	c-1.859-1.86-4.439-2.93-7.069-2.93c-2.631,0-5.21,1.07-7.07,2.93s-2.93,4.44-2.93,7.07s1.069,5.21,2.93,7.07
	C362.99,241.9,365.569,242.97,368.2,242.97z"/>
<path d="M455.069,240.04c1.86-1.86,2.931-4.44,2.931-7.07s-1.07-5.21-2.931-7.07c-1.859-1.86-4.439-2.93-7.069-2.93
	s-5.21,1.07-7.07,2.93s-2.93,4.44-2.93,7.07s1.069,5.21,2.93,7.07c1.86,1.86,4.44,2.93,7.07,2.93S453.21,241.9,455.069,240.04z"/>
<path d="M386.193,280.21c3.906,3.904,10.236,3.904,14.143,0c4.281-4.283,11.25-4.283,15.531,0c1.953,1.952,4.512,2.929,7.071,2.929
	s5.118-0.977,7.071-2.929c3.905-3.905,3.905-10.237,0-14.143c-5.853-5.852-13.633-9.074-21.908-9.074s-16.056,3.223-21.908,9.074
	C382.288,269.973,382.288,276.305,386.193,280.21z"/>
<path d="M378.989,69.73c5.522,0,10-4.477,10-10V10c0-5.523-4.478-10-10-10s-10,4.477-10,10v49.73
	C368.989,65.253,373.467,69.73,378.989,69.73z"/>
<path d="M318.647,85.997c1.952,1.951,4.511,2.926,7.068,2.926c2.561,0,5.121-0.978,7.074-2.932c3.903-3.907,3.9-10.239-0.006-14.142
	l-19.998-19.982c-3.907-3.905-10.239-3.901-14.143,0.005c-3.903,3.907-3.9,10.239,0.006,14.142L318.647,85.997z"/>
<path d="M431.021,90.241c2.561,0,5.121-0.978,7.074-2.932l21.262-21.279c3.903-3.907,3.9-10.239-0.006-14.142
	c-3.907-3.905-10.239-3.901-14.143,0.005l-21.262,21.279c-3.903,3.907-3.9,10.239,0.006,14.142
	C425.904,89.266,428.463,90.241,431.021,90.241z"/>
<path d="M133.011,442.271c-5.522,0-10,4.478-10,10V502c0,5.522,4.478,10,10,10s10-4.478,10-10v-49.729
	C143.011,446.748,138.533,442.271,133.011,442.271z"/>
<path d="M193.353,426.002c-3.907-3.903-10.239-3.9-14.143,0.006c-3.903,3.907-3.9,10.238,0.006,14.143l19.998,19.982
	c1.952,1.95,4.511,2.926,7.068,2.926c2.561,0,5.121-0.978,7.074-2.932c3.903-3.907,3.9-10.238-0.006-14.143L193.353,426.002z"/>
<path d="M73.905,424.69l-21.261,21.28c-3.903,3.907-3.9,10.238,0.006,14.143c1.953,1.95,4.511,2.926,7.068,2.926
	c2.561,0,5.121-0.978,7.074-2.932l21.262-21.279c3.903-3.907,3.9-10.238-0.006-14.143C84.14,420.781,77.81,420.784,73.905,424.69z"
	/>
<path d="M127,331.5c-2.641,0-5.21,1.069-7.08,2.93c-1.86,1.86-2.92,4.44-2.92,7.07s1.06,5.21,2.92,7.069
	c1.87,1.86,4.439,2.931,7.08,2.931c2.63,0,5.21-1.07,7.069-2.931c1.86-1.859,2.931-4.439,2.931-7.069s-1.07-5.21-2.931-7.07
	C132.2,332.569,129.63,331.5,127,331.5z"/>
<g>
</g>
<g>
</g>
<g>
</g>
<g>
</g>
<g>
</g>
<g>
</g>
<g>
</g>
<g>
</g>
<g>
</g>
<g>
</g>
<g>
</g>
<g>
</g>
<g>
</g>
<g>
</g>
<g>
</g>
</svg>
