<?xml version="1.0" encoding="iso-8859-1"?>
<!-- Generator: Adobe Illustrator 19.0.0, SVG Export Plug-In . SVG Version: 6.00 Build 0)  -->
<svg version="1.1" id="Capa_1" xmlns="http://www.w3.org/2000/svg" xmlns:xlink="http://www.w3.org/1999/xlink" x="0px" y="0px"
	 viewBox="0 0 512 512" style="enable-background:new 0 0 512 512;" xml:space="preserve">
<polygon style="fill:#BEBEBE;" points="154.467,411.867 126.422,252.815 55.516,265.317 85.251,437.747 "/>
<path style="fill:#78D2FA;" d="M55.72,267.093L55.72,267.093l-30.225,5.329l-15.025-85.21c-2.567-14.56,5.621-28.879,19.471-34.05
	l17.675-6.6c4.993-1.865,7.945-7.027,7.02-12.276l-0.917-5.2l27.79-4.9l0.917,5.2c0.926,5.249,5.465,9.091,10.795,9.135
	l18.874,0.156c14.784,0.122,27.376,10.777,29.944,25.337l15.025,85.209l-30.225,5.33l0,0L55.72,267.093z"/>
<path style="fill:#FFCDAC;" d="M54.636,134.287l-0.917-5.2l27.79-4.9l0.917,5.2c0.753,4.273,3.902,7.612,7.922,8.731L77.63,175.555
	l-27.18-30.566C53.665,142.535,55.368,138.442,54.636,134.287z"/>
<path style="fill:#878791;" d="M51.997,38.047L51.997,38.047c-19.58,3.452-32.654,22.124-29.202,41.704l1.505,8.535l17.334-3.056
	c11.523-2.032,21.555-9.061,27.398-19.198l0,0l26.174,9.752l-1.505-8.535C90.249,47.668,71.577,34.594,51.997,38.047z"/>
<path style="fill:#FFCDAC;" d="M41.634,85.228c5.639-0.994,10.916-3.192,15.525-6.359l11.873-12.839l19.576,7.294l6.597,2.458
	l1.092,6.195c3.453,19.58-9.621,38.252-29.202,41.704l0,0l0,0c-19.58,3.452-38.252-9.622-41.704-29.202L24.3,88.285L41.634,85.228z"
	/>
<polygon style="fill:#BEBEBE;" points="357.533,411.867 385.579,252.815 456.485,265.317 426.749,437.747 "/>
<path style="fill:#F5B955;" d="M456.281,267.093L456.281,267.093l30.225,5.329l15.025-85.21c2.567-14.56-5.621-28.879-19.471-34.05
	l-17.675-6.6c-4.993-1.865-7.945-7.027-7.02-12.276l0.917-5.2l-27.79-4.9l-0.917,5.2c-0.926,5.249-5.465,9.091-10.796,9.135
	l-18.874,0.156c-14.784,0.122-27.376,10.777-29.944,25.337l-15.025,85.209l30.225,5.33l0,0L456.281,267.093z"/>
<g>
	<rect x="223.999" y="320.997" style="fill:#FFCDAC;" width="32" height="79.1"/>
	<rect x="256.129" y="320.997" style="fill:#FFCDAC;" width="32" height="79.1"/>
</g>
<polyline style="fill:#78D2FA;" points="255.651,320.998 307.377,320.998 290.971,222.999 221.893,222.999 204.624,320.998 
	256.35,320.998 "/>
<path style="fill:#F5B955;" d="M311.374,135.423v-70.05C311.374,34.792,286.582,10,256,10l0,0
	c-30.582,0-55.374,24.792-55.374,55.374v70.051L311.374,135.423L311.374,135.423z"/>
<path style="fill:#FFCDAC;" d="M282.346,70v16.154c0,14.55-11.795,26.346-26.346,26.346l0,0l0,0
	c-14.55,0-26.346-11.795-26.346-26.346V70H282.346z"/>
<path style="fill:#A5DC69;" d="M501.999,501.997c-135.861-135.861-356.136-135.861-491.997,0H501.999z"/>
<path style="fill:#FF8C8C;" d="M296.311,132.706l-18.068-3.341c-5.104-0.944-8.808-5.396-8.808-10.587v-5.143h-26.777v5.143
	c0,5.191-3.704,9.643-8.808,10.587l-18.068,3.341c-14.158,2.618-24.432,14.966-24.432,29.364v84.262h14.065h12.367L221.894,223
	h69.078l3.906,23.333h11.801h14.065V162.07C320.743,147.671,310.469,135.323,296.311,132.706z"/>
<g>
	<path style="fill:#FFCDAC;" d="M256.008,158.32l21.415-29.144c-4.675-1.246-7.988-5.489-7.988-10.397v-5.143h-26.777v5.143
		c0,4.933-3.348,9.192-8.061,10.414L256.008,158.32z"/>
	<path style="fill:#FFCDAC;" d="M457.365,134.287l0.917-5.2l-27.79-4.9l-0.917,5.2c-0.753,4.273-3.902,7.612-7.922,8.731
		l12.717,37.438l27.18-30.566C458.335,142.535,456.632,138.442,457.365,134.287z"/>
</g>
<path style="fill:#878791;" d="M460.004,38.047L460.004,38.047c19.58,3.453,32.654,22.124,29.202,41.704l-1.505,8.535l-17.334-3.056
	c-11.523-2.032-21.555-9.061-27.398-19.198l0,0l-26.174,9.752l1.505-8.535C421.752,47.668,440.424,34.594,460.004,38.047z"/>
<path style="fill:#FFCDAC;" d="M470.366,85.228c-5.639-0.994-10.916-3.192-15.525-6.359l-11.873-12.839l-19.577,7.294l-6.597,2.458
	l-1.092,6.195c-3.453,19.58,9.621,38.252,29.202,41.704l0,0l0,0c19.58,3.452,38.252-9.622,41.704-29.202l1.093-6.195L470.366,85.228
	z"/>
<g>
	<polygon style="fill:#F5C86E;" points="417.414,72.271 417.414,72.271 416.981,74.723 	"/>
	<polygon style="fill:#F5C86E;" points="488.017,86.488 488.32,84.773 488.32,84.773 	"/>
</g>
<path d="M139.043,324.44c-5.438,0.964-9.065,6.153-8.102,11.592l0.071,0.402c0.859,4.848,5.077,8.257,9.835,8.257
	c0.579,0,1.167-0.051,1.756-0.155c5.438-0.964,9.065-6.153,8.102-11.592l-0.071-0.402
	C149.671,327.104,144.477,323.476,139.043,324.44z"/>
<path d="M436.687,438.963l27.643-160.296l20.439,3.604c0.578,0.103,1.158,0.152,1.737,0.152c2.038,0,4.043-0.623,5.736-1.809
	c2.172-1.521,3.652-3.843,4.112-6.455l15.025-85.211c3.405-19.308-7.454-38.297-25.821-45.155l-17.675-6.6
	c-0.115-0.043-0.218-0.106-0.308-0.182c-0.004-0.003-0.007-0.005-0.011-0.007c-0.275-0.237-0.417-0.607-0.351-0.982l0.884-5.013
	c3.415-1.359,6.691-3.138,9.763-5.327c10.034-7.15,16.607-18.19,18.747-30.323l1.561-8.85c0-0.003,0.001-0.007,0.001-0.01
	l0.746-4.232c2.187-12.401-0.425-25.285-7.748-35.529c-7.816-10.934-19.8-17.833-33.399-19.07
	c-9.427-0.858-18.959,1.27-27.128,6.052c-11.879,6.953-19.832,18.423-22.189,31.792l-0.885,5.019c0,0.001,0,0.002,0,0.002
	l-1.712,9.708c-2.87,16.279,3.245,32.098,14.763,42.364l-0.779,4.56c-0.156,0.911-0.947,1.576-1.871,1.573l-18.144-0.06
	c-19.606,0.162-36.304,14.292-39.709,33.601l-15.024,85.209c-0.959,5.439,2.672,10.625,8.111,11.584l20.483,3.612l-24.624,139.65
	c-16.712-4.494-33.712-7.754-50.934-9.773v-61.564h9.072c1.654,0,3.309-0.335,4.771-1.107c3.996-2.11,5.963-6.396,5.269-10.544
	l-10.549-63.015h14.052c5.523,0,10-4.477,10-10V162.07c0-9.715-3.509-18.728-9.416-25.72c0.028-0.305,0.047-0.613,0.047-0.926
	V66.366c0-35.875-28.487-65.811-64.358-66.358c-36.51-0.557-66.389,28.981-66.389,65.366v70.051c0,0.346,0.018,0.688,0.052,1.025
	c-5.856,6.979-9.33,15.953-9.33,25.621v84.262c0,5.523,4.477,10,10,10h14.065c0.154,0,0.303-0.016,0.455-0.023l-11.094,62.954
	c-0.684,3.879,0.966,7.895,4.44,10.154c1.679,1.091,3.679,1.582,5.682,1.582h9.103v61.55c-17.265,2.018-34.308,5.281-51.061,9.786
	l-5.105-28.953c-0.959-5.438-6.142-9.068-11.584-8.111c-5.439,0.959-9.071,6.146-8.112,11.584l5.513,31.268
	c-5.127,1.694-10.225,3.5-15.289,5.431l-25.5-144.618l15.757-2.778l5.178,29.366c0.855,4.852,5.075,8.266,9.836,8.266
	c0.559,0,1.127-0.048,1.697-0.145c5.452-0.933,9.057-6.525,8.096-11.972l-5.111-28.987l20.484-3.612
	c5.439-0.959,9.07-6.145,8.111-11.584l-15.024-85.21c-3.405-19.309-20.103-33.439-39.709-33.601l-18.266-0.151
	c-0.861-0.007-1.595-0.628-1.744-1.476l-0.784-4.446c11.519-10.266,17.633-26.085,14.763-42.365l-1.712-9.707c0,0,0-0.001,0-0.002
	l-0.744-4.221c-2.153-12.219-8.832-23.302-18.981-30.439C74.63,28.786,62.392,26.06,50.26,28.199
	c-12.129,2.139-22.695,8.883-29.743,18.988c-7.098,10.177-9.584,22.876-7.43,35.095l0.744,4.219c0,0.003,0.001,0.006,0.001,0.01
	l1.712,9.707c2.87,16.276,14.022,29.044,28.352,34.754l0.891,5.054c0.084,0.475-0.233,1.007-0.67,1.171l-17.675,6.6
	c-18.366,6.858-29.226,25.849-25.821,45.155l15.025,85.211c0.46,2.612,1.94,4.934,4.112,6.455c1.692,1.186,3.698,1.809,5.736,1.809
	c0.578,0,1.159-0.05,1.737-0.152l20.439-3.604l27.643,160.296c-26.26,15.365-50.492,34.072-72.383,55.963
	c-3.905,3.905-3.905,10.237,0,14.143c3.905,3.904,10.237,3.904,14.143,0c63.82-63.82,148.672-98.967,238.928-98.967
	s175.108,35.147,238.928,98.967c1.953,1.952,4.512,2.929,7.071,2.929c2.559,0,5.119-0.977,7.071-2.929
	c3.905-3.905,3.905-10.237,0-14.143C487.179,473.035,462.947,454.328,436.687,438.963z M402.56,421.41l26.273-149.002l15.801,2.786
	l-26.497,153.651C413.014,426.245,407.821,423.767,402.56,421.41z M446.64,113.833c-14.118-2.489-23.579-16.001-21.09-30.12
	l0.099-0.559l13.589-5.063c7.429,8.888,17.779,14.937,29.393,16.985l7.221,1.273C471.887,108.43,459.522,116.107,446.64,113.833z
	 M458.267,47.895c6.839,1.206,12.799,5.003,16.783,10.692c3.728,5.323,5.307,11.707,4.506,18.108l-7.453-1.314
	c-8.632-1.522-16.094-6.751-20.472-14.345c-1.829-3.173-5.176-5.007-8.666-5.007c-1.164,0-2.344,0.204-3.489,0.631l-7.638,2.846
	C437.332,50.93,447.627,46.018,458.267,47.895z M443.168,133.53c1.383,0.244,2.768,0.422,4.15,0.541
	c-0.385,3.761,0.251,7.451,1.731,10.747l-10.107,11.365l-4.877-14.359c2.377-2.544,4.14-5.683,5.028-9.214
	C440.426,132.971,441.782,133.285,443.168,133.53z M379.81,165.751c1.73-9.811,10.216-16.992,20.179-17.074l15.238-0.126
	l10.303,30.331c1.145,3.371,3.996,5.879,7.485,6.585c0.66,0.134,1.325,0.199,1.984,0.199c2.824,0,5.554-1.198,7.472-3.355
	l22.2-24.966l13.889,5.186c9.333,3.485,14.851,13.135,13.121,22.946l-13.288,75.362l-10.529-1.856l9.124-51.743
	c0.959-5.439-2.673-10.625-8.112-11.584c-5.437-0.958-10.625,2.672-11.584,8.112l-9.124,51.744l-25.701-4.532
	c-0.003-0.001-0.007-0.002-0.01-0.002s-0.007-0.001-0.01-0.001l-25.701-4.532l9.124-51.744c0.959-5.439-2.673-10.625-8.112-11.584
	c-5.438-0.96-10.625,2.673-11.584,8.112l-9.124,51.743l-10.529-1.857L379.81,165.751z M393.38,266.157l15.757,2.778l-25.5,144.618
	c-5.064-1.931-10.162-3.737-15.289-5.431L393.38,266.157z M216.54,310.998l13.745-78h52.221l13.058,78h-7.437h-32H256h-0.35H224
	H216.54z M278.127,390.102h-12v-59.104h12V390.102z M256,20c25.019,0,45.374,20.354,45.374,45.374v58.244
	c-1.063-0.289-2.144-0.541-3.245-0.745l-18.068-3.341c-0.363-0.067-0.626-0.384-0.626-0.753v-4.874
	c7.889-6.672,12.911-16.634,12.911-27.751V70c0-5.523-4.477-10-10-10h-52.691c-5.523,0-10,4.477-10,10v16.154
	c0,11.161,5.061,21.158,13.003,27.83v4.795c0,0.369-0.264,0.686-0.627,0.753l-18.067,3.341c-1.132,0.209-2.244,0.468-3.336,0.768
	V65.374C210.627,40.355,230.981,20,256,20z M272.346,86.154c0,9.013-7.333,16.346-16.346,16.346
	c-9.013,0-16.346-7.333-16.346-16.346V80h32.691v6.154H272.346z M252.35,122.316c1.201,0.12,2.418,0.183,3.65,0.183
	c1.263,0,2.511-0.065,3.741-0.192c0.561,3.263,1.895,6.278,3.81,8.853l-7.549,10.273l-7.508-10.213
	C250.433,128.634,251.784,125.601,252.35,122.316z M205.414,236.333h-4.065V162.07c0-9.576,6.834-17.79,16.25-19.53l12.672-2.343
	l17.676,24.046c1.884,2.563,4.876,4.078,8.058,4.077s6.173-1.515,8.058-4.079l17.679-24.059l12.751,2.358
	c9.416,1.741,16.25,9.955,16.25,19.53v74.263h-4.065c-1.137,0-2.225,0.199-3.243,0.548l-2.463-14.713v-36.559
	c0-5.523-4.477-10-10-10s-10,4.477-10,10V213h-48.941v-27.391c0-5.523-4.477-10-10-10s-10,4.477-10,10v35.744l-2.775,15.747
	C208.072,236.607,206.775,236.333,205.414,236.333z M246,330.998v59.104h-12v-59.104H246z M77.672,141.536L72,156.172l-9.172-11.066
	c1.573-3.369,2.252-7.168,1.854-11.039c1.379-0.116,2.763-0.293,4.151-0.538c1.386-0.244,2.742-0.558,4.075-0.919
	C73.763,136.009,75.429,139.044,77.672,141.536z M36.95,58.587c3.983-5.689,9.943-9.486,16.783-10.692
	c1.521-0.268,3.034-0.398,4.528-0.398c8.957,0,17.193,4.659,21.9,12.009l-7.638-2.846c-4.574-1.705-9.715,0.146-12.155,4.376
	c-4.377,7.594-11.838,12.823-20.47,14.345l-7.453,1.314C31.644,70.293,33.223,63.91,36.95,58.587z M36.15,96.35l7.221-1.273
	c11.613-2.048,21.963-8.097,29.392-16.985l13.589,5.063l0.099,0.559c2.489,14.119-6.972,27.631-21.09,30.12
	C52.483,116.1,40.114,108.43,36.15,96.35z M20.318,185.476c-1.73-9.811,3.788-19.46,13.121-22.945l13.634-5.091l20.397,24.608
	c1.917,2.313,4.75,3.618,7.698,3.618c0.533,0,1.07-0.042,1.606-0.129c3.5-0.569,6.438-2.95,7.719-6.257l11.91-30.732l15.608,0.129
	c9.962,0.083,18.449,7.264,20.179,17.074l13.288,75.362l-10.529,1.857l-9.124-51.743c-0.958-5.439-6.146-9.069-11.584-8.112
	c-5.439,0.959-9.071,6.146-8.112,11.584l9.124,51.744l-25.701,4.532c-0.003,0-0.007,0.001-0.01,0.001s-0.007,0.002-0.01,0.002
	l-25.701,4.532l-9.124-51.744c-0.959-5.439-6.143-9.07-11.584-8.112c-5.439,0.959-9.071,6.146-8.112,11.584l9.124,51.743
	l-10.529,1.856L20.318,185.476z M67.366,275.194l15.801-2.786L109.44,421.41c-5.261,2.357-10.454,4.835-15.577,7.436L67.366,275.194
	z"/>
<path d="M256.03,430.1c-0.012,0-0.023-0.001-0.035-0.001c-6.35,0-10.166,5.058-10.187,9.956
	c-0.021,4.909,3.763,10.009,10.134,10.046c0.02,0,0.039,0,0.059,0c6.371,0,10.186-5.077,10.193-9.985
	C266.2,435.206,262.401,430.118,256.03,430.1z"/>
<path d="M399.7,464.261c-30.087-15.277-62.34-25.574-95.861-30.605c-5.471-0.817-10.554,2.944-11.374,8.405
	c-0.82,5.462,2.943,10.554,8.405,11.374c31.399,4.712,61.604,14.354,89.775,28.658c1.451,0.737,2.997,1.086,4.52,1.086
	c3.646,0,7.161-2.001,8.924-5.475C406.59,472.78,404.625,466.761,399.7,464.261z"/>
<g>
</g>
<g>
</g>
<g>
</g>
<g>
</g>
<g>
</g>
<g>
</g>
<g>
</g>
<g>
</g>
<g>
</g>
<g>
</g>
<g>
</g>
<g>
</g>
<g>
</g>
<g>
</g>
<g>
</g>
</svg>
