<?xml version="1.0" encoding="iso-8859-1"?>
<!-- Generator: Adobe Illustrator 19.0.0, SVG Export Plug-In . SVG Version: 6.00 Build 0)  -->
<svg version="1.1" id="Capa_1" xmlns="http://www.w3.org/2000/svg" xmlns:xlink="http://www.w3.org/1999/xlink" x="0px" y="0px"
	 viewBox="0 0 512.001 512.001" style="enable-background:new 0 0 512.001 512.001;" xml:space="preserve">
<circle style="fill:#AFEBA5;" cx="79.709" cy="216.586" r="69.999"/>
<path style="fill:#FFB487;" d="M137.267,182.879c-9.97-3.239-20.833,1.087-25.845,10.294l-6.167,11.328l-11.993,36.938
	l-1.663,12.741c-1.357,10.395,4.889,20.281,14.859,23.52l4.566,1.484c16.175-8.093,29.228-22.402,35.258-40.961
	c6.03-18.558,3.881-37.804-4.445-53.858L137.267,182.879z"/>
<path style="fill:#FFCDAC;" d="M48.223,206.362L48.223,206.362c-4.051,12.469,2.772,25.86,15.241,29.911l14.691,4.773
	c12.469,4.051,25.86-2.772,29.911-15.241l0,0c4.051-12.469-2.772-25.86-15.241-29.911l-14.691-4.773
	C65.667,187.07,52.274,193.894,48.223,206.362z"/>
<circle style="fill:#9BBEFF;" cx="147.218" cy="423.782" r="69.999"/>
<path style="fill:#F5B955;" d="M132.937,358.626c-6.162,8.481-5.404,20.149,1.804,27.761l8.868,9.366l31.424,22.82l11.604,5.519
	c9.467,4.502,20.799,1.618,26.96-6.863l2.822-3.884c-2.699-17.884-12.274-34.72-28.061-46.191
	c-15.786-11.47-34.754-15.373-52.595-12.415L132.937,358.626z"/>
<path style="fill:#FFCDAC;" d="M127.755,450.57L127.755,450.57c10.607,7.706,25.451,5.355,33.157-5.252l9.08-12.497
	c7.706-10.607,5.355-25.452-5.252-33.157l0,0c-10.607-7.706-25.451-5.355-33.157,5.252l-9.08,12.497
	C114.798,428.018,117.149,442.863,127.755,450.57z"/>
<circle style="fill:#AAE6FF;" cx="365.124" cy="423.612" r="69.999"/>
<path style="fill:#A5DC69;" d="M298.746,417.053c6.162,8.481,17.493,11.366,26.959,6.863l11.648-5.54l31.413-22.835l8.835-9.331
	c7.208-7.612,7.966-19.281,1.804-27.761l-2.822-3.884c-17.843-2.96-36.813,0.944-52.602,12.414
	c-15.786,11.47-25.36,28.303-28.06,46.184L298.746,417.053z"/>
<path style="fill:#FFCDAC;" d="M384.586,450.394L384.586,450.394c10.607-7.706,12.958-22.552,5.252-33.157l-9.08-12.497
	c-7.706-10.607-22.552-12.958-33.157-5.252l0,0c-10.607,7.706-12.958,22.552-5.252,33.157l9.08,12.497
	C359.136,455.749,373.981,458.1,384.586,450.394z"/>
<circle style="fill:#FF8C8C;" cx="432.303" cy="216.306" r="69.999"/>
<path style="fill:#7D9BFF;" d="M405.551,277.415c9.97-3.24,16.215-13.125,14.859-23.52l-1.669-12.789l-12.01-36.932l-6.144-11.285
	c-5.013-9.207-15.876-13.534-25.845-10.294l-4.566,1.484c-8.329,16.055-10.479,35.303-4.448,53.863
	c6.03,18.558,19.082,32.865,35.253,40.959L405.551,277.415z"/>
<path style="fill:#FFCDAC;" d="M463.786,206.078L463.786,206.078c-4.051-12.469-17.444-19.292-29.911-15.241l-14.691,4.773
	c-12.469,4.051-19.292,17.444-15.241,29.911l0,0c4.051,12.469,17.444,19.292,29.911,15.241l14.691-4.773
	C461.013,231.939,467.837,218.547,463.786,206.078z"/>
<circle style="fill:#FFE682;" cx="256.046" cy="273.735" r="77.998"/>
<circle style="fill:#D7FA91;" cx="255.906" cy="88.369" r="69.999"/>
<path style="fill:#FF8C8C;" d="M305.751,132.687c0-10.483-7.472-19.478-17.777-21.4l-12.679-2.365l-38.836,0.009l-12.632,2.356
	c-10.305,1.922-17.777,10.916-17.777,21.4v4.801c12.695,12.882,30.337,20.876,49.852,20.876c19.513,0,37.153-7.992,49.848-20.871
	V132.687z"/>
<path style="fill:#FFCDAC;" d="M255.901,55.258L255.901,55.258c-13.111,0-23.739,10.628-23.739,23.739v15.447
	c0,13.11,10.628,23.739,23.739,23.739l0,0c13.11,0,23.739-10.628,23.739-23.739V78.996C279.64,65.886,269.012,55.258,255.901,55.258
	z"/>
<g>
	<path style="fill:#FFFFFF;" d="M231.635,256.238c8.607,0,24.416,17.494,24.416,17.494s-15.809,17.494-24.416,17.494
		s-15.584-7.832-15.584-17.494C216.051,264.07,223.029,256.238,231.635,256.238z"/>
	<path style="fill:#FFFFFF;" d="M280.465,256.238c-8.607,0-24.415,17.494-24.415,17.494s15.809,17.494,24.416,17.494
		s15.584-7.832,15.584-17.494C296.049,264.07,289.072,256.238,280.465,256.238z"/>
</g>
<path d="M512.001,216.566c0-44.111-35.887-79.998-79.998-79.998c-10.085,0-19.73,1.894-28.624,5.315
	c-18.706-20.906-41.841-37.723-67.604-49.103c0.08-1.462,0.127-2.933,0.127-4.415c0-44.111-35.887-79.998-79.998-79.998
	s-79.998,35.887-79.998,79.998c0,1.534,0.054,3.056,0.139,4.569c-25.541,11.296-48.651,28.103-67.362,48.972
	c-8.911-3.435-18.577-5.338-28.683-5.338C35.887,136.568,0,172.455,0,216.566c0,36.973,25.219,68.156,59.353,77.284
	c2.846,27.839,11.695,55.049,25.804,79.346c-11.22,13.774-17.963,31.331-17.963,50.44c0,44.111,35.887,79.998,79.998,79.998
	c28.129,0,52.896-14.606,67.163-36.619c13.673,2.95,27.671,4.429,41.685,4.429c14.06,0,28.131-1.503,41.904-4.476
	c14.263,22.04,39.044,36.666,67.193,36.666c44.111,0,79.998-35.887,79.998-79.998c0-19.188-6.795-36.814-18.099-50.613
	c14.024-24.148,22.846-51.32,25.721-79.206C486.838,284.65,512.001,253.499,512.001,216.566z M492.001,216.566
	c0,33.083-26.915,59.999-59.999,59.999c-2.743,0-5.438-0.202-8.084-0.56c5.11-6.505,7.642-14.951,6.508-23.641l-0.089-0.685
	c1.966-0.263,3.924-0.685,5.851-1.311l16.149-5.247c17.19-5.586,26.631-24.115,21.047-41.304c-0.001-0.001-0.001-0.003-0.002-0.005
	l-0.502-1.542c-2.705-8.328-8.491-15.103-16.293-19.078c-7.803-3.975-16.687-4.673-25.01-1.969l-16.149,5.248
	c-1.927,0.626-3.767,1.424-5.512,2.367l-0.324-0.595c-4.131-7.587-11.003-12.891-18.82-15.205c3.712-3.518,7.865-6.575,12.377-9.061
	c1.444-0.34,2.836-1.002,4.058-2.01c0.013-0.011,0.025-0.024,0.038-0.035c7.554-3.437,15.932-5.368,24.758-5.368
	C465.086,156.567,492.001,183.483,492.001,216.566z M376.963,192.711l1.248-0.406c5.327-1.73,11.137,0.583,13.814,5.502l3.567,6.552
	c-3.294,7.404-3.734,15.652-1.212,23.417l0.503,1.548c2.524,7.766,7.728,14.18,14.745,18.233l0.966,7.396
	c0.725,5.554-2.616,10.841-7.945,12.573l-1.488,0.484c-17.455-10.504-29.158-29.63-29.158-51.443
	C372.004,208.091,373.78,200.027,376.963,192.711z M420.258,230.581c-3.042-1.55-5.298-4.191-6.353-7.438l-0.503-1.548
	c-1.055-3.246-0.782-6.709,0.768-9.75s4.191-5.297,7.438-6.352l16.148-5.248c1.3-0.422,2.635-0.632,3.963-0.632
	c1.989,0,3.965,0.47,5.788,1.399c3.041,1.55,5.297,4.191,6.354,7.443l0.504,1.548c2.174,6.7-1.507,13.921-8.207,16.098
	l-16.149,5.247C426.762,232.403,423.299,232.131,420.258,230.581z M255.903,28.366c33.083,0,59.999,26.915,59.999,59.999
	c0,9.365-2.16,18.233-6.002,26.138c-4.615-6.727-11.788-11.63-20.286-13.215l-0.673-0.126c0.358-1.938,0.555-3.932,0.555-5.972
	v-16.98c0-18.075-14.705-32.779-32.778-32.779h-1.628c-18.074,0-32.778,14.705-32.778,32.779v16.98c0,2.04,0.197,4.034,0.555,5.972
	l-0.672,0.125c-8.499,1.585-15.672,6.488-20.288,13.215c-3.843-7.906-6.002-16.774-6.002-26.138
	C195.904,55.281,222.82,28.366,255.903,28.366z M269.497,95.192c0,7.046-5.732,12.779-12.779,12.779h-1.628
	c-7.047,0-12.779-5.733-12.779-12.779v-16.98c0-7.047,5.732-12.78,12.779-12.78h1.628c7.047,0,12.779,5.733,12.779,12.78V95.192z
	 M233.215,119.578c5.806,5.214,13.475,8.392,21.875,8.392h1.628c8.399,0,16.068-3.179,21.875-8.392l7.356,1.372
	c5.505,1.027,9.501,5.837,9.501,11.438v1.044c-10.568,9.285-24.406,14.933-39.545,14.933s-28.977-5.648-39.545-14.933v-1.044
	c0-5.601,3.996-10.411,9.503-11.438L233.215,119.578z M20.001,216.566c0-33.083,26.915-59.999,59.999-59.999
	c16.072,0,30.676,6.364,41.458,16.69c-7.907,2.279-14.871,7.61-19.04,15.268l-0.327,0.6c-1.732-0.94-3.568-1.743-5.508-2.373
	l-16.149-5.247c-8.326-2.706-17.209-2.007-25.011,1.968s-13.588,10.75-16.294,19.077c0,0,0,0,0,0.001l-0.503,1.547
	c-5.585,17.19,3.855,35.718,21.045,41.304l16.15,5.248c1.941,0.631,3.898,1.048,5.853,1.306l-0.09,0.69
	c-1.119,8.576,1.33,16.916,6.305,23.386c-2.584,0.341-5.214,0.535-7.89,0.535C46.916,276.565,20.001,249.65,20.001,216.566z
	 M110.533,268.185l-1.176-0.382c-5.326-1.73-8.666-7.018-7.941-12.571l0.97-7.436c6.749-3.912,12.145-10.209,14.74-18.194
	l0.503-1.548c2.595-7.989,1.942-16.265-1.222-23.398l3.577-6.571c2.679-4.918,8.49-7.233,13.815-5.502l1.388,0.451
	c3.094,7.229,4.813,15.183,4.813,23.531C139.998,238.505,128.155,257.722,110.533,268.185z M98.607,221.875l-0.503,1.548
	c-2.178,6.703-9.4,10.383-16.104,8.205l-16.149-5.248c-6.701-2.177-10.382-9.401-8.204-16.104l0.503-1.547
	c2.177-6.702,9.399-10.383,16.104-8.205l16.149,5.247C97.104,207.949,100.785,215.173,98.607,221.875z M147.194,483.635
	c-33.083,0-59.999-26.915-59.999-59.999c0-22.857,12.851-42.764,31.703-52.89c-0.261,8.206,2.657,16.452,8.638,22.769l0.466,0.492
	c-1.436,1.368-2.763,2.871-3.954,4.51l-9.981,13.738c-10.624,14.623-7.371,35.162,7.252,45.786l1.316,0.957
	c5.661,4.113,12.332,6.268,19.197,6.268c1.725,0,3.462-0.136,5.198-0.411c8.647-1.37,16.245-6.025,21.391-13.108l9.981-13.738
	c1.199-1.65,2.212-3.379,3.061-5.157l0.618,0.294c4.357,2.072,8.987,3.067,13.566,3.067c3.607,0,7.179-0.624,10.561-1.818
	C201.123,462.357,176.605,483.635,147.194,483.635z M183.914,411.868c-1.633-7.631-5.969-14.71-12.764-19.647l-1.316-0.957
	c-6.607-4.8-14.586-6.93-22.646-6.084l-5.128-5.417c-3.852-4.067-4.257-10.307-0.964-14.84l0.753-1.036
	c1.762-0.156,3.542-0.251,5.345-0.251c28.577,0,52.536,20.089,58.537,46.882l-0.649,0.894c-3.293,4.533-9.355,6.073-14.411,3.668
	L183.914,411.868z M130.247,424.009l9.981-13.738c2.007-2.761,4.969-4.576,8.34-5.11c0.677-0.107,1.354-0.16,2.026-0.16
	c2.676,0,5.277,0.84,7.484,2.443l1.316,0.957c5.701,4.143,6.97,12.15,2.828,17.851l-9.981,13.738
	c-2.007,2.761-4.969,4.576-8.34,5.11c-3.37,0.534-6.749-0.276-9.511-2.283l-1.316-0.957l0,0
	C127.374,437.718,126.106,429.709,130.247,424.009z M370.622,363.898l0.621,0.854c3.292,4.531,2.887,10.771-0.965,14.838
	l-5.145,5.433c-7.762-0.805-15.835,1.131-22.63,6.068l-1.316,0.957c-6.605,4.799-11.097,11.731-12.784,19.657l-6.737,3.204
	c-5.056,2.405-11.119,0.864-14.41-3.668l-0.623-0.858c6.052-26.725,29.977-46.746,58.506-46.746
	C366.989,363.637,368.815,363.733,370.622,363.898z M361.755,404.836c3.955,0,7.858,1.826,10.356,5.263l9.98,13.737
	c4.142,5.701,2.873,13.709-2.828,17.852l-1.316,0.957c-2.762,2.006-6.14,2.816-9.511,2.283c-3.371-0.534-6.333-2.349-8.34-5.111
	l-9.98-13.737c-2.007-2.762-2.817-6.139-2.283-9.511c0.534-3.372,2.349-6.333,5.11-8.34l1.316-0.956
	C356.522,405.628,359.15,404.836,361.755,404.836z M365.14,483.635c-29.475,0-54.037-21.371-59.047-49.428
	c3.393,1.203,6.978,1.83,10.598,1.83c4.578,0,9.21-0.995,13.566-3.067l0.611-0.291c0.858,1.789,1.877,3.516,3.068,5.155l9.98,13.737
	c5.146,7.084,12.743,11.739,21.391,13.109c1.737,0.275,3.473,0.411,5.198,0.411c6.865,0,13.536-2.155,19.197-6.268l1.316-0.956
	c14.623-10.624,17.876-31.163,7.252-45.786l-9.98-13.737c-1.199-1.651-2.531-3.148-3.959-4.505l0.47-0.497
	c5.938-6.271,8.859-14.443,8.646-22.591c18.847,10.129,31.692,30.032,31.692,52.885C425.139,456.72,398.223,483.635,365.14,483.635z
	 M412.042,358.887c-13.188-9.58-29.391-15.25-46.901-15.25c-44.111,0-79.998,35.887-79.998,79.998c0,8.627,1.39,16.932,3.928,24.722
	c-21.732,4.083-44.171,4.103-65.82,0.045c2.548-7.804,3.943-16.124,3.943-24.767c0-44.111-35.887-79.998-79.998-79.998
	c-17.585,0-33.852,5.717-47.07,15.37c-10.569-19.376-17.504-40.646-20.333-62.448c0.07,0,0.138,0.005,0.208,0.005
	c44.111,0,79.998-35.887,79.998-79.998c0-26.645-13.107-50.274-33.198-64.821c15.144-16.007,33.228-29.15,53.064-38.567
	c10.469,31.998,40.589,55.185,76.04,55.185c35.502,0,65.661-23.254,76.087-55.324c20.006,9.478,38.124,22.637,53.267,38.666
	c-20.123,14.544-33.253,38.19-33.253,64.86c0,44.111,35.887,79.998,79.998,79.998c0.101,0,0.2-0.007,0.301-0.008
	C429.451,318.392,422.548,339.63,412.042,358.887z"/>
<path d="M256.051,205.733h0.245c0.018,0,0.034,0,0.051,0c5.5,0,9.972-4.444,9.999-9.951c0.027-5.522-4.428-10.022-9.95-10.049
	h-0.345c-5.522,0-10,4.477-10,10S250.528,205.733,256.051,205.733z"/>
<path d="M296.201,195.41c-4.909-2.522-10.939-0.586-13.464,4.327c-2.523,4.913-0.586,10.941,4.327,13.464
	c22.813,11.715,36.984,34.91,36.984,60.533c0,37.494-30.504,67.999-67.999,67.999s-67.999-30.504-67.999-67.999
	c0-26.044,15.19-50.138,38.698-61.383c4.981-2.383,7.089-8.354,4.706-13.336c-2.384-4.982-8.352-7.088-13.337-4.706
	c-30.414,14.549-50.067,45.724-50.067,79.424c0,48.522,39.476,87.998,87.998,87.998s87.998-39.476,87.998-87.998
	C344.049,240.578,325.715,210.565,296.201,195.41z"/>
<path d="M231.635,246.239c-14.107,0-25.583,12.334-25.583,27.494c0,15.16,11.477,27.493,25.583,27.493
	c8.1,0,17.274-6.631,24.416-13.25c7.141,6.62,16.315,13.25,24.415,13.25c14.107,0,25.585-12.334,25.585-27.493
	c0-15.161-11.478-27.494-25.585-27.494c-8.1,0-17.274,6.631-24.415,13.25C248.909,252.869,239.735,246.239,231.635,246.239z
	 M231.369,281.218c-2.909-0.193-5.318-3.542-5.318-7.485c0-3.943,2.409-7.293,5.319-7.486c2.011,0.545,6.173,3.577,10.509,7.481
	C237.553,277.612,233.356,280.675,231.369,281.218z M280.729,266.246c2.911,0.193,5.32,3.542,5.32,7.486
	c0,3.943-2.41,7.292-5.32,7.485c-2.011-0.546-6.175-3.58-10.513-7.485C274.556,269.826,278.72,266.792,280.729,266.246z"/>
<g>
</g>
<g>
</g>
<g>
</g>
<g>
</g>
<g>
</g>
<g>
</g>
<g>
</g>
<g>
</g>
<g>
</g>
<g>
</g>
<g>
</g>
<g>
</g>
<g>
</g>
<g>
</g>
<g>
</g>
</svg>
