<?xml version="1.0" encoding="iso-8859-1"?>
<!-- Generator: Adobe Illustrator 19.0.0, SVG Export Plug-In . SVG Version: 6.00 Build 0)  -->
<svg version="1.1" id="Capa_1" xmlns="http://www.w3.org/2000/svg" xmlns:xlink="http://www.w3.org/1999/xlink" x="0px" y="0px"
	 viewBox="0 0 512.002 512.002" style="enable-background:new 0 0 512.002 512.002;" xml:space="preserve">
<path style="fill:#FFCDAC;" d="M162.698,227.118h62.544c9.983,0,19.449,4.441,25.831,12.119l40.473,48.694
	c8.986,10.812,5.271,27.205-7.499,33.086l0,0c-7.939,3.656-17.304,2.112-23.649-3.9l-28.221-29.185L123.593,388.965l-40.526-23.922
	L162.698,227.118z"/>
<path style="fill:#FFB487;" d="M348.38,227.118h-29.048c-8.938,0-17.507,3.562-23.811,9.898l-27.135,23.052l23.158,27.863
	c8.986,10.812,5.271,27.205-7.499,33.086l0,0c-7.939,3.656-17.304,2.112-23.649-3.9l-26.682-27.594l-37.341,31.722l-71.296,66.339
	c-2.685,6.37-1.722,13.983,3.147,19.524c6.786,7.723,18.547,8.484,26.27,1.698c-7.723,6.786-8.482,18.547-1.696,26.269
	c6.786,7.723,18.547,8.484,26.27,1.698c-7.723,6.785-8.482,18.546-1.697,26.268c6.787,7.724,18.547,8.484,26.27,1.698
	c-7.723,6.786-8.482,18.546-1.696,26.269s18.547,8.483,26.269,1.698l-0.043,0.047L256,468.115l166.262-106.568L348.38,227.118z"/>
<rect x="329.903" y="237.236" transform="matrix(-0.5 -0.866 0.866 -0.5 394.3997 779.6628)" style="fill:#78D2FA;" width="184.726" height="77.488"/>
<rect x="-2.613" y="237.25" transform="matrix(0.5 -0.866 0.866 0.5 -194.1422 215.7191)" style="fill:#FF5A5A;" width="184.726" height="77.488"/>
<g>
	<path style="fill:#FFCDAC;" d="M301.163,496.445L301.163,496.445c-7.42,7.42-19.45,7.42-26.87,0l-12.728-12.728
		c-7.42-7.42-7.42-19.45,0-26.87l0,0c7.42-7.42,19.45-7.42,26.87,0l12.728,12.728C308.583,476.995,308.583,489.025,301.163,496.445z
		"/>
	<path style="fill:#FFCDAC;" d="M328.033,469.575L328.033,469.575c-7.42,7.42-19.45,7.42-26.87,0l-12.728-12.728
		c-7.42-7.42-7.42-19.45,0-26.87l0,0c7.42-7.42,19.45-7.42,26.87,0l12.728,12.728C335.453,450.125,335.453,462.155,328.033,469.575z
		"/>
	<path style="fill:#FFCDAC;" d="M354.903,442.705L354.903,442.705c-7.42,7.42-19.45,7.42-26.87,0l-12.728-12.728
		c-7.42-7.42-7.42-19.45,0-26.87l0,0c7.42-7.42,19.45-7.42,26.87,0l12.728,12.728C362.323,423.255,362.323,435.285,354.903,442.705z
		"/>
	<path style="fill:#FFCDAC;" d="M381.773,415.835L381.773,415.835c-7.42,7.42-19.45,7.42-26.87,0l-12.728-12.728
		c-7.42-7.42-7.42-19.45,0-26.87l0,0c7.42-7.42,19.45-7.42,26.87,0l12.728,12.728C389.193,396.385,389.193,408.415,381.773,415.835z
		"/>
</g>
<circle style="fill:#F5B955;" cx="256" cy="101.069" r="91.07"/>
<path d="M510.66,331.614l-92.366-159.983c-2.762-4.783-8.877-6.423-13.66-3.66l-67.11,38.746c-2.297,1.326-3.973,3.51-4.659,6.072
	c-0.382,1.426-0.429,2.903-0.176,4.329h-13.356c-11.515,0-22.777,4.682-30.9,12.845l-17.47,17.559l-12.199-14.678
	c-8.307-9.995-20.525-15.727-33.521-15.727h-45.93c0.252-1.427,0.206-2.903-0.176-4.329c-0.687-2.562-2.362-4.746-4.659-6.072
	l-67.11-38.746c-4.784-2.761-10.899-1.123-13.66,3.66l-22.291,38.609c-2.762,4.783-1.123,10.899,3.66,13.66
	c4.783,2.762,10.9,1.124,13.66-3.66l17.291-29.949l49.79,28.746L73.45,361.7l-49.79-28.746l18.557-32.142
	c2.762-4.783,1.123-10.899-3.66-13.66c-4.781-2.761-10.898-1.123-13.66,3.66L1.34,331.614c-1.326,2.297-1.686,5.026-0.999,7.588
	s2.362,4.746,4.659,6.072l67.11,38.746c1.534,0.885,3.26,1.34,5,1.34c0.867,0,1.737-0.113,2.588-0.341
	c2.562-0.687,4.746-2.362,6.072-4.659l0.909-1.574l26.93,15.896c-0.037,6.761,2.301,13.56,7.104,19.027
	c4.684,5.331,10.925,8.5,17.455,9.428c0.073,6.836,2.559,13.35,7.119,18.539s10.7,8.494,17.469,9.445
	c0.08,6.594,2.42,13.191,7.104,18.521c4.688,5.335,10.935,8.506,17.47,9.431c0.076,6.599,2.417,13.203,7.104,18.538
	c5.648,6.428,13.562,9.714,21.513,9.714c6.53,0,13.085-2.216,18.431-6.729c0.144-0.113,0.285-0.231,0.423-0.354l15.921-14.097
	c1.074,1.643,2.33,3.202,3.772,4.644l12.728,12.728c5.654,5.653,13.08,8.48,20.506,8.48s14.853-2.827,20.506-8.48
	c5.136-5.136,7.931-11.736,8.401-18.469c6.733-0.47,13.333-3.265,18.469-8.401s7.931-11.736,8.401-18.469
	c6.733-0.47,13.333-3.265,18.469-8.401l0,0c5.136-5.136,7.931-11.736,8.401-18.469c6.733-0.47,13.333-3.265,18.469-8.401
	c8.381-8.381,10.543-20.657,6.499-31.054l26.975-18.267l3.912,6.775c1.326,2.297,3.51,3.973,6.072,4.659
	c0.852,0.228,1.722,0.341,2.588,0.341c1.74,0,3.467-0.455,5-1.34L507,345.275C511.783,342.513,513.422,336.397,510.66,331.614z
	 M294.092,489.374c-3.509,3.51-9.219,3.51-12.728,0l-12.728-12.728c-1.7-1.7-2.636-3.96-2.636-6.364s0.936-4.664,2.636-6.364
	c1.7-1.7,3.96-2.636,6.364-2.636s4.664,0.936,6.364,2.636l12.728,12.728C297.601,480.155,297.601,485.865,294.092,489.374z
	 M320.962,462.504c-3.509,3.51-9.219,3.51-12.728,0l-12.728-12.728c-1.7-1.7-2.636-3.96-2.636-6.364s0.936-4.664,2.636-6.364
	c1.7-1.7,3.96-2.636,6.364-2.636s4.664,0.936,6.364,2.636l12.728,12.728C324.471,453.285,324.471,458.995,320.962,462.504z
	 M347.832,435.633L347.832,435.633c-3.509,3.509-9.218,3.51-12.728,0l-12.728-12.728c-1.7-1.7-2.636-3.96-2.636-6.364
	s0.936-4.664,2.636-6.364c1.7-1.7,3.96-2.636,6.364-2.636s4.664,0.936,6.364,2.636l12.728,12.728
	C351.341,426.415,351.341,432.125,347.832,435.633z M374.702,408.763c-3.509,3.51-9.218,3.509-12.727,0l-12.728-12.728
	c-3.509-3.509-3.509-9.219,0-12.728c1.754-1.755,4.059-2.632,6.364-2.632c2.304,0,4.609,0.877,6.364,2.631l12.728,12.729
	C378.211,399.545,378.211,405.254,374.702,408.763z M383.004,376.054l-6.888-6.888c-11.308-11.307-29.706-11.306-41.012,0
	c-5.136,5.136-7.931,11.736-8.401,18.469c-6.733,0.47-13.333,3.265-18.469,8.401s-7.931,11.736-8.401,18.469
	c-6.733,0.47-13.333,3.265-18.469,8.401s-7.931,11.736-8.401,18.469c-6.733,0.47-13.333,3.265-18.469,8.401
	c-3.713,3.713-6.199,8.193-7.473,12.934l-25.149,22.267c-0.087,0.071-0.172,0.144-0.257,0.218
	c-3.567,3.134-9.021,2.783-12.157-0.786c-3.135-3.568-2.783-9.022,0.785-12.157c0.34-0.299,28.971-28.059,28.971-28.059
	c3.924-3.886,3.954-10.218,0.067-14.142c-3.886-3.924-10.218-3.955-14.142-0.067c0,0-25.896,25.678-26.062,25.869
	c-0.716,0.369-1.404,0.819-2.036,1.375c-3.567,3.135-9.021,2.783-12.157-0.787c-3.135-3.568-2.783-9.021,0.785-12.156
	c0.994-0.874,1.76-1.906,2.321-3.019l27.365-27.423c3.901-3.909,3.895-10.241-0.015-14.142c-3.908-3.901-10.24-3.895-14.142,0.015
	l-29.055,29.116c-0.472,0.473-0.883,0.982-1.241,1.517c-1.417,0.775-3.023,1.141-4.674,1.037c-2.296-0.148-4.397-1.183-5.917-2.912
	c-1.519-1.729-2.274-3.945-2.125-6.241c0.148-2.296,1.181-4.396,2.91-5.915c0.075-0.066,0.139-0.139,0.211-0.207
	c0.088-0.082,0.181-0.156,0.267-0.242l31.736-31.803c3.901-3.909,3.895-10.241-0.015-14.142c-3.909-3.901-10.241-3.895-14.142,0.015
	l-31.403,31.469c-3.569,3.003-8.918,2.621-12.013-0.901c-3.135-3.568-2.783-9.022,0.785-12.157
	c0.29-0.254,27.917-26.876,27.917-26.876c3.999-3.809,4.153-10.139,0.344-14.138c-3.81-4-10.14-4.154-14.138-0.344
	c0,0-29.15,28.065-29.767,28.755l-24.197-14.284l71.792-124.347h56.77c7.033,0,13.645,3.102,18.141,8.511l40.473,48.694
	c2.28,2.743,3.135,6.311,2.347,9.789c-0.788,3.479-3.099,6.33-6.338,7.822c-4.25,1.958-9.191,1.144-12.588-2.076l-43.397-41.121
	c-4.009-3.799-10.338-3.629-14.137,0.381c-3.799,4.009-3.628,10.338,0.381,14.137l2.8,2.653
	c-7.87,15.678-24.744,25.445-42.475,24.096l-0.212-0.016c-5.507-0.422-10.311,3.706-10.729,9.213
	c-0.419,5.507,3.706,10.311,9.213,10.729l0.215,0.016c1.586,0.121,3.164,0.18,4.738,0.18c22.037,0,42.631-11.618,54.203-30.05
	l25.645,24.3c5.979,5.665,13.69,8.629,21.536,8.629c4.446,0,8.936-0.953,13.174-2.905c8.933-4.114,15.304-11.975,17.478-21.567
	s-0.185-19.431-6.471-26.994l-15.432-18.567l18.806-18.902c4.396-4.418,10.491-6.952,16.722-6.952h24.197l68.764,119.102
	L383.004,376.054z M438.55,361.7l-82.367-142.663l49.79-28.746l82.366,142.663L438.55,361.7z"/>
<path d="M50.815,265.916c1.576,0.91,3.295,1.342,4.993,1.342c3.455,0,6.816-1.792,8.668-5l0.65-1.126
	c2.762-4.783,1.125-10.899-3.657-13.661c-4.783-2.762-10.899-1.125-13.661,3.657l-0.65,1.126
	C44.396,257.038,46.033,263.154,50.815,265.916z"/>
<path d="M448,330.004c2.63,0,5.21-1.07,7.07-2.93s2.93-4.44,2.93-7.07s-1.07-5.21-2.93-7.07c-1.86-1.86-4.44-2.93-7.07-2.93
	s-5.21,1.07-7.07,2.93c-1.86,1.86-2.93,4.44-2.93,7.07s1.07,5.21,2.93,7.07C442.79,328.933,445.37,330.004,448,330.004z"/>
<path d="M56.93,312.933c-1.86,1.86-2.93,4.44-2.93,7.07s1.07,5.21,2.93,7.07c1.86,1.86,4.44,2.93,7.07,2.93s5.21-1.07,7.07-2.93
	s2.93-4.44,2.93-7.07s-1.07-5.21-2.93-7.07c-1.86-1.86-4.44-2.93-7.07-2.93C61.37,310.004,58.79,311.073,56.93,312.933z"/>
<path d="M236.37,85.013c0-2.64-1.07-5.21-2.93-7.08c-1.86-1.86-4.44-2.92-7.08-2.92c-2.63,0-5.21,1.06-7.07,2.92
	s-2.92,4.44-2.92,7.08c0,2.63,1.06,5.21,2.92,7.07s4.44,2.93,7.07,2.93c2.64,0,5.21-1.07,7.08-2.93
	C235.3,90.223,236.37,87.643,236.37,85.013z"/>
<path d="M281.13,77.933c-1.86,1.87-2.92,4.44-2.92,7.08c0,2.63,1.06,5.21,2.92,7.07c1.87,1.86,4.44,2.93,7.08,2.93
	c2.63,0,5.21-1.07,7.07-2.93c1.86-1.86,2.93-4.44,2.93-7.07c0-2.64-1.07-5.21-2.93-7.08c-1.86-1.86-4.44-2.92-7.07-2.92
	C285.57,75.013,283,76.073,281.13,77.933z"/>
<path d="M256,202.138c55.729,0,101.067-45.339,101.067-101.067c0-11.505-1.92-22.794-5.707-33.555
	c-1.833-5.21-7.542-7.947-12.752-6.114c-5.21,1.833-7.947,7.543-6.114,12.752c3.034,8.623,4.573,17.678,4.573,26.917
	c0,44.701-36.366,81.067-81.067,81.067s-81.067-36.367-81.067-81.067S211.299,20.004,256,20.004c8.75,0,17.354,1.384,25.571,4.112
	c5.243,1.742,10.902-1.097,12.642-6.338c1.741-5.242-1.097-10.901-6.338-12.642C277.621,1.73,266.896,0.004,256,0.004
	c-55.729,0-101.067,45.338-101.067,101.067S200.271,202.138,256,202.138z"/>
<path d="M314.539,44.989c1.964,2.051,4.591,3.083,7.223,3.083c2.487,0,4.978-0.922,6.916-2.778c3.988-3.82,4.125-10.15,0.305-14.139
	c-0.268-0.28-0.539-0.559-0.811-0.837c-3.863-3.947-10.194-4.014-14.142-0.152c-3.947,3.863-4.015,10.194-0.152,14.142
	C314.1,44.534,314.32,44.761,314.539,44.989z"/>
<path d="M257.286,146.192c9.543,0,19.086-3.633,26.351-10.897c3.905-3.905,3.905-10.237,0-14.143
	c-3.905-3.905-10.237-3.905-14.143,0c-6.73,6.732-17.685,6.733-24.417,0c-3.905-3.905-10.237-3.905-14.143,0
	c-3.905,3.905-3.905,10.237,0,14.143C238.199,142.559,247.742,146.192,257.286,146.192z"/>
<path d="M434.31,60.004h6.859c5.523,0,10-4.477,10-10s-4.477-10-10-10h-6.859c-5.523,0-10,4.477-10,10S428.787,60.004,434.31,60.004
	z"/>
<path d="M482.831,60.004h6.859c5.523,0,10-4.477,10-10s-4.477-10-10-10h-6.859c-5.523,0-10,4.477-10,10
	S477.308,60.004,482.831,60.004z"/>
<path d="M462,87.693c5.523,0,10-4.477,10-10v-6.859c0-5.523-4.477-10-10-10s-10,4.477-10,10v6.859
	C452,83.216,456.477,87.693,462,87.693z"/>
<path d="M462,39.173c5.523,0,10-4.477,10-10v-6.859c0-5.523-4.477-10-10-10s-10,4.477-10,10v6.859
	C452,34.696,456.477,39.173,462,39.173z"/>
<path d="M10,138.211h6.859c5.523,0,10-4.477,10-10c0-5.523-4.477-10-10-10H10c-5.523,0-10,4.477-10,10S4.477,138.211,10,138.211z"/>
<path d="M58.521,138.211h6.859c5.523,0,10-4.477,10-10c0-5.523-4.477-10-10-10h-6.859c-5.523,0-10,4.477-10,10
	S52.998,138.211,58.521,138.211z"/>
<path d="M37.69,165.9c5.523,0,10-4.477,10-10v-6.859c0-5.523-4.477-10-10-10s-10,4.477-10,10v6.859
	C27.69,161.423,32.167,165.9,37.69,165.9z"/>
<path d="M37.69,117.38c5.523,0,10-4.477,10-10v-6.859c0-5.523-4.477-10-10-10s-10,4.477-10,10v6.859
	C27.69,112.903,32.167,117.38,37.69,117.38z"/>
<g>
</g>
<g>
</g>
<g>
</g>
<g>
</g>
<g>
</g>
<g>
</g>
<g>
</g>
<g>
</g>
<g>
</g>
<g>
</g>
<g>
</g>
<g>
</g>
<g>
</g>
<g>
</g>
<g>
</g>
</svg>
