<?xml version="1.0" encoding="iso-8859-1"?>
<!-- Generator: Adobe Illustrator 19.0.0, SVG Export Plug-In . SVG Version: 6.00 Build 0)  -->
<svg version="1.1" id="Capa_1" xmlns="http://www.w3.org/2000/svg" xmlns:xlink="http://www.w3.org/1999/xlink" x="0px" y="0px"
	 viewBox="0 0 511.998 511.998" style="enable-background:new 0 0 511.998 511.998;" xml:space="preserve">
<rect x="287.458" y="239.978" style="fill:#878791;" width="79.9" height="153.979"/>
<path style="fill:#D7FA91;" d="M287.461,238.193v-85.79h-31.34l-22.123-43.573h62.906c8.53,0,15.444-6.915,15.444-15.444l0,0h30.115
	l0,0c0,8.53,6.915,15.444,15.444,15.444h8.392c17.894,0,32.4,14.506,32.4,32.4v115.071h-31.34v-18.11h-79.898V238.193z"/>
<g>
	<path style="fill:#FFCDAC;" d="M327.421,135.791l20.729-30.439c-3.469-2.832-5.686-7.139-5.686-11.967l0,0h-30.115l0,0
		c0,4.821-2.211,9.124-5.672,11.956L327.421,135.791z"/>
	<path style="fill:#FFCDAC;" d="M215.18,47.281v13.124c0,19.715-15.983,35.698-35.698,35.698l0,0l0,0
		c-19.715,0-35.698-15.983-35.698-35.698V47.281H215.18z"/>
</g>
<path style="fill:#F5C86E;" d="M179.482,10.005L179.482,10.005c-19.715,0-35.698,15.983-35.698,35.698v8.594h17.454
	c11.602,0,22.609-5.137,30.061-14.03l0,0l23.881,14.03v-8.594C215.18,25.987,199.197,10.005,179.482,10.005z"/>
<path style="fill:#FFCDAC;" d="M363.105,47.281v13.124c0,19.715-15.983,35.698-35.698,35.698l0,0l0,0
	c-19.715,0-35.698-15.983-35.698-35.698V47.281H363.105z"/>
<path style="fill:#F5C86E;" d="M327.407,10.005L327.407,10.005c-19.716,0-35.698,15.983-35.698,35.698v8.594h17.454
	c11.602,0,22.609-5.137,30.061-14.03l0,0l23.881,14.03v-8.594C363.105,25.987,347.122,10.005,327.407,10.005z"/>
<polygon style="fill:#878791;" points="219.432,334.21 219.432,239.974 139.531,239.974 139.531,313.298 "/>
<path style="fill:#AAE6FF;" d="M139.531,238.193v18.11h-31.34V141.23c0-17.894,14.506-32.4,32.4-32.4h8.383
	c8.53,0,15.444-6.915,15.444-15.444l0,0h30.115l0,0c0,8.53,6.915,15.444,15.444,15.444h8.392c17.894,0,32.4,14.506,32.4,32.4
	v115.071h-31.34v-18.11h-79.898V238.193z"/>
<g>
	<path style="fill:#FFCDAC;" d="M179.492,135.791l20.729-30.439c-3.469-2.832-5.686-7.139-5.686-11.967l0,0h-30.116l0,0
		c0,4.821-2.211,9.124-5.672,11.956L179.492,135.791z"/>
	<path style="fill:#FFCDAC;" d="M193.658,408.574l0.117,0.076l32.105,20.881c7.401,4.814,16.04,7.376,24.869,7.376h110.492
		c18.231,0,23.695-26.209,10.803-39.1l0,0c-3.751-3.751-8.838-5.858-14.142-5.858h-71.036c-7.956,0-15.587-3.161-21.213-8.787
		l-53.183-53.433c-9.377-9.377-22.095-14.645-35.355-14.645H89.999v157.729l31.568,12.471c27.871,11.01,57.569,16.664,87.535,16.664
		h137.959c19.897,0,39.21-6.724,54.805-19.08l90.164-71.438c12.298-9.744,13.385-28.02,2.327-39.152l0,0
		c-9.106-9.168-23.524-10.364-34.016-2.821l-88.205,63.414"/>
</g>
<rect x="10" y="285.947" style="fill:#FF5A5A;" width="80" height="215.999"/>
<path d="M434.307,59.951h6.859c5.523,0,10-4.477,10-10s-4.477-10-10-10h-6.859c-5.523,0-10,4.477-10,10
	S428.784,59.951,434.307,59.951z"/>
<path d="M482.828,59.951h6.859c5.523,0,10-4.477,10-10s-4.477-10-10-10h-6.859c-5.523,0-10,4.477-10,10
	S477.305,59.951,482.828,59.951z"/>
<path d="M461.997,87.641c5.523,0,10-4.477,10-10v-6.859c0-5.523-4.477-10-10-10s-10,4.477-10,10v6.859
	C451.997,83.164,456.474,87.641,461.997,87.641z"/>
<path d="M461.997,39.121c5.523,0,10-4.477,10-10v-6.859c0-5.523-4.477-10-10-10s-10,4.477-10,10v6.859
	C451.997,34.644,456.474,39.121,461.997,39.121z"/>
<path d="M10,183.234h6.859c5.523,0,10-4.477,10-10c0-5.523-4.477-10-10-10H10c-5.523,0-10,4.477-10,10
	C0,178.757,4.477,183.234,10,183.234z"/>
<path d="M58.521,183.234h6.859c5.523,0,10-4.477,10-10c0-5.523-4.477-10-10-10h-6.859c-5.523,0-10,4.477-10,10
	C48.521,178.757,52.998,183.234,58.521,183.234z"/>
<path d="M37.69,210.923c5.523,0,10-4.477,10-10v-6.859c0-5.523-4.477-10-10-10s-10,4.477-10,10v6.859
	C27.69,206.446,32.167,210.923,37.69,210.923z"/>
<path d="M37.69,162.402c5.523,0,10-4.477,10-10v-6.859c0-5.523-4.477-10-10-10s-10,4.477-10,10v6.859
	C27.69,157.925,32.167,162.402,37.69,162.402z"/>
<path d="M501.454,365.231c-12.639-12.725-32.384-14.361-46.948-3.893l-66.061,47.493c-1.29-6.828-4.471-13.236-9.33-18.096
	c-0.577-0.577-1.179-1.121-1.793-1.645c0.016-0.228,0.035-0.455,0.035-0.686V264.825h22.137c5.523,0,10-4.477,10-10V141.213
	c0-23.37-19.021-42.383-42.4-42.383h-9.182c-1.429,0-2.727-0.556-3.7-1.457c11.406-8.303,18.84-21.745,18.84-36.897V45.675
	c0-25.158-20.476-45.626-45.645-45.626l0,0c-25.168,0-45.645,20.468-45.645,45.626v14.802c0,15.15,7.431,28.59,18.834,36.893
	c-0.974,0.903-2.273,1.461-3.704,1.461h-15.882c-5.523,0-10,4.477-10,10c0,5.523,4.477,10,10,10h15.882
	c2.181,0,4.299-0.276,6.321-0.795l14.197,20.839v39.016c0,5.523,4.477,10,10,10s10-4.477,10-10v-39.016l14.19-20.837
	c2.019,0.517,4.134,0.793,6.312,0.793h9.182c12.352,0,22.4,10.041,22.4,22.383v103.612h-12.137v-84.257c0-5.523-4.477-10-10-10
	s-10,4.477-10,10v69.405h-59.9v-69.405c0-5.523-4.477-10-10-10s-10,4.477-10,10V379.61c-1.716-0.917-3.305-2.091-4.716-3.502
	l-43.31-43.514v-66.293h21.34c5.523,0,10-4.477,10-10V141.23c0-23.38-19.021-42.4-42.4-42.4h-8.393
	c-1.426,0-2.722-0.555-3.693-1.456c11.407-8.303,18.841-21.745,18.841-36.898V45.675c0-25.158-20.476-45.626-45.645-45.626
	c-25.168,0-45.645,20.468-45.645,45.626v14.802c0,15.15,7.432,28.591,18.836,36.894c-0.972,0.903-2.27,1.46-3.698,1.46h-8.383
	c-23.38,0-42.4,19.021-42.4,42.4v115.071c0,5.523,4.477,10,10,10h21.339v38.783H99.999v-19.135c0-5.523-4.477-10-10-10H10
	c-5.523,0-10,4.477-10,10v215.999c0,5.523,4.477,10,10,10h80c5.523,0,10-4.477,10-10v-14.432l17.894,7.069
	c29.164,11.522,59.851,17.364,91.209,17.364h137.959c22.058,0,43.727-7.544,61.015-21.242l9.464-7.499
	c4.329-3.43,5.058-9.719,1.628-14.048c-3.429-4.329-9.718-5.059-14.048-1.628l-9.464,7.499
	c-13.77,10.91-31.028,16.918-48.595,16.918H209.103c-28.833,0-57.047-5.371-83.861-15.964l-25.243-9.973V325.085h77.116
	c10.685,0,20.729,4.161,28.268,11.699l53.2,53.45c7.555,7.555,17.6,11.715,28.284,11.715h71.036c2.671,0,5.183,1.04,7.071,2.929
	c4.585,4.585,4.955,12.138,2.976,16.917c-0.661,1.596-1.452,2.693-2.262,3.448c-0.086,0.073-0.174,0.143-0.257,0.218
	c-1.706,1.437-3.445,1.446-4.188,1.446H250.749c-6.91,0-13.624-1.992-19.417-5.759l-32.116-20.889l-0.117-0.076
	c-4.634-3.005-10.826-1.685-13.832,2.949c-3.005,4.634-1.685,10.826,2.949,13.832l32.211,20.95
	c9.046,5.884,19.531,8.994,30.321,8.994H361.24c6.525,0,12.427-2.212,17.122-6.195l87.817-63.135
	c6.54-4.703,15.408-3.967,21.083,1.748c3.315,3.337,4.987,7.761,4.708,12.457c-0.279,4.695-2.463,8.89-6.15,11.811l-14.536,11.517
	c-4.329,3.43-5.057,9.719-1.627,14.048c3.43,4.328,9.72,5.056,14.048,1.627l14.535-11.517c8.09-6.41,13.082-15.996,13.694-26.3
	C512.549,382.665,508.728,372.555,501.454,365.231z M327.409,118.028l-8.32-12.212c0.083-0.147,0.167-0.293,0.246-0.442
	c2.622,0.47,5.317,0.729,8.072,0.729c2.752,0,5.444-0.258,8.063-0.727c0.081,0.151,0.166,0.299,0.25,0.448L327.409,118.028z
	 M327.407,86.103c-12.857,0-23.532-9.505-25.364-21.852h7.147c11.676,0,22.809-4.108,31.591-11.481l12.271,7.205v0.501
	C353.052,74.608,341.547,86.103,327.407,86.103z M327.407,20.049c10.547,0,19.628,6.396,23.562,15.511l-6.699-3.933
	c-4.21-2.473-9.59-1.543-12.727,2.198c-5.555,6.626-13.703,10.426-22.354,10.426H301.8
	C302.543,30.781,313.745,20.049,327.407,20.049z M80,491.948H20V295.949h60V491.948z M179.481,86.103
	c-12.857,0-23.532-9.505-25.364-21.852h7.147c11.676,0,22.809-4.108,31.59-11.481l12.271,7.206v0.501
	C205.126,74.608,193.622,86.103,179.481,86.103z M179.484,118.028l-8.32-12.212c0.083-0.147,0.167-0.294,0.247-0.443
	c2.622,0.47,5.316,0.729,8.071,0.729c2.752,0,5.443-0.258,8.063-0.727c0.081,0.151,0.166,0.3,0.25,0.449L179.484,118.028z
	 M179.481,20.049c10.548,0,19.629,6.396,23.563,15.511l-6.699-3.934c-4.21-2.471-9.59-1.543-12.727,2.199
	c-5.555,6.626-13.703,10.426-22.354,10.426h-7.389C154.618,30.781,165.819,20.049,179.481,20.049z M118.192,246.302V141.23
	c0-12.352,10.049-22.4,22.4-22.4h8.383c2.179,0,4.294-0.276,6.314-0.794l14.192,20.832v39.021c0,5.523,4.477,10,10,10
	s10-4.477,10-10v-39.01l14.193-20.841c2.017,0.516,4.129,0.792,6.304,0.792h8.393c12.352,0,22.4,10.049,22.4,22.4v105.071h-11.34
	v-8.109v-75.507v-2.117c0-5.523-4.477-10-10-10s-10,4.477-10,10v2.117v67.288h-59.9v-67.288v-2.117c0-5.523-4.477-10-10-10
	c-5.523,0-10,4.477-10,10v2.117v75.507v8.109L118.192,246.302L118.192,246.302z M149.531,256.302v-6.328h19.95v55.111h-19.95
	V256.302z M189.481,306.364v-56.391h19.95v6.328v58.225C203.327,310.607,196.588,307.846,189.481,306.364z M297.457,249.974h19.95
	v131.975h-19.95V249.974z M337.407,249.974h19.95v131.975h-19.95V249.974z"/>
<path d="M440.438,439.551l-0.188,0.149c-4.329,3.43-5.059,9.719-1.629,14.048c1.974,2.492,4.895,3.791,7.845,3.791
	c2.175,0,4.366-0.707,6.203-2.162l0.188-0.149c4.329-3.43,5.059-9.719,1.629-14.048
	C451.057,436.851,444.767,436.122,440.438,439.551z"/>
<path d="M50,450.089c-2.63,0-5.21,1.06-7.07,2.92c-1.86,1.87-2.93,4.44-2.93,7.08c0,2.63,1.07,5.2,2.93,7.07
	c1.86,1.86,4.44,2.92,7.07,2.92s5.21-1.06,7.07-2.92c1.86-1.86,2.93-4.44,2.93-7.07c0-2.64-1.07-5.22-2.93-7.08
	C55.21,451.149,52.63,450.089,50,450.089z"/>
<path d="M50,329.723c-5.523,0-10,4.477-10,10v80.971c0,5.523,4.477,10,10,10s10-4.477,10-10v-80.971
	C60,334.2,55.523,329.723,50,329.723z"/>
<g>
</g>
<g>
</g>
<g>
</g>
<g>
</g>
<g>
</g>
<g>
</g>
<g>
</g>
<g>
</g>
<g>
</g>
<g>
</g>
<g>
</g>
<g>
</g>
<g>
</g>
<g>
</g>
<g>
</g>
</svg>
