<?xml version="1.0" encoding="iso-8859-1"?>
<!-- Generator: Adobe Illustrator 19.0.0, SVG Export Plug-In . SVG Version: 6.00 Build 0)  -->
<svg version="1.1" id="Capa_1" xmlns="http://www.w3.org/2000/svg" xmlns:xlink="http://www.w3.org/1999/xlink" x="0px" y="0px"
	 viewBox="0 0 512.002 512.002" style="enable-background:new 0 0 512.002 512.002;" xml:space="preserve">
<g>
	<rect x="336.345" y="323.665" style="fill:#FFB487;" width="91.309" height="178.328"/>
	<rect x="69.039" y="317.235" style="fill:#FFB487;" width="103.919" height="184.547"/>
</g>
<g>
	<rect x="336.345" y="309.855" style="fill:#878791;" width="107.219" height="60.139"/>
	<rect x="68.279" y="309.855" style="fill:#878791;" width="107.219" height="60.139"/>
</g>
<path style="fill:#A5DC69;" d="M175.67,309.857L175.67,309.857c-0.213-18.292,7.469-35.741,20.962-48.092
	c22.712-20.792,37.365-50.989,37.365-83.79c0-61.849-50.145-111.984-111.998-111.984C60.142,65.99,10,116.125,10,177.975
	c0,32.689,14.545,62.933,37.12,83.782c13.437,12.41,21.16,29.81,21.16,48.1l0,0H175.67z"/>
<path style="fill:#FFE682;" d="M443.721,309.857L443.721,309.857c0-18.291,7.723-35.691,21.16-48.1
	c22.575-20.85,37.12-51.094,37.12-83.782c0-61.849-50.142-111.984-111.998-111.984c-61.853,0-111.998,50.135-111.998,111.984
	c0,32.801,14.654,62.998,37.365,83.79c13.493,12.352,21.175,29.801,20.962,48.092l0,0L443.721,309.857L443.721,309.857z"/>
<g>
	<path style="fill:#FFCDAC;" d="M330.856,500.962l-34.616-12.889c-7.996-2.977-13.454-11.929-13.454-22.066l0,0
		c0-15.527,12.395-26.626,24.642-22.066l34.616,12.889c7.996,2.977,13.454,11.929,13.454,22.066l0,0
		C355.498,494.423,343.103,505.522,330.856,500.962z"/>
	<path style="fill:#FFCDAC;" d="M330.856,452.665l-34.616-12.889c-7.996-2.977-13.454-11.929-13.454-22.066l0,0
		c0-15.527,12.395-26.626,24.642-22.066l34.616,12.889c7.996,2.977,13.454,11.929,13.454,22.066l0,0
		C355.498,446.125,343.103,457.225,330.856,452.665z"/>
	<path style="fill:#FFCDAC;" d="M330.856,404.366l-34.616-12.889c-7.996-2.977-13.454-11.929-13.454-22.066l0,0
		c0-15.527,12.395-26.626,24.642-22.066l34.616,12.889c7.996,2.977,13.454,11.929,13.454,22.066l0,0
		C355.498,397.828,343.103,408.926,330.856,404.366z"/>
	<path style="fill:#FFCDAC;" d="M330.856,356.069l-34.616-12.889c-7.996-2.977-13.454-11.929-13.454-22.066l0,0
		c0-15.527,12.395-26.626,24.642-22.066l34.616,12.889c7.996,2.977,13.454,11.929,13.454,22.066l0,0
		C355.498,349.529,343.103,360.629,330.856,356.069z"/>
	<path style="fill:#FFCDAC;" d="M396.169,501.996v-44.189c0-31.062,15.238-60.146,40.775-77.828l6.017-4.166v-58.581
		c0-11.281,9.145-20.426,20.426-20.426l0,0c11.281,0,20.426,9.145,20.426,20.426v106.482c0,7.3-1.491,14.524-4.383,21.227
		l-24.609,57.055h-58.652V501.996z"/>
	<path style="fill:#FFCDAC;" d="M181.144,500.962l34.616-12.889c7.996-2.977,13.454-11.929,13.454-22.066l0,0
		c0-15.527-12.395-26.626-24.642-22.066l-34.616,12.889c-7.996,2.977-13.454,11.929-13.454,22.066l0,0
		C156.502,494.423,168.897,505.522,181.144,500.962z"/>
	<path style="fill:#FFCDAC;" d="M181.144,452.665l34.616-12.889c7.996-2.977,13.454-11.929,13.454-22.066l0,0
		c0-15.527-12.395-26.626-24.642-22.066l-34.616,12.889c-7.996,2.977-13.454,11.929-13.454,22.066l0,0
		C156.502,446.125,168.897,457.225,181.144,452.665z"/>
	<path style="fill:#FFCDAC;" d="M181.144,404.366l34.616-12.889c7.996-2.977,13.454-11.929,13.454-22.066l0,0
		c0-15.527-12.395-26.626-24.642-22.066l-34.616,12.889c-7.996,2.977-13.454,11.929-13.454,22.066l0,0
		C156.502,397.828,168.897,408.926,181.144,404.366z"/>
	<path style="fill:#FFCDAC;" d="M181.144,356.069l34.616-12.889c7.996-2.977,13.454-11.929,13.454-22.066l0,0
		c0-15.527-12.395-26.626-24.642-22.066l-34.616,12.889c-7.996,2.977-13.454,11.929-13.454,22.066l0,0
		C156.502,349.529,168.897,360.629,181.144,356.069z"/>
	<path style="fill:#FFCDAC;" d="M115.831,501.996v-44.189c0-31.062-15.238-60.146-40.775-77.828l-6.017-4.166v-58.581
		c0-11.281-9.145-20.426-20.426-20.426l0,0c-11.281,0-20.426,9.145-20.426,20.426v106.482c0,7.3,1.491,14.524,4.383,21.227
		l24.609,57.055h58.652V501.996z"/>
</g>
<path d="M483.812,406.997c-5.523,0-10,4.477-10,10v6.717c0,5.973-1.199,11.782-3.565,17.266l-22.004,51.016h-42.074v-34.19
	c0-27.775,13.633-53.795,36.468-69.606l6.017-4.166c2.697-1.868,4.307-4.94,4.307-8.222v-58.581c0-5.749,4.677-10.426,10.426-10.426
	c5.749,0,10.426,4.677,10.426,10.426v17.028c0,5.523,4.477,10,10,10c5.523,0,10-4.477,10-10v-17.028
	c0-16.777-13.649-30.426-30.426-30.426c-1.612,0-3.194,0.129-4.739,0.371c3.054-6.757,7.451-12.932,13.018-18.073
	c25.634-23.675,40.335-56.89,40.335-91.128c0-67.263-54.728-121.984-121.998-121.984s-121.998,54.722-121.998,121.984
	c0,34.309,14.803,67.537,40.613,91.166c7.608,6.965,12.996,15.851,15.709,25.529l-13.408-4.992
	c-8.134-3.028-16.97-1.869-24.24,3.181c-8.698,6.043-13.892,16.606-13.892,28.257c0,9.391,3.448,18.027,9.164,24.134
	c-5.815,6.175-9.164,14.817-9.164,24.165c0,9.391,3.448,18.026,9.164,24.134c-5.815,6.175-9.164,14.817-9.164,24.165
	c0,9.391,3.448,18.026,9.164,24.134c-5.815,6.175-9.164,14.817-9.164,24.165c0,14.357,8.023,26.991,19.965,31.438l34.615,12.889
	c2.981,1.11,6.055,1.657,9.112,1.657c5.287,0,10.522-1.638,15.128-4.838c8.698-6.043,13.891-16.606,13.891-28.257
	c0-9.391-3.448-18.026-9.163-24.134c5.814-6.175,9.163-14.817,9.163-24.165c0-9.391-3.448-18.026-9.164-24.134
	c5.814-6.175,9.164-14.817,9.164-24.165c0-0.774-0.034-1.54-0.08-2.303h55.421c-21.908,19.707-34.671,47.935-34.671,77.809v44.189
	c0,5.523,4.477,10,10,10h58.652c3.992,0,7.602-2.374,9.182-6.04l24.609-57.055c3.451-8,5.201-16.474,5.201-25.188v-6.717
	C493.812,411.474,489.335,406.997,483.812,406.997z M288.003,177.975c0-56.234,45.756-101.985,101.999-101.985
	S492,121.74,492,177.975c0,28.676-12.358,56.535-33.905,76.436c-13.005,12.011-21.354,28.181-23.698,45.446h-15.832v-72.382h2.399
	c16.49,0,29.905-13.415,29.905-29.904c0-18.167-10.055-29.905-25.616-29.905c-15.713,0-26.688,12.297-26.688,29.905v9.904h-17.222
	v-9.904c0-17.607-10.975-29.905-26.688-29.905c-15.561,0-25.616,11.738-25.616,29.905c0,16.489,13.415,29.904,29.904,29.904h2.399
	v72.382h-15.599c-2.204-17.298-10.523-33.474-23.625-45.468C300.439,234.539,288.003,206.687,288.003,177.975z M381.345,299.857
	v-72.382h17.222v72.382H381.345z M340.195,394.133c-1.889,1.313-3.856,1.602-5.845,0.864l-17.71-6.594l-16.91-6.297
	c-4.023-1.498-6.943-6.836-6.943-12.694c0-6.008,2.739-10.051,5.303-11.832c1.891-1.315,3.859-1.604,5.85-0.863l34.616,12.889
	c4.023,1.498,6.943,6.837,6.943,12.695C345.498,388.309,342.759,392.352,340.195,394.133z M299.731,430.404
	c-4.023-1.498-6.944-6.837-6.944-12.695c0-6.008,2.739-10.051,5.303-11.832c1.891-1.314,3.859-1.605,5.85-0.863l23.427,8.723
	c0.001,0.001,0.003,0.001,0.004,0.001l11.184,4.164c4.023,1.498,6.943,6.837,6.943,12.695c0,6.008-2.739,10.051-5.302,11.832
	c-1.89,1.312-3.856,1.602-5.845,0.864l-23.433-8.725c-0.001,0-0.002-0.001-0.003-0.001L299.731,430.404z M361.345,207.475h-2.399
	c-5.461,0-9.904-4.443-9.904-9.904c0-9.905,4.08-9.905,5.616-9.905c5.528,0,6.688,5.386,6.688,9.905v9.904H361.345z
	 M418.566,207.475v-9.904c0-4.519,1.16-9.905,6.688-9.905c1.536,0,5.616,0,5.616,9.905c0,5.461-4.443,9.904-9.905,9.904H418.566z
	 M298.09,309.282c1.892-1.314,3.86-1.603,5.85-0.863l28.162,10.486c0.497,0.232,1.011,0.426,1.541,0.574l4.913,1.829
	c4.023,1.498,6.943,6.837,6.943,12.695c0,6.007-2.739,10.051-5.302,11.832c-1.892,1.314-3.86,1.603-5.851,0.863l-34.615-12.889
	c-4.023-1.498-6.943-6.837-6.943-12.695C292.788,315.107,295.527,311.063,298.09,309.282z M340.196,490.728
	c-1.892,1.313-3.86,1.603-5.851,0.863l-34.615-12.889c-4.023-1.498-6.944-6.837-6.944-12.695c0-6.008,2.739-10.051,5.303-11.832
	c1.89-1.314,3.857-1.603,5.847-0.864l23.431,8.724c0.001,0.001,0.003,0.001,0.004,0.001l11.184,4.164
	c4.023,1.498,6.943,6.837,6.943,12.695C345.498,484.903,342.759,488.947,340.196,490.728z M356.335,358.167
	c5.814-6.175,9.163-14.817,9.163-24.165c0-5.022-1-9.822-2.788-14.146h70.251v40.141H357.92
	C357.413,359.364,356.885,358.754,356.335,358.167z"/>
<path d="M483.813,365.858c-2.63,0-5.21,1.07-7.07,2.93c-1.86,1.86-2.93,4.44-2.93,7.07c0,2.63,1.07,5.21,2.93,7.07
	s4.44,2.93,7.07,2.93c2.63,0,5.21-1.07,7.07-2.93c1.86-1.86,2.93-4.44,2.93-7.07c0-2.63-1.07-5.21-2.93-7.07
	C489.023,366.927,486.443,365.858,483.813,365.858z"/>
<path d="M390.119,329.249h-0.108c-5.523,0-10,4.477-10,10c0,5.523,4.477,10,10,10h0.108c5.523,0,10-4.477,10-10
	C400.118,333.725,395.641,329.249,390.119,329.249z"/>
<path d="M193.351,105.099c1.947,1.909,4.475,2.86,7.001,2.86c2.592,0,5.183-1.002,7.141-2.999
	c3.867-3.944,3.805-10.275-0.139-14.142c-0.274-0.269-0.551-0.537-0.828-0.803c-3.981-3.828-10.312-3.705-14.139,0.278
	c-3.828,3.981-3.704,10.312,0.278,14.139L193.351,105.099z"/>
<path d="M203.383,269.14c25.811-23.629,40.613-56.857,40.613-91.166c0-18.093-3.871-35.512-11.504-51.773
	c-2.347-4.999-8.301-7.149-13.302-4.803c-4.999,2.347-7.149,8.302-4.803,13.302c6.376,13.583,9.609,28.143,9.609,43.274
	c0,28.712-12.436,56.563-34.119,76.414c-13.102,11.995-21.421,28.171-23.625,45.468h-15.599v-72.382h2.399
	c16.489,0,29.904-13.415,29.904-29.904c0-18.167-10.055-29.905-25.616-29.905c-15.713,0-26.688,12.297-26.688,29.905v9.904h-17.222
	v-9.904c0-17.607-10.975-29.905-26.688-29.905c-15.561,0-25.616,11.738-25.616,29.905c0,16.489,13.415,29.904,29.905,29.904h2.399
	v72.382h-15.83c-2.344-17.266-10.693-33.436-23.698-45.446C32.358,234.51,20,206.65,20,177.975
	C20,121.74,65.756,75.99,121.998,75.99c13.056,0,25.767,2.43,37.777,7.221c5.129,2.046,10.947-0.453,12.993-5.583
	s-0.453-10.947-5.583-12.993c-14.379-5.737-29.583-8.645-45.187-8.645C54.728,55.99,0,110.712,0,177.975
	c0,34.239,14.702,67.453,40.335,91.128c5.566,5.141,9.964,11.316,13.018,18.073c-1.545-0.243-3.127-0.371-4.739-0.371
	c-16.777,0-30.426,13.649-30.426,30.426v106.484c0,8.713,1.75,17.188,5.201,25.187l24.609,57.056c1.581,3.666,5.19,6.04,9.182,6.04
	h58.652c5.523,0,10-4.477,10-10v-44.189c0-29.874-12.763-58.102-34.671-77.809h55.421c-0.046,0.763-0.08,1.529-0.08,2.303
	c0,9.348,3.349,17.99,9.164,24.164c-5.716,6.107-9.164,14.743-9.164,24.134c0,9.348,3.349,17.99,9.163,24.164
	c-5.716,6.107-9.163,14.743-9.163,24.134c0,11.651,5.193,22.214,13.892,28.257c4.606,3.2,9.84,4.838,15.128,4.838
	c3.057,0,6.132-0.548,9.112-1.657l34.616-12.889c11.941-4.447,19.964-17.081,19.964-31.438c0-9.348-3.349-17.99-9.164-24.165
	c5.716-6.107,9.164-14.743,9.164-24.134c0-9.348-3.349-17.99-9.164-24.165c5.716-6.107,9.164-14.743,9.164-24.134
	c0-9.348-3.349-17.99-9.164-24.165c5.716-6.107,9.164-14.743,9.164-24.134c0-11.651-5.193-22.214-13.892-28.257
	c-7.27-5.05-16.105-6.209-24.24-3.181l-13.408,4.992C190.387,284.99,195.775,276.105,203.383,269.14z M150.655,197.571
	c0-4.519,1.16-9.905,6.688-9.905c1.536,0,5.616,0,5.616,9.905c0,5.461-4.443,9.904-9.904,9.904h-2.399L150.655,197.571
	L150.655,197.571z M212.269,382.107l-15.689,5.842l-18.933,7.049c-1.987,0.738-3.954,0.448-5.843-0.865
	c-2.563-1.781-5.303-5.824-5.303-11.832c0-5.858,2.92-11.197,6.943-12.695l34.616-12.889c0.716-0.267,1.43-0.4,2.138-0.4
	c1.26,0,2.502,0.421,3.712,1.263c2.563,1.781,5.303,5.824,5.303,11.832C219.213,375.27,216.293,380.609,212.269,382.107z
	 M201.081,434.57l-23.434,8.725c-1.988,0.737-3.954,0.448-5.843-0.865c-2.563-1.781-5.303-5.824-5.303-11.832
	c0-5.858,2.92-11.197,6.943-12.695l11.182-4.163c0.002-0.001,0.005-0.001,0.007-0.002l17.705-6.592l5.722-2.131
	c0.716-0.267,1.43-0.4,2.138-0.4c1.26,0,2.502,0.421,3.712,1.263c2.563,1.781,5.303,5.824,5.303,11.832
	c0,5.858-2.92,11.197-6.943,12.695l-11.182,4.163C201.086,434.569,201.084,434.569,201.081,434.57z M91.035,207.475
	c-5.461,0-9.905-4.443-9.905-9.904c0-9.905,4.08-9.905,5.616-9.905c5.528,0,6.688,5.386,6.688,9.905v9.904H91.035z M113.433,227.475
	h17.222v72.382h-17.222V227.475z M105.832,457.806v34.19H63.757l-22.004-51.017c-2.366-5.483-3.565-11.292-3.565-17.266V317.231
	c0-5.749,4.677-10.426,10.426-10.426s10.426,4.677,10.426,10.426v58.581c0,3.281,1.61,6.354,4.307,8.222l6.017,4.166
	C92.199,404.01,105.832,430.031,105.832,457.806z M79.04,359.998v-40.141h70.251c-1.788,4.324-2.788,9.124-2.788,14.146
	c0,9.348,3.349,17.989,9.164,24.164c-0.55,0.588-1.078,1.198-1.585,1.831H79.04V359.998z M212.269,478.702l-34.615,12.889
	c-1.991,0.741-3.959,0.452-5.85-0.863c-2.563-1.781-5.303-5.824-5.303-11.832c0-5.858,2.92-11.197,6.943-12.695l11.182-4.163
	c0.002-0.001,0.005-0.001,0.007-0.002l23.431-8.724c0.715-0.266,1.427-0.399,2.134-0.399c1.26,0,2.502,0.421,3.712,1.263
	c2.563,1.781,5.303,5.824,5.303,11.832C219.213,471.866,216.292,477.204,212.269,478.702z M208.06,308.42
	c0.716-0.267,1.43-0.4,2.138-0.4c1.259,0,2.502,0.421,3.712,1.263c2.563,1.781,5.303,5.824,5.303,11.832
	c0,5.858-2.92,11.197-6.943,12.695l-34.615,12.889c-1.991,0.741-3.959,0.451-5.85-0.863c-2.563-1.781-5.303-5.824-5.303-11.832
	c0-5.858,2.92-11.197,6.943-12.694l4.913-1.829c0.53-0.148,1.043-0.341,1.541-0.574L208.06,308.42z"/>
<path d="M121.99,329.249h-0.108c-5.523,0-10,4.477-10,10c0,5.523,4.477,10,10,10h0.108c5.523,0,10-4.477,10-10
	C131.99,333.725,127.513,329.249,121.99,329.249z"/>
<path d="M121.998,46.252c5.523,0,10-4.477,10-10v-26.25c0-5.523-4.477-10-10-10s-10,4.477-10,10v26.25
	C111.998,41.775,116.475,46.252,121.998,46.252z"/>
<path d="M80.251,44.175c1.953,1.953,4.512,2.929,7.071,2.929s5.119-0.976,7.071-2.929c3.905-3.905,3.905-10.237,0-14.143
	L79.811,15.45c-3.905-3.905-10.237-3.905-14.143,0c-3.905,3.905-3.905,10.237,0,14.143L80.251,44.175z"/>
<path d="M155.943,47.287c2.559,0,5.119-0.976,7.071-2.929l15.07-15.07c3.905-3.905,3.905-10.237,0-14.143
	c-3.905-3.905-10.237-3.905-14.143,0l-15.07,15.07c-3.905,3.905-3.905,10.237,0,14.143
	C150.825,46.311,153.384,47.287,155.943,47.287z"/>
<path d="M390.078,46.252c5.523,0,10-4.477,10-10v-26.25c0-5.523-4.477-10-10-10c-5.523,0-10,4.477-10,10v26.25
	C380.078,41.775,384.555,46.252,390.078,46.252z"/>
<path d="M348.33,44.174c1.953,1.953,4.512,2.929,7.071,2.929c2.559,0,5.119-0.977,7.071-2.929c3.905-3.905,3.906-10.237,0-14.142
	L347.89,15.45c-3.905-3.905-10.237-3.905-14.142,0s-3.906,10.237,0,14.142L348.33,44.174z"/>
<path d="M424.022,47.287c2.559,0,5.119-0.976,7.071-2.929l15.07-15.07c3.905-3.905,3.905-10.237,0-14.143
	c-3.905-3.905-10.237-3.905-14.143,0l-15.07,15.07c-3.905,3.905-3.905,10.237,0,14.143
	C418.904,46.311,421.463,47.287,424.022,47.287z"/>
<path d="M390.002,112.985c19.466,0,37.745,8.618,50.153,23.645c1.977,2.395,4.835,3.634,7.716,3.634c2.242,0,4.498-0.75,6.361-2.289
	c4.259-3.517,4.861-9.82,1.345-14.078c-16.22-19.645-40.121-30.912-65.575-30.912c-5.523,0-10,4.477-10,10
	S384.479,112.985,390.002,112.985z"/>
<path d="M56.423,123.896c-3.516,4.258-2.914,10.562,1.345,14.078c1.864,1.539,4.119,2.289,6.361,2.289
	c2.88,0,5.739-1.239,7.717-3.634c12.407-15.027,30.688-23.645,50.152-23.645c5.523,0,10-4.477,10-10s-4.477-10-10-10
	C96.544,92.986,72.643,104.252,56.423,123.896z"/>
<g>
</g>
<g>
</g>
<g>
</g>
<g>
</g>
<g>
</g>
<g>
</g>
<g>
</g>
<g>
</g>
<g>
</g>
<g>
</g>
<g>
</g>
<g>
</g>
<g>
</g>
<g>
</g>
<g>
</g>
</svg>
