<?xml version="1.0" encoding="iso-8859-1"?>
<!-- Generator: Adobe Illustrator 19.0.0, SVG Export Plug-In . SVG Version: 6.00 Build 0)  -->
<svg xmlns="http://www.w3.org/2000/svg" xmlns:xlink="http://www.w3.org/1999/xlink" version="1.1" id="Capa_1" x="0px" y="0px" viewBox="0 0 511.784 511.784" style="enable-background:new 0 0 511.784 511.784;" xml:space="preserve">
<path style="fill:#FFDA44;" d="M455.676,58.114h-25.911c1.297,25.883-20.94,51.338-50.574,51.338  c-27.935,0-50.587-22.653-50.587-50.587c0-0.254,0-0.497,0.013-0.75c-13.319-0.003-78.165-0.018-95.456-0.022  c0-0.041,0.01-0.091,0.01-0.122c0-27.888-22.622-50.588-50.588-50.588c-27.94,0-50.588,22.648-50.588,50.588v0.122h-25.902  c-12.054,0-21.827,9.773-21.827,21.827v25.912c-27.646,0.335-49.959,22.84-49.959,50.567s22.313,50.233,49.959,50.567  c0,2.3,0,218.065,0,222.555c0,12.054,9.773,21.827,21.827,21.827h25.912c-0.01-0.324-0.01-0.629-0.01-0.943  c0-0.324,0-0.659,0.01-0.983c0.672-35.049,35.815-58.407,68.015-46.512c20.454,7.515,33.795,27.493,33.141,48.438h89.253  l0.004-0.003h6.247c-1.27,29.079,21.979,52.82,50.528,52.82c27.937,0,50.585-22.648,50.585-50.585c0-0.75-0.024-1.493-0.057-2.235  h16.859c17.077,0,31.955-4.63,30.921-30.921v-16.816c-27.489-0.509-49.633-22.946-49.633-50.574  c0-27.616,22.144-50.066,49.633-50.574v-47.724V79.939C477.501,67.886,467.73,58.114,455.676,58.114z"/>
<path style="fill:#FF3F62;" d="M477.501,302.46v-47.724h-47.724c-0.293,27.692-22.831,50.052-50.587,50.052  c-27.756,0-50.295-22.36-50.587-50.052h-47.712v47.711c27.883,0.064,50.472,22.691,50.472,50.587  c0,27.908-22.589,50.524-50.472,50.587v47.724h47.772c-0.032,0.742-0.057,1.486-0.057,2.235c0,27.937,22.648,50.585,50.585,50.585  c27.938,0,50.585-22.648,50.585-50.585c0-0.75-0.024-1.494-0.057-2.235h16.859c17.077,0,32.294-4.799,30.921-30.921v-16.816  c-27.489-0.509-49.633-22.946-49.633-50.574C427.868,325.418,450.012,302.969,477.501,302.46z"/>
<path style="fill:#78B9EB;" d="M477.501,79.939c0-12.054-9.771-21.825-21.825-21.825h-25.911c0.013,0.254,0.013,0.497,0.013,0.75  c0,27.935-22.653,50.587-50.587,50.587c-27.935,0-50.587-22.653-50.587-50.587c0-0.254,0-0.496,0.013-0.75h-47.726v47.889  c-0.013,0-0.013,0-0.013,0c-27.935,0-50.587,22.653-50.587,50.587c0,27.935,22.653,50.587,50.587,50.587c0,0,0,0,0.013,0v47.558  h47.729c0.288,27.689,22.813,50.05,50.571,50.05c27.758,0,50.284-22.361,50.571-50.05h47.738V79.939H477.501z"/>
<path style="fill:#4CBA68;" d="M331.365,353.031c0,27.909-22.587,50.527-50.476,50.588v47.729H233.16  c0.01-0.324,0.01-0.629,0.01-0.943c0-21.806-13.808-40.389-33.151-47.496c-5.434-2.007-11.314-3.092-17.437-3.092  c-27.615,0-50.05,22.121-50.578,49.604c-0.01,0.324-0.01,0.659-0.01,0.983c0,0.314,0,0.618,0.01,0.943h-25.912  c-12.054,0-21.827-9.773-21.827-21.827V254.735h47.729c0.182,27.778,22.749,50.273,50.588,50.273c6.133,0,12.003-1.095,17.437-3.092  c19.252-7.076,33.009-25.527,33.151-47.181h47.719v47.729C308.778,302.515,331.365,325.142,331.365,353.031z"/>
<path style="fill:#FFDA44;" d="M230.29,156.409c0,27.93,22.658,50.588,50.588,50.588h0.01v47.709h-47.729  c-0.122,21.675-13.889,40.136-33.141,47.202c-5.434,1.997-11.314,3.092-17.437,3.092c-27.838,0-50.425-22.496-50.578-50.294H84.265  v-47.739c-27.646-0.335-49.959-22.84-49.959-50.567s22.313-50.233,49.959-50.567V79.919c0-12.054,9.773-21.827,21.827-21.827h25.902  V57.97c0-27.94,22.648-50.588,50.588-50.588c6.123,0,12.003,1.085,17.437,3.092c19.343,7.107,33.151,25.689,33.151,47.496  c0,0.03-0.01,0.081-0.01,0.122h47.729v47.729h-0.01C252.948,105.821,230.29,128.469,230.29,156.409z"/>
<path style="fill:#3FA45A;" d="M131.994,450.405c0,0.314,0,0.618,0.01,0.943h-25.912c-12.054,0-21.827-9.773-21.827-21.827V254.735  h34.874v174.786c0,8.86,5.282,16.484,12.865,19.901C131.994,449.746,131.994,450.081,131.994,450.405z"/>
<path style="fill:#EEBF00;" d="M200.019,10.475c-19.343,7.096-33.151,25.679-33.151,47.496v0.122h-25.902  c-12.054,0-21.827,9.773-21.827,21.827v25.912c-27.646,0.335-49.959,22.84-49.959,50.567s22.313,50.233,49.959,50.567v47.739H84.265  v-47.739c-27.646-0.335-49.959-22.84-49.959-50.567s22.313-50.233,49.959-50.567V79.919c0-12.054,9.773-21.827,21.827-21.827h25.902  V57.97c0-27.94,22.648-50.588,50.588-50.588C188.705,7.383,194.585,8.468,200.019,10.475z"/>
<path d="M477.642,396.007c-4.253-0.078-8.44-0.777-12.444-2.073c-3.992-1.292-8.283,0.894-9.576,4.889  c-1.294,3.994,0.895,8.283,4.889,9.576c3.063,0.992,6.201,1.725,9.388,2.196v33.147c-39.676,0.759-41.738-1.759-45.667,2.344  c-1.435,1.496-2.195,3.514-2.107,5.585c0.514,12.191-3.962,23.282-11.737,31.48c-4.585,4.836-1.118,12.834,5.516,12.834  c2.013,0,4.024-0.795,5.518-2.372c9.053-9.546,14.527-21.695,15.714-34.663h40.365c4.2,0,7.603-3.403,7.603-7.603v-47.737  C485.104,399.465,481.785,396.083,477.642,396.007z"/>
<path d="M477.501,50.511h-47.736c-4.336,0-7.798,3.626-7.595,7.958c1.101,21.386-17.594,43.381-42.98,43.381  c-5.451,0-10.76-1.005-15.781-2.988c-3.903-1.542-8.322,0.373-9.864,4.279s0.373,8.322,4.279,9.864  c6.808,2.688,13.996,4.051,21.366,4.051c29.77,0,54.388-22.467,57.79-51.339h32.919v65.722c0,4.2,3.403,7.603,7.603,7.603  c4.2,0,7.603-3.403,7.603-7.603V58.114C485.104,53.914,481.701,50.511,477.501,50.511z"/>
<path d="M477.501,154.25c-4.2,0-7.603,3.403-7.603,7.603v85.279c-23.691,0-16.429,0-40.135,0c-4.167,0-7.557,3.354-7.603,7.519  c-0.112,10.205-3.787,20.345-11.167,28.456c-26.074,28.684-74.363,10.623-74.769-28.451c-0.044-4.168-3.436-7.524-7.603-7.524  h-0.018c-10.724,0-24.47,0-40.108,0c0-8.707,0-21.682,0-39.955v-0.187c0-4.2-3.416-7.603-7.617-7.603  c-36.995,0-56.522-43.859-32.259-71.387c2.776-3.15,2.473-7.955-0.677-10.732c-3.15-2.775-7.957-2.473-10.731,0.677  c-30.596,34.712-10.156,90.285,36.076,96.341c0,8.769,0,25.215,0,32.845c-68.43-0.077,4.391,0.003-40.131-0.032  c-4.183,0-7.58,3.378-7.603,7.561c-0.173,31.74-33.849,52.405-62.142,38.191c-14.145-7.128-23.714-21.725-23.806-38.191  c-0.023-4.183-3.421-7.561-7.603-7.561c-5.02,0.046,7.32,0.041-40.13,0V206.97c0-4.163-3.349-7.552-7.511-7.602  c-33.109-0.401-53.402-36.983-36.235-65.235c2.18-3.589,1.038-8.265-2.551-10.447c-3.589-2.18-8.265-1.038-10.447,2.551  c-21.704,35.727,0.638,81.897,41.537,87.756c0,17.76,0,33.451,0,65.664c0,4.2,3.403,7.603,7.603,7.603s7.603-3.403,7.603-7.603  v-17.318h33.062c3.528,25.407,23.671,46.068,49.542,49.693c32.369,4.551,61.382-18.353,65.745-49.693h33.063  c0,16.594,0,26.027,0,40.12c0,4.194,3.396,7.595,7.589,7.603c23.486,0.043,42.884,19.275,42.884,42.971  c0,23.706-19.3,42.932-42.887,42.983c-4.193,0.01-7.586,3.41-7.586,7.603c0,14.837,0,25.883,0,40.12h-33.164  c-4.2,0-7.603,3.403-7.603,7.603s3.403,7.603,7.603,7.603c9.92,0,71.281,0,81.125,0c3.164,34.433,35.86,58.847,70.129,51.541  c4.107-0.875,6.726-4.915,5.851-9.021c-0.875-4.108-4.917-6.73-9.021-5.851c-27.488,5.86-53.184-15.832-51.948-43.937  c0.091-2.072-0.668-4.093-2.103-5.592c-3.936-4.114-6.003-1.587-45.663-2.346c0-5.32,0-20.046,0-33.024  c33.689-4.458,56.189-36.711,49.224-69.725c-4.827-22.918-23.899-42.205-49.224-45.62c0-10.027,0-23.294,0-33.033  c18.503,0,9.631,0,33.081,0c5.592,39.057,48.068,61.662,83.534,43.972c17.396-8.669,29.079-25.1,31.709-43.972h33.079v33.132  c-43.444,6.378-64.794,57.755-37.541,93.078c2.561,3.319,7.337,3.944,10.665,1.376c3.325-2.565,3.942-7.34,1.376-10.665  c-21.428-27.773-1.891-68.548,33.245-69.198c4.144-0.077,7.462-3.458,7.462-7.602c0-13.818,0-127.319,0-140.606  C485.104,157.654,481.701,154.25,477.501,154.25z"/>
<path d="M67.179,117.24c5.413-2.451,11.194-3.732,17.185-3.805c4.163-0.051,7.51-3.44,7.51-7.602V65.698h40.119  c4.2,0,7.603-3.403,7.603-7.603c0.028-0.102-0.897-24.916,22.133-37.724c3.67-2.042,4.99-6.671,2.949-10.341  s-6.672-4.989-10.341-2.949c-16.268,9.048-27.11,25.25-29.466,43.41H84.27c-4.2,0-7.603,3.403-7.603,7.603v40.706  c-5.439,0.768-10.717,2.302-15.761,4.586c-3.825,1.733-5.522,6.238-3.79,10.063C58.842,117.262,63.34,118.979,67.179,117.24z"/>
<path d="M186.642,15.173c21.852,2.044,38.911,20.06,38.911,42.922c0,4.2,3.403,7.603,7.603,7.603h40.133v33.009  c-5.181,0.676-11.322,2.658-15.418,4.423c-3.856,1.663-5.636,6.136-3.973,9.992c1.668,3.869,6.148,5.63,9.992,3.973  c5.369-2.314,11.086-3.487,17.002-3.487c4.2,0,7.603-3.403,7.603-7.603c0-14.292,0-24.551,0-40.286H321.4  c1.08,9.201,4.332,17.985,9.566,25.72c2.354,3.477,7.08,4.389,10.559,2.037c3.478-2.353,4.39-7.08,2.037-10.559  c-5.33-7.876-7.682-17.445-7.351-24.417c0.22-4.354-3.255-7.988-7.593-7.988c-92.07-0.039-51.176-0.011-88.323-0.02  c-3.487-27.085-25.385-47.948-52.235-50.46c-4.169-0.38-7.886,2.682-8.279,6.863C179.387,11.075,182.461,14.781,186.642,15.173z"/>
<path d="M235.122,425.365c-9.615-20.139-30.238-33.152-52.54-33.152c-29.835,0-54.498,22.568-57.812,51.529h-3.348  c-4.2,0-7.603,3.403-7.603,7.603s3.403,7.603,7.603,7.603h10.584c4.318,0,7.771-3.595,7.597-7.911  c-0.92-22.184,17.87-43.619,42.978-43.619c16.476,0,31.712,9.616,38.817,24.497c1.81,3.789,6.348,5.394,10.138,3.586  C235.326,433.693,236.931,429.154,235.122,425.365z"/>
<path d="M91.874,443.791v-133.72c0-4.2-3.403-7.603-7.603-7.603s-7.603,3.403-7.603,7.603v141.274c0,4.2,3.403,7.603,7.603,7.603  h6.738c4.2,0,7.603-3.403,7.603-7.603C98.612,447.439,95.665,444.22,91.874,443.791z"/>
<g>
</g>
<g>
</g>
<g>
</g>
<g>
</g>
<g>
</g>
<g>
</g>
<g>
</g>
<g>
</g>
<g>
</g>
<g>
</g>
<g>
</g>
<g>
</g>
<g>
</g>
<g>
</g>
<g>
</g>
</svg>
