<?xml version="1.0" encoding="iso-8859-1"?>
<!-- Generator: Adobe Illustrator 19.0.0, SVG Export Plug-In . SVG Version: 6.00 Build 0)  -->
<svg xmlns="http://www.w3.org/2000/svg" xmlns:xlink="http://www.w3.org/1999/xlink" version="1.1" id="Capa_1" x="0px" y="0px" viewBox="0 0 512 512" style="enable-background:new 0 0 512 512;" xml:space="preserve">
<path style="fill:#C6C5CA;" d="M366.77,447.726v42.406c0,7.624-5.981,13.848-13.514,14.244h-0.02c-0.243,0.01-0.487,0.02-0.73,0.02  h-3.254l-15.207-0.01l-18.755-0.01l-15.207-0.01l-18.755-0.01l-15.207-0.01l-18.755-0.01l-15.207-0.01l-18.755-0.01l-15.207-0.01  l-18.755-0.01l-15.207-0.01h-4.744c-7.877,0-14.254-6.387-14.254-14.254v-42.305l0.578-4.663h220.376L366.77,447.726z"/>
<path style="fill:#D8D7DA;" d="M366.77,447.726v42.406c0,7.624-5.981,13.848-13.514,14.244h-0.02l-12.642-0.01l-18.755-0.01  l-15.207-0.01l-18.755-0.01l-15.207-0.01l-18.755-0.01l-15.207-0.01l-18.755-0.01l-15.168-0.01h-4.744  c-7.877,0-14.254-6.387-14.254-14.254v-42.305L366.77,447.726L366.77,447.726z"/>
<rect x="215.195" y="66.463" style="fill:#C6C5CA;" width="81.599" height="92.954"/>
<rect x="253.05" y="66.463" style="fill:#D8D7DA;" width="43.745" height="92.954"/>
<g>
	<path style="fill:#EEBF00;" d="M366.77,447.726H145.238l0.578-4.663l39.112-316.908c0.811-6.529,6.356-11.435,12.936-11.435   h116.271c6.579,0,12.135,4.907,12.936,11.435l39.122,316.908L366.77,447.726z"/>
	<path style="fill:#EEBF00;" d="M316.212,19.769v48.986c0,6.691-5.474,12.165-12.165,12.165H207.96   c-6.691,0-12.165-5.474-12.165-12.165V19.769c0-6.691,5.474-12.165,12.165-12.165h96.086   C310.738,7.603,316.212,13.078,316.212,19.769z"/>
</g>
<path style="fill:#FFDA44;" d="M366.77,447.726H185.79l39.69-321.571c0.811-6.529,6.356-11.435,12.936-11.435h75.719  c6.579,0,12.135,4.907,12.936,11.435L366.77,447.726z"/>
<path style="fill:#FFD422;" d="M316.212,19.769v48.986c0,6.691-5.474,12.165-12.165,12.165h-55.535  c-6.691,0-12.165-5.474-12.165-12.165V19.769c0-6.691,5.474-12.165,12.165-12.165h55.535  C310.738,7.603,316.212,13.078,316.212,19.769z"/>
<path d="M171.819,232.379c4.167,0.517,7.958-2.453,8.475-6.62l12.186-98.671c0.335-2.717,2.646-4.765,5.383-4.765  c34.366,0,81.77,0,116.271,0c2.737,0,5.059,2.048,5.393,4.765l21.077,170.7c0.466,3.852,3.751,6.671,7.532,6.671  c0.314,0,0.629-0.02,0.943-0.051c4.167-0.517,7.127-4.319,6.61-8.485l-21.066-170.7c-1.277-10.32-10.087-18.106-20.489-18.106  h-9.732V88.513c10.736-0.182,19.414-8.972,19.414-19.759V19.769C323.815,8.871,314.944,0,304.046,0h-46.208  c-4.197,0-7.603,3.396-7.603,7.603c0,4.197,3.406,7.603,7.603,7.603h46.208c2.474,0,4.562,2.088,4.562,4.562v48.986  c0,2.352-1.886,4.359-4.207,4.542c-0.111,0.02-0.233,0.02-0.355,0.02c-102.366-0.011-95.931,0.023-96.451-0.02  c-2.311-0.193-4.197-2.19-4.197-4.542V19.769c0-2.474,2.088-4.562,4.562-4.562h19.465c4.197,0,7.603-3.406,7.603-7.603  c0-4.207-3.406-7.603-7.603-7.603H207.96c-10.898,0-19.769,8.871-19.769,19.769v48.986c0,10.787,8.668,19.566,19.404,19.759v18.603  h-9.732c-10.401,0-19.201,7.786-20.478,18.106l-12.176,98.671C164.693,228.06,167.653,231.862,171.819,232.379z M222.803,88.523  h66.393v18.593h-66.393L222.803,88.523L222.803,88.523z"/>
<path d="M374.311,446.801c-0.001-0.002,0.002-0.005,0-0.007l-14.892-120.681c-0.517-4.167-4.319-7.137-8.475-6.62  c-4.177,0.517-7.137,4.309-6.62,8.485l13.848,112.144H234.917c-4.197,0-7.603,3.396-7.603,7.603c0,4.197,3.406,7.603,7.603,7.603  h124.249v41.464h-9.719h-0.201v-24.331c0-4.2-3.403-7.603-7.603-7.603s-7.603,3.403-7.603,7.603v24.322l-18.755-0.01v-24.311  c0-4.2-3.403-7.603-7.603-7.603s-7.603,3.403-7.603,7.603v24.302l-18.755-0.01v-24.292c0-4.2-3.403-7.603-7.603-7.603  s-7.603,3.403-7.603,7.603v24.283l-18.755-0.01v-24.273c0-4.2-3.404-7.603-7.603-7.603s-7.603,3.403-7.603,7.603v24.264  l-18.755-0.01v-24.254c0-4.2-3.404-7.603-7.603-7.603s-7.603,3.403-7.603,7.603v24.245l-18.755-0.01v-24.234  c0-4.2-3.404-7.603-7.603-7.603s-7.603,3.403-7.603,7.603v24.225l-11.394-0.006V455.33h51.666c4.207,0,7.603-3.406,7.603-7.603  c0-4.207-3.396-7.603-7.603-7.603h-50.669l22.739-184.184c0.507-4.167-2.453-7.958-6.62-8.475c-4.167-0.517-7.958,2.453-8.475,6.62  c-24.961,202.184-23.848,192.843-23.848,193.638v56.559c0,4.198,3.401,7.601,7.599,7.603L349.443,512h17.327  c4.2,0,7.603-3.403,7.603-7.603C374.347,444.017,374.43,447.773,374.311,446.801z"/>
<g>
</g>
<g>
</g>
<g>
</g>
<g>
</g>
<g>
</g>
<g>
</g>
<g>
</g>
<g>
</g>
<g>
</g>
<g>
</g>
<g>
</g>
<g>
</g>
<g>
</g>
<g>
</g>
<g>
</g>
</svg>
