<?xml version="1.0" encoding="iso-8859-1"?>
<!-- Generator: Adobe Illustrator 19.0.0, SVG Export Plug-In . SVG Version: 6.00 Build 0)  -->
<svg xmlns="http://www.w3.org/2000/svg" xmlns:xlink="http://www.w3.org/1999/xlink" version="1.1" id="Capa_1" x="0px" y="0px" viewBox="0 0 512 512" style="enable-background:new 0 0 512 512;" xml:space="preserve">
<path style="fill:#FFC477;" d="M135.857,86.378v150.261c0,14.104-11.435,25.54-25.54,25.54h-28.64  c-14.104,0-25.54-11.435-25.54-25.54V86.368c0-2.566,0.298-5.122,0.873-7.617c0.657-2.823,1.683-5.564,3.049-8.14l18.487-34.942  l13.55-25.632c1.642-3.1,6.087-3.11,7.73,0l13.601,25.653l18.508,34.912c1.365,2.587,2.392,5.328,3.049,8.15  C135.56,81.245,135.857,83.802,135.857,86.378z"/>
<path style="fill:#78B9EB;" d="M113.433,35.697c-4.67,4.052-10.767,6.507-17.432,6.507c-6.673,0-12.78-2.464-17.457-6.532  l13.561-25.635c1.641-3.103,6.085-3.104,7.729-0.003L113.433,35.697z"/>
<path style="fill:#5AAAE7;" d="M135.857,86.378v150.261c0,14.104-11.435,25.54-25.54,25.54h-28.64  c-14.104,0-25.54-11.435-25.54-25.54V86.368c0-2.566,0.298-5.122,0.873-7.617h77.974C135.56,81.245,135.857,83.802,135.857,86.378z"/>
<path style="fill:#78B9EB;" d="M135.857,86.378v150.261c0,14.104-11.435,25.54-25.54,25.54h-14.31V78.751h38.977  C135.56,81.245,135.857,83.802,135.857,86.378z"/>
<path style="fill:#FFC477;" d="M214.547,86.378v150.261c0,14.104-11.435,25.54-25.54,25.54h-28.64  c-14.104,0-25.54-11.435-25.54-25.54V86.368c0-2.566,0.298-5.122,0.873-7.617c0.657-2.823,1.683-5.564,3.049-8.14l18.487-34.942  l13.55-25.632c1.642-3.1,6.087-3.11,7.73,0l13.601,25.653l18.508,34.912c1.365,2.587,2.392,5.328,3.049,8.15  C214.249,81.245,214.547,83.802,214.547,86.378z"/>
<path style="fill:#FF728B;" d="M192.121,35.697c-4.67,4.052-10.767,6.507-17.432,6.507c-6.673,0-12.78-2.464-17.457-6.532  l13.561-25.635c1.641-3.103,6.085-3.104,7.729-0.003L192.121,35.697z"/>
<path style="fill:#FF3F62;" d="M214.547,86.378v150.261c0,14.104-11.435,25.54-25.54,25.54h-28.64  c-14.104,0-25.54-11.435-25.54-25.54V86.368c0-2.566,0.298-5.122,0.873-7.617h77.974C214.249,81.245,214.547,83.802,214.547,86.378z  "/>
<path style="fill:#FF728B;" d="M214.547,86.378v150.261c0,14.104-11.435,25.54-25.54,25.54h-14.31V78.751h38.977  C214.249,81.245,214.547,83.802,214.547,86.378z"/>
<path style="fill:#FFC477;" d="M293.724,86.378v150.261c0,14.104-11.435,25.54-25.54,25.54h-28.64  c-14.104,0-25.54-11.435-25.54-25.54V86.368c0-2.566,0.298-5.122,0.873-7.617c0.657-2.823,1.683-5.564,3.049-8.14l18.487-34.942  l13.55-25.632c1.642-3.1,6.087-3.11,7.73,0l13.601,25.653l18.508,34.912c1.365,2.587,2.392,5.328,3.049,8.15  C293.427,81.245,293.724,83.802,293.724,86.378z"/>
<path style="fill:#4CBA68;" d="M271.3,35.697c-4.67,4.052-10.767,6.507-17.432,6.507c-6.673,0-12.78-2.464-17.457-6.532  l13.561-25.635c1.641-3.103,6.085-3.104,7.729-0.003L271.3,35.697z"/>
<path style="fill:#3FA45A;" d="M293.724,86.378v150.261c0,14.104-11.435,25.54-25.54,25.54h-28.64  c-14.104,0-25.54-11.435-25.54-25.54V86.368c0-2.566,0.298-5.122,0.873-7.617h77.974C293.427,81.245,293.724,83.802,293.724,86.378z  "/>
<path style="fill:#4CBA68;" d="M293.724,86.378v150.261c0,14.104-11.435,25.54-25.54,25.54h-14.31V78.751h38.977  C293.427,81.245,293.724,83.802,293.724,86.378z"/>
<path style="fill:#FFC477;" d="M373.022,86.378v150.261c0,14.104-11.435,25.54-25.54,25.54h-28.64  c-14.104,0-25.54-11.435-25.54-25.54V86.368c0-2.566,0.298-5.122,0.873-7.617c0.657-2.823,1.684-5.564,3.049-8.14l18.487-34.942  l13.55-25.632c1.642-3.1,6.087-3.11,7.73,0l13.601,25.653l18.508,34.912c1.365,2.587,2.392,5.328,3.049,8.15  C372.725,81.245,373.022,83.802,373.022,86.378z"/>
<g>
	<path style="fill:#EE8700;" d="M350.598,35.697c-4.67,4.052-10.767,6.507-17.432,6.507c-6.673,0-12.78-2.464-17.457-6.532   l13.561-25.635c1.641-3.103,6.085-3.104,7.729-0.003L350.598,35.697z"/>
	<path style="fill:#EE8700;" d="M373.022,86.378v150.261c0,14.104-11.435,25.54-25.54,25.54h-28.64   c-14.104,0-25.54-11.435-25.54-25.54V86.368c0-2.566,0.298-5.122,0.873-7.617h77.974C372.725,81.245,373.022,83.802,373.022,86.378   z"/>
</g>
<path style="fill:#FF9811;" d="M373.022,86.378v150.261c0,14.104-11.435,25.54-25.54,25.54h-14.31V78.751h38.977  C372.725,81.245,373.022,83.802,373.022,86.378z"/>
<path style="fill:#FFC477;" d="M452.764,86.378v150.261c0,14.104-11.435,25.54-25.54,25.54h-28.64  c-14.104,0-25.54-11.435-25.54-25.54V86.368c0-2.566,0.298-5.122,0.873-7.617c0.657-2.823,1.684-5.564,3.049-8.14l18.487-34.942  l13.55-25.632c1.642-3.1,6.087-3.11,7.73,0l13.601,25.653l18.508,34.912c1.365,2.587,2.392,5.328,3.049,8.15  C452.466,81.245,452.764,83.802,452.764,86.378z"/>
<path style="fill:#FF7956;" d="M430.34,35.697c-4.67,4.052-10.767,6.507-17.432,6.507c-6.673,0-12.78-2.464-17.457-6.532  l13.562-25.635c1.641-3.103,6.085-3.104,7.729-0.003L430.34,35.697z"/>
<path style="fill:#FF6243;" d="M452.764,86.378v150.261c0,14.104-11.435,25.54-25.54,25.54h-28.64  c-14.104,0-25.54-11.435-25.54-25.54V86.368c0-2.566,0.298-5.122,0.873-7.617h77.974C452.466,81.245,452.764,83.802,452.764,86.378z  "/>
<path style="fill:#FF7956;" d="M452.764,86.378v150.261c0,14.104-11.435,25.54-25.54,25.54h-14.31V78.751h38.977  C452.466,81.245,452.764,83.802,452.764,86.378z"/>
<path style="fill:#D9CCBC;" d="M466.64,464.267v6.159c0,18.703-16.116,33.875-35.979,33.875H81.329  c-19.863,0-35.969-15.172-35.969-33.875v-279.18c0-6.539,5.297-11.825,11.825-11.825h397.629c6.282,0,11.435,4.907,11.805,11.107  L466.64,464.267z"/>
<path style="fill:#EBE5DD;" d="M466.64,191.246v273.021H123.703c-19.873,0-35.979-15.172-35.979-33.875V179.421h367.091  c6.282,0,11.435,4.907,11.805,11.107C466.63,190.764,466.64,191,466.64,191.246z"/>
<rect x="45.361" y="324.152" style="fill:#78B9EB;" width="421.28" height="55.432"/>
<rect x="45.361" y="324.152" style="fill:#5AAAE7;" width="42.364" height="55.432"/>
<path d="M474.318,190.528c0-0.154,0-0.308-0.01-0.462c-0.452-7.565-5.225-13.919-11.815-16.753V86.912  c0-6.703-1.694-13.529-4.825-19.381c-0.051-0.103-32.263-60.893-32.52-61.293c-4.701-7.719-16.363-7.678-20.92,0.739l-13.56,25.632  l-15.603,29.481c-0.062-0.113-29.481-55.606-29.635-55.852c-4.999-8.027-16.64-7.36-20.92,0.739l-13.56,25.632l-15.644,29.553  c-3.695-6.97-29.461-55.596-29.676-55.924c-4.034-6.621-13.529-7.699-18.99-1.94c-1.673,1.766-0.595,0.164-15.49,28.311  c-0.01,0.01-0.01,0.031-0.021,0.041L215.73,61.773l-15.736-29.676c-14.33-26.874-13.54-25.991-14.977-27.736  c-5.523-6.498-15.5-5.574-19.76,1.714c-0.164,0.257,1.889-3.583-29.379,55.524l-15.644-29.502L106.633,6.433  c-4.619-8.746-17.174-8.356-21.341,0L53.254,67.008c-3.151,5.933-4.814,12.636-4.814,19.36v87.448  c-6.385,3.213-10.778,9.813-10.778,17.43v46.429c0,4.25,3.449,7.699,7.699,7.699s7.699-3.449,7.699-7.699v-46.429  c0-2.279,1.848-4.127,4.127-4.127h397.629c2.125,0,3.891,1.612,4.106,3.695l0.01,125.635H334.857c-4.26,0-7.699,3.449-7.699,7.699  c0,4.26,3.439,7.699,7.699,7.699h124.074v40.034H225.995c-4.26,0-7.699,3.449-7.699,7.699c0,4.25,3.439,7.699,7.699,7.699h232.936  v30.795c0,0.062,0,0.133,0.01,0.195v52.157c0,14.433-12.688,26.176-28.28,26.176H81.329c-15.593,0-28.27-11.743-28.27-26.176  v-83.147H195.2c4.25,0,7.699-3.449,7.699-7.699c0-4.25-3.449-7.699-7.699-7.699H53.059v-40.034h251.002  c4.25,0,7.699-3.439,7.699-7.699c0-4.25-3.449-7.699-7.699-7.699H53.059v-47.979c0-4.26-3.449-7.699-7.699-7.699  s-7.699,3.439-7.699,7.699c0,47.237,0,157.108,0,201.956c0,22.922,19.586,41.574,43.668,41.574h349.332  c24.082,0,43.678-18.652,43.678-41.574C474.338,467.418,474.318,195.965,474.318,190.528z M95.977,19.203l7.329,13.827  c-4.599,1.93-10.05,1.93-14.648-0.01L95.977,19.203z M81.442,46.652c4.527,2.125,9.485,3.254,14.556,3.254  c5.061,0,10.019-1.119,14.535-3.234l12.924,24.38H68.539L81.442,46.652z M88.309,171.722H63.837V86.45h24.472V171.722z   M128.158,171.722h-24.451V86.45h24.451V171.722z M175.737,19.203l7.329,13.827c-4.599,1.93-10.05,1.93-14.648-0.01L175.737,19.203z   M161.202,46.652c4.527,2.125,9.485,3.254,14.556,3.254c5.061,0,10.019-1.119,14.535-3.234l12.934,24.38h-54.929L161.202,46.652z   M168.069,171.722h-24.472V86.45h24.472V171.722z M207.857,86.902v84.821h-24.39V86.45h24.4  C207.857,86.604,207.857,86.748,207.857,86.902z M255.384,19.727l7.34,13.848c-4.599,1.93-10.05,1.92-14.648-0.021L255.384,19.727z   M240.849,47.186c4.527,2.135,9.495,3.254,14.566,3.254c5.061,0,10.019-1.119,14.535-3.234l12.924,24.38h-54.929L240.849,47.186z   M247.716,171.722h-24.39V86.984h24.39V171.722z M287.576,171.722h-24.462V86.984h24.462V171.722z M335.185,19.727l7.329,13.848  c-4.599,1.93-10.05,1.92-14.648-0.021L335.185,19.727z M320.65,47.186c4.527,2.135,9.485,3.254,14.556,3.254  c5.071,0,10.029-1.119,14.546-3.244l12.924,24.39h-54.929L320.65,47.186z M327.517,171.722h-24.472V86.984h24.472V171.722z   M367.366,171.722h-24.452V86.984h24.452V171.722z M414.904,19.727l7.34,13.848c-4.609,1.93-10.05,1.92-14.659-0.021L414.904,19.727  z M400.369,47.186c4.527,2.135,9.495,3.254,14.566,3.254c5.061,0,10.019-1.119,14.535-3.234l12.924,24.38h-54.929L400.369,47.186z   M407.236,171.722h-24.462V86.984h24.462V171.722z M447.095,171.722h-24.462V86.984h24.462V171.722z"/>
<g>
</g>
<g>
</g>
<g>
</g>
<g>
</g>
<g>
</g>
<g>
</g>
<g>
</g>
<g>
</g>
<g>
</g>
<g>
</g>
<g>
</g>
<g>
</g>
<g>
</g>
<g>
</g>
<g>
</g>
</svg>
