<?xml version="1.0" encoding="iso-8859-1"?>
<!-- Generator: Adobe Illustrator 19.0.0, SVG Export Plug-In . SVG Version: 6.00 Build 0)  -->
<svg xmlns="http://www.w3.org/2000/svg" xmlns:xlink="http://www.w3.org/1999/xlink" version="1.1" id="Capa_1" x="0px" y="0px" viewBox="0 0 512 512" style="enable-background:new 0 0 512 512;" xml:space="preserve">
<line style="fill:none;stroke:#000000;stroke-width:15;stroke-linecap:round;stroke-linejoin:round;stroke-miterlimit:10;stroke-dasharray:203,30;" x1="397.588" y1="274.897" x2="363.19" y2="240.499"/>
<path style="fill:#3E3D42;" d="M503.505,141.308v337.27c0,14.261-11.557,25.829-25.829,25.829H34.327  c-14.272,0-25.829-11.567-25.829-25.829v-337.27c0-14.272,11.557-25.829,25.829-25.829h443.35  C491.948,115.479,503.505,127.036,503.505,141.308z"/>
<path style="fill:#57565C;" d="M506.268,141.272v337.27c0,14.261-11.557,25.829-25.829,25.829H67.476  c-14.272,0-25.829-11.567-25.829-25.829v-337.27c0-14.272,11.557-25.829,25.829-25.829H480.44  C494.711,115.444,506.268,127.001,506.268,141.272z"/>
<g>
	<path style="fill:#ACABB1;" d="M105.462,154.212v27.348c0,2.927-2.39,5.318-5.318,5.318H46.967c-2.917,0-5.318-2.39-5.318-5.318   v-27.348c0-2.917,2.401-5.318,5.318-5.318h53.176C103.071,148.894,105.462,151.295,105.462,154.212z"/>
	<path style="fill:#ACABB1;" d="M470.08,154.212v27.348c0,2.927-2.39,5.318-5.318,5.318h-53.166c-2.927,0-5.318-2.39-5.318-5.318   v-27.348c0-2.917,2.39-5.318,5.318-5.318h53.166C467.689,148.894,470.08,151.295,470.08,154.212z"/>
</g>
<g>
	<path style="fill:#D8D7DA;" d="M105.462,154.212v27.348c0,2.927-2.39,5.318-5.318,5.318h-22.79c-2.917,0-5.318-2.39-5.318-5.318   v-27.348c0-2.917,2.401-5.318,5.318-5.318h22.79C103.071,148.894,105.462,151.295,105.462,154.212z"/>
	<path style="fill:#D8D7DA;" d="M470.08,154.212v27.348c0,2.927-2.39,5.318-5.318,5.318h-22.78c-2.927,0-5.318-2.39-5.318-5.318   v-27.348c0-2.917,2.39-5.318,5.318-5.318h22.78C467.689,148.894,470.08,151.295,470.08,154.212z"/>
</g>
<path style="fill:#2D2D30;" d="M397.588,274.897l-15.872,15.679l-113.787,112.41c-1.064,1.064-2.228,2.006-3.494,2.796  c-1.54,1.003-3.221,1.773-4.994,2.32l-23.053,7.1l-9.886,3.049c-5.034,1.55-9.744-3.16-8.204-8.194l3.049-9.926l1.914-6.229  l5.166-16.814c0.517-1.702,1.266-3.322,2.208-4.821c0.81-1.327,1.793-2.563,2.907-3.677l113.727-112.359l15.639-15.457  c9.43-9.43,24.806-9.845,34.387-0.567c0.8,0.78,1.54,1.6,2.208,2.451C407.038,252.208,406.39,266.085,397.588,274.897z"/>
<path style="fill:#3E3D42;" d="M399.502,242.657c-1.185,2.887-2.948,5.591-5.287,7.931l-15.872,15.679l-10.534,10.402  L264.555,378.677c-1.064,1.064-2.228,2.006-3.494,2.796c-1.54,1.003-3.221,1.773-4.994,2.32l-10.635,3.272l-12.418,3.829  l-9.754,3.008l5.166-16.814c0.517-1.702,1.266-3.322,2.208-4.821c0.81-1.327,1.793-2.563,2.907-3.677l113.727-112.359l15.639-15.457  c9.43-9.43,24.806-9.845,34.387-0.567C398.094,240.986,398.833,241.806,399.502,242.657z"/>
<g>
	<path style="fill:#787680;" d="M367.809,276.669L264.555,378.677c-1.064,1.064-2.228,2.006-3.494,2.796   c-1.54,1.003-3.221,1.773-4.994,2.32l-10.635,3.272l-14.798-14.798c0.81-1.327,1.793-2.563,2.907-3.677l113.727-112.359l0.132,0.03   L367.809,276.669z"/>
	<rect x="8.498" y="451.23" style="fill:#787680;" width="33.152" height="15.193"/>
	<rect x="8.498" y="205.109" style="fill:#787680;" width="33.152" height="15.193"/>
</g>
<path style="fill:#1D1D1F;" d="M381.716,290.576l-113.787,112.41c-1.064,1.064-2.228,2.006-3.494,2.796l-0.496-0.213l-18.505-18.505  l-14.798-14.798c0.81-1.327,1.793-2.563,2.907-3.677l113.727-112.359l0.132,0.03L381.716,290.576z"/>
<path style="fill:#2D2D30;" d="M367.809,276.669L264.555,378.677c-1.064,1.064-2.228,2.006-3.494,2.796  c-1.54,1.003-3.221,1.773-4.994,2.32l-10.635,3.272l-14.798-14.798c0.81-1.327,1.793-2.563,2.907-3.677l113.727-112.359l0.132,0.03  L367.809,276.669z"/>
<path d="M500.468,466.422H9.749c-4.195,0-7.597-3.4-7.597-7.597c0-4.196,3.401-7.597,7.597-7.597h490.718  c4.195,0,7.597,3.4,7.597,7.597C508.064,463.022,504.664,466.422,500.468,466.422z"/>
<path d="M352.766,319.174c2.947,2.982,7.758,3.014,10.743,0.064l22.469-22.199c0.428-0.282,0.836-0.609,1.212-0.986  c0.351-0.351,0.657-0.73,0.926-1.127l14.795-14.618c0.015-0.014,0.031-0.027,0.047-0.042c0.026-0.026,0.048-0.055,0.073-0.081  c5.982-6.021,9.277-14.004,9.277-22.497c0-8.723-3.456-16.871-9.73-22.943c-5.914-5.721-13.743-8.873-22.045-8.873  c-8.431,0-16.369,3.198-22.418,8.977c-0.1,0.09-0.205,0.175-0.301,0.271c-0.034,0.033-0.063,0.071-0.095,0.105  c-0.05,0.049-0.102,0.095-0.152,0.145L228.168,363.214c-1.281,1.281-2.429,2.69-3.439,4.19c-0.428,0.52-0.771,1.085-1.04,1.676  c-1.051,1.824-1.908,3.761-2.527,5.776L207.4,419.66c-0.827,2.689-0.099,5.616,1.891,7.605c1.446,1.445,3.386,2.223,5.371,2.223  c0.747,0,1.499-0.109,2.235-0.336l44.783-13.79c4.371-1.345,8.391-3.766,11.592-6.968l68.622-67.799  c2.985-2.949,3.014-7.758,0.065-10.743c-2.947-2.983-7.759-3.015-10.743-0.064l-66.559,65.761l-23.656-23.656l106.281-105.004  l23.654,23.655l-18.105,17.888C349.847,311.38,349.818,316.189,352.766,319.174z M250.522,402.9l-24.385,7.509l7.494-24.399  L250.522,402.9z M380.533,241.067c4.338,0,8.416,1.633,11.48,4.598c3.29,3.185,5.102,7.454,5.102,12.024  c0,1.785-0.289,3.522-0.821,5.17l-20.985-20.985C376.978,241.347,378.734,241.067,380.533,241.067z M358.091,256.21l5.064-5.004  l23.654,23.655l-5.064,5.003L358.091,256.21z"/>
<path d="M46.971,141.302c-7.121,0-12.914,5.794-12.914,12.914v27.346c0,7.121,5.793,12.914,12.914,12.914h53.174  c7.121,0,12.914-5.794,12.914-12.914v-27.346c0-7.121-5.793-12.914-12.914-12.914H46.971z M97.866,179.284H49.25v-22.788h48.615  V179.284z"/>
<path d="M464.765,194.477c7.121,0,12.914-5.794,12.914-12.914v-27.346c0-7.121-5.794-12.914-12.914-12.914h-53.173  c-7.121,0-12.914,5.794-12.914,12.914v27.346c0,7.121,5.794,12.914,12.914,12.914H464.765z M413.871,156.496h48.615v22.788h-48.615  V156.496z"/>
<path d="M477.679,107.879h-73.492c-4.195,0-7.597,3.4-7.597,7.597c0,4.196,3.401,7.597,7.597,7.597h73.492  c10.052,0,18.231,8.178,18.231,18.23v63.809H16.091v-63.809c0-10.052,8.178-18.23,18.231-18.23h339.479  c4.195,0,7.597-3.4,7.597-7.597c0-4.196-3.401-7.597-7.597-7.597H264.332V95.211c0-15.08,12.268-27.348,27.348-27.348h120.533  c23.457,0,42.541-19.084,42.541-42.541V7.597c0-4.196-3.401-7.597-7.597-7.597c-4.195,0-7.597,3.4-7.597,7.597v17.725  c0,15.08-12.268,27.348-27.348,27.348H291.68c-23.457,0-42.541,19.084-42.541,42.541v12.668H34.322  c-18.43,0-33.424,14.994-33.424,33.423v205.384c0,4.196,3.401,7.597,7.597,7.597s7.597-3.4,7.597-7.597V220.304h479.819v258.271  c0,10.053-8.178,18.231-18.231,18.231H34.322c-10.053,0-18.231-8.178-18.231-18.231V377.072c0-4.196-3.401-7.597-7.597-7.597  s-7.597,3.4-7.597,7.597v101.504C0.897,497.005,15.891,512,34.322,512h443.357c18.429,0,33.424-14.995,33.424-33.424V141.302  C511.103,122.873,496.109,107.879,477.679,107.879z"/>
<g>
</g>
<g>
</g>
<g>
</g>
<g>
</g>
<g>
</g>
<g>
</g>
<g>
</g>
<g>
</g>
<g>
</g>
<g>
</g>
<g>
</g>
<g>
</g>
<g>
</g>
<g>
</g>
<g>
</g>
</svg>
