<?xml version="1.0" encoding="iso-8859-1"?>
<!-- Generator: Adobe Illustrator 19.0.0, SVG Export Plug-In . SVG Version: 6.00 Build 0)  -->
<svg xmlns="http://www.w3.org/2000/svg" xmlns:xlink="http://www.w3.org/1999/xlink" version="1.1" id="Capa_1" x="0px" y="0px" viewBox="0 0 512 512" style="enable-background:new 0 0 512 512;" xml:space="preserve">
<path style="fill:#96C8EF;" d="M504.398,63.815v170.406c0,12.022-9.741,21.773-21.773,21.773H29.376  c-12.022,0-21.773-9.751-21.773-21.773V63.815c0-12.022,9.751-21.773,21.773-21.773h453.248  C494.656,42.042,504.398,51.793,504.398,63.815z"/>
<path style="fill:#B3D8F4;" d="M504.398,63.815v166.838H54.717c-12.022,0-21.773-9.751-21.773-21.773V42.042h449.68  C494.656,42.042,504.398,51.793,504.398,63.815z"/>
<path style="fill:#3D9AE2;" d="M504.398,277.779v170.407c0,12.022-9.741,21.773-21.773,21.773H29.376  c-12.022,0-21.773-9.751-21.773-21.773V277.779c0-12.022,9.751-21.773,21.773-21.773h453.248  C494.656,256.005,504.398,265.756,504.398,277.779z"/>
<path style="fill:#5AAAE7;" d="M504.398,281.347v166.838c0,12.022-9.741,21.773-21.773,21.773H33.958V303.12  c0-12.022,9.751-21.773,21.773-21.773H504.398z"/>
<path style="fill:#FFCD00;" d="M103.728,316.713c0,8.302-3.365,15.833-8.809,21.277c-5.453,5.453-12.975,8.819-21.277,8.819H73.45  c-1.115,0-2.22-0.061-3.305-0.182c-15.063-1.642-26.791-14.414-26.791-29.913c0-8.312,3.365-15.833,8.809-21.277  c5.453-5.453,12.975-8.819,21.287-8.819h0.193c9.305,0,17.628,4.227,23.152,10.877C101.123,302.704,103.728,309.405,103.728,316.713  z"/>
<path style="fill:#006DF0;" d="M103.728,409.25c0,8.312-3.365,15.833-8.809,21.287c-5.453,5.443-12.975,8.809-21.277,8.809H73.45  c-1.115,0-2.23-0.061-3.315-0.182c-15.063-1.642-26.781-14.404-26.781-29.913c0-8.312,3.365-15.833,8.809-21.277  c5.453-5.443,12.975-8.809,21.287-8.809h0.193c9.305,0,17.628,4.227,23.152,10.866C101.123,395.242,103.728,401.942,103.728,409.25z  "/>
<path style="fill:#5EAC24;stroke:#5EAC24;stroke-miterlimit:10;" d="M194.957,316.713c0,8.302-3.365,15.833-8.809,21.277  c-5.454,5.453-12.975,8.819-21.277,8.819h-0.193c-1.115,0-2.22-0.061-3.305-0.182c-15.063-1.642-26.791-14.414-26.791-29.913  c0-8.312,3.365-15.833,8.809-21.277c5.454-5.453,12.975-8.819,21.287-8.819h0.193c9.305,0,17.628,4.227,23.152,10.877  C192.352,302.704,194.957,309.405,194.957,316.713z"/>
<path style="fill:#FF0C38;" d="M194.957,409.25c0,8.312-3.365,15.833-8.809,21.287c-5.454,5.443-12.975,8.809-21.277,8.809h-0.193  c-1.115,0-2.23-0.061-3.315-0.182c-15.063-1.642-26.781-14.404-26.781-29.913c0-8.312,3.365-15.833,8.809-21.277  c5.454-5.443,12.975-8.809,21.287-8.809h0.193c9.305,0,17.628,4.227,23.152,10.866C192.352,395.242,194.957,401.942,194.957,409.25z  "/>
<path style="fill:#515BE0;" d="M286.187,409.25c0,8.312-3.365,15.833-8.809,21.287c-5.453,5.443-12.975,8.809-21.277,8.809h-0.193  c-1.115,0-2.23-0.061-3.315-0.182c-15.063-1.642-26.781-14.404-26.781-29.913c0-8.312,3.365-15.833,8.809-21.277  c5.454-5.443,12.975-8.809,21.287-8.809h0.193c9.305,0,17.628,4.227,23.152,10.866C283.582,395.242,286.187,401.942,286.187,409.25z  "/>
<path style="fill:#00AA95;" d="M377.416,316.713c0,8.302-3.365,15.833-8.809,21.277c-5.453,5.453-12.975,8.819-21.277,8.819h-0.193  c-1.115,0-2.22-0.061-3.305-0.182c-15.063-1.642-26.791-14.414-26.791-29.913c0-8.312,3.365-15.833,8.809-21.277  c5.453-5.453,12.975-8.819,21.287-8.819h0.193c9.305,0,17.628,4.227,23.152,10.877C374.811,302.704,377.416,309.405,377.416,316.713  z"/>
<path style="fill:#E4187A;" d="M377.416,409.25c0,8.312-3.365,15.833-8.809,21.287c-5.453,5.443-12.975,8.809-21.277,8.809h-0.193  c-1.115,0-2.23-0.061-3.315-0.182c-15.063-1.642-26.781-14.404-26.781-29.913c0-8.312,3.365-15.833,8.809-21.277  c5.453-5.443,12.975-8.809,21.287-8.809h0.193c9.305,0,17.628,4.227,23.152,10.866C374.811,395.242,377.416,401.942,377.416,409.25z  "/>
<path style="fill:#3E3D42;" d="M468.646,316.713c0,8.302-3.365,15.833-8.809,21.277c-5.453,5.453-12.975,8.819-21.277,8.819h-0.193  c-1.115,0-2.22-0.061-3.305-0.182c-15.063-1.642-26.791-14.414-26.791-29.913c0-8.312,3.365-15.833,8.809-21.277  c5.453-5.453,12.975-8.819,21.287-8.819h0.193c9.305,0,17.628,4.227,23.152,10.877C466.041,302.704,468.646,309.405,468.646,316.713  z"/>
<path style="fill:#003F8A;" d="M468.646,409.25c0,8.312-3.365,15.833-8.809,21.287c-5.453,5.443-12.975,8.809-21.277,8.809h-0.193  c-1.115,0-2.23-0.061-3.315-0.182c-15.063-1.642-26.781-14.404-26.781-29.913c0-8.312,3.365-15.833,8.809-21.277  c5.453-5.443,12.975-8.809,21.287-8.809h0.193c9.305,0,17.628,4.227,23.152,10.866C466.041,395.242,468.646,401.942,468.646,409.25z  "/>
<path style="fill:#FFDA44;" d="M103.728,316.713c0,8.302-3.365,15.833-8.809,21.277c-5.453,5.453-12.975,8.819-21.277,8.819H73.45  c-1.115,0-2.22-0.061-3.305-0.182c-4.338-5.21-6.944-11.91-6.944-19.229c0-8.302,3.365-15.823,8.809-21.277  c5.453-5.443,12.975-8.809,21.277-8.809h0.193c1.115,0,2.23,0.061,3.315,0.182C101.123,302.704,103.728,309.405,103.728,316.713z"/>
<path style="fill:#2488FF;" d="M103.728,409.25c0,8.312-3.365,15.833-8.809,21.287c-5.453,5.443-12.975,8.809-21.277,8.809H73.45  c-1.115,0-2.23-0.061-3.315-0.182c-4.328-5.22-6.933-11.921-6.933-19.219c0-8.312,3.365-15.833,8.809-21.277  c5.453-5.453,12.975-8.819,21.277-8.819h0.193c1.115,0,2.23,0.061,3.315,0.182C101.123,395.242,103.728,401.942,103.728,409.25z"/>
<path style="fill:#6DC82A;stroke:#5EAC24;stroke-miterlimit:10;" d="M194.957,316.713c0,8.302-3.365,15.833-8.809,21.277  c-5.454,5.453-12.975,8.819-21.277,8.819h-0.193c-1.115,0-2.22-0.061-3.305-0.182c-4.338-5.21-6.944-11.91-6.944-19.229  c0-8.302,3.365-15.823,8.809-21.277c5.453-5.443,12.975-8.809,21.277-8.809h0.193c1.115,0,2.23,0.061,3.315,0.182  C192.352,302.704,194.957,309.405,194.957,316.713z"/>
<path style="fill:#FF3F62;" d="M194.957,409.25c0,8.312-3.365,15.833-8.809,21.287c-5.454,5.443-12.975,8.809-21.277,8.809h-0.193  c-1.115,0-2.23-0.061-3.315-0.182c-4.328-5.22-6.933-11.921-6.933-19.219c0-8.312,3.365-15.833,8.809-21.277  c5.453-5.453,12.975-8.819,21.277-8.819h0.193c1.115,0,2.23,0.061,3.315,0.182C192.352,395.242,194.957,401.942,194.957,409.25z"/>
<path style="fill:#6E76E5;" d="M286.187,409.25c0,8.312-3.365,15.833-8.809,21.287c-5.453,5.443-12.975,8.809-21.277,8.809h-0.193  c-1.115,0-2.23-0.061-3.315-0.182c-4.328-5.22-6.933-11.921-6.933-19.219c0-8.312,3.365-15.833,8.809-21.277  c5.454-5.453,12.975-8.819,21.277-8.819h0.193c1.115,0,2.23,0.061,3.315,0.182C283.582,395.242,286.187,401.942,286.187,409.25z"/>
<path style="fill:#00CCB3;" d="M377.416,316.713c0,8.302-3.365,15.833-8.809,21.277c-5.453,5.453-12.975,8.819-21.277,8.819h-0.193  c-1.115,0-2.22-0.061-3.305-0.182c-4.338-5.21-6.944-11.91-6.944-19.229c0-8.302,3.365-15.823,8.809-21.277  c5.453-5.443,12.975-8.809,21.277-8.809h0.193c1.115,0,2.23,0.061,3.315,0.182C374.811,302.704,377.416,309.405,377.416,316.713z"/>
<path style="fill:#ED539D;" d="M377.416,409.25c0,8.312-3.365,15.833-8.809,21.287c-5.453,5.443-12.975,8.809-21.277,8.809h-0.193  c-1.115,0-2.23-0.061-3.315-0.182c-4.328-5.22-6.933-11.921-6.933-19.219c0-8.312,3.365-15.833,8.809-21.277  c5.453-5.453,12.975-8.819,21.277-8.819h0.193c1.115,0,2.23,0.061,3.315,0.182C374.811,395.242,377.416,401.942,377.416,409.25z"/>
<path style="fill:#57565C;" d="M468.646,316.713c0,8.302-3.365,15.833-8.809,21.277c-5.453,5.453-12.975,8.819-21.277,8.819h-0.193  c-1.115,0-2.22-0.061-3.305-0.182c-4.338-5.21-6.944-11.91-6.944-19.229c0-8.302,3.365-15.823,8.809-21.277  c5.453-5.443,12.975-8.809,21.277-8.809h0.193c1.115,0,2.23,0.061,3.315,0.182C466.041,302.704,468.646,309.405,468.646,316.713z"/>
<g>
	<path style="fill:#005ECE;" d="M468.646,409.25c0,8.312-3.365,15.833-8.809,21.287c-5.453,5.443-12.975,8.809-21.277,8.809h-0.193   c-1.115,0-2.23-0.061-3.315-0.182c-4.328-5.22-6.933-11.921-6.933-19.219c0-8.312,3.365-15.833,8.809-21.277   c5.453-5.453,12.975-8.819,21.277-8.819h0.193c1.115,0,2.23,0.061,3.315,0.182C466.041,395.242,468.646,401.942,468.646,409.25z"/>
	<path style="fill:#005ECE;" d="M175.607,117.255c0,8.19-6.7,14.891-14.891,14.891h-27.774c-6.852,0-12.215,5.666-12.144,12.519   v2.372c0,8.19-6.7,14.891-14.891,14.891H52.954c-8.19,0-14.891-6.7-14.891-14.891v-2.21c0-4.095,1.673-7.815,4.369-10.522   c2.706-2.696,6.427-4.369,10.522-4.369c5.301,0,9.103-4.845,8.17-10.056c-0.162-0.851-0.233-1.733-0.233-2.625   c0-4.095,1.673-7.815,4.369-10.522c2.706-2.696,6.427-4.369,10.522-4.369c7.055,0,12.924-5.849,12.498-12.904   c-0.01-0.294-0.02-0.588-0.02-0.892v-1.105c0-8.19,6.7-14.891,14.891-14.891h34.748c8.19,0,14.891,6.7,14.891,14.891v1.105   c0,1.176-0.142,2.331-0.405,3.436c-1.267,5.301,2.879,10.36,8.332,10.36c4.095,0,7.815,1.673,10.512,4.369   C173.934,109.44,175.607,113.16,175.607,117.255z"/>
</g>
<path style="fill:#006DF0;" d="M175.607,117.255c0,8.19-6.7,14.891-14.891,14.891h-27.774c-6.852,0-12.215,5.666-12.144,12.519  v2.372c0,8.19-6.7,14.891-14.891,14.891H77.758c-8.19,0-14.891-6.7-14.891-14.891v-2.21c0-4.095,1.673-7.815,4.379-10.522  c2.696-2.696,6.416-4.369,10.512-4.369c5.291,0,9.103-4.845,8.16-10.056c-0.152-0.851-0.233-1.733-0.233-2.625  c0-4.095,1.673-7.815,4.369-10.522c2.706-2.696,6.427-4.369,10.522-4.369c7.065,0,12.934-5.849,12.509-12.904  c-0.02-0.294-0.03-0.588-0.03-0.892v-1.105c0-8.19,6.7-14.891,14.891-14.891h9.954c8.19,0,14.891,6.7,14.891,14.891v1.105  c0,1.176-0.142,2.331-0.405,3.436c-1.267,5.301,2.879,10.36,8.332,10.36c4.095,0,7.815,1.673,10.512,4.369  C173.934,109.44,175.607,113.16,175.607,117.255z"/>
<path style="fill:#FF0C38;" d="M274.408,150.959v2.22c0,4.095-1.673,7.815-4.369,10.522c-2.706,2.696-6.427,4.369-10.522,4.369  c-5.291,0-9.103,4.845-8.16,10.056c0.152,0.851,0.233,1.723,0.233,2.625c0,4.095-1.673,7.815-4.379,10.522  c-2.696,2.696-6.416,4.369-10.512,4.369c-7.065,0-12.934,5.849-12.509,12.894c0.02,0.304,0.03,0.598,0.03,0.902v1.105  c0,5.028-2.524,9.488-6.366,12.184c-2.423,1.703-5.362,2.706-8.525,2.706h-15.367c-8.19,0-14.891-6.7-14.891-14.891v-1.105  c0-1.186,0.142-2.331,0.405-3.436c1.267-5.301-2.879-10.36-8.332-10.36c-4.095,0-7.815-1.673-10.522-4.369  c-2.696-2.706-4.369-6.427-4.369-10.522c0-8.19,6.7-14.901,14.891-14.901h27.774c6.852,0,12.215-5.656,12.144-12.509v-2.382  c0-8.19,6.7-14.891,14.891-14.891h33.562C267.708,136.069,274.408,142.769,274.408,150.959z"/>
<path style="fill:#FF3F62;" d="M274.408,150.959v2.22c0,4.095-1.673,7.815-4.369,10.522c-2.706,2.696-6.427,4.369-10.522,4.369  c-5.291,0-9.103,4.845-8.16,10.056c0.152,0.851,0.233,1.723,0.233,2.625c0,4.095-1.673,7.815-4.379,10.522  c-2.696,2.696-6.416,4.369-10.512,4.369c-7.065,0-12.934,5.849-12.509,12.894c0.02,0.304,0.03,0.598,0.03,0.902v1.105  c0,5.028-2.524,9.488-6.366,12.184c-3.842-2.696-6.366-7.156-6.366-12.184v-1.105c0-1.186,0.142-2.331,0.405-3.436  c1.267-5.301-2.879-10.36-8.332-10.36c-4.095,0-7.815-1.673-10.522-4.369c-2.696-2.706-4.369-6.427-4.369-10.522  c0-8.19,6.7-14.901,14.891-14.901h27.774c6.852,0,12.225-5.656,12.144-12.509v-2.382c0-8.19,6.7-14.891,14.891-14.891h1.145  C267.708,136.069,274.408,142.769,274.408,150.959z"/>
<path style="fill:#EE8700;" d="M440.693,87.776c0.011-0.001,0.02-0.012,0.031-0.013c1.405-0.606,2.897,0.672,2.513,2.153  c0.001,0.011-0.009,0.022-0.008,0.032c-13.955,54.509-47.91,101.888-80.164,136.903c-7.421,8.068-14.759,15.482-21.735,22.17  c-14.915,14.293-28.196,25.309-37.266,32.422c-2.328-5.388-5.78-10.405-10.412-14.753c-0.537-0.5-1.085-0.998-1.646-1.481  c-0.224-0.192-0.452-0.378-0.681-0.564c-0.219-0.198-0.438-0.395-0.661-0.587c-0.563-0.481-1.139-0.947-1.715-1.4  c-0.228-0.175-0.461-0.356-0.689-0.531c-4.846-3.645-10.103-6.091-15.512-7.442c5.639-10.064,14.499-24.898,26.359-41.849  c5.547-7.924,11.743-16.305,18.573-24.879C347.346,150.726,388.96,109.91,440.693,87.776z"/>
<path style="fill:#FFCD00;" d="M317.678,187.959l45.386,38.893c-7.421,8.068-14.759,15.482-21.735,22.17l-42.225-36.185  C304.652,204.914,310.848,196.533,317.678,187.959z"/>
<path style="fill:#FFA733;" d="M301.007,325.856c-3.061,3-6.528,5.737-10.4,8.13c0,0-71.838,45.665-127.052-5.433  c-2.838-2.636-1.429-7.39,2.362-8.109c5.768-1.095,12.194-2.828,13.978-3.264c3.507-0.851,6.994-1.855,10.41-3.082  c4.582-1.642,9.022-3.669,13.188-6.193c7.035-4.268,13.137-9.964,17.405-17.04c3.102-5.149,4.359-10.826,6.204-16.33  c0.72-2.119,1.52-4.217,2.554-6.254c3.619-7.146,8.849-13.066,15.033-17.476c15.458-11.039,36.826-12.62,53.4-0.152  c0.233,0.172,0.466,0.355,0.689,0.537c0.578,0.446,1.156,0.912,1.723,1.399c0.223,0.193,0.436,0.385,0.659,0.588  c0.223,0.182,0.456,0.365,0.679,0.558c0.557,0.487,1.105,0.983,1.642,1.48c5.758,5.403,9.68,11.829,11.89,18.722  C320.935,291.26,315.624,311.533,301.007,325.856z"/>
<path style="fill:#FFC477;" d="M315.37,273.937c-2.737,7.44-7.227,14.495-13.35,20.496c-3.061,3-6.528,5.737-10.4,8.13  c0,0-51.859,32.964-101.315,11.535c4.582-1.642,9.022-3.669,13.188-6.193c7.035-4.268,13.137-9.964,17.405-17.04  c3.102-5.149,4.359-10.826,6.204-16.33c0.72-2.119,1.52-4.217,2.554-6.254c3.619-7.146,8.849-13.066,15.033-17.476  c15.458-11.039,36.826-12.62,53.4-0.152c0.233,0.172,0.466,0.355,0.689,0.537c0.578,0.446,1.156,0.912,1.723,1.399  c0.223,0.193,0.436,0.385,0.659,0.588c0.223,0.182,0.456,0.365,0.679,0.558c0.557,0.487,1.105,0.983,1.642,1.48  C309.237,260.617,313.16,267.044,315.37,273.937z"/>
<path d="M512,234.222V63.815c0-16.198-13.178-29.376-29.376-29.376H29.376C13.178,34.439,0,47.617,0,63.815v170.406  c0,8.636,3.74,16.411,9.691,21.784C3.74,261.367,0,269.142,0,277.779v170.407c0,16.198,13.178,29.376,29.376,29.376h453.248  c16.198,0,29.376-13.178,29.376-29.376V277.779c0-8.636-3.74-16.411-9.691-21.773C508.26,250.633,512,242.858,512,234.222z   M496.795,448.185c0,7.815-6.356,14.171-14.171,14.171H29.376c-7.815,0-14.171-6.356-14.171-14.171V277.778  c0-7.815,6.356-14.171,14.171-14.171h194.136c-8.341,15.169-2.801,23.725-24.145,37.911c-7.43-16.959-26.487-26.294-44.804-21.094  l-0.182,0.051c-19.989,5.677-31.636,26.568-25.96,46.557c6.463,22.771,32.137,34.007,53.319,23.365  c11.302,5.636,23.557,8.9,36.674,9.751c0.172,0.01,0.335,0.01,0.507,0.01c3.974,0,7.319-3.092,7.572-7.106  c0.274-4.197-2.899-7.815-7.096-8.079c-17.323-1.125-32.903-7.268-46.385-18.266c22.179-5.123,42.279-11.819,54.403-31.93  c2.818-4.693,4.338-9.62,5.676-13.978c3.012-9.728,4.123-11.096,8.788-17.202c2.129-2.483,4.561-4.703,7.227-6.609  c16.299-11.606,37.562-9.935,51.889,6.609c0,0,0.01,0,0.01,0.01c16.173,18.744,9.75,49.021-14.475,63.962  c-0.162,0.111-16.421,10.329-38.985,15.144c-4.105,0.882-6.721,4.916-5.849,9.032c0.872,4.105,4.906,6.71,9.022,5.839  c25.21-5.383,43.212-16.695,43.881-17.131c6.363-3.929,11.697-8.621,16.139-13.953c4.321,16.053,18.998,27.906,36.398,27.906h0.19  c2.956,0,5.902-0.345,8.758-1.025c4.084-0.972,6.608-5.071,5.636-9.155c-0.971-4.084-5.064-6.613-9.155-5.636  c-14.356,3.412-27.916-7.407-27.916-21.879c0-12.4,10.089-22.489,22.49-22.489h0.19c15.32,0,26.239,15.102,21.313,29.694  c-1.343,3.978,0.792,8.292,4.77,9.635c3.977,1.341,8.292-0.792,9.635-4.77c11.935-35.318-29.057-63.531-57.955-42.615  c-0.119-3.729-0.591-7.388-1.459-10.912c4.085-3.477,8.525-7.379,13.228-11.647h145.764c7.815,0,14.171,6.356,14.171,14.171v170.408  H496.795z M158.395,334.128c1.936,1.794,3.913,3.497,5.93,5.099c-9.65-0.152-18.499-6.589-21.277-16.34  c-3.386-11.931,3.558-24.399,15.489-27.784l0.182-0.051c10.958-3.112,22.351,2.494,26.761,12.661  c-4.48,1.468-15.638,4.243-20.983,5.261C154.605,314.868,150.971,327.265,158.395,334.128z M329.958,249.294  c-1.545,1.408-5.858,5.457-12.459,11.182c-2.865-4.67-6.428-8.777-10.218-12.073c0-0.01-0.01-0.01-0.01-0.01  c-4.426-3.871-8.782-7.331-15.844-10.228c4.863-7.751,8.306-12.771,9.153-14.049L329.958,249.294z M309.322,211.581  c4.593-6.377,9.37-12.576,9.446-12.678l33.348,28.506c-3.726,3.918-7.262,7.527-11.111,11.324  C335.919,234.375,311.2,213.191,309.322,211.581z M496.795,234.222c0,7.805-6.356,14.171-14.171,14.171H352.865  c0.113-0.11,4.772-4.773,7.744-7.846c0.828-1.656,68.484-64.691,89.983-148.714c0.01-0.02,0.01-0.051,0.02-0.081  c1.921-7.485-5.677-14.096-12.914-10.968c-28.889,12.367-57.221,31.484-84.185,56.826c-3.061,2.879-3.213,7.684-0.335,10.745  c2.879,3.061,7.694,3.213,10.745,0.335c22.128-20.79,45.128-37.141,68.544-48.747c-12.23,38.849-35.747,77.882-70.037,116.279  l-34.184-29.23c4.844-5.888,9.79-11.603,14.756-17.046c2.838-3.092,2.615-7.907-0.487-10.735c-3.102-2.828-7.907-2.615-10.735,0.487  c-10.811,11.835-21.536,24.914-31.961,39.097c0,0.364-9.572,12.216-23.993,35.65c-14.966-1.078-29.649,4.401-40.273,13.948H29.376  c-7.815,0-14.171-6.366-14.171-14.171V63.815c0-7.815,6.356-14.171,14.171-14.171h453.248c7.815,0,14.171,6.356,14.171,14.171  L496.795,234.222L496.795,234.222z"/>
<path d="M73.638,279.018h-0.19c-20.785,0-37.695,16.91-37.695,37.695c0,24.178,22.646,42.383,46.642,36.669  c4.084-0.972,6.608-5.071,5.636-9.155c-0.971-4.084-5.064-6.613-9.155-5.636c-14.381,3.418-27.916-7.417-27.916-21.879  c0-12.4,10.089-22.489,22.49-22.489h0.19c15.32,0,26.239,15.102,21.313,29.694c-1.343,3.978,0.792,8.292,4.77,9.635  c3.979,1.341,8.292-0.792,9.635-4.77c1.312-3.881,1.976-7.943,1.976-12.07C111.332,295.928,94.424,279.018,73.638,279.018z"/>
<path d="M73.638,371.558h-0.19c-20.785,0-37.695,16.91-37.695,37.695c0,24.228,22.702,42.373,46.647,36.669  c4.084-0.974,6.606-5.074,5.633-9.158c-0.974-4.084-5.076-6.607-9.158-5.633c-14.344,3.421-27.915-7.393-27.915-21.878  c0-12.4,10.089-22.49,22.49-22.49h0.19c15.32,0,26.239,15.102,21.313,29.694c-1.343,3.978,0.792,8.292,4.77,9.635  c3.979,1.342,8.292-0.792,9.635-4.77c1.312-3.881,1.976-7.942,1.976-12.069C111.332,388.468,94.424,371.558,73.638,371.558z"/>
<path d="M164.868,371.558h-0.19c-20.785,0-37.695,16.91-37.695,37.695c0,24.228,22.702,42.373,46.647,36.669  c4.084-0.974,6.606-5.074,5.633-9.158c-0.974-4.084-5.075-6.607-9.158-5.633c-14.344,3.421-27.915-7.393-27.915-21.878  c0-12.4,10.089-22.49,22.49-22.49h0.19c15.32,0,26.239,15.102,21.313,29.694c-1.343,3.978,0.792,8.292,4.77,9.635  c3.978,1.342,8.292-0.792,9.635-4.77c1.312-3.881,1.976-7.942,1.976-12.069C202.562,388.468,185.653,371.558,164.868,371.558z"/>
<path d="M256.097,371.558h-0.19c-20.785,0-37.695,16.91-37.695,37.695c0,24.228,22.702,42.373,46.647,36.669  c4.084-0.974,6.606-5.074,5.633-9.158c-0.974-4.084-5.074-6.607-9.158-5.633c-14.318,3.415-27.915-7.378-27.915-21.878  c0-12.4,10.089-22.49,22.49-22.49h0.19c15.32,0,26.239,15.102,21.313,29.694c-1.343,3.978,0.792,8.292,4.77,9.635  c3.979,1.342,8.292-0.792,9.635-4.77C300.065,396.911,281.811,371.558,256.097,371.558z"/>
<path d="M347.327,371.558h-0.19c-20.785,0-37.695,16.91-37.695,37.695c0,24.182,22.651,42.385,46.647,36.669  c4.084-0.974,6.606-5.074,5.633-9.158c-0.974-4.084-5.077-6.607-9.158-5.633c-14.344,3.421-27.915-7.393-27.915-21.878  c0-12.4,10.089-22.49,22.49-22.49h0.19c15.32,0,26.239,15.102,21.313,29.694c-1.343,3.978,0.792,8.292,4.77,9.635  c3.977,1.342,8.292-0.792,9.635-4.77C391.294,396.911,373.04,371.558,347.327,371.558z"/>
<path d="M438.556,279.018h-0.19c-20.785,0-37.695,16.91-37.695,37.695c0,24.263,22.732,42.363,46.642,36.669  c4.084-0.972,6.608-5.071,5.636-9.155c-0.971-4.084-5.065-6.613-9.155-5.636c-14.381,3.418-27.916-7.417-27.916-21.879  c0-12.4,10.089-22.489,22.49-22.489h0.19c15.32,0,26.239,15.102,21.313,29.694c-1.343,3.978,0.792,8.292,4.77,9.635  c3.978,1.341,8.292-0.792,9.635-4.77C482.524,304.371,464.271,279.018,438.556,279.018z"/>
<path d="M438.556,371.558h-0.19c-20.785,0-37.695,16.91-37.695,37.695c0,24.182,22.651,42.385,46.647,36.669  c4.084-0.974,6.606-5.074,5.633-9.158c-0.974-4.084-5.076-6.607-9.158-5.633c-14.344,3.421-27.915-7.393-27.915-21.878  c0-12.4,10.089-22.49,22.49-22.49h0.19c15.32,0,26.239,15.102,21.313,29.694c-1.343,3.978,0.792,8.292,4.77,9.635  c3.978,1.342,8.292-0.792,9.635-4.77C482.524,396.911,464.27,371.558,438.556,371.558z"/>
<path d="M183.208,117.256c0-12.402-10.091-22.493-22.493-22.493c-0.558,0-1.054-0.498-0.937-0.995  c3.648-15.296-7.467-28.796-21.884-28.796h-34.746c-12.402,0-22.493,10.09-22.493,22.493c0.042,2.281,0.05,2.683,0.051,2.718  c0-0.018-0.002-0.082-0.002,0.003c0,2.481-2.255,4.579-4.924,4.579c-12.403,0-22.493,10.091-22.493,22.493  c0,1.331,0.119,2.666,0.354,3.965c0.016,0.088,0.023,0.169,0.023,0.243c0,0.24-0.127,0.866-0.702,0.866  c-12.403,0-22.494,10.091-22.494,22.493v2.216c0,11.049,7.916,20.382,18.82,22.192c4.132,0.689,8.058-2.112,8.744-6.255  c0.688-4.142-2.112-8.057-6.255-8.744c-3.48-0.578-6.103-3.669-6.103-7.193v-2.216c0-4.019,3.27-7.288,7.289-7.288  c9.836,0,17.447-9.006,15.644-19.006c-0.8-4.43,2.633-8.561,7.176-8.561c11.575,0,20.79-9.624,20.094-20.958  c-0.344-5.649,3.182-8.834,7.276-8.834h34.746c4.02,0,7.289,3.27,7.289,7.288v1.104c0,1.664-0.632,2.557-0.632,5.365  c0,8.842,7.25,16.034,16.162,16.034c4.019,0,7.288,3.27,7.288,7.288c0,4.02-3.27,7.289-7.288,7.289h-27.771  c-10.89,0-19.749,8.962-19.749,19.977l0.001,2.516c0,4.02-3.27,7.289-7.288,7.289H80.926c-4.2,0-7.602,3.403-7.602,7.602  s3.403,7.602,7.602,7.602h24.98c12.403,0,22.493-10.091,22.493-22.494v-2.376c0-2.995,2.122-4.913,4.543-4.913h27.771  C173.116,139.75,183.208,129.659,183.208,117.256z"/>
<path d="M253.244,135.465c-0.366,4.183,2.728,7.871,6.91,8.237c3.731,0.326,6.653,3.516,6.653,7.261v2.216  c0,4.02-3.27,7.289-7.289,7.289c-9.836,0-17.447,9.006-15.644,19.005c0.802,4.44-2.643,8.562-7.176,8.562  c-11.559,0-20.788,9.602-20.094,20.96c0.356,5.774-3.307,8.831-7.276,8.831h-15.362c-4.019,0-7.288-3.27-7.288-7.288v-1.103  c0-1.701,0.632-2.475,0.632-5.364c0-8.842-7.251-16.035-16.163-16.035c-4.019,0-7.288-3.27-7.288-7.289s3.27-7.288,7.289-7.288  h27.77c10.89,0,19.749-8.964,19.749-19.98c0-0.628-0.001-2.399-0.001-2.514c0-4.019,3.27-7.288,7.288-7.288h4.455  c4.2,0,7.602-3.403,7.602-7.602s-3.403-7.602-7.602-7.602h-4.455c-12.403,0-22.493,10.09-22.493,22.493l0.001,2.514  c0,2.678-1.997,4.775-4.544,4.775h-27.77c-12.403,0-22.494,10.09-22.494,22.493c0,12.403,10.09,22.494,22.493,22.494  c0.585,0,0.958,0.492,0.958,0.83c0,0.317-0.632,2.234-0.632,5.364v1.103c0,12.403,10.09,22.493,22.493,22.493h15.362  c12.191,0,23.337-9.864,22.453-24.959c-0.174-2.506,2.088-4.832,4.917-4.832c14.054,0,24.611-12.774,22.14-26.461  c-0.093-0.521,0.136-1.108,0.679-1.108c12.403,0,22.494-10.091,22.494-22.494v-2.216  C282.013,130.064,254.467,121.495,253.244,135.465z"/>
<g>
</g>
<g>
</g>
<g>
</g>
<g>
</g>
<g>
</g>
<g>
</g>
<g>
</g>
<g>
</g>
<g>
</g>
<g>
</g>
<g>
</g>
<g>
</g>
<g>
</g>
<g>
</g>
<g>
</g>
</svg>
