<?xml version="1.0" encoding="iso-8859-1"?>
<!-- Generator: Adobe Illustrator 19.0.0, SVG Export Plug-In . SVG Version: 6.00 Build 0)  -->
<svg xmlns="http://www.w3.org/2000/svg" xmlns:xlink="http://www.w3.org/1999/xlink" version="1.1" id="Capa_1" x="0px" y="0px" viewBox="0 0 512 512" style="enable-background:new 0 0 512 512;" xml:space="preserve">
<path style="fill:#FF3F62;" d="M311.132,210.405v225.341H200.826V210.405c0-11.24,9.111-20.352,20.352-20.352h69.613  C302.02,190.053,311.132,199.164,311.132,210.405z"/>
<path style="fill:#FF728B;" d="M311.132,210.405v225.341h-84.713V210.405c0-11.24,9.111-20.352,20.352-20.352h44.02  C302.02,190.053,311.132,199.164,311.132,210.405z"/>
<path style="fill:#C6C5CA;" d="M284.609,39.741v334.766c0,11.588-9.388,20.976-20.966,20.976h-16.236  c-11.578,0-20.966-9.388-20.966-20.976V13.083c0-4.238,4.668-6.828,8.272-4.576l19.369,12.121L284.609,39.741z"/>
<path style="fill:#E0E0E2;" d="M285.078,39.741v331.851h-9.562c-11.578,0-20.966-9.387-20.966-20.976V20.628L285.078,39.741z"/>
<path style="fill:#3E3D42;" d="M288.241,357.962H223.75c-12.667,0-23.033-10.364-23.033-23.033l0,0  c0-12.667,10.364-23.033,23.033-23.033h64.491c12.667,0,23.033,10.364,23.033,23.033l0,0  C311.274,347.597,300.909,357.962,288.241,357.962z"/>
<path style="fill:#3D9AE2;" d="M311.132,423.461v25.726c0,0.471-0.01,0.952-0.02,1.423c-0.01,0.42-0.02,0.839-0.041,1.249  c-0.031,0.532-0.061,1.065-0.102,1.587c-0.031,0.44-0.072,0.87-0.113,1.31c-0.02,0.225-0.051,0.45-0.082,0.676  c-0.031,0.317-0.061,0.645-0.113,0.962c-0.061,0.471-0.123,0.942-0.194,1.402c-0.061,0.389-0.123,0.768-0.195,1.147  c-0.072,0.42-0.154,0.829-0.235,1.228c-0.102,0.502-0.205,0.983-0.317,1.464c-0.184,0.809-0.389,1.607-0.614,2.396  c-1.013,3.665-2.406,7.166-4.115,10.462c-0.164,0.328-0.338,0.655-0.512,0.973c-0.215,0.399-0.43,0.778-0.655,1.167  c-0.215,0.389-0.44,0.768-0.676,1.147c-0.45,0.737-0.921,1.474-1.392,2.191c-0.02,0.01-0.031,0.031-0.041,0.051  c-0.246,0.358-0.502,0.727-0.758,1.085c-0.768,1.085-1.577,2.14-2.416,3.153c-0.287,0.348-0.573,0.686-0.86,1.013  c-0.266,0.317-0.543,0.624-0.819,0.932l-0.061,0.061c-0.297,0.328-0.594,0.645-0.901,0.973c-0.297,0.317-0.604,0.635-0.921,0.942  c-0.276,0.276-0.553,0.543-0.829,0.819c-1.239,1.188-2.539,2.324-3.89,3.388c-0.297,0.235-0.594,0.471-0.901,0.696  c-0.287,0.225-0.573,0.44-0.87,0.655c-0.348,0.256-0.706,0.512-1.065,0.758c-0.276,0.195-0.553,0.379-0.829,0.563  c-1.587,1.065-3.235,2.047-4.934,2.938c-0.328,0.174-0.645,0.338-0.973,0.502c-0.338,0.174-0.676,0.338-1.024,0.502  c-0.348,0.164-0.696,0.328-1.044,0.481c-0.348,0.164-0.696,0.317-1.044,0.461c-0.338,0.143-0.686,0.287-1.024,0.42  c-0.798,0.328-1.617,0.635-2.436,0.921c-0.287,0.092-0.573,0.194-0.86,0.287c-0.717,0.246-1.443,0.461-2.17,0.676  c-0.768,0.215-1.536,0.409-2.303,0.594c-4.105,0.983-8.394,1.495-12.796,1.495h-0.01c-30.456,0-55.148-24.692-55.148-55.148v-25.726  L311.132,423.461L311.132,423.461z"/>
<path style="fill:#5AAAE7;" d="M311.132,423.461v25.726c0,0.471-0.01,0.952-0.02,1.423c-0.01,0.42-0.02,0.839-0.041,1.249  c-0.031,0.532-0.061,1.065-0.102,1.587c-0.031,0.44-0.072,0.87-0.113,1.31c-0.02,0.225-0.051,0.45-0.082,0.676  c-0.031,0.317-0.061,0.645-0.113,0.962c-0.061,0.471-0.123,0.942-0.194,1.402c-0.061,0.389-0.123,0.768-0.195,1.147  c-0.072,0.42-0.154,0.829-0.235,1.228c-0.102,0.502-0.205,0.983-0.317,1.464c-0.184,0.809-0.389,1.607-0.614,2.396  c-1.013,3.665-2.406,7.166-4.115,10.462c-0.164,0.328-0.338,0.655-0.512,0.973c-0.215,0.399-0.43,0.778-0.655,1.167  c-0.215,0.389-0.44,0.768-0.676,1.147c-0.45,0.737-0.921,1.474-1.392,2.191c-0.02,0.01-0.031,0.031-0.041,0.051  c-0.246,0.358-0.502,0.727-0.758,1.085c-0.768,1.085-1.577,2.14-2.416,3.153c-0.287,0.348-0.573,0.686-0.86,1.013  c-0.266,0.317-0.543,0.624-0.819,0.932l-0.061,0.061c-0.297,0.328-0.594,0.645-0.901,0.973c-0.297,0.317-0.604,0.635-0.921,0.942  c-0.276,0.276-0.553,0.543-0.829,0.819c-1.239,1.188-2.539,2.324-3.89,3.388c-0.297,0.235-0.594,0.471-0.901,0.696  c-0.287,0.225-0.573,0.44-0.87,0.655c-0.348,0.256-0.706,0.512-1.065,0.758c-0.276,0.195-0.553,0.379-0.829,0.563  c-1.587,1.065-3.235,2.047-4.934,2.938c-0.328,0.174-0.645,0.338-0.973,0.502c-0.338,0.174-0.676,0.338-1.024,0.502  c-0.348,0.164-0.696,0.328-1.044,0.481c-0.348,0.164-0.696,0.317-1.044,0.461c-0.338,0.143-0.686,0.287-1.024,0.42  c-0.798,0.328-1.617,0.635-2.436,0.921c-0.287,0.092-0.573,0.194-0.86,0.287c-0.717,0.235-1.443,0.461-2.17,0.676  c-0.768,0.215-1.536,0.409-2.303,0.594c-24.293-5.764-42.361-27.599-42.361-53.653v-25.726L311.132,423.461L311.132,423.461z"/>
<path d="M318.809,423.461c0-51.621,0-183.421,0-233.408c0-4.238-3.44-7.678-7.678-7.678h-18.376V39.741  c0-2.651-1.362-5.108-3.603-6.511L239.246,1.996C237.158,0.686,234.762,0,232.326,0c-7.217,0-13.093,5.866-13.093,13.083v12.653  c0,4.238,3.44,7.678,7.678,7.678s7.678-3.44,7.678-7.678v-8.538L277.4,43.989v44.332l-42.812-26.793v-5.081  c0-4.238-3.44-7.678-7.678-7.678s-7.678,3.44-7.678,7.678v125.927h-18.406c-4.238,0-7.678,3.44-7.678,7.678v69.173  c0,4.238,3.44,7.678,7.678,7.678s7.678-3.44,7.678-7.678v-61.495h10.729v106.825c-3.859,0.563-7.483,1.853-10.729,3.726v-18.345  c0-4.238-3.44-7.678-7.678-7.678s-7.678,3.44-7.678,7.678c0,16.389,0,128.281,0,133.523v11.855  c0.384,10.312-1.275,19.341,2.825,32.534c0,0.02,0.01,0.041,0.02,0.061c0.01,0.051,0.02,0.102,0.041,0.154  c13.061,41.506,62.693,56.761,96.803,32.001l1.863-1.402c8.794-6.89,15.417-15.755,19.471-25.736v-0.01  C319.93,458.978,318.751,450.612,318.809,423.461z M292.756,197.731h10.698v110.531c-3.235-1.863-6.849-3.143-10.698-3.706V197.731z   M234.588,79.643l42.812,26.793v42.803l-42.812-26.801L234.588,79.643L234.588,79.643z M234.588,140.546l42.812,26.801  c0,15.793,0,27.487,0,42.802c-32.451-20.315-40.643-25.442-42.39-26.537c0,0-0.026-0.016-0.087-0.054  c0.003,0.002,0.007,0.004,0.01,0.006c-0.033-0.02-0.062-0.039-0.09-0.056c-0.053-0.033-0.121-0.076-0.206-0.129  c-0.021-0.013-0.036-0.023-0.043-0.027c0.002,0.001,0.003,0.002,0.005,0.003c-0.004-0.003-0.008-0.005-0.012-0.008  C234.588,179.485,234.588,156.685,234.588,140.546z M234.588,201.457l42.812,26.801v42.806l-42.812-26.756L234.588,201.457  L234.588,201.457z M234.588,262.416l42.812,26.757v15.047h-42.812L234.588,262.416L234.588,262.416z M299.952,467.122  c0,0.041-0.02,0.082-0.041,0.113c-5.227,12.756-14.145,18.721-15.366,19.942c-1.944,1.054-18.099,13.676-39.608,8.19  c-14.649-3.501-26.688-13.81-32.564-27.384c-5.531-13.097-3.38-20.692-3.87-36.844h56.223c4.248,0,7.678-3.44,7.678-7.678  c0-4.238-3.429-7.678-7.678-7.678h-56.223v-54.206c3.245,1.873,6.869,3.163,10.729,3.726v30.179c0,4.238,3.44,7.678,7.678,7.678  h58.168c4.238,0,7.678-3.44,7.678-7.678v-10.862c0-4.248-3.44-7.678-7.678-7.678c-4.238,0-7.678,3.429-7.678,7.678v3.184h-42.812  v-22.163h53.653c5.528,0,10.729-1.464,15.212-4.044v54.185h-8.016c-4.238,0-7.678,3.44-7.678,7.678c0,4.238,3.44,7.678,7.678,7.678  h8.016C302.84,443.972,305.303,454.178,299.952,467.122z M288.241,350.285c-69.754,0-65.912,0.295-69.009-0.686  c-5.712-1.751-10.012-6.757-10.729-12.848v-3.644c0.906-7.701,7.491-13.534,15.243-13.534c69.754,0,65.911-0.295,69.009,0.686  C309.388,325.37,305.857,350.285,288.241,350.285z"/>
<g>
</g>
<g>
</g>
<g>
</g>
<g>
</g>
<g>
</g>
<g>
</g>
<g>
</g>
<g>
</g>
<g>
</g>
<g>
</g>
<g>
</g>
<g>
</g>
<g>
</g>
<g>
</g>
<g>
</g>
</svg>
