<?xml version="1.0" encoding="iso-8859-1"?>
<!-- Generator: Adobe Illustrator 19.0.0, SVG Export Plug-In . SVG Version: 6.00 Build 0)  -->
<svg xmlns="http://www.w3.org/2000/svg" xmlns:xlink="http://www.w3.org/1999/xlink" version="1.1" id="Capa_1" x="0px" y="0px" viewBox="0 0 512 512" style="enable-background:new 0 0 512 512;" xml:space="preserve">
<path style="fill:#B3D8F4;" d="M363.094,170.947v310.181H51.616V138.98h279.522C348.789,138.98,363.094,153.296,363.094,170.947z"/>
<path style="fill:#005ECE;" d="M317.754,214.361v189.308c0,10.625-8.618,19.233-19.233,19.233H116.199  c-3.042,0-5.911-0.7-8.466-1.957c-6.377-3.133-10.767-9.693-10.767-17.276V214.361c0-10.625,8.608-19.233,19.233-19.233h182.323  C309.136,195.128,317.754,203.735,317.754,214.361z"/>
<path style="fill:#006DF0;" d="M317.754,214.361v189.308c0,10.625-8.618,19.233-19.233,19.233H146.615  c-3.042,0-5.911-0.7-8.466-1.957c-6.377-3.133-10.767-9.693-10.767-17.276V214.361c0-10.625,8.608-19.233,19.233-19.233h151.907  C309.136,195.128,317.754,203.735,317.754,214.361z"/>
<path style="fill:#5AAAE7;" d="M254.682,422.902H116.199c-3.042,0-5.911-0.7-8.466-1.957l35.972-70.95l0.659-1.298l16.049-31.633  c8.425-16.617,32.16-16.617,40.585,0l16.09,31.734l0.618,1.196L254.682,422.902z"/>
<path style="fill:#3D9AE2;" d="M146.615,422.902h-30.416c-3.042,0-5.911-0.7-8.466-1.957l19.649-38.75v21.474  c0,7.584,4.39,14.143,10.767,17.276C140.704,422.202,143.573,422.902,146.615,422.902z"/>
<path style="fill:#FFDA44;" d="M289.285,280.583c-5.795,13.292-19.051,22.577-34.471,22.577c-20.761,0-37.592-16.831-37.592-37.592  c0-19.009,14.115-34.727,32.435-37.237c-2.007,4.596-3.121,9.681-3.121,15.015c0,20.761,16.831,37.592,37.592,37.592  C285.881,280.938,287.597,280.817,289.285,280.583z"/>
<path style="fill:#C2DFF6;" d="M217.093,348.797c-8.279,11.017-21.469,18.146-36.323,18.146c-14.903,0-28.12-7.169-36.41-18.244  l16.052-31.638c8.425-16.617,32.163-16.617,40.589,0L217.093,348.797z"/>
<g>
	<path style="fill:#96C8EF;" d="M68.323,55.358H34.969c-3.977,0-7.201-3.224-7.201-7.201V14.802c0-3.977,3.224-7.201,7.201-7.201   h33.354c3.977,0,7.201,3.224,7.201,7.201v33.354C75.525,52.134,72.3,55.358,68.323,55.358z"/>
	<path style="fill:#96C8EF;" d="M273.225,55.358h-33.354c-3.977,0-7.201-3.224-7.201-7.201V14.802c0-3.977,3.224-7.201,7.201-7.201   h33.354c3.977,0,7.201,3.224,7.201,7.201v33.354C280.427,52.134,277.203,55.358,273.225,55.358z"/>
	<path style="fill:#96C8EF;" d="M477.033,55.358h-33.354c-3.977,0-7.201-3.224-7.201-7.201V14.802c0-3.977,3.224-7.201,7.201-7.201   h33.354c3.977,0,7.201,3.224,7.201,7.201v33.354C484.234,52.134,481.01,55.358,477.033,55.358z"/>
	<path style="fill:#96C8EF;" d="M68.323,504.396H34.969c-3.977,0-7.201-3.224-7.201-7.201v-33.354c0-3.977,3.224-7.201,7.201-7.201   h33.354c3.977,0,7.201,3.224,7.201,7.201v33.354C75.525,501.172,72.3,504.396,68.323,504.396z"/>
	<path style="fill:#96C8EF;" d="M273.225,504.396h-33.354c-3.977,0-7.201-3.224-7.201-7.201v-33.354   c0-3.977,3.224-7.201,7.201-7.201h33.354c3.977,0,7.201,3.224,7.201,7.201v33.354C280.427,501.172,277.203,504.396,273.225,504.396   z"/>
	<path style="fill:#96C8EF;" d="M477.033,504.396h-33.354c-3.977,0-7.201-3.224-7.201-7.201v-33.354   c0-3.977,3.224-7.201,7.201-7.201h33.354c3.977,0,7.201,3.224,7.201,7.201v33.354C484.234,501.172,481.01,504.396,477.033,504.396z   "/>
	<path style="fill:#96C8EF;" d="M68.323,280.444H34.969c-3.977,0-7.201-3.224-7.201-7.201v-33.354c0-3.977,3.224-7.201,7.201-7.201   h33.354c3.977,0,7.201,3.224,7.201,7.201v33.354C75.525,277.22,72.3,280.444,68.323,280.444z"/>
	<path style="fill:#96C8EF;" d="M477.033,280.444h-33.354c-3.977,0-7.201-3.224-7.201-7.201v-33.354   c0-3.977,3.224-7.201,7.201-7.201h33.354c3.977,0,7.201,3.224,7.201,7.201v33.354C484.234,277.22,481.01,280.444,477.033,280.444z"/>
</g>
<path d="M344.356,169.864c-1.946,0-3.892-0.742-5.377-2.226c-2.97-2.971-2.97-7.784,0-10.754l72.785-72.785  c2.97-2.969,7.784-2.969,10.753,0c2.97,2.971,2.97,7.784,0,10.754l-72.785,72.785C348.248,169.122,346.303,169.864,344.356,169.864z  "/>
<g>
	<path style="fill:#3E3D42;" d="M332.111,150.004l-2.775,23.569c-0.252,2.143,1.564,3.96,3.708,3.708l23.569-2.775l20.928-2.464   c2.771-0.326,3.944-3.706,1.971-5.679l-39.258-39.258c-1.973-1.973-5.352-0.8-5.679,1.971L332.111,150.004z"/>
	<path style="fill:#3E3D42;" d="M424.994,105.839l2.775-23.569c0.252-2.143-1.564-3.96-3.708-3.708l-23.569,2.775l-20.928,2.464   c-2.771,0.326-3.944,3.706-1.971,5.679l39.258,39.258c1.973,1.973,5.352,0.8,5.679-1.971L424.994,105.839z"/>
</g>
<path d="M416.06,116.696c0.001-0.01,0.003-0.022,0.004-0.033C416.066,116.639,416.064,116.656,416.06,116.696z"/>
<path d="M484.23,62.961c4.208,0,7.604-3.407,7.604-7.604V7.604c0-4.208-3.396-7.604-7.604-7.604h-47.753  c-4.197,0-7.604,3.396-7.604,7.604v16.272H288.028V7.604c0-4.208-3.396-7.604-7.604-7.604h-47.753c-4.197,0-7.604,3.396-7.604,7.604  v16.272H83.126V7.604C83.126,3.396,79.72,0,75.523,0H27.77c-4.197,0-7.604,3.396-7.604,7.604v47.753  c0,4.197,3.407,7.604,7.604,7.604h16.242c0,18.155,0,145.823,0,162.127H27.77c-4.197,0-7.604,3.396-7.604,7.604v47.753  c0,4.197,3.407,7.604,7.604,7.604h16.242v160.991H27.77c-4.197,0-7.604,3.396-7.604,7.604v47.753c0,4.197,3.407,7.604,7.604,7.604  h47.753c4.197,0,7.604-3.407,7.604-7.604v-16.283h141.941v16.283c0,4.197,3.407,7.604,7.604,7.604h47.753  c4.208,0,7.604-3.407,7.604-7.604v-16.283h140.846v16.283c0,4.197,3.407,7.604,7.604,7.604h47.753c4.208,0,7.604-3.407,7.604-7.604  v-47.753c0-4.208-3.396-7.604-7.604-7.604h-16.222V288.048h16.222c4.208,0,7.604-3.407,7.604-7.604v-47.753  c0-4.208-3.396-7.604-7.604-7.604h-16.222V62.961H484.23z M240.275,15.208h32.545c0,7.871,0,24.704,0,32.545h-32.545  C240.275,39.881,240.275,23.047,240.275,15.208z M35.374,47.753V15.208h32.545c0,7.842,0,24.678,0,32.545  C60.053,47.753,43.21,47.753,35.374,47.753z M35.374,272.84v-32.545c7.864,0,24.697,0,32.545,0v32.545  C59.67,272.84,43.62,272.84,35.374,272.84z M67.919,496.792H35.374v-32.545c7.868,0,24.681,0,32.545,0  C67.919,476.166,67.919,484.965,67.919,496.792z M272.82,496.792h-32.545c0-7.843,0-24.674,0-32.545h32.545  C272.82,472.111,272.82,488.937,272.82,496.792z M355.49,472.906h-67.462v-16.262c0-4.208-3.396-7.604-7.604-7.604h-47.753  c-4.197,0-7.604,3.396-7.604,7.604v16.262H83.126v-16.262c0-4.208-3.407-7.604-7.604-7.604H59.22V288.048h16.303  c4.197,0,7.604-3.407,7.604-7.604v-47.753c0-4.208-3.407-7.604-7.604-7.604H59.22v-78.503h265.642l-3.569,30.304  c-0.595,5.029,3.798,9.074,8.435,8.435l25.762-3.031L355.49,472.906L355.49,472.906z M337.514,169.102  c-0.019,0.167,0.218-1.843,3.579-30.396c9.392,9.392,21.494,21.494,26.817,26.817C344.97,168.218,353.733,167.186,337.514,169.102z   M428.874,456.643v16.262h-58.175V180.498l14.579-1.713c6.278-0.727,8.988-8.442,4.481-12.927l-19.061-19.061v-0.122l26.675-26.665  c18.498,17.534,18.921,21.2,24.353,21.2c3.939,0,7.106-2.954,7.553-6.712c0.004-0.031,0.016-0.14,0.044-0.369  c0-0.002,0-0.004,0.001-0.006c0.001-0.011,0.003-0.022,0.004-0.033c-0.001,0.006-0.002,0.015-0.003,0.026  c0.003-0.028,0.004-0.038,0.004-0.032c0.231-1.964,1.415-12.018,6.491-55.125c0.577-4.868-3.571-9.022-8.445-8.445l-55.54,6.539  c-6.307,0.75-8.97,8.449-4.491,12.927l19.273,19.274c-0.032,0.032-0.061,0.061-0.089,0.089c0.004-0.004,0.008-0.009,0.013-0.013  c-0.007,0.007-0.014,0.014-0.023,0.023c-0.005,0.005-0.012,0.012-0.018,0.017c-0.021,0.021-0.04,0.04-0.059,0.059  c-0.026,0.026-0.056,0.056-0.088,0.089c0.014-0.014,0.028-0.028,0.043-0.043c-0.053,0.053-0.095,0.095-0.127,0.127  c-0.009,0.009-0.015,0.015-0.022,0.022c-0.002,0.002-0.004,0.004-0.006,0.006l0.001-0.001c-0.007,0.007-0.014,0.014-0.019,0.019  c-0.006,0.006-0.013,0.013-0.019,0.019c0.002-0.002,0.004-0.004,0.006-0.006c-0.015,0.015-0.022,0.022-0.022,0.022  c-1.439,1.44-7.102,7.104-26.294,26.305l-4.613-4.613l-14.518-14.518c-4.533-4.533-12.206-1.746-12.927,4.481l-1.186,10.037H59.22  V62.961h16.303c4.197,0,7.604-3.407,7.604-7.604V39.084h141.941v16.272c0,4.197,3.407,7.604,7.604,7.604h47.753  c4.208,0,7.604-3.407,7.604-7.604V39.084h140.846v16.272c0,4.197,3.407,7.604,7.604,7.604h16.323v162.127h-16.323  c-4.197,0-7.604,3.396-7.604,7.604v47.753c0,4.197,3.407,7.604,7.604,7.604h16.323v160.991h-16.323  C432.28,449.039,428.874,452.436,428.874,456.643z M416.059,116.702c-0.006,0.053-0.018,0.153-0.038,0.317c0,0.001,0,0.002,0,0.003  c-0.004,0.034-0.008,0.071-0.013,0.111c0,0.003-0.001,0.006-0.001,0.008l-7.888-7.888l-10.747-10.747l0,0l-8.182-8.182  c0.095-0.011,0.173-0.02,0.238-0.028c-0.004,0.001-0.009,0.001-0.013,0.002c1.118-0.132,6.905-0.813,30.17-3.553  c-2.576,21.878-3.333,28.299-3.522,29.917c-0.001,0.008-0.002,0.018-0.004,0.034v-0.001  C416.059,116.698,416.059,116.7,416.059,116.702z M416.05,116.784c-0.001,0.009-0.002,0.018-0.003,0.026  C416.047,116.802,416.049,116.793,416.05,116.784z M416.041,116.86c-0.006,0.055-0.012,0.099-0.016,0.137  C416.03,116.953,416.035,116.905,416.041,116.86z M416.01,117.126c0,0.002,0,0.004-0.001,0.005  C416.009,117.13,416.009,117.128,416.01,117.126z M416.008,117.144C416.007,117.152,416.007,117.152,416.008,117.144  L416.008,117.144z M389.203,90.324c0.018-0.002,0.049-0.006,0.097-0.011C389.259,90.317,389.224,90.321,389.203,90.324z   M389.307,90.312c0.015-0.002,0.034-0.004,0.053-0.006C389.341,90.308,389.323,90.31,389.307,90.312z M476.626,464.247v32.545  h-32.545c0-7.843,0-24.674,0-32.545C452.328,464.247,468.386,464.247,476.626,464.247z M476.626,240.295v32.545  c-7.88,0-24.702,0-32.545,0v-32.545C451.953,240.295,468.814,240.295,476.626,240.295z M444.081,47.753c0-8.247,0-24.288,0-32.545  h32.545v32.545C468.372,47.753,452.322,47.753,444.081,47.753z"/>
<path d="M389.664,90.269c0.001,0,0.003,0,0.003,0C389.666,90.269,389.665,90.269,389.664,90.269z"/>
<path d="M389.667,90.269C389.691,90.266,389.688,90.266,389.667,90.269L389.667,90.269z"/>
<path d="M429.28,134.491c0,0.003-0.001,0.005-0.001,0.008C429.277,134.516,429.278,134.51,429.28,134.491z"/>
<path d="M429.29,134.402c-0.005,0.039-0.008,0.071-0.01,0.089C429.284,134.458,429.287,134.43,429.29,134.402z"/>
<path d="M389.456,90.293c0.114-0.013,0.179-0.021,0.209-0.024C389.628,90.273,389.544,90.283,389.456,90.293z"/>
<path d="M389.429,90.297c0.009-0.001,0.017-0.002,0.026-0.003C389.446,90.294,389.438,90.296,389.429,90.297z"/>
<path d="M429.299,134.331c-0.003,0.022-0.005,0.046-0.008,0.071C429.293,134.379,429.296,134.355,429.299,134.331z"/>
<path d="M429.301,134.308c-0.001,0.007-0.002,0.014-0.003,0.021C429.299,134.322,429.3,134.315,429.301,134.308z"/>
<path d="M386.54,109.33c0.006-0.006,0.014-0.014,0.02-0.02C386.553,109.317,386.547,109.323,386.54,109.33z"/>
<path d="M429.324,134.116c0,0.003-0.001,0.004-0.001,0.008c0,0.002,0,0.004-0.001,0.006c0,0,0,0.001,0,0.002  C429.323,134.126,429.324,134.121,429.324,134.116z"/>
<path d="M429.313,134.213c-0.003,0.026-0.007,0.059-0.011,0.096C429.305,134.276,429.309,134.243,429.313,134.213z"/>
<path d="M429.323,134.132c-0.003,0.022-0.006,0.051-0.009,0.081C429.317,134.179,429.32,134.151,429.323,134.132z"/>
<path d="M386.185,109.685c0.005-0.005,0.01-0.01,0.016-0.016C386.191,109.68,386.185,109.685,386.185,109.685z"/>
<path d="M298.521,187.524h-91.258c-4.197,0-7.604,3.396-7.604,7.604c0,4.197,3.407,7.604,7.604,7.604h91.258  c6.408,0,11.629,5.211,11.629,11.629v109.68c0,4.197,3.396,7.604,7.604,7.604c4.197,0,7.604-3.407,7.604-7.604v-109.68  C325.358,199.558,313.314,187.524,298.521,187.524z"/>
<path d="M96.966,362.243c4.197,0,7.604-3.407,7.604-7.604V214.361c0-6.418,5.211-11.629,11.629-11.629h60.649  c4.197,0,7.604-3.407,7.604-7.604c0-4.208-3.407-7.604-7.604-7.604h-60.649c-14.802,0-26.837,12.035-26.837,26.837v140.278  C89.362,358.836,92.768,362.243,96.966,362.243z"/>
<path d="M317.754,346.852c-4.208,0-7.604,3.407-7.604,7.604v49.213c0,6.418-5.221,11.629-11.629,11.629h-39.165l-51.575-101.68  c-2.606-5.12-6.499-9.277-11.173-12.156c-4.684-2.879-10.149-4.471-15.897-4.471c-11.507,0-21.879,6.377-27.08,16.627  l-16.049,31.643c-0.02,0.041-0.041,0.081-0.061,0.122l-31.947,63.012c-0.649-1.44-1.004-3.042-1.004-4.725v-18.614  c0-4.197-3.407-7.604-7.604-7.604c-4.197,0-7.604,3.407-7.604,7.604v18.614c0,14.814,12.051,26.837,26.837,26.837h139.376h42.947  c14.792,0,26.837-12.035,26.837-26.837v-49.213C325.358,350.259,321.952,346.852,317.754,346.852z M167.196,320.502  c2.636-5.201,7.685-8.304,13.515-8.304c5.82,0,10.879,3.102,13.505,8.304l13.819,27.242c-7.097,7.421-16.81,11.599-27.263,11.599  c-10.493,0-20.227-4.208-27.344-11.68L167.196,320.502z M119.129,415.298l27.121-53.491c9.51,8.202,21.605,12.744,34.522,12.744  c12.876,0,24.941-4.522,34.431-12.673l27.09,53.42H119.129z"/>
<path d="M248.619,220.799c-22.234,3.042-39.003,22.295-39.003,44.772c0,24.921,20.277,45.188,45.198,45.188  c17.986,0,34.258-10.646,41.437-27.141c1.105-2.514,0.76-5.434-0.902-7.624c-1.663-2.2-4.38-3.325-7.107-2.94  c-1.359,0.182-2.737,0.284-4.116,0.284c-16.536,0-29.98-13.454-29.98-29.99c0-4.167,0.831-8.202,2.484-11.974  C258.979,225.956,254.527,219.989,248.619,220.799z M275.121,287.643c-5.434,4.988-12.633,7.908-20.308,7.908  c-16.536,0-29.99-13.444-29.99-29.98c0-10.625,5.647-20.166,14.224-25.499C237.349,262.788,253.056,283.162,275.121,287.643z"/>
<g>
</g>
<g>
</g>
<g>
</g>
<g>
</g>
<g>
</g>
<g>
</g>
<g>
</g>
<g>
</g>
<g>
</g>
<g>
</g>
<g>
</g>
<g>
</g>
<g>
</g>
<g>
</g>
<g>
</g>
</svg>
