<?xml version="1.0" encoding="iso-8859-1"?>
<!-- Generator: Adobe Illustrator 19.0.0, SVG Export Plug-In . SVG Version: 6.00 Build 0)  -->
<svg xmlns="http://www.w3.org/2000/svg" xmlns:xlink="http://www.w3.org/1999/xlink" version="1.1" id="Capa_1" x="0px" y="0px" viewBox="0 0 512 512" style="enable-background:new 0 0 512 512;" xml:space="preserve">
<path style="fill:#EE8700;" d="M272.588,265.054v222.74c0,9.122-7.466,16.588-16.588,16.588c-9.122,0-16.588-7.466-16.588-16.588  v-222.74H272.588z"/>
<rect x="239.409" y="265.058" style="fill:#AA6100;" width="33.175" height="54.852"/>
<path style="fill:#FFCD00;" d="M326.617,228.861c-3.301,3.22-4.815,7.852-4.033,12.403l9.264,53.979l0.122,0.721  c1.96,11.448-10.046,20.173-20.326,14.769l-49.123-25.831c-1.402-0.742-2.895-1.219-4.419-1.442  c-2.915-0.447-5.942,0.03-8.624,1.442l-30.026,15.785l-19.097,10.046c-10.28,5.404-22.286-3.322-20.326-14.769l9.386-54.7  c0.782-4.551-0.731-9.183-4.033-12.403l-39.747-38.742c-8.309-8.106-3.718-22.215,7.771-23.891l16.598-2.407l38.325-5.566  c4.561-0.67,8.502-3.535,10.544-7.669l0.711-1.453l23.861-48.321c4.642-9.416,17.248-10.31,23.404-2.682  c0.65,0.802,1.219,1.696,1.706,2.682l24.572,49.773c2.042,4.134,5.983,6.999,10.544,7.669l54.923,7.974  c11.488,1.676,16.08,15.785,7.771,23.891L326.617,228.861z"/>
<path style="fill:#EEBF00;" d="M219.452,300.687l-19.097,10.046c-10.28,5.404-22.286-3.322-20.326-14.769l9.386-54.7  c0.782-4.551-0.731-9.183-4.033-12.403l-39.747-38.742c-8.309-8.106-3.718-22.215,7.771-23.891l16.598-2.407  c-1.747,4.835-0.884,10.615,3.403,14.79l39.747,38.742c3.301,3.22,4.805,7.852,4.022,12.393l-9.376,54.71  C206.379,292.703,212.23,299.538,219.452,300.687z"/>
<path d="M257.006,54.452c4.207,0,7.618-3.41,7.618-7.618V7.618c0-4.208-3.411-7.618-7.618-7.618c-4.207,0-7.618,3.41-7.618,7.618  v39.215C249.387,51.042,252.797,54.452,257.006,54.452z"/>
<path d="M318.108,67.009c2.989,0,5.825-1.771,7.041-4.705l15.007-36.23c1.611-3.887-0.235-8.344-4.123-9.954  c-3.884-1.613-8.344,0.234-9.954,4.123l-15.007,36.23C308.986,61.51,312.721,67.009,318.108,67.009z"/>
<path d="M369.761,101.99c5.577,0,5.161-3.088,33.117-29.96c2.975-2.976,2.975-7.799,0-10.774c-2.976-2.974-7.799-2.974-10.774,0  l-27.73,27.73c-2.975,2.976-2.975,7.799,0,10.774C365.862,101.247,367.812,101.99,369.761,101.99z"/>
<path d="M404.096,154.079c2.69,0,0.842,0.053,39.142-15.589c3.887-1.61,5.734-6.066,4.123-9.954  c-1.61-3.887-6.066-5.734-9.954-4.123l-36.23,15.006C393.506,142.596,395.792,154.079,404.096,154.079z"/>
<path d="M455.093,200.099h-39.215c-4.208,0-7.618,3.41-7.618,7.618c0,4.208,3.41,7.618,7.618,7.618h39.215  c4.208,0,7.618-3.41,7.618-7.618C462.711,203.509,459.3,200.099,455.093,200.099z"/>
<path d="M442.468,276.792l-36.23-15.006c-3.885-1.612-8.343,0.236-9.954,4.123s0.235,8.344,4.123,9.954l36.23,15.006  c3.878,1.61,8.341-0.231,9.954-4.123C448.202,282.858,446.355,278.402,442.468,276.792z"/>
<path d="M373.727,315.086c-2.976-2.974-7.799-2.974-10.774,0c-2.975,2.976-2.975,7.799,0,10.774  c27.884,26.804,27.528,29.959,33.116,29.959c6.729,0,10.199-8.192,5.388-13.006L373.727,315.086z"/>
<path d="M323.291,351.889c-1.61-3.887-6.065-5.734-9.954-4.123c-3.887,1.61-5.734,6.066-4.123,9.954l15.007,36.231  c1.605,3.875,6.054,5.738,9.954,4.123c3.887-1.61,5.734-6.066,4.123-9.954L323.291,351.889z"/>
<path d="M196.803,346.996c-3.887-1.614-8.344,0.236-9.954,4.123l-15.007,36.231c-2.085,5.036,1.649,10.536,7.035,10.536  c2.989,0,5.827-1.772,7.041-4.705l15.007-36.231C202.536,353.062,200.691,348.606,196.803,346.996z"/>
<path d="M136.851,313.664l-27.73,27.73c-2.975,2.976-2.975,7.799,0,10.774c2.976,2.975,7.799,2.974,10.773,0l27.73-27.73  c2.975-2.976,2.975-7.799,0-10.774C144.65,310.69,139.826,310.69,136.851,313.664z"/>
<path d="M114.946,264.05c-1.61-3.887-6.066-5.731-9.954-4.123l-36.23,15.006c-3.887,1.61-5.733,6.066-4.123,9.954  c1.605,3.875,6.054,5.738,9.954,4.123l36.23-15.006C114.71,272.394,116.556,267.937,114.946,264.05z"/>
<path d="M103.741,205.707c0-4.208-3.411-7.618-7.618-7.618H56.907c-4.207,0-7.618,3.41-7.618,7.618c0,4.208,3.411,7.618,7.618,7.618  h39.215C100.33,213.325,103.741,209.914,103.741,205.707z"/>
<path d="M69.531,136.632l36.23,15.006c3.886,1.613,8.345-0.238,9.954-4.123c1.61-3.887-0.236-8.344-4.123-9.954l-36.23-15.006  c-3.888-1.615-8.344,0.236-9.954,4.123C63.798,130.565,65.644,135.022,69.531,136.632z"/>
<path d="M143.661,100.568c6.727,0,10.2-8.191,5.387-13.006l-27.73-27.73c-2.975-2.974-7.799-2.974-10.773,0  c-2.975,2.976-2.975,7.799,0,10.774C138.433,97.417,138.074,100.568,143.661,100.568z"/>
<path d="M188.708,61.535c1.605,3.875,6.054,5.738,9.954,4.123c3.887-1.61,5.733-6.066,4.123-9.954l-15.007-36.231  c-1.609-3.887-6.067-5.732-9.954-4.123c-3.887,1.61-5.733,6.066-4.123,9.954L188.708,61.535z"/>
<path d="M334.845,267.664c-0.711-4.144-4.652-6.938-8.797-6.217c-4.144,0.701-6.938,4.642-6.227,8.786l4.642,27.02  c0.061,0.396,0.102,0.792,0.102,1.178c0,4.494-4.959,7.881-9.376,5.556c-0.103-0.054-49.406-26.007-50.22-26.359  c-6.304-2.855-13.736-2.349-19.036,0.528c-2.977,1.565-46.265,24.328-49.123,25.831c-4.421,2.327-9.376-1.07-9.376-5.556  c0-1.018,0.168-1.38,1.473-9.142c0.711-4.144-2.072-8.086-6.217-8.797c-4.155-0.711-8.086,2.082-8.797,6.227  c-1.147,7.078-1.696,8.73-1.696,11.712c0,16.097,17.218,26.635,31.702,19.046l27.893-14.668v28.198c0,4.205,3.413,7.618,7.618,7.618  c4.205,0,7.618-3.413,7.618-7.618v-36.202c4.112-1.676,7.511-5.499,11.946-3.159l5.993,3.149v132.163  c0,4.205,3.413,7.618,7.618,7.618c4.205,0,7.618-3.413,7.618-7.618V302.81c26.161,13.043,29.226,17.177,37.96,17.177  c13.186,0,23.633-11.82,21.311-25.303L334.845,267.664z"/>
<path d="M253.958,100.943c2.72-0.892,6.18,0.018,7.771,3.24l24.562,49.773c3.149,6.389,9.244,10.808,16.283,11.834l54.933,7.984  c5.293,0.758,7.304,7.216,3.535,10.889l-39.747,38.742c-4.155,4.053-6.531,9.691-6.531,15.491c0,4.205,3.413,7.618,7.618,7.618  s7.618-3.413,7.618-7.618c0-4.83,1.254-2.969,41.677-43.323c12.742-12.405,5.873-34.281-11.986-36.883l-54.923-7.984  c-2.082-0.295-3.88-1.605-4.815-3.484l-24.562-49.783c-8.735-17.712-35.117-14.006-31.022-1.402  C245.659,100.04,249.946,102.234,253.958,100.943z"/>
<path d="M140.323,195.574c41.077,41.007,42.526,38.916,41.586,44.4l-2.865,16.71c-0.796,4.641,2.774,8.908,7.517,8.908  c3.636,0,6.857-2.621,7.496-6.338l2.865-16.71c1.218-6.846-1.093-14.14-6.217-19.137l-39.747-38.742  c-3.768-3.672-1.762-10.13,3.535-10.889l54.933-7.984c7.039-1.026,13.134-5.445,16.283-11.834l16.009-32.434  c1.859-3.779,0.315-8.34-3.464-10.209c-3.769-1.859-8.34-0.315-10.198,3.464l-16.009,32.444c-0.935,1.879-2.732,3.19-4.815,3.484  l-54.923,7.984C134.322,161.311,127.651,183.238,140.323,195.574z"/>
<path d="M272.588,449.814c-4.205,0-7.618,3.403-7.618,7.618v30.362c0,4.947-4.022,8.969-8.969,8.969s-8.969-4.022-8.969-8.969  V361.482c0-4.215-3.413-7.618-7.618-7.618c-4.205,0-7.618,3.403-7.618,7.618v126.312C231.794,501.141,242.653,512,256,512  c13.347,0,24.206-10.859,24.206-24.206v-30.362C280.206,453.217,276.793,449.814,272.588,449.814z"/>
<g>
</g>
<g>
</g>
<g>
</g>
<g>
</g>
<g>
</g>
<g>
</g>
<g>
</g>
<g>
</g>
<g>
</g>
<g>
</g>
<g>
</g>
<g>
</g>
<g>
</g>
<g>
</g>
<g>
</g>
</svg>
