<?xml version="1.0" encoding="iso-8859-1"?>
<!-- Generator: Adobe Illustrator 19.0.0, SVG Export Plug-In . SVG Version: 6.00 Build 0)  -->
<svg xmlns="http://www.w3.org/2000/svg" xmlns:xlink="http://www.w3.org/1999/xlink" version="1.1" id="Capa_1" x="0px" y="0px" viewBox="0 0 512 512" style="enable-background:new 0 0 512 512;" xml:space="preserve">
<path style="fill:#D9CCBC;" d="M423.522,30.623v193.119H92.874V30.623c0-12.651,10.357-23.008,23.008-23.008h284.633  C413.166,7.615,423.522,17.972,423.522,30.623z"/>
<polygon style="fill:#B39A7C;" points="437.28,286.968 74.679,286.968 92.874,223.742 423.299,223.742 "/>
<path style="fill:#A78966;" d="M437.321,286.968v69.541c0,6.244-5.056,11.301-11.291,11.301H85.97  c-6.234,0-11.291-5.056-11.291-11.301v-69.541H437.321z"/>
<path style="fill:#EBE5DD;" d="M423.522,30.623v193.119H121.304V30.623c0-12.651,10.357-23.008,23.008-23.008h256.203  C413.166,7.615,423.522,17.972,423.522,30.623z"/>
<polygon style="fill:#C0AB91;" points="437.28,286.968 103.109,286.968 121.304,223.742 423.299,223.742 "/>
<path style="fill:#B39A7C;" d="M437.321,286.968v69.541c0,6.244-5.056,11.301-11.291,11.301H114.399  c-6.234,0-11.291-5.056-11.291-11.301v-69.541H437.321z"/>
<path style="fill:#FFCD00;" d="M393.123,37.761v24.064c0,2.477-2.031,4.518-4.518,4.518h-28.907c-2.477,0-4.518-2.041-4.518-4.518  V37.761c0-2.488,2.041-4.518,4.518-4.518h28.907C391.092,33.243,393.123,35.273,393.123,37.761z"/>
<path style="fill:#FFDE55;" d="M393.123,37.761v15.383h-16.164c-2.477,0-4.518-2.041-4.518-4.518V33.243h16.164  C391.092,33.243,393.123,35.273,393.123,37.761z"/>
<path style="fill:#FF0C38;" d="M155.897,184.347c-0.934,5.605-4.864,10.519-10.631,12.448c-8.316,2.782-17.322-1.706-20.094-10.032  c-2.782-8.316,1.706-17.312,10.021-20.094c1.188-0.396,2.396-0.65,3.594-0.751c7.179-0.67,14.124,3.645,16.51,10.783  C156.151,179.25,156.323,181.859,155.897,184.347z"/>
<path style="fill:#3FA45A;" d="M387.437,184.337c-0.244,1.523-0.721,3.036-1.452,4.488c-3.919,7.849-13.453,11.037-21.302,7.118  s-11.037-13.453-7.128-21.302c2.549-5.107,7.473-8.234,12.763-8.712c2.843-0.274,5.798,0.223,8.539,1.594  C385.254,170.711,388.554,177.635,387.437,184.337z"/>
<path style="fill:#FF3F62;" d="M155.897,184.347c-7.179,0.67-14.134-3.645-16.51-10.783c-0.853-2.549-1.025-5.168-0.599-7.646  c7.179-0.67,14.124,3.645,16.51,10.783C156.151,179.25,156.323,181.859,155.897,184.347z"/>
<path style="fill:#64C37D;" d="M387.437,184.337c-2.843,0.274-5.798-0.223-8.539-1.594c-6.397-3.188-9.697-10.113-8.58-16.814  c2.843-0.274,5.798,0.223,8.539,1.594C385.254,170.711,388.554,177.635,387.437,184.337z"/>
<path style="fill:#C2DFF6;" d="M349.656,504.386H162.344c-6.238,0-11.295-5.056-11.295-11.295V326.918h209.901v166.173  C360.951,499.328,355.893,504.386,349.656,504.386z"/>
<path style="fill:#5AAAE7;" d="M319.241,472.831H192.759c-4.547,0-8.232-3.686-8.232-8.232v-97.893c0-4.547,3.686-8.232,8.232-8.232  h126.482c4.547,0,8.232,3.686,8.232,8.232v97.893C327.473,469.145,323.788,472.831,319.241,472.831z"/>
<rect x="92.874" y="83.431" style="fill:#B39A7C;" width="330.648" height="59.824"/>
<rect x="121.304" y="83.431" style="fill:#C0AB91;" width="302.219" height="59.824"/>
<circle style="fill:#957856;" cx="256" cy="115.08" r="77.908"/>
<path style="fill:#78B9EB;" d="M292.197,145.053c-0.112,0.142-0.234,0.284-0.355,0.426c-16.794,19.789-46.452,22.226-66.241,5.432  c-19.799-16.784-22.226-46.442-5.442-66.241c6.265-7.382,14.327-12.357,22.998-14.804c14.56-4.122,30.836-1.158,43.244,9.372  C306.057,95.91,308.585,125.264,292.197,145.053z"/>
<path style="fill:#96C8EF;" d="M292.197,145.053c-14.56,4.122-30.836,1.158-43.244-9.372c-19.657-16.662-22.185-46.016-5.798-65.815  c14.56-4.122,30.836-1.158,43.244,9.372C306.057,95.91,308.585,125.264,292.197,145.053z"/>
<circle style="fill:#D1E7F8;" cx="264.275" cy="107.454" r="14.871"/>
<path d="M359.698,69.643h28.907c6.691,0,12.133-5.442,12.133-12.133V33.446c0-6.691-5.442-12.133-12.133-12.133h-28.907  c-6.681,0-12.123,5.442-12.123,12.133v24.064C347.574,64.201,353.017,69.643,359.698,69.643z M362.805,36.542h22.703v17.87h-22.703  V36.542z"/>
<path d="M127.302,169.75c1.538,3.913,5.96,5.839,9.873,4.299c5.576-2.184,11.327,1.972,11.327,7.685  c0,7.596-9.443,11.165-14.474,5.469c-2.785-3.152-7.597-3.45-10.748-0.664c-3.152,2.784-3.449,7.597-0.665,10.748  c16.75,18.958,48.063,1.401,39.901-23.003C154.855,151.358,121.83,155.832,127.302,169.75z"/>
<path d="M372.438,199.354c1.682-3.854-0.079-8.343-3.933-10.026c-4.517-1.976-6.197-7.152-4.132-11.287  c4.012-8.041,16.18-4.754,15.653,4.21c-0.62,10.137,15.245,11.521,15.245-0.506c0-8.973-4.985-17.032-13.009-21.038  c-15.553-7.759-33.993,3.516-33.993,21.013C348.269,198.871,367.447,210.785,372.438,199.354z"/>
<path d="M253.137,126.99c1.188,0.68,2.488,1.005,3.767,1.005c7.791,0,10.542-10.383,3.777-14.235  c-6.476-3.688-3.782-13.565,3.584-13.565c4.633,0,8.206,4.327,7.057,9.006c-1.015,4.082,1.472,8.214,5.554,9.219  c4.082,1.015,8.214-1.472,9.23-5.554c5.421-22.064-21.228-36.843-37.213-21.82C237.866,101.382,239.989,119.49,253.137,126.99z"/>
<path d="M444.839,285.75c-0.065-0.396-0.161-0.782-0.288-1.158l-13.423-60.687c0.01-0.051,0.01-0.102,0.01-0.152  c0-33.329,0-143.062,0-193.13C431.138,13.738,417.4,0,400.515,0H115.882C98.997,0,85.259,13.738,85.259,30.623  c0,67.041,0,125.659,0,192.043l-17.85,62.038l-0.051,0.162c-0.051,0.173-0.091,0.345-0.132,0.518c-0.01,0.03-0.01,0.071-0.02,0.112  c-0.041,0.203-0.071,0.406-0.091,0.609c-0.01,0.061-0.01,0.122-0.01,0.173c-0.03,0.234-0.041,0.457-0.041,0.69v80.842  c0,4.204,3.401,7.615,7.615,7.615h68.759v128.96c0,4.204,3.401,7.615,7.615,7.615h209.893c4.214,0,7.615-3.412,7.615-7.615v-128.96  h68.759c4.214,0,7.615-3.412,7.615-7.615v-80.842C444.936,286.552,444.904,286.146,444.839,285.75z M100.489,30.623  c0-8.488,6.904-15.393,15.393-15.393h284.633c8.488,0,15.393,6.904,15.393,15.393v45.193h-83.898  C317.418,47.468,288.39,29.557,256,29.557c-33.009,0-61.713,18.804-75.968,46.259h-79.542V30.623z M333.908,107.465  c-4.214,0-7.615,3.412-7.615,7.615c0,38.68-31.463,70.282-70.293,70.282c-55.85,0-89.899-62.776-58.281-109.546  C210.37,57.113,231.774,44.787,256,44.787c23.851,0,45.477,11.809,58.352,31.029c3.432,5.121,5.859,10.525,5.859,10.631  c0.482,1.206,1.241,3.206,2.021,4.183c0,0.01,0.01,0.01,0.01,0.02c0.01,0.01,0.02,0.02,0.02,0.03  c3.415,4.175,8.929,3.712,11.819,0.366h81.827v44.594h-76.892c1.645-6.59,2.508-13.474,2.508-20.561  C341.523,110.876,338.111,107.465,333.908,107.465z M100.489,91.046h73.43c-4.294,14.593-4.534,30.175-0.934,44.594h-72.496  C100.489,135.64,100.489,91.046,100.489,91.046z M100.489,150.871h77.847c13.575,29.323,43.284,49.722,77.664,49.722  s64.089-20.398,77.664-49.722h82.243v65.267l-164.74-0.01l-150.678,0.01V150.871z M98.601,231.368h318.586l10.61,47.985H84.792  L98.601,231.368z M353.331,496.77H158.669c0-18.971,0-141.007,0-162.232h194.663C353.331,355.769,353.331,477.807,353.331,496.77z   M429.706,360.195h-61.144v-25.696h31.25c4.206,0,7.615-3.409,7.615-7.615s-3.41-7.615-7.615-7.615H112.188  c-4.206,0-7.615,3.409-7.615,7.615s3.41,7.615,7.615,7.615h31.25v25.696H82.294v-65.612h347.412L429.706,360.195L429.706,360.195z"/>
<path d="M280.663,66.333c-6.188-3.127-13.016,3.03-10.57,9.483c0,0.01,0.01,0.01,0.01,0.02c0.111,0.277,0.233,0.603,0.589,1.218  v0.01c0.756,1.197,1.79,2.205,3.087,2.853c22.84,11.589,28.623,41.373,12.255,60.637c-17.506,20.612-49.836,17.716-63.622-4.914  c-14.509-23.645-0.547-54.391,26.541-59.317c10.015-1.726,7.144-16.763-2.711-14.976c-44.748,8.078-61.105,65.249-25.566,95.372  c35.372,30.047,89.94,4.715,89.94-41.619C310.616,94.36,298.937,75.616,280.663,66.333z"/>
<path d="M184.53,480.443H327.47c4.214,0,7.615-3.401,7.615-7.615V358.469c0-4.204-3.401-7.615-7.615-7.615H184.53  c-4.214,0-7.615,3.412-7.615,7.615v114.359C176.914,477.041,180.316,480.443,184.53,480.443z M192.145,366.084h127.711v99.129  H192.145V366.084z"/>
<g>
</g>
<g>
</g>
<g>
</g>
<g>
</g>
<g>
</g>
<g>
</g>
<g>
</g>
<g>
</g>
<g>
</g>
<g>
</g>
<g>
</g>
<g>
</g>
<g>
</g>
<g>
</g>
<g>
</g>
</svg>
