<?xml version="1.0" encoding="iso-8859-1"?>
<!-- Generator: Adobe Illustrator 19.0.0, SVG Export Plug-In . SVG Version: 6.00 Build 0)  -->
<svg xmlns="http://www.w3.org/2000/svg" xmlns:xlink="http://www.w3.org/1999/xlink" version="1.1" id="Capa_1" x="0px" y="0px" viewBox="0 0 512 512" style="enable-background:new 0 0 512 512;" xml:space="preserve">
<path style="fill:#1A6FB0;" d="M504.398,96.811v318.379c0,14.276-11.579,25.856-25.856,25.856H33.462  c-14.276,0-25.856-11.579-25.856-25.856V96.811c0-14.276,11.579-25.856,25.856-25.856h445.082  C492.82,70.955,504.398,82.534,504.398,96.811z"/>
<path style="fill:#1E81CE;" d="M504.398,96.811v318.379c0,14.276-11.579,25.856-25.856,25.856H61.853  c-14.276,0-25.856-11.579-25.856-25.856V96.811c0-14.276,11.579-25.856,25.856-25.856h416.691  C492.82,70.955,504.398,82.534,504.398,96.811z"/>
<path style="fill:#00479B;" d="M504.398,96.811v38.023H7.607V96.811c0-14.276,11.579-25.856,25.856-25.856h445.082  C492.82,70.955,504.398,82.534,504.398,96.811z"/>
<path style="fill:#1E81CE;" d="M504.398,96.811v38.023H35.997V96.811c0-14.276,11.579-25.856,25.856-25.856h416.691  C492.82,70.955,504.398,82.534,504.398,96.811z"/>
<g>
	<path style="fill:#004FAC;" d="M504.398,96.811v38.023H35.997V96.811c0-14.276,11.579-25.856,25.856-25.856h416.691   C492.82,70.955,504.398,82.534,504.398,96.811z"/>
	<path style="fill:#004FAC;" d="M305.747,222.661V383.97c0,9.125-7.392,16.517-16.517,16.517H58.04   c-4.36,0-8.324-1.693-11.275-4.461c-3.224-3.011-5.232-7.29-5.232-12.056V222.661c0-9.115,7.392-16.517,16.507-16.517h231.19   C298.356,206.144,305.747,213.546,305.747,222.661z"/>
</g>
<path style="fill:#5AAAE7;" d="M198.563,400.487H58.04c-4.36,0-8.324-1.693-11.275-4.461l36.249-71.483l0.679-1.349l16.71-32.933  c8.771-17.298,33.48-17.298,42.251,0l16.75,33.034l0.639,1.247L198.563,400.487z"/>
<path style="fill:#FFDA44;" d="M272.895,290.34c-6.545,15.011-21.516,25.498-38.93,25.498c-23.446,0-42.455-19.008-42.455-42.455  c0-21.468,15.941-39.219,36.632-42.054c-2.267,5.19-3.524,10.934-3.524,16.958c0,23.446,19.008,42.455,42.455,42.455  C269.049,290.741,270.988,290.605,272.895,290.34z"/>
<path style="fill:#C2DFF6;" d="M159.404,323.296c-8.619,11.468-22.347,18.89-37.81,18.89c-15.513,0-29.273-7.463-37.901-18.991  l16.71-32.933c8.771-17.298,33.48-17.298,42.251,0L159.404,323.296z"/>
<path d="M478.54,63.35H167.199c-4.2,0-7.605,3.404-7.605,7.605s3.405,7.605,7.605,7.605H478.54c10.063,0,18.251,8.188,18.251,18.251  v30.418H15.209V96.811c0-10.063,8.188-18.251,18.251-18.251h103.32c4.2,0,7.605-3.404,7.605-7.605s-3.405-7.605-7.605-7.605H33.46  C15.01,63.35,0,78.361,0,96.811v318.379c0,18.45,15.01,33.46,33.46,33.46h445.08c18.45,0,33.46-15.01,33.46-33.46V96.811  C512,78.361,496.99,63.35,478.54,63.35z M496.791,415.189c0,10.063-8.188,18.251-18.251,18.251H33.46  c-10.063,0-18.251-8.188-18.251-18.251V142.438h481.582V415.189z"/>
<path d="M42.121,174.884h40.558c4.2,0,7.605-3.404,7.605-7.605c0-4.201-3.405-7.605-7.605-7.605H42.121  c-4.2,0-7.605,3.404-7.605,7.605C34.517,171.481,37.921,174.884,42.121,174.884z"/>
<path d="M118.167,174.884h40.558c4.2,0,7.605-3.404,7.605-7.605c0-4.201-3.405-7.605-7.605-7.605h-40.558  c-4.2,0-7.605,3.404-7.605,7.605C110.563,171.481,113.966,174.884,118.167,174.884z"/>
<path d="M194.213,174.884h40.558c4.2,0,7.605-3.404,7.605-7.605c0-4.201-3.405-7.605-7.605-7.605h-40.558  c-4.2,0-7.605,3.404-7.605,7.605C186.609,171.481,190.012,174.884,194.213,174.884z"/>
<path d="M270.259,174.884h40.558c4.2,0,7.605-3.404,7.605-7.605c0-4.201-3.405-7.605-7.605-7.605h-40.558  c-4.2,0-7.605,3.404-7.605,7.605C262.655,171.481,266.058,174.884,270.259,174.884z"/>
<path d="M346.305,174.884h40.558c4.2,0,7.605-3.404,7.605-7.605c0-4.201-3.405-7.605-7.605-7.605h-40.558  c-4.2,0-7.605,3.404-7.605,7.605C338.7,171.481,342.104,174.884,346.305,174.884z"/>
<path d="M422.351,174.884h40.558c4.2,0,7.605-3.404,7.605-7.605c0-4.201-3.405-7.605-7.605-7.605h-40.558  c-4.2,0-7.605,3.404-7.605,7.605C414.746,171.481,418.15,174.884,422.351,174.884z"/>
<path d="M41.276,104.98c0,4.201,3.405,7.605,7.605,7.605h358.26c4.2,0,7.605-3.404,7.605-7.605s-3.405-7.605-7.605-7.605H48.88  C44.681,97.375,41.276,100.779,41.276,104.98z"/>
<path d="M483.134,89.233c-2.784-3.145-7.59-3.437-10.735-0.651l-6.787,6.012l-6.787-6.012c-3.143-2.785-7.95-2.492-10.735,0.651  c-2.785,3.144-2.493,7.95,0.651,10.735l5.402,4.785l-5.402,4.785c-5.224,4.627-1.929,13.297,5.045,13.297  c4.556,0,6.198-3.48,11.827-7.924c5.649,4.46,7.277,7.924,11.827,7.924c6.977,0,10.265-8.674,5.045-13.297l-5.402-4.785l5.402-4.785  C485.628,97.184,485.919,92.378,483.134,89.233z"/>
<path d="M41.532,318.859c4.2,0,7.605-3.404,7.605-7.605v-88.592c0-4.915,3.994-8.913,8.902-8.913h113.599  c4.2,0,7.605-3.404,7.605-7.605c0-4.201-3.405-7.605-7.605-7.605H58.04c-13.295,0-24.112,10.821-24.112,24.122v88.592  C33.928,315.455,37.332,318.859,41.532,318.859z"/>
<path d="M41.562,401.571c4.482,4.204,10.334,6.521,16.479,6.521h140.523h19.376c4.2,0,7.605-3.404,7.605-7.605  c0-4.201-3.405-7.605-7.605-7.605h-14.706l-53.796-106.061c-5.361-10.571-16.054-17.139-27.908-17.139s-22.548,6.568-27.907,17.137  l-16.71,32.932c-0.016,0.032-0.026,0.067-0.042,0.099L49.14,374.534v-32.862c0-4.201-3.405-7.605-7.605-7.605  s-7.605,3.404-7.605,7.605v42.298C33.928,390.626,36.715,397.045,41.562,401.571z M107.185,293.701  c2.796-5.515,8.158-8.808,14.343-8.808c6.185,0,11.547,3.292,14.343,8.808l14.478,28.553c-7.463,7.885-17.714,12.328-28.754,12.328  c-11.084,0-21.369-4.473-28.846-12.413L107.185,293.701z M85.568,336.326c9.887,8.648,22.52,13.464,36.026,13.464  c13.463,0,26.064-4.791,35.934-13.392l28.65,56.485H58.04c-0.34,0-0.676-0.025-1.009-0.064c-0.035-0.004-0.071-0.01-0.105-0.015  L85.568,336.326z"/>
<path d="M289.229,198.54h-87.172c-4.2,0-7.605,3.404-7.605,7.605c0,4.201,3.405,7.605,7.605,7.605h87.172  c4.915,0,8.913,3.998,8.913,8.913V383.97c0,4.915-3.998,8.913-8.913,8.913h-40.872c-4.2,0-7.605,3.404-7.605,7.605  c0,4.201,3.405,7.605,7.605,7.605h40.872c13.301,0,24.122-10.821,24.122-24.122V222.661  C313.352,209.361,302.53,198.54,289.229,198.54z"/>
<path d="M463.04,198.555H357.458c-4.2,0-7.605,3.404-7.605,7.605c0,4.201,3.405,7.605,7.605,7.605H463.04  c4.2,0,7.605-3.404,7.605-7.605C470.644,201.959,467.239,198.555,463.04,198.555z"/>
<path d="M342.38,246.21h120.66c4.2,0,7.605-3.404,7.605-7.605c0-4.201-3.405-7.605-7.605-7.605H342.38  c-4.2,0-7.605,3.404-7.605,7.605C334.775,242.807,338.18,246.21,342.38,246.21z"/>
<path d="M342.38,278.657h120.66c4.2,0,7.605-3.404,7.605-7.605s-3.405-7.605-7.605-7.605H342.38c-4.2,0-7.605,3.404-7.605,7.605  S338.18,278.657,342.38,278.657z"/>
<path d="M342.38,311.103h120.66c4.2,0,7.605-3.404,7.605-7.605s-3.405-7.605-7.605-7.605H342.38c-4.2,0-7.605,3.404-7.605,7.605  S338.18,311.103,342.38,311.103z"/>
<path d="M342.38,343.549h120.66c4.2,0,7.605-3.404,7.605-7.605s-3.405-7.605-7.605-7.605H342.38c-4.2,0-7.605,3.404-7.605,7.605  S338.18,343.549,342.38,343.549z"/>
<path d="M342.38,375.995h120.66c4.2,0,7.605-3.404,7.605-7.605s-3.405-7.605-7.605-7.605H342.38c-4.2,0-7.605,3.404-7.605,7.605  S338.18,375.995,342.38,375.995z"/>
<path d="M342.38,408.442h84.027c4.2,0,7.605-3.404,7.605-7.605c0-4.201-3.405-7.605-7.605-7.605H342.38  c-4.2,0-7.605,3.404-7.605,7.605C334.775,405.038,338.18,408.442,342.38,408.442z"/>
<path d="M233.964,323.443c19.922,0,37.94-11.8,45.902-30.062c1.099-2.522,0.751-5.441-0.911-7.633  c-1.663-2.192-4.378-3.317-7.105-2.937c-1.57,0.218-3.177,0.327-4.779,0.327c-19.216,0-34.85-15.634-34.85-34.85  c0-4.844,0.971-9.526,2.889-13.914c1.1-2.52,0.755-5.438-0.904-7.631c-1.659-2.192-4.37-3.318-7.098-2.947  c-24.63,3.375-43.203,24.694-43.203,49.588C183.904,300.985,206.361,323.443,233.964,323.443z M217.31,242.775  c-0.199,1.818-0.298,3.656-0.298,5.511c0,24.839,18.184,45.51,41.939,49.401c-6.447,6.621-15.4,10.546-24.987,10.546  c-19.216,0-34.85-15.634-34.85-34.851C199.114,260.358,206.41,248.742,217.31,242.775z"/>
<g>
</g>
<g>
</g>
<g>
</g>
<g>
</g>
<g>
</g>
<g>
</g>
<g>
</g>
<g>
</g>
<g>
</g>
<g>
</g>
<g>
</g>
<g>
</g>
<g>
</g>
<g>
</g>
<g>
</g>
</svg>
