<?xml version="1.0" encoding="iso-8859-1"?>
<!-- Generator: Adobe Illustrator 19.0.0, SVG Export Plug-In . SVG Version: 6.00 Build 0)  -->
<svg xmlns="http://www.w3.org/2000/svg" xmlns:xlink="http://www.w3.org/1999/xlink" version="1.1" id="Capa_1" x="0px" y="0px" viewBox="0 0 512 512" style="enable-background:new 0 0 512 512;" xml:space="preserve">
<path style="fill:#D1E7F8;" d="M7.606,107.099v296.585c0,21.402,17.35,38.753,38.753,38.753l458.032-0.035V107.099H7.606z"/>
<path style="fill:#78B9EB;" d="M114.862,69.569v297.418H44.903c-2.332,0-4.624,0.213-6.845,0.629  c-15.799,2.961-28.18,15.971-30.158,32.105H7.617V108.488h0.03c-0.01-0.375-0.03-0.75-0.03-1.126v-0.507  c0-18.172,13.172-33.413,30.441-36.647c2.221-0.426,4.512-0.639,6.845-0.639C44.903,69.569,114.862,69.569,114.862,69.569z"/>
<path style="fill:#5AAAE7;" d="M38.058,70.208v297.408c-15.799,2.961-28.18,15.971-30.158,32.105H7.617V108.488h0.03  c-0.01-0.375-0.03-0.75-0.03-1.126v-0.507C7.617,88.684,20.789,73.443,38.058,70.208z"/>
<path d="M504.395,205.846c-4.208,0-7.605,3.407-7.605,7.605v221.345l-270.475,0.02c-4.198,0-7.605,3.407-7.605,7.605  s3.407,7.605,7.605,7.605l278.08-0.02c4.198,0,7.605-3.407,7.605-7.605v-228.95C512,209.253,508.593,205.846,504.395,205.846z"/>
<path d="M504.395,99.493H122.467V69.569c0-4.198-3.407-7.605-7.605-7.605H44.903c-24.753,0-44.892,20.139-44.892,44.892  c-0.01,0.02-0.01,0.03,0,0.051c-0.017,0.102-0.01-4.973-0.01,296.779c0,25.564,20.798,46.352,46.362,46.352l149.53-0.01  c4.198,0,7.605-3.397,7.605-7.605c0-4.198-3.407-7.605-7.605-7.605l-149.54,0.01c-17.168,0-31.141-13.963-31.141-31.141v-1.927  c0.112-0.365,0.183-0.73,0.233-1.115c1.825-14.856,14.491-26.051,29.458-26.051h14.095c4.198,0,7.605-3.407,7.605-7.605  c0-4.198-3.407-7.605-7.605-7.605c-7.814,0.92-26.509-4.005-43.776,11.236c0-279.567,0.01-262.865,0-263.762  c0-16.345,13.29-29.681,29.681-29.681h62.353c0,11.142,0,261.509,0,282.207H89.42c-4.198,0-7.605,3.407-7.605,7.605  c0,4.198,3.407,7.605,7.605,7.605h25.442c4.19,0,7.605-3.412,7.605-7.605V114.704H496.79v68.326c0,4.208,3.397,7.605,7.605,7.605  c4.198,0,7.605-3.397,7.605-7.605v-75.931C512,102.9,508.593,99.493,504.395,99.493z"/>
<path d="M202.191,162.029c4.198,0,7.605-3.407,7.605-7.605c0-4.208-3.407-7.605-7.605-7.605H152.31  c-4.208,0-7.605,3.397-7.605,7.605v171.707c0,39.233,31.912,71.155,71.145,71.155c8.119,0,227.919,0,241.342,0  c4.208,0,7.605-3.407,7.605-7.605V154.424c0-4.208-3.397-7.605-7.605-7.605c-7.669,0-212.987,0-224.579,0  c-4.198,0-7.605,3.397-7.605,7.605c0,4.198,3.407,7.605,7.605,7.605h27.693v101.739h-100.39V162.029L202.191,162.029  L202.191,162.029z M449.586,382.076h-174.07V233.009h115.428c4.201,0,7.605-3.404,7.605-7.605v-63.374h51.037L449.586,382.076  L449.586,382.076z M383.339,162.029v55.769H275.516v-55.769L383.339,162.029L383.339,162.029z M260.306,278.978v103.097H215.85  c-30.847,0-55.934-25.097-55.934-55.945v-47.153L260.306,278.978L260.306,278.978z"/>
<g>
</g>
<g>
</g>
<g>
</g>
<g>
</g>
<g>
</g>
<g>
</g>
<g>
</g>
<g>
</g>
<g>
</g>
<g>
</g>
<g>
</g>
<g>
</g>
<g>
</g>
<g>
</g>
<g>
</g>
</svg>
