<?xml version="1.0" encoding="iso-8859-1"?>
<!-- Generator: Adobe Illustrator 19.0.0, SVG Export Plug-In . SVG Version: 6.00 Build 0)  -->
<svg xmlns="http://www.w3.org/2000/svg" xmlns:xlink="http://www.w3.org/1999/xlink" version="1.1" id="Capa_1" x="0px" y="0px" viewBox="0 0 512.001 512.001" style="enable-background:new 0 0 512.001 512.001;" xml:space="preserve">
<path style="fill:#5AAAE7;" d="M502.371,265.699v126.734c0,1.5-0.446,2.899-1.226,4.074c-1.338,2.017-3.618,3.355-6.203,3.355  H13.162c-2.118,0-4.044-0.902-5.402-2.341c-1.257-1.328-2.027-3.132-2.027-5.088V265.699c0-4.095,3.345-7.439,7.429-7.439h481.78  C499.027,258.259,502.371,261.604,502.371,265.699z"/>
<path style="fill:#78B9EB;" d="M502.371,265.699v126.734c0,1.5-0.446,2.899-1.226,4.074c-1.338,2.017-3.618,3.355-6.203,3.355  H43.568c-2.118,0-4.044-0.902-5.402-2.341c-1.257-1.328-2.027-3.132-2.027-5.088V265.699c0-4.095,3.345-7.439,7.429-7.439h451.374  C499.027,258.259,502.371,261.604,502.371,265.699z"/>
<path style="fill:#2D2D30;" d="M486.367,466.827l-35.626-2.017c-3.578-0.203-6.993,1.571-8.889,4.612l-13.207,21.224l-5.635,9.071  c-5.281,8.473-18.365,4.591-18.153-5.392l1.814-84.844c0.172-7.754,8.848-12.264,15.284-7.936l9.446,6.345l60.995,40.998  C500.679,454.452,496.331,467.395,486.367,466.827z"/>
<path style="fill:#3E3D42;" d="M486.367,466.827l-35.626-2.017c-3.578-0.203-6.993,1.571-8.889,4.612l-13.207,21.224l1.682-78.459  c0.03-1.581,0.426-3.03,1.074-4.297l60.995,40.998C500.679,454.452,496.331,467.395,486.367,466.827z"/>
<path style="fill:#FFB655;" d="M504.398,21.971v190.334c0,7.571-6.142,13.703-13.713,13.703H237.014  c-7.571,0-13.703-6.132-13.703-13.703V21.971c0-7.571,6.132-13.703,13.703-13.703h253.671  C498.256,8.267,504.398,14.399,504.398,21.971z"/>
<path style="fill:#FFC477;" d="M504.398,21.971v190.334c0,7.571-6.142,13.703-13.713,13.703h-216.17  c-7.571,0-13.703-6.132-13.703-13.703V21.971c0-7.571,6.132-13.703,13.703-13.703h216.17  C498.256,8.267,504.398,14.399,504.398,21.971z"/>
<path style="fill:#3FA45A;" d="M188.171,13.548v205.912c0,3.264-2.645,5.919-5.909,5.919H13.517c-3.264,0-5.919-2.655-5.919-5.919  V13.548c0-3.264,2.655-5.919,5.919-5.919h168.746C185.526,7.629,188.171,10.284,188.171,13.548z"/>
<path style="fill:#4CBA68;" d="M188.171,13.548v205.912c0,3.264-2.645,5.919-5.909,5.919H43.923c-3.264,0-5.919-2.655-5.919-5.919  V13.548c0-3.264,2.655-5.919,5.919-5.919h138.339C185.526,7.629,188.171,10.284,188.171,13.548z"/>
<path d="M504.398,0.664h-281.09c-4.198,0-7.602,3.402-7.602,7.602V226.01c0,4.199,3.404,7.602,7.602,7.602h281.09  c4.199,0,7.602-3.402,7.602-7.602V8.265C512,4.066,508.598,0.664,504.398,0.664z M496.797,218.408H230.91V15.867h265.887V218.408z"/>
<path d="M7.602,232.978h180.57c4.198,0,7.602-3.402,7.602-7.602V7.632c0-4.199-3.404-7.602-7.602-7.602H7.602  c-0.007,0-0.015,0.001-0.022,0.001C7.076,0.032,6.572,0.082,6.075,0.183c-0.052,0.01-0.101,0.027-0.153,0.039  C5.732,0.266,5.541,0.311,5.354,0.369C5.26,0.397,5.171,0.436,5.08,0.467c-0.142,0.05-0.285,0.096-0.424,0.155  C4.529,0.676,4.407,0.74,4.284,0.801C4.185,0.849,4.084,0.892,3.986,0.945C3.765,1.063,3.551,1.194,3.345,1.334  C3.33,1.344,3.315,1.357,3.299,1.367C3.107,1.5,2.919,1.641,2.74,1.791C2.734,1.795,2.727,1.799,2.721,1.804  c-0.053,0.044-0.098,0.093-0.15,0.139c-0.13,0.115-0.259,0.23-0.381,0.354C2.107,2.38,2.032,2.469,1.954,2.556  C1.868,2.652,1.78,2.747,1.699,2.847C1.616,2.949,1.541,3.056,1.464,3.161C1.396,3.254,1.325,3.347,1.261,3.444  C1.189,3.552,1.124,3.665,1.058,3.776c-0.06,0.102-0.122,0.203-0.177,0.308C0.824,4.191,0.775,4.3,0.724,4.41  c-0.055,0.117-0.11,0.232-0.159,0.353C0.523,4.864,0.489,4.968,0.451,5.072c-0.047,0.13-0.093,0.259-0.134,0.393  c-0.03,0.102-0.054,0.206-0.079,0.309c-0.034,0.135-0.07,0.271-0.096,0.409C0.12,6.299,0.105,6.416,0.088,6.532  C0.07,6.659,0.049,6.785,0.036,6.913c-0.015,0.156-0.019,0.313-0.024,0.47C0.01,7.467,0,7.548,0,7.632v217.745  C0,229.575,3.403,232.978,7.602,232.978z M19.072,217.775l77.294-92.303l77.294,92.303H19.072z M180.57,202.346l-74.289-88.714  l74.289-88.714V202.346z M168.85,15.234l-72.484,86.559L23.882,15.234H168.85z M15.203,28.55l71.248,85.082l-71.248,85.083V28.55z"/>
<path d="M268.579,53.284h78.55c4.199,0,7.602-3.402,7.602-7.602s-3.402-7.602-7.602-7.602h-78.55c-4.199,0-7.602,3.402-7.602,7.602  S264.381,53.284,268.579,53.284z"/>
<path d="M380.576,53.284h78.55c4.199,0,7.602-3.402,7.602-7.602s-3.402-7.602-7.602-7.602h-78.55c-4.199,0-7.602,3.402-7.602,7.602  S376.378,53.284,380.576,53.284z"/>
<path d="M268.579,100.921h78.55c4.199,0,7.602-3.402,7.602-7.602s-3.402-7.602-7.602-7.602h-78.55c-4.199,0-7.602,3.402-7.602,7.602  S264.381,100.921,268.579,100.921z"/>
<path d="M380.576,100.921h78.55c4.199,0,7.602-3.402,7.602-7.602s-3.402-7.602-7.602-7.602h-78.55c-4.199,0-7.602,3.402-7.602,7.602  S376.378,100.921,380.576,100.921z"/>
<path d="M268.579,148.558h78.55c4.199,0,7.602-3.402,7.602-7.602c0-4.199-3.402-7.602-7.602-7.602h-78.55  c-4.199,0-7.602,3.402-7.602,7.602C260.978,145.155,264.381,148.558,268.579,148.558z"/>
<path d="M380.576,148.558h78.55c4.199,0,7.602-3.402,7.602-7.602c0-4.199-3.402-7.602-7.602-7.602h-78.55  c-4.199,0-7.602,3.402-7.602,7.602C372.975,145.155,376.378,148.558,380.576,148.558z"/>
<path d="M268.579,196.195h78.55c4.199,0,7.602-3.402,7.602-7.602s-3.402-7.602-7.602-7.602h-78.55c-4.199,0-7.602,3.402-7.602,7.602  S264.381,196.195,268.579,196.195z"/>
<path d="M380.576,196.195h78.55c4.199,0,7.602-3.402,7.602-7.602s-3.402-7.602-7.602-7.602h-78.55c-4.199,0-7.602,3.402-7.602,7.602  S376.378,196.195,380.576,196.195z"/>
<path d="M502.675,251.783c-1.764-0.72-3.689-1.125-5.706-1.125H15.189c-2.017,0-3.943,0.405-5.706,1.125  c-5.27,2.169-9.041,7.257-9.304,13.237c-0.01,0.223-0.02,0.446-0.02,0.679c0,12.944,0,110.151,0,126.734  c0,8.339,6.795,15.031,15.031,15.031h384.025c-0.23,1.832,0.006-3.189-1.953,86.699c-0.102,4.762,1.626,9.205,4.863,12.513  c3.294,3.364,7.911,5.295,12.665,5.295c5.979,0,11.464-3.078,14.672-8.235c19.497-30.598,18.409-31.339,20.725-31.339  c42.014,2.364,35.974,2.05,36.805,2.05c0,0,0.001,0,0.002,0c7.671,0,14.338-4.963,16.59-12.352  c2.283-7.488-0.445-15.15-6.949-19.521l-52.241-35.111h52.577c8.24,0,15.031-6.697,15.031-15.031c0-16.514,0-112.832,0-126.734  c0-0.233-0.01-0.456-0.02-0.679C511.716,259.04,507.946,253.952,502.675,251.783z M450.782,265.861l-194.703,52.826L61.376,265.861  H450.782z M15.361,269.135l211.68,57.428L15.361,383.99C15.361,383.99,15.361,269.135,15.361,269.135z M488.153,455.193  c0.904,0.607,1.202,1.437,0.888,2.469c-0.221,0.723-0.754,1.583-2.048,1.583c-0.065,0-0.132-0.002-0.199-0.006l-35.622-2.017  c-6.419-0.359-12.397,2.766-15.773,8.188c-19.649,31.042-18.602,31.357-20.61,31.357c-1.316,0-2.36-0.824-2.329-2.279l1.813-84.841  c0.037-1.73,1.957-2.791,3.446-1.791L488.153,455.193z M42.96,392.26l213.119-57.823l213.119,57.823H42.96z M496.797,383.99  l-211.68-57.428l211.68-57.428V383.99z"/>
<g>
</g>
<g>
</g>
<g>
</g>
<g>
</g>
<g>
</g>
<g>
</g>
<g>
</g>
<g>
</g>
<g>
</g>
<g>
</g>
<g>
</g>
<g>
</g>
<g>
</g>
<g>
</g>
<g>
</g>
</svg>
