<?xml version="1.0" encoding="iso-8859-1"?>
<!-- Generator: Adobe Illustrator 19.0.0, SVG Export Plug-In . SVG Version: 6.00 Build 0)  -->
<svg xmlns="http://www.w3.org/2000/svg" xmlns:xlink="http://www.w3.org/1999/xlink" version="1.1" id="Capa_1" x="0px" y="0px" viewBox="0 0 512 512" style="enable-background:new 0 0 512 512;" xml:space="preserve">
<g>
	<path style="fill:#FFD422;" d="M217.352,188.077h-7.726c-4.927-8.486-10.94-16.272-17.844-23.167   c-13.565-13.565-30.558-23.714-49.527-28.966l0.01-18.513c0.771-19.76,20.723-33.021,39.186-25.924   c27.161,10.453,51.707,29.797,62.677,56.705C251.894,167.242,237.903,188.077,217.352,188.077z"/>
	<rect x="191.174" y="346.041" style="fill:#FFD422;" width="277.808" height="76.242"/>
</g>
<path style="fill:#FF9811;" d="M496.789,422.277h-27.805V321.905c0-4.182,3.422-7.604,7.604-7.604h20.201  c4.182,0,7.604,3.422,7.604,7.604v92.768C504.393,418.855,500.971,422.277,496.789,422.277z"/>
<path style="fill:#2D2D30;" d="M232.407,227.567v175.479c0,10.575-8.658,19.233-19.233,19.233H26.827  c-10.575,0-19.223-8.658-19.223-19.233V227.567c0-37.29,18.402-70.494,46.587-90.964c18.523-13.484,41.284-21.443,65.81-21.443  c30.913,0,59.017,12.643,79.385,33.021C219.765,168.55,232.407,196.654,232.407,227.567z"/>
<path style="fill:#3E3D42;" d="M232.407,227.567v163.282H56.229c-10.575,0-19.223-8.658-19.223-19.233V196.137  c0-21.818,6.296-42.248,17.185-59.534c18.523-13.484,41.284-21.443,65.81-21.443c30.913,0,59.017,12.643,79.385,33.021  C219.765,168.55,232.407,196.654,232.407,227.567z"/>
<path style="fill:#3FA45A;" d="M175.368,232.859c0,8.212-1.784,15.999-4.988,23.005c-8.739,19.101-28.013,32.362-50.379,32.362  c-30.578,0-55.367-24.789-55.367-55.367c0-22.366,13.261-41.639,32.362-50.379c7.006-3.204,14.792-4.988,23.005-4.988  C150.579,177.492,175.368,202.281,175.368,232.859z"/>
<path style="fill:#4CBA68;" d="M175.368,232.859c0,8.212-1.784,15.999-4.988,23.005c-7.006,3.204-14.792,4.988-23.005,4.988  c-30.578,0-55.367-24.789-55.367-55.367c0-8.212,1.784-15.999,4.988-23.005c7.006-3.204,14.792-4.988,23.005-4.988  C150.579,177.492,175.368,202.281,175.368,232.859z"/>
<path d="M496.792,306.699h-20.206c-8.385,0-15.208,6.823-15.208,15.208v16.526H240.011v-4.289c0-4.197-3.407-7.604-7.604-7.604  s-7.604,3.407-7.604,7.604v4.289c0,16.902,0,50.668,0,64.613c0,6.418-5.221,11.629-11.629,11.629c-8.942,0-177.335,0-186.348,0  c-6.408,0-11.619-5.211-11.619-11.629v-36.915c0-4.197-3.407-7.604-7.604-7.604c-4.208,0-7.604,3.407-7.604,7.604v36.915  c0,14.802,12.035,26.837,26.827,26.837c34.017,0,230.743,0,240.61,0c4.197,0,7.604-3.407,7.604-7.604s-3.407-7.604-7.604-7.604  h-30.071c4.53-9.414,1.875-14.456,2.646-61.034h8.848v16.588c0,4.2,3.405,7.604,7.604,7.604s7.604-3.404,7.604-7.604v-16.588h8.31  v37.598c0,4.2,3.405,7.604,7.604,7.604s7.604-3.404,7.604-7.604v-37.598h8.31v16.588c0,4.2,3.405,7.604,7.604,7.604  s7.604-3.404,7.604-7.604v-16.588h8.31v16.588c0,4.2,3.405,7.604,7.604,7.604c4.199,0,7.604-3.404,7.604-7.604v-16.588h8.31v16.588  c0,4.2,3.405,7.604,7.604,7.604c4.199,0,7.604-3.404,7.604-7.604v-16.588h8.31v37.598c0,4.2,3.405,7.604,7.604,7.604  c4.199,0,7.604-3.404,7.604-7.604v-37.598h8.31v16.588c0,4.2,3.405,7.604,7.604,7.604c4.199,0,7.604-3.404,7.604-7.604v-16.588h8.31  v16.588c0,4.2,3.405,7.604,7.604,7.604c4.199,0,7.604-3.404,7.604-7.604v-16.588H437v16.588c0,4.2,3.405,7.604,7.604,7.604  c4.199,0,7.604-3.404,7.604-7.604v-16.588h9.168v61.034H297.852c-4.197,0-7.604,3.407-7.604,7.604s3.407,7.604,7.604,7.604h171.13  h27.81c8.385,0,15.208-6.823,15.208-15.208v-92.768C512,313.522,505.177,306.699,496.792,306.699z M496.792,414.675h-20.206  c0-21.12,0-83.487,0-92.768h20.206V414.675z"/>
<path d="M119.22,122.774h0.061c0.317,0.01,6.512-0.245,15.38,1.014c50.77,7.126,90.142,50.872,90.142,103.779v76.161  c0,4.197,3.407,7.604,7.604,7.604s7.604-3.407,7.604-7.604c-1.307-67.735,3.364-84.103-5.556-112.265  c16.238-8.583,23.986-28.309,16.719-46.131c-10.818-26.492-35.232-48.706-66.996-60.923c-3.031-1.166-6.174-1.926-9.348-2.251  c-4.167-0.436-7.918,2.595-8.354,6.773c-0.436,4.177,2.595,7.918,6.773,8.354c1.855,0.193,3.69,0.639,5.465,1.318  c40.562,15.596,59.99,46.956,59.99,60.558c0,7.442-3.853,14.143-9.824,17.966c-14.833-31.927-43.312-56.269-77.895-65.506  c0.659-1.947,1.602-3.782,2.808-5.465c2.443-3.417,1.653-8.162-1.754-10.615c-3.417-2.443-8.172-1.653-10.615,1.764  c-2.464,3.447-4.289,7.269-5.424,11.315c-8.651-1.157-16.731-1.051-16.84-1.054c-4.197,0.03-7.574,3.457-7.543,7.655  C111.646,119.408,115.043,122.774,119.22,122.774z"/>
<path d="M7.604,343.319c4.197,0,7.604-3.407,7.604-7.604V227.567c0-46.486,31.298-87.932,76.1-100.778  c4.045-1.166,6.377-5.373,5.221-9.409c-1.156-4.035-5.373-6.377-9.409-5.211C35.82,126.88,0,174.329,0,227.567v108.149  C0,339.913,3.396,343.319,7.604,343.319z"/>
<path d="M157.088,202.747c2.646,3.255,7.432,3.751,10.696,1.105c3.319-2.71,3.696-7.522,1.105-10.696  c-38.243-47.083-115.76-17.634-111.717,43.88c0.275,4.186,3.894,7.348,8.08,7.087c4.197-0.274,7.371-3.893,7.097-8.091  C69.215,189.92,127.696,166.669,157.088,202.747z"/>
<path d="M120.001,295.83c37.825,0,67.461-33.391,62.423-71.315c-0.547-4.167-4.37-7.097-8.537-6.539  c-4.157,0.558-7.087,4.37-6.539,8.537c3.785,28.878-18.695,54.11-47.347,54.11c-15.461,0-30.041-7.553-39.003-20.186  c-2.423-3.427-7.168-4.238-10.595-1.815c-3.427,2.433-4.238,7.178-1.815,10.605C80.389,285.884,99.612,295.83,120.001,295.83z"/>
<g>
</g>
<g>
</g>
<g>
</g>
<g>
</g>
<g>
</g>
<g>
</g>
<g>
</g>
<g>
</g>
<g>
</g>
<g>
</g>
<g>
</g>
<g>
</g>
<g>
</g>
<g>
</g>
<g>
</g>
</svg>
