<?xml version="1.0" encoding="iso-8859-1"?>
<!-- Generator: Adobe Illustrator 19.0.0, SVG Export Plug-In . SVG Version: 6.00 Build 0)  -->
<svg xmlns="http://www.w3.org/2000/svg" xmlns:xlink="http://www.w3.org/1999/xlink" version="1.1" id="Capa_1" x="0px" y="0px" viewBox="0 0 512 512" style="enable-background:new 0 0 512 512;" xml:space="preserve">
<path style="fill:#C6C5CA;" d="M504.396,196.159v113.73c0,3.386-2.737,6.124-6.123,6.124H241.482c-3.386,0-6.123-2.737-6.123-6.124  v-113.73c0-3.386,2.737-6.123,6.123-6.123h256.791C501.659,190.036,504.396,192.773,504.396,196.159z"/>
<path style="fill:#ACABB1;" d="M504.396,258.834v51.056c0,3.386-2.737,6.124-6.123,6.124H241.482c-3.386,0-6.123-2.737-6.123-6.124  v-51.056H504.396L504.396,258.834z"/>
<path style="fill:#787680;" d="M504.396,287.125v22.764c0,3.386-2.737,6.124-6.123,6.124H241.482c-3.386,0-6.123-2.737-6.123-6.124  v-22.764H504.396z"/>
<path style="fill:#ACABB1;" d="M150.775,196.159v113.73c0,3.386-2.737,6.124-6.123,6.124H13.727c-3.386,0-6.123-2.737-6.123-6.124  v-113.73c0-3.386,2.737-6.123,6.123-6.123h130.925C148.038,190.036,150.775,192.773,150.775,196.159z"/>
<path style="fill:#C6C5CA;" d="M150.775,196.159v90.961H40.097c-3.386,0-6.123-2.737-6.123-6.124v-90.961h113.254  C148.038,190.036,150.775,192.773,150.775,196.159z"/>
<path style="fill:#898890;" d="M150.775,258.834v51.056c0,3.386-2.737,6.124-6.123,6.124H13.727c-3.386,0-6.123-2.737-6.123-6.124  v-51.056H150.775L150.775,258.834z"/>
<path style="fill:#787680;" d="M150.775,287.125v22.764c0,3.386-2.737,6.124-6.123,6.124H13.727c-3.386,0-6.123-2.737-6.123-6.124  v-51.056h26.369v22.168c0,3.386,2.737,6.124,6.123,6.124L150.775,287.125L150.775,287.125z"/>
<path style="fill:#57565C;" d="M172.897,156.803V349.54c0,1.531-0.223,2.96-0.639,4.278c-3.062,9.885-16.525,13.484-23.936,4.755  l-30.384-35.737c-3.792-4.461-5.87-10.118-5.87-15.968v-61.356c0-3.964,0.963-7.877,2.798-11.395l42.347-81.156  C161.238,145.245,172.897,148.104,172.897,156.803z"/>
<path style="fill:#787680;" d="M172.897,169.415V349.54c0,1.531-0.223,2.96-0.639,4.278l-28.64-33.689  c-3.782-4.451-5.86-10.108-5.86-15.958v-61.356c0-3.974,0.953-7.877,2.788-11.405L172.897,169.415z"/>
<path style="fill:#57565C;" d="M275.263,245.512v61.356c0,5.85-2.078,11.507-5.87,15.968l-30.384,35.737  c-7.36,8.668-20.682,5.181-23.865-4.542c-0.456-1.379-0.71-2.879-0.71-4.491V156.803c0-8.699,11.659-11.558,15.684-3.842  l42.347,81.156C274.299,237.635,275.263,241.548,275.263,245.512z"/>
<path style="fill:#787680;" d="M249.552,243.13v61.356c0,5.85-2.078,11.507-5.86,15.958l-28.549,33.588  c-0.456-1.379-0.71-2.879-0.71-4.491V169.769l32.331,61.965C248.599,235.252,249.552,239.155,249.552,243.13z"/>
<path d="M233.367,353.482c0.011-0.012,0.021-0.024,0.03-0.035C233.388,353.459,233.378,353.471,233.367,353.482z"/>
<path d="M233.398,353.446c0.022-0.026,0.043-0.051,0.061-0.072C233.442,353.394,233.422,353.417,233.398,353.446z"/>
<path d="M233.468,353.364c0.007-0.008,0.013-0.016,0.019-0.022C233.482,353.348,233.476,353.355,233.468,353.364z"/>
<path d="M233.229,353.646c-0.004,0.005-0.007,0.008-0.009,0.01l0,0C233.221,353.654,233.225,353.65,233.229,353.646z"/>
<path d="M233.508,353.316C233.513,353.311,233.513,353.311,233.508,353.316L233.508,353.316z"/>
<path d="M504.396,182.432H254.074l-1.419-2.727c-3.497-6.684-13.526-4.715-14.295,2.727c-0.162,1.44,0.091,2.93,0.811,4.309  l5.688,10.899l22.801,43.696c0,8.601,0,16.334,0,25.102c0,6.407,0,42.992,0,46.697c-27.659,32.545-33.386,39.284-34.293,40.349  c0,0,0-0.001,0.001-0.001c-0.003,0.004-0.007,0.008-0.01,0.012c-0.001,0.001-0.003,0.003-0.004,0.005  c-0.032,0.039-0.07,0.082-0.115,0.135c-0.004,0.005-0.007,0.008-0.01,0.011c0.001-0.001,0.002-0.002,0.002-0.003  c-0.004,0.005-0.007,0.008-0.011,0.013c-0.002,0.003-0.002,0.002,0,0c-1.592,1.865-3.447,2.261-4.714,2.261  c-2.504,0-6.468-1.734-6.468-6.377V301.2c0-4.197-3.406-7.604-7.604-7.604c-4.197,0-7.604,3.406-7.604,7.604v48.339  c0,20.242,25.077,29.111,37.978,13.96l33.902-39.884h65.128c4.197,0,7.604-3.396,7.604-7.604c0-4.197-3.406-7.604-7.604-7.604  h-60.971v-41.972h213.926v41.972H374.252c-4.197,0-7.604,3.406-7.604,7.604c0,4.207,3.406,7.604,7.604,7.604h130.144  c4.197,0,7.604-3.396,7.604-7.604V190.035C512,185.828,508.594,182.432,504.396,182.432z M233.315,353.545  c-0.012,0.014-0.023,0.027-0.033,0.039C233.292,353.571,233.303,353.558,233.315,353.545z M496.793,251.23H282.866  c-0.223-10.772,0.577-12.504-0.862-15.278l-19.993-38.312h22.266v16.578c0,4.2,3.404,7.604,7.604,7.604s7.604-3.403,7.604-7.604  v-16.578h8.309v37.588c0,4.2,3.404,7.604,7.604,7.604c4.199,0,7.604-3.403,7.604-7.604v-37.588h8.309v16.578  c0,4.2,3.404,7.604,7.604,7.604s7.604-3.403,7.604-7.604v-16.578h8.309v16.578c0,4.2,3.404,7.604,7.604,7.604  s7.604-3.403,7.604-7.604v-16.578h8.309v16.578c0,4.2,3.404,7.604,7.604,7.604s7.604-3.403,7.604-7.604v-16.578h8.309v37.588  c0,4.2,3.404,7.604,7.604,7.604s7.604-3.403,7.604-7.604v-37.588h8.309v16.578c0,4.2,3.404,7.604,7.604,7.604  s7.604-3.403,7.604-7.604v-16.578h8.309v16.578c0,4.2,3.404,7.604,7.604,7.604s7.604-3.403,7.604-7.604v-16.578h8.309v16.578  c0,4.2,3.404,7.604,7.604,7.604s7.604-3.403,7.604-7.604v-16.578h9.173v53.591H496.793z"/>
<path d="M233.459,353.374c0.003-0.004,0.007-0.008,0.009-0.011C233.465,353.367,233.462,353.37,233.459,353.374z"/>
<path d="M233.487,353.342c0.011-0.013,0.018-0.021,0.022-0.025C233.504,353.321,233.497,353.33,233.487,353.342z"/>
<path d="M119.687,313.151c0.007,0.009,0.018,0.022,0.032,0.038C119.706,313.174,119.695,313.161,119.687,313.151z"/>
<path d="M164.482,140.876c-5.971,0-11.213,3.204-14.011,8.567l-17.215,32.99H7.604c-4.207,0-7.604,3.396-7.604,7.604v16.211  c0,4.197,3.396,7.604,7.604,7.604c4.197,0,7.604-3.406,7.604-7.604v-8.607h10.386v37.588c0,4.2,3.404,7.604,7.604,7.604  s7.604-3.403,7.604-7.604v-37.588h8.309v16.578c0,4.2,3.404,7.604,7.604,7.604s7.604-3.403,7.604-7.604v-16.578h8.309v16.578  c0,4.2,3.404,7.604,7.604,7.604s7.604-3.403,7.604-7.604v-16.578h8.309v16.578c0,4.2,3.404,7.604,7.604,7.604  c4.199,0,7.604-3.403,7.604-7.604v-16.578h8.311v10.838c-19.847,38.886-14.221,22.584-15.197,42.753H15.207v-14.569  c0-4.197-3.406-7.604-7.604-7.604c-4.207,0-7.604,3.406-7.604,7.604v79.352c0,4.207,3.396,7.604,7.604,7.604h101.017l9.145,10.757  c2.717,3.194,7.523,3.589,10.716,0.872c3.204-2.727,3.589-7.523,0.872-10.726c-7.62-8.96-9.351-10.996-9.634-11.329  c0.001,0.002,0.003,0.003,0.004,0.005c-0.016-0.019-0.031-0.037-0.052-0.061l0,0c0.003,0.003,0.008,0.009,0.015,0.017  c-0.007-0.008-0.012-0.015-0.015-0.017c0-17.002,0-57.179,0-71.799c47.734-91.456,44.308-85.252,44.811-85.252  c1.261,0,0.811-13.458,0.811,193.457c0,4.643-3.964,6.377-6.468,6.377c-4.504,0-5.929-4.506-9.773-8.222  c-2.717-3.194-7.523-3.589-10.716-0.872c-3.204,2.727-3.589,7.523-0.872,10.726l5.069,5.951c4.177,4.917,9.956,7.624,16.292,7.624  c12.156,0,21.676-9.479,21.676-21.584V156.803C180.501,147.871,173.465,140.876,164.482,140.876z M104.464,308.409H15.207v-41.972  h89.257V308.409z M119.82,313.308C119.829,313.318,119.83,313.32,119.82,313.308L119.82,313.308z"/>
<path d="M214.433,278.39c4.197,0,7.604-3.406,7.604-7.604V156.803c0-0.203,0-0.72,0.811-0.72c0.223,0,0.335,0.01,0.527,0.395  l1.723,3.295c1.947,3.721,6.539,5.171,10.26,3.224c3.721-1.947,5.17-6.539,3.224-10.26l-1.723-3.295  c-2.798-5.363-8.04-8.567-14.011-8.567c-8.982,0-16.018,6.995-16.018,15.927v113.984C206.83,274.984,210.236,278.39,214.433,278.39z  "/>
<g>
</g>
<g>
</g>
<g>
</g>
<g>
</g>
<g>
</g>
<g>
</g>
<g>
</g>
<g>
</g>
<g>
</g>
<g>
</g>
<g>
</g>
<g>
</g>
<g>
</g>
<g>
</g>
<g>
</g>
</svg>
