<?xml version="1.0" encoding="iso-8859-1"?>
<!-- Generator: Adobe Illustrator 19.0.0, SVG Export Plug-In . SVG Version: 6.00 Build 0)  -->
<svg xmlns="http://www.w3.org/2000/svg" xmlns:xlink="http://www.w3.org/1999/xlink" version="1.1" id="Capa_1" x="0px" y="0px" viewBox="0 0 512 512" style="enable-background:new 0 0 512 512;" xml:space="preserve">
<path style="fill:#C2DFF6;" d="M433.091,7.604v0.081c-21.442,1.288-38.565,19.222-38.565,40.968l0.051,77.018v336.055  c0,19.465-13.037,35.899-30.86,41.008c-3.751,1.085-7.705,1.663-11.801,1.663H76.121V53.914c0-25.578,20.742-46.31,46.321-46.31  H433.091z"/>
<path style="fill:#D1E7F8;" d="M433.091,7.604v0.081c-21.442,1.288-38.565,19.222-38.565,40.968l0.051,77.018v336.055  c0,19.465-13.037,35.899-30.86,41.008c-3.751,1.085-7.705,1.663-11.801,1.663h-237.27V53.914c0-25.578,20.742-46.31,46.321-46.31  H433.091z"/>
<path style="fill:#78B9EB;" d="M477.191,48.662v51.532c0,14.072-11.405,25.477-25.467,25.477h-57.189V48.662  c0-22.577,18.471-41.059,41.049-41.059h0.547c13.737,0,25.963,6.843,33.415,17.285C474.352,31.61,477.191,39.822,477.191,48.662z"/>
<path style="fill:#96C8EF;" d="M347.546,504.072v0.314H77.652v-0.041c-0.416,0.01-0.821,0.03-1.237,0.03h-0.558  c-19.972,0-36.73-14.447-40.329-33.415c-0.476-2.474-0.72-5.028-0.72-7.634v-51.542c0-14.061,11.405-25.467,25.467-25.467h225.763  c14.061,0,25.467,11.405,25.467,25.467v51.542c0,2.605,0.243,5.16,0.72,7.634C315.52,488.318,329.825,501.903,347.546,504.072z"/>
<path style="fill:#78B9EB;" d="M347.546,504.072v0.314H77.652v-0.041c-0.416,0.01-0.821,0.03-1.237,0.03h-0.558  c-19.972,0-36.73-14.447-40.329-33.415h276.697C315.52,488.318,329.825,501.903,347.546,504.072z"/>
<path d="M394.576,219.711c-4.207,0-7.604,3.396-7.604,7.604v234.411c0,19.333-15.734,35.067-35.067,35.067  c-1.737-0.063-3.437-0.274-3.437-0.274c-16.738-2.048-29.36-16.322-29.36-33.192v-23.774c0-4.207-3.406-7.604-7.604-7.604  c-4.197,0-7.604,3.396-7.604,7.604v23.774c0,12.865,5.049,24.686,13.352,33.455c-263.775-0.041-243.251,0.402-248.736-0.821  c-14.923-3.356-26.105-16.718-26.105-32.634v-69.405c33.002,0,220.968,0,261.49,0v15.217c0,4.197,3.406,7.604,7.604,7.604  c4.197,0,7.604-3.406,7.604-7.604v-22.821c0-4.2-3.386-7.604-7.604-7.604H83.725V53.914c0-16.15,10.179-30.749,25.325-36.335  c3.944-1.45,5.961-5.819,4.501-9.763c-1.45-3.944-5.819-5.961-9.763-4.501c-21.097,7.776-35.27,28.113-35.27,50.599v324.802H34.809  c-4.197,0-7.604,3.406-7.604,7.604v77.008c0,26.536,21.466,48.673,48.916,48.673c26.367,0,249.445,0,275.784,0  c27.717,0,50.274-22.557,50.274-50.274V227.315C402.18,223.107,398.774,219.711,394.576,219.711z"/>
<path d="M436.132,0c-6.786,0-275.165,0-299.639,0c-4.197,0-7.604,3.406-7.604,7.604s3.406,7.604,7.604,7.604h263.781  c-4.037,4.212-7.8,9.954-9.956,15.623c-0.01,0.01-0.01,0.02-0.02,0.03c-2.264,5.822-3.376,11.766-3.376,17.802l0.01,15.4  c0,0.391,0.036,121.089,0.041,132.838c0,4.197,3.396,7.604,7.604,7.604c4.197,0,7.603-3.406,7.603-7.604v-63.626h75.011  c4.197,0,7.603-3.406,7.603-7.604V48.662C484.795,21.827,462.968,0,436.132,0z M469.588,118.067H402.18l-0.041-54.015v-15.39  c0-19.41,15.473-33.455,33.445-33.455h0.547c18.451,0,33.455,15.004,33.455,33.455V118.067z"/>
<path d="M141.565,149.844h187.037c4.199,0,7.604-3.404,7.604-7.604c0-4.199-3.404-7.604-7.604-7.604H141.565  c-4.199,0-7.604,3.404-7.604,7.604C133.962,146.44,137.365,149.844,141.565,149.844z"/>
<path d="M328.601,196.983H141.565c-4.199,0-7.604,3.404-7.604,7.604c0,4.199,3.404,7.604,7.604,7.604h187.037  c4.199,0,7.604-3.404,7.604-7.604C336.206,200.387,332.8,196.983,328.601,196.983z"/>
<path d="M328.601,259.329H141.565c-4.199,0-7.604,3.404-7.604,7.604s3.404,7.604,7.604,7.604h187.037  c4.199,0,7.604-3.404,7.604-7.604S332.8,259.329,328.601,259.329z"/>
<path d="M328.601,321.675H141.565c-4.199,0-7.604,3.404-7.604,7.604s3.404,7.604,7.604,7.604h187.037  c4.199,0,7.604-3.404,7.604-7.604S332.8,321.675,328.601,321.675z"/>
<g>
</g>
<g>
</g>
<g>
</g>
<g>
</g>
<g>
</g>
<g>
</g>
<g>
</g>
<g>
</g>
<g>
</g>
<g>
</g>
<g>
</g>
<g>
</g>
<g>
</g>
<g>
</g>
<g>
</g>
</svg>
