<?xml version="1.0" encoding="iso-8859-1"?>
<!-- Generator: Adobe Illustrator 19.0.0, SVG Export Plug-In . SVG Version: 6.00 Build 0)  -->
<svg xmlns="http://www.w3.org/2000/svg" xmlns:xlink="http://www.w3.org/1999/xlink" version="1.1" id="Capa_1" x="0px" y="0px" viewBox="0 0 512 512" style="enable-background:new 0 0 512 512;" xml:space="preserve">
<path style="fill:#C6C5CA;" d="M381.724,364.063c-5.958-2.604-11.764-5.796-17.347-9.585c0,0-52.821-29.992-46.052-93.746  c4.549-42.84-14.581-84.758-50.227-108.954c-28.543-19.373-61.089-28.655-93.34-28.655c-45.677,0-90.757,18.613-122.988,53.499  c-5.563,6.019-10.74,12.514-15.472,19.485c-19.383,28.543-28.655,61.089-28.655,93.34c0,53.55,25.584,106.29,72.974,138.47  c0,0,211.262,158.756,324.837,18.826c0.152-0.233,0.314-0.456,0.466-0.689c2.817-4.195,4.975-8.613,6.505-13.142  C421.423,406.346,408.889,375.938,381.724,364.063z M294.332,397.034c10.436-15.371,31.35-19.373,46.721-8.937  c15.361,10.436,19.363,31.35,8.927,46.721c-10.426,15.371-31.35,19.363-46.711,8.937  C287.897,433.319,283.895,412.405,294.332,397.034z"/>
<path style="fill:#E0E0E2;" d="M381.724,364.063c-5.958-2.604-11.764-5.796-17.347-9.585c0,0-52.821-29.992-46.052-93.746  c4.549-42.84-14.581-84.758-50.227-108.954c-28.543-19.373-61.089-28.655-93.34-28.655c-45.677,0-90.757,18.613-122.988,53.499  c-14.743,25.787-21.835,54.219-21.835,82.428c0,53.55,25.584,106.29,72.974,138.47c0,0,193.317,145.269,309.517,35.393  C421.423,406.346,408.889,375.938,381.724,364.063z M349.979,434.818c-10.426,15.371-31.35,19.363-46.711,8.937  c-15.371-10.436-19.373-31.35-8.937-46.721c10.436-15.371,31.35-19.373,46.721-8.937  C356.413,398.534,360.415,419.447,349.979,434.818z"/>
<path style="fill:#5AAAE7;" d="M228.065,196.959c0,8.673-6.85,15.979-15.604,16.435l-5.472,0.284  c-2.553,0.132-3.86,3.111-2.249,5.097c2.381,2.938,3.779,6.718,3.648,10.862c-0.274,8.623-7.407,15.462-16.019,15.908l-35.494,1.844  l-4.134,0.213l-17.965,0.932c-8.967,0.466-16.698-6.434-17.276-15.371c-0.598-9.15,6.85-17.053,16.009-17.529l5.846-0.304  c2.239-0.122,3.425-2.786,1.935-4.458c-2.401-2.695-3.942-6.181-4.144-10.051c-0.01-0.284-0.02-0.567-0.02-0.851  c0-8.673,6.85-15.979,15.604-16.445l21.349-1.104l36.669-1.895c2.219-0.122,4.367,0.223,6.353,0.932  c6.079,2.168,10.588,7.832,10.943,14.652C228.055,196.392,228.065,196.676,228.065,196.959z"/>
<path style="fill:#78B9EB;" d="M228.065,196.959c0,8.673-6.85,15.979-15.604,16.435l-5.472,0.284  c-2.553,0.132-3.86,3.111-2.249,5.097c2.381,2.938,3.779,6.718,3.648,10.862c-0.274,8.623-7.407,15.462-16.019,15.908l-35.494,1.844  c-6.313-2.178-11.055-8.076-11.51-15.229c-0.618-9.585,7.052-17.874,16.486-18.37l6.019-0.324c2.31-0.122,3.526-2.918,1.996-4.671  c-2.472-2.827-4.063-6.475-4.266-10.538c-0.01-0.294-0.02-0.598-0.02-0.892c0-6.313,3.405-11.936,8.501-14.945l36.669-1.895  c2.219-0.122,4.367,0.223,6.353,0.932c6.079,2.168,10.588,7.832,10.943,14.652C228.055,196.392,228.065,196.676,228.065,196.959z"/>
<path style="fill:#FF0C38;" d="M261.806,344.468c2.999,7.68-0.426,16.415-7.609,20.468l-34.38,19.434l-15.847,8.957  c-8.602,4.853-19.829,1.074-23.497-8.511c-2.786-7.275,0.841-16.506,7.62-20.336l0.243-0.132c3.739-2.118,4.073-7.295,0.699-9.889  c-1.672-1.297-3.131-2.938-4.225-4.894c-1.439-2.543-2.118-5.309-2.118-8.055c0-5.745,3.009-11.359,8.349-14.368l20.518-11.592  c0,0,0.01-0.01,0.02-0.01l30.033-16.982c7.883-4.458,17.975-1.652,22.433,6.231c1.439,2.543,2.118,5.309,2.118,8.055  c0,5.745-3.009,11.358-8.349,14.368l-5.988,3.384c-1.804,1.023-1.611,3.688,0.334,4.408  C256.375,336.555,259.982,339.817,261.806,344.468z"/>
<path style="fill:#FF3F62;" d="M261.806,344.468c2.999,7.68-0.426,16.415-7.609,20.468l-34.38,19.434  c-6.627-0.223-12.98-4.256-15.614-11.136c-2.928-7.64,0.882-17.316,8.005-21.339l0.243-0.142c3.931-2.219,4.276-7.65,0.74-10.376  c-1.763-1.358-3.283-3.08-4.438-5.137c-1.51-2.665-2.229-5.573-2.229-8.45c0-4.519,1.783-8.967,5.036-12.24c0,0,0.01-0.01,0.02-0.01  l30.033-16.982c7.883-4.458,17.975-1.652,22.433,6.231c1.439,2.543,2.118,5.309,2.118,8.055c0,5.745-3.009,11.358-8.349,14.368  l-5.988,3.384c-1.804,1.023-1.611,3.688,0.334,4.408C256.375,336.555,259.982,339.817,261.806,344.468z"/>
<path style="fill:#368B4C;" d="M132.07,355.674c-1.935,0.75-3.931,1.104-5.897,1.104c-6.606,0-12.878-4.002-15.401-10.518  l-2.472-6.383c-0.75-1.935-3.435-2.128-4.428-0.304c-2.148,3.931-5.887,7.022-10.74,8.157c-8.035,1.864-16.182-2.786-19.161-10.487  l-10.862-28.037l-3.486-8.988l-6.495-16.769c-3.567-9.21,1.793-19.779,11.804-22.028c7.609-1.702,16.212,3.212,19.029,10.487  l2.219,5.725c0.811,2.077,3.617,2.229,4.732,0.294c1.804-3.151,4.651-5.725,8.288-7.133c1.935-0.75,3.931-1.104,5.897-1.104  c6.606,0,12.878,4.002,15.391,10.507l6.758,17.438l14.226,36.74c0.507,1.297,0.831,2.624,0.983,3.952  C143.337,345.623,139.213,352.908,132.07,355.674z"/>
<path style="fill:#3FA45A;" d="M132.07,355.674c-1.935,0.75-3.931,1.104-5.897,1.104c-6.606,0-12.878-4.002-15.401-10.518  l-2.472-6.383c-0.75-1.935-3.435-2.128-4.428-0.304c-2.148,3.931-5.887,7.022-10.74,8.157c-8.035,1.864-16.182-2.786-19.161-10.487  l-10.862-28.037l-3.486-8.988c0.122-7.579,5.299-14.672,13.426-16.496c7.903-1.763,16.85,3.344,19.779,10.903l2.31,5.958  c0.841,2.158,3.759,2.32,4.914,0.304c1.875-3.273,4.843-5.948,8.623-7.417c2.006-0.78,4.083-1.145,6.13-1.145  c4.681,0,9.21,1.935,12.443,5.309l14.226,36.74c0.507,1.297,0.831,2.624,0.983,3.952  C143.337,345.623,139.213,352.908,132.07,355.674z"/>
<path style="fill:#EE8700;" d="M504.317,9.924c0,0.01-0.01,0.02-0.01,0.03c-13.942,54.492-47.886,101.852-80.128,136.849  c-7.417,8.065-14.753,15.472-21.724,22.16c-14.915,14.287-28.189,25.301-37.257,32.414c-2.32-5.39-5.776-10.406-10.406-14.753  c-0.537-0.496-1.084-0.993-1.641-1.479c-0.223-0.193-0.456-0.375-0.689-0.557c-0.213-0.203-0.436-0.395-0.659-0.588  c-0.557-0.486-1.135-0.952-1.712-1.398c-0.223-0.182-0.466-0.355-0.689-0.537c-4.843-3.638-10.102-6.09-15.503-7.437  c5.634-10.062,14.489-24.885,26.344-41.827c5.542-7.924,11.744-16.303,18.563-24.875c29.658-37.217,71.252-78.01,122.968-100.139  c0.01,0,0.02-0.01,0.03-0.01C503.212,7.168,504.702,8.445,504.317,9.924z"/>
<path style="fill:#FFCD00;" d="M424.179,146.804c-7.417,8.065-14.753,15.472-21.724,22.16l-42.212-36.163  c5.542-7.924,11.744-16.303,18.563-24.875L424.179,146.804z"/>
<path style="fill:#FFB655;" d="M362.148,245.778c-3.06,2.999-6.525,5.735-10.396,8.126c0,0-71.819,45.637-127-5.441  c-2.837-2.634-1.429-7.387,2.361-8.106c5.765-1.094,12.189-2.827,13.973-3.263c0.294-0.071,0.578-0.142,0.871-0.213  c7.924-1.976,15.715-4.803,22.717-9.048c7.022-4.276,13.132-9.97,17.397-17.043c3.09-5.147,4.357-10.821,6.201-16.313  c0.719-2.128,1.51-4.225,2.543-6.252c3.617-7.154,8.856-13.071,15.037-17.479c15.452-11.034,36.801-12.615,53.378-0.152  c0.233,0.182,0.466,0.355,0.689,0.537c0.578,0.456,1.155,0.912,1.712,1.398c0.223,0.193,0.446,0.385,0.669,0.588  c0.223,0.182,0.456,0.365,0.679,0.557c0.557,0.486,1.104,0.983,1.641,1.479c2.229,2.087,4.185,4.337,5.877,6.708  C384.095,200.952,380.316,227.975,362.148,245.778z"/>
<path style="fill:#FFC477;" d="M370.497,181.862c-0.628,12.726-6.292,25.574-16.455,35.545c-3.06,2.999-6.525,5.735-10.396,8.126  c0,0-52.132,33.123-101.69,11.348c7.924-1.976,15.715-4.803,22.717-9.048c7.022-4.276,13.132-9.97,17.397-17.043  c3.09-5.147,4.357-10.821,6.201-16.313c0.719-2.128,1.51-4.225,2.543-6.252c3.617-7.154,8.856-13.071,15.037-17.479  c15.452-11.034,36.801-12.615,53.378-0.152c0.233,0.182,0.466,0.355,0.689,0.537c0.578,0.456,1.155,0.912,1.712,1.398  c0.223,0.193,0.446,0.385,0.669,0.588c0.223,0.182,0.456,0.365,0.679,0.557c0.557,0.486,1.104,0.983,1.641,1.479  C366.85,177.242,368.805,179.491,370.497,181.862z"/>
<path d="M296.288,418.851c-0.474-4.171-4.239-7.167-8.409-6.693c-4.171,0.474-7.167,4.239-6.693,8.409  c4.301,37.835,53.566,50.212,75.084,18.518c4.66-6.864,7.123-14.862,7.123-23.13c0-36.756-44.414-54.947-70.242-29.344  c-2.981,2.955-3.002,7.767-0.048,10.746c2.956,2.981,7.768,3.001,10.746,0.048c8.628-8.552,22.425-10.152,32.931-3.02  c11.798,8.01,15.052,24.176,6.915,36.162C330.166,450.479,299.008,442.774,296.288,418.851z"/>
<path d="M20.137,233.7c2.979,0,5.816-1.763,7.022-4.701c38.922-94.294,154.562-126.679,236.674-70.937  c3.577,2.432,7.032,5.087,10.274,7.924c3.171,2.756,7.964,2.422,10.72-0.75c2.766-3.161,2.432-7.964-0.74-10.72  C202.5,83.432,59.357,110.871,13.115,223.203C11.062,228.18,14.697,233.7,20.137,233.7z"/>
<path d="M182.043,474.984c-54.928-21.896-96.451-52.841-96.856-53.145c-0.101-0.071-0.193-0.142-0.294-0.213  C31.357,385.29,5.346,319.785,18.637,256.67c0.861-4.104-1.773-8.136-5.877-8.998s-8.136,1.773-8.998,5.877  C-10.748,322.536,17.559,394.196,76.2,434.1c3.253,2.422,44.431,32.768,100.21,55.009c0.922,0.365,1.875,0.537,2.817,0.537  c3.019,0,5.877-1.804,7.062-4.783C187.839,480.963,185.934,476.545,182.043,474.984z"/>
<path d="M235.634,195.713c-0.689-13.203-11.946-23.477-25.27-22.778l-58.019,2.999c-16.225,0.848-26.928,17.18-21.339,32.312  c-12.049,1.692-21.873,12.479-21.096,25.412c0.831,12.615,11.369,22.494,24.004,22.494c1.231,0,0.63-0.011,19.15-0.963  c4.195-0.213,7.417-3.79,7.204-7.984c-0.223-4.185-3.81-7.417-7.984-7.194l-17.904,0.932c-5.07,0.254-9.322-3.825-9.322-8.805  c0-4.59,4.053-8.673,8.846-8.917l5.846-0.304c8.673-0.447,12.903-10.726,7.214-17.104c-4.973-5.562-1.098-14.321,6.161-14.702  l58.019-2.999c4.962-0.259,9.322,3.808,9.322,8.846c0,4.641-3.769,8.613-8.4,8.846l-5.461,0.284  c-8.772,0.452-13.267,10.715-7.772,17.468c4.622,5.661,0.642,14.018-6.86,14.398l-9.332,0.486c-4.195,0.213-7.417,3.79-7.194,7.984  c0.213,4.185,3.81,7.407,7.974,7.194l9.332-0.486c16.071-0.838,27.443-16.777,21.775-32.292  C226.836,219.343,236.264,208.611,235.634,195.713z"/>
<path d="M220.565,392.675c3.654-2.065,4.942-6.701,2.878-10.355c-2.066-3.654-6.701-4.943-10.355-2.878l-12.856,7.265  c-4.616,2.61-10.672,0.587-12.661-4.605c-1.416-3.691,0.699-8.992,4.254-11l0.248-0.14c8.372-4.731,9.364-16.538,1.608-22.523  c-5.026-3.88-4.303-11.634,1.096-14.686c53.612-29.854,50.822-29.716,54.89-29.716c4.871,0,8.897,3.88,8.897,8.801  c0,7.426-7.461,8.865-10.476,11.146c-7.379,4.166-6.631,15.177,1.45,18.151c7.207,2.651,7.747,12.333,0.925,16.189l-10.911,6.165  c-3.654,2.065-4.942,6.701-2.878,10.355c2.065,3.654,6.7,4.941,10.355,2.878l10.91-6.165c14.159-8.001,17.032-27.274,5.045-38.601  c19.685-13.032,10.667-44.116-13.319-44.116c-10.821,0-12.892,4.77-62.367,31.682c-14.045,7.939-16.457,27.366-4.682,38.435  c-9.078,6.273-13.07,18.574-9.239,28.582c5.443,14.212,21.916,19.42,34.332,12.402L220.565,392.675z"/>
<path d="M117.861,343.522l-2.474-6.389c-3.108-8.021-14.128-8.644-18.187-1.195c-3.59,6.589-13.256,6.025-16.145-1.435l-2.839-7.329  c-1.516-3.913-5.916-5.858-9.832-4.342c-3.913,1.516-5.858,5.917-4.342,9.832l2.839,7.329c5.839,15.076,24.507,20.809,37.469,10.562  c5.244,11.11,18.476,16.844,30.462,12.202c9.19-3.56,15.365-12.594,15.365-22.479c0-7.778-1.794-7.717-22.6-62.821  c-5.722-14.773-24.498-20.383-37.352-10.173c-4.9-9.911-16.479-15.624-26.953-13.276c-11.096,2.492-18.845,12.171-18.845,23.537  c0,7.177,2.68,10.35,8.639,26.772c1.516,3.914,5.917,5.859,9.832,4.342c3.913-1.516,5.858-5.917,4.342-9.832  c-6.893-18.293-7.613-18.453-7.613-21.282c0-4.919,4.046-8.862,8.424-8.862c3.594,0,7.555,2.677,8.828,5.967  c1.346,2.203,2.353,12.239,11.712,12.239c3.663,0,7.077-1.983,8.909-5.176c3.702-6.452,13.246-5.629,15.905,1.233  c21.735,56.67,21.574,54.268,21.574,57.332C134.979,350.098,121.378,352.599,117.861,343.522z"/>
<path d="M498.866,0.764c-0.03,0.01-0.061,0.03-0.081,0.03c-28.878,12.362-57.198,31.471-84.15,56.803  c-3.06,2.878-3.212,7.691-0.334,10.74c2.867,3.06,7.68,3.212,10.74,0.334c22.139-20.802,45.16-37.166,68.516-48.727  c-16.615,52.777-52.321,100.209-91.729,139.038c-6.012-2.351-12.03,3.426-9.96,9.535c-4.661,4.337-9.109,8.309-13.233,11.896  c-6.016-9.807-16.15-18.216-26.071-22.312c2.756-4.377,5.806-9.079,9.16-14.033c8.348,6.556,9.689,9.818,14.256,9.818  c7.035,0,10.292-8.791,4.945-13.375l-10.467-8.967c2.299-3.167,1.631-2.266,2.726-3.749c0-0.113,6.4-8.525,6.708-8.927  l18.593,15.928c3.253,2.771,8.011,2.325,10.72-0.821c2.726-3.192,2.361-7.984-0.831-10.72l-19.009-16.283  c4.843-5.887,9.798-11.602,14.763-17.043c2.827-3.101,2.614-7.913-0.486-10.74c-3.101-2.827-7.903-2.614-10.74,0.486  c-10.701,11.751-21.349,24.669-31.948,39.091c0,0.282-10.336,13.449-23.984,35.626c-22.069-1.59-43.046,10.847-52.922,30.377  c-4.012,7.873-4.866,16.069-8.491,22.099c-3.435,5.694-8.42,10.568-14.824,14.469c-7.774,4.71-15.158,6.776-22.95,8.754  c-2.665,0.679-7.62,1.945-12.088,2.797c-9.867,1.874-13.534,14.276-6.1,21.146c5.401,5.005,11.207,9.362,17.256,12.949  c3.607,2.138,8.268,0.942,10.416-2.665c2.138-3.607,0.942-8.268-2.665-10.406c-3.567-2.118-7.052-4.56-10.396-7.295  c22.495-5.197,42.454-12.122,54.371-31.907c4.957-8.225,5.804-16.854,9.018-23.062c10.393-20.593,39.222-31.978,61.828-10.953  c19.449,18.268,13.82,51.017-11.744,66.783c-21.214,12.721-51.227,20.98-77.26,16.131c-4.124-0.77-8.086,1.956-8.856,6.079  c-0.78,4.124,1.945,8.096,6.069,8.866c14.183,2.648,28.638,2.084,42.668-0.73c2.32,42.594,30.541,76.653,68.384,93.199  c17.63,7.711,29.03,25.118,29.03,44.33c0,15.675-8.211,26.531-8.369,26.861c-48.146,59.089-117.187,64.78-189.214,42.698  c-4.012-1.236-8.268,1.023-9.494,5.036c-1.226,4.012,1.023,8.268,5.036,9.494c79.259,24.265,153.834,15.957,205.679-47.906  c0.311-0.377,0.601-0.848,0.871-1.246c21.935-32.616,8.806-77.329-27.449-93.188c-33.034-14.456-58.588-44.763-59.427-83.177  c17.782-5.644,29.658-13.091,30.397-13.557c24.175-14.988,34.676-41.967,29.019-65.172  c55.158-47.032,108.559-111.681,126.909-183.367C513.649,4.226,505.997-2.274,498.866,0.764z"/>
<g>
</g>
<g>
</g>
<g>
</g>
<g>
</g>
<g>
</g>
<g>
</g>
<g>
</g>
<g>
</g>
<g>
</g>
<g>
</g>
<g>
</g>
<g>
</g>
<g>
</g>
<g>
</g>
<g>
</g>
</svg>
