<?xml version="1.0" encoding="iso-8859-1"?>
<!-- Generator: Adobe Illustrator 19.0.0, SVG Export Plug-In . SVG Version: 6.00 Build 0)  -->
<svg xmlns="http://www.w3.org/2000/svg" xmlns:xlink="http://www.w3.org/1999/xlink" version="1.1" id="Capa_1" x="0px" y="0px" viewBox="0 0 512 512" style="enable-background:new 0 0 512 512;" xml:space="preserve">
<rect x="217.286" y="299.301" style="fill:#ACABB1;" width="77.487" height="179.273"/>
<path style="fill:#C6C5CA;" d="M294.775,355.517v123.057h-41.022V376.691c0-11.694,9.48-21.174,21.174-21.174L294.775,355.517  L294.775,355.517z"/>
<path style="fill:#57565C;" d="M375.291,478.665v2.948c-0.051,12.59-10.271,22.79-22.881,22.79H159.655  c-12.641,0-22.881-10.251-22.881-22.881v-2.856c0-12.631,10.24-22.881,22.881-22.881h192.755  C365.05,455.784,375.291,466.035,375.291,478.665z"/>
<path style="fill:#787680;" d="M375.291,481.613c-0.051,12.59-10.271,22.79-22.881,22.79h-183.74  c0.051-12.6,10.281-22.79,22.892-22.79H375.291z"/>
<path style="fill:#D8D7DA;" d="M452.777,322.089H59.285c-27.69,0-50.136-22.447-50.136-50.135V57.735  c0-27.69,22.447-50.136,50.136-50.136h393.492c27.69,0,50.136,22.447,50.136,50.136v214.218  C502.913,299.642,480.467,322.089,452.777,322.089z"/>
<path style="fill:#78B9EB;" d="M473.299,66.456v192.957c0,1.165-0.061,2.32-0.192,3.464c-1.722,15.852-15.143,28.189-31.461,28.189  H70.418c-17.483,0-31.653-14.17-31.653-31.653V66.456c0-17.483,14.17-31.653,31.653-31.653h371.227  C459.128,34.803,473.299,48.974,473.299,66.456z"/>
<path style="fill:#96C8EF;" d="M473.299,66.456v192.957c0,1.165-0.061,2.32-0.192,3.464H102.659  c-17.483,0-31.653-14.17-31.653-31.653V38.267c0-1.165,0.061-2.32,0.192-3.464h370.447  C459.128,34.803,473.299,48.974,473.299,66.456z"/>
<path style="fill:#FF9811;" d="M361.515,70.589v87.444c0,3.981-3.17,7.252-7.1,7.414c-0.111,0.02-0.213,0.02-0.324,0.02H244.586  c-4.082,0-7.425-3.343-7.425-7.435V70.589c0-4.082,3.343-7.425,7.425-7.425h109.504C358.173,63.164,361.515,66.507,361.515,70.589z"/>
<path style="fill:#3E3D42;" d="M369.026,179.824l18.703,63.792c2.2,7.503,12.892,7.315,14.827-0.261l6.915-27.081  c0.696-2.725,2.823-4.852,5.547-5.547l27.081-6.915c7.576-1.935,7.764-12.627,0.261-14.827l-63.792-18.703  C372.733,168.573,367.316,173.991,369.026,179.824z"/>
<path style="fill:#FF3F62;" d="M232.694,228.409L186.283,84.506c-3.798-11.77-14.758-19.752-27.125-19.752h-10.737  c-6.179,0-12.013,1.995-16.774,5.46s-8.448,8.407-10.342,14.292L74.894,228.409c-5.297,16.419,6.948,33.223,24.188,33.223  c5.48,0,10.656-1.752,14.89-4.811c4.234-3.059,7.526-7.414,9.248-12.621l4.193-12.651c3.17-9.592,12.145-16.075,22.243-16.075h8.265  c5.054,0,9.825,1.621,13.725,4.436c3.9,2.826,6.938,6.837,8.529,11.638l4.183,12.651c3.444,10.413,13.178,17.432,24.137,17.432  c14.495,0,25.444-11.861,25.444-25.383C233.94,233.676,233.546,231.032,232.694,228.409z M137.567,180.089l14.429-47.185  c0.794-2.598,4.473-2.598,5.267,0l14.429,47.185c0.541,1.77-0.783,3.559-2.634,3.559H140.2  C138.35,183.649,137.026,181.859,137.567,180.089z"/>
<path d="M16.745,57.735c0-23.459,19.083-42.542,42.542-42.542h124.05c4.193,0,7.597-3.403,7.597-7.597S187.53,0,183.336,0H59.286  C27.451,0,1.551,25.9,1.551,57.735c0.6,228.508-1.35,216.09,1.752,228.368c1.003,3.962,5.01,6.545,9.217,5.51  c4.072-1.033,6.543-5.156,5.51-9.228C15.67,272.999,17.183,280.689,16.745,57.735z"/>
<path d="M452.777,0H213.723c-4.204,0-7.597,3.403-7.597,7.597s3.393,7.597,7.597,7.597h239.054  c23.459,0,42.542,19.083,42.542,42.542v111.632c0,4.193,3.403,7.597,7.597,7.597s7.597-3.403,7.597-7.597V57.735  C510.512,25.9,484.612,0,452.777,0z"/>
<path d="M502.916,192.157c-4.193,0-7.597,3.393-7.597,7.597v72.199c0,23.459-19.083,42.542-42.542,42.542  c-15.781,0-375.007,0-393.491,0c-10.291,0-20.217-3.727-27.966-10.484c-3.15-2.755-7.951-2.431-10.716,0.729  c-2.755,3.16-2.431,7.961,0.729,10.716c10.514,9.177,23.985,14.231,37.953,14.231h150.405v118.499h-50.037  c-16.814,0-30.478,13.674-30.478,30.478v2.856c0,16.804,13.664,30.478,30.478,30.478h192.755c16.814,0,30.478-13.674,30.478-30.478  v-2.856c0-16.804-13.664-30.478-30.478-30.478h-50.037V329.688h150.405c31.835,0,57.735-25.9,57.735-57.735v-72.199  C510.512,195.55,507.109,192.157,502.916,192.157z M224.885,329.688h62.293v118.499h-62.293V329.688z M352.409,463.381  c8.427,0,15.285,6.857,15.285,15.285v2.856c0,8.427-6.857,15.285-15.285,15.285H159.655c-8.427,0-15.285-6.857-15.285-15.285v-2.856  c0-8.427,6.857-15.285,15.285-15.285C227.527,463.381,285.035,463.381,352.409,463.381z"/>
<path d="M296.078,27.206H70.418c-21.643,0-39.25,17.607-39.25,39.25v154.069c0,4.195,3.4,7.597,7.597,7.597s7.597-3.401,7.597-7.597  V66.456c0-13.265,10.791-24.056,24.056-24.056h225.66c4.196,0,7.597-3.401,7.597-7.597S300.273,27.206,296.078,27.206z"/>
<path d="M38.765,243.315c-4.196,0-7.597,3.401-7.597,7.597v8.501c0,21.643,17.607,39.25,39.25,39.25h371.227  c21.643,0,39.25-17.607,39.25-39.25V66.456c0-21.643-17.607-39.25-39.25-39.25H326.465c-4.196,0-7.597,3.401-7.597,7.597  s3.4,7.597,7.597,7.597h115.181c13.265,0,24.056,10.791,24.056,24.056v192.957c0,13.265-10.791,24.056-24.056,24.056H70.418  c-13.265,0-24.056-10.791-24.056-24.056v-8.501C46.362,246.717,42.961,243.315,38.765,243.315z"/>
<path d="M395.014,241.46c0.001,0.003,0.002,0.006,0.003,0.009c0,0.001,0.001,0.002,0.001,0.003  c-0.002-0.008-0.005-0.018-0.008-0.028C395.011,241.45,395.012,241.456,395.014,241.46z"/>
<path d="M229.561,70.592v87.446c0,8.285,6.74,15.024,15.025,15.024h109.501c3.435,0,6.595-1.172,9.128-3.119  c-2.099,3.585-2.681,7.924-1.481,12.019l18.703,63.792c4.366,14.888,25.635,14.534,29.477-0.519l6.982-27.147l27.08-6.915  c15.01-3.832,15.455-25.099,0.52-29.477l-63.792-18.702c-4.73-1.389-9.789-0.399-13.63,2.564c3.671-6.312,1.304-4.107,2.038-94.966  c0-1.79-0.331-3.501-0.908-5.094c-0.173-1.275-0.668-2.524-1.51-3.615c-0.501-0.648-1.088-1.189-1.73-1.628  c-2.739-2.881-6.596-4.688-10.875-4.688H244.586C236.301,55.567,229.561,62.306,229.561,70.592z M440.284,196.297  c0.005,0.044,0.005,0.095-0.002,0.138c-2.245,0.686,7.895-2.016-27.144,6.933c-5.42,1.384-9.645,5.609-11.028,11.028  c-9.13,35.747-6.36,25.081-6.933,27.145c-0.044,0.006-0.095,0.008-0.139,0.002c-0.006-0.017-0.012-0.037-0.019-0.062  c0-0.002-0.001-0.005-0.002-0.008c0,0.001,0.001,0.002,0.001,0.003c-0.001-0.003-0.001-0.004-0.002-0.007  c-0.001-0.003-0.001-0.005-0.003-0.009c-0.018-0.064-0.013-0.044-0.005-0.016c-0.152-0.517-2.008-6.845-18.71-63.791  C376.316,177.606,440.237,196.279,440.284,196.297z M254.937,157.868l44.403-34.322l45.11,34.322H254.937z M353.918,145.981  l-42.132-32.055l42.132-32.566V145.981z M342.787,70.76l-43.52,33.639L255.053,70.76H342.787z M244.754,82.014l42.066,32.006  l-42.066,32.515V82.014z"/>
<path d="M207.814,151.278c3.993-1.287,6.186-5.569,4.898-9.562l-19.202-59.541c-4.825-14.962-18.63-25.015-34.35-25.015h-10.738  c-15.721,0-29.525,10.053-34.35,25.015C65.155,235.628,66.051,227.085,66.051,236.254c0,18.184,14.821,32.978,33.037,32.978  c14.266,0,26.863-9.099,31.345-22.642l4.188-12.653c2.151-6.499,8.195-10.864,15.042-10.864h8.258  c6.846,0,12.89,4.367,15.042,10.864l4.188,12.652c4.483,13.543,17.078,22.642,31.345,22.642c18.216,0,33.037-14.793,33.037-32.978  c0-8.926-2.014-9.86-19.493-65.618c-1.287-3.993-5.57-6.186-9.561-4.898c-3.993,1.287-6.186,5.569-4.898,9.562  c18.503,58.294,18.76,56.071,18.76,60.954c0,9.806-8.004,17.784-17.843,17.784c-7.702,0-14.502-4.913-16.921-12.224l-4.189-12.652  c-4.214-12.73-16.055-21.283-29.465-21.283h-8.258c-13.41,0-25.252,8.553-29.465,21.284l-4.188,12.653  c-2.42,7.311-9.22,12.223-16.921,12.223c-11.938,0-20.734-11.603-16.965-23.296l46.409-143.904  c2.795-8.664,10.787-14.485,19.891-14.485h10.738c9.103,0,17.097,5.821,19.891,14.484l19.202,59.54  C199.54,150.373,203.822,152.565,207.814,151.278z"/>
<path d="M154.627,116.697c-3.341,0-6.288,2.182-7.265,5.375l-18.15,59.355c-1.492,4.879,2.163,9.818,7.265,9.818h36.301  c2.409,0,4.675-1.142,6.107-3.078c1.432-1.937,1.862-4.437,1.158-6.74l-18.151-59.355  C160.915,118.878,157.966,116.697,154.627,116.697z M146.744,176.052l7.882-25.78l7.883,25.78H146.744z"/>
<g>
</g>
<g>
</g>
<g>
</g>
<g>
</g>
<g>
</g>
<g>
</g>
<g>
</g>
<g>
</g>
<g>
</g>
<g>
</g>
<g>
</g>
<g>
</g>
<g>
</g>
<g>
</g>
<g>
</g>
</svg>
