<?xml version="1.0" encoding="iso-8859-1"?>
<!-- Generator: Adobe Illustrator 19.0.0, SVG Export Plug-In . SVG Version: 6.00 Build 0)  -->
<svg xmlns="http://www.w3.org/2000/svg" xmlns:xlink="http://www.w3.org/1999/xlink" version="1.1" id="Capa_1" x="0px" y="0px" viewBox="0 0 512 512" style="enable-background:new 0 0 512 512;" xml:space="preserve">
<path style="fill:#EE8700;" d="M256,504.224L256,504.224c-9.983,0-18.15-8.168-18.15-18.15V316.524c0-4.852,3.971-8.823,8.823-8.823  h18.654c4.853,0,8.823,3.971,8.823,8.823v169.55C274.15,496.056,265.982,504.224,256,504.224z"/>
<path style="fill:#FF9811;" d="M342.465,500.336L342.465,500.336c8.986-4.348,12.781-15.257,8.433-24.243l-73.121-154.037  c-2.113-4.368-7.417-6.212-11.785-4.099l-16.792,8.125c-4.368,2.113-6.212,7.417-4.099,11.785l73.12,154.037  C322.569,500.89,333.478,504.684,342.465,500.336z"/>
<path style="fill:#FFA733;" d="M169.535,500.336L169.535,500.336c-8.986-4.348-12.781-15.257-8.433-24.243l73.12-154.037  c2.113-4.368,7.417-6.212,11.785-4.099l16.792,8.125c4.368,2.113,6.212,7.417,4.099,11.785l-73.12,154.037  C189.431,500.89,178.522,504.684,169.535,500.336z"/>
<path style="fill:#CC7400;" d="M263.189,64.183h-14.38c-7.21,0-13.108-5.899-13.108-13.108V28.019  c0-11.164,9.135-20.298,20.298-20.298l0,0c11.164,0,20.298,9.135,20.298,20.298v23.056  C276.298,58.285,270.399,64.183,263.189,64.183z"/>
<path style="fill:#FFA733;" d="M361.462,74.413v231.514c0,6.655-5.445,12.1-12.1,12.1H162.638c-6.655,0-12.1-5.445-12.1-12.1V74.413  c0-6.655,5.445-12.1,12.1-12.1h186.723C356.017,62.313,361.462,67.758,361.462,74.413z"/>
<path style="fill:#FFB655;" d="M361.462,74.413v231.514c0,6.655-5.445,12.1-12.1,12.1H193.897c-6.655,0-12.1-5.445-12.1-12.1V74.413  c0-6.655,5.445-12.1,12.1-12.1h155.465C356.017,62.313,361.462,67.758,361.462,74.413z"/>
<g>
	<path style="fill:#EE8700;" d="M387.588,52.522v16.789c0,6.937-5.667,12.604-12.604,12.604H137.016   c-6.937,0-12.604-5.667-12.604-12.604V52.522c0-6.927,5.667-12.604,12.604-12.604h237.967   C381.921,39.918,387.588,45.595,387.588,52.522z"/>
	<path style="fill:#EE8700;" d="M387.588,311.029v16.789c0,6.937-5.667,12.604-12.604,12.604H137.016   c-6.937,0-12.604-5.667-12.604-12.604v-16.789c0-6.927,5.667-12.604,12.604-12.604h237.967   C381.921,298.425,387.588,304.102,387.588,311.029z"/>
</g>
<g>
	<path style="fill:#FF9811;" d="M387.588,52.522v16.789c0,6.937-5.667,12.604-12.604,12.604H174.325   c-6.937,0-12.604-5.667-12.604-12.604V52.522c0-6.927,5.667-12.604,12.604-12.604h200.659   C381.921,39.918,387.588,45.595,387.588,52.522z"/>
	<path style="fill:#FF9811;" d="M387.588,311.029v16.789c0,6.937-5.667,12.604-12.604,12.604H174.325   c-6.937,0-12.604-5.667-12.604-12.604v-16.789c0-6.927,5.667-12.604,12.604-12.604h200.659   C381.921,298.425,387.588,304.102,387.588,311.029z"/>
</g>
<path d="M374.983,32.355H283.86v-4.336c0-29.796-41.125-35.392-38.498-18.866c0.655,4.124,4.527,6.937,8.652,6.282  c7.842-1.207,14.722,4.876,14.722,12.584v4.336h-25.471v-2.783c0-4.175-3.388-7.563-7.563-7.563c-4.174,0-7.563,3.388-7.563,7.563  v2.783h-46.666c-4.174,0-7.563,3.388-7.563,7.563s3.388,7.563,7.563,7.563c24.63,0,171.624,0,193.51,0  c2.733,0,5.042,2.309,5.042,5.042v16.789c0,2.733-2.309,5.042-5.042,5.042c-116.128,0-171.166,0-237.967,0  c-2.733,0-5.042-2.309-5.042-5.042V52.522c0-2.733,2.309-5.042,5.042-5.042h14.207c4.174,0,7.563-3.388,7.563-7.563  s-3.388-7.563-7.563-7.563h-14.207c-11.122,0-20.167,9.045-20.167,20.167v16.789c0,11.122,9.045,20.167,20.167,20.167h5.959v59.169  c0,4.174,3.388,7.563,7.563,7.563c4.185,0,7.563-3.388,7.563-7.563V89.477h195.798v18.745c0,4.175,3.378,7.563,7.563,7.563  c4.175,0,7.563-3.388,7.563-7.563V89.477h5.959c11.122,0,20.167-9.045,20.167-20.167V52.522  C395.15,41.4,386.105,32.355,374.983,32.355z"/>
<path d="M374.983,290.862h-5.959v-152.39c0-4.174-3.388-7.563-7.563-7.563c-4.185,0-7.563,3.388-7.563,7.563v152.39H158.101V178.897  c0-4.185-3.378-7.563-7.563-7.563c-4.174,0-7.563,3.378-7.563,7.563v111.965h-5.959c-11.122,0-20.167,9.055-20.167,20.167v16.789  c0,11.122,9.045,20.167,20.167,20.167h76.553l-59.27,125.023c-6.181,12.766-0.817,28.173,11.939,34.344  c3.509,1.694,7.26,2.561,11.152,2.561c9.831,0,18.937-5.697,23.222-14.56l29.675-62.597v53.532C230.287,500.465,241.823,512,256,512  c14.177,0,25.713-11.535,25.713-25.713v-53.543l29.706,62.658c4.255,8.813,13.36,14.51,23.192,14.51  c3.892,0,7.643-0.867,11.152-2.561c12.755-6.171,18.12-21.578,11.969-34.293l-59.29-125.074h32.085c4.174,0,7.563-3.378,7.563-7.563  c0-4.175-3.388-7.563-7.563-7.563c-38.565,0-152.677,0-193.509,0c-2.733,0-5.042-2.309-5.042-5.042v-16.789  c0-2.733,2.309-5.042,5.042-5.042h237.967c2.733,0,5.042,2.309,5.042,5.042v16.789c0,2.733-2.309,5.042-5.042,5.042h-14.207  c-4.175,0-7.563,3.388-7.563,7.563c0,4.185,3.388,7.563,7.563,7.563h14.207c11.122,0,20.167-9.045,20.167-20.167v-16.789  C395.15,299.917,386.105,290.862,374.983,290.862z M270.374,348.186c0.001-0.002,0.002-0.004,0.003-0.007l0,0  c0,0,0-0.001,0.001-0.001v0.001v-0.001c0.001-0.001,0.002-0.004,0.002-0.005c0,0.001-0.001,0.002-0.001,0.003  c0.059-0.123,0.085-0.178,0.091-0.192h11.233l0.01,0.03l62.376,131.578c2.541,5.264,0.333,11.606-4.921,14.147  c-1.432,0.696-2.965,1.049-4.558,1.049c-4.064,0-7.825-2.349-9.559-5.919l-43.338-91.416c-0.131-0.276-16.451-34.709-17.343-36.592  C268.765,351.58,270.051,348.866,270.374,348.186z M266.587,400.851v85.436c0,5.838-4.749,10.588-10.588,10.588  c-5.838,0-10.588-4.749-10.588-10.588v-85.446L256,378.517L266.587,400.851z M230.297,347.984h23.434  c-10.919,23.032-47.417,100.014-66.762,140.834c-1.755,3.62-5.516,5.969-9.579,5.969c-1.593,0-3.126-0.353-4.558-1.049  c-5.253-2.541-7.462-8.883-4.9-14.197l62.355-131.537L230.297,347.984z"/>
<g>
</g>
<g>
</g>
<g>
</g>
<g>
</g>
<g>
</g>
<g>
</g>
<g>
</g>
<g>
</g>
<g>
</g>
<g>
</g>
<g>
</g>
<g>
</g>
<g>
</g>
<g>
</g>
<g>
</g>
</svg>
