<?xml version="1.0" encoding="iso-8859-1"?>
<!-- Generator: Adobe Illustrator 19.0.0, SVG Export Plug-In . SVG Version: 6.00 Build 0)  -->
<svg xmlns="http://www.w3.org/2000/svg" xmlns:xlink="http://www.w3.org/1999/xlink" version="1.1" id="Capa_1" x="0px" y="0px" viewBox="0 0 512 512" style="enable-background:new 0 0 512 512;" xml:space="preserve">
<path style="fill:#FFDAAA;" d="M425.742,57.944c0-27.618-22.596-50.214-50.224-50.214H167.033  c-27.628,0-50.224,22.596-50.224,50.214v14.205v2.537c0,0.916,0.033,1.823,0.083,2.725c0.005,0.085,0.002,0.172,0.008,0.258  c0.03,0.528,0.071,1.055,0.122,1.583c0.731,7.985,3.348,15.443,7.397,21.926c0.051,0.081,0.101,0.152,0.142,0.223  c0.994,1.573,2.08,3.084,3.237,4.535c9.213,11.546,23.397,18.974,39.236,18.974h208.486c18.588,0,34.913-10.238,43.578-25.356  c0.984-1.694,1.867-3.45,2.638-5.266c2.212-5.164,3.571-10.775,3.916-16.64c0.061-0.984,0.091-1.968,0.091-2.963v-2.537  c0-1.577-0.083-3.134-0.227-4.675l0.227,0.282L425.742,57.944L425.742,57.944z"/>
<path style="fill:#EE8700;" d="M306.311,304.093v182.602c0,9.73-7.965,17.695-17.695,17.695h-34.68  c-9.73,0-17.695-7.965-17.695-17.695V304.093c0-9.73,7.965-17.685,17.695-17.685h34.68  C298.346,286.408,306.311,294.362,306.311,304.093z"/>
<path style="fill:#FF9811;" d="M306.311,304.093v170.873h-19.907c-9.73,0-17.695-7.965-17.695-17.695V286.408h19.907  C298.346,286.408,306.311,294.362,306.311,304.093z"/>
<path style="fill:#FFC477;" d="M425.742,72.149v2.537c0,0.994-0.03,1.979-0.091,2.963c-0.345,5.865-1.705,11.475-3.916,16.64  c-0.771,1.816-1.654,3.571-2.638,5.266l-7.671-9.537c-6.757-8.401-19.298-8.401-26.045,0l-17.178,21.358  c-5.489,6.839-15.696,6.839-21.185,0l-17.188-21.358c-6.747-8.401-19.288-8.401-26.035,0l-17.188,21.368  c-5.489,6.828-15.686,6.828-21.185,0l-17.188-21.368c-6.747-8.401-19.288-8.401-26.035,0l-17.188,21.368  c-5.489,6.828-15.686,6.828-21.185,0l-17.188-21.368c-6.757-8.401-19.288-8.401-26.045,0l-12.794,15.919  c-1.157-1.451-2.242-2.963-3.237-4.535c-0.041-0.071-0.091-0.142-0.142-0.223c-4.048-6.483-6.666-13.941-7.397-21.926  c-0.051-0.528-0.091-1.055-0.122-1.583c-0.061-0.984-0.091-1.979-0.091-2.983v-2.537c0-27.618,22.596-50.214,50.224-50.214h208.486  C403.146,21.935,425.742,44.531,425.742,72.149z"/>
<path style="fill:#5AAAE7;" d="M425.742,57.944v9.811l-14.316-17.807c-6.757-8.401-19.298-8.401-26.045,0l-17.178,21.358  c-5.489,6.839-15.696,6.839-21.185,0l-17.188-21.358c-6.747-8.401-19.288-8.401-26.035,0l-17.188,21.368  c-5.489,6.828-15.686,6.828-21.185,0l-17.188-21.368c-6.747-8.401-19.288-8.401-26.035,0L205.01,71.317  c-5.489,6.828-15.686,6.828-21.185,0l-17.188-21.368c-6.757-8.401-19.288-8.401-26.045,0l-23.57,29.302  c-0.142-1.502-0.213-3.024-0.213-4.566V57.944c0-27.618,22.596-50.214,50.224-50.214h208.486  C403.146,7.73,425.742,30.326,425.742,57.944z"/>
<path d="M422.547,24.38c-2.445-3.419-7.194-4.201-10.613-1.755s-4.201,7.204-1.755,10.623c2.192,3.054,3.947,6.352,5.246,9.801  c-10.197-10.06-26.811-9.244-35.979,2.131c-17.858,21.689-17.561,23.641-21.835,23.641c-1.055,0-3.064-0.294-4.667-2.283  L335.766,45.18c-9.789-12.193-28.124-12.185-37.906,0l-17.178,21.368c-2.462,3.04-6.865,3.048-9.335,0L254.17,45.18  c-9.769-12.168-28.084-12.209-37.906,0l-17.178,21.368c-2.462,3.04-6.865,3.048-9.335,0L172.563,45.17  c-9.801-12.188-28.114-12.163-37.896,0l-10.248,12.744c0.02-23.478,19.126-42.574,42.604-42.574  c221.845,0.856,210.596-1.929,222.873,2.506c3.947,1.431,8.32-0.609,9.751-4.566c1.42-3.947-0.619-8.31-4.576-9.74  c-16.569-6.006-9.655-2.29-228.048-3.419c-31.88,0-57.824,25.944-57.824,57.824v3.409C92.002,63.17,78.568,77.75,78.568,95.414  v55.723c0,14.124,8.492,26.614,21.622,31.829c0.213,0.081,0.446,0.162,0.67,0.223l145.112,42.391  c10.187,4.18,16.741,13.951,16.741,24.98v28.237h-8.777c-13.951,0-25.305,11.344-25.305,25.295v11.709c0,4.201,3.409,7.61,7.61,7.61  c4.201,0,7.61-3.409,7.61-7.61v-11.709c0-5.56,4.525-10.075,10.085-10.075c19.789,0,14.802,0,34.68,0  c5.56,0,10.085,4.515,10.085,10.075v100.966c0,4.211,3.409,7.61,7.61,7.61s7.61-3.399,7.61-7.61V304.093  c0-13.951-11.354-25.295-25.305-25.295h-10.684v-28.237c0-19.436-13.479-35.271-27.334-39.489l-145.102-42.381  c-7.123-2.963-11.709-9.822-11.709-17.553V95.414c0-9.274,6.666-17.015,15.453-18.679v0.051c0.193,5.286,1.096,10.4,2.618,15.24  c7.376,23.448,29.323,40.494,55.165,40.494h208.506c31.375,0,56.887-25.075,57.793-56.129  C433.354,56.959,435.183,42.002,422.547,24.38z M418.102,76.39c-0.903,22.707-19.653,40.91-42.574,40.91H167.022  c-21.165,0-38.779-15.524-42.056-35.786l21.561-26.796c3.679-4.599,10.446-4.647,14.184,0l17.188,21.368  c8.558,10.65,24.536,10.59,33.046,0l17.178-21.368c3.681-4.575,10.431-4.665,14.184,0l17.178,21.368  c8.605,10.66,24.538,10.58,33.057,0l17.178-21.368c3.681-4.575,10.431-4.665,14.184,0l17.178,21.358  c8.443,10.553,24.451,10.682,33.057,0l17.168-21.358c3.681-4.575,10.431-4.665,14.184,0l12.642,15.717  C418.125,74.412,418.152,75.01,418.102,76.39z"/>
<path d="M306.311,427.887c-4.201,0-7.61,3.409-7.61,7.61v51.198c0,5.56-4.525,10.085-10.085,10.085h-34.68  c-5.56,0-10.085-4.525-10.085-10.085V346.24c0-4.201-3.409-7.61-7.61-7.61c-4.201,0-7.61,3.409-7.61,7.61v140.455  c0,13.951,11.354,25.305,25.305,25.305h34.68c13.951,0,25.305-11.354,25.305-25.305v-51.198  C313.921,431.296,310.511,427.887,306.311,427.887z"/>
<g>
</g>
<g>
</g>
<g>
</g>
<g>
</g>
<g>
</g>
<g>
</g>
<g>
</g>
<g>
</g>
<g>
</g>
<g>
</g>
<g>
</g>
<g>
</g>
<g>
</g>
<g>
</g>
<g>
</g>
</svg>
