<?xml version="1.0" encoding="iso-8859-1"?>
<!-- Generator: Adobe Illustrator 19.0.0, SVG Export Plug-In . SVG Version: 6.00 Build 0)  -->
<svg xmlns="http://www.w3.org/2000/svg" xmlns:xlink="http://www.w3.org/1999/xlink" version="1.1" id="Capa_1" x="0px" y="0px" viewBox="0 0 512 512" style="enable-background:new 0 0 512 512;" xml:space="preserve">
<path style="fill:#FF9811;" d="M249.715,502.942c-0.01,0.01-0.01,0.041-0.02,0.051c-0.923,1.867-3.601,1.867-4.514,0  c-0.01-0.01-0.01-0.041-0.02-0.051c-33.922-68.818-40.8-148.013-38.477-212.895c0.527-14.932,1.552-29.124,2.84-42.24  c2.759-28.038,6.736-51.228,9.82-66.637c7.192,3.51,15.216,5.64,23.869,6.036c0.994,0.041,2.009,0.071,3.023,0.071  c0.396,0,0.801-0.01,1.197-0.02c0.406,0.01,0.812,0.02,1.207,0.02c1.014,0,2.019-0.03,3.023-0.071  c0.385-0.02,0.791-0.041,1.187-0.061c8.247-0.527,15.865-2.658,22.662-6.056c3.094,15.419,7.081,38.639,9.84,66.718  c1.288,13.127,2.313,27.308,2.84,42.24C290.516,354.928,283.638,434.124,249.715,502.942z"/>
<path style="fill:#EE8700;" d="M266.21,462.862c-4.605,13.624-10.063,27.034-16.494,40.079c-0.01,0.01-0.01,0.041-0.02,0.051  c-0.923,1.867-3.601,1.867-4.514,0c-0.01-0.01-0.01-0.041-0.02-0.051c-33.922-68.818-40.8-148.013-38.477-212.895  c0.527-14.932,1.552-29.124,2.84-42.24c2.759-28.038,6.736-51.228,9.82-66.637c7.192,3.51,15.216,5.64,23.869,6.036  c0.994,0.041,2.009,0.071,3.023,0.071c0.396,0,0.801-0.01,1.197-0.02c0.406,0.01,0.812,0.02,1.207,0.02  c1.014,0,2.019-0.03,3.023-0.071c0.385-0.02,0.791-0.041,1.187-0.061c0.974-0.061,1.948-0.152,2.911-0.254  c-2.881,15.176-6.269,36.154-8.704,60.916c-1.288,13.116-2.313,27.308-2.84,42.24C242.331,342.634,246.5,404.625,266.21,462.862z"/>
<path style="fill:#FFB655;" d="M327.784,18.204c-5.001,6.249-10.124,13.745-11.585,15.784c-6.746,9.353-12.599,19.527-16.21,30.534  c-3.479,10.661-4.758,21.982-2.891,33.1c1.359,8.075,5.092,15.074,8.054,22.408c1.146,2.83,2.191,5.711,2.922,8.734  c2.597,10.611,2.424,21.394-0.061,31.447c-1.745,7.081-4.646,13.806-8.552,19.852c-9.931,15.399-26.334,26.385-46.612,27.683  c-0.396,0.02-0.801,0.041-1.187,0.061c-1.004,0.041-2.009,0.071-3.023,0.071c-0.396,0-0.801-0.01-1.207-0.02  c-0.396,0.01-0.801,0.02-1.197,0.02c-1.014,0-2.029-0.03-3.023-0.071c-37.726-1.694-63.523-36.478-60.124-75.34  c0.507-5.823,1.674-11.737,3.561-17.651c0,0,18.32-60.063,68.798-90.273c18.158-10.864,40.465-17.864,67.58-16.829  C328.301,7.918,331.071,14.085,327.784,18.204z"/>
<path style="fill:#FFC477;" d="M327.784,18.204c-5.001,6.249-10.124,13.745-11.585,15.784c-6.746,9.353-12.599,19.527-16.21,30.534  c-3.479,10.661-4.758,21.982-2.891,33.1c1.359,8.075,5.092,15.074,8.054,22.408c1.146,2.83,2.191,5.711,2.922,8.734  c2.597,10.611,2.424,21.394-0.061,31.447c-1.745,7.081-4.646,13.806-8.552,19.852c-5.316,1.988-11.047,3.256-17.133,3.642  c-0.396,0.02-0.801,0.041-1.187,0.061c-1.004,0.041-2.009,0.071-3.023,0.071c-0.396,0-0.801-0.01-1.207-0.02  c-0.396,0.01-0.801,0.02-1.197,0.02c-1.014,0-2.019-0.03-3.023-0.071c-37.726-1.704-63.523-36.488-60.124-75.351  c0.507-5.823,1.674-11.737,3.561-17.651c0,0,10.966-35.961,39.319-66.221c18.158-10.864,40.465-17.864,67.58-16.829  C328.301,7.918,331.071,14.085,327.784,18.204z"/>
<path style="fill:#FFD422;" d="M288.193,290.047h-81.508c0.527-14.932,1.552-29.124,2.84-42.24h75.827  C286.64,260.933,287.665,275.114,288.193,290.047z"/>
<path style="fill:#FFCD00;" d="M247.058,247.806c-1.288,13.116-2.313,27.308-2.84,42.24h-37.533  c0.527-14.932,1.552-29.124,2.84-42.24L247.058,247.806L247.058,247.806z"/>
<path d="M336.813,14.197c0-7.608-5.924-13.796-13.492-14.09c-35.1-1.337-67.261,9.855-94.685,35.119  C207.689,54.52,194.4,77.679,186.934,93.707c-1.775,3.804-0.132,8.328,3.682,10.104c3.804,1.775,8.328,0.132,10.104-3.682  c23.38-50.163,62.997-85.531,119.701-84.886c-12.148,15.689-22.283,30.526-27.653,46.917c-10.171,31.038,0.799,49.582,5.336,60.723  c14.284,35.24-9.186,74.941-45.659,77.268c-4.741-0.108-15.041,1.37-28.099-4.463c-24.728-11.024-37.971-39.568-32.877-68.676  c0.72-4.139-2.049-8.075-6.198-8.795c-4.139-0.72-8.075,2.049-8.795,6.198c-0.864,4.956-1.288,9.921-1.288,14.912  c0,27.593,13.165,51.26,32.38,64.344c-15.778,98.128-13.36,213.11,30.777,302.66c1.714,3.5,5.204,5.671,9.089,5.671  c3.895,0,7.385-2.171,9.109-5.691c11.635-23.605,20.846-49.909,27.379-78.161c0.943-4.088-1.603-8.176-5.701-9.13  c-4.088-0.943-8.176,1.613-9.12,5.701c-5.397,23.321-12.67,45.212-21.668,65.207c-26.864-59.662-34.917-127.709-33.364-192.272  h11.23c4.21,0,7.608-3.398,7.608-7.608c0-4.2-3.398-7.608-7.608-7.608h-10.672c0.06-2.372,0.77-15.096,1.826-27.024h27.46  c4.21,0,7.608-3.408,7.608-7.608c0-4.2-3.398-7.608-7.608-7.608h-25.949c1.177-10.601,2.506-20.369,3.845-29.104  c15.743,5.952,35.536,6.003,51.248-0.081c1.349,8.754,2.678,18.554,3.845,29.185h-2.556c-4.2,0-7.608,3.408-7.608,7.608  c0,4.2,3.408,7.608,7.608,7.608h4.078c0.817,9.54,1.368,17.304,1.836,27.024h-24.529c-4.2,0-7.608,3.408-7.608,7.608  c0,4.21,3.408,7.608,7.608,7.608h25.076c0.834,31.871-0.917,65.609-6.015,97.729c-0.659,4.149,2.171,8.044,6.32,8.704  c4.149,0.659,8.044-2.171,8.704-6.32c9.962-62.644,7.63-131.181-2.546-194.311c26.175-18.255,37.979-54.064,24.934-86.286  c-4.715-11.724-20.805-35.827,10.185-78.749C334.216,21.339,336.813,20.926,336.813,14.197z"/>
<g>
</g>
<g>
</g>
<g>
</g>
<g>
</g>
<g>
</g>
<g>
</g>
<g>
</g>
<g>
</g>
<g>
</g>
<g>
</g>
<g>
</g>
<g>
</g>
<g>
</g>
<g>
</g>
<g>
</g>
</svg>
