<?xml version="1.0" encoding="iso-8859-1"?>
<!-- Generator: Adobe Illustrator 19.0.0, SVG Export Plug-In . SVG Version: 6.00 Build 0)  -->
<svg xmlns="http://www.w3.org/2000/svg" xmlns:xlink="http://www.w3.org/1999/xlink" version="1.1" id="Capa_1" x="0px" y="0px" viewBox="0 0 512 512" style="enable-background:new 0 0 512 512;" xml:space="preserve">
<g>
	<path style="fill:#2D2D30;" d="M343.844,112.292c-4.442-9.593-14.051-15.733-24.622-15.733h-7.245h-47.381h-7.245   c-10.572,0-20.181,6.139-24.622,15.733l-18.027,38.932h49.894h47.381h49.894L343.844,112.292z"/>
	<path style="fill:#2D2D30;" d="M472.573,158.58h-77.034v-29.732c0-6.69,5.473-12.163,12.163-12.163h52.707   c6.69,0,12.163,5.473,12.163,12.163V158.58z"/>
</g>
<path style="fill:#57565C;" d="M504.413,181.592v220.681c0,16.704-13.663,30.378-30.357,30.378H37.975  c-16.694,0-30.357-13.673-30.357-30.378V181.592c0-16.704,13.663-30.367,30.357-30.367h436.081  C490.75,151.224,504.413,164.887,504.413,181.592z"/>
<path style="fill:#3E3D42;" d="M504.373,198.468v196.385h-42.51c-15.589,0-28.35-12.751-28.35-28.34V226.808  c0-15.011,11.839-27.398,26.637-28.279c0.568-0.041,1.135-0.061,1.713-0.061L504.373,198.468L504.373,198.468z"/>
<path style="fill:#2D2D30;" d="M412.82,292.718c0,29.447-10.509,56.432-28.012,77.411c-22.191,26.642-55.615,43.591-93.004,43.591  c-66.823,0-121.003-54.18-121.003-121.003c0-46.779,26.537-87.341,65.374-107.477c16.66-8.652,35.571-13.525,55.628-13.525  C358.64,171.715,412.82,225.882,412.82,292.718z"/>
<path style="fill:#1D1D1F;" d="M392.127,292.718c0,24.412-8.712,46.782-23.222,64.173c-18.396,22.086-46.105,36.137-77.098,36.137  c-55.395,0-100.309-44.915-100.309-100.309c0-38.778,21.998-72.405,54.194-89.098c13.81-7.173,29.488-11.212,46.115-11.212  C347.212,192.409,392.127,237.312,392.127,292.718z"/>
<path style="fill:#78B9EB;" d="M350.956,334.005c-1.185,1.686-2.463,3.319-3.819,4.925c-0.079,0.092-0.158,0.184-0.237,0.264  c-26.102,30.501-71.998,34.176-102.644,8.179c-30.751-26.089-34.53-72.143-8.454-102.895c6.953-8.205,15.343-14.473,24.483-18.78  c2.621-1.238,5.294-2.305,8.021-3.213c23.415-7.823,50.203-3.569,70.392,13.552C367.826,260.755,372.753,303.438,350.956,334.005z"/>
<path style="fill:#96C8EF;" d="M350.956,334.005c-25.089,11.853-55.852,8.771-78.386-10.338  c-29.144-24.733-34.07-67.402-12.287-97.969c2.621-1.238,5.294-2.305,8.021-3.213c23.415-7.823,50.203-3.569,70.392,13.552  C367.826,260.755,372.753,303.438,350.956,334.005z"/>
<circle style="fill:#D1E7F8;" cx="304.334" cy="279.865" r="23.098"/>
<g>
	<path style="fill:#2D2D30;" d="M87.456,126.703H64.204c-6.69,0-12.163-5.473-12.163-12.163V97.361   c0-6.69,5.473-12.163,12.163-12.163h23.252c6.69,0,12.163,5.473,12.163,12.163v17.178C99.62,121.23,94.146,126.703,87.456,126.703z   "/>
	<path style="fill:#2D2D30;" d="M144.159,145.193v257.049c0,16.724-13.684,30.408-30.408,30.408H38.066   c-16.724,0-30.408-13.684-30.408-30.408V145.193c0-16.724,13.684-30.408,30.408-30.408h75.686c0.334,0,0.679,0.01,1.014,0.03   C131.023,115.343,144.159,128.803,144.159,145.193z"/>
</g>
<path style="fill:#3E3D42;" d="M114.765,114.816v251.951c0,16.724-13.684,30.408-30.408,30.408H8.671  c-0.334,0-0.679-0.01-1.014-0.03V145.193c0-16.724,13.684-30.408,30.408-30.408h75.686  C114.086,114.785,114.43,114.795,114.765,114.816z"/>
<circle style="fill:#FFCD00;" cx="410.184" cy="191.52" r="15.203"/>
<path d="M480.163,144.119v-15.275c0-10.896-8.869-19.765-19.765-19.765H407.69c-10.906,0-19.765,8.869-19.765,19.765v14.778h-21.205  l-15.995-34.523c-5.666-12.234-18.032-20.14-31.523-20.14h-61.87c-11.231,0-21.813,5.463-28.31,14.616  c-2.433,3.416-1.632,8.159,1.794,10.592c3.416,2.433,8.17,1.632,10.602-1.794c3.649-5.139,9.599-8.21,15.914-8.21h61.87  c7.582,0,14.545,4.44,17.728,11.322l13.025,28.138c-15.022,0-109.046,0-123.375,0l2.352-5.078c1.764-3.811,0.111-8.332-3.7-10.095  c-3.811-1.764-8.332-0.101-10.095,3.7l-5.311,11.474h-58.11c-0.831-20.231-17.545-36.439-37.98-36.439h-6.528v-15.67  c0-10.896-8.869-19.765-19.765-19.765H64.191c-10.896,0-19.765,8.869-19.765,19.765v15.67h-6.376  c-8.707,0-17.221,3.041-23.992,8.565c-3.254,2.656-3.73,7.44-1.074,10.693c2.656,3.254,7.44,3.74,10.693,1.085  c9.102-7.423,17.954-4.455,26.283-5.139c21.843,0,51.357,0,63.776,0c12.572,0,22.806,10.22,22.806,22.806c0,2.988,0,25.346,0,29.1  c0,4.196,3.406,7.602,7.602,7.602s7.602-3.406,7.602-7.602v-15.468c345.951,0,322.766-0.04,323.957,0.071  c11.778,0.851,21.093,10.704,21.093,22.695v9.274h-13.015c-4.196,0-7.602,3.396-7.602,7.602c0,4.196,3.406,7.602,7.602,7.602h12.974  v181.181h-34.908c-11.444,0-20.748-9.305-20.748-20.738V226.808c0-8.991,6.031-17.15,14.657-19.826  c4.014-1.237,6.254-5.504,5.007-9.508c-1.237-4.014-5.504-6.254-9.508-5.007c-14.93,4.622-25.36,18.752-25.36,34.341v139.705  c0,19.816,16.126,35.942,35.952,35.942h34.949c-0.101,12.477-10.268,22.593-22.755,22.593H144.093  c3.314-4.369,5.707-9.497,6.872-15.113c0.851-4.115-1.794-8.139-5.899-8.991c-4.115-0.851-8.139,1.784-8.991,5.899  c-2.189,10.541-11.585,18.204-22.34,18.204H38.051c-0.395,0-0.78-0.01-1.176-0.03c-0.375-0.02-0.76-0.051-1.125-0.081  c-0.365-0.041-0.72-0.081-1.074-0.132c-10.987-1.632-19.431-11.139-19.431-22.563c0-111.901,0-177.252,0-213.533  c0-28.037,0-38.714,0-40.09c0-4.196-3.406-7.602-7.602-7.602s-7.602,3.406-7.602,7.602C0.036,172.281,0.002,392.492,0,402.273  c0,18.721,13.633,34.341,31.482,37.422c0.882,0.152,1.774,0.274,2.666,0.365c0.618,0.061,1.237,0.111,1.865,0.142  c0.679,0.03,1.358,0.051,2.037,0.051h75.686h360.305c20.931,0,37.959-17.039,37.959-37.98V181.592  C512,162.739,498.195,147.048,480.163,144.119z M92.005,107.183H59.63v-15.67c0-2.473,2.088-4.561,4.561-4.561h23.252  c2.473,0,4.561,2.088,4.561,4.561C92.005,91.513,92.005,107.183,92.005,107.183z M464.959,143.622h-61.83v-14.778  c0-2.473,2.088-4.561,4.561-4.561h52.707c2.473,0,4.561,2.088,4.561,4.561V143.622z"/>
<path d="M144.144,385.629c4.196,0,7.602-3.406,7.602-7.602V204.702c0-4.196-3.406-7.602-7.602-7.602s-7.602,3.406-7.602,7.602  v173.326C136.542,382.224,139.948,385.629,144.144,385.629z"/>
<path d="M396.662,181.166c-4.125-0.791-8.109,1.916-8.899,6.041c-2.672,14.287,8.264,27.114,22.401,27.114  c22.093,0,31.28-28.492,13.238-41.375c-3.416-2.443-8.159-1.642-10.602,1.774s-1.642,8.159,1.774,10.602  c6.027,4.314,2.943,13.795-4.409,13.795c-4.689,0-8.376-4.266-7.46-9.051C403.484,185.94,400.788,181.956,396.662,181.166z"/>
<path d="M199.872,212.253c-3.335-2.544-8.099-1.916-10.653,1.419c-17.251,22.573-26.374,49.555-26.374,78.027  c0,70.922,57.694,128.606,128.606,128.606c38.294,0,74.327-16.887,98.846-46.322c19.198-23.019,29.78-52.231,29.78-82.284  c0-107.608-124.58-166.89-208.254-100.985c-3.294,2.605-3.862,7.389-1.257,10.683c2.605,3.294,7.379,3.852,10.683,1.257  c73.743-58.226,183.624-5.72,183.624,89.045c0,26.495-9.325,52.261-26.252,72.553c-21.63,25.958-53.396,40.848-87.17,40.848  c-62.529,0-113.402-50.873-113.402-113.402c0-25.107,8.038-48.896,23.252-68.793C203.845,219.571,203.207,214.807,199.872,212.253z"/>
<path d="M236.797,327.631c-2.311-3.507-7.024-4.48-10.531-2.169c-3.507,2.301-4.48,7.014-2.179,10.521  c28.812,43.87,91.176,48.751,126.589,10.389c47.416-51.356,10.842-135.265-59.215-135.265c-49.668,0-87.729,44.606-79.507,93.829  c0.689,4.146,4.602,6.943,8.747,6.254c4.135-0.689,6.943-4.602,6.254-8.747c-10.044-59.586,60.812-101.509,109.094-58.566  c25.995,24.221,28.141,65.434,3.456,92.177C310.638,367.339,259.978,363.05,236.797,327.631z"/>
<path d="M301.262,264.666c4.115-0.821,6.791-4.825,5.97-8.94c-0.821-4.115-4.825-6.791-8.94-5.97  c-23.986,4.781-33.002,34.504-15.691,51.815c12.028,12.007,31.439,11.984,43.423,0c9.624-9.624,11.401-23.834,5.909-35.121  c-1.835-3.781-6.386-5.352-10.156-3.517c-3.781,1.835-5.352,6.376-3.517,10.156c2.763,5.691,1.878,12.86-2.99,17.728  c-6.056,6.056-15.853,6.061-21.914,0C284.497,281.958,289.347,267.041,301.262,264.666z"/>
<g>
</g>
<g>
</g>
<g>
</g>
<g>
</g>
<g>
</g>
<g>
</g>
<g>
</g>
<g>
</g>
<g>
</g>
<g>
</g>
<g>
</g>
<g>
</g>
<g>
</g>
<g>
</g>
<g>
</g>
</svg>
