<?xml version="1.0" encoding="iso-8859-1"?>
<!-- Generator: Adobe Illustrator 19.0.0, SVG Export Plug-In . SVG Version: 6.00 Build 0)  -->
<svg xmlns="http://www.w3.org/2000/svg" xmlns:xlink="http://www.w3.org/1999/xlink" version="1.1" id="Capa_1" x="0px" y="0px" viewBox="0 0 512 512" style="enable-background:new 0 0 512 512;" xml:space="preserve">
<path style="fill:#806749;" d="M283.512,250.579h-55.024c-6.725,0-12.228,5.502-12.228,12.228v200.217  c0,21.857,17.883,39.74,39.74,39.74c12.686,0,24.027-6.022,31.313-15.346c2.935-3.75,5.217-8.04,6.654-12.686  c1.151-3.709,1.773-7.632,1.773-11.708V262.807C295.74,256.082,290.237,250.579,283.512,250.579z M256,473.723  c-6.267,0-11.667-3.648-14.225-8.936c-0.143-0.296-0.275-0.601-0.397-0.917c-0.744-1.834-1.151-3.831-1.151-5.92  c0-6.104,3.464-11.392,8.529-14.011c2.17-1.131,4.626-1.763,7.245-1.763c8.712,0,15.774,7.061,15.774,15.774  c0,4.494-1.885,8.559-4.901,11.433C264.04,472.072,260.219,473.723,256,473.723z"/>
<path style="fill:#A78966;" d="M283.512,250.579h-35.664v184.932c0,2.894,0.316,5.706,0.907,8.427  c2.17-1.131,4.626-1.763,7.245-1.763c8.712,0,15.774,7.061,15.774,15.774c0,4.494-1.885,8.559-4.901,11.433  c6.042,3.719,13.145,5.869,20.716,5.869c2.17,0,4.3-0.173,6.379-0.52c1.151-3.709,1.773-7.632,1.773-11.708V262.807  C295.74,256.082,290.237,250.579,283.512,250.579z"/>
<path style="fill:#ACABB1;" d="M353.057,171.11v77.941c0,5.757-1.131,11.239-3.189,16.253c-0.999,2.425-2.211,4.738-3.617,6.909  c-7.612,11.81-20.889,19.635-35.99,19.635H201.74c-23.63,0-42.797-19.157-42.797-42.797V171.11L353.057,171.11L353.057,171.11z"/>
<path style="fill:#C6C5CA;" d="M353.057,171.11v77.941c0,5.757-1.131,11.239-3.189,16.253c-0.54,0.041-1.08,0.051-1.62,0.051  H216.739c-17.282,0-31.303-14.011-31.303-31.292V171.11L353.057,171.11L353.057,171.11z"/>
<path style="fill:#C0AB91;" d="M372.916,24.919v143.134H139.084V24.919c0-10.424,8.447-18.871,18.871-18.871h196.09  C364.469,6.048,372.916,14.495,372.916,24.919z"/>
<path style="fill:#D9CCBC;" d="M372.916,24.919V122.2h-182.67c-13.624,0-24.669-11.046-24.669-24.679V6.048h188.468  C364.469,6.048,372.916,14.495,372.916,24.919z"/>
<path style="fill:#57565C;" d="M403.485,173.403c0,1.111-0.061,2.201-0.194,3.281c-0.194,1.661-0.53,3.281-0.999,4.85  c-1.355,4.534-3.821,8.59-7.092,11.861c-5.115,5.115-12.177,8.284-19.992,8.284H136.791c-15.621,0-28.276-12.666-28.276-28.276  c0-7.805,3.159-14.877,8.284-19.992c2.232-2.232,4.82-4.086,7.693-5.472c1.671-0.815,3.434-1.467,5.268-1.936  c0.897-0.224,1.814-0.418,2.751-0.55c1.396-0.214,2.823-0.326,4.28-0.326h238.418c15.081,0,27.4,11.8,28.225,26.677  C403.475,172.333,403.485,172.863,403.485,173.403z"/>
<path style="fill:#787680;" d="M403.434,171.803c-1.396,0.214-2.823,0.326-4.28,0.326H160.737c-15.081,0-27.4-11.81-28.225-26.677  c1.396-0.214,2.823-0.326,4.28-0.326h238.418C390.29,145.126,402.609,156.926,403.434,171.803z"/>
<path style="fill:#3FA45A;" d="M338.638,6.048V66.34c0,10.251-8.396,18.647-18.647,18.647c-9.619,0-17.587-7.377-18.545-16.742  v35.083c0,10.251-8.396,18.637-18.647,18.637c-10.261,0-18.647-8.386-18.647-18.637V27.273c-0.958,9.374-8.936,16.742-18.545,16.742  c-9.619,0-17.587-7.367-18.545-16.742v35.083c0,10.261-8.396,18.647-18.647,18.647c-10.261,0-18.647-8.386-18.647-18.647V6.048  H338.638z"/>
<g>
	<path style="fill:#4CBA68;" d="M189.767,6.048h37.294v24.251c0,10.261-8.396,18.647-18.647,18.647   c-10.261,0-18.647-8.386-18.647-18.647L189.767,6.048L189.767,6.048z"/>
	<path style="fill:#4CBA68;" d="M338.638,6.048v27.308c0,10.251-8.396,18.647-18.647,18.647c-9.619,0-17.587-7.377-18.545-16.742   v35.287c0,10.251-8.396,18.637-18.647,18.637c-10.261,0-18.647-8.386-18.647-18.637V6.048   C264.152,6.048,338.638,6.048,338.638,6.048z"/>
</g>
<path d="M380.559,139.476V26.514C380.559,11.891,368.667,0,354.045,0c-43.879,0-170.999,0-196.09,0  c-14.622,0-26.514,11.891-26.514,26.514v27.94c0,4.219,3.424,7.642,7.642,7.642s7.642-3.424,7.642-7.642v-27.94  c0-6.195,5.034-11.229,11.229-11.229h24.17V63.95c0,14.5,11.789,26.289,26.289,26.289c14.5,0,26.289-11.789,26.289-26.289V50.908  c3.322,1.508,7.021,2.344,10.903,2.344c3.882,0,7.581-0.836,10.903-2.344v54.015c0,14.49,11.789,26.279,26.289,26.279  s26.289-11.789,26.289-26.279V91.88c3.322,1.508,7.021,2.344,10.903,2.344c14.5,0,26.289-11.789,26.289-26.289v-52.65h7.764  c6.195,0,11.229,5.034,11.229,11.229v112.565H301.66c-4.219,0-7.642,3.424-7.642,7.642s3.424,7.642,7.642,7.642  c15.447,0,58.092,0,73.549,0c1.855,0,3.648,0.245,5.35,0.703c8.794,2.354,15.284,10.393,15.284,19.931  c0,11.372-9.252,20.634-20.634,20.634c-45.735,0-183.424,0-238.418,0c-11.382,0-20.634-9.262-20.634-20.634  c0-9.538,6.491-17.577,15.284-19.931c1.702-0.459,3.495-0.703,5.35-0.703c14.076,0,80.405,0,134.3,0  c4.219,0,7.642-3.424,7.642-7.642s-3.424-7.642-7.642-7.642H146.726V85.023c0-4.219-3.424-7.642-7.642-7.642  s-7.642,3.424-7.642,7.642v54.454c-17.282,2.588-30.569,17.526-30.569,35.521c0,19.799,16.11,35.919,35.919,35.919h14.51v39.729  c0,27.818,22.631,50.439,50.439,50.439h6.878v163.534C208.618,490.744,229.874,512,256,512s47.382-21.256,47.382-47.382v-64.103  c0-4.219-3.424-7.642-7.642-7.642s-7.642,3.424-7.642,7.642v64.103c0,17.699-14.398,32.097-32.097,32.097  s-32.097-14.398-32.097-32.097V301.084h64.195v68.862c0,4.229,3.424,7.642,7.642,7.642s7.642-3.414,7.642-7.642v-68.862h6.878  c27.808,0,50.439-22.621,50.439-50.439v-39.729h14.51c19.809,0,35.919-16.12,35.919-35.919  C411.127,157.002,397.84,142.064,380.559,139.476z M330.996,67.934c0,6.073-4.942,11.005-11.005,11.005  c-5.484,0-10.208-4.204-10.903-9.609V38.101c0-4.221-3.421-7.642-7.642-7.642s-7.642,3.422-7.642,7.642v37.192  c0,0.003,0,0.006,0,0.01v29.619c0,6.063-4.942,10.995-11.005,10.995c-6.073,0-11.005-4.932-11.005-10.995V28.867  c0-4.066-3.189-7.428-7.255-7.632c-0.132-0.01-0.265-0.01-0.397-0.01c-3.892,0-7.194,2.945-7.591,6.868  c-0.571,5.533-5.37,9.874-10.944,9.874s-10.373-4.341-10.944-9.874c-0.418-4.055-3.923-7.061-7.989-6.858  c-4.066,0.204-7.255,3.566-7.255,7.632V63.95c0,6.073-4.942,11.005-11.005,11.005c-6.073,0-11.005-4.932-11.005-11.005V15.284  h133.586L330.996,67.934L330.996,67.934z M345.414,250.645c0,19.391-15.774,35.154-35.154,35.154c-31.097,0-55.194,0-108.52,0  c-19.381,0-35.154-15.763-35.154-35.154v-39.729h178.829V250.645z"/>
<path d="M256,467.678c-3.973,0-7.344-2.833-8.014-6.735c-0.715-4.16-4.667-6.95-8.826-6.238c-4.159,0.715-6.951,4.667-6.237,8.826  c1.934,11.26,11.641,19.432,23.078,19.432c12.912,0,23.417-10.505,23.417-23.418c-0.001-11.167-7.947-20.831-18.892-22.978  c-4.149-0.811-8.159,1.887-8.971,6.028c-0.813,4.141,1.886,8.158,6.027,8.971c3.796,0.744,6.55,4.1,6.551,7.981  C264.132,464.03,260.485,467.678,256,467.678z"/>
<g>
</g>
<g>
</g>
<g>
</g>
<g>
</g>
<g>
</g>
<g>
</g>
<g>
</g>
<g>
</g>
<g>
</g>
<g>
</g>
<g>
</g>
<g>
</g>
<g>
</g>
<g>
</g>
<g>
</g>
</svg>
