<?xml version="1.0" encoding="iso-8859-1"?>
<!-- Generator: Adobe Illustrator 19.0.0, SVG Export Plug-In . SVG Version: 6.00 Build 0)  -->
<svg xmlns="http://www.w3.org/2000/svg" xmlns:xlink="http://www.w3.org/1999/xlink" version="1.1" id="Capa_1" x="0px" y="0px" viewBox="0 0 512 512" style="enable-background:new 0 0 512 512;" xml:space="preserve">
<path style="fill:#EEBF00;" d="M479.435,342.564H79.294c-5.708,0.01-11.254,0.74-16.556,2.078  c-7.056,1.784-13.687,4.684-19.689,8.486c-1.592,1.004-3.133,2.068-4.623,3.194c-16.607,12.521-27.395,32.403-27.395,54.678  c0.01,23.321-0.023,22.563,0.03,24.282c0.994,36.716,31.473,66.459,68.405,66.459h399.968c15.613,0,28.388-12.775,28.388-28.388  v-102.4C507.823,355.338,495.048,342.564,479.435,342.564z M90.619,414.548c6.164,0,11.781,2.342,16.009,6.174  c4.806,4.36,7.817,10.656,7.817,17.651s-3.011,13.292-7.817,17.651c-4.228,3.832-9.845,6.174-16.009,6.174  c-13.16,0-23.826-10.666-23.826-23.826C66.793,425.213,77.459,414.548,90.619,414.548z"/>
<path style="fill:#FFD422;" d="M479.435,374.5c-426.347,0.085-400.369-0.21-405.595,0.233  c-30.595,2.452-57.079,26.015-61.998,57.739c0,0-0.01,0,0,0.01c-0.847,5.345-0.627,6.192-0.456,7.797  c3.724,35.069,33.314,61.46,68.081,61.46h399.968c15.613,0,28.388-12.775,28.388-28.388v-70.463  C507.823,387.275,495.048,374.5,479.435,374.5z M90.619,462.199c-13.16,0-23.826-10.666-23.826-23.826  c0-20.822,24.711-31.361,39.835-17.651C122.859,435.446,112.127,462.199,90.619,462.199z"/>
<path style="fill:#A7ADF0;" d="M418.603,458.265v-72.109c0-6.405,5.192-11.598,11.598-11.598h29.521  c6.405,0,11.598,5.192,11.598,11.598v72.109c0,6.405-5.192,11.598-11.598,11.598h-29.521  C423.795,469.863,418.603,464.67,418.603,458.265z"/>
<path style="fill:#7C84E8;" d="M296.937,458.265v-72.109c0-6.405,5.192-11.598,11.598-11.598h29.521  c6.405,0,11.598,5.192,11.598,11.598v72.109c0,6.405-5.192,11.598-11.598,11.598h-29.521  C302.13,469.863,296.937,464.67,296.937,458.265z"/>
<path style="fill:#515BE0;" d="M176.286,458.265v-72.109c0-6.405,5.192-11.598,11.598-11.598h29.521  c6.405,0,11.598,5.192,11.598,11.598v72.109c0,6.405-5.192,11.598-11.598,11.598h-29.521  C181.478,469.863,176.286,464.67,176.286,458.265z"/>
<path style="fill:#FFD422;" d="M481.554,253.861l-49.527-85.773l-1.673-2.91c-7.807-13.515-25.255-18.199-38.78-10.392  l-79.477,45.887c-0.156,0.09-269.87,155.199-276.794,161.052c-16.989,14.339-25.435,35.856-24.15,56.401  c1.163,21.122,10.288,31.461,20.145,49.446c13.423,23.231,38.71,35.588,63.356,34.045c23.992-1.351,35.791-13.57,56.391-24.15  c40.185-23.2,285.626-164.913,320.117-184.827C484.687,284.834,489.361,267.386,481.554,253.861z M106.628,456.025  c-4.228,3.832-9.845,6.174-16.009,6.174c-13.16,0-23.826-10.666-23.826-23.826c0-13.16,10.666-23.826,23.826-23.826  c6.164,0,11.781,2.342,16.009,6.174c4.806,4.36,7.817,10.656,7.817,17.651S111.434,451.665,106.628,456.025z"/>
<path style="fill:#FFDE55;" d="M481.554,253.861l-49.527-85.773l-104.783,60.355c-0.01,0.01-0.02,0.01-0.02,0.01l-2.646,1.531  l-12.481,7.188c-27.077,15.633-141.095,81.451-266.899,154.097c-0.73,0.416-1.44,0.852-2.149,1.298  c-2.748,1.724-5.323,3.609-7.746,5.657c-10.767,9.084-18.199,21.109-21.798,34.187c1.501,5.434,3.701,10.757,6.641,15.847  l11.152,19.314c1.693,2.93,3.579,5.698,5.627,8.273c13.221,16.688,33.315,25.894,53.846,25.894c1.298,0,2.585-0.041,3.883-0.122  c2.16-0.122,4.319-0.345,6.468-0.679c16.202-2.465,20.301-6.37,75.948-38.496c220.475-127.301,293.965-169.729,294.091-169.802  C484.687,284.834,489.361,267.386,481.554,253.861z M106.628,456.025c-4.228,3.832-9.845,6.174-16.009,6.174  c-13.16,0-23.826-10.666-23.826-23.826c0-13.16,10.666-23.826,23.826-23.826c6.164,0,11.781,2.342,16.009,6.174  c4.806,4.36,7.817,10.656,7.817,17.651S111.434,451.665,106.628,456.025z"/>
<path style="fill:#96C8EF;" d="M396.746,285.408l-36.054-62.448c-3.203-5.547-1.302-12.64,4.245-15.843l25.566-14.76  c5.547-3.203,12.64-1.302,15.843,4.245l36.054,62.448c3.203,5.547,1.302,12.64-4.245,15.843l-25.566,14.76  C407.041,292.855,399.948,290.955,396.746,285.408z"/>
<path style="fill:#5AAAE7;" d="M291.38,346.241l-36.054-62.448c-3.203-5.547-1.302-12.64,4.245-15.843l25.566-14.76  c5.547-3.203,12.64-1.302,15.843,4.245l36.054,62.448c3.203,5.547,1.302,12.64-4.245,15.843l-25.566,14.76  C301.675,353.689,294.582,351.788,291.38,346.241z"/>
<path style="fill:#1E81CE;" d="M186.893,406.567l-36.054-62.448c-3.203-5.547-1.302-12.64,4.245-15.843l25.566-14.76  c5.547-3.203,12.64-1.302,15.843,4.245l36.054,62.448c3.203,5.547,1.302,12.64-4.245,15.843l-25.566,14.76  C197.188,414.014,190.095,412.113,186.893,406.567z"/>
<path style="fill:#FFDE55;" d="M347.592,82.417l-83.958-48.473l-4.725-2.727c-13.515-7.807-30.973-3.133-38.78,10.392  l-49.923,86.462l-31.876,55.215l-18.787,32.545l-15.127,26.188l-1.957,3.396l-6.438,11.152l-0.01,0.01  c-0.269,0.465-71.359,123.597-75.867,131.407c-5.485,9.51-8.415,19.831-8.993,30.142c-0.081,1.288-0.122,2.585-0.122,3.873  c0,3.518,0.274,7.016,0.811,10.473c0,0-0.01,0,0,0.01c2.565,16.729,11.254,32.403,25.083,43.363c2.372,1.886,4.917,3.64,7.594,5.221  c0.223,0.142,0.456,0.274,0.679,0.406l19.314,11.152c32.556,18.777,74.592,7.619,93.488-25.053  c0.301-0.521,121.99-211.289,122.089-211.461v-0.01c49.091-85.012,25.173-43.592,32.008-55.428l45.887-79.477  C365.791,107.672,361.117,90.224,347.592,82.417z M106.628,456.025c-4.228,3.832-9.845,6.174-16.009,6.174  c-13.16,0-23.826-10.666-23.826-23.826c0-13.16,10.666-23.826,23.826-23.826c6.164,0,11.781,2.342,16.009,6.174  c4.806,4.36,7.817,10.656,7.817,17.651S111.434,451.665,106.628,456.025z"/>
<path style="fill:#FFEB99;" d="M347.592,82.417l-83.958-48.473l-22.183,37.594l-19.182,32.504l-28.236,47.854l-15.897,27.536  l-7.928,13.738l-7.928,13.738l-0.122,0.203l-18.787,32.545l-1.004,1.734l-8.77,15.188c-13.88,24.043-34.193,59.237-49.649,85.986  c0.059-0.101-40.372,69.9-40.899,70.899c-11.407,21.11-10.887,46.779,1.47,67.604c0.223,0.142,0.456,0.274,0.679,0.406  l19.314,11.152c9.51,5.485,19.831,8.415,30.142,8.993c1.288,0.081,2.585,0.122,3.873,0.122c2.19,0,4.37-0.101,6.529-0.314  c17.53-1.663,34.228-10.017,45.989-23.958c6.814-8.048,7.811-12.006,39.824-66.824c111.283-192.745,77.355-133.982,89.22-154.533  v-0.01l0.395-0.679l31.612-54.749l45.887-79.477C365.791,107.672,361.117,90.224,347.592,82.417z M106.628,456.025  c-4.228,3.832-9.845,6.174-16.009,6.174c-13.16,0-23.826-10.666-23.826-23.826c0-13.16,10.666-23.826,23.826-23.826  c6.164,0,11.781,2.342,16.009,6.174c4.806,4.36,7.817,10.656,7.817,17.651S111.434,451.665,106.628,456.025z"/>
<path style="fill:#64C37D;" d="M291.195,152.783l-62.448-36.054c-5.547-3.203-7.448-10.296-4.245-15.843l14.76-25.566  c3.203-5.547,10.296-7.448,15.843-4.245l62.448,36.054c5.547,3.203,7.448,10.296,4.245,15.843l-14.76,25.566  C303.835,154.085,296.742,155.985,291.195,152.783z"/>
<path style="fill:#3FA45A;" d="M229.444,257.863l-62.448-36.054c-5.547-3.203-7.448-10.296-4.245-15.843l14.76-25.566  c3.203-5.547,10.296-7.448,15.843-4.245l62.448,36.054c5.547,3.203,7.448,10.296,4.245,15.843l-14.76,25.566  C242.084,259.165,234.991,261.065,229.444,257.863z"/>
<path style="fill:#317F46;" d="M169.118,362.35l-62.448-36.054c-5.547-3.203-7.448-10.296-4.245-15.843l14.76-25.566  c3.203-5.547,10.296-7.448,15.843-4.245l62.448,36.054c5.547,3.203,7.448,10.296,4.245,15.843l-14.76,25.566  C181.758,363.653,174.665,365.553,169.118,362.35z"/>
<path style="fill:#FFEB99;" d="M141.819,4.948h-102.4c-15.613,0-28.388,12.775-28.388,28.388  c0.011,421.692-2.132,407.413,4.765,425.001c10.693,26.605,36.006,43.403,63.67,43.403h22.305c1.642,0,3.275-0.061,4.887-0.182  c20.267-1.44,38.182-11.832,49.77-27.202c5.394-7.148,9.419-15.38,11.68-24.292c0.659-2.575,1.166-5.211,1.521-7.898  c0.365-2.748,0.547-5.546,0.568-8.385c0.01-0.152,0.01-0.314,0.01-0.477V33.336C170.207,17.722,157.432,4.948,141.819,4.948z   M90.619,414.548c6.164,0,11.781,2.342,16.009,6.174c4.806,4.36,7.817,10.656,7.817,17.651s-3.011,13.292-7.817,17.651  c-4.228,3.832-9.845,6.174-16.009,6.174c-13.16,0-23.826-10.666-23.826-23.826C66.793,425.213,77.459,414.548,90.619,414.548z"/>
<path style="fill:#FFF5CC;" d="M141.819,4.948H71.437c-15.613,0-28.388,12.775-28.388,28.388  c0.129,427.046-2.721,408.714,6.073,428.062c9.724,21.77,31.169,37.739,55.935,40.027c0.537,0.051,1.065,0.091,1.602,0.132  c35.509-2.522,63.549-32.401,63.549-68.253V33.336C170.207,17.722,157.432,4.948,141.819,4.948z M90.619,462.199  c-13.16,0-23.826-10.666-23.826-23.826c0-13.16,10.666-23.826,23.826-23.826c6.164,0,11.781,2.342,16.009,6.174  c4.806,4.36,7.817,10.656,7.817,17.651s-3.011,13.292-7.817,17.651C102.4,459.857,96.783,462.199,90.619,462.199z"/>
<path style="fill:#FFA5B5;" d="M126.733,94.167H54.624c-6.405,0-11.598-5.192-11.598-11.598V53.049  c0-6.405,5.192-11.598,11.598-11.598h72.109c6.405,0,11.598,5.192,11.598,11.598V82.57C138.33,88.975,133.137,94.167,126.733,94.167  z"/>
<path style="fill:#FF728B;" d="M126.733,215.834H54.624c-6.405,0-11.598-5.192-11.598-11.598v-29.521  c0-6.405,5.192-11.598,11.598-11.598h72.109c6.405,0,11.598,5.192,11.598,11.598v29.521  C138.33,210.641,133.137,215.834,126.733,215.834z"/>
<path style="fill:#FF3F62;" d="M126.733,336.484H54.624c-6.405,0-11.598-5.192-11.598-11.598v-29.521  c0-6.405,5.192-11.598,11.598-11.598h72.109c6.405,0,11.598,5.192,11.598,11.598v29.521  C138.33,331.292,133.137,336.484,126.733,336.484z"/>
<path d="M225.923,361.859c-0.022,0.038-0.044,0.075-0.058,0.1C225.877,361.938,225.897,361.904,225.923,361.859z"/>
<path d="M504.396,434.47c4.197,0,7.604-3.407,7.604-7.604v-53.258c0-19.841-16.151-35.992-35.992-35.992h-66.367l61.896-35.739  c17.154-9.894,23.074-32.022,13.18-49.162l-9.358-16.201c-2.099-3.63-6.742-4.877-10.382-2.778  c-3.64,2.099-4.887,6.752-2.788,10.382l9.358,16.202c5.765,10.008,2.146,22.758-7.614,28.388  c-158.397,91.454-118.426,68.378-140.126,80.906c-87.378,50.442,1.375-0.794-152.595,88.102c0.223-0.719,0.425-1.438,0.617-2.167  l19.111-33.103c9.915,1.417,15.269-5.063,27.03-10.97l6.56-3.792c3.64-2.099,4.887-6.752,2.788-10.382  c-1.916-3.295-5.901-4.633-9.348-3.285c-0.897,0.334-0.331,0.118-15.837,9.034l14.934-25.864l1.764,3.062  c2.727,4.73,9.408,5.123,12.673,0.75c1.764-2.362,2.058-5.637,0.497-8.354l-6.154-10.656c0.005-0.008,0.007-0.012,0.012-0.02  c0.002-0.003,0.003-0.005,0.005-0.009c-0.002,0.004-0.003,0.005-0.005,0.008c0.028-0.049,0.045-0.077,0.065-0.113  c-0.001,0.001-0.002,0.003-0.002,0.004c0.002-0.003,0.002-0.004,0.004-0.007c0.049-0.085,0.084-0.147,0.096-0.166  c-0.001,0.001-0.001,0.002-0.002,0.003c0.593-1.027,2.97-5.144,11.131-19.287l0.02,0.03c2.07,3.59,6.687,4.922,10.392,2.788  c3.744-2.17,4.827-6.897,2.778-10.392l-4.41-7.634l10.352-17.935c26.273,45.505,25.082,43.456,25.164,43.566  c5.306,9.03,16.981,12.206,26.147,6.904l0,0l0,0c0.009-0.005,0.017-0.01,0.025-0.015c0.015-0.009,0.037-0.021,0.066-0.039  c-0.002,0.001-0.004,0.002-0.005,0.003c0.002-0.001,0.004-0.003,0.007-0.004c0.013-0.007,0.026-0.015,0.04-0.022  c-0.005,0.003-0.01,0.006-0.015,0.009c0.006-0.004,0.012-0.007,0.019-0.011c-0.001,0.001-0.002,0.001-0.004,0.002  c0.007-0.004,0.014-0.008,0.02-0.012c0.018-0.01,0.037-0.021,0.06-0.034c0.011-0.006,0.021-0.012,0.03-0.018  c0.027-0.016,0.057-0.032,0.089-0.052c0.006-0.003,0.01-0.005,0.011-0.006c1.153-0.666,5.693-3.287,21.078-12.17  c3.427-1.977,4.735-6.225,3.113-9.743c-1.662-3.875-6.682-5.753-10.717-3.427l-5.931,3.427c-16.126,9.116-15.641,9.48-17.469,9.48  c-4.149,0-1.582-0.257-32.951-53.045l17.165-29.726c2.874-1.53,3.603-2.433,5.272-2.433c1.45,0,2.748,0.75,3.467,1.997  l32.352,56.036c2.099,3.64,6.752,4.887,10.382,2.788c3.64-2.099,4.887-6.752,2.788-10.392l-32.352-56.036  c-2.636-4.562-7.036-7.797-12.055-9.034l22.143-38.344c80.285-45.305,78.361-47.641,88.034-47.641  c7.462,0,14.397,3.974,18.087,10.372l26.634,46.141c2.109,3.64,6.752,4.887,10.392,2.788c3.64-2.099,4.887-6.752,2.778-10.392  l-26.634-46.141c-9.744-16.879-31.763-23.22-49.172-13.17l-54.921,31.703l31.714-54.921c3.143-5.434,4.806-11.629,4.806-17.905  c0-12.876-6.894-24.86-17.976-31.257l-16.202-9.348c-3.64-2.109-8.283-0.862-10.382,2.778c-2.099,3.64-0.862,8.293,2.778,10.392  l16.202,9.348c9.711,5.602,13.408,18.344,7.604,28.388l-44.884,77.733l-15.208,26.34l-16.779,29.078l-23.593,40.859  c-14.672,25.42-27.694,47.981-60.872,105.442v0.01c-6.071,10.512-8.269,14.317-8.758,15.164c0.827-1.433,5.763-9.978-3.49,6.036  v-47.216c12.692-2.318,14.761-13.745,19.791-20.663c0.035-0.062,0.061-0.105,0.082-0.142c0.008-0.013,0.018-0.031,0.031-0.054  c-0.003,0.005-0.005,0.01-0.008,0.015c0.048-0.083,0.043-0.074,0.023-0.041c0.266-0.459,1.427-2.469,5.682-9.836  c2.609-4.537-0.008-10.49-5.526-11.335c-2.981-0.426-6.053,0.963-7.655,3.731c0.84-1.459-12.343,21.388-12.42,21.504v-38.821  l6.945,4.005c3.63,2.109,8.283,0.862,10.382-2.778c2.099-3.64,0.862-8.283-2.778-10.392l-14.549-8.395v-22.68  c3.265,1.673,4.741,3.366,7.868,3.366c7.762,0,10.519-10.311,3.802-14.184c-8.481-4.9-10.912-6.305-11.504-6.647  c-0.004-0.002-0.007-0.004-0.011-0.007c-0.023-0.013-0.043-0.024-0.06-0.034h-0.001c-0.008-0.005-0.016-0.009-0.024-0.014  c0.007,0.004,0.017,0.01,0.023,0.013c-0.012-0.007-0.021-0.012-0.03-0.018c0.003,0.001,0.005,0.003,0.007,0.004  c-0.003-0.002-0.007-0.004-0.01-0.006c-0.033-0.019-0.053-0.03-0.059-0.034V239.34c51.686,29.842,50.477,29.98,57.06,29.98  c6.844,0,13.221-3.68,16.637-9.601c-0.01,0.018,0.006-0.01,0.074-0.128c-0.005,0.008-0.009,0.016-0.013,0.023  c0.019-0.033,0.028-0.05,0.044-0.075c0.026-0.046,0.056-0.096,0.094-0.163c-0.002,0.003-0.006,0.009-0.011,0.019  c0.009-0.016,0.013-0.023,0.012-0.021c0.666-1.154,3.287-5.694,12.169-21.078c3.31-5.742-1.78-12.506-8.03-11.264  c-0.164,0.061-3.348,0.522-5.14,3.66l-12.369,21.423c-1.108,1.919-3.532,2.563-5.455,1.46  c-47.088-27.185-54.326-31.364-55.022-31.765c0.035,0.021,0.082,0.048,0.125,0.072c-0.045-0.025-0.101-0.059-0.175-0.101v-25.022  c5.483-8.456,5.545-12.258,9.398-12.258c1.96,0-0.891-0.912,58.013,32.89c3.64,2.099,8.293,0.852,10.392-2.788  s0.852-8.283-2.788-10.382l-56.036-32.352c-2.91-1.683-6.225-2.575-9.581-2.575c-3.336,0-6.57,0.882-9.398,2.464v-38.993  l48.909-84.708c5.679-9.829,18.454-13.326,28.388-7.604l46.141,26.644c3.64,2.099,8.283,0.852,10.392-2.788  c2.099-3.64,0.852-8.283-2.788-10.382l-46.141-26.644c-17.064-9.869-39.239-4.017-49.162,13.17l-35.739,61.908V35.992  C174.384,16.151,158.233,0,138.392,0h-18.726c-4.208,0-7.604,3.407-7.604,7.604s3.396,7.604,7.604,7.604h18.726  c11.457,0,20.784,9.328,20.784,20.784V128.7v30.416v33.579c-0.073,217.439,1.272,244.84-1.592,257.095  c-1.955,8.399-5.772,16.208-10.473,22.477v0.01c-1.253,1.677-2.968,3.71-4.329,5.171h-0.01  c-11.445,12.272-27.407,19.344-44.427,19.344H76.04c-33.539,0-60.832-27.293-60.832-60.832c0-19.495,0-381.781,0-399.968  c0-11.457,9.328-20.784,20.784-20.784H89.25c4.197,0,7.604-3.407,7.604-7.604S93.448,0,89.25,0H35.992C16.151,0,0,16.151,0,35.992  v377.663v22.305C0,477.884,34.116,512,76.04,512c9.642,0,379.431,0,399.968,0C495.849,512,512,495.849,512,476.008v-18.726  c0-4.208-3.407-7.604-7.604-7.604s-7.604,3.396-7.604,7.604v18.726c0,11.457-9.328,20.784-20.784,20.784H143.897  c5.363-4.025,10.179-8.739,14.316-14.012l0,0l13.312-7.685c3.417,3.133,7.949,5.029,12.927,5.029H209.2  c4.197,0,7.604-3.407,7.604-7.604c0-4.197-3.407-7.604-7.604-7.604h-20.044l28.814-16.637v5.232c0,4.197,3.407,7.604,7.604,7.604  s7.604-3.407,7.604-7.604v-14.012l19.588-11.315v1.754c0,4.197,3.407,7.604,7.604,7.604s7.604-3.407,7.604-7.604v-10.534  l17.935-10.352v51.869c0,10.585,8.608,19.203,19.203,19.203h24.738c4.197,0,7.604-3.407,7.604-7.604  c0-4.197-3.407-7.604-7.604-7.604h-24.738c-2.21,0-3.995-1.795-3.995-3.995v-60.649l26.756-15.451h6.752  c2.21,0,3.995,1.795,3.995,3.995v64.694c0,4.197,3.407,7.604,7.604,7.604c4.197,0,7.604-3.407,7.604-7.604v-64.694  c0-6.002-2.768-11.365-7.087-14.883l36.56-21.109h92.707c11.457,0,20.784,9.328,20.784,20.784v53.258  C496.792,431.063,500.199,434.47,504.396,434.47z"/>
<path d="M467.891,461.112c4.199,0,7.604-3.405,7.604-7.604v-64.694c0-10.588-8.614-19.202-19.201-19.202h-29.521  c-10.588,0-19.201,8.614-19.201,19.202v72.109c0,10.588,8.614,19.201,19.201,19.201h24.742c4.199,0,7.604-3.405,7.604-7.604  s-3.405-7.604-7.604-7.604h-24.742c-2.202,0-3.993-1.792-3.993-3.993v-72.109c0-2.202,1.792-3.994,3.993-3.994h29.521  c2.202,0,3.993,1.791,3.993,3.994v64.694C460.287,457.708,463.692,461.112,467.891,461.112z"/>
<path d="M389.637,379.245c0-4.197-3.407-7.604-7.604-7.604c-4.197,0-7.604,3.407-7.604,7.604v50.693  c0,4.197,3.407,7.604,7.604,7.604c4.197,0,7.604-3.407,7.604-7.604V379.245z"/>
<path d="M382.033,452.75c-4.197,0-7.604,3.407-7.604,7.604v10.139c0,4.197,3.407,7.604,7.604,7.604c4.197,0,7.604-3.407,7.604-7.604  v-10.139C389.637,456.157,386.231,452.75,382.033,452.75z"/>
<path d="M260.37,452.75c-4.197,0-7.604,3.407-7.604,7.604v10.139c0,4.197,3.407,7.604,7.604,7.604s7.604-3.407,7.604-7.604v-10.139  C267.974,456.157,264.567,452.75,260.37,452.75z"/>
<path d="M87.192,472.459c17.327,0,31.43-14.103,31.43-31.43c0-17.327-14.103-31.43-31.43-31.43s-31.43,14.103-31.43,31.43  C55.762,458.357,69.865,472.459,87.192,472.459z M87.192,424.808c8.942,0,16.222,7.28,16.222,16.222s-7.28,16.222-16.222,16.222  s-16.222-7.28-16.222-16.222S78.25,424.808,87.192,424.808z"/>
<path d="M51.198,51.713h64.694c4.199,0,7.604-3.405,7.604-7.604s-3.405-7.604-7.604-7.604H51.198  c-10.588,0-19.202,8.614-19.202,19.201v29.521c0,10.588,8.614,19.201,19.202,19.201h72.109c10.588,0,19.201-8.614,19.201-19.201  V60.484c0-4.199-3.405-7.604-7.604-7.604c-4.199,0-7.604,3.405-7.604,7.604v24.742c0,2.202-1.791,3.993-3.993,3.993H51.198  c-2.202,0-3.994-1.791-3.994-3.993V55.706C47.204,53.503,48.996,51.713,51.198,51.713z"/>
<path d="M122.738,137.571h10.139c4.197,0,7.604-3.407,7.604-7.604c0-4.197-3.407-7.604-7.604-7.604h-10.139  c-4.197,0-7.604,3.407-7.604,7.604C115.134,134.164,118.541,137.571,122.738,137.571z"/>
<path d="M92.322,137.571c4.197,0,7.604-3.407,7.604-7.604c0-4.197-3.407-7.604-7.604-7.604H41.629c-4.197,0-7.604,3.407-7.604,7.604  c0,4.197,3.407,7.604,7.604,7.604H92.322z"/>
<path d="M134.904,174.546c-0.852,0-1.673,0.142-2.433,0.406c-3.011,1.014-5.171,3.853-5.171,7.198v24.738  c0,2.21-1.795,3.995-3.995,3.995H51.2c-2.2,0-3.995-1.784-3.995-3.995v-29.514c0-2.21,1.795-3.995,3.995-3.995h64.694  c4.197,0,7.604-3.407,7.604-7.604s-3.407-7.604-7.604-7.604H51.2c-10.585,0-19.203,8.608-19.203,19.203v29.514  c0,10.595,8.618,19.203,19.203,19.203h72.106c10.585,0,19.203-8.608,19.203-19.203V182.15  C142.508,177.953,139.102,174.546,134.904,174.546z"/>
<path d="M122.738,259.234h10.139c4.226,0,7.604-3.458,7.604-7.604c0-4.197-3.407-7.604-7.604-7.604h-10.139  c-4.197,0-7.604,3.407-7.604,7.604S118.541,259.234,122.738,259.234z"/>
<path d="M92.322,259.234c4.197,0,7.604-3.407,7.604-7.604c0-4.106-3.265-7.462-7.34-7.594c-0.091-0.01-0.172-0.01-0.264-0.01H41.629  c-4.197,0-7.604,3.407-7.604,7.604s3.407,7.604,7.604,7.604H92.322z"/>
<path d="M141.342,298.765c-0.02-0.03-0.041-0.061-0.061-0.091c-4.088-6.342-13.981-3.421-13.981,4.126v24.748  c0,2.2-1.795,3.984-3.995,3.984H51.2c-2.2,0-3.995-1.784-3.995-3.984v-29.524c0-2.2,1.795-3.995,3.995-3.995h64.694  c3.027,0,6.025-1.878,7.138-5.019c0-0.01,0.01-0.02,0.01-0.03c1.786-4.804-1.805-10.159-7.148-10.159H51.2  c-10.585,0-19.203,8.618-19.203,19.203v29.524c0,4.938,1.876,9.439,4.958,12.846c3.681,4.084,8.875,6.347,14.245,6.347h72.106  c5.809,0,11.031-2.585,14.539-6.681c0.253-0.126,4.664-5.258,4.664-12.511C142.13,303.011,143.383,301.98,141.342,298.765z"/>
<path d="M99.926,372.28c0-4.197-3.407-7.604-7.604-7.604c-53.86,0.031-50.889-0.083-51.889,0.101  c-2.416,0.372-4.594,1.939-5.688,4.268c-2.337,4.927,1.235,10.838,6.884,10.838h50.693C96.533,379.884,99.926,376.458,99.926,372.28  z"/>
<path d="M132.877,379.884c4.197,0,7.604-3.407,7.604-7.604c0-4.197-3.407-7.604-7.604-7.604h-10.139  c-4.16,0-7.604,3.385-7.604,7.604c0,4.197,3.407,7.604,7.604,7.604H132.877z"/>
<path d="M365.314,216.358l25.566-14.76c1.952-1.126,4.378-0.404,5.455,1.461l32.351,56.034c2.1,3.638,6.75,4.884,10.387,2.783  c3.637-2.1,4.883-6.75,2.783-10.387l-32.351-56.035c-5.291-9.162-17.042-12.333-26.23-7.027l-25.568,14.761  c-5.921,3.421-9.6,9.797-9.6,16.639c0,8.971,2.737,8.224,38.628,72.037c3.42,5.923,9.796,9.603,16.639,9.603  c8.35,0,11.705-4.511,31.008-14.94c3.637-2.1,4.883-6.75,2.783-10.387c-2.1-3.638-6.75-4.884-10.387-2.783  c-22.66,12.878-21.547,12.903-23.404,12.903c-4.399,0-2.047-1.011-39.523-64.446C362.763,219.925,363.369,217.481,365.314,216.358z"/>
<path d="M360.529,297.558c-3.63,2.099-4.877,6.752-2.778,10.382l5.069,8.78c1.409,2.443,3.964,3.802,6.59,3.802  c5.814,0,9.511-6.322,6.58-11.406l-5.069-8.78C368.823,296.707,364.169,295.46,360.529,297.558z"/>
<path d="M319.975,227.318c-3.63,2.099-4.877,6.752-2.778,10.382l25.347,43.9c2.07,3.589,6.677,4.923,10.382,2.788  c3.64-2.099,4.887-6.752,2.788-10.392l-25.347-43.9C328.268,226.466,323.614,225.219,319.975,227.318z"/>
<path d="M255.169,358.39c-3.64,2.099-4.887,6.752-2.788,10.392c0.055,0.095,4.762,8.239,5.069,8.77  c2.473,4.288,8.002,4.601,10.524,2.707c3.538-2.129,4.714-6.712,2.646-10.311l-5.069-8.77  C263.452,357.538,258.808,356.291,255.169,358.39z"/>
<path d="M227.972,73.529c-13.001,23.848-17.335,26.681-17.335,35.155c0,6.845,3.679,13.221,9.602,16.639  c63.83,35.901,63.063,38.629,72.037,38.629c6.845,0,13.221-3.679,16.639-9.602l12.366-21.419c2.1-3.637,0.854-8.287-2.783-10.387  c-3.637-2.101-8.287-0.855-10.387,2.783l-12.366,21.419c-1.135,1.966-3.589,2.539-5.455,1.461  c-64.704-38.226-64.446-35.29-64.446-39.523c0-1.936,0.065-0.814,15.297-27.552c1.136-1.966,3.589-2.539,5.455-1.461l56.033,32.351  c3.636,2.099,8.287,0.853,10.387-2.783c2.1-3.637,0.854-8.287-2.783-10.387c-56.721-31.815-56.661-34.925-65.623-34.925  C237.768,63.927,231.392,67.606,227.972,73.529z"/>
<path d="M273.231,176.626c-3.637-2.102-8.287-0.854-10.387,2.783s-0.854,8.287,2.783,10.387l8.776,5.067  c3.623,2.092,8.278,0.868,10.387-2.783c2.1-3.637,0.854-8.287-2.783-10.387L273.231,176.626z"/>
<path d="M202.987,136.071c-3.637-2.101-8.287-0.854-10.387,2.783c-2.1,3.637-0.854,8.287,2.783,10.387l43.901,25.347  c1.197,0.691,2.505,1.02,3.795,1.02c2.628,0,5.184-1.365,6.592-3.803c2.1-3.637,0.854-8.287-2.783-10.387L202.987,136.071z"/>
<path d="M223.374,288.971c-1.511-1.962-2.868-2.121-10.98-6.975c-3.63-2.109-8.283-0.862-10.382,2.778  c-2.099,3.64-0.852,8.293,2.778,10.392c0.095,0.055,8.259,4.759,8.781,5.059C221.278,304.731,228.636,294.233,223.374,288.971z"/>
<g>
</g>
<g>
</g>
<g>
</g>
<g>
</g>
<g>
</g>
<g>
</g>
<g>
</g>
<g>
</g>
<g>
</g>
<g>
</g>
<g>
</g>
<g>
</g>
<g>
</g>
<g>
</g>
<g>
</g>
</svg>
