<?xml version="1.0" encoding="iso-8859-1"?>
<!-- Generator: Adobe Illustrator 19.0.0, SVG Export Plug-In . SVG Version: 6.00 Build 0)  -->
<svg xmlns="http://www.w3.org/2000/svg" xmlns:xlink="http://www.w3.org/1999/xlink" version="1.1" id="Capa_1" x="0px" y="0px" viewBox="0 0 512.001 512.001" style="enable-background:new 0 0 512.001 512.001;" xml:space="preserve">
<path style="fill:#78B9EB;" d="M374.049,166.815l-91.725,91.725l-77.631,77.631c-13.028,13.018-31.424,17.574-48.227,13.698  l-27.588,27.588c-5.672,5.672-13.14,8.503-20.608,8.503c-7.468,0-14.936-2.831-20.608-8.503c-11.344-11.334-11.344-29.882,0-41.215  l27.588-27.599c-3.886-16.793,0.67-35.198,13.698-48.216l77.631-77.631l91.725-91.735c5.124-5.114,13.505-5.114,18.629,0  l57.115,57.125C379.173,153.31,379.173,161.691,374.049,166.815z"/>
<path style="fill:#5AAAE7;" d="M343.71,117.837c-5.134-5.002-13.434-4.962-18.517,0.112l-91.725,91.735l-77.631,77.631  c-13.028,13.018-17.584,31.424-13.698,48.216l-27.588,27.599c-6.21,6.21-9.02,14.581-8.432,22.749  c-6.737-0.487-13.333-3.298-18.457-8.422c-11.344-11.334-11.344-29.882,0-41.215l27.588-27.599  c-3.886-16.793,0.67-35.198,13.698-48.216l77.631-77.631l91.725-91.735c5.124-5.114,13.505-5.114,18.629,0L343.71,117.837z"/>
<path style="fill:#C2DFF6;" d="M374.049,166.815l-91.725,91.725l-75.744-75.744l91.725-91.735c5.124-5.114,13.505-5.114,18.629,0  l57.115,57.125C379.173,153.31,379.173,161.691,374.049,166.815z"/>
<path style="fill:#5AAAE7;" d="M109.589,493.138c-5.276,6.423-13.079,10.786-22.322,11.212c-0.507,0.02-1.015,0.03-1.532,0.03  h-1.218c-0.507,0-1.015-0.01-1.522-0.03c-21.947-0.994-35.756-24.24-26.99-44.381l22.901-52.63c2.364-5.439,10.086-5.439,12.45,0  l5.043,11.598l17.858,41.033C119.33,471.627,116.844,484.31,109.589,493.138z"/>
<path style="fill:#78B9EB;" d="M109.589,493.138c-21.48-1.512-34.843-24.433-26.188-44.33l12.998-29.871l17.858,41.033  C119.33,471.627,116.844,484.31,109.589,493.138z"/>
<path style="fill:#B3D8F4;" d="M343.71,117.837c-5.134-5.002-13.434-4.962-18.517,0.112l-91.725,91.735l-26.888-26.888  l91.725-91.735c5.124-5.114,13.505-5.114,18.629,0L343.71,117.837z"/>
<path style="fill:#2D2D30;" d="M440.214,117.634L430.159,127.7l-46.694,46.684c-4.728,4.738-12.48,4.738-17.219,0l-75.521-75.521  c-4.728-4.738-4.728-12.48,0-17.219l56.75-56.75c18.639-18.639,46.299-23.134,69.281-13.475c7.295,3.064,14.124,7.559,20.05,13.475  l3.409,3.419C464.779,52.879,464.779,93.07,440.214,117.634z"/>
<g>
	<path style="fill:#3E3D42;" d="M440.214,117.634L430.159,127.7l-56.232-56.232c-4.728-4.738-4.728-12.48,0-17.219l42.829-42.829   c7.295,3.064,14.124,7.559,20.05,13.475l3.409,3.419C464.779,52.879,464.779,93.07,440.214,117.634z"/>
	<path style="fill:#3E3D42;" d="M424.832,199.02l-17.675,17.685c-7.042,7.042-18.528,7.103-25.64,0.183L270.899,106.28   c-0.061-0.061-0.122-0.122-0.183-0.193l-22.302-22.302c-7.103-7.103-7.103-18.72,0-25.823l17.685-17.685   c7.103-7.103,18.72-7.103,25.823,0l22.495,22.495l110.415,110.415C431.935,180.289,431.935,191.917,424.832,199.02z"/>
</g>
<path style="fill:#57565C;" d="M424.832,199.02l-17.675,17.685c-7.042,7.042-18.528,7.103-25.64,0.183L270.899,106.28  c-0.061-0.061-0.122-0.122-0.183-0.193c-6.92-7.113-6.859-18.599,0.183-25.64l17.685-17.675c7.103-7.103,18.731-7.103,25.833,0  l110.415,110.415C431.935,180.289,431.935,191.917,424.832,199.02z"/>
<path d="M466.25,72.969c0-34.015-22.92-51.806-24.068-53.452c-10.004-10.004-22.647-16.711-36.578-19.38  c-4.119-0.791-8.117,1.918-8.898,6.047c-0.802,4.119,1.908,8.107,6.037,8.899c20.386,3.922,30.103,17.057,32.094,18.609  c21.614,21.614,21.606,56.937,0,78.565l-30.085,30.085l-81.974-81.974l30.085-30.095c6.484-6.484,14.56-11.293,23.357-13.891  c4.028-1.197,6.331-5.428,5.134-9.457c-1.187-4.028-5.428-6.331-9.457-5.134c-11.212,3.318-21.521,9.446-29.8,17.726l-30.085,30.085  L297.31,34.899c-9.989-9.989-26.419-10.18-36.599,0l-17.685,17.675c-10.069,10.091-10.079,26.499,0,36.599l23.205,23.195  L147.983,230.616c-2.973,2.973-2.973,7.793,0,10.765c2.973,2.973,7.793,2.973,10.765,0l47.827-47.827l64.979,64.979l-30.872,30.872  c-4.8,4.8-1.346,12.998,5.388,12.998c5.999,0,1.268,0.673,108.193-105.047c4.28,0.044,7.755-3.42,7.711-7.711  c-0.052-4.882-4.071-6.477-9.233-12.287l0,0l-64.979-64.979c-6.323-6.323-26.608-26.608-33.971-33.971  c-4.162-4.162-4.096-10.971,0-15.068l17.685-17.685c4.159-4.159,10.969-4.098,15.068,0c42.746,42.746,79.155,79.155,132.91,132.91  c4.09,4.09,4.169,10.898,0,15.068l-17.685,17.685c-4.149,4.149-10.931,4.137-15.068,0l-5.428-5.439  c-2.973-2.963-7.793-2.963-10.765,0c-2.973,2.973-2.973,7.793,0,10.766l5.439,5.439c10.01,10.01,26.43,10.159,36.588,0  l17.685-17.685c10.069-10.069,10.079-26.51,0-36.588l-14.702-14.702l30.085-30.095C458.914,109.7,466.25,91.923,466.25,72.969z   M276.997,123.134l64.979,64.979l-59.66,59.66l-64.979-64.979L276.997,123.134z"/>
<path d="M219.161,310.936l-19.857,19.847c-11.15,11.15-26.8,14.984-41.124,11.669c-2.557-0.589-5.236,0.172-7.092,2.029  l-27.599,27.588c-4.038,4.048-9.446,6.281-15.22,6.281c-19.175,0-28.715-23.245-15.23-36.731l27.588-27.588  c1.857-1.857,2.628-4.546,2.039-7.103c-6.371-27.439,14.055-43.312,14.56-44.026c2.973-2.973,2.973-7.793,0-10.755  c-2.973-2.973-7.793-2.973-10.765,0c-0.661,0.947-24.762,20.069-19.451,53.969l-24.737,24.737  c-6.92,6.92-10.725,16.153-10.725,25.995c0,32.747,39.73,48.961,62.706,25.985l24.737-24.737  c18.397,2.872,37.362-2.833,51.078-16.549l19.857-19.857c2.973-2.963,2.973-7.782,0-10.755  C226.954,307.963,222.134,307.963,219.161,310.936z"/>
<path d="M98.331,404.304c-5.006-11.505-21.387-11.522-26.402,0l-22.904,52.628c-10.914,25.075,6.344,56.489,38.582,55.02  c27.687-1.247,44.358-30.365,33.628-55.02L98.331,404.304z M84.521,496.772c-17.603,0-28.234-18.387-21.54-33.769L85.13,412.11  l22.15,50.894C113.566,477.449,104.962,496.522,84.521,496.772z"/>
<g>
</g>
<g>
</g>
<g>
</g>
<g>
</g>
<g>
</g>
<g>
</g>
<g>
</g>
<g>
</g>
<g>
</g>
<g>
</g>
<g>
</g>
<g>
</g>
<g>
</g>
<g>
</g>
<g>
</g>
</svg>
