<?xml version="1.0" encoding="iso-8859-1"?>
<!-- Generator: Adobe Illustrator 19.0.0, SVG Export Plug-In . SVG Version: 6.00 Build 0)  -->
<svg xmlns="http://www.w3.org/2000/svg" xmlns:xlink="http://www.w3.org/1999/xlink" version="1.1" id="Capa_1" x="0px" y="0px" viewBox="0 0 511.999 511.999" style="enable-background:new 0 0 511.999 511.999;" xml:space="preserve">
<path style="fill:#57565C;" d="M297.606,454.503v9.73c0,14.814-8.057,27.76-20.028,34.68c-5.896,3.427-12.735,5.377-20.044,5.377  c-22.123,0-40.073-17.932-40.073-40.056v-9.73H297.606z"/>
<path style="fill:#787680;" d="M297.606,454.503v9.73c0,14.814-8.057,27.76-20.028,34.68c-11.987-6.903-20.044-19.849-20.044-34.68  v-9.73H297.606z"/>
<path style="fill:#FFCD00;" d="M343.445,301.67c-15.675,14.49-24.983,34.598-24.983,55.942v79.267  c0,11.971-9.697,21.669-21.652,21.669h-78.553c-11.956,0-21.652-9.697-21.652-21.669v-78.975c0-21.002-8.512-41.306-24.089-55.406  c-25.566-23.179-41.616-56.64-41.616-93.854c0-70.951,58.362-128.29,129.703-126.6c5.555,0.13,11.012,0.634,16.373,1.478  c59.954,9.323,106.345,61.237,107.173,123.368C384.67,244.38,368.882,278.166,343.445,301.67z"/>
<path style="fill:#FFDA44;" d="M343.445,301.67c-15.675,14.49-24.983,34.598-24.983,55.942v79.267  c0,11.971-9.697,21.669-21.652,21.669h-39.568c-11.956,0-21.652-9.697-21.652-21.669v-78.975c0-21.002-8.512-41.306-24.089-55.406  c-25.566-23.179-41.616-56.64-41.616-93.854c0-63.284,46.424-115.734,107.092-125.123c59.954,9.323,106.345,61.237,107.173,123.368  C384.67,244.38,368.882,278.166,343.445,301.67z"/>
<rect x="196.602" y="362.391" style="fill:#ACABB1;" width="121.862" height="48.194"/>
<path style="fill:#898890;" d="M318.463,410.581v26.298c0,11.971-9.697,21.669-21.652,21.669h-78.553  c-11.956,0-21.652-9.697-21.652-21.669v-26.298H318.463z"/>
<rect x="235.589" y="362.391" style="fill:#C6C5CA;" width="82.874" height="48.194"/>
<path style="fill:#ACABB1;" d="M318.463,410.581v26.298c0,11.971-9.697,21.669-21.652,21.669h-39.57  c-11.956,0-21.652-9.697-21.652-21.669v-26.298H318.463z"/>
<path d="M105.018,287.212l-29.55,17.061c-6.765,3.905-3.973,14.286,3.834,14.286c1.298,0,2.615-0.331,3.82-1.027l29.55-17.061  c3.661-2.114,4.915-6.795,2.802-10.456C113.361,286.352,108.679,285.098,105.018,287.212z"/>
<path d="M434.907,307.086l-29.55-17.061c-3.663-2.115-8.345-0.859-10.456,2.802c-2.114,3.661-0.859,8.343,2.802,10.456  c30.386,17.137,29.742,18.087,33.37,18.087C438.885,321.372,441.668,310.99,434.907,307.086z"/>
<path d="M332.378,301.959c-13.057,14.395-20.571,33.009-21.378,52.748h-23.918V220.578H303.5c16.493,0,29.912-13.418,29.912-29.911  c0-16.493-13.418-29.911-29.912-29.911h-1.817c-16.493,0-29.911,13.418-29.911,29.911v14.602h-28.296v-14.602  c0-16.493-13.418-29.911-29.911-29.911h-1.817c-16.493,0-29.911,13.418-29.911,29.911s13.418,29.911,29.911,29.911h16.419v62.207  c0,4.227,3.427,7.655,7.655,7.655s7.655-3.427,7.655-7.655v-62.207h28.296v134.129h-28.296v-41.303c0-4.227-3.427-7.655-7.655-7.655  s-7.655,3.427-7.655,7.655v41.303h-23.901c-0.641-22.011-10.345-43.131-26.896-58.254c-12.637-11.546-22.82-25.944-29.446-41.638  c-1.644-3.894-6.136-5.72-10.029-4.074c-3.895,1.644-5.72,6.134-4.074,10.029c7.478,17.713,18.967,33.96,33.223,46.986  c13.965,12.759,21.975,30.717,21.975,49.268v82.152c0,12.795,8.944,23.535,20.905,26.316c0.171,6.71,1.696,13.171,4.572,19.218  c1.819,3.824,6.389,5.438,10.2,3.625c3.818-1.816,5.441-6.382,3.625-10.2c-1.791-3.766-2.815-7.773-3.061-11.936h64.721  c-1.309,21.759-23.49,36.123-43.901,28.344c-3.95-1.502-8.373,0.478-9.879,4.427c-1.505,3.951,0.478,8.373,4.427,9.879  c30.677,11.69,63.838-10.551,64.695-43.358c11.961-2.781,20.903-13.52,20.903-26.315v-80.921c0-17.238,6.21-33.577,17.487-46.009  c2.84-3.131,2.606-7.972-0.527-10.812C340.059,298.593,335.218,298.827,332.378,301.959z M287.082,190.666  c0-8.052,6.55-14.602,14.602-14.602h1.817c8.053,0,14.603,6.55,14.603,14.602c0,8.052-6.55,14.602-14.603,14.602h-16.419V190.666z   M228.167,205.269h-16.419c-8.052,0-14.602-6.55-14.602-14.602s6.55-14.602,14.602-14.602h1.817c8.052,0,14.602,6.55,14.602,14.602  V205.269z M310.92,439.175c0,6.458-5.254,11.714-11.714,11.714h-83.164c-6.459,0-11.714-5.254-11.714-11.714v-20.908H310.92V439.175  z M310.92,402.957H204.329v-32.941H310.92V402.957z"/>
<path d="M352.564,113.746c-84.317-84.42-229.266-24.581-229.266,94.824c0,7.051,0.552,14.135,1.641,21.05  c0.658,4.176,4.577,7.027,8.753,6.371c4.176-0.658,7.028-4.576,6.371-8.753c-0.965-6.131-1.455-12.412-1.454-18.668  c0-66.586,54.789-120.041,120.812-119.005c63.769,0.937,116.351,53.583,117.214,117.358c0.007,0.549,0.011,1.098,0.011,1.645  c0,26.051-8.262,50.787-23.891,71.534c-2.543,3.376-1.869,8.176,1.508,10.72c3.361,2.532,8.165,1.884,10.72-1.508  c17.645-23.422,26.973-51.344,26.973-80.745c0-0.617-0.004-1.236-0.013-1.853C391.467,171.713,377.483,138.696,352.564,113.746z"/>
<path d="M257.625,49.431c4.228,0,7.655-3.427,7.655-7.655V7.655c0-4.227-3.426-7.655-7.655-7.655c-4.227,0-7.655,3.427-7.655,7.655  v34.121C249.97,46.003,253.397,49.431,257.625,49.431z"/>
<path d="M166.287,67.43c1.418,2.456,3.991,3.828,6.636,3.828c5.824,0,9.586-6.35,6.622-11.483l-17.061-29.55  c-2.114-3.661-6.796-4.916-10.456-2.802c-3.661,2.114-4.915,6.795-2.802,10.456L166.287,67.43z"/>
<path d="M114.297,118.23l-29.55-17.061c-3.662-2.115-8.343-0.86-10.456,2.802c-2.114,3.661-0.859,8.343,2.802,10.456l29.55,17.061  c3.645,2.106,8.333,0.876,10.456-2.802C119.212,125.026,117.958,120.345,114.297,118.23z"/>
<path d="M94.673,209.133c0-4.227-3.427-7.655-7.655-7.655H52.897c-4.227,0-7.655,3.427-7.655,7.655c0,4.227,3.427,7.655,7.655,7.655  h34.121C91.247,216.787,94.673,213.36,94.673,209.133z"/>
<path d="M459.103,204.728h-34.121c-4.228,0-7.655,3.427-7.655,7.655s3.426,7.655,7.655,7.655h34.121  c4.228,0,7.655-3.427,7.655-7.655S463.331,204.728,459.103,204.728z"/>
<path d="M406.982,134.303l29.55-17.061c3.661-2.114,4.915-6.795,2.802-10.456c-2.114-3.662-6.797-4.916-10.456-2.802l-29.55,17.061  c-3.661,2.114-4.915,6.795-2.802,10.456C398.65,135.18,403.338,136.408,406.982,134.303z"/>
<path d="M341.892,72.883c2.645,0,5.218-1.374,6.636-3.828l17.061-29.55c2.114-3.661,0.859-8.343-2.802-10.456  c-3.663-2.115-8.344-0.859-10.456,2.802L335.269,61.4C332.309,66.527,336.061,72.883,341.892,72.883z"/>
<g>
</g>
<g>
</g>
<g>
</g>
<g>
</g>
<g>
</g>
<g>
</g>
<g>
</g>
<g>
</g>
<g>
</g>
<g>
</g>
<g>
</g>
<g>
</g>
<g>
</g>
<g>
</g>
<g>
</g>
</svg>
