<?xml version="1.0" encoding="iso-8859-1"?>
<!-- Generator: Adobe Illustrator 19.0.0, SVG Export Plug-In . SVG Version: 6.00 Build 0)  -->
<svg xmlns="http://www.w3.org/2000/svg" xmlns:xlink="http://www.w3.org/1999/xlink" version="1.1" id="Capa_1" x="0px" y="0px" viewBox="0 0 509.98 509.98" style="enable-background:new 0 0 509.98 509.98;" xml:space="preserve">
<path style="fill:#FFA5B5;" d="M502.246,247.999c0,9.334-1.342,18.355-3.835,26.882c-3.986,13.623-10.928,25.994-20.101,36.357  c-2.059,2.331-4.218,4.561-6.498,6.69h-0.01c-1.039,0.979-2.099,1.927-3.189,2.856c-3.754,3.209-7.77,6.125-12.008,8.729  c3.047,4.43,5.59,9.233,7.518,14.339c3.037,8.042,4.581,16.821,4.268,26.004c-0.081,2.432-0.293,4.823-0.636,7.185  c-0.202,1.413-0.444,2.805-0.737,4.188c-6.428,30.706-34.077,53.713-66.438,53.34c-10.252-0.111-19.95-2.543-28.597-6.771  c-4.48,11.181-12.2,20.747-21.978,27.518c-9.778,6.771-21.615,10.747-34.339,10.747c-30.313,0-55.681-22.533-60.061-51.685  c-0.192-1.292-0.353-2.583-0.454-3.895c-0.081-0.928-0.141-1.867-0.172-2.805c0-0.04-0.04-0.04-0.04,0  c-0.04,1.019-0.101,2.038-0.202,3.047c-0.151,1.837-0.394,3.653-0.727,5.449c-2.301,12.745-8.628,24.147-17.608,32.815  c-10.928,10.555-25.792,17.074-42.089,17.074c-25.449,0-47.356-15.903-56.317-38.264c-8.648,4.228-18.345,6.66-28.597,6.771  c-36.246,0.424-66.579-28.496-67.81-64.723c-0.232-6.932,0.585-13.643,2.321-19.98c2.008-7.366,5.237-14.228,9.465-20.353  C26,312.691,7.736,282.479,7.736,247.999c0-20.262,6.297-39.051,17.064-54.511c11.362-16.337,27.689-28.961,46.801-35.681  c0.525-0.192,1.049-0.373,1.574-0.545c-3.824-8.426-5.964-17.78-5.964-27.629c0-6.387,0.898-12.563,2.563-18.416  c0.505-1.776,1.08-3.532,1.736-5.247c9.556-25.358,34.046-43.391,62.755-43.391c5.106,0,10.081,0.585,14.864,1.675  c5.56-6.226,12.381-11.312,20.05-14.833c7.669-3.532,16.186-5.499,25.136-5.499c32.392,0,59.092,25.732,60.616,57.76  c0,0.081,0.121,0.081,0.121,0c0.767-16.014,7.82-30.454,18.729-40.888c10.918-10.444,25.691-16.872,41.887-16.872  c17.911,0,34.067,7.881,45.187,20.333c4.783-1.09,9.758-1.675,14.864-1.675c28.708,0,53.199,18.032,62.755,43.391  c0.383,0.999,0.737,2.008,1.06,3.037c2.109,6.498,3.239,13.431,3.239,20.626c0,9.849-2.139,19.203-5.964,27.629  C474.819,169.906,502.246,205.738,502.246,247.999z"/>
<path style="fill:#FF728B;" d="M464.123,343.851c-9.697,25.631-34.753,43.794-63.542,43.461c-8.691-0.094-16.984-1.856-24.576-4.967  c-2.21-0.905-4.759,0.073-5.806,2.219c-4.613,9.453-11.609,17.551-20.193,23.494c-9.778,6.771-21.615,10.747-34.339,10.747  c-30.313,0-55.681-22.533-60.061-51.685c-0.333-2.2-0.545-4.43-0.626-6.7c0-0.04-0.04-0.04-0.04,0  c-0.111,2.886-0.414,5.721-0.928,8.496c-2.301,12.745-8.628,24.147-17.608,32.815c-10.928,10.555-25.792,17.074-42.089,17.074  c-22.907,0-42.944-12.885-53.253-31.766c-2.064-3.78-6.148-5.967-10.441-5.63c-45.76,3.596-42.377-29.258-41.584-44.452  c0.24-4.605-1.867-9.038-5.588-11.762C59.678,307.801,48.635,279.705,48.635,248c0-20.262,6.297-39.051,17.064-54.511  c3.512-5.045,10.737-13.108,16.761-18.971c4.541-4.42-5.378-11.463-8.92-16.71l-0.363-0.545  c-19.788,6.579-36.7,19.445-48.375,36.226C14.033,208.948,7.737,227.737,7.737,248c0,34.48,18.264,64.692,45.641,81.514  c-4.228,6.125-7.457,12.987-9.465,20.353c-1.736,6.337-2.553,13.047-2.321,19.98c1.231,36.226,31.564,65.146,67.81,64.723  c10.252-0.111,19.95-2.543,28.597-6.771c8.961,22.361,30.868,38.264,56.317,38.264c16.297,0,31.16-6.519,42.089-17.074  c8.981-8.668,15.308-20.071,17.608-32.815c0.333-1.796,0.575-3.613,0.727-5.449c0.101-1.009,0.161-2.028,0.202-3.047  c0-0.04,0.04-0.04,0.04,0c0.03,0.938,0.091,1.877,0.172,2.805c0.101,1.312,0.262,2.603,0.454,3.895  c4.379,29.152,29.748,51.685,60.061,51.685c12.725,0,24.561-3.976,34.339-10.747c9.778-6.771,17.497-16.337,21.978-27.518  c8.648,4.228,18.345,6.66,28.597,6.771c32.361,0.373,60.01-22.634,66.438-53.34c0.293-1.382,0.535-2.775,0.737-4.188  c0.343-2.361,0.555-4.753,0.636-7.185C468.704,360.673,467.16,351.894,464.123,343.851z"/>
<path d="M447.684,153.139l-0.833-0.36l0.271-0.867c7.735-24.751,2.149-51.372-14.94-71.212  c-16.91-19.632-42.402-28.961-68.18-24.951l-0.495,0.077l-0.36-0.349C347.725,40.558,326.75,33.8,305.603,36.935  c-21.151,3.135-39.277,15.711-49.73,34.503l-0.882,1.585l-0.882-1.585c-10.451-18.79-28.581-31.365-49.742-34.503  c-21.141-3.134-42.11,3.625-57.533,18.545l-0.36,0.349l-0.496-0.077c-25.789-4.02-51.34,5.373-68.349,25.12  c-17,19.737-22.527,46.296-14.783,71.046l0.271,0.867l-0.835,0.36C24.447,169.489,0,206.72,0,247.996  c0,33.319,15.372,63.684,42.176,83.313l0.704,0.516l-0.409,0.772c-14.639,27.619-10.854,59.728,9.879,83.797  c20.489,23.786,51.536,32.11,81.02,21.724l0.802-0.283l0.415,0.743c4.539,8.13,10.578,15.154,17.952,20.877  c1.632,1.268,3.659,1.825,5.711,1.566c2.05-0.258,3.877-1.299,5.144-2.931c1.267-1.633,1.823-3.661,1.565-5.711  c-0.258-2.049-1.3-3.877-2.931-5.144c-7.51-5.83-13.334-13.545-16.844-22.308c-0.808-2.018-2.371-3.56-4.402-4.343  c-2.031-0.78-4.223-0.687-6.178,0.268c-19.592,9.571-42.03,7.766-60.025-4.829c-17.92-12.545-27.248-33.025-24.953-54.785  c3.203-30.23,28.558-53.026,58.98-53.026c4.266,0,7.737-3.47,7.737-7.737s-3.47-7.737-7.737-7.737  c-21.54,0-42.064,9.35-56.309,25.651l-0.613,0.7l-0.749-0.554c-22.538-16.705-35.464-42.415-35.464-70.536  c0-35.181,20.864-66.868,53.151-80.727l0.814-0.349l0.452,0.762c13.452,22.663,38.11,36.742,64.351,36.742  c4.266,0,7.737-3.47,7.737-7.737c0-4.266-3.47-7.737-7.737-7.737c-23.184,0-44.384-13.678-54.012-34.847  c-8.586-19.135-6.642-40.832,5.2-58.045c11.852-17.226,31.374-26.804,52.21-25.639c19.827,1.149,37.099,11.554,47.385,28.546  c2.209,3.649,6.977,4.819,10.626,2.612c3.649-2.209,4.82-6.976,2.612-10.625c-7.757-12.813-18.922-22.882-32.291-29.119  l-1.659-0.774l1.54-0.989c16.46-10.576,36.575-11.271,53.809-1.861c17.256,9.423,27.559,26.752,27.559,46.355v112.599l-1.049-0.041  c-15.681-0.618-26.374-6.38-33.653-18.134c-2.246-3.626-7.025-4.75-10.652-2.506c-3.628,2.246-4.751,7.023-2.506,10.651  c10.036,16.209,25.81,24.774,46.881,25.456l0.977,0.031v117.436l-1.703-1.618c-10.283-9.762-23.72-15.137-37.841-15.137h-47.955  c-4.266,0-7.737,3.47-7.737,7.737s3.47,7.737,7.737,7.737h47.955c21.804,0,39.544,17.74,39.544,39.544v17.103  c0,15.493-6.786,30.164-18.618,40.25c-11.81,10.07-27.346,14.439-42.633,11.99c-0.416-0.067-0.831-0.1-1.244-0.1  c-1.615,0-3.184,0.505-4.517,1.469c-1.674,1.212-2.777,3.004-3.105,5.044c-0.327,2.04,0.159,4.087,1.37,5.761  c1.212,1.674,3.003,2.777,5.043,3.104c28.258,4.533,56.627-9.289,70.59-34.396l0.882-1.585l0.882,1.585  c13.965,25.108,42.328,38.932,70.59,34.395c2.04-0.327,3.831-1.43,5.042-3.104c1.212-1.674,1.699-3.721,1.371-5.761  c-0.328-2.04-1.43-3.832-3.104-5.044c-1.672-1.211-3.717-1.697-5.762-1.369c-15.283,2.449-30.821-1.92-42.632-11.988  c-11.833-10.087-18.619-24.758-18.619-40.251V337.6c0-21.804,17.74-39.544,39.544-39.544h69.403c4.266,0,7.737-3.47,7.737-7.737  c0-4.266-3.47-7.737-7.737-7.737h-69.403c-14.119,0-27.559,5.375-37.841,15.137l-1.703,1.618v-31.719l0.965-0.043  c32.714-1.454,58.34-28.256,58.34-61.015c0-4.266-3.47-7.737-7.737-7.737c-4.266,0-7.737,3.47-7.737,7.737  c0,24.033-18.781,44.025-42.759,45.513l-1.072,0.067V104.561c0-19.599,10.299-36.926,27.55-46.348  c17.236-9.415,37.355-8.722,53.808,1.85l1.541,0.989l-1.66,0.774c-13.373,6.236-24.543,16.308-32.303,29.124  c-1.071,1.768-1.389,3.847-0.895,5.854c0.492,2.007,1.739,3.701,3.507,4.772c3.649,2.208,8.415,1.037,10.626-2.612  c10.206-16.859,28-27.533,47.599-28.555c20.296-1.111,39.527,8.158,51.42,24.796c11.857,16.585,14.387,37.74,6.769,56.587  c-9.127,22.573-30.717,37.157-55.006,37.157c-4.266,0-7.737,3.47-7.737,7.737c0,4.266,3.47,7.737,7.737,7.737  c26.245,0,50.904-14.081,64.354-36.748l0.452-0.762l0.814,0.349c29.198,12.525,48.836,38.896,52.534,70.543  c3.697,31.643-9.323,61.82-34.829,80.727l-0.748,0.554l-0.613-0.7c-14.245-16.301-34.769-25.651-56.31-25.651  c-4.266,0-7.737,3.47-7.737,7.737s3.47,7.737,7.737,7.737c28.146,0,52.598,20.002,58.142,47.56  c4.56,22.59-3.593,44.478-21.809,58.55c-18.088,13.974-41.97,16.476-62.33,6.53c-1.952-0.954-4.145-1.048-6.177-0.268  c-2.03,0.782-3.594,2.325-4.402,4.344c-3.511,8.764-9.334,16.477-16.843,22.308c-1.633,1.267-2.673,3.093-2.931,5.144  c-0.258,2.051,0.298,4.079,1.565,5.711c2.616,3.369,7.486,3.98,10.856,1.366c7.374-5.723,13.414-12.747,17.952-20.877l0.414-0.743  l0.802,0.283c23.491,8.277,49.504,4.238,69.578-10.801c20.339-15.235,31.222-38.517,29.859-63.873  c-0.577-10.734-3.53-21.399-8.537-30.845l-0.408-0.772l0.703-0.516c26.803-19.628,42.175-49.994,42.175-83.313  C509.982,206.712,485.528,169.479,447.684,153.139z"/>
<g>
</g>
<g>
</g>
<g>
</g>
<g>
</g>
<g>
</g>
<g>
</g>
<g>
</g>
<g>
</g>
<g>
</g>
<g>
</g>
<g>
</g>
<g>
</g>
<g>
</g>
<g>
</g>
<g>
</g>
</svg>
