<?xml version="1.0" encoding="iso-8859-1"?>
<!-- Generator: Adobe Illustrator 19.0.0, SVG Export Plug-In . SVG Version: 6.00 Build 0)  -->
<svg xmlns="http://www.w3.org/2000/svg" xmlns:xlink="http://www.w3.org/1999/xlink" version="1.1" id="Layer_1" x="0px" y="0px" viewBox="0 0 512 512" style="enable-background:new 0 0 512 512;" xml:space="preserve">
<g>
	<path style="fill:#FBCB99;" d="M263.545,279.793c0.288-0.064,0.567-0.155,0.842-0.262c0.098-0.038,0.196-0.075,0.292-0.118   c0.223-0.102,0.438-0.221,0.647-0.351c0.107-0.067,0.213-0.13,0.316-0.203c0.194-0.139,0.378-0.295,0.555-0.459   c0.104-0.096,0.203-0.192,0.299-0.295c0.014-0.015,0.029-0.027,0.043-0.042l1.001-1.093l-0.145-0.158   c0.399-0.778,0.646-1.645,0.646-2.578v-70.745c0-3.576,2.908-6.483,6.483-6.483c0.888,0,1.736,0.18,2.508,0.506l0.032,0.015   c0.036,0.015,0.068,0.033,0.104,0.05c0.242,0.108,0.473,0.232,0.695,0.367c0.054,0.032,0.109,0.065,0.162,0.098   c0.23,0.149,0.451,0.308,0.658,0.482c0.043,0.037,0.084,0.078,0.128,0.116c0.166,0.149,0.326,0.305,0.477,0.47   c0.051,0.055,0.103,0.109,0.151,0.164c0.174,0.203,0.338,0.415,0.485,0.638c0.026,0.039,0.049,0.081,0.073,0.121   c0.125,0.2,0.242,0.406,0.345,0.619c0.027,0.057,0.057,0.113,0.083,0.172c0.113,0.254,0.216,0.514,0.298,0.782   c0.007,0.023,0.011,0.046,0.017,0.069c0.072,0.246,0.126,0.498,0.169,0.753c0.012,0.068,0.024,0.136,0.031,0.204   c0.038,0.282,0.064,0.566,0.064,0.856l-0.003,58.379l-0.01,0.263l0,0v0.001l0.013,0.215c0,3.138,2.553,5.692,5.692,5.692h0.493   c0.36,0,0.715-0.04,1.064-0.108c0.044-0.009,0.089-0.015,0.133-0.024c0.289-0.064,0.567-0.156,0.842-0.261   c0.098-0.038,0.196-0.075,0.292-0.118c0.223-0.102,0.438-0.222,0.647-0.351c0.107-0.067,0.213-0.13,0.316-0.203   c0.194-0.139,0.378-0.295,0.555-0.459c0.104-0.096,0.204-0.192,0.299-0.295c0.014-0.015,0.029-0.027,0.043-0.042l1.001-1.094   l-0.145-0.158c0.399-0.778,0.646-1.645,0.646-2.578l0.005-63.456l0.014-0.27l-0.005-0.083c-0.177-2.613,1.22-5.059,3.558-6.234   c0.914-0.459,1.891-0.693,2.906-0.693c0.893,0,1.752,0.185,2.54,0.519l0.07,0.03c0.331,0.145,0.644,0.319,0.943,0.515   c0.042,0.027,0.081,0.059,0.122,0.088c0.244,0.167,0.474,0.352,0.693,0.551c0.062,0.056,0.12,0.112,0.179,0.17   c0.192,0.19,0.371,0.393,0.539,0.607c0.053,0.068,0.11,0.131,0.159,0.201c0.204,0.281,0.392,0.576,0.55,0.889   c2.481,4.901,11.468,19.304,19.933,21.119c0.556,0.119,1.069,0.177,1.569,0.177c0,0,0,0,0.001,0h0.001h0.001   c0.003,0,0.005-0.001,0.009-0.001c0.365,0,0.728-0.039,1.09-0.102c0.112-0.019,0.225-0.051,0.338-0.076   c0.257-0.058,0.515-0.127,0.773-0.217c0.129-0.044,0.257-0.093,0.385-0.146c0.252-0.103,0.506-0.223,0.76-0.355   c0.121-0.064,0.242-0.121,0.364-0.192c0.05-0.028,0.098-0.049,0.148-0.078l2.562-1.54l-0.77-0.375   c1.379-3.293,0.345-9.741-6.459-19.065c-8.126-11.136-9.755-20.083-11.066-27.273c-1.861-10.201-3.329-18.26-22.729-32.957   c-1.608-1.219-2.568-3.151-2.568-5.168v-16.929h-56.637h-9.725v25.213c0,2.28-1.219,4.418-3.18,5.579   c-2.71,1.604-4.921,4.901-6.707,9.185c-4.914,11.777-6.622,31.001-6.689,42.917c-0.006,1.084,0.001,2.106,0.022,3.058l0.002,35.185   c0,3.139,2.553,5.692,5.693,5.692h0.493c0.359,0,0.714-0.039,1.062-0.108c0.048-0.009,0.095-0.016,0.143-0.026   c0.283-0.064,0.559-0.153,0.829-0.257c0.107-0.041,0.211-0.082,0.313-0.129c0.215-0.099,0.424-0.214,0.625-0.339   c0.11-0.068,0.219-0.133,0.324-0.207c0.193-0.138,0.376-0.293,0.552-0.456c0.104-0.096,0.203-0.193,0.3-0.295   c0.014-0.016,0.029-0.028,0.043-0.043l1.002-1.093l-0.146-0.159c0.399-0.778,0.646-1.646,0.646-2.578V203.49   c0-3.575,2.908-6.483,6.483-6.483c0.888,0,1.736,0.18,2.508,0.506l0.032,0.015c0.036,0.015,0.068,0.034,0.104,0.05   c0.242,0.108,0.473,0.232,0.696,0.367c0.054,0.032,0.109,0.065,0.162,0.098c0.23,0.149,0.451,0.308,0.658,0.482   c0.043,0.037,0.084,0.078,0.128,0.116c0.166,0.149,0.326,0.305,0.477,0.47c0.051,0.055,0.103,0.109,0.151,0.164   c0.174,0.203,0.338,0.415,0.485,0.638c0.026,0.039,0.049,0.081,0.073,0.121c0.125,0.2,0.242,0.406,0.345,0.619   c0.027,0.057,0.057,0.113,0.083,0.172c0.113,0.254,0.216,0.514,0.298,0.782c0.006,0.023,0.011,0.046,0.017,0.069   c0.072,0.246,0.126,0.498,0.169,0.753c0.012,0.068,0.023,0.136,0.031,0.204c0.038,0.282,0.064,0.566,0.064,0.856v58.859   c0,3.138,2.553,5.692,5.692,5.692h0.493c0.285,0,0.565-0.029,0.844-0.071c0.08-0.012,0.16-0.023,0.239-0.038   c0.236-0.046,0.469-0.106,0.696-0.182c0.126-0.041,0.249-0.093,0.372-0.143c0.105-0.043,0.207-0.09,0.31-0.14   c0.256-0.122,0.5-0.264,0.735-0.424c0.046-0.032,0.094-0.062,0.139-0.094c0.144-0.104,0.28-0.213,0.412-0.331   c0.042-0.036,0.08-0.075,0.12-0.113c0.158-0.147,0.312-0.295,0.452-0.46l0.878-0.962l-0.146-0.158   c0.21-0.415,0.388-0.848,0.496-1.32l0.04-10.413c0-0.299,0.028-0.63,0.089-1.01l0.039-0.25l-0.039-0.25   c-0.061-0.38-0.089-0.71-0.089-1.01v-47.184c0-3.576,2.908-6.483,6.483-6.483c0.888,0,1.736,0.18,2.508,0.506l0.032,0.015   c0.036,0.015,0.068,0.034,0.104,0.05c0.242,0.108,0.473,0.232,0.695,0.367c0.054,0.032,0.109,0.065,0.162,0.098   c0.23,0.149,0.451,0.308,0.658,0.482c0.043,0.037,0.084,0.078,0.128,0.116c0.166,0.149,0.326,0.305,0.477,0.47   c0.051,0.055,0.103,0.109,0.151,0.164c0.174,0.203,0.338,0.415,0.485,0.638c0.026,0.039,0.049,0.081,0.073,0.121   c0.125,0.2,0.242,0.406,0.345,0.619c0.027,0.057,0.057,0.113,0.083,0.172c0.113,0.254,0.216,0.514,0.298,0.782   c0.006,0.023,0.011,0.046,0.017,0.069c0.072,0.246,0.126,0.498,0.169,0.753c0.012,0.068,0.023,0.136,0.031,0.204   c0.038,0.282,0.064,0.566,0.064,0.856v42.503l0.019,0.25c0.06,0.38,0.089,0.71,0.089,1.01v15.096c0,0.636-0.034,1.284-0.099,1.922   l-0.009,9.964c0,3.138,2.553,5.692,5.692,5.692h0.493c0.36,0,0.715-0.04,1.064-0.108   C263.457,279.809,263.501,279.803,263.545,279.793z"/>
	<path style="fill:#FBCB99;" d="M411.442,351.672c-1.974-1.141-3.217-3.264-3.242-5.544c-0.135-12.594-27.737-31.824-41.084-39.163   l-30.47-17.59c-0.863-0.499-1.846-0.762-2.84-0.762c-2.031,0-3.923,1.09-4.935,2.845l-0.253,0.437   c-1.022,1.77-0.791,3.461-0.563,4.31c0.228,0.85,0.875,2.43,2.651,3.454l25.68,14.827c1.5,0.867,2.573,2.265,3.021,3.937   c0.447,1.673,0.217,3.42-0.648,4.92c-0.159,0.277-0.341,0.535-0.538,0.782c-0.066,0.083-0.14,0.158-0.21,0.238   c-0.14,0.16-0.285,0.316-0.44,0.46c-0.081,0.076-0.165,0.148-0.25,0.218c-0.174,0.146-0.355,0.284-0.545,0.412   c-0.068,0.045-0.134,0.092-0.204,0.135c-0.266,0.164-0.542,0.317-0.834,0.444l-0.191,0.083c-0.756,0.303-1.572,0.47-2.41,0.47   c-1.13,0-2.249-0.3-3.234-0.87l-47.832-27.616l0.001-0.001l-3.14-1.811c-1.319-0.762-2.875-0.96-4.322-0.569   c-0.85,0.229-2.431,0.878-3.452,2.651l-0.253,0.437c-1.311,2.271-0.86,5.219,1.072,7.009l9,5.244   c0.258,0.148,0.522,0.333,0.83,0.579l0.197,0.159l0.237,0.091c0.364,0.14,0.656,0.277,0.918,0.429l40.861,23.592   c0.361,0.209,0.695,0.452,1.004,0.719c0.016,0.014,0.035,0.025,0.051,0.04c0.291,0.255,0.551,0.54,0.789,0.842   c0.026,0.032,0.056,0.064,0.08,0.097c0.227,0.298,0.424,0.62,0.595,0.956c0.023,0.043,0.048,0.083,0.068,0.126   c0.169,0.348,0.306,0.715,0.413,1.098c0.335,1.202,0.325,2.497-0.071,3.727c-0.007,0.019-0.011,0.04-0.017,0.059   c-0.055,0.162-0.12,0.322-0.188,0.481c-0.018,0.042-0.031,0.085-0.051,0.128c-0.089,0.198-0.188,0.391-0.298,0.583   c-0.159,0.277-0.343,0.535-0.538,0.782c-0.066,0.083-0.14,0.159-0.21,0.238c-0.14,0.16-0.285,0.315-0.44,0.46   c-0.081,0.076-0.165,0.148-0.25,0.218c-0.174,0.146-0.354,0.284-0.545,0.412c-0.068,0.045-0.134,0.092-0.203,0.135   c-0.266,0.164-0.542,0.317-0.835,0.444l-0.191,0.083c-0.756,0.303-1.572,0.471-2.41,0.471c-1.13,0-2.249-0.3-3.234-0.87   l-36.804-21.25l-0.225-0.108c-0.37-0.144-0.662-0.28-0.923-0.43l-13.072-7.546c-0.555-0.321-1.099-0.673-1.618-1.049l-5.491-3.176   l0.002-0.002l-3.134-1.81c-1.319-0.763-2.888-0.953-4.32-0.569c-0.849,0.227-2.429,0.874-3.453,2.649l-0.254,0.439   c-1.022,1.77-0.791,3.461-0.563,4.308c0.227,0.85,0.874,2.431,2.653,3.459l61.266,35.371c0.361,0.209,0.695,0.452,1.004,0.719   c0.016,0.014,0.033,0.025,0.051,0.04c0.291,0.255,0.551,0.54,0.789,0.842c0.025,0.032,0.055,0.064,0.08,0.097   c0.227,0.298,0.424,0.62,0.595,0.956c0.022,0.043,0.046,0.083,0.068,0.126c0.169,0.348,0.306,0.715,0.413,1.098   c0.335,1.202,0.325,2.496-0.071,3.727c-0.006,0.021-0.011,0.04-0.018,0.059c-0.054,0.162-0.119,0.322-0.187,0.481   c-0.018,0.042-0.031,0.085-0.051,0.128c-0.089,0.198-0.188,0.391-0.298,0.583c-0.159,0.277-0.341,0.535-0.538,0.782   c-0.066,0.083-0.14,0.159-0.21,0.238c-0.141,0.16-0.285,0.316-0.44,0.46c-0.081,0.076-0.165,0.148-0.25,0.218   c-0.174,0.146-0.355,0.284-0.545,0.412c-0.068,0.045-0.134,0.092-0.204,0.135c-0.266,0.164-0.542,0.317-0.834,0.444l-0.191,0.083   c-0.756,0.303-1.572,0.471-2.41,0.471c-1.13,0-2.249-0.3-3.234-0.87l-50.551-29.19l-0.431-0.245   c-0.86-0.496-1.839-0.757-2.831-0.757c-2.032,0-3.923,1.09-4.936,2.845l-0.243,0.422c-0.761,1.317-0.964,2.853-0.569,4.323   c0.393,1.47,1.336,2.699,2.652,3.458l54.949,31.733l0.303,0.184c2.352,1.153,3.773,3.586,3.622,6.199   c-0.023,0.392-0.085,0.774-0.174,1.144c-0.008,0.03-0.012,0.064-0.021,0.094c-0.088,0.347-0.209,0.681-0.35,1.002   c-0.022,0.049-0.04,0.099-0.063,0.147c-0.143,0.304-0.31,0.592-0.496,0.868c-0.038,0.055-0.073,0.111-0.113,0.165   c-0.189,0.262-0.398,0.509-0.622,0.739c-0.05,0.052-0.102,0.102-0.152,0.151c-0.233,0.223-0.481,0.429-0.746,0.615   c-0.055,0.039-0.111,0.073-0.166,0.111c-0.277,0.183-0.566,0.348-0.872,0.487c-0.048,0.022-0.096,0.039-0.144,0.059   c-0.324,0.138-0.659,0.256-1.009,0.341c-0.027,0.008-0.055,0.011-0.082,0.017c-0.371,0.084-0.752,0.143-1.145,0.16   c-0.227,0.011-0.456,0.011-0.688-0.002c-0.837-0.046-1.77-0.07-2.767-0.07c-1.982,0-19.539,0.19-25.49,6.773   c-1.037,1.15-2.179,2.91-1.783,6.356l0.031,0.273l0.119,0.246c0.579,1.199,3.329,5.112,14.387,5.112   c0.029,0,0.063-0.002,0.093-0.002c0.78-0.002,1.596-0.03,2.427-0.071c0.198-0.011,0.392-0.021,0.593-0.031   c0.151-0.01,0.297-0.014,0.451-0.024v-0.014c0.763-0.053,1.528-0.107,2.323-0.191c2.385-0.255,4.732-0.386,6.976-0.386   c1.085,0,2.124,0.034,3.134,0.088v0.007c6.07,0.334,10.835,1.571,14.987,2.937c0.056,0.018,0.111,0.036,0.167,0.055   c0.643,0.213,1.273,0.428,1.888,0.644c0.077,0.026,0.152,0.053,0.228,0.08c0.6,0.21,1.191,0.421,1.77,0.628   c0.143,0.051,0.283,0.1,0.426,0.151c4.487,1.602,8.787,3.077,14.48,3.077c0.11,0,0.228-0.012,0.339-0.013   c0.606-0.007,1.223-0.03,1.849-0.07c0.245-0.016,0.492-0.033,0.741-0.055c0.179-0.015,0.354-0.022,0.535-0.039l15.957-1.544   l-5.683-0.6c3.42-1.021,7.14-2.376,11.26-4.112c1.618-0.682,3.48-0.661,5.083,0.022l0.016,0.008   c0.226,0.097,0.447,0.206,0.661,0.331l14.66,8.463l3.242-5.613l0,0l29.94-51.856L411.442,351.672z"/>
	<path style="fill:#FBCB99;" d="M240.106,330.525l-1.063-1.262c-0.019-0.023-0.038-0.043-0.057-0.066l-0.127-0.152   c-0.011-0.013-0.023-0.024-0.032-0.036c-0.602-0.701-1.278-1.151-1.875-1.432c-0.022-0.011-0.042-0.022-0.064-0.03   c-0.095-0.043-0.187-0.083-0.277-0.119c-0.046-0.018-0.089-0.034-0.133-0.051c-0.067-0.024-0.133-0.05-0.196-0.069   c-0.107-0.036-0.206-0.066-0.294-0.09c-1.011-0.269-2.12-0.252-3.134,0.056l-9.06,5.183c-0.26,0.151-0.561,0.292-0.917,0.428   l-0.238,0.092l-0.199,0.16c-0.303,0.245-0.566,0.429-0.83,0.581l-40.861,23.591c-0.213,0.123-0.432,0.223-0.653,0.319l-0.198,0.086   c-0.759,0.301-1.568,0.465-2.385,0.465c-2.313,0-4.468-1.242-5.622-3.243c-0.865-1.5-1.096-3.247-0.648-4.92   c0.448-1.673,1.521-3.071,3.021-3.937l36.804-21.248l0.211-0.145c0.292-0.238,0.564-0.429,0.83-0.582l13.073-7.546   c0.531-0.307,1.104-0.6,1.706-0.871l8.641-4.979c1.776-1.025,2.425-2.605,2.654-3.458c0.215-0.808,0.42-2.376-0.437-4.05   l0.263-0.152l-1.325-1.487c-0.049-0.054-0.102-0.102-0.152-0.153c-0.051-0.053-0.1-0.104-0.152-0.153   c-0.131-0.125-0.268-0.244-0.41-0.357c-0.036-0.027-0.069-0.059-0.107-0.086c-0.372-0.281-0.776-0.513-1.203-0.695   c-0.049-0.022-0.099-0.038-0.149-0.057c-0.162-0.065-0.328-0.121-0.497-0.17c-0.066-0.021-0.134-0.038-0.203-0.055   c-0.161-0.041-0.325-0.072-0.491-0.099c-0.066-0.011-0.132-0.025-0.199-0.031c-0.229-0.028-0.46-0.046-0.694-0.046   c-0.996,0-1.98,0.265-2.842,0.765l-61.264,35.371c-0.212,0.122-0.429,0.22-0.647,0.316l-0.218,0.095   c-0.754,0.298-1.557,0.459-2.369,0.459c-2.313,0-4.468-1.242-5.622-3.243c-1.787-3.096-0.723-7.069,2.373-8.856l50.551-29.183   l0.434-0.254c1.769-1.028,2.413-2.602,2.639-3.448c0.217-0.807,0.423-2.373-0.435-4.052l0.264-0.152l-1.329-1.487   c-0.043-0.049-0.093-0.092-0.137-0.138c-0.056-0.057-0.111-0.113-0.169-0.169c-0.123-0.118-0.251-0.23-0.384-0.336   c-0.044-0.036-0.085-0.072-0.131-0.107c-0.368-0.278-0.768-0.508-1.191-0.688c-0.058-0.025-0.118-0.045-0.178-0.069   c-0.151-0.059-0.304-0.112-0.461-0.159c-0.078-0.023-0.157-0.044-0.236-0.064c-0.147-0.036-0.295-0.065-0.444-0.09   c-0.08-0.014-0.16-0.028-0.242-0.039c-0.197-0.024-0.394-0.037-0.595-0.04c-0.028,0-0.056-0.005-0.084-0.005   c-0.673,0-1.338,0.131-1.967,0.363c-0.299,0.111-0.593,0.238-0.872,0.399l-54.899,31.691l-0.348,0.187   c-0.197,0.133-0.405,0.242-0.614,0.35c-0.136,0.068-0.273,0.137-0.433,0.206c-1.968,0.844-4.329,0.694-6.151-0.507   c-2.986-1.961-3.819-5.988-1.856-8.978c3.004-4.6,10.98-19.581,8.321-27.817c-0.13-0.401-0.301-0.833-0.538-1.275l0.193-0.146   l-1.184-1.224c-0.191-0.204-0.407-0.406-0.647-0.606c-0.049-0.041-0.099-0.081-0.149-0.122c-0.158-0.124-0.321-0.247-0.499-0.37   c-0.132-0.091-0.273-0.176-0.414-0.262c-0.129-0.078-0.251-0.158-0.39-0.233c-0.309-0.17-0.633-0.334-0.983-0.485l-0.255-0.111   l-0.278-0.019c-0.098-0.008-0.199-0.011-0.304-0.011c-3.5,0-9.007,3.987-13.964,15.181c-5.581,12.602-12.515,18.489-18.086,23.219   c-7.904,6.713-14.15,12.014-17.176,36.163c-0.251,2.002-1.444,3.8-3.191,4.808l-14.66,8.464l33.181,57.471l7.67-4.428l0,0   l14.165-8.179c1.687-0.974,3.793-1.111,5.6-0.417l0.231,0.102c0.069,0.029,0.137,0.067,0.205,0.097   c0.129,0.062,0.262,0.113,0.386,0.185c1.786,1.006,4.171,1.515,7.086,1.515c0.559,0,1.137-0.024,1.722-0.059   c0.053-0.003,0.106-0.007,0.158-0.011c0.781-0.05,1.582-0.125,2.406-0.232l10.96-1.284l-2.737-0.444   c12.267-3.392,26.379-10.35,34.862-15.486l-0.84-1.386l0.96,1.316l30.348-17.521c1.775-1.024,2.425-2.605,2.654-3.458   c0.216-0.809,0.42-2.378-0.437-4.052l0.265-0.153l-1.324-1.487c-0.055-0.063-0.117-0.116-0.174-0.175   c-0.04-0.041-0.078-0.081-0.119-0.12c-0.144-0.139-0.293-0.269-0.449-0.391c-0.025-0.019-0.046-0.039-0.071-0.058   c-0.376-0.283-0.783-0.516-1.215-0.7c-0.046-0.018-0.094-0.035-0.14-0.054c-0.164-0.065-0.332-0.121-0.502-0.171   c-0.066-0.021-0.134-0.038-0.201-0.055c-0.162-0.04-0.324-0.071-0.488-0.098c-0.068-0.011-0.133-0.024-0.201-0.031   c-0.228-0.028-0.457-0.046-0.688-0.046c-0.001,0-0.003,0-0.004,0l0,0c-0.001,0-0.001,0-0.001,0c-0.386,0-0.766,0.051-1.142,0.129   c-0.591,0.122-1.164,0.326-1.691,0.63l-25.689,14.831c-0.209,0.122-0.427,0.219-0.644,0.314l-0.218,0.095   c-0.754,0.298-1.557,0.459-2.369,0.459c-2.313,0-4.468-1.242-5.622-3.243c-0.865-1.5-1.096-3.247-0.648-4.92   c0.448-1.673,1.521-3.071,3.021-3.937l50.972-29.428c1.78-1.028,2.427-2.608,2.653-3.456c0.213-0.791,0.414-2.315-0.387-3.956   L240.106,330.525z"/>
</g>
<g>
	<path style="fill:#EDBA89;" d="M215.226,233.14l-0.002-35.185c-0.019-0.952-0.027-1.974-0.022-3.058   c0.068-11.916,1.775-31.139,6.689-42.917c1.786-4.283,3.997-7.581,6.707-9.185c1.962-1.16,3.18-3.299,3.18-5.579v-25.213h-8.644   v25.213c0,2.28-1.219,4.418-3.18,5.579c-2.71,1.604-4.921,4.901-6.707,9.185c-4.914,11.777-6.622,31.001-6.689,42.917   c-0.006,1.084,0.001,2.106,0.022,3.058l0.002,35.185c0,3.139,2.553,5.692,5.693,5.692h0.493c0.359,0,0.714-0.039,1.062-0.108   c0.048-0.009,0.095-0.016,0.143-0.026c0.283-0.064,0.559-0.153,0.829-0.257c0.107-0.041,0.211-0.082,0.313-0.129   c0.215-0.099,0.424-0.214,0.625-0.339c0.11-0.068,0.219-0.133,0.324-0.207c0.193-0.138,0.376-0.293,0.552-0.456   c0.076-0.071,0.149-0.144,0.222-0.217C215.843,236.067,215.226,234.677,215.226,233.14z"/>
	<path style="fill:#EDBA89;" d="M264.807,274.234l0.009-9.964c0.066-0.64,0.099-1.286,0.099-1.922v-15.096   c0-0.299-0.028-0.63-0.089-1.01l-0.019-0.25v-42.503c0-0.29-0.025-0.574-0.064-0.856c-0.009-0.068-0.019-0.137-0.031-0.204   c-0.042-0.255-0.096-0.508-0.169-0.753c-0.007-0.023-0.011-0.048-0.017-0.069c-0.082-0.268-0.185-0.527-0.298-0.782   c-0.026-0.058-0.056-0.115-0.083-0.172c-0.104-0.213-0.219-0.42-0.345-0.619c-0.025-0.04-0.048-0.082-0.073-0.121   c-0.148-0.223-0.311-0.433-0.485-0.638c-0.049-0.056-0.1-0.11-0.151-0.164c-0.151-0.164-0.31-0.321-0.477-0.47   c-0.043-0.038-0.084-0.079-0.128-0.116c-0.207-0.174-0.428-0.334-0.658-0.482c-0.054-0.033-0.109-0.066-0.162-0.098   c-0.223-0.135-0.454-0.259-0.695-0.367c-0.035-0.016-0.068-0.035-0.104-0.05l-0.032-0.015c-0.772-0.325-1.62-0.506-2.508-0.506   c-1.662,0-3.176,0.634-4.323,1.666c0.155,0.139,0.304,0.284,0.444,0.437c0.051,0.055,0.103,0.109,0.151,0.164   c0.174,0.203,0.338,0.415,0.485,0.638c0.026,0.039,0.049,0.081,0.073,0.121c0.125,0.2,0.242,0.406,0.345,0.619   c0.027,0.057,0.057,0.113,0.083,0.172c0.113,0.254,0.216,0.514,0.298,0.782c0.006,0.023,0.011,0.046,0.017,0.069   c0.072,0.246,0.126,0.498,0.169,0.753c0.012,0.068,0.023,0.136,0.031,0.204c0.038,0.282,0.064,0.566,0.064,0.856v42.503l0.019,0.25   c0.061,0.38,0.089,0.71,0.089,1.01v15.096c0,0.636-0.033,1.284-0.099,1.922l-0.009,9.964c0,3.138,2.553,5.692,5.692,5.692h0.493   c0.36,0,0.715-0.04,1.064-0.108c0.044-0.009,0.089-0.015,0.133-0.024c0.289-0.064,0.567-0.155,0.842-0.262   c0.098-0.038,0.196-0.075,0.292-0.118c0.223-0.102,0.438-0.221,0.647-0.351c0.107-0.067,0.213-0.13,0.316-0.203   c0.194-0.139,0.378-0.295,0.555-0.459c0.076-0.07,0.148-0.144,0.22-0.217C265.424,277.159,264.807,275.769,264.807,274.234z"/>
	<path style="fill:#EDBA89;" d="M240.071,262.348v-58.859c0-0.29-0.025-0.574-0.064-0.856c-0.009-0.068-0.021-0.137-0.031-0.204   c-0.042-0.255-0.096-0.508-0.169-0.753c-0.006-0.023-0.011-0.048-0.017-0.069c-0.082-0.268-0.185-0.527-0.298-0.782   c-0.026-0.058-0.056-0.115-0.083-0.172c-0.104-0.213-0.219-0.42-0.345-0.619c-0.025-0.04-0.048-0.082-0.073-0.121   c-0.148-0.223-0.311-0.433-0.485-0.638c-0.049-0.056-0.1-0.11-0.151-0.164c-0.151-0.164-0.31-0.321-0.477-0.47   c-0.043-0.038-0.084-0.079-0.128-0.116c-0.207-0.174-0.428-0.334-0.658-0.482c-0.054-0.033-0.108-0.066-0.162-0.098   c-0.223-0.135-0.454-0.259-0.696-0.367c-0.035-0.016-0.068-0.035-0.104-0.05l-0.032-0.015c-0.772-0.325-1.62-0.506-2.508-0.506   c-1.662,0-3.175,0.634-4.323,1.666c0.155,0.139,0.304,0.284,0.444,0.437c0.051,0.055,0.103,0.109,0.151,0.164   c0.174,0.203,0.338,0.415,0.485,0.638c0.026,0.039,0.049,0.081,0.073,0.121c0.125,0.2,0.242,0.406,0.345,0.619   c0.027,0.057,0.057,0.113,0.083,0.172c0.113,0.254,0.216,0.514,0.298,0.782c0.006,0.023,0.011,0.046,0.017,0.069   c0.072,0.246,0.126,0.498,0.169,0.753c0.012,0.068,0.023,0.136,0.031,0.204c0.038,0.282,0.064,0.566,0.064,0.856v58.859   c0,3.138,2.553,5.692,5.692,5.692h0.493c0.285,0,0.565-0.029,0.844-0.071c0.08-0.012,0.16-0.023,0.239-0.038   c0.236-0.046,0.469-0.106,0.696-0.182c0.126-0.041,0.249-0.093,0.372-0.143c0.105-0.043,0.207-0.09,0.31-0.14   c0.256-0.122,0.5-0.264,0.735-0.424c0.046-0.032,0.094-0.062,0.139-0.094c0.144-0.104,0.28-0.213,0.412-0.331   c0.042-0.036,0.08-0.075,0.12-0.113c0.07-0.067,0.135-0.139,0.204-0.206C240.688,265.273,240.071,263.883,240.071,262.348z"/>
	<path style="fill:#EDBA89;" d="M313.801,195.181c-0.158-0.313-0.345-0.609-0.55-0.889c-0.05-0.069-0.107-0.133-0.159-0.201   c-0.169-0.213-0.347-0.417-0.539-0.607c-0.059-0.058-0.118-0.113-0.179-0.17c-0.217-0.199-0.448-0.384-0.693-0.551   c-0.041-0.028-0.08-0.061-0.122-0.088c-0.299-0.197-0.613-0.371-0.943-0.515l-0.07-0.03c-0.788-0.334-1.647-0.519-2.54-0.519   c-1.015,0-1.991,0.233-2.906,0.693c-0.523,0.263-0.992,0.599-1.414,0.976c0.014,0.012,0.029,0.022,0.043,0.034   c0.062,0.056,0.12,0.112,0.179,0.17c0.192,0.19,0.371,0.393,0.539,0.607c0.053,0.068,0.11,0.131,0.159,0.201   c0.204,0.281,0.392,0.576,0.55,0.889c2.481,4.901,11.468,19.304,19.933,21.119c0.556,0.119,1.069,0.177,1.569,0.177   c0,0,0,0,0.001,0h0.001h0.001c0.003,0,0.005-0.001,0.009-0.001c0.365,0,0.728-0.039,1.09-0.102   c0.112-0.019,0.225-0.051,0.338-0.076c0.257-0.058,0.515-0.127,0.773-0.217c0.129-0.044,0.257-0.093,0.385-0.146   c0.252-0.103,0.506-0.223,0.76-0.355c0.121-0.064,0.242-0.121,0.364-0.192c0.05-0.028,0.098-0.049,0.148-0.078l0.225-0.135   C323.255,211.238,315.992,199.509,313.801,195.181z"/>
	<path style="fill:#EDBA89;" d="M289.651,262.348l-0.013-0.215v-0.001l0.01-0.263l0.003-58.379c0-0.29-0.025-0.574-0.064-0.856   c-0.009-0.068-0.021-0.137-0.031-0.204c-0.042-0.255-0.096-0.508-0.169-0.753c-0.007-0.023-0.011-0.048-0.017-0.069   c-0.082-0.268-0.185-0.527-0.298-0.782c-0.027-0.058-0.056-0.115-0.083-0.172c-0.104-0.213-0.219-0.42-0.345-0.619   c-0.025-0.04-0.048-0.082-0.073-0.121c-0.148-0.223-0.311-0.433-0.485-0.638c-0.049-0.056-0.1-0.11-0.151-0.164   c-0.151-0.164-0.31-0.321-0.477-0.47c-0.043-0.038-0.084-0.079-0.128-0.116c-0.207-0.174-0.428-0.334-0.658-0.482   c-0.054-0.034-0.109-0.066-0.162-0.098c-0.223-0.135-0.454-0.259-0.695-0.367c-0.035-0.016-0.068-0.035-0.104-0.05l-0.032-0.015   c-0.771-0.325-1.62-0.506-2.508-0.506c-1.662,0-3.176,0.634-4.323,1.666c0.155,0.139,0.304,0.284,0.444,0.437   c0.051,0.055,0.103,0.109,0.151,0.164c0.174,0.203,0.338,0.415,0.485,0.638c0.026,0.039,0.049,0.081,0.073,0.121   c0.125,0.2,0.242,0.406,0.345,0.619c0.027,0.057,0.057,0.113,0.083,0.172c0.113,0.254,0.216,0.514,0.298,0.782   c0.007,0.023,0.011,0.046,0.017,0.069c0.072,0.246,0.126,0.498,0.169,0.753c0.012,0.068,0.024,0.136,0.031,0.204   c0.038,0.282,0.064,0.566,0.064,0.856l-0.003,58.379l-0.01,0.263v0.001l0.013,0.215c0,3.138,2.553,5.692,5.692,5.692h0.493   c0.36,0,0.715-0.04,1.064-0.108c0.044-0.009,0.089-0.015,0.133-0.024c0.289-0.064,0.567-0.156,0.842-0.262   c0.098-0.038,0.196-0.075,0.292-0.118c0.223-0.102,0.438-0.221,0.647-0.351c0.107-0.067,0.213-0.13,0.316-0.203   c0.194-0.139,0.378-0.295,0.555-0.459c0.076-0.07,0.148-0.144,0.22-0.217C290.268,265.273,289.651,263.883,289.651,262.348z"/>
	<path style="fill:#EDBA89;" d="M270.33,322.054l61.266,35.371c0.361,0.209,0.695,0.452,1.004,0.719   c0.016,0.014,0.033,0.025,0.051,0.04c0.291,0.255,0.551,0.54,0.789,0.842c0.025,0.032,0.055,0.064,0.08,0.097   c0.227,0.298,0.424,0.62,0.595,0.956c0.022,0.043,0.046,0.083,0.068,0.126c0.169,0.348,0.306,0.715,0.413,1.098   c0.335,1.202,0.325,2.496-0.071,3.727c-0.007,0.021-0.011,0.04-0.018,0.059c-0.054,0.162-0.119,0.322-0.187,0.481   c-0.018,0.042-0.031,0.085-0.051,0.128c-0.089,0.198-0.188,0.391-0.298,0.583c-0.159,0.277-0.341,0.535-0.538,0.782   c-0.066,0.083-0.14,0.159-0.21,0.238c-0.14,0.16-0.285,0.315-0.44,0.46c-0.073,0.069-0.151,0.134-0.228,0.199l1.204,0.696   c0.985,0.568,2.104,0.87,3.234,0.87c0.837,0,1.653-0.167,2.41-0.471l0.191-0.083c0.293-0.128,0.568-0.28,0.834-0.444   c0.069-0.043,0.136-0.09,0.204-0.135c0.189-0.128,0.371-0.266,0.545-0.412c0.084-0.07,0.169-0.143,0.25-0.218   c0.156-0.145,0.299-0.299,0.44-0.46c0.07-0.079,0.145-0.155,0.21-0.238c0.197-0.246,0.379-0.506,0.538-0.782   c0.111-0.192,0.21-0.386,0.298-0.583c0.019-0.042,0.032-0.085,0.051-0.128c0.068-0.159,0.133-0.319,0.187-0.481   c0.008-0.019,0.012-0.039,0.018-0.059c0.397-1.231,0.406-2.525,0.071-3.727c-0.107-0.383-0.244-0.749-0.413-1.098   c-0.022-0.043-0.046-0.083-0.068-0.126c-0.172-0.336-0.368-0.657-0.595-0.956c-0.025-0.033-0.055-0.065-0.08-0.097   c-0.239-0.301-0.499-0.587-0.789-0.842c-0.017-0.015-0.035-0.027-0.051-0.04c-0.309-0.267-0.643-0.51-1.004-0.719l-61.266-35.371   c-1.779-1.028-2.426-2.608-2.653-3.459c-0.228-0.847-0.459-2.539,0.563-4.308l0.254-0.439c0.247-0.43,0.531-0.792,0.827-1.1   l-1.696-0.979c-1.319-0.763-2.888-0.953-4.32-0.569c-0.849,0.227-2.429,0.874-3.453,2.649l-0.254,0.439   c-1.022,1.77-0.791,3.461-0.563,4.308C267.904,319.446,268.55,321.026,270.33,322.054z"/>
	<path style="fill:#EDBA89;" d="M300.974,311.06c0.258,0.148,0.522,0.333,0.83,0.579l0.197,0.159l0.237,0.091   c0.364,0.14,0.656,0.277,0.918,0.429l40.861,23.592c0.361,0.209,0.695,0.452,1.004,0.719c0.016,0.014,0.035,0.025,0.051,0.04   c0.291,0.255,0.551,0.54,0.789,0.842c0.026,0.032,0.056,0.064,0.08,0.097c0.227,0.298,0.424,0.62,0.595,0.956   c0.023,0.043,0.048,0.083,0.068,0.126c0.169,0.348,0.306,0.715,0.413,1.098c0.335,1.202,0.325,2.497-0.071,3.727   c-0.007,0.019-0.011,0.04-0.017,0.059c-0.055,0.162-0.12,0.322-0.188,0.481c-0.018,0.042-0.031,0.085-0.051,0.128   c-0.089,0.198-0.188,0.391-0.298,0.583c-0.159,0.277-0.343,0.535-0.538,0.782c-0.066,0.083-0.14,0.159-0.21,0.238   c-0.14,0.16-0.285,0.315-0.44,0.46c-0.073,0.07-0.151,0.134-0.228,0.199l1.204,0.696c0.985,0.568,2.104,0.87,3.234,0.87   c0.837,0,1.653-0.167,2.41-0.471l0.191-0.083c0.293-0.128,0.568-0.28,0.835-0.444c0.069-0.043,0.136-0.09,0.203-0.135   c0.19-0.128,0.371-0.266,0.545-0.412c0.084-0.07,0.169-0.143,0.25-0.218c0.156-0.145,0.299-0.299,0.44-0.46   c0.069-0.079,0.144-0.155,0.21-0.238c0.196-0.246,0.379-0.506,0.538-0.782c0.111-0.192,0.21-0.386,0.298-0.583   c0.019-0.042,0.032-0.085,0.051-0.128c0.068-0.16,0.133-0.319,0.188-0.481c0.007-0.019,0.011-0.039,0.017-0.059   c0.397-1.231,0.406-2.525,0.071-3.727c-0.107-0.381-0.243-0.749-0.413-1.098c-0.021-0.043-0.045-0.083-0.068-0.126   c-0.172-0.336-0.368-0.657-0.595-0.956c-0.024-0.034-0.054-0.065-0.08-0.097c-0.239-0.301-0.499-0.587-0.789-0.842   c-0.016-0.015-0.035-0.027-0.051-0.04c-0.309-0.267-0.643-0.51-1.004-0.719l-40.861-23.592c-0.263-0.152-0.555-0.288-0.918-0.429   l-0.237-0.091l-0.197-0.159c-0.307-0.247-0.571-0.431-0.83-0.579l-9-5.244c-1.932-1.79-2.383-4.739-1.072-7.009l0.253-0.437   c0.249-0.431,0.531-0.794,0.828-1.103l-1.696-0.978c-1.319-0.762-2.875-0.96-4.322-0.569c-0.85,0.229-2.431,0.878-3.452,2.651   l-0.253,0.437c-1.311,2.271-0.86,5.219,1.072,7.009L300.974,311.06z"/>
	<path style="fill:#EDBA89;" d="M330.706,299.66l25.68,14.827c1.5,0.867,2.573,2.265,3.021,3.937c0.447,1.673,0.217,3.42-0.648,4.92   c-0.159,0.277-0.341,0.535-0.538,0.782c-0.066,0.083-0.14,0.158-0.21,0.238c-0.14,0.16-0.285,0.316-0.44,0.46   c-0.073,0.069-0.151,0.134-0.228,0.199l1.204,0.695c0.985,0.568,2.104,0.87,3.234,0.87c0.837,0,1.653-0.167,2.41-0.47l0.191-0.083   c0.292-0.128,0.568-0.28,0.834-0.444c0.069-0.043,0.136-0.09,0.204-0.135c0.189-0.128,0.371-0.266,0.545-0.412   c0.084-0.07,0.169-0.143,0.25-0.218c0.156-0.145,0.299-0.299,0.44-0.46c0.07-0.079,0.145-0.155,0.21-0.238   c0.197-0.247,0.379-0.506,0.538-0.782c0.866-1.5,1.096-3.247,0.648-4.92c-0.448-1.673-1.521-3.071-3.021-3.937l-25.68-14.827   c-1.775-1.024-2.423-2.604-2.651-3.454c-0.228-0.849-0.459-2.541,0.563-4.31l0.253-0.437c0.233-0.404,0.518-0.769,0.835-1.099   l-1.705-0.984c-0.863-0.499-1.846-0.762-2.84-0.762c-2.031,0-3.923,1.09-4.935,2.845l-0.253,0.437   c-1.022,1.77-0.791,3.461-0.563,4.31C328.283,297.056,328.93,298.636,330.706,299.66z"/>
	<path style="fill:#EDBA89;" d="M394.079,413.286c-0.214-0.123-0.435-0.233-0.661-0.331l-0.016-0.008   c-1.602-0.683-3.465-0.702-5.083-0.022c-0.7,0.295-1.374,0.564-2.053,0.837l13.83,7.984l2.161-3.743L394.079,413.286z"/>
	<path style="fill:#EDBA89;" d="M348.838,416.282c-0.143-0.051-0.283-0.1-0.426-0.151c-0.579-0.206-1.17-0.418-1.77-0.628   c-0.076-0.027-0.151-0.054-0.228-0.08c-0.615-0.215-1.245-0.43-1.888-0.644c-0.056-0.019-0.111-0.037-0.167-0.055   c-4.152-1.366-8.917-2.603-14.987-2.937v-0.007c-1.01-0.054-2.049-0.087-3.134-0.087c-1.431,0-2.912,0.071-4.411,0.176   c5.545,0.415,9.993,1.573,13.888,2.855c0.056,0.018,0.111,0.036,0.167,0.055c0.643,0.213,1.273,0.428,1.888,0.644   c0.077,0.026,0.152,0.053,0.228,0.08c0.6,0.21,1.191,0.421,1.77,0.628c0.143,0.051,0.283,0.1,0.426,0.151   c4.487,1.602,8.787,3.077,14.48,3.077c0.11,0,0.228-0.012,0.339-0.013c0.606-0.007,1.223-0.03,1.849-0.07   c0.245-0.016,0.492-0.034,0.741-0.055c0.179-0.015,0.354-0.022,0.535-0.039l1.022-0.099   C355.394,418.586,352.166,417.47,348.838,416.282z"/>
	<path style="fill:#EDBA89;" d="M298.988,407.302l-0.119-0.246l-0.031-0.273c-0.395-3.445,0.746-5.206,1.783-6.356   c5.951-6.583,23.508-6.773,25.49-6.773c0.998,0,1.93,0.024,2.767,0.07c0.232,0.013,0.461,0.013,0.688,0.002   c0.392-0.018,0.775-0.076,1.145-0.16c0.027-0.007,0.055-0.01,0.082-0.017c0.349-0.084,0.685-0.203,1.009-0.341   c0.048-0.019,0.096-0.038,0.144-0.059c0.305-0.139,0.595-0.305,0.872-0.487c0.056-0.037,0.112-0.071,0.166-0.111   c0.264-0.186,0.512-0.392,0.746-0.615c0.051-0.05,0.103-0.099,0.152-0.151c0.225-0.23,0.433-0.477,0.622-0.739   c0.04-0.055,0.076-0.111,0.113-0.165c0.186-0.276,0.353-0.563,0.496-0.868c0.023-0.048,0.041-0.098,0.063-0.147   c0.142-0.321,0.263-0.654,0.35-1.002c0.009-0.03,0.013-0.064,0.021-0.094c0.089-0.371,0.151-0.751,0.174-1.144   c0.152-2.613-1.27-5.046-3.622-6.199l-0.303-0.184l-54.949-31.733c-1.316-0.759-2.258-1.988-2.652-3.458   c-0.393-1.471-0.191-3.006,0.569-4.323l0.243-0.422c0.234-0.406,0.52-0.771,0.839-1.101l-1.285-0.741l-0.431-0.245   c-0.86-0.496-1.839-0.757-2.831-0.757c-2.032,0-3.923,1.09-4.936,2.845l-0.243,0.422c-0.761,1.317-0.964,2.853-0.569,4.323   c0.393,1.47,1.336,2.699,2.652,3.458l54.949,31.733l0.303,0.184c2.352,1.153,3.773,3.586,3.622,6.199   c-0.023,0.392-0.085,0.774-0.174,1.144c-0.008,0.03-0.012,0.064-0.021,0.094c-0.088,0.347-0.209,0.681-0.35,1.002   c-0.022,0.049-0.04,0.099-0.063,0.147c-0.143,0.304-0.31,0.592-0.496,0.868c-0.038,0.055-0.073,0.111-0.113,0.165   c-0.189,0.262-0.398,0.509-0.622,0.739c-0.05,0.052-0.102,0.102-0.152,0.151c-0.233,0.223-0.481,0.429-0.746,0.615   c-0.055,0.039-0.111,0.073-0.166,0.111c-0.277,0.183-0.566,0.348-0.872,0.487c-0.048,0.022-0.096,0.039-0.144,0.059   c-0.324,0.138-0.659,0.256-1.009,0.341c-0.027,0.008-0.055,0.011-0.082,0.017c-0.371,0.084-0.752,0.143-1.145,0.16   c-0.227,0.011-0.456,0.011-0.688-0.002c-0.837-0.046-1.77-0.07-2.767-0.07c-1.982,0-19.539,0.19-25.49,6.773   c-1.037,1.15-2.179,2.91-1.783,6.356l0.031,0.273l0.119,0.246c0.579,1.199,3.329,5.112,14.387,5.112   c0.029,0,0.063-0.002,0.093-0.002c0.78-0.002,1.596-0.03,2.427-0.071c0.198-0.011,0.392-0.021,0.593-0.031   c0.151-0.01,0.297-0.014,0.451-0.024v-0.014c0.3-0.022,0.613-0.053,0.917-0.076C301.605,411.363,299.486,408.333,298.988,407.302z"/>
	<path style="fill:#EDBA89;" d="M173.738,336.663c0.811,0,1.614-0.16,2.369-0.459l0.218-0.095c0.217-0.095,0.434-0.193,0.647-0.315   l59.561-34.388c-0.05-0.052-0.099-0.103-0.15-0.152c-0.131-0.125-0.268-0.244-0.41-0.357c-0.036-0.027-0.069-0.059-0.107-0.086   c-0.372-0.281-0.776-0.513-1.203-0.695c-0.049-0.022-0.099-0.038-0.149-0.057c-0.162-0.065-0.328-0.121-0.497-0.17   c-0.066-0.021-0.134-0.038-0.203-0.055c-0.161-0.041-0.325-0.072-0.491-0.099c-0.066-0.011-0.132-0.025-0.199-0.031   c-0.229-0.028-0.46-0.046-0.694-0.046c-0.996,0-1.98,0.265-2.842,0.765l-60.06,34.676   C170.691,336.085,172.174,336.663,173.738,336.663z"/>
	<path style="fill:#EDBA89;" d="M200.897,379.141l0.218-0.095c0.217-0.095,0.434-0.192,0.644-0.314l23.978-13.844   c-0.008-0.006-0.014-0.014-0.021-0.021c-0.04-0.041-0.078-0.081-0.119-0.12c-0.144-0.139-0.293-0.269-0.45-0.391   c-0.025-0.019-0.046-0.039-0.071-0.058c-0.376-0.283-0.783-0.517-1.215-0.7c-0.046-0.018-0.094-0.035-0.14-0.054   c-0.164-0.065-0.332-0.121-0.502-0.171c-0.066-0.021-0.134-0.038-0.201-0.055c-0.162-0.04-0.324-0.071-0.488-0.098   c-0.068-0.011-0.133-0.024-0.201-0.031c-0.228-0.028-0.457-0.046-0.688-0.046c-0.001,0-0.003,0-0.004,0s-0.001,0-0.001,0   c-0.386,0-0.766,0.051-1.142,0.129c-0.591,0.122-1.164,0.326-1.691,0.63l-24.483,14.134c1.159,0.987,2.643,1.565,4.207,1.565   C199.34,379.6,200.143,379.439,200.897,379.141z"/>
	<path style="fill:#EDBA89;" d="M236.95,327.577c-0.022-0.011-0.042-0.022-0.064-0.03c-0.095-0.043-0.187-0.083-0.277-0.119   c-0.046-0.018-0.089-0.034-0.133-0.051c-0.067-0.024-0.133-0.05-0.196-0.069c-0.107-0.036-0.206-0.066-0.294-0.09   c-1.011-0.269-2.12-0.252-3.134,0.056l-9.06,5.183c-0.26,0.151-0.561,0.292-0.917,0.428l-0.238,0.092l-0.199,0.16   c-0.303,0.245-0.566,0.429-0.83,0.581l-39.658,22.897c1.158,0.987,2.642,1.565,4.207,1.565c0.817,0,1.626-0.162,2.385-0.465   l0.198-0.086c0.219-0.096,0.439-0.196,0.653-0.319l40.861-23.591c0.263-0.152,0.526-0.336,0.83-0.581l0.199-0.16l0.238-0.092   c0.357-0.136,0.656-0.277,0.917-0.428l6.258-3.581C238.128,328.254,237.507,327.838,236.95,327.577z"/>
	<path style="fill:#EDBA89;" d="M148.455,407.785c-0.124-0.07-0.257-0.123-0.386-0.185c-0.069-0.03-0.136-0.068-0.205-0.097   l-0.231-0.102c-1.808-0.695-3.914-0.558-5.6,0.417l-0.947,0.547c1.597,0.614,3.537,0.935,5.811,0.935   c0.559,0,1.137-0.024,1.722-0.059c0.053-0.003,0.106-0.007,0.158-0.011c0.781-0.05,1.582-0.125,2.406-0.232l0.515-0.061   C150.464,408.685,149.376,408.303,148.455,407.785z"/>
	<path style="fill:#EDBA89;" d="M87.016,362.953l14.66-8.464c1.747-1.009,2.94-2.807,3.191-4.808   c3.028-24.149,9.272-29.45,17.176-36.163c5.571-4.729,12.505-10.616,18.086-23.219c3.009-6.797,6.22-10.923,9.062-13.127   c-0.149-0.148-0.297-0.295-0.471-0.441c-0.049-0.041-0.099-0.081-0.149-0.122c-0.158-0.124-0.321-0.247-0.499-0.37   c-0.132-0.091-0.273-0.176-0.414-0.261c-0.129-0.078-0.251-0.158-0.39-0.233c-0.309-0.17-0.633-0.334-0.983-0.485l-0.255-0.111   l-0.278-0.019c-0.098-0.008-0.199-0.011-0.304-0.011c-3.5,0-9.007,3.987-13.964,15.181c-5.581,12.602-12.515,18.489-18.086,23.219   c-7.904,6.713-14.15,12.014-17.176,36.163c-0.251,2.002-1.444,3.8-3.191,4.808l-14.66,8.464l33.181,57.471l6.483-3.743   L87.016,362.953z"/>
	<path style="fill:#EDBA89;" d="M153.076,316.777c1.824,1.199,4.184,1.351,6.151,0.507c0.16-0.069,0.297-0.138,0.433-0.206   c0.209-0.109,0.418-0.217,0.614-0.35l0.348-0.187l53.191-30.706c-0.051-0.052-0.1-0.104-0.153-0.153   c-0.123-0.118-0.251-0.23-0.384-0.336c-0.044-0.036-0.085-0.072-0.131-0.107c-0.368-0.278-0.768-0.508-1.191-0.688   c-0.058-0.025-0.118-0.045-0.178-0.069c-0.151-0.059-0.304-0.112-0.461-0.159c-0.078-0.023-0.157-0.044-0.236-0.064   c-0.147-0.036-0.295-0.065-0.444-0.09c-0.08-0.014-0.16-0.028-0.242-0.039c-0.197-0.024-0.394-0.037-0.595-0.04   c-0.028,0-0.056-0.005-0.084-0.005c-0.673,0-1.338,0.131-1.967,0.363c-0.299,0.111-0.593,0.238-0.872,0.399l-54.452,31.434   C152.632,316.457,152.845,316.624,153.076,316.777z"/>
</g>
<polygon style="fill:#4982AA;" points="57.944,356.823 15.289,381.451 61.036,461.555 103.691,436.928 "/>
<polygon style="fill:#6598CB;" points="66.106,371.828 23.424,396.409 61.036,461.555 103.691,436.928 "/>
<rect x="213.589" y="44.146" style="fill:#4982AA;" width="83.925" height="53.27"/>
<rect x="231.234" y="44.146" style="fill:#6598CB;" width="74.41" height="53.27"/>
<polygon style="fill:#4982AA;" points="405.168,441.136 405.166,441.141 405.163,441.144 404.399,442.466 447.589,467.859   492.791,387.619 450.682,363.308 "/>
<polygon style="fill:#6598CB;" points="409.49,434.653 409.488,434.657 409.486,434.661 418.218,419.535 459.953,444.496   492.791,387.619 450.682,363.308 "/>
<g>
	<path style="fill:#202121;" d="M337.678,185.552c-6.155-8.437-7.242-14.393-8.498-21.29c-2.038-11.176-4.143-22.715-25.061-39.47   v-11.348h1.531c4.477,0,8.104-3.627,8.104-8.104v-38.74c0-4.477-3.627-8.104-8.104-8.104c-4.477,0-8.104,3.627-8.104,8.104v30.635   h-83.921V48.612h92.025c4.477,0,8.104-3.627,8.104-8.104s-3.627-8.104-8.104-8.104H205.521c-4.477,0-8.104,3.627-8.104,8.104   v64.832c0,4.477,3.627,8.104,8.104,8.104h3.061v19.604c-16.649,15.425-16.736,56.185-16.553,64.954v34.957   c0,11.182,9.098,20.279,20.281,20.279h0.493c1.394,0,2.756-0.142,4.073-0.411v9.339c0,11.182,9.097,20.279,20.279,20.279h0.493   c1.895,0,3.724-0.281,5.464-0.769c3.02,7.412,10.294,12.655,18.779,12.655h0.493c8.489,0,15.777-5.243,18.795-12.66   c1.767,0.504,3.631,0.774,5.557,0.774h0.493c11.182,0,20.281-9.097,20.281-20.279v-0.51v-34.536v-4.91   c4.199,3.826,9.1,6.991,14.528,8.162c1.565,0.338,3.124,0.506,4.666,0.506c5.102,0,10.033-1.835,14.469-5.422   c0.057-0.045,0.112-0.091,0.166-0.138C341.974,224.776,356.742,211.68,337.678,185.552z M330.554,213.185   c-2.24,1.66-3.827,1.621-5.09,1.35c-7.261-1.557-15.815-14.317-18.823-20.26c-2.01-3.997-6.88-5.608-10.878-3.599   c-3.005,1.51-4.661,4.634-4.449,7.791c-0.005,0.116-0.017,0.23-0.017,0.347v28.309v34.536v0.51c0,2.244-1.826,4.071-4.073,4.071   h-0.493c-2.244,0-4.071-1.826-4.071-4.071c0-0.086-0.011-0.17-0.013-0.255c0.002-0.085,0.013-0.169,0.013-0.255v-58.349   c0-4.476-3.627-8.104-8.104-8.104s-8.104,3.628-8.104,8.104v58.349c0,0.086,0.01,0.17,0.013,0.255   c-0.002,0.085-0.013,0.169-0.013,0.255v11.886c0,2.244-1.826,4.071-4.073,4.071h-0.493c-2.244,0-4.071-1.826-4.071-4.071v-9.798   c0.07-0.686,0.108-1.383,0.108-2.088v-15.096c0-0.43-0.043-0.848-0.108-1.26v-42.503c0-4.476-3.627-8.104-8.104-8.104   s-8.104,3.628-8.104,8.104v47.184c0,0.43,0.043,0.848,0.108,1.26c-0.065,0.412-0.108,0.83-0.108,1.26v10.053   c-0.412,1.812-2.029,3.172-3.964,3.172h-0.493c-2.244,0-4.071-1.826-4.071-4.071v-24.282v-4.927v-29.65   c0-4.476-3.627-8.104-8.104-8.104c-4.477,0-8.104,3.628-8.104,8.104v29.65c0,2.245-1.826,4.071-4.073,4.071h-0.493   c-2.245,0-4.073-1.826-4.073-4.071v-35.044c0-0.056-0.001-0.116-0.002-0.172c-0.384-18.439,3.348-48.27,12.58-53.734   c2.464-1.459,3.976-4.11,3.976-6.974v-23.592h63.12v15.308c0,2.537,1.189,4.928,3.21,6.461   c18.897,14.316,20.317,22.1,22.114,31.957c1.34,7.353,3.008,16.503,11.351,27.936C332.103,205.409,331.831,211.307,330.554,213.185   z"/>
	<path style="fill:#202121;" d="M251.873,323.118l-0.242-0.417c-0.935-1.62-2.081-3.068-3.38-4.344   c1.642-2.11,2.866-4.545,3.579-7.206c1.401-5.232,0.682-10.697-2.021-15.377l-0.252-0.438c-4.244-7.35-12.429-11.043-20.354-9.947   c-0.456-1.801-1.164-3.552-2.12-5.207l-0.242-0.417c-2.708-4.692-7.082-8.047-12.314-9.449c-5.232-1.399-10.697-0.684-15.389,2.026   l-0.434,0.251c-0.002,0.001-0.004,0.002-0.006,0.003l-34.161,19.723c1.215-5.55,1.504-11.377-0.194-16.663   c-2.11-6.564-6.891-11.446-13.825-14.115c-0.068-0.025-0.135-0.051-0.203-0.075c-0.79-0.282-19.518-6.52-32.612,23.051   c-4.229,9.55-8.845,13.469-14.188,18.006c-8.66,7.353-17.601,14.945-21.652,41.438l-9.827,5.674l-0.765-1.326   c-2.237-3.876-7.196-5.203-11.07-2.966l-33.551,19.368c-3.876,2.238-5.204,7.194-2.966,11.07c2.237,3.877,7.195,5.203,11.07,2.966   l26.531-15.318l41.96,72.678l-42.109,24.312l-46.012-79.695c-2.237-3.877-7.195-5.203-11.07-2.966   c-3.876,2.238-5.204,7.194-2.966,11.07l50.064,86.714c1.074,1.862,2.845,3.219,4.921,3.775c0.69,0.186,1.395,0.277,2.097,0.277   c1.41,0,2.809-0.368,4.052-1.086l56.146-32.416c3.876-2.238,5.204-7.194,2.966-11.07l-1.53-2.651l16.978-9.803   c21.678,6.709,57.025-13.599,64.528-18.142l30.274-17.479c9.683-5.592,13.013-18.02,7.417-27.712l-0.242-0.417   c-0.698-1.207-1.501-2.316-2.392-3.322l8.088-4.669c4.692-2.708,8.047-7.081,9.449-12.313   C255.306,333.284,254.588,327.82,251.873,323.118z M236.352,336.792l-21.027,12.141l0,0l-4.265,2.463c-0.001,0-0.001,0-0.002,0.001   c0,0-0.001,0.001-0.002,0.001l-25.677,14.825c-3.876,2.238-5.204,7.194-2.966,11.07c1.501,2.6,4.225,4.053,7.026,4.053   c1.374,0,2.769-0.35,4.044-1.087l25.694-14.835c1.943-1.11,4.426-0.438,5.552,1.51l0.242,0.417c1.123,1.945,0.454,4.44-1.491,5.563   l-30.348,17.522c-0.051,0.029-0.102,0.059-0.151,0.09c-15.76,9.561-43.448,21.25-52.821,15.971   c-2.495-1.405-5.546-1.39-8.028,0.043l-20.432,11.796l-31.56-54.665l13.257-7.653c2.197-1.269,3.673-3.492,3.988-6.01   c2.95-23.524,8.982-28.646,16.62-35.13c5.697-4.838,12.787-10.857,18.518-23.799c5.165-11.664,10.389-14.37,12.674-14.208   c2.557,1.109,3.316,2.503,3.714,3.734c2.283,7.069-4.497,20.864-8.137,26.437c-2.452,3.739-1.411,8.757,2.325,11.214   c2.817,1.852,6.365,1.718,8.997-0.062c0.094-0.05,0.191-0.086,0.284-0.14l24.511-14.152c0.002-0.001,0.004-0.002,0.005-0.003   l30.35-17.523c1.944-1.12,4.439-0.454,5.567,1.501l0.242,0.417c0.734,1.271,0.569,2.481,0.406,3.088   c-0.162,0.606-0.623,1.733-1.888,2.467l-0.01,0.005c-0.077,0.044-0.145,0.096-0.219,0.142c-0.073,0.039-0.149,0.071-0.222,0.113   l-50.532,29.174c-3.876,2.238-5.204,7.194-2.966,11.07c1.501,2.6,4.225,4.053,7.026,4.053c1.374,0,2.769-0.35,4.044-1.087   l50.532-29.174c0.077-0.044,0.146-0.096,0.219-0.142c0.073-0.039,0.149-0.071,0.222-0.113c0.001,0,0.002-0.001,0.004-0.002   l10.289-5.941c1.944-1.124,4.439-0.453,5.556,1.48l0.252,0.439c0.735,1.271,0.569,2.48,0.407,3.088   c-0.162,0.608-0.626,1.736-1.897,2.471l-8.492,4.903c-0.63,0.283-1.249,0.596-1.855,0.947l-13.073,7.548   c-0.372,0.214-0.712,0.46-1.035,0.722l-36.811,21.252c-3.876,2.238-5.204,7.194-2.966,11.07c1.501,2.6,4.225,4.053,7.026,4.053   c1.374,0,2.769-0.35,4.044-1.087l40.863-23.591c0.372-0.215,0.712-0.461,1.036-0.723c0.389-0.15,0.774-0.322,1.145-0.537   l8.705-5.026c1.775-0.55,3.765,0.171,4.737,1.856l0.242,0.417C238.964,333.176,238.296,335.67,236.352,336.792z"/>
	<path style="fill:#202121;" d="M511.723,382.373c-0.557-2.076-1.914-3.847-3.775-4.921l-56.147-32.415   c-3.877-2.237-8.833-0.911-11.07,2.966l-1.53,2.651l-16.978-9.803c-5.034-22.132-40.293-42.589-47.976-46.813l-30.273-17.478   c-9.68-5.587-22.11-2.26-27.717,7.448l-0.231,0.403c-0.693,1.198-1.255,2.447-1.685,3.73l-8.083-4.666   c-4.691-2.71-10.154-3.432-15.388-2.028c-5.233,1.401-9.607,4.757-12.32,9.459l-0.239,0.416c-0.936,1.621-1.618,3.338-2.074,5.101   c-2.649-0.367-5.37-0.21-8.029,0.504c-5.233,1.403-9.606,4.758-12.301,9.427l-0.262,0.451c-4.241,7.35-3.346,16.277,1.564,22.6   c-1.332,1.294-2.495,2.785-3.45,4.44l-0.239,0.416c-2.71,4.691-3.43,10.156-2.028,15.389c1.403,5.232,4.758,9.606,9.449,12.314   l0.43,0.249c0.004,0.002,0.008,0.005,0.011,0.008l34.16,19.722c-5.412,1.723-10.603,4.387-14.331,8.501   c-4.631,5.109-6.467,11.689-5.311,19.029c0.011,0.071,0.023,0.143,0.036,0.214c0.14,0.757,3.485,17.131,28.941,17.129   c2.263-0.001,4.704-0.13,7.327-0.412c10.384-1.112,16.087,0.924,22.688,3.285c10.696,3.823,21.741,7.77,46.711-1.968l9.829,5.674   l-0.765,1.326c-2.238,3.876-0.91,8.832,2.966,11.07l33.548,19.37c3.877,2.237,8.832,0.911,11.07-2.966   c2.238-3.876,0.91-8.832-2.966-11.07l-26.53-15.318l40.427-70.024c0-0.001,0.001-0.002,0.002-0.003   c0.001-0.001,0.001-0.003,0.002-0.004l1.528-2.646l42.111,24.311l-46.012,79.697c-2.238,3.876-0.91,8.832,2.966,11.07   c1.277,0.737,2.67,1.087,4.044,1.087c2.801,0,5.525-1.453,7.026-4.053l50.064-86.715   C511.989,386.661,512.28,384.449,511.723,382.373z M386.28,411.702c-2.197-1.27-4.861-1.434-7.2-0.449   c-21.846,9.208-29.299,6.545-38.733,3.172c-7.038-2.516-15.797-5.647-29.869-4.137c-12.687,1.357-17.653-1.825-18.641-3.87   c-0.318-2.769,0.51-4.123,1.377-5.084c4.98-5.511,20.322-6.539,26.964-6.17c4.443,0.239,8.29-3.156,8.549-7.622   c0.194-3.356-1.682-6.354-4.523-7.747c-0.098-0.063-0.19-0.131-0.292-0.189l-24.516-14.154l0,0l-30.349-17.523   c-1.272-0.735-1.734-1.865-1.898-2.472c-0.162-0.609-0.327-1.819,0.414-3.1l0.24-0.417c0.734-1.271,1.864-1.733,2.471-1.896   c0.608-0.163,1.819-0.326,3.088,0.406l0.001,0.001c0.077,0.044,0.157,0.078,0.233,0.12c0.07,0.043,0.136,0.093,0.209,0.135   l50.532,29.174c1.277,0.737,2.67,1.087,4.044,1.087c2.801,0,5.525-1.453,7.026-4.053c2.238-3.876,0.91-8.832-2.966-11.07   l-50.532-29.174c-0.078-0.045-0.158-0.079-0.237-0.121c-0.069-0.043-0.133-0.091-0.204-0.132c0-0.001-0.001-0.001-0.001-0.001   l-10.292-5.942c-1.945-1.124-2.613-3.621-1.504-5.541l0.26-0.449c0.734-1.272,1.864-1.735,2.471-1.897   c0.608-0.163,1.817-0.327,3.089,0.407l8.494,4.903c0.56,0.403,1.141,0.782,1.746,1.132l13.073,7.547   c0.372,0.215,0.756,0.387,1.144,0.536l36.808,21.253c1.276,0.737,2.67,1.087,4.044,1.087c2.801,0,5.524-1.453,7.026-4.053   c2.238-3.876,0.91-8.832-2.966-11.07L304,310.734c-0.372-0.215-0.755-0.386-1.144-0.536c-0.324-0.262-0.666-0.509-1.038-0.724   l-8.723-5.036c-0.72-0.67-1.03-1.45-1.156-1.92c-0.162-0.609-0.327-1.819,0.414-3.1l0.24-0.417   c0.734-1.271,1.864-1.733,2.471-1.896c0.608-0.163,1.82-0.326,3.089,0.407l25.269,14.588c0.009,0.005,0.017,0.01,0.025,0.015   c0.002,0.001,0.004,0.002,0.006,0.003l25.673,14.823c1.277,0.737,2.67,1.087,4.044,1.087c2.801,0,5.525-1.453,7.026-4.053   c2.238-3.876,0.91-8.832-2.966-11.07l-25.682-14.828c-1.942-1.124-2.608-3.617-1.473-5.584l0.23-0.402   c1.124-1.944,3.619-2.616,5.565-1.491l30.348,17.521c0.051,0.029,0.103,0.058,0.153,0.086c16.16,8.868,40.126,27,40.241,37.757   c0.031,2.863,1.572,5.499,4.052,6.931l20.432,11.797l-31.559,54.663L386.28,411.702z"/>
</g>
<g>
</g>
<g>
</g>
<g>
</g>
<g>
</g>
<g>
</g>
<g>
</g>
<g>
</g>
<g>
</g>
<g>
</g>
<g>
</g>
<g>
</g>
<g>
</g>
<g>
</g>
<g>
</g>
<g>
</g>
</svg>
