<?xml version="1.0" encoding="iso-8859-1"?>
<!-- Generator: Adobe Illustrator 19.0.0, SVG Export Plug-In . SVG Version: 6.00 Build 0)  -->
<svg xmlns="http://www.w3.org/2000/svg" xmlns:xlink="http://www.w3.org/1999/xlink" version="1.1" id="Layer_1" x="0px" y="0px" viewBox="0 0 511.998 511.998" style="enable-background:new 0 0 511.998 511.998;" xml:space="preserve">
<path style="fill:#F8CE19;" d="M255.725,66.979c-20.587,0-37.336,16.749-37.336,37.337c0,13.769,7.544,26.38,19.691,32.907  c2.118,1.139,3.434,3.339,3.434,5.745v13.304h7.833v-30.981c0-3.597,2.925-6.522,6.522-6.522s6.522,2.925,6.522,6.522v30.981h7.544  v-13.306c0-2.406,1.316-4.606,3.434-5.745c12.146-6.529,19.69-19.138,19.69-32.906C293.062,83.728,276.313,66.979,255.725,66.979z"/>
<g>
	<path style="fill:#FBB616;" d="M248.952,137.223c-12.147-6.529-19.691-19.139-19.691-32.907c0-18.741,13.881-34.297,31.901-36.937   c-1.775-0.26-3.589-0.4-5.435-0.4c-20.587,0-37.336,16.749-37.336,37.337c0,13.769,7.544,26.38,19.691,32.907   c2.118,1.139,3.434,3.339,3.434,5.745v13.304h7.833v-18.801C249.217,137.388,249.091,137.298,248.952,137.223z"/>
	<path style="fill:#FBB616;" d="M273.264,125.292c0-3.597-2.925-6.522-6.522-6.522c-2.268,0-4.267,1.164-5.435,2.924   c0.686,1.032,1.087,2.269,1.087,3.598v30.981h7.544v-13.306c0-2.362,1.275-4.521,3.326-5.678V125.292z"/>
</g>
<rect x="241.478" y="169.318" style="fill:#A49F9F;" width="28.503" height="14.675"/>
<path style="fill:#6598CB;" d="M478.946,445.005c-0.138-0.046-0.212-0.073-0.346-0.128l-28.416-11.395l-14.282,14.825  c-1.406,1.457-3.331,2.295-5.356,2.327c-0.039,0.001-0.079,0.001-0.12,0.001c-1.98,0-3.883-0.772-5.305-2.155l-15.127-14.733  l-28.476,11.153c-0.114,0.046-0.233,0.088-0.35,0.127c-0.638,0.227-17.084,6.326-17.084,27.362v28.182h10.797h15.204h16.641h46.726  h16.641h15.204h1.732h9.064v-28.184C496.09,451.352,479.645,445.254,478.946,445.005z"/>
<g>
	<path style="fill:#FBCB99;" d="M444.863,343.927l-0.907-1.551l-1.381,1.151c-13.241,11.038-30.652,14.367-39.85,15.369   l-1.358,0.148v21.308c0,14.168,11.526,25.694,25.695,25.694h6.893c14.166,0,25.694-11.526,25.694-25.694v-22.659l-0.874-0.411   C453.188,354.653,448.507,350.162,444.863,343.927z"/>
	<path style="fill:#FBCB99;" d="M389.205,379.293V363.15l-2.607,2.665c-1.425,1.458-2.209,3.376-2.209,5.405   c0,2.03,0.785,3.949,2.209,5.406L389.205,379.293z"/>
	<path style="fill:#FBCB99;" d="M433.955,418.208h-6.893c-1.458,0-2.927-0.089-4.496-0.276l-1.699-0.202v7.502l9.423,9.177   l9.86-10.235v-6.445l-1.7,0.202C436.884,418.119,435.413,418.208,433.955,418.208z"/>
	<path style="fill:#FBCB99;" d="M474.946,365.561l-0.486-0.091c-0.228-0.043-0.454-0.098-0.673-0.165l-1.974-0.616v14.545   l2.421-1.781c1.982-1.458,3.167-3.786,3.167-6.23c0-1.973-0.751-3.856-2.115-5.3L474.946,365.561z"/>
</g>
<path style="fill:#694B4B;" d="M432.235,303.942h-3.616c-20.561,0-37.29,16.73-37.29,37.294v6.947l1.987-0.64l0.163-0.06  c0.052-0.018,0.108-0.028,0.161-0.041l0.274-0.071c0.046-0.014,0.09-0.027,0.148-0.038c0.122-0.025,0.248-0.041,0.415-0.063  l0.191-0.028c0.202-0.024,0.409-0.033,0.641-0.033c0.315,0,31.668-0.225,45.792-19.749c1.379-1.908,3.828-2.871,6.145-2.392  c2.337,0.477,4.186,2.289,4.719,4.642c0.151,0.613,3.824,15.083,15.135,17.658l0.293,0.077c0.052,0.014,0.107,0.024,0.159,0.04  l1.972,0.615v-6.866C469.526,320.672,452.796,303.942,432.235,303.942z"/>
<path style="fill:#4982AA;" d="M388.263,445.026c0.117-0.04,0.235-0.083,0.35-0.127l23.417-9.17l-2.035-1.982l-28.479,11.153  c-0.114,0.045-0.232,0.087-0.349,0.127c-0.638,0.227-17.083,6.327-17.083,27.362v28.183h7.095v-28.183  C371.18,451.352,387.625,445.253,388.263,445.026z"/>
<path style="fill:#EDBA89;" d="M411.505,380.351V359.06l1.357-0.148c7.969-0.867,22.112-3.495,34.384-11.391  c-0.833-1.129-1.634-2.315-2.382-3.594l-0.906-1.55l-1.379,1.15c-13.271,11.059-30.666,14.385-39.852,15.385l-1.358,0.148v21.291  c0,14.168,11.526,25.694,25.695,25.694h6.894c0.546,0,1.085-0.023,1.621-0.057C422.163,405.149,411.505,393.973,411.505,380.351z"/>
<path style="fill:#563B3B;" d="M398.426,341.236c0-19.981,15.793-36.337,35.55-37.249c-0.577-0.026-1.157-0.045-1.74-0.045h-3.616  c-20.561,0-37.29,16.73-37.29,37.294v6.947l1.987-0.64l0.163-0.06c0.052-0.018,0.108-0.028,0.161-0.041l0.274-0.071  c0.046-0.014,0.09-0.027,0.148-0.038c0.118-0.025,0.243-0.04,0.415-0.063l0.191-0.028c0.202-0.024,0.409-0.033,0.641-0.033  c0.059,0,1.203-0.008,3.114-0.148v-5.826H398.426z"/>
<path style="fill:#6598CB;" d="M305.281,445.005c-0.138-0.046-0.212-0.073-0.346-0.128l-28.416-11.395l-14.282,14.825  c-1.406,1.457-3.331,2.295-5.356,2.327c-0.039,0.001-0.079,0.001-0.12,0.001c-1.98,0-3.883-0.772-5.305-2.155l-15.127-14.733  l-28.476,11.153c-0.114,0.046-0.233,0.088-0.35,0.127c-0.638,0.227-17.084,6.326-17.084,27.362v28.182h10.797h15.204h16.641h46.726  h16.641h15.204h1.732h9.064v-28.184C322.426,451.352,305.981,445.254,305.281,445.005z"/>
<g>
	<path style="fill:#FBCB99;" d="M271.198,343.927l-0.907-1.551l-1.381,1.151c-13.241,11.038-30.652,14.367-39.85,15.369   l-1.358,0.148v21.308c0,14.168,11.527,25.694,25.695,25.694h6.893c14.166,0,25.694-11.526,25.694-25.694v-22.659l-0.874-0.411   C279.523,354.653,274.842,350.162,271.198,343.927z"/>
	<path style="fill:#FBCB99;" d="M215.54,379.293V363.15l-2.607,2.665c-1.425,1.458-2.209,3.376-2.209,5.405   c0,2.03,0.785,3.949,2.209,5.406L215.54,379.293z"/>
	<path style="fill:#FBCB99;" d="M260.29,418.208h-6.893c-1.458,0-2.927-0.089-4.496-0.276l-1.699-0.202v7.502l9.423,9.177   l9.86-10.235v-6.445l-1.699,0.202C263.219,418.119,261.747,418.208,260.29,418.208z"/>
	<path style="fill:#FBCB99;" d="M301.28,365.561l-0.486-0.091c-0.228-0.043-0.454-0.098-0.673-0.165l-1.974-0.616v14.545   l2.421-1.781c1.982-1.458,3.167-3.786,3.167-6.23c0-1.973-0.751-3.856-2.115-5.3L301.28,365.561z"/>
</g>
<path style="fill:#694B4B;" d="M258.57,303.942h-3.616c-20.561,0-37.29,16.73-37.29,37.294v6.947l1.987-0.64l0.163-0.06  c0.052-0.018,0.108-0.028,0.161-0.041l0.274-0.071c0.046-0.014,0.09-0.027,0.148-0.038c0.122-0.025,0.248-0.041,0.415-0.063  l0.191-0.028c0.203-0.024,0.409-0.033,0.641-0.033c0.315,0,31.668-0.225,45.792-19.749c1.379-1.908,3.828-2.871,6.145-2.392  c2.337,0.477,4.186,2.289,4.719,4.642c0.151,0.613,3.824,15.083,15.135,17.658l0.293,0.077c0.052,0.014,0.107,0.024,0.159,0.04  l1.973,0.615v-6.866C295.86,320.672,279.13,303.942,258.57,303.942z"/>
<path style="fill:#4982AA;" d="M214.597,445.026c0.117-0.04,0.235-0.083,0.35-0.127l23.417-9.17l-2.035-1.982l-28.479,11.153  c-0.113,0.045-0.232,0.087-0.349,0.127c-0.638,0.227-17.083,6.327-17.083,27.362v28.183h7.095v-28.183  C197.514,451.352,213.959,445.253,214.597,445.026z"/>
<path style="fill:#EDBA89;" d="M237.84,380.351V359.06l1.357-0.148c7.969-0.867,22.112-3.495,34.384-11.391  c-0.833-1.129-1.634-2.315-2.382-3.594l-0.905-1.55l-1.379,1.15c-13.271,11.059-30.666,14.385-39.852,15.385l-1.358,0.148v21.291  c0,14.168,11.527,25.694,25.695,25.694h6.894c0.546,0,1.085-0.023,1.621-0.057C248.498,405.149,237.84,393.973,237.84,380.351z"/>
<path style="fill:#563B3B;" d="M224.76,341.236c0-19.981,15.793-36.337,35.55-37.249c-0.577-0.026-1.156-0.045-1.74-0.045h-3.616  c-20.561,0-37.29,16.73-37.29,37.294v6.947l1.987-0.64l0.163-0.06c0.052-0.018,0.108-0.028,0.161-0.041l0.274-0.071  c0.046-0.014,0.09-0.027,0.148-0.038c0.118-0.025,0.243-0.04,0.415-0.063l0.191-0.028c0.203-0.024,0.409-0.033,0.641-0.033  c0.059,0,1.202-0.008,3.114-0.148v-5.826H224.76z"/>
<path style="fill:#6598CB;" d="M130.996,445.005c-0.138-0.046-0.212-0.073-0.346-0.128l-28.416-11.395l-14.282,14.824  c-1.406,1.457-3.331,2.295-5.356,2.327c-0.039,0.001-0.079,0.001-0.12,0.001c-1.98,0-3.883-0.772-5.305-2.155l-15.127-14.733  l-28.476,11.153c-0.114,0.046-0.233,0.088-0.35,0.127c-0.638,0.227-17.084,6.326-17.084,27.362v28.182h10.797h15.204h16.641h46.726  h16.641h15.204h1.732h9.064v-28.183C148.14,451.352,131.695,445.254,130.996,445.005z"/>
<g>
	<path style="fill:#FBCB99;" d="M96.913,343.927l-0.907-1.551l-1.381,1.151c-13.241,11.038-30.652,14.367-39.85,15.369l-1.358,0.148   v21.308c0,14.168,11.527,25.694,25.695,25.694h6.893c14.166,0,25.694-11.526,25.694-25.694v-22.659l-0.874-0.411   C105.239,354.653,100.558,350.162,96.913,343.927z"/>
	<path style="fill:#FBCB99;" d="M41.256,379.293V363.15l-2.607,2.665c-1.425,1.458-2.209,3.376-2.209,5.405   c0,2.03,0.785,3.949,2.209,5.406L41.256,379.293z"/>
	<path style="fill:#FBCB99;" d="M86.006,418.208h-6.893c-1.458,0-2.927-0.089-4.496-0.276l-1.699-0.202v7.502l9.423,9.177   l9.86-10.235v-6.445l-1.699,0.202C88.935,418.119,87.463,418.208,86.006,418.208z"/>
	<path style="fill:#FBCB99;" d="M126.996,365.561l-0.486-0.091c-0.228-0.043-0.454-0.098-0.673-0.165l-1.974-0.616v14.545   l2.421-1.781c1.982-1.458,3.167-3.786,3.167-6.23c0-1.973-0.751-3.856-2.115-5.3L126.996,365.561z"/>
</g>
<path style="fill:#694B4B;" d="M84.286,303.942H80.67c-20.561,0-37.29,16.73-37.29,37.294v6.947l1.987-0.64l0.163-0.06  c0.052-0.018,0.108-0.028,0.161-0.041l0.274-0.071c0.046-0.014,0.09-0.027,0.148-0.038c0.122-0.025,0.248-0.041,0.415-0.063  l0.191-0.028c0.202-0.024,0.409-0.033,0.641-0.033c0.315,0,31.668-0.225,45.792-19.749c1.379-1.908,3.828-2.871,6.145-2.392  c2.337,0.477,4.186,2.289,4.719,4.642c0.151,0.613,3.824,15.083,15.135,17.658l0.294,0.077c0.052,0.014,0.107,0.024,0.159,0.04  l1.972,0.615v-6.866C121.576,320.672,104.846,303.942,84.286,303.942z"/>
<path style="fill:#4982AA;" d="M40.313,445.026c0.117-0.04,0.235-0.083,0.35-0.127l23.417-9.17l-2.035-1.982l-28.479,11.153  c-0.113,0.045-0.232,0.087-0.349,0.127c-0.638,0.227-17.083,6.327-17.083,27.362v28.183h7.095v-28.183  C23.23,451.352,39.675,445.253,40.313,445.026z"/>
<path style="fill:#EDBA89;" d="M63.556,380.351V359.06l1.357-0.148c7.969-0.867,22.112-3.495,34.384-11.391  c-0.833-1.129-1.634-2.315-2.382-3.594l-0.906-1.55l-1.379,1.15c-13.271,11.059-30.666,14.385-39.852,15.385l-1.358,0.148v21.291  c0,14.168,11.527,25.694,25.695,25.694h6.894c0.546,0,1.085-0.023,1.621-0.057C74.214,405.149,63.556,393.973,63.556,380.351z"/>
<path style="fill:#563B3B;" d="M50.476,341.236c0-19.981,15.793-36.337,35.55-37.249c-0.577-0.026-1.156-0.045-1.74-0.045H80.67  c-20.561,0-37.29,16.73-37.29,37.294v6.947l1.987-0.64l0.163-0.06c0.052-0.018,0.108-0.028,0.161-0.041l0.274-0.071  c0.046-0.014,0.09-0.027,0.148-0.038c0.118-0.025,0.243-0.04,0.415-0.063l0.191-0.028c0.202-0.024,0.409-0.033,0.641-0.033  c0.059,0,1.202-0.008,3.114-0.148v-5.826H50.476z"/>
<g>
	<path style="fill:#202121;" d="M307.914,104.765c0-28.86-23.48-52.339-52.339-52.339s-52.339,23.479-52.339,52.339   c0,17.623,8.812,33.889,23.299,43.547v14.589c-0.024,0.258-0.039,0.517-0.039,0.781v27.927c0,4.503,3.649,8.153,8.153,8.153h41.855   c4.504,0,8.153-3.65,8.153-8.153v-27.927c0-0.257-0.015-0.509-0.038-0.759V148.31C299.101,138.653,307.914,122.387,307.914,104.765   z M219.541,104.765c0-19.869,16.164-36.034,36.033-36.034c19.869,0,36.034,16.164,36.034,36.034   c0,13.289-7.282,25.459-19.004,31.759c-2.644,1.422-4.293,4.18-4.293,7.182v11.824h-4.437v-29.631c0-4.503-3.649-8.153-8.153-8.153   s-8.153,3.65-8.153,8.153v29.631h-4.729v-11.822c0-3.001-1.649-5.76-4.293-7.181C226.824,130.226,219.541,118.055,219.541,104.765z    M268.349,183.458H242.8v-11.622h25.549V183.458z"/>
	<path style="fill:#202121;" d="M264.403,204.084h-17.656c-4.504,0-8.153,3.65-8.153,8.153s3.649,8.153,8.153,8.153h17.656   c4.504,0,8.153-3.65,8.153-8.153S268.906,204.084,264.403,204.084z"/>
	<path style="fill:#202121;" d="M195.553,103.448c0-4.503-3.649-8.153-8.153-8.153h-22.999c-4.504,0-8.153,3.65-8.153,8.153   c0,4.503,3.649,8.153,8.153,8.153H187.4C191.903,111.601,195.553,107.951,195.553,103.448z"/>
	<path style="fill:#202121;" d="M346.747,95.295H323.75c-4.504,0-8.153,3.65-8.153,8.153c0,4.503,3.649,8.153,8.153,8.153h22.998   c4.504,0,8.153-3.65,8.153-8.153C354.9,98.945,351.251,95.295,346.747,95.295z"/>
	<path style="fill:#202121;" d="M201.602,145.89l-16.262,16.262c-3.184,3.184-3.184,8.346,0,11.529   c1.593,1.591,3.68,2.388,5.766,2.388c2.086,0,4.173-0.796,5.766-2.388l16.262-16.262c3.184-3.184,3.184-8.346,0-11.53   C209.948,142.706,204.787,142.706,201.602,145.89z"/>
	<path style="fill:#202121;" d="M303.781,63.394c2.086,0,4.173-0.796,5.766-2.388l16.263-16.263c3.184-3.184,3.184-8.346,0-11.53   c-3.185-3.184-8.346-3.184-11.53,0l-16.264,16.264c-3.184,3.184-3.184,8.346,0,11.529   C299.608,62.598,301.695,63.394,303.781,63.394z"/>
	<path style="fill:#202121;" d="M255.575,43.427c4.504,0,8.153-3.65,8.153-8.153v-23c0-4.503-3.649-8.153-8.153-8.153   s-8.153,3.65-8.153,8.153v23C247.422,39.776,251.072,43.427,255.575,43.427z"/>
	<path style="fill:#202121;" d="M309.547,145.89c-3.185-3.184-8.346-3.184-11.53,0c-3.184,3.184-3.184,8.346,0,11.53l16.263,16.263   c1.593,1.591,3.68,2.388,5.766,2.388s4.173-0.796,5.766-2.388c3.184-3.184,3.184-8.346,0-11.529L309.547,145.89z"/>
	<path style="fill:#202121;" d="M201.604,61.007c1.593,1.591,3.679,2.388,5.766,2.388c2.086,0,4.173-0.797,5.765-2.387   c3.185-3.184,3.185-8.346,0.001-11.53l-16.262-16.263c-3.184-3.183-8.346-3.184-11.529,0c-3.185,3.184-3.185,8.346-0.001,11.53   L201.604,61.007z"/>
	<path style="fill:#202121;" d="M310.208,430.479l-29.92-11.999v-3.544c8.094-4.842,14.332-12.467,17.395-21.544   c11.115-1.075,19.834-10.462,19.834-21.853c0-6.748-3.065-12.791-7.87-16.823v-13.147c0-26.461-20.062-48.316-45.773-51.176   v-47.519c0-4.503-3.649-8.153-8.153-8.153s-8.153,3.65-8.153,8.153v47.677c-25.113,3.412-44.535,24.984-44.535,51.019v13.074   c-4.854,4.032-7.951,10.109-7.951,16.896c0,11.475,8.851,20.906,20.082,21.866c3.064,9.07,9.3,16.692,17.389,21.53v3.497   l-30.726,12.034c-2.998,1.087-27.545,10.95-27.545,42.185v27.067c0,4.503,3.649,8.159,8.153,8.159h19.304   c4.504,0,8.153-3.649,8.153-8.153s-3.649-8.153-8.153-8.153h-11.151v-18.919c0-20.609,16.082-26.601,16.695-26.821   c0.126-0.042,0.251-0.088,0.376-0.137l28.129-11.017l14.862,14.474c1.523,1.484,3.564,2.312,5.687,2.312   c0.042,0,0.086,0,0.129-0.001c2.17-0.034,4.235-0.932,5.742-2.495l14.016-14.548l28.051,11.249   c0.145,0.059,0.218,0.087,0.366,0.137c0.685,0.245,16.767,6.235,16.767,26.845v18.919h-42.061h-46.701h-6.763   c-4.504,0-8.153,3.649-8.153,8.153c0,4.504,3.649,8.153,8.153,8.153h6.763h46.701h50.214c4.504,0,8.153-3.703,8.153-8.206v-27.02   C337.717,441.539,313.364,431.631,310.208,430.479z M299.777,375.265v-7.453c0.883,0.998,1.435,2.294,1.435,3.728   C301.212,372.972,300.658,374.267,299.777,375.265z M254.531,306.372h3.613c19.407,0,35.196,15.788,35.196,35.197v4.075   c-10.083-2.372-13.433-15.982-13.457-16.079c-0.707-3.125-3.18-5.546-6.318-6.186c-3.138-0.645-6.363,0.612-8.24,3.209   c-13.483,18.641-43.646,18.877-44.081,18.878c-0.01,0-0.018,0-0.027,0c-0.28,0-0.558,0.014-0.832,0.042   c-0.086,0.009-0.168,0.027-0.254,0.039c-0.186,0.025-0.372,0.048-0.553,0.085c-0.082,0.016-0.16,0.042-0.241,0.062v-4.124   C219.338,322.161,235.126,306.372,254.531,306.372z M211.387,371.54c0-1.357,0.5-2.587,1.3-3.563   c0.128-0.024,0.253-0.053,0.379-0.083v7.659C212.031,374.527,211.387,373.107,211.387,371.54z M229.373,361.235   c9.865-1.124,26.703-4.603,39.938-15.371c3.013,4.985,7.548,10.26,14.159,13.47v21.331c0,13.015-10.588,23.604-23.603,23.604h-6.89   c-13.016,0-23.605-10.589-23.605-23.604v-19.43H229.373z M256.155,431.75l-7.296-7.106v-4.283c1.354,0.139,2.729,0.212,4.119,0.212   h6.89c1.389,0,2.762-0.073,4.115-0.212v3.263L256.155,431.75z"/>
	<path style="fill:#202121;" d="M165.505,137.509H81.717c-4.504,0-8.153,3.65-8.153,8.153v144.853   c-25.248,3.289-44.815,24.923-44.815,51.053v13.075c-4.853,4.032-7.95,10.109-7.95,16.896c0,11.475,8.851,20.906,20.081,21.866   c3.065,9.071,9.3,16.692,17.39,21.531v3.496l-30.727,12.034C24.547,431.554,0,441.417,0,472.651v27.067   c0,4.503,3.649,8.159,8.153,8.159h19.305c4.504,0,8.153-3.649,8.153-8.153s-3.649-8.153-8.153-8.153H16.306v-18.919   c0-20.609,16.082-26.601,16.695-26.821c0.126-0.042,0.251-0.088,0.376-0.137l28.129-11.016l14.861,14.474   c1.524,1.483,3.566,2.312,5.689,2.312c0.042,0,0.086,0,0.129-0.001c2.17-0.034,4.235-0.932,5.741-2.495l14.018-14.548l28.051,11.25   c0.145,0.059,0.218,0.087,0.366,0.137c0.685,0.245,16.768,6.235,16.768,26.845v18.919h-42.061H58.366h-6.764   c-4.504,0-8.153,3.649-8.153,8.153s3.649,8.153,8.153,8.153h6.764h46.701h50.214c4.504,0,8.153-3.702,8.153-8.206v-27.02   c0-31.109-24.351-41.019-27.509-42.172l-29.92-11.999v-3.544c8.093-4.842,14.331-12.467,17.394-21.544   c11.115-1.074,19.834-10.462,19.834-21.853c0-6.75-3.065-12.791-7.87-16.823v-13.147c0-26.365-19.918-48.154-45.494-51.14V153.815   h75.635c4.504,0,8.153-3.65,8.153-8.153C173.658,141.158,170.009,137.509,165.505,137.509z M37.105,371.54   c0-1.357,0.5-2.587,1.3-3.563c0.127-0.024,0.253-0.053,0.378-0.083v7.659C37.749,374.527,37.105,373.107,37.105,371.54z    M81.871,431.75l-7.295-7.106v-4.282c1.354,0.139,2.727,0.212,4.118,0.212h6.89c1.389,0,2.762-0.073,4.116-0.212v3.264   L81.871,431.75z M85.584,404.269h-6.89c-13.016,0-23.605-10.589-23.605-23.604v-19.43c9.867-1.126,26.712-4.61,39.939-15.371   c3.012,4.985,7.549,10.26,14.158,13.47v21.331C109.187,393.68,98.599,404.269,85.584,404.269z M125.493,375.265v-7.453   c0.883,0.998,1.435,2.294,1.435,3.728C126.929,372.972,126.375,374.267,125.493,375.265z M119.057,341.569v4.075   c-10.084-2.372-13.432-15.982-13.456-16.079c-0.707-3.124-3.179-5.544-6.318-6.186c-3.139-0.645-6.363,0.612-8.24,3.209   c-13.483,18.641-43.646,18.877-44.081,18.878c-0.004,0-0.01,0.001-0.014,0.001c-0.004,0-0.009-0.001-0.012-0.001   c-0.077,0-0.153,0.01-0.23,0.012c-0.567,0.014-1.12,0.086-1.651,0.21v-4.118c0-19.407,15.787-35.197,35.194-35.197h3.613   C103.27,306.372,119.057,322.161,119.057,341.569z"/>
	<path style="fill:#202121;" d="M484.491,430.479l-29.92-11.999v-3.544c8.093-4.842,14.331-12.467,17.394-21.544   c11.115-1.074,19.834-10.462,19.834-21.853c0-6.75-3.066-12.791-7.87-16.823v-13.147c0-26.365-19.918-48.154-45.494-51.14V145.662   c0-4.503-3.649-8.153-8.153-8.153h-83.787c-4.504,0-8.153,3.65-8.153,8.153c0,4.503,3.649,8.153,8.153,8.153h75.634v136.7   c-25.248,3.289-44.815,24.923-44.815,51.053v13.075c-4.853,4.032-7.95,10.109-7.95,16.896c0,11.475,8.851,20.906,20.081,21.866   c3.065,9.071,9.3,16.692,17.39,21.531v3.496l-30.727,12.034c-2.998,1.087-27.545,10.95-27.545,42.185v27.065   c0,4.503,3.649,8.159,8.153,8.159h19.305c4.504,0,8.153-3.649,8.153-8.153s-3.649-8.153-8.153-8.153H364.87v-18.919   c0-20.609,16.082-26.601,16.695-26.821c0.126-0.042,0.251-0.088,0.376-0.137l28.129-11.016l14.861,14.474   c1.524,1.483,3.566,2.312,5.689,2.312c0.042,0,0.086,0,0.129-0.001c2.17-0.034,4.235-0.932,5.741-2.495l14.018-14.548l28.051,11.25   c0.145,0.059,0.219,0.087,0.366,0.137c0.685,0.245,16.768,6.235,16.768,26.845v18.919h-42.061H406.93h-6.764   c-4.504,0-8.153,3.649-8.153,8.153s3.649,8.153,8.153,8.153h6.764h46.701h50.214c4.504,0,8.153-3.702,8.153-8.206v-27.02   C512,441.542,487.649,431.632,484.491,430.479z M474.059,375.265v-7.453c0.883,0.998,1.435,2.294,1.435,3.728   C475.494,372.972,474.94,374.267,474.059,375.265z M428.815,306.372h3.613c19.407,0,35.194,15.788,35.194,35.197v4.075   c-10.083-2.372-13.433-15.982-13.456-16.079c-0.707-3.124-3.179-5.544-6.318-6.186c-3.138-0.645-6.363,0.612-8.24,3.209   c-13.484,18.641-43.647,18.877-44.082,18.878c-0.01,0-0.018,0-0.027,0c-0.28,0-0.558,0.014-0.832,0.042   c-0.086,0.009-0.168,0.027-0.254,0.039c-0.186,0.025-0.372,0.048-0.553,0.085c-0.082,0.016-0.16,0.042-0.241,0.062v-4.124   C393.621,322.161,409.408,306.372,428.815,306.372z M385.67,371.54c0-1.357,0.5-2.587,1.3-3.563   c0.127-0.024,0.253-0.053,0.378-0.083v7.659C386.314,374.527,385.67,373.107,385.67,371.54z M403.655,361.234   c9.867-1.126,26.712-4.61,39.939-15.371c3.012,4.985,7.549,10.26,14.158,13.47v21.331c0,13.015-10.588,23.604-23.603,23.604h-6.89   c-13.016,0-23.605-10.589-23.605-23.604v-19.43H403.655z M430.437,431.75l-7.295-7.106v-4.282c1.354,0.139,2.727,0.212,4.118,0.212   h6.89c1.389,0,2.762-0.073,4.116-0.212v3.264L430.437,431.75z"/>
</g>
<g>
</g>
<g>
</g>
<g>
</g>
<g>
</g>
<g>
</g>
<g>
</g>
<g>
</g>
<g>
</g>
<g>
</g>
<g>
</g>
<g>
</g>
<g>
</g>
<g>
</g>
<g>
</g>
<g>
</g>
</svg>
