<?xml version="1.0" encoding="iso-8859-1"?>
<!-- Generator: Adobe Illustrator 19.0.0, SVG Export Plug-In . SVG Version: 6.00 Build 0)  -->
<svg xmlns="http://www.w3.org/2000/svg" xmlns:xlink="http://www.w3.org/1999/xlink" version="1.1" id="Layer_1" x="0px" y="0px" viewBox="0 0 511.998 511.998" style="enable-background:new 0 0 511.998 511.998;" xml:space="preserve">
<g>
	<path style="fill:#FBCB99;" d="M259.891,153.359h-7.337c-1.551,0-3.117-0.096-4.784-0.293l-1.809-0.215v7.984l10.029,9.768   l10.495-10.893v-6.859l-1.809,0.215C263.008,153.263,261.443,153.359,259.891,153.359z"/>
	<path style="fill:#FBCB99;" d="M212.263,111.939V94.758l-2.775,2.838c-1.516,1.551-2.352,3.594-2.352,5.752   c0,2.159,0.835,4.202,2.352,5.752L212.263,111.939z"/>
	<path style="fill:#FBCB99;" d="M90.1,387.292c15.079,0,27.346-12.267,27.346-27.346v-24.116l-0.929-0.437   c-5.945-2.797-10.928-7.579-14.808-14.215l-0.966-1.65l-1.467,1.223c-14.1,11.752-32.628,15.293-42.417,16.357l-1.443,0.158v22.679   c0,15.079,12.267,27.346,27.348,27.346H90.1z"/>
	<path style="fill:#FBCB99;" d="M136.338,350.227c0-2.1-0.799-4.106-2.252-5.642l-0.36-0.382l-0.516-0.098   c-0.244-0.046-0.483-0.102-0.717-0.176l-2.102-0.657v15.481l2.577-1.894C135.078,355.306,136.338,352.827,136.338,350.227z"/>
	<path style="fill:#FBCB99;" d="M82.763,400.238c-1.551,0-3.117-0.096-4.785-0.293l-1.809-0.215v7.984l10.029,9.768l10.495-10.895   v-6.858l-1.809,0.215c-1.668,0.199-3.233,0.293-4.785,0.293h-7.336V400.238z"/>
	<path style="fill:#FBCB99;" d="M271.501,74.3l-0.966-1.651l-1.468,1.224c-14.095,11.751-32.624,15.293-42.415,16.358l-1.443,0.158   v22.678c0,15.079,12.267,27.346,27.346,27.346h7.337c15.079,0,27.346-12.267,27.346-27.346V88.951l-0.929-0.437   C280.36,85.715,275.378,80.931,271.501,74.3z"/>
	<path style="fill:#FBCB99;" d="M37.344,350.227c0,2.158,0.835,4.2,2.35,5.75l2.776,2.842v-17.184l-2.776,2.842   C38.179,346.028,37.344,348.069,37.344,350.227z"/>
	<path style="fill:#FBCB99;" d="M306.13,103.349c0-2.101-0.799-4.106-2.252-5.642l-0.36-0.382l-0.516-0.098   c-0.244-0.046-0.483-0.102-0.717-0.176l-2.102-0.657v15.479l2.576-1.892C304.87,108.43,306.13,105.951,306.13,103.349z"/>
	<path style="fill:#FBCB99;" d="M441.294,321.178l-0.966-1.65l-1.467,1.223c-14.1,11.752-32.628,15.294-42.417,16.358l-1.444,0.158   v22.678c0,15.079,12.267,27.346,27.348,27.346h7.337c15.079,0,27.346-12.267,27.346-27.346V335.83l-0.929-0.437   C450.157,332.595,445.174,327.813,441.294,321.178z"/>
	<path style="fill:#FBCB99;" d="M382.055,358.819v-17.184l-2.776,2.842c-1.515,1.551-2.35,3.593-2.35,5.75s0.834,4.2,2.35,5.75   L382.055,358.819z"/>
	<path style="fill:#FBCB99;" d="M473.312,344.203l-0.516-0.098c-0.244-0.046-0.483-0.102-0.717-0.176l-2.102-0.657v15.481   l2.577-1.894c2.109-1.551,3.369-4.031,3.369-6.632c0-2.1-0.799-4.106-2.252-5.642L473.312,344.203z"/>
	<path style="fill:#FBCB99;" d="M436.277,399.728l-1.809,0.215c-1.668,0.199-3.233,0.293-4.785,0.293h-7.337   c-1.551,0-3.117-0.096-4.785-0.293l-1.809-0.215v7.984l10.029,9.768l10.494-10.895v-6.857H436.277z"/>
</g>
<g>
	<path style="fill:#6598CB;" d="M138.478,428.758c-0.147-0.049-0.225-0.079-0.369-0.137l-30.242-12.127l-15.202,15.779   c-1.494,1.551-3.545,2.442-5.698,2.476c-0.043,0.001-0.085,0.001-0.128,0.001c-2.107,0-4.133-0.822-5.644-2.295l-16.101-15.68   l-30.31,11.87c-0.123,0.049-0.247,0.094-0.373,0.136c-0.68,0.243-18.183,6.733-18.183,29.122v29.37h6.774h4.716h16.183h17.709   h49.734h17.71h16.183h2.102h9.388v-29.37C156.726,435.515,139.223,429.023,138.478,428.758z"/>
	<path style="fill:#6598CB;" d="M308.148,181.762c-0.147-0.049-0.225-0.079-0.368-0.137l-30.244-12.128l-15.201,15.779   c-1.494,1.551-3.545,2.443-5.698,2.477c-0.042,0.001-0.085,0.001-0.128,0.001c-2.107,0-4.133-0.822-5.644-2.295l-16.101-15.68   l-30.31,11.87c-0.123,0.049-0.247,0.094-0.373,0.136c-0.68,0.243-18.183,6.733-18.183,29.122v29.37h7.552h3.938h16.183h17.71   h49.735h17.71h16.183h2.991h8.5v-29.37C326.396,188.519,308.892,182.027,308.148,181.762z"/>
	<path style="fill:#6598CB;" d="M477.569,428.758c-0.147-0.049-0.225-0.079-0.369-0.137l-30.241-12.127l-15.203,15.779   c-1.494,1.551-3.545,2.442-5.698,2.476c-0.043,0.001-0.085,0.001-0.128,0.001c-2.107,0-4.133-0.822-5.645-2.295l-16.1-15.68   l-30.311,11.87c-0.123,0.049-0.247,0.094-0.373,0.136c-0.68,0.243-18.182,6.733-18.182,29.122v29.37h6.979h4.512h16.183h17.709   h49.734h17.71h16.183h3.116h8.375v-29.37C495.817,435.515,478.313,429.023,477.569,428.758z"/>
</g>
<g>
	<path style="fill:#694B4B;" d="M258.061,31.741h-3.847c-21.884,0-39.689,17.805-39.689,39.692v7.43l2.137-0.724l0.151-0.056   c0.057-0.018,0.114-0.03,0.172-0.044l0.449-0.114c0.127-0.027,0.259-0.042,0.442-0.067l0.203-0.031   c0.216-0.023,0.435-0.033,0.683-0.033c0.336,0,33.705-0.241,48.739-21.019c1.466-2.03,4.08-3.05,6.541-2.546   c2.488,0.509,4.456,2.437,5.022,4.94c0.161,0.654,4.069,16.054,16.106,18.793l0.315,0.084c0.056,0.014,0.113,0.026,0.167,0.043   l2.099,0.655v-7.309C297.75,49.546,279.945,31.741,258.061,31.741z"/>
	<path style="fill:#694B4B;" d="M88.267,278.619H84.42c-21.884,0-39.689,17.805-39.689,39.692v7.395l2.116-0.682l0.173-0.064   c0.057-0.018,0.114-0.03,0.172-0.044l0.293-0.074c0.049-0.014,0.096-0.028,0.155-0.04c0.127-0.026,0.259-0.042,0.442-0.067   l0.203-0.031c0.216-0.023,0.435-0.033,0.683-0.033c0.334,0,33.706-0.241,48.74-21.019c1.466-2.029,4.068-3.06,6.541-2.546   c2.488,0.509,4.456,2.437,5.021,4.937c0.159,0.653,4.031,16.048,16.11,18.798l0.31,0.083c0.056,0.014,0.111,0.025,0.164,0.042   l2.104,0.661v-7.315C127.957,296.424,110.153,278.619,88.267,278.619z"/>
	<path style="fill:#694B4B;" d="M427.853,278.619h-3.847c-21.884,0-39.689,17.805-39.689,39.692v7.395l2.116-0.682l0.173-0.064   c0.057-0.018,0.114-0.03,0.172-0.044l0.292-0.074c0.049-0.014,0.096-0.028,0.156-0.04c0.131-0.026,0.263-0.043,0.442-0.067   l0.204-0.031c0.216-0.023,0.435-0.033,0.683-0.033c0.336,0,33.706-0.241,48.74-21.019c1.468-2.03,4.075-3.055,6.541-2.546   c2.488,0.509,4.456,2.437,5.021,4.937c0.159,0.653,4.031,16.048,16.11,18.798l0.31,0.083c0.056,0.014,0.111,0.025,0.164,0.042   l2.104,0.661v-7.315C467.542,296.424,449.737,278.619,427.853,278.619z"/>
</g>
<g>
	<path style="fill:#4982AA;" d="M211.259,181.902c0.125-0.042,0.249-0.087,0.372-0.136l24.926-9.761l-2.166-2.109l-30.311,11.87   c-0.122,0.049-0.247,0.094-0.372,0.136c-0.68,0.243-18.183,6.734-18.183,29.122v20.741h7.552v-20.741   C193.078,188.636,210.58,182.144,211.259,181.902z"/>
	<path style="fill:#4982AA;" d="M41.467,428.78c0.125-0.042,0.249-0.087,0.372-0.136l24.926-9.761l-2.166-2.109l-30.311,11.87   c-0.122,0.049-0.246,0.094-0.372,0.136c-0.68,0.243-18.183,6.734-18.183,29.122v20.741h7.552v-20.741   C23.286,435.515,40.789,429.022,41.467,428.78z"/>
	<path style="fill:#4982AA;" d="M381.053,428.78c0.125-0.042,0.249-0.087,0.372-0.136l24.926-9.761l-2.166-2.109l-30.311,11.87   c-0.122,0.049-0.246,0.094-0.372,0.136c-0.68,0.243-18.182,6.734-18.182,29.122v20.741h7.552v-20.741   C362.871,435.515,380.373,429.022,381.053,428.78z"/>
</g>
<path style="fill:#EDBA89;" d="M235.997,113.067V90.405l1.443-0.158c8.483-0.922,23.535-3.719,36.596-12.124  c-0.886-1.203-1.739-2.464-2.535-3.824l-0.966-1.65l-1.467,1.223c-14.124,11.77-32.638,15.311-42.417,16.376l-1.443,0.158v22.662  c0,15.079,12.268,27.346,27.348,27.346h7.337c0.58,0,1.154-0.024,1.726-0.06C247.341,139.458,235.997,127.565,235.997,113.067z"/>
<path style="fill:#563B3B;" d="M222.076,71.432c0-21.265,16.809-38.674,37.837-39.644c-0.614-0.028-1.231-0.047-1.852-0.047h-3.847  c-21.884,0-39.689,17.805-39.689,39.692v7.394l2.116-0.682l0.173-0.064c0.057-0.018,0.114-0.03,0.172-0.044l0.292-0.074  c0.049-0.014,0.096-0.028,0.156-0.04c0.127-0.027,0.259-0.042,0.442-0.067l0.203-0.031c0.216-0.023,0.435-0.033,0.683-0.033  c0.063,0,1.281-0.009,3.314-0.158v-6.201H222.076z"/>
<path style="fill:#EDBA89;" d="M66.204,359.945v-22.662l1.443-0.158c8.483-0.922,23.535-3.719,36.596-12.124  c-0.886-1.203-1.739-2.464-2.535-3.824l-0.966-1.65l-1.467,1.223c-14.124,11.77-32.638,15.311-42.417,16.376l-1.443,0.158v22.662  c0,15.079,12.267,27.346,27.348,27.346H90.1c0.58,0,1.154-0.024,1.726-0.06C77.548,386.337,66.204,374.444,66.204,359.945z"/>
<path style="fill:#563B3B;" d="M52.283,318.311c0-21.265,16.809-38.674,37.837-39.644c-0.614-0.028-1.231-0.047-1.852-0.047H84.42  c-21.884,0-39.689,17.805-39.689,39.692v7.395l2.116-0.682l0.173-0.064c0.057-0.018,0.114-0.03,0.172-0.044l0.293-0.074  c0.049-0.014,0.096-0.028,0.155-0.04c0.127-0.026,0.259-0.042,0.442-0.067l0.203-0.031c0.216-0.023,0.435-0.033,0.683-0.033  c0.063,0,1.281-0.009,3.314-0.158v-6.202H52.283z"/>
<path style="fill:#EDBA89;" d="M405.789,359.945v-22.662l1.444-0.158c8.483-0.922,23.535-3.719,36.596-12.124  c-0.886-1.203-1.739-2.464-2.535-3.824l-0.966-1.65l-1.467,1.223c-14.124,11.77-32.638,15.311-42.417,16.376l-1.444,0.158v22.662  c0,15.079,12.267,27.346,27.348,27.346h7.337c0.58,0,1.154-0.024,1.726-0.06C417.132,386.337,405.789,374.444,405.789,359.945z"/>
<path style="fill:#563B3B;" d="M391.867,318.311c0-21.265,16.809-38.674,37.837-39.644c-0.614-0.028-1.231-0.047-1.852-0.047h-3.847  c-21.884,0-39.689,17.805-39.689,39.692v7.395l2.116-0.682l0.173-0.064c0.057-0.018,0.114-0.03,0.172-0.044l0.292-0.074  c0.049-0.014,0.096-0.028,0.156-0.04c0.127-0.026,0.259-0.042,0.442-0.067l0.204-0.031c0.216-0.023,0.435-0.033,0.683-0.033  c0.063,0,1.28-0.009,3.314-0.158L391.867,318.311L391.867,318.311z"/>
<g>
	<path style="fill:#202121;" d="M326.615,389.536l-66.808-38.571V273.82c0-4.47-3.622-8.091-8.091-8.091   c-4.47,0-8.091,3.622-8.091,8.091v77.145l-66.808,38.571c-3.87,2.234-5.196,7.183-2.961,11.053   c1.499,2.596,4.218,4.047,7.015,4.047c1.372,0,2.765-0.35,4.038-1.085l66.808-38.571l66.808,38.571   c1.275,0.736,2.666,1.085,4.038,1.085c2.796,0,5.516-1.451,7.015-4.047C331.811,396.718,330.485,391.77,326.615,389.536z"/>
	<path style="fill:#202121;" d="M313.649,166.575l-32.238-12.928v-4.515c8.752-5.141,15.479-13.364,18.683-23.17   c11.713-0.941,20.962-10.754,20.962-22.704c0-7.105-3.27-13.459-8.382-17.643V71.34c0-29.915-24.339-54.254-54.254-54.254h-3.847   c-29.915,0-54.254,24.339-54.254,54.254v14.212c-5.158,4.184-8.466,10.563-8.466,17.706c0,12.039,9.388,21.904,21.224,22.717   c3.206,9.801,9.932,18.018,18.68,23.156v4.466l-33.1,12.963c-3.059,1.105-28.955,11.442-28.955,44.373v28.823   c0,4.469,3.622,8.099,8.091,8.099h20.558c4.47,0,8.091-3.622,8.091-8.091c0-4.469-3.622-8.091-8.091-8.091h-12.467v-20.74   c0-22.389,17.503-28.881,18.183-29.122c0.125-0.042,0.249-0.087,0.373-0.136l30.31-11.87l16.1,15.68   c1.511,1.473,3.538,2.295,5.644,2.295c0.043,0,0.085,0,0.128-0.001c2.153-0.035,4.204-0.926,5.698-2.476l15.202-15.779   l30.242,12.127c0.143,0.057,0.222,0.088,0.369,0.137c0.744,0.265,18.249,6.756,18.249,29.145v20.74h-45.382h-49.735h-7.203   c-4.47,0-8.091,3.623-8.091,8.091c0,4.47,3.622,8.091,8.091,8.091h7.203h49.735h53.474c4.47,0,8.091-3.679,8.091-8.147v-28.775   C342.568,178.13,316.868,167.746,313.649,166.575z M302.164,108.584V98.506c0.293,0.092,0.594,0.163,0.901,0.221   c1.118,1.186,1.809,2.777,1.809,4.531C304.874,105.444,303.803,107.38,302.164,108.584z M254.574,33.269h3.847   c20.992,0,38.071,17.079,38.071,38.071v5.11c-0.137-0.043-0.279-0.073-0.42-0.109c-0.069-0.017-0.135-0.042-0.205-0.058   c-11.183-2.544-14.845-17.483-14.872-17.595c-0.701-3.102-3.155-5.503-6.27-6.14c-3.116-0.639-6.314,0.608-8.178,3.185   c-14.556,20.123-47.021,20.349-47.426,20.349c-0.01,0-0.018,0-0.027,0c-0.278,0-0.553,0.014-0.825,0.042   c-0.072,0.008-0.142,0.024-0.215,0.032c-0.197,0.026-0.395,0.051-0.587,0.09c-0.093,0.019-0.182,0.049-0.274,0.07   c-0.167,0.041-0.337,0.078-0.499,0.128c-0.065,0.02-0.127,0.047-0.191,0.07v-5.174C216.503,50.348,233.582,33.269,254.574,33.269z    M208.037,103.258c0-1.661,0.62-3.177,1.634-4.34c0.459-0.072,0.904-0.179,1.333-0.325v10.178   C209.218,107.586,208.037,105.558,208.037,103.258z M227.187,91.763c10.48-1.137,28.985-4.826,43.278-16.737   c3.204,5.481,8.151,11.397,15.516,14.862v23.088c0,14.186-11.541,25.728-25.728,25.728h-7.337   c-14.187,0-25.729-11.541-25.729-25.728V91.763H227.187z M256.315,168.217l-8.374-8.155v-5.48c1.632,0.194,3.29,0.305,4.975,0.305   h7.337c1.684,0,3.342-0.111,4.975-0.305v4.384L256.315,168.217z"/>
	<path style="fill:#202121;" d="M483.08,413.629l-32.238-12.928v-4.515c8.752-5.141,15.479-13.364,18.683-23.17   c11.713-0.941,20.962-10.754,20.962-22.704c0-7.105-3.27-13.459-8.382-17.643v-14.275c0-29.915-24.339-54.254-54.254-54.254h-3.847   c-29.915,0-54.254,24.339-54.254,54.254v14.212c-5.158,4.184-8.466,10.563-8.466,17.706c0,12.039,9.388,21.904,21.224,22.717   c3.206,9.801,9.932,18.018,18.68,23.156v4.466l-33.1,12.963c-3.059,1.104-28.955,11.442-28.955,44.373v28.823   c0,4.469,3.622,8.099,8.091,8.099h20.558c4.47,0,8.091-3.622,8.091-8.091c0-4.47-3.622-8.091-8.091-8.091h-12.467v-20.74   c0-22.389,17.503-28.881,18.183-29.122c0.125-0.042,0.249-0.087,0.373-0.136l30.31-11.87l16.1,15.68   c1.511,1.473,3.538,2.295,5.645,2.295c0.043,0,0.085,0,0.128-0.001c2.153-0.035,4.204-0.925,5.698-2.476l15.202-15.779   l30.242,12.127c0.143,0.058,0.222,0.088,0.369,0.137c0.744,0.265,18.249,6.757,18.249,29.146v20.74h-45.382h-49.735h-7.203   c-4.47,0-8.091,3.622-8.091,8.091c0,4.47,3.622,8.091,8.091,8.091h7.203h49.735h53.474c4.47,0,8.091-3.679,8.091-8.147v-28.775   C512,425.185,486.3,414.801,483.08,413.629z M471.595,355.639v-10.079c0.293,0.092,0.594,0.163,0.901,0.221   c1.118,1.186,1.809,2.777,1.809,4.531C474.305,352.499,473.234,354.434,471.595,355.639z M424.005,280.324h3.847   c20.992,0,38.071,17.079,38.071,38.071v5.11c-0.131-0.041-0.266-0.07-0.4-0.105c-0.076-0.019-0.148-0.045-0.224-0.063   c-11.183-2.543-14.845-17.482-14.872-17.595c-0.701-3.101-3.155-5.503-6.27-6.14c-3.116-0.64-6.314,0.607-8.178,3.185   c-14.556,20.121-47.021,20.348-47.427,20.348c-0.009,0-0.017,0-0.026,0c-0.278,0-0.553,0.014-0.825,0.042   c-0.085,0.009-0.167,0.027-0.252,0.039c-0.184,0.025-0.369,0.047-0.549,0.084c-0.117,0.024-0.228,0.059-0.342,0.087   c-0.145,0.037-0.29,0.067-0.432,0.111c-0.066,0.021-0.127,0.047-0.192,0.07v-5.174   C385.933,297.403,403.013,280.324,424.005,280.324z M377.469,350.312c0-1.661,0.619-3.177,1.634-4.34   c0.458-0.072,0.904-0.179,1.333-0.325v10.178C378.65,354.641,377.469,352.613,377.469,350.312z M396.619,338.807   c10.479-1.137,28.983-4.814,43.278-16.727c3.204,5.48,8.151,11.396,15.516,14.862v23.088c0,14.186-11.541,25.728-25.728,25.728   h-7.337c-14.187,0-25.729-11.541-25.729-25.728v-21.223H396.619z M425.747,415.271l-8.374-8.155v-5.48   c1.632,0.194,3.29,0.305,4.975,0.305h7.337c1.684,0,3.342-0.111,4.975-0.305v4.383L425.747,415.271z"/>
	<path style="fill:#202121;" d="M143.944,413.629l-32.238-12.928v-4.515c8.752-5.141,15.479-13.364,18.683-23.17   c11.713-0.941,20.962-10.754,20.962-22.704c0-7.105-3.27-13.459-8.382-17.643v-14.275c0-29.915-24.339-54.254-54.254-54.254h-3.847   c-29.915,0-54.254,24.339-54.254,54.254v14.212c-5.158,4.184-8.466,10.563-8.466,17.706c0,12.039,9.388,21.904,21.224,22.717   c3.206,9.801,9.932,18.018,18.68,23.156v4.466l-33.1,12.963C25.896,414.721,0,425.059,0,457.989v28.823   c0,4.469,3.622,8.099,8.091,8.099H28.65c4.47,0,8.091-3.622,8.091-8.091c0-4.47-3.622-8.091-8.091-8.091H16.183v-20.74   c0-22.389,17.503-28.881,18.183-29.122c0.125-0.042,0.249-0.087,0.373-0.136l30.31-11.87l16.1,15.68   c1.511,1.473,3.538,2.295,5.644,2.295c0.043,0,0.085,0,0.128-0.001c2.153-0.035,4.204-0.925,5.698-2.476l15.202-15.779   l30.242,12.127c0.143,0.058,0.222,0.088,0.369,0.137c0.744,0.265,18.249,6.757,18.249,29.146v20.74h-45.382H61.564h-7.203   c-4.47,0-8.091,3.622-8.091,8.091c0,4.47,3.622,8.091,8.091,8.091h7.203h49.734h53.474c4.47,0,8.091-3.679,8.091-8.147v-28.775   C172.864,425.185,147.163,414.801,143.944,413.629z M132.459,355.639v-10.079c0.293,0.092,0.594,0.163,0.901,0.221   c1.118,1.186,1.809,2.777,1.809,4.531C135.169,352.499,134.099,354.434,132.459,355.639z M84.869,280.324h3.847   c20.992,0,38.071,17.079,38.071,38.071v5.11c-0.131-0.041-0.266-0.07-0.4-0.105c-0.076-0.019-0.148-0.045-0.224-0.063   c-11.183-2.543-14.845-17.482-14.872-17.595c-0.701-3.101-3.155-5.503-6.27-6.14c-3.114-0.64-6.314,0.607-8.178,3.185   c-14.556,20.121-47.021,20.348-47.426,20.348c-0.01,0-0.018,0-0.027,0c-0.278,0-0.553,0.014-0.825,0.042   c-0.095,0.01-0.187,0.03-0.28,0.043c-0.175,0.024-0.351,0.044-0.521,0.08c-0.119,0.025-0.233,0.06-0.351,0.09   c-0.141,0.036-0.286,0.066-0.424,0.109c-0.066,0.021-0.127,0.047-0.192,0.07v-5.174C46.798,297.403,63.877,280.324,84.869,280.324z    M38.332,350.312c0-1.661,0.62-3.177,1.634-4.34c0.459-0.072,0.904-0.179,1.333-0.325v10.178   C39.514,354.641,38.332,352.613,38.332,350.312z M57.483,338.807c10.48-1.138,28.986-4.816,43.278-16.726   c3.204,5.48,8.151,11.396,15.516,14.862v23.088c0,14.186-11.541,25.728-25.728,25.728h-7.337   c-14.187,0-25.729-11.541-25.729-25.728v-21.224H57.483z M86.61,415.271l-8.374-8.155v-5.48c1.632,0.194,3.29,0.305,4.975,0.305   h7.337c1.684,0,3.342-0.111,4.975-0.305v4.383L86.61,415.271z"/>
</g>
<g>
</g>
<g>
</g>
<g>
</g>
<g>
</g>
<g>
</g>
<g>
</g>
<g>
</g>
<g>
</g>
<g>
</g>
<g>
</g>
<g>
</g>
<g>
</g>
<g>
</g>
<g>
</g>
<g>
</g>
</svg>
