<?xml version="1.0" encoding="iso-8859-1"?>
<!-- Generator: Adobe Illustrator 19.0.0, SVG Export Plug-In . SVG Version: 6.00 Build 0)  -->
<svg xmlns="http://www.w3.org/2000/svg" xmlns:xlink="http://www.w3.org/1999/xlink" version="1.1" id="Layer_1" x="0px" y="0px" viewBox="0 0 512.001 512.001" style="enable-background:new 0 0 512.001 512.001;" xml:space="preserve">
<g>
	<path style="fill:#FBCB99;" d="M136.784,226.815c0-2.099-0.799-4.102-2.249-5.637l-0.36-0.382l-0.515-0.098   c-0.243-0.046-0.483-0.102-0.717-0.176l-2.1-0.656v15.467l2.575-1.893C135.525,231.889,136.784,229.412,136.784,226.815z"/>
	<path style="fill:#FBCB99;" d="M40.491,233.67l2.51,1.665v-15.437l-2.135,0.724c-0.33,0.112-0.689,0.199-1.066,0.259l-0.579,0.092   l-0.386,0.442c-1.31,1.503-2.032,3.42-2.032,5.4C36.803,229.575,38.181,232.138,40.491,233.67z"/>
	<path style="fill:#FBCB99;" d="M252.894,417.488c-1.55,0-3.114-0.096-4.78-0.293l-1.808-0.215v7.977l10.02,9.759l10.485-10.885   v-6.852l-1.808,0.214c-1.666,0.198-3.23,0.293-4.779,0.293h-7.33V417.488z"/>
	<path style="fill:#FBCB99;" d="M83.258,263.844h7.33c15.065,0,27.321-12.256,27.321-27.321v-24.094l-0.928-0.437   c-5.94-2.795-10.918-7.572-14.795-14.202l-0.965-1.648l-1.466,1.222c-14.11,11.759-32.608,15.298-42.378,16.361l-1.442,0.157   v22.641C55.935,251.588,68.192,263.844,83.258,263.844z"/>
	<path style="fill:#FBCB99;" d="M252.894,136.067c-1.55,0-3.114-0.096-4.78-0.294l-1.808-0.214v7.977l10.02,9.759l10.485-10.883   v-6.853l-1.808,0.214c-1.666,0.198-3.23,0.294-4.779,0.294C260.224,136.067,252.894,136.067,252.894,136.067z"/>
	<path style="fill:#FBCB99;" d="M83.258,276.778c-1.55,0-3.114-0.096-4.78-0.293l-1.808-0.214v7.977l10.02,9.759l10.484-10.885   v-6.851l-1.808,0.214c-1.666,0.198-3.23,0.293-4.78,0.293H83.258z"/>
	<path style="fill:#FBCB99;" d="M306.42,367.523c0-2.099-0.799-4.102-2.249-5.637l-0.36-0.382l-0.515-0.098   c-0.244-0.046-0.483-0.102-0.717-0.176l-2.1-0.656v15.467l2.575-1.893C305.162,372.599,306.42,370.122,306.42,367.523z"/>
	<path style="fill:#FBCB99;" d="M252.894,123.133h7.33c15.064,0,27.321-12.255,27.321-27.32V71.72l-0.928-0.437   c-5.94-2.795-10.918-7.572-14.795-14.202l-0.965-1.648l-1.466,1.222c-14.099,11.751-32.603,15.288-42.378,16.35l-1.442,0.157   v22.652C225.572,110.878,237.829,123.133,252.894,123.133z"/>
	<path style="fill:#FBCB99;" d="M306.42,86.105c0-2.099-0.798-4.101-2.248-5.637l-0.36-0.383l-0.516-0.097   c-0.245-0.046-0.484-0.103-0.717-0.176l-2.1-0.656v15.467l2.575-1.893C305.162,91.179,306.42,88.703,306.42,86.105z"/>
	<path style="fill:#FBCB99;" d="M422.53,263.844h7.33c15.065,0,27.321-12.256,27.321-27.321v-24.094l-0.928-0.437   c-5.94-2.795-10.918-7.572-14.795-14.202l-0.964-1.648l-1.466,1.222c-14.111,11.759-32.608,15.297-42.378,16.361l-1.442,0.157   v22.641C395.207,251.588,407.464,263.844,422.53,263.844z"/>
	<path style="fill:#FBCB99;" d="M422.53,276.778c-1.55,0-3.114-0.096-4.78-0.293l-1.808-0.214v7.977l10.02,9.759l10.485-10.885   v-6.851l-1.808,0.214c-1.666,0.198-3.23,0.293-4.779,0.293H422.53z"/>
	<path style="fill:#FBCB99;" d="M379.763,233.67l2.51,1.665v-15.437l-2.135,0.724c-0.33,0.112-0.689,0.199-1.066,0.259l-0.579,0.092   l-0.386,0.442c-1.31,1.503-2.032,3.42-2.032,5.4C376.075,229.575,377.454,232.138,379.763,233.67z"/>
	<path style="fill:#FBCB99;" d="M476.055,226.815c0-2.099-0.799-4.102-2.249-5.637l-0.36-0.382l-0.515-0.098   c-0.244-0.046-0.483-0.102-0.717-0.176l-2.1-0.656v15.467l2.575-1.893C474.796,231.889,476.055,229.412,476.055,226.815z"/>
	<path style="fill:#FBCB99;" d="M210.128,92.96l2.51,1.665V79.188l-2.136,0.724c-0.33,0.112-0.689,0.199-1.066,0.259l-0.579,0.092   l-0.385,0.442c-1.311,1.501-2.033,3.419-2.033,5.4C206.439,88.865,207.818,91.428,210.128,92.96z"/>
	<path style="fill:#FBCB99;" d="M252.894,404.554h7.33c15.064,0,27.321-12.256,27.321-27.321v-24.094l-0.928-0.437   c-5.94-2.795-10.918-7.572-14.795-14.202l-0.965-1.648l-1.466,1.222c-14.099,11.75-32.603,15.288-42.378,16.35l-1.442,0.157v22.652   C225.572,392.298,237.829,404.554,252.894,404.554z"/>
</g>
<g>
	<path style="fill:#EDBA89;" d="M66.714,236.523v-22.641l1.442-0.157c8.474-0.92,23.513-3.715,36.563-12.113   c-0.885-1.202-1.737-2.462-2.533-3.821l-0.965-1.648l-1.466,1.222c-14.11,11.759-32.608,15.298-42.378,16.361l-1.442,0.157v22.641   c0,15.065,12.256,27.321,27.322,27.321h7.33c0.58,0,1.153-0.024,1.725-0.06C78.047,262.89,66.714,251.008,66.714,236.523z"/>
	<path style="fill:#EDBA89;" d="M236.351,95.813V73.162l1.442-0.157c8.478-0.92,23.52-3.713,36.563-12.103   c-0.886-1.202-1.737-2.462-2.533-3.821l-0.965-1.648l-1.466,1.222c-14.099,11.751-32.603,15.288-42.378,16.35l-1.442,0.157v22.652   c0,15.065,12.256,27.32,27.322,27.32h7.33c0.58,0,1.153-0.025,1.725-0.06C247.683,122.179,236.351,110.298,236.351,95.813z"/>
	<path style="fill:#EDBA89;" d="M405.986,236.523v-22.641l1.442-0.157c8.475-0.922,23.513-3.715,36.563-12.113   c-0.885-1.202-1.737-2.462-2.533-3.821l-0.964-1.648l-1.466,1.222c-14.111,11.759-32.608,15.297-42.378,16.361l-1.442,0.157v22.641   c0,15.065,12.256,27.321,27.322,27.321h7.33c0.58,0,1.153-0.024,1.725-0.06C417.319,262.89,405.986,251.008,405.986,236.523z"/>
	<path style="fill:#EDBA89;" d="M236.351,377.232V354.58l1.442-0.157c8.478-0.921,23.52-3.714,36.563-12.103   c-0.886-1.201-1.737-2.462-2.533-3.82l-0.965-1.648l-1.466,1.222c-14.099,11.75-32.603,15.288-42.378,16.35l-1.442,0.157v22.652   c0,15.065,12.256,27.321,27.322,27.321h7.33c0.58,0,1.153-0.024,1.725-0.06C247.683,403.6,236.351,391.718,236.351,377.232z"/>
</g>
<path style="fill:#FBCB99;" d="M210.128,374.379l2.51,1.665v-15.437l-2.136,0.724c-0.33,0.112-0.689,0.199-1.066,0.259l-0.579,0.092  l-0.386,0.442c-1.31,1.501-2.032,3.42-2.032,5.4C206.439,370.285,207.818,372.848,210.128,374.379z"/>
<g>
	<path style="fill:#6598CB;" d="M138.427,305.273c-0.147-0.049-0.225-0.079-0.369-0.137l-30.214-12.116l-15.188,15.765   c-1.493,1.55-3.542,2.44-5.693,2.474c-0.043,0.001-0.085,0.001-0.128,0.001c-2.105,0-4.129-0.821-5.639-2.293L65.11,293.302   L34.828,305.16c-0.123,0.049-0.247,0.094-0.373,0.136c-0.679,0.243-18.166,6.727-18.166,29.095v29.343h4.875h6.604h16.168h17.693   h49.689h17.694h16.168h3.44h8.039v-29.343C156.659,312.023,139.172,305.538,138.427,305.273z"/>
	<path style="fill:#6598CB;" d="M477.7,305.273c-0.147-0.049-0.225-0.079-0.369-0.137l-30.214-12.116l-15.188,15.765   c-1.493,1.55-3.542,2.44-5.693,2.474c-0.043,0.001-0.085,0.001-0.128,0.001c-2.105,0-4.129-0.821-5.639-2.293l-16.086-15.665   L374.1,305.16c-0.123,0.049-0.247,0.094-0.373,0.136c-0.679,0.243-18.165,6.727-18.165,29.095v18.705v11.716h11.479h16.168h17.693   h49.689h17.694h16.168h8.542h2.938v-30.421C495.932,312.023,478.444,305.538,477.7,305.273z"/>
	<path style="fill:#6598CB;" d="M307.592,445.982c-0.147-0.049-0.225-0.079-0.369-0.137l-30.214-12.116l-15.188,15.765   c-1.493,1.55-3.542,2.44-5.693,2.474c-0.043,0.001-0.085,0.001-0.128,0.001c-2.105,0-4.129-0.821-5.639-2.293l-16.086-15.665   l-30.282,11.86c-0.123,0.049-0.247,0.094-0.373,0.136c-0.679,0.243-18.166,6.727-18.166,29.095v29.343h6.01h5.469h16.168h17.693   h49.689h17.694h16.168h3.498h7.981v-29.343C325.824,452.732,308.337,446.247,307.592,445.982z"/>
</g>
<g>
	<path style="fill:#694B4B;" d="M88.757,155.273h-3.844c-21.864,0-39.653,17.789-39.653,39.655v7.389l2.114-0.681l0.172-0.064   c0.057-0.018,0.114-0.03,0.171-0.044l0.292-0.074c0.049-0.014,0.096-0.028,0.156-0.04c0.13-0.026,0.263-0.043,0.442-0.067   l0.203-0.031c0.216-0.023,0.434-0.033,0.682-0.033c0.335,0,33.675-0.24,48.695-21c1.466-2.027,4.072-3.047,6.534-2.544   c2.486,0.509,4.451,2.435,5.016,4.932c0.158,0.652,4.027,16.033,16.095,18.78l0.309,0.083c0.056,0.014,0.111,0.025,0.164,0.042   l2.102,0.661v-7.308C128.41,173.06,110.621,155.273,88.757,155.273z"/>
	<path style="fill:#694B4B;" d="M258.394,14.563h-3.844c-21.864,0-39.653,17.789-39.653,39.654v7.39l2.114-0.681l0.172-0.064   c0.057-0.018,0.114-0.03,0.171-0.044l0.293-0.074c0.048-0.014,0.096-0.028,0.155-0.04c0.13-0.026,0.263-0.043,0.442-0.066   l0.203-0.031c0.216-0.023,0.434-0.033,0.682-0.033c0.334,0,33.675-0.24,48.694-21c1.467-2.03,4.065-3.058,6.535-2.545   c2.486,0.509,4.451,2.435,5.016,4.932c0.16,0.653,4.027,16.035,16.096,18.781l0.309,0.083c0.056,0.014,0.111,0.025,0.164,0.042   l2.102,0.661v-7.309C298.047,32.352,280.258,14.563,258.394,14.563z"/>
	<path style="fill:#694B4B;" d="M428.03,155.273h-3.844c-21.864,0-39.653,17.789-39.653,39.655v7.389l2.114-0.681l0.172-0.064   c0.057-0.018,0.115-0.03,0.171-0.044l0.292-0.074c0.049-0.014,0.096-0.028,0.156-0.04c0.127-0.026,0.259-0.042,0.442-0.067   l0.204-0.031c0.216-0.023,0.434-0.033,0.682-0.033c0.334,0,33.675-0.24,48.695-21c1.465-2.027,4.076-3.045,6.535-2.544   c2.486,0.509,4.452,2.435,5.016,4.932c0.158,0.652,4.027,16.033,16.096,18.78l0.309,0.083c0.056,0.014,0.111,0.025,0.164,0.042   l2.102,0.661v-7.308C467.683,173.06,449.894,155.273,428.03,155.273z"/>
	<path style="fill:#694B4B;" d="M258.394,295.981h-3.844c-21.864,0-39.653,17.789-39.653,39.655v7.389l2.114-0.681l0.172-0.064   c0.057-0.018,0.114-0.03,0.171-0.044l0.293-0.074c0.048-0.014,0.096-0.028,0.155-0.04c0.13-0.026,0.263-0.043,0.442-0.067   l0.203-0.031c0.216-0.023,0.434-0.033,0.682-0.033c0.334,0,33.675-0.24,48.695-21c1.466-2.027,4.063-3.057,6.535-2.544   c2.486,0.509,4.452,2.435,5.016,4.932c0.16,0.652,4.027,16.033,16.095,18.78l0.309,0.083c0.056,0.014,0.111,0.025,0.164,0.042   l2.102,0.661v-7.308C298.047,313.77,280.258,295.981,258.394,295.981z"/>
</g>
<path style="fill:#6598CB;" d="M307.691,164.585c-0.146-0.05-0.291-0.102-0.432-0.16l-30.216-12.116l-15.187,15.765  c-1.493,1.55-3.542,2.441-5.693,2.475c-0.043,0.001-0.085,0.001-0.128,0.001c-2.105,0-4.129-0.822-5.64-2.293l-16.085-15.667  l-30.283,11.86c-0.122,0.049-0.247,0.094-0.372,0.136c-0.679,0.243-18.166,6.728-18.166,29.095v29.344h5.348h6.131h16.168h17.693  h49.689h17.694h16.168h4.363h7.116v-29.344C325.858,170.954,307.874,164.647,307.691,164.585z"/>
<g>
	<path style="fill:#4982AA;" d="M211.199,164.585c0.125-0.042,0.249-0.087,0.372-0.136l24.903-9.752l-2.164-2.107l-30.283,11.86   c-0.122,0.049-0.247,0.094-0.372,0.136c-0.679,0.243-18.166,6.728-18.166,29.095v20.722h7.545v-20.722   C193.033,171.313,210.52,164.828,211.199,164.585z"/>
	<path style="fill:#4982AA;" d="M381.273,305.295c0.125-0.042,0.25-0.087,0.372-0.136l24.901-9.752l-2.164-2.107l-30.283,11.86   c-0.122,0.049-0.247,0.094-0.372,0.136c-0.679,0.243-18.165,6.728-18.165,29.095v20.722h7.545V334.39   C363.107,312.023,380.594,305.537,381.273,305.295z"/>
	<path style="fill:#4982AA;" d="M211.165,446.005c0.125-0.042,0.249-0.087,0.372-0.136l24.903-9.752l-2.164-2.107l-30.283,11.86   c-0.122,0.049-0.247,0.094-0.372,0.136c-0.679,0.243-18.166,6.728-18.166,29.095v20.722h7.545V475.1   C193,452.732,210.487,446.247,211.165,446.005z"/>
	<path style="fill:#4982AA;" d="M42,305.295c0.125-0.042,0.249-0.087,0.372-0.136l24.903-9.752l-2.164-2.107l-30.283,11.86   c-0.122,0.049-0.247,0.094-0.372,0.136c-0.679,0.243-18.166,6.728-18.166,29.095v20.722h7.545V334.39   C23.835,312.023,41.321,305.537,42,305.295z"/>
</g>
<g>
	<path style="fill:#563B3B;" d="M52.805,194.928c0-21.245,16.794-38.639,37.802-39.608c-0.613-0.028-1.23-0.047-1.851-0.047h-3.844   c-21.864,0-39.653,17.789-39.653,39.655v7.389l2.114-0.681l0.172-0.064c0.057-0.018,0.114-0.03,0.171-0.044l0.292-0.074   c0.049-0.014,0.096-0.028,0.156-0.04c0.13-0.026,0.263-0.043,0.442-0.067l0.203-0.031c0.216-0.023,0.434-0.033,0.682-0.033   c0.063,0,1.279-0.009,3.311-0.157v-6.197H52.805z"/>
	<path style="fill:#563B3B;" d="M222.441,54.217c0-21.244,16.794-38.638,37.802-39.607c-0.613-0.028-1.23-0.047-1.851-0.047h-3.844   c-21.864,0-39.653,17.789-39.653,39.654v7.39l2.114-0.681l0.172-0.064c0.057-0.018,0.114-0.03,0.171-0.044l0.293-0.074   c0.048-0.014,0.096-0.028,0.155-0.04c0.13-0.026,0.263-0.043,0.442-0.066l0.203-0.031c0.216-0.023,0.434-0.033,0.682-0.033   c0.063,0,1.278-0.009,3.311-0.157v-6.199H222.441z"/>
	<path style="fill:#563B3B;" d="M392.077,194.928c0-21.245,16.794-38.639,37.802-39.608c-0.613-0.028-1.23-0.047-1.851-0.047h-3.844   c-21.864,0-39.653,17.789-39.653,39.655v7.389l2.114-0.681l0.172-0.064c0.057-0.018,0.115-0.03,0.171-0.044l0.292-0.074   c0.049-0.014,0.096-0.028,0.156-0.04c0.127-0.026,0.259-0.042,0.442-0.067l0.204-0.031c0.216-0.023,0.434-0.033,0.682-0.033   c0.063,0,1.278-0.009,3.311-0.157L392.077,194.928L392.077,194.928z"/>
	<path style="fill:#563B3B;" d="M222.441,335.636c0-21.245,16.794-38.639,37.802-39.608c-0.613-0.028-1.23-0.047-1.851-0.047h-3.844   c-21.864,0-39.653,17.789-39.653,39.655v7.389l2.114-0.681l0.172-0.064c0.057-0.018,0.114-0.03,0.171-0.044l0.293-0.074   c0.048-0.014,0.096-0.028,0.155-0.04c0.13-0.026,0.263-0.043,0.442-0.067l0.203-0.031c0.216-0.023,0.434-0.033,0.682-0.033   c0.063,0,1.278-0.009,3.311-0.157v-6.197H222.441z"/>
</g>
<g>
	<path style="fill:#202121;" d="M212.623,108.789c3.203,9.791,9.923,18,18.663,23.135v4.464l-33.069,12.948   c-3.049,1.102-28.928,11.429-28.928,44.332v28.799c0,4.464,3.618,8.09,8.084,8.09h20.539c4.466,0,8.084-3.619,8.084-8.084   c0-4.464-3.618-8.084-8.084-8.084h-12.456v-20.722c0-22.367,17.487-28.853,18.165-29.096c0.125-0.042,0.25-0.087,0.372-0.136   l30.283-11.86l16.084,15.665c1.511,1.471,3.535,2.294,5.64,2.294c0.043,0,0.085,0,0.128-0.001c2.151-0.035,4.201-0.925,5.693-2.474   l15.187-15.765l30.216,12.116c0.142,0.057,0.288,0.11,0.432,0.16c0.182,0.061,18.166,6.369,18.166,29.095v20.722h-45.341h-49.689   h-7.197c-4.466,0-8.084,3.619-8.084,8.084c0,4.464,3.618,8.084,8.084,8.084h7.197h49.689h53.425c4.466,0,8.084-3.675,8.084-8.14   v-28.748c0-32.775-25.68-43.151-28.894-44.319l-32.208-12.915v-4.512c8.743-5.136,15.465-13.35,18.666-23.148   c11.702-0.94,20.943-10.744,20.943-22.683c0-7.099-3.267-13.447-8.373-17.627v-14.26C312.125,24.316,287.808,0,257.921,0h-3.844   c-29.888,0-54.204,24.316-54.204,54.205v14.197c-5.153,4.18-8.458,10.553-8.458,17.691   C191.418,98.121,200.797,107.977,212.623,108.789z M301.625,81.344c0.293,0.092,0.594,0.163,0.9,0.221   c1.117,1.185,1.808,2.775,1.808,4.528c0,2.184-1.069,4.117-2.708,5.321V81.344z M264.724,141.748l-8.905,9.244l-8.366-8.149v-5.475   c1.632,0.194,3.287,0.305,4.97,0.305h7.33c1.683,0,3.339-0.111,4.97-0.305v4.38H264.724z M285.458,95.802   c0,14.173-11.531,25.703-25.704,25.703h-7.33c-14.174,0-25.706-11.531-25.706-25.703V74.601   c10.469-1.137,28.962-4.817,43.238-16.714c3.201,5.475,8.143,11.386,15.502,14.848v23.067H285.458z M216.043,54.205   c0-20.974,17.063-38.037,38.036-38.037h3.844c20.973,0,38.036,17.063,38.036,38.037v5.106c-0.137-0.043-0.279-0.073-0.419-0.109   c-0.069-0.017-0.135-0.042-0.205-0.057c-11.173-2.542-14.831-17.468-14.858-17.58c-0.701-3.098-3.152-5.498-6.264-6.134   c-3.113-0.639-6.309,0.607-8.17,3.182c-14.542,20.104-46.978,20.331-47.383,20.331c-0.009,0-0.017,0-0.026,0   c-0.278,0-0.553,0.014-0.825,0.042c-0.078,0.008-0.151,0.025-0.227,0.034c-0.193,0.025-0.386,0.05-0.573,0.087   c-0.102,0.02-0.199,0.053-0.301,0.077c-0.158,0.039-0.318,0.073-0.472,0.122c-0.066,0.02-0.127,0.047-0.192,0.07V54.205z    M209.218,81.756c0.458-0.072,0.903-0.179,1.332-0.324v10.169c-1.785-1.185-2.965-3.21-2.965-5.508   C207.585,84.433,208.205,82.918,209.218,81.756z"/>
	<path style="fill:#202121;" d="M330.388,28.05c52.257,17.127,97.456,52.159,127.27,98.643c1.545,2.407,4.151,3.721,6.812,3.721   c1.495,0,3.006-0.414,4.357-1.28c3.758-2.41,4.85-7.41,2.441-11.169C439.45,68.358,391.206,30.969,335.423,12.687   c-4.251-1.394-8.809,0.923-10.2,5.164C323.833,22.094,326.145,26.659,330.388,28.05z"/>
	<path style="fill:#202121;" d="M42.454,129.134c1.351,0.867,2.862,1.28,4.357,1.28c2.661,0,5.269-1.314,6.812-3.721   c30.159-47.023,75.946-82.245,128.923-99.18c4.253-1.359,6.599-5.909,5.238-10.162c-1.36-4.254-5.912-6.599-10.161-5.238   C121.07,30.19,72.198,67.783,40.011,117.964C37.603,121.723,38.695,126.724,42.454,129.134z"/>
	<path style="fill:#202121;" d="M155.595,474.009c-41.808-19.218-77.069-49.899-101.972-88.725   c-2.411-3.758-7.415-4.851-11.169-2.441c-3.758,2.41-4.851,7.411-2.441,11.169c26.575,41.435,64.208,74.175,108.829,94.688   c1.095,0.503,2.242,0.742,3.372,0.742c3.061,0,5.989-1.747,7.35-4.709C161.429,480.675,159.652,475.875,155.595,474.009z"/>
	<path style="fill:#202121;" d="M468.826,382.843c-3.755-2.409-8.758-1.319-11.169,2.441   c-24.546,38.271-59.235,68.684-100.317,87.951c-4.042,1.896-5.782,6.71-3.886,10.752c1.374,2.933,4.287,4.653,7.324,4.653   c1.149,0,2.317-0.247,3.428-0.767c43.847-20.563,80.868-53.019,107.063-93.86C473.678,390.254,472.586,385.254,468.826,382.843z"/>
	<path style="fill:#202121;" d="M172.717,363.128v-28.748c0-32.774-25.676-43.148-28.894-44.319l-32.208-12.916v-4.511   c8.743-5.137,15.465-13.351,18.666-23.149c11.702-0.94,20.943-10.744,20.943-22.683c0-7.099-3.267-13.446-8.373-17.626v-14.261   c0-29.889-24.316-54.206-54.204-54.206h-3.844c-29.889,0-54.204,24.317-54.204,54.206v14.197   c-5.153,4.179-8.458,10.553-8.458,17.69c0,12.028,9.379,21.884,21.204,22.696c3.203,9.792,9.923,18.001,18.663,23.135v4.462   L28.94,290.049c-3.056,1.103-28.928,11.432-28.928,44.332v28.797c0,4.466,3.618,8.091,8.084,8.091h20.539   c4.466,0,8.084-3.618,8.084-8.084c0-4.466-3.618-8.084-8.084-8.084H16.179v-20.721c0-22.369,17.487-28.853,18.165-29.095   c0.125-0.042,0.25-0.087,0.373-0.136l30.282-11.86l16.085,15.665c1.51,1.471,3.534,2.293,5.639,2.293c0.043,0,0.085,0,0.128-0.001   c2.151-0.034,4.2-0.925,5.693-2.474l15.188-15.765l30.214,12.116c0.143,0.058,0.222,0.088,0.369,0.137   c0.744,0.265,18.232,6.751,18.232,29.119v20.721h-45.341H61.518h-7.197c-4.466,0-8.084,3.618-8.084,8.084   c0,4.466,3.618,8.084,8.084,8.084h7.197h49.689h53.425C169.097,371.268,172.717,367.592,172.717,363.128z M132.348,222.054   c0.292,0.092,0.594,0.163,0.899,0.221c1.118,1.185,1.808,2.775,1.808,4.528c0,2.184-1.069,4.117-2.708,5.321v-10.07H132.348z    M41.273,232.311c-1.785-1.185-2.965-3.21-2.965-5.508c0-1.66,0.62-3.175,1.634-4.337c0.457-0.072,0.902-0.179,1.331-0.324V232.311   z M49.383,199.652c-0.009,0-0.017,0-0.026,0c-0.278,0-0.553,0.014-0.825,0.042c-0.067,0.006-0.13,0.022-0.196,0.03   c-0.204,0.026-0.406,0.052-0.605,0.093c-0.098,0.02-0.192,0.051-0.289,0.074c-0.163,0.04-0.326,0.075-0.484,0.125   c-0.066,0.02-0.127,0.047-0.192,0.07v-5.168c0-20.974,17.063-38.038,38.036-38.038h3.844c20.973,0,38.036,17.064,38.036,38.038   v5.105c-0.137-0.043-0.279-0.073-0.419-0.109c-0.069-0.017-0.135-0.042-0.205-0.058c-11.173-2.542-14.831-17.467-14.858-17.579   c-0.701-3.099-3.152-5.498-6.263-6.134c-3.113-0.638-6.31,0.607-8.169,3.182C82.224,199.425,49.788,199.652,49.383,199.652z    M95.447,282.457l-8.905,9.244l-8.366-8.147v-5.475c1.631,0.194,3.287,0.305,4.97,0.305h7.33c1.683,0,3.339-0.111,4.97-0.305v4.379   H95.447z M90.477,262.215h-7.33c-14.174,0-25.706-11.531-25.706-25.704V215.31c10.469-1.137,28.962-4.817,43.238-16.714   c3.201,5.475,8.143,11.386,15.502,14.848v23.067C116.181,250.685,104.65,262.215,90.477,262.215z"/>
	<path style="fill:#202121;" d="M483.097,290.061l-32.208-12.916v-4.511c8.743-5.136,15.465-13.351,18.666-23.149   c11.702-0.94,20.943-10.744,20.943-22.683c0-7.099-3.267-13.446-8.374-17.626v-14.261c0-29.889-24.316-54.206-54.204-54.206h-3.845   c-29.888,0-54.204,24.317-54.204,54.206v14.197c-5.153,4.18-8.458,10.553-8.458,17.69c0,12.028,9.379,21.884,21.204,22.696   c3.203,9.792,9.923,18.001,18.663,23.135v4.462l-33.067,12.954c-3.056,1.103-28.928,11.432-28.928,44.332v28.797   c0,4.466,3.618,8.091,8.084,8.091h20.539c4.466,0,8.084-3.618,8.084-8.084c0-4.466-3.618-8.084-8.084-8.084h-12.456v-20.721   c0-22.369,17.487-28.853,18.166-29.095c0.125-0.042,0.249-0.087,0.373-0.136l30.282-11.86l16.085,15.665   c1.51,1.471,3.534,2.293,5.639,2.293c0.043,0,0.085,0,0.128-0.001c2.151-0.034,4.2-0.925,5.693-2.474l15.188-15.765l30.214,12.116   c0.143,0.058,0.222,0.088,0.369,0.137c0.744,0.265,18.232,6.751,18.232,29.119v20.721h-45.341h-49.689h-7.197   c-4.466,0-8.084,3.618-8.084,8.084c0,4.466,3.618,8.084,8.084,8.084h7.197h49.689h53.425c4.466,0,8.084-3.675,8.084-8.14v-28.748   C511.99,301.605,486.313,291.231,483.097,290.061z M471.622,222.054c0.292,0.092,0.593,0.163,0.899,0.221   c1.118,1.185,1.809,2.775,1.809,4.528c0,2.184-1.069,4.117-2.708,5.321L471.622,222.054L471.622,222.054z M380.547,232.311   c-1.785-1.185-2.965-3.21-2.965-5.508c0-1.66,0.62-3.175,1.634-4.337c0.457-0.072,0.902-0.179,1.331-0.324L380.547,232.311   L380.547,232.311z M388.656,199.652c-0.009,0-0.017,0-0.026,0c-0.278,0-0.553,0.014-0.825,0.042   c-0.072,0.008-0.142,0.024-0.214,0.032c-0.197,0.025-0.395,0.051-0.586,0.089c-0.102,0.02-0.199,0.053-0.301,0.077   c-0.158,0.039-0.318,0.073-0.472,0.122c-0.066,0.02-0.127,0.047-0.192,0.07v-5.168c0-20.974,17.063-38.038,38.036-38.038h3.845   c20.973,0,38.036,17.064,38.036,38.038v5.105c-0.137-0.043-0.279-0.073-0.419-0.109c-0.069-0.017-0.135-0.042-0.205-0.057   c-11.173-2.542-14.831-17.467-14.858-17.579c-0.701-3.099-3.152-5.498-6.264-6.134c-3.112-0.638-6.308,0.607-8.169,3.182   C421.497,199.425,389.061,199.652,388.656,199.652z M434.721,282.457l-8.905,9.244l-8.366-8.147v-5.477   c1.631,0.194,3.287,0.305,4.97,0.305h7.33c1.683,0,3.339-0.111,4.97-0.305v4.38H434.721z M429.75,262.215h-7.33   c-14.174,0-25.706-11.531-25.706-25.704v-21.198c10.472-1.14,28.974-4.83,43.238-16.717c3.201,5.475,8.143,11.386,15.502,14.848   v23.067C455.454,250.685,443.924,262.215,429.75,262.215z"/>
	<path style="fill:#202121;" d="M313.1,430.794l-32.208-12.916v-4.511c8.743-5.136,15.465-13.351,18.666-23.149   c11.702-0.94,20.943-10.744,20.943-22.683c0-7.099-3.267-13.446-8.373-17.626v-14.261c0-29.89-24.316-54.206-54.204-54.206h-3.844   c-29.888,0-54.204,24.316-54.204,54.206v14.197c-5.153,4.179-8.458,10.553-8.458,17.69c0,12.028,9.379,21.884,21.204,22.696   c3.203,9.792,9.923,18.001,18.663,23.135v4.462l-33.069,12.952c-3.056,1.103-28.928,11.432-28.928,44.332v28.797   c0,4.466,3.618,8.091,8.084,8.091h20.539c4.466,0,8.084-3.618,8.084-8.084c0-4.464-3.618-8.084-8.084-8.084h-12.456v-20.721   c0-22.369,17.487-28.854,18.165-29.095c0.125-0.042,0.25-0.087,0.373-0.136l30.282-11.86l16.085,15.665   c1.51,1.471,3.534,2.293,5.639,2.293c0.043,0,0.085,0,0.128-0.001c2.151-0.034,4.201-0.924,5.693-2.474l15.188-15.765   l30.214,12.116c0.143,0.058,0.222,0.088,0.369,0.137c0.744,0.265,18.232,6.751,18.232,29.119v20.721h-45.341h-49.689h-7.197   c-4.466,0-8.084,3.619-8.084,8.084c0,4.466,3.618,8.084,8.084,8.084h7.197h49.689h53.425c4.466,0,8.084-3.675,8.084-8.14v-28.748   C341.993,442.339,316.316,431.964,313.1,430.794z M301.625,372.856v-10.071c0.292,0.092,0.593,0.163,0.899,0.221   c1.118,1.185,1.809,2.775,1.809,4.528C304.333,369.719,303.264,371.652,301.625,372.856z M254.079,297.61h3.844   c20.973,0,38.036,17.063,38.036,38.038v5.105c-0.133-0.042-0.271-0.071-0.406-0.106c-0.073-0.019-0.143-0.044-0.219-0.061   c-11.173-2.542-14.831-17.465-14.858-17.579c-0.701-3.098-3.152-5.498-6.264-6.134c-3.113-0.638-6.309,0.607-8.169,3.181   c-14.543,20.103-46.979,20.33-47.384,20.33c-0.009,0-0.017,0-0.026,0c-0.278,0-0.553,0.014-0.825,0.042   c-0.091,0.009-0.177,0.028-0.266,0.041c-0.179,0.025-0.359,0.046-0.535,0.082c-0.127,0.026-0.25,0.065-0.375,0.096   c-0.133,0.033-0.268,0.061-0.398,0.102c-0.066,0.021-0.127,0.047-0.193,0.07v-5.168C216.043,314.673,233.107,297.61,254.079,297.61   z M207.585,367.535c0-1.66,0.62-3.175,1.634-4.337c0.458-0.072,0.902-0.179,1.331-0.324v10.169   C208.765,371.859,207.585,369.833,207.585,367.535z M226.718,356.043c10.469-1.137,28.962-4.817,43.238-16.714   c3.201,5.475,8.143,11.386,15.502,14.85v23.067c0,14.173-11.531,25.704-25.704,25.704h-7.33c-14.174,0-25.706-11.531-25.706-25.704   v-21.202H226.718z M255.819,432.434l-8.366-8.147v-5.475c1.632,0.194,3.287,0.305,4.97,0.305h7.33c1.683,0,3.339-0.111,4.97-0.305   v4.379L255.819,432.434z"/>
</g>
<g>
</g>
<g>
</g>
<g>
</g>
<g>
</g>
<g>
</g>
<g>
</g>
<g>
</g>
<g>
</g>
<g>
</g>
<g>
</g>
<g>
</g>
<g>
</g>
<g>
</g>
<g>
</g>
<g>
</g>
</svg>
