<?xml version="1.0" encoding="iso-8859-1"?>
<!-- Generator: Adobe Illustrator 19.0.0, SVG Export Plug-In . SVG Version: 6.00 Build 0)  -->
<svg xmlns="http://www.w3.org/2000/svg" xmlns:xlink="http://www.w3.org/1999/xlink" version="1.1" id="Layer_1" x="0px" y="0px" viewBox="0 0 512.001 512.001" style="enable-background:new 0 0 512.001 512.001;" xml:space="preserve">
<g>
	<path style="fill:#324A5E;" d="M41.935,420.375c-0.115,0.048-0.234,0.093-0.384,0.144c-1.147,0.403-28.097,10.254-28.097,44.257   v33.305h26.369v-35.065c0-2.967,2.414-5.382,5.382-5.382s5.382,2.414,5.382,5.382v35.065h38.019l-24.37-86.998L41.935,420.375z"/>
	<path style="fill:#324A5E;" d="M184.791,420.502c-0.102-0.035-0.237-0.085-0.339-0.128l-21.145-8.811l-24.236,86.519h36.734   v-35.065c0-2.967,2.414-5.382,5.382-5.382c2.967,0,5.382,2.414,5.382,5.382v35.065h26.37v-33.305   C212.938,430.77,185.942,420.906,184.791,420.502z"/>
</g>
<path style="fill:#694B4B;" d="M113.838,213.639c-45.371,0-82.282,44.123-82.282,98.357c0,22.965,6.782,45.316,19.097,62.94  l1.198,1.716l1.957-0.739c4.826-1.821,10.06-3.421,15.555-4.753l4.318-1.048l-2.93-3.341c-6.032-6.881-10.093-15.244-11.744-24.188  l-0.337-1.824l-1.825-0.334c-11.136-2.033-19.217-11.726-19.217-23.047c0-11.185,7.964-20.857,18.938-22.999l1.442-0.282  l0.542-1.367c0.635-1.598,1.993-2.807,3.635-3.233c0.291-0.074,29.181-7.767,47.798-26.873c1.103-1.132,2.641-1.728,4.27-1.61  c1.595,0.123,3.043,0.943,3.991,2.275c0.581,0.795,14.599,19.546,46.974,26.144c1.783,0.364,3.252,1.596,3.924,3.297l0.541,1.367  l1.443,0.283c10.964,2.149,18.92,11.82,18.92,22.997c0,11.322-8.082,21.013-19.217,23.047l-1.825,0.334l-0.337,1.825  c-1.649,8.942-5.71,17.306-11.744,24.189l-2.93,3.342l4.319,1.047c5.509,1.336,10.747,2.936,15.57,4.755l1.957,0.738l1.198-1.716  c12.306-17.621,19.083-39.975,19.083-62.943C196.122,257.762,159.209,213.639,113.838,213.639z"/>
<g>
	<path style="fill:#FBCB99;" d="M130.871,398.189v-15.442l-3.163,0.565c-2.995,0.535-6.005,0.806-8.945,0.806h-9.845   c-2.966,0-6.003-0.277-9.024-0.82l-3.168-0.57v15.46c0,2.499-1.698,4.652-4.13,5.233l-18.114,4.336l2.514,8.982l0.94,0.549   c4.952,2.894,18.362,9.622,35.92,9.624h0.004c12.332,0,24.406-3.282,35.884-9.753l0.97-0.547l2.413-8.619l-18.19-4.585   C132.544,402.804,130.871,400.658,130.871,398.189z"/>
	<path style="fill:#FBCB99;" d="M173.731,306.895l-4.206-2.865v26.69l4.206-2.865c3.477-2.37,5.553-6.287,5.553-10.478   C179.283,313.183,177.208,309.265,173.731,306.895z"/>
</g>
<path style="fill:#EDBA89;" d="M48.392,317.376c0,4.193,2.077,8.11,5.555,10.479l4.205,2.864v-26.688l-4.205,2.863  C50.469,309.263,48.392,313.181,48.392,317.376z"/>
<path style="fill:#FBCB99;" d="M115.218,275.908l-1.751-1.689l-1.857,1.571c-14.572,12.334-31.859,19.283-40.866,22.326  l-1.829,0.618v34.62c0,22.056,17.945,40.001,40.001,40.001h9.845c22.055,0,39.999-17.945,39.999-40.001v-34.321l-2.002-0.53  C136.126,293.047,122.779,283.204,115.218,275.908z"/>
<path style="fill:#6598CB;" d="M211.017,139.639h85.747c1.562,0,3.044,0.677,4.066,1.858l30.076,34.703v-31.179  c0-2.967,2.414-5.382,5.382-5.382h39.082V36.013H211.017V139.639z"/>
<path style="fill:#EFF2F9;" d="M114.01,440.422c-11.383,0-21.307-2.374-29.028-5.149l16.84,60.118h24.029l16.852-60.167  C132.507,438.985,122.821,440.422,114.01,440.422z"/>
<path style="fill:#75BF4D;" d="M138.579,108.211h36.39c4.459,0,8.072,3.613,8.072,8.072v23.966l14.522-16.755v-78.87  c0-4.458,3.613-8.072,8.072-8.072h91.914V16.425H138.579V108.211z"/>
<g>
	<rect x="211.015" y="42.471" style="fill:#4982AA;" width="12.916" height="97.171"/>
	<path style="fill:#4982AA;" d="M313.746,141.497c-1.023-1.181-2.505-1.858-4.066-1.858h-12.916c1.562,0,3.044,0.677,4.066,1.858   l30.076,34.703v-14.903L313.746,141.497z"/>
</g>
<g>
	<rect x="138.578" y="16.425" style="fill:#56A846;" width="12.916" height="91.79"/>
	<path style="fill:#56A846;" d="M195.957,125.346v-9.063c0-4.459-3.613-8.072-8.072-8.072h-12.916c4.459,0,8.072,3.613,8.072,8.072   v23.966L195.957,125.346z"/>
</g>
<g>
	<path style="fill:#283D4C;" d="M52.314,420.519c0.152-0.052,0.269-0.096,0.384-0.144l12.663-5.275l-1.125-4.017l-22.302,9.292   c-0.115,0.048-0.234,0.093-0.384,0.144c-1.147,0.403-28.097,10.254-28.097,44.257v33.305h10.763v-33.305   C24.217,430.775,51.167,420.922,52.314,420.519z"/>
	<path style="fill:#283D4C;" d="M55.968,457.636c-2.967,0-5.382,2.414-5.382,5.382v35.065H61.35v-35.065   C61.35,460.05,58.936,457.636,55.968,457.636z"/>
</g>
<path style="fill:#563B3B;" d="M44.397,333.853c-4.214-4.263-6.768-10.112-6.768-16.478c0-5.412,1.877-10.461,5.046-14.483  c3.694-47.87,36.201-85.908,76.545-89.038c-1.78-0.138-3.573-0.215-5.382-0.215c-45.371,0-82.282,44.123-82.282,98.357  c0,22.965,6.782,45.316,19.097,62.94l1.198,1.716l1.957-0.739c2.16-0.816,4.414-1.579,6.724-2.301  C52.664,361.948,47.166,348.319,44.397,333.853z"/>
<g>
	<path style="fill:#EDBA89;" d="M119.679,384.119h9.845c0.447,0,0.897-0.018,1.345-0.03v-1.341l-3.163,0.565   c-2.84,0.507-5.689,0.768-8.484,0.795C119.375,384.109,119.529,384.119,119.679,384.119z"/>
	<path style="fill:#EDBA89;" d="M88.699,417.287l-0.94-0.549l-2.514-8.981l18.113-4.334c2.431-0.581,4.13-2.734,4.13-5.233v-14.103   c-2.509-0.074-5.057-0.332-7.596-0.787l-3.168-0.57v15.46c0,2.499-1.698,4.652-4.13,5.233l-18.113,4.334l2.514,8.982l0.94,0.549   c4.952,2.894,18.362,9.622,35.92,9.624h0.004c1.817,0,3.625-0.08,5.428-0.222C104.374,425.536,93.136,419.881,88.699,417.287z"/>
	<path style="fill:#EDBA89;" d="M79.679,333.355v-34.62l1.829-0.618c8.22-2.778,23.329-8.822,36.984-19.229   c-1.19-1.026-2.285-2.026-3.274-2.979l-1.751-1.689l-1.857,1.571c-14.572,12.334-31.859,19.282-40.866,22.326l-1.829,0.618v34.62   c0,22.056,17.945,40.001,40.001,40.001h9.845c0.155,0,0.306-0.01,0.46-0.012C97.376,373.096,79.679,355.257,79.679,333.355z"/>
</g>
<path style="fill:#D2D2D7;" d="M84.983,435.273l16.84,60.118h10.763l-15.916-56.814C92.383,437.671,88.45,436.52,84.983,435.273z"/>
<g>
	<path style="fill:#202121;" d="M189.382,407.945l-27.371-11.406c-0.368-0.154-0.746-0.279-1.132-0.377l-16.554-4.172v-9.865   c11.317,1.88,21.647,4.825,29.918,8.556c1.077,0.485,2.205,0.716,3.315,0.716c2.663,0,5.218-1.329,6.732-3.622   c0.191-0.2,0.372-0.411,0.546-0.634c15.953-20.581,24.739-47.236,24.739-75.055c0-61.652-42.948-111.811-95.738-111.811   s-95.736,50.159-95.736,111.811c0,28.433,9.128,55.523,25.705,76.279c0.05,0.061,0.105,0.114,0.156,0.173   c0.069,0.082,0.142,0.159,0.214,0.239c0.186,0.202,0.379,0.394,0.58,0.573c0.062,0.056,0.124,0.112,0.188,0.166   c0.851,0.713,1.821,1.225,2.848,1.533c0.053,0.016,0.105,0.03,0.159,0.045c0.302,0.084,0.608,0.151,0.917,0.198   c0.055,0.009,0.108,0.019,0.163,0.027c0.361,0.048,0.723,0.082,1.088,0.082c0.047,0,0.095-0.011,0.142-0.012   c0.322-0.005,0.643-0.034,0.965-0.08c0.13-0.018,0.259-0.038,0.389-0.061c0.342-0.065,0.683-0.146,1.021-0.258   c0.122-0.04,0.239-0.094,0.359-0.14c0.145-0.056,0.293-0.104,0.437-0.17c8.249-3.721,18.545-6.656,29.838-8.54v9.77l-17.664,4.228   c-0.42,0.1-0.83,0.234-1.227,0.399L37.01,407.942C24.037,412.441,0,429.939,0,464.867v38.678c0,4.459,3.613,8.082,8.072,8.082   h71.756h15.844c0.009,0,0.017,0.002,0.026,0.002c0.011,0,0.02-0.002,0.031-0.002h36.22c0.011,0,0.02,0.002,0.031,0.002   c0.009,0,0.017-0.002,0.026-0.002h14.56h71.756c4.459,0,8.072-3.69,8.072-8.148v-38.612   C226.392,429.939,202.355,412.441,189.382,407.945z M101.824,495.483l-16.84-60.117c7.719,2.775,17.643,5.149,29.027,5.149   c8.812,0,18.497-1.438,28.696-5.199l-16.853,60.167H101.824z M51.083,317.467c0-3.429,1.738-6.459,4.379-8.257v16.512   C52.821,323.924,51.083,320.895,51.083,317.467z M71.606,333.446v-32.689c9.106-3.077,26.796-10.172,41.742-22.821   c7.213,6.96,21.042,17.528,42.721,23.262v32.249c0,20.573-16.737,37.31-37.308,37.31h-9.845   C88.343,370.756,71.606,354.019,71.606,333.446z M176.593,317.467c0,3.428-1.738,6.456-4.377,8.254v-16.51   C174.855,311.009,176.593,314.039,176.593,317.467z M113.838,216.421c43.887,0,79.593,42.915,79.593,95.666   c0,22.581-6.58,44.192-18.599,61.403c-4.907-1.852-10.237-3.483-15.886-4.853c6.218-7.092,10.588-15.833,12.367-25.476   c12.168-2.222,21.423-12.893,21.423-25.694c0-12.686-9.087-23.284-21.094-25.637c-0.981-2.477-3.15-4.385-5.889-4.943   c-31.388-6.397-44.811-24.374-45.338-25.096c-1.387-1.951-3.569-3.187-5.956-3.371c-2.403-0.182-4.735,0.701-6.404,2.415   c-18.047,18.521-46.274,26.075-46.548,26.146c-2.549,0.661-4.528,2.505-5.457,4.843c-12.015,2.345-21.112,12.948-21.112,25.64   c0,12.801,9.255,23.473,21.425,25.694c1.779,9.643,6.149,18.383,12.366,25.474c-5.645,1.369-10.968,3-15.87,4.85   c-12.028-17.211-18.612-38.765-18.612-61.397C34.246,259.337,69.951,216.421,113.838,216.421z M93.221,406.131   c3.633-0.87,6.194-4.116,6.194-7.851v-12.242c3.086,0.556,6.257,0.862,9.501,0.862h9.845c3.215,0,6.358-0.301,9.418-0.848v12.227   c0,3.699,2.513,6.924,6.1,7.828l15.513,3.91l-1.369,4.888c-32.716,18.445-61.008,4.895-69.128,0.151l-1.468-5.241L93.221,406.131z    M53.277,495.483v-32.374c0-4.459-3.613-8.072-8.072-8.072s-8.072,3.613-8.072,8.072v32.374H16.145v-30.615   c0-32.132,25.27-41.358,26.297-41.719c0.181-0.061,0.358-0.127,0.534-0.201l19.489-8.121l2.099,7.492   c0.003,0.012,0.006,0.024,0.011,0.037l20.484,73.126h-5.23H53.277V495.483z M210.247,495.483h-20.988v-32.374   c0-4.459-3.613-8.072-8.072-8.072s-8.072,3.613-8.072,8.072v32.374h-26.55h-3.945l22.458-80.176l18.34,7.642   c0.143,0.06,0.338,0.132,0.485,0.184c1.075,0.378,26.346,9.604,26.346,41.735v30.615H210.247z"/>
	<path style="fill:#202121;" d="M380.751,29.108h-67.057V8.444c0-4.459-3.613-8.072-8.072-8.072H130.506   c-4.459,0-8.072,3.613-8.072,8.072v107.931c0,4.459,3.613,8.072,8.072,8.072h36.39v37.533c0,3.37,2.093,6.386,5.251,7.563   c0.919,0.342,1.874,0.509,2.819,0.509c2.297,0,4.539-0.981,6.103-2.786l16.935-19.54c1.087,3.173,4.089,5.458,7.631,5.458h87.442   l37.111,42.82c1.564,1.805,3.805,2.786,6.103,2.786c0.945,0,1.9-0.166,2.819-0.509c3.158-1.179,5.251-4.193,5.251-7.563v-37.533   h36.391c4.459,0,8.073-3.614,8.073-8.072V37.181C388.824,32.722,385.21,29.108,380.751,29.108z M372.679,137.04h-36.391   c-4.459,0-8.072,3.613-8.072,8.072v23.966l-25.352-29.253c-1.534-1.768-3.76-2.786-6.101-2.786h-83.056V45.253h42.961   c4.459,0,8.072-3.613,8.072-8.072s-3.613-8.072-8.072-8.072h-51.033c-4.459,0-8.072,3.613-8.072,8.072v86.404l-14.522,16.756   v-23.966c0-4.458-3.613-8.072-8.072-8.072h-36.39V16.516h158.971v12.592h-13.976c-4.459,0-8.072,3.613-8.072,8.072   c0,4.459,3.613,8.072,8.072,8.072h89.105v91.786H372.679z"/>
</g>
<path style="fill:#694B4B;" d="M398.803,212.385c0,0-63.421,1.791-63.421,56.685v27.986c0,0,71.557-6.101,86.189-34.622  c0,0,8.978,33.187,41.942,34.622C463.516,297.056,475.493,212.385,398.803,212.385z"/>
<path style="fill:#563B3B;" d="M354.254,269.07c0-43.324,39.498-53.569,56.15-55.964c-3.626-0.463-7.477-0.721-11.6-0.721  c0,0-63.421,1.791-63.421,56.685v27.986c0,0,7.846-0.669,18.87-2.599V269.07z"/>
<g>
	<polygon style="fill:#EF4C35;" points="404.66,444.691 407.59,436.887 399.046,430.6 390.658,436.773 393.975,444.691  "/>
	<polygon style="fill:#EF4C35;" points="395.177,457.607 388.892,496.559 409.919,496.559 403.634,457.607  "/>
</g>
<g>
	<path style="fill:#FBCB99;" d="M340.12,326.491l2.524,1.72v-22.619l-2.524,1.72c-3.184,2.169-5.085,5.754-5.085,9.59   S336.936,324.322,340.12,326.491z"/>
	<path style="fill:#FBCB99;" d="M463.775,316.902c0-3.836-1.901-7.422-5.083-9.59l-2.524-1.72v22.618l2.524-1.72   C461.874,324.321,463.775,320.737,463.775,316.902z"/>
	<path style="fill:#FBCB99;" d="M394.484,371.805h9.845c21.462,0,38.922-17.461,38.922-38.923v-33.876l-0.996-0.413   c-11.411-4.742-18.275-14.435-22.026-21.731l-0.967-1.881l-1.56,1.428c-19.165,17.556-45.665,22.437-59.811,23.79   c-0.293,0.038-0.584,0.075-0.889,0.109l-1.444,0.153v32.422C355.56,354.343,373.02,371.805,394.484,371.805z"/>
	<path style="fill:#FBCB99;" d="M394.484,384.721c-3.02,0-6.107-0.28-9.175-0.831l-1.9-0.34v14.372l15.734,15.325l16.259-16.878   v-12.818l-1.9,0.34c-3.07,0.551-6.157,0.83-9.174,0.83H394.484z"/>
</g>
<g>
	<path style="fill:#EDBA89;" d="M369.552,332.88v-32.422l1.444-0.153c0.305-0.032,0.596-0.071,0.889-0.109   c12.266-1.173,33.817-5.005,51.823-17.446c-1.374-2.038-2.527-4.041-3.478-5.891l-0.967-1.881l-1.56,1.428   c-19.165,17.556-45.665,22.437-59.811,23.79c-0.293,0.038-0.584,0.075-0.889,0.109l-1.444,0.153v32.422   c0,21.462,17.461,38.923,38.924,38.923h9.845c0.696,0,1.386-0.02,2.074-0.057C385.899,370.666,369.552,353.647,369.552,332.88z"/>
	<path style="fill:#EDBA89;" d="M408.476,384.721h6.927v-1.17l-1.9,0.34c-2.369,0.425-4.748,0.685-7.098,0.782   C407.099,384.701,407.789,384.721,408.476,384.721z"/>
	<path style="fill:#EDBA89;" d="M397.402,397.921v-13.201h-2.918c-3.02,0-6.107-0.28-9.175-0.831l-1.9-0.34v14.372l15.734,15.325   l6.773-7.031L397.402,397.921z"/>
</g>
<g>
	<path style="fill:#324A5E;" d="M327.751,420.425c-0.127,0.054-0.257,0.102-0.414,0.156c-1.133,0.397-27.737,10.124-27.737,43.75   v32.767h25.293v-34.527c0-3.264,2.656-5.92,5.92-5.92c3.263,0,5.92,2.655,5.92,5.92v40.985h43.229l-30.472-92.188L327.751,420.425z   "/>
	<path style="fill:#324A5E;" d="M470.245,420.571c-0.131-0.044-0.262-0.093-0.393-0.147l-20.584-8.578l-23.882,85.251h35.488   v-34.527c0-3.264,2.655-5.92,5.92-5.92c3.263,0,5.92,2.655,5.92,5.92v34.527h25.294v-32.767   C498.008,430.295,470.521,420.664,470.245,420.571z"/>
</g>
<g>
	<path style="fill:#283D4C;" d="M337.55,420.581c0.156-0.054,0.287-0.102,0.414-0.156l11.137-4.64l-1.237-4.418l-21.739,9.058   c-0.127,0.054-0.257,0.102-0.414,0.156c-1.133,0.397-27.737,10.124-27.737,43.75v32.767h11.84v-32.768   C309.814,430.705,336.418,420.978,337.55,420.581z"/>
	<path style="fill:#283D4C;" d="M341.027,456.651c-3.263,0-5.92,2.655-5.92,5.92v34.527h11.84v-34.527   C346.947,459.305,344.29,456.651,341.027,456.651z"/>
</g>
<g>
	<path style="fill:#EFF2F9;" d="M386.838,421.544l-15.52-15.117c-1.042-1.014-1.744-2.243-2.119-3.548l-5.669,3.741l11.492,23.619   L386.838,421.544z"/>
	<path style="fill:#EFF2F9;" d="M381.341,452.141l-2.082-4.973l-2.471,1.819c-0.6,0.441-1.257,0.774-1.941,1.031l4.338,15.486   L381.341,452.141z"/>
	<path style="fill:#EFF2F9;" d="M419.656,465.689l4.324-15.435c-0.95-0.257-1.862-0.669-2.674-1.268l-2.144-1.578l-1.717,4.571   L419.656,465.689z"/>
	<path style="fill:#EFF2F9;" d="M427.675,404.572l-16.38,17.003l9.002,6.625c0.005,0.004,0.012,0.009,0.017,0.013l2.755,2.028   l11.492-23.619l-5.652-3.731C428.578,403.489,428.172,404.056,427.675,404.572z"/>
</g>
<path style="fill:#202121;" d="M474.99,407.406l-26.933-11.223l-18.123-11.96v-4.432c13.857-7.594,23.989-21.151,26.948-37.194  c12.168-2.222,21.423-12.893,21.423-25.694c0-6.711-2.544-12.837-6.717-17.47v-25.449c0-38.416-31.253-69.67-69.67-69.67h-5.135  c-38.413,0-69.667,31.253-69.667,69.67v25.571c-4.108,4.617-6.612,10.694-6.612,17.347c0,12.801,9.255,23.473,21.425,25.694  c2.959,16.042,13.091,29.599,26.949,37.194v3.959l-18.182,11.999c-0.238,0.074-0.474,0.156-0.708,0.254l-27.371,11.406  c-12.973,4.498-37.01,21.996-37.01,56.924v38.678c0,4.459,3.613,8.082,8.072,8.082h53.013c4.459,0,8.072-3.613,8.072-8.072  s-3.613-8.072-8.072-8.072h-7.808v-32.374c0-4.459-3.613-8.072-8.072-8.072c-4.459,0-8.072,3.613-8.072,8.072v32.374h-20.987  v-30.618c0-32.132,25.27-41.358,26.297-41.719c0.181-0.061,0.358-0.127,0.534-0.201l19.489-8.122l22.651,80.863  c-3.593,0.818-6.276,4.024-6.276,7.865c0,4.459,3.613,8.072,8.072,8.072h8.759c0.009,0,0.017,0.002,0.026,0.002  c0.011,0,0.02-0.002,0.031-0.002H417.5h0.022h0.034c0.011,0,0.02,0.002,0.031,0.002c0.009,0,0.017-0.002,0.026-0.002h14.56h71.756  c4.459,0,8.072-3.69,8.072-8.148v-38.61C512,429.401,487.962,411.903,474.99,407.406z M385.024,388.177c0-0.003,0-0.005,0-0.009  v-2.689c3.073,0.551,6.231,0.856,9.46,0.856h9.845c3.229,0,6.386-0.304,9.459-0.855v10.237l-14.682,15.24l-14.083-13.717v-9.064  H385.024z M421.305,448.987c0.813,0.598,1.723,1.01,2.675,1.268l-4.324,15.435l-2.212-13.709l1.717-4.571L421.305,448.987z   M376.787,448.987l2.471-1.819l2.083,4.973l-2.156,13.364l-4.338-15.486C375.53,449.76,376.187,449.429,376.787,448.987z   M395.049,443.076l-2.411-5.756l6.407-4.716l6.602,4.86l-2.107,5.613L395.049,443.076L395.049,443.076z M423.069,430.241  l-2.754-2.028c-0.005-0.004-0.012-0.009-0.017-0.013l-9.002-6.626l16.38-17.003c0.497-0.516,0.902-1.084,1.235-1.681l5.652,3.731  L423.069,430.241z M457.782,325.156v-16.51c2.64,1.799,4.377,4.827,4.377,8.257C462.161,320.329,460.422,323.358,457.782,325.156z   M396.783,220.457h5.135c29.514,0,53.525,24.012,53.525,53.525v14.567c-0.063-0.065-0.133-0.124-0.199-0.185  c-0.104-0.098-0.209-0.196-0.319-0.29c-0.086-0.073-0.177-0.142-0.266-0.212c-0.115-0.089-0.23-0.179-0.351-0.263  c-0.098-0.068-0.198-0.13-0.299-0.194c-0.117-0.074-0.235-0.149-0.357-0.216c-0.118-0.067-0.24-0.126-0.362-0.186  c-0.11-0.055-0.22-0.111-0.333-0.16c-0.145-0.065-0.295-0.119-0.445-0.175c-0.097-0.036-0.192-0.074-0.292-0.107  c-0.167-0.055-0.337-0.099-0.508-0.143c-0.072-0.018-0.141-0.044-0.215-0.06c-16.744-3.808-22.009-25.519-22.054-25.709  c-0.7-3.094-3.148-5.491-6.256-6.125c-3.11-0.637-6.3,0.606-8.159,3.177c-20.38,28.175-65.296,28.457-65.899,28.457h-0.003  c-0.01,0-0.02,0-0.029,0c-0.278,0-0.552,0.014-0.823,0.042c-0.085,0.009-0.168,0.027-0.252,0.039  c-0.184,0.025-0.368,0.047-0.548,0.084c-0.116,0.024-0.227,0.059-0.341,0.087c-0.144,0.037-0.29,0.067-0.431,0.111  c-0.131,0.041-0.257,0.094-0.385,0.14c-0.118,0.043-0.239,0.081-0.354,0.129c-0.147,0.062-0.287,0.136-0.431,0.207  c-0.09,0.045-0.185,0.084-0.274,0.132c-0.144,0.079-0.282,0.168-0.421,0.255c-0.081,0.051-0.165,0.095-0.243,0.147  c-0.131,0.088-0.253,0.186-0.379,0.282c-0.081,0.061-0.165,0.117-0.243,0.182c-0.113,0.094-0.217,0.196-0.326,0.295  c-0.082,0.075-0.169,0.146-0.248,0.225c-0.049,0.048-0.093,0.103-0.141,0.153v-14.685  C343.261,244.469,367.271,220.457,396.783,220.457z M336.65,316.902c0-3.429,1.738-6.458,4.379-8.257v16.512  C338.388,323.359,336.65,320.33,336.65,316.902z M357.174,332.88v-30.983c13.652-1.201,41.554-5.918,61.621-24.299  c4.15,8.076,11.278,17.677,22.843,22.483v32.798c0,20.572-16.737,37.309-37.308,37.309h-9.845  C373.911,370.19,357.174,353.453,357.174,332.88z M369.2,402.88c0.375,1.305,1.077,2.533,2.119,3.548l15.52,15.117l-11.815,8.696  l-11.492-23.619L369.2,402.88z M390.789,494.944l5.763-35.722h5.707l5.763,35.722H390.789z M495.855,494.944h-20.988v-32.374  c0-4.459-3.613-8.072-8.072-8.072c-4.459,0-8.072,3.613-8.072,8.072v32.374h-26.55h-3.946l22.458-80.176l18.34,7.642  c0.143,0.06,0.338,0.132,0.485,0.184c1.075,0.378,26.346,9.604,26.346,41.735V494.944z"/>
<g>
</g>
<g>
</g>
<g>
</g>
<g>
</g>
<g>
</g>
<g>
</g>
<g>
</g>
<g>
</g>
<g>
</g>
<g>
</g>
<g>
</g>
<g>
</g>
<g>
</g>
<g>
</g>
<g>
</g>
</svg>
