<?xml version="1.0" encoding="iso-8859-1"?>
<!-- Generator: Adobe Illustrator 19.0.0, SVG Export Plug-In . SVG Version: 6.00 Build 0)  -->
<svg xmlns="http://www.w3.org/2000/svg" xmlns:xlink="http://www.w3.org/1999/xlink" version="1.1" id="Layer_1" x="0px" y="0px" viewBox="0 0 511.997 511.997" style="enable-background:new 0 0 511.997 511.997;" xml:space="preserve">
<g>
	<path style="fill:#324A5E;" d="M377.435,361.12c-0.113-0.039-0.245-0.087-0.351-0.133l-39.322-16.386l-43.116,153.923h70.161   v-62.544c0-2.972,2.418-5.389,5.389-5.389s5.389,2.418,5.389,5.389v62.544h51.59v-59.589   C427.177,378.935,379.462,361.818,377.435,361.12z"/>
	<path style="fill:#324A5E;" d="M182.209,365.358l-6.039-21.562l-41.26,17.193c-0.115,0.049-0.234,0.093-0.371,0.139   c-2.03,0.698-49.715,17.812-49.715,77.807v59.589h51.588V435.98c0-2.972,2.418-5.389,5.389-5.389s5.389,2.418,5.389,5.389v70.089   h76.631L182.209,365.358L182.209,365.358z"/>
</g>
<g>
	<path style="fill:#283D4C;" d="M147.473,361.128c0.137-0.046,0.254-0.091,0.371-0.139l29.677-12.368l-1.352-4.827l-41.26,17.193   c-0.115,0.049-0.234,0.093-0.371,0.139c-2.03,0.698-49.715,17.812-49.715,77.807v59.589h12.935v-59.589   C97.759,378.942,145.445,361.828,147.473,361.128z"/>
	<path style="fill:#283D4C;" d="M154.737,430.591c-2.972,0-5.389,2.418-5.389,5.389v62.544h10.779v-62.544   C160.127,433.009,157.709,430.591,154.737,430.591z"/>
</g>
<path style="fill:#694B4B;" d="M257.078,13.474c-78.216,0-141.852,75.747-141.852,168.852c0,41.026,12.519,80.571,35.25,111.353  l1.241,1.68l1.937-0.784c11.545-4.668,24.649-8.518,38.95-11.44l5.192-1.061l-3.916-3.571  c-14.141-12.892-23.343-30.379-25.911-49.239l-0.292-2.146l-2.159-0.176c-18.388-1.496-32.792-17.126-32.792-35.582  c0-18.393,13.783-33.667,32.062-35.532l2.38-0.244l0.041-2.393c0.04-2.414,1.696-4.522,4.028-5.128  c0.497-0.129,50.033-13.331,81.98-46.122c1.103-1.134,2.674-1.736,4.276-1.613c1.597,0.123,3.047,0.944,3.991,2.271  c0.245,0.337,25.199,33.992,81.162,45.4c2.494,0.509,4.265,2.643,4.306,5.19l0.04,2.394l2.381,0.244  c18.275,1.867,32.055,17.142,32.055,35.531c0,18.456-14.403,34.085-32.791,35.582l-2.159,0.176l-0.293,2.147  c-2.568,18.857-11.768,36.342-25.907,49.235l-3.916,3.571l5.192,1.061c14.29,2.92,27.396,6.771,38.954,11.446l1.938,0.785  l1.241-1.682c22.725-30.789,35.241-70.335,35.241-111.355C398.932,89.22,335.295,13.474,257.078,13.474z"/>
<path style="fill:#563B3B;" d="M128.161,182.326c0-90.524,60.158-164.63,135.384-168.669c-2.144-0.115-4.299-0.183-6.467-0.183  c-78.216,0-141.852,75.747-141.852,168.852c0,41.026,12.519,80.571,35.25,111.353l1.241,1.68l1.937-0.784  c2.645-1.069,5.382-2.09,8.187-3.073C140.107,261.044,128.161,222.393,128.161,182.326z"/>
<path style="fill:#EDBA89;" d="M370.651,191.36c0-12.073-8.63-22.388-20.52-24.525l-3.171-0.569v50.186l3.171-0.569  C362.02,213.745,370.651,203.433,370.651,191.36z"/>
<path style="fill:#FBCB99;" d="M248.813,289.034h16.537c39.056,0,70.832-31.776,70.832-70.835v-60.554l-2.065-0.496  c-40.958-9.84-64.979-30.241-75.652-41.526l-1.813-1.915l-1.954,1.77c-27.01,24.46-61.333,37.02-74.838,41.285l-1.883,0.595V218.2  C177.977,257.257,209.754,289.034,248.813,289.034z M269.363,216.294c2.972,0,5.389,2.418,5.389,5.389s-2.418,5.389-5.389,5.389  H255.59c-2.972,0-5.389-2.418-5.389-5.389v-26.27c0-2.972,2.418-5.389,5.389-5.389s5.389,2.418,5.389,5.389v20.881H269.363z"/>
<g>
	<path style="fill:#EDBA89;" d="M190.911,218.2v-60.842l1.883-0.595c12.685-4.007,43.734-15.332,69.841-36.961   c-1.563-1.49-2.958-2.895-4.171-4.178l-1.813-1.915l-1.954,1.77c-27.01,24.46-61.333,37.02-74.838,41.285l-1.883,0.595v60.842   c0,39.057,31.776,70.835,70.836,70.835h12.935C222.689,289.034,190.911,257.257,190.911,218.2z"/>
	<path style="fill:#EDBA89;" d="M164.027,215.882l3.171,0.569v-50.186l-3.171,0.569c-11.89,2.136-20.521,12.451-20.521,24.525   C143.506,203.433,152.136,213.746,164.027,215.882z"/>
</g>
<path style="fill:#FBCB99;" d="M293.409,332.322c-2.398-0.604-4.072-2.754-4.072-5.227V296.29l-3.376,0.881  c-6.713,1.754-13.648,2.642-20.611,2.642h-16.537c-7.007,0-13.988-0.902-20.746-2.681l-3.381-0.889v30.853  c0,2.503-1.701,4.659-4.136,5.241l-34.111,8.163l5.619,20.057l0.908,0.552c5.081,3.095,18.949,10.741,37.942,14.905  c8.928,1.956,17.917,2.949,26.716,2.95h0.004c21.801,0,43.19-6.048,63.567-17.975l0.94-0.55l5.463-19.503L293.409,332.322z"/>
<g>
	<path style="fill:#EDBA89;" d="M289.337,299.055v-2.765l-3.376,0.881c-6.713,1.754-13.648,2.642-20.611,2.642h12.935   C281.986,299.813,285.68,299.554,289.337,299.055z"/>
	<path style="fill:#EDBA89;" d="M243.841,376.014c-18.992-4.164-32.861-11.81-37.942-14.905l-0.908-0.552l-5.619-20.057   l34.111-8.163c2.435-0.582,4.136-2.738,4.136-5.241v-28.061c-3.219-0.445-6.41-1.075-9.553-1.902l-3.381-0.889v30.852   c0,2.503-1.701,4.659-4.136,5.241l-34.111,8.163l5.619,20.057l0.908,0.552c5.081,3.095,18.949,10.741,37.942,14.905   c8.928,1.956,17.917,2.949,26.716,2.95h0.004c2.104,0,4.203-0.073,6.299-0.186C257.268,378.407,250.537,377.481,243.841,376.014z"/>
</g>
<path style="fill:#EFF2F9;" d="M257.261,392.351c-11.29,0-21.417-1.416-29.958-3.336c-10.677-2.398-19.805-5.741-26.976-8.925  l32.421,115.74h48.664l32.464-115.897C293.392,389.213,274.046,392.351,257.261,392.351z"/>
<path style="fill:#D2D2D7;" d="M200.327,380.09l32.421,115.74h12.935l-30.877-110.232  C209.373,383.852,204.508,381.947,200.327,380.09z"/>
<g>
	<path style="fill:#202121;" d="M411.412,367.23c-13.471-12.722-27.04-17.938-29.354-18.767l-46.173-19.241   c-0.369-0.154-0.747-0.28-1.134-0.377l-31.94-8.051v-27.098c0.468-0.233,0.93-0.473,1.394-0.715   c0.942,0.632,2.028,1.082,3.222,1.273c20.168,3.219,38.62,8.436,53.36,15.086c1.079,0.486,2.208,0.717,3.319,0.717   c2.826,0,5.522-1.503,6.992-4.058c0.32-0.296,0.627-0.612,0.903-0.969c26.056-33.611,40.405-77.188,40.405-122.705   c0-55.64-21.215-107.518-58.204-142.331c-0.004-0.004-0.01-0.008-0.014-0.012C326.786,14.2,292.3,0,257.078,0   c-85.646,0-155.325,81.792-155.325,182.326c0,46.52,14.908,90.806,41.976,124.7c0.055,0.069,0.119,0.128,0.176,0.196   c0.053,0.061,0.108,0.121,0.162,0.18c0.207,0.229,0.425,0.443,0.651,0.643c0.042,0.037,0.082,0.074,0.124,0.11   c0.869,0.734,1.863,1.258,2.916,1.568c0.024,0.008,0.047,0.013,0.071,0.019c0.341,0.097,0.684,0.172,1.034,0.223   c0.022,0.003,0.042,0.008,0.064,0.011c0.373,0.052,0.747,0.087,1.124,0.087c0.083,0,0.165-0.018,0.248-0.02   c0.273-0.009,0.545-0.03,0.819-0.068c0.155-0.021,0.309-0.043,0.463-0.073c0.316-0.061,0.632-0.138,0.944-0.238   c0.157-0.051,0.31-0.116,0.465-0.177c0.126-0.05,0.254-0.091,0.379-0.148c14.917-6.729,33.612-11.985,54.063-15.198   c1.026-0.162,1.973-0.515,2.819-1.01c0.319,0.165,0.638,0.331,0.959,0.493v27.091l-33.868,8.105c-0.419,0.1-0.83,0.234-1.228,0.4   l-46.173,19.241c-2.311,0.829-15.881,6.044-29.354,18.767c-13.338,12.596-29.237,35.26-29.237,71.705v64.976   c0,4.466,3.62,8.086,8.084,8.086h97.226c4.465,0,8.084-3.618,8.084-8.084c0-4.466-3.62-8.084-8.084-8.084h-26.775v-59.849   c0-4.466-3.62-8.084-8.084-8.084s-8.084,3.618-8.084,8.084v59.849H87.518v-56.894c0-58.096,45.969-74.594,47.898-75.258   c0.181-0.061,0.359-0.127,0.535-0.202l38.443-16.02l5.209,18.599c0.001,0.005,0.003,0.011,0.004,0.015l36.348,129.759h-16.001   c-4.465,0-8.084,3.618-8.084,8.084s3.62,8.084,8.084,8.084h26.63c0.009,0,0.017,0.002,0.027,0.002c0.011,0,0.022-0.002,0.031-0.002   h60.869c0.011,0,0.022,0.002,0.031,0.002c0.009,0,0.017-0.002,0.027-0.002h144.994c4.466,0,8.084-3.636,8.084-8.1v-64.964   C440.651,402.49,424.751,379.827,411.412,367.23z M180.671,218.2v-58.867c13.846-4.373,48.471-17.076,75.834-41.857   c10.485,11.086,35.033,32.217,76.98,42.294V218.2c0,37.572-30.566,68.14-68.137,68.14h-16.537   C211.239,286.339,180.671,255.772,180.671,218.2z M152.644,292.078c-22.428-30.37-34.722-69.083-34.722-109.751   c-0.001-91.621,62.425-166.158,139.156-166.158c31.545,0,61.297,12.311,86.041,35.601c33.756,31.771,53.117,79.357,53.117,130.556   c0,40.579-12.303,79.39-34.715,109.754c-11.67-4.721-25.046-8.651-39.425-11.588c14.259-13.003,24.034-30.828,26.762-50.864   c19.714-1.605,35.266-18.15,35.266-38.268c0-19.853-15.138-36.236-34.476-38.211c-0.063-3.784-2.742-7.028-6.464-7.787   c-55.071-11.226-79.296-44.036-79.518-44.342c-1.389-1.954-3.574-3.192-5.965-3.376c-2.39-0.175-4.741,0.701-6.413,2.419   c-31.428,32.257-80.245,45.268-80.729,45.394c-3.52,0.913-5.982,4.065-6.044,7.69c-19.342,1.973-34.483,18.358-34.483,38.212   c0,20.12,15.554,36.663,35.268,38.268c2.729,20.037,12.505,37.863,26.766,50.866C177.686,283.433,164.316,287.358,152.644,292.078z    M367.956,191.36c0,10.917-7.914,20.001-18.302,21.868v-43.741C360.042,171.355,367.956,180.441,367.956,191.36z M146.2,191.36   c0-10.92,7.915-20.007,18.304-21.874v43.742C154.114,211.364,146.2,202.277,146.2,191.36z M221.178,334.957   c3.638-0.871,6.202-4.122,6.202-7.862v-27.357c6.847,1.801,14.028,2.769,21.433,2.769h16.537c7.353,0,14.488-0.952,21.293-2.729   v27.317c0,3.705,2.517,6.934,6.108,7.838l31.505,7.941l-4.423,15.79c-28.116,16.455-57.824,21.409-88.349,14.718   c-18.511-4.057-31.974-11.441-37.116-14.574l-4.577-16.339L221.178,334.957z M200.328,380.09   c7.171,3.185,16.299,6.527,26.975,8.925c8.54,1.919,18.669,3.336,29.958,3.336c16.785,0,36.131-3.138,56.613-12.418L281.41,495.829   h-48.663L200.328,380.09z M424.482,495.829h-46.201v-59.849c0-4.466-3.618-8.084-8.084-8.084c-4.466,0-8.084,3.618-8.084,8.084   v59.849h-63.913l41.335-147.569l36.511,15.214c0.156,0.066,0.345,0.136,0.507,0.192c1.956,0.674,47.928,17.173,47.928,75.268   V495.829z"/>
	<path style="fill:#202121;" d="M255.59,229.768h13.771c4.466,0,8.084-3.618,8.084-8.084s-3.618-8.084-8.084-8.084h-5.687v-18.186   c0-4.466-3.618-8.084-8.084-8.084c-4.465,0-8.084,3.618-8.084,8.084v26.27C247.506,226.149,251.126,229.768,255.59,229.768z"/>
</g>
<g>
</g>
<g>
</g>
<g>
</g>
<g>
</g>
<g>
</g>
<g>
</g>
<g>
</g>
<g>
</g>
<g>
</g>
<g>
</g>
<g>
</g>
<g>
</g>
<g>
</g>
<g>
</g>
<g>
</g>
</svg>
