<?xml version="1.0" encoding="iso-8859-1"?>
<!-- Generator: Adobe Illustrator 19.0.0, SVG Export Plug-In . SVG Version: 6.00 Build 0)  -->
<svg xmlns="http://www.w3.org/2000/svg" xmlns:xlink="http://www.w3.org/1999/xlink" version="1.1" id="Layer_1" x="0px" y="0px" viewBox="0 0 512 512" style="enable-background:new 0 0 512 512;" xml:space="preserve">
<path style="fill:#FBCB99;" d="M443.664,146.509l-2.158-0.765v32.554l2.158-0.765c6.568-2.331,10.979-8.565,10.979-15.512  C454.643,155.074,450.23,148.841,443.664,146.509z"/>
<path style="fill:#EEF0F8;" d="M354.917,370.559c-0.736,0.091-1.496,0.085-2.265-0.038c-2.108-0.34-3.888-1.472-5.098-3.038  l-25.805-10.754l-21.956,45.128c-1.05,2.158-3.004,3.738-5.333,4.313c-0.64,0.157-1.289,0.235-1.936,0.235  c-1.707,0-3.39-0.541-4.791-1.574l-5.767-4.245l-3.816,10.163l9.761,69.135h12.754h38.261v-54.681c0-4.466,3.618-8.084,8.084-8.084  c4.466,0,8.084,3.618,8.084,8.084v54.681h33.537v-52.324C388.632,390.128,364.098,374.936,354.917,370.559z"/>
<path style="fill:#FBCB99;" d="M377.387,246.44h-12.508c-3.169,0-6.476-0.261-9.825-0.777l-1.053-0.162l-0.564,0.903  c-1.118,1.787-2.434,3.475-3.912,5.015l-0.451,0.476l-0.003,12.864l-0.035,0.882l21.802,21.236l22.353-23.203v-19.19l-1.965,0.433  C386.656,245.928,381.999,246.44,377.387,246.44z"/>
<path style="fill:#EDBA89;" d="M168.464,230.217c0,7.79,4.999,14.582,12.441,16.902l2.098,0.654v-35.114l-2.098,0.654  C173.463,215.636,168.464,222.428,168.464,230.217z"/>
<g>
	<path style="fill:#FBCB99;" d="M336.67,245.297l0.313-0.192l0.199-0.306c0.716-1.104,1.728-1.954,2.925-2.458l0.34-0.143   l0.245-0.276c2.874-3.249,4.456-7.405,4.456-11.705c0-7.789-4.999-14.581-12.439-16.901l-2.098-0.654v35.112l2.099-0.655   C334.051,246.698,335.385,246.086,336.67,245.297z"/>
	<path style="fill:#FBCB99;" d="M263.395,305.885c29.929,0,54.277-24.35,54.277-54.277V204.75l-1.053-0.391   c-16.85-6.274-26.477-20.837-31.587-31.949l-0.966-2.1l-1.642,1.628c-27.388,27.161-68.559,32.865-84.989,34.057l-1.5,0.109v45.505   c0,29.929,24.35,54.277,54.278,54.277h13.18V305.885z"/>
	<path style="fill:#FBCB99;" d="M263.395,318.82h-13.179c-5.007,0-10.062-0.577-15.023-1.714l-1.978-0.454v21.776   c0,0.07-0.005,0.139-0.011,0.208l-0.051,0.889l23.349,22.742l23.893-24.801v-20.815l-1.978,0.454   C273.457,318.244,268.403,318.82,263.395,318.82z"/>
	<path style="fill:#FBCB99;" d="M397.865,107.81l-0.966-2.061l-1.629,1.592c-13.336,13.035-31.463,22.392-53.88,27.815l-1.963,0.474   l0.892,1.812c6.085,12.34,9.169,25.588,9.169,39.379v32.143l0.43,0.465c5.263,5.685,8.161,13.068,8.161,20.789   c0,0.442-0.016,0.881-0.033,1.318l-0.063,1.516l1.509,0.158c1.897,0.198,3.659,0.294,5.386,0.294h12.508   c28.223,0,51.183-22.961,51.183-51.183v-44.227l-1.043-0.396C411.789,131.729,402.71,118.151,397.865,107.81z"/>
	<path style="fill:#FBCB99;" d="M162.553,249.714c-0.911-1.102-1.757-2.285-2.513-3.517l-0.576-0.938l-1.084,0.193   c-3.701,0.654-7.489,0.987-11.261,0.987h-12.508c-4.612,0-9.269-0.512-13.84-1.521l-1.965-0.433v19.19l22.354,23.203l21.796-21.232   l-0.033-15.482L162.553,249.714z"/>
</g>
<g>
	<path style="fill:#EDBA89;" d="M377.815,246.44h12.508c0.955,0,1.912-0.036,2.87-0.079v-1.876l-1.965,0.433   c-4.512,0.996-9.106,1.504-13.659,1.516C377.65,246.435,377.733,246.44,377.815,246.44z"/>
	<path style="fill:#EDBA89;" d="M361.972,265.641l0.035-0.882l0.003-12.864l0.451-0.476c1.467-1.531,2.775-3.207,3.888-4.98h-1.469   c-3.169,0-6.476-0.261-9.825-0.777l-1.053-0.162l-0.564,0.903c-1.118,1.787-2.434,3.475-3.912,5.015l-0.451,0.476l-0.003,12.864   l-0.035,0.882l21.802,21.236l6.263-6.5L361.972,265.641z"/>
	<path style="fill:#EDBA89;" d="M280.396,318.687v-2.034l-1.978,0.454c-4.962,1.137-10.015,1.714-15.023,1.714h12.935   C277.683,318.82,279.039,318.77,280.396,318.687z"/>
	<path style="fill:#EDBA89;" d="M246.089,339.527l0.051-0.889c0.004-0.069,0.011-0.138,0.011-0.208v-19.743   c-3.666-0.226-7.336-0.75-10.957-1.58l-1.978-0.454v21.776c0,0.07-0.005,0.139-0.011,0.208l-0.051,0.889l23.349,22.742l6.263-6.5   L246.089,339.527z"/>
	<path style="fill:#EDBA89;" d="M147.548,246.44h12.508c0.047,0,0.096-0.003,0.144-0.003c-0.051-0.081-0.109-0.157-0.158-0.239   l-0.576-0.938l-1.084,0.193c-3.623,0.641-7.33,0.968-11.023,0.982C147.422,246.434,147.484,246.44,147.548,246.44z"/>
	<path style="fill:#EDBA89;" d="M131.742,263.674V246.36c-3.667-0.167-7.345-0.642-10.97-1.442l-1.965-0.433v19.19l22.354,23.203   l6.672-6.5L131.742,263.674z"/>
</g>
<path style="fill:#FBCB99;" d="M177.576,129.198l-0.955-0.9c-5.223-4.926-9.678-11.204-13.244-18.659l-0.968-2.024l-1.615,1.559  c-24.738,23.903-61.3,29.063-75.871,30.171l-1.494,0.113v42.862c0,28.223,22.96,51.183,51.183,51.183h12.508  c2.263,0,4.632-0.168,7.043-0.5l1.444-0.306l-0.053-1.462c-0.013-0.338-0.025-0.677-0.025-1.019c0-7.563,2.793-14.832,7.865-20.468  l0.415-0.461v-32.467c0-16.434,4.523-32.515,13.081-46.503L177.576,129.198z"/>
<g>
	<path style="fill:#EDBA89;" d="M207.794,251.608v-45.505l1.5-0.109c15.172-1.101,51.435-6.064,78.467-28.205   c-1.02-1.845-1.935-3.656-2.727-5.379l-0.966-2.1l-1.642,1.628c-27.388,27.161-68.559,32.865-84.989,34.057l-1.5,0.109v45.505   c0,29.929,24.35,54.277,54.278,54.277h11.858C232.144,305.885,207.794,281.536,207.794,251.608z"/>
	<path style="fill:#EDBA89;" d="M369.841,233.051l0.063-1.516c0.018-0.437,0.033-0.876,0.033-1.318   c0-7.721-2.898-15.105-8.161-20.789l-0.43-0.465v-32.143c0-13.791-3.084-27.039-9.169-39.379l-0.892-1.812l1.963-0.474   c18.96-4.586,34.836-11.998,47.357-22.058c-1.029-1.816-1.948-3.597-2.739-5.287l-0.966-2.061l-1.629,1.592   c-13.336,13.035-31.463,22.392-53.88,27.815l-1.963,0.474l0.892,1.812c6.085,12.34,9.169,25.588,9.169,39.379v32.143l0.43,0.465   c5.263,5.685,8.161,13.068,8.161,20.789c0,0.442-0.016,0.881-0.033,1.318l-0.063,1.516l1.509,0.158   c1.897,0.198,3.659,0.294,5.386,0.294h11.857c-1.728,0-3.489-0.097-5.386-0.294L369.841,233.051z"/>
	<path style="fill:#EDBA89;" d="M95.286,182.322V139.46l1.494-0.113c13.337-1.014,45.091-5.434,69.344-24.503   c-0.966-1.665-1.884-3.398-2.748-5.204l-0.968-2.024l-1.615,1.559c-24.738,23.903-61.3,29.063-75.871,30.171l-1.494,0.113v42.862   c0,28.223,22.96,51.183,51.183,51.183h11.857C118.247,233.505,95.286,210.544,95.286,182.322z"/>
	<path style="fill:#EDBA89;" d="M57.357,162.021c0,6.947,4.413,13.179,10.981,15.512l2.157,0.765v-32.553l-2.157,0.765   C61.77,148.841,57.357,155.073,57.357,162.021z"/>
</g>
<g>
	<path style="fill:#694B4B;" d="M214.654,94.432c-0.176-0.382-0.307-0.744-0.401-1.108c-8.194-31.914-36.962-54.204-69.96-54.204   h-6.558c-39.825,0-72.225,32.4-72.225,72.225v22.401l1.964-0.431c0.619-0.136,1.241-0.261,1.873-0.358l1.078-0.165l0.251-1.061   c0.692-2.929,3.277-4.974,6.215-4.977l0.16,0.006c0.053,0,0.106-0.002,0.126-0.004c0.565,0,56.775-0.41,82.358-35.774   c1.466-2.028,4.074-3.052,6.536-2.545c2.483,0.508,4.451,2.434,5.013,4.916c0.032,0.139,3.347,14.076,13,24.137l1.212,1.262   l1.163-1.305c7.775-8.73,17.008-15.756,27.441-20.885l1.416-0.695L214.654,94.432z"/>
	<path style="fill:#694B4B;" d="M260.104,100.371h-6.909c-42.154,0-76.45,34.294-76.45,76.45v24.176l2.008-0.502   c0.99-0.247,2.004-0.445,3.017-0.592l1.137-0.238l0.231-1.11c0.012-0.057,0.028-0.112,0.043-0.166l0.072-0.28   c0.014-0.057,0.027-0.115,0.044-0.169l0.153-0.417c0.022-0.06,0.041-0.121,0.066-0.178l0.192-0.398   c0.026-0.057,0.052-0.113,0.078-0.161l0.226-0.371c0.033-0.057,0.066-0.113,0.098-0.161l0.254-0.34   c0.039-0.053,0.075-0.107,0.124-0.165l0.285-0.313c0.042-0.047,0.083-0.096,0.127-0.14l0.326-0.294   c0.045-0.042,0.089-0.084,0.136-0.123l0.357-0.265c0.046-0.036,0.093-0.072,0.146-0.109l0.38-0.231   c0.047-0.029,0.095-0.061,0.151-0.092l0.555-0.267c0.066-0.027,0.134-0.051,0.2-0.073l0.396-0.144   c0.106-0.032,0.215-0.057,0.404-0.102l0.219-0.058c0.157-0.031,0.318-0.052,0.489-0.072l0.153-0.025   c0.216-0.023,0.434-0.033,0.656-0.033h0.039c0.628,0,63.206-0.456,91.73-39.889c1.467-2.03,4.059-3.056,6.536-2.545   c2.485,0.508,4.451,2.434,5.012,4.917c0.074,0.32,7.744,31.978,32.812,37.684l0.155,0.044c0.134,0.034,0.266,0.068,0.399,0.112   l0.247,0.092c0.112,0.041,0.226,0.082,0.347,0.136c0.065,0.028,0.126,0.06,0.189,0.091l0.72-1.447l0,0l-0.582,1.514   c0.073,0.037,0.149,0.073,0.223,0.115c0.1,0.055,0.195,0.115,0.308,0.19c0.073,0.045,0.147,0.089,0.212,0.136   c0.102,0.071,0.198,0.147,0.36,0.273l0.129,0.102c0.096,0.081,0.188,0.167,0.331,0.303l0.126,0.122   c0.08,0.083,0.156,0.169,0.241,0.266c0.064,0.071,0.126,0.144,0.186,0.218c0.055,0.068,0.106,0.14,0.181,0.244   c0.065,0.088,0.128,0.177,0.189,0.269l0.142,0.234c0.06,0.101,0.119,0.203,0.177,0.313l0.12,0.252   c0.046,0.1,0.094,0.199,0.138,0.308c0.03,0.078,0.058,0.156,0.112,0.308c0.03,0.089,0.064,0.178,0.089,0.269   c0.031,0.107,0.057,0.216,0.109,0.427l0.246,1.271l1.146,0.164c0.886,0.128,1.803,0.304,2.723,0.523l1.992,0.474v-24.08   C336.553,134.666,302.258,100.371,260.104,100.371z"/>
	<path style="fill:#694B4B;" d="M374.264,39.119h-6.558c-32.998,0-61.767,22.29-69.96,54.205c-0.06,0.236-0.137,0.465-0.221,0.687   l-0.531,1.395l1.348,0.641c13.012,6.186,24.488,15.556,33.182,27.095l0.614,0.816l1.001-0.204   c19.165-3.918,45.291-13.121,60.913-34.719c1.468-2.03,4.066-3.054,6.536-2.545c2.485,0.508,4.451,2.434,5.013,4.918   c0.069,0.301,7.322,30.153,30.87,35.509c2.383,0.542,4.288,2.433,4.853,4.816l0.251,1.058l1.077,0.165   c0.633,0.097,1.254,0.222,1.871,0.358l1.964,0.431v-22.401C446.49,71.52,414.089,39.119,374.264,39.119z"/>
</g>
<g>
	<path style="fill:#563B3B;" d="M81.679,111.345c0-38.218,29.843-69.579,67.446-72.05c-1.6-0.107-3.209-0.176-4.831-0.176h-6.558   c-39.825,0-72.225,32.4-72.225,72.225v22.401l1.964-0.431c0.619-0.136,1.241-0.261,1.873-0.358l1.078-0.165l0.251-1.061   c0.692-2.929,3.277-4.974,6.215-4.977l0.16,0.006c0.053,0,0.106-0.002,0.126-0.004c0.094,0,1.731-0.013,4.502-0.194v-15.218H81.679   z"/>
	<path style="fill:#563B3B;" d="M192.913,176.821c0-40.599,31.815-73.894,71.819-76.297c-1.533-0.092-3.074-0.153-4.63-0.153h-6.909   c-42.154,0-76.45,34.294-76.45,76.45v24.176l2.008-0.502c0.99-0.247,2.004-0.445,3.017-0.592l1.137-0.238l0.231-1.11   c0.012-0.057,0.028-0.112,0.043-0.166l0.072-0.28c0.014-0.057,0.027-0.115,0.044-0.169l0.153-0.417   c0.022-0.06,0.041-0.121,0.066-0.178l0.192-0.398c0.026-0.057,0.052-0.113,0.078-0.161l0.226-0.371   c0.033-0.057,0.066-0.113,0.098-0.161l0.254-0.34c0.039-0.053,0.075-0.107,0.124-0.165l0.285-0.313   c0.042-0.047,0.083-0.096,0.127-0.14l0.326-0.294c0.045-0.042,0.089-0.084,0.136-0.123l0.357-0.265   c0.046-0.036,0.093-0.072,0.146-0.109l0.38-0.231c0.047-0.029,0.095-0.061,0.151-0.092l0.555-0.267   c0.066-0.027,0.134-0.051,0.2-0.073l0.396-0.144c0.106-0.032,0.215-0.057,0.404-0.102l0.219-0.058   c0.157-0.031,0.318-0.052,0.489-0.072l0.153-0.025c0.216-0.023,0.434-0.033,0.656-0.033h0.039c0.085,0,1.303-0.01,3.405-0.12   v-16.467H192.913z"/>
	<path style="fill:#563B3B;" d="M314.51,96.046l-1.348-0.641l0.531-1.395c0.084-0.222,0.161-0.451,0.221-0.687   c7.791-30.346,34.187-51.975,65.13-54.029c-1.582-0.105-3.172-0.176-4.779-0.176h-6.558c-32.998,0-61.767,22.29-69.96,54.205   c-0.06,0.236-0.137,0.465-0.221,0.687l-0.531,1.395l1.348,0.641c13.012,6.186,24.488,15.556,33.182,27.095l0.614,0.816l1.001-0.204   c3.941-0.805,8.178-1.84,12.555-3.154C337.271,110.226,326.553,101.772,314.51,96.046z"/>
</g>
<g>
	<path style="fill:#EF4C35;" d="M134.475,339.572l-5.309,32.905l2.589-2.472c6.586-6.221,13.23-10.198,17.646-12.441l0.701-0.356   l-2.846-17.637L134.475,339.572L134.475,339.572z"/>
	<polygon style="fill:#EF4C35;" points="129.029,314.021 133.361,325.559 148.562,325.559 153.448,313.897 141.324,304.975  "/>
	<polygon style="fill:#EF4C35;" points="378.637,325.559 382.971,314.021 370.676,304.975 358.552,313.896 363.439,325.559  "/>
	<path style="fill:#EF4C35;" d="M364.743,339.572l-2.847,17.637l0.701,0.356c4.416,2.243,11.061,6.222,17.642,12.437l2.593,2.476   l-5.309-32.905L364.743,339.572L364.743,339.572z"/>
	<polygon style="fill:#EF4C35;" points="264.973,402.913 269.73,390.245 256.324,380.378 243.088,390.12 248.446,402.913  "/>
	<polygon style="fill:#EF4C35;" points="249.751,416.926 240.81,472.34 272.8,472.34 263.861,416.926  "/>
</g>
<path style="fill:#202121;" d="M489.267,293.643c-10.329-9.754-20.803-13.858-22.836-14.596l-34.515-14.381l-24.173-15.952v-8.115  c18.054-9.442,31.203-27.016,34.54-47.837c15.168-2.018,26.911-15.029,26.911-30.74c0-8.063-3.094-15.415-8.154-20.937v-29.738  c0-47.849-38.928-86.777-86.777-86.777h-6.558c-39.393,0-73.759,26.453-83.854,64.416c-7.577-2.051-15.534-3.164-23.75-3.164h-6.909  c-8.653,0-17.017,1.24-24.952,3.506C218.262,51.18,183.803,24.57,144.29,24.57h-6.558c-47.849,0-86.777,38.928-86.777,86.777v29.739  c-5.06,5.522-8.154,12.874-8.154,20.937c0,15.711,11.743,28.724,26.911,30.74c3.337,20.821,16.486,38.395,34.54,47.837v8.115  l-24.169,15.95l-34.515,14.381c-2.033,0.737-12.506,4.842-22.836,14.596C12.362,303.435,0,321.043,0,349.311v49.134  c0,4.465,3.62,8.096,8.084,8.096h101.515c-1.506,6.279-2.4,13.263-2.4,21.021v51.772c0,4.466,3.62,8.097,8.084,8.097h96.051h21.249  h48.444h0.02h19.617h4.558c4.466,0,8.084-3.618,8.084-8.084c0-4.465-3.618-8.084-8.084-8.084h-4.558H287.91l-9.761-60.512  l3.816-10.163l5.767,4.245c1.402,1.033,3.084,1.574,4.791,1.574c0.647,0,1.296-0.078,1.936-0.235  c2.329-0.575,4.285-2.155,5.333-4.313l21.956-45.128l29.293,12.207c0.176,0.073,0.354,0.14,0.535,0.201  c0.371,0.124,37.055,12.978,37.055,58.423v43.701h-33.537v-46.056c0-4.466-3.618-8.084-8.084-8.084  c-4.466,0-8.084,3.618-8.084,8.084v46.056h-8.55c-4.466,0-8.084,3.62-8.084,8.084c0,4.466,3.618,8.084,8.084,8.084h66.341  c4.466,0,8.084-3.721,8.084-8.186V427.56c0-7.758-0.894-14.742-2.4-21.021h101.516c4.466,0,8.084-3.716,8.084-8.18v-49.05  C512,321.043,499.638,303.435,489.267,293.643z M377.892,324.481h-13.736l-4.281-10.22l10.802-7.949l10.999,8.094L377.892,324.481z   M320.643,338.754l-25.671-16.939c-0.009-0.005-0.017-0.01-0.025-0.015v-9.051c7.748-4.015,14.637-9.455,20.323-15.979  l13.781,28.326c1.05,2.158,3.004,3.738,5.333,4.313c0.64,0.157,1.289,0.235,1.936,0.235c1.707,0,3.389-0.541,4.791-1.574  l5.363-3.946l3.953,9.436l-2.662,16.497L320.643,338.754z M223.148,386.058l-17.854-36.702l13.616-8.984  c-0.665,2.695,0.068,5.658,2.199,7.734l23.072,22.473L223.148,386.058z M192.748,338.263c-0.351,0.093-0.701,0.202-1.044,0.346  l-27.469,11.447l-2.662-16.498l3.953-9.435l5.363,3.946c1.402,1.033,3.085,1.574,4.792,1.574c0.646,0,1.296-0.078,1.935-0.235  c2.33-0.575,4.285-2.155,5.333-4.313l14.36-29.518c5.875,7.057,13.136,12.911,21.356,17.17v8.414L192.748,338.263z M339.345,309.296  l-13.746-28.254c1.556-3.276,2.851-6.697,3.879-10.231l5.111-3.373c-0.29,2.414,0.5,4.93,2.377,6.758l21.548,20.991L339.345,309.296  z M343.528,230.217c0,4.079-1.538,7.796-4.05,10.635c-1.507,0.633-2.777,1.712-3.655,3.068c-1.12,0.688-2.321,1.257-3.599,1.656  v-30.717C338.766,216.899,343.528,223.013,343.528,230.217z M316.057,251.608c0,29.037-23.623,52.661-52.662,52.661h-13.179  c-29.037,0-52.663-23.623-52.663-52.661v-44.001c17.342-1.258,58.366-7.107,86.011-34.521c5.193,11.294,15.083,26.304,32.492,32.786  v45.735H316.057z M181.386,245.576c-6.542-2.039-11.305-8.153-11.305-15.359s4.762-13.32,11.305-15.359V245.576z M175.033,274.196  c1.877-1.827,2.666-4.344,2.377-6.758l7.1,4.685c0.772,2.466,1.692,4.865,2.726,7.204l-14.58,29.97l-19.17-14.109L175.033,274.196z   M141.324,306.312l10.803,7.951l-4.281,10.22h-13.737l-3.783-10.075L141.324,306.312z M135.393,340.65h10.946l2.574,15.954  c-4.666,2.37-11.301,6.389-17.897,12.617c-0.091,0.086-0.183,0.177-0.275,0.264L135.393,340.65z M256.467,359.976l-21.657-21.093  c0.009-0.151,0.023-0.301,0.023-0.454v-12.828c0-0.007,0-0.013,0-0.021v-6.899c4.95,1.135,10.094,1.755,15.384,1.755h13.179  c5.289,0,10.433-0.62,15.384-1.755v18.132L256.467,359.976z M382.954,295.274l22.527-23.384c1.089-1.13,1.774-2.496,2.077-3.927  l11.02,7.273l-16.57,34.06L382.954,295.274z M391.575,263.021l-20.773,21.563l-20.123-19.603c0.003-0.088,0.013-0.176,0.013-0.265  v-12.171c0-0.003,0-0.005,0-0.009l0,0c1.546-1.609,2.928-3.376,4.115-5.277c3.325,0.512,6.693,0.795,10.072,0.795h12.507  c4.872,0,9.616-0.549,14.188-1.56v16.525H391.575z M426.954,182.321c0,27.331-22.236,49.566-49.566,49.566h-12.507  c-1.747,0-3.488-0.105-5.218-0.286c0.019-0.459,0.036-0.921,0.036-1.385c0-8.442-3.264-16.133-8.592-21.888v-31.509  c0-14.382-3.367-27.99-9.335-40.093c17.73-4.288,38.532-12.495,54.63-28.23c4.999,10.668,14.336,24.563,30.553,30.714v43.111  H426.954z M443.122,176.008v-27.975c5.76,2.045,9.904,7.535,9.904,13.988S448.883,173.964,443.122,176.008z M299.313,93.726  c8.01-31.2,36.134-52.989,68.393-52.989h6.558c38.934,0,70.609,31.675,70.609,70.609v20.391c-0.651-0.144-1.307-0.275-1.974-0.377  c-0.698-2.947-3.012-5.324-6.067-6.019c-22.631-5.148-29.591-34.031-29.655-34.301c-0.701-3.098-3.153-5.497-6.265-6.134  c-3.113-0.635-6.308,0.609-8.17,3.183c-15.157,20.956-40.43,30.097-59.927,34.082c-8.825-11.711-20.41-21.227-33.779-27.582  C299.142,94.308,299.237,94.022,299.313,93.726z M260.104,101.988c41.263,0,74.834,33.57,74.834,74.833v22.033  c-0.941-0.225-1.896-0.411-2.867-0.551c-0.021-0.106-0.05-0.208-0.074-0.313c-0.032-0.136-0.065-0.272-0.105-0.405  c-0.039-0.133-0.085-0.261-0.13-0.39c-0.04-0.113-0.079-0.227-0.124-0.34c-0.055-0.137-0.116-0.269-0.179-0.402  c-0.047-0.102-0.095-0.204-0.147-0.304c-0.067-0.129-0.14-0.254-0.215-0.379c-0.059-0.1-0.117-0.2-0.181-0.298  c-0.074-0.114-0.153-0.224-0.233-0.334c-0.074-0.103-0.149-0.206-0.229-0.306c-0.077-0.096-0.158-0.189-0.239-0.281  c-0.093-0.106-0.184-0.21-0.282-0.31c-0.079-0.081-0.161-0.157-0.241-0.234c-0.108-0.102-0.217-0.204-0.331-0.301  c-0.083-0.07-0.169-0.136-0.255-0.204c-0.119-0.093-0.237-0.184-0.361-0.269c-0.095-0.066-0.194-0.127-0.292-0.19  c-0.12-0.075-0.239-0.151-0.363-0.221c-0.117-0.066-0.238-0.125-0.359-0.184c-0.111-0.055-0.221-0.111-0.334-0.162  c-0.147-0.065-0.297-0.121-0.448-0.177c-0.096-0.036-0.19-0.073-0.287-0.105c-0.17-0.056-0.345-0.101-0.521-0.147  c-0.069-0.017-0.135-0.042-0.206-0.058c-24.118-5.488-31.506-36.18-31.573-36.468c-0.701-3.098-3.153-5.498-6.264-6.134  c-3.111-0.639-6.309,0.608-8.17,3.182c-28.096,38.842-89.49,39.219-90.419,39.219c-0.017,0-0.026,0-0.039,0  c-0.278,0-0.553,0.014-0.825,0.042c-0.075,0.008-0.148,0.024-0.223,0.033c-0.194,0.025-0.389,0.05-0.579,0.088  c-0.085,0.017-0.167,0.044-0.251,0.065c-0.176,0.042-0.351,0.081-0.523,0.135c-0.1,0.031-0.196,0.072-0.295,0.108  c-0.149,0.053-0.301,0.101-0.445,0.163c-0.12,0.051-0.233,0.112-0.349,0.167c-0.119,0.057-0.24,0.109-0.356,0.171  c-0.119,0.065-0.231,0.139-0.345,0.209c-0.107,0.065-0.217,0.125-0.321,0.195c-0.113,0.077-0.219,0.162-0.327,0.244  c-0.098,0.073-0.199,0.142-0.294,0.22c-0.103,0.085-0.198,0.179-0.298,0.268c-0.093,0.084-0.189,0.164-0.277,0.252  c-0.092,0.092-0.175,0.191-0.262,0.287c-0.087,0.095-0.178,0.186-0.26,0.286c-0.081,0.098-0.153,0.203-0.23,0.304  c-0.079,0.106-0.163,0.207-0.237,0.317c-0.072,0.106-0.134,0.219-0.201,0.328c-0.068,0.112-0.141,0.221-0.205,0.336  c-0.061,0.113-0.113,0.233-0.17,0.349c-0.057,0.119-0.12,0.234-0.171,0.356c-0.05,0.117-0.088,0.239-0.133,0.359  c-0.047,0.127-0.099,0.252-0.14,0.383c-0.039,0.123-0.066,0.25-0.098,0.375c-0.035,0.133-0.074,0.263-0.102,0.398  c-0.005,0.025-0.009,0.051-0.013,0.075c-1.078,0.155-2.139,0.363-3.18,0.623v-22.104c0-41.263,33.57-74.833,74.833-74.833h6.91  V101.988z M137.736,40.736h6.558c32.259,0,60.384,21.79,68.394,52.989c0.125,0.485,0.296,0.945,0.499,1.384  c-10.646,5.234-20.122,12.488-27.935,21.26c-9.317-9.712-12.563-23.254-12.592-23.385c-0.702-3.098-3.153-5.498-6.265-6.134  c-3.111-0.635-6.308,0.608-8.17,3.182c-25.147,34.763-80.24,35.105-81.047,35.105h-0.001c-0.012,0-0.023,0-0.036,0  c-0.03,0-0.059,0.004-0.089,0.004s-0.059-0.004-0.089-0.004c-3.822,0-7.017,2.656-7.86,6.219c-0.666,0.102-1.324,0.233-1.975,0.377  v-20.391C67.127,72.411,98.802,40.736,137.736,40.736z M58.974,162.021c0-6.453,4.143-11.943,9.904-13.988v27.975  C63.117,173.964,58.974,168.474,58.974,162.021z M85.046,182.321v-41.363c15.904-1.21,52.027-6.614,76.872-30.622  c2.907,6.08,7.275,13.179,13.593,19.137c-8.444,13.802-13.318,30.015-13.318,47.347v31.847c-5.144,5.716-8.28,13.272-8.28,21.549  c0,0.398,0.016,0.791,0.03,1.186c-2.255,0.309-4.535,0.485-6.823,0.485h-12.507C107.282,231.888,85.046,209.652,85.046,182.321z   M134.613,248.056h12.507c3.877,0,7.745-0.34,11.542-1.012c0.797,1.297,1.679,2.534,2.645,3.7v1.783c0,0.009,0,0.017,0,0.026v12.164  c0,0.089,0.011,0.176,0.013,0.265l-20.123,19.603l-20.773-21.563v-16.524C124.997,247.508,129.741,248.056,134.613,248.056z   M104.44,267.963c0.303,1.43,0.988,2.796,2.077,3.927l22.527,23.384l-19.054,14.022l-16.57-34.06L104.44,267.963z M16.168,349.311  c0-42.456,33.499-54.575,34.887-55.057c0.18-0.061,0.359-0.127,0.535-0.202l27.441-11.433l20.665,42.477  c1.05,2.158,3.004,3.738,5.333,4.313c0.64,0.157,1.289,0.235,1.935,0.235c1.708,0,3.39-0.541,4.792-1.574l5.035-3.706l3.392,9.034  l-9.191,56.974H63.339v-43.297c0-4.465-3.62-8.084-8.084-8.084s-8.084,3.62-8.084,8.084v43.297H16.168V349.311z M173.073,471.263  v-46.056c0-4.466-3.62-8.084-8.084-8.084c-4.465,0-8.084,3.618-8.084,8.084v46.056h-33.538v-43.701  c0-45.061,35.577-57.911,37.056-58.423c0.18-0.061,0.359-0.127,0.535-0.201l29.833-12.432l22.063,45.353  c1.05,2.158,3.004,3.738,5.333,4.313c0.64,0.157,1.289,0.235,1.935,0.235c1.707,0,3.39-0.541,4.792-1.574l6.094-4.485l4.426,10.566  l-9.737,60.35h-14.364h-38.261V471.263z M242.077,471.263l8.593-53.259h12.274l8.592,53.259H242.077z M264.228,401.835h-15.064  l-4.754-11.351l11.914-8.769l12.111,8.913L264.228,401.835z M289.5,386.058l-6.37-4.689c-0.017-0.014-0.036-0.026-0.053-0.039  l-14.471-10.651l24.08-24.996c1.25-1.298,1.971-2.906,2.186-4.565l12.484,8.238L289.5,386.058z M363.087,356.604l2.574-15.954  h10.946l4.651,28.836c-0.092-0.087-0.183-0.178-0.275-0.264C374.387,362.992,367.753,358.975,363.087,356.604z M495.832,390.372  h-31.005v-43.297c0-4.465-3.618-8.084-8.084-8.084c-4.465,0-8.084,3.62-8.084,8.084v43.297h-47.654l-9.191-56.974l3.392-9.034  l5.035,3.706c1.402,1.033,3.084,1.574,4.791,1.574c0.647,0,1.296-0.078,1.936-0.235c2.329-0.575,4.285-2.155,5.333-4.313  l20.665-42.477l27.441,11.433c0.176,0.073,0.355,0.14,0.535,0.202c0.348,0.116,34.887,12.217,34.887,55.057v41.061H495.832z"/>
<g>
	<path style="fill:#EEF0F8;" d="M172.655,309.296l14.58-29.971c-1.034-2.338-1.954-4.736-2.726-7.204l-7.1-4.685   c0.289,2.413-0.5,4.93-2.377,6.758l-21.548,20.991L172.655,309.296z"/>
	<path style="fill:#EEF0F8;" d="M244.18,370.579l-23.071-22.473c-2.131-2.076-2.864-5.04-2.199-7.734l-13.615,8.984l17.855,36.702   L244.18,370.579z"/>
	<path style="fill:#EEF0F8;" d="M418.58,275.237l-11.02-7.273c-0.303,1.429-0.99,2.797-2.078,3.927l-22.527,23.384l19.055,14.022   L418.58,275.237z"/>
	<path style="fill:#EEF0F8;" d="M307.356,349.356l-12.484-8.238c-0.215,1.659-0.936,3.267-2.186,4.565l-24.08,24.996l14.471,10.651   c0.018,0.014,0.037,0.027,0.054,0.04l6.37,4.689L307.356,349.356z"/>
	<path style="fill:#EEF0F8;" d="M346.474,324.123l-5.363,3.946c-1.402,1.033-3.084,1.574-4.791,1.574   c-0.647,0-1.296-0.078-1.936-0.235c-2.329-0.575-4.285-2.155-5.333-4.313L315.27,296.77c-5.686,6.523-12.575,11.964-20.324,15.979   v9.05c0.009,0.005,0.017,0.01,0.025,0.015l25.671,16.939l27.122,11.303l2.661-16.497L346.474,324.123z"/>
</g>
<g>
	<path style="fill:#BFC6D5;" d="M345.165,329.408c0.64,0.157,1.289,0.235,1.936,0.235c0.543,0,1.08-0.074,1.61-0.182l-2.236-5.338   l-4.728,3.479C342.716,328.461,343.879,329.093,345.165,329.408z"/>
	<path style="fill:#BFC6D5;" d="M331.423,338.753l-25.671-16.939c-0.009-0.005-0.017-0.01-0.025-0.015v-9.05   c4.69-2.431,9.058-5.391,13.043-8.789l-3.498-7.19c-5.686,6.523-12.575,11.964-20.324,15.979v9.05   c0.009,0.005,0.017,0.01,0.025,0.015l25.671,16.939l27.122,11.303l0.679-4.209L331.423,338.753z"/>
</g>
<g>
	<path style="fill:#EEF0F8;" d="M218.664,312.748c-8.219-4.259-15.481-10.114-21.356-17.171l-14.36,29.518   c-1.05,2.158-3.004,3.738-5.333,4.313c-0.639,0.157-1.289,0.235-1.935,0.235c-1.708,0-3.39-0.541-4.792-1.574l-5.363-3.946   l-3.953,9.435l2.662,16.498l27.469-11.447c0.345-0.144,0.694-0.252,1.046-0.346l25.915-17.1L218.664,312.748L218.664,312.748z"/>
	<path style="fill:#EEF0F8;" d="M336.967,274.196c-1.876-1.827-2.667-4.344-2.377-6.758l-5.111,3.373   c-1.028,3.534-2.323,6.956-3.88,10.231l13.746,28.254l19.17-14.109L336.967,274.196z"/>
	<path style="fill:#EEF0F8;" d="M129.046,295.274l-22.528-23.384c-1.089-1.131-1.774-2.496-2.077-3.927l-11.021,7.273l16.572,34.06   L129.046,295.274z"/>
	<path style="fill:#EEF0F8;" d="M47.173,347.075c0-4.466,3.62-8.084,8.084-8.084s8.084,3.618,8.084,8.084v43.297h47.653   l9.191-56.973l-3.392-9.034l-5.035,3.706c-1.402,1.033-3.084,1.574-4.792,1.574c-0.646,0-1.296-0.078-1.935-0.235   c-2.329-0.574-4.284-2.155-5.333-4.313l-20.666-42.478L51.59,294.052c-0.176,0.073-0.355,0.14-0.535,0.201   c-1.388,0.484-34.887,12.603-34.887,55.058v41.061h31.005V347.075z"/>
	<path style="fill:#EEF0F8;" d="M235.436,410.912l-4.425-10.566l-6.094,4.485c-1.402,1.033-3.085,1.574-4.792,1.574   c-0.646,0-1.296-0.078-1.935-0.235c-2.33-0.575-4.285-2.155-5.333-4.313l-22.063-45.353l-26.345,10.978   c-1.212,1.565-2.99,2.698-5.098,3.038c-0.771,0.123-1.531,0.127-2.268,0.038c-9.147,4.358-33.712,19.548-33.712,57.002v43.701   h33.538v-46.057c0-4.466,3.62-8.084,8.084-8.084c4.465,0,8.084,3.618,8.084,8.084v46.057h38.261H225.7L235.436,410.912z"/>
</g>
<g>
	<path style="fill:#BFC6D5;" d="M114.731,329.408c0.64,0.157,1.289,0.235,1.935,0.235c0.679,0,1.35-0.11,2.004-0.278l-1.878-5.001   l-4.967,3.656C112.684,328.664,113.665,329.145,114.731,329.408z"/>
	<path style="fill:#BFC6D5;" d="M60.757,294.254c0.18-0.061,0.359-0.127,0.535-0.201l19.375-8.072l-1.635-3.361L51.59,294.053   c-0.176,0.073-0.355,0.14-0.535,0.201c-1.388,0.483-34.887,12.602-34.887,55.057v41.061h9.701v-41.061   C25.869,306.856,59.368,294.737,60.757,294.254z"/>
	<path style="fill:#BFC6D5;" d="M64.958,338.991c-1.823,0-3.499,0.61-4.851,1.628c1.961,1.476,3.234,3.815,3.234,6.457v43.297h9.701   v-43.297C73.042,342.61,69.423,338.991,64.958,338.991z"/>
	<path style="fill:#BFC6D5;" d="M227.888,406.171c0.64,0.157,1.289,0.235,1.935,0.235c1.176,0,2.333-0.274,3.401-0.771l-2.215-5.288   l-6.028,4.436C225.84,405.426,226.822,405.908,227.888,406.171z"/>
	<path style="fill:#BFC6D5;" d="M166.782,370.559c0.737,0.089,1.497,0.085,2.268-0.038c2.108-0.34,3.888-1.472,5.098-3.038   l18.279-7.617l-1.635-3.361l-26.345,10.978c-1.212,1.565-2.99,2.698-5.098,3.038c-0.771,0.123-1.531,0.127-2.268,0.038   c-9.147,4.358-33.712,19.548-33.712,57.002v43.701h9.701v-43.701C133.069,390.107,157.633,374.917,166.782,370.559z"/>
	<path style="fill:#BFC6D5;" d="M174.69,417.122c-1.823,0-3.499,0.61-4.851,1.628c1.961,1.476,3.234,3.815,3.234,6.457v46.057h9.701   v-46.057C182.774,420.741,179.155,417.122,174.69,417.122z"/>
</g>
<path style="fill:#EEF0F8;" d="M460.944,294.254c-0.18-0.061-0.359-0.127-0.535-0.201l-27.441-11.433l-20.665,42.477  c-1.05,2.158-3.004,3.738-5.333,4.313c-0.64,0.157-1.289,0.235-1.936,0.235c-1.707,0-3.39-0.541-4.791-1.574l-5.036-3.706  l-3.391,9.034l9.19,56.973h47.654v-43.297c0-4.466,3.618-8.084,8.084-8.084s8.084,3.618,8.084,8.084v43.297h31.003v-41.061  C495.832,306.471,461.293,294.371,460.944,294.254z"/>
<g>
</g>
<g>
</g>
<g>
</g>
<g>
</g>
<g>
</g>
<g>
</g>
<g>
</g>
<g>
</g>
<g>
</g>
<g>
</g>
<g>
</g>
<g>
</g>
<g>
</g>
<g>
</g>
<g>
</g>
</svg>
