<?xml version="1.0" encoding="iso-8859-1"?>
<!-- Generator: Adobe Illustrator 19.0.0, SVG Export Plug-In . SVG Version: 6.00 Build 0)  -->
<svg version="1.1" id="Layer_1" xmlns="http://www.w3.org/2000/svg" xmlns:xlink="http://www.w3.org/1999/xlink" x="0px" y="0px"
	 viewBox="0 0 512 512" style="enable-background:new 0 0 512 512;" xml:space="preserve">
<path style="fill:#FD6568;" d="M323.023,382.511v101.007c0,10.756-8.727,19.484-19.484,19.484H131.837
	c-10.768,0-19.496-8.727-19.496-19.484V86.609c0-10.756,8.727-19.484,19.496-19.484h171.702c10.756,0,19.484,8.727,19.484,19.484
	v53.12v41.704V382.511z"/>
<polygon style="fill:#F8DF70;" points="290.778,382.643 290.778,470.757 144.586,470.757 144.586,144.783 290.778,144.783 
	290.778,181.301 "/>
<rect x="166.108" y="9.008" style="fill:#E04F56;" width="103.156" height="58.114"/>
<path d="M322.629,373.503c-4.974,0-9.003,4.031-9.003,9.003v101.007c0,5.779-4.701,10.48-10.48,10.48H131.443
	c-5.785,0-10.492-4.701-10.492-10.48V86.604c0-5.779,4.706-10.48,10.492-10.48h171.702c5.779,0,10.48,4.701,10.48,10.48v94.825
	c0,4.972,4.03,9.003,9.003,9.003c4.974,0,9.003-4.031,9.003-9.003V86.604c0-15.708-12.78-28.487-28.487-28.487h-25.275V9.003
	c0-4.972-4.03-9.003-9.003-9.003H165.71c-4.972,0-9.003,4.031-9.003,9.003v49.113h-25.264c-15.714,0-28.499,12.779-28.499,28.487
	v396.909c0,15.708,12.784,28.487,28.499,28.487h171.702c15.708,0,28.487-12.779,28.487-28.487V382.506
	C331.632,377.534,327.601,373.503,322.629,373.503z M174.714,18.007h85.15v40.11h-85.15V18.007z"/>
<path d="M290.383,190.3c4.974,0,9.003-4.031,9.003-9.003v-36.518c0-4.972-4.03-9.003-9.003-9.003H144.191
	c-4.972,0-9.003,4.031-9.003,9.003v325.974c0,4.972,4.031,9.003,9.003,9.003h146.192c4.974,0,9.003-4.031,9.003-9.003v-88.114
	c0-4.972-4.03-9.003-9.003-9.003c-4.974,0-9.003,4.031-9.003,9.003v79.111H153.194V153.782H281.38v27.515
	C281.38,186.269,285.411,190.3,290.383,190.3z"/>
<path d="M405.083,243.782c-4.127-2.779-9.72-1.688-12.498,2.436l-8.73,12.955c-9.874-33.612-40.977-58.232-77.741-58.232
	c-44.679,0-81.028,36.349-81.028,81.028s36.349,81.028,81.028,81.028c23.596,0,45.972-10.258,61.392-28.142
	c3.246-3.766,2.826-9.451-0.94-12.698c-3.766-3.245-9.45-2.827-12.699,0.941c-11.995,13.913-29.399,21.893-47.752,21.893
	c-34.75,0-63.021-28.271-63.021-63.021s28.271-63.021,63.021-63.021c28.992,0,53.459,19.685,60.776,46.387l-16.243-10.945
	c-4.124-2.779-9.719-1.687-12.497,2.436c-2.778,4.124-1.688,9.719,2.436,12.498l32.522,21.912c1.543,1.04,3.292,1.538,5.023,1.538
	c2.894,0,5.736-1.393,7.475-3.974l21.913-32.522C410.296,252.156,409.206,246.561,405.083,243.782z"/>
<g>
</g>
<g>
</g>
<g>
</g>
<g>
</g>
<g>
</g>
<g>
</g>
<g>
</g>
<g>
</g>
<g>
</g>
<g>
</g>
<g>
</g>
<g>
</g>
<g>
</g>
<g>
</g>
<g>
</g>
</svg>
