<?xml version="1.0" encoding="iso-8859-1"?>
<!-- Generator: Adobe Illustrator 19.0.0, SVG Export Plug-In . SVG Version: 6.00 Build 0)  -->
<svg version="1.1" id="Layer_1" xmlns="http://www.w3.org/2000/svg" xmlns:xlink="http://www.w3.org/1999/xlink" x="0px" y="0px"
	 viewBox="0 0 512 512" style="enable-background:new 0 0 512 512;" xml:space="preserve">
<path style="fill:#80D2EE;" d="M467.521,417.667c19.332,19.332,19.332,50.685,0,70.017c-9.659,9.672-22.337,14.502-35.015,14.502
	c-12.665,0-25.329-4.83-35.002-14.502c-19.345-19.332-19.345-50.685,0-70.017l35.002-35.015L467.521,417.667z"/>
<path style="fill:#FD6568;" d="M158.674,15.377c3.412,3.412,5.525,8.124,5.525,13.334c0,10.42-8.452,18.872-18.872,18.872H36.936
	c-5.21,0-9.935-2.113-13.347-5.525s-5.525-8.137-5.525-13.347c0-10.42,8.452-18.859,18.872-18.859h108.391
	C150.537,9.852,155.248,11.965,158.674,15.377z"/>
<polygon style="fill:#B3B3B3;" points="130.654,254.116 130.654,279.563 51.608,279.563 51.608,92.704 130.654,92.704 
	130.654,124.753 "/>
<path style="fill:#E6E6E6;" d="M494.792,249.457v78.928H365.429V280.81c0-14.738-11.943-26.694-26.681-26.694H130.654V124.753
	h239.434C438.963,124.753,494.792,180.595,494.792,249.457z"/>
<path d="M369.66,114.908H140.072V92.7c0-5.436-4.407-9.843-9.843-9.843h-29.685v-25.44h44.359c15.83,0,28.709-12.879,28.709-28.709
	S160.732,0,144.903,0H36.5C20.67,0,7.791,12.879,7.791,28.709S20.67,57.417,36.5,57.417h44.358v25.44H51.172
	c-5.436,0-9.843,4.407-9.843,9.843V279.56c0,5.436,4.407,9.843,9.843,9.843h79.056c5.436,0,9.843-4.407,9.843-9.843v-15.602h198.246
	c9.285,0,16.841,7.556,16.841,16.842v47.581c0,5.436,4.406,9.843,9.843,9.843h129.365c5.437,0,9.843-4.407,9.843-9.843v-78.925
	C504.209,175.266,443.852,114.908,369.66,114.908z M27.477,28.709c0-4.975,4.047-9.023,9.023-9.023h108.403
	c4.975,0,9.023,4.047,9.023,9.023s-4.047,9.023-9.023,9.023H36.5C31.525,37.731,27.477,33.684,27.477,28.709z M120.386,269.717
	h-59.37V102.543h59.37V269.717z M484.523,318.538H374.844V280.8c0-20.141-16.385-36.528-36.527-36.528H140.072V134.593H369.66
	c63.335,0,114.863,51.526,114.863,114.861V318.538z"/>
<path d="M272.444,147.718h-23.623c-5.436,0-9.843,4.407-9.843,9.843s4.407,9.843,9.843,9.843h23.623
	c5.437,0,9.843-4.407,9.843-9.843S277.882,147.718,272.444,147.718z"/>
<path d="M69.046,122.388c0,5.436,4.407,9.843,9.843,9.843h23.623c5.436,0,9.843-4.407,9.843-9.843s-4.407-9.843-9.843-9.843H78.889
	C73.453,112.545,69.046,116.952,69.046,122.388z"/>
<path d="M369.66,147.718h-65.721c-5.437,0-9.843,4.407-9.843,9.843s4.406,9.843,9.843,9.843h65.721
	c45.244,0,82.053,36.808,82.053,82.051c0,5.436,4.406,9.843,9.843,9.843s9.843-4.407,9.843-9.843
	C471.399,193.357,425.76,147.718,369.66,147.718z"/>
<path d="M439.04,375.693c-3.845-3.844-10.077-3.844-13.921,0l-35.01,35.01c-11.212,11.211-17.385,26.115-17.385,41.971
	c0,15.854,6.174,30.76,17.384,41.969c11.573,11.573,26.769,17.359,41.971,17.358c15.198-0.001,30.4-5.788,41.969-17.358
	c11.212-11.211,17.385-26.115,17.385-41.969c0-15.855-6.174-30.76-17.384-41.971L439.04,375.693z M460.129,480.723
	c-15.467,15.467-40.633,15.467-56.1,0c-7.494-7.492-11.62-17.454-11.62-28.05c0-10.596,4.126-20.559,11.62-28.051l28.05-28.051
	l28.05,28.051c7.494,7.492,11.62,17.454,11.62,28.051C471.749,463.269,467.623,473.23,460.129,480.723z"/>
<circle cx="450.244" cy="450.599" r="9.843"/>
<g>
</g>
<g>
</g>
<g>
</g>
<g>
</g>
<g>
</g>
<g>
</g>
<g>
</g>
<g>
</g>
<g>
</g>
<g>
</g>
<g>
</g>
<g>
</g>
<g>
</g>
<g>
</g>
<g>
</g>
</svg>
