<?xml version="1.0" encoding="iso-8859-1"?>
<!-- Generator: Adobe Illustrator 19.0.0, SVG Export Plug-In . SVG Version: 6.00 Build 0)  -->
<svg version="1.1" id="Layer_1" xmlns="http://www.w3.org/2000/svg" xmlns:xlink="http://www.w3.org/1999/xlink" x="0px" y="0px"
	 viewBox="0 0 512 512" style="enable-background:new 0 0 512 512;" xml:space="preserve">
<path style="fill:#FD6568;" d="M458.936,410.461h44.134v-95.583c0-15.704-11.192-29.179-26.63-32.059l-90.525-16.894H38.106
	c-15.665,0-28.357,12.694-28.357,28.343v116.192h40.925h112.565h183.133H458.936z"/>
<path style="fill:#80D2EE;" d="M503.069,314.88h-27.346c-12.249,0-21.004,11.853-17.4,23.562l0,0
	c2.351,7.638,9.409,12.85,17.4,12.85h27.346"/>
<g>
	<circle style="fill:#999999;" cx="106.963" cy="412.174" r="57.528"/>
	<circle style="fill:#999999;" cx="402.648" cy="412.174" r="57.528"/>
</g>
<g>
	<path style="fill:#F2F2F2;" d="M402.65,441.075c-15.932,0-28.895-12.963-28.895-28.896s12.963-28.896,28.895-28.896
		c15.934,0,28.896,12.963,28.896,28.896S418.584,441.075,402.65,441.075z"/>
	<path style="fill:#F2F2F2;" d="M106.958,441.075c-15.932,0-28.895-12.963-28.895-28.896s12.963-28.896,28.895-28.896
		c15.934,0,28.896,12.963,28.896,28.896S122.891,441.075,106.958,441.075z"/>
</g>
<path style="fill:#80D2EE;" d="M385.914,265.927H82.981l10.771-63.294c3.449-20.234,20.982-35.04,41.503-35.04h140.62
	c37.891,0,72.483,21.579,89.131,55.611L385.914,265.927z"/>
<polygon style="fill:#68B9DA;" points="268.94,167.595 224.909,265.927 125.717,265.927 181.19,167.595 "/>
<path style="fill:#9DDA74;" d="M366.226,123.816V55.167h-37.403c-18.957,0-34.325,15.368-34.325,34.325l0,0l0,0
	c0,18.957,15.368,34.325,34.325,34.325h37.403V123.816z"/>
<path d="M402.242,373.94c-21.082,0-38.234,17.151-38.234,38.235c0,21.084,17.151,38.235,38.234,38.235
	c21.084,0,38.235-17.151,38.235-38.235C440.477,391.091,423.326,373.94,402.242,373.94z M402.242,431.731
	c-10.783,0-19.556-8.772-19.556-19.557c0-10.785,8.772-19.557,19.556-19.557c10.783,0,19.557,8.772,19.557,19.557
	C421.799,422.958,413.025,431.731,402.242,431.731z"/>
<path d="M106.549,373.94c-21.082,0-38.234,17.151-38.234,38.235c0,21.084,17.151,38.235,38.234,38.235
	c21.084,0,38.235-17.151,38.235-38.235C144.784,391.091,127.633,373.94,106.549,373.94z M106.549,431.731
	c-10.783,0-19.556-8.772-19.556-19.557c0-10.785,8.772-19.557,19.556-19.557s19.557,8.772,19.557,19.557
	C126.106,422.958,117.334,431.731,106.549,431.731z"/>
<path d="M477.745,273.634l-85.913-16.033l-18.845-38.507c-18.087-36.964-56.365-60.848-97.517-60.848H134.849
	c-25.163,0-46.49,18.004-50.712,42.81l-9.451,55.525H59.37V185.4c0-47.737,38.837-86.575,86.575-86.575h139.822
	c4.29,19.602,21.777,34.324,42.648,34.324h28.063v3.533c0,5.158,4.18,9.339,9.339,9.339s9.339-4.181,9.339-9.339v-12.87v-2.818
	h32.13c5.159,0,9.339-4.181,9.339-9.339s-4.18-9.339-9.339-9.339h-32.13V76.658h32.13c5.159,0,9.339-4.181,9.339-9.339
	s-4.18-9.339-9.339-9.339h-32.13v-2.818V42.291c0-5.158-4.18-9.339-9.339-9.339s-9.339,4.181-9.339,9.339v3.533h-28.063
	c-20.87,0-38.358,14.722-42.648,34.325H145.945c-58.036,0-105.253,47.217-105.253,105.253v71.181h-2.995
	C16.911,256.582,0,273.487,0,294.264v116.192c0,5.158,4.18,9.339,9.339,9.339h30.784c3.797,33.297,32.13,59.253,66.426,59.253
	s62.63-25.956,66.426-59.253h162.84c3.797,33.297,32.13,59.253,66.426,59.253s62.631-25.956,66.428-59.253h33.991
	c5.159,0,9.339-4.181,9.339-9.339v-95.583C512,294.683,497.593,277.338,477.745,273.634z M328.414,64.501h28.063v49.971h-28.063
	c-13.777,0-24.985-11.208-24.985-24.985C303.429,75.709,314.637,64.501,328.414,64.501z M493.322,341.948h-18.007
	c-3.917,0-7.322-2.515-8.475-6.26c-0.837-2.718-0.346-5.588,1.342-7.876c1.689-2.287,4.288-3.6,7.133-3.6h18.007V341.948z
	 M356.211,227.305l14.326,29.276h-141.82v-79.655h46.754C309.542,176.925,341.235,196.7,356.211,227.305z M102.55,204.19
	c2.688-15.799,16.272-27.265,32.298-27.265h75.19v79.655H93.633L102.55,204.19z M106.549,460.37
	c-26.575,0-48.195-21.62-48.195-48.197c0-26.576,21.62-48.197,48.195-48.197s48.195,21.62,48.195,48.197
	C154.745,438.75,133.124,460.37,106.549,460.37z M402.242,460.37c-26.575,0-48.195-21.62-48.195-48.197
	c0-26.576,21.62-48.197,48.195-48.197c26.576,0,48.197,21.62,48.197,48.197C450.439,438.75,428.818,460.37,402.242,460.37z
	 M468.186,401.117c-5.287-31.629-32.837-55.817-65.945-55.817s-60.656,24.188-65.943,55.817H172.493
	c-5.287-31.629-32.836-55.817-65.943-55.817s-60.656,24.188-65.943,55.817H18.678V294.264c0-10.48,8.532-19.004,19.018-19.004h2.995
	v43.344c0,5.158,4.18,9.339,9.339,9.339s9.339-4.181,9.339-9.339V275.26h325.272l89.677,16.734
	c7.764,1.449,14.011,6.667,17.031,13.54h-16.033c-8.833,0-16.909,4.076-22.157,11.181c-5.247,7.106-6.768,16.024-4.169,24.467
	c3.579,11.629,14.158,19.443,26.326,19.443h18.007v40.493L468.186,401.117L468.186,401.117z"/>
<path d="M285.98,314.596l-23.638,23.639l-7.365-20.096c-1.097-2.992-3.645-5.22-6.758-5.906c-3.112-0.685-6.362,0.263-8.616,2.517
	l-29.999,29.999c-3.647,3.647-3.647,9.561,0,13.207c3.648,3.647,9.561,3.647,13.208,0l19.658-19.659l7.365,20.095
	c1.097,2.992,3.645,5.22,6.758,5.906c0.667,0.147,1.342,0.219,2.011,0.219c2.449,0,4.834-0.965,6.605-2.736l33.979-33.979
	c3.647-3.647,3.647-9.561,0-13.207C295.541,310.949,289.63,310.948,285.98,314.596z"/>
<g>
</g>
<g>
</g>
<g>
</g>
<g>
</g>
<g>
</g>
<g>
</g>
<g>
</g>
<g>
</g>
<g>
</g>
<g>
</g>
<g>
</g>
<g>
</g>
<g>
</g>
<g>
</g>
<g>
</g>
</svg>
