<?xml version="1.0" encoding="iso-8859-1"?>
<!-- Generator: Adobe Illustrator 19.0.0, SVG Export Plug-In . SVG Version: 6.00 Build 0)  -->
<svg version="1.1" id="Layer_1" xmlns="http://www.w3.org/2000/svg" xmlns:xlink="http://www.w3.org/1999/xlink" x="0px" y="0px"
	 viewBox="0 0 512 512" style="enable-background:new 0 0 512 512;" xml:space="preserve">
<path style="fill:#F2F2F2;" d="M347.453,82.204c12.587,7.683,20.992,21.548,20.992,37.382c0,15.822-8.406,29.687-20.992,37.371
	c3.469,14.343-0.389,30.088-11.586,41.284c-11.186,11.197-26.941,15.055-41.273,11.586c-7.683,12.587-21.548,20.992-37.382,20.992
	s-29.699-8.406-37.382-20.992c-14.332,3.469-30.077-0.389-41.273-11.586c-11.197-11.197-15.055-26.941-11.586-41.284
	c-12.587-7.683-20.992-21.548-20.992-37.371c0-15.833,8.406-29.699,20.992-37.382c-3.469-14.343,0.389-30.088,11.586-41.284
	c11.197-11.186,26.941-15.044,41.273-11.575c7.683-12.598,21.548-21.004,37.382-21.004c15.833,0,29.699,8.406,37.382,21.004
	c14.332-3.469,30.088,0.389,41.273,11.575C347.064,52.116,350.922,67.861,347.453,82.204z M324.693,119.586
	c0-37.27-30.21-67.48-67.48-67.48s-67.48,30.21-67.48,67.48c0,37.259,30.21,67.469,67.48,67.469S324.693,156.845,324.693,119.586z"
	/>
<path style="fill:#F8DF70;" d="M257.212,52.105c37.27,0,67.48,30.21,67.48,67.48c0,37.259-30.21,67.469-67.48,67.469
	s-67.48-30.21-67.48-67.469C189.732,82.315,219.942,52.105,257.212,52.105z"/>
<g>
	<path style="fill:#7FE2B5;" d="M391.551,237.735v16.6c0,65.023-52.715,117.738-117.738,117.738h-16.6v-16.6
		c0-65.023,52.715-117.738,117.749-117.738L391.551,237.735L391.551,237.735z"/>
	<path style="fill:#7FE2B5;" d="M255.511,422.442v16.6h-16.6c-65.023,0-117.738-52.715-117.738-117.738v-16.6h16.6
		C202.797,304.704,255.511,357.419,255.511,422.442z"/>
</g>
<path d="M391.191,229.387h-16.599c-46.747,0-87.632,25.573-109.405,63.463v-54.369c13.038-2.076,24.712-8.972,32.839-19.494
	c15.943,2.046,31.819-3.301,43.376-14.857c11.558-11.556,16.906-27.43,14.857-43.377c12.724-9.828,20.167-24.834,20.167-41.177
	s-7.442-31.35-20.167-41.178c2.049-15.947-3.3-31.82-14.857-43.377c-11.558-11.557-27.435-16.906-43.376-14.857
	C288.197,7.442,273.19,0,256.848,0s-31.349,7.442-41.177,20.166c-15.95-2.048-31.821,3.301-43.377,14.857
	c-11.556,11.556-16.905,27.429-14.857,43.376c-12.724,9.828-20.166,24.835-20.166,41.178s7.442,31.35,20.166,41.178
	c-2.048,15.947,3.301,31.82,14.857,43.376c11.556,11.557,27.43,16.905,43.377,14.857c8.128,10.523,19.801,17.418,32.837,19.495
	V355.47v7.41c-21.296-39.565-63.107-66.523-111.101-66.523h-16.599c-4.605,0-8.339,3.734-8.339,8.339v16.599
	c0,69.522,56.561,126.083,126.083,126.083h9.957v56.284c0,4.605,3.734,8.339,8.339,8.339c4.607,0,8.339-3.734,8.339-8.339V380.408
	h8.261c69.522,0,126.083-56.561,126.083-126.083v-16.599C399.53,233.121,395.797,229.387,391.191,229.387z M226.587,205.474
	c-1.538-2.52-4.257-3.995-7.117-3.995c-0.65,0-1.31,0.077-1.962,0.235c-12.122,2.932-24.616-0.572-33.42-9.375
	c-8.804-8.804-12.309-21.297-9.375-33.42c0.853-3.522-0.668-7.192-3.76-9.08c-10.646-6.498-17.003-17.81-17.003-30.261
	s6.356-23.763,17.003-30.261c3.093-1.888,4.613-5.557,3.76-9.08c-2.933-12.123,0.572-24.616,9.375-33.42
	c8.805-8.804,21.296-12.31,33.42-9.375c3.522,0.853,7.193-0.667,9.08-3.76c6.498-10.646,17.81-17.002,30.261-17.002
	c12.451,0,23.763,6.356,30.262,17.002c1.888,3.094,5.564,4.612,9.079,3.76c12.121-2.934,24.616,0.57,33.421,9.375
	c8.804,8.804,12.309,21.297,9.375,33.419c-0.854,3.522,0.667,7.193,3.76,9.08c10.646,6.498,17.003,17.81,17.003,30.261
	s-6.357,23.763-17.003,30.26c-3.093,1.888-4.613,5.558-3.76,9.081c2.934,12.122-0.572,24.615-9.377,33.419
	c-8.804,8.804-21.297,12.31-33.42,9.375c-3.515-0.853-7.191,0.667-9.079,3.76c-6.499,10.646-17.811,17.002-30.262,17.002
	C244.397,222.475,233.085,216.12,226.587,205.474z M295.05,345.66l32.275,3.854c-14.935,8.486-32.049,13.557-50.278,14.15
	L295.05,345.66z M322.213,294.911l-3.218-33.629c15.334-9.085,33.063-14.533,51.996-15.149L322.213,294.911z M382.786,257.925
	c-0.324,9.943-1.975,19.554-4.79,28.66l-22.141-1.729L382.786,257.925z M303.319,272.536l3.604,37.666l-41.669,41.67
	C266.281,320.197,280.836,291.884,303.319,272.536z M156.144,351.825l-22.141,1.729c-2.815-9.106-4.468-18.719-4.79-28.661
	L156.144,351.825z M141.006,313.1c18.932,0.615,36.661,6.063,51.996,15.149l-3.218,33.629L141.006,313.1z M234.952,430.633
	c-18.229-0.593-35.344-5.664-50.278-14.15l32.275-3.854L234.952,430.633z M246.746,418.839l-41.669-41.669l3.604-37.666
	C231.162,358.853,245.717,387.166,246.746,418.839z M140.495,369.776l31.166-2.434l30.282,30.282l-37.116,4.433
	C154.849,392.94,146.565,382.001,140.495,369.776z M347.171,335.087l-37.116-4.433l30.282-30.282l31.166,2.434
	C365.434,315.032,357.149,325.971,347.171,335.087z"/>
<path d="M332.664,119.577c0-41.806-34.012-75.816-75.817-75.816c-41.805,0-75.816,34.012-75.816,75.816s34.01,75.816,75.816,75.816
	C298.653,195.393,332.664,161.383,332.664,119.577z M197.767,121.801h27.2c4.605,0,8.339-3.734,8.339-8.339
	s-3.734-8.339-8.339-8.339h-25.463c1.942-7.702,5.395-14.81,10.03-20.984h43.786c4.605,0,8.339-3.734,8.339-8.339
	s-3.734-8.339-8.339-8.339h-24.393c8.321-4.475,17.827-7.022,27.92-7.022c22.289,0,41.73,12.398,51.807,30.655h-38.941
	c-4.607,0-8.339,3.734-8.339,8.339s3.733,8.339,8.339,8.339h45.086c0.776,3.816,1.186,7.763,1.186,11.805
	c0,5.843-0.865,11.486-2.451,16.821h-84.677c-4.605,0-8.339,3.734-8.339,8.339s3.734,8.339,8.339,8.339h76.688
	c-10.676,15.473-28.52,25.639-48.7,25.639C224.984,178.715,198.942,153.382,197.767,121.801z"/>
<g>
</g>
<g>
</g>
<g>
</g>
<g>
</g>
<g>
</g>
<g>
</g>
<g>
</g>
<g>
</g>
<g>
</g>
<g>
</g>
<g>
</g>
<g>
</g>
<g>
</g>
<g>
</g>
<g>
</g>
</svg>
