<?xml version="1.0" encoding="iso-8859-1"?>
<!-- Generator: Adobe Illustrator 19.0.0, SVG Export Plug-In . SVG Version: 6.00 Build 0)  -->
<svg version="1.1" id="Layer_1" xmlns="http://www.w3.org/2000/svg" xmlns:xlink="http://www.w3.org/1999/xlink" x="0px" y="0px"
	 viewBox="0 0 512 512" style="enable-background:new 0 0 512 512;" xml:space="preserve">
<path style="fill:#9DDA74;" d="M495.439,417.606c0.638,15.18-2.528,29.568-8.647,42.267c-5.505,11.447-17.259,18.558-29.958,18.558
	h-99.974c-12.77,0-24.536-7.206-30.041-18.712c-5.54-11.577-8.647-24.547-8.647-38.239c0-21.571,7.702-41.346,20.507-56.714h28.658
	c5.765,0,9.958-5.481,8.47-11.045l-3.709-13.857h0.012c11.187-4.772,23.567-7.312,36.561-7.052
	C455.181,333.758,493.455,371.133,495.439,417.606z"/>
<path style="fill:#90C666;" d="M365.882,459.874c-6.119-12.699-9.285-27.087-8.647-42.267c1.727-40.431,30.925-73.965,69.112-82.625
	c-6.847-1.539-13.983-2.315-21.326-2.169c-46.508,0.945-84.782,38.321-86.767,84.794c-0.638,15.18,2.528,29.568,8.647,42.267
	c5.505,11.447,17.259,18.558,29.958,18.558h38.981C383.141,478.432,371.387,471.319,365.882,459.874z"/>
<path style="fill:#64BF94;" d="M244.826,152.31l30.052-112.224c2.315-8.671,14.625-8.671,16.952,0l80.27,299.779l3.709,13.857
	c1.488,5.564-2.705,11.045-8.47,11.045h-28.658H199.37c-5.765,0-9.97-5.481-8.47-11.045l14.79-55.238L244.826,152.31z"/>
<path style="fill:#9DDA74;" d="M244.826,152.31L205.69,298.484c-20.531,15.463-46.059,24.642-73.749,24.642
	c-67.759,0-122.69-54.931-122.69-122.69s54.931-122.69,122.69-122.69C182.619,77.745,226.114,108.472,244.826,152.31z"/>
<path style="fill:#90C666;" d="M62.407,200.435c0-58.627,41.123-107.64,96.097-119.791c-8.555-1.889-17.44-2.899-26.563-2.899
	c-67.759,0-122.69,54.931-122.69,122.69s54.931,122.69,122.69,122.69c9.12,0,17.997-1.015,26.547-2.902
	C103.523,308.067,62.407,259.057,62.407,200.435z"/>
<path d="M503.14,469.564h-12.229c1.305-1.842,2.483-3.786,3.477-5.85c6.907-14.352,10.197-30.427,9.513-46.49
	c-2.184-51.264-44.105-92.233-95.437-93.271c-10.529-0.213-20.812,1.221-30.694,4.267L300.001,37.79
	c-2.093-7.82-8.939-13.073-17.036-13.073c-8.095,0-14.94,5.254-17.034,13.073l-24.267,90.626
	c-24.017-36.761-65.139-59.538-110.114-59.538C59.013,68.878,0,127.891,0,200.428c0,69.56,54.271,126.673,122.694,131.245v137.891
	H33.596c-4.893,0-8.86,3.967-8.86,8.86s3.967,8.86,8.86,8.86H503.14c4.894,0,8.86-3.967,8.86-8.86S508.034,469.564,503.14,469.564z
	 M282.966,42.68l83.871,313.216h-75.012v-98.914c0-4.893-3.966-8.86-8.86-8.86s-8.86,3.967-8.86,8.86v98.914h-75.011L282.966,42.68z
	 M318.44,463.537c1.019,2.13,2.234,4.133,3.582,6.027h-30.196v-95.949h29.66c-8.169,14.517-12.562,31.016-12.562,47.857
	C308.922,436.196,312.125,450.349,318.44,463.537z M17.72,200.428c0-62.766,51.064-113.83,113.83-113.83
	c44.691,0,84.988,25.989,103.517,66.452l-37.512,140.092c-16.936,12.097-36.483,19.197-57.142,20.773V282.73
	c0-0.014,0-0.028,0-0.043V259.79l25.828-18.028c4.012-2.801,4.996-8.323,2.194-12.335c-2.8-4.012-8.323-4.995-12.335-2.194
	l-15.687,10.949v-15.114c0-4.893-3.967-8.86-8.86-8.86c-4.893,0-8.86,3.967-8.86,8.86v42.996l-31.716-21.361
	c-4.059-2.734-9.565-1.66-12.299,2.399s-1.66,9.565,2.399,12.299l41.615,28.029v26.488C64.05,309.382,17.72,260.214,17.72,200.428z
	 M140.413,331.662c17.768-1.172,34.848-5.864,50.533-13.839l-8.996,33.596c-1.429,5.338-0.32,10.914,3.045,15.298
	c3.366,4.384,8.464,6.898,13.99,6.898h75.121v95.949H140.413V331.662z M356.471,469.564c-9.416,0-18.07-5.369-22.049-13.679
	c-5.162-10.781-7.78-22.358-7.78-34.411c0-17.277,5.643-34.112,15.949-47.857h24.356c5.526,0,10.625-2.514,13.989-6.898
	c3.366-4.384,4.475-9.96,3.047-15.299l-1.621-6.054c8.271-2.625,16.897-3.879,25.744-3.696
	c42.004,0.849,76.305,34.369,78.091,76.309c0.567,13.348-2.047,26.15-7.775,38.052c-3.957,8.221-12.581,13.534-21.973,13.534
	L356.471,469.564L356.471,469.564z"/>
<circle cx="416.315" cy="442.988" r="8.86"/>
<circle cx="364.255" cy="427.041" r="8.86"/>
<circle cx="389.735" cy="384.514" r="8.86"/>
<circle cx="439.952" cy="370.338" r="8.86"/>
<circle cx="457.069" cy="409.321" r="8.86"/>
<g>
</g>
<g>
</g>
<g>
</g>
<g>
</g>
<g>
</g>
<g>
</g>
<g>
</g>
<g>
</g>
<g>
</g>
<g>
</g>
<g>
</g>
<g>
</g>
<g>
</g>
<g>
</g>
<g>
</g>
</svg>
