<?xml version="1.0" encoding="iso-8859-1"?>
<!-- Generator: Adobe Illustrator 19.0.0, SVG Export Plug-In . SVG Version: 6.00 Build 0)  -->
<svg version="1.1" id="Layer_1" xmlns="http://www.w3.org/2000/svg" xmlns:xlink="http://www.w3.org/1999/xlink" x="0px" y="0px"
	 viewBox="0 0 512 512" style="enable-background:new 0 0 512 512;" xml:space="preserve">
<circle style="fill:#90C666;" cx="234.955" cy="256.007" r="225.702"/>
<ellipse style="fill:#9DDA74;" cx="234.955" cy="256.007" rx="137.452" ry="225.702"/>
<path style="fill:#80D2EE;" d="M471.039,352.983V197.297c0-15.761-12.777-28.539-28.539-28.539l0,0
	c-15.762,0-28.539,12.777-28.539,28.539v155.687c-20.101,10.659-33.537,32.214-32.41,56.799c1.44,31.425,27.133,56.905,58.57,58.1
	c34.782,1.323,63.395-26.482,63.395-60.97C503.515,383.528,490.353,363.225,471.039,352.983z"/>
<circle style="fill:#FD6568;" cx="442.493" cy="407.268" r="23.62"/>
<path d="M359.007,352.448c0.743,0.192,1.487,0.283,2.22,0.283c3.952,0,7.558-2.66,8.588-6.663
	c7.354-28.549,11.083-58.851,11.083-90.065c0-44.436-7.607-87.028-21.815-123.803c13.79-5.379,26.747-11.7,38.689-18.906
	c6.867,7.844,13.197,16.192,18.853,24.911c2.668,4.113,8.166,5.281,12.275,2.615c4.112-2.667,5.282-8.164,2.615-12.276
	c-7.54-11.622-16.173-22.652-25.654-32.777c-21.503-22.996-46.919-41.155-75.544-53.971c-29.6-13.253-61.17-20.102-93.836-20.357
	c-0.635-0.013-1.27-0.014-1.904-0.014c-33.04,0-64.985,6.734-94.95,20.017c-28.945,12.832-54.632,31.109-76.345,54.323
	C22.474,139.351,0,196.258,0,256.001v0.001l0,0l0,0c0,59.736,22.474,116.647,63.281,160.247
	c21.516,22.996,46.937,41.151,75.558,53.963c29.599,13.248,61.17,20.096,93.839,20.35c0.633,0.013,1.266,0.014,1.898,0.014
	c0.609,0,1.219,0,1.827-0.014c46.203-0.346,90.817-14.126,129.027-39.853c4.066-2.737,5.141-8.252,2.403-12.318
	c-2.737-4.065-8.253-5.144-12.317-2.404c-15.314,10.311-31.753,18.517-48.933,24.562c10.327-9.311,19.982-20.678,28.738-33.984
	c2.693-4.094,1.558-9.598-2.536-12.292c-4.095-2.696-9.599-1.56-12.293,2.536c-21.538,32.732-48.615,52.14-77.047,55.494v-96.673
	c36.532,0.891,72.083,7.268,103.327,18.597c4.609,1.673,9.698-0.71,11.368-5.318c1.671-4.608-0.71-9.697-5.318-11.368
	c-33.149-12.02-70.789-18.767-109.377-19.668v-92.995h90.162c4.902,0,8.875-3.974,8.875-8.875c0-4.901-3.972-8.875-8.875-8.875
	h-90.162v-92.989c35.08-0.794,68.648-6.28,98.907-15.999c13.537,34.816,20.793,75.384,20.793,117.864
	c0,29.721-3.539,58.534-10.522,85.639C351.404,346.387,354.261,351.226,359.007,352.448z M225.698,39.703v96.675
	c-32.206-0.799-63.56-5.919-91.793-14.766c9.302-19.714,20.608-36.699,33.481-50.124C185.115,53,205.112,42.135,225.698,39.703z
	 M144.961,410.979c-3.982-6.539-7.68-13.427-11.084-20.618c28.317-8.902,59.708-13.944,91.821-14.73v96.671
	C195.485,468.777,167.093,447.322,144.961,410.979z M106.113,264.877h119.585v92.996c-34.559,0.808-68.402,6.324-98.864,16.099
	C114.216,341.566,107.053,304.167,106.113,264.877z M146.82,57.668c5.211-2.31,10.489-4.405,15.825-6.286
	c-2.736,2.464-5.429,5.067-8.07,7.822c-14.558,15.182-27.225,34.372-37.5,56.553c-11.813-4.546-22.925-9.792-33.156-15.679
	C102.286,82.291,123.401,68.049,146.82,57.668z M71.37,113.293c11.954,7.21,24.923,13.535,38.725,18.916
	c-2.694,6.987-5.171,14.211-7.405,21.661c-1.408,4.694,1.257,9.641,5.952,11.05c4.692,1.406,9.641-1.257,11.05-5.952
	c2.154-7.179,4.545-14.12,7.14-20.82c30.252,9.712,63.804,15.195,98.866,15.989v92.99H106.116
	c0.29-11.971,1.156-23.881,2.607-35.514c0.606-4.863-2.846-9.297-7.709-9.904c-4.87-0.607-9.298,2.845-9.904,7.709
	c-1.539,12.356-2.453,25.003-2.746,37.709H17.941C19.944,197.584,38.69,150.605,71.37,113.293z M17.941,264.877H88.36
	c0.945,41.259,8.457,80.682,21.738,115.022c-13.938,5.411-26.918,11.708-38.729,18.82C38.691,361.398,19.946,314.416,17.941,264.877
	z M83.928,411.942c10.175-5.867,21.259-11.119,33.12-15.701c3.888,8.375,8.138,16.39,12.755,23.97
	c9.845,16.165,20.909,29.727,32.874,40.509C133.49,450.518,106.723,434.034,83.928,411.942z M243.448,136.38V39.704
	c30.213,3.524,58.604,24.979,80.737,61.322c3.976,6.529,7.668,13.406,11.069,20.585C307.02,130.461,275.662,135.582,243.448,136.38z
	 M339.344,91.794c-9.796-16.086-20.8-29.594-32.698-40.352c5.539,1.956,11.014,4.134,16.417,6.553
	c23.128,10.355,43.99,24.486,62.158,42.084c-10.222,5.885-21.327,11.128-33.13,15.672C348.206,107.38,343.958,99.371,339.344,91.794
	z"/>
<path d="M479.524,347.877V197.292c0-20.631-16.784-37.415-37.413-37.415c-20.63,0-37.413,16.784-37.413,37.415v150.592
	c-20.972,13.34-33.55,37.225-32.401,62.302c1.65,35.956,31.122,65.192,67.096,66.56c0.919,0.034,1.838,0.052,2.751,0.052
	c18.178,0,35.285-6.878,48.433-19.536c13.815-13.3,21.422-31.183,21.422-50.355C512,382.798,499.687,360.648,479.524,347.877z
	 M478.268,444.475c-10.302,9.917-23.866,15.081-38.199,14.533c-26.831-1.02-48.811-22.823-50.04-49.637
	c-0.935-20.392,9.681-38.997,27.702-48.553c2.903-1.539,4.717-4.556,4.717-7.841V197.292c0-10.844,8.821-19.665,19.664-19.665
	c10.843,0,19.664,8.821,19.664,19.665v155.686c0,3.285,1.814,6.301,4.717,7.841c17.122,9.079,27.759,26.74,27.759,46.089
	C494.251,421.211,488.576,434.553,478.268,444.475z"/>
<path d="M450.986,376.009V232.735c0-4.901-3.972-8.875-8.875-8.875c-4.902,0-8.875,3.974-8.875,8.875v143.273
	c-13.615,3.872-23.62,16.412-23.62,31.252c0,17.917,14.577,32.494,32.494,32.494c17.917,0,32.494-14.577,32.494-32.494
	C474.606,392.421,464.601,379.88,450.986,376.009z M442.111,422.006c-8.13,0-14.745-6.615-14.745-14.745s6.615-14.745,14.745-14.745
	c8.13,0,14.745,6.615,14.745,14.745S450.241,422.006,442.111,422.006z"/>
<g>
</g>
<g>
</g>
<g>
</g>
<g>
</g>
<g>
</g>
<g>
</g>
<g>
</g>
<g>
</g>
<g>
</g>
<g>
</g>
<g>
</g>
<g>
</g>
<g>
</g>
<g>
</g>
<g>
</g>
</svg>
