<?xml version="1.0" encoding="iso-8859-1"?>
<!-- Generator: Adobe Illustrator 19.0.0, SVG Export Plug-In . SVG Version: 6.00 Build 0)  -->
<svg version="1.1" id="Layer_1" xmlns="http://www.w3.org/2000/svg" xmlns:xlink="http://www.w3.org/1999/xlink" x="0px" y="0px"
	 viewBox="0 0 512.001 512.001" style="enable-background:new 0 0 512.001 512.001;" xml:space="preserve">
<circle style="fill:#90C666;" cx="256.384" cy="326.084" r="177.168"/>
<ellipse style="fill:#9DDA74;" cx="256.384" cy="326.084" rx="107.9" ry="177.168"/>
<path d="M255.997,140.147c-102.52,0-185.927,83.406-185.927,185.928c0,102.521,83.406,185.927,185.927,185.927
	s185.927-83.406,185.927-185.927C441.924,223.553,358.518,140.147,255.997,140.147z M395.032,334.831h29.154
	c-1.979,38.44-16.909,73.51-40.498,100.931c-32.419-19.176-74.078-30.199-118.934-31.469v-69.464h68.988
	c4.836,0,8.756-3.92,8.756-8.756s-3.92-8.756-8.756-8.756h-68.988v-69.458c26.445-0.748,51.774-4.891,74.757-12.092
	c10.163,26.773,15.627,57.804,15.627,90.306c0,23.182-2.76,45.649-8.202,66.779c-1.207,4.683,1.612,9.458,6.295,10.664
	c0.733,0.189,1.468,0.279,2.19,0.279c3.898,0,7.456-2.625,8.473-6.574c5.811-22.556,8.756-46.493,8.756-71.147
	c0-34.435-5.795-67.476-16.622-96.17c9.795-3.912,19.057-8.422,27.663-13.514c23.587,27.421,38.516,62.49,40.495,100.928h-29.154
	c-4.836,0-8.756,3.92-8.756,8.756S390.197,334.831,395.032,334.831z M264.753,158.332c22.414,3.399,43.475,19.786,60.06,47.018
	c2.742,4.503,5.292,9.238,7.683,14.144c-20.939,6.354-44.019,10.104-67.743,10.846V158.332z M339.77,196.24
	c-6.007-9.863-12.59-18.507-19.634-25.88c19.02,7.863,36.294,19.111,51.072,32.994c-6.884,3.826-14.268,7.277-22.046,10.345
	C346.279,207.618,343.146,201.785,339.77,196.24z M247.241,230.338c-23.724-0.743-46.807-4.494-67.75-10.85
	c7.045-14.506,15.492-27.042,25.058-37.018c13.043-13.604,27.652-21.809,42.692-24.117V230.338z M162.813,213.69
	c-7.771-3.065-15.148-6.513-22.027-10.336c14.741-13.848,31.966-25.074,50.93-32.935C180.675,181.957,170.89,196.531,162.813,213.69
	z M155.983,229.909c-1.873,4.993-3.627,10.144-5.227,15.479c-1.388,4.631,1.24,9.513,5.871,10.902
	c4.634,1.389,9.513-1.24,10.903-5.871c1.51-5.034,3.169-9.919,4.957-14.651c22.985,7.2,48.311,11.342,74.753,12.092v69.458h-90.25
	c0.267-8.72,0.934-17.388,1.991-25.867c0.598-4.798-2.808-9.173-7.606-9.772c-4.796-0.594-9.174,2.808-9.772,7.606
	c-1.145,9.192-1.856,18.588-2.13,28.033H87.808c1.978-38.438,16.908-73.507,40.494-100.927
	C136.915,221.484,146.182,225.996,155.983,229.909z M247.241,404.295c-26.442,0.75-51.769,4.892-74.755,12.093
	c-9.248-24.36-14.607-52.242-15.494-81.557h90.249L247.241,404.295L247.241,404.295z M247.241,421.815v72.003
	c-9.69-1.47-19.16-5.376-28.246-11.688c-11.84-8.223-22.543-20.11-31.813-35.332c-2.741-4.501-5.29-9.234-7.681-14.136
	C200.442,426.309,223.521,422.559,247.241,421.815z M139.473,334.831c0.897,31.271,6.589,61.165,16.497,87.421
	c-9.794,3.911-19.056,8.42-27.663,13.51c-23.588-27.421-38.518-62.492-40.497-100.93h51.663V334.831z M162.834,438.456
	c2.884,6.08,6.015,11.91,9.39,17.452c6.007,9.863,12.59,18.507,19.634,25.88c-19.017-7.863-36.292-19.11-51.069-32.989
	C147.674,444.973,155.057,441.523,162.834,438.456z M334.078,448.82c-4.038-2.657-9.47-1.538-12.128,2.501
	c-16.1,24.465-36.142,39.265-57.197,42.493v-72c39.598,1.24,77.413,10.847,106.45,26.983
	c-14.796,13.898-32.096,25.156-51.143,33.019c5.849-6.099,11.381-13.063,16.519-20.869
	C339.238,456.908,338.118,451.478,334.078,448.82z"/>
<path d="M69.563,241.406c1.999-4.404,0.05-9.593-4.354-11.593c-4.403-1.999-9.593-0.05-11.593,4.354
	c-26.52,58.414-26.52,125.41,0,183.812c1.466,3.229,4.649,5.138,7.978,5.138c1.211,0,2.441-0.252,3.616-0.786
	c4.403-2,6.351-7.191,4.352-11.593C45.132,356.937,45.132,295.217,69.563,241.406z"/>
<path d="M91.928,448.541c-2.895-3.871-8.384-4.663-12.256-1.769c-3.873,2.897-4.664,8.384-1.769,12.256
	c6.338,8.475,13.39,16.611,20.96,24.18c1.709,1.709,3.951,2.565,6.191,2.565s4.482-0.855,6.191-2.565c3.42-3.42,3.42-8.964,0-12.383
	C104.267,463.845,97.766,456.348,91.928,448.541z"/>
<path d="M79.672,205.371c1.574,1.177,3.413,1.744,5.237,1.744c2.667,0,5.299-1.213,7.019-3.513
	c5.839-7.808,12.339-15.307,19.319-22.286c3.42-3.42,3.42-8.964,0-12.383c-3.42-3.42-8.964-3.42-12.382,0
	c-7.569,7.569-14.621,15.705-20.96,24.181C75.008,196.989,75.799,202.475,79.672,205.371z"/>
<path d="M458.386,234.165c-2-4.404-7.191-6.352-11.593-4.354c-4.403,1.999-6.352,7.189-4.354,11.593
	c24.431,53.812,24.431,115.531,0,169.332c-1.999,4.403-0.05,9.593,4.352,11.593c1.175,0.534,2.405,0.786,3.616,0.786
	c3.33,0,6.512-1.909,7.978-5.138C484.905,359.576,484.905,292.58,458.386,234.165z"/>
<path d="M420.062,203.604c1.72,2.3,4.352,3.513,7.019,3.513c1.824,0,3.665-0.569,5.237-1.744c3.873-2.897,4.664-8.384,1.769-12.256
	c-6.34-8.476-13.391-16.612-20.96-24.181c-3.42-3.42-8.964-3.42-12.382,0c-3.42,3.42-3.42,8.964,0,12.382
	C407.723,188.297,414.223,195.794,420.062,203.604z"/>
<path d="M432.319,446.772c-3.873-2.897-9.36-2.105-12.256,1.769c-5.837,7.807-12.338,15.305-19.319,22.285
	c-3.42,3.42-3.42,8.964,0,12.382c1.709,1.709,3.951,2.565,6.191,2.565c2.24,0,4.482-0.855,6.191-2.565
	c7.57-7.57,14.622-15.705,20.96-24.18C436.983,455.156,436.191,449.668,432.319,446.772z"/>
<path d="M241.403,109.162c0,4.836,3.92,8.756,8.756,8.756c4.836,0,8.756-3.92,8.756-8.756c0-5.616,1.604-7.914,4.263-11.725
	c3.129-4.483,7.412-10.625,7.412-21.745s-4.284-17.261-7.412-21.745c-2.658-3.811-4.263-6.11-4.263-11.725
	c0-5.613,1.604-7.912,4.263-11.723c3.128-4.483,7.412-10.624,7.412-21.744c0-4.836-3.92-8.756-8.756-8.756
	c-4.836,0-8.756,3.92-8.756,8.756c0,5.613-1.604,7.912-4.263,11.723c-3.128,4.483-7.412,10.624-7.412,21.744
	s4.284,17.261,7.412,21.745c2.658,3.811,4.263,6.11,4.263,11.725s-1.604,7.914-4.263,11.725
	C245.687,91.901,241.403,98.043,241.403,109.162z"/>
<path d="M289.271,109.162c0,4.836,3.92,8.756,8.756,8.756s8.756-3.92,8.756-8.756c0-5.616,1.604-7.914,4.263-11.725
	c3.129-4.483,7.412-10.625,7.412-21.745s-4.284-17.261-7.412-21.745c-2.658-3.811-4.263-6.11-4.263-11.725
	c0-5.613,1.604-7.912,4.263-11.723c3.128-4.483,7.412-10.624,7.412-21.744c0-4.836-3.92-8.756-8.756-8.756s-8.756,3.92-8.756,8.756
	c0,5.613-1.604,7.912-4.263,11.723c-3.128,4.483-7.412,10.624-7.412,21.744s4.284,17.261,7.412,21.745
	c2.658,3.811,4.263,6.11,4.263,11.725s-1.604,7.914-4.263,11.725C293.554,91.901,289.271,98.043,289.271,109.162z"/>
<path d="M193.536,109.162c0,4.836,3.92,8.756,8.756,8.756s8.756-3.92,8.756-8.756c0-5.616,1.604-7.914,4.263-11.725
	c3.129-4.483,7.412-10.625,7.412-21.745s-4.284-17.261-7.412-21.745c-2.658-3.811-4.263-6.11-4.263-11.725
	c0-5.613,1.604-7.912,4.263-11.723c3.128-4.483,7.412-10.624,7.412-21.744c0-4.836-3.92-8.756-8.756-8.756
	c-4.836,0-8.756,3.92-8.756,8.756c0,5.613-1.604,7.912-4.263,11.723c-3.128,4.483-7.412,10.624-7.412,21.744
	s4.284,17.261,7.412,21.745c2.658,3.811,4.263,6.11,4.263,11.725s-1.604,7.914-4.263,11.725
	C197.819,91.901,193.536,98.043,193.536,109.162z"/>
<g>
</g>
<g>
</g>
<g>
</g>
<g>
</g>
<g>
</g>
<g>
</g>
<g>
</g>
<g>
</g>
<g>
</g>
<g>
</g>
<g>
</g>
<g>
</g>
<g>
</g>
<g>
</g>
<g>
</g>
</svg>
