<?xml version="1.0" encoding="iso-8859-1"?>
<!-- Generator: Adobe Illustrator 19.0.0, SVG Export Plug-In . SVG Version: 6.00 Build 0)  -->
<svg version="1.1" id="Layer_1" xmlns="http://www.w3.org/2000/svg" xmlns:xlink="http://www.w3.org/1999/xlink" x="0px" y="0px"
	 viewBox="0 0 512 512" style="enable-background:new 0 0 512 512;" xml:space="preserve">
<polygon style="fill:#E6E6E6;" points="388.232,21.987 388.232,141.466 313.598,66.832 313.598,21.987 "/>
<polygon style="fill:#666666;" points="92.411,224.285 24.481,292.215 24.481,241.605 256.426,9.66 313.598,66.832 388.232,141.466 
	488.371,241.605 488.371,292.215 420.428,224.285 256.426,60.269 "/>
<polygon style="fill:#80D2EE;" points="256.426,60.269 420.428,224.285 420.428,502.349 92.411,502.349 92.411,224.285 "/>
<path style="fill:#7FE2B5;" d="M145.981,440.615v-28.088c0-110.038,89.203-199.24,199.24-199.24h28.088v28.088
	c0,110.038-89.203,199.24-199.24,199.24H145.981z"/>
<path d="M135.908,412.521v28.088c0,5.33,4.32,9.651,9.651,9.651h28.088c115.184,0,208.891-93.708,208.891-208.891v-28.09
	c0-5.33-4.32-9.651-9.651-9.651h-28.088C229.615,203.629,135.908,297.337,135.908,412.521z M186.635,308.108l8.299,69.478
	l-39.723,39.723v-4.788C155.21,373.967,166.787,338.072,186.635,308.108z M173.647,430.958h-4.788l79.722-79.722l74.179,7.097
	C288.019,402.525,234.091,430.958,173.647,430.958z M335.407,340.153l-69.129-6.614l96.959-96.959v4.789
	C363.236,277.536,353.051,311.366,335.407,340.153z M349.587,222.931l-60.142,60.142l-3.954-50.632
	c18.668-6.164,38.603-9.512,59.309-9.512h4.788V222.931z M266.701,239.774l4.786,61.259l-59.188,59.188l-8.829-73.925
	C220.981,266.709,242.485,250.764,266.701,239.774z"/>
<path d="M494.769,234.772l-97.304-97.304V21.987c0-5.33-4.32-9.651-9.651-9.651H313.18c-5.331,0-9.651,4.321-9.651,9.651v21.544
	L262.824,2.827c-3.77-3.769-9.88-3.769-13.649,0L17.229,234.772c-1.809,1.809-2.826,4.264-2.826,6.824v50.619
	c0,3.904,2.351,7.422,5.958,8.916s7.757,0.668,10.518-2.092l51.462-51.462v245.121H45.619c-5.331,0-9.651,4.321-9.651,9.651
	S40.288,512,45.619,512H466.38c5.331,0,9.651-4.321,9.651-9.651s-4.32-9.651-9.651-9.651h-36.719V247.58l51.459,51.459
	c1.848,1.847,4.316,2.827,6.828,2.827c1.243,0,2.496-0.241,3.691-0.735c3.607-1.494,5.958-5.013,5.958-8.916v-50.619
	C497.596,239.035,496.579,236.581,494.769,234.772z M322.831,31.638h55.332v86.527l-55.332-55.332V31.638z M410.359,492.698H101.643
	V228.275L256,73.918l154.359,154.359V492.698z M478.294,268.916l-215.47-215.47c-1.885-1.884-4.356-2.827-6.825-2.827
	c-2.469,0-4.94,0.942-6.825,2.827L33.706,268.916v-23.323L256,23.298l222.294,222.294V268.916z"/>
<g>
</g>
<g>
</g>
<g>
</g>
<g>
</g>
<g>
</g>
<g>
</g>
<g>
</g>
<g>
</g>
<g>
</g>
<g>
</g>
<g>
</g>
<g>
</g>
<g>
</g>
<g>
</g>
<g>
</g>
</svg>
