<?xml version="1.0" encoding="iso-8859-1"?>
<!-- Generator: Adobe Illustrator 19.0.0, SVG Export Plug-In . SVG Version: 6.00 Build 0)  -->
<svg version="1.1" id="Layer_1" xmlns="http://www.w3.org/2000/svg" xmlns:xlink="http://www.w3.org/1999/xlink" x="0px" y="0px"
	 viewBox="0 0 511.999 511.999" style="enable-background:new 0 0 511.999 511.999;" xml:space="preserve">
<path style="fill:#FD6568;" d="M451.45,60.962c68.922,68.922,68.922,180.67,0,249.592s-180.67,68.922-249.592,0
	c-68.934-68.922-68.934-180.67,0-249.592C270.78-7.959,382.528-7.959,451.45,60.962z M418.101,277.205
	c50.499-50.499,50.499-132.382,0-182.894c-50.511-50.499-132.395-50.499-182.894,0c-50.511,50.511-50.511,132.395,0,182.894
	C285.706,327.716,367.59,327.716,418.101,277.205z"/>
<path style="fill:#80D2EE;" d="M418.101,94.311c50.499,50.511,50.499,132.395,0,182.894c-50.511,50.511-132.395,50.511-182.894,0
	c-50.511-50.499-50.511-132.382,0-182.894C285.706,43.812,367.59,43.812,418.101,94.311z"/>
<path style="fill:#FD6568;" d="M152.373,360.04c6.512,6.512,9.774,15.05,9.774,23.588s-3.262,17.076-9.774,23.588l-85.775,85.775
	c-13.023,13.023-34.152,13.023-47.175,0c-13.023-13.036-13.023-34.152,0-47.188l85.775-85.763
	C118.221,347.004,139.349,347.004,152.373,360.04z"/>
<path style="fill:#7FE2B5;" d="M258.333,254.077v-16.882c0-66.136,53.614-119.75,119.75-119.75h16.882v16.882
	c0,66.136-53.614,119.75-119.75,119.75H258.333z"/>
<path d="M394.56,108.172h-16.882c-71.14,0-129.017,57.877-129.017,129.017v16.882c0,5.118,4.148,9.267,9.267,9.267h16.882
	c71.14,0,129.017-57.877,129.017-129.017v-16.882C403.827,112.321,399.678,108.172,394.56,108.172z M347.279,151.615l-1.577-20.184
	c8.406-2.547,17.229-4.122,26.343-4.582L347.279,151.615z M385.151,139.954c-0.918,18.193-6.263,35.236-14.968,50.08l-32.045-3.066
	L385.151,139.954z M327.677,138.685l2.356,30.175l-29.399,29.399l-4.273-35.779C305.261,152.801,315.858,144.71,327.677,138.685z
	 M267.338,231.556c0.849-16.808,5.474-32.636,13.037-46.655l3.587,30.031L267.338,231.556z M280.444,244.662l40.701-40.701
	l36.411,3.483C338.46,229.027,311.081,243.116,280.444,244.662z"/>
<path d="M457.593,54.408C422.509,19.323,375.861,0,326.244,0c-49.616,0-96.263,19.322-131.349,54.406
	c-70.228,70.228-72.356,183.161-6.389,255.981l-37.261,37.262c-16.48-10.478-38.637-8.542-53.007,5.827l-85.773,85.773
	c-16.619,16.621-16.619,43.665,0,60.286h0.001c8.311,8.309,19.227,12.464,30.143,12.464c10.917,0,21.833-4.154,30.144-12.465
	l85.773-85.773c14.369-14.37,16.304-36.526,5.826-53.006l37.257-37.258c34.216,31.031,78.121,48.013,124.636,48.013
	c49.617,0,96.264-19.322,131.349-54.406s54.406-81.731,54.406-131.348S492.677,89.491,457.593,54.408z M145.417,400.657
	l-85.772,85.772c-9.396,9.396-24.682,9.394-34.077,0h0.001c-9.396-9.394-9.396-24.681,0-34.075l85.772-85.772
	c9.396-9.393,24.682-9.394,34.075,0C154.813,375.977,154.813,391.262,145.417,400.657z M444.486,303.999
	c-31.583,31.584-73.576,48.978-118.242,48.978s-86.659-17.394-118.242-48.978c-65.2-65.2-65.2-171.287,0-236.487
	c31.583-31.583,73.575-48.978,118.242-48.978s86.66,17.394,118.242,48.978c31.586,31.584,48.979,73.576,48.979,118.243
	S476.072,272.415,444.486,303.999z"/>
<path d="M424.243,87.756c-26.177-26.177-60.981-40.593-97.999-40.593s-71.823,14.416-97.999,40.593
	c-54.035,54.037-54.035,141.962,0,195.999c26.177,26.177,60.982,40.593,97.999,40.593c37.02,0,71.823-14.416,97.999-40.593
	c26.177-26.176,40.593-60.981,40.593-97.999S450.421,113.933,424.243,87.756z M411.137,270.649
	c-22.676,22.676-52.824,35.164-84.893,35.164c-32.068,0-62.217-12.488-84.893-35.164c-46.811-46.811-46.811-122.977,0-169.788
	c22.676-22.676,52.826-35.164,84.893-35.164c32.069,0,62.217,12.488,84.893,35.164c22.677,22.676,35.165,52.826,35.165,84.894
	S433.813,247.973,411.137,270.649z"/>
<g>
</g>
<g>
</g>
<g>
</g>
<g>
</g>
<g>
</g>
<g>
</g>
<g>
</g>
<g>
</g>
<g>
</g>
<g>
</g>
<g>
</g>
<g>
</g>
<g>
</g>
<g>
</g>
<g>
</g>
</svg>
