<?xml version="1.0" encoding="iso-8859-1"?>
<!-- Generator: Adobe Illustrator 19.0.0, SVG Export Plug-In . SVG Version: 6.00 Build 0)  -->
<svg version="1.1" id="Layer_1" xmlns="http://www.w3.org/2000/svg" xmlns:xlink="http://www.w3.org/1999/xlink" x="0px" y="0px"
	 viewBox="0 0 512.001 512.001" style="enable-background:new 0 0 512.001 512.001;" xml:space="preserve">
<circle style="fill:#90C666;" cx="256.389" cy="244.737" r="171.631"/>
<ellipse style="fill:#9DDA74;" cx="256.389" cy="244.737" rx="104.519" ry="171.631"/>
<path d="M75.416,244.733c0,99.572,81.008,180.58,180.58,180.58c99.571,0,180.579-81.008,180.579-180.58
	S355.568,64.154,255.996,64.154S75.416,145.161,75.416,244.733z M390.679,253.688h27.738c-2.006,36.793-16.296,70.367-38.829,96.689
	c-31.313-18.425-71.438-29.043-114.637-30.334v-66.355h66.355c4.947,0,8.955-4.009,8.955-8.955s-4.008-8.955-8.955-8.955h-66.355
	V169.43c25.332-0.757,49.602-4.727,71.663-11.592c9.724,25.787,14.946,55.637,14.946,86.896c0,22.418-2.667,44.142-7.93,64.571
	c-1.233,4.789,1.649,9.672,6.438,10.906c0.75,0.193,1.501,0.285,2.24,0.285c3.988,0,7.626-2.684,8.666-6.723
	c5.638-21.888,8.496-45.115,8.496-69.038c0-33.241-5.579-65.136-15.982-92.887c9.228-3.707,17.967-7.962,26.105-12.751
	c22.53,26.322,36.819,59.893,38.825,96.685h-27.738c-4.947,0-8.955,4.009-8.955,8.955S385.732,253.688,390.679,253.688z
	 M142.658,253.688c0.906,30.009,6.382,58.689,15.849,83.94c-9.227,3.707-17.965,7.961-26.103,12.749
	c-22.532-26.322-36.821-59.896-38.829-96.687h49.083V253.688z M247.042,320.043c-25.33,0.757-49.599,4.727-71.662,11.593
	c-8.792-23.314-13.9-49.95-14.797-77.948h86.458v66.355H247.042z M247.042,337.968v68.711
	c-21.368-3.453-41.448-19.211-57.304-45.246c-2.556-4.197-4.943-8.6-7.184-13.159C202.516,342.271,224.474,338.716,247.042,337.968z
	 M165.544,354.184c2.746,5.756,5.696,11.307,8.897,16.564c5.398,8.864,11.276,16.723,17.545,23.523
	c-17.355-7.457-33.16-17.853-46.79-30.553C151.573,360.209,158.382,357.026,165.544,354.184z M331.894,363.243
	c-4.132-2.719-9.684-1.574-12.404,2.557c-15.379,23.373-34.475,37.593-54.539,40.87v-68.701
	c37.849,1.252,73.976,10.41,101.843,25.75c-13.648,12.718-29.474,23.123-46.857,30.583c5.117-5.53,9.973-11.757,14.514-18.656
	C337.168,371.513,336.023,365.96,331.894,363.243z M264.951,82.788c21.368,3.453,41.448,19.211,57.303,45.246
	c2.557,4.199,4.945,8.604,7.186,13.166c-19.96,6.003-41.92,9.559-64.489,10.305V82.788L264.951,82.788z M346.451,135.288
	c-2.747-5.758-5.698-11.31-8.901-16.57c-5.398-8.864-11.276-16.722-17.545-23.523c17.358,7.459,33.162,17.854,46.793,30.558
	C360.423,129.263,353.614,132.447,346.451,135.288z M247.042,151.505c-22.557-0.747-44.506-4.299-64.46-10.298
	c16.137-32.828,39.455-54.211,64.46-58.377V151.505z M165.489,135.266c-7.143-2.836-13.935-6.013-20.296-9.513
	c13.587-12.662,29.334-23.031,46.626-30.484C181.81,106.117,172.915,119.581,165.489,135.266z M158.51,151.846
	c-1.756,4.713-3.406,9.566-4.912,14.59c-1.421,4.736,1.268,9.728,6.004,11.149c4.735,1.42,9.728-1.268,11.149-6.006
	c1.42-4.733,2.977-9.309,4.646-13.74c22.058,6.863,46.322,10.83,71.644,11.587v66.349h-86.458c0.269-8.267,0.9-16.485,1.902-24.526
	c0.612-4.907-2.87-9.381-7.779-9.993c-4.915-0.617-9.382,2.871-9.993,7.779c-1.092,8.771-1.78,17.731-2.055,26.741H93.576
	c2.006-36.79,16.294-70.362,38.825-96.684C140.54,143.884,149.281,148.139,158.51,151.846z"/>
<path d="M80.091,112.951c-28.706,38.255-43.879,83.824-43.879,131.781c0,22.461,3.378,44.617,10.04,65.856
	c1.201,3.828,4.733,6.277,8.542,6.277c0.887,0,1.791-0.133,2.683-0.413c4.718-1.48,7.343-6.506,5.863-11.224
	c-6.118-19.502-9.22-39.855-9.22-60.495c0-44.05,13.933-85.901,40.295-121.032c25.502-33.986,61.792-59.54,102.182-71.956
	c4.727-1.453,7.381-6.463,5.928-11.191c-1.453-4.729-6.465-7.379-11.191-5.928C147.356,48.144,107.848,75.961,80.091,112.951z"/>
<path d="M453.741,318.547c-4.553-1.925-9.81,0.203-11.735,4.759C410.324,398.21,337.313,446.609,256,446.609
	c-65.093,0-126.562-31.676-164.432-84.732c-2.874-4.026-8.466-4.961-12.491-2.087c-4.025,2.873-4.958,8.465-2.086,12.49
	c41.222,57.757,108.142,92.238,179.009,92.238c88.524,0,168.011-52.691,202.499-134.237
	C460.427,325.727,458.296,320.474,453.741,318.547z"/>
<path d="M315.401,51.744c40.385,12.415,76.671,37.97,102.171,71.956c26.36,35.131,40.293,76.984,40.293,121.032
	c0,6.238-0.288,12.539-0.857,18.731c-0.453,4.925,3.173,9.284,8.099,9.737c0.278,0.025,0.555,0.038,0.829,0.038
	c4.575,0,8.481-3.49,8.907-8.136c0.618-6.734,0.931-13.586,0.931-20.369c0-47.956-15.173-93.525-43.878-131.781
	c-27.753-36.991-67.258-64.808-111.232-78.327c-4.723-1.449-9.738,1.201-11.191,5.928C308.02,45.281,310.675,50.291,315.401,51.744z
	"/>
<path d="M32.831,138.255c1.325,0.695,2.746,1.023,4.147,1.023c3.225,0,6.341-1.748,7.94-4.803
	c24.339-46.495,63.97-84.181,111.595-106.115c4.492-2.068,6.456-7.387,4.388-11.879c-2.069-4.493-7.385-6.458-11.88-4.388
	C97.822,35.675,55.215,76.188,29.052,126.17C26.758,130.551,28.449,135.962,32.831,138.255z"/>
<path d="M335.251,469.317c-25.397,8.962-52.061,13.507-79.251,13.507C124.717,482.823,17.909,376.015,17.909,244.732
	c0-26.74,4.396-52.982,13.065-77.997c1.618-4.673-0.856-9.774-5.529-11.393c-4.677-1.621-9.775,0.856-11.394,5.528
	C4.728,187.777,0,215.991,0,244.732c0,141.159,114.841,256,256,256c29.227,0,57.895-4.888,85.211-14.527
	c4.664-1.645,7.11-6.761,5.464-11.424C345.029,470.118,339.913,467.672,335.251,469.317z"/>
<path d="M470.47,104.896C444,64.381,406.831,32.29,362.98,12.093c-4.495-2.07-9.812-0.104-11.88,4.387
	c-2.068,4.492-0.104,9.811,4.388,11.88c40.788,18.786,75.363,48.639,99.989,86.332c25.262,38.667,38.615,83.635,38.615,130.04
	c0,38.038-8.699,74.381-25.855,108.019c-16.369,32.095-40.274,60.549-69.135,82.286c-3.951,2.975-4.74,8.589-1.766,12.54
	c1.761,2.337,4.444,3.568,7.16,3.568c1.875,0,3.767-0.587,5.381-1.803c31.018-23.363,56.716-53.951,74.314-88.454
	c18.453-36.182,27.81-75.263,27.81-116.156C512,194.838,497.639,146.484,470.47,104.896z"/>
<g>
</g>
<g>
</g>
<g>
</g>
<g>
</g>
<g>
</g>
<g>
</g>
<g>
</g>
<g>
</g>
<g>
</g>
<g>
</g>
<g>
</g>
<g>
</g>
<g>
</g>
<g>
</g>
<g>
</g>
</svg>
