<?xml version="1.0" encoding="iso-8859-1"?>
<!-- Generator: Adobe Illustrator 19.0.0, SVG Export Plug-In . SVG Version: 6.00 Build 0)  -->
<svg version="1.1" id="Layer_1" xmlns="http://www.w3.org/2000/svg" xmlns:xlink="http://www.w3.org/1999/xlink" x="0px" y="0px"
	 viewBox="0 0 512 512" style="enable-background:new 0 0 512 512;" xml:space="preserve">
<g>
	<polygon style="fill:#F2F2F2;" points="447.324,120.677 447.324,502.271 65.535,502.271 65.535,9.75 336.398,9.75 336.398,120.677 
			"/>
	<polygon style="fill:#F2F2F2;" points="447.324,120.677 336.398,120.677 336.398,9.75 	"/>
</g>
<path style="fill:#7FE2B5;" d="M141.718,407.322v-28.346c0-111.047,90.022-201.068,201.068-201.068h28.346v28.346
	c0,111.047-90.022,201.068-201.068,201.068H141.718z"/>
<path d="M370.707,168.163h-28.346c-116.24,0-210.807,94.568-210.807,210.807v28.346c0,5.379,4.359,9.74,9.74,9.74h28.346
	c116.241,0,210.807-94.568,210.807-210.807v-28.347C380.446,172.523,376.087,168.163,370.707,168.163z M347.193,187.642
	l-60.695,60.695l-3.991-51.096c18.839-6.22,38.958-9.599,59.853-9.599H347.193z M263.546,204.639l4.828,61.823l-59.731,59.731
	l-8.91-74.603C217.407,231.821,239.109,215.73,263.546,204.639z M182.746,273.6l8.373,70.117l-40.087,40.087v-4.832
	C151.033,340.064,162.717,303.839,182.746,273.6z M169.639,397.578h-4.832l80.454-80.454l74.859,7.162
	C285.061,368.884,230.638,397.578,169.639,397.578z M332.882,305.938l-69.764-6.675l97.848-97.848v4.833
	C360.967,242.748,350.689,276.888,332.882,305.938z"/>
<path d="M453.782,113.78L342.856,2.853C341.029,1.026,338.551,0,335.968,0H65.105c-5.38,0-9.74,4.361-9.74,9.74V502.26
	c0,5.379,4.359,9.74,9.74,9.74h381.789c5.38,0,9.74-4.361,9.74-9.74V120.666C456.634,118.083,455.608,115.605,453.782,113.78z
	 M345.707,33.252l77.673,77.673h-77.673V33.252z M74.845,492.521V19.479h251.383v101.187c0,5.379,4.359,9.74,9.74,9.74h101.187
	v362.115L74.845,492.521L74.845,492.521z"/>
<g>
</g>
<g>
</g>
<g>
</g>
<g>
</g>
<g>
</g>
<g>
</g>
<g>
</g>
<g>
</g>
<g>
</g>
<g>
</g>
<g>
</g>
<g>
</g>
<g>
</g>
<g>
</g>
<g>
</g>
</svg>
