<?xml version="1.0" encoding="iso-8859-1"?>
<!-- Generator: Adobe Illustrator 19.0.0, SVG Export Plug-In . SVG Version: 6.00 Build 0)  -->
<svg version="1.1" id="Layer_1" xmlns="http://www.w3.org/2000/svg" xmlns:xlink="http://www.w3.org/1999/xlink" x="0px" y="0px"
	 viewBox="0 0 512.001 512.001" style="enable-background:new 0 0 512.001 512.001;" xml:space="preserve">
<g>
	<path style="fill:#7FE2B5;" d="M256.403,420.442h18.331c71.811,0,130.026-58.215,130.026-130.026v-18.331h-18.331
		c-71.811,0-130.026,58.215-130.026,130.026L256.403,420.442L256.403,420.442z"/>
	<path style="fill:#7FE2B5;" d="M256.403,333.289h-18.331c-71.811,0-130.026-58.215-130.026-130.026v-18.331h18.331
		c71.811,0,130.026,58.215,130.026,130.026V333.289z"/>
</g>
<path d="M404.356,262.869h-18.331c-51.622,0-96.773,28.24-120.817,70.082l-0.001-175.98c0-51.077-17.737-101.037-49.945-140.678
	c-3.207-3.946-9.005-4.547-12.954-1.34c-3.948,3.207-4.548,9.006-1.34,12.954c29.549,36.369,45.822,82.204,45.822,129.064v88.828
	c-24.043-41.842-69.193-70.082-120.817-70.082h-18.33c-5.086,0-9.209,4.123-9.209,9.209v18.331
	c0,76.774,62.461,139.235,139.235,139.235h9.122v160.298c0,5.086,4.123,9.209,9.209,9.209c5.086,0,9.209-4.123,9.209-9.209v-73.146
	h9.123c76.774,0,139.235-62.461,139.235-139.235V272.08C413.565,266.993,409.443,262.869,404.356,262.869z M146.666,236.972
	l-24.451,1.909c-3.109-10.056-4.934-20.671-5.29-31.651L146.666,236.972z M129.947,194.209c20.907,0.679,40.487,6.696,57.421,16.73
	l-3.553,37.138L129.947,194.209z M233.694,324.002c-20.131-0.654-39.031-6.254-55.522-15.626l35.64-4.257L233.694,324.002z
	 M298.186,391.272l35.64,4.257c-16.493,9.371-35.392,14.972-55.523,15.626L298.186,391.272z M328.185,335.227l-3.552-37.137
	c16.934-10.033,36.512-16.05,57.419-16.73L328.185,335.227z M395.076,294.384c-0.357,10.98-2.181,21.593-5.29,31.651l-24.451-1.909
	L395.076,294.384z M307.319,310.518l3.98,41.594l-46.017,46.018C266.417,363.153,282.489,331.886,307.319,310.518z M246.718,310.979
	l-46.016-46.016l3.98-41.596C229.51,244.735,245.581,276,246.718,310.979z M129.383,256.796l34.416-2.688l33.441,33.441
	l-40.988,4.896C145.235,282.377,136.086,270.297,129.383,256.796z M355.746,379.596l-40.988-4.896l33.441-33.44l34.417,2.688
	C375.913,357.449,366.765,369.529,355.746,379.596z"/>
<path d="M262.739,49.653c4.197,2.87,9.929,1.791,12.799-2.407l5.632-8.242V259.07c0,5.086,4.122,9.209,9.209,9.209
	c5.087,0,9.209-4.123,9.209-9.209V39.005l5.632,8.242c1.784,2.609,4.673,4.014,7.612,4.014c1.79,0,3.599-0.521,5.188-1.607
	c4.199-2.87,5.277-8.6,2.408-12.799L297.982,4.013C296.265,1.502,293.42,0,290.378,0s-5.886,1.502-7.603,4.013l-22.444,32.841
	C257.461,41.053,258.539,46.783,262.739,49.653z"/>
<g>
</g>
<g>
</g>
<g>
</g>
<g>
</g>
<g>
</g>
<g>
</g>
<g>
</g>
<g>
</g>
<g>
</g>
<g>
</g>
<g>
</g>
<g>
</g>
<g>
</g>
<g>
</g>
<g>
</g>
</svg>
