<?xml version="1.0" encoding="iso-8859-1"?>
<!-- Generator: Adobe Illustrator 19.0.0, SVG Export Plug-In . SVG Version: 6.00 Build 0)  -->
<svg version="1.1" id="Layer_1" xmlns="http://www.w3.org/2000/svg" xmlns:xlink="http://www.w3.org/1999/xlink" x="0px" y="0px"
	 viewBox="0 0 512 512" style="enable-background:new 0 0 512 512;" xml:space="preserve">
<g>
	<path style="fill:#7FE2B5;" d="M255.389,465.329h-14.835c-58.117,0-105.23-47.113-105.23-105.23v-14.835h14.835
		c58.117,0,105.23,47.113,105.23,105.23V465.329z"/>
	<path style="fill:#7FE2B5;" d="M257.374,382.044h14.835c58.117,0,105.23-47.113,105.23-105.23v-14.836h-14.835
		c-58.117,0-105.23,47.113-105.23,105.23V382.044z"/>
</g>
<path style="fill:#E04F56;" d="M325.855,91.487H188.892v74.622c0,37.821,30.66,68.482,68.482,68.482l0,0l0,0
	c37.821,0,68.482-30.66,68.482-68.482V91.487H325.855z"/>
<path style="fill:#FD6568;" d="M301.373,116.085h-87.999v61.795c0,31.32,19.698,56.71,43.999,56.71l0,0l0,0
	c24.3,0,43.999-25.39,43.999-56.71V116.085z"/>
<path style="fill:#7FE2B5;" d="M281.741,230.115v14.527c0,9.916-8.039,17.954-17.954,17.954h-12.813
	c-9.916,0-17.954-8.039-17.954-17.954v-14.527"/>
<path d="M377.057,253.223h-14.836c-40.587,0-76.282,21.328-96.48,53.362v-35.351c13.633-1.189,24.367-12.659,24.367-26.596v-8.777
	c26.06-12.421,44.115-39.018,44.115-69.756v-65.874h16.931c4.833,0,8.75-3.918,8.75-8.75s-3.916-8.75-8.75-8.75h-25.681h-15.504
	V8.75c0-4.832-3.916-8.75-8.75-8.75s-8.75,3.918-8.75,8.75v73.983h-70.955V8.75c0-4.832-3.916-8.75-8.75-8.75s-8.75,3.918-8.75,8.75
	v73.983H188.51h-25.681c-4.833,0-8.75,3.918-8.75,8.75s3.916,8.75,8.75,8.75h16.931v65.872c0,30.744,18.061,57.342,44.125,69.762
	v8.772c0,13.933,10.727,25.401,24.356,26.594v121.903c-19.788-33.841-56.513-56.626-98.463-56.626h-14.835
	c-4.833,0-8.75,3.918-8.75,8.75v14.835c0,62.849,51.131,113.979,113.979,113.979h8.068v29.176c0,4.832,3.916,8.75,8.75,8.75
	c4.833,0,8.75-3.918,8.75-8.75V390.787h6.086c62.849,0,113.979-51.131,113.979-113.979v-14.835
	C385.807,257.141,381.889,253.223,377.057,253.223z M197.259,166.104v-65.872h119.464v65.872c0,32.936-26.796,59.732-59.732,59.732
	C224.055,225.836,197.259,199.041,197.259,166.104z M241.385,244.638v-2.889c5.042,1.038,10.262,1.585,15.606,1.585
	c5.349,0,10.572-0.548,15.618-1.589v2.891c0,5.076-4.129,9.205-9.205,9.205h-12.813
	C245.515,253.843,241.385,249.713,241.385,244.638z M291.605,359.798l24.12,2.88c-11.345,5.824-23.981,9.462-37.364,10.363
	L291.605,359.798z M316.439,310.215l-2.533-26.471c12.443-7.232,26.634-11.758,41.78-12.777L316.439,310.215z M368.061,283.343
	c-0.485,7.218-1.763,14.22-3.757,20.92l-15.921-1.244L368.061,283.343z M297.474,295.738l2.92,30.522l-34.407,34.407
	C267.714,334.991,279.508,312.031,297.474,295.738z M163.615,386.306l-15.921,1.244c-1.993-6.701-3.271-13.702-3.757-20.921
	L163.615,386.306z M156.312,354.255c15.145,1.02,29.336,5.545,41.779,12.777l-2.533,26.47L156.312,354.255z M233.636,456.329
	c-13.381-0.901-26.017-4.539-37.362-10.363l24.119-2.88L233.636,456.329z M246.011,443.954l-34.407-34.409l2.92-30.522
	C232.49,395.316,244.284,418.278,246.011,443.954z M154.594,404.564l25.302-1.976l24.753,24.753l-29.91,3.572
	C166.6,423.387,159.767,414.477,154.594,404.564z M337.26,347.626l-29.91-3.572l24.753-24.753l25.302,1.976
	C352.232,331.19,345.399,340.1,337.26,347.626z"/>
<circle cx="233.127" cy="156.62" r="8.75"/>
<circle cx="280.865" cy="156.62" r="8.75"/>
<g>
</g>
<g>
</g>
<g>
</g>
<g>
</g>
<g>
</g>
<g>
</g>
<g>
</g>
<g>
</g>
<g>
</g>
<g>
</g>
<g>
</g>
<g>
</g>
<g>
</g>
<g>
</g>
<g>
</g>
</svg>
