<?xml version="1.0" encoding="iso-8859-1"?>
<!-- Generator: Adobe Illustrator 19.0.0, SVG Export Plug-In . SVG Version: 6.00 Build 0)  -->
<svg version="1.1" id="Layer_1" xmlns="http://www.w3.org/2000/svg" xmlns:xlink="http://www.w3.org/1999/xlink" x="0px" y="0px"
	 viewBox="0 0 512 512" style="enable-background:new 0 0 512 512;" xml:space="preserve">
<path style="fill:#90C666;" d="M503.21,256.004c0,123.464-90.641,225.752-209.022,243.939c-12.321,1.898-24.935,2.878-37.783,2.878
	c-136.311,0-246.817-110.506-246.817-246.817S120.094,9.187,256.405,9.187c12.847,0,25.462,0.98,37.783,2.878
	C412.569,30.252,503.21,132.54,503.21,256.004z"/>
<path style="fill:#9DDA74;" d="M503.21,256.004c0,123.464-90.641,225.752-209.022,243.939
	C175.807,481.756,85.166,379.467,85.166,256.004S175.807,30.252,294.188,12.065C412.569,30.252,503.21,132.54,503.21,256.004z"/>
<path d="M256,0C114.842,0,0,114.842,0,256s114.842,256,256,256c141.16,0,256-114.842,256-256S397.16,0,256,0z M256,493.629
	c-131.029,0-237.629-106.6-237.629-237.629S124.971,18.371,256,18.371c131.03,0,237.629,106.601,237.629,237.629
	S387.03,493.629,256,493.629z"/>
<path d="M321.637,208.897c4.108,0,7.848-2.775,8.9-6.939l11.623-46.047c1.242-4.918-1.739-9.913-6.659-11.153
	c-4.921-1.243-9.912,1.739-11.154,6.659l-6.032,23.9l-36.203-62.703c-5.449-9.438-15.207-15.071-26.105-15.071l0,0
	c-10.896,0-20.656,5.634-26.105,15.071l-56.262,97.442c-2.536,4.393-1.031,10.011,3.362,12.547c1.448,0.835,3.026,1.232,4.585,1.232
	c3.174,0,6.262-1.647,7.963-4.594l56.262-97.441c3.068-5.313,8.153-5.887,10.196-5.886c2.044,0,7.128,0.573,10.196,5.886
	l36.8,63.737l-25.17-6.353c-4.921-1.243-9.913,1.739-11.153,6.659c-1.242,4.918,1.739,9.913,6.659,11.153l46.047,11.623
	C320.137,208.807,320.893,208.897,321.637,208.897z"/>
<path d="M251.377,353.945H132.165c-6.135,0-9.174-4.117-10.197-5.887c-1.021-1.77-3.067-6.46,0-11.773l39.955-69.203l6.549,24.164
	c1.108,4.092,4.814,6.785,8.86,6.785c0.795,0,1.604-0.104,2.408-0.322c4.896-1.326,7.79-6.372,6.463-11.269l-12.421-45.837
	c-1.326-4.896-6.375-7.789-11.267-6.463l-45.839,12.421c-4.896,1.326-7.79,6.372-6.463,11.269c1.326,4.895,6.371,7.788,11.267,6.463
	l24.71-6.696l-40.13,69.503c-5.449,9.438-5.449,20.706,0,30.144c5.449,9.438,15.207,15.073,26.106,15.073h119.211
	c5.073,0,9.185-4.113,9.185-9.185C260.562,358.058,256.449,353.945,251.377,353.945z"/>
<path d="M347.033,225.069c-2.536-4.394-8.153-5.898-12.547-3.362c-4.393,2.536-5.898,8.154-3.362,12.547l58.909,102.031
	c3.067,5.313,1.021,10.003,0,11.773c-1.021,1.77-4.061,5.887-10.197,5.887h-73.048l17.949-17.904
	c3.592-3.582,3.599-9.398,0.017-12.991c-3.582-3.591-9.398-3.598-12.989-0.016l-33.625,33.539c-1.726,1.721-2.696,4.056-2.699,6.492
	c-0.002,2.436,0.961,4.774,2.682,6.498l33.54,33.623c1.794,1.799,4.148,2.698,6.503,2.698c2.347,0,4.694-0.894,6.487-2.682
	c3.592-3.582,3.598-9.398,0.016-12.989l-17.853-17.897h73.019c10.898,0,20.657-5.635,26.106-15.073
	c5.449-9.438,5.449-20.706,0-30.144L347.033,225.069z"/>
<g>
</g>
<g>
</g>
<g>
</g>
<g>
</g>
<g>
</g>
<g>
</g>
<g>
</g>
<g>
</g>
<g>
</g>
<g>
</g>
<g>
</g>
<g>
</g>
<g>
</g>
<g>
</g>
<g>
</g>
</svg>
