<?xml version="1.0" encoding="iso-8859-1"?>
<!-- Generator: Adobe Illustrator 19.0.0, SVG Export Plug-In . SVG Version: 6.00 Build 0)  -->
<svg version="1.1" id="Layer_1" xmlns="http://www.w3.org/2000/svg" xmlns:xlink="http://www.w3.org/1999/xlink" x="0px" y="0px"
	 viewBox="0 0 512 512" style="enable-background:new 0 0 512 512;" xml:space="preserve">
<path style="fill:#E04F56;" d="M406.464,471.774c8.583,0,15.544,6.961,15.544,15.544c0,4.291-1.743,8.18-4.559,10.984
	c-2.804,2.816-6.693,4.559-10.984,4.559h-300.12c-8.595,0-15.544-6.961-15.544-15.544c0-4.291,1.731-8.18,4.547-10.984
	c2.816-2.816,6.693-4.559,10.996-4.559h1.024h298.06H406.464z"/>
<path style="fill:#FD6568;" d="M428.871,95.204v31.721h-23.443h-298.06H83.936V95.204c0-17.226,13.971-31.197,31.197-31.197h69.952
	h142.624h69.952C414.9,64.007,428.871,77.978,428.871,95.204z"/>
<path style="fill:#E04F56;" d="M192.448,64.007h-77.316c-17.226,0-31.197,13.971-31.197,31.197v31.721h23.431h53.885V95.204
	C161.252,77.978,175.223,64.007,192.448,64.007z"/>
<rect x="107.366" y="126.921" style="fill:#FD6568;" width="298.06" height="344.849"/>
<g>
	<rect x="107.366" y="126.921" style="fill:#E04F56;" width="298.06" height="32.916"/>
	<rect x="107.366" y="126.921" style="fill:#E04F56;" width="39.365" height="344.849"/>
</g>
<path d="M397.264,54.857h-60.807V38.304C336.457,17.183,319.274,0,298.153,0h-84.306c-21.121,0-38.304,17.183-38.304,38.304v16.553
	h-60.807c-22.246,0-40.346,18.099-40.346,40.345v31.719c0,5.05,4.093,9.143,9.143,9.143h14.295v327.96
	c-9.635,3.366-16.576,12.521-16.576,23.29c0,13.613,11.074,24.686,24.686,24.686h300.125c13.611,0,24.686-11.073,24.686-24.686
	c0-10.768-6.943-19.925-16.577-23.29v-327.96h14.296c5.051,0,9.143-4.094,9.143-9.143V95.203
	C437.609,72.956,419.51,54.857,397.264,54.857z M193.829,38.304c0-11.038,8.98-20.018,20.018-20.018h84.306
	c11.038,0,20.018,8.98,20.018,20.018v16.553H193.829V38.304z M406.063,493.713H105.937c-3.529,0-6.399-2.87-6.399-6.399
	c0-3.529,2.87-6.4,6.399-6.4h1.034h298.056h1.035c3.529,0,6.399,2.871,6.399,6.4C412.462,490.844,409.591,493.713,406.063,493.713z
	 M395.884,462.629h-279.77V136.065h279.77V462.629z M419.323,117.778H92.676V95.203c0-12.163,9.896-22.059,22.06-22.059h282.528
	c12.164,0,22.06,9.896,22.06,22.059v22.575H419.323z"/>
<path d="M244.873,381.632c23.963,0,46.686-10.417,62.345-28.58c3.296-3.824,2.87-9.598-0.955-12.896
	c-3.824-3.295-9.597-2.871-12.896,0.956c-12.181,14.129-29.856,22.233-48.494,22.233c-35.29,0-64-28.71-64-64s28.71-64,64-64
	c29.443,0,54.289,19.991,61.72,47.108l-16.496-11.115c-4.189-2.822-9.871-1.714-12.691,2.474c-2.821,4.188-1.714,9.87,2.474,12.692
	l33.027,22.252c1.52,1.025,3.301,1.56,5.108,1.56c0.584,0,1.169-0.056,1.749-0.169c2.381-0.463,4.479-1.854,5.833-3.865
	l22.252-33.027c2.821-4.189,1.714-9.87-2.474-12.692c-4.188-2.822-9.87-1.714-12.691,2.474l-8.864,13.157
	c-10.027-34.134-41.613-59.135-78.948-59.135c-45.373,0-82.286,36.913-82.286,82.286S199.5,381.632,244.873,381.632z"/>
<g>
</g>
<g>
</g>
<g>
</g>
<g>
</g>
<g>
</g>
<g>
</g>
<g>
</g>
<g>
</g>
<g>
</g>
<g>
</g>
<g>
</g>
<g>
</g>
<g>
</g>
<g>
</g>
<g>
</g>
</svg>
