<?xml version="1.0" encoding="iso-8859-1"?>
<!-- Generator: Adobe Illustrator 19.0.0, SVG Export Plug-In . SVG Version: 6.00 Build 0)  -->
<svg version="1.1" id="Layer_1" xmlns="http://www.w3.org/2000/svg" xmlns:xlink="http://www.w3.org/1999/xlink" x="0px" y="0px"
	 viewBox="0 0 511.999 511.999" style="enable-background:new 0 0 511.999 511.999;" xml:space="preserve">
<path style="fill:#E04F56;" d="M485.937,206.678h-94.699v51.595c0,26.15,21.199,47.349,47.349,47.349l0,0l0,0
	c26.15,0,47.349-21.199,47.349-47.349V206.678z"/>
<path style="fill:#FD6568;" d="M470.113,232.39h-63.052v38.188c0,19.354,14.114,35.044,31.525,35.044l0,0l0,0
	c17.411,0,31.525-15.69,31.525-35.044V232.39H470.113z"/>
<path style="fill:#D8C05B;" d="M253.905,206.672c0,40.782-27.126,75.228-64.318,86.278c-8.131,2.421-16.748,3.718-25.667,3.718
	c-49.701,0-89.984-40.296-89.984-89.996c0-49.689,40.284-89.984,89.984-89.984c8.919,0,17.536,1.297,25.667,3.718
	C226.779,131.456,253.905,165.902,253.905,206.672z"/>
<path style="fill:#F8DF70;" d="M253.905,206.672c0,40.782-27.126,75.228-64.318,86.278c-37.191-11.05-64.318-45.496-64.318-86.278
	c0-40.77,27.126-75.217,64.318-86.267C226.779,131.456,253.905,165.902,253.905,206.672z"/>
<path d="M332.522,422.428l-21.986,21.988l-6.851-18.692c-1.02-2.784-3.39-4.855-6.286-5.494c-2.896-0.639-5.916,0.244-8.014,2.341
	l-27.905,27.905c-3.394,3.392-3.394,8.893-0.001,12.286c3.393,3.391,8.892,3.392,12.286,0l18.286-18.286l6.851,18.693
	c1.02,2.784,3.39,4.855,6.286,5.494c0.622,0.137,1.249,0.204,1.871,0.204c2.278,0,4.496-0.898,6.143-2.545l31.605-31.606
	c3.392-3.392,3.392-8.893,0-12.286C341.415,419.035,335.916,419.035,332.522,422.428z"/>
<path d="M262.212,206.672c0-54.408-44.264-98.673-98.671-98.673s-98.673,44.265-98.673,98.673s44.265,98.673,98.673,98.673
	S262.212,261.081,262.212,206.672z M82.24,206.672c0-44.828,36.47-81.299,81.299-81.299c44.828,0,81.298,36.471,81.298,81.299
	s-36.47,81.299-81.298,81.299C118.71,287.971,82.24,251.501,82.24,206.672z"/>
<path d="M163.539,94.712c4.799,0,8.687-3.889,8.687-8.687V51.82c0-4.797-3.888-8.687-8.687-8.687c-4.799,0-8.687,3.889-8.687,8.687
	v34.204C154.852,90.823,158.742,94.712,163.539,94.712z"/>
<path d="M237.568,436.717h-19.49c-25.282,0-45.852-20.569-45.852-45.852V327.32c0-4.797-3.888-8.687-8.687-8.687
	c-4.799,0-8.687,3.889-8.687,8.687v63.545c0,34.862,28.362,63.225,63.225,63.225h19.49c4.799,0,8.687-3.889,8.687-8.687
	C246.254,440.607,242.366,436.717,237.568,436.717z"/>
<path d="M248.85,130.048c2.223,0,4.447-0.848,6.143-2.545l24.187-24.187c3.393-3.393,3.393-8.892,0-12.284
	c-3.394-3.393-8.893-3.393-12.286,0l-24.187,24.187c-3.393,3.393-3.393,8.892,0,12.284
	C244.404,129.201,246.627,130.048,248.85,130.048z"/>
<path d="M72.087,285.84l-24.188,24.187c-3.394,3.393-3.394,8.893-0.001,12.286c1.697,1.697,3.92,2.545,6.143,2.545
	c2.223,0,4.447-0.848,6.142-2.545l24.188-24.187c3.394-3.393,3.394-8.893,0.001-12.286C80.98,282.449,75.48,282.447,72.087,285.84z"
	/>
<path d="M275.499,206.672c0,4.797,3.888,8.687,8.687,8.687h34.205c4.799,0,8.687-3.889,8.687-8.687c0-4.797-3.888-8.687-8.687-8.687
	h-34.205C279.389,197.986,275.499,201.875,275.499,206.672z"/>
<path d="M51.579,206.672c0-4.797-3.888-8.687-8.687-8.687H8.687c-4.799,0-8.687,3.889-8.687,8.687c0,4.797,3.888,8.687,8.687,8.687
	h34.205C47.691,215.359,51.579,211.47,51.579,206.672z"/>
<path d="M72.087,127.505c1.696,1.696,3.92,2.545,6.142,2.545s4.447-0.848,6.143-2.545c3.393-3.393,3.393-8.893-0.001-12.286
	L60.184,91.033c-3.391-3.393-8.892-3.391-12.284,0c-3.393,3.393-3.393,8.893,0.001,12.286L72.087,127.505z"/>
<path d="M242.707,285.841c-3.393,3.393-3.393,8.892,0,12.284l24.187,24.187c1.697,1.697,3.92,2.545,6.143,2.545
	c2.223,0,4.447-0.848,6.143-2.545c3.393-3.392,3.393-8.892,0-12.284l-24.187-24.187
	C251.601,282.449,246.102,282.447,242.707,285.841z"/>
<path d="M503.313,197.986h-17.756h-8.083V149.47c0-4.797-3.888-8.687-8.687-8.687s-8.687,3.889-8.687,8.687v48.516h-43.785V149.47
	c0-4.797-3.888-8.687-8.687-8.687s-8.687,3.889-8.687,8.687v48.516h-8.083h-17.756c-4.799,0-8.687,3.889-8.687,8.687
	c0,4.797,3.888,8.687,8.687,8.687h9.069v42.909c0,27.944,20.561,51.173,47.349,55.36v77.238c0,25.282-20.569,45.852-45.852,45.852
	h-20.437c-4.799,0-8.687,3.889-8.687,8.687c0,4.797,3.888,8.687,8.687,8.687h20.437c34.863,0,63.225-28.363,63.225-63.225v-77.238
	c26.787-4.187,47.349-27.416,47.349-55.36v-42.909h9.069c4.799,0,8.687-3.889,8.687-8.687
	C511.999,201.875,508.111,197.986,503.313,197.986z M476.87,258.268c0,21.319-17.345,38.662-38.662,38.662
	s-38.662-17.344-38.662-38.662v-42.909h77.325V258.268z"/>
<circle cx="421.707" cy="251.698" r="8.687"/>
<circle cx="454.718" cy="251.698" r="8.687"/>
<g>
</g>
<g>
</g>
<g>
</g>
<g>
</g>
<g>
</g>
<g>
</g>
<g>
</g>
<g>
</g>
<g>
</g>
<g>
</g>
<g>
</g>
<g>
</g>
<g>
</g>
<g>
</g>
<g>
</g>
</svg>
