<?xml version="1.0" encoding="iso-8859-1"?>
<!-- Generator: Adobe Illustrator 19.0.0, SVG Export Plug-In . SVG Version: 6.00 Build 0)  -->
<svg version="1.1" id="Layer_1" xmlns="http://www.w3.org/2000/svg" xmlns:xlink="http://www.w3.org/1999/xlink" x="0px" y="0px"
	 viewBox="0 0 512 512" style="enable-background:new 0 0 512 512;" xml:space="preserve">
<path style="fill:#68B9DA;" d="M264.851,196.934V433.89c0,32.167-21.793,59.782-51.59,67.573c-5.198,1.358-10.641,2.115-16.25,2.193
	c-38.389,0.49-69.654-30.475-69.654-68.742v-237.98c0-17.252,6.367-33.013,16.874-45.078c7.769-8.927,11.798-20.513,11.798-32.345
	v-71.09c0-22.127,17.942-40.07,40.07-40.07c6.177,0,12.021,1.402,17.252,3.896c4.129,1.97,7.869,4.641,11.075,7.847
	c7.257,7.246,11.743,17.263,11.743,28.327v71.09c0,11.832,4.029,23.418,11.809,32.345
	C258.484,163.921,264.851,179.682,264.851,196.934z"/>
<path style="fill:#80D2EE;" d="M264.851,196.934V433.89c0,32.167-21.793,59.782-51.59,67.573c-29.574-7.691-51.4-34.571-51.4-66.549
	v-237.98c0-17.252,6.367-33.013,16.874-45.078c7.769-8.927,11.798-20.513,11.798-32.345v-71.09c0-15.95,9.327-29.729,22.817-36.174
	c4.129,1.97,7.869,4.641,11.075,7.847c7.257,7.246,11.743,17.263,11.743,28.327v71.09c0,11.832,4.029,23.418,11.809,32.345
	C258.484,163.921,264.851,179.682,264.851,196.934z"/>
<path style="fill:#FD6568;" d="M208.342,94.056v346.156c0,3.384-1.369,6.445-3.584,8.659c-2.215,2.215-5.276,3.584-8.659,3.584
	c-6.756,0-12.243-5.476-12.243-12.243V94.055C183.855,94.055,208.342,94.055,208.342,94.056z"/>
<path d="M389.679,249.824c-3.827-2.577-9.012-1.565-11.588,2.258l-8.094,12.012c-9.155-31.164-37.994-53.99-72.08-53.99
	c-41.425,0-75.127,33.702-75.127,75.127c0,41.425,33.702,75.127,75.127,75.127c21.878,0,42.624-9.511,56.921-26.093
	c3.01-3.492,2.62-8.763-0.871-11.774c-3.492-3.009-8.763-2.621-11.774,0.873c-11.122,12.9-27.258,20.299-44.275,20.299
	c-32.219,0-58.431-26.212-58.431-58.431s26.212-58.431,58.431-58.431c26.881,0,49.566,18.251,56.35,43.008l-15.061-10.148
	c-3.824-2.577-9.012-1.565-11.587,2.258c-2.576,3.823-1.565,9.011,2.258,11.588l30.153,20.316c1.43,0.964,3.052,1.426,4.657,1.426
	c2.684,0,5.318-1.291,6.931-3.684l20.318-30.153C394.513,257.588,393.502,252.4,389.679,249.824z"/>
<path d="M264.483,361.739c-4.611,0-8.348,3.738-8.348,8.348v63.793c0,33.44-26.734,60.993-59.595,61.419
	c-16.308,0.224-31.648-5.97-43.234-17.407c-11.588-11.439-17.971-26.705-17.971-42.987V196.934c0-14.565,5.264-28.631,14.82-39.605
	c8.936-10.261,13.856-23.694,13.856-37.826V48.417c0-17.491,14.23-31.722,31.722-31.722s31.722,14.23,31.722,31.722v71.086
	c0,14.131,4.922,27.565,13.857,37.827c9.558,10.973,14.82,25.039,14.82,39.604c0,4.61,3.736,8.348,8.348,8.348
	c4.611,0,8.348-3.738,8.348-8.348c0-18.597-6.721-36.556-18.925-50.569c-6.289-7.223-9.754-16.762-9.754-26.862V48.417
	C244.149,21.72,222.43,0,195.732,0s-48.417,21.72-48.417,48.417v71.086c0,10.101-3.463,19.641-9.752,26.862
	c-12.205,14.013-18.925,31.973-18.925,50.569v237.971c0,20.782,8.145,40.269,22.938,54.869C156.122,504.131,175.313,512,195.724,512
	c0.343,0,0.688-0.002,1.033-0.007c41.947-0.544,76.073-35.586,76.073-78.113v-63.793
	C272.83,365.477,269.093,361.739,264.483,361.739z"/>
<path d="M195.735,460.8c11.354,0,20.591-9.237,20.591-20.591V48.776c0-10.713-8.183-19.875-18.628-20.857
	c-5.766-0.544-11.537,1.377-15.816,5.271c-4.283,3.898-6.738,9.448-6.738,15.226v135.236H155.24c-4.611,0-8.348,3.738-8.348,8.348
	c0,4.61,3.736,8.348,8.348,8.348h19.905v33.948H155.24c-4.611,0-8.348,3.738-8.348,8.348c0,4.61,3.736,8.348,8.348,8.348h19.905
	v33.948H155.24c-4.611,0-8.348,3.738-8.348,8.348c0,4.61,3.736,8.348,8.348,8.348h19.905v33.948H155.24
	c-4.611,0-8.348,3.738-8.348,8.348s3.736,8.348,8.348,8.348h19.905v33.948H155.24c-4.611,0-8.348,3.738-8.348,8.348
	c0,4.61,3.736,8.348,8.348,8.348h19.905v37.287C175.144,451.563,184.381,460.8,195.735,460.8z M195.735,444.104
	c-2.148,0-3.896-1.747-3.896-3.896V102.4h7.791v337.809C199.631,442.357,197.884,444.104,195.735,444.104z M193.121,45.538
	c0.434-0.394,1.322-1.015,2.62-1.015c0.127,0,0.258,0.006,0.394,0.019c1.928,0.181,3.497,2.081,3.497,4.235v36.927h-7.791V48.417
	C191.84,46.926,192.642,45.973,193.121,45.538z"/>
<g>
</g>
<g>
</g>
<g>
</g>
<g>
</g>
<g>
</g>
<g>
</g>
<g>
</g>
<g>
</g>
<g>
</g>
<g>
</g>
<g>
</g>
<g>
</g>
<g>
</g>
<g>
</g>
<g>
</g>
</svg>
