<?xml version="1.0" encoding="iso-8859-1"?>
<!-- Generator: Adobe Illustrator 19.0.0, SVG Export Plug-In . SVG Version: 6.00 Build 0)  -->
<svg version="1.1" id="Layer_1" xmlns="http://www.w3.org/2000/svg" xmlns:xlink="http://www.w3.org/1999/xlink" x="0px" y="0px"
	 viewBox="0 0 512.002 512.002" style="enable-background:new 0 0 512.002 512.002;" xml:space="preserve">
<polygon style="fill:#C79175;" points="365.73,348.804 363.554,375.725 353.189,503.59 159.546,503.59 149.181,375.725 
	147.005,348.804 "/>
<polygon style="fill:#B27C64;" points="147.005,348.804 159.546,503.59 206.656,503.59 194.115,348.804 "/>
<polygon style="fill:#C79175;" points="385.405,291.596 397.699,348.804 365.73,348.804 147.005,348.804 115.036,348.804 
	127.341,291.596 "/>
<g>
	<polygon style="fill:#B27C64;" points="127.341,291.596 115.036,348.804 147.005,348.804 175.606,348.804 187.911,291.596 	"/>
	<polygon style="fill:#B27C64;" points="365.73,348.804 363.554,375.725 149.181,375.725 147.005,348.804 	"/>
</g>
<path style="fill:#7FE2B5;" d="M256.373,8.417c60.685,0,109.873,49.199,109.873,109.884s-49.188,109.884-109.873,109.884
	s-109.884-49.199-109.884-109.884S195.688,8.417,256.373,8.417z"/>
<path style="fill:#64BF94;" d="M196.963,118.301c0-52,36.125-95.562,84.646-106.967c-8.103-1.905-16.552-2.916-25.238-2.916
	c-60.685,0-109.884,49.199-109.884,109.884s49.199,109.884,109.884,109.884c8.685,0,17.133-1.012,25.238-2.916
	C233.089,213.863,196.963,170.301,196.963,118.301z"/>
<path d="M405.556,347.029l-12.297-57.206c-0.833-3.877-4.26-6.645-8.226-6.645h-60.892v-13.46c0-4.646-3.767-8.413-8.413-8.413
	s-8.413,3.767-8.413,8.413v13.46h-13.039v-13.46c0-4.646-3.767-8.413-8.413-8.413c-4.646,0-8.413,3.767-8.413,8.413v13.46h-13.039
	v-46.892c61.316-4.33,109.882-55.593,109.882-117.992C374.295,53.066,321.229,0,256.002,0c-65.228,0-118.295,53.066-118.295,118.295
	c0,62.399,48.565,113.662,109.882,117.992v46.892h-56.363v-13.46c0-4.646-3.767-8.413-8.413-8.413c-4.646,0-8.413,3.767-8.413,8.413
	v13.46h-47.431c-3.965,0-7.392,2.768-8.226,6.645l-12.297,57.206c-0.534,2.485,0.084,5.078,1.681,7.056
	c1.597,1.976,4.002,3.126,6.544,3.126h24.208l11.913,147.057c0.353,4.369,4.002,7.734,8.386,7.734h193.646
	c4.383,0,8.032-3.365,8.386-7.734l11.913-147.057h24.208c2.542,0,4.947-1.149,6.544-3.126
	C405.472,352.106,406.09,349.513,405.556,347.029z M154.533,118.295c0-55.95,45.518-101.469,101.469-101.469
	c55.949,0,101.469,45.518,101.469,101.469c0,53.117-41.027,96.826-93.056,101.118v-62.729l23.709-14.369
	c3.973-2.408,5.243-7.582,2.835-11.555c-2.408-3.973-7.582-5.244-11.555-2.835l-14.987,9.084v-18.714
	c0-4.646-3.767-8.413-8.413-8.413c-4.646,0-8.413,3.767-8.413,8.413V174.1l-10.394-6.236c-3.984-2.393-9.152-1.098-11.543,2.886
	s-1.098,9.152,2.886,11.543l19.049,11.429v25.69C195.56,215.121,154.533,171.411,154.533,118.295z M345.065,495.174H166.937
	L155.761,357.21h200.481L345.065,495.174z M365.364,340.384H146.638h-21.554l8.68-40.38h244.473l8.68,40.38H365.364z"/>
<g>
</g>
<g>
</g>
<g>
</g>
<g>
</g>
<g>
</g>
<g>
</g>
<g>
</g>
<g>
</g>
<g>
</g>
<g>
</g>
<g>
</g>
<g>
</g>
<g>
</g>
<g>
</g>
<g>
</g>
</svg>
