<?xml version="1.0" encoding="iso-8859-1"?>
<!-- Generator: Adobe Illustrator 19.0.0, SVG Export Plug-In . SVG Version: 6.00 Build 0)  -->
<svg version="1.1" id="Layer_1" xmlns="http://www.w3.org/2000/svg" xmlns:xlink="http://www.w3.org/1999/xlink" x="0px" y="0px"
	 viewBox="0 0 512.001 512.001" style="enable-background:new 0 0 512.001 512.001;" xml:space="preserve">
<path style="fill:#80D2EE;" d="M280.771,200.852L280.771,200.852c-24.999-24.999-24.999-65.531,0-90.53l45.265-45.265l45.265,45.265
	c24.999,24.999,24.999,65.53,0,90.53l0,0C346.301,225.851,305.77,225.851,280.771,200.852z"/>
<g>
	<path style="fill:#EFBF8B;" d="M462.547,313.041l-13.372-14.004c-15.263-15.986-41.92-11.012-50.391,9.401l-15.559,37.49"/>
	<path style="fill:#EFBF8B;" d="M43.054,433.825l59.283-30.093c7.698-3.907,16.569-4.833,24.908-2.597l162.044,43.448
		c16.13,4.325,33.279,2.694,48.305-4.593l149.497-72.506c14.443-7.004,20.441-24.417,13.373-38.831l0,0
		c-6.735-13.736-22.986-19.87-37.116-14.011l-114.714,47.561c-8.893,3.688-18.775,4.247-28.029,1.588l-104.108-29.915
		c-11.299-3.247-18.198-14.642-15.834-26.16l0,0c2.625-12.792,15.548-20.673,28.123-17.15l90.804,25.435
		c12.17,3.409,24.921-3.086,29.317-14.936l0,0c4.816-12.979-2.177-27.352-15.362-31.574l-143.439-45.926
		c-1.058-0.339-2.12-0.659-3.187-0.958c-26.336-7.415-54.65-1.42-76.527,15.01L9.341,313.502"/>
</g>
<path d="M325.644,228.545c19.489,0,37.811-7.589,51.593-21.37c13.781-13.781,21.37-32.103,21.37-51.593
	c0-19.489-7.589-37.812-21.37-51.592l-45.265-45.265c-3.496-3.494-9.16-3.494-12.655,0l-45.265,45.265
	c-28.447,28.449-28.446,74.737,0.001,103.185C287.833,220.955,306.156,228.545,325.644,228.545z M286.707,116.644l38.938-38.938
	l38.938,38.938c10.401,10.401,16.13,24.229,16.13,38.938s-5.729,28.537-16.13,38.938c-10.401,10.4-24.229,16.129-38.938,16.129
	c-14.708,0-28.537-5.728-38.937-16.129l-6.329,6.327l6.328-6.327C265.236,173.05,265.236,138.115,286.707,116.644z"/>
<path d="M508.107,324.71c-7.748-15.803-25.245-23.928-41.912-20.401l-10.939-11.457c-9.265-9.702-22.665-14.027-35.856-11.566
	c-13.187,2.461-24.13,11.327-29.271,23.716l-15.11,36.408l-30.205,12.524c-6.994,2.899-14.852,3.344-22.13,1.254l-104.108-29.915
	c-6.765-1.943-10.956-8.867-9.541-15.76c0.766-3.728,2.976-6.872,6.224-8.853c3.25-1.983,7.056-2.509,10.721-1.481l90.802,25.435
	c16.527,4.627,34.15-4.349,40.119-20.44c3.188-8.591,2.736-17.859-1.272-26.098c-4.009-8.239-11.023-14.317-19.75-17.11
	L192.443,215.04c-1.161-0.372-2.324-0.722-3.493-1.05c-28.416-8.002-59.94-1.844-84.326,16.468L3.575,306.342
	c-3.951,2.967-4.748,8.576-1.781,12.528c2.966,3.951,8.577,4.747,12.528,1.781l101.051-75.886
	c19.955-14.984,45.647-20.049,68.73-13.551c0.963,0.271,1.923,0.56,2.881,0.867l143.439,45.926c4.028,1.29,7.265,4.093,9.115,7.896
	c1.849,3.802,2.058,8.078,0.587,12.044c-2.756,7.427-10.894,11.568-18.514,9.432l-90.803-25.435
	c-8.379-2.347-17.44-1.094-24.866,3.435c-7.427,4.529-12.689,12.013-14.437,20.534c-3.281,15.992,6.439,32.051,22.129,36.559
	l104.108,29.914c11.153,3.206,23.203,2.525,33.926-1.922l114.714-47.561c9.741-4.037,21.011,0.214,25.656,9.685
	c2.362,4.819,2.702,10.266,0.954,15.34c-1.748,5.074-5.369,9.158-10.197,11.5l-149.497,72.506
	c-13.088,6.347-28.032,7.769-42.083,4.002l-162.044-43.448c-10.491-2.812-21.596-1.654-31.275,3.261l-59.282,30.093
	c-4.406,2.237-6.166,7.622-3.929,12.03c2.236,4.406,7.62,6.165,12.028,3.928l59.282-30.093c5.74-2.913,12.323-3.601,18.54-1.933
	l162.044,43.448c6.672,1.788,13.497,2.675,20.304,2.675c11.768,0,23.481-2.649,34.224-7.86l149.497-72.505
	c9.142-4.435,16-12.167,19.31-21.773C513.222,344.149,512.58,333.833,508.107,324.71z M406.657,311.862
	c2.859-6.885,8.699-11.617,16.025-12.984c7.325-1.366,14.483,0.941,19.63,6.332l5.678,5.946l-49.568,20.552L406.657,311.862z"/>
<g>
</g>
<g>
</g>
<g>
</g>
<g>
</g>
<g>
</g>
<g>
</g>
<g>
</g>
<g>
</g>
<g>
</g>
<g>
</g>
<g>
</g>
<g>
</g>
<g>
</g>
<g>
</g>
<g>
</g>
</svg>
