<?xml version="1.0" encoding="iso-8859-1"?>
<!-- Generator: Adobe Illustrator 19.0.0, SVG Export Plug-In . SVG Version: 6.00 Build 0)  -->
<svg version="1.1" id="Capa_1" xmlns="http://www.w3.org/2000/svg" xmlns:xlink="http://www.w3.org/1999/xlink" x="0px" y="0px"
	 viewBox="0 0 512 512" style="enable-background:new 0 0 512 512;" xml:space="preserve">
<path style="fill:#FFCDAC;" d="M129.728,78.597v15.294c0,21.941-17.787,39.728-39.728,39.728l0,0l0,0
	c-21.941,0-39.728-17.787-39.728-39.728V78.597H129.728z"/>
<path style="fill:#E6AA46;" d="M90,37.112L90,37.112c-21.941,0-39.728,17.787-39.728,39.728v9.564h19.424
	c12.912,0,25.162-5.717,33.455-15.614l0,0l26.576,15.614V76.84C129.728,54.899,111.941,37.112,90,37.112z"/>
<rect x="45.17" y="293" style="fill:#BEBEBE;" width="89.66" height="182"/>
<path style="fill:#AAE6FF;" d="M45.169,293v20.333H10V190.131c0-17.706,12.635-32.891,30.046-36.111l22.219-4.108
	c6.277-1.161,10.832-6.635,10.832-13.019v-6.324h33.795v6.324c0,6.384,4.555,11.858,10.833,13.019l22.228,4.109
	C157.365,157.24,170,172.425,170,190.132v123.202h-35.169V293H45.169z"/>
<path style="fill:#FFCDAC;" d="M90.015,167.627l21.449-20.732c-2.821-2.447-4.571-6.049-4.571-10.003v-6.324H73.098v6.324
	c0,3.946-1.744,7.541-4.556,9.988L90.015,167.627z"/>
<polygon style="fill:#FFFFFF;" points="105.667,230.351 89.997,167.627 74.333,230.351 90.003,249.127 "/>
<path style="fill:#FFCDAC;" d="M460.768,52.571v15.695c0,22.516-18.253,40.768-40.768,40.768l0,0l0,0
	c-22.516,0-40.768-18.253-40.768-40.768V52.571H460.768z"/>
<path style="fill:#E6AA46;" d="M420,10L420,10c-22.516,0-40.768,18.253-40.768,40.768v9.814h19.933
	c13.25,0,25.821-5.867,34.331-16.023l0,0l27.272,16.023v-9.814C460.768,28.253,442.516,10,420,10z"/>
<path style="fill:#D7FA91;" d="M338,236v-69.041c0-18.149,12.951-33.714,30.797-37.013l22.775-4.211
	c6.434-1.19,11.103-6.801,11.103-13.344v-6.482h34.64v6.482c0,6.543,4.669,12.155,11.104,13.344l22.784,4.212
	C489.049,133.246,502,148.811,502,166.96V236H338z"/>
<g>
	<path style="fill:#FFCDAC;" d="M437.314,112.39v-6.482h-34.64v6.482c0,4.044-1.787,7.728-4.668,10.237l22.011,21.266l21.984-21.249
		C439.109,120.136,437.314,116.443,437.314,112.39z"/>
	<path style="fill:#FFCDAC;" d="M460.768,318.571v15.695c0,22.516-18.253,40.768-40.768,40.768l0,0l0,0
		c-22.516,0-40.768-18.253-40.768-40.768v-15.695H460.768z"/>
</g>
<path style="fill:#878791;" d="M420,276L420,276c-22.516,0-40.768,18.253-40.768,40.768v9.814h19.933
	c13.25,0,25.821-5.867,34.331-16.023l0,0l27.272,16.023v-9.814C460.768,294.253,442.516,276,420,276z"/>
<path style="fill:#FF5A5A;" d="M338,502v-69.041c0-18.149,12.951-33.714,30.797-37.013l22.775-4.211
	c6.434-1.19,11.103-6.801,11.103-13.344v-6.482h34.64v6.482c0,6.543,4.669,12.155,11.104,13.344l22.784,4.212
	C489.049,399.246,502,414.811,502,432.96V502H338z"/>
<path style="fill:#FFCDAC;" d="M437.314,377.536v-6.482h-34.64v6.482c0,4.044-1.787,7.728-4.668,10.237l22.011,21.266l21.984-21.249
	C439.109,385.282,437.314,381.589,437.314,377.536z"/>
<path d="M141.771,144.188l-22.229-4.109c-1.536-0.284-2.65-1.624-2.65-3.186v-1.155C130.773,126.843,140,111.293,140,93.619V77
	c0-27.57-22.43-50-50-50S40,49.43,40,77v16.619c0,17.67,9.222,33.217,23.098,42.113v1.162c0,1.562-1.115,2.901-2.651,3.185
	l-22.219,4.108C16.077,148.282,0,167.604,0,190.131v123.203c0,5.523,4.478,10,10,10h25.169V475c0,5.523,4.478,10,10,10h89.662
	c5.522,0,10-4.477,10-10v-49.5c0-5.523-4.478-10-10-10s-10,4.477-10,10V465H100V303h24.831v46c0,5.523,4.478,10,10,10
	s10-4.477,10-10v-25.667H170c5.522,0,10-4.477,10-10V190.132C180,167.605,163.923,148.283,141.771,144.188z M89.999,208.893
	l4.734,18.953l-4.731,5.672l-4.736-5.674L89.999,208.893z M90.003,153.721l-8.557-8.267c0.315-0.794,0.603-1.602,0.831-2.434
	c2.518,0.392,5.097,0.598,7.723,0.598c2.623,0,5.199-0.206,7.714-0.597c0.228,0.835,0.517,1.644,0.833,2.44L90.003,153.721z
	 M90,123.619c-15.526,0-28.334-11.856-29.849-26.99h9.406c13.104,0,25.585-4.717,35.318-13.162L120,92.352v1.267
	C120,110.161,106.542,123.619,90,123.619z M90,47c13.563,0,25.052,9.046,28.751,21.422l-10.444-6.136
	c-4.211-2.475-9.592-1.544-12.73,2.2c-6.466,7.717-15.949,12.143-26.019,12.143h-9.556C60.202,60.258,73.582,47,90,47z M80,465
	H55.169V303H80V465z M160,303.333h-15.169v-94.957c0-5.523-4.478-10-10-10s-10,4.477-10,10V283H55.169v-74.624
	c0-5.523-4.478-10-10-10s-10,4.477-10,10v94.957H20V190.131c0-12.884,9.195-23.935,21.864-26.277l22.219-4.108
	c0.915-0.169,1.799-0.409,2.669-0.679l12.145,11.734L64.63,227.928c-0.773,3.098-0.021,6.379,2.024,8.831l15.67,18.775
	c1.9,2.277,4.713,3.593,7.679,3.593s5.778-1.317,7.678-3.594l15.664-18.776c2.045-2.452,2.797-5.732,2.023-8.83L101.1,170.811
	l12.147-11.741c0.867,0.269,1.749,0.507,2.66,0.675l22.228,4.109c12.67,2.342,21.865,13.393,21.865,26.277L160,303.333L160,303.333z
	"/>
<path d="M134.83,375c-2.63,0-5.21,1.07-7.07,2.93c-1.86,1.86-2.93,4.44-2.93,7.07s1.069,5.21,2.93,7.07s4.44,2.93,7.07,2.93
	s5.21-1.07,7.069-2.93c1.86-1.86,2.931-4.44,2.931-7.07s-1.07-5.21-2.931-7.07C140.04,376.07,137.46,375,134.83,375z"/>
<path d="M297.563,102.507h-41.437c-5.522,0-10,4.477-10,10v36.591c0,5.523,4.478,10,10,10s10-4.477,10-10v-26.591h31.437
	c5.522,0,10-4.477,10-10S303.086,102.507,297.563,102.507z"/>
<path d="M256.13,191.55c2.63,0,5.21-1.07,7.07-2.93c1.859-1.86,2.93-4.43,2.93-7.07c0-2.63-1.07-5.21-2.93-7.07
	s-4.44-2.93-7.07-2.93c-2.64,0-5.21,1.07-7.07,2.93c-1.87,1.86-2.93,4.44-2.93,7.07c0,2.64,1.06,5.21,2.93,7.07
	C250.92,190.48,253.49,191.55,256.13,191.55z"/>
<path d="M297.563,389.493h-31.437V219.44c0-5.523-4.478-10-10-10s-10,4.477-10,10v26.687h-28.128c-5.522,0-10,4.477-10,10
	s4.478,10,10,10h28.128v133.366c0,5.523,4.478,10,10,10h41.437c5.522,0,10-4.477,10-10S303.086,389.493,297.563,389.493z"/>
<path d="M473.02,120.113l-22.784-4.212c-1.692-0.313-2.921-1.79-2.921-3.511v-1.32C461.538,102.01,471,86.111,471,68.034V51
	c0-28.122-22.879-51-51-51s-51,22.878-51,51v17.034c0,18.073,9.458,33.968,23.675,43.029v1.327c0,1.722-1.229,3.198-2.922,3.511
	l-22.774,4.211C344.393,124.289,328,143.99,328,166.959V236c0,5.523,4.478,10,10,10h164c5.522,0,10-4.477,10-10v-69.04
	C512,143.991,495.606,124.289,473.02,120.113z M420.003,129.987l-9.067-8.76c0.375-0.924,0.703-1.869,0.959-2.844
	c2.641,0.424,5.347,0.651,8.105,0.651c2.755,0,5.457-0.227,8.095-0.649c0.257,0.977,0.586,1.925,0.962,2.851L420.003,129.987z
	 M420,99.034c-16.137,0-29.428-12.396-30.865-28.165h9.911c13.433,0,26.222-4.857,36.174-13.548L451,66.593v1.442
	C451,85.127,437.094,99.034,420,99.034z M420,20c14.234,0,26.259,9.643,29.883,22.74l-11.245-6.606
	c-4.211-2.474-9.592-1.544-12.73,2.199C419.231,46.3,409.44,50.87,399.046,50.87H389C389.071,33.836,402.95,20,420,20z M492,226
	h-16.048v-42.774c0-5.523-4.478-10-10-10s-10,4.477-10,10V226h-71.904v-42.774c0-5.523-4.478-10-10-10s-10,4.477-10,10V226H348
	v-59.041c0-13.326,9.511-24.757,22.615-27.18l22.774-4.211c0.977-0.181,1.92-0.44,2.847-0.734L410,148.132v53.534
	c0,5.523,4.478,10,10,10s10-4.477,10-10V148.14l13.763-13.302c0.924,0.293,1.864,0.551,2.838,0.731l22.783,4.212
	C482.488,142.202,492,153.633,492,166.96V226z"/>
<path d="M473.02,386.113l-22.784-4.212c-1.692-0.313-2.921-1.79-2.921-3.511v-1.32C461.538,368.01,471,352.111,471,334.034V317
	c0-28.122-22.879-51-51-51s-51,22.878-51,51v17.034c0,18.073,9.458,33.968,23.675,43.029v1.327c0,1.722-1.229,3.198-2.922,3.511
	l-22.774,4.211C344.393,390.289,328,409.99,328,432.959V502c0,5.523,4.478,10,10,10h164c5.522,0,10-4.477,10-10v-69.04
	C512,409.991,495.606,390.289,473.02,386.113z M420.003,395.987l-9.067-8.76c0.375-0.924,0.703-1.869,0.959-2.844
	c2.641,0.424,5.347,0.651,8.105,0.651c2.755,0,5.457-0.227,8.095-0.649c0.257,0.977,0.586,1.925,0.962,2.851L420.003,395.987z
	 M420,365.034c-16.137,0-29.428-12.396-30.865-28.165h9.911c13.433,0,26.222-4.857,36.174-13.548l15.78,9.271v1.442
	C451,351.127,437.094,365.034,420,365.034z M420,286c14.234,0,26.259,9.643,29.883,22.74l-11.245-6.606
	c-4.211-2.475-9.592-1.544-12.73,2.199c-6.676,7.967-16.467,12.537-26.861,12.537H389C389.071,299.836,402.95,286,420,286z M492,492
	h-16.048v-42.774c0-5.523-4.478-10-10-10s-10,4.477-10,10V492h-71.904v-42.774c0-5.523-4.478-10-10-10s-10,4.477-10,10V492H348
	v-59.041c0-13.326,9.511-24.757,22.615-27.18l22.774-4.211c0.977-0.181,1.92-0.44,2.847-0.734L410,414.132v53.534
	c0,5.523,4.478,10,10,10s10-4.477,10-10V414.14l13.763-13.302c0.924,0.293,1.864,0.551,2.838,0.731l22.783,4.212
	C482.488,408.202,492,419.633,492,432.96V492z"/>
<g>
</g>
<g>
</g>
<g>
</g>
<g>
</g>
<g>
</g>
<g>
</g>
<g>
</g>
<g>
</g>
<g>
</g>
<g>
</g>
<g>
</g>
<g>
</g>
<g>
</g>
<g>
</g>
<g>
</g>
</svg>
