<?xml version="1.0" encoding="iso-8859-1"?>
<!-- Generator: Adobe Illustrator 19.0.0, SVG Export Plug-In . SVG Version: 6.00 Build 0)  -->
<svg version="1.1" id="Capa_1" xmlns="http://www.w3.org/2000/svg" xmlns:xlink="http://www.w3.org/1999/xlink" x="0px" y="0px"
	 viewBox="0 0 512 512" style="enable-background:new 0 0 512 512;" xml:space="preserve">
<path style="fill:#AAE6FF;" d="M223.404,10L223.404,10L223.404,10C129.186,10,52.808,86.378,52.808,180.596v13.714L18,336.395h54
	v23.419c0,35.353,28.659,64.012,64.012,64.012h36.927c15.13,0,27.395,12.265,27.395,27.395V502H394V180.596
	C394,86.378,317.622,10,223.404,10z"/>
<circle style="fill:#F5B955;" cx="394" cy="265.8" r="100"/>
<path d="M172.938,413.826h-36.927c-29.782,0-54.012-24.229-54.012-54.012v-23.419c0-2.652-1.054-5.196-2.929-7.071
	c-1.876-1.875-4.419-2.929-7.071-2.929H30.744l31.775-129.706c0.19-0.779,0.287-1.578,0.287-2.379v-13.714
	C62.808,92.043,134.851,20,223.404,20c42.896,0,83.226,16.705,113.558,47.038c3.906,3.905,10.236,3.906,14.143,0
	c3.905-3.905,3.905-10.237,0-14.142C316.995,18.785,271.643,0,223.403,0C123.822,0,42.808,81.015,42.808,180.596v12.507
	L8.287,334.016c-0.73,2.983-0.05,6.136,1.846,8.552s4.796,3.827,7.867,3.827h44v13.419c0,40.81,33.201,74.012,74.012,74.012h36.927
	c9.592,0,17.395,7.803,17.395,17.395V502c0,5.523,4.478,10,10,10s10-4.477,10-10v-50.779
	C210.333,430.601,193.558,413.826,172.938,413.826z"/>
<path d="M90.59,189.11c-1.86,1.87-2.93,4.44-2.93,7.07s1.069,5.21,2.93,7.08c1.86,1.86,4.44,2.92,7.07,2.92
	c2.64,0,5.21-1.06,7.069-2.92c1.86-1.87,2.931-4.44,2.931-7.08c0-2.63-1.07-5.2-2.931-7.07c-1.859-1.86-4.43-2.93-7.069-2.93
	C95.03,186.18,92.45,187.25,90.59,189.11z"/>
<path d="M394,155.802c-60.654,0-110,49.346-110,110s49.346,110,110,110s110-49.346,110-110S454.654,155.802,394,155.802z
	 M394,355.802c-49.626,0-90-40.374-90-90s40.374-90,90-90s90,40.374,90,90S443.626,355.802,394,355.802z"/>
<path d="M369.929,256.585c5.522,0,10-4.477,10-10c0-10.185-8.286-18.471-18.471-18.471s-18.471,8.286-18.471,18.471
	c0,5.523,4.478,10,10,10c3.568,0,6.701-1.87,8.471-4.683C363.228,254.716,366.36,256.585,369.929,256.585z"/>
<path d="M429.365,228.114c-10.185,0-18.471,8.286-18.471,18.471c0,5.523,4.478,10,10,10c3.568,0,6.701-1.87,8.471-4.683
	c1.77,2.813,4.902,4.683,8.471,4.683c5.522,0,10-4.477,10-10C447.836,236.4,439.55,228.114,429.365,228.114z"/>
<path d="M419.936,278.862c-5.522,0-10,4.477-10,10c0,8.008-6.516,14.524-14.524,14.524s-14.523-6.516-14.523-14.524
	c0-5.523-4.478-10-10-10s-10,4.477-10,10c0,19.037,15.487,34.524,34.523,34.524c19.037,0,34.524-15.487,34.524-34.524
	C429.936,283.339,425.458,278.862,419.936,278.862z"/>
<path d="M394.152,129.644c5.522,0,10-4.477,10-10V78.44c0-5.523-4.478-10-10-10s-10,4.477-10,10v41.204
	C384.152,125.167,388.63,129.644,394.152,129.644z"/>
<path d="M329.842,118.146c-3.907-3.903-10.24-3.901-14.142,0.007c-3.903,3.907-3.9,10.239,0.007,14.142l13.767,13.753
	c1.952,1.95,4.51,2.925,7.067,2.925c2.561,0,5.122-0.978,7.074-2.933c3.903-3.907,3.9-10.239-0.007-14.142L329.842,118.146z"/>
<path d="M451.566,149.231c2.561,0,5.122-0.978,7.074-2.933l13.659-13.673c3.903-3.907,3.9-10.239-0.007-14.142
	c-3.907-3.903-10.24-3.901-14.142,0.007l-13.659,13.673c-3.903,3.907-3.9,10.239,0.007,14.142
	C446.451,148.256,449.009,149.231,451.566,149.231z"/>
<path d="M394,404.8c-2.63,0-5.21,1.07-7.07,2.93c-1.86,1.86-2.93,4.44-2.93,7.07c0,2.64,1.069,5.21,2.93,7.07
	c1.86,1.86,4.44,2.93,7.07,2.93s5.21-1.07,7.069-2.93c1.86-1.86,2.931-4.43,2.931-7.07c0-2.63-1.07-5.21-2.931-7.07
	C399.21,405.87,396.63,404.8,394,404.8z"/>
<path d="M394,444.5c-5.522,0-10,4.477-10,10V502c0,5.523,4.478,10,10,10s10-4.477,10-10v-47.5C404,448.977,399.522,444.5,394,444.5z
	"/>
<path d="M223.403,44.854l-0.597,0.001c-5.523,0.014-9.988,4.503-9.975,10.026c0.015,5.514,4.488,9.974,9.999,9.974
	c0.009,0,0.019,0,0.026,0l0.546-0.001c5.522,0,10-4.477,10-10S228.926,44.854,223.403,44.854z"/>
<path d="M181.807,51.349c-27.271,8.771-51.579,26.442-68.448,49.76c-3.237,4.475-2.234,10.726,2.24,13.963
	c1.771,1.282,3.821,1.899,5.854,1.899c3.099,0,6.154-1.437,8.109-4.14c14.393-19.894,35.121-34.967,58.368-42.443
	c5.258-1.691,8.149-7.324,6.458-12.582C192.697,52.551,187.066,49.658,181.807,51.349z"/>
<g>
</g>
<g>
</g>
<g>
</g>
<g>
</g>
<g>
</g>
<g>
</g>
<g>
</g>
<g>
</g>
<g>
</g>
<g>
</g>
<g>
</g>
<g>
</g>
<g>
</g>
<g>
</g>
<g>
</g>
</svg>
