<?xml version="1.0" encoding="iso-8859-1"?>
<!-- Generator: Adobe Illustrator 19.0.0, SVG Export Plug-In . SVG Version: 6.00 Build 0)  -->
<svg version="1.1" id="Capa_1" xmlns="http://www.w3.org/2000/svg" xmlns:xlink="http://www.w3.org/1999/xlink" x="0px" y="0px"
	 viewBox="0 0 512 512" style="enable-background:new 0 0 512 512;" xml:space="preserve">
<polygon style="fill:#78D2FA;" points="502,64.004 447.997,64.004 447.997,10.001 383.994,74.004 383.994,128.007 437.997,128.007 
	"/>
<circle style="fill:#FF8C8C;" cx="257.272" cy="256.021" r="181.658"/>
<path style="fill:#FFFFFF;" d="M372.08,256.012c0-64.115-51.975-116.091-116.091-116.091c-32.057,0-61.081,12.994-82.089,34.003
	s-34.003,50.031-34.003,82.089c0,64.115,51.975,116.091,116.091,116.091S372.08,320.127,372.08,256.012z"/>
<circle style="fill:#FF5A5A;" cx="255.992" cy="256.011" r="57.753"/>
<g>
	<circle style="fill:#F5C86E;" cx="256.282" cy="75.003" r="65.003"/>
	<circle style="fill:#F5C86E;" cx="75.003" cy="256.011" r="65.003"/>
	<circle style="fill:#F5C86E;" cx="255.992" cy="437" r="65.003"/>
	<circle style="fill:#F5C86E;" cx="437" cy="256.041" r="65.003"/>
</g>
<polygon points="180.985,437.025 180.985,437.025 180.985,437.023 "/>
<path d="M437.008,181.036c-0.006,0-0.007,0-0.012,0c-1.727,0-3.435,0.076-5.133,0.192c-6.635-15.594-15.258-30.102-25.561-43.221
	h31.694c2.652,0,5.195-1.054,7.071-2.929l64.003-64.003c2.859-2.86,3.715-7.161,2.168-10.898c-1.548-3.737-5.194-6.173-9.239-6.173
	h-44.002V10.001c0-4.044-2.437-7.691-6.173-9.239c-3.737-1.549-8.038-0.691-10.898,2.167l-64.003,64.003
	c-1.875,1.875-2.929,4.419-2.929,7.071v31.695c-13.03-10.233-27.432-18.808-42.908-25.424c0.118-1.707,0.199-3.42,0.202-5.147
	c0.067-41.356-33.523-75.058-74.88-75.126c-0.043,0-0.083,0-0.126,0c-41.297,0-74.932,33.566-75,74.88
	c-0.003,1.725,0.073,3.437,0.186,5.142c-9.384,3.981-18.48,8.715-27.114,14.149c-4.674,2.942-6.079,9.116-3.138,13.791
	c1.9,3.02,5.15,4.675,8.474,4.675c1.819,0,3.662-0.497,5.316-1.538c6.583-4.143,13.467-7.827,20.55-11.033
	c3.664,10.364,9.617,19.869,17.607,27.885c3.408,3.419,7.089,6.464,10.992,9.125c-35.849,12.647-64.32,41.052-77.033,76.87
	c-2.653-3.901-5.691-7.582-9.102-10.991c-8.007-8.001-17.505-13.967-27.865-17.645c2.602-5.725,5.524-11.318,8.738-16.713
	c2.826-4.745,1.271-10.883-3.475-13.709c-4.746-2.827-10.883-1.27-13.71,3.474c-4.364,7.328-8.246,14.983-11.592,22.835
	c-1.695-0.113-3.397-0.191-5.112-0.191c-0.008,0-0.02,0-0.028,0C33.62,181.024-0.014,214.683,0,256.039
	c0.016,41.349,33.657,74.975,75.002,74.975c0.008,0,0.021,0,0.028,0c1.709-0.001,3.406-0.079,5.096-0.192
	c19.348,45.461,55.588,81.703,101.05,101.053c-0.114,1.707-0.193,3.421-0.192,5.148c0.007,20.034,7.815,38.867,21.987,53.027
	C217.136,504.207,235.961,512,255.987,512c0.008,0,0.02,0,0.028,0c41.356-0.015,74.99-33.674,74.976-75.031
	c-0.001-1.713-0.076-3.409-0.19-5.094c45.451-19.347,81.688-55.578,101.038-101.028c1.706,0.115,3.419,0.195,5.146,0.195
	c0.005,0,0.008,0,0.013,0c41.35-0.001,74.995-33.639,75.002-74.991C512.007,214.695,478.366,181.043,437.008,181.036z
	 M374.888,214.051c-5.204-14.705-13.068-28.155-23.003-39.793l31.959-31.958c11.365,12.775,20.834,27.275,28.002,43.079
	C396.691,190.79,383.775,200.948,374.888,214.051z M433.854,118.006h-25.716l12.001-12.001h25.716L433.854,118.006z M465.855,86.005
	h-25.716l12.001-12.001h25.716L465.855,86.005z M437.997,59.861l-12.001,12.001V46.145l12.001-12.001V59.861z M405.995,66.146
	v25.716l-12.001,12.001V78.146L405.995,66.146z M369.699,128.159l-31.952,31.952c-11.574-9.881-24.949-17.701-39.56-22.906
	c3.917-2.65,7.625-5.667,11.049-9.079c8.016-7.99,14.001-17.475,17.699-27.826C342.616,107.45,357.008,116.87,369.699,128.159z
	 M202.201,85.03c-0.018-0.127-0.042-0.253-0.065-0.38c-0.56-3.184-0.859-6.436-0.854-9.736c0.05-30.298,24.713-54.912,55-54.912
	c0.029,0,0.063,0,0.092,0c30.328,0.05,54.962,24.764,54.912,55.092c-0.005,3.294-0.314,6.538-0.882,9.714
	c-0.026,0.139-0.052,0.277-0.073,0.416c-2.024,10.828-7.247,20.791-15.219,28.735c-10.384,10.349-24.168,16.046-38.826,16.046
	c-0.03,0-0.063,0-0.093,0c-14.692-0.024-28.494-5.768-38.866-16.174C209.38,105.858,204.188,95.872,202.201,85.03z M75.023,311.015
	c-0.007,0-0.013,0-0.021,0c-30.317-0.001-54.989-24.662-55.001-54.982c-0.011-30.328,24.654-55.011,54.982-55.023
	c0.007,0,0.014,0,0.021,0c3.244,0,6.441,0.295,9.571,0.841c0.15,0.03,0.299,0.055,0.449,0.078
	c10.868,1.99,20.874,7.199,28.857,15.177c10.392,10.384,16.119,24.195,16.124,38.887c0.006,14.692-5.71,28.506-16.096,38.898
	c-7.968,7.974-17.958,13.189-28.812,15.192c-0.127,0.018-0.254,0.042-0.381,0.066C81.548,310.71,78.31,311.013,75.023,311.015z
	 M100.163,326.707c10.374-3.684,19.884-9.66,27.896-17.679c3.397-3.4,6.409-7.08,9.053-10.969
	c12.684,35.754,41.067,64.131,76.819,76.818c-3.903,2.654-7.588,5.691-10.998,9.104c-7.999,8.005-13.965,17.501-17.642,27.859
	C147.56,394.711,117.289,364.439,100.163,326.707z M256.008,491.999c-0.007,0-0.014,0-0.021,0c-14.685,0-28.49-5.716-38.878-16.096
	c-10.392-10.384-16.119-24.195-16.124-38.887l0,0c-0.001-3.299,0.302-6.55,0.865-9.732c0.024-0.128,0.048-0.255,0.066-0.383
	c2-10.839,7.204-20.818,15.164-28.783c10.384-10.392,24.195-16.119,38.888-16.125c0.007,0,0.013,0,0.021,0
	c30.317,0,54.989,24.661,55.001,54.981C311.002,467.305,286.336,491.988,256.008,491.999z M326.655,411.853
	c-5.404-15.144-15.551-28.045-28.635-36.933c3.552-1.259,7.063-2.671,10.52-4.258c5.02-2.304,7.221-8.241,4.916-13.261
	c-2.305-5.02-8.243-7.219-13.261-4.917c-13.903,6.382-28.775,9.618-44.207,9.618c-58.499,0-106.091-47.592-106.091-106.091
	s47.592-106.091,106.091-106.091c25.656,0,49.212,9.155,67.578,24.369l-27.128,27.128c-11.263-8.264-25.144-13.161-40.153-13.161
	c-37.51,0-68.026,30.516-68.026,68.026s30.517,68.027,68.026,68.027s68.026-30.517,68.026-68.027
	c0-15.301-5.081-29.436-13.641-40.813l27.038-27.038c15.214,18.366,24.369,41.922,24.369,67.578c0,14.733-2.96,28.989-8.797,42.373
	c-2.208,5.063,0.105,10.956,5.168,13.165c5.064,2.209,10.957-0.106,13.165-5.168c1.191-2.73,2.271-5.492,3.26-8.279
	c2.647,3.891,5.677,7.563,9.078,10.964c8.002,8.004,17.496,13.975,27.853,17.658C394.674,364.458,364.394,394.73,326.655,411.853z
	 M304.311,256.285c0,26.481-21.544,48.026-48.025,48.026s-48.025-21.544-48.025-48.026s21.544-48.025,48.025-48.025
	c9.482,0,18.323,2.773,25.777,7.535l-29.633,29.633c-3.905,3.905-3.905,10.237,0,14.144c1.953,1.953,4.512,2.929,7.071,2.929
	c2.559,0,5.118-0.976,7.071-2.929l29.757-29.757C301.368,237.41,304.311,246.508,304.311,256.285z M475.883,294.938
	c-10.388,10.385-24.196,16.105-38.886,16.104c-0.003,0-0.007,0-0.009,0c-3.299-0.001-6.549-0.305-9.73-0.87
	c-0.131-0.024-0.262-0.049-0.393-0.068c-10.835-2.007-20.808-7.216-28.766-15.178c-10.387-10.39-16.106-24.203-16.105-38.895
	c0.005-30.326,24.677-54.994,55.002-54.994c0.002,0,0.006,0,0.008,0c30.329,0.005,54.999,24.683,54.994,55.011
	C491.997,270.74,486.273,284.552,475.883,294.938z"/>
<path d="M127.985,138.005c2.63,0,5.199-1.07,7.069-2.93c1.86-1.86,2.931-4.44,2.931-7.07s-1.07-5.21-2.931-7.07
	c-1.859-1.86-4.439-2.93-7.069-2.93c-2.631,0-5.21,1.07-7.07,2.93s-2.93,4.44-2.93,7.07c0,2.64,1.069,5.21,2.93,7.07
	C122.775,136.935,125.354,138.005,127.985,138.005z"/>
<path d="M338.073,328.103c-2.63,0-5.21,1.07-7.069,2.93c-1.86,1.86-2.931,4.43-2.931,7.07c0,2.63,1.07,5.21,2.931,7.07
	c1.859,1.86,4.439,2.93,7.069,2.93c2.641,0,5.211-1.07,7.07-2.93c1.87-1.87,2.93-4.44,2.93-7.07c0-2.64-1.06-5.21-2.93-7.07
	C343.284,329.174,340.713,328.103,338.073,328.103z"/>
<path d="M228.648,66.091c2.641,0,5.21-1.07,7.08-2.93c1.86-1.86,2.92-4.44,2.92-7.07s-1.06-5.21-2.92-7.08
	c-1.87-1.86-4.439-2.92-7.08-2.92c-2.63,0-5.21,1.06-7.069,2.92c-1.86,1.87-2.92,4.44-2.92,7.08c0,2.63,1.06,5.21,2.92,7.07
	C223.438,65.022,226.018,66.091,228.648,66.091z"/>
<path d="M283.321,66.091c2.631,0,5.211-1.07,7.07-2.93c1.86-1.86,2.93-4.44,2.93-7.07c0-2.64-1.069-5.21-2.93-7.08
	c-1.859-1.86-4.439-2.92-7.07-2.92c-2.63,0-5.21,1.06-7.069,2.92c-1.86,1.87-2.931,4.44-2.931,7.08c0,2.63,1.07,5.21,2.931,7.07
	C278.111,65.022,280.691,66.091,283.321,66.091z"/>
<path d="M234.104,79.758c-5.335,1.426-8.505,6.907-7.079,12.244c3.501,13.103,15.412,22.253,28.964,22.253
	c13.553,0,25.463-9.15,28.964-22.253c1.426-5.335-1.744-10.817-7.079-12.244c-5.338-1.425-10.818,1.744-12.244,7.08
	c-1.167,4.366-5.131,7.415-9.641,7.415c-4.51,0-8.474-3.049-9.641-7.415C244.92,81.504,239.446,78.33,234.104,79.758z"/>
<path d="M455.909,218.679c-2.63,0-5.21,1.07-7.069,2.93c-1.86,1.86-2.931,4.44-2.931,7.07s1.07,5.21,2.931,7.07
	c1.859,1.86,4.439,2.93,7.069,2.93c2.641,0,5.21-1.07,7.07-2.93c1.87-1.86,2.93-4.44,2.93-7.07s-1.06-5.21-2.93-7.07
	C461.119,219.749,458.55,218.679,455.909,218.679z"/>
<path d="M455.909,273.341c-2.63,0-5.21,1.07-7.069,2.93c-1.86,1.87-2.931,4.44-2.931,7.08c0,2.63,1.07,5.21,2.931,7.07
	c1.859,1.86,4.439,2.92,7.069,2.92c2.641,0,5.221-1.06,7.07-2.92c1.87-1.86,2.93-4.44,2.93-7.07c0-2.64-1.06-5.21-2.93-7.08
	C461.119,274.41,458.55,273.341,455.909,273.341z"/>
<path d="M425.161,265.653c-4.365-1.167-7.414-5.131-7.414-9.641s3.049-8.474,7.413-9.64c5.336-1.425,8.507-6.906,7.081-12.243
	c-1.425-5.336-6.909-8.506-12.242-7.081c-13.104,3.5-22.254,15.41-22.254,28.963s9.15,25.464,22.253,28.964
	c0.864,0.231,1.733,0.341,2.587,0.341c4.419,0,8.461-2.95,9.655-7.421C433.668,272.559,430.497,267.078,425.161,265.653z"/>
<path d="M283.321,445.939c-2.63,0-5.21,1.07-7.069,2.93c-1.86,1.86-2.931,4.43-2.931,7.07c0,2.63,1.07,5.21,2.931,7.07
	c1.859,1.86,4.439,2.93,7.069,2.93c2.631,0,5.211-1.07,7.07-2.93c1.86-1.86,2.93-4.44,2.93-7.07c0-2.64-1.069-5.21-2.93-7.07
	C288.532,447.009,285.952,445.939,283.321,445.939z"/>
<path d="M228.648,445.939c-2.63,0-5.21,1.07-7.069,2.93c-1.86,1.86-2.92,4.43-2.92,7.07c0,2.63,1.06,5.21,2.92,7.07
	c1.87,1.86,4.439,2.93,7.069,2.93c2.631,0,5.21-1.07,7.08-2.93c1.86-1.86,2.92-4.44,2.92-7.07c0-2.64-1.06-5.21-2.92-7.07
	C233.859,447.009,231.289,445.939,228.648,445.939z"/>
<path d="M277.873,432.265c5.335-1.426,8.505-6.907,7.079-12.244c-3.501-13.103-15.412-22.253-28.964-22.253
	c-13.553,0-25.463,9.15-28.964,22.253c-1.426,5.335,1.744,10.817,7.079,12.244c5.34,1.424,10.816-1.745,12.244-7.08
	c1.167-4.366,5.131-7.415,9.641-7.415s8.474,3.049,9.641,7.415c1.195,4.471,5.236,7.421,9.655,7.421
	C276.138,432.606,277.007,432.496,277.873,432.265z"/>
<path d="M56.061,273.35c-2.63,0-5.21,1.06-7.069,2.92c-1.86,1.86-2.931,4.44-2.931,7.07c0,2.64,1.07,5.21,2.931,7.08
	c1.859,1.86,4.439,2.93,7.069,2.93c2.641,0,5.211-1.07,7.07-2.93c1.87-1.87,2.93-4.44,2.93-7.08c0-2.63-1.06-5.2-2.93-7.07
	C61.272,274.41,58.692,273.35,56.061,273.35z"/>
<path d="M56.061,218.679c-2.63,0-5.21,1.07-7.069,2.93c-1.86,1.86-2.931,4.44-2.931,7.07s1.07,5.21,2.931,7.07
	c1.859,1.86,4.439,2.93,7.069,2.93c2.631,0,5.211-1.07,7.07-2.93c1.87-1.86,2.93-4.44,2.93-7.07s-1.06-5.21-2.93-7.07
	C61.272,219.749,58.692,218.679,56.061,218.679z"/>
<path d="M89.391,285.318c0.854,0,1.723-0.11,2.587-0.341c13.103-3.5,22.253-15.411,22.253-28.964
	c0-13.554-9.15-25.464-22.254-28.963c-5.333-1.426-10.815,1.745-12.242,7.081c-1.426,5.336,1.745,10.817,7.081,12.243
	c4.364,1.166,7.413,5.13,7.413,9.64c0,4.51-3.049,8.474-7.414,9.641c-5.336,1.425-8.506,6.906-7.08,12.243
	C80.93,282.368,84.972,285.318,89.391,285.318z"/>
<g>
</g>
<g>
</g>
<g>
</g>
<g>
</g>
<g>
</g>
<g>
</g>
<g>
</g>
<g>
</g>
<g>
</g>
<g>
</g>
<g>
</g>
<g>
</g>
<g>
</g>
<g>
</g>
<g>
</g>
</svg>
