<?xml version="1.0" encoding="iso-8859-1"?>
<!-- Generator: Adobe Illustrator 19.0.0, SVG Export Plug-In . SVG Version: 6.00 Build 0)  -->
<svg version="1.1" id="Capa_1" xmlns="http://www.w3.org/2000/svg" xmlns:xlink="http://www.w3.org/1999/xlink" x="0px" y="0px"
	 viewBox="0 0 511.997 511.997" style="enable-background:new 0 0 511.997 511.997;" xml:space="preserve">
<circle style="fill:#AFEBA5;" cx="441.636" cy="365.998" r="59.998"/>
<path style="fill:#A5DC69;" d="M484.363,403.988c0-8.986-6.404-16.694-15.238-18.342l-10.868-2.027l-33.288,0.008l-10.827,2.019
	c-8.833,1.647-15.238,9.357-15.238,18.342v4.115c10.882,11.042,26.003,17.892,42.73,17.892c16.725,0,31.845-6.85,42.727-17.888
	v-4.119H484.363z"/>
<path style="fill:#FFCDAC;" d="M442.113,337.621h-0.956c-10.973,0-19.868,8.896-19.868,19.868v14.197
	c0,10.973,8.896,19.868,19.868,19.868h0.956c10.973,0,19.868-8.896,19.868-19.868V357.49
	C461.982,346.517,453.087,337.621,442.113,337.621z"/>
<circle style="fill:#F5B955;" cx="145.925" cy="69.997" r="59.998"/>
<path style="fill:#FF5A5A;" d="M188.654,107.993c0-8.986-6.404-16.694-15.238-18.342l-10.868-2.027l-33.288,0.008l-10.827,2.019
	c-8.833,1.647-15.238,9.357-15.238,18.342v4.115C114.078,123.149,129.2,130,145.926,130c16.725,0,31.845-6.85,42.727-17.888v-4.119
	H188.654z"/>
<path style="fill:#FFCDAC;" d="M146.404,41.626h-0.956c-10.973,0-19.868,8.896-19.868,19.868v14.197
	c0,10.973,8.896,19.868,19.868,19.868h0.956c10.973,0,19.868-8.896,19.868-19.868V61.494
	C166.273,50.52,157.377,41.626,146.404,41.626z"/>
<circle style="fill:#4BB9F5;" cx="145.995" cy="365.998" r="135.996"/>
<path style="fill:#78D2FA;" d="M496.892,132.738L463.25,99.095l28.314-28.314c13.902-13.902,13.902-36.441,0-50.342l0,0
	c-13.902-13.902-36.441-13.902-50.342,0L219.159,242.499l50.342,50.342l108.551-108.551l33.643,33.643
	c6.811,6.811,17.853,6.811,24.664,0l6.447-6.447c6.811-6.811,6.811-17.853,0-24.664l-33.643-33.643l22.973-22.973l33.643,33.643
	c6.811,6.811,17.853,6.811,24.664,0l6.447-6.447C503.703,150.591,503.703,139.549,496.892,132.738z"/>
<path style="fill:#FFCDAC;" d="M192.804,322.735v29.08c0,25.852-20.957,46.809-46.809,46.809l0,0l0,0
	c-25.852,0-46.809-20.957-46.809-46.809v-29.08H192.804z"/>
<path style="fill:#F5B955;" d="M200.907,420.851l-21.193-3.918c-8.479-1.568-14.632-8.962-14.632-17.584v-4.713h-38.184v4.713
	c0,8.622-6.153,16.017-14.631,17.584l-21.183,3.917c-20.558,3.801-35.478,21.731-35.478,42.639v4.11
	c24.027,21.391,55.687,34.395,90.39,34.395s66.362-13.004,90.39-34.395v-4.109C236.386,442.582,221.466,424.652,200.907,420.851z"/>
<path style="fill:#FFCDAC;" d="M146.006,457.521l27.063-43.294c-4.859-3.234-7.989-8.739-7.989-14.88v-4.713h-38.184v4.713
	c0,6.133-3.122,11.633-7.971,14.868L146.006,457.521z"/>
<path style="fill:#BEBEBE;" d="M145.995,273.856L145.995,273.856c-25.852,0-46.809,20.957-46.809,46.809v11.269h22.886
	c15.214,0,29.646-6.736,39.418-18.396l0,0l31.313,18.396v-11.269C192.804,294.814,171.848,273.856,145.995,273.856z"/>
<path d="M441.99,296c-38.597,0-69.998,31.401-69.998,69.998s31.401,69.998,69.998,69.998s69.998-31.401,69.998-69.998
	S480.587,296,441.99,296z M409.271,403.756c0.109-4.067,3.04-7.53,7.06-8.28l6.056-1.129c5.293,4.491,12.135,7.208,19.603,7.208
	c7.469,0,14.311-2.717,19.602-7.208l6.054,1.129c4.022,0.75,6.954,4.214,7.061,8.282c-8.776,7.614-20.212,12.238-32.716,12.238
	C429.486,415.996,418.048,411.371,409.271,403.756z M452.336,371.208c0,5.706-4.642,10.348-10.348,10.348
	c-5.705,0-10.347-4.642-10.347-10.348v-13.24c0-5.706,4.642-10.348,10.348-10.348c5.705,0,10.347,4.642,10.347,10.348
	L452.336,371.208L452.336,371.208z M487.999,385.561c-4.015-4.781-9.587-8.252-16.038-9.609c0.244-1.546,0.373-3.13,0.373-4.744
	v-13.24c0-16.733-13.613-30.347-30.346-30.347h-0.001c-16.732,0-30.346,13.614-30.346,30.347v13.24c0,1.614,0.129,3.198,0.373,4.744
	c-6.45,1.357-12.021,4.828-16.035,9.607c-2.565-6.012-3.989-12.623-3.989-19.561c0-27.569,22.429-49.998,49.998-49.998
	c27.569,0,49.998,22.429,49.998,49.998C491.989,372.937,490.565,379.549,487.999,385.561z"/>
<path d="M145.995,140c38.597,0,69.998-31.401,69.998-69.998S184.592,0.004,145.995,0.004S75.998,31.405,75.998,70.002
	S107.399,140,145.995,140z M113.275,107.759c0.109-4.067,3.041-7.529,7.061-8.279l6.055-1.129
	c5.293,4.491,12.135,7.208,19.603,7.208s14.311-2.717,19.603-7.208l6.055,1.129c4.022,0.75,6.954,4.214,7.061,8.282
	c-8.776,7.614-20.212,12.238-32.716,12.238C133.49,120,122.052,115.375,113.275,107.759z M156.341,75.213
	c0,5.706-4.642,10.348-10.348,10.348s-10.348-4.642-10.348-10.348V61.972c0-5.706,4.642-10.347,10.348-10.347
	s10.348,4.642,10.348,10.347L156.341,75.213L156.341,75.213z M145.995,20.003c27.569,0,49.998,22.429,49.998,49.998
	c0,6.939-1.424,13.552-3.99,19.563c-4.015-4.781-9.587-8.252-16.037-9.609c0.244-1.546,0.373-3.13,0.373-4.744V61.972
	c0-16.732-13.614-30.346-30.347-30.346s-30.346,13.613-30.346,30.346v13.241c0,1.614,0.13,3.198,0.374,4.744
	c-6.45,1.357-12.021,4.827-16.035,9.606c-2.566-6.011-3.989-12.623-3.989-19.56C95.997,42.433,118.426,20.003,145.995,20.003z"/>
<path d="M350.989,365.998c0-5.523-4.478-10-10-10h-49.347c-1.357-19.968-6.744-38.846-15.357-55.825
	c0.095-0.088,0.196-0.168,0.287-0.26l101.48-101.48l26.572,26.572c5.183,5.183,12.073,8.038,19.402,8.038
	c7.33,0,14.221-2.854,19.403-8.037l6.447-6.448c10.698-10.699,10.698-28.106,0-38.806l-26.573-26.572l8.832-8.832l26.573,26.573
	c5.183,5.183,12.073,8.037,19.402,8.037c7.33,0,14.221-2.854,19.402-8.037l6.447-6.447c5.183-5.183,8.037-12.074,8.037-19.403
	s-2.854-14.221-8.037-19.402l-26.572-26.572l21.243-21.242c17.778-17.778,17.778-46.707,0-64.485
	c-17.779-17.777-46.708-17.777-64.485,0L212.088,235.428c-0.092,0.092-0.17,0.191-0.258,0.285
	c-16.981-8.616-35.864-14.004-55.835-15.362v-49.349c0-5.523-4.478-10-10-10s-10,4.477-10,10v49.349
	C60.14,225.509,0,288.857,0,365.998C0,446.5,65.493,511.993,145.995,511.993c77.141,0,140.49-60.14,145.646-135.996h49.347
	C346.511,375.997,350.989,371.52,350.989,365.998z M448.291,27.509c9.979-9.98,26.22-9.982,36.201,0
	c9.981,9.981,9.981,26.22,0,36.201l-28.313,28.314c-3.905,3.905-3.905,10.237,0,14.142l33.643,33.643l0,0
	c1.406,1.405,2.18,3.274,2.18,5.261c0,1.988-0.773,3.856-2.18,5.262l-6.447,6.448c-1.405,1.405-3.273,2.179-5.261,2.179
	c-1.988,0-3.856-0.774-5.262-2.18l-33.644-33.644c-1.876-1.875-4.419-2.929-7.071-2.929c-2.652,0-5.195,1.054-7.071,2.929
	l-22.973,22.973c-3.905,3.905-3.905,10.237,0,14.142l33.644,33.643c2.901,2.901,2.901,7.622,0,10.523l-6.447,6.447
	c-1.405,1.405-3.274,2.18-5.262,2.18s-3.855-0.774-5.261-2.18l-33.644-33.643c-3.906-3.905-10.236-3.905-14.143,0L269.502,278.7
	l-11.034-11.035l61.343-61.343c3.905-3.905,3.905-10.237,0-14.143c-3.906-3.905-10.236-3.905-14.143,0l-61.343,61.343
	l-11.024-11.025L448.291,27.509z M65.617,462.951c0.253-15.853,11.645-29.376,27.284-32.268l21.184-3.917
	c0.263-0.049,0.516-0.124,0.776-0.18l22.661,36.237c1.828,2.923,5.032,4.698,8.479,4.698s6.651-1.776,8.479-4.699l22.649-36.233
	c0.257,0.055,0.505,0.129,0.765,0.177l21.194,3.918c15.639,2.891,27.03,16.414,27.284,32.267
	c-21.829,18.128-49.852,29.043-80.378,29.043S87.446,481.079,65.617,462.951z M109.186,341.933h12.888
	c15.334,0,29.917-5.672,41.128-15.794l19.603,11.517v14.159c0,20.296-16.512,36.809-36.81,36.809s-36.81-16.512-36.81-36.809
	L109.186,341.933L109.186,341.933z M109.186,321.934v-1.269c0-20.296,16.512-36.81,36.81-36.81
	c18.062,0,33.129,13.078,36.227,30.262l-15.666-9.204c-4.211-2.475-9.593-1.544-12.73,2.199c-7.892,9.418-19.465,14.82-31.753,14.82
	h-12.889V321.934z M145.995,408.623c3.545,0,7.01-0.343,10.377-0.967c0.904,2.891,2.256,5.591,4.002,8.007l-14.375,22.995
	l-14.387-23.005c1.743-2.414,3.093-5.112,3.995-7.999C138.978,408.28,142.447,408.623,145.995,408.623z M202.725,411.017
	l-21.194-3.918c-3.147-0.582-5.858-3.296-6.354-6.566c16.536-9.943,27.627-28.057,27.627-48.718v-19.881v-9.199v-2.07
	c0-31.324-25.484-56.809-56.809-56.809s-56.809,25.484-56.809,56.809v2.07v9.199v19.881c0,20.656,11.086,38.768,27.616,48.711
	c-0.495,3.283-3.201,5.99-6.354,6.573l-21.184,3.917c-19.248,3.559-34.471,17.19-40.655,34.836
	c-17.867-21.752-28.609-49.571-28.609-79.855c0-69.475,56.521-125.996,125.996-125.996s125.996,56.521,125.996,125.996
	c0,30.283-10.742,58.102-28.611,79.856C237.197,428.208,221.973,414.576,202.725,411.017z"/>
<path d="M145.928,378.095c4.708,0,9.134-1.833,12.463-5.162c3.905-3.905,3.906-10.237,0.001-14.142
	c-3.383-3.386-8.592-3.837-12.463-1.354c-3.872-2.481-9.078-2.032-12.463,1.353c-3.905,3.905-3.906,10.237-0.001,14.142
	C136.794,376.262,141.221,378.095,145.928,378.095z"/>
<path d="M49.998,130.493c2.63,0,5.21-1.07,7.069-2.93c1.86-1.86,2.931-4.44,2.931-7.07c0-2.63-1.07-5.21-2.931-7.07
	c-1.859-1.86-4.439-2.93-7.069-2.93c-2.63,0-5.21,1.07-7.07,2.93c-1.86,1.86-2.93,4.44-2.93,7.07c0,2.63,1.069,5.21,2.93,7.07
	C44.789,129.423,47.369,130.493,49.998,130.493z"/>
<path d="M49.998,170.492c2.63,0,5.21-1.07,7.069-2.93c1.86-1.86,2.931-4.44,2.931-7.07c0-2.63-1.07-5.21-2.931-7.07
	c-1.859-1.86-4.439-2.93-7.069-2.93c-2.63,0-5.21,1.07-7.07,2.93c-1.86,1.86-2.93,4.44-2.93,7.07c0,2.63,1.069,5.21,2.93,7.07
	C44.789,169.422,47.369,170.492,49.998,170.492z"/>
<path d="M49.998,210.49c2.63,0,5.21-1.07,7.069-2.93c1.86-1.86,2.931-4.44,2.931-7.07c0-2.63-1.07-5.21-2.931-7.07
	c-1.859-1.86-4.439-2.93-7.069-2.93c-2.63,0-5.21,1.07-7.07,2.93c-1.86,1.86-2.93,4.43-2.93,7.07c0,2.63,1.069,5.21,2.93,7.07
	C44.789,209.42,47.369,210.49,49.998,210.49z"/>
<path d="M394.548,451.994c-2.63,0-5.21,1.07-7.069,2.93c-1.86,1.86-2.931,4.44-2.931,7.07s1.07,5.21,2.931,7.07
	c1.859,1.86,4.439,2.93,7.069,2.93c2.641,0,5.21-1.07,7.07-2.93c1.87-1.86,2.93-4.44,2.93-7.07s-1.06-5.21-2.93-7.07
	C399.758,453.063,397.177,451.994,394.548,451.994z"/>
<path d="M354.549,451.994c-2.63,0-5.21,1.07-7.069,2.93c-1.86,1.86-2.931,4.44-2.931,7.07s1.07,5.21,2.931,7.07
	c1.859,1.86,4.439,2.93,7.069,2.93s5.21-1.07,7.07-2.93c1.87-1.86,2.93-4.44,2.93-7.07s-1.06-5.21-2.93-7.07
	C359.759,453.063,357.178,451.994,354.549,451.994z"/>
<path d="M314.55,451.994c-2.63,0-5.2,1.07-7.069,2.93c-1.86,1.86-2.931,4.44-2.931,7.07s1.07,5.21,2.931,7.07
	c1.859,1.86,4.439,2.93,7.069,2.93s5.21-1.07,7.08-2.93c1.86-1.86,2.92-4.44,2.92-7.07s-1.06-5.21-2.92-7.07
	C319.76,453.063,317.179,451.994,314.55,451.994z"/>
<path d="M339.449,182.542c2.63,0,5.21-1.06,7.07-2.93c1.859-1.86,2.93-4.43,2.93-7.07c0-2.63-1.07-5.21-2.93-7.07
	s-4.44-2.93-7.07-2.93c-2.63,0-5.21,1.07-7.07,2.93c-1.87,1.86-2.93,4.44-2.93,7.07c0,2.63,1.06,5.21,2.93,7.07
	C334.24,181.482,336.819,182.542,339.449,182.542z"/>
<g>
</g>
<g>
</g>
<g>
</g>
<g>
</g>
<g>
</g>
<g>
</g>
<g>
</g>
<g>
</g>
<g>
</g>
<g>
</g>
<g>
</g>
<g>
</g>
<g>
</g>
<g>
</g>
<g>
</g>
</svg>
