<?xml version="1.0" encoding="iso-8859-1"?>
<!-- Generator: Adobe Illustrator 19.0.0, SVG Export Plug-In . SVG Version: 6.00 Build 0)  -->
<svg version="1.1" id="Capa_1" xmlns="http://www.w3.org/2000/svg" xmlns:xlink="http://www.w3.org/1999/xlink" x="0px" y="0px"
	 viewBox="0 0 512 512" style="enable-background:new 0 0 512 512;" xml:space="preserve">
<path style="fill:#FF5A5A;" d="M413.649,374.413v5.839c0,10.684,7.624,19.846,18.13,21.788l26.26,4.855
	c25.475,4.71,43.961,26.927,43.961,52.833V502H278v-42.273c0-25.906,18.486-48.122,43.959-52.833l26.248-4.853
	c10.505-1.942,18.129-11.105,18.129-21.788v-5.84"/>
<polygon style="fill:#FFB487;" points="356.39,397.577 390.007,451.333 423.61,397.577 390,378.355 "/>
<path style="fill:#FFCDAC;" d="M448,285.323v36.032c0,32.033-25.967,58-58,58l0,0l0,0c-32.032,0-58-25.967-58-58v-36.032H448z"/>
<path style="fill:#BEBEBE;" d="M390,224.758L390,224.758c-32.033,0-58,25.967-58,58v13.962h28.358
	c18.851,0,36.734-8.346,48.842-22.795l0,0L448,296.72v-13.962C448,250.726,422.033,224.758,390,224.758z"/>
<path style="fill:#78D2FA;" d="M145.649,374.413v5.839c0,10.684,7.624,19.846,18.13,21.788l26.26,4.855
	c25.475,4.71,43.961,26.927,43.961,52.833V502H10v-42.273c0-25.906,18.486-48.122,43.959-52.833l26.248-4.853
	c10.505-1.942,18.129-11.105,18.129-21.788v-5.84"/>
<polygon style="fill:#FFB487;" points="88.39,397.577 122.007,451.333 155.61,397.577 121.889,378.355 "/>
<path style="fill:#FFCDAC;" d="M180,285.323v36.032c0,32.033-25.967,58-58,58l0,0l0,0c-32.032,0-58-25.967-58-58v-36.032H180z"/>
<path style="fill:#F5C86E;" d="M122,224.758L122,224.758c-32.033,0-58,25.967-58,58v13.962h28.358
	c18.851,0,36.734-8.346,48.842-22.795l0,0L180,296.72v-13.962C180,250.726,154.033,224.758,122,224.758z"/>
<path style="fill:#A5DC69;" d="M166.11,10h-21.36C117.826,10,96,31.826,96,58.75v78.5c0,26.924,21.826,48.75,48.75,48.75h19.491
	v41.667L205.908,186h17.477h40.282h42.425l41.667,41.667V186h19.491c26.924,0,48.75-21.826,48.75-48.75v-78.5
	C416,31.826,394.174,10,367.25,10H256.21H166.11z"/>
<circle style="fill:#FFFFFF;" cx="256" cy="98" r="52"/>
<path d="M390,492c-2.63,0-5.21,1.069-7.07,2.93S380,499.37,380,502s1.069,5.21,2.93,7.069c1.86,1.86,4.44,2.931,7.07,2.931
	s5.21-1.07,7.069-2.931C398.93,507.21,400,504.63,400,502s-1.07-5.21-2.931-7.07C395.21,493.069,392.64,492,390,492z"/>
<path d="M459.856,397.063l-26.26-4.854c-5.378-0.995-9.867-5.939-9.94-11.803C444.15,368.678,458,346.611,458,321.355v-38.598
	c0-37.495-30.505-68-68-68c-11.659,0-22.641,2.953-32.241,8.145V196h9.491c32.395,0,58.75-26.355,58.75-58.75v-78.5
	C426,26.355,399.645,0,367.25,0H256.21c-5.522,0-10,4.478-10,10s4.478,10,10,10h111.04C388.617,20,406,37.383,406,58.75v78.5
	c0,21.367-17.383,38.75-38.75,38.75h-19.491c-5.522,0-10,4.478-10,10v17.524l-24.596-24.596c-1.876-1.875-4.419-2.929-7.071-2.929
	H205.908c-2.652,0-5.195,1.054-7.071,2.929l-24.596,24.596V186c0-5.522-4.478-10-10-10H144.75c-21.367,0-38.75-17.383-38.75-38.75
	v-78.5C106,37.383,123.383,20,144.75,20h21.359c5.522,0,10-4.478,10-10s-4.478-10-10-10H144.75C112.355,0,86,26.355,86,58.75v78.5
	c0,32.395,26.355,58.75,58.75,58.75h9.491v26.903c-9.601-5.192-20.582-8.145-32.241-8.145c-37.495,0-68,30.505-68,68v38.598
	c0,25.25,13.844,47.313,34.33,59.041c-0.07,5.88-4.559,10.816-9.941,11.811l-26.248,4.854C21.929,402.647,0,429.002,0,459.728V502
	c0,5.522,4.478,10,10,10h224c5.522,0,10-4.478,10-10v-42.271c0-30.726-21.93-57.08-52.144-62.666l-26.26-4.854
	c-5.378-0.995-9.867-5.939-9.94-11.803C176.15,368.678,190,346.611,190,321.355v-38.598c0-18.443-7.391-35.184-19.354-47.447
	c0.224-0.188,0.457-0.364,0.666-0.573L210.051,196h91.898l38.738,38.738c0.208,0.208,0.428,0.402,0.651,0.589
	C329.385,247.588,322,264.323,322,282.758v38.598c0,25.25,13.844,47.313,34.33,59.041c-0.07,5.88-4.559,10.816-9.941,11.811
	l-26.248,4.854C289.929,402.647,268,429.002,268,459.728V502c0,5.522,4.478,10,10,10h72c5.522,0,10-4.478,10-10s-4.478-10-10-10h-62
	v-32.272c0-21.083,15.047-39.167,35.777-43l26.248-4.854c0.856-0.158,1.697-0.354,2.525-0.577l28.978,46.338
	c1.828,2.923,5.032,4.698,8.479,4.698s6.651-1.776,8.479-4.699l28.963-46.333c0.824,0.221,1.66,0.416,2.512,0.574l26.26,4.854
	c20.732,3.833,35.779,21.917,35.779,43V492h-64.5c-5.522,0-10,4.478-10,10s4.478,10,10,10H502c5.522,0,10-4.478,10-10v-42.271
	C512,429.003,490.07,402.648,459.856,397.063z M74,282.758c0-26.468,21.532-48,48-48c25.261,0,46.026,19.613,47.867,44.412
	l-23.602-13.866c-4.211-2.475-9.593-1.544-12.73,2.199c-10.234,12.213-25.242,19.218-41.177,19.218H74v-1.397V282.758z M224,459.729
	V492H20v-32.272c0-21.083,15.047-39.167,35.777-43l26.248-4.854c0.856-0.158,1.697-0.354,2.525-0.577l28.978,46.338
	c1.828,2.923,5.032,4.698,8.479,4.698s6.651-1.776,8.479-4.699l28.963-46.333c0.824,0.221,1.66,0.416,2.512,0.574l26.26,4.854
	C208.953,420.562,224,438.646,224,459.729z M142.71,400.347l-20.706,33.123l-20.721-33.134c2.915-3.644,5.042-7.921,6.158-12.565
	c4.693,1.028,9.561,1.585,14.558,1.585c4.992,0,9.855-0.556,14.544-1.582C137.661,392.421,139.791,396.701,142.71,400.347z
	 M122,369.355c-26.468,0-48-21.532-48-48V306.72h18.358c18.993,0,37.026-7.251,50.642-20.14l27,15.863v18.912
	C170,347.823,148.468,369.355,122,369.355z M437.867,279.17l-23.602-13.866c-4.211-2.475-9.593-1.544-12.73,2.199
	c-10.234,12.213-25.242,19.218-41.177,19.218H342v-1.397v-2.565c0-26.468,21.532-48,48-48
	C415.261,234.758,436.026,254.371,437.867,279.17z M342,321.355V306.72h18.358c18.993,0,37.026-7.251,50.642-20.14l27,15.863v18.912
	c0,26.468-21.532,48-48,48S342,347.823,342,321.355z M390.005,433.47l-20.721-33.134c2.915-3.644,5.042-7.921,6.158-12.565
	c4.693,1.028,9.561,1.585,14.558,1.585c4.992,0,9.855-0.556,14.544-1.582c1.117,4.648,3.247,8.928,6.166,12.573L390.005,433.47z"/>
<path d="M211.76,20c2.64,0,5.21-1.07,7.07-2.931c1.87-1.859,2.939-4.439,2.939-7.069s-1.069-5.21-2.939-7.07
	C216.97,1.07,214.399,0,211.76,0c-2.63,0-5.21,1.069-7.07,2.93c-1.859,1.86-2.93,4.44-2.93,7.07s1.07,5.21,2.93,7.069
	C206.55,18.93,209.13,20,211.76,20z"/>
<path d="M246.389,84.134c-3.906-3.904-10.238-3.904-14.143,0c-3.905,3.905-3.905,10.237,0,14.143l20.315,20.314
	c1.953,1.952,4.512,2.929,7.071,2.929s5.118-0.977,7.071-2.929l41.367-41.367c3.905-3.905,3.905-10.237,0-14.143
	c-3.906-3.904-10.236-3.904-14.143,0l-34.296,34.297L246.389,84.134z"/>
<path d="M256,159.971c15.877,0,31.754-6.043,43.841-18.13c3.905-3.905,3.905-10.237,0-14.143c-3.906-3.904-10.236-3.904-14.143,0
	c-16.375,16.377-43.021,16.377-59.396,0c-16.376-16.376-16.376-43.021,0-59.396C234.234,60.369,244.782,56,256.001,56
	c5.522,0,10-4.478,10-10s-4.478-10-10-10c-16.562,0-32.131,6.449-43.842,18.159c-24.174,24.174-24.174,63.508,0,87.682
	C224.246,153.928,240.123,159.971,256,159.971z"/>
<path d="M108.45,318.67c0-2.63-1.07-5.21-2.94-7.07c-1.86-1.87-4.44-2.93-7.07-2.93s-5.199,1.06-7.069,2.93
	c-1.86,1.86-2.931,4.431-2.931,7.07c0,2.63,1.07,5.2,2.931,7.07c1.859,1.859,4.439,2.93,7.069,2.93c2.641,0,5.21-1.07,7.07-2.93
	C107.38,323.87,108.45,321.3,108.45,318.67z"/>
<path d="M145.56,308.67c-2.64,0-5.21,1.06-7.08,2.92c-1.859,1.87-2.92,4.44-2.92,7.08c0,2.63,1.061,5.21,2.92,7.07
	c1.87,1.859,4.44,2.93,7.08,2.93c2.63,0,5.21-1.07,7.07-2.93s2.93-4.44,2.93-7.07s-1.069-5.21-2.93-7.08
	C150.77,309.729,148.189,308.67,145.56,308.67z"/>
<path d="M123.579,335.312c-0.932,0.932-2.445,0.932-3.377,0c-3.906-3.904-10.236-3.904-14.143,0c-3.905,3.905-3.905,10.237,0,14.143
	c4.365,4.364,10.098,6.547,15.831,6.547s11.466-2.183,15.831-6.547c3.905-3.905,3.905-10.237,0-14.143
	C133.815,331.407,127.485,331.407,123.579,335.312z"/>
<path d="M376.439,318.67c0-2.63-1.06-5.21-2.93-7.07c-1.85-1.87-4.43-2.93-7.07-2.93c-2.63,0-5.21,1.06-7.069,2.93
	c-1.86,1.86-2.931,4.431-2.931,7.07c0,2.63,1.07,5.21,2.931,7.07c1.859,1.859,4.439,2.93,7.069,2.93c2.641,0,5.221-1.07,7.07-2.93
	C375.38,323.88,376.439,321.3,376.439,318.67z"/>
<path d="M413.55,328.67c2.64,0,5.21-1.07,7.08-2.93c1.86-1.86,2.93-4.44,2.93-7.07c0-2.64-1.069-5.21-2.93-7.07
	c-1.87-1.87-4.44-2.93-7.08-2.93c-2.63,0-5.2,1.06-7.06,2.93c-1.87,1.86-2.931,4.431-2.931,7.07c0,2.63,1.061,5.21,2.931,7.07
	C408.35,327.6,410.92,328.67,413.55,328.67z"/>
<path d="M405.722,335.312c-3.906-3.904-10.236-3.904-14.143,0c-0.932,0.932-2.445,0.932-3.377,0c-3.906-3.904-10.236-3.904-14.143,0
	c-3.905,3.905-3.905,10.237,0,14.143c4.365,4.364,10.098,6.547,15.831,6.547s11.466-2.183,15.831-6.547
	C409.627,345.549,409.627,339.217,405.722,335.312z"/>
<g>
</g>
<g>
</g>
<g>
</g>
<g>
</g>
<g>
</g>
<g>
</g>
<g>
</g>
<g>
</g>
<g>
</g>
<g>
</g>
<g>
</g>
<g>
</g>
<g>
</g>
<g>
</g>
<g>
</g>
</svg>
