<?xml version="1.0" encoding="iso-8859-1"?>
<!-- Generator: Adobe Illustrator 19.0.0, SVG Export Plug-In . SVG Version: 6.00 Build 0)  -->
<svg version="1.1" id="Capa_1" xmlns="http://www.w3.org/2000/svg" xmlns:xlink="http://www.w3.org/1999/xlink" x="0px" y="0px"
	 viewBox="0 0 512 512" style="enable-background:new 0 0 512 512;" xml:space="preserve">
<polyline style="fill:#FFFFFF;" points="395.957,501.981 502.006,501.981 502.006,10.029 9.994,10.029 9.994,501.981 
	395.957,501.981 "/>
<polyline style="fill:#4BB9F5;" points="502.006,10.011 9.994,10.011 9.994,74.537 502.006,74.537 "/>
<circle style="fill:#A5DC69;" cx="255.967" cy="138.382" r="22.985"/>
<circle style="fill:#7D9BFF;" cx="255.967" cy="437.851" r="22.985"/>
<circle style="fill:#A5DC69;" cx="405.702" cy="288.117" r="22.985"/>
<circle style="fill:#7D9BFF;" cx="106.232" cy="288.117" r="22.985"/>
<circle style="fill:#FF8C8C;" cx="380.628" cy="163.456" r="26.983"/>
<circle style="fill:#A5DC69;" cx="131.306" cy="412.777" r="26.983"/>
<g>
	<circle style="fill:#FF8C8C;" cx="380.628" cy="412.777" r="26.983"/>
	<circle style="fill:#FF8C8C;" cx="131.306" cy="163.456" r="26.983"/>
</g>
<circle style="fill:#78D2FA;" cx="255.967" cy="288.117" r="91.941"/>
<path style="fill:#F5B955;" d="M294.543,312.1l-15.249-2.844l-46.707,0.011l-15.191,2.833c-12.394,2.312-21.38,13.129-21.38,25.737
	v19.982c16.098,13.859,37.046,22.239,59.955,22.239s43.857-8.38,59.955-22.239v-19.982
	C315.924,325.23,306.939,314.413,294.543,312.1z"/>
<path style="fill:#FFCDAC;" d="M255.97,244.714L255.97,244.714c-15.768,0-28.55,12.782-28.55,28.55v18.578
	c0,15.768,12.782,28.55,28.55,28.55l0,0c15.768,0,28.55-12.782,28.55-28.55v-18.578C284.52,257.496,271.737,244.714,255.97,244.714z
	"/>
<path d="M64.092,32.28c-5.518,0-9.994,4.475-9.994,9.994s4.475,9.994,9.994,9.994h0.099c5.518,0,9.945-4.475,9.945-9.994
	S69.611,32.28,64.092,32.28z"/>
<path d="M112.012,32.28c-5.518,0-9.994,4.475-9.994,9.994s4.475,9.994,9.994,9.994h0.1c5.518,0,9.944-4.475,9.944-9.994
	S117.53,32.28,112.012,32.28z"/>
<path d="M159.932,32.28c-5.518,0-9.994,4.475-9.994,9.994s4.475,9.994,9.994,9.994h0.099c5.518,0,9.944-4.475,9.944-9.994
	S165.452,32.28,159.932,32.28z"/>
<path d="M447.848,32.28H275.96c-5.518,0-9.994,4.475-9.994,9.994s4.475,9.994,9.994,9.994h171.888c5.518,0,9.994-4.475,9.994-9.994
	S453.366,32.28,447.848,32.28z"/>
<path d="M512,10.028c0-5.213-3.992-9.488-9.085-9.948c-0.343-0.036-0.69-0.055-1.041-0.055H9.994C4.475,0.025,0,4.5,0,10.019v0.009
	v64.501v427.453c0,5.518,4.475,9.994,9.994,9.994h385.963h106.049c5.518,0,9.994-4.475,9.994-9.994V337.086
	c0-5.518-4.475-9.994-9.994-9.994s-9.994,4.475-9.994,9.994v154.901h-96.056H19.987V472.02H55.71c5.518,0,9.994-4.475,9.994-9.994
	s-4.475-9.994-9.994-9.994H20.12l-0.133-367.51h472.025v156.625c0,5.518,4.475,9.994,9.994,9.994s9.994-4.475,9.994-9.994V10.028z
	 M19.987,64.535V20.021h472.025v44.514C492.013,64.535,19.987,64.535,19.987,64.535z"/>
<path d="M502.002,278.124c-2.628,0-5.207,1.068-7.065,2.928c-1.859,1.859-2.929,4.437-2.929,7.065c0,2.628,1.069,5.207,2.929,7.065
	c1.858,1.859,4.436,2.929,7.065,2.929c2.639,0,5.207-1.069,7.065-2.929c1.869-1.858,2.928-4.436,2.928-7.065
	c0-2.628-1.059-5.207-2.928-7.065C507.209,279.192,504.642,278.124,502.002,278.124z"/>
<path d="M357.414,298.111h16.865c4.243,13.314,16.725,22.985,31.427,22.985c18.184,0,32.979-14.795,32.979-32.979
	c0-18.184-14.795-32.979-32.979-32.979c-14.702,0-27.184,9.672-31.427,22.985h-16.865c-2.016-20.62-10.198-39.458-22.679-54.639
	l27.795-27.795c5.601,3.143,11.849,4.724,18.101,4.724c9.469,0,18.938-3.604,26.146-10.812c14.417-14.418,14.417-37.875,0-52.293
	c-14.417-14.417-37.876-14.417-52.293,0c-11.968,11.968-13.99,30.163-6.088,44.248l-27.795,27.795
	c-15.181-12.48-34.019-20.663-54.639-22.679v-16.865c13.314-4.243,22.985-16.725,22.985-31.427
	c0-18.184-14.795-32.979-32.979-32.979s-32.979,14.795-32.979,32.979c0,14.702,9.672,27.184,22.985,31.427v16.865
	c-20.627,2.017-39.47,10.204-54.653,22.69c-0.082-0.088-0.155-0.181-0.241-0.266l-27.54-27.54
	c7.902-14.085,5.879-32.279-6.088-44.248c-14.417-14.417-37.876-14.417-52.293,0c-14.417,14.418-14.417,37.875,0,52.293
	c7.208,7.208,16.677,10.812,26.146,10.812c6.252,0,12.5-1.582,18.101-4.724l27.54,27.54c0.085,0.085,0.179,0.159,0.267,0.241
	c-12.487,15.183-20.674,34.027-22.691,54.653H137.66c-4.243-13.314-16.725-22.985-31.427-22.985
	c-18.184,0-32.979,14.795-32.979,32.979c0,18.184,14.795,32.979,32.979,32.979c14.702,0,27.184-9.672,31.427-22.985h16.865
	c2.016,20.62,10.199,39.458,22.679,54.639l-27.795,27.795c-14.085-7.902-32.28-5.879-44.248,6.088
	c-14.417,14.418-14.417,37.875,0,52.293c7.208,7.208,16.677,10.812,26.146,10.812s18.938-3.604,26.146-10.812
	c11.968-11.968,13.99-30.163,6.088-44.248l27.795-27.795c15.181,12.48,34.019,20.663,54.639,22.679v16.865
	c-13.314,4.243-22.985,16.725-22.985,31.427c0,18.184,14.795,32.979,32.979,32.979s32.979-14.795,32.979-32.979
	c0-14.702-9.672-27.184-22.985-31.427v-16.865c20.62-2.016,39.458-10.198,54.639-22.679l27.795,27.795
	c-7.902,14.085-5.879,32.279,6.088,44.248c7.208,7.208,16.677,10.812,26.146,10.812c9.469,0,18.938-3.604,26.146-10.812
	c14.417-14.418,14.417-37.875,0-52.293c-11.967-11.967-30.163-13.99-44.248-6.088l-27.795-27.795
	C347.216,337.569,355.399,318.731,357.414,298.111z M119.294,175.467c-6.625-6.624-6.625-17.402,0-24.026
	c3.311-3.312,7.662-4.969,12.013-4.969c4.351,0,8.701,1.656,12.013,4.969c6.625,6.624,6.625,17.402,0,24.026
	C136.697,182.092,125.917,182.092,119.294,175.467z M255.97,370.065c-18.796,0-36.121-6.376-49.961-17.058v-15.169
	c0-7.792,5.559-14.484,13.221-15.913l10.437-1.947c6.893,6.449,16.142,10.407,26.303,10.407c10.162,0,19.411-3.96,26.303-10.407
	l10.438,1.948c7.66,1.428,13.22,8.12,13.22,15.912v15.169C292.09,363.689,274.765,370.065,255.97,370.065z M274.526,291.841
	c0,10.231-8.325,18.556-18.556,18.556s-18.556-8.325-18.556-18.556v-18.578c0-10.231,8.325-18.555,18.556-18.555
	c10.231,0,18.556,8.324,18.556,18.555V291.841z M405.707,275.126c7.163,0,12.992,5.828,12.992,12.992
	c0,7.163-5.828,12.992-12.992,12.992c-7.163,0-12.992-5.828-12.992-12.992C392.715,280.954,398.543,275.126,405.707,275.126z
	 M368.619,151.442c3.311-3.312,7.662-4.969,12.013-4.969s8.701,1.656,12.013,4.969c6.625,6.624,6.625,17.402,0,24.026
	c-6.623,6.625-17.403,6.625-24.026,0C361.996,168.844,361.996,158.065,368.619,151.442z M255.97,125.389
	c7.163,0,12.992,5.828,12.992,12.992s-5.828,12.992-12.992,12.992s-12.992-5.828-12.992-12.992S248.807,125.389,255.97,125.389z
	 M106.233,301.109c-7.163,0-12.992-5.828-12.992-12.992c0-7.163,5.828-12.992,12.992-12.992c7.163,0,12.992,5.828,12.992,12.992
	C119.225,295.281,113.397,301.109,106.233,301.109z M255.97,206.17c45.186,0,81.948,36.762,81.948,81.948
	c0,15.969-4.608,30.875-12.541,43.489c-2.555-14.648-13.966-26.526-29.001-29.329l-3.144-0.587c0.832-3.145,1.28-6.446,1.28-9.849
	v-18.578c0-21.252-17.291-38.542-38.543-38.542s-38.543,17.291-38.543,38.542v18.578c0,3.404,0.449,6.704,1.28,9.849l-3.143,0.586
	c-15.034,2.804-26.445,14.683-29.002,29.33c-7.933-12.614-12.541-27.519-12.541-43.489
	C174.022,242.931,210.784,206.17,255.97,206.17z M143.32,424.793c-6.623,6.625-17.403,6.625-24.026,0
	c-6.625-6.624-6.625-17.402,0-24.026c3.311-3.312,7.662-4.969,12.013-4.969c4.351,0,8.701,1.656,12.013,4.969
	C149.945,407.391,149.945,418.17,143.32,424.793z M255.97,450.846c-7.163,0-12.992-5.828-12.992-12.992
	c0-7.163,5.828-12.992,12.992-12.992s12.992,5.828,12.992,12.992C268.962,445.018,263.133,450.846,255.97,450.846z M392.646,400.767
	c6.625,6.624,6.625,17.402,0,24.026c-6.623,6.625-17.403,6.625-24.026,0c-6.625-6.624-6.625-17.402,0-24.026
	c3.311-3.312,7.662-4.969,12.013-4.969S389.334,397.455,392.646,400.767z"/>
<path d="M95.197,452.031h-0.848c-5.518,0-9.994,4.475-9.994,9.994s4.475,9.994,9.994,9.994h0.848c5.518,0,9.994-4.475,9.994-9.994
	S100.716,452.031,95.197,452.031z"/>
<g>
</g>
<g>
</g>
<g>
</g>
<g>
</g>
<g>
</g>
<g>
</g>
<g>
</g>
<g>
</g>
<g>
</g>
<g>
</g>
<g>
</g>
<g>
</g>
<g>
</g>
<g>
</g>
<g>
</g>
</svg>
