<?xml version="1.0" encoding="iso-8859-1"?>
<!-- Generator: Adobe Illustrator 19.0.0, SVG Export Plug-In . SVG Version: 6.00 Build 0)  -->
<svg version="1.1" id="Capa_1" xmlns="http://www.w3.org/2000/svg" xmlns:xlink="http://www.w3.org/1999/xlink" x="0px" y="0px"
	 viewBox="0 0 512 512" style="enable-background:new 0 0 512 512;" xml:space="preserve">
<rect x="212" y="388" style="fill:#9BBEFF;" width="88" height="66"/>
<path style="fill:#6E87F5;" d="M368,502H144v-6.176C144,472.725,162.725,454,185.824,454h140.352
	C349.275,454,368,472.725,368,495.824V502z"/>
<path style="fill:#FFFFFF;" d="M462,10H50c-22.091,0-40,17.909-40,40v298c0,22.091,17.909,40,40,40h412c22.091,0,40-17.909,40-40V50
	C502,27.909,484.091,10,462,10z"/>
<circle style="fill:#FF8C8C;" cx="102" cy="122" r="52"/>
<path style="fill:#6E87F5;" d="M139.031,154.926c0-7.788-5.551-14.469-13.206-15.897l-9.419-1.757l-28.85,0.007l-9.384,1.75
	c-7.656,1.428-13.206,8.109-13.206,15.897v3.566C74.397,168.062,87.503,174,102,174c14.496,0,27.6-5.937,37.031-15.504V154.926z"/>
<path style="fill:#FFCDAC;" d="M101.998,97.406L101.998,97.406c-9.739,0-17.634,7.895-17.634,17.634v11.475
	c0,9.739,7.895,17.634,17.634,17.634l0,0c9.739,0,17.634-7.895,17.634-17.634V115.04C119.633,105.301,111.738,97.406,101.998,97.406
	z"/>
<circle style="fill:#D7FA91;" cx="235.65" cy="231.84" r="60"/>
<path style="fill:#6E87F5;" d="M278.382,269.834c0-8.986-6.405-16.695-15.238-18.343l-10.868-2.027l-33.289,0.008l-10.827,2.019
	c-8.833,1.647-15.238,9.357-15.238,18.343v4.115c10.881,11.042,26.004,17.893,42.731,17.893c16.725,0,31.846-6.85,42.728-17.889
	v-4.119H278.382z"/>
<path style="fill:#FFCDAC;" d="M235.653,203.465L235.653,203.465c-11.238,0-20.347,9.11-20.347,20.347v13.241
	c0,11.238,9.11,20.347,20.347,20.347l0,0c11.238,0,20.347-9.11,20.347-20.347v-13.241C256,212.575,246.89,203.465,235.653,203.465z"
	/>
<circle style="fill:#F5B955;" cx="390" cy="122" r="72"/>
<path style="fill:#6E87F5;" d="M441.273,167.59c0-10.783-7.685-20.034-18.285-22.011l-13.042-2.432L370,143.156l-12.992,2.423
	c-10.6,1.977-18.285,11.228-18.285,22.011v4.938C351.78,185.778,369.927,194,390,194c20.071,0,38.216-8.22,51.273-21.467V167.59z"/>
<path style="fill:#FFCDAC;" d="M389.998,87.947L389.998,87.947c-13.485,0-24.417,10.932-24.417,24.417v15.889
	c0,13.485,10.932,24.417,24.417,24.417l0,0c13.485,0,24.417-10.932,24.417-24.417v-15.889
	C414.415,98.879,403.483,87.947,389.998,87.947z"/>
<path style="fill:#6E87F5;" d="M10,348c0,22.091,17.909,40,40,40h412c22.091,0,40-17.909,40-40v-20H10V348z"/>
<path d="M462,0H50C22.43,0,0,22.43,0,50v278v20c0,27.57,22.43,50,50,50h152v46h-16.176C157.248,444,134,467.248,134,495.824V502
	c0,5.522,4.478,10,10,10h224c5.522,0,10-4.478,10-10v-6.176C378,467.248,354.752,444,326.176,444H310v-46h152
	c27.57,0,50-22.43,50-50v-20V50C512,22.43,489.57,0,462,0z M50,20h412c16.542,0,30,13.458,30,30v268H20V50
	C20,33.458,33.458,20,50,20z M357.771,492H154.229c1.895-15.752,15.342-28,31.596-28H212h88h26.176
	C342.43,464,355.877,476.248,357.771,492z M290,444h-68v-46h68V444z M492,348c0,16.542-13.458,30-30,30H300h-88H50
	c-16.542,0-30-13.458-30-30v-10h472V348z"/>
<path d="M91.998,183.182v55.368c0,5.522,4.478,10,10,10s10-4.478,10-10v-55.367c11.721-1.909,22.342-7.117,30.89-14.635
	l32.905,27.043c-6.432,10.581-10.139,22.992-10.139,36.253c0,38.598,31.402,70,70,70s70-31.402,70-70
	c0-11.53-2.82-22.407-7.778-32.007l31.648-22.523c12.878,14.069,30.591,23.626,50.476,26.056v35.181c0,5.522,4.478,10,10,10
	s10-4.478,10-10V203.37c40.512-4.951,72-39.541,72-81.368c0-18.824-6.392-36.173-17.097-50.029l14.534-14.533
	c3.905-3.905,3.905-10.237,0-14.143c-3.904-3.902-10.234-3.904-14.143,0l-14.447,14.446C426.86,46.649,409.197,40,390,40
	c-41.828,0-76.417,31.488-81.368,72h-30.25c-5.522,0-10,4.478-10,10s4.478,10,10,10h30.25c1.271,10.398,4.472,20.208,9.271,29.036
	l-31.643,22.519c-12.756-13.362-30.718-21.712-50.605-21.712c-18.145,0-34.698,6.943-47.148,18.308l-32.908-27.045
	C160.929,143.954,164,133.332,164,122c0-13.491-4.345-25.979-11.69-36.167l27.305-27.305c3.905-3.905,3.905-10.237,0-14.143
	c-3.906-3.904-10.236-3.904-14.143,0L138.167,71.69C127.979,64.345,115.491,60,102,60c-34.187,0-62,27.813-62,62
	C40,152.781,62.552,178.384,91.998,183.182z M404.415,128.253c0,7.949-6.468,14.416-14.417,14.416s-14.417-6.467-14.417-14.416
	v-15.889c0-7.949,6.468-14.417,14.417-14.417s14.417,6.468,14.417,14.417V128.253z M367.053,153.877
	c6.094,5.462,14.136,8.792,22.945,8.792c8.808,0,16.851-3.33,22.945-8.792l8.212,1.532c5.863,1.094,10.118,6.216,10.118,12.181
	v0.624C420.303,178.022,405.839,184,390,184c-15.841,0-30.306-5.979-41.277-15.79v-0.621c0-5.965,4.255-11.087,10.119-12.181
	L367.053,153.877z M390,60c34.187,0,62,27.813,62,62c0,9.807-2.298,19.084-6.37,27.335c-4.724-6.917-12.083-11.96-20.808-13.586
	l-1.188-0.222c0.507-2.346,0.781-4.779,0.781-7.274v-15.889c0-18.978-15.439-34.417-34.417-34.417s-34.417,15.439-34.417,34.417
	v15.889c0,2.496,0.274,4.928,0.781,7.275l-1.187,0.221c-8.724,1.626-16.082,6.668-20.807,13.583
	C330.297,141.081,328,131.806,328,122C328,87.813,355.813,60,390,60z M109.633,126.516c0,4.21-3.425,7.635-7.635,7.635
	c-4.209,0-7.634-3.425-7.634-7.635v-11.475c0-4.21,3.425-7.635,7.634-7.635c4.21,0,7.635,3.425,7.635,7.635V126.516z
	 M80.005,148.859l4.633-0.864c4.748,3.845,10.788,6.155,17.36,6.155s12.612-2.31,17.361-6.155l4.632,0.864
	c2.667,0.498,4.646,2.674,4.972,5.311C121.662,160.299,112.257,164,102,164c-10.259,0-19.665-3.702-26.967-9.833
	C75.36,151.532,77.339,149.357,80.005,148.859z M202.933,269.601c0.109-4.067,3.041-7.53,7.061-8.279l6.056-1.129
	c5.292,4.49,12.134,7.207,19.602,7.207s14.311-2.717,19.603-7.208l6.055,1.128c4.022,0.75,6.954,4.215,7.061,8.283
	c-8.776,7.614-20.213,12.238-32.717,12.238C223.149,281.843,211.71,277.217,202.933,269.601z M246,237.053
	c0,5.706-4.642,10.348-10.348,10.348c-5.705,0-10.347-4.642-10.347-10.348v-13.24c0-5.706,4.642-10.348,10.347-10.348
	c5.706,0,10.348,4.642,10.348,10.348V237.053z M235.654,181.843c27.57,0,50,22.43,50,50c0,6.939-1.424,13.552-3.99,19.564
	c-4.015-4.781-9.587-8.253-16.038-9.61c0.244-1.546,0.373-3.13,0.373-4.744v-13.24c0-16.733-13.614-30.348-30.348-30.348
	s-30.347,13.614-30.347,30.348v13.24c0,1.614,0.13,3.198,0.374,4.744c-6.45,1.356-12.022,4.827-16.037,9.606
	c-2.565-6.011-3.988-12.623-3.988-19.561C185.654,204.272,208.084,181.843,235.654,181.843z M102,80c23.159,0,42,18.841,42,42
	c0,5.089-0.911,9.969-2.577,14.487c-3.229-3.253-7.328-5.663-11.969-6.87c0.115-1.019,0.179-2.053,0.179-3.102V115.04
	c0-15.238-12.396-27.635-27.635-27.635c-15.237,0-27.634,12.396-27.634,27.635v11.475c0,1.049,0.064,2.083,0.179,3.102
	c-4.64,1.207-8.739,3.615-11.967,6.867C60.911,131.968,60,127.088,60,122C60,98.841,78.841,80,102,80z"/>
<path d="M102,269.55c-2.641,0-5.21,1.07-7.07,2.93c-1.87,1.86-2.93,4.44-2.93,7.07s1.06,5.21,2.93,7.07
	c1.86,1.859,4.43,2.93,7.07,2.93c2.63,0,5.21-1.07,7.069-2.93c1.86-1.86,2.931-4.44,2.931-7.07s-1.07-5.21-2.931-7.07
	C107.21,270.62,104.63,269.55,102,269.55z"/>
<path d="M246,358c0,2.63,1.069,5.21,2.93,7.069c1.86,1.86,4.44,2.931,7.07,2.931s5.21-1.07,7.069-2.931
	C264.93,363.21,266,360.63,266,358c0-0.019-0.003-0.037-0.003-0.055c0.126-0.633,0.194-1.287,0.194-1.957c0-5.522-4.478-10-10-10
	h-0.383c-5.522,0-10,4.478-10,10c0,0.67,0.069,1.323,0.194,1.956C246.003,357.963,246,357.981,246,358z"/>
<g>
</g>
<g>
</g>
<g>
</g>
<g>
</g>
<g>
</g>
<g>
</g>
<g>
</g>
<g>
</g>
<g>
</g>
<g>
</g>
<g>
</g>
<g>
</g>
<g>
</g>
<g>
</g>
<g>
</g>
</svg>
