<?xml version="1.0" encoding="iso-8859-1"?>
<!-- Generator: Adobe Illustrator 19.0.0, SVG Export Plug-In . SVG Version: 6.00 Build 0)  -->
<svg version="1.1" id="Capa_1" xmlns="http://www.w3.org/2000/svg" xmlns:xlink="http://www.w3.org/1999/xlink" x="0px" y="0px"
	 viewBox="0 0 512 512" style="enable-background:new 0 0 512 512;" xml:space="preserve">
<polygon style="fill:#D7D7E6;" points="337.877,461.925 337.877,413.943 173.937,413.943 173.937,461.925 9.996,461.925 
	9.996,501.911 501.818,501.911 501.818,461.925 "/>
<path style="fill:#78D2FA;" d="M239.137,103.623v6.322c0,6.382-4.553,11.854-10.828,13.014l-22.211,4.107
	c-17.405,3.218-30.035,18.397-30.035,36.098V256h159.942v-92.835c0-17.701-12.63-32.88-30.036-36.098l-22.22-4.108
	c-6.275-1.16-10.829-6.633-10.829-13.014v-6.322"/>
<g>
	<polygon style="fill:#FFCDAC;" points="235.042,120.382 256.038,187.809 277.026,120.382 256.034,106.672 	"/>
	<path style="fill:#FFCDAC;" d="M296.02,55.739v10.948c0,22.083-17.902,39.985-39.986,39.985l0,0l0,0
		c-22.083,0-39.985-17.902-39.985-39.985V55.739"/>
</g>
<path style="fill:#F5B955;" d="M256.034,10.089L256.034,10.089c-22.083,0-39.985,17.902-39.985,39.985V59.7h19.55
	c12.996,0,25.325-5.754,33.672-15.715l0,0L296.018,59.7v-9.626C296.02,27.991,278.117,10.089,256.034,10.089z"/>
<rect x="211.223" y="255.997" style="fill:#6E87F5;" width="89.627" height="157.943"/>
<path style="fill:#F5C86E;" d="M404.95,152.607v6.322c0,6.382-4.553,11.854-10.828,13.014l-22.211,4.107
	c-17.405,3.218-30.035,18.397-30.035,36.098v92.836h159.942v-92.835c0-17.701-12.63-32.88-30.036-36.098l-22.22-4.108
	c-6.275-1.16-10.829-6.633-10.829-13.014v-6.322"/>
<g>
	<polygon style="fill:#FFCDAC;" points="400.854,169.365 421.851,236.792 442.839,169.365 421.847,155.655 	"/>
	<path style="fill:#FFCDAC;" d="M461.832,104.722v10.948c0,22.083-17.902,39.985-39.985,39.985l0,0l0,0
		c-22.083,0-39.985-17.902-39.985-39.985v-10.948"/>
</g>
<path style="fill:#BEBEBE;" d="M421.847,59.072L421.847,59.072c-22.083,0-39.985,17.902-39.985,39.985v9.626h19.55
	c12.996,0,25.325-5.754,33.672-15.715l0,0l26.749,15.715v-9.626C461.832,76.974,443.93,59.072,421.847,59.072z"/>
<rect x="377.033" y="304.979" style="fill:#FF5A5A;" width="89.627" height="156.943"/>
<path style="fill:#A5DC69;" d="M73.07,151.607v6.322c0,6.382-4.553,11.854-10.828,13.014l-22.211,4.107
	c-17.405,3.218-30.035,18.397-30.035,36.098v92.836h159.942v-92.835c0-17.701-12.63-32.88-30.036-36.098l-22.22-4.107
	c-6.275-1.16-10.829-6.633-10.829-13.014v-6.322"/>
<g>
	<polygon style="fill:#FFCDAC;" points="68.975,168.366 89.971,235.792 110.96,168.366 89.967,154.656 	"/>
	<path style="fill:#FFCDAC;" d="M129.953,103.722v10.948c0,22.083-17.902,39.985-39.985,39.985l0,0l0,0
		c-22.083,0-39.985-17.902-39.985-39.985v-10.948"/>
</g>
<path style="fill:#BEBEBE;" d="M89.967,58.072L89.967,58.072c-22.083,0-39.985,17.902-39.985,39.985v9.625h19.55
	c12.996,0,25.325-5.754,33.672-15.715l0,0l26.749,15.715v-9.625C129.953,75.974,112.05,58.072,89.967,58.072z"/>
<rect x="45.154" y="303.98" style="fill:#32C8AF;" width="89.627" height="157.943"/>
<path d="M255.907,491.914c-2.629,0-5.208,1.069-7.067,2.929c-1.859,1.859-2.929,4.438-2.929,7.067s1.07,5.208,2.929,7.066
	c1.859,1.859,4.438,2.93,7.067,2.93c2.629,0,5.208-1.07,7.067-2.93c1.859-1.858,2.929-4.437,2.929-7.066s-1.07-5.208-2.929-7.067
	S258.536,491.914,255.907,491.914z"/>
<path d="M512,313.979V211.703c0-22.482-16.074-41.764-38.219-45.847l-22.22-4.1c-1.533-0.283-2.646-1.609-2.646-3.155v-1.133
	c13.876-8.875,23.1-24.392,23.1-42.029V98.863c0-27.511-22.422-49.894-49.982-49.894s-49.982,22.383-49.982,49.894v16.576
	c0,17.633,9.219,33.146,23.089,42.023v1.14c0,1.545-1.113,2.872-2.645,3.155l-22.211,4.099c-9.528,1.757-17.926,6.334-24.409,12.761
	v-15.449c0-22.519-16.072-41.835-38.215-45.927l-22.221-4.108c-1.535-0.284-2.649-1.623-2.649-3.185v-1.155
	c13.876-8.893,23.1-24.437,23.1-42.105V50.075c0-27.56-22.422-49.982-49.982-49.982s-49.982,22.422-49.982,49.982v16.613
	c0,17.664,9.219,33.205,23.09,42.097v1.162c0,1.562-1.115,2.901-2.65,3.186l-22.211,4.107
	c-22.143,4.093-38.214,23.408-38.214,45.926v14.659c-6.457-6.343-14.784-10.859-24.22-12.602l-22.221-4.107
	c-1.535-0.284-2.649-1.623-2.649-3.185v-1.155c13.876-8.892,23.1-24.436,23.1-42.104V98.057c0-27.56-22.422-49.982-49.982-49.982
	S39.985,70.497,39.985,98.057v16.613c0,17.664,9.219,33.205,23.09,42.097v1.162c0,1.562-1.115,2.901-2.65,3.186l-22.211,4.107
	C16.071,169.313,0,188.629,0,211.147v102.832c0,5.52,4.475,9.996,9.996,9.996h25.16v127.954H9.996c-5.521,0-9.996,4.476-9.996,9.996
	v39.985c0,5.52,4.475,9.996,9.996,9.996h201.223c5.521,0,9.996-4.476,9.996-9.996s-4.475-9.996-9.996-9.996H19.993v-19.993h153.944
	c5.521,0,9.996-4.476,9.996-9.996v-37.986h27.159h89.629h27.159v37.986c0,5.52,4.475,9.996,9.996,9.996h153.944v19.993H306.938
	c-5.521,0-9.996,4.476-9.996,9.996s4.475,9.996,9.996,9.996h194.88c5.521,0,9.996-4.476,9.996-9.996v-39.985
	c0-5.52-4.475-9.996-9.996-9.996h-24.974v-29.745c0-5.52-4.475-9.996-9.996-9.996c-5.521,0-9.996,4.476-9.996,9.996v29.745h-24.822
	V304.332c0-0.006-0.001-0.011-0.001-0.017h24.823v0.017v39.636c0,5.52,4.475,9.996,9.996,9.996c5.521,0,9.996-4.476,9.996-9.996
	v-19.993h25.16C507.525,323.975,512,319.499,512,313.979z M414.308,164.733c2.519,0.392,5.098,0.598,7.726,0.598
	c2.624,0,5.2-0.206,7.715-0.596c0.546,1.989,1.355,3.877,2.386,5.624l-10.099,32.373l-10.106-32.384
	C412.955,168.603,413.763,166.719,414.308,164.733z M422.033,145.339c-15.512,0-28.311-11.804-29.836-26.876h9.401
	c13.098,0,25.574-4.707,35.304-13.132l15.12,8.863v1.245C452.022,131.926,438.569,145.339,422.033,145.339z M422.033,68.962
	c13.546,0,25.024,9.002,28.732,21.32l-10.439-6.119c-4.206-2.464-9.575-1.536-12.71,2.194c-6.465,7.698-15.947,12.113-26.017,12.113
	h-9.552C392.258,82.163,405.628,68.962,422.033,68.962z M248.187,116.071c2.517,0.392,5.095,0.598,7.72,0.598
	c2.622,0,5.196-0.206,7.711-0.597c0.547,2,1.359,3.897,2.394,5.653l-10.102,32.457l-10.11-32.468
	C246.83,119.96,247.641,118.067,248.187,116.071z M255.907,96.676c-15.52,0-28.324-11.851-29.838-26.979h9.403
	c13.099,0,25.575-4.716,35.306-13.157l15.118,8.882v1.267C285.896,83.224,272.443,96.676,255.907,96.676z M255.907,20.086
	c13.558,0,25.043,9.043,28.74,21.414l-10.439-6.134c-4.21-2.475-9.59-1.543-12.725,2.198c-6.465,7.715-15.945,12.14-26.011,12.14
	h-9.552C226.12,33.339,239.495,20.086,255.907,20.086z M185.932,163.165c0-12.879,9.192-23.926,21.856-26.267l20.612-3.812
	l17.966,57.696c1.302,4.178,5.169,7.023,9.545,7.023c4.376,0,8.244-2.847,9.545-7.025l17.958-57.693l20.611,3.811
	c12.665,2.341,21.857,13.388,21.857,26.268V255.5h-15.163v-76.472c0-5.52-4.475-9.996-9.996-9.996c-5.521,0-9.996,4.476-9.996,9.996
	v59.645h-69.637v-59.645c0-5.52-4.475-9.996-9.996-9.996c-5.521,0-9.996,4.476-9.996,9.996V255.5h-15.163V163.165z M82.247,164.053
	c2.517,0.392,5.095,0.598,7.72,0.598c2.622,0,5.196-0.206,7.711-0.597c0.547,2,1.36,3.897,2.394,5.653L89.97,202.165l-10.11-32.468
	C80.891,167.943,81.701,166.05,82.247,164.053z M89.967,144.658c-15.52,0-28.324-11.851-29.838-26.979h9.403
	c13.099,0,25.575-4.716,35.306-13.157l15.119,8.882v1.267C119.956,131.206,106.503,144.658,89.967,144.658z M89.967,68.068
	c13.558,0,25.043,9.043,28.74,21.414l-10.439-6.134c-4.21-2.475-9.59-1.544-12.725,2.198c-6.465,7.715-15.945,12.14-26.011,12.14
	H59.98C60.18,81.321,73.555,68.068,89.967,68.068z M19.993,303.983v-92.835c0-12.879,9.192-23.926,21.856-26.267l20.612-3.812
	l17.966,57.696c1.302,4.178,5.169,7.023,9.545,7.023c4.376,0,8.244-2.847,9.545-7.025l17.958-57.693l20.611,3.811
	c12.665,2.341,21.857,13.388,21.857,26.268v92.834h-15.163v-76.972c0-5.52-4.475-9.996-9.996-9.996
	c-5.521,0-9.996,4.476-9.996,9.996v56.979H55.149v-56.979c0-5.52-4.475-9.996-9.996-9.996s-9.996,4.476-9.996,9.996v76.972
	L19.993,303.983L19.993,303.983z M55.149,303.983h24.822v147.946H55.149V303.983z M99.964,451.929V303.983h24.822v147.946H99.964z
	 M173.937,403.946c-5.521,0-9.996,4.476-9.996,9.996v37.986h-19.162V323.975h25.16c5.521,0,9.996-4.476,9.996-9.996v-38.486h21.161
	v128.453H173.937z M221.089,258.666h24.822v145.28h-24.822V258.666z M265.903,403.946v-145.28h24.822v145.28L265.903,403.946
	L265.903,403.946z M337.877,403.946h-27.159V275.493h21.347v38.486c0,5.52,4.475,9.996,9.996,9.996h25.159v127.954h-19.347v-37.986
	C347.874,408.423,343.398,403.946,337.877,403.946z M412.036,304.332v147.596h-24.823V304.332v-0.017h24.823
	C412.037,304.321,412.036,304.326,412.036,304.332z M492.007,303.983h-15.164v-76.451c0-5.52-4.475-9.996-9.996-9.996
	c-5.521,0-9.996,4.476-9.996,9.996v56.792h-69.638v-56.792c0-5.52-4.475-9.996-9.996-9.996s-9.996,4.476-9.996,9.996v76.451h-15.162
	v-92.28c0-12.838,9.19-23.85,21.852-26.186l20.62-3.805l17.963,57.56c1.304,4.175,5.169,7.018,9.543,7.018s8.24-2.844,9.543-7.018
	l17.956-57.557l20.619,3.804c12.662,2.335,21.853,13.349,21.853,26.186L492.007,303.983L492.007,303.983z"/>
<path d="M466.85,373.957c-2.639,0-5.208,1.069-7.067,2.929c-1.869,1.859-2.929,4.438-2.929,7.067s1.06,5.208,2.929,7.066
	c1.859,1.859,4.438,2.93,7.067,2.93s5.208-1.07,7.067-2.93c1.859-1.858,2.929-4.437,2.929-7.066s-1.07-5.208-2.929-7.067
	S469.479,373.957,466.85,373.957z"/>
<g>
</g>
<g>
</g>
<g>
</g>
<g>
</g>
<g>
</g>
<g>
</g>
<g>
</g>
<g>
</g>
<g>
</g>
<g>
</g>
<g>
</g>
<g>
</g>
<g>
</g>
<g>
</g>
<g>
</g>
</svg>
