<?xml version="1.0" encoding="iso-8859-1"?>
<!-- Generator: Adobe Illustrator 19.0.0, SVG Export Plug-In . SVG Version: 6.00 Build 0)  -->
<svg version="1.1" id="Capa_1" xmlns="http://www.w3.org/2000/svg" xmlns:xlink="http://www.w3.org/1999/xlink" x="0px" y="0px"
	 viewBox="0 0 512 512" style="enable-background:new 0 0 512 512;" xml:space="preserve">
<circle style="fill:#FF5A5A;" cx="255.872" cy="259.36" r="59.376"/>
<g>
	<path style="fill:#AAE6FF;" d="M89.95,308.062H67.621c-13.702,0-24.81-11.108-24.81-24.81v-54.304
		c0-13.702,11.108-24.81,24.81-24.81h22.328c13.702,0,24.81,11.108,24.81,24.81v54.304
		C114.759,296.954,103.652,308.062,89.95,308.062z"/>
	<path style="fill:#AAE6FF;" d="M444.477,308.062h-22.328c-13.702,0-24.81-11.108-24.81-24.81v-54.304
		c0-13.702,11.108-24.81,24.81-24.81h22.328c13.702,0,24.81,11.108,24.81,24.81v54.304
		C469.286,296.954,458.179,308.062,444.477,308.062z"/>
	<path style="fill:#AAE6FF;" d="M203.974,89.888V67.56c0-13.702,11.108-24.81,24.81-24.81h54.304c13.702,0,24.81,11.108,24.81,24.81
		v22.328c0,13.702-11.108,24.81-24.81,24.81h-54.304C215.081,114.697,203.974,103.589,203.974,89.888z"/>
	<path style="fill:#AAE6FF;" d="M203.974,444.415v-22.328c0-13.702,11.108-24.81,24.81-24.81h54.304
		c13.702,0,24.81,11.108,24.81,24.81v22.328c0,13.702-11.108,24.81-24.81,24.81h-54.304
		C215.081,469.224,203.974,458.117,203.974,444.415z"/>
</g>
<g>
	<circle style="fill:#F5C86E;" cx="78.942" cy="79.092" r="68.949"/>
	<circle style="fill:#F5C86E;" cx="433.062" cy="79.092" r="68.949"/>
	<circle style="fill:#F5C86E;" cx="78.942" cy="433.412" r="68.949"/>
	<circle style="fill:#F5C86E;" cx="433.472" cy="433.412" r="68.949"/>
</g>
<path d="M62.938,73.372c1.858-1.859,2.928-4.437,2.928-7.065s-1.069-5.206-2.928-7.065c-1.859-1.858-4.437-2.928-7.065-2.928
	c-2.638,0-5.206,1.069-7.065,2.928c-1.869,1.859-2.928,4.437-2.928,7.065c0,2.628,1.059,5.206,2.928,7.065
	c1.859,1.858,4.437,2.928,7.065,2.928C58.501,76.299,61.079,75.229,62.938,73.372z"/>
<path d="M102.009,76.298c2.638,0,5.206-1.069,7.065-2.928c1.869-1.859,2.928-4.437,2.928-7.065s-1.059-5.206-2.928-7.065
	c-1.859-1.858-4.428-2.928-7.065-2.928c-2.628,0-5.206,1.069-7.065,2.928c-1.858,1.859-2.918,4.437-2.918,7.065
	c0,2.638,1.06,5.206,2.918,7.065C96.803,75.229,99.381,76.298,102.009,76.298z"/>
<path d="M100.394,105.617c3.902-3.902,3.902-10.228-0.001-14.132c-3.901-3.903-10.229-3.902-14.132,0.001
	c-1.955,1.955-4.555,3.032-7.32,3.032s-5.364-1.077-7.32-3.033c-3.903-3.901-10.228-3.901-14.133,0
	c-3.902,3.902-3.902,10.229,0,14.133c5.73,5.73,13.348,8.886,21.452,8.886C87.046,114.504,94.664,111.349,100.394,105.617z"/>
<path d="M409.983,76.329c2.628,0,5.206-1.069,7.064-2.928c1.869-1.859,2.929-4.437,2.929-7.065c0-2.639-1.06-5.206-2.929-7.065
	c-1.858-1.869-4.427-2.928-7.064-2.928c-2.628,0-5.206,1.059-7.065,2.928c-1.859,1.859-2.928,4.437-2.928,7.065
	c0,2.628,1.068,5.196,2.928,7.065C404.777,75.259,407.355,76.329,409.983,76.329z"/>
<path d="M456.129,76.329c2.628,0,5.206-1.069,7.065-2.928c1.858-1.869,2.928-4.437,2.928-7.065s-1.069-5.206-2.928-7.065
	c-1.859-1.869-4.437-2.928-7.065-2.928c-2.628,0-5.206,1.059-7.065,2.928c-1.858,1.859-2.928,4.427-2.928,7.065
	c0,2.628,1.069,5.206,2.928,7.065C450.923,75.259,453.501,76.329,456.129,76.329z"/>
<path d="M411.606,91.512c-3.902,3.902-3.902,10.229,0,14.133c5.915,5.915,13.682,8.87,21.452,8.87c7.767,0,15.538-2.957,21.451-8.87
	c3.903-3.902,3.903-10.228,0.001-14.132c-3.899-3.902-10.227-3.903-14.132-0.001c-4.038,4.036-10.606,4.036-14.64,0
	C421.835,87.611,415.509,87.611,411.606,91.512z"/>
<path d="M62.938,427.162c1.858-1.859,2.928-4.437,2.928-7.065s-1.069-5.206-2.928-7.064c-1.859-1.859-4.437-2.929-7.065-2.929
	c-2.628,0-5.206,1.069-7.065,2.929c-1.869,1.858-2.928,4.436-2.928,7.064s1.059,5.206,2.928,7.065
	c1.859,1.869,4.437,2.928,7.065,2.928C58.501,430.09,61.069,429.03,62.938,427.162z"/>
<path d="M102.009,410.103c-2.628,0-5.196,1.069-7.065,2.929c-1.858,1.858-2.918,4.436-2.918,7.064c0,2.639,1.06,5.217,2.918,7.065
	c1.869,1.869,4.437,2.928,7.065,2.928s5.206-1.059,7.065-2.928c1.869-1.859,2.928-4.427,2.928-7.065
	c0-2.628-1.059-5.206-2.928-7.064C107.215,411.174,104.637,410.103,102.009,410.103z"/>
<path d="M86.262,445.279c-1.955,1.955-4.555,3.032-7.32,3.032s-5.364-1.077-7.32-3.033c-3.903-3.901-10.228-3.901-14.133,0
	c-3.902,3.902-3.902,10.229,0,14.133c5.73,5.73,13.348,8.886,21.452,8.886s15.722-3.156,21.452-8.887
	c3.902-3.902,3.902-10.228-0.001-14.132C96.492,441.374,90.163,441.375,86.262,445.279z"/>
<path d="M419.976,420.127c0-2.628-1.06-5.206-2.929-7.065c-1.858-1.858-4.427-2.928-7.064-2.928c-2.628,0-5.206,1.069-7.065,2.928
	c-1.859,1.859-2.928,4.437-2.928,7.065c0,2.628,1.068,5.196,2.928,7.065c1.859,1.858,4.437,2.928,7.065,2.928
	s5.206-1.069,7.064-2.928C418.916,425.333,419.976,422.754,419.976,420.127z"/>
<path d="M466.122,420.127c0-2.628-1.069-5.206-2.928-7.065c-1.859-1.858-4.437-2.928-7.065-2.928c-2.628,0-5.206,1.069-7.065,2.928
	c-1.858,1.859-2.928,4.437-2.928,7.065c0,2.628,1.069,5.206,2.928,7.065c1.859,1.858,4.437,2.928,7.065,2.928
	c2.628,0,5.206-1.069,7.065-2.928C465.053,425.333,466.122,422.754,466.122,420.127z"/>
<path d="M433.058,468.322c8.103,0,15.721-3.156,21.452-8.886c3.902-3.902,3.902-10.229,0-14.133c-3.903-3.901-10.228-3.901-14.133,0
	c-1.956,1.956-4.556,3.033-7.32,3.033c-2.766,0-5.365-1.077-7.32-3.032c-3.9-3.902-10.228-3.903-14.132-0.001
	s-3.903,10.228-0.001,14.132C417.336,465.166,424.954,468.322,433.058,468.322z"/>
<path d="M502.007,422.917c-5.518,0-9.993,4.475-9.993,9.993l-0.002,0.44c-0.032,5.518,4.415,10.019,9.934,10.052
	c0.02,0,0.04,0,0.06,0c5.491,0,9.96-4.435,9.992-9.934L512,432.91C512,427.391,507.525,422.917,502.007,422.917z"/>
<path d="M492.486,469.285c-4.245-3.527-10.543-2.949-14.073,1.293c-11.251,13.529-27.783,21.288-45.356,21.288
	c-32.508,0-58.957-26.449-58.957-58.957s26.449-58.957,58.957-58.957c18.577,0,35.692,8.492,46.955,23.298
	c3.341,4.391,9.609,5.245,14.004,1.903c4.393-3.342,5.244-9.611,1.903-14.004c-12.947-17.018-31.673-27.796-52.456-30.503v-36.592
	h1.014c19.19,0,34.802-15.613,34.802-34.802v-54.304c0-19.19-15.613-34.802-34.802-34.802h-1.014v-36.794
	C482.088,152.241,512,119.117,512,79.117c0-43.529-35.413-78.942-78.942-78.942c-40.061,0-73.223,30.003-78.258,68.714h-36.91
	v-1.328c0-19.19-15.613-34.802-34.802-34.802h-54.305c-19.19,0-34.801,15.613-34.801,34.802v1.328h-36.779
	c-5.022-38.724-38.191-68.74-78.26-68.74C35.413,0.149,0,35.562,0,79.091c0,40.142,30.124,73.358,68.949,78.288v36.767h-1.328
	c-19.19,0-34.801,15.613-34.801,34.802v54.304c0,19.19,15.612,34.802,34.801,34.802h1.328v36.54C30.124,359.526,0,392.741,0,432.883
	c0,43.529,35.413,78.942,78.942,78.942c39.961,0,73.059-29.853,78.221-68.425h36.819v1.014c0,19.19,15.612,34.802,34.801,34.802
	h54.305c19.19,0,34.802-15.613,34.802-34.802V443.4h36.944c5.149,38.584,38.254,68.451,78.224,68.451
	c23.53,0,45.661-10.386,60.721-28.494C497.308,479.114,496.729,472.813,492.486,469.285z M444.477,214.131
	c8.17,0,14.817,6.647,14.817,14.817v54.304c0,8.17-6.647,14.817-14.817,14.817h-1.014v-5.919c0-5.518-4.475-9.993-9.993-9.993
	c-5.518,0-9.993,4.475-9.993,9.993v5.919h-1.328c-8.17,0-14.817-6.647-14.817-14.817v-54.304c0-8.17,6.647-14.817,14.817-14.817
	h1.328v5.906c0,5.518,4.475,9.993,9.993,9.993c5.518,0,9.993-4.475,9.993-9.993v-5.906H444.477z M433.058,20.161
	c32.508,0,58.957,26.449,58.957,58.957c0,32.304-26.121,58.612-58.348,58.942c-0.066-0.001-0.13-0.01-0.197-0.01
	c-0.16,0-0.315,0.016-0.473,0.024c-32.48-0.033-58.896-26.468-58.896-58.956C374.101,46.609,400.55,20.161,433.058,20.161z
	 M213.967,67.56c0-8.17,6.646-14.817,14.816-14.817h54.305c8.17,0,14.817,6.647,14.817,14.817v1.328H292
	c-5.518,0-9.993,4.475-9.993,9.993s4.475,9.993,9.993,9.993h5.906v1.014c0,8.17-6.647,14.817-14.817,14.817h-54.305
	c-8.17,0-14.816-6.647-14.816-14.817v-1.014h5.919c5.518,0,9.993-4.475,9.993-9.993s-4.475-9.993-9.993-9.993h-5.919V67.56z
	 M19.985,79.091c0-32.508,26.449-58.957,58.957-58.957s58.957,26.449,58.957,58.957s-26.449,58.957-58.957,58.957
	S19.985,111.601,19.985,79.091z M67.621,298.07c-8.17,0-14.816-6.647-14.816-14.817v-54.304c0-8.17,6.646-14.817,14.816-14.817
	h1.328v5.906c0,5.518,4.475,9.993,9.993,9.993s9.993-4.475,9.993-9.993v-5.906h1.015c8.17,0,14.817,6.647,14.817,14.817v54.304
	c0,8.17-6.647,14.817-14.817,14.817h-1.015v-5.919c0-5.518-4.475-9.993-9.993-9.993s-9.993,4.475-9.993,9.993v5.919H67.621z
	 M78.942,491.839c-32.508,0-58.957-26.449-58.957-58.957s26.449-58.957,58.957-58.957s58.957,26.449,58.957,58.957
	S111.45,491.839,78.942,491.839z M297.905,444.414c0,8.17-6.647,14.817-14.817,14.817h-54.305c-8.17,0-14.816-6.647-14.816-14.817
	V443.4h5.919c5.518,0,9.993-4.475,9.993-9.993s-4.475-9.993-9.993-9.993h-5.919v-1.328c0-8.17,6.646-14.817,14.816-14.817h54.305
	c8.17,0,14.817,6.647,14.817,14.817v1.328H292c-5.518,0-9.993,4.475-9.993,9.993s4.475,9.993,9.993,9.993h5.906V444.414z
	 M283.088,387.284h-54.305c-19.19,0-34.801,15.613-34.801,34.802v1.328h-36.685c-4.301-35.796-32.637-64.284-68.362-68.819v-36.54
	h1.015c19.19,0,34.802-15.613,34.802-34.802v-54.304c0-19.19-15.613-34.802-34.802-34.802h-1.015v-36.767
	c35.62-4.523,63.893-32.857,68.322-68.506h36.725v1.014c0,19.19,15.612,34.802,34.801,34.802h54.305
	c19.19,0,34.802-15.613,34.802-34.802v-1.014h36.85c4.435,35.798,32.915,64.227,68.737,68.584v36.689h-1.328
	c-19.19,0-34.802,15.613-34.802,34.802v54.304c0,19.19,15.613,34.802,34.802,34.802h1.328v36.514
	c-35.91,4.367-64.442,32.925-68.77,68.845h-36.817v-1.328C317.891,402.897,302.278,387.284,283.088,387.284z"/>
<path d="M256.006,246.104c-2.639,0-5.206,1.069-7.075,2.929c-1.859,1.858-2.918,4.436-2.918,7.064c0,2.639,1.059,5.206,2.918,7.065
	c1.869,1.869,4.436,2.928,7.075,2.928c2.628,0,5.195-1.059,7.055-2.928c1.869-1.859,2.938-4.436,2.938-7.065
	c0-2.628-1.069-5.195-2.938-7.064C261.212,247.173,258.634,246.104,256.006,246.104z"/>
<path d="M357.925,347.78v-41.79c0-5.518-4.475-9.993-9.993-9.993s-9.993,4.475-9.993,9.993v17.666l-24.969-24.969
	c7.728-11.185,12.269-24.733,12.269-39.327c0-16.393-5.728-31.465-15.271-43.35l27.717-27.718v17.666
	c0,5.518,4.475,9.993,9.993,9.993s9.993-4.475,9.993-9.993v-41.79c0-5.518-4.475-9.993-9.993-9.993h-41.79
	c-5.518,0-9.993,4.475-9.993,9.993s4.475,9.993,9.993,9.993h17.666l-28.206,28.206c-11.214-7.791-24.816-12.374-39.475-12.374
	c-14.724,0-28.381,4.626-39.623,12.48l-28.057-28.058h17.665c5.518,0,9.993-4.475,9.993-9.993c0-5.518-4.475-9.993-9.993-9.993
	h-41.789c-5.518,0-9.993,4.475-9.993,9.993v41.789c0,5.518,4.475,9.993,9.993,9.993c5.518,0,9.993-4.475,9.993-9.993v-17.664
	l27.605,27.606c-9.475,11.863-15.159,26.879-15.159,43.207c0,14.789,4.667,28.5,12.585,39.771l-24.778,24.778v-17.665
	c0-5.518-4.475-9.993-9.993-9.993s-9.993,4.475-9.993,9.993v41.789c0,5.518,4.475,9.993,9.993,9.993h41.79
	c5.518,0,9.993-4.475,9.993-9.993s-4.475-9.993-9.993-9.993h-17.666l24.361-24.362c11.841,9.408,26.803,15.048,43.066,15.048
	c16.457,0,31.585-5.772,43.491-15.383l24.443,24.443h-17.666c-5.518,0-9.993,4.475-9.993,9.993c0,5.518,4.475,9.993,9.993,9.993
	h41.79C353.451,357.773,357.925,353.299,357.925,347.78z M255.874,308.742c-10.748,0-20.698-3.462-28.814-9.315l6.11-6.11
	c3.902-3.902,3.902-10.229,0-14.133c-3.903-3.901-10.229-3.901-14.133,0l-5.524,5.524c-4.454-7.416-7.022-16.086-7.022-25.348
	c0-10.813,3.502-20.818,9.42-28.961l3.126,3.127c1.952,1.951,4.509,2.927,7.066,2.927s5.114-0.976,7.066-2.927
	c3.902-3.902,3.902-10.229,0-14.133l-2.485-2.485c7.38-4.396,15.992-6.93,25.189-6.93c9.129,0,17.682,2.5,25.027,6.837l-2.565,2.565
	c-3.902,3.902-3.902,10.229,0,14.133c1.952,1.951,4.509,2.927,7.066,2.927c2.557,0,5.114-0.976,7.066-2.927l3.263-3.263
	c5.983,8.169,9.526,18.232,9.526,29.11c0,9.063-2.465,17.557-6.745,24.866l-6.056-6.056c-3.903-3.901-10.228-3.901-14.133,0
	c-3.902,3.902-3.902,10.229,0,14.133l6.808,6.808C276.937,305.158,266.817,308.742,255.874,308.742z"/>
<g>
</g>
<g>
</g>
<g>
</g>
<g>
</g>
<g>
</g>
<g>
</g>
<g>
</g>
<g>
</g>
<g>
</g>
<g>
</g>
<g>
</g>
<g>
</g>
<g>
</g>
<g>
</g>
<g>
</g>
</svg>
