<?xml version="1.0" encoding="iso-8859-1"?>
<!-- Generator: Adobe Illustrator 19.0.0, SVG Export Plug-In . SVG Version: 6.00 Build 0)  -->
<svg version="1.1" id="Capa_1" xmlns="http://www.w3.org/2000/svg" xmlns:xlink="http://www.w3.org/1999/xlink" x="0px" y="0px"
	 viewBox="0 0 512.001 512.001" style="enable-background:new 0 0 512.001 512.001;" xml:space="preserve">
<circle style="fill:#F5B955;" cx="125.996" cy="125.996" r="115.996"/>
<circle style="fill:#78D2FA;" cx="386.006" cy="386.006" r="115.996"/>
<path style="fill:#FFE682;" d="M194.002,285.999h-13v-57.858l-54.652,57.858H50.007c-22.09,0-39.999,17.908-39.999,39.999v135.995
	c0,22.09,17.908,39.999,39.999,39.999h143.995c22.09,0,39.999-17.908,39.999-39.999V325.998
	C234.001,303.906,216.092,285.999,194.002,285.999z"/>
<path style="fill:#AAE6FF;" d="M317.998,226.001h13v57.858l54.652-57.858h76.343c22.09,0,39.999-17.908,39.999-39.999V50.007
	c0-22.09-17.908-39.999-39.999-39.999H317.998c-22.09,0-39.999,17.908-39.999,39.999v135.995
	C277.999,208.093,295.907,226.001,317.998,226.001z"/>
<path d="M96.366,104.485c0-2.63-1.07-5.21-2.93-7.07c-1.86-1.86-4.44-2.93-7.07-2.93s-5.21,1.07-7.07,2.93
	c-1.86,1.86-2.93,4.44-2.93,7.07c0,2.64,1.07,5.21,2.93,7.08c1.86,1.86,4.44,2.93,7.07,2.93s5.21-1.07,7.07-2.93
	C95.296,109.695,96.366,107.124,96.366,104.485z"/>
<path d="M165.633,94.486c-2.64,0-5.21,1.07-7.08,2.93c-1.86,1.86-2.93,4.44-2.93,7.08c0,2.63,1.07,5.2,2.93,7.07
	c1.87,1.86,4.44,2.93,7.08,2.93c2.63,0,5.2-1.07,7.06-2.93c1.87-1.87,2.94-4.44,2.94-7.07c0-2.64-1.07-5.22-2.94-7.08
	C170.833,95.556,168.263,94.486,165.633,94.486z"/>
<path d="M251.991,125.996C251.991,56.521,195.47,0,125.996,0S0,56.521,0,125.996s56.521,125.996,125.996,125.996
	c6.9,0,13.669-0.566,20.27-1.639l-24.226,25.646H50.007c-27.569,0-49.998,22.429-49.998,49.998v135.995
	c0,27.569,22.429,49.998,49.998,49.998h143.995c27.569,0,49.998-22.429,49.998-49.998V325.997c0-27.569-22.429-49.998-49.998-49.998
	h-3v-42.111C227.524,211.801,251.991,171.703,251.991,125.996z M194.002,295.999c16.541,0,29.999,13.458,29.999,29.999v135.995
	c0,16.541-13.458,29.999-29.999,29.999H50.007c-16.541,0-29.999-13.458-29.999-29.999V325.998c0-16.541,13.458-29.999,29.999-29.999
	h76.343c2.751,0,5.38-1.133,7.27-3.133l37.384-39.576v32.709c0,5.523,4.477,10,10,10H194.002z M19.999,125.996
	c0-58.447,47.549-105.996,105.996-105.996s105.996,47.549,105.996,105.996s-47.549,105.996-105.996,105.996
	S19.999,184.443,19.999,125.996z"/>
<path d="M156.562,143.159c-5.334-1.424-10.817,1.745-12.242,7.08c-2.216,8.295-9.752,14.089-18.325,14.089
	c-8.574,0-16.109-5.793-18.325-14.089c-1.425-5.335-6.906-8.507-12.242-7.08c-5.336,1.425-8.506,6.906-7.081,12.242
	c4.55,17.031,20.03,28.926,37.647,28.926s33.097-11.896,37.647-28.926C165.068,150.066,161.898,144.585,156.562,143.159z"/>
<path d="M356.376,364.496c0-2.63-1.07-5.21-2.93-7.07c-1.86-1.86-4.44-2.93-7.08-2.93c-2.63,0-5.21,1.07-7.07,2.93
	c-1.86,1.86-2.92,4.44-2.92,7.07c0,2.64,1.06,5.21,2.92,7.07c1.87,1.87,4.44,2.93,7.07,2.93c2.64,0,5.21-1.06,7.08-2.93
	C355.307,369.706,356.376,367.135,356.376,364.496z"/>
<path d="M425.633,354.497c-2.63,0-5.21,1.07-7.07,2.93c-1.86,1.86-2.93,4.44-2.93,7.07s1.07,5.21,2.93,7.07
	c1.86,1.87,4.44,2.93,7.07,2.93c2.63,0,5.21-1.06,7.07-2.93c1.86-1.86,2.93-4.43,2.93-7.07c0-2.63-1.07-5.21-2.93-7.07
	C430.843,355.566,428.264,354.497,425.633,354.497z"/>
<path d="M386.004,260.009c-6.9,0-13.669,0.566-20.27,1.639l24.226-25.646h72.033c27.569,0,49.998-22.429,49.998-49.998V50.008
	c0-27.569-22.429-49.998-49.998-49.998H317.999c-27.569,0-49.998,22.429-49.998,49.998v135.995
	c0,27.569,22.429,49.998,49.998,49.998h3v42.111c-36.523,22.087-60.989,62.186-60.989,107.893
	c0,69.475,56.521,125.996,125.996,125.996s125.996-56.521,125.996-125.996S455.478,260.009,386.004,260.009z M317.998,216.001
	c-16.541,0-29.999-13.458-29.999-29.999V50.007c0-16.541,13.458-29.999,29.999-29.999h143.995c16.541,0,29.999,13.458,29.999,29.999
	v135.995c0,16.541-13.458,29.999-29.999,29.999h-76.343c-2.751,0-5.38,1.133-7.27,3.133l-37.384,39.576v-32.709
	c0-5.523-4.477-10-10-10H317.998z M386.004,492.001c-58.447,0-105.996-47.549-105.996-105.996s47.549-105.996,105.996-105.996
	s105.996,47.549,105.996,105.996S444.45,492.001,386.004,492.001z"/>
<path d="M410.995,408.495h-49.98c-5.523,0-10,4.477-10,10c0,5.523,4.477,10,10,10h49.98c5.523,0,10-4.477,10-10
	C420.994,412.971,416.517,408.495,410.995,408.495z"/>
<path d="M187.791,431.994H56.217c-5.523,0-10,4.477-10,10c0,5.523,4.477,10,10,10h131.574c5.523,0,10-4.477,10-10
	C197.791,436.471,193.314,431.994,187.791,431.994z"/>
<path d="M46.217,393.995c0,5.523,4.477,10,10,10h131.574c5.523,0,10-4.477,10-10s-4.477-10-10-10H56.217
	C50.694,383.995,46.217,388.472,46.217,393.995z"/>
<path d="M56.217,355.996h70.133c5.523,0,10-4.477,10-10c0-5.523-4.477-10-10-10H56.217c-5.523,0-10,4.477-10,10
	C46.217,351.52,50.694,355.996,56.217,355.996z"/>
<path d="M176.503,335.997c-5.523,0-9.957,4.477-9.957,10c0,5.523,4.52,10,10.043,10s10-4.477,10-10c0-5.523-4.477-10-10-10H176.503z
	"/>
<path d="M324.208,80.006h131.574c5.523,0,10-4.477,10-10c0-5.523-4.477-10-10-10H324.208c-5.523,0-10,4.477-10,10
	C314.208,75.529,318.685,80.006,324.208,80.006z"/>
<path d="M465.782,118.005c0-5.523-4.477-10-10-10H324.208c-5.523,0-10,4.477-10,10c0,5.523,4.477,10,10,10h131.574
	C461.305,128.005,465.782,123.528,465.782,118.005z"/>
<path d="M455.782,156.004h-70.133c-5.523,0-10,4.477-10,10c0,5.523,4.477,10,10,10h70.133c5.523,0,10-4.477,10-10
	C465.782,160.48,461.305,156.004,455.782,156.004z"/>
<path d="M335.497,176.002c5.523,0,9.957-4.477,9.957-10c0-5.523-4.52-10-10.043-10c-5.523,0-10,4.477-10,10c0,5.523,4.477,10,10,10
	H335.497z"/>
<g>
</g>
<g>
</g>
<g>
</g>
<g>
</g>
<g>
</g>
<g>
</g>
<g>
</g>
<g>
</g>
<g>
</g>
<g>
</g>
<g>
</g>
<g>
</g>
<g>
</g>
<g>
</g>
<g>
</g>
</svg>
