<?xml version="1.0" encoding="iso-8859-1"?>
<!-- Generator: Adobe Illustrator 19.0.0, SVG Export Plug-In . SVG Version: 6.00 Build 0)  -->
<svg version="1.1" id="Capa_1" xmlns="http://www.w3.org/2000/svg" xmlns:xlink="http://www.w3.org/1999/xlink" x="0px" y="0px"
	 viewBox="0 0 512 512" style="enable-background:new 0 0 512 512;" xml:space="preserve">
<path style="fill:#4BB9F5;" d="M10.001,132.262v53.125h28.626c3.131,14.227,8.725,27.53,16.323,39.432l-20.234,20.234l37.565,37.564
	l20.234-20.234c11.903,7.597,25.205,13.192,39.432,16.323v28.626h53.125v-28.659c14.207-3.146,27.49-8.747,39.373-16.349
	l20.293,20.293l37.565-37.565l-20.328-20.328c7.567-11.879,13.141-25.148,16.264-39.338h28.779v-53.125h-28.812
	c-3.137-14.17-8.719-27.42-16.29-39.279l20.387-20.387L244.738,35.03l-20.387,20.387c-11.86-7.57-25.109-13.152-39.279-16.29V10.315
	h-53.125v28.779c-14.19,3.123-27.46,8.696-39.338,16.264L72.28,35.031L34.716,72.596l20.293,20.293
	c-7.6,11.884-13.203,25.166-16.349,39.373L10.001,132.262L10.001,132.262z"/>
<path style="fill:#F5C86E;" d="M253.716,352.369c5.684-8.22,12.691-15.217,20.607-20.805l-7.646-18.169l33.633-14.154l7.659,18.2
	c9.518-1.733,19.403-1.838,29.238-0.146l7.461-18.305l33.791,13.774l-7.47,18.326c8.199,5.669,15.18,12.655,20.76,20.545
	l18.253-7.681l14.154,33.633l-18.253,7.681c1.74,9.507,1.855,19.381,0.177,29.207l18.326,7.47l-13.774,33.791l-18.305-7.461
	c-5.665,8.215-12.651,15.211-20.544,20.804l7.659,18.2l-33.633,14.154l-7.646-18.169c-9.53,1.753-19.43,1.873-29.283,0.19
	l-7.43,18.229l-33.791-13.774l7.421-18.208c-8.237-5.68-15.248-12.688-20.849-20.606l-18.116,7.624l-14.154-33.633l18.116-7.624
	c-1.747-9.541-1.856-19.452-0.159-29.314l-18.208-7.421l13.774-33.791L253.716,352.369z"/>
<path style="fill:#A5DC69;" d="M380.013,446.56c0-11.977-8.536-22.251-20.309-24.447l-14.485-2.701l-44.369,0.01l-14.431,2.691
	c-11.774,2.196-20.309,12.471-20.309,24.447v15.993c2.803,2.563,5.795,4.958,8.974,7.15l-7.421,18.208l33.791,13.774l7.43-18.229
	c9.852,1.682,19.753,1.563,29.283-0.19l7.646,18.169l33.633-14.155l-7.659-18.2c2.87-2.034,5.616-4.259,8.227-6.655V446.56H380.013z
	"/>
<path style="fill:#F0F0FA;" d="M358.354,210.489c0,5.308,0.647,10.464,1.836,15.407l-14.2,8.198l18.56,32.146l14.215-8.206
	c7.445,7.085,16.546,12.438,26.671,15.418v16.394h37.119v-16.394c10.125-2.98,19.226-8.332,26.672-15.418l14.214,8.206L502,234.095
	l-14.2-8.197c1.19-4.943,1.836-10.099,1.836-15.407s-0.647-10.464-1.836-15.407l14.2-8.197l-18.56-32.146l-14.214,8.206
	c-7.445-7.085-16.547-12.438-26.672-15.418v-16.394h-37.119v16.394c-10.125,2.98-19.225,8.332-26.671,15.418l-14.215-8.206
	l-18.56,32.146l14.2,8.198C359,200.027,358.354,205.181,358.354,210.489z"/>
<path style="fill:#6E87F5;" d="M454.06,230.47l-10.932-2.039l-33.482,0.008l-10.89,2.031c-8.885,1.657-15.326,9.412-15.326,18.449
	v13.123c6.469,5.098,13.901,9.026,22.005,11.411v16.394h37.119v-16.394c10.125-2.98,19.226-8.332,26.672-15.418l0.16,0.093v-9.209
	C469.386,239.881,462.944,232.127,454.06,230.47z"/>
<circle style="fill:#FFFFFF;" cx="158.509" cy="158.821" r="82.005"/>
<path style="fill:#F5B955;" d="M218.146,203.284c0-12.541-8.939-23.3-21.267-25.6l-15.168-2.829l-46.461,0.011l-15.111,2.818
	c-12.329,2.299-21.267,13.059-21.267,25.6v11.795c14.952,15.845,36.131,25.75,59.637,25.75c23.505,0,44.685-9.905,59.636-25.75
	L218.146,203.284L218.146,203.284z"/>
<g>
	<path style="fill:#FFCDAC;" d="M426.408,182.164L426.408,182.164c-11.303,0-20.466,9.163-20.466,20.466v13.318
		c0,11.303,9.163,20.466,20.466,20.466l0,0c11.303,0,20.466-9.163,20.466-20.466V202.63
		C446.873,191.327,437.711,182.164,426.408,182.164z"/>
	<path style="fill:#FFCDAC;" d="M323.061,358.101L323.061,358.101c-14.978,0-27.12,12.142-27.12,27.12v17.648
		c0,14.978,12.142,27.12,27.12,27.12l0,0c14.978,0,27.12-12.142,27.12-27.12V385.22
		C350.181,370.242,338.039,358.101,323.061,358.101z"/>
	<path style="fill:#FFCDAC;" d="M159.788,110.655h-2.557c-14.978,0-27.12,12.142-27.12,27.12v21.037
		c0,14.978,12.142,27.12,27.12,27.12h2.557c14.978,0,27.12-12.142,27.12-27.12v-21.037
		C186.908,122.796,174.766,110.655,159.788,110.655z"/>
</g>
<path d="M237.666,289.69c1.876,1.875,4.419,2.929,7.071,2.929s5.196-1.054,7.071-2.929l37.565-37.565
	c3.905-3.905,3.905-10.238,0-14.144l-14.831-14.83c4.883-8.803,8.726-18.094,11.481-27.765h20.993
	c5.522,0,10.001-4.478,10.001-10.001v-53.124c0-5.522-4.478-10.001-10.001-10.001h-21.035c-2.764-9.652-6.609-18.926-11.492-27.711
	l14.885-14.884c3.905-3.905,3.905-10.238,0-14.144L251.81,27.958c-1.875-1.875-4.419-2.929-7.071-2.929s-5.195,1.054-7.071,2.929
	l-14.885,14.886c-8.784-4.883-18.056-8.728-27.71-11.492V10.315c0-5.522-4.478-10.001-10.001-10.001h-53.125
	c-5.522,0-10.001,4.478-10.001,10.001v20.992c-9.672,2.757-18.964,6.599-27.765,11.481l-14.83-14.831
	c-1.876-1.875-4.419-2.929-7.071-2.929c-2.652,0-5.196,1.054-7.071,2.929L27.645,65.524c-3.905,3.905-3.905,10.238,0,14.144
	l14.785,14.784c-4.907,8.814-8.771,18.12-11.546,27.811H10.001C4.478,122.262,0,126.741,0,132.263v53.124
	c0,5.522,4.478,10.001,10.001,10.001H30.84c2.768,9.71,6.628,19.035,11.536,27.864l-14.731,14.73
	c-3.905,3.905-3.905,10.238,0,14.144L65.21,289.69c1.875,1.875,4.419,2.929,7.071,2.929c2.652,0,5.195-1.054,7.071-2.929
	l14.731-14.731c8.83,4.907,18.153,8.768,27.863,11.535v20.839c0,5.522,4.478,10.001,10.001,10.001h53.125
	c5.522,0,10.001-4.478,10.001-10.001v-20.882c9.691-2.774,18.997-6.638,27.81-11.546L237.666,289.69z M182.909,268.91
	c-4.579,1.014-7.838,5.074-7.838,9.765v18.658h-33.124v-18.625c0-4.694-3.266-8.757-7.851-9.768
	c-12.887-2.836-25.065-7.877-36.2-14.985c-3.956-2.524-9.136-1.961-12.453,1.357L72.28,268.475l-23.422-23.422l13.163-13.162
	c3.317-3.318,3.883-8.497,1.357-12.453c-7.105-11.133-12.148-23.313-14.985-36.202c-1.01-4.584-5.072-7.85-9.768-7.85H20.001
	v-33.123H38.66c4.689,0,8.75-3.259,9.765-7.838c2.85-12.869,7.898-25.03,15.009-36.148c2.529-3.956,1.967-9.14-1.354-12.46
	L48.858,72.596L72.28,49.173L85.537,62.43c3.316,3.316,8.489,3.881,12.445,1.363c11.113-7.079,23.263-12.104,36.114-14.932
	c4.585-1.01,7.851-5.072,7.851-9.768V20.316h33.124v18.812c0,4.689,3.259,8.749,7.838,9.765c12.834,2.842,24.966,7.873,36.06,14.955
	c3.955,2.523,9.135,1.961,12.453-1.357l13.316-13.316l23.422,23.422L254.844,85.91c-3.317,3.318-3.883,8.496-1.358,12.452
	c7.082,11.098,12.114,23.23,14.955,36.061c1.014,4.579,5.073,7.839,9.765,7.839h18.811v33.123h-18.778
	c-4.695,0-8.758,3.266-9.768,7.852c-2.826,12.848-7.85,24.998-14.932,36.113c-2.519,3.955-1.952,9.13,1.363,12.445l13.258,13.257
	l-23.422,23.422l-13.222-13.222c-3.321-3.32-8.505-3.882-12.461-1.353C207.942,261.01,195.78,266.06,182.909,268.91z"/>
<path d="M428.182,412.685l-11.223-4.575c0.459-5.528,0.426-11.076-0.102-16.602l11.178-4.704c5.091-2.143,7.48-8.005,5.338-13.097
	l-14.154-33.633c-1.028-2.444-2.986-4.38-5.442-5.382c-2.455-1.001-5.21-0.986-7.653,0.044l-11.178,4.703
	c-3.582-4.239-7.525-8.141-11.801-11.678l4.574-11.224c1.002-2.456,0.986-5.209-0.043-7.653c-1.028-2.444-2.986-4.38-5.442-5.382
	l-33.791-13.773c-5.119-2.082-10.952,0.373-13.035,5.486l-4.563,11.192c-5.536-0.466-11.096-0.438-16.634,0.085l-4.685-11.132
	c-1.028-2.444-2.986-4.38-5.442-5.381c-2.455-1.003-5.208-0.987-7.653,0.043l-33.633,14.154c-5.091,2.142-7.48,8.005-5.338,13.097
	l4.665,11.087c-4.262,3.596-8.185,7.557-11.738,11.853l-11.125-4.535c-2.455-1.001-5.208-0.986-7.653,0.044
	c-2.444,1.028-4.38,2.986-5.382,5.442l-13.773,33.791c-2.084,5.114,0.372,10.951,5.486,13.036l11.095,4.521
	c-0.47,5.564-0.439,11.15,0.091,16.712l-11.04,4.646c-5.091,2.143-7.48,8.005-5.338,13.097l14.154,33.633
	c1.028,2.444,2.986,4.38,5.442,5.382c2.455,1.001,5.21,0.986,7.653-0.044l11.041-4.646c3.606,4.268,7.577,8.193,11.886,11.749
	l-4.522,11.096c-2.084,5.114,0.372,10.951,5.486,13.035l33.79,13.774c1.236,0.503,2.514,0.742,3.771,0.742
	c3.944-0.001,7.683-2.35,9.265-6.228l4.535-11.126c5.553,0.461,11.129,0.426,16.68-0.107l4.666,11.087
	c1.028,2.444,2.986,4.38,5.442,5.381c2.455,1.003,5.208,0.987,7.653-0.043l33.633-14.154c5.091-2.142,7.48-8.005,5.338-13.097
	l-4.684-11.132c4.244-3.593,8.15-7.547,11.689-11.835l11.193,4.562c5.117,2.086,10.951-0.37,13.035-5.485l13.774-33.791
	c1.002-2.456,0.986-5.209-0.043-7.653C432.596,415.622,430.638,413.686,428.182,412.685z M351.15,488.338l-3.767-8.952
	c-1.82-4.328-6.409-6.802-11.027-5.956c-8.552,1.573-17.23,1.631-25.788,0.168c-4.621-0.79-9.174,1.74-10.944,6.082l-3.656,8.969
	l-15.27-6.223l3.647-8.948c1.771-4.348,0.281-9.343-3.584-12.008c-1.617-1.115-3.177-2.298-4.692-3.531
	c0.022-0.271,0.042-0.543,0.042-0.819V446.56c0-7.156,5.105-13.304,12.142-14.616l9.662-1.802
	c6.618,6.107,15.454,9.848,25.147,9.848s18.529-3.74,25.147-9.847l9.662,1.802c7.035,1.313,12.142,7.459,12.142,14.616v10.561
	c0,0.236,0.019,0.468,0.035,0.7c-1.313,1.073-2.653,2.115-4.043,3.1c-3.826,2.711-5.255,7.716-3.436,12.039l3.78,8.984
	L351.15,488.338z M340.18,402.868c0,9.44-7.679,17.119-17.119,17.119c-9.44,0-17.119-7.679-17.119-17.119v-17.647
	c0-9.44,7.679-17.119,17.119-17.119c9.44,0,17.119,7.679,17.119,17.119V402.868z M405.148,442.701l-9.045-3.686
	c-2.286-0.933-4.75-0.954-6.963-0.209c-3.033-13.309-13.715-23.934-27.605-26.523l-2.453-0.458c0.714-2.87,1.099-5.868,1.099-8.957
	V385.22c0-20.468-16.652-37.12-37.12-37.12s-37.12,16.652-37.12,37.12v17.647c0,3.087,0.385,6.086,1.099,8.956l-2.454,0.458
	c-14.112,2.631-24.907,13.559-27.739,27.168c-2.095-0.567-4.375-0.459-6.49,0.431l-8.898,3.745l-6.396-15.198l8.898-3.745
	c4.325-1.82,6.803-6.402,5.958-11.02c-1.568-8.563-1.615-17.247-0.141-25.814c0.796-4.627-1.733-9.186-6.081-10.958l-8.945-3.646
	l6.223-15.27l8.969,3.655c4.341,1.768,9.332,0.284,12.001-3.573c4.938-7.144,11.046-13.309,18.148-18.323
	c3.836-2.708,5.271-7.72,3.449-12.049l-3.767-8.952l15.198-6.396l3.78,8.984c1.818,4.321,6.398,6.795,11.01,5.959
	c8.542-1.555,17.207-1.599,25.749-0.129c4.634,0.794,9.186-1.732,10.957-6.081l3.687-9.044l15.27,6.223l-3.694,9.066
	c-1.771,4.343-0.285,9.333,3.572,12.001c7.124,4.926,13.275,11.014,18.283,18.094c2.709,3.832,7.72,5.262,12.044,3.442l9.036-3.803
	l6.396,15.198l-9.036,3.803c-4.325,1.82-6.803,6.402-5.958,11.019c1.563,8.531,1.615,17.186,0.157,25.722
	c-0.789,4.623,1.74,9.175,6.083,10.944l9.065,3.695L405.148,442.701z"/>
<path d="M209.64,108.156c1.953,1.952,4.512,2.929,7.071,2.929c2.559,0,5.118-0.977,7.071-2.929c3.905-3.905,3.905-10.238,0-14.144
	l-0.246-0.246c-3.906-3.904-10.237-3.904-14.144,0c-3.905,3.905-3.905,10.238,0,14.144L209.64,108.156z"/>
<path d="M246.422,131.733c-1.622-5.28-7.221-8.246-12.496-6.622c-5.279,1.621-8.244,7.216-6.622,12.496
	c5.155,16.78,3.976,34.444-2.779,49.949c-4.87-10.02-14.266-17.548-25.811-19.7l-2.803-0.523c0.646-2.738,0.998-5.587,0.998-8.519
	v-21.037c0-20.468-16.652-37.12-37.12-37.12h-2.558c-20.468,0-37.12,16.652-37.12,37.12v21.037c0,2.932,0.352,5.782,0.998,8.519
	l-2.802,0.523c-11.571,2.157-20.982,9.713-25.843,19.763c-3.913-8.965-5.987-18.717-5.987-28.793
	c0-19.232,7.489-37.315,21.09-50.914c3.905-3.905,3.905-10.238,0-14.144c-3.905-3.903-10.236-3.904-14.144,0
	c-17.378,17.377-26.948,40.481-26.948,65.058s9.57,47.681,26.948,65.058c17.377,17.377,40.481,26.948,65.058,26.948
	s47.681-9.571,65.058-26.948C247.694,199.724,256.464,164.414,246.422,131.733z M140.112,137.774c0-9.44,7.679-17.119,17.119-17.119
	h2.558c9.44,0,17.119,7.679,17.119,17.119v21.037c0,9.44-7.679,17.119-17.119,17.119h-2.558c-9.44,0-17.119-7.679-17.119-17.119
	V137.774z M108.873,210.983v-7.699c0-7.722,5.509-14.354,13.101-15.77l9.711-1.811c6.66,6.33,15.655,10.228,25.546,10.228h2.558
	c9.893,0,18.886-3.897,25.546-10.228l9.712,1.811c7.59,1.416,13.1,8.047,13.1,15.77v7.642c-13.45,12.836-31.01,19.901-49.666,19.901
	C139.852,230.828,122.315,223.783,108.873,210.983z"/>
<path d="M507,225.434l-8.068-4.658c0.47-3.415,0.706-6.854,0.706-10.286s-0.236-6.87-0.706-10.286l8.068-4.658
	c2.297-1.326,3.973-3.51,4.659-6.072c0.687-2.562,0.327-5.291-0.999-7.588l-18.56-32.147c-1.326-2.297-3.51-3.973-6.072-4.659
	c-2.561-0.688-5.29-0.328-7.588,0.999l-8.083,4.667c-5.44-4.22-11.448-7.693-17.801-10.294v-9.318
	c0-5.522-4.478-10.001-10.001-10.001h-37.119c-5.522,0-10.001,4.478-10.001,10.001v9.318c-6.354,2.6-12.36,6.073-17.8,10.294
	l-8.084-4.667c-4.784-2.761-10.9-1.123-13.661,3.66l-18.56,32.147c-1.326,2.297-1.686,5.026-0.999,7.589
	c0.687,2.562,2.362,4.745,4.659,6.071l8.069,4.658c-0.47,3.415-0.706,6.854-0.706,10.286s0.236,6.87,0.706,10.285l-8.069,4.659
	c-4.783,2.762-6.422,8.878-3.66,13.661l18.56,32.147c2.762,4.783,8.877,6.424,13.661,3.66l8.084-4.667
	c5.439,4.22,11.446,7.692,17.8,10.293v9.319c0,5.522,4.478,10.001,10.001,10.001h37.119c5.522,0,10.001-4.478,10.001-10.001v-9.318
	c6.353-2.6,12.36-6.073,17.801-10.294l8.083,4.667c2.296,1.327,5.025,1.686,7.588,0.999s4.746-2.362,6.072-4.659l18.56-32.147
	c1.326-2.297,1.686-5.026,0.999-7.588S509.297,226.76,507,225.434z M459.385,253.381c-5.783,4.771-12.503,8.373-19.654,10.478
	c-4.255,1.252-7.177,5.157-7.177,9.594v6.393h-17.118v-6.393c0-4.436-2.921-8.341-7.176-9.594
	c-5.239-1.542-10.251-3.881-14.829-6.897v-8.043c0-4.22,3.011-7.844,7.158-8.617l6.118-1.141c5.316,4.518,12.194,7.253,19.701,7.253
	c7.507,0,14.385-2.735,19.701-7.254l6.115,1.14c4.149,0.774,7.16,4.398,7.16,8.618V253.381z M415.943,214.972v-2.025v-7.292v-2.025
	c0-5.771,4.694-10.466,10.466-10.466s10.466,4.694,10.466,10.466v2.025v7.292v2.025c0,5.771-4.694,10.466-10.466,10.466
	S415.943,220.743,415.943,214.972z M478.077,197.423c1.034,4.297,1.559,8.693,1.559,13.067s-0.524,8.77-1.559,13.067
	c-1.036,4.309,0.886,8.786,4.723,11.001l5.538,3.197l-8.559,14.825l-0.393-0.227v-3.434c0-13.643-9.594-25.382-22.896-28.155
	c0.25-1.57,0.385-3.177,0.385-4.817v-13.317c0-16.8-13.667-30.467-30.467-30.467s-30.467,13.667-30.467,30.467v13.317
	c0,1.639,0.134,3.247,0.385,4.816c-13.302,2.771-22.896,14.511-22.896,28.155v0.648l-5.219,3.013l-8.559-14.825l5.539-3.198
	c3.838-2.216,5.759-6.692,4.723-11.001c-1.034-4.297-1.559-8.692-1.559-13.066s0.524-8.771,1.559-13.067
	c1.036-4.309-0.886-8.785-4.723-11.001l-5.539-3.197l8.559-14.825l5.554,3.206c3.842,2.218,8.684,1.641,11.895-1.416
	c6.386-6.078,14.201-10.598,22.6-13.069c4.255-1.252,7.177-5.157,7.177-9.594v-6.393h17.118v6.393c0,4.436,2.922,8.341,7.177,9.594
	c8.398,2.472,16.214,6.991,22.601,13.069c3.212,3.056,8.052,3.633,11.895,1.416l5.553-3.206l8.559,14.825l-5.538,3.197
	C478.963,188.637,477.041,193.114,478.077,197.423z"/>
<g>
</g>
<g>
</g>
<g>
</g>
<g>
</g>
<g>
</g>
<g>
</g>
<g>
</g>
<g>
</g>
<g>
</g>
<g>
</g>
<g>
</g>
<g>
</g>
<g>
</g>
<g>
</g>
<g>
</g>
</svg>
