<?xml version="1.0" encoding="iso-8859-1"?>
<!-- Generator: Adobe Illustrator 19.0.0, SVG Export Plug-In . SVG Version: 6.00 Build 0)  -->
<svg version="1.1" id="Capa_1" xmlns="http://www.w3.org/2000/svg" xmlns:xlink="http://www.w3.org/1999/xlink" x="0px" y="0px"
	 viewBox="0 0 512.001 512.001" style="enable-background:new 0 0 512.001 512.001;" xml:space="preserve">
<circle style="fill:#FF5A5A;" cx="433.881" cy="77.302" r="68"/>
<circle style="fill:#F5B955;" cx="78.121" cy="77.302" r="68"/>
<circle style="fill:#A5DC69;" cx="78.121" cy="380.002" r="68"/>
<circle style="fill:#78D2FA;" cx="433.881" cy="380.032" r="68"/>
<rect x="184.151" y="342.002" style="fill:#BEBEBE;" width="148" height="160"/>
<rect x="184.151" y="342.002" style="fill:#FFFFFF;" width="148" height="48"/>
<path style="fill:#FFCDAC;" d="M326.124,153.71c-11.046,0-20,8.954-20,20v-20.822c0-11.046-8.954-20-20-20s-20,8.954-20,20v0.822
	c0-11.499-8.954-20.822-20-20.822s-20,9.322-20,20.822v20.821c0-11.499-8.954-20.821-20-20.821c-11.046,0-20,9.322-20,20.821v27.92
	l3.505,0.286c-18.009,0-32.608,14.599-32.608,32.608v13.21c0,25.122,7.678,49.643,22.006,70.279l15.327,22.075h126.667l6.869-10.517
	c11.898-18.217,18.234-39.505,18.234-61.264v-43.674v-17.252V173.71C346.124,162.664,337.17,153.71,326.124,153.71z"/>
<path d="M63.064,73.082c1.86-1.86,2.93-4.44,2.93-7.07c0-2.64-1.07-5.21-2.93-7.07c-1.86-1.87-4.44-2.93-7.07-2.93
	s-5.21,1.06-7.07,2.93c-1.86,1.86-2.93,4.431-2.93,7.07c0,2.63,1.07,5.21,2.93,7.07c1.86,1.859,4.44,2.93,7.07,2.93
	C58.624,76.012,61.204,74.941,63.064,73.082z"/>
<path d="M102.174,76.012c2.63,0,5.21-1.07,7.07-2.93c1.86-1.87,2.93-4.44,2.93-7.07c0-2.64-1.07-5.21-2.93-7.07
	c-1.86-1.87-4.44-2.93-7.07-2.93s-5.21,1.06-7.07,2.93c-1.86,1.86-2.93,4.431-2.93,7.07c0,2.63,1.07,5.2,2.93,7.07
	C96.964,74.941,99.544,76.012,102.174,76.012z"/>
<path d="M100.551,105.349c3.905-3.905,3.906-10.236,0-14.143c-3.905-3.903-10.237-3.904-14.142,0c-4.04,4.039-10.612,4.039-14.651,0
	c-3.905-3.904-10.237-3.904-14.142,0c-3.905,3.906-3.905,10.237,0,14.143c5.918,5.918,13.693,8.877,21.467,8.877
	C86.858,114.226,94.632,111.267,100.551,105.349z"/>
<path d="M418.824,73.082c1.86-1.87,2.93-4.44,2.93-7.07s-1.07-5.21-2.93-7.07c-1.87-1.87-4.44-2.93-7.07-2.93
	c-2.64,0-5.21,1.06-7.08,2.93c-1.86,1.86-2.93,4.431-2.93,7.07c0,2.63,1.07,5.2,2.93,7.07c1.87,1.859,4.44,2.93,7.08,2.93
	C414.384,76.012,416.954,74.941,418.824,73.082z"/>
<path d="M457.924,76.012c2.63,0,5.21-1.07,7.07-2.93c1.86-1.86,2.93-4.44,2.93-7.07c0-2.64-1.07-5.21-2.93-7.07
	c-1.86-1.87-4.44-2.93-7.07-2.93s-5.21,1.06-7.07,2.93c-1.86,1.86-2.93,4.431-2.93,7.07c0,2.63,1.07,5.21,2.93,7.07
	C452.714,74.941,455.294,76.012,457.924,76.012z"/>
<path d="M442.163,105.349c1.953,1.952,4.512,2.929,7.071,2.929c2.559,0,5.118-0.977,7.071-2.929c3.905-3.905,3.906-10.236,0-14.143
	c-5.734-5.734-13.358-8.893-21.468-8.893c-8.109,0-15.733,3.158-21.467,8.893c-3.905,3.906-3.905,10.237,0,14.143
	c3.905,3.904,10.237,3.904,14.142,0c1.957-1.957,4.558-3.035,7.325-3.035C437.605,102.314,440.206,103.392,442.163,105.349z"/>
<path d="M65.994,368.012c0-2.63-1.06-5.21-2.93-7.07c-1.86-1.87-4.44-2.93-7.07-2.93s-5.21,1.06-7.07,2.93
	c-1.86,1.86-2.93,4.431-2.93,7.07c0,2.63,1.07,5.21,2.93,7.07c1.86,1.859,4.44,2.93,7.07,2.93s5.21-1.07,7.07-2.93
	C64.934,373.222,65.994,370.642,65.994,368.012z"/>
<path d="M102.174,378.012c2.63,0,5.21-1.07,7.07-2.93s2.93-4.44,2.93-7.07s-1.07-5.21-2.93-7.07c-1.86-1.87-4.44-2.93-7.07-2.93
	s-5.21,1.06-7.07,2.93c-1.86,1.86-2.93,4.44-2.93,7.07s1.07,5.21,2.93,7.07C96.964,376.941,99.544,378.012,102.174,378.012z"/>
<path d="M59.417,398.335c0,10.845,8.823,19.667,19.667,19.667s19.667-8.822,19.667-19.667c0-5.522-4.477-10-10-10H69.417
	C63.894,388.335,59.417,392.813,59.417,398.335z M79.084,398.002c0.184,0,0.333,0.149,0.333,0.333h-0.666
	C78.751,398.151,78.9,398.002,79.084,398.002z"/>
<path d="M418.824,375.111c1.86-1.869,2.93-4.439,2.93-7.069c0-2.641-1.07-5.21-2.93-7.08c-1.87-1.86-4.44-2.92-7.07-2.92
	c-2.64,0-5.21,1.06-7.08,2.92c-1.86,1.859-2.92,4.439-2.92,7.08c0,2.63,1.06,5.21,2.92,7.069c1.87,1.86,4.44,2.931,7.08,2.931
	C414.384,378.042,416.954,376.972,418.824,375.111z"/>
<path d="M457.924,358.042c-2.63,0-5.21,1.06-7.07,2.92c-1.86,1.859-2.93,4.439-2.93,7.08c0,2.63,1.07,5.21,2.93,7.069
	c1.86,1.86,4.44,2.931,7.07,2.931s5.21-1.07,7.07-2.931c1.86-1.859,2.93-4.439,2.93-7.069c0-2.641-1.07-5.221-2.93-7.08
	C463.134,359.102,460.554,358.042,457.924,358.042z"/>
<path d="M433.878,302.031c-43.009,0-78,34.99-78,78s34.991,78,78,78s78-34.99,78-78S476.887,302.031,433.878,302.031z
	 M433.878,438.031c-31.981,0-58-26.019-58-58c0-31.981,26.019-58,58-58s58,26.019,58,58
	C491.878,412.012,465.859,438.031,433.878,438.031z"/>
<path d="M449.234,390.307h-28.793c-5.523,0-10,4.478-10,10c0,5.522,4.477,10,10,10h28.792c5.523,0,10-4.478,10-10
	C459.233,394.785,454.757,390.307,449.234,390.307z"/>
<path d="M337.647,333.653c12.084-19.387,18.477-41.634,18.477-64.525v-43.675v-12.716h67.754v27.598c0,5.522,4.477,10,10,10
	s10-4.478,10-10v-84.996c38.301-4.927,68-37.717,68-77.337c0-43.01-34.991-78-78-78s-78,34.99-78,78c0,39.62,29.699,72.41,68,77.337
	v37.398h-67.754V173.71c0-16.542-13.458-30-30-30c-3.831,0-7.493,0.73-10.864,2.044c-3.21-13.109-15.052-22.867-29.136-22.867
	c-7.735,0-14.794,2.943-20.12,7.767c-5.297-4.827-12.259-7.767-19.88-7.767c-13.902,0-25.623,9.768-29.011,22.973
	c-3.406-1.383-7.111-2.151-10.989-2.151c-16.542,0-30,13.826-30,30.821v18.206h-87.04v-37.521
	c37.836-5.346,67.04-37.926,67.04-77.215c0-43.01-34.991-78-78-78s-78,34.99-78,78c0,39.951,30.196,72.963,68.96,77.459V302.54
	c-38.764,4.499-68.96,37.511-68.96,77.462c0,43.01,34.991,78,78,78s78-34.99,78-78c0-39.289-29.204-71.869-67.04-77.215v-90.05
	h64.455c-4.123,6.558-6.518,14.307-6.518,22.608v13.21c0,27.29,8.227,53.564,23.792,75.981l6.849,9.864
	c-2.147,1.834-3.512,4.556-3.512,7.601v160c0,5.522,4.477,10,10,10h148c5.523,0,10-4.478,10-10V342.002
	C342.149,338.512,340.358,335.442,337.647,333.653z M375.878,78.002c0-31.981,26.019-58,58-58s58,26.019,58,58s-26.019,58-58,58
	S375.878,109.983,375.878,78.002z M20.124,78.002c0-31.981,26.019-58,58-58s58,26.019,58,58s-26.019,58-58,58
	S20.124,109.983,20.124,78.002z M136.124,380.002c0,31.981-26.019,58-58,58s-58-26.019-58-58c0-31.981,26.019-58,58-58
	S136.124,348.021,136.124,380.002z M326.124,163.71c5.514,0,10,4.486,10,10v51.743c0,5.514-4.486,10-10,10s-10-4.486-10-10V173.71
	C316.124,168.196,320.61,163.71,326.124,163.71z M276.124,152.888c0-5.514,4.486-10,10-10s10,4.486,10,10v20.822v51.743
	c0,5.514-4.486,10-10,10s-10-4.486-10-10v-22.716V153.71V152.888z M236.124,153.71c0-5.968,4.486-10.822,10-10.822
	c5.514,0,10,4.854,10,10.822v39.027h-20v-18.206V153.71L236.124,153.71z M206.124,163.71c5.514,0,10,4.854,10,10.821v18.206h-4.552
	h-15.448v-18.206C196.124,168.565,200.609,163.71,206.124,163.71z M167.021,248.556v-13.21c0-12.466,10.142-22.608,22.608-22.608
	h21.943h42.708c-3.358,8.813-11.02,15.693-20.624,17.729l-24.555,5.203c-4.273,0.906-7.464,4.479-7.881,8.828
	c-0.417,4.348,2.035,8.463,6.058,10.165l7.491,3.169c14.608,6.179,25.4,18.493,29.609,33.785c1.466,5.324,6.972,8.453,12.295,6.987
	c5.325-1.466,8.453-6.971,6.988-12.296c-4.048-14.704-12.479-27.425-24.021-36.705c7.489-1.899,14.226-5.546,19.816-10.431
	c4.99,9.658,15.066,16.28,26.666,16.28c7.678,0,14.688-2.902,20-7.663c5.312,4.761,12.322,7.663,20,7.663c3.506,0,6.87-0.61,10-1.72
	v15.395c0,19.867-5.742,39.161-16.606,55.796l-4.621,7.079H200.344l-13.103-18.871C174.013,294.079,167.021,271.749,167.021,248.556
	z M322.149,492.002h-128v-92h67.641c5.523,0,10-4.478,10-10c0-5.522-4.477-10-10-10h-67.641v-28h128V492.002z"/>
<path d="M296.974,400.002c2.63,0,5.21-1.07,7.07-2.931c1.86-1.859,2.93-4.439,2.93-7.069s-1.07-5.21-2.93-7.07
	c-1.86-1.86-4.44-2.93-7.07-2.93s-5.21,1.069-7.08,2.93c-1.86,1.86-2.92,4.44-2.92,7.07s1.06,5.21,2.92,7.069
	C291.764,398.932,294.344,400.002,296.974,400.002z"/>
<path d="M433.874,267.342c-2.63,0-5.21,1.06-7.07,2.92c-1.86,1.87-2.93,4.44-2.93,7.08c0,2.63,1.07,5.2,2.93,7.07
	c1.87,1.859,4.44,2.93,7.07,2.93c2.64,0,5.21-1.07,7.07-2.93c1.87-1.86,2.93-4.44,2.93-7.07c0-2.64-1.06-5.21-2.93-7.08
	C439.084,268.401,436.514,267.342,433.874,267.342z"/>
<g>
</g>
<g>
</g>
<g>
</g>
<g>
</g>
<g>
</g>
<g>
</g>
<g>
</g>
<g>
</g>
<g>
</g>
<g>
</g>
<g>
</g>
<g>
</g>
<g>
</g>
<g>
</g>
<g>
</g>
</svg>
