<?xml version="1.0" encoding="iso-8859-1"?>
<!-- Generator: Adobe Illustrator 19.0.0, SVG Export Plug-In . SVG Version: 6.00 Build 0)  -->
<svg version="1.1" id="Capa_1" xmlns="http://www.w3.org/2000/svg" xmlns:xlink="http://www.w3.org/1999/xlink" x="0px" y="0px"
	 viewBox="0 0 512.001 512.001" style="enable-background:new 0 0 512.001 512.001;" xml:space="preserve">
<path style="fill:#78D2FA;" d="M501.994,454.001c0,26.509-21.489,47.999-47.999,47.999h-52.345H10.007V128.003h491.988"/>
<path style="fill:#A5DC69;" d="M10.007,299.812h140.968h44.049c18.669,0,33.802-15.134,33.802-33.802l0,0
	c0-6.934,5.621-12.555,12.555-12.555l0,0c12.268,0,22.213-9.945,22.213-22.213v-4.829c0-12.268-9.945-22.213-22.213-22.213h-24.379
	l-0.325-76.197H10.007V299.812z"/>
<path style="fill:#FF5A5A;" d="M276.118,93.998C276.118,47.607,238.511,10,192.12,10s-83.998,37.607-83.998,83.998
	c0,20.11,7.071,38.567,18.857,53.028h-0.006l65.147,83.502l64.836-83.065h-0.049C268.907,132.938,276.118,114.31,276.118,93.998z"/>
<path style="fill:#BEBEBE;" d="M192.12,230.527l54.517-69.843v-2.392c0-12.583-8.979-23.374-21.352-25.661l-12.755-2.358
	c-5.103-0.943-8.806-5.394-8.806-10.583v-2.836h-22.98v2.837c0,5.189-3.703,9.64-8.806,10.583l-12.749,2.357
	c-12.373,2.288-21.351,13.079-21.351,25.661v2.66L192.12,230.527z"/>
<g>
	<polygon style="fill:#FFCDAC;" points="172.251,134.009 192.241,165.976 212.224,134.009 192.12,120.264 	"/>
	<path style="fill:#FFCDAC;" d="M192.237,48.479L192.237,48.479c-15.294,0-27.691,12.398-27.691,27.691v11.078
		c0,15.294,12.398,27.691,27.691,27.691l0,0c15.294,0,27.691-12.398,27.691-27.691V76.171
		C219.928,60.877,207.531,48.479,192.237,48.479z"/>
</g>
<path style="fill:#FF5A5A;" d="M178.002,365.471c0-46.391-37.607-83.998-83.998-83.998s-83.998,37.607-83.998,83.998
	c0,20.11,7.071,38.567,18.857,53.028h-0.006L94.005,502l64.836-83.065h-0.049C170.793,404.411,178.002,385.782,178.002,365.471z"/>
<path style="fill:#F5C86E;" d="M94.005,502l54.517-69.843v-2.392c0-12.583-8.979-23.374-21.352-25.661l-12.755-2.358
	c-5.103-0.943-8.806-5.394-8.806-10.583v-2.836H82.629v2.837c0,5.189-3.703,9.64-8.806,10.583l-12.749,2.357
	c-12.373,2.288-21.351,13.079-21.351,25.661v2.66L94.005,502z"/>
<g>
	<polygon style="fill:#FFCDAC;" points="74.135,405.481 94.127,437.448 114.109,405.481 94.005,391.736 	"/>
	<path style="fill:#FFCDAC;" d="M94.123,319.952L94.123,319.952c-15.294,0-27.691,12.398-27.691,27.691v11.077
		c0,15.294,12.398,27.691,27.691,27.691l0,0c15.294,0,27.691-12.398,27.691-27.691v-11.077
		C121.814,332.35,109.416,319.952,94.123,319.952z"/>
</g>
<path style="fill:#FF5A5A;" d="M424.123,365.471c0-46.391-37.607-83.998-83.998-83.998s-83.998,37.607-83.998,83.998
	c0,20.11,7.071,38.567,18.857,53.028h-0.006L340.125,502l64.836-83.065h-0.049C416.913,404.411,424.123,385.782,424.123,365.471z"/>
<path style="fill:#A5DC69;" d="M340.125,502l54.517-69.843v-2.392c0-12.583-8.979-23.374-21.352-25.661l-12.755-2.358
	c-5.103-0.943-8.806-5.394-8.806-10.583v-2.836h-22.98v2.837c0,5.189-3.703,9.64-8.806,10.583l-12.749,2.357
	c-12.373,2.288-21.351,13.079-21.351,25.661v2.66L340.125,502z"/>
<path style="fill:#4BB9F5;" d="M501.994,454.001L501.994,454.001c0-26.509-21.489-47.999-47.999-47.999V50.012l0,0
	c26.509,0,47.999,21.489,47.999,47.999V454.001z"/>
<g>
	<polygon style="fill:#FFCDAC;" points="320.256,405.481 340.247,437.448 360.23,405.481 340.125,391.736 	"/>
	<path style="fill:#FFCDAC;" d="M340.243,319.952L340.243,319.952c-15.294,0-27.691,12.398-27.691,27.691v11.077
		c0,15.294,12.398,27.691,27.691,27.691l0,0c15.294,0,27.691-12.398,27.691-27.691v-11.077
		C367.935,332.35,355.537,319.952,340.243,319.952z"/>
</g>
<path style="fill:#A5DC69;" d="M452.735,128.003h-47.738c-8.453,0-15.305,6.852-15.305,15.305l0,0
	c0,8.453-6.852,15.305-15.305,15.305h-28.216c-6.689,0-12.111,5.422-12.111,12.111l0,0c0,6.689,5.422,12.111,12.111,12.111h9.019
	c7.716,0,13.971,6.255,13.971,13.971l0,0c0,7.716-6.255,13.971-13.971,13.971h-28.756c-9.486,0-17.176,7.69-17.176,17.176l0,0
	c0,9.486,7.69,17.176,17.176,17.176h127.561"/>
<path d="M216.001,492.001c-2.63,0-5.21,1.069-7.07,2.93c-1.86,1.86-2.93,4.44-2.93,7.07s1.07,5.21,2.93,7.069
	c1.86,1.86,4.44,2.931,7.07,2.931s5.21-1.07,7.07-2.931c1.86-1.859,2.93-4.439,2.93-7.069s-1.07-5.21-2.93-7.07
	C221.211,493.07,218.631,492.001,216.001,492.001z"/>
<path d="M453.995,40.012c-5.523,0-10,4.478-10,10v67.992h-38.999c-13.953,0-25.304,11.352-25.304,25.304
	c0,2.925-2.38,5.305-5.305,5.305h-28.216c-12.192,0-22.11,9.919-22.11,22.109c0,12.192,9.919,22.11,22.11,22.11h9.019
	c2.19,0,3.971,1.781,3.971,3.972c0,2.189-1.781,3.971-3.971,3.971h-28.756c-14.985,0-27.175,12.191-27.175,27.175
	s12.191,27.175,27.175,27.175h117.561v150.877c0,5.522,4.477,10,10,10c20.952,0,37.999,17.047,37.999,37.999
	c0,20.952-17.047,37.999-37.999,37.999h-52.344h-41.034l52.228-66.911c0.132-0.169,0.258-0.342,0.377-0.517
	c13.487-16.667,20.901-37.615,20.901-59.103c0-51.831-42.167-93.998-93.998-93.998s-93.998,42.167-93.998,93.998
	c0,21.462,7.42,42.435,20.9,59.095c0.022,0.028,0.044,0.057,0.066,0.085l52.547,67.351h-63.64c-5.523,0-10,4.478-10,10
	c0,5.522,4.477,10,10,10h197.995c31.98,0,57.999-26.018,57.999-57.999V98.011C511.994,66.029,485.977,40.012,453.995,40.012z
	 M357.935,358.72c0,9.756-7.937,17.692-17.692,17.692c-9.755,0-17.692-7.937-17.692-17.692v-11.077
	c0-9.756,7.937-17.692,17.692-17.692c9.755,0,17.692,7.937,17.692,17.692V358.72z M340.242,396.412c0.723,0,1.439-0.025,2.152-0.066
	c0.965,3.742,2.951,7.094,5.671,9.728l-7.821,12.512l-7.828-12.517c2.718-2.633,4.702-5.984,5.666-9.723
	C338.798,396.386,339.517,396.412,340.242,396.412z M313.258,413.15l18.511,29.599c1.828,2.923,5.032,4.698,8.479,4.698
	c3.447,0,6.651-1.776,8.479-4.699l18.502-29.597l4.245,0.785c7.303,1.35,12.676,7.508,13.126,14.837l-44.471,56.973l-44.252-56.719
	c0.339-7.44,5.75-13.726,13.138-15.092L313.258,413.15z M266.127,365.47c0-40.803,33.195-73.998,73.998-73.998
	s73.998,33.195,73.998,73.998c0,16.213-5.367,32.031-15.158,44.866c-5.238-8.194-13.725-14.193-23.858-16.066l-12.755-2.358
	c-0.362-0.067-0.624-0.383-0.624-0.75v-1.5c9.785-6.816,16.206-18.14,16.206-30.941v-11.077c0-20.782-16.909-37.691-37.691-37.691
	c-20.783,0-37.691,16.909-37.691,37.691v11.077c0,12.799,6.418,24.12,16.198,30.936v1.505c0,0.367-0.262,0.683-0.624,0.75
	l-12.75,2.357c-10.197,1.885-18.727,7.949-23.956,16.224C271.552,397.632,266.127,381.734,266.127,365.47z M326.435,235.126
	c-3.957,0-7.176-3.219-7.176-7.176c0-3.957,3.219-7.176,7.176-7.176h28.756c13.218,0,23.97-10.754,23.97-23.971
	c0-13.218-10.753-23.97-23.97-23.97h-9.019c-1.164,0-2.111-0.947-2.111-2.111s0.947-2.11,2.111-2.11h28.216
	c13.953,0,25.304-11.352,25.304-25.304c0-2.925,2.38-5.305,5.305-5.305h38.999v97.123L326.435,235.126L326.435,235.126z
	 M463.995,396.865V61.346c16.118,4.4,27.999,19.171,27.999,36.664V410.22C484.201,403.445,474.587,398.715,463.995,396.865z"/>
<path d="M273.595,231.242v-4.829c0-17.763-14.451-32.213-32.213-32.213h-8.338l31.678-40.584c0.133-0.171,0.26-0.346,0.381-0.522
	c3.81-4.709,7.117-9.77,9.928-15.079h34.229c5.523,0,10-4.478,10-10s-4.477-10-10-10h-26.394c2.062-7.793,3.134-15.866,3.134-24.018
	C286,42.167,243.833,0,192.002,0S98.005,42.167,98.005,93.998c0,8.143,1.073,16.214,3.135,24.006H10.007c-5.523,0-10,4.478-10,10
	V502c0,5.522,4.477,10,10,10h162.996c5.523,0,10-4.478,10-10c0-5.522-4.477-10-10-10h-58.508l52.228-66.911
	c0.132-0.169,0.258-0.342,0.377-0.517c13.487-16.667,20.901-37.615,20.901-59.103c0-20.813-6.804-40.066-18.3-55.658h25.321
	c24.152,0,43.802-19.649,43.802-43.803c0-1.408,1.146-2.555,2.555-2.555C259.143,263.455,273.595,249.005,273.595,231.242z
	 M209.812,87.248c0,9.755-7.937,17.691-17.692,17.691c-9.755,0-17.692-7.937-17.692-17.691V76.171
	c0-9.756,7.937-17.692,17.692-17.692c9.755,0,17.692,7.937,17.692,17.692V87.248z M192.12,124.938c0.723,0,1.439-0.025,2.152-0.066
	c0.965,3.742,2.951,7.095,5.672,9.729l-7.821,12.512l-7.828-12.517c2.718-2.633,4.702-5.984,5.666-9.724
	C190.675,124.913,191.394,124.938,192.12,124.938z M165.135,141.677l18.511,29.599c1.828,2.923,5.032,4.698,8.479,4.698
	c3.447,0,6.651-1.776,8.479-4.699l18.502-29.597l4.245,0.785c7.303,1.35,12.676,7.508,13.126,14.837l-44.471,56.973l-44.252-56.719
	c0.339-7.44,5.75-13.726,13.138-15.092L165.135,141.677z M192.002,19.999c40.803,0,73.998,33.195,73.998,73.998
	c0,16.214-5.368,32.032-15.158,44.866c-5.239-8.194-13.725-14.193-23.858-16.066l-12.755-2.358c-0.362-0.067-0.624-0.383-0.624-0.75
	v-1.501c9.785-6.815,16.206-18.14,16.206-30.941V76.171c0-20.782-16.909-37.691-37.691-37.691s-37.691,16.909-37.691,37.691v11.077
	c0,12.799,6.418,24.119,16.198,30.935v1.506c0,0.367-0.262,0.683-0.624,0.75l-12.75,2.357c-10.197,1.885-18.727,7.949-23.956,16.224
	c-9.869-12.861-15.293-28.758-15.293-45.023C118.004,53.195,151.2,19.999,192.002,19.999z M20.006,492.001v-68.599
	c0.303,0.386,0.592,0.782,0.901,1.164c0.022,0.028,0.044,0.057,0.066,0.085l52.547,67.351L20.006,492.001L20.006,492.001z
	 M111.814,358.72c0,9.756-7.937,17.692-17.692,17.692s-17.692-7.937-17.692-17.692v-11.077c0-9.756,7.937-17.692,17.692-17.692
	s17.692,7.937,17.692,17.692V358.72z M94.123,396.412c0.723,0,1.439-0.025,2.152-0.066c0.965,3.742,2.951,7.094,5.671,9.728
	l-7.821,12.512l-7.828-12.517c2.718-2.633,4.702-5.984,5.666-9.723C92.678,396.386,93.397,396.412,94.123,396.412z M67.137,413.15
	l18.511,29.599c1.828,2.923,5.032,4.698,8.479,4.698c3.447,0,6.651-1.776,8.479-4.699l18.502-29.597l4.245,0.785
	c7.303,1.35,12.676,7.508,13.126,14.837l-44.471,56.973l-44.252-56.719c0.339-7.44,5.75-13.726,13.138-15.092L67.137,413.15z
	 M152.845,410.337c-5.238-8.194-13.725-14.193-23.858-16.066l-12.755-2.358c-0.362-0.067-0.624-0.383-0.624-0.75v-1.5
	c9.785-6.816,16.206-18.14,16.206-30.941v-11.077c0-20.782-16.909-37.691-37.691-37.691s-37.691,16.909-37.691,37.691v11.077
	c0,12.799,6.418,24.12,16.198,30.936v1.505c0,0.367-0.262,0.683-0.624,0.75l-12.75,2.357c-10.197,1.885-18.727,7.949-23.956,16.224
	c-9.869-12.861-15.293-28.758-15.293-45.023c0-40.803,33.195-73.998,73.998-73.998s73.998,33.195,73.998,73.998
	C168.003,381.683,162.636,397.502,152.845,410.337z M253.596,231.242c0,6.734-5.479,12.214-12.214,12.214
	c-12.437,0-22.554,10.118-22.554,22.554c0,13.125-10.678,23.803-23.802,23.803h-44.049c-0.392,0-0.777,0.028-1.157,0.072
	c-15.62-11.564-34.93-18.413-55.814-18.413c-30.008,0-56.777,14.136-73.998,36.097v-93.37h53.499c5.523,0,10-4.478,10-10
	s-4.477-10-10-10H20.007v-56.197h88.967c2.812,5.314,6.12,10.378,9.932,15.089c0.022,0.028,0.044,0.057,0.066,0.085l65.147,83.502
	c1.895,2.429,4.803,3.849,7.883,3.849l0,0c3.08,0,5.988-1.419,7.883-3.847l17.548-22.48h23.949c6.735,0,12.214,5.479,12.214,12.214
	L253.596,231.242L253.596,231.242z"/>
<path d="M114.104,194.197c-2.63,0-5.2,1.07-7.07,2.931c-1.86,1.859-2.93,4.439-2.93,7.069c0,2.63,1.07,5.21,2.93,7.07
	c1.87,1.87,4.44,2.93,7.07,2.93s5.21-1.06,7.08-2.93c1.86-1.86,2.93-4.44,2.93-7.07c0-2.63-1.07-5.21-2.93-7.069
	C119.314,195.267,116.734,194.197,114.104,194.197z"/>
<g>
</g>
<g>
</g>
<g>
</g>
<g>
</g>
<g>
</g>
<g>
</g>
<g>
</g>
<g>
</g>
<g>
</g>
<g>
</g>
<g>
</g>
<g>
</g>
<g>
</g>
<g>
</g>
<g>
</g>
</svg>
