<?xml version="1.0" encoding="iso-8859-1"?>
<!-- Generator: Adobe Illustrator 19.0.0, SVG Export Plug-In . SVG Version: 6.00 Build 0)  -->
<svg version="1.1" id="Capa_1" xmlns="http://www.w3.org/2000/svg" xmlns:xlink="http://www.w3.org/1999/xlink" x="0px" y="0px"
	 viewBox="0 0 512 512" style="enable-background:new 0 0 512 512;" xml:space="preserve">
<circle style="fill:#C8F5FF;" cx="256.13" cy="256.29" r="156"/>
<circle style="fill:#46C373;" cx="256" cy="42" r="32"/>
<g>
	<circle style="fill:#FF5A5A;" cx="470" cy="256" r="32"/>
	<circle style="fill:#FF5A5A;" cx="42" cy="256" r="32"/>
</g>
<path style="fill:#FFCDAC;" d="M320.214,262.107V302c0,35.465-28.75,64.214-64.214,64.214l0,0l0,0
	c-35.465,0-64.214-28.75-64.214-64.214v-39.893H320.214z"/>
<path style="fill:#F5B955;" d="M256,195.054L256,195.054c-35.465,0-64.214,28.75-64.214,64.214v15.458h31.397
	c20.871,0,40.67-9.241,54.075-25.237l0,0l42.957,25.237v-15.458C320.214,223.803,291.465,195.054,256,195.054z"/>
<path style="fill:#6E87F5;" d="M282.183,360.743v6.465c0,11.828,8.441,21.973,20.072,24.123l29.074,5.375
	C359.533,401.92,380,426.517,380,455.199V502H132v-46.802c0-28.681,20.466-53.278,48.669-58.493l29.06-5.373
	c11.631-2.151,20.071-12.295,20.071-24.123v-6.466"/>
<polygon style="fill:#FFB487;" points="280.708,376.883 256.127,401.464 231.546,376.883 256,366.215 "/>
<polygon style="fill:#46C373;" points="277.118,478.115 256.123,398.323 235.135,478.115 256.131,502 "/>
<path d="M256,84c23.159,0,42-18.841,42-42S279.159,0,256,0s-42,18.841-42,42S232.841,84,256,84z M256,20c12.131,0,22,9.869,22,22
	s-9.869,22-22,22s-22-9.869-22-22S243.869,20,256,20z"/>
<path d="M428,256c0,23.159,18.841,42,42,42s42-18.841,42-42s-18.841-42-42-42S428,232.841,428,256z M470,234
	c12.131,0,22,9.869,22,22c0,12.131-9.869,22-22,22s-22-9.869-22-22S457.869,234,470,234z"/>
<path d="M42,298c23.159,0,42-18.841,42-42s-18.841-42-42-42S0,232.841,0,256S18.841,298,42,298z M42,234c12.131,0,22,9.869,22,22
	c0,12.131-9.869,22-22,22s-22-9.869-22-22S29.869,234,42,234z"/>
<path d="M50.783,194.442c1.09,0.38,2.202,0.561,3.294,0.561c4.134,0,8.003-2.585,9.441-6.709l0.071-0.202
	c1.846-5.205-0.877-10.922-6.082-12.768c-5.207-1.846-10.921,0.877-12.768,6.082l-0.105,0.3
	C42.815,186.921,45.568,192.623,50.783,194.442z"/>
<path d="M62.07,164.882c1.491,0.789,3.092,1.163,4.669,1.163c3.585,0,7.053-1.935,8.847-5.324
	c24.142-45.614,64.177-80.138,112.731-97.211c5.21-1.832,7.948-7.541,6.116-12.751s-7.542-7.947-12.751-6.116
	C128.368,63.39,84.412,101.291,57.91,151.365C55.326,156.246,57.189,162.298,62.07,164.882z"/>
<path d="M351.279,75.587c45.615,24.141,80.139,64.176,97.211,112.73c1.446,4.112,5.308,6.686,9.434,6.686
	c1.101,0,2.22-0.184,3.317-0.569c5.21-1.832,7.949-7.54,6.117-12.751c-18.746-53.314-56.647-97.271-106.723-123.773
	c-4.884-2.584-10.933-0.719-13.516,4.161C344.535,66.952,346.397,73.003,351.279,75.587z"/>
<path d="M228.79,309.939c2.63,0,5.21-1.06,7.07-2.92c1.87-1.87,2.93-4.439,2.93-7.08c0-2.63-1.06-5.21-2.93-7.069
	c-1.86-1.86-4.43-2.931-7.07-2.931c-2.63,0-5.21,1.07-7.07,2.931c-1.86,1.859-2.93,4.439-2.93,7.069c0,2.641,1.07,5.21,2.93,7.08
	C223.59,308.88,226.16,309.939,228.79,309.939z"/>
<path d="M283.46,309.939c2.63,0,5.21-1.06,7.07-2.92c1.86-1.87,2.93-4.45,2.93-7.08s-1.07-5.21-2.93-7.069
	c-1.86-1.86-4.44-2.931-7.07-2.931s-5.21,1.07-7.07,2.931c-1.86,1.859-2.93,4.439-2.93,7.069c0,2.641,1.07,5.21,2.93,7.08
	C278.25,308.88,280.83,309.939,283.46,309.939z"/>
<path d="M238.765,334.535c4.752,4.751,10.994,7.127,17.235,7.127s12.483-2.376,17.235-7.127c3.905-3.905,3.906-10.236,0-14.142
	c-3.905-3.905-10.236-3.905-14.142-0.001c-1.706,1.705-4.481,1.705-6.188,0c-3.905-3.904-10.237-3.905-14.142,0.001
	C234.859,324.299,234.859,330.63,238.765,334.535z"/>
<path d="M502,492H390v-36.801c0-27.308-15.89-51.446-39.607-62.736c8.126-5.644,15.766-12.021,22.825-19.08
	c31.354-31.354,48.621-73.041,48.621-117.383s-17.267-86.029-48.621-117.383s-73.042-48.622-117.383-48.622
	s-86.029,17.268-117.382,48.622C107.097,169.971,89.83,211.658,89.83,256s17.267,86.029,48.621,117.383
	c7.096,7.096,14.776,13.506,22.95,19.172C137.797,403.887,122,427.968,122,455.198V492H10.262c-5.523,0-10,4.478-10,10
	s4.477,10,10,10H132h248h122c5.523,0,10-4.478,10-10S507.523,492,502,492z M325.099,384.575c-0.351,0.189-0.682,0.401-1,0.625
	l-20.025-3.702c-6.889-1.274-11.89-7.284-11.89-14.29v-0.446c8.92-5.003,16.707-11.79,22.871-19.882h15.449
	c11.549,0,22.711,2.734,32.787,7.954c-1.374,1.491-2.774,2.963-4.216,4.405C348.975,369.341,337.543,377.864,325.099,384.575z
	 M256.13,486.852l-9.97-11.341l9.964-37.883l9.969,37.885L256.13,486.852z M256.127,387.322l-12.084-12.084
	c3.895,0.634,7.886,0.977,11.957,0.977c4.18,0,8.273-0.365,12.266-1.032L256.127,387.322z M110.173,266h71.612v8.727v27.274
	c0,8.725,1.525,17.097,4.303,24.88h-4.593c-16.23,0-31.869,4.222-45.726,12.25C120.787,317.589,111.953,292.484,110.173,266z
	 M135.771,172.868c7.627,4.419,15.79,7.69,24.299,9.729c-0.041,1.154-0.07,2.31-0.07,3.474v33.195c0,5.522,4.477,10,10,10
	s10-4.478,10-10V186.07c0-0.328,0.021-0.652,0.025-0.979c0.492,0.008,0.982,0.028,1.475,0.028h71.921
	c-35.237,1.212-64.298,27.094-70.424,60.881h-72.824C111.953,219.516,120.787,194.41,135.771,172.868z M332,186.07v33.195
	c0,5.522,4.477,10,10,10s10-4.478,10-10V186.07c0-1.163-0.028-2.319-0.07-3.472c8.422-2.018,16.504-5.242,24.063-9.591
	c14.925,21.511,23.726,46.565,25.502,72.993h-72.492c-6.126-33.787-35.187-59.669-70.424-60.881h71.929
	c0.49,0,0.978-0.02,1.467-0.028C331.979,185.418,332,185.742,332,186.07z M375.993,338.994
	c-13.799-7.939-29.352-12.113-45.489-12.113h-4.593c2.778-7.782,4.303-16.155,4.303-24.88v-27.274V266h71.281
	C399.719,292.428,390.918,317.483,375.993,338.994z M201.786,262.107v-2.84c0-29.894,24.32-54.214,54.214-54.214
	c29.211,0,53.101,23.225,54.177,52.178l-27.854-16.364c-4.212-2.476-9.593-1.544-12.73,2.199
	c-11.536,13.766-28.452,21.66-46.411,21.66h-21.396V262.107z M266,165.119v-54.37c30.176,3.986,54.812,25.733,63.04,54.37H266z
	 M246,110.749v54.37h-63.04C191.188,136.482,215.824,114.735,246,110.749z M201.786,302.001v-17.274h21.396
	c21.023,0,40.97-8.131,55.912-22.561l31.12,18.283v21.552c0,29.894-24.32,54.214-54.214,54.214S201.786,331.895,201.786,302.001z
	 M363.292,157.166c-4.529,2.346-9.276,4.19-14.181,5.507c-2.536-10.09-6.671-19.552-12.124-28.096
	c7.852,5.272,15.25,11.345,22.088,18.183C360.517,154.202,361.918,155.675,363.292,157.166z M175.257,134.194
	c-5.573,8.644-9.794,18.237-12.368,28.477c-4.985-1.339-9.807-3.223-14.402-5.625c1.339-1.45,2.702-2.883,4.106-4.287
	C159.598,145.755,167.191,139.554,175.257,134.194z M148.487,354.953c10.133-5.296,21.375-8.072,33.009-8.072h15.449
	c6.161,8.087,13.942,14.87,22.856,19.873v0.455c0,7.006-5,13.015-11.89,14.289l-20.314,3.757c-0.372-0.274-0.759-0.534-1.176-0.76
	c-12.386-6.698-23.767-15.195-33.827-25.255C151.19,357.836,149.826,356.403,148.487,354.953z M142,455.198
	c0-23.857,17.027-44.322,40.488-48.66l29.06-5.374c7.693-1.422,14.394-5.33,19.337-10.8l13.453,13.453l-18.873,71.755
	c-0.847,3.219-0.037,6.646,2.16,9.146l6.401,7.282H142V455.198z M278.23,492l6.401-7.284c2.196-2.499,3.005-5.928,2.159-9.146
	l-18.879-71.748l13.319-13.319c4.931,5.396,11.581,9.25,19.208,10.66l29.074,5.375c23.461,4.337,40.489,24.802,40.489,48.66V492
	H278.23z"/>
<path d="M323.706,63.769c1.09,0.38,2.202,0.561,3.294,0.561c4.134,0,8.003-2.585,9.441-6.709l0.071-0.202
	c1.846-5.205-0.877-10.922-6.082-12.768c-5.207-1.846-10.921,0.877-12.768,6.082l-0.105,0.3
	C315.739,56.248,318.492,61.95,323.706,63.769z"/>
<g>
</g>
<g>
</g>
<g>
</g>
<g>
</g>
<g>
</g>
<g>
</g>
<g>
</g>
<g>
</g>
<g>
</g>
<g>
</g>
<g>
</g>
<g>
</g>
<g>
</g>
<g>
</g>
<g>
</g>
</svg>
