<?xml version="1.0" encoding="iso-8859-1"?>
<!-- Generator: Adobe Illustrator 19.0.0, SVG Export Plug-In . SVG Version: 6.00 Build 0)  -->
<svg version="1.1" id="Capa_1" xmlns="http://www.w3.org/2000/svg" xmlns:xlink="http://www.w3.org/1999/xlink" x="0px" y="0px"
	 viewBox="0 0 512 512" style="enable-background:new 0 0 512 512;" xml:space="preserve">
<path style="fill:#32C8AF;" d="M413.649,374.411v5.839c0,10.684,7.624,19.846,18.13,21.788l26.26,4.855
	C483.514,411.603,502,433.82,502,459.726v42.272H278v-42.273c0-25.906,18.486-48.122,43.959-52.833l26.248-4.853
	c10.505-1.942,18.129-11.105,18.129-21.788v-5.84H413.649z"/>
<polygon style="fill:#FFB487;" points="356.39,398.575 390.007,452.331 423.61,398.575 390,379.353 "/>
<path style="fill:#FFCDAC;" d="M448,285.32v36.032c0,32.033-25.967,58-58,58l0,0l0,0c-32.032,0-58-25.967-58-58V285.32H448z"/>
<path style="fill:#878791;" d="M390,224.756L390,224.756c-32.033,0-58,25.967-58,58v13.962h28.358
	c18.851,0,36.734-8.346,48.842-22.795l0,0l38.8,22.795v-13.962C448,250.723,422.033,224.756,390,224.756z"/>
<path style="fill:#4BB9F5;" d="M145.649,374.411v5.839c0,10.684,7.624,19.846,18.13,21.788l26.26,4.855
	C215.514,411.603,234,433.82,234,459.726v42.272H10v-42.273c0-25.906,18.486-48.122,43.959-52.833l26.248-4.853
	c10.505-1.942,18.129-11.105,18.129-21.788v-5.84H145.649z"/>
<polygon style="fill:#FFB487;" points="88.39,398.575 122.007,452.331 155.61,398.575 121.889,379.353 "/>
<path style="fill:#FFCDAC;" d="M180,285.32v36.032c0,32.033-25.967,58-58,58l0,0l0,0c-32.032,0-58-25.967-58-58V285.32H180z"/>
<path style="fill:#F5B955;" d="M122,224.756L122,224.756c-32.033,0-58,25.967-58,58v13.962h28.358
	c18.851,0,36.734-8.346,48.842-22.795l0,0l38.8,22.795v-13.962C180,250.723,154.033,224.756,122,224.756z"/>
<path style="fill:#FFE682;" d="M301.215,216.094L301.215,216.094c-0.18-15.458,6.292-30.205,17.659-40.643
	c19.133-17.571,31.478-43.091,31.478-70.811c0-52.269-42.245-94.639-94.352-94.639s-94.352,42.37-94.352,94.639
	c0,27.72,12.345,53.24,31.478,70.811c11.367,10.439,17.839,25.185,17.659,40.643l0,0H301.215z"/>
<path style="fill:#6E87F5;" d="M210.75,216.094v31.05c0,10.482,8.498,18.98,18.98,18.98h52.456c10.482,0,18.98-8.498,18.98-18.98
	v-31.05H210.75z"/>
<path d="M387.33,491.998c-2.63,0-5.21,1.07-7.07,2.93c-1.86,1.86-2.93,4.44-2.93,7.07s1.07,5.21,2.93,7.07s4.44,2.93,7.07,2.93
	c2.64,0,5.21-1.07,7.07-2.93c1.87-1.86,2.93-4.44,2.93-7.07s-1.06-5.21-2.93-7.07C392.54,493.067,389.97,491.998,387.33,491.998z"/>
<path d="M459.857,397.06l-26.26-4.854c-1.26-0.233-2.438-0.665-3.52-1.244c-0.365-0.31-1.703-1.18-1.977-1.318
	c-2.699-2.217-4.397-5.555-4.443-9.24C444.15,368.676,458,346.608,458,321.353V285.32v-2.564c0-37.495-30.505-68-68-68
	s-68,30.505-68,68v2.564v36.033c0,25.25,13.844,47.313,34.33,59.042c-0.044,3.703-1.756,7.056-4.477,9.275
	c-0.258,0.132-1.55,0.971-1.908,1.273c-1.091,0.589-2.282,1.028-3.556,1.263l-26.248,4.853C289.929,402.645,268,428.999,268,459.725
	v42.273c0,5.523,4.477,10,10,10h72.333c5.523,0,10-4.477,10-10s-4.477-10-10-10H288v-32.273c0-21.083,15.047-39.166,35.777-42.999
	l26.249-4.853c0.856-0.158,1.697-0.354,2.525-0.577l28.978,46.338c1.828,2.923,5.032,4.698,8.479,4.698s6.651-1.776,8.479-4.699
	L427.45,411.3c0.824,0.221,1.66,0.416,2.511,0.574l26.26,4.854c20.731,3.833,35.779,21.917,35.779,43v32.271h-67
	c-5.523,0-10,4.477-10,10s4.477,10,10,10h77c5.523,0,10-4.477,10-10v-42.271C512,429,490.071,402.645,459.857,397.06z M342,282.756
	c0-26.467,21.533-48,48-48c25.261,0,46.026,19.613,47.867,44.411l-23.602-13.866c-4.211-2.475-9.593-1.544-12.73,2.199
	c-10.234,12.213-25.243,19.218-41.177,19.218H342v-1.397V282.756z M342,321.353v-14.635h18.358c18.993,0,37.026-7.251,50.641-20.14
	l27,15.863v18.912c0,26.467-21.533,48-48,48S342,347.82,342,321.353z M390.005,433.468l-20.72-33.134
	c2.916-3.644,5.042-7.921,6.158-12.566c4.693,1.028,9.56,1.585,14.558,1.585c4.992,0,9.855-0.556,14.544-1.582
	c1.117,4.648,3.247,8.928,6.167,12.574L390.005,433.468z"/>
<path d="M121.89,491.998c-2.63,0-5.21,1.07-7.07,2.93s-2.93,4.44-2.93,7.07s1.07,5.21,2.93,7.07s4.44,2.93,7.07,2.93
	s5.21-1.07,7.07-2.93c1.86-1.86,2.93-4.44,2.93-7.07s-1.07-5.21-2.93-7.07C127.1,493.067,124.52,491.998,121.89,491.998z"/>
<path d="M191.857,397.06l-26.26-4.854c-1.26-0.233-2.438-0.665-3.52-1.244c-0.365-0.31-1.703-1.18-1.977-1.318
	c-2.699-2.217-4.397-5.556-4.443-9.24C176.15,368.676,190,346.608,190,321.353V285.32v-2.564c0-37.495-30.505-68-68-68
	s-68,30.505-68,68v2.564v36.033c0,25.25,13.844,47.313,34.33,59.042c-0.044,3.703-1.756,7.056-4.476,9.275
	c-0.259,0.132-1.55,0.971-1.908,1.273c-1.091,0.589-2.282,1.028-3.556,1.263l-26.248,4.853C21.929,402.645,0,428.999,0,459.725
	v42.273c0,5.523,4.477,10,10,10h75.667c5.523,0,10-4.477,10-10s-4.477-10-10-10H20v-32.273c0-21.083,15.047-39.166,35.777-42.999
	l26.249-4.853c0.856-0.158,1.697-0.354,2.525-0.577l28.978,46.338c1.828,2.923,5.032,4.698,8.479,4.698s6.651-1.776,8.479-4.699
	L159.45,411.3c0.824,0.221,1.66,0.416,2.511,0.574l26.26,4.854c20.731,3.833,35.779,21.917,35.779,43v32.271h-68.39
	c-5.523,0-10,4.477-10,10s4.477,10,10,10H234c5.523,0,10-4.477,10-10v-42.271C244,429,222.071,402.645,191.857,397.06z M74,282.756
	c0-26.467,21.533-48,48-48c25.261,0,46.026,19.613,47.867,44.411l-23.602-13.866c-4.212-2.475-9.593-1.544-12.73,2.199
	c-10.234,12.213-25.243,19.218-41.177,19.218H74v-1.397V282.756z M74,321.353v-14.635h18.358c18.993,0,37.026-7.251,50.641-20.14
	l27,15.863v18.912c0,26.467-21.533,48-48,48S74,347.82,74,321.353z M122.005,433.468l-20.72-33.134
	c2.916-3.644,5.042-7.921,6.158-12.566c4.693,1.028,9.56,1.585,14.558,1.585c4.992,0,9.855-0.556,14.544-1.582
	c1.117,4.648,3.247,8.928,6.167,12.574L122.005,433.468z"/>
<path d="M108.44,318.667c0-2.64-1.06-5.21-2.93-7.08c-1.86-1.86-4.43-2.92-7.07-2.92c-2.63,0-5.21,1.06-7.07,2.92
	c-1.86,1.87-2.93,4.44-2.93,7.08c0,2.63,1.07,5.21,2.93,7.07c1.86,1.86,4.44,2.93,7.07,2.93c2.64,0,5.21-1.07,7.07-2.93
	C107.38,323.877,108.44,321.297,108.44,318.667z"/>
<path d="M145.56,328.667c2.63,0,5.21-1.07,7.07-2.93s2.93-4.44,2.93-7.07c0-2.64-1.07-5.21-2.93-7.08
	c-1.87-1.86-4.44-2.92-7.07-2.92c-2.64,0-5.21,1.06-7.08,2.92c-1.86,1.87-2.92,4.45-2.92,7.08s1.06,5.2,2.92,7.07
	C140.35,327.597,142.92,328.667,145.56,328.667z"/>
<path d="M137.722,335.309c-3.905-3.905-10.237-3.905-14.143,0c-0.931,0.932-2.446,0.932-3.377,0c-3.905-3.905-10.237-3.905-14.143,0
	c-3.905,3.905-3.905,10.237,0,14.143c4.365,4.364,10.098,6.547,15.831,6.547s11.466-2.183,15.831-6.547
	C141.626,345.546,141.626,339.214,137.722,335.309z"/>
<path d="M376.44,318.667c0-2.64-1.06-5.21-2.93-7.08c-1.86-1.86-4.43-2.92-7.07-2.92c-2.63,0-5.2,1.06-7.07,2.92
	c-1.86,1.87-2.93,4.44-2.93,7.08c0,2.63,1.07,5.21,2.93,7.07c1.86,1.86,4.44,2.93,7.07,2.93c2.64,0,5.22-1.07,7.07-2.93
	C375.38,323.877,376.44,321.297,376.44,318.667z"/>
<path d="M413.56,328.667c2.63,0,5.21-1.07,7.07-2.93s2.93-4.44,2.93-7.07c0-2.64-1.07-5.21-2.93-7.08
	c-1.87-1.86-4.44-2.92-7.07-2.92c-2.64,0-5.21,1.06-7.07,2.92c-1.87,1.87-2.93,4.44-2.93,7.08c0,2.63,1.06,5.21,2.93,7.07
	C408.34,327.597,410.92,328.667,413.56,328.667z"/>
<path d="M405.722,335.309c-3.905-3.905-10.237-3.905-14.143,0c-0.931,0.932-2.446,0.932-3.377,0c-3.905-3.905-10.237-3.905-14.143,0
	c-3.905,3.905-3.905,10.237,0,14.143c4.365,4.364,10.098,6.547,15.831,6.547s11.466-2.183,15.831-6.547
	C409.626,345.546,409.626,339.214,405.722,335.309z"/>
<path d="M186.362,182.816c9.2,8.448,14.432,20.348,14.417,32.709c-0.011,0.19-0.029,0.377-0.029,0.569v31.051
	c0,15.979,13,28.98,28.98,28.98h52.457c15.979,0,28.98-13,28.98-28.98v-30.098c0.034-0.354,0.052-0.711,0.048-1.07
	c-0.146-12.522,5.111-24.609,14.423-33.161c22.062-20.26,34.714-48.755,34.714-78.177c0-57.511-46.658-104.452-103.993-104.638H256
	c-57.54,0-104.353,46.941-104.353,104.639C151.647,134.061,164.3,162.556,186.362,182.816z M282.187,256.124H229.73
	c-4.952,0-8.98-4.028-8.98-8.98v-21.051h70.417v21.051C291.167,252.096,287.138,256.124,282.187,256.124z M256,20h0.28
	c46.358,0.151,84.073,38.119,84.073,84.638c0,23.838-10.294,46.963-28.243,63.446c-10.966,10.07-18.05,23.545-20.203,38.008h-71.813
	c-2.154-14.463-9.238-27.938-20.204-38.008c-17.949-16.483-28.243-39.608-28.243-63.446C171.647,57.969,209.488,20,256,20z"/>
<path d="M226.36,95.007c2.64,0,5.21-1.07,7.08-2.93c1.86-1.87,2.93-4.44,2.93-7.07s-1.07-5.21-2.93-7.08
	c-1.87-1.86-4.44-2.92-7.08-2.92c-2.63,0-5.2,1.06-7.07,2.92c-1.86,1.87-2.93,4.44-2.93,7.08c0,2.63,1.07,5.21,2.93,7.07
	C221.16,93.937,223.73,95.007,226.36,95.007z"/>
<path d="M288.21,95.007c2.63,0,5.2-1.07,7.07-2.93c1.86-1.87,2.93-4.44,2.93-7.07c0-2.64-1.07-5.21-2.93-7.08
	c-1.87-1.86-4.44-2.92-7.07-2.92c-2.64,0-5.21,1.06-7.08,2.92c-1.86,1.87-2.92,4.44-2.92,7.08c0,2.63,1.06,5.2,2.92,7.07
	C283,93.937,285.58,95.007,288.21,95.007z"/>
<path d="M230.934,135.289c7.265,7.265,16.808,10.897,26.352,10.897c9.543,0,19.086-3.633,26.351-10.897
	c3.905-3.905,3.905-10.237,0-14.143c-3.905-3.905-10.237-3.905-14.143,0c-6.73,6.732-17.685,6.733-24.417,0
	c-3.905-3.905-10.237-3.905-14.143,0C227.029,125.051,227.029,131.383,230.934,135.289z"/>
<path d="M396.796,102.156c0,5.523,4.477,10,10,10H448c5.523,0,10-4.477,10-10s-4.477-10-10-10h-41.204
	C401.273,92.156,396.796,96.633,396.796,102.156z"/>
<path d="M387.467,54.545c2.561,0,5.122-0.978,7.075-2.932l13.752-13.766c3.904-3.907,3.9-10.239-0.006-14.142
	c-3.908-3.904-10.239-3.901-14.143,0.006l-13.752,13.766c-3.904,3.907-3.9,10.239,0.006,14.142
	C382.352,53.57,384.909,54.545,387.467,54.545z"/>
<path d="M393.814,180.304c1.952,1.95,4.51,2.925,7.067,2.925c2.561,0,5.122-0.978,7.075-2.933c3.903-3.907,3.9-10.239-0.007-14.142
	l-13.673-13.659c-3.907-3.903-10.239-3.901-14.142,0.007c-3.903,3.907-3.9,10.239,0.007,14.142L393.814,180.304z"/>
<path d="M64,112.156h41.204c5.523,0,10-4.477,10-10s-4.477-10-10-10H64c-5.523,0-10,4.477-10,10S58.477,112.156,64,112.156z"/>
<path d="M117.458,51.613c1.953,1.955,4.514,2.932,7.075,2.932c2.558,0,5.116-0.975,7.068-2.926
	c3.907-3.903,3.91-10.235,0.006-14.142l-13.752-13.766c-3.903-3.906-10.235-3.911-14.143-0.006
	c-3.907,3.903-3.91,10.235-0.006,14.142L117.458,51.613z"/>
<path d="M117.724,152.496l-13.673,13.659c-3.907,3.903-3.911,10.235-0.007,14.142c1.953,1.955,4.514,2.933,7.075,2.933
	c2.557,0,5.115-0.975,7.067-2.925l13.673-13.659c3.907-3.903,3.911-10.235,0.007-14.142
	C127.962,148.597,121.631,148.592,117.724,152.496z"/>
<g>
</g>
<g>
</g>
<g>
</g>
<g>
</g>
<g>
</g>
<g>
</g>
<g>
</g>
<g>
</g>
<g>
</g>
<g>
</g>
<g>
</g>
<g>
</g>
<g>
</g>
<g>
</g>
<g>
</g>
</svg>
