<?xml version="1.0" encoding="iso-8859-1"?>
<!-- Generator: Adobe Illustrator 19.0.0, SVG Export Plug-In . SVG Version: 6.00 Build 0)  -->
<svg version="1.1" id="Capa_1" xmlns="http://www.w3.org/2000/svg" xmlns:xlink="http://www.w3.org/1999/xlink" x="0px" y="0px"
	 viewBox="0 0 512 512" style="enable-background:new 0 0 512 512;" xml:space="preserve">
<path style="fill:#AAE6FF;" d="M367.739,502v-43.697c0-10.775,8.734-19.509,19.509-19.509h11.102
	c29.726,0,53.824-24.098,53.824-53.824v-21.753H502l-24.788-87.871v-9.766c0-67.096-54.392-121.489-121.489-121.489l0,0h0.138
	c-40.433,0-76.252,19.752-98.336,50.133l10.032,22.534c-18.799-42.787-61.55-72.667-111.281-72.667l0,0
	c-67.096,0-121.489,54.392-121.489,121.489v9.766L10,363.217h49.826v21.753c0,29.726,24.098,53.824,53.824,53.824h11.102
	c10.775,0,19.509,8.734,19.509,19.509V502H367.739z"/>
<path style="fill:#FF5A5A;" d="M261.855,322.904c2.26,1.135,4.812,1.775,7.514,1.775h0.696c9.26,0,16.768-7.507,16.768-16.768
	c0-9.261-7.507-16.768-16.768-16.768h-0.696c-2.702,0-5.254,0.639-7.514,1.775c-2.69,1.352-5.855-0.697-5.855-3.708v-18.458
	c0-8.146-6.603-14.749-14.749-14.749H222.78h-0.578c-3.115,0-5.159-3.372-3.599-6.068c1.426-2.465,2.242-5.326,2.242-8.379v-0.696
	c0-9.261-7.507-16.768-16.768-16.768l0,0c-9.261,0-16.768,7.507-16.768,16.768v0.696c0,3.053,0.816,5.914,2.242,8.379
	c1.56,2.697-0.484,6.068-3.599,6.068h-0.577h-18.471c-8.146,0-14.749,6.603-14.749,14.749v18.458c0,3.01,3.165,5.059,5.855,3.708
	c2.26-1.135,4.812-1.775,7.514-1.775h0.696c9.26,0,16.768,7.507,16.768,16.768c0,9.26-7.507,16.768-16.768,16.768h-0.696
	c-2.702,0-5.254-0.639-7.514-1.775c-2.69-1.351-5.855,0.697-5.855,3.708v18.487c0,8.146,6.604,14.749,14.749,14.749h74.347
	c8.146,0,14.749-6.603,14.749-14.749v-18.487C256,323.601,259.165,321.552,261.855,322.904z"/>
<path style="fill:#A5DC69;" d="M345.096,256.002c8.146,0,14.749,6.603,14.749,14.749v74.347c0,8.146-6.603,14.749-14.749,14.749
	h-19.048c-3.115,0-5.159,3.372-3.599,6.068c1.426,2.465,2.242,5.326,2.242,8.379v0.696c0,9.261-7.507,16.768-16.768,16.768l0,0
	c-9.261,0-16.768-7.507-16.768-16.768v-0.696c0-3.053,0.816-5.914,2.242-8.379c1.56-2.697-0.484-6.068-3.599-6.068H270.75
	c-8.146,0-14.749-6.603-14.749-14.749v-18.487c0-3.01,3.165-5.059,5.855-3.708c2.26,1.135,4.812,1.775,7.514,1.775h0.696
	c9.261,0,16.768-7.507,16.768-16.768l0,0c0-9.261-7.507-16.768-16.768-16.768h-0.696c-2.702,0-5.254,0.639-7.514,1.775
	c-2.69,1.351-5.855-0.697-5.855-3.708V270.75c0-8.146,6.603-14.749,14.749-14.749h74.346V256.002z"/>
<path d="M369.845,345.098v-74.347c0-13.646-11.103-24.749-24.749-24.749h-74.347c-5.522,0-10.627,1.819-14.749,4.888
	c-4.122-3.069-9.227-4.888-14.749-4.888h-10.777c0.247-1.464,0.372-2.952,0.372-4.447v-0.696c0-14.76-12.009-26.768-26.769-26.768
	s-26.768,12.008-26.768,26.768v0.696c0,1.495,0.125,2.982,0.372,4.447h-10.777c-13.646,0-24.749,11.103-24.749,24.749v18.459
	c0,4.939,2.514,9.438,6.725,12.035c4.171,2.572,9.263,2.799,13.62,0.606c0.937-0.471,1.954-0.709,3.023-0.709h0.696
	c3.731,0,6.768,3.036,6.768,6.768s-3.036,6.768-6.768,6.768h-0.696c-1.069,0-2.087-0.238-3.023-0.71
	c-4.358-2.188-9.45-1.963-13.619,0.607c-4.212,2.597-6.726,7.096-6.726,12.036v18.486c0,13.646,11.103,24.749,24.749,24.749h74.347
	c5.522,0,10.627-1.819,14.749-4.888c4.122,3.069,9.227,4.888,14.749,4.888h10.777c-0.247,1.464-0.372,2.952-0.372,4.447v0.696
	c0,14.76,12.009,26.768,26.769,26.768s26.768-12.008,26.768-26.768v-0.696c0-1.495-0.125-2.983-0.372-4.447h10.777
	C358.742,369.847,369.845,358.744,369.845,345.098z M241.251,349.847h-74.347c-2.618,0-4.749-2.131-4.749-4.749v-10.634
	c1.116,0.142,2.242,0.214,3.368,0.214h0.696c14.76,0,26.768-12.008,26.768-26.768s-12.008-26.768-26.768-26.768h-0.696
	c-1.126,0-2.252,0.072-3.368,0.214v-10.605c0-2.618,2.131-4.749,4.749-4.749h19.048c5.035,0,9.729-2.714,12.248-7.083
	c2.495-4.325,2.498-9.687,0.008-13.993c-0.597-1.03-0.898-2.165-0.898-3.371v-0.696c0-3.732,3.036-6.768,6.768-6.768
	c3.732,0,6.769,3.036,6.769,6.768v0.696c0,1.207-0.302,2.341-0.898,3.372c-2.49,4.305-2.487,9.667,0.008,13.992
	c2.52,4.369,7.213,7.083,12.248,7.083h19.048c2.618,0,4.749,2.131,4.749,4.749v18.459c0,4.939,2.514,9.438,6.724,12.034
	c4.17,2.571,9.261,2.8,13.622,0.607c0.937-0.471,1.954-0.709,3.022-0.709h0.696c3.732,0,6.769,3.036,6.769,6.768
	s-3.036,6.768-6.769,6.768h-0.696c-1.068,0-2.086-0.238-3.023-0.71c-4.359-2.189-9.451-1.964-13.62,0.608
	c-4.211,2.597-6.725,7.096-6.725,12.035v18.486C246,347.716,243.869,349.847,241.251,349.847z M326.048,349.847
	c-5.035,0-9.729,2.714-12.248,7.083c-2.495,4.325-2.498,9.687-0.008,13.992c0.597,1.03,0.898,2.165,0.898,3.372v0.696
	c0,3.731-3.036,6.768-6.768,6.768s-6.769-3.036-6.769-6.768v-0.696c0-1.207,0.302-2.342,0.898-3.372
	c2.49-4.306,2.487-9.667-0.008-13.992c-2.52-4.369-7.213-7.083-12.247-7.083h-19.049c-2.618,0-4.749-2.131-4.749-4.749v-9.344v-1.29
	c1.116,0.142,2.242,0.214,3.368,0.214h0.696c14.76,0,26.769-12.008,26.769-26.768s-12.009-26.768-26.769-26.768h-0.696
	c-1.126,0-2.252,0.072-3.368,0.214v-1.324v-9.281c0-2.618,2.131-4.749,4.749-4.749h74.347c2.618,0,4.749,2.131,4.749,4.749v74.347
	c0,2.618-2.131,4.749-4.749,4.749L326.048,349.847L326.048,349.847z"/>
<path d="M277.77,414.967c-0.002,0-0.002,0-0.004,0c-5.521,0-9.998,4.475-10,9.996l-0.031,77.033
	c-0.002,5.522,4.473,10.002,9.996,10.004c0.002,0,0.002,0,0.004,0c5.521,0,9.998-4.475,10-9.996l0.031-77.033
	C287.768,419.448,283.293,414.969,277.77,414.967z"/>
<path d="M84.02,269.609c-1.859,1.86-2.93,4.44-2.93,7.07s1.07,5.21,2.93,7.07c1.86,1.859,4.44,2.93,7.07,2.93s5.21-1.07,7.07-2.93
	c1.859-1.86,2.93-4.44,2.93-7.07s-1.07-5.21-2.93-7.07c-1.86-1.859-4.44-2.93-7.07-2.93S85.88,267.75,84.02,269.609z"/>
<path d="M427.979,283.75c1.86-1.86,2.931-4.44,2.931-7.07s-1.07-5.21-2.931-7.07c-1.859-1.859-4.439-2.93-7.069-2.93
	s-5.21,1.07-7.07,2.93c-1.86,1.86-2.93,4.44-2.93,7.07s1.069,5.21,2.93,7.07c1.86,1.859,4.44,2.93,7.07,2.93
	S426.12,285.609,427.979,283.75z"/>
<path d="M511.624,360.502l-24.412-86.54v-8.382c0-72.441-58.88-131.388-131.298-131.489c-0.018,0-0.035,0-0.053,0h-0.138
	c-0.018,0-0.035,0-0.054,0c-38.298,0.057-74.77,17.026-99.585,45.871c-24.592-28.636-60.831-45.871-99.808-45.871
	c-72.503,0-131.488,58.985-131.488,131.489v8.382l-24.412,86.54c-0.851,3.015-0.239,6.253,1.65,8.75
	c1.891,2.497,4.842,3.965,7.974,3.965h39.826v11.753c0,35.192,28.632,63.824,63.824,63.824h11.102c5.244,0,9.51,4.266,9.51,9.509
	V502c0,5.522,4.478,10,10,10s10-4.478,10-10v-43.697c0-16.271-13.238-29.509-29.51-29.509H113.65
	c-24.165,0-43.824-19.659-43.824-43.824v-21.753c0-5.522-4.478-10-10-10H23.211l21.201-75.156c0.25-0.883,0.376-1.797,0.376-2.715
	v-9.766c0-61.475,50.014-111.489,111.488-111.489c44.239,0,84.326,26.177,102.126,66.689c2.222,5.058,8.121,7.353,13.178,5.133
	c5.057-2.222,7.354-8.122,5.133-13.178c-2.465-5.61-5.305-10.977-8.46-16.098c21.059-26.698,53.451-42.526,87.54-42.546
	c61.444,0.037,111.419,50.036,111.419,111.489v9.766c0,0.918,0.126,1.832,0.376,2.715l21.201,75.156h-36.615
	c-5.522,0-10,4.478-10,10v21.753c0,24.165-19.659,43.824-43.824,43.824h-11.102c-16.271,0-29.51,13.237-29.51,29.509V502
	c0,5.522,4.478,10,10,10s10-4.478,10-10v-43.697c0-5.243,4.266-9.509,9.51-9.509h11.102c35.192,0,63.824-28.632,63.824-63.824
	v-11.753H502c3.132,0,6.083-1.468,7.974-3.965C511.863,366.755,512.475,363.517,511.624,360.502z"/>
<path d="M232.16,386.01c-2.641,0-5.21,1.07-7.08,2.93c-1.86,1.86-2.931,4.44-2.931,7.07s1.07,5.21,2.931,7.07
	c1.87,1.859,4.439,2.93,7.08,2.93c2.62,0,5.199-1.07,7.06-2.93c1.87-1.86,2.94-4.44,2.94-7.07s-1.07-5.21-2.94-7.07
	C237.359,387.08,234.79,386.01,232.16,386.01z"/>
<path d="M192.16,386.01c-2.641,0-5.221,1.07-7.08,2.93c-1.86,1.86-2.931,4.44-2.931,7.07s1.07,5.21,2.931,7.07
	c1.859,1.859,4.439,2.93,7.08,2.93c2.63,0,5.199-1.07,7.069-2.93c1.86-1.86,2.931-4.44,2.931-7.07s-1.07-5.21-2.931-7.07
	C197.359,387.08,194.79,386.01,192.16,386.01z"/>
<path d="M152.16,386.01c-2.641,0-5.21,1.07-7.08,2.93c-1.86,1.86-2.931,4.44-2.931,7.07s1.07,5.21,2.931,7.07
	c1.87,1.859,4.439,2.93,7.08,2.93c2.63,0,5.199-1.07,7.069-2.93c1.86-1.86,2.92-4.44,2.92-7.07s-1.06-5.21-2.92-7.07
	C157.359,387.08,154.79,386.01,152.16,386.01z"/>
<path d="M255.986,85.714c5.522,0,10-4.477,10-10V10c0-5.523-4.478-10-10-10s-10,4.477-10,10v65.714
	C245.986,81.237,250.464,85.714,255.986,85.714z"/>
<path d="M178.521,108.151c1.953,1.951,4.511,2.926,7.068,2.926c2.561,0,5.121-0.978,7.074-2.932
	c3.903-3.907,3.9-10.238-0.006-14.142L166.23,67.598c-3.909-3.904-10.239-3.9-14.143,0.006c-3.903,3.907-3.9,10.239,0.006,14.143
	L178.521,108.151z"/>
<path d="M132.248,57.754c2.413,0,4.835-0.869,6.754-2.628l0.012-0.011c4.071-3.732,4.341-10.052,0.608-14.124
	c-3.73-4.07-10.062-4.341-14.134-0.609c-4.071,3.732-4.347,10.058-0.614,14.129C126.846,56.663,129.542,57.754,132.248,57.754z"/>
<path d="M324.741,112.818c2.561,0,5.121-0.978,7.074-2.932l28.096-28.118c3.903-3.907,3.9-10.239-0.006-14.142
	c-3.907-3.905-10.239-3.901-14.143,0.005L317.667,95.75c-3.903,3.907-3.9,10.239,0.006,14.142
	C319.625,111.843,322.184,112.818,324.741,112.818z"/>
<path d="M376.445,61.113c2.63,0,5.257-1.032,7.221-3.081c3.821-3.987,3.687-10.317-0.301-14.139l-0.012-0.011
	c-3.987-3.822-10.312-3.68-14.133,0.306c-3.821,3.988-3.681,10.323,0.307,14.145C371.466,60.19,373.957,61.113,376.445,61.113z"/>
<g>
</g>
<g>
</g>
<g>
</g>
<g>
</g>
<g>
</g>
<g>
</g>
<g>
</g>
<g>
</g>
<g>
</g>
<g>
</g>
<g>
</g>
<g>
</g>
<g>
</g>
<g>
</g>
<g>
</g>
</svg>
