<?xml version="1.0" encoding="iso-8859-1"?>
<!-- Generator: Adobe Illustrator 19.0.0, SVG Export Plug-In . SVG Version: 6.00 Build 0)  -->
<svg version="1.1" id="Capa_1" xmlns="http://www.w3.org/2000/svg" xmlns:xlink="http://www.w3.org/1999/xlink" x="0px" y="0px"
	 viewBox="0 0 511.999 511.999" style="enable-background:new 0 0 511.999 511.999;" xml:space="preserve">
<g>
	<circle style="fill:#78D2FA;" cx="256" cy="255.989" r="106.5"/>
	<circle style="fill:#78D2FA;" cx="256" cy="255.989" r="106.5"/>
</g>
<path style="fill:#F5C86E;" d="M320.506,188.997c-13.081,0-23.684,10.604-23.684,23.684l0,0c0,4.859-3.939,8.797-8.797,8.797l0,0
	c-8.596,0-15.564,6.968-15.564,15.564v3.383c0,8.596,6.968,15.564,15.564,15.564H362.5c0-25.387-8.888-48.694-23.715-66.993h-18.279
	V188.997z"/>
<path style="fill:#D7FA91;" d="M235.425,242.99c0-7.18-5.82-13-13-13h-2.933c-7.042,0-12.75-5.708-12.75-12.75
	s5.708-12.75,12.75-12.75H243c7.18,0,13-5.82,13-13v-1.062c0-7.18-5.82-13-13-13h-58.9c-21.263,19.471-34.6,47.458-34.6,78.562
	h72.925C229.605,255.99,235.425,250.17,235.425,242.99z"/>
<path style="fill:#F5C86E;" d="M285.137,290.339H155.163c11.382,33.424,38.916,59.37,73.298,68.549v-9.691
	c0-6.499,5.269-11.768,11.768-11.768h17.917c6.499,0,11.768-5.269,11.768-11.768l0,0c0-3.99,3.235-7.225,7.226-7.225h5.707
	c7.758,0,14.047-6.289,14.047-14.047v-2.291C296.895,295.604,291.631,290.339,285.137,290.339z"/>
<path style="fill:#F5B955;" d="M426.295,342.043l43.698,43.698c9.351,9.351,10.698,24.043,3.203,34.939l-14.228,20.683
	l-17.848,17.848l-20.688,14.232c-10.895,7.496-25.588,6.149-34.939-3.202l-43.697-43.697L426.295,342.043z"/>
<polyline style="fill:#6E87F5;" points="375.036,418.688 312.436,356.088 356.168,312.357 418.768,374.957 "/>
<path style="fill:#FFCDAC;" d="M456.649,494.209l-7.79-7.79c-10.375-10.375-10.375-27.195,0-37.57l0,0l0,0
	c10.375-10.375,27.195-10.375,37.57,0l7.79,7.79c10.375,10.375,10.375,27.195,0,37.57l0,0
	C483.844,504.584,467.024,504.584,456.649,494.209z"/>
<path style="fill:#78D2FA;" d="M169.948,426.285l-43.698,43.698c-9.351,9.351-24.043,10.698-34.939,3.203l-20.683-14.228
	L52.78,441.11l-14.232-20.688c-7.496-10.895-6.149-25.588,3.202-34.939l43.697-43.697L169.948,426.285z"/>
<polyline style="fill:#6E87F5;" points="93.302,375.027 155.903,312.427 199.634,356.158 137.034,418.758 "/>
<path style="fill:#FFCDAC;" d="M17.781,456.64l7.79-7.79c10.375-10.375,27.195-10.375,37.57,0l0,0l0,0
	c10.375,10.375,10.375,27.195,0,37.57l-7.79,7.79c-10.375,10.375-27.195,10.375-37.57,0l0,0
	C7.406,483.835,7.406,467.014,17.781,456.64z"/>
<path style="fill:#D7FA91;" d="M85.705,169.938L42.007,126.24c-9.351-9.351-10.698-24.043-3.203-34.939l14.229-20.682L70.88,52.771
	l20.688-14.232c10.895-7.496,25.588-6.149,34.939,3.202l43.697,43.697L85.705,169.938z"/>
<polyline style="fill:#6E87F5;" points="136.964,93.293 199.564,155.893 155.833,199.624 93.232,137.024 "/>
<path style="fill:#FFCDAC;" d="M55.351,17.771l7.79,7.79c10.375,10.375,10.375,27.195,0,37.57l0,0l0,0
	c-10.375,10.375-27.195,10.375-37.57,0l-7.79-7.79c-10.375-10.375-10.375-27.195,0-37.57l0,0
	C28.156,7.397,44.976,7.397,55.351,17.771z"/>
<path style="fill:#FF8C8C;" d="M342.052,85.696l43.698-43.698c9.351-9.351,24.043-10.698,34.939-3.203l20.683,14.228l17.848,17.848
	l14.232,20.688c7.496,10.895,6.149,25.588-3.202,34.939l-43.697,43.697L342.052,85.696z"/>
<polyline style="fill:#6E87F5;" points="418.698,136.954 356.097,199.554 312.366,155.823 374.966,93.223 "/>
<path style="fill:#FFCDAC;" d="M494.219,55.341l-7.79,7.79c-10.375,10.375-27.195,10.375-37.57,0l0,0l0,0
	c-10.375-10.375-10.375-27.195,0-37.57l7.79-7.79c10.375-10.375,27.195-10.375,37.57,0l0,0
	C504.594,28.146,504.594,44.966,494.219,55.341z"/>
<path d="M199.629,67.816c0.902,0,1.82-0.123,2.732-0.381c21.232-6.018,43.201-8.404,65.292-7.1
	c5.516,0.33,10.248-3.878,10.573-9.392c0.326-5.513-3.878-10.247-9.392-10.573c-24.336-1.441-48.534,1.192-71.927,7.822
	c-5.313,1.506-8.4,7.035-6.894,12.348C191.261,64.943,195.269,67.816,199.629,67.816z"/>
<path d="M308.965,67.244l0.668,0.188c0.914,0.26,1.834,0.384,2.739,0.384c4.357,0,8.364-2.87,9.614-7.268
	c1.51-5.313-1.572-10.843-6.884-12.353l-0.786-0.221c-5.322-1.479-10.833,1.638-12.311,6.96
	C300.527,60.255,303.643,65.767,308.965,67.244z"/>
<path d="M450.147,325.725c0.971,0.296,1.951,0.437,2.916,0.437c4.286,0,8.25-2.778,9.563-7.091
	c12.407-40.759,12.554-83.895,0.426-124.744c-1.572-5.294-7.139-8.314-12.433-6.74c-5.294,1.572-8.312,7.138-6.74,12.433
	c11.008,37.078,10.875,76.231-0.386,113.227C441.885,318.529,444.864,324.116,450.147,325.725z"/>
<path d="M311.703,443.949c-25.573,7.554-52.002,9.812-78.556,6.713c-5.485-0.643-10.451,3.288-11.091,8.773
	c-0.64,5.486,3.288,10.452,8.774,11.092c8.472,0.988,16.93,1.481,25.36,1.481c20.673,0,41.165-2.968,61.178-8.878
	c5.296-1.564,8.322-7.126,6.758-12.423S316.999,442.39,311.703,443.949z"/>
<path d="M201.425,444.278l-0.542-0.157c-5.301-1.548-10.854,1.493-12.403,6.795c-1.548,5.302,1.494,10.854,6.795,12.402l0.643,0.187
	c0.92,0.264,1.847,0.39,2.758,0.39c4.349,0,8.352-2.86,9.608-7.249C209.806,451.336,206.734,445.799,201.425,444.278z"/>
<path d="M62.884,183.442c-5.261-1.687-10.89,1.211-12.574,6.472c-13.887,43.344-13.65,91.003,0.667,134.199
	c1.392,4.198,5.297,6.856,9.491,6.856c1.042,0,2.104-0.165,3.147-0.511c5.243-1.737,8.084-7.396,6.346-12.639
	c-12.994-39.205-13.209-82.462-0.605-121.803C71.041,190.757,68.143,185.127,62.884,183.442z"/>
<path d="M501.29,449.569l-7.79-7.79c-4.567-4.567-10.134-7.768-16.203-9.418l4.137-6.014c10.226-14.866,8.388-34.917-4.372-47.677
	l-43.698-43.697c-3.905-3.904-10.237-3.904-14.142,0c-3.905,3.905-3.905,10.237,0,14.143l43.697,43.697
	c5.941,5.941,6.797,15.277,2.036,22.199l-13.713,19.933c-3.452,1.736-6.645,4.023-9.456,6.834c-2.844,2.844-5.153,6.079-6.896,9.577
	l-20.129,13.848c-6.923,4.763-16.26,3.907-22.2-2.035l-43.697-43.697c-3.905-3.904-10.237-3.904-14.143,0
	c-3.905,3.905-3.905,10.237,0,14.143l43.697,43.697c7.239,7.239,16.823,10.962,26.478,10.962c7.363,0,14.769-2.167,21.201-6.593
	l6.289-4.326c1.656,6.043,4.849,11.585,9.4,16.137l7.791,7.79l0,0c6.906,6.906,16.089,10.71,25.856,10.71s18.95-3.804,25.856-10.71
	c6.907-6.906,10.71-16.089,10.71-25.855S508.197,456.476,501.29,449.569z M487.148,487.138c-3.129,3.129-7.289,4.853-11.714,4.853
	s-8.584-1.724-11.713-4.853l0,0l-7.79-7.79c-3.129-3.129-4.852-7.289-4.852-11.714s1.723-8.584,4.852-11.713
	s7.289-4.853,11.714-4.853s8.584,1.724,11.714,4.853l7.79,7.79c3.129,3.129,4.852,7.289,4.852,11.714
	S490.277,484.009,487.148,487.138z"/>
<path d="M162.877,419.214l-43.698,43.697c-5.941,5.943-15.278,6.798-22.2,2.035l-19.931-13.711
	c-1.736-3.452-4.023-6.646-6.835-9.457c-2.844-2.844-6.079-5.152-9.577-6.895l-13.848-20.129c-4.762-6.922-3.906-16.259,2.035-22.2
	l43.697-43.697c3.905-3.905,3.905-10.237,0-14.143c-3.905-3.904-10.237-3.904-14.143,0L34.68,378.411
	c-12.759,12.76-14.597,32.812-4.37,47.679l4.326,6.289c-6.043,1.656-11.585,4.849-16.135,9.4l-7.791,7.79l0,0
	C3.803,456.476,0,465.658,0,475.425s3.803,18.949,10.709,25.855c6.907,6.906,16.089,10.71,25.856,10.71s18.95-3.804,25.855-10.71
	l7.791-7.79c4.567-4.568,7.767-10.134,9.417-16.202l6.014,4.137c6.434,4.425,13.835,6.591,21.2,6.591
	c9.653,0,19.24-3.724,26.478-10.962l43.697-43.697c3.905-3.905,3.906-10.237,0-14.143
	C173.113,415.311,166.782,415.31,162.877,419.214z M56.07,479.348l-7.791,7.79c-3.129,3.129-7.289,4.853-11.713,4.853
	s-8.585-1.724-11.714-4.853C21.723,484.009,20,479.85,20,475.425s1.723-8.585,4.852-11.714l7.791-7.79
	c3.129-3.129,7.289-4.853,11.713-4.853s8.585,1.724,11.714,4.853c3.128,3.129,4.852,7.288,4.852,11.713
	S59.199,476.219,56.07,479.348z"/>
<path d="M18.5,70.203c4.658,4.658,10.273,7.783,16.216,9.398l-4.151,6.033c-10.226,14.867-8.388,34.918,4.371,47.678l43.698,43.698
	c1.953,1.952,4.512,2.929,7.071,2.929s5.119-0.977,7.071-2.929c3.905-3.905,3.905-10.237,0-14.143l-43.697-43.698
	c-5.941-5.941-6.797-15.278-2.036-22.2l13.729-19.957c3.406-1.708,6.602-3.971,9.44-6.81c2.871-2.871,5.153-6.108,6.868-9.558
	l20.156-13.867c6.923-4.762,16.26-3.905,22.201,2.035l43.697,43.697c1.953,1.953,4.512,2.929,7.071,2.929s5.119-0.976,7.071-2.929
	c3.905-3.905,3.905-10.237,0-14.143l-43.698-43.697c-12.76-12.76-32.811-14.596-47.678-4.37l-6.308,4.34
	c-1.62-5.919-4.74-11.509-9.38-16.149l-7.791-7.791c-14.257-14.256-37.455-14.256-51.712,0c-14.256,14.257-14.256,37.455,0,51.712
	L18.5,70.203z M24.852,24.842c3.23-3.23,7.472-4.844,11.714-4.844s8.484,1.615,11.713,4.844l7.791,7.791
	c6.459,6.458,6.459,16.968,0,23.427s-16.969,6.459-23.428,0l-7.791-7.791C18.393,41.811,18.393,31.301,24.852,24.842z"/>
<path d="M342.052,95.696c2.559,0,5.119-0.976,7.071-2.929l43.698-43.698c5.94-5.941,15.278-6.797,22.2-2.036l19.957,13.729
	c1.708,3.406,3.972,6.602,6.81,9.44c2.871,2.871,6.108,5.153,9.558,6.868l13.866,20.155c4.762,6.923,3.906,16.259-2.035,22.201
	l-43.697,43.697c-3.905,3.905-3.905,10.237,0,14.143c1.953,1.953,4.512,2.929,7.071,2.929s5.119-0.976,7.071-2.929l43.697-43.698
	c12.759-12.76,14.597-32.811,4.37-47.678l-4.34-6.308c5.919-1.62,11.509-4.74,16.149-9.38l7.791-7.791
	c14.256-14.257,14.256-37.455,0-51.712c-14.257-14.257-37.455-14.256-51.712,0l-7.791,7.791c-4.658,4.658-7.784,10.273-9.398,16.216
	l-6.033-4.151c-14.867-10.226-34.918-8.388-47.678,4.371l-43.698,43.698c-3.905,3.905-3.905,10.237,0,14.143
	C336.934,94.72,339.493,95.696,342.052,95.696z M455.93,32.633l7.791-7.791c3.229-3.23,7.471-4.844,11.713-4.844
	s8.485,1.615,11.714,4.844c6.459,6.459,6.459,16.969,0,23.428l-7.791,7.791c-6.459,6.459-16.969,6.458-23.427,0
	C449.471,49.601,449.471,39.091,455.93,32.633z"/>
<path d="M446.069,123.725c3.905-3.905,3.905-10.237,0-14.142s-10.236-3.905-14.143,0l-15.596,15.596L386.741,95.59l15.596-15.596
	c3.905-3.905,3.905-10.237,0-14.143c-3.905-3.904-10.237-3.904-14.143,0l-82.9,82.9c-0.383,0.383-0.717,0.794-1.024,1.219
	c-14.715-6.726-31.062-10.481-48.271-10.481c-17.244,0-33.623,3.771-48.361,10.523c-0.302-0.415-0.63-0.817-1.004-1.192l-82.9-82.9
	c-3.905-3.904-10.237-3.904-14.142,0c-3.905,3.905-3.906,10.237,0,14.143l15.596,15.596l-29.589,29.589l-15.596-15.596
	c-3.905-3.904-10.237-3.904-14.143,0c-3.905,3.905-3.905,10.237,0,14.143l82.9,82.9c0.383,0.383,0.795,0.717,1.219,1.024
	c-6.727,14.715-10.481,31.062-10.481,48.271c0,17.244,3.771,33.623,10.523,48.361c-0.415,0.303-0.817,0.63-1.192,1.004l-82.9,82.9
	c-3.905,3.905-3.905,10.237,0,14.143c1.953,1.952,4.512,2.929,7.071,2.929s5.119-0.977,7.071-2.929l15.596-15.596l29.588,29.589
	l-15.595,15.595c-3.905,3.905-3.906,10.237,0,14.143c1.953,1.952,4.512,2.929,7.071,2.929s5.119-0.977,7.071-2.929l82.9-82.899
	c0.383-0.383,0.717-0.795,1.025-1.22c14.715,6.726,31.062,10.481,48.271,10.481c17.244,0,33.622-3.77,48.361-10.523
	c0.302,0.415,0.63,0.817,1.004,1.192l82.9,82.899c1.953,1.952,4.512,2.929,7.071,2.929s5.119-0.977,7.071-2.929
	c3.905-3.905,3.905-10.237,0-14.143l-15.595-15.595l29.588-29.589l15.596,15.596c1.953,1.952,4.512,2.929,7.071,2.929
	s5.119-0.977,7.071-2.929c3.905-3.905,3.905-10.237,0-14.143l-82.9-82.9c-0.383-0.383-0.795-0.717-1.219-1.024
	c6.727-14.715,10.481-31.062,10.481-48.271c0-17.244-3.771-33.623-10.523-48.361c0.415-0.302,0.817-0.63,1.192-1.004
	L446.069,123.725z M372.599,109.732l7.8,7.8l-49.393,49.393c-2.834-2.39-5.782-4.647-8.837-6.763L372.599,109.732z M351.984,245.99
	h-63.959c-3.068,0-5.564-2.496-5.564-5.564v-3.384c0-3.068,2.496-5.564,5.564-5.564c10.365,0,18.797-8.432,18.797-18.797
	c0-7.546,6.139-13.685,13.685-13.685h13.315C343.696,212.446,350.178,228.533,351.984,245.99z M219.492,239.99h2.933
	c1.654,0,3,1.346,3,3s-1.346,3-3,3h-62.409c2.358-22.8,12.689-43.266,28.146-58.562H243c1.654,0,3,1.346,3,3v1.062
	c0,1.654-1.346,3-3,3h-23.508c-12.544,0-22.75,10.206-22.75,22.75S206.948,239.99,219.492,239.99z M218.861,345.054
	c-20.934-8.762-38.146-24.696-48.548-44.715h114.824c0.97,0,1.758,0.789,1.758,1.757v2.292c0,2.232-1.816,4.048-4.047,4.048h-5.708
	c-9.498,0-17.225,7.727-17.225,17.224c0,0.976-0.793,1.77-1.769,1.77h-17.917C229.643,327.429,220.802,335.026,218.861,345.054z
	 M189.747,160.22c-2.993,2.077-5.883,4.289-8.664,6.629l-49.4-49.4l7.646-7.646L189.747,160.22z M109.742,139.391l7.8-7.8
	l49.393,49.393c-2.39,2.834-4.647,5.782-6.763,8.837L109.742,139.391z M160.229,322.243c2.077,2.992,4.289,5.883,6.629,8.663
	l-49.4,49.4l-7.646-7.646L160.229,322.243z M139.401,402.249l-7.8-7.8l49.393-49.393c2.834,2.39,5.782,4.647,8.837,6.763
	L139.401,402.249z M238.461,350.888v-1.691c0-0.976,0.793-1.769,1.769-1.769h17.917c11.063,0,20.225-8.295,21.592-18.993h3.109
	c13.259,0,24.046-10.787,24.047-24.045v-2.293c0-11.998-9.761-21.759-21.758-21.759H162.614c-1.215-4.657-2.091-9.448-2.598-14.349
	h62.409c12.682,0,23-10.318,23-23s-10.318-23-23-23h-2.933c-1.517,0-2.75-1.234-2.75-2.75s1.233-2.75,2.75-2.75H243
	c12.682,0,23-10.318,23-23v-1.062c0-12.682-10.318-23-23-23h-25.309c11.75-5.103,24.704-7.938,38.309-7.938
	c22.094,0,42.474,7.469,58.759,20.008c-15.469,2.672-27.363,15.92-27.917,32.008c-13.549,0.621-24.381,11.838-24.381,25.537v3.384
	c0,14.096,11.468,25.564,25.564,25.564h63.959c-5.019,48.529-46.15,86.5-95.984,86.5C250.012,352.49,244.15,351.937,238.461,350.888
	z M322.252,351.761c2.993-2.077,5.883-4.289,8.664-6.629l49.4,49.4l-7.646,7.646L322.252,351.761z M402.258,372.59l-7.8,7.8
	l-49.393-49.393c2.39-2.833,4.647-5.782,6.763-8.836L402.258,372.59z M345.141,181.074l49.4-49.4l7.646,7.646l-50.417,50.417
	C349.694,186.745,347.482,183.855,345.141,181.074z"/>
<g>
</g>
<g>
</g>
<g>
</g>
<g>
</g>
<g>
</g>
<g>
</g>
<g>
</g>
<g>
</g>
<g>
</g>
<g>
</g>
<g>
</g>
<g>
</g>
<g>
</g>
<g>
</g>
<g>
</g>
</svg>
