<?xml version="1.0" encoding="iso-8859-1"?>
<!-- Generator: Adobe Illustrator 19.0.0, SVG Export Plug-In . SVG Version: 6.00 Build 0)  -->
<svg version="1.1" id="Capa_1" xmlns="http://www.w3.org/2000/svg" xmlns:xlink="http://www.w3.org/1999/xlink" x="0px" y="0px"
	 viewBox="0 0 512.002 512.002" style="enable-background:new 0 0 512.002 512.002;" xml:space="preserve">
<g>
	<ellipse style="fill:#AAE6FF;" cx="387" cy="414" rx="115" ry="54"/>
	<ellipse style="fill:#AAE6FF;" cx="125" cy="414" rx="115" ry="54"/>
</g>
<ellipse style="fill:#F0F0FA;" cx="256" cy="448" rx="115" ry="54"/>
<path style="fill:#FFCDAC;" d="M295.729,85.486v15.294c0,21.941-17.787,39.728-39.728,39.728l0,0l0,0
	c-21.941,0-39.728-17.787-39.728-39.728V85.486H295.729z"/>
<g>
	<path style="fill:#BEBEBE;" d="M256.001,44.001L256.001,44.001c-21.941,0-39.728,17.787-39.728,39.728v9.564h19.424
		c12.912,0,25.162-5.717,33.455-15.614l0,0l26.576,15.614v-9.564C295.729,61.788,277.942,44.001,256.001,44.001z"/>
	<rect x="211.17" y="292" style="fill:#BEBEBE;" width="89.66" height="156"/>
</g>
<path style="fill:#FFCDAC;" d="M347.274,51.486V66.78c0,21.941,17.787,39.728,39.728,39.728l0,0l0,0
	c21.941,0,39.728-17.787,39.728-39.728V51.486H347.274z"/>
<path style="fill:#E6AA46;" d="M387.002,10.001L387.002,10.001c21.941,0,39.728,17.787,39.728,39.728v9.564h-19.424
	c-12.912,0-25.162-5.717-33.455-15.614l0,0l-26.576,15.614v-9.564C347.274,27.788,365.061,10.001,387.002,10.001z"/>
<rect x="347" y="256" style="fill:#BEBEBE;" width="80" height="158"/>
<path style="fill:#78D2FA;" d="M336.001,255.723v30.278h-28.999V163.02c0-17.706,12.635-32.891,30.046-36.111l22.219-4.108
	c6.277-1.161,10.832-6.635,10.832-13.019v-6.324h33.795v6.324c0,6.384,4.555,11.858,10.833,13.019l22.228,4.109
	c17.412,3.219,30.047,18.404,30.047,36.111v122.98h-31.549v-30.278H336.001z"/>
<path style="fill:#FFB487;" d="M387.017,140.516l21.449-20.732c-2.821-2.447-4.571-6.049-4.571-10.003v-6.324H370.1v6.324
	c0,3.946-1.744,7.541-4.556,9.988L387.017,140.516z"/>
<polygon style="fill:#FFFFFF;" points="402.669,203.24 386.999,140.516 371.335,203.24 387.005,222.016 "/>
<path style="fill:#FFCDAC;" d="M164.728,51.486V66.78c0,21.941-17.787,39.728-39.728,39.728l0,0l0,0
	c-21.941,0-39.728-17.787-39.728-39.728V51.486H164.728z"/>
<path style="fill:#E6AA46;" d="M125,10.001L125,10.001c-21.941,0-39.728,17.787-39.728,39.728v9.564h19.424
	c12.912,0,25.162-5.717,33.455-15.614l0,0l26.576,15.614v-9.564C164.728,27.788,146.941,10.001,125,10.001z"/>
<rect x="85" y="256" style="fill:#BEBEBE;" width="80" height="158"/>
<path style="fill:#D7FA91;" d="M176.001,255.723v30.278H205V163.02c0-17.706-12.635-32.891-30.046-36.111l-22.219-4.108
	c-6.277-1.161-10.832-6.635-10.832-13.019v-6.324h-33.795v6.324c0,6.384-4.555,11.858-10.833,13.019l-22.228,4.109
	C57.635,130.129,45,145.314,45,163.021v122.98h31.549v-30.278H176.001z"/>
<path style="fill:#FF8C8C;" d="M211.17,289.723v20.333h-35.169V197.02c0-17.706,12.635-32.891,30.046-36.111l22.219-4.108
	c6.277-1.161,10.832-6.635,10.832-13.019v-6.324h33.795v6.324c0,6.384,4.555,11.858,10.833,13.019l22.228,4.109
	c17.412,3.219,30.047,18.404,30.047,36.111v113.035h-35.169v-20.333H211.17z"/>
<path style="fill:#FFB487;" d="M256.016,174.516l21.449-20.732c-2.821-2.447-4.571-6.049-4.571-10.003v-6.324H239.1v6.324
	c0,3.946-1.744,7.541-4.556,9.988L256.016,174.516z"/>
<polygon style="fill:#FFFFFF;" points="271.668,237.24 255.998,174.516 240.334,237.24 256.004,256.016 "/>
<path style="fill:#FFB487;" d="M124.985,140.516l-21.449-20.732c2.821-2.447,4.571-6.049,4.571-10.003v-6.324h33.794v6.324
	c0,3.946,1.744,7.541,4.556,9.988L124.985,140.516z"/>
<polygon style="fill:#FFFFFF;" points="109.333,203.24 125.003,140.516 140.667,203.24 124.997,222.016 "/>
<path d="M437.002,355.118v-59.117h30c5.523,0,10-4.478,10-10V163.132c0-22.526-16.077-41.849-38.228-45.944l-22.22-4.108
	c-1.536-0.284-2.65-1.624-2.65-3.185v-1.162c13.875-8.895,23.098-24.442,23.098-42.113V50.001c0-27.57-22.43-50-50-50
	s-50,22.43-50,50V66.62c0,17.675,9.227,33.225,23.108,42.119v1.155c0,1.562-1.115,2.902-2.651,3.186l-22.228,4.109
	c-17.207,3.181-31.174,15.769-36.214,32.381l-13.473-2.491c-1.537-0.284-2.651-1.624-2.651-3.186v-1.155
	c13.881-8.894,23.108-24.444,23.108-42.119V84.001c0-27.57-22.43-50-50-50s-50,22.43-50,50v16.619
	c0,17.67,9.222,33.217,23.098,42.113v1.162c0,1.562-1.115,2.901-2.651,3.185l-13.463,2.489c-5.04-16.612-19.007-29.199-36.214-32.38
	l-22.228-4.109c-1.536-0.284-2.651-1.624-2.651-3.186v-1.155C165.773,99.845,175,84.294,175,66.62V50.001c0-27.57-22.43-50-50-50
	s-50,22.43-50,50V66.62c0,17.67,9.222,33.217,23.098,42.113v1.162c0,1.562-1.115,2.901-2.651,3.185l-22.219,4.108
	C51.077,121.283,35,140.605,35,163.132v122.869c0,5.522,4.477,10,10,10h30v59.117c-46.265,9.965-75,32.52-75,58.883
	c0,29.887,37.443,54.8,93.172,61.992c0.435,0.056,0.866,0.083,1.292,0.083c4.953,0,9.254-3.678,9.905-8.721
	c0.707-5.478-3.161-10.491-8.638-11.198C52.558,450.586,20,432.462,20,414.001c0-15.016,22.402-30.497,55-38.364v38.364
	c0,5.522,4.477,10,10,10h54.591c-5.592,7.41-8.59,15.505-8.59,24c0,26.347,28.723,48.906,74.959,58.876
	c0.71,0.153,1.419,0.227,2.118,0.227c4.609,0,8.755-3.206,9.766-7.895c1.164-5.398-2.269-10.719-7.667-11.883
	c-34.842-7.513-59.175-23.684-59.175-39.325c0-14.263,20.208-28.947,50.169-37.126v37.126c0,5.522,4.477,10,10,10h89.662
	c5.523,0,10-4.478,10-10v-37.124c30.02,8.184,50.169,22.784,50.169,37.124c0,15.686-23.376,31.4-58.168,39.104
	c-5.392,1.194-8.795,6.533-7.602,11.926c1.033,4.664,5.167,7.84,9.754,7.84c0.716,0,1.443-0.077,2.171-0.238
	c45.548-10.087,73.844-32.553,73.844-58.632c0-8.508-2.976-16.6-8.542-24h54.543c5.523,0,10-4.478,10-10v-38.364
	c32.598,7.867,55,23.348,55,38.364c0,11.611-13.192,23.678-35.288,32.276c-5.147,2.003-7.696,7.799-5.693,12.946
	c1.54,3.955,5.318,6.376,9.322,6.376c1.206,0,2.433-0.22,3.624-0.684c30.527-11.88,48.035-30.438,48.035-50.915
	C512.002,387.638,483.267,365.083,437.002,355.118z M391.735,200.845L387,206.519l-4.731-5.672l4.734-18.952L391.735,200.845z
	 M386.999,126.722l-8.544-8.259c0.317-0.796,0.605-1.606,0.833-2.441c2.515,0.391,5.091,0.597,7.714,0.597
	c2.626,0,5.205-0.206,7.723-0.598c0.227,0.832,0.515,1.64,0.83,2.434L386.999,126.722z M387.002,20.001
	c16.418,0,29.798,13.258,29.998,29.629h-9.555c-10.069,0-19.553-4.426-26.02-12.144c-1.958-2.337-4.792-3.578-7.67-3.578
	c-1.731,0-3.479,0.449-5.06,1.378l-10.443,6.136C361.95,29.047,373.439,20.001,387.002,20.001z M357.002,65.353l15.124-8.885
	c9.734,8.445,22.214,13.162,35.319,13.162h9.406c-1.515,15.134-14.323,26.99-29.849,26.99c-16.542,0-30-13.458-30-30V65.353z
	 M338.867,136.855l22.229-4.109c0.911-0.168,1.793-0.407,2.66-0.676l12.147,11.741l-14.269,57.116
	c-0.774,3.098-0.022,6.378,2.023,8.83l15.663,18.776c1.899,2.277,4.712,3.594,7.678,3.594c0,0,0,0,0.001,0
	c2.965,0,5.778-1.316,7.678-3.593l15.67-18.775c2.046-2.452,2.798-5.733,2.024-8.831l-14.266-57.127l12.145-11.734
	c0.87,0.27,1.755,0.509,2.669,0.678l22.219,4.108c12.669,2.342,21.864,13.394,21.864,26.277v112.869h-10.169v-97
	c0-5.523-4.477-10-10-10s-10,4.477-10,10v67h-79.831c-0.338,0-0.672,0.018-1.001,0.051v-48.919c0-18.718-11.106-35.214-27.568-42.61
	C321.523,145.447,329.32,138.62,338.867,136.855z M221.17,280.001v-64.623v-2.376c0-5.523-4.477-10-10-10s-10,4.477-10,10v2.376
	v74.623v10.333h-15.169V197.132c0-12.884,9.195-23.935,21.864-26.277l22.219-4.108c0.914-0.169,1.799-0.408,2.669-0.678
	l12.145,11.734l-14.266,57.128c-0.773,3.098-0.021,6.379,2.024,8.831l15.67,18.775c1.9,2.277,4.713,3.593,7.679,3.593
	c2.966,0,5.778-1.317,7.678-3.594l15.663-18.776c2.045-2.452,2.797-5.732,2.023-8.83L267.1,177.812l12.147-11.742
	c0.867,0.269,1.749,0.507,2.661,0.676l22.228,4.109c12.669,2.342,21.865,13.393,21.865,26.277v103.201h-15.169V290v-74.623v-2.376
	c0-5.523-4.477-10-10-10s-10,4.477-10,10v2.376V280H221.17V280.001z M155,266.001v138h-20v-138H155z M175,320.283
	c0.329,0.033,0.663,0.051,1.001,0.051h25.169v42.462c-8.021-3.074-16.774-5.639-26.17-7.662L175,320.283L175,320.283z M256,215.895
	l4.735,18.952l-4.731,5.672l-4.735-5.674L256,215.895z M263.715,150.023c0.228,0.835,0.517,1.644,0.833,2.441l-8.544,8.259
	l-8.557-8.267c0.315-0.794,0.603-1.602,0.83-2.434c2.518,0.392,5.097,0.598,7.723,0.598
	C258.624,150.62,261.2,150.414,263.715,150.023z M310.832,320.334h25.169c0.338,0,0.672-0.018,1.001-0.051v34.851
	c-9.396,2.023-18.148,4.588-26.17,7.662V320.334z M357.002,266.001h20v138h-20V266.001z M256.001,130.62
	c-15.526,0-28.334-11.856-29.849-26.99h9.406c13.104,0,25.584-4.717,35.319-13.162l15.124,8.885v1.267
	C286.001,117.162,272.543,130.62,256.001,130.62z M256.001,54.001c13.563,0,25.052,9.046,28.75,21.422l-10.443-6.136
	c-4.212-2.474-9.593-1.544-12.73,2.199c-6.467,7.717-15.951,12.144-26.02,12.144h-9.555
	C226.203,67.259,239.583,54.001,256.001,54.001z M124.999,181.895l4.734,18.952l-4.731,5.672l-4.735-5.674L124.999,181.895z
	 M125.003,126.722l-8.557-8.267c0.315-0.794,0.603-1.602,0.83-2.434c2.518,0.392,5.097,0.598,7.723,0.598
	c2.623,0,5.199-0.206,7.714-0.597c0.228,0.835,0.517,1.644,0.833,2.441L125.003,126.722z M125,96.62
	c-15.526,0-28.334-11.856-29.849-26.99h9.406c13.104,0,25.584-4.717,35.319-13.162L155,65.353v1.267
	C155,83.162,141.542,96.62,125,96.62z M125,20.001c13.563,0,25.052,9.046,28.75,21.422l-10.443-6.136
	c-4.212-2.474-9.593-1.544-12.73,2.199c-6.467,7.717-15.951,12.144-26.02,12.144h-9.555C95.202,33.259,108.582,20.001,125,20.001z
	 M65.169,179.001v97H55V163.132c0-12.884,9.195-23.935,21.864-26.277l22.219-4.108c0.914-0.169,1.799-0.408,2.669-0.678
	l12.145,11.734L99.631,200.93c-0.773,3.098-0.021,6.379,2.024,8.831l15.67,18.775c1.9,2.277,4.713,3.593,7.679,3.593
	s5.778-1.317,7.678-3.594l15.663-18.776c2.045-2.452,2.797-5.732,2.023-8.83L136.1,143.812l12.147-11.741
	c0.867,0.269,1.749,0.507,2.661,0.676l22.228,4.109c9.546,1.765,17.343,8.591,20.433,17.666
	c-16.462,7.396-27.568,23.892-27.568,42.61v48.92c-0.329-0.033-0.663-0.051-1.001-0.051H85.169v-67c0-5.523-4.477-10-10-10
	S65.169,173.479,65.169,179.001z M95,266.001h20v138H95V266.001z M175,398.716v-23.078c9.671,2.32,18.438,5.282,26.17,8.833v5.754
	C191.602,392.53,182.84,395.386,175,398.716z M221.17,310.334v-10.333h24.831v138H221.17V310.334z M290.832,438.001h-24.831v-138
	h24.831v10.333V438.001z M310.832,384.471c7.732-3.551,16.499-6.512,26.17-8.833v23.064c-7.839-3.322-16.598-6.171-26.17-8.473
	V384.471z M397.002,404.001v-138h20v138H397.002z"/>
<path d="M416.853,456.081l-0.61,0.08c-5.478,0.706-9.346,5.719-8.64,11.196c0.65,5.044,4.951,8.723,9.905,8.723
	c0.426,0,0.857-0.027,1.291-0.083l0.616-0.08c5.478-0.708,9.344-5.722,8.636-11.199C427.345,459.24,422.331,455.379,416.853,456.081
	z"/>
<path d="M257.252,491.998c-0.016,0-0.032,0-0.048,0l-1.203,0.003c-5.523,0-10,4.478-10,10s4.477,10,10,10l1.297-0.003
	c5.523-0.026,9.979-4.524,9.953-10.047C267.225,496.444,262.753,491.998,257.252,491.998z"/>
<g>
</g>
<g>
</g>
<g>
</g>
<g>
</g>
<g>
</g>
<g>
</g>
<g>
</g>
<g>
</g>
<g>
</g>
<g>
</g>
<g>
</g>
<g>
</g>
<g>
</g>
<g>
</g>
<g>
</g>
</svg>
