<?xml version="1.0" encoding="iso-8859-1"?>
<!-- Generator: Adobe Illustrator 19.0.0, SVG Export Plug-In . SVG Version: 6.00 Build 0)  -->
<svg version="1.1" id="Capa_1" xmlns="http://www.w3.org/2000/svg" xmlns:xlink="http://www.w3.org/1999/xlink" x="0px" y="0px"
	 viewBox="0 0 512.001 512.001" style="enable-background:new 0 0 512.001 512.001;" xml:space="preserve">
<path style="fill:#FF8C8C;" d="M271.752,431.843v3.858c0,7.059,5.037,13.113,11.978,14.396l17.351,3.208
	c16.831,3.112,29.046,17.791,29.046,34.907v13.789h-148v-13.79c0-17.116,12.214-31.795,29.045-34.907l17.342-3.207
	c6.941-1.283,11.978-7.337,11.978-14.396v-3.859h31.26V431.843z"/>
<path style="fill:#FFB487;" d="M256.138,475.514l22.147-27.637c-3.973-2.648-6.532-7.152-6.532-12.176v-3.858h-31.26v3.859
	c0,5.017-2.553,9.517-6.518,12.167L256.138,475.514z"/>
<path style="fill:#BEBEBE;" d="M256.127,332.964L256.127,332.964c-21.164,0-38.321,17.157-38.321,38.321v9.225h18.737
	c12.455,0,24.271-5.515,32.271-15.061l0,0l25.636,15.061v-9.225C294.448,350.121,277.291,332.964,256.127,332.964z"/>
<path style="fill:#FFCDAC;" d="M260.558,372.979c-6.981,4.849-15.342,7.531-24.016,7.531h-18.737v16.277
	c0,21.164,17.157,38.322,38.321,38.322l0,0c21.164,0,38.321-17.157,38.321-38.322V380.51l-12.818-7.531l-12.818-7.53
	L260.558,372.979z"/>
<path style="fill:#78D2FA;" d="M443.625,270.361v3.858c0,7.059,5.037,13.113,11.979,14.396l17.351,3.208
	C489.786,294.935,502,309.614,502,326.731v13.789H354v-13.79c0-17.116,12.214-31.795,29.045-34.907l17.342-3.207
	c6.941-1.283,11.978-7.337,11.978-14.396v-3.859H443.625z"/>
<path style="fill:#FFB487;" d="M428.011,314.032l22.147-27.637c-3.973-2.648-6.532-7.152-6.532-12.176v-3.858h-31.26v3.859
	c0,5.017-2.553,9.517-6.518,12.167L428.011,314.032z"/>
<path style="fill:#F5B955;" d="M428,171.482L428,171.482c-21.164,0-38.321,17.157-38.321,38.321v9.225h18.737
	c12.455,0,24.271-5.515,32.271-15.061l0,0l25.636,15.061v-9.225C466.321,188.639,449.164,171.482,428,171.482z"/>
<path style="fill:#FFCDAC;" d="M432.432,211.498c-6.981,4.849-15.342,7.531-24.016,7.531h-18.737v16.277
	c0,21.164,17.157,38.322,38.321,38.322l0,0c21.164,0,38.321-17.157,38.321-38.322v-16.277l-12.818-7.531l-12.818-7.53
	L432.432,211.498z"/>
<path style="fill:#F5B955;" d="M99.625,270.361v3.858c0,7.059,5.037,13.113,11.978,14.396l17.351,3.208
	C145.786,294.935,158,309.614,158,326.731v13.789H10v-13.79c0-17.116,12.214-31.795,29.045-34.907l17.342-3.207
	c6.941-1.283,11.978-7.337,11.978-14.396v-3.859H99.625z"/>
<path style="fill:#FFB487;" d="M84.011,314.032l22.147-27.637c-3.973-2.648-6.532-7.152-6.532-12.176v-3.858h-31.26v3.859
	c0,5.017-2.553,9.517-6.518,12.167L84.011,314.032z"/>
<path style="fill:#FF8C8C;" d="M84,171.482L84,171.482c-21.164,0-38.321,17.157-38.321,38.321v9.225h18.737
	c12.455,0,24.271-5.515,32.271-15.061l0,0l25.636,15.061v-9.225C122.321,188.639,105.164,171.482,84,171.482z"/>
<path style="fill:#FFCDAC;" d="M88.432,211.498c-6.981,4.849-15.342,7.531-24.016,7.531H45.679v16.277
	c0,21.164,17.157,38.322,38.321,38.322l0,0c21.164,0,38.321-17.157,38.321-38.322v-16.277l-12.818-7.531l-12.818-7.53
	L88.432,211.498z"/>
<path style="fill:#D7FA91;" d="M271.752,108.88v3.858c0,7.059,5.037,13.113,11.978,14.396l17.351,3.208
	c16.831,3.112,29.046,17.791,29.046,34.907v13.789h-148v-13.79c0-17.116,12.214-31.795,29.045-34.907l17.342-3.207
	c6.941-1.283,11.978-7.337,11.978-14.396v-3.859L271.752,108.88L271.752,108.88z"/>
<path style="fill:#FFB487;" d="M256.138,152.551l22.147-27.637c-3.973-2.648-6.532-7.152-6.532-12.176v-3.858h-31.26v3.859
	c0,5.017-2.553,9.517-6.518,12.167L256.138,152.551z"/>
<path style="fill:#BEBEBE;" d="M256.127,10.001L256.127,10.001c-21.164,0-38.321,17.157-38.321,38.321v9.225h18.737
	c12.455,0,24.271-5.515,32.271-15.061l0,0l25.636,15.061v-9.225C294.448,27.158,277.291,10.001,256.127,10.001z"/>
<path style="fill:#FFCDAC;" d="M260.558,50.017c-6.981,4.849-15.342,7.531-24.016,7.531h-18.737v16.277
	c0,21.164,17.157,38.322,38.321,38.322l0,0c21.164,0,38.321-17.157,38.321-38.322V57.547l-12.818-7.531l-12.818-7.53L260.558,50.017
	z"/>
<path d="M168,340.52v-13.789c0-21.937-15.657-40.753-37.227-44.74l-17.351-3.208c-1.473-0.272-2.849-1.403-3.425-2.776
	c13.411-8.596,22.325-23.622,22.325-40.701v-25.501c0-26.645-21.677-48.321-48.321-48.321S35.68,183.161,35.68,209.805v25.501
	c0,17.075,8.91,32.099,22.317,40.696c-0.266,0.636-0.665,1.204-1.173,1.662c-0.373,0.215-0.737,0.453-1.088,0.721
	c-0.366,0.177-0.75,0.323-1.165,0.4l-17.343,3.206C15.656,285.978,0,304.794,0,326.73v13.79c0,5.522,4.477,10,10,10h148
	C163.523,350.52,168,346.042,168,340.52z M76.706,283.076c2.379,0.362,4.815,0.551,7.294,0.551c2.476,0,4.908-0.189,7.285-0.55
	c0.492,1.275,1.083,2.502,1.772,3.668l-9.054,11.298l-9.064-11.306C75.627,285.573,76.216,284.349,76.706,283.076z M84,181.482
	c12.421,0,23,8.037,26.81,19.185l-9.058-5.322c-4.213-2.474-9.594-1.544-12.73,2.199c-6.116,7.298-15.085,11.484-24.606,11.484
	H55.69C56.102,193.77,68.643,181.482,84,181.482z M55.679,229.029h8.736c12.554,0,24.515-4.483,33.884-12.516l14.022,8.239v10.553
	c0,15.617-12.705,28.322-28.321,28.322s-28.321-12.705-28.321-28.322V229.029z M148,330.52H20v-3.79
	c0-12.293,8.774-22.839,20.862-25.074l17.344-3.206c0.14-0.026,0.273-0.067,0.412-0.095l17.584,21.933
	c1.898,2.368,4.769,3.745,7.803,3.745s5.905-1.379,7.802-3.746l17.575-21.931c0.136,0.028,0.266,0.068,0.403,0.093l17.351,3.208
	c12.089,2.235,20.863,12.78,20.863,25.074L148,330.52L148,330.52z"/>
<path d="M230.123,114.52c-0.577,1.381-1.949,2.507-3.427,2.781l-17.343,3.207c-21.57,3.988-37.226,22.805-37.226,44.741v13.79
	c0,5.523,4.477,10,10,10h148c5.523,0,10-4.477,10-10v-13.79c0-21.936-15.656-40.752-37.228-44.741l-17.351-3.208
	c-1.474-0.273-2.849-1.402-3.425-2.776c13.411-8.596,22.325-23.622,22.325-40.7V48.322c0-26.644-21.677-48.321-48.321-48.321
	s-48.321,21.677-48.321,48.321v1.695v23.807C207.806,90.899,216.716,105.923,230.123,114.52
	C229.857,115.156,216.716,105.923,230.123,114.52z M263.412,121.596c0.492,1.275,1.083,2.502,1.772,3.668l-9.054,11.298
	l-9.064-11.306c0.688-1.164,1.277-2.389,1.768-3.661c2.379,0.362,4.815,0.551,7.293,0.551
	C258.603,122.146,261.035,121.957,263.412,121.596z M320.127,165.249v3.79h-128v-3.79c0-12.294,8.774-22.839,20.863-25.074
	l17.342-3.207c0.14-0.026,0.274-0.067,0.413-0.095l17.584,21.934c1.898,2.368,4.769,3.746,7.803,3.745
	c3.034-0.001,5.905-1.378,7.803-3.747l17.574-21.93c0.136,0.027,0.267,0.068,0.404,0.093l17.351,3.208
	C311.353,142.41,320.127,152.956,320.127,165.249z M256.127,102.146c-15.616,0-28.321-12.705-28.321-28.321v-6.277h8.736
	c12.554,0,24.515-4.483,33.884-12.516l14.022,8.239v10.554C284.448,89.44,271.743,102.146,256.127,102.146z M256.127,20.001
	c12.421,0,23,8.037,26.81,19.185l-9.058-5.322c-4.212-2.474-9.594-1.545-12.73,2.199c-6.116,7.298-15.085,11.484-24.606,11.484
	h-8.726C228.229,32.288,240.77,20.001,256.127,20.001z"/>
<path d="M302.9,443.472l-17.351-3.208c-1.473-0.272-2.849-1.402-3.425-2.776c13.411-8.596,22.325-23.622,22.325-40.7v-25.502
	c0-26.645-21.677-48.321-48.321-48.321s-48.321,21.677-48.321,48.321v25.502c0,17.075,8.91,32.099,22.317,40.696
	c-0.578,1.382-1.948,2.507-3.427,2.781l-17.343,3.207c-21.57,3.988-37.226,22.805-37.226,44.74v13.789c0,5.522,4.477,10,10,10h148
	c5.523,0,10-4.478,10-10v-13.789C340.127,466.275,324.47,447.459,302.9,443.472z M248.834,444.558
	c2.379,0.362,4.815,0.551,7.293,0.551c2.476,0,4.908-0.189,7.285-0.55c0.492,1.275,1.083,2.502,1.772,3.668l-9.054,11.298
	l-9.064-11.306C247.754,447.055,248.343,445.83,248.834,444.558z M256.127,342.964c12.421,0,23,8.037,26.81,19.185l-9.058-5.321
	c-4.212-2.476-9.594-1.544-12.73,2.199c-6.116,7.298-15.085,11.483-24.606,11.483h-8.726
	C228.229,355.25,240.77,342.964,256.127,342.964z M227.806,390.51h8.736c12.554,0,24.515-4.482,33.883-12.516l14.023,8.239v10.554
	c0,15.616-12.705,28.321-28.321,28.321s-28.321-12.705-28.321-28.321L227.806,390.51L227.806,390.51z M320.127,492.001h-128v-3.79
	c0-12.293,8.774-22.839,20.863-25.074l17.342-3.207c0.14-0.026,0.273-0.067,0.413-0.095l17.585,21.934
	c1.898,2.368,4.769,3.745,7.803,3.745c3.034,0,5.905-1.379,7.802-3.746l17.575-21.931c0.136,0.028,0.266,0.068,0.403,0.093
	l17.351,3.208c12.089,2.235,20.863,12.78,20.863,25.074L320.127,492.001L320.127,492.001z"/>
<path d="M474.773,281.99l-17.351-3.208c-1.473-0.272-2.849-1.403-3.425-2.776c13.411-8.596,22.325-23.622,22.325-40.701v-25.501
	c0-26.645-21.677-48.321-48.321-48.321s-48.321,21.677-48.321,48.321v25.501c0,17.075,8.91,32.099,22.317,40.696
	c-0.577,1.381-1.948,2.508-3.427,2.782l-17.343,3.206c-21.57,3.988-37.226,22.805-37.226,44.74v13.79c0,5.522,4.477,10,10,10h148
	c5.523,0,10-4.478,10-10V326.73C512,304.794,496.343,285.978,474.773,281.99z M420.706,283.076c2.379,0.362,4.815,0.551,7.294,0.551
	c2.476,0,4.908-0.189,7.285-0.55c0.492,1.275,1.083,2.502,1.772,3.668l-9.054,11.298l-9.064-11.306
	C419.627,285.573,420.216,284.349,420.706,283.076z M428,181.482c12.421,0,23,8.037,26.81,19.185l-9.058-5.322
	c-4.212-2.474-9.594-1.544-12.73,2.199c-6.116,7.298-15.085,11.484-24.606,11.484h-8.726
	C400.102,193.77,412.643,181.482,428,181.482z M399.679,229.029h8.736c12.554,0,24.515-4.483,33.884-12.516l14.022,8.239v10.553
	c0,15.617-12.705,28.322-28.321,28.322s-28.321-12.705-28.321-28.322L399.679,229.029L399.679,229.029z M492,330.52H364v-3.79
	c0-12.293,8.774-22.839,20.862-25.074l17.344-3.206c0.14-0.026,0.273-0.067,0.412-0.095l17.584,21.933
	c1.898,2.368,4.769,3.745,7.803,3.745s5.905-1.379,7.802-3.746l17.575-21.931c0.136,0.028,0.266,0.068,0.403,0.093l17.351,3.208
	c12.089,2.235,20.863,12.78,20.863,25.074L492,330.52L492,330.52z"/>
<path d="M414.358,365.056c-4.377-3.368-10.656-2.549-14.023,1.829l-0.232,0.3c-3.391,4.359-2.605,10.643,1.754,14.033
	c1.825,1.42,3.986,2.106,6.132,2.106c2.98,0,5.929-1.326,7.9-3.86l0.298-0.386C419.554,374.701,418.735,368.423,414.358,365.056z"/>
<path d="M377.548,391.466c-12.982,11.657-27.519,21.367-43.204,28.859c-4.983,2.38-7.094,8.35-4.713,13.334
	c1.716,3.593,5.298,5.691,9.03,5.691c1.445,0,2.913-0.314,4.303-0.979c17.41-8.315,33.541-19.091,47.946-32.025
	c4.109-3.689,4.449-10.013,0.759-14.122C387.98,388.116,381.657,387.775,377.548,391.466z"/>
<path d="M181.769,433.408c2.397-4.976,0.307-10.952-4.668-13.35c-27.062-13.039-50.728-32.815-68.44-57.192
	c-3.246-4.467-9.499-5.459-13.968-2.212c-4.468,3.246-5.458,9.5-2.211,13.968c19.649,27.043,45.909,48.985,75.938,63.454
	c1.399,0.674,2.878,0.993,4.333,0.993C176.474,439.069,180.046,436.984,181.769,433.408z"/>
<path d="M99.742,143.831c1.747,1.421,4.026,2.244,6.371,2.244c2.763,0,5.615-1.145,7.789-3.805c0.019-0.023,0.038-0.046,0.056-0.069
	c3.974-4.954,2.397-11.097-1.421-14.174c-3.819-3.077-10.156-3.312-14.153,1.624C94.388,134.585,95.936,140.736,99.742,143.831z"/>
<path d="M134.57,117.274c2.226,0,4.465-0.74,6.323-2.258c12.952-10.587,27.265-19.327,42.541-25.977
	c5.064-2.204,7.382-8.096,5.178-13.16c-2.204-5.064-8.099-7.384-13.16-5.178c-16.959,7.381-32.846,17.082-47.218,28.83
	c-4.276,3.495-4.909,9.795-1.413,14.071C128.799,116.022,131.673,117.274,134.57,117.274z"/>
<path d="M321.753,86.239c33.586,13.018,62.346,35.535,83.172,65.115c1.947,2.766,5.042,4.244,8.186,4.244
	c1.989,0,3.998-0.592,5.748-1.824c4.516-3.179,5.599-9.417,2.42-13.934c-23.104-32.817-55.021-57.8-92.297-72.25
	c-5.151-1.996-10.942,0.561-12.938,5.71C314.047,78.45,316.604,84.243,321.753,86.239z"/>
<g>
</g>
<g>
</g>
<g>
</g>
<g>
</g>
<g>
</g>
<g>
</g>
<g>
</g>
<g>
</g>
<g>
</g>
<g>
</g>
<g>
</g>
<g>
</g>
<g>
</g>
<g>
</g>
<g>
</g>
</svg>
