<?xml version="1.0" encoding="iso-8859-1"?>
<!-- Generator: Adobe Illustrator 19.0.0, SVG Export Plug-In . SVG Version: 6.00 Build 0)  -->
<svg version="1.1" id="Capa_1" xmlns="http://www.w3.org/2000/svg" xmlns:xlink="http://www.w3.org/1999/xlink" x="0px" y="0px"
	 viewBox="0 0 512.001 512.001" style="enable-background:new 0 0 512.001 512.001;" xml:space="preserve">
<circle style="fill:#F0F0FA;" cx="256.121" cy="256" r="140"/>
<path style="fill:#7D9BFF;" d="M362.205,347.359v-5.312c0-16.164-11.534-30.026-27.429-32.964l-16.385-3.029
	c-6.555-1.212-11.312-6.929-11.312-13.595v-3.643h-29.52v3.644c0,6.666-4.757,12.383-11.312,13.594l-16.377,3.028
	c-15.894,2.939-27.428,16.801-27.428,32.964v5.313c18.095,20.992,42.318,36.544,69.888,43.904
	C319.896,383.903,344.113,368.348,362.205,347.359z"/>
<path style="fill:#78D2FA;" d="M262.376,309.082l-16.385-3.029c-6.555-1.212-11.312-6.929-11.312-13.595v-3.643h-29.52v3.644
	c0,6.666-4.757,12.383-11.312,13.594l-16.377,3.028c-15.894,2.939-27.428,16.801-27.428,32.964v5.313
	C175.716,377.143,213.717,396,256.124,396c11.613,0,22.891-1.424,33.681-4.089v-49.865
	C289.805,325.883,278.271,312.021,262.376,309.082z"/>
<g>
	<path style="fill:#FFCDAC;" d="M219.935,337.432l20.922-33.47c-3.757-2.5-6.177-6.756-6.177-11.504v-3.643h-29.52v3.644
		c0,4.741-2.414,8.992-6.162,11.494L219.935,337.432z"/>
	<path style="fill:#FFCDAC;" d="M255.948,230.581v24.856c0,19.895-16.128,36.024-36.024,36.024l0,0l0,0
		c-19.895,0-36.024-16.128-36.024-36.024v-24.856H255.948z"/>
</g>
<path style="fill:#F5B955;" d="M219.924,195.44L219.924,195.44c-19.896,0-36.024,16.128-36.024,36.024v8.672h17.613
	c11.708,0,22.816-5.184,30.336-14.158l0,0l24.099,14.158v-8.672C255.948,211.568,239.819,195.44,219.924,195.44z"/>
<path style="fill:#FFCDAC;" d="M318.513,230.581v24.856c0,19.895-16.128,36.024-36.024,36.024l0,0l0,0
	c-19.895,0-36.024-16.128-36.024-36.024v-24.856H318.513z"/>
<path style="fill:#878791;" d="M282.489,195.44L282.489,195.44c-19.896,0-36.024,16.128-36.024,36.024v8.672h17.613
	c11.708,0,22.816-5.184,30.336-14.158l0,0l24.099,14.158v-8.672C318.513,211.568,302.384,195.44,282.489,195.44z"/>
<circle style="fill:#F5C86E;" cx="256.121" cy="77.3" r="68"/>
<circle style="fill:#A5DC69;" cx="78.121" cy="434" r="68"/>
<circle style="fill:#FF8C8C;" cx="433.881" cy="433.3" r="68"/>
<path d="M233.994,76.01c2.63,0,5.21-1.07,7.069-2.93c1.86-1.87,2.931-4.44,2.931-7.07s-1.07-5.21-2.931-7.07
	c-1.859-1.87-4.43-2.93-7.069-2.93c-2.63,0-5.21,1.06-7.07,2.93c-1.86,1.86-2.93,4.43-2.93,7.07c0,2.63,1.069,5.21,2.93,7.07
	C228.784,74.94,231.364,76.01,233.994,76.01z"/>
<path d="M280.174,76.01c2.63,0,5.2-1.07,7.07-2.93c1.859-1.86,2.93-4.44,2.93-7.07s-1.07-5.21-2.93-7.07s-4.44-2.93-7.07-2.93
	c-2.64,0-5.21,1.07-7.07,2.93c-1.859,1.86-2.93,4.44-2.93,7.07c0,2.63,1.07,5.21,2.93,7.07
	C274.964,74.94,277.544,76.01,280.174,76.01z"/>
<path d="M256.124,156c43.01,0,78-34.991,78-78s-34.99-78-78-78s-78,34.991-78,78S213.114,156,256.124,156z M256.124,20
	c31.981,0,58,26.019,58,58s-26.019,58-58,58s-58-26.019-58-58S224.143,20,256.124,20z"/>
<path d="M235.616,91.204c-3.905,3.905-3.905,10.237,0,14.143c5.919,5.918,13.693,8.878,21.468,8.878s15.549-2.959,21.468-8.878
	c3.905-3.905,3.905-10.237,0-14.143c-3.906-3.905-10.236-3.905-14.143,0c-4.039,4.04-10.611,4.04-14.65,0
	C245.853,87.298,239.522,87.298,235.616,91.204z"/>
<path d="M65.994,422.01c0-2.64-1.07-5.21-2.931-7.07c-1.859-1.87-4.439-2.93-7.069-2.93s-5.21,1.06-7.07,2.93
	c-1.86,1.85-2.93,4.43-2.93,7.07c0,2.63,1.069,5.21,2.93,7.07c1.86,1.86,4.44,2.93,7.07,2.93s5.21-1.07,7.069-2.93
	C64.924,427.22,65.994,424.64,65.994,422.01z"/>
<path d="M102.174,412.01c-2.64,0-5.21,1.07-7.07,2.93c-1.87,1.86-2.93,4.43-2.93,7.07c0,2.63,1.06,5.21,2.93,7.07
	c1.86,1.86,4.431,2.93,7.07,2.93c2.63,0,5.21-1.07,7.07-2.93c1.859-1.86,2.93-4.44,2.93-7.07c0-2.64-1.07-5.21-2.93-7.07
	C107.384,413.08,104.804,412.01,102.174,412.01z"/>
<path d="M88.75,442.333H69.417c-5.522,0-10,4.477-10,10c0,10.844,8.822,19.667,19.667,19.667c10.844,0,19.666-8.822,19.666-19.667
	C98.75,446.811,94.272,442.333,88.75,442.333z M78.75,452.333c0-0.184,0.149-0.333,0.334-0.333c0.184,0,0.333,0.149,0.333,0.333
	H78.75z"/>
<path d="M418.824,429.08c1.859-1.86,2.92-4.44,2.92-7.07c0-2.64-1.061-5.21-2.92-7.07c-1.86-1.86-4.44-2.93-7.07-2.93
	c-2.64,0-5.22,1.07-7.08,2.93s-2.92,4.43-2.92,7.07c0,2.63,1.06,5.21,2.92,7.07c1.86,1.86,4.44,2.93,7.08,2.93
	C414.384,432.01,416.964,430.94,418.824,429.08z"/>
<path d="M457.924,412.01c-2.63,0-5.21,1.07-7.07,2.93c-1.859,1.86-2.93,4.44-2.93,7.07s1.07,5.21,2.93,7.07
	c1.86,1.86,4.44,2.93,7.07,2.93s5.21-1.07,7.07-2.93c1.87-1.87,2.93-4.44,2.93-7.07s-1.06-5.21-2.93-7.07
	C463.134,413.08,460.554,412.01,457.924,412.01z"/>
<path d="M433.878,356c-17.844,0-34.297,6.037-47.454,16.157l-17.451-17.451c23.118-26.398,37.151-60.942,37.151-98.706
	c0-32.021-9.951-62.574-28.778-88.358c-3.256-4.46-9.511-5.436-13.974-2.179c-4.46,3.257-5.436,9.513-2.179,13.973
	c16.31,22.337,24.931,48.813,24.931,76.564c0,25.385-7.32,49.089-19.951,69.126c-5.259-13.394-17.114-23.641-31.969-26.388
	l-15.972-2.953c-1.649-0.305-2.846-1.743-2.846-3.419v-3.552c0-0.288-0.019-0.571-0.043-0.853
	c8.139-8.331,13.169-19.712,13.169-32.252v-24.083c0-25.468-20.72-46.188-46.188-46.188c-11.67,0-22.769,4.433-31.204,12.162
	c-8.225-7.547-19.18-12.162-31.196-12.162c-25.469,0-46.188,20.72-46.188,46.188v1.601v22.482c0,16.147,8.335,30.377,20.923,38.636
	c-0.195,0.344-1.504,1.4-1.741,1.579c-0.281,0.128-0.573,0.236-0.888,0.294l-16.377,3.028c-13.844,2.56-25.132,11.51-31.068,23.457
	c-11.714-19.514-18.46-42.335-18.46-66.705c0-25.267,7.253-49.761,20.976-70.833c3.014-4.628,1.705-10.823-2.923-13.837
	c-4.63-3.016-10.823-1.705-13.837,2.923c-15.842,24.328-24.216,52.596-24.216,81.747c0,37.764,14.033,72.308,37.151,98.706
	l-17.559,17.559C112.536,362.081,96.031,356,78.124,356c-43.01,0-78,34.991-78,78s34.99,78,78,78s78-34.991,78-78
	c0-17.907-6.081-34.412-16.265-47.592l17.559-17.559C183.816,391.967,218.36,406,256.124,406s72.308-14.033,98.706-37.151
	l17.421,17.422c-10.249,13.203-16.374,29.76-16.374,47.73c0,43.009,34.99,78,78,78s78-34.991,78-78S476.888,356,433.878,356z
	 M330.568,318.405c10.752,1.987,18.556,11.366,18.556,22.301v6.029c-13.687,14.025-30.506,24.975-49.319,31.707v-36.395
	c0-17.245-10.12-32.467-25.178-39.464l0.827-1.22c2.259,0.34,4.551,0.535,6.871,0.535c4.968,0,9.75-0.798,14.238-2.256
	c2.61,7.994,9.392,14.212,18.033,15.81L330.568,318.405z M247.809,296.22c-0.304-0.056-2.434-1.531-2.626-1.869
	c2.104-1.38,4.091-2.92,5.938-4.615c1.651,1.513,3.395,2.908,5.234,4.159l-2.352,3.47L247.809,296.22z M213.386,301.427
	c2.137,0.304,4.318,0.471,6.538,0.471c2.217,0,4.395-0.167,6.529-0.47c0.523,1.285,1.155,2.514,1.887,3.68l-8.414,13.461
	l-8.422-13.468C212.234,303.938,212.864,302.71,213.386,301.427z M282.324,281.898c-7.538,0-14.664-3.255-19.608-8.833
	c2.183-5.362,3.396-11.218,3.396-17.355v-5.424c11.018-0.501,21.446-4.616,29.773-11.642l12.627,7.418v9.647
	C308.513,270.15,296.765,281.898,282.324,281.898z M282.324,205.44c10.938,0,20.331,6.74,24.244,16.285l-7.199-4.229
	c-4.21-2.475-9.594-1.544-12.73,2.2c-5.184,6.187-12.583,9.951-20.562,10.55c-0.167-5.634-1.343-11.016-3.361-15.973
	C267.661,208.695,274.787,205.44,282.324,205.44z M219.924,205.44c10.938,0,20.331,6.74,24.244,16.285l-7.199-4.229
	c-4.21-2.475-9.593-1.545-12.73,2.199c-5.669,6.765-13.983,10.646-22.81,10.646h-7.662
	C194.44,216.496,205.915,205.44,219.924,205.44z M193.735,250.34h7.693c11.854,0,23.156-4.186,32.057-11.695l12.627,7.418v9.648
	c0,14.44-11.748,26.188-26.188,26.188s-26.188-11.748-26.188-26.188L193.735,250.34L193.735,250.34z M78.124,492
	c-31.981,0-58-26.019-58-58s26.019-58,58-58s58,26.019,58,58S110.105,492,78.124,492z M160.043,343.479v-1.433
	c0-11.341,8.094-21.069,19.246-23.131l15.475-2.862l16.685,26.681c1.828,2.923,5.032,4.698,8.479,4.698
	c3.447,0,6.651-1.776,8.479-4.7l16.676-26.678l15.474,2.861c11.152,2.062,19.247,11.79,19.247,23.131v41.785
	c-7.681,1.42-15.595,2.168-23.681,2.168C218.099,386,183.836,369.589,160.043,343.479z M433.878,492c-31.981,0-58-26.019-58-58
	s26.019-58,58-58s58,26.019,58,58S465.859,492,433.878,492z"/>
<path d="M413.37,447.204c-3.905,3.905-3.905,10.237,0,14.142c3.906,3.906,10.236,3.906,14.143,0c4.039-4.039,10.611-4.039,14.65,0
	c1.953,1.953,4.512,2.929,7.071,2.929s5.119-0.977,7.071-2.929c3.905-3.905,3.905-10.237,0-14.142
	C444.468,435.368,425.208,435.368,413.37,447.204z"/>
<path d="M335.518,153.058c0.033,0.026,0.07,0.054,0.101,0.077c1.799,1.349,3.904,2,5.992,2c3.04,0,6.043-1.381,8.008-4
	c3.296-4.394,2.428-10.618-1.929-13.946c-0.033-0.026-0.07-0.054-0.101-0.077c-4.418-3.314-10.687-2.418-14,2
	C330.293,143.506,331.161,149.73,335.518,153.058z"/>
<path d="M168.089,157.148c2.197,0,4.408-0.721,6.255-2.203l0.241-0.195c4.292-3.476,4.953-9.772,1.478-14.064
	c-3.477-4.293-9.773-4.955-14.065-1.478l-0.175,0.141c-4.307,3.458-4.995,9.751-1.537,14.058
	C162.261,155.869,165.161,157.148,168.089,157.148z"/>
<g>
</g>
<g>
</g>
<g>
</g>
<g>
</g>
<g>
</g>
<g>
</g>
<g>
</g>
<g>
</g>
<g>
</g>
<g>
</g>
<g>
</g>
<g>
</g>
<g>
</g>
<g>
</g>
<g>
</g>
</svg>
