<?xml version="1.0" encoding="iso-8859-1"?>
<!-- Generator: Adobe Illustrator 19.0.0, SVG Export Plug-In . SVG Version: 6.00 Build 0)  -->
<svg version="1.1" id="Capa_1" xmlns="http://www.w3.org/2000/svg" xmlns:xlink="http://www.w3.org/1999/xlink" x="0px" y="0px"
	 viewBox="0 0 512 512" style="enable-background:new 0 0 512 512;" xml:space="preserve">
<path style="fill:#FFCDAC;" d="M214.768,118.82v15.695c0,22.516-18.253,40.768-40.768,40.768l0,0l0,0
	c-22.516,0-40.768-18.253-40.768-40.768V118.82H214.768z"/>
<path style="fill:#FF9155;" d="M174,76.249L174,76.249c-22.516,0-40.768,18.253-40.768,40.768v9.814h19.933
	c13.25,0,25.821-5.867,34.331-16.023l0,0l27.272,16.023v-9.814C214.768,94.502,196.516,76.249,174,76.249z"/>
<path style="fill:#FFCDAC;" d="M378.768,118.82v15.695c0,22.516-18.253,40.768-40.768,40.768l0,0l0,0
	c-22.516,0-40.768-18.253-40.768-40.768V118.82H378.768z"/>
<path style="fill:#878791;" d="M338,76.249L338,76.249c-22.516,0-40.768,18.253-40.768,40.768v9.814h19.933
	c13.25,0,25.821-5.867,34.331-16.023l0,0l27.272,16.023v-9.814C378.768,94.502,360.516,76.249,338,76.249z"/>
<path style="fill:#FFCDAC;" d="M132.768,226.264v15.695c0,22.516-18.253,40.768-40.768,40.768l0,0l0,0
	c-22.516,0-40.768-18.253-40.768-40.768v-15.695H132.768z"/>
<path style="fill:#E6AA46;" d="M92,183.693L92,183.693c-22.516,0-40.768,18.253-40.768,40.768v9.814h19.933
	c13.25,0,25.821-5.867,34.331-16.023l0,0l27.272,16.023v-9.814C132.768,201.945,114.516,183.693,92,183.693z"/>
<path style="fill:#78D2FA;" d="M10,435.751v-95.099c0-18.149,12.951-33.714,30.797-37.013l22.775-4.211
	c6.434-1.19,11.103-6.801,11.103-13.344v-6.482h34.64v6.482c0,6.543,4.669,12.155,11.104,13.344l22.784,4.212
	C161.049,306.938,174,322.503,174,340.653v95.098H10z"/>
<g>
	<path style="fill:#FFCDAC;" d="M109.314,286.083v-6.482h-34.64v6.482c0,4.044-1.787,7.728-4.668,10.237l22.011,21.266
		l21.984-21.249C111.109,293.828,109.314,290.136,109.314,286.083z"/>
	<path style="fill:#FFCDAC;" d="M296.768,226.264v15.695c0,22.516-18.253,40.768-40.768,40.768l0,0l0,0
		c-22.516,0-40.768-18.253-40.768-40.768v-15.695H296.768z"/>
</g>
<path style="fill:#BEBEBE;" d="M256,183.693L256,183.693c-22.516,0-40.768,18.253-40.768,40.768v9.814h19.933
	c13.25,0,25.821-5.867,34.331-16.023l0,0l27.272,16.023v-9.814C296.768,201.945,278.516,183.693,256,183.693z"/>
<path style="fill:#FF8C8C;" d="M174,435.751v-95.099c0-18.149,12.951-33.714,30.797-37.013l22.775-4.211
	c6.434-1.19,11.103-6.801,11.103-13.344v-6.482h34.64v6.482c0,6.543,4.669,12.155,11.104,13.344l22.784,4.212
	C325.049,306.938,338,322.503,338,340.653v95.098H174z"/>
<g>
	<path style="fill:#FFCDAC;" d="M273.314,286.083v-6.482h-34.64v6.482c0,4.044-1.787,7.728-4.668,10.237l22.011,21.266
		l21.984-21.249C275.109,293.828,273.314,290.136,273.314,286.083z"/>
	<path style="fill:#FFCDAC;" d="M460.768,226.264v15.695c0,22.516-18.253,40.768-40.768,40.768l0,0l0,0
		c-22.516,0-40.768-18.253-40.768-40.768v-15.695H460.768z"/>
</g>
<path style="fill:#FF8C8C;" d="M420,183.693L420,183.693c-22.516,0-40.768,18.253-40.768,40.768v9.814h19.933
	c13.25,0,25.821-5.867,34.331-16.023l0,0l27.272,16.023v-9.814C460.768,201.945,442.516,183.693,420,183.693z"/>
<path style="fill:#78D2FA;" d="M338,435.751v-95.099c0-18.149,12.951-33.714,30.797-37.013l22.775-4.211
	c6.434-1.19,11.103-6.801,11.103-13.344v-6.482h34.64v6.482c0,6.543,4.669,12.155,11.104,13.344l22.784,4.212
	C489.049,306.938,502,322.503,502,340.653v95.098H338z"/>
<path style="fill:#FFCDAC;" d="M437.314,286.083v-6.482h-34.64v6.482c0,4.044-1.787,7.728-4.668,10.237l22.011,21.266l21.984-21.249
	C439.109,293.828,437.314,290.136,437.314,286.083z"/>
<path d="M473.02,293.713l-22.784-4.212c-1.692-0.313-2.921-1.79-2.921-3.511v-1.32c14.223-9.06,23.686-24.958,23.686-43.035v-17.034
	c0-28.122-22.879-51-51-51s-51,22.878-51,51v17.034c0,18.073,9.458,33.968,23.675,43.029v1.327c0,1.722-1.229,3.198-2.922,3.511
	l-22.774,4.211c-11.862,2.193-22.011,8.674-28.979,17.656c-6.968-8.983-17.117-15.463-28.98-17.656l-22.784-4.212
	c-1.692-0.313-2.921-1.79-2.921-3.511v-1.32c14.223-9.06,23.686-24.958,23.686-43.035v-17.034c0-28.122-22.879-51-51-51
	s-51,22.878-51,51v17.034c0,18.073,9.458,33.968,23.675,43.029v1.327c0,1.722-1.229,3.198-2.922,3.511l-22.774,4.211
	c-11.862,2.193-22.011,8.674-28.979,17.656c-6.968-8.983-17.117-15.463-28.98-17.656l-22.784-4.212
	c-1.692-0.313-2.921-1.79-2.921-3.511v-1.32c14.223-9.06,23.686-24.958,23.686-43.035v-17.034c0-28.122-22.879-51-51-51
	s-51,22.878-51,51v17.034c0,18.073,9.458,33.968,23.675,43.029v1.327c0,1.722-1.229,3.198-2.922,3.511l-22.774,4.211
	C16.393,297.889,0,317.591,0,340.56v95.191c0,5.523,4.478,10,10,10h492c5.522,0,10-4.477,10-10v-95.19
	C512,317.591,495.606,297.889,473.02,293.713z M420.003,303.587l-9.067-8.76c0.375-0.924,0.703-1.869,0.959-2.844
	c2.641,0.424,5.347,0.651,8.105,0.651c2.755,0,5.457-0.227,8.094-0.649c0.257,0.977,0.587,1.925,0.963,2.851L420.003,303.587z
	 M420,272.635c-16.137,0-29.427-12.396-30.865-28.164h9.911c13.432,0,26.222-4.857,36.174-13.548l15.78,9.271v1.441
	C451,258.728,437.094,272.635,420,272.635z M420,193.601c14.234,0,26.26,9.644,29.883,22.741l-11.245-6.606
	c-4.21-2.475-9.593-1.544-12.73,2.199c-6.676,7.967-16.467,12.537-26.861,12.537H389C389.071,207.438,402.95,193.601,420,193.601z
	 M256.003,303.587l-9.067-8.76c0.375-0.924,0.703-1.869,0.959-2.844c2.641,0.424,5.347,0.651,8.105,0.651
	c2.755,0,5.457-0.227,8.094-0.649c0.257,0.977,0.587,1.925,0.963,2.851L256.003,303.587z M256,272.635
	c-16.137,0-29.427-12.396-30.865-28.164h9.911c13.432,0,26.222-4.857,36.174-13.548l15.78,9.271v1.441
	C287,258.728,273.094,272.635,256,272.635z M256,193.601c14.234,0,26.26,9.644,29.883,22.741l-11.245-6.606
	c-4.211-2.475-9.593-1.544-12.73,2.199c-6.676,7.967-16.467,12.537-26.861,12.537H225C225.071,207.438,238.95,193.601,256,193.601z
	 M92.003,303.587l-9.067-8.76c0.375-0.924,0.703-1.869,0.959-2.844c2.641,0.424,5.347,0.651,8.105,0.651
	c2.755,0,5.457-0.227,8.094-0.649c0.257,0.977,0.587,1.925,0.963,2.851L92.003,303.587z M92,272.635
	c-16.137,0-29.427-12.396-30.865-28.164h9.911c13.432,0,26.222-4.857,36.174-13.548l15.78,9.271v1.441
	C123,258.728,109.094,272.635,92,272.635z M92,193.601c14.234,0,26.26,9.644,29.883,22.741l-11.245-6.606
	c-4.211-2.475-9.593-1.544-12.73,2.199c-6.676,7.967-16.467,12.537-26.861,12.537H61C61.071,207.438,74.95,193.601,92,193.601z
	 M147.952,425.751v-66.489v-2.436c0-5.523-4.478-10-10-10s-10,4.477-10,10v2.436v66.489H56.048v-66.489v-2.436
	c0-5.523-4.478-10-10-10s-10,4.477-10,10v2.436v66.489H20V340.56c0-13.326,9.511-24.757,22.615-27.18l22.774-4.211
	c0.977-0.181,1.92-0.44,2.846-0.734l13.768,13.302v30.391c0,5.523,4.478,10,10,10s10-4.477,10-10v-30.393l13.759-13.298
	c0.924,0.293,1.865,0.551,2.838,0.731l22.783,4.212c13.104,2.422,22.616,13.854,22.616,27.18v85.19h-12.715h-3.332V425.751z
	 M311.952,425.751v-66.489v-2.436c0-5.523-4.478-10-10-10s-10,4.477-10,10v2.436v66.489h-71.904v-66.489v-2.436
	c0-5.523-4.478-10-10-10s-10,4.477-10,10v2.436v66.489H184v-85.19v-0.001c0-13.326,9.511-24.757,22.615-27.18l22.774-4.211
	c0.977-0.181,1.92-0.44,2.846-0.734L246,321.733v30.395c0,5.523,4.478,10,10,10s10-4.477,10-10v-30.389l13.762-13.302
	c0.924,0.293,1.865,0.551,2.838,0.731l22.783,4.212c13.104,2.422,22.616,13.854,22.616,27.18v85.19h-12.715h-3.332V425.751z
	 M475.952,425.751v-66.489v-2.436c0-5.523-4.478-10-10-10s-10,4.477-10,10v2.436v66.489h-71.904v-66.489v-2.436
	c0-5.523-4.478-10-10-10s-10,4.477-10,10v2.436v66.489h-4.298H348v-85.19v-0.001c0-13.326,9.511-24.757,22.615-27.18l22.774-4.211
	c0.977-0.181,1.92-0.44,2.846-0.734l16.24,15.69v28.003c0,5.523,4.478,10,10,10s10-4.477,10-10v-32.782l11.287-10.909
	c0.924,0.293,1.865,0.551,2.838,0.731l22.783,4.212c13.104,2.422,22.616,13.854,22.616,27.18v85.19h-6.798h-9.249V425.751z"/>
<path d="M174,185.283c28.121,0,51-22.878,51-51v-17.034c0-28.122-22.879-51-51-51s-51,22.878-51,51v17.034
	C123,162.405,145.879,185.283,174,185.283z M174,165.283c-16.137,0-29.427-12.396-30.865-28.164h9.911
	c13.432,0,26.222-4.857,36.174-13.548l15.78,9.271v1.441C205,151.376,191.094,165.283,174,165.283z M174,86.249
	c14.234,0,26.26,9.644,29.883,22.741l-11.245-6.606c-4.211-2.474-9.593-1.544-12.73,2.199c-6.676,7.967-16.467,12.537-26.861,12.537
	H143C143.071,100.086,156.95,86.249,174,86.249z"/>
<path d="M338,185.283c28.121,0,51-22.878,51-51v-17.034c0-28.122-22.879-51-51-51s-51,22.878-51,51v17.034
	C287,162.405,309.879,185.283,338,185.283z M338,165.283c-16.137,0-29.427-12.396-30.865-28.164h9.911
	c13.432,0,26.222-4.857,36.174-13.548l15.78,9.271v1.441C369,151.376,355.094,165.283,338,165.283z M338,86.249
	c14.234,0,26.26,9.644,29.883,22.741l-11.245-6.606c-4.21-2.474-9.593-1.544-12.73,2.199c-6.676,7.967-16.467,12.537-26.861,12.537
	H307C307.071,100.086,320.95,86.249,338,86.249z"/>
<path d="M184,212.036c0-5.523-4.478-10-10-10s-10,4.477-10,10v34.715c0,5.523,4.478,10,10,10s10-4.477,10-10V212.036z"/>
<path d="M174,268.701c-2.63,0-5.21,1.06-7.07,2.93c-1.86,1.86-2.93,4.44-2.93,7.07s1.069,5.21,2.93,7.07
	c1.86,1.86,4.44,2.93,7.07,2.93s5.21-1.07,7.069-2.93c1.86-1.86,2.931-4.44,2.931-7.07s-1.07-5.21-2.931-7.07
	C179.21,269.761,176.63,268.701,174,268.701z"/>
<path d="M328,243.983v34.715c0,5.523,4.478,10,10,10s10-4.477,10-10v-34.715c0-5.523-4.478-10-10-10S328,238.46,328,243.983z"/>
<path d="M345.069,204.961c-1.859-1.86-4.439-2.92-7.069-2.92s-5.21,1.06-7.07,2.92c-1.86,1.87-2.93,4.44-2.93,7.07
	c0,2.64,1.069,5.22,2.93,7.07c1.86,1.87,4.44,2.93,7.07,2.93s5.21-1.06,7.069-2.93c1.86-1.86,2.931-4.43,2.931-7.07
	C348,209.401,346.93,206.831,345.069,204.961z"/>
<g>
</g>
<g>
</g>
<g>
</g>
<g>
</g>
<g>
</g>
<g>
</g>
<g>
</g>
<g>
</g>
<g>
</g>
<g>
</g>
<g>
</g>
<g>
</g>
<g>
</g>
<g>
</g>
<g>
</g>
</svg>
