<?xml version="1.0" encoding="iso-8859-1"?>
<!-- Generator: Adobe Illustrator 19.0.0, SVG Export Plug-In . SVG Version: 6.00 Build 0)  -->
<svg version="1.1" id="Capa_1" xmlns="http://www.w3.org/2000/svg" xmlns:xlink="http://www.w3.org/1999/xlink" x="0px" y="0px"
	 viewBox="0 0 512 512" style="enable-background:new 0 0 512 512;" xml:space="preserve">
<path style="fill:#AAE6FF;" d="M215.404,10L215.404,10L215.404,10C121.186,10,44.808,86.378,44.808,180.596v13.714L10,336.395h54
	v23.419c0,35.353,28.659,64.012,64.012,64.012h36.927c15.13,0,27.395,12.265,27.395,27.395V502H386V180.596
	C386,86.378,309.622,10,215.404,10z"/>
<path d="M192.334,512c-5.523,0-10-4.477-10-10v-50.779c0-9.592-7.803-17.395-17.395-17.395h-36.927
	c-40.81,0-74.012-33.202-74.012-74.012v-13.419H10c-3.071,0-5.972-1.411-7.867-3.827c-1.896-2.416-2.576-5.569-1.846-8.552
	l34.521-140.913v-12.507C34.808,81.015,115.823,0,215.403,0c48.239,0,93.591,18.785,127.701,52.895
	c3.905,3.905,3.906,10.237,0,14.143s-10.237,3.905-14.142,0C298.63,36.705,258.3,20,215.404,20
	C126.851,20,54.808,92.043,54.808,180.596v13.714c0,0.802-0.097,1.601-0.287,2.379L22.746,326.395H64
	c2.652,0,5.196,1.054,7.071,2.929S74,333.743,74,336.395v23.419c0,29.782,24.229,54.012,54.012,54.012h36.927
	c20.62,0,37.395,16.775,37.395,37.395V502C202.334,507.523,197.857,512,192.334,512z"/>
<path d="M89.66,206.18c-2.63,0-5.21-1.06-7.07-2.92s-2.93-4.44-2.93-7.08c0-2.63,1.07-5.21,2.93-7.07s4.44-2.93,7.07-2.93
	s5.21,1.07,7.07,2.93c1.87,1.87,2.93,4.44,2.93,7.07c0,2.64-1.06,5.21-2.93,7.08C94.87,205.12,92.3,206.18,89.66,206.18z"/>
<path d="M386,512c-5.523,0-10-4.477-10-10V367c0-5.523,4.477-10,10-10s10,4.477,10,10v135C396,507.523,391.523,512,386,512z"/>
<path style="fill:#BEBEBE;" d="M285.554,256.127h-36.438c-20.124,0-36.438-16.314-36.438-36.438c0-15.282,9.412-28.358,22.751-33.77
	c-0.579-2.58-0.895-5.259-0.895-8.013c0-20.124,16.314-36.438,36.438-36.438c5.671,0,11.038,1.296,15.824,3.607
	C298.051,115.788,326.441,95,359.691,95c37.506,0,68.83,26.45,76.348,61.714c4.774-1.484,9.85-2.284,15.112-2.284
	c28.083,0,50.848,22.766,50.848,50.848s-22.766,50.848-50.848,50.848h-25.01H285.554V256.127z"/>
<path d="M451.152,144.43c-2.683,0-5.351,0.174-7.99,0.521c-5.26-15.57-14.879-29.545-27.715-40.056
	C399.777,92.066,379.976,85,359.691,85c-18.159,0-35.597,5.485-50.428,15.861c-11.814,8.266-21.308,19.135-27.836,31.784
	c-3.398-0.783-6.892-1.177-10.455-1.177c-25.606,0-46.438,20.832-46.438,46.438c0,0.778,0.02,1.557,0.06,2.336
	c-13.524,8.37-21.916,23.132-21.916,39.447c0,25.606,20.832,46.438,46.438,46.438h202.036c33.552,0,60.848-27.296,60.848-60.848
	S484.704,144.43,451.152,144.43z M451.152,246.127H249.116c-14.578,0-26.438-11.86-26.438-26.438
	c0-10.816,6.481-20.434,16.511-24.504c4.532-1.838,7.068-6.685,5.998-11.457c-0.433-1.926-0.652-3.885-0.652-5.823
	c0-14.578,11.86-26.438,26.438-26.438c4.026,0,7.887,0.879,11.476,2.612c2.519,1.216,5.431,1.321,8.03,0.293
	c2.6-1.03,4.65-3.101,5.653-5.71C306.167,122.546,331.71,105,359.691,105c29.135,0,54.989,18.847,64.338,45.834
	c-4.589,2.291-8.908,5.14-12.78,8.505c-5.418,4.71-9.921,10.276-13.385,16.544c-2.671,4.834-0.918,10.918,3.916,13.589
	c1.533,0.847,3.192,1.25,4.828,1.25c3.522,0,6.938-1.865,8.762-5.165c2.328-4.212,5.356-7.955,9.001-11.123
	c4.647-4.04,10.226-7.014,16.135-8.604c3.454-0.929,7.028-1.4,10.648-1.4c22.524,0,40.848,18.325,40.848,40.849
	S473.676,246.127,451.152,246.127z"/>
<path d="M266.25,316.25c-2.559,0-5.119-0.976-7.071-2.929c-3.905-3.905-3.905-10.237,0-14.143l13.809-13.809
	c3.905-3.905,10.237-3.905,14.143,0s3.905,10.237,0,14.143l-13.809,13.809C271.369,315.274,268.809,316.25,266.25,316.25z"/>
<path d="M300.75,335.689c-2.559,0-5.119-0.976-7.071-2.929c-3.905-3.905-3.905-10.237,0-14.143l33.249-33.249
	c3.905-3.905,10.237-3.905,14.143,0c3.905,3.905,3.905,10.237,0,14.143l-33.249,33.249
	C305.869,334.713,303.309,335.689,300.75,335.689z"/>
<path d="M275.83,360.61c-2.64,0-5.21-1.07-7.07-2.93c-1.86-1.86-2.93-4.43-2.93-7.07c0-2.63,1.07-5.21,2.93-7.07
	c1.86-1.86,4.43-2.93,7.07-2.93c2.63,0,5.21,1.07,7.07,2.93c1.86,1.86,2.93,4.44,2.93,7.07s-1.07,5.21-2.93,7.07
	S278.46,360.61,275.83,360.61z"/>
<path d="M372.03,316.25c-2.559,0-5.119-0.976-7.071-2.929c-3.905-3.905-3.905-10.237,0-14.143l13.809-13.809
	c3.905-3.905,10.237-3.905,14.143,0s3.905,10.237,0,14.143l-13.809,13.809C377.149,315.274,374.589,316.25,372.03,316.25z"/>
<path d="M406.53,335.689c-2.559,0-5.119-0.976-7.071-2.929c-3.905-3.905-3.905-10.237,0-14.143l33.249-33.249
	c3.905-3.905,10.237-3.905,14.143,0c3.905,3.905,3.905,10.237,0,14.143l-33.249,33.249
	C411.649,334.713,409.089,335.689,406.53,335.689z"/>
<path d="M214.832,64.855c-5.511,0-9.985-4.46-10-9.974c-0.014-5.523,4.452-10.012,9.974-10.026l0.597-0.001c5.523,0,10,4.477,10,10
	s-4.477,10-10,10l-0.545,0.001C214.85,64.855,214.84,64.855,214.832,64.855z"/>
<path d="M113.451,116.972c-2.031,0-4.082-0.617-5.853-1.899c-4.475-3.237-5.478-9.489-2.241-13.963
	c16.87-23.318,41.179-40.99,68.45-49.76c5.255-1.69,10.891,1.2,12.582,6.458c1.69,5.258-1.201,10.891-6.458,12.582
	c-23.247,7.476-43.977,22.55-58.369,42.443C119.606,115.535,116.55,116.972,113.451,116.972z"/>
<g>
</g>
<g>
</g>
<g>
</g>
<g>
</g>
<g>
</g>
<g>
</g>
<g>
</g>
<g>
</g>
<g>
</g>
<g>
</g>
<g>
</g>
<g>
</g>
<g>
</g>
<g>
</g>
<g>
</g>
</svg>
