<?xml version="1.0" encoding="iso-8859-1"?>
<!-- Generator: Adobe Illustrator 19.0.0, SVG Export Plug-In . SVG Version: 6.00 Build 0)  -->
<svg version="1.1" id="Capa_1" xmlns="http://www.w3.org/2000/svg" xmlns:xlink="http://www.w3.org/1999/xlink" x="0px" y="0px"
	 viewBox="0 0 512 512" style="enable-background:new 0 0 512 512;" xml:space="preserve">
<path style="fill:#D7FA91;" d="M276,36.001v68c0,14.359,11.641,26,26,26h56v40.457l40.457-40.457H476c14.359,0,26-11.641,26-26v-68
	c0-14.359-11.641-26-26-26H302C287.641,10.001,276,21.642,276,36.001z"/>
<path style="fill:#AAE6FF;" d="M236,36.001v108c0,14.359-11.641,26-26,26h-56v40.457l-40.457-40.457H36c-14.359,0-26-11.641-26-26
	v-108c0-14.359,11.641-26,26-26h174C224.359,10.001,236,21.642,236,36.001z"/>
<path style="fill:#FFCDAC;" d="M132.636,291.846H99.584v15.812c0,37.334,30.265,67.599,67.599,67.599l0,0l0,0
	c37.334,0,67.599-30.265,67.599-67.599v-15.812l-45.221-26.568C175.449,282.118,154.606,291.846,132.636,291.846z"/>
<path style="fill:#FF5A5A;" d="M138.618,370.103v10.688c0,10.788-7.698,20.04-18.306,22.001l-37.55,6.943
	c-29.424,5.441-50.777,31.103-50.777,61.026l0.008,31.24h270.395l-0.007-31.239c0-29.924-21.353-55.587-50.779-61.026l-37.565-6.945
	c-10.609-1.961-18.307-11.213-18.307-22.002v-10.687"/>
<path style="fill:#78D2FA;" d="M376.796,324.959v10.442c0,10.541,7.522,19.581,17.887,21.497l36.703,6.785
	c28.75,5.315,49.614,30.389,49.614,59.626v78.692H302.388l-0.007-31.239c0-29.924-21.353-55.586-50.779-61.026l-31.597-5.841
	c6.883-20.356,24.312-36.126,46.414-40.213l36.688-6.784c10.365-1.916,17.886-10.956,17.886-21.497v-10.443h55.803V324.959z"/>
<path style="fill:#FFB487;" d="M348.923,405.001l35.252-53.241c-4.556-4.038-7.379-9.913-7.379-16.359v-10.442h-55.802v10.442
	c0,6.434-2.812,12.298-7.353,16.335L348.923,405.001z"/>
<path style="fill:#F5B955;" d="M348.903,170.458L348.903,170.458c36.478,0,66.048,29.571,66.048,66.048v15.9h-32.293
	c-21.467,0-41.832-9.505-55.619-25.958l0,0l-44.184,25.958v-15.9C282.855,200.028,312.426,170.458,348.903,170.458z"/>
<path style="fill:#FFB487;" d="M329.302,229.001h-6.609l-39.837,23.404v11.541c0,36.477,29.571,66.048,66.048,66.048l0,0l0,0
	c36.477,0,66.048-29.571,66.048-66.048v-11.541h-32.293C362.333,252.405,343.004,243.874,329.302,229.001z"/>
<path style="fill:#878791;" d="M167.183,211.974L167.183,211.974c-37.334,0-67.599,30.265-67.599,67.599v12.273h33.051
	c21.971,0,42.814-9.728,56.925-26.568l0,0l45.221,26.568v-12.273C234.782,242.239,204.517,211.974,167.183,211.974z"/>
<path style="fill:#FFCDAC;" d="M167.201,444.098l36.14-46.51c-4.699-4.134-7.611-10.172-7.611-16.798v-10.687h-57.112v10.688
	c0,6.615-2.903,12.644-7.588,16.777L167.201,444.098z"/>
<path d="M57.34,60.23h131.32c5.523,0,10-4.477,10-10s-4.477-10-10-10H57.34c-5.523,0-10,4.477-10,10S51.817,60.23,57.34,60.23z"/>
<path d="M57.34,100.229h131.32c5.523,0,10-4.477,10-10s-4.477-10-10-10H57.34c-5.523,0-10,4.477-10,10S51.817,100.229,57.34,100.229
	z"/>
<path d="M123.132,120.23H57.34c-5.523,0-10,4.477-10,10s4.477,10,10,10h65.792c5.523,0,10-4.477,10-10
	S128.655,120.23,123.132,120.23z"/>
<path d="M165.674,120.229h-0.102c-5.523,0-10,4.477-10,10c0,5.523,4.477,10,10,10h0.102c5.523,0,10-4.477,10-10
	S171.197,120.229,165.674,120.229z"/>
<path d="M449.66,40.23H318.34c-5.523,0-10,4.477-10,10s4.477,10,10,10h131.32c5.523,0,10-4.477,10-10S455.183,40.23,449.66,40.23z"
	/>
<path d="M384.132,80.23H318.34c-5.523,0-10,4.477-10,10s4.477,10,10,10h65.792c5.523,0,10-4.477,10-10S389.655,80.23,384.132,80.23z
	"/>
<path d="M426.674,80.229h-0.102c-5.523,0-10,4.477-10,10s4.477,10,10,10h0.102c5.523,0,10-4.477,10-10
	S432.197,80.229,426.674,80.229z"/>
<path d="M151.66,315.671c0-2.64-1.06-5.21-2.92-7.07c-1.87-1.87-4.44-2.93-7.08-2.93c-2.63,0-5.21,1.06-7.07,2.93
	c-1.86,1.86-2.93,4.44-2.93,7.07s1.07,5.21,2.93,7.07s4.44,2.93,7.07,2.93c2.64,0,5.21-1.07,7.08-2.93
	C150.6,320.881,151.66,318.301,151.66,315.671z"/>
<path d="M192.7,325.671c2.64,0,5.21-1.07,7.07-2.93s2.93-4.44,2.93-7.07c0-2.64-1.07-5.21-2.93-7.07c-1.86-1.87-4.43-2.93-7.07-2.93
	c-2.63,0-5.21,1.06-7.07,2.93c-1.86,1.86-2.93,4.44-2.93,7.07s1.07,5.21,2.93,7.07S190.07,325.671,192.7,325.671z"/>
<path d="M183.625,334.289c-3.905-3.905-10.237-3.905-14.143,0c-1.333,1.334-3.503,1.334-4.837,0c-3.905-3.905-10.237-3.905-14.142,0
	s-3.905,10.237,0,14.142c4.566,4.565,10.563,6.848,16.561,6.848s11.995-2.283,16.561-6.848
	C187.53,344.526,187.53,338.194,183.625,334.289z"/>
<path d="M333.38,270.121c0-2.64-1.06-5.21-2.92-7.08c-1.87-1.86-4.44-2.92-7.07-2.92c-2.64,0-5.21,1.06-7.08,2.92
	c-1.86,1.87-2.92,4.44-2.92,7.08c0,2.63,1.06,5.21,2.92,7.07c1.86,1.86,4.44,2.93,7.08,2.93c2.63,0,5.2-1.07,7.07-2.93
	C332.32,275.331,333.38,272.751,333.38,270.121z"/>
<path d="M351.204,288.738c-0.872,0.872-1.89,1.002-2.418,1.002c-0.529,0-1.547-0.13-2.418-1.002c-3.904-3.906-10.236-3.906-14.142,0
	c-3.905,3.905-3.906,10.237,0,14.142c4.423,4.424,10.305,6.86,16.561,6.86s12.137-2.437,16.561-6.86
	c3.905-3.905,3.905-10.237,0-14.143C361.441,284.833,355.109,284.833,351.204,288.738z"/>
<path d="M476,0.001H302c-19.851,0-36,16.149-36,36v68c0,19.851,16.149,36,36,36h46v20.479
	c-41.517,0.488-75.145,34.395-75.145,76.025v27.441c0,28.133,15.368,52.729,38.139,65.883v5.571c0,5.719-4.082,10.624-9.705,11.664
	l-36.689,6.783c-22.201,4.105-40.941,18.575-50.672,38.583c-4.848-1.736-8.198-6.352-8.198-11.642v-5.827
	c23.309-13.403,39.051-38.541,39.051-67.304v-28.085c0-42.788-34.811-77.599-77.599-77.599c-1.068,0-2.126,0.038-3.183,0.081
	v-22.053h46c19.851,0,36-16.149,36-36v-108c0-19.851-16.149-36-36-36H36c-19.851,0-36,16.149-36,36v108c0,19.851,16.149,36,36,36
	h73.401l27.946,27.946c-28.021,11.716-47.763,39.405-47.763,71.625v28.085c0,28.755,15.734,53.889,39.034,67.294v5.838
	c0,5.966-4.258,11.083-10.125,12.168l-37.55,6.943c-34.163,6.317-58.958,36.118-58.958,70.862l0.007,31.24
	c0.001,5.522,4.478,9.998,10,9.998H481c5.523,0,10-4.477,10-10v-78.691c0-34.057-24.307-63.269-57.796-69.46l-36.703-6.785
	c-5.624-1.04-9.706-5.945-9.706-11.664v-5.561c22.78-13.151,38.156-37.753,38.156-65.893v-27.441
	c0-32.081-19.978-59.566-48.138-70.719l25.786-25.785H476c19.851,0,36-16.149,36-36v-68C512,16.15,495.851,0.001,476,0.001z
	 M113.543,160.001H36c-8.822,0-16-7.178-16-16v-108c0-8.822,7.178-16,16-16h174c8.822,0,16,7.178,16,16v108c0,8.822-7.178,16-16,16
	h-56c-5.523,0-10,4.477-10,10v16.314l-23.385-23.386C118.739,161.055,116.196,160.001,113.543,160.001z M109.584,279.573
	c0-31.76,25.839-57.599,57.599-57.599c29.957,0,54.646,22.991,57.353,52.254l-29.909-17.572c-4.212-2.475-9.594-1.543-12.73,2.199
	c-12.244,14.611-30.198,22.99-49.261,22.99h-23.051L109.584,279.573L109.584,279.573z M109.584,307.658v-5.813h23.051
	c22.128,0,43.117-8.611,58.78-23.88l33.366,19.603v10.09c0,31.76-25.839,57.599-57.599,57.599S109.584,339.418,109.584,307.658z
	 M167.183,385.257c6.421,0,12.658-0.798,18.629-2.276c0.361,5.359,2.032,10.4,4.726,14.772l-23.349,30.049l-23.37-30.063
	c2.689-4.37,4.358-9.407,4.717-14.763C154.513,384.457,160.756,385.257,167.183,385.257z M41.99,492.001l-0.005-21.24
	c0-25.1,17.914-46.629,42.595-51.193l37.549-6.943c2.248-0.416,4.402-1.063,6.448-1.906l30.718,39.516
	c1.895,2.438,4.809,3.863,7.896,3.863s6.001-1.426,7.896-3.864l30.699-39.509c2.041,0.839,4.191,1.485,6.433,1.9l37.564,6.944
	c24.682,4.563,42.597,26.093,42.597,51.195l0.006,21.237H41.99z M429.568,373.517C453.576,377.955,471,398.896,471,423.31v68.691
	h-38.071v-42.489c0-5.523-4.477-10-10-10s-10,4.477-10,10v42.489H312.386l-0.005-21.239c0-34.743-24.796-64.543-58.961-70.86
	l-18.871-3.489c7.441-11.86,19.593-20.293,33.688-22.899l36.689-6.783c1.939-0.359,3.809-0.891,5.598-1.575l30.05,45.366
	c1.853,2.796,4.983,4.478,8.338,4.478s6.485-1.683,8.337-4.479l30.033-45.359c1.784,0.681,3.65,1.211,5.584,1.569L429.568,373.517z
	 M371.728,352.426l-22.819,34.464l-22.837-34.478c2.72-4.304,4.424-9.286,4.825-14.59c5.777,1.409,11.803,2.173,18.008,2.173
	c6.198,0,12.219-0.763,17.99-2.169C367.297,343.135,369.003,348.121,371.728,352.426z M348.903,319.995
	c-30.905,0-56.048-25.143-56.048-56.048v-5.818l32.337-18.998c12.207,11.849,27.702,19.566,44.421,22.227
	c-0.827,0.451-1.593,1.013-2.264,1.684c-1.86,1.87-2.93,4.44-2.93,7.08c0,2.63,1.07,5.21,2.93,7.07c1.86,1.86,4.44,2.93,7.07,2.93
	c2.64,0,5.21-1.07,7.07-2.93c1.86-1.86,2.93-4.44,2.93-7.07s-1.06-5.21-2.93-7.08c-0.242-0.242-0.497-0.468-0.761-0.682
	c0.643,0.015,1.284,0.047,1.929,0.047h22.293v1.542C404.952,294.852,379.809,319.995,348.903,319.995z M404.952,236.506v5.899
	h-22.293c-18.557,0-36.036-8.157-47.955-22.381c-1.958-2.337-4.792-3.578-7.67-3.578c-1.731,0-3.479,0.449-5.06,1.378
	l-29.096,17.094c0.842-30.175,25.651-54.461,56.026-54.461l0,0C379.809,180.458,404.952,205.601,404.952,236.506z M492,104.001
	c0,8.822-7.178,16-16,16h-77.543c-2.652,0-5.196,1.054-7.071,2.929L368,146.315v-16.314c0-5.523-4.477-10-10-10h-56
	c-8.822,0-16-7.178-16-16v-68c0-8.822,7.178-16,16-16h174c8.822,0,16,7.178,16,16V104.001z"/>
<g>
</g>
<g>
</g>
<g>
</g>
<g>
</g>
<g>
</g>
<g>
</g>
<g>
</g>
<g>
</g>
<g>
</g>
<g>
</g>
<g>
</g>
<g>
</g>
<g>
</g>
<g>
</g>
<g>
</g>
</svg>
