<?xml version="1.0" encoding="iso-8859-1"?>
<!-- Generator: Adobe Illustrator 19.0.0, SVG Export Plug-In . SVG Version: 6.00 Build 0)  -->
<svg version="1.1" id="Capa_1" xmlns="http://www.w3.org/2000/svg" xmlns:xlink="http://www.w3.org/1999/xlink" x="0px" y="0px"
	 viewBox="0 0 511.999 511.999" style="enable-background:new 0 0 511.999 511.999;" xml:space="preserve">
<circle style="fill:#6E87F5;" cx="437.326" cy="74.658" r="64.609"/>
<path style="fill:#FF8C8C;" d="M483.336,115.568c0-9.676-6.897-17.979-16.409-19.753l-11.704-2.183l-35.849,0.008l-11.66,2.175
	c-9.512,1.774-16.409,10.076-16.409,19.753v4.431c11.718,11.891,28.003,19.27,46.017,19.27c18.012,0,34.295-7.377,46.013-19.265
	L483.336,115.568L483.336,115.568z"/>
<path style="fill:#FFCDAC;" d="M438.888,44.095h-3.136c-11.236,0-20.344,9.108-20.344,20.344v17.395
	c0,11.236,9.108,20.344,20.344,20.344h3.136c11.236,0,20.344-9.108,20.344-20.344V64.438
	C459.233,53.203,450.124,44.095,438.888,44.095z"/>
<circle style="fill:#6E87F5;" cx="74.637" cy="74.658" r="64.609"/>
<path style="fill:#9BBEFF;" d="M120.646,115.568c0-9.676-6.897-17.979-16.409-19.753l-11.704-2.183l-35.849,0.008l-11.659,2.174
	c-9.512,1.774-16.409,10.076-16.409,19.753v4.431c11.718,11.891,28.003,19.27,46.017,19.27c18.012,0,34.295-7.377,46.013-19.265
	C120.646,120.003,120.646,115.568,120.646,115.568z"/>
<path style="fill:#FFCDAC;" d="M76.198,44.095h-3.136c-11.236,0-20.344,9.108-20.344,20.344v17.395
	c0,11.236,9.108,20.344,20.344,20.344h3.136c11.236,0,20.344-9.108,20.344-20.344V64.438C96.543,53.203,87.435,44.095,76.198,44.095
	z"/>
<circle style="fill:#6E87F5;" cx="74.637" cy="437.348" r="64.609"/>
<path style="fill:#A5DC69;" d="M120.648,478.258c0-9.676-6.897-17.979-16.409-19.753l-11.704-2.183l-35.849,0.008l-11.66,2.175
	c-9.512,1.774-16.409,10.076-16.409,19.753v4.431c11.718,11.891,28.003,19.27,46.017,19.27c18.012,0,34.295-7.377,46.013-19.265
	L120.648,478.258L120.648,478.258z"/>
<path style="fill:#FFCDAC;" d="M76.2,406.785h-3.136c-11.236,0-20.344,9.108-20.344,20.344v17.395
	c0,11.236,9.108,20.344,20.344,20.344H76.2c11.236,0,20.344-9.108,20.344-20.344v-17.395
	C96.545,415.893,87.437,406.785,76.2,406.785z"/>
<circle style="fill:#6E87F5;" cx="437.326" cy="437.348" r="64.609"/>
<path style="fill:#F5C86E;" d="M483.336,478.258c0-9.676-6.897-17.979-16.409-19.753l-11.704-2.183l-35.849,0.008l-11.66,2.175
	c-9.512,1.774-16.409,10.076-16.409,19.753v4.431c11.718,11.891,28.003,19.27,46.017,19.27c18.012,0,34.295-7.377,46.013-19.265
	L483.336,478.258L483.336,478.258z"/>
<path style="fill:#FFCDAC;" d="M438.888,406.785h-3.136c-11.236,0-20.344,9.108-20.344,20.344v17.395
	c0,11.236,9.108,20.344,20.344,20.344h3.136c11.236,0,20.344-9.108,20.344-20.344v-17.395
	C459.233,415.893,450.124,406.785,438.888,406.785z"/>
<circle style="fill:#78D2FA;" cx="255.977" cy="255.998" r="151.975"/>
<g>
	<path style="fill:#A5DC69;" d="M348.027,160.401c-18.666,0-33.797,15.131-33.797,33.797c0,6.933-5.62,12.553-12.553,12.553
		c-12.266,0-22.209,9.943-22.209,22.21v4.828c0,12.266,9.943,22.209,22.209,22.209h106.276c0-36.227-12.683-69.486-33.84-95.599
		L348.027,160.401L348.027,160.401z"/>
	<path style="fill:#A5DC69;" d="M104.003,256c0,1.674,0.037,3.338,0.091,4.999h51.598c8.451,0,15.302-6.851,15.302-15.302l0,0
		c0-8.452,6.851-15.302,15.302-15.302h28.212c6.688,0,12.109-5.421,12.109-12.109c0-6.688-5.421-12.109-12.109-12.109h-9.018
		c-7.715,0-13.969-6.254-13.969-13.969c0-7.715,6.254-13.969,13.969-13.969h28.752c9.484,0,17.173-7.689,17.173-17.173
		c0-9.484-7.689-17.173-17.173-17.173h-80.866C123.034,171.678,104.003,211.615,104.003,256z"/>
</g>
<path style="fill:#F5C86E;" d="M262.275,315.958h-0.418c-1.548,0-2.802-1.255-2.802-2.802l0,0c0-6.189-5.017-11.206-11.206-11.206
	h-7.905H111.082c13.337,42.092,44.504,76.245,84.637,93.598v-7.561c0-7.954,6.448-14.402,14.402-14.402h21.926
	c7.954,0,14.402-6.448,14.402-14.402c0-4.883,3.959-8.842,8.843-8.842h6.985c9.494,0,17.191-7.696,17.191-17.19v-0.002
	C279.467,323.654,271.77,315.958,262.275,315.958z"/>
<path d="M255.978,94.027c-89.312,0-161.973,72.661-161.973,161.973s72.661,161.973,161.973,161.973S417.951,345.312,417.951,256
	S345.29,94.027,255.978,94.027z M369.169,170.399c16.166,21.324,26.452,47.334,28.428,75.602h-95.921
	c-6.733,0-12.211-5.478-12.211-12.211v-4.828c0-6.733,5.478-12.211,12.211-12.211c12.435,0,22.552-10.117,22.552-22.552
	c0-13.123,10.676-23.799,23.799-23.799h21.141V170.399z M157.449,153.881c0.071,0.001,0.14,0.011,0.212,0.011h76.582
	c3.956,0,7.175,3.218,7.175,7.175s-3.218,7.175-7.175,7.175h-28.752c-13.216,0-23.967,10.751-23.967,23.967
	c0,13.216,10.751,23.968,23.967,23.968h9.018c1.164,0,2.111,0.947,2.111,2.111c0,1.164-0.947,2.111-2.111,2.111h-28.212
	c-13.951,0-25.301,11.35-25.301,25.301c0,2.925-2.38,5.304-5.304,5.304h-41.593C115.423,212.938,131.798,178.638,157.449,153.881z
	 M255.978,397.976c-17.689,0-34.629-3.261-50.262-9.198v-0.79c0-2.429,1.976-4.403,4.404-4.403h21.926
	c13.067,0,23.768-10.324,24.373-23.244h5.855c14.991,0,27.188-12.197,27.189-27.189c0-7.263-2.828-14.092-7.964-19.227
	c-3.757-3.757-8.421-6.28-13.498-7.363c-2.78-8.474-10.764-14.61-20.155-14.61h-83.856c-5.522,0-9.998,4.476-9.998,9.998
	s4.476,9.998,9.998,9.998h83.856c0.667,0,1.208,0.542,1.208,1.208c0,7.058,5.742,12.8,12.8,12.8h0.418
	c1.922,0,3.728,0.749,5.086,2.107c1.359,1.359,2.107,3.166,2.107,5.088c0,3.965-3.227,7.192-7.193,7.192h-6.984
	c-10.388,0-18.84,8.452-18.841,18.84c0,2.428-1.976,4.403-4.403,4.403h-21.926c-10.686,0-19.784,6.908-23.077,16.491
	c-39.392-21.972-67.3-62.152-72.249-109.081h40.898c13.951,0,25.301-11.35,25.301-25.301c0-2.925,2.38-5.304,5.304-5.304h28.212
	c12.19,0,22.107-9.917,22.107-22.107c0-12.19-9.917-22.107-22.107-22.107h-9.018c-2.19,0-3.97-1.782-3.97-3.971
	c0-2.19,1.781-3.97,3.97-3.97h28.752c14.983,0,27.171-12.189,27.171-27.171s-12.189-27.171-27.171-27.171h-50.626
	c21.203-12.614,45.948-19.872,72.36-19.872c36.401,0,69.64,13.775,94.795,36.379h-2.746c-24.149,0-43.796,19.647-43.796,43.796
	c0,1.409-1.146,2.556-2.556,2.556c-17.76,0-32.208,14.449-32.208,32.208v4.828c0,17.76,14.449,32.208,32.208,32.208h95.921
	C392.449,339.636,330.901,397.976,255.978,397.976z"/>
<path d="M179.792,32.618c62.239-21.172,130.295-15.494,187.835,15.439c-3.165,8.268-4.917,17.229-4.917,26.597
	c0,41.141,33.471,74.613,74.613,74.613s74.613-33.471,74.613-74.613S478.464,0.042,437.322,0.042
	c-24.634,0-46.508,12.007-60.104,30.468C314.771-3.106,240.898-9.292,173.352,13.687c-5.228,1.779-8.024,7.458-6.246,12.686
	C168.884,31.599,174.563,34.393,179.792,32.618z M401.303,115.658v-0.09c0-4.859,3.467-9.034,8.245-9.924l6.362-1.187
	c5.446,4.799,12.586,7.719,20.399,7.719h2.025c7.813,0,14.952-2.921,20.399-7.719l6.362,1.187c4.777,0.891,8.245,5.064,8.245,9.924
	v0.094c-9.622,8.461-22.225,13.609-36.015,13.609C423.531,129.271,410.926,124.122,401.303,115.658z M449.234,81.279
	c0,6.011-4.89,10.901-10.901,10.901h-2.025c-6.011,0-10.901-4.89-10.901-10.901V64.994c0-6.011,4.89-10.901,10.901-10.901h2.025
	c6.011,0,10.901,4.89,10.901,10.901V81.279z M437.322,20.039c30.115,0,54.616,24.501,54.616,54.616
	c0,8.031-1.757,15.653-4.882,22.527c-4.372-5.661-10.741-9.756-18.187-11.173c0.238-1.543,0.362-3.121,0.362-4.73V64.994
	c0-17.037-13.861-30.898-30.898-30.898h-2.025c-17.037,0-30.898,13.861-30.898,30.898v16.284c0,1.608,0.124,3.187,0.362,4.73
	c-7.445,1.417-13.813,5.51-18.185,11.17c-3.125-6.873-4.881-14.495-4.881-22.524C382.707,44.54,407.207,20.039,437.322,20.039z"/>
<path d="M337.348,477.549c-63.693,23.345-133.628,18.336-192.988-13.588c3.17-8.274,4.925-17.242,4.925-26.618
	c0-41.141-33.471-74.613-74.613-74.613S0.06,396.202,0.06,437.345s33.471,74.613,74.613,74.613
	c24.628,0,46.498-12.001,60.094-30.454c30.686,16.482,65.069,26.68,99.912,29.572c6.99,0.581,14.007,0.869,21.036,0.869
	c30.139,0,60.376-5.305,88.515-15.618c5.185-1.9,7.848-7.644,5.947-12.829C348.276,478.312,342.532,475.65,337.348,477.549z
	 M74.673,382.729c30.115,0,54.616,24.501,54.616,54.616c0,8.029-1.756,15.651-4.881,22.524c-4.372-5.659-10.74-9.753-18.185-11.17
	c0.238-1.543,0.362-3.122,0.362-4.73v-16.284c0-17.037-13.861-30.898-30.898-30.898h-2.025c-17.037,0-30.898,13.861-30.898,30.898
	v16.284c0,1.608,0.124,3.187,0.362,4.73c-7.446,1.417-13.815,5.512-18.187,11.173c-3.126-6.874-4.882-14.498-4.882-22.527
	C20.057,407.23,44.558,382.729,74.673,382.729z M62.762,443.968v-16.284c0-6.011,4.89-10.901,10.901-10.901h2.025
	c6.011,0,10.901,4.89,10.901,10.901v16.284c0,6.011-4.89,10.901-10.901,10.901h-2.025C67.652,454.87,62.762,449.979,62.762,443.968z
	 M38.658,478.352v-0.094c0-4.859,3.467-9.033,8.245-9.924l6.362-1.187c5.446,4.799,12.586,7.719,20.399,7.719h2.025
	c7.813,0,14.952-2.921,20.399-7.719l6.362,1.187c4.777,0.891,8.245,5.064,8.245,9.924v0.09
	c-9.622,8.464-22.227,13.613-36.019,13.613C60.883,491.96,48.28,486.812,38.658,478.352z"/>
<path d="M483.115,160.924c-5.178,1.918-7.821,7.67-5.903,12.849l0.118,0.317c1.494,4.033,5.313,6.529,9.376,6.529
	c1.154,0,2.327-0.201,3.471-0.625c5.178-1.918,7.822-7.67,5.903-12.849l-0.118-0.317
	C494.045,161.648,488.291,159.006,483.115,160.924z"/>
<path d="M21.158,329.95c-5.188,1.852-7.88,7.613-6.046,12.808c1.45,4.106,5.307,6.674,9.428,6.674c1.104,0,2.228-0.185,3.327-0.573
	c5.207-1.838,7.939-7.549,6.101-12.756c-0.008-0.024-0.05-0.14-0.059-0.164l-9.414,3.366l9.406-3.39
	C32.032,330.732,26.345,328.102,21.158,329.95z"/>
<path d="M3.945,300.773c0.857,4.849,5.074,8.26,9.833,8.26c0.578,0,1.164-0.05,1.752-0.154c5.437-0.961,9.066-6.148,8.105-11.586
	c-9.262-52.392-0.587-106.42,24.406-152.94c8.266,3.164,17.225,4.915,26.59,4.915c41.141,0,74.613-33.471,74.613-74.613
	S115.774,0.042,74.633,0.042S0.02,33.513,0.02,74.655c0,24.637,12.01,46.514,30.475,60.109
	C3.33,185.259-6.107,243.911,3.945,300.773z M38.618,115.662v-0.094c0-4.859,3.467-9.033,8.245-9.924l6.362-1.187
	c5.446,4.799,12.586,7.719,20.399,7.719h2.025c7.813,0,14.952-2.921,20.399-7.719l6.362,1.187c4.777,0.891,8.245,5.064,8.245,9.924
	v0.09c-9.622,8.464-22.227,13.613-36.019,13.613C60.843,129.271,48.24,124.123,38.618,115.662z M86.549,81.279
	c0,6.011-4.89,10.901-10.901,10.901h-2.025c-6.011,0-10.901-4.89-10.901-10.901V64.994c0-6.011,4.89-10.901,10.901-10.901h2.025
	c6.011,0,10.901,4.89,10.901,10.901V81.279z M74.633,20.039c30.115,0,54.616,24.501,54.616,54.616
	c0,8.029-1.756,15.651-4.881,22.524c-4.372-5.659-10.74-9.753-18.185-11.17c0.238-1.543,0.362-3.122,0.362-4.73V64.994
	c0-17.037-13.861-30.898-30.898-30.898h-2.025c-17.037,0-30.898,13.861-30.898,30.898v16.284c0,1.608,0.124,3.187,0.362,4.73
	c-7.446,1.417-13.815,5.512-18.187,11.173c-3.126-6.874-4.882-14.498-4.882-22.527C20.017,44.54,44.518,20.039,74.633,20.039z"/>
<path d="M481.457,377.246c28.671-53.247,37.53-114.928,24.899-174.536c-1.145-5.401-6.449-8.853-11.853-7.709
	c-5.402,1.145-8.854,6.452-7.709,11.853c11.639,54.929,3.494,111.755-22.89,160.814c-8.251-3.151-17.192-4.894-26.538-4.894
	c-41.141,0-74.613,33.471-74.613,74.613s33.471,74.613,74.613,74.613s74.613-33.471,74.613-74.613
	C511.978,412.73,499.948,390.838,481.457,377.246z M437.365,382.772c30.115,0,54.616,24.501,54.616,54.616
	c0,8.03-1.757,15.653-4.882,22.527c-4.372-5.661-10.741-9.755-18.187-11.173c0.238-1.543,0.362-3.122,0.362-4.73v-16.284
	c0-17.037-13.861-30.898-30.898-30.898h-2.025c-17.037,0-30.898,13.861-30.898,30.898v16.284c0,1.608,0.124,3.187,0.362,4.73
	c-7.445,1.417-13.813,5.511-18.185,11.17c-3.125-6.873-4.881-14.496-4.881-22.524C382.75,407.273,407.25,382.772,437.365,382.772z
	 M425.449,444.011v-16.284c0-6.011,4.89-10.901,10.901-10.901h2.025c6.011,0,10.901,4.89,10.901,10.901v16.284
	c0,6.011-4.89,10.901-10.901,10.901h-2.025C430.341,454.913,425.449,450.022,425.449,444.011z M401.346,478.391V478.3
	c0-4.859,3.467-9.034,8.245-9.924l6.362-1.187c5.446,4.799,12.586,7.719,20.399,7.719h2.025c7.813,0,14.952-2.921,20.399-7.719
	l6.362,1.187c4.777,0.891,8.245,5.064,8.245,9.924v0.094c-9.622,8.462-22.225,13.609-36.015,13.609
	C423.574,492.003,410.969,486.854,401.346,478.391z"/>
<g>
</g>
<g>
</g>
<g>
</g>
<g>
</g>
<g>
</g>
<g>
</g>
<g>
</g>
<g>
</g>
<g>
</g>
<g>
</g>
<g>
</g>
<g>
</g>
<g>
</g>
<g>
</g>
<g>
</g>
</svg>
