<?xml version="1.0" encoding="iso-8859-1"?>
<!-- Generator: Adobe Illustrator 19.0.0, SVG Export Plug-In . SVG Version: 6.00 Build 0)  -->
<svg version="1.1" id="Layer_1" xmlns="http://www.w3.org/2000/svg" xmlns:xlink="http://www.w3.org/1999/xlink" x="0px" y="0px"
	 viewBox="0 0 512 512" style="enable-background:new 0 0 512 512;" xml:space="preserve">
<path style="fill:#EDEDED;" d="M460.8,482.358H51.2c-11.906,0-21.558-9.651-21.558-21.558V51.2c0-11.906,9.651-21.558,21.558-21.558
	h409.6c11.906,0,21.558,9.651,21.558,21.558v409.6C482.358,472.707,472.706,482.358,460.8,482.358z"/>
<path style="fill:#B7441C;" d="M288.337,256c11.906,0,21.558,9.651,21.558,21.558s-9.651,21.558-21.558,21.558
	c-11.906,0-21.558-9.651-21.558-21.558S276.43,256,288.337,256z M353.01,72.758c0,11.906,9.651,21.558,21.558,21.558
	c11.906,0,21.558-9.651,21.558-21.558S386.475,51.2,374.568,51.2C362.662,51.2,353.01,60.852,353.01,72.758z"/>
<path style="fill:#FF6029;" d="M396.126,126.653c11.906,0,21.558,9.651,21.558,21.558c0,11.906-9.651,21.558-21.558,21.558
	c-11.906,0-21.558-9.651-21.558-21.558C374.568,136.304,384.22,126.653,396.126,126.653z M460.8,29.642
	c0,11.906,9.651,21.558,21.558,21.558s21.558-9.651,21.558-21.558s-9.651-21.558-21.558-21.558S460.8,17.736,460.8,29.642z"/>
<path style="fill:#73A4BC;" d="M256,148.211c11.906,0,21.558,9.651,21.558,21.558s-9.651,21.558-21.558,21.558
	s-21.558-9.651-21.558-21.558S244.093,148.211,256,148.211z M158.989,363.79c0,11.906,9.651,21.558,21.558,21.558
	s21.558-9.651,21.558-21.558c0-11.906-9.651-21.558-21.558-21.558S158.989,351.883,158.989,363.79z"/>
<path style="fill:#56889B;" d="M180.547,266.779c11.906,0,21.558,9.651,21.558,21.558c0,11.906-9.651,21.558-21.558,21.558
	s-21.558-9.651-21.558-21.558C158.989,276.431,168.641,266.779,180.547,266.779z M72.758,417.684
	c0,11.906,9.651,21.558,21.558,21.558s21.558-9.651,21.558-21.558s-9.651-21.558-21.558-21.558S72.758,405.778,72.758,417.684z"/>
<path d="M509.632,488.074l-21.558,21.558c-1.578,1.578-3.648,2.368-5.716,2.368s-4.138-0.789-5.716-2.368
	c-3.157-3.157-3.157-8.276,0-11.432l7.758-7.758H51.2c-16.344,0-29.642-13.297-29.642-29.642V27.602L13.8,35.359
	c-3.157,3.157-8.276,3.157-11.432,0c-3.157-3.157-3.157-8.276,0-11.432L23.926,2.369c3.157-3.157,8.276-3.157,11.432,0
	l21.558,21.558c3.157,3.157,3.157,8.276,0,11.432c-3.157,3.157-8.276,3.157-11.432,0l-7.758-7.758V460.8
	c0,7.43,6.044,13.474,13.474,13.474h433.199l-7.758-7.758c-3.157-3.157-3.157-8.276,0-11.432c3.157-3.157,8.276-3.157,11.432,0
	l21.558,21.558C512.79,479.799,512.79,484.918,509.632,488.074z M396.126,118.569c16.345,0,29.642,13.297,29.642,29.642
	s-13.297,29.642-29.642,29.642c-16.345,0-29.642-13.297-29.642-29.642S379.782,118.569,396.126,118.569z M396.126,134.737
	c-7.43,0-13.474,6.044-13.474,13.474c0,7.43,6.044,13.474,13.474,13.474s13.474-6.044,13.474-13.474
	C409.6,140.781,403.556,134.737,396.126,134.737z M150.905,288.337c0-16.345,13.297-29.642,29.642-29.642
	s29.642,13.297,29.642,29.642c0,16.345-13.297,29.642-29.642,29.642S150.905,304.682,150.905,288.337z M167.073,288.337
	c0,7.43,6.044,13.474,13.474,13.474s13.474-6.044,13.474-13.474s-6.044-13.474-13.474-13.474S167.073,280.908,167.073,288.337z
	 M226.358,169.769c0-16.345,13.297-29.642,29.642-29.642s29.642,13.297,29.642,29.642S272.345,199.411,256,199.411
	S226.358,186.114,226.358,169.769z M242.526,169.769c0,7.43,6.044,13.474,13.474,13.474c7.43,0,13.474-6.044,13.474-13.474
	S263.43,156.295,256,156.295C248.57,156.295,242.526,162.34,242.526,169.769z M452.715,29.642C452.715,13.298,466.013,0,482.358,0
	S512,13.298,512,29.642s-13.297,29.642-29.642,29.642S452.715,45.987,452.715,29.642z M468.884,29.642
	c0,7.43,6.044,13.474,13.474,13.474s13.474-6.044,13.474-13.474s-6.044-13.474-13.474-13.474S468.884,22.213,468.884,29.642z
	 M150.905,363.79c0-16.345,13.297-29.642,29.642-29.642s29.642,13.297,29.642,29.642c0,16.345-13.297,29.642-29.642,29.642
	S150.905,380.135,150.905,363.79z M167.073,363.79c0,7.43,6.044,13.474,13.474,13.474s13.474-6.044,13.474-13.474
	s-6.044-13.474-13.474-13.474S167.073,356.361,167.073,363.79z M288.337,247.916c16.345,0,29.642,13.297,29.642,29.642
	c0,16.345-13.297,29.642-29.642,29.642c-16.345,0-29.642-13.297-29.642-29.642C258.694,261.213,271.992,247.916,288.337,247.916z
	 M274.863,277.558c0,7.43,6.044,13.474,13.474,13.474s13.474-6.044,13.474-13.474s-6.044-13.474-13.474-13.474
	S274.863,270.129,274.863,277.558z M64.673,417.684c0-16.345,13.297-29.642,29.642-29.642s29.642,13.297,29.642,29.642
	s-13.297,29.642-29.642,29.642S64.673,434.03,64.673,417.684z M80.842,417.684c0,7.43,6.044,13.474,13.474,13.474
	c7.43,0,13.474-6.044,13.474-13.474s-6.044-13.474-13.474-13.474C86.886,404.211,80.842,410.255,80.842,417.684z M344.926,72.758
	c0-16.345,13.297-29.642,29.642-29.642c16.345,0,29.642,13.298,29.642,29.642S390.913,102.4,374.568,102.4
	C358.223,102.4,344.926,89.103,344.926,72.758z M361.094,72.758c0,7.43,6.044,13.474,13.474,13.474s13.474-6.044,13.474-13.474
	s-6.044-13.474-13.474-13.474S361.094,65.329,361.094,72.758z"/>
<g>
</g>
<g>
</g>
<g>
</g>
<g>
</g>
<g>
</g>
<g>
</g>
<g>
</g>
<g>
</g>
<g>
</g>
<g>
</g>
<g>
</g>
<g>
</g>
<g>
</g>
<g>
</g>
<g>
</g>
</svg>
