<?xml version="1.0" encoding="iso-8859-1"?>
<!-- Generator: Adobe Illustrator 19.0.0, SVG Export Plug-In . SVG Version: 6.00 Build 0)  -->
<svg version="1.1" id="Layer_1" xmlns="http://www.w3.org/2000/svg" xmlns:xlink="http://www.w3.org/1999/xlink" x="0px" y="0px"
	 viewBox="0 0 512 512" style="enable-background:new 0 0 512 512;" xml:space="preserve">
<path style="fill:#EDEDED;" d="M460.8,482.358H51.2c-11.906,0-21.558-9.651-21.558-21.558V51.2c0-11.906,9.651-21.558,21.558-21.558
	h409.6c11.906,0,21.558,9.651,21.558,21.558v409.6C482.358,472.707,472.706,482.358,460.8,482.358z"/>
<path d="M509.632,488.075l-21.558,21.558c-1.578,1.578-3.648,2.367-5.716,2.367s-4.138-0.789-5.716-2.367
	c-3.157-3.158-3.157-8.276,0-11.433l7.758-7.757H51.2c-16.344-0.001-29.642-13.299-29.642-29.643V27.601L13.8,35.358
	c-3.157,3.156-8.276,3.156-11.432,0c-3.157-3.158-3.157-8.276,0-11.433L23.926,2.367c3.157-3.156,8.276-3.156,11.432,0
	l21.558,21.558c3.157,3.158,3.157,8.276,0,11.433c-3.157,3.156-8.276,3.156-11.432,0l-7.758-7.758V460.8
	c0,7.43,6.044,13.474,13.474,13.474h433.199l-7.758-7.757c-3.157-3.158-3.157-8.276,0-11.433c3.157-3.156,8.276-3.156,11.432,0
	l21.558,21.558C512.79,479.799,512.79,484.917,509.632,488.075z M66.859,433.713c-3.054,3.257-2.889,8.374,0.369,11.428
	c1.56,1.462,3.546,2.186,5.527,2.186c2.156,0,4.308-0.858,5.899-2.555l159.289-169.909h71.951c2.22,0,4.342-0.913,5.869-2.524
	L495.831,82.266v10.2c0,4.466,3.62,8.084,8.084,8.084S512,96.932,512,92.466V61.979c0-4.466-3.62-8.084-8.084-8.084h-30.487
	c-4.465,0-8.084,3.618-8.084,8.084s3.62,8.084,8.084,8.084h11.692L306.417,258.695h-71.975c-2.234,0-4.37,0.925-5.898,2.555
	L66.859,433.713z M447.326,400.438c0-4.466-3.62-8.084-8.084-8.084s-8.084,3.618-8.084,8.084v4.312c0,4.466,3.62,8.084,8.084,8.084
	s8.084-3.618,8.084-8.084V400.438z M439.242,429.002c-4.465,0-8.084,3.618-8.084,8.084v4.312c0,4.466,3.62,8.084,8.084,8.084
	s8.084-3.618,8.084-8.084v-4.312C447.326,432.621,443.706,429.002,439.242,429.002z M447.326,327.141
	c0-4.466-3.62-8.084-8.084-8.084s-8.084,3.618-8.084,8.084v4.312c0,4.466,3.62,8.084,8.084,8.084s8.084-3.618,8.084-8.084V327.141z
	 M447.326,363.79c0-4.466-3.62-8.084-8.084-8.084s-8.084,3.618-8.084,8.084v4.312c0,4.466,3.62,8.084,8.084,8.084
	s8.084-3.618,8.084-8.084V363.79z M292.648,156.295h4.312c4.465,0,8.084-3.618,8.084-8.084c0-4.466-3.62-8.084-8.084-8.084h-4.312
	c-4.465,0-8.084,3.618-8.084,8.084C284.564,152.676,288.184,156.295,292.648,156.295z M365.945,156.295h4.312
	c4.465,0,8.084-3.618,8.084-8.084c0-4.466-3.62-8.084-8.084-8.084h-4.312c-4.465,0-8.084,3.618-8.084,8.084
	C357.861,152.676,361.48,156.295,365.945,156.295z M329.297,156.295h4.312c4.465,0,8.084-3.618,8.084-8.084
	c0-4.466-3.62-8.084-8.084-8.084h-4.312c-4.465,0-8.084,3.618-8.084,8.084C321.212,152.676,324.832,156.295,329.297,156.295z
	 M256,156.295h4.312c4.465,0,8.084-3.618,8.084-8.084c0-4.466-3.62-8.084-8.084-8.084H256c-4.465,0-8.084,3.618-8.084,8.084
	C247.916,152.676,251.535,156.295,256,156.295z M146.054,156.295h4.312c4.465,0,8.084-3.618,8.084-8.084
	c0-4.466-3.62-8.084-8.084-8.084h-4.312c-4.465,0-8.084,3.618-8.084,8.084C137.97,152.676,141.59,156.295,146.054,156.295z
	 M109.406,156.295h4.312c4.465,0,8.084-3.618,8.084-8.084c0-4.466-3.62-8.084-8.084-8.084h-4.312c-4.465,0-8.084,3.618-8.084,8.084
	C101.322,152.676,104.941,156.295,109.406,156.295z M72.758,156.295h4.312c4.465,0,8.084-3.618,8.084-8.084
	c0-4.466-3.62-8.084-8.084-8.084h-4.312c-4.465,0-8.084,3.618-8.084,8.084C64.673,152.676,68.293,156.295,72.758,156.295z
	 M182.703,156.295h4.312c4.465,0,8.084-3.618,8.084-8.084c0-4.466-3.62-8.084-8.084-8.084h-4.312c-4.465,0-8.084,3.618-8.084,8.084
	C174.619,152.676,178.238,156.295,182.703,156.295z M447.326,290.493c0-4.466-3.62-8.084-8.084-8.084s-8.084,3.618-8.084,8.084
	v4.312c0,4.466,3.62,8.084,8.084,8.084s8.084-3.618,8.084-8.084V290.493z M447.326,217.196c0-4.466-3.62-8.084-8.084-8.084
	s-8.084,3.618-8.084,8.084v4.312c0,4.466,3.62,8.084,8.084,8.084s8.084-3.618,8.084-8.084V217.196z M219.351,156.295h4.312
	c4.465,0,8.084-3.618,8.084-8.084c0-4.466-3.62-8.084-8.084-8.084h-4.312c-4.465,0-8.084,3.618-8.084,8.084
	C211.267,152.676,214.887,156.295,219.351,156.295z M447.326,253.844c0-4.466-3.62-8.084-8.084-8.084s-8.084,3.618-8.084,8.084
	v4.312c0,4.466,3.62,8.084,8.084,8.084s8.084-3.618,8.084-8.084V253.844z M447.326,180.548c0-4.466-3.62-8.084-8.084-8.084
	s-8.084,3.618-8.084,8.084v4.312c0,4.466,3.62,8.084,8.084,8.084s8.084-3.618,8.084-8.084V180.548z"/>
<g>
</g>
<g>
</g>
<g>
</g>
<g>
</g>
<g>
</g>
<g>
</g>
<g>
</g>
<g>
</g>
<g>
</g>
<g>
</g>
<g>
</g>
<g>
</g>
<g>
</g>
<g>
</g>
<g>
</g>
</svg>
