<?xml version="1.0" encoding="iso-8859-1"?>
<!-- Generator: Adobe Illustrator 19.0.0, SVG Export Plug-In . SVG Version: 6.00 Build 0)  -->
<svg version="1.1" id="Layer_1" xmlns="http://www.w3.org/2000/svg" xmlns:xlink="http://www.w3.org/1999/xlink" x="0px" y="0px"
	 viewBox="0 0 512 512" style="enable-background:new 0 0 512 512;" xml:space="preserve">
<path style="fill:#FFBC00;" d="M324.36,245.575l-94.759,62.538c-3.601,2.377-8.273,2.377-11.874,0l-94.759-62.538
	c-6.456-4.261-6.456-13.732,0-17.992l94.759-62.538c3.601-2.377,8.273-2.377,11.874,0l94.759,62.538
	C330.816,231.842,330.816,241.314,324.36,245.575z"/>
<path style="fill:#FF6029;" d="M115.874,417.684v75.453c0,5.953-4.826,10.779-10.779,10.779H18.863
	c-5.953,0-10.779-4.826-10.779-10.779v-75.453c0-5.953,4.826-10.779,10.779-10.779h86.232
	C111.048,406.905,115.874,411.731,115.874,417.684z"/>
<path style="fill:#92B703;" d="M288.337,18.863v75.453c0,5.953-4.826,10.779-10.779,10.779H169.768
	c-5.953,0-10.779-4.826-10.779-10.779V18.863c0-5.953,4.826-10.779,10.779-10.779h107.789
	C283.511,8.084,288.337,12.91,288.337,18.863z"/>
<path style="fill:#73A4BC;" d="M439.242,417.684v75.453c0,5.953-4.826,10.779-10.779,10.779h-86.232
	c-5.953,0-10.779-4.826-10.779-10.779v-75.453c0-5.953,4.826-10.779,10.779-10.779h86.232
	C434.416,406.905,439.242,411.731,439.242,417.684z"/>
<path d="M301.811,51.2c0-4.465,3.62-8.084,8.084-8.084h2.156c4.465,0,8.084,3.62,8.084,8.084s-3.62,8.084-8.084,8.084h-2.156
	C305.429,59.284,301.811,55.665,301.811,51.2z M342.835,59.284h4.105c4.465,0,8.084-3.62,8.084-8.084s-3.62-8.084-8.084-8.084
	h-4.105c-4.465,0-8.084,3.62-8.084,8.084S338.369,59.284,342.835,59.284z M377.724,59.284h4.105c4.465,0,8.084-3.62,8.084-8.084
	s-3.62-8.084-8.084-8.084h-4.105c-4.465,0-8.084,3.62-8.084,8.084S373.26,59.284,377.724,59.284z M503.916,170.388
	c-4.465,0-8.084,3.62-8.084,8.084v4.105c0,4.465,3.62,8.084,8.084,8.084s8.084-3.62,8.084-8.084v-4.105
	C512,174.008,508.38,170.388,503.916,170.388z M503.916,275.056c-4.465,0-8.084,3.62-8.084,8.084v4.105
	c0,4.465,3.62,8.084,8.084,8.084s8.084-3.62,8.084-8.084v-4.105C512,278.676,508.38,275.056,503.916,275.056z M503.916,205.277
	c-4.465,0-8.084,3.62-8.084,8.084v4.105c0,4.465,3.62,8.084,8.084,8.084s8.084-3.62,8.084-8.084v-4.105
	C512,208.897,508.38,205.277,503.916,205.277z M503.916,240.167c-4.465,0-8.084,3.62-8.084,8.084v4.105
	c0,4.465,3.62,8.084,8.084,8.084s8.084-3.62,8.084-8.084v-4.105C512,243.785,508.38,240.167,503.916,240.167z M503.916,309.945
	c-4.465,0-8.084,3.62-8.084,8.084v4.105c0,4.465,3.62,8.084,8.084,8.084s8.084-3.62,8.084-8.084v-4.105
	C512,313.565,508.38,309.945,503.916,309.945z M412.613,59.284h4.105c4.465,0,8.084-3.62,8.084-8.084s-3.62-8.084-8.084-8.084
	h-4.105c-4.465,0-8.084,3.62-8.084,8.084S408.148,59.284,412.613,59.284z M503.916,100.61c-4.465,0-8.084,3.62-8.084,8.084v4.105
	c0,4.465,3.62,8.084,8.084,8.084s8.084-3.62,8.084-8.084v-4.105C512,104.229,508.38,100.61,503.916,100.61z M503.916,65.72
	c-4.465,0-8.084,3.62-8.084,8.084v4.105c0,4.465,3.62,8.084,8.084,8.084S512,82.374,512,77.909v-4.105
	C512,69.34,508.38,65.72,503.916,65.72z M503.916,135.499c-4.465,0-8.084,3.62-8.084,8.084v4.105c0,4.465,3.62,8.084,8.084,8.084
	s8.084-3.62,8.084-8.084v-4.105C512,139.117,508.38,135.499,503.916,135.499z M503.916,414.612c-4.465,0-8.084,3.62-8.084,8.084
	v4.105c0,4.465,3.62,8.084,8.084,8.084s8.084-3.62,8.084-8.084v-4.105C512,418.232,508.38,414.612,503.916,414.612z M494.408,53.12
	c0.844-4.385-2.025-8.623-6.41-9.467c-1.836-0.354-3.718-0.535-5.594-0.537c-0.004,0-0.008,0-0.012,0
	c-4.459,0-8.078,3.612-8.084,8.072c-0.007,4.465,3.608,8.09,8.072,8.096c0.861,0.001,1.724,0.084,2.561,0.246
	c0.516,0.099,1.03,0.148,1.537,0.148C490.276,59.677,493.663,56.987,494.408,53.12z M491.242,449.373
	c-0.643,0.565-1.343,1.07-2.078,1.502c-3.85,2.26-5.141,7.213-2.88,11.065c1.506,2.564,4.206,3.994,6.979,3.994
	c1.391,0,2.799-0.359,4.085-1.113c1.617-0.949,3.152-2.059,4.563-3.298c3.354-2.947,3.685-8.055,0.739-11.408
	C499.703,446.757,494.596,446.426,491.242,449.373z M503.916,379.724c-4.465,0-8.084,3.62-8.084,8.084v4.105
	c0,4.465,3.62,8.084,8.084,8.084s8.084-3.62,8.084-8.084v-4.105C512,383.344,508.38,379.724,503.916,379.724z M459.691,51.2
	c0-4.465-3.62-8.084-8.084-8.084h-4.105c-4.465,0-8.084,3.62-8.084,8.084s3.62,8.084,8.084,8.084h4.105
	C456.071,59.284,459.691,55.665,459.691,51.2z M503.916,344.835c-4.465,0-8.084,3.62-8.084,8.084v4.105
	c0,4.465,3.62,8.084,8.084,8.084s8.084-3.62,8.084-8.084v-4.105C512,348.453,508.38,344.835,503.916,344.835z M462.956,452.716
	H460.8c-4.465,0-8.084,3.62-8.084,8.084c0,4.465,3.62,8.084,8.084,8.084h2.156c4.465,0,8.084-3.62,8.084-8.084
	C471.04,456.335,467.42,452.716,462.956,452.716z M202.105,220.968h43.116c4.465,0,8.084-3.62,8.084-8.084
	c0-4.465-3.62-8.084-8.084-8.084h-43.116c-4.465,0-8.084,3.62-8.084,8.084C194.021,217.349,197.641,220.968,202.105,220.968z
	 M266.779,237.137h-86.232c-4.465,0-8.084,3.62-8.084,8.084c0,4.465,3.62,8.084,8.084,8.084h86.232c4.465,0,8.084-3.62,8.084-8.084
	C274.863,240.756,271.244,237.137,266.779,237.137z M447.326,417.684v75.453c0,10.401-8.463,18.863-18.863,18.863h-86.232
	c-10.401,0-18.863-8.463-18.863-18.863v-75.453c0-10.401,8.463-18.863,18.863-18.863h35.032v-13.474
	c0-1.485-1.209-2.695-2.695-2.695H72.758c-1.485,0-2.695,1.209-2.695,2.695v13.474h35.032c10.401,0,18.863,8.463,18.863,18.863
	v75.453c0,10.401-8.463,18.863-18.863,18.863H18.863C8.463,512,0,503.537,0,493.137v-75.453c0-10.401,8.463-18.863,18.863-18.863
	h35.032v-13.474c0-10.401,8.463-18.863,18.863-18.863h142.821v-50.324c-0.79-0.376-1.561-0.81-2.306-1.301l-94.76-62.538
	c-5.305-3.502-8.473-9.386-8.473-15.744s3.168-12.242,8.473-15.744l94.759-62.538c0.745-0.492,1.516-0.925,2.307-1.301v-43.815
	h-45.811c-10.401,0-18.863-8.463-18.863-18.863V18.863C150.905,8.463,159.368,0,169.768,0h107.789
	c10.401,0,18.863,8.463,18.863,18.863v75.453c0,10.401-8.463,18.863-18.863,18.863h-45.811v43.816
	c0.79,0.376,1.561,0.809,2.306,1.301l94.76,62.538c5.305,3.502,8.473,9.386,8.473,15.744s-3.168,12.242-8.473,15.744l-94.759,62.538
	c-0.745,0.492-1.516,0.925-2.307,1.301v50.323h142.821c10.401,0,18.863,8.463,18.863,18.863v13.474h35.032
	C438.864,398.821,447.326,407.284,447.326,417.684z M18.863,414.989c-1.485,0-2.695,1.209-2.695,2.695v75.453
	c0,1.485,1.209,2.695,2.695,2.695h86.232c1.485,0,2.695-1.209,2.695-2.695v-75.453c0-1.485-1.209-2.695-2.695-2.695H18.863z
	 M277.558,97.011c1.485,0,2.695-1.209,2.695-2.695V18.863c0-1.485-1.209-2.695-2.695-2.695H169.768
	c-1.485,0-2.695,1.209-2.695,2.695v75.453c0,1.485,1.209,2.695,2.695,2.695H277.558z M225.147,301.364l94.759-62.538
	c1.054-0.695,1.212-1.707,1.212-2.248s-0.157-1.553-1.212-2.248l-94.759-62.538c-0.451-0.298-0.967-0.446-1.484-0.446
	s-1.034,0.149-1.484,0.446l-94.759,62.538c-1.054,0.695-1.212,1.707-1.212,2.248s0.157,1.553,1.212,2.248l94.759,62.538
	c0.435,0.288,0.933,0.437,1.434,0.446c0.033,0,0.068,0,0.101,0C224.214,301.802,224.712,301.653,225.147,301.364z M431.158,417.684
	c0-1.485-1.209-2.695-2.695-2.695h-86.232c-1.485,0-2.695,1.209-2.695,2.695v75.453c0,1.485,1.209,2.695,2.695,2.695h86.232
	c1.485,0,2.695-1.209,2.695-2.695V417.684z"/>
<g>
</g>
<g>
</g>
<g>
</g>
<g>
</g>
<g>
</g>
<g>
</g>
<g>
</g>
<g>
</g>
<g>
</g>
<g>
</g>
<g>
</g>
<g>
</g>
<g>
</g>
<g>
</g>
<g>
</g>
</svg>
