<?xml version="1.0" encoding="iso-8859-1"?>
<!-- Generator: Adobe Illustrator 19.0.0, SVG Export Plug-In . SVG Version: 6.00 Build 0)  -->
<svg version="1.1" id="Layer_1" xmlns="http://www.w3.org/2000/svg" xmlns:xlink="http://www.w3.org/1999/xlink" x="0px" y="0px"
	 viewBox="0 0 512 512" style="enable-background:new 0 0 512 512;" xml:space="preserve">
<path style="fill:#C6C6C6;" d="M428.464,439.242h43.116c17.86,0,32.337,14.477,32.337,32.337l0,0
	c0,17.86-14.477,32.337-32.337,32.337H40.422c-17.86,0-32.337-14.477-32.337-32.337l0,0c0-17.86,14.477-32.337,32.337-32.337h64.674
	H428.464z"/>
<path style="fill:#73A4BC;" d="M234.442,29.642c0-11.906,9.651-21.558,21.558-21.558h150.905c11.906,0,21.558,9.651,21.558,21.558
	v441.937H234.442V29.642z"/>
<path style="fill:#FF6029;" d="M105.095,202.105c0-11.906,9.651-21.558,21.558-21.558h150.905c11.906,0,21.558,9.651,21.558,21.558
	v269.474H105.095V202.105z"/>
<path style="fill:#B7441C;" d="M299.116,202.105v269.474h-64.674V180.547h43.116C289.464,180.547,299.116,190.199,299.116,202.105z"
	/>
<path d="M471.579,431.158h-35.032V29.642C436.547,13.298,423.249,0,406.905,0H256c-16.344,0-29.642,13.298-29.642,29.642v118.568
	c0,4.466,3.618,8.084,8.084,8.084s8.084-3.618,8.084-8.084V29.642c0-7.43,6.044-13.474,13.474-13.474h150.905
	c7.43,0,13.474,6.044,13.474,13.474v433.853H307.2V202.105c0-16.344-13.298-29.642-29.642-29.642H126.653
	c-16.344,0-29.642,13.298-29.642,29.642v229.053H40.421C18.132,431.158,0,449.29,0,471.579C0,493.868,18.132,512,40.421,512h431.158
	C493.868,512,512,493.868,512,471.579C512,449.29,493.868,431.158,471.579,431.158z M113.179,202.105
	c0-7.43,6.044-13.474,13.474-13.474h150.905c7.43,0,13.474,6.044,13.474,13.474v261.389H113.179V202.105z M471.579,495.832H40.421
	c-13.372,0-24.253-10.88-24.253-24.253s10.88-24.253,24.253-24.253h56.589v16.168H51.2c-4.466,0-8.084,3.618-8.084,8.084
	s3.618,8.084,8.084,8.084h409.6c4.466,0,8.084-3.618,8.084-8.084s-3.618-8.084-8.084-8.084h-24.253v-16.168h35.032
	c13.372,0,24.253,10.88,24.253,24.253S484.951,495.832,471.579,495.832z"/>
<g>
</g>
<g>
</g>
<g>
</g>
<g>
</g>
<g>
</g>
<g>
</g>
<g>
</g>
<g>
</g>
<g>
</g>
<g>
</g>
<g>
</g>
<g>
</g>
<g>
</g>
<g>
</g>
<g>
</g>
</svg>
