<?xml version="1.0" encoding="iso-8859-1"?>
<!-- Generator: Adobe Illustrator 19.0.0, SVG Export Plug-In . SVG Version: 6.00 Build 0)  -->
<svg version="1.1" id="Layer_1" xmlns="http://www.w3.org/2000/svg" xmlns:xlink="http://www.w3.org/1999/xlink" x="0px" y="0px"
	 viewBox="0 0 512 512" style="enable-background:new 0 0 512 512;" xml:space="preserve">
<path style="fill:#C6C6C6;" d="M503.916,471.579L503.916,471.579c0,17.86-14.477,32.337-32.337,32.337H40.421
	c-17.86,0-32.337-14.477-32.337-32.337l0,0c0-17.86,14.477-32.337,32.337-32.337h431.158
	C489.439,439.242,503.916,453.719,503.916,471.579z"/>
<path style="fill:#73A4BC;" d="M291.887,18.262l158.134,453.317H105.095L263.228,18.262c2.126-6.094,7.874-10.177,14.33-10.177l0,0
	C284.012,8.084,289.761,12.167,291.887,18.262z"/>
<path style="fill:#FF6029;" d="M208.033,134.56l123.42,337.019H61.979l123.42-337.019c1.74-4.749,6.259-7.907,11.317-7.907l0,0
	C201.773,126.653,206.293,129.811,208.033,134.56z"/>
<path style="fill:#B7441C;" d="M215.524,155.015l115.929,316.564H105.095L215.524,155.015z"/>
<path d="M471.579,431.158h-27.096L299.52,15.598C296.265,6.268,287.439,0,277.558,0c-9.881,0-18.707,6.268-21.962,15.599
	l-28.787,82.521c-1.47,4.216,0.755,8.826,4.97,10.296c4.217,1.47,8.826-0.755,10.296-4.97l28.786-82.521
	c0.993-2.846,3.684-4.757,6.697-4.757c3.013,0,5.704,1.911,6.696,4.756l154.385,442.571H337.101L215.624,131.78
	c-2.895-7.902-10.493-13.212-18.908-13.212s-16.013,5.31-18.908,13.212L68.173,431.158H40.421C18.132,431.158,0,449.29,0,471.579
	C0,493.868,18.132,512,40.421,512h431.158C493.868,512,512,493.868,512,471.579C512,449.29,493.868,431.158,471.579,431.158z
	 M192.99,137.34c0.57-1.556,2.067-2.603,3.726-2.603c1.659,0,3.155,1.047,3.726,2.603l119.44,326.155H73.549L192.99,137.34z
	 M471.579,495.832H40.421c-13.373,0-24.253-10.879-24.253-24.253c0-13.373,10.879-24.253,24.253-24.253h21.83l-5.921,16.168H51.2
	c-4.465,0-8.084,3.62-8.084,8.084s3.62,8.084,8.084,8.084h10.59c0.125,0.003,0.25,0.003,0.376,0h269.099
	c0.125,0.003,0.25,0.003,0.376,0h118.192c0.124,0.003,0.25,0.003,0.376,0h10.591c4.465,0,8.084-3.62,8.084-8.084
	s-3.62-8.084-8.084-8.084h-5.037l-5.641-16.168h21.456c13.373,0,24.253,10.879,24.253,24.253
	C495.832,484.952,484.952,495.832,471.579,495.832z"/>
<g>
</g>
<g>
</g>
<g>
</g>
<g>
</g>
<g>
</g>
<g>
</g>
<g>
</g>
<g>
</g>
<g>
</g>
<g>
</g>
<g>
</g>
<g>
</g>
<g>
</g>
<g>
</g>
<g>
</g>
</svg>
