<?xml version="1.0" encoding="iso-8859-1"?>
<!-- Generator: Adobe Illustrator 19.0.0, SVG Export Plug-In . SVG Version: 6.00 Build 0)  -->
<svg version="1.1" id="Layer_1" xmlns="http://www.w3.org/2000/svg" xmlns:xlink="http://www.w3.org/1999/xlink" x="0px" y="0px"
	 viewBox="0 0 512 512" style="enable-background:new 0 0 512 512;" xml:space="preserve">
<path style="fill:#C6C6C6;" d="M503.916,406.905L503.916,406.905c0,17.86-14.477,32.337-32.337,32.337H40.421
	c-17.86,0-32.337-14.477-32.337-32.337l0,0c0-17.86,14.477-32.337,32.337-32.337h431.158
	C489.439,374.568,503.916,389.046,503.916,406.905z"/>
<path style="fill:#B7441C;" d="M271.961,82.209l178.06,324.696H61.979l178.06-324.696c3.196-5.828,9.315-9.451,15.961-9.451l0,0
	C262.647,72.758,268.766,76.381,271.961,82.209z"/>
<path style="fill:#FF6029;" d="M109.267,320.674L240.039,82.209c3.196-5.828,9.315-9.451,15.961-9.451
	c6.646,0,12.766,3.623,15.961,9.451l130.771,238.465H109.267z"/>
<path style="fill:#FFBC00;" d="M156.556,234.442l83.483-152.233c3.196-5.828,9.315-9.451,15.961-9.451
	c6.646,0,12.766,3.623,15.961,9.451l83.483,152.233H156.556z"/>
<path style="fill:#FFDB57;" d="M203.844,148.211l36.195-66.002c3.196-5.828,9.315-9.451,15.961-9.451
	c6.646,0,12.766,3.623,15.961,9.451l36.195,66.002H203.844z"/>
<path d="M471.579,366.484h-34.504L279.051,78.321c-4.618-8.417-13.45-13.647-23.051-13.647c-9.601,0-18.433,5.23-23.051,13.648
	l-36.139,65.9c-0.04,0.07-0.079,0.141-0.116,0.213l-94.448,172.227c-0.049,0.085-0.096,0.172-0.142,0.259l-27.178,49.563H40.421
	C18.132,366.484,0,384.617,0,406.905s18.132,40.421,40.421,40.421h431.158c22.289,0,40.421-18.132,40.421-40.421
	S493.868,366.484,471.579,366.484z M114.054,328.758h249.735c4.466,0,8.084-3.62,8.084-8.084s-3.618-8.084-8.084-8.084H122.92
	l38.423-70.063h159.331c4.466,0,8.084-3.62,8.084-8.084c0-4.465-3.618-8.084-8.084-8.084H170.208l38.423-70.063h68.927
	c4.466,0,8.084-3.62,8.084-8.084c0-4.465-3.618-8.084-8.084-8.084h-60.061l29.629-54.029c1.777-3.241,5.178-5.255,8.874-5.255
	s7.097,2.014,8.873,5.255l171.494,312.724H75.633L114.054,328.758z M471.579,431.158H40.421c-13.372,0-24.253-10.879-24.253-24.253
	s10.88-24.253,24.253-24.253h25.638l-8.867,16.168H51.2c-4.466,0-8.084,3.62-8.084,8.084s3.618,8.084,8.084,8.084h10.616
	c0.103,0.001,0.208,0.001,0.312,0h387.745c0.106,0.002,0.209,0.002,0.313,0h10.616c4.466,0,8.084-3.62,8.084-8.084
	s-3.618-8.084-8.084-8.084h-5.993l-8.867-16.168h25.638c13.372,0,24.253,10.879,24.253,24.253S484.951,431.158,471.579,431.158z"/>
<g>
</g>
<g>
</g>
<g>
</g>
<g>
</g>
<g>
</g>
<g>
</g>
<g>
</g>
<g>
</g>
<g>
</g>
<g>
</g>
<g>
</g>
<g>
</g>
<g>
</g>
<g>
</g>
<g>
</g>
</svg>
