<?xml version="1.0" encoding="iso-8859-1"?>
<!-- Generator: Adobe Illustrator 19.0.0, SVG Export Plug-In . SVG Version: 6.00 Build 0)  -->
<svg version="1.1" id="Layer_1" xmlns="http://www.w3.org/2000/svg" xmlns:xlink="http://www.w3.org/1999/xlink" x="0px" y="0px"
	 viewBox="0 0 512.001 512.001" style="enable-background:new 0 0 512.001 512.001;" xml:space="preserve">
<path style="fill:#EDEDED;" d="M503.916,256c0,136.92-110.996,247.916-247.916,247.916S8.084,392.919,8.084,256
	S119.08,8.084,256,8.084S503.916,119.08,503.916,256z"/>
<path style="fill:#C6C6C6;" d="M450.021,256c0,107.155-86.866,194.021-194.021,194.021S61.979,363.155,61.979,256
	S148.845,61.979,256,61.979S450.021,148.845,450.021,256z"/>
<path style="fill:#969696;" d="M396.126,256c0,77.39-62.737,140.126-140.126,140.126S115.874,333.39,115.874,256
	S178.61,115.874,256,115.874S396.126,178.61,396.126,256z"/>
<path style="fill:#EDEDED;" d="M316.003,256c0,33.139-26.864,60.003-60.003,60.003S195.997,289.139,195.997,256
	s26.864-60.003,60.003-60.003S316.003,222.861,316.003,256z"/>
<path style="fill:#73A4BC;" d="M256,169.768c-47.625,0-86.232,38.607-86.232,86.232s38.607,86.232,86.232,86.232
	s86.232-38.607,86.232-86.232S303.625,169.768,256,169.768z M256,288.337c-17.86,0-32.337-14.477-32.337-32.337
	S238.14,223.663,256,223.663S288.337,238.14,288.337,256S273.86,288.337,256,288.337z"/>
<path style="fill:#98C7E5;" d="M336.337,287.329c-12.539,32.129-43.768,54.903-80.337,54.903s-67.797-22.774-80.337-54.903h72.299
	c2.57,0.658,5.263,1.008,8.038,1.008c2.775,0,5.468-0.35,8.038-1.008H336.337z"/>
<path style="fill:#FF6029;" d="M223.663,256c0,17.86,14.477,32.337,32.337,32.337v96.56c0,6.287-5.363,11.268-11.629,10.754
	C172.422,389.74,115.874,329.474,115.874,256s56.549-133.74,128.497-139.651c6.266-0.515,11.629,4.466,11.629,10.753v96.561
	C238.14,223.663,223.663,238.14,223.663,256z"/>
<path style="fill:#B7441C;" d="M247.962,287.329H119.393c-2.3-10.073-3.519-20.559-3.519-31.329c0-3.628,0.15-7.221,0.421-10.779
	h101.547c3.671,0,6.498,3.21,6.057,6.855c-0.155,1.286-0.236,2.596-0.236,3.924C223.663,271.084,233.992,283.755,247.962,287.329z"
	/>
<path style="fill:#FFBC00;" d="M256,61.979v161.684c-17.86,0-32.337,14.477-32.337,32.337H73.075
	c-6.168,0-11.125-5.169-10.77-11.327C68.168,142.791,152.647,61.979,256,61.979z M272.707,62.703
	c-5.508-0.47-11.078-0.724-16.707-0.724v161.684c1.019,0,2.028,0.047,3.022,0.139c7.386,0.686,13.685-5.351,13.685-12.768V62.703z"
	/>
<path style="fill:#E0A000;" d="M288.337,64.677V256c0-17.86-14.478-32.337-32.337-32.337S223.663,238.14,223.663,256V64.677
	c10.518-1.765,21.318-2.698,32.337-2.698l0,0l0,0l0,0l0,0C267.019,61.979,277.819,62.911,288.337,64.677z"/>
<path style="fill:#92B703;" d="M279.557,9.189c118.117,11.134,212.12,105.137,223.254,223.254
	c1.191,12.639-8.778,23.557-21.474,23.557h-193c0-17.86-14.477-32.337-32.337-32.337v-193C256,17.967,266.919,7.998,279.557,9.189z"
	/>
<path d="M278.623,394.411c-0.951-4.362,1.816-8.67,6.178-9.619c49.985-10.886,89.551-50.167,100.797-100.075
	c0.981-4.355,5.309-7.091,9.663-6.109c4.356,0.982,7.091,5.308,6.11,9.663c-12.622,56.014-57.029,100.102-113.13,112.319
	c-0.579,0.126-1.158,0.186-1.728,0.186C282.794,400.776,279.446,398.194,278.623,394.411z M503.878,279.881
	c-4.425-0.58-8.484,2.545-9.061,6.972C479.299,405.99,376.846,495.831,256.507,495.831c-132.523,0-240.338-107.815-240.338-240.338
	c0-120.34,89.841-222.792,208.978-238.312c4.427-0.577,7.55-4.633,6.973-9.061s-4.65-7.55-9.061-6.972
	C161.822,9.125,105.452,39.116,64.33,85.596C22.846,132.484,0,192.822,0,255.493c0,68.515,26.681,132.93,75.129,181.377
	S187.991,512,256.507,512c62.671,0,123.009-22.846,169.898-64.331c46.479-41.122,76.47-97.491,84.447-158.729
	C511.428,284.513,508.306,280.457,503.878,279.881z M248.422,53.151V29.696c0-8.344,3.54-16.353,9.713-21.97
	c6.161-5.608,14.445-8.376,22.736-7.596C403.191,11.66,500.34,108.809,511.871,231.13c0.781,8.287-1.988,16.574-7.596,22.735
	c-5.618,6.173-13.627,9.713-21.971,9.713H350.656c-3.887,45.669-40.396,82.179-86.066,86.066v35.011
	c0,5.269-2.224,10.338-6.099,13.908c-3.486,3.212-8.071,4.986-12.774,4.986c-0.509,0-1.016-0.021-1.526-0.063
	c-37.024-3.041-71.361-19.785-96.687-47.146c-23.633-25.532-37.414-58.211-39.277-92.764h-35.02c-5.187,0-10.203-2.163-13.765-5.935
	c-3.535-3.747-5.395-8.836-5.098-13.963C60.343,139.454,144.87,57.239,248.422,53.151z M248.422,295.171
	c-15.852-3.225-28.368-15.741-31.593-31.593h-92.401c4.003,64.791,55.748,118.427,121.089,123.795
	c0.996,0.083,1.698-0.404,2.021-0.702c0.331-0.305,0.885-0.972,0.885-2.017V295.171z M334.417,263.578h-38.234
	c-3.225,15.853-15.74,28.368-31.592,31.593v38.232C301.339,329.619,330.632,300.325,334.417,263.578z M264.591,215.817
	c15.852,3.225,28.367,15.74,31.592,31.592h46.732h139.389c3.859,0,7.415-1.573,10.014-4.427c2.588-2.845,3.816-6.515,3.456-10.335
	c-10.804-114.6-101.82-205.617-216.42-216.42c-3.822-0.36-7.49,0.868-10.335,3.456c-2.854,2.599-4.427,6.155-4.427,10.014v186.12
	H264.591z M232.187,255.493c0,13.41,10.909,24.319,24.319,24.319c13.41,0,24.318-10.909,24.318-24.319s-10.908-24.318-24.318-24.318
	C243.098,231.175,232.187,242.083,232.187,255.493z M70.486,244.609c-0.053,0.916,0.36,1.558,0.716,1.934
	c0.305,0.323,0.971,0.866,2.006,0.866h42.886h100.736c3.225-15.852,15.742-28.368,31.593-31.592V69.333
	C153.432,73.41,75.993,148.928,70.486,244.609z M72.75,286.559c-0.738-4.404-4.908-7.375-9.311-6.636
	c-4.403,0.738-7.374,4.907-6.634,9.31c7.83,46.672,32.067,89.394,68.247,120.297c36.588,31.251,83.272,48.463,131.456,48.463
	s94.868-17.211,131.455-48.463c36.181-30.903,60.417-73.626,68.247-120.297c0.739-4.403-2.231-8.571-6.634-9.31
	c-4.413-0.744-8.573,2.232-9.311,6.636c-15.094,89.968-92.374,155.266-183.756,155.266S87.844,376.527,72.75,286.559z"/>
<g>
</g>
<g>
</g>
<g>
</g>
<g>
</g>
<g>
</g>
<g>
</g>
<g>
</g>
<g>
</g>
<g>
</g>
<g>
</g>
<g>
</g>
<g>
</g>
<g>
</g>
<g>
</g>
<g>
</g>
</svg>
