<?xml version="1.0" encoding="iso-8859-1"?>
<!-- Generator: Adobe Illustrator 19.0.0, SVG Export Plug-In . SVG Version: 6.00 Build 0)  -->
<svg version="1.1" id="Layer_1" xmlns="http://www.w3.org/2000/svg" xmlns:xlink="http://www.w3.org/1999/xlink" x="0px" y="0px"
	 viewBox="0 0 512 512" style="enable-background:new 0 0 512 512;" xml:space="preserve">
<path style="fill:#EDEDED;" d="M460.8,483.499H51.2c-11.906,0-21.558-9.651-21.558-21.558V53.039
	c0-11.906,9.651-21.558,21.558-21.558h409.6c11.906,0,21.558,9.651,21.558,21.558v408.901
	C482.358,473.847,472.707,483.499,460.8,483.499z"/>
<path style="fill:#73A4BC;" d="M236.951,157.477c-2.021,2.018-4.763,3.152-7.622,3.152h-11.545v247.533
	c0,11.888-9.651,21.524-21.558,21.524H153.11c-11.906,0-21.558-9.637-21.558-21.524V160.629h-11.545
	c-2.859,0-5.601-1.134-7.622-3.152c-4.209-4.203-4.209-11.017,0-15.22l54.661-54.576c4.209-4.203,11.034-4.203,15.244,0
	l54.661,54.576C241.161,146.459,241.161,153.274,236.951,157.477z"/>
<path style="fill:#92B703;" d="M399.401,82.14c-2.021,2.018-4.763,3.152-7.622,3.152h-11.545v322.869
	c0,11.888-9.651,21.524-21.558,21.524h-43.116c-11.906,0-21.558-9.637-21.558-21.524V85.293h-11.545
	c-2.859,0-5.601-1.134-7.622-3.152c-4.209-4.203-4.209-11.017,0-15.22l54.661-54.576c4.209-4.203,11.034-4.203,15.244,0
	l54.661,54.576C403.611,71.123,403.611,77.938,399.401,82.14z"/>
<path d="M512,482.392c0,2.146-0.854,4.204-2.372,5.721l-21.558,21.524c-1.578,1.576-3.645,2.363-5.712,2.363
	c-2.071,0-4.141-0.79-5.721-2.372c-3.154-3.159-3.151-8.278,0.009-11.433l7.732-7.719H51.2c-16.345,0-29.642-13.283-29.642-29.61
	V28.336l-7.762,7.749c-3.16,3.155-8.277,3.152-11.433-0.01c-3.154-3.159-3.151-8.278,0.009-11.433L23.93,3.118
	c3.157-3.152,8.267-3.152,11.425,0l21.558,21.524c3.159,3.155,3.164,8.274,0.009,11.433c-1.579,1.582-3.65,2.372-5.721,2.372
	c-2.066,0-4.134-0.787-5.712-2.363l-7.761-7.749v432.53c0,7.412,6.044,13.441,13.474,13.441h433.178l-7.732-7.72
	c-3.159-3.155-3.164-8.274-0.009-11.432c3.154-3.163,8.272-3.166,11.432-0.01l21.558,21.526
	C511.148,478.187,512,480.246,512,482.392z M106.674,162.085c-3.567-3.562-5.531-8.295-5.531-13.332c0-5.037,1.964-9.77,5.53-13.331
	l54.661-54.578c7.353-7.339,19.316-7.339,26.668,0l54.66,54.578c3.566,3.561,5.53,8.294,5.53,13.331c0,5.036-1.964,9.77-5.53,13.331
	c-3.564,3.557-8.299,5.515-13.334,5.515h-3.461v239.454c0,16.326-13.297,29.61-29.642,29.61H153.11
	c-16.345,0-29.642-13.284-29.642-29.61V167.598h-3.46C114.972,167.598,110.237,165.641,106.674,162.085z M117.313,148.753
	c0,0.413,0.102,1.207,0.786,1.888c0.501,0.501,1.198,0.788,1.91,0.788h11.544c4.465,0,8.084,3.618,8.084,8.084v247.538
	c0,7.412,6.044,13.441,13.474,13.441h43.116c7.43,0,13.474-6.03,13.474-13.441V159.514c0-4.466,3.62-8.084,8.084-8.084h11.545
	c0.711,0,1.408-0.288,1.91-0.789c0.682-0.681,0.785-1.475,0.785-1.887c0-0.414-0.102-1.207-0.786-1.89l-54.66-54.578
	c-0.526-0.526-1.218-0.788-1.91-0.788c-0.692,0-1.383,0.262-1.909,0.788l-54.661,54.578
	C117.414,147.545,117.313,148.339,117.313,148.753z M269.123,86.743c-3.564-3.557-5.527-8.29-5.527-13.328
	c0-5.037,1.963-9.771,5.529-13.332l54.66-54.577c7.353-7.34,19.316-7.34,26.668,0l54.661,54.577
	c3.566,3.561,5.53,8.295,5.529,13.332c0,5.037-1.964,9.771-5.53,13.33c-3.561,3.557-8.297,5.516-13.334,5.516h-3.46v314.792
	c0,16.326-13.297,29.61-29.642,29.61h-43.116c-16.345,0-29.642-13.284-29.642-29.61V92.261h-3.461
	C277.42,92.261,272.685,90.301,269.123,86.743z M279.764,73.415c0,0.413,0.101,1.207,0.785,1.888
	c0.503,0.502,1.199,0.789,1.91,0.789h11.545c4.465,0,8.084,3.62,8.084,8.084v322.876c0,7.412,6.044,13.441,13.474,13.441h43.116
	c7.43,0,13.474-6.03,13.474-13.441V84.177c0-4.466,3.62-8.084,8.084-8.084h11.544c0.722,0,1.4-0.28,1.909-0.788
	c0.683-0.682,0.786-1.477,0.786-1.89s-0.101-1.207-0.785-1.89l-54.661-54.577c-0.526-0.526-1.218-0.788-1.91-0.788
	c-0.692,0-1.383,0.262-1.909,0.788l-54.66,54.577C279.865,72.207,279.763,73.002,279.764,73.415z"/>
<g>
</g>
<g>
</g>
<g>
</g>
<g>
</g>
<g>
</g>
<g>
</g>
<g>
</g>
<g>
</g>
<g>
</g>
<g>
</g>
<g>
</g>
<g>
</g>
<g>
</g>
<g>
</g>
<g>
</g>
</svg>
