<?xml version="1.0" encoding="iso-8859-1"?>
<!-- Generator: Adobe Illustrator 19.0.0, SVG Export Plug-In . SVG Version: 6.00 Build 0)  -->
<svg version="1.1" id="Layer_1" xmlns="http://www.w3.org/2000/svg" xmlns:xlink="http://www.w3.org/1999/xlink" x="0px" y="0px"
	 viewBox="0 0 512.001 512.001" style="enable-background:new 0 0 512.001 512.001;" xml:space="preserve">
<path style="fill:#FFBC00;" d="M158.99,180.548H29.643c-11.906,0-21.558-9.651-21.558-21.558V29.643
	c0-11.906,9.651-21.558,21.558-21.558H158.99c11.906,0,21.558,9.651,21.558,21.558V158.99
	C180.548,170.896,170.897,180.548,158.99,180.548z"/>
<path style="fill:#FF6029;" d="M482.359,180.548H353.011c-11.906,0-21.558-9.651-21.558-21.558V29.643
	c0-11.906,9.651-21.558,21.558-21.558h129.347c11.906,0,21.558,9.651,21.558,21.558V158.99
	C503.917,170.896,494.265,180.548,482.359,180.548z"/>
<path style="fill:#B6E152;" d="M158.99,503.916H29.643c-11.906,0-21.558-9.651-21.558-21.558V353.011
	c0-11.906,9.651-21.558,21.558-21.558H158.99c11.906,0,21.558,9.651,21.558,21.558v129.347
	C180.548,494.265,170.897,503.916,158.99,503.916z"/>
<path style="fill:#98C7E5;" d="M482.359,503.916H353.011c-11.906,0-21.558-9.651-21.558-21.558V353.011
	c0-11.906,9.651-21.558,21.558-21.558h129.347c11.906,0,21.558,9.651,21.558,21.558v129.347
	C503.917,494.265,494.265,503.916,482.359,503.916z"/>
<path d="M283.276,476.642c3.157,3.157,3.157,8.276,0,11.432l-21.558,21.558c-1.579,1.578-3.649,2.368-5.717,2.368
	c-2.068,0-4.138-0.789-5.717-2.368l-21.558-21.558c-3.157-3.157-3.157-8.276,0-11.432c3.158-3.157,8.276-3.157,11.433,0l7.757,7.758
	V264.085H27.602l7.758,7.758c3.157,3.157,3.157,8.276,0,11.432c-1.579,1.579-3.649,2.368-5.717,2.368s-4.138-0.789-5.717-2.368
	L2.368,261.716c-3.157-3.157-3.157-8.276,0-11.432l21.558-21.558c3.158-3.157,8.276-3.157,11.433,0
	c3.157,3.157,3.157,8.276,0,11.432l-7.757,7.758h220.314V27.602l-7.757,7.758c-3.158,3.157-8.276,3.157-11.433,0
	c-3.157-3.157-3.157-8.276,0-11.432L250.285,2.37c3.158-3.157,8.276-3.157,11.433,0l21.558,21.558c3.157,3.157,3.157,8.276,0,11.432
	c-1.579,1.578-3.649,2.367-5.717,2.367s-4.138-0.789-5.717-2.368l-7.757-7.757v220.314h220.314l-7.758-7.758
	c-3.157-3.157-3.157-8.276,0-11.432c3.158-3.157,8.276-3.157,11.433,0l21.558,21.558c3.157,3.157,3.157,8.276,0,11.432
	l-21.558,21.558c-1.579,1.578-3.649,2.368-5.717,2.368s-4.138-0.789-5.717-2.368c-3.157-3.157-3.157-8.276,0-11.432l7.758-7.758
	H264.085v220.314l7.757-7.758C275,473.485,280.118,473.485,283.276,476.642z M0.001,158.99V29.643C0.001,13.298,13.299,0,29.643,0
	H158.99c16.344,0,29.642,13.298,29.642,29.642V158.99c0,16.345-13.298,29.642-29.642,29.642H29.643
	C13.299,188.632,0.001,175.335,0.001,158.99z M16.169,158.99c0,7.43,6.044,13.474,13.474,13.474H158.99
	c7.43,0,13.474-6.044,13.474-13.474V29.643c0-7.43-6.044-13.474-13.474-13.474H29.643c-7.429,0-13.474,6.045-13.474,13.474V158.99z
	 M61.98,86.232h64.674c4.466,0,8.084-3.62,8.084-8.084s-3.618-8.084-8.084-8.084H61.98c-4.466,0-8.084,3.62-8.084,8.084
	S57.515,86.232,61.98,86.232z M115.874,102.4H72.759c-4.466,0-8.084,3.62-8.084,8.084s3.618,8.084,8.084,8.084h43.116
	c4.466,0,8.084-3.62,8.084-8.084S120.34,102.4,115.874,102.4z M323.369,158.99V29.643C323.369,13.298,336.667,0,353.011,0h129.347
	c16.344,0,29.642,13.298,29.642,29.642V158.99c0,16.345-13.298,29.642-29.642,29.642H353.011
	C336.667,188.632,323.369,175.335,323.369,158.99z M339.538,158.99c0,7.43,6.044,13.474,13.474,13.474h129.347
	c7.43,0,13.474-6.044,13.474-13.474V29.643c0-7.43-6.044-13.474-13.474-13.474H353.011c-7.43,0-13.474,6.044-13.474,13.474V158.99z
	 M385.348,86.232h64.674c4.466,0,8.084-3.62,8.084-8.084s-3.618-8.084-8.084-8.084h-64.674c-4.466,0-8.084,3.62-8.084,8.084
	S380.884,86.232,385.348,86.232z M439.243,102.4h-43.116c-4.466,0-8.084,3.62-8.084,8.084s3.618,8.084,8.084,8.084h43.116
	c4.466,0,8.084-3.62,8.084-8.084S443.709,102.4,439.243,102.4z M188.632,353.011v129.347c0,16.345-13.298,29.642-29.642,29.642
	H29.643c-16.344,0-29.642-13.297-29.642-29.642V353.011c0-16.344,13.298-29.642,29.642-29.642H158.99
	C175.334,323.369,188.632,336.667,188.632,353.011z M172.464,353.011c0-7.43-6.044-13.474-13.474-13.474H29.643
	c-7.43,0-13.474,6.044-13.474,13.474v129.347c0,7.43,6.044,13.474,13.474,13.474H158.99c7.43,0,13.474-6.044,13.474-13.474V353.011z
	 M126.653,393.432H61.98c-4.466,0-8.084,3.62-8.084,8.084s3.618,8.084,8.084,8.084h64.674c4.466,0,8.084-3.62,8.084-8.084
	S131.119,393.432,126.653,393.432z M115.874,425.769H72.759c-4.466,0-8.084,3.62-8.084,8.084c0,4.465,3.618,8.084,8.084,8.084
	h43.116c4.466,0,8.084-3.62,8.084-8.084C123.959,429.388,120.34,425.769,115.874,425.769z M512.001,353.011v129.347
	c0,16.345-13.298,29.642-29.642,29.642H353.011c-16.344,0-29.642-13.297-29.642-29.642V353.011
	c0-16.345,13.298-29.642,29.642-29.642h129.347C498.703,323.369,512.001,336.667,512.001,353.011z M495.832,353.011
	c0-7.43-6.044-13.474-13.474-13.474H353.011c-7.43,0-13.474,6.044-13.474,13.474v129.347c0,7.43,6.044,13.474,13.474,13.474h129.347
	c7.43,0,13.474-6.044,13.474-13.474V353.011z M450.022,393.432h-64.674c-4.466,0-8.084,3.62-8.084,8.084s3.618,8.084,8.084,8.084
	h64.674c4.466,0,8.084-3.62,8.084-8.084S454.488,393.432,450.022,393.432z M439.243,425.769h-43.116
	c-4.466,0-8.084,3.62-8.084,8.084c0,4.465,3.618,8.084,8.084,8.084h43.116c4.466,0,8.084-3.62,8.084-8.084
	C447.327,429.388,443.709,425.769,439.243,425.769z"/>
<g>
</g>
<g>
</g>
<g>
</g>
<g>
</g>
<g>
</g>
<g>
</g>
<g>
</g>
<g>
</g>
<g>
</g>
<g>
</g>
<g>
</g>
<g>
</g>
<g>
</g>
<g>
</g>
<g>
</g>
</svg>
