<?xml version="1.0" encoding="iso-8859-1"?>
<!-- Generator: Adobe Illustrator 19.0.0, SVG Export Plug-In . SVG Version: 6.00 Build 0)  -->
<svg version="1.1" id="Layer_1" xmlns="http://www.w3.org/2000/svg" xmlns:xlink="http://www.w3.org/1999/xlink" x="0px" y="0px"
	 viewBox="0 0 512.001 512.001" style="enable-background:new 0 0 512.001 512.001;" xml:space="preserve">
<path style="fill:#EDEDED;" d="M460.8,482.358H51.2c-11.906,0-21.558-9.651-21.558-21.558V51.2c0-11.906,9.651-21.558,21.558-21.558
	h409.6c11.906,0,21.558,9.651,21.558,21.558v409.6C482.358,472.707,472.706,482.358,460.8,482.358z"/>
<path style="fill:#92B703;" d="M142.389,150.948L153.745,256H37.187V105.095h54.124
	C117.548,105.095,139.569,124.864,142.389,150.948z M471.956,149.359l-1.338-5.35c-5.718-22.87-26.266-38.914-49.841-38.914l0,0
	c-26.236,0-48.257,19.769-51.077,45.853L358.109,256h124.338v-21.415C482.447,205.856,478.923,177.232,471.956,149.359z"/>
<path style="fill:#FF6029;" d="M358.109,256l-18.692,172.901c-4.613,42.674-40.64,75.015-83.563,75.015l0,0
	c-42.923,0-78.949-32.341-83.563-75.015L153.6,256H358.109z"/>
<path d="M134.737,256c0,4.466-3.62,8.084-8.084,8.084H37.726V484.4l7.758-7.758c3.157-3.156,8.276-3.156,11.432,0
	c3.157,3.158,3.157,8.276,0,11.433l-21.558,21.558C33.78,511.211,31.711,512,29.642,512s-4.138-0.789-5.716-2.367L2.368,488.075
	c-3.157-3.158-3.157-8.276,0-11.433c3.157-3.156,8.276-3.156,11.432,0l7.758,7.757V27.601L13.8,35.359
	c-3.157,3.156-8.276,3.156-11.432,0c-3.157-3.158-3.157-8.276,0-11.433L23.926,2.367c3.157-3.156,8.276-3.156,11.432,0
	l21.558,21.558c3.157,3.158,3.157,8.276,0,11.433c-3.157,3.156-8.276,3.156-11.432,0l-7.758-7.758v220.315h88.926
	C131.117,247.916,134.737,251.535,134.737,256z M180.547,264.085h150.905c4.466,0,8.084-3.618,8.084-8.084
	c0-4.466-3.618-8.084-8.084-8.084H180.547c-4.465,0-8.084,3.618-8.084,8.084C172.463,260.466,176.082,264.085,180.547,264.085z
	 M420.688,113.179c19.9,0,37.17,13.484,41.997,32.791l11.83,47.317c1.084,4.332,5.48,6.964,9.805,5.882
	c4.332-1.083,6.964-5.472,5.882-9.805l-11.83-47.317c-6.63-26.516-30.35-45.037-57.684-45.037
	c-30.429,0-55.844,22.815-59.114,53.068l-30.05,277.953c-4.178,38.652-36.646,67.8-75.524,67.8s-71.346-29.148-75.525-67.8
	L150.427,150.08c-3.271-30.254-28.686-53.069-59.115-53.069H61.979c-4.465,0-8.084,3.618-8.084,8.084
	c0,4.466,3.62,8.084,8.084,8.084h29.333c22.155,0,40.658,16.61,43.039,38.637l30.048,277.953C169.468,476.649,208.847,512,256,512
	s86.532-35.352,91.599-82.232l30.05-277.951C380.031,129.79,398.534,113.179,420.688,113.179z M509.633,250.283l-21.558-21.558
	c-3.158-3.156-8.276-3.156-11.433,0c-3.157,3.158-3.157,8.276,0,11.433l7.758,7.757h-99.052c-4.466,0-8.084,3.618-8.084,8.084
	s3.618,8.084,8.084,8.084h99.052l-7.758,7.757c-3.157,3.158-3.157,8.276,0,11.433c1.579,1.578,3.649,2.367,5.717,2.367
	c2.068,0,4.138-0.789,5.717-2.367l21.558-21.558C512.79,258.559,512.79,253.441,509.633,250.283z"/>
<g>
</g>
<g>
</g>
<g>
</g>
<g>
</g>
<g>
</g>
<g>
</g>
<g>
</g>
<g>
</g>
<g>
</g>
<g>
</g>
<g>
</g>
<g>
</g>
<g>
</g>
<g>
</g>
<g>
</g>
</svg>
