<?xml version="1.0" encoding="iso-8859-1"?>
<!-- Generator: Adobe Illustrator 19.0.0, SVG Export Plug-In . SVG Version: 6.00 Build 0)  -->
<svg version="1.1" id="Layer_1" xmlns="http://www.w3.org/2000/svg" xmlns:xlink="http://www.w3.org/1999/xlink" x="0px" y="0px"
	 viewBox="0 0 512 512" style="enable-background:new 0 0 512 512;" xml:space="preserve">
<path style="fill:#73A4BC;" d="M299.116,8.084c113.108,0,204.8,91.692,204.8,204.8s-91.692,204.8-204.8,204.8
	s-204.8-91.692-204.8-204.8S186.008,8.084,299.116,8.084z"/>
<path style="fill:#FF6029;" d="M148.211,223.663c77.39,0,140.126,62.737,140.126,140.126S225.6,503.916,148.211,503.916
	S8.084,441.179,8.084,363.789S70.821,223.663,148.211,223.663z"/>
<path style="fill:#B7441C;" d="M95.39,233.971c16.302-6.64,34.132-10.308,52.82-10.308c77.39,0,140.126,62.737,140.126,140.126
	c0,18.689-3.668,36.518-10.308,52.82C181.761,406.763,105.237,330.239,95.39,233.971z"/>
<path d="M296.421,363.789c0,8.687-0.758,17.391-2.253,25.873c-0.691,3.922-4.102,6.683-7.952,6.683
	c-0.466,0-0.938-0.041-1.413-0.124c-4.397-0.775-7.333-4.967-6.559-9.365c1.332-7.558,2.007-15.319,2.007-23.067
	c0-72.809-59.234-132.042-132.042-132.042c-6.81,0-13.649,0.523-20.325,1.553c-4.419,0.688-8.542-2.343-9.224-6.756
	c-0.681-4.413,2.343-8.541,6.756-9.224c7.489-1.157,15.158-1.743,22.793-1.743C229.933,215.579,296.421,282.066,296.421,363.789z
	 M512,212.884c0,117.385-95.5,212.884-212.884,212.884c-5.373,0-10.691-0.199-15.966-0.593C259.092,478.082,206.643,512,148.211,512
	C66.488,512,0,445.513,0,363.789c0-58.428,33.924-110.88,86.824-134.939c-0.393-5.275-0.593-10.592-0.593-15.966
	C86.232,95.499,181.732,0,299.116,0S512,95.499,512,212.884z M266.163,423.222c-91.051-14.209-163.176-86.335-177.385-177.385
	c-44.406,22.346-72.61,67.665-72.61,117.952c0,72.809,59.234,132.042,132.042,132.042
	C198.502,495.832,243.819,467.631,266.163,423.222z M495.832,212.884c0-108.47-88.246-196.716-196.716-196.716
	S102.4,104.415,102.4,212.884S190.646,409.6,299.116,409.6S495.832,321.354,495.832,212.884z"/>
<g>
</g>
<g>
</g>
<g>
</g>
<g>
</g>
<g>
</g>
<g>
</g>
<g>
</g>
<g>
</g>
<g>
</g>
<g>
</g>
<g>
</g>
<g>
</g>
<g>
</g>
<g>
</g>
<g>
</g>
</svg>
