<?xml version="1.0" encoding="iso-8859-1"?>
<!-- Generator: Adobe Illustrator 19.0.0, SVG Export Plug-In . SVG Version: 6.00 Build 0)  -->
<svg version="1.1" id="Layer_1" xmlns="http://www.w3.org/2000/svg" xmlns:xlink="http://www.w3.org/1999/xlink" x="0px" y="0px"
	 viewBox="0 0 512 512" style="enable-background:new 0 0 512 512;" xml:space="preserve">
<path style="fill:#FF6029;" d="M443.557,286.18c0,120.252-97.484,217.736-217.736,217.736S8.084,406.432,8.084,286.18
	S105.568,68.443,225.821,68.443S443.557,165.927,443.557,286.18z"/>
<path style="fill:#B7441C;" d="M443.557,286.18c0,14.407-1.414,28.482-4.084,42.108H226.829c-23.812,0-43.116-19.304-43.116-43.116
	V72.527c13.626-2.67,27.701-4.084,42.108-4.084C346.073,68.443,443.557,165.927,443.557,286.18z"/>
<path style="fill:#FFBC00;" d="M253.266,8.193c132.553,12.494,238.047,117.987,250.542,250.542
	c1.337,14.184-9.852,26.438-24.099,26.438H238.925c-6.681,0-12.096-5.415-12.096-12.096V32.292
	C226.829,18.044,239.082,6.855,253.266,8.193z"/>
<path style="fill:#E0A000;" d="M443.544,285.171H238.925c-6.681,0-12.096-5.415-12.096-12.096V68.456
	C346.28,68.999,443.002,165.721,443.544,285.171z"/>
<path d="M449.481,254.888c0.613,4.423-2.475,8.505-6.896,9.118c-0.377,0.053-0.75,0.078-1.121,0.078
	c-3.972,0-7.435-2.929-7.997-6.975C420.662,164.769,347.23,91.337,254.891,78.532c-4.423-0.613-7.511-4.695-6.896-9.118
	c0.612-4.423,4.701-7.515,9.118-6.896C356.583,76.311,435.688,155.416,449.481,254.888z M503.6,282.694
	c-6.108,6.711-14.816,10.56-23.888,10.56h-28.177C447.789,414.517,347.977,512,225.822,512C101.303,512,0,410.697,0,286.178
	C0,164.023,97.483,64.211,218.746,60.466V32.288c0-9.073,3.849-17.78,10.56-23.888c6.699-6.098,15.708-9.108,24.719-8.259
	c136.529,12.87,244.963,121.304,257.833,257.833C512.708,266.985,509.698,275.995,503.6,282.694z M435.357,293.254H238.926
	c-11.127,0-20.18-9.053-20.18-20.18V76.643C106.409,80.392,16.168,172.946,16.168,286.178c0,115.604,94.051,209.654,209.654,209.654
	C339.055,495.832,431.608,405.591,435.357,293.254z M495.762,259.491C483.619,130.683,381.317,28.38,252.508,16.239
	c-0.521-0.049-1.039-0.073-1.554-0.073c-3.988,0-7.763,1.459-10.765,4.192c-3.402,3.097-5.275,7.334-5.275,11.931v240.786
	c0,2.212,1.8,4.012,4.012,4.012h240.786c4.598,0,8.834-1.873,11.931-5.275C494.728,268.421,496.192,264.047,495.762,259.491z"/>
<g>
</g>
<g>
</g>
<g>
</g>
<g>
</g>
<g>
</g>
<g>
</g>
<g>
</g>
<g>
</g>
<g>
</g>
<g>
</g>
<g>
</g>
<g>
</g>
<g>
</g>
<g>
</g>
<g>
</g>
</svg>
