<?xml version="1.0" encoding="iso-8859-1"?>
<!-- Generator: Adobe Illustrator 19.0.0, SVG Export Plug-In . SVG Version: 6.00 Build 0)  -->
<svg version="1.1" id="Layer_1" xmlns="http://www.w3.org/2000/svg" xmlns:xlink="http://www.w3.org/1999/xlink" x="0px" y="0px"
	 viewBox="0 0 512 512" style="enable-background:new 0 0 512 512;" xml:space="preserve">
<path style="fill:#EDEDED;" d="M460.8,482.358H51.2c-11.906,0-21.558-9.651-21.558-21.558V51.2c0-11.906,9.651-21.558,21.558-21.558
	h409.6c11.906,0,21.558,9.651,21.558,21.558v409.6C482.358,472.707,472.706,482.358,460.8,482.358z"/>
<path style="fill:#FF6029;" d="M277.558,428.463h-43.116c-11.906,0-21.558-9.651-21.558-21.558V29.642
	c0-11.906,9.651-21.558,21.558-21.558h43.116c11.906,0,21.558,9.651,21.558,21.558v377.263
	C299.116,418.812,289.464,428.463,277.558,428.463z"/>
<path style="fill:#73A4BC;" d="M148.21,428.463h-43.116c-11.906,0-21.558-9.651-21.558-21.558V158.99
	c0-11.906,9.651-21.558,21.558-21.558h43.116c11.906,0,21.558,9.651,21.558,21.558v247.916
	C169.768,418.812,160.117,428.463,148.21,428.463z"/>
<path style="fill:#92B703;" d="M406.905,428.463h-43.116c-11.906,0-21.558-9.651-21.558-21.558V277.558
	c0-11.906,9.651-21.558,21.558-21.558h43.116c11.906,0,21.558,9.651,21.558,21.558v129.347
	C428.463,418.812,418.811,428.463,406.905,428.463z"/>
<path d="M363.789,436.548h43.116c16.344,0,29.642-13.297,29.642-29.642V277.558c0-16.345-13.298-29.642-29.642-29.642h-43.116
	c-16.344,0-29.642,13.297-29.642,29.642v129.347C334.147,423.251,347.445,436.548,363.789,436.548z M350.315,277.558
	c0-7.43,6.044-13.474,13.474-13.474h43.116c7.43,0,13.474,6.044,13.474,13.474v129.347c0,7.43-6.044,13.474-13.474,13.474h-43.116
	c-7.43,0-13.474-6.044-13.474-13.474V277.558z M509.633,488.074l-21.558,21.558c-1.579,1.578-3.649,2.368-5.717,2.368
	s-4.138-0.789-5.717-2.368c-3.157-3.157-3.157-8.276,0-11.432l7.758-7.758H51.2c-16.344,0-29.642-13.297-29.642-29.642V27.602
	L13.8,35.36c-3.157,3.157-8.276,3.157-11.432,0c-3.157-3.157-3.157-8.276,0-11.432L23.926,2.369c3.157-3.157,8.276-3.157,11.432,0
	l21.558,21.558c3.157,3.157,3.157,8.276,0,11.432c-3.157,3.157-8.276,3.157-11.432,0l-7.758-7.758V460.8
	c0,7.43,6.044,13.474,13.474,13.474h433.199l-7.758-7.758c-3.157-3.157-3.157-8.276,0-11.432c3.158-3.157,8.276-3.157,11.433,0
	l21.558,21.558C512.79,479.799,512.79,484.918,509.633,488.074z M234.442,436.548h43.116c16.344,0,29.642-13.297,29.642-29.642
	V29.642C307.2,13.298,293.902,0,277.558,0h-43.116C218.098,0,204.8,13.298,204.8,29.642v377.263
	C204.8,423.251,218.098,436.548,234.442,436.548z M220.968,29.642c0-7.43,6.044-13.474,13.474-13.474h43.116
	c7.43,0,13.474,6.044,13.474,13.474v377.263c0,7.43-6.044,13.474-13.474,13.474h-43.116c-7.43,0-13.474-6.044-13.474-13.474V29.642z
	 M105.094,436.548h43.116c16.345,0,29.642-13.297,29.642-29.642V158.99c0-16.345-13.297-29.642-29.642-29.642h-43.116
	c-16.344,0-29.642,13.298-29.642,29.642v247.916C75.452,423.251,88.75,436.548,105.094,436.548z M91.621,158.99
	c0-7.43,6.044-13.474,13.474-13.474h43.116c7.43,0,13.474,6.044,13.474,13.474v247.916c0,7.43-6.044,13.474-13.474,13.474h-43.116
	c-7.43,0-13.474-6.044-13.474-13.474V158.99z"/>
<g>
</g>
<g>
</g>
<g>
</g>
<g>
</g>
<g>
</g>
<g>
</g>
<g>
</g>
<g>
</g>
<g>
</g>
<g>
</g>
<g>
</g>
<g>
</g>
<g>
</g>
<g>
</g>
<g>
</g>
</svg>
