<?xml version="1.0" encoding="iso-8859-1"?>
<!-- Generator: Adobe Illustrator 19.0.0, SVG Export Plug-In . SVG Version: 6.00 Build 0)  -->
<svg version="1.1" id="Layer_1" xmlns="http://www.w3.org/2000/svg" xmlns:xlink="http://www.w3.org/1999/xlink" x="0px" y="0px"
	 viewBox="0 0 512.001 512.001" style="enable-background:new 0 0 512.001 512.001;" xml:space="preserve">
<path style="fill:#EDEDED;" d="M482.358,51.2v409.6c0,11.906-9.651,21.558-21.558,21.558H51.2c-11.906,0-21.558-9.651-21.558-21.558
	V51.2c0-11.906,9.651-21.558,21.558-21.558h409.6C472.706,29.643,482.358,39.294,482.358,51.2z"/>
<path style="fill:#98C7E5;" d="M503.916,406.906L503.916,406.906c0,11.906-9.651,21.558-21.558,21.558H29.642
	c-11.906,0-21.558-9.651-21.558-21.558l0,0v-1.336c0-11.168,9.054-20.222,20.222-20.222l0,0c21.104,0,40.88-10.297,52.983-27.585
	l11.597-16.568c29.541-42.202,52.819-88.456,69.109-137.327l8.88-26.638c12.214-36.641,46.503-61.355,85.126-61.355l0,0
	c38.622,0,72.912,24.714,85.126,61.355l8.88,26.638c16.29,48.871,39.568,95.126,69.11,137.329l11.597,16.566
	c12.103,17.289,31.879,27.585,52.983,27.585l0,0c11.168,0,20.222,9.053,20.222,20.222v1.336H503.916z"/>
<path style="fill:#73A4BC;" d="M92.888,341.194c14.616-20.881,27.693-42.757,39.156-65.448v152.717h-102.4
	c-11.906,0-21.558-9.651-21.558-21.558v-1.336c-0.001-11.168,9.053-20.222,20.221-20.222l0,0c21.104,0,40.88-10.297,52.983-27.585
	L92.888,341.194z M350.005,203.867l-8.88-26.638c-12.214-36.641-46.503-61.355-85.126-61.355l0,0v312.589h123.958V275.747
	C368.254,252.577,358.235,228.557,350.005,203.867z"/>
<path style="fill:#FF6029;" d="M320.674,29.643v10.779c0,11.906-9.651,21.558-21.558,21.558h-21.558l-5.774,11.547
	c-2.468,4.937-7.003,8.643-12.423,9.688c-7.854,1.514-15.511-2.419-18.961-9.318l-5.958-11.917h-21.558
	c-11.906,0-21.558-9.651-21.558-21.558V29.643c0-11.906,9.651-21.558,21.558-21.558h86.232
	C311.022,8.085,320.674,17.736,320.674,29.643z"/>
<path d="M212.884,70.064h16.562l3.54,7.079c3.643,7.288,10.419,12.525,18.123,14.009c1.611,0.31,3.224,0.461,4.823,0.461
	c9.543,0,18.534-5.368,22.9-14.101l3.724-7.448h16.561c16.344,0,29.642-13.298,29.642-29.642V29.643
	C328.758,13.298,315.46,0,299.116,0h-86.232c-16.344,0-29.642,13.298-29.642,29.642v10.779
	C183.242,56.766,196.54,70.064,212.884,70.064z M199.411,29.643c0-7.43,6.044-13.474,13.474-13.474h86.232
	c7.43,0,13.474,6.044,13.474,13.474v10.779c0,7.43-6.044,13.474-13.474,13.474h-21.558c-3.062,0-5.862,1.729-7.231,4.469
	l-5.959,11.918c-1.9,3.797-5.997,5.799-10.2,4.995c-2.799-0.54-5.312-2.545-6.722-5.366l-5.773-11.547
	c-1.369-2.738-4.168-4.469-7.231-4.469h-21.558c-7.43,0-13.474-6.044-13.474-13.474V29.643H199.411z M509.633,488.075
	l-21.558,21.558c-1.579,1.578-3.649,2.367-5.717,2.367s-4.138-0.789-5.717-2.367c-3.157-3.158-3.157-8.276,0-11.433l7.758-7.757
	H27.602l7.758,7.757c3.157,3.158,3.157,8.276,0,11.433c-3.157,3.156-8.276,3.156-11.432,0L2.369,488.075
	c-3.157-3.158-3.157-8.276,0-11.433l21.558-21.558c3.157-3.156,8.276-3.156,11.432,0c3.157,3.158,3.157,8.276,0,11.433l-7.758,7.757
	h456.798l-7.758-7.757c-3.157-3.158-3.157-8.276,0-11.433c3.158-3.156,8.276-3.156,11.433,0l21.558,21.558
	C512.79,479.799,512.79,484.917,509.633,488.075z M220.968,35.032c0-4.466,3.62-8.084,8.084-8.084h53.895
	c4.466,0,8.084,3.618,8.084,8.084s-3.618,8.084-8.084,8.084h-53.895C224.588,43.116,220.968,39.498,220.968,35.032z M29.642,436.548
	h452.716c16.344,0,29.642-13.298,29.642-29.642v-1.336c0-15.609-12.698-28.307-28.307-28.307c-18.448,0-35.78-9.023-46.36-24.137
	l-11.597-16.568c-29.111-41.587-52.011-87.092-68.064-135.249l-8.879-26.638C335.459,134.668,298.168,107.79,256,107.79
	s-79.459,26.878-92.795,66.882l-8.879,26.638c-16.053,48.158-38.953,93.664-68.064,135.251l-11.597,16.566
	c-10.58,15.113-27.91,24.136-46.359,24.136C12.699,377.264,0,389.961,0,405.57v1.336C0,423.25,13.298,436.548,29.642,436.548z
	 M16.168,405.57c0-6.693,5.446-12.138,12.138-12.138c23.72,0,46.002-11.601,59.605-31.034l11.597-16.566
	c30.006-42.867,53.61-89.77,70.157-139.408l8.879-26.638c11.13-33.392,42.258-55.827,77.455-55.827s66.325,22.434,77.455,55.827
	l8.879,26.638c16.547,49.637,40.151,96.539,70.156,139.406l11.598,16.568c13.604,19.432,35.886,31.034,59.605,31.034
	c6.693,0,12.138,5.446,12.138,12.138v1.336c0,7.43-6.044,13.474-13.474,13.474H29.642c-7.43,0-13.474-6.044-13.474-13.474V405.57z
	 M371.874,403.133v-4.312c0-4.466,3.618-8.084,8.084-8.084s8.084,3.618,8.084,8.084v4.312c0,4.466-3.618,8.084-8.084,8.084
	S371.874,407.599,371.874,403.133z M247.916,146.055v-4.312c0-4.466,3.62-8.084,8.084-8.084c4.466,0,8.084,3.618,8.084,8.084v4.312
	c0,4.466-3.618,8.084-8.084,8.084C251.535,154.139,247.916,150.521,247.916,146.055z M371.874,329.836v-4.312
	c0-4.466,3.618-8.084,8.084-8.084s8.084,3.618,8.084,8.084v4.312c0,4.466-3.618,8.084-8.084,8.084S371.874,334.302,371.874,329.836z
	 M247.916,182.704v-4.312c0-4.466,3.62-8.084,8.084-8.084c4.466,0,8.084,3.618,8.084,8.084v4.312c0,4.466-3.618,8.084-8.084,8.084
	C251.535,190.788,247.916,187.169,247.916,182.704z M371.874,366.485v-4.312c0-4.466,3.618-8.084,8.084-8.084
	s8.084,3.618,8.084,8.084v4.312c0,4.466-3.618,8.084-8.084,8.084S371.874,370.95,371.874,366.485z M247.916,329.297v-4.312
	c0-4.466,3.62-8.084,8.084-8.084c4.466,0,8.084,3.618,8.084,8.084v4.312c0,4.466-3.618,8.084-8.084,8.084
	C251.535,337.381,247.916,333.763,247.916,329.297z M123.958,329.836v-4.312c0-4.466,3.62-8.084,8.084-8.084
	c4.465,0,8.084,3.618,8.084,8.084v4.312c0,4.466-3.62,8.084-8.084,8.084C127.577,337.92,123.958,334.302,123.958,329.836z
	 M123.958,366.485v-4.312c0-4.466,3.62-8.084,8.084-8.084c4.465,0,8.084,3.618,8.084,8.084v4.312c0,4.466-3.62,8.084-8.084,8.084
	C127.577,374.569,123.958,370.95,123.958,366.485z M247.916,402.594v-4.312c0-4.466,3.62-8.084,8.084-8.084
	c4.466,0,8.084,3.618,8.084,8.084v4.312c0,4.466-3.618,8.084-8.084,8.084C251.535,410.678,247.916,407.06,247.916,402.594z
	 M123.958,403.133v-4.312c0-4.466,3.62-8.084,8.084-8.084c4.465,0,8.084,3.618,8.084,8.084v4.312c0,4.466-3.62,8.084-8.084,8.084
	C127.577,411.217,123.958,407.599,123.958,403.133z M247.916,256v-4.312c0-4.466,3.62-8.084,8.084-8.084
	c4.466,0,8.084,3.618,8.084,8.084V256c0,4.466-3.618,8.084-8.084,8.084C251.535,264.085,247.916,260.466,247.916,256z
	 M247.916,219.352v-4.312c0-4.466,3.62-8.084,8.084-8.084c4.466,0,8.084,3.618,8.084,8.084v4.312c0,4.466-3.618,8.084-8.084,8.084
	C251.535,227.436,247.916,223.818,247.916,219.352z M247.916,365.946v-4.312c0-4.466,3.62-8.084,8.084-8.084
	c4.466,0,8.084,3.618,8.084,8.084v4.312c0,4.466-3.618,8.084-8.084,8.084C251.535,374.03,247.916,370.411,247.916,365.946z
	 M247.916,292.649v-4.312c0-4.466,3.62-8.084,8.084-8.084c4.466,0,8.084,3.618,8.084,8.084v4.312c0,4.466-3.618,8.084-8.084,8.084
	C251.535,300.733,247.916,297.115,247.916,292.649z"/>
<g>
</g>
<g>
</g>
<g>
</g>
<g>
</g>
<g>
</g>
<g>
</g>
<g>
</g>
<g>
</g>
<g>
</g>
<g>
</g>
<g>
</g>
<g>
</g>
<g>
</g>
<g>
</g>
<g>
</g>
</svg>
