<?xml version="1.0" encoding="iso-8859-1"?>
<!-- Generator: Adobe Illustrator 19.0.0, SVG Export Plug-In . SVG Version: 6.00 Build 0)  -->
<svg version="1.1" id="Layer_1" xmlns="http://www.w3.org/2000/svg" xmlns:xlink="http://www.w3.org/1999/xlink" x="0px" y="0px"
	 viewBox="0 0 512 512" style="enable-background:new 0 0 512 512;" xml:space="preserve">
<path style="fill:#FF6029;" d="M341.858,255.999c0,47.625-38.44,86.232-85.858,86.232s-85.858-38.607-85.858-86.232
	s38.44-86.232,85.858-86.232S341.858,208.374,341.858,255.999z"/>
<path style="fill:#B7441C;" d="M298.742,255.999c0,23.708-19.136,42.928-42.742,42.928s-42.742-19.22-42.742-42.928
	s19.136-42.928,42.742-42.928S298.742,232.291,298.742,255.999z"/>
<path style="fill:#DAF781;" d="M309.661,61.978c0,29.765-24.025,53.895-53.661,53.895c-29.637,0-53.661-24.13-53.661-53.895
	S226.364,8.083,256,8.083C285.637,8.083,309.661,32.213,309.661,61.978z M256,396.125c-29.637,0-53.661,24.13-53.661,53.895
	c0,29.765,24.025,53.895,53.661,53.895s53.661-24.13,53.661-53.895C309.661,420.255,285.637,396.125,256,396.125z M115.532,112.314
	c-25.666-14.882-58.483-6.051-73.302,19.727c-14.818,25.778-6.024,58.739,19.641,73.621c25.666,14.882,58.484,6.05,73.302-19.727
	C149.991,160.158,141.198,127.197,115.532,112.314z M450.129,306.336c-25.666-14.883-58.484-6.05-73.302,19.727
	c-14.818,25.778-6.024,58.739,19.641,73.621c25.666,14.882,58.484,6.05,73.302-19.727
	C484.588,354.179,475.795,321.218,450.129,306.336z M61.871,306.336c-25.666,14.883-34.459,47.845-19.641,73.621
	s47.636,34.609,73.302,19.727c25.666-14.883,34.459-47.845,19.641-73.621C120.356,300.284,87.537,291.453,61.871,306.336z
	 M450.129,205.662c25.666-14.883,34.459-47.845,19.641-73.621c-14.818-25.778-47.636-34.609-73.302-19.727
	c-25.666,14.882-34.459,47.845-19.641,73.621C391.645,211.714,424.463,220.545,450.129,205.662z"/>
<path style="fill:#92B703;" d="M116.507,175.112c-8.866,15.424-28.503,20.707-43.858,11.803
	c-15.357-8.904-20.618-28.627-11.752-44.049c8.866-15.424,28.502-20.707,43.858-11.803
	C120.112,139.967,125.373,159.688,116.507,175.112z M104.755,325.083c-15.357-8.904-34.993-3.621-43.858,11.803
	c-8.866,15.424-3.604,35.145,11.752,44.049s34.993,3.621,43.858-11.803C125.373,353.709,120.112,333.988,104.755,325.083z
	 M407.246,186.915c15.357,8.904,34.993,3.621,43.858-11.803s3.604-35.145-11.752-44.049c-15.357-8.904-34.993-3.621-43.858,11.803
	S391.889,178.01,407.246,186.915z M439.352,325.083c-15.357-8.904-34.993-3.621-43.858,11.803
	c-8.866,15.424-3.604,35.145,11.752,44.049c15.357,8.904,34.993,3.621,43.858-11.803
	C459.97,353.709,454.709,333.988,439.352,325.083z M272.054,422.094c-15.357-8.904-34.993-3.621-43.858,11.803
	c-8.866,15.424-3.604,35.145,11.752,44.049c15.357,8.904,34.993,3.621,43.858-11.803C292.671,450.72,287.41,430.998,272.054,422.094
	z M272.054,34.052c-15.357-8.904-34.993-3.621-43.858,11.803c-8.866,15.424-3.604,35.145,11.752,44.049s34.993,3.621,43.858-11.803
	C292.671,62.677,287.41,42.956,272.054,34.052z"/>
<path d="M307.018,255.999c0,28.231-22.887,51.2-51.018,51.2c-28.132,0-51.018-22.969-51.018-51.2s22.886-51.2,51.018-51.2
	c4.466,0,8.085,3.62,8.085,8.084c0,4.465-3.62,8.084-8.085,8.084c-19.216,0-34.848,15.716-34.848,35.032
	s15.633,35.032,34.848,35.032c19.215,0,34.847-15.716,34.847-35.032c0-4.465,3.62-8.084,8.085-8.084
	C303.398,247.915,307.018,251.534,307.018,255.999z M476.801,383.986c-8.258,14.363-21.596,24.629-37.559,28.906
	c-15.925,4.266-32.547,2.059-46.815-6.214c-27.113-15.72-37.863-49.119-26.16-77.4l-33.267-19.289
	c-15.549,22.28-40.438,37.533-68.913,39.981v38.602c30.244,3.986,53.666,30.024,53.666,61.45c0,34.176-27.702,61.979-61.752,61.979
	s-61.752-27.803-61.752-61.979c0-31.426,23.422-57.465,53.666-61.45V349.97c-28.476-2.448-53.363-17.7-68.913-39.981l-33.268,19.289
	c11.702,28.282,0.953,61.68-26.16,77.4c-14.268,8.273-30.894,10.48-46.815,6.214c-15.964-4.277-29.303-14.543-37.56-28.906
	c-17.009-29.586-6.873-67.557,22.597-84.644c14.268-8.273,30.894-10.48,46.815-6.214c13.327,3.571,24.825,11.315,33.063,22.132
	l33.242-19.274c-5.688-12.148-8.868-25.7-8.868-39.987c0-14.286,3.18-27.84,8.868-39.987l-33.242-19.274
	c-8.238,10.818-19.736,18.562-33.063,22.132c-15.921,4.267-32.547,2.059-46.815-6.214c-29.47-17.087-39.606-55.058-22.597-84.644
	c8.258-14.363,21.597-24.629,37.56-28.906c15.922-4.266,32.547-2.058,46.815,6.214c27.113,15.72,37.862,49.119,26.16,77.4
	l33.268,19.289c15.549-22.28,40.437-37.533,68.913-39.981v-38.602c-30.245-3.986-53.666-30.024-53.666-61.45
	C194.25,27.803,221.951,0,256.001,0c34.05,0,61.751,27.803,61.751,61.979c0,31.426-23.423,57.465-53.666,61.45v38.602
	c28.476,2.448,53.364,17.7,68.913,39.981l33.267-19.289c-11.703-28.283-0.953-61.68,26.162-77.4
	c14.268-8.273,30.894-10.48,46.814-6.214c15.964,4.277,29.301,14.543,37.559,28.906c17.009,29.586,6.873,67.557-22.596,84.644
	h-0.001c-14.269,8.274-30.896,10.479-46.814,6.214c-13.327-3.57-24.825-11.315-33.064-22.132l-33.242,19.274
	c5.689,12.148,8.868,25.7,8.868,39.988c0,14.287-3.18,27.84-8.868,39.988l33.242,19.274c8.239-10.818,19.737-18.562,33.064-22.132
	c15.918-4.265,32.545-2.059,46.814,6.214C483.674,316.429,493.81,354.4,476.801,383.986z M383.848,181.907
	c6.1,10.61,15.946,18.191,27.728,21.347c11.734,3.144,23.994,1.517,34.518-4.584h-0.001c21.785-12.631,29.272-40.713,16.69-62.599
	c-6.1-10.61-15.945-18.189-27.727-21.347c-3.906-1.047-7.873-1.565-11.813-1.565c-7.895,0-15.686,2.079-22.705,6.149
	C378.753,131.939,371.266,160.021,383.848,181.907z M111.463,119.308c-7.018-4.07-14.811-6.149-22.705-6.149
	c-3.941,0-7.905,0.517-11.814,1.565c-11.78,3.156-21.627,10.737-27.726,21.347l0,0c-12.582,21.887-5.096,49.968,16.689,62.599
	c10.522,6.102,22.782,7.729,34.518,4.584c11.78-3.156,21.627-10.737,27.726-21.347C140.734,160.021,133.248,131.939,111.463,119.308
	z M128.152,330.091c-6.1-10.609-15.946-18.189-27.727-21.347c-3.907-1.047-7.874-1.565-11.814-1.565
	c-7.895,0-15.686,2.079-22.705,6.149c-21.785,12.631-29.272,40.713-16.689,62.599c6.1,10.609,15.946,18.189,27.727,21.347
	c11.738,3.146,23.996,1.517,34.519-4.584C133.248,380.059,140.734,351.977,128.152,330.091z M256,107.788
	c25.134,0,45.581-20.55,45.581-45.811S281.134,16.167,256,16.167c-25.133,0-45.581,20.55-45.581,45.811S230.867,107.788,256,107.788
	z M256,404.209c-25.133,0-45.581,20.55-45.581,45.811c0,25.26,20.448,45.811,45.581,45.811c25.134,0,45.581-20.55,45.581-45.811
	C301.581,424.76,281.134,404.209,256,404.209z M333.782,255.999c0-43.091-34.893-78.147-77.782-78.147s-77.781,35.056-77.781,78.147
	s34.893,78.147,77.781,78.147S333.782,299.09,333.782,255.999z M446.093,313.329c-10.523-6.102-22.782-7.729-34.517-4.584
	c-11.775,3.154-21.617,10.729-27.718,21.329c-0.003,0.005-0.008,0.011-0.011,0.017c-12.582,21.887-5.095,49.968,16.69,62.599
	c10.523,6.1,22.781,7.727,34.518,4.584c11.781-3.156,21.628-10.737,27.727-21.347C475.366,354.042,467.879,325.96,446.093,313.329z"
	/>
<g>
</g>
<g>
</g>
<g>
</g>
<g>
</g>
<g>
</g>
<g>
</g>
<g>
</g>
<g>
</g>
<g>
</g>
<g>
</g>
<g>
</g>
<g>
</g>
<g>
</g>
<g>
</g>
<g>
</g>
</svg>
