<?xml version="1.0" encoding="iso-8859-1"?>
<!-- Generator: Adobe Illustrator 19.0.0, SVG Export Plug-In . SVG Version: 6.00 Build 0)  -->
<svg version="1.1" id="Layer_1" xmlns="http://www.w3.org/2000/svg" xmlns:xlink="http://www.w3.org/1999/xlink" x="0px" y="0px"
	 viewBox="0 0 512 512" style="enable-background:new 0 0 512 512;" xml:space="preserve">
<path style="fill:#FFBC00;" d="M491.478,37.884l-58.995,142.664l-53.489,129.347l-44.574,107.789l-30.153,72.915
	c-3.333,8.06-11.193,13.316-19.911,13.316h-56.709c-8.719,0-16.578-5.256-19.911-13.316l-30.153-72.915l-44.574-107.789
	L79.518,180.547L20.522,37.884C14.653,23.691,25.08,8.084,40.434,8.084h431.133C486.919,8.084,497.347,23.691,491.478,37.884z"/>
<path style="fill:#92B703;" d="M491.478,37.884l-58.995,142.664l-53.489,129.347l-44.574,107.789H177.582l-44.574-107.789
	L79.518,180.547L20.522,37.884C14.653,23.691,25.08,8.084,40.434,8.084h431.133C486.919,8.084,497.347,23.691,491.478,37.884z"/>
<path style="fill:#FF6029;" d="M491.478,37.884l-58.995,142.664l-53.489,129.347H133.008L79.518,180.547L20.522,37.884
	C14.653,23.691,25.08,8.084,40.434,8.084h431.133C486.919,8.084,497.347,23.691,491.478,37.884z"/>
<path style="fill:#73A4BC;" d="M40.434,8.084h431.133c15.352,0,25.78,15.607,19.911,29.799l-58.995,142.664H79.518L20.522,37.884
	C14.653,23.691,25.08,8.084,40.434,8.084z"/>
<path d="M496.217,13.169C490.707,4.923,481.498,0,471.583,0H40.417c-9.914,0-19.124,4.923-24.633,13.169
	c-5.51,8.246-6.537,18.641-2.746,27.806l187.227,452.716C204.864,504.814,215.611,512,227.643,512h56.713
	c12.033,0,22.779-7.186,27.38-18.309L498.963,40.975C502.754,31.81,501.727,21.415,496.217,13.169z M484.029,34.793l-56.934,137.67
	h-25.846c-4.463,0-8.081,3.618-8.081,8.084c0,4.466,3.618,8.084,8.081,8.084h19.158L373.6,301.811h-25.845
	c-4.462,0-8.081,3.618-8.081,8.084s3.618,8.084,8.081,8.084h19.158L329.023,409.6h-25.845c-4.462,0-8.081,3.618-8.081,8.084
	c0,4.466,3.618,8.084,8.081,8.084h19.158l-25.534,61.741c-2.091,5.055-6.976,8.322-12.445,8.322h-56.713
	c-5.469,0-10.354-3.266-12.445-8.322l-25.534-61.741h83.756c4.462,0,8.081-3.618,8.081-8.084c0-4.466-3.618-8.084-8.081-8.084
	h-90.443l-37.891-91.621h171.253c4.462,0,8.081-3.618,8.081-8.084s-3.618-8.084-8.081-8.084H138.399L91.593,188.632h277.183
	c4.464,0,8.081-3.618,8.081-8.084c0-4.466-3.618-8.084-8.081-8.084H84.906L27.971,34.793c-1.748-4.229-1.293-8.834,1.248-12.639
	s6.623-5.986,11.197-5.986h431.167c4.574,0,8.656,2.182,11.197,5.987C485.323,25.959,485.777,30.565,484.029,34.793z M328.73,78.147
	c0,4.466-3.618,8.084-8.081,8.084H191.351c-4.462,0-8.081-3.618-8.081-8.084c0-4.466,3.618-8.084,8.081-8.084h129.298
	C325.111,70.063,328.73,73.682,328.73,78.147z M307.179,110.484c0,4.466-3.618,8.084-8.081,8.084H212.9
	c-4.464,0-8.081-3.618-8.081-8.084s3.618-8.084,8.081-8.084h86.198C303.562,102.4,307.179,106.018,307.179,110.484z
	 M317.955,229.053c0,4.466-3.618,8.084-8.081,8.084H202.127c-4.464,0-8.081-3.618-8.081-8.084c0-4.466,3.618-8.084,8.081-8.084
	h107.747C314.337,220.968,317.955,224.587,317.955,229.053z M296.405,261.389c0,4.466-3.618,8.084-8.081,8.084h-64.649
	c-4.464,0-8.081-3.618-8.081-8.084s3.618-8.084,8.081-8.084h64.649C292.787,253.305,296.405,256.924,296.405,261.389z
	 M291.018,363.789c0,4.466-3.618,8.084-8.081,8.084h-53.874c-4.462,0-8.081-3.618-8.081-8.084s3.618-8.084,8.081-8.084h53.874
	C287.4,355.705,291.018,359.324,291.018,363.789z M274.856,460.8c0,4.466-3.618,8.084-8.081,8.084h-21.549
	c-4.462,0-8.081-3.618-8.081-8.084s3.618-8.084,8.081-8.084h21.549C271.237,452.716,274.856,456.334,274.856,460.8z"/>
<g>
</g>
<g>
</g>
<g>
</g>
<g>
</g>
<g>
</g>
<g>
</g>
<g>
</g>
<g>
</g>
<g>
</g>
<g>
</g>
<g>
</g>
<g>
</g>
<g>
</g>
<g>
</g>
<g>
</g>
</svg>
