<?xml version="1.0" encoding="iso-8859-1"?>
<!-- Generator: Adobe Illustrator 19.0.0, SVG Export Plug-In . SVG Version: 6.00 Build 0)  -->
<svg version="1.1" id="Layer_1" xmlns="http://www.w3.org/2000/svg" xmlns:xlink="http://www.w3.org/1999/xlink" x="0px" y="0px"
	 viewBox="0 0 512 512" style="enable-background:new 0 0 512 512;" xml:space="preserve">
<path style="fill:#EDEDED;" d="M503.916,256c0,136.92-110.996,247.916-247.916,247.916S8.084,392.92,8.084,256
	S119.08,8.084,256,8.084S503.916,119.08,503.916,256z"/>
<path style="fill:#C6C6C6;" d="M450.021,256c0,107.155-86.866,194.021-194.021,194.021S61.979,363.155,61.979,256
	S148.845,61.979,256,61.979S450.021,148.845,450.021,256z"/>
<path style="fill:#969696;" d="M396.126,256c0,77.39-62.737,140.126-140.126,140.126S115.874,333.39,115.874,256
	S178.61,115.874,256,115.874S396.126,178.61,396.126,256z"/>
<path style="fill:#EDEDED;" d="M342.232,256c0,47.625-38.607,86.232-86.232,86.232S169.768,303.625,169.768,256
	s38.607-86.232,86.232-86.232S342.232,208.375,342.232,256z"/>
<path style="fill:#98C7E5;" d="M411.084,100.916L411.084,100.916c11.424-11.424,30.291-10.322,40.249,2.399
	c32.945,42.087,52.583,95.093,52.583,152.685c0,136.92-110.995,247.915-247.914,247.916
	C119.416,503.917,8.083,392.583,8.084,255.998C8.085,129.174,103.317,24.591,226.174,9.861C242.045,7.957,256,20.408,256,36.393
	v0.484c0,13.601-10.238,24.893-23.74,26.54C136.304,75.123,61.979,156.882,61.979,256c0,107.28,87.069,194.224,194.396,194.021
	c107-0.203,194.183-88.02,193.644-195.019c-0.225-44.714-15.576-85.85-41.197-118.555
	C400.459,125.773,401.496,110.504,411.084,100.916z"/>
<path style="fill:#FF6029;" d="M394.285,278.77c2.14-13.095,13.349-22.769,26.618-22.769l0,0c16.535,0,29.269,14.768,26.639,31.094
	C432.664,379.467,352.571,450.021,256,450.021c-107.472,0-194.022-86.551-194.021-194.022
	c0.001-96.571,70.555-176.662,162.927-191.542C241.231,61.827,256,74.561,256,91.096l0,0c0,13.27-9.674,24.478-22.769,26.618
	c-66.56,10.876-117.355,68.647-117.357,138.282c-0.002,77.491,62.636,140.13,140.127,140.13
	C325.637,396.126,383.409,345.329,394.285,278.77z"/>
<path style="fill:#FFDB57;" d="M256,365.942c0,17.426-16.304,30.337-33.237,26.219C161.417,377.238,115.874,321.938,115.874,256
	s45.543-121.238,106.889-136.161c16.933-4.119,33.237,8.792,33.237,26.219l0,0c0,12.371-8.405,23.224-20.426,26.144
	c-37.765,9.173-65.805,43.211-65.805,83.798s28.04,74.625,65.805,83.798C247.595,342.718,256,353.571,256,365.942L256,365.942z"/>
<path d="M269.504,7.39c0.384-4.447,4.297-7.749,8.749-7.359c50.22,4.333,97.642,23.286,137.138,54.808
	c2.212,1.765,4.425,3.593,6.578,5.43c3.395,2.898,3.798,8.001,0.899,11.398c-1.599,1.873-3.869,2.835-6.153,2.835
	c-1.857,0-3.723-0.636-5.245-1.936c-2.019-1.724-4.093-3.435-6.166-5.09C368.31,37.951,323.896,20.2,276.862,16.14
	C272.415,15.756,269.12,11.839,269.504,7.39z M276.668,70.377c35.271,3.906,68.538,17.826,96.204,40.256
	c1.497,1.214,3.297,1.805,5.087,1.805c2.353,0,4.687-1.023,6.284-2.993c2.812-3.468,2.28-8.558-1.189-11.371
	c-30.078-24.385-66.25-39.52-104.606-43.768c-4.441-0.485-8.433,2.708-8.925,7.145C269.032,65.89,272.231,69.885,276.668,70.377z
	 M512,255.538c0,68.5-26.626,132.902-74.975,181.341C388.673,485.321,324.384,512,256.001,512
	c-68.221,0-132.466-26.723-180.901-75.248C26.671,388.232,0,323.874,0,255.535C0.001,125.8,96.82,16.336,225.209,0.912
	c9.83-1.181,19.718,1.918,27.138,8.499c7.459,6.616,11.737,16.133,11.737,26.109v0.485c0,10.812-5.013,20.603-12.963,27.04
	c0.199,0.163,0.398,0.328,0.594,0.495c7.86,6.695,12.369,16.457,12.369,26.787c0,11.084-5.118,21.056-13.309,27.519
	c8.46,6.708,13.309,16.738,13.309,27.546c0,16.235-10.937,30.236-26.599,34.047c-0.462,0.112-0.926,0.23-1.385,0.35
	c-34.281,9.012-58.201,40.056-58.247,75.644c0,0.011,0,0.024,0,0.034c0,0.006,0,0.011,0,0.017c0,0.018,0,0.036,0,0.053
	s0,0.036,0,0.053c0,0.006,0,0.011,0,0.017c0,0.011,0,0.023,0,0.034c0.046,35.712,24.134,66.847,58.607,75.737
	c0.011,0.002,0.022,0.005,0.032,0.009c0.33,0.085,0.661,0.167,0.993,0.248c15.662,3.813,26.599,17.813,26.599,34.049
	c0,8.205-2.794,15.961-7.841,22.156c1.126-0.002,2.244-0.018,3.364-0.047h0.005c55.999-1.505,104.767-37.908,122.061-91.54
	c0.073-0.227,0.156-0.451,0.248-0.667c1.874-5.986,3.348-12.178,4.385-18.538c2.797-17.148,17.348-29.595,34.597-29.595
	c7.662,0,15.015,2.493,21.03,7.004c0-0.036,0-0.071,0-0.107c0-0.018,0-0.035,0-0.053c0-0.002,0-0.009,0-0.012
	c-0.217-32.325-8.804-64.075-24.869-91.899c-0.11-0.19-0.211-0.384-0.304-0.579c-4.251-7.279-9.024-14.312-14.306-21.067l0,0
	c-10.841-13.865-9.59-33.764,2.91-46.287c7.093-7.105,16.904-10.837,26.922-10.225c9.993,0.607,19.258,5.477,25.42,13.363
	C493.225,143.054,512,197.671,512,255.538z M247.916,145.391c0-5.867-2.644-11.309-7.254-14.931
	c-4.555-3.578-10.381-4.847-15.984-3.483c-0.133,0.032-0.265,0.061-0.397,0.086c-6.279,1.538-12.365,3.512-18.223,5.885
	c-0.294,0.169-0.603,0.322-0.924,0.457c-49.213,20.604-81.047,68.393-81.175,121.811c0,0.003,0,0.008,0,0.012
	c0,0.019,0,0.036,0,0.055c0,0.012,0,0.025,0,0.037c0,0.013,0,0.031,0,0.044c0,0.016,0,0.037,0,0.053c0,0.01,0,0.023,0,0.032
	c0,0.024,0,0.052,0,0.075c0,0.003,0,0.011,0,0.014c0,0.029,0,0.063,0,0.094c0,0.004,0,0.004,0,0.01c0,0.03,0,0.058,0,0.088
	c0,0.009,0,0.01,0,0.019c0,0.026,0,0.05,0,0.075c0,0.018,0,0.033,0,0.051c0,0.013,0,0.028,0,0.042
	c0.172,62.275,43.507,114.564,101.546,128.363c5.346,1.055,10.824-0.262,15.156-3.664c4.61-3.622,7.254-9.064,7.254-14.932
	c0-8.755-5.862-16.296-14.254-18.338c-42.359-10.308-71.949-48.03-71.977-91.746c0-0.022,0-0.042,0-0.064s0-0.042,0-0.064
	c0.028-43.099,28.786-80.371,70.189-91.292c0.182-0.047,0.366-0.096,0.55-0.143c0.022-0.005,0.042-0.011,0.064-0.016
	c0.39-0.1,0.783-0.198,1.175-0.293C242.054,161.686,247.916,154.145,247.916,145.391z M247.916,90.327
	c0-5.583-2.436-10.86-6.684-14.477c-4.177-3.556-9.659-5.101-15.038-4.231c-0.031,0.005-0.064,0.01-0.095,0.015
	c-7.28,1.177-14.411,2.774-21.365,4.763c-0.126,0.043-0.254,0.084-0.384,0.122C125.323,99.366,70.117,172.917,70.063,255.414v0.01
	c0,0.04,0,0.073,0,0.114c0,0.025,0,0.05,0,0.074c0,0.002,0,0.009,0,0.012c0,0.018,0,0.044,0,0.064c0,0.003,0,0.002,0,0.005
	c0.081,101.961,82.326,185.011,183.848,186.132c0.816,0.009,1.627,0.011,2.449,0.011c1.468-0.002,2.938-0.023,4.401-0.059
	c0.017,0,0.024,0,0.044-0.001c21.919-0.56,42.914-4.941,62.332-12.499c23.885-9.317,45.818-23.656,64.508-42.474
	c19.844-19.983,34.627-43.594,43.716-69.29c3.718-10.528,6.514-21.487,8.295-32.78c0.643-5.198-0.924-10.429-4.35-14.45
	c-3.606-4.232-8.856-6.659-14.403-6.659c-9.285,0-17.125,6.741-18.639,16.029c-1.175,7.2-2.879,14.272-5.086,21.166
	c-0.036,0.134-0.074,0.266-0.117,0.399c-9.558,29.64-27.886,55.145-53.004,73.759C318.425,393.969,287.975,404.01,256,404.01
	c-1.037,0-2.072-0.011-3.104-0.032c-38.474-0.785-74.502-16.134-101.739-43.423c-27.922-27.975-43.318-65.199-43.366-104.833v-0.005
	c0-0.015,0-0.026,0-0.041c0-0.004,0-0.017,0-0.022c0-0.01,0-0.023,0-0.033s0-0.016,0-0.026c0-0.012,0-0.023,0-0.036
	c0-0.005,0-0.017,0-0.023c0-0.003,0-0.003,0-0.003c0-0.004,0-0.008,0-0.012c0-0.029,0-0.056,0-0.085c0-0.009,0-0.016,0-0.024
	c0-0.026,0-0.053,0-0.079c0-0.006,0-0.012,0-0.018c0.087-59.995,35.826-113.683,91.1-136.825c0.164-0.069,0.329-0.132,0.494-0.189
	c6.865-2.848,13.951-5.181,21.202-6.966c0.087-0.024,0.175-0.046,0.263-0.068c0.193-0.047,0.385-0.092,0.579-0.136
	c3.464-0.831,6.965-1.538,10.498-2.116C241.191,107.498,247.916,99.638,247.916,90.327z M495.832,255.538
	c0-54.225-17.59-105.399-50.869-147.993c-3.359-4.299-8.209-6.848-13.658-7.179c-5.391-0.322-10.678,1.682-14.499,5.509
	c-6.742,6.755-7.436,17.462-1.617,24.906l0,0c27.743,35.478,42.575,78.071,42.91,123.209c0.003,0.516,0.005,1.032,0.005,1.548
	c0,1.39-0.014,2.785-0.042,4.169c-0.189,9.34-1.012,18.582-2.448,27.671c-0.028,0.198-0.058,0.397-0.091,0.595
	c-0.015,0.092-0.031,0.183-0.048,0.274c-2.605,16.03-7.123,31.591-13.439,46.407c-19.84,46.636-56.661,84.354-102.638,105.302
	c-24.677,11.273-51.546,17.457-79.315,18.009c-1.983,0.039-3.978,0.049-5.967,0.032c-53.149-0.48-103.051-21.39-140.761-59.028
	c-38.303-38.232-59.416-89.103-59.46-143.262V255.7c0-0.019,0-0.045,0-0.066c0-0.006,0-0.01,0-0.016c0-0.027,0-0.055,0-0.081
	c0-0.038,0-0.079,0-0.115c0-0.009,0-0.016,0-0.025c0-0.038,0-0.061,0-0.099c0-0.017,0-0.033,0-0.05c0-0.018,0-0.027,0-0.045
	c0.071-44.668,14.372-86.992,41.366-122.415c3.498-4.591,7.193-9.024,11.066-13.287c31.584-34.913,75.266-58.856,124.953-64.93
	c9.484-1.159,16.636-9.141,16.636-18.566V35.52c0-5.355-2.296-10.463-6.298-14.014c-3.446-3.056-7.714-4.678-12.21-4.678
	c-0.751,0-1.509,0.045-2.27,0.136C106.867,31.413,16.17,133.977,16.168,255.535c0,64.026,24.993,124.327,70.377,169.795
	c45.379,45.465,105.56,70.502,169.457,70.502C388.245,495.831,495.832,388.035,495.832,255.538z M275.54,331.38
	c-4.323,1.115-6.924,5.523-5.809,9.847c0.94,3.647,4.223,6.067,7.822,6.067c0.668,0,1.347-0.084,2.024-0.259
	c41.65-10.74,70.738-48.366,70.738-91.499s-29.088-80.758-70.738-91.498c-4.322-1.115-8.732,1.485-9.847,5.81
	c-1.116,4.323,1.485,8.732,5.81,9.847c34.507,8.899,58.606,40.086,58.606,75.843C334.147,291.294,310.048,322.481,275.54,331.38z
	 M394.469,242.025c0.41,0,0.825-0.031,1.242-0.095c4.413-0.68,7.439-4.808,6.758-9.221c-4.818-31.264-19.225-59.672-41.662-82.151
	c-22.44-22.482-50.799-36.917-82.013-41.745c-4.417-0.688-8.542,2.341-9.226,6.753c-0.682,4.412,2.341,8.542,6.754,9.225
	c57.08,8.83,101.352,53.189,110.166,110.382C387.104,239.167,390.547,242.025,394.469,242.025z"/>
<g>
</g>
<g>
</g>
<g>
</g>
<g>
</g>
<g>
</g>
<g>
</g>
<g>
</g>
<g>
</g>
<g>
</g>
<g>
</g>
<g>
</g>
<g>
</g>
<g>
</g>
<g>
</g>
<g>
</g>
</svg>
