<?xml version="1.0" encoding="iso-8859-1"?>
<!-- Generator: Adobe Illustrator 19.0.0, SVG Export Plug-In . SVG Version: 6.00 Build 0)  -->
<svg version="1.1" id="Layer_1" xmlns="http://www.w3.org/2000/svg" xmlns:xlink="http://www.w3.org/1999/xlink" x="0px" y="0px"
	 viewBox="0 0 512.001 512.001" style="enable-background:new 0 0 512.001 512.001;" xml:space="preserve">
<path style="fill:#EDEDED;" d="M460.694,482.358h-409.6c-11.906,0-21.558-9.651-21.558-21.558V51.2
	c0-11.906,9.651-21.558,21.558-21.558h409.6c11.906,0,21.558,9.651,21.558,21.558v409.6
	C482.252,472.707,472.6,482.358,460.694,482.358z"/>
<path style="fill:#98C7E5;" d="M503.917,234.13v43.116c0,11.906-9.651,21.558-21.558,21.558H105.096
	c-11.906,0-21.558-9.651-21.558-21.558V234.13c0-11.906,9.651-21.558,21.558-21.558h377.263
	C494.265,212.572,503.917,222.223,503.917,234.13z"/>
<path style="fill:#56889B;" d="M288.339,239.519h32.337c2.976,0,5.389,2.413,5.389,5.389v21.558c0,2.976-2.413,5.389-5.389,5.389
	h-204.8c-2.976,0-5.389-2.413-5.389-5.389v-21.558c0-2.976,2.413-5.389,5.389-5.389h150.905H288.339z"/>
<path style="fill:#FF8655;" d="M450.022,104.783v43.116c0,11.906-9.651,21.558-21.558,21.558H105.096
	c-11.906,0-21.558-9.651-21.558-21.558v-43.116c0-11.906,9.651-21.558,21.558-21.558h323.368
	C440.37,83.225,450.022,92.876,450.022,104.783z"/>
<path style="fill:#B7441C;" d="M202.107,110.172h21.558c2.976,0,5.389,2.413,5.389,5.389v21.558c0,2.976-2.413,5.389-5.389,5.389
	H115.876c-2.976,0-5.389-2.413-5.389-5.389v-21.558c0-2.976,2.413-5.389,5.389-5.389h64.674
	C180.549,110.172,202.107,110.172,202.107,110.172z"/>
<path style="fill:#B6E152;" d="M363.79,363.477v43.116c0,11.906-9.651,21.558-21.558,21.558H105.096
	c-11.906,0-21.558-9.651-21.558-21.558v-43.116c0-11.906,9.651-21.558,21.558-21.558h237.137
	C354.139,341.919,363.79,351.571,363.79,363.477z"/>
<path style="fill:#768900;" d="M266.781,368.867h26.947c2.976,0,5.389,2.413,5.389,5.389v21.558c0,2.976-2.413,5.389-5.389,5.389
	H115.876c-2.976,0-5.389-2.413-5.389-5.389v-21.558c0-2.976,2.413-5.389,5.389-5.389h129.347H266.781z"/>
<path d="M105.096,177.853h323.368c16.344,0,29.642-13.298,29.642-29.642v-43.116c0-16.344-13.298-29.642-29.642-29.642H105.096
	c-16.344,0-29.642,13.298-29.642,29.642v43.116C75.453,164.555,88.751,177.853,105.096,177.853z M91.622,105.095
	c0-7.43,6.045-13.474,13.474-13.474h323.368c7.43,0,13.474,6.044,13.474,13.474v43.116c0,7.43-6.044,13.474-13.474,13.474H105.096
	c-7.43,0-13.474-6.044-13.474-13.474V105.095z M102.401,137.432v-21.558c0-7.43,6.044-13.474,13.474-13.474h59.284
	c4.466,0,8.084,3.618,8.084,8.084s-3.618,8.084-8.084,8.084h-56.589v16.168h102.4v-16.168h-18.863c-4.466,0-8.084-3.618-8.084-8.084
	s3.618-8.084,8.084-8.084h21.558c7.43,0,13.474,6.044,13.474,13.474v21.558c0,7.43-6.044,13.474-13.474,13.474H115.874
	C108.446,150.906,102.401,144.861,102.401,137.432z M37.727,27.601v456.798l7.757-7.758c3.158-3.156,8.276-3.156,11.433,0
	c3.157,3.158,3.157,8.276,0,11.433l-21.558,21.558C33.781,511.21,31.711,512,29.643,512s-4.138-0.789-5.717-2.367L2.368,488.075
	c-3.157-3.158-3.157-8.276,0-11.433c3.158-3.156,8.276-3.156,11.433,0l7.758,7.757V27.601l-7.757,7.758
	c-3.158,3.156-8.276,3.156-11.433,0c-3.157-3.158-3.157-8.276,0-11.433L23.927,2.367c3.158-3.156,8.276-3.156,11.433,0
	l21.558,21.558c3.157,3.158,3.157,8.276,0,11.433c-3.158,3.156-8.276,3.156-11.433,0L37.727,27.601z M342.232,334.148H105.096
	c-16.344,0-29.642,13.298-29.642,29.642v43.116c0,16.344,13.298,29.642,29.642,29.642h237.137c16.344,0,29.642-13.298,29.642-29.642
	V363.79C371.874,347.446,358.576,334.148,342.232,334.148z M355.706,406.906c0,7.43-6.044,13.474-13.474,13.474H105.096
	c-7.43,0-13.474-6.044-13.474-13.474V363.79c0-7.43,6.044-13.474,13.474-13.474h237.137c7.43,0,13.474,6.044,13.474,13.474V406.906z
	 M482.359,204.8H105.096c-16.344,0-29.642,13.298-29.642,29.642v43.116c0,16.344,13.298,29.642,29.642,29.642h377.263
	c16.344,0,29.642-13.298,29.642-29.642v-43.116C512.001,218.098,498.703,204.8,482.359,204.8z M495.832,277.558
	c0,7.43-6.044,13.474-13.474,13.474H105.096c-7.43,0-13.474-6.044-13.474-13.474v-43.116c0-7.43,6.044-13.474,13.474-13.474h377.263
	c7.43,0,13.474,6.044,13.474,13.474V277.558z M307.201,374.569v21.558c0,7.43-6.044,13.474-13.474,13.474H115.874
	c-7.43,0-13.474-6.044-13.474-13.474v-21.558c0-7.43,6.044-13.474,13.474-13.474h123.958c4.466,0,8.084,3.618,8.084,8.084
	c0,4.466-3.618,8.084-8.084,8.084H118.569v16.168h172.463v-16.168H266.78c-4.466,0-8.084-3.618-8.084-8.084
	c0-4.466,3.618-8.084,8.084-8.084h26.947C301.157,361.095,307.201,367.139,307.201,374.569z M334.148,245.221v21.558
	c0,7.43-6.044,13.474-13.474,13.474h-204.8c-7.43,0-13.474-6.044-13.474-13.474v-21.558c0-7.43,6.044-13.474,13.474-13.474H261.39
	c4.466,0,8.084,3.618,8.084,8.084s-3.618,8.084-8.084,8.084H118.569v16.168H317.98v-16.168h-29.642
	c-4.466,0-8.084-3.618-8.084-8.084s3.618-8.084,8.084-8.084h32.337C328.104,231.748,334.148,237.792,334.148,245.221z"/>
<g>
</g>
<g>
</g>
<g>
</g>
<g>
</g>
<g>
</g>
<g>
</g>
<g>
</g>
<g>
</g>
<g>
</g>
<g>
</g>
<g>
</g>
<g>
</g>
<g>
</g>
<g>
</g>
<g>
</g>
</svg>
