<?xml version="1.0" encoding="iso-8859-1"?>
<!-- Generator: Adobe Illustrator 19.0.0, SVG Export Plug-In . SVG Version: 6.00 Build 0)  -->
<svg version="1.1" id="Layer_1" xmlns="http://www.w3.org/2000/svg" xmlns:xlink="http://www.w3.org/1999/xlink" x="0px" y="0px"
	 viewBox="0 0 512 512" style="enable-background:new 0 0 512 512;" xml:space="preserve">
<path style="fill:#98C7E5;" d="M435.096,256c0,98.912-80.185,179.097-179.097,179.097S76.903,354.912,76.903,256
	S157.088,76.903,256,76.903S435.096,157.088,435.096,256z M61.979,460.8H29.642c-11.906,0-21.558,9.651-21.558,21.558l0,0
	c0,11.906,9.651,21.558,21.558,21.558h32.337c11.906,0,21.558-9.651,21.558-21.558l0,0C83.537,470.451,73.885,460.8,61.979,460.8z"
	/>
<path style="fill:#73A4BC;" d="M381.202,256c0,69.147-56.055,125.202-125.202,125.202S130.798,325.147,130.798,256
	S186.853,130.798,256,130.798S381.202,186.853,381.202,256z"/>
<path style="fill:#FF6029;" d="M463.592,232.083c1.454,12.757-8.594,23.917-21.434,23.917h-164.6
	C265.651,256,256,246.349,256,234.442v-164.6c0-12.84,11.161-22.888,23.919-21.434C376.202,59.38,452.619,135.797,463.592,232.083z
	 M482.358,8.084h-32.337c-11.906,0-21.558,9.651-21.558,21.558l0,0c0,11.906,9.651,21.558,21.558,21.558h32.337
	c11.906,0,21.558-9.651,21.558-21.558l0,0C503.916,17.736,494.264,8.084,482.358,8.084z"/>
<path style="fill:#B7441C;" d="M381.202,256H277.558C265.651,256,256,246.349,256,234.442V130.798
	C325.147,130.798,381.202,186.853,381.202,256z"/>
<path d="M482.358,0h-32.337c-16.345,0-29.642,13.298-29.642,29.642s13.297,29.642,29.642,29.642h32.337
	c16.345,0,29.642-13.298,29.642-29.642S498.703,0,482.358,0z M482.358,43.116h-32.337c-7.43,0-13.474-6.044-13.474-13.474
	s6.044-13.474,13.474-13.474h32.337c7.43,0,13.474,6.044,13.474,13.474S489.788,43.116,482.358,43.116z M61.979,452.716H29.642
	C13.297,452.716,0,466.014,0,482.358S13.297,512,29.642,512h32.337c16.345,0,29.642-13.298,29.642-29.642
	S78.324,452.716,61.979,452.716z M61.979,495.832H29.642c-7.43,0-13.474-6.044-13.474-13.474s6.044-13.474,13.474-13.474h32.337
	c7.43,0,13.474,6.044,13.474,13.474S69.409,495.832,61.979,495.832z M471.624,231.166c0.951,8.339-1.716,16.721-7.318,22.997
	c-5.438,6.092-13.159,9.675-21.297,9.908c-4.239,99.485-86.5,179.109-187.009,179.109c-40.189,0-78.497-12.549-110.781-36.288
	c-3.597-2.645-4.369-7.705-1.724-11.302c2.645-3.599,7.706-4.37,11.302-1.724c29.488,21.684,64.484,33.145,101.202,33.145
	c91.585,0,166.586-72.372,170.824-162.928H277.558c-16.345,0-29.642-13.298-29.642-29.642V85.176
	C157.36,89.412,84.988,164.413,84.988,256c0,42.972,15.745,83.528,44.504,115.076l34.561-34.561c3.157-3.156,8.276-3.156,11.432,0
	c3.157,3.158,3.157,8.276,0,11.433l-40.225,40.224c-0.059,0.064-0.12,0.125-0.181,0.188c-0.061,0.061-0.124,0.121-0.186,0.181
	L89.253,434.18c-3.157,3.156-8.276,3.156-11.432,0c-3.157-3.158-3.157-8.276,0-11.433l40.227-40.226
	c-31.804-34.609-49.227-79.227-49.227-126.52c0-100.509,79.624-182.771,179.108-187.009c0.234-8.137,3.816-15.858,9.908-21.296
	c6.277-5.6,14.658-8.264,22.997-7.319c45.706,5.208,89.008,25.204,122.807,56.552l19.108-19.108c3.157-3.156,8.276-3.156,11.432,0
	c3.157,3.158,3.157,8.276,0,11.433l-24.532,24.532c-0.059,0.064-0.12,0.125-0.181,0.188c-0.061,0.061-0.124,0.121-0.186,0.18
	l-61.331,61.332c-3.157,3.156-8.276,3.156-11.432,0c-3.157-3.158-3.157-8.276,0-11.433l55.683-55.682
	c-31.218-28.779-71.11-47.133-113.198-51.93c-3.819-0.439-7.516,0.742-10.4,3.316c-2.871,2.563-4.519,6.239-4.519,10.085v164.601
	c0,7.43,6.044,13.474,13.474,13.474h164.6c3.847,0,7.523-1.647,10.086-4.519c2.574-2.884,3.751-6.577,3.316-10.398
	c-4.113-36.095-18.02-70.435-40.217-99.306c-2.722-3.54-2.058-8.615,1.482-11.337c3.54-2.72,8.616-2.057,11.336,1.482
	C452.149,155.038,467.178,192.153,471.624,231.166z M184.405,359.042c2.31-3.82,7.28-5.047,11.1-2.737
	c18.195,10.999,39.114,16.813,60.495,16.813c53.474,0,100.117-36.118,113.428-87.831c1.113-4.326,5.523-6.924,9.844-5.815
	c4.323,1.113,6.927,5.521,5.814,9.844c-15.15,58.861-68.232,99.97-129.085,99.97c-24.329,0-48.14-6.62-68.858-19.143
	C183.321,367.833,182.096,362.864,184.405,359.042z M138.882,256c0,21.382,5.814,42.302,16.813,60.497
	c2.31,3.821,1.084,8.79-2.737,11.1c-1.307,0.79-2.75,1.167-4.175,1.167c-2.737,0-5.407-1.389-6.927-3.903
	c-12.525-20.718-19.144-44.53-19.144-68.861c0-60.481,40.796-113.482,99.208-128.887c4.318-1.138,8.74,1.438,9.879,5.755
	c1.138,4.318-1.438,8.74-5.755,9.879C174.726,156.282,138.882,202.853,138.882,256z"/>
<g>
</g>
<g>
</g>
<g>
</g>
<g>
</g>
<g>
</g>
<g>
</g>
<g>
</g>
<g>
</g>
<g>
</g>
<g>
</g>
<g>
</g>
<g>
</g>
<g>
</g>
<g>
</g>
<g>
</g>
</svg>
