<?xml version="1.0" encoding="iso-8859-1"?>
<!-- Generator: Adobe Illustrator 19.0.0, SVG Export Plug-In . SVG Version: 6.00 Build 0)  -->
<svg version="1.1" id="Layer_1" xmlns="http://www.w3.org/2000/svg" xmlns:xlink="http://www.w3.org/1999/xlink" x="0px" y="0px"
	 viewBox="0 0 512 512" style="enable-background:new 0 0 512 512;" xml:space="preserve">
<path style="fill:#B6E152;" d="M366.474,241.276l-10.779,18.669c-5.953,10.311-19.138,13.844-29.448,7.891l-22.57-13.031
	c-13.902,13.508-31.099,23.643-50.278,29.067v26.023c0,11.906-9.651,21.558-21.558,21.558h-21.558
	c-11.906,0-21.558-9.651-21.558-21.558v-26.023c-19.178-5.424-36.376-15.558-50.278-29.067l-22.57,13.031
	c-10.311,5.953-23.496,2.42-29.448-7.891l-10.779-18.669c-5.953-10.311-2.42-23.496,7.89-29.449l22.542-13.015
	c-2.34-9.295-3.589-19.023-3.589-29.044c0-10.021,1.249-19.749,3.589-29.044L83.54,127.71c-10.311-5.953-13.843-19.138-7.89-29.449
	l10.779-18.669c5.953-10.311,19.138-13.844,29.448-7.891l22.57,13.031c13.902-13.508,31.099-23.643,50.278-29.067V29.642
	c0-11.906,9.651-21.558,21.558-21.558h21.558c11.906,0,21.558,9.651,21.558,21.558v26.023c19.178,5.424,36.376,15.558,50.278,29.067
	l22.57-13.031c10.311-5.953,23.496-2.42,29.448,7.891l10.779,18.669c5.953,10.311,2.42,23.496-7.89,29.449l-22.542,13.015
	c2.34,9.295,3.589,19.023,3.589,29.044c0,10.021-1.249,19.749-3.589,29.044l22.542,13.015
	C368.895,217.78,372.427,230.965,366.474,241.276z"/>
<path style="fill:#92B703;" d="M296.515,169.768c0,41.671-33.781,75.453-75.453,75.453s-75.453-33.781-75.453-75.453
	s33.781-75.453,75.453-75.453S296.515,128.097,296.515,169.768z"/>
<path style="fill:#73A4BC;" d="M491.141,443.154l-7.443,12.58c-4.11,6.948-13.214,9.328-20.333,5.317l-15.596-8.787
	c-9.596,9.099-21.466,15.913-34.703,19.568v17.559c0,8.023-6.665,14.526-14.886,14.526h-14.885c-8.221,0-14.885-6.504-14.885-14.526
	v-17.559c-13.237-3.655-25.107-10.47-34.703-19.568l-15.596,8.787c-7.12,4.011-16.223,1.631-20.333-5.317l-7.443-12.58
	c-4.11-6.947-1.671-15.831,5.449-19.843l15.569-8.772c-1.616-6.263-2.483-12.815-2.483-19.567c0-6.752,0.867-13.306,2.483-19.567
	l-15.569-8.772c-7.12-4.011-9.559-12.895-5.449-19.843l7.443-12.58c4.11-6.947,13.214-9.328,20.333-5.317l15.596,8.787
	c9.596-9.099,21.466-15.913,34.703-19.568v-17.559c0-8.023,6.665-14.526,14.885-14.526h14.885c8.221,0,14.886,6.504,14.886,14.526
	v17.559c13.237,3.655,25.107,10.47,34.703,19.568l15.596-8.787c7.12-4.011,16.223-1.631,20.333,5.317l7.443,12.58
	c4.11,6.948,1.671,15.832-5.449,19.843l-15.569,8.772c1.616,6.263,2.483,12.815,2.483,19.567c0,6.752-0.867,13.306-2.483,19.567
	l15.569,8.772C492.812,427.322,495.251,436.206,491.141,443.154z"/>
<path style="fill:#56889B;" d="M431.697,394.971c0,22.622-18.338,40.96-40.96,40.96s-40.96-18.338-40.96-40.96
	c0-22.622,18.338-40.96,40.96-40.96S431.697,372.35,431.697,394.971z"/>
<path style="fill:#C6C6C6;" d="M187.722,453.324l-6.197,10.474c-3.422,5.785-11.002,7.767-16.93,4.427l-12.985-7.317
	c-7.99,7.575-17.873,13.249-28.894,16.293v14.619c0,6.68-5.549,12.095-12.394,12.095H97.927c-6.845,0-12.394-5.415-12.394-12.095
	v-14.619c-11.021-3.044-20.905-8.717-28.894-16.293l-12.985,7.317c-5.927,3.34-13.508,1.358-16.93-4.427l-6.197-10.474
	c-3.422-5.785-1.392-13.182,4.537-16.522l12.964-7.304c-1.345-5.214-2.067-10.67-2.067-16.292c0-5.622,0.722-11.078,2.067-16.292
	l-12.964-7.304c-5.927-3.34-7.959-10.737-4.537-16.522l6.197-10.474c3.422-5.785,11.002-7.766,16.93-4.427l12.985,7.317
	c7.99-7.575,17.873-13.249,28.894-16.292v-14.619c0-6.68,5.549-12.095,12.394-12.095h12.394c6.845,0,12.394,5.415,12.394,12.095
	v14.619c11.021,3.044,20.905,8.717,28.894,16.292l12.985-7.317c5.927-3.34,13.508-1.358,16.93,4.427l6.197,10.474
	c3.422,5.785,1.392,13.182-4.537,16.522l-12.964,7.304c1.345,5.214,2.067,10.67,2.067,16.292c0,5.622-0.722,11.078-2.067,16.292
	l12.964,7.304C189.113,440.142,191.145,447.54,187.722,453.324z"/>
<path style="fill:#969696;" d="M136.571,413.207c0,17.92-14.527,32.447-32.447,32.447s-32.447-14.527-32.447-32.447
	c0-17.92,14.527-32.447,32.447-32.447S136.571,395.287,136.571,413.207z"/>
<path d="M435.288,374.451c2.978,6.458,4.488,13.362,4.488,20.521c0,27.043-22.001,49.044-49.043,49.044
	c-27.042,0-49.043-22.001-49.043-49.044c0-27.043,22.001-49.044,49.043-49.044c6.646,0,13.095,1.309,19.165,3.888
	c4.109,1.746,6.024,6.492,4.278,10.602c-1.746,4.11-6.491,6.027-10.602,4.278c-4.059-1.726-8.38-2.6-12.841-2.6
	c-18.127,0-32.875,14.749-32.875,32.876c0,18.127,14.748,32.876,32.875,32.876c18.127,0,32.875-14.749,32.875-32.876
	c0-4.804-1.01-9.429-3.002-13.749c-1.87-4.055-0.099-8.857,3.955-10.727C428.617,368.627,433.418,370.398,435.288,374.451z
	 M500.453,430.126c1.564,5.838,0.724,11.926-2.362,17.144l-7.442,12.58c-6.325,10.692-20.345,14.391-31.258,8.243l-10.584-5.963
	c-8.195,6.777-17.594,12.089-27.662,15.633v11.626c0,12.467-10.304,22.611-22.969,22.611h-14.885
	c-12.665,0-22.969-10.143-22.969-22.611v-11.626c-10.068-3.544-19.468-8.856-27.662-15.633l-10.584,5.963
	c-10.909,6.149-24.933,2.448-31.259-8.244l-7.443-12.579c-3.086-5.218-3.926-11.306-2.362-17.144
	c1.581-5.905,5.416-10.826,10.799-13.858l10.364-5.839c-0.926-5.096-1.394-10.272-1.394-15.457c0-5.186,0.468-10.362,1.394-15.457
	l-10.364-5.84c-5.382-3.032-9.217-7.953-10.798-13.855c-1.564-5.839-0.725-11.928,2.361-17.146l7.443-12.58
	c6.324-10.694,20.345-14.392,31.258-8.243l10.584,5.963c8.195-6.777,17.597-12.09,27.662-15.633v-11.627
	c0-12.467,10.304-22.611,22.969-22.611h14.885c12.665,0,22.969,10.143,22.969,22.611v11.627
	c10.066,3.543,19.468,8.856,27.662,15.633l10.584-5.963c10.911-6.147,24.934-2.449,31.259,8.244l7.442,12.578
	c3.087,5.219,3.926,11.308,2.362,17.147c-1.581,5.904-5.418,10.824-10.799,13.855l-10.363,5.84
	c0.926,5.095,1.394,10.271,1.394,15.457c0,5.185-0.468,10.361-1.394,15.457l10.363,5.839l0,0
	C495.037,419.3,498.872,424.222,500.453,430.126z M484.835,434.31c-0.447-1.67-1.554-3.075-3.117-3.956l-15.569-8.772
	c-3.191-1.798-4.775-5.516-3.86-9.062c1.478-5.728,2.227-11.633,2.227-17.548c0-5.917-0.749-11.821-2.227-17.547
	c-0.915-3.546,0.668-7.265,3.859-9.063l15.569-8.773c1.564-0.881,2.671-2.285,3.118-3.955c0.43-1.604,0.196-3.284-0.66-4.73
	l-7.442-12.578c-1.882-3.181-6.1-4.252-9.407-2.391l-15.596,8.787c-3.09,1.742-6.956,1.265-9.531-1.177
	c-8.763-8.308-19.583-14.409-31.291-17.642c-3.505-0.967-5.933-4.156-5.933-7.792v-17.559c0-3.553-3.05-6.443-6.8-6.443h-14.885
	c-3.75,0-6.8,2.89-6.8,6.443v17.559c0,3.636-2.427,6.825-5.933,7.792c-11.708,3.233-22.529,9.333-31.291,17.642
	c-2.574,2.44-6.44,2.919-9.531,1.177l-15.596-8.787c-3.306-1.864-7.525-0.79-9.407,2.39l-7.443,12.58
	c-0.855,1.444-1.089,3.124-0.659,4.729c0.447,1.67,1.554,3.074,3.117,3.955l15.569,8.773c3.191,1.798,4.774,5.517,3.859,9.063
	c-1.478,5.727-2.227,11.63-2.227,17.547c0,5.915,0.749,11.82,2.227,17.548c0.915,3.546-0.669,7.264-3.86,9.062l-15.569,8.772
	c-1.563,0.881-2.67,2.286-3.117,3.956c-0.429,1.604-0.196,3.283,0.659,4.728l7.443,12.58c1.882,3.182,6.101,4.252,9.407,2.391
	l15.595-8.787c1.242-0.7,2.609-1.041,3.967-1.041c2.022,0,4.024,0.757,5.564,2.218c8.762,8.307,19.582,14.408,31.292,17.642
	c3.504,0.968,5.932,4.156,5.932,7.792v17.558c0,3.553,3.05,6.443,6.8,6.443h14.885c3.75,0,6.8-2.89,6.8-6.443v-17.558
	c0-3.636,2.427-6.824,5.932-7.792c11.71-3.234,22.53-9.335,31.292-17.642c2.574-2.44,6.44-2.92,9.531-1.177l15.596,8.787
	c3.306,1.863,7.526,0.789,9.407-2.39l7.443-12.581C485.032,437.593,485.264,435.914,484.835,434.31z M136.574,405.122
	c-4.465,0-8.084,3.618-8.084,8.084c0,13.434-10.929,24.364-24.361,24.364s-24.363-10.93-24.363-24.364s10.929-24.364,24.363-24.364
	c4.077,0,8.107,1.024,11.655,2.962c3.918,2.142,8.83,0.698,10.97-3.22c2.14-3.919,0.697-8.829-3.221-10.97
	c-5.919-3.233-12.629-4.941-19.404-4.941c-22.348,0-40.53,18.182-40.53,40.532s18.182,40.532,40.53,40.532
	s40.53-18.182,40.53-40.532C144.658,408.741,141.039,405.122,136.574,405.122z M196.79,442.127
	c1.397,5.216,0.648,10.654-2.108,15.314l-6.197,10.475c-5.64,9.532-18.135,12.831-27.856,7.353l-8.008-4.512
	c-6.526,5.262-13.922,9.443-21.82,12.335v8.729c0,11.126-9.186,20.179-20.478,20.179H97.932c-11.291,0-20.478-9.052-20.478-20.179
	v-8.729c-7.898-2.893-15.294-7.074-21.82-12.335l-8.008,4.512c-9.722,5.479-22.219,2.178-27.856-7.354l-6.197-10.473
	c-2.757-4.661-3.505-10.099-2.108-15.315c1.412-5.271,4.833-9.662,9.634-12.368l7.796-4.391c-0.675-4.015-1.015-8.084-1.015-12.161
	c0-4.077,0.341-8.147,1.015-12.161l-7.795-4.391c-4.801-2.706-8.223-7.097-9.635-12.368c-1.397-5.216-0.648-10.654,2.108-15.314
	l6.197-10.475c5.637-9.532,18.135-12.83,27.855-7.353l8.008,4.512c6.527-5.263,13.921-9.443,21.82-12.334v-8.73
	c0-11.126,9.186-20.179,20.478-20.179h12.394c11.291,0,20.478,9.052,20.478,20.179v8.73c7.898,2.892,15.293,7.072,21.82,12.334
	l8.008-4.512c9.72-5.48,22.218-2.178,27.856,7.354l6.196,10.473c2.757,4.661,3.506,10.099,2.109,15.315
	c-1.412,5.271-4.833,9.662-9.634,12.368l-7.795,4.391c0.675,4.016,1.015,8.085,1.015,12.161c0,4.076-0.341,8.147-1.015,12.161
	l7.795,4.391l0,0C191.956,432.464,195.378,436.856,196.79,442.127z M181.172,446.31c-0.277-1.036-0.971-1.91-1.953-2.464
	l-12.963-7.303c-3.191-1.798-4.775-5.516-3.86-9.062c1.202-4.659,1.811-9.461,1.811-14.273c0-4.813-0.609-9.615-1.811-14.273
	c-0.915-3.546,0.669-7.264,3.86-9.062l12.963-7.303c0.982-0.554,1.676-1.428,1.953-2.464c0.185-0.695,0.266-1.761-0.406-2.898
	l-6.197-10.473c-1.174-1.987-3.924-2.672-6.004-1.501l-12.985,7.317c-3.091,1.742-6.956,1.265-9.531-1.177
	c-7.136-6.765-15.947-11.734-25.483-14.366c-3.505-0.967-5.933-4.156-5.933-7.792v-14.619c0-2.212-1.933-4.011-4.309-4.011H97.932
	c-2.377,0-4.309,1.799-4.309,4.011v14.619c0,3.636-2.427,6.825-5.933,7.792c-9.536,2.632-18.348,7.601-25.484,14.366
	c-2.574,2.441-6.438,2.92-9.531,1.177l-12.985-7.317c-2.079-1.171-4.829-0.485-6.004,1.5l-6.197,10.475
	c-0.673,1.137-0.593,2.203-0.406,2.897c0.277,1.036,0.971,1.91,1.953,2.464l12.963,7.303c3.192,1.798,4.775,5.517,3.86,9.063
	c-1.202,4.655-1.811,9.457-1.811,14.272s0.609,9.617,1.811,14.272c0.915,3.546-0.668,7.265-3.86,9.063l-12.964,7.303
	c-0.982,0.554-1.676,1.428-1.953,2.464c-0.185,0.695-0.266,1.761,0.406,2.898l6.196,10.473c1.175,1.987,3.925,2.672,6.004,1.502
	l12.985-7.317c1.242-0.7,2.609-1.041,3.967-1.041c2.022,0,4.024,0.757,5.564,2.218c7.135,6.765,15.947,11.734,25.484,14.367
	c3.504,0.968,5.932,4.156,5.932,7.792v14.619c0,2.212,1.933,4.011,4.309,4.011h12.394c2.377,0,4.309-1.799,4.309-4.011v-14.619
	c0-3.636,2.427-6.824,5.932-7.792c9.537-2.633,18.349-7.602,25.484-14.367c2.575-2.44,6.439-2.918,9.531-1.177l12.985,7.317
	c2.078,1.172,4.829,0.485,6.004-1.5l6.197-10.475C181.439,448.07,181.358,447.004,181.172,446.31z M279.047,120.818
	c-3.697,2.503-4.664,7.529-2.16,11.226c7.552,11.152,11.543,24.197,11.543,37.724c0,37.147-30.221,67.368-67.366,67.368
	s-67.366-30.221-67.366-67.368c0-13.398,3.921-26.338,11.339-37.421c12.551-18.751,33.496-29.947,56.026-29.947
	c13.076,0,25.752,3.749,36.661,10.839c3.742,2.434,8.751,1.371,11.183-2.371c2.434-3.745,1.371-8.75-2.372-11.184
	c-13.536-8.801-29.261-13.452-45.472-13.452c-27.937,0-53.903,13.878-69.463,37.122c-9.206,13.753-14.072,29.803-14.072,46.415
	c0,46.062,37.473,83.537,83.535,83.537s83.535-37.475,83.535-83.537c0-16.773-4.953-32.951-14.324-46.789
	C287.771,119.282,282.744,118.315,279.047,120.818z M304.791,264.784c-12.64,11.138-27.425,19.688-43.309,25.043v20.068
	c0,16.344-13.297,29.642-29.641,29.642h-21.557c-16.344,0-29.641-13.298-29.641-29.642v-20.067
	c-15.884-5.356-30.668-13.905-43.309-25.043l-17.411,10.052c-6.858,3.959-14.845,5.01-22.492,2.962
	c-7.648-2.049-14.04-6.955-17.999-13.811l-10.779-18.669c-8.172-14.156-3.304-32.32,10.85-40.491l17.389-10.04
	c-1.646-8.211-2.478-16.601-2.478-25.018s0.832-16.807,2.478-25.018l-17.389-10.04c-14.154-8.172-19.022-26.336-10.85-40.491
	l10.779-18.669c3.959-6.856,10.351-11.762,17.999-13.811c7.65-2.048,15.637-0.996,22.494,2.962l17.41,10.052
	c12.639-11.138,27.425-19.688,43.309-25.043V29.642C180.644,13.298,193.941,0,210.285,0h21.557
	c16.344,0,29.641,13.298,29.641,29.642v20.067c15.884,5.356,30.668,13.905,43.309,25.043L322.203,64.7
	c6.856-3.96,14.844-5.011,22.492-2.962c7.648,2.049,14.04,6.955,17.999,13.811l10.778,18.669c3.959,6.856,5.01,14.845,2.961,22.494
	c-2.049,7.648-6.953,14.038-13.811,17.998l-17.389,10.04c1.646,8.21,2.478,16.6,2.478,25.018c0,8.418-0.832,16.808-2.478,25.018
	l17.389,10.04c6.856,3.959,11.761,10.351,13.811,17.998c2.049,7.649,0.997,15.637-2.961,22.493l-10.779,18.669
	c-3.958,6.856-10.35,11.762-17.998,13.811c-7.649,2.05-15.636,0.997-22.493-2.962L304.791,264.784z M307.718,247.804l22.569,13.031
	c3.117,1.8,6.749,2.28,10.224,1.346c3.476-0.931,6.381-3.161,8.18-6.278l10.779-18.669c1.799-3.117,2.278-6.749,1.346-10.224
	c-0.931-3.476-3.161-6.381-6.278-8.181l-22.542-13.015c-3.129-1.807-4.68-5.47-3.797-8.975c2.219-8.813,3.344-17.92,3.344-27.07
	c0-9.15-1.125-18.257-3.344-27.07c-0.883-3.504,0.668-7.168,3.797-8.975l22.542-13.015c3.117-1.8,5.346-4.705,6.278-8.181
	c0.931-3.476,0.453-7.108-1.346-10.224l-10.779-18.669c-1.799-3.117-4.705-5.346-8.181-6.278c-3.476-0.931-7.108-0.453-10.224,1.346
	l-22.568,13.029c-3.132,1.81-7.083,1.317-9.675-1.203c-13.14-12.769-29.338-22.133-46.843-27.085
	c-3.481-0.984-5.884-4.161-5.884-7.779V29.642c0-7.43-6.044-13.474-13.474-13.474h-21.557c-7.429,0-13.474,6.044-13.474,13.474
	v26.024c0,3.617-2.403,6.795-5.884,7.779c-17.505,4.952-33.704,14.317-46.843,27.085c-2.593,2.52-6.543,3.013-9.675,1.203
	L111.84,78.702c-3.116-1.8-6.749-2.279-10.224-1.346c-3.476,0.931-6.382,3.161-8.181,6.278l-10.779,18.669
	c-3.714,6.434-1.503,14.691,4.932,18.405l22.541,13.014c3.129,1.807,4.68,5.47,3.797,8.975c-2.219,8.814-3.345,17.922-3.345,27.07
	c0,9.148,1.125,18.257,3.345,27.07c0.883,3.504-0.668,7.168-3.797,8.975l-22.541,13.014c-6.434,3.714-8.646,11.971-4.931,18.405
	l10.778,18.669c1.799,3.117,4.705,5.346,8.181,6.278c3.476,0.933,7.108,0.454,10.224-1.346l22.569-13.031
	c1.261-0.729,2.655-1.083,4.039-1.083c2.054,0,4.087,0.781,5.636,2.286c13.14,12.769,29.338,22.133,46.843,27.085
	c3.481,0.984,5.884,4.161,5.884,7.779v26.026c0,7.43,6.044,13.474,13.474,13.474h21.557c7.429,0,13.474-6.044,13.474-13.474v-26.024
	c0-3.617,2.403-6.795,5.884-7.779c17.505-4.952,33.704-14.317,46.843-27.085C300.636,246.488,304.586,245.995,307.718,247.804z
	 M261.483,158.989c0-4.466-3.62-8.084-8.084-8.084h-64.672c-4.465,0-8.084,3.618-8.084,8.084c0,4.466,3.62,8.084,8.084,8.084h64.672
	C257.863,167.074,261.483,163.455,261.483,158.989z M210.284,183.242c-4.465,0-8.084,3.618-8.084,8.084s3.62,8.084,8.084,8.084
	h21.557c4.465,0,8.084-3.618,8.084-8.084s-3.62-8.084-8.084-8.084H210.284z"/>
<g>
</g>
<g>
</g>
<g>
</g>
<g>
</g>
<g>
</g>
<g>
</g>
<g>
</g>
<g>
</g>
<g>
</g>
<g>
</g>
<g>
</g>
<g>
</g>
<g>
</g>
<g>
</g>
<g>
</g>
</svg>
