<?xml version="1.0" encoding="iso-8859-1"?>
<!-- Generator: Adobe Illustrator 19.0.0, SVG Export Plug-In . SVG Version: 6.00 Build 0)  -->
<svg version="1.1" id="Layer_1" xmlns="http://www.w3.org/2000/svg" xmlns:xlink="http://www.w3.org/1999/xlink" x="0px" y="0px"
	 viewBox="0 0 512 512" style="enable-background:new 0 0 512 512;" xml:space="preserve">
<path style="fill:#FFBC00;" d="M175.158,8.084h161.684c32.742,0,59.284,26.542,59.284,59.284l0,0
	c0,32.742-26.542,59.284-59.284,59.284H175.158c-32.742,0-59.284-26.542-59.284-59.284l0,0
	C115.874,34.626,142.416,8.084,175.158,8.084z"/>
<path style="fill:#56889B;" d="M503.916,471.579c0,17.86-14.477,32.337-32.337,32.337h-43.116c-17.86,0-32.337-14.477-32.337-32.337
	c0-17.86,14.477-32.337,32.337-32.337h43.116C489.439,439.242,503.916,453.719,503.916,471.579z M280.253,439.242h-48.505
	c-17.86,0-32.337,14.477-32.337,32.337c0,17.86,14.477,32.337,32.337,32.337h48.505c17.86,0,32.337-14.477,32.337-32.337
	C312.589,453.719,298.112,439.242,280.253,439.242z M83.537,439.242H40.421c-17.86,0-32.337,14.477-32.337,32.337
	c0,17.86,14.477,32.337,32.337,32.337h43.116c17.86,0,32.337-14.477,32.337-32.337C115.874,453.719,101.396,439.242,83.537,439.242z
	"/>
<path style="fill:#92B703;" d="M234.442,299.116c0,17.859-14.477,32.337-32.337,32.337h-86.232
	c-17.859,0-32.337-14.478-32.337-32.337c0-17.86,14.477-32.337,32.337-32.337h86.232
	C219.965,266.779,234.442,281.256,234.442,299.116z M396.126,266.779h-86.232c-17.859,0-32.337,14.477-32.337,32.337
	c0,17.859,14.477,32.337,32.337,32.337h86.232c17.859,0,32.337-14.478,32.337-32.337
	C428.463,281.256,413.986,266.779,396.126,266.779z"/>
<path d="M471.579,431.158h-13.474v-35.032c0-10.401-8.463-18.863-18.863-18.863h-78.147v-37.726h35.032
	c22.289,0,40.421-18.132,40.421-40.421c0-22.289-18.132-40.421-40.421-40.421h-35.032v-35.032c0-10.401-8.463-18.863-18.863-18.863
	h-78.147v-70.063h72.758c37.146,0,67.368-30.221,67.368-67.368S373.988,0,336.842,0H175.158c-37.146,0-67.368,30.221-67.368,67.368
	s30.222,67.368,67.368,67.368h72.758V204.8h-78.147c-10.401,0-18.863,8.463-18.863,18.863v35.032h-35.032
	c-22.289,0-40.421,18.132-40.421,40.421c0,22.289,18.132,40.421,40.421,40.421h33.684v37.726h-76.8
	c-10.401,0-18.863,8.463-18.863,18.863v35.032H40.421C18.132,431.158,0,449.29,0,471.579C0,493.868,18.132,512,40.421,512h43.116
	c22.289,0,40.421-18.132,40.421-40.421c0-22.289-18.132-40.421-40.421-40.421H70.063v-35.032c0-1.486,1.209-2.695,2.695-2.695
	h175.158v37.726h-16.168c-22.289,0-40.421,18.132-40.421,40.421c0,22.289,18.132,40.421,40.421,40.421h48.505
	c22.289,0,40.421-18.132,40.421-40.421c0-22.289-18.132-40.421-40.421-40.421h-16.168v-37.726h175.158
	c1.485,0,2.695,1.208,2.695,2.695v35.032h-13.474c-22.289,0-40.421,18.132-40.421,40.421c0,22.289,18.132,40.421,40.421,40.421
	h43.116C493.868,512,512,493.868,512,471.579C512,449.29,493.868,431.158,471.579,431.158z M83.537,447.326
	c13.373,0,24.253,10.88,24.253,24.253s-10.879,24.253-24.253,24.253H40.421c-13.373,0-24.253-10.88-24.253-24.253
	s10.879-24.253,24.253-24.253H83.537z M175.158,118.568c-28.231,0-51.2-22.969-51.2-51.2s22.969-51.2,51.2-51.2h161.684
	c28.231,0,51.2,22.969,51.2,51.2s-22.969,51.2-51.2,51.2H256H175.158z M115.874,323.368c-13.373,0-24.253-10.88-24.253-24.253
	c0-13.372,10.879-24.253,24.253-24.253h86.232c13.373,0,24.253,10.88,24.253,24.253c0,13.372-10.879,24.253-24.253,24.253h-44.463
	H115.874z M280.253,447.326c13.373,0,24.253,10.88,24.253,24.253s-10.879,24.253-24.253,24.253h-48.505
	c-13.373,0-24.253-10.88-24.253-24.253s10.879-24.253,24.253-24.253H280.253z M344.926,377.263H256h-90.274v-37.726h36.379
	c22.289,0,40.421-18.132,40.421-40.421c0-22.289-18.132-40.421-40.421-40.421h-35.032v-35.032c0-1.486,1.209-2.695,2.695-2.695
	h172.463c1.485,0,2.695,1.208,2.695,2.695v35.032h-35.032c-22.289,0-40.421,18.132-40.421,40.421
	c0,22.289,18.132,40.421,40.421,40.421h35.032V377.263z M309.895,323.368c-13.373,0-24.253-10.88-24.253-24.253
	c0-13.372,10.879-24.253,24.253-24.253h86.232c13.373,0,24.253,10.88,24.253,24.253c0,13.372-10.879,24.253-24.253,24.253H353.01
	H309.895z M471.579,495.832h-43.116c-13.373,0-24.253-10.88-24.253-24.253s10.879-24.253,24.253-24.253h43.116
	c13.373,0,24.253,10.88,24.253,24.253S484.952,495.832,471.579,495.832z M320.674,59.284H191.326c-4.465,0-8.084-3.618-8.084-8.084
	s3.62-8.084,8.084-8.084h129.347c4.465,0,8.084,3.618,8.084,8.084S325.138,59.284,320.674,59.284z M288.337,91.621h-64.674
	c-4.465,0-8.084-3.618-8.084-8.084c0-4.466,3.62-8.084,8.084-8.084h64.674c4.465,0,8.084,3.618,8.084,8.084
	C296.421,88.003,292.801,91.621,288.337,91.621z"/>
<g>
</g>
<g>
</g>
<g>
</g>
<g>
</g>
<g>
</g>
<g>
</g>
<g>
</g>
<g>
</g>
<g>
</g>
<g>
</g>
<g>
</g>
<g>
</g>
<g>
</g>
<g>
</g>
<g>
</g>
</svg>
