<?xml version="1.0" encoding="iso-8859-1"?>
<!-- Generator: Adobe Illustrator 19.0.0, SVG Export Plug-In . SVG Version: 6.00 Build 0)  -->
<svg version="1.1" id="Layer_1" xmlns="http://www.w3.org/2000/svg" xmlns:xlink="http://www.w3.org/1999/xlink" x="0px" y="0px"
	 viewBox="0 0 512 512" style="enable-background:new 0 0 512 512;" xml:space="preserve">
<path style="fill:#EDEDED;" d="M460.8,482.366H51.2c-11.906,0-21.558-9.651-21.558-21.558V51.383
	c0-11.906,9.651-21.558,21.558-21.558h409.6c11.906,0,21.558,9.651,21.558,21.558v409.425
	C482.358,472.714,472.706,482.366,460.8,482.366z"/>
<path style="fill:#FF8655;" d="M450.021,350.393v56.358c0,11.901-9.651,21.549-21.558,21.549H105.095
	c-11.906,0-21.558-9.648-21.558-21.549V29.633c0-11.901,9.651-21.549,21.558-21.549h33.538c6.098,0,11.911,2.582,15.998,7.105
	l289.831,320.76C448.04,339.91,450.021,345.057,450.021,350.393z"/>
<path style="fill:#B7441C;" d="M279.183,269.644c2.021-2.021,4.763-3.156,7.622-3.156h11.545V105.632
	c0-11.901,9.651-21.549,21.558-21.549h43.116c11.906,0,21.558,9.648,21.558,21.549v160.856h11.544c2.859,0,5.601,1.135,7.622,3.156
	c4.209,4.208,4.209,11.03,0,15.238l-54.661,54.64c-4.209,4.208-11.034,4.208-15.244,0l-54.661-54.64
	C274.974,280.673,274.974,273.851,279.183,269.644z"/>
<path d="M273.468,290.494L273.468,290.494l54.661,54.618c3.678,3.673,8.507,5.51,13.337,5.51c4.828,0,9.659-1.838,13.335-5.51
	l54.662-54.618c3.565-3.562,5.526-8.298,5.526-13.336c0-5.037-1.962-9.772-5.53-13.337c-3.564-3.558-8.298-5.517-13.334-5.517
	h-3.461V105.402c0-16.335-13.298-29.625-29.642-29.625h-43.116c-16.344,0-29.642,13.289-29.642,29.625v152.903h-3.46
	c-5.037,0-9.772,1.96-13.337,5.519c-3.564,3.562-5.526,8.298-5.526,13.335C267.942,282.196,269.905,286.931,273.468,290.494z
	 M284.897,275.261c0.501-0.501,1.196-0.788,1.909-0.788h11.544c4.466,0,8.084-3.618,8.084-8.084V105.402
	c0-7.42,6.044-13.456,13.474-13.456h43.116c7.43,0,13.474,6.037,13.474,13.456v160.987c0,4.466,3.618,8.084,8.084,8.084h11.544
	c0.721,0,1.4,0.281,1.908,0.788c0.686,0.684,0.787,1.482,0.787,1.897c0,0.416-0.102,1.214-0.786,1.898l-54.662,54.618
	c-1.051,1.053-2.763,1.053-3.815,0l-54.661-54.618h0.001c-0.686-0.684-0.787-1.482-0.787-1.898
	C284.11,276.743,284.213,275.945,284.897,275.261z M512,482.375c0,2.145-0.853,4.202-2.37,5.719l-21.558,21.541
	c-1.578,1.577-3.647,2.365-5.714,2.365c-2.071,0-4.14-0.789-5.719-2.37c-3.156-3.158-3.154-8.277,0.005-11.432l7.745-7.738H51.2
	c-16.345,0-29.642-13.289-29.642-29.625V27.974l-7.76,7.753c-3.158,3.155-8.277,3.156-11.432-0.005
	c-3.156-3.158-3.154-8.277,0.004-11.432L23.928,2.749c3.157-3.154,8.272-3.154,11.429,0l21.558,21.541
	c3.158,3.156,3.16,8.275,0.004,11.432c-3.155,3.159-8.274,3.16-11.432,0.005l-7.761-7.753v432.86c0,7.42,6.044,13.456,13.474,13.456
	h433.189l-7.745-7.738c-3.159-3.156-3.161-8.275-0.005-11.432c3.157-3.16,8.276-3.161,11.432-0.005l21.558,21.541
	C511.147,478.172,512,480.229,512,482.375z M75.452,406.598V29.625C75.452,13.289,88.749,0,105.095,0h33.538
	c8.368,0,16.385,3.559,21.996,9.766l110.755,122.528c2.994,3.312,2.737,8.424-0.576,11.418c-3.311,2.993-8.424,2.736-11.418-0.576
	L148.634,20.607c-2.55-2.821-6.196-4.439-10.001-4.439h-33.539c-7.43,0-13.474,6.037-13.474,13.456v376.972
	c0,7.42,6.044,13.456,13.474,13.456h323.368c7.43,0,13.474-6.037,13.474-13.456v-56.335c0-3.338-1.234-6.54-3.473-9.018
	l-23.302-25.779c-2.993-3.312-2.736-8.424,0.577-11.419c3.311-2.993,8.424-2.735,11.418,0.577l23.302,25.779
	c4.93,5.455,7.647,12.508,7.647,19.86v56.336c0,16.335-13.298,29.625-29.642,29.625H105.095
	C88.749,436.223,75.452,422.934,75.452,406.598z"/>
<g>
</g>
<g>
</g>
<g>
</g>
<g>
</g>
<g>
</g>
<g>
</g>
<g>
</g>
<g>
</g>
<g>
</g>
<g>
</g>
<g>
</g>
<g>
</g>
<g>
</g>
<g>
</g>
<g>
</g>
</svg>
