<svg height="480pt" viewBox="0 0 480 480" width="480pt" xmlns="http://www.w3.org/2000/svg"><path d="m471.992188 472h-352v-464h288l64 64zm0 0" fill="#36afad"/><path d="m247.992188 200v-16h-96v72h16l24 24 8-8 104 104 88-88-88-88zm0 0" fill="#f6bf9b"/><path d="m247.996094 368.003906 24.003906-24.003906 24 24.003906-24 24zm0 0" fill="#edb38c"/><path d="m224 344.003906 24-24.003906 24.003906 24.003906-24.003906 24zm0 0" fill="#ce926a"/><path d="m199.992188 320.003906 24.003906-24.003906 24 24.003906-24 24zm0 0" fill="#edb38c"/><g fill="#ce926a"><path d="m175.996094 296.003906 24.003906-24.003906 24 24.003906-24 24zm0 0"/><path d="m359.992188 328c-2.121094 0-4.15625-.84375-5.65625-2.34375l-40-40c-3.03125-3.140625-2.988282-8.128906.097656-11.214844 3.085937-3.085937 8.074218-3.128906 11.214844-.097656l40 40c2.289062 2.289062 2.972656 5.730469 1.734374 8.71875-1.238281 2.988281-4.15625 4.9375-7.390624 4.9375zm0 0"/><path d="m335.992188 352c-2.121094 0-4.15625-.84375-5.65625-2.34375l-40-40c-3.03125-3.140625-2.988282-8.128906.097656-11.214844 3.085937-3.085937 8.074218-3.128906 11.214844-.097656l40 40c2.289062 2.289062 2.972656 5.730469 1.734374 8.71875-1.238281 2.988281-4.15625 4.9375-7.390624 4.9375zm0 0"/><path d="m423.992188 208-48-40h-128v32h56l88 88h48v-80zm0 0"/></g><path d="m239.992188 72h96v64h-96zm0 0" fill="#f9cc91"/><path d="m215.992188 72 72-48 72 48zm0 0" fill="#e9686a"/><path d="m271.992188 104h32v32h-32zm0 0" fill="#fff"/><path d="m359.992188 144h-144c-4.417969 0-8-3.582031-8-8s3.582031-8 8-8h144c4.417968 0 8 3.582031 8 8s-3.582032 8-8 8zm0 0" fill="#e9686a"/><path d="m439.992188 400h-80c-4.417969 0-8-3.582031-8-8s3.582031-8 8-8h80c4.417968 0 8 3.582031 8 8s-3.582032 8-8 8zm0 0" fill="#fff"/><path d="m439.992188 432h-80c-4.417969 0-8-3.582031-8-8s3.582031-8 8-8h80c4.417968 0 8 3.582031 8 8s-3.582032 8-8 8zm0 0" fill="#fff"/><path d="m407.992188 72h64l-64-64zm0 0" fill="#238892"/><path d="m119.992188 32-112 32 112 336zm0 0" fill="#238892"/><path d="m439.992188 200h-13.101563l-45.769531-38.144531c-1.441406-1.199219-3.253906-1.855469-5.128906-1.855469h-128c-4.417969 0-8 3.582031-8 8v8h-88c-4.417969 0-8 3.582031-8 8v72c0 4.417969 3.582031 8 8 8h12.6875l16 16-10.34375 10.34375c-3.121094 3.125-3.121094 8.1875 0 11.3125l96 96c3.125 3.121094 8.1875 3.121094 11.3125 0l18.34375-18.34375 2.34375 2.34375c3.125 3.121094 8.1875 3.121094 11.3125 0l85.65625-85.65625h44.6875c4.417968 0 8-3.582031 8-8v-80c0-4.417969-3.582032-8-8-8zm-242.34375 85.65625 2.34375-2.34375 12.6875 12.6875-12.6875 12.6875-12.6875-12.6875zm26.34375 21.65625 12.6875 12.6875-12.6875 12.6875-12.6875-12.6875zm24 24 12.6875 12.6875-12.6875 12.6875-12.6875-12.6875zm24 49.375-12.6875-12.6875 12.6875-12.6875 12.6875 12.6875zm88-72-34.34375-34.34375c-3.140626-3.03125-8.128907-2.988281-11.214844.097656-3.085938 3.085938-3.128906 8.074219-.097656 11.214844l34.34375 34.34375-12.6875 12.6875-34.34375-34.34375c-3.140626-3.03125-8.128907-2.988281-11.214844.097656-3.085938 3.085938-3.128906 8.074219-.097656 11.214844l34.34375 34.34375-20.6875 20.6875-98.34375-98.34375c-3.125-3.121094-8.1875-3.121094-11.3125 0l-2.34375 2.34375-18.34375-18.34375c-1.5-1.5-3.535157-2.34375-5.65625-2.34375h-8v-56h80v8c0 4.417969 3.582031 8 8 8h52.6875l80 80zm72-28.6875h-36.6875l-85.65625-85.65625c-1.5-1.5-3.535157-2.34375-5.65625-2.34375h-48v-16h117.105468l45.765625 38.144531c1.441407 1.199219 3.253907 1.855469 5.128907 1.855469h8zm0 0"/><path d="m215.992188 128c-4.417969 0-8 3.582031-8 8s3.582031 8 8 8h144c4.417968 0 8-3.582031 8-8s-3.582032-8-8-8h-16v-48h16c3.527343 0 6.636718-2.304688 7.660156-5.679688 1.019531-3.375-.285156-7.019531-3.21875-8.976562l-72-48c-2.6875-1.792969-6.191406-1.792969-8.882813 0l-72 48c-2.929687 1.957031-4.238281 5.601562-3.214843 8.976562 1.019531 3.375 4.132812 5.679688 7.65625 5.679688h16v48zm64 0v-16h16v16zm8-94.398438 45.601562 30.398438h-91.199219zm-40 46.398438h80v48h-16v-24c0-4.417969-3.582032-8-8-8h-32c-4.417969 0-8 3.582031-8 8v24h-16zm0 0"/><path d="m439.992188 384h-80c-4.417969 0-8 3.582031-8 8s3.582031 8 8 8h80c4.417968 0 8-3.582031 8-8s-3.582032-8-8-8zm0 0"/><path d="m439.992188 416h-80c-4.417969 0-8 3.582031-8 8s3.582031 8 8 8h80c4.417968 0 8-3.582031 8-8s-3.582032-8-8-8zm0 0"/><path d="m479.480469 69.433594c-.085938-.257813-.152344-.496094-.265625-.746094-.386719-.871094-.929688-1.664062-1.597656-2.34375l-64-64c-.675782-.671875-1.464844-1.214844-2.335938-1.601562-.257812-.117188-.503906-.183594-.800781-.277344-.65625-.222656-1.339844-.355469-2.03125-.402344-.113281.0273438-.273438-.0625-.457031-.0625h-288c-4.417969 0-8 3.582031-8 8v17.96875l-106.191407 30.34375c-2.097656.597656-3.859375 2.027344-4.875 3.957031-1.019531 1.929688-1.207031 4.1875-.515625 6.257813l111.582032 334.761718v70.710938c0 4.417969 3.582031 8 8 8h352c4.417968 0 8-3.582031 8-8v-400c-.105469-.867188-.277344-1.726562-.511719-2.566406zm-26.800781-5.433594h-36.6875v-36.6875zm-434.453126 5.398438 93.765626-26.789063v308.09375zm109.765626 394.601562v-448h272v56c0 4.417969 3.582031 8 8 8h56v384zm0 0"/></svg>