<?xml version="1.0" encoding="iso-8859-1"?>
<!-- Generator: Adobe Illustrator 19.0.0, SVG Export Plug-In . SVG Version: 6.00 Build 0)  -->
<svg version="1.1" id="Capa_1" xmlns="http://www.w3.org/2000/svg" xmlns:xlink="http://www.w3.org/1999/xlink" x="0px" y="0px"
	 viewBox="0 0 512.001 512.001" style="enable-background:new 0 0 512.001 512.001;" xml:space="preserve">
<g>
	<path style="fill:#FFE451;" d="M74.668,136.854v74.987l-51.093-39.467L74.668,136.854z"/>
	<path style="fill:#FFE451;" d="M437.334,136.747l51.093,35.627l-51.093,39.467V136.747z"/>
</g>
<path style="fill:#FFC951;" d="M437.334,211.84l51.093-39.467l12.907,8.96V480c0.03,5.66-2.241,11.088-6.293,15.04L448.001,448
	L310.188,310.187L437.334,211.84z"/>
<path style="fill:#FFE451;" d="M448.001,448l47.04,47.04c-3.952,4.052-9.38,6.323-15.04,6.293h-448
	c-5.66,0.03-11.088-2.242-15.04-6.293L64.001,448l137.813-137.813L256.001,352l54.187-41.813L448.001,448z"/>
<path style="fill:#FFC951;" d="M74.668,211.84l127.147,98.347L64.001,448l-47.04,47.04c-4.052-3.952-6.323-9.38-6.293-15.04V181.334
	l12.907-8.96L74.668,211.84z"/>
<g>
	<path style="fill:#F2F2F2;" d="M310.188,310.187L256.001,352l-54.187-41.813L74.668,211.84v-74.987V32h53.333h256h53.333v104.747
		v75.093L310.188,310.187z"/>
	<circle style="fill:#F2F2F2;" cx="256.001" cy="128" r="32"/>
</g>
<path style="fill:#AAC4DA;" d="M373.334,106.667v42.667h-34.773c-2.019,7.699-5.069,15.091-9.067,21.973l24.533,24.533
	l-30.187,30.187l-24.533-24.533c-6.883,3.998-14.274,7.048-21.973,9.067v34.773h-42.667V210.56
	c-7.699-2.019-15.091-5.069-21.973-9.067l-24.533,24.533l-30.187-30.187l24.533-24.533c-3.998-6.883-7.048-14.274-9.067-21.973
	h-34.773v-42.667h34.773c2.019-7.699,5.069-15.091,9.067-21.973L157.974,60.16l30.187-30.187l24.533,24.533
	c6.883-3.998,14.274-7.048,21.973-9.067V10.667h42.667V45.44c7.699,2.019,15.091,5.069,21.973,9.067l24.533-24.533l30.187,30.187
	l-24.533,24.533c3.998,6.883,7.048,14.274,9.067,21.973H373.334z M288.001,128c0-17.673-14.327-32-32-32s-32,14.327-32,32
	s14.327,32,32,32S288.001,145.673,288.001,128z"/>
<g>
	<path style="fill:#4C5B66;" d="M507.414,172.576L448.001,131.2V32c0-5.891-4.776-10.667-10.667-10.667h-53.333v21.333h42.667
		v163.979L256.001,338.528L85.334,206.603V42.667h42.667V21.334H74.668c-5.891,0-10.667,4.776-10.667,10.667v99.275L4.588,172.576
		c-2.871,1.992-4.584,5.263-4.587,8.757V480c-0.069,8.449,3.296,16.564,9.323,22.485c5.951,6.123,14.139,9.558,22.677,9.515h448
		c17.632-0.099,31.901-14.368,32-32V181.334C511.999,177.839,510.285,174.568,507.414,172.576z M448.001,157.184l22.4,15.616
		l-22.4,17.355V157.184z M64.001,190.134l-22.4-17.333l22.4-15.541V190.134z M490.668,480c0.004,2.873-1.177,5.621-3.264,7.595
		c-1.946,1.99-4.62,3.1-7.403,3.072h-448c-2.877,0.007-5.629-1.174-7.605-3.264c-1.978-1.953-3.082-4.623-3.061-7.403V186.912
		l1.888-1.312l162.507,125.579L56.46,440.459l15.083,15.083l131.2-131.2l46.731,36.117c3.84,2.963,9.195,2.963,13.035,0
		l46.731-36.117l131.2,131.2l15.083-15.083l-129.28-129.28l117.589-90.901L488.78,185.6l1.888,1.312V480z"/>
	<path style="fill:#4C5B66;" d="M128.001,149.334c0,5.891,4.776,10.667,10.667,10.667h26.901c1.129,3.169,2.421,6.277,3.872,9.312
		l-19.04,19.029c-4.164,4.165-4.164,10.917,0,15.083l30.176,30.176c4.165,4.164,10.917,4.164,15.083,0l24.597-24.597l-15.083-15.083
		l-17.067,17.067l-15.083-15.083l17.067-17.067c3.447-3.439,4.127-8.777,1.653-12.971c-3.538-5.997-6.22-12.46-7.968-19.2
		c-1.215-4.705-5.456-7.994-10.315-8h-24.128v-21.333h24.128c4.859-0.006,9.1-3.295,10.315-8c1.748-6.74,4.43-13.203,7.968-19.2
		c2.474-4.194,1.794-9.531-1.653-12.971l-17.067-17.067l15.083-15.083l17.067,17.067c3.442,3.444,8.779,4.12,12.971,1.643
		c5.998-3.531,12.461-6.206,19.2-7.947c4.701-1.219,7.985-5.459,7.989-10.315V21.334h21.333v24.128c0.001,4.863,3.291,9.11,8,10.325
		c6.739,1.741,13.202,4.416,19.2,7.947c4.192,2.477,9.529,1.801,12.971-1.643l17.067-17.067l15.083,15.083l-17.067,17.067
		c-3.447,3.439-4.127,8.777-1.653,12.971c3.538,5.997,6.22,12.46,7.968,19.2c1.215,4.705,5.456,7.994,10.315,8h24.117v21.333H338.54
		c-4.859,0.006-9.1,3.295-10.315,8c-1.748,6.74-4.43,13.203-7.968,19.2c-2.474,4.194-1.794,9.531,1.653,12.971l17.067,17.067
		l-15.083,15.083l-17.067-17.067l-15.083,15.083l24.597,24.587c4.165,4.164,10.917,4.164,15.083,0l30.176-30.176
		c4.164-4.165,4.164-10.917,0-15.083l-19.029-19.029c1.447-3.035,2.736-6.143,3.861-9.312h26.901
		c5.891,0,10.667-4.776,10.667-10.667v-42.667c0-5.891-4.776-10.667-10.667-10.667h-26.901c-1.129-3.169-2.421-6.277-3.872-9.312
		l19.04-19.029c4.164-4.165,4.164-10.917,0-15.083L331.425,22.4c-4.165-4.164-10.917-4.164-15.083,0L297.313,41.43
		c-3.036-1.445-6.144-2.733-9.312-3.861V10.667C288.001,4.776,283.225,0,277.334,0h-42.667c-5.891,0-10.667,4.776-10.667,10.667
		v26.901c-3.168,1.128-6.276,2.417-9.312,3.861L195.66,22.4c-4.165-4.164-10.917-4.164-15.083,0l-30.176,30.176
		c-4.164,4.165-4.164,10.917,0,15.083l19.029,19.029c-1.447,3.035-2.736,6.143-3.861,9.312h-26.901
		c-5.891,0-10.667,4.776-10.667,10.667L128.001,149.334z"/>
	<path style="fill:#4C5B66;" d="M266.668,169.323c22.816-5.891,36.536-29.163,30.645-51.978
		c-5.891-22.816-29.163-36.536-51.979-30.645c-18.834,4.863-31.995,21.849-32,41.301h21.333c0-11.782,9.551-21.333,21.333-21.333
		c11.782,0,21.333,9.551,21.333,21.333s-9.551,21.333-21.333,21.333c-5.891,0-10.667,4.776-10.667,10.667v53.333h21.333V169.323z"/>
	<path style="fill:#4C5B66;" d="M245.334,234.667h21.333V256h-21.333V234.667z"/>
	<path style="fill:#4C5B66;" d="M245.334,277.334h21.333v21.333h-21.333V277.334z"/>
</g>
<g>
</g>
<g>
</g>
<g>
</g>
<g>
</g>
<g>
</g>
<g>
</g>
<g>
</g>
<g>
</g>
<g>
</g>
<g>
</g>
<g>
</g>
<g>
</g>
<g>
</g>
<g>
</g>
<g>
</g>
</svg>
