<?xml version="1.0" encoding="iso-8859-1"?>
<!-- Generator: Adobe Illustrator 19.0.0, SVG Export Plug-In . SVG Version: 6.00 Build 0)  -->
<svg version="1.1" id="Capa_1" xmlns="http://www.w3.org/2000/svg" xmlns:xlink="http://www.w3.org/1999/xlink" x="0px" y="0px"
	 viewBox="0 0 512 512" style="enable-background:new 0 0 512 512;" xml:space="preserve">
<path style="fill:#F2F2F2;" d="M288,266.667v10.667h-64v-10.667c0-17.673,14.327-32,32-32S288,248.994,288,266.667z"/>
<g>
	<path style="fill:#AAC4DA;" d="M338.56,245.333h34.773v32H288v-10.667c0-17.673-14.327-32-32-32s-32,14.327-32,32v10.667h-85.333
		v-32h34.773c2.019-7.699,5.069-15.091,9.067-21.973l-24.533-24.533l30.187-30.187l24.533,24.533
		c6.883-3.998,14.274-7.048,21.973-9.067v-34.773h42.667v34.773c7.699,2.019,15.091,5.069,21.973,9.067l24.533-24.533l30.187,30.187
		l-24.533,24.533C333.491,230.243,336.541,237.634,338.56,245.333L338.56,245.333z"/>
	<path style="fill:#AAC4DA;" d="M501.333,128h-74.667c-11.768-0.035-21.298-9.566-21.333-21.333V32L501.333,128z"/>
</g>
<g>
	<path style="fill:#D9EEF7;" d="M501.333,128v149.333h-128v-32H338.56c-2.019-7.699-5.069-15.091-9.067-21.973l24.533-24.533
		L323.84,168.64l-24.533,24.533c-6.883-3.998-14.274-7.048-21.973-9.067v-34.773h-42.667v34.773
		c-7.699,2.019-15.091,5.069-21.973,9.067L188.16,168.64l-30.187,30.187l24.533,24.533c-3.998,6.883-7.048,14.274-9.067,21.973
		h-34.773v32h-128v-224C10.702,41.566,20.233,32.035,32,32h373.333v74.667c0.035,11.767,9.566,21.298,21.333,21.333L501.333,128z"/>
	<path style="fill:#D9EEF7;" d="M21.333,437.333H96V480H21.333V437.333z"/>
</g>
<path style="fill:#31E8BB;" d="M490.667,458.667l-32,21.333H96v-42.667h362.667L490.667,458.667z"/>
<path style="fill:#FFE451;" d="M32,309.333h448c5.891,0,10.667,4.776,10.667,10.667v64c0,5.891-4.776,10.667-10.667,10.667H32
	c-5.891,0-10.667-4.776-10.667-10.667v-64C21.333,314.109,26.109,309.333,32,309.333z"/>
<g>
	<path style="fill:#4C5B66;" d="M508.875,120.459l-96-96c-2-2.001-4.713-3.125-7.541-3.125H32c-17.673,0-32,14.327-32,32v224h21.333
		v-224c0-5.891,4.776-10.667,10.667-10.667h362.667v64c0,17.673,14.327,32,32,32h64v138.667H512V128
		C511.999,125.171,510.875,122.459,508.875,120.459z M416,106.667V57.749l59.584,59.584h-48.917
		C420.776,117.333,416,112.558,416,106.667z"/>
	<path style="fill:#4C5B66;" d="M277.333,138.667h-42.667c-5.891,0-10.667,4.776-10.667,10.667v26.901
		c-3.163,1.127-6.267,2.412-9.301,3.851l-18.997-19.019c-4.165-4.164-10.917-4.164-15.083,0l-30.187,30.187
		c-4.164,4.165-4.164,10.917,0,15.083l18.987,18.987c-1.44,3.051-2.731,6.165-3.851,9.312h-26.901
		c-5.891,0-10.667,4.776-10.667,10.667v32h21.333V256h24.107c4.857,0.001,9.101-3.279,10.325-7.979
		c1.784-6.77,4.468-13.271,7.979-19.328c2.413-4.181,1.717-9.461-1.696-12.875l-16.992-16.992l15.104-15.104l16.992,16.992
		c3.413,3.413,8.694,4.109,12.875,1.696c6.055-3.516,12.556-6.2,19.328-7.979c4.7-1.224,7.98-5.468,7.979-10.325V160h21.333v24.107
		c-0.001,4.857,3.279,9.101,7.979,10.325c6.772,1.778,13.273,4.462,19.328,7.979c4.181,2.413,9.461,1.717,12.875-1.696
		l16.992-16.992l15.104,15.104l-16.992,16.992c-3.414,3.413-4.109,8.694-1.696,12.875c3.511,6.057,6.194,12.558,7.979,19.328
		c1.224,4.7,5.468,7.98,10.325,7.979h24.107v21.333H384v-32c0-5.891-4.776-10.667-10.667-10.667h-26.901
		c-1.12-3.2-2.411-6.261-3.851-9.312l18.987-18.987c4.164-4.165,4.164-10.917,0-15.083l-30.187-30.187
		c-4.165-4.164-10.917-4.164-15.083,0l-18.997,18.987c-3.034-1.438-6.138-2.723-9.301-3.851v-26.901
		C288,143.442,283.224,138.667,277.333,138.667L277.333,138.667z"/>
	<path style="fill:#4C5B66;" d="M298.667,277.333v-10.667C298.667,243.103,279.564,224,256,224s-42.667,19.103-42.667,42.667v10.667
		h21.333v-10.667c0-11.782,9.551-21.333,21.333-21.333c11.782,0,21.333,9.551,21.333,21.333v10.667H298.667z"/>
	<path style="fill:#4C5B66;" d="M480,298.667H32c-11.782,0-21.333,9.551-21.333,21.333v64c0,11.782,9.551,21.333,21.333,21.333h448
		c11.782,0,21.333-9.551,21.333-21.333v-64C501.333,308.218,491.782,298.667,480,298.667z M480,384H32v-64h53.333v32h21.333v-32h32
		v42.667H160V320h32v32h21.333v-32h32v42.667h21.333V320h32v32H320v-32h32v42.667h21.333V320h32v32h21.333v-32H480V384z"/>
	<path style="fill:#4C5B66;" d="M496.587,449.792l-32-21.333c-1.755-1.165-3.814-1.789-5.92-1.792H21.333
		c-5.891,0-10.667,4.776-10.667,10.667V480c0,5.891,4.776,10.667,10.667,10.667h437.333c2.106-0.003,4.165-0.627,5.92-1.792
		l32-21.333c4.901-3.268,6.225-9.891,2.957-14.792C498.763,451.578,497.758,450.573,496.587,449.792z M32,448h53.333v21.333H32V448z
		 M455.467,469.333h-348.8V448h348.8l16,10.667L455.467,469.333z"/>
	<path style="fill:#4C5B66;" d="M53.333,74.667h21.333V96H53.333V74.667z"/>
	<path style="fill:#4C5B66;" d="M96,74.667h21.333V96H96V74.667z"/>
	<path style="fill:#4C5B66;" d="M53.333,117.333H160v21.333H53.333V117.333z"/>
	<path style="fill:#4C5B66;" d="M416,256h42.667v21.333H416V256z"/>
	<path style="fill:#4C5B66;" d="M53.333,256H96v21.333H53.333V256z"/>
</g>
<g>
</g>
<g>
</g>
<g>
</g>
<g>
</g>
<g>
</g>
<g>
</g>
<g>
</g>
<g>
</g>
<g>
</g>
<g>
</g>
<g>
</g>
<g>
</g>
<g>
</g>
<g>
</g>
<g>
</g>
</svg>
