<?xml version="1.0" encoding="iso-8859-1"?>
<!-- Generator: Adobe Illustrator 19.0.0, SVG Export Plug-In . SVG Version: 6.00 Build 0)  -->
<svg version="1.1" id="Capa_1" xmlns="http://www.w3.org/2000/svg" xmlns:xlink="http://www.w3.org/1999/xlink" x="0px" y="0px"
	 viewBox="0 0 512 512" style="enable-background:new 0 0 512 512;" xml:space="preserve">
<path style="fill:#69F0F7;" d="M437.333,405.333v32H320l-10.667,21.333H202.667L192,437.333H74.667v-32V160h362.667V405.333z"/>
<path style="fill:#AAC4DA;" d="M480,405.333v32h-42.667V160H74.667v277.333H32V138.667c0.035-11.767,9.566-21.298,21.333-21.333
	h405.333c11.767,0.035,21.298,9.566,21.333,21.333V405.333z"/>
<g>
	<path style="fill:#D9EEF7;" d="M501.333,437.333v53.333c0,5.891-4.776,10.667-10.667,10.667H21.333
		c-5.891,0-10.667-4.776-10.667-10.667v-53.333H192l10.667,21.333h106.667L320,437.333H501.333z"/>
	<path style="fill:#D9EEF7;" d="M21.333,288H96v42.667H21.333V288z"/>
</g>
<path style="fill:#FFE451;" d="M490.667,309.333l-32,21.333H96V288h362.667L490.667,309.333z"/>
<circle style="fill:#E6E6E6;" cx="256" cy="128" r="32"/>
<path style="fill:#D9EEF7;" d="M373.333,106.667v42.667H338.56c-2.019,7.699-5.069,15.091-9.067,21.973l24.533,24.533
	l-30.187,30.187l-24.533-24.533c-6.883,3.998-14.274,7.048-21.973,9.067v34.773h-42.667V210.56
	c-7.699-2.019-15.091-5.069-21.973-9.067l-24.533,24.533l-30.187-30.187l24.533-24.533c-3.998-6.883-7.048-14.274-9.067-21.973
	h-34.773v-42.667h34.773c2.019-7.699,5.069-15.091,9.067-21.973L157.973,60.16l30.187-30.187l24.533,24.533
	c6.883-3.998,14.274-7.048,21.973-9.067V10.667h42.667V45.44c7.699,2.019,15.091,5.069,21.973,9.067l24.533-24.533l30.187,30.187
	l-24.533,24.533c3.998,6.883,7.048,14.274,9.067,21.973H373.333z M288,128c0-17.673-14.327-32-32-32s-32,14.327-32,32
	s14.327,32,32,32S288,145.673,288,128z"/>
<g>
	<path style="fill:#4C5B66;" d="M501.333,426.667H320c-4.043-0.002-7.739,2.282-9.547,5.899L302.741,448h-93.483l-7.659-15.435
		c-1.816-3.634-5.538-5.921-9.6-5.899H10.667C4.776,426.667,0,431.442,0,437.333v53.333C0,502.449,9.551,512,21.333,512h469.333
		c11.782,0,21.333-9.551,21.333-21.333v-53.333C512,431.442,507.224,426.667,501.333,426.667z M490.667,490.667H21.333V448h164.075
		l7.712,15.435c1.807,3.617,5.504,5.901,9.547,5.899h106.667c4.043,0.002,7.739-2.282,9.547-5.899L326.592,448h164.075V490.667z"/>
	<path style="fill:#4C5B66;" d="M42.667,138.667c0-5.891,4.776-10.667,10.667-10.667h53.333v-21.333H53.333
		c-17.673,0-32,14.327-32,32V256h21.333V138.667z"/>
	<path style="fill:#4C5B66;" d="M469.333,138.667V256h21.333V138.667c0-17.673-14.327-32-32-32h-53.333V128h53.333
		C464.558,128,469.333,132.776,469.333,138.667z"/>
	<path style="fill:#4C5B66;" d="M426.667,256H448v-96c0-5.891-4.776-10.667-10.667-10.667h-32v21.333h21.333V256z"/>
	<path style="fill:#4C5B66;" d="M64,160v96h21.333v-85.333h21.333v-21.333h-32C68.776,149.333,64,154.109,64,160z"/>
	<path style="fill:#4C5B66;" d="M42.667,458.667H64V480H42.667V458.667z"/>
	<path style="fill:#4C5B66;" d="M448,458.667h21.333V480H448V458.667z"/>
	<path style="fill:#4C5B66;" d="M138.667,160h26.901c1.12,3.147,2.411,6.261,3.851,9.312l-18.987,18.987
		c-4.164,4.165-4.164,10.917,0,15.083l30.187,30.187c4.165,4.164,10.917,4.164,15.083,0l18.997-18.987
		c3.034,1.438,6.138,2.723,9.301,3.851v26.901c0,5.891,4.776,10.667,10.667,10.667h42.667c5.891,0,10.667-4.776,10.667-10.667
		v-26.901c3.163-1.127,6.267-2.412,9.301-3.851l18.997,18.987c4.165,4.164,10.917,4.164,15.083,0l30.187-30.187
		c4.164-4.165,4.164-10.917,0-15.083l-18.987-18.987c1.44-3.051,2.731-6.165,3.851-9.312h26.901c5.891,0,10.667-4.776,10.667-10.667
		v-42.667C384,100.776,379.224,96,373.333,96h-26.901c-1.12-3.147-2.411-6.261-3.851-9.312l18.987-18.987
		c4.164-4.165,4.164-10.917,0-15.083L331.381,22.4c-4.165-4.164-10.917-4.164-15.083,0l-18.997,18.987
		c-3.035-1.427-6.139-2.702-9.301-3.819V10.667C288,4.776,283.224,0,277.333,0h-42.667C228.776,0,224,4.776,224,10.667v26.901
		c-3.163,1.127-6.267,2.412-9.301,3.851L195.701,22.4c-4.165-4.164-10.917-4.164-15.083,0L150.4,52.619
		c-4.164,4.165-4.164,10.917,0,15.083l18.987,18.987c-1.44,3.051-2.731,6.165-3.851,9.312h-26.869
		C132.776,96,128,100.776,128,106.667v42.667C128,155.224,132.776,160,138.667,160z M149.333,117.333h24.107
		c4.857,0.001,9.101-3.279,10.325-7.979c1.784-6.77,4.468-13.271,7.979-19.328c2.413-4.181,1.717-9.461-1.696-12.875L173.056,60.16
		l15.104-15.104l16.992,16.992c3.413,3.413,8.694,4.109,12.875,1.696c6.055-3.516,12.556-6.2,19.328-7.979
		c4.7-1.224,7.98-5.468,7.979-10.325V21.333h21.333V45.44c-0.001,4.857,3.279,9.101,7.979,10.325
		c6.772,1.778,13.273,4.462,19.328,7.979c4.181,2.413,9.461,1.717,12.875-1.696l16.992-16.992l15.104,15.104l-16.992,16.992
		c-3.414,3.413-4.109,8.694-1.696,12.875c3.511,6.057,6.194,12.558,7.979,19.328c1.224,4.7,5.468,7.98,10.325,7.979h24.107v21.333
		H338.56c-4.857-0.001-9.101,3.279-10.325,7.979c-1.784,6.77-4.468,13.271-7.979,19.328c-2.413,4.181-1.717,9.461,1.696,12.875
		l16.992,16.992l-15.104,15.104l-16.992-16.992c-3.413-3.413-8.694-4.109-12.875-1.696c-6.055,3.516-12.556,6.2-19.328,7.979
		c-4.7,1.224-7.98,5.468-7.979,10.325v24.107h-21.333V210.56c0.001-4.857-3.279-9.101-7.979-10.325
		c-6.772-1.778-13.273-4.462-19.328-7.979c-4.181-2.413-9.461-1.717-12.875,1.696l-16.992,16.992l-15.104-15.104l16.992-16.992
		c3.413-3.413,4.109-8.694,1.696-12.875c-3.511-6.057-6.194-12.558-7.979-19.328c-1.224-4.7-5.468-7.98-10.325-7.979h-24.107
		V117.333z"/>
	<path style="fill:#4C5B66;" d="M256,170.667c23.564,0,42.667-19.103,42.667-42.667S279.564,85.333,256,85.333
		S213.333,104.436,213.333,128S232.436,170.667,256,170.667z M256,106.667c11.782,0,21.333,9.551,21.333,21.333
		s-9.551,21.333-21.333,21.333c-11.782,0-21.333-9.551-21.333-21.333S244.218,106.667,256,106.667z"/>
	<path style="fill:#4C5B66;" d="M21.333,341.333h437.333c2.106-0.003,4.165-0.627,5.92-1.792l32-21.333
		c4.901-3.268,6.225-9.891,2.957-14.792c-0.781-1.171-1.786-2.176-2.957-2.957l-32-21.333c-1.755-1.165-3.814-1.789-5.92-1.792
		H21.333c-5.891,0-10.667,4.776-10.667,10.667v42.667C10.667,336.558,15.442,341.333,21.333,341.333z M471.467,309.333l-16,10.667
		h-348.8v-21.333h348.8L471.467,309.333z M32,298.667h53.333V320H32V298.667z"/>
	<path style="fill:#4C5B66;" d="M426.667,362.667H448v42.667h-21.333V362.667z"/>
	<path style="fill:#4C5B66;" d="M64,362.667h21.333v42.667H64V362.667z"/>
	<path style="fill:#4C5B66;" d="M469.333,352h21.333v53.333h-21.333V352z"/>
	<path style="fill:#4C5B66;" d="M21.333,352h21.333v53.333H21.333V352z"/>
	<path style="fill:#4C5B66;" d="M138.667,373.333h234.667v21.333H138.667V373.333z"/>
</g>
<g>
</g>
<g>
</g>
<g>
</g>
<g>
</g>
<g>
</g>
<g>
</g>
<g>
</g>
<g>
</g>
<g>
</g>
<g>
</g>
<g>
</g>
<g>
</g>
<g>
</g>
<g>
</g>
<g>
</g>
</svg>
