<?xml version="1.0" encoding="iso-8859-1"?>
<!-- Generator: Adobe Illustrator 19.0.0, SVG Export Plug-In . SVG Version: 6.00 Build 0)  -->
<svg version="1.1" id="Capa_1" xmlns="http://www.w3.org/2000/svg" xmlns:xlink="http://www.w3.org/1999/xlink" x="0px" y="0px"
	 viewBox="0 0 512 512" style="enable-background:new 0 0 512 512;" xml:space="preserve">
<path style="fill:#AAC4DA;" d="M501.333,213.333v85.333c0,5.891-4.776,10.667-10.667,10.667H440.32
	c-3.893,13.693-9.332,26.898-16.213,39.36l35.52,35.52c4.136,4.16,4.136,10.88,0,15.04l-60.267,60.373
	c-4.192,4.16-10.955,4.16-15.147,0l-35.52-35.52c-12.462,6.881-25.667,12.321-39.36,16.213v50.347
	c0,5.891-4.776,10.667-10.667,10.667h-85.333c-5.891,0-10.667-4.776-10.667-10.667V440.32c-13.693-3.893-26.898-9.332-39.36-16.213
	l-35.52,35.52c-4.192,4.16-10.955,4.16-15.147,0l-60.267-60.373c-4.136-4.16-4.136-10.88,0-15.04l35.52-35.52
	c-6.881-12.462-12.32-25.667-16.213-39.36H21.333c-5.891,0-10.667-4.776-10.667-10.667v-85.333c0-5.891,4.776-10.667,10.667-10.667
	H71.68c3.893-13.693,9.332-26.898,16.213-39.36l-35.52-35.52c-4.16-4.192-4.16-10.955,0-15.147l60.267-60.267
	c4.192-4.16,10.955-4.16,15.147,0l35.52,35.52c12.462-6.881,25.667-12.32,39.36-16.213V21.333c0-5.891,4.776-10.667,10.667-10.667
	h85.333c5.891,0,10.667,4.776,10.667,10.667V71.68c13.693,3.893,26.898,9.332,39.36,16.213l35.52-35.52
	c4.192-4.16,10.955-4.16,15.147,0l60.267,60.267c4.16,4.192,4.16,10.955,0,15.147l-35.52,35.52
	c6.881,12.462,12.321,25.667,16.213,39.36h50.347C496.558,202.667,501.333,207.442,501.333,213.333L501.333,213.333z"/>
<path style="fill:#FFE451;" d="M394.667,256c0.017,55.985-33.648,106.483-85.333,128v21.333H202.667V384
	C131.974,354.545,98.545,273.359,128,202.667S238.641,98.545,309.333,128C361.007,149.531,394.667,200.02,394.667,256z"/>
<g>
	<path style="fill:#4C5B66;" d="M490.667,192h-42.464c-3.018-9.144-6.697-18.057-11.008-26.667l29.973-29.973
		c8.254-8.386,8.254-21.843,0-30.229l-60.363-60.395c-8.398-8.171-21.787-8.128-30.133,0.096l-30.005,29.973
		c-8.61-4.311-17.523-7.99-26.667-11.008V21.333C320,9.551,310.449,0,298.667,0h-85.333C201.551,0,192,9.551,192,21.333v42.464
		c-9.144,3.018-18.057,6.697-26.667,11.008L135.328,44.8c-8.388-8.249-21.841-8.249-30.229,0l-60.363,60.395
		c-8.191,8.385-8.162,21.783,0.064,30.133l29.973,29.973c-4.302,8.621-7.97,17.545-10.976,26.699H21.333
		C9.551,192,0,201.551,0,213.333v85.333C0,310.449,9.551,320,21.333,320h42.464c3.025,9.142,6.704,18.053,11.008,26.667
		L44.8,376.672c-8.293,8.324-8.293,21.788,0,30.112l60.352,60.48c8.395,8.189,21.801,8.146,30.144-0.096l29.973-29.973
		c8.631,4.317,17.565,7.999,26.731,11.019v42.453c0,11.782,9.551,21.333,21.333,21.333h85.333c11.782,0,21.333-9.551,21.333-21.333
		v-42.453c9.144-3.022,18.056-6.705,26.667-11.019l29.973,29.973c8.381,8.266,21.848,8.266,30.229,0l60.331-60.363
		c8.307-8.327,8.307-21.806,0-30.133l-30.005-30.005c4.304-8.613,7.983-17.525,11.008-26.667h42.464
		c11.782,0,21.333-9.551,21.333-21.333v-85.333C512,201.551,502.449,192,490.667,192L490.667,192z M490.667,298.667H440.32
		c-4.769,0-8.959,3.166-10.261,7.755c-3.679,12.912-8.811,25.364-15.296,37.12c-2.293,4.16-1.558,9.336,1.803,12.693l35.509,35.488
		l-60.32,60.363l-35.52-35.52c-3.36-3.357-8.535-4.087-12.693-1.792c-11.76,6.48-24.217,11.608-37.131,15.285
		c-4.584,1.306-7.745,5.495-7.744,10.261v50.347h-85.333V440.32c0.001-4.766-3.16-8.955-7.744-10.261
		c-12.914-3.677-25.37-8.805-37.131-15.285c-4.158-2.295-9.333-1.565-12.693,1.792l-35.573,35.531l-60.277-60.341l35.52-35.52
		c3.36-3.358,4.095-8.533,1.803-12.693c-6.485-11.756-11.617-24.208-15.296-37.12c-1.302-4.588-5.492-7.755-10.261-7.755H21.333
		v-85.333H71.68c4.769,0,8.959-3.166,10.261-7.755c3.677-12.913,8.808-25.366,15.296-37.12c2.293-4.16,1.558-9.336-1.803-12.693
		l-35.52-35.584l60.331-60.267l35.52,35.52c3.358,3.36,8.533,4.095,12.693,1.803c11.754-6.488,24.207-11.619,37.12-15.296
		c4.588-1.302,7.755-5.492,7.755-10.261V21.333h85.333V71.68c0,4.769,3.166,8.959,7.755,10.261
		c12.913,3.677,25.366,8.808,37.12,15.296c4.16,2.293,9.336,1.558,12.693-1.803l35.584-35.52l60.267,60.331l-35.52,35.52
		c-3.36,3.358-4.095,8.533-1.803,12.693c6.488,11.754,11.619,24.207,15.296,37.12c1.302,4.588,5.492,7.755,10.261,7.755h50.347
		L490.667,298.667z"/>
	<path style="fill:#4C5B66;" d="M256,106.667c-82.475,0.001-149.332,66.861-149.331,149.336
		c0.001,57.679,33.218,110.2,85.331,134.92v14.411h21.333V384c0-4.305-2.587-8.188-6.56-9.845
		c-65.256-27.187-96.116-102.127-68.929-167.382s102.127-96.116,167.382-68.929s96.116,102.127,68.929,167.382
		c-12.986,31.168-37.76,55.943-68.929,68.929c-3.973,1.657-6.56,5.54-6.56,9.845v21.333H320v-14.411
		c74.516-35.348,106.268-124.409,70.92-198.925C366.2,139.885,313.679,106.668,256,106.667L256,106.667z"/>
	<path style="fill:#4C5B66;" d="M330.667,224c0-17.673-14.327-32-32-32c-17.673,0-32,14.327-32,32H288
		c0-5.891,4.776-10.667,10.667-10.667c5.891,0,10.667,4.776,10.667,10.667c0,5.891-4.776,10.667-10.667,10.667h-85.333
		c-5.891,0-10.667-4.776-10.667-10.667c0-5.891,4.776-10.667,10.667-10.667S224,218.109,224,224h21.333c0-17.673-14.327-32-32-32
		s-32,14.327-32,32s14.327,32,32,32h32v160h21.333V256h32C316.34,256,330.667,241.673,330.667,224z"/>
	<path style="fill:#4C5B66;" d="M245.333,437.333h21.333v21.333h-21.333V437.333z"/>
	<path style="fill:#4C5B66;" d="M245.333,53.333h21.333v21.333h-21.333V53.333z"/>
	<path style="fill:#4C5B66;" d="M437.333,245.333h21.333v21.333h-21.333V245.333z"/>
	<path style="fill:#4C5B66;" d="M53.333,245.333h21.333v21.333H53.333V245.333z"/>
</g>
<g>
</g>
<g>
</g>
<g>
</g>
<g>
</g>
<g>
</g>
<g>
</g>
<g>
</g>
<g>
</g>
<g>
</g>
<g>
</g>
<g>
</g>
<g>
</g>
<g>
</g>
<g>
</g>
<g>
</g>
</svg>
