<?xml version="1.0" encoding="iso-8859-1"?>
<!-- Generator: Adobe Illustrator 19.0.0, SVG Export Plug-In . SVG Version: 6.00 Build 0)  -->
<svg version="1.1" id="Capa_1" xmlns="http://www.w3.org/2000/svg" xmlns:xlink="http://www.w3.org/1999/xlink" x="0px" y="0px"
	 viewBox="0 0 512 512" style="enable-background:new 0 0 512 512;" xml:space="preserve">
<path style="fill:#AAC4DA;" d="M181.252,469.333h64v32h-64V469.333z"/>
<path style="fill:#D9EEF7;" d="M277.252,426.667v42.667h-32h-64h-32v-42.667H277.252z"/>
<path style="fill:#FFE451;" d="M277.252,426.667h-128V339.52C61.873,304.174,19.693,204.686,55.039,117.308
	S189.873-12.251,277.252,23.096S406.81,157.93,371.464,245.308c-17.342,42.872-51.341,76.87-94.212,94.212V426.667z"/>
<circle style="fill:#D9EEF7;" cx="351.918" cy="128" r="32"/>
<path style="fill:#AAC4DA;" d="M469.252,106.667v42.667h-34.773c-2.019,7.699-5.069,15.091-9.067,21.973l24.533,24.533
	l-30.187,30.187l-24.533-24.533c-6.883,3.998-14.274,7.048-21.973,9.067v34.773h-42.667V210.56
	c-7.699-2.019-15.091-5.069-21.973-9.067l-24.533,24.533l-30.187-30.187l24.533-24.533c-3.998-6.883-7.048-14.274-9.067-21.973
	h-34.773v-42.667h34.773c2.019-7.699,5.069-15.091,9.067-21.973L253.892,60.16l30.187-30.187l24.533,24.533
	c6.883-3.998,14.274-7.048,21.973-9.067V10.667h42.667V45.44c7.699,2.019,15.091,5.069,21.973,9.067l24.533-24.533l30.187,30.187
	l-24.533,24.533c3.998,6.883,7.048,14.274,9.067,21.973H469.252z M383.918,128c0-17.673-14.327-32-32-32c-17.673,0-32,14.327-32,32
	s14.327,32,32,32C369.591,160,383.918,145.673,383.918,128z"/>
<g>
	<path style="fill:#4C5B66;" d="M138.585,394.667h21.333v-55.189c0-4.346-2.637-8.258-6.667-9.888
		c-81.88-33.23-121.318-126.544-88.089-208.424c24.47-60.295,83.018-99.764,148.089-99.832V0
		C113.104,0.09,31.992,81.349,32.082,181.497c0.064,71.132,41.711,135.657,106.503,165.01V394.667z"/>
	<path style="fill:#4C5B66;" d="M273.252,329.6c-4.029,1.63-6.667,5.542-6.667,9.888v55.179h21.333v-48.16
		c26.022-11.803,48.906-29.556,66.805-51.829l-16.619-13.355C320.943,302.667,298.622,319.283,273.252,329.6L273.252,329.6z"/>
	<path style="fill:#4C5B66;" d="M117.252,437.333h21.333v32c0,5.891,4.776,10.667,10.667,10.667h21.333v21.333
		c0,5.891,4.776,10.667,10.667,10.667h64c5.891,0,10.667-4.776,10.667-10.667V480h21.333c5.891,0,10.667-4.776,10.667-10.667v-32
		h21.333V416h-192V437.333z M234.585,490.667h-42.667V480h42.667V490.667z M266.585,458.667H159.918v-21.333h106.667V458.667z"/>
	<path style="fill:#4C5B66;" d="M170.585,117.333c5.891,0,10.667,4.776,10.667,10.667h21.333c0-17.673-14.327-32-32-32
		s-32,14.327-32,32s14.327,32,32,32h32v-21.333h-32c-5.891,0-10.667-4.776-10.667-10.667
		C159.918,122.109,164.694,117.333,170.585,117.333z"/>
	<path style="fill:#4C5B66;" d="M202.585,181.333h21.333v213.333h-21.333V181.333z"/>
	<path style="fill:#4C5B66;" d="M469.252,96H442.35c-1.124-3.143-2.407-6.247-3.851-9.312l18.987-18.987
		c4.164-4.165,4.164-10.917,0-15.083L427.3,22.4c-4.165-4.164-10.917-4.164-15.083,0L393.23,41.387
		c-3.065-1.422-6.169-2.706-9.312-3.851V10.667C383.918,4.776,379.143,0,373.252,0h-42.667c-5.891,0-10.667,4.776-10.667,10.667
		v26.901c-3.15,1.124-6.254,2.407-9.312,3.851L291.62,22.4c-4.165-4.164-10.917-4.164-15.083,0l-30.219,30.219
		c-4.164,4.165-4.164,10.917,0,15.083l18.987,18.987c-1.422,3.058-2.706,6.162-3.851,9.312h-26.869
		c-5.891,0-10.667,4.776-10.667,10.667v42.667c0,5.891,4.776,10.667,10.667,10.667h26.901c1.116,3.143,2.4,6.247,3.851,9.312
		l-18.987,18.987c-4.164,4.165-4.164,10.917,0,15.083l30.187,30.187c4.165,4.164,10.917,4.164,15.083,0l18.987-18.987
		c3.065,1.422,6.169,2.706,9.312,3.851v26.901c0,5.891,4.776,10.667,10.667,10.667h42.667c5.891,0,10.667-4.776,10.667-10.667
		v-26.901c3.15-1.116,6.254-2.4,9.312-3.851l18.987,18.987c4.165,4.164,10.917,4.164,15.083,0l30.187-30.187
		c4.164-4.165,4.164-10.917,0-15.083L438.5,169.312c1.422-3.058,2.706-6.162,3.851-9.312h26.901c5.891,0,10.667-4.776,10.667-10.667
		v-42.667C479.918,100.776,475.143,96,469.252,96L469.252,96z M458.585,138.667h-24.107c-4.857-0.001-9.101,3.279-10.325,7.979
		c-1.775,6.773-4.459,13.275-7.979,19.328c-2.413,4.181-1.717,9.461,1.696,12.875l16.992,16.992l-15.104,15.104l-16.992-16.992
		c-3.413-3.413-8.694-4.109-12.875-1.696c-6.053,3.52-12.555,6.204-19.328,7.979c-4.7,1.224-7.98,5.468-7.979,10.325v24.107h-21.333
		V210.56c0.001-4.857-3.279-9.101-7.979-10.325c-6.773-1.775-13.275-4.459-19.328-7.979c-4.181-2.413-9.461-1.717-12.875,1.696
		l-16.992,16.992l-15.104-15.104l16.992-16.992c3.413-3.413,4.109-8.694,1.696-12.875c-3.52-6.053-6.204-12.555-7.979-19.328
		c-1.224-4.7-5.468-7.98-10.325-7.979h-24.107v-21.333h24.107c4.857,0.001,9.101-3.279,10.325-7.979
		c1.775-6.773,4.459-13.275,7.979-19.328c2.413-4.181,1.717-9.461-1.696-12.875L268.974,60.16l15.104-15.104l16.992,16.992
		c3.413,3.413,8.694,4.109,12.875,1.696c6.053-3.52,12.555-6.204,19.328-7.979c4.7-1.224,7.98-5.468,7.979-10.325V21.333h21.333
		V45.44c-0.001,4.857,3.279,9.101,7.979,10.325c6.773,1.775,13.275,4.459,19.328,7.979c4.181,2.413,9.461,1.717,12.875-1.696
		l16.992-16.992l15.104,15.104L417.87,77.152c-3.414,3.413-4.109,8.694-1.696,12.875c3.52,6.053,6.204,12.555,7.979,19.328
		c1.224,4.7,5.468,7.98,10.325,7.979h24.107V138.667z"/>
	<path style="fill:#4C5B66;" d="M351.918,85.333c-23.564,0-42.667,19.103-42.667,42.667s19.103,42.667,42.667,42.667
		c23.564,0,42.667-19.103,42.667-42.667S375.483,85.333,351.918,85.333z M351.918,149.333c-11.782,0-21.333-9.551-21.333-21.333
		s9.551-21.333,21.333-21.333s21.333,9.551,21.333,21.333S363.7,149.333,351.918,149.333z"/>
</g>
<g>
</g>
<g>
</g>
<g>
</g>
<g>
</g>
<g>
</g>
<g>
</g>
<g>
</g>
<g>
</g>
<g>
</g>
<g>
</g>
<g>
</g>
<g>
</g>
<g>
</g>
<g>
</g>
<g>
</g>
</svg>
