<?xml version="1.0" encoding="iso-8859-1"?>
<!-- Generator: Adobe Illustrator 19.0.0, SVG Export Plug-In . SVG Version: 6.00 Build 0)  -->
<svg version="1.1" id="Capa_1" xmlns="http://www.w3.org/2000/svg" xmlns:xlink="http://www.w3.org/1999/xlink" x="0px" y="0px"
	 viewBox="0 0 512 512" style="enable-background:new 0 0 512 512;" xml:space="preserve">
<circle style="fill:#F2F2F2;" cx="256" cy="256" r="32"/>
<path style="fill:#D9EEF7;" d="M373.333,234.667v42.667H338.56c-2.019,7.699-5.069,15.091-9.067,21.973l24.533,24.533
	l-30.187,30.187l-24.533-24.533c-6.883,3.998-14.274,7.048-21.973,9.067v34.773h-42.667V338.56
	c-7.699-2.019-15.091-5.069-21.973-9.067l-24.533,24.533l-30.187-30.187l24.533-24.533c-3.998-6.883-7.048-14.274-9.067-21.973
	h-34.773v-42.667h34.773c2.019-7.699,5.069-15.091,9.067-21.973l-24.533-24.533l30.187-30.187l24.533,24.533
	c6.883-3.998,14.274-7.048,21.973-9.067v-34.773h42.667v34.773c7.699,2.019,15.091,5.069,21.973,9.067l24.533-24.533l30.187,30.187
	l-24.533,24.533c3.998,6.883,7.048,14.274,9.067,21.973L373.333,234.667z M288,256c0-17.673-14.327-32-32-32
	c-17.673,0-32,14.327-32,32s14.327,32,32,32C273.673,288,288,273.673,288,256z"/>
<path style="fill:#AAC4DA;" d="M501.333,213.333v85.333c0,5.891-4.776,10.667-10.667,10.667H440.32
	c-3.893,13.693-9.332,26.898-16.213,39.36l35.52,35.52c4.136,4.16,4.136,10.88,0,15.04l-60.267,60.373
	c-4.192,4.16-10.955,4.16-15.147,0l-35.52-35.52c-12.462,6.881-25.667,12.321-39.36,16.213v50.347
	c0,5.891-4.776,10.667-10.667,10.667h-85.333c-5.891,0-10.667-4.776-10.667-10.667V440.32c-13.693-3.893-26.898-9.332-39.36-16.213
	l-35.52,35.52c-4.192,4.16-10.955,4.16-15.147,0l-60.267-60.373c-4.136-4.16-4.136-10.88,0-15.04l35.52-35.52
	c-6.881-12.462-12.32-25.667-16.213-39.36H21.333c-5.891,0-10.667-4.776-10.667-10.667v-85.333c0-5.891,4.776-10.667,10.667-10.667
	H71.68c3.893-13.693,9.332-26.898,16.213-39.36l-35.52-35.52c-4.16-4.192-4.16-10.955,0-15.147l60.267-60.267
	c4.192-4.16,10.955-4.16,15.147,0l35.52,35.52c12.462-6.881,25.667-12.32,39.36-16.213V21.333c0-5.891,4.776-10.667,10.667-10.667
	h85.333c5.891,0,10.667,4.776,10.667,10.667V71.68c13.693,3.893,26.898,9.332,39.36,16.213l35.52-35.52
	c4.192-4.16,10.955-4.16,15.147,0l60.267,60.267c4.16,4.192,4.16,10.955,0,15.147l-35.52,35.52
	c6.881,12.462,12.321,25.667,16.213,39.36h50.347C496.558,202.667,501.333,207.442,501.333,213.333L501.333,213.333z
	 M373.333,277.333v-42.667H338.56c-2.019-7.699-5.069-15.091-9.067-21.973l24.533-24.533l-30.187-30.187l-24.533,24.533
	c-6.883-3.998-14.274-7.048-21.973-9.067v-34.773h-42.667v34.773c-7.699,2.019-15.091,5.069-21.973,9.067l-24.533-24.533
	l-30.187,30.187l24.533,24.533c-3.998,6.883-7.048,14.274-9.067,21.973h-34.773v42.667h34.773
	c2.019,7.699,5.069,15.091,9.067,21.973l-24.533,24.533l30.187,30.187l24.533-24.533c6.883,3.998,14.274,7.048,21.973,9.067v34.773
	h42.667V338.56c7.699-2.019,15.091-5.069,21.973-9.067l24.533,24.533l30.187-30.187l-24.533-24.533
	c3.998-6.883,7.048-14.274,9.067-21.973L373.333,277.333z"/>
<g>
	<path style="fill:#4C5B66;" d="M490.667,192h-42.453c-3.022-9.144-6.705-18.056-11.019-26.667l29.973-29.963
		c8.256-8.39,8.256-21.85,0-30.24l-60.352-60.395c-8.404-8.166-21.792-8.123-30.144,0.096l-30.005,29.973
		c-8.613-4.304-17.525-7.983-26.667-11.008V21.333C320,9.551,310.449,0,298.667,0h-85.333C201.551,0,192,9.551,192,21.333v42.464
		c-9.142,3.025-18.053,6.704-26.667,11.008L135.339,44.8c-8.394-8.244-21.846-8.244-30.24,0l-60.363,60.384
		c-8.192,8.388-8.164,21.79,0.064,30.144l29.973,29.973c-4.304,8.622-7.976,17.545-10.987,26.699H21.333
		C9.551,192,0,201.551,0,213.333v85.333C0,310.449,9.551,320,21.333,320h42.453c3.022,9.144,6.705,18.056,11.019,26.667
		L44.8,376.672c-8.3,8.326-8.3,21.797,0,30.123l60.363,60.469c8.403,8.179,21.804,8.136,30.155-0.096l29.952-29.973
		c8.634,4.307,17.567,7.986,26.731,11.008v42.464c0,11.782,9.551,21.333,21.333,21.333h85.333c11.782,0,21.333-9.551,21.333-21.333
		v-42.464c9.142-3.025,18.053-6.704,26.667-11.008l29.963,29.973c8.397,8.238,21.843,8.238,30.24,0l60.331-60.363
		c8.307-8.327,8.307-21.806,0-30.133l-29.973-29.973c4.304-8.622,7.976-17.545,10.987-26.699h42.453
		c11.782,0,21.333-9.551,21.333-21.333v-85.333C512,201.551,502.449,192,490.667,192L490.667,192z M490.667,298.667H440.32
		c-4.766-0.001-8.955,3.16-10.261,7.744c-3.677,12.914-8.805,25.37-15.285,37.131c-2.295,4.158-1.565,9.333,1.792,12.693
		l35.509,35.488l-60.32,60.363l-35.52-35.52c-3.358-3.36-8.533-4.095-12.693-1.803c-11.756,6.485-24.208,11.616-37.12,15.296
		c-4.588,1.302-7.755,5.492-7.755,10.261v50.347h-85.333V440.32c0-4.769-3.166-8.959-7.755-10.261
		c-12.912-3.679-25.364-8.811-37.12-15.296c-4.16-2.293-9.336-1.558-12.693,1.803l-35.573,35.52l-60.277-60.331l35.52-35.52
		c3.357-3.36,4.087-8.535,1.792-12.693c-6.48-11.76-11.608-24.217-15.285-37.131c-1.306-4.584-5.495-7.745-10.261-7.744H21.333
		v-85.333H71.68c4.766,0.001,8.955-3.16,10.261-7.744c3.677-12.914,8.805-25.37,15.285-37.131c2.295-4.158,1.565-9.333-1.792-12.693
		l-35.52-35.584l60.331-60.267l35.52,35.52c3.358,3.36,8.533,4.095,12.693,1.803c11.756-6.485,24.208-11.617,37.12-15.296
		c4.588-1.302,7.755-5.492,7.755-10.261V21.333h85.333V71.68c0,4.769,3.166,8.959,7.755,10.261
		c12.912,3.679,25.364,8.811,37.12,15.296c4.16,2.293,9.336,1.558,12.693-1.803l35.584-35.52l60.267,60.331l-35.52,35.52
		c-3.357,3.36-4.087,8.535-1.792,12.693c6.48,11.76,11.608,24.217,15.285,37.131c1.306,4.584,5.495,7.745,10.261,7.744h50.347
		L490.667,298.667z"/>
	<path style="fill:#4C5B66;" d="M384,234.667c0-5.891-4.776-10.667-10.667-10.667h-26.901c-1.12-3.2-2.411-6.261-3.851-9.312
		l18.987-18.987c4.164-4.165,4.164-10.917,0-15.083l-30.187-30.187c-4.165-4.164-10.917-4.164-15.083,0l-18.997,18.987
		c-3.034-1.438-6.138-2.723-9.301-3.851v-26.901c0-5.891-4.776-10.667-10.667-10.667h-10.667V85.333h-21.333V128h-10.667
		c-5.891,0-10.667,4.776-10.667,10.667v26.901c-3.163,1.127-6.267,2.412-9.301,3.851L195.701,150.4
		c-4.165-4.164-10.917-4.164-15.083,0l-30.187,30.187c-4.164,4.165-4.164,10.917,0,15.083l18.987,18.987
		c-1.44,3.051-2.731,6.165-3.851,9.312h-26.901c-5.891,0-10.667,4.776-10.667,10.667v10.667H85.333v21.333H128v10.667
		c0,5.891,4.776,10.667,10.667,10.667h26.901c1.12,3.2,2.411,6.261,3.851,9.312l-18.987,18.987c-4.164,4.165-4.164,10.917,0,15.083
		l30.187,30.187c4.165,4.164,10.917,4.164,15.083,0l18.997-18.987c3.034,1.438,6.138,2.723,9.301,3.851v26.933
		c0,5.891,4.776,10.667,10.667,10.667h10.667v42.667h21.333V384h10.667c5.891,0,10.667-4.776,10.667-10.667v-26.901
		c3.163-1.127,6.267-2.412,9.301-3.851l18.997,18.987c4.165,4.164,10.917,4.164,15.083,0l30.187-30.187
		c4.164-4.165,4.164-10.917,0-15.083l-18.987-18.987c1.44-3.051,2.731-6.165,3.851-9.312h26.901c5.891,0,10.667-4.776,10.667-10.667
		v-10.667h42.667v-21.333H384V234.667z M362.667,266.667H338.56c-4.857-0.001-9.101,3.279-10.325,7.979
		c-1.784,6.77-4.468,13.271-7.979,19.328c-2.413,4.181-1.717,9.461,1.696,12.875l16.992,16.992l-15.104,15.104l-16.992-16.992
		c-3.413-3.414-8.694-4.109-12.875-1.696c-6.055,3.516-12.556,6.2-19.328,7.979c-4.7,1.224-7.98,5.468-7.979,10.325v24.107h-21.333
		V338.56c0.001-4.857-3.279-9.101-7.979-10.325c-6.772-1.779-13.273-4.462-19.328-7.979c-4.181-2.413-9.461-1.717-12.875,1.696
		l-16.992,16.992l-15.104-15.104l16.992-16.992c3.413-3.413,4.109-8.694,1.696-12.875c-3.511-6.057-6.194-12.558-7.979-19.328
		c-1.224-4.7-5.468-7.98-10.325-7.979h-24.107v-21.333h24.107c4.857,0.001,9.101-3.279,10.325-7.979
		c1.784-6.77,4.468-13.271,7.979-19.328c2.413-4.181,1.717-9.461-1.696-12.875l-16.992-16.992l15.104-15.104l16.992,16.992
		c3.413,3.413,8.694,4.109,12.875,1.696c6.055-3.516,12.556-6.2,19.328-7.979c4.7-1.224,7.98-5.468,7.979-10.325v-24.107h21.333
		v24.107c-0.001,4.857,3.279,9.101,7.979,10.325c6.772,1.778,13.273,4.462,19.328,7.979c4.181,2.413,9.461,1.717,12.875-1.696
		l16.992-16.992l15.104,15.104l-16.992,16.992c-3.413,3.413-4.109,8.694-1.696,12.875c3.511,6.057,6.194,12.558,7.979,19.328
		c1.224,4.7,5.468,7.98,10.325,7.979h24.107V266.667z"/>
	<path style="fill:#4C5B66;" d="M256,213.333c-23.564,0-42.667,19.103-42.667,42.667s19.103,42.667,42.667,42.667
		s42.667-19.103,42.667-42.667S279.564,213.333,256,213.333z M256,277.333c-11.782,0-21.333-9.551-21.333-21.333
		c0-11.782,9.551-21.333,21.333-21.333c11.782,0,21.333,9.551,21.333,21.333C277.333,267.782,267.782,277.333,256,277.333z"/>
	<path style="fill:#4C5B66;" d="M245.333,42.667h21.333V64h-21.333V42.667z"/>
	<path style="fill:#4C5B66;" d="M245.333,448h21.333v21.333h-21.333V448z"/>
	<path style="fill:#4C5B66;" d="M448,245.333h21.333v21.333H448V245.333z"/>
	<path style="fill:#4C5B66;" d="M42.667,245.333H64v21.333H42.667V245.333z"/>
</g>
<g>
</g>
<g>
</g>
<g>
</g>
<g>
</g>
<g>
</g>
<g>
</g>
<g>
</g>
<g>
</g>
<g>
</g>
<g>
</g>
<g>
</g>
<g>
</g>
<g>
</g>
<g>
</g>
<g>
</g>
</svg>
