<?xml version="1.0" encoding="iso-8859-1"?>
<!-- Generator: Adobe Illustrator 19.0.0, SVG Export Plug-In . SVG Version: 6.00 Build 0)  -->
<svg version="1.1" id="Capa_1" xmlns="http://www.w3.org/2000/svg" xmlns:xlink="http://www.w3.org/1999/xlink" x="0px" y="0px"
	 viewBox="0 0 512.002 512.002" style="enable-background:new 0 0 512.002 512.002;" xml:space="preserve">
<path style="fill:#FF7260;" d="M352.001,213.335v85.333h-192v-85.333c0-23.564,19.103-42.667,42.667-42.667
	c16.094,0.254,29.796-11.654,31.787-27.627c13.139,8.391,29.954,8.391,43.093,0c1.991,15.972,15.693,27.881,31.787,27.627
	C332.898,170.668,352.001,189.771,352.001,213.335z"/>
<g>
	<path style="fill:#D9EEF7;" d="M384.001,416.002h106.667c5.891,0,10.667,4.776,10.667,10.667v64
		c0,5.891-4.776,10.667-10.667,10.667H384.001c-5.891,0-10.667-4.776-10.667-10.667v-64
		C373.334,420.777,378.11,416.002,384.001,416.002z"/>
	<path style="fill:#D9EEF7;" d="M202.667,416.002h106.667c5.891,0,10.667,4.776,10.667,10.667v64
		c0,5.891-4.776,10.667-10.667,10.667H202.667c-5.891,0-10.667-4.776-10.667-10.667v-64
		C192.001,420.777,196.776,416.002,202.667,416.002z"/>
	<path style="fill:#D9EEF7;" d="M21.334,416.002h106.667c5.891,0,10.667,4.776,10.667,10.667v64c0,5.891-4.776,10.667-10.667,10.667
		H21.334c-5.891,0-10.667-4.776-10.667-10.667v-64C10.667,420.777,15.443,416.002,21.334,416.002z"/>
</g>
<path style="fill:#FF7260;" d="M277.547,143.042c-13.139,8.391-29.954,8.391-43.093,0c-18.667-11.307-31.787-37.333-31.787-68.693
	V53.335c0,0,10.667-42.667,53.333-42.667s53.333,42.667,53.333,42.667v21.013C309.334,105.708,296.214,131.735,277.547,143.042z"/>
<g>
	<path style="fill:#4C5B66;" d="M170.667,213.335c0-17.673,14.327-32,32-32c16.28,0.045,31.193-9.098,38.539-23.627
		c9.61,3.043,19.926,3.043,29.536,0c7.362,14.539,22.295,23.682,38.592,23.627c17.673,0,32,14.327,32,32v85.333h21.333v-85.333
		c0-29.422-23.826-53.286-53.248-53.333c-8.564,0.254-16.448-4.64-20.021-12.427c20.618-18.619,31.841-45.474,30.603-73.227V53.335
		c0-0.874-0.108-1.744-0.32-2.592c-8.066-35.169-43.115-57.141-78.285-49.075c-24.413,5.599-43.476,24.662-49.075,49.075
		c-0.212,0.848-0.32,1.718-0.32,2.592v21.013c-1.237,27.745,9.977,54.594,30.581,73.216c-3.555,7.754-11.387,12.646-19.915,12.437
		c-29.441,0.035-53.298,23.893-53.333,53.333v85.333h21.333L170.667,213.335z M213.334,74.348V54.839
		c5.766-23.564,29.542-37.993,53.107-32.227c15.911,3.893,28.334,16.316,32.227,32.227v19.509c0,26.379-10.453,49.76-26.667,59.573
		h-0.053c-9.736,6.3-22.264,6.3-32,0C223.787,124.108,213.334,100.727,213.334,74.348z"/>
	<path style="fill:#4C5B66;" d="M128.001,405.335H21.334c-11.782,0-21.333,9.551-21.333,21.333v64
		c0,11.782,9.551,21.333,21.333,21.333h106.667c11.782,0,21.333-9.551,21.333-21.333v-64
		C149.334,414.886,139.783,405.335,128.001,405.335z M128.001,490.668H21.334v-64h106.667V490.668z"/>
	<path style="fill:#4C5B66;" d="M490.667,405.335H384.001c-11.782,0-21.333,9.551-21.333,21.333v64
		c0,11.782,9.551,21.333,21.333,21.333h106.667c11.782,0,21.333-9.551,21.333-21.333v-64
		C512.001,414.886,502.449,405.335,490.667,405.335z M490.667,490.668H384.001v-64h106.667V490.668z"/>
	<path style="fill:#4C5B66;" d="M309.334,405.335H202.667c-11.782,0-21.333,9.551-21.333,21.333v64
		c0,11.782,9.551,21.333,21.333,21.333h106.667c11.782,0,21.333-9.551,21.333-21.333v-64
		C330.667,414.886,321.116,405.335,309.334,405.335z M309.334,490.668H202.667v-64h106.667V490.668z"/>
	<path style="fill:#4C5B66;" d="M192.001,224.002h21.333v74.667h-21.333V224.002z"/>
	<path style="fill:#4C5B66;" d="M298.667,224.002h21.333v74.667h-21.333V224.002z"/>
	<path style="fill:#4C5B66;" d="M85.334,341.335h160v42.667h21.333v-42.667h160v42.667h21.333v-53.333
		c0-5.891-4.776-10.667-10.667-10.667H266.667v-96h-21.333v96H74.667c-5.891,0-10.667,4.776-10.667,10.667v53.333h21.333V341.335z"
		/>
	<path style="fill:#4C5B66;" d="M42.667,448.002h21.333v21.333H42.667V448.002z"/>
	<path style="fill:#4C5B66;" d="M85.334,448.002h21.333v21.333H85.334V448.002z"/>
	<path style="fill:#4C5B66;" d="M224.001,448.002h21.333v21.333h-21.333V448.002z"/>
	<path style="fill:#4C5B66;" d="M266.667,448.002h21.333v21.333h-21.333V448.002z"/>
	<path style="fill:#4C5B66;" d="M405.334,448.002h21.333v21.333h-21.333V448.002z"/>
	<path style="fill:#4C5B66;" d="M448.001,448.002h21.333v21.333h-21.333V448.002z"/>
</g>
<g>
</g>
<g>
</g>
<g>
</g>
<g>
</g>
<g>
</g>
<g>
</g>
<g>
</g>
<g>
</g>
<g>
</g>
<g>
</g>
<g>
</g>
<g>
</g>
<g>
</g>
<g>
</g>
<g>
</g>
</svg>
