<?xml version="1.0" encoding="iso-8859-1"?>
<!-- Generator: Adobe Illustrator 19.0.0, SVG Export Plug-In . SVG Version: 6.00 Build 0)  -->
<svg version="1.1" id="Capa_1" xmlns="http://www.w3.org/2000/svg" xmlns:xlink="http://www.w3.org/1999/xlink" x="0px" y="0px"
	 viewBox="0 0 512 512" style="enable-background:new 0 0 512 512;" xml:space="preserve">
<path style="fill:#D9EEF7;" d="M416,96h-21.333c-11.768-0.035-21.298-9.566-21.333-21.333v-64H96
	C84.233,10.702,74.702,20.233,74.667,32v234.667H128v64h256v-64h74.667V96H416z"/>
<path style="fill:#AAC4DA;" d="M458.667,96h-64c-11.768-0.035-21.298-9.566-21.333-21.333v-64L458.667,96z"/>
<circle style="fill:#F2F2F2;" cx="128" cy="128" r="32"/>
<path style="fill:#AAC4DA;" d="M245.333,106.667v42.667H210.56c-2.019,7.699-5.069,15.091-9.067,21.973l24.533,24.533
	l-30.187,30.187l-24.533-24.533c-6.883,3.998-14.274,7.048-21.973,9.067v34.773h-42.667V210.56
	c-7.699-2.019-15.091-5.069-21.973-9.067L60.16,226.027L29.973,195.84l24.533-24.533c-3.998-6.883-7.048-14.274-9.067-21.973H10.667
	v-42.667H45.44c2.019-7.699,5.069-15.091,9.067-21.973L29.973,60.16L60.16,29.973l24.533,24.533
	c6.883-3.998,14.274-7.048,21.973-9.067V10.667h42.667V45.44c7.699,2.019,15.091,5.069,21.973,9.067l24.533-24.533l30.187,30.187
	l-24.533,24.533c3.998,6.883,7.048,14.274,9.067,21.973H245.333z M160,128c0-17.673-14.327-32-32-32s-32,14.327-32,32
	s14.327,32,32,32S160,145.673,160,128z"/>
<path style="fill:#F2F2F2;" d="M181.333,416h149.333v42.667H181.333V416z"/>
<path style="fill:#AAC4DA;" d="M384,330.667v32c0,5.891-4.776,10.667-10.667,10.667H138.667c-5.891,0-10.667-4.776-10.667-10.667
	v-32H384z"/>
<path style="fill:#FFE451;" d="M181.333,416v42.667h149.333V416H181.333z M501.333,288v192
	c-0.035,11.768-9.566,21.298-21.333,21.333H32c-11.767-0.035-21.298-9.566-21.333-21.333V288
	c0.035-11.767,9.566-21.298,21.333-21.333h96v96c0,5.891,4.776,10.667,10.667,10.667h234.667c5.891,0,10.667-4.776,10.667-10.667
	v-96h96C491.768,266.702,501.298,276.233,501.333,288z"/>
<g>
	<path style="fill:#4C5B66;" d="M10.667,160h26.901c1.124,3.143,2.407,6.247,3.851,9.312L22.4,188.299
		c-4.164,4.165-4.164,10.917,0,15.083l30.187,30.187c4.165,4.164,10.917,4.164,15.083,0l18.987-18.987
		c3.058,1.422,6.162,2.706,9.312,3.851v26.901c0,5.891,4.776,10.667,10.667,10.667h42.667c5.891,0,10.667-4.776,10.667-10.667
		v-26.901c3.143-1.116,6.247-2.4,9.312-3.851l18.987,18.987c4.165,4.164,10.917,4.164,15.083,0l30.187-30.187
		c4.164-4.165,4.164-10.917,0-15.083l-18.987-18.987c1.422-3.058,2.706-6.162,3.851-9.312h26.933
		c5.891,0,10.667-4.776,10.667-10.667v-42.667C256,100.776,251.224,96,245.333,96h-26.901c-1.116-3.143-2.4-6.247-3.851-9.312
		l18.987-18.987c4.164-4.165,4.164-10.917,0-15.083L203.381,22.4c-4.165-4.164-10.917-4.164-15.083,0l-18.987,18.987
		c-3.058-1.422-6.162-2.706-9.312-3.851V10.667C160,4.776,155.224,0,149.333,0h-42.667C100.776,0,96,4.776,96,10.667v26.901
		c-3.143,1.124-6.247,2.407-9.312,3.851L67.701,22.4c-4.165-4.164-10.917-4.164-15.083,0L22.4,52.619
		c-4.164,4.165-4.164,10.917,0,15.083l18.987,18.987c-1.422,3.058-2.706,6.162-3.851,9.312H10.667C4.776,96,0,100.776,0,106.667
		v42.667C0,155.224,4.776,160,10.667,160L10.667,160z M21.333,117.333H45.44c4.857,0.001,9.101-3.279,10.325-7.979
		c1.775-6.773,4.459-13.275,7.979-19.328c2.413-4.181,1.717-9.461-1.696-12.875L45.056,60.16L60.16,45.056l16.992,16.992
		c3.413,3.413,8.694,4.109,12.875,1.696c6.053-3.52,12.555-6.204,19.328-7.979c4.7-1.224,7.98-5.468,7.979-10.325V21.333h21.333
		V45.44c-0.001,4.857,3.279,9.101,7.979,10.325c6.773,1.775,13.275,4.459,19.328,7.979c4.181,2.413,9.461,1.717,12.875-1.696
		l16.992-16.992l15.104,15.104l-16.992,16.992c-3.413,3.413-4.109,8.694-1.696,12.875c3.52,6.053,6.204,12.555,7.979,19.328
		c1.224,4.7,5.468,7.98,10.325,7.979h24.107v21.333H210.56c-4.857-0.001-9.101,3.279-10.325,7.979
		c-1.775,6.773-4.459,13.275-7.979,19.328c-2.413,4.181-1.717,9.461,1.696,12.875l16.992,16.992l-15.104,15.104l-16.992-16.992
		c-3.413-3.413-8.694-4.109-12.875-1.696c-6.053,3.52-12.555,6.204-19.328,7.979c-4.7,1.224-7.98,5.468-7.979,10.325v24.107h-21.333
		V210.56c0.001-4.857-3.279-9.101-7.979-10.325c-6.773-1.775-13.275-4.459-19.328-7.979c-4.181-2.413-9.461-1.717-12.875,1.696
		L60.16,210.944L45.056,195.84l16.992-16.992c3.413-3.413,4.109-8.694,1.696-12.875c-3.52-6.053-6.204-12.555-7.979-19.328
		c-1.224-4.7-5.468-7.98-10.325-7.979H21.333L21.333,117.333z"/>
	<path style="fill:#4C5B66;" d="M128,170.667c23.564,0,42.667-19.103,42.667-42.667S151.564,85.333,128,85.333
		S85.333,104.436,85.333,128S104.436,170.667,128,170.667z M128,106.667c11.782,0,21.333,9.551,21.333,21.333
		s-9.551,21.333-21.333,21.333s-21.333-9.551-21.333-21.333S116.218,106.667,128,106.667z"/>
	<path style="fill:#4C5B66;" d="M362.667,74.667c0,17.673,14.327,32,32,32H416V85.333h-21.333c-5.891,0-10.667-4.776-10.667-10.667
		V36.416l64,64v134.251h21.333V96c-0.001-2.829-1.125-5.541-3.125-7.541L380.875,3.125c-2-2.001-4.713-3.125-7.541-3.125H234.667
		v21.333h128V74.667z"/>
	<path style="fill:#4C5B66;" d="M480,256h-96c-5.891,0-10.667,4.776-10.667,10.667V320H138.667v-32h-21.333v74.667
		c0,11.782,9.551,21.333,21.333,21.333h234.667c11.782,0,21.333-9.551,21.333-21.333v-85.333H480
		c5.891,0,10.667,4.776,10.667,10.667v192c0,5.891-4.776,10.667-10.667,10.667H32c-5.891,0-10.667-4.776-10.667-10.667V288
		c0-5.891,4.776-10.667,10.667-10.667h53.333V256H32c-17.673,0-32,14.327-32,32v192c0,17.673,14.327,32,32,32h448
		c17.673,0,32-14.327,32-32V288C512,270.327,497.673,256,480,256z M138.667,362.667v-21.333h234.667v21.333H138.667z"/>
	<path style="fill:#4C5B66;" d="M181.333,469.333h149.333c5.891,0,10.667-4.776,10.667-10.667v-32H384v-21.333H128v21.333h42.667v32
		C170.667,464.558,175.442,469.333,181.333,469.333z M192,426.667h128V448H192V426.667z"/>
	<path style="fill:#4C5B66;" d="M277.333,128h96v21.333h-96V128z"/>
	<path style="fill:#4C5B66;" d="M277.333,181.333h128v21.333h-128V181.333z"/>
	<path style="fill:#4C5B66;" d="M277.333,234.667h21.333V256h-21.333V234.667z"/>
	<path style="fill:#4C5B66;" d="M277.333,74.667h21.333V96h-21.333V74.667z"/>
	<path style="fill:#4C5B66;" d="M320,234.667h21.333V256H320V234.667z"/>
</g>
<g>
</g>
<g>
</g>
<g>
</g>
<g>
</g>
<g>
</g>
<g>
</g>
<g>
</g>
<g>
</g>
<g>
</g>
<g>
</g>
<g>
</g>
<g>
</g>
<g>
</g>
<g>
</g>
<g>
</g>
</svg>
