<?xml version="1.0" encoding="iso-8859-1"?>
<!-- Generator: Adobe Illustrator 19.0.0, SVG Export Plug-In . SVG Version: 6.00 Build 0)  -->
<svg version="1.1" id="Capa_1" xmlns="http://www.w3.org/2000/svg" xmlns:xlink="http://www.w3.org/1999/xlink" x="0px" y="0px"
	 viewBox="0 0 512 512" style="enable-background:new 0 0 512 512;" xml:space="preserve">
<path style="fill:#F2F2F2;" d="M288,245.333V256h-64v-10.667c0-17.673,14.327-32,32-32S288,227.66,288,245.333z"/>
<path style="fill:#D9EEF7;" d="M352,245.333V256h-64v-10.667c0-17.673-14.327-32-32-32s-32,14.327-32,32V256h-64v-10.667
	c0-53.019,42.981-96,96-96S352,192.314,352,245.333z"/>
<path style="fill:#AAC4DA;" d="M501.333,213.333V256H352v-10.667c0-53.019-42.981-96-96-96s-96,42.981-96,96l0,0V256H10.667v-42.667
	c0-5.891,4.776-10.667,10.667-10.667H71.68c3.893-13.693,9.332-26.898,16.213-39.36l-35.52-35.52c-4.16-4.192-4.16-10.955,0-15.147
	l60.267-60.267c4.192-4.16,10.955-4.16,15.147,0l35.52,35.52c12.462-6.881,25.667-12.32,39.36-16.213V21.333
	c0-5.891,4.776-10.667,10.667-10.667h85.333c5.891,0,10.667,4.776,10.667,10.667V71.68c13.693,3.893,26.898,9.332,39.36,16.213
	l35.52-35.52c4.192-4.16,10.955-4.16,15.147,0l60.267,60.267c4.16,4.192,4.16,10.955,0,15.147l-35.52,35.52
	c6.881,12.462,12.32,25.667,16.213,39.36h50.347C496.558,202.667,501.333,207.442,501.333,213.333L501.333,213.333z"/>
<g>
	<path style="fill:#FFE451;" d="M384,416h106.667c5.891,0,10.667,4.776,10.667,10.667v64c0,5.891-4.776,10.667-10.667,10.667H384
		c-5.891,0-10.667-4.776-10.667-10.667v-64C373.333,420.776,378.109,416,384,416z"/>
	<path style="fill:#FFE451;" d="M202.667,416h106.667c5.891,0,10.667,4.776,10.667,10.667v64c0,5.891-4.776,10.667-10.667,10.667
		H202.667c-5.891,0-10.667-4.776-10.667-10.667v-64C192,420.776,196.776,416,202.667,416z"/>
	<path style="fill:#FFE451;" d="M21.333,416H128c5.891,0,10.667,4.776,10.667,10.667v64c0,5.891-4.776,10.667-10.667,10.667H21.333
		c-5.891,0-10.667-4.776-10.667-10.667v-64C10.667,420.776,15.442,416,21.333,416z"/>
</g>
<g>
	<path style="fill:#4C5B66;" d="M490.667,192h-42.475c-3.019-9.141-6.69-18.052-10.987-26.667l29.973-29.973
		c8.333-8.329,8.336-21.837,0.006-30.17c-0.002-0.002-0.004-0.004-0.006-0.006L406.848,44.8c-8.441-8.057-21.724-8.057-30.165,0
		l-30.016,29.995c-8.614-4.296-17.526-7.968-26.667-10.987V21.333C320,9.551,310.449,0,298.667,0h-85.333
		C201.551,0,192,9.551,192,21.333v42.475c-9.141,3.019-18.052,6.69-26.667,10.987L135.328,44.8c-8.441-8.069-21.735-8.069-30.176,0
		L44.8,105.152c-8.328,8.331-8.328,21.835,0,30.165l29.995,30.016c-4.296,8.614-7.968,17.526-10.987,26.667H21.333
		C9.551,192,0,201.551,0,213.333V256h21.333v-42.667h50.336c4.754,0.001,8.934-3.144,10.251-7.712
		c3.702-12.914,8.832-25.375,15.296-37.152c2.317-4.169,1.585-9.369-1.792-12.736l-35.531-35.499l60.341-60.341l35.499,35.531
		c3.36,3.357,8.535,4.087,12.693,1.792c11.791-6.465,24.267-11.595,37.195-15.296c4.568-1.317,7.713-5.497,7.712-10.251V21.333
		h85.333v50.336c-0.001,4.754,3.144,8.934,7.712,10.251c12.913,3.704,25.374,8.834,37.152,15.296
		c4.158,2.295,9.333,1.565,12.693-1.792l35.541-35.531l60.341,60.341l-35.531,35.499c-3.362,3.362-4.093,8.543-1.792,12.704
		c6.464,11.777,11.594,24.238,15.296,37.152c1.317,4.568,5.497,7.713,10.251,7.712h50.336v42.667H512v-42.635
		C512,201.551,502.449,192,490.667,192L490.667,192z"/>
	<path style="fill:#4C5B66;" d="M149.333,245.333V256h21.333v-10.667C170.667,198.205,208.872,160,256,160
		s85.333,38.205,85.333,85.333V256h21.333v-10.667c0-58.91-47.756-106.667-106.667-106.667S149.333,186.423,149.333,245.333z"/>
	<path style="fill:#4C5B66;" d="M245.333,42.667h21.333V64h-21.333V42.667z"/>
	<path style="fill:#4C5B66;" d="M106.667,106.667H128V128h-21.333V106.667z"/>
	<path style="fill:#4C5B66;" d="M42.667,234.667H64V256H42.667V234.667z"/>
	<path style="fill:#4C5B66;" d="M448,234.667h21.333V256H448V234.667z"/>
	<path style="fill:#4C5B66;" d="M384,106.667h21.333V128H384V106.667z"/>
	<path style="fill:#4C5B66;" d="M128,405.333H21.333C9.551,405.333,0,414.885,0,426.667v64C0,502.449,9.551,512,21.333,512H128
		c11.782,0,21.333-9.551,21.333-21.333v-64C149.333,414.885,139.782,405.333,128,405.333z M128,490.667H21.333v-64H128V490.667z"/>
	<path style="fill:#4C5B66;" d="M490.667,405.333H384c-11.782,0-21.333,9.551-21.333,21.333v64c0,11.782,9.551,21.333,21.333,21.333
		h106.667c11.782,0,21.333-9.551,21.333-21.333v-64C512,414.885,502.449,405.333,490.667,405.333z M490.667,490.667H384v-64h106.667
		V490.667z"/>
	<path style="fill:#4C5B66;" d="M309.333,405.333H202.667c-11.782,0-21.333,9.551-21.333,21.333v64
		c0,11.782,9.551,21.333,21.333,21.333h106.667c11.782,0,21.333-9.551,21.333-21.333v-64
		C330.667,414.885,321.115,405.333,309.333,405.333z M309.333,490.667H202.667v-64h106.667V490.667z"/>
	<path style="fill:#4C5B66;" d="M64,330.667V384h21.333v-42.667h160V384h21.333v-42.667h160V384H448v-53.333
		c0-5.891-4.776-10.667-10.667-10.667H266.667v-74.667h-21.333V320H74.667C68.776,320,64,324.776,64,330.667z"/>
	<path style="fill:#4C5B66;" d="M42.667,448H64v21.333H42.667V448z"/>
	<path style="fill:#4C5B66;" d="M85.333,448h21.333v21.333H85.333V448z"/>
	<path style="fill:#4C5B66;" d="M224,448h21.333v21.333H224V448z"/>
	<path style="fill:#4C5B66;" d="M266.667,448H288v21.333h-21.333V448z"/>
	<path style="fill:#4C5B66;" d="M405.333,448h21.333v21.333h-21.333V448z"/>
	<path style="fill:#4C5B66;" d="M448,448h21.333v21.333H448V448z"/>
	<path style="fill:#4C5B66;" d="M309.333,256v-10.667C309.333,215.878,285.455,192,256,192c-29.455,0-53.333,23.878-53.333,53.333
		V256H224v-10.667c0-17.673,14.327-32,32-32s32,14.327,32,32V256H309.333z"/>
</g>
<g>
</g>
<g>
</g>
<g>
</g>
<g>
</g>
<g>
</g>
<g>
</g>
<g>
</g>
<g>
</g>
<g>
</g>
<g>
</g>
<g>
</g>
<g>
</g>
<g>
</g>
<g>
</g>
<g>
</g>
</svg>
