<?xml version="1.0" encoding="iso-8859-1"?>
<!-- Generator: Adobe Illustrator 19.0.0, SVG Export Plug-In . SVG Version: 6.00 Build 0)  -->
<svg version="1.1" id="Capa_1" xmlns="http://www.w3.org/2000/svg" xmlns:xlink="http://www.w3.org/1999/xlink" x="0px" y="0px"
	 viewBox="0 0 512 512" style="enable-background:new 0 0 512 512;" xml:space="preserve">
<circle style="fill:#D9EEF7;" cx="256" cy="256" r="245.333"/>
<circle style="fill:#69F0F7;" cx="256" cy="256" r="192"/>
<circle style="fill:#F2F2F2;" cx="384" cy="384" r="32"/>
<path style="fill:#AAC4DA;" d="M501.333,362.667v42.667H466.56c-2.019,7.699-5.069,15.091-9.067,21.973l24.533,24.533
	l-30.187,30.187l-24.533-24.533c-6.883,3.998-14.274,7.048-21.973,9.067v34.773h-42.667V466.56
	c-7.699-2.019-15.091-5.069-21.973-9.067l-24.533,24.533l-30.187-30.187l24.533-24.533c-3.998-6.883-7.048-14.274-9.067-21.973
	h-34.773v-42.667h34.773c2.019-7.699,5.069-15.091,9.067-21.973l-24.533-24.533l30.187-30.187l24.533,24.533
	c6.883-3.998,14.274-7.048,21.973-9.067v-34.773h42.667v34.773c7.699,2.019,15.091,5.069,21.973,9.067l24.533-24.533l30.187,30.187
	l-24.533,24.533c3.998,6.883,7.048,14.274,9.067,21.973H501.333z M416,384c0-17.673-14.327-32-32-32s-32,14.327-32,32
	s14.327,32,32,32S416,401.673,416,384z"/>
<g>
	<path style="fill:#4C5B66;" d="M21.333,256C21.333,126.397,126.397,21.333,256,21.333S490.667,126.397,490.667,256H512
		C512,114.615,397.385,0,256,0S0,114.615,0,256s114.615,256,256,256v-21.333C126.458,490.52,21.48,385.542,21.333,256z"/>
	<path style="fill:#4C5B66;" d="M501.333,352h-26.901c-1.124-3.15-2.407-6.254-3.851-9.312l18.987-18.987
		c4.164-4.165,4.164-10.917,0-15.083l-30.187-30.187c-4.165-4.164-10.917-4.164-15.083,0l-18.987,18.987
		c-3.065-1.422-6.169-2.706-9.312-3.851v-26.901c0-5.891-4.776-10.667-10.667-10.667h-42.667c-5.891,0-10.667,4.776-10.667,10.667
		v26.901c-3.15,1.116-6.254,2.4-9.312,3.851l-18.987-18.987c-4.165-4.164-10.917-4.164-15.083,0l-30.187,30.187
		c-4.164,4.165-4.164,10.917,0,15.083l18.987,18.987c-1.422,3.065-2.706,6.169-3.851,9.312h-26.901
		c-5.891,0-10.667,4.776-10.667,10.667v42.667c0,5.891,4.776,10.667,10.667,10.667h26.901c1.116,3.15,2.4,6.254,3.851,9.312
		l-18.987,18.987c-4.164,4.165-4.164,10.917,0,15.083l30.187,30.187c4.165,4.164,10.917,4.164,15.083,0l18.987-18.987
		c3.065,1.422,6.169,2.706,9.312,3.851v26.901c0,5.891,4.776,10.667,10.667,10.667h42.667c5.891,0,10.667-4.776,10.667-10.667
		v-26.901c3.15-1.124,6.254-2.407,9.312-3.851l18.987,18.987c4.165,4.164,10.917,4.164,15.083,0l30.187-30.187
		c4.164-4.165,4.164-10.917,0-15.083l-18.987-18.987c1.422-3.065,2.706-6.169,3.851-9.312h26.901
		c5.891,0,10.667-4.776,10.667-10.667v-42.667C512,356.776,507.224,352,501.333,352L501.333,352z M490.667,394.667H466.56
		c-4.857-0.001-9.101,3.279-10.325,7.979c-1.775,6.773-4.459,13.275-7.979,19.328c-2.413,4.181-1.717,9.461,1.696,12.875
		l16.992,16.992l-15.104,15.104l-16.992-16.992c-3.413-3.413-8.694-4.109-12.875-1.696c-6.053,3.52-12.555,6.204-19.328,7.979
		c-4.7,1.224-7.98,5.468-7.979,10.325v24.107h-21.333V466.56c0.001-4.857-3.279-9.101-7.979-10.325
		c-6.773-1.775-13.275-4.459-19.328-7.979c-4.181-2.413-9.461-1.717-12.875,1.696l-16.992,16.992l-15.104-15.104l16.992-16.992
		c3.414-3.413,4.109-8.694,1.696-12.875c-3.52-6.053-6.204-12.555-7.979-19.328c-1.224-4.7-5.468-7.98-10.325-7.979h-24.107v-21.333
		h24.107c4.857,0.001,9.101-3.279,10.325-7.979c1.775-6.773,4.459-13.275,7.979-19.328c2.413-4.181,1.717-9.461-1.696-12.875
		l-16.992-16.992l15.104-15.104l16.992,16.992c3.413,3.414,8.694,4.109,12.875,1.696c6.053-3.52,12.555-6.204,19.328-7.979
		c4.7-1.224,7.98-5.468,7.979-10.325v-24.107h21.333v24.107c-0.001,4.857,3.279,9.101,7.979,10.325
		c6.773,1.775,13.275,4.459,19.328,7.979c4.181,2.413,9.461,1.717,12.875-1.696l16.992-16.992l15.104,15.104l-16.992,16.992
		c-3.413,3.413-4.109,8.694-1.696,12.875c3.52,6.053,6.204,12.555,7.979,19.328c1.224,4.7,5.468,7.98,10.325,7.979h24.107V394.667z"
		/>
	<path style="fill:#4C5B66;" d="M384,341.333c-23.564,0-42.667,19.103-42.667,42.667c0,23.564,19.103,42.667,42.667,42.667
		c23.564,0,42.667-19.103,42.667-42.667C426.667,360.436,407.564,341.333,384,341.333z M384,405.333
		c-11.782,0-21.333-9.551-21.333-21.333c0-11.782,9.551-21.333,21.333-21.333c11.782,0,21.333,9.551,21.333,21.333
		C405.333,395.782,395.782,405.333,384,405.333z"/>
	<path style="fill:#4C5B66;" d="M167.541,348.875l-15.083-15.083l-36.832,36.821c-24.121-29.506-38.27-65.897-40.416-103.947H128
		v-21.333H75.211c2.146-38.05,16.295-74.441,40.416-103.947l36.832,36.821l15.083-15.083l-37.387-37.333
		c31.084-30.128,71.962-48.08,115.179-50.581V128h21.333V75.211C362.4,80.889,437.175,160.099,437.333,256h21.333
		c0-111.93-90.737-202.667-202.667-202.667S53.333,144.07,53.333,256S144.07,458.667,256,458.667v-21.333
		c-47.004,0.008-92.158-18.313-125.867-51.072L167.541,348.875z"/>
	<path style="fill:#4C5B66;" d="M245.333,251.584l-50.208,50.208l15.083,15.083l53.333-53.333c2.001-2,3.125-4.713,3.125-7.541
		v-85.333h-21.333L245.333,251.584z"/>
</g>
<g>
</g>
<g>
</g>
<g>
</g>
<g>
</g>
<g>
</g>
<g>
</g>
<g>
</g>
<g>
</g>
<g>
</g>
<g>
</g>
<g>
</g>
<g>
</g>
<g>
</g>
<g>
</g>
<g>
</g>
</svg>
