<?xml version="1.0" encoding="iso-8859-1"?>
<!-- Generator: Adobe Illustrator 19.0.0, SVG Export Plug-In . SVG Version: 6.00 Build 0)  -->
<svg version="1.1" id="Capa_1" xmlns="http://www.w3.org/2000/svg" xmlns:xlink="http://www.w3.org/1999/xlink" x="0px" y="0px"
	 viewBox="0 0 58 58" style="enable-background:new 0 0 58 58;" xml:space="preserve">
<rect y="1" style="fill:#ECF0F1;" width="58" height="56"/>
<g>
	<rect x="9" y="10" style="fill:#BDC3C7;" width="40" height="10"/>
	<path style="fill:#BDC3C7;" d="M50,21H8V9h42V21z M10,19h38v-8H10V19z"/>
</g>
<path style="fill:#BDC3C7;" d="M21,37.5c-0.256,0-0.512-0.098-0.707-0.293c-0.391-0.391-0.391-1.023,0-1.414l8-8
	c0.391-0.391,1.023-0.391,1.414,0s0.391,1.023,0,1.414l-8,8C21.512,37.402,21.256,37.5,21,37.5z"/>
<path style="fill:#BDC3C7;" d="M37,37.5c-0.256,0-0.512-0.098-0.707-0.293l-8-8c-0.391-0.391-0.391-1.023,0-1.414
	s1.023-0.391,1.414,0l8,8c0.391,0.391,0.391,1.023,0,1.414C37.512,37.402,37.256,37.5,37,37.5z"/>
<path style="fill:#BDC3C7;" d="M29,49.5c-0.553,0-1-0.447-1-1v-20c0-0.553,0.447-1,1-1s1,0.447,1,1v20
	C30,49.053,29.553,49.5,29,49.5z"/>
<g>
</g>
<g>
</g>
<g>
</g>
<g>
</g>
<g>
</g>
<g>
</g>
<g>
</g>
<g>
</g>
<g>
</g>
<g>
</g>
<g>
</g>
<g>
</g>
<g>
</g>
<g>
</g>
<g>
</g>
</svg>
