<?xml version="1.0" encoding="iso-8859-1"?>
<!-- Generator: Adobe Illustrator 19.0.0, SVG Export Plug-In . SVG Version: 6.00 Build 0)  -->
<svg version="1.1" id="Capa_1" xmlns="http://www.w3.org/2000/svg" xmlns:xlink="http://www.w3.org/1999/xlink" x="0px" y="0px"
	 viewBox="0 0 58 58" style="enable-background:new 0 0 58 58;" xml:space="preserve">
<rect x="0" y="0.5" style="fill:#ECF0F1;" width="58" height="57"/>
<path style="fill:#BDC3C7;" d="M46,9.5L46,9.5H12l0,0h-0.145C10.831,9.5,10,10.331,10,11.355V14.5c0,1.105,0.895,2,2,2h0
	c1.105,0,2-0.895,2-2v-1h13v32h-3c-1.105,0-2,0.895-2,2v0c0,1.105,0.895,2,2,2h10c1.105,0,2-0.895,2-2v0c0-1.105-0.895-2-2-2h-3v-32
	h13v1c0,1.105,0.895,2,2,2h0c1.105,0,2-0.895,2-2v-3.145c0-1.025-0.831-1.855-1.855-1.855H46z"/>
<g>
</g>
<g>
</g>
<g>
</g>
<g>
</g>
<g>
</g>
<g>
</g>
<g>
</g>
<g>
</g>
<g>
</g>
<g>
</g>
<g>
</g>
<g>
</g>
<g>
</g>
<g>
</g>
<g>
</g>
</svg>
