<?xml version="1.0" encoding="iso-8859-1"?>
<!-- Generator: Adobe Illustrator 19.0.0, SVG Export Plug-In . SVG Version: 6.00 Build 0)  -->
<svg version="1.1" id="Capa_1" xmlns="http://www.w3.org/2000/svg" xmlns:xlink="http://www.w3.org/1999/xlink" x="0px" y="0px"
	 viewBox="0 0 58 58" style="enable-background:new 0 0 58 58;" xml:space="preserve">
<rect style="fill:#ECF0F1;" width="58" height="58"/>
<rect style="fill:#BDC3C7;" width="58" height="12"/>
<g>
	<path style="fill:#BDC3C7;" d="M27,39h-9c-0.552,0-1,0.447-1,1s0.448,1,1,1h9c0.552,0,1-0.447,1-1S27.552,39,27,39z"/>
	<path style="fill:#BDC3C7;" d="M38,39h-3c-0.552,0-1,0.447-1,1s0.448,1,1,1h3c0.552,0,1-0.447,1-1S38.552,39,38,39z"/>
	<path style="fill:#BDC3C7;" d="M30.29,39.29C30.11,39.479,30,39.74,30,40s0.11,0.52,0.29,0.71C30.48,40.89,30.74,41,31,41
		c0.26,0,0.52-0.11,0.71-0.29C31.89,40.52,32,40.26,32,40s-0.11-0.521-0.29-0.71C31.34,38.92,30.67,38.92,30.29,39.29z"/>
</g>
<path style="fill:#FFFFFF;" d="M40,12H25l1.298-4.894C26.717,5.849,27.894,5,29.22,5h6.559c1.326,0,2.503,0.849,2.923,2.106L40,12z"
	/>
<path style="fill:#ECF0F1;" d="M47,8h-4c-0.552,0-1-0.447-1-1s0.448-1,1-1h4c0.552,0,1,0.447,1,1S47.552,8,47,8z"/>
<path style="fill:#ECF0F1;" d="M45,10c-0.552,0-1-0.447-1-1V5c0-0.553,0.448-1,1-1s1,0.447,1,1v4C46,9.553,45.552,10,45,10z"/>
<rect y="12" style="fill:#CAD3DB;" width="58" height="7"/>
<rect x="50" y="12" style="fill:#FFFFFF;" width="8" height="7"/>
<rect x="16" y="27" style="fill:#FFFFFF;" width="26" height="6"/>
<circle style="fill:#ED7161;" cx="6" cy="6" r="2"/>
<circle style="fill:#F0C419;" cx="12" cy="6" r="2"/>
<circle style="fill:#4FBA6F;" cx="18" cy="6" r="2"/>
<g>
</g>
<g>
</g>
<g>
</g>
<g>
</g>
<g>
</g>
<g>
</g>
<g>
</g>
<g>
</g>
<g>
</g>
<g>
</g>
<g>
</g>
<g>
</g>
<g>
</g>
<g>
</g>
<g>
</g>
</svg>
