<?xml version="1.0" encoding="iso-8859-1"?>
<!-- Generator: Adobe Illustrator 19.0.0, SVG Export Plug-In . SVG Version: 6.00 Build 0)  -->
<svg version="1.1" id="Capa_1" xmlns="http://www.w3.org/2000/svg" xmlns:xlink="http://www.w3.org/1999/xlink" x="0px" y="0px"
	 viewBox="0 0 58 58" style="enable-background:new 0 0 58 58;" xml:space="preserve">
<rect style="fill:#ECF0F1;" width="58" height="58"/>
<rect style="fill:#546A79;" width="58" height="12"/>
<circle style="fill:#ED7161;" cx="6" cy="6" r="3"/>
<circle style="fill:#F0C419;" cx="15" cy="6" r="3"/>
<circle style="fill:#4FBA6F;" cx="24" cy="6" r="3"/>
<g>
	<path style="fill:#BDC3C7;" d="M43,48h-2c-0.553,0-1-0.447-1-1s0.447-1,1-1c0-0.553,0.447-1,1-1s1,0.447,1,1V48z"/>
	<path style="fill:#BDC3C7;" d="M37.692,48h-1.654c-0.553,0-1-0.447-1-1s0.447-1,1-1h1.654c0.553,0,1,0.447,1,1S38.245,48,37.692,48
		z M32.73,48h-1.653c-0.553,0-1-0.447-1-1s0.447-1,1-1h1.653c0.553,0,1,0.447,1,1S33.283,48,32.73,48z"/>
	<path style="fill:#BDC3C7;" d="M27.77,48h-1.654c-0.553,0-1-0.447-1-1s0.447-1,1-1h1.654c0.553,0,1,0.447,1,1S28.322,48,27.77,48z
		 M22.808,48h-1.653c-0.553,0-1-0.447-1-1s0.447-1,1-1h1.653c0.553,0,1,0.447,1,1S23.36,48,22.808,48z M17.847,48h-1.654
		c-0.553,0-1-0.447-1-1s0.447-1,1-1h1.654c0.553,0,1,0.447,1,1S18.399,48,17.847,48z M12.885,48h-1.653c-0.553,0-1-0.447-1-1
		s0.447-1,1-1h1.653c0.553,0,1,0.447,1,1S13.437,48,12.885,48z M7.924,48H6.27c-0.553,0-1-0.447-1-1s0.447-1,1-1h1.654
		c0.553,0,1,0.447,1,1S8.477,48,7.924,48z M2.962,48H1.308c-0.553,0-1-0.447-1-1s0.447-1,1-1h1.654c0.553,0,1,0.447,1,1
		S3.515,48,2.962,48z"/>
	<path style="fill:#BDC3C7;" d="M42,16c-0.553,0-1-0.447-1-1c-0.553,0-1-0.447-1-1s0.447-1,1-1h2v2C43,15.553,42.553,16,42,16z"/>
	<path style="fill:#BDC3C7;" d="M42,26.941c-0.553,0-1-0.447-1-1v-1.823c0-0.553,0.447-1,1-1s1,0.447,1,1v1.823
		C43,26.494,42.553,26.941,42,26.941z M42,21.471c-0.553,0-1-0.447-1-1v-1.823c0-0.553,0.447-1,1-1s1,0.447,1,1v1.823
		C43,21.023,42.553,21.471,42,21.471z"/>
	<path style="fill:#BDC3C7;" d="M42,43.353c-0.553,0-1-0.447-1-1v-1.823c0-0.553,0.447-1,1-1s1,0.447,1,1v1.823
		C43,42.905,42.553,43.353,42,43.353z M42,37.882c-0.553,0-1-0.447-1-1v-1.823c0-0.553,0.447-1,1-1s1,0.447,1,1v1.823
		C43,37.435,42.553,37.882,42,37.882z M42,32.411c-0.553,0-1-0.447-1-1v-1.823c0-0.553,0.447-1,1-1s1,0.447,1,1v1.823
		C43,31.964,42.553,32.411,42,32.411z"/>
</g>
<g>
</g>
<g>
</g>
<g>
</g>
<g>
</g>
<g>
</g>
<g>
</g>
<g>
</g>
<g>
</g>
<g>
</g>
<g>
</g>
<g>
</g>
<g>
</g>
<g>
</g>
<g>
</g>
<g>
</g>
</svg>
