<?xml version="1.0" encoding="iso-8859-1"?>
<!-- Generator: Adobe Illustrator 19.0.0, SVG Export Plug-In . SVG Version: 6.00 Build 0)  -->
<svg version="1.1" id="Capa_1" xmlns="http://www.w3.org/2000/svg" xmlns:xlink="http://www.w3.org/1999/xlink" x="0px" y="0px"
	 viewBox="0 0 58 58" style="enable-background:new 0 0 58 58;" xml:space="preserve">
<rect style="fill:#ECF0F1;" width="58" height="58"/>
<rect style="fill:#546A79;" width="58" height="12"/>
<circle style="fill:#ED7161;" cx="6" cy="6" r="3"/>
<circle style="fill:#F0C419;" cx="15" cy="6" r="3"/>
<circle style="fill:#4FBA6F;" cx="24" cy="6" r="3"/>
<path style="fill:#BDC3C7;" d="M6,53c-0.256,0-0.512-0.098-0.707-0.293c-0.391-0.391-0.391-1.023,0-1.414l10-10
	c0.391-0.391,1.023-0.391,1.414,0s0.391,1.023,0,1.414l-10,10C6.512,52.902,6.256,53,6,53z"/>
<path style="fill:#BDC3C7;" d="M11,53H6c-0.553,0-1-0.447-1-1s0.447-1,1-1h5c0.553,0,1,0.447,1,1S11.553,53,11,53z"/>
<path style="fill:#BDC3C7;" d="M6,53c-0.553,0-1-0.447-1-1v-5c0-0.553,0.447-1,1-1s1,0.447,1,1v5C7,52.553,6.553,53,6,53z"/>
<path style="fill:#BDC3C7;" d="M42,29c-0.256,0-0.512-0.098-0.707-0.293c-0.391-0.391-0.391-1.023,0-1.414l10-10
	c0.391-0.391,1.023-0.391,1.414,0s0.391,1.023,0,1.414l-10,10C42.512,28.902,42.256,29,42,29z"/>
<path style="fill:#BDC3C7;" d="M52,19h-5c-0.553,0-1-0.447-1-1s0.447-1,1-1h5c0.553,0,1,0.447,1,1S52.553,19,52,19z"/>
<path style="fill:#BDC3C7;" d="M52,24c-0.553,0-1-0.447-1-1v-5c0-0.553,0.447-1,1-1s1,0.447,1,1v5C53,23.553,52.553,24,52,24z"/>
<g>
</g>
<g>
</g>
<g>
</g>
<g>
</g>
<g>
</g>
<g>
</g>
<g>
</g>
<g>
</g>
<g>
</g>
<g>
</g>
<g>
</g>
<g>
</g>
<g>
</g>
<g>
</g>
<g>
</g>
</svg>
