<?xml version="1.0" encoding="iso-8859-1"?>
<!-- Generator: Adobe Illustrator 19.0.0, SVG Export Plug-In . SVG Version: 6.00 Build 0)  -->
<svg version="1.1" id="Capa_1" xmlns="http://www.w3.org/2000/svg" xmlns:xlink="http://www.w3.org/1999/xlink" x="0px" y="0px"
	 viewBox="0 0 58 58" style="enable-background:new 0 0 58 58;" xml:space="preserve">
<rect style="fill:#ECF0F1;" width="58" height="58"/>
<rect style="fill:#546A79;" width="58" height="12"/>
<circle style="fill:#ED7161;" cx="6" cy="6" r="3"/>
<circle style="fill:#F0C419;" cx="15" cy="6" r="3"/>
<circle style="fill:#4FBA6F;" cx="24" cy="6" r="3"/>
<path style="fill:#BDC3C7;" d="M35,48H22c-0.552,0-1-0.447-1-1s0.448-1,1-1h13c0.552,0,1,0.447,1,1S35.552,48,35,48z"/>
<path style="fill:#BDC3C7;" d="M40,52H16c-0.552,0-1-0.447-1-1s0.448-1,1-1h24c0.552,0,1,0.447,1,1S40.552,52,40,52z"/>
<circle style="fill:#0096E6;" cx="29" cy="30" r="12"/>
<path style="fill:#FFFFFF;" d="M34.707,29.293l-4.999-4.999c-0.092-0.093-0.203-0.166-0.326-0.217c-0.244-0.101-0.52-0.101-0.764,0
	c-0.123,0.051-0.233,0.124-0.326,0.217l-4.999,4.999c-0.391,0.391-0.391,1.023,0,1.414C23.488,30.902,23.744,31,24,31
	s0.512-0.098,0.707-0.293L28,27.414V35c0,0.553,0.448,1,1,1s1-0.447,1-1v-7.586l3.293,3.293C33.488,30.902,33.744,31,34,31
	s0.512-0.098,0.707-0.293C35.098,30.316,35.098,29.684,34.707,29.293z"/>
<g>
</g>
<g>
</g>
<g>
</g>
<g>
</g>
<g>
</g>
<g>
</g>
<g>
</g>
<g>
</g>
<g>
</g>
<g>
</g>
<g>
</g>
<g>
</g>
<g>
</g>
<g>
</g>
<g>
</g>
</svg>
