<?xml version="1.0" encoding="iso-8859-1"?>
<!-- Generator: Adobe Illustrator 19.0.0, SVG Export Plug-In . SVG Version: 6.00 Build 0)  -->
<svg version="1.1" id="Capa_1" xmlns="http://www.w3.org/2000/svg" xmlns:xlink="http://www.w3.org/1999/xlink" x="0px" y="0px"
	 viewBox="0 0 58 58" style="enable-background:new 0 0 58 58;" xml:space="preserve">
<rect style="fill:#ECF0F1;" width="58" height="58"/>
<rect style="fill:#546A79;" width="58" height="12"/>
<circle style="fill:#ED7161;" cx="6" cy="6" r="3"/>
<circle style="fill:#F0C419;" cx="15" cy="6" r="3"/>
<circle style="fill:#4FBA6F;" cx="24" cy="6" r="3"/>
<g>
	<path style="fill:#8697CB;" d="M46,20h5c0.552,0,1-0.447,1-1s-0.448-1-1-1h-5c-0.552,0-1,0.447-1,1S45.448,20,46,20z"/>
	<path style="fill:#8697CB;" d="M51,21h-5c-0.552,0-1,0.447-1,1s0.448,1,1,1h5c0.552,0,1-0.447,1-1S51.552,21,51,21z"/>
	<path style="fill:#8697CB;" d="M51,24h-5c-0.552,0-1,0.447-1,1s0.448,1,1,1h5c0.552,0,1-0.447,1-1S51.552,24,51,24z"/>
</g>
<g>
	<path style="fill:#BDC3C7;" d="M7,36h21c0.552,0,1-0.447,1-1s-0.448-1-1-1H7c-0.552,0-1,0.447-1,1S6.448,36,7,36z"/>
	<path style="fill:#BDC3C7;" d="M32,36h9c0.552,0,1-0.447,1-1s-0.448-1-1-1h-9c-0.552,0-1,0.447-1,1S31.448,36,32,36z"/>
	<path style="fill:#BDC3C7;" d="M45,36h6c0.552,0,1-0.447,1-1s-0.448-1-1-1h-6c-0.552,0-1,0.447-1,1S44.448,36,45,36z"/>
	<path style="fill:#BDC3C7;" d="M51,39H30c-0.552,0-1,0.447-1,1s0.448,1,1,1h21c0.552,0,1-0.447,1-1S51.552,39,51,39z"/>
	<path style="fill:#BDC3C7;" d="M17,39c-0.552,0-1,0.447-1,1s0.448,1,1,1h9c0.552,0,1-0.447,1-1s-0.448-1-1-1H17z"/>
	<path style="fill:#BDC3C7;" d="M7,41h6c0.552,0,1-0.447,1-1s-0.448-1-1-1H7c-0.552,0-1,0.447-1,1S6.448,41,7,41z"/>
	<path style="fill:#BDC3C7;" d="M28,44H7c-0.552,0-1,0.447-1,1s0.448,1,1,1h21c0.552,0,1-0.447,1-1S28.552,44,28,44z"/>
	<path style="fill:#BDC3C7;" d="M41,46c0.552,0,1-0.447,1-1s-0.448-1-1-1h-9c-0.552,0-1,0.447-1,1s0.448,1,1,1H41z"/>
	<path style="fill:#BDC3C7;" d="M51,44h-6c-0.552,0-1,0.447-1,1s0.448,1,1,1h6c0.552,0,1-0.447,1-1S51.552,44,51,44z"/>
	<path style="fill:#BDC3C7;" d="M51,49H30c-0.552,0-1,0.447-1,1s0.448,1,1,1h21c0.552,0,1-0.447,1-1S51.552,49,51,49z"/>
	<path style="fill:#BDC3C7;" d="M26,49h-9c-0.552,0-1,0.447-1,1s0.448,1,1,1h9c0.552,0,1-0.447,1-1S26.552,49,26,49z"/>
	<path style="fill:#BDC3C7;" d="M13,49H7c-0.552,0-1,0.447-1,1s0.448,1,1,1h6c0.552,0,1-0.447,1-1S13.552,49,13,49z"/>
</g>
<path style="fill:#CBB292;" d="M11,26L11,26c-2.209,0-4-1.791-4-4v0c0-2.209,1.791-4,4-4h0c2.209,0,4,1.791,4,4v0
	C15,24.209,13.209,26,11,26z"/>
<g>
</g>
<g>
</g>
<g>
</g>
<g>
</g>
<g>
</g>
<g>
</g>
<g>
</g>
<g>
</g>
<g>
</g>
<g>
</g>
<g>
</g>
<g>
</g>
<g>
</g>
<g>
</g>
<g>
</g>
</svg>
