<?xml version="1.0" encoding="iso-8859-1"?>
<!-- Generator: Adobe Illustrator 19.0.0, SVG Export Plug-In . SVG Version: 6.00 Build 0)  -->
<svg version="1.1" id="Capa_1" xmlns="http://www.w3.org/2000/svg" xmlns:xlink="http://www.w3.org/1999/xlink" x="0px" y="0px"
	 viewBox="0 0 58 58" style="enable-background:new 0 0 58 58;" xml:space="preserve">
<rect style="fill:#ECF0F1;" width="58" height="58"/>
<circle style="fill:#4FBA6F;" cx="14" cy="31" r="5"/>
<rect y="12" style="fill:#FFFFFF;" width="58" height="5"/>
<rect style="fill:#BDC3C7;" width="58" height="12"/>
<polygon style="fill:#7F8C8D;" points="54.707,3.707 53.293,2.293 51,4.586 48.707,2.293 47.293,3.707 49.586,6 47.293,8.293 
	48.707,9.707 51,7.414 53.293,9.707 54.707,8.293 52.414,6 "/>
<rect x="34" y="12" style="fill:#BDC3C7;" width="2" height="5"/>
<g>
	<path style="fill:#BDC3C7;" d="M24,33h22c0.552,0,1-0.447,1-1s-0.448-1-1-1H24c-0.552,0-1,0.447-1,1S23.448,33,24,33z"/>
	<path style="fill:#BDC3C7;" d="M46,37H24c-0.552,0-1,0.447-1,1s0.448,1,1,1h22c0.552,0,1-0.447,1-1S46.552,37,46,37z"/>
	<path style="fill:#BDC3C7;" d="M24,27h9c0.552,0,1-0.447,1-1s-0.448-1-1-1h-9c-0.552,0-1,0.447-1,1S23.448,27,24,27z"/>
	<path style="fill:#BDC3C7;" d="M37,27c0.26,0,0.52-0.11,0.71-0.29C37.89,26.52,38,26.26,38,26s-0.11-0.521-0.29-0.71
		c-0.37-0.37-1.05-0.37-1.42,0C36.11,25.479,36,25.74,36,26s0.11,0.52,0.29,0.71C36.48,26.89,36.74,27,37,27z"/>
</g>
<g>
</g>
<g>
</g>
<g>
</g>
<g>
</g>
<g>
</g>
<g>
</g>
<g>
</g>
<g>
</g>
<g>
</g>
<g>
</g>
<g>
</g>
<g>
</g>
<g>
</g>
<g>
</g>
<g>
</g>
</svg>
