<?xml version="1.0" encoding="iso-8859-1"?>
<!-- Generator: Adobe Illustrator 19.0.0, SVG Export Plug-In . SVG Version: 6.00 Build 0)  -->
<svg version="1.1" id="Capa_1" xmlns="http://www.w3.org/2000/svg" xmlns:xlink="http://www.w3.org/1999/xlink" x="0px" y="0px"
	 viewBox="0 0 58 58" style="enable-background:new 0 0 58 58;" xml:space="preserve">
<rect x="0" y="0.5" style="fill:#ECF0F1;" width="58" height="57"/>
<path style="fill:#BDC3C7;" d="M12,16.5c-0.552,0-1-0.447-1-1v-4c0-0.553,0.448-1,1-1s1,0.447,1,1v4C13,16.053,12.552,16.5,12,16.5z
	"/>
<path style="fill:#BDC3C7;" d="M46,12.5H12c-0.552,0-1-0.447-1-1s0.448-1,1-1h34c0.552,0,1,0.447,1,1S46.552,12.5,46,12.5z"/>
<path style="fill:#BDC3C7;" d="M46,16.5c-0.552,0-1-0.447-1-1v-4c0-0.553,0.448-1,1-1s1,0.447,1,1v4C47,16.053,46.552,16.5,46,16.5z
	"/>
<path style="fill:#BDC3C7;" d="M29,48.5c-0.552,0-1-0.447-1-1v-36c0-0.553,0.448-1,1-1s1,0.447,1,1v36
	C30,48.053,29.552,48.5,29,48.5z"/>
<path style="fill:#BDC3C7;" d="M35,48.5H23c-0.552,0-1-0.447-1-1s0.448-1,1-1h12c0.552,0,1,0.447,1,1S35.552,48.5,35,48.5z"/>
<g>
</g>
<g>
</g>
<g>
</g>
<g>
</g>
<g>
</g>
<g>
</g>
<g>
</g>
<g>
</g>
<g>
</g>
<g>
</g>
<g>
</g>
<g>
</g>
<g>
</g>
<g>
</g>
<g>
</g>
</svg>
