<?xml version="1.0" encoding="iso-8859-1"?>
<!-- Generator: Adobe Illustrator 19.0.0, SVG Export Plug-In . SVG Version: 6.00 Build 0)  -->
<svg version="1.1" id="Capa_1" xmlns="http://www.w3.org/2000/svg" xmlns:xlink="http://www.w3.org/1999/xlink" x="0px" y="0px"
	 viewBox="0 0 58 58" style="enable-background:new 0 0 58 58;" xml:space="preserve">
<rect y="1" style="fill:#ECF0F1;" width="58" height="56"/>
<path style="fill:#BDC3C7;" d="M29,12c-0.553,0-1-0.447-1-1c0-2.206,1.794-4,4-4c0.553,0,1,0.447,1,1s-0.447,1-1,1
	c-1.103,0-2,0.897-2,2C30,11.553,29.553,12,29,12z"/>
<path style="fill:#BDC3C7;" d="M41,9h-9c-0.553,0-1-0.447-1-1s0.447-1,1-1h9c0.553,0,1,0.447,1,1S41.553,9,41,9z"/>
<path style="fill:#BDC3C7;" d="M29,12c-0.553,0-1-0.447-1-1c0-1.103-0.897-2-2-2c-0.553,0-1-0.447-1-1s0.447-1,1-1
	c2.206,0,4,1.794,4,4C30,11.553,29.553,12,29,12z"/>
<path style="fill:#BDC3C7;" d="M26,9h-9c-0.553,0-1-0.447-1-1s0.447-1,1-1h9c0.553,0,1,0.447,1,1S26.553,9,26,9z"/>
<path style="fill:#BDC3C7;" d="M26,51c-0.553,0-1-0.447-1-1s0.447-1,1-1c1.103,0,2-0.897,2-2c0-0.553,0.447-1,1-1s1,0.447,1,1
	C30,49.206,28.206,51,26,51z"/>
<path style="fill:#BDC3C7;" d="M26,51h-9c-0.553,0-1-0.447-1-1s0.447-1,1-1h9c0.553,0,1,0.447,1,1S26.553,51,26,51z"/>
<path style="fill:#BDC3C7;" d="M32,51c-2.206,0-4-1.794-4-4c0-0.553,0.447-1,1-1s1,0.447,1,1c0,1.103,0.897,2,2,2
	c0.553,0,1,0.447,1,1S32.553,51,32,51z"/>
<path style="fill:#BDC3C7;" d="M41,51h-9c-0.553,0-1-0.447-1-1s0.447-1,1-1h9c0.553,0,1,0.447,1,1S41.553,51,41,51z"/>
<path style="fill:#BDC3C7;" d="M29,48c-0.553,0-1-0.447-1-1V11c0-0.553,0.447-1,1-1s1,0.447,1,1v36C30,47.553,29.553,48,29,48z"/>
<path style="fill:#BDC3C7;" d="M34,29H24c-0.553,0-1-0.447-1-1s0.447-1,1-1h10c0.553,0,1,0.447,1,1S34.553,29,34,29z"/>
<g>
</g>
<g>
</g>
<g>
</g>
<g>
</g>
<g>
</g>
<g>
</g>
<g>
</g>
<g>
</g>
<g>
</g>
<g>
</g>
<g>
</g>
<g>
</g>
<g>
</g>
<g>
</g>
<g>
</g>
</svg>
