<?xml version="1.0" encoding="iso-8859-1"?>
<!-- Generator: Adobe Illustrator 19.0.0, SVG Export Plug-In . SVG Version: 6.00 Build 0)  -->
<svg version="1.1" id="Capa_1" xmlns="http://www.w3.org/2000/svg" xmlns:xlink="http://www.w3.org/1999/xlink" x="0px" y="0px"
	 viewBox="0 0 58 58" style="enable-background:new 0 0 58 58;" xml:space="preserve">
<rect style="fill:#ECF0F1;" width="58" height="58"/>
<rect style="fill:#BDC3C7;" width="58" height="12"/>
<polygon style="fill:#7F8C8D;" points="54.707,3.707 53.293,2.293 51,4.586 48.707,2.293 47.293,3.707 49.586,6 47.293,8.293 
	48.707,9.707 51,7.414 53.293,9.707 54.707,8.293 52.414,6 "/>
<rect x="3" y="3" style="fill:#FFFFFF;" width="37" height="6"/>
<g>
	<path style="fill:#BDC3C7;" d="M19,36h-3v-2c0-0.552-0.448-1-1-1s-1,0.448-1,1v2H9V26c0-0.552-0.448-1-1-1s-1,0.448-1,1v11
		c0,0.552,0.448,1,1,1h6v8c0,0.552,0.448,1,1,1s1-0.448,1-1v-8h3c0.552,0,1-0.448,1-1S19.552,36,19,36z"/>
	<path style="fill:#BDC3C7;" d="M50,36h-3v-2c0-0.552-0.448-1-1-1s-1,0.448-1,1v2h-5V26c0-0.552-0.448-1-1-1s-1,0.448-1,1v11
		c0,0.552,0.448,1,1,1h6v8c0,0.552,0.448,1,1,1s1-0.448,1-1v-8h3c0.552,0,1-0.448,1-1S50.552,36,50,36z"/>
	<path style="fill:#BDC3C7;" d="M28.5,25c-3.584,0-6.5,2.916-6.5,6.5v9c0,3.584,2.916,6.5,6.5,6.5s6.5-2.916,6.5-6.5v-9
		C35,27.916,32.084,25,28.5,25z M33,40.5c0,2.481-2.019,4.5-4.5,4.5S24,42.981,24,40.5v-9c0-2.481,2.019-4.5,4.5-4.5
		s4.5,2.019,4.5,4.5V40.5z"/>
</g>
<g>
</g>
<g>
</g>
<g>
</g>
<g>
</g>
<g>
</g>
<g>
</g>
<g>
</g>
<g>
</g>
<g>
</g>
<g>
</g>
<g>
</g>
<g>
</g>
<g>
</g>
<g>
</g>
<g>
</g>
</svg>
