<?xml version="1.0" encoding="iso-8859-1"?>
<!-- Generator: Adobe Illustrator 19.0.0, SVG Export Plug-In . SVG Version: 6.00 Build 0)  -->
<svg version="1.1" id="Capa_1" xmlns="http://www.w3.org/2000/svg" xmlns:xlink="http://www.w3.org/1999/xlink" x="0px" y="0px"
	 viewBox="0 0 58 58" style="enable-background:new 0 0 58 58;" xml:space="preserve">
<rect x="0" y="0.5" style="fill:#ECF0F1;" width="58" height="57"/>
<path style="fill:#BDC3C7;" d="M15.001,16.5c-0.072,0-0.145-0.008-0.218-0.023c-0.539-0.12-0.879-0.654-0.76-1.193l0.889-4
	c0.12-0.539,0.659-0.871,1.193-0.76c0.539,0.12,0.879,0.654,0.76,1.193l-0.889,4C15.873,16.183,15.459,16.5,15.001,16.5z"/>
<path style="fill:#BDC3C7;" d="M43.889,12.5h-28c-0.553,0-1-0.447-1-1s0.447-1,1-1h28c0.553,0,1,0.447,1,1S44.441,12.5,43.889,12.5z
	"/>
<path style="fill:#BDC3C7;" d="M43.001,16.5c-0.072,0-0.145-0.008-0.218-0.023c-0.539-0.12-0.879-0.654-0.76-1.193l0.889-4
	c0.12-0.539,0.656-0.871,1.193-0.76c0.539,0.12,0.879,0.654,0.76,1.193l-0.889,4C43.873,16.183,43.459,16.5,43.001,16.5z"/>
<path style="fill:#BDC3C7;" d="M21.89,48.5c-0.072,0-0.145-0.008-0.218-0.023c-0.539-0.12-0.879-0.654-0.76-1.193l8-36
	c0.12-0.539,0.658-0.871,1.193-0.76c0.539,0.12,0.879,0.654,0.76,1.193l-8,36C22.762,48.183,22.348,48.5,21.89,48.5z"/>
<path style="fill:#BDC3C7;" d="M27.889,48.5h-12c-0.553,0-1-0.447-1-1s0.447-1,1-1h12c0.553,0,1,0.447,1,1S28.441,48.5,27.889,48.5z
	"/>
<g>
</g>
<g>
</g>
<g>
</g>
<g>
</g>
<g>
</g>
<g>
</g>
<g>
</g>
<g>
</g>
<g>
</g>
<g>
</g>
<g>
</g>
<g>
</g>
<g>
</g>
<g>
</g>
<g>
</g>
</svg>
