<?xml version="1.0" encoding="iso-8859-1"?>
<!-- Generator: Adobe Illustrator 19.0.0, SVG Export Plug-In . SVG Version: 6.00 Build 0)  -->
<svg version="1.1" id="Capa_1" xmlns="http://www.w3.org/2000/svg" xmlns:xlink="http://www.w3.org/1999/xlink" x="0px" y="0px"
	 viewBox="0 0 58 58" style="enable-background:new 0 0 58 58;" xml:space="preserve">
<rect y="0.5" style="fill:#ECF0F1;" width="58" height="57"/>
<path style="fill:#BDC3C7;" d="M33,12.5H12c-0.552,0-1-0.447-1-1s0.448-1,1-1h21c0.552,0,1,0.447,1,1S33.552,12.5,33,12.5z"/>
<path style="fill:#BDC3C7;" d="M25,19.5H12c-0.552,0-1-0.447-1-1s0.448-1,1-1h13c0.552,0,1,0.447,1,1S25.552,19.5,25,19.5z"/>
<path style="fill:#BDC3C7;" d="M33,26.5H12c-0.552,0-1-0.447-1-1s0.448-1,1-1h21c0.552,0,1,0.447,1,1S33.552,26.5,33,26.5z"/>
<path style="fill:#BDC3C7;" d="M29,33.5H12c-0.552,0-1-0.447-1-1s0.448-1,1-1h17c0.552,0,1,0.447,1,1S29.552,33.5,29,33.5z"/>
<path style="fill:#BDC3C7;" d="M25,40.5H12c-0.552,0-1-0.447-1-1s0.448-1,1-1h13c0.552,0,1,0.447,1,1S25.552,40.5,25,40.5z"/>
<path style="fill:#BDC3C7;" d="M33,47.5H12c-0.552,0-1-0.447-1-1s0.448-1,1-1h21c0.552,0,1,0.447,1,1S33.552,47.5,33,47.5z"/>
<path style="fill:#BDC3C7;" d="M40,47.5c-0.552,0-1-0.447-1-1v-35c0-0.553,0.448-1,1-1s1,0.447,1,1v35
	C41,47.053,40.552,47.5,40,47.5z"/>
<path style="fill:#BDC3C7;" d="M43.999,30.5c-0.198,0-0.398-0.059-0.572-0.181c-0.453-0.316-0.563-0.94-0.246-1.393l7-10
	c0.317-0.452,0.94-0.562,1.393-0.246c0.453,0.316,0.563,0.94,0.246,1.393l-7,10C44.625,30.352,44.314,30.5,43.999,30.5z"/>
<path style="fill:#BDC3C7;" d="M51.001,40.5c-0.315,0-0.625-0.148-0.82-0.427l-7-10c-0.316-0.452-0.207-1.076,0.246-1.393
	c0.453-0.315,1.076-0.206,1.393,0.246l7,10c0.316,0.452,0.207,1.076-0.246,1.393C51.399,40.441,51.199,40.5,51.001,40.5z"/>
<g>
</g>
<g>
</g>
<g>
</g>
<g>
</g>
<g>
</g>
<g>
</g>
<g>
</g>
<g>
</g>
<g>
</g>
<g>
</g>
<g>
</g>
<g>
</g>
<g>
</g>
<g>
</g>
<g>
</g>
</svg>
