<?xml version="1.0" encoding="iso-8859-1"?>
<!-- Generator: Adobe Illustrator 19.0.0, SVG Export Plug-In . SVG Version: 6.00 Build 0)  -->
<svg version="1.1" id="Capa_1" xmlns="http://www.w3.org/2000/svg" xmlns:xlink="http://www.w3.org/1999/xlink" x="0px" y="0px"
	 viewBox="0 0 58 58" style="enable-background:new 0 0 58 58;" xml:space="preserve">
<rect x="0" y="0.5" style="fill:#ECF0F1;" width="58" height="57"/>
<path style="fill:#BDC3C7;" d="M47,14.5H24c-0.552,0-1-0.447-1-1s0.448-1,1-1h23c0.552,0,1,0.447,1,1S47.552,14.5,47,14.5z"/>
<path style="fill:#BDC3C7;" d="M47,30.5H24c-0.552,0-1-0.447-1-1s0.448-1,1-1h23c0.552,0,1,0.447,1,1S47.552,30.5,47,30.5z"/>
<path style="fill:#BDC3C7;" d="M47,46.5H24c-0.552,0-1-0.447-1-1s0.448-1,1-1h23c0.552,0,1,0.447,1,1S47.552,46.5,47,46.5z"/>
<g>
	<rect x="10" y="9.5" style="fill:#BDC3C7;" width="8" height="8"/>
	<path style="fill:#BDC3C7;" d="M19,18.5H9v-10h10V18.5z M11,16.5h6v-6h-6V16.5z"/>
</g>
<g>
	<rect x="10" y="25.5" style="fill:#BDC3C7;" width="8" height="8"/>
	<path style="fill:#BDC3C7;" d="M19,34.5H9v-10h10V34.5z M11,32.5h6v-6h-6V32.5z"/>
</g>
<g>
	<rect x="10" y="41.5" style="fill:#BDC3C7;" width="8" height="8"/>
	<path style="fill:#BDC3C7;" d="M19,50.5H9v-10h10V50.5z M11,48.5h6v-6h-6V48.5z"/>
</g>
<g>
</g>
<g>
</g>
<g>
</g>
<g>
</g>
<g>
</g>
<g>
</g>
<g>
</g>
<g>
</g>
<g>
</g>
<g>
</g>
<g>
</g>
<g>
</g>
<g>
</g>
<g>
</g>
<g>
</g>
</svg>
