<?xml version="1.0" encoding="iso-8859-1"?>
<!-- Generator: Adobe Illustrator 19.0.0, SVG Export Plug-In . SVG Version: 6.00 Build 0)  -->
<svg version="1.1" id="Capa_1" xmlns="http://www.w3.org/2000/svg" xmlns:xlink="http://www.w3.org/1999/xlink" x="0px" y="0px"
	 viewBox="0 0 58 58" style="enable-background:new 0 0 58 58;" xml:space="preserve">
<rect x="0" y="0.5" style="fill:#ECF0F1;" width="58" height="57"/>
<path style="fill:#BDC3C7;" d="M6,46.5c-0.113,0-0.229-0.02-0.342-0.061c-0.519-0.188-0.787-0.762-0.598-1.281l12-33
	c0.188-0.519,0.762-0.785,1.281-0.598c0.519,0.188,0.787,0.762,0.598,1.281l-12,33C6.792,46.248,6.408,46.5,6,46.5z"/>
<path style="fill:#BDC3C7;" d="M30,46.5c-0.408,0-0.792-0.252-0.939-0.658l-12-33c-0.189-0.52,0.079-1.093,0.598-1.281
	c0.521-0.188,1.093,0.079,1.281,0.598l12,33c0.189,0.52-0.079,1.093-0.598,1.281C30.229,46.48,30.113,46.5,30,46.5z"/>
<path style="fill:#BDC3C7;" d="M35,46.5c-0.118,0-0.239-0.021-0.356-0.065c-0.516-0.196-0.774-0.774-0.578-1.291l8-21
	c0.197-0.516,0.773-0.776,1.291-0.578c0.516,0.196,0.774,0.774,0.578,1.291l-8,21C35.782,46.255,35.402,46.5,35,46.5z"/>
<path style="fill:#BDC3C7;" d="M51,46.5c-0.402,0-0.782-0.245-0.935-0.644l-8-21c-0.196-0.517,0.063-1.095,0.578-1.291
	c0.514-0.198,1.094,0.063,1.291,0.578l8,21c0.196,0.517-0.063,1.095-0.578,1.291C51.239,46.479,51.118,46.5,51,46.5z"/>
<path style="fill:#BDC3C7;" d="M25.637,34.5H10.363c-0.553,0-1-0.447-1-1s0.447-1,1-1h15.273c0.553,0,1,0.447,1,1
	S26.189,34.5,25.637,34.5z"/>
<path style="fill:#BDC3C7;" d="M47.952,38.5h-9.904c-0.553,0-1-0.447-1-1s0.447-1,1-1h9.904c0.553,0,1,0.447,1,1
	S48.505,38.5,47.952,38.5z"/>
<path style="fill:#BDC3C7;" d="M43,20.5c-0.256,0-0.512-0.098-0.707-0.293c-0.391-0.391-0.391-1.023,0-1.414l5-5
	c0.391-0.391,1.023-0.391,1.414,0s0.391,1.023,0,1.414l-5,5C43.512,20.402,43.256,20.5,43,20.5z"/>
<path style="fill:#BDC3C7;" d="M43,20.5c-0.256,0-0.512-0.098-0.707-0.293l-5-5c-0.391-0.391-0.391-1.023,0-1.414
	s1.023-0.391,1.414,0l5,5c0.391,0.391,0.391,1.023,0,1.414C43.512,20.402,43.256,20.5,43,20.5z"/>
<path style="fill:#BDC3C7;" d="M43,20.5c-0.553,0-1-0.447-1-1v-10c0-0.553,0.447-1,1-1s1,0.447,1,1v10
	C44,20.053,43.553,20.5,43,20.5z"/>
<g>
</g>
<g>
</g>
<g>
</g>
<g>
</g>
<g>
</g>
<g>
</g>
<g>
</g>
<g>
</g>
<g>
</g>
<g>
</g>
<g>
</g>
<g>
</g>
<g>
</g>
<g>
</g>
<g>
</g>
</svg>
