<?xml version="1.0" encoding="iso-8859-1"?>
<!-- Generator: Adobe Illustrator 19.0.0, SVG Export Plug-In . SVG Version: 6.00 Build 0)  -->
<svg version="1.1" id="Capa_1" xmlns="http://www.w3.org/2000/svg" xmlns:xlink="http://www.w3.org/1999/xlink" x="0px" y="0px"
	 viewBox="0 0 57 57" style="enable-background:new 0 0 57 57;" xml:space="preserve">
<rect x="0" y="0" style="fill:#ECF0F1;" width="57" height="57"/>
<path style="fill:#BDC3C7;" d="M8,16c-0.552,0-1-0.447-1-1v-4c0-0.553,0.448-1,1-1s1,0.447,1,1v4C9,15.553,8.552,16,8,16z"/>
<path style="fill:#BDC3C7;" d="M36,12H8c-0.552,0-1-0.447-1-1s0.448-1,1-1h28c0.552,0,1,0.447,1,1S36.552,12,36,12z"/>
<path style="fill:#BDC3C7;" d="M36,16c-0.552,0-1-0.447-1-1v-4c0-0.553,0.448-1,1-1s1,0.447,1,1v4C37,15.553,36.552,16,36,16z"/>
<path style="fill:#BDC3C7;" d="M33,29c-0.552,0-1-0.447-1-1v-2c0-0.553,0.448-1,1-1s1,0.447,1,1v2C34,28.553,33.552,29,33,29z"/>
<path style="fill:#BDC3C7;" d="M49,29c-0.552,0-1-0.447-1-1v-2c0-0.553,0.448-1,1-1s1,0.447,1,1v2C50,28.553,49.552,29,49,29z"/>
<path style="fill:#BDC3C7;" d="M22,48c-0.552,0-1-0.447-1-1V11c0-0.553,0.448-1,1-1s1,0.447,1,1v36C23,47.553,22.552,48,22,48z"/>
<path style="fill:#BDC3C7;" d="M28,48H16c-0.552,0-1-0.447-1-1s0.448-1,1-1h12c0.552,0,1,0.447,1,1S28.552,48,28,48z"/>
<path style="fill:#BDC3C7;" d="M41,48c-0.552,0-1-0.447-1-1V26c0-0.553,0.448-1,1-1s1,0.447,1,1v21C42,47.553,41.552,48,41,48z"/>
<path style="fill:#BDC3C7;" d="M45,48h-8c-0.552,0-1-0.447-1-1s0.448-1,1-1h8c0.552,0,1,0.447,1,1S45.552,48,45,48z"/>
<path style="fill:#BDC3C7;" d="M49,27H33c-0.552,0-1-0.447-1-1s0.448-1,1-1h16c0.552,0,1,0.447,1,1S49.552,27,49,27z"/>
<g>
</g>
<g>
</g>
<g>
</g>
<g>
</g>
<g>
</g>
<g>
</g>
<g>
</g>
<g>
</g>
<g>
</g>
<g>
</g>
<g>
</g>
<g>
</g>
<g>
</g>
<g>
</g>
<g>
</g>
</svg>
