<?xml version="1.0" encoding="iso-8859-1"?>
<!-- Generator: Adobe Illustrator 19.0.0, SVG Export Plug-In . SVG Version: 6.00 Build 0)  -->
<svg version="1.1" id="Capa_1" xmlns="http://www.w3.org/2000/svg" xmlns:xlink="http://www.w3.org/1999/xlink" x="0px" y="0px"
	 viewBox="0 0 57 57" style="enable-background:new 0 0 57 57;" xml:space="preserve">
<rect x="0" y="0" style="fill:#ECF0F1;" width="57" height="57"/>
<path style="fill:#BDC3C7;" d="M36,48c-0.552,0-1-0.447-1-1V11H25v36c0,0.553-0.448,1-1,1s-1-0.447-1-1V9h14v38
	C37,47.553,36.552,48,36,48z"/>
<path style="fill:#BDC3C7;" d="M45,11h-9c-0.552,0-1-0.447-1-1s0.448-1,1-1h9c0.552,0,1,0.447,1,1S45.552,11,45,11z"/>
<g>
	<path style="fill:#BDC3C7;" d="M20,26h4V10h-4c-4.418,0-8,3.582-8,8v0C12,22.418,15.582,26,20,26z"/>
	<path style="fill:#BDC3C7;" d="M25,27h-5c-4.962,0-9-4.037-9-9s4.038-9,9-9h5V27z M20,11c-3.86,0-7,3.141-7,7s3.14,7,7,7h3V11H20z"
		/>
</g>
<g>
</g>
<g>
</g>
<g>
</g>
<g>
</g>
<g>
</g>
<g>
</g>
<g>
</g>
<g>
</g>
<g>
</g>
<g>
</g>
<g>
</g>
<g>
</g>
<g>
</g>
<g>
</g>
<g>
</g>
</svg>
