<?xml version="1.0" encoding="iso-8859-1"?>
<!-- Generator: Adobe Illustrator 19.0.0, SVG Export Plug-In . SVG Version: 6.00 Build 0)  -->
<svg version="1.1" id="Capa_1" xmlns="http://www.w3.org/2000/svg" xmlns:xlink="http://www.w3.org/1999/xlink" x="0px" y="0px"
	 viewBox="0 0 58 58" style="enable-background:new 0 0 58 58;" xml:space="preserve">
<rect x="0" y="0.5" style="fill:#ECF0F1;" width="58" height="57"/>
<path style="fill:#BDC3C7;" d="M15,19.5c-0.552,0-1-0.447-1-1v-4c0-0.553,0.448-1,1-1s1,0.447,1,1v4C16,19.053,15.552,19.5,15,19.5z
	"/>
<path style="fill:#BDC3C7;" d="M43,15.5H15c-0.552,0-1-0.447-1-1s0.448-1,1-1h28c0.552,0,1,0.447,1,1S43.552,15.5,43,15.5z"/>
<path style="fill:#BDC3C7;" d="M43,19.5c-0.552,0-1-0.447-1-1v-4c0-0.553,0.448-1,1-1s1,0.447,1,1v4C44,19.053,43.552,19.5,43,19.5z
	"/>
<path style="fill:#BDC3C7;" d="M29,46.5c-0.552,0-1-0.447-1-1v-31c0-0.553,0.448-1,1-1s1,0.447,1,1v31
	C30,46.053,29.552,46.5,29,46.5z"/>
<path style="fill:#BDC3C7;" d="M35,46.5H23c-0.552,0-1-0.447-1-1s0.448-1,1-1h12c0.552,0,1,0.447,1,1S35.552,46.5,35,46.5z"/>
<path style="fill:#BDC3C7;" d="M45,37.5c-0.256,0-0.512-0.098-0.707-0.293l-9-9c-0.391-0.391-0.391-1.023,0-1.414
	s1.023-0.391,1.414,0l9,9c0.391,0.391,0.391,1.023,0,1.414C45.512,37.402,45.256,37.5,45,37.5z"/>
<path style="fill:#BDC3C7;" d="M36,37.5c-0.256,0-0.512-0.098-0.707-0.293c-0.391-0.391-0.391-1.023,0-1.414l9-9
	c0.391-0.391,1.023-0.391,1.414,0s0.391,1.023,0,1.414l-9,9C36.512,37.402,36.256,37.5,36,37.5z"/>
<g>
</g>
<g>
</g>
<g>
</g>
<g>
</g>
<g>
</g>
<g>
</g>
<g>
</g>
<g>
</g>
<g>
</g>
<g>
</g>
<g>
</g>
<g>
</g>
<g>
</g>
<g>
</g>
<g>
</g>
</svg>
