<?xml version="1.0" encoding="iso-8859-1"?>
<!-- Generator: Adobe Illustrator 19.0.0, SVG Export Plug-In . SVG Version: 6.00 Build 0)  -->
<svg version="1.1" id="Capa_1" xmlns="http://www.w3.org/2000/svg" xmlns:xlink="http://www.w3.org/1999/xlink" x="0px" y="0px"
	 viewBox="0 0 58 58" style="enable-background:new 0 0 58 58;" xml:space="preserve">
<rect x="0" y="0.5" style="fill:#ECF0F1;" width="58" height="57"/>
<path style="fill:#BDC3C7;" d="M46,47.5H30c-0.553,0-1-0.447-1-1s0.447-1,1-1h16c0.553,0,1,0.447,1,1S46.553,47.5,46,47.5z"/>
<path style="fill:#BDC3C7;" d="M46,40.5H33c-0.553,0-1-0.447-1-1s0.447-1,1-1h13c0.553,0,1,0.447,1,1S46.553,40.5,46,40.5z"/>
<path style="fill:#BDC3C7;" d="M46,33.5H30c-0.553,0-1-0.447-1-1s0.447-1,1-1h16c0.553,0,1,0.447,1,1S46.553,33.5,46,33.5z"/>
<path style="fill:#BDC3C7;" d="M46,26.5H11c-0.553,0-1-0.447-1-1s0.447-1,1-1h35c0.553,0,1,0.447,1,1S46.553,26.5,46,26.5z"/>
<path style="fill:#BDC3C7;" d="M46,19.5H19c-0.553,0-1-0.447-1-1s0.447-1,1-1h27c0.553,0,1,0.447,1,1S46.553,19.5,46,19.5z"/>
<path style="fill:#BDC3C7;" d="M46,12.5H11c-0.553,0-1-0.447-1-1s0.447-1,1-1h35c0.553,0,1,0.447,1,1S46.553,12.5,46,12.5z"/>
<g>
	<rect x="23" y="30.5" style="fill:#BDC3C7;" width="4" height="18"/>
	<path style="fill:#BDC3C7;" d="M28,49.5h-6v-20h6V49.5z M24,47.5h2v-16h-2V47.5z"/>
</g>
<path style="fill:#BDC3C7;" d="M15,45.5c-0.256,0-0.512-0.098-0.707-0.293c-0.391-0.391-0.391-1.023,0-1.414l5-5
	c0.391-0.391,1.023-0.391,1.414,0s0.391,1.023,0,1.414l-5,5C15.512,45.402,15.256,45.5,15,45.5z"/>
<path style="fill:#BDC3C7;" d="M20,40.5c-0.256,0-0.512-0.098-0.707-0.293l-5-5c-0.391-0.391-0.391-1.023,0-1.414
	s1.023-0.391,1.414,0l5,5c0.391,0.391,0.391,1.023,0,1.414C20.512,40.402,20.256,40.5,20,40.5z"/>
<path style="fill:#BDC3C7;" d="M20,40.5H10c-0.553,0-1-0.447-1-1s0.447-1,1-1h10c0.553,0,1,0.447,1,1S20.553,40.5,20,40.5z"/>
<g>
</g>
<g>
</g>
<g>
</g>
<g>
</g>
<g>
</g>
<g>
</g>
<g>
</g>
<g>
</g>
<g>
</g>
<g>
</g>
<g>
</g>
<g>
</g>
<g>
</g>
<g>
</g>
<g>
</g>
</svg>
