<?xml version="1.0" encoding="iso-8859-1"?>
<!-- Generator: Adobe Illustrator 19.0.0, SVG Export Plug-In . SVG Version: 6.00 Build 0)  -->
<svg version="1.1" id="Capa_1" xmlns="http://www.w3.org/2000/svg" xmlns:xlink="http://www.w3.org/1999/xlink" x="0px" y="0px"
	 viewBox="0 0 58 58" style="enable-background:new 0 0 58 58;" xml:space="preserve">
<rect x="0" y="1" style="fill:#ECF0F1;" width="58" height="56"/>
<g>
	<rect x="40" y="9" style="fill:#BDC3C7;" width="10" height="40"/>
	<path style="fill:#BDC3C7;" d="M51,50H39V8h12V50z M41,48h8V10h-8V48z"/>
</g>
<path style="fill:#BDC3C7;" d="M31,30c-0.256,0-0.512-0.098-0.707-0.293l-8-8c-0.391-0.391-0.391-1.023,0-1.414s1.023-0.391,1.414,0
	l8,8c0.391,0.391,0.391,1.023,0,1.414C31.512,29.902,31.256,30,31,30z"/>
<path style="fill:#BDC3C7;" d="M23,38c-0.256,0-0.512-0.098-0.707-0.293c-0.391-0.391-0.391-1.023,0-1.414l8-8
	c0.391-0.391,1.023-0.391,1.414,0s0.391,1.023,0,1.414l-8,8C23.512,37.902,23.256,38,23,38z"/>
<path style="fill:#BDC3C7;" d="M31,30H11c-0.553,0-1-0.447-1-1s0.447-1,1-1h20c0.553,0,1,0.447,1,1S31.553,30,31,30z"/>
<g>
</g>
<g>
</g>
<g>
</g>
<g>
</g>
<g>
</g>
<g>
</g>
<g>
</g>
<g>
</g>
<g>
</g>
<g>
</g>
<g>
</g>
<g>
</g>
<g>
</g>
<g>
</g>
<g>
</g>
</svg>
