<?xml version="1.0" encoding="iso-8859-1"?>
<!-- Generator: Adobe Illustrator 19.0.0, SVG Export Plug-In . SVG Version: 6.00 Build 0)  -->
<svg version="1.1" id="Capa_1" xmlns="http://www.w3.org/2000/svg" xmlns:xlink="http://www.w3.org/1999/xlink" x="0px" y="0px"
	 viewBox="0 0 58 58" style="enable-background:new 0 0 58 58;" xml:space="preserve">
<rect x="0" y="0.5" style="fill:#ECF0F1;" width="58" height="57"/>
<path style="fill:#BDC3C7;" d="M46,12.5H25c-0.552,0-1-0.447-1-1s0.448-1,1-1h21c0.552,0,1,0.447,1,1S46.552,12.5,46,12.5z"/>
<path style="fill:#BDC3C7;" d="M46,19.5H33c-0.552,0-1-0.447-1-1s0.448-1,1-1h13c0.552,0,1,0.447,1,1S46.552,19.5,46,19.5z"/>
<path style="fill:#BDC3C7;" d="M46,26.5H25c-0.552,0-1-0.447-1-1s0.448-1,1-1h21c0.552,0,1,0.447,1,1S46.552,26.5,46,26.5z"/>
<path style="fill:#BDC3C7;" d="M46,33.5H29c-0.552,0-1-0.447-1-1s0.448-1,1-1h17c0.552,0,1,0.447,1,1S46.552,33.5,46,33.5z"/>
<path style="fill:#BDC3C7;" d="M46,40.5H33c-0.552,0-1-0.447-1-1s0.448-1,1-1h13c0.552,0,1,0.447,1,1S46.552,40.5,46,40.5z"/>
<path style="fill:#BDC3C7;" d="M46,47.5H25c-0.552,0-1-0.447-1-1s0.448-1,1-1h21c0.552,0,1,0.447,1,1S46.552,47.5,46,47.5z"/>
<path style="fill:#BDC3C7;" d="M18,47.5c-0.552,0-1-0.447-1-1v-35c0-0.553,0.448-1,1-1s1,0.447,1,1v35
	C19,47.053,18.552,47.5,18,47.5z"/>
<path style="fill:#BDC3C7;" d="M14.001,30.5c-0.315,0-0.625-0.148-0.82-0.427l-7-10c-0.316-0.452-0.207-1.076,0.246-1.393
	c0.453-0.315,1.076-0.206,1.393,0.246l7,10c0.316,0.452,0.207,1.076-0.246,1.393C14.399,30.441,14.199,30.5,14.001,30.5z"/>
<path style="fill:#BDC3C7;" d="M6.999,40.5c-0.198,0-0.398-0.059-0.572-0.181c-0.453-0.316-0.563-0.94-0.246-1.393l7-10
	c0.317-0.452,0.94-0.562,1.393-0.246c0.453,0.316,0.563,0.94,0.246,1.393l-7,10C7.625,40.352,7.314,40.5,6.999,40.5z"/>
<g>
</g>
<g>
</g>
<g>
</g>
<g>
</g>
<g>
</g>
<g>
</g>
<g>
</g>
<g>
</g>
<g>
</g>
<g>
</g>
<g>
</g>
<g>
</g>
<g>
</g>
<g>
</g>
<g>
</g>
</svg>
