<?xml version="1.0" encoding="iso-8859-1"?>
<!-- Generator: Adobe Illustrator 19.0.0, SVG Export Plug-In . SVG Version: 6.00 Build 0)  -->
<svg version="1.1" id="Capa_1" xmlns="http://www.w3.org/2000/svg" xmlns:xlink="http://www.w3.org/1999/xlink" x="0px" y="0px"
	 viewBox="0 0 57 57" style="enable-background:new 0 0 57 57;" xml:space="preserve">
<rect x="0" y="0" style="fill:#ECF0F1;" width="57" height="57"/>
<path style="fill:#BDC3C7;" d="M38.155,17c-0.553,0-1-0.447-1-1c0-4.963-4.037-9-9-9c-0.553,0-1-0.447-1-1s0.447-1,1-1
	c6.065,0,11,4.935,11,11C39.155,16.553,38.708,17,38.155,17z"/>
<path style="fill:#BDC3C7;" d="M28.155,51c-0.553,0-1-0.447-1-1s0.447-1,1-1l0.219-0.002c5.087-0.082,7.827-3.746,8.626-6.859
	c0.82-3.19,0.168-7.837-4.368-10.429l-9.945-5.684c-4.538-2.593-6.624-7.563-5.313-12.663c1.283-4.996,5.419-8.278,10.534-8.361
	L28.155,5c0.553,0,1,0.447,1,1s-0.447,1-1,1l-0.219,0.002c-5.087,0.082-7.827,3.746-8.626,6.859
	c-0.82,3.19-0.168,7.837,4.368,10.429l9.945,5.684c4.538,2.593,6.624,7.563,5.313,12.663c-1.283,4.996-5.419,8.278-10.534,8.361
	L28.155,51z"/>
<path style="fill:#BDC3C7;" d="M28.155,51c-6.065,0-11-4.935-11-11c0-0.553,0.447-1,1-1s1,0.447,1,1c0,4.963,4.037,9,9,9
	c0.553,0,1,0.447,1,1S28.708,51,28.155,51z"/>
<g>
</g>
<g>
</g>
<g>
</g>
<g>
</g>
<g>
</g>
<g>
</g>
<g>
</g>
<g>
</g>
<g>
</g>
<g>
</g>
<g>
</g>
<g>
</g>
<g>
</g>
<g>
</g>
<g>
</g>
</svg>
