<?xml version="1.0" encoding="iso-8859-1"?>
<!-- Generator: Adobe Illustrator 19.0.0, SVG Export Plug-In . SVG Version: 6.00 Build 0)  -->
<svg version="1.1" id="Capa_1" xmlns="http://www.w3.org/2000/svg" xmlns:xlink="http://www.w3.org/1999/xlink" x="0px" y="0px"
	 viewBox="0 0 58 58" style="enable-background:new 0 0 58 58;" xml:space="preserve">
<rect x="0" y="0.5" style="fill:#ECF0F1;" width="58" height="57"/>
<path style="fill:#BDC3C7;" d="M15,16.5c-0.552,0-1-0.447-1-1v-4c0-0.553,0.448-1,1-1s1,0.447,1,1v4C16,16.053,15.552,16.5,15,16.5z
	"/>
<path style="fill:#BDC3C7;" d="M43,12.5H15c-0.552,0-1-0.447-1-1s0.448-1,1-1h28c0.552,0,1,0.447,1,1S43.552,12.5,43,12.5z"/>
<path style="fill:#BDC3C7;" d="M43,16.5c-0.552,0-1-0.447-1-1v-4c0-0.553,0.448-1,1-1s1,0.447,1,1v4C44,16.053,43.552,16.5,43,16.5z
	"/>
<path style="fill:#BDC3C7;" d="M29,43.5c-0.552,0-1-0.447-1-1v-31c0-0.553,0.448-1,1-1s1,0.447,1,1v31
	C30,43.053,29.552,43.5,29,43.5z"/>
<path style="fill:#BDC3C7;" d="M35,43.5H23c-0.552,0-1-0.447-1-1s0.448-1,1-1h12c0.552,0,1,0.447,1,1S35.552,43.5,35,43.5z"/>
<rect x="13" y="46.5" style="fill:#BDC3C7;" width="32" height="4"/>
<g>
</g>
<g>
</g>
<g>
</g>
<g>
</g>
<g>
</g>
<g>
</g>
<g>
</g>
<g>
</g>
<g>
</g>
<g>
</g>
<g>
</g>
<g>
</g>
<g>
</g>
<g>
</g>
<g>
</g>
</svg>
