<?xml version="1.0" encoding="iso-8859-1"?>
<!-- Generator: Adobe Illustrator 19.0.0, SVG Export Plug-In . SVG Version: 6.00 Build 0)  -->
<svg version="1.1" id="Layer_1" xmlns="http://www.w3.org/2000/svg" xmlns:xlink="http://www.w3.org/1999/xlink" x="0px" y="0px"
	 viewBox="0 0 512 512" style="enable-background:new 0 0 512 512;" xml:space="preserve">
<rect x="187.915" y="8.17" style="fill:#A3E1FF;" width="136.17" height="136.17"/>
<rect x="187.915" y="187.915" style="fill:#FFA72E;" width="136.17" height="136.17"/>
<rect x="8.17" y="8.17" style="fill:#FF615C;" width="136.17" height="136.17"/>
<rect x="8.17" y="187.915" style="fill:#FFD47D;" width="136.17" height="136.17"/>
<rect x="8.17" y="367.66" style="fill:#BEC3CC;" width="136.17" height="136.17"/>
<rect x="187.915" y="367.66" style="fill:#FFD47D;" width="136.17" height="136.17"/>
<rect x="367.66" y="367.66" style="fill:#A3E1FF;" width="136.17" height="136.17"/>
<rect x="367.66" y="187.915" style="fill:#FF615C;" width="136.17" height="136.17"/>
<rect x="367.66" y="8.17" style="fill:#BEC3CC;" width="136.17" height="136.17"/>
<g>
	<path style="fill:#080342;" d="M324.085,0h-136.17c-4.513,0-8.17,3.658-8.17,8.17v136.17c0,4.512,3.657,8.17,8.17,8.17h136.17
		c4.513,0,8.17-3.658,8.17-8.17V8.17C332.255,3.658,328.598,0,324.085,0z M315.915,136.17h-119.83V16.34h119.83V136.17z"/>
	<path style="fill:#080342;" d="M324.085,179.745h-136.17c-4.513,0-8.17,3.658-8.17,8.17v136.17c0,4.512,3.657,8.17,8.17,8.17
		h136.17c4.513,0,8.17-3.658,8.17-8.17v-136.17C332.255,183.403,328.598,179.745,324.085,179.745z M315.915,315.915h-119.83v-119.83
		h119.83V315.915z"/>
	<path style="fill:#080342;" d="M144.34,0H8.17C3.657,0,0,3.658,0,8.17v136.17c0,4.512,3.657,8.17,8.17,8.17h136.17
		c4.513,0,8.17-3.658,8.17-8.17V8.17C152.511,3.658,148.854,0,144.34,0z M136.17,136.17H16.34V16.34h119.83V136.17z"/>
	<path style="fill:#080342;" d="M144.34,179.745H8.17c-4.513,0-8.17,3.658-8.17,8.17v136.17c0,4.512,3.657,8.17,8.17,8.17h136.17
		c4.513,0,8.17-3.658,8.17-8.17v-136.17C152.511,183.403,148.854,179.745,144.34,179.745z M136.17,315.915H16.34v-119.83h119.83
		V315.915z"/>
	<path style="fill:#080342;" d="M144.34,359.489H8.17c-4.513,0-8.17,3.658-8.17,8.17v136.17c0,4.512,3.657,8.17,8.17,8.17h136.17
		c4.513,0,8.17-3.658,8.17-8.17v-51.745c0-4.512-3.657-8.17-8.17-8.17s-8.17,3.658-8.17,8.17v43.574H16.34V375.83h119.83v43.574
		c0,4.512,3.657,8.17,8.17,8.17s8.17-3.658,8.17-8.17V367.66C152.511,363.147,148.854,359.489,144.34,359.489z"/>
	<path style="fill:#080342;" d="M324.085,359.489h-136.17c-4.513,0-8.17,3.658-8.17,8.17v136.17c0,4.512,3.657,8.17,8.17,8.17
		h136.17c4.513,0,8.17-3.658,8.17-8.17V367.66C332.255,363.147,328.598,359.489,324.085,359.489z M315.915,495.66h-119.83V375.83
		h119.83V495.66z"/>
	<path style="fill:#080342;" d="M503.83,359.489H367.66c-4.513,0-8.17,3.658-8.17,8.17v136.17c0,4.512,3.657,8.17,8.17,8.17h136.17
		c4.513,0,8.17-3.658,8.17-8.17V367.66C512,363.147,508.343,359.489,503.83,359.489z M495.66,495.66H375.83V375.83h119.83V495.66z"
		/>
	<path style="fill:#080342;" d="M503.83,179.745H367.66c-4.513,0-8.17,3.658-8.17,8.17v136.17c0,4.512,3.657,8.17,8.17,8.17h136.17
		c4.513,0,8.17-3.658,8.17-8.17V272.34c0-4.512-3.657-8.17-8.17-8.17s-8.17,3.658-8.17,8.17v43.574H375.83v-119.83h119.83v43.574
		c0,4.512,3.657,8.17,8.17,8.17s8.17-3.658,8.17-8.17v-51.745C512,183.403,508.343,179.745,503.83,179.745z"/>
	<path style="fill:#080342;" d="M503.83,0H367.66c-4.513,0-8.17,3.658-8.17,8.17v136.17c0,4.512,3.657,8.17,8.17,8.17h136.17
		c4.513,0,8.17-3.658,8.17-8.17V8.17C512,3.658,508.343,0,503.83,0z M495.66,136.17H375.83V16.34h119.83V136.17z"/>
</g>
<g>
</g>
<g>
</g>
<g>
</g>
<g>
</g>
<g>
</g>
<g>
</g>
<g>
</g>
<g>
</g>
<g>
</g>
<g>
</g>
<g>
</g>
<g>
</g>
<g>
</g>
<g>
</g>
<g>
</g>
</svg>
