<?xml version="1.0" encoding="iso-8859-1"?>
<!-- Generator: Adobe Illustrator 19.0.0, SVG Export Plug-In . SVG Version: 6.00 Build 0)  -->
<svg version="1.1" id="Layer_1" xmlns="http://www.w3.org/2000/svg" xmlns:xlink="http://www.w3.org/1999/xlink" x="0px" y="0px"
	 viewBox="0 0 512 512" style="enable-background:new 0 0 512 512;" xml:space="preserve">
<rect x="198.809" y="132.085" style="fill:#FF615C;" width="114.383" height="371.745"/>
<rect x="40.851" y="256" style="fill:#FFD47D;" width="114.383" height="247.83"/>
<rect x="356.766" y="8.17" style="fill:#BEC3CC;" width="114.383" height="495.66"/>
<path style="fill:#080342;" d="M503.83,495.66h-24.511V8.17c0-4.512-3.657-8.17-8.17-8.17H356.766c-4.513,0-8.17,3.658-8.17,8.17
	V495.66h-27.234V334.298c0-4.512-3.657-8.17-8.17-8.17c-4.513,0-8.17,3.658-8.17,8.17V495.66h-98.043V140.255h98.043v161.362
	c0,4.512,3.657,8.17,8.17,8.17c4.513,0,8.17-3.658,8.17-8.17V132.085c0-4.512-3.657-8.17-8.17-8.17H198.809
	c-4.513,0-8.17,3.658-8.17,8.17V495.66h-27.234V256c0-4.512-3.657-8.17-8.17-8.17H40.851c-4.513,0-8.17,3.658-8.17,8.17v239.66H8.17
	c-4.513,0-8.17,3.658-8.17,8.17S3.657,512,8.17,512h495.66c4.513,0,8.17-3.658,8.17-8.17S508.343,495.66,503.83,495.66z
	 M364.936,16.34h98.043V495.66h-98.043V16.34z M49.021,264.17h98.043V495.66H49.021V264.17z"/>
<g>
</g>
<g>
</g>
<g>
</g>
<g>
</g>
<g>
</g>
<g>
</g>
<g>
</g>
<g>
</g>
<g>
</g>
<g>
</g>
<g>
</g>
<g>
</g>
<g>
</g>
<g>
</g>
<g>
</g>
</svg>
