<?xml version="1.0" encoding="iso-8859-1"?>
<!-- Generator: Adobe Illustrator 19.0.0, SVG Export Plug-In . SVG Version: 6.00 Build 0)  -->
<svg version="1.1" id="Layer_1" xmlns="http://www.w3.org/2000/svg" xmlns:xlink="http://www.w3.org/1999/xlink" x="0px" y="0px"
	 viewBox="0 0 512 512" style="enable-background:new 0 0 512 512;" xml:space="preserve">
<path style="fill:#EDEDEF;" d="M256,8.17C119.127,8.17,8.17,99.619,8.17,212.426c0,100.657,88.344,184.301,204.613,201.154
	c2.536,31.81-7.405,64.56-30.334,90.25c56.236,0,103.499-38.338,117.126-90.298C415.667,396.559,503.83,312.979,503.83,212.426
	C503.83,99.619,392.873,8.17,256,8.17z"/>
<g>
	<circle style="fill:#A7AFBA;" cx="256" cy="212.426" r="16.34"/>
	<circle style="fill:#A7AFBA;" cx="179.745" cy="212.426" r="16.34"/>
	<circle style="fill:#A7AFBA;" cx="332.255" cy="212.426" r="16.34"/>
</g>
<path style="fill:#080342;" d="M182.447,512c-3.22,0-6.141-1.891-7.457-4.831c-1.316-2.939-0.783-6.377,1.361-8.78
	c19.29-21.614,29.329-49.016,28.62-77.762c-55.766-9.366-106.615-34.198-143.791-70.34C21.727,311.933,0,262.972,0,212.426
	C0,155.382,26.835,101.85,75.561,61.691C123.83,21.908,187.911,0,256,0s132.17,21.908,180.439,61.691
	C485.165,101.85,512,155.382,512,212.426c0,48.995-20.556,96.791-57.883,134.585c-3.171,3.21-8.345,3.242-11.554,0.072
	c-3.21-3.171-3.243-8.345-0.071-11.554c34.285-34.716,53.167-78.435,53.167-123.103C495.66,104.304,388.149,16.34,256,16.34
	S16.34,104.304,16.34,212.426c0,95.274,83.108,176.471,197.615,193.069c3.775,0.547,6.669,3.634,6.972,7.436
	c2.326,29.176-5.005,57.455-20.817,81.346c43.694-6.901,80.076-39.027,91.561-82.818c0.832-3.171,3.477-5.537,6.721-6.011
	c44.981-6.576,86.591-23.561,120.332-49.119c3.598-2.724,8.72-2.016,11.446,1.58c2.724,3.597,2.017,8.721-1.58,11.446
	c-34.61,26.217-76.899,43.949-122.592,51.449C289.416,474.766,239.368,512,182.447,512z"/>
<g>
</g>
<g>
</g>
<g>
</g>
<g>
</g>
<g>
</g>
<g>
</g>
<g>
</g>
<g>
</g>
<g>
</g>
<g>
</g>
<g>
</g>
<g>
</g>
<g>
</g>
<g>
</g>
<g>
</g>
</svg>
