<?xml version="1.0" encoding="iso-8859-1"?>
<!-- Generator: Adobe Illustrator 19.0.0, SVG Export Plug-In . SVG Version: 6.00 Build 0)  -->
<svg version="1.1" id="Layer_1" xmlns="http://www.w3.org/2000/svg" xmlns:xlink="http://www.w3.org/1999/xlink" x="0px" y="0px"
	 viewBox="0 0 512 512" style="enable-background:new 0 0 512 512;" xml:space="preserve">
<path style="fill:#EDEDEF;" d="M405.787,220.596c-3.891,0-7.727,0.234-11.499,0.674C387.759,150.631,328.343,95.319,256,95.319
	S124.241,150.631,117.712,221.27c-3.772-0.441-7.608-0.674-11.499-0.674c-54.148,0-98.043,43.895-98.043,98.043
	s43.895,98.043,98.043,98.043h299.574c54.148,0,98.043-43.895,98.043-98.043S459.935,220.596,405.787,220.596z"/>
<g>
	<circle style="fill:#A7AFBA;" cx="410.689" cy="356.221" r="8.17"/>
	<circle style="fill:#A7AFBA;" cx="443.37" cy="323.54" r="8.17"/>
</g>
<path style="fill:#080342;" d="M405.787,212.426c-1.434,0-2.878,0.029-4.325,0.089c-4.923-33.253-21.111-63.805-46.117-86.732
	C328.173,100.869,292.891,87.149,256,87.149s-72.173,13.721-99.345,38.634c-25.006,22.927-41.194,53.479-46.117,86.732
	c-1.447-0.06-2.89-0.089-4.325-0.089C47.646,212.426,0,260.072,0,318.638s47.646,106.213,106.213,106.213
	c4.513,0,8.17-3.658,8.17-8.17c0-4.512-3.657-8.17-8.17-8.17c-49.555,0-89.872-40.316-89.872-89.872s40.317-89.872,89.872-89.872
	c3.482,0,7.032,0.208,10.552,0.619c2.194,0.257,4.384-0.382,6.093-1.768c1.71-1.386,2.789-3.403,2.99-5.595
	c6.245-67.574,62.199-118.532,130.153-118.532s123.907,50.958,130.154,118.533c0.203,2.192,1.28,4.208,2.99,5.595
	c1.708,1.386,3.899,2.025,6.093,1.768c3.519-0.411,7.069-0.619,10.552-0.619c49.555,0,89.872,40.316,89.872,89.872
	s-40.318,89.871-89.873,89.871H138.894c-4.513,0-8.17,3.658-8.17,8.17c0,4.512,3.657,8.17,8.17,8.17h266.894
	c58.566,0,106.213-47.647,106.213-106.213S464.353,212.426,405.787,212.426z"/>
<g>
</g>
<g>
</g>
<g>
</g>
<g>
</g>
<g>
</g>
<g>
</g>
<g>
</g>
<g>
</g>
<g>
</g>
<g>
</g>
<g>
</g>
<g>
</g>
<g>
</g>
<g>
</g>
<g>
</g>
</svg>
