<?xml version="1.0" encoding="iso-8859-1"?>
<!-- Generator: Adobe Illustrator 19.0.0, SVG Export Plug-In . SVG Version: 6.00 Build 0)  -->
<svg version="1.1" id="Layer_1" xmlns="http://www.w3.org/2000/svg" xmlns:xlink="http://www.w3.org/1999/xlink" x="0px" y="0px"
	 viewBox="0 0 512 512" style="enable-background:new 0 0 512 512;" xml:space="preserve">
<circle style="fill:#A3E1FF;" cx="256" cy="256" r="247.83"/>
<circle style="fill:#FFFFFF;" cx="256" cy="256" r="204.255"/>
<polygon style="fill:#BEC3CC;" points="225.188,225.188 240.594,271.406 286.811,286.811 377.321,134.679 "/>
<polygon style="fill:#FF615C;" points="134.679,377.321 286.811,286.811 225.188,225.188 "/>
<g>
	<path style="fill:#080342;" d="M437.019,74.981C388.668,26.628,324.38,0,256,0S123.332,26.628,74.981,74.981
		C26.628,123.332,0,187.62,0,256s26.628,132.668,74.981,181.019C123.332,485.372,187.62,512,256,512s132.668-26.628,181.019-74.981
		C485.372,388.668,512,324.38,512,256S485.372,123.332,437.019,74.981z M256,495.66c-132.149,0-239.66-107.51-239.66-239.66
		S123.851,16.34,256,16.34S495.66,123.851,495.66,256S388.149,495.66,256,495.66z"/>
	<path style="fill:#080342;" d="M264.17,100.766v-16.34c0-4.512-3.658-8.17-8.17-8.17s-8.17,3.658-8.17,8.17v16.34
		c0,4.512,3.658,8.17,8.17,8.17S264.17,105.278,264.17,100.766z"/>
	<path style="fill:#080342;" d="M291.088,293.765c0.203-0.125,0.4-0.26,0.594-0.405c0.066-0.049,0.135-0.096,0.2-0.147
		c0.237-0.188,0.468-0.389,0.688-0.608c0.253-0.254,0.453-0.486,0.643-0.723c0.051-0.064,0.097-0.133,0.146-0.198
		c0.145-0.194,0.281-0.392,0.406-0.596c0.021-0.034,0.047-0.064,0.068-0.098l90.51-152.133c1.911-3.211,1.399-7.311-1.244-9.955
		c-2.643-2.644-6.742-3.155-9.955-1.244l-152.133,90.51c-0.035,0.021-0.065,0.047-0.1,0.069c-0.203,0.124-0.399,0.26-0.593,0.404
		c-0.066,0.049-0.136,0.096-0.2,0.147c-0.237,0.188-0.468,0.389-0.688,0.608c-0.253,0.254-0.453,0.486-0.643,0.723
		c-0.051,0.064-0.097,0.132-0.146,0.198c-0.145,0.195-0.281,0.393-0.407,0.597c-0.021,0.034-0.047,0.064-0.068,0.098l-90.51,152.133
		c-1.911,3.211-1.399,7.311,1.244,9.955c1.575,1.575,3.667,2.393,5.78,2.393c1.433,0,2.877-0.377,4.174-1.149l152.133-90.51
		C291.024,293.812,291.055,293.786,291.088,293.765z M285.161,273.606l-46.767-46.767l115.458-68.691L285.161,273.606z
		 M226.839,238.394l46.767,46.767l-115.458,68.691L226.839,238.394z"/>
	<path style="fill:#080342;" d="M247.83,411.234v16.34c0,4.512,3.658,8.17,8.17,8.17s8.17-3.658,8.17-8.17v-16.34
		c0-4.512-3.658-8.17-8.17-8.17S247.83,406.722,247.83,411.234z"/>
	<path style="fill:#080342;" d="M411.234,264.17h16.34c4.512,0,8.17-3.658,8.17-8.17s-3.658-8.17-8.17-8.17h-16.34
		c-4.512,0-8.17,3.658-8.17,8.17S406.722,264.17,411.234,264.17z"/>
	<path style="fill:#080342;" d="M84.426,247.83c-4.512,0-8.17,3.658-8.17,8.17s3.658,8.17,8.17,8.17h16.34
		c4.512,0,8.17-3.658,8.17-8.17s-3.658-8.17-8.17-8.17H84.426z"/>
	<path style="fill:#080342;" d="M256,43.574C138.869,43.574,43.574,138.869,43.574,256S138.869,468.426,256,468.426
		c50.444,0,99.349-18.003,137.706-50.692c3.434-2.927,3.845-8.083,0.919-11.518c-2.928-3.435-8.085-3.845-11.518-0.919
		c-35.404,30.173-80.545,46.789-127.108,46.789c-108.121,0-196.085-87.964-196.085-196.085S147.879,59.915,256,59.915
		S452.085,147.879,452.085,256c0,46.563-16.616,91.704-46.788,127.107c-2.927,3.435-2.515,8.591,0.919,11.518
		c3.434,2.926,8.591,2.515,11.518-0.919c32.689-38.356,50.691-87.261,50.691-137.705C468.426,138.869,373.131,43.574,256,43.574z"/>
</g>
<g>
</g>
<g>
</g>
<g>
</g>
<g>
</g>
<g>
</g>
<g>
</g>
<g>
</g>
<g>
</g>
<g>
</g>
<g>
</g>
<g>
</g>
<g>
</g>
<g>
</g>
<g>
</g>
<g>
</g>
</svg>
