<?xml version="1.0" encoding="iso-8859-1"?>
<!-- Generator: Adobe Illustrator 19.0.0, SVG Export Plug-In . SVG Version: 6.00 Build 0)  -->
<svg version="1.1" id="Layer_1" xmlns="http://www.w3.org/2000/svg" xmlns:xlink="http://www.w3.org/1999/xlink" x="0px" y="0px"
	 viewBox="0 0 512 512" style="enable-background:new 0 0 512 512;" xml:space="preserve">
<rect x="62.649" y="362.213" style="fill:#D8DBE2;" width="386.712" height="141.617"/>
<circle style="fill:#FFFFFF;" cx="400.329" cy="416.681" r="16.34"/>
<polygon style="fill:#FF8B00;" points="383.992,135.626 383.992,8.17 128.006,8.17 128.006,135.626 62.645,135.626 255.999,328.98 
	449.354,135.626 "/>
<circle style="fill:#FFA72E;" cx="400.329" cy="416.681" r="16.34"/>
<g>
	<path style="fill:#080342;" d="M400.333,441.191c13.515,0,24.511-10.995,24.511-24.511c0-13.516-10.995-24.511-24.511-24.511
		s-24.511,10.995-24.511,24.511C375.822,430.197,386.818,441.191,400.333,441.191z M400.333,408.511c4.506,0,8.17,3.665,8.17,8.17
		s-3.665,8.17-8.17,8.17s-8.17-3.665-8.17-8.17S395.828,408.511,400.333,408.511z"/>
	<path style="fill:#080342;" d="M449.354,354.043H62.645c-4.513,0-8.17,3.658-8.17,8.17V503.83c0,4.512,3.657,8.17,8.17,8.17
		h386.709c4.513,0,8.17-3.658,8.17-8.17V362.213C457.524,357.7,453.867,354.043,449.354,354.043z M441.184,495.66H70.815V370.383
		h370.369L441.184,495.66L441.184,495.66z"/>
	<path style="fill:#080342;" d="M95.325,479.319h321.348c4.513,0,8.17-3.658,8.17-8.17c0-4.512-3.657-8.17-8.17-8.17H95.325
		c-4.513,0-8.17,3.658-8.17,8.17C87.155,475.661,90.813,479.319,95.325,479.319z"/>
	<path style="fill:#080342;" d="M250.222,334.756c1.533,1.533,3.61,2.393,5.778,2.393s4.244-0.861,5.778-2.393l193.355-193.355
		c2.337-2.337,3.035-5.851,1.77-8.903c-1.264-3.053-4.244-5.044-7.548-5.044h-57.191V8.17c0-4.512-3.657-8.17-8.17-8.17H128.006
		c-4.513,0-8.17,3.658-8.17,8.17v47.387c0,4.512,3.657,8.17,8.17,8.17c4.513,0,8.17-3.658,8.17-8.17V16.34h239.645v119.285
		c0,4.512,3.657,8.17,8.17,8.17h45.638l-173.631,173.63L82.37,143.796h45.638c4.513,0,8.17-3.658,8.17-8.17V88.238
		c0-4.512-3.657-8.17-8.17-8.17c-4.513,0-8.17,3.658-8.17,8.17v39.217H62.646c-3.304,0-6.285,1.99-7.548,5.044
		c-1.265,3.053-0.566,6.567,1.77,8.903L250.222,334.756z"/>
</g>
<g>
</g>
<g>
</g>
<g>
</g>
<g>
</g>
<g>
</g>
<g>
</g>
<g>
</g>
<g>
</g>
<g>
</g>
<g>
</g>
<g>
</g>
<g>
</g>
<g>
</g>
<g>
</g>
<g>
</g>
</svg>
