<?xml version="1.0" encoding="iso-8859-1"?>
<!-- Generator: Adobe Illustrator 19.0.0, SVG Export Plug-In . SVG Version: 6.00 Build 0)  -->
<svg version="1.1" id="Layer_1" xmlns="http://www.w3.org/2000/svg" xmlns:xlink="http://www.w3.org/1999/xlink" x="0px" y="0px"
	 viewBox="0 0 512 512" style="enable-background:new 0 0 512 512;" xml:space="preserve">
<path style="fill:#FF615C;" d="M111.114,40.851L78.433,155.234l32.681,114.383c153.946-60.379,179.398,60.379,333.345,0V40.851
	C290.512,101.23,265.06-19.528,111.114,40.851z"/>
<rect x="67.539" y="8.17" style="fill:#D8DBE2;" width="43.574" height="495.66"/>
<g>
	<circle style="fill:#080342;" cx="395.437" cy="220.596" r="8.17"/>
	<circle style="fill:#080342;" cx="362.756" cy="187.915" r="8.17"/>
	<path style="fill:#080342;" d="M111.114,0H67.539c-4.513,0-8.17,3.658-8.17,8.17v495.66c0,4.512,3.657,8.17,8.17,8.17
		c4.513,0,8.17-3.658,8.17-8.17V16.34h27.234V503.83c0,4.512,3.657,8.17,8.17,8.17s8.17-3.658,8.17-8.17V8.17
		C119.284,3.658,115.627,0,111.114,0z"/>
	<path style="fill:#080342;" d="M449.062,34.101c-2.232-1.522-5.072-1.843-7.586-0.856c-74.206,29.102-116.408,14.9-161.086-0.134
		c-38.593-12.987-78.498-26.417-138.64-10.873c-4.368,1.129-6.995,5.585-5.866,9.955c1.129,4.368,5.582,6.995,9.956,5.865
		c55.44-14.329,91.335-2.25,129.339,10.54c43.325,14.579,88.056,29.63,161.111,4.006v211.392
		c-71.002,26.449-112.272,12.564-155.899-2.118c-38.593-12.987-78.498-26.417-138.64-10.873c-4.368,1.129-6.995,5.585-5.866,9.955
		c1.129,4.368,5.582,6.996,9.956,5.865c55.44-14.328,91.335-2.248,129.339,10.54c26.292,8.848,53.094,17.869,86.438,17.868
		c24.344,0,52.176-4.811,85.826-18.009c3.129-1.227,5.188-4.244,5.188-7.606V40.85C452.629,38.151,451.293,35.623,449.062,34.101z"
		/>
</g>
<g>
</g>
<g>
</g>
<g>
</g>
<g>
</g>
<g>
</g>
<g>
</g>
<g>
</g>
<g>
</g>
<g>
</g>
<g>
</g>
<g>
</g>
<g>
</g>
<g>
</g>
<g>
</g>
<g>
</g>
</svg>
