<?xml version="1.0" encoding="iso-8859-1"?>
<!-- Generator: Adobe Illustrator 19.0.0, SVG Export Plug-In . SVG Version: 6.00 Build 0)  -->
<svg version="1.1" id="Layer_1" xmlns="http://www.w3.org/2000/svg" xmlns:xlink="http://www.w3.org/1999/xlink" x="0px" y="0px"
	 viewBox="0 0 512 512" style="enable-background:new 0 0 512 512;" xml:space="preserve">
<path style="fill:#BEC3CC;" d="M430.298,106.213v364.936c0,17.974-14.706,32.681-32.681,32.681h-54.468l-32.681-397.617H430.298z"/>
<polygon style="fill:#D8DBE2;" points="343.149,106.213 343.149,503.83 256,503.83 223.319,106.213 "/>
<polygon style="fill:#BEC3CC;" points="256,106.213 256,503.83 168.851,503.83 136.17,106.213 "/>
<path style="fill:#D8DBE2;" d="M168.851,106.213V503.83h-54.468c-17.974,0-32.681-14.706-32.681-32.681V106.213H168.851z"/>
<path style="fill:#EDEDEF;" d="M408.511,62.638H103.489c-17.974,0-32.681,14.706-32.681,32.681V128h370.383V95.319
	C441.191,77.345,426.485,62.638,408.511,62.638z"/>
<g>
	<path style="fill:#080342;" d="M430.298,152.511c-4.513,0-8.17,3.658-8.17,8.17v310.468c0,13.516-10.996,24.511-24.511,24.511
		H114.383c-13.516,0-24.511-10.995-24.511-24.511V160.681c0-4.512-3.658-8.17-8.17-8.17c-4.512,0-8.17,3.658-8.17,8.17v310.468
		c0,22.526,18.325,40.851,40.851,40.851h283.234c22.526,0,40.851-18.325,40.851-40.851V160.681
		C438.468,156.169,434.811,152.511,430.298,152.511z"/>
	<path style="fill:#080342;" d="M168.851,291.404c4.512,0,8.17-3.658,8.17-8.17V160.681c0-4.512-3.658-8.17-8.17-8.17
		s-8.17,3.658-8.17,8.17v122.553C160.681,287.746,164.339,291.404,168.851,291.404z"/>
	<path style="fill:#080342;" d="M160.681,438.468c0,4.512,3.658,8.17,8.17,8.17s8.17-3.658,8.17-8.17V315.915
		c0-4.512-3.658-8.17-8.17-8.17s-8.17,3.658-8.17,8.17V438.468z"/>
	<path style="fill:#080342;" d="M264.17,438.468V160.681c0-4.512-3.657-8.17-8.17-8.17c-4.512,0-8.17,3.658-8.17,8.17v277.787
		c0,4.512,3.658,8.17,8.17,8.17C260.513,446.638,264.17,442.98,264.17,438.468z"/>
	<path style="fill:#080342;" d="M351.319,438.468V160.681c0-4.512-3.657-8.17-8.17-8.17s-8.17,3.658-8.17,8.17v277.787
		c0,4.512,3.657,8.17,8.17,8.17S351.319,442.98,351.319,438.468z"/>
	<path style="fill:#080342;" d="M462.979,119.83h-13.617V95.319c0-22.526-18.325-40.851-40.851-40.851h-89.872V40.851
		C318.638,18.325,300.313,0,277.787,0h-43.574c-22.526,0-40.851,18.325-40.851,40.851v13.617h-89.872
		c-22.526,0-40.851,18.325-40.851,40.851v24.511H49.021c-4.512,0-8.17,3.658-8.17,8.17c0,4.512,3.658,8.17,8.17,8.17h413.957
		c4.513,0,8.17-3.658,8.17-8.17C471.149,123.488,467.492,119.83,462.979,119.83z M209.702,40.851
		c0-13.516,10.995-24.511,24.511-24.511h43.574c13.515,0,24.511,10.995,24.511,24.511v13.617h-92.596V40.851z M78.979,95.319
		c0-13.516,10.995-24.511,24.511-24.511h305.021c13.515,0,24.511,10.995,24.511,24.511v24.511H78.979V95.319z"/>
</g>
<g>
</g>
<g>
</g>
<g>
</g>
<g>
</g>
<g>
</g>
<g>
</g>
<g>
</g>
<g>
</g>
<g>
</g>
<g>
</g>
<g>
</g>
<g>
</g>
<g>
</g>
<g>
</g>
<g>
</g>
</svg>
