<?xml version="1.0" encoding="iso-8859-1"?>
<!-- Generator: Adobe Illustrator 19.0.0, SVG Export Plug-In . SVG Version: 6.00 Build 0)  -->
<svg version="1.1" id="Layer_1" xmlns="http://www.w3.org/2000/svg" xmlns:xlink="http://www.w3.org/1999/xlink" x="0px" y="0px"
	 viewBox="0 0 512 512" style="enable-background:new 0 0 512 512;" xml:space="preserve">
<path style="fill:#FFA72E;" d="M503.83,231.522c0-21.482-17.408-38.901-38.901-38.901h-92.182l-32.681,155.608l32.681,155.601
	h44.381c21.493,0,38.901-17.419,38.901-38.901c0-21.493-17.408-38.901-38.901-38.901h15.937c21.482,0,38.901-17.419,38.901-38.901
	s-17.419-38.901-38.901-38.901h15.937c21.482,0,38.901-17.419,38.901-38.901c0-21.482-17.419-38.901-38.901-38.901h15.926
	C486.422,270.423,503.83,253.004,503.83,231.522z"/>
<path style="fill:#FFD47D;" d="M330.055,192.621c26.33-40.437,39.38-92.432,39.38-145.561c0-21.482-17.419-38.89-38.901-38.89
	c-21.482,0-38.901,17.408-38.901,38.89c0,80.393-65.162,145.557-145.555,145.561h-32.686L91.604,348.225l21.787,155.604h259.355
	V192.621H330.055z"/>
<polygon style="fill:#FFFFFF;" points="113.392,192.621 113.392,503.83 80.711,503.83 48.03,348.225 80.711,192.621 "/>
<rect x="8.17" y="192.621" style="fill:#4AAEE2;" width="72.541" height="311.209"/>
<g>
	<path style="fill:#080342;" d="M512,231.527c0-25.955-21.116-47.07-47.07-47.07l-120.438,0.002
		c21.426-38.494,33.111-86.66,33.111-137.387C377.602,21.116,356.486,0,330.531,0c-25.955,0-47.07,21.116-47.07,47.07
		c0,75.755-61.632,137.386-137.386,137.386c-4.512,0-8.17,3.658-8.17,8.17s3.658,8.17,8.17,8.17
		c84.765,0,153.726-68.962,153.726-153.726c0-16.945,13.785-30.73,30.73-30.73c16.945,0,30.73,13.786,30.73,30.73
		c0,51.578-12.654,100.16-35.705,137.388h-28.19c-4.512,0-8.17,3.658-8.17,8.17c0,4.512,3.658,8.17,8.17,8.17h32.651
		c0.048,0,134.912-0.002,134.912-0.002c16.945,0,30.73,13.786,30.73,30.73s-13.786,30.73-30.73,30.73h-59.507
		c-4.512,0-8.17,3.658-8.17,8.17c0,4.512,3.658,8.17,8.17,8.17h43.574c16.945,0,30.73,13.785,30.73,30.73s-13.786,30.73-30.73,30.73
		h-43.574c-4.512,0-8.17,3.658-8.17,8.17c0,4.512,3.658,8.17,8.17,8.17h27.641c16.945,0,30.73,13.786,30.73,30.73
		c0,16.944-13.786,30.73-30.73,30.73h-27.641c-4.512,0-8.17,3.658-8.17,8.17c0,4.512,3.658,8.17,8.17,8.17h11.708
		c16.945,0,30.73,13.785,30.73,30.73s-13.785,30.733-30.73,30.733H121.564V192.627c0-4.512-3.658-8.17-8.17-8.17H8.17
		c-4.512,0-8.17,3.658-8.17,8.17V503.83c0,4.512,3.658,8.17,8.17,8.17H417.13c25.955,0,47.07-21.116,47.07-47.07
		c0-13.265-5.524-25.258-14.384-33.823c17.704-6.768,30.317-23.923,30.317-43.979c0-13.265-5.524-25.258-14.384-33.822
		c17.705-6.768,30.317-23.923,30.317-43.979c0-13.265-5.524-25.258-14.384-33.823C499.388,268.737,512,251.582,512,231.527z
		 M105.224,495.66h-16.34V200.798h16.34V495.66z M16.34,200.798h56.202V495.66H16.34V200.798z"/>
	<path style="fill:#080342;" d="M380.912,471.149V225.307c0-4.512-3.658-8.17-8.17-8.17c-4.512,0-8.17,3.658-8.17,8.17v245.842
		c0,4.512,3.658,8.17,8.17,8.17C377.254,479.319,380.912,475.661,380.912,471.149z"/>
</g>
<g>
</g>
<g>
</g>
<g>
</g>
<g>
</g>
<g>
</g>
<g>
</g>
<g>
</g>
<g>
</g>
<g>
</g>
<g>
</g>
<g>
</g>
<g>
</g>
<g>
</g>
<g>
</g>
<g>
</g>
</svg>
