<?xml version="1.0" encoding="iso-8859-1"?>
<!-- Generator: Adobe Illustrator 19.0.0, SVG Export Plug-In . SVG Version: 6.00 Build 0)  -->
<svg version="1.1" id="Layer_1" xmlns="http://www.w3.org/2000/svg" xmlns:xlink="http://www.w3.org/1999/xlink" x="0px" y="0px"
	 viewBox="0 0 512 512" style="enable-background:new 0 0 512 512;" xml:space="preserve">
<path style="fill:#A3E1FF;" d="M424.851,73.532H87.149c-17.974,0-32.681,14.706-32.681,32.681v364.936
	c0,17.974,14.706,32.681,32.681,32.681h337.702c17.974,0,32.681-14.706,32.681-32.681V106.213
	C457.532,88.238,442.826,73.532,424.851,73.532z"/>
<rect x="87.149" y="106.213" style="fill:#FFFFFF;" width="337.702" height="364.936"/>
<polygon style="fill:#FFA72E;" points="364.936,280.565 312.331,334.26 323.333,408.63 256,375.187 188.677,408.63 199.669,334.26 
	147.064,280.565 221.184,268.037 256,201.412 290.816,268.037 "/>
<path style="fill:#EDEDEF;" d="M337.702,40.851h-35.481C295.489,21.809,277.341,8.17,256,8.17s-39.489,13.639-46.222,32.681h-35.481
	c-17.974,0-32.681,14.706-32.681,32.681v65.362h228.766V73.532C370.383,55.557,355.677,40.851,337.702,40.851z M256,73.532
	c-9.02,0-16.34-7.321-16.34-16.34s7.321-16.34,16.34-16.34c9.031,0,16.34,7.321,16.34,16.34S265.031,73.532,256,73.532z"/>
<g>
	<path style="fill:#080342;" d="M424.851,65.362h-21.787c-4.512,0-8.17,3.658-8.17,8.17c0,4.512,3.658,8.17,8.17,8.17h21.787
		c13.516,0,24.511,10.995,24.511,24.511v364.936c0,13.516-10.995,24.511-24.511,24.511H87.149
		c-13.516,0-24.511-10.995-24.511-24.511V106.213c0-13.516,10.995-24.511,24.511-24.511h21.787c4.512,0,8.17-3.658,8.17-8.17
		c0-4.512-3.658-8.17-8.17-8.17H87.149c-22.526,0-40.851,18.325-40.851,40.851v364.936c0,22.526,18.325,40.851,40.851,40.851
		h337.702c22.526,0,40.851-18.325,40.851-40.851V106.213C465.702,83.687,447.377,65.362,424.851,65.362z"/>
	<path style="fill:#080342;" d="M141.617,147.064h228.766c4.512,0,8.17-3.658,8.17-8.17V73.532
		c0-22.526-18.325-40.851-40.851-40.851h-30.026C298.297,12.914,278.211,0,256,0s-42.296,12.914-51.676,32.681h-30.026
		c-22.526,0-40.851,18.325-40.851,40.851v65.362C133.447,143.406,137.105,147.064,141.617,147.064z M149.787,73.532
		c0-13.516,10.995-24.511,24.511-24.511h35.482c3.462,0,6.549-2.182,7.703-5.447C223.242,27.285,238.721,16.34,256,16.34
		s32.759,10.945,38.518,27.234c1.155,3.265,4.241,5.447,7.703,5.447h35.482c13.516,0,24.511,10.995,24.511,24.511v57.191H149.787
		V73.532z"/>
	<path style="fill:#080342;" d="M108.936,114.383c4.512,0,8.17-3.658,8.17-8.17c0-4.512-3.658-8.17-8.17-8.17H87.149
		c-4.512,0-8.17,3.658-8.17,8.17v364.936c0,4.512,3.658,8.17,8.17,8.17h337.702c4.512,0,8.17-3.658,8.17-8.17V106.213
		c0-4.512-3.658-8.17-8.17-8.17h-21.787c-4.512,0-8.17,3.658-8.17,8.17c0,4.512,3.658,8.17,8.17,8.17h13.617v348.596H95.319V114.383
		H108.936z"/>
	<path style="fill:#080342;" d="M256,32.681c-13.516,0-24.511,10.995-24.511,24.511S242.485,81.702,256,81.702
		c13.515,0,24.511-10.995,24.511-24.511S269.516,32.681,256,32.681z M256,65.362c-4.506,0-8.17-3.665-8.17-8.17
		s3.665-8.17,8.17-8.17s8.17,3.665,8.17,8.17S260.506,65.362,256,65.362z"/>
	<path style="fill:#080342;" d="M372.707,278.039c-0.94-2.893-3.41-5.024-6.409-5.532l-70.12-11.848l-32.936-63.026
		c-1.409-2.696-4.198-4.386-7.241-4.386c-3.043,0-5.832,1.69-7.241,4.386l-32.936,63.026l-70.12,11.848
		c-2.999,0.507-5.47,2.637-6.409,5.532c-0.94,2.893-0.195,6.069,1.934,8.242l49.764,50.8l-10.4,70.349
		c-0.444,3.009,0.819,6.017,3.28,7.804c2.461,1.789,5.712,2.062,8.436,0.708L256,384.314l63.692,31.63
		c1.15,0.571,2.394,0.853,3.633,0.853c1.696,0,3.381-0.527,4.803-1.561c2.461-1.788,3.725-4.795,3.28-7.804l-10.4-70.349
		l49.764-50.8C372.902,284.108,373.647,280.932,372.707,278.039z M306.496,328.545c-1.789,1.826-2.62,4.384-2.246,6.912
		l8.707,58.896l-53.323-26.481c-1.145-0.569-2.389-0.853-3.634-0.853c-1.245,0-2.489,0.284-3.634,0.853l-53.323,26.481l8.707-58.896
		c0.374-2.528-0.458-5.086-2.246-6.912l-41.663-42.531l58.705-9.92c2.52-0.426,4.696-2.007,5.879-4.271L256,219.058l27.575,52.767
		c1.183,2.266,3.36,3.847,5.879,4.271l58.705,9.92L306.496,328.545z"/>
</g>
<g>
</g>
<g>
</g>
<g>
</g>
<g>
</g>
<g>
</g>
<g>
</g>
<g>
</g>
<g>
</g>
<g>
</g>
<g>
</g>
<g>
</g>
<g>
</g>
<g>
</g>
<g>
</g>
<g>
</g>
</svg>
