<?xml version="1.0" encoding="iso-8859-1"?>
<!-- Generator: Adobe Illustrator 19.0.0, SVG Export Plug-In . SVG Version: 6.00 Build 0)  -->
<svg version="1.1" id="Layer_1" xmlns="http://www.w3.org/2000/svg" xmlns:xlink="http://www.w3.org/1999/xlink" x="0px" y="0px"
	 viewBox="0 0 512 512" style="enable-background:new 0 0 512 512;" xml:space="preserve">
<polygon style="fill:#FFFFFF;" points="8.17,29.957 8.17,384 256,416.681 503.83,384 503.83,29.957 "/>
<rect x="8.17" y="384" style="fill:#4AAEE2;" width="495.66" height="98.043"/>
<circle style="fill:#BEC3CC;" cx="100.766" cy="433.021" r="16.34"/>
<polygon style="fill:#FF615C;" points="187.803,98.043 187.803,315.915 376.487,206.979 "/>
<g>
	<path style="fill:#080342;" d="M51.745,441.191h25.916c3.373,9.509,12.454,16.34,23.105,16.34s19.733-6.831,23.105-16.34h336.384
		c4.513,0,8.17-3.658,8.17-8.17c0-4.512-3.657-8.17-8.17-8.17H123.871c-3.373-9.509-12.454-16.34-23.105-16.34
		s-19.733,6.831-23.105,16.34H51.745c-4.512,0-8.17,3.658-8.17,8.17C43.574,437.533,47.233,441.191,51.745,441.191z
		 M100.766,424.851c4.506,0,8.17,3.665,8.17,8.17s-3.665,8.17-8.17,8.17s-8.17-3.665-8.17-8.17S96.26,424.851,100.766,424.851z"/>
	<path style="fill:#080342;" d="M503.83,198.809c4.513,0,8.17-3.658,8.17-8.17V29.957c0-4.512-3.657-8.17-8.17-8.17H8.17
		c-4.512,0-8.17,3.658-8.17,8.17v452.085c0,4.512,3.658,8.17,8.17,8.17h495.66c4.513,0,8.17-3.658,8.17-8.17V223.319
		c0-4.512-3.657-8.17-8.17-8.17s-8.17,3.658-8.17,8.17V375.83H16.34V38.128H495.66v152.511
		C495.66,195.15,499.317,198.809,503.83,198.809z M495.66,392.17v81.702H16.34V392.17H495.66z"/>
	<path style="fill:#080342;" d="M191.888,90.967c-2.527-1.46-5.643-1.46-8.17,0c-2.527,1.46-4.085,4.156-4.085,7.075v217.872
		c0,2.919,1.558,5.616,4.085,7.075c1.264,0.73,2.674,1.095,4.085,1.095s2.821-0.365,4.085-1.095l188.683-108.936
		c2.527-1.46,4.085-4.156,4.085-7.075s-1.558-5.616-4.085-7.075L191.888,90.967z M195.973,301.764V112.193l164.173,94.785
		L195.973,301.764z"/>
</g>
<g>
</g>
<g>
</g>
<g>
</g>
<g>
</g>
<g>
</g>
<g>
</g>
<g>
</g>
<g>
</g>
<g>
</g>
<g>
</g>
<g>
</g>
<g>
</g>
<g>
</g>
<g>
</g>
<g>
</g>
</svg>
