<?xml version="1.0" encoding="iso-8859-1"?>
<!-- Generator: Adobe Illustrator 19.0.0, SVG Export Plug-In . SVG Version: 6.00 Build 0)  -->
<svg version="1.1" id="Capa_1" xmlns="http://www.w3.org/2000/svg" xmlns:xlink="http://www.w3.org/1999/xlink" x="0px" y="0px"
	 viewBox="0 0 512 512" style="enable-background:new 0 0 512 512;" xml:space="preserve">
<g>
	<path style="fill:#D9D9D9;" d="M408.325,450.64l26.454,52.822h42.667l-39.937-79.788
		C428.507,433.428,418.753,442.439,408.325,450.64z"/>
	<path style="fill:#D9D9D9;" d="M73.642,423.674l-39.937,79.788h42.667l26.454-52.822C92.399,442.439,82.636,433.428,73.642,423.674
		z"/>
</g>
<circle style="fill:#4398D1;" cx="255.576" cy="255.991" r="247.471"/>
<circle style="fill:#DBDBDB;" cx="255.576" cy="255.991" r="196.27"/>
<circle style="fill:#4398D1;" cx="255.576" cy="255.991" r="145.069"/>
<circle style="fill:#DBDBDB;" cx="255.576" cy="255.991" r="93.868"/>
<circle style="fill:#DE4C3C;" cx="255.576" cy="255.991" r="42.667"/>
<g>
	<path style="fill:#BDBDBD;" d="M73.642,423.674l-8.533,17.067c9.336,9.165,19.38,17.579,30.038,25.174l7.765-15.446
		C92.458,442.328,82.67,433.368,73.642,423.674z"/>
	<path style="fill:#BDBDBD;" d="M437.509,423.674l8.533,17.067c-9.336,9.165-19.38,17.579-30.038,25.174l-7.68-15.36
		C418.753,442.388,428.507,433.402,437.509,423.674z"/>
</g>
<path style="fill:#DBDBDB;" d="M255.576,162.123c-51.841,0.171-93.732,42.326-93.57,94.167
	c0.145,45.031,32.248,83.611,76.503,91.948c41.908-31.096,78.73-68.524,109.143-110.935
	C338.752,193.526,300.24,162.08,255.576,162.123z M255.576,298.658c-23.561,0-42.667-19.106-42.667-42.667
	s19.106-42.667,42.667-42.667c23.561,0,42.667,19.106,42.667,42.667C298.243,279.56,279.137,298.658,255.576,298.658z"/>
<path style="fill:#3E8CC7;" d="M419.248,70.388c-3.968,19.26-9.182,38.247-15.616,56.833c70.973,81.93,62.081,205.887-19.849,276.86
	c-70.538,61.1-174.339,64.078-248.273,7.134c-17.75,8.533-34.987,16.384-51.201,23.04c96.812,96.471,253.504,96.189,349.975-0.623
	s96.189-253.504-0.623-349.975C429.027,79.041,424.223,74.621,419.248,70.388z"/>
<path style="fill:#D1D1D1;" d="M400.645,255.991c0,80.121-64.948,145.069-145.069,145.069c-24.235,0-48.095-6.076-69.377-17.664
	c-17.067,10.326-34.134,19.542-50.689,27.819c85.872,66.143,209.113,50.151,275.256-35.721
	c56.944-73.934,53.957-177.735-7.134-248.273c-6.451,18.893-14.208,37.308-23.211,55.126
	C393.664,204.628,400.653,230.075,400.645,255.991z"/>
<path style="fill:#3E8CC7;" d="M400.645,255.991c0.009-25.925-6.972-51.363-20.224-73.644
	c-9.634,18.978-20.642,37.232-32.939,54.614c10.513,50.766-22.127,100.439-72.893,110.952c-6.255,1.297-12.63,1.946-19.013,1.946
	c-5.726-0.034-11.435-0.572-17.067-1.621c-16.76,12.612-34.168,24.346-52.14,35.158c70.418,38.221,158.484,12.126,196.705-58.292
	C394.586,303.889,400.628,280.132,400.645,255.991z"/>
<path style="fill:#D1D1D1;" d="M238.509,348.238c5.632,1.05,11.341,1.587,17.067,1.621c51.841-0.009,93.86-42.036,93.851-93.885
	c0-6.392-0.657-12.758-1.946-19.013C317.145,279.484,280.383,317.022,238.509,348.238z"/>
<polygon style="fill:#DE4C3C;" points="451.846,119.455 503.047,68.255 443.312,68.255 443.312,8.52 392.111,59.721 
	392.111,119.455 "/>
<path style="fill:#5C3724;" d="M255.576,264.525c-2.27,0.017-4.446-0.879-6.059-2.475c-3.345-3.32-3.371-8.721-0.051-12.066
	c0.017-0.017,0.034-0.034,0.051-0.051l221.87-221.87c3.345-3.345,8.772-3.345,12.117,0c3.345,3.345,3.345,8.772,0,12.118
	l-221.87,221.87C260.022,263.646,257.837,264.542,255.576,264.525z"/>
<path d="M468.913,114.591l40.363-40.278c2.423-2.458,3.132-6.127,1.792-9.301c-1.331-3.243-4.514-5.342-8.021-5.291h-39.169
	l19.627-19.542c3.345-3.345,3.345-8.772,0-12.118c-3.345-3.345-8.772-3.345-12.117,0l-19.542,19.627V8.52
	c-0.017-3.448-2.108-6.545-5.291-7.851c-3.174-1.34-6.844-0.631-9.301,1.792l-40.278,40.193
	C278.855-35.052,120.107-2.3,42.401,115.82c-63.19,96.044-54.606,222.434,21.001,309.048l-37.291,74.753
	c-2.125,4.207-0.427,9.344,3.78,11.46c1.186,0.597,2.492,0.905,3.814,0.913h42.667c3.217-0.009,6.153-1.826,7.595-4.693
	l21.931-43.777c89.32,64.633,210.034,64.633,299.354,0l21.931,43.777c1.442,2.867,4.378,4.685,7.595,4.693h42.667
	c4.71-0.017,8.525-3.849,8.508-8.559c0-1.323-0.316-2.628-0.913-3.814l-37.291-74.753
	C524.329,338.203,533.016,210.857,468.913,114.591z M446.811,76.788h35.67l-30.635,30.635l-3.413,3.499h-35.755L446.811,76.788z
	 M400.645,63.22l3.499-3.413l30.635-30.721v35.67L400.645,98.89V63.22z M443.312,255.991
	c0.051,103.682-83.961,187.779-187.651,187.822c-103.682,0.051-187.779-83.961-187.822-187.651S151.8,68.383,255.49,68.34
	c46.857-0.026,92.025,17.477,126.637,49.067l-24.15,24.235c-63.395-56.799-160.83-51.448-217.621,11.947
	S88.908,314.42,152.304,371.21s160.83,51.448,217.621-11.947c52.438-58.531,52.438-147.143,0-205.674l24.235-24.32
	C425.861,163.847,443.406,209.083,443.312,255.991z M249.517,262.05c3.32,3.345,8.721,3.371,12.066,0.051
	c0.017-0.017,0.034-0.034,0.051-0.051l23.211-23.126c9.703,16.435,4.233,37.633-12.203,47.327
	c-16.435,9.703-37.633,4.233-47.327-12.203c-9.703-16.435-4.233-37.633,12.203-47.327c10.838-6.392,24.286-6.392,35.124,0
	l-23.296,23.211c-3.302,3.362-3.243,8.764,0.119,12.066C249.483,262.016,249.5,262.033,249.517,262.05z M285.187,214.262
	c-23.057-16.367-55.024-10.94-71.391,12.118s-10.94,55.024,12.118,71.391c23.057,16.367,55.024,10.94,71.391-12.118
	c12.595-17.75,12.595-41.524,0-59.274l24.32-24.32c29.807,36.506,24.389,90.259-12.118,120.075
	c-36.506,29.807-90.259,24.389-120.075-12.118s-24.389-90.259,12.118-120.075c31.412-25.652,76.545-25.652,107.957,0
	L285.187,214.262z M255.576,153.589c-56.551-0.094-102.479,45.671-102.572,102.231c-0.094,56.56,45.671,102.479,102.231,102.572
	c56.56,0.094,102.479-45.671,102.572-102.231c0.043-24.235-8.516-47.702-24.15-66.22l24.32-24.15
	c50.04,56.782,44.579,143.388-12.203,193.428s-143.388,44.579-193.428-12.203s-44.579-143.388,12.203-193.428
	c51.79-45.646,129.436-45.646,181.225,0l-24.15,24.15C303.184,162.072,279.768,153.513,255.576,153.589z M71.082,494.928H47.53
	l28.843-56.748c5.12,5.12,10.582,9.984,16.214,14.678L71.082,494.928z M463.622,494.928H440.07l-21.078-42.07
	c5.632-4.693,11.094-9.557,16.214-14.678L463.622,494.928z M427.355,421.882L427.355,421.882
	c-91.283,94.781-242.112,97.614-336.885,6.332c-2.15-2.074-4.258-4.181-6.332-6.332l0,0C-7.545,326.973-4.934,175.708,89.975,84.024
	C169.738,6.976,292.022-5.065,385.276,54.942v0.939c-0.034,0.256-0.034,0.512,0,0.768c-0.777,0.896-1.357,1.937-1.707,3.072V96.33
	c-88.245-70.76-217.143-56.585-287.902,31.659s-56.585,217.143,31.659,287.902s217.143,56.585,287.902-31.659
	c60.033-74.864,60.033-181.379,0-256.243h36.609c0.998-0.026,1.98-0.23,2.901-0.597h0.768l0.939-0.427
	c59.982,93.254,47.933,215.513-29.099,295.258v-0.341H427.355z"/>
<g>
</g>
<g>
</g>
<g>
</g>
<g>
</g>
<g>
</g>
<g>
</g>
<g>
</g>
<g>
</g>
<g>
</g>
<g>
</g>
<g>
</g>
<g>
</g>
<g>
</g>
<g>
</g>
<g>
</g>
</svg>
