<?xml version="1.0" encoding="iso-8859-1"?>
<!-- Generator: Adobe Illustrator 19.0.0, SVG Export Plug-In . SVG Version: 6.00 Build 0)  -->
<svg version="1.1" id="Capa_1" xmlns="http://www.w3.org/2000/svg" xmlns:xlink="http://www.w3.org/1999/xlink" x="0px" y="0px"
	 viewBox="0 0 512 512" style="enable-background:new 0 0 512 512;" xml:space="preserve">
<path style="fill:#88B337;" d="M450.242,239.381c1.836-10.09-0.034-20.504-5.27-29.328c-2.584-3.919-1.505-9.189,2.414-11.774
	c1.471-0.969,3.213-1.462,4.981-1.403h49.389V60.865c0-28.171-22.833-51.004-51.004-51.004H315.505v49.474
	c0.034,4.692,3.868,8.475,8.56,8.441c1.403-0.008,2.788-0.366,4.021-1.046c8.96-5.449,19.637-7.328,29.923-5.27
	c23.097,4.174,38.44,26.284,34.267,49.389c-4.174,23.097-26.284,38.44-49.389,34.267c-4.82-0.876-9.453-2.567-13.695-5.024
	c-4.063-2.355-9.266-0.969-11.612,3.094c-0.816,1.403-1.207,3.018-1.139,4.641l-0.935,49.049h48.284
	c4.684-0.255,8.696,3.332,8.951,8.025c0.094,1.649-0.306,3.298-1.131,4.726c-3.757,6.452-5.729,13.788-5.695,21.252
	c0,23.471,19.033,42.504,42.512,42.495c20.546,0,38.151-14.706,41.815-34.93L450.242,239.381L450.242,239.381z"/>
<path style="fill:#FDB62F;" d="M238.998,77.867L238.998,77.867c-2.89-17.444-16.559-31.113-34.003-34.003l0,0
	c17.444-2.89,31.113-16.559,34.003-34.003l0,0c2.89,17.444,16.559,31.113,34.003,34.003l0,0
	C255.558,46.754,241.889,60.423,238.998,77.867z"/>
<g>
	<path style="fill:#D9D9D9;" d="M409.013,366.892v-17.001c23.471,0,42.504-19.033,42.504-42.504h17.001
		C468.519,340.251,441.877,366.892,409.013,366.892z"/>
	<path style="fill:#D9D9D9;" d="M409.013,409.396v-17.001c46.95,0,85.007-38.058,85.007-85.007h17.001
		C511.022,363.721,465.348,409.396,409.013,409.396z"/>
</g>
<g>
	<path style="fill:#FFA83D;" d="M61.248,502.904h135.247l0,0H55.297C57.278,503.032,59.267,503.032,61.248,502.904z"/>
	<path style="fill:#FFA83D;" d="M196.495,366.892c0.17-1.046,0.17-2.1,0-3.145v1.02C196.58,365.473,196.58,366.187,196.495,366.892z
		"/>
</g>
<path style="fill:#4398D1;" d="M272.406,213.199c-0.612-2.686-1.488-5.313-2.635-7.821c-5.577-12.802-17.078-22.042-30.773-24.737
	c-10.09-1.904-20.529-0.026-29.328,5.27c-3.919,2.584-9.189,1.505-11.774-2.414c-0.969-1.471-1.462-3.213-1.403-4.981v-49.644
	H60.483c-28.171,0-51.004,22.833-51.004,51.004v25.502l0,0v110.51h51.004h1.785c1.165-0.408,2.236-1.037,3.145-1.87l0.51-0.51l0,0
	c2.04-3.188,2.04-7.268,0-10.456c-1.7-2.848-3.009-5.908-3.91-9.096c-5.066-13.159-2.38-28.044,6.971-38.593
	c5.993-8.118,14.715-13.788,24.567-15.981c1.845-0.408,3.723-0.663,5.61-0.765c23.76-2.066,44.697,15.522,46.763,39.282
	c0.119,1.326,0.17,2.661,0.161,3.987c0.034,7.464-1.938,14.8-5.695,21.252c-2.355,4.063-0.969,9.266,3.094,11.621
	c1.437,0.833,3.077,1.224,4.726,1.131h24.907h23.377v-51.004c0-6.546,7.566-8.926,13.261-5.611
	c6.452,3.757,13.788,5.73,21.252,5.695c23.471-0.042,42.47-19.11,42.419-42.589C273.426,219.294,273.078,216.216,272.406,213.199z"
	/>
<path style="fill:#DE4C3C;" d="M334.377,315.888c-4.692,0.034-8.475,3.868-8.441,8.56c0.009,1.403,0.366,2.788,1.046,4.021
	c12.029,20.164,5.432,46.253-14.732,58.273c-3.868,2.304-8.076,3.987-12.471,4.973c-6.027,1.275-12.25,1.275-18.277,0
	c-22.944-4.973-37.505-27.602-32.532-50.545c0.918-4.25,2.491-8.331,4.65-12.105c2.61-3.902,1.564-9.181-2.338-11.791
	c-1.131-0.757-2.431-1.233-3.783-1.386h-51.004l0,0l0,0v47.604c0.204,1.122,0.204,2.278,0,3.4
	c-1.394,5.117-6.682,8.135-11.799,6.733c-0.502-0.136-0.995-0.315-1.462-0.527c-6.435-3.8-13.78-5.772-21.252-5.695
	c-23.241,0.136-41.968,19.084-41.832,42.325c0.136,23.241,19.084,41.968,42.325,41.832c7.625-0.043,15.089-2.159,21.609-6.121
	c4.123-2.253,9.283-0.74,11.536,3.375c0.689,1.258,1.046,2.669,1.046,4.106l-0.17,49.984h136.012
	c28.171,0,51.004-22.833,51.004-51.004l0,0V315.888L334.377,315.888L334.377,315.888z"/>
<polygon style="fill:#FFA83D;" points="196.495,316.058 196.495,316.058 196.495,316.143 "/>
<path style="fill:#FDB62F;" d="M184.084,445.439c-19.637,12.87-45.981,7.379-58.851-12.25s-7.379-45.981,12.25-58.851
	c7.26-4.76,15.811-7.183,24.491-6.937c7.472-0.077,14.817,1.896,21.252,5.695c4.828,2.21,10.524,0.085,12.734-4.743
	c0.213-0.476,0.391-0.961,0.527-1.462c0.085-0.706,0.085-1.42,0-2.125v-48.879l0,0l0,0h-23.377h-24.907
	c-4.684,0.255-8.696-3.332-8.951-8.025c-0.094-1.649,0.306-3.298,1.131-4.726c3.757-6.452,5.73-13.788,5.696-21.252
	c-0.008-23.853-19.339-43.184-43.192-43.175c-1.25,0-2.491,0.051-3.732,0.162c-1.887,0.102-3.766,0.357-5.61,0.765
	c-9.606,2.125-18.158,7.574-24.142,15.386c-9.351,10.549-12.037,25.434-6.971,38.593c0.901,3.188,2.21,6.248,3.91,9.096
	c2.04,3.188,2.04,7.268,0,10.456l0,0l-0.51,0.51c-0.91,0.833-1.981,1.462-3.145,1.87l-2.21,0.34H9.47V451.9
	c0.323,26.08,19.917,47.893,45.819,51.004h141.197V452.92c-0.034-4.692-3.876-8.467-8.569-8.433
	C186.591,444.496,185.274,444.827,184.084,445.439z"/>
<path style="fill:#C94536;" d="M196.495,457v45.904h136.012c28.171,0,51.004-22.833,51.004-51.004l0,0v-96.653
	C334.462,404.551,265.861,436.428,196.495,457z"/>
<path style="fill:#FFA83D;" d="M26.48,489.218c7.923,7.489,18.005,12.284,28.818,13.686h141.197V457
	C140.951,473.007,84.03,483.794,26.48,489.218z"/>
<path style="fill:#78A82F;" d="M315.505,188.377v8.501h48.284c4.684-0.255,8.696,3.332,8.951,8.025
	c0.094,1.649-0.306,3.298-1.131,4.726c-3.757,6.452-5.729,13.788-5.695,21.252c0.043,23.471,19.101,42.47,42.58,42.427
	c23.471-0.043,42.47-19.101,42.427-42.58c-0.017-7.608-2.066-15.072-5.951-21.617c-2.066-4.216-0.323-9.308,3.885-11.374
	c1.097-0.536,2.287-0.833,3.511-0.867h49.389V87.048C460.528,149.273,382.491,176.646,315.505,188.377z"/>
<path d="M458.573,240.401L458.573,240.401c2.304-12.037,0.094-24.508-6.206-35.023h49.474c4.692,0,8.501-3.808,8.501-8.501V60.865
	c0.111-15.93-6.163-31.24-17.427-42.504C481.627,7.183,466.3,1.046,450.412,1.36H315.505c-2.261-0.017-4.429,0.876-6.036,2.465
	c-1.59,1.607-2.482,3.774-2.465,6.036v49.474c-0.051,6.129,3.196,11.816,8.501,14.876c5.262,3.035,11.74,3.035,17.001,0
	c7.005-4.242,15.327-5.755,23.377-4.25c18.472,3.383,30.705,21.099,27.33,39.571c-1.02,5.593-3.434,10.838-7.013,15.259
	c-6.41,7.897-16.015,12.513-26.182,12.581l0,0c-5.976-0.008-11.833-1.59-17.001-4.59c-5.262-3.035-11.74-3.035-17.001,0
	c-5.338,3.077-8.586,8.807-8.501,14.961l-0.51,49.134c-0.017,2.261,0.876,4.429,2.465,6.036c1.573,1.598,3.706,2.516,5.951,2.55
	h48.794c-14.086,24.397-5.73,55.586,18.668,69.672c7.787,4.497,16.627,6.852,25.621,6.835c3.689,0.025,7.37-0.374,10.966-1.19
	C439.412,276.368,454.798,260.48,458.573,240.401z M387.081,257.403c-13.117-10.388-16.721-28.784-8.501-43.354
	c3.162-5.228,3.162-11.774,0-17.001c-3.162-5.296-8.883-8.526-15.046-8.501l0,0l-39.529-0.17l0.425-41.229
	c7.574,4.59,16.228,7.081,25.077,7.226l0,0c28.163,0.731,51.583-21.507,52.314-49.661c0.663-25.502-17.614-47.57-42.793-51.668
	c-11.986-2.261-24.38-0.051-34.853,6.206l-0.17-40.889h127.001c23.471,0,42.504,19.033,42.504,42.504v127.511h-41.059
	c-6.095-0.025-11.74,3.222-14.791,8.501c-3.162,5.228-3.162,11.774,0,17.001c4.208,7.013,5.695,15.335,4.165,23.377
	c-3.417,18.464-21.15,30.671-39.622,27.253c-5.542-1.02-10.736-3.409-15.123-6.937V257.403z"/>
<path d="M247.499,8.501c0-4.692-3.808-8.501-8.501-8.501c-4.692,0-8.501,3.808-8.501,8.501
	c-2.355,13.746-13.117,24.508-26.862,26.862c-4.692,0-8.501,3.808-8.501,8.501s3.808,8.501,8.501,8.501
	c13.746,2.355,24.508,13.117,26.862,26.862c0,4.692,3.808,8.501,8.501,8.501c4.692,0,8.501-3.808,8.501-8.501
	c2.355-13.746,13.117-24.508,26.862-26.862c4.692,0,8.501-3.808,8.501-8.501s-3.808-8.501-8.501-8.501
	C260.616,33.008,249.854,22.246,247.499,8.501z M238.998,56.02c-3.298-4.743-7.413-8.858-12.156-12.156
	c4.743-3.298,8.858-7.413,12.156-12.156c3.298,4.743,7.413,8.858,12.156,12.156C246.411,47.162,242.297,51.277,238.998,56.02z"/>
<path d="M383.511,307.387L383.511,307.387h-49.474c-6.129-0.051-11.816,3.196-14.876,8.501c-3.035,5.262-3.035,11.74,0,17.001
	c4.242,7.005,5.755,15.327,4.25,23.377c-3.383,18.472-21.099,30.705-39.571,27.33c-5.593-1.02-10.838-3.434-15.259-7.013
	c-7.897-6.41-12.513-16.015-12.581-26.182c0.008-5.976,1.59-11.833,4.59-17.001c3.162-5.228,3.162-11.774,0-17.001
	c-3.077-5.338-8.807-8.586-14.961-8.501l0,0l-40.634-0.51v-40.889c7.736,4.531,16.542,6.911,25.502,6.886l0,0
	c28.171,0.136,51.115-22.586,51.251-50.749c0.119-24.686-17.461-45.921-41.73-50.409c-11.986-2.261-24.38-0.051-34.853,6.206
	l-0.17-49.559c0-4.692-3.808-8.501-8.501-8.501H60.483c-32.864,0-59.505,26.641-59.505,59.505v135.502
	c0,1.148,0.264,2.287,0.765,3.315v133.802C1.743,485.359,28.384,512,61.248,512l0,0h135.247c1.377-0.025,2.72-0.408,3.91-1.105
	h132.357c32.864,0,59.505-26.641,59.505-59.505V315.888c0.017-2.261-0.876-4.429-2.465-6.036
	C388.136,308.195,385.857,307.302,383.511,307.387z M17.979,179.876c0-23.471,19.033-42.504,42.504-42.504h127.511v40.974
	c-0.051,6.129,3.196,11.816,8.501,14.876c5.262,3.035,11.74,3.035,17.001,0c7.005-4.242,15.327-5.755,23.377-4.25
	c18.472,3.383,30.705,21.099,27.33,39.571c-1.02,5.593-3.434,10.838-7.013,15.259c-6.41,7.897-16.015,12.513-26.182,12.581l0,0
	c-5.976-0.008-11.833-1.59-17.001-4.59c-5.262-3.035-11.74-3.035-17.001,0c-5.296,3.162-8.526,8.883-8.501,15.046v39.783h-40.039
	c9.971-18.141,7.991-40.506-5.015-56.615c-2.499-3.154-5.347-6.002-8.501-8.501c-21.915-17.699-54.031-14.281-71.729,7.642
	c-5.338,6.605-8.934,14.443-10.473,22.79c-2.261,11.986-0.051,24.38,6.206,34.853H17.979
	C17.979,306.792,17.979,179.876,17.979,179.876z M61.163,494.403L61.163,494.403c-23.471,0-42.504-19.033-42.504-42.504V324.388
	h41.059c6.095,0.025,11.74-3.222,14.791-8.501c3.205-5.211,3.205-11.791,0-17.001c-9.257-16.338-3.519-37.089,12.828-46.346
	c14.205-8.05,32.124-4.862,42.682,7.583c4.548,5.959,6.996,13.253,6.971,20.742c-0.008,5.976-1.59,11.833-4.59,17.001
	c-3.035,5.262-3.035,11.74,0,17.001c0.791,1.369,1.76,2.627,2.89,3.74c3.23,3.723,7.906,5.866,12.836,5.866l0,0l39.869-0.085v40.124
	c-7.812-4.335-16.568-6.665-25.502-6.801c-28.171,0-51.004,22.833-51.004,51.004c-0.017,3.995,0.374,7.991,1.19,11.901
	c4.157,20.181,20.062,35.882,40.294,39.784c11.986,2.253,24.38,0.043,34.853-6.206l0.17,40.209L61.163,494.403L61.163,494.403z
	 M375.01,451.22c0,23.471-19.033,42.504-42.504,42.504H204.995v-41.059c0.025-6.095-3.222-11.74-8.501-14.791
	c-5.211-3.205-11.791-3.205-17.001,0c-7.013,4.208-15.335,5.695-23.377,4.165c-13.27-2.389-23.879-12.394-27.032-25.502
	c-0.4-2.355-0.604-4.752-0.595-7.141c0.459-18.447,15.548-33.161,34.003-33.153l0,0c5.968-0.043,11.833,1.513,17.001,4.505
	c5.211,3.205,11.791,3.205,17.001,0c5.338-3.077,8.586-8.807,8.501-14.961v-41.399l41.059,0.425
	c-14.103,24.38-5.772,55.586,18.608,69.689c24.38,14.103,55.586,5.772,69.689-18.608c2.967-5.126,5.015-10.736,6.061-16.568
	c2.261-11.986,0.051-24.38-6.206-34.853l40.804-0.085V451.22z"/>
<path d="M409.013,349.891v17.001c32.864,0,59.505-26.641,59.505-59.505h-17.001C451.517,330.858,432.484,349.891,409.013,349.891z"
	/>
<path d="M409.013,392.394v17.001c56.334,0,102.009-45.675,102.009-102.009h-17.001C494.021,354.337,455.963,392.394,409.013,392.394
	z"/>
<g>
</g>
<g>
</g>
<g>
</g>
<g>
</g>
<g>
</g>
<g>
</g>
<g>
</g>
<g>
</g>
<g>
</g>
<g>
</g>
<g>
</g>
<g>
</g>
<g>
</g>
<g>
</g>
<g>
</g>
</svg>
