<?xml version="1.0" encoding="iso-8859-1"?>
<!-- Generator: Adobe Illustrator 19.0.0, SVG Export Plug-In . SVG Version: 6.00 Build 0)  -->
<svg version="1.1" id="Capa_1" xmlns="http://www.w3.org/2000/svg" xmlns:xlink="http://www.w3.org/1999/xlink" x="0px" y="0px"
	 viewBox="0 0 512 512" style="enable-background:new 0 0 512 512;" xml:space="preserve">
<path style="fill:#4398D1;" d="M256,59.733C147.601,59.733,59.733,147.601,59.733,256S147.601,452.267,256,452.267
	S452.267,364.399,452.267,256H256V59.733z"/>
<path style="fill:#FDB62F;" d="M452.267,256H256l138.752,138.752C431.65,358.016,452.352,308.07,452.267,256z"/>
<path style="fill:#F46B27;" d="M290.133,25.6v196.267H486.4C486.4,113.468,398.532,25.6,290.133,25.6z"/>
<g>
	<rect y="34.133" style="fill:#DBDBDB;" width="76.8" height="17.067"/>
	<rect y="68.267" style="fill:#DBDBDB;" width="76.8" height="17.067"/>
	
		<rect x="68.274" y="90.449" transform="matrix(-0.6247 0.7809 -0.7809 -0.6247 238.0993 175.7744)" style="fill:#DBDBDB;" width="17.067" height="109.315"/>
	<rect x="435.2" style="fill:#DBDBDB;" width="76.8" height="17.067"/>
	<rect x="435.2" y="34.133" style="fill:#DBDBDB;" width="76.8" height="17.067"/>
	
		<rect x="392.533" y="85.419" transform="matrix(-0.8 0.6 -0.6 -0.8 839.7313 -92.0065)" style="fill:#DBDBDB;" width="85.333" height="17.067"/>
</g>
<g>
	<rect x="162.133" y="494.933" style="fill:#87CED9;" width="17.067" height="17.067"/>
	<rect x="196.267" y="494.933" style="fill:#87CED9;" width="17.067" height="17.067"/>
	<rect x="230.4" y="494.933" style="fill:#87CED9;" width="17.067" height="17.067"/>
	<rect x="264.533" y="494.933" style="fill:#87CED9;" width="17.067" height="17.067"/>
	<rect x="298.667" y="494.933" style="fill:#87CED9;" width="17.067" height="17.067"/>
	<rect x="332.8" y="494.933" style="fill:#87CED9;" width="17.067" height="17.067"/>
</g>
<g>
	<rect y="409.6" style="fill:#DBDBDB;" width="76.8" height="17.067"/>
	<rect y="443.733" style="fill:#DBDBDB;" width="59.733" height="17.067"/>
	<rect y="375.467" style="fill:#DBDBDB;" width="76.8" height="17.067"/>
</g>
<path style="fill:#3E8CC7;" d="M375.467,375.467l-46.336-46.336c-57.899,39.612-122.701,68.036-191.061,83.797
	c78.148,58.701,187.58,50.953,256.683-18.176L375.467,375.467z"/>
<path style="fill:#F5AB20;" d="M329.131,329.131l65.621,65.621c8.909-8.875,16.939-18.594,23.979-29.013
	c3.55-5.111,6.827-10.411,9.813-15.872c1.536-2.731,2.987-5.572,4.352-8.533c2.773-5.726,5.248-11.597,7.424-17.579
	c2.219-6.059,4.181-12.203,5.803-18.432c1.621-6.229,2.901-12.715,3.84-19.2c1.562-9.967,2.33-20.036,2.304-30.123h-45.397
	C384.521,283.904,358.349,308.523,329.131,329.131z"/>
<g>
	<rect x="435.2" y="392.533" style="fill:#DBDBDB;" width="76.8" height="17.067"/>
	<rect x="435.2" y="426.667" style="fill:#DBDBDB;" width="76.8" height="17.067"/>
	
		<rect x="426.667" y="298.667" transform="matrix(-0.6 0.8 -0.8 -0.6 969.3867 197.9733)" style="fill:#DBDBDB;" width="17.067" height="85.333"/>
</g>
<rect y="34.133" width="76.8" height="17.067"/>
<rect y="68.267" width="76.8" height="17.067"/>
<rect x="435.2" width="76.8" height="17.067"/>
<rect x="435.2" y="34.133" width="76.8" height="17.067"/>
<path d="M464.213,61.44l-25.6,19.371c-38.605-40.781-92.322-63.846-148.48-63.744c-4.71,0-8.533,3.823-8.533,8.533v196.267
	c0,4.71,3.823,8.533,8.533,8.533H486.4c4.71,0,8.533-3.823,8.533-8.533c0-46.583-15.966-91.759-45.227-128l24.747-18.603
	L464.213,61.44z M477.867,213.333h-179.2v-179.2c47.693,2.185,92.757,22.511,125.952,56.832l-28.672,21.675l10.24,13.653
	l29.781-22.357C461.312,134.963,476.006,173.312,477.867,213.333z"/>
<rect x="435.2" y="392.533" width="76.8" height="17.067"/>
<rect x="435.2" y="426.667" width="76.8" height="17.067"/>
<path d="M464.213,373.76l10.24-13.653l-30.72-22.869c11.179-25.634,16.981-53.274,17.067-81.237c0-4.71-3.823-8.533-8.533-8.533
	H264.533V59.733c0-4.71-3.823-8.533-8.533-8.533c-68.122,0.034-131.78,33.937-169.813,90.453l-46.763-37.376l-10.581,13.312
	l48.384,38.741C19.2,253.423,50.859,379.162,147.951,437.197s222.831,26.368,280.866-70.724c2.705-4.523,5.231-9.156,7.578-13.875
	L464.213,373.76z M256,443.733c-103.68-0.051-187.691-84.147-187.639-187.827c0.017-30.967,7.697-61.457,22.349-88.738
	l23.467,18.688l10.581-13.312l-25.6-20.139c33.109-50.176,88.252-81.459,148.309-84.139V256c-0.017,2.27,0.879,4.446,2.475,6.059
	l132.437,132.437C347.904,426.155,302.805,443.725,256,443.733z M422.4,342.443c-7.561,14.447-16.939,27.861-27.904,39.936
	L276.565,264.533h167.168c-1.05,21.316-5.726,42.291-13.824,62.037l-23.723-17.664l-10.24,13.653L422.4,342.443z"/>
<rect x="162.133" y="494.933" width="17.067" height="17.067"/>
<rect x="196.267" y="494.933" width="17.067" height="17.067"/>
<rect x="230.4" y="494.933" width="17.067" height="17.067"/>
<rect x="264.533" y="494.933" width="17.067" height="17.067"/>
<rect x="298.667" y="494.933" width="17.067" height="17.067"/>
<rect x="332.8" y="494.933" width="17.067" height="17.067"/>
<rect y="409.6" width="76.8" height="17.067"/>
<rect y="443.733" width="59.733" height="17.067"/>
<rect y="375.467" width="76.8" height="17.067"/>
<g>
</g>
<g>
</g>
<g>
</g>
<g>
</g>
<g>
</g>
<g>
</g>
<g>
</g>
<g>
</g>
<g>
</g>
<g>
</g>
<g>
</g>
<g>
</g>
<g>
</g>
<g>
</g>
<g>
</g>
</svg>
