<?xml version="1.0" encoding="iso-8859-1"?>
<!-- Generator: Adobe Illustrator 19.0.0, SVG Export Plug-In . SVG Version: 6.00 Build 0)  -->
<svg version="1.1" id="Capa_1" xmlns="http://www.w3.org/2000/svg" xmlns:xlink="http://www.w3.org/1999/xlink" x="0px" y="0px"
	 viewBox="0 0 511.995 511.995" style="enable-background:new 0 0 511.995 511.995;" xml:space="preserve">
<path style="fill:#4398D1;" d="M221.882,8.545h64.307c53.979,0,97.74,43.761,97.74,97.74v177.569
	c0,17.527-14.209,31.727-31.727,31.727l0,0H159.793c-17.518,0-31.727-14.209-31.727-31.727l0,0V102.361
	C128.066,50.549,170.07,8.545,221.882,8.545z"/>
<path style="fill:#3E8CC7;" d="M355.87,36.604c-12.452,192.751-118.38,257.484-200.085,278.977c1.339,0.085,2.67,0.085,4.009,0
	h192.409c17.475,0.051,31.676-14.081,31.727-31.556c0-0.06,0-0.111,0-0.171V102.361C383.895,77.543,373.763,53.799,355.87,36.604z"
	/>
<path style="fill:#4398D1;" d="M153.652,264.408h204.691c14.132,0,25.586,11.454,25.586,25.586l0,0
	c0,14.132-11.454,25.586-25.586,25.586H153.652c-14.132,0-25.586-11.454-25.586-25.586l0,0
	C128.066,275.863,139.52,264.408,153.652,264.408z"/>
<rect x="221.916" y="315.564" style="fill:#DBDBDB;" width="68.23" height="34.115"/>
<path style="fill:#4398D1;" d="M76.893,179.12h34.115c9.424,0,17.058,7.633,17.058,17.058l0,0c0,9.424-7.633,17.058-17.058,17.058
	H76.893c-9.424,0-17.058-7.633-17.058-17.058l0,0C59.835,186.754,67.469,179.12,76.893,179.12z"/>
<path style="fill:#DBDBDB;" d="M128.066,298.523h-18.337c-13.407-0.043-24.264-10.9-24.307-24.307v-60.981h17.058v60.981
	c0,4,3.249,7.249,7.249,7.249h18.337C128.066,281.466,128.066,298.523,128.066,298.523z"/>
<path style="fill:#4398D1;" d="M435.102,213.236h-34.115c-9.424,0-17.058-7.633-17.058-17.058l0,0
	c0-9.424,7.633-17.058,17.058-17.058h34.115c9.424,0,17.058,7.633,17.058,17.058l0,0
	C452.16,205.594,444.518,213.236,435.102,213.236z"/>
<path style="fill:#DBDBDB;" d="M402.266,298.523h-18.337v-17.058h18.337c4,0,7.249-3.249,7.249-7.249v-60.981h17.058v60.981
	C426.522,287.624,415.673,298.472,402.266,298.523z"/>
<path id="SVGCleanerId_0" style="fill:#DBDBDB;" d="M383.929,452.042l-3.923-19.531c-2.78-13.885-13.842-24.606-27.804-26.951
	l-70.618-11.77c-4.878-0.827-8.478-5.023-8.529-9.979v-34.115H238.94v34.115c-0.017,4.981-3.616,9.237-8.529,10.064l-70.704,11.77
	c-13.962,2.345-25.023,13.066-27.804,26.951l-3.838,19.446l34.115,17.058l8.529-34.115l68.23-8.529v34.115h34.115v-34.115
	l68.23,8.529l8.529,34.115L383.929,452.042z"/>
<g>
	<path id="SVGCleanerId_0_1_" style="fill:#DBDBDB;" d="M383.929,452.042l-3.923-19.531c-2.78-13.885-13.842-24.606-27.804-26.951
		l-70.618-11.77c-4.878-0.827-8.478-5.023-8.529-9.979v-34.115H238.94v34.115c-0.017,4.981-3.616,9.237-8.529,10.064l-70.704,11.77
		c-13.962,2.345-25.023,13.066-27.804,26.951l-3.838,19.446l34.115,17.058l8.529-34.115l68.23-8.529v34.115h34.115v-34.115
		l68.23,8.529l8.529,34.115L383.929,452.042z"/>
</g>
<rect x="238.974" y="349.679" style="fill:#D1D1D1;" width="34.115" height="25.586"/>
<g>
	<circle style="fill:#4398D1;" cx="136.629" cy="477.611" r="25.586"/>
	<circle style="fill:#4398D1;" cx="375.435" cy="477.611" r="25.586"/>
	<circle style="fill:#4398D1;" cx="256.032" cy="477.611" r="25.586"/>
</g>
<path d="M286.189,0.016h-64.307c-55.906-0.614-101.731,44.205-102.345,100.119c-0.009,0.742-0.009,1.484,0,2.226v69.765
	c-2.738-0.989-5.62-1.51-8.529-1.535H76.893c-14.132,0-25.586,11.454-25.586,25.586c0,14.132,11.454,25.586,25.586,25.586h8.529
	v52.452c0.043,13.407,10.9,24.264,24.307,24.307h11.002c3.881,15.019,17.407,25.535,32.921,25.586h59.701v25.586
	c0,4.708,3.821,8.529,8.529,8.529h8.529v25.586c0.009,0.802-0.571,1.493-1.365,1.62l-70.618,11.77
	c-17.467,2.917-31.318,16.324-34.797,33.689l-3.412,17.058c-16.529,9.041-22.593,29.774-13.552,46.303s29.774,22.593,46.303,13.552
	c11.019-6.03,17.825-17.62,17.74-30.175c-0.009-2.209-0.239-4.409-0.682-6.567l0,0l7.079-28.401l52.878-6.652v19.19
	c-12.461,14.132-11.113,35.693,3.019,48.154c14.132,12.461,35.693,11.113,48.154-3.019c11.369-12.896,11.369-32.239,0-45.134
	v-19.104l52.878,6.652l7.249,28.401l0,0c-0.205,2.158-0.205,4.324,0,6.482c-0.094,18.84,15.113,34.183,33.953,34.277
	c18.84,0.094,34.183-15.113,34.277-33.953c0.06-12.529-6.746-24.077-17.74-30.09l-3.412-17.058
	c-3.48-17.365-17.331-30.772-34.797-33.689l-70.618-11.77c-0.759-0.119-1.33-0.768-1.365-1.535v-25.586h8.529
	c4.708,0,8.529-3.821,8.529-8.529V324.11h59.701c15.514-0.051,29.04-10.567,32.921-25.586h11.002
	c13.407-0.043,24.264-10.9,24.307-24.307v-52.452h8.529c14.132,0,25.586-11.454,25.586-25.586c0-14.132-11.454-25.586-25.586-25.586
	h-34.115c-2.908,0.026-5.791,0.546-8.529,1.535v-69.765C391.29,44.792,343.759-0.982,286.189,0.016z M119.537,281.466h-9.808
	c-4,0-7.249-3.249-7.249-7.249v-52.452h8.529c2.908-0.026,5.791-0.546,8.529-1.535V281.466z M111.008,204.707H76.893
	c-4.708,0-8.529-3.821-8.529-8.529c0-4.708,3.821-8.529,8.529-8.529h34.115c4.708,0,8.529,3.821,8.529,8.529
	C119.537,200.886,115.716,204.707,111.008,204.707z M136.594,494.686c-9.424,0-17.058-7.633-17.058-17.058
	c0-9.424,7.633-17.058,17.058-17.058s17.058,7.633,17.058,17.058C153.652,487.052,146.01,494.686,136.594,494.686z M255.997,494.686
	c-9.424,0-17.058-7.633-17.058-17.058c0-9.424,7.633-17.058,17.058-17.058c9.424,0,17.058,7.633,17.058,17.058
	C273.055,487.052,265.413,494.686,255.997,494.686z M392.458,477.628c0,9.424-7.633,17.058-17.058,17.058
	c-9.424,0-17.058-7.633-17.058-17.058c0-9.424,7.633-17.058,17.058-17.058C384.825,460.57,392.458,468.204,392.458,477.628z
	 M350.752,413.918c10.49,1.74,18.806,9.791,20.896,20.213l1.876,9.382c-7.079,0.426-13.842,3.053-19.36,7.505l-4.35-18.081
	c-0.861-3.429-3.744-5.97-7.249-6.397l-68.23-8.529c-2.405-0.298-4.827,0.452-6.652,2.047c-1.936,1.569-3.087,3.906-3.156,6.397
	v18.252c-5.578-1.595-11.48-1.595-17.058,0v-18.252c0-2.448-1.058-4.776-2.9-6.397c-1.825-1.595-4.247-2.345-6.652-2.047
	l-68.23,8.529c-3.505,0.426-6.388,2.968-7.249,6.397l-4.606,18.252c-5.493-4.512-12.264-7.198-19.36-7.676l1.876-9.552
	c2.09-10.422,10.405-18.473,20.896-20.213l70.618-11.77c8.93-1.45,15.514-9.117,15.608-18.166v-25.586h17.058v25.586
	c-0.034,9.143,6.584,16.955,15.608,18.422L350.752,413.918z M281.584,341.167h-51.173V324.11h51.173V341.167z M352.202,307.052
	H159.793c-11.727,0.179-21.723-8.486-23.198-20.128c1.501-8.205,8.716-14.124,17.058-13.987h204.691
	c8.341-0.136,15.557,5.783,17.058,13.987C373.925,298.566,363.929,307.231,352.202,307.052z M375.4,260.656
	c-5.151-3.104-11.045-4.751-17.058-4.776H153.652c-6.013,0.026-11.906,1.672-17.058,4.776V102.361
	c-0.52-46.584,36.819-84.768,83.403-85.288c0.631-0.009,1.254-0.009,1.885,0h64.307c48.154-0.998,88.043,37.134,89.211,85.288
	V260.656z M409.516,274.216c0,4-3.249,7.249-7.249,7.249h-9.808v-61.237c2.738,0.989,5.62,1.51,8.529,1.535h8.529V274.216z
	 M400.987,187.649h34.115c4.708,0,8.529,3.821,8.529,8.529c0,4.708-3.821,8.529-8.529,8.529h-34.115
	c-4.708,0-8.529-3.821-8.529-8.529C392.458,191.47,396.279,187.649,400.987,187.649z"/>
<g>
</g>
<g>
</g>
<g>
</g>
<g>
</g>
<g>
</g>
<g>
</g>
<g>
</g>
<g>
</g>
<g>
</g>
<g>
</g>
<g>
</g>
<g>
</g>
<g>
</g>
<g>
</g>
<g>
</g>
</svg>
