<?xml version="1.0" encoding="iso-8859-1"?>
<!-- Generator: Adobe Illustrator 19.0.0, SVG Export Plug-In . SVG Version: 6.00 Build 0)  -->
<svg version="1.1" id="Capa_1" xmlns="http://www.w3.org/2000/svg" xmlns:xlink="http://www.w3.org/1999/xlink" x="0px" y="0px"
	 viewBox="0 0 512.004 512.004" style="enable-background:new 0 0 512.004 512.004;" xml:space="preserve">
<polygon style="fill:#3E8CC7;" points="145.067,179.635 145.067,299.101 392.533,392.968 392.533,85.768 "/>
<polygon style="fill:#4398D1;" points="145.067,179.635 145.067,299.101 392.533,392.968 392.533,85.768 "/>
<path style="fill:#3E8CC7;" d="M392.533,85.768l-30.549,11.605c-7.339,124.928-62.635,195.669-126.805,235.861l157.355,59.733
	V85.768z"/>
<polygon style="fill:#D9D9D9;" points="128,333.235 145.067,299.101 147.2,273.501 34.133,273.501 42.667,299.101 102.4,452.701 
	170.667,427.101 "/>
<polygon style="fill:#BDBDBD;" points="49.323,316.168 136.533,316.168 145.067,299.101 147.2,273.501 34.133,273.501 
	42.667,299.101 "/>
<path id="SVGCleanerId_0" style="fill:#D9D9D9;" d="M42.667,179.635h102.4l0,0v119.467l0,0h-102.4
	c-18.85,0-34.133-15.283-34.133-34.133v-51.2C8.533,194.918,23.817,179.635,42.667,179.635z"/>
<g>
	<path id="SVGCleanerId_0_1_" style="fill:#D9D9D9;" d="M42.667,179.635h102.4l0,0v119.467l0,0h-102.4
		c-18.85,0-34.133-15.283-34.133-34.133v-51.2C8.533,194.918,23.817,179.635,42.667,179.635z"/>
</g>
<polygon style="fill:#D9D9D9;" points="435.2,196.701 435.2,282.035 503.467,264.968 503.467,213.768 "/>
<g>
	<rect x="68.267" y="205.226" style="fill:#3582BD;" width="17.067" height="34.133"/>
	<rect x="34.133" y="205.226" style="fill:#3582BD;" width="17.067" height="34.133"/>
</g>
<path style="fill:#4398D1;" d="M413.867,60.168L413.867,60.168c11.785,0,21.333,9.549,21.333,21.333v315.733
	c0,11.785-9.549,21.333-21.333,21.333l0,0c-11.785,0-21.333-9.549-21.333-21.333V81.501
	C392.533,69.717,402.082,60.168,413.867,60.168z"/>
<polygon style="fill:#3582BD;" points="366.933,239.368 366.933,95.496 349.867,101.981 349.867,239.368 "/>
<polygon style="fill:#BDBDBD;" points="435.2,239.368 435.2,282.035 503.467,264.968 503.467,239.368 "/>
<path style="fill:#D1D1D1;" d="M18.517,289.032c6.391,6.434,15.078,10.052,24.149,10.069h102.4V194.312
	C122.283,254.984,58.965,280.669,18.517,289.032z"/>
<path d="M505.515,205.235l-61.781-15.189V81.501c0.469-16.495-12.518-30.251-29.013-30.72C398.225,50.312,384.469,63.3,384,79.795
	l0,0l-240.469,91.307H42.667C19.106,171.101,0,190.207,0,213.768v51.2c0.085,21.163,15.659,39.066,36.608,42.069l57.856,148.736
	c1.263,3.285,4.42,5.453,7.936,5.461c1.015,0.009,2.031-0.162,2.987-0.512l68.267-25.6c4.412-1.655,6.656-6.571,5.001-10.982
	c-0.068-0.179-0.145-0.358-0.222-0.538l-40.96-90.368l11.776-23.552L384,398.941c0.469,16.495,14.225,29.483,30.72,29.013
	c16.495-0.469,29.483-14.225,29.013-30.72V288.691l61.781-15.189c3.9-0.964,6.605-4.514,6.485-8.533v-51.2
	C512.12,209.749,509.414,206.199,505.515,205.235z M17.067,264.968v-51.2c0-14.14,11.46-25.6,25.6-25.6h93.867v102.4H42.667
	C28.527,290.568,17.067,279.108,17.067,264.968z M159.147,422.323l-51.883,19.456L55.125,307.635h76.117l-10.837,21.76
	c-1.109,2.321-1.109,5.018,0,7.339L159.147,422.323z M384,380.595l-230.4-87.381V185.523l196.267-74.155v128h17.067V104.627
	L384,98.141V380.595z M426.667,397.661c0,7.066-5.734,12.8-12.8,12.8c-7.066,0-12.8-5.734-12.8-12.8V81.928
	c0-7.066,5.734-12.8,12.8-12.8c7.066,0,12.8,5.734,12.8,12.8V397.661z M494.933,258.739l-51.2,12.8v-63.915l51.2,12.8V258.739z"/>
<rect x="68.267" y="205.226" width="17.067" height="34.133"/>
<rect x="34.133" y="205.226" width="17.067" height="34.133"/>
<g>
</g>
<g>
</g>
<g>
</g>
<g>
</g>
<g>
</g>
<g>
</g>
<g>
</g>
<g>
</g>
<g>
</g>
<g>
</g>
<g>
</g>
<g>
</g>
<g>
</g>
<g>
</g>
<g>
</g>
</svg>
