<?xml version="1.0" encoding="iso-8859-1"?>
<!-- Generator: Adobe Illustrator 19.0.0, SVG Export Plug-In . SVG Version: 6.00 Build 0)  -->
<svg version="1.1" id="Capa_1" xmlns="http://www.w3.org/2000/svg" xmlns:xlink="http://www.w3.org/1999/xlink" x="0px" y="0px"
	 viewBox="0 0 512 512" style="enable-background:new 0 0 512 512;" xml:space="preserve">
<g>
	<circle style="fill:#F46B27;" cx="128" cy="290.133" r="17.067"/>
	<circle style="fill:#F46B27;" cx="230.4" cy="349.867" r="17.067"/>
	<circle style="fill:#F46B27;" cx="332.8" cy="247.467" r="17.067"/>
</g>
<g>
	<circle style="fill:#FDB62F;" cx="128" cy="179.2" r="17.067"/>
	<circle style="fill:#FDB62F;" cx="221.867" cy="76.8" r="17.067"/>
	<circle style="fill:#FDB62F;" cx="332.8" cy="110.933" r="17.067"/>
</g>
<g>
	<path style="fill:#4398D1;" d="M512,443.733H25.6c-4.71,0-8.533-3.823-8.533-8.533V0h17.067v426.667H512V443.733z"/>
	<rect y="324.267" style="fill:#4398D1;" width="25.6" height="17.067"/>
	<rect y="221.867" style="fill:#4398D1;" width="25.6" height="17.067"/>
	<rect y="119.467" style="fill:#4398D1;" width="25.6" height="17.067"/>
	<rect x="324.267" y="435.2" style="fill:#4398D1;" width="17.067" height="25.6"/>
	<rect x="221.867" y="435.2" style="fill:#4398D1;" width="17.067" height="25.6"/>
	<rect x="119.467" y="435.2" style="fill:#4398D1;" width="17.067" height="25.6"/>
	<rect x="426.667" y="435.2" style="fill:#4398D1;" width="17.067" height="25.6"/>
</g>
<g>
	<rect x="162.133" y="494.933" style="fill:#87CED9;" width="17.067" height="17.067"/>
	<rect x="196.267" y="494.933" style="fill:#87CED9;" width="17.067" height="17.067"/>
	<rect x="230.4" y="494.933" style="fill:#87CED9;" width="17.067" height="17.067"/>
	<rect x="264.533" y="494.933" style="fill:#87CED9;" width="17.067" height="17.067"/>
	<rect x="298.667" y="494.933" style="fill:#87CED9;" width="17.067" height="17.067"/>
	<rect x="332.8" y="494.933" style="fill:#87CED9;" width="17.067" height="17.067"/>
</g>
<rect y="17.067" style="fill:#4398D1;" width="25.6" height="17.067"/>
<circle style="fill:#F46B27;" cx="435.2" cy="332.8" r="17.067"/>
<circle style="fill:#FDB62F;" cx="435.2" cy="51.2" r="17.067"/>
<path d="M34.133,395.861l77.995-85.845c9.634,7.996,23.689,7.671,32.939-0.768l60.331,45.227
	c3.004,13.815,16.64,22.579,30.455,19.575c11.46-2.492,19.763-12.459,20.147-24.183c0-1.579-0.171-3.149-0.512-4.693l66.901-74.325
	c3.285,1.425,6.827,2.185,10.411,2.219c6.042-0.043,11.878-2.219,16.469-6.144l62.549,55.552c-1.434,3.251-2.193,6.767-2.219,10.325
	c0,14.14,11.46,25.6,25.6,25.6c14.14,0,25.6-11.46,25.6-25.6s-11.46-25.6-25.6-25.6c-4.045,0.034-8.021,1.033-11.605,2.901
	L358.4,251.819c0.128-1.451,0.128-2.901,0-4.352c0-14.14-11.46-25.6-25.6-25.6s-25.6,11.46-25.6,25.6
	c0.034,4.019,1.024,7.97,2.901,11.52l-63.829,70.912c-4.506-3.61-10.095-5.598-15.872-5.632c-8.653,0.026-16.717,4.42-21.419,11.691
	L153.6,294.059c0.128-1.306,0.128-2.62,0-3.925c0-14.14-11.46-25.6-25.6-25.6c-14.14,0-25.6,11.46-25.6,25.6
	c0,1.579,0.171,3.149,0.512,4.693l-68.779,75.605v-93.867l82.347-74.837c3.55,1.903,7.492,2.953,11.52,3.072
	c14.14,0,25.6-11.46,25.6-25.6c0-1.604-0.171-3.209-0.512-4.779l64.427-72.021c1.451,0.128,2.901,0.128,4.352,0
	c6.869-0.009,13.449-2.773,18.261-7.68l68.267,22.699c3.977,13.568,18.202,21.342,31.77,17.365
	c11.938-3.499,19.635-15.07,18.236-27.435l59.733-37.376c10.539,9.421,26.726,8.525,36.147-2.014
	c9.421-10.547,8.525-26.726-2.014-36.156s-26.726-8.525-36.147,2.014c-4.275,4.779-6.596,10.982-6.519,17.382
	c-0.085,1.195-0.085,2.389,0,3.584L349.867,92.16c-10.419-9.557-26.615-8.849-36.173,1.579c-1.69,1.843-3.106,3.934-4.19,6.187
	l-62.037-20.821c0.043-0.768,0.043-1.536,0-2.304c0.094-14.14-11.29-25.677-25.429-25.771c-14.14-0.094-25.677,11.29-25.771,25.429
	c-0.043,6.161,2.142,12.126,6.144,16.802l-58.624,65.963c-4.463-3.627-10.035-5.615-15.787-5.623c-14.14,0-25.6,11.46-25.6,25.6
	c0.009,3.593,0.794,7.151,2.304,10.411l-70.571,64.171V0H17.067v17.067H0v17.067h17.067v85.333H0v17.067h17.067v85.333H0v17.067
	h17.067v85.333H0v17.067h17.067V435.2c0,4.71,3.823,8.533,8.533,8.533h93.867V460.8h17.067v-17.067h85.333V460.8h17.067v-17.067
	h85.333V460.8h17.067v-17.067h85.333V460.8h17.067v-17.067H512v-17.067H34.133V395.861z M435.2,324.267
	c4.71,0,8.533,3.823,8.533,8.533s-3.823,8.533-8.533,8.533s-8.533-3.823-8.533-8.533S430.49,324.267,435.2,324.267z M332.8,238.933
	c4.71,0,8.533,3.823,8.533,8.533S337.51,256,332.8,256s-8.533-3.823-8.533-8.533S328.09,238.933,332.8,238.933z M230.4,341.333
	c4.71,0,8.533,3.823,8.533,8.533c0,4.71-3.823,8.533-8.533,8.533s-8.533-3.823-8.533-8.533
	C221.867,345.156,225.69,341.333,230.4,341.333z M128,281.6c4.71,0,8.533,3.823,8.533,8.533c0,4.71-3.823,8.533-8.533,8.533
	c-4.71,0-8.533-3.823-8.533-8.533C119.467,285.423,123.29,281.6,128,281.6z M435.2,42.667c4.71,0,8.533,3.823,8.533,8.533
	s-3.823,8.533-8.533,8.533s-8.533-3.823-8.533-8.533S430.49,42.667,435.2,42.667z M332.8,102.4c4.71,0,8.533,3.823,8.533,8.533
	c0,4.71-3.823,8.533-8.533,8.533s-8.533-3.823-8.533-8.533C324.267,106.223,328.09,102.4,332.8,102.4z M221.867,68.267
	c4.71,0,8.533,3.823,8.533,8.533s-3.823,8.533-8.533,8.533c-4.71,0-8.533-3.823-8.533-8.533S217.156,68.267,221.867,68.267z
	 M128,170.667c4.71,0,8.533,3.823,8.533,8.533s-3.823,8.533-8.533,8.533c-4.71,0-8.533-3.823-8.533-8.533
	S123.29,170.667,128,170.667z"/>
<rect x="162.133" y="494.933" width="17.067" height="17.067"/>
<rect x="196.267" y="494.933" width="17.067" height="17.067"/>
<rect x="230.4" y="494.933" width="17.067" height="17.067"/>
<rect x="264.533" y="494.933" width="17.067" height="17.067"/>
<rect x="298.667" y="494.933" width="17.067" height="17.067"/>
<rect x="332.8" y="494.933" width="17.067" height="17.067"/>
<g>
</g>
<g>
</g>
<g>
</g>
<g>
</g>
<g>
</g>
<g>
</g>
<g>
</g>
<g>
</g>
<g>
</g>
<g>
</g>
<g>
</g>
<g>
</g>
<g>
</g>
<g>
</g>
<g>
</g>
</svg>
