<?xml version="1.0" encoding="iso-8859-1"?>
<!-- Generator: Adobe Illustrator 19.0.0, SVG Export Plug-In . SVG Version: 6.00 Build 0)  -->
<svg version="1.1" id="Capa_1" xmlns="http://www.w3.org/2000/svg" xmlns:xlink="http://www.w3.org/1999/xlink" x="0px" y="0px"
	 viewBox="0 0 511.998 511.998" style="enable-background:new 0 0 511.998 511.998;" xml:space="preserve">
<path style="fill:#4398D1;" d="M404.385,214.316C404.317,124.936,331.802,52.531,242.421,52.6
	c-89.389,0.068-161.794,72.583-161.725,161.972c0.043,55.044,28.059,106.289,74.363,136.035
	c17.326,11.235,27.803,30.461,27.854,51.109l0,0v42.591c0,14.115,11.44,25.554,25.554,25.554h68.145
	c14.115,0,25.554-11.44,25.554-25.554v-42.591l0,0c-0.153-20.614,10.222-39.882,27.514-51.109
	C376.199,320.887,404.36,269.514,404.385,214.316z"/>
<path style="fill:#3E8CC7;" d="M340.499,85.522c-7.496,161.163-91.059,270.707-157.586,333.23v25.554
	c0,14.115,11.44,25.554,25.554,25.554h68.145c14.115,0,25.554-11.44,25.554-25.554v-42.591
	c-0.153-20.614,10.222-39.882,27.514-51.109c75.292-48.179,97.269-148.267,49.09-223.559
	C368.549,111.068,355.593,97.013,340.499,85.522z"/>
<polygon style="fill:#C95994;" points="251.059,256.907 276.613,325.052 234.022,325.052 208.468,256.907 "/>
<g>
	<path style="fill:#FFA83D;" d="M455.494,78.026L455.494,78.026c-2.896-17.479-16.593-31.176-34.073-34.073l0,0
		c17.479-2.896,31.176-16.593,34.073-34.073l0,0c2.896,17.479,16.593,31.176,34.073,34.073l0,0
		C472.088,46.85,458.39,60.547,455.494,78.026z"/>
	<path style="fill:#FFA83D;" d="M55.141,469.861L55.141,469.861c-2.896-17.479-16.593-31.176-34.073-34.073l0,0
		c17.479-2.896,31.176-16.593,34.073-34.073l0,0c2.896,17.479,16.593,31.176,34.073,34.073l0,0
		C71.735,438.684,58.038,452.382,55.141,469.861z"/>
	<path style="fill:#FFA83D;" d="M153.867,407.934c-5.452-2.47-10.733-5.196-15.844-8.007l8.518-14.907
		c4.77,2.726,9.625,5.196,14.566,7.496L153.867,407.934z M332.748,407.167l-7.326-15.418c4.941-2.385,9.796-4.941,14.481-7.581
		l8.518,14.736c-4.685,2.811-9.966,5.707-15.333,8.263H332.748z M123.287,390.557c-4.855-3.322-9.711-6.9-14.225-10.563
		l10.733-13.288c4.174,3.407,8.518,6.729,13.033,9.796L123.287,390.557z M364.095,389.449l-9.711-14.055
		c4.515-3.067,8.518-6.389,13.033-9.796l10.818,13.118c-4.855,3.748-9.626,7.326-14.481,10.733L364.095,389.449z M95.773,368.239
		c-4.259-4.089-8.518-8.518-12.351-12.777l12.777-11.244c3.578,4.004,7.411,8.007,11.329,11.755L95.773,368.239z M391.438,366.876
		l-12.607-12.181c3.918-3.833,7.752-7.837,11.244-11.84l12.862,11.159c-3.492,4.429-7.581,8.774-11.84,12.862H391.438z
		 M72.178,342.089c-3.578-4.77-6.985-9.711-10.051-14.651l14.481-9.029c2.811,4.6,5.963,9.114,9.2,13.459L72.178,342.089z
		 M414.607,340.47l-13.714-10.051c3.237-4.429,6.218-8.944,9.114-13.544l14.481,8.518c-3.067,5.026-6.644,9.966-10.137,14.736
		L414.607,340.47z M53.097,311.679c-2.726-5.196-5.196-10.648-7.411-16.099l15.673-6.474c2.155,5,4.455,9.941,6.9,14.822
		L53.097,311.679z M432.921,309.89l-15.247-7.581c2.47-4.941,4.685-9.966,6.729-14.907l15.759,6.303
		C438.458,299.498,435.562,304.609,432.921,309.89z M39.553,278.969c-1.789-5.622-3.322-11.414-4.685-17.036l17.036-3.833
		c1.278,5.281,2.641,10.562,4.344,15.759L39.553,278.969z M446.124,277.01l-16.184-5.026c1.533-5.111,2.981-10.477,4.089-15.759
		l17.036,3.578C449.361,265.425,447.828,271.388,446.124,277.01z M31.717,244.386c-0.852-5.792-1.448-11.755-1.789-17.633
		l17.036-1.022c0,5.452,0.852,10.903,1.618,16.27L31.717,244.386z M453.62,242.341l-17.036-2.215
		c0.681-5.366,1.193-10.818,1.448-16.27l17.036,0.852C454.983,230.586,454.387,236.549,453.62,242.341z M46.623,209.376H29.587
		c0-5.963,0.511-11.925,1.107-17.718l17.036,1.789C47.134,198.473,46.623,204.01,46.623,209.376z M438.458,207.587
		c0-5.452-0.596-10.988-1.278-16.355l17.036-1.959c0.681,5.878,1.107,11.755,1.363,17.718L438.458,207.587z M50.201,177.007
		l-17.036-3.237c1.107-5.792,2.555-11.585,4.089-17.036l16.44,4.6C52.501,166.359,51.223,171.726,50.201,177.007z M434.54,175.133
		c-1.107-5.281-2.385-10.563-3.918-15.844l16.355-4.6c1.704,5.707,3.067,11.499,4.259,17.036L434.54,175.133z M58.975,145.66
		l-15.929-6.048c2.044-5.452,4.344-10.903,6.9-16.27l15.418,7.24C63.097,135.294,60.968,140.319,58.975,145.66z M425.255,143.871
		c-1.959-5.026-4.174-10.051-6.474-14.992l15.333-7.411c2.555,5.281,4.941,10.818,6.985,16.27L425.255,143.871z M72.944,116.102
		l-14.736-8.518c2.981-5.026,6.133-10.137,9.54-14.992l13.97,9.796C78.652,106.818,75.67,111.502,72.944,116.102z M411.2,114.569
		c-2.726-4.685-5.792-9.285-8.518-13.714l13.885-9.881c3.492,4.855,6.729,9.796,9.711,14.907L411.2,114.569z M91.599,89.015
		L78.481,78.197c3.748-4.515,7.752-8.944,11.925-13.203l12.181,11.925c-3.833,4.259-7.496,8.348-10.988,12.436V89.015z
		 M392.29,87.652c-3.492-4.174-7.155-8.518-11.074-12.011l12.096-11.67c4.174,4.174,8.518,8.518,12.011,13.033L392.29,87.652z
		 M114.768,66.101l-11.499-12.948c4.515-3.833,9.114-7.496,13.885-10.988l10.051,13.714
		C123.287,59.116,118.516,62.523,114.768,66.101z M369.631,64.908c-4.174-3.492-8.518-6.9-12.862-10.051l9.881-13.885
		c4.855,3.492,9.54,7.155,13.97,10.903L369.631,64.908z M140.749,46.85l-8.944-14.566c5.111-3.067,10.307-5.963,15.503-8.518
		l7.666,15.247C150.204,41.458,145.468,44.064,140.749,46.85z M342.714,45.913c-4.6-2.726-9.455-5.366-14.31-7.752l7.837-15.333
		c5.366,2.641,10.648,5.452,15.673,8.518L342.714,45.913z M169.966,32.284l-6.389-15.844c5.537-2.13,11.159-4.174,17.036-5.878
		l4.685,16.355C180.188,28.451,174.992,30.325,169.966,32.284z M313.412,31.602c-5.026-1.959-10.222-3.663-15.418-5.281l4.77-16.44
		c5.707,1.618,11.329,3.578,17.036,5.707L313.412,31.602z M201.142,23.084l-3.663-16.61c5.792-1.286,11.653-2.283,17.547-2.981
		l2.13,17.036c-5.366,0.17-10.733,1.107-16.014,2.215V23.084z M282.15,23.084c-5.366-1.107-10.733-1.959-16.099-2.641l2.044-17.036
		c5.792,0.681,11.67,1.618,17.036,2.811L282.15,23.084z M233.426,18.399L232.66,1.363c5.878,0,11.84,0,17.718,0l-0.596,17.036
		C244.329,18.399,238.878,18.399,233.426,18.399z"/>
</g>
<path style="fill:#D9D9D9;" d="M208.468,469.861h68.145l0,0l0,0c0,18.817-15.256,34.073-34.073,34.073l0,0
	C223.724,503.933,208.468,488.677,208.468,469.861L208.468,469.861L208.468,469.861z"/>
<g>
	<rect x="208.468" y="342.089" style="fill:#3582BD;" width="17.036" height="59.627"/>
	<rect x="259.577" y="350.607" style="fill:#3582BD;" width="17.036" height="51.109"/>
</g>
<g>
	<path style="fill:#D9D9D9;" d="M182.914,444.306c0,14.115,11.44,25.554,25.554,25.554h68.145c14.115,0,25.554-11.44,25.554-25.554
		v-8.518H182.914V444.306z"/>
	<rect x="182.914" y="401.716" style="fill:#D9D9D9;" width="119.254" height="34.073"/>
</g>
<g>
	<path style="fill:#D1D1D1;" d="M302.168,401.716h-25.554c-14.268,14.489-31.219,26.066-49.916,34.073h75.471V401.716z"/>
	<path style="fill:#D1D1D1;" d="M276.613,435.788c-14.268,14.489-31.219,26.066-49.916,34.073h49.916
		c14.115,0,25.554-11.44,25.554-25.554v-8.518H276.613z"/>
</g>
<path style="fill:#87CED9;" d="M251.059,256.907l25.554,68.145h8.518c38.936-0.009,71.586-29.422,75.641-68.145l0,0H251.059z"/>
<path style="fill:#6CBBC7;" d="M260.599,282.462l6.474,17.036h74.874c4.515-5.153,8.322-10.886,11.329-17.036H260.599z"/>
<g>
	<polygon style="fill:#DB6EA2;" points="361.795,180.244 361.795,184.418 361.795,184.503 	"/>
	<path style="fill:#DB6EA2;" d="M361.795,186.718v-2.3c-0.094-25.818-21.031-46.722-46.85-46.765
		c-3.535,0.026-7.053,0.477-10.477,1.363h-0.681c-1.499,0.281-2.973,0.647-4.429,1.107l0,0c-0.528,0.221-1.039,0.477-1.533,0.767
		c-12.224-30.58-46.918-45.461-77.498-33.238c-15.162,6.056-27.173,18.076-33.238,33.238l0,0
		c-23.919-9.498-51.007,2.189-60.504,26.108c-3.279,8.263-4.131,17.292-2.445,26.023c-16.466,9.106-22.428,29.839-13.322,46.305
		c5.946,10.75,17.224,17.471,29.507,17.581h200.176c21.168-0.009,38.323-17.181,38.315-38.349
		C378.805,205.773,372.425,193.83,361.795,186.718z"/>
</g>
<path style="fill:#D46198;" d="M361.795,186.718v-2.3c0.094-18.305-10.537-34.958-27.173-42.591
	c-5.528,39.959-17.309,78.793-34.924,115.08h40.802c21.168-0.009,38.323-17.181,38.315-38.349
	C378.805,205.773,372.425,193.83,361.795,186.718z"/>
<g>
	<path style="fill:#C95994;" d="M370.313,182.459v-2.215l0,0c-2.181-28.825-26.202-51.1-55.112-51.109
		c-4.225,0.068-8.424,0.613-12.522,1.618c-17.965-33.076-59.337-45.325-92.405-27.36c-11.568,6.286-21.074,15.784-27.36,27.36
		c-4.182-1.031-8.467-1.576-12.777-1.618c-30.563,0.051-55.317,24.805-55.368,55.368c0,1.448,0,2.811,0,4.259
		c-18.817,14.115-22.633,40.81-8.518,59.627c8.041,10.724,20.665,17.036,34.073,17.036h200.176
		c25.878-0.017,46.841-21.006,46.824-46.875C387.315,204.589,381.08,191.352,370.313,182.459z M340.499,248.389h-80.922
		c-16.466,0-29.813-13.348-29.813-29.813s13.348-29.814,29.813-29.814v-17.036c-25.853,0.051-46.799,20.997-46.85,46.85
		c-0.026,10.886,3.774,21.44,10.733,29.813h-23.51c0-23.519-19.072-42.591-42.591-42.591v17.036
		c14.115,0,25.554,11.44,25.554,25.554h-42.591c-14.115,0-25.554-11.44-25.554-25.554c0-14.115,11.44-25.554,25.554-25.554v-17.036
		c-2.862,0-5.716,0.281-8.518,0.852c1.772-19.83,18.425-35.001,38.332-34.924c4.719-0.017,9.396,0.852,13.799,2.555
		c5.264,2.095,10,5.324,13.885,9.455c-4.165,6.61-6.38,14.251-6.389,22.062h17.036c0-14.115,11.44-25.554,25.554-25.554v-17.036
		c-8.867,0.034-17.505,2.828-24.703,8.007c-3.16-3.262-6.712-6.116-10.563-8.518c14.558-24.183,45.964-31.977,70.147-17.42
		c15.264,9.191,24.643,25.665,24.745,43.485h17.036c-0.009-5.579-0.724-11.125-2.13-16.525c2.112-0.341,4.251-0.511,6.389-0.511
		c21.134,0,38.281,17.113,38.332,38.246v2.3c0,2.837,1.397,5.486,3.748,7.07c13.689,9.148,17.368,27.667,8.22,41.356
		C359.725,243.406,350.44,248.372,340.499,248.389z"/>
	<path style="fill:#C95994;" d="M293.649,180.244v17.036c14.115,0,25.554,11.44,25.554,25.554h17.036
		C336.24,199.316,317.177,180.244,293.649,180.244z"/>
</g>
<g>
	<rect x="182.914" y="427.27" style="fill:#D1D1D1;" width="119.254" height="8.518"/>
	<path style="fill:#D1D1D1;" d="M275.421,478.379c0.75-2.777,1.15-5.639,1.193-8.518h-68.145c0.043,2.879,0.443,5.741,1.193,8.518
		H275.421z"/>
</g>
<path d="M370.313,182.459v-2.215l0,0c-2.181-28.825-26.202-51.1-55.112-51.109c-4.225,0.068-8.424,0.613-12.522,1.618
	c-17.965-33.076-59.337-45.325-92.405-27.36c-11.568,6.286-21.074,15.784-27.36,27.36c-4.182-1.031-8.467-1.576-12.777-1.618
	c-30.563,0.051-55.317,24.805-55.368,55.368c0,1.448,0,2.811,0,4.259c-18.817,14.115-22.633,40.81-8.518,59.627
	c8.041,10.724,20.665,17.036,34.073,17.036h62.268l23.425,62.608c1.244,3.339,4.446,5.545,8.007,5.537h51.109
	c43.153,0.043,79.423-32.403,84.159-75.3v-3.067c20.316-15.946,23.859-45.342,7.913-65.658
	C375.168,186.948,372.851,184.571,370.313,182.459z M239.9,316.534l-19.166-51.109h24.447l19.166,51.109H239.9z M285.131,316.534
	h-2.641l-6.389-17.036h53.92C317.654,310.486,301.682,316.551,285.131,316.534z M343.821,282.462h-74.108l-6.389-17.036h77.174
	c3.527-0.009,7.036-0.409,10.477-1.193C349.452,270.613,347.041,276.746,343.821,282.462z M340.499,248.389h-80.922
	c-16.466,0-29.813-13.348-29.813-29.813s13.348-29.814,29.813-29.814v-17.036c-25.853,0.051-46.799,20.997-46.85,46.85
	c-0.026,10.886,3.774,21.44,10.733,29.813h-23.51c0-23.519-19.072-42.591-42.591-42.591v17.036c14.115,0,25.554,11.44,25.554,25.554
	h-42.591c-14.115,0-25.554-11.44-25.554-25.554c0-14.115,11.44-25.554,25.554-25.554v-17.036c-2.862,0-5.716,0.281-8.518,0.852
	c1.772-19.83,18.425-35.001,38.332-34.924c4.719-0.017,9.396,0.852,13.799,2.555c5.264,2.095,10,5.324,13.885,9.455
	c-4.165,6.61-6.38,14.251-6.389,22.062h17.036c0-14.115,11.44-25.554,25.554-25.554v-17.036c-8.867,0.034-17.505,2.828-24.703,8.007
	c-3.16-3.262-6.712-6.116-10.563-8.518c14.558-24.183,45.964-31.977,70.147-17.42c15.264,9.191,24.643,25.665,24.745,43.485h17.036
	c-0.009-5.579-0.724-11.125-2.13-16.525c2.112-0.341,4.251-0.511,6.389-0.511c21.134,0,38.281,17.113,38.332,38.246v2.3
	c0,2.837,1.397,5.486,3.748,7.07c13.689,9.148,17.368,27.667,8.22,41.356C359.725,243.406,350.44,248.372,340.499,248.389z"/>
<path d="M293.649,180.244v17.036c14.115,0,25.554,11.44,25.554,25.554h17.036C336.24,199.316,317.177,180.244,293.649,180.244z"/>
<path d="M490.93,35.435c-13.774-2.36-24.558-13.143-26.917-26.917c0-4.702-3.816-8.518-8.518-8.518s-8.518,3.816-8.518,8.518
	c-2.36,13.774-13.143,24.558-26.917,26.917c-4.702,0-8.518,3.816-8.518,8.518s3.816,8.518,8.518,8.518
	c13.774,2.36,24.558,13.143,26.917,26.917c0,4.702,3.816,8.518,8.518,8.518s8.518-3.816,8.518-8.518
	c2.36-13.774,13.143-24.558,26.917-26.917c4.702,0,8.518-3.816,8.518-8.518S495.64,35.435,490.93,35.435z M455.494,56.135
	c-3.305-4.753-7.428-8.876-12.181-12.181c4.753-3.305,8.876-7.428,12.181-12.181c3.305,4.753,7.428,8.876,12.181,12.181
	C462.922,47.259,458.799,51.381,455.494,56.135z"/>
<path d="M12.551,435.788c-0.051,4.216,2.99,7.845,7.155,8.518c13.774,2.36,24.558,13.143,26.917,26.917
	c0,4.702,3.816,8.518,8.518,8.518s8.518-3.816,8.518-8.518c2.36-13.774,13.143-24.558,26.917-26.917
	c4.702,0,8.518-3.816,8.518-8.518s-3.816-8.518-8.518-8.518c-13.774-2.36-24.558-13.143-26.917-26.917
	c0-4.702-3.816-8.518-8.518-8.518s-8.518,3.816-8.518,8.518c-2.36,13.774-13.143,24.558-26.917,26.917
	C15.541,427.943,12.5,431.572,12.551,435.788z M55.141,423.607c3.305,4.753,7.428,8.876,12.181,12.181
	c-4.753,3.305-8.876,7.428-12.181,12.181c-3.305-4.753-7.428-8.876-12.181-12.181C47.714,432.483,51.836,428.36,55.141,423.607z"/>
<path d="M403.278,354.014l-12.862-11.159c-3.492,4.004-7.326,8.007-11.244,11.84l11.925,12.181
	C395.356,362.788,399.445,358.443,403.278,354.014z"/>
<path d="M430.621,159.289c1.533,5.281,2.811,10.563,3.918,15.844l17.036-3.322c-1.193-5.792-2.555-11.585-4.259-17.036
	L430.621,159.289z"/>
<path d="M440.162,293.706l-15.759-6.303c-2.044,4.941-4.259,9.966-6.729,14.907l15.247,7.581
	C435.562,304.609,438.458,299.498,440.162,293.706z"/>
<path d="M380.279,51.875c-4.429-3.748-9.114-7.411-13.97-10.903l-9.881,13.885c4.429,3.152,8.518,6.559,12.862,10.051
	L380.279,51.875z"/>
<path d="M336.24,22.829l-7.411,15.333c4.855,2.385,9.711,5.026,14.31,7.752l8.518-14.651
	C346.462,28.28,341.181,25.469,336.24,22.829z"/>
<path d="M424.233,325.052l-14.481-8.518c-2.896,4.6-5.878,9.114-9.114,13.544l13.714,10.051
	C417.844,335.359,421.422,330.419,424.233,325.052z"/>
<path d="M402.256,100.855c3.152,4.429,6.218,9.029,8.518,13.714l14.651-8.518c-2.981-5.111-6.218-10.051-9.711-14.907
	L402.256,100.855z"/>
<path d="M450.639,259.803l-17.036-3.578c-1.107,5.281-2.555,10.648-4.089,15.759l16.27,5.026
	C447.828,271.388,449.361,265.425,450.639,259.803z"/>
<path d="M454.046,189.273l-17.036,1.959c0.681,5.366,1.022,10.903,1.278,16.355l17.036-0.596
	C455.494,201.028,454.728,195.151,454.046,189.273z"/>
<path d="M418.951,129.135c2.3,4.941,4.515,9.966,6.474,14.992l15.844-6.474c-2.044-5.452-4.429-10.988-6.985-16.27L418.951,129.135z
	"/>
<path d="M455.494,224.709l-17.036-0.852c0,5.452-0.767,10.903-1.448,16.27l17.036,2.215
	C454.387,236.549,454.983,230.586,455.494,224.709z"/>
<path d="M302.764,9.881l-4.77,16.27c5.196,1.618,10.392,3.322,15.418,5.281l5.792-15.673
	C314.093,13.629,308.471,11.67,302.764,9.881z"/>
<path d="M381.216,75.982c3.918,3.833,7.581,7.837,11.074,12.011l13.033-10.988c-3.748-4.515-7.837-8.518-12.011-13.033
	L381.216,75.982z"/>
<path d="M215.027,3.152c-5.895,0.698-11.755,1.695-17.547,2.981l3.663,16.61c5.281-1.107,10.648-2.044,16.014-2.726L215.027,3.152z"
	/>
<path d="M58.208,107.584l14.736,8.518c2.726-4.6,5.707-9.285,8.518-13.714l-13.97-9.796
	C64.341,97.448,61.189,102.558,58.208,107.584z"/>
<path d="M102.588,77.26L90.407,65.334c-4.174,4.259-8.518,8.518-11.925,13.203l13.118,10.818
	C95.092,85.267,98.754,81.178,102.588,77.26z"/>
<path d="M45.686,295.58c2.215,5.452,4.685,10.903,7.411,16.099l15.162-7.751c-2.445-4.83-4.745-9.77-6.9-14.822L45.686,295.58z"/>
<path d="M85.551,331.526c-3.237-4.344-6.389-8.518-9.2-13.459l-14.481,9.029c3.067,4.941,6.474,9.881,10.051,14.651L85.551,331.526z
	"/>
<path d="M138.023,399.927c5.111,2.811,10.392,5.537,15.844,8.007l7.07-15.418c-4.941-2.3-9.796-4.77-14.566-7.496L138.023,399.927z"
	/>
<path d="M108.721,379.994c4.515,3.663,9.37,7.24,14.225,10.563l9.54-14.396c-4.429-3.067-8.518-6.389-13.033-9.796L108.721,379.994z
	"/>
<path d="M363.754,389.449c4.855-3.407,9.626-6.985,14.14-10.733l-10.818-13.118c-4.174,3.407-8.518,6.729-13.033,9.796
	L363.754,389.449z"/>
<path d="M333.089,407.167c5.366-2.555,10.648-5.366,15.673-8.518l-8.518-14.736c-4.685,2.641-9.54,5.196-14.481,7.581
	L333.089,407.167z"/>
<path d="M55.823,273.943c-1.704-5.196-3.067-10.477-4.344-15.759l-16.61,3.833c1.363,5.707,2.896,11.5,4.685,17.036L55.823,273.943z
	"/>
<path d="M268.095,2.896l-2.044,17.036c5.366,0.681,10.733,1.533,16.099,2.641l3.407-17.036
	C279.765,4.515,273.887,3.578,268.095,2.896z"/>
<path d="M117.154,42.165c-4.77,3.492-9.37,7.155-13.885,10.988l11.499,12.948c4.089-3.578,8.518-6.985,12.777-10.222L117.154,42.165
	z"/>
<path d="M180.358,10.562c-5.622,1.704-11.244,3.748-17.036,5.878l6.389,15.844c5.026-1.959,10.222-3.833,15.333-5.366
	L180.358,10.562z"/>
<path d="M29.587,226.753c0,5.878,0.937,11.84,1.789,17.633L48.412,242c-0.596-5.366-1.107-10.648-1.789-16.27L29.587,226.753z"/>
<path d="M250.377,1.363c-5.878,0-11.84,0-17.718,0l0.767,17.036c5.452,0,10.903,0,16.355,0L250.377,1.363z"/>
<path d="M147.393,23.68c-5.196,2.641-10.392,5.537-15.503,8.518l8.518,14.566c4.659-2.837,9.43-5.477,14.31-7.922L147.393,23.68z"/>
<path d="M33.42,173.77l17.036,3.237c1.022-5.366,2.3-10.648,3.748-15.929l-16.44-4.6C35.976,162.185,34.528,167.978,33.42,173.77z"
	/>
<path d="M43.046,139.612l15.929,6.048c1.985-5.111,4.114-10.137,6.389-15.077l-15.418-7.24
	C47.39,129.135,45.09,134.161,43.046,139.612z"/>
<path d="M29.587,209.035h17.036c0-5.366,0.426-10.903,1.022-16.27l-17.036-1.789C30.183,197.28,29.587,203.073,29.587,209.035z"/>
<path d="M95.858,344.218l-12.777,11.244c3.918,4.429,8.518,8.518,12.351,12.777l11.755-12.266
	C103.269,352.225,99.436,348.222,95.858,344.218z"/>
<path d="M356.087,87.311c-69.866-63.017-177.595-57.472-240.612,12.394S58.012,277.3,127.878,340.317
	c7.036,6.346,14.592,12.096,22.582,17.19c15.017,9.677,24.047,26.347,23.936,44.209v42.591c0.017,15.818,10.92,29.541,26.321,33.136
	c4.446,23.101,26.773,38.221,49.865,33.783c17.113-3.288,30.486-16.67,33.783-33.783c15.401-3.595,26.304-17.317,26.321-33.136
	v-42.591c-0.162-17.718,8.74-34.294,23.595-43.954c79.253-50.708,102.405-156.061,51.697-235.314
	C377.655,109.433,367.604,97.609,356.087,87.311z M242.541,495.415c-10.835,0.009-20.495-6.823-24.106-17.036h48.213
	C263.035,488.592,253.376,495.424,242.541,495.415z M276.613,461.343h-68.145c-9.413,0-17.036-7.624-17.036-17.036h102.218
	C293.649,453.719,286.026,461.343,276.613,461.343z M293.649,427.27H191.432v-17.036h102.218V427.27z M325.081,343.366
	c-17.292,11.099-28.655,29.405-30.921,49.831h-17.547v-42.591h-17.036v42.591h-34.073v-51.109h-17.036v51.109h-17.547
	c-2.402-20.512-13.876-38.86-31.262-50.001c-71.152-45.913-91.604-140.813-45.691-211.965
	c24.796-38.417,65.445-63.767,110.855-69.133c5.878-0.698,11.798-1.073,17.718-1.107c37.744-0.187,74.193,13.723,102.218,39.013
	c63.094,56.484,68.452,153.412,11.968,216.506c-9.259,10.341-19.873,19.37-31.56,26.858L325.081,343.366L325.081,343.366z"/>
<g>
</g>
<g>
</g>
<g>
</g>
<g>
</g>
<g>
</g>
<g>
</g>
<g>
</g>
<g>
</g>
<g>
</g>
<g>
</g>
<g>
</g>
<g>
</g>
<g>
</g>
<g>
</g>
<g>
</g>
</svg>
