<?xml version="1.0" encoding="iso-8859-1"?>
<!-- Generator: Adobe Illustrator 19.0.0, SVG Export Plug-In . SVG Version: 6.00 Build 0)  -->
<svg version="1.1" id="Capa_1" xmlns="http://www.w3.org/2000/svg" xmlns:xlink="http://www.w3.org/1999/xlink" x="0px" y="0px"
	 viewBox="0 0 511.999 511.999" style="enable-background:new 0 0 511.999 511.999;" xml:space="preserve">
<path id="SVGCleanerId_0" style="fill:#FA962A;" d="M421.747,83.856H208.636c-6.843-0.009-13.41-2.728-18.247-7.574l-27.887-27.887
	c-4.837-4.846-11.404-7.566-18.247-7.574H34.429c-14.262,0-25.821,11.559-25.821,25.821v404.532h413.139l25.821-94.678V109.678
	C447.568,95.416,436.009,83.856,421.747,83.856z"/>
<g>
	<path id="SVGCleanerId_0_1_" style="fill:#FA962A;" d="M421.747,83.856H208.636c-6.843-0.009-13.41-2.728-18.247-7.574
		l-27.887-27.887c-4.837-4.846-11.404-7.566-18.247-7.574H34.429c-14.262,0-25.821,11.559-25.821,25.821v404.532h413.139
		l25.821-94.678V109.678C447.568,95.416,436.009,83.856,421.747,83.856z"/>
</g>
<rect x="60.25" y="135.499" style="fill:#EBEBEB;" width="335.676" height="284.033"/>
<g>
	<rect x="103.285" y="178.534" style="fill:#BDBDBD;" width="17.214" height="68.857"/>
	<rect x="146.32" y="178.534" style="fill:#BDBDBD;" width="17.214" height="68.857"/>
	<rect x="189.356" y="178.534" style="fill:#BDBDBD;" width="17.214" height="68.857"/>
	<rect x="232.391" y="178.534" style="fill:#BDBDBD;" width="17.214" height="68.857"/>
</g>
<path style="fill:#FFA230;" d="M438.961,471.174l63.692-262.774c2.238-9.244-3.443-18.54-12.687-20.777
	c-1.317-0.318-2.66-0.482-4.011-0.482H263.893c-9.132-0.009-17.894,3.615-24.358,10.07l-22.895,22.895
	c-6.464,6.455-15.226,10.079-24.358,10.07H88.997c-11.843,0-22.163,8.056-25.047,19.538L8.607,471.174H438.961z"/>
<path style="fill:#FDB62F;" d="M438.961,471.174l63.692-262.774c2.238-9.244-3.443-18.54-12.687-20.777
	c-1.317-0.318-2.66-0.482-4.011-0.482H263.893c-9.132-0.009-17.894,3.615-24.358,10.07l-22.895,22.895
	c-6.464,6.455-15.226,10.079-24.358,10.07H88.997c-11.843,0-22.163,8.056-25.047,19.538L8.607,471.174H438.961z"/>
<path style="fill:#FFA83D;" d="M485.955,187.141h-38.388C402.553,335.613,271.725,422.028,169.56,471.174h269.401l63.692-262.774
	c2.238-9.244-3.443-18.54-12.687-20.777C488.649,187.305,487.307,187.141,485.955,187.141z"/>
<path d="M1.808,476.511c1.644,2.074,4.149,3.288,6.8,3.271h430.353c4.054,0.12,7.634-2.608,8.607-6.541l63.692-262.774
	c1.876-7.686,0.138-15.803-4.734-22.034c-4.949-6.318-12.549-9.976-20.571-9.898h-29.78v-68.857
	c0-19.013-15.415-34.428-34.428-34.428H208.636c-4.562-0.017-8.926-1.842-12.136-5.078l-27.887-27.887
	c-6.49-6.404-15.235-10.019-24.358-10.07H34.429C15.416,32.214,0,47.629,0,66.642v404.532l0,0
	C-0.017,473.102,0.62,474.987,1.808,476.511z M485.955,195.748c2.617,0.009,5.087,1.214,6.714,3.271
	c1.661,2.083,2.264,4.811,1.635,7.402l-62.143,256.146H19.624L72.3,251.866c1.902-7.678,8.788-13.074,16.698-13.083h103.285
	c11.422,0.017,22.378-4.502,30.469-12.566l22.895-22.895c4.837-4.846,11.404-7.566,18.247-7.574L485.955,195.748L485.955,195.748z
	 M232.391,178.534v13.685l-21.862,21.776c-1.179,1.248-2.505,2.35-3.959,3.271v-38.732h-17.214v43.035h-25.821v-43.035H146.32
	v43.035h-25.821v-43.035h-17.214v43.035H88.997c-7.247,0.034-14.288,2.358-20.141,6.627v-84.091h318.461v34.428H263.893
	c-4.88,0.026-9.709,0.895-14.288,2.582v-2.582H232.391z M17.214,66.642c0-9.511,7.703-17.214,17.214-17.214h109.826
	c4.562,0.017,8.926,1.842,12.136,5.078l27.887,27.887c6.49,6.404,15.235,10.019,24.358,10.07h213.111
	c9.511,0,17.214,7.703,17.214,17.214v68.857h-34.428v-43.035c0-4.751-3.856-8.607-8.607-8.607H60.25
	c-4.751,0-8.607,3.856-8.607,8.607v128.073L17.214,401.285V66.642z"/>
<g>
</g>
<g>
</g>
<g>
</g>
<g>
</g>
<g>
</g>
<g>
</g>
<g>
</g>
<g>
</g>
<g>
</g>
<g>
</g>
<g>
</g>
<g>
</g>
<g>
</g>
<g>
</g>
<g>
</g>
</svg>
