<?xml version="1.0" encoding="iso-8859-1"?>
<!-- Generator: Adobe Illustrator 19.0.0, SVG Export Plug-In . SVG Version: 6.00 Build 0)  -->
<svg version="1.1" id="Capa_1" xmlns="http://www.w3.org/2000/svg" xmlns:xlink="http://www.w3.org/1999/xlink" x="0px" y="0px"
	 viewBox="0 0 512 512" style="enable-background:new 0 0 512 512;" xml:space="preserve">
<rect x="25.6" y="42.667" style="fill:#D9D9D9;" width="460.8" height="460.8"/>
<g>
	<rect x="51.2" y="68.267" style="fill:#3E8CC7;" width="93.867" height="17.067"/>
	<rect x="51.2" y="102.4" style="fill:#3E8CC7;" width="68.267" height="17.067"/>
</g>
<g>
	<rect x="8.533" y="8.533" style="fill:#4398D1;" width="494.933" height="34.133"/>
	<rect x="8.533" y="494.933" style="fill:#4398D1;" width="494.933" height="17.067"/>
</g>
<g>
	<rect x="341.333" y="460.8" style="fill:#3E8CC7;" width="17.067" height="17.067"/>
	<rect x="375.467" y="460.8" style="fill:#3E8CC7;" width="17.067" height="17.067"/>
	<rect x="409.6" y="460.8" style="fill:#3E8CC7;" width="17.067" height="17.067"/>
	<rect x="443.733" y="460.8" style="fill:#3E8CC7;" width="17.067" height="17.067"/>
</g>
<rect x="25.6" y="42.667" style="fill:#D1D1D1;" width="460.8" height="25.6"/>
<rect x="204.8" y="179.2" style="fill:#4398D1;" width="102.4" height="51.2"/>
<polygon style="fill:#87CED9;" points="196.267,307.2 256,273.067 315.733,307.2 256,341.333 "/>
<path style="fill:#DE4C3C;" d="M230.4,76.8h51.2c14.14,0,25.6,11.46,25.6,25.6l0,0c0,14.14-11.46,25.6-25.6,25.6h-51.2
	c-14.14,0-25.6-11.46-25.6-25.6l0,0C204.8,88.26,216.26,76.8,230.4,76.8z"/>
<path style="fill:#FFA83D;" d="M162.133,230.4h-31.659c-7.262,0.009-14.413,1.698-20.907,4.949l0,0
	c-15.002,7.509-32.887,6.4-46.848-2.901l-2.987-2.048v-51.2h102.4V230.4z"/>
<path style="fill:#DE4C3C;" d="M230.4,401.067h51.2c14.14,0,25.6,11.46,25.6,25.6l0,0c0,14.14-11.46,25.6-25.6,25.6h-51.2
	c-14.14,0-25.6-11.46-25.6-25.6l0,0C204.8,412.527,216.26,401.067,230.4,401.067z"/>
<rect x="349.867" y="281.6" style="fill:#4398D1;" width="102.4" height="51.2"/>
<path d="M55.04,237.483l2.987,2.048c9.105,6.033,19.797,9.242,30.72,9.216c8.559,0.026,17.007-1.963,24.661-5.803
	c5.299-2.637,11.145-4.011,17.067-4.011h31.659c4.71,0,8.533-3.823,8.533-8.533v-17.067h25.6V230.4c0,4.71,3.823,8.533,8.533,8.533
	h42.667v29.184L192,299.776c-4.096,2.321-5.538,7.535-3.217,11.631c0.759,1.34,1.877,2.458,3.217,3.217l55.467,31.659v46.251H230.4
	c-18.85,0-34.133,15.283-34.133,34.133S211.55,460.8,230.4,460.8h51.2c18.85,0,34.133-15.283,34.133-34.133
	s-15.283-34.133-34.133-34.133h-17.067v-17.067h136.533c4.71,0,8.533-3.823,8.533-8.533v-25.6h42.667
	c4.71,0,8.533-3.823,8.533-8.533v-51.2c0-4.71-3.823-8.533-8.533-8.533h-102.4c-4.71,0-8.533,3.823-8.533,8.533v17.067h-23.296
	l-53.504-30.549v-29.184H307.2c4.71,0,8.533-3.823,8.533-8.533v-51.2c0-4.71-3.823-8.533-8.533-8.533h-42.667v-34.133H281.6
	c18.85,0,34.133-15.283,34.133-34.133S300.45,68.267,281.6,68.267h-51.2c-18.85,0-34.133,15.283-34.133,34.133
	s15.283,34.133,34.133,34.133h17.067v34.133H204.8c-4.71,0-8.533,3.823-8.533,8.533v17.067h-25.6V179.2
	c0-4.71-3.823-8.533-8.533-8.533h-102.4c-4.71,0-8.533,3.823-8.533,8.533v51.2C51.217,233.259,52.659,235.913,55.04,237.483z
	 M281.6,409.6c9.429,0,17.067,7.637,17.067,17.067s-7.637,17.067-17.067,17.067h-51.2c-9.429,0-17.067-7.637-17.067-17.067
	S220.971,409.6,230.4,409.6H281.6z M358.4,315.733v-25.6h85.333v34.133H358.4V315.733z M341.333,315.733V332.8
	c0,4.71,3.823,8.533,8.533,8.533h42.667V358.4h-128v-12.117l53.504-30.549H341.333z M298.667,307.2L256,331.52l-42.667-24.32
	L256,282.88L298.667,307.2z M230.4,119.467c-9.429,0-17.067-7.637-17.067-17.067s7.637-17.067,17.067-17.067h51.2
	c9.429,0,17.067,7.637,17.067,17.067s-7.637,17.067-17.067,17.067H230.4z M213.333,187.733h85.333v34.133h-85.333V187.733z
	 M68.267,187.733H153.6v34.133h-23.125c-8.559,0.026-16.99,2.005-24.661,5.803c-11.981,5.999-26.223,5.282-37.547-1.877
	C68.267,225.792,68.267,187.733,68.267,187.733z"/>
<rect x="51.2" y="68.267" width="93.867" height="17.067"/>
<rect x="51.2" y="102.4" width="68.267" height="17.067"/>
<path d="M503.467,0H8.533C3.823,0,0,3.823,0,8.533v34.133c0,4.71,3.823,8.533,8.533,8.533h8.533v443.733H0V512h512v-17.067h-17.067
	V51.2h8.533c4.71,0,8.533-3.823,8.533-8.533V8.533C512,3.823,508.177,0,503.467,0z M477.867,494.933H34.133V51.2h443.733V494.933z
	 M494.933,34.133H17.067V17.067h477.867V34.133z"/>
<rect x="341.333" y="460.8" width="17.067" height="17.067"/>
<rect x="375.467" y="460.8" width="17.067" height="17.067"/>
<rect x="409.6" y="460.8" width="17.067" height="17.067"/>
<rect x="443.733" y="460.8" width="17.067" height="17.067"/>
<g>
</g>
<g>
</g>
<g>
</g>
<g>
</g>
<g>
</g>
<g>
</g>
<g>
</g>
<g>
</g>
<g>
</g>
<g>
</g>
<g>
</g>
<g>
</g>
<g>
</g>
<g>
</g>
<g>
</g>
</svg>
