<?xml version="1.0" encoding="iso-8859-1"?>
<!-- Generator: Adobe Illustrator 19.0.0, SVG Export Plug-In . SVG Version: 6.00 Build 0)  -->
<svg version="1.1" id="Capa_1" xmlns="http://www.w3.org/2000/svg" xmlns:xlink="http://www.w3.org/1999/xlink" x="0px" y="0px"
	 viewBox="0 0 512 512" style="enable-background:new 0 0 512 512;" xml:space="preserve">
<polygon style="fill:#FEC9A3;" points="384,366.934 443.733,307.2 332.8,196.267 256,213.334 153.6,315.734 179.2,341.334 
	145.067,375.467 253.525,483.926 297.984,440.15 307.456,448.939 "/>
<path style="fill:#F7BB8F;" d="M256,213.334l-76.8-17.067L68.267,307.2l68.267,68.267l131.157,117.504
	c7.817,8.098,20.454,9.088,29.44,2.304c9.122-7.381,10.53-20.762,3.149-29.884c-0.478-0.589-0.99-1.152-1.527-1.69
	c8.346,8.346,21.862,8.346,30.208,0s8.346-21.862,0-30.208l0,0c8.201,8.465,21.7,8.678,30.165,0.478
	c8.465-8.201,8.678-21.7,0.478-30.165c-0.171-0.179-0.35-0.35-0.521-0.521c8.252,8.346,21.709,8.414,30.046,0.162
	c0.572-0.563,1.109-1.161,1.613-1.783c6.81-8.943,5.82-21.581-2.304-29.355L368.128,352l-52.395-53.333l-17.067-76.8L256,213.334z"
	/>
<polygon style="fill:#87CED9;" points="341.333,136.534 503.467,298.667 503.467,8.534 469.333,8.534 "/>
<polygon style="fill:#6CBBC7;" points="503.467,133.718 420.949,216.15 503.467,298.667 "/>
<path style="fill:#FEC9A3;" d="M283.477,443.734c-7.424-9.148-20.864-10.539-30.012-3.106c-0.572,0.469-1.126,0.964-1.647,1.485
	c9.097-7.492,10.402-20.932,2.91-30.029c-7.492-9.097-20.932-10.402-30.029-2.91c-1.033,0.845-1.98,1.792-2.833,2.816
	c7.851-8.781,7.1-22.272-1.69-30.123c-8.098-7.236-20.335-7.236-28.433,0c8.32-8.346,8.294-21.854-0.051-30.174
	c-0.529-0.529-1.084-1.024-1.655-1.485c-8.943-6.81-21.581-5.82-29.355,2.304l-20.224,20.309c-13.295,13.321-13.295,34.893,0,48.213
	l72.363,72.448c13.321,13.338,34.935,13.346,48.273,0.026c0.009-0.009,0.017-0.017,0.026-0.026l20.224-20.309
	C289.425,465.323,290.347,452.668,283.477,443.734z"/>
<rect x="381.191" y="156.228" transform="matrix(-0.7071 0.7071 -0.7071 -0.7071 857.8809 113.9517)" style="fill:#DBDBDB;" width="48.298" height="156.841"/>
<polygon style="fill:#4398D1;" points="170.667,136.534 8.533,298.667 8.533,8.534 42.667,8.534 "/>
<g>
	
		<rect x="28.272" y="210.486" transform="matrix(-0.7071 0.7071 -0.7071 -0.7071 348.0473 325.104)" style="fill:#DBDBDB;" width="156.841" height="48.298"/>
	<path style="fill:#DBDBDB;" d="M119.467,452.267c-32.99,0-59.733-26.743-59.733-59.733H76.8c0,23.561,19.106,42.667,42.667,42.667
		V452.267z"/>
	<path style="fill:#DBDBDB;" d="M119.467,494.934c-56.55,0-102.4-45.85-102.4-102.4h17.067c0,47.13,38.204,85.333,85.333,85.333
		V494.934z"/>
	<path style="fill:#DBDBDB;" d="M384,452.267V435.2c23.561,0,42.667-19.106,42.667-42.667h17.067
		C443.733,425.523,416.99,452.267,384,452.267z"/>
	<path style="fill:#DBDBDB;" d="M384,494.934v-17.067c47.13,0,85.333-38.204,85.333-85.333H486.4
		C486.4,449.084,440.551,494.934,384,494.934z"/>
	<circle style="fill:#DBDBDB;" cx="51.2" cy="187.734" r="17.067"/>
</g>
<path style="fill:#FEC9A3;" d="M384,247.467l-51.2-51.2L256,213.334l-102.4,102.4c18.261,19.439,48.828,20.395,68.267,2.133
	L256,281.6c19.797,20.847,50.637,26.837,76.8,14.933l8.533-6.4L384,247.467z"/>
<circle style="fill:#DBDBDB;" cx="460.8" cy="187.734" r="17.067"/>
<path d="M435.2,187.734c0,14.14,11.46,25.6,25.6,25.6c14.14,0,25.6-11.46,25.6-25.6s-11.46-25.6-25.6-25.6
	C446.66,162.134,435.2,173.594,435.2,187.734z M469.333,187.734c0,4.71-3.823,8.533-8.533,8.533c-4.71,0-8.533-3.823-8.533-8.533
	s3.823-8.533,8.533-8.533C465.511,179.2,469.333,183.023,469.333,187.734z"/>
<path d="M503.467,0h-34.133c-2.27-0.017-4.446,0.879-6.059,2.475l-128,128c-3.345,3.319-3.371,8.721-0.051,12.066
	c0.017,0.017,0.034,0.034,0.051,0.051l19.627,19.541l-26.368,26.368L256,204.8l-72.533-16.128l-26.368-26.539l19.627-19.541
	c3.345-3.319,3.371-8.721,0.051-12.066c-0.017-0.017-0.034-0.034-0.051-0.051l-128-128C47.113,0.879,44.937-0.017,42.667,0H8.533
	C3.823,0,0,3.823,0,8.534v290.133c0.017,3.447,2.108,6.545,5.291,7.851c1.015,0.478,2.125,0.708,3.243,0.683
	c2.27,0.017,4.446-0.879,6.059-2.475l19.541-19.627l28.075,28.16l64.341,64.256c-8.764,16.375-5.666,36.574,7.595,49.579
	l72.363,72.448c8.021,7.996,18.884,12.476,30.208,12.459c10.266-0.034,20.164-3.831,27.819-10.667
	c5.538,4.463,12.425,6.929,19.541,6.997c6.673,0.043,13.15-2.219,18.347-6.4c6.554-5.359,10.547-13.227,11.008-21.675v-1.792
	c7.97-0.009,15.625-3.063,21.419-8.533c5.53-5.615,8.602-13.201,8.533-21.077l0,0c8.013,0.239,15.761-2.85,21.419-8.533
	c5.598-5.709,8.67-13.423,8.533-21.419h2.133c8.439-0.427,16.307-4.395,21.675-10.923c9.139-11.87,8.38-28.595-1.792-39.595
	l54.272-54.272l28.245-29.013l19.541,19.627c1.613,1.596,3.789,2.492,6.059,2.475c1.118,0.026,2.227-0.205,3.243-0.683
	c3.183-1.306,5.274-4.403,5.291-7.851V8.534C512,3.823,508.177,0,503.467,0z M17.067,278.102V17.067h22.101l119.467,119.467
	L17.067,278.102z M46.165,273.067l98.901-98.901l22.101,22.101l-98.901,98.901L46.165,273.067z M80.299,307.2l101.632-101.547
	l57.003,12.629l-91.392,91.392c-3.345,3.319-3.371,8.721-0.051,12.066c0.017,0.017,0.034,0.034,0.051,0.051
	c7.424,7.381,16.623,12.732,26.709,15.531c-7.509,0.632-14.549,3.891-19.883,9.216l-17.067,17.067L80.299,307.2z M138.667,396.886
	c0.009-6.784,2.705-13.295,7.509-18.091l20.309-20.395c2.722-2.765,6.443-4.335,10.325-4.352c2.748-0.026,5.427,0.879,7.595,2.56
	c2.807,2.304,4.54,5.675,4.779,9.301c0.128,3.567-1.229,7.031-3.755,9.557c-0.358,0.401-0.649,0.862-0.853,1.365l-38.912,37.12
	C141.295,409.327,138.795,403.243,138.667,396.886z M157.611,426.667l41.557-39.765c5.564-4.207,13.483-3.098,17.69,2.466
	c3.447,4.557,3.396,10.863-0.111,15.369l-41.387,39.595L157.611,426.667z M205.312,474.283l-17.579-18.091l39.253-37.461
	l1.024-0.683c5.018-4.941,13.073-4.941,18.091,0c3.849,4.198,4.403,10.462,1.365,15.275L205.312,474.283z M254.805,487.595
	c-10.138,9.626-26.044,9.626-36.181,0l-1.28-1.195l37.461-36.011c1.118-0.41,2.133-1.05,2.987-1.877
	c2.534-2.62,6.093-3.994,9.728-3.755c3.627,0.162,7.014,1.869,9.301,4.693l0,0c4.036,5.589,3.268,13.321-1.792,18.005
	L254.805,487.595z M291.755,488.875c-4.309,3.191-10.129,3.43-14.677,0.597l10.069-10.069c2.5-2.483,4.582-5.367,6.144-8.533
	c4.634,5.274,4.113,13.312-1.161,17.946c-0.119,0.111-0.247,0.213-0.375,0.316V488.875z M384,396.288
	c-2.304,2.842-5.726,4.557-9.387,4.693c-3.601,0.29-7.142-1.058-9.643-3.669c-0.435-0.341-0.887-0.657-1.365-0.939l-41.899-43.861
	l-12.288,11.776l44.629,46.763c4.318,5.478,3.371,13.423-2.108,17.732c-4.89,3.849-11.853,3.567-16.41-0.666l-47.957-49.835
	l-12.288,11.776l46.848,48.811c0,0,0,0.597,0.597,0.853c2.398,2.398,3.755,5.649,3.755,9.045c-0.026,3.388-1.365,6.639-3.755,9.045
	c-5.086,4.77-13.005,4.77-18.091,0c-2.253-2.202-5.53-2.995-8.533-2.048c-0.154-6.221-2.338-12.211-6.229-17.067
	c-5.359-6.554-13.227-10.547-21.675-11.008h-1.792c0.145-7.996-2.927-15.718-8.533-21.419c-5.76-5.521-13.44-8.576-21.419-8.533l0,0
	c0.077-7.885-2.995-15.471-8.533-21.077c-5.777-5.495-13.449-8.55-21.419-8.533c0.043-0.623,0.043-1.254,0-1.877
	c-0.427-8.439-4.395-16.307-10.923-21.675c-2.227-1.724-4.702-3.106-7.339-4.096c14.993,0.555,29.542-5.129,40.192-15.701
	l28.416-30.208c16.521,13.406,37.751,19.558,58.88,17.067l46.421,46.763l20.224,20.224C387.157,383.326,387.84,390.793,384,396.288z
	 M384,355.243l-49.408-50.091l2.475-0.939l1.365-0.853l8.533-6.4l-10.24-13.653l-7.851,5.973c-22.81,9.6-49.186,4.139-66.304-13.739
	c-3.268-3.396-8.67-3.49-12.066-0.222c-0.077,0.077-0.154,0.145-0.222,0.222l-34.133,36.096
	c-7.407,7.62-17.818,11.563-28.416,10.752c-7.808-0.367-15.369-2.876-21.845-7.253l93.867-93.867l69.803-15.445L431.701,307.2
	L384,355.243z M443.733,295.51l-98.901-99.243l22.101-22.101l98.901,98.901L443.733,295.51z M494.934,278.443l-11.008-11.093
	L372.992,156.416l-19.627-19.883L472.832,17.067h22.101V278.443z"/>
<path d="M51.2,162.134c-14.14,0-25.6,11.46-25.6,25.6s11.46,25.6,25.6,25.6s25.6-11.46,25.6-25.6S65.34,162.134,51.2,162.134z
	 M51.2,196.267c-4.71,0-8.533-3.823-8.533-8.533S46.49,179.2,51.2,179.2s8.533,3.823,8.533,8.533S55.911,196.267,51.2,196.267z"/>
<path d="M76.8,392.534H59.733c0,32.99,26.743,59.733,59.733,59.733V435.2C95.906,435.2,76.8,416.094,76.8,392.534z"/>
<path d="M34.133,392.534H17.067c0,56.55,45.85,102.4,102.4,102.4v-17.067C72.337,477.867,34.133,439.663,34.133,392.534z"/>
<path d="M426.667,392.534c0,23.561-19.106,42.667-42.667,42.667v17.067c32.99,0,59.733-26.743,59.733-59.733H426.667z"/>
<path d="M384,477.867v17.067c56.55,0,102.4-45.85,102.4-102.4h-17.067C469.333,439.663,431.13,477.867,384,477.867z"/>
<g>
</g>
<g>
</g>
<g>
</g>
<g>
</g>
<g>
</g>
<g>
</g>
<g>
</g>
<g>
</g>
<g>
</g>
<g>
</g>
<g>
</g>
<g>
</g>
<g>
</g>
<g>
</g>
<g>
</g>
</svg>
