<?xml version="1.0" encoding="iso-8859-1"?>
<!-- Generator: Adobe Illustrator 19.0.0, SVG Export Plug-In . SVG Version: 6.00 Build 0)  -->
<svg version="1.1" id="Capa_1" xmlns="http://www.w3.org/2000/svg" xmlns:xlink="http://www.w3.org/1999/xlink" x="0px" y="0px"
	 viewBox="0 0 512 512" style="enable-background:new 0 0 512 512;" xml:space="preserve">
<g>
	<path style="fill:#DE4C3C;" d="M290.133,452.267H153.6c-51.516-20.634-85.308-70.537-85.333-126.037V230.4h307.2v95.829
		C375.441,381.73,341.649,431.633,290.133,452.267z"/>
	<path style="fill:#DE4C3C;" d="M426.667,256h-34.133v34.133h22.187c6.596,0,11.947,5.35,11.947,11.947l0,0v20.565
		c0.034,5.854-4.207,10.846-9.984,11.776l-25.6,9.813c-1.997,15.147-6.588,29.841-13.568,43.435l60.843-20.736
		c13.602-4.958,22.596-17.954,22.443-32.427v-44.373C460.8,271.283,445.517,256,426.667,256z"/>
</g>
<g>
	<rect x="375.467" y="256" style="fill:#BD4133;" width="17.067" height="34.133"/>
	<path style="fill:#BD4133;" d="M373.077,351.232c-2.935,15.445-8.474,30.276-16.384,43.861l20.992-7.424
		c6.98-13.594,11.571-28.288,13.568-43.435L373.077,351.232z"/>
</g>
<path style="fill:#C94536;" d="M314.795,230.4c-8.533,116.139-75.861,183.211-146.005,221.867h121.344
	c51.516-20.634,85.308-70.537,85.333-126.037V230.4H314.795z"/>
<g>
	<path style="fill:#DBDBDB;" d="M42.667,452.267h358.4l0,0l0,0c0,28.279-22.921,51.2-51.2,51.2l0,0h-256
		C65.587,503.467,42.667,480.546,42.667,452.267L42.667,452.267L42.667,452.267L42.667,452.267z"/>
	<rect x="93.867" y="256" style="fill:#DBDBDB;" width="17.067" height="17.067"/>
	<rect x="93.867" y="290.133" style="fill:#DBDBDB;" width="17.067" height="51.2"/>
	<path style="fill:#DBDBDB;" d="M273.067,0v42.667c0,18.85-15.283,34.133-34.133,34.133H204.8
		c-40.559-0.009-75.511,28.527-83.627,68.267h-1.707c-28.279,0-51.2,22.921-51.2,51.2v8.533h307.2
		c-0.017-18.27-9.771-35.149-25.6-44.288V153.6c0-32.99,26.743-59.733,59.733-59.733s59.733-26.743,59.733-59.733V0H273.067z"/>
</g>
<path style="fill:#D1D1D1;" d="M349.867,452.267c0,28.279-22.921,51.2-51.2,51.2l0,0h51.2c28.279,0,51.2-22.921,51.2-51.2l0,0
	H349.867z"/>
<path d="M34.133,452.267c0,32.99,26.743,59.733,59.733,59.733h256c32.99,0,59.733-26.743,59.733-59.733
	c0-4.71-3.823-8.533-8.533-8.533h-77.568c16.427-11.699,30.234-26.701,40.533-44.032l77.227-25.088
	c16.862-6.135,28.083-22.161,28.075-40.107v-44.373c0-23.561-19.106-42.667-42.667-42.667H384V230.4c0-4.71-3.823-8.533-8.533-8.533
	h-307.2c-4.71,0-8.533,3.823-8.533,8.533v95.829c-0.137,46.677,22.426,90.505,60.501,117.504H42.667
	C37.956,443.733,34.133,447.556,34.133,452.267z M384,326.229v-27.563h30.72c1.886,0,3.413,1.527,3.413,3.413l0,0v20.565
	c0.017,1.698-1.22,3.157-2.901,3.413h-1.536L384,337.749C384,333.909,384,330.069,384,326.229z M380.672,357.035l38.315-14.336
	c9.481-1.988,16.256-10.368,16.213-20.053V302.08c-0.043-11.29-9.19-20.437-20.48-20.48H384v-17.067h42.667
	c14.14,0,25.6,11.46,25.6,25.6v44.373c-0.026,10.633-6.613,20.139-16.555,23.893l-61.355,19.883
	C377.02,371.379,379.136,364.271,380.672,357.035z M76.8,326.229v-87.296h290.133v87.296c0.171,51.49-30.865,97.954-78.507,117.504
	h-133.12C107.665,424.183,76.629,377.719,76.8,326.229z M153.6,460.8h238.08c-4.053,19.866-21.538,34.133-41.813,34.133h-256
	c-20.275,0-37.76-14.268-41.813-34.133H153.6z"/>
<rect x="93.867" y="256" width="17.067" height="17.067"/>
<rect x="93.867" y="290.133" width="17.067" height="51.2"/>
<path d="M110.933,179.2H128v-17.067c0-42.419,34.381-76.8,76.8-76.8h34.133c23.561,0,42.667-19.106,42.667-42.667V0h-17.067v42.667
	c0,14.14-11.46,25.6-25.6,25.6H204.8c-41.975,0.009-78.839,27.887-90.283,68.267c-31.044,2.577-54.895,28.587-54.784,59.733v8.533
	H76.8v-8.533c0.034-20.412,14.524-37.939,34.56-41.813c0,2.56-0.427,5.12-0.427,7.68V179.2z"/>
<path d="M460.8,34.133c0,28.279-22.921,51.2-51.2,51.2c-35.49-0.137-65.161,26.94-68.267,62.293
	c-5.538-1.647-11.29-2.509-17.067-2.56v17.067c23.561,0,42.667,19.106,42.667,42.667H384c-0.009-19.533-9.574-37.82-25.6-48.981
	V153.6c0-28.279,22.921-51.2,51.2-51.2c37.7,0,68.267-30.566,68.267-68.267V0H460.8V34.133z"/>
<g>
</g>
<g>
</g>
<g>
</g>
<g>
</g>
<g>
</g>
<g>
</g>
<g>
</g>
<g>
</g>
<g>
</g>
<g>
</g>
<g>
</g>
<g>
</g>
<g>
</g>
<g>
</g>
<g>
</g>
</svg>
