<?xml version="1.0" encoding="iso-8859-1"?>
<!-- Generator: Adobe Illustrator 19.0.0, SVG Export Plug-In . SVG Version: 6.00 Build 0)  -->
<svg version="1.1" id="Capa_1" xmlns="http://www.w3.org/2000/svg" xmlns:xlink="http://www.w3.org/1999/xlink" x="0px" y="0px"
	 viewBox="0 0 512 512" style="enable-background:new 0 0 512 512;" xml:space="preserve">
<rect x="68.267" y="8.533" style="fill:#4398D1;" width="375.467" height="494.933"/>
<polygon style="fill:#3E8CC7;" points="68.267,494.933 68.267,503.467 443.733,503.467 443.733,221.867 "/>
<rect x="102.4" y="51.2" style="fill:#87CED9;" width="307.2" height="128"/>
<polygon style="fill:#6CBBC7;" points="188.331,179.2 409.6,179.2 409.6,51.2 356.949,51.2 "/>
<g>
	<rect x="102.4" y="230.4" style="fill:#FFA83D;" width="51.2" height="51.2"/>
	<rect x="187.733" y="230.4" style="fill:#FFA83D;" width="51.2" height="51.2"/>
	<rect x="273.067" y="230.4" style="fill:#FFA83D;" width="51.2" height="51.2"/>
	<rect x="358.4" y="230.4" style="fill:#FFA83D;" width="51.2" height="51.2"/>
	<rect x="102.4" y="315.733" style="fill:#FFA83D;" width="51.2" height="51.2"/>
	<rect x="187.733" y="315.733" style="fill:#FFA83D;" width="51.2" height="51.2"/>
	<rect x="273.067" y="315.733" style="fill:#FFA83D;" width="51.2" height="51.2"/>
</g>
<rect x="358.4" y="315.733" style="fill:#DE4C3C;" width="51.2" height="136.533"/>
<g>
	<rect x="102.4" y="401.067" style="fill:#FFA83D;" width="51.2" height="51.2"/>
	<rect x="187.733" y="401.067" style="fill:#FFA83D;" width="51.2" height="51.2"/>
	<rect x="273.067" y="401.067" style="fill:#FFA83D;" width="51.2" height="51.2"/>
</g>
<g>
	<rect x="264.533" y="136.533" style="fill:#3582BD;" width="17.067" height="17.067"/>
	<rect x="298.667" y="136.533" style="fill:#3582BD;" width="17.067" height="17.067"/>
	<rect x="332.8" y="136.533" style="fill:#3582BD;" width="17.067" height="17.067"/>
	<rect x="366.933" y="136.533" style="fill:#3582BD;" width="17.067" height="17.067"/>
</g>
<path d="M443.733,512c4.71,0,8.533-3.823,8.533-8.533V8.533c0-4.71-3.823-8.533-8.533-8.533H68.267c-4.71,0-8.533,3.823-8.533,8.533
	v494.933c0,4.71,3.823,8.533,8.533,8.533H443.733z M76.8,17.067h358.4v477.867H76.8V17.067z"/>
<path d="M409.6,42.667H102.4c-4.71,0-8.533,3.823-8.533,8.533v128c0,4.71,3.823,8.533,8.533,8.533h307.2
	c4.71,0,8.533-3.823,8.533-8.533v-128C418.133,46.49,414.31,42.667,409.6,42.667z M401.067,170.667H110.933V59.733h290.133V170.667z
	"/>
<path d="M153.6,221.867h-51.2c-4.71,0-8.533,3.823-8.533,8.533v51.2c0,4.71,3.823,8.533,8.533,8.533h51.2
	c4.71,0,8.533-3.823,8.533-8.533v-51.2C162.133,225.69,158.31,221.867,153.6,221.867z M145.067,273.067h-34.133v-34.133h34.133
	V273.067z"/>
<path d="M238.933,221.867h-51.2c-4.71,0-8.533,3.823-8.533,8.533v51.2c0,4.71,3.823,8.533,8.533,8.533h51.2
	c4.71,0,8.533-3.823,8.533-8.533v-51.2C247.467,225.69,243.644,221.867,238.933,221.867z M230.4,273.067h-34.133v-34.133H230.4
	V273.067z"/>
<path d="M324.267,221.867h-51.2c-4.71,0-8.533,3.823-8.533,8.533v51.2c0,4.71,3.823,8.533,8.533,8.533h51.2
	c4.71,0,8.533-3.823,8.533-8.533v-51.2C332.8,225.69,328.977,221.867,324.267,221.867z M315.733,273.067H281.6v-34.133h34.133
	V273.067z"/>
<path d="M409.6,221.867h-51.2c-4.71,0-8.533,3.823-8.533,8.533v51.2c0,4.71,3.823,8.533,8.533,8.533h51.2
	c4.71,0,8.533-3.823,8.533-8.533v-51.2C418.133,225.69,414.31,221.867,409.6,221.867z M401.067,273.067h-34.133v-34.133h34.133
	V273.067z"/>
<path d="M153.6,307.2h-51.2c-4.71,0-8.533,3.823-8.533,8.533v51.2c0,4.71,3.823,8.533,8.533,8.533h51.2
	c4.71,0,8.533-3.823,8.533-8.533v-51.2C162.133,311.023,158.31,307.2,153.6,307.2z M145.067,358.4h-34.133v-34.133h34.133V358.4z"/>
<path d="M238.933,307.2h-51.2c-4.71,0-8.533,3.823-8.533,8.533v51.2c0,4.71,3.823,8.533,8.533,8.533h51.2
	c4.71,0,8.533-3.823,8.533-8.533v-51.2C247.467,311.023,243.644,307.2,238.933,307.2z M230.4,358.4h-34.133v-34.133H230.4V358.4z"/>
<path d="M324.267,307.2h-51.2c-4.71,0-8.533,3.823-8.533,8.533v51.2c0,4.71,3.823,8.533,8.533,8.533h51.2
	c4.71,0,8.533-3.823,8.533-8.533v-51.2C332.8,311.023,328.977,307.2,324.267,307.2z M315.733,358.4H281.6v-34.133h34.133V358.4z"/>
<path d="M409.6,307.2h-51.2c-4.71,0-8.533,3.823-8.533,8.533v136.533c0,4.71,3.823,8.533,8.533,8.533h51.2
	c4.71,0,8.533-3.823,8.533-8.533V315.733C418.133,311.023,414.31,307.2,409.6,307.2z M401.067,443.733h-34.133V324.267h34.133
	V443.733z"/>
<path d="M153.6,392.533h-51.2c-4.71,0-8.533,3.823-8.533,8.533v51.2c0,4.71,3.823,8.533,8.533,8.533h51.2
	c4.71,0,8.533-3.823,8.533-8.533v-51.2C162.133,396.356,158.31,392.533,153.6,392.533z M145.067,443.733h-34.133V409.6h34.133
	V443.733z"/>
<path d="M238.933,392.533h-51.2c-4.71,0-8.533,3.823-8.533,8.533v51.2c0,4.71,3.823,8.533,8.533,8.533h51.2
	c4.71,0,8.533-3.823,8.533-8.533v-51.2C247.467,396.356,243.644,392.533,238.933,392.533z M230.4,443.733h-34.133V409.6H230.4
	V443.733z"/>
<path d="M324.267,392.533h-51.2c-4.71,0-8.533,3.823-8.533,8.533v51.2c0,4.71,3.823,8.533,8.533,8.533h51.2
	c4.71,0,8.533-3.823,8.533-8.533v-51.2C332.8,396.356,328.977,392.533,324.267,392.533z M315.733,443.733H281.6V409.6h34.133
	V443.733z"/>
<rect x="264.533" y="136.533" width="17.067" height="17.067"/>
<rect x="298.667" y="136.533" width="17.067" height="17.067"/>
<rect x="332.8" y="136.533" width="17.067" height="17.067"/>
<rect x="366.933" y="136.533" width="17.067" height="17.067"/>
<g>
</g>
<g>
</g>
<g>
</g>
<g>
</g>
<g>
</g>
<g>
</g>
<g>
</g>
<g>
</g>
<g>
</g>
<g>
</g>
<g>
</g>
<g>
</g>
<g>
</g>
<g>
</g>
<g>
</g>
</svg>
