<?xml version="1.0" encoding="iso-8859-1"?>
<!-- Generator: Adobe Illustrator 19.0.0, SVG Export Plug-In . SVG Version: 6.00 Build 0)  -->
<svg version="1.1" id="Capa_1" xmlns="http://www.w3.org/2000/svg" xmlns:xlink="http://www.w3.org/1999/xlink" x="0px" y="0px"
	 viewBox="0 0 511.999 511.999" style="enable-background:new 0 0 511.999 511.999;" xml:space="preserve">
<path style="fill:#FEA838;" d="M404.078,341.99l4.42-11.986c10.643-29.004,3.477-61.543-18.361-83.39l-0.425-0.425
	c-14.859-14.859-23.206-35.005-23.206-56.018v-69.194c0-61.033-49.473-110.506-110.506-110.506l0,0
	c-61.033,0-110.506,49.473-110.506,110.506v69.194c0,21.013-8.347,41.159-23.206,56.018l0,0
	c-22.076,22.084-29.097,55.083-17.936,84.24l3.57,11.561H404.078z"/>
<path style="fill:#FEC9A3;" d="M426.009,511.999V401.493c0-46.948-38.057-85.005-85.005-85.005h-42.502v-76.504h-85.005v76.504
	h-42.502c-46.948,0-85.005,38.057-85.005,85.005v110.506H426.009z"/>
<g>
	<path style="fill:#4398D1;" d="M170.995,316.489c-46.948,0-85.005,38.057-85.005,85.005v110.506h93.505V316.489H170.995z"/>
	<path style="fill:#4398D1;" d="M341.004,316.489h-8.5v195.511h93.505V401.493C426.009,354.545,387.952,316.489,341.004,316.489z"/>
</g>
<polygon style="fill:#EBEBEB;" points="332.164,316.489 256,452.496 181.791,316.489 179.495,316.489 179.495,511.999 
	332.504,511.999 332.504,316.489 "/>
<g>
	<path style="fill:#3E8CC7;" d="M85.99,511.999h93.505v-36.977c-30.772,7.999-61.994,14.128-93.505,18.361
		C85.99,493.383,85.99,511.999,85.99,511.999z"/>
	<path style="fill:#3E8CC7;" d="M332.504,410.929v101.071h93.505V401.493c0.009-19.075-6.426-37.589-18.276-52.533
		C385.453,372.796,360.164,393.63,332.504,410.929z"/>
</g>
<path style="fill:#DBDBDB;" d="M179.495,500.099v11.901h153.008v-68.514C281.501,475.192,233.303,489.303,179.495,500.099z"/>
<path style="fill:#F7BB8F;" d="M298.502,280.702v-40.717h-85.005v40.717C240.172,294.413,271.828,294.413,298.502,280.702z"/>
<path style="fill:#FEC9A3;" d="M349.505,120.978c-51.003,0-76.504-76.504-76.504-76.504C256,112.478,162.495,163.48,162.495,163.48
	v17.001c0,51.64,41.865,93.505,93.505,93.505l0,0c51.64,0,93.505-41.865,93.505-93.505v-68.004"/>
<g>
	<circle style="fill:#875339;" cx="205.031" cy="146.479" r="17.001"/>
	<circle style="fill:#875339;" cx="307.036" cy="146.479" r="17.001"/>
</g>
<path style="fill:#F7BB8F;" d="M358.005,120.978h-8.5v51.003h8.5c14.085,0,25.501-11.416,25.501-25.501
	S372.091,120.978,358.005,120.978z"/>
<g>
	<path style="fill:#F0A789;" d="M248.944,231.484h-9.946v-17.001h9.946c13.15,0.025,25.756-5.211,35.022-14.536l12.071,12.071
		C283.567,224.539,266.608,231.544,248.944,231.484z"/>
	<path style="fill:#F0A789;" d="M264.5,197.482h-25.501c-4.692-0.017-8.492-3.834-8.475-8.526c0-1.318,0.315-2.618,0.91-3.8
		l17.001-34.002l15.131,7.65l-10.796,21.676H264.5V197.482z"/>
</g>
<path d="M94.491,401.493c0-42.256,34.248-76.504,76.504-76.504v187.01h17.001V348.96l60.608,107.701
	c2.312,4.08,7.506,5.517,11.586,3.205c1.335-0.757,2.448-1.87,3.205-3.205l60.608-107.701v163.039h17.001v-187.01
	c42.256,0,76.504,34.248,76.504,76.504v110.506h17.001V401.493c-0.009-21.719-7.582-42.757-21.421-59.503l3.315-9.01
	c11.901-32.37,3.825-68.709-20.656-92.995c-13.295-13.159-20.767-31.103-20.741-49.813v-14.451
	c16.193-9.504,21.625-30.338,12.122-46.532c-2.941-5.007-7.115-9.18-12.122-12.122C373.927,51.342,319.77-1.063,254.045,0.016
	S135.914,55.252,136.993,120.978l0,0v69.194c0.025,18.71-7.446,36.654-20.741,49.813c-24.49,24.524-32.251,61.161-19.806,93.505
	l2.975,7.905c-14.153,16.831-21.914,38.108-21.931,60.098v110.506h17.001C94.491,511.999,94.491,401.493,94.491,401.493z
	 M256,435.495l-61.968-110.506h19.466c4.692,0,8.5-3.808,8.5-8.5v-39.952c21.974,7.931,46.03,7.931,68.004,0v39.952
	c0,4.692,3.808,8.5,8.5,8.5h19.466L256,435.495z M217.748,135.344c23.172-18.506,42.205-41.669,55.848-68.004
	c11.221,22.526,33.407,56.273,67.409,61.203v51.938c0,46.948-38.057,85.005-85.005,85.005s-85.005-38.057-85.005-85.005v-12.071
	c4.25-2.55,11.306-6.8,19.806-12.666c5.168,7.837,15.709,10.005,23.546,4.845c4.743-3.128,7.616-8.424,7.65-14.111
	C221.972,142.374,220.459,138.421,217.748,135.344z M358.005,129.478c9.393,0,17.001,7.608,17.001,17.001
	s-7.608,17.001-17.001,17.001V129.478z M384.187,252.65c19.441,19.543,25.799,48.58,16.321,74.464l-0.68,1.785
	c-16.601-13.55-37.385-20.945-58.823-20.911h-34.002v-39.272c31.528-18.2,50.969-51.827,51.003-88.235v9.691
	C357.954,213.676,367.398,236.202,384.187,252.65z M153.994,120.978c-2.346-56.333,41.423-103.91,97.755-106.256
	s103.91,41.423,106.256,97.755h-8.5c-44.202,0-68.004-69.959-68.004-70.724c-0.187-4.692-4.148-8.347-8.84-8.16
	c-4.692,0.187-8.347,4.148-8.16,8.84C248.604,105.932,159.094,155.49,158.159,156c-2.635,1.564-4.225,4.42-4.165,7.48
	L153.994,120.978L153.994,120.978z M128.493,252.225c16.44-16.448,25.62-38.796,25.501-62.053v-9.691
	c0.034,36.408,19.475,70.035,51.003,88.235v39.272h-34.002c-21.2,0.025-41.763,7.242-58.313,20.486l-0.425-1.02
	C102.354,301.366,108.712,271.904,128.493,252.225z"/>
<circle cx="307.036" cy="146.479" r="17.001"/>
<path d="M238.999,214.483v17.001h9.946c17.664,0.059,34.622-6.945,47.093-19.466l-12.071-12.071
	c-9.266,9.325-21.872,14.561-35.022,14.536L238.999,214.483L238.999,214.483z"/>
<path d="M238.999,197.482H264.5v-17.001H252.77l10.796-21.676l-15.131-7.65l-17.001,34.002c-2.117,4.191-0.425,9.3,3.766,11.416
	C236.381,197.168,237.681,197.474,238.999,197.482z"/>
<g>
</g>
<g>
</g>
<g>
</g>
<g>
</g>
<g>
</g>
<g>
</g>
<g>
</g>
<g>
</g>
<g>
</g>
<g>
</g>
<g>
</g>
<g>
</g>
<g>
</g>
<g>
</g>
<g>
</g>
</svg>
