<?xml version="1.0" encoding="iso-8859-1"?>
<!-- Generator: Adobe Illustrator 19.0.0, SVG Export Plug-In . SVG Version: 6.00 Build 0)  -->
<svg version="1.1" id="Layer_1" xmlns="http://www.w3.org/2000/svg" xmlns:xlink="http://www.w3.org/1999/xlink" x="0px" y="0px"
	 viewBox="0 0 512 512" style="enable-background:new 0 0 512 512;" xml:space="preserve">
<path style="fill:#EDEDED;" d="M460.8,482.358H51.2c-11.906,0-21.558-9.651-21.558-21.558V51.2c0-11.906,9.651-21.558,21.558-21.558
	h409.6c11.906,0,21.558,9.651,21.558,21.558v409.6C482.358,472.707,472.706,482.358,460.8,482.358z"/>
<path style="fill:#73A4BC;" d="M363.789,158.99v247.916c0,11.906-9.651,21.558-21.558,21.558h-43.116
	c-11.906,0-21.558-9.651-21.558-21.558V158.99c0-11.906,9.651-21.558,21.558-21.558h43.116
	C354.138,137.432,363.789,147.083,363.789,158.99z M212.884,8.084h-43.116c-11.906,0-21.558,9.651-21.558,21.558v377.263
	c0,11.906,9.651,21.558,21.558,21.558h43.116c11.906,0,21.558-9.651,21.558-21.558V29.642
	C234.442,17.736,224.79,8.084,212.884,8.084z"/>
<path style="fill:#FFBC00;" d="M363.789,158.99v140.126h-86.232V158.99c0-11.906,9.651-21.558,21.558-21.558h43.116
	C354.138,137.432,363.789,147.083,363.789,158.99z M212.884,8.084h-43.116c-11.906,0-21.558,9.651-21.558,21.558v247.916h86.232
	V29.642C234.442,17.736,224.79,8.084,212.884,8.084z"/>
<path style="fill:#92B703;" d="M363.789,158.99v64.674h-86.232V158.99c0-11.906,9.651-21.558,21.558-21.558h43.116
	C354.138,137.432,363.789,147.083,363.789,158.99z M212.884,8.084h-43.116c-11.906,0-21.558,9.651-21.558,21.558v118.568h86.232
	V29.642C234.442,17.736,224.79,8.084,212.884,8.084z"/>
<path style="fill:#FF6029;" d="M234.442,29.642v53.895H148.21V29.642c0-11.906,9.651-21.558,21.558-21.558h43.116
	C224.79,8.084,234.442,17.736,234.442,29.642z"/>
<path d="M299.116,436.547h43.116c16.345,0,29.642-13.298,29.642-29.642V158.99c0-16.344-13.297-29.642-29.642-29.642h-43.116
	c-16.345,0-29.642,13.298-29.642,29.642v247.916C269.473,423.249,282.771,436.547,299.116,436.547z M285.642,307.2h35.032
	c4.465,0,8.084-3.618,8.084-8.084s-3.62-8.084-8.084-8.084h-35.032v-59.284h35.032c4.465,0,8.084-3.618,8.084-8.084
	s-3.62-8.084-8.084-8.084h-35.032V158.99c0-7.43,6.044-13.474,13.474-13.474h43.116c7.43,0,13.474,6.044,13.474,13.474v56.589
	h-2.695c-4.465,0-8.084,3.618-8.084,8.084s3.62,8.084,8.084,8.084h2.695v59.284h-2.695c-4.465,0-8.084,3.618-8.084,8.084
	s3.62,8.084,8.084,8.084h2.695v99.705c0,7.43-6.044,13.474-13.474,13.474h-43.116c-7.43,0-13.474-6.044-13.474-13.474V307.2z
	 M169.768,436.547h43.116c16.345,0,29.642-13.298,29.642-29.642V29.642C242.526,13.298,229.229,0,212.884,0h-43.116
	c-16.344,0-29.642,13.298-29.642,29.642v377.263C140.126,423.249,153.424,436.547,169.768,436.547z M156.294,285.642h35.032
	c4.465,0,8.084-3.618,8.084-8.084s-3.62-8.084-8.084-8.084h-35.032V156.295h35.032c4.465,0,8.084-3.618,8.084-8.084
	c0-4.466-3.62-8.084-8.084-8.084h-35.032V91.621h35.032c4.465,0,8.084-3.618,8.084-8.084c0-4.466-3.62-8.084-8.084-8.084h-35.032
	V29.642c0-7.43,6.044-13.474,13.474-13.474h43.116c7.43,0,13.474,6.044,13.474,13.474v45.811h-2.695
	c-4.465,0-8.084,3.618-8.084,8.084c0,4.466,3.62,8.084,8.084,8.084h2.695v48.505h-2.695c-4.465,0-8.084,3.618-8.084,8.084
	c0,4.466,3.62,8.084,8.084,8.084h2.695v113.179h-2.695c-4.465,0-8.084,3.618-8.084,8.084s3.62,8.084,8.084,8.084h2.695v121.263
	c0,7.43-6.044,13.474-13.474,13.474h-43.116c-7.43,0-13.474-6.044-13.474-13.474V285.642z M509.632,488.075l-21.558,21.558
	c-1.578,1.578-3.648,2.367-5.716,2.367s-4.138-0.789-5.716-2.367c-3.157-3.158-3.157-8.276,0-11.433l7.758-7.757H51.2
	c-16.344-0.001-29.642-13.299-29.642-29.643V27.602L13.8,35.359c-3.157,3.156-8.276,3.156-11.432,0
	c-3.157-3.158-3.157-8.276,0-11.433L23.926,2.368c3.157-3.156,8.276-3.156,11.432,0l21.558,21.558c3.157,3.158,3.157,8.276,0,11.433
	c-3.157,3.156-8.276,3.156-11.432,0l-7.758-7.758V460.8c0,7.43,6.044,13.474,13.474,13.474h433.199l-7.758-7.757
	c-3.157-3.158-3.157-8.276,0-11.433c3.157-3.156,8.276-3.156,11.432,0l21.558,21.558C512.79,479.799,512.79,484.917,509.632,488.075
	z"/>
<g>
</g>
<g>
</g>
<g>
</g>
<g>
</g>
<g>
</g>
<g>
</g>
<g>
</g>
<g>
</g>
<g>
</g>
<g>
</g>
<g>
</g>
<g>
</g>
<g>
</g>
<g>
</g>
<g>
</g>
</svg>
