<?xml version="1.0" encoding="iso-8859-1"?>
<!-- Generator: Adobe Illustrator 19.0.0, SVG Export Plug-In . SVG Version: 6.00 Build 0)  -->
<svg version="1.1" id="Layer_1" xmlns="http://www.w3.org/2000/svg" xmlns:xlink="http://www.w3.org/1999/xlink" x="0px" y="0px"
	 viewBox="0 0 512 512" style="enable-background:new 0 0 512 512;" xml:space="preserve">
<path style="fill:#EDEDED;" d="M460.8,482.358H51.2c-11.906,0-21.558-9.651-21.558-21.558V51.2c0-11.906,9.651-21.558,21.558-21.558
	h409.6c11.906,0,21.558,9.651,21.558,21.558v409.6C482.358,472.707,472.706,482.358,460.8,482.358z"/>
<path style="fill:#FF6029;" d="M105.094,83.537h377.263c11.906,0,21.558,9.651,21.558,21.558v43.116
	c0,11.906-9.651,21.558-21.558,21.558H105.094c-11.906,0-21.558-9.651-21.558-21.558v-43.116
	C83.537,93.189,93.189,83.537,105.094,83.537z"/>
<path style="fill:#73A4BC;" d="M105.094,342.232H353.01c11.906,0,21.558,9.651,21.558,21.558v43.116
	c0,11.906-9.651,21.558-21.558,21.558H105.094c-11.906,0-21.558-9.651-21.558-21.558V363.79
	C83.537,351.883,93.189,342.232,105.094,342.232z"/>
<path style="fill:#FFBC00;" d="M83.537,277.558v-43.116c0-11.906,9.651-21.558,21.558-21.558h129.347
	c11.906,0,21.558,9.651,21.558,21.558v43.116c0,11.906-9.651,21.558-21.558,21.558H105.094
	C93.189,299.116,83.537,289.465,83.537,277.558z"/>
<path d="M105.094,177.853h377.263c16.344,0,29.642-13.298,29.642-29.642v-43.116c0-16.344-13.298-29.642-29.642-29.642H105.094
	c-16.344,0-29.642,13.298-29.642,29.642v43.116C75.452,164.555,88.75,177.853,105.094,177.853z M91.621,105.095
	c0-7.43,6.045-13.474,13.474-13.474h377.263c7.43,0,13.474,6.044,13.474,13.474v43.116c0,7.43-6.044,13.474-13.474,13.474H105.094
	c-7.43,0-13.474-6.044-13.474-13.474V105.095z M509.633,488.075l-21.558,21.558c-1.579,1.578-3.649,2.367-5.717,2.367
	s-4.138-0.789-5.717-2.367c-3.157-3.158-3.157-8.276,0-11.433l7.758-7.757H51.2c-16.344-0.001-29.642-13.299-29.642-29.643V27.601
	L13.8,35.358c-3.157,3.156-8.276,3.156-11.432,0c-3.157-3.158-3.157-8.276,0-11.433L23.926,2.367c3.157-3.156,8.276-3.156,11.432,0
	l21.558,21.558c3.157,3.158,3.157,8.276,0,11.433c-3.157,3.156-8.276,3.156-11.432,0l-7.758-7.758V460.8
	c0,7.43,6.044,13.474,13.474,13.474h433.199l-7.758-7.757c-3.157-3.158-3.157-8.276,0-11.433c3.158-3.156,8.276-3.156,11.433,0
	l21.558,21.558C512.79,479.799,512.79,484.917,509.633,488.075z M105.094,436.548H353.01c16.344,0,29.642-13.298,29.642-29.642
	V363.79c0-16.344-13.298-29.642-29.642-29.642H105.094c-16.344,0-29.642,13.298-29.642,29.642v43.116
	C75.452,423.25,88.75,436.548,105.094,436.548z M91.621,363.79c0-7.43,6.044-13.474,13.474-13.474H353.01
	c7.43,0,13.474,6.044,13.474,13.474v43.116c0,7.43-6.044,13.474-13.474,13.474H105.094c-7.43,0-13.474-6.044-13.474-13.474V363.79z
	 M105.094,307.2h129.347c16.345,0,29.642-13.298,29.642-29.642v-43.116c0-16.344-13.297-29.642-29.642-29.642H105.094
	c-16.344,0-29.642,13.298-29.642,29.642v43.116C75.452,293.902,88.75,307.2,105.094,307.2z M91.621,234.442
	c0-7.43,6.044-13.474,13.474-13.474h129.347c7.43,0,13.474,6.044,13.474,13.474v43.116c0,7.43-6.044,13.474-13.474,13.474H105.094
	c-7.43,0-13.474-6.044-13.474-13.474V234.442z"/>
<g>
</g>
<g>
</g>
<g>
</g>
<g>
</g>
<g>
</g>
<g>
</g>
<g>
</g>
<g>
</g>
<g>
</g>
<g>
</g>
<g>
</g>
<g>
</g>
<g>
</g>
<g>
</g>
<g>
</g>
</svg>
