<?xml version="1.0" encoding="iso-8859-1"?>
<!-- Generator: Adobe Illustrator 19.0.0, SVG Export Plug-In . SVG Version: 6.00 Build 0)  -->
<svg version="1.1" id="Layer_1" xmlns="http://www.w3.org/2000/svg" xmlns:xlink="http://www.w3.org/1999/xlink" x="0px" y="0px"
	 viewBox="0 0 512.001 512.001" style="enable-background:new 0 0 512.001 512.001;" xml:space="preserve">
<path style="fill:#B6E152;" d="M431.309,80.697c96.82,96.818,96.82,253.789,0,350.606s-253.796,96.818-350.615,0
	s-96.82-253.789,0-350.606S334.489-16.119,431.309,80.697z"/>
<path style="fill:#73A4BC;" d="M408.442,103.564c67.353,67.351,67.353,176.548,0,243.9s-176.554,67.351-243.906,0
	s-67.353-176.548,0-243.9S341.09,36.212,408.442,103.564z"/>
<path style="fill:#FF6029;" d="M248.379,126.429c-37.886,37.885-37.886,99.309,0,137.193s99.311,37.885,137.198,0
	s37.886-99.309,0-137.193S286.265,88.544,248.379,126.429z"/>
<path style="fill:#FFBC00;" d="M362.71,149.294c12.629,12.629,12.629,33.103,0,45.731c-12.629,12.628-33.103,12.629-45.733,0
	c-12.629-12.629-12.629-33.103,0-45.731C329.606,136.666,350.082,136.666,362.71,149.294z"/>
<path d="M512.001,256.001c0,68.379-26.629,132.667-74.983,181.019S324.376,512,255.995,512S123.323,485.372,74.97,437.02
	c-27.579-27.578-48.017-60.102-60.747-96.669c-1.468-4.217,0.761-8.825,4.977-10.293c4.217-1.467,8.825,0.761,10.293,4.977
	c11.922,34.246,31.069,64.711,56.91,90.552c93.513,93.51,245.669,93.511,339.183,0c93.513-93.511,93.513-245.663,0-339.174
	c-93.512-93.508-245.669-93.51-339.183,0c-59.49,59.489-83.265,143.908-63.598,225.819c1.042,4.342-1.632,8.706-5.974,9.747
	c-4.341,1.044-8.705-1.631-9.748-5.974c-10.046-41.841-9.393-85.893,1.89-127.395c11.635-42.797,34.456-82.089,65.997-113.63
	C123.323,26.629,187.612,0.001,255.995,0.001s132.671,26.628,181.024,74.981S512.001,187.621,512.001,256.001z M339.836,212.562
	c-10.351,0-20.703-3.94-28.583-11.82c-15.76-15.76-15.76-41.404,0-57.164c15.76-15.76,41.405-15.76,57.166,0
	c15.76,15.761,15.76,41.404,0,57.164C360.54,208.622,350.189,212.562,339.836,212.562z M356.987,189.309
	c9.456-9.456,9.456-24.842,0-34.299c-9.457-9.456-24.844-9.455-34.3,0c-9.456,9.456-9.456,24.842,0,34.299
	C332.142,198.764,347.529,198.764,356.987,189.309z M232.678,223.43c-1.423-4.233-6.006-6.51-10.239-5.088
	c-4.233,1.423-6.51,6.006-5.088,10.239c5.191,15.445,13.704,29.159,25.305,40.758c20.489,20.489,47.403,30.732,74.315,30.732
	s53.827-10.243,74.315-30.732c19.85-19.851,30.783-46.242,30.783-74.313s-10.932-54.464-30.783-74.313
	c-19.85-19.851-46.243-30.781-74.315-30.781s-54.465,10.932-74.315,30.781c-21.112,21.112-32.273,50.328-30.621,80.159
	c0.247,4.458,4.072,7.875,8.52,7.625c4.458-0.247,7.872-4.062,7.625-8.52c-1.398-25.244,8.045-49.968,25.909-67.832
	c16.797-16.796,39.129-26.046,62.882-26.046s46.086,9.249,62.882,26.046c16.797,16.796,26.046,39.128,26.046,62.88
	s-9.251,46.084-26.046,62.88c-34.673,34.672-91.09,34.673-125.764,0C244.269,248.088,237.066,236.487,232.678,223.43z
	 M320.231,402.896c35.674-6.755,68.151-23.947,93.922-49.717c34.102-34.101,52.883-79.441,52.883-127.666
	c0-48.226-18.78-93.566-52.883-127.666s-79.442-52.882-127.67-52.882c-48.227,0-93.568,18.78-127.67,52.882
	c-70.397,70.395-70.397,184.938,0,255.333c34.219,34.218,79.33,52.884,127.516,52.884c1.692,0,3.392-0.023,5.092-0.069
	c4.462-0.121,7.983-3.838,7.861-8.301c-0.121-4.464-3.821-7.995-8.301-7.861c-45.601,1.236-88.487-15.837-120.735-48.084
	c-64.094-64.092-64.094-168.376,0-232.467c31.048-31.047,72.328-48.145,116.237-48.145s85.188,17.099,116.237,48.145
	c31.048,31.048,48.146,72.327,48.146,116.234s-17.099,85.186-48.146,116.234c-23.465,23.464-53.029,39.115-85.498,45.263
	c-4.387,0.831-7.269,5.061-6.439,9.448C311.613,400.843,315.841,403.729,320.231,402.896z"/>
<g>
</g>
<g>
</g>
<g>
</g>
<g>
</g>
<g>
</g>
<g>
</g>
<g>
</g>
<g>
</g>
<g>
</g>
<g>
</g>
<g>
</g>
<g>
</g>
<g>
</g>
<g>
</g>
<g>
</g>
</svg>
