<?xml version="1.0" encoding="iso-8859-1"?>
<!-- Generator: Adobe Illustrator 19.0.0, SVG Export Plug-In . SVG Version: 6.00 Build 0)  -->
<svg version="1.1" id="Layer_1" xmlns="http://www.w3.org/2000/svg" xmlns:xlink="http://www.w3.org/1999/xlink" x="0px" y="0px"
	 viewBox="0 0 512 512" style="enable-background:new 0 0 512 512;" xml:space="preserve">
<path style="fill:#EDEDED;" d="M439.242,482.358H72.758c-23.812,0-43.116-19.304-43.116-43.116V72.758
	c0-23.812,19.304-43.116,43.116-43.116h366.484c23.812,0,43.116,19.304,43.116,43.116v366.484
	C482.358,463.055,463.055,482.358,439.242,482.358z"/>
<path style="fill:#DAF781;" d="M482.358,146.594v292.648c0,23.812-19.304,43.116-43.116,43.116H72.758
	c-23.812,0-43.116-19.304-43.116-43.116v-71.68h0.001c0.259,0,0.517-0.093,0.724-0.28l118.26-107.509h139.709
	c0.277,0,0.543-0.107,0.744-0.299l118.257-112.88H482.358z"/>
<path style="fill:#768900;" d="M309.895,258.695c0,11.906-9.651,21.558-21.558,21.558c-11.906,0-21.558-9.651-21.558-21.558
	c0-11.906,9.651-21.558,21.558-21.558C300.243,237.137,309.895,246.788,309.895,258.695z M145.516,237.137
	c-11.906,0-21.558,9.651-21.558,21.558c0,11.906,9.651,21.558,21.558,21.558c11.906,0,21.558-9.651,21.558-21.558
	C167.074,246.788,157.422,237.137,145.516,237.137z M29.642,344.926c-11.906,0-21.558,9.651-21.558,21.558
	s9.651,21.558,21.558,21.558S51.2,378.391,51.2,366.484S41.549,344.926,29.642,344.926z M401.517,123.958
	c-11.906,0-21.558,9.651-21.558,21.558s9.651,21.558,21.558,21.558c11.906,0,21.558-9.651,21.558-21.558
	S413.422,123.958,401.517,123.958z"/>
<path d="M21.558,320.674V72.758c0-28.231,22.969-51.2,51.2-51.2h366.484c28.231,0,51.2,22.969,51.2,51.2v21.558
	c0,4.465-3.618,8.084-8.084,8.084s-8.084-3.62-8.084-8.084V72.758c0-19.316-15.715-35.032-35.032-35.032H72.758
	c-19.316,0-35.032,15.716-35.032,35.032v247.916c0,4.465-3.62,8.084-8.084,8.084S21.558,325.138,21.558,320.674z M509.633,151.232
	l-21.558,21.558c-3.158,3.157-8.276,3.157-11.433,0c-3.157-3.157-3.157-8.276,0-11.432l7.758-7.758h-54.361
	c-3.527,12.428-14.978,21.558-28.522,21.558c-4.082,0-7.973-0.83-11.516-2.328l-75.455,72.025c2.191,4.134,3.434,8.845,3.434,13.84
	c0,16.345-13.298,29.642-29.642,29.642c-13.543,0-24.994-9.13-28.522-21.558h-85.778c-3.527,12.428-14.978,21.558-28.521,21.558
	c-5.066,0-9.838-1.277-14.014-3.527L56.18,353.284c1.987,3.977,3.104,8.46,3.104,13.2c0,16.345-13.297,29.642-29.642,29.642
	S0,382.829,0,366.484s13.297-29.642,29.642-29.642c5.744,0,11.112,1.642,15.657,4.482l74.564-67.786
	c-2.537-4.368-3.991-9.438-3.991-14.844c0-16.345,13.297-29.642,29.642-29.642c13.544,0,24.994,9.13,28.521,21.558h85.778
	c3.527-12.428,14.978-21.558,28.522-21.558c5.486,0,10.63,1.498,15.042,4.108l73.923-70.563c-3.417-4.831-5.427-10.725-5.427-17.081
	c0-16.345,13.298-29.642,29.642-29.642c13.543,0,24.994,9.13,28.522,21.558h54.361l-7.758-7.758c-3.157-3.157-3.157-8.276,0-11.432
	c3.158-3.157,8.276-3.157,11.433,0l21.558,21.558C512.789,142.957,512.789,148.076,509.633,151.232z M43.116,366.484
	c0-7.43-6.044-13.474-13.474-13.474s-13.474,6.045-13.474,13.474c0,7.429,6.044,13.474,13.474,13.474S43.116,373.914,43.116,366.484
	z M158.989,258.695c0-0.024,0-0.046,0-0.07c-0.039-7.398-6.067-13.404-13.474-13.404c-7.43,0-13.474,6.044-13.474,13.474
	c0,7.43,6.044,13.474,13.474,13.474c7.406,0,13.435-6.006,13.474-13.404C158.989,258.742,158.989,258.718,158.989,258.695z
	 M301.811,258.695c0-7.43-6.044-13.474-13.474-13.474s-13.474,6.045-13.474,13.474c0,7.429,6.044,13.474,13.474,13.474
	S301.811,266.125,301.811,258.695z M414.989,145.516c0-7.43-6.044-13.474-13.474-13.474s-13.474,6.045-13.474,13.474
	s6.044,13.474,13.474,13.474S414.989,152.946,414.989,145.516z M482.358,194.021c-4.466,0-8.084,3.62-8.084,8.084v237.137
	c0,19.316-15.715,35.032-35.032,35.032H72.758c-19.316,0-35.032-15.716-35.032-35.032v-21.558c0-4.465-3.62-8.084-8.084-8.084
	s-8.084,3.62-8.084,8.084v21.558c0,28.231,22.969,51.2,51.2,51.2h366.484c28.231,0,51.2-22.969,51.2-51.2V202.105
	C490.442,197.641,486.824,194.021,482.358,194.021z"/>
<g>
</g>
<g>
</g>
<g>
</g>
<g>
</g>
<g>
</g>
<g>
</g>
<g>
</g>
<g>
</g>
<g>
</g>
<g>
</g>
<g>
</g>
<g>
</g>
<g>
</g>
<g>
</g>
<g>
</g>
</svg>
