<?xml version="1.0" encoding="iso-8859-1"?>
<!-- Generator: Adobe Illustrator 19.0.0, SVG Export Plug-In . SVG Version: 6.00 Build 0)  -->
<svg version="1.1" id="Layer_1" xmlns="http://www.w3.org/2000/svg" xmlns:xlink="http://www.w3.org/1999/xlink" x="0px" y="0px"
	 viewBox="0 0 512 512" style="enable-background:new 0 0 512 512;" xml:space="preserve">
<path style="fill:#969696;" d="M471.579,223.663c17.86,0,32.337,14.477,32.337,32.337s-14.477,32.337-32.337,32.337
	c-17.86,0-32.337-14.477-32.337-32.337S453.719,223.663,471.579,223.663z"/>
<path style="fill:#FF6029;" d="M299.116,94.316h-86.232c-11.906,0-21.558-9.651-21.558-21.558V29.642
	c0-11.906,9.651-21.558,21.558-21.558h86.232c11.906,0,21.558,9.651,21.558,21.558v43.116
	C320.674,84.664,311.022,94.316,299.116,94.316z"/>
<path style="fill:#FFBC00;" d="M115.874,94.316H29.642c-11.906,0-21.558-9.651-21.558-21.558V29.642
	c0-11.906,9.651-21.558,21.558-21.558h86.232c11.906,0,21.558,9.651,21.558,21.558v43.116
	C137.432,84.664,127.78,94.316,115.874,94.316z"/>
<path style="fill:#B6E152;" d="M137.432,439.242v43.116c0,11.906-9.651,21.558-21.558,21.558H29.642
	c-11.906,0-21.558-9.651-21.558-21.558v-43.116c0-11.906,9.651-21.558,21.558-21.558h86.232
	C127.78,417.684,137.432,427.336,137.432,439.242z"/>
<path style="fill:#98C7E5;" d="M320.674,439.242v43.116c0,11.906-9.651,21.558-21.558,21.558h-86.232
	c-11.906,0-21.558-9.651-21.558-21.558v-43.116c0-11.906,9.651-21.558,21.558-21.558h86.232
	C311.022,417.684,320.674,427.336,320.674,439.242z"/>
<path d="M285.642,460.8c0,4.466-3.62,8.084-8.084,8.084h-43.116c-4.465,0-8.084-3.618-8.084-8.084s3.62-8.084,8.084-8.084h43.116
	C282.023,452.716,285.642,456.334,285.642,460.8z M512,256c0,22.289-18.132,40.421-40.421,40.421
	c-22.289,0-40.421-18.132-40.421-40.421s18.132-40.421,40.421-40.421C493.868,215.579,512,233.711,512,256z M495.832,256
	c0-13.372-10.879-24.253-24.253-24.253c-13.373,0-24.253,10.88-24.253,24.253s10.879,24.253,24.253,24.253
	C484.952,280.253,495.832,269.372,495.832,256z M51.2,59.284h43.116c4.465,0,8.084-3.618,8.084-8.084s-3.62-8.084-8.084-8.084H51.2
	c-4.465,0-8.084,3.618-8.084,8.084S46.735,59.284,51.2,59.284z M145.516,439.242v43.116c0,16.344-13.297,29.642-29.642,29.642
	H29.642C13.297,512,0,498.702,0,482.358v-43.116C0,422.898,13.297,409.6,29.642,409.6h86.232
	C132.219,409.6,145.516,422.898,145.516,439.242z M129.347,439.242c0-7.43-6.044-13.474-13.474-13.474H29.642
	c-7.43,0-13.474,6.044-13.474,13.474v43.116c0,7.43,6.044,13.474,13.474,13.474h86.232c7.43,0,13.474-6.044,13.474-13.474V439.242z
	 M94.316,452.716H51.2c-4.465,0-8.084,3.618-8.084,8.084s3.62,8.084,8.084,8.084h43.116c4.465,0,8.084-3.618,8.084-8.084
	S98.78,452.716,94.316,452.716z M183.242,72.758V29.642C183.242,13.298,196.539,0,212.884,0h86.232
	c16.345,0,29.642,13.298,29.642,29.642v43.116c0,16.344-13.297,29.642-29.642,29.642h-86.232
	C196.539,102.4,183.242,89.102,183.242,72.758z M199.411,72.758c0,7.43,6.044,13.474,13.474,13.474h86.232
	c7.43,0,13.474-6.044,13.474-13.474V29.642c0-7.43-6.044-13.474-13.474-13.474h-86.232c-7.43,0-13.474,6.044-13.474,13.474V72.758z
	 M391.063,228.725c-3.157-3.156-8.276-3.156-11.432,0c-3.157,3.158-3.157,8.276,0,11.433l7.758,7.757H8.084
	c-4.465,0-8.084,3.618-8.084,8.084s3.62,8.084,8.084,8.084h379.305l-7.758,7.757c-3.157,3.158-3.157,8.276,0,11.433
	c1.578,1.578,3.648,2.367,5.716,2.367s4.138-0.789,5.716-2.367l21.558-21.558c3.157-3.158,3.157-8.276,0-11.433L391.063,228.725z
	 M234.442,59.284h43.116c4.465,0,8.084-3.618,8.084-8.084s-3.62-8.084-8.084-8.084h-43.116c-4.465,0-8.084,3.618-8.084,8.084
	S229.977,59.284,234.442,59.284z M471.579,247.377c-4.465,0-8.084,3.618-8.084,8.084v1.078c0,4.466,3.62,8.084,8.084,8.084
	s8.084-3.618,8.084-8.084v-1.078C479.663,250.995,476.044,247.377,471.579,247.377z M328.758,439.242v43.116
	c0,16.344-13.297,29.642-29.642,29.642h-86.232c-16.345,0-29.642-13.298-29.642-29.642v-43.116
	c0-16.344,13.297-29.642,29.642-29.642h86.232C315.461,409.6,328.758,422.898,328.758,439.242z M312.589,439.242
	c0-7.43-6.044-13.474-13.474-13.474h-86.232c-7.43,0-13.474,6.044-13.474,13.474v43.116c0,7.43,6.044,13.474,13.474,13.474h86.232
	c7.43,0,13.474-6.044,13.474-13.474V439.242z M0,72.758V29.642C0,13.298,13.297,0,29.642,0h86.232
	c16.345,0,29.642,13.298,29.642,29.642v43.116c0,16.344-13.297,29.642-29.642,29.642H29.642C13.297,102.4,0,89.102,0,72.758z
	 M16.168,72.758c0,7.43,6.044,13.474,13.474,13.474h86.232c7.43,0,13.474-6.044,13.474-13.474V29.642
	c0-7.43-6.044-13.474-13.474-13.474H29.642c-7.43,0-13.474,6.044-13.474,13.474V72.758z M262.719,116.07
	c-3.861,2.242-5.173,7.19-2.931,11.051l2.165,3.728c1.5,2.583,4.211,4.025,6.999,4.025c1.379,0,2.776-0.352,4.053-1.095
	c3.861-2.242,5.173-7.19,2.931-11.051L273.77,119C271.527,115.139,266.577,113.827,262.719,116.07z M281.124,147.761
	c-3.862,2.241-5.175,7.188-2.933,11.049l2.164,3.73c1.5,2.584,4.211,4.027,6.999,4.027c1.378,0,2.773-0.352,4.051-1.094
	c3.862-2.241,5.175-7.188,2.933-11.05l-2.164-3.73C289.932,146.833,284.986,145.522,281.124,147.761z M134.685,211.148
	c-3.861,2.242-5.174,7.19-2.933,11.051l2.165,3.73c1.5,2.584,4.211,4.026,6.999,4.026c1.378,0,2.775-0.352,4.052-1.094
	c3.861-2.242,5.174-7.19,2.933-11.051l-2.165-3.73C143.494,210.217,138.547,208.909,134.685,211.148z M299.525,179.454
	c-3.862,2.242-5.174,7.19-2.932,11.051l2.164,3.728c1.5,2.584,4.211,4.026,6.999,4.026c1.378,0,2.775-0.352,4.052-1.094
	c3.862-2.242,5.174-7.19,2.932-11.051l-2.164-3.728C308.334,178.525,303.384,177.215,299.525,179.454z M317.927,211.148
	c-3.861,2.242-5.174,7.19-2.933,11.051l2.165,3.73c1.5,2.584,4.211,4.026,6.999,4.026c1.378,0,2.775-0.352,4.052-1.094
	c3.861-2.242,5.174-7.19,2.933-11.051l-2.165-3.73C326.736,210.217,321.789,208.909,317.927,211.148z M97.881,147.761
	c-3.862,2.241-5.175,7.188-2.933,11.049l2.164,3.73c1.5,2.584,4.211,4.027,6.999,4.027c1.378,0,2.773-0.352,4.051-1.094
	c3.862-2.241,5.175-7.188,2.933-11.05l-2.164-3.73C106.69,146.833,101.744,145.522,97.881,147.761z M144.968,283.14
	c-3.859-2.239-8.807-0.929-11.049,2.933l-2.165,3.73c-2.242,3.861-0.928,8.809,2.933,11.051c1.277,0.742,2.673,1.094,4.052,1.094
	c2.786,0,5.499-1.442,6.999-4.026l2.165-3.73C150.142,290.33,148.829,285.382,144.968,283.14z M285.174,365.333
	c2.786,0,5.499-1.443,6.999-4.027l2.164-3.729c2.242-3.861,0.928-8.809-2.933-11.05c-3.862-2.244-8.809-0.927-11.05,2.934
	l-2.164,3.73c-2.242,3.861-0.928,8.809,2.933,11.049C282.401,364.981,283.797,365.333,285.174,365.333z M266.771,397.025
	c2.786,0,5.498-1.442,6.999-4.025l2.165-3.728c2.242-3.861,0.93-8.809-2.931-11.051c-3.861-2.243-8.807-0.931-11.051,2.931
	l-2.165,3.728c-2.242,3.861-0.93,8.809,2.931,11.051C263.997,396.673,265.393,397.025,266.771,397.025z M116.283,179.454
	c-3.862,2.242-5.174,7.19-2.932,11.051l2.164,3.728c1.5,2.584,4.211,4.026,6.999,4.026c1.378,0,2.774-0.352,4.052-1.094
	c3.862-2.242,5.174-7.19,2.932-11.051l-2.164-3.728C125.092,178.525,120.142,177.215,116.283,179.454z M328.21,283.14
	c-3.86-2.239-8.807-0.929-11.05,2.933l-2.165,3.73c-2.242,3.861-0.928,8.809,2.933,11.051c1.277,0.742,2.673,1.094,4.052,1.094
	c2.786,0,5.499-1.442,6.999-4.026l2.165-3.73C333.384,290.33,332.071,285.382,328.21,283.14z M303.577,333.639
	c2.786,0,5.498-1.442,6.999-4.026l2.164-3.728c2.242-3.861,0.929-8.809-2.932-11.051c-3.86-2.238-8.807-0.929-11.049,2.933
	l-2.164,3.728c-2.242,3.861-0.929,8.809,2.932,11.051C300.803,333.286,302.199,333.639,303.577,333.639z M83.529,397.025
	c2.786,0,5.498-1.442,6.999-4.025l2.165-3.728c2.242-3.861,0.93-8.809-2.931-11.051c-3.861-2.243-8.807-0.931-11.051,2.931
	l-2.165,3.728c-2.242,3.861-0.93,8.809,2.931,11.051C80.755,396.673,82.151,397.025,83.529,397.025z M120.335,333.639
	c2.786,0,5.498-1.442,6.999-4.026l2.164-3.728c2.242-3.861,0.929-8.809-2.932-11.051c-3.859-2.238-8.807-0.929-11.049,2.933
	l-2.164,3.728c-2.242,3.861-0.929,8.809,2.932,11.051C117.561,333.286,118.956,333.639,120.335,333.639z M79.476,116.07
	c-3.861,2.242-5.173,7.19-2.931,11.051l2.165,3.728c1.5,2.583,4.211,4.025,6.999,4.025c1.379,0,2.776-0.352,4.053-1.095
	c3.861-2.242,5.173-7.19,2.931-11.051L90.528,119C88.285,115.139,83.336,113.827,79.476,116.07z M101.932,365.333
	c2.786,0,5.499-1.443,6.999-4.027l2.164-3.729c2.242-3.861,0.928-8.809-2.933-11.05c-3.862-2.244-8.809-0.927-11.049,2.934
	l-2.164,3.73c-2.242,3.861-0.928,8.809,2.933,11.049C99.159,364.981,100.555,365.333,101.932,365.333z"/>
<g>
</g>
<g>
</g>
<g>
</g>
<g>
</g>
<g>
</g>
<g>
</g>
<g>
</g>
<g>
</g>
<g>
</g>
<g>
</g>
<g>
</g>
<g>
</g>
<g>
</g>
<g>
</g>
<g>
</g>
</svg>
