<?xml version="1.0" encoding="iso-8859-1"?>
<!-- Generator: Adobe Illustrator 19.0.0, SVG Export Plug-In . SVG Version: 6.00 Build 0)  -->
<svg version="1.1" id="Layer_1" xmlns="http://www.w3.org/2000/svg" xmlns:xlink="http://www.w3.org/1999/xlink" x="0px" y="0px"
	 viewBox="0 0 512 512" style="enable-background:new 0 0 512 512;" xml:space="preserve">
<path style="fill:#EDEDED;" d="M460.8,482.358H51.2c-11.906,0-21.558-9.651-21.558-21.558V51.2c0-11.906,9.651-21.558,21.558-21.558
	h409.6c11.906,0,21.558,9.651,21.558,21.558v409.6C482.358,472.707,472.706,482.358,460.8,482.358z"/>
<path style="fill:#FF6029;" d="M115.873,428.463h-10.779c-11.906,0-21.558-9.651-21.558-21.558V180.548
	c0-11.906,9.651-21.558,21.558-21.558h10.779c11.906,0,21.558,9.651,21.558,21.558v226.358
	C137.431,418.812,127.78,428.463,115.873,428.463z M317.979,428.463h10.779c11.906,0,21.558-9.651,21.558-21.558V245.221
	c0-11.906-9.651-21.558-21.558-21.558h-10.779c-11.906,0-21.558,9.651-21.558,21.558v161.684
	C296.421,418.812,306.072,428.463,317.979,428.463z"/>
<path style="fill:#73A4BC;" d="M204.8,428.463h-10.779c-11.906,0-21.558-9.651-21.558-21.558V29.642
	c0-11.906,9.651-21.558,21.558-21.558H204.8c11.906,0,21.558,9.651,21.558,21.558v377.263
	C226.358,418.812,216.706,428.463,204.8,428.463z M406.905,428.463h10.779c11.906,0,21.558-9.651,21.558-21.558V83.537
	c0-11.906-9.651-21.558-21.558-21.558h-10.779c-11.906,0-21.558,9.651-21.558,21.558v323.368
	C385.347,418.812,394.999,428.463,406.905,428.463z"/>
<path d="M406.905,436.547h10.779c16.345,0,29.642-13.298,29.642-29.642V83.537c0-16.344-13.297-29.642-29.642-29.642h-10.779
	c-16.344,0-29.642,13.298-29.642,29.642v323.368C377.263,423.249,390.561,436.547,406.905,436.547z M393.431,83.537
	c0-7.43,6.044-13.474,13.474-13.474h10.779c7.43,0,13.474,6.044,13.474,13.474v323.368c0,7.43-6.044,13.474-13.474,13.474h-10.779
	c-7.43,0-13.474-6.044-13.474-13.474V83.537z M194.021,436.547H204.8c16.345,0,29.642-13.298,29.642-29.642V29.642
	C234.442,13.298,221.145,0,204.8,0h-10.779c-16.345,0-29.642,13.298-29.642,29.642v377.263
	C164.379,423.249,177.677,436.547,194.021,436.547z M180.547,29.642c0-7.43,6.044-13.474,13.474-13.474H204.8
	c7.43,0,13.474,6.044,13.474,13.474v377.263c0,7.43-6.044,13.474-13.474,13.474h-10.779c-7.43,0-13.474-6.044-13.474-13.474V29.642z
	 M509.632,488.075l-21.558,21.558c-1.578,1.578-3.648,2.367-5.716,2.367s-4.138-0.789-5.716-2.367
	c-3.157-3.158-3.157-8.276,0-11.433l7.758-7.757H51.2c-16.344-0.001-29.642-13.299-29.642-29.643V27.602L13.8,35.359
	c-3.157,3.156-8.276,3.156-11.432,0c-3.157-3.158-3.157-8.276,0-11.433L23.926,2.368c3.157-3.156,8.276-3.156,11.432,0
	l21.558,21.558c3.157,3.158,3.157,8.276,0,11.433c-3.157,3.156-8.276,3.156-11.432,0l-7.758-7.758V460.8
	c0,7.43,6.044,13.474,13.474,13.474h433.199l-7.758-7.757c-3.157-3.158-3.157-8.276,0-11.433c3.157-3.156,8.276-3.156,11.432,0
	l21.558,21.558C512.79,479.799,512.79,484.917,509.632,488.075z M105.094,436.547h10.779c16.345,0,29.642-13.298,29.642-29.642
	V180.548c0-16.344-13.297-29.642-29.642-29.642h-10.779c-16.344,0-29.642,13.298-29.642,29.642v226.358
	C75.452,423.249,88.75,436.547,105.094,436.547z M91.621,180.548c0-7.43,6.044-13.474,13.474-13.474h10.779
	c7.43,0,13.474,6.044,13.474,13.474v226.358c0,7.43-6.044,13.474-13.474,13.474h-10.779c-7.43,0-13.474-6.044-13.474-13.474V180.548
	z M317.979,436.547h10.779c16.345,0,29.642-13.298,29.642-29.642V245.221c0-16.344-13.297-29.642-29.642-29.642h-10.779
	c-16.345,0-29.642,13.298-29.642,29.642v161.684C288.337,423.249,301.635,436.547,317.979,436.547z M304.505,245.221
	c0-7.43,6.044-13.474,13.474-13.474h10.779c7.43,0,13.474,6.044,13.474,13.474v161.684c0,7.43-6.044,13.474-13.474,13.474h-10.779
	c-7.43,0-13.474-6.044-13.474-13.474V245.221z"/>
<g>
</g>
<g>
</g>
<g>
</g>
<g>
</g>
<g>
</g>
<g>
</g>
<g>
</g>
<g>
</g>
<g>
</g>
<g>
</g>
<g>
</g>
<g>
</g>
<g>
</g>
<g>
</g>
<g>
</g>
</svg>
