<?xml version="1.0" encoding="iso-8859-1"?>
<!-- Generator: Adobe Illustrator 19.0.0, SVG Export Plug-In . SVG Version: 6.00 Build 0)  -->
<svg version="1.1" id="Layer_1" xmlns="http://www.w3.org/2000/svg" xmlns:xlink="http://www.w3.org/1999/xlink" x="0px" y="0px"
	 viewBox="0 0 512 512" style="enable-background:new 0 0 512 512;" xml:space="preserve">
<path style="fill:#EDEDED;" d="M460.8,482.358H51.2c-11.906,0-21.558-9.651-21.558-21.558V51.2c0-11.906,9.651-21.558,21.558-21.558
	h409.6c11.906,0,21.558,9.651,21.558,21.558v409.6C482.358,472.706,472.706,482.358,460.8,482.358z"/>
<path style="fill:#FF6029;" d="M353.01,406.905c0,11.905-9.651,21.558-21.558,21.558c-11.906,0-21.558-9.653-21.558-21.558
	c0-11.906,9.651-21.558,21.558-21.558C343.359,385.347,353.01,394.999,353.01,406.905z M342.231,18.863
	c-89.296,0-161.684,72.388-161.684,161.684s72.388,161.684,161.684,161.684s161.684-72.388,161.684-161.684
	S431.527,18.863,342.231,18.863z"/>
<path style="fill:#B7441C;" d="M148.21,110.484c0,20.836-16.891,37.726-37.726,37.726s-37.726-16.891-37.726-37.726
	s16.891-37.726,37.726-37.726S148.21,89.649,148.21,110.484z M196.716,202.105c-4.942,0-9.82,0.274-14.624,0.792
	c10.4,75.193,72.497,133.858,149.258,138.961c0.061-1.665,0.102-3.336,0.102-5.017C331.452,262.429,271.129,202.105,196.716,202.105
	z"/>
<path style="fill:#FF8655;" d="M196.716,245.221c50.601,0,91.621,41.02,91.621,91.621s-41.02,91.621-91.621,91.621
	s-91.621-41.02-91.621-91.621S146.115,245.221,196.716,245.221z"/>
<path d="M176.702,218.408c-2.813-12.347-4.239-25.085-4.239-37.861c0-93.611,76.158-169.768,169.768-169.768S512,86.937,512,180.547
	s-76.158,169.768-169.768,169.768c-7.572,0-15.194-0.504-22.652-1.499c-4.426-0.59-7.536-4.656-6.945-9.081
	c0.59-4.426,4.655-7.539,9.081-6.945c6.752,0.9,13.654,1.357,20.515,1.357c84.696,0,153.6-68.904,153.6-153.6
	s-68.903-153.6-153.599-153.6s-153.6,68.904-153.6,153.6c0,11.569,1.29,23.099,3.835,34.27c0.992,4.354-1.733,8.687-6.086,9.678
	C182.03,225.486,177.694,222.762,176.702,218.408z M331.452,377.263c16.345,0,29.642,13.297,29.642,29.642
	c0,16.345-13.297,29.642-29.642,29.642c-16.345,0-29.642-13.297-29.642-29.642C301.81,390.56,315.108,377.263,331.452,377.263z
	 M331.452,393.432c-7.43,0-13.474,6.044-13.474,13.474s6.044,13.474,13.474,13.474c7.43,0,13.474-6.044,13.474-13.474
	S338.882,393.432,331.452,393.432z M196.716,237.137c54.978,0,99.705,44.727,99.705,99.705s-44.727,99.705-99.705,99.705
	S97.01,391.82,97.01,336.842S141.737,237.137,196.716,237.137z M196.716,253.305c-46.062,0-83.537,37.475-83.537,83.537
	s37.475,83.537,83.537,83.537s83.537-37.475,83.537-83.537S242.778,253.305,196.716,253.305z M509.632,476.642l-21.558-21.558
	c-3.157-3.157-8.276-3.157-11.432,0c-3.157,3.157-3.157,8.276,0,11.432l7.758,7.758H51.2c-7.43,0-13.474-6.044-13.474-13.474V27.601
	l7.758,7.758c3.157,3.157,8.276,3.157,11.432,0c3.157-3.157,3.157-8.276,0-11.432L35.358,2.368c-3.157-3.157-8.276-3.157-11.432,0
	L2.368,23.926c-3.157,3.157-3.157,8.276,0,11.432c3.157,3.157,8.276,3.157,11.432,0l7.758-7.758V460.8
	c0,16.345,13.297,29.642,29.642,29.642h433.199l-7.758,7.758c-3.157,3.157-3.157,8.276,0,11.432
	c1.578,1.578,3.648,2.368,5.716,2.368s4.138-0.789,5.716-2.368l21.558-21.558C512.79,484.918,512.79,479.798,509.632,476.642z
	 M64.673,110.484c0-25.26,20.551-45.811,45.811-45.811s45.811,20.55,45.811,45.811s-20.55,45.811-45.811,45.811
	S64.673,135.745,64.673,110.484z M80.842,110.484c0,16.345,13.297,29.642,29.642,29.642s29.642-13.297,29.642-29.642
	s-13.297-29.642-29.642-29.642S80.842,94.139,80.842,110.484z"/>
<g>
</g>
<g>
</g>
<g>
</g>
<g>
</g>
<g>
</g>
<g>
</g>
<g>
</g>
<g>
</g>
<g>
</g>
<g>
</g>
<g>
</g>
<g>
</g>
<g>
</g>
<g>
</g>
<g>
</g>
</svg>
