<?xml version="1.0" encoding="iso-8859-1"?>
<!-- Generator: Adobe Illustrator 19.0.0, SVG Export Plug-In . SVG Version: 6.00 Build 0)  -->
<svg version="1.1" id="Layer_1" xmlns="http://www.w3.org/2000/svg" xmlns:xlink="http://www.w3.org/1999/xlink" x="0px" y="0px"
	 viewBox="0 0 512.002 512.002" style="enable-background:new 0 0 512.002 512.002;" xml:space="preserve">
<path style="fill:#FFBD7C;" d="M460.801,482.359h-409.6c-11.906,0-21.558-9.651-21.558-21.558v-409.6
	c0-11.906,9.651-21.558,21.558-21.558h409.6c11.906,0,21.558,9.651,21.558,21.558v409.6
	C482.359,472.707,472.707,482.359,460.801,482.359z"/>
<path style="fill:#DAF781;" d="M482.359,51.201v204.8H29.643v-204.8c0-11.906,9.651-21.558,21.558-21.558h409.6
	C472.707,29.643,482.359,39.295,482.359,51.201z"/>
<path style="fill:#92B703;" d="M277.559,202.106h-43.116c-11.906,0-21.558-9.651-21.558-21.558v-75.453
	c0-11.906,9.651-21.558,21.558-21.558h43.116c11.906,0,21.558,9.651,21.558,21.558v75.453
	C299.117,192.455,289.465,202.106,277.559,202.106z"/>
<path style="fill:#768900;" d="M406.906,202.106H363.79c-11.906,0-21.558-9.651-21.558-21.558V29.643
	c0-11.906,9.651-21.558,21.558-21.558h43.116c11.906,0,21.558,9.651,21.558,21.558v150.905
	C428.464,192.455,418.812,202.106,406.906,202.106z"/>
<path style="fill:#FF6029;" d="M169.769,331.453v75.453c0,11.906-9.651,21.558-21.558,21.558h-43.116
	c-11.906,0-21.558-9.651-21.558-21.558v-75.453c0-11.906,9.651-21.558,21.558-21.558h43.116
	C160.118,309.896,169.769,319.548,169.769,331.453z"/>
<path style="fill:#B7441C;" d="M299.117,331.453v150.905c0,11.906-9.651,21.558-21.558,21.558h-43.116
	c-11.906,0-21.558-9.651-21.558-21.558V331.453c0-11.906,9.651-21.558,21.558-21.558h43.116
	C289.465,309.896,299.117,319.548,299.117,331.453z"/>
<path d="M363.79,210.19h43.116c16.344,0,29.642-13.298,29.642-29.642V29.643c0-16.344-13.298-29.642-29.642-29.642H363.79
	c-16.344,0-29.642,13.298-29.642,29.642v150.905C334.148,196.892,347.446,210.19,363.79,210.19z M350.317,29.643
	c0-7.43,6.044-13.474,13.474-13.474h43.116c7.43,0,13.474,6.044,13.474,13.474v150.905c0,7.43-6.044,13.474-13.474,13.474H363.79
	c-7.43,0-13.474-6.044-13.474-13.474V29.643z M509.634,261.718l-21.558,21.558c-3.158,3.156-8.276,3.156-11.433,0
	c-3.157-3.158-3.157-8.276,0-11.433l7.758-7.757H37.727v220.315l7.757-7.758c3.158-3.156,8.276-3.156,11.433,0
	c3.157,3.158,3.157,8.276,0,11.433l-21.558,21.558c-1.578,1.577-3.648,2.366-5.716,2.366s-4.138-0.789-5.717-2.367L2.368,488.076
	c-3.157-3.158-3.157-8.276,0-11.433c3.158-3.156,8.276-3.156,11.433,0l7.758,7.758V27.602l-7.757,7.758
	c-3.158,3.156-8.276,3.156-11.433,0c-3.157-3.158-3.157-8.276,0-11.433L23.927,2.369c3.158-3.156,8.276-3.156,11.433,0
	l21.558,21.558c3.157,3.158,3.157,8.276,0,11.433c-3.158,3.156-8.276,3.156-11.433,0l-7.758-7.758v220.314H484.4l-7.758-7.757
	c-3.157-3.158-3.157-8.276,0-11.433c3.158-3.156,8.276-3.156,11.433,0l21.558,21.558
	C512.791,253.442,512.791,258.56,509.634,261.718z M277.559,301.811h-43.116c-16.344,0-29.642,13.298-29.642,29.642v150.905
	c0,16.344,13.298,29.642,29.642,29.642h43.116c16.344,0,29.642-13.298,29.642-29.642V331.453
	C307.201,315.109,293.903,301.811,277.559,301.811z M291.032,482.359c0,7.43-6.044,13.474-13.474,13.474h-43.116
	c-7.43,0-13.474-6.044-13.474-13.474V331.453c0-7.43,6.044-13.474,13.474-13.474h43.116c7.43,0,13.474,6.044,13.474,13.474V482.359z
	 M234.443,210.19h43.116c16.344,0,29.642-13.298,29.642-29.642v-75.453c0-16.344-13.298-29.642-29.642-29.642h-43.116
	c-16.344,0-29.642,13.298-29.642,29.642v75.453C204.801,196.892,218.099,210.19,234.443,210.19z M220.969,105.096
	c0-7.43,6.044-13.474,13.474-13.474h43.116c7.43,0,13.474,6.044,13.474,13.474v75.453c0,7.43-6.044,13.474-13.474,13.474h-43.116
	c-7.43,0-13.474-6.044-13.474-13.474V105.096z M148.211,301.811h-43.116c-16.344,0-29.642,13.298-29.642,29.642v75.453
	c0,16.344,13.298,29.642,29.642,29.642h43.116c16.344,0,29.642-13.298,29.642-29.642v-75.453
	C177.853,315.109,164.555,301.811,148.211,301.811z M161.685,406.906c0,7.43-6.044,13.474-13.474,13.474h-43.116
	c-7.43,0-13.474-6.044-13.474-13.474v-75.453c0-7.43,6.044-13.474,13.474-13.474h43.116c7.43,0,13.474,6.044,13.474,13.474V406.906z
	"/>
<g>
</g>
<g>
</g>
<g>
</g>
<g>
</g>
<g>
</g>
<g>
</g>
<g>
</g>
<g>
</g>
<g>
</g>
<g>
</g>
<g>
</g>
<g>
</g>
<g>
</g>
<g>
</g>
<g>
</g>
</svg>
