<?xml version="1.0" encoding="iso-8859-1"?>
<!-- Generator: Adobe Illustrator 19.0.0, SVG Export Plug-In . SVG Version: 6.00 Build 0)  -->
<svg version="1.1" id="Layer_1" xmlns="http://www.w3.org/2000/svg" xmlns:xlink="http://www.w3.org/1999/xlink" x="0px" y="0px"
	 viewBox="0 0 512 512" style="enable-background:new 0 0 512 512;" xml:space="preserve">
<path style="fill:#FF6029;" d="M503.916,180.547v301.811c0,11.906-9.651,21.558-21.558,21.558H105.095
	c-11.906,0-21.558-9.651-21.558-21.558v-43.116c0-11.906,9.651-21.558,21.558-21.558h118.568V353.01
	c0-11.906,9.651-21.558,21.558-21.558h86.232v-64.674c0-11.906,9.651-21.558,21.558-21.558h65.347v-64.674
	c0-11.906,9.651-21.558,21.558-21.558h42.442C494.264,158.989,503.916,168.641,503.916,180.547z M72.758,212.884
	c0,23.812,19.304,43.116,43.116,43.116s43.116-19.304,43.116-43.116s-19.304-43.116-43.116-43.116S72.758,189.072,72.758,212.884z"
	/>
<path style="fill:#FFBC00;" d="M230.849,115.874c23.812,0,43.116,19.304,43.116,43.116s-19.304,43.116-43.116,43.116
	s-43.116-19.304-43.116-43.116S207.037,115.874,230.849,115.874z M482.358,158.989h-42.442c-11.906,0-21.558,9.651-21.558,21.558
	v64.674H353.01c-11.906,0-21.558,9.651-21.558,21.558v64.674h-86.232c-11.906,0-21.558,9.651-21.558,21.558v64.674h280.253V180.547
	C503.916,168.641,494.264,158.989,482.358,158.989z"/>
<path style="fill:#73A4BC;" d="M345.824,61.979c23.812,0,43.116,19.304,43.116,43.116s-19.304,43.116-43.116,43.116
	s-43.116-19.304-43.116-43.116S322.012,61.979,345.824,61.979z M482.358,158.989h-42.442c-11.906,0-21.558,9.651-21.558,21.558
	v64.674H353.01c-11.906,0-21.558,9.651-21.558,21.558v64.674h172.463V180.547C503.916,168.641,494.264,158.989,482.358,158.989z"/>
<path style="fill:#92B703;" d="M460.8,8.084c23.812,0,43.116,19.304,43.116,43.116S484.612,94.316,460.8,94.316
	c-23.812,0-43.116-19.304-43.116-43.116S436.988,8.084,460.8,8.084z M482.358,158.989h-42.442c-11.906,0-21.558,9.651-21.558,21.558
	v64.674h85.558v-64.674C503.916,168.641,494.264,158.989,482.358,158.989z"/>
<path d="M460.8,102.4c28.231,0,51.2-22.969,51.2-51.2S489.031,0,460.8,0c-28.231,0-51.2,22.969-51.2,51.2S432.569,102.4,460.8,102.4
	z M460.8,16.168c19.317,0,35.032,15.715,35.032,35.032S480.117,86.232,460.8,86.232c-19.317,0-35.032-15.715-35.032-35.032
	S441.483,16.168,460.8,16.168z M460.8,115.604c4.466,0,8.084,3.618,8.084,8.084v5.928c0,4.466-3.618,8.084-8.084,8.084
	s-8.084-3.618-8.084-8.084v-5.928C452.716,119.223,456.334,115.604,460.8,115.604z M345.824,156.295c28.231,0,51.2-22.969,51.2-51.2
	s-22.969-51.2-51.2-51.2s-51.2,22.969-51.2,51.2S317.593,156.295,345.824,156.295z M345.824,70.063
	c19.317,0,35.032,15.715,35.032,35.032s-15.715,35.032-35.032,35.032c-19.317,0-35.032-15.715-35.032-35.032
	S326.507,70.063,345.824,70.063z M230.849,210.189c28.231,0,51.2-22.969,51.2-51.2s-22.969-51.2-51.2-51.2s-51.2,22.969-51.2,51.2
	S202.618,210.189,230.849,210.189z M230.849,123.958c19.317,0,35.032,15.715,35.032,35.032s-15.715,35.032-35.032,35.032
	s-35.032-15.715-35.032-35.032S211.533,123.958,230.849,123.958z M48.505,503.916c0,4.466-3.618,8.084-8.084,8.084H8.084
	C3.618,512,0,508.382,0,503.916s3.618-8.084,8.084-8.084h32.337C44.887,495.832,48.505,499.45,48.505,503.916z M115.874,264.084
	c28.231,0,51.2-22.969,51.2-51.2s-22.969-51.2-51.2-51.2s-51.2,22.969-51.2,51.2S87.643,264.084,115.874,264.084z M115.874,177.853
	c19.317,0,35.032,15.715,35.032,35.032s-15.715,35.032-35.032,35.032s-35.032-15.715-35.032-35.032S96.557,177.853,115.874,177.853z
	 M482.358,150.905h-42.442c-16.344,0-29.642,13.298-29.642,29.642v56.589H353.01c-16.344,0-29.642,13.298-29.642,29.642v56.589
	h-78.147c-16.344,0-29.642,13.298-29.642,29.642V409.6H105.095c-16.344,0-29.642,13.298-29.642,29.642v43.116
	c0,4.848,1.171,9.429,3.243,13.474h-5.938c-4.466,0-8.084,3.618-8.084,8.084S68.292,512,72.758,512h409.6
	C498.702,512,512,498.702,512,482.358V180.547C512,164.203,498.702,150.905,482.358,150.905z M495.832,237.137h-14.013
	c-4.466,0-8.084,3.618-8.084,8.084c0,4.466,3.618,8.084,8.084,8.084h14.013v70.063h-14.013c-4.466,0-8.084,3.618-8.084,8.084
	c0,4.466,3.618,8.084,8.084,8.084h14.013V409.6h-14.013c-4.466,0-8.084,3.618-8.084,8.084c0,4.466,3.618,8.084,8.084,8.084h14.013
	v56.589c0,7.43-6.044,13.474-13.474,13.474H105.095c-7.43,0-13.474-6.044-13.474-13.474v-43.116c0-7.43,6.044-13.474,13.474-13.474
	h343.584c4.466,0,8.084-3.618,8.084-8.084c0-4.466-3.618-8.084-8.084-8.084H231.747V353.01c0-7.43,6.044-13.474,13.474-13.474
	h203.458c4.466,0,8.084-3.618,8.084-8.084c0-4.466-3.618-8.084-8.084-8.084H339.537v-56.589c0-7.43,6.044-13.474,13.474-13.474
	h97.011c4.466,0,8.084-3.618,8.084-8.084c0-4.466-3.618-8.084-8.084-8.084h-23.579v-56.589c0-7.43,6.044-13.474,13.474-13.474
	h42.442c7.43,0,13.474,6.044,13.474,13.474V237.137z M123.958,319.596c0,4.466-3.618,8.084-8.084,8.084s-8.084-3.618-8.084-8.084
	v-4.312c0-4.466,3.618-8.084,8.084-8.084s8.084,3.618,8.084,8.084V319.596z M123.958,282.947c0,4.466-3.618,8.084-8.084,8.084
	s-8.084-3.618-8.084-8.084v-4.312c0-4.466,3.618-8.084,8.084-8.084s8.084,3.618,8.084,8.084V282.947z M123.958,388.581v4.312
	c0,4.466-3.618,8.084-8.084,8.084s-8.084-3.618-8.084-8.084v-4.312c0-4.466,3.618-8.084,8.084-8.084
	S123.958,384.115,123.958,388.581z M238.934,270.013c0,4.466-3.618,8.084-8.084,8.084c-4.466,0-8.084-3.618-8.084-8.084v-4.312
	c0-4.466,3.618-8.084,8.084-8.084c4.466,0,8.084,3.618,8.084,8.084V270.013z M238.934,233.364c0,4.466-3.618,8.084-8.084,8.084
	c-4.466,0-8.084-3.618-8.084-8.084v-4.312c0-4.466,3.618-8.084,8.084-8.084c4.466,0,8.084,3.618,8.084,8.084V233.364z
	 M238.934,302.349v4.312c0,4.466-3.618,8.084-8.084,8.084c-4.466,0-8.084-3.618-8.084-8.084v-4.312c0-4.466,3.618-8.084,8.084-8.084
	C235.315,294.265,238.934,297.884,238.934,302.349z M353.908,212.884v4.312c0,4.466-3.618,8.084-8.084,8.084
	s-8.084-3.618-8.084-8.084v-4.312c0-4.466,3.618-8.084,8.084-8.084S353.908,208.418,353.908,212.884z M123.958,356.244
	c0,4.466-3.618,8.084-8.084,8.084s-8.084-3.618-8.084-8.084v-4.312c0-4.466,3.618-8.084,8.084-8.084s8.084,3.618,8.084,8.084
	V356.244z M353.908,180.547c0,4.466-3.618,8.084-8.084,8.084s-8.084-3.618-8.084-8.084v-4.312c0-4.466,3.618-8.084,8.084-8.084
	s8.084,3.618,8.084,8.084V180.547z"/>
<g>
</g>
<g>
</g>
<g>
</g>
<g>
</g>
<g>
</g>
<g>
</g>
<g>
</g>
<g>
</g>
<g>
</g>
<g>
</g>
<g>
</g>
<g>
</g>
<g>
</g>
<g>
</g>
<g>
</g>
</svg>
