<?xml version="1.0" encoding="iso-8859-1"?>
<!-- Generator: Adobe Illustrator 19.0.0, SVG Export Plug-In . SVG Version: 6.00 Build 0)  -->
<svg version="1.1" id="Layer_1" xmlns="http://www.w3.org/2000/svg" xmlns:xlink="http://www.w3.org/1999/xlink" x="0px" y="0px"
	 viewBox="0 0 512 512" style="enable-background:new 0 0 512 512;" xml:space="preserve">
<path style="fill:#FFBC00;" d="M256,8.084C392.92,8.084,503.916,119.08,503.916,256S392.92,503.916,256,503.916
	S8.084,392.92,8.084,256S119.08,8.084,256,8.084z"/>
<path style="fill:#B7441C;" d="M503.916,256c0,136.92-110.995,247.916-247.916,247.916V8.084
	C392.921,8.084,503.916,119.079,503.916,256z"/>
<path style="fill:#FF6029;" d="M256,256l0.877,1.52l0.877-1.52l213.418,123.217C428.414,453.727,348.068,503.916,256,503.916
	c-91.755,0-171.862-49.85-214.731-123.941L256,256z"/>
<path d="M247.916,223.663V42.71c0-4.465,3.618-8.084,8.084-8.084s8.084,3.62,8.084,8.084v180.953c0,4.465-3.618,8.084-8.084,8.084
	S247.916,228.128,247.916,223.663z M443.283,354.793l-172.514-99.602c-9.097-5.253-20.415-5.275-29.534-0.061l-172.49,98.634
	c-3.876,2.216-5.221,7.155-3.005,11.031c2.217,3.876,7.157,5.22,11.03,3.005l172.489-98.633c4.148-2.37,9.29-2.359,13.425,0.027
	l172.514,99.601c1.274,0.735,2.663,1.084,4.035,1.084c2.794,0,5.511-1.45,7.008-4.043
	C448.474,361.97,447.15,357.026,443.283,354.793z M512,256c0,68.379-26.628,132.667-74.982,181.019
	C388.667,485.372,324.379,512,256,512s-132.667-26.628-181.019-74.981S0,324.379,0,256S26.628,123.333,74.982,74.981
	C123.333,26.628,187.62,0,256,0s132.667,26.628,181.019,74.981C485.372,123.333,512,187.62,512,256z M495.832,256
	c0-132.244-107.588-239.832-239.832-239.832S16.168,123.756,16.168,256S123.756,495.832,256,495.832S495.832,388.244,495.832,256z"
	/>
<g>
</g>
<g>
</g>
<g>
</g>
<g>
</g>
<g>
</g>
<g>
</g>
<g>
</g>
<g>
</g>
<g>
</g>
<g>
</g>
<g>
</g>
<g>
</g>
<g>
</g>
<g>
</g>
<g>
</g>
</svg>
