<?xml version="1.0" encoding="iso-8859-1"?>
<!-- Generator: Adobe Illustrator 19.0.0, SVG Export Plug-In . SVG Version: 6.00 Build 0)  -->
<svg version="1.1" id="Layer_1" xmlns="http://www.w3.org/2000/svg" xmlns:xlink="http://www.w3.org/1999/xlink" x="0px" y="0px"
	 viewBox="0 0 512.001 512.001" style="enable-background:new 0 0 512.001 512.001;" xml:space="preserve">
<path style="fill:#EDEDED;" d="M402.021,266.275c0,86.319-69.976,156.295-156.295,156.295S89.432,352.594,89.432,266.275
	S159.408,109.98,245.726,109.98S402.021,179.956,402.021,266.275z"/>
<path style="fill:#C6C6C6;" d="M245.726,29.607c-130.709,0-236.669,105.96-236.669,236.669s105.96,236.669,236.669,236.669
	s236.669-105.96,236.669-236.669S376.434,29.607,245.726,29.607z M245.726,390.245c-68.467,0-123.97-55.503-123.97-123.97
	s55.503-123.97,123.97-123.97s123.97,55.503,123.97,123.97S314.192,390.245,245.726,390.245z"/>
<path style="fill:#969696;" d="M245.725,85.956c-99.588,0-180.319,80.731-180.319,180.319s80.731,180.319,180.319,180.319
	s180.319-80.731,180.319-180.319S345.313,85.956,245.725,85.956z M245.725,390.245c-68.467,0-123.97-55.503-123.97-123.97
	s55.503-123.97,123.97-123.97s123.97,55.503,123.97,123.97S314.192,390.245,245.725,390.245z"/>
<path style="fill:#FF6029;" d="M269.421,9.159C392.917,20.8,491.203,119.084,502.843,242.581
	c1.246,13.215-9.178,24.631-22.451,24.631H345.592c-5.739,0-10.562-4.313-11.193-10.016c-0.046-0.418-0.096-0.836-0.148-1.254
	c-5.086-40.783-37.409-73.107-78.192-78.193c-0.417-0.052-0.835-0.101-1.255-0.148c-5.703-0.631-10.016-5.455-10.016-11.193V31.61
	C244.79,18.337,256.206,7.913,269.421,9.159z"/>
<path style="fill:#B7441C;" d="M426.033,267.212h-80.441c-5.738,0-10.562-4.313-11.193-10.016c-0.046-0.418-0.096-0.836-0.148-1.254
	c-5.086-40.783-37.409-73.107-78.192-78.193c-0.417-0.052-0.835-0.101-1.255-0.148c-5.703-0.631-10.016-5.455-10.016-11.193V85.968
	c0.313-0.001,0.623-0.012,0.936-0.012c99.588,0,180.319,80.731,180.319,180.319C426.045,266.589,426.034,266.899,426.033,267.212z"
	/>
<path d="M489.013,300.359c-8.071,58.199-36.955,111.704-81.33,150.661c-44.792,39.325-102.323,60.981-161.996,60.981
	c-65.625,0-127.322-25.556-173.726-71.96S0.001,331.94,0.001,266.315c0-59.488,21.538-116.885,60.648-161.618
	c38.734-44.304,91.985-73.269,149.948-81.562c4.415-0.639,8.514,2.438,9.147,6.858c0.633,4.419-2.438,8.515-6.858,9.147
	C100.74,55.186,16.169,152.849,16.169,266.315c0,126.556,102.962,229.517,229.517,229.517c113.958,0,211.68-84.99,227.312-197.693
	c0.613-4.423,4.693-7.513,9.118-6.896C486.539,291.855,489.627,295.937,489.013,300.359z M210.235,80.535
	C121.197,97.427,56.573,175.56,56.573,266.315c0,104.278,84.837,189.114,189.113,189.114c91.287,0,169.504-65.068,185.983-154.718
	c0.807-4.391-2.099-8.605-6.49-9.412c-4.389-0.803-8.605,2.099-9.412,6.49c-15.069,81.975-86.598,141.473-170.081,141.473
	c-95.362,0-172.945-77.583-172.945-172.946c0-82.997,59.091-154.448,140.507-169.896c4.387-0.832,7.268-5.063,6.436-9.45
	C218.851,82.584,214.623,79.706,210.235,80.535z M213.941,154.323c4.296-1.215,6.794-5.683,5.578-9.979
	c-1.215-4.295-5.683-6.792-9.979-5.578c-56.757,16.055-96.396,68.506-96.396,127.549c0,73.085,59.458,132.542,132.542,132.542
	c59.562,0,112.132-40.083,127.842-97.474c1.179-4.306-1.357-8.753-5.663-9.932c-4.306-1.182-8.754,1.357-9.932,5.663
	c-13.792,50.384-59.949,85.574-112.247,85.574c-64.169,0-116.374-52.205-116.374-116.374
	C129.313,214.471,164.114,168.418,213.941,154.323z M504.008,265.29c-5.812,6.385-14.097,10.048-22.731,10.048H345.947
	c-9.899,0-18.185-7.416-19.273-17.252c-0.043-0.385-0.087-0.766-0.135-1.147c-4.666-37.418-34.058-66.811-71.478-71.477
	c-0.378-0.047-0.761-0.092-1.144-0.135c-9.839-1.088-17.255-9.373-17.255-19.273V30.724c0-8.633,3.663-16.918,10.048-22.731
	c6.376-5.802,14.951-8.667,23.522-7.859c127.95,12.061,229.572,113.682,241.633,241.633
	C512.675,250.342,509.811,258.915,504.008,265.29z M495.77,243.285C484.437,123.054,388.947,27.566,268.717,16.232
	c-0.47-0.044-0.939-0.067-1.403-0.067c-3.6,0-7.007,1.318-9.718,3.786c-3.072,2.795-4.763,6.622-4.763,10.772v135.331
	c0,1.645,1.23,3.021,2.86,3.202c0.455,0.05,0.912,0.105,1.369,0.161c44.774,5.583,79.941,40.752,85.524,85.523
	c0.057,0.457,0.111,0.915,0.161,1.372c0.18,1.629,1.556,2.857,3.202,2.857h135.331c4.151,0,7.978-1.691,10.772-4.763
	C494.836,251.346,496.157,247.397,495.77,243.285z M278.043,79.959c-4.398-0.758-8.581,2.192-9.341,6.592
	c-0.759,4.4,2.194,8.582,6.592,9.341c71.403,12.315,127.923,68.515,140.645,139.847c0.697,3.915,4.106,6.667,7.949,6.667
	c0.471,0,0.949-0.042,1.429-0.127c4.396-0.784,7.323-4.982,6.539-9.378C417.945,154.889,356.132,93.426,278.043,79.959z"/>
<g>
</g>
<g>
</g>
<g>
</g>
<g>
</g>
<g>
</g>
<g>
</g>
<g>
</g>
<g>
</g>
<g>
</g>
<g>
</g>
<g>
</g>
<g>
</g>
<g>
</g>
<g>
</g>
<g>
</g>
</svg>
