<?xml version="1.0" encoding="iso-8859-1"?>
<!-- Generator: Adobe Illustrator 19.0.0, SVG Export Plug-In . SVG Version: 6.00 Build 0)  -->
<svg version="1.1" id="Layer_1" xmlns="http://www.w3.org/2000/svg" xmlns:xlink="http://www.w3.org/1999/xlink" x="0px" y="0px"
	 viewBox="0 0 512 512" style="enable-background:new 0 0 512 512;" xml:space="preserve">
<path style="fill:#B6E152;" d="M503.916,256c0,136.92-110.996,247.916-247.916,247.916S8.084,392.92,8.084,256
	S119.08,8.084,256,8.084S503.916,119.08,503.916,256z"/>
<path style="fill:#73A4BC;" d="M8.084,256h495.832c0,136.92-110.995,247.916-247.916,247.916S8.084,392.92,8.084,256z"/>
<path style="fill:#FF6029;" d="M256,8.084v495.832C119.079,503.916,8.084,392.92,8.084,256S119.08,8.084,256,8.084z"/>
<path style="fill:#FFBC00;" d="M256,256H8.084C8.084,119.079,119.079,8.084,256,8.084V256z"/>
<path style="fill:#92B703;" d="M379.958,256c0,68.46-55.498,123.958-123.958,123.958S132.042,324.46,132.042,256
	S187.54,132.042,256,132.042S379.958,187.54,379.958,256z"/>
<path style="fill:#56889B;" d="M132.042,256h247.916c0,68.46-55.498,123.958-123.958,123.958S132.042,324.46,132.042,256z"/>
<path style="fill:#B7441C;" d="M256,132.042v247.916c-68.46,0-123.958-55.498-123.958-123.958S187.54,132.042,256,132.042z"/>
<path style="fill:#E0A000;" d="M256,256H132.042c0-68.46,55.498-123.958,123.958-123.958V256z"/>
<path style="fill:#EDEDED;" d="M342.232,256c0,47.625-38.607,86.232-86.232,86.232S169.768,303.625,169.768,256
	s38.607-86.232,86.232-86.232S342.232,208.375,342.232,256z"/>
<path d="M286.786,144.258c-4.305-1.184-6.836-5.633-5.652-9.938c1.184-4.306,5.63-6.835,9.938-5.652
	c44.933,12.349,80.359,47.975,92.454,92.974c1.159,4.312-1.396,8.746-5.708,9.905c-0.703,0.189-1.409,0.279-2.104,0.279
	c-3.567,0-6.832-2.379-7.802-5.988C357.298,186.354,326.212,155.094,286.786,144.258z M226.129,144.011
	c4.315-1.148,6.882-5.576,5.734-9.891c-1.148-4.315-5.579-6.883-9.891-5.734c-45.718,12.16-81.607,48.131-93.665,93.875
	c-1.138,4.317,1.439,8.74,5.757,9.878c0.691,0.182,1.384,0.269,2.066,0.269c3.582,0,6.856-2.399,7.813-6.025
	C154.523,186.243,186.014,154.681,226.129,144.011z M144.219,286.642c-1.177-4.306-5.623-6.844-9.931-5.665
	c-4.306,1.178-6.844,5.623-5.665,9.931c12.347,45.152,48.117,80.675,93.35,92.707c0.696,0.185,1.395,0.274,2.084,0.274
	c3.575,0,6.845-2.39,7.807-6.008c1.148-4.315-1.42-8.743-5.734-9.891C186.439,357.432,155.053,326.261,144.219,286.642z M512,256
	c0,68.379-26.628,132.667-74.981,181.019S324.379,512,256,512s-132.667-26.628-181.019-74.981S0,324.379,0,256
	S26.628,123.333,74.981,74.981S187.62,0,256,0s132.667,26.628,181.019,74.981S512,187.62,512,256z M264.084,162.027
	c45.57,3.887,82.001,40.319,85.889,85.889h145.725C491.51,122.08,389.92,20.49,264.084,16.303V162.027z M16.303,247.916h145.725
	c3.887-45.57,40.319-82.001,85.889-85.889V16.303C122.08,20.49,20.49,122.08,16.303,247.916z M247.916,349.973
	c-45.57-3.887-82.001-40.319-85.889-85.889H16.303C20.49,389.92,122.08,491.51,247.916,495.697V349.973z M256,334.147
	c43.091,0,78.147-35.056,78.147-78.147S299.091,177.853,256,177.853S177.853,212.909,177.853,256S212.909,334.147,256,334.147z
	 M495.697,264.084H349.973c-3.887,45.57-40.319,82.001-85.889,85.889v145.725C389.92,491.51,491.51,389.92,495.697,264.084z
	 M286.787,367.741c-4.305,1.184-6.836,5.633-5.652,9.938c0.986,3.588,4.242,5.944,7.791,5.944c0.709,0,1.43-0.094,2.147-0.291
	c44.374-12.196,79.656-47.301,92.08-91.615c1.205-4.299-1.302-8.761-5.602-9.966c-4.3-1.205-8.761,1.302-9.967,5.602
	C356.683,326.237,325.724,357.04,286.787,367.741z"/>
<g>
</g>
<g>
</g>
<g>
</g>
<g>
</g>
<g>
</g>
<g>
</g>
<g>
</g>
<g>
</g>
<g>
</g>
<g>
</g>
<g>
</g>
<g>
</g>
<g>
</g>
<g>
</g>
<g>
</g>
</svg>
