<?xml version="1.0" encoding="iso-8859-1"?>
<!-- Generator: Adobe Illustrator 19.0.0, SVG Export Plug-In . SVG Version: 6.00 Build 0)  -->
<svg version="1.1" id="Layer_1" xmlns="http://www.w3.org/2000/svg" xmlns:xlink="http://www.w3.org/1999/xlink" x="0px" y="0px"
	 viewBox="0 0 512 512" style="enable-background:new 0 0 512 512;" xml:space="preserve">
<path style="fill:#EDEDED;" d="M460.8,482.358H51.2c-11.906,0-21.558-9.651-21.558-21.558V51.2c0-11.906,9.651-21.558,21.558-21.558
	h409.6c11.906,0,21.558,9.651,21.558,21.558v409.6C482.358,472.707,472.706,482.358,460.8,482.358z"/>
<path style="fill:#92B703;" d="M305.852,393.432h-10.779c-11.906,0-21.558-9.651-21.558-21.558V80.842
	c0-11.906,9.651-21.558,21.558-21.558h10.779c11.906,0,21.558,9.651,21.558,21.558v291.032
	C327.41,383.78,317.759,393.432,305.852,393.432z M149.558,296.421v-64.674c0-11.906-9.651-21.558-21.558-21.558h-10.779
	c-11.906,0-21.558,9.651-21.558,21.558v64.674c0,11.906,9.651,21.558,21.558,21.558H128
	C139.906,317.979,149.558,308.328,149.558,296.421z"/>
<path style="fill:#73A4BC;" d="M216.926,374.569h-10.779c-11.906,0-21.558-9.651-21.558-21.558v-204.8
	c0-11.906,9.651-21.558,21.558-21.558h10.779c11.906,0,21.558,9.651,21.558,21.558v204.8
	C238.484,364.917,228.832,374.569,216.926,374.569z M416.337,245.221V137.432c0-11.906-9.651-21.558-21.558-21.558H384
	c-11.906,0-21.558,9.651-21.558,21.558v107.789c0,11.906,9.651,21.558,21.558,21.558h10.779
	C406.685,266.779,416.337,257.128,416.337,245.221z"/>
<path d="M381.305,274.743v35.152c0,4.466,3.618,8.084,8.084,8.084s8.084-3.618,8.084-8.084v-35.152
	c15.087-1.366,26.947-14.084,26.947-29.521V137.432c0-15.437-11.86-28.156-26.947-29.521V72.758c0-4.466-3.618-8.084-8.084-8.084
	s-8.084,3.618-8.084,8.084v35.152c-15.087,1.366-26.947,14.084-26.947,29.521v107.789
	C354.358,260.658,366.218,273.377,381.305,274.743z M370.526,137.432c0-7.43,6.044-13.474,13.474-13.474h10.779
	c7.43,0,13.474,6.044,13.474,13.474v107.789c0,7.43-6.044,13.474-13.474,13.474h-5.389H384c-7.43,0-13.474-6.044-13.474-13.474
	V137.432z M509.633,488.075l-21.558,21.558c-1.579,1.578-3.649,2.367-5.717,2.367s-4.138-0.789-5.717-2.367
	c-3.157-3.158-3.157-8.276,0-11.433l7.758-7.757H51.2c-16.344-0.001-29.642-13.299-29.642-29.643V27.602L13.8,35.36
	c-3.157,3.156-8.276,3.156-11.432,0c-3.157-3.158-3.157-8.276,0-11.433L23.926,2.368c3.157-3.156,8.276-3.156,11.432,0
	l21.558,21.558c3.157,3.158,3.157,8.276,0,11.433c-3.157,3.156-8.276,3.156-11.432,0l-7.758-7.758V460.8
	c0,7.43,6.044,13.474,13.474,13.474h433.199l-7.758-7.757c-3.157-3.158-3.157-8.276,0-11.433c3.158-3.156,8.276-3.156,11.433,0
	l21.558,21.558C512.79,479.799,512.79,484.917,509.633,488.075z M114.526,317.858v35.152c0,4.466,3.62,8.084,8.084,8.084
	s8.084-3.618,8.084-8.084v-35.152c15.087-1.366,26.947-14.084,26.947-29.521v-64.674c0-15.437-11.86-28.156-26.947-29.521V158.99
	c0-4.466-3.62-8.084-8.084-8.084s-8.084,3.618-8.084,8.084v35.152c-15.087,1.366-26.947,14.084-26.947,29.521v64.674
	C87.579,303.774,99.439,316.493,114.526,317.858z M103.747,223.663c0-7.43,6.044-13.474,13.474-13.474H128
	c7.43,0,13.474,6.044,13.474,13.474v64.674c0,7.43-6.044,13.474-13.474,13.474h-5.389h-5.389c-7.43,0-13.474-6.044-13.474-13.474
	V223.663z M203.452,382.532v35.152c0,4.466,3.62,8.084,8.084,8.084c4.465,0,8.084-3.618,8.084-8.084v-35.152
	c15.087-1.366,26.947-14.084,26.947-29.521v-204.8c0-15.437-11.86-28.156-26.947-29.521V83.537c0-4.466-3.62-8.084-8.084-8.084
	c-4.465,0-8.084,3.618-8.084,8.084v35.152c-15.087,1.366-26.947,14.084-26.947,29.521v204.8
	C176.505,368.447,188.365,381.166,203.452,382.532z M192.673,148.211c0-7.43,6.044-13.474,13.474-13.474h10.779
	c7.43,0,13.474,6.044,13.474,13.474v204.8c0,7.43-6.044,13.474-13.474,13.474h-5.389h-5.389c-7.43,0-13.474-6.044-13.474-13.474
	V148.211z M291.031,393.157v35.306c0,4.466,3.618,8.084,8.084,8.084s8.084-3.618,8.084-8.084v-35.062
	c15.721-0.707,28.295-13.719,28.295-29.612V72.758c0-15.892-12.574-28.904-28.295-29.612V8.084c0-4.466-3.618-8.084-8.084-8.084
	s-8.084,3.62-8.084,8.084v35.306c-14.439,1.977-25.6,14.394-25.6,29.367V363.79C265.431,378.764,276.592,391.18,291.031,393.157z
	 M281.6,72.758c0-7.43,6.044-13.474,13.474-13.474h10.779c7.43,0,13.474,6.044,13.474,13.474V363.79
	c0,7.43-6.044,13.474-13.474,13.474h-6.737h-4.042c-7.43,0-13.474-6.044-13.474-13.474V72.758z"/>
<g>
</g>
<g>
</g>
<g>
</g>
<g>
</g>
<g>
</g>
<g>
</g>
<g>
</g>
<g>
</g>
<g>
</g>
<g>
</g>
<g>
</g>
<g>
</g>
<g>
</g>
<g>
</g>
<g>
</g>
</svg>
