<?xml version="1.0" encoding="iso-8859-1"?>
<!-- Generator: Adobe Illustrator 19.0.0, SVG Export Plug-In . SVG Version: 6.00 Build 0)  -->
<svg version="1.1" id="Layer_1" xmlns="http://www.w3.org/2000/svg" xmlns:xlink="http://www.w3.org/1999/xlink" x="0px" y="0px"
	 viewBox="0 0 512 512" style="enable-background:new 0 0 512 512;" xml:space="preserve">
<path style="fill:#C6C6C6;" d="M461.227,381.363L272.904,489.095c-6.357,3.637-14.19,3.637-20.548,0L64.034,381.363
	c-6.357-3.637-10.273-10.359-10.273-17.632V148.269c0-7.274,3.916-13.995,10.273-17.632L252.356,22.905
	c6.357-3.637,14.19-3.637,20.548,0l188.322,107.731c6.357,3.637,10.273,10.359,10.273,17.632v215.463
	C471.5,371.005,467.584,377.727,461.227,381.363z"/>
<path style="fill:#FF8655;" d="M418.369,345.706L262.63,434.359L53.759,375.107l53.132-210.369l154.401-81.74l157.078,81.74v180.968
	H418.369z"/>
<path style="fill:#FF6029;" d="M349.198,310.646l-82.089,46.96c-2.771,1.586-6.186,1.586-8.956,0l-82.089-46.96
	c-2.771-1.586-4.479-4.515-4.479-7.685v-93.92c0-3.17,1.707-6.101,4.479-7.685l82.089-46.96c2.771-1.586,6.186-1.586,8.956,0
	l82.089,46.96c2.771,1.586,4.479,4.515,4.479,7.685v93.92C353.676,306.131,351.969,309.06,349.198,310.646z"/>
<path style="fill:#B7441C;" d="M284.052,87.072c0,11.906-9.591,21.558-21.423,21.558s-21.423-9.651-21.423-21.558
	s9.591-21.558,21.423-21.558S284.052,75.166,284.052,87.072z M53.76,353.549c-11.832,0-21.423,9.651-21.423,21.558
	c0,11.906,9.591,21.558,21.423,21.558s21.423-9.651,21.423-21.558C75.183,363.201,65.591,353.549,53.76,353.549z M415.267,321.213
	c-11.831,0-21.423,9.651-21.423,21.558s9.591,21.558,21.423,21.558s21.423-9.651,21.423-21.558S427.098,321.213,415.267,321.213z
	 M261.292,412.801c-11.831,0-21.423,9.651-21.423,21.558s9.591,21.558,21.423,21.558c11.832,0,21.423-9.651,21.423-21.558
	C282.714,422.453,273.122,412.801,261.292,412.801z M107.673,143.18c-11.831,0-21.423,9.651-21.423,21.558
	s9.591,21.558,21.423,21.558s21.423-9.651,21.423-21.558C129.095,152.833,119.504,143.18,107.673,143.18z M415.267,186.296
	c11.831,0,21.423-9.651,21.423-21.558s-9.591-21.558-21.423-21.558s-21.423,9.651-21.423,21.558S403.435,186.296,415.267,186.296z"
	/>
<path d="M483.708,372.958l-2.857-1.651c0.684-2.438,1.044-4.984,1.044-7.575V148.269c0-3.063-0.503-6.062-1.45-8.896l0.571-0.331
	c3.865-2.234,5.188-7.179,2.953-11.045c-2.233-3.865-7.179-5.188-11.044-2.955l-1.794,1.037c-1.143-0.908-2.362-1.734-3.653-2.469
	L278.167,15.878c-2.4-1.366-4.958-2.361-7.588-2.985v-4.81c0-4.465-3.618-8.084-8.084-8.084s-8.084,3.62-8.084,8.084v5.589
	c-1.685,0.577-3.324,1.312-4.896,2.206L60.201,123.611c-1.29,0.735-2.509,1.561-3.652,2.469l-1.794-1.037
	c-3.864-2.234-8.811-0.912-11.044,2.955c-2.234,3.865-0.912,8.811,2.953,11.045l0.571,0.331c-0.946,2.834-1.45,5.834-1.45,8.896
	v198.319c-12.413,3.529-21.533,14.978-21.533,28.519c0,16.345,13.287,29.642,29.619,29.642c7.958,0,15.193-3.157,20.52-8.286
	l175.121,99.657c1.572,0.895,3.211,1.63,4.896,2.206v5.589c0,4.465,3.618,8.084,8.084,8.084s8.084-3.62,8.084-8.084v-4.811
	c2.63-0.624,5.188-1.618,7.588-2.985l189.313-107.731c1.714-0.975,3.302-2.114,4.75-3.39l3.387,1.957
	c3.864,2.234,8.811,0.912,11.044-2.955C488.895,380.138,487.573,375.193,483.708,372.958z M270.579,30.164l184.676,105.093
	l-16.228,9.379c-5.414-5.863-13.16-9.538-21.748-9.538c-7.965,0-15.203,3.161-20.532,8.295L293.33,89.857
	c0.085-0.917,0.129-1.845,0.129-2.784c0-14.027-9.784-25.808-22.88-28.868V30.164L270.579,30.164z M388.995,173.551l-35.049,20.257
	l-81.606-46.439c-0.573-0.327-1.162-0.617-1.762-0.872V115.94c6.811-1.592,12.726-5.541,16.835-10.94l101.172,52.372
	c-0.605,2.356-0.925,4.824-0.925,7.365C387.66,167.806,388.126,170.765,388.995,173.551z M337.728,203.181l-67.151,38.81v-77.023
	L337.728,203.181z M347.282,216.335v77.777l-67.285-38.888L347.282,216.335z M339.084,308.047l-68.506,38.984v-78.577
	L339.084,308.047z M272.341,364.631l82.523-46.961c0.146-0.083,0.29-0.168,0.431-0.254l33.03,19.09
	c-0.435,2.02-0.665,4.115-0.665,6.265c0,3.88,0.748,7.589,2.109,10.989l-105.982,60.014c-3.581-3.709-8.117-6.488-13.209-7.934
	v-40.336C271.179,365.249,271.768,364.958,272.341,364.631z M363.443,303.451c0.005-0.163,0.008-0.328,0.008-0.492v-93.92
	c0-0.667-0.04-1.329-0.118-1.982l34.527-19.955c4.017,3.498,8.983,5.933,14.455,6.862v119.581
	c-6.379,1.082-12.07,4.212-16.373,8.689L363.443,303.451z M417.279,329.297c7.417,0,13.45,6.044,13.45,13.474
	s-6.034,13.474-13.45,13.474c-7.417,0-13.451-6.044-13.451-13.474S409.862,329.297,417.279,329.297z M417.279,178.212
	c-7.417,0-13.451-6.044-13.451-13.474s6.035-13.474,13.451-13.474c7.417,0,13.45,6.044,13.45,13.474
	S424.696,178.212,417.279,178.212z M263.841,73.599c7.417,0,13.45,6.044,13.45,13.474c0,7.43-6.034,13.474-13.45,13.474
	c-7.416,0-13.451-6.044-13.451-13.474C250.39,79.642,256.424,73.599,263.841,73.599z M254.41,270.01V345.5l-65.813-37.451
	L254.41,270.01z M180.4,294.11v-77.777l67.285,38.888L180.4,294.11z M189.953,203.181l64.457-36.68v73.933L189.953,203.181z
	 M173.734,193.808l-37.048-21.412c0.653-2.444,1.002-5.009,1.002-7.656c0-2.231-0.247-4.406-0.717-6.499l102.681-54.076
	c3.596,5.082,8.748,8.985,14.756,11.01v32.724L173.734,193.808z M254.41,31.695v27.274c-11.723,3.95-20.189,15.055-20.189,28.102
	c0,0.556,0.016,1.107,0.045,1.656l-105.019,55.307c-5.381-5.512-12.886-8.938-21.176-8.938c-8.155,0-15.553,3.316-20.914,8.672
	l-14.727-8.511L254.41,31.695z M121.52,164.738c0,7.43-6.034,13.474-13.45,13.474c-7.417,0-13.451-6.044-13.451-13.474
	s6.035-13.474,13.451-13.474C115.486,151.264,121.52,157.309,121.52,164.738z M61.955,148.269c0-0.129,0.002-0.258,0.006-0.386
	l17.289,9.992c-0.524,2.204-0.802,4.502-0.802,6.864c0,10.649,5.638,20.004,14.086,25.23l-30.58,120.447
	C61.955,310.416,61.955,148.269,61.955,148.269z M65.503,381.87c-0.026,0.044-0.054,0.089-0.079,0.135
	c-2.352,3.935-6.65,6.576-11.552,6.576c-7.417,0-13.451-6.044-13.451-13.474s6.035-13.474,13.451-13.474s13.45,6.044,13.45,13.474
	C67.323,377.57,66.66,379.881,65.503,381.87z M68.722,349.466l39.374-155.086c7.852-0.006,14.998-3.087,20.3-8.103l35.952,20.779
	c-0.078,0.653-0.117,1.316-0.117,1.982v93.92c0,0.164,0.002,0.328,0.008,0.492l-88.822,51.335
	C73.459,352.709,71.204,350.912,68.722,349.466z M82.889,369.142l89.497-51.725c0.143,0.087,0.288,0.172,0.433,0.255l81.59,46.43
	v41.737c-7.076,2.012-13.085,6.599-16.941,12.678L83.491,375.066C83.489,373.038,83.282,371.057,82.889,369.142z M254.41,480.304
	l-140.152-79.757l118.62,33.473c-0.001,0.112-0.002,0.225-0.002,0.338c0,13.541,9.12,24.99,21.534,28.52L254.41,480.304
	L254.41,480.304z M262.494,447.833c-7.417,0-13.45-6.044-13.45-13.474s6.034-13.474,13.45-13.474
	c7.417,0,13.451,6.044,13.451,13.474S269.911,447.833,262.494,447.833z M270.579,481.836v-18.957
	c12.416-3.529,21.535-14.978,21.535-28.52c0-2.174-0.235-4.293-0.681-6.335l108.346-61.353c4.907,3.608,10.959,5.741,17.5,5.741
	c7.642,0,14.617-2.912,19.876-7.684l19.454,11.244L270.579,481.836z M465.725,362.566l-19.992-11.554
	c0.758-2.617,1.164-5.383,1.164-8.242c0-12.38-7.622-23.011-18.416-27.441V192.179c10.794-4.43,18.416-15.061,18.416-27.441
	c0-1.936-0.186-3.831-0.543-5.664l19.364-11.192c0.004,0.128,0.007,0.258,0.007,0.386V362.566z"/>
<g>
</g>
<g>
</g>
<g>
</g>
<g>
</g>
<g>
</g>
<g>
</g>
<g>
</g>
<g>
</g>
<g>
</g>
<g>
</g>
<g>
</g>
<g>
</g>
<g>
</g>
<g>
</g>
<g>
</g>
</svg>
