<?xml version="1.0" encoding="iso-8859-1"?>
<!-- Generator: Adobe Illustrator 19.0.0, SVG Export Plug-In . SVG Version: 6.00 Build 0)  -->
<svg version="1.1" id="Layer_1" xmlns="http://www.w3.org/2000/svg" xmlns:xlink="http://www.w3.org/1999/xlink" x="0px" y="0px"
	 viewBox="0 0 512.002 512.002" style="enable-background:new 0 0 512.002 512.002;" xml:space="preserve">
<path style="fill:#EDEDED;" d="M460.801,482.359h-409.6c-11.906,0-21.558-9.651-21.558-21.558v-409.6
	c0-11.906,9.651-21.558,21.558-21.558h409.6c11.906,0,21.558,9.651,21.558,21.558v409.6
	C482.359,472.708,472.707,482.359,460.801,482.359z"/>
<path style="fill:#FFBC00;" d="M83.538,406.907V158.991c0-11.906,9.651-21.558,21.558-21.558h3.719
	c4.588,0,9.054,1.463,12.753,4.177l20.952,15.373c3.698,2.714,8.166,4.177,12.753,4.177h14.706c6.668,0,12.961-3.085,17.043-8.357
	L292.643,16.441c4.083-5.271,10.376-8.357,17.043-8.357h16.745c6.853,0,13.298,3.258,17.361,8.777l97.834,132.895
	c5.453,7.407,8.395,16.364,8.395,25.561v231.589c0,11.906-9.651,21.558-21.558,21.558H105.093
	C93.19,428.465,83.538,418.813,83.538,406.907z"/>
<path style="fill:#FF6029;" d="M428.464,428.465H105.096c-11.906,0-21.558-9.651-21.558-21.558v-56.339
	c0-5.363,1.998-10.533,5.606-14.501l95.769-105.345c4.085-4.494,9.878-7.057,15.952-7.057h20.004c5.566,0,10.917,2.154,14.932,6.008
	l110.955,106.551c4.015,3.856,9.366,6.008,14.932,6.008h12.882c6.785,0,13.175-3.195,17.246-8.623l19.402-25.869
	c4.071-5.428,10.461-8.623,17.246-8.623l0,0c11.906,0,21.558,9.651,21.558,21.558v86.232
	C450.022,418.813,440.37,428.465,428.464,428.465z"/>
<path d="M75.453,299.117V158.991c0-16.344,13.298-29.642,29.642-29.642h3.719c6.351,0,12.414,1.987,17.535,5.743l20.952,15.373
	c2.328,1.707,5.084,2.611,7.971,2.611h14.707c4.137,0,8.119-1.953,10.652-5.223l105.623-136.36
	c5.573-7.194,14.333-11.49,23.433-11.49h16.745c9.384,0,18.307,4.512,23.871,12.068l97.834,132.895
	c6.521,8.858,9.968,19.354,9.968,30.354v91.463c0,4.466-3.618,8.084-8.084,8.084c-4.466,0-8.084-3.618-8.084-8.084v-91.463
	c0-7.526-2.358-14.708-6.821-20.769L337.283,21.655c-2.528-3.434-6.585-5.485-10.85-5.485h-16.745
	c-4.199,0-8.081,1.905-10.652,5.223l-105.623,136.36c-5.574,7.195-14.334,11.49-23.435,11.49h-14.707
	c-6.351,0-12.414-1.987-17.535-5.743l-20.952-15.373c-2.328-1.707-5.084-2.611-7.971-2.611h-3.718
	c-7.43,0-13.474,6.044-13.474,13.474v140.126c0,4.466-3.618,8.084-8.084,8.084C79.072,307.201,75.453,303.583,75.453,299.117z
	 M75.453,406.907v-56.339c0-7.39,2.738-14.472,7.708-19.94l95.769-105.344c5.604-6.167,13.599-9.703,21.934-9.703h20.004
	c7.692,0,14.983,2.934,20.532,8.261l110.956,106.553c2.521,2.421,5.835,3.754,9.331,3.754h12.882c4.218,0,8.247-2.015,10.779-5.389
	l19.402-25.869c5.568-7.425,14.434-11.857,23.714-11.857c16.344,0,29.642,13.298,29.642,29.642v86.232
	c0,16.344-13.298,29.642-29.642,29.642H105.096C88.751,436.549,75.453,423.251,75.453,406.907z M91.622,406.907
	c0,7.43,6.044,13.474,13.474,13.474h323.368c7.43,0,13.474-6.044,13.474-13.474v-86.232c0-7.43-6.044-13.474-13.474-13.474
	c-4.218,0-8.247,2.015-10.779,5.389l-19.402,25.869c-5.568,7.425-14.434,11.857-23.714,11.857h-12.883
	c-7.693,0-14.984-2.934-20.532-8.262L230.199,235.503c-2.521-2.421-5.836-3.754-9.332-3.754h-20.004
	c-3.789,0-7.422,1.607-9.969,4.41L95.125,341.503c-2.26,2.486-3.504,5.705-3.504,9.064v56.339H91.622z M509.634,476.643
	l-21.558-21.558c-3.158-3.156-8.276-3.156-11.433,0c-3.157,3.158-3.157,8.276,0,11.433l7.758,7.757H51.201
	c-7.43,0-13.474-6.044-13.474-13.474V27.603l7.757,7.758c3.158,3.156,8.276,3.156,11.433,0c3.157-3.158,3.157-8.276,0-11.433
	L35.359,2.37c-3.158-3.156-8.276-3.156-11.433,0L2.368,23.927c-3.157,3.158-3.157,8.276,0,11.433c3.158,3.156,8.276,3.156,11.433,0
	l7.758-7.758v433.198c0,16.344,13.298,29.642,29.642,29.642H484.4l-7.758,7.757c-3.157,3.158-3.157,8.276,0,11.433
	c1.579,1.578,3.649,2.367,5.717,2.367s4.138-0.789,5.717-2.367l21.558-21.558C512.791,484.918,512.791,479.8,509.634,476.643z"/>
<g>
</g>
<g>
</g>
<g>
</g>
<g>
</g>
<g>
</g>
<g>
</g>
<g>
</g>
<g>
</g>
<g>
</g>
<g>
</g>
<g>
</g>
<g>
</g>
<g>
</g>
<g>
</g>
<g>
</g>
</svg>
