<?xml version="1.0" encoding="iso-8859-1"?>
<!-- Generator: Adobe Illustrator 19.0.0, SVG Export Plug-In . SVG Version: 6.00 Build 0)  -->
<svg version="1.1" id="Layer_1" xmlns="http://www.w3.org/2000/svg" xmlns:xlink="http://www.w3.org/1999/xlink" x="0px" y="0px"
	 viewBox="0 0 512 512" style="enable-background:new 0 0 512 512;" xml:space="preserve">
<path style="fill:#EDEDED;" d="M460.8,482.358H51.2c-11.906,0-21.558-9.651-21.558-21.558V51.2c0-11.906,9.651-21.558,21.558-21.558
	h409.6c11.906,0,21.558,9.651,21.558,21.558v409.6C482.358,472.707,472.706,482.358,460.8,482.358z"/>
<path style="fill:#56889B;" d="M148.21,428.463h-43.116c-11.906,0-21.558-9.651-21.558-21.558v-75.453
	c0-11.906,9.651-21.558,21.558-21.558h43.116c11.906,0,21.558,9.651,21.558,21.558v75.453
	C169.768,418.812,160.117,428.463,148.21,428.463z"/>
<path style="fill:#768900;" d="M277.558,245.221h-43.116c-11.906,0-21.558-9.651-21.558-21.558v-53.895
	c0-11.906,9.651-21.558,21.558-21.558h43.116c11.906,0,21.558,9.651,21.558,21.558v53.895
	C299.116,235.57,289.464,245.221,277.558,245.221z"/>
<path style="fill:#92B703;" d="M406.905,83.537h-43.116c-11.906,0-21.558-9.651-21.558-21.558V29.642
	c0-11.906,9.651-21.558,21.558-21.558h43.116c11.906,0,21.558,9.651,21.558,21.558v32.337
	C428.463,73.886,418.811,83.537,406.905,83.537z"/>
<path d="M363.789,91.621h43.116c16.344,0,29.642-13.298,29.642-29.642V29.642C436.547,13.298,423.249,0,406.905,0h-43.116
	c-16.344,0-29.642,13.298-29.642,29.642v32.337C334.147,78.323,347.445,91.621,363.789,91.621z M350.315,29.642
	c0-7.43,6.044-13.474,13.474-13.474h43.116c7.43,0,13.474,6.044,13.474,13.474v32.337c0,7.43-6.044,13.474-13.474,13.474h-43.116
	c-7.43,0-13.474-6.044-13.474-13.474V29.642z M204.8,169.769v53.895c0,16.344,13.298,29.642,29.642,29.642h43.116
	c16.344,0,29.642-13.298,29.642-29.642v-53.895c0-16.344-13.298-29.642-29.642-29.642h-43.116
	C218.098,140.127,204.8,153.425,204.8,169.769z M220.968,169.769c0-7.43,6.044-13.474,13.474-13.474h43.116
	c7.43,0,13.474,6.044,13.474,13.474v53.895c0,7.43-6.044,13.474-13.474,13.474h-43.116c-7.43,0-13.474-6.044-13.474-13.474V169.769z
	 M105.094,436.548h43.116c16.344,0,29.642-13.298,29.642-29.642v-75.453c0-16.344-13.298-29.642-29.642-29.642h-43.116
	c-16.344,0-29.642,13.298-29.642,29.642v75.453C75.452,423.25,88.75,436.548,105.094,436.548z M91.621,331.453
	c0-7.43,6.044-13.474,13.474-13.474h43.116c7.43,0,13.474,6.044,13.474,13.474v75.453c0,7.43-6.044,13.474-13.474,13.474h-43.116
	c-7.43,0-13.474-6.044-13.474-13.474V331.453z M509.633,488.075l-21.558,21.558c-1.579,1.578-3.649,2.367-5.717,2.367
	s-4.138-0.789-5.717-2.367c-3.157-3.158-3.157-8.276,0-11.433l7.758-7.757H51.2c-16.344-0.001-29.642-13.299-29.642-29.643V27.602
	l-7.757,7.758c-3.158,3.156-8.276,3.156-11.433,0c-3.157-3.158-3.157-8.276,0-11.433L23.926,2.368c3.158-3.156,8.276-3.156,11.433,0
	l21.558,21.558c3.157,3.158,3.157,8.276,0,11.433c-3.158,3.156-8.276,3.156-11.433,0l-7.758-7.758V460.8
	c0,7.43,6.044,13.474,13.474,13.474h433.199l-7.758-7.757c-3.157-3.158-3.157-8.276,0-11.433c3.158-3.156,8.276-3.156,11.433,0
	l21.558,21.558C512.79,479.799,512.79,484.917,509.633,488.075z M74.374,277.558c0,4.466-3.618,8.084-8.084,8.084h-4.312
	c-4.466,0-8.084-3.618-8.084-8.084c0-4.466,3.618-8.084,8.084-8.084h4.312C70.756,269.474,74.374,273.094,74.374,277.558z
	 M404.21,115.874c0,4.466-3.618,8.084-8.084,8.084h-4.312c-4.466,0-8.084-3.618-8.084-8.084c0-4.466,3.618-8.084,8.084-8.084h4.312
	C400.592,107.79,404.21,111.409,404.21,115.874z M404.21,277.558c0,4.466-3.618,8.084-8.084,8.084h-4.312
	c-4.466,0-8.084-3.618-8.084-8.084c0-4.466,3.618-8.084,8.084-8.084h4.312C400.592,269.474,404.21,273.094,404.21,277.558z
	 M367.562,115.874c0,4.466-3.618,8.084-8.084,8.084h-4.312c-4.466,0-8.084-3.618-8.084-8.084c0-4.466,3.618-8.084,8.084-8.084h4.312
	C363.943,107.79,367.562,111.409,367.562,115.874z M367.562,277.558c0,4.466-3.618,8.084-8.084,8.084h-4.312
	c-4.466,0-8.084-3.618-8.084-8.084c0-4.466,3.618-8.084,8.084-8.084h4.312C363.943,269.474,367.562,273.094,367.562,277.558z
	 M310.433,115.874c0-4.466,3.618-8.084,8.084-8.084h4.312c4.466,0,8.084,3.618,8.084,8.084c0,4.466-3.618,8.084-8.084,8.084h-4.312
	C314.053,123.958,310.433,120.34,310.433,115.874z M493.676,277.558c0-4.466,3.618-8.084,8.084-8.084h2.156
	c4.466,0,8.084,3.618,8.084,8.084c0,4.466-3.618,8.084-8.084,8.084h-2.156C497.295,285.642,493.676,282.024,493.676,277.558z
	 M457.027,115.874c0-4.466,3.618-8.084,8.084-8.084h4.312c4.466,0,8.084,3.618,8.084,8.084c0,4.466-3.618,8.084-8.084,8.084h-4.312
	C460.647,123.958,457.027,120.34,457.027,115.874z M493.676,115.874c0-4.466,3.618-8.084,8.084-8.084h2.156
	c4.466,0,8.084,3.618,8.084,8.084c0,4.466-3.618,8.084-8.084,8.084h-2.156C497.295,123.958,493.676,120.34,493.676,115.874z
	 M457.027,277.558c0-4.466,3.618-8.084,8.084-8.084h4.312c4.466,0,8.084,3.618,8.084,8.084c0,4.466-3.618,8.084-8.084,8.084h-4.312
	C460.647,285.642,457.027,282.024,457.027,277.558z M432.774,107.79c4.466,0,8.084,3.618,8.084,8.084
	c0,4.466-3.618,8.084-8.084,8.084h-4.312c-4.466,0-8.084-3.618-8.084-8.084c0-4.466,3.618-8.084,8.084-8.084H432.774z
	 M440.859,277.558c0,4.466-3.618,8.084-8.084,8.084h-4.312c-4.466,0-8.084-3.618-8.084-8.084c0-4.466,3.618-8.084,8.084-8.084h4.312
	C437.24,269.474,440.859,273.094,440.859,277.558z M249.532,269.474c4.466,0,8.084,3.618,8.084,8.084
	c0,4.466-3.618,8.084-8.084,8.084h-4.312c-4.466,0-8.084-3.618-8.084-8.084c0-4.466,3.618-8.084,8.084-8.084H249.532z
	 M310.433,277.558c0-4.466,3.618-8.084,8.084-8.084h4.312c4.466,0,8.084,3.618,8.084,8.084c0,4.466-3.618,8.084-8.084,8.084h-4.312
	C314.053,285.642,310.433,282.024,310.433,277.558z M127.191,115.874c0-4.466,3.618-8.084,8.084-8.084h4.312
	c4.466,0,8.084,3.618,8.084,8.084c0,4.466-3.618,8.084-8.084,8.084h-4.312C130.811,123.958,127.191,120.34,127.191,115.874z
	 M163.84,115.874c0-4.466,3.618-8.084,8.084-8.084h4.312c4.466,0,8.084,3.618,8.084,8.084c0,4.466-3.618,8.084-8.084,8.084h-4.312
	C167.459,123.958,163.84,120.34,163.84,115.874z M200.488,277.558c0-4.466,3.618-8.084,8.084-8.084h4.312
	c4.466,0,8.084,3.618,8.084,8.084c0,4.466-3.618,8.084-8.084,8.084h-4.312C204.108,285.642,200.488,282.024,200.488,277.558z
	 M127.191,277.558c0-4.466,3.618-8.084,8.084-8.084h4.312c4.466,0,8.084,3.618,8.084,8.084c0,4.466-3.618,8.084-8.084,8.084h-4.312
	C130.811,285.642,127.191,282.024,127.191,277.558z M90.543,115.874c0-4.466,3.618-8.084,8.084-8.084h4.312
	c4.466,0,8.084,3.618,8.084,8.084c0,4.466-3.618,8.084-8.084,8.084h-4.312C94.162,123.958,90.543,120.34,90.543,115.874z
	 M163.84,277.558c0-4.466,3.618-8.084,8.084-8.084h4.312c4.466,0,8.084,3.618,8.084,8.084c0,4.466-3.618,8.084-8.084,8.084h-4.312
	C167.459,285.642,163.84,282.024,163.84,277.558z M237.137,115.874c0-4.466,3.618-8.084,8.084-8.084h4.312
	c4.466,0,8.084,3.618,8.084,8.084c0,4.466-3.618,8.084-8.084,8.084h-4.312C240.756,123.958,237.137,120.34,237.137,115.874z
	 M273.785,115.874c0-4.466,3.618-8.084,8.084-8.084h4.312c4.466,0,8.084,3.618,8.084,8.084c0,4.466-3.618,8.084-8.084,8.084h-4.312
	C277.405,123.958,273.785,120.34,273.785,115.874z M61.979,107.79h4.312c4.466,0,8.084,3.618,8.084,8.084
	c0,4.466-3.618,8.084-8.084,8.084h-4.312c-4.466,0-8.084-3.618-8.084-8.084C53.894,111.408,57.514,107.79,61.979,107.79z
	 M90.543,277.558c0-4.466,3.618-8.084,8.084-8.084h4.312c4.466,0,8.084,3.618,8.084,8.084c0,4.466-3.618,8.084-8.084,8.084h-4.312
	C94.162,285.642,90.543,282.024,90.543,277.558z M286.181,269.474c4.466,0,8.084,3.618,8.084,8.084c0,4.466-3.618,8.084-8.084,8.084
	h-4.312c-4.466,0-8.084-3.618-8.084-8.084c0-4.466,3.618-8.084,8.084-8.084H286.181z M200.488,115.874
	c0-4.466,3.618-8.084,8.084-8.084h4.312c4.466,0,8.084,3.618,8.084,8.084c0,4.466-3.618,8.084-8.084,8.084h-4.312
	C204.108,123.958,200.488,120.34,200.488,115.874z"/>
<g>
</g>
<g>
</g>
<g>
</g>
<g>
</g>
<g>
</g>
<g>
</g>
<g>
</g>
<g>
</g>
<g>
</g>
<g>
</g>
<g>
</g>
<g>
</g>
<g>
</g>
<g>
</g>
<g>
</g>
</svg>
