<?xml version="1.0" encoding="iso-8859-1"?>
<!-- Generator: Adobe Illustrator 19.0.0, SVG Export Plug-In . SVG Version: 6.00 Build 0)  -->
<svg version="1.1" id="Layer_1" xmlns="http://www.w3.org/2000/svg" xmlns:xlink="http://www.w3.org/1999/xlink" x="0px" y="0px"
	 viewBox="0 0 512 512" style="enable-background:new 0 0 512 512;" xml:space="preserve">
<path style="fill:#C6C6C6;" d="M428.463,439.242h43.116c17.86,0,32.337,14.477,32.337,32.337l0,0
	c0,17.86-14.477,32.337-32.337,32.337H40.421c-17.86,0-32.337-14.477-32.337-32.337l0,0c0-17.86,14.477-32.337,32.337-32.337h64.674
	H428.463z"/>
<path style="fill:#73A4BC;" d="M356.881,71.076l93.14,400.503H105.095l93.14-400.503c8.579-36.887,41.452-62.992,79.323-62.992l0,0
	C315.43,8.084,348.302,34.19,356.881,71.076z"/>
<path style="fill:#FF6029;" d="M282.533,259.595l48.919,211.984H61.979l48.919-211.984c9.221-39.962,44.806-68.268,85.818-68.268
	l0,0C237.728,191.326,273.311,219.634,282.533,259.595z"/>
<path style="fill:#B7441C;" d="M282.533,259.595l48.919,211.984H105.095l64.151-275.848c8.69-2.854,17.93-4.404,27.47-4.404l0,0
	C237.728,191.326,273.311,219.634,282.533,259.595z"/>
<path d="M471.579,431.158h-22.658L364.755,69.245C355.274,28.475,319.417,0,277.558,0s-77.716,28.475-87.197,69.249l-21.853,94.193
	c-1.01,4.349,1.698,8.693,6.047,9.702c4.348,1.01,8.693-1.699,9.702-6.047l21.852-94.19c7.769-33.407,37.15-56.739,71.449-56.739
	c34.3,0,63.68,23.332,71.449,56.74l90.834,390.586H337.884l-47.474-205.718c-4.87-21.101-16.884-40.146-33.832-53.629
	c-16.948-13.482-38.207-20.906-59.863-20.906s-42.915,7.425-59.863,20.907s-28.962,32.528-33.832,53.628l-40.01,173.38H40.421
	C18.132,431.158,0,449.29,0,471.579C0,493.868,18.132,512,40.421,512h431.158C493.868,512,512,493.868,512,471.579
	C512,449.29,493.868,431.158,471.579,431.158z M118.774,261.412c8.426-36.506,40.476-62.002,77.941-62.002
	s69.516,25.495,77.941,62.002l46.633,202.083H72.141L118.774,261.412z M471.579,495.832H40.421
	c-13.372,0-24.253-10.88-24.253-24.253s10.88-24.253,24.253-24.253h18.858l-3.732,16.168H51.2c-4.466,0-8.084,3.618-8.084,8.084
	s3.618,8.084,8.084,8.084h10.617c0.112,0.002,0.225,0.002,0.337,0h269.122c0.112,0.002,0.226,0.002,0.337,0h118.23
	c0.113,0.002,0.227,0.002,0.341,0h10.616c4.466,0,8.084-3.618,8.084-8.084s-3.618-8.084-8.084-8.084h-4.359l-3.76-16.168h18.897
	c13.372,0,24.253,10.88,24.253,24.253S484.951,495.832,471.579,495.832z"/>
<g>
</g>
<g>
</g>
<g>
</g>
<g>
</g>
<g>
</g>
<g>
</g>
<g>
</g>
<g>
</g>
<g>
</g>
<g>
</g>
<g>
</g>
<g>
</g>
<g>
</g>
<g>
</g>
<g>
</g>
</svg>
