<?xml version="1.0" encoding="iso-8859-1"?>
<!-- Generator: Adobe Illustrator 19.0.0, SVG Export Plug-In . SVG Version: 6.00 Build 0)  -->
<svg version="1.1" id="Layer_1" xmlns="http://www.w3.org/2000/svg" xmlns:xlink="http://www.w3.org/1999/xlink" x="0px" y="0px"
	 viewBox="0 0 512 512" style="enable-background:new 0 0 512 512;" xml:space="preserve">
<path style="fill:#98C7E5;" d="M503.916,137.432v172.463v172.463c0,11.906-9.651,21.558-21.558,21.558H331.453
	c-11.906,0-21.558-9.651-21.558-21.558v-64.674H202.105h-86.232c-11.906,0-21.558-9.651-21.558-21.558v-86.232H29.642
	c-11.906,0-21.558-9.651-21.558-21.558V29.642c0-11.906,9.651-21.558,21.558-21.558h258.695c11.906,0,21.558,9.651,21.558,21.558
	v86.232h172.463C494.264,115.874,503.916,125.525,503.916,137.432z"/>
<path style="fill:#73A4BC;" d="M503.916,137.432v172.463v172.463c0,11.906-9.651,21.558-21.558,21.558H331.453
	c-11.906,0-21.558-9.651-21.558-21.558v-64.674H202.105V309.895H29.642c-11.906,0-21.558-9.651-21.558-21.558V29.642
	c0-11.906,9.651-21.558,21.558-21.558h258.695c11.906,0,21.558,9.651,21.558,21.558v86.232h172.463
	C494.264,115.874,503.916,125.525,503.916,137.432z"/>
<path style="fill:#FF8655;" d="M503.916,137.432v172.463v172.463c0,11.906-9.651,21.558-21.558,21.558H331.453
	c-11.906,0-21.558-9.651-21.558-21.558V309.895H29.642c-11.906,0-21.558-9.651-21.558-21.558V29.642
	c0-11.906,9.651-21.558,21.558-21.558h258.695c11.906,0,21.558,9.651,21.558,21.558v86.232h172.463
	C494.264,115.874,503.916,125.525,503.916,137.432z"/>
<path style="fill:#FF6029;" d="M503.916,309.895v172.463c0,11.906-9.651,21.558-21.558,21.558H331.453
	c-11.906,0-21.558-9.651-21.558-21.558V309.895H503.916z"/>
<path style="fill:#FFBC00;" d="M309.895,309.895H29.642c-11.906,0-21.558-9.651-21.558-21.558V29.642
	c0-11.906,9.651-21.558,21.558-21.558h258.695c11.906,0,21.558,9.651,21.558,21.558V309.895z"/>
<path d="M280.253,363.789c0,4.466-3.618,8.084-8.084,8.084h-32.337c-4.466,0-8.084-3.618-8.084-8.084s3.618-8.084,8.084-8.084
	h32.337C276.634,355.705,280.253,359.324,280.253,363.789z M164.379,355.705h-32.337c-4.466,0-8.084,3.618-8.084,8.084
	s3.618,8.084,8.084,8.084h32.337c4.466,0,8.084-3.618,8.084-8.084S168.845,355.705,164.379,355.705z M223.663,134.737H94.316
	c-4.466,0-8.084,3.618-8.084,8.084s3.618,8.084,8.084,8.084h129.347c4.466,0,8.084-3.618,8.084-8.084
	S228.129,134.737,223.663,134.737z M180.547,167.074h-43.116c-4.466,0-8.084,3.618-8.084,8.084c0,4.466,3.618,8.084,8.084,8.084
	h43.116c4.466,0,8.084-3.618,8.084-8.084C188.632,170.692,185.013,167.074,180.547,167.074z M450.021,188.632h-86.232
	c-4.466,0-8.084,3.618-8.084,8.084c0,4.466,3.618,8.084,8.084,8.084h86.232c4.466,0,8.084-3.618,8.084-8.084
	C458.105,192.25,454.487,188.632,450.021,188.632z M428.463,220.968h-43.116c-4.466,0-8.084,3.618-8.084,8.084
	c0,4.466,3.618,8.084,8.084,8.084h43.116c4.466,0,8.084-3.618,8.084-8.084C436.547,224.587,432.929,220.968,428.463,220.968z
	 M428.463,414.989h-43.116c-4.466,0-8.084,3.618-8.084,8.084s3.618,8.084,8.084,8.084h43.116c4.466,0,8.084-3.618,8.084-8.084
	S432.929,414.989,428.463,414.989z M512,137.432v344.926C512,498.702,498.702,512,482.358,512H331.453
	c-16.344,0-29.642-13.298-29.642-29.642v-56.589H115.874c-16.344,0-29.642-13.298-29.642-29.642v-78.147H29.642
	C13.298,317.979,0,304.681,0,288.337V29.642C0,13.298,13.298,0,29.642,0h258.695c16.344,0,29.642,13.298,29.642,29.642v78.147
	h164.379C498.702,107.789,512,121.087,512,137.432z M495.832,137.432c0-7.43-6.044-13.474-13.474-13.474H317.979v110.483
	c0,4.466-3.618,8.084-8.084,8.084s-8.084-3.618-8.084-8.084V29.642c0-7.43-6.044-13.474-13.474-13.474H29.642
	c-7.43,0-13.474,6.044-13.474,13.474v258.695c0,7.43,6.044,13.474,13.474,13.474h272.168v-35.034c0-4.466,3.618-8.084,8.084-8.084
	s8.084,3.618,8.084,8.084v43.118c0,4.466-3.618,8.084-8.084,8.084H102.4v78.147c0,7.43,6.044,13.474,13.474,13.474h78.147v-67.368
	c0-4.466,3.618-8.084,8.084-8.084s8.084,3.618,8.084,8.084V409.6h91.621v-67.368c0-4.466,3.618-8.084,8.084-8.084
	s8.084,3.618,8.084,8.084v140.126c0,7.43,6.044,13.474,13.474,13.474h150.905c7.43,0,13.474-6.044,13.474-13.474V317.979h-153.6
	c-4.466,0-8.084-3.618-8.084-8.084s3.618-8.084,8.084-8.084h153.6V137.432z M363.789,398.821h86.232
	c4.466,0,8.084-3.618,8.084-8.084s-3.618-8.084-8.084-8.084h-86.232c-4.466,0-8.084,3.618-8.084,8.084
	S359.324,398.821,363.789,398.821z"/>
<g>
</g>
<g>
</g>
<g>
</g>
<g>
</g>
<g>
</g>
<g>
</g>
<g>
</g>
<g>
</g>
<g>
</g>
<g>
</g>
<g>
</g>
<g>
</g>
<g>
</g>
<g>
</g>
<g>
</g>
</svg>
