<?xml version="1.0" encoding="iso-8859-1"?>
<!-- Generator: Adobe Illustrator 19.0.0, SVG Export Plug-In . SVG Version: 6.00 Build 0)  -->
<svg version="1.1" id="Layer_1" xmlns="http://www.w3.org/2000/svg" xmlns:xlink="http://www.w3.org/1999/xlink" x="0px" y="0px"
	 viewBox="0 0 512 512" style="enable-background:new 0 0 512 512;" xml:space="preserve">
<path style="fill:#EDEDED;" d="M460.8,482.366H51.2c-11.906,0-21.558-9.651-21.558-21.558V51.383
	c0-11.906,9.651-21.558,21.558-21.558h409.6c11.906,0,21.558,9.651,21.558,21.558v409.425
	C482.358,472.714,472.706,482.366,460.8,482.366z"/>
<path style="fill:#B6E152;" d="M89.096,335.95L378.927,15.19c4.087-4.524,9.9-7.105,15.998-7.105h33.538
	c11.906,0,21.558,9.648,21.558,21.549v377.118c0,11.901-9.651,21.549-21.558,21.549H105.095c-11.906,0-21.558-9.648-21.558-21.549
	v-56.358C83.537,345.057,85.518,339.91,89.096,335.95z"/>
<path style="fill:#768900;" d="M254.375,178.282c-2.021,2.021-4.763,3.156-7.622,3.156h-11.545v160.856
	c0,11.901-9.651,21.549-21.558,21.549h-43.116c-11.906,0-21.558-9.648-21.558-21.549V181.438h-11.545
	c-2.859,0-5.601-1.135-7.622-3.156c-4.209-4.208-4.209-11.03,0-15.238l54.661-54.64c4.209-4.208,11.034-4.208,15.244,0l54.661,54.64
	C258.585,167.253,258.585,174.075,254.375,178.282z"/>
<path d="M137.431,189.456h3.461v152.518c0,16.335,13.297,29.625,29.642,29.625h43.116c16.345,0,29.642-13.289,29.642-29.625V189.456
	h3.46c5.036,0,9.771-1.96,13.337-5.52c3.565-3.562,5.526-8.298,5.526-13.335c0-5.038-1.963-9.773-5.526-13.336l-54.661-54.618
	c-7.353-7.346-19.318-7.348-26.673,0l-54.66,54.618c-3.565,3.562-5.527,8.298-5.527,13.336c0,5.037,1.963,9.772,5.529,13.335
	C127.659,187.495,132.396,189.456,137.431,189.456z M135.524,168.703l54.66-54.618c0.526-0.526,1.217-0.788,1.908-0.788
	c0.691,0,1.382,0.262,1.908,0.788l54.661,54.618c0.684,0.684,0.787,1.482,0.787,1.898c0,0.415-0.102,1.213-0.786,1.896
	c-0.503,0.502-1.199,0.79-1.909,0.79h-11.544c-4.465,0-8.084,3.618-8.084,8.084v160.602c0,7.42-6.044,13.456-13.474,13.456h-43.116
	c-7.43,0-13.474-6.037-13.474-13.456V181.372c0-4.466-3.62-8.084-8.084-8.084h-11.545c-0.71,0-1.406-0.289-1.908-0.789
	c-0.684-0.684-0.787-1.482-0.787-1.897C134.737,170.186,134.839,169.387,135.524,168.703z M75.452,406.598v-56.336
	c0-7.352,2.716-14.405,7.648-19.86l33.382-36.932c2.993-3.311,8.107-3.571,11.418-0.576c3.312,2.993,3.57,8.106,0.577,11.418
	l-33.383,36.932c-2.24,2.478-3.473,5.68-3.473,9.018v56.336c0,7.42,6.044,13.456,13.474,13.456h323.368
	c7.43,0,13.474-6.037,13.474-13.456V29.625c0-7.419-6.044-13.456-13.474-13.456h-33.538c-3.805,0-7.45,1.618-10.001,4.439
	l-110.41,122.146c-2.993,3.311-8.105,3.572-11.418,0.576c-3.312-2.993-3.57-8.106-0.577-11.418L372.93,9.766
	C378.541,3.559,386.558,0,394.925,0h33.538c16.345,0,29.642,13.289,29.642,29.625v376.972c0,16.336-13.297,29.625-29.642,29.625
	H105.095C88.749,436.223,75.452,422.934,75.452,406.598z M512,482.375c0,2.145-0.853,4.202-2.37,5.719l-21.558,21.541
	c-1.578,1.577-3.647,2.365-5.714,2.365c-2.07,0-4.14-0.789-5.718-2.37c-3.156-3.158-3.154-8.277,0.004-11.432l7.745-7.738H51.2
	c-16.345,0-29.642-13.289-29.642-29.625V27.974l-7.76,7.753c-3.158,3.155-8.277,3.156-11.432-0.005
	c-3.156-3.158-3.154-8.277,0.004-11.432L23.928,2.749c3.157-3.154,8.272-3.154,11.429,0l21.558,21.541
	c3.158,3.156,3.16,8.275,0.004,11.432c-3.155,3.159-8.274,3.16-11.432,0.005l-7.761-7.753v432.86c0,7.42,6.044,13.456,13.474,13.456
	h433.188l-7.745-7.738c-3.158-3.156-3.16-8.275-0.004-11.432c3.155-3.159,8.274-3.16,11.432-0.005l21.558,21.541
	C511.147,478.172,512,480.229,512,482.375z"/>
<g>
</g>
<g>
</g>
<g>
</g>
<g>
</g>
<g>
</g>
<g>
</g>
<g>
</g>
<g>
</g>
<g>
</g>
<g>
</g>
<g>
</g>
<g>
</g>
<g>
</g>
<g>
</g>
<g>
</g>
</svg>
