<?xml version="1.0" encoding="iso-8859-1"?>
<!-- Generator: Adobe Illustrator 19.0.0, SVG Export Plug-In . SVG Version: 6.00 Build 0)  -->
<svg xmlns="http://www.w3.org/2000/svg" xmlns:xlink="http://www.w3.org/1999/xlink" version="1.1" id="Layer_1" x="0px" y="0px" viewBox="0 0 512 512" style="enable-background:new 0 0 512 512;" xml:space="preserve">
<polygon style="fill:#AB5D4A;" points="471.149,40.851 449.362,288.681 503.83,256 503.83,40.851 "/>
<polygon style="fill:#C08577;" points="8.17,40.851 8.17,256 471.149,288.681 471.149,40.851 "/>
<rect x="40.851" y="73.532" style="fill:#792A18;" width="430.298" height="215.149"/>
<polygon style="fill:#FFEAB2;" points="405.787,8.17 256,223.319 234.213,269.617 438.468,269.617 438.468,8.17 "/>
<path style="fill:#FFF3D4;" d="M405.787,8.17v215.149H256l-32.681-91.234L256,40.851c0-17.974,14.706-32.681,32.681-32.681H405.787z  "/>
<path style="fill:#FFFFFF;" d="M256,40.851c0-17.974-14.706-32.681-32.681-32.681H73.532v215.149l91.234,21.787L256,223.319V40.851z  "/>
<rect x="73.532" y="223.319" style="fill:#FFF3D4;" width="182.468" height="57.191"/>
<polygon style="fill:#AB5D4A;" points="8.17,256 8.17,503.83 51.745,503.83 84.426,482.043 117.106,503.83 394.894,503.83   416.681,379.915 394.894,256 305.021,256 256,277.787 206.979,256 117.106,256 84.426,277.787 51.745,256 "/>
<polygon style="fill:#95341D;" points="460.255,256 438.468,379.915 460.255,503.83 503.83,503.83 503.83,256 "/>
<polygon style="fill:#C1B8B5;" points="117.106,256 84.426,256 73.532,379.915 84.426,503.83 117.106,503.83 "/>
<rect x="51.745" y="256" style="fill:#D8D1D0;" width="32.681" height="247.83"/>
<polygon style="fill:#C1B8B5;" points="460.255,256 427.574,256 416.681,379.915 427.574,503.83 460.255,503.83 "/>
<rect x="394.894" y="256" style="fill:#D8D1D0;" width="32.681" height="247.83"/>
<path style="fill:#C1B8B5;" d="M272.34,256l-10.894,32.681l10.894,32.681c17.974,0,32.681-14.706,32.681-32.681V256H272.34z"/>
<path style="fill:#D8D1D0;" d="M206.979,256v32.681c0,17.974,14.706,32.681,32.681,32.681h32.681V256H206.979z"/>
<path d="M503.83,32.681h-57.191V8.17c0-4.513-3.658-8.17-8.17-8.17H288.681C275.333,0,263.459,6.435,256,16.365  C248.541,6.435,236.667,0,223.319,0H73.532c-4.512,0-8.17,3.657-8.17,8.17v24.511H8.17c-4.512,0-8.17,3.657-8.17,8.17V503.83  c0,4.513,3.658,8.17,8.17,8.17h495.66c4.512,0,8.17-3.657,8.17-8.17V40.851C512,36.338,508.342,32.681,503.83,32.681z   M495.66,49.021V247.83h-49.021V81.702h16.34v141.617c0,4.513,3.658,8.17,8.17,8.17c4.512,0,8.17-3.657,8.17-8.17V73.532  c0-4.513-3.658-8.17-8.17-8.17h-24.511v-16.34H495.66z M108.936,264.17V495.66H59.915V264.17H108.936z M125.277,264.17h73.532  v24.511c0,22.526,18.325,40.851,40.851,40.851h32.681c22.526,0,40.851-18.325,40.851-40.851V264.17h73.532V495.66H125.277V264.17z   M296.851,264.17v24.511c0,13.515-10.995,24.511-24.511,24.511H239.66c-13.516,0-24.511-10.996-24.511-24.511V264.17H296.851z   M403.064,264.17h49.021V495.66h-49.021V264.17z M65.362,49.021v16.34H40.851c-4.512,0-8.17,3.657-8.17,8.17v149.787  c0,4.513,3.658,8.17,8.17,8.17s8.17-3.657,8.17-8.17V81.702h16.34v138.894c0,4.513,3.658,8.17,8.17,8.17  c4.512,0,8.17-3.657,8.17-8.17V16.34h141.617c13.516,0,24.511,10.996,24.511,24.511v179.745c0,4.513,3.658,8.17,8.17,8.17  s8.17-3.657,8.17-8.17V40.851c0-13.515,10.995-24.511,24.511-24.511h141.617V247.83H16.34V49.021H65.362z M16.34,264.17h27.234  V495.66H16.34V264.17z M468.426,495.66V264.17h27.234V495.66H468.426z"/>
<circle cx="84.426" cy="296.851" r="8.17"/>
<circle cx="84.426" cy="462.979" r="8.17"/>
<circle cx="84.426" cy="379.915" r="8.17"/>
<circle cx="427.574" cy="296.851" r="8.17"/>
<circle cx="427.574" cy="462.979" r="8.17"/>
<circle cx="427.574" cy="379.915" r="8.17"/>
<g>
</g>
<g>
</g>
<g>
</g>
<g>
</g>
<g>
</g>
<g>
</g>
<g>
</g>
<g>
</g>
<g>
</g>
<g>
</g>
<g>
</g>
<g>
</g>
<g>
</g>
<g>
</g>
<g>
</g>
</svg>
