<?xml version="1.0" encoding="iso-8859-1"?>
<!-- Generator: Adobe Illustrator 19.0.0, SVG Export Plug-In . SVG Version: 6.00 Build 0)  -->
<svg xmlns="http://www.w3.org/2000/svg" xmlns:xlink="http://www.w3.org/1999/xlink" version="1.1" id="Layer_1" x="0px" y="0px" viewBox="0 0 512 512" style="enable-background:new 0 0 512 512;" xml:space="preserve">
<path style="fill:#FFE08F;" d="M340.426,8.17h-32.681l65.362,464.655l32.681-1.677V73.532C405.787,37.434,376.524,8.17,340.426,8.17  z"/>
<path style="fill:#FFF3D4;" d="M307.745,8.17H73.532C37.43,8.17,8.17,37.429,8.17,73.532v87.149l32.681-14.26l32.681-72.889  l32.681,86.363v278.573c0,36.098,51.051,43.574,87.149,43.574l179.745-9.217V73.532C373.106,37.434,343.843,8.17,307.745,8.17z"/>
<path style="fill:#FFD159;" d="M471.149,381.919l-65.362,121.91h32.681c36.098,0,65.362-29.264,65.362-65.362V367.66  L471.149,381.919z"/>
<path style="fill:#FFE08F;" d="M471.149,438.468v-56.549l-17.253,7.527l-49.934-21.787l-49.927,21.787l-49.929-21.787  l-49.927,21.787l-49.925-21.787v70.809c0,18.049-14.631,32.681-32.681,32.681c-18.051,0-32.681-14.63-32.681-32.681h-32.681  c0,36.098,29.264,65.362,65.362,65.362h234.213C441.885,503.83,471.149,474.566,471.149,438.468z"/>
<path style="fill:#FFD159;" d="M106.213,73.532v86.365l-48.117-21.003l-17.245,7.527c0-39.25,0-67.911,0-72.889  c0-18.051,14.63-32.681,32.681-32.681S106.213,55.481,106.213,73.532z"/>
<g>
	<path style="fill:#E26142;" d="M310.468,190.638c-4.513,0-8.17-3.657-8.17-8.17v-59.257l-13.959,11.168   c-2.985,2.387-7.224,2.387-10.208,0L256,116.675l-22.129,17.704c-2.985,2.387-7.224,2.387-10.208,0l-13.96-11.168v59.257   c0,4.513-3.657,8.17-8.17,8.17s-8.17-3.657-8.17-8.17v-76.255c0-3.141,1.8-6.003,4.631-7.364c2.829-1.362,6.19-0.978,8.644,0.984   l22.129,17.705l22.129-17.704c2.985-2.387,7.224-2.387,10.208,0l22.13,17.704l22.129-17.704c2.454-1.962,5.816-2.344,8.644-0.984   c2.831,1.361,4.631,4.223,4.631,7.364v76.255C318.638,186.981,314.981,190.638,310.468,190.638z"/>
	<path style="fill:#E26142;" d="M321.362,190.638H190.638c-4.513,0-8.17-3.657-8.17-8.17s3.657-8.17,8.17-8.17h130.723   c4.513,0,8.17,3.657,8.17,8.17S325.875,190.638,321.362,190.638z"/>
</g>
<path d="M340.426,283.234H171.574c-4.513,0-8.17,3.657-8.17,8.17c0,4.513,3.657,8.17,8.17,8.17h168.851  c4.513,0,8.17-3.657,8.17-8.17C348.596,286.891,344.939,283.234,340.426,283.234z"/>
<path d="M340.426,239.66H171.574c-4.513,0-8.17,3.657-8.17,8.17c0,4.513,3.657,8.17,8.17,8.17h168.851c4.513,0,8.17-3.657,8.17-8.17  C348.596,243.317,344.939,239.66,340.426,239.66z"/>
<path d="M508.305,360.825c-2.305-1.51-5.215-1.755-7.742-0.654l-46.667,20.361l-46.666-20.361c-2.083-0.909-4.45-0.909-6.535,0  l-46.66,20.361l-46.661-20.361c-2.085-0.909-4.451-0.909-6.536,0l-46.657,20.361l-46.657-20.361  c-2.527-1.102-5.438-0.857-7.743,0.654c-2.306,1.508-3.695,4.079-3.695,6.835v70.809c0,13.515-10.996,24.511-24.511,24.511  s-24.511-10.996-24.511-24.511c0-4.513-3.657-8.17-8.17-8.17s-8.17,3.657-8.17,8.17c0,22.526,18.325,40.851,40.851,40.851  s40.851-18.325,40.851-40.851v-58.329l38.487,16.796c2.085,0.909,4.451,0.909,6.536,0l46.657-20.361l46.661,20.361  c2.085,0.909,4.451,0.909,6.536,0l46.66-20.361l46.666,20.361c2.083,0.909,4.451,0.909,6.534,0l38.497-16.797v58.33  c0,31.535-25.657,57.191-57.191,57.191H171.574c-31.535,0-57.191-25.657-57.191-57.191V73.532c0-22.526-18.325-40.851-40.851-40.851  S32.681,51.006,32.681,73.532v32.681c0,4.513,3.657,8.17,8.17,8.17s8.17-3.657,8.17-8.17V73.532  c0-13.515,10.996-24.511,24.511-24.511s24.511,10.996,24.511,24.511v73.879l-36.678-16.006c-2.085-0.909-4.451-0.909-6.536,0  L16.34,148.201V73.532c0-31.535,25.657-57.191,57.191-57.191h266.894c31.535,0,57.191,25.657,57.191,57.191v262.242  c0,4.513,3.657,8.17,8.17,8.17c4.513,0,8.17-3.657,8.17-8.17V73.532C413.957,32.986,380.972,0,340.426,0H73.532  C32.986,0,0,32.986,0,73.532v87.149c0,2.756,1.389,5.327,3.695,6.835c2.306,1.512,5.216,1.756,7.743,0.654l46.658-20.361  l39.946,17.433v273.227c0,40.546,32.986,73.532,73.532,73.532h266.894C479.014,512,512,479.014,512,438.468V367.66  C512,364.903,510.611,362.334,508.305,360.825z"/>
<g>
</g>
<g>
</g>
<g>
</g>
<g>
</g>
<g>
</g>
<g>
</g>
<g>
</g>
<g>
</g>
<g>
</g>
<g>
</g>
<g>
</g>
<g>
</g>
<g>
</g>
<g>
</g>
<g>
</g>
</svg>
