<?xml version="1.0" encoding="iso-8859-1"?>
<!-- Generator: Adobe Illustrator 19.0.0, SVG Export Plug-In . SVG Version: 6.00 Build 0)  -->
<svg xmlns="http://www.w3.org/2000/svg" xmlns:xlink="http://www.w3.org/1999/xlink" version="1.1" id="Layer_1" x="0px" y="0px" viewBox="0 0 512 512" style="enable-background:new 0 0 512 512;" xml:space="preserve">
<polygon style="fill:#554F4E;" points="471.149,236.936 438.468,367.66 471.149,492.936 503.83,492.936 503.83,236.936 "/>
<polygon style="fill:#7F7774;" points="8.17,236.936 8.17,492.936 40.851,492.936 471.149,367.66 471.149,236.936 "/>
<g>
	<polygon style="fill:#FFFFFF;" points="210.869,367.66 178.188,367.66 142.006,449.362 163.793,503.83 225.265,503.83    247.052,449.362  "/>
	<polygon style="fill:#FFFFFF;" points="87.927,367.66 40.851,367.66 40.851,503.83 102.323,503.83 124.11,449.362  "/>
	<polygon style="fill:#FFFFFF;" points="333.811,367.66 286.735,367.66 254.054,449.362 286.735,503.83 348.207,503.83    359.1,449.362  "/>
	<polygon style="fill:#FFFFFF;" points="424.073,367.66 398.784,449.362 409.677,503.83 471.149,503.83 471.149,367.66  "/>
</g>
<g>
	<polygon style="fill:#FFF3D4;" points="149.398,367.66 116.717,367.66 102.323,449.362 102.323,503.83 163.793,503.83    163.793,449.362  "/>
	<polygon style="fill:#FFF3D4;" points="395.283,367.66 362.602,367.66 348.207,449.362 348.207,503.83 409.677,503.83    409.677,449.362  "/>
	<polygon style="fill:#FFF3D4;" points="239.66,367.66 225.265,449.362 225.265,503.83 286.735,503.83 286.735,367.66  "/>
</g>
<g>
	<rect x="87.922" y="367.66" style="fill:#554F4E;" width="28.791" height="81.702"/>
	<rect x="210.868" y="367.66" style="fill:#554F4E;" width="28.791" height="81.702"/>
	<rect x="149.395" y="367.66" style="fill:#554F4E;" width="28.791" height="81.702"/>
	<rect x="333.813" y="367.66" style="fill:#554F4E;" width="28.791" height="81.702"/>
	<rect x="395.286" y="367.66" style="fill:#554F4E;" width="28.791" height="81.702"/>
</g>
<polygon style="fill:#A99E9B;" points="416.681,280.511 438.468,334.979 471.149,334.979 471.149,302.298 "/>
<polygon style="fill:#C1B8B5;" points="234.213,280.511 256,334.979 438.468,334.979 438.468,280.511 "/>
<g>
	<polygon style="fill:#D8D1D0;" points="40.851,302.298 40.851,334.979 256,334.979 256,280.511  "/>
	<polygon style="fill:#D8D1D0;" points="438.468,8.17 394.894,155.234 438.468,302.298 471.149,302.298 471.149,8.17  "/>
</g>
<path style="fill:#F0EBEA;" d="M288.681,8.17C270.706,8.17,256,22.877,256,40.851l-54.468,147.064L256,334.979  c0-17.974,14.706-32.681,32.681-32.681h149.787V8.17H288.681z"/>
<path style="fill:#FFFFFF;" d="M223.319,8.17H40.851v294.128h182.468c17.974,0,32.681,14.706,32.681,32.681V40.851  C256,22.877,241.294,8.17,223.319,8.17z"/>
<ellipse style="fill:#164370;" cx="341.787" cy="201.532" rx="24.511" ry="19.064"/>
<path d="M503.83,228.766h-24.511V8.17c0-4.513-3.657-8.17-8.17-8.17H288.681C275.333,0,263.46,6.435,256,16.365  C248.541,6.435,236.667,0,223.319,0H40.851c-4.512,0-8.17,3.657-8.17,8.17v220.596H8.17c-4.512,0-8.17,3.657-8.17,8.17v256  c0,4.513,3.658,8.17,8.17,8.17h24.511v2.723c0,4.513,3.658,8.17,8.17,8.17h430.298c4.513,0,8.17-3.657,8.17-8.17v-2.723h24.511  c4.513,0,8.17-3.657,8.17-8.17v-256C512,232.423,508.343,228.766,503.83,228.766z M288.681,16.34h174.298v277.787H288.681  c-9.189,0-17.678,3.05-24.511,8.191V40.851C264.17,27.336,275.166,16.34,288.681,16.34z M49.021,16.34h174.298  c13.516,0,24.511,10.996,24.511,24.511v261.467c-6.832-5.141-15.322-8.191-24.511-8.191H49.021V16.34z M49.021,375.83h30.735v73.532  c0,4.513,3.658,8.17,8.17,8.17h6.226v38.128H49.021V375.83z M108.547,375.83v65.362h-12.45V375.83H108.547z M141.228,375.83v73.532  c0,4.513,3.658,8.17,8.17,8.17h6.225v38.128h-45.13v-38.128h6.225c4.512,0,8.17-3.657,8.17-8.17V375.83H141.228z M170.018,375.83  v65.362h-12.449V375.83H170.018z M202.699,375.83v73.532c0,4.513,3.658,8.17,8.17,8.17h6.225v38.128h-45.131v-38.128h6.225  c4.512,0,8.17-3.657,8.17-8.17V375.83H202.699z M231.489,375.83v65.362h-12.45V375.83H231.489z M325.642,375.83v73.532  c0,4.513,3.657,8.17,8.17,8.17h6.225v38.128h-45.131V400.34c0-4.513-3.657-8.17-8.17-8.17s-8.17,3.657-8.17,8.17v95.319h-45.13  v-38.128h6.225c4.512,0,8.17-3.657,8.17-8.17V375.83H325.642z M354.431,375.83v65.362h-12.45V375.83H354.431z M387.111,375.83  v73.532c0,4.513,3.657,8.17,8.17,8.17h6.226v38.128h-45.131v-38.128h6.226c4.513,0,8.17-3.657,8.17-8.17V375.83H387.111z   M415.903,375.83v65.362h-12.451V375.83H415.903z M462.979,495.66h-45.131v-38.128h6.226c4.513,0,8.17-3.657,8.17-8.17V375.83  h30.735V495.66z M495.66,484.766h-16.34V367.66c0-4.513-3.657-8.17-8.17-8.17H40.851c-4.512,0-8.17,3.657-8.17,8.17v117.106H16.34  v-239.66h16.34v57.191c0,4.513,3.658,8.17,8.17,8.17h182.468c10.651,0,19.733,6.831,23.105,16.34H40.851  c-4.512,0-8.17,3.657-8.17,8.17c0,4.513,3.658,8.17,8.17,8.17h430.298c4.513,0,8.17-3.657,8.17-8.17c0-4.513-3.657-8.17-8.17-8.17  H265.575c3.373-9.509,12.455-16.34,23.105-16.34h182.468c4.513,0,8.17-3.657,8.17-8.17v-57.191h16.34V484.766z"/>
<path d="M341.787,228.766c18.02,0,32.681-12.217,32.681-27.234v-84.209c4.421,1.557,9.01,2.055,12.736,2.459  c10.845,1.177,14.498,1.572,14.498,13.665c0,4.513,3.657,8.17,8.17,8.17c4.513,0,8.17-3.657,8.17-8.17  c0-26.757-18.201-28.731-29.076-29.91c-10.845-1.177-14.498-1.572-14.498-13.665c0-4.513-3.657-8.17-8.17-8.17  c-4.513,0-8.17,3.657-8.17,8.17v88.08c-4.81-2.324-10.393-3.655-16.34-3.655c-18.02,0-32.681,12.217-32.681,27.234  C309.106,216.549,323.767,228.766,341.787,228.766z M341.787,190.638c8.858,0,16.34,4.988,16.34,10.894  c0,5.905-7.483,10.894-16.34,10.894c-8.858,0-16.34-4.988-16.34-10.894C325.447,195.626,332.93,190.638,341.787,190.638z"/>
<g>
</g>
<g>
</g>
<g>
</g>
<g>
</g>
<g>
</g>
<g>
</g>
<g>
</g>
<g>
</g>
<g>
</g>
<g>
</g>
<g>
</g>
<g>
</g>
<g>
</g>
<g>
</g>
<g>
</g>
</svg>
