<?xml version="1.0" encoding="iso-8859-1"?>
<!-- Generator: Adobe Illustrator 19.0.0, SVG Export Plug-In . SVG Version: 6.00 Build 0)  -->
<svg xmlns="http://www.w3.org/2000/svg" xmlns:xlink="http://www.w3.org/1999/xlink" version="1.1" id="Layer_1" x="0px" y="0px" viewBox="0 0 512 512" style="enable-background:new 0 0 512 512;" xml:space="preserve">
<g>
	<path style="fill:#E26142;" d="M111.66,27.234l43.574,454.809c24.512,0,24.51,21.787,49.021,21.787V27.234H111.66z"/>
	<path style="fill:#E26142;" d="M8.17,27.234V503.83c24.51,0,24.512-21.787,49.021-21.787l43.574-454.809H8.17z"/>
</g>
<path style="fill:#F1866D;" d="M155.234,27.234v454.809c-24.512,0-24.51,21.787-49.021,21.787  c-24.508,0-24.513-21.787-49.021-21.787V27.234H155.234z"/>
<path style="fill:#FFAB97;" d="M128,29.957l-21.787,95.319c-54.148,0-98.043-43.895-98.043-98.043V8.17h49.021L128,29.957z"/>
<g>
	<path style="fill:#F1866D;" d="M204.255,8.17v19.064c0,54.148-43.895,98.043-98.043,98.043V40.851L204.255,8.17z"/>
	<path style="fill:#F1866D;" d="M106.213,8.17l16.34,36.426l-16.34,31.659c-27.074,0-49.021-21.947-49.021-49.021V8.17H106.213z"/>
</g>
<g>
	<path style="fill:#E26142;" d="M138.894,8.17l16.34,19.064c0,27.074-21.947,49.021-49.021,49.021V8.17H138.894z"/>
	<path style="fill:#E26142;" d="M307.745,27.234V503.83c24.512,0,24.51-21.787,49.021-21.787L400.34,27.234H307.745z"/>
	<path style="fill:#E26142;" d="M411.234,27.234l43.574,454.809c24.51,0,24.512,21.787,49.021,21.787V27.234H411.234z"/>
</g>
<g>
	<path style="fill:#F1866D;" d="M356.766,27.234v454.809c24.512,0,24.51,21.787,49.021,21.787c24.508,0,24.513-21.787,49.021-21.787   V27.234H356.766z"/>
	<path style="fill:#F1866D;" d="M384,29.957l21.787,95.319c54.148,0,98.043-43.895,98.043-98.043V8.17h-49.021L384,29.957z"/>
</g>
<path style="fill:#FFAB97;" d="M307.745,8.17v19.064c0,54.148,43.895,98.043,98.043,98.043V40.851L307.745,8.17z"/>
<path style="fill:#E26142;" d="M405.787,8.17l-16.34,36.426l16.34,31.659c27.074,0,49.021-21.947,49.021-49.021V8.17H405.787z"/>
<path style="fill:#F1866D;" d="M373.106,8.17l-16.34,19.064c0,27.074,21.947,49.021,49.021,49.021V8.17H373.106z"/>
<path style="fill:#792A18;" d="M234.213,29.957L256,125.277c64.676,0,117.106-52.43,117.106-117.106h-49.021L234.213,29.957z"/>
<path style="fill:#95341D;" d="M187.915,8.17h-49.021c0,64.676,52.43,117.106,117.106,117.106V29.957L187.915,8.17z"/>
<path style="fill:#E26142;" d="M187.915,8.17c0,37.603,30.483,68.085,68.085,68.085s68.085-30.483,68.085-68.085H187.915z"/>
<path d="M503.83,0H8.17C3.658,0,0,3.657,0,8.17v495.66c0,4.513,3.658,8.17,8.17,8.17c15.363,0,23.444-7.185,29.939-12.958  c5.766-5.127,9.933-8.829,19.082-8.829s13.316,3.703,19.082,8.829C82.769,504.815,90.849,512,106.213,512  c15.36,0,23.444-7.184,29.938-12.958c5.767-5.125,9.935-8.829,19.083-8.829s13.315,3.704,19.083,8.829  c6.495,5.774,14.577,12.958,29.938,12.958c4.512,0,8.17-3.657,8.17-8.17V125.625c13.578,5.054,28.258,7.822,43.574,7.822  s29.997-2.768,43.574-7.822V503.83c0,4.513,3.658,8.17,8.17,8.17c15.363,0,23.444-7.185,29.939-12.958  c5.766-5.127,9.933-8.829,19.082-8.829c9.15,0,13.316,3.703,19.082,8.829c6.495,5.772,14.576,12.958,29.939,12.958  c15.36,0,23.444-7.184,29.938-12.958c5.767-5.125,9.935-8.829,19.083-8.829s13.315,3.704,19.083,8.829  C480.387,504.816,488.469,512,503.83,512c4.512,0,8.17-3.657,8.17-8.17V8.17C512,3.657,508.342,0,503.83,0z M495.66,27.234  c0,49.555-40.316,89.872-89.872,89.872c-22.153,0-42.922-7.901-59.315-22.371c7.58-7.919,14.131-16.827,19.443-26.51  c10.539,10.303,24.696,16.2,39.872,16.2c25.327,0,47.918-16.986,54.94-41.309c1.252-4.335-1.248-8.864-5.583-10.116  c-4.337-1.248-8.864,1.248-10.116,5.584c-5.015,17.369-21.152,29.5-39.241,29.5c-12.878,0-24.729-5.949-32.437-16.067  c4.207-11.223,6.846-23.204,7.653-35.678H495.66V27.234z M315.343,16.34C311.344,45.524,286.265,68.085,256,68.085  s-55.344-22.561-59.343-51.745H315.343z M16.34,16.34h114.656c0.807,12.473,3.445,24.455,7.653,35.678  c-7.708,10.118-19.558,16.067-32.437,16.067c-18.089,0-34.226-12.131-39.24-29.5c-1.252-4.335-5.78-6.831-10.116-5.584  c-4.336,1.252-6.835,5.781-5.583,10.116c7.021,24.322,29.612,41.309,54.939,41.309c15.176,0,29.333-5.897,39.872-16.2  c5.312,9.682,11.863,18.591,19.443,26.51c-16.393,14.47-37.161,22.371-59.315,22.371c-49.556,0-89.872-40.317-89.872-89.872V16.34z   M196.085,494.356c-4.146-1.512-7.197-4.223-10.913-7.525c-5.232-4.65-11.5-10.211-21.768-12.2V148.446  c0-4.513-3.658-8.17-8.17-8.17s-8.17,3.657-8.17,8.17V474.63c-10.266,1.989-16.537,7.549-21.768,12.2  c-5.768,5.125-9.936,8.829-19.083,8.829c-9.15,0-13.316-3.703-19.082-8.829c-5.231-4.65-11.5-10.211-21.769-12.2V148.446  c0-4.513-3.658-8.17-8.17-8.17s-8.17,3.657-8.17,8.17V474.63c-10.268,1.989-16.538,7.549-21.769,12.2  c-3.715,3.302-6.765,6.014-10.912,7.525V83.775c18.829,29.82,52.074,49.672,89.872,49.672c26.781,0,51.862-9.751,71.433-27.606  c5.754,4.625,11.92,8.757,18.44,12.324V494.356z M147.37,16.34h32.818c4.091,38.218,36.525,68.085,75.812,68.085  s71.721-29.867,75.812-68.085h32.818C360.438,72.607,313.319,117.106,256,117.106S151.562,72.607,147.37,16.34z M495.66,494.356  c-4.146-1.512-7.197-4.223-10.913-7.525c-5.232-4.65-11.5-10.211-21.768-12.2V148.446c0-4.513-3.658-8.17-8.17-8.17  c-4.512,0-8.17,3.657-8.17,8.17V474.63c-10.266,1.989-16.536,7.549-21.768,12.2c-5.768,5.125-9.936,8.829-19.083,8.829  c-9.15,0-13.316-3.703-19.082-8.829c-5.231-4.65-11.5-10.211-21.769-12.2V148.446c0-4.513-3.658-8.17-8.17-8.17  c-4.512,0-8.17,3.657-8.17,8.17V474.63c-10.268,1.989-16.538,7.549-21.769,12.2c-3.715,3.302-6.765,6.014-10.912,7.525V118.164  c6.52-3.565,12.686-7.699,18.44-12.324c19.57,17.855,44.652,27.606,71.433,27.606c37.799,0,71.044-19.851,89.872-49.672V494.356z"/>
<g>
</g>
<g>
</g>
<g>
</g>
<g>
</g>
<g>
</g>
<g>
</g>
<g>
</g>
<g>
</g>
<g>
</g>
<g>
</g>
<g>
</g>
<g>
</g>
<g>
</g>
<g>
</g>
<g>
</g>
</svg>
