<?xml version="1.0" encoding="iso-8859-1"?>
<!-- Generator: Adobe Illustrator 19.0.0, SVG Export Plug-In . SVG Version: 6.00 Build 0)  -->
<svg xmlns="http://www.w3.org/2000/svg" xmlns:xlink="http://www.w3.org/1999/xlink" version="1.1" id="Layer_1" x="0px" y="0px" viewBox="0 0 512 512" style="enable-background:new 0 0 512 512;" xml:space="preserve">
<polygon style="fill:#D5AEA4;" points="471.149,182.468 449.362,247.83 503.83,226.042 503.83,182.468 "/>
<polygon style="fill:#EAD6D2;" points="8.17,182.468 8.17,226.042 471.149,247.83 471.149,182.468 "/>
<polygon style="fill:#C08577;" points="471.149,226.042 427.574,492.936 503.83,460.255 503.83,226.042 "/>
<g>
	<rect x="8.17" y="226.042" style="fill:#D5AEA4;" width="462.979" height="277.787"/>
	<polygon style="fill:#D5AEA4;" points="438.468,117.106 256,8.17 73.532,117.106  "/>
</g>
<polygon style="fill:#C08577;" points="137.285,117.106 256,46.231 374.715,117.106 "/>
<polygon style="fill:#FFEEEA;" points="216.965,171.574 184.284,171.574 184.284,215.149 200.624,236.936 216.965,215.149 "/>
<rect x="184.287" y="215.149" style="fill:#FFFFFF;" width="32.681" height="179.745"/>
<polygon style="fill:#FFEEEA;" points="106.213,171.574 73.532,182.468 73.532,215.149 89.872,236.936 106.213,215.149 "/>
<rect x="73.532" y="215.149" style="fill:#FFFFFF;" width="32.681" height="179.745"/>
<polygon style="fill:#FFEEEA;" points="327.716,171.574 295.035,171.574 295.035,215.149 311.376,236.936 327.716,215.149 "/>
<rect x="295.032" y="215.149" style="fill:#FFFFFF;" width="32.681" height="179.745"/>
<polygon style="fill:#FFEEEA;" points="438.468,182.468 405.787,171.574 405.787,215.149 422.128,236.936 438.468,215.149 "/>
<rect x="405.787" y="215.149" style="fill:#FFFFFF;" width="32.681" height="179.745"/>
<polygon style="fill:#C08577;" points="384,128 405.787,182.468 438.468,182.468 438.468,128 "/>
<rect x="73.532" y="128" style="fill:#D5AEA4;" width="332.255" height="54.468"/>
<polygon style="fill:#EAD6D2;" points="438.468,106.212 427.574,122.553 438.468,138.893 471.149,138.893 471.149,106.212 "/>
<rect x="40.851" y="106.212" style="fill:#FFEEEA;" width="397.617" height="32.681"/>
<polygon style="fill:#EAD6D2;" points="405.787,373.106 384,400.34 405.787,427.574 438.468,427.574 438.468,373.106 "/>
<rect x="73.532" y="373.106" style="fill:#FFEEEA;" width="332.255" height="54.468"/>
<polygon style="fill:#EAD6D2;" points="438.468,416.681 416.681,443.915 438.468,471.149 471.149,471.149 471.149,416.681 "/>
<rect x="40.851" y="416.681" style="fill:#FFFFFF;" width="397.617" height="54.468"/>
<polygon style="fill:#EAD6D2;" points="471.149,460.255 449.362,482.042 471.149,503.829 503.83,503.829 503.83,460.255 "/>
<rect x="8.17" y="460.255" style="fill:#FFEEEA;" width="462.979" height="43.574"/>
<path d="M503.83,174.298h-32.681c-4.512,0-8.17,3.657-8.17,8.17s3.658,8.17,8.17,8.17h24.511v27.234h-49.021v-70.809h21.787  c4.512,0,8.17-3.657,8.17-8.17V95.319c0-4.513-3.658-8.17-8.17-8.17c-4.512,0-8.17,3.657-8.17,8.17v2.723h-37.781L260.189,1.156  c-2.58-1.54-5.797-1.54-8.376,0L89.526,98.042H51.745v-2.723c0-4.513-3.658-8.17-8.17-8.17s-8.17,3.657-8.17,8.17v43.574  c0,4.513,3.658,8.17,8.17,8.17h21.787v70.809H16.34v-27.234h24.511c4.512,0,8.17-3.657,8.17-8.17s-3.658-8.17-8.17-8.17H8.17  c-4.512,0-8.17,3.657-8.17,8.17v245.106c0,4.513,3.658,8.17,8.17,8.17s8.17-3.657,8.17-8.17V234.212h49.021V408.51H43.574  c-4.512,0-8.17,3.657-8.17,8.17v35.404H8.17c-4.512,0-8.17,3.657-8.17,8.17v43.574c0,4.513,3.658,8.17,8.17,8.17h495.66  c4.512,0,8.17-3.657,8.17-8.17v-43.574c0-4.513-3.658-8.17-8.17-8.17h-27.234v-35.404c0-4.513-3.658-8.17-8.17-8.17h-21.787V234.212  h49.021v193.362c0,4.513,3.658,8.17,8.17,8.17s8.17-3.657,8.17-8.17V182.468C512,177.955,508.342,174.298,503.83,174.298z   M335.886,364.936V234.212h61.731v130.723H335.886z M303.205,364.936V190.638h16.34v174.298H303.205z M264.17,364.936v-29.957  c0-4.513-3.658-8.17-8.17-8.17s-8.17,3.657-8.17,8.17v29.957h-22.695V234.212h61.731v130.723H264.17z M192.454,364.936V190.638  h16.34v174.298H192.454z M114.383,364.936V234.212h61.731v130.723H114.383z M81.702,364.936V190.638h16.34v174.298H81.702z   M176.114,190.638v27.234h-61.731v-27.234H176.114z M286.865,190.638v27.234h-61.731v-27.234H286.865z M397.617,190.638v27.234  h-61.731v-27.234H397.617z M413.957,190.638h16.34v174.298h-16.34V190.638z M256,17.686l134.598,80.357h-30.383L260.143,39.19  c-2.558-1.504-5.727-1.504-8.284,0L151.786,98.042h-30.383L256,17.686z M327.981,98.042H184.02L256,55.711L327.981,98.042z   M51.745,114.383h102.257c0.033,0,266.195,0,266.195,0c0.033,0,40.058,0,40.058,0v16.34H51.745V114.383z M430.298,147.064v27.234  H81.702v-27.234H430.298z M495.66,495.659H16.34v-27.234H495.66V495.659z M460.255,452.085H51.745v-27.234h408.511V452.085z   M81.702,408.51v-27.234h348.596v27.234H81.702z"/>
<g>
</g>
<g>
</g>
<g>
</g>
<g>
</g>
<g>
</g>
<g>
</g>
<g>
</g>
<g>
</g>
<g>
</g>
<g>
</g>
<g>
</g>
<g>
</g>
<g>
</g>
<g>
</g>
<g>
</g>
</svg>
