<?xml version="1.0" encoding="iso-8859-1"?>
<!-- Generator: Adobe Illustrator 19.0.0, SVG Export Plug-In . SVG Version: 6.00 Build 0)  -->
<svg xmlns="http://www.w3.org/2000/svg" xmlns:xlink="http://www.w3.org/1999/xlink" version="1.1" id="Layer_1" x="0px" y="0px" viewBox="0 0 511.999 511.999" style="enable-background:new 0 0 511.999 511.999;" xml:space="preserve">
<polygon style="fill:#AB5D4A;" points="348.595,313.19 370.382,503.829 403.063,503.829 403.063,334.978 "/>
<polygon style="fill:#C08577;" points="157.961,313.19 108.935,334.978 108.935,503.829 370.382,503.829 370.382,313.19 "/>
<path style="fill:#8FE1EA;" d="M403.063,291.403c-17.397,0-22.451-5.486-32.681-8.671l-21.787,21.787l21.787,21.787  c10.23,3.185,15.284,8.671,32.681,8.671V291.403z"/>
<path style="fill:#A3FBE5;" d="M354.045,280.51c-24.51,0-24.51,10.894-49.018,10.894c-24.511,0-24.511-10.894-49.02-10.894  c-24.51,0-24.51,10.894-49.019,10.894c-24.513,0-24.513-10.894-49.026-10.894s-24.513,10.894-49.026,10.894v43.574  c24.513,0,24.513-10.894,49.026-10.894s24.513,10.894,49.026,10.894c24.51,0,24.51-10.894,49.019-10.894  c24.511,0,24.511,10.894,49.02,10.894s24.51-10.894,49.018-10.894c7.112,0,12.154,0.921,16.337,2.222v-43.574  C366.2,281.43,361.157,280.51,354.045,280.51z"/>
<path style="fill:#E26142;" d="M288.68,8.169l-32.681,130.723c36.098,0,65.362-29.264,65.362-65.362c0-36.099,0-65.362,0-65.362  H288.68z"/>
<path style="fill:#F1866D;" d="M288.68,73.531V8.169c0,0-67.587,0-98.043,0c0,0,0,29.262,0,65.362  c0,36.098,29.264,65.362,65.362,65.362C274.049,138.893,288.68,109.629,288.68,73.531z"/>
<path style="fill:#8FE1EA;" d="M284.302,226.041c33.671,11.402,71.895,8.807,105.101-10.365  c33.206-19.172,54.565-50.976,61.526-85.837l-94.207,29.233L284.302,226.041z"/>
<path style="fill:#A3FBE5;" d="M345.828,140.204c-33.206,19.172-54.565,50.976-61.526,85.837l166.627-96.203  C417.257,118.438,379.034,121.031,345.828,140.204z"/>
<path style="fill:#8FE1EA;" d="M61.07,129.839c6.961,34.862,28.32,66.666,61.526,85.837c33.206,19.173,71.429,21.767,105.101,10.365  l-72.42-66.97L61.07,129.839z"/>
<path style="fill:#A3FBE5;" d="M166.17,140.204c-33.206-19.173-71.429-21.767-105.101-10.365l166.627,96.203  C220.735,191.18,199.376,159.376,166.17,140.204z"/>
<path d="M459.016,130.946c0.019-0.134,0.036-0.269,0.048-0.403c0.011-0.12,0.016-0.24,0.021-0.361  c0.005-0.136,0.01-0.272,0.009-0.407c-0.001-0.121-0.005-0.241-0.012-0.362c-0.007-0.134-0.016-0.268-0.031-0.401  c-0.012-0.122-0.027-0.243-0.046-0.365c-0.02-0.132-0.042-0.263-0.069-0.393c-0.024-0.12-0.049-0.24-0.078-0.359  c-0.033-0.134-0.072-0.267-0.111-0.399c-0.034-0.112-0.066-0.223-0.105-0.334c-0.052-0.151-0.113-0.3-0.174-0.447  c-0.037-0.088-0.07-0.178-0.109-0.265c-0.217-0.475-0.478-0.928-0.781-1.353c-0.054-0.077-0.114-0.148-0.171-0.222  c-0.099-0.129-0.198-0.257-0.305-0.38c-0.075-0.086-0.154-0.169-0.231-0.252c-0.097-0.103-0.195-0.205-0.297-0.304  c-0.086-0.083-0.174-0.161-0.264-0.24c-0.103-0.09-0.208-0.179-0.317-0.265c-0.093-0.073-0.187-0.145-0.282-0.214  c-0.112-0.082-0.228-0.159-0.344-0.235c-0.098-0.063-0.195-0.125-0.295-0.184c-0.121-0.071-0.244-0.137-0.369-0.203  c-0.103-0.053-0.207-0.108-0.312-0.157c-0.125-0.059-0.254-0.111-0.382-0.163c-0.111-0.045-0.221-0.09-0.334-0.131  c-0.042-0.015-0.082-0.034-0.124-0.049c-14.173-4.8-28.928-7.233-43.854-7.233c-23.763,0-47.261,6.315-67.951,18.261  c-32.838,18.958-56.244,50.757-64.669,87.651l-12.906,7.453v-81.632c36.714-4.079,65.362-35.284,65.362-73.067V8.17  c0-4.513-3.658-8.17-8.17-8.17H190.637c-4.512,0-8.17,3.657-8.17,8.17v65.362c0,37.783,28.648,68.988,65.362,73.067v81.632  l-12.905-7.45c-8.425-36.895-31.831-68.693-64.669-87.651c-20.69-11.946-44.188-18.261-67.951-18.261  c-14.928,0-29.682,2.433-43.854,7.233c-0.038,0.013-0.073,0.029-0.111,0.044c-0.126,0.045-0.249,0.095-0.373,0.146  c-0.117,0.048-0.232,0.096-0.345,0.148c-0.117,0.054-0.23,0.113-0.343,0.172c-0.114,0.06-0.228,0.121-0.339,0.186  c-0.109,0.063-0.215,0.131-0.32,0.199c-0.109,0.071-0.217,0.144-0.321,0.219c-0.101,0.073-0.202,0.148-0.3,0.227  c-0.103,0.082-0.203,0.166-0.302,0.253c-0.093,0.082-0.185,0.163-0.275,0.249c-0.099,0.096-0.194,0.195-0.289,0.295  c-0.081,0.085-0.161,0.169-0.237,0.258c-0.105,0.122-0.203,0.248-0.3,0.375c-0.058,0.076-0.119,0.148-0.174,0.227  c-0.303,0.425-0.564,0.878-0.781,1.353c-0.04,0.087-0.073,0.176-0.109,0.265c-0.061,0.147-0.122,0.295-0.174,0.447  c-0.039,0.111-0.071,0.223-0.105,0.334c-0.039,0.132-0.078,0.265-0.111,0.399c-0.029,0.12-0.054,0.239-0.078,0.359  c-0.026,0.131-0.049,0.261-0.069,0.393c-0.017,0.122-0.033,0.243-0.046,0.365c-0.013,0.133-0.023,0.267-0.031,0.401  c-0.007,0.121-0.011,0.242-0.012,0.362c-0.001,0.135,0.003,0.271,0.009,0.407c0.005,0.121,0.011,0.241,0.021,0.361  c0.012,0.134,0.029,0.268,0.048,0.403c0.016,0.122,0.033,0.243,0.056,0.364c0.008,0.044,0.011,0.086,0.02,0.13  c7.677,38.448,31.534,71.73,65.453,91.312c20.69,11.946,44.188,18.261,67.951,18.261c13.673,0,27.195-2.065,40.264-6.097  l21.102,12.18v25.669c-8.932,0.973-14.565,3.463-19.651,5.723c-5.726,2.545-10.67,4.743-21.191,4.743  c-10.523,0-15.468-2.198-21.195-4.743c-6.487-2.884-13.84-6.152-27.831-6.152c-13.991,0-21.344,3.268-27.831,6.151  c-5.727,2.545-10.671,4.743-21.195,4.743c-4.512,0-8.17,3.657-8.17,8.17v111.66c0,4.513,3.658,8.17,8.17,8.17  c4.512,0,8.17-3.657,8.17-8.17v-60.342c8.936-0.973,14.572-3.463,19.661-5.725c5.727-2.545,10.672-4.743,21.196-4.743  s15.468,2.198,21.195,4.743c6.487,2.884,13.84,6.152,27.83,6.152c13.988,0,21.341-3.268,27.828-6.151  c3.996-1.776,7.618-3.38,13.014-4.189v32.593c-36.714,4.079-65.362,35.284-65.362,73.067c0,4.513,3.658,8.17,8.17,8.17  s8.17-3.657,8.17-8.17c0-28.76,21.344-52.621,49.021-56.599v89.279c0,4.513,3.658,8.17,8.17,8.17c4.512,0,8.17-3.657,8.17-8.17  v-56.599c27.677,3.977,49.021,27.838,49.021,56.599c0,4.513,3.658,8.17,8.17,8.17c4.512,0,8.17-3.657,8.17-8.17  c0-37.783-28.648-68.988-65.362-73.067v-65.276c5.404,0.808,9.03,2.414,13.029,4.191c6.488,2.884,13.841,6.152,27.83,6.152  s21.341-3.268,27.828-6.151c5.725-2.545,10.669-4.743,21.19-4.743c10.52,0,15.465,2.198,21.19,4.743  c5.087,2.26,10.723,4.752,19.658,5.725v152.937H117.105v-59.915c0-4.513-3.658-8.17-8.17-8.17c-4.512,0-8.17,3.657-8.17,8.17v68.085  c0,4.513,3.658,8.17,8.17,8.17h294.128c4.512,0,8.17-3.657,8.17-8.17V291.403c0-4.513-3.658-8.17-8.17-8.17  c-10.521,0-15.466-2.198-21.19-4.743c-6.487-2.882-13.839-6.151-27.828-6.151s-21.341,3.268-27.828,6.151  c-5.725,2.545-10.67,4.743-21.191,4.743s-15.466-2.198-21.192-4.743c-5.088-2.262-10.726-4.753-19.665-5.725v-25.666l21.103-12.183  c13.069,4.032,26.591,6.097,40.264,6.097c23.763,0,47.261-6.315,67.951-18.261c33.919-19.583,57.776-52.865,65.453-91.312  c0.009-0.044,0.012-0.086,0.02-0.13C458.982,131.189,458.998,131.068,459.016,130.946z M162.085,147.28  c24.173,13.956,42.536,35.82,52.235,61.604L82.6,132.836c6.499-1.081,13.083-1.628,19.704-1.628  C123.204,131.208,143.875,136.766,162.085,147.28z M186.462,224.672c-20.899,0-41.571-5.558-59.781-16.071  c-24.173-13.957-42.536-35.82-52.235-61.604l131.72,76.049C199.667,224.125,193.084,224.672,186.462,224.672z M198.807,73.531  V16.339H313.19v57.191c0,31.535-25.656,57.191-57.191,57.191S198.807,105.066,198.807,73.531z M228.178,322.064  c-5.726,2.545-10.67,4.743-21.191,4.743c-10.523,0-15.468-2.198-21.195-4.743c-6.487-2.882-13.84-6.151-27.831-6.151  c-13.991,0-21.344,3.268-27.831,6.151c-3.999,1.777-7.622,3.381-13.024,4.191v-27.1c8.946-0.972,14.57-3.471,19.661-5.733  c5.727-2.545,10.672-4.743,21.196-4.743s15.468,2.198,21.195,4.743c6.487,2.884,13.84,6.152,27.83,6.152  c13.988,0,21.341-3.268,27.828-6.151c3.996-1.776,7.618-3.38,13.014-4.189v27.109C238.897,317.315,233.264,319.805,228.178,322.064z   M277.198,293.423c6.487,2.882,13.84,6.151,27.829,6.151s21.341-3.268,27.828-6.151c5.725-2.545,10.669-4.743,21.19-4.743  c10.52,0,15.465,2.198,21.19,4.743c5.089,2.263,10.714,4.762,19.658,5.733v27.1c-5.4-0.808-9.023-2.413-13.02-4.19  c-6.487-2.885-13.839-6.153-27.828-6.153s-21.341,3.268-27.828,6.151c-5.725,2.545-10.67,4.743-21.191,4.743  s-15.466-2.198-21.192-4.743c-5.088-2.262-10.726-4.753-19.665-5.725v-27.109C269.573,290.039,273.199,291.645,277.198,293.423z   M349.913,147.28c18.21-10.513,38.881-16.071,59.781-16.071c6.621,0,13.204,0.547,19.704,1.628l-131.72,76.048  C307.376,183.101,325.74,161.236,349.913,147.28z M385.317,208.601c-18.21,10.513-38.881,16.071-59.781,16.071  c-6.621,0-13.205-0.547-19.704-1.628l131.72-76.049C427.853,172.78,409.49,194.645,385.317,208.601z"/>
<circle cx="362.212" cy="386.722" r="8.17"/>
<circle cx="149.786" cy="462.978" r="8.17"/>
<g>
</g>
<g>
</g>
<g>
</g>
<g>
</g>
<g>
</g>
<g>
</g>
<g>
</g>
<g>
</g>
<g>
</g>
<g>
</g>
<g>
</g>
<g>
</g>
<g>
</g>
<g>
</g>
<g>
</g>
</svg>
