<?xml version="1.0" encoding="iso-8859-1"?>
<!-- Generator: Adobe Illustrator 19.0.0, SVG Export Plug-In . SVG Version: 6.00 Build 0)  -->
<svg xmlns="http://www.w3.org/2000/svg" xmlns:xlink="http://www.w3.org/1999/xlink" version="1.1" id="Layer_1" x="0px" y="0px" viewBox="0 0 512 512" style="enable-background:new 0 0 512 512;" xml:space="preserve">
<polygon style="fill:#AB5D4A;" points="394.894,190.638 384,206.979 394.894,223.319 443.915,223.319 443.915,190.638 "/>
<rect x="68.085" y="190.638" style="fill:#C08577;" width="326.809" height="32.681"/>
<path style="fill:#8FE1EA;" d="M141.617,166.128l-10.894,40.851l10.894,40.851c13.536,0,24.511-10.974,24.511-24.511v-32.681  C166.128,177.102,155.153,166.128,141.617,166.128z"/>
<path style="fill:#A3FBE5;" d="M117.106,190.638v32.681c0,13.536,10.974,24.511,24.511,24.511v-81.702  C128.081,166.128,117.106,177.102,117.106,190.638z"/>
<path style="fill:#F5AC51;" d="M223.319,166.128l-10.894,40.851l10.894,40.851c13.536,0,24.511-10.974,24.511-24.511v-32.681  C247.83,177.102,236.856,166.128,223.319,166.128z"/>
<path style="fill:#FFD159;" d="M198.809,190.638v32.681c0,13.536,10.974,24.511,24.511,24.511v-81.702  C209.783,166.128,198.809,177.102,198.809,190.638z"/>
<path style="fill:#8FE1EA;" d="M272.34,166.128l-10.894,40.851l10.894,40.851c13.536,0,24.511-10.974,24.511-24.511v-32.681  C296.851,177.102,285.877,166.128,272.34,166.128z"/>
<path style="fill:#A3FBE5;" d="M247.83,190.638v32.681c0,13.536,10.974,24.511,24.511,24.511v-81.702  C258.804,166.128,247.83,177.102,247.83,190.638z"/>
<path style="fill:#F5AC51;" d="M321.362,166.128l-10.894,40.851l10.894,40.851c13.536,0,24.511-10.974,24.511-24.511v-32.681  C345.872,177.102,334.898,166.128,321.362,166.128z"/>
<path style="fill:#FFD159;" d="M296.851,190.638v32.681c0,13.536,10.974,24.511,24.511,24.511v-81.702  C307.825,166.128,296.851,177.102,296.851,190.638z"/>
<path style="fill:#8FE1EA;" d="M370.383,166.128l-10.894,40.851l10.894,40.851c13.536,0,24.511-10.974,24.511-24.511v-32.681  C394.894,177.102,383.919,166.128,370.383,166.128z"/>
<path style="fill:#A3FBE5;" d="M345.872,190.638v32.681c0,13.536,10.974,24.511,24.511,24.511v-81.702  C356.847,166.128,345.872,177.102,345.872,190.638z"/>
<polygon style="fill:#AB5D4A;" points="394.894,315.915 384,332.255 394.894,348.596 443.915,348.596 443.915,315.915 "/>
<rect x="68.085" y="315.915" style="fill:#C08577;" width="326.809" height="32.681"/>
<polygon style="fill:#AB5D4A;" points="394.894,65.362 384,81.702 394.894,98.043 443.915,98.043 443.915,65.362 "/>
<g>
	<rect x="68.085" y="65.362" style="fill:#C08577;" width="326.809" height="32.681"/>
	<path style="fill:#C08577;" d="M68.085,8.17c-9.024,0-16.34,7.316-16.34,16.34s0,446.638,0,446.638h32.681c0,0,0-437.614,0-446.638   S77.109,8.17,68.085,8.17z"/>
</g>
<g>
	<path style="fill:#95341D;" d="M443.915,8.17c-9.024,0-16.34,7.316-16.34,16.34s0,446.638,0,446.638h32.681   c0,0,0-437.614,0-446.638S452.939,8.17,443.915,8.17z"/>
	<path style="fill:#95341D;" d="M471.149,438.468h-32.681l32.681,65.362h32.681v-32.681   C503.83,453.099,489.199,438.468,471.149,438.468z"/>
</g>
<path style="fill:#AB5D4A;" d="M438.468,438.468H40.851c-18.05,0-32.681,14.631-32.681,32.681v32.681h462.979v-32.681  C471.149,453.099,456.518,438.468,438.468,438.468z"/>
<path style="fill:#F5AC51;" d="M141.617,291.404l-10.894,40.851l10.894,40.851c13.536,0,24.511-10.974,24.511-24.511v-32.681  C166.128,302.378,155.153,291.404,141.617,291.404z"/>
<path style="fill:#FFD159;" d="M117.106,315.915v32.681c0,13.536,10.974,24.511,24.511,24.511v-81.702  C128.081,291.404,117.106,302.378,117.106,315.915z"/>
<path style="fill:#8FE1EA;" d="M190.638,291.404l-10.894,40.851l10.894,40.851c13.536,0,24.511-10.974,24.511-24.511v-32.681  C215.149,302.378,204.175,291.404,190.638,291.404z"/>
<path style="fill:#A3FBE5;" d="M166.128,315.915v32.681c0,13.536,10.974,24.511,24.511,24.511v-81.702  C177.102,291.404,166.128,302.378,166.128,315.915z"/>
<path style="fill:#F5AC51;" d="M272.34,291.404l-10.894,40.851l10.894,40.851c13.536,0,24.511-10.974,24.511-24.511v-32.681  C296.851,302.378,285.877,291.404,272.34,291.404z"/>
<path style="fill:#FFD159;" d="M247.83,315.915v32.681c0,13.536,10.974,24.511,24.511,24.511v-81.702  C258.804,291.404,247.83,302.378,247.83,315.915z"/>
<path style="fill:#8FE1EA;" d="M321.362,291.404l-10.894,40.851l10.894,40.851c13.536,0,24.511-10.974,24.511-24.511v-32.681  C345.872,302.378,334.898,291.404,321.362,291.404z"/>
<path style="fill:#A3FBE5;" d="M296.851,315.915v32.681c0,13.536,10.974,24.511,24.511,24.511v-81.702  C307.825,291.404,296.851,302.378,296.851,315.915z"/>
<path style="fill:#F5AC51;" d="M370.383,291.404l-10.894,40.851l10.894,40.851c13.536,0,24.511-10.974,24.511-24.511v-32.681  C394.894,302.378,383.919,291.404,370.383,291.404z"/>
<path style="fill:#FFD159;" d="M345.872,315.915v32.681c0,13.536,10.974,24.511,24.511,24.511v-81.702  C356.847,291.404,345.872,302.378,345.872,315.915z"/>
<path style="fill:#F5AC51;" d="M141.617,40.851l-10.894,40.851l10.894,40.851c13.536,0,24.511-10.974,24.511-24.511V65.362  C166.128,51.825,155.153,40.851,141.617,40.851z"/>
<path style="fill:#FFD159;" d="M117.106,65.362v32.681c0,13.536,10.974,24.511,24.511,24.511V40.851  C128.081,40.851,117.106,51.825,117.106,65.362z"/>
<path style="fill:#8FE1EA;" d="M190.638,40.851l-10.894,40.851l10.894,40.851c13.536,0,24.511-10.974,24.511-24.511V65.362  C215.149,51.825,204.175,40.851,190.638,40.851z"/>
<path style="fill:#A3FBE5;" d="M166.128,65.362v32.681c0,13.536,10.974,24.511,24.511,24.511V40.851  C177.102,40.851,166.128,51.825,166.128,65.362z"/>
<path style="fill:#F5AC51;" d="M239.66,40.851l-10.894,40.851l10.894,40.851c13.536,0,24.511-10.974,24.511-24.511V65.362  C264.17,51.825,253.196,40.851,239.66,40.851z"/>
<path style="fill:#FFD159;" d="M215.149,65.362v32.681c0,13.536,10.974,24.511,24.511,24.511V40.851  C226.123,40.851,215.149,51.825,215.149,65.362z"/>
<path style="fill:#8FE1EA;" d="M321.362,40.851l-10.894,40.851l10.894,40.851c13.536,0,24.511-10.974,24.511-24.511V65.362  C345.872,51.825,334.898,40.851,321.362,40.851z"/>
<path style="fill:#A3FBE5;" d="M296.851,65.362v32.681c0,13.536,10.974,24.511,24.511,24.511V40.851  C307.825,40.851,296.851,51.825,296.851,65.362z"/>
<path style="fill:#F5AC51;" d="M370.383,40.851l-10.894,40.851l10.894,40.851c13.536,0,24.511-10.974,24.511-24.511V65.362  C394.894,51.825,383.919,40.851,370.383,40.851z"/>
<path style="fill:#FFD159;" d="M345.872,65.362v32.681c0,13.536,10.974,24.511,24.511,24.511V40.851  C356.847,40.851,345.872,51.825,345.872,65.362z"/>
<path d="M471.149,430.298h-2.723V24.511C468.426,10.996,457.431,0,443.915,0s-24.511,10.996-24.511,24.511v32.681H402.03  c-3.637-14.08-16.447-24.511-31.647-24.511c-9.754,0-18.517,4.301-24.511,11.1c-5.994-6.799-14.756-11.1-24.511-11.1  c-15.2,0-28.01,10.431-31.647,24.511h-18.409c-3.636-14.08-16.446-24.511-31.646-24.511c-9.754,0-18.517,4.301-24.511,11.1  c-5.994-6.799-14.757-11.1-24.511-11.1s-18.517,4.301-24.511,11.1c-5.994-6.799-14.757-11.1-24.511-11.1  c-15.2,0-28.01,10.431-31.647,24.511H92.596V24.511C92.596,10.996,81.601,0,68.085,0S43.574,10.996,43.574,24.511v405.787h-2.723  C18.325,430.298,0,448.623,0,471.149v32.681c0,4.513,3.658,8.17,8.17,8.17h495.66c4.512,0,8.17-3.657,8.17-8.17v-32.681  C512,448.623,493.675,430.298,471.149,430.298z M223.319,340.426v-16.34h16.34v16.34H223.319z M92.596,340.426v-16.34h16.34v16.34  H92.596z M109.97,106.213c3.637,14.08,16.447,24.511,31.647,24.511c9.754,0,18.517-4.301,24.511-11.1  c5.994,6.799,14.757,11.1,24.511,11.1s18.517-4.301,24.511-11.1c5.994,6.799,14.757,11.1,24.511,11.1  c15.2,0,28.01-10.431,31.647-24.511h18.409c3.636,14.08,16.446,24.511,31.646,24.511c9.754,0,18.517-4.301,24.511-11.1  c5.994,6.799,14.757,11.1,24.511,11.1c15.2,0,28.01-10.431,31.647-24.511h17.374v76.255H402.03  c-3.637-14.08-16.447-24.511-31.647-24.511c-9.754,0-18.517,4.301-24.511,11.1c-5.994-6.799-14.756-11.1-24.511-11.1  s-18.517,4.301-24.511,11.1c-5.994-6.799-14.756-11.1-24.511-11.1s-18.517,4.301-24.511,11.1c-5.994-6.799-14.756-11.1-24.511-11.1  c-15.2,0-28.01,10.431-31.647,24.511h-18.409c-3.636-14.08-16.446-24.511-31.646-24.511s-28.01,10.431-31.647,24.511H92.596v-76.255  H109.97z M288.681,89.872h-16.34v-16.34h16.34V89.872z M402.03,307.745c-3.637-14.08-16.447-24.511-31.647-24.511  c-9.754,0-18.517,4.301-24.511,11.099c-5.994-6.799-14.756-11.099-24.511-11.099s-18.517,4.301-24.511,11.099  c-5.994-6.799-14.756-11.099-24.511-11.099c-15.2,0-28.01,10.431-31.647,24.511h-18.409c-3.636-14.08-16.446-24.511-31.646-24.511  c-9.754,0-18.517,4.301-24.511,11.099c-5.994-6.799-14.757-11.099-24.511-11.099c-15.2,0-28.01,10.431-31.647,24.511H92.596v-76.255  h17.374c3.637,14.08,16.447,24.511,31.647,24.511s28.01-10.431,31.647-24.511h18.409c3.636,14.08,16.446,24.511,31.646,24.511  c9.754,0,18.517-4.301,24.511-11.099C253.823,251.699,262.586,256,272.34,256c9.754,0,18.517-4.301,24.511-11.099  c5.994,6.799,14.757,11.099,24.511,11.099s18.517-4.301,24.511-11.099c5.994,6.799,14.757,11.099,24.511,11.099  c15.2,0,28.01-10.431,31.647-24.511h17.374v76.255H402.03z M190.638,198.809v16.34h-16.34v-16.34H190.638z M419.404,198.809v16.34  h-16.34v-16.34H419.404z M386.723,223.319c0,9.01-7.33,16.34-16.34,16.34s-16.34-7.33-16.34-16.34v-32.681  c0-9.01,7.33-16.34,16.34-16.34s16.34,7.33,16.34,16.34V223.319z M337.702,223.319c0,9.01-7.33,16.34-16.34,16.34  s-16.34-7.33-16.34-16.34v-32.681c0-9.01,7.33-16.34,16.34-16.34s16.34,7.33,16.34,16.34V223.319z M288.681,223.319  c0,9.01-7.33,16.34-16.34,16.34s-16.34-7.33-16.34-16.34v-32.681c0-9.01,7.33-16.34,16.34-16.34s16.34,7.33,16.34,16.34V223.319z   M239.66,223.319c0,9.01-7.33,16.34-16.34,16.34c-9.01,0-16.34-7.33-16.34-16.34v-32.681c0-9.01,7.33-16.34,16.34-16.34  c9.01,0,16.34,7.33,16.34,16.34V223.319z M157.957,223.319c0,9.01-7.33,16.34-16.34,16.34c-9.01,0-16.34-7.33-16.34-16.34v-32.681  c0-9.01,7.33-16.34,16.34-16.34c9.01,0,16.34,7.33,16.34,16.34V223.319z M108.936,215.149h-16.34v-16.34h16.34V215.149z   M125.277,315.915c0-9.01,7.33-16.34,16.34-16.34c9.01,0,16.34,7.33,16.34,16.34v32.681c0,9.01-7.33,16.34-16.34,16.34  c-9.01,0-16.34-7.33-16.34-16.34V315.915z M174.298,315.915c0-9.01,7.33-16.34,16.34-16.34s16.34,7.33,16.34,16.34v32.681  c0,9.01-7.33,16.34-16.34,16.34s-16.34-7.33-16.34-16.34V315.915z M256,315.915c0-9.01,7.33-16.34,16.34-16.34  s16.34,7.33,16.34,16.34v32.681c0,9.01-7.33,16.34-16.34,16.34s-16.34-7.33-16.34-16.34V315.915z M305.021,315.915  c0-9.01,7.33-16.34,16.34-16.34s16.34,7.33,16.34,16.34v32.681c0,9.01-7.33,16.34-16.34,16.34s-16.34-7.33-16.34-16.34V315.915z   M354.043,315.915c0-9.01,7.33-16.34,16.34-16.34s16.34,7.33,16.34,16.34v32.681c0,9.01-7.33,16.34-16.34,16.34  s-16.34-7.33-16.34-16.34V315.915z M403.064,324.085h16.34v16.34h-16.34V324.085z M419.404,89.872h-16.34v-16.34h16.34V89.872z   M370.383,49.021c9.01,0,16.34,7.33,16.34,16.34v32.681c0,9.01-7.33,16.34-16.34,16.34s-16.34-7.33-16.34-16.34V65.362  C354.043,56.352,361.373,49.021,370.383,49.021z M321.362,49.021c9.01,0,16.34,7.33,16.34,16.34v32.681  c0,9.01-7.33,16.34-16.34,16.34s-16.34-7.33-16.34-16.34V65.362C305.021,56.352,312.352,49.021,321.362,49.021z M239.66,49.021  c9.01,0,16.34,7.33,16.34,16.34v32.681c0,9.01-7.33,16.34-16.34,16.34c-9.01,0-16.34-7.33-16.34-16.34V65.362  C223.319,56.352,230.649,49.021,239.66,49.021z M190.638,49.021c9.01,0,16.34,7.33,16.34,16.34v32.681  c0,9.01-7.33,16.34-16.34,16.34s-16.34-7.33-16.34-16.34V65.362C174.298,56.352,181.628,49.021,190.638,49.021z M141.617,49.021  c9.01,0,16.34,7.33,16.34,16.34v32.681c0,9.01-7.33,16.34-16.34,16.34c-9.01,0-16.34-7.33-16.34-16.34V65.362  C125.277,56.352,132.607,49.021,141.617,49.021z M108.936,73.532v16.34h-16.34v-16.34H108.936z M59.915,24.511  c0-4.506,3.665-8.17,8.17-8.17s8.17,3.665,8.17,8.17v381.277c0,4.513,3.658,8.17,8.17,8.17s8.17-3.657,8.17-8.17v-49.021h17.374  c3.637,14.08,16.447,24.511,31.647,24.511c9.754,0,18.517-4.301,24.511-11.099c5.994,6.799,14.757,11.099,24.511,11.099  c15.2,0,28.01-10.431,31.647-24.511h18.409c3.636,14.08,16.446,24.511,31.646,24.511c9.754,0,18.517-4.301,24.511-11.099  c5.994,6.799,14.757,11.099,24.511,11.099s18.517-4.301,24.511-11.099c5.994,6.799,14.757,11.099,24.511,11.099  c15.2,0,28.01-10.431,31.647-24.511h17.374v49.021c0,4.513,3.658,8.17,8.17,8.17c4.512,0,8.17-3.657,8.17-8.17V24.511  c0-4.506,3.665-8.17,8.17-8.17s8.17,3.665,8.17,8.17v405.787H59.915V24.511z M495.66,495.66H16.34v-24.511  c0-13.515,10.995-24.511,24.511-24.511h430.298c13.516,0,24.511,10.996,24.511,24.511V495.66z"/>
<g>
</g>
<g>
</g>
<g>
</g>
<g>
</g>
<g>
</g>
<g>
</g>
<g>
</g>
<g>
</g>
<g>
</g>
<g>
</g>
<g>
</g>
<g>
</g>
<g>
</g>
<g>
</g>
<g>
</g>
</svg>
