<?xml version="1.0" encoding="iso-8859-1"?>
<!-- Generator: Adobe Illustrator 19.0.0, SVG Export Plug-In . SVG Version: 6.00 Build 0)  -->
<svg xmlns="http://www.w3.org/2000/svg" xmlns:xlink="http://www.w3.org/1999/xlink" version="1.1" id="Layer_1" x="0px" y="0px" viewBox="0 0 512 512" style="enable-background:new 0 0 512 512;" xml:space="preserve">
<path style="fill:#E26142;" d="M413.957,8.17h-32.681v495.66h32.681c17.974,0,32.681-14.706,32.681-32.681V40.851  C446.638,22.877,431.932,8.17,413.957,8.17z"/>
<path style="fill:#F1866D;" d="M361.377,206.979l52.58-166.128c0-17.974-14.706-32.681-32.681-32.681h-49.021L256,31.152  L179.745,8.17H98.043c-17.974,0-32.681,14.706-32.681,32.681v430.298c0,17.974,14.706,32.681,32.681,32.681h283.234  c17.974,0,32.681-14.706,32.681-32.681v-98.043L361.377,206.979z"/>
<polygon style="fill:#FFF3D4;" points="413.957,40.851 413.957,373.106 381.277,384 326.809,223.319 381.277,40.851 "/>
<polygon style="fill:#C1B8B5;" points="332.255,8.17 332.255,62.638 245.106,62.638 299.574,8.17 "/>
<rect x="179.745" y="8.17" style="fill:#D8D1D0;" width="119.83" height="54.468"/>
<polygon style="fill:#FFFFFF;" points="98.043,40.851 98.043,471.149 315.915,471.149 381.277,384 381.277,40.851 "/>
<polygon style="fill:#FFD159;" points="315.915,373.106 315.915,471.149 413.957,373.106 "/>
<rect x="174.298" y="193.362" style="fill:#A3FBE5;" width="32.681" height="87.149"/>
<rect x="239.66" y="160.681" style="fill:#4CF5CB;" width="32.681" height="119.83"/>
<rect x="305.021" y="128" style="fill:#2DD4AA;" width="32.681" height="152.511"/>
<path d="M413.957,0H98.043C75.517,0,57.191,18.325,57.191,40.851v430.298c0,22.526,18.325,40.851,40.851,40.851h315.915  c22.526,0,40.851-18.325,40.851-40.851V40.851C454.809,18.325,436.483,0,413.957,0z M405.787,364.936h-89.872  c-4.512,0-8.17,3.657-8.17,8.17v89.872H106.213V49.021h65.362v19.064c0,13.515,10.995,24.511,24.511,24.511h119.83  c13.516,0,24.511-10.996,24.511-24.511V49.021h65.362V364.936z M394.233,381.277l-70.148,70.148v-70.148H394.233z M324.085,68.085  c0,4.506-3.665,8.17-8.17,8.17h-119.83c-4.506,0-8.17-3.665-8.17-8.17V49.021h136.17V68.085z M187.915,32.681V16.34h136.17v16.34  H187.915z M438.468,471.149c0,13.515-10.995,24.511-24.511,24.511H98.043c-13.516,0-24.511-10.996-24.511-24.511V40.851  c0-13.515,10.995-24.511,24.511-24.511h73.532v16.34H98.043c-4.512,0-8.17,3.657-8.17,8.17v430.298c0,4.513,3.658,8.17,8.17,8.17  h217.872c2.167,0,4.245-0.861,5.777-2.392l98.043-98.043c1.533-1.533,2.393-3.61,2.393-5.778V40.851c0-4.513-3.658-8.17-8.17-8.17  h-73.532V16.34h73.532c13.516,0,24.511,10.996,24.511,24.511V471.149z"/>
<path d="M337.702,119.83h-32.681c-4.512,0-8.17,3.657-8.17,8.17v119.83c0,4.513,3.658,8.17,8.17,8.17c4.512,0,8.17-3.657,8.17-8.17  V136.17h16.34v136.17h-49.021v-111.66c0-4.513-3.658-8.17-8.17-8.17H239.66c-4.512,0-8.17,3.657-8.17,8.17v87.149  c0,4.513,3.658,8.17,8.17,8.17c4.512,0,8.17-3.657,8.17-8.17v-78.979h16.34V272.34h-49.021v-78.979c0-4.513-3.658-8.17-8.17-8.17  h-32.681c-4.512,0-8.17,3.657-8.17,8.17v54.468c0,4.513,3.658,8.17,8.17,8.17s8.17-3.657,8.17-8.17v-46.298h16.34v70.809h-35.404  c-4.512,0-8.17,3.657-8.17,8.17c0,4.513,3.658,8.17,8.17,8.17h185.191c4.512,0,8.17-3.657,8.17-8.17c0-4.513-3.658-8.17-8.17-8.17  h-2.723V128C345.872,123.487,342.214,119.83,337.702,119.83z"/>
<path d="M227.404,364.936h-64c-4.512,0-8.17,3.657-8.17,8.17c0,4.513,3.658,8.17,8.17,8.17h64c4.512,0,8.17-3.657,8.17-8.17  C235.574,368.593,231.916,364.936,227.404,364.936z"/>
<path d="M291.404,318.638h-128c-4.512,0-8.17,3.657-8.17,8.17c0,4.513,3.658,8.17,8.17,8.17h128c4.512,0,8.17-3.657,8.17-8.17  C299.574,322.295,295.916,318.638,291.404,318.638z"/>
<g>
</g>
<g>
</g>
<g>
</g>
<g>
</g>
<g>
</g>
<g>
</g>
<g>
</g>
<g>
</g>
<g>
</g>
<g>
</g>
<g>
</g>
<g>
</g>
<g>
</g>
<g>
</g>
<g>
</g>
</svg>
