<?xml version="1.0" encoding="iso-8859-1"?>
<!-- Generator: Adobe Illustrator 19.0.0, SVG Export Plug-In . SVG Version: 6.00 Build 0)  -->
<svg xmlns="http://www.w3.org/2000/svg" xmlns:xlink="http://www.w3.org/1999/xlink" version="1.1" id="Layer_1" x="0px" y="0px" viewBox="0 0 512 512" style="enable-background:new 0 0 512 512;" xml:space="preserve">
<polygon style="fill:#FFE08F;" points="362.213,503.83 394.894,503.83 394.894,8.17 362.213,8.17 340.426,256 "/>
<polygon style="fill:#FFF3D4;" points="329.532,503.83 362.213,503.83 362.213,8.17 329.532,8.17 253.277,256 "/>
<polygon style="fill:#FFAB97;" points="465.702,8.17 465.702,51.745 482.043,73.532 498.383,51.745 498.383,8.17 "/>
<g>
	<polygon style="fill:#F1866D;" points="460.255,51.745 460.255,128 482.043,149.787 503.83,128 503.83,51.745  "/>
	<polygon style="fill:#F1866D;" points="482.04,503.83 503.83,438.468 482.043,416.681 460.255,438.468  "/>
</g>
<rect x="460.255" y="128" style="fill:#D8D1D0;" width="43.574" height="310.468"/>
<path style="fill:#F1866D;" d="M329.532,40.851v430.298c0,17.974-14.706,32.681-32.681,32.681L231.489,256L296.851,8.17  C314.826,8.17,329.532,22.877,329.532,40.851z"/>
<polygon style="fill:#95341D;" points="40.851,8.17 106.213,256 40.851,503.83 8.17,503.83 8.17,8.17 "/>
<path style="fill:#FFAB97;" d="M296.851,8.17v495.66h-256V8.17H296.851z"/>
<polygon style="fill:#FFF3D4;" points="264.17,73.532 264.17,149.787 231.489,149.787 187.915,111.66 231.489,73.532 "/>
<rect x="106.213" y="73.532" style="fill:#FFFFFF;" width="125.277" height="76.255"/>
<path d="M394.894,0c-4.513,0-8.17,3.658-8.17,8.17v495.66c0,4.512,3.657,8.17,8.17,8.17c4.513,0,8.17-3.658,8.17-8.17V8.17  C403.064,3.658,399.407,0,394.894,0z"/>
<path d="M296.851,0H8.17C3.658,0,0,3.658,0,8.17v495.66c0,4.512,3.658,8.17,8.17,8.17h288.681c22.526,0,40.851-18.325,40.851-40.851  V40.851C337.702,18.325,319.377,0,296.851,0z M321.362,471.149c0,13.516-10.996,24.511-24.511,24.511H16.34V16.34h280.511  c13.515,0,24.511,10.995,24.511,24.511V471.149z"/>
<path d="M40.851,32.681c-4.512,0-8.17,3.658-8.17,8.17v430.298c0,4.512,3.658,8.17,8.17,8.17s8.17-3.658,8.17-8.17V40.851  C49.021,36.339,45.363,32.681,40.851,32.681z"/>
<path d="M362.213,0c-4.513,0-8.17,3.658-8.17,8.17v495.66c0,4.512,3.657,8.17,8.17,8.17c4.513,0,8.17-3.658,8.17-8.17V8.17  C370.383,3.658,366.726,0,362.213,0z"/>
<path d="M506.553,44.049V8.17c0-4.512-3.657-8.17-8.17-8.17h-32.681c-4.513,0-8.17,3.658-8.17,8.17v35.879  c-3.171,1.123-5.447,4.14-5.447,7.695v30.78c-18.624,3.795-32.681,20.3-32.681,40.029V264.17c0,4.512,3.657,8.17,8.17,8.17  c4.513,0,8.17-3.658,8.17-8.17V122.553c0-10.651,6.831-19.733,16.34-23.105v339.02c0,0.878,0.142,1.751,0.419,2.584l21.785,65.362  c1.112,3.337,4.234,5.586,7.751,5.586s6.639-2.251,7.751-5.586l21.789-65.362c0.278-0.833,0.419-1.706,0.419-2.584V51.745  C512,48.189,509.724,45.171,506.553,44.049z M468.426,59.915h27.234v59.915h-27.234V59.915z M468.426,136.17h27.234v294.128h-27.234  V136.17z M490.213,16.34v27.234h-16.34V16.34H490.213z M482.041,477.993l-10.451-31.355h20.904L482.041,477.993z"/>
<path d="M264.17,65.362H106.213c-4.512,0-8.17,3.658-8.17,8.17v76.255c0,4.512,3.658,8.17,8.17,8.17H264.17  c4.513,0,8.17-3.658,8.17-8.17V73.532C272.34,69.02,268.683,65.362,264.17,65.362z M256,141.617H114.383V81.702H256V141.617z"/>
<g>
</g>
<g>
</g>
<g>
</g>
<g>
</g>
<g>
</g>
<g>
</g>
<g>
</g>
<g>
</g>
<g>
</g>
<g>
</g>
<g>
</g>
<g>
</g>
<g>
</g>
<g>
</g>
<g>
</g>
</svg>
