<?xml version="1.0" encoding="iso-8859-1"?>
<!-- Generator: Adobe Illustrator 19.0.0, SVG Export Plug-In . SVG Version: 6.00 Build 0)  -->
<svg xmlns="http://www.w3.org/2000/svg" xmlns:xlink="http://www.w3.org/1999/xlink" version="1.1" id="Layer_1" x="0px" y="0px" viewBox="0 0 512 512" style="enable-background:new 0 0 512 512;" xml:space="preserve">
<path style="fill:#D8D1D0;" d="M321.362,17.644l-32.681,3.54L452.085,258.72l32.681-21.787  C484.766,133.302,415.853,45.761,321.362,17.644z"/>
<g>
	<path style="fill:#F0EBEA;" d="M452.085,236.933L321.362,258.72l-32.681-118.768l32.681-118.768   C397.519,52.591,452.085,137.322,452.085,236.933z"/>
	<path style="fill:#F0EBEA;" d="M190.638,17.644C96.147,45.761,27.234,133.302,27.234,236.933l163.404,21.787l32.681-120.538   L190.638,17.644z"/>
</g>
<path style="fill:#C1B8B5;" d="M258.538,8.189l62.823,12.996v-3.54C301.426,11.707,280.347,8.417,258.538,8.189z"/>
<path style="fill:#D8D1D0;" d="M321.362,21.185v52.344L256,95.316l-65.362-21.787V17.644c20.709-6.166,42.648-9.477,65.362-9.477  c0.85,0,1.689,0.011,2.538,0.022C280.543,8.516,301.677,13.069,321.362,21.185z"/>
<polygon style="fill:#164370;" points="321.362,73.529 321.362,258.72 256,258.72 288.681,73.529 "/>
<rect x="190.638" y="73.532" style="fill:#276AAD;" width="98.043" height="185.191"/>
<path style="fill:#3891E9;" d="M256,122.55v65.362c18.051,0,32.681-14.63,32.681-32.681S274.051,122.55,256,122.55z"/>
<polygon style="fill:#D8D1D0;" points="484.766,291.401 484.766,503.827 452.085,503.827 408.511,269.614 "/>
<polygon style="fill:#C1B8B5;" points="484.766,236.933 484.766,291.401 452.085,291.401 430.298,264.167 452.085,236.933 "/>
<polygon style="fill:#F0EBEA;" points="27.234,291.401 27.234,503.827 190.638,503.827 256,433.018 321.362,503.827   452.085,503.827 452.085,291.401 252.22,258.72 "/>
<polygon style="fill:#D8D1D0;" points="452.085,236.933 452.085,291.401 419.404,291.401 397.617,264.167 419.404,236.933 "/>
<polygon style="fill:#FFFFFF;" points="419.404,236.933 419.404,291.401 354.043,291.401 332.255,264.167 354.043,236.933 "/>
<polygon style="fill:#D8D1D0;" points="288.681,236.933 266.894,266.309 288.681,291.401 354.043,291.401 354.043,236.933 "/>
<polygon style="fill:#7F7774;" points="321.362,334.975 321.362,503.827 288.681,503.827 266.894,419.401 288.681,334.975 "/>
<polygon style="fill:#A99E9B;" points="288.681,334.975 288.681,503.827 256,503.827 234.213,419.401 256,334.975 "/>
<polygon style="fill:#FFFFFF;" points="288.681,236.933 288.681,291.401 223.319,291.401 201.532,264.131 223.319,236.933 "/>
<rect x="190.638" y="334.979" style="fill:#C1B8B5;" width="65.362" height="168.851"/>
<polygon style="fill:#D8D1D0;" points="223.319,236.933 223.319,291.401 157.957,291.401 136.17,264.167 157.957,236.933   190.638,236.933 "/>
<polygon style="fill:#FFFFFF;" points="157.957,236.933 157.957,291.401 92.596,291.401 70.809,264.167 92.596,236.933 "/>
<rect x="27.234" y="236.936" style="fill:#D8D1D0;" width="65.362" height="54.468"/>
<path style="fill:#7CC8EF;" d="M256,122.55c6.013,0,10.894,14.63,10.894,32.681s-4.88,32.681-10.894,32.681  c-18.051,0-32.681-14.63-32.681-32.681S237.949,122.55,256,122.55z"/>
<path d="M256,196.085c22.526,0,40.851-18.325,40.851-40.851S278.526,114.383,256,114.383c-22.526,0-40.851,18.325-40.851,40.851  S233.474,196.085,256,196.085z M256,130.723c13.516,0,24.511,10.995,24.511,24.511c0,13.516-10.995,24.511-24.511,24.511  s-24.511-10.995-24.511-24.511C231.489,141.718,242.484,130.723,256,130.723z"/>
<path d="M495.66,283.234h-2.723v-38.128h2.723c4.512,0,8.17-3.658,8.17-8.17c0-4.512-3.658-8.17-8.17-8.17h-2.878  c-2.027-60.223-26.424-116.55-69.243-159.369c-26.822-26.822-58.948-46.412-94.007-57.812V8.45c0-4.512-3.658-8.17-8.17-8.17  c-3.999,0-7.322,2.876-8.026,6.671C294.802,2.366,275.583,0,256,0c-19.714,0-39.059,2.393-57.707,7.038  c-1.154-3.113-4.141-5.337-7.655-5.337c-4.512,0-8.17,3.658-8.17,8.17v1.714c-35.06,11.399-67.184,30.989-94.008,57.812  c-42.82,42.818-67.215,99.144-69.242,159.368H16.34c-4.512,0-8.17,3.658-8.17,8.17c0,4.512,3.658,8.17,8.17,8.17h2.723v38.128H16.34  c-4.512,0-8.17,3.658-8.17,8.17c0,4.512,3.658,8.17,8.17,8.17h2.723V503.83c0,4.512,3.658,8.17,8.17,8.17h457.532  c4.512,0,8.17-3.658,8.17-8.17V299.574h2.723c4.512,0,8.17-3.658,8.17-8.17C503.83,286.892,500.172,283.234,495.66,283.234z   M313.191,23.874v41.487H198.809V23.874c18.248-4.903,37.417-7.534,57.191-7.534S294.944,18.971,313.191,23.874z M182.468,28.959  v175.297c0,4.512,3.658,8.17,8.17,8.17s8.17-3.658,8.17-8.17V81.702h114.383v122.553c0,4.512,3.658,8.17,8.17,8.17  s8.17-3.658,8.17-8.17V28.959C412.68,58.443,473.049,136.45,476.429,228.766H35.571C38.951,136.45,99.32,58.443,182.468,28.959z   M313.191,343.149V495.66H264.17V343.149H313.191z M247.83,495.66h-49.021V343.149h49.021V495.66z M476.596,495.66H329.532V334.979  c0-4.512-3.658-8.17-8.17-8.17H190.638c-4.512,0-8.17,3.658-8.17,8.17V495.66H35.404V299.574h40.851c4.512,0,8.17-3.658,8.17-8.17  c0-4.512-3.658-8.17-8.17-8.17H35.404v-38.128h49.021v13.617c0,4.512,3.658,8.17,8.17,8.17c4.512,0,8.17-3.658,8.17-8.17v-13.617  h49.021v13.617c0,4.512,3.658,8.17,8.17,8.17s8.17-3.658,8.17-8.17v-13.617h49.021v13.617c0,4.512,3.658,8.17,8.17,8.17  c4.512,0,8.17-3.658,8.17-8.17v-13.617h49.021v13.617c0,4.512,3.658,8.17,8.17,8.17c4.512,0,8.17-3.658,8.17-8.17v-13.617h49.021  v13.617c0,4.512,3.658,8.17,8.17,8.17s8.17-3.658,8.17-8.17v-13.617h49.021v13.617c0,4.512,3.658,8.17,8.17,8.17  c4.512,0,8.17-3.658,8.17-8.17v-13.617h49.021v38.128h-367.66c-4.512,0-8.17,3.658-8.17,8.17c0,4.512,3.658,8.17,8.17,8.17h367.66  V495.66z"/>
<path d="M354.043,419.404c4.512,0,8.17-3.658,8.17-8.17V367.66c0-4.512-3.658-8.17-8.17-8.17s-8.17,3.658-8.17,8.17v43.574  C345.872,415.746,349.53,419.404,354.043,419.404z"/>
<path d="M157.957,419.404c4.512,0,8.17-3.658,8.17-8.17V367.66c0-4.512-3.658-8.17-8.17-8.17s-8.17,3.658-8.17,8.17v43.574  C149.787,415.746,153.445,419.404,157.957,419.404z"/>
<g>
</g>
<g>
</g>
<g>
</g>
<g>
</g>
<g>
</g>
<g>
</g>
<g>
</g>
<g>
</g>
<g>
</g>
<g>
</g>
<g>
</g>
<g>
</g>
<g>
</g>
<g>
</g>
<g>
</g>
</svg>
