<?xml version="1.0" encoding="iso-8859-1"?>
<!-- Generator: Adobe Illustrator 19.0.0, SVG Export Plug-In . SVG Version: 6.00 Build 0)  -->
<svg xmlns="http://www.w3.org/2000/svg" xmlns:xlink="http://www.w3.org/1999/xlink" version="1.1" id="Layer_1" x="0px" y="0px" viewBox="0 0 512 512" style="enable-background:new 0 0 512 512;" xml:space="preserve">
<g>
	<rect x="8.17" y="106.213" style="fill:#4CF5CB;" width="32.681" height="397.617"/>
	<rect x="471.149" y="106.213" style="fill:#4CF5CB;" width="32.681" height="397.617"/>
</g>
<path style="fill:#D1FDF2;" d="M206.979,29.957l-98.043,76.255v32.681l65.362,299.574c36.101,0,65.362-29.26,65.362-65.362V29.957  H206.979z"/>
<path style="fill:#FFFFFF;" d="M206.979,138.894v68.085l-21.787,83.064l21.787,83.064c0,36.101-14.63,65.362-32.681,65.362  c-36.101,0-65.362-29.26-65.362-65.362V138.894H206.979z"/>
<path style="fill:#68AEF4;" d="M174.298,206.979v198.809c-18.018,0-32.681-14.663-32.681-32.681V206.979H174.298z"/>
<path style="fill:#3891E9;" d="M206.979,206.979v166.128c0,18.018-14.663,32.681-32.681,32.681V206.979H206.979z"/>
<rect x="108.936" y="29.957" style="fill:#FFFFFF;" width="98.043" height="76.255"/>
<path style="fill:#4CF5CB;" d="M239.66,8.17H108.936c-9.02,0-16.34,7.321-16.34,16.34s7.321,16.34,16.34,16.34H239.66  c9.02,0,16.34-7.321,16.34-16.34S248.679,8.17,239.66,8.17z"/>
<path style="fill:#D1FDF2;" d="M370.383,29.957l-98.043,76.255v32.681l65.362,299.574c36.101,0,65.362-29.26,65.362-65.362V29.957  H370.383z"/>
<path style="fill:#FFFFFF;" d="M370.383,138.894v68.085l-21.787,83.064l21.787,83.064c0,36.101-14.63,65.362-32.681,65.362  c-36.101,0-65.362-29.26-65.362-65.362V138.894H370.383z"/>
<path style="fill:#68AEF4;" d="M337.702,206.979v198.809c-18.018,0-32.681-14.663-32.681-32.681V206.979H337.702z"/>
<path style="fill:#3891E9;" d="M370.383,206.979v166.128c0,18.018-14.663,32.681-32.681,32.681V206.979H370.383z"/>
<rect x="272.34" y="29.957" style="fill:#FFFFFF;" width="98.043" height="76.255"/>
<path style="fill:#4CF5CB;" d="M403.064,8.17H272.34c-9.02,0-16.34,7.321-16.34,16.34s7.321,16.34,16.34,16.34h130.723  c9.02,0,16.34-7.321,16.34-16.34S412.084,8.17,403.064,8.17z"/>
<path d="M141.617,49.021h65.362c4.512,0,8.17-3.658,8.17-8.17s-3.658-8.17-8.17-8.17h-65.362c-4.512,0-8.17,3.658-8.17,8.17  S137.105,49.021,141.617,49.021z"/>
<path d="M174.298,413.957c22.526,0,40.851-18.325,40.851-40.851V206.979c0-4.512-3.658-8.17-8.17-8.17h-65.362  c-4.512,0-8.17,3.658-8.17,8.17v66.723c0,4.512,3.658,8.17,8.17,8.17s8.17-3.658,8.17-8.17v-58.553h49.021v157.957  c0,13.516-10.995,24.511-24.511,24.511s-24.511-10.995-24.511-24.511v-66.723c0-4.512-3.658-8.17-8.17-8.17s-8.17,3.658-8.17,8.17  v66.723C133.447,395.632,151.772,413.957,174.298,413.957z"/>
<path d="M305.021,49.021h65.362c4.512,0,8.17-3.658,8.17-8.17s-3.658-8.17-8.17-8.17h-65.362c-4.512,0-8.17,3.658-8.17,8.17  S300.509,49.021,305.021,49.021z"/>
<path d="M337.702,413.957c22.526,0,40.851-18.325,40.851-40.851V206.979c0-4.512-3.658-8.17-8.17-8.17h-65.362  c-4.512,0-8.17,3.658-8.17,8.17v166.128C296.851,395.632,315.176,413.957,337.702,413.957z M313.191,215.149h49.021v157.957  c0,13.516-10.995,24.511-24.511,24.511s-24.511-10.995-24.511-24.511V215.149z"/>
<path d="M503.83,98.043h-92.596V47.621c9.51-3.372,16.34-12.459,16.34-23.111C427.574,10.995,416.58,0,403.064,0H272.34  c-6.273,0-12,2.372-16.34,6.261C251.66,2.372,245.932,0,239.66,0H108.936C95.42,0,84.426,10.995,84.426,24.511  c0,10.652,6.83,19.739,16.34,23.111v50.421H8.17c-4.512,0-8.17,3.658-8.17,8.17V503.83c0,4.512,3.658,8.17,8.17,8.17h32.681  c4.512,0,8.17-3.658,8.17-8.17v-24.511h413.957v24.511c0,4.512,3.658,8.17,8.17,8.17h32.681c4.512,0,8.17-3.658,8.17-8.17V106.213  C512,101.701,508.342,98.043,503.83,98.043z M272.34,16.34h130.723c4.506,0,8.17,3.665,8.17,8.17s-3.665,8.17-8.17,8.17  c-4.512,0-8.17,3.658-8.17,8.17v57.191H280.511V40.851c0-4.512-3.658-8.17-8.17-8.17c-4.506,0-8.17-3.665-8.17-8.17  S267.835,16.34,272.34,16.34z M247.83,98.043V47.621c3.046-1.08,5.811-2.751,8.17-4.866c2.36,2.116,5.124,3.787,8.17,4.866v50.421  H247.83z M108.936,32.681c-4.506,0-8.17-3.665-8.17-8.17s3.665-8.17,8.17-8.17H239.66c4.506,0,8.17,3.665,8.17,8.17  s-3.665,8.17-8.17,8.17c-4.512,0-8.17,3.658-8.17,8.17v57.191H117.106V40.851C117.106,36.339,113.448,32.681,108.936,32.681z   M32.681,495.66H16.34V114.383h16.34V495.66z M49.021,462.979V114.383h182.468v258.723c0,31.536-25.656,57.191-57.191,57.191  s-57.191-25.656-57.191-57.191V138.894c0-4.512-3.658-8.17-8.17-8.17c-4.512,0-8.17,3.658-8.17,8.17v234.213  c0,40.546,32.986,73.532,73.532,73.532s73.532-32.986,73.532-73.532V114.383h147.064v258.723c0,31.536-25.656,57.191-57.191,57.191  s-57.191-25.656-57.191-57.191V138.894c0-4.512-3.658-8.17-8.17-8.17c-4.512,0-8.17,3.658-8.17,8.17v234.213  c0,40.546,32.986,73.532,73.532,73.532s73.532-32.986,73.532-73.532V114.383h51.745v348.596H49.021z M495.66,495.66h-16.34V114.383  h16.34V495.66z"/>
<g>
</g>
<g>
</g>
<g>
</g>
<g>
</g>
<g>
</g>
<g>
</g>
<g>
</g>
<g>
</g>
<g>
</g>
<g>
</g>
<g>
</g>
<g>
</g>
<g>
</g>
<g>
</g>
<g>
</g>
</svg>
