<?xml version="1.0" encoding="iso-8859-1"?>
<!-- Generator: Adobe Illustrator 19.0.0, SVG Export Plug-In . SVG Version: 6.00 Build 0)  -->
<svg xmlns="http://www.w3.org/2000/svg" xmlns:xlink="http://www.w3.org/1999/xlink" version="1.1" id="Layer_1" x="0px" y="0px" viewBox="0 0 512 512" style="enable-background:new 0 0 512 512;" xml:space="preserve">
<path style="fill:#3891E9;" d="M277.787,57.191V29.957c0-12.033-9.754-21.787-21.787-21.787c-12.033,0-21.787,9.754-21.787,21.787  v27.234c0,12.033,9.754,21.787,21.787,21.787C268.033,78.979,277.787,69.225,277.787,57.191z"/>
<g>
	<path style="fill:#68AEF4;" d="M201.532,57.191V29.957c0-12.033-9.754-21.787-21.787-21.787s-21.787,9.754-21.787,21.787v27.234   c0,12.033,9.754,21.787,21.787,21.787S201.532,69.225,201.532,57.191z"/>
	<path style="fill:#68AEF4;" d="M354.043,57.191V29.957c0-12.033-9.754-21.787-21.787-21.787s-21.787,9.754-21.787,21.787v27.234   c0,12.033,9.754,21.787,21.787,21.787S354.043,69.225,354.043,57.191z"/>
</g>
<polygon style="fill:#C08577;" points="343.149,438.468 343.149,482.043 136.17,482.043 136.17,226.043 343.149,226.043   343.149,269.617 288.681,354.043 "/>
<rect x="310.468" y="226.043" style="fill:#AB5D4A;" width="65.362" height="256"/>
<g>
	<polygon style="fill:#D5AEA4;" points="354.043,471.149 332.255,487.489 354.043,503.83 386.723,503.83 386.723,471.149  "/>
	<polygon style="fill:#D5AEA4;" points="343.149,269.617 343.149,438.468 310.468,438.468 288.681,354.043 310.468,269.617  "/>
</g>
<rect x="168.851" y="269.617" style="fill:#EAD6D2;" width="141.617" height="168.851"/>
<polygon style="fill:#D5AEA4;" points="288.681,149.787 354.043,236.936 386.723,236.936 386.723,149.787 "/>
<rect x="125.277" y="149.787" style="fill:#EAD6D2;" width="228.766" height="87.149"/>
<polygon style="fill:#AB5D4A;" points="419.404,138.894 419.404,171.574 386.723,171.574 375.83,155.234 386.723,138.894 "/>
<rect x="125.277" y="471.149" style="fill:#EAD6D2;" width="228.766" height="32.681"/>
<rect x="92.596" y="138.894" style="fill:#C08577;" width="294.128" height="32.681"/>
<path d="M419.404,130.723h-78.979V86.007c12.558-3.567,21.787-15.13,21.787-28.816V29.957C362.213,13.438,348.773,0,332.255,0  s-29.957,13.438-29.957,29.957v27.234c0,13.686,9.229,25.249,21.787,28.816v44.716H264.17V86.007  c12.558-3.567,21.787-15.13,21.787-28.816V29.957C285.957,13.438,272.518,0,256,0s-29.957,13.438-29.957,29.957v27.234  c0,13.686,9.229,25.249,21.787,28.816v44.716h-59.915V86.007c12.558-3.567,21.787-15.13,21.787-28.816V29.957  C209.702,13.438,196.263,0,179.745,0s-29.957,13.438-29.957,29.957v27.234c0,13.686,9.229,25.249,21.787,28.816v44.716H92.596  c-4.513,0-8.17,3.658-8.17,8.17v32.681c0,4.512,3.657,8.17,8.17,8.17h24.511v57.191c0,4.512,3.657,8.17,8.17,8.17H128v217.872  h-2.723c-4.513,0-8.17,3.658-8.17,8.17v24.511h-2.723c-4.513,0-8.17,3.658-8.17,8.17s3.657,8.17,8.17,8.17h283.234  c4.513,0,8.17-3.658,8.17-8.17s-3.657-8.17-8.17-8.17h-2.723v-24.511c0-4.512-3.657-8.17-8.17-8.17H384V245.106h2.723  c4.513,0,8.17-3.658,8.17-8.17v-57.191h24.511c4.513,0,8.17-3.658,8.17-8.17v-32.681  C427.574,134.381,423.917,130.723,419.404,130.723z M318.638,57.191V29.957c0-7.509,6.108-13.617,13.617-13.617  s13.617,6.108,13.617,13.617v27.234c0,7.509-6.108,13.617-13.617,13.617S318.638,64.7,318.638,57.191z M242.383,57.191V29.957  c0-7.509,6.108-13.617,13.617-13.617c7.509,0,13.617,6.108,13.617,13.617v27.234c0,7.509-6.108,13.617-13.617,13.617  C248.491,70.809,242.383,64.7,242.383,57.191z M166.128,57.191V29.957c0-7.509,6.108-13.617,13.617-13.617  s13.617,6.108,13.617,13.617v27.234c0,7.509-6.108,13.617-13.617,13.617S166.128,64.7,166.128,57.191z M367.66,462.979h-24.511  c-4.513,0-8.17,3.658-8.17,8.17c0,4.512,3.657,8.17,8.17,8.17h35.404v16.34H133.447v-16.34h177.021c4.513,0,8.17-3.658,8.17-8.17  c0-4.512-3.657-8.17-8.17-8.17H144.34V245.106H367.66V462.979z M378.553,228.766H133.447v-49.021h245.106V228.766z M411.234,163.404  H100.766v-16.34h310.468V163.404z"/>
<path d="M157.957,212.426h196.085c4.513,0,8.17-3.658,8.17-8.17s-3.657-8.17-8.17-8.17H157.957c-4.513,0-8.17,3.658-8.17,8.17  S153.444,212.426,157.957,212.426z"/>
<path d="M168.851,362.213c-4.513,0-8.17,3.658-8.17,8.17v68.085c0,4.512,3.657,8.17,8.17,8.17h174.298c4.513,0,8.17-3.658,8.17-8.17  V269.617c0-4.512-3.657-8.17-8.17-8.17H168.851c-4.513,0-8.17,3.658-8.17,8.17v68.085c0,4.512,3.657,8.17,8.17,8.17  s8.17-3.658,8.17-8.17v-59.915h157.957v152.511H177.021v-59.915C177.021,365.871,173.364,362.213,168.851,362.213z"/>
<g>
</g>
<g>
</g>
<g>
</g>
<g>
</g>
<g>
</g>
<g>
</g>
<g>
</g>
<g>
</g>
<g>
</g>
<g>
</g>
<g>
</g>
<g>
</g>
<g>
</g>
<g>
</g>
<g>
</g>
</svg>
