<?xml version="1.0" encoding="iso-8859-1"?>
<!-- Generator: Adobe Illustrator 19.0.0, SVG Export Plug-In . SVG Version: 6.00 Build 0)  -->
<svg xmlns="http://www.w3.org/2000/svg" xmlns:xlink="http://www.w3.org/1999/xlink" version="1.1" id="Layer_1" x="0px" y="0px" viewBox="0 0 512 512" style="enable-background:new 0 0 512 512;" xml:space="preserve">
<path style="fill:#A3FBE5;" d="M384,84.426v343.149H84.426V84.426H384z"/>
<rect x="373.106" y="84.426" style="fill:#4CF5CB;" width="54.468" height="343.149"/>
<polygon style="fill:#FFF3D4;" points="84.426,40.851 84.426,471.149 8.17,503.83 8.17,8.17 "/>
<polygon style="fill:#F5AC51;" points="503.83,8.17 503.83,503.83 427.574,471.149 427.574,40.851 "/>
<polygon style="fill:#FFFFFF;" points="438.468,95.319 416.681,62.638 62.638,62.638 62.638,449.362 416.681,449.362   438.468,416.681 95.319,416.681 95.319,95.319 "/>
<rect x="416.681" y="62.638" style="fill:#FFF3D4;" width="32.681" height="386.723"/>
<g>
	<polygon style="fill:#FFE08F;" points="62.638,449.362 8.17,503.83 503.83,503.83 449.362,449.362  "/>
	<polygon style="fill:#FFE08F;" points="449.362,62.638 503.83,8.17 8.17,8.17 62.638,62.638  "/>
</g>
<polygon style="fill:#AB5D4A;" points="179.745,231.478 179.745,357.354 283.234,357.354 315.915,231.478 "/>
<path style="fill:#C08577;" d="M256,334.979l95.319,81.702H384C361.581,368.433,312.701,334.979,256,334.979z"/>
<path style="fill:#D5AEA4;" d="M256,334.979c42.224,0,78.619,33.454,95.319,81.702H128C150.419,368.433,199.299,334.979,256,334.979  z"/>
<path style="fill:#FFCDC1;" d="M294.128,163.404v138.894h-43.574c-39.108,0-70.809-31.7-70.809-70.819v-16.33  c0-28.574,23.171-51.745,51.745-51.745S294.128,163.404,294.128,163.404z"/>
<path style="fill:#792A18;" d="M332.255,215.149v142.205h-49.021v-55.056v-87.149c0-28.574-23.171-51.745-51.745-51.745  s-51.745,23.171-51.745,51.745c0-42.115,34.141-76.255,76.255-76.255S332.255,173.034,332.255,215.149z"/>
<path d="M503.83,0H8.17C3.658,0,0,3.658,0,8.17v495.66c0,4.512,3.658,8.17,8.17,8.17h495.66c4.513,0,8.17-3.658,8.17-8.17V8.17  C512,3.658,508.343,0,503.83,0z M16.34,27.894l38.128,38.128v379.955L16.34,484.105V27.894z M70.809,441.191V70.809h370.383v370.383  H70.809z M445.977,54.468H66.022L27.894,16.34h456.21L445.977,54.468z M66.022,457.532h379.955l38.128,38.128H27.894L66.022,457.532  z M457.532,445.977V66.023l38.128-38.128v456.209L457.532,445.977z"/>
<path d="M416.681,87.149H95.319c-4.512,0-8.17,3.658-8.17,8.17v321.362c0,4.512,3.658,8.17,8.17,8.17h321.362  c4.513,0,8.17-3.658,8.17-8.17V95.319C424.851,90.807,421.194,87.149,416.681,87.149z M408.511,408.511H103.489V103.489h305.021  V408.511z"/>
<path d="M144.127,389.729c1.547,1.344,3.455,2.003,5.356,2.003c2.283,0,4.555-0.952,6.17-2.812  c25.275-29.089,61.851-45.772,100.347-45.772c6.388,0,12.774,0.459,19.064,1.361v12.845c0,4.512,3.657,8.17,8.17,8.17h46.553  c9.995,6.688,19.051,14.68,26.916,23.807c1.616,1.876,3.898,2.837,6.193,2.837c1.889,0,3.788-0.651,5.331-1.982  c3.418-2.946,3.801-8.104,0.855-11.522c-8.419-9.768-18.053-18.38-28.657-25.669V215.149c0-46.553-37.874-84.426-84.426-84.426  s-84.426,37.873-84.426,84.426v137.858c-10.346,7.1-19.859,15.533-28.256,25.196C140.359,381.609,140.72,386.769,144.127,389.729z   M256,147.064c37.543,0,68.085,30.544,68.085,68.085v134.035h-32.681V215.149c0-33.037-26.878-59.915-59.915-59.915  c-3.069,0-6.084,0.232-9.031,0.68C232.364,150.283,243.814,147.064,256,147.064z M231.489,171.574  c21.234,0,38.959,15.271,42.796,35.404h-85.59C192.531,186.845,210.256,171.574,231.489,171.574z M187.915,279.512  c14.45,18.803,37.146,30.956,62.638,30.956c4.512,0,8.17-3.658,8.17-8.17c0-4.512-3.658-8.17-8.17-8.17  c-34.539,0-62.638-28.102-62.638-62.645v-8.164h87.149v104.707c-6.306-0.804-12.686-1.218-19.064-1.218  c-23.957,0-47.247,5.763-68.085,16.45V279.512z"/>
<g>
</g>
<g>
</g>
<g>
</g>
<g>
</g>
<g>
</g>
<g>
</g>
<g>
</g>
<g>
</g>
<g>
</g>
<g>
</g>
<g>
</g>
<g>
</g>
<g>
</g>
<g>
</g>
<g>
</g>
</svg>
