<?xml version="1.0" encoding="iso-8859-1"?>
<!-- Generator: Adobe Illustrator 19.0.0, SVG Export Plug-In . SVG Version: 6.00 Build 0)  -->
<svg xmlns="http://www.w3.org/2000/svg" xmlns:xlink="http://www.w3.org/1999/xlink" version="1.1" id="Layer_1" x="0px" y="0px" viewBox="0 0 512 512" style="enable-background:new 0 0 512 512;" xml:space="preserve">
<path style="fill:#FFE08F;" d="M354.043,319.314V503.83h32.681c17.974,0,32.681-14.706,32.681-32.681V319.314H354.043z"/>
<path style="fill:#FFF3D4;" d="M92.596,297.526v173.622c0,17.974,14.706,32.681,32.681,32.681h228.766  c17.974,0,32.681-14.706,32.681-32.681v-43.574C386.723,427.574,100.875,303.932,92.596,297.526z"/>
<polygon style="fill:#AB5D4A;" points="125.277,329.532 125.277,427.574 157.957,427.574 179.745,307.745 "/>
<polygon style="fill:#792A18;" points="332.255,307.745 354.043,427.574 386.723,427.574 386.723,329.532 "/>
<path style="fill:#FFEAB2;" d="M257.939,8.181l107.607,321.351h23.901c11.275,0,21.678-3.813,29.957-10.218  c11.591-8.965,19.064-23.018,19.064-38.803v-89.872C438.468,90.504,357.823,9.216,257.939,8.181z"/>
<path style="fill:#FFFFFF;" d="M257.939,8.181C257.296,8.17,256.643,8.17,256,8.17c-100.777,0-182.468,81.691-182.468,182.468  v89.872c0,15.785,7.473,29.838,19.064,38.792c8.279,6.416,18.683,10.229,29.957,10.229h35.404v43.574L256,405.787l98.043-32.681  v-43.574h11.504c22.223,0,40.241-21.951,40.241-49.021v-89.872C405.787,90.646,339.772,9.445,257.939,8.181z"/>
<g>
	<path style="fill:#792A18;" d="M293.234,307.908c0.566,1.656,0.893,3.431,0.893,5.283c0,9.02-7.321,16.34-16.34,16.34H256   l-21.787-37.583L256,244.562c9.565,0,17.669,6.166,20.6,14.739L293.234,307.908z"/>
	<path style="fill:#792A18;" d="M177.021,137.804V246.74c30.077,0,54.468-24.391,54.468-54.468S207.099,137.804,177.021,137.804z"/>
	<path style="fill:#792A18;" d="M334.979,137.804V246.74c30.077,0,54.468-24.391,54.468-54.468S365.056,137.804,334.979,137.804z"/>
</g>
<g>
	<path style="fill:#AB5D4A;" d="M177.021,137.804c12.037,0,21.787,24.391,21.787,54.468s-9.75,54.468-21.787,54.468   c-30.077,0-54.468-24.391-54.468-54.468S146.944,137.804,177.021,137.804z"/>
	<path style="fill:#AB5D4A;" d="M334.979,137.804c12.037,0,21.787,24.391,21.787,54.468s-9.75,54.468-21.787,54.468   c-30.077,0-54.468-24.391-54.468-54.468S304.901,137.804,334.979,137.804z"/>
	<path style="fill:#AB5D4A;" d="M256,244.562v84.97h-21.787c-9.02,0-16.34-7.32-16.34-16.34c0-1.852,0.327-3.628,0.893-5.283   l16.635-48.607C238.331,250.727,246.435,244.562,256,244.562z"/>
</g>
<polygon style="fill:#FFE08F;" points="354.043,373.106 354.043,400.34 321.362,411.234 310.468,392.17 321.362,373.106 "/>
<polygon style="fill:#FFEAB2;" points="321.362,373.106 321.362,400.34 288.681,411.234 277.787,392.17 288.681,373.106 "/>
<polygon style="fill:#FFE08F;" points="288.681,373.106 288.681,400.34 256,411.234 245.106,392.17 256,373.106 "/>
<polygon style="fill:#FFEAB2;" points="256,373.106 256,400.34 223.319,411.234 212.426,392.17 223.319,373.106 "/>
<polygon style="fill:#FFE08F;" points="223.319,373.106 223.319,400.34 190.638,411.234 179.745,392.17 190.638,373.106 "/>
<polygon style="fill:#FFEAB2;" points="190.638,373.106 190.638,400.34 177.021,409.6 157.957,400.34 157.957,373.106 "/>
<polygon style="fill:#FFD159;" points="354.043,400.34 354.043,427.574 321.362,427.574 310.468,413.957 321.362,400.34 "/>
<polygon style="fill:#FFE08F;" points="321.362,400.34 321.362,427.574 288.681,427.574 277.787,413.957 288.681,400.34 "/>
<polygon style="fill:#FFD159;" points="288.681,400.34 288.681,427.574 256,427.574 245.106,413.957 256,400.34 "/>
<polygon style="fill:#FFE08F;" points="256,400.34 256,427.574 223.319,427.574 212.426,413.957 223.319,400.34 "/>
<polygon style="fill:#FFD159;" points="223.319,400.34 223.319,427.574 190.638,427.574 179.745,413.957 190.638,400.34 "/>
<rect x="157.957" y="400.34" style="fill:#FFE08F;" width="32.681" height="27.234"/>
<path d="M239.66,192.272c0-34.539-28.099-62.638-62.638-62.638s-62.638,28.099-62.638,62.638s28.099,62.638,62.638,62.638  S239.66,226.812,239.66,192.272z M177.021,238.57c-25.529,0-46.298-20.769-46.298-46.298s20.769-46.298,46.298-46.298  s46.298,20.769,46.298,46.298S202.55,238.57,177.021,238.57z"/>
<path d="M272.34,192.272c0,34.539,28.099,62.638,62.638,62.638s62.638-28.099,62.638-62.638s-28.099-62.638-62.638-62.638  S272.34,157.733,272.34,192.272z M381.277,192.272c0,25.529-20.769,46.298-46.298,46.298c-25.529,0-46.298-20.769-46.298-46.298  s20.769-46.298,46.298-46.298C360.508,145.974,381.277,166.743,381.277,192.272z"/>
<path d="M284.328,256.653c-4.148-12.118-15.532-20.261-28.328-20.261s-24.179,8.143-28.328,20.262l-16.638,48.604  c-0.883,2.582-1.332,5.251-1.332,7.935c0,13.516,10.995,24.511,24.511,24.511h5.447c4.512,0,8.17-3.658,8.17-8.17  c0-4.512-3.658-8.17-8.17-8.17h-5.447c-4.506,0-8.17-3.665-8.17-8.17c0-0.879,0.151-1.767,0.451-2.642l16.638-48.604  c1.886-5.512,7.058-9.215,12.869-9.215s10.983,3.703,12.869,9.213l16.638,48.606c0.3,0.874,0.451,1.763,0.451,2.641  c0,4.506-3.665,8.17-8.17,8.17h-5.447c-4.512,0-8.17,3.658-8.17,8.17c0,4.512,3.658,8.17,8.17,8.17h5.447  c13.516,0,24.511-10.995,24.511-24.511c0-2.683-0.449-5.353-1.332-7.934L284.328,256.653z"/>
<path d="M256,0C150.882,0,65.362,85.52,65.362,190.638v89.872c0,16.899,7.373,32.103,19.064,42.582v148.056  c0,22.526,18.325,40.851,40.851,40.851h261.447c22.526,0,40.851-18.325,40.851-40.851V323.093  c11.691-10.479,19.064-25.684,19.064-42.582v-89.872C446.638,85.52,361.118,0,256,0z M411.234,471.149  c0,13.516-10.995,24.511-24.511,24.511H125.277c-13.516,0-24.511-10.995-24.511-24.511V333.38  c6.719,2.779,14.076,4.323,21.787,4.323h27.234v81.702h-16.34v-57.191c0-4.512-3.658-8.17-8.17-8.17c-4.512,0-8.17,3.658-8.17,8.17  v65.362c0,4.512,3.658,8.17,8.17,8.17h32.681c4.512,0,8.17-3.658,8.17-8.17v-19.064h16.34v19.064c0,4.512,3.658,8.17,8.17,8.17  s8.17-3.658,8.17-8.17v-19.064h16.34v19.064c0,4.512,3.658,8.17,8.17,8.17c4.512,0,8.17-3.658,8.17-8.17v-19.064h16.34v19.064  c0,4.512,3.658,8.17,8.17,8.17s8.17-3.658,8.17-8.17v-19.064h16.34v19.064c0,4.512,3.658,8.17,8.17,8.17  c4.512,0,8.17-3.658,8.17-8.17v-19.064h16.34v19.064c0,4.512,3.658,8.17,8.17,8.17s8.17-3.658,8.17-8.17v-19.064h16.34v19.064  c0,4.512,3.658,8.17,8.17,8.17h32.681c4.512,0,8.17-3.658,8.17-8.17v-65.362c0-4.512-3.658-8.17-8.17-8.17s-8.17,3.658-8.17,8.17  v57.191h-16.34v-81.702h27.234c7.712,0,15.068-1.544,21.787-4.323V471.149z M430.298,280.511c0,22.526-18.325,40.851-40.851,40.851  h-35.404c-4.512,0-8.17,3.658-8.17,8.17v62.638h-16.34v-19.064c0-4.512-3.658-8.17-8.17-8.17s-8.17,3.658-8.17,8.17v19.064h-16.34  v-19.064c0-4.512-3.658-8.17-8.17-8.17c-4.512,0-8.17,3.658-8.17,8.17v19.064h-16.34v-19.064c0-4.512-3.658-8.17-8.17-8.17  s-8.17,3.658-8.17,8.17v19.064h-16.34v-19.064c0-4.512-3.658-8.17-8.17-8.17c-4.512,0-8.17,3.658-8.17,8.17v19.064h-16.34v-19.064  c0-4.512-3.658-8.17-8.17-8.17s-8.17,3.658-8.17,8.17v19.064h-16.34v-62.638c0-2.167-0.861-4.245-2.393-5.777  c-1.532-1.533-3.61-2.393-5.777-2.393h-35.404c-22.526,0-40.851-18.325-40.851-40.851v-89.872C81.702,94.53,159.892,16.34,256,16.34  s174.298,78.19,174.298,174.298V280.511z"/>
<g>
</g>
<g>
</g>
<g>
</g>
<g>
</g>
<g>
</g>
<g>
</g>
<g>
</g>
<g>
</g>
<g>
</g>
<g>
</g>
<g>
</g>
<g>
</g>
<g>
</g>
<g>
</g>
<g>
</g>
</svg>
