<?xml version="1.0" encoding="iso-8859-1"?>
<!-- Generator: Adobe Illustrator 19.0.0, SVG Export Plug-In . SVG Version: 6.00 Build 0)  -->
<svg xmlns="http://www.w3.org/2000/svg" xmlns:xlink="http://www.w3.org/1999/xlink" version="1.1" id="Layer_1" x="0px" y="0px" viewBox="0 0 512 512" style="enable-background:new 0 0 512 512;" xml:space="preserve">
<g>
	<path style="fill:#D8D1D0;" d="M431.242,439.412H80.758c-4.512,0-8.17-3.658-8.17-8.17V80.757c0-4.512,3.658-8.17,8.17-8.17   h350.484c4.512,0,8.17,3.658,8.17,8.17v350.484C439.412,435.754,435.754,439.412,431.242,439.412z M88.928,423.072h334.143V88.928   H88.928V423.072z"/>
	<path style="fill:#D8D1D0;" d="M256,512c-2.09,0-4.182-0.797-5.777-2.393L2.393,261.777c-3.191-3.191-3.191-8.364,0-11.554   l247.83-247.83c3.191-3.191,8.364-3.191,11.554,0l247.83,247.83c3.191,3.191,3.191,8.364,0,11.554l-247.83,247.83   C260.182,511.202,258.091,512,256,512z M19.725,256L256,492.276L492.276,256L256,19.724L19.725,256z"/>
</g>
<path style="fill:#FFCDC1;" d="M256,124.332c-73.048,0-137.028,52.198-175.242,131.668C118.972,335.47,182.952,387.668,256,387.668  c73.047,0,137.028-52.2,175.242-131.668C393.027,176.532,329.047,124.332,256,124.332z"/>
<path style="fill:#FFFFFF;" d="M256,163.403c-73.048,0-137.028,36.709-175.242,92.597c38.215,55.888,102.194,92.597,175.242,92.597  c73.047,0,137.028-36.71,175.242-92.597C393.027,200.113,329.047,163.403,256,163.403z"/>
<path style="fill:#AB5D4A;" d="M255.998,163.405v185.191c51.146,0,92.596-41.461,92.596-92.596  C348.593,204.855,307.143,163.405,255.998,163.405z"/>
<path style="fill:#C08577;" d="M255.998,163.405c33.095,0,59.915,41.45,59.915,92.596c0,51.135-26.82,92.596-59.915,92.596  c-51.135,0-92.596-41.461-92.596-92.596C163.402,204.855,204.863,163.405,255.998,163.405z"/>
<circle style="fill:#554F4E;" cx="256" cy="256" r="35.404"/>
<path d="M256,116.162c-25.028,0-49.555,5.81-72.9,17.267c-4.051,1.988-5.722,6.884-3.735,10.934c1.419,2.893,4.321,4.573,7.34,4.572  c1.208,0,2.436-0.269,3.594-0.838c21.086-10.349,43.191-15.596,65.702-15.596c22.509,0,44.613,5.247,65.697,15.595  c4.051,1.989,8.947,0.317,10.935-3.734s0.316-8.946-3.734-10.935C305.552,121.971,281.026,116.162,256,116.162z"/>
<path d="M256,395.838c25.026,0,49.552-5.81,72.897-17.267c4.05-1.988,5.722-6.884,3.734-10.935  c-1.988-4.051-6.883-5.721-10.935-3.734c-21.085,10.349-43.189,15.595-65.697,15.595c-22.511,0-44.616-5.247-65.702-15.596  c-4.05-1.987-8.946-0.317-10.934,3.735c-1.988,4.05-0.316,8.946,3.735,10.934C206.445,390.028,230.973,395.838,256,395.838z"/>
<path d="M256,299.571c-24.027,0-43.574-19.548-43.574-43.574s19.548-43.574,43.574-43.574s43.574,19.548,43.574,43.574  S280.027,299.571,256,299.571z M256,228.762c-15.017,0-27.234,12.217-27.234,27.234S240.983,283.23,256,283.23  s27.234-12.217,27.234-27.234C283.234,240.98,271.017,228.762,256,228.762z"/>
<path d="M437.986,251.388c-41.17-60.21-109.203-96.156-181.987-96.156c-72.785,0-140.817,35.946-181.987,96.156  c-1.902,2.781-1.902,6.442,0,9.224c41.169,60.21,109.202,96.156,181.987,96.156c72.784,0,140.816-35.946,181.987-96.156  C439.887,257.831,439.887,254.169,437.986,251.388z M256.002,340.424c-22.551,0-43.752-8.781-59.698-24.727  c-32.917-32.917-32.917-86.478,0-119.396c15.946-15.946,37.147-24.727,59.698-24.727c22.551,0,43.752,8.781,59.698,24.727  s24.727,37.147,24.727,59.698s-8.782,43.752-24.727,59.698C299.754,331.643,278.553,340.424,256.002,340.424z M90.749,256  c24.045-33.177,57.1-57.91,94.538-71.765c-0.176,0.174-0.362,0.337-0.537,0.512c-39.288,39.289-39.288,103.216,0,142.504  c0.175,0.175,0.358,0.339,0.535,0.513C147.847,313.909,114.795,289.176,90.749,256z M326.717,327.763  c0.176-0.174,0.362-0.337,0.538-0.512c19.032-19.032,29.514-44.337,29.514-71.252s-10.482-52.221-29.514-71.252  c-0.171-0.171-0.346-0.334-0.519-0.503C364.165,198.1,397.21,222.83,421.252,256C397.206,289.175,364.153,313.908,326.717,327.763z"/>
<g>
</g>
<g>
</g>
<g>
</g>
<g>
</g>
<g>
</g>
<g>
</g>
<g>
</g>
<g>
</g>
<g>
</g>
<g>
</g>
<g>
</g>
<g>
</g>
<g>
</g>
<g>
</g>
<g>
</g>
</svg>
