<?xml version="1.0" encoding="iso-8859-1"?>
<!-- Generator: Adobe Illustrator 19.0.0, SVG Export Plug-In . SVG Version: 6.00 Build 0)  -->
<svg xmlns="http://www.w3.org/2000/svg" xmlns:xlink="http://www.w3.org/1999/xlink" version="1.1" id="Layer_1" x="0px" y="0px" viewBox="0 0 512 512" style="enable-background:new 0 0 512 512;" xml:space="preserve">
<path style="fill:#3891E9;" d="M503.829,8.168l-81.192,27.064c-26.356-16.739-57.487-26.603-90.898-27.041l-0.55,348.236  c95.335-0.977,172.315-78.552,172.315-174.123c0-34.119-9.83-65.936-26.783-92.808L503.829,8.168z"/>
<path style="fill:#68AEF4;" d="M331.74,8.191c76.451,1.573,138.061,78.922,138.061,174.112c0,95.426-61.902,172.91-138.611,174.123  c-0.607,0.011-1.214,0.011-1.82,0.011c-96.178,0-174.134-77.956-174.134-174.134c0-96.168,77.956-174.134,174.134-174.134  C330.156,8.168,330.953,8.168,331.74,8.191z"/>
<path style="fill:#FFD159;" d="M184.287,278.852v224.637c86.702-0.893,158.229-65.078,170.594-148.545L184.287,278.852z"/>
<path style="fill:#FFE08F;" d="M157.119,156.735C72.879,169.012,8.171,241.541,8.171,329.202c0,34.348,9.946,66.364,27.092,93.358  L8.171,503.827l81.408-27.136c26.896,16.983,58.738,26.809,92.89,26.809c0.61,0,1.209,0,1.819-0.011  c69.316-1.089,126.518-64.381,137.02-146.922L157.119,156.735z"/>
<path style="fill:#4CF5CB;" d="M356.766,329.202c0,8.748-0.643,17.343-1.885,25.742c-8.279,1.198-16.733,1.819-25.349,1.819  c-2.757,0-5.499-0.064-8.225-0.191l-137.02-99.508V154.916C279.715,155.896,356.766,233.546,356.766,329.202z"/>
<path style="fill:#D1FDF2;" d="M323.028,329.202c0,9.314-0.588,18.454-1.721,27.365c-92.454-4.292-166.073-80.591-166.073-174.101  c0-8.737,0.643-17.332,1.885-25.731c8.279-1.209,16.743-1.83,25.349-1.83c0.61,0,1.209,0,1.819,0.011  C261.087,156.136,323.028,233.687,323.028,329.202z"/>
<circle cx="279.105" cy="278.636" r="8.17"/>
<circle cx="256" cy="255.531" r="8.17"/>
<circle cx="232.895" cy="232.415" r="8.17"/>
<path d="M485.771,88.18l25.809-77.426c0.978-2.936,0.215-6.172-1.974-8.361c-2.189-2.189-5.425-2.951-8.361-1.974l-77.427,25.809  C395.422,9.058,362.909,0,329.532,0c-89.522,0-164.19,64.804-179.566,149.963c-40.623,7.317-77.755,28.363-105.087,59.715  C15.939,242.876,0.001,285.44,0.001,329.531c0,33.376,9.057,65.89,26.229,94.288L0.42,501.246c-0.978,2.936-0.215,6.172,1.974,8.361  C3.951,511.164,6.039,512,8.172,512c0.864,0,1.736-0.137,2.583-0.419l77.427-25.808c28.396,17.169,60.91,26.226,94.286,26.226  c100.613,0,182.468-81.854,182.468-182.468c0-47.273-18.006-92.099-50.701-126.222c-32.593-34.016-76.401-53.923-123.355-56.055  c-4.518-0.221-8.328,3.283-8.533,7.791c-0.205,4.508,3.283,8.328,7.791,8.533c88.855,4.035,158.457,76.931,158.457,165.953  c0,6.112-0.342,12.146-0.989,18.089c-5.983,0.647-12.04,0.975-18.075,0.975c-91.603,0-166.127-74.524-166.127-166.127  S237.929,16.34,329.532,16.34c31.584,0,62.311,8.903,88.862,25.748c2.074,1.316,4.63,1.629,6.96,0.852l65.557-21.853l-21.853,65.555  c-0.777,2.33-0.464,4.886,0.852,6.96c16.846,26.553,25.749,57.282,25.749,88.864c0,69.783-44.074,132.592-109.673,156.291  c-4.244,1.533-6.441,6.217-4.908,10.46c1.533,4.244,6.215,6.441,10.46,4.908c72.051-26.029,120.461-95.014,120.461-171.659  C511.999,149.093,502.943,116.578,485.771,88.18z M329.532,364.935c5.135,0,10.282-0.241,15.399-0.669  c-16.015,74.984-82.77,131.392-162.463,131.392c-31.585,0-62.312-8.903-88.862-25.747c-2.073-1.316-4.63-1.629-6.96-0.852  l-65.557,21.851l21.853-65.555c0.777-2.33,0.464-4.886-0.852-6.96c-16.845-26.552-25.749-57.281-25.749-88.864  c0-78.305,55.773-146.335,131.38-162.478c-0.427,5.084-0.657,10.223-0.657,15.414C147.064,283.081,228.919,364.935,329.532,364.935z  "/>
<g>
</g>
<g>
</g>
<g>
</g>
<g>
</g>
<g>
</g>
<g>
</g>
<g>
</g>
<g>
</g>
<g>
</g>
<g>
</g>
<g>
</g>
<g>
</g>
<g>
</g>
<g>
</g>
<g>
</g>
</svg>
