<?xml version="1.0" encoding="iso-8859-1"?>
<!-- Generator: Adobe Illustrator 19.0.0, SVG Export Plug-In . SVG Version: 6.00 Build 0)  -->
<svg xmlns="http://www.w3.org/2000/svg" xmlns:xlink="http://www.w3.org/1999/xlink" version="1.1" id="Layer_1" x="0px" y="0px" viewBox="0 0 511.999 511.999" style="enable-background:new 0 0 511.999 511.999;" xml:space="preserve">
<path style="fill:#B4BBCC;" d="M255.999,254.728L33.526,323.65v113.493c0,18.577,15.06,33.637,33.637,33.637h377.674  c18.577,0,33.637-15.06,33.637-33.637V323.65L255.999,254.728z"/>
<path style="fill:#C7CFE2;" d="M444.836,78.003H67.162c-18.577,0-33.637,15.06-33.637,33.637v212.01h444.947V111.64  C478.473,93.063,463.413,78.003,444.836,78.003z"/>
<path style="fill:#3F404D;" d="M255.999,254.728L127.863,323.65v43.452c0,11.485,9.31,20.795,20.795,20.795h214.683  c11.485,0,20.795-9.31,20.795-20.795V323.65L255.999,254.728z"/>
<path style="fill:#515262;" d="M363.341,185.806H148.658c-11.485,0-20.795,9.31-20.795,20.795v117.048h256.273V206.602  C384.136,195.117,374.826,185.806,363.341,185.806z"/>
<path style="fill:#D5DEF2;" d="M127.863,430.54v60.635c0,11.501,9.324,20.824,20.824,20.824h214.624  c11.501,0,20.824-9.324,20.824-20.824V430.54L127.863,430.54L127.863,430.54z"/>
<path style="fill:#515262;" d="M417.592,439.314H94.407c-4.846,0-8.774-3.927-8.774-8.774c0-4.847,3.928-8.774,8.774-8.774h323.184  c4.846,0,8.774,3.927,8.774,8.774C426.365,435.387,422.438,439.314,417.592,439.314z"/>
<path style="fill:#D5DEF2;" d="M384.136,128.254V20.824C384.136,9.323,374.812,0,363.312,0H148.687  c-11.501,0-20.824,9.324-20.824,20.824v107.431C127.863,128.254,384.136,128.254,384.136,128.254z"/>
<path style="fill:#515262;" d="M417.592,137.03H94.407c-4.846,0-8.774-3.927-8.774-8.774c0-4.847,3.928-8.774,8.774-8.774h323.184  c4.846,0,8.774,3.927,8.774,8.774C426.365,133.102,422.438,137.03,417.592,137.03z"/>
<circle style="fill:#A5EB78;" cx="433.325" cy="216.335" r="13.457"/>
<circle style="fill:#FF6465;" cx="433.325" cy="270.431" r="13.457"/>
<g>
</g>
<g>
</g>
<g>
</g>
<g>
</g>
<g>
</g>
<g>
</g>
<g>
</g>
<g>
</g>
<g>
</g>
<g>
</g>
<g>
</g>
<g>
</g>
<g>
</g>
<g>
</g>
<g>
</g>
</svg>
