<?xml version="1.0" encoding="iso-8859-1"?>
<!-- Generator: Adobe Illustrator 19.0.0, SVG Export Plug-In . SVG Version: 6.00 Build 0)  -->
<svg xmlns="http://www.w3.org/2000/svg" xmlns:xlink="http://www.w3.org/1999/xlink" version="1.1" id="Layer_1" x="0px" y="0px" viewBox="0 0 511.999 511.999" style="enable-background:new 0 0 511.999 511.999;" xml:space="preserve">
<path style="fill:#FF6465;" d="M443.07,250.385l-24.343-135.993c-3.464-19.349-18.611-34.496-37.961-37.961L244.772,52.088  c-15.128-2.708-30.623,2.155-41.491,13.023L13.758,254.636c-18.344,18.344-18.344,48.086,0,66.43L174.093,481.4  c18.344,18.344,48.086,18.344,66.43,0l189.524-189.524C440.915,281.01,445.777,265.513,443.07,250.385z M381.07,149.258  c-9.712,9.712-25.458,9.712-35.17,0c-9.712-9.712-9.712-25.458,0-35.17s25.458-9.712,35.17,0S390.782,139.547,381.07,149.258z"/>
<rect x="123.564" y="144.016" transform="matrix(-0.7071 -0.7071 0.7071 -0.7071 186.3694 623.0541)" style="fill:#FFFFFF;" width="197.319" height="257.826"/>
<polygon style="opacity:0.1;enable-background:new    ;" points="243.621,161.958 358.172,276.508 383.145,251.536 243.621,112.013   61.312,294.324 86.284,319.295 "/>
<path style="fill:#515262;" d="M487.943,40.937c-15.538-15.539-36.196-24.096-58.17-24.096s-42.632,8.557-58.17,24.095  c-8.878,8.878-15.288,19.301-19.251,30.409l17.685,3.165c3.148-7.676,7.828-14.866,14.052-21.089  c12.203-12.202,28.427-18.922,45.683-18.922s33.48,6.721,45.683,18.923c25.19,25.188,25.19,66.176,0,91.364  c-12.203,12.203-28.427,18.923-45.683,18.923c-0.746,0-1.488-0.029-2.23-0.054c-16.272-0.549-31.497-7.083-43.132-18.564  c-0.106-0.104-0.217-0.201-0.321-0.306c-10.61-10.61-16.733-24.024-18.404-37.877c-5.985-0.529-12.111,1.122-17.14,4.914  c2.477,15.953,9.651,31.301,21.507,43.819c0.516,0.545,1.017,1.098,1.552,1.632c15.538,15.537,36.196,24.095,58.17,24.095  c0.313,0,0.624-0.02,0.937-0.024c21.621-0.24,41.916-8.756,57.231-24.071C520.018,125.199,520.018,73.011,487.943,40.937z"/>
<g>
</g>
<g>
</g>
<g>
</g>
<g>
</g>
<g>
</g>
<g>
</g>
<g>
</g>
<g>
</g>
<g>
</g>
<g>
</g>
<g>
</g>
<g>
</g>
<g>
</g>
<g>
</g>
<g>
</g>
</svg>
