<?xml version="1.0" encoding="iso-8859-1"?>
<!-- Generator: Adobe Illustrator 19.0.0, SVG Export Plug-In . SVG Version: 6.00 Build 0)  -->
<svg xmlns="http://www.w3.org/2000/svg" xmlns:xlink="http://www.w3.org/1999/xlink" version="1.1" id="Layer_1" x="0px" y="0px" viewBox="0 0 512 512" style="enable-background:new 0 0 512 512;" xml:space="preserve">
<path style="fill:#FF6465;" d="M142.366,74.405l-37.203,208.597L142.366,512h270.979c16.952,0,30.693-13.741,30.693-30.692V107.859  L142.366,74.405z"/>
<path style="fill:#E65A5B;" d="M67.962,74.405v406.903c0,16.951,13.741,30.692,30.693,30.692h43.711V74.405H67.962z"/>
<g>
	<polygon style="fill:#FFFFFF;" points="444.038,107.86 133.472,125.246 91.325,74.404 133.472,23.563 444.038,40.949  "/>
	<path style="fill:#FFFFFF;" d="M142.366,107.859c-18.447,0-33.455-15.007-33.455-33.455s15.008-33.455,33.455-33.455h301.671v66.91   H142.366z"/>
</g>
<path style="fill:#FF8080;" d="M142.366,40.949h301.671V0H142.366c-41.092,0-74.404,33.312-74.404,74.404v0.001  c0,41.092,33.312,74.404,74.404,74.404h301.671V107.86H142.366c-18.448,0-33.455-15.007-33.455-33.455  S123.919,40.949,142.366,40.949z"/>
<g>
</g>
<g>
</g>
<g>
</g>
<g>
</g>
<g>
</g>
<g>
</g>
<g>
</g>
<g>
</g>
<g>
</g>
<g>
</g>
<g>
</g>
<g>
</g>
<g>
</g>
<g>
</g>
<g>
</g>
</svg>
