<?xml version="1.0" encoding="iso-8859-1"?>
<!-- Generator: Adobe Illustrator 19.0.0, SVG Export Plug-In . SVG Version: 6.00 Build 0)  -->
<svg xmlns="http://www.w3.org/2000/svg" xmlns:xlink="http://www.w3.org/1999/xlink" version="1.1" id="Layer_1" x="0px" y="0px" viewBox="0 0 512.001 512.001" style="enable-background:new 0 0 512.001 512.001;" xml:space="preserve">
<path style="fill:#DCE5FA;" d="M472.546,0H39.455C17.665,0,0.001,17.664,0.001,39.454v433.092c0,21.789,17.664,39.454,39.454,39.454  h433.091c21.789,0,39.454-17.664,39.454-39.454V39.454C512.001,17.664,494.337,0,472.546,0z"/>
<path style="opacity:0.1;enable-background:new    ;" d="M61.189,472.546V39.454C61.189,17.664,78.853,0,100.644,0H39.455  C17.665,0,0.001,17.664,0.001,39.454v433.091C0.001,494.336,17.665,512,39.455,512h61.189C78.853,512,61.189,494.336,61.189,472.546  z"/>
<path style="fill:#FF6465;" d="M399.123,208.469h-95.591v-95.591c0-12.068-9.784-21.852-21.853-21.852h-51.356  c-12.069,0-21.853,9.784-21.853,21.852v95.591h-95.593c-12.068,0-21.852,9.784-21.852,21.853v51.356  c0,12.069,9.784,21.853,21.852,21.853h95.591v95.591c0,12.068,9.784,21.852,21.853,21.852h51.356  c12.069,0,21.853-9.784,21.853-21.852V303.53h95.591c12.068,0,21.852-9.784,21.852-21.853v-51.356  C420.976,218.253,411.191,208.469,399.123,208.469z"/>
<g>
</g>
<g>
</g>
<g>
</g>
<g>
</g>
<g>
</g>
<g>
</g>
<g>
</g>
<g>
</g>
<g>
</g>
<g>
</g>
<g>
</g>
<g>
</g>
<g>
</g>
<g>
</g>
<g>
</g>
</svg>
