<?xml version="1.0" encoding="iso-8859-1"?>
<!-- Generator: Adobe Illustrator 19.0.0, SVG Export Plug-In . SVG Version: 6.00 Build 0)  -->
<svg xmlns="http://www.w3.org/2000/svg" xmlns:xlink="http://www.w3.org/1999/xlink" version="1.1" id="Layer_1" x="0px" y="0px" viewBox="0 0 512 512" style="enable-background:new 0 0 512 512;" xml:space="preserve">
<rect x="34.215" y="126.539" style="fill:#FFFFFF;" width="351.463" height="351.463"/>
<path style="fill:#B4BBCC;" d="M47.128,101.767h325.636c25.986,0,47.128,21.141,47.128,47.128v305.879  c0,25.986-21.141,47.128-47.128,47.128H47.128C21.141,501.903,0,480.76,0,454.774V148.895C0,122.909,21.141,101.767,47.128,101.767z   M374.056,148.895c0-0.713-0.58-1.293-1.293-1.293H47.128c-0.713,0-1.293,0.58-1.293,1.293v305.879c0,0.713,0.58,1.293,1.293,1.293  h325.636c0.713,0,1.293-0.58,1.293-1.293L374.056,148.895L374.056,148.895z"/>
<path style="fill:#7DD2F0;" d="M287.002,227.814v53.606c0,8.073-3.781,15.68-10.218,20.554l-71.555,54.19l24.98,35.256H111.279  l39.433-112.202l24.691,34.85l60.034-45.464v-40.79c0-14.239,11.544-25.782,25.782-25.782  C275.458,202.032,287.002,213.575,287.002,227.814z"/>
<path style="opacity:0.1;enable-background:new    ;" d="M261.219,202.032c-14.239,0-25.782,11.544-25.782,25.782v40.79  l-6.662,5.045h58.226v-45.835C287.002,213.575,275.459,202.032,261.219,202.032z"/>
<path style="opacity:0.1;enable-background:new    ;" d="M372.764,101.767H91.275v45.835h281.489c0.713,0,1.293,0.58,1.293,1.293  v124.754h45.835V148.895C419.891,122.909,398.75,101.767,372.764,101.767z"/>
<path style="fill:#C7CFE2;" d="M512,40.349v168.674c0,16.707-13.543,30.25-30.25,30.25H155.901c-16.707,0-30.25-13.543-30.25-30.25  V40.349c0-16.707,13.543-30.25,30.25-30.25h325.848C498.456,10.097,512,23.642,512,40.349z"/>
<g>
</g>
<g>
</g>
<g>
</g>
<g>
</g>
<g>
</g>
<g>
</g>
<g>
</g>
<g>
</g>
<g>
</g>
<g>
</g>
<g>
</g>
<g>
</g>
<g>
</g>
<g>
</g>
<g>
</g>
</svg>
