<?xml version="1.0" encoding="iso-8859-1"?>
<!-- Generator: Adobe Illustrator 19.0.0, SVG Export Plug-In . SVG Version: 6.00 Build 0)  -->
<svg xmlns="http://www.w3.org/2000/svg" xmlns:xlink="http://www.w3.org/1999/xlink" version="1.1" id="Layer_1" x="0px" y="0px" viewBox="0 0 512 512" style="enable-background:new 0 0 512 512;" xml:space="preserve">
<path style="fill:#CCAC68;" d="M140.874,375.715H89.04c-36.573,0-66.221,29.647-66.221,66.221l0,0  c0,36.573,29.647,66.221,66.221,66.221h177.671v-97.646L140.874,375.715z"/>
<path style="fill:#E6C275;" d="M360.768,136.285L150.707,3.843H84.011l0,0c-63.144,0-103.656,67.127-74.229,122.995l143.846,273.09  h-0.023c26.39,48.886-9.012,108.229-64.566,108.229h349.485c55.555,0,90.956-59.342,64.566-108.229L360.768,136.285z"/>
<path style="fill:#FFD782;" d="M84.011,3.843c36.573,0,66.221,29.649,66.221,66.221l0,0c0,36.573-29.649,66.221-66.221,66.221  h276.757c36.573,0,66.221-29.649,66.221-66.221l0,0c0-36.573-29.649-66.221-66.221-66.221C360.768,3.843,84.011,3.843,84.011,3.843z  "/>
<g>
</g>
<g>
</g>
<g>
</g>
<g>
</g>
<g>
</g>
<g>
</g>
<g>
</g>
<g>
</g>
<g>
</g>
<g>
</g>
<g>
</g>
<g>
</g>
<g>
</g>
<g>
</g>
<g>
</g>
</svg>
