<?xml version="1.0" encoding="iso-8859-1"?>
<!-- Generator: Adobe Illustrator 19.0.0, SVG Export Plug-In . SVG Version: 6.00 Build 0)  -->
<svg xmlns="http://www.w3.org/2000/svg" xmlns:xlink="http://www.w3.org/1999/xlink" version="1.1" id="Layer_1" x="0px" y="0px" viewBox="0 0 512 512" style="enable-background:new 0 0 512 512;" xml:space="preserve">
<path style="fill:#FF6465;" d="M430.581,512c-19.401-47.869-57.917-85.948-106.082-104.766l-0.762-0.289H188.26  C139.743,425.66,100.922,463.882,81.419,512H430.581L430.581,512z"/>
<g>
	<path style="fill:#5A4146;" d="M108.225,232.624c0,55.348-22.003,93.733-22.003,93.733s34.052,15.96,106.295,15.96v-105.23   L108.225,232.624z"/>
	<path style="fill:#5A4146;" d="M403.774,232.624c0,55.348,22.003,93.733,22.003,93.733s-34.052,15.96-106.295,15.96v-105.23   L403.774,232.624z"/>
	<path style="fill:#5A4146;" d="M255.999,0L255.999,0c-81.614,0-147.775,66.161-147.775,147.775v67.238h295.549v-67.238   C403.774,66.161,337.613,0,255.999,0z"/>
</g>
<path style="opacity:0.1;enable-background:new    ;" d="M255.999,0c-9.211,0-18.222,0.85-26.966,2.463  c68.736,12.675,120.808,72.909,120.808,145.312v67.238h53.932v-67.238C403.774,66.161,337.613,0,255.999,0z"/>
<path style="fill:#F0C087;" d="M294.409,398.315v-68.184H217.59v68.186c-10.095,2.095-19.897,4.992-29.329,8.63  c8.189,29.731,35.404,51.575,67.739,51.575s59.55-21.845,67.739-51.575C314.305,403.307,304.504,400.411,294.409,398.315z"/>
<g>
	<path style="fill:#E6B273;" d="M129.749,176.207c-20.043,0-36.292,16.249-36.292,36.292l0,0c0,20.043,16.249,36.292,36.292,36.292   h17.649v-72.584L129.749,176.207L129.749,176.207z"/>
	<path style="fill:#E6B273;" d="M382.25,176.207c20.043,0,36.292,16.249,36.292,36.292l0,0c0,20.043-16.249,36.292-36.292,36.292   h-17.649v-72.584L382.25,176.207L382.25,176.207z"/>
</g>
<path style="opacity:0.1;enable-background:new    ;" d="M217.59,387.05c12.304,3.069,25.169,4.708,38.411,4.708  c13.241,0,26.104-1.64,38.41-4.708v-56.92h-76.819v56.92H217.59z"/>
<path style="fill:#F0C087;" d="M379.211,150.766c-131.04-21.154-154.663-94.139-154.663-94.14l0,0  c0,0.002-27.458,89.068-90.48,89.068c-2.905,10.635-4.465,21.825-4.465,33.382v53.927c0,69.807,56.59,126.397,126.397,126.397l0,0  c69.807,0,126.397-56.59,126.397-126.397v-53.927C382.396,169.343,381.294,159.867,379.211,150.766L379.211,150.766z"/>
<g>
	<path style="fill:#5A4146;" d="M255.999,295.605c-14.721,0-27.884-2.907-35.21-7.777c-3.721-2.473-4.732-7.494-2.259-11.215   c2.474-3.72,7.497-4.733,11.216-2.26c3.798,2.525,13.389,5.072,26.253,5.072c12.863,0,22.454-2.547,26.253-5.072   c3.722-2.47,8.742-1.461,11.215,2.262c2.472,3.72,1.46,8.741-2.261,11.215C283.88,292.698,270.719,295.605,255.999,295.605z"/>
	<path style="fill:#5A4146;" d="M224.543,196.622c-1.8,0-3.612-0.599-5.116-1.826c-2.708-2.214-10.078-4.597-19.859-4.597   c-9.78,0-17.149,2.383-19.858,4.597c-3.459,2.827-8.556,2.315-11.384-1.143c-2.828-3.459-2.316-8.556,1.143-11.384   c6.319-5.167,17.571-8.251,30.099-8.251c12.527,0,23.78,3.084,30.1,8.251c3.459,2.828,3.97,7.925,1.143,11.384   C229.212,195.609,226.887,196.622,224.543,196.622z"/>
</g>
<circle style="fill:#353640;" cx="199.571" cy="215.729" r="13.842"/>
<path style="fill:#5A4146;" d="M337.404,196.622c-1.801,0-3.613-0.599-5.116-1.826c-2.707-2.214-10.077-4.597-19.858-4.597  s-17.15,2.383-19.859,4.597c-3.46,2.827-8.556,2.315-11.384-1.143c-2.828-3.459-2.316-8.556,1.143-11.384  c6.32-5.167,17.572-8.251,30.1-8.251c12.528,0,23.78,3.084,30.1,8.251c3.459,2.828,3.97,7.925,1.142,11.383  C342.072,195.609,339.748,196.622,337.404,196.622z"/>
<circle style="fill:#353640;" cx="312.43" cy="215.729" r="13.842"/>
<g>
</g>
<g>
</g>
<g>
</g>
<g>
</g>
<g>
</g>
<g>
</g>
<g>
</g>
<g>
</g>
<g>
</g>
<g>
</g>
<g>
</g>
<g>
</g>
<g>
</g>
<g>
</g>
<g>
</g>
</svg>
