<?xml version="1.0" encoding="iso-8859-1"?>
<!-- Generator: Adobe Illustrator 19.0.0, SVG Export Plug-In . SVG Version: 6.00 Build 0)  -->
<svg xmlns="http://www.w3.org/2000/svg" xmlns:xlink="http://www.w3.org/1999/xlink" version="1.1" id="Layer_1" x="0px" y="0px" viewBox="0 0 511.998 511.998" style="enable-background:new 0 0 511.998 511.998;" xml:space="preserve">
<path style="fill:#6AB2CC;" d="M473.878,27.971C473.878,12.522,461.355,0,445.907,0c-5.812,0-11.209,1.775-15.682,4.81  L153.908,89.546c-15.448,0-27.971,12.522-27.971,27.971v293.621c-10.754,1.279-22.231,4.339-33.657,9.304  c-38.463,16.714-61.709,48.519-51.923,71.038c9.786,22.519,48.899,27.225,87.361,10.511c35.471-15.414,57.978-43.658,53.592-65.62  c0.372-1.818,0.567-3.7,0.567-5.628V188.868l236.059-72.392v205.115c-10.754,1.279-22.231,4.339-33.657,9.305  c-38.463,16.714-61.709,48.519-51.923,71.038s48.899,27.225,87.361,10.511c35.47-15.414,57.978-43.658,53.592-65.62  c0.372-1.818,0.567-3.7,0.567-5.628V27.971H473.878z"/>
<g>
</g>
<g>
</g>
<g>
</g>
<g>
</g>
<g>
</g>
<g>
</g>
<g>
</g>
<g>
</g>
<g>
</g>
<g>
</g>
<g>
</g>
<g>
</g>
<g>
</g>
<g>
</g>
<g>
</g>
</svg>
