<?xml version="1.0" encoding="iso-8859-1"?>
<!-- Generator: Adobe Illustrator 19.0.0, SVG Export Plug-In . SVG Version: 6.00 Build 0)  -->
<svg xmlns="http://www.w3.org/2000/svg" xmlns:xlink="http://www.w3.org/1999/xlink" version="1.1" id="Layer_1" x="0px" y="0px" viewBox="0 0 512 512" style="enable-background:new 0 0 512 512;" xml:space="preserve">
<path style="fill:#6AB2CC;" d="M7.704,281.351C7.704,408.734,110.969,512,238.353,512c72.874,0,137.843-33.807,180.111-86.581  v-50.702L7.704,230.649V281.351z"/>
<path style="fill:#7DD2F0;" d="M238.353,230.649L418.464,86.581C376.195,33.807,311.227,0,238.353,0  C110.969,0,7.704,103.264,7.704,230.649s103.264,230.649,230.649,230.649c72.874,0,137.843-33.807,180.111-86.581L238.353,230.649z"/>
<path style="fill:#E65A5B;" d="M337.905,264.873l133.113,106.474c18.379,0,33.278-47.67,33.278-106.474v-46.899H337.905  L337.905,264.873L337.905,264.873z"/>
<path style="fill:#FF6465;" d="M471.018,324.448L337.905,217.974L471.018,111.5c18.379,0,33.278,47.67,33.278,106.474  S489.396,324.448,471.018,324.448z"/>
<g>
</g>
<g>
</g>
<g>
</g>
<g>
</g>
<g>
</g>
<g>
</g>
<g>
</g>
<g>
</g>
<g>
</g>
<g>
</g>
<g>
</g>
<g>
</g>
<g>
</g>
<g>
</g>
<g>
</g>
</svg>
