<?xml version="1.0" encoding="iso-8859-1"?>
<!-- Generator: Adobe Illustrator 19.0.0, SVG Export Plug-In . SVG Version: 6.00 Build 0)  -->
<svg xmlns="http://www.w3.org/2000/svg" xmlns:xlink="http://www.w3.org/1999/xlink" version="1.1" id="Layer_1" x="0px" y="0px" viewBox="0 0 512 512" style="enable-background:new 0 0 512 512;" xml:space="preserve">
<path style="fill:#7DD2F0;" d="M512,256.001C512,114.615,397.385,0,256.001,0S0,114.615,0,256.001S114.615,512,255.999,512  S512,397.385,512,256.001z"/>
<path style="opacity:0.1;enable-background:new    ;" d="M68.872,256.001c0-129.706,96.466-236.866,221.563-253.688  C279.171,0.798,267.679,0,255.999,0C114.615,0,0,114.615,0,256.001S114.615,512,255.999,512c11.68,0,23.172-0.798,34.436-2.313  C165.338,492.865,68.872,385.705,68.872,256.001z"/>
<polygon style="fill:#FFFFFF;" points="213.144,391.199 213.144,290.091 153.879,290.091 256.001,114.809 358.121,290.091   298.856,290.091 298.856,391.199 "/>
<g>
</g>
<g>
</g>
<g>
</g>
<g>
</g>
<g>
</g>
<g>
</g>
<g>
</g>
<g>
</g>
<g>
</g>
<g>
</g>
<g>
</g>
<g>
</g>
<g>
</g>
<g>
</g>
<g>
</g>
</svg>
