<?xml version="1.0" encoding="iso-8859-1"?>
<!-- Generator: Adobe Illustrator 19.0.0, SVG Export Plug-In . SVG Version: 6.00 Build 0)  -->
<svg xmlns="http://www.w3.org/2000/svg" xmlns:xlink="http://www.w3.org/1999/xlink" version="1.1" id="Layer_1" x="0px" y="0px" viewBox="0 0 512.001 512.001" style="enable-background:new 0 0 512.001 512.001;" xml:space="preserve">
<path style="fill:#6AB2CC;" d="M233.095,126.686V344.69c-22.085-3.386-47.475-1.694-73.188,6.011  C95.1,370.12,52.869,420.25,65.58,462.669s75.551,61.064,140.358,41.645c64.807-19.419,107.039-69.549,94.328-111.968V165.707  c0.585-0.211,1.388-0.437,2.459-0.646c28.632-5.565,58.703,7.847,77.172,29.597c19.338,22.773,28.562,50.896,35.46,79.452  l0.245,1.029c1.452,5.949,6.429,10.68,12.865,11.514c8.353,1.083,16.002-4.807,17.092-13.158c5.043-38.683,5.2-77.706-8.867-114.699  c-12.955-34.065-36.765-63.066-67.499-82.639c-18.964-12.078-40.572-21.501-62.835-25.266c-0.767-0.121-1.446-0.227-2.031-0.32  c-0.885-0.09-1.628-0.165-2.228-0.226c-0.309-0.028-0.582-0.051-0.816-0.072c-0.095-0.017-0.174-0.031-0.238-0.043  c-0.113-0.022-0.17-0.033-0.17-0.033c-0.202-0.039-0.41-0.068-0.613-0.105V33.584C300.265,15.037,285.228,0,266.679,0  c-18.549,0-33.584,15.037-33.584,33.584L233.095,126.686L233.095,126.686z"/>
<g>
</g>
<g>
</g>
<g>
</g>
<g>
</g>
<g>
</g>
<g>
</g>
<g>
</g>
<g>
</g>
<g>
</g>
<g>
</g>
<g>
</g>
<g>
</g>
<g>
</g>
<g>
</g>
<g>
</g>
</svg>
