<?xml version="1.0" encoding="iso-8859-1"?>
<!-- Generator: Adobe Illustrator 19.0.0, SVG Export Plug-In . SVG Version: 6.00 Build 0)  -->
<svg xmlns="http://www.w3.org/2000/svg" xmlns:xlink="http://www.w3.org/1999/xlink" version="1.1" id="Layer_1" x="0px" y="0px" viewBox="0 0 512 512" style="enable-background:new 0 0 512 512;" xml:space="preserve">
<polygon style="fill:#E65A5B;" points="355.609,25.551 199.218,275.634 355.609,344.82 409.661,193.474 "/>
<polygon style="fill:#FF6465;" points="355.609,25.553 355.609,344.82 512,275.634 "/>
<polygon style="fill:#A6E7FF;" points="160.463,102.733 0,174.644 43.011,264.285 111.338,290.69 234.6,227.44 271.801,174.644 "/>
<polygon style="fill:#6AB2CC;" points="111.338,246.556 0,174.644 0,346.399 111.338,418.31 159.477,317.278 "/>
<polygon style="fill:#7DD2F0;" points="271.801,346.399 271.801,174.644 111.338,246.556 111.338,418.31 "/>
<circle style="fill:#FFD782;" cx="309.816" cy="355.558" r="130.891"/>
<path style="opacity:0.1;enable-background:new    ;" d="M202.552,379.187c0-72.292,58.604-130.896,130.896-130.896  c30.123,0,57.863,10.181,79.982,27.281c-23.939-30.967-61.446-50.914-103.615-50.914c-72.292,0-130.896,58.604-130.896,130.896  c0,42.169,19.946,79.676,50.914,103.615C212.733,437.049,202.552,409.309,202.552,379.187z"/>
<g>
</g>
<g>
</g>
<g>
</g>
<g>
</g>
<g>
</g>
<g>
</g>
<g>
</g>
<g>
</g>
<g>
</g>
<g>
</g>
<g>
</g>
<g>
</g>
<g>
</g>
<g>
</g>
<g>
</g>
</svg>
