<?xml version="1.0" encoding="iso-8859-1"?>
<!-- Generator: Adobe Illustrator 19.0.0, SVG Export Plug-In . SVG Version: 6.00 Build 0)  -->
<svg xmlns="http://www.w3.org/2000/svg" xmlns:xlink="http://www.w3.org/1999/xlink" version="1.1" id="Layer_1" x="0px" y="0px" viewBox="0 0 512.001 512.001" style="enable-background:new 0 0 512.001 512.001;" xml:space="preserve">
<g>
	<polygon style="fill:#7DD2F0;" points="168.474,203.429 168.474,308.569 110.141,255.999  "/>
	<polygon style="fill:#7DD2F0;" points="343.527,203.429 343.527,308.569 401.86,255.999  "/>
</g>
<g>
	<path style="fill:#515262;" d="M199.685,381.231H55.353V130.769h144.333V91.165H35.552c-10.936,0-19.801,8.866-19.801,19.802   v290.064c0,10.936,8.865,19.802,19.801,19.802h164.133L199.685,381.231L199.685,381.231z"/>
	<path style="fill:#515262;" d="M476.449,91.165H312.316v39.602h144.333V381.23H312.316v39.601h164.133   c10.936,0,19.801-8.866,19.801-19.802V110.967C496.249,100.031,487.385,91.165,476.449,91.165z"/>
	<rect x="235.92" style="fill:#515262;" width="40.151" height="104.197"/>
	<rect x="235.92" y="407.793" style="fill:#515262;" width="40.151" height="104.209"/>
	<rect x="235.92" y="192.411" style="fill:#515262;" width="40.151" height="127.19"/>
</g>
<g>
</g>
<g>
</g>
<g>
</g>
<g>
</g>
<g>
</g>
<g>
</g>
<g>
</g>
<g>
</g>
<g>
</g>
<g>
</g>
<g>
</g>
<g>
</g>
<g>
</g>
<g>
</g>
<g>
</g>
</svg>
