<?xml version="1.0" encoding="iso-8859-1"?>
<!-- Generator: Adobe Illustrator 19.0.0, SVG Export Plug-In . SVG Version: 6.00 Build 0)  -->
<svg xmlns="http://www.w3.org/2000/svg" xmlns:xlink="http://www.w3.org/1999/xlink" version="1.1" id="Layer_1" x="0px" y="0px" viewBox="0 0 512.001 512.001" style="enable-background:new 0 0 512.001 512.001;" xml:space="preserve">
<path style="fill:#6AB2CC;" d="M142.367,74.405l-37.203,242.197l37.203,195.399h270.979c16.952,0,30.693-13.741,30.693-30.692  V74.405H142.367z"/>
<path style="fill:#5D9CB3;" d="M67.963,74.405v406.903c0,16.951,13.741,30.692,30.693,30.692h43.711V74.405H67.963z"/>
<path style="fill:#FFFFFF;" d="M126.661,20.763L115.5,54.495c-4.137,5.568-6.588,12.458-6.588,19.911s2.452,14.343,6.588,19.909  l11.161,33.732l317.377-20.185v-0.002v-66.91L126.661,20.763z"/>
<path style="fill:#7DD2F0;" d="M142.367,40.949h301.671V0H142.367c-41.092,0-74.404,33.312-74.404,74.404v0.001  c0,41.092,33.312,74.404,74.404,74.404h301.671V107.86H142.367c-18.448,0-33.455-15.007-33.455-33.455S123.92,40.949,142.367,40.949  z"/>
<path style="fill:#FFFFFF;" d="M376.509,235.045c-17.131-17.133-40.818-26.566-66.73-26.566  c-59.104,0.307-113.834,46.803-124.6,105.856l-0.037,0.233c-1.037,7.25-1.519,13.175-1.519,18.642  c0,25.316,9.228,48.486,25.984,65.239c16.943,16.943,40.632,26.275,66.697,26.275c9.747,0,18.845-1.035,27.043-3.075  c3.57-0.799,6.662-3.043,8.497-6.17c1.798-3.066,2.26-6.751,1.28-10.144c-1.696-6.855-8.503-11.314-15.819-9.626  c-7.695,1.846-14.564,2.745-20.961,2.745c-38.952-0.262-66.158-27.092-66.158-65.242c0-5.219,0.344-9.714,1.076-14.107  c7.866-45.567,52.995-84.062,98.507-84.062c38.853,0.262,66.179,27.108,66.449,65.242c0,4.081-0.424,8.444-1.379,14.182  c-1.937,12.102-6.744,24.071-14.301,35.617h-0.111l-1.824,2.735c-1.629,2.443-9.311,10.467-15.791,12.093l7.524-43.118v-0.567  c0.074-0.305,0.126-0.572,0.172-0.799c0.027-0.133,0.042-0.269,0.095-0.428l0.232-0.931c0.627-3.759,0.958-7.635,0.958-11.208  c0-14.271-4.957-27.272-13.885-36.528c-9.088-9.763-22.303-15.362-36.318-15.362c-31.171,0.316-60.111,25.857-65.972,58.187  c-1.005,4.143-1.005,7.868-1.004,11.333c-0.319,13.691,4.612,26.714,13.884,36.67c9.222,9.906,22.097,15.362,36.255,15.362  c10.801,0,21.648-3.133,31.521-8.985c0.367,5.58,2.044,10.339,5.023,14.212c4.733,6.025,11.859,9.362,19.547,9.051  c2.141-0.015,4.382-0.335,6.549-0.645l0.69-0.139c11.422-2.996,21.988-10.29,31.41-21.678l0.331-0.166l0.899-1.306  c10.394-15.118,17.197-31.519,20.203-48.659c1.216-6.376,1.857-12.919,1.857-18.924  C402.783,274.837,393.437,251.653,376.509,235.045z M324.793,314.104l-0.066,0.336c-3.201,19.455-21.661,36.523-39.503,36.523  l-0.37-0.004c-14.544-0.239-23.728-9.977-23.969-25.324c0-2.081,0.218-3.947,0.728-6.244l0.062-0.322  c3.244-19.46,21.653-36.531,39.394-36.531h0.482c14.364,0.235,23.436,9.976,23.677,25.324  C325.229,310.252,325.229,312.142,324.793,314.104z"/>
<g>
</g>
<g>
</g>
<g>
</g>
<g>
</g>
<g>
</g>
<g>
</g>
<g>
</g>
<g>
</g>
<g>
</g>
<g>
</g>
<g>
</g>
<g>
</g>
<g>
</g>
<g>
</g>
<g>
</g>
</svg>
