<?xml version="1.0" encoding="iso-8859-1"?>
<!-- Generator: Adobe Illustrator 19.0.0, SVG Export Plug-In . SVG Version: 6.00 Build 0)  -->
<svg xmlns="http://www.w3.org/2000/svg" xmlns:xlink="http://www.w3.org/1999/xlink" version="1.1" id="Layer_1" x="0px" y="0px" viewBox="0 0 512 512" style="enable-background:new 0 0 512 512;" xml:space="preserve">
<path style="fill:#353640;" d="M286.263,0h-60.525c-21.219,0-38.42,17.201-38.42,38.42v28.941h137.366V38.42  C324.683,17.201,307.482,0,286.263,0z"/>
<path style="opacity:0.1;enable-background:new    ;" d="M260.012,0h-34.274c-21.219,0-38.42,17.201-38.42,38.42v28.941h34.274  V38.42C221.591,17.201,238.793,0,260.012,0z"/>
<path style="fill:#515262;" d="M324.683,41.53H187.317c-28.304,0-51.249,22.946-51.249,51.249v367.971  c0,28.305,22.946,51.249,51.249,51.249h137.366c28.304,0,51.249-22.946,51.249-51.249V92.779  C375.932,64.476,352.987,41.53,324.683,41.53z"/>
<path style="opacity:0.1;enable-background:new    ;" d="M170.342,460.751V92.779c0-28.304,22.946-51.249,51.249-51.249h-34.274  c-28.304,0-51.249,22.946-51.249,51.249v367.971c0,28.305,22.946,51.249,51.249,51.249h34.274  C193.288,512,170.342,489.054,170.342,460.751z"/>
<circle style="fill:#FF6465;" cx="255.995" cy="133.818" r="48.281"/>
<path style="opacity:0.1;enable-background:new    ;" d="M230.569,145.243c0-26.665,21.616-48.281,48.281-48.281  c3.212,0,6.348,0.321,9.384,0.919c-8.548-7.672-19.844-12.343-32.234-12.343c-26.664,0-48.281,21.616-48.281,48.281  c0,23.453,16.725,42.994,38.897,47.361C236.768,172.34,230.569,159.517,230.569,145.243z"/>
<circle style="fill:#FFD782;" cx="255.995" cy="276.765" r="48.281"/>
<circle style="fill:#A5EB78;" cx="255.995" cy="419.712" r="48.281"/>
<path style="opacity:0.1;enable-background:new    ;" d="M230.569,288.19c0-26.665,21.616-48.281,48.281-48.281  c3.212,0,6.348,0.321,9.384,0.919c-8.548-7.672-19.844-12.343-32.234-12.343c-26.664,0-48.281,21.616-48.281,48.281  c0,23.453,16.725,42.994,38.897,47.361C236.768,315.288,230.569,302.465,230.569,288.19z"/>
<path style="opacity:0.1;enable-background:new    ;" d="M230.569,431.137c0-26.665,21.616-48.281,48.281-48.281  c3.212,0,6.348,0.321,9.384,0.919c-8.548-7.672-19.844-12.343-32.234-12.343c-26.664,0-48.281,21.616-48.281,48.281  c0,23.453,16.725,42.994,38.897,47.361C236.768,458.235,230.569,445.412,230.569,431.137z"/>
<g>
</g>
<g>
</g>
<g>
</g>
<g>
</g>
<g>
</g>
<g>
</g>
<g>
</g>
<g>
</g>
<g>
</g>
<g>
</g>
<g>
</g>
<g>
</g>
<g>
</g>
<g>
</g>
<g>
</g>
</svg>
