<?xml version="1.0" encoding="iso-8859-1"?>
<!-- Generator: Adobe Illustrator 19.0.0, SVG Export Plug-In . SVG Version: 6.00 Build 0)  -->
<svg xmlns="http://www.w3.org/2000/svg" xmlns:xlink="http://www.w3.org/1999/xlink" version="1.1" id="Layer_1" x="0px" y="0px" viewBox="0 0 512 512" style="enable-background:new 0 0 512 512;" xml:space="preserve">
<path style="fill:#6AB2CC;" d="M142.366,74.405v74.404l-33.455,141.952L142.366,512h270.979c16.952,0,30.693-13.741,30.693-30.692  V107.86L142.366,74.405z"/>
<path style="fill:#5D9CB3;" d="M67.962,74.405v406.903c0,16.951,13.741,30.692,30.693,30.692h43.711V74.405H67.962z"/>
<path style="fill:#FFFFFF;" d="M126.661,20.763l-11.161,33.731c-4.137,5.568-6.588,12.458-6.588,19.911s2.452,14.343,6.588,19.909  l11.161,33.732l317.377-20.185v-0.002v-66.91L126.661,20.763z"/>
<path style="fill:#7DD2F0;" d="M142.366,40.949h301.671V0H142.366c-41.092,0-74.404,33.312-74.404,74.404v0.001  c0,41.092,33.312,74.404,74.404,74.404h301.671V107.86H142.366c-18.448,0-33.455-15.007-33.455-33.455  S123.919,40.949,142.366,40.949z"/>
<path style="fill:#FFFFFF;" d="M273.604,255.892v126.649c-12.831-1.968-27.581-0.984-42.519,3.492  c-37.648,11.282-62.184,40.404-54.799,65.047c7.385,24.643,43.891,35.475,81.54,24.193c37.65-11.282,62.184-40.404,54.799-65.048  V278.561c0.339-0.123,0.804-0.254,1.424-0.374c16.722-3.256,34.199,4.577,44.948,17.323c10.871,12.891,17.211,29.629,20.491,46.028  l0.142,0.598c0.844,3.456,3.735,6.204,7.474,6.69c4.854,0.629,9.299-2.794,9.93-7.647c2.944-22.642,3.026-45.488-5.333-67.103  c-7.814-20.209-22.147-37.141-40.569-48.497c-10.58-6.523-22.62-11.775-34.967-13.717c-0.446-0.07-0.84-0.132-1.179-0.186  c-0.514-0.051-0.947-0.096-1.294-0.131c-0.18-0.016-0.338-0.029-0.474-0.042c-0.055-0.009-0.101-0.018-0.138-0.025  c-0.065-0.013-0.098-0.02-0.098-0.02c-0.117-0.023-0.238-0.04-0.356-0.061v-9.591c0-10.775-8.735-19.512-19.512-19.512  c-10.775,0-19.51,8.735-19.51,19.512v54.088H273.604z"/>
<g>
</g>
<g>
</g>
<g>
</g>
<g>
</g>
<g>
</g>
<g>
</g>
<g>
</g>
<g>
</g>
<g>
</g>
<g>
</g>
<g>
</g>
<g>
</g>
<g>
</g>
<g>
</g>
<g>
</g>
</svg>
