<?xml version="1.0" encoding="iso-8859-1"?>
<!-- Generator: Adobe Illustrator 19.0.0, SVG Export Plug-In . SVG Version: 6.00 Build 0)  -->
<svg xmlns="http://www.w3.org/2000/svg" xmlns:xlink="http://www.w3.org/1999/xlink" version="1.1" id="Layer_1" x="0px" y="0px" viewBox="0 0 511.999 511.999" style="enable-background:new 0 0 511.999 511.999;" xml:space="preserve">
<path style="fill:#515262;" d="M508.638,418.393L239.647,149.402l-71.56,71.56l268.992,268.993l0.001,0.001  c8.749,8.749,31.861-0.178,51.622-19.938S517.388,427.144,508.638,418.393L508.638,418.393z"/>
<g>
	<path style="fill:#FFD782;" d="M287.417,71.219l4.873-4.873c3.915-3.916,3.915-10.262,0-14.177c-3.915-3.913-10.262-3.913-14.175,0   l-4.873,4.873l-4.873-4.873c-3.915-3.913-10.262-3.913-14.175,0c-3.915,3.916-3.915,10.262,0,14.177l4.873,4.873l-4.873,4.873   c-3.915,3.916-3.915,10.262,0,14.177c1.957,1.957,4.521,2.935,7.088,2.935c2.565,0,5.131-0.978,7.088-2.935l4.873-4.873   l4.873,4.873c1.958,1.957,4.523,2.935,7.088,2.935c2.565,0,5.131-0.978,7.088-2.935c3.915-3.916,3.915-10.262,0-14.177   L287.417,71.219z"/>
	<path style="fill:#FFD782;" d="M41.034,163.813c-3.915-3.913-10.262-3.913-14.177,0l-4.873,4.873l-4.873-4.873   c-3.915-3.913-10.262-3.913-14.175,0c-3.915,3.916-3.915,10.262,0,14.177l4.873,4.873l-4.873,4.873   c-3.915,3.916-3.915,10.262,0,14.177c1.957,1.957,4.523,2.935,7.088,2.935s5.131-0.978,7.088-2.935l4.873-4.873l4.873,4.873   c1.958,1.957,4.523,2.935,7.089,2.935c2.565,0,5.131-0.978,7.088-2.935c3.915-3.916,3.915-10.262,0-14.177l-4.873-4.873   l4.873-4.873C44.948,174.075,44.948,167.729,41.034,163.813z"/>
	<path style="fill:#FFD782;" d="M157.787,286.867c-3.915-3.913-10.262-3.913-14.177,0l-4.873,4.873l-4.873-4.873   c-3.915-3.913-10.262-3.913-14.177,0c-3.915,3.916-3.915,10.262,0,14.177l4.873,4.873l-4.873,4.873   c-3.915,3.916-3.915,10.262,0,14.177c1.958,1.957,4.523,2.935,7.089,2.935c2.565,0,5.131-0.978,7.088-2.935l4.873-4.873   l4.873,4.873c1.957,1.957,4.523,2.935,7.088,2.935s5.131-0.978,7.089-2.935c3.915-3.916,3.915-10.262,0-14.177l-4.873-4.873   l4.873-4.873C161.702,297.128,161.702,290.782,157.787,286.867z"/>
</g>
<path style="fill:#D9D9D9;" d="M40.725,93.602l127.36,127.36c8.749,8.749,31.861-0.178,51.622-19.938s28.687-42.873,19.938-51.622  L112.286,22.042L40.725,93.602z"/>
<path style="opacity:0.1;enable-background:new    ;" d="M465.431,461.603L465.431,461.603L69.078,65.25L40.726,93.602  l396.352,396.353l0.001,0.001c8.749,8.749,31.861-0.178,51.622-19.938c5.037-5.037,9.366-10.291,12.881-15.47  C486.444,464.823,471.951,468.123,465.431,461.603z"/>
<ellipse transform="matrix(-0.7071 -0.7071 0.7071 -0.7071 89.7053 152.8025)" style="fill:#E6E6E6;" cx="76.499" cy="57.823" rx="22.404" ry="50.6"/>
<g>
</g>
<g>
</g>
<g>
</g>
<g>
</g>
<g>
</g>
<g>
</g>
<g>
</g>
<g>
</g>
<g>
</g>
<g>
</g>
<g>
</g>
<g>
</g>
<g>
</g>
<g>
</g>
<g>
</g>
</svg>
