<?xml version="1.0" encoding="iso-8859-1"?>
<!-- Generator: Adobe Illustrator 19.0.0, SVG Export Plug-In . SVG Version: 6.00 Build 0)  -->
<svg xmlns="http://www.w3.org/2000/svg" xmlns:xlink="http://www.w3.org/1999/xlink" version="1.1" id="Layer_1" x="0px" y="0px" viewBox="0 0 512 512" style="enable-background:new 0 0 512 512;" xml:space="preserve">
<path style="fill:#515262;" d="M340.28,295.632c50.302,64.35,116.59,79.641,153.315,130.644  c36.724,51.004,7.145,74.464,7.145,74.464s-23.46,29.579-74.464-7.145S359.982,390.581,295.632,340.28L340.28,295.632z"/>
<path style="opacity:0.1;enable-background:new    ;" d="M460.511,459.36c-51.003-36.724-66.294-103.013-130.644-153.315  l-34.235,34.235c64.35,50.302,79.641,116.591,130.644,153.315c51.004,36.724,74.464,7.145,74.464,7.145s9.44-7.49,11.031-23.203  C499.672,478.763,482.699,475.336,460.511,459.36z"/>
<ellipse transform="matrix(-0.7071 -0.7071 0.7071 -0.7071 299.0423 721.9669)" style="fill:#B4BBCC;" cx="299.045" cy="299.05" rx="41.395" ry="53.777"/>
<path style="opacity:0.1;enable-background:new    ;" d="M286.701,311.397c-12.697-12.697-12.997-34.006-2.37-52.741  c-5.119,2.904-10.046,6.617-14.552,11.123c-21,21-24.919,51.129-8.753,67.294c16.166,16.166,46.295,12.247,67.295-8.753  c4.506-4.506,8.22-9.434,11.123-14.552C320.707,324.394,299.398,324.094,286.701,311.397z"/>
<circle style="fill:#7DD2F0;" cx="176.982" cy="176.982" r="176.982"/>
<circle style="fill:#E6E6E6;" cx="176.982" cy="176.982" r="125.142"/>
<ellipse style="fill:#FFFFFF;" cx="176.982" cy="176.982" rx="80.757" ry="60.894"/>
<circle style="fill:#515262;" cx="176.982" cy="176.982" r="28.275"/>
<path style="opacity:0.1;enable-background:new    ;" d="M122.734,265.479c-48.872-48.872-48.872-128.107,0-176.979  c20.071-20.071,45.265-31.891,71.372-35.476C156.644,47.879,117.3,59.7,88.498,88.5c-48.872,48.872-48.87,128.107,0,176.979  c28.8,28.8,68.145,40.621,105.606,35.476C167.999,297.37,142.806,285.549,122.734,265.479z"/>
<g>
</g>
<g>
</g>
<g>
</g>
<g>
</g>
<g>
</g>
<g>
</g>
<g>
</g>
<g>
</g>
<g>
</g>
<g>
</g>
<g>
</g>
<g>
</g>
<g>
</g>
<g>
</g>
<g>
</g>
</svg>
