<?xml version="1.0" encoding="iso-8859-1"?>
<!-- Generator: Adobe Illustrator 19.0.0, SVG Export Plug-In . SVG Version: 6.00 Build 0)  -->
<svg xmlns="http://www.w3.org/2000/svg" xmlns:xlink="http://www.w3.org/1999/xlink" version="1.1" id="Layer_1" x="0px" y="0px" viewBox="0 0 511.999 511.999" style="enable-background:new 0 0 511.999 511.999;" xml:space="preserve">
<path style="fill:#FFD782;" d="M213.296,148.223c0,0,59.176,59.176,115.196,115.196s57.333,34.191,125.188,102.046  s63.424,80.176,50.8,92.8l-17.358,17.358c-12.624,12.624-24.945,17.055-92.8-50.8s-46.027-69.169-102.046-125.188  S177.081,184.44,177.081,184.44L213.296,148.223z"/>
<g>
	<path style="fill:#515262;" d="M43.249,189.273l0.211,0.211l6.102,45.88l45.88,6.102l0.211,0.211c0,0,8.657-35.279,45.846-72.47   l-25.78-25.78C78.528,180.616,43.249,189.273,43.249,189.273z"/>
	<path style="fill:#515262;" d="M208.203,107.916c0,0,44.414-39.041,118.78-59.138c6.436-1.74,6.596-10.825,0.205-12.727   c-31.835-9.476-93.724-18.349-139.467,34.385L208.203,107.916z"/>
</g>
<path style="opacity:0.1;enable-background:new    ;" d="M213.296,148.223l-36.215,36.215c0,0,16.484,16.484,40.284,40.284l0,0  l36.215-36.215C229.78,164.708,213.296,148.223,213.296,148.223z"/>
<path style="fill:#515262;" d="M127.212,157.714l43.34,43.34c6.39,6.39,16.752,6.39,23.142,0l36.215-36.215  c6.39-6.39,6.39-16.752,0-23.142l-43.34-43.34L127.212,157.714z"/>
<path style="opacity:0.1;enable-background:new    ;" d="M69.167,189.978l25.78,25.78c2.544,2.544,5.306,4.739,8.218,6.606  c6.586-13.706,18.326-33.15,38.333-53.157l-25.78-25.78c-20.007,20.007-39.451,31.748-53.157,38.333  C64.429,184.672,66.622,187.434,69.167,189.978z"/>
<path style="opacity:0.1;enable-background:new    ;" d="M253.414,78.081c-2.248-4.318-5.18-8.371-8.801-11.991l-23.116-23.115  c-11.742,6.361-23.192,15.26-33.778,27.463l20.482,37.478C208.203,107.916,224.333,93.744,253.414,78.081z"/>
<g>
	<path style="fill:#65667A;" d="M173.202,63.981l-80.364,80.364c-6.065,6.065-6.065,15.897,0,21.962l25.78,25.78   c6.065,6.065,15.897,6.065,21.962,0l80.364-80.364c6.065-6.065,6.065-15.897,0-21.962l-25.78-25.78   C189.099,57.916,179.266,57.916,173.202,63.981z"/>
	<path style="fill:#65667A;" d="M25.677,189.483L3.683,211.478c-4.911,4.911-4.911,12.872,0,17.783l51.982,51.982   c4.911,4.911,12.872,4.911,17.783,0l21.995-21.995c4.911-4.911,4.911-12.872,0-17.783l-51.982-51.982   C38.549,184.573,30.588,184.573,25.677,189.483z"/>
</g>
<g>
</g>
<g>
</g>
<g>
</g>
<g>
</g>
<g>
</g>
<g>
</g>
<g>
</g>
<g>
</g>
<g>
</g>
<g>
</g>
<g>
</g>
<g>
</g>
<g>
</g>
<g>
</g>
<g>
</g>
</svg>
