<?xml version="1.0" encoding="iso-8859-1"?>
<!-- Generator: Adobe Illustrator 19.0.0, SVG Export Plug-In . SVG Version: 6.00 Build 0)  -->
<svg xmlns="http://www.w3.org/2000/svg" xmlns:xlink="http://www.w3.org/1999/xlink" version="1.1" id="Layer_1" x="0px" y="0px" viewBox="0 0 512 512" style="enable-background:new 0 0 512 512;" xml:space="preserve">
<rect x="40.484" y="116.513" style="fill:#FFFFFF;" width="346.834" height="369.018"/>
<path style="fill:#B4BBCC;" d="M363.105,512H57.226c-25.986,0-47.128-21.141-47.128-47.128V139.236  c0-25.986,21.141-47.128,47.128-47.128h305.879c25.986,0,47.128,21.141,47.128,47.128v325.636  C410.233,490.859,389.091,512,363.105,512z M57.226,137.944c-0.713,0-1.293,0.58-1.293,1.293v325.636  c0,0.713,0.58,1.293,1.293,1.293h305.879c0.713,0,1.293-0.58,1.293-1.293V139.236c0-0.713-0.58-1.293-1.293-1.293H57.226z"/>
<path style="fill:#7DD2F0;" d="M284.186,224.997H230.58c-8.073,0-15.68,3.781-20.554,10.218l-54.19,71.555l-35.256-24.98v118.929  l112.202-39.433l-34.85-24.691l45.464-60.034h40.79c14.239,0,25.782-11.544,25.782-25.782S298.425,224.997,284.186,224.997z"/>
<path style="opacity:0.1;enable-background:new    ;" d="M284.186,224.997h-45.835v58.227l5.045-6.662h40.79  c14.239,0,25.782-11.544,25.782-25.782S298.425,224.997,284.186,224.997z"/>
<path style="opacity:0.1;enable-background:new    ;" d="M363.105,92.109H238.351v45.835h124.754c0.713,0,1.293,0.58,1.293,1.293  v281.489h45.835V139.236C410.233,113.25,389.091,92.109,363.105,92.109z"/>
<path style="fill:#C7CFE2;" d="M471.651,0H302.977c-16.707,0-30.25,13.543-30.25,30.25v325.848c0,16.707,13.543,30.25,30.25,30.25  h168.674c16.707,0,30.25-13.543,30.25-30.25V30.25C501.903,13.543,488.358,0,471.651,0z"/>
<g>
</g>
<g>
</g>
<g>
</g>
<g>
</g>
<g>
</g>
<g>
</g>
<g>
</g>
<g>
</g>
<g>
</g>
<g>
</g>
<g>
</g>
<g>
</g>
<g>
</g>
<g>
</g>
<g>
</g>
</svg>
