<?xml version="1.0" encoding="iso-8859-1"?>
<!-- Generator: Adobe Illustrator 19.0.0, SVG Export Plug-In . SVG Version: 6.00 Build 0)  -->
<svg xmlns="http://www.w3.org/2000/svg" xmlns:xlink="http://www.w3.org/1999/xlink" version="1.1" id="Layer_1" x="0px" y="0px" viewBox="0 0 512 512" style="enable-background:new 0 0 512 512;" xml:space="preserve">
<path style="fill:#FFD782;" d="M299.36,299.616l-86.978-86.978L3.838,421.184l-3.804,68.713c-0.69,12.464,9.606,22.76,22.07,22.07  l68.712-3.806l33.209-33.21v-33.993h33.993l37.889-37.889v-33.993h33.993L299.36,299.616z"/>
<path style="fill:#E6C275;" d="M53.305,469.23c-2.697,0-5.393-1.028-7.451-3.086c-4.115-4.115-4.115-10.787,0-14.9l175.342-175.341  c4.118-4.115,10.788-4.115,14.901,0c4.115,4.115,4.115,10.786,0,14.9L60.755,466.145C58.697,468.202,55.999,469.23,53.305,469.23z"/>
<path style="opacity:0.1;enable-background:new    ;" d="M198.844,313.154c14.89,14.89,31.247,27.764,48.56,38.417l51.956-51.956  l-86.978-86.978l-52.014,52.014C171.024,281.91,183.912,298.222,198.844,313.154z"/>
<path style="fill:#FF6465;" d="M228.645,283.353c-73.592-73.592-82.559-179.921-20.415-242.064s168.472-53.177,242.064,20.415  s82.561,179.92,20.415,242.064S302.238,356.945,228.645,283.353z"/>
<path style="fill:#E65A5B;" d="M258.448,253.552c-56.881-56.881-65.849-137.029-20.415-182.462s125.581-36.466,182.462,20.415  s65.849,137.029,20.415,182.462S315.329,310.433,258.448,253.552z"/>
<path style="opacity:0.1;enable-background:new    ;" d="M266.13,99.187c41.616-41.616,112.345-37.559,167.653,7.127  c-4.099-5.073-8.509-10.029-13.289-14.809C363.613,34.624,283.466,25.657,238.033,71.09s-36.466,125.58,20.415,182.462  c4.779,4.779,9.734,9.191,14.809,13.289C228.571,211.532,224.514,140.803,266.13,99.187z"/>
<polygon style="fill:#FFFFFF;" points="397.602,114.396 379.806,166.878 412.949,211.291 357.537,210.583 325.54,255.829   309.091,202.909 256.171,186.46 301.417,154.463 300.708,99.049 345.121,132.193 "/>
<g>
</g>
<g>
</g>
<g>
</g>
<g>
</g>
<g>
</g>
<g>
</g>
<g>
</g>
<g>
</g>
<g>
</g>
<g>
</g>
<g>
</g>
<g>
</g>
<g>
</g>
<g>
</g>
<g>
</g>
</svg>
