<?xml version="1.0" encoding="iso-8859-1"?>
<!-- Generator: Adobe Illustrator 19.0.0, SVG Export Plug-In . SVG Version: 6.00 Build 0)  -->
<svg xmlns="http://www.w3.org/2000/svg" xmlns:xlink="http://www.w3.org/1999/xlink" version="1.1" id="Layer_1" x="0px" y="0px" viewBox="0 0 512 512" style="enable-background:new 0 0 512 512;" xml:space="preserve">
<polygon style="fill:#B4BBCC;" points="201.188,0 201.188,376.57 458.014,376.57 458.014,100.289 396.07,61.944 357.725,0 "/>
<polygon style="opacity:0.1;enable-background:new    ;" points="357.725,0 325.012,0 325.012,133.002 458.014,133.002   458.014,100.289 396.07,61.944 "/>
<g>
	<polygon style="fill:#C7CFE2;" points="357.725,0 357.725,100.289 458.014,100.289 458.014,49.209 408.805,0  "/>
	<polygon style="fill:#C7CFE2;" points="53.986,119.949 53.986,512 321.37,512 321.37,224.36 256.879,184.44 216.958,119.949  "/>
</g>
<polygon style="opacity:0.1;enable-background:new    ;" points="216.958,119.949 184.245,119.949 184.245,257.074 321.37,257.074   321.37,224.36 256.879,184.44 "/>
<polygon style="fill:#DCE5FA;" points="216.958,119.949 216.958,224.36 321.37,224.36 321.37,171.181 270.138,119.949 "/>
<g>
	<path style="fill:#515262;" d="M269.164,286.891H106.191c-4.517,0-8.178-3.662-8.178-8.178c0-4.517,3.662-8.178,8.178-8.178   h162.972c4.517,0,8.178,3.662,8.178,8.178C277.343,283.229,273.681,286.891,269.164,286.891z"/>
	<path style="fill:#515262;" d="M269.164,335.058H106.191c-4.517,0-8.178-3.662-8.178-8.178c0-4.517,3.662-8.178,8.178-8.178   h162.972c4.517,0,8.178,3.662,8.178,8.178C277.342,331.396,273.681,335.058,269.164,335.058z"/>
	<path style="fill:#515262;" d="M269.164,383.224H106.191c-4.517,0-8.178-3.662-8.178-8.178s3.662-8.178,8.178-8.178h162.972   c4.517,0,8.178,3.662,8.178,8.178S273.681,383.224,269.164,383.224z"/>
	<path style="fill:#515262;" d="M269.164,469.688h-81.486c-4.517,0-8.178-3.662-8.178-8.178c0-4.517,3.662-8.178,8.178-8.178h81.486   c4.517,0,8.178,3.662,8.178,8.178C277.343,466.027,273.681,469.688,269.164,469.688z"/>
</g>
<g>
</g>
<g>
</g>
<g>
</g>
<g>
</g>
<g>
</g>
<g>
</g>
<g>
</g>
<g>
</g>
<g>
</g>
<g>
</g>
<g>
</g>
<g>
</g>
<g>
</g>
<g>
</g>
<g>
</g>
</svg>
