<?xml version="1.0" encoding="iso-8859-1"?>
<!-- Generator: Adobe Illustrator 19.0.0, SVG Export Plug-In . SVG Version: 6.00 Build 0)  -->
<svg xmlns="http://www.w3.org/2000/svg" xmlns:xlink="http://www.w3.org/1999/xlink" version="1.1" id="Layer_1" x="0px" y="0px" viewBox="0 0 512 512" style="enable-background:new 0 0 512 512;" xml:space="preserve">
<path style="fill:#515262;" d="M371.485,0H140.515c-20.643,0-37.376,16.735-37.376,37.377v437.246  c0,20.643,16.734,37.376,37.376,37.376h230.971c20.643,0,37.376-16.734,37.376-37.376V37.377C408.862,16.735,392.128,0,371.485,0z"/>
<rect x="146.866" y="71.585" style="fill:#A6E7FF;" width="218.266" height="342.52"/>
<circle style="fill:#353640;" cx="255.999" cy="35.36" r="8.574"/>
<circle style="fill:#E6E6E6;" cx="255.999" cy="463.579" r="21.723"/>
<path style="opacity:0.1;enable-background:new    ;" d="M179.235,474.624V37.377C179.235,16.735,195.969,0,216.611,0h-76.096  c-20.643,0-37.376,16.735-37.376,37.377v437.246c0,20.643,16.734,37.376,37.376,37.376h76.096  C195.969,511.999,179.235,495.266,179.235,474.624z"/>
<g>
</g>
<g>
</g>
<g>
</g>
<g>
</g>
<g>
</g>
<g>
</g>
<g>
</g>
<g>
</g>
<g>
</g>
<g>
</g>
<g>
</g>
<g>
</g>
<g>
</g>
<g>
</g>
<g>
</g>
</svg>
