<?xml version="1.0" encoding="iso-8859-1"?>
<!-- Generator: Adobe Illustrator 19.0.0, SVG Export Plug-In . SVG Version: 6.00 Build 0)  -->
<svg xmlns="http://www.w3.org/2000/svg" xmlns:xlink="http://www.w3.org/1999/xlink" version="1.1" id="Layer_1" x="0px" y="0px" viewBox="0 0 512.001 512.001" style="enable-background:new 0 0 512.001 512.001;" xml:space="preserve">
<polygon style="fill:#515262;" points="429.801,147.789 82.199,147.789 41.907,198.561 41.907,284.486 470.094,284.486   470.094,198.561 "/>
<path style="fill:#B4BBCC;" d="M478.027,147.789h-48.226v76.864c0,21.842-17.707,39.549-39.549,39.549H121.749  c-21.842,0-39.549-17.707-39.549-39.549v-76.864H33.975C15.211,147.789,0,162.999,0,181.763V365.73  c0,18.764,15.211,33.975,33.975,33.975h444.052c18.764,0,33.974-15.211,33.974-33.975V181.763  C512,162.999,496.789,147.789,478.027,147.789z"/>
<rect x="99.155" y="308.685" style="opacity:0.1;enable-background:new    ;" width="313.697" height="91.017"/>
<rect x="132.507" y="308.685" style="fill:#DCE5FA;" width="246.993" height="195.943"/>
<g>
	<path style="fill:#515262;" d="M293.211,465.033H164.885c-4.605,0-8.338-3.733-8.338-8.338c0-4.605,3.733-8.338,8.338-8.338   h128.326c4.605,0,8.338,3.733,8.338,8.338C301.549,461.3,297.816,465.033,293.211,465.033z"/>
	<path style="fill:#515262;" d="M412.755,317.018H99.246c-4.605,0-8.338-3.732-8.338-8.338c0-4.606,3.733-8.338,8.338-8.338h313.508   c4.605,0,8.338,3.732,8.338,8.338C421.093,313.286,417.359,317.018,412.755,317.018z"/>
	<path style="fill:#515262;" d="M348.798,364.954H164.885c-4.605,0-8.338-3.732-8.338-8.338c0-4.606,3.733-8.338,8.338-8.338   h183.913c4.605,0,8.338,3.732,8.338,8.338C357.136,361.222,353.403,364.954,348.798,364.954z"/>
	<path style="fill:#515262;" d="M348.798,414.993H164.885c-4.605,0-8.338-3.732-8.338-8.338c0-4.606,3.733-8.338,8.338-8.338   h183.913c4.605,0,8.338,3.732,8.338,8.338C357.136,411.261,353.403,414.993,348.798,414.993z"/>
</g>
<circle style="fill:#FF6465;" cx="470.096" cy="198.557" r="11.351"/>
<circle style="fill:#A5EB78;" cx="470.096" cy="240.769" r="11.351"/>
<rect x="132.507" y="7.374" style="fill:#DCE5FA;" width="246.993" height="198.622"/>
<g>
</g>
<g>
</g>
<g>
</g>
<g>
</g>
<g>
</g>
<g>
</g>
<g>
</g>
<g>
</g>
<g>
</g>
<g>
</g>
<g>
</g>
<g>
</g>
<g>
</g>
<g>
</g>
<g>
</g>
</svg>
