<?xml version="1.0" encoding="iso-8859-1"?>
<!-- Generator: Adobe Illustrator 19.0.0, SVG Export Plug-In . SVG Version: 6.00 Build 0)  -->
<svg xmlns="http://www.w3.org/2000/svg" xmlns:xlink="http://www.w3.org/1999/xlink" version="1.1" id="Layer_1" x="0px" y="0px" viewBox="0 0 512 512" style="enable-background:new 0 0 512 512;" xml:space="preserve">
<polygon style="fill:#A6E7FF;" points="512,437.844 206.699,164.877 164.876,206.698 437.844,512 "/>
<polygon style="opacity:0.1;enable-background:new    ;" points="219.232,267.493 230.676,230.677 267.493,219.233 206.698,164.877   164.876,206.698 "/>
<path style="fill:#FFD782;" d="M220.281,24.207c0.253-19.772-22.277-31.251-38.124-19.425l-48.161,35.941  c-6.293,4.696-14.495,5.994-21.931,3.473l-56.91-19.299c-18.727-6.351-36.607,11.53-30.257,30.257l19.299,56.91  c2.521,7.436,1.223,15.638-3.473,21.931L4.783,182.156c-11.827,15.848-0.348,38.377,19.425,38.124l60.089-0.767  c7.852-0.101,15.25,3.669,19.784,10.08l34.698,49.063c11.417,16.145,36.393,12.19,42.262-6.694l17.838-57.384  c2.33-7.5,8.201-13.371,15.701-15.701l57.384-17.839c18.884-5.869,22.839-30.845,6.694-42.262l-49.063-34.698  c-6.411-4.534-10.18-11.933-10.08-19.784L220.281,24.207z"/>
<g>
</g>
<g>
</g>
<g>
</g>
<g>
</g>
<g>
</g>
<g>
</g>
<g>
</g>
<g>
</g>
<g>
</g>
<g>
</g>
<g>
</g>
<g>
</g>
<g>
</g>
<g>
</g>
<g>
</g>
</svg>
