<?xml version="1.0" encoding="iso-8859-1"?>
<!-- Generator: Adobe Illustrator 19.0.0, SVG Export Plug-In . SVG Version: 6.00 Build 0)  -->
<svg xmlns="http://www.w3.org/2000/svg" xmlns:xlink="http://www.w3.org/1999/xlink" version="1.1" id="Layer_1" x="0px" y="0px" viewBox="0 0 512 512" style="enable-background:new 0 0 512 512;" xml:space="preserve">
<path style="fill:#A6E7FF;" d="M256.001,512C397.385,512,512,397.385,512,255.999S397.385,0,256.001,0S0,114.615,0,255.999  C0,397.385,114.615,512,256.001,512z"/>
<path style="fill:#FFD782;" d="M302.631,266.376l-57.007-57.007L108.938,346.055l-2.494,45.036  c-0.452,8.169,6.296,14.918,14.465,14.465l45.036-2.494l21.766-21.766v-22.28h22.28l24.833-24.833v-22.28h22.28L302.631,266.376z"/>
<path style="opacity:0.1;enable-background:new    ;" d="M231.932,280.068c9.742,9.742,20.414,18.213,31.704,25.302l38.994-38.994  l-57.007-57.007l-39.051,39.051C213.586,259.535,222.04,270.176,231.932,280.068z"/>
<path style="fill:#FF6465;" d="M256.282,255.717c-48.234-48.234-54.112-117.924-13.381-158.654s110.421-34.854,158.654,13.381  s54.112,117.924,13.381,158.655S304.517,303.952,256.282,255.717z"/>
<path style="fill:#E65A5B;" d="M275.815,236.185c-37.282-37.282-43.159-89.812-13.381-119.59s82.308-23.901,119.59,13.381  s43.159,89.812,13.381,119.59C365.627,279.344,313.097,273.467,275.815,236.185z"/>
<ellipse transform="matrix(0.7071 -0.7071 0.7071 0.7071 -24.0026 289.9769)" style="fill:#FFFFFF;" cx="338.032" cy="173.962" rx="28.697" ry="44.163"/>
<path style="opacity:0.1;enable-background:new    ;" d="M318.285,154.215c9.934-9.934,29.179-7.209,45.435,5.543  c-1.637-2.086-3.43-4.125-5.392-6.087c-17.247-17.247-40.314-22.142-51.522-10.935s-6.312,34.275,10.935,51.522  c1.962,1.962,4.001,3.755,6.087,5.392C311.075,183.394,308.352,164.149,318.285,154.215z"/>
<g>
</g>
<g>
</g>
<g>
</g>
<g>
</g>
<g>
</g>
<g>
</g>
<g>
</g>
<g>
</g>
<g>
</g>
<g>
</g>
<g>
</g>
<g>
</g>
<g>
</g>
<g>
</g>
<g>
</g>
</svg>
