<?xml version="1.0" encoding="iso-8859-1"?>
<!-- Generator: Adobe Illustrator 19.0.0, SVG Export Plug-In . SVG Version: 6.00 Build 0)  -->
<svg xmlns="http://www.w3.org/2000/svg" xmlns:xlink="http://www.w3.org/1999/xlink" version="1.1" id="Layer_1" x="0px" y="0px" viewBox="0 0 512 512" style="enable-background:new 0 0 512 512;" xml:space="preserve">
<path style="fill:#515262;" d="M224.768,405.81c-60.448,0-109.627-49.178-109.627-109.627L71.416,0H8.951v296.183  C8.951,415.185,105.766,512,224.768,512h62.465L224.768,405.81z"/>
<g style="opacity:0.1;">
	<path d="M224.768,405.81c-60.448,0-109.627-49.178-109.627-109.627L71.416,0H8.951v296.183C8.951,415.185,105.766,512,224.768,512   h62.465L224.768,405.81z"/>
</g>
<path style="fill:#515262;" d="M287.232,512c-119.001,0-215.816-96.815-215.816-215.817V0h106.19v296.183  c0,60.448,49.178,109.627,109.627,109.627s109.627-49.178,109.627-109.627V0h106.19v296.183  C503.049,415.185,406.234,512,287.232,512z"/>
<g>
</g>
<g>
</g>
<g>
</g>
<g>
</g>
<g>
</g>
<g>
</g>
<g>
</g>
<g>
</g>
<g>
</g>
<g>
</g>
<g>
</g>
<g>
</g>
<g>
</g>
<g>
</g>
<g>
</g>
</svg>
