<?xml version="1.0" encoding="iso-8859-1"?>
<!-- Generator: Adobe Illustrator 19.0.0, SVG Export Plug-In . SVG Version: 6.00 Build 0)  -->
<svg xmlns="http://www.w3.org/2000/svg" xmlns:xlink="http://www.w3.org/1999/xlink" version="1.1" id="Layer_1" x="0px" y="0px" viewBox="0 0 512 512" style="enable-background:new 0 0 512 512;" xml:space="preserve">
<path style="fill:#FF6465;" d="M397.238,94.446H114.761c-18.929,0-34.273,15.345-34.273,34.272V383.28  c0,18.929,15.345,34.272,34.273,34.272h282.477c18.929,0,34.273-15.344,34.273-34.272V128.719  C431.511,109.79,416.167,94.446,397.238,94.446z"/>
<path style="fill:#515262;" d="M125.98,196.322c-3.523,0-6.387-2.865-6.387-6.386v-59.359c0-3.522,2.865-6.385,6.387-6.385h265.728  c3.522,0,6.386,2.864,6.386,6.385v59.359c0,3.522-2.865,6.386-6.386,6.386H125.98z"/>
<g>
	<rect x="119.59" y="228.43" style="fill:#FFFFFF;" width="117.194" height="55.127"/>
	<rect x="119.59" y="321.945" style="fill:#FFFFFF;" width="117.194" height="55.127"/>
	<rect x="274.513" y="228.43" style="fill:#FFFFFF;" width="117.194" height="55.127"/>
	<rect x="274.513" y="321.945" style="fill:#FFFFFF;" width="117.194" height="55.127"/>
</g>
<g>
	<polygon style="fill:#515262;" points="0,305.857 0,224.734 53.828,265.295  "/>
	<polygon style="fill:#515262;" points="512,305.857 512,224.734 458.172,265.295  "/>
</g>
<path style="opacity:0.1;enable-background:new    ;" d="M166.826,383.281V128.719c0-18.929,15.344-34.272,34.273-34.272h-86.338  c-18.929,0-34.273,15.345-34.273,34.272v254.564c0,18.929,15.345,34.272,34.273,34.272H201.1  C182.171,417.553,166.826,402.21,166.826,383.281z"/>
<g>
</g>
<g>
</g>
<g>
</g>
<g>
</g>
<g>
</g>
<g>
</g>
<g>
</g>
<g>
</g>
<g>
</g>
<g>
</g>
<g>
</g>
<g>
</g>
<g>
</g>
<g>
</g>
<g>
</g>
</svg>
