<?xml version="1.0" encoding="iso-8859-1"?>
<!-- Generator: Adobe Illustrator 19.0.0, SVG Export Plug-In . SVG Version: 6.00 Build 0)  -->
<svg xmlns="http://www.w3.org/2000/svg" xmlns:xlink="http://www.w3.org/1999/xlink" version="1.1" id="Layer_1" x="0px" y="0px" viewBox="0 0 512 512" style="enable-background:new 0 0 512 512;" xml:space="preserve">
<path style="fill:#A5EB78;" d="M512,256.001C512,114.615,397.385,0,255.999,0S0,114.615,0,256.001  C0,397.385,114.615,512,255.999,512S512,397.385,512,256.001z"/>
<path style="fill:#FFFFFF;" d="M158.815,392.039l93.111-48.308c2.554-1.325,5.594-1.325,8.148,0l93.111,48.308  c7.261,3.767,15.306-3.494,12.302-11.102L264.227,124.533c-2.947-7.462-13.508-7.462-16.456,0L146.513,380.937  C143.509,388.545,151.555,395.806,158.815,392.039z"/>
<path style="opacity:0.1;enable-background:new    ;" d="M68.872,256.001c0-129.706,96.466-236.866,221.564-253.688  C279.172,0.798,267.68,0,256.001,0C114.615,0,0,114.615,0,256.001S114.615,512,256.001,512c11.68,0,23.171-0.798,34.436-2.313  C165.338,492.865,68.872,385.705,68.872,256.001z"/>
<g>
</g>
<g>
</g>
<g>
</g>
<g>
</g>
<g>
</g>
<g>
</g>
<g>
</g>
<g>
</g>
<g>
</g>
<g>
</g>
<g>
</g>
<g>
</g>
<g>
</g>
<g>
</g>
<g>
</g>
</svg>
