<?xml version="1.0" encoding="iso-8859-1"?>
<!-- Generator: Adobe Illustrator 19.0.0, SVG Export Plug-In . SVG Version: 6.00 Build 0)  -->
<svg xmlns="http://www.w3.org/2000/svg" xmlns:xlink="http://www.w3.org/1999/xlink" version="1.1" id="Layer_1" x="0px" y="0px" viewBox="0 0 512 512" style="enable-background:new 0 0 512 512;" xml:space="preserve">
<g>
	<polygon style="fill:#6AB2CC;" points="256,315.307 128.665,172.78 0,172.78 255.999,477.922 256,477.923  "/>
	<polygon style="fill:#6AB2CC;" points="512,172.78 383.335,172.78 383.335,172.781 383.335,172.78 256,315.307 256,477.923    256,477.923 256,477.923  "/>
</g>
<g>
	<polygon style="fill:#7DD2F0;" points="128.665,172.78 256,477.923 383.335,172.78  "/>
	<polygon style="fill:#7DD2F0;" points="192.715,34.077 82.632,34.077 0,172.78 128.664,172.78 128.665,172.78 256,103.461  "/>
	<polygon style="fill:#7DD2F0;" points="429.368,34.077 319.285,34.077 319.285,34.077 256,103.461 383.335,172.78 383.335,172.78    512,172.78  "/>
</g>
<polygon style="fill:#6AB2CC;" points="192.715,34.077 128.665,172.78 383.335,172.78 319.285,34.077 "/>
<g>
</g>
<g>
</g>
<g>
</g>
<g>
</g>
<g>
</g>
<g>
</g>
<g>
</g>
<g>
</g>
<g>
</g>
<g>
</g>
<g>
</g>
<g>
</g>
<g>
</g>
<g>
</g>
<g>
</g>
</svg>
