<?xml version="1.0" encoding="iso-8859-1"?>
<!-- Generator: Adobe Illustrator 19.0.0, SVG Export Plug-In . SVG Version: 6.00 Build 0)  -->
<svg xmlns="http://www.w3.org/2000/svg" xmlns:xlink="http://www.w3.org/1999/xlink" version="1.1" id="Layer_1" x="0px" y="0px" viewBox="0 0 512 512" style="enable-background:new 0 0 512 512;" xml:space="preserve">
<path style="fill:#7DD2F0;" d="M510.977,21.204c0-11.226-9.101-20.327-20.327-20.327H21.35c-11.226,0-20.327,9.101-20.327,20.327  v470.469C1.023,502.899,10.124,512,21.35,512h469.3c11.226,0,20.327-9.101,20.327-20.327V21.204z"/>
<path style="opacity:0.1;enable-background:new    ;" d="M59.504,490.796V20.327C59.504,9.101,68.605,0,79.831,0H21.35  C10.124,0,1.023,9.101,1.023,20.327v470.469c0,11.226,9.101,20.327,20.327,20.327h58.481  C68.605,511.123,59.504,502.022,59.504,490.796z"/>
<g>
	<path style="fill:#FFFFFF;" d="M312.661,323.467l-0.202-0.261c-5.121-6.145-13.129-9.814-21.419-9.814   c-5.663,0-11.12,1.729-15.364,4.866l-0.142,0.109c-16.492,13.192-36.098,19.881-58.277,19.881   c-24.079,0-47.243-9.272-65.151-26.035c-16.741-16.369-26.341-39.257-26.341-62.797c0-23.432,9.109-45.145,26.342-62.796   c17.972-16.789,41.105-26.036,65.15-26.036c22.229,0,42.367,6.864,58.316,19.913c4.301,3.366,9.844,5.219,15.607,5.219   c8.27,0,16.248-3.799,21.339-10.162l0.144-0.189c8.303-11.531,6.281-27.668-4.604-36.738l-0.123-0.098   c-25.767-20.041-57.124-30.635-90.704-30.635c-79.098,0.395-143.767,63.87-144.16,141.546   c0.392,78.023,65.073,141.499,144.183,141.499c33.556,0,64.914-10.593,90.712-30.659   C318.924,351.605,321.031,335.091,312.661,323.467z"/>
	<path style="fill:#FFFFFF;" d="M393.236,233.3v5.567h11.93c11.93,0,21.872,9.544,21.872,21.872c0,11.93-9.942,21.872-21.872,21.872   h-11.93v140.376c0,11.93-9.544,21.872-21.872,21.872c-12.328,0-21.872-9.942-21.872-21.872V282.611h-10.339   c-12.328,0-22.27-9.942-22.27-21.872c0-12.328,9.942-21.872,22.27-21.872h10.339V233.3c0-14.714,1.591-27.438,7.556-38.97   c5.567-11.93,16.702-21.077,28.631-24.656c7.953-2.386,15.509-3.181,23.86-3.181c11.93,0,21.872,9.942,21.872,21.872   c0,12.328-9.942,22.27-21.872,22.27c-5.17,0-8.749,0.398-10.339,1.193c-1.591,0.398-1.988,0.795-2.386,1.193   C396.418,213.02,393.236,218.587,393.236,233.3z"/>
</g>
<g>
</g>
<g>
</g>
<g>
</g>
<g>
</g>
<g>
</g>
<g>
</g>
<g>
</g>
<g>
</g>
<g>
</g>
<g>
</g>
<g>
</g>
<g>
</g>
<g>
</g>
<g>
</g>
<g>
</g>
</svg>
