<?xml version="1.0" encoding="iso-8859-1"?>
<!-- Generator: Adobe Illustrator 19.0.0, SVG Export Plug-In . SVG Version: 6.00 Build 0)  -->
<svg xmlns="http://www.w3.org/2000/svg" xmlns:xlink="http://www.w3.org/1999/xlink" version="1.1" id="Layer_1" x="0px" y="0px" viewBox="0 0 511.999 511.999" style="enable-background:new 0 0 511.999 511.999;" xml:space="preserve">
<rect x="66.098" y="224.458" style="fill:#FFFFFF;" width="379.811" height="222.638"/>
<path style="fill:#C7CFE2;" d="M489.808,34.777H22.192C9.935,34.777,0,44.712,0,56.968v167.91c0,12.256,9.935,22.192,22.192,22.192  h18.576v207.961c0,12.256,9.935,22.192,22.192,22.192H449.04c12.256,0,22.192-9.935,22.192-22.192V247.07h18.576  c12.256,0,22.192-9.935,22.192-22.192V56.968C512,44.712,502.064,34.777,489.808,34.777z M233.808,247.07v70.694H85.151V247.07  H233.808z M85.151,362.148h148.658v70.692H85.151V362.148z M278.192,432.84v-70.692h148.658v70.692H278.192z M426.848,317.765  H278.192v-70.694h148.658v70.694H426.848z"/>
<g>
	<polygon style="fill:#7DD2F0;" points="467.617,202.687 449.04,202.687 278.192,202.687 278.192,79.16 467.617,79.16  "/>
	<polygon style="fill:#7DD2F0;" points="44.383,79.16 233.808,79.16 233.808,202.687 62.959,202.687 44.383,202.687  "/>
</g>
<rect x="44.383" y="79.158" style="opacity:0.1;enable-background:new    ;" width="189.428" height="33.288"/>
<rect x="278.195" y="79.158" style="opacity:0.1;enable-background:new    ;" width="189.428" height="33.288"/>
<g>
</g>
<g>
</g>
<g>
</g>
<g>
</g>
<g>
</g>
<g>
</g>
<g>
</g>
<g>
</g>
<g>
</g>
<g>
</g>
<g>
</g>
<g>
</g>
<g>
</g>
<g>
</g>
<g>
</g>
</svg>
