<?xml version="1.0" encoding="iso-8859-1"?>
<!-- Generator: Adobe Illustrator 19.0.0, SVG Export Plug-In . SVG Version: 6.00 Build 0)  -->
<svg xmlns="http://www.w3.org/2000/svg" xmlns:xlink="http://www.w3.org/1999/xlink" version="1.1" id="Layer_1" x="0px" y="0px" viewBox="0 0 512 512" style="enable-background:new 0 0 512 512;" xml:space="preserve">
<path style="fill:#D6AB78;" d="M199.699,341.503c-43.613,0-40.169,113.622-80.339,113.622S97.553,341.503,97.553,341.503  l64.271-51.647L199.699,341.503z"/>
<polygon style="fill:#515262;" points="382.647,341.502 512,341.502 512,56.877 382.647,56.877 338.228,199.189 "/>
<path style="fill:#F0C087;" d="M0,305.923c0,19.65,15.929,35.579,35.579,35.579h258.23l44.418-142.312L293.81,56.877H71.648  c-19.65,0-35.579,15.928-35.579,35.577s15.929,35.579,35.579,35.579H59.625c-19.65,0-35.579,15.928-35.579,35.577  s15.929,35.579,35.579,35.579H47.602c-19.65,0-35.579,15.928-35.579,35.577s15.929,35.579,35.579,35.579H35.579  C15.929,270.345,0,286.274,0,305.923z"/>
<rect x="293.806" y="56.875" style="fill:#D5DEF2;" width="88.832" height="284.632"/>
<circle style="fill:#515262;" cx="338.222" cy="104.806" r="16.863"/>
<g>
</g>
<g>
</g>
<g>
</g>
<g>
</g>
<g>
</g>
<g>
</g>
<g>
</g>
<g>
</g>
<g>
</g>
<g>
</g>
<g>
</g>
<g>
</g>
<g>
</g>
<g>
</g>
<g>
</g>
</svg>
