<?xml version="1.0" encoding="iso-8859-1"?>
<!-- Generator: Adobe Illustrator 19.0.0, SVG Export Plug-In . SVG Version: 6.00 Build 0)  -->
<svg xmlns="http://www.w3.org/2000/svg" xmlns:xlink="http://www.w3.org/1999/xlink" version="1.1" id="Layer_1" x="0px" y="0px" viewBox="0 0 512 512" style="enable-background:new 0 0 512 512;" xml:space="preserve">
<path style="fill:#6C994E;" d="M314.412,113.127H197.588c-10.886,0-19.711-8.825-19.711-19.711v-38.72  C177.877,24.536,202.413,0,232.573,0h46.854c30.159,0,54.697,24.536,54.697,54.695v38.719  C334.123,104.302,325.298,113.127,314.412,113.127z M217.299,73.705h77.401V54.695c0-8.422-6.852-15.273-15.274-15.273h-46.854  c-8.422,0-15.273,6.852-15.273,15.273L217.299,73.705L217.299,73.705z"/>
<path style="fill:#7EB35B;" d="M345.472,72.19H166.528c-31.038,0-56.198,25.16-56.198,56.198v22.857h291.341v-22.857  C401.67,97.35,376.51,72.19,345.472,72.19z"/>
<path style="opacity:0.1;enable-background:new    ;" d="M211.582,72.19h-45.054c-31.038,0-56.198,25.16-56.198,56.198v22.857  h45.054v-22.857C155.384,97.35,180.544,72.19,211.582,72.19z"/>
<path style="fill:#7EB35B;" d="M97.295,160.597l28.644,313.576c1.958,21.425,19.924,37.826,41.438,37.826h177.244  c21.514,0,39.482-16.401,41.438-37.826l28.644-313.576H97.295z"/>
<path style="opacity:0.1;enable-background:new    ;" d="M170.993,474.174l-28.644-313.576H97.295l28.644,313.576  C127.897,495.599,145.863,512,167.377,512h45.054C190.917,512,172.949,495.599,170.993,474.174z"/>
<path style="fill:#6C994E;" d="M401.67,119.558H110.33c-20.567,0-37.239,16.672-37.239,37.239v26.133h365.818v-26.133  C438.909,136.23,422.237,119.558,401.67,119.558z"/>
<path style="opacity:0.1;enable-background:new    ;" d="M155.384,119.558H110.33c-20.567,0-37.239,16.672-37.239,37.239v26.133  h45.054v-26.133C118.145,136.23,134.817,119.558,155.384,119.558z"/>
<g>
</g>
<g>
</g>
<g>
</g>
<g>
</g>
<g>
</g>
<g>
</g>
<g>
</g>
<g>
</g>
<g>
</g>
<g>
</g>
<g>
</g>
<g>
</g>
<g>
</g>
<g>
</g>
<g>
</g>
</svg>
