<?xml version="1.0" encoding="iso-8859-1"?>
<!-- Generator: Adobe Illustrator 19.0.0, SVG Export Plug-In . SVG Version: 6.00 Build 0)  -->
<svg xmlns="http://www.w3.org/2000/svg" xmlns:xlink="http://www.w3.org/1999/xlink" version="1.1" id="Layer_1" x="0px" y="0px" viewBox="0 0 512 512" style="enable-background:new 0 0 512 512;" xml:space="preserve">
<g>
	<path style="fill:#B4BBCC;" d="M206.964,204.557l-58.638,58.638l25.84,25.84l58.638-58.638c7.136-7.136,7.136-18.704,0-25.84l0,0   C225.669,197.421,214.1,197.421,206.964,204.557z"/>
	<path style="fill:#B4BBCC;" d="M307.443,305.036l-58.638,58.638l-25.84-25.84l58.638-58.638c7.136-7.136,18.704-7.136,25.84,0l0,0   C314.579,286.331,314.579,297.9,307.443,305.036z"/>
</g>
<path style="fill:#515262;" d="M59.7,320.593c-4.768,4.768-7.347,11.3-7.123,18.038l1.805,54.259  c0.224,6.74-2.354,13.27-7.123,18.038L0,458.188L53.812,512l47.26-47.26c4.768-4.768,11.3-7.347,18.038-7.123l54.259,1.805  c6.74,0.224,13.27-2.354,18.038-7.123l73.013-73.013L132.714,247.58L59.7,320.593z"/>
<path style="opacity:0.1;enable-background:new    ;" d="M78.462,416.971l-1.805-54.259c-0.224-6.74,2.354-13.27,7.123-18.038  l73.013-73.013l-24.081-24.08L59.7,320.593c-4.768,4.768-7.347,11.3-7.123,18.038l1.805,54.259c0.224,6.74-2.354,13.27-7.123,18.038  L0,458.188l24.081,24.081l47.26-47.26C76.108,430.241,78.687,423.71,78.462,416.971z"/>
<path style="fill:#515262;" d="M320.593,59.7c4.768-4.768,11.3-7.347,18.038-7.123l54.259,1.805  c6.74,0.224,13.27-2.354,18.038-7.123L458.188,0L512,53.812l-47.26,47.26c-4.768,4.768-7.347,11.3-7.123,18.038l1.805,54.259  c0.224,6.74-2.354,13.27-7.123,18.038l-73.013,73.013L247.58,132.714L320.593,59.7z"/>
<path style="opacity:0.1;enable-background:new    ;" d="M362.712,76.657l54.259,1.805c6.74,0.224,13.27-2.354,18.038-7.123  l47.26-47.26L458.188,0l-47.26,47.26c-4.768,4.768-11.3,7.347-18.038,7.123l-54.259-1.805c-6.74-0.224-13.27,2.354-18.038,7.123  l-73.013,73.013l24.081,24.081l73.013-73.013C349.441,79.013,355.973,76.434,362.712,76.657z"/>
<rect x="227.023" y="311.099" transform="matrix(-0.7071 0.7071 -0.7071 -0.7071 672.0568 380.3648)" style="opacity:0.1;enable-background:new    ;" width="60.459" height="36.541"/>
<rect x="152.392" y="236.462" transform="matrix(-0.7071 0.7071 -0.7071 -0.7071 491.8773 305.7218)" style="opacity:0.1;enable-background:new    ;" width="60.459" height="36.541"/>
<rect x="172.167" y="205.419" transform="matrix(-0.7071 0.7071 -0.7071 -0.7071 560.6045 394.6615)" style="fill:#C7CFE2;" width="52.795" height="216.033"/>
<rect x="107.825" y="232.062" transform="matrix(-0.7071 0.7071 -0.7071 -0.7071 405.266 330.3131)" style="opacity:0.1;enable-background:new    ;" width="52.795" height="34.055"/>
<rect x="287.044" y="90.542" transform="matrix(0.7071 -0.7071 0.7071 0.7071 -48.597 279.7931)" style="fill:#C7CFE2;" width="52.795" height="216.033"/>
<rect x="222.701" y="117.21" transform="matrix(-0.7071 0.7071 -0.7071 -0.7071 520.1577 53.0185)" style="opacity:0.1;enable-background:new    ;" width="52.795" height="34.055"/>
<g>
</g>
<g>
</g>
<g>
</g>
<g>
</g>
<g>
</g>
<g>
</g>
<g>
</g>
<g>
</g>
<g>
</g>
<g>
</g>
<g>
</g>
<g>
</g>
<g>
</g>
<g>
</g>
<g>
</g>
</svg>
