<?xml version="1.0" encoding="iso-8859-1"?>
<!-- Generator: Adobe Illustrator 19.0.0, SVG Export Plug-In . SVG Version: 6.00 Build 0)  -->
<svg xmlns="http://www.w3.org/2000/svg" xmlns:xlink="http://www.w3.org/1999/xlink" version="1.1" id="Layer_1" x="0px" y="0px" viewBox="0 0 512.001 512.001" style="enable-background:new 0 0 512.001 512.001;" xml:space="preserve">
<path style="fill:#515262;" d="M382.249,24.447l38.562,66.744l66.744,38.562l0,0c31.936-49.705,31.688-82.544,4.464-109.769  C464.795-7.24,431.955-7.49,382.249,24.447L382.249,24.447z"/>
<path style="fill:#C7CFE2;" d="M189.044,407.666l0.147-0.163l-27.044-57.65l-57.65-27.044l-0.087,0.076  c-25.698,24.052-70.653,35.303-70.653,35.303c0,64.844-50.628,97.858-27.882,132.633l16.351-0.328l-1.047,15.63  c34.775,22.746,67.789-27.882,132.633-27.882C153.812,478.242,165.042,433.377,189.044,407.666z"/>
<path style="fill:#515262;" d="M130.886,287.786l-0.084,0.114l31.346,61.953l61.953,31.346l1.348-1.014  c50.276-37.927,144.221-111.855,204.258-177.837c11.555-12.7,21.824-24.591,30.863-35.767l0,0l-39.759-75.391L345.42,51.43l0,0  c-11.176,9.039-23.068,19.308-35.767,30.863C243.128,142.827,168.525,237.828,130.886,287.786z"/>
<g>
	<path style="fill:#353640;" d="M190.936,405.684c0,0,12.854-9.183,33.166-24.484L130.803,287.9   c-15.301,20.312-24.484,33.166-24.484,33.166c-0.59,0.59-1.205,1.166-1.819,1.743l84.694,84.694   C189.769,406.888,190.344,406.275,190.936,405.684z"/>
	<path style="fill:#353640;" d="M382.249,24.447c-11.351,7.293-23.586,16.273-36.829,26.985c19.906,13.409,41.869,31.818,62.6,52.55   s39.14,42.694,52.55,62.6c10.711-13.244,19.691-25.479,26.985-36.829c-13.626-18.488-30.312-37.763-48.928-56.378   C420.012,54.757,400.737,38.071,382.249,24.447z"/>
</g>
<path style="fill:#515262;" d="M104.832,436.561c8.116-8.116,8.116-21.276,0-29.391s-21.276-8.116-29.391,0  c-5.31,5.31-7.122,12.772-5.486,19.575L5.876,490.822c1.818,2.78,4.093,5.571,6.912,8.39c2.819,2.819,5.611,5.095,8.39,6.912  l64.078-64.078C92.06,443.684,99.523,441.871,104.832,436.561z"/>
<path style="opacity:0.1;enable-background:new    ;" d="M161.409,318.506l0.084-0.114  c37.639-49.959,112.242-144.959,178.768-205.492c12.7-11.555,24.591-21.824,35.767-30.863l0,0  c13.243-10.711,25.479-19.691,36.829-26.985h0.001c39.596-25.441,68.483-30.437,92.361-17.661  c-3.261-6.096-7.663-11.87-13.199-17.407C464.796-7.24,431.957-7.49,382.252,24.447h-0.001  C370.9,31.74,358.665,40.72,345.421,51.431l0,0c-11.176,9.039-23.068,19.308-35.767,30.863  c-66.526,60.533-141.129,155.535-178.768,205.492l-0.084,0.114c-15.301,20.312-24.484,33.166-24.484,33.166  c-0.59,0.59-1.205,1.166-1.819,1.743l30.606,30.608c0.615-0.577,1.228-1.153,1.819-1.743  C136.924,351.672,146.108,338.818,161.409,318.506z"/>
<g>
</g>
<g>
</g>
<g>
</g>
<g>
</g>
<g>
</g>
<g>
</g>
<g>
</g>
<g>
</g>
<g>
</g>
<g>
</g>
<g>
</g>
<g>
</g>
<g>
</g>
<g>
</g>
<g>
</g>
</svg>
