<?xml version="1.0" encoding="iso-8859-1"?>
<!-- Generator: Adobe Illustrator 19.0.0, SVG Export Plug-In . SVG Version: 6.00 Build 0)  -->
<svg xmlns="http://www.w3.org/2000/svg" xmlns:xlink="http://www.w3.org/1999/xlink" version="1.1" id="Layer_1" x="0px" y="0px" viewBox="0 0 512 512" style="enable-background:new 0 0 512 512;" xml:space="preserve">
<path style="fill:#6AB2CC;" d="M357.396,61.992H67.946c-14.06,0-25.457,11.396-25.457,25.456v399.095  c0,14.06,11.397,25.457,25.457,25.457h289.451c14.06,0,25.457-11.397,25.457-25.457V87.448  C382.853,73.389,371.456,61.992,357.396,61.992z"/>
<rect x="198.058" y="129.46" style="fill:#E6E6E6;" width="271.453" height="382.539"/>
<g>
	<path style="fill:#515262;" d="M426.704,195.31H240.861c-4.652,0-8.423-3.771-8.423-8.423c0-4.652,3.771-8.423,8.423-8.423h185.844   c4.652,0,8.423,3.771,8.423,8.423C435.128,191.539,431.356,195.31,426.704,195.31z"/>
	<path style="fill:#515262;" d="M426.704,246.47H240.861c-4.652,0-8.423-3.771-8.423-8.423c0-4.652,3.771-8.423,8.423-8.423h185.844   c4.652,0,8.423,3.771,8.423,8.423C435.128,242.699,431.356,246.47,426.704,246.47z"/>
	<path style="fill:#515262;" d="M426.704,297.629H240.861c-4.652,0-8.423-3.771-8.423-8.423s3.771-8.423,8.423-8.423h185.844   c4.652,0,8.423,3.771,8.423,8.423S431.356,297.629,426.704,297.629z"/>
	<path style="fill:#515262;" d="M426.704,348.789H240.861c-4.652,0-8.423-3.771-8.423-8.423s3.771-8.423,8.423-8.423h185.844   c4.652,0,8.423,3.771,8.423,8.423S431.356,348.789,426.704,348.789z"/>
	<path style="fill:#515262;" d="M426.704,399.947H240.861c-4.652,0-8.423-3.771-8.423-8.423s3.771-8.423,8.423-8.423h185.844   c4.652,0,8.423,3.771,8.423,8.423S431.356,399.947,426.704,399.947z"/>
	<path style="fill:#515262;" d="M426.704,451.107H240.861c-4.652,0-8.423-3.771-8.423-8.423s3.771-8.423,8.423-8.423h185.844   c4.652,0,8.423,3.771,8.423,8.423S431.356,451.107,426.704,451.107z"/>
</g>
<path style="opacity:0.1;enable-background:new    ;" d="M70.799,68.626v2.957c0,28.474,23.165,51.639,51.638,51.639h180.469  c28.474,0,51.638-23.165,51.638-51.639v-2.957c0-2.238-0.116-4.451-0.328-6.634H71.128C70.914,64.176,70.799,66.388,70.799,68.626z"/>
<path style="fill:#7DD2F0;" d="M286.677,34.454H138.664c-18.873,0-34.173,15.3-34.173,34.173v2.957  c0,9.911,8.034,17.946,17.945,17.946h180.469c9.91,0,17.945-8.034,17.945-17.946v-2.957C320.85,49.754,305.55,34.454,286.677,34.454  z"/>
<path style="fill:#E6E6E6;" d="M212.671,0L212.671,0c-20.758,0-37.587,16.827-37.587,37.587v31.322h75.172V37.587  C250.256,16.827,233.429,0,212.671,0z"/>
<circle style="fill:#515262;" cx="212.67" cy="30.324" r="10.887"/>
<g>
</g>
<g>
</g>
<g>
</g>
<g>
</g>
<g>
</g>
<g>
</g>
<g>
</g>
<g>
</g>
<g>
</g>
<g>
</g>
<g>
</g>
<g>
</g>
<g>
</g>
<g>
</g>
<g>
</g>
</svg>
