<?xml version="1.0" encoding="iso-8859-1"?>
<!-- Generator: Adobe Illustrator 19.0.0, SVG Export Plug-In . SVG Version: 6.00 Build 0)  -->
<svg xmlns="http://www.w3.org/2000/svg" xmlns:xlink="http://www.w3.org/1999/xlink" version="1.1" id="Layer_1" x="0px" y="0px" viewBox="0 0 511.999 511.999" style="enable-background:new 0 0 511.999 511.999;" xml:space="preserve">
<path style="fill:#E6C275;" d="M371.518,462.404c0,27.391-56.953,49.595-127.207,49.595s-127.207-22.205-127.207-49.595v-91.833  h254.415v91.833H371.518z"/>
<path style="fill:#FFD782;" d="M371.518,370.571c0,27.391-56.953,49.595-127.207,49.595s-127.207-22.205-127.207-49.595v-91.833  h254.415v91.833H371.518z"/>
<path style="fill:#E6C275;" d="M371.518,278.737c0,27.391-56.953,49.595-127.207,49.595s-127.207-22.205-127.207-49.595v-91.833  h254.415v91.833H371.518z"/>
<ellipse style="fill:#FFD782;" cx="244.316" cy="186.9" rx="127.21" ry="49.595"/>
<polygon style="fill:#A5EB78;" points="394.894,56.236 310.295,0 310.295,34.384 121.344,34.384 121.344,78.088 310.295,78.088   310.295,112.472 "/>
<g>
</g>
<g>
</g>
<g>
</g>
<g>
</g>
<g>
</g>
<g>
</g>
<g>
</g>
<g>
</g>
<g>
</g>
<g>
</g>
<g>
</g>
<g>
</g>
<g>
</g>
<g>
</g>
<g>
</g>
</svg>
