<?xml version="1.0" encoding="iso-8859-1"?>
<!-- Generator: Adobe Illustrator 19.0.0, SVG Export Plug-In . SVG Version: 6.00 Build 0)  -->
<svg xmlns="http://www.w3.org/2000/svg" xmlns:xlink="http://www.w3.org/1999/xlink" version="1.1" id="Layer_1" x="0px" y="0px" viewBox="0 0 512 512" style="enable-background:new 0 0 512 512;" xml:space="preserve">
<path style="fill:#FF6465;" d="M256,489.275C705.009,225.014,469.981-68.479,256,49.62C42.019-68.479-193.009,225.015,256,489.275z"/>
<path style="fill:#E65A5B;" d="M256,420.953c-77.255-49.314-134.789-102.478-167.415-154.934  c-26.891-43.236-36.187-84.14-26.881-118.296c11.044-40.537,48.305-66.731,94.93-66.731c23.306,0,47.932,6.792,71.213,19.641  L256,116.172l28.154-15.538c23.282-12.849,47.907-19.641,71.215-19.641c46.613,0,83.866,26.193,94.911,66.731  c9.305,34.158,0.011,75.065-26.878,118.301C390.779,318.481,333.249,371.641,256,420.953z"/>
<g style="opacity:0.1;">
	<path d="M140.146,275.773c-27.259-54.937-33.689-105.053-18.597-144.931c7.902-20.88,21.607-37.817,39.248-49.774   c-1.393-0.047-2.783-0.076-4.166-0.076c-46.624,0-83.886,26.193-94.93,66.731c-9.306,34.155-0.01,75.061,26.88,118.296   c31.468,50.594,86.112,101.844,159.266,149.664C199.258,368.599,162.744,321.318,140.146,275.773z"/>
</g>
<g>
</g>
<g>
</g>
<g>
</g>
<g>
</g>
<g>
</g>
<g>
</g>
<g>
</g>
<g>
</g>
<g>
</g>
<g>
</g>
<g>
</g>
<g>
</g>
<g>
</g>
<g>
</g>
<g>
</g>
</svg>
