<?xml version="1.0" encoding="iso-8859-1"?>
<!-- Generator: Adobe Illustrator 19.0.0, SVG Export Plug-In . SVG Version: 6.00 Build 0)  -->
<svg xmlns="http://www.w3.org/2000/svg" xmlns:xlink="http://www.w3.org/1999/xlink" version="1.1" id="Layer_1" x="0px" y="0px" viewBox="0 0 512 512" style="enable-background:new 0 0 512 512;" xml:space="preserve">
<polygon style="fill:#C7CFE2;" points="282.054,0 72.985,0 72.985,512 439.015,512 439.015,135.683 360.535,67.842 "/>
<polygon style="opacity:0.1;enable-background:new    ;" points="282.054,0 246.285,0 246.285,171.452 439.015,171.452   439.015,135.683 360.534,67.841 "/>
<polygon style="fill:#DCE5FA;" points="364.134,0 282.054,0 282.054,135.683 439.015,135.683 439.015,74.882 "/>
<g>
	<path style="fill:#515262;" d="M370.72,217.919H141.28c-4.94,0-8.942-4.003-8.942-8.942c0-4.94,4.003-8.942,8.942-8.942h229.44   c4.94,0,8.942,4.003,8.942,8.942C379.662,213.916,375.66,217.919,370.72,217.919z"/>
	<path style="fill:#515262;" d="M370.72,276.865H141.28c-4.94,0-8.942-4.003-8.942-8.942s4.003-8.942,8.942-8.942h229.44   c4.94,0,8.942,4.003,8.942,8.942S375.66,276.865,370.72,276.865z"/>
	<path style="fill:#515262;" d="M370.72,335.813H141.28c-4.94,0-8.942-4.003-8.942-8.942s4.003-8.942,8.942-8.942h229.44   c4.94,0,8.942,4.003,8.942,8.942S375.66,335.813,370.72,335.813z"/>
	<path style="fill:#515262;" d="M370.72,474.129h-110.21c-4.94,0-8.942-4.003-8.942-8.942s4.003-8.942,8.942-8.942h110.21   c4.94,0,8.942,4.003,8.942,8.942S375.66,474.129,370.72,474.129z"/>
</g>
<g>
</g>
<g>
</g>
<g>
</g>
<g>
</g>
<g>
</g>
<g>
</g>
<g>
</g>
<g>
</g>
<g>
</g>
<g>
</g>
<g>
</g>
<g>
</g>
<g>
</g>
<g>
</g>
<g>
</g>
</svg>
