<?xml version="1.0" encoding="iso-8859-1"?>
<!-- Generator: Adobe Illustrator 19.0.0, SVG Export Plug-In . SVG Version: 6.00 Build 0)  -->
<svg xmlns="http://www.w3.org/2000/svg" xmlns:xlink="http://www.w3.org/1999/xlink" version="1.1" id="Layer_1" x="0px" y="0px" viewBox="0 0 512 512" style="enable-background:new 0 0 512 512;" xml:space="preserve">
<path style="fill:#7DD2F0;" d="M512,70.765c0-35.182-28.521-63.703-63.703-63.703H63.703C28.521,7.062,0,35.583,0,70.765v370.468  c0,35.183,28.521,63.705,63.703,63.705h384.593c35.182,0,63.703-28.521,63.703-63.703V70.765z"/>
<g>
	<circle style="fill:#FFFFFF;" cx="90.865" cy="105.696" r="47.21"/>
	<path style="fill:#FFFFFF;" d="M190.006,58.486c-8.373,0-15.161,6.788-15.161,15.161v64.093c0,8.373,6.788,15.161,15.161,15.161   h264.346c8.373,0,15.161-6.788,15.161-15.161V73.647c0-8.373-6.788-15.161-15.161-15.161H190.006z"/>
	<circle style="fill:#FFFFFF;" cx="90.865" cy="255.411" r="47.21"/>
	<path style="fill:#FFFFFF;" d="M190.006,208.204c-8.373,0-15.161,6.788-15.161,15.161v64.093c0,8.373,6.788,15.161,15.161,15.161   h264.346c8.373,0,15.161-6.788,15.161-15.161v-64.093c0-8.373-6.788-15.161-15.161-15.161L190.006,208.204L190.006,208.204z"/>
	<circle style="fill:#FFFFFF;" cx="90.865" cy="405.127" r="47.21"/>
	<path style="fill:#FFFFFF;" d="M454.352,452.337c8.373,0,15.161-6.788,15.161-15.162v-64.093c0-8.373-6.788-15.161-15.161-15.161   H190.006c-8.373,0-15.161,6.788-15.161,15.161v64.093c0,8.373,6.788,15.162,15.161,15.162H454.352z"/>
</g>
<g>
</g>
<g>
</g>
<g>
</g>
<g>
</g>
<g>
</g>
<g>
</g>
<g>
</g>
<g>
</g>
<g>
</g>
<g>
</g>
<g>
</g>
<g>
</g>
<g>
</g>
<g>
</g>
<g>
</g>
</svg>
