<?xml version="1.0" encoding="iso-8859-1"?>
<!-- Generator: Adobe Illustrator 19.0.0, SVG Export Plug-In . SVG Version: 6.00 Build 0)  -->
<svg xmlns="http://www.w3.org/2000/svg" xmlns:xlink="http://www.w3.org/1999/xlink" version="1.1" id="Layer_1" x="0px" y="0px" viewBox="0 0 512.003 512.003" style="enable-background:new 0 0 512.003 512.003;" xml:space="preserve">
<g>
	<path style="fill:#353640;" d="M229.842,0h-98.676c-16.235,0-29.396,13.161-29.396,29.396v453.21   c0,16.235,13.161,29.396,29.396,29.396h98.676l26.16-255.999L229.842,0z"/>
	<path style="fill:#353640;" d="M380.837,0h-98.676l-26.16,255.999l26.16,255.999h98.676c16.235,0,29.396-13.161,29.396-29.396   V29.396C410.233,13.161,397.072,0,380.837,0z"/>
</g>
<g>
	<path style="fill:#7DD2F0;" d="M63.364,246.247l-38.784-33.28c-8.335-7.152-21.221-1.23-21.221,9.752v66.559   c0,10.983,12.885,16.906,21.221,9.754l38.784-33.28C69.341,260.625,69.341,251.375,63.364,246.247z"/>
	<path style="fill:#7DD2F0;" d="M448.64,246.247l38.784-33.28c8.335-7.152,21.221-1.23,21.221,9.752v66.559   c0,10.983-12.885,16.906-21.221,9.754l-38.784-33.28C442.662,260.625,442.662,251.375,448.64,246.247z"/>
</g>
<rect x="229.845" style="fill:#FFD782;" width="52.319" height="512.003"/>
<g>
</g>
<g>
</g>
<g>
</g>
<g>
</g>
<g>
</g>
<g>
</g>
<g>
</g>
<g>
</g>
<g>
</g>
<g>
</g>
<g>
</g>
<g>
</g>
<g>
</g>
<g>
</g>
<g>
</g>
</svg>
