<?xml version="1.0" encoding="iso-8859-1"?>
<!-- Generator: Adobe Illustrator 19.0.0, SVG Export Plug-In . SVG Version: 6.00 Build 0)  -->
<svg xmlns="http://www.w3.org/2000/svg" xmlns:xlink="http://www.w3.org/1999/xlink" version="1.1" id="Layer_1" x="0px" y="0px" viewBox="0 0 512 512" style="enable-background:new 0 0 512 512;" xml:space="preserve">
<path style="fill:#D9A86C;" d="M232.538,202.641l142.119-94.286c14.398-10.019,34.285-5.583,43.06,9.605l0,0  c7.791,13.485,3.954,30.69-8.829,39.585l-110.694,77.031L232.538,202.641z"/>
<path style="fill:#E6B273;" d="M283.454,237.356l142.12-94.286c14.398-10.019,34.285-5.583,43.06,9.605l0,0  c7.791,13.485,3.954,30.69-8.829,39.585l-110.694,77.031L283.454,237.356z"/>
<path style="fill:#F0C087;" d="M320.179,192.832c17.071,0,30.91-13.839,30.91-30.91l0,0c0-17.071-13.839-30.91-30.91-30.91h-86.945  c-32.831,0-64.317,13.042-87.531,36.257L0,312.972l55.545,96.047L189.414,275.15c13.781-13.781,23.564-4.927,40.358,4.961  l70.065,41.254c23.775,13.999,53.271,13.999,77.046,0l122.266-88.603c12.784-8.895,16.621-26.1,8.829-39.585l0,0  c-8.775-15.188-28.663-19.624-43.06-9.605l-84.138,58.552c-13.656,9.503-31.597,10.174-45.924,1.717l-86.421-51.009L320.179,192.832  L320.179,192.832z"/>
<path style="fill:#FFCC8F;" d="M145.703,190.413c23.214-23.214,54.701-36.257,87.531-36.257h86.945  c12.978,0,24.081,8.002,28.663,19.338c1.445-3.576,2.247-7.479,2.247-11.572l0,0c0-17.071-13.839-30.91-30.91-30.91h-86.945  c-32.831,0-64.317,13.042-87.531,36.257L0,312.972l8.48,14.664L145.703,190.413z"/>
<g>
</g>
<g>
</g>
<g>
</g>
<g>
</g>
<g>
</g>
<g>
</g>
<g>
</g>
<g>
</g>
<g>
</g>
<g>
</g>
<g>
</g>
<g>
</g>
<g>
</g>
<g>
</g>
<g>
</g>
</svg>
