<?xml version="1.0" encoding="iso-8859-1"?>
<!-- Generator: Adobe Illustrator 19.0.0, SVG Export Plug-In . SVG Version: 6.00 Build 0)  -->
<svg xmlns="http://www.w3.org/2000/svg" xmlns:xlink="http://www.w3.org/1999/xlink" version="1.1" id="Layer_1" x="0px" y="0px" viewBox="0 0 512.006 512.006" style="enable-background:new 0 0 512.006 512.006;" xml:space="preserve">
<rect x="221.835" y="318.761" style="fill:#B4BBCC;" width="68.327" height="193.245"/>
<rect x="221.835" y="318.761" style="opacity:0.1;enable-background:new    ;" width="30.117" height="193.245"/>
<path style="fill:#C7CFE2;" d="M256.003,456.458c-91.888,0-166.645-74.756-166.645-166.645v-24.986  c0-11.195,9.076-20.271,20.271-20.271h292.747c11.195,0,20.271,9.076,20.271,20.271v24.986  C422.648,381.702,347.892,456.458,256.003,456.458z M129.899,285.098v4.716c0,69.534,56.569,126.103,126.103,126.103  s126.103-56.569,126.103-126.103v-4.716H129.899z"/>
<g style="opacity:0.1;">
	<path d="M113.683,289.813v-24.986c0-11.195,9.076-20.271,20.271-20.271h-24.325c-11.195,0-20.271,9.076-20.271,20.271v24.986   c0,91.888,74.756,166.645,166.645,166.645c4.09,0,8.145-0.155,12.163-0.446C181.934,449.762,113.683,377.612,113.683,289.813z"/>
</g>
<path style="fill:#C7CFE2;" d="M256.003,0L256.003,0c-48.854,0-88.457,39.603-88.457,88.457v48.953l90.152,86.763l86.763-86.763  V88.457C344.461,39.603,304.857,0,256.003,0z"/>
<path style="fill:#515262;" d="M167.546,137.411v152.403c0,48.854,39.603,88.457,88.457,88.457l0,0  c48.854,0,88.457-39.603,88.457-88.457V137.411H167.546z"/>
<path style="opacity:0.1;enable-background:new    ;" d="M202.296,289.813V88.457c0-42.906,30.55-78.667,71.082-86.741  C267.759,0.597,261.952,0,256.003,0l0,0c-48.854,0-88.457,39.603-88.457,88.457v201.356c0,48.854,39.603,88.457,88.457,88.457l0,0  c5.948,0,11.756-0.597,17.375-1.717C232.846,368.48,202.296,332.719,202.296,289.813z"/>
<g>
</g>
<g>
</g>
<g>
</g>
<g>
</g>
<g>
</g>
<g>
</g>
<g>
</g>
<g>
</g>
<g>
</g>
<g>
</g>
<g>
</g>
<g>
</g>
<g>
</g>
<g>
</g>
<g>
</g>
</svg>
