<?xml version="1.0" encoding="iso-8859-1"?>
<!-- Generator: Adobe Illustrator 19.0.0, SVG Export Plug-In . SVG Version: 6.00 Build 0)  -->
<svg xmlns="http://www.w3.org/2000/svg" xmlns:xlink="http://www.w3.org/1999/xlink" version="1.1" id="Layer_1" x="0px" y="0px" viewBox="0 0 512 512" style="enable-background:new 0 0 512 512;" xml:space="preserve">
<path style="fill:#7DD2F0;" d="M478.247,79.335H33.753C15.111,79.335,0,94.446,0,113.087v285.828  c0,18.641,15.111,33.752,33.753,33.752h444.495c18.642,0,33.753-15.111,33.753-33.752V113.087  C512,94.446,496.888,79.335,478.247,79.335z"/>
<path style="fill:#FFFFFF;" d="M445.89,123.484H66.11c-12.129,0-21.962,9.832-21.962,21.961v221.112  c0,12.129,9.832,21.961,21.962,21.961H445.89c12.129,0,21.962-9.832,21.962-21.961V145.444  C467.85,133.316,458.018,123.484,445.89,123.484z"/>
<rect x="89.953" y="168.935" style="fill:#7DD2F0;" width="103.97" height="103.97"/>
<g>
	<rect x="233.171" y="168.935" style="fill:#FFD782;" width="188.879" height="33.805"/>
	<rect x="233.171" y="239.098" style="fill:#FFD782;" width="188.879" height="33.805"/>
	<rect x="89.953" y="309.261" style="fill:#FFD782;" width="332.097" height="33.805"/>
</g>
<path style="opacity:0.1;enable-background:new    ;" d="M143.483,398.913V113.086c0-18.641,15.111-33.752,33.753-33.752H33.753  C15.112,79.334,0,94.446,0,113.086v285.828c0,18.641,15.111,33.752,33.753,33.752h143.483  C158.594,432.665,143.483,417.554,143.483,398.913z"/>
<g>
</g>
<g>
</g>
<g>
</g>
<g>
</g>
<g>
</g>
<g>
</g>
<g>
</g>
<g>
</g>
<g>
</g>
<g>
</g>
<g>
</g>
<g>
</g>
<g>
</g>
<g>
</g>
<g>
</g>
</svg>
