<?xml version="1.0" encoding="iso-8859-1"?>
<!-- Generator: Adobe Illustrator 19.0.0, SVG Export Plug-In . SVG Version: 6.00 Build 0)  -->
<svg xmlns="http://www.w3.org/2000/svg" xmlns:xlink="http://www.w3.org/1999/xlink" version="1.1" id="Layer_1" x="0px" y="0px" viewBox="0 0 512 512" style="enable-background:new 0 0 512 512;" xml:space="preserve">
<path style="fill:#D9D9D9;" d="M256.001,144.744L0,209.617v226.189c0,24.857,20.151,45.008,45.008,45.008h421.984  c24.857,0,45.008-20.151,45.008-45.008V209.617L256.001,144.744z"/>
<path style="fill:#FF6465;" d="M475.781,79.868H36.22C16.216,79.868,0,96.085,0,116.089v93.529h512v-93.529  C512,96.085,495.784,79.868,475.781,79.868z"/>
<path style="opacity:0.1;enable-background:new    ;" d="M59.561,435.805V116.089c0-20.004,16.216-36.22,36.22-36.22H36.22  C16.216,79.868,0,96.085,0,116.089v319.718c0,24.857,20.151,45.008,45.008,45.008h59.561  C79.712,480.814,59.561,460.664,59.561,435.805z"/>
<g>
	<path style="fill:#515262;" d="M92.209,130.283c-11.513,0-20.846-9.333-20.846-20.846V52.032c0-11.513,9.333-20.846,20.846-20.846   s20.846,9.333,20.846,20.846v57.405C113.055,120.95,103.722,130.283,92.209,130.283z"/>
	<path style="fill:#515262;" d="M201.403,130.283c-11.513,0-20.846-9.333-20.846-20.846V52.032c0-11.513,9.333-20.846,20.846-20.846   c11.513,0,20.846,9.333,20.846,20.846v57.405C222.25,120.95,212.917,130.283,201.403,130.283z"/>
	<path style="fill:#515262;" d="M310.598,130.283c-11.513,0-20.846-9.333-20.846-20.846V52.032c0-11.513,9.333-20.846,20.846-20.846   c11.513,0,20.846,9.333,20.846,20.846v57.405C331.444,120.95,322.111,130.283,310.598,130.283z"/>
	<path style="fill:#515262;" d="M419.792,130.283c-11.513,0-20.846-9.333-20.846-20.846V52.032c0-11.513,9.333-20.846,20.846-20.846   c11.513,0,20.846,9.333,20.846,20.846v57.405C440.639,120.95,431.305,130.283,419.792,130.283z"/>
	<path style="fill:#515262;" d="M138.008,339.863c0-4.934-3.999-8.934-8.934-8.934H71.362c-4.935,0-8.934,4-8.934,8.934   c0,4.934,3.999,8.934,8.934,8.934h57.711C134.008,348.797,138.008,344.797,138.008,339.863z"/>
	<path style="fill:#515262;" d="M329.986,348.797c4.935,0,8.934-4,8.934-8.934c0-4.934-3.999-8.934-8.934-8.934h-57.712   c-4.935,0-8.934,4-8.934,8.934c0,4.934,3.999,8.934,8.934,8.934H329.986z"/>
	<path style="fill:#515262;" d="M160.305,418.191c3.077,0,6.073-1.591,7.731-4.443l80.723-138.784   c2.48-4.266,1.034-9.733-3.232-12.215c-4.265-2.481-9.736-1.035-12.215,3.231L152.59,404.763c-2.48,4.266-1.034,9.733,3.232,12.215   C157.235,417.8,158.779,418.191,160.305,418.191z"/>
	<path style="fill:#515262;" d="M361.216,418.191c3.077,0,6.073-1.591,7.731-4.443l80.723-138.784   c2.48-4.266,1.034-9.733-3.232-12.215c-4.267-2.481-9.735-1.035-12.215,3.231l-80.723,138.784   c-2.48,4.266-1.034,9.733,3.232,12.215C358.147,417.8,359.692,418.191,361.216,418.191z"/>
</g>
<g>
</g>
<g>
</g>
<g>
</g>
<g>
</g>
<g>
</g>
<g>
</g>
<g>
</g>
<g>
</g>
<g>
</g>
<g>
</g>
<g>
</g>
<g>
</g>
<g>
</g>
<g>
</g>
<g>
</g>
</svg>
