<?xml version="1.0" encoding="iso-8859-1"?>
<!-- Generator: Adobe Illustrator 19.0.0, SVG Export Plug-In . SVG Version: 6.00 Build 0)  -->
<svg xmlns="http://www.w3.org/2000/svg" xmlns:xlink="http://www.w3.org/1999/xlink" version="1.1" id="Layer_1" x="0px" y="0px" viewBox="0 0 511.998 511.998" style="enable-background:new 0 0 511.998 511.998;" xml:space="preserve">
<path style="fill:#7DD2F0;" d="M461.453,107.866c-38.887-55.395-97.018-92.33-163.685-104.003S163.879,7.177,108.485,46.064  C53.091,84.95,16.155,143.081,4.482,209.748l67.537,11.825C89.595,121.19,185.561,53.823,285.943,71.399  s167.75,113.542,150.173,213.924s-113.542,167.75-213.924,150.173c-15.5-2.714-30.404-7.308-44.516-13.701l27.664-35.299  L56.625,371.24l50.358,140.758l27.503-35.093c23.671,12.669,49.143,21.446,75.881,26.127  c66.667,11.673,133.889-3.315,189.283-42.201s92.33-97.017,104.002-163.684C515.326,230.482,500.339,163.26,461.453,107.866z"/>
<g style="opacity:0.1;">
	<path d="M142.767,57.491C198.161,18.604,265.383,3.617,332.05,15.29c6.64,1.163,13.192,2.587,19.652,4.244   C334.556,12.417,316.5,7.142,297.768,3.863C231.101-7.81,163.879,7.177,108.485,46.064S16.155,143.081,4.482,209.748l35.267,6.175   C52.407,151.459,88.833,95.352,142.767,57.491z"/>
</g>
<polygon style="fill:#7DD2F0;" points="383.961,288.066 225.077,288.066 225.077,129.182 270.786,129.182 270.786,242.357   383.961,242.357 "/>
<g>
</g>
<g>
</g>
<g>
</g>
<g>
</g>
<g>
</g>
<g>
</g>
<g>
</g>
<g>
</g>
<g>
</g>
<g>
</g>
<g>
</g>
<g>
</g>
<g>
</g>
<g>
</g>
<g>
</g>
</svg>
