<?xml version="1.0" encoding="iso-8859-1"?>
<!-- Generator: Adobe Illustrator 19.0.0, SVG Export Plug-In . SVG Version: 6.00 Build 0)  -->
<svg xmlns="http://www.w3.org/2000/svg" xmlns:xlink="http://www.w3.org/1999/xlink" version="1.1" id="Layer_1" x="0px" y="0px" viewBox="0 0 512 512" style="enable-background:new 0 0 512 512;" xml:space="preserve">
<ellipse style="fill:#FF6465;" cx="256.005" cy="154.51" rx="205.788" ry="56.225"/>
<g style="opacity:0.1;">
	<path d="M69.076,178.051c33.385-21.674,94.205-42.973,165.424-55.772c71.616-12.87,136.375-14.025,175.145-5.171   c-37.69-11.55-92.554-18.825-153.646-18.825c-113.656,0-205.793,25.173-205.793,56.225   C50.207,162.915,56.971,170.89,69.076,178.051z"/>
</g>
<g>
	<path style="fill:#FFD782;" d="M437.785,107.339c-0.976,41.059-34.543,74.051-75.838,74.051c-41.294,0-74.861-32.992-75.837-74.051   h-60.22c-0.976,41.059-34.543,74.051-75.837,74.051c-41.295,0-74.861-32.992-75.838-74.051H30.764v151.974h450.472V107.339H437.785   z"/>
	<rect x="30.764" y="255.416" style="fill:#FFD782;" width="450.469" height="185.036"/>
</g>
<path style="fill:#E6C275;" d="M481.236,224.649H30.764C13.774,224.649,0,238.423,0,255.413l0,0  c0,16.991,13.774,30.765,30.764,30.765h450.472c16.991,0,30.764-13.774,30.764-30.765l0,0  C512,238.423,498.226,224.649,481.236,224.649z"/>
<path style="opacity:0.1;enable-background:new    ;" d="M57.773,255.413c0-16.99,13.774-30.764,30.764-30.764H30.764  C13.774,224.649,0,238.423,0,255.413c0,16.991,13.774,30.765,30.764,30.765h57.773C71.547,286.178,57.773,272.404,57.773,255.413z"/>
<path style="fill:#E6C275;" d="M481.236,409.691H30.764C13.774,409.691,0,423.465,0,440.454l0,0  c0,16.991,13.774,30.765,30.764,30.765h450.472c16.991,0,30.764-13.774,30.764-30.765l0,0  C512,423.465,498.226,409.691,481.236,409.691z"/>
<path style="opacity:0.1;enable-background:new    ;" d="M46.219,440.454c0-16.99,13.774-30.764,30.764-30.764H30.764  C13.774,409.691,0,423.465,0,440.454c0,16.991,13.774,30.764,30.764,30.764h46.219C59.993,471.219,46.219,457.445,46.219,440.454z"/>
<g>
	<circle style="fill:#FF6465;" cx="256.005" cy="347.934" r="23.709"/>
	<circle style="fill:#FF6465;" cx="123.45" cy="347.934" r="23.709"/>
	<circle style="fill:#FF6465;" cx="388.548" cy="347.934" r="23.709"/>
</g>
<g>
	<circle style="fill:#FFE3A6;" cx="256.005" cy="84.593" r="43.812"/>
	<circle style="fill:#FFE3A6;" cx="50.205" cy="97.008" r="34.073"/>
	<circle style="fill:#FFE3A6;" cx="461.793" cy="97.008" r="34.073"/>
</g>
<g>
</g>
<g>
</g>
<g>
</g>
<g>
</g>
<g>
</g>
<g>
</g>
<g>
</g>
<g>
</g>
<g>
</g>
<g>
</g>
<g>
</g>
<g>
</g>
<g>
</g>
<g>
</g>
<g>
</g>
</svg>
