<?xml version="1.0" encoding="iso-8859-1"?>
<!-- Generator: Adobe Illustrator 19.0.0, SVG Export Plug-In . SVG Version: 6.00 Build 0)  -->
<svg xmlns="http://www.w3.org/2000/svg" xmlns:xlink="http://www.w3.org/1999/xlink" version="1.1" id="Layer_1" x="0px" y="0px" viewBox="0 0 512 512" style="enable-background:new 0 0 512 512;" xml:space="preserve">
<path style="fill:#5A4146;" d="M255.999,0L255.999,0c-81.614,0-147.775,66.161-147.775,147.775v67.238h295.549v-67.238  C403.774,66.161,337.613,0,255.999,0z"/>
<g>
	<path style="fill:#E6B273;" d="M129.749,176.207c-20.043,0-36.292,16.249-36.292,36.292l0,0c0,20.043,16.249,36.292,36.292,36.292   h17.649v-72.584L129.749,176.207L129.749,176.207z"/>
	<path style="fill:#E6B273;" d="M382.25,176.207c20.043,0,36.292,16.249,36.292,36.292l0,0c0,20.043-16.249,36.292-36.292,36.292   h-17.649v-72.584L382.25,176.207L382.25,176.207z"/>
</g>
<rect x="217.585" y="330.131" style="fill:#F0C087;" width="76.821" height="78.968"/>
<path style="fill:#DCE5FA;" d="M294.409,398.315H217.59c0,5.529-42.999,67.255-42.999,67.255l42.999,46.429h20.66l10.786-43.092  l-3.317-40.652h20.561l-4.839,41.872l12.308,41.872h20.66l42.999-46.429C337.408,465.571,294.409,403.844,294.409,398.315z"/>
<path style="opacity:0.1;enable-background:new    ;" d="M294.409,387.05v-56.92H217.59v56.92  c12.304,3.069,25.168,4.708,38.41,4.708S282.105,390.118,294.409,387.05z"/>
<path style="fill:#F0C087;" d="M347.002,116.911c-12.565,0-22.751-10.186-22.751-22.751c0,12.564-10.186,22.751-22.751,22.751  c-12.565,0-22.751-10.186-22.751-22.751c0,12.564-10.186,22.751-22.751,22.751s-22.751-10.186-22.751-22.751  c0,12.564-10.186,22.751-22.751,22.751s-22.751-10.186-22.751-22.751c0,12.564-10.186,22.751-22.751,22.751  c-7.337,0-13.843-3.487-18.004-8.878c-11.022,17.803-17.39,38.79-17.39,61.268v63.703c0,69.807,56.59,126.397,126.397,126.397  s126.397-56.59,126.397-126.397v-63.703c0-22.478-6.368-43.465-17.39-61.268C360.846,113.423,354.339,116.911,347.002,116.911z"/>
<g>
	<path style="fill:#5A4146;" d="M255.999,293.448c-14.719,0-27.882-2.907-35.21-7.777c-3.72-2.473-4.733-7.494-2.26-11.216   c2.473-3.72,7.491-4.733,11.215-2.26c3.799,2.525,13.391,5.073,26.254,5.073s22.454-2.548,26.253-5.073   c3.721-2.472,8.741-1.46,11.215,2.261c2.473,3.721,1.461,8.742-2.26,11.215C283.88,290.541,270.718,293.448,255.999,293.448z"/>
	<path style="fill:#5A4146;" d="M224.544,194.466c-1.801,0-3.615-0.599-5.117-1.827c-2.707-2.214-10.077-4.597-19.857-4.597   s-17.149,2.383-19.858,4.597c-3.457,2.827-8.554,2.318-11.384-1.142c-2.827-3.459-2.316-8.556,1.143-11.383   c6.319-5.167,17.571-8.251,30.099-8.251c12.528,0,23.781,3.085,30.1,8.252c3.458,2.828,3.969,7.925,1.141,11.384   C229.211,193.452,226.886,194.466,224.544,194.466z"/>
</g>
<circle style="fill:#353640;" cx="199.571" cy="213.572" r="13.842"/>
<path style="fill:#5A4146;" d="M287.456,194.466c-2.344,0-4.667-1.013-6.267-2.968c-2.828-3.459-2.317-8.556,1.141-11.384  c6.319-5.167,17.571-8.252,30.1-8.252c12.526,0,23.779,3.084,30.099,8.251c3.459,2.827,3.972,7.924,1.143,11.383  c-2.828,3.46-7.925,3.972-11.384,1.143c-2.708-2.214-10.079-4.597-19.858-4.597c-9.78,0-17.149,2.383-19.857,4.597  C291.069,193.867,289.257,194.466,287.456,194.466z"/>
<circle style="fill:#353640;" cx="312.43" cy="213.572" r="13.842"/>
<g>
	<path style="fill:#515262;" d="M81.419,512h136.17V398.315c-10.094,2.095-19.896,4.992-29.329,8.63   C139.743,425.66,100.922,463.883,81.419,512z"/>
	<path style="fill:#515262;" d="M430.581,512c-19.399-47.869-57.917-85.948-106.082-104.766l-0.762-0.289   c-9.434-3.638-19.234-6.535-29.328-8.63V512H430.581L430.581,512z"/>
</g>
<polygon style="fill:#E65A5B;" points="273.749,512 266.28,428.256 245.719,428.256 238.25,512 "/>
<polygon style="fill:#FF6465;" points="268.155,398.315 275.668,421.436 255.999,435.726 236.331,421.436 243.844,398.315 "/>
<g>
</g>
<g>
</g>
<g>
</g>
<g>
</g>
<g>
</g>
<g>
</g>
<g>
</g>
<g>
</g>
<g>
</g>
<g>
</g>
<g>
</g>
<g>
</g>
<g>
</g>
<g>
</g>
<g>
</g>
</svg>
