<?xml version="1.0" encoding="iso-8859-1"?>
<!-- Generator: Adobe Illustrator 19.0.0, SVG Export Plug-In . SVG Version: 6.00 Build 0)  -->
<svg xmlns="http://www.w3.org/2000/svg" xmlns:xlink="http://www.w3.org/1999/xlink" version="1.1" id="Layer_1" x="0px" y="0px" viewBox="0 0 512 512" style="enable-background:new 0 0 512 512;" xml:space="preserve">
<polygon style="fill:#FF6465;" points="127.15,186.985 63.575,256.001 127.15,325.015 341.44,414.302 341.44,97.698 "/>
<path style="fill:#E65A5B;" d="M37.037,186.985C16.582,186.985,0,203.568,0,224.022v63.956c0,20.455,16.582,37.037,37.037,37.037  h90.113V186.985H37.037z"/>
<path style="fill:#515262;" d="M469.032,256.001l37.391-37.39c7.436-7.435,7.436-19.489,0-26.924  c-7.435-7.437-19.491-7.437-26.924,0l-37.391,37.39l-37.391-37.39c-7.435-7.437-19.489-7.435-26.924,0  c-7.436,7.435-7.436,19.489,0,26.924l37.391,37.39l-37.391,37.39c-7.436,7.435-7.436,19.489,0,26.924  c3.717,3.719,8.589,5.577,13.462,5.577c4.873,0,9.746-1.859,13.462-5.577l37.391-37.39l37.391,37.39  c3.717,3.719,8.59,5.577,13.462,5.577c4.872,0,9.745-1.859,13.462-5.577c7.436-7.435,7.436-19.489,0-26.924L469.032,256.001z"/>
<g>
</g>
<g>
</g>
<g>
</g>
<g>
</g>
<g>
</g>
<g>
</g>
<g>
</g>
<g>
</g>
<g>
</g>
<g>
</g>
<g>
</g>
<g>
</g>
<g>
</g>
<g>
</g>
<g>
</g>
</svg>
