<?xml version="1.0" encoding="iso-8859-1"?>
<!-- Generator: Adobe Illustrator 19.0.0, SVG Export Plug-In . SVG Version: 6.00 Build 0)  -->
<svg xmlns="http://www.w3.org/2000/svg" xmlns:xlink="http://www.w3.org/1999/xlink" version="1.1" id="Layer_1" x="0px" y="0px" viewBox="0 0 512.001 512.001" style="enable-background:new 0 0 512.001 512.001;" xml:space="preserve">
<path style="fill:#FF6465;" d="M472.546,0H39.455C17.665,0,0.001,17.664,0.001,39.454v433.092c0,21.789,17.664,39.454,39.454,39.454  h433.091c21.789,0,39.454-17.664,39.454-39.454V39.454C512.001,17.664,494.337,0,472.546,0z"/>
<g>
	<path style="fill:#E6C175;" d="M74.806,230.09c-9.758,0-17.669,7.91-17.669,17.669c0,16.263,13.184,29.446,29.446,29.446h51.935   l4.283-47.115H74.806z"/>
	<path style="fill:#E6C175;" d="M437.194,230.09c9.758,0,17.669,7.91,17.669,17.669c0,16.263-13.184,29.446-29.446,29.446h-51.935   l-4.283-47.115H437.194z"/>
</g>
<rect x="206.378" y="76.315" style="fill:#FFFFFF;" width="99.236" height="67.332"/>
<path style="fill:#F2CC7B;" d="M379.625,325.545c-0.007,0-0.017,0-0.024,0H132.398c-7.437,0-14.47-3.381-19.114-9.189  c-4.645-5.808-6.398-13.413-4.763-20.668l30.097-133.546c5.806-25.76,28.305-43.752,54.711-43.752h125.339  c26.407,0,48.906,17.992,54.711,43.752l29.832,132.367c0.579,2.088,0.888,4.288,0.888,6.559  C404.1,314.587,393.143,325.545,379.625,325.545z"/>
<path style="fill:#B3EBFF;" d="M163.005,276.594h185.992l-23.369-103.689c-0.739-3.277-3.599-5.564-6.958-5.564H193.33  c-3.358,0-6.219,2.287-6.958,5.564L163.005,276.594z"/>
<g>
	<path style="fill:#515262;" d="M114.043,346.349v67.642c0,11.981,9.713,21.694,21.694,21.694h14.131   c11.981,0,21.694-9.713,21.694-21.694v-67.642H114.043z"/>
	<path style="fill:#515262;" d="M397.958,346.349v67.642c0,11.981-9.713,21.694-21.694,21.694h-14.131   c-11.981,0-21.694-9.713-21.694-21.694v-67.642H397.958z"/>
</g>
<path style="fill:#FFD782;" d="M365.111,253.954H146.89c-35.977,0-65.141,29.165-65.141,65.14v24.504  c0,13.209,10.708,23.917,23.917,23.917h300.667c13.209,0,23.917-10.708,23.917-23.917v-24.504  C430.253,283.119,401.088,253.954,365.111,253.954z"/>
<rect x="199.206" y="342.473" style="fill:#E6C175;" width="113.603" height="50.089"/>
<g>
	<path style="fill:#FFFFFF;" d="M164.676,287.608h-21.734c-11.229,0-20.333,9.102-20.333,20.333l0,0   c0,11.229,9.104,20.333,20.333,20.333h21.734c11.229,0,20.333-9.104,20.333-20.333l0,0   C185.008,296.71,175.906,287.608,164.676,287.608z"/>
	<path style="fill:#FFFFFF;" d="M347.325,287.608h21.734c11.229,0,20.333,9.102,20.333,20.333l0,0   c0,11.229-9.104,20.333-20.333,20.333h-21.734c-11.229,0-20.333-9.104-20.333-20.333l0,0   C326.992,296.71,336.095,287.608,347.325,287.608z"/>
</g>
<g>
</g>
<g>
</g>
<g>
</g>
<g>
</g>
<g>
</g>
<g>
</g>
<g>
</g>
<g>
</g>
<g>
</g>
<g>
</g>
<g>
</g>
<g>
</g>
<g>
</g>
<g>
</g>
<g>
</g>
</svg>
