<?xml version="1.0" encoding="iso-8859-1"?>
<!-- Generator: Adobe Illustrator 19.0.0, SVG Export Plug-In . SVG Version: 6.00 Build 0)  -->
<svg xmlns="http://www.w3.org/2000/svg" xmlns:xlink="http://www.w3.org/1999/xlink" version="1.1" id="Layer_1" x="0px" y="0px" viewBox="0 0 512 512" style="enable-background:new 0 0 512 512;" xml:space="preserve">
<path style="fill:#B4BBCC;" d="M387.831,511.729H17.7c-9.775,0-17.7-7.925-17.7-17.7v-370.13c0-9.775,7.925-17.7,17.7-17.7h370.131  c9.775,0,17.7,7.925,17.7,17.7V494.03C405.531,503.805,397.606,511.729,387.831,511.729z"/>
<rect x="35.4" y="141.599" style="fill:#FFFFFF;" width="334.728" height="334.728"/>
<path style="fill:#7DD2F0;" d="M281.36,240.016h-53.174c-4.695,0-9.196,1.864-12.515,5.185l-42.653,42.653l-32.898-32.898  c-4.491-4.491-11.045-6.234-17.172-4.561c-6.128,1.671-10.89,6.497-12.48,12.646L79.694,382.062  c-1.569,6.069,0.189,12.514,4.621,16.946c3.362,3.363,7.881,5.185,12.516,5.185c1.476,0,2.964-0.184,4.43-0.564l119.021-30.774  c6.149-1.591,10.975-6.353,12.646-12.48c1.671-6.128-0.07-12.681-4.561-17.172l-30.317-30.317l37.469-37.469h45.841  c9.775,0,17.7-7.925,17.7-17.7C299.06,247.941,291.137,240.016,281.36,240.016z"/>
<path style="opacity:0.1;enable-background:new    ;" d="M387.831,106.199H228.262v271.389c0,29.279,23.82,53.1,53.1,53.1h124.169  V123.899C405.531,114.123,397.606,106.199,387.831,106.199z"/>
<path style="fill:#C7CFE2;" d="M494.3,0.271H281.36c-4.694,0-9.196,1.864-12.515,5.185c-3.319,3.319-5.185,7.821-5.185,12.515  v359.617c0,9.775,7.925,17.7,17.7,17.7H494.3c9.775,0,17.7-7.925,17.7-17.7V17.971C512,8.196,504.076,0.271,494.3,0.271z"/>
<rect x="299.057" y="35.671" style="fill:#B4BBCC;" width="177.541" height="84.475"/>
<g>
	<rect x="299.057" y="155.546" style="fill:#FFFFFF;" width="177.541" height="84.475"/>
	<rect x="299.057" y="275.421" style="fill:#FFFFFF;" width="177.541" height="84.475"/>
</g>
<g>
</g>
<g>
</g>
<g>
</g>
<g>
</g>
<g>
</g>
<g>
</g>
<g>
</g>
<g>
</g>
<g>
</g>
<g>
</g>
<g>
</g>
<g>
</g>
<g>
</g>
<g>
</g>
<g>
</g>
</svg>
