<?xml version="1.0" encoding="iso-8859-1"?>
<!-- Generator: Adobe Illustrator 19.0.0, SVG Export Plug-In . SVG Version: 6.00 Build 0)  -->
<svg xmlns="http://www.w3.org/2000/svg" xmlns:xlink="http://www.w3.org/1999/xlink" version="1.1" id="Layer_1" x="0px" y="0px" viewBox="0 0 512 512" style="enable-background:new 0 0 512 512;" xml:space="preserve">
<rect x="30.377" y="124.809" style="fill:#FFFFFF;" width="356.476" height="356.476"/>
<path style="fill:#B4BBCC;" d="M372.014,212.688v233.451c0,11.401-9.243,20.645-20.645,20.645H65.861  c-11.401,0-20.645-9.243-20.645-20.645V160.631c0-11.401,9.243-20.645,20.645-20.645h232.781V94.769H22.608  C10.122,94.769,0,104.891,0,117.378v372.014C0,501.878,10.122,512,22.608,512h372.014c12.487,0,22.608-10.122,22.608-22.608V212.688  H372.014z"/>
<polygon style="fill:#7DD2F0;" points="277.243,193.944 177.057,294.131 145.237,262.311 116.043,395.112 248.844,365.915   217.024,334.096 316.364,234.757 "/>
<path style="opacity:0.1;enable-background:new    ;" d="M277.243,193.944l-32.165,32.165c4.978,19.523,20.152,35.003,39.489,40.444  l31.795-31.795L277.243,193.944z"/>
<g style="opacity:0.1;">
	<rect x="372.02" y="212.688" width="45.217" height="55.978"/>
	<rect x="243.333" y="94.774" width="55.311" height="45.217"/>
</g>
<path style="fill:#C7CFE2;" d="M489.392,234.757h-189.54c-12.487,0-22.608-10.122-22.608-22.608V22.608  C277.243,10.122,287.365,0,299.852,0h189.54C501.878,0,512,10.122,512,22.608v189.539C512,224.635,501.878,234.757,489.392,234.757z  "/>
<path style="fill:#FFFFFF;" d="M337.568,189.54h114.109c8.344,0,15.108-6.763,15.108-15.108V60.325  c0-8.344-6.763-15.108-15.108-15.108H337.568c-8.344,0-15.108,6.763-15.108,15.108v114.107  C322.46,182.776,329.224,189.54,337.568,189.54z"/>
<g>
</g>
<g>
</g>
<g>
</g>
<g>
</g>
<g>
</g>
<g>
</g>
<g>
</g>
<g>
</g>
<g>
</g>
<g>
</g>
<g>
</g>
<g>
</g>
<g>
</g>
<g>
</g>
<g>
</g>
</svg>
