<?xml version="1.0" encoding="iso-8859-1"?>
<!-- Generator: Adobe Illustrator 19.0.0, SVG Export Plug-In . SVG Version: 6.00 Build 0)  -->
<svg xmlns="http://www.w3.org/2000/svg" xmlns:xlink="http://www.w3.org/1999/xlink" version="1.1" id="Layer_1" x="0px" y="0px" viewBox="0 0 512 512" style="enable-background:new 0 0 512 512;" xml:space="preserve">
<path style="fill:#6AB2CC;" d="M400.725,512c14.06,0,25.457-11.397,25.457-25.457V87.448c0-14.06-11.397-25.456-25.457-25.456  H363.53c0.422,2.146,0.649,4.363,0.649,6.634v2.957c0,9.911-8.034,17.946-17.945,17.946H165.766c-9.91,0-17.945-8.034-17.945-17.946  v-2.957c0-2.271,0.227-4.488,0.649-6.634h-37.196c-14.06,0-25.457,11.396-25.457,25.456v399.095  c0,14.06,11.397,25.457,25.457,25.457H400.725z"/>
<polygon style="fill:#E6E6E6;" points="382.092,460.872 129.908,460.872 129.908,89.529 165.765,89.529 255.999,41.211   346.235,89.529 382.092,89.529 "/>
<path style="opacity:0.1;enable-background:new    ;" d="M364.179,68.626v2.957c0,9.911-8.034,17.946-17.945,17.946H165.765  c-9.91,0-17.945-8.034-17.945-17.946v-2.957c0-2.271,0.227-4.488,0.649-6.634h-34.013c-0.212,2.183-0.328,4.396-0.328,6.634v2.957  c0,28.474,23.164,51.639,51.638,51.639h180.468c28.474,0,51.638-23.165,51.638-51.639v-2.957c0-2.238-0.116-4.451-0.328-6.634  H363.53C363.952,64.139,364.179,66.356,364.179,68.626z"/>
<path style="fill:#7DD2F0;" d="M181.994,34.454c-18.873,0-34.173,15.3-34.173,34.173v2.957c0,9.911,8.034,17.946,17.945,17.946  h180.469c9.911,0,17.945-8.034,17.945-17.946v-2.957c0-18.873-15.3-34.173-34.173-34.173  C330.007,34.454,181.994,34.454,181.994,34.454z"/>
<path style="fill:#E6E6E6;" d="M255.999,0L255.999,0c-20.758,0-37.587,16.827-37.587,37.587v31.322h75.172V37.587  C293.586,16.827,276.759,0,255.999,0z"/>
<g>
	<circle style="fill:#515262;" cx="255.999" cy="30.324" r="10.887"/>
	<path style="fill:#515262;" d="M339.386,166.713H172.615c-4.653,0-8.423-3.771-8.423-8.423c0-4.652,3.77-8.423,8.423-8.423h166.771   c4.653,0,8.423,3.771,8.423,8.423C347.81,162.942,344.038,166.713,339.386,166.713z"/>
	<path style="fill:#515262;" d="M339.386,208.643H172.615c-4.653,0-8.423-3.771-8.423-8.423c0-4.652,3.77-8.423,8.423-8.423h166.771   c4.653,0,8.423,3.771,8.423,8.423C347.81,204.871,344.038,208.643,339.386,208.643z"/>
	<path style="fill:#515262;" d="M339.386,250.571H172.615c-4.653,0-8.423-3.771-8.423-8.423c0-4.652,3.77-8.423,8.423-8.423h166.771   c4.653,0,8.423,3.771,8.423,8.423C347.81,246.8,344.038,250.571,339.386,250.571z"/>
	<path style="fill:#515262;" d="M339.386,292.5H172.615c-4.653,0-8.423-3.771-8.423-8.423s3.77-8.423,8.423-8.423h166.771   c4.653,0,8.423,3.771,8.423,8.423S344.038,292.5,339.386,292.5z"/>
	<path style="fill:#515262;" d="M339.386,407.805h-83.386c-4.653,0-8.423-3.771-8.423-8.423s3.77-8.423,8.423-8.423h83.386   c4.653,0,8.423,3.771,8.423,8.423S344.038,407.805,339.386,407.805z"/>
</g>
<g>
</g>
<g>
</g>
<g>
</g>
<g>
</g>
<g>
</g>
<g>
</g>
<g>
</g>
<g>
</g>
<g>
</g>
<g>
</g>
<g>
</g>
<g>
</g>
<g>
</g>
<g>
</g>
<g>
</g>
</svg>
