<?xml version="1.0" encoding="iso-8859-1"?>
<!-- Generator: Adobe Illustrator 19.0.0, SVG Export Plug-In . SVG Version: 6.00 Build 0)  -->
<svg xmlns="http://www.w3.org/2000/svg" xmlns:xlink="http://www.w3.org/1999/xlink" version="1.1" id="Layer_1" x="0px" y="0px" viewBox="0 0 512 512" style="enable-background:new 0 0 512 512;" xml:space="preserve">
<path style="fill:#7DD2F0;" d="M256.001,512C397.385,512,512,397.385,512,255.999S397.385,0,256.001,0  C114.615,0,0,114.615,0,255.999C0,397.385,114.615,512,256.001,512z"/>
<polygon style="fill:#FFFFFF;" points="120.801,213.144 221.909,213.144 221.909,153.879 397.191,255.999 221.909,358.121   221.909,298.856 120.801,298.856 "/>
<path style="opacity:0.1;enable-background:new    ;" d="M68.872,256.001c0-129.706,96.466-236.866,221.564-253.688  C279.173,0.798,267.68,0,256.001,0C114.615,0,0,114.615,0,256.001S114.615,512,255.999,512c11.68,0,23.172-0.798,34.436-2.313  C165.338,492.865,68.872,385.705,68.872,256.001z"/>
<g>
</g>
<g>
</g>
<g>
</g>
<g>
</g>
<g>
</g>
<g>
</g>
<g>
</g>
<g>
</g>
<g>
</g>
<g>
</g>
<g>
</g>
<g>
</g>
<g>
</g>
<g>
</g>
<g>
</g>
</svg>
