<?xml version="1.0" encoding="iso-8859-1"?>
<!-- Generator: Adobe Illustrator 19.0.0, SVG Export Plug-In . SVG Version: 6.00 Build 0)  -->
<svg xmlns="http://www.w3.org/2000/svg" xmlns:xlink="http://www.w3.org/1999/xlink" version="1.1" id="Layer_1" x="0px" y="0px" viewBox="0 0 512 512" style="enable-background:new 0 0 512 512;" xml:space="preserve">
<path style="fill:#98D96F;" d="M142.366,74.405l-37.203,220.449L142.366,512h270.979c16.952,0,30.693-13.741,30.693-30.692V107.859  L142.366,74.405z"/>
<path style="fill:#8FCC68;" d="M67.962,74.405v406.903c0,16.951,13.741,30.692,30.693,30.692h43.711V74.405H67.962z"/>
<path style="fill:#FFFFFF;" d="M126.661,20.763l-11.161,33.731c-4.137,5.568-6.588,12.458-6.588,19.911s2.452,14.343,6.588,19.909  l11.161,33.732l317.377-20.185v-0.002v-66.91L126.661,20.763z"/>
<path style="fill:#A5EB78;" d="M142.366,40.949h301.671V0H142.366c-41.092,0-74.404,33.312-74.404,74.404v0.001  c0,41.092,33.312,74.404,74.404,74.404h301.671V107.86H142.366c-18.448,0-33.455-15.007-33.455-33.455  S123.919,40.949,142.366,40.949z"/>
<path style="fill:#FFFFFF;" d="M411.686,316.301c0,66.035-53.724,119.758-119.758,119.758c-19.51,0-38.557-4.773-55.588-13.718  l-11.324,17.113l-36.907-73.013l81.63,5.426l-11.759,17.771c10.561,4.902,22.125,7.515,33.947,7.515  c44.582,0,80.853-36.27,80.853-80.853s-36.27-80.853-80.853-80.853s-80.853,36.27-80.853,80.853h-38.906  c0-66.035,53.724-119.759,119.758-119.759S411.686,250.265,411.686,316.301z"/>
<g>
</g>
<g>
</g>
<g>
</g>
<g>
</g>
<g>
</g>
<g>
</g>
<g>
</g>
<g>
</g>
<g>
</g>
<g>
</g>
<g>
</g>
<g>
</g>
<g>
</g>
<g>
</g>
<g>
</g>
</svg>
