<?xml version="1.0" encoding="iso-8859-1"?>
<!-- Generator: Adobe Illustrator 19.0.0, SVG Export Plug-In . SVG Version: 6.00 Build 0)  -->
<svg xmlns="http://www.w3.org/2000/svg" xmlns:xlink="http://www.w3.org/1999/xlink" version="1.1" id="Layer_1" x="0px" y="0px" viewBox="0 0 512.001 512.001" style="enable-background:new 0 0 512.001 512.001;" xml:space="preserve">
<path style="fill:#FFD782;" d="M161.268,44.545c9.044,31.873,1.029,67.569-24.064,92.661s-60.787,33.108-92.661,24.064L0,205.812  l306.188,306.188l44.544-44.544c-9.046-31.874-1.029-67.57,24.064-92.661c25.091-25.091,60.787-33.108,92.661-24.064l44.544-44.544  L205.812,0.001L161.268,44.545z"/>
<rect x="185.544" y="166.23" transform="matrix(-0.7071 0.7071 -0.7071 -0.7071 665.0173 275.4422)" style="fill:#FF6465;" width="179.838" height="218.441"/>
<polygon style="fill:#FFFFFF;" points="232.97,232.971 270.76,245.785 302.741,221.919 302.231,261.821 334.812,284.862   296.706,296.706 284.861,334.812 261.82,302.231 221.918,302.742 245.785,270.761 "/>
<g>
	<path style="fill:#FF6465;" d="M57.499,263.311l13.246,13.246l0,0l15.454-15.454c3.658-3.658,3.658-9.589,0-13.246   c-3.658-3.658-9.589-3.658-13.246,0L57.499,263.311L57.499,263.311z"/>
	<path style="fill:#FF6465;" d="M114.557,228.865c-2.397,0-4.794-0.914-6.623-2.744c-3.658-3.658-3.658-9.589,0-13.246l34.98-34.98   c3.658-3.658,9.589-3.658,13.246,0c3.658,3.658,3.658,9.589,0,13.246l-34.98,34.981   C119.351,227.951,116.955,228.865,114.557,228.865z M184.518,158.904c-2.397,0-4.794-0.914-6.623-2.744   c-3.658-3.658-3.658-9.589,0-13.246l34.98-34.98c3.658-3.658,9.589-3.658,13.246,0c3.658,3.658,3.658,9.589,0,13.246l-34.98,34.98   C189.313,157.99,186.916,158.904,184.518,158.904z"/>
	<path style="fill:#FF6465;" d="M263.31,57.499L263.31,57.499l-15.455,15.454c-3.658,3.658-3.658,9.588,0,13.246   c1.828,1.83,4.226,2.744,6.623,2.744c2.397,0,4.794-0.914,6.623-2.744l15.455-15.454l0,0L263.31,57.499z"/>
</g>
<g style="opacity:0.1;">
	<path d="M64.85,164.69c-6.846-0.402-13.659-1.535-20.306-3.422L0,205.812l306.188,306.188l44.544-44.544   c-1.886-6.645-3.019-13.458-3.422-20.306L64.85,164.69z"/>
</g>
<g>
</g>
<g>
</g>
<g>
</g>
<g>
</g>
<g>
</g>
<g>
</g>
<g>
</g>
<g>
</g>
<g>
</g>
<g>
</g>
<g>
</g>
<g>
</g>
<g>
</g>
<g>
</g>
<g>
</g>
</svg>
