<?xml version="1.0" encoding="iso-8859-1"?>
<!-- Generator: Adobe Illustrator 19.0.0, SVG Export Plug-In . SVG Version: 6.00 Build 0)  -->
<svg xmlns="http://www.w3.org/2000/svg" xmlns:xlink="http://www.w3.org/1999/xlink" version="1.1" id="Layer_1" x="0px" y="0px" viewBox="0 0 512 512" style="enable-background:new 0 0 512 512;" xml:space="preserve">
<polygon style="fill:#515262;" points="207.243,512 207.243,395.927 138.872,322.792 138.872,165.195 373.128,165.195   373.128,322.792 304.757,395.927 304.757,512 "/>
<g>
	<path style="fill:#B4BBCC;" d="M182.81,0L182.81,0c-15.667,0-28.368,12.7-28.368,28.368v136.827h56.735V28.368   C211.178,12.7,198.476,0,182.81,0z"/>
	<path style="fill:#B4BBCC;" d="M329.19,0L329.19,0c15.667,0,28.368,12.7,28.368,28.368v136.827h-56.735V28.368   C300.824,12.7,313.524,0,329.19,0z"/>
</g>
<rect x="300.818" y="90.017" style="opacity:0.1;enable-background:new    ;" width="56.735" height="75.175"/>
<rect x="154.447" y="90.017" style="opacity:0.1;enable-background:new    ;" width="56.735" height="75.175"/>
<rect x="138.866" y="165.191" style="opacity:0.1;enable-background:new    ;" width="234.255" height="75.175"/>
<path style="fill:#C7CFE2;" d="M381.748,125.755H130.252c-14.699,0-26.615,11.916-26.615,26.615v25.648  c0,14.699,11.916,26.615,26.615,26.615h251.496c14.699,0,26.615-11.916,26.615-26.615v-25.648  C408.364,137.672,396.448,125.755,381.748,125.755z"/>
<g>
</g>
<g>
</g>
<g>
</g>
<g>
</g>
<g>
</g>
<g>
</g>
<g>
</g>
<g>
</g>
<g>
</g>
<g>
</g>
<g>
</g>
<g>
</g>
<g>
</g>
<g>
</g>
<g>
</g>
</svg>
