<?xml version="1.0" encoding="iso-8859-1"?>
<!-- Generator: Adobe Illustrator 19.0.0, SVG Export Plug-In . SVG Version: 6.00 Build 0)  -->
<svg xmlns="http://www.w3.org/2000/svg" xmlns:xlink="http://www.w3.org/1999/xlink" version="1.1" id="Layer_1" x="0px" y="0px" viewBox="0 0 511.999 511.999" style="enable-background:new 0 0 511.999 511.999;" xml:space="preserve">
<path style="fill:#A5EB78;" d="M490.459,139.522c-13.413-24.343-32.425-46.06-56.507-64.546  c-47.877-36.752-111.076-56.993-177.951-56.993c-66.876,0-130.073,20.241-177.952,56.993  c-24.082,18.486-43.094,40.203-56.507,64.546C7.248,165.464,0,193.131,0,221.756s7.248,56.293,21.541,82.234  c12.356,22.425,29.475,42.614,50.92,60.109L60.577,477.06c-1.238,11.769,10.762,20.443,21.549,15.576l150.582-67.943l0,0  c7.701,0.548,15.47,0.836,23.291,0.836c66.875,0,130.073-20.241,177.951-56.993c24.082-18.486,43.094-40.203,56.507-64.546  c14.294-25.942,21.541-53.609,21.541-82.234S504.753,165.464,490.459,139.522z"/>
<path style="fill:#FFFFFF;" d="M395.901,318.968C358.877,347.389,309.193,363.04,256,363.04s-102.879-15.652-139.902-44.072  c-34.57-26.538-53.609-61.061-53.609-97.211s19.04-70.674,53.61-97.211c37.024-28.421,86.708-44.072,139.902-44.072  c53.192,0,102.877,15.652,139.901,44.072c34.571,26.537,53.61,61.061,53.61,97.211S430.472,292.43,395.901,318.968z"/>
<path style="opacity:0.1;enable-background:new    ;" d="M97.709,251.296c0-36.15,19.04-70.674,53.61-97.211  c37.024-28.421,86.708-44.072,139.902-44.072c47.141,0,91.519,12.302,126.78,34.882c-6.448-7.182-13.824-13.996-22.099-20.35  c-37.024-28.421-86.708-44.072-139.901-44.072s-102.879,15.652-139.902,44.072c-34.571,26.537-53.61,61.06-53.61,97.211  s19.04,70.674,53.61,97.211c4.212,3.233,8.595,6.292,13.121,9.19C108.734,305.343,97.709,278.792,97.709,251.296z"/>
<g>
</g>
<g>
</g>
<g>
</g>
<g>
</g>
<g>
</g>
<g>
</g>
<g>
</g>
<g>
</g>
<g>
</g>
<g>
</g>
<g>
</g>
<g>
</g>
<g>
</g>
<g>
</g>
<g>
</g>
</svg>
