<?xml version="1.0" encoding="iso-8859-1"?>
<!-- Generator: Adobe Illustrator 19.0.0, SVG Export Plug-In . SVG Version: 6.00 Build 0)  -->
<svg xmlns="http://www.w3.org/2000/svg" xmlns:xlink="http://www.w3.org/1999/xlink" version="1.1" id="Layer_1" x="0px" y="0px" viewBox="0 0 512 512" style="enable-background:new 0 0 512 512;" xml:space="preserve">
<path style="fill:#E6E6E6;" d="M396.025,0h-280.05C98.06,0,83.537,14.523,83.537,32.439v447.123  c0,17.915,14.523,32.439,32.439,32.439h280.05c17.916,0,32.439-14.523,32.439-32.439V32.439C428.463,14.523,413.94,0,396.025,0z"/>
<path style="fill:#515262;" d="M371.089,34.758H140.912c-12.491,0-22.617,10.125-22.617,22.617v397.252  c0,12.491,10.126,22.617,22.617,22.617h230.178c12.491,0,22.617-10.125,22.617-22.617V57.374  C393.705,44.883,383.579,34.758,371.089,34.758z"/>
<path style="fill:#E6E6E6;" d="M277.442,368.99v-39.21c0,0,69.395,11.296,69.395-49.644s-90.837-114.16-90.837-114.16  s-90.837,53.219-90.837,114.16s69.395,49.644,69.395,49.644v39.21H277.442z"/>
<path style="opacity:0.1;enable-background:new    ;" d="M153.053,479.561V32.439C153.053,14.523,167.576,0,185.491,0h-69.516  C98.06,0,83.537,14.523,83.537,32.439v447.123c0,17.915,14.523,32.439,32.439,32.439h69.516  C167.576,512,153.053,497.477,153.053,479.561z"/>
<g>
</g>
<g>
</g>
<g>
</g>
<g>
</g>
<g>
</g>
<g>
</g>
<g>
</g>
<g>
</g>
<g>
</g>
<g>
</g>
<g>
</g>
<g>
</g>
<g>
</g>
<g>
</g>
<g>
</g>
</svg>
