<?xml version="1.0" encoding="iso-8859-1"?>
<!-- Generator: Adobe Illustrator 19.0.0, SVG Export Plug-In . SVG Version: 6.00 Build 0)  -->
<svg xmlns="http://www.w3.org/2000/svg" xmlns:xlink="http://www.w3.org/1999/xlink" version="1.1" id="Layer_1" x="0px" y="0px" viewBox="0 0 511.999 511.999" style="enable-background:new 0 0 511.999 511.999;" xml:space="preserve">
<path style="fill:#FFE3A6;" d="M406.47,402.749c-45.814,0-83.087-37.273-83.087-83.086c0-45.814,37.273-83.087,83.087-83.087  c45.813,0,83.086,37.273,83.086,83.087C489.556,365.476,452.283,402.749,406.47,402.749z M406.47,276.633  c-23.728,0-43.031,19.303-43.031,43.031c0,23.727,19.303,43.029,43.031,43.029c23.727,0,43.029-19.303,43.029-43.029  C449.499,295.935,430.196,276.633,406.47,276.633z"/>
<path style="fill:#FFDF99;" d="M47.573,204.544v89.548c0,103.598,83.982,187.58,187.58,187.58l0,0  c103.598,0,187.58-83.982,187.58-187.58v-89.548H47.573z"/>
<path style="opacity:0.1;enable-background:new    ;" d="M108.873,294.092v-89.548h-61.3v89.548  c0,103.598,83.982,187.58,187.58,187.58l0,0c10.439,0,20.675-0.867,30.65-2.506C176.788,464.534,108.873,387.251,108.873,294.092z"/>
<g>
	<path style="fill:#C7CFE2;" d="M203.407,169.076c-1.441,0-2.902-0.34-4.266-1.056c-4.496-2.361-6.228-7.919-3.867-12.416   c11.923-22.708,6.915-33.607-0.017-48.689c-7.063-15.37-15.855-34.498-7.206-67.702c1.28-4.914,6.298-7.862,11.215-6.581   c4.914,1.28,7.861,6.302,6.581,11.215c-6.993,26.853-0.623,40.713,6.12,55.388c7.727,16.813,15.716,34.199-0.409,64.917   C209.912,167.286,206.715,169.076,203.407,169.076z"/>
	<path style="fill:#C7CFE2;" d="M276.184,169.077c-1.168,0-2.355-0.224-3.501-0.696c-4.696-1.936-6.932-7.311-4.996-12.005   c12.669-30.727,7.1-46.159,0.049-65.696c-7.2-19.948-15.362-42.559-7.024-83.325c1.018-4.976,5.875-8.185,10.851-7.166   c4.975,1.018,8.184,5.875,7.166,10.851c-7.302,35.701-0.385,54.863,6.304,73.397c7.392,20.478,15.034,41.653-0.345,78.949   C283.224,166.933,279.797,169.077,276.184,169.077z"/>
</g>
<path style="fill:#FFE3A6;" d="M22.442,443.978l9.841,23.44c11.34,27.01,37.775,44.581,67.069,44.581h271.6  c29.294,0,55.729-17.572,67.069-44.581l9.841-23.44H22.442z"/>
<path style="opacity:0.1;enable-background:new    ;" d="M93.583,467.417l-9.841-23.44h-61.3l9.841,23.44  c11.34,27.01,37.775,44.581,67.069,44.581h61.3C131.359,511.999,104.924,494.426,93.583,467.417z"/>
<g>
</g>
<g>
</g>
<g>
</g>
<g>
</g>
<g>
</g>
<g>
</g>
<g>
</g>
<g>
</g>
<g>
</g>
<g>
</g>
<g>
</g>
<g>
</g>
<g>
</g>
<g>
</g>
<g>
</g>
</svg>
