<?xml version="1.0" encoding="iso-8859-1"?>
<!-- Generator: Adobe Illustrator 19.0.0, SVG Export Plug-In . SVG Version: 6.00 Build 0)  -->
<svg xmlns="http://www.w3.org/2000/svg" xmlns:xlink="http://www.w3.org/1999/xlink" version="1.1" id="Layer_1" x="0px" y="0px" viewBox="0 0 512.001 512.001" style="enable-background:new 0 0 512.001 512.001;" xml:space="preserve">
<path style="fill:#FFD782;" d="M135.803,57.588L83.573,5.358c-7.144-7.144-18.724-7.144-25.868,0L28.604,34.459  c-7.144,7.144-7.144,18.724,0,25.868l52.231,52.231c8.69,8.69,19.739,14.638,31.778,17.108l3.009,0.617l91.06,91.06l37.907-37.907  l-91.06-91.06l-0.617-3.009C150.442,77.328,144.493,66.278,135.803,57.588z"/>
<path style="opacity:0.1;enable-background:new    ;" d="M135.803,57.588L83.573,5.358c-7.144-7.144-18.724-7.144-25.868,0  L28.604,34.459c-7.144,7.144-7.144,18.724,0,25.868l52.231,52.231c8.69,8.69,19.739,14.638,31.778,17.108l3.009,0.617l91.06,91.06  l37.907-37.907l-91.06-91.06l-0.617-3.009C150.442,77.328,144.493,66.278,135.803,57.588z"/>
<g>
	<path style="fill:#FFD782;" d="M112.558,80.834L60.327,28.604c-7.144-7.144-18.724-7.144-25.868,0L5.358,57.705   c-7.144,7.144-7.144,18.724,0,25.868l52.231,52.231c8.69,8.69,19.739,14.638,31.778,17.107l3.009,0.617l91.06,91.06l37.907-37.907   l-91.06-91.06l-0.617-3.009C127.196,100.574,121.247,89.524,112.558,80.834z"/>
	<path style="fill:#FFD782;" d="M235.082,177.445c49.437-49.437,105.322,9.315,123.951,60.901   c3.452,9.558,9.071,18.319,19.089,21.713c9.315,3.156,19.773,2.149,29.443,2.419c43.997,1.225,93.448,28.267,102.606,74.348   c5.299,26.664-1.35,55.801-14.329,79.35c-6.505,11.803-14.798,22.576-24.322,32.099c-9.524,9.523-20.296,17.816-32.099,24.322   c-23.549,12.979-52.686,19.629-79.35,14.329c-46.081-9.158-73.123-58.609-74.348-102.606c-0.27-9.67,0.736-20.128-2.418-29.443   c-3.394-10.018-12.155-15.639-21.713-19.089c-51.586-18.628-110.337-74.513-60.901-123.951L235.082,177.445z"/>
</g>
<path style="opacity:0.1;enable-background:new    ;" d="M235.082,177.445c49.437-49.437,105.322,9.315,123.951,60.901  c3.452,9.558,9.071,18.319,19.089,21.713c9.315,3.156,19.773,2.149,29.443,2.419c43.997,1.225,93.448,28.267,102.606,74.348  c5.299,26.664-1.35,55.801-14.329,79.35c-6.505,11.803-14.798,22.576-24.322,32.099c-9.524,9.523-20.296,17.816-32.099,24.322  c-23.549,12.979-52.686,19.629-79.35,14.329c-46.081-9.158-73.123-58.609-74.348-102.606c-0.27-9.67,0.736-20.128-2.418-29.443  c-3.394-10.018-12.155-15.639-21.713-19.089c-51.586-18.628-110.337-74.513-60.901-123.951L235.082,177.445z"/>
<path style="fill:#FFE3A6;" d="M211.837,200.691c49.437-49.437,105.321,9.315,123.951,60.901  c3.452,9.558,9.071,18.319,19.089,21.713c9.315,3.156,19.773,2.149,29.443,2.419c43.997,1.225,93.448,28.267,102.606,74.348  c5.299,26.664-1.35,55.801-14.329,79.35c-6.505,11.803-14.798,22.576-24.322,32.099c-9.523,9.523-20.296,17.816-32.099,24.322  c-23.549,12.979-52.687,19.629-79.35,14.329c-46.081-9.158-73.123-58.609-74.348-102.606c-0.27-9.67,0.736-20.128-2.419-29.443  c-3.394-10.018-12.155-15.639-21.713-19.09c-51.586-18.628-110.337-74.513-60.901-123.951L211.837,200.691z"/>
<circle style="opacity:0.1;enable-background:new    ;" cx="304.411" cy="327.654" r="34.897"/>
<g style="opacity:0.1;">
	<path d="M401.3,384.724l-39.823,39.823c-3.21,3.21-8.414,3.21-11.623,0c-3.21-3.21-3.21-8.414,0-11.623l39.823-39.823   c3.21-3.21,8.414-3.21,11.623,0C404.51,376.311,404.51,381.514,401.3,384.724z"/>
</g>
<g>
</g>
<g>
</g>
<g>
</g>
<g>
</g>
<g>
</g>
<g>
</g>
<g>
</g>
<g>
</g>
<g>
</g>
<g>
</g>
<g>
</g>
<g>
</g>
<g>
</g>
<g>
</g>
<g>
</g>
</svg>
