<?xml version="1.0" encoding="iso-8859-1"?>
<!-- Generator: Adobe Illustrator 19.0.0, SVG Export Plug-In . SVG Version: 6.00 Build 0)  -->
<svg xmlns="http://www.w3.org/2000/svg" xmlns:xlink="http://www.w3.org/1999/xlink" version="1.1" id="Layer_1" x="0px" y="0px" viewBox="0 0 512.002 512.002" style="enable-background:new 0 0 512.002 512.002;" xml:space="preserve">
<polygon style="fill:#C7CFE2;" points="248.003,0 48.188,0 48.188,489.337 398.016,489.337 398.016,129.677 323.01,64.839 "/>
<polygon style="opacity:0.1;enable-background:new    ;" points="248.003,0 213.817,0 213.817,163.863 398.016,163.863   398.016,129.677 323.01,64.839 "/>
<polygon style="fill:#DCE5FA;" points="326.45,0 248.003,0 248.003,129.677 398.016,129.677 398.016,71.567 "/>
<path style="opacity:0.1;enable-background:new    ;" d="M398.016,308.399c-6.419-1.069-13.007-1.634-19.725-1.634  c-66.01,0-119.711,53.702-119.711,119.711c0,23.042,6.55,44.58,17.877,62.862h121.559V308.399z"/>
<circle style="fill:#8CE0FF;" cx="378.292" cy="426.481" r="85.522"/>
<path style="fill:#FFFFFF;" d="M428.905,417.93h-42.067v-42.068c0-4.72-3.825-8.546-8.546-8.546c-4.721,0-8.546,3.827-8.546,8.546  v42.068h-42.067c-4.721,0-8.546,3.827-8.546,8.546s3.825,8.546,8.546,8.546h42.067v42.067c0,4.72,3.825,8.546,8.546,8.546  c4.721,0,8.546-3.827,8.546-8.546v-42.067h42.067c4.721,0,8.546-3.827,8.546-8.546C437.452,421.756,433.626,417.93,428.905,417.93z"/>
<g>
</g>
<g>
</g>
<g>
</g>
<g>
</g>
<g>
</g>
<g>
</g>
<g>
</g>
<g>
</g>
<g>
</g>
<g>
</g>
<g>
</g>
<g>
</g>
<g>
</g>
<g>
</g>
<g>
</g>
</svg>
