<?xml version="1.0" encoding="iso-8859-1"?>
<!-- Generator: Adobe Illustrator 19.0.0, SVG Export Plug-In . SVG Version: 6.00 Build 0)  -->
<svg xmlns="http://www.w3.org/2000/svg" xmlns:xlink="http://www.w3.org/1999/xlink" version="1.1" id="Layer_1" x="0px" y="0px" viewBox="0 0 512.001 512.001" style="enable-background:new 0 0 512.001 512.001;" xml:space="preserve">
<polygon style="fill:#FF6465;" points="115.361,194.835 57.681,257.452 115.361,320.069 309.786,401.078 309.786,113.826 "/>
<path style="fill:#E65A5B;" d="M33.603,194.835C15.045,194.835,0,209.879,0,228.439v58.027c0,18.559,15.045,33.603,33.603,33.603  h81.758V194.835H33.603z"/>
<path style="fill:#3F404D;" d="M440.238,103.214c-3.766-2.686-9.018-1.652-11.47,2.271l-12.834,20.531  c-2.236,3.575-1.297,8.245,2.107,10.736c33.34,24.397,53.771,69.761,53.771,120.461c0,23.919-4.634,47.4-13.399,67.903  c-8.953,20.937-21.967,38.316-37.888,50.691c-3.328,2.587-4.117,7.285-1.775,10.788l13.455,20.134  c2.573,3.85,7.853,4.707,11.545,1.912c21.964-16.639,39.714-39.889,51.616-67.726c10.883-25.455,16.635-54.398,16.635-83.702  C512,193.047,484.704,134.92,440.238,103.214z"/>
<path style="fill:#515262;" d="M397.907,172.02c-3.709-3.136-9.355-2.205-11.929,1.914l-13.016,20.82  c-1.992,3.187-1.459,7.285,1.182,9.96c9.028,9.143,17.29,27.675,17.29,52.497c0,17.703-5.262,40.112-16.696,51.973  c-2.644,2.744-3.096,6.919-0.978,10.087l13.607,20.364c2.685,4.019,8.315,4.793,11.936,1.591  c20.122-17.798,32.32-49.034,32.32-84.014C431.623,221.814,418.623,189.537,397.907,172.02z"/>
<g>
</g>
<g>
</g>
<g>
</g>
<g>
</g>
<g>
</g>
<g>
</g>
<g>
</g>
<g>
</g>
<g>
</g>
<g>
</g>
<g>
</g>
<g>
</g>
<g>
</g>
<g>
</g>
<g>
</g>
</svg>
