<?xml version="1.0" encoding="iso-8859-1"?>
<!-- Generator: Adobe Illustrator 19.0.0, SVG Export Plug-In . SVG Version: 6.00 Build 0)  -->
<svg xmlns="http://www.w3.org/2000/svg" xmlns:xlink="http://www.w3.org/1999/xlink" version="1.1" id="Layer_1" x="0px" y="0px" viewBox="0 0 511.999 511.999" style="enable-background:new 0 0 511.999 511.999;" xml:space="preserve">
<path style="fill:#7DD2F0;" d="M201.89,70.511H12.78C5.722,70.511,0,76.232,0,83.289v83.286c0,7.058,5.722,12.78,12.78,12.78h189.11  c7.058,0,12.78-5.721,12.78-12.78V83.289C214.67,76.232,208.949,70.511,201.89,70.511z"/>
<path style="opacity:0.1;enable-background:new    ;" d="M47.875,166.577V83.291c0-7.058,5.722-12.78,12.78-12.78H12.78  C5.722,70.511,0,76.232,0,83.291v83.286c0,7.058,5.722,12.78,12.78,12.78h47.875C53.597,179.356,47.875,173.635,47.875,166.577z"/>
<path style="fill:#78C9E6;" d="M213.859,215.569H72.624c-7.058,0-12.78,5.722-12.78,12.781v64.629c0,7.058,5.722,12.78,12.78,12.78  h141.235c7.058,0,12.78-5.721,12.78-12.78V228.35C226.639,221.291,220.918,215.569,213.859,215.569z"/>
<path style="opacity:0.1;enable-background:new    ;" d="M107.718,292.978V228.35c0-7.058,5.722-12.781,12.78-12.781H72.624  c-7.058,0-12.78,5.722-12.78,12.781v64.629c0,7.058,5.722,12.78,12.78,12.78h47.875C113.44,305.759,107.718,300.036,107.718,292.978  z"/>
<path style="fill:#6AB2CC;" d="M225.828,351.298H84.592c-7.058,0-12.78,5.722-12.78,12.781v64.629c0,7.057,5.722,12.78,12.78,12.78  h141.235c7.058,0,12.78-5.722,12.78-12.78V364.08C238.608,357.02,232.887,351.298,225.828,351.298z"/>
<path style="opacity:0.1;enable-background:new    ;" d="M119.687,428.708V364.08c0-7.058,5.722-12.781,12.78-12.781H84.592  c-7.058,0-12.78,5.722-12.78,12.781v64.628c0,7.057,5.722,12.78,12.78,12.78h47.875  C125.409,441.488,119.687,435.766,119.687,428.708z"/>
<path style="fill:#7DD2F0;" d="M310.109,70.511h189.11c7.058,0,12.78,5.721,12.78,12.78v83.286c0,7.058-5.722,12.78-12.78,12.78  h-189.11c-7.058,0-12.78-5.721-12.78-12.78V83.289C297.328,76.232,303.051,70.511,310.109,70.511z"/>
<path style="fill:#78C9E6;" d="M298.14,215.569h141.235c7.058,0,12.78,5.722,12.78,12.781v64.629c0,7.058-5.722,12.78-12.78,12.78  H298.14c-7.058,0-12.78-5.721-12.78-12.78V228.35C285.36,221.291,291.082,215.569,298.14,215.569z"/>
<path style="fill:#6AB2CC;" d="M286.171,351.298h141.235c7.058,0,12.78,5.722,12.78,12.781v64.629c0,7.057-5.722,12.78-12.78,12.78  H286.171c-7.058,0-12.78-5.722-12.78-12.78V364.08C273.391,357.02,279.113,351.298,286.171,351.298z"/>
<path style="opacity:0.1;enable-background:new    ;" d="M345.203,166.577V83.291c0-7.058,5.722-12.78,12.78-12.78h-47.875  c-7.058,0-12.78,5.721-12.78,12.78v83.286c0,7.058,5.722,12.78,12.78,12.78h47.875C350.925,179.356,345.203,173.635,345.203,166.577  z"/>
<path style="opacity:0.1;enable-background:new    ;" d="M333.235,292.978V228.35c0-7.058,5.722-12.781,12.78-12.781H298.14  c-7.058,0-12.78,5.722-12.78,12.781v64.629c0,7.058,5.722,12.78,12.78,12.78h47.875  C338.957,305.759,333.235,300.036,333.235,292.978z"/>
<path style="opacity:0.1;enable-background:new    ;" d="M321.266,428.708V364.08c0-7.058,5.722-12.781,12.78-12.781h-47.875  c-7.058,0-12.78,5.722-12.78,12.781v64.628c0,7.057,5.722,12.78,12.78,12.78h47.875  C326.988,441.488,321.266,435.766,321.266,428.708z"/>
<g>
</g>
<g>
</g>
<g>
</g>
<g>
</g>
<g>
</g>
<g>
</g>
<g>
</g>
<g>
</g>
<g>
</g>
<g>
</g>
<g>
</g>
<g>
</g>
<g>
</g>
<g>
</g>
<g>
</g>
</svg>
