<?xml version="1.0" encoding="iso-8859-1"?>
<!-- Generator: Adobe Illustrator 19.0.0, SVG Export Plug-In . SVG Version: 6.00 Build 0)  -->
<svg xmlns="http://www.w3.org/2000/svg" xmlns:xlink="http://www.w3.org/1999/xlink" version="1.1" id="Layer_1" x="0px" y="0px" viewBox="0 0 512 512" style="enable-background:new 0 0 512 512;" xml:space="preserve">
<polygon style="fill:#6AB2CC;" points="46.929,392.549 0,471.592 512,471.592 465.071,392.549 "/>
<polygon style="fill:#71BDD9;" points="112.555,282.013 68.771,355.76 443.229,355.76 399.444,282.013 "/>
<polygon style="fill:#7DD2F0;" points="311.974,134.687 256,40.408 200.026,134.687 "/>
<polygon style="fill:#78C9E6;" points="178.183,171.478 134.398,245.223 377.601,245.223 333.817,171.478 "/>
<polygon style="opacity:0.1;enable-background:new    ;" points="244.808,134.687 256,40.408 200.026,134.687 "/>
<polygon style="opacity:0.1;enable-background:new    ;" points="240.44,171.478 178.183,171.478 134.398,245.223 231.686,245.223   "/>
<polygon style="opacity:0.1;enable-background:new    ;" points="227.319,282.013 112.555,282.013 68.771,355.76 218.564,355.76 "/>
<polygon style="opacity:0.1;enable-background:new    ;" points="214.197,392.549 46.929,392.549 0,471.592 204.813,471.592 "/>
<g>
</g>
<g>
</g>
<g>
</g>
<g>
</g>
<g>
</g>
<g>
</g>
<g>
</g>
<g>
</g>
<g>
</g>
<g>
</g>
<g>
</g>
<g>
</g>
<g>
</g>
<g>
</g>
<g>
</g>
</svg>
