<?xml version="1.0" encoding="iso-8859-1"?>
<!-- Generator: Adobe Illustrator 19.0.0, SVG Export Plug-In . SVG Version: 6.00 Build 0)  -->
<svg xmlns="http://www.w3.org/2000/svg" xmlns:xlink="http://www.w3.org/1999/xlink" version="1.1" id="Layer_1" x="0px" y="0px" viewBox="0 0 511.999 511.999" style="enable-background:new 0 0 511.999 511.999;" xml:space="preserve">
<path style="fill:#353640;" d="M464.612,0H47.386C21.216,0,0,21.216,0,47.386v417.226c0,26.172,21.216,47.386,47.386,47.386h417.226  c26.17,0,47.386-21.216,47.386-47.386V47.386C512,21.216,490.784,0,464.612,0z"/>
<path style="opacity:0.1;enable-background:new    ;" d="M63.521,464.612V47.386C63.521,21.216,84.736,0,110.907,0H47.386  C21.216,0,0,21.216,0,47.386v417.226c0,26.17,21.216,47.386,47.386,47.386h63.521C84.736,512,63.521,490.784,63.521,464.612z"/>
<g>
	<rect x="129.645" y="218.384" style="fill:#DCE5FA;" width="252.71" height="75.246"/>
	<circle style="fill:#DCE5FA;" cx="256.001" cy="131.259" r="37.537"/>
	<circle style="fill:#DCE5FA;" cx="256.001" cy="380.73" r="37.537"/>
</g>
<g>
</g>
<g>
</g>
<g>
</g>
<g>
</g>
<g>
</g>
<g>
</g>
<g>
</g>
<g>
</g>
<g>
</g>
<g>
</g>
<g>
</g>
<g>
</g>
<g>
</g>
<g>
</g>
<g>
</g>
</svg>
