<?xml version="1.0" encoding="iso-8859-1"?>
<!-- Generator: Adobe Illustrator 19.0.0, SVG Export Plug-In . SVG Version: 6.00 Build 0)  -->
<svg xmlns="http://www.w3.org/2000/svg" xmlns:xlink="http://www.w3.org/1999/xlink" version="1.1" id="Layer_1" x="0px" y="0px" viewBox="0 0 511.999 511.999" style="enable-background:new 0 0 511.999 511.999;" xml:space="preserve">
<path style="fill:#6AB2CC;" d="M255.985,438.398l36.521-36.521c-4.343-11.401-19.034-19.792-36.493-19.792  c-17.48,0-32.186,8.411-36.509,19.832L255.985,438.398L255.985,438.398L255.985,438.398z"/>
<path style="fill:#71BDD9;" d="M330.576,363.808l41.346-41.346c-27.738-32.066-70.352-50.965-115.91-50.965  c-45.575,0-88.199,18.911-115.936,50.995l41.349,41.349c16.507-21.393,44.29-34.138,74.587-34.138  C286.293,329.7,314.067,342.434,330.576,363.808z"/>
<path style="fill:#78C9E6;" d="M342.622,250.109c22.252,10.648,42.109,25.538,58.165,43.487l41.197-41.197  c-20.77-22.579-46.067-41.31-74.238-54.792c-34.256-16.394-72.893-25.058-111.734-25.058c-38.852,0-77.5,8.67-111.764,25.072  c-28.172,13.486-53.468,32.223-74.235,54.808l41.198,41.198c16.056-17.957,35.915-32.853,58.169-43.507  c26.468-12.67,56.425-19.367,86.632-19.367C286.212,230.752,316.161,237.446,342.622,250.109z"/>
<path style="fill:#7DD2F0;" d="M385.336,160.855c32.32,15.466,61.419,36.897,85.471,62.721l41.191-41.191  c-28.733-30.463-63.289-55.728-101.539-74.032C362.952,85.617,309.544,73.6,256.012,73.6c-53.547,0-106.967,12.024-154.488,34.771  C63.279,126.681,28.729,151.949,0,182.413l41.193,41.191c24.05-25.829,53.146-47.263,85.464-62.735  c39.724-19.014,84.454-29.066,129.356-29.066C300.904,131.804,345.623,141.85,385.336,160.855z"/>
<g>
</g>
<g>
</g>
<g>
</g>
<g>
</g>
<g>
</g>
<g>
</g>
<g>
</g>
<g>
</g>
<g>
</g>
<g>
</g>
<g>
</g>
<g>
</g>
<g>
</g>
<g>
</g>
<g>
</g>
</svg>
