<?xml version="1.0" encoding="iso-8859-1"?>
<!-- Generator: Adobe Illustrator 19.0.0, SVG Export Plug-In . SVG Version: 6.00 Build 0)  -->
<svg xmlns="http://www.w3.org/2000/svg" xmlns:xlink="http://www.w3.org/1999/xlink" version="1.1" id="Layer_1" x="0px" y="0px" viewBox="0 0 512 512" style="enable-background:new 0 0 512 512;" xml:space="preserve">
<path style="fill:#5A4146;" d="M255.999,0L255.999,0c-81.614,0-147.775,66.161-147.775,147.775v67.238h295.549v-67.238  C403.774,66.161,337.613,0,255.999,0z"/>
<path style="opacity:0.1;enable-background:new    ;" d="M255.999,0L255.999,0c-9.211,0-18.223,0.85-26.966,2.463  c68.736,12.675,120.808,72.909,120.808,145.312v67.238h53.932v-67.238C403.774,66.161,337.613,0,255.999,0z"/>
<g>
	<path style="fill:#E6B273;" d="M129.749,176.207c-20.043,0-36.292,16.249-36.292,36.292l0,0c0,20.043,16.249,36.292,36.292,36.292   h17.649v-72.584L129.749,176.207L129.749,176.207z"/>
	<path style="fill:#E6B273;" d="M382.25,176.207c20.043,0,36.292,16.249,36.292,36.292l0,0c0,20.043-16.249,36.292-36.292,36.292   h-17.649v-72.584L382.25,176.207L382.25,176.207z"/>
</g>
<path style="fill:#6AB2CC;" d="M430.581,512c-19.401-47.869-57.917-85.948-106.082-104.766l-0.762-0.289H188.26  C139.743,425.66,100.922,463.882,81.419,512H430.581L430.581,512z"/>
<path style="fill:#F0C087;" d="M294.409,398.315v-68.184H217.59v68.186c-10.095,2.095-19.897,4.992-29.329,8.63  c8.189,29.731,35.404,51.575,67.739,51.575s59.55-21.845,67.739-51.575C314.305,403.307,304.504,400.411,294.409,398.315z"/>
<path style="opacity:0.1;enable-background:new    ;" d="M217.59,330.131v56.92c12.304,3.069,25.168,4.708,38.41,4.708  s26.105-1.64,38.41-4.708v-56.92H217.59z"/>
<path style="fill:#F0C087;" d="M347.002,116.911c-12.565,0-22.751-10.186-22.751-22.751c0,12.564-10.186,22.751-22.751,22.751  c-12.565,0-22.751-10.186-22.751-22.751c0,12.564-10.186,22.751-22.751,22.751s-22.751-10.186-22.751-22.751  c0,12.564-10.186,22.751-22.751,22.751s-22.751-10.186-22.751-22.751c0,12.564-10.186,22.751-22.751,22.751  c-7.337,0-13.843-3.487-18.004-8.878c-11.022,17.803-17.39,38.79-17.39,61.268v63.703c0,69.807,56.59,126.397,126.397,126.397  s126.397-56.59,126.397-126.397v-63.703c0-22.478-6.368-43.465-17.39-61.268C360.846,113.423,354.339,116.911,347.002,116.911z"/>
<g>
	<path style="fill:#5A4146;" d="M255.999,293.448c-14.72,0-27.882-2.907-35.209-7.776c-3.721-2.473-4.733-7.494-2.26-11.216   c2.473-3.721,7.494-4.732,11.216-2.26c3.799,2.525,13.39,5.073,26.254,5.073c12.863,0,22.454-2.548,26.254-5.072   c3.721-2.472,8.742-1.46,11.215,2.261c2.472,3.721,1.46,8.742-2.261,11.215C283.88,290.541,270.718,293.448,255.999,293.448z"/>
	<path style="fill:#5A4146;" d="M174.595,194.465c-2.344,0-4.668-1.013-6.268-2.97c-2.828-3.459-2.317-8.556,1.142-11.383   c6.32-5.167,17.571-8.252,30.099-8.252s23.78,3.085,30.1,8.251c3.459,2.828,3.97,7.925,1.143,11.384   c-2.827,3.459-7.925,3.97-11.384,1.143c-2.708-2.214-10.079-4.598-19.859-4.598s-17.149,2.383-19.858,4.597   C178.209,193.867,176.395,194.465,174.595,194.465z"/>
</g>
<circle style="fill:#353640;" cx="199.571" cy="213.572" r="13.842"/>
<path style="fill:#5A4146;" d="M337.404,194.465c-1.801,0-3.612-0.598-5.116-1.827c-2.708-2.214-10.078-4.597-19.858-4.597  c-9.78,0-17.149,2.383-19.859,4.598c-3.459,2.827-8.556,2.316-11.384-1.143c-2.828-3.459-2.316-8.556,1.143-11.384  c6.32-5.167,17.572-8.251,30.1-8.251c12.527,0,23.78,3.085,30.099,8.252c3.459,2.828,3.97,7.925,1.142,11.383  C342.072,193.452,339.748,194.465,337.404,194.465z"/>
<circle style="fill:#353640;" cx="312.43" cy="213.572" r="13.842"/>
<g>
</g>
<g>
</g>
<g>
</g>
<g>
</g>
<g>
</g>
<g>
</g>
<g>
</g>
<g>
</g>
<g>
</g>
<g>
</g>
<g>
</g>
<g>
</g>
<g>
</g>
<g>
</g>
<g>
</g>
</svg>
