<?xml version="1.0" encoding="iso-8859-1"?>
<!-- Generator: Adobe Illustrator 19.0.0, SVG Export Plug-In . SVG Version: 6.00 Build 0)  -->
<svg xmlns="http://www.w3.org/2000/svg" xmlns:xlink="http://www.w3.org/1999/xlink" version="1.1" id="Layer_1" x="0px" y="0px" viewBox="0 0 512.001 512.001" style="enable-background:new 0 0 512.001 512.001;" xml:space="preserve">
<path style="fill:#9DA4B3;" d="M184.18,307.043c0,10.896,8.834,19.73,19.73,19.73h288.361c10.896,0,19.73-8.834,19.73-19.73v-168.93  L348.089,97.952l-163.911,40.161v168.93H184.18z"/>
<polygon style="fill:#FFFFFF;" points="223.651,287.301 223.651,138.113 348.089,97.952 472.528,138.113 472.528,287.301 "/>
<path style="fill:#B4BBCC;" d="M492.27,57.791H203.91c-10.896,0-19.73,8.834-19.73,19.73v60.591H512V77.522  C512,66.625,503.166,57.791,492.27,57.791z"/>
<path style="opacity:0.1;enable-background:new    ;" d="M251.845,307.043V77.522c0-10.896,8.834-19.73,19.73-19.73H203.91  c-10.896,0-19.73,8.834-19.73,19.73v60.591v168.93c0,10.896,8.834,19.73,19.73,19.73h67.665  C260.678,326.773,251.845,317.939,251.845,307.043z"/>
<circle style="fill:#FF6465;" cx="374.032" cy="97.958" r="16.95"/>
<circle style="fill:#FFD782;" cx="421.861" cy="97.958" r="16.95"/>
<circle style="fill:#A5EB78;" cx="469.7" cy="97.958" r="16.95"/>
<path style="fill:#9DA4B3;" d="M0,434.48c0,10.896,8.834,19.73,19.73,19.73h288.361c10.896,0,19.73-8.834,19.73-19.73v-168.93  l-163.911-40.161L0,265.549V434.48z"/>
<polygon style="fill:#FFFFFF;" points="39.472,414.738 39.472,265.549 163.911,225.389 288.349,265.549 288.349,414.738 "/>
<path style="fill:#B4BBCC;" d="M308.09,185.228H19.73c-10.896,0-19.73,8.834-19.73,19.73v60.591h327.82v-60.591  C327.82,194.062,318.988,185.228,308.09,185.228z"/>
<circle style="fill:#FF6465;" cx="189.847" cy="225.383" r="16.95"/>
<circle style="fill:#FFD782;" cx="237.686" cy="225.383" r="16.95"/>
<circle style="fill:#A5EB78;" cx="285.515" cy="225.383" r="16.95"/>
<path style="opacity:0.1;enable-background:new    ;" d="M67.665,434.48V204.958c0-10.896,8.834-19.73,19.73-19.73H19.73  c-10.896,0-19.73,8.834-19.73,19.73V434.48c0,10.896,8.834,19.73,19.73,19.73h67.665C76.499,454.21,67.665,445.376,67.665,434.48z"/>
<g>
</g>
<g>
</g>
<g>
</g>
<g>
</g>
<g>
</g>
<g>
</g>
<g>
</g>
<g>
</g>
<g>
</g>
<g>
</g>
<g>
</g>
<g>
</g>
<g>
</g>
<g>
</g>
<g>
</g>
</svg>
