<?xml version="1.0" encoding="iso-8859-1"?>
<!-- Generator: Adobe Illustrator 19.0.0, SVG Export Plug-In . SVG Version: 6.00 Build 0)  -->
<svg version="1.1" id="Capa_1" xmlns="http://www.w3.org/2000/svg" xmlns:xlink="http://www.w3.org/1999/xlink" x="0px" y="0px"
	 viewBox="0 0 400 400" style="enable-background:new 0 0 400 400;" xml:space="preserve">
<g>
	<path style="fill:#CA7300;" d="M260,224h72c17.673,0,32,14.327,32,32l0,0c0,17.673-14.327,32-32,32h-72V224z"/>
	<path style="fill:#CA7300;" d="M300,360H36V160c0-17.673,14.327-32,32-32h232V360z"/>
</g>
<polygon style="fill:#5EAC24;" points="68,168 228,8 356,136 324,168 "/>
<polygon style="fill:#47821B;" points="100,136 100,8 228,8 "/>
<path style="fill:#69C229;" d="M276,168l20.72-20.64c-0.004-0.004-0.008-0.008-0.013-0.013c-6.245-6.252-6.239-16.382,0.013-22.627
	l-57.36-57.44c-0.004,0.004-0.008,0.008-0.013,0.013c-6.252,6.245-16.383,6.239-22.627-0.013L116,168H276z"/>
<path style="fill:#529820;" d="M132,56c8.837,0,16-7.163,16-16h48l-64,64V56z"/>
<path style="fill:#5EAC24;" d="M140,168c0-30.928,25.072-56,56-56s56,25.072,56,56H140z"/>
<rect x="68" y="360" style="fill:#FF9811;" width="248" height="32"/>
<path style="fill:#E4880F;" d="M36,328v32c0,17.673,14.327,32,32,32v-32C50.327,360,36,345.673,36,328z"/>
<polygon style="fill:#FFAB3D;" points="292,192 68,192 68,360 316,360 316,192 "/>
<path style="fill:#E49937;" d="M68,360V192c-17.673,0-32-14.327-32-32v32v136C36,345.673,50.327,360,68,360z"/>
<path style="fill:#EE8700;" d="M364,248L364,248c0,17.673-14.327,32-32,32h-72c-17.673,0-32,14.327-32,32l0,0
	c0,17.673,14.327,32,32,32h72c17.673,0,32-14.327,32-32V248z"/>
<rect x="252" y="304" style="fill:#FFD422;" width="16" height="16"/>
<g>
	<rect x="68" y="352" style="fill:#FFFFFF;" width="16" height="16"/>
	<rect x="100" y="352" style="fill:#FFFFFF;" width="56" height="16"/>
	<rect x="268" y="320" style="fill:#FFFFFF;" width="40" height="16"/>
	<path style="fill:#FFFFFF;" d="M324,336v-16c4.41,0,8-3.59,8-8h16C348,325.234,337.234,336,324,336z"/>
</g>
<path d="M308,384H68c-13.234,0-24-10.766-24-24V191.795C50.706,196.872,58.96,200,68,200h240v56h16v-64c0-4.418-3.582-8-8-8H68
	c-13.234,0-24-10.766-24-24s10.766-24,24-24h8v-16h-8c-22.055,0-40,17.945-40,40v200c0,22.055,17.945,40,40,40h248
	c4.418,0,8-3.582,8-8v-24h-16V384z"/>
<path d="M332,208v16c13.234,0,24,10.766,24,24s-10.766,24-24,24h-72c-22.055,0-40,17.945-40,40s17.945,40,40,40h72
	c22.055,0,40-17.945,40-40v-64C372,225.945,354.055,208,332,208z M356,312c0,13.234-10.766,24-24,24h-72c-13.234,0-24-10.766-24-24
	s10.766-24,24-24h72c8.996,0,17.309-2.988,24-8.02V312z"/>
<path d="M73.656,173.656L228,19.313L344.688,136l-26.344,26.344l11.313,11.313l32-32c3.125-3.125,3.125-8.188,0-11.313l-128-128
	c-3.125-3.125-8.188-3.125-11.313,0l-160,160L73.656,173.656z"/>
<path d="M108,16h88V0h-96c-4.418,0-8,3.582-8,8v96h16V16z"/>
<path d="M245.027,61.637c-1.5-1.508-3.539-2.348-5.664-2.352c-0.004,0-0.008,0-0.008,0c-2.121,0-4.16,0.848-5.66,2.348
	c-3.125,3.113-8.207,3.113-11.316-0.008c-1.5-1.5-3.535-2.344-5.66-2.344c-2.121,0-4.156,0.844-5.656,2.344l-20.719,20.719
	l11.313,11.313l16.031-16.031c6.523,3.109,14.164,3.121,20.688,0.004l15.957,16.016l11.336-11.289L245.027,61.637z"/>
<path d="M304.719,124.719c0-2.121-0.844-4.156-2.344-5.656l-20.719-20.719l-11.313,11.313l16.031,16.031
	c-3.109,6.52-3.113,14.164-0.004,20.688l-16.016,15.957l11.289,11.336l20.719-20.641c1.508-1.5,2.348-3.539,2.352-5.664
	c0-2.125-0.848-4.168-2.348-5.668c-3.117-3.121-3.113-8.199,0.008-11.316C303.875,128.879,304.719,126.844,304.719,124.719z"/>
<path d="M154.629,48H164V32h-16c-4.418,0-8,3.582-8,8c0,4.41-3.59,8-8,8c-4.418,0-8,3.582-8,8v16h16v-9.371
	C146.809,60.215,152.215,54.809,154.629,48z"/>
<rect x="252" y="304" width="16" height="16"/>
<path d="M196,104c-35.289,0-64,28.711-64,64h16c0-26.469,21.531-48,48-48s48,21.531,48,48h16C260,132.711,231.289,104,196,104z"/>
<g>
</g>
<g>
</g>
<g>
</g>
<g>
</g>
<g>
</g>
<g>
</g>
<g>
</g>
<g>
</g>
<g>
</g>
<g>
</g>
<g>
</g>
<g>
</g>
<g>
</g>
<g>
</g>
<g>
</g>
</svg>
