<?xml version="1.0" encoding="iso-8859-1"?>
<!-- Generator: Adobe Illustrator 19.0.0, SVG Export Plug-In . SVG Version: 6.00 Build 0)  -->
<svg version="1.1" id="Capa_1" xmlns="http://www.w3.org/2000/svg" xmlns:xlink="http://www.w3.org/1999/xlink" x="0px" y="0px"
	 viewBox="0 0 496 496" style="enable-background:new 0 0 496 496;" xml:space="preserve">
<path style="fill:#FFB398;" d="M136,310.2L136,310.2c0.039,17.231,14.038,31.169,31.27,31.13c0.243-0.001,0.487-0.004,0.73-0.01l0,0
	v-0.4c8.837,0,16,7.163,16,16l0,0c0,8.837-7.163,16-16,16h-1.36c-8.642,34.683-43.764,55.794-78.447,47.153
	c-23.228-5.788-41.365-23.924-47.153-47.153H40c-8.837,0-16-7.163-16-16l0,0c0-8.837,7.163-16,16-16v0.4l0,0
	c17.226,0.442,31.548-13.164,31.99-30.39c0.006-0.243,0.01-0.487,0.01-0.73l0,0"/>
<path style="fill:#884D00;" d="M168,310.2v31.44l0,0c-17.226,0.442-31.548-13.163-31.991-30.389
	c-0.009-0.35-0.012-0.701-0.009-1.051l0,0H72l0,0c-0.039,17.231-14.038,31.169-31.27,31.13c-0.243-0.001-0.487-0.004-0.73-0.01
	V310.2c0,0,0-56,64-56S168,310.2,168,310.2z"/>
<g>
	<path style="fill:#FFB398;" d="M206.333,79.743c-0.319,0.98-0.579,1.987-0.99,2.921C205.755,81.728,206.013,80.724,206.333,79.743z
		"/>
	<path style="fill:#FFB398;" d="M207.24,76.845c-0.22,1.001-0.593,1.936-0.907,2.898C206.647,78.78,207.02,77.848,207.24,76.845z"/>
	<path style="fill:#FFB398;" d="M203.89,85.327c-0.488,0.868-0.923,1.771-1.49,2.584C202.968,87.096,203.401,86.197,203.89,85.327z"
		/>
	<path style="fill:#FFB398;" d="M207.642,73.67c-0.122,1.063-0.177,2.148-0.402,3.175C207.466,75.816,207.521,74.735,207.642,73.67z
		"/>
	<path style="fill:#FFB398;" d="M205.343,82.664c-0.41,0.933-0.957,1.782-1.453,2.664C204.387,84.444,204.933,83.598,205.343,82.664
		z"/>
	<path style="fill:#FFB398;" d="M272.69,76.621c2.936,14.582,15.929,25.414,31.31,25.019v-0.32c-0.243,0.006-0.487,0.009-0.73,0.01
		C288.242,101.364,275.685,90.761,272.69,76.621z"/>
	<path style="fill:#FFB398;" d="M272.009,71.251c0.037,1.435,0.307,2.8,0.53,4.178c-0.294-1.708-0.535-3.438-0.539-5.229
		C271.997,70.55,272,70.901,272.009,71.251z"/>
	<path style="fill:#FFB398;" d="M272.69,76.621c-0.078-0.388-0.087-0.798-0.151-1.191C272.606,75.822,272.608,76.234,272.69,76.621z
		"/>
	<path style="fill:#FFB398;" d="M207.99,70.93c0.006-0.243,0.01-0.487,0.01-0.73c-0.002,1.189-0.226,2.316-0.358,3.47
		C207.748,72.752,207.966,71.871,207.99,70.93z"/>
</g>
<path style="fill:#EBE5DD;" d="M272.539,75.429c0.063,0.394,0.073,0.803,0.151,1.191c2.995,14.141,15.552,24.743,30.58,24.709
	c0.244,0,0.487-0.004,0.73-0.01v-0.4V70.2h-32C272.004,71.992,272.245,73.721,272.539,75.429z"/>
<g>
	<path style="fill:#FFB398;" d="M202.4,87.912c-0.576,0.827-1.271,1.554-1.923,2.32C201.13,89.465,201.824,88.74,202.4,87.912z"/>
	<path style="fill:#FFB398;" d="M176.73,101.33c0.939,0.002,1.825-0.191,2.744-0.271c-1.156,0.1-2.287,0.291-3.474,0.261
		C176.243,101.326,176.487,101.329,176.73,101.33z"/>
	<path style="fill:#FFB398;" d="M182.664,100.745c-1.035,0.197-2.122,0.222-3.19,0.314
		C180.543,100.967,181.627,100.943,182.664,100.745z"/>
</g>
<path style="fill:#EBE5DD;" d="M179.474,101.059c1.068-0.092,2.155-0.117,3.19-0.314c1.006-0.192,1.95-0.539,2.92-0.825
	c0.989-0.292,2.003-0.523,2.949-0.908c0.938-0.382,1.797-0.903,2.688-1.371c0.888-0.467,1.808-0.879,2.643-1.427
	c0.839-0.55,1.582-1.224,2.363-1.851c0.775-0.622,1.588-1.197,2.3-1.889c0.71-0.69,1.307-1.487,1.949-2.243
	c0.651-0.766,1.347-1.493,1.923-2.32c0.566-0.814,1.001-1.716,1.49-2.584c0.496-0.882,1.043-1.731,1.453-2.664
	c0.411-0.934,0.671-1.941,0.99-2.921c0.313-0.962,0.687-1.897,0.907-2.898c0.226-1.027,0.281-2.112,0.402-3.175
	c0.132-1.154,0.355-2.281,0.358-3.47h-32v30.72v0.4C177.187,101.35,178.318,101.159,179.474,101.059z"/>
<g>
	<path style="fill:#FFB398;" d="M304,100.92v0.4v0.32c-15.381,0.395-28.374-10.437-31.31-25.019
		c-0.082-0.387-0.083-0.799-0.151-1.191c-0.223-1.378-0.493-2.743-0.53-4.178C272,70.901,271.997,70.55,272,70.2h32c0,0,0-56-64-56
		s-64,56-64,56h32c0,0.243-0.004,0.487-0.01,0.73c-0.024,0.941-0.242,1.822-0.348,2.74c-0.122,1.064-0.176,2.146-0.402,3.175
		c-0.22,1.003-0.593,1.935-0.907,2.898c-0.32,0.981-0.578,1.985-0.99,2.921c-0.411,0.935-0.956,1.78-1.453,2.664
		c-0.489,0.869-0.922,1.769-1.49,2.584c-0.577,0.829-1.271,1.553-1.923,2.32c-0.643,0.757-1.238,1.55-1.949,2.243
		c-0.713,0.693-1.524,1.266-2.3,1.889c-0.782,0.628-1.522,1.299-2.363,1.851c-0.836,0.548-1.754,0.959-2.643,1.427
		c-0.892,0.469-1.748,0.989-2.688,1.371c-0.948,0.385-1.959,0.616-2.949,0.908c-0.971,0.287-1.913,0.633-2.92,0.825
		c-1.037,0.198-2.121,0.222-3.19,0.314c-0.918,0.079-1.804,0.272-2.744,0.271c-0.244,0-0.487-0.004-0.73-0.01v-0.4
		c-8.836,0-16,7.164-16,16c0,8.837,7.164,16,16,16h1.04c5.788,23.229,23.924,41.365,47.153,47.153
		c34.683,8.642,69.805-12.469,78.447-47.153H304c8.836,0,16-7.163,16-16C320,108.083,312.836,100.92,304,100.92z"/>
	<path style="fill:#FFB398;" d="M200.478,90.232c-0.643,0.755-1.239,1.552-1.949,2.243C199.24,91.782,199.834,90.989,200.478,90.232
		z"/>
	<path style="fill:#FFB398;" d="M185.584,99.92c-0.97,0.286-1.914,0.633-2.92,0.825C183.672,100.553,184.613,100.207,185.584,99.92z
		"/>
	<path style="fill:#FFB398;" d="M196.228,94.364c-0.781,0.627-1.524,1.3-2.363,1.851C194.706,95.663,195.446,94.992,196.228,94.364z
		"/>
	<path style="fill:#FFB398;" d="M198.528,92.474c-0.712,0.692-1.525,1.267-2.3,1.889C197.004,93.74,197.815,93.168,198.528,92.474z"
		/>
	<path style="fill:#FFB398;" d="M191.222,97.641c-0.891,0.468-1.75,0.989-2.688,1.371C189.474,98.63,190.33,98.11,191.222,97.641z"
		/>
</g>
<path style="fill:#EC8600;" d="M424,270.2l19.04-19.04c3.184-3.18,7.5-4.964,12-4.96l0,0c9.367,0,16.96,7.593,16.96,16.96v71.04h16
	c0,26.51-21.49,48-48,48l0,0L424,270.2z"/>
<g>
	<path style="fill:#FFB398;" d="M193.865,96.214c-0.834,0.547-1.755,0.96-2.643,1.427C192.111,97.174,193.028,96.762,193.865,96.214
		z"/>
	<path style="fill:#FFB398;" d="M188.534,99.012c-0.946,0.385-1.96,0.617-2.949,0.908C186.575,99.628,187.586,99.397,188.534,99.012
		z"/>
</g>
<path style="fill:#FF9811;" d="M296,350.2v-16c0-44.183,35.817-80,80-80l0,0c44.183,0,80,35.817,80,80v16H296z"/>
<path style="fill:#EBE5DD;" d="M216,150.2c0-13.255,10.745-24,24-24l0,0c13.255,0,24,10.745,24,24H216z"/>
<g>
	<path style="fill:#29485A;" d="M72,454.2v-32H40c-17.673,0-32,14.327-32,32v32h80v-32H72z"/>
	<path style="fill:#29485A;" d="M168,422.2h-32v32h-16v32h80v-32C200,436.527,185.673,422.2,168,422.2z"/>
</g>
<path style="fill:#FFB398;" d="M408,310.2L408,310.2c0,17.187,13.933,31.12,31.12,31.12H440v-0.4c8.837,0,16,7.163,16,16l0,0
	c0,8.837-7.163,16-16,16h-1.36c-8.642,34.683-43.764,55.794-78.447,47.153c-23.228-5.788-41.365-23.924-47.153-47.153H312
	c-8.837,0-16-7.163-16-16l0,0c0-8.837,7.163-16,16-16v0.4h0.72c17.177-0.087,31.105-13.943,31.28-31.12l0,0v32l0,0
	c17.673,0,32-14.327,32-32l0,0v32l0,0C393.673,342.2,408,327.873,408,310.2z"/>
<polygon style="fill:#F40E34;" points="136,454.2 136,422.2 72,422.2 72,454.2 88,454.2 88,486.2 120,486.2 120,454.2 "/>
<path style="fill:#29485A;" d="M336,454.2v-32h-24c-17.673,0-32,14.327-32,32v32h72l24-48L336,454.2z"/>
<g>
	<polygon style="fill:#F40E34;" points="376,438.2 416,454.2 416,422.2 336,422.2 336,454.2 	"/>
	<polygon style="fill:#F40E34;" points="352,486.2 400,486.2 376,438.2 	"/>
</g>
<path style="fill:#29485A;" d="M440,422.2h-24v32l-40-16l24,48h72v-32C472,436.527,457.673,422.2,440,422.2z"/>
<polygon style="fill:#F40E34;" points="208,222.2 224,206.2 240,222.2 256,206.2 272,222.2 288,222.2 288,182.2 192,182.2 
	192,222.2 "/>
<g>
	<path style="fill:#29485A;" d="M192,182.2h-16c-17.673,0-32,14.327-32,32v24h48v-16V182.2z"/>
	<path style="fill:#29485A;" d="M304,182.2h-16v40v16h48v-24C336,196.527,321.673,182.2,304,182.2z"/>
</g>
<polygon style="fill:#EBE5DD;" points="272,222.2 256,206.2 240,222.2 224,206.2 208,222.2 192,222.2 192,238.2 288,238.2 
	288,222.2 "/>
<g>
	<rect x="320" y="326.2" style="fill:#FFFFFF;" width="16" height="16"/>
	<path style="fill:#FFFFFF;" d="M336,310.2h-16c0-22.055,17.945-40,40-40v16C346.766,286.2,336,296.966,336,310.2z"/>
	<rect x="48" y="326.2" style="fill:#FFFFFF;" width="16" height="16"/>
	<path style="fill:#FFFFFF;" d="M64,310.2H48c0-22.055,17.945-40,40-40v16C74.766,286.2,64,296.966,64,310.2z"/>
	<rect x="192" y="86.2" style="fill:#FFFFFF;" width="16" height="16"/>
	<path style="fill:#FFFFFF;" d="M208,70.2h-16c0-22.055,17.945-40,40-40v16C218.766,46.2,208,56.966,208,70.2z"/>
</g>
<path d="M168,414.2h-19.004c11.046-8.725,19.293-20.333,23.778-33.758C183.727,378.219,192,368.516,192,356.919
	c0-10.416-6.708-19.213-16-22.526V310.2c0-0.641-0.82-64-72-64s-72,63.359-72,64v24.193c-9.292,3.313-16,12.11-16,22.526
	c0,11.477,8.102,21.098,18.883,23.449c4.534,13.571,12.96,25.189,23.883,33.832H40c-22.055,0-40,17.945-40,40v32h16v-32
	c0-13.234,10.766-24,24-24h24v24c0,4.418,3.578,8,8,8h8v24h16v-32c0-4.418-3.578-8-8-8h-8v-16h48v16h-8c-4.422,0-8,3.582-8,8v32h16
	v-24h8c4.422,0,8-3.582,8-8v-24h24c13.234,0,24,10.766,24,24v32h16v-32C208,432.145,190.055,414.2,168,414.2z M48,310.2
	c0-1.961,0.633-48,56-48c54.008,0,55.961,43.063,56,48.023v21.866c-9.237-3.042-15.974-11.662-16-21.909h-0.004
	c-0.011-4.408-3.581-7.98-7.996-7.98H72c-4.414,0-7.992,3.57-8,7.98c-0.001,0.512-0.09,1-0.125,1.504
	c-0.067,0.982-0.167,1.955-0.352,2.899c-0.099,0.503-0.236,0.991-0.368,1.481c-0.211,0.794-0.457,1.573-0.748,2.331
	c-0.208,0.537-0.428,1.067-0.674,1.584c-0.295,0.624-0.632,1.22-0.979,1.811c-0.343,0.578-0.677,1.163-1.068,1.708
	c-0.26,0.366-0.563,0.698-0.843,1.048c-2.772,3.419-6.481,6.087-10.844,7.533V310.2z M48.805,370.985
	c-0.891-3.566-4.094-6.066-7.766-6.066H40c-4.414,0-8-3.59-8-8c0-3.797,2.656-6.984,6.211-7.797
	c0.508,0.113,1.039,0.184,1.586,0.195c0.013,0,0.025-0.003,0.039-0.003c0.011,0,0.021,0.007,0.032,0.007
	c0.039,0,0.805,0.008,0.844,0.008c0.031,0,0.055,0,0.086,0c4.972,0,9.705-0.98,14.087-2.677c0.23-0.09,0.44-0.217,0.668-0.311
	c2.054-0.841,4.013-1.842,5.876-3.004c0.344-0.215,0.659-0.462,0.996-0.688c1.684-1.124,3.272-2.354,4.759-3.717
	c0.376-0.344,0.728-0.701,1.09-1.059c1.345-1.332,2.583-2.747,3.725-4.261c0.366-0.483,0.727-0.959,1.071-1.458
	c1.017-1.484,1.905-3.042,2.713-4.663c0.303-0.603,0.631-1.181,0.904-1.801c0.732-1.68,1.298-3.432,1.791-5.223
	c0.169-0.609,0.406-1.184,0.546-1.805c0.036-0.159,0.106-0.303,0.14-0.462h49.602c3.625,17.992,19.563,31.453,38.422,31.453
	c0.336,0,0.68-0.004,1.016-0.016c0.65-0.017,1.227-0.249,1.829-0.411c3.418,0.909,5.968,3.988,5.968,7.692c0,4.41-3.586,8-8,8
	h-1.359c-3.672,0-6.875,2.5-7.766,6.066c-3.656,14.699-12.828,27.094-25.813,34.902c-12.984,7.805-28.227,10.09-42.938,6.422
	C69.727,407.227,53.891,391.391,48.805,370.985z"/>
<path d="M440,414.2h-19.04c8.32-6.56,14.96-14.72,19.68-24c30.56-0.4,55.36-25.36,55.36-56c0-4.4-3.6-8-8-8h-8v-63.04
	c0-13.76-11.2-24.96-24.96-24.96c-6.64,0-12.96,2.56-17.68,7.28l-14.4,14.4c-13.6-8.64-29.68-13.68-46.96-13.68
	c-48.56,0-88,39.44-88,88v22.72c0,0.4,0,0.88,0.08,1.28c0.56,10.88,8.4,19.92,18.8,22.16c4.56,13.6,12.96,25.2,23.92,33.84H312
	c-22.08,0-40,17.92-40,40v32h16v-32c0-13.2,10.8-24,24-24h16v24c0,2.64,1.36,5.12,3.52,6.64c2.16,1.44,4.96,1.76,7.44,0.8
	l20.48-8.16l-14.56,29.12l14.24,7.2L376,456.12l16.88,33.68l14.24-7.2l-14.56-29.12l20.48,8.16c2.48,0.96,5.28,0.72,7.44-0.8
	c2.16-1.52,3.52-4,3.52-6.64v-24h16c13.2,0,24,10.8,24,24v32h16v-32C480,432.12,462.08,414.2,440,414.2z M448.72,256.84
	c1.68-1.68,3.92-2.64,6.32-2.64c4.96,0,8.96,4,8.96,8.96v71.04c0,4.4,3.6,8,8,8h7.2c-2.24,10.88-8.88,20.08-18,25.76
	c1.6-2.96,2.48-6.24,2.72-9.76H464v-24c0-25.44-10.96-48.32-28.24-64.4L448.72,256.84z M304,334.2c0-39.68,32.32-72,72-72
	s72,32.32,72,72v0.16c-2.48-0.88-5.2-1.44-8-1.44c-0.8,0-1.52,0.16-2.24,0.32C425.6,332.52,416,322.52,416,310.2c0-4.4-3.6-8-8-8
	s-8,3.6-8,8c0,10.4-6.72,19.36-16,22.64V310.2c0-4.4-3.6-8-8-8s-8,3.6-8,8c0,10.4-6.72,19.36-16,22.64V310.2c0-4.4-3.52-8-8-8
	c-4.4,0-7.92,3.52-8,7.92c-0.08,12-9.44,22-21.84,23.12c-0.64-0.24-1.44-0.32-2.16-0.32c-2.8,0-5.52,0.56-8,1.44V334.2z M408,442.36
	l-29.04-11.6c-0.16-0.08-0.4-0.08-0.56-0.16l-1.2-0.24c-0.4-0.08-0.8-0.08-1.2-0.08s-0.8,0-1.2,0.08l-1.2,0.24
	c-0.16,0.08-0.4,0.08-0.56,0.16L344,442.36V430.2h64V442.36z M405.04,405.88c-12.96,7.84-28.24,10.08-42.88,6.4
	c-20.4-5.04-36.24-20.88-41.36-41.28c-0.88-3.6-4.08-6.08-7.76-6.08H312c-4.4,0-8-3.6-8-8c0-3.92,2.8-7.2,6.56-7.84
	c0.72,0.16,1.52,0.16,2.16,0.24c8.72-0.08,16.72-2.96,23.28-7.76v0.64c0,4.4,3.6,8,8,8c8.96,0,17.28-2.96,24-8c0,4.4,3.6,8,8,8
	c13.12,0,24.8-6.4,32.08-16.16c7.2,9.28,18.4,15.28,31.04,15.28H440c0.64,0,1.2-0.08,1.76-0.24c3.6,0.8,6.24,4,6.24,7.84
	c0,4.4-3.6,8-8,8h-1.36c-3.68,0-6.88,2.48-7.76,6.08C427.2,385.72,418.08,398.04,405.04,405.88z"/>
<path d="M216,158.2h48c4.422,0,8-3.582,8-8c0-17.645-14.352-32-32-32s-32,14.355-32,32C208,154.618,211.578,158.2,216,158.2z
	 M240,134.2c5.914,0,11.086,3.223,13.852,8h-27.703C228.914,137.423,234.086,134.2,240,134.2z"/>
<path d="M288,230.2c4.422,0,8-3.582,8-8v-32h8c13.234,0,24,10.766,24,24v24h16v-24c0-22.055-17.945-40-40-40h-19.004
	c11.046-8.725,19.293-20.333,23.778-33.758C319.727,138.219,328,128.516,328,116.919c0-10.416-6.708-19.213-16-22.526V70.2
	c0-0.641-0.82-64-72-64s-72,63.359-72,64v24.193c-9.292,3.313-16,12.11-16,22.526c0,11.477,8.102,21.098,18.883,23.449
	c4.534,13.571,12.96,25.189,23.883,33.832H176c-22.055,0-40,17.945-40,40v24h16v-24c0-13.234,10.766-24,24-24h8v32
	c0,4.418,3.578,8,8,8h16c2.125,0,4.156-0.844,5.656-2.344L224,217.512l10.344,10.344c3.125,3.125,8.188,3.125,11.313,0L256,217.512
	l10.344,10.344c1.5,1.5,3.531,2.344,5.656,2.344H288z M296,92.09c-6.689-2.203-12.034-7.314-14.491-13.89H296V92.09z M184,78.2
	h14.471c-0.049,0.13-0.077,0.27-0.128,0.399c-1.225,3.079-3.06,5.858-5.434,8.131c-0.002,0.001-0.004,0.003-0.006,0.005
	c-1.236,1.182-2.606,2.23-4.09,3.126c-0.012,0.007-0.024,0.014-0.036,0.021c-1.486,0.894-3.085,1.635-4.777,2.196V78.2z
	 M184.805,130.985c-0.891-3.566-4.094-6.066-7.766-6.066H176c-4.414,0-8-3.59-8-8c0-3.797,2.656-6.984,6.211-7.797
	c0.508,0.113,1.039,0.184,1.586,0.195c0.013,0,0.026-0.003,0.04-0.003c0.011,0,0.02,0.007,0.031,0.007
	c0.039,0,0.805,0.008,0.844,0.008c1.069,0.01,2.083-0.218,3.133-0.297c1.43-0.107,2.871-0.141,4.259-0.404
	c1.118-0.212,2.164-0.607,3.25-0.917c1.378-0.392,2.773-0.721,4.09-1.26c0.999-0.409,1.906-0.975,2.864-1.463
	c1.299-0.662,2.619-1.272,3.833-2.072c0.868-0.572,1.627-1.277,2.448-1.915c1.171-0.91,2.367-1.778,3.431-2.813
	c0.744-0.724,1.357-1.56,2.043-2.34c0.979-1.112,1.989-2.187,2.84-3.405c0.624-0.892,1.092-1.88,1.642-2.824
	c0.725-1.244,1.496-2.451,2.084-3.777c0.475-1.07,0.767-2.22,1.146-3.337c0.446-1.315,0.957-2.596,1.262-3.97
	c0.269-1.207,0.327-2.473,0.48-3.718c0.152-1.23,0.442-2.417,0.476-3.679c0-0.069,0.008-0.816,0.008-0.917c0,0,0-0.001,0-0.001
	s0,0,0-0.001c0-0.002,0-0.017,0-0.019h-0.004c0.003-2.117-0.837-4.149-2.332-5.652c-1.5-1.504-3.539-2.348-5.664-2.348h-23.102
	c2.672-13.688,13.25-40,55.102-40c42.063,0,52.547,26.117,55.148,40H272c-4.422,0-8,3.582-8,8v0.02l0,0c0,0,0,0.001,0,0.001
	l0.008,1.237c0.047,1.811,0.38,3.537,0.665,5.276c0.086,0.504,0.087,1.032,0.192,1.529c3.659,17.947,19.497,31.39,38.323,31.39
	c0.336,0,0.68-0.004,1.016-0.016c0.65-0.017,1.227-0.249,1.829-0.411c3.418,0.909,5.968,3.988,5.968,7.692c0,4.41-3.586,8-8,8
	h-1.359c-3.672,0-6.875,2.5-7.766,6.066c-3.656,14.699-12.828,27.094-25.813,34.902c-12.984,7.805-28.227,10.078-42.938,6.422
	C205.727,167.227,189.891,151.391,184.805,130.985z M261.656,200.544c-3.125-3.125-8.188-3.125-11.313,0L240,210.887l-10.344-10.344
	c-3.125-3.125-8.188-3.125-11.313,0L204.688,214.2H200v-24h80v24h-4.688L261.656,200.544z"/>
<path d="M288.08,358.2H288v-1.28C288,357.32,288,357.8,288.08,358.2z"/>
<g>
</g>
<g>
</g>
<g>
</g>
<g>
</g>
<g>
</g>
<g>
</g>
<g>
</g>
<g>
</g>
<g>
</g>
<g>
</g>
<g>
</g>
<g>
</g>
<g>
</g>
<g>
</g>
<g>
</g>
</svg>
