<?xml version="1.0" encoding="iso-8859-1"?>
<!-- Generator: Adobe Illustrator 19.0.0, SVG Export Plug-In . SVG Version: 6.00 Build 0)  -->
<svg version="1.1" id="Capa_1" xmlns="http://www.w3.org/2000/svg" xmlns:xlink="http://www.w3.org/1999/xlink" x="0px" y="0px"
	 viewBox="0 0 437.705 437.705" style="enable-background:new 0 0 437.705 437.705;" xml:space="preserve">
<circle style="fill:#5AAAE7;" cx="192.013" cy="245.705" r="168"/>
<circle style="fill:#FFD422;" cx="192.013" cy="245.705" r="104"/>
<g>
	<path style="fill:#FFFFFF;" d="M76.544,200.619l-14.902-5.828c21.129-54.07,72.305-89.008,130.371-89.008v16
		C140.583,121.783,95.259,152.729,76.544,200.619z"/>
	<path style="fill:#FFFFFF;" d="M68.087,245.705h-16c0-8.563,0.777-17.125,2.313-25.453l15.734,2.906
		C68.775,230.526,68.087,238.112,68.087,245.705z"/>
	<path style="fill:#FFFFFF;" d="M192.013,385.627v-16c54.242,0,101.715-34.703,118.129-86.344l15.25,4.844
		C306.857,346.448,253.255,385.627,192.013,385.627z"/>
	<path style="fill:#FFFFFF;" d="M327.794,279.635l-15.523-3.859c2.434-9.781,3.668-19.898,3.668-30.07h16
		C331.939,257.182,330.544,268.596,327.794,279.635z"/>
</g>
<circle style="fill:#F40E34;" cx="192.013" cy="245.705" r="40"/>
<g>
	<polygon style="fill:#FFD422;" points="216.013,61.705 206.093,78.265 192.013,101.705 178.013,78.345 168.013,61.705 	"/>
	<polygon style="fill:#FFD422;" points="48.013,245.705 24.653,259.705 8.013,269.705 8.013,221.705 24.653,231.705 	"/>
	<polygon style="fill:#FFD422;" points="216.013,429.705 168.013,429.705 178.013,413.065 192.013,389.705 206.013,413.065 	"/>
	<polygon style="fill:#FFD422;" points="376.013,221.705 376.013,269.705 359.373,259.705 336.013,245.705 359.453,231.625 	"/>
</g>
<rect x="142.304" y="117.668" transform="matrix(-0.7071 0.7071 -0.7071 -0.7071 621.5198 -6.1068)" style="fill:#884D00;" width="339.442" height="16"/>
<polygon style="fill:#69C229;" points="384.013,13.705 328.013,69.705 328.013,109.705 384.013,53.705 "/>
<polygon style="fill:#5EAC24;" points="384.013,53.705 328.013,109.705 368.013,109.705 424.013,53.705 "/>
<path d="M379.958,214.744c-2.512-1.422-5.586-1.383-8.059,0.102l-6.007,3.604c-4.125-26.299-14.182-51.439-29.481-73.331
	l-13.117,9.172c15.163,21.693,24.604,46.894,27.619,73.146l-19.017,11.409c-2.41,1.445-3.883,4.055-3.883,6.859
	c0,2.813,1.477,5.414,3.887,6.859l18.874,11.326c-8.47,74.108-66.466,132.098-140.575,140.578l-11.322-18.873
	c-2.891-4.828-10.836-4.828-13.727,0l-11.322,18.873c-74.109-8.48-132.104-66.47-140.575-140.578l18.874-11.326
	c2.41-1.445,3.887-4.047,3.887-6.859s-1.477-5.414-3.887-6.859L33.253,227.52c8.47-74.108,66.466-132.098,140.575-140.578
	l11.322,18.873c1.445,2.414,4.051,3.891,6.859,3.891h0.004c2.809,0,5.41-1.477,6.859-3.883l11.409-19.016
	c26.241,3.019,51.451,12.434,73.161,27.547l9.141-13.141c-21.905-15.237-47.036-25.262-73.317-29.381l3.61-6.018
	c1.48-2.469,1.516-5.547,0.098-8.055c-1.422-2.508-4.078-4.055-6.961-4.055h-48c-2.883,0-5.543,1.555-6.965,4.063
	c-1.418,2.508-1.379,5.586,0.109,8.055l3.699,6.166C89.13,83.748,30.051,142.82,18.292,218.542l-6.158-3.696
	c-2.473-1.484-5.555-1.523-8.059-0.102c-2.512,1.414-4.063,4.078-4.063,6.961v48c0,2.883,1.551,5.547,4.063,6.961
	c1.223,0.695,2.578,1.039,3.938,1.039c1.426,0,2.855-0.383,4.121-1.141l6.158-3.696c11.759,75.722,70.837,134.793,146.564,146.553
	l-3.699,6.166c-1.488,2.469-1.527,5.547-0.109,8.055c1.422,2.508,4.082,4.063,6.965,4.063h48c2.883,0,5.543-1.555,6.965-4.063
	c1.418-2.508,1.379-5.586-0.109-8.055l-3.699-6.166c75.727-11.76,134.806-70.831,146.564-146.553l6.158,3.696
	c1.266,0.758,2.695,1.141,4.121,1.141c1.359,0,2.715-0.344,3.938-1.039c2.512-1.414,4.063-4.078,4.063-6.961v-48
	C384.013,218.823,382.462,216.166,379.958,214.744z M201.896,69.705l-9.875,16.453l-9.867-16.453H201.896z M16.013,235.846
	l16.438,9.859l-16.438,9.859V235.846z M182.154,421.705l9.859-16.438l9.859,16.438H182.154z M368.013,255.565l-16.449-9.867
	l16.449-9.875V255.565z"/>
<path d="M252.357,150.987c-36.422-23.523-83.684-23.828-120.398-0.758c-52.281,32.867-68.082,102.141-35.219,154.43
	c21.254,33.813,57.738,52.367,95.008,52.367c20.355,0,40.949-5.539,59.422-17.148c52.285-32.867,68.086-102.148,35.219-154.43
	l-13.547,8.516c28.172,44.813,14.629,104.195-30.187,132.367c-44.809,28.172-104.195,14.625-132.367-30.188
	c-28.168-44.813-14.625-104.195,30.188-132.367c31.477-19.789,71.988-19.523,103.195,0.648L252.357,150.987z"/>
<path d="M185.615,214.346c4.25-0.875,8.559-0.875,12.809,0l3.18-15.688c-6.352-1.281-12.809-1.289-19.176,0.008
	c-12.563,2.563-23.375,9.859-30.449,20.555c-7.07,10.695-9.555,23.508-6.992,36.07s9.863,23.375,20.559,30.445
	c7.949,5.258,17.063,7.977,26.379,7.977c3.219,0,6.461-0.32,9.688-0.984c25.934-5.289,42.727-30.688,37.441-56.625l-15.68,3.203
	c3.527,17.289-7.672,34.219-24.957,37.75c-8.363,1.703-16.914,0.047-24.047-4.664c-7.129-4.719-11.996-11.922-13.703-20.305
	c-1.711-8.367-0.055-16.906,4.66-24.039S177.251,216.049,185.615,214.346z"/>
<path d="M424.013,45.705h-20.688l34.344-34.344L426.357,0.049l-34.344,34.344V13.705c0-3.234-1.949-6.156-4.938-7.391
	c-3.004-1.258-6.43-0.563-8.719,1.734l-56,56c-1.5,1.5-2.344,3.531-2.344,5.656v36.688L186.357,240.049l11.313,11.313
	l133.656-133.656h36.688c2.121,0,4.156-0.844,5.656-2.344l56-56c2.289-2.289,2.973-5.727,1.734-8.719S427.247,45.705,424.013,45.705
	z M336.013,73.018l40-40v17.375l-40,40V73.018z M364.701,101.705h-17.375l40-40h17.375L364.701,101.705z"/>
<g>
</g>
<g>
</g>
<g>
</g>
<g>
</g>
<g>
</g>
<g>
</g>
<g>
</g>
<g>
</g>
<g>
</g>
<g>
</g>
<g>
</g>
<g>
</g>
<g>
</g>
<g>
</g>
<g>
</g>
</svg>
