<?xml version="1.0" encoding="iso-8859-1"?>
<!-- Generator: Adobe Illustrator 19.0.0, SVG Export Plug-In . SVG Version: 6.00 Build 0)  -->
<svg version="1.1" id="Capa_1" xmlns="http://www.w3.org/2000/svg" xmlns:xlink="http://www.w3.org/1999/xlink" x="0px" y="0px"
	 viewBox="0 0 480 480" style="enable-background:new 0 0 480 480;" xml:space="preserve">
<g>
	<circle style="fill:#FFD422;" cx="296" cy="48" r="24"/>
	<polygon style="fill:#FFD422;" points="224,96 416,96 416,128 320,128 320,168 384,168 384,240 352,240 352,200 296,200 296,296 
		264,296 264,128 192,128 192,24 224,24 	"/>
</g>
<g>
	<circle style="fill:#69C229;" cx="448" cy="248" r="24"/>
	<circle style="fill:#69C229;" cx="240" cy="416" r="24"/>
	<circle style="fill:#69C229;" cx="128" cy="352" r="24"/>
	<circle style="fill:#69C229;" cx="32" cy="448" r="24"/>
</g>
<g>
	
		<rect x="34.784" y="392.003" transform="matrix(-0.7071 0.7071 -0.7071 -0.7071 419.4823 626.2511)" style="fill:#884D00;" width="90.512" height="16"/>
	
		<rect x="172.001" y="348.77" transform="matrix(-0.5547 0.8321 -0.8321 -0.5547 606.0428 459.7317)" style="fill:#884D00;" width="16" height="86.536"/>
</g>
<path style="fill:#69C229;" d="M376,304c0.052,13.255-10.651,24.042-23.906,24.094c-8.077,0.032-15.629-4.002-20.094-10.734
	c-2.596-3.973-3.986-8.614-4-13.36c0.202-13.253,11.11-23.833,24.363-23.631c5.778,0.088,11.33,2.258,15.637,6.111
	C372.996,290.947,375.896,297.299,376,304z"/>
<g>
	
		<rect x="237.865" y="350.693" transform="matrix(-0.6769 0.736 -0.736 -0.6769 757.0038 385.1144)" style="fill:#884D00;" width="112.24" height="15.992"/>
	
		<rect x="364.201" y="271.992" transform="matrix(-0.8944 0.4472 -0.4472 -0.8944 882.9432 351.5513)" style="fill:#884D00;" width="71.552" height="16"/>
</g>
<rect x="440" style="fill:#29485A;" width="16" height="224"/>
<polyline style="fill:#F40E34;" points="448,8 352,8 448,72 "/>
<path style="fill:#5AAAE7;" d="M216,256c0,13.255-10.745,24-24,24h-80c-17.673,0-32-14.327-32-32c-0.04-0.773-0.04-1.547,0-2.32
	c1.218-16.761,15.195-29.724,32-29.68c-0.036-21.216,16.499-38.769,37.68-40c0.771-0.082,1.549-0.082,2.32,0
	c22.091,0,40,17.909,40,40c-0.006,5.5-1.122,10.942-3.28,16l0,0c1.09-0.112,2.19-0.112,3.28,0C205.255,232,216,242.745,216,256z"/>
<path style="fill:#FFD422;" d="M149.68,176c-21.181,1.231-37.716,18.784-37.68,40c-16.805-0.044-30.782,12.919-32,29.68
	c-29.635-8.848-46.487-40.045-37.639-69.68s40.045-46.487,69.68-37.639C130.129,143.761,144.28,157.912,149.68,176z"/>
<g>
	<rect x="88" y="96" style="fill:#E7B900;" width="16" height="16"/>
	
		<rect x="25.791" y="121.729" transform="matrix(-0.707 0.7072 -0.7072 -0.707 149.4573 197.6154)" style="fill:#E7B900;" width="16" height="16.08"/>
	<rect y="184" style="fill:#E7B900;" width="16" height="16"/>
	
		<rect x="25.761" y="246.234" transform="matrix(-0.7071 0.7071 -0.7071 -0.7071 237.4722 410.1037)" style="fill:#E7B900;" width="16.08" height="16"/>
	
		<rect x="150.209" y="121.752" transform="matrix(-0.7071 0.7071 -0.7071 -0.7071 361.8961 109.6014)" style="fill:#E7B900;" width="16.08" height="16"/>
	<path style="fill:#E7B900;" d="M112,184v-16h-8v-8H88v8h-8c-4.418,0-8,3.578-8,8v24c0,4.422,3.582,8,8,8h16v8h16v-16
		c0-4.422-3.582-8-8-8H88v-8H112z"/>
</g>
<g>
	<path style="fill:#FFFFFF;" d="M152,264h-32c-13.234,0-24-10.766-24-24v-8h16v8c0,4.414,3.59,8,8,8h32V264z"/>
	<rect x="168" y="248" style="fill:#FFFFFF;" width="16" height="16"/>
	<path style="fill:#FFFFFF;" d="M72,200H56c0-26.469,21.531-48,48-48v16C86.355,168,72,182.352,72,200z"/>
</g>
<path d="M296,80c17.645,0,32-14.352,32-32s-14.355-32-32-32s-32,14.352-32,32S278.355,80,296,80z M296,32c8.824,0,16,7.18,16,16
	s-7.176,16-16,16s-16-7.18-16-16S287.176,32,296,32z"/>
<path d="M192,136h64v160c0,4.422,3.582,8,8,8h32c4.418,0,8-3.578,8-8v-88h40v32c0,4.422,3.582,8,8,8h32c4.418,0,8-3.578,8-8v-72
	c0-4.422-3.582-8-8-8h-56v-24h88c4.418,0,8-3.578,8-8V96c0-4.422-3.582-8-8-8H232V24c0-4.422-3.582-8-8-8h-32c-4.418,0-8,3.578-8,8
	v104C184,132.422,187.582,136,192,136z M200,32h16v64c0,4.422,3.582,8,8,8h184v16h-88c-4.418,0-8,3.578-8,8v40c0,4.422,3.582,8,8,8
	h56v56h-16v-32c0-4.422-3.582-8-8-8h-56c-4.418,0-8,3.578-8,8v88h-16V128c0-4.422-3.582-8-8-8h-64V32z"/>
<path d="M456,217.136V0h-8h-8h-88c-3.523,0-6.637,2.305-7.656,5.68c-1.023,3.375,0.285,7.023,3.219,8.977L440,76.281v140.855
	c-13.762,3.577-24,15.994-24,30.864c0,4.843,1.162,9.389,3.096,13.507l-43.344,21.672c-0.797-0.896-1.514-1.856-2.416-2.663
	c-5.746-5.141-13.148-8.031-20.852-8.148c-0.164,0-0.328,0-0.496,0c-17.418,0-31.719,14.031-31.988,31.656
	c0.013,4.137,0.879,8.164,2.399,11.96l-66.562,72.378C251.147,385.664,245.788,384,240,384c-12.988,0-24.143,7.806-29.153,18.95
	l-54.534-36.356C158.59,362.198,160,357.284,160,352c0-17.648-14.355-32-32-32s-32,14.352-32,32c0,5.917,1.723,11.395,4.534,16.154
	l-52.38,52.38C43.394,417.724,37.917,416,32,416c-17.645,0-32,14.352-32,32s14.355,32,32,32s32-14.352,32-32
	c0-5.917-1.723-11.395-4.534-16.154l52.38-52.38C116.606,382.276,122.083,384,128,384c6.503,0,12.543-1.974,17.599-5.319
	l62.866,41.91C210.714,436.052,223.927,448,240,448c17.645,0,32-14.352,32-32c0-6.044-1.782-11.64-4.705-16.467l64.792-70.454
	c5.586,4.46,12.543,7.015,19.913,7.015c0.043,0,0.086,0,0.125,0c17.645-0.07,31.941-14.484,31.875-32.125c0-0.031,0-0.063,0-0.094
	c-0.035-2.214-0.306-4.403-0.788-6.536l46.424-23.212C434.844,277.799,441.157,280,448,280c17.645,0,32-14.352,32-32
	C480,233.13,469.762,220.713,456,217.136z M32,464c-8.824,0-16-7.18-16-16s7.176-16,16-16s16,7.18,16,16S40.824,464,32,464z
	 M128,368c-8.824,0-16-7.18-16-16s7.176-16,16-16s16,7.18,16,16S136.824,368,128,368z M240,432c-8.824,0-16-7.18-16-16
	s7.176-16,16-16s16,7.18,16,16S248.824,432,240,432z M352.063,320.094c-0.02,0-0.043,0-0.063,0c-5.379,0-10.359-2.672-13.305-7.117
	c-1.754-2.672-2.684-5.789-2.695-8.852c0.133-8.742,7.285-15.758,15.996-15.758c0.082,0,0.164,0,0.25,0
	c3.848,0.055,7.547,1.5,10.422,4.07c3.309,2.961,5.25,7.203,5.332,11.641C368.008,312.883,360.867,320.055,352.063,320.094z
	 M378.422,16H440v41.052L378.422,16z M448,264c-8.824,0-16-7.18-16-16s7.176-16,16-16s16,7.18,16,16S456.824,264,448,264z"/>
<path d="M39.711,222.438c7.218,13.367,18.688,23.495,32.639,29.019C74.135,271.872,91.129,288,112,288h80c17.645,0,32-14.352,32-32
	c0-15.352-10.867-28.219-24.789-31.273c0.52-2.859,0.785-5.773,0.789-8.727c0-25.354-19.767-46.116-44.693-47.83
	c-7.231-18.023-22.14-31.855-40.979-37.475c-33.816-10.102-69.539,9.211-79.633,43.016
	C29.805,190.094,31.586,207.398,39.711,222.438z M150.145,183.984c0.141-0.008,0.828-0.016,0.969-0.031
	c0.293,0.031,0.59,0.047,0.887,0.047c17.645,0,32,14.352,32,31.992c-0.008,4.366-0.884,8.606-2.56,12.621
	c-0.562,1.174-0.945,2.439-0.87,3.824c0.088,1.624,0.765,3.028,1.672,4.247c0.011,0.016,0.016,0.034,0.027,0.05
	c0.01,0.014,0.025,0.023,0.036,0.038c0.413,0.54,0.847,1.025,1.381,1.443c0.083,0.067,0.181,0.108,0.266,0.171
	c0.737,0.531,1.534,0.932,2.426,1.19c0.558,0.171,1.126,0.286,1.719,0.334c0.161,0.01,0.298,0.09,0.461,0.09H192
	c8.824,0,16,7.18,16,16s-7.176,16-16,16h-80c-13.234,0-24-10.766-24.012-24.406c-0.023-0.5-0.023-1.008-0.008-1.336
	C88.887,233.766,99.395,224,111.91,224c0.035,0,0.059,0,0.09,0c2.121,0,4.152-0.844,5.652-2.344c1.508-1.5,2.352-3.539,2.348-5.672
	C119.973,199.031,133.215,184.977,150.145,183.984z M50.023,178.289c6.211-20.797,25.348-34.273,46.023-34.273
	c4.535,0,9.145,0.648,13.703,2.008c12.609,3.766,22.918,12.398,28.848,23.813c-1.368,0.397-2.658,0.96-3.972,1.473
	c-0.65,0.254-1.326,0.446-1.961,0.727c-2.32,1.024-4.551,2.202-6.658,3.564c-0.294,0.19-0.548,0.428-0.838,0.624
	c-1.78,1.206-3.479,2.512-5.077,3.938c-0.615,0.549-1.167,1.154-1.752,1.733c-1.193,1.18-2.339,2.395-3.403,3.693
	c-0.584,0.712-1.127,1.445-1.669,2.19c-0.949,1.303-1.822,2.649-2.638,4.045c-0.445,0.761-0.897,1.509-1.301,2.296
	c-1.419-1.285-3.262-2.12-5.328-2.12H88v-8h24v-16h-8v-8H88v8h-8c-4.418,0-8,3.578-8,8v24c0,4.422,3.582,8,8,8h16v3.406
	c-0.971,0.426-1.918,0.886-2.849,1.385c-0.574,0.309-1.135,0.628-1.692,0.964c-1.264,0.759-2.471,1.588-3.641,2.479
	c-0.414,0.316-0.841,0.606-1.242,0.938c-3.139,2.584-5.874,5.628-8.112,9.046c-0.184,0.281-0.338,0.579-0.516,0.865
	c-0.903,1.457-1.71,2.971-2.424,4.545c-0.192,0.424-0.373,0.85-0.551,1.282c-0.258,0.627-0.574,1.223-0.801,1.865
	c-8.613-4.375-15.691-11.25-20.387-19.938C47.691,203.555,46.355,190.57,50.023,178.289z"/>
<rect x="88" y="96" width="16" height="16"/>
<rect x="25.791" y="121.729" transform="matrix(-0.707 0.7072 -0.7072 -0.707 149.4573 197.6154)" width="16" height="16.08"/>
<rect y="184" width="16" height="16"/>
<rect x="25.761" y="246.234" transform="matrix(-0.7071 0.7071 -0.7071 -0.7071 237.4722 410.1037)" width="16.08" height="16"/>
<rect x="150.209" y="121.752" transform="matrix(-0.7071 0.7071 -0.7071 -0.7071 361.8961 109.6014)" width="16.08" height="16"/>
<g>
</g>
<g>
</g>
<g>
</g>
<g>
</g>
<g>
</g>
<g>
</g>
<g>
</g>
<g>
</g>
<g>
</g>
<g>
</g>
<g>
</g>
<g>
</g>
<g>
</g>
<g>
</g>
<g>
</g>
</svg>
