<?xml version="1.0" encoding="iso-8859-1"?>
<!-- Generator: Adobe Illustrator 19.0.0, SVG Export Plug-In . SVG Version: 6.00 Build 0)  -->
<svg version="1.1" id="Capa_1" xmlns="http://www.w3.org/2000/svg" xmlns:xlink="http://www.w3.org/1999/xlink" x="0px" y="0px"
	 viewBox="0 0 480 480" style="enable-background:new 0 0 480 480;" xml:space="preserve">
<path style="fill:#A6001E;" d="M72,336c0,4.418-3.582,8-8,8s-8,3.582-8,8v16c0,13.255,10.745,24,24,24h16c13.255,0,24-10.745,24-24
	v-16c0-4.418-3.582-8-8-8c-4.418,0-8-3.582-8-8c0-8.837,7.163-16,16-16h40v-40c0-8.837-7.163-16-16-16c-4.418,0-8,3.582-8,8
	s-3.582,8-8,8h-16c-13.255,0-24-10.745-24-24v-16c0-13.255,10.745-24,24-24h16c4.418,0,8,3.582,8,8s3.582,8,8,8
	c8.837,0,16-7.163,16-16v-48C76.053,168,8,236.053,8,320h48C64.837,320,72,327.163,72,336z"/>
<path style="fill:#F40E34;" d="M80,380c-6.617,0-12-5.383-12-12v-12.398c9.117-1.859,16-9.945,16-19.602c0-15.438-12.563-28-28-28
	H20.508C26.281,240.359,80.359,186.281,148,180.508V216c0,0.898-0.297,1.727-0.797,2.398C144.773,210.086,137.086,204,128,204h-16
	c-19.852,0-36,16.148-36,36v16c0,19.852,16.148,36,36,36h16c9.086,0,16.773-6.086,19.203-14.398c0.5,0.672,0.797,1.5,0.797,2.398v28
	h-28c-15.438,0-28,12.563-28,28c0,9.656,6.883,17.742,16,19.602V368c0,6.617-5.383,12-12,12H80z"/>
<g>
	<path style="fill:#FFFFFF;" d="M46.828,252.125l-13.703-8.25c12.477-20.727,30.023-38.273,50.75-50.75l8.25,13.703
		C73.633,217.969,57.969,233.633,46.828,252.125z"/>
	<path style="fill:#FFFFFF;" d="M28.477,308.68l-15.938-1.359c0.594-7.063,1.727-14.18,3.359-21.141l15.578,3.641
		C30.023,296.039,29.016,302.383,28.477,308.68z"/>
	<path style="fill:#FFFFFF;" d="M96,388H80c-11.031,0-20-8.969-20-20v-12.398h16V368c0,2.203,1.797,4,4,4h16V388z"/>
</g>
<path style="fill:#5EAC24;" d="M275.022,105.013c-3.119-3.129-3.112-8.194,0.017-11.314s3.136-8.185,0.017-11.314l-11.297-11.331
	c-9.359-9.387-24.554-9.409-33.941-0.051l-11.331,11.297c-9.387,9.359-9.409,24.554-0.051,33.941l11.297,11.331
	c3.12,3.129,8.185,3.136,11.314,0.017c3.129-3.12,8.194-3.112,11.314,0.017c6.239,6.258,6.224,16.388-0.034,22.627L224,178.476
	l28.242,28.327c6.239,6.258,16.37,6.273,22.627,0.034c3.129-3.12,3.136-8.185,0.017-11.314c-3.119-3.129-3.112-8.194,0.017-11.314
	l11.331-11.297c9.387-9.359,24.583-9.336,33.941,0.051l11.297,11.331c9.359,9.387,9.336,24.583-0.051,33.941l-11.331,11.297
	c-3.129,3.12-8.194,3.112-11.314-0.017c-3.119-3.129-8.185-3.136-11.314-0.017c-6.258,6.239-6.273,16.37-0.034,22.627l33.89,33.992
	c59.449-59.271,59.593-155.512,0.322-214.96l-33.992,33.89C291.392,111.286,281.261,111.271,275.022,105.013z"/>
<path style="fill:#69C229;" d="M305.93,243.656c-0.758-0.766-1.039-1.617-1.133-2.258c2.93,1.609,6.219,2.469,9.648,2.469
	c5.32,0,10.336-2.07,14.109-5.828l11.344-11.305c6.805-6.797,10.563-15.828,10.578-25.445c0.008-9.617-3.719-18.656-10.516-25.469
	l-11.289-11.328c-6.805-6.828-15.859-10.586-25.492-10.586c-9.602,0-18.625,3.734-25.422,10.516l-11.328,11.289
	c-3.773,3.766-5.867,8.781-5.875,14.125c-0.008,3.422,0.836,6.711,2.438,9.625c-0.648-0.094-1.5-0.375-2.258-1.133L240.969,178.5
	l19.828-19.766c10.938-10.906,10.961-28.672,0.055-39.602c-3.766-3.789-8.797-5.883-14.164-5.883c-3.969,0-7.766,1.156-11,3.297
	l-8.75-8.781c-4.672-4.68-4.664-12.297,0.023-16.977l11.328-11.281c2.266-2.258,5.273-3.508,8.477-3.508
	c3.211,0,6.227,1.258,8.5,3.531l8.75,8.773c-2.156,3.234-3.328,7.047-3.328,11.039c-0.008,5.328,2.063,10.352,5.828,14.133
	c5.297,5.32,12.336,8.242,19.836,8.242c7.461,0,14.484-2.906,19.773-8.18l25.133-25.055C352.5,113.711,364.047,145.313,364,178.68
	s-11.688,64.938-33.008,90.109L305.93,243.656z"/>
<path style="fill:#E7B900;" d="M184,400c4.418,0,8,3.582,8,8s3.582,8,8,8h8c17.673,0,32-14.327,32-32s-14.327-32-32-32h-8
	c-4.418,0-8,3.582-8,8s-3.582,8-8,8c-13.255,0-24-10.745-24-24v-24h-40c-8.837,0-16,7.163-16,16c0,4.418,3.582,8,8,8
	c4.418,0,8,3.582,8,8v16c0,13.255-10.745,24-24,24H80c-13.255,0-24-10.745-24-24v-16c0-4.418,3.582-8,8-8s8-3.582,8-8
	c0-8.837-7.163-16-16-16H8c0,83.947,68.053,152,152,152v-48C160,410.745,170.745,400,184,400z"/>
<path style="fill:#FFD422;" d="M148,459.492C80.359,453.719,26.281,399.641,20.508,332H56c0.898,0,1.727,0.297,2.398,0.797
	C50.086,335.227,44,342.914,44,352v16c0,19.852,16.148,36,36,36h16c19.852,0,36-16.148,36-36v-16
	c0-9.086-6.086-16.773-14.398-19.203c0.672-0.5,1.5-0.797,2.398-0.797h28v12c0,19.852,16.148,36,36,36
	c9.656,0,17.742-6.883,19.602-16H208c11.031,0,20,8.969,20,20s-8.969,20-20,20h-4.398c-1.859-9.117-9.945-16-19.602-16
	c-19.852,0-36,16.148-36,36V459.492z"/>
<path style="fill:#1E81CE;" d="M248,296c0-4.418,3.582-8,8-8s8-3.582,8-8v-8c0-17.673-14.327-32-32-32s-32,14.327-32,32v8
	c0,4.418,3.582,8,8,8s8,3.582,8,8c0,13.255-10.745,24-24,24h-32v24c0,13.255,10.745,24,24,24c4.418,0,8-3.582,8-8s3.582-8,8-8h8
	c17.673,0,32,14.327,32,32s-14.327,32-32,32h-8c-4.418,0-8-3.582-8-8s-3.582-8-8-8c-13.255,0-24,10.745-24,24v48
	c83.947,0,152-68.053,152-152h-40C258.745,320,248,309.255,248,296z"/>
<path style="fill:#5AAAE7;" d="M172,424c0-5.406,3.594-9.984,8.516-11.484C182.57,421.375,190.523,428,200,428h8
	c24.258,0,44-19.742,44-44s-19.742-44-44-44h-8c-9.477,0-17.43,6.625-19.484,15.484c-4.922-1.5-8.516-6.078-8.516-11.484v-12h20
	c19.852,0,36-16.148,36-36c0-9.656-6.883-17.742-16-19.602V272c0-11.031,8.969-20,20-20s20,8.969,20,20v4.398
	c-9.117,1.859-16,9.945-16,19.602c0,19.852,16.148,36,36,36h27.492C293.719,399.641,239.641,453.719,172,459.492V424z"/>
<path style="fill:#FFB398;" d="M264,48l30.64-30.64c6.006-6,14.151-9.367,22.64-9.36H472v112h-24l-24,32h-88v-16
	c0.032-13.606,8.664-25.704,21.52-30.16c3.358-1.225,6.906-1.848,10.48-1.84l0,0c13.255,0,24-10.745,24-24V64
	c0-13.255-10.745-24-24-24h-34.72c-8.489-0.007-16.634,3.36-22.64,9.36L288,72L264,48z"/>
<path style="fill:#FFFFFF;" d="M244.789,441.258l-9.188-13.094c17.68-12.398,32.211-29.117,42.031-48.352l14.25,7.281
	C280.883,408.633,264.594,427.367,244.789,441.258z"/>
<path d="M312,312h-40c-8.82,0-16-7.18-16-16c8.82,0,16-7.18,16-16v-8c0-22.055-17.945-40-40-40s-40,17.945-40,40v8
	c0,8.82,7.18,16,16,16c0,8.82-7.18,16-16,16h-24v-32c0-13.234-10.766-24-24-24c-8.82,0-16,7.18-16,16h-16c-8.82,0-16-7.18-16-16v-16
	c0-8.82,7.18-16,16-16h16c0,8.82,7.18,16,16,16c13.234,0,24-10.766,24-24v-48c0-4.422-3.578-8-8-8C71.773,160,0,231.773,0,320
	s71.773,160,160,160s160-71.773,160-160C320,315.578,316.422,312,312,312z M152,176.219V216c0,4.414-3.586,8-8,8
	c0-8.82-7.18-16-16-16h-16c-17.648,0-32,14.352-32,32v16c0,17.648,14.352,32,32,32h16c8.82,0,16-7.18,16-16c4.414,0,8,3.586,8,8v32
	h-32c-13.234,0-24,10.766-24,24c0,8.82,7.18,16,16,16v16c0,8.82-7.18,16-16,16H80c-8.82,0-16-7.18-16-16v-16c8.82,0,16-7.18,16-16
	c0-13.234-10.766-24-24-24H16.219C20.242,238.953,78.953,180.242,152,176.219z M152,424v39.781
	C78.953,459.758,20.242,401.047,16.219,328H56c4.414,0,8,3.586,8,8c-8.82,0-16,7.18-16,16v16c0,17.648,14.352,32,32,32h16
	c17.648,0,32-14.352,32-32v-16c0-8.82-7.18-16-16-16c0-4.414,3.586-8,8-8h32v16c0,17.648,14.352,32,32,32c8.82,0,16-7.18,16-16h8
	c13.234,0,24,10.766,24,24s-10.766,24-24,24h-8c0-8.82-7.18-16-16-16C166.352,392,152,406.352,152,424z M168,463.781V424
	c0-8.82,7.18-16,16-16c0,8.82,7.18,16,16,16h8c22.055,0,40-17.945,40-40s-17.945-40-40-40h-8c-8.82,0-16,7.18-16,16
	c-8.82,0-16-7.18-16-16v-16h24c17.648,0,32-14.352,32-32c0-8.82-7.18-16-16-16v-8c0-13.234,10.766-24,24-24s24,10.766,24,24v8
	c-8.82,0-16,7.18-16,16c0,17.648,14.352,32,32,32h31.781C299.758,401.047,241.047,459.758,168,463.781z"/>
<path d="M384,176c0.72,43.2-16,84.96-46.8,115.68c-1.6,1.52-3.6,2.32-5.68,2.32s-4.08-0.8-5.68-2.32l-28.32-28.32
	c-12.4-12.48-12.4-32.8,0-45.28c6.24-6.16,16.4-6.16,22.56,0l5.76-5.68c4.32-4.48,6.64-10.56,6.48-16.96
	c-0.16-6.4-2.88-12.4-7.52-16.8c-9.28-8.8-23.76-8.8-33.04,0l-5.6,5.52c6.24,6.24,6.24,16.4,0.08,22.56
	c-12.48,12.56-32.8,12.48-45.28,0.08l-22.64-22.64c-1.44-1.52-2.32-3.6-2.32-5.68c0-2.16,0.88-4.16,2.32-5.68l28.32-28.24
	c3.12-3.12,3.12-8.16,0-11.28c-6.24,6.16-16.4,6.16-22.64,0L212.64,122c-12.48-12.48-12.48-32.8-0.08-45.28
	c0.08,0,0.08-0.08,0.08-0.08L224,65.36c6.48-6.4,15.36-9.92,24.4-9.36c7.92,0.32,15.52,3.6,21.28,9.28l11.28,11.28
	c0.96,0.88,1.92,2.24,2.72,3.76c3.44,5.68,2.48,13.76-2.72,18.96c1.52,1.44,3.52,2.32,5.6,2.32c0,0,0,0,0.08,0
	c2.08,0,4.08-0.88,5.6-2.4l34-33.92c1.52-1.52,3.68-2.24,5.76-2.32c2.16,0,4.16,0.88,5.68,2.4c5.36,5.6,10.48,11.68,14.96,18
	l-12.96,9.28c-2.56-3.44-5.2-6.88-8-10.08l-28.08,28c-4.56,4.48-10.56,7.04-16.96,7.04c-0.08,0-0.08,0-0.08,0
	c-6.4,0-12.4-2.56-16.96-7.04c-6.16-6.24-6.16-16.4,0-22.56c0-0.16-0.08-0.16-0.08-0.16l-11.2-11.2c-2.8-2.88-6.64-4.48-10.64-4.64
	c-4.64-0.24-9.12,1.44-12.32,4.64L224,88c-0.08,0-0.16,0.08-0.16,0.16c-6.16,6.56-6,16.4,0.16,22.48l11.36,11.28
	c3.04-3.04,7.04-4.72,11.28-4.72h0.08c4.24,0.08,8.32,1.76,11.28,4.8c9.36,9.36,9.36,24.56,0,33.92l-22.64,22.56l16.96,16.96
	c6.24,6.24,16.32,6.24,22.56,0c-3.04-3.04-4.72-7.04-4.72-11.36c0.08-4.24,1.76-8.24,4.8-11.28l5.68-5.6
	c15.52-14.8,39.76-14.8,55.2-0.16c7.76,7.36,12.16,17.28,12.48,28c0.24,10.64-3.68,20.8-10.96,28.56l-5.84,5.84
	c-6.4,6.24-16.48,6.24-22.72-0.08c-6.16,6.32-6.16,16.4,0.08,22.64l22.48,22.56c24.24-27.04,37.28-62.24,36.56-98.56H384z"/>
<path d="M472,0H317.289c-0.016,0-0.023,0-0.039,0c-10.672,0-20.711,4.156-28.266,11.703l-30.641,30.641l11.313,11.313l30.641-30.633
	C304.828,18.492,310.852,16,317.258,16c0.008,0,0.016,0,0.023,0H464v96h-16c-2.516,0-4.891,1.188-6.398,3.203L420,144h-76v-7.984
	c0.023-10.188,6.508-19.273,16.273-22.656c2.484-0.906,4.758-1.336,7.727-1.359c17.648,0,32-14.352,32-32V64
	c0-17.648-14.352-32-32-32h-34.711c-0.016,0-0.023,0-0.039,0c-10.672,0-20.711,4.156-28.266,11.703l-22.641,22.641l11.313,11.313
	l22.641-22.633C320.828,50.492,326.852,48,333.258,48c0.008,0,0.016,0,0.023,0H368c8.82,0,16,7.18,16,16v16
	c0,8.82-7.18,16-15.984,16c-0.023,0-0.055,0-0.086,0c-4.5,0-8.93,0.781-13.023,2.281C338.852,103.844,328.039,118.992,328,136v16
	c0,4.422,3.578,8,8,8h88c2.516,0,4.891-1.188,6.398-3.203L452,128h20c4.422,0,8-3.578,8-8V8C480,3.578,476.422,0,472,0z"/>
<g>
</g>
<g>
</g>
<g>
</g>
<g>
</g>
<g>
</g>
<g>
</g>
<g>
</g>
<g>
</g>
<g>
</g>
<g>
</g>
<g>
</g>
<g>
</g>
<g>
</g>
<g>
</g>
<g>
</g>
</svg>
