<?xml version="1.0" encoding="iso-8859-1"?>
<!-- Generator: Adobe Illustrator 19.0.0, SVG Export Plug-In . SVG Version: 6.00 Build 0)  -->
<svg version="1.1" id="Capa_1" xmlns="http://www.w3.org/2000/svg" xmlns:xlink="http://www.w3.org/1999/xlink" x="0px" y="0px"
	 viewBox="0 0 480 480" style="enable-background:new 0 0 480 480;" xml:space="preserve">
<polygon style="fill:#FFB398;" points="344,320 344,200 256,200 256,272 208,272 208,200 304,104 56,104 56,192 8,248 8,264 56,264 
	56,376 80,400 168,400 168,472 336,472 336,400 336.393,399.607 262.96,322.48 "/>
<polygon style="fill:#29485A;" points="352,8 88,8 16,64 17.426,65.426 312,64 "/>
<polygon style="fill:#1C313D;" points="408,144 352,88 384,40 352,8 312,64 17.426,65.426 56,104 304,104 208,200 208,272 256,272 
	256,200 344,200 344,320 262.96,322.48 336.393,399.607 408,272 "/>
<polygon style="fill:#29485A;" points="408,40 384,40 352,88 408,144 408,272 336.393,399.607 472,264 472,104 "/>
<path style="fill:#FFD422;" d="M368,160L368,160c0-26.51-21.49-48-48-48l0,0c26.51,0,48-21.49,48-48l0,0c0,26.51,21.49,48,48,48l0,0
	C389.49,112,368,133.49,368,160z"/>
<polygon style="fill:#5AAAE7;" points="32,144 16,144 16,104 0,104 0,200 16,200 16,160 32,160 "/>
<g>
	<path style="fill:#FFD422;" d="M240,392v-16c74.992,0,136-61.008,136-136c0-3.398,2.145-6.422,5.352-7.547
		c3.184-1.125,6.77-0.102,8.895,2.547l32,40l-12.492,10l-19.199-24C380.293,334.906,316.688,392,240,392z"/>
	<path style="fill:#FFD422;" d="M96,248c-2.082,0-4.125-0.813-5.656-2.344l-32-32l11.313-11.313l19.43,19.43
		C98.121,146.523,162.355,88,240,88v16c-74.992,0-136,61.008-136,136c0,3.234-1.949,6.156-4.938,7.391
		C98.07,247.805,97.031,248,96,248z"/>
</g>
<path style="fill:#F40E34;" d="M226.8,128l-9.76,29.44c-6.664,1.839-13.063,4.528-19.04,8l-27.84-14l-18.64,18.64l14,27.84
	c-3.472,5.978-6.161,12.376-8,19.04L128,226.8v26.4l29.44,9.76c1.84,6.663,4.528,13.063,8,19.04l-14,27.84l18.64,18.64l27.84-14
	c5.978,3.472,12.377,6.16,19.04,8L226.8,352H240V128H226.8z"/>
<path style="fill:#A6001E;" d="M352,253.12V226.8l-29.52-9.76c-1.839-6.664-4.528-13.063-8-19.04l14-27.84l-18.64-18.64l-27.84,14
	c-5.978-3.472-12.376-6.161-19.04-8L253.12,128H240v224h13.2l9.76-29.52c6.664-1.84,13.063-4.528,19.04-8l27.84,14l18.64-18.64
	l-14-27.84c3.472-5.978,6.161-12.377,8-19.04L352,253.12z"/>
<g>
	<circle style="fill:#FFFFFF;" cx="240" cy="240" r="24"/>
	<rect x="232" y="176" style="fill:#FFFFFF;" width="16" height="16"/>
	
		<rect x="178.726" y="214.726" transform="matrix(-0.3103 0.9506 -0.9506 -0.3103 456.3874 114.3221)" style="fill:#FFFFFF;" width="15.992" height="15.992"/>
	
		<rect x="199.085" y="277.313" transform="matrix(-0.5858 0.8104 -0.8104 -0.5858 559.6229 284.6412)" style="fill:#FFFFFF;" width="15.992" height="16"/>
	
		<rect x="264.889" y="277.29" transform="matrix(-0.8106 0.5856 -0.5856 -0.8106 661.1571 356.7352)" style="fill:#FFFFFF;" width="16" height="15.992"/>
	
		<rect x="285.286" y="214.729" transform="matrix(-0.9507 0.3102 -0.3102 -0.9507 641.1864 343.4834)" style="fill:#FFFFFF;" width="15.992" height="15.992"/>
	<rect x="80" y="56" style="fill:#FFFFFF;" width="16" height="16"/>
	<rect x="120" y="56" style="fill:#FFFFFF;" width="80" height="16"/>
	<polygon style="fill:#FFFFFF;" points="316,72 280,72 280,56 308,56 329.602,27.203 342.398,36.797 	"/>
	<polygon style="fill:#FFFFFF;" points="416,184 400,184 400,147.313 386.344,133.656 397.656,122.344 416,140.688 	"/>
	<rect x="400" y="200" style="fill:#FFFFFF;" width="16" height="16"/>
</g>
<path d="M376,64c0-4.422-3.582-8-8-8s-8,3.578-8,8c0,22.055-17.945,40-40,40c-4.418,0-8,3.578-8,8s3.582,8,8,8
	c22.055,0,40,17.945,40,40c0,4.422,3.582,8,8,8s8-3.578,8-8c0-22.055,17.945-40,40-40c4.418,0,8-3.578,8-8s-3.582-8-8-8
	C393.945,104,376,86.055,376,64z M368,131.18c-4.73-7.844-11.332-14.453-19.18-19.18c7.848-4.727,14.449-11.336,19.18-19.18
	c4.73,7.844,11.332,14.453,19.18,19.18C379.332,116.727,372.73,123.336,368,131.18z"/>
<path d="M272,240c0-17.648-14.355-32-32-32s-32,14.352-32,32s14.355,32,32,32S272,257.648,272,240z M240,256c-8.824,0-16-7.18-16-16
	s7.176-16,16-16s16,7.18,16,16S248.824,256,240,256z"/>
<rect x="232" y="176" width="16" height="16"/>
<rect x="178.727" y="214.719" transform="matrix(-0.3102 0.9507 -0.9507 -0.3102 456.3739 114.2918)" width="15.992" height="15.992"/>
<rect x="199.085" y="277.313" transform="matrix(-0.5858 0.8104 -0.8104 -0.5858 559.6229 284.6412)" width="15.992" height="16"/>
<rect x="264.889" y="277.324" transform="matrix(-0.8104 0.5858 -0.5858 -0.8104 661.1975 356.6767)" width="16" height="15.992"/>
<rect x="285.286" y="214.729" transform="matrix(-0.9507 0.3102 -0.3102 -0.9507 641.1864 343.4834)" width="15.992" height="15.992"/>
<path d="M260.793,354.508l8.461-25.578c4.438-1.461,8.754-3.273,12.906-5.422l24.086,12.117c3.09,1.539,6.813,0.945,9.25-1.492
	l18.641-18.633c2.441-2.438,3.043-6.164,1.492-9.25l-12.113-24.094c2.141-4.148,3.957-8.469,5.422-12.914l25.594-8.539
	c3.266-1.086,5.469-4.141,5.469-7.586v-26.32c0-3.453-2.211-6.516-5.488-7.594l-25.582-8.461c-1.461-4.438-3.273-8.75-5.414-12.898
	l12.113-24.094c1.551-3.086,0.949-6.813-1.492-9.25l-18.641-18.633c-2.438-2.438-6.16-3.039-9.25-1.492l-24.086,12.117
	c-4.156-2.148-8.477-3.961-12.918-5.422l-8.531-25.602c-1.09-3.266-4.145-5.469-7.59-5.469h-26.32c-3.449,0-6.508,2.211-7.594,5.484
	l-8.457,25.5c-4.438,1.469-8.758,3.281-12.906,5.422l-24.09-12.117c-3.086-1.539-6.809-0.945-9.25,1.492l-18.641,18.641
	c-2.441,2.438-3.039,6.164-1.492,9.25l12.113,24.094c-2.141,4.148-3.957,8.469-5.418,12.914l-25.594,8.531
	c-3.27,1.086-5.473,4.141-5.473,7.586v26.406c0,3.445,2.211,6.508,5.484,7.594l25.504,8.453c1.465,4.438,3.277,8.758,5.418,12.906
	l-12.113,24.094c-1.551,3.086-0.949,6.813,1.492,9.25l18.637,18.633c2.434,2.438,6.16,3.031,9.25,1.492l24.09-12.117
	c4.156,2.148,8.477,3.961,12.918,5.422l8.531,25.602c1.09,3.266,4.145,5.469,7.59,5.469h26.398
	C256.648,360,259.711,357.789,260.793,354.508z M232.566,344l-8.016-24.055c-0.844-2.531-2.895-4.477-5.465-5.18
	c-6-1.656-11.766-4.078-17.141-7.203c-2.348-1.367-5.207-1.453-7.617-0.234l-22.68,11.406l-10.465-10.461l11.406-22.68
	c1.211-2.414,1.125-5.273-0.23-7.609c-3.125-5.383-5.551-11.148-7.207-17.156c-0.711-2.57-2.66-4.617-5.195-5.461L136,247.43
	v-14.867l24.047-8.016c2.531-0.836,4.473-2.883,5.184-5.453c1.656-6.008,4.082-11.773,7.207-17.156
	c1.355-2.336,1.441-5.195,0.23-7.609l-11.406-22.68l10.469-10.469l22.676,11.406c2.41,1.219,5.281,1.125,7.609-0.227
	c5.379-3.125,11.152-5.547,17.156-7.211c2.574-0.711,4.621-2.656,5.461-5.195L232.578,136h14.777l8.016,24.055
	c0.844,2.531,2.895,4.477,5.465,5.18c6,1.656,11.766,4.078,17.141,7.203c2.336,1.359,5.199,1.445,7.617,0.234l22.676-11.406
	l10.465,10.461l-11.402,22.68c-1.211,2.414-1.125,5.273,0.23,7.609c3.125,5.383,5.551,11.148,7.207,17.156
	c0.711,2.57,2.664,4.625,5.199,5.461L344,232.578v14.773l-24.051,8.023c-2.527,0.844-4.473,2.891-5.18,5.453
	c-1.656,6.008-4.082,11.773-7.207,17.156c-1.355,2.336-1.441,5.195-0.23,7.609l11.402,22.68l-10.465,10.461l-22.676-11.406
	c-2.414-1.219-5.273-1.133-7.617,0.234c-5.375,3.125-11.141,5.547-17.141,7.203c-2.578,0.711-4.633,2.664-5.469,5.203L247.418,344
	H232.566z"/>
<path d="M477.656,98.344l-64-64c-1.5-1.5-3.535-2.344-5.656-2.344h-20.688L357.656,2.344C356.156,0.844,354.121,0,352,0H88
	c-1.777,0-3.508,0.594-4.91,1.688l-72,56c-1.813,1.406-2.934,3.523-3.074,5.813c-0.145,2.297,0.703,4.531,2.328,6.156L48,107.313
	v81.727L1.926,242.797C0.684,244.242,0,246.094,0,248v16c0,4.422,3.582,8,8,8h40v104c0,2.125,0.844,4.156,2.344,5.656l24,24
	c1.5,1.5,3.535,2.344,5.656,2.344h80v64c0,4.422,3.582,8,8,8h168c4.418,0,8-3.578,8-8v-68.688l133.656-133.656
	c1.5-1.5,2.344-3.531,2.344-5.656V104C480,101.875,479.156,99.844,477.656,98.344z M464,260.688L330.344,394.344
	c-1.5,1.5-2.344,3.531-2.344,5.656v64H176v-64c0-4.422-3.582-8-8-8H83.313L64,372.688V264c0-4.422-3.582-8-8-8H16v-5.039
	l46.074-53.758C63.316,195.758,64,193.906,64,192v-88c0-2.125-0.844-4.156-2.344-5.656L28.066,64.75L90.746,16h257.941
	l29.656,29.656c1.5,1.5,3.535,2.344,5.656,2.344h20.688L464,107.313V260.688z"/>
<polygon points="16,160 32,160 32,144 16,144 16,104 0,104 0,200 16,200 "/>
<path d="M381.352,232.453C378.145,233.578,376,236.602,376,240c0,74.992-61.008,136-136,136v16c76.688,0,140.293-57.094,150.555-131
	l19.199,24l12.492-10l-32-40C388.121,232.352,384.535,231.328,381.352,232.453z"/>
<path d="M240,104V88c-77.645,0-141.879,58.523-150.914,133.773l-19.43-19.43l-11.313,11.313l32,32C91.875,247.188,93.918,248,96,248
	c1.031,0,2.07-0.195,3.063-0.609c2.988-1.234,4.938-4.156,4.938-7.391C104,165.008,165.008,104,240,104z"/>
<g>
</g>
<g>
</g>
<g>
</g>
<g>
</g>
<g>
</g>
<g>
</g>
<g>
</g>
<g>
</g>
<g>
</g>
<g>
</g>
<g>
</g>
<g>
</g>
<g>
</g>
<g>
</g>
<g>
</g>
</svg>
