<?xml version="1.0" encoding="iso-8859-1"?>
<!-- Generator: Adobe Illustrator 19.0.0, SVG Export Plug-In . SVG Version: 6.00 Build 0)  -->
<svg version="1.1" id="Capa_1" xmlns="http://www.w3.org/2000/svg" xmlns:xlink="http://www.w3.org/1999/xlink" x="0px" y="0px"
	 viewBox="0 0 440 440" style="enable-background:new 0 0 440 440;" xml:space="preserve">
<path style="fill:#FE946F;" d="M396,296v48c0,8.836,7.164,16,16,16v-64H396z"/>
<path style="fill:#FFB398;" d="M396,232v-32H268v120h16v80c8.836,0,16-7.164,16-16v-48l0,0l0,0h16v80c8.836,0,16-7.164,16-16v-64
	l0,0h16v96c8.836,0,16-7.164,16-16v-8v-72l0,0h16v88c8.836,0,16-7.164,16-16v-64v-48h16v64h16v-96L396,232z"/>
<g>
	<path style="fill:#FE946F;" d="M300,336v48v16c0,8.836,7.164,16,16,16v-80H300z"/>
	<path style="fill:#FE946F;" d="M268,320v8v56c0,8.836,7.164,16,16,16v-80H268z"/>
	<path style="fill:#FE946F;" d="M332,336v64v16c0,8.836,7.164,16,16,16v-96H332z"/>
	<path style="fill:#FE946F;" d="M364,336v72c0,8.836,7.164,16,16,16v-88H364z"/>
</g>
<rect x="268" y="8" style="fill:#29485A;" width="128" height="144"/>
<rect x="268" y="152" style="fill:#EBE5DD;" width="128" height="48"/>
<path style="fill:#FE946F;" d="M44,296v48c0,8.836-7.164,16-16,16v-64H44z"/>
<path style="fill:#FFB398;" d="M44,232v-32h128v120h-16v80c-8.836,0-16-7.164-16-16v-48l0,0l0,0h-16v80c-8.836,0-16-7.164-16-16v-64
	l0,0H92v96c-8.836,0-16-7.164-16-16v-8v-72l0,0H60v88c-8.836,0-16-7.164-16-16v-64v-48H28v64H12v-96L44,232z"/>
<g>
	<path style="fill:#FE946F;" d="M140,336v48v16c0,8.836-7.164,16-16,16v-80H140z"/>
	<path style="fill:#FE946F;" d="M172,320v8v56c0,8.836-7.164,16-16,16v-80H172z"/>
	<path style="fill:#FE946F;" d="M108,336v64v16c0,8.836-7.164,16-16,16v-96H108z"/>
	<path style="fill:#FE946F;" d="M76,336v72c0,8.836-7.164,16-16,16v-88H76z"/>
</g>
<rect x="44" y="8" style="fill:#29485A;" width="128" height="144"/>
<rect x="44" y="152" style="fill:#EBE5DD;" width="128" height="48"/>
<path style="fill:#E7B900;" d="M325.36,265.36c-6-6.006-9.367-14.15-9.36-22.64V136c0-17.673-14.327-32-32-32s-32-14.327-32-32
	c-0.039-5.606,1.396-11.123,4.16-16L284,8h-32l-27.84,48c-2.764,4.877-4.199,10.394-4.16,16c0,17.673,14.327,32,32,32
	s32,14.327,32,32v106.72c-0.007,8.49,3.36,16.634,9.36,22.64L316,288v16h32v-16L325.36,265.36z"/>
<path style="fill:#FFD422;" d="M293.36,265.36c-6-6.006-9.367-14.15-9.36-22.64V136c0-17.673-14.327-32-32-32s-32-14.327-32-32
	c-0.039-5.606,1.396-11.123,4.16-16L252,8h-96l27.84,48.72c2.645,4.665,4.076,9.919,4.16,15.28c0,17.673-14.327,32-32,32
	s-32,14.327-32,32v106.72c0.007,8.49-3.36,16.634-9.36,22.64L92,288v16h224v-16L293.36,265.36z"/>
<g>
	<path style="fill:#884D00;" d="M228.082,129.133L221.063,80h-2.125l-7.02,49.133l-15.836-2.266l8-56
		C204.645,66.93,208.02,64,212,64h16c3.98,0,7.355,2.93,7.918,6.867l8,56L228.082,129.133z"/>
	
		<rect x="251.997" y="64.162" transform="matrix(-0.9999 0.0166 -0.0166 -0.9999 529.1564 139.9318)" style="fill:#884D00;" width="24" height="16"/>
	
		<rect x="168.021" y="60.238" transform="matrix(-0.0166 0.9999 -0.9999 -0.0166 251.171 -102.5601)" style="fill:#884D00;" width="16" height="24"/>
</g>
<path style="fill:#69C229;" d="M244,216c0-13.234-10.766-24-24-24c-4.41,0-8-3.586-8-8s3.59-8,8-8h16v-16h-8v-8h-16v9.474
	c-9.292,3.313-16,12.11-16,22.526c0,13.234,10.766,24,24,24c4.41,0,8,3.586,8,8s-3.59,8-8,8h-16v16h8v8h16v-9.474
	C237.292,235.213,244,226.416,244,216z"/>
<g>
	<path style="fill:#FFFFFF;" d="M164,192h-16v-48c0-13.234,10.766-24,24-24h8v16h-8c-4.41,0-8,3.586-8,8V192z"/>
	<rect x="148" y="216" style="fill:#FFFFFF;" width="16" height="16"/>
</g>
<path d="M84,288v16c0,4.422,3.582,8,8,8h256c4.418,0,8-3.578,8-8v-16c0-2.125-0.844-4.156-2.344-5.656l-22.637-22.641
	c-4.531-4.539-7.027-10.563-7.02-16.984V136c0-22.055-17.945-40-40-40c-10.317,0-19.057-6.577-22.442-15.758L276.133,80l-0.266-16
	l-14.492,0.241c0.482-1.448,0.958-2.906,1.707-4.225l27.84-48c1.434-2.477,1.438-5.531,0.012-8.008C289.504,1.531,286.859,0,284,0
	H156c-2.852,0-5.488,1.516-6.918,3.984c-1.434,2.469-1.441,5.508-0.027,7.984l27.824,48.695c0.641,1.127,1.027,2.362,1.476,3.572
	L164.133,64l-0.266,16l14.583,0.242C175.072,89.41,166.327,96,156,96c-22.055,0-40,17.945-40,40v106.727
	c0.008,6.414-2.488,12.438-7.016,16.977l-22.641,22.641C84.844,283.844,84,285.875,84,288z M100,291.313l20.301-20.297
	c7.555-7.57,11.711-17.617,11.699-28.297V136c0-13.234,10.766-24,24-24c22.055,0,40-17.945,40-40.125
	c-0.109-6.688-1.906-13.289-5.215-19.125l-21-36.75h100.328l-20.91,36.055c-3.453,6.086-5.25,13-5.203,19.945
	c0,22.055,17.945,40,40,40c13.234,0,24,10.766,24,24v106.711c-0.012,10.688,4.145,20.734,11.703,28.305L340,291.313V296H100V291.313
	z"/>
<path d="M218.938,80h2.125l7.02,49.133l15.836-2.266l-8-56C235.355,66.93,231.98,64,228,64h-16c-3.98,0-7.355,2.93-7.918,6.867
	l-8,56l15.836,2.266L218.938,80z"/>
<path d="M220,192c-4.41,0-8-3.586-8-8s3.59-8,8-8h16v-16h-8v-8h-16v9.474c-9.292,3.313-16,12.11-16,22.526c0,13.234,10.766,24,24,24
	c4.41,0,8,3.586,8,8s-3.59,8-8,8h-16v16h8v8h16v-9.474c9.292-3.313,16-12.11,16-22.526C244,202.766,233.234,192,220,192z"/>
<path d="M433.656,258.344L404,228.688V8h-16v136h-48v16h48v32h-48v16h48v24c0,2.125,0.844,4.156,2.344,5.656L420,267.313V352h-8
	c-4.41,0-8-3.586-8-8v-48h-16v48v64c0,4.414-3.59,8-8,8s-8-3.586-8-8v-72h-16v72v8c0,4.414-3.59,8-8,8s-8-3.586-8-8v-16v-64h-16v64
	c0,4.414-3.59,8-8,8s-8-3.586-8-8v-16v-56h-16v56c0,4.414-3.59,8-8,8s-8-3.586-8-8v-56h-16v56c0,13.234,10.766,24,24,24
	c3.159,0,6.161-0.648,8.926-1.762C295.692,416.438,304.937,424,316,424c3.159,0,6.161-0.648,8.926-1.762
	C327.692,432.438,336.937,440,348,440c8.523,0,15.975-4.497,20.233-11.211C371.726,430.774,375.704,432,380,432
	c13.234,0,24-10.766,24-24v-41.475c2.515,0.896,5.181,1.475,8,1.475h16c4.418,0,8-3.578,8-8v-96
	C436,261.875,435.156,259.844,433.656,258.344z"/>
<path d="M164,384c0,4.414-3.59,8-8,8s-8-3.586-8-8v-56h-16v56v16c0,4.414-3.59,8-8,8s-8-3.586-8-8v-64h-16v64v16c0,4.414-3.59,8-8,8
	s-8-3.586-8-8v-8v-72H68v72c0,4.414-3.59,8-8,8s-8-3.586-8-8v-64v-48H36v48c0,4.414-3.59,8-8,8h-8v-84.688l29.656-29.656
	c1.5-1.5,2.344-3.531,2.344-5.656v-24h48v-16H52v-32h48v-16H52V8H36v220.688L6.344,258.344C4.844,259.844,4,261.875,4,264v96
	c0,4.422,3.582,8,8,8h16c2.819,0,5.485-0.578,8-1.474V408c0,13.234,10.766,24,24,24c4.296,0,8.274-1.227,11.767-3.211
	C76.025,435.503,83.477,440,92,440c11.063,0,20.308-7.563,23.074-17.762c2.765,1.114,5.767,1.762,8.926,1.762
	c11.063,0,20.308-7.563,23.074-17.762c2.765,1.114,5.767,1.762,8.926,1.762c13.234,0,24-10.766,24-24v-56h-16V384z"/>
<g>
</g>
<g>
</g>
<g>
</g>
<g>
</g>
<g>
</g>
<g>
</g>
<g>
</g>
<g>
</g>
<g>
</g>
<g>
</g>
<g>
</g>
<g>
</g>
<g>
</g>
<g>
</g>
<g>
</g>
</svg>
