<?xml version="1.0" encoding="iso-8859-1"?>
<!-- Generator: Adobe Illustrator 19.0.0, SVG Export Plug-In . SVG Version: 6.00 Build 0)  -->
<svg version="1.1" id="Capa_1" xmlns="http://www.w3.org/2000/svg" xmlns:xlink="http://www.w3.org/1999/xlink" x="0px" y="0px"
	 viewBox="0 0 480 480" style="enable-background:new 0 0 480 480;" xml:space="preserve">
<path style="fill:#5AAAE7;" d="M16,416v-32h16v-16H16v-32h32v-16H16v-32h16v-16H16v-32h32v-16H16v-32h16v-16H16v-32h32v-16H16V96h16
	V80H16V48h32V32H16V0H0v424c0,4.422,3.578,8,8,8h472v-16H16z"/>
<g>
	<rect x="80" y="448" style="fill:#69C229;" width="16" height="32"/>
	<rect x="112" y="448" style="fill:#69C229;" width="16" height="32"/>
	<rect x="192" y="448" style="fill:#69C229;" width="16" height="32"/>
	<rect x="224" y="448" style="fill:#69C229;" width="16" height="32"/>
	<rect x="304" y="448" style="fill:#69C229;" width="16" height="32"/>
	<rect x="336" y="448" style="fill:#69C229;" width="16" height="32"/>
	<rect x="416" y="448" style="fill:#69C229;" width="16" height="32"/>
	<rect x="448" y="448" style="fill:#69C229;" width="16" height="32"/>
</g>
<g>
	<circle style="fill:#FFD422;" cx="104" cy="368" r="24"/>
	<circle style="fill:#FFD422;" cx="440" cy="176" r="24"/>
	<path style="fill:#FFD422;" d="M240,280c0.012,2.223-0.312,4.434-0.96,6.56c-3.712,12.724-17.037,20.03-29.761,16.318
		c-12.724-3.712-20.03-17.037-16.318-29.761c3.712-12.724,17.037-20.03,29.761-16.318C233.019,259.803,240.072,269.274,240,280z"/>
	<path style="fill:#FFD422;" d="M352,312c0,13.255-10.745,24-24,24s-24-10.745-24-24c-0.012-2.223,0.312-4.434,0.96-6.56
		c3.71-12.725,17.034-20.033,29.759-16.322C344.903,292.087,351.93,301.391,352,312z"/>
</g>
<g>
	
		<rect x="318.623" y="234.67" transform="matrix(-0.6247 0.7809 -0.7809 -0.6247 812.5313 94.8198)" style="fill:#E7B900;" width="129.713" height="16"/>
	
		<rect x="263.997" y="261.717" transform="matrix(-0.2753 0.9614 -0.9614 -0.2753 631.429 115.9924)" style="fill:#E7B900;" width="15.992" height="68.568"/>
	
		<rect x="110.364" y="315.197" transform="matrix(-0.8001 0.5998 -0.5998 -0.8001 478.939 486.7937)" style="fill:#E7B900;" width="96" height="15.992"/>
</g>
<g>
	<circle style="fill:#F40E34;" cx="104" cy="248" r="24"/>
	<circle style="fill:#F40E34;" cx="216" cy="72" r="24"/>
	<path style="fill:#F40E34;" d="M464,96c0.048,13.255-10.658,24.039-23.913,24.087c-8.674,0.031-16.69-4.62-20.967-12.167
		c-2.02-3.65-3.092-7.748-3.12-11.92c0-13.255,10.745-24,24-24S464,82.745,464,96z"/>
	<path style="fill:#F40E34;" d="M352,160c0.03,13.255-10.692,24.024-23.947,24.053c-13.255,0.03-24.024-10.692-24.053-23.947
		c-0.03-13.255,10.692-24.024,23.947-24.053c8.604-0.019,16.561,4.569,20.853,12.027C350.888,151.706,351.991,155.816,352,160z"/>
</g>
<g>
	
		<rect x="342.82" y="118.037" transform="matrix(-0.8625 0.506 -0.506 -0.8625 783.4641 39.222)" style="fill:#A6001E;" width="87.168" height="15.992"/>
	
		<rect x="263.995" y="68.768" transform="matrix(-0.6183 0.7859 -0.7859 -0.6183 531.343 -26.0421)" style="fill:#A6001E;" width="16" height="94.456"/>
	
		<rect x="83.694" y="150.123" transform="matrix(-0.5333 0.8459 -0.8459 -0.5333 381.5217 105.7679)" style="fill:#A6001E;" width="155.784" height="16"/>
</g>
<g>
	<rect x="440" y="176" style="fill:#FFFFFF;" width="16" height="16"/>
	<rect x="440" y="96" style="fill:#FFFFFF;" width="16" height="16"/>
	<rect x="328" y="160" style="fill:#FFFFFF;" width="16" height="16"/>
	<rect x="216" y="72" style="fill:#FFFFFF;" width="16" height="16"/>
	<rect x="104" y="248" style="fill:#FFFFFF;" width="16" height="16"/>
	<rect x="104" y="368" style="fill:#FFFFFF;" width="16" height="16"/>
	<rect x="216" y="280" style="fill:#FFFFFF;" width="16" height="16"/>
	<rect x="328" y="312" style="fill:#FFFFFF;" width="16" height="16"/>
</g>
<path d="M16,416v-32h16v-16H16v-32h32v-16H16v-32h16v-16H16v-32h32v-16H16v-32h16v-16H16v-32h32v-16H16V96h16V80H16V48h32V32H16V0H0
	v424c0,4.422,3.578,8,8,8h472v-16H16z"/>
<rect x="80" y="448" width="16" height="32"/>
<rect x="112" y="448" width="16" height="32"/>
<rect x="192" y="448" width="16" height="32"/>
<rect x="224" y="448" width="16" height="32"/>
<rect x="304" y="448" width="16" height="32"/>
<rect x="336" y="448" width="16" height="32"/>
<rect x="416" y="448" width="16" height="32"/>
<rect x="448" y="448" width="16" height="32"/>
<path d="M104,400c17.648,0,32-14.352,32-32c0-5.47-1.506-10.545-3.935-15.053l64.05-48.041c3.201,2.539,6.885,4.471,10.924,5.648
	c2.969,0.867,6,1.297,9.016,1.297c5.297,0,10.547-1.336,15.328-3.953c5.11-2.8,9.164-6.907,12.041-11.762l52.632,15.07
	c-0.005,0.264-0.058,0.53-0.056,0.794c0,17.648,14.352,32,32,32s32-14.352,32-32c0-0.016,0-0.039,0-0.055
	c-0.047-7.013-2.436-13.653-6.494-19.032l71.197-88.98C429.269,206.444,434.431,208,440,208c17.648,0,32-14.352,32-32
	s-14.352-32-32-32s-32,14.352-32,32c0,6.248,1.869,12.037,4.975,16.967l-72.015,90.003c-1.297-0.579-2.612-1.129-3.999-1.533
	c-14.318-4.17-29.143,2.215-36.388,14.425l-52.629-15.069c0.006-0.266,0.058-0.528,0.056-0.794
	c0.07-14.203-9.398-26.898-23.039-30.883c-8.219-2.406-16.852-1.453-24.344,2.664c-7.5,4.109-12.945,10.891-15.336,19.094
	c-2.065,7.092-1.493,14.465,1.309,21.183l-65.388,49.044C116.224,337.909,110.342,336,104,336c-17.648,0-32,14.352-32,32
	S86.352,400,104,400z M440,160c8.82,0,16,7.18,16,16s-7.18,16-16,16s-16-7.18-16-16S431.18,160,440,160z M312.641,307.68
	c2.039-6.984,8.438-11.523,15.367-11.523c1.477,0,2.984,0.211,4.477,0.641c6.828,1.992,11.461,8.109,11.516,15.234
	c-0.016,8.805-7.188,15.969-16,15.969c-8.82,0-16-7.18-16-16.055C311.992,310.539,312.195,309.141,312.641,307.68z M200.641,275.359
	c1.195-4.102,3.922-7.5,7.664-9.555c2.398-1.305,5.023-1.977,7.672-1.977c1.508,0,3.016,0.219,4.5,0.648
	c6.828,1.992,11.57,8.359,11.523,15.469c0,0.039,0,0.078,0,0.109c0.008,1.406-0.195,2.805-0.641,4.266
	c-1.195,4.102-3.922,7.492-7.664,9.547c-3.758,2.055-8.086,2.531-12.172,1.328c-4.109-1.195-7.5-3.922-9.555-7.664
	C199.914,283.781,199.445,279.461,200.641,275.359z M104,352c8.82,0,16,7.18,16,16s-7.18,16-16,16s-16-7.18-16-16S95.18,352,104,352
	z"/>
<path d="M104,280c17.648,0,32-14.352,32-32c0-8.195-3.185-15.601-8.267-21.268l78.489-124.421c3.102,1.004,6.346,1.689,9.778,1.689
	c7.294,0,13.945-2.547,19.332-6.669l63.407,49.887c-1.744,3.958-2.75,8.311-2.739,12.907c0.039,17.625,14.391,31.93,32,31.93
	c0.023,0,0.047,0,0.07,0c17.648-0.039,31.969-14.43,31.93-32.07c-0.004-2.888-0.419-5.748-1.187-8.507l57.653-33.792
	c5.993,6.517,14.484,10.4,23.533,10.4c0.039,0,0.078,0,0.117,0C457.75,128.023,472.047,113.633,472,96c0-17.648-14.359-32-32-32
	c-17.648,0-32,14.352-32,32.063c0.018,2.525,0.362,5.033,0.954,7.486l-58.152,34.084c-5.941-6.028-14.13-9.578-22.786-9.578
	c-0.031,0-0.063,0-0.086,0c-7.252,0.016-13.866,2.548-19.229,6.641l-63.414-49.893C247.011,80.876,248,76.557,248,72
	c0-17.648-14.352-32-32-32s-32,14.352-32,32c0,8.434,3.342,16.059,8.69,21.78l-78.288,124.103C111.124,216.746,107.662,216,104,216
	c-17.648,0-32,14.352-32,32S86.352,280,104,280z M440,80c8.82,0,16,7.18,16,16c0,0.008,0,0.016,0,0.031
	c0.031,8.82-7.117,16.023-15.945,16.055c-0.016,0-0.039,0-0.055,0c-5.75,0-11.086-3.102-13.883-8.031
	c-1.359-2.477-2.094-5.281-2.117-8.055C424,87.18,431.18,80,440,80z M327.969,144.055c0.016,0,0.023,0,0.039,0
	c5.703,0,11.008,3.07,13.859,8.023c1.391,2.406,2.125,5.148,2.133,7.938c0.023,8.828-7.141,16.016-15.961,16.039
	c-0.016,0-0.031,0-0.039,0c-8.805,0-15.977-7.156-16-15.961C311.977,151.266,319.141,144.078,327.969,144.055z M216,56
	c8.82,0,16,7.18,16,16s-7.18,16-16,16s-16-7.18-16-16S207.18,56,216,56z M104,232c8.82,0,16,7.18,16,16s-7.18,16-16,16
	s-16-7.18-16-16S95.18,232,104,232z"/>
<g>
</g>
<g>
</g>
<g>
</g>
<g>
</g>
<g>
</g>
<g>
</g>
<g>
</g>
<g>
</g>
<g>
</g>
<g>
</g>
<g>
</g>
<g>
</g>
<g>
</g>
<g>
</g>
<g>
</g>
</svg>
