<?xml version="1.0" encoding="iso-8859-1"?>
<!-- Generator: Adobe Illustrator 19.0.0, SVG Export Plug-In . SVG Version: 6.00 Build 0)  -->
<svg version="1.1" id="Capa_1" xmlns="http://www.w3.org/2000/svg" xmlns:xlink="http://www.w3.org/1999/xlink" x="0px" y="0px"
	 viewBox="0 0 480 480" style="enable-background:new 0 0 480 480;" xml:space="preserve">
<g>
	<path style="fill:#69C229;" d="M268,8h16l0,0l0,0c0,17.673-14.327,32-32,32h-16l0,0l0,0C236,22.327,250.327,8,268,8z"/>
	<path style="fill:#69C229;" d="M268,64h16l0,0l0,0c0,17.673-14.327,32-32,32h-16l0,0l0,0C236,78.327,250.327,64,268,64z"/>
	<path style="fill:#69C229;" d="M236,80h-16c-17.673,0-32-14.327-32-32l0,0l0,0h16C221.673,48,236,62.327,236,80L236,80L236,80z"/>
</g>
<rect x="228" y="40" style="fill:#884D00;" width="16" height="80"/>
<rect x="92" y="352" style="fill:#FFD422;" width="96" height="16"/>
<rect x="108" y="320" style="fill:#E7B900;" width="96" height="16"/>
<rect x="100" y="288" style="fill:#FFD422;" width="88" height="16"/>
<g>
	<rect x="92" y="256" style="fill:#E7B900;" width="80" height="16"/>
	<rect x="268" y="352" style="fill:#E7B900;" width="88" height="16"/>
	<rect x="284" y="320" style="fill:#E7B900;" width="88" height="16"/>
</g>
<rect x="260" y="288" style="fill:#FFD422;" width="80" height="16"/>
<g>
	
		<rect x="286.8" y="244.007" transform="matrix(-0.874 0.4859 -0.4859 -0.874 737.0928 312.9199)" style="fill:#E7B900;" width="82.368" height="16"/>
	
		<rect x="208.002" y="260.402" transform="matrix(-0.7071 0.7071 -0.7071 -0.7071 580.8688 359.3922)" style="fill:#E7B900;" width="16" height="79.192"/>
</g>
<g>
	
		<rect x="356.002" y="262.025" transform="matrix(-0.7071 0.7071 -0.7071 -0.7071 830.6689 247.8562)" style="fill:#FFD422;" width="16" height="67.88"/>
	<circle style="fill:#FFD422;" cx="236" cy="192" r="64"/>
</g>
<g>
	<path style="fill:#E7B900;" d="M236,112c-44.113,0-80,35.887-80,80s35.887,80,80,80s80-35.887,80-80S280.113,112,236,112z M236,256
		c-35.289,0-64-28.711-64-64s28.711-64,64-64s64,28.711,64,64S271.289,256,236,256z"/>
	<path style="fill:#E7B900;" d="M260,208c0-13.234-10.766-24-24-24c-4.41,0-8-3.59-8-8s3.59-8,8-8h16v-16h-8v-8h-16v9.474
		c-9.292,3.313-16,12.11-16,22.526c0,13.234,10.766,24,24,24c4.41,0,8,3.59,8,8s-3.59,8-8,8h-16v16h8v8h16v-9.474
		C253.292,227.213,260,218.416,260,208z"/>
</g>
<g>
	<path style="fill:#FFFFFF;" d="M201.715,158.453l-11.438-11.188c12.148-12.422,28.387-19.258,45.723-19.258v16
		C223.004,144.008,210.828,149.141,201.715,158.453z"/>
	<path style="fill:#FFFFFF;" d="M261.004,250.914l-6.25-14.734c11.961-5.07,21.164-14.555,25.914-26.695l14.898,5.828
		C289.234,231.492,276.961,244.141,261.004,250.914z"/>
</g>
<polygon style="fill:#FE946F;" points="116,440 148,472 396,472 396,440 "/>
<path style="fill:#FFB398;" d="M396,400H276l-32-24v-24h-16c-8.836,0-16,7.164-16,16v32H92v16l24,24h280V400z"/>
<path d="M239.199,382.398l32,24c1.387,1.039,3.07,1.602,4.801,1.602h120v-16H278.668L252,372v-20c0-4.422-3.582-8-8-8h-16
	c-13.234,0-24,10.766-24,24v24H92c-4.418,0-8,3.578-8,8v16c0,2.125,0.844,4.156,2.344,5.656l56,56c1.5,1.5,3.535,2.344,5.656,2.344
	h248v-16H151.313L100,412.688V408h112c4.418,0,8-3.578,8-8v-32c0-4.414,3.59-8,8-8h8v16
	C236,378.516,237.184,380.891,239.199,382.398z"/>
<path d="M236.012,272c5.926-0.008,11.883-0.664,17.766-1.961C290.434,261.688,316.02,229.594,316,192
	c0.02-37.594-25.566-69.688-62.281-78.055c-3.207-0.706-6.457-1.178-9.719-1.5V104h8c22.055,0,40-17.945,40-40c0-4.422-3.582-8-8-8
	h-16c-9.04,0-17.294,3.128-24,8.205V48h8c22.055,0,40-17.945,40-40c0-4.422-3.582-8-8-8h-16c-22.055,0-40,17.945-40,40v8.205
	C221.294,43.128,213.04,40,204,40h-16c-4.418,0-8,3.578-8,8c0,22.055,17.945,40,40,40h8v24.406c-40.371,4.028-72,38.185-72,79.594
	C156,236.109,191.887,272,236.012,272z M220,72c-10.43,0-19.328-6.688-22.629-16H204c10.43,0,19.328,6.688,22.629,16H220z M268,72
	h6.629C271.328,81.313,262.43,88,252,88h-6.629C248.672,78.688,257.57,72,268,72z M268,16h6.629C271.328,25.313,262.43,32,252,32
	h-6.629C248.672,22.688,257.57,16,268,16z M235.988,128c4.777,0.008,9.586,0.539,14.234,1.555
	c29.324,6.688,49.793,32.359,49.777,62.438c0,0.008,0,0.008,0,0.016c0.016,30.078-20.453,55.75-49.719,62.422
	c-4.707,1.031-9.516,1.563-14.281,1.57c-35.289,0-64-28.711-64-64S200.711,128,235.988,128z"/>
<path d="M236,200c4.41,0,8,3.586,8,8s-3.59,8-8,8h-16v16h8v8h16v-9.474c9.292-3.313,16-12.11,16-22.526c0-13.234-10.766-24-24-24
	c-4.41,0-8-3.586-8-8s3.59-8,8-8h16v-16h-8v-8h-16v9.474c-9.292,3.313-16,12.11-16,22.526C212,189.234,222.766,200,236,200z"/>
<rect x="92" y="352" width="96" height="16"/>
<rect x="108" y="320" width="96" height="16"/>
<rect x="100" y="288" width="88" height="16"/>
<rect x="92" y="256" width="80" height="16"/>
<rect x="268" y="352" width="88" height="16"/>
<rect x="284" y="320" width="88" height="16"/>
<rect x="260" y="288" width="80" height="16"/>
<rect x="286.801" y="244.008" transform="matrix(-0.8742 0.4856 -0.4856 -0.8742 737.0815 313.0204)" width="82.368" height="16"/>
<rect x="208.002" y="260.402" transform="matrix(-0.7071 0.7071 -0.7071 -0.7071 580.8688 359.3922)" width="16" height="79.192"/>
<rect x="356.002" y="262.025" transform="matrix(-0.7071 0.7071 -0.7071 -0.7071 830.6689 247.8562)" width="16" height="67.88"/>
<g>
</g>
<g>
</g>
<g>
</g>
<g>
</g>
<g>
</g>
<g>
</g>
<g>
</g>
<g>
</g>
<g>
</g>
<g>
</g>
<g>
</g>
<g>
</g>
<g>
</g>
<g>
</g>
<g>
</g>
</svg>
