<?xml version="1.0" encoding="iso-8859-1"?>
<!-- Generator: Adobe Illustrator 19.0.0, SVG Export Plug-In . SVG Version: 6.00 Build 0)  -->
<svg version="1.1" id="Capa_1" xmlns="http://www.w3.org/2000/svg" xmlns:xlink="http://www.w3.org/1999/xlink" x="0px" y="0px"
	 viewBox="0 0 480 480" style="enable-background:new 0 0 480 480;" xml:space="preserve">
<path style="fill:#E7B900;" d="M281.4,56.6c7.9,15.5,9.1,34.2,1.6,51.4c-1.9,4.3-4.2,8.3-7,12c-0.3,0.4-0.6,0.8-1,1.2l-2.1,2.5
	c-10.6,12.9-13.7,20.3-15,44.3c0,5.9-2.1,11.6-6,16h-42l0,0c0,5.9,2.1,11.6,6,16h48c3.9-4.4,6-10.1,6-16c1.3-24,4.3-31.4,15-44.3
	l2.1-2.5c0.4-0.4,0.7-0.8,1-1.2c2.8-3.7,5.2-7.7,7-12C305.4,100.2,299.1,73.5,281.4,56.6z"/>
<path style="fill:#FFD422;" d="M258,168c1.3-24,4.3-31.4,15-44.3l2.1-2.5c0.4-0.4,0.7-0.8,1-1.2c2.8-3.7,5.2-7.7,7-12
	c7.5-17.2,6.3-35.9-1.6-51.4c-4.9-4.7-10.7-8.7-17.3-11.6c-30.4-13.2-65.7,0.6-79,31c-6.7,15.3-6.7,32.7,0,48c1.8,4.3,4.2,8.3,7,12
	c0.2,0.4,0.5,0.8,0.9,1.1l2.1,2.5c10.7,13,13.8,20.4,15,44.4h42C255.9,179.6,258,173.9,258,168z"/>
<path style="fill:#D4C8B8;" d="M248,208v24c0,6.6-5.4,12-12,12c0,5-3.1,9.3-7.5,11.1c1.4,5.1,6,8.9,11.5,8.9c6.6,0,12-5.4,12-12
	c6.6,0,12-5.4,12-12v-32H248z"/>
<path style="fill:#EBE5DD;" d="M236,244c6.6,0,12-5.4,12-12v-24h-32v32c0,6.6,5.4,12,12,12c0,1.1,0.2,2.1,0.5,3.1
	C232.9,253.3,236,249,236,244z"/>
<path style="fill:#FFB398;" d="M304,480V336c0-8.8-7.2-16-16-16h-80v-32c0-8.8-7.2-16-16-16l0,0c-8.8,0-16,7.2-16,16v80h-16
	c-8.8,0-16,7.2-16,16v24l32,32v40H304z"/>
<path style="fill:#5AAAE7;" d="M64,128H24c-8.8,0-16-7.2-16-16V96h112v96H88c-8.8,0-16-7.2-16-16v-16h24H56c-8.8,0-16-7.2-16-16v-16
	H64z"/>
<g>
	<rect x="40" y="128" style="fill:#1E81CE;" width="24" height="16"/>
	<rect x="72" y="160" style="fill:#1E81CE;" width="24" height="16"/>
</g>
<path style="fill:#5AAAE7;" d="M416,128h40c8.8,0,16-7.2,16-16V96H360v96h32c8.8,0,16-7.2,16-16v-16h-24h40c8.8,0,16-7.2,16-16v-16
	H416z"/>
<g>
	<rect x="416" y="128" style="fill:#1E81CE;" width="24" height="16"/>
	<rect x="384" y="160" style="fill:#1E81CE;" width="24" height="16"/>
</g>
<circle style="fill:#FFE578;" cx="232" cy="88" r="40"/>
<path style="fill:#FFFFFF;" d="M216,96h-16c0-22.1,17.9-40,40-40v16C226.8,72,216,82.8,216,96z"/>
<path style="fill:#FE946F;" d="M296,400c-4.4,0-8-3.6-8-8v-64h-16v64c0,4.4-3.6,8-8,8s-8-3.6-8-8v-16v-48h-16v40h-16v-40h-16v40h-48
	v16h80v8c0,4.4-3.6,8-8,8h-32c-4.4,0-8,3.6-8,8s3.6,8,8,8c13.2,0,24,10.8,24,24v16h16v-16c0-9-3-17.3-8-24l0,0
	c6.2,0,11.7-2.4,16-6.2c4.3,3.8,9.8,6.2,16,6.2s11.7-2.4,16-6.2c4.3,3.8,9.8,6.2,16,6.2c2.8,0,5.5-0.6,8-1.5V392
	C304,396.4,300.4,400,296,400z"/>
<path d="M303.4,75.2c-6.6-17-19.5-30.2-36.2-37.5c-34.3-15-74.5,0.8-89.5,35.2c-7.5,17.2-7.5,37,0,54.2c2.1,4.8,4.6,9.3,7.7,13.4
	c0.6,0.8,1.1,1.5,1.4,1.7l2.1,2.5c9.4,11.4,12,17.3,13.2,39.2c-0.1,6.8,2.2,13.3,6,18.7V240c0,8.6,5.5,16,13.2,18.8
	c2.8,7.7,10.2,13.2,18.8,13.2s16-5.5,18.8-13.2c7.7-2.8,13.2-10.2,13.2-18.8v-37.4c3.8-5.4,6-11.8,6-18.2
	c1.2-22.4,3.7-28.2,13.1-39.6l1.8-2.2c0.6-0.6,1.1-1.4,1.6-2.1c3.1-4.2,5.8-8.6,7.8-13.4C309.6,110.6,310,92.1,303.4,75.2z M256,240
	c0,2.2-1.8,4-4,4c-4.4,0-8,3.6-8,8c0,2.2-1.8,4-4,4s-4-1.8-4-4c0-4.4-3.6-8-8-8c-2.2,0-4-1.8-4-4v-32h32V240z M287.7,120.8
	c-1.6,3.7-3.6,7.2-6.1,10.6l-0.7,0.7l-2.1,2.5c-12.2,14.7-15.4,24.4-16.8,49.5c0,2.8-0.7,5.5-2.1,7.9h-39.8
	c-1.4-2.5-2.1-5.3-2.1-8.4c-1.4-24.6-4.6-34.3-16.9-49.1l-2.2-2.6c-0.2-0.2-0.3-0.5-0.5-0.7c-2.4-3.2-4.4-6.6-6-10.4
	c-5.8-13.2-5.8-28.3,0-41.5c11.4-26.3,42.2-38.4,68.4-27c12.7,5.6,22.6,15.8,27.7,28.7C293.5,93.9,293.3,108.1,287.7,120.8z"/>
<path d="M288,312h-72v-24c0-13.2-10.8-24-24-24s-24,10.8-24,24v72h-8c-13.2,0-24,10.8-24,24v24c0,2.1,0.8,4.2,2.3,5.7l29.7,29.7V480
	h16v-40c0-2.1-0.8-4.2-2.3-5.7L152,404.7V384c0-4.4,3.6-8,8-8h16h56v8c0,4.4-3.6,8-8,8h-32c-4.4,0-8,3.6-8,8s3.6,8,8,8
	c13.2,0,24,10.8,24,24v16h16v-16c0-9-3-17.3-8-24l0,0c6.2,0,11.7-2.4,16-6.2c4.3,3.8,9.8,6.2,16,6.2s11.7-2.4,16-6.2
	c4.3,3.8,9.8,6.2,16,6.2c2.8,0,5.5-0.6,8-1.5V480h16V336C312,322.8,301.2,312,288,312z M192,280c4.4,0,8,3.6,8,8v32v40h-16v-72
	C184,283.6,187.6,280,192,280z M216,360v-32h16v32H216z M256,392c-4.4,0-8-3.6-8-8v-16v-40h16v56C264,388.4,260.4,392,256,392z
	 M288,392c-4.4,0-8-3.6-8-8v-56h8c4.4,0,8,3.6,8,8v48C296,388.4,292.4,392,288,392z"/>
<path d="M240,72V56c-22.1,0-40,17.9-40,40h16C216,82.8,226.8,72,240,72z"/>
<path d="M472,88H360c-4.4,0-8,3.6-8,8v96c0,4.4,3.6,8,8,8h32c13.2,0,24-10.8,24-24v-8h8c13.2,0,24-10.8,24-24v-8h8
	c13.2,0,24-10.8,24-24V96C480,91.6,476.4,88,472,88z M464,112c0,4.4-3.6,8-8,8h-40v16h16v8c0,4.4-3.6,8-8,8h-40v16h16v8
	c0,4.4-3.6,8-8,8h-24v-80h96V112z"/>
<path d="M120,88H8c-4.4,0-8,3.6-8,8v16c0,13.2,10.8,24,24,24h8v8c0,13.2,10.8,24,24,24h8v8c0,13.2,10.8,24,24,24h32c4.4,0,8-3.6,8-8
	V96C128,91.6,124.4,88,120,88z M112,184H88c-4.4,0-8-3.6-8-8v-8h16v-16H56c-4.4,0-8-3.6-8-8v-8h16v-16H24c-4.4,0-8-3.6-8-8v-8h96
	V184z"/>
<rect x="232" width="16" height="16"/>
<rect x="169.78" y="25.672" transform="matrix(-0.7071 0.7071 -0.7071 -0.7071 327.335 -68.1421)" width="16" height="16.1"/>
<rect x="144" y="88" width="16" height="16"/>
<rect x="169.668" y="150.216" transform="matrix(-0.7071 0.7071 -0.7071 -0.7071 415.2584 144.4267)" width="16.1" height="16"/>
<rect x="294.215" y="150.223" transform="matrix(-0.7071 0.7071 -0.7071 -0.7071 627.8298 56.4903)" width="16" height="16.1"/>
<rect x="320" y="88" width="16" height="16"/>
<rect x="294.218" y="25.779" transform="matrix(-0.7071 0.7071 -0.7071 -0.7071 539.8894 -156.0715)" width="16.1" height="16"/>
<g>
</g>
<g>
</g>
<g>
</g>
<g>
</g>
<g>
</g>
<g>
</g>
<g>
</g>
<g>
</g>
<g>
</g>
<g>
</g>
<g>
</g>
<g>
</g>
<g>
</g>
<g>
</g>
<g>
</g>
</svg>
