<?xml version="1.0" encoding="iso-8859-1"?>
<!-- Generator: Adobe Illustrator 19.0.0, SVG Export Plug-In . SVG Version: 6.00 Build 0)  -->
<svg version="1.1" id="Capa_1" xmlns="http://www.w3.org/2000/svg" xmlns:xlink="http://www.w3.org/1999/xlink" x="0px" y="0px"
	 viewBox="0 0 480 480" style="enable-background:new 0 0 480 480;" xml:space="preserve">
<path style="fill:#FFD422;" d="M296,96c0.019,33.615-23.225,62.77-56,70.24c-5.255,1.16-10.619,1.75-16,1.76
	c-39.764,0-72-32.236-72-72s32.236-72,72-72c5.381,0.01,10.745,0.6,16,1.76C272.775,33.23,296.019,62.385,296,96z"/>
<path style="fill:#E7B900;" d="M224.016,176C179.891,176,144,140.113,144,96s35.891-80,80-80c5.961,0.012,11.922,0.668,17.727,1.949
	C278.43,26.313,304.016,58.406,304,96c0.016,37.594-25.57,69.688-62.219,78.039C235.922,175.332,229.961,175.988,224.016,176z
	 M223.984,32C188.711,32,160,60.711,160,96s28.711,64,64,64c4.781-0.012,9.594-0.539,14.273-1.574
	c29.273-6.668,49.742-32.344,49.727-62.422c0-0.004,0-0.004,0-0.008c0.016-30.078-20.453-55.754-49.781-62.434
	C233.594,32.539,228.781,32.012,223.984,32z"/>
<path style="fill:#FFD422;" d="M328,96c0,39.764-32.236,72-72,72l0,0c-5.381-0.01-10.745-0.6-16-1.76
	c38.792-8.738,63.156-47.27,54.418-86.062C288.308,53.053,267.125,31.87,240,25.76c5.255-1.16,10.619-1.75,16-1.76
	C295.764,24,328,56.235,328,96z"/>
<g>
	<path style="fill:#E7B900;" d="M256,176c-5.961-0.012-11.922-0.668-17.727-1.949c-3.656-0.809-6.266-4.047-6.273-7.793
		c-0.008-3.75,2.586-7,6.242-7.824c16.68-3.758,30.891-13.781,40.031-28.23c9.133-14.449,12.094-31.59,8.336-48.266
		c-5.398-23.984-24.391-42.969-48.367-48.371c-3.656-0.824-6.25-4.074-6.242-7.82c0.008-3.75,2.617-6.988,6.273-7.797
		c5.805-1.281,11.766-1.938,17.711-1.949C300.109,16,336,51.887,336,96S300.109,176,256,176z M276.117,35.238
		c12.891,11.039,22.25,26.098,26.102,43.184c4.695,20.844,0.992,42.27-10.43,60.332c-4.297,6.801-9.5,12.816-15.422,17.93
		C301.695,148.16,320,124.176,320,96C320,67.734,301.578,43.688,276.117,35.238z"/>
	<path style="fill:#E7B900;" d="M248,112c0-13.234-10.766-24-24-24c-4.414,0-8-3.59-8-8s3.586-8,8-8h16V56h-8v-8h-16v9.474
		c-9.292,3.313-16,12.11-16,22.526c0,13.234,10.766,24,24,24c4.414,0,8,3.59,8,8s-3.586,8-8,8h-16v16h8v8h16v-9.474
		C241.292,131.213,248,122.416,248,112z"/>
</g>
<path style="fill:#FFD422;" d="M152,384c0.019,33.615-23.225,62.77-56,70.24c-5.255,1.16-10.619,1.75-16,1.76
	c-39.765,0-72-32.236-72-72s32.235-72,72-72c5.381,0.01,10.745,0.6,16,1.76C128.775,321.23,152.019,350.385,152,384z"/>
<path style="fill:#E7B900;" d="M80.016,464C35.891,464,0,428.113,0,384s35.891-80,80-80c5.961,0.012,11.922,0.668,17.727,1.949
	C134.43,314.313,160.016,346.406,160,384c0.016,37.594-25.57,69.688-62.219,78.039C91.922,463.332,85.961,463.988,80.016,464z
	 M79.984,320C44.711,320,16,348.711,16,384s28.711,64,64,64c4.781-0.012,9.594-0.539,14.273-1.574
	c29.273-6.668,49.742-32.344,49.727-62.422c0-0.004,0-0.004,0-0.008c0.016-30.078-20.453-55.754-49.781-62.434
	C89.594,320.539,84.781,320.012,79.984,320z"/>
<path style="fill:#FFD422;" d="M184,384c0,39.764-32.236,72-72,72c-5.381-0.01-10.745-0.6-16-1.76
	c38.792-8.738,63.156-47.27,54.418-86.062c-6.11-27.125-27.293-48.308-54.418-54.418c5.255-1.16,10.619-1.75,16-1.76
	C151.764,312,184,344.236,184,384z"/>
<path style="fill:#E7B900;" d="M112,464c-5.961-0.012-11.922-0.668-17.727-1.949c-3.656-0.809-6.266-4.047-6.273-7.793
	c-0.008-3.75,2.586-7,6.242-7.824c16.68-3.758,30.891-13.781,40.031-28.23c9.133-14.449,12.094-31.59,8.336-48.266
	c-5.398-23.984-24.391-42.969-48.367-48.371c-3.656-0.824-6.25-4.074-6.242-7.82c0.008-3.75,2.617-6.988,6.273-7.797
	c5.805-1.281,11.766-1.938,17.711-1.949C156.109,304,192,339.887,192,384S156.109,464,112,464z M132.117,323.238
	c12.891,11.039,22.25,26.098,26.102,43.184c4.695,20.844,0.992,42.27-10.43,60.332c-4.297,6.801-9.5,12.816-15.422,17.93
	C157.695,436.16,176,412.176,176,384C176,355.734,157.578,331.688,132.117,323.238z"/>
<path style="fill:#FFD422;" d="M440,384c0.019,33.615-23.225,62.77-56,70.24c-5.255,1.16-10.619,1.75-16,1.76
	c-39.764,0-72-32.236-72-72s32.236-72,72-72c5.381,0.01,10.745,0.6,16,1.76C416.775,321.23,440.019,350.385,440,384z"/>
<path style="fill:#E7B900;" d="M368.016,464C323.891,464,288,428.113,288,384s35.891-80,80-80
	c5.961,0.012,11.922,0.668,17.727,1.949C422.43,314.313,448.016,346.406,448,384c0.016,37.594-25.57,69.688-62.219,78.039
	C379.922,463.332,373.961,463.988,368.016,464z M367.984,320C332.711,320,304,348.711,304,384s28.711,64,64,64
	c4.781-0.012,9.594-0.539,14.273-1.574c29.273-6.668,49.742-32.344,49.727-62.422c0-0.004,0-0.004,0-0.008
	c0.016-30.078-20.453-55.754-49.781-62.434C377.594,320.539,372.781,320.012,367.984,320z"/>
<path style="fill:#FFD422;" d="M472,384c0,39.764-32.236,72-72,72c-5.381-0.01-10.745-0.6-16-1.76
	c38.792-8.738,63.156-47.27,54.418-86.062c-6.11-27.125-27.293-48.308-54.418-54.418c5.255-1.16,10.619-1.75,16-1.76
	C439.764,312,472,344.236,472,384z"/>
<g>
	<path style="fill:#E7B900;" d="M400,464c-5.961-0.012-11.922-0.668-17.727-1.949c-3.656-0.809-6.266-4.047-6.273-7.793
		c-0.008-3.75,2.586-7,6.242-7.824c16.68-3.758,30.891-13.781,40.031-28.23c9.133-14.449,12.094-31.59,8.336-48.266
		c-5.398-23.984-24.391-42.969-48.367-48.371c-3.656-0.824-6.25-4.074-6.242-7.82c0.008-3.75,2.617-6.988,6.273-7.797
		c5.805-1.281,11.766-1.938,17.711-1.949C444.109,304,480,339.887,480,384S444.109,464,400,464z M420.117,323.238
		c12.891,11.039,22.25,26.098,26.102,43.184c4.695,20.844,0.992,42.27-10.43,60.332c-4.297,6.801-9.5,12.816-15.422,17.93
		C445.695,436.16,464,412.176,464,384C464,355.734,445.578,331.688,420.117,323.238z"/>
	<path style="fill:#E7B900;" d="M104,368v-8c0-13.234-10.766-24-24-24s-24,10.766-24,24v16h-8v16h8v14.113l-7.156,14.309
		c-1.242,2.48-1.109,5.426,0.352,7.785C50.656,430.563,53.227,432,56,432h48v-16H68.945l2.211-4.422
		C71.711,410.469,72,409.242,72,408v-16h16v-16H72v-16c0-4.41,3.586-8,8-8s8,3.59,8,8v8H104z"/>
	<path style="fill:#E7B900;" d="M376,416h-16c-4.414,0-8-3.59-8-8h16v-16h-16v-16h16v-16h-16c0-4.41,3.586-8,8-8h16
		c4.414,0,8,3.59,8,8h16c0-13.234-10.766-24-24-24h-16c-13.234,0-24,10.766-24,24h-8v16h8v16h-8v16h8c0,13.234,10.766,24,24,24h16
		c13.234,0,24-10.766,24-24h-16C384,412.41,380.414,416,376,416z"/>
</g>
<polygon style="fill:#69C229;" points="344,272 320,248 304,264 304,208 360,208 344,224 368,248 "/>
<polygon style="fill:#F40E34;" points="160,200 136,224 120,208 120,264 176,264 160,248 184,224 "/>
<polygon style="fill:#5AAAE7;" points="208,408 232,408 232,432 272,392 232,352 232,376 208,376 "/>
<g>
	<path style="fill:#FFFFFF;" d="M204.023,61.543l-8.047-13.836c8.477-4.926,18.172-7.531,28.023-7.531v16
		C216.969,56.176,210.055,58.031,204.023,61.543z"/>
	<path style="fill:#FFFFFF;" d="M184.18,96h-16c0-9.859,2.602-19.547,7.531-28.02l13.828,8.039
		C186.031,82.055,184.18,88.961,184.18,96z"/>
	<path style="fill:#FFFFFF;" d="M224,152v-16c22.055,0,40-17.945,40-40h16C280,126.879,254.875,152,224,152z"/>
	<path style="fill:#FFFFFF;" d="M60.023,349.543l-8.047-13.836c8.477-4.926,18.172-7.531,28.023-7.531v16
		C72.969,344.176,66.055,346.031,60.023,349.543z"/>
	<path style="fill:#FFFFFF;" d="M40.18,384h-16c0-9.859,2.602-19.547,7.531-28.02l13.828,8.039
		C42.031,370.055,40.18,376.961,40.18,384z"/>
	<path style="fill:#FFFFFF;" d="M80,440v-16c22.055,0,40-17.945,40-40h16C136,414.879,110.875,440,80,440z"/>
	<path style="fill:#FFFFFF;" d="M348.023,349.543l-8.047-13.836c8.477-4.926,18.172-7.531,28.023-7.531v16
		C360.969,344.176,354.055,346.031,348.023,349.543z"/>
	<path style="fill:#FFFFFF;" d="M328.18,384h-16c0-9.859,2.602-19.547,7.531-28.02l13.828,8.039
		C330.031,370.055,328.18,376.961,328.18,384z"/>
	<path style="fill:#FFFFFF;" d="M377.32,439.227l-2.641-15.781c16.781-2.813,29.945-15.984,32.766-32.77l15.781,2.648
		C419.281,416.836,400.828,435.285,377.32,439.227z"/>
</g>
<path d="M224.016,176c5.345-0.011,10.693-0.619,15.978-1.666c5.264,1.046,10.627,1.655,16.006,1.666c44.109,0,80-35.887,80-80
	s-35.891-80-80.016-80c-5.362,0.011-10.723,0.62-15.984,1.665c-5.261-1.045-10.624-1.654-16-1.665c-44.109,0-80,35.887-80,80
	S179.891,176,224.016,176z M320,96c0,28.176-18.305,52.16-43.633,60.684c0.195-0.168,0.354-0.378,0.548-0.549
	c2.491-2.186,4.811-4.541,7.001-7.011c0.458-0.517,0.911-1.033,1.356-1.563c2.166-2.574,4.174-5.272,5.997-8.104
	c0.16-0.247,0.362-0.454,0.52-0.702c0.423-0.669,0.759-1.373,1.161-2.051c0.553-0.94,1.098-1.883,1.612-2.847
	c0.765-1.417,1.479-2.847,2.154-4.297c0.172-0.375,0.335-0.754,0.502-1.132c6.98-15.638,8.832-33,5.001-50.005
	c-1.165-5.168-2.89-10.121-5.008-14.862c-0.202-0.459-0.411-0.912-0.621-1.366c-0.604-1.286-1.235-2.552-1.904-3.799
	c-0.496-0.937-1.009-1.86-1.541-2.774c-0.426-0.724-0.863-1.437-1.311-2.146c-0.816-1.306-1.664-2.588-2.554-3.843
	c-0.208-0.29-0.419-0.575-0.631-0.862c-3.619-4.961-7.792-9.497-12.479-13.509C301.604,43.726,320,67.755,320,96z M223.984,32
	c4.797,0.012,9.609,0.539,14.234,1.563c0.036,0.008,0.071,0.021,0.107,0.029c2.655,0.602,5.227,1.421,7.748,2.345
	c0.497,0.181,0.999,0.354,1.489,0.546c2.518,0.995,4.969,2.126,7.321,3.42c0.219,0.12,0.43,0.249,0.647,0.371
	c5.067,2.867,9.724,6.383,13.818,10.471c0.023,0.023,0.048,0.046,0.071,0.069c2.013,2.015,3.878,4.177,5.61,6.443
	c0.178,0.235,0.348,0.477,0.522,0.714c1.592,2.143,3.06,4.382,4.378,6.717c0.271,0.487,0.501,1,0.76,1.495
	c0.87,1.639,1.634,3.337,2.361,5.055c0.628,1.511,1.204,3.045,1.716,4.61c0.431,1.291,0.835,2.592,1.185,3.917
	c1.34,5.196,2.051,10.636,2.048,16.23c0,0.004,0,0.004,0,0.008c0.006,11.115-2.801,21.621-7.801,30.796
	c-0.188,0.342-0.383,0.682-0.578,1.021c-0.681,1.197-1.394,2.374-2.149,3.521c-0.377,0.57-0.781,1.116-1.174,1.671
	c-0.694,0.983-1.381,1.972-2.13,2.914c-0.369,0.463-0.773,0.89-1.154,1.342c-1.51,1.795-3.119,3.502-4.822,5.122
	c-0.512,0.487-1.007,0.994-1.534,1.463c-0.87,0.774-1.786,1.5-2.7,2.227c-0.576,0.458-1.147,0.922-1.739,1.36
	c-0.931,0.689-1.892,1.343-2.864,1.983c-0.629,0.414-1.264,0.818-1.908,1.209c-0.974,0.592-1.962,1.166-2.972,1.708
	c-0.715,0.383-1.444,0.739-2.175,1.095c-0.983,0.48-1.967,0.959-2.98,1.391c-0.883,0.375-1.789,0.702-2.691,1.038
	c-0.904,0.338-1.795,0.699-2.721,0.999c-1.848,0.596-3.725,1.13-5.642,1.563c-4.677,1.035-9.487,1.561-14.266,1.573
	c-35.289,0-64-28.711-64-64S188.711,32,223.984,32z"/>
<path d="M224,104c4.414,0,8,3.59,8,8s-3.586,8-8,8h-16v16h8v8h16v-9.474c9.292-3.313,16-12.11,16-22.526c0-13.234-10.766-24-24-24
	c-4.414,0-8-3.59-8-8s3.586-8,8-8h16V56h-8v-8h-16v9.474c-9.292,3.313-16,12.11-16,22.526C200,93.234,210.766,104,224,104z"/>
<path d="M111.984,304c-5.362,0.011-10.723,0.62-15.984,1.665c-5.261-1.045-10.624-1.654-16-1.665c-44.109,0-80,35.887-80,80
	s35.891,80,80.016,80c5.345-0.011,10.693-0.619,15.978-1.666c5.264,1.046,10.627,1.655,16.006,1.666c44.109,0,80-35.887,80-80
	S156.109,304,111.984,304z M80,448c-35.289,0-64-28.711-64-64s28.711-64,63.984-64c4.797,0.012,9.609,0.539,14.234,1.563
	c0.036,0.008,0.071,0.021,0.107,0.029c2.655,0.602,5.227,1.421,7.748,2.345c0.497,0.181,0.999,0.354,1.489,0.546
	c2.518,0.995,4.969,2.126,7.321,3.42c0.219,0.12,0.43,0.249,0.647,0.371c5.067,2.867,9.724,6.383,13.818,10.471
	c0.023,0.023,0.048,0.046,0.071,0.069c2.013,2.015,3.878,4.177,5.61,6.443c0.178,0.235,0.348,0.477,0.522,0.714
	c1.592,2.143,3.06,4.382,4.378,6.717c0.271,0.487,0.501,1,0.76,1.495c0.87,1.639,1.634,3.337,2.361,5.055
	c0.628,1.511,1.204,3.045,1.716,4.61c0.431,1.291,0.835,2.592,1.185,3.917c1.34,5.196,2.051,10.636,2.048,16.23
	c0,0.004,0,0.004,0,0.008c0.006,11.115-2.801,21.621-7.801,30.796c-0.188,0.342-0.383,0.682-0.578,1.021
	c-0.681,1.197-1.394,2.374-2.149,3.521c-0.377,0.57-0.781,1.116-1.174,1.671c-0.694,0.983-1.381,1.972-2.13,2.914
	c-0.369,0.463-0.773,0.89-1.154,1.342c-1.51,1.795-3.119,3.502-4.822,5.122c-0.512,0.487-1.007,0.994-1.534,1.463
	c-0.87,0.774-1.786,1.5-2.7,2.227c-0.576,0.458-1.147,0.922-1.739,1.36c-0.931,0.689-1.892,1.343-2.864,1.983
	c-0.629,0.414-1.264,0.818-1.908,1.209c-0.974,0.592-1.962,1.166-2.972,1.708c-0.715,0.383-1.444,0.739-2.175,1.095
	c-0.983,0.48-1.967,0.959-2.98,1.391c-0.883,0.375-1.789,0.702-2.691,1.038c-0.904,0.338-1.795,0.699-2.721,0.999
	c-1.848,0.596-3.725,1.13-5.642,1.563C89.589,447.462,84.779,447.988,80,448z M132.367,444.684c0.195-0.168,0.354-0.378,0.548-0.549
	c2.491-2.186,4.811-4.541,7.001-7.011c0.458-0.517,0.911-1.033,1.356-1.563c2.166-2.574,4.174-5.272,5.997-8.104
	c0.16-0.247,0.362-0.454,0.52-0.702c0.423-0.669,0.759-1.373,1.161-2.051c0.553-0.94,1.098-1.883,1.612-2.847
	c0.765-1.417,1.479-2.847,2.154-4.297c0.172-0.375,0.335-0.754,0.502-1.132c6.98-15.638,8.832-33,5.001-50.005
	c-1.165-5.168-2.89-10.121-5.008-14.862c-0.202-0.459-0.411-0.912-0.621-1.366c-0.604-1.286-1.235-2.552-1.904-3.799
	c-0.496-0.937-1.009-1.86-1.541-2.774c-0.426-0.724-0.863-1.437-1.311-2.146c-0.816-1.306-1.664-2.588-2.554-3.843
	c-0.208-0.29-0.419-0.575-0.631-0.862c-3.619-4.961-7.792-9.497-12.479-13.509C157.604,331.726,176,355.755,176,384
	C176,412.176,157.695,436.16,132.367,444.684z"/>
<path d="M399.984,304c-5.362,0.011-10.723,0.62-15.984,1.665c-5.261-1.045-10.624-1.654-16-1.665c-44.109,0-80,35.887-80,80
	s35.891,80,80.016,80c5.345-0.011,10.693-0.619,15.978-1.666c5.264,1.046,10.627,1.655,16.006,1.666c44.109,0,80-35.887,80-80
	S444.109,304,399.984,304z M368,448c-35.289,0-64-28.711-64-64s28.711-64,63.984-64c4.797,0.012,9.609,0.539,14.234,1.563
	c0.036,0.008,0.071,0.021,0.107,0.029c2.655,0.602,5.227,1.421,7.748,2.345c0.497,0.181,0.999,0.354,1.489,0.546
	c2.518,0.995,4.969,2.126,7.321,3.42c0.219,0.12,0.43,0.249,0.647,0.371c5.067,2.867,9.724,6.383,13.818,10.471
	c0.023,0.023,0.048,0.046,0.071,0.069c2.013,2.015,3.878,4.177,5.61,6.443c0.178,0.235,0.348,0.477,0.522,0.714
	c1.592,2.143,3.06,4.382,4.378,6.717c0.271,0.487,0.501,1,0.76,1.495c0.87,1.639,1.634,3.337,2.361,5.055
	c0.628,1.511,1.204,3.045,1.716,4.61c0.431,1.291,0.835,2.592,1.185,3.917c1.34,5.196,2.051,10.636,2.048,16.23
	c0,0.004,0,0.004,0,0.008c0.006,11.115-2.801,21.621-7.801,30.796c-0.188,0.342-0.383,0.682-0.578,1.021
	c-0.681,1.197-1.394,2.374-2.149,3.521c-0.377,0.57-0.781,1.116-1.174,1.671c-0.694,0.983-1.381,1.972-2.13,2.914
	c-0.369,0.463-0.773,0.89-1.154,1.342c-1.51,1.795-3.119,3.502-4.822,5.122c-0.512,0.487-1.007,0.994-1.534,1.463
	c-0.87,0.774-1.786,1.5-2.7,2.227c-0.576,0.458-1.147,0.922-1.739,1.36c-0.931,0.689-1.892,1.343-2.864,1.983
	c-0.629,0.414-1.264,0.818-1.908,1.209c-0.974,0.592-1.962,1.166-2.972,1.708c-0.715,0.383-1.444,0.739-2.175,1.095
	c-0.983,0.48-1.967,0.959-2.98,1.391c-0.883,0.375-1.789,0.702-2.691,1.038c-0.904,0.338-1.795,0.699-2.721,0.999
	c-1.848,0.596-3.725,1.13-5.642,1.563C377.589,447.462,372.779,447.988,368,448z M420.367,444.684
	c0.195-0.168,0.354-0.378,0.548-0.549c2.491-2.186,4.811-4.541,7.001-7.011c0.458-0.517,0.911-1.033,1.356-1.563
	c2.166-2.574,4.174-5.272,5.997-8.104c0.16-0.247,0.362-0.454,0.52-0.702c0.423-0.669,0.759-1.373,1.161-2.051
	c0.553-0.94,1.098-1.883,1.612-2.847c0.765-1.417,1.479-2.847,2.154-4.297c0.172-0.375,0.335-0.754,0.502-1.132
	c6.98-15.638,8.832-33,5.001-50.005c-1.165-5.168-2.89-10.121-5.008-14.862c-0.202-0.459-0.411-0.912-0.621-1.366
	c-0.604-1.286-1.235-2.552-1.904-3.799c-0.496-0.937-1.009-1.86-1.541-2.774c-0.426-0.724-0.863-1.437-1.311-2.146
	c-0.816-1.306-1.664-2.588-2.554-3.843c-0.208-0.29-0.419-0.575-0.631-0.862c-3.619-4.961-7.792-9.497-12.479-13.509
	C445.604,331.726,464,355.755,464,384C464,412.176,445.695,436.16,420.367,444.684z"/>
<path d="M104,416H68.945l2.211-4.422C71.711,410.469,72,409.242,72,408v-16h16v-16H72v-16c0-4.41,3.586-8,8-8s8,3.59,8,8v8h16v-8
	c0-13.234-10.766-24-24-24s-24,10.766-24,24v16h-8v16h8v14.113l-7.156,14.309c-1.242,2.48-1.109,5.426,0.352,7.785
	C50.656,430.563,53.227,432,56,432h48V416z"/>
<path d="M400,408h-16c0,4.41-3.586,8-8,8h-16c-4.414,0-8-3.59-8-8h16v-16h-16v-16h16v-16h-16c0-4.41,3.586-8,8-8h16
	c4.414,0,8,3.59,8,8h16c0-13.234-10.766-24-24-24h-16c-13.234,0-24,10.766-24,24h-8v16h8v16h-8v16h8c0,13.234,10.766,24,24,24h16
	C389.234,432,400,421.234,400,408z"/>
<path d="M296,208v56c0,3.234,1.945,6.152,4.938,7.391c2.984,1.242,6.43,0.559,8.719-1.734L320,259.313l18.344,18.344l11.313-11.313
	l-24-24c-3.125-3.125-8.188-3.125-11.313,0L312,244.688V216h28.688l-2.344,2.344c-3.125,3.125-3.125,8.188,0,11.313l24,24
	l11.313-11.313L355.313,224l10.344-10.344c2.289-2.289,2.977-5.727,1.734-8.719C366.156,201.949,363.234,200,360,200h-56
	C299.578,200,296,203.582,296,208z"/>
<path d="M120,272h56c3.234,0,6.156-1.949,7.391-4.938c1.242-2.992,0.555-6.43-1.734-8.719L171.313,248l18.344-18.344l-11.313-11.313
	l-24,24c-3.125,3.125-3.125,8.188,0,11.313l2.344,2.344H128v-28.688l2.344,2.344c3.125,3.125,8.188,3.125,11.313,0l24-24
	l-11.313-11.313L136,212.688l-10.344-10.344c-2.289-2.285-5.719-2.965-8.719-1.734C113.945,201.848,112,204.766,112,208v56
	C112,268.418,115.578,272,120,272z"/>
<path d="M237.656,346.344c-2.289-2.289-5.727-2.969-8.719-1.734C225.945,345.848,224,348.766,224,352v16h-16v16h24
	c4.422,0,8-3.582,8-8v-4.688L260.688,392L240,412.688V408c0-4.418-3.578-8-8-8h-24v16h16v16c0,3.234,1.945,6.152,4.938,7.391
	c0.992,0.41,2.031,0.609,3.063,0.609c2.078,0,4.125-0.813,5.656-2.344l40-40c3.125-3.125,3.125-8.188,0-11.313L237.656,346.344z"/>
<g>
</g>
<g>
</g>
<g>
</g>
<g>
</g>
<g>
</g>
<g>
</g>
<g>
</g>
<g>
</g>
<g>
</g>
<g>
</g>
<g>
</g>
<g>
</g>
<g>
</g>
<g>
</g>
<g>
</g>
</svg>
