<?xml version="1.0" encoding="iso-8859-1"?>
<!-- Generator: Adobe Illustrator 19.0.0, SVG Export Plug-In . SVG Version: 6.00 Build 0)  -->
<svg version="1.1" id="Capa_1" xmlns="http://www.w3.org/2000/svg" xmlns:xlink="http://www.w3.org/1999/xlink" x="0px" y="0px"
	 viewBox="0 0 480 480" style="enable-background:new 0 0 480 480;" xml:space="preserve">
<path style="fill:#05485A;" d="M320,432c0,8.836-7.164,16-16,16H136v8c0,8.836,7.164,16,16,16h176c8.836,0,16-7.164,16-16v-48h-24
	V432z"/>
<path style="fill:#1C313D;" d="M328,136h-8v248v24h24V152C344,143.163,336.836,136,328,136z"/>
<path style="fill:#065F77;" d="M320,432v-24H136v40h168C312.836,448,320,440.836,320,432z"/>
<path style="fill:#29485A;" d="M152,136c-8.836,0-16,7.163-16,16v256h184V136H152z"/>
<path style="fill:#5AAAE7;" d="M440,224h-64v160h96V256C472,238.327,457.673,224,440,224z"/>
<path style="fill:#1E81CE;" d="M472,256v144c0,17.673-14.327,32-32,32V296c17.673,0,32-14.327,32-32V256z"/>
<rect x="400" y="248" style="fill:#161E81;" width="16" height="112"/>
<g>
	<rect x="232" y="416" style="fill:#1C313D;" width="16" height="16"/>
	<path style="fill:#1C313D;" d="M248,80c-44.113,0-80,35.887-80,80s35.887,80,80,80s80-35.887,80-80S292.113,80,248,80z"/>
</g>
<path style="fill:#EBE5DD;" d="M416,40h40c8.837,0,16-7.163,16-16V8H344v96h48c8.837,0,16-7.163,16-16V72h-24h40
	c8.837,0,16-7.163,16-16V40H416z"/>
<g>
	<rect x="416" y="40" style="fill:#D4C8B8;" width="24" height="16"/>
	<rect x="384" y="72" style="fill:#D4C8B8;" width="24" height="16"/>
</g>
<path style="fill:#EBE5DD;" d="M64,40H24c-8.837,0-16-7.163-16-16V8h128v96H88c-8.837,0-16-7.163-16-16V72h24H56
	c-8.837,0-16-7.163-16-16V40H64z"/>
<g>
	<rect x="40" y="40" style="fill:#D4C8B8;" width="24" height="16"/>
	<rect x="72" y="72" style="fill:#D4C8B8;" width="24" height="16"/>
</g>
<circle style="fill:#FFD422;" cx="240" cy="136" r="64"/>
<g>
	<path style="fill:#E7B900;" d="M240,56c-44.113,0-80,35.887-80,80s35.887,80,80,80s80-35.887,80-80S284.113,56,240,56z M240,200
		c-35.289,0-64-28.711-64-64s28.711-64,64-64s64,28.711,64,64S275.289,200,240,200z"/>
	<path style="fill:#E7B900;" d="M264,152c0-13.234-10.766-24-24-24c-4.41,0-8-3.59-8-8s3.59-8,8-8h16V96h-8v-8h-16v9.474
		c-9.292,3.313-16,12.11-16,22.526c0,13.234,10.766,24,24,24c4.41,0,8,3.59,8,8s-3.59,8-8,8h-16v16h8v8h16v-9.474
		C257.292,171.213,264,162.416,264,152z"/>
</g>
<g>
	<path style="fill:#FFFFFF;" d="M200,432h-16c-13.234,0-24-10.766-24-24v-56h16v56c0,4.41,3.59,8,8,8h16V432z"/>
	<rect x="160" y="320" style="fill:#FFFFFF;" width="16" height="16"/>
	<path style="fill:#FFFFFF;" d="M205.711,102.453l-11.43-11.195C206.434,78.844,222.672,72.004,240,72.004v16
		C227.012,88.004,214.832,93.137,205.711,102.453z"/>
	<path style="fill:#FFFFFF;" d="M265.004,194.906l-6.25-14.727c11.957-5.078,21.164-14.559,25.914-26.695l14.898,5.836
		C293.234,175.496,280.957,188.133,265.004,194.906z"/>
</g>
<path d="M440,216h-64c-4.418,0-8,3.582-8,8v24v112v24c0,4.418,3.582,8,8,8h40v-16h-32v-16V248v-16h56c13.234,0,24,10.766,24,24v8
	c0,13.234-10.766,24-24,24c-4.418,0-8,3.582-8,8v136c0,4.418,3.582,8,8,8c22.055,0,40-17.945,40-40V256
	C480,233.945,462.055,216,440,216z M464,400c0,10.43-6.688,19.328-16,22.629V303.195c5.906-1.203,11.348-3.715,16-7.215V400z"/>
<rect x="400" y="248" width="16" height="112"/>
<path d="M472,0H344c-4.418,0-8,3.582-8,8v96c0,4.418,3.582,8,8,8h48c13.234,0,24-10.766,24-24v-8h8c13.234,0,24-10.766,24-24v-8h8
	c13.234,0,24-10.766,24-24V8C480,3.582,476.418,0,472,0z M464,24c0,4.41-3.59,8-8,8h-40v16h16v8c0,4.41-3.59,8-8,8h-40v16h16v8
	c0,4.41-3.59,8-8,8h-40V16h112V24z"/>
<path d="M144,104V8c0-4.418-3.582-8-8-8H8C3.582,0,0,3.582,0,8v16c0,13.234,10.766,24,24,24h8v8c0,13.234,10.766,24,24,24h8v8
	c0,13.234,10.766,24,24,24h48C140.418,112,144,108.418,144,104z M128,96H88c-4.41,0-8-3.59-8-8v-8h16V64H56c-4.41,0-8-3.59-8-8v-8
	h16V32H24c-4.41,0-8-3.59-8-8v-8h112V96z"/>
<path d="M240,216c44.113,0,80-35.887,80-80s-35.887-80-80-80s-80,35.887-80,80S195.887,216,240,216z M240,72
	c35.289,0,64,28.711,64,64s-28.711,64-64,64s-64-28.711-64-64S204.711,72,240,72z"/>
<path d="M240,144c4.41,0,8,3.59,8,8s-3.59,8-8,8h-16v16h8v8h16v-9.474c9.292-3.313,16-12.11,16-22.526c0-13.234-10.766-24-24-24
	c-4.41,0-8-3.59-8-8s3.59-8,8-8h16V96h-8v-8h-16v9.474c-9.292,3.313-16,12.11-16,22.526C216,133.234,226.766,144,240,144z"/>
<path d="M328,128v16c4.41,0,8,3.59,8,8v248H144V152c0-4.41,3.59-8,8-8v-16c-13.234,0-24,10.766-24,24v304c0,13.234,10.766,24,24,24
	h176c13.234,0,24-10.766,24-24V152C352,138.766,341.234,128,328,128z M328,464H152c-4.41,0-8-3.59-8-8v-40h192v40
	C336,460.41,332.41,464,328,464z"/>
<rect x="232" y="432" width="16" height="16"/>
<g>
</g>
<g>
</g>
<g>
</g>
<g>
</g>
<g>
</g>
<g>
</g>
<g>
</g>
<g>
</g>
<g>
</g>
<g>
</g>
<g>
</g>
<g>
</g>
<g>
</g>
<g>
</g>
<g>
</g>
</svg>
