<?xml version="1.0" encoding="iso-8859-1"?>
<!-- Generator: Adobe Illustrator 19.0.0, SVG Export Plug-In . SVG Version: 6.00 Build 0)  -->
<svg version="1.1" id="Capa_1" xmlns="http://www.w3.org/2000/svg" xmlns:xlink="http://www.w3.org/1999/xlink" x="0px" y="0px"
	 viewBox="0 0 480 480" style="enable-background:new 0 0 480 480;" xml:space="preserve">
<path style="fill:#A6001E;" d="M192.002,288H176c-17.673,0-32-14.327-32-32V40c0-17.673,14.327-32,32-32h128
	c17.673,0,32,14.327,32,32v216c0,17.673-14.327,32-32,32h-63.996H192.002z"/>
<path style="fill:#F40E34;" d="M201.562,260.115h-12.815c-14.153,0-25.626-11.473-25.626-25.626V61.511
	c0-14.153,11.473-25.626,25.626-25.626h102.505c14.153,0,25.626,11.473,25.626,25.626v172.978c0,14.153-11.473,25.626-25.626,25.626
	h-51.25H201.562z"/>
<path style="fill:#29485A;" d="M128,288c-17.673,0-32,14.327-32,32v0c0,8.837,7.163,16,16,16h128h128c8.837,0,16-7.163,16-16v0
	c0-17.673-14.327-32-32-32H128z"/>
<path style="fill:#E7B900;" d="M384,440h-16v-18.313C351.516,416.188,298.078,400,240,400s-111.516,16.188-128,21.688V440H96v-24
	c0-3.336,2.07-6.32,5.188-7.492C103.859,407.508,167.383,384,240,384s136.141,23.508,138.813,24.508
	C381.93,409.68,384,412.664,384,416V440z"/>
<g>
	<circle style="fill:#29485A;" cx="104" cy="456" r="16"/>
	<circle style="fill:#29485A;" cx="376" cy="456" r="16"/>
	<circle style="fill:#29485A;" cx="240" cy="456" r="16"/>
</g>
<rect x="232" y="392" style="fill:#FFD422;" width="16" height="48"/>
<rect x="224" y="368" style="fill:#A6001E;" width="32" height="24"/>
<rect x="232" y="336" style="fill:#E7B900;" width="16" height="32"/>
<g>
	<rect x="144" y="48" style="fill:#A6001E;" width="144" height="16"/>
	<rect x="304" y="48" style="fill:#A6001E;" width="32" height="16"/>
	<rect x="144" y="112" style="fill:#A6001E;" width="80" height="16"/>
	<rect x="240" y="112" style="fill:#A6001E;" width="72" height="16"/>
	<rect x="208" y="176" style="fill:#A6001E;" width="64" height="16"/>
	<rect x="288" y="176" style="fill:#A6001E;" width="48" height="16"/>
	<rect x="144" y="232" style="fill:#A6001E;" width="96" height="16"/>
	<rect x="256" y="232" style="fill:#A6001E;" width="40" height="16"/>
</g>
<rect x="120" y="288" style="fill:#315668;" width="240" height="24"/>
<polygon style="fill:#E7B900;" points="80,232 80,248 112,248 112,288 128,288 128,232 "/>
<path style="fill:#FFD422;" d="M128,216H96c-8.836,0-16,7.163-16,16h48v56h16v-40v-16C144,223.163,136.836,216,128,216z"/>
<polygon style="fill:#E7B900;" points="400,232 400,248 368,248 368,288 352,288 352,232 "/>
<path style="fill:#FFD422;" d="M352,216h32c8.836,0,16,7.163,16,16h-48v56h-16v-40v-16C336,223.163,343.164,216,352,216z"/>
<g>
	<path style="fill:#FFFFFF;" d="M176,128h-16V56c0-13.234,10.766-24,24-24h32v16h-32c-4.414,0-8,3.586-8,8V128z"/>
	<rect x="160" y="152" style="fill:#FFFFFF;" width="16" height="16"/>
	<rect x="264" y="304" style="fill:#FFFFFF;" width="16" height="16"/>
	<rect x="304" y="304" style="fill:#FFFFFF;" width="56" height="16"/>
</g>
<rect x="208" y="280" width="16" height="16"/>
<path d="M384,208h-32c-2.819,0-5.485,0.578-8,1.474V40c0-22.055-17.945-40-40-40H176c-22.055,0-40,17.945-40,40v169.474
	c-2.515-0.896-5.181-1.474-8-1.474H96c-13.234,0-24,10.766-24,24v16c0,4.422,3.578,8,8,8h24v32h0.248
	C94.446,295.298,88,306.87,88,320c0,13.234,10.766,24,24,24h120v16h-8c-4.422,0-8,3.578-8,8v16.859
	c-62.079,4.169-112.44,22.761-114.813,23.649C98.07,409.68,96,412.664,96,416v17.474c-9.292,3.313-16,12.11-16,22.526
	c0,13.234,10.766,24,24,24s24-10.766,24-24c0-10.416-6.708-19.213-16-22.526v-11.787c15.723-5.246,65.079-20.181,120-21.552v33.339
	c-9.292,3.313-16,12.11-16,22.526c0,13.234,10.766,24,24,24s24-10.766,24-24c0-10.416-6.708-19.213-16-22.526v-33.339
	c54.921,1.371,104.277,16.306,120,21.552v11.787c-9.292,3.313-16,12.11-16,22.526c0,13.234,10.766,24,24,24s24-10.766,24-24
	c0-10.416-6.708-19.213-16-22.526V416c0-3.336-2.07-6.32-5.188-7.492c-2.372-0.888-52.733-19.479-114.813-23.649V368
	c0-4.422-3.578-8-8-8h-8v-16h120c13.234,0,24-10.766,24-24c0-13.13-6.446-24.702-16.248-32H376v-32h24c4.422,0,8-3.578,8-8v-16
	C408,218.766,397.234,208,384,208z M104,464c-4.414,0-8-3.586-8-8s3.586-8,8-8s8,3.586,8,8S108.414,464,104,464z M376,464
	c-4.414,0-8-3.586-8-8s3.586-8,8-8s8,3.586,8,8S380.414,464,376,464z M240,464c-4.414,0-8-3.586-8-8s3.586-8,8-8s8,3.586,8,8
	S244.414,464,240,464z M240,384c-2.69,0-5.337,0.095-8,0.157V376h16v8.157C245.337,384.095,242.69,384,240,384z M112,240H88v-8
	c0-4.414,3.586-8,8-8h32c4.414,0,8,3.586,8,8v16v8c0,9.04,3.128,17.294,8.205,24H128c-2.739,0-5.414,0.281-8,0.809V248
	C120,243.578,116.422,240,112,240z M368,328H112c-4.414,0-8-3.586-8-8c0-13.234,10.766-24,24-24h48h16v-16h-16
	c-13.234,0-24-10.766-24-24v-8h88v-16h-88V128h72v-16h-72V64h136V48H152v-8c0-13.234,10.766-24,24-24h128c13.234,0,24,10.766,24,24
	v8h-24v16h24v112h-40v16h40v40v16v8c0,13.234-10.766,24-24,24h-8h-56v16h56h8h48c13.234,0,24,10.766,24,24
	C376,324.414,372.414,328,368,328z M392,240h-24c-4.422,0-8,3.578-8,8v32.809c-2.586-0.527-5.261-0.809-8-0.809h-16.205
	c5.077-6.706,8.205-14.96,8.205-24v-8v-16c0-4.414,3.586-8,8-8h32c4.414,0,8,3.586,8,8V240z"/>
<rect x="240" y="112" width="72" height="16"/>
<rect x="208" y="176" width="64" height="16"/>
<rect x="256" y="232" width="40" height="16"/>
<g>
</g>
<g>
</g>
<g>
</g>
<g>
</g>
<g>
</g>
<g>
</g>
<g>
</g>
<g>
</g>
<g>
</g>
<g>
</g>
<g>
</g>
<g>
</g>
<g>
</g>
<g>
</g>
<g>
</g>
</svg>
