<?xml version="1.0" encoding="iso-8859-1"?>
<!-- Generator: Adobe Illustrator 19.0.0, SVG Export Plug-In . SVG Version: 6.00 Build 0)  -->
<svg version="1.1" id="Capa_1" xmlns="http://www.w3.org/2000/svg" xmlns:xlink="http://www.w3.org/1999/xlink" x="0px" y="0px"
	 viewBox="0 0 491.313 491.313" style="enable-background:new 0 0 491.313 491.313;" xml:space="preserve">
<path style="fill:#FE946F;" d="M324.19,229.194c-12.606,11.747-29.268,16.645-45.271,14.735l-1.262,1.262l64,64l31.726-32.281
	l-4.07-4.07C357.385,260.998,324.61,228.803,324.19,229.194z"/>
<rect x="370.058" y="75.898" transform="matrix(-0.7071 0.7071 -0.7071 -0.7071 800.9935 -44.2168)" style="fill:#F40E34;" width="79.192" height="135.769"/>
<circle style="fill:#FFD422;" cx="429.656" cy="147.775" r="16"/>
<rect x="13.751" y="104.205" transform="matrix(-0.7071 0.7071 -0.7071 -0.7071 241.0437 187.7593)" style="fill:#29485A;" width="135.769" height="79.192"/>
<circle style="fill:#FFFFFF;" cx="61.656" cy="147.775" r="16"/>
<g>
	<path style="fill:#FE946F;" d="M77.656,235.779l72,72l96,96l12.72,12.72c0.004,0.004,0.008,0.009,0.012,0.013
		c6.243,6.236,16.352,6.236,22.599,0.011L88.95,224.485L77.656,235.779z"/>
	<path style="fill:#FE946F;" d="M238.363,348.485l44.014,44.014c4.827,4.833,11.959,5.89,17.843,3.256l-54.563-54.563
		L238.363,348.485z"/>
	<path style="fill:#FE946F;" d="M286.363,300.485l44.014,44.014c4.827,4.833,11.959,5.89,17.843,3.256l-54.563-54.563
		L286.363,300.485z"/>
</g>
<path style="fill:#FFB398;" d="M353.016,344.499l1.36-1.36c6.251-6.245,6.257-16.375,0.012-22.627
	c-0.004-0.004-0.008-0.008-0.012-0.013l-76.72-76.72l-8-80c0-8.836-7.164-16-16-16h-72l-8-8L88.95,224.485l192.037,192.038
	c0.009-0.009,0.02-0.015,0.029-0.024l1.36-1.36c0.004-0.004,0.008-0.008,0.012-0.013c6.245-6.251,6.239-16.382-0.012-22.627
	l-44.014-44.014l-0.707,0.707l0.707-0.707l-0.707-0.706l0.707,0.706l7.293-7.293l54.563,54.563c1.729-0.773,3.365-1.826,4.784-3.244
	c0.004-0.004,0.008-0.008,0.012-0.013l1.36-1.36c6.251-6.245,6.257-16.375,0.012-22.627c-0.004-0.004-0.008-0.008-0.012-0.013
	l-44.014-44.014l-0.707,0.707l0.707-0.707l-0.707-0.706l0.707,0.706l7.293-7.293l54.563,54.563c1.729-0.773,3.365-1.826,4.784-3.244
	c0.004-0.004,0.008-0.008,0.012-0.013l1.36-1.36c6.251-6.245,6.257-16.375,0.012-22.627c-0.004-0.004-0.008-0.008-0.012-0.013
	l-44.014-44.014l-0.707,0.707l0.707-0.707l-0.707-0.706l0.707,0.706l7.293-7.293l54.563,54.563c1.729-0.773,3.365-1.826,4.784-3.244
	C353.008,344.507,353.012,344.503,353.016,344.499z"/>
<g>
	<path style="fill:#FE946F;" d="M262.363,324.485l44.014,44.014c4.827,4.833,11.959,5.89,17.843,3.256l-54.563-54.563
		L262.363,324.485z"/>
	<path style="fill:#FE946F;" d="M250.269,376.483l-1.358-1.358c-6.218-6.218-16.276-6.237-22.531-0.079
		c-0.02,0.02-0.032,0.044-0.052,0.064l-0.027,0.027c0.006,0.006,0.014,0.01,0.02,0.016l1.358,1.358
		c6.248,6.248,6.248,16.379,0,22.627l-17.367,17.366l-0.001,0c6.251,6.215,16.355,6.208,22.592-0.029l17.367-17.366
		C256.518,392.862,256.518,382.731,250.269,376.483z"/>
</g>
<g>
	<polygon style="fill:#FFB398;" points="226.3,375.138 226.328,375.11 226.38,375.046 226.285,375.125 	"/>
	<path style="fill:#FFB398;" d="M155.694,327.139c6.248-6.249,6.248-16.379,0-22.627l-1.358-1.358
		c-0.011-0.011-0.024-0.018-0.035-0.029l-0.001,0l-17.366,17.367c-6.249,6.249-6.249,16.379,0,22.627l1.357,1.357
		c0.011,0.011,0.024,0.018,0.036,0.029l0,0L155.694,327.139z"/>
</g>
<path style="fill:#FE946F;" d="M178.286,304.483l-1.358-1.358c-6.248-6.248-16.377-6.249-22.626,0
	c0.011,0.011,0.024,0.018,0.035,0.029l1.358,1.358c6.248,6.248,6.248,16.379,0,22.627l-17.367,17.366l0,0
	c0.009,0.009,0.02,0.015,0.029,0.024c6.254,6.188,16.335,6.176,22.563-0.053l17.367-17.366c0.003-0.003,0.005-0.006,0.008-0.009
	C184.533,320.852,184.531,310.729,178.286,304.483z"/>
<path style="fill:#FFB398;" d="M179.715,351.139c6.249-6.249,6.249-16.379,0-22.627l-1.358-1.358
	c-0.011-0.011-0.024-0.018-0.035-0.029l0,0l-17.367,17.367c-6.249,6.249-6.249,16.379,0,22.627l1.358,1.357
	c0.011,0.011,0.024,0.018,0.035,0.029l0,0L179.715,351.139z"/>
<path style="fill:#FE946F;" d="M202.307,328.483l-1.357-1.358c-6.249-6.248-16.378-6.249-22.627,0
	c0.011,0.011,0.024,0.018,0.035,0.029l1.358,1.358c6.249,6.248,6.249,16.379,0,22.627l-17.367,17.366l0,0
	c0.009,0.009,0.02,0.015,0.029,0.024c6.252,6.188,16.334,6.176,22.563-0.053l17.367-17.366c0.003-0.003,0.005-0.007,0.008-0.01
	C208.554,344.851,208.552,334.729,202.307,328.483z"/>
<path style="fill:#FFB398;" d="M184.976,368.492c-6.248,6.249-6.248,16.379,0,22.627l1.358,1.357c0.006,0.006,0.014,0.01,0.02,0.016
	l17.339-17.339c0.03-0.03,0.066-0.049,0.096-0.079c6.189-6.253,6.176-16.335-0.052-22.563l-1.357-1.358
	c-0.011-0.011-0.024-0.018-0.036-0.029l0,0L184.976,368.492z"/>
<path style="fill:#FE946F;" d="M226.328,352.483l-1.357-1.358c-6.249-6.248-16.377-6.249-22.627,0
	c0.011,0.011,0.024,0.018,0.036,0.029l1.357,1.358c6.229,6.228,6.241,16.311,0.052,22.563c-0.02,0.02-0.032,0.044-0.052,0.064
	l-17.367,17.366l0,0c6.221,6.187,16.253,6.199,22.498,0.049c0.02-0.02,0.031-0.043,0.051-0.063l17.366-17.367l0.001,0
	c0.03-0.03,0.065-0.048,0.095-0.078C232.569,368.793,232.556,358.711,226.328,352.483z"/>
<g>
	<path style="fill:#FFB398;" d="M227.678,399.139c6.248-6.249,6.248-16.379,0-22.627l-1.358-1.358
		c-0.006-0.006-0.014-0.01-0.02-0.016l-17.339,17.339c-0.029,0.029-0.065,0.048-0.095,0.078c-6.19,6.252-6.178,16.336,0.051,22.565
		l1.357,1.357c0.011,0.011,0.024,0.018,0.035,0.029l0.001,0L227.678,399.139z"/>
	<polygon style="fill:#FFB398;" points="226.284,375.125 208.917,392.492 208.867,392.554 208.961,392.477 226.3,375.138 
		226.285,375.125 	"/>
	<polygon style="fill:#FFB398;" points="186.354,392.492 186.326,392.52 186.275,392.583 186.369,392.505 	"/>
	<polygon style="fill:#FFB398;" points="203.736,375.139 203.789,375.075 203.692,375.153 186.354,392.492 186.369,392.505 
		186.37,392.505 	"/>
</g>
<path style="fill:#FFBDA6;" d="M221.656,196.06c0,0,4.645,0,11.576,0c20.355,0,60.424,0,60.424,0l40.619-39.662l-16.619-16.619
	l-40,40c0,0-40.069,0-60.424,0c-6.931,0-11.576,0-11.576,0c-8.836,0-16,7.164-16,16v72h16V212.06
	C205.656,203.223,212.82,196.06,221.656,196.06z"/>
<path style="fill:#FFB398;" d="M229.656,251.779v-24h16c9.327,9.33,21.105,14.7,33.262,16.15
	c16.004,1.91,32.666-2.988,45.271-14.735c0.42-0.391,33.195,31.804,45.122,43.646c2.019,2.004,3.508,3.493,4.07,4.07
	c19.281-19.727,40.274-41.132,40.274-41.132l-79.381-79.381l-40.619,39.662c0,0-40.069,0-60.424,0c-6.931,0-11.576,0-11.576,0
	c-8.836,0-16,7.164-16,16v55.719h8C222.493,267.779,229.656,260.615,229.656,251.779z"/>
<path d="M408,230.121l-66.345,66.345l-45.089-45.091c13.087-2.218,25.159-8.354,34.731-17.93c3.125-3.125,3.125-8.188,0-11.313
	s-8.188-3.125-11.313,0c-9.172,9.168-21.359,14.219-34.328,14.219h-0.008c-12.969-0.004-25.164-5.055-34.336-14.23
	c-1.5-1.5-3.531-2.344-5.656-2.344h-16c-4.422,0-8,3.582-8,8v24c0,4.41-3.586,8-8,8h-16v-64c0-4.41,3.586-8,8-8h72
	c2.125,0,4.156-0.844,5.656-2.344l40-40L312,134.121l-37.656,37.656h-68.688c-13.234,0-24,10.766-24,24v72c0,4.418,3.578,8,8,8h24
	c13.234,0,24-10.766,24-24v-16h4.813c8.917,8.049,19.72,13.355,31.374,15.499l74.884,74.888c3.117,3.121,3.117,8.199-0.008,11.32
	l-1.227,1.227c-0.047,0.047-0.102,0.094-0.148,0.141c-3.109,3.117-8.188,3.117-11.313-0.008l-44.719-44.723L280,305.434
	l44.719,44.723l0,0l0.008,0.008c3.117,3.121,3.117,8.199-0.008,11.32l-1.227,1.227c-0.047,0.047-0.102,0.094-0.148,0.141
	c-3.109,3.117-8.188,3.117-11.313-0.008l-44.719-44.723L256,329.434l44.719,44.723l0,0l0.008,0.008
	c3.117,3.121,3.117,8.199-0.008,11.32l-1.227,1.227c-0.047,0.047-0.102,0.094-0.148,0.141c-3.109,3.117-8.188,3.117-11.313-0.008
	l-44.719-44.723l-8.341,8.341c-0.867-1.292-1.863-2.51-2.987-3.634l-1.359-1.359c-4.37-4.37-10.022-6.614-15.753-6.903
	c-0.303-5.94-2.675-11.501-6.911-15.737l-1.352-1.355c-4.23-4.235-9.943-6.412-15.748-6.692c-0.245-5.801-2.5-11.534-6.917-15.952
	l-1.359-1.359c-9.014-9.021-23.417-9.248-32.833-0.907l-66.44-66.44L72,241.434l66.34,66.34l-7.059,7.062
	c-4.531,4.531-7.031,10.559-7.031,16.969s2.5,12.441,7.023,16.965l1.359,1.363c4.37,4.37,10.025,6.613,15.753,6.903
	c0.303,5.942,2.675,11.506,6.918,15.749l1.352,1.348c4.242,4.246,9.816,6.617,15.764,6.914c0.296,5.726,2.541,11.372,6.908,15.739
	l1.352,1.348c4.352,4.352,9.972,6.591,15.682,6.896c0.292,5.731,2.536,11.384,6.904,15.756l1.352,1.348
	c4.68,4.68,10.828,7.02,16.969,7.02c6.148,0,12.297-2.34,16.977-7.02l7.067-7.068l7.105,7.107c4.531,4.527,10.555,7.02,16.961,7.02
	c0.008,0,0.008,0,0.016,0c6.414-0.004,12.438-2.504,16.961-7.035l1.383-1.379c4.222-4.233,6.585-9.786,6.893-15.717
	c5.676-0.295,11.271-2.506,15.615-6.799c0.039-0.035,0.07-0.07,0.109-0.105l1.359-1.355c4.365-4.364,6.61-10.01,6.904-15.739
	c5.68-0.293,11.28-2.505,15.627-6.8c0.039-0.035,0.07-0.07,0.109-0.105l1.359-1.355c4.365-4.364,6.61-10.01,6.904-15.739
	c5.68-0.293,11.28-2.505,15.627-6.8c0.039-0.035,0.07-0.07,0.109-0.105l1.359-1.355c9.359-9.355,9.367-24.582,0-33.957l-7.064-7.064
	l66.346-66.346L408,230.121z M238.896,362.573c-0.042-0.837-0.116-1.667-0.243-2.486l2.722,2.723
	C240.552,362.68,239.725,362.618,238.896,362.573z M142.594,337.465c-1.508-1.512-2.344-3.523-2.344-5.66s0.828-4.145,2.344-5.652
	c0-0.004,0-0.004,0-0.004l17.359-17.367c1.563-1.559,3.609-2.34,5.664-2.34c2.047,0,4.094,0.781,5.656,2.34l1.359,1.359
	c3.117,3.117,3.117,8.195,0,11.313l-17.367,17.367c-3.117,3.121-8.195,3.121-11.313,0.008L142.594,337.465z M166.609,361.465
	c-1.508-1.512-2.344-3.523-2.344-5.66s0.828-4.145,2.344-5.652c0-0.004,0-0.004,0-0.004l17.367-17.367
	c1.516-1.512,3.523-2.344,5.656-2.344c2.141,0,4.141,0.832,5.656,2.344l1.359,1.363c1.516,1.508,2.344,3.516,2.344,5.652
	s-0.828,4.145-2.344,5.656l-17.375,17.371c-3.008,3.012-8.258,3.031-11.313-0.012L166.609,361.465z M190.633,385.465
	c-3.117-3.121-3.117-8.195,0-11.316L208,356.781c1.563-1.559,3.609-2.34,5.656-2.34s4.094,0.781,5.656,2.34l1.359,1.363
	c1.516,1.508,2.344,3.516,2.344,5.652c0,2.116-0.823,4.1-2.31,5.606c-0.025,0.025-0.056,0.041-0.081,0.065l-17.367,17.367
	c0,0,0,0-0.008,0.004c-0.011,0.011-0.019,0.025-0.03,0.037c-3.124,3.04-8.128,3.04-11.236-0.064L190.633,385.465z M227.25,410.82
	c-3.133,3.125-8.211,3.117-11.328-0.008l-1.344-1.344c-3.112-3.108-3.115-8.157-0.029-11.28c0.021-0.021,0.047-0.034,0.068-0.056
	l17.367-17.363c0.013-0.013,0.022-0.029,0.035-0.042c3.13-3.053,8.137-3.039,11.223,0.039l1.367,1.379
	c1.516,1.508,2.344,3.516,2.344,5.652s-0.828,4.145-2.344,5.656L227.25,410.82z M276.719,409.484l-1.367,1.363
	c-1.508,1.512-3.516,2.344-5.648,2.344h-0.008c-2.133,0-4.141-0.828-5.664-2.348l-7.19-7.193c3.897-4.394,6.112-9.933,6.112-15.854
	c0-1.282-0.173-2.531-0.369-3.773l14.134,14.137C279.844,401.277,279.844,406.352,276.719,409.484z"/>
<path d="M480,158.121l-50.344,50.344l-84.688-84.688l50.344-50.344L384,62.121l-56,56c-3.125,3.125-3.125,8.188,0,11.313l96,96
	c1.563,1.563,3.609,2.344,5.656,2.344s4.094-0.781,5.656-2.344l56-56L480,158.121z"/>
<path d="M429.656,171.777c13.234,0,24-10.766,24-24s-10.766-24-24-24s-24,10.766-24,24S416.422,171.777,429.656,171.777z
	 M429.656,139.777c4.414,0,8,3.59,8,8s-3.586,8-8,8s-8-3.59-8-8S425.242,139.777,429.656,139.777z"/>
<path d="M163.313,118.121l-56-56L96,73.434l50.344,50.344l-84.688,84.688l-50.344-50.344L0,169.434l56,56
	c1.563,1.563,3.609,2.344,5.656,2.344s4.094-0.781,5.656-2.344l96-96C166.438,126.309,166.438,121.246,163.313,118.121z"/>
<path d="M61.656,171.777c13.234,0,24-10.766,24-24s-10.766-24-24-24s-24,10.766-24,24S48.422,171.777,61.656,171.777z
	 M61.656,139.777c4.414,0,8,3.59,8,8s-3.586,8-8,8s-8-3.59-8-8S57.242,139.777,61.656,139.777z"/>
<path d="M181.656,155.777h72c4.414,0,8,3.59,8,8h16c0-13.234-10.766-24-24-24h-68.688l-5.656-5.656L168,145.434l8,8
	C177.5,154.934,179.531,155.777,181.656,155.777z"/>
<g>
</g>
<g>
</g>
<g>
</g>
<g>
</g>
<g>
</g>
<g>
</g>
<g>
</g>
<g>
</g>
<g>
</g>
<g>
</g>
<g>
</g>
<g>
</g>
<g>
</g>
<g>
</g>
<g>
</g>
</svg>
