<?xml version="1.0" encoding="iso-8859-1"?>
<!-- Generator: Adobe Illustrator 19.0.0, SVG Export Plug-In . SVG Version: 6.00 Build 0)  -->
<svg version="1.1" id="Capa_1" xmlns="http://www.w3.org/2000/svg" xmlns:xlink="http://www.w3.org/1999/xlink" x="0px" y="0px"
	 viewBox="0 0 400 400" style="enable-background:new 0 0 400 400;" xml:space="preserve">
<g>
	<rect x="8" y="336" style="fill:#562E02;" width="384" height="48"/>
	<polygon style="fill:#562E02;" points="176,240 176,216 120,216 8,136 8,160 120,240 	"/>
</g>
<rect x="176" y="240" style="fill:#693B00;" width="48" height="24"/>
<polygon style="fill:#562E02;" points="280,216 224,216 224,240 280,240 392,160 392,136 "/>
<polygon style="fill:#693B00;" points="224,240 224,264 176,264 176,240 120,240 8,160 8,336 392,336 392,160 280,240 "/>
<polygon style="fill:#884D00;" points="368,80 368,96 256,176 96,176 8,113.143 8,136 120,216 176,216 176,192 224,192 224,216 
	280,216 392,136 392,80 "/>
<polygon style="fill:#9E5907;" points="256,176 368,96 368,80 8,80 8,113.143 96,176 "/>
<g>
	<polygon style="fill:#FFD422;" points="224,240 224,216 224,192 176,192 176,216 176,240 	"/>
	<rect x="168" y="264" style="fill:#FFD422;" width="64" height="16"/>
</g>
<path style="fill:#FFFFFF;" d="M360,312h-24v-16h16v-16h16v24C368,308.422,364.422,312,360,312z"/>
<path style="fill:#FFD422;" d="M264,48V32c0-13.234-10.766-24-24-24h-80c-13.234,0-24,10.766-24,24v16h-16v16h48V48h-16V32
	c0-4.414,3.586-8,8-8h80c4.414,0,8,3.586,8,8v16h-16v16h48V48H264z"/>
<g>
	<path style="fill:#FFFFFF;" d="M56,136H40v-24c0-4.422,3.578-8,8-8h24v16H56V136z"/>
	<rect x="88" y="104" style="fill:#FFFFFF;" width="16" height="16"/>
	<rect x="352" y="240" style="fill:#FFFFFF;" width="16" height="24"/>
</g>
<path d="M392,72H8c-4.422,0-8,3.578-8,8v256c0,4.422,3.578,8,8,8h384c4.422,0,8-3.578,8-8V80C400,75.578,396.422,72,392,72z M384,88
	v43.886L277.438,208H232v-16c0-4.422-3.578-8-8-8h-48c-4.422,0-8,3.578-8,8v16h-45.438L16,131.886V88H384z M216,200v32h-32v-32H216z
	 M16,328V151.542l99.352,70.965c1.352,0.969,2.984,1.492,4.648,1.492h48v16c0,4.422,3.578,8,8,8h48c4.422,0,8-3.578,8-8v-16h48
	c1.664,0,3.297-0.523,4.648-1.492L384,151.542V328H16z"/>
<path d="M384,376H16v-16H0v24c0,4.422,3.578,8,8,8h384c4.422,0,8-3.578,8-8v-24h-16V376z"/>
<rect x="168" y="264" width="64" height="16"/>
<path style="fill:#FFFFFF;" d="M352,296h-16v16h24c4.422,0,8-3.578,8-8v-24h-16V296z"/>
<path d="M168,48h-16V32c0-4.414,3.586-8,8-8h80c4.414,0,8,3.586,8,8v16h-16v16h48V48h-16V32c0-13.234-10.766-24-24-24h-80
	c-13.234,0-24,10.766-24,24v16h-16v16h48V48z"/>
<path style="fill:#FFFFFF;" d="M56,120h16v-16H48c-4.422,0-8,3.578-8,8v24h16V120z"/>
<g>
</g>
<g>
</g>
<g>
</g>
<g>
</g>
<g>
</g>
<g>
</g>
<g>
</g>
<g>
</g>
<g>
</g>
<g>
</g>
<g>
</g>
<g>
</g>
<g>
</g>
<g>
</g>
<g>
</g>
</svg>
