<?xml version="1.0" encoding="iso-8859-1"?>
<!-- Generator: Adobe Illustrator 19.0.0, SVG Export Plug-In . SVG Version: 6.00 Build 0)  -->
<svg version="1.1" id="Capa_1" xmlns="http://www.w3.org/2000/svg" xmlns:xlink="http://www.w3.org/1999/xlink" x="0px" y="0px"
	 viewBox="0 0 469.338 469.338" style="enable-background:new 0 0 469.338 469.338;" xml:space="preserve">
<path style="fill:#303C42;" d="M426.669,213.338H361.25c-4.193-28.115-16.009-96.512-33.706-114.208
	c-16.333-16.333-65.583-31.063-123.479-47.25c-12.125-3.396-22.688-6.344-30.188-8.708c-31.5-9.958-70.917-40.594-71.313-40.906
	c-2.938-2.302-6.917-2.906-10.375-1.552C91.273,1.068,0.003,37.172,0.003,138.672c0,3.802,2.021,7.323,5.313,9.229
	c33.854,19.625,47.5,42.104,60.667,63.854c6.697,11.026,13.259,21.552,21.882,30.844c-1.503,4.361-2.527,8.811-2.527,13.406v170.667
	c0,23.531,19.146,42.667,42.667,42.667h298.667c23.521,0,42.667-19.135,42.667-42.667V256.005
	C469.336,232.474,450.19,213.338,426.669,213.338z M256.598,213.338c-17.146-8.956-33.283-19.797-40.887-30.469
	c3.75-2.958,8.583-5.073,12.979-7.01c2.729-1.188,5.271-2.302,7.542-3.594c7.333,2.813,16.688,5.615,22.5,7.271l13.514,33.802
	H256.598z"/>
<path style="fill:#0288D1;" d="M448.003,256.005v106.667H106.669v-104.44c25.302,16.953,40.141,17.849,54.375,18.513
	c2.792,0.135,5.625,0.26,8.604,0.542c17.979,1.719,45.958,13.833,69.625,30.167c18.354,12.656,42.104,23.115,63.625,23.115
	c13.188,0,25.542-3.927,35.313-13.688c6.875-6.875,9.417-15.896,7.333-26.094c-4.132-20.348-27.237-42.798-46.775-56.115h127.9
	C438.44,234.672,448.003,244.245,448.003,256.005z"/>
<path style="fill:#FFE082;" d="M21.461,132.713c2.854-70.146,55.875-101.417,73.125-109.75
	c12.354,9.115,44.521,31.594,72.875,40.542c7.667,2.427,18.479,5.448,30.854,8.917c37.563,10.51,100.438,28.094,114.146,41.792
	c10.033,10.042,21.168,60.358,27.182,99.125h-44.428l-18.65-46.625c-1.229-3.125-3.875-5.469-7.125-6.344
	c-6.146-1.656-23.5-6.656-30-9.906c-4.688-2.344-9.854-1.646-12.896,2.729c-0.875,0.708-4.083,2.115-6.417,3.135
	c-8.104,3.563-19.229,8.427-26.333,19.094c-1.979,2.958-2.333,6.719-0.979,10c11.979,28.854,60.292,50.969,80.521,59.135
	c16.834,6.802,47.917,33.771,51.313,50.479c0.771,3.823-0.271,5.51-1.521,6.76c-15.292,15.26-47.917,4.531-71.729-11.906
	c-26.813-18.5-58.104-31.781-79.708-33.833c-3.354-0.323-6.521-0.479-9.646-0.625c-13.938-0.646-24.958-1.156-49.104-18.719
	c-12.292-8.938-19.896-21.49-28.708-36.021C71.669,179.963,56.169,154.411,21.461,132.713z"/>
<path style="fill:#0288D1;" d="M426.669,448.005H128.003c-11.771,0-21.333-9.573-21.333-21.333h341.333
	C448.003,438.432,438.44,448.005,426.669,448.005z"/>
<linearGradient id="SVGID_1_" gradientUnits="userSpaceOnUse" x1="-59.0772" y1="614.096" x2="-47.3764" y2="602.3972" gradientTransform="matrix(21.3333 0 0 -21.3333 1430.0591 13315.2793)">
	<stop  offset="0" style="stop-color:#000000;stop-opacity:0.1"/>
	<stop  offset="1" style="stop-color:#000000;stop-opacity:0"/>
</linearGradient>
<path style="fill:url(#SVGID_1_);" d="M344.473,287.245l-0.03-0.003c0.358,1.181,0.865,2.375,1.102,3.544
	c2.083,10.198-0.458,19.219-7.333,26.094c-9.771,9.76-22.125,13.688-35.313,13.688c-21.521,0-45.271-10.458-63.625-23.115
	c-23.667-16.333-51.646-28.448-69.625-30.167c-2.979-0.281-5.813-0.406-8.604-0.542c-11.747-0.548-24.004-1.402-42.117-11.161
	l-0.174-0.017l97.105,97.105H419.9L344.473,287.245z M279.859,426.672l21.333,21.333h125.477c11.771,0,21.333-9.573,21.333-21.333
	H279.859z"/>
<path style="opacity:0.1;enable-background:new    ;" d="M295.215,213.338h44.428c-0.535-3.451-1.156-7.069-1.768-10.667h-46.927
	L295.215,213.338z"/>
<path style="opacity:0.1;enable-background:new    ;" d="M82.567,131.504c20,25.333,28.907,43.438,60.667,76
	c28.753,29.48,106.108,46.324,148.456,100.586c-13.417-2.639-28.068-9.525-40.404-18.034c-26.813-18.5-58.104-31.781-79.708-33.833
	c-3.333-0.323-6.51-0.479-9.646-0.625c-13.938-0.646-24.938-1.156-49.094-18.719c-12.271-8.927-19.885-21.479-28.698-36.021
	c-12.573-20.729-28.063-46.281-62.781-67.979c0.837-20.121,6.13-36.742,13.298-50.887C53.572,98.255,70.777,116.57,82.567,131.504z"
	/>
<linearGradient id="SVGID_2_" gradientUnits="userSpaceOnUse" x1="-68.3531" y1="616.4068" x2="-44.3361" y2="605.2067" gradientTransform="matrix(21.3333 0 0 -21.3333 1430.0591 13315.2793)">
	<stop  offset="0" style="stop-color:#FFFFFF;stop-opacity:0.2"/>
	<stop  offset="1" style="stop-color:#FFFFFF;stop-opacity:0"/>
</linearGradient>
<path style="fill:url(#SVGID_2_);" d="M426.669,213.338H361.25c-4.193-28.115-16.009-96.512-33.706-114.208
	c-16.333-16.333-65.583-31.063-123.479-47.25c-12.125-3.396-22.688-6.344-30.188-8.708c-31.5-9.958-70.917-40.594-71.313-40.906
	c-2.938-2.302-6.917-2.906-10.375-1.552C91.273,1.068,0.003,37.172,0.003,138.672c0,3.802,2.021,7.323,5.313,9.229
	c33.854,19.625,47.5,42.104,60.667,63.854c6.697,11.026,13.259,21.552,21.882,30.844c-1.503,4.361-2.527,8.811-2.527,13.406v170.667
	c0,23.531,19.146,42.667,42.667,42.667h298.667c23.521,0,42.667-19.135,42.667-42.667V256.005
	C469.336,232.474,450.19,213.338,426.669,213.338z M256.598,213.338c-17.146-8.956-33.283-19.797-40.887-30.469
	c3.75-2.958,8.583-5.073,12.979-7.01c2.729-1.188,5.271-2.302,7.542-3.594c7.333,2.813,16.688,5.615,22.5,7.271l13.514,33.802
	H256.598z"/>
<g>
</g>
<g>
</g>
<g>
</g>
<g>
</g>
<g>
</g>
<g>
</g>
<g>
</g>
<g>
</g>
<g>
</g>
<g>
</g>
<g>
</g>
<g>
</g>
<g>
</g>
<g>
</g>
<g>
</g>
</svg>
