<?xml version="1.0" encoding="iso-8859-1"?>
<!-- Generator: Adobe Illustrator 19.0.0, SVG Export Plug-In . SVG Version: 6.00 Build 0)  -->
<svg version="1.1" id="Capa_1" xmlns="http://www.w3.org/2000/svg" xmlns:xlink="http://www.w3.org/1999/xlink" x="0px" y="0px"
	 viewBox="0 0 512 512" style="enable-background:new 0 0 512 512;" xml:space="preserve">
<rect x="152.65" y="342.92" style="fill:#26CFAD;" width="295.38" height="159.08"/>
<polygon style="fill:#F6B244;" points="192.652,302.916 192.652,342.92 448.026,342.92 448.026,461.996 488.03,461.996 
	488.03,302.916 "/>
<polygon style="fill:#ECECF0;" points="152.648,342.92 192.652,342.92 192.652,302.916 305.574,302.916 305.574,77.373 
	23.97,77.373 23.97,410.624 152.648,410.624 "/>
<path style="fill:#516787;" d="M23.97,410.624v74.475c0,9.334,7.567,16.901,16.901,16.901h111.777v-91.376H23.97z"/>
<circle style="fill:#F6B244;" cx="300.34" cy="422.46" r="41"/>
<path d="M300.337,473.46c-28.122,0-51-22.878-51-51s22.878-51,51-51s51,22.878,51,51S328.458,473.46,300.337,473.46z
	 M300.337,391.46c-17.093,0-31,13.907-31,31s13.907,31,31,31s31-13.907,31-31S317.43,391.46,300.337,391.46z"/>
<g>
	<path style="fill:#FAD06A;" d="M448.026,342.92v49.7c-0.61,0.03-1.22,0.04-1.83,0.04c-25.36,0-46-20.64-46-46
		c0-1.26,0.05-2.51,0.15-3.74L448.026,342.92L448.026,342.92z"/>
	<path style="fill:#FAD06A;" d="M200.478,346.66c0,25.36-20.64,46-46,46c-0.61,0-1.22-0.01-1.83-0.04v-49.7h47.68
		C200.428,344.15,200.478,345.4,200.478,346.66z"/>
	<path style="fill:#FAD06A;" d="M448.026,452.3V502h-47.68c-0.1-1.23-0.15-2.48-0.15-3.74c0-25.36,20.64-46,46-46
		C446.806,452.26,447.416,452.27,448.026,452.3z"/>
	<path style="fill:#FAD06A;" d="M200.478,498.26c0,1.26-0.05,2.51-0.15,3.74h-47.68v-49.7c0.61-0.03,1.22-0.04,1.83-0.04
		C179.838,452.26,200.478,472.9,200.478,498.26z"/>
</g>
<path style="fill:#2C96B2;" d="M305.574,77.373H23.97V26.901C23.97,17.567,31.537,10,40.871,10h247.802
	c9.334,0,16.901,7.567,16.901,16.901V77.373z"/>
<path d="M488.03,292.916H315.574V26.901C315.574,12.068,303.506,0,288.673,0H40.871C26.038,0,13.97,12.068,13.97,26.901v458.198
	C13.97,499.932,26.038,512,40.871,512h407.155c5.523,0,10-4.477,10-10v-30.004h30.004c5.523,0,10-4.477,10-10v-159.08
	C498.03,297.393,493.553,292.916,488.03,292.916z M438.026,381.725c-13.932-3.246-24.785-14.605-27.285-28.805h27.285V381.725z
	 M390.544,352.92c2.821,25.248,22.496,45.478,47.482,49.145v40.789c-24.986,3.668-44.661,23.898-47.482,49.146H210.13
	c-2.821-25.248-22.496-45.478-47.482-49.146v-40.789c24.986-3.668,44.661-23.898,47.482-49.145H390.544z M189.933,352.92
	c-2.5,14.2-13.353,25.559-27.285,28.805V352.92H189.933z M192.652,292.916c-5.523,0-10,4.477-10,10v30.004h-30.004
	c-5.523,0-10,4.477-10,10v57.705H33.97V87.373h261.603v205.542L192.652,292.916L192.652,292.916z M33.97,26.901
	c0-3.805,3.096-6.901,6.901-6.901h247.802c3.805,0,6.901,3.096,6.901,6.901v40.473H33.97V26.901z M33.97,485.099v-64.475h108.678
	V492H40.871C37.066,492,33.97,488.904,33.97,485.099z M162.648,492v-28.805C176.58,466.44,187.433,477.8,189.933,492H162.648z
	 M438.026,492h-27.285c2.5-14.2,13.353-25.56,27.285-28.805V492z M478.03,451.996h-20.004V342.92c0-5.523-4.477-10-10-10H202.652
	v-20.004H478.03V451.996z"/>
<path d="M184.772,53.687h-40c-5.523,0-10-4.477-10-10s4.477-10,10-10h40c5.523,0,10,4.477,10,10
	C194.772,49.209,190.295,53.687,184.772,53.687z"/>
<rect x="65.891" y="130.16" style="fill:#E95542;" width="197.76" height="101.54"/>
<rect x="65.891" y="130.16" style="fill:#EC7349;" width="197.76" height="70.835"/>
<path d="M263.653,120.165H65.891c-5.523,0-10,4.477-10,10v101.542c0,5.523,4.477,10,10,10h197.762c5.523,0,10-4.477,10-10V130.165
	C273.653,124.643,269.176,120.165,263.653,120.165z M75.891,140.165h177.762V191H75.891V140.165z M75.891,221.707v-10.706h177.762
	v10.706H75.891z"/>
<path d="M223.92,175.58c-0.65,0-1.31-0.06-1.95-0.19s-1.27-0.32-1.87-0.57c-0.6-0.25-1.18-0.56-1.73-0.92
	c-0.54-0.37-1.059-0.78-1.52-1.25c-0.46-0.46-0.88-0.97-1.24-1.52c-0.36-0.54-0.67-1.12-0.92-1.72c-0.25-0.61-0.44-1.24-0.57-1.87
	c-0.13-0.65-0.2-1.31-0.2-1.96c0-0.65,0.07-1.31,0.2-1.95c0.13-0.64,0.32-1.27,0.57-1.87s0.56-1.19,0.92-1.73
	c0.36-0.55,0.78-1.06,1.24-1.52c0.461-0.46,0.98-0.88,1.52-1.24c0.55-0.36,1.13-0.67,1.73-0.92c0.6-0.25,1.23-0.44,1.87-0.57
	c1.29-0.26,2.62-0.26,3.91,0c0.64,0.13,1.27,0.32,1.87,0.57c0.6,0.25,1.18,0.56,1.72,0.92c0.55,0.36,1.06,0.78,1.52,1.24
	c0.47,0.46,0.88,0.97,1.25,1.52c0.36,0.54,0.67,1.13,0.92,1.73s0.44,1.23,0.57,1.87s0.19,1.3,0.19,1.95s-0.06,1.31-0.19,1.96
	c-0.13,0.63-0.32,1.26-0.57,1.87c-0.25,0.6-0.56,1.18-0.92,1.72c-0.37,0.55-0.78,1.06-1.25,1.52c-0.46,0.47-0.97,0.88-1.52,1.25
	c-0.54,0.36-1.12,0.67-1.72,0.92s-1.23,0.44-1.87,0.57C225.23,175.52,224.58,175.58,223.92,175.58z"/>
<path d="M182.405,175.583H105.62c-5.523,0-10-4.477-10-10s4.477-10,10-10h76.786c5.523,0,10,4.477,10,10
	C192.405,171.106,187.928,175.583,182.405,175.583z"/>
<path d="M69.57,280.71c-0.65,0-1.31-0.06-1.95-0.19s-1.27-0.32-1.88-0.57c-0.6-0.25-1.18-0.56-1.72-0.92
	c-0.55-0.37-1.06-0.79-1.52-1.25s-0.88-0.97-1.24-1.52c-0.36-0.54-0.67-1.12-0.92-1.72c-0.25-0.61-0.45-1.24-0.57-1.87
	c-0.13-0.65-0.2-1.31-0.2-1.96s0.07-1.31,0.2-1.95c0.12-0.64,0.32-1.27,0.57-1.87c0.25-0.61,0.56-1.19,0.92-1.73
	c0.36-0.55,0.78-1.06,1.24-1.52c0.46-0.46,0.97-0.88,1.52-1.24c0.54-0.36,1.12-0.67,1.72-0.92c0.61-0.25,1.24-0.44,1.88-0.57
	c1.29-0.26,2.61-0.26,3.9,0c0.64,0.13,1.27,0.32,1.87,0.57c0.61,0.25,1.19,0.56,1.73,0.92c0.55,0.36,1.06,0.78,1.52,1.24
	c0.46,0.461,0.88,0.97,1.24,1.52c0.36,0.54,0.67,1.12,0.92,1.73c0.25,0.6,0.45,1.23,0.57,1.87c0.13,0.64,0.2,1.3,0.2,1.95
	s-0.07,1.31-0.2,1.96c-0.12,0.63-0.32,1.26-0.57,1.87c-0.25,0.6-0.56,1.18-0.92,1.72c-0.36,0.55-0.78,1.06-1.24,1.52
	s-0.97,0.88-1.52,1.25c-0.54,0.36-1.12,0.67-1.73,0.92c-0.6,0.25-1.23,0.44-1.87,0.57C70.88,280.65,70.22,280.71,69.57,280.71z"/>
<path d="M262.287,280.712H111.088c-5.523,0-10-4.477-10-10s4.477-10,10-10h151.199c5.523,0,10,4.477,10,10
	C272.287,276.235,267.81,280.712,262.287,280.712z"/>
<g>
</g>
<g>
</g>
<g>
</g>
<g>
</g>
<g>
</g>
<g>
</g>
<g>
</g>
<g>
</g>
<g>
</g>
<g>
</g>
<g>
</g>
<g>
</g>
<g>
</g>
<g>
</g>
<g>
</g>
</svg>
