<?xml version="1.0" encoding="iso-8859-1"?>
<!-- Generator: Adobe Illustrator 19.0.0, SVG Export Plug-In . SVG Version: 6.00 Build 0)  -->
<svg version="1.1" id="Capa_1" xmlns="http://www.w3.org/2000/svg" xmlns:xlink="http://www.w3.org/1999/xlink" x="0px" y="0px"
	 viewBox="0 0 512 512" style="enable-background:new 0 0 512 512;" xml:space="preserve">
<path style="fill:#D9EEF7;" d="M480,192v298.667c0,5.891-4.776,10.667-10.667,10.667H42.667c-5.891,0-10.667-4.776-10.667-10.667
	V160h448V192z M426.667,448V213.333H85.333V448H426.667z"/>
<path style="fill:#95ADC0;" d="M341.333,394.667h85.333V448h-85.333V394.667z"/>
<path style="fill:#D9EEF7;" d="M341.333,330.667h85.333v64h-85.333V330.667z"/>
<path style="fill:#95ADC0;" d="M341.333,277.333h85.333v53.333h-85.333V277.333z"/>
<path style="fill:#D9EEF7;" d="M341.333,213.333h85.333v64h-85.333V213.333z"/>
<path style="fill:#FF7260;" d="M458.667,32H416V10.667h-64V32h-64V10.667h-64V32h-64V10.667H96V32H53.333
	c-23.564,0-42.667,19.103-42.667,42.667V160h490.667V74.667C501.333,51.103,482.231,32,458.667,32z M384,128H128V85.333h256V128z"/>
<path style="fill:#F2F2F2;" d="M128,85.333h256V128H128V85.333z"/>
<path style="fill:#D9EEF7;" d="M256,394.667h85.333V448H256V394.667z"/>
<path style="fill:#95ADC0;" d="M256,330.667h85.333v64H256V330.667z"/>
<path style="fill:#D9EEF7;" d="M256,277.333h85.333v53.333H256V277.333z"/>
<g>
	<path style="fill:#95ADC0;" d="M256,213.333h85.333v64H256V213.333z"/>
	<path style="fill:#95ADC0;" d="M170.667,394.667H256V448h-85.333V394.667z"/>
</g>
<path style="fill:#D9EEF7;" d="M170.667,330.667H256v64h-85.333V330.667z"/>
<path style="fill:#95ADC0;" d="M170.667,277.333H256v53.333h-85.333V277.333z"/>
<g>
	<path style="fill:#D9EEF7;" d="M170.667,213.333H256v64h-85.333V213.333z"/>
	<path style="fill:#D9EEF7;" d="M85.333,394.667h85.333V448H85.333V394.667z"/>
</g>
<path style="fill:#95ADC0;" d="M85.333,330.667h85.333v64H85.333V330.667z"/>
<path style="fill:#D9EEF7;" d="M85.333,277.333h85.333v53.333H85.333V277.333z"/>
<path style="fill:#95ADC0;" d="M85.333,213.333h85.333v64H85.333V213.333z"/>
<circle style="fill:#F2F2F2;" cx="384" cy="384" r="32"/>
<path style="fill:#AAC4DA;" d="M501.333,362.667v42.667H466.56c-2.019,7.699-5.069,15.091-9.067,21.973l24.533,24.533
	l-30.187,30.187l-24.533-24.533c-6.883,3.998-14.274,7.048-21.973,9.067v34.773h-42.667V466.56
	c-7.699-2.019-15.091-5.069-21.973-9.067l-24.533,24.533l-30.187-30.187l24.533-24.533c-3.998-6.883-7.048-14.274-9.067-21.973
	h-34.773v-42.667h34.773c2.019-7.699,5.069-15.091,9.067-21.973l-24.533-24.533l30.187-30.187l24.533,24.533
	c6.883-3.998,14.274-7.048,21.973-9.067v-34.773h42.667v34.773c7.699,2.019,15.091,5.069,21.973,9.067l24.533-24.533l30.187,30.187
	l-24.533,24.533c3.998,6.883,7.048,14.274,9.067,21.973H501.333z M416,384c0-17.673-14.327-32-32-32s-32,14.327-32,32
	s14.327,32,32,32S416,401.673,416,384z"/>
<g>
	<path style="fill:#4C5B66;" d="M469.333,192h21.333v64h-21.333V192z"/>
	<path style="fill:#4C5B66;" d="M42.667,192H21.333v298.667c0,11.782,9.551,21.333,21.333,21.333H288v-21.333H42.667V192z"/>
	<path style="fill:#4C5B66;" d="M437.333,234.667v-21.333c0-5.891-4.776-10.667-10.667-10.667H85.333
		c-5.891,0-10.667,4.776-10.667,10.667V448c0,5.891,4.776,10.667,10.667,10.667h160v-21.333h-64v-32H224V384h-42.667v-42.667H224
		V320h-42.667v-32H256v-21.333h-74.667V224H416v10.667H437.333z M160,437.333H96v-32h64V437.333z M160,384H96v-42.667h64V384z
		 M160,320H96v-32h64V320z M160,266.667H96V224h64V266.667z"/>
	<path style="fill:#4C5B66;" d="M458.667,21.333h-32V10.667C426.667,4.776,421.891,0,416,0h-64c-5.891,0-10.667,4.776-10.667,10.667
		v10.667h-42.667V10.667C298.667,4.776,293.891,0,288,0h-64c-5.891,0-10.667,4.776-10.667,10.667v10.667h-42.667V10.667
		C170.667,4.776,165.891,0,160,0H96c-5.891,0-10.667,4.776-10.667,10.667v10.667h-32C23.893,21.369,0.035,45.226,0,74.667V160
		c0,5.891,4.776,10.667,10.667,10.667h490.667c5.891,0,10.667-4.776,10.667-10.667V74.667
		C511.965,45.226,488.107,21.369,458.667,21.333z M490.667,149.333H21.333V74.667c0-17.673,14.327-32,32-32h32v10.667h21.333v-32
		h42.667v32h21.333V42.667h42.667v10.667h21.333v-32h42.667v32h21.333V42.667h42.667v10.667h21.333v-32h42.667v32h21.333V42.667h32
		c17.673,0,32,14.327,32,32V149.333z"/>
	<path style="fill:#4C5B66;" d="M128,74.667H96V96h21.333v32h21.333V96h234.667v32h21.333V96H416V74.667h-32H128z"/>
	<path style="fill:#4C5B66;" d="M437.333,106.667h21.333V128h-21.333V106.667z"/>
	<path style="fill:#4C5B66;" d="M53.333,106.667h21.333V128H53.333V106.667z"/>
	<path style="fill:#4C5B66;" d="M501.333,352h-26.901c-1.12-3.2-2.411-6.261-3.851-9.312l18.987-18.987
		c4.164-4.165,4.164-10.917,0-15.083l-30.187-30.187c-4.165-4.164-10.917-4.164-15.083,0l-18.997,18.987
		c-3.034-1.438-6.139-2.723-9.301-3.851v-26.901c0-5.891-4.776-10.667-10.667-10.667h-42.667c-5.891,0-10.667,4.776-10.667,10.667
		v26.901c-3.163,1.127-6.267,2.412-9.301,3.851L323.701,278.4c-4.165-4.164-10.917-4.164-15.083,0l-30.187,30.187
		c-4.164,4.165-4.164,10.917,0,15.083l18.987,18.987c-1.44,3.051-2.731,6.165-3.851,9.312h-26.901
		c-5.891,0-10.667,4.776-10.667,10.667v42.667c0,5.891,4.776,10.667,10.667,10.667h26.901c1.12,3.2,2.411,6.261,3.851,9.312
		l-18.987,18.987c-4.164,4.165-4.164,10.917,0,15.083l30.187,30.187c4.165,4.164,10.917,4.164,15.083,0l18.997-18.987
		c3.034,1.438,6.138,2.723,9.301,3.851v26.933c0,5.891,4.776,10.667,10.667,10.667h42.667c5.891,0,10.667-4.776,10.667-10.667
		v-26.901c3.163-1.127,6.267-2.412,9.301-3.851l18.997,18.987c4.165,4.164,10.917,4.164,15.083,0l30.187-30.187
		c4.164-4.165,4.164-10.917,0-15.083l-18.987-18.987c1.44-3.051,2.731-6.165,3.851-9.312h26.901c5.891,0,10.667-4.776,10.667-10.667
		v-42.667C512,356.776,507.224,352,501.333,352L501.333,352z M490.667,394.667H466.56c-4.857-0.001-9.101,3.279-10.325,7.979
		c-1.785,6.77-4.468,13.271-7.979,19.328c-2.413,4.181-1.717,9.461,1.696,12.875l16.992,16.992l-15.104,15.104l-16.992-16.992
		c-3.413-3.413-8.694-4.109-12.875-1.696c-6.055,3.516-12.556,6.2-19.328,7.979c-4.7,1.224-7.98,5.468-7.979,10.325v24.107h-21.333
		V466.56c0.001-4.857-3.279-9.101-7.979-10.325c-6.772-1.779-13.273-4.462-19.328-7.979c-4.181-2.413-9.461-1.717-12.875,1.696
		l-16.992,16.992l-15.104-15.104l16.992-16.992c3.414-3.413,4.109-8.694,1.696-12.875c-3.511-6.057-6.194-12.558-7.979-19.328
		c-1.224-4.7-5.468-7.98-10.325-7.979h-24.107v-21.333h24.107c4.857,0.001,9.101-3.279,10.325-7.979
		c1.784-6.77,4.468-13.271,7.979-19.328c2.413-4.181,1.717-9.461-1.696-12.875l-16.992-16.992l15.104-15.104l16.992,16.992
		c3.413,3.413,8.694,4.109,12.875,1.696c6.055-3.516,12.556-6.2,19.328-7.979c4.7-1.224,7.98-5.468,7.979-10.325v-24.107h21.333
		v24.107c-0.001,4.857,3.279,9.101,7.979,10.325c6.772,1.778,13.273,4.462,19.328,7.979c4.181,2.413,9.461,1.717,12.875-1.696
		l16.992-16.992l15.104,15.104l-16.992,16.992c-3.413,3.413-4.109,8.694-1.696,12.875c3.511,6.057,6.194,12.558,7.979,19.328
		c1.224,4.7,5.468,7.98,10.325,7.979h24.107V394.667z"/>
	<path style="fill:#4C5B66;" d="M384,341.333c-23.564,0-42.667,19.102-42.667,42.667s19.103,42.667,42.667,42.667
		c23.564,0,42.667-19.102,42.667-42.667S407.564,341.333,384,341.333z M384,405.333c-11.782,0-21.333-9.551-21.333-21.333
		s9.551-21.333,21.333-21.333c11.782,0,21.333,9.551,21.333,21.333S395.782,405.333,384,405.333z"/>
</g>
<g>
</g>
<g>
</g>
<g>
</g>
<g>
</g>
<g>
</g>
<g>
</g>
<g>
</g>
<g>
</g>
<g>
</g>
<g>
</g>
<g>
</g>
<g>
</g>
<g>
</g>
<g>
</g>
<g>
</g>
</svg>
