<?xml version="1.0" encoding="iso-8859-1"?>
<!-- Generator: Adobe Illustrator 19.0.0, SVG Export Plug-In . SVG Version: 6.00 Build 0)  -->
<svg version="1.1" id="Capa_1" xmlns="http://www.w3.org/2000/svg" xmlns:xlink="http://www.w3.org/1999/xlink" x="0px" y="0px"
	 viewBox="0 0 512 512" style="enable-background:new 0 0 512 512;" xml:space="preserve">
<path style="fill:#AAC4DA;" d="M501.333,213.333v85.333c0,5.891-4.776,10.667-10.667,10.667H440.32
	c-3.893,13.693-9.332,26.898-16.213,39.36l35.52,35.52c4.136,4.16,4.136,10.88,0,15.04l-60.267,60.373
	c-4.192,4.16-10.955,4.16-15.147,0l-35.52-35.52c-12.462,6.881-25.667,12.321-39.36,16.213v50.347
	c0,5.891-4.776,10.667-10.667,10.667h-85.333c-5.891,0-10.667-4.776-10.667-10.667V440.32c-13.693-3.893-26.898-9.332-39.36-16.213
	l-35.52,35.52c-4.192,4.16-10.955,4.16-15.147,0l-60.267-60.373c-4.136-4.16-4.136-10.88,0-15.04l35.52-35.52
	c-6.881-12.462-12.32-25.667-16.213-39.36H21.333c-5.891,0-10.667-4.776-10.667-10.667v-85.333c0-5.891,4.776-10.667,10.667-10.667
	H71.68c3.893-13.693,9.332-26.898,16.213-39.36l-35.52-35.52c-4.16-4.192-4.16-10.955,0-15.147l60.267-60.267
	c4.192-4.16,10.955-4.16,15.147,0l35.52,35.52c12.462-6.881,25.667-12.32,39.36-16.213V21.333c0-5.891,4.776-10.667,10.667-10.667
	h85.333c5.891,0,10.667,4.776,10.667,10.667V71.68c13.693,3.893,26.898,9.332,39.36,16.213l35.52-35.52
	c4.192-4.16,10.955-4.16,15.147,0l60.267,60.267c4.16,4.192,4.16,10.955,0,15.147l-35.52,35.52
	c6.881,12.462,12.321,25.667,16.213,39.36h50.347C496.558,202.667,501.333,207.442,501.333,213.333L501.333,213.333z"/>
<g>
	<path style="fill:#D9EEF7;" d="M352,309.333v85.333H160v-85.333c0-23.564,19.103-42.667,42.667-42.667
		c16.094,0.254,29.796-11.654,31.787-27.627c13.139,8.391,29.954,8.391,43.093,0c1.991,15.972,15.693,27.881,31.787,27.627
		C332.898,266.667,352,285.769,352,309.333z"/>
	<path style="fill:#D9EEF7;" d="M277.547,239.04c-13.139,8.391-29.954,8.391-43.093,0c-18.667-11.307-31.787-37.333-31.787-68.693
		v-21.013c0,0,10.667-42.667,53.333-42.667s53.333,42.667,53.333,42.667v21.013C309.333,201.707,296.213,227.733,277.547,239.04z"/>
</g>
<g>
	<path style="fill:#4C5B66;" d="M490.667,192h-42.453c-3.022-9.144-6.705-18.056-11.019-26.667l29.973-29.963
		c8.256-8.39,8.256-21.85,0-30.24l-60.352-60.395c-8.404-8.166-21.792-8.123-30.144,0.096l-30.005,29.973
		c-8.613-4.304-17.525-7.983-26.667-11.008V21.333C320,9.551,310.449,0,298.667,0h-85.333C201.551,0,192,9.551,192,21.333v42.464
		c-9.142,3.025-18.053,6.704-26.667,11.008L135.339,44.8c-8.394-8.244-21.846-8.244-30.24,0l-60.363,60.384
		c-8.192,8.388-8.164,21.79,0.064,30.144l29.973,29.973c-4.304,8.622-7.976,17.545-10.987,26.699H21.333
		C9.551,192,0,201.551,0,213.333v85.333C0,310.449,9.551,320,21.333,320h42.453c3.022,9.144,6.705,18.056,11.019,26.667
		L44.8,376.672c-8.3,8.326-8.3,21.797,0,30.123l60.363,60.469c8.403,8.179,21.804,8.136,30.155-0.096l29.952-29.973
		c8.634,4.307,17.567,7.986,26.731,11.008v42.464c0,11.782,9.551,21.333,21.333,21.333h85.333c11.782,0,21.333-9.551,21.333-21.333
		v-42.464c9.142-3.025,18.053-6.704,26.667-11.008l29.963,29.973c8.394,8.244,21.846,8.244,30.24,0l60.331-60.363
		c8.307-8.327,8.307-21.806,0-30.133l-29.973-29.973c4.304-8.622,7.976-17.545,10.987-26.699h42.453
		c11.782,0,21.333-9.551,21.333-21.333v-85.333C512,201.551,502.449,192,490.667,192L490.667,192z M490.667,298.667H440.32
		c-4.766-0.001-8.955,3.16-10.261,7.744c-3.677,12.914-8.805,25.37-15.285,37.131c-2.295,4.158-1.565,9.333,1.792,12.693
		l35.509,35.488l-60.32,60.363l-35.52-35.52c-3.358-3.36-8.533-4.095-12.693-1.803c-11.756,6.485-24.208,11.616-37.12,15.296
		c-4.588,1.302-7.755,5.492-7.755,10.261v50.347h-85.333V440.32c0-4.769-3.166-8.959-7.755-10.261
		c-12.912-3.679-25.364-8.811-37.12-15.296c-4.16-2.293-9.336-1.558-12.693,1.803l-35.573,35.52l-60.277-60.331l35.52-35.52
		c3.357-3.36,4.087-8.535,1.792-12.693c-6.48-11.76-11.608-24.217-15.285-37.131c-1.306-4.584-5.495-7.745-10.261-7.744H21.333
		v-85.333H71.68c4.766,0.001,8.955-3.16,10.261-7.744c3.677-12.914,8.805-25.37,15.285-37.131c2.295-4.158,1.565-9.333-1.792-12.693
		l-35.52-35.584l60.331-60.267l35.52,35.52c3.358,3.36,8.533,4.095,12.693,1.803c11.756-6.485,24.208-11.617,37.12-15.296
		c4.588-1.302,7.755-5.492,7.755-10.261V21.333h85.333V71.68c0,4.769,3.166,8.959,7.755,10.261
		c12.912,3.679,25.364,8.811,37.12,15.296c4.16,2.293,9.336,1.558,12.693-1.803l35.584-35.52l60.267,60.331l-35.52,35.52
		c-3.357,3.36-4.087,8.535-1.792,12.693c6.48,11.76,11.608,24.217,15.285,37.131c1.306,4.584,5.495,7.745,10.261,7.744h50.347
		L490.667,298.667z"/>
	<path style="fill:#4C5B66;" d="M309.419,256c-8.564,0.254-16.448-4.64-20.021-12.427c20.618-18.619,31.841-45.474,30.603-73.227
		v-21.013c0-0.874-0.108-1.744-0.32-2.592c-8.066-35.169-43.115-57.141-78.285-49.075c-24.413,5.599-43.476,24.662-49.075,49.075
		c-0.212,0.848-0.32,1.718-0.32,2.592v21.013c-1.237,27.745,9.977,54.594,30.581,73.216c-3.555,7.754-11.387,12.646-19.915,12.437
		c-29.441,0.035-53.298,23.893-53.333,53.333v85.333h21.333v-85.333c0-17.673,14.327-32,32-32
		c16.28,0.045,31.193-9.098,38.539-23.627c9.61,3.043,19.926,3.043,29.536,0c7.362,14.539,22.295,23.682,38.592,23.627
		c17.673,0,32,14.327,32,32v85.333h21.333v-85.333C362.667,279.911,338.841,256.047,309.419,256z M240,229.92
		c-16.203-9.813-26.667-33.195-26.667-59.573v-19.509c5.766-23.564,29.542-37.993,53.106-32.227
		c15.911,3.893,28.334,16.316,32.227,32.227v19.52c0,26.379-10.453,49.76-26.667,59.573h-0.053
		C262.221,236.205,249.722,236.201,240,229.92z"/>
	<path style="fill:#4C5B66;" d="M192,320h21.333v74.667H192V320z"/>
	<path style="fill:#4C5B66;" d="M298.667,320H320v74.667h-21.333V320z"/>
	<path style="fill:#4C5B66;" d="M160,181.333h-21.333v53.205c0.578,5.377-3.312,10.205-8.689,10.783
		c-0.657,0.071-1.32,0.075-1.978,0.012H85.333v21.333H128c17.171,0.502,31.498-13.01,32-30.181c0.018-0.606,0.018-1.213,0-1.819
		V181.333z"/>
	<path style="fill:#4C5B66;" d="M42.667,245.333H64v21.333H42.667V245.333z"/>
	<path style="fill:#4C5B66;" d="M138.667,138.667H160V160h-21.333V138.667z"/>
	<path style="fill:#4C5B66;" d="M373.333,234.667v-53.333H352v53.333c-0.502,17.171,13.01,31.498,30.181,32
		c0.606,0.018,1.213,0.018,1.819,0h42.667v-21.333H384c-5.365,0.527-10.14-3.395-10.667-8.76
		C373.271,235.939,373.271,235.301,373.333,234.667z"/>
	<path style="fill:#4C5B66;" d="M448,245.333h21.333v21.333H448V245.333z"/>
	<path style="fill:#4C5B66;" d="M352,138.667h21.333V160H352V138.667z"/>
</g>
<g>
</g>
<g>
</g>
<g>
</g>
<g>
</g>
<g>
</g>
<g>
</g>
<g>
</g>
<g>
</g>
<g>
</g>
<g>
</g>
<g>
</g>
<g>
</g>
<g>
</g>
<g>
</g>
<g>
</g>
</svg>
