<?xml version="1.0" encoding="iso-8859-1"?>
<!-- Generator: Adobe Illustrator 19.0.0, SVG Export Plug-In . SVG Version: 6.00 Build 0)  -->
<svg version="1.1" id="Capa_1" xmlns="http://www.w3.org/2000/svg" xmlns:xlink="http://www.w3.org/1999/xlink" x="0px" y="0px"
	 viewBox="0 0 512 512" style="enable-background:new 0 0 512 512;" xml:space="preserve">
<path style="fill:#AAC4DA;" d="M426.667,96h-64c-11.768-0.035-21.298-9.566-21.333-21.333v-64L426.667,96z"/>
<path style="fill:#D9EEF7;" d="M426.667,96v384c-0.035,11.768-9.566,21.298-21.333,21.333H64
	c-11.767-0.035-21.298-9.566-21.333-21.333V32C42.702,20.233,52.233,10.702,64,10.667h277.333v64
	c0.035,11.767,9.566,21.298,21.333,21.333H426.667z"/>
<path style="fill:#AAC4DA;" d="M469.333,362.667v42.667H434.56c-2.019,7.699-5.069,15.091-9.067,21.973l24.533,24.533
	l-30.187,30.187l-24.533-24.533c-6.883,3.998-14.274,7.048-21.973,9.067v34.773h-42.667V466.56
	c-7.699-2.019-15.091-5.069-21.973-9.067l-24.533,24.533l-30.187-30.187l24.533-24.533c-3.998-6.883-7.048-14.274-9.067-21.973
	h-34.773v-42.667h34.773c2.019-7.699,5.069-15.091,9.067-21.973l-24.533-24.533l30.187-30.187l24.533,24.533
	c6.883-3.998,14.274-7.048,21.973-9.067v-34.773h42.667v34.773c7.699,2.019,15.091,5.069,21.973,9.067l24.533-24.533l30.187,30.187
	l-24.533,24.533c3.998,6.883,7.048,14.274,9.067,21.973H469.333z M384,384c0-17.673-14.327-32-32-32s-32,14.327-32,32
	s14.327,32,32,32S384,401.673,384,384z"/>
<circle style="fill:#F2F2F2;" cx="352" cy="384" r="32"/>
<circle style="fill:#FFE451;" cx="138.667" cy="298.667" r="32"/>
<g>
	<path style="fill:#4C5B66;" d="M96,64h106.667v21.333H96V64z"/>
	<path style="fill:#4C5B66;" d="M96,106.667h21.333V128H96V106.667z"/>
	<path style="fill:#4C5B66;" d="M138.667,106.667H160V128h-21.333V106.667z"/>
	<path style="fill:#4C5B66;" d="M53.333,480V32c0-5.891,4.776-10.667,10.667-10.667h266.667v53.333c0,17.673,14.327,32,32,32H384
		V85.333h-21.333c-5.891,0-10.667-4.776-10.667-10.667V36.416l64,64v134.251h21.333V96c-0.001-2.829-1.125-5.541-3.125-7.541
		L348.875,3.125c-2-2.001-4.713-3.125-7.541-3.125H64C46.327,0,32,14.327,32,32l0,0v448c0,17.673,14.327,32,32,32h181.333v-21.333
		H64C58.109,490.667,53.333,485.891,53.333,480z"/>
	<path style="fill:#4C5B66;" d="M149.333,426.667v-86.848c22.728-5.785,36.463-28.898,30.678-51.626
		c-3.836-15.072-15.606-26.842-30.678-30.678V192H128v65.515c-22.728,5.785-36.463,28.898-30.678,51.626
		c3.836,15.072,15.606,26.842,30.678,30.678v86.848H149.333z M117.333,298.667c0-11.782,9.551-21.333,21.333-21.333
		S160,286.885,160,298.667c0,11.782-9.551,21.333-21.333,21.333S117.333,310.449,117.333,298.667z"/>
	<path style="fill:#4C5B66;" d="M224,192h21.333v85.333H224V192z"/>
	<path style="fill:#4C5B66;" d="M320,192h21.333v42.667H320V192z"/>
	<path style="fill:#4C5B66;" d="M469.333,352h-26.901c-1.124-3.15-2.407-6.254-3.851-9.312l18.987-18.987
		c4.164-4.165,4.164-10.917,0-15.083l-30.187-30.187c-4.165-4.164-10.917-4.164-15.083,0l-18.987,18.987
		c-3.065-1.422-6.169-2.706-9.312-3.851v-26.901c0-5.891-4.776-10.667-10.667-10.667h-42.667c-5.891,0-10.667,4.776-10.667,10.667
		v26.901c-3.15,1.116-6.254,2.4-9.312,3.851l-18.987-18.987c-4.165-4.164-10.917-4.164-15.083,0l-30.187,30.187
		c-4.164,4.165-4.164,10.917,0,15.083l18.987,18.987c-1.422,3.065-2.706,6.169-3.851,9.312h-26.901
		c-5.891,0-10.667,4.776-10.667,10.667v42.667c0,5.891,4.776,10.667,10.667,10.667h26.901c1.116,3.15,2.4,6.254,3.851,9.312
		l-18.987,18.987c-4.164,4.165-4.164,10.917,0,15.083l30.187,30.187c4.165,4.164,10.917,4.164,15.083,0l18.987-18.987
		c3.065,1.422,6.169,2.706,9.312,3.851v26.901c0,5.891,4.776,10.667,10.667,10.667h42.667c5.891,0,10.667-4.776,10.667-10.667
		v-26.901c3.15-1.124,6.254-2.407,9.312-3.851l18.987,18.987c4.165,4.164,10.917,4.164,15.083,0l30.187-30.187
		c4.164-4.165,4.164-10.917,0-15.083l-18.987-18.987c1.422-3.065,2.706-6.169,3.851-9.312h26.901
		c5.891,0,10.667-4.776,10.667-10.667v-42.667C480,356.776,475.224,352,469.333,352L469.333,352z M458.667,394.667H434.56
		c-4.857-0.001-9.101,3.279-10.325,7.979c-1.775,6.773-4.459,13.275-7.979,19.328c-2.413,4.181-1.717,9.461,1.696,12.875
		l16.992,16.992l-15.104,15.104l-16.992-16.992c-3.413-3.413-8.694-4.109-12.875-1.696c-6.053,3.52-12.555,6.204-19.328,7.979
		c-4.7,1.224-7.98,5.468-7.979,10.325v24.107h-21.333V466.56c0.001-4.857-3.279-9.101-7.979-10.325
		c-6.773-1.775-13.275-4.459-19.328-7.979c-4.181-2.413-9.461-1.717-12.875,1.696l-16.992,16.992l-15.104-15.104l16.992-16.992
		c3.413-3.413,4.109-8.694,1.696-12.875c-3.52-6.053-6.204-12.555-7.979-19.328c-1.224-4.7-5.468-7.98-10.325-7.979h-24.107v-21.333
		h24.107c4.857,0.001,9.101-3.279,10.325-7.979c1.775-6.773,4.459-13.275,7.979-19.328c2.413-4.181,1.717-9.461-1.696-12.875
		l-16.992-16.992l15.104-15.104l16.992,16.992c3.413,3.414,8.694,4.109,12.875,1.696c6.053-3.52,12.555-6.204,19.328-7.979
		c4.7-1.224,7.98-5.468,7.979-10.325v-24.107h21.333v24.107c-0.001,4.857,3.279,9.101,7.979,10.325
		c6.773,1.775,13.275,4.459,19.328,7.979c4.181,2.413,9.461,1.717,12.875-1.696l16.992-16.992l15.104,15.104l-16.992,16.992
		c-3.413,3.413-4.109,8.694-1.696,12.875c3.52,6.053,6.204,12.555,7.979,19.328c1.224,4.7,5.468,7.98,10.325,7.979h24.107V394.667z"
		/>
	<path style="fill:#4C5B66;" d="M352,341.333c-23.564,0-42.667,19.103-42.667,42.667c0,23.564,19.103,42.667,42.667,42.667
		c23.564,0,42.667-19.103,42.667-42.667C394.667,360.436,375.564,341.333,352,341.333z M352,405.333
		c-11.782,0-21.333-9.551-21.333-21.333c0-11.782,9.551-21.333,21.333-21.333s21.333,9.551,21.333,21.333
		C373.333,395.782,363.782,405.333,352,405.333z"/>
</g>
<g>
</g>
<g>
</g>
<g>
</g>
<g>
</g>
<g>
</g>
<g>
</g>
<g>
</g>
<g>
</g>
<g>
</g>
<g>
</g>
<g>
</g>
<g>
</g>
<g>
</g>
<g>
</g>
<g>
</g>
</svg>
