<?xml version="1.0" encoding="iso-8859-1"?>
<!-- Generator: Adobe Illustrator 19.0.0, SVG Export Plug-In . SVG Version: 6.00 Build 0)  -->
<svg version="1.1" id="Capa_1" xmlns="http://www.w3.org/2000/svg" xmlns:xlink="http://www.w3.org/1999/xlink" x="0px" y="0px"
	 viewBox="0 0 512 512" style="enable-background:new 0 0 512 512;" xml:space="preserve">
<path style="fill:#D9EEF7;" d="M501.333,96v362.667c0,23.564-19.103,42.667-42.667,42.667H53.333
	c-23.564,0-42.667-19.103-42.667-42.667V96H501.333z"/>
<path style="fill:#FF7260;" d="M501.333,53.333V96H10.667V53.333c0-23.564,19.103-42.667,42.667-42.667h405.333
	C482.231,10.667,501.333,29.769,501.333,53.333z"/>
<circle style="fill:#F2F2F2;" cx="256" cy="298.667" r="53.333"/>
<path style="fill:#AAC4DA;" d="M405.333,277.333V320c0,5.891-4.776,10.667-10.667,10.667H357.76
	c-1.929,5.953-4.356,11.733-7.253,17.28l26.133,26.133c4.16,4.192,4.16,10.955,0,15.147l-30.08,30.08
	c-4.192,4.16-10.955,4.16-15.147,0l-26.133-26.133c-5.547,2.898-11.327,5.324-17.28,7.253v36.907
	c0,5.891-4.776,10.667-10.667,10.667h-42.667c-5.891,0-10.667-4.776-10.667-10.667v-36.907c-5.953-1.929-11.733-4.356-17.28-7.253
	l-26.133,26.133c-4.192,4.16-10.955,4.16-15.147,0l-30.08-30.08c-4.16-4.192-4.16-10.955,0-15.147l26.133-26.133
	c-2.898-5.547-5.324-11.327-7.253-17.28h-36.907c-5.891,0-10.667-4.776-10.667-10.667v-42.667c0-5.891,4.776-10.667,10.667-10.667
	h36.907c1.929-5.953,4.356-11.733,7.253-17.28l-26.133-26.133c-4.16-4.192-4.16-10.955,0-15.147l30.08-30.08
	c4.192-4.16,10.955-4.16,15.147,0l26.133,26.133c5.547-2.898,11.327-5.324,17.28-7.253V160c0-5.891,4.776-10.667,10.667-10.667
	h42.667c5.891,0,10.667,4.776,10.667,10.667v36.907c5.953,1.929,11.733,4.356,17.28,7.253l26.133-26.133
	c4.192-4.16,10.955-4.16,15.147,0l30.08,30.08c4.16,4.192,4.16,10.955,0,15.147l-26.133,26.133
	c2.898,5.547,5.324,11.327,7.253,17.28h36.907C400.558,266.667,405.333,271.442,405.333,277.333L405.333,277.333z M309.333,298.667
	c0-29.455-23.878-53.333-53.333-53.333c-29.455,0-53.333,23.878-53.333,53.333C202.667,328.122,226.545,352,256,352
	C285.455,352,309.333,328.122,309.333,298.667z"/>
<g>
	<path style="fill:#4C5B66;" d="M458.667,0H53.333C23.893,0.035,0.035,23.893,0,53.333v405.333
		C0.035,488.107,23.893,511.965,53.333,512h405.333c29.441-0.035,53.298-23.893,53.333-53.333V53.333
		C511.965,23.893,488.107,0.035,458.667,0z M490.667,458.667c0,17.673-14.327,32-32,32H53.333c-17.673,0-32-14.327-32-32V53.333
		c0-17.673,14.327-32,32-32h405.333c17.673,0,32,14.327,32,32V458.667z"/>
	<path style="fill:#4C5B66;" d="M42.667,85.333h426.667v21.333H42.667V85.333z"/>
	<path style="fill:#4C5B66;" d="M53.333,42.667h21.333V64H53.333V42.667z"/>
	<path style="fill:#4C5B66;" d="M96,42.667h21.333V64H96V42.667z"/>
	<path style="fill:#4C5B66;" d="M437.333,42.667h21.333V64h-21.333V42.667z"/>
	<path style="fill:#4C5B66;" d="M416,277.333c0-11.782-9.551-21.333-21.333-21.333h-29.419c-0.576-1.472-1.205-2.944-1.856-4.416
		l20.789-20.789c8.249-8.388,8.249-21.841,0-30.229l-30.176-30.176c-8.398-8.171-21.787-8.128-30.133,0.096l-20.789,20.789
		c-1.472-0.647-2.944-1.266-4.416-1.856V160c0-11.782-9.551-21.333-21.333-21.333h-42.667c-11.782,0-21.333,9.551-21.333,21.333
		v29.419c-1.472,0.583-2.944,1.202-4.416,1.856l-20.789-20.789c-8.388-8.249-21.841-8.249-30.229,0l-30.176,30.176
		c-8.176,8.396-8.134,21.79,0.096,30.133l20.789,20.789c-0.647,1.472-1.266,2.944-1.856,4.416h-29.419
		C105.551,256,96,265.551,96,277.333V320c0,11.782,9.551,21.333,21.333,21.333h29.419c0.59,1.472,1.209,2.944,1.856,4.416
		l-20.789,20.789c-8.249,8.388-8.249,21.841,0,30.229l30.176,30.176c8.398,8.171,21.787,8.128,30.133-0.096l20.789-20.789
		c1.472,0.651,2.944,1.28,4.416,1.856v29.419c0,11.782,9.551,21.333,21.333,21.333h42.667c11.782,0,21.333-9.551,21.333-21.333
		v-29.419c1.472-0.576,2.944-1.205,4.416-1.856l20.789,20.789c8.388,8.249,21.841,8.249,30.229,0l30.176-30.176
		c8.176-8.396,8.134-21.79-0.096-30.133l-20.789-20.789c0.651-1.472,1.28-2.944,1.856-4.416h29.419
		c11.782,0,21.333-9.551,21.333-21.333V277.333z M394.667,320H357.76c-4.633,0-8.737,2.992-10.155,7.403
		c-1.748,5.384-3.946,10.611-6.571,15.627c-2.142,4.13-1.361,9.171,1.931,12.459l26.133,26.197l-30.144,30.048L312.821,385.6
		c-3.288-3.292-8.329-4.073-12.459-1.931c-5.015,2.625-10.243,4.823-15.627,6.571c-4.422,1.421-7.416,5.541-7.403,10.187v36.907
		h-42.667v-36.907c0-4.633-2.992-8.737-7.403-10.155c-5.384-1.748-10.611-3.946-15.627-6.571c-4.13-2.142-9.171-1.361-12.459,1.931
		l-26.197,26.101l-30.048-30.112l26.133-26.133c3.292-3.288,4.073-8.329,1.931-12.459c-2.625-5.015-4.823-10.243-6.571-15.627
		c-1.421-4.422-5.541-7.416-10.187-7.403h-36.907v-42.667h36.907c4.633,0,8.737-2.991,10.155-7.403
		c1.748-5.384,3.946-10.611,6.571-15.627c2.142-4.13,1.361-9.171-1.931-12.459l-26.101-26.197l30.144-30.08l26.133,26.133
		c3.288,3.292,8.329,4.073,12.459,1.931c5.015-2.625,10.243-4.823,15.627-6.571c4.398-1.429,7.375-5.53,7.371-10.155V160h42.667
		v36.907c0,4.633,2.991,8.737,7.403,10.155c5.384,1.748,10.611,3.946,15.627,6.571c4.13,2.142,9.171,1.361,12.459-1.931
		l26.197-26.133l30.08,30.144l-26.133,26.133c-3.292,3.288-4.073,8.329-1.931,12.459c2.625,5.015,4.823,10.243,6.571,15.627
		c1.418,4.411,5.521,7.403,10.155,7.403h36.907L394.667,320z"/>
	<path style="fill:#4C5B66;" d="M256,234.667c-35.346,0-64,28.654-64,64s28.654,64,64,64s64-28.654,64-64
		C319.965,263.335,291.332,234.702,256,234.667z M256,341.333c-23.564,0-42.667-19.103-42.667-42.667S232.436,256,256,256
		s42.667,19.103,42.667,42.667S279.564,341.333,256,341.333z"/>
	<path style="fill:#4C5B66;" d="M96,128H53.333c-5.891,0-10.667,4.776-10.667,10.667v42.667H64v-32h32V128z"/>
	<path style="fill:#4C5B66;" d="M448,448h-32v21.333h42.667c5.891,0,10.667-4.776,10.667-10.667V416H448V448z"/>
</g>
<g>
</g>
<g>
</g>
<g>
</g>
<g>
</g>
<g>
</g>
<g>
</g>
<g>
</g>
<g>
</g>
<g>
</g>
<g>
</g>
<g>
</g>
<g>
</g>
<g>
</g>
<g>
</g>
<g>
</g>
</svg>
