<?xml version="1.0" encoding="iso-8859-1"?>
<!-- Generator: Adobe Illustrator 19.0.0, SVG Export Plug-In . SVG Version: 6.00 Build 0)  -->
<svg version="1.1" id="Capa_1" xmlns="http://www.w3.org/2000/svg" xmlns:xlink="http://www.w3.org/1999/xlink" x="0px" y="0px"
	 viewBox="0 0 512 512" style="enable-background:new 0 0 512 512;" xml:space="preserve">
<g>
	<path style="fill:#AAC4DA;" d="M74.667,373.333h64v64h-64V373.333z"/>
	<path style="fill:#AAC4DA;" d="M330.667,170.667v42.667c0,5.891-4.776,10.667-10.667,10.667H192
		c-5.891,0-10.667-4.776-10.667-10.667v-42.667H330.667z"/>
</g>
<path style="fill:#F2F2F2;" d="M330.667,42.667v128H181.333v-128v-32h149.333V42.667z"/>
<path style="fill:#FFE451;" d="M501.333,277.333v181.333c0,42.667-42.667,42.667-42.667,42.667H53.333
	c-23.564,0-42.667-19.103-42.667-42.667V53.333c0-23.564,19.103-42.667,42.667-42.667h128v202.667
	c0,5.891,4.776,10.667,10.667,10.667h128c5.891,0,10.667-4.776,10.667-10.667V10.667h128c23.564,0,42.667,19.103,42.667,42.667
	V277.333z M138.667,437.333v-64h-64v64H138.667z"/>
<circle style="fill:#95ADC0;" cx="384" cy="384" r="32"/>
<path style="fill:#D9EEF7;" d="M501.333,362.667v42.667H466.56c-2.019,7.699-5.069,15.091-9.067,21.973l24.533,24.533
	l-30.187,30.187l-24.533-24.533c-6.883,3.998-14.274,7.048-21.973,9.067v34.773h-42.667V466.56
	c-7.699-2.019-15.091-5.069-21.973-9.067l-24.533,24.533l-30.187-30.187l24.533-24.533c-3.998-6.883-7.048-14.274-9.067-21.973
	h-34.773v-42.667h34.773c2.019-7.699,5.069-15.091,9.067-21.973l-24.533-24.533l30.187-30.187l24.533,24.533
	c6.883-3.998,14.274-7.048,21.973-9.067v-34.773h42.667v34.773c7.699,2.019,15.091,5.069,21.973,9.067l24.533-24.533l30.187,30.187
	l-24.533,24.533c3.998,6.883,7.048,14.274,9.067,21.973H501.333z M416,384c0-17.673-14.327-32-32-32s-32,14.327-32,32
	s14.327,32,32,32S416,401.673,416,384z"/>
<g>
	<path style="fill:#4C5B66;" d="M458.667,0H53.333C23.893,0.035,0.035,23.893,0,53.333v405.333
		C0.035,488.107,23.893,511.965,53.333,512H288v-21.333H53.333c-17.673,0-32-14.327-32-32V53.333c0-17.673,14.327-32,32-32h405.333
		c17.673,0,32,14.327,32,32v224H512v-224C511.965,23.893,488.107,0.035,458.667,0z"/>
	<path style="fill:#4C5B66;" d="M341.333,213.333V42.667H320V160H192V42.667h-21.333v170.667c0,11.782,9.551,21.333,21.333,21.333
		h128C331.782,234.667,341.333,225.115,341.333,213.333z M192,181.333h128v32H192V181.333z"/>
	<path style="fill:#4C5B66;" d="M74.667,362.667c-5.891,0-10.667,4.776-10.667,10.667v64C64,443.224,68.776,448,74.667,448h64
		c5.891,0,10.667-4.776,10.667-10.667v-64c0-5.891-4.776-10.667-10.667-10.667H74.667z M128,426.667H85.333V384H128V426.667z"/>
	<path style="fill:#4C5B66;" d="M181.333,373.333H224v21.333h-42.667V373.333z"/>
	<path style="fill:#4C5B66;" d="M181.333,416h21.333v21.333h-21.333V416z"/>
	<path style="fill:#4C5B66;" d="M224,416h21.333v21.333H224V416z"/>
	<path style="fill:#4C5B66;" d="M501.333,352h-26.901c-1.127-3.163-2.412-6.267-3.851-9.301l18.987-18.997
		c4.164-4.165,4.164-10.917,0-15.083l-30.187-30.187c-4.165-4.164-10.917-4.164-15.083,0l-18.997,18.987
		c-3.034-1.438-6.139-2.723-9.301-3.851v-26.901c0-5.891-4.776-10.667-10.667-10.667h-42.667c-5.891,0-10.667,4.776-10.667,10.667
		v26.901c-3.163,1.127-6.267,2.412-9.301,3.851L323.701,278.4c-4.165-4.164-10.917-4.164-15.083,0l-30.187,30.187
		c-4.164,4.165-4.164,10.917,0,15.083l18.987,18.997c-1.438,3.034-2.723,6.139-3.851,9.301h-26.901
		c-5.891,0-10.667,4.776-10.667,10.667v42.667c0,5.891,4.776,10.667,10.667,10.667h26.901c1.127,3.163,2.412,6.267,3.851,9.301
		L278.4,444.299c-4.164,4.165-4.164,10.917,0,15.083l30.187,30.187c4.165,4.164,10.917,4.164,15.083,0l18.997-18.987
		c3.034,1.438,6.139,2.723,9.301,3.851v26.901c0,5.891,4.776,10.667,10.667,10.667h42.667c5.891,0,10.667-4.776,10.667-10.667
		v-26.901c3.163-1.127,6.267-2.412,9.301-3.851l18.997,18.987c4.165,4.164,10.917,4.164,15.083,0l30.187-30.187
		c4.164-4.165,4.164-10.917,0-15.083l-18.987-18.997c1.449-3.034,2.745-6.138,3.883-9.301h26.901
		c5.891,0,10.667-4.776,10.667-10.667v-42.667C512,356.776,507.224,352,501.333,352L501.333,352z M490.667,394.667H466.56
		c-4.857-0.001-9.101,3.279-10.325,7.979c-1.783,6.767-4.466,13.264-7.979,19.317c-2.419,4.183-1.723,9.47,1.696,12.885
		l16.992,16.992l-15.104,15.104l-16.992-16.992c-3.415-3.419-8.702-4.115-12.885-1.696c-6.053,3.512-12.55,6.196-19.317,7.979
		c-4.7,1.224-7.98,5.468-7.979,10.325v24.107h-21.333V466.56c0.001-4.857-3.279-9.101-7.979-10.325
		c-6.767-1.783-13.264-4.466-19.317-7.979c-4.183-2.419-9.47-1.723-12.885,1.696l-16.992,16.992l-15.104-15.104l16.992-16.992
		c3.419-3.415,4.115-8.702,1.696-12.885c-3.512-6.053-6.196-12.55-7.979-19.317c-1.224-4.7-5.468-7.98-10.325-7.979h-24.107v-21.333
		h24.107c4.857,0.001,9.101-3.279,10.325-7.979c1.783-6.767,4.466-13.264,7.979-19.317c2.419-4.183,1.723-9.47-1.696-12.885
		l-16.992-16.992l15.104-15.104l16.992,16.992c3.415,3.419,8.702,4.115,12.885,1.696c6.053-3.512,12.55-6.196,19.317-7.979
		c4.7-1.224,7.98-5.468,7.979-10.325v-24.107h21.333v24.107c-0.001,4.857,3.279,9.101,7.979,10.325
		c6.767,1.783,13.264,4.466,19.317,7.979c4.183,2.419,9.47,1.723,12.885-1.696l16.992-16.992l15.104,15.104l-16.992,16.992
		c-3.419,3.415-4.115,8.702-1.696,12.885c3.512,6.053,6.196,12.55,7.979,19.317c1.224,4.7,5.468,7.98,10.325,7.979h24.107V394.667z"
		/>
	<path style="fill:#4C5B66;" d="M384,341.333c-23.564,0-42.667,19.103-42.667,42.667c0,23.564,19.102,42.667,42.667,42.667
		s42.667-19.103,42.667-42.667C426.667,360.436,407.564,341.333,384,341.333z M384,405.333c-11.782,0-21.333-9.551-21.333-21.333
		c0-11.782,9.551-21.333,21.333-21.333s21.333,9.551,21.333,21.333C405.333,395.782,395.782,405.333,384,405.333z"/>
</g>
<g>
</g>
<g>
</g>
<g>
</g>
<g>
</g>
<g>
</g>
<g>
</g>
<g>
</g>
<g>
</g>
<g>
</g>
<g>
</g>
<g>
</g>
<g>
</g>
<g>
</g>
<g>
</g>
<g>
</g>
</svg>
