<?xml version="1.0" encoding="iso-8859-1"?>
<!-- Generator: Adobe Illustrator 19.0.0, SVG Export Plug-In . SVG Version: 6.00 Build 0)  -->
<svg version="1.1" id="Capa_1" xmlns="http://www.w3.org/2000/svg" xmlns:xlink="http://www.w3.org/1999/xlink" x="0px" y="0px"
	 viewBox="0 0 512 512" style="enable-background:new 0 0 512 512;" xml:space="preserve">
<path style="fill:#AAC4DA;" d="M394.667,96h-64c-11.767-0.035-21.298-9.566-21.333-21.333v-64L394.667,96z"/>
<path style="fill:#D9EEF7;" d="M394.667,96v384c-0.035,11.768-9.566,21.298-21.333,21.333H32
	c-11.767-0.035-21.298-9.566-21.333-21.333V32C10.702,20.233,20.233,10.702,32,10.667h277.333v64
	c0.035,11.767,9.566,21.298,21.333,21.333H394.667z"/>
<path style="fill:#95ADC0;" d="M309.334,469.333h64c0,17.673-14.327,32-32,32S309.334,487.006,309.334,469.333z"/>
<path style="fill:#FFC451;" d="M490.667,426.667l10.667,42.667h-128h-64h-128L192,426.667h32h202.667h32H490.667z"/>
<path style="fill:#FFE451;" d="M458.667,288v138.667H224V288c0-35.346,28.654-64,64-64h21.333c0-17.673,14.327-32,32-32
	s32,14.327,32,32h21.333C430.013,224,458.667,252.654,458.667,288z"/>
<g>
	<path style="fill:#F2F2F2;" d="M74.667,384h42.667v42.667H74.667V384z"/>
	<path style="fill:#F2F2F2;" d="M74.667,277.333h42.667V320H74.667V277.333z"/>
	<path style="fill:#F2F2F2;" d="M74.667,170.667h42.667v42.667H74.667V170.667z"/>
</g>
<g>
	<path style="fill:#4C5B66;" d="M64,64h106.667v21.333H64V64z"/>
	<path style="fill:#4C5B66;" d="M64,106.667h21.333V128H64V106.667z"/>
	<path style="fill:#4C5B66;" d="M106.667,106.667H128V128h-21.333V106.667z"/>
	<path style="fill:#4C5B66;" d="M21.334,480V32c0-5.891,4.776-10.667,10.667-10.667h266.667v53.333c0,17.673,14.327,32,32,32H352
		V85.333h-21.333c-5.891,0-10.667-4.776-10.667-10.667V36.416l64,64v70.251h21.333V96c-0.001-2.829-1.125-5.541-3.125-7.541
		L316.875,3.125c-2-2.001-4.713-3.125-7.541-3.125H32C14.327,0,0,14.327,0,32l0,0v448c0,17.673,14.327,32,32,32h117.333v-21.333H32
		C26.109,490.667,21.334,485.891,21.334,480z"/>
	<path style="fill:#4C5B66;" d="M511.68,466.741l-10.667-42.667c-1.189-4.746-5.454-8.075-10.347-8.075h-21.333V288
		c-0.047-41.218-33.449-74.62-74.667-74.667h-12.011c-5.868-22.822-29.125-36.566-51.947-30.698
		c-15.063,3.873-26.825,15.635-30.698,30.698H288c-41.218,0.047-74.62,33.449-74.667,74.667v128H192
		c-4.893,0-9.158,3.329-10.347,8.075l-10.667,42.667c-1.432,5.714,2.04,11.507,7.755,12.939c0.848,0.212,1.718,0.32,2.592,0.32
		h118.848c5.785,22.728,28.898,36.463,51.626,30.678c15.073-3.836,26.842-15.606,30.678-30.678h118.848
		c5.891,0,10.667-4.776,10.666-10.667C512,468.459,511.893,467.589,511.68,466.741z M341.334,490.667
		c-7.587-0.023-14.588-4.088-18.368-10.667h36.736C355.921,486.579,348.921,490.644,341.334,490.667z M194.998,458.667l5.333-21.333
		h226.336V416h-192V288c0.035-29.441,23.893-53.298,53.333-53.333h21.333c5.891,0,10.667-4.776,10.667-10.667
		c0-11.782,9.551-21.333,21.333-21.333s21.333,9.551,21.333,21.333c0,5.891,4.776,10.667,10.667,10.667h21.333
		C424.107,234.702,447.965,258.559,448,288v138.667c0,5.891,4.776,10.667,10.667,10.667h23.669l5.333,21.333H194.998z"/>
	<path style="fill:#4C5B66;" d="M256,309.333h21.333c-0.89-16.784,11.995-31.11,28.779-32c1.073-0.057,2.148-0.057,3.221,0V256
		c-28.38-1.075-52.258,21.061-53.333,49.441C255.951,306.738,255.951,308.036,256,309.333z"/>
	<path style="fill:#4C5B66;" d="M128,170.667c0-5.891-4.776-10.667-10.667-10.667H74.667C68.776,160,64,164.776,64,170.667v42.667
		C64,219.224,68.776,224,74.667,224h42.667c5.891,0,10.667-4.776,10.667-10.667V170.667z M106.667,202.667H85.334v-21.333h21.333
		V202.667z"/>
	<path style="fill:#4C5B66;" d="M128,277.333c0-5.891-4.776-10.667-10.667-10.667H74.667c-5.891,0-10.667,4.776-10.667,10.667V320
		c0,5.891,4.776,10.667,10.667,10.667h42.667c5.891,0,10.667-4.776,10.667-10.667V277.333z M106.667,309.333H85.334V288h21.333
		V309.333z"/>
	<path style="fill:#4C5B66;" d="M117.334,373.333H74.667C68.776,373.333,64,378.109,64,384v42.667
		c0,5.891,4.776,10.667,10.667,10.667h42.667c5.891,0,10.667-4.776,10.667-10.667V384C128,378.109,123.225,373.333,117.334,373.333z
		 M106.667,416H85.334v-21.333h21.333V416z"/>
	<path style="fill:#4C5B66;" d="M149.334,160H256v21.333H149.334V160z"/>
	<path style="fill:#4C5B66;" d="M149.334,202.667H192V224h-42.667V202.667z"/>
	<path style="fill:#4C5B66;" d="M149.334,266.667h21.333V288h-21.333V266.667z"/>
	<path style="fill:#4C5B66;" d="M149.334,309.333H192v21.333h-42.667V309.333z"/>
	<path style="fill:#4C5B66;" d="M149.334,373.333h21.333v21.333h-21.333V373.333z"/>
</g>
<g>
</g>
<g>
</g>
<g>
</g>
<g>
</g>
<g>
</g>
<g>
</g>
<g>
</g>
<g>
</g>
<g>
</g>
<g>
</g>
<g>
</g>
<g>
</g>
<g>
</g>
<g>
</g>
<g>
</g>
</svg>
