<?xml version="1.0" encoding="iso-8859-1"?>
<!-- Generator: Adobe Illustrator 19.0.0, SVG Export Plug-In . SVG Version: 6.00 Build 0)  -->
<svg version="1.1" id="Capa_1" xmlns="http://www.w3.org/2000/svg" xmlns:xlink="http://www.w3.org/1999/xlink" x="0px" y="0px"
	 viewBox="0 0 512 512" style="enable-background:new 0 0 512 512;" xml:space="preserve">
<g>
	<path style="fill:#D9EEF7;" d="M256,256h245.333c0,135.494-109.839,245.333-245.333,245.333S10.667,391.494,10.667,256H256z"/>
	<path style="fill:#D9EEF7;" d="M362.667,256H149.333c0-58.91,47.756-106.667,106.667-106.667S362.667,197.09,362.667,256z"/>
</g>
<path style="fill:#AAC4DA;" d="M501.333,234.667V256H362.667c0-58.91-47.756-106.667-106.667-106.667S149.333,197.09,149.333,256
	H10.667v-42.667c0-5.891,4.776-10.667,10.667-10.667H71.68c3.893-13.693,9.332-26.898,16.213-39.36l-35.52-35.52
	c-4.16-4.192-4.16-10.955,0-15.147l60.267-60.267c4.192-4.16,10.955-4.16,15.147,0l35.52,35.52
	c12.462-6.881,25.667-12.32,39.36-16.213V21.333c0-5.891,4.776-10.667,10.667-10.667h85.333c5.891,0,10.667,4.776,10.667,10.667
	V71.68c13.693,3.893,26.898,9.332,39.36,16.213l35.52-35.52c4.192-4.16,10.955-4.16,15.147,0l60.267,60.267
	c4.16,4.192,4.16,10.955,0,15.147l-35.52,35.52c6.881,12.462,12.321,25.667,16.213,39.36h50.347c5.891,0,10.667,4.776,10.667,10.667
	L501.333,234.667z"/>
<g>
	<path style="fill:#4C5B66;" d="M256,490.667C126.458,490.52,21.48,385.542,21.333,256H0c0,141.385,114.615,256,256,256
		s256-114.615,256-256h-21.333C490.52,385.542,385.542,490.52,256,490.667z"/>
	<path style="fill:#4C5B66;" d="M490.667,192h-42.453c-3.022-9.144-6.705-18.056-11.019-26.667l29.973-29.963
		c8.256-8.39,8.256-21.85,0-30.24l-60.352-60.395c-8.404-8.166-21.792-8.123-30.144,0.096l-30.005,29.973
		c-8.613-4.304-17.525-7.983-26.667-11.008V21.333C320,9.551,310.449,0,298.667,0h-85.333C201.551,0,192,9.551,192,21.333v42.464
		c-9.142,3.025-18.053,6.704-26.667,11.008L135.339,44.8c-8.394-8.244-21.846-8.244-30.24,0l-60.363,60.384
		c-8.192,8.388-8.164,21.79,0.064,30.144l29.973,29.973c-4.304,8.622-7.976,17.545-10.987,26.699H21.333
		C9.551,192,0,201.551,0,213.333v21.333h21.333v-21.333H71.68c4.766,0.001,8.955-3.16,10.261-7.744
		c3.677-12.914,8.805-25.37,15.285-37.131c2.295-4.158,1.565-9.333-1.792-12.693l-35.52-35.584l60.331-60.267l35.52,35.52
		c3.358,3.36,8.533,4.095,12.693,1.803c11.756-6.485,24.208-11.617,37.12-15.296c4.588-1.302,7.755-5.492,7.755-10.261V21.333
		h85.333V71.68c0,4.769,3.166,8.959,7.755,10.261c12.912,3.679,25.364,8.811,37.12,15.296c4.16,2.293,9.336,1.558,12.693-1.803
		l35.584-35.52l60.267,60.331l-35.52,35.52c-3.357,3.36-4.087,8.535-1.792,12.693c6.48,11.76,11.608,24.217,15.285,37.131
		c1.306,4.584,5.495,7.745,10.261,7.744h50.347v21.333H512v-21.333C512,201.551,502.449,192,490.667,192L490.667,192z"/>
	<path style="fill:#4C5B66;" d="M256,138.667C191.23,138.743,138.743,191.23,138.667,256H160c0-53.019,42.981-96,96-96
		s96,42.981,96,96h21.333C373.257,191.23,320.77,138.743,256,138.667z"/>
	<path style="fill:#4C5B66;" d="M426.667,309.333V288h-160v-32h-21.333v202.667h21.333V416h96v-21.333h-96v-32h128v-21.333h-128v-32
		H426.667z"/>
	<path style="fill:#4C5B66;" d="M192,298.667h21.333V320H192V298.667z"/>
	<path style="fill:#4C5B66;" d="M149.333,298.667h21.333V320h-21.333V298.667z"/>
	<path style="fill:#4C5B66;" d="M106.667,341.333h106.667v21.333H106.667V341.333z"/>
</g>
<g>
</g>
<g>
</g>
<g>
</g>
<g>
</g>
<g>
</g>
<g>
</g>
<g>
</g>
<g>
</g>
<g>
</g>
<g>
</g>
<g>
</g>
<g>
</g>
<g>
</g>
<g>
</g>
<g>
</g>
</svg>
