<?xml version="1.0" encoding="iso-8859-1"?>
<!-- Generator: Adobe Illustrator 19.0.0, SVG Export Plug-In . SVG Version: 6.00 Build 0)  -->
<svg version="1.1" id="Capa_1" xmlns="http://www.w3.org/2000/svg" xmlns:xlink="http://www.w3.org/1999/xlink" x="0px" y="0px"
	 viewBox="0 0 512 512" style="enable-background:new 0 0 512 512;" xml:space="preserve">
<path style="fill:#95ADC0;" d="M362.667,458.667v32c0,5.891-4.776,10.667-10.667,10.667H160c-5.891,0-10.667-4.776-10.667-10.667
	v-32H362.667z"/>
<path style="fill:#D9EEF7;" d="M320,373.333l10.667,85.333H181.333L192,373.333H320z"/>
<path style="fill:#69F0F7;" d="M448,256v32H64v-32V64h384V256z"/>
<path style="fill:#D9EEF7;" d="M501.333,32v256H448V64H64v224H10.667V32C10.702,20.233,20.233,10.702,32,10.667h448
	C491.768,10.702,501.298,20.233,501.333,32z"/>
<path style="fill:#AAC4DA;" d="M501.333,288v64c-0.035,11.767-9.566,21.298-21.333,21.333H32
	c-11.767-0.035-21.298-9.566-21.333-21.333v-64H501.333z"/>
<g>
	<path style="fill:#F2F2F2;" d="M106.667,106.667h106.667v42.667H106.667V106.667z"/>
	<circle style="fill:#F2F2F2;" cx="384" cy="128" r="32"/>
</g>
<path style="fill:#AAC4DA;" d="M501.333,106.667v42.667H466.56c-2.019,7.699-5.069,15.091-9.067,21.973l24.533,24.533
	l-30.187,30.187l-24.533-24.533c-6.883,3.998-14.274,7.048-21.973,9.067v34.773h-42.667V210.56
	c-7.699-2.019-15.091-5.069-21.973-9.067l-24.533,24.533l-30.187-30.187l24.533-24.533c-3.998-6.883-7.048-14.274-9.067-21.973
	h-34.773v-42.667h34.773c2.019-7.699,5.069-15.091,9.067-21.973L285.973,60.16l30.187-30.187l24.533,24.533
	c6.883-3.998,14.274-7.048,21.973-9.067V10.667h42.667V45.44c7.699,2.019,15.091,5.069,21.973,9.067l24.533-24.533l30.187,30.187
	l-24.533,24.533c3.998,6.883,7.048,14.274,9.067,21.973H501.333z M416,128c0-17.673-14.327-32-32-32s-32,14.327-32,32
	s14.327,32,32,32S416,145.673,416,128z"/>
<g>
	<path style="fill:#4C5B66;" d="M42.667,288h426.667v21.333H42.667V288z"/>
	<path style="fill:#4C5B66;" d="M490.667,352c0,5.891-4.776,10.667-10.667,10.667H32c-5.891,0-10.667-4.776-10.667-10.667V32
		c0-5.891,4.776-10.667,10.667-10.667h245.333V0H32C14.327,0,0,14.327,0,32v320c0,17.673,14.327,32,32,32h147.915l-8,64h-22.581
		c-5.891,0-10.667,4.776-10.667,10.667v32h-21.333V512h277.333v-21.333h-21.333v-32c0-5.891-4.776-10.667-10.667-10.667h-22.581
		l-8-64H480c17.673,0,32-14.327,32-32V234.667h-21.333V352z M352,490.667H160v-21.333h192V490.667z M318.581,448H193.419l8-64
		h109.163L318.581,448z"/>
	<path style="fill:#4C5B66;" d="M53.333,64v202.667h21.333v-192h170.667V53.333H64C58.109,53.333,53.333,58.109,53.333,64z"/>
	<path style="fill:#4C5B66;" d="M501.333,96h-26.901c-1.12-3.147-2.411-6.261-3.851-9.312l18.987-18.987
		c4.164-4.165,4.164-10.917,0-15.083L459.381,22.4c-4.165-4.164-10.917-4.164-15.083,0l-18.997,18.987
		c-3.035-1.427-6.139-2.702-9.301-3.819V10.667C416,4.776,411.224,0,405.333,0h-42.667C356.776,0,352,4.776,352,10.667v26.901
		c-3.163,1.127-6.267,2.412-9.301,3.851L323.701,22.4c-4.165-4.164-10.917-4.164-15.083,0L278.4,52.619
		c-4.164,4.165-4.164,10.917,0,15.083l18.987,18.987c-1.44,3.051-2.731,6.165-3.851,9.312h-26.869
		C260.776,96,256,100.776,256,106.667v42.667c0,5.891,4.776,10.667,10.667,10.667h26.901c1.12,3.147,2.411,6.261,3.851,9.312
		l-18.987,18.987c-4.164,4.165-4.164,10.917,0,15.083l30.187,30.187c4.165,4.164,10.917,4.164,15.083,0l18.997-18.987
		c3.034,1.438,6.138,2.723,9.301,3.851v26.901c0,5.891,4.776,10.667,10.667,10.667h42.667c5.891,0,10.667-4.776,10.667-10.667
		v-26.901c3.163-1.127,6.267-2.412,9.301-3.851l18.997,18.987c4.165,4.164,10.917,4.164,15.083,0l30.187-30.187
		c4.164-4.165,4.164-10.917,0-15.083l-18.987-18.987c1.44-3.051,2.731-6.165,3.851-9.312h26.901c5.891,0,10.667-4.776,10.667-10.667
		v-42.667C512,100.776,507.224,96,501.333,96L501.333,96z M490.667,138.667H466.56c-4.857-0.001-9.101,3.279-10.325,7.979
		c-1.785,6.77-4.468,13.271-7.979,19.328c-2.413,4.181-1.717,9.461,1.696,12.875l16.992,16.992l-15.104,15.104l-16.992-16.992
		c-3.413-3.413-8.694-4.109-12.875-1.696c-6.055,3.516-12.556,6.2-19.328,7.979c-4.7,1.224-7.98,5.468-7.979,10.325v24.107h-21.333
		V210.56c0.001-4.857-3.279-9.101-7.979-10.325c-6.772-1.778-13.273-4.462-19.328-7.979c-4.181-2.413-9.461-1.717-12.875,1.696
		l-16.992,16.992l-15.104-15.104l16.992-16.992c3.414-3.413,4.109-8.694,1.696-12.875c-3.511-6.057-6.194-12.558-7.979-19.328
		c-1.224-4.7-5.468-7.98-10.325-7.979h-24.107v-21.333h24.107c4.857,0.001,9.101-3.279,10.325-7.979
		c1.784-6.77,4.468-13.271,7.979-19.328c2.413-4.181,1.717-9.461-1.696-12.875L301.056,60.16l15.104-15.104l16.992,16.992
		c3.413,3.413,8.694,4.109,12.875,1.696c6.055-3.516,12.556-6.2,19.328-7.979c4.7-1.224,7.98-5.468,7.979-10.325V21.333h21.333
		V45.44c-0.001,4.857,3.279,9.101,7.979,10.325c6.772,1.778,13.273,4.462,19.328,7.979c4.181,2.413,9.461,1.717,12.875-1.696
		l16.992-16.992l15.104,15.104l-16.992,16.992c-3.413,3.413-4.109,8.694-1.696,12.875c3.511,6.057,6.194,12.558,7.979,19.328
		c1.224,4.7,5.468,7.98,10.325,7.979h24.107V138.667z"/>
	<path style="fill:#4C5B66;" d="M384,85.333c-23.564,0-42.667,19.103-42.667,42.667s19.103,42.667,42.667,42.667
		c23.564,0,42.667-19.103,42.667-42.667S407.564,85.333,384,85.333z M384,149.333c-11.782,0-21.333-9.551-21.333-21.333
		s9.551-21.333,21.333-21.333c11.782,0,21.333,9.551,21.333,21.333S395.782,149.333,384,149.333z"/>
	<path style="fill:#4C5B66;" d="M224,149.333v-42.667C224,100.776,219.224,96,213.333,96H106.667C100.776,96,96,100.776,96,106.667
		v42.667c0,5.891,4.776,10.667,10.667,10.667h106.667C219.224,160,224,155.224,224,149.333z M202.667,138.667h-85.333v-21.333
		h85.333V138.667z"/>
	<path style="fill:#4C5B66;" d="M96,181.333h21.333v21.333H96V181.333z"/>
	<path style="fill:#4C5B66;" d="M138.667,181.333H160v21.333h-21.333V181.333z"/>
	<path style="fill:#4C5B66;" d="M96,224h128v21.333H96V224z"/>
</g>
<g>
</g>
<g>
</g>
<g>
</g>
<g>
</g>
<g>
</g>
<g>
</g>
<g>
</g>
<g>
</g>
<g>
</g>
<g>
</g>
<g>
</g>
<g>
</g>
<g>
</g>
<g>
</g>
<g>
</g>
</svg>
