<?xml version="1.0" encoding="iso-8859-1"?>
<!-- Generator: Adobe Illustrator 19.0.0, SVG Export Plug-In . SVG Version: 6.00 Build 0)  -->
<svg version="1.1" id="Capa_1" xmlns="http://www.w3.org/2000/svg" xmlns:xlink="http://www.w3.org/1999/xlink" x="0px" y="0px"
	 viewBox="0 0 512 512" style="enable-background:new 0 0 512 512;" xml:space="preserve">
<path style="fill:#FFCA51;" d="M448,85.227c0,10.453,0.107,32.107,0.107,32.107H245.333V74.667H437.44
	c5.713-0.119,10.441,4.416,10.56,10.129C448.003,84.939,448.003,85.083,448,85.227z"/>
<path style="fill:#FFE451;" d="M480,117.333c11.767,0.035,21.298,9.566,21.333,21.333V480c-0.035,11.767-9.566,21.298-21.333,21.333
	H32c-11.767-0.035-21.298-9.566-21.333-21.333V32C10.702,20.233,20.233,10.702,32,10.667h192
	c11.767,0.035,21.298,9.566,21.333,21.333v85.333H480z"/>
<g>
	<circle style="fill:#D9EEF7;" cx="405.333" cy="416" r="21.333"/>
	<circle style="fill:#D9EEF7;" cx="405.333" cy="309.333" r="21.333"/>
	<circle style="fill:#D9EEF7;" cx="405.333" cy="202.667" r="21.333"/>
	<path style="fill:#D9EEF7;" d="M202.667,277.333v64H192c-17.673,0-32-14.327-32-32c0-17.673,14.327-32,32-32H202.667z"/>
</g>
<path style="fill:#AAC4DA;" d="M202.667,341.333v85.333h-32v-34.773c-7.699-2.019-15.091-5.069-21.973-9.067L124.16,407.36
	l-30.187-30.187l24.533-24.533c-3.998-6.883-7.048-14.274-9.067-21.973H74.667V288h34.773c2.019-7.699,5.069-15.091,9.067-21.973
	l-24.533-24.533l30.187-30.187l24.533,24.533c6.883-3.998,14.274-7.048,21.973-9.067V192h32v85.333H192
	c-17.673,0.014-31.989,14.352-31.974,32.026c0.014,17.653,14.321,31.96,31.974,31.974H202.667z"/>
<g>
	<path style="fill:#4C5B66;" d="M480,106.667h-21.28c-0.053-6.987-0.053-15.808-0.053-21.44
		c0.244-11.479-8.864-20.983-20.343-21.227c-0.295-0.006-0.589-0.006-0.884,0H256V32c0-17.673-14.327-32-32-32H32
		C14.327,0,0,14.327,0,32v448c0,17.673,14.327,32,32,32h448c17.673,0,32-14.327,32-32V138.667
		C512,120.994,497.673,106.667,480,106.667z M437.333,85.536c0,5.632,0,14.251,0.053,21.131H256V85.333L437.333,85.536z
		 M490.667,480c0,5.891-4.776,10.667-10.667,10.667H32c-5.891,0-10.667-4.776-10.667-10.667V32c0-5.891,4.776-10.667,10.667-10.667
		h192c5.891,0,10.667,4.776,10.667,10.667v74.667H96V128h384c5.891,0,10.667,4.776,10.667,10.667V480z"/>
	<path style="fill:#4C5B66;" d="M224,202.667h21.333V416H224V202.667z"/>
	<path style="fill:#4C5B66;" d="M160,192v26.901c-3.163,1.127-6.267,2.412-9.301,3.851l-18.997-19.019
		c-4.165-4.164-10.917-4.164-15.083,0L86.4,233.952c-4.164,4.165-4.164,10.917,0,15.083l18.987,18.987
		c-1.44,3.051-2.731,6.165-3.851,9.312H74.667C68.776,277.333,64,282.109,64,288v42.667c0,5.891,4.776,10.667,10.667,10.667h26.901
		c1.127,3.163,2.412,6.267,3.851,9.301L86.4,369.632c-4.164,4.165-4.164,10.917,0,15.083l30.187,30.187
		c4.165,4.164,10.917,4.164,15.083,0l18.997-18.987c3.034,1.438,6.138,2.723,9.301,3.851v26.901c0,5.891,4.776,10.667,10.667,10.667
		h32V416h-21.301v-24.107c0.001-4.857-3.279-9.101-7.979-10.325c-6.767-1.783-13.264-4.466-19.317-7.979
		c-4.183-2.419-9.47-1.723-12.885,1.696l-16.992,16.992l-15.104-15.104l16.992-16.992c3.419-3.415,4.115-8.702,1.696-12.885
		c-3.512-6.053-6.196-12.55-7.979-19.317c-1.224-4.7-5.468-7.98-10.325-7.979H85.333v-21.333h24.107
		c4.857,0.001,9.101-3.279,10.325-7.979c1.786-6.769,4.47-13.27,7.979-19.328c2.413-4.181,1.717-9.461-1.696-12.875l-16.992-16.992
		l15.104-15.104l16.992,16.992c3.413,3.413,8.694,4.109,12.875,1.696c6.055-3.516,12.556-6.2,19.328-7.979
		c4.7-1.224,7.98-5.468,7.979-10.325v-24.107h21.333v-21.333h-32C164.776,181.333,160,186.109,160,192L160,192z"/>
	<path style="fill:#4C5B66;" d="M149.333,309.333C149.333,332.897,168.436,352,192,352h10.667v-21.333H192
		c-11.782,0-21.333-9.551-21.333-21.333c0-11.782,9.551-21.333,21.333-21.333h10.667v-21.333H192
		C168.436,266.667,149.333,285.769,149.333,309.333z"/>
	<path style="fill:#4C5B66;" d="M405.333,384c-13.512,0.056-25.533,8.594-30.037,21.333h-33.963V320
		c0.244-11.538-8.911-21.089-20.449-21.333c-0.295-0.006-0.589-0.006-0.884,0h-53.333V320H320v85.333
		c-0.244,11.538,8.911,21.089,20.449,21.333c0.295,0.006,0.589,0.006,0.884,0h33.963c5.921,16.621,24.194,25.295,40.814,19.374
		c16.621-5.921,25.295-24.194,19.374-40.814C430.944,392.48,418.865,383.976,405.333,384z M405.333,426.667
		c-5.891,0-10.667-4.776-10.667-10.667c0-5.891,4.776-10.667,10.667-10.667c5.891,0,10.667,4.776,10.667,10.667
		C416,421.891,411.224,426.667,405.333,426.667z"/>
	<path style="fill:#4C5B66;" d="M405.333,277.333c-13.512,0.056-25.533,8.594-30.037,21.333H352V320h23.296
		c5.921,16.621,24.194,25.295,40.814,19.374c16.621-5.921,25.295-24.194,19.374-40.814
		C430.944,285.813,418.865,277.309,405.333,277.333z M405.333,320c-5.891,0-10.667-4.776-10.667-10.667
		c0-5.891,4.776-10.667,10.667-10.667c5.891,0,10.667,4.776,10.667,10.667C416,315.224,411.224,320,405.333,320z"/>
	<path style="fill:#4C5B66;" d="M405.333,170.667c-13.512,0.056-25.533,8.594-30.037,21.333h-33.963
		c-11.538-0.244-21.089,8.911-21.333,20.449c-0.006,0.295-0.006,0.589,0,0.884v64h21.333v-64h33.963
		c5.921,16.621,24.194,25.295,40.814,19.374c16.621-5.921,25.295-24.194,19.374-40.814
		C430.944,179.146,418.865,170.643,405.333,170.667z M405.333,213.333c-5.891,0-10.667-4.776-10.667-10.667
		c0-5.891,4.776-10.667,10.667-10.667c5.891,0,10.667,4.776,10.667,10.667C416,208.558,411.224,213.333,405.333,213.333z"/>
	<path style="fill:#4C5B66;" d="M224,437.333h21.333v21.333H224V437.333z"/>
	<path style="fill:#4C5B66;" d="M224,160h21.333v21.333H224V160z"/>
</g>
<g>
</g>
<g>
</g>
<g>
</g>
<g>
</g>
<g>
</g>
<g>
</g>
<g>
</g>
<g>
</g>
<g>
</g>
<g>
</g>
<g>
</g>
<g>
</g>
<g>
</g>
<g>
</g>
<g>
</g>
</svg>
