<?xml version="1.0" encoding="iso-8859-1"?>
<!-- Generator: Adobe Illustrator 19.0.0, SVG Export Plug-In . SVG Version: 6.00 Build 0)  -->
<svg version="1.1" id="Capa_1" xmlns="http://www.w3.org/2000/svg" xmlns:xlink="http://www.w3.org/1999/xlink" x="0px" y="0px"
	 viewBox="0 0 512 512" style="enable-background:new 0 0 512 512;" xml:space="preserve">
<g>
	<path style="fill:#D9EEF7;" d="M192,512H42.667v-85.333c0-23.564,19.103-42.667,42.667-42.667
		c16.094,0.254,29.796-11.654,31.787-27.627c13.139,8.391,29.954,8.391,43.093,0C162.204,372.346,175.906,384.254,192,384
		c23.564,0,42.667,19.103,42.667,42.667V512H192z"/>
	<path style="fill:#D9EEF7;" d="M160.213,356.373c-13.139,8.391-29.954,8.391-43.093,0c-18.667-11.307-31.787-37.333-31.787-68.693
		v-21.013c0,0,10.667-42.667,53.333-42.667S192,266.667,192,266.667v21.013C192,319.04,178.88,345.067,160.213,356.373z"/>
	<path style="fill:#D9EEF7;" d="M426.667,512H277.333v-85.333C277.333,403.103,296.436,384,320,384
		c16.094,0.254,29.796-11.654,31.787-27.627c13.139,8.391,29.954,8.391,43.093,0c1.991,15.972,15.693,27.881,31.787,27.627
		c23.564,0,42.667,19.103,42.667,42.667V512H426.667z"/>
	<path style="fill:#D9EEF7;" d="M394.88,356.373c-13.139,8.391-29.954,8.391-43.093,0C333.12,345.067,320,319.04,320,287.68v-21.013
		c0,0,10.667-42.667,53.333-42.667s53.333,42.667,53.333,42.667v21.013C426.667,319.04,413.547,345.067,394.88,356.373z"/>
</g>
<circle style="fill:#F2F2F2;" cx="256" cy="128" r="32"/>
<path style="fill:#AAC4DA;" d="M373.333,106.667v42.667H338.56c-2.019,7.699-5.069,15.091-9.067,21.973l24.533,24.533
	l-30.187,30.187l-24.533-24.533c-6.883,3.998-14.274,7.048-21.973,9.067v34.773h-42.667V210.56
	c-7.699-2.019-15.091-5.069-21.973-9.067l-24.533,24.533l-30.187-30.187l24.533-24.533c-3.998-6.883-7.048-14.274-9.067-21.973
	h-34.773v-42.667h34.773c2.019-7.699,5.069-15.091,9.067-21.973L157.973,60.16l30.187-30.187l24.533,24.533
	c6.883-3.998,14.274-7.048,21.973-9.067V10.667h42.667V45.44c7.699,2.019,15.091,5.069,21.973,9.067l24.533-24.533l30.187,30.187
	l-24.533,24.533c3.998,6.883,7.048,14.274,9.067,21.973H373.333z M288,128c0-17.673-14.327-32-32-32c-17.673,0-32,14.327-32,32
	s14.327,32,32,32C273.673,160,288,145.673,288,128z"/>
<g>
	<path style="fill:#4C5B66;" d="M138.667,160h26.901c1.124,3.143,2.407,6.247,3.851,9.312l-18.987,18.987
		c-4.164,4.165-4.164,10.917,0,15.083l30.187,30.187c4.165,4.164,10.917,4.164,15.083,0l18.987-18.987
		c3.065,1.422,6.169,2.706,9.312,3.851v26.901c0,5.891,4.776,10.667,10.667,10.667h42.667c5.891,0,10.667-4.776,10.667-10.667
		v-26.901c3.15-1.116,6.254-2.4,9.312-3.851l18.987,18.987c4.165,4.164,10.917,4.164,15.083,0l30.187-30.187
		c4.164-4.165,4.164-10.917,0-15.083l-18.987-18.987c1.422-3.058,2.706-6.162,3.851-9.312h26.901
		c5.891,0,10.667-4.776,10.667-10.667v-42.667C384,100.776,379.224,96,373.333,96h-26.901c-1.124-3.143-2.407-6.247-3.851-9.312
		l18.987-18.987c4.164-4.165,4.164-10.917,0-15.083L331.381,22.4c-4.165-4.164-10.917-4.164-15.083,0l-18.987,18.987
		c-3.065-1.422-6.169-2.706-9.312-3.851V10.667C288,4.776,283.224,0,277.333,0h-42.667C228.776,0,224,4.776,224,10.667v26.901
		c-3.15,1.124-6.254,2.407-9.312,3.851L195.701,22.4c-4.165-4.164-10.917-4.164-15.083,0L150.4,52.619
		c-4.164,4.165-4.164,10.917,0,15.083l18.987,18.987c-1.422,3.058-2.706,6.162-3.851,9.312h-26.869
		C132.776,96,128,100.776,128,106.667v42.667C128,155.224,132.776,160,138.667,160z M149.333,117.333h24.107
		c4.857,0.001,9.101-3.279,10.325-7.979c1.775-6.773,4.459-13.275,7.979-19.328c2.413-4.181,1.717-9.461-1.696-12.875L173.056,60.16
		l15.104-15.104l16.992,16.992c3.413,3.413,8.694,4.109,12.875,1.696c6.053-3.52,12.555-6.204,19.328-7.979
		c4.7-1.224,7.98-5.468,7.979-10.325V21.333h21.333V45.44c-0.001,4.857,3.279,9.101,7.979,10.325
		c6.773,1.775,13.275,4.459,19.328,7.979c4.181,2.413,9.461,1.717,12.875-1.696l16.992-16.992l15.104,15.104l-16.992,16.992
		c-3.413,3.413-4.109,8.694-1.696,12.875c3.52,6.053,6.204,12.555,7.979,19.328c1.224,4.7,5.468,7.98,10.325,7.979h24.107v21.333
		H338.56c-4.857-0.001-9.101,3.279-10.325,7.979c-1.775,6.773-4.459,13.275-7.979,19.328c-2.413,4.181-1.717,9.461,1.696,12.875
		l16.992,16.992l-15.104,15.104l-16.992-16.992c-3.413-3.413-8.694-4.109-12.875-1.696c-6.053,3.52-12.555,6.204-19.328,7.979
		c-4.7,1.224-7.98,5.468-7.979,10.325v24.107h-21.333V210.56c0.001-4.857-3.279-9.101-7.979-10.325
		c-6.773-1.775-13.275-4.459-19.328-7.979c-4.181-2.413-9.461-1.717-12.875,1.696l-16.992,16.992l-15.104-15.104l16.992-16.992
		c3.413-3.413,4.109-8.694,1.696-12.875c-3.52-6.053-6.204-12.555-7.979-19.328c-1.224-4.7-5.468-7.98-10.325-7.979h-24.107V117.333
		z"/>
	<path style="fill:#4C5B66;" d="M256,170.667c23.564,0,42.667-19.103,42.667-42.667S279.564,85.333,256,85.333
		S213.333,104.436,213.333,128S232.436,170.667,256,170.667z M256,106.667c11.782,0,21.333,9.551,21.333,21.333
		s-9.551,21.333-21.333,21.333c-11.782,0-21.333-9.551-21.333-21.333S244.218,106.667,256,106.667z"/>
	<path style="fill:#4C5B66;" d="M192,373.333c-8.51,0.263-16.323-4.684-19.723-12.491c20.426-18.706,31.548-45.479,30.389-73.152
		v-21.024h-21.333v21.024c0,35.509-19.136,64.309-42.667,64.309S96,323.2,96,287.691v-19.52
		c5.28-19.354,22.613-32.965,42.667-33.504v-21.333c-30.283,0.5-56.431,21.334-63.68,50.741c-0.212,0.848-0.32,1.718-0.32,2.592
		v21.024c-1.159,27.673,9.963,54.446,30.389,73.152c-3.395,7.81-11.211,12.76-19.723,12.491
		C55.893,373.369,32.035,397.226,32,426.667V512h21.333v-85.333c0-17.673,14.327-32,32-32c16.336,0.153,31.339-8.993,38.688-23.584
		c9.533,3.001,19.758,3.001,29.291,0c7.349,14.591,22.352,23.737,38.688,23.584c17.673,0,32,14.327,32,32V512h21.333v-85.333
		C245.298,397.226,221.441,373.369,192,373.333L192,373.333z"/>
	<path style="fill:#4C5B66;" d="M74.667,437.333H96V512H74.667V437.333z"/>
	<path style="fill:#4C5B66;" d="M181.333,437.333h21.333V512h-21.333V437.333z"/>
	<path style="fill:#4C5B66;" d="M426.667,373.333c-8.51,0.263-16.323-4.684-19.723-12.491
		c20.426-18.706,31.548-45.479,30.389-73.152v-21.024c0-0.874-0.108-1.744-0.32-2.592c-7.249-29.407-33.397-50.242-63.68-50.741
		v21.333c20.049,0.541,37.38,14.146,42.667,33.493v19.531C416,323.2,396.864,352,373.333,352c-23.531,0-42.667-28.8-42.667-64.309
		v-21.024h-21.333v21.024c-1.159,27.673,9.963,54.446,30.389,73.152c-3.395,7.81-11.211,12.76-19.723,12.491
		c-29.441,0.035-53.298,23.893-53.333,53.333V512H288v-85.333c0-17.673,14.327-32,32-32c16.336,0.153,31.339-8.993,38.688-23.584
		c9.533,3.001,19.758,3.001,29.291,0c7.349,14.591,22.352,23.737,38.688,23.584c17.673,0,32,14.327,32,32V512H480v-85.333
		C479.965,397.226,456.107,373.369,426.667,373.333L426.667,373.333z"/>
	<path style="fill:#4C5B66;" d="M309.333,437.333h21.333V512h-21.333V437.333z"/>
	<path style="fill:#4C5B66;" d="M416,437.333h21.333V512H416V437.333z"/>
	<path style="fill:#4C5B66;" d="M245.333,277.333h21.333v21.333h-21.333V277.333z"/>
	<path style="fill:#4C5B66;" d="M245.333,320h21.333v21.333h-21.333V320z"/>
	<path style="fill:#4C5B66;" d="M245.333,362.667h21.333V384h-21.333V362.667z"/>
</g>
<g>
</g>
<g>
</g>
<g>
</g>
<g>
</g>
<g>
</g>
<g>
</g>
<g>
</g>
<g>
</g>
<g>
</g>
<g>
</g>
<g>
</g>
<g>
</g>
<g>
</g>
<g>
</g>
<g>
</g>
</svg>
