<?xml version="1.0" encoding="iso-8859-1"?>
<!-- Generator: Adobe Illustrator 19.0.0, SVG Export Plug-In . SVG Version: 6.00 Build 0)  -->
<svg version="1.1" id="Capa_1" xmlns="http://www.w3.org/2000/svg" xmlns:xlink="http://www.w3.org/1999/xlink" x="0px" y="0px"
	 viewBox="0 0 512.005 512.005" style="enable-background:new 0 0 512.005 512.005;" xml:space="preserve">
<path style="fill:#F2F2F2;" d="M309.336,245.338v32H202.669v-32v-32h106.667V245.338z"/>
<g>
	<path style="fill:#AAC4DA;" d="M149.336,10.671h213.333c5.766-0.125,10.542,4.448,10.667,10.214c0.003,0.151,0.003,0.302,0,0.453
		v21.333H138.669V21.338c-0.125-5.766,4.448-10.542,10.214-10.667C149.034,10.668,149.185,10.668,149.336,10.671z"/>
	<path style="fill:#AAC4DA;" d="M480.002,277.338v202.667c-0.035,11.767-9.566,21.298-21.333,21.333H53.336
		c-11.767-0.035-21.298-9.566-21.333-21.333V245.338h170.667v32h106.667v-32h170.667V277.338z"/>
</g>
<path style="fill:#D9EEF7;" d="M501.336,117.338v106.667c-0.035,11.767-9.566,21.298-21.333,21.333H309.336v-32H202.669v32H32.002
	c-11.767-0.035-21.298-9.566-21.333-21.333V117.338c0.035-11.767,9.566-21.298,21.333-21.333h448
	C491.77,96.04,501.301,105.571,501.336,117.338z"/>
<circle style="fill:#69F0F7;" cx="149.336" cy="426.671" r="32"/>
<g>
	<path style="fill:#4C5B66;" d="M480.002,85.338h-10.667v21.333h10.667c5.891,0,10.667,4.776,10.667,10.667v106.667
		c0,5.891-4.776,10.667-10.667,10.667h-32v21.333h32c17.673,0,32-14.327,32-32V117.338
		C512.002,99.665,497.676,85.338,480.002,85.338z"/>
	<path style="fill:#4C5B66;" d="M192.002,256.005v21.333c0,5.891,4.776,10.667,10.667,10.667h106.667
		c5.891,0,10.667-4.776,10.667-10.667v-21.333h64v-21.333h-64v-21.333c0-5.891-4.776-10.667-10.667-10.667H202.669
		c-5.891,0-10.667,4.776-10.667,10.667v21.333h-160c-5.891,0-10.667-4.776-10.667-10.667V117.338
		c0-5.891,4.776-10.667,10.667-10.667h330.667V85.338h-21.333v-32h32c5.891,0,10.667-4.776,10.667-10.667V21.338
		c0.244-11.538-8.911-21.089-20.449-21.333c-0.295-0.006-0.589-0.006-0.884,0H149.336c-11.538-0.244-21.089,8.911-21.333,20.449
		c-0.006,0.295-0.006,0.589,0,0.884v21.333c0,5.891,4.776,10.667,10.667,10.667h32v32H32.002c-17.673,0-32,14.327-32,32v106.667
		c0,17.673,14.327,32,32,32H192.002z M213.336,224.005h85.333v42.667h-85.333V224.005z M149.336,21.338l213.333-0.587
		c0.021,0.195,0.021,0.392,0,0.587v10.667H149.336V21.338z M192.002,53.338h128v32h-128V53.338z"/>
	<path style="fill:#4C5B66;" d="M469.336,277.338h21.333v117.333h-21.333V277.338z"/>
	<path style="fill:#4C5B66;" d="M42.669,480.005V277.338H21.336v202.667c0,17.673,14.327,32,32,32h320v-21.333h-320
		C47.445,490.671,42.669,485.896,42.669,480.005z"/>
	<path style="fill:#4C5B66;" d="M370.21,156.879l35.125-35.125v144.917c-0.088,82.438-66.895,149.245-149.333,149.333h-65.515
		c-5.891-22.816-29.163-36.536-51.978-30.645c-22.816,5.891-36.536,29.163-30.645,51.978c5.891,22.816,29.163,36.536,51.979,30.645
		c15.029-3.88,26.765-15.616,30.645-30.645h65.515c94.21-0.112,170.555-76.456,170.667-170.667V121.754l35.125,35.125l15.083-15.083
		l-53.333-53.333c-4.165-4.164-10.917-4.164-15.083,0l-53.333,53.333L370.21,156.879z M149.336,448.005
		c-11.782,0-21.333-9.551-21.333-21.333s9.551-21.333,21.333-21.333s21.333,9.551,21.333,21.333S161.118,448.005,149.336,448.005z"
		/>
	<path style="fill:#4C5B66;" d="M103.544,359.546l24.459-24.459l24.459,24.459l15.083-15.083l-24.459-24.459l24.459-24.459
		l-15.083-15.083l-24.459,24.459l-24.459-24.459l-15.083,15.083l24.459,24.459l-24.459,24.459L103.544,359.546z"/>
	<path style="fill:#4C5B66;" d="M472.461,419.13l-24.459,24.459l-24.459-24.459l-15.083,15.083l24.459,24.459l-24.459,24.459
		l15.083,15.083l24.459-24.459l24.459,24.459l15.083-15.083l-24.459-24.459l24.459-24.459L472.461,419.13z"/>
	<path style="fill:#4C5B66;" d="M224.002,330.671h21.333v21.333h-21.333V330.671z"/>
	<path style="fill:#4C5B66;" d="M266.669,330.671h21.333v21.333h-21.333V330.671z"/>
	<path style="fill:#4C5B66;" d="M362.669,448.005h21.333v21.333h-21.333V448.005z"/>
	<path style="fill:#4C5B66;" d="M320.002,448.005h21.333v21.333h-21.333V448.005z"/>
</g>
<g>
</g>
<g>
</g>
<g>
</g>
<g>
</g>
<g>
</g>
<g>
</g>
<g>
</g>
<g>
</g>
<g>
</g>
<g>
</g>
<g>
</g>
<g>
</g>
<g>
</g>
<g>
</g>
<g>
</g>
</svg>
