<?xml version="1.0" encoding="iso-8859-1"?>
<!-- Generator: Adobe Illustrator 19.0.0, SVG Export Plug-In . SVG Version: 6.00 Build 0)  -->
<svg version="1.1" id="Capa_1" xmlns="http://www.w3.org/2000/svg" xmlns:xlink="http://www.w3.org/1999/xlink" x="0px" y="0px"
	 viewBox="0 0 512 512" style="enable-background:new 0 0 512 512;" xml:space="preserve">
<g>
	<path style="fill:#FFE451;" d="M74.667,136.853v74.987l-51.093-39.467L74.667,136.853z"/>
	<path style="fill:#FFE451;" d="M437.333,136.747l51.093,35.627l-51.093,39.467V136.747z"/>
</g>
<path style="fill:#FFC951;" d="M437.333,211.84l51.093-39.467l12.907,8.96V480c0.03,5.66-2.241,11.088-6.293,15.04L448,448
	L310.187,310.187L437.333,211.84z"/>
<path style="fill:#FFE451;" d="M448,448l47.04,47.04c-3.952,4.052-9.38,6.323-15.04,6.293H32c-5.66,0.03-11.088-2.241-15.04-6.293
	L64,448l137.813-137.813L256,352l54.187-41.813L448,448z"/>
<path style="fill:#FFC951;" d="M74.667,211.84l127.147,98.347L64,448l-47.04,47.04c-4.052-3.952-6.323-9.38-6.293-15.04V181.333
	l12.907-8.96L74.667,211.84z"/>
<g>
	<path style="fill:#F2F2F2;" d="M310.187,310.187L256,352l-54.187-41.813L74.667,211.84v-74.987V32H128h256h53.333v104.747v75.093
		L310.187,310.187z"/>
	<circle style="fill:#F2F2F2;" cx="256" cy="128" r="32"/>
</g>
<path style="fill:#AAC4DA;" d="M373.333,106.667v42.667H338.56c-2.019,7.699-5.069,15.091-9.067,21.973l24.533,24.533
	l-30.187,30.187l-24.533-24.533c-6.883,3.998-14.274,7.048-21.973,9.067v34.773h-42.667V210.56
	c-7.699-2.019-15.091-5.069-21.973-9.067l-24.533,24.533l-30.187-30.187l24.533-24.533c-3.998-6.883-7.048-14.274-9.067-21.973
	h-34.773v-42.667h34.773c2.019-7.699,5.069-15.091,9.067-21.973L157.973,60.16l30.187-30.187l24.533,24.533
	c6.883-3.998,14.274-7.048,21.973-9.067V10.667h42.667V45.44c7.699,2.019,15.091,5.069,21.973,9.067l24.533-24.533l30.187,30.187
	l-24.533,24.533c3.998,6.883,7.048,14.274,9.067,21.973H373.333z M288,128c0-17.673-14.327-32-32-32s-32,14.327-32,32
	s14.327,32,32,32S288,145.673,288,128z"/>
<g>
	<path style="fill:#4C5B66;" d="M507.424,172.576L448,131.2V32c0-5.891-4.776-10.667-10.667-10.667H384v21.333h42.667v163.968
		L256,338.517L85.333,206.635V42.667H128V21.333H74.667C68.776,21.333,64,26.109,64,32v99.2L4.576,172.576
		C1.709,174.57,0,177.841,0,181.333V480c0,17.673,14.327,32,32,32l0,0h448c17.673,0,32-14.327,32-32V181.333
		C512,177.841,510.291,174.57,507.424,172.576z M448,157.227l22.4,15.573L448,190.155V157.227z M64,190.155L41.6,172.8L64,157.227
		V190.155z M490.667,480c0,5.891-4.776,10.667-10.667,10.667H32c-5.891,0-10.667-4.776-10.667-10.667V186.901l1.877-1.301
		l162.528,125.579l-129.28,129.28l15.083,15.083l131.2-131.2l46.731,36.107c3.84,2.963,9.195,2.963,13.035,0l46.731-36.107
		l131.2,131.2l15.083-15.083l-129.28-129.28L488.789,185.6l1.877,1.301L490.667,480z"/>
	<path style="fill:#4C5B66;" d="M128,149.333c0,5.891,4.776,10.667,10.667,10.667h26.901c1.128,3.168,2.417,6.276,3.861,9.312
		L150.4,188.341c-4.164,4.165-4.164,10.917,0,15.083l30.176,30.176c4.165,4.164,10.917,4.164,15.083,0l19.029-19.019
		c3.036,1.445,6.144,2.733,9.312,3.861v26.891c0,5.891,4.776,10.667,10.667,10.667h42.667c5.891,0,10.667-4.776,10.667-10.667
		v-26.901c3.168-1.128,6.276-2.417,9.312-3.861l19.029,19.029c4.165,4.164,10.917,4.164,15.083,0l30.176-30.176
		c4.164-4.165,4.164-10.917,0-15.083l-19.019-19.029c1.441-3.037,2.726-6.145,3.851-9.312h26.901
		c5.891,0,10.667-4.776,10.667-10.667v-42.667C384,100.776,379.224,96,373.333,96h-26.901c-1.128-3.168-2.417-6.276-3.861-9.312
		L361.6,67.659c4.164-4.165,4.164-10.917,0-15.083L331.424,22.4c-4.165-4.164-10.917-4.164-15.083,0l-19.029,19.029
		c-3.036-1.445-6.144-2.733-9.312-3.861V10.667C288,4.776,283.224,0,277.333,0h-42.667C228.776,0,224,4.776,224,10.667v26.901
		c-3.168,1.128-6.276,2.417-9.312,3.861L195.659,22.4c-4.165-4.164-10.917-4.164-15.083,0L150.4,52.576
		c-4.164,4.165-4.164,10.917,0,15.083l19.019,19.029c-1.441,3.037-2.726,6.145-3.851,9.312h-26.901
		C132.776,96,128,100.776,128,106.667L128,149.333z M149.333,117.333h24.128c4.863-0.001,9.11-3.291,10.325-8
		c1.741-6.739,4.416-13.202,7.947-19.2c2.477-4.192,1.801-9.529-1.643-12.971l-17.067-17.067l15.083-15.083l17.067,17.067
		c3.442,3.444,8.779,4.12,12.971,1.643c5.998-3.531,12.461-6.206,19.2-7.947c4.701-1.219,7.985-5.459,7.989-10.315V21.333h21.333
		v24.128c0.001,4.863,3.291,9.11,8,10.325c6.739,1.741,13.202,4.416,19.2,7.947c4.192,2.477,9.529,1.801,12.971-1.643l17.067-17.067
		l15.083,15.083L321.92,77.173c-3.444,3.442-4.12,8.779-1.643,12.971c3.531,5.998,6.206,12.461,7.947,19.2
		c1.216,4.709,5.462,7.999,10.325,8h24.117v21.333h-24.128c-4.863,0.001-9.11,3.291-10.325,8c-1.741,6.739-4.416,13.202-7.947,19.2
		c-2.477,4.192-1.801,9.529,1.643,12.971l17.067,17.067l-15.083,15.083l-17.067-17.067c-3.442-3.444-8.779-4.12-12.971-1.643
		c-5.998,3.531-12.461,6.206-19.2,7.947c-4.709,1.216-7.999,5.462-8,10.325v24.107h-21.323v-24.128
		c-0.001-4.863-3.291-9.11-8-10.325c-6.739-1.741-13.202-4.416-19.2-7.947c-4.192-2.477-9.529-1.801-12.971,1.643l-17.067,17.067
		l-15.083-15.083l17.067-17.067c3.444-3.442,4.12-8.779,1.643-12.971c-3.531-5.998-6.206-12.461-7.947-19.2
		c-1.216-4.709-5.462-7.999-10.325-8h-24.117L149.333,117.333z"/>
	<path style="fill:#4C5B66;" d="M256,170.667c23.564,0,42.667-19.103,42.667-42.667S279.564,85.333,256,85.333
		S213.333,104.436,213.333,128S232.436,170.667,256,170.667z M256,106.667c11.782,0,21.333,9.551,21.333,21.333
		s-9.551,21.333-21.333,21.333c-11.782,0-21.333-9.551-21.333-21.333S244.218,106.667,256,106.667z"/>
</g>
<g>
</g>
<g>
</g>
<g>
</g>
<g>
</g>
<g>
</g>
<g>
</g>
<g>
</g>
<g>
</g>
<g>
</g>
<g>
</g>
<g>
</g>
<g>
</g>
<g>
</g>
<g>
</g>
<g>
</g>
</svg>
