<?xml version="1.0" encoding="iso-8859-1"?>
<!-- Generator: Adobe Illustrator 19.0.0, SVG Export Plug-In . SVG Version: 6.00 Build 0)  -->
<svg version="1.1" id="Capa_1" xmlns="http://www.w3.org/2000/svg" xmlns:xlink="http://www.w3.org/1999/xlink" x="0px" y="0px"
	 viewBox="0 0 512 512" style="enable-background:new 0 0 512 512;" xml:space="preserve">
<path style="fill:#D9EEF7;" d="M501.333,96v362.667c0,23.564-19.103,42.667-42.667,42.667H53.333
	c-23.564,0-42.667-19.103-42.667-42.667V96H501.333z"/>
<path style="fill:#AAC4DA;" d="M501.333,53.333V96H10.667V53.333c0-23.564,19.103-42.667,42.667-42.667h405.333
	C482.231,10.667,501.333,29.769,501.333,53.333z"/>
<path style="fill:#F2F2F2;" d="M277.333,405.333H448V448H277.333V405.333z"/>
<g>
	<path style="fill:#FFE451;" d="M202.667,426.667V512h-192v-85.333c0-23.564,19.103-42.667,42.667-42.667
		c16.094,0.254,29.796-11.654,31.787-27.627c13.139,8.391,29.954,8.391,43.093,0C130.204,372.346,143.906,384.254,160,384
		C183.564,384,202.667,403.103,202.667,426.667z"/>
	<path style="fill:#FFE451;" d="M128.213,356.373c-13.139,8.391-29.954,8.391-43.093,0c-18.667-11.307-31.787-37.333-31.787-68.693
		v-21.013c0,0,10.667-42.667,53.333-42.667S160,266.667,160,266.667v21.013C160,319.04,146.88,345.067,128.213,356.373z"/>
</g>
<circle style="fill:#D9EEF7;" cx="384" cy="213.333" r="32"/>
<path style="fill:#AAC4DA;" d="M501.333,192v42.667H466.56c-2.019,7.699-5.069,15.091-9.067,21.973l24.533,24.533L451.84,311.36
	l-24.533-24.533c-6.883,3.998-14.274,7.048-21.973,9.067v34.773h-42.667v-34.773c-7.699-2.019-15.091-5.069-21.973-9.067
	L316.16,311.36l-30.187-30.187l24.533-24.533c-3.998-6.883-7.048-14.274-9.067-21.973h-34.773V192h34.773
	c2.019-7.699,5.069-15.091,9.067-21.973l-24.533-24.533l30.187-30.187l24.533,24.533c6.883-3.998,14.274-7.048,21.973-9.067V96
	h42.667v34.773c7.699,2.019,15.091,5.069,21.973,9.067l24.533-24.533l30.187,30.187l-24.533,24.533
	c3.998,6.883,7.048,14.274,9.067,21.973H501.333z M416,213.333c0-17.673-14.327-32-32-32s-32,14.327-32,32s14.327,32,32,32
	S416,231.006,416,213.333z"/>
<g>
	<path style="fill:#4C5B66;" d="M501.333,181.333h-26.901c-1.12-3.2-2.411-6.261-3.851-9.312l18.987-18.987
		c4.164-4.165,4.164-10.917,0-15.083l-30.187-30.187c-4.165-4.164-10.917-4.164-15.083,0l-18.997,18.987
		c-3.034-1.438-6.139-2.723-9.301-3.851V96c0-5.891-4.776-10.667-10.667-10.667h-42.667C356.776,85.333,352,90.109,352,96v26.901
		c-3.163,1.127-6.267,2.412-9.301,3.851l-18.997-19.019c-4.165-4.164-10.917-4.164-15.083,0l-30.187,30.187
		c-4.164,4.165-4.164,10.917,0,15.083l18.987,18.987c-1.44,3.051-2.731,6.165-3.851,9.312h-26.901
		c-5.891,0-10.667,4.776-10.667,10.667v42.667c0,5.891,4.776,10.667,10.667,10.667h26.901c1.12,3.2,2.411,6.261,3.851,9.312
		L278.432,273.6c-4.164,4.165-4.164,10.917,0,15.083l30.187,30.187c4.165,4.164,10.917,4.164,15.083,0l18.997-18.987
		c3.034,1.438,6.138,2.723,9.301,3.851v26.933c0,5.891,4.776,10.667,10.667,10.667h42.667c5.891,0,10.667-4.776,10.667-10.667
		v-26.901c3.163-1.127,6.267-2.412,9.301-3.851l18.997,18.987c4.165,4.164,10.917,4.164,15.083,0l30.187-30.187
		c4.164-4.165,4.164-10.917,0-15.083l-18.987-18.987c1.44-3.051,2.731-6.165,3.851-9.312h26.901c5.891,0,10.667-4.776,10.667-10.667
		V192C512,186.109,507.224,181.333,501.333,181.333L501.333,181.333z M490.667,224H466.56c-4.857-0.001-9.101,3.279-10.325,7.979
		c-1.785,6.77-4.468,13.271-7.979,19.328c-2.413,4.181-1.717,9.461,1.696,12.875l16.992,16.992l-15.104,15.104l-16.992-16.992
		c-3.413-3.413-8.694-4.109-12.875-1.696c-6.055,3.516-12.556,6.2-19.328,7.979c-4.7,1.224-7.98,5.468-7.979,10.325V320h-21.333
		v-24.107c0.001-4.857-3.279-9.101-7.979-10.325c-6.772-1.778-13.273-4.462-19.328-7.979c-4.181-2.413-9.461-1.717-12.875,1.696
		l-16.992,16.992l-15.104-15.104l16.992-16.992c3.414-3.413,4.109-8.694,1.696-12.875c-3.511-6.057-6.194-12.558-7.979-19.328
		c-1.224-4.7-5.468-7.98-10.325-7.979h-24.107v-21.333h24.107c4.857,0.001,9.101-3.279,10.325-7.979
		c1.784-6.77,4.468-13.271,7.979-19.328c2.413-4.181,1.717-9.461-1.696-12.875l-16.992-16.992l15.104-15.104l16.992,16.992
		c3.413,3.413,8.694,4.109,12.875,1.696c6.055-3.516,12.556-6.2,19.328-7.979c4.7-1.224,7.98-5.468,7.979-10.325v-24.107h21.333
		v24.107c-0.001,4.857,3.279,9.101,7.979,10.325c6.772,1.778,13.273,4.462,19.328,7.979c4.181,2.413,9.461,1.717,12.875-1.696
		l16.992-16.992l15.104,15.104l-16.992,16.992c-3.413,3.413-4.109,8.694-1.696,12.875c3.511,6.057,6.194,12.558,7.979,19.328
		c1.224,4.7,5.468,7.98,10.325,7.979h24.107V224z"/>
	<path style="fill:#4C5B66;" d="M384,170.667c-23.564,0-42.667,19.103-42.667,42.667S360.436,256,384,256
		c23.564,0,42.667-19.103,42.667-42.667S407.564,170.667,384,170.667z M384,234.667c-11.782,0-21.333-9.551-21.333-21.333
		S372.218,192,384,192c11.782,0,21.333,9.551,21.333,21.333S395.782,234.667,384,234.667z"/>
	<path style="fill:#4C5B66;" d="M160.085,373.333c-8.564,0.254-16.448-4.64-20.021-12.427
		c20.618-18.619,31.841-45.474,30.603-73.227v-21.013c0-0.874-0.108-1.744-0.32-2.592c-7.253-29.405-33.398-50.238-63.68-50.741
		c-30.282,0.503-56.427,21.337-63.68,50.741c-0.212,0.848-0.32,1.718-0.32,2.592v21.013c-1.237,27.745,9.977,54.594,30.581,73.216
		c-3.555,7.754-11.387,12.646-19.915,12.437C23.893,373.369,0.035,397.226,0,426.667V512h21.333v-85.333c0-17.673,14.327-32,32-32
		c16.28,0.045,31.193-9.098,38.539-23.627c9.61,3.043,19.926,3.043,29.536,0c7.362,14.539,22.295,23.682,38.592,23.627
		c17.673,0,32,14.327,32,32V512h21.333v-85.333C213.333,397.245,189.507,373.38,160.085,373.333L160.085,373.333z M90.667,347.253
		C74.453,337.44,64,314.059,64,287.68v-19.509c5.283-19.352,22.614-32.961,42.667-33.504c20.049,0.541,37.38,14.146,42.667,33.493
		v19.52c0,26.379-10.453,49.76-26.667,59.573C112.93,353.554,100.403,353.554,90.667,347.253z"/>
	<path style="fill:#4C5B66;" d="M448,458.667c5.891,0,10.667-4.776,10.667-10.667v-42.667c0-5.891-4.776-10.667-10.667-10.667
		H277.333c-5.891,0-10.667,4.776-10.667,10.667V448c0,5.891,4.776,10.667,10.667,10.667H448z M288,416h149.333v21.333H288V416z"/>
	<path style="fill:#4C5B66;" d="M458.667,0H53.333C23.893,0.035,0.035,23.893,0,53.333v309.333h21.333V53.333
		c0-17.673,14.327-32,32-32h405.333c17.673,0,32,14.327,32,32V96H512V53.333C511.965,23.893,488.107,0.035,458.667,0z"/>
	<path style="fill:#4C5B66;" d="M490.667,458.667c0,17.673-14.327,32-32,32H245.333V512h213.333
		c29.441-0.035,53.298-23.893,53.333-53.333V320h-21.333V458.667z"/>
	<path style="fill:#4C5B66;" d="M42.667,85.333H288v21.333H42.667V85.333z"/>
	<path style="fill:#4C5B66;" d="M53.333,42.667h21.333V64H53.333V42.667z"/>
	<path style="fill:#4C5B66;" d="M96,42.667h21.333V64H96V42.667z"/>
	<path style="fill:#4C5B66;" d="M437.333,42.667h21.333V64h-21.333V42.667z"/>
	<path style="fill:#4C5B66;" d="M42.667,437.333H64V512H42.667V437.333z"/>
	<path style="fill:#4C5B66;" d="M149.333,437.333h21.333V512h-21.333V437.333z"/>
	<path style="fill:#4C5B66;" d="M85.333,128h160v21.333h-160V128z"/>
	<path style="fill:#4C5B66;" d="M170.667,170.667H224V192h-53.333V170.667z"/>
	<path style="fill:#4C5B66;" d="M128,170.667h21.333V192H128V170.667z"/>
</g>
<g>
</g>
<g>
</g>
<g>
</g>
<g>
</g>
<g>
</g>
<g>
</g>
<g>
</g>
<g>
</g>
<g>
</g>
<g>
</g>
<g>
</g>
<g>
</g>
<g>
</g>
<g>
</g>
<g>
</g>
</svg>
