<?xml version="1.0" encoding="iso-8859-1"?>
<!-- Generator: Adobe Illustrator 19.0.0, SVG Export Plug-In . SVG Version: 6.00 Build 0)  -->
<svg version="1.1" id="Capa_1" xmlns="http://www.w3.org/2000/svg" xmlns:xlink="http://www.w3.org/1999/xlink" x="0px" y="0px"
	 viewBox="0 0 512.005 512.005" style="enable-background:new 0 0 512.005 512.005;" xml:space="preserve">
<path style="fill:#F2F2F2;" d="M309.336,245.338v32H202.669v-32v-32h106.667V245.338z"/>
<g>
	<path style="fill:#AAC4DA;" d="M149.336,10.671h213.333c5.766-0.125,10.542,4.448,10.667,10.214c0.003,0.151,0.003,0.302,0,0.453
		v21.333H138.669V21.338c-0.125-5.766,4.448-10.542,10.214-10.667C149.034,10.668,149.185,10.668,149.336,10.671z"/>
	<path style="fill:#AAC4DA;" d="M480.002,277.338v202.667c-0.035,11.767-9.566,21.298-21.333,21.333H53.336
		c-11.767-0.035-21.298-9.566-21.333-21.333V245.338h170.667v32h106.667v-32h170.667V277.338z"/>
</g>
<path style="fill:#D9EEF7;" d="M501.336,117.338v106.667c-0.035,11.767-9.566,21.298-21.333,21.333H309.336v-32H202.669v32H32.002
	c-11.767-0.035-21.298-9.566-21.333-21.333V117.338c0.035-11.767,9.566-21.298,21.333-21.333h448
	C491.77,96.04,501.301,105.571,501.336,117.338z"/>
<circle style="fill:#F2F2F2;" cx="384.002" cy="384.005" r="32"/>
<path style="fill:#FFE451;" d="M501.336,362.671v42.667h-34.773c-2.019,7.699-5.069,15.091-9.067,21.973l24.533,24.533
	l-30.187,30.187l-24.533-24.533c-6.883,3.998-14.274,7.048-21.973,9.067v34.773h-42.667v-34.773
	c-7.699-2.019-15.091-5.069-21.973-9.067l-24.533,24.533l-30.187-30.187l24.533-24.533c-3.998-6.883-7.048-14.274-9.067-21.973
	h-34.773v-42.667h34.773c2.019-7.699,5.069-15.091,9.067-21.973l-24.533-24.533l30.187-30.187l24.533,24.533
	c6.883-3.998,14.274-7.048,21.973-9.067v-34.773h42.667v34.773c7.699,2.019,15.091,5.069,21.973,9.067l24.533-24.533l30.187,30.187
	l-24.533,24.533c3.998,6.883,7.048,14.274,9.067,21.973H501.336z M416.002,384.005c0-17.673-14.327-32-32-32s-32,14.327-32,32
	s14.327,32,32,32S416.002,401.678,416.002,384.005z"/>
<g>
	<path style="fill:#4C5B66;" d="M480.002,85.338H341.336v-32h32c5.891,0,10.667-4.776,10.667-10.667V21.338
		c0.244-11.538-8.911-21.089-20.449-21.333c-0.295-0.006-0.589-0.006-0.884,0H149.336c-11.538-0.244-21.089,8.911-21.333,20.449
		c-0.006,0.295-0.006,0.589,0,0.884v21.333c0,5.891,4.776,10.667,10.667,10.667h32v32H32.002c-17.673,0-32,14.327-32,32v106.667
		c0,17.673,14.327,32,32,32h160v21.333c0,5.891,4.776,10.667,10.667,10.667h74.667v-21.333h-64v-42.667h85.333v21.333h21.333v-32
		c0-5.891-4.776-10.667-10.667-10.667H202.669c-5.891,0-10.667,4.776-10.667,10.667v21.333h-160
		c-5.891,0-10.667-4.776-10.667-10.667V117.338c0-5.891,4.776-10.667,10.667-10.667h448c5.891,0,10.667,4.776,10.667,10.667v106.667
		c0,5.891-4.776,10.667-10.667,10.667h-42.667v21.333h42.667c17.673,0,32-14.327,32-32V117.338
		C512.002,99.665,497.675,85.338,480.002,85.338z M149.336,21.338l213.28-0.587c0.044,0.192,0.062,0.39,0.053,0.587v10.667H149.336
		L149.336,21.338z M192.002,53.338h128v32h-128V53.338z"/>
	<path style="fill:#4C5B66;" d="M42.669,480.005V277.338H21.336v202.667c0,17.673,14.327,32,32,32h32v-21.333h-32
		C47.445,490.671,42.669,485.896,42.669,480.005z"/>
	<path style="fill:#4C5B66;" d="M501.336,352.005h-26.901c-1.12-3.2-2.411-6.261-3.851-9.312l18.987-18.987
		c4.164-4.165,4.164-10.917,0-15.083l-30.187-30.187c-4.165-4.164-10.917-4.164-15.083,0l-18.997,18.987
		c-3.034-1.438-6.139-2.723-9.301-3.851v-26.901c0-5.891-4.776-10.667-10.667-10.667h-42.667c-5.891,0-10.667,4.776-10.667,10.667
		v26.901c-3.163,1.127-6.267,2.412-9.301,3.851l-18.997-19.019c-4.165-4.164-10.917-4.164-15.083,0l-30.187,30.187
		c-4.164,4.165-4.164,10.917,0,15.083l18.987,18.987c-1.44,3.051-2.731,6.165-3.851,9.312h-26.901
		c-5.891,0-10.667,4.776-10.667,10.667v42.667c0,5.891,4.776,10.667,10.667,10.667h26.901c1.12,3.2,2.411,6.261,3.851,9.312
		l-18.987,18.987c-4.164,4.165-4.164,10.917,0,15.083l30.187,30.187c4.165,4.164,10.917,4.164,15.083,0l18.997-18.987
		c3.034,1.438,6.139,2.723,9.301,3.851v26.933c0,5.891,4.776,10.667,10.667,10.667h42.667c5.891,0,10.667-4.776,10.667-10.667
		v-26.901c3.163-1.127,6.267-2.412,9.301-3.851l18.997,18.987c4.165,4.164,10.917,4.164,15.083,0l30.187-30.187
		c4.164-4.165,4.164-10.917,0-15.083l-18.987-18.987c1.44-3.051,2.731-6.165,3.851-9.312h26.901c5.891,0,10.667-4.776,10.667-10.667
		v-42.667C512.002,356.78,507.227,352.005,501.336,352.005L501.336,352.005z M490.669,394.671h-24.107
		c-4.857-0.001-9.101,3.279-10.325,7.979c-1.785,6.77-4.468,13.271-7.979,19.328c-2.413,4.181-1.717,9.461,1.696,12.875
		l16.992,16.992l-15.104,15.104l-16.992-16.992c-3.413-3.414-8.694-4.109-12.875-1.696c-6.055,3.516-12.556,6.2-19.328,7.979
		c-4.7,1.224-7.98,5.468-7.979,10.325v24.107h-21.333v-24.107c0.001-4.857-3.279-9.101-7.979-10.325
		c-6.772-1.778-13.273-4.462-19.328-7.979c-4.181-2.413-9.461-1.717-12.875,1.696l-16.992,16.992l-15.104-15.104l16.992-16.992
		c3.413-3.413,4.109-8.694,1.696-12.875c-3.511-6.057-6.194-12.558-7.979-19.328c-1.224-4.7-5.468-7.98-10.325-7.979h-24.107
		v-21.333h24.107c4.857,0.001,9.101-3.279,10.325-7.979c1.784-6.77,4.468-13.271,7.979-19.328c2.413-4.181,1.717-9.461-1.696-12.875
		l-16.992-16.992l15.104-15.104l16.992,16.992c3.413,3.413,8.694,4.109,12.875,1.696c6.055-3.516,12.556-6.2,19.328-7.979
		c4.7-1.224,7.98-5.468,7.979-10.325v-24.107h21.333v24.107c-0.001,4.857,3.279,9.101,7.979,10.325
		c6.772,1.778,13.273,4.462,19.328,7.979c4.181,2.413,9.461,1.717,12.875-1.696l16.992-16.992l15.104,15.104l-16.992,16.992
		c-3.413,3.413-4.109,8.694-1.696,12.875c3.511,6.057,6.194,12.558,7.979,19.328c1.224,4.7,5.468,7.98,10.325,7.979h24.107V394.671z
		"/>
	<path style="fill:#4C5B66;" d="M384.002,341.338c-23.564,0-42.667,19.103-42.667,42.667c0,23.564,19.103,42.667,42.667,42.667
		s42.667-19.103,42.667-42.667C426.669,360.441,407.567,341.338,384.002,341.338z M384.002,405.338
		c-11.782,0-21.333-9.551-21.333-21.333c0-11.782,9.551-21.333,21.333-21.333s21.333,9.551,21.333,21.333
		C405.336,395.787,395.784,405.338,384.002,405.338z"/>
	<path style="fill:#4C5B66;" d="M192.002,490.671h85.333v21.333h-85.333V490.671z"/>
	<path style="fill:#4C5B66;" d="M149.336,490.671h21.333v21.333h-21.333V490.671z"/>
	<path style="fill:#4C5B66;" d="M106.669,437.338h128v21.333h-128V437.338z"/>
	<path style="fill:#4C5B66;" d="M213.336,384.005h21.333v21.333h-21.333V384.005z"/>
	<path style="fill:#4C5B66;" d="M170.669,384.005h21.333v21.333h-21.333V384.005z"/>
	<path style="fill:#4C5B66;" d="M85.336,384.005h64v21.333h-64V384.005z"/>
	<path style="fill:#4C5B66;" d="M138.669,330.671h96v21.333h-96V330.671z"/>
</g>
<g>
</g>
<g>
</g>
<g>
</g>
<g>
</g>
<g>
</g>
<g>
</g>
<g>
</g>
<g>
</g>
<g>
</g>
<g>
</g>
<g>
</g>
<g>
</g>
<g>
</g>
<g>
</g>
<g>
</g>
</svg>
