<?xml version="1.0" encoding="iso-8859-1"?>
<!-- Generator: Adobe Illustrator 19.0.0, SVG Export Plug-In . SVG Version: 6.00 Build 0)  -->
<svg version="1.1" id="Capa_1" xmlns="http://www.w3.org/2000/svg" xmlns:xlink="http://www.w3.org/1999/xlink" x="0px" y="0px"
	 viewBox="0 0 512 512" style="enable-background:new 0 0 512 512;" xml:space="preserve">
<path style="fill:#D9EEF7;" d="M21.333,437.333H96V480H21.333V437.333z"/>
<path style="fill:#FF7260;" d="M490.667,458.667l-32,21.333H96v-42.667h362.667L490.667,458.667z"/>
<path style="fill:#FFE451;" d="M32,309.333h448c5.891,0,10.667,4.776,10.667,10.667v64c0,5.891-4.776,10.667-10.667,10.667H32
	c-5.891,0-10.667-4.776-10.667-10.667v-64C21.333,314.109,26.109,309.333,32,309.333z"/>
<path style="fill:#F2F2F2;" d="M288,266.667v10.667h-64v-10.667c0-17.673,14.327-32,32-32S288,248.994,288,266.667z"/>
<path style="fill:#D9EEF7;" d="M352,266.667v10.667h-64v-10.667c0-17.673-14.327-32-32-32s-32,14.327-32,32v10.667h-64v-10.667
	c0-53.019,42.981-96,96-96S352,213.647,352,266.667z"/>
<path style="fill:#AAC4DA;" d="M501.333,234.667v42.667H352v-10.667c0-53.019-42.981-96-96-96s-96,42.981-96,96v10.667H10.667
	v-42.667c0-5.891,4.776-10.667,10.667-10.667H71.68c3.893-13.693,9.332-26.898,16.213-39.36l-35.52-35.52
	c-4.16-4.192-4.16-10.955,0-15.147l60.267-60.267c4.192-4.16,10.955-4.16,15.147,0l35.52,35.52
	c12.462-6.881,25.667-12.32,39.36-16.213V42.667c0-5.891,4.776-10.667,10.667-10.667h85.333c5.891,0,10.667,4.776,10.667,10.667
	v50.347c13.693,3.893,26.898,9.332,39.36,16.213l35.52-35.52c4.192-4.16,10.955-4.16,15.147,0l60.267,60.267
	c4.16,4.192,4.16,10.955,0,15.147l-35.52,35.52c6.881,12.462,12.321,25.667,16.213,39.36h50.347
	C496.558,224,501.333,228.776,501.333,234.667L501.333,234.667z"/>
<g>
	<path style="fill:#4C5B66;" d="M490.667,213.333h-42.453c-3.022-9.144-6.705-18.056-11.019-26.667l29.973-29.963
		c8.256-8.39,8.256-21.85,0-30.24l-60.352-60.395c-8.404-8.166-21.792-8.123-30.144,0.096l-30.005,29.973
		c-8.613-4.304-17.525-7.983-26.667-11.008V42.667c0-11.782-9.551-21.333-21.333-21.333h-85.333
		c-11.782,0-21.333,9.551-21.333,21.333v42.464c-9.142,3.025-18.053,6.704-26.667,11.008l-29.995-30.005
		c-8.394-8.244-21.846-8.244-30.24,0l-60.363,60.384c-8.192,8.388-8.164,21.79,0.064,30.144l29.973,29.973
		c-4.304,8.622-7.976,17.545-10.987,26.699H21.333C9.551,213.333,0,222.885,0,234.667v42.667h21.333v-42.667H71.68
		c4.766,0.001,8.955-3.16,10.261-7.744c3.677-12.914,8.805-25.37,15.285-37.131c2.295-4.158,1.565-9.333-1.792-12.693l-35.52-35.584
		l60.331-60.267l35.52,35.52c3.358,3.36,8.533,4.095,12.693,1.803c11.756-6.485,24.208-11.617,37.12-15.296
		c4.588-1.302,7.755-5.492,7.755-10.261V42.667h85.333v50.347c0,4.769,3.166,8.959,7.755,10.261
		c12.912,3.679,25.364,8.811,37.12,15.296c4.16,2.293,9.336,1.558,12.693-1.803l35.584-35.52l60.267,60.331l-35.52,35.52
		c-3.357,3.36-4.087,8.535-1.792,12.693c6.48,11.76,11.608,24.217,15.285,37.131c1.306,4.584,5.495,7.745,10.261,7.744h50.347
		v42.667H512v-42.667C512,222.885,502.449,213.333,490.667,213.333L490.667,213.333z"/>
	<path style="fill:#4C5B66;" d="M149.333,266.667v10.667h21.333v-10.667c0-47.128,38.205-85.333,85.333-85.333
		s85.333,38.205,85.333,85.333v10.667h21.333v-10.667C362.667,207.756,314.91,160,256,160S149.333,207.756,149.333,266.667z"/>
	<path style="fill:#4C5B66;" d="M480,298.667H32c-11.782,0-21.333,9.551-21.333,21.333v64c0,11.782,9.551,21.333,21.333,21.333h448
		c11.782,0,21.333-9.551,21.333-21.333v-64C501.333,308.218,491.782,298.667,480,298.667z M480,384H32v-64h53.333v32h21.333v-32h32
		v42.667H160V320h32v32h21.333v-32h32v42.667h21.333V320h32v32H320v-32h32v42.667h21.333V320h32v32h21.333v-32H480V384z"/>
	<path style="fill:#4C5B66;" d="M496.587,449.792l-32-21.333c-1.755-1.165-3.814-1.789-5.92-1.792H21.333
		c-5.891,0-10.667,4.776-10.667,10.667V480c0,5.891,4.776,10.667,10.667,10.667h437.333c2.106-0.003,4.165-0.627,5.92-1.792
		l32-21.333c4.901-3.268,6.225-9.891,2.957-14.792C498.763,451.578,497.758,450.573,496.587,449.792z M32,448h53.333v21.333H32V448z
		 M455.467,469.333h-348.8V448h348.8l16,10.667L455.467,469.333z"/>
	<path style="fill:#4C5B66;" d="M298.667,277.333v-10.667C298.667,243.103,279.564,224,256,224s-42.667,19.103-42.667,42.667v10.667
		h21.333v-10.667c0-11.782,9.551-21.333,21.333-21.333c11.782,0,21.333,9.551,21.333,21.333v10.667H298.667z"/>
	<path style="fill:#4C5B66;" d="M245.333,64h21.333v21.333h-21.333V64z"/>
	<path style="fill:#4C5B66;" d="M106.667,128H128v21.333h-21.333V128z"/>
	<path style="fill:#4C5B66;" d="M42.667,256H64v21.333H42.667V256z"/>
	<path style="fill:#4C5B66;" d="M448,256h21.333v21.333H448V256z"/>
	<path style="fill:#4C5B66;" d="M384,128h21.333v21.333H384V128z"/>
</g>
<g>
</g>
<g>
</g>
<g>
</g>
<g>
</g>
<g>
</g>
<g>
</g>
<g>
</g>
<g>
</g>
<g>
</g>
<g>
</g>
<g>
</g>
<g>
</g>
<g>
</g>
<g>
</g>
<g>
</g>
</svg>
