<?xml version="1.0" encoding="iso-8859-1"?>
<!-- Generator: Adobe Illustrator 19.0.0, SVG Export Plug-In . SVG Version: 6.00 Build 0)  -->
<svg version="1.1" id="Capa_1" xmlns="http://www.w3.org/2000/svg" xmlns:xlink="http://www.w3.org/1999/xlink" x="0px" y="0px"
	 viewBox="0 0 512 512" style="enable-background:new 0 0 512 512;" xml:space="preserve">
<path style="fill:#69F0F7;" d="M426.667,203.45c46.717,6.213,79.552,49.12,73.34,95.838c-5.61,42.188-41.448,73.792-84.006,74.082
	H96c-47.127-0.322-85.071-38.786-84.749-85.914c0.29-42.558,31.895-78.396,74.082-84.006v-0.747
	c0-47.128,38.205-85.333,85.333-85.333h10.667c0-47.128,38.205-85.333,85.333-85.333S352,70.241,352,117.37v0.747
	c42.637,5.372,74.628,41.612,74.667,84.587V203.45z"/>
<circle style="fill:#F2F2F2;" cx="266.667" cy="298.703" r="32"/>
<path style="fill:#AAC4DA;" d="M384,277.37v42.667h-34.773c-2.019,7.699-5.069,15.091-9.067,21.973l24.533,24.533l-30.187,30.187
	l-24.533-24.533c-6.883,3.998-14.274,7.048-21.973,9.067v34.773h-42.667v-34.773c-7.699-2.019-15.091-5.069-21.973-9.067
	l-24.533,24.533l-30.187-30.187l24.533-24.533c-3.998-6.883-7.048-14.274-9.067-21.973h-34.773V277.37h34.773
	c2.019-7.699,5.069-15.091,9.067-21.973l-24.533-24.533l30.187-30.187l24.533,24.533c6.883-3.998,14.274-7.048,21.973-9.067V181.37
	H288v34.773c7.699,2.019,15.091,5.069,21.973,9.067l24.533-24.533l30.187,30.187l-24.533,24.533
	c3.998,6.883,7.048,14.274,9.067,21.973H384z M298.667,298.703c0-17.673-14.327-32-32-32c-17.673,0-32,14.327-32,32
	c0,17.673,14.327,32,32,32C284.34,330.703,298.667,316.376,298.667,298.703z"/>
<g>
	<path style="fill:#4C5B66;" d="M436.981,194.415c-3.674-41.659-33.864-76.162-74.667-85.333
		c-4.538-52.825-51.039-91.969-103.864-87.432c-45.634,3.92-82.143,39.531-87.197,85.053h-0.587
		c-49.748,0.115-91.198,38.147-95.584,87.701c-51.712,11.702-84.146,63.11-72.443,114.821c9.878,43.65,48.607,74.684,93.361,74.811
		h32v-21.333H96c-41.236-0.307-74.416-33.985-74.108-75.221c0.277-37.198,27.893-68.519,64.764-73.451
		c5.448-1.013,9.386-5.787,9.344-11.328c0.047-41.218,33.449-74.62,74.667-74.667h10.667c5.891,0,10.667-4.776,10.667-10.667
		c0.206-41.237,33.803-74.5,75.04-74.293c41.237,0.206,74.5,33.803,74.293,75.04l0,0c0.002,5.378,4.007,9.914,9.344,10.581
		C388.22,133.514,416.259,165.6,416,203.45c0.002,5.378,4.007,9.914,9.344,10.581c40.873,5.468,69.575,43.035,64.107,83.908
		c-4.932,36.871-36.253,64.487-73.451,64.764h-10.667v21.333H416c53.019-0.141,95.885-43.236,95.745-96.255
		C511.626,243.04,480.615,204.312,436.981,194.415z"/>
	<path style="fill:#4C5B66;" d="M266.667,85.37V64.036c-29.441,0.035-53.298,23.893-53.333,53.333h21.333
		C234.667,99.697,248.994,85.37,266.667,85.37z"/>
	<path style="fill:#4C5B66;" d="M298.667,389.135c3.15-1.124,6.254-2.407,9.312-3.851l18.987,18.987
		c4.165,4.164,10.917,4.164,15.083,0l30.187-30.187c4.164-4.165,4.164-10.917,0-15.083l-18.987-18.987
		c1.422-3.065,2.706-6.169,3.851-9.312H384c5.891,0,10.667-4.776,10.667-10.667V277.37c0-5.891-4.776-10.667-10.667-10.667h-26.901
		c-1.124-3.15-2.407-6.254-3.851-9.312l18.987-18.987c4.164-4.165,4.164-10.917,0-15.083l-30.187-30.187
		c-4.165-4.164-10.917-4.164-15.083,0l-18.987,18.987c-3.065-1.422-6.169-2.706-9.312-3.851V181.37
		c0-5.891-4.776-10.667-10.667-10.667h-42.667c-5.891,0-10.667,4.776-10.667,10.667v26.901c-3.15,1.116-6.254,2.4-9.312,3.851
		l-18.987-18.987c-4.165-4.164-10.917-4.164-15.083,0l-30.187,30.187c-4.164,4.165-4.164,10.917,0,15.083l18.987,18.987
		c-1.422,3.065-2.706,6.169-3.851,9.312h-26.901c-5.891,0-10.667,4.776-10.667,10.667v42.667c0,5.891,4.776,10.667,10.667,10.667
		h26.901c1.116,3.15,2.4,6.254,3.851,9.312l-18.987,18.987c-4.164,4.165-4.164,10.917,0,15.083l30.187,30.187
		c4.165,4.164,10.917,4.164,15.083,0l18.987-18.987c3.065,1.422,6.169,2.706,9.312,3.851v26.901c0,5.891,4.776,10.667,10.667,10.667
		H256v42.667H42.667v21.333H256c11.538,0.244,21.089-8.911,21.333-20.449c0.006-0.295,0.006-0.589,0-0.884v-42.667H288
		c5.891,0,10.667-4.776,10.667-10.667V389.135z M285.312,370.938c-4.7,1.224-7.98,5.468-7.979,10.325v24.107H256v-24.107
		c0.001-4.857-3.279-9.101-7.979-10.325c-6.773-1.775-13.275-4.459-19.328-7.979c-4.181-2.413-9.461-1.717-12.875,1.696
		l-16.992,16.992l-15.104-15.104l16.992-16.992c3.413-3.413,4.109-8.694,1.696-12.875c-3.52-6.053-6.204-12.555-7.979-19.328
		c-1.224-4.7-5.468-7.98-10.325-7.979H160v-21.333h24.107c4.857,0.001,9.101-3.279,10.325-7.979
		c1.775-6.773,4.459-13.275,7.979-19.328c2.413-4.181,1.717-9.461-1.696-12.875l-16.992-16.992l15.104-15.104l16.992,16.992
		c3.413,3.413,8.694,4.109,12.875,1.696c6.053-3.52,12.555-6.204,19.328-7.979c4.7-1.224,7.98-5.468,7.979-10.325v-24.107h21.333
		v24.107c-0.001,4.857,3.279,9.101,7.979,10.325c6.773,1.775,13.275,4.459,19.328,7.979c4.181,2.413,9.461,1.717,12.875-1.696
		l16.992-16.992l15.104,15.104l-16.992,16.992c-3.413,3.413-4.109,8.694-1.696,12.875c3.52,6.053,6.204,12.555,7.979,19.328
		c1.224,4.7,5.468,7.98,10.325,7.979h24.107v21.333h-24.107c-4.857-0.001-9.101,3.279-10.325,7.979
		c-1.775,6.773-4.459,13.275-7.979,19.328c-2.413,4.181-1.717,9.461,1.696,12.875l16.992,16.992l-15.104,15.104l-16.992-16.992
		c-3.413-3.413-8.694-4.109-12.875-1.696C298.587,366.479,292.085,369.163,285.312,370.938L285.312,370.938z"/>
	<path style="fill:#4C5B66;" d="M266.667,256.036c-23.564,0-42.667,19.103-42.667,42.667s19.103,42.667,42.667,42.667
		s42.667-19.103,42.667-42.667S290.231,256.036,266.667,256.036z M266.667,320.036c-11.782,0-21.333-9.551-21.333-21.333
		c0-11.782,9.551-21.333,21.333-21.333c11.782,0,21.333,9.551,21.333,21.333C288,310.485,278.449,320.036,266.667,320.036z"/>
	<path style="fill:#4C5B66;" d="M298.667,469.37h170.667v21.333H298.667V469.37z"/>
	<path style="fill:#4C5B66;" d="M0,469.37h21.333v21.333H0V469.37z"/>
	<path style="fill:#4C5B66;" d="M490.667,469.37H512v21.333h-21.333V469.37z"/>
</g>
<g>
</g>
<g>
</g>
<g>
</g>
<g>
</g>
<g>
</g>
<g>
</g>
<g>
</g>
<g>
</g>
<g>
</g>
<g>
</g>
<g>
</g>
<g>
</g>
<g>
</g>
<g>
</g>
<g>
</g>
</svg>
