<?xml version="1.0" encoding="iso-8859-1"?>
<!-- Generator: Adobe Illustrator 19.0.0, SVG Export Plug-In . SVG Version: 6.00 Build 0)  -->
<svg version="1.1" id="Capa_1" xmlns="http://www.w3.org/2000/svg" xmlns:xlink="http://www.w3.org/1999/xlink" x="0px" y="0px"
	 viewBox="0 0 512.002 512.002" style="enable-background:new 0 0 512.002 512.002;" xml:space="preserve">
<g>
	<path style="fill:#D9EEF7;" d="M458.667,512.002H309.334v-85.333c0-23.564,19.103-42.667,42.667-42.667
		c16.094,0.254,29.796-11.654,31.787-27.627c13.139,8.391,29.954,8.391,43.093,0c1.991,15.972,15.693,27.881,31.787,27.627
		c23.564,0,42.667,19.103,42.667,42.667v85.333H458.667z"/>
	<path style="fill:#D9EEF7;" d="M426.881,356.375c-13.139,8.391-29.954,8.391-43.093,0c-18.667-11.307-31.787-37.333-31.787-68.693
		v-21.013c0,0,10.667-42.667,53.333-42.667s53.333,42.667,53.333,42.667v21.013C458.667,319.042,445.547,345.068,426.881,356.375z"
		/>
	<path style="fill:#D9EEF7;" d="M160.001,512.002H10.667v-85.333c0-23.564,19.103-42.667,42.667-42.667
		c16.094,0.254,29.796-11.654,31.787-27.627c13.139,8.391,29.954,8.391,43.093,0c1.991,15.972,15.693,27.881,31.787,27.627
		c23.564,0,42.667,19.103,42.667,42.667v85.333H160.001z"/>
	<path style="fill:#D9EEF7;" d="M128.214,356.375c-13.139,8.391-29.954,8.391-43.093,0c-18.667-11.307-31.787-37.333-31.787-68.693
		v-21.013c0,0,10.667-42.667,53.333-42.667s53.333,42.667,53.333,42.667v21.013C160.001,319.042,146.881,345.068,128.214,356.375z"
		/>
</g>
<g>
	<path style="fill:#31E8BB;" d="M234.454,143.042c-18.667-11.307-31.787-37.333-31.787-68.693V53.335
		c0,0,10.667-42.667,53.333-42.667s53.333,42.667,53.333,42.667v21.013c0,31.36-13.12,57.387-31.787,68.693
		C264.408,151.433,247.593,151.433,234.454,143.042z"/>
	<path style="fill:#31E8BB;" d="M160.001,287.682v-74.347c0-23.564,19.103-42.667,42.667-42.667
		c16.094,0.254,29.796-11.654,31.787-27.627c13.139,8.391,29.954,8.391,43.093,0c1.991,15.972,15.693,27.881,31.787,27.627
		c23.564,0,42.667,19.103,42.667,42.667v74.347c0,31.36,13.12,57.387,31.787,68.693c-1.991,15.972-15.693,27.881-31.787,27.627
		c-23.564,0-42.667,19.103-42.667,42.667v85.333H202.667v-85.333c0-23.564-19.103-42.667-42.667-42.667
		c-16.094,0.254-29.796-11.654-31.787-27.627C146.881,345.068,160.001,319.042,160.001,287.682z"/>
</g>
<g>
	<path style="fill:#4C5B66;" d="M42.667,437.335h21.333v74.667H42.667V437.335z"/>
	<path style="fill:#4C5B66;" d="M149.334,437.335h21.333v74.667h-21.333V437.335z"/>
	<path style="fill:#4C5B66;" d="M458.742,373.335c-8.56,0.249-16.439-4.644-20.011-12.427
		c20.618-18.619,31.841-45.474,30.603-73.227v-21.013c0-0.874-0.108-1.744-0.32-2.592c-7.249-29.407-33.397-50.242-63.68-50.741
		c-15.788-0.237-31.062,5.602-42.667,16.309v-16.309c0-29.426-23.833-53.292-53.259-53.333c-8.56,0.249-16.439-4.644-20.011-12.427
		c20.615-18.621,31.838-45.474,30.603-73.227V53.335c0-0.874-0.108-1.744-0.32-2.592c-8.066-35.169-43.115-57.141-78.285-49.075
		c-24.413,5.599-43.476,24.662-49.075,49.075c-0.212,0.848-0.32,1.718-0.32,2.592v21.013c-1.242,27.746,9.973,54.596,30.581,73.216
		c-3.541,7.766-11.382,12.663-19.915,12.437c-29.441,0.035-53.298,23.893-53.333,53.333v16.309
		c-11.604-10.707-26.879-16.546-42.667-16.309c-30.283,0.5-56.431,21.334-63.68,50.741c-0.212,0.848-0.32,1.718-0.32,2.592v21.013
		c-1.242,27.746,9.973,54.596,30.581,73.216c-3.541,7.766-11.382,12.663-19.915,12.437c-29.441,0.035-53.298,23.893-53.333,53.333
		v85.333h21.333v-85.333c0-17.673,14.327-32,32-32c16.285,0.054,31.206-9.091,38.549-23.627c9.606,3.044,19.919,3.044,29.525,0
		c7.362,14.539,22.295,23.682,38.592,23.627c17.673,0,32,14.327,32,32v85.333h21.333v-85.333c0-29.426-23.833-53.292-53.259-53.333
		c-8.56,0.249-16.439-4.644-20.011-12.427c17.965-15.871,28.79-38.301,30.037-62.24h0.565v-85.333c0-17.673,14.327-32,32-32
		c16.285,0.054,31.206-9.091,38.549-23.627c9.606,3.044,19.919,3.044,29.525,0c7.36,14.541,22.295,23.684,38.592,23.627
		c17.673,0,32,14.327,32,32v85.333h0.565c1.241,23.933,12.059,46.359,30.016,62.229c-3.541,7.766-11.382,12.663-19.915,12.437
		c-29.441,0.035-53.298,23.893-53.333,53.333v85.333h21.333v-85.333c0-17.673,14.327-32,32-32
		c16.285,0.054,31.206-9.091,38.549-23.627c9.606,3.044,19.919,3.044,29.525,0c7.362,14.539,22.295,23.682,38.592,23.627
		c17.673,0,32,14.327,32,32v85.333h21.333v-85.333C512.001,397.242,488.168,373.376,458.742,373.335L458.742,373.335z
		 M122.667,347.287c-9.74,6.287-22.26,6.287-32,0c-16.213-9.835-26.667-33.227-26.667-59.605v-19.509
		c5.28-19.354,22.613-32.965,42.667-33.504c20.06,0.522,37.402,14.14,42.667,33.504v19.509
		C149.334,314.06,138.881,337.452,122.667,347.287z M240.001,133.954c-16.213-9.835-26.667-33.227-26.667-59.605V54.839
		c5.766-23.564,29.542-37.993,53.107-32.227c15.911,3.893,28.334,16.316,32.227,32.227v19.509c0,26.379-10.453,49.771-26.667,59.573
		c-9.74,6.287-22.26,6.287-32,0V133.954z M389.334,347.287c-16.213-9.835-26.667-33.227-26.667-59.605v-19.509
		c5.766-23.564,29.542-37.993,53.107-32.227c15.911,3.893,28.334,16.316,32.227,32.227v19.52c0,26.379-10.453,49.771-26.667,59.605
		c-9.749,6.274-22.268,6.257-32-0.043V347.287z"/>
	<path style="fill:#4C5B66;" d="M341.334,437.335h21.333v74.667h-21.333V437.335z"/>
	<path style="fill:#4C5B66;" d="M448.001,437.335h21.333v74.667h-21.333V437.335z"/>
	<path style="fill:#4C5B66;" d="M245.334,405.335h21.333v21.333h-21.333V405.335z"/>
	<path style="fill:#4C5B66;" d="M288.001,277.335v32h21.333v-42.667c0-5.891-4.776-10.667-10.667-10.667h-32v-64h-21.333v64h-32
		c-5.891,0-10.667,4.776-10.667,10.667v42.667h21.333v-32h21.333v106.667h21.333V277.335H288.001z"/>
	<path style="fill:#4C5B66;" d="M202.667,330.668h21.333v21.333h-21.333V330.668z"/>
	<path style="fill:#4C5B66;" d="M288.001,330.668h21.333v21.333h-21.333V330.668z"/>
</g>
<g>
</g>
<g>
</g>
<g>
</g>
<g>
</g>
<g>
</g>
<g>
</g>
<g>
</g>
<g>
</g>
<g>
</g>
<g>
</g>
<g>
</g>
<g>
</g>
<g>
</g>
<g>
</g>
<g>
</g>
</svg>
