<?xml version="1.0" encoding="iso-8859-1"?>
<!-- Generator: Adobe Illustrator 19.0.0, SVG Export Plug-In . SVG Version: 6.00 Build 0)  -->
<svg version="1.1" id="Capa_1" xmlns="http://www.w3.org/2000/svg" xmlns:xlink="http://www.w3.org/1999/xlink" x="0px" y="0px"
	 viewBox="0 0 512 512" style="enable-background:new 0 0 512 512;" xml:space="preserve">
<path style="fill:#D9EEF7;" d="M405.333,160H106.667c0,29.455-23.878,53.333-53.333,53.333v85.333
	c29.455,0,53.333,23.878,53.333,53.333h298.667c0-29.455,23.878-53.333,53.333-53.333v-85.333
	C429.211,213.333,405.333,189.455,405.333,160z"/>
<path style="fill:#31E8BB;" d="M10.667,373.333V138.667c0.035-11.767,9.566-21.298,21.333-21.333h448
	c11.768,0.035,21.298,9.566,21.333,21.333v234.667c-0.035,11.767-9.566,21.298-21.333,21.333H32
	C20.233,394.632,10.702,385.101,10.667,373.333z M458.667,298.667v-85.333c-29.455,0-53.333-23.878-53.333-53.333H106.667
	c0,29.455-23.878,53.333-53.333,53.333v85.333c29.455,0,53.333,23.878,53.333,53.333h298.667
	C405.333,322.545,429.211,298.667,458.667,298.667z"/>
<circle style="fill:#D9EEF7;" cx="256" cy="256" r="32"/>
<path style="fill:#AAC4DA;" d="M373.333,234.667v42.667H338.56c-2.019,7.699-5.069,15.091-9.067,21.973l24.533,24.533
	l-30.187,30.187l-24.533-24.533c-6.883,3.998-14.274,7.048-21.973,9.067v34.773h-42.667V338.56
	c-7.699-2.019-15.091-5.069-21.973-9.067l-24.533,24.533l-30.187-30.187l24.533-24.533c-3.998-6.883-7.048-14.274-9.067-21.973
	h-34.773v-42.667h34.773c2.019-7.699,5.069-15.091,9.067-21.973l-24.533-24.533l30.187-30.187l24.533,24.533
	c6.883-3.998,14.274-7.048,21.973-9.067v-34.773h42.667v34.773c7.699,2.019,15.091,5.069,21.973,9.067l24.533-24.533l30.187,30.187
	l-24.533,24.533c3.998,6.883,7.048,14.274,9.067,21.973L373.333,234.667z M288,256c0-17.673-14.327-32-32-32s-32,14.327-32,32
	s14.327,32,32,32S288,273.673,288,256z"/>
<g>
	<path style="fill:#4C5B66;" d="M149.333,384H32c-5.891,0-10.667-4.776-10.667-10.667V138.667C21.333,132.776,26.109,128,32,128
		h117.333c17.171,0.502,31.498-13.01,32-30.181c0.018-0.606,0.018-1.213,0-1.819V74.667H160V96c0.527,5.365-3.395,10.14-8.76,10.667
		c-0.634,0.062-1.273,0.062-1.907,0H32c-17.673,0-32,14.327-32,32v234.667c0,17.673,14.327,32,32,32h117.205
		c5.384-0.572,10.211,3.329,10.783,8.713c0.069,0.649,0.073,1.304,0.012,1.954v21.333h21.333V416
		c0.502-17.171-13.01-31.498-30.181-32C150.546,383.982,149.939,383.982,149.333,384z"/>
	<path style="fill:#4C5B66;" d="M480,106.667H362.795c-5.384,0.572-10.211-3.329-10.783-8.713C351.943,97.305,351.939,96.65,352,96
		V74.667h-21.333V96c-0.502,17.171,13.01,31.498,30.181,32c0.606,0.018,1.213,0.018,1.819,0H480c5.891,0,10.667,4.776,10.667,10.667
		v234.667c0,5.891-4.776,10.667-10.667,10.667H362.667c-17.171-0.502-31.498,13.01-32,30.181c-0.018,0.606-0.018,1.213,0,1.819
		v21.333H352V416c-0.527-5.365,3.395-10.14,8.76-10.667c0.634-0.062,1.273-0.062,1.907,0H480c17.673,0,32-14.327,32-32V138.667
		C512,120.994,497.673,106.667,480,106.667z"/>
	<path style="fill:#4C5B66;" d="M117.333,160H96c0,23.564-19.103,42.667-42.667,42.667c-5.891,0-10.667,4.776-10.667,10.667v85.333
		c0,5.891,4.776,10.667,10.667,10.667C76.897,309.333,96,328.436,96,352h21.333c-0.039-31.218-22.56-57.868-53.333-63.115v-65.771
		C94.774,217.868,117.294,191.218,117.333,160z"/>
	<path style="fill:#4C5B66;" d="M394.667,352H416c0-23.564,19.103-42.667,42.667-42.667c5.891,0,10.667-4.776,10.667-10.667v-85.333
		c0-5.891-4.776-10.667-10.667-10.667C435.103,202.667,416,183.564,416,160h-21.333c0.039,31.218,22.56,57.868,53.333,63.115v65.771
		C417.226,294.132,394.706,320.782,394.667,352z"/>
	<path style="fill:#4C5B66;" d="M42.667,149.333H64v21.333H42.667V149.333z"/>
	<path style="fill:#4C5B66;" d="M448,149.333h21.333v21.333H448V149.333z"/>
	<path style="fill:#4C5B66;" d="M448,341.333h21.333v21.333H448V341.333z"/>
	<path style="fill:#4C5B66;" d="M42.667,341.333H64v21.333H42.667V341.333z"/>
	<path style="fill:#4C5B66;" d="M361.6,331.381c4.164-4.165,4.164-10.917,0-15.083l-18.987-18.987
		c1.44-3.051,2.731-6.165,3.851-9.312h26.869c5.891,0,10.667-4.776,10.667-10.667v-42.667c0-5.891-4.776-10.667-10.667-10.667
		h-26.901c-1.12-3.2-2.411-6.261-3.851-9.312l18.987-18.987c4.164-4.165,4.164-10.917,0-15.083l-30.187-30.187
		c-4.165-4.164-10.917-4.164-15.083,0l-18.997,18.987c-3.034-1.438-6.138-2.723-9.301-3.851v-26.901
		c0-5.891-4.776-10.667-10.667-10.667h-42.667c-5.891,0-10.667,4.776-10.667,10.667v26.901c-3.163,1.127-6.267,2.412-9.301,3.851
		L195.701,150.4c-4.165-4.164-10.917-4.164-15.083,0l-30.187,30.187c-4.164,4.165-4.164,10.917,0,15.083l18.987,18.987
		c-1.44,3.051-2.731,6.165-3.851,9.312h-26.901c-5.891,0-10.667,4.776-10.667,10.667v42.667c0,5.891,4.776,10.667,10.667,10.667
		h26.901c1.12,3.2,2.411,6.261,3.851,9.312l-18.987,18.987c-4.164,4.165-4.164,10.917,0,15.083l30.187,30.187
		c4.165,4.164,10.917,4.164,15.083,0l18.997-18.987c3.034,1.438,6.138,2.723,9.301,3.851v26.933c0,5.891,4.776,10.667,10.667,10.667
		h42.667c5.891,0,10.667-4.776,10.667-10.667v-26.901c3.163-1.127,6.267-2.412,9.301-3.851l18.997,18.987
		c4.165,4.164,10.917,4.164,15.083,0L361.6,331.381z M306.88,321.952c-3.413-3.413-8.694-4.109-12.875-1.696
		c-6.055,3.516-12.556,6.2-19.328,7.979c-4.713,1.212-8.008,5.459-8.011,10.325v24.107h-21.333V338.56
		c0.001-4.857-3.279-9.101-7.979-10.325c-6.772-1.778-13.273-4.462-19.328-7.979c-4.181-2.413-9.461-1.717-12.875,1.696
		l-16.992,16.992l-15.104-15.104l16.992-16.992c3.413-3.413,4.109-8.694,1.696-12.875c-3.511-6.057-6.194-12.558-7.979-19.328
		c-1.224-4.7-5.468-7.98-10.325-7.979h-24.107v-21.333h24.107c4.857,0.001,9.101-3.279,10.325-7.979
		c1.784-6.77,4.468-13.271,7.979-19.328c2.413-4.181,1.717-9.461-1.696-12.875l-16.992-16.992l15.104-15.104l16.992,16.992
		c3.413,3.413,8.694,4.109,12.875,1.696c6.055-3.516,12.556-6.2,19.328-7.979c4.7-1.224,7.98-5.468,7.979-10.325v-24.107h21.333
		v24.107c-0.001,4.857,3.279,9.101,7.979,10.325c6.772,1.778,13.273,4.462,19.328,7.979c4.181,2.413,9.461,1.717,12.875-1.696
		l16.992-16.992l15.104,15.104l-16.992,16.992c-3.414,3.413-4.109,8.694-1.696,12.875c3.511,6.057,6.194,12.558,7.979,19.328
		c1.224,4.7,5.468,7.98,10.325,7.979h24.107v21.333H338.56c-4.857-0.001-9.101,3.279-10.325,7.979
		c-1.784,6.77-4.468,13.271-7.979,19.328c-2.413,4.181-1.717,9.461,1.696,12.875l16.992,16.992l-15.104,15.104L306.88,321.952z"/>
	<path style="fill:#4C5B66;" d="M256,213.333c-23.564,0-42.667,19.103-42.667,42.667s19.103,42.667,42.667,42.667
		s42.667-19.103,42.667-42.667S279.564,213.333,256,213.333z M256,277.333c-11.782,0-21.333-9.551-21.333-21.333
		c0-11.782,9.551-21.333,21.333-21.333c11.782,0,21.333,9.551,21.333,21.333C277.333,267.782,267.782,277.333,256,277.333z"/>
	<path style="fill:#4C5B66;" d="M160,32h21.333v21.333H160V32z"/>
	<path style="fill:#4C5B66;" d="M330.667,32H352v21.333h-21.333V32z"/>
	<path style="fill:#4C5B66;" d="M330.667,458.667H352V480h-21.333V458.667z"/>
	<path style="fill:#4C5B66;" d="M160,458.667h21.333V480H160V458.667z"/>
	<path style="fill:#4C5B66;" d="M245.333,32h21.333v32h-21.333V32z"/>
	<path style="fill:#4C5B66;" d="M245.333,85.333h21.333v21.333h-21.333V85.333z"/>
	<path style="fill:#4C5B66;" d="M245.333,448h21.333v32h-21.333V448z"/>
	<path style="fill:#4C5B66;" d="M245.333,405.333h21.333v21.333h-21.333V405.333z"/>
</g>
<g>
</g>
<g>
</g>
<g>
</g>
<g>
</g>
<g>
</g>
<g>
</g>
<g>
</g>
<g>
</g>
<g>
</g>
<g>
</g>
<g>
</g>
<g>
</g>
<g>
</g>
<g>
</g>
<g>
</g>
</svg>
