<?xml version="1.0" encoding="iso-8859-1"?>
<!-- Generator: Adobe Illustrator 19.0.0, SVG Export Plug-In . SVG Version: 6.00 Build 0)  -->
<svg version="1.1" id="Capa_1" xmlns="http://www.w3.org/2000/svg" xmlns:xlink="http://www.w3.org/1999/xlink" x="0px" y="0px"
	 viewBox="0 0 512.005 512.005" style="enable-background:new 0 0 512.005 512.005;" xml:space="preserve">
<path style="fill:#F2F2F2;" d="M309.336,245.338v32H202.669v-32v-32h106.667V245.338z"/>
<g>
	<path style="fill:#AAC4DA;" d="M149.336,10.671h213.333c5.766-0.125,10.542,4.448,10.667,10.214c0.003,0.151,0.003,0.302,0,0.453
		v21.333H138.669V21.338c-0.125-5.766,4.448-10.542,10.214-10.667C149.034,10.668,149.185,10.668,149.336,10.671z"/>
	<path style="fill:#AAC4DA;" d="M480.002,277.338v202.667c-0.035,11.767-9.566,21.298-21.333,21.333H53.336
		c-11.767-0.035-21.298-9.566-21.333-21.333V245.338h170.667v32h106.667v-32h170.667V277.338z"/>
</g>
<g>
	<path style="fill:#D9EEF7;" d="M501.336,117.338v106.667c-0.035,11.767-9.566,21.298-21.333,21.333H309.336v-32H202.669v32H32.002
		c-11.767-0.035-21.298-9.566-21.333-21.333V117.338c0.035-11.767,9.566-21.298,21.333-21.333h448
		C491.77,96.04,501.301,105.571,501.336,117.338z"/>
	<path style="fill:#D9EEF7;" d="M501.336,405.338h-64c-11.767-0.035-21.298-9.566-21.333-21.333v-64L501.336,405.338z"/>
</g>
<path style="fill:#FFE451;" d="M501.336,405.338v106.667h-384V341.338c0.035-11.767,9.566-21.298,21.333-21.333h277.333v64
	c0.035,11.767,9.566,21.298,21.333,21.333H501.336z"/>
<g>
	<path style="fill:#4C5B66;" d="M480.002,85.338H341.336v-32h32c5.891,0,10.667-4.776,10.667-10.667V21.338
		c0.244-11.538-8.911-21.089-20.449-21.333c-0.295-0.006-0.589-0.006-0.884,0H149.336c-11.538-0.244-21.089,8.911-21.333,20.449
		c-0.006,0.295-0.006,0.589,0,0.884v21.333c0,5.891,4.776,10.667,10.667,10.667h32v32H32.002c-17.673,0-32,14.327-32,32v106.667
		c0,17.673,14.327,32,32,32h160v21.333c0,5.891,4.776,10.667,10.667,10.667h106.667c5.891,0,10.667-4.776,10.667-10.667v-21.333h160
		c17.673,0,32-14.327,32-32V117.338C512.002,99.665,497.676,85.338,480.002,85.338z M149.336,21.338l213.333-0.587
		c0.021,0.195,0.021,0.392,0,0.587v10.667H149.336V21.338z M192.002,53.338h128v32h-128V53.338z M298.669,266.671h-85.333v-42.667
		h85.333V266.671z M490.669,224.005c0,5.891-4.776,10.667-10.667,10.667h-160v-21.333c0-5.891-4.776-10.667-10.667-10.667H202.669
		c-5.891,0-10.667,4.776-10.667,10.667v21.333h-160c-5.891,0-10.667-4.776-10.667-10.667V117.338
		c0-5.891,4.776-10.667,10.667-10.667h448c5.891,0,10.667,4.776,10.667,10.667V224.005z"/>
	<path style="fill:#4C5B66;" d="M469.336,277.338h21.333v53.333h-21.333V277.338z"/>
	<path style="fill:#4C5B66;" d="M42.669,480.005V277.338H21.336v202.667c0,17.673,14.327,32,32,32h32v-21.333h-32
		C47.445,490.671,42.669,485.896,42.669,480.005z"/>
	<path style="fill:#4C5B66;" d="M423.544,312.463c-2-2.001-4.713-3.125-7.541-3.125H138.669c-17.673,0-32,14.327-32,32v170.667
		h21.333V341.338c0-5.891,4.776-10.667,10.667-10.667h266.667v53.333c0,17.673,14.327,32,32,32h21.333v-21.333h-21.333
		c-5.891,0-10.667-4.776-10.667-10.667v-38.251l64,64v102.251h21.333V405.338c-0.001-2.829-1.125-5.541-3.125-7.541L423.544,312.463
		z"/>
	<path style="fill:#4C5B66;" d="M170.669,373.338h106.667v21.333H170.669V373.338z"/>
	<path style="fill:#4C5B66;" d="M170.669,416.005h21.333v21.333h-21.333V416.005z"/>
	<path style="fill:#4C5B66;" d="M213.336,416.005h21.333v21.333h-21.333V416.005z"/>
</g>
<g>
</g>
<g>
</g>
<g>
</g>
<g>
</g>
<g>
</g>
<g>
</g>
<g>
</g>
<g>
</g>
<g>
</g>
<g>
</g>
<g>
</g>
<g>
</g>
<g>
</g>
<g>
</g>
<g>
</g>
</svg>
