<?xml version="1.0" encoding="iso-8859-1"?>
<!-- Generator: Adobe Illustrator 19.0.0, SVG Export Plug-In . SVG Version: 6.00 Build 0)  -->
<svg xmlns="http://www.w3.org/2000/svg" xmlns:xlink="http://www.w3.org/1999/xlink" version="1.1" id="Layer_1" x="0px" y="0px" viewBox="0 0 512 512" style="enable-background:new 0 0 512 512;" xml:space="preserve">
<polygon style="fill:#554F4E;" points="403.064,8.17 370.383,256 403.064,503.83 501.106,503.83 501.106,8.17 "/>
<polygon style="fill:#D8D1D0;" points="435.745,40.851 403.064,256 435.745,471.149 468.426,471.149 468.426,40.851 "/>
<rect x="370.383" y="40.851" style="fill:#FFFFFF;" width="65.362" height="430.298"/>
<polygon style="fill:#7F7774;" points="403.064,8.17 403.064,503.83 370.383,503.83 294.128,256 370.383,8.17 "/>
<polygon style="fill:#A99E9B;" points="370.383,8.17 370.383,503.83 76.255,503.83 43.574,256 76.255,8.17 "/>
<polygon style="fill:#F5AC51;" points="337.702,73.532 337.702,373.106 305.021,373.106 250.553,223.319 305.021,73.532 "/>
<rect x="141.617" y="73.532" style="fill:#FFD159;" width="163.404" height="299.574"/>
<path style="fill:#554F4E;" d="M43.574,8.17c-18.049,0-32.681,14.632-32.681,32.681v430.298c0,18.049,14.632,32.681,32.681,32.681  h32.681V8.17H43.574z"/>
<path style="fill:#FFD159;" d="M174.305,446.639c-2.641,0-5.231-1.278-6.805-3.64c-2.503-3.754-1.488-8.827,2.266-11.329  l32.682-21.787c2.745-1.83,6.319-1.83,9.064,0l28.15,18.766l28.148-18.766c2.745-1.83,6.319-1.83,9.063,0l32.68,21.787  c3.754,2.503,4.769,7.575,2.266,11.329c-2.503,3.755-7.575,4.769-11.329,2.266l-28.148-18.766l-28.148,18.766  c-2.745,1.83-6.319,1.83-9.064,0l-28.15-18.766l-28.15,18.766C177.437,446.195,175.863,446.639,174.305,446.639z"/>
<path d="M435.745,479.319c4.513,0,8.17-3.657,8.17-8.17V40.851c0-4.513-3.657-8.17-8.17-8.17c-4.513,0-8.17,3.657-8.17,8.17v430.298  C427.574,475.662,431.231,479.319,435.745,479.319z"/>
<path d="M476.596,471.149V40.851c0-4.513-3.657-8.17-8.17-8.17c-4.513,0-8.17,3.657-8.17,8.17v430.298c0,4.513,3.657,8.17,8.17,8.17  C472.939,479.319,476.596,475.662,476.596,471.149z"/>
<path d="M501.106,0h-65.362c-4.513,0-8.17,3.657-8.17,8.17s3.657,8.17,8.17,8.17h57.191V495.66h-81.702V8.17  c0-4.513-3.657-8.17-8.17-8.17H43.574C21.049,0,2.723,18.325,2.723,40.851v430.298C2.723,493.675,21.049,512,43.574,512h457.532  c4.513,0,8.17-3.657,8.17-8.17V8.17C509.277,3.657,505.62,0,501.106,0z M19.064,471.149V40.851  c0-13.515,10.996-24.511,24.511-24.511h24.511V495.66H43.574C30.06,495.66,19.064,484.664,19.064,471.149z M394.894,495.66H84.426  V16.34h310.468V495.66z"/>
<path d="M141.617,381.277h196.085c4.513,0,8.17-3.657,8.17-8.17V239.66c0-4.513-3.657-8.17-8.17-8.17s-8.17,3.657-8.17,8.17v125.277  H149.787V81.702h179.745v125.277c0,4.513,3.657,8.17,8.17,8.17s8.17-3.657,8.17-8.17V73.532c0-4.513-3.657-8.17-8.17-8.17H141.617  c-4.513,0-8.17,3.657-8.17,8.17v299.574C133.447,377.62,137.104,381.277,141.617,381.277z"/>
<g>
</g>
<g>
</g>
<g>
</g>
<g>
</g>
<g>
</g>
<g>
</g>
<g>
</g>
<g>
</g>
<g>
</g>
<g>
</g>
<g>
</g>
<g>
</g>
<g>
</g>
<g>
</g>
<g>
</g>
</svg>
