<?xml version="1.0" encoding="iso-8859-1"?>
<!-- Generator: Adobe Illustrator 19.0.0, SVG Export Plug-In . SVG Version: 6.00 Build 0)  -->
<svg xmlns="http://www.w3.org/2000/svg" xmlns:xlink="http://www.w3.org/1999/xlink" version="1.1" id="Layer_1" x="0px" y="0px" viewBox="0 0 512 512" style="enable-background:new 0 0 512 512;" xml:space="preserve">
<path style="fill:#F5AC51;" d="M57.191,384C30.118,384,8.17,427.735,8.17,454.809c0,27.074,21.947,49.021,49.021,49.021h413.957  c18.05,0,32.681-14.631,32.681-32.681L57.191,384z"/>
<path style="fill:#FFD159;" d="M454.809,73.532h-32.681l49.021,395.22l32.681,2.397V122.553  C503.83,95.483,481.879,73.532,454.809,73.532z"/>
<path style="fill:#FFEAB2;" d="M471.149,122.553v346.199L57.191,438.468V73.532h364.936  C449.198,73.532,471.149,95.483,471.149,122.553z"/>
<polygon style="fill:#FFE08F;" points="400.34,8.17 400.34,296.851 345.872,318.638 367.66,8.17 "/>
<path style="fill:#FFF3D4;" d="M367.66,8.17v299.574l-76.255,98.043H57.191c-27.071,0-49.021,21.951-49.021,49.021V57.191  C8.17,30.121,30.121,8.17,57.191,8.17H367.66z"/>
<rect x="160.681" y="57.191" style="fill:#E26142;" width="130.723" height="130.723"/>
<g>
	<polygon style="fill:#FFD159;" points="291.404,296.851 291.404,405.787 400.34,296.851  "/>
	<path style="fill:#FFD159;" d="M471.149,438.468H57.191v32.681H503.83C503.83,453.099,489.199,438.468,471.149,438.468z"/>
</g>
<path d="M454.809,65.362h-21.787c-4.513,0-8.17,3.657-8.17,8.17s3.657,8.17,8.17,8.17h21.787c22.526,0,40.851,18.325,40.851,40.851  v315.938c-6.832-5.141-15.321-8.193-24.511-8.193H57.191c-4.512,0-8.17,3.657-8.17,8.17c0,4.513,3.658,8.17,8.17,8.17h413.957  c13.515,0,24.511,10.996,24.511,24.511s-10.996,24.511-24.511,24.511H57.191c-22.526,0-40.851-18.325-40.851-40.851  c0-22.526,18.325-40.851,40.851-40.851h234.213c2.167,0,4.244-0.861,5.778-2.392l108.936-108.936  c1.532-1.533,2.392-3.61,2.392-5.778V8.17c0-4.513-3.657-8.17-8.17-8.17H57.191C25.656,0,0,25.657,0,57.191v397.617  C0,486.343,25.656,512,57.191,512h413.957C493.675,512,512,493.675,512,471.149V122.553C512,91.018,486.343,65.362,454.809,65.362z   M299.574,386.063v-81.042h81.042L299.574,386.063z M16.34,57.191c0-22.526,18.325-40.851,40.851-40.851H392.17v272.34H291.404  c-4.513,0-8.17,3.657-8.17,8.17v100.766H57.191c-15.987,0-30.463,6.594-40.851,17.204V57.191z"/>
<path d="M334.979,272.34c4.513,0,8.17-3.657,8.17-8.17V57.191c0-4.513-3.657-8.17-8.17-8.17c-4.513,0-8.17,3.657-8.17,8.17V264.17  C326.809,268.683,330.465,272.34,334.979,272.34z"/>
<path d="M291.404,217.872c-4.513,0-8.17,3.657-8.17,8.17v38.128c0,4.513,3.657,8.17,8.17,8.17c4.513,0,8.17-3.657,8.17-8.17v-38.128  C299.574,221.529,295.917,217.872,291.404,217.872z"/>
<path d="M247.83,217.872c-4.512,0-8.17,3.657-8.17,8.17v130.723c0,4.513,3.658,8.17,8.17,8.17c4.512,0,8.17-3.657,8.17-8.17V226.043  C256,221.529,252.342,217.872,247.83,217.872z"/>
<path d="M204.255,217.872c-4.512,0-8.17,3.657-8.17,8.17v130.723c0,4.513,3.658,8.17,8.17,8.17s8.17-3.657,8.17-8.17V226.043  C212.426,221.529,208.767,217.872,204.255,217.872z"/>
<path d="M160.681,364.936c4.512,0,8.17-3.657,8.17-8.17V226.043c0-4.513-3.658-8.17-8.17-8.17s-8.17,3.657-8.17,8.17v130.723  C152.511,361.279,156.169,364.936,160.681,364.936z"/>
<path d="M117.106,364.936c4.512,0,8.17-3.657,8.17-8.17V57.191c0-4.513-3.658-8.17-8.17-8.17c-4.512,0-8.17,3.657-8.17,8.17v299.574  C108.936,361.279,112.594,364.936,117.106,364.936z"/>
<path d="M73.532,364.936c4.512,0,8.17-3.657,8.17-8.17V57.191c0-4.513-3.658-8.17-8.17-8.17c-4.512,0-8.17,3.657-8.17,8.17v299.574  C65.362,361.279,69.02,364.936,73.532,364.936z"/>
<path d="M160.681,196.085h130.723c4.513,0,8.17-3.657,8.17-8.17V57.191c0-4.513-3.657-8.17-8.17-8.17h-49.021  c-4.512,0-8.17,3.657-8.17,8.17s3.658,8.17,8.17,8.17h40.851v114.383H168.851V65.362h40.851c4.512,0,8.17-3.657,8.17-8.17  s-3.658-8.17-8.17-8.17h-49.021c-4.512,0-8.17,3.657-8.17,8.17v130.723C152.511,192.428,156.169,196.085,160.681,196.085z"/>
<path d="M471.149,479.319c4.513,0,8.17-3.657,8.17-8.17c0-4.513-3.657-8.17-8.17-8.17H57.191c-4.512,0-8.17,3.657-8.17,8.17  c0,4.513,3.658,8.17,8.17,8.17H471.149z"/>
<circle cx="452.085" cy="354.043" r="8.17"/>
<circle cx="419.404" cy="386.723" r="8.17"/>
<g>
</g>
<g>
</g>
<g>
</g>
<g>
</g>
<g>
</g>
<g>
</g>
<g>
</g>
<g>
</g>
<g>
</g>
<g>
</g>
<g>
</g>
<g>
</g>
<g>
</g>
<g>
</g>
<g>
</g>
</svg>
