<?xml version="1.0" encoding="iso-8859-1"?>
<!-- Generator: Adobe Illustrator 19.0.0, SVG Export Plug-In . SVG Version: 6.00 Build 0)  -->
<svg xmlns="http://www.w3.org/2000/svg" xmlns:xlink="http://www.w3.org/1999/xlink" version="1.1" id="Layer_1" x="0px" y="0px" viewBox="0 0 511.999 511.999" style="enable-background:new 0 0 511.999 511.999;" xml:space="preserve">
<polygon style="fill:#95341D;" points="294.115,427.575 277.774,427.575 266.881,482.043 312.271,482.043 "/>
<polygon style="fill:#AB5D4A;" points="261.434,427.575 243.277,482.043 277.774,482.043 277.774,427.575 "/>
<path style="fill:#95341D;" d="M354.029,460.256h-32.681l43.574,43.574h32.681C397.603,479.764,378.094,460.256,354.029,460.256z"/>
<path style="fill:#AB5D4A;" d="M321.348,460.256H201.519c-24.065,0-43.574,19.509-43.574,43.574h206.978  C364.923,479.764,345.413,460.256,321.348,460.256z"/>
<path style="fill:#68AEF4;" d="M386.994,47.416L287.31,8.447c-36.735-2.041-73.995,7.672-105.669,29.148  c0,0,237.859,237.935,238.274,238.274c45.255-66.746,38.315-158.311-20.821-217.445C395.197,54.526,391.153,50.851,386.994,47.416z"/>
<path style="fill:#7CC8EF;" d="M270.094,25.663c-31.212-4.991-61.862-0.747-87.467,13.195L135.632,83.62  c-13.712,20.212-22.631,42.705-26.752,65.883l29.841,130.781c5.262,7.279,11.177,14.227,17.733,20.783  c5.97,5.97,12.278,11.415,18.857,16.315l96.702,33.831c35.503,1.194,71.298-8.581,101.894-29.318  c-0.008-0.008,44.754-47.004,44.754-47.004c30.48-55.946,14.597-136.088-42.674-193.359L270.094,25.663z"/>
<path style="fill:#276AAD;" d="M287.31,8.432c0,0.015-17.216,17.231-17.216,17.231l105.892,55.869l11.008-11.008  c6.386-6.386,6.378-16.73,0-23.109C357.969,23.398,322.882,10.403,287.31,8.432z"/>
<g>
	<path style="fill:#3891E9;" d="M375.986,81.532l-21.183,21.184l-19.258-19.258l-23.109,23.109l-53.92,53.92l-23.109-23.109   l23.109-23.109c-6.378-6.378-6.378-16.73,0-23.109l7.703-7.703l-26.96-26.96l30.834-30.834   C307.115,31.578,344.912,50.459,375.986,81.532z"/>
	<path style="fill:#3891E9;" d="M323.991,141.23l73.178,73.178l-26.96,26.96c-8.473,8.473-22.338,8.473-30.811,0l-26.959-26.96   l-7.703,7.703c-8.512,8.512-22.3,8.512-30.811,0c-8.512-8.512-8.512-22.3,0-30.811L323.991,141.23z"/>
</g>
<g>
	<path style="fill:#F0EBEA;" d="M418.661,274.891l-18.302,24.896c7.349-7.502,13.873-15.506,19.565-23.91   C419.501,275.53,419.092,275.199,418.661,274.891z"/>
	<path style="fill:#F0EBEA;" d="M157.732,57.16l24.896-18.302c-0.308-0.431-0.639-0.84-0.978-1.256   C173.238,43.287,165.235,49.812,157.732,57.16z"/>
</g>
<g>
	<path style="fill:#FFFFFF;" d="M182.628,38.858c9.598,12.787,8.573,31.035-3.065,42.674c-12.024,12.024-31.097,12.717-43.929,2.087   c6.008-8.889,12.957-17.332,20.821-25.196c0.424-0.424,0.848-0.848,1.279-1.264C165.273,49.85,173.646,43.757,182.628,38.858z"/>
	<path style="fill:#FFFFFF;" d="M375.986,277.957c11.639-11.639,29.888-12.664,42.674-3.065   c-4.899,8.982-10.992,17.355-18.302,24.896c-0.416,0.431-0.84,0.855-1.264,1.279c-7.865,7.865-16.307,14.813-25.188,20.829   C363.269,309.053,363.962,289.98,375.986,277.957z"/>
</g>
<g>
	<path style="fill:#3891E9;" d="M272.013,351.211l-3.691-38.089c-1.156-11.926-9.034-28.618-17.507-37.092l-23.109-23.109   l-46.217,46.218c-4.967,4.967-7.011,11.733-6.178,18.2C204.003,338.802,237.866,350.079,272.013,351.211z"/>
	<path style="fill:#3891E9;" d="M108.88,149.502l80.311,80.311l-50.47,50.47C110.822,241.814,100.877,194.372,108.88,149.502z"/>
</g>
<path d="M389.466,160.486c-3.191,3.192-3.191,8.364,0,11.555l7.703,7.703c1.595,1.595,3.686,2.392,5.777,2.392  s4.182-0.797,5.777-2.392c3.191-3.192,3.191-8.364,0-11.555l-7.703-7.703C397.83,157.298,392.657,157.298,389.466,160.486z"/>
<path d="M194.967,116.195c-3.191-3.19-8.364-3.191-11.554,0.001c-3.191,3.191-3.19,8.364,0.001,11.554l7.703,7.702  c1.595,1.595,3.685,2.392,5.777,2.392c2.092,0,4.182-0.797,5.778-2.393c3.191-3.191,3.19-8.364-0.001-11.554L194.967,116.195z"/>
<path d="M435.685,326.102c-0.003-0.003-25.173-25.173-25.173-25.173c64.38-70.443,62.506-180.138-5.64-248.284  C370.923,18.697,325.785,0,277.774,0c-45.278,0-87.996,16.636-121.188,47.002L119.864,10.28c-3.191-3.19-8.364-3.19-11.554,0  c-3.191,3.192-3.191,8.364,0,11.555l5.893,5.893c-81.352,87.457-79.475,224.79,5.66,309.926  c41.462,41.461,95.307,63.164,149.74,65.139v16.609h-8.17c-3.516,0-6.639,2.25-7.751,5.586l-9.032,27.094h-43.132  c-25.751,0-47.164,18.911-51.093,43.574h-3.375c-4.512,0-8.17,3.657-8.17,8.17c0,4.513,3.658,8.17,8.17,8.17h261.446  c4.512,0,8.17-3.657,8.17-8.17c0-4.513-3.658-8.17-8.17-8.17h-3.375c-3.929-24.663-25.342-43.574-51.093-43.574h-43.132  l-9.032-27.094c-1.112-3.337-4.234-5.586-7.751-5.586h-8.17v-16.609c51.893-1.882,103.242-21.709,143.846-59.479l5.895,5.893  c1.595,1.595,3.686,2.392,5.777,2.392s4.182-0.797,5.777-2.392c3.191-3.192,3.191-8.364,0-11.555L435.685,326.102z M293.672,452.085  h-10.451c-4.512,0-8.17,3.657-8.17,8.17s3.658,8.17,8.17,8.17h70.808c16.71,0,30.743,11.64,34.442,27.234H167.077  c3.699-15.594,17.733-27.234,34.442-27.234h49.021c3.516,0,6.639-2.25,7.751-5.586l9.032-27.095h20.903L293.672,452.085z   M376.31,310.118c-3.561-8.871-1.681-19.248,5.454-26.384c7.131-7.133,17.501-9.013,26.368-5.461  c-4.484,5.924-9.414,11.616-14.813,17.016C387.945,300.66,382.259,305.603,376.31,310.118z M417.456,264.548  c-15.443-7.84-34.468-5.148-47.246,7.631c-12.789,12.789-15.474,31.839-7.609,47.289c-24.846,15.146-53.371,23.363-83.164,23.659  l-2.984-30.794c-1.337-13.796-10.061-32.279-19.861-42.081l-23.109-23.109c-3.191-3.19-8.364-3.19-11.554,0l-46.218,46.218  c-2.602,2.602-4.652,5.599-6.117,8.84c-2.511-2.224-4.971-4.522-7.363-6.914c-4.56-4.56-8.782-9.33-12.689-14.271l39.649-39.649  l1.926,1.926c1.595,1.595,3.686,2.392,5.777,2.392c2.09,0,4.182-0.797,5.777-2.392c3.191-3.192,3.191-8.364,0-11.555l-7.704-7.704  l-77.19-77.19c3.691-18.093,10.462-35.674,20.311-51.9c5.79,2.94,12.084,4.4,18.367,4.4c10.468,0,20.898-4.05,28.884-12.036  c12.789-12.789,15.475-31.84,7.609-47.289c22.452-13.687,47.907-21.715,74.588-23.354l-45.608,45.608  c-3.191,3.192-3.191,8.364,0,11.555c1.595,1.595,3.686,2.392,5.777,2.392c2.09,0,4.182-0.797,5.777-2.392l5.777-5.777l15.407,15.406  l-1.926,1.926c-4.63,4.63-7.179,10.784-7.179,17.332c0,3.72,0.824,7.314,2.384,10.572l-18.313,18.313  c-1.533,1.533-2.393,3.61-2.393,5.778c0,2.168,0.861,4.244,2.393,5.778l17.331,17.332l-9.628,9.628  c-3.191,3.192-3.191,8.364,0,11.555c1.595,1.595,3.686,2.392,5.777,2.392c2.09,0,4.182-0.797,5.777-2.392l15.4-15.4  c0.011-0.011,48.15-48.15,48.15-48.15l11.555,11.554l-55.847,55.847c-11.68,11.681-11.68,30.686,0,42.367  c11.68,11.68,30.685,11.679,42.366,0l1.926-1.927l21.183,21.183c5.641,5.641,13.164,8.748,21.183,8.748s15.542-3.108,21.183-8.748  l26.96-26.959c1.533-1.533,2.393-3.61,2.393-5.778s-0.861-4.244-2.393-5.778l-25.034-25.035c-3.191-3.189-8.364-3.191-11.554,0  c-3.191,3.192-3.191,8.364,0,11.555l19.258,19.258l-21.184,21.183c-2.555,2.555-5.974,3.962-9.629,3.962  c-3.655,0-7.074-1.407-9.629-3.963l-26.96-26.959c-3.191-3.19-8.364-3.19-11.554,0l-7.703,7.703c-5.311,5.308-13.949,5.308-19.258,0  c-2.572-2.571-3.988-5.991-3.988-9.629c0-3.636,1.416-7.057,3.988-9.628l44.292-44.292l19.258,19.257  c1.595,1.595,3.686,2.392,5.777,2.392s4.182-0.797,5.777-2.392c3.191-3.192,3.191-8.364,0-11.555l-19.257-19.257l5.777-5.777  c1.533-1.533,2.393-3.61,2.393-5.778s-0.861-4.244-2.393-5.778l-17.332-17.331l11.554-11.554l13.474,13.474  c0.012,0.012,19.263,19.264,19.263,19.264c3.19,3.19,8.363,3.19,11.554,0c3.191-3.192,3.191-8.364,0-11.555l-13.48-13.48  l26.417-26.418c2.162-2.163,3.851-4.668,5.058-7.381C447.986,123.194,454.527,203.483,417.456,264.548z M183.363,313.155  c0.304-3.096,1.655-5.991,3.902-8.239l40.44-40.44l17.332,17.331c7.104,7.104,14.183,22.105,15.153,32.103l2.768,28.567  C234.092,339.9,206.796,329.813,183.363,313.155z M114.939,167.117l62.696,62.696l-37.7,37.7  C120.609,237.172,112.275,201.8,114.939,167.117z M162.23,64.201c5.373-5.373,11.059-10.315,17.008-14.831  c3.561,8.871,1.682,19.249-5.454,26.384c-7.132,7.132-17.501,9.013-26.368,5.461C151.901,75.292,156.832,69.6,162.23,64.201z   M381.377,53.363c1.439,1.522,2.236,3.499,2.236,5.604c0,2.182-0.85,4.234-2.393,5.777l-26.417,26.417l-13.48-13.48  c-1.532-1.532-3.61-2.392-5.777-2.392s-4.245,0.861-5.777,2.392l-71.253,71.252l-11.555-11.555l17.332-17.331  c3.191-3.191,3.191-8.364,0-11.554c-1.544-1.544-2.393-3.596-2.393-5.778c0-2.183,0.85-4.234,2.393-5.777l7.703-7.703  c3.191-3.192,3.191-8.364,0-11.555l-21.183-21.183l39.668-39.668C323.998,19.391,355.485,32.058,381.377,53.363z M131.418,326.101  c-78.765-78.765-80.639-205.732-5.653-286.809l19.27,19.269c-64.379,70.443-62.504,180.137,5.642,248.283  c33.949,33.949,79.086,52.644,127.097,52.644c45.278,0,87.995-16.633,121.187-47l19.267,19.267  C337.151,406.739,210.184,404.866,131.418,326.101z"/>
<g>
</g>
<g>
</g>
<g>
</g>
<g>
</g>
<g>
</g>
<g>
</g>
<g>
</g>
<g>
</g>
<g>
</g>
<g>
</g>
<g>
</g>
<g>
</g>
<g>
</g>
<g>
</g>
<g>
</g>
</svg>
