<?xml version="1.0" encoding="iso-8859-1"?>
<!-- Generator: Adobe Illustrator 19.0.0, SVG Export Plug-In . SVG Version: 6.00 Build 0)  -->
<svg xmlns="http://www.w3.org/2000/svg" xmlns:xlink="http://www.w3.org/1999/xlink" version="1.1" id="Layer_1" x="0px" y="0px" viewBox="0 0 512 512" style="enable-background:new 0 0 512 512;" xml:space="preserve">
<path style="fill:#276AAD;" d="M256,8.17L223.319,256L256,503.83c136.873,0,247.83-110.957,247.83-247.83S392.873,8.17,256,8.17z"/>
<path style="fill:#F5AC51;" d="M256,40.851L223.319,256L256,471.149c118.823,0,215.149-96.326,215.149-215.149  S374.823,40.851,256,40.851z"/>
<path style="fill:#E26142;" d="M256,96.227L223.319,256L256,415.773c88.24,0,159.773-71.533,159.773-159.773  S344.24,96.227,256,96.227z"/>
<path style="fill:#FFD159;" d="M256,151.603L223.319,256L256,360.397c57.657,0,104.397-46.74,104.397-104.397  S313.657,151.603,256,151.603z"/>
<path style="fill:#F5AC51;" d="M256,206.979L223.319,256L256,305.021c27.074,0,49.021-21.947,49.021-49.021  S283.074,206.979,256,206.979z"/>
<path style="fill:#68AEF4;" d="M256,8.17v495.66c-11.079,0-21.994-0.73-32.681-2.146L147.064,256l76.255-245.684  C234.006,8.9,244.921,8.17,256,8.17z"/>
<path style="fill:#7CC8EF;" d="M223.319,10.316v491.367C101.899,485.692,8.17,381.789,8.17,256S101.899,26.308,223.319,10.316z"/>
<path d="M437.019,74.981C388.667,26.628,324.38,0,256,0S123.333,26.628,74.981,74.981S0,187.62,0,256s26.628,132.667,74.981,181.019  S187.62,512,256,512s132.667-26.628,181.019-74.981S512,324.38,512,256S485.372,123.333,437.019,74.981z M16.495,264.17h107.493  c0.687,43.309,6.824,84.794,17.767,121.306c-25.275,6.422-48.479,14.978-68.483,25.408C39.431,371.019,18.375,319.987,16.495,264.17  z M73.273,101.116c20.006,10.432,43.213,18.989,68.491,25.41c-4.099,13.723-7.555,28.254-10.314,43.457  c-0.805,4.439,2.141,8.692,6.581,9.498c4.443,0.807,8.692-2.141,9.498-6.581c2.719-14.982,6.133-29.249,10.18-42.666  c28.368,6.012,58.895,9.436,90.121,9.947V247.83H140.332c0.242-14.523,1.122-29.008,2.641-43.166  c0.48-4.486-2.766-8.513-7.252-8.995c-4.496-0.487-8.513,2.767-8.995,7.252c-1.58,14.734-2.492,29.804-2.736,44.909H16.495  C18.375,192.013,39.431,140.981,73.273,101.116z M264.17,215.971c18.624,3.795,32.681,20.3,32.681,40.029  s-14.057,36.233-32.681,40.029V215.971z M264.17,312.599c27.677-3.978,49.021-27.838,49.021-56.599s-21.344-52.621-49.021-56.599  v-39.278c49.249,4.161,88.056,45.569,88.056,95.876s-38.807,91.716-88.056,95.876V312.599z M247.83,16.945v106.894  c-29.479-0.495-58.256-3.653-84.994-9.192c7.668-21.452,17.082-40.31,27.985-55.862C203.102,41.263,222.548,20.699,247.83,16.945z   M140.33,264.17H247.83v107.649c-31.23,0.511-61.761,3.936-90.134,9.949C147.019,346.559,141.018,306.322,140.33,264.17z   M247.83,388.162v106.891c-26.847-3.991-52.208-27.592-72.144-67.465c-4.728-9.457-9.009-19.575-12.837-30.236  C189.584,391.814,218.356,388.657,247.83,388.162z M264.17,423.736c35.644-1.75,70.105-14.892,97.817-37.464  c3.499-2.85,4.024-7.996,1.175-11.495c-2.848-3.498-7.995-4.024-11.495-1.175c-24.807,20.205-55.605,32.037-87.498,33.771v-39.104  c58.27-4.201,104.397-52.947,104.397-112.268S322.44,147.932,264.17,143.731v-39.112c79.81,4.259,143.433,70.527,143.433,151.381  c0,34.772-12.076,68.747-34.002,95.668c-2.849,3.499-2.324,8.645,1.175,11.495c1.516,1.234,3.34,1.836,5.154,1.836  c2.373,0,4.726-1.027,6.34-3.011c24.294-29.826,37.672-67.466,37.672-105.987c0-89.865-70.949-163.466-159.773-167.742V49.197  c110.356,4.307,198.81,95.412,198.81,206.803S374.525,458.496,264.17,462.803V423.736z M200.943,22.733  c-8.244,7.234-16.115,16.132-23.503,26.671c-12.034,17.167-22.347,37.963-30.632,61.569c-22.809-5.727-43.824-13.251-62.131-22.374  C115.923,56.627,156.007,33.337,200.943,22.733z M84.677,423.402c18.308-9.125,39.325-16.649,62.136-22.376  c4.211,11.964,8.972,23.298,14.258,33.869c11.558,23.116,25.031,41.4,39.792,54.353C155.96,478.635,115.905,455.353,84.677,423.402z   M264.17,495.505v-16.351C383.537,474.837,479.319,376.402,479.319,256S383.537,37.162,264.17,32.846V16.495  C392.549,20.819,495.66,126.587,495.66,256S392.549,491.181,264.17,495.505z"/>
<g>
</g>
<g>
</g>
<g>
</g>
<g>
</g>
<g>
</g>
<g>
</g>
<g>
</g>
<g>
</g>
<g>
</g>
<g>
</g>
<g>
</g>
<g>
</g>
<g>
</g>
<g>
</g>
<g>
</g>
</svg>
