<?xml version="1.0" encoding="iso-8859-1"?>
<!-- Generator: Adobe Illustrator 19.0.0, SVG Export Plug-In . SVG Version: 6.00 Build 0)  -->
<svg xmlns="http://www.w3.org/2000/svg" xmlns:xlink="http://www.w3.org/1999/xlink" version="1.1" id="Layer_1" x="0px" y="0px" viewBox="0 0 512 512" style="enable-background:new 0 0 512 512;" xml:space="preserve">
<polygon style="fill:#792A18;" points="503.83,226.043 416.681,193.362 471.149,438.468 503.83,405.787 "/>
<g>
	<polygon style="fill:#95341D;" points="8.17,226.043 8.17,405.787 106.213,503.83 405.787,503.83 471.149,438.468 471.149,193.362     "/>
	<path style="fill:#95341D;" d="M471.149,95.319l-32.681,81.702l32.681,81.702c17.974,0,32.681-14.706,32.681-32.681V128   C503.83,110.026,489.123,95.319,471.149,95.319z"/>
</g>
<path style="fill:#AB5D4A;" d="M40.851,95.319C22.877,95.319,8.17,110.026,8.17,128v98.043c0,17.974,14.706,32.681,32.681,32.681  h430.298V95.319H40.851z"/>
<path style="fill:#F5AC51;" d="M471.149,411.429L452.63,457.63l18.519,46.201c17.974,0,32.681-14.706,32.681-32.681v-65.362  C492.384,405.787,481.383,407.782,471.149,411.429z"/>
<g>
	<path style="fill:#FFD159;" d="M405.787,503.83h65.362v-92.401C433.168,424.964,405.787,461.352,405.787,503.83z"/>
	<path style="fill:#FFD159;" d="M8.17,405.787v65.362c0,17.974,14.706,32.681,32.681,32.681h65.362   C106.213,449.906,62.094,405.787,8.17,405.787z"/>
</g>
<path style="fill:#F1866D;" d="M245.106,269.617L256,340.426c18.05,0,32.681-14.631,32.681-32.681v-16.34L245.106,269.617z"/>
<g>
	<path style="fill:#F5AC51;" d="M223.319,291.404v16.34c0,18.05,14.631,32.681,32.681,32.681v-70.809L223.319,291.404z"/>
	<polygon style="fill:#F5AC51;" points="288.681,209.702 256,209.702 245.106,250.553 256,291.404 288.681,291.404  "/>
</g>
<rect x="223.319" y="209.702" style="fill:#FFD159;" width="32.681" height="81.702"/>
<polygon style="fill:#792A18;" points="315.915,8.17 305.021,24.511 315.915,40.851 348.596,40.851 348.596,8.17 "/>
<rect x="163.404" y="8.17" style="fill:#95341D;" width="152.511" height="32.681"/>
<path d="M471.149,87.149h-99.448c-2.466-6.952-7.983-12.469-14.935-14.935V8.17c0-4.513-3.657-8.17-8.17-8.17H163.404  c-4.513,0-8.17,3.657-8.17,8.17v64.044c-6.952,2.466-12.469,7.983-14.935,14.935H40.851C18.325,87.149,0,105.474,0,128v343.149  C0,493.675,18.325,512,40.851,512h430.298C493.675,512,512,493.675,512,471.149V128C512,105.474,493.675,87.149,471.149,87.149z   M171.574,87.149V49.021h168.851v38.128H171.574z M340.426,16.34v16.34H171.574V16.34H340.426z M16.34,128  c0-13.515,10.996-24.511,24.511-24.511h430.298c13.515,0,24.511,10.996,24.511,24.511v98.043c0,13.515-10.996,24.511-24.511,24.511  H296.851v-40.851c0-4.513-3.657-8.17-8.17-8.17h-65.362c-4.513,0-8.17,3.657-8.17,8.17v98.043c0,22.526,18.325,40.851,40.851,40.851  c22.526,0,40.851-18.325,40.851-40.851v-40.851h174.298c9.19,0,17.678-3.051,24.511-8.192v139.227  c-52.066,3.979-93.752,45.665-97.731,97.731H114.071c-3.979-52.066-45.665-93.752-97.731-97.731V258.702  c6.832,5.141,15.321,8.192,24.511,8.192h149.787c4.513,0,8.17-3.657,8.17-8.17c0-4.513-3.657-8.17-8.17-8.17H40.851  c-13.515,0-24.511-10.996-24.511-24.511V128z M280.511,283.234h-49.021v-65.362h49.021V283.234z M231.489,299.574h49.021v8.17  c0,13.515-10.996,24.511-24.511,24.511c-13.515,0-24.511-10.996-24.511-24.511V299.574z M16.34,471.149v-56.804  c43.046,3.9,77.414,38.268,81.314,81.314H40.851C27.336,495.66,16.34,484.664,16.34,471.149z M471.149,495.66h-56.804  c3.9-43.046,38.268-77.414,81.314-81.314v56.804C495.66,484.664,484.664,495.66,471.149,495.66z"/>
<circle cx="49.021" cy="136.17" r="8.17"/>
<circle cx="81.702" cy="168.851" r="8.17"/>
<circle cx="430.298" cy="381.277" r="8.17"/>
<g>
</g>
<g>
</g>
<g>
</g>
<g>
</g>
<g>
</g>
<g>
</g>
<g>
</g>
<g>
</g>
<g>
</g>
<g>
</g>
<g>
</g>
<g>
</g>
<g>
</g>
<g>
</g>
<g>
</g>
</svg>
