<?xml version="1.0" encoding="iso-8859-1"?>
<!-- Generator: Adobe Illustrator 19.0.0, SVG Export Plug-In . SVG Version: 6.00 Build 0)  -->
<svg xmlns="http://www.w3.org/2000/svg" xmlns:xlink="http://www.w3.org/1999/xlink" version="1.1" id="Layer_1" x="0px" y="0px" viewBox="0 0 512 512" style="enable-background:new 0 0 512 512;" xml:space="preserve">
<polygon style="fill:#E26142;" points="471.149,29.957 449.362,460.255 503.83,438.468 503.83,29.957 "/>
<polygon style="fill:#F1866D;" points="8.17,29.957 8.17,438.468 471.149,471.149 471.149,29.957 "/>
<polygon style="fill:#164370;" points="40.851,62.638 40.851,95.319 438.468,405.787 471.149,405.787 471.149,62.638 "/>
<rect x="40.851" y="95.319" style="fill:#276AAD;" width="397.617" height="310.468"/>
<polygon style="fill:#95341D;" points="471.149,438.468 449.362,460.255 471.149,482.043 503.83,482.043 503.83,438.468 "/>
<rect x="8.17" y="438.468" style="fill:#E26142;" width="462.979" height="43.574"/>
<g>
	<path style="fill:#FFFFFF;" d="M413.957,302.298c-45.169,0-67.173-32.272-88.452-63.483c-19.758-28.977-38.42-56.347-74.952-56.347   c-4.513,0-8.17-3.657-8.17-8.17s3.657-8.17,8.17-8.17c45.169,0,67.173,32.272,88.452,63.483   c19.758,28.977,38.42,56.347,74.952,56.347c4.513,0,8.17,3.657,8.17,8.17C422.128,298.641,418.471,302.298,413.957,302.298z"/>
	<path style="fill:#FFFFFF;" d="M250.553,302.298c-4.513,0-8.17-3.657-8.17-8.17c0-4.513,3.657-8.17,8.17-8.17   c36.533,0,55.195-27.37,74.952-56.347c21.278-31.21,43.283-63.483,88.452-63.483c4.513,0,8.17,3.657,8.17,8.17   s-3.657,8.17-8.17,8.17c-36.533,0-55.195,27.37-74.952,56.347C317.726,270.026,295.722,302.298,250.553,302.298z"/>
	<path style="fill:#FFFFFF;" d="M380.06,293.906c-4.513,0-8.17-3.657-8.17-8.17V182.69c0-4.513,3.657-8.17,8.17-8.17   c4.513,0,8.17,3.657,8.17,8.17v103.046C388.23,290.248,384.572,293.906,380.06,293.906z"/>
	<path style="fill:#FFFFFF;" d="M284.451,293.903c-4.513,0-8.17-3.657-8.17-8.17V182.694c0-4.513,3.657-8.17,8.17-8.17   c4.513,0,8.17,3.657,8.17,8.17v103.039C292.621,290.246,288.964,293.903,284.451,293.903z"/>
	<path style="fill:#FFFFFF;" d="M206.979,198.809H98.043c-4.513,0-8.17-3.657-8.17-8.17s3.657-8.17,8.17-8.17h108.936   c4.513,0,8.17,3.657,8.17,8.17S211.492,198.809,206.979,198.809z"/>
	<path style="fill:#FFFFFF;" d="M206.979,242.383H98.043c-4.513,0-8.17-3.657-8.17-8.17s3.657-8.17,8.17-8.17h108.936   c4.513,0,8.17,3.657,8.17,8.17S211.492,242.383,206.979,242.383z"/>
	<path style="fill:#FFFFFF;" d="M206.979,285.957H98.043c-4.513,0-8.17-3.657-8.17-8.17c0-4.513,3.657-8.17,8.17-8.17h108.936   c4.513,0,8.17,3.657,8.17,8.17C215.149,282.3,211.492,285.957,206.979,285.957z"/>
</g>
<path d="M471.149,413.957c4.513,0,8.17-3.657,8.17-8.17V62.638c0-4.513-3.657-8.17-8.17-8.17H40.851c-4.513,0-8.17,3.657-8.17,8.17  v343.149c0,4.513,3.657,8.17,8.17,8.17H471.149z M49.021,70.809h413.957v326.809H49.021V70.809z"/>
<path d="M503.83,21.787H8.17c-4.513,0-8.17,3.657-8.17,8.17v375.83c0,4.513,3.657,8.17,8.17,8.17s8.17-3.657,8.17-8.17V38.128  H495.66v392.17H8.17c-4.513,0-8.17,3.657-8.17,8.17v43.574c0,4.513,3.657,8.17,8.17,8.17h495.66c4.513,0,8.17-3.657,8.17-8.17  V29.957C512,25.444,508.343,21.787,503.83,21.787z M495.66,473.872H16.34v-27.234H495.66V473.872z"/>
<g>
</g>
<g>
</g>
<g>
</g>
<g>
</g>
<g>
</g>
<g>
</g>
<g>
</g>
<g>
</g>
<g>
</g>
<g>
</g>
<g>
</g>
<g>
</g>
<g>
</g>
<g>
</g>
<g>
</g>
</svg>
