<?xml version="1.0" encoding="iso-8859-1"?>
<!-- Generator: Adobe Illustrator 19.0.0, SVG Export Plug-In . SVG Version: 6.00 Build 0)  -->
<svg xmlns="http://www.w3.org/2000/svg" xmlns:xlink="http://www.w3.org/1999/xlink" version="1.1" id="Layer_1" x="0px" y="0px" viewBox="0 0 512 512" style="enable-background:new 0 0 512 512;" xml:space="preserve">
<path style="fill:#FFD159;" d="M305.021,449.362c0-18.05,0-70.809,0-70.809h-98.043v54.468l21.787,38.128l76.255,10.894h32.681  C319.652,482.043,305.021,467.411,305.021,449.362z"/>
<path style="fill:#FFE08F;" d="M272.34,449.362v-16.34h-65.362v16.34c0,18.05-14.631,32.681-32.681,32.681h130.723  C286.972,482.043,272.34,467.411,272.34,449.362z"/>
<path style="fill:#164370;" d="M471.149,29.957h-32.681l32.681,305.021h32.681V62.638C503.83,44.664,489.123,29.957,471.149,29.957z  "/>
<path style="fill:#276AAD;" d="M471.149,62.638c0-17.974-14.706-32.681-32.681-32.681H40.851c-17.974,0-32.681,14.706-32.681,32.681  v272.34h462.979V62.638z"/>
<path style="fill:#FFE08F;" d="M471.149,334.979l-32.681,65.362h32.681c17.974,0,32.681-14.706,32.681-32.681v-32.681H471.149z"/>
<path style="fill:#FFF3D4;" d="M471.149,367.66v-32.681H8.17v32.681c0,17.974,14.706,32.681,32.681,32.681h397.617  C456.443,400.34,471.149,385.634,471.149,367.66z"/>
<g>
	<circle style="fill:#FFFFFF;" cx="371.745" cy="108.936" r="16.34"/>
	<circle style="fill:#FFFFFF;" cx="256" cy="174.298" r="16.34"/>
	<circle style="fill:#FFFFFF;" cx="256" cy="239.66" r="16.34"/>
</g>
<path d="M471.149,21.787H40.851C18.325,21.787,0,40.112,0,62.638V367.66c0,22.526,18.325,40.851,40.851,40.851h256v40.851  c0,9.19,3.051,17.678,8.192,24.511h-98.086c5.141-6.832,8.192-15.321,8.192-24.511v-16.34c0-4.513-3.658-8.17-8.17-8.17  s-8.17,3.657-8.17,8.17v16.34c0,13.515-10.995,24.511-24.511,24.511h-65.363c-4.512,0-8.17,3.657-8.17,8.17  c0,4.513,3.658,8.17,8.17,8.17h294.128c4.513,0,8.17-3.657,8.17-8.17c0-4.513-3.657-8.17-8.17-8.17h-65.361  c-13.515,0-24.511-10.996-24.511-24.511v-40.851h157.957c22.526,0,40.851-18.325,40.851-40.851V62.638  C512,40.112,493.675,21.787,471.149,21.787z M40.851,38.128h430.298c13.515,0,24.511,10.996,24.511,24.511v264.17H16.34V62.638  C16.34,49.124,27.335,38.128,40.851,38.128z M471.149,392.17H40.851c-13.516,0-24.511-10.996-24.511-24.511v-24.511H495.66v24.511  C495.66,381.174,484.664,392.17,471.149,392.17z"/>
<circle cx="256" cy="367.66" r="8.17"/>
<path d="M40.851,149.787h50.383c2.167,0,4.245-0.861,5.777-2.392l30.288-30.289h221.341c3.373,9.509,12.455,16.34,23.105,16.34  c13.515,0,24.511-10.996,24.511-24.511s-10.996-24.511-24.511-24.511c-10.651,0-19.733,6.831-23.105,16.34H123.915  c-2.167,0-4.245,0.861-5.777,2.392L87.85,133.447H40.851c-4.512,0-8.17,3.657-8.17,8.17S36.339,149.787,40.851,149.787z   M371.745,100.766c4.506,0,8.17,3.665,8.17,8.17s-3.665,8.17-8.17,8.17s-8.17-3.665-8.17-8.17S367.239,100.766,371.745,100.766z"/>
<path d="M40.851,215.149h83.064c2.167,0,4.245-0.861,5.777-2.392l30.288-30.289h72.915c3.373,9.509,12.454,16.34,23.105,16.34  c13.515,0,24.511-10.996,24.511-24.511S269.515,149.787,256,149.787c-10.651,0-19.733,6.831-23.105,16.34h-76.299  c-2.167,0-4.245,0.861-5.777,2.392l-30.288,30.289h-79.68c-4.512,0-8.17,3.657-8.17,8.17S36.339,215.149,40.851,215.149z   M256.001,166.128c4.506,0,8.17,3.665,8.17,8.17s-3.665,8.17-8.17,8.17c-4.506,0-8.17-3.665-8.17-8.17  S251.495,166.128,256.001,166.128z"/>
<path d="M361.182,233.882c-1.533-1.532-3.61-2.392-5.778-2.392h-76.3c-3.373-9.509-12.455-16.34-23.105-16.34  c-13.516,0-24.511,10.996-24.511,24.511c0,13.515,10.995,24.511,24.511,24.511c10.651,0,19.733-6.831,23.105-16.34h72.916  l30.288,30.289c1.533,1.532,3.61,2.392,5.778,2.392h83.064c4.513,0,8.17-3.657,8.17-8.17c0-4.513-3.657-8.17-8.17-8.17h-79.68  L361.182,233.882z M255.999,247.83c-4.506,0-8.17-3.665-8.17-8.17s3.665-8.17,8.17-8.17c4.506,0,8.17,3.665,8.17,8.17  S260.504,247.83,255.999,247.83z"/>
<g>
</g>
<g>
</g>
<g>
</g>
<g>
</g>
<g>
</g>
<g>
</g>
<g>
</g>
<g>
</g>
<g>
</g>
<g>
</g>
<g>
</g>
<g>
</g>
<g>
</g>
<g>
</g>
<g>
</g>
</svg>
