<?xml version="1.0" encoding="iso-8859-1"?>
<!-- Generator: Adobe Illustrator 19.0.0, SVG Export Plug-In . SVG Version: 6.00 Build 0)  -->
<svg xmlns="http://www.w3.org/2000/svg" xmlns:xlink="http://www.w3.org/1999/xlink" version="1.1" id="Layer_1" x="0px" y="0px" viewBox="0 0 512 512" style="enable-background:new 0 0 512 512;" xml:space="preserve">
<path style="fill:#F5AC51;" d="M21.324,275.064v32.681c0,0,281.989,0,300.037,0c18.05,0,32.681-14.631,32.681-32.681l-166.36-10.894  L21.324,275.064z"/>
<path style="fill:#FFD159;" d="M321.362,242.383c-18.05,0-300.037,0-300.037,0v32.681h332.718  C354.043,257.014,339.411,242.383,321.362,242.383z"/>
<circle style="fill:#F5AC51;" cx="370.383" cy="275.064" r="16.34"/>
<polygon style="fill:#FFE08F;" points="8.17,460.255 8.17,492.936 503.83,492.936 503.83,384 "/>
<polygon style="fill:#FFFFFF;" points="8.17,351.319 8.17,460.255 427.574,460.255 503.83,384 503.83,351.319 "/>
<polygon style="fill:#164370;" points="130.723,46.298 130.723,89.872 348.596,193.598 381.277,187.915 381.277,46.298 "/>
<polygon style="fill:#276AAD;" points="130.723,89.872 130.723,187.915 256,209.702 348.596,193.598 348.596,89.872 "/>
<polygon style="fill:#164370;" points="471.149,19.064 449.362,38.128 471.149,57.191 503.83,57.191 503.83,19.064 "/>
<rect x="8.17" y="19.064" style="fill:#276AAD;" width="462.979" height="38.128"/>
<rect x="228.766" y="340.426" style="fill:#E26142;" width="54.468" height="163.404"/>
<polygon style="fill:#F5AC51;" points="427.574,384 503.83,384 427.574,460.255 "/>
<path d="M321.362,299.574H21.323c-4.513,0-8.17,3.657-8.17,8.17c0,4.513,3.657,8.17,8.17,8.17h300.039  c15.114,0,28.327-8.256,35.392-20.49c3.9,2.619,8.589,4.149,13.629,4.149c10.651,0,19.733-6.831,23.105-16.34h12.299  c40.546,0,73.532-32.986,73.532-73.532c0-4.513-3.657-8.17-8.17-8.17c-4.513,0-8.17,3.657-8.17,8.17  c0,31.535-25.657,57.191-57.191,57.191h-12.299c-3.373-9.509-12.455-16.34-23.105-16.34c-5.04,0-9.729,1.531-13.629,4.149  c-7.066-12.234-20.278-20.49-35.392-20.49H21.323c-4.513,0-8.17,3.657-8.17,8.17c0,4.513,3.657,8.17,8.17,8.17h300.039  c10.651,0,19.733,6.831,23.105,16.34H21.323c-4.513,0-8.17,3.657-8.17,8.17c0,4.513,3.657,8.17,8.17,8.17h323.144  C341.094,292.743,332.012,299.574,321.362,299.574z M370.383,266.894c4.506,0,8.17,3.665,8.17,8.17s-3.665,8.17-8.17,8.17  s-8.17-3.665-8.17-8.17S365.877,266.894,370.383,266.894z"/>
<path d="M503.83,343.149H291.404v-2.723c0-4.513-3.657-8.17-8.17-8.17h-54.468c-4.513,0-8.17,3.657-8.17,8.17v111.66H16.34v-92.596  h179.745c4.513,0,8.17-3.657,8.17-8.17c0-4.513-3.657-8.17-8.17-8.17H8.17c-4.513,0-8.17,3.657-8.17,8.17v141.617  c0,4.513,3.657,8.17,8.17,8.17h212.426v2.723c0,4.513,3.657,8.17,8.17,8.17h54.468c4.513,0,8.17-3.657,8.17-8.17v-2.723H503.83  c4.513,0,8.17-3.657,8.17-8.17V351.319C512,346.806,508.343,343.149,503.83,343.149z M495.66,359.489v16.34h-68.085  c-4.513,0-8.17,3.657-8.17,8.17v68.085h-128v-92.596H495.66z M484.106,392.17l-48.361,48.361V392.17H484.106z M16.34,484.766v-16.34  h204.255v16.34H16.34z M275.064,495.66h-38.128V348.596h38.128V495.66z M291.404,484.766v-16.34H427.6  c2.15-0.007,4.105-0.843,5.56-2.206c0.065-0.062,0.129-0.123,0.193-0.186l62.307-62.308v81.041H291.404z"/>
<circle cx="204.255" cy="114.383" r="8.17"/>
<circle cx="171.574" cy="147.064" r="8.17"/>
<path d="M503.83,10.894h-24.511V8.17c0-4.513-3.657-8.17-8.17-8.17c-4.513,0-8.17,3.657-8.17,8.17v2.723H8.17  c-4.513,0-8.17,3.657-8.17,8.17v38.128c0,4.513,3.657,8.17,8.17,8.17h364.936v115.68L256,201.41l-117.106-20.367V89.872  c0-4.513-3.657-8.17-8.17-8.17c-4.513,0-8.17,3.657-8.17,8.17v98.043c0,3.972,2.856,7.37,6.77,8.049L254.6,217.751  c0.463,0.081,0.931,0.121,1.4,0.121c0.468,0,0.937-0.04,1.4-0.121l125.277-21.787c3.914-0.68,6.77-4.076,6.77-8.049V65.362h73.532  v111.66c0,4.513,3.657,8.17,8.17,8.17c4.513,0,8.17-3.657,8.17-8.17V65.362h24.511c4.513,0,8.17-3.657,8.17-8.17V19.064  C512,14.551,508.343,10.894,503.83,10.894z M16.34,49.021V27.234h446.638v21.787H16.34z M495.66,49.021h-16.34V27.234h16.34V49.021z  "/>
<g>
</g>
<g>
</g>
<g>
</g>
<g>
</g>
<g>
</g>
<g>
</g>
<g>
</g>
<g>
</g>
<g>
</g>
<g>
</g>
<g>
</g>
<g>
</g>
<g>
</g>
<g>
</g>
<g>
</g>
</svg>
