<?xml version="1.0" encoding="iso-8859-1"?>
<!-- Generator: Adobe Illustrator 19.0.0, SVG Export Plug-In . SVG Version: 6.00 Build 0)  -->
<svg xmlns="http://www.w3.org/2000/svg" xmlns:xlink="http://www.w3.org/1999/xlink" version="1.1" id="Layer_1" x="0px" y="0px" viewBox="0 0 512 512" style="enable-background:new 0 0 512 512;" xml:space="preserve">
<polygon style="fill:#C1B8B5;" points="471.149,482.043 503.83,482.043 503.83,95.319 449.362,62.638 "/>
<polygon style="fill:#D8D1D0;" points="8.17,95.319 8.17,482.043 471.149,482.043 471.149,62.638 "/>
<polygon style="fill:#554F4E;" points="471.149,29.957 449.362,62.638 471.149,95.319 503.83,95.319 503.83,29.957 "/>
<rect x="8.17" y="29.957" style="fill:#7F7774;" width="462.979" height="65.362"/>
<polygon style="fill:#D1FDF2;" points="438.468,128 416.681,278.415 438.468,449.362 471.149,449.362 471.149,128 "/>
<rect x="40.851" y="128" style="fill:#FFFFFF;" width="397.617" height="321.362"/>
<polygon style="fill:#FFF3D4;" points="321.362,384 84.426,384 84.426,343.149 106.213,288.681 84.426,234.213 84.426,193.362   321.362,193.362 "/>
<polygon style="fill:#F5AC51;" points="84.426,288.681 84.426,343.149 179.745,343.149 201.532,277.787 "/>
<polygon style="fill:#FFD159;" points="84.426,234.213 84.426,288.681 201.532,288.681 179.745,234.213 "/>
<polygon style="fill:#F1866D;" points="179.745,288.681 179.745,343.149 234.213,315.915 256,277.787 "/>
<polygon style="fill:#FFAB97;" points="234.213,261.447 179.745,234.213 179.745,288.681 256,288.681 "/>
<polygon style="fill:#554F4E;" points="234.213,261.447 234.213,315.915 288.681,288.681 "/>
<path d="M117.106,334.979c-4.512,0-8.17,3.657-8.17,8.17s3.658,8.17,8.17,8.17h62.638c0.306,0,0.607-0.02,0.903-0.052  c0.073-0.008,0.145-0.023,0.218-0.034c0.229-0.032,0.454-0.069,0.675-0.119c0.08-0.019,0.159-0.04,0.239-0.061  c0.215-0.056,0.426-0.117,0.633-0.188c0.08-0.027,0.158-0.057,0.236-0.086c0.208-0.08,0.411-0.167,0.609-0.261  c0.046-0.022,0.094-0.037,0.139-0.06l108.936-54.468c2.767-1.385,4.516-4.213,4.516-7.307s-1.748-5.924-4.516-7.307l-108.936-54.468  c-0.046-0.023-0.094-0.038-0.139-0.06c-0.199-0.096-0.403-0.183-0.611-0.263c-0.078-0.029-0.157-0.059-0.235-0.086  c-0.207-0.072-0.418-0.134-0.633-0.188c-0.08-0.021-0.158-0.044-0.239-0.061c-0.222-0.05-0.448-0.087-0.675-0.119  c-0.073-0.01-0.145-0.025-0.218-0.034c-0.297-0.033-0.598-0.052-0.903-0.052h-62.638c-4.512,0-8.17,3.657-8.17,8.17  s3.658,8.17,8.17,8.17h54.468v38.128h-54.468c-4.512,0-8.17,3.657-8.17,8.17c0,4.513,3.658,8.17,8.17,8.17h54.468v38.128h-54.467  V334.979z M187.915,247.432l38.128,19.064v44.369l-38.128,19.064V247.432z M242.383,302.695v-28.028l28.028,14.014L242.383,302.695z  "/>
<path d="M503.83,21.787H8.17c-4.512,0-8.17,3.657-8.17,8.17v452.085c0,4.513,3.658,8.17,8.17,8.17h495.66  c4.513,0,8.17-3.657,8.17-8.17V29.957C512,25.444,508.343,21.787,503.83,21.787z M495.66,38.128v49.021H16.34V38.128H495.66z   M16.34,473.872V103.489H495.66v370.383H16.34z"/>
<path d="M471.149,119.83H40.851c-4.512,0-8.17,3.657-8.17,8.17v321.362c0,4.513,3.658,8.17,8.17,8.17h430.298  c4.513,0,8.17-3.657,8.17-8.17v-32.681c0-4.513-3.657-8.17-8.17-8.17c-4.513,0-8.17,3.657-8.17,8.17v24.511H49.021V136.17h413.957  V384c0,4.513,3.657,8.17,8.17,8.17c4.513,0,8.17-3.657,8.17-8.17V128C479.319,123.487,475.662,119.83,471.149,119.83z"/>
<path d="M84.426,185.191c-4.512,0-8.17,3.657-8.17,8.17V384c0,4.513,3.658,8.17,8.17,8.17h236.936c4.513,0,8.17-3.657,8.17-8.17  V193.362c0-4.513-3.657-8.17-8.17-8.17H84.426z M313.191,375.83H92.596V201.532h220.596V375.83z"/>
<path d="M427.574,185.191h-62.638c-4.513,0-8.17,3.657-8.17,8.17s3.657,8.17,8.17,8.17h62.638c4.513,0,8.17-3.657,8.17-8.17  S432.088,185.191,427.574,185.191z"/>
<path d="M427.574,228.766h-62.638c-4.513,0-8.17,3.657-8.17,8.17s3.657,8.17,8.17,8.17h62.638c4.513,0,8.17-3.657,8.17-8.17  S432.088,228.766,427.574,228.766z"/>
<path d="M427.574,272.34h-62.638c-4.513,0-8.17,3.657-8.17,8.17c0,4.513,3.657,8.17,8.17,8.17h62.638c4.513,0,8.17-3.657,8.17-8.17  C435.745,275.997,432.088,272.34,427.574,272.34z"/>
<circle cx="430.298" cy="62.638" r="8.17"/>
<circle cx="397.617" cy="62.638" r="8.17"/>
<circle cx="462.979" cy="62.638" r="8.17"/>
<g>
</g>
<g>
</g>
<g>
</g>
<g>
</g>
<g>
</g>
<g>
</g>
<g>
</g>
<g>
</g>
<g>
</g>
<g>
</g>
<g>
</g>
<g>
</g>
<g>
</g>
<g>
</g>
<g>
</g>
</svg>
