<?xml version="1.0" encoding="iso-8859-1"?>
<!-- Generator: Adobe Illustrator 19.0.0, SVG Export Plug-In . SVG Version: 6.00 Build 0)  -->
<svg xmlns="http://www.w3.org/2000/svg" xmlns:xlink="http://www.w3.org/1999/xlink" version="1.1" id="Layer_1" x="0px" y="0px" viewBox="0 0 511.999 511.999" style="enable-background:new 0 0 511.999 511.999;" xml:space="preserve">
<path style="fill:#A3FBE5;" d="M503.83,215.542v80.918l-50.666,5.066c-5.098,22.179-13.846,42.954-25.567,61.68l32.256,39.424  l-57.224,57.224l-39.424-32.256c-18.726,11.722-39.5,20.469-61.68,25.567l-5.066,50.666h-80.918l-5.066-50.666  c-22.179-5.098-42.954-13.846-61.68-25.567l-39.424,32.256l-57.224-57.224l32.256-39.424c-11.722-18.726-20.469-39.5-25.567-61.68  L8.17,296.459v-80.918l50.666-5.066c5.098-22.179,13.846-42.954,25.567-61.68l-32.256-39.424l57.224-57.224l39.424,32.256  c18.726-11.722,39.5-20.469,61.68-25.567l5.066-50.666h80.918l5.066,50.666c22.179,5.098,42.954,13.846,61.68,25.567l39.424-32.256  l57.224,57.224l-32.256,39.424c11.722,18.726,20.469,39.5,25.567,61.68L503.83,215.542z"/>
<path style="fill:#A99E9B;" d="M257.776,86.071V425.93c93.042-0.948,168.165-76.658,168.165-169.93S350.818,87.019,257.776,86.071z"/>
<path style="fill:#C1B8B5;" d="M257.776,86.071c74.992,1.177,135.484,76.8,135.484,169.93s-60.492,168.753-135.484,169.93  c-0.588,0.011-1.187,0.011-1.776,0.011c-93.848,0-169.94-76.081-169.94-169.94S162.151,86.06,256,86.06  C256.588,86.06,257.187,86.06,257.776,86.071z"/>
<path style="fill:#7F7774;" d="M256,147.064c60.165,0,108.936,48.771,108.936,108.936S316.165,364.937,256,364.937l-32.681-107.16  L256,147.064z"/>
<path style="fill:#A99E9B;" d="M256,147.064c-60.165,0-108.936,48.771-108.936,108.936S195.835,364.937,256,364.937V147.064z"/>
<path style="fill:#D1FDF2;" d="M230.585,256.001h-50.841c0,42.115,34.141,76.255,76.255,76.255L230.585,256.001z"/>
<path style="fill:#FFFFFF;" d="M179.745,256.001h50.841L256,179.745C213.885,179.745,179.745,213.886,179.745,256.001z"/>
<path style="fill:#2DD4AA;" d="M256,234.213v98.043c42.115,0,76.255-34.141,76.255-76.255L256,234.213z"/>
<g>
	<path style="fill:#4CF5CB;" d="M256,179.745v76.255h76.255C332.255,213.886,298.115,179.745,256,179.745z"/>
	<path style="fill:#4CF5CB;" d="M256,234.213v98.043c30.088,0,54.468-34.141,54.468-76.255L256,234.213z"/>
</g>
<g>
	<path style="fill:#A3FBE5;" d="M256,179.745v76.255h54.468C310.468,213.886,286.088,179.745,256,179.745z"/>
	<path style="fill:#A3FBE5;" d="M230.585,256.001L256,234.213l25.426,21.787c0,42.115-11.384,76.255-25.426,76.255   C241.969,332.256,230.585,298.115,230.585,256.001z"/>
</g>
<path style="fill:#D1FDF2;" d="M256,179.745c14.042,0,25.426,34.141,25.426,76.255h-50.84  C230.585,213.886,241.969,179.745,256,179.745z"/>
<path d="M504.642,207.408l-44.917-4.491c-4.868-18.741-12.299-36.659-22.152-53.415l28.603-34.96  c2.657-3.248,2.423-7.983-0.546-10.95L408.409,46.37c-2.969-2.967-7.701-3.205-10.951-0.546l-34.96,28.603  c-16.757-9.853-34.673-17.285-53.415-22.152l-4.491-44.917c-0.418-4.178-3.933-7.359-8.13-7.359h-80.923  c-4.198,0-7.712,3.181-8.13,7.356l-4.491,44.917c-18.741,4.868-36.658,12.3-53.415,22.152l-34.96-28.603  c-3.248-2.658-7.983-2.423-10.951,0.546l-57.223,57.224c-2.969,2.969-3.203,7.702-0.546,10.95l28.603,34.96  c-9.853,16.755-17.284,34.673-22.152,53.415l-44.917,4.491C3.181,207.826,0,211.341,0,215.538v80.924  c0,4.197,3.181,7.713,7.358,8.13l44.917,4.491c4.868,18.741,12.299,36.659,22.152,53.415l-28.603,34.96  c-2.657,3.248-2.423,7.983,0.546,10.95l57.222,57.222c2.969,2.969,7.702,3.205,10.951,0.546l34.96-28.603  c16.757,9.853,34.673,17.285,53.415,22.152l4.491,44.917c0.418,4.176,3.931,7.356,8.13,7.356h80.923c4.198,0,7.712-3.181,8.13-7.356  l4.491-44.917c18.741-4.868,36.658-12.3,53.415-22.152l34.96,28.603c3.247,2.657,7.982,2.422,10.951-0.546l57.222-57.222  c2.969-2.969,3.203-7.702,0.546-10.95l-28.603-34.96c9.853-16.755,17.284-34.673,22.152-53.415l44.917-4.491  c4.177-0.417,7.358-3.933,7.358-8.13v-80.924C512,211.341,508.819,207.826,504.642,207.408z M495.66,289.068l-43.308,4.331  c-3.487,0.349-6.364,2.882-7.149,6.299c-4.817,20.948-13.072,40.855-24.536,59.166c-1.86,2.971-1.617,6.797,0.602,9.509  l27.579,33.709l-46.766,46.765l-33.708-27.58c-2.711-2.221-6.538-2.462-9.509-0.601c-18.313,11.463-38.219,19.72-59.166,24.537  c-3.416,0.785-5.95,3.661-6.299,7.149l-4.332,43.308h-66.136l-4.331-43.308c-0.349-3.487-2.882-6.364-6.299-7.149  c-20.947-4.817-40.854-13.072-59.167-24.537c-2.97-1.861-6.797-1.617-9.509,0.601l-33.708,27.58l-46.766-46.765l27.579-33.709  c2.219-2.713,2.462-6.538,0.602-9.509c-11.463-18.311-19.72-38.217-24.536-59.166c-0.787-3.416-3.662-5.95-7.149-6.299  l-43.308-4.331v-66.136l43.308-4.331c3.487-0.349,6.364-2.882,7.149-6.299c4.817-20.948,13.072-40.855,24.536-59.167  c1.86-2.971,1.617-6.797-0.602-9.509l-27.579-33.709l46.766-46.765l33.708,27.58c2.711,2.22,6.539,2.462,9.509,0.601  c18.313-11.463,38.219-19.72,59.167-24.537c3.416-0.785,5.95-3.661,6.299-7.149l4.332-43.306h66.136l4.331,43.308  c0.349,3.487,2.882,6.364,6.299,7.149c20.947,4.817,40.854,13.072,59.166,24.537c2.971,1.861,6.797,1.618,9.509-0.601l33.708-27.58  l46.766,46.765l-27.579,33.709c-2.219,2.713-2.462,6.538-0.602,9.509c11.463,18.311,19.72,38.217,24.536,59.167  c0.786,3.416,3.662,5.95,7.149,6.299l43.308,4.331V289.068z"/>
<path d="M256.002,340.426c46.552,0,84.426-37.873,84.426-84.426s-37.874-84.426-84.426-84.426s-84.426,37.873-84.426,84.426  S209.45,340.426,256.002,340.426z M188.425,264.171h34.135c0.715,20.692,4.16,41.366,10.603,55.962  C209.289,311.605,191.542,290.11,188.425,264.171z M256.002,187.915c0.921,0,5.633,2.98,10.223,16.748  c3.891,11.674,6.276,26.774,6.873,43.167h-34.19c0.597-16.393,2.98-31.493,6.873-43.167  C250.369,190.896,255.082,187.915,256.002,187.915z M273.096,264.171c-0.597,16.393-2.98,31.493-6.873,43.167  c-4.589,13.767-9.302,16.748-10.223,16.748s-5.633-2.98-10.223-16.748c-3.891-11.674-6.276-26.774-6.873-43.167H273.096z   M278.849,320.13c6.439-14.594,9.881-35.271,10.595-55.959h34.135C320.462,290.107,302.718,311.6,278.849,320.13z M323.58,247.83  h-34.136c-0.715-20.686-4.154-41.364-10.591-55.958C302.719,200.403,320.462,221.895,323.58,247.83z M233.159,191.87  c-6.44,14.595-9.884,35.27-10.599,55.96h-34.135C191.542,221.893,209.288,200.398,233.159,191.87z"/>
<path d="M256.002,77.89c-44.586,0-87.251,16.556-120.134,46.619c-32.668,29.866-52.966,70.484-57.154,114.373  c-0.429,4.491,2.865,8.481,7.356,8.91c4.521,0.431,8.482-2.865,8.91-7.358c7.955-83.35,77.179-146.204,161.022-146.204  c89.2,0,161.77,72.57,161.77,161.77s-72.57,161.77-161.77,161.77c-83.845,0-153.069-62.856-161.022-146.208  c-0.428-4.493-4.432-7.785-8.909-7.358c-4.493,0.429-7.786,4.417-7.358,8.91c4.188,43.889,24.484,84.509,57.152,114.376  c32.885,30.063,75.549,46.62,120.136,46.62c98.21,0,178.111-79.9,178.111-178.111S354.212,77.89,256.002,77.89z"/>
<path d="M173.141,184.821c-3.633-2.679-8.745-1.907-11.425,1.723c-14.929,20.234-22.82,44.252-22.82,69.457  c0,64.573,52.534,117.106,117.106,117.106s117.106-52.533,117.106-117.106s-52.534-117.106-117.106-117.106  c-25.202,0-49.22,7.89-69.452,22.818c-3.632,2.679-4.403,7.793-1.724,11.425c2.68,3.632,7.794,4.404,11.424,1.724  c17.405-12.839,38.066-19.626,59.753-19.626c55.563,0,100.766,45.203,100.766,100.766s-45.203,100.766-100.766,100.766  s-100.766-45.203-100.766-100.766c0-21.688,6.787-42.351,19.629-59.756C177.543,192.614,176.772,187.499,173.141,184.821z"/>
<g>
</g>
<g>
</g>
<g>
</g>
<g>
</g>
<g>
</g>
<g>
</g>
<g>
</g>
<g>
</g>
<g>
</g>
<g>
</g>
<g>
</g>
<g>
</g>
<g>
</g>
<g>
</g>
<g>
</g>
</svg>
