<?xml version="1.0" encoding="iso-8859-1"?>
<!-- Generator: Adobe Illustrator 19.0.0, SVG Export Plug-In . SVG Version: 6.00 Build 0)  -->
<svg xmlns="http://www.w3.org/2000/svg" xmlns:xlink="http://www.w3.org/1999/xlink" version="1.1" id="Layer_1" x="0px" y="0px" viewBox="0 0 511.999 511.999" style="enable-background:new 0 0 511.999 511.999;" xml:space="preserve">
<polygon style="fill:#554F4E;" points="256,249.395 288.658,216.737 256,151.421 "/>
<polygon style="fill:#7F7774;" points="223.342,216.737 247.835,249.395 272.33,216.737 256,151.421 "/>
<polygon style="fill:#FFAB97;" points="272.33,314.712 321.316,282.054 288.658,216.737 272.33,216.737 "/>
<polygon style="fill:#FFCDC1;" points="190.684,282.054 256,351.116 288.658,282.054 272.33,216.737 223.342,216.737 "/>
<polygon style="fill:#F5AC51;" points="266.886,425.941 321.316,425.941 321.316,282.054 288.658,282.054 "/>
<polygon style="fill:#FFEAB2;" points="190.684,282.054 256,282.054 275.594,314.713 275.594,425.941 190.684,425.941 "/>
<rect x="256" y="282.058" style="fill:#FFD159;" width="32.658" height="143.883"/>
<path style="fill:#D8D1D0;" d="M503.83,215.542v80.918l-50.666,5.066c-5.098,22.179-13.846,42.954-25.567,61.68l32.256,39.424  l-57.224,57.224l-39.424-32.256c-18.726,11.722-39.5,20.469-61.68,25.567l-5.066,50.666h-80.918l-5.066-50.666  c-22.179-5.098-42.954-13.846-61.68-25.567l-39.424,32.256l-57.224-57.224l32.256-39.424c-11.722-18.726-20.469-39.5-25.567-61.68  L8.17,296.459v-80.918l50.666-5.066c5.098-22.179,13.846-42.954,25.567-61.68l-32.256-39.424l57.224-57.224l39.424,32.256  c18.726-11.722,39.5-20.469,61.68-25.567l5.066-50.666h80.918l5.066,50.666c22.179,5.098,42.954,13.846,61.68,25.567l39.424-32.256  l57.224,57.224l-32.256,39.424c11.722,18.726,20.469,39.5,25.567,61.68L503.83,215.542z M415.047,256.001  c0-87.843-71.204-159.047-159.047-159.047c-87.833,0-159.047,71.204-159.047,159.047S168.167,415.047,256,415.047  C343.843,415.047,415.047,343.843,415.047,256.001z"/>
<path style="fill:#7F7774;" d="M256,86.06c93.859,0,169.94,76.081,169.94,169.94S349.859,425.941,256,425.941l-10.894-16.34  L256,393.26c75.809,0,137.26-61.451,137.26-137.26S331.809,118.741,256,118.741l-10.894-16.34L256,86.06z"/>
<path style="fill:#A99E9B;" d="M256,86.06v32.681c-75.809,0-137.26,61.451-137.26,137.26S180.191,393.26,256,393.26v32.681  c-93.848,0-169.94-76.081-169.94-169.94S162.151,86.06,256,86.06z"/>
<path d="M504.642,207.408l-44.917-4.491c-4.868-18.741-12.299-36.659-22.152-53.415l28.603-34.96  c2.657-3.248,2.423-7.983-0.546-10.95L408.409,46.37c-2.967-2.967-7.702-3.205-10.951-0.546l-34.96,28.603  c-16.757-9.853-34.673-17.285-53.415-22.152l-4.491-44.917c-0.418-4.178-3.933-7.359-8.13-7.359h-80.923  c-4.198,0-7.712,3.181-8.13,7.356l-4.491,44.917c-18.741,4.868-36.658,12.3-53.415,22.152l-34.96-28.603  c-3.25-2.658-7.982-2.423-10.951,0.546l-57.223,57.224c-2.969,2.969-3.203,7.702-0.546,10.95l28.603,34.96  c-9.853,16.755-17.284,34.673-22.152,53.415l-44.917,4.491C3.181,207.826,0,211.341,0,215.538v80.924  c0,4.197,3.181,7.713,7.358,8.13l44.917,4.491c4.868,18.741,12.299,36.659,22.152,53.415l-28.603,34.96  c-2.657,3.248-2.423,7.983,0.546,10.95l57.222,57.222c2.969,2.969,7.701,3.205,10.951,0.546l34.96-28.603  c16.757,9.853,34.673,17.285,53.415,22.152l4.491,44.917c0.418,4.176,3.931,7.356,8.13,7.356h80.923c4.198,0,7.712-3.181,8.13-7.356  l4.491-44.917c18.741-4.868,36.658-12.3,53.415-22.152l34.96,28.603c3.247,2.657,7.982,2.422,10.951-0.546l57.222-57.222  c2.969-2.969,3.203-7.702,0.546-10.95l-28.603-34.96c9.853-16.755,17.284-34.673,22.152-53.415l44.917-4.491  c4.177-0.417,7.358-3.933,7.358-8.13v-80.924C512,211.341,508.819,207.826,504.642,207.408z M495.66,289.068l-43.308,4.331  c-3.487,0.349-6.364,2.882-7.149,6.299c-4.817,20.948-13.072,40.855-24.536,59.166c-1.86,2.971-1.617,6.797,0.602,9.509  l27.579,33.709l-46.766,46.765l-33.708-27.58c-2.711-2.221-6.538-2.462-9.509-0.601c-18.313,11.463-38.219,19.72-59.166,24.537  c-3.416,0.785-5.95,3.661-6.299,7.149l-4.332,43.308h-66.136l-4.331-43.308c-0.349-3.487-2.882-6.364-6.299-7.149  c-20.947-4.817-40.854-13.072-59.167-24.537c-2.97-1.861-6.797-1.617-9.509,0.601l-33.708,27.58l-46.766-46.765l27.579-33.709  c2.219-2.713,2.462-6.538,0.602-9.509c-11.463-18.311-19.72-38.217-24.536-59.166c-0.787-3.416-3.662-5.95-7.149-6.299  l-43.308-4.331v-66.136l43.308-4.331c3.487-0.349,6.364-2.882,7.149-6.299c4.817-20.948,13.072-40.855,24.536-59.167  c1.86-2.971,1.617-6.797-0.602-9.509l-27.579-33.709l46.766-46.765l33.708,27.58c2.711,2.22,6.539,2.462,9.509,0.601  c18.313-11.463,38.219-19.72,59.167-24.537c3.416-0.785,5.95-3.661,6.299-7.149l4.332-43.306h66.136l4.331,43.308  c0.349,3.487,2.882,6.364,6.299,7.149c20.947,4.817,40.854,13.072,59.166,24.537c2.971,1.861,6.797,1.618,9.509-0.601l33.708-27.58  l46.766,46.765l-27.579,33.709c-2.219,2.713-2.462,6.538-0.602,9.509c11.463,18.311,19.72,38.217,24.536,59.167  c0.786,3.416,3.662,5.95,7.149,6.299l43.308,4.331V289.068z"/>
<path d="M256.002,77.89c-44.586,0-87.251,16.556-120.134,46.619c-32.668,29.866-52.966,70.484-57.154,114.373  c-0.429,4.491,2.865,8.481,7.356,8.91c4.517,0.431,8.481-2.865,8.91-7.358c7.955-83.35,77.179-146.204,161.022-146.204  c89.2,0,161.77,72.57,161.77,161.77s-72.57,161.77-161.77,161.77c-83.845,0-153.069-62.856-161.022-146.208  c-0.429-4.493-4.435-7.785-8.909-7.358c-4.493,0.429-7.786,4.417-7.358,8.91c4.188,43.889,24.484,84.509,57.152,114.376  c32.885,30.063,75.549,46.62,120.136,46.62c98.21,0,178.111-79.9,178.111-178.111S354.212,77.89,256.002,77.89z"/>
<path d="M256,401.43c80.19,0,145.43-65.24,145.43-145.43S336.19,110.571,256,110.571s-145.43,65.24-145.43,145.43  S175.81,401.43,256,401.43z M228.391,224.908h55.218l24.488,48.976H203.903L228.391,224.908z M236.561,208.568L256,169.691  l19.439,38.877h-38.877V208.568z M198.854,290.225h114.291v81.504c-14.93,7.402-31.485,11.997-48.976,13.095v-70.111  c0-4.512-3.657-8.17-8.17-8.17s-8.17,3.658-8.17,8.17v70.111c-17.491-1.098-34.046-5.693-48.976-13.095L198.854,290.225  L198.854,290.225z M256,126.911c71.18,0,129.089,57.909,129.089,129.089c0,43.895-22.028,82.735-55.603,106.069v-80.015  c0-0.306-0.02-0.607-0.052-0.903c-0.008-0.073-0.023-0.145-0.034-0.218c-0.032-0.229-0.069-0.454-0.119-0.675  c-0.019-0.08-0.04-0.159-0.061-0.239c-0.056-0.215-0.117-0.426-0.188-0.633c-0.027-0.079-0.057-0.157-0.086-0.235  c-0.08-0.208-0.167-0.411-0.263-0.611c-0.022-0.046-0.037-0.094-0.06-0.139l-65.316-130.633c-1.385-2.768-4.213-4.516-7.307-4.516  c-3.095,0-5.924,1.748-7.307,4.516l-65.316,130.633c-0.023,0.046-0.038,0.094-0.06,0.139c-0.095,0.199-0.182,0.402-0.261,0.609  c-0.029,0.078-0.059,0.157-0.086,0.236c-0.072,0.207-0.134,0.418-0.188,0.633c-0.021,0.079-0.044,0.158-0.061,0.239  c-0.05,0.222-0.087,0.448-0.119,0.675c-0.01,0.073-0.025,0.145-0.034,0.218c-0.033,0.297-0.052,0.598-0.052,0.903v80.015  c-33.576-23.333-55.604-62.173-55.604-106.068C126.911,184.821,184.82,126.911,256,126.911z"/>
<g>
</g>
<g>
</g>
<g>
</g>
<g>
</g>
<g>
</g>
<g>
</g>
<g>
</g>
<g>
</g>
<g>
</g>
<g>
</g>
<g>
</g>
<g>
</g>
<g>
</g>
<g>
</g>
<g>
</g>
</svg>
