<?xml version="1.0" encoding="iso-8859-1"?>
<!-- Generator: Adobe Illustrator 19.0.0, SVG Export Plug-In . SVG Version: 6.00 Build 0)  -->
<svg xmlns="http://www.w3.org/2000/svg" xmlns:xlink="http://www.w3.org/1999/xlink" version="1.1" id="Layer_1" x="0px" y="0px" viewBox="0 0 512 512" style="enable-background:new 0 0 512 512;" xml:space="preserve">
<path style="fill:#D8D1D0;" d="M405.787,8.17H106.213C52.152,8.17,8.17,52.152,8.17,106.213v381.277  c0,9.024,7.316,16.34,16.34,16.34s16.34-7.316,16.34-16.34V106.213c0-35.949,29.413-65.362,65.362-65.362h299.574  c35.949,0,65.362,29.413,65.362,65.362v381.277c0,9.024,7.316,16.34,16.34,16.34s16.34-7.316,16.34-16.34V106.213  C503.83,52.152,459.848,8.17,405.787,8.17z"/>
<path style="fill:#68AEF4;" d="M127.319,320v85.787c23.691,0,42.894-19.202,42.894-42.894C170.213,339.202,151.011,320,127.319,320z  "/>
<path style="fill:#8FE1EA;" d="M127.319,320c7.892,0,14.298,19.202,14.298,42.894c0,23.691-6.405,42.894-14.298,42.894  c-23.691,0-42.894-19.202-42.894-42.894C84.426,339.202,103.628,320,127.319,320z"/>
<path style="fill:#68AEF4;" d="M213.106,320v85.787c23.691,0,42.894-19.202,42.894-42.894C256,339.202,236.798,320,213.106,320z"/>
<path style="fill:#8FE1EA;" d="M213.106,320c7.892,0,14.298,19.202,14.298,42.894c0,23.691-6.405,42.894-14.298,42.894  c-23.691,0-42.894-19.202-42.894-42.894C170.213,339.202,189.415,320,213.106,320z"/>
<path style="fill:#68AEF4;" d="M298.894,320v85.787c23.691,0,42.894-19.202,42.894-42.894C341.787,339.202,322.585,320,298.894,320z  "/>
<path style="fill:#8FE1EA;" d="M298.894,320c7.892,0,14.298,19.202,14.298,42.894c0,23.691-6.405,42.894-14.298,42.894  c-23.691,0-42.894-19.202-42.894-42.894C256,339.202,275.202,320,298.894,320z"/>
<path style="fill:#68AEF4;" d="M384.681,320v85.787c23.691,0,42.894-19.202,42.894-42.894C427.574,339.202,408.372,320,384.681,320z  "/>
<path style="fill:#8FE1EA;" d="M384.681,320c7.892,0,14.298,19.202,14.298,42.894c0,23.691-6.405,42.894-14.298,42.894  c-23.691,0-42.894-19.202-42.894-42.894C341.787,339.202,360.989,320,384.681,320z"/>
<path d="M405.787,0H106.213C47.646,0,0,47.646,0,106.213v381.277C0,501.005,10.995,512,24.511,512s24.511-10.995,24.511-24.511  V106.213c0-31.536,25.656-57.191,57.191-57.191h299.574c31.536,0,57.191,25.656,57.191,57.191v381.277  c0,13.516,10.995,24.511,24.511,24.511S512,501.005,512,487.489V106.213C512,47.646,464.353,0,405.787,0z M495.66,487.489  c0,4.506-3.665,8.17-8.17,8.17s-8.17-3.665-8.17-8.17V106.213c0-40.546-32.986-73.532-73.532-73.532H106.213  c-40.546,0-73.532,32.986-73.532,73.532v381.277c0,4.506-3.665,8.17-8.17,8.17s-8.17-3.665-8.17-8.17V106.213  c0-49.556,40.316-89.872,89.872-89.872h299.574c49.556,0,89.872,40.316,89.872,89.872V487.489z"/>
<path d="M392.851,312.491V73.532c0-4.512-3.658-8.17-8.17-8.17c-4.512,0-8.17,3.658-8.17,8.17v238.959  c-14.536,2.349-27.029,10.854-34.723,22.748c-7.694-11.894-20.187-20.399-34.723-22.748V73.532c0-4.512-3.658-8.17-8.17-8.17  c-4.512,0-8.17,3.658-8.17,8.17v238.959c-14.536,2.349-27.029,10.854-34.723,22.748c-7.694-11.894-20.187-20.399-34.723-22.748  V73.532c0-4.512-3.658-8.17-8.17-8.17c-4.512,0-8.17,3.658-8.17,8.17v238.959c-14.536,2.349-27.029,10.854-34.723,22.748  c-7.694-11.894-20.187-20.399-34.723-22.748V73.532c0-4.512-3.658-8.17-8.17-8.17c-4.512,0-8.17,3.658-8.17,8.17v238.959  c-24.286,3.924-42.894,25.027-42.894,50.403c0,28.157,22.907,51.064,51.064,51.064c17.97,0,33.79-9.339,42.894-23.41  c9.104,14.071,24.924,23.41,42.894,23.41s33.79-9.339,42.894-23.41c9.104,14.071,24.924,23.41,42.894,23.41  c17.97,0,33.79-9.339,42.894-23.41c9.104,14.071,24.923,23.41,42.894,23.41c28.157,0,51.064-22.907,51.064-51.064  C435.745,337.518,417.137,316.415,392.851,312.491z M127.319,397.617c-19.147,0-34.723-15.577-34.723-34.723  s15.577-34.723,34.723-34.723s34.723,15.577,34.723,34.723S146.466,397.617,127.319,397.617z M213.106,397.617  c-19.147,0-34.723-15.577-34.723-34.723s15.577-34.723,34.723-34.723s34.723,15.577,34.723,34.723S232.253,397.617,213.106,397.617z   M298.894,397.617c-19.147,0-34.723-15.577-34.723-34.723s15.577-34.723,34.723-34.723s34.723,15.577,34.723,34.723  S318.04,397.617,298.894,397.617z M384.681,397.617c-19.147,0-34.723-15.577-34.723-34.723s15.577-34.723,34.723-34.723  s34.723,15.577,34.723,34.723S403.827,397.617,384.681,397.617z"/>
<g>
</g>
<g>
</g>
<g>
</g>
<g>
</g>
<g>
</g>
<g>
</g>
<g>
</g>
<g>
</g>
<g>
</g>
<g>
</g>
<g>
</g>
<g>
</g>
<g>
</g>
<g>
</g>
<g>
</g>
</svg>
