<?xml version="1.0" encoding="iso-8859-1"?>
<!-- Generator: Adobe Illustrator 19.0.0, SVG Export Plug-In . SVG Version: 6.00 Build 0)  -->
<svg xmlns="http://www.w3.org/2000/svg" xmlns:xlink="http://www.w3.org/1999/xlink" version="1.1" id="Layer_1" x="0px" y="0px" viewBox="0 0 512 512" style="enable-background:new 0 0 512 512;" xml:space="preserve">
<polygon style="fill:#A3FBE5;" points="503.828,430.298 503.828,473.872 471.147,473.872 427.572,393.292 "/>
<polygon style="fill:#D1FDF2;" points="471.147,430.298 471.147,473.872 8.168,473.872 8.168,430.298 239.657,397.617 "/>
<polygon style="fill:#2DD4AA;" points="503.828,386.723 503.828,430.298 471.147,430.298 427.572,349.718 "/>
<polygon style="fill:#4CF5CB;" points="471.147,386.723 471.147,430.298 8.168,430.298 8.168,386.723 239.657,354.043 "/>
<polygon style="fill:#A3FBE5;" points="503.828,343.149 503.828,386.723 471.147,386.723 427.572,306.143 "/>
<polygon style="fill:#D1FDF2;" points="471.147,343.149 471.147,386.723 8.168,386.723 8.168,343.149 239.657,310.468 "/>
<polygon style="fill:#2DD4AA;" points="503.828,38.128 503.828,343.149 471.147,343.149 418.04,193.544 471.147,38.128 "/>
<polygon style="fill:#4CF5CB;" points="471.147,343.149 8.168,343.149 8.168,38.128 471.147,38.128 471.147,103.489 418.04,190.638   471.147,277.787 "/>
<path style="fill:#A3FBE5;" d="M471.147,103.489v174.298c-18.051,0-32.681,14.63-32.681,32.681H73.53  c0-18.051-14.63-32.681-32.681-32.681V103.489c18.051,0,32.681-14.63,32.681-32.681h364.936  C438.466,88.859,453.096,103.489,471.147,103.489z"/>
<path style="fill:#D1FDF2;" d="M230.583,190.638h-50.841c0,42.115,34.141,76.255,76.255,76.255L230.583,190.638z"/>
<path style="fill:#FFFFFF;" d="M179.742,190.638h50.841l25.415-76.255C213.883,114.383,179.742,148.524,179.742,190.638z"/>
<path style="fill:#2DD4AA;" d="M255.998,168.851v98.043c42.115,0,76.255-34.141,76.255-76.255L255.998,168.851z"/>
<g>
	<path style="fill:#4CF5CB;" d="M255.998,114.383v76.255h76.255C332.253,148.524,298.113,114.383,255.998,114.383z"/>
	<path style="fill:#4CF5CB;" d="M255.998,168.851v98.043c30.088,0,54.468-34.141,54.468-76.255L255.998,168.851z"/>
</g>
<path style="fill:#A3FBE5;" d="M255.998,114.383v76.255h54.468C310.466,148.524,286.086,114.383,255.998,114.383z"/>
<g>
	<path style="fill:#FFFFFF;" d="M110.296,174.298c9.031,0,16.34,7.321,16.34,16.34s-7.31,16.34-16.34,16.34   c-9.02,0-16.34-7.321-16.34-16.34S101.276,174.298,110.296,174.298z"/>
	<path style="fill:#FFFFFF;" d="M401.7,174.298c9.031,0,16.34,7.321,16.34,16.34s-7.31,16.34-16.34,16.34   c-9.02,0-16.34-7.321-16.34-16.34S392.68,174.298,401.7,174.298z"/>
</g>
<path style="fill:#A3FBE5;" d="M230.583,190.638l25.415-21.787l25.426,21.787c0,42.115-11.384,76.255-25.426,76.255  C241.967,266.894,230.583,232.753,230.583,190.638z"/>
<path style="fill:#D1FDF2;" d="M255.998,114.383c14.042,0,25.426,34.141,25.426,76.255h-50.84  C230.583,148.524,241.967,114.383,255.998,114.383z"/>
<path d="M503.83,454.809c-4.513,0-8.17,3.658-8.17,8.17v2.723H16.34v-2.723c0-4.512-3.657-8.17-8.17-8.17S0,458.467,0,462.979  v10.894c0,4.512,3.657,8.17,8.17,8.17h495.66c4.513,0,8.17-3.658,8.17-8.17v-10.894C512,458.467,508.343,454.809,503.83,454.809z"/>
<path d="M503.83,411.234c-4.513,0-8.17,3.658-8.17,8.17v2.723H16.34v-2.723c0-4.512-3.657-8.17-8.17-8.17S0,414.892,0,419.404  v10.894c0,4.512,3.657,8.17,8.17,8.17h495.66c4.513,0,8.17-3.658,8.17-8.17v-10.894C512,414.892,508.343,411.234,503.83,411.234z"/>
<path d="M503.83,367.66c-4.513,0-8.17,3.658-8.17,8.17v2.723H16.34v-2.723c0-4.512-3.657-8.17-8.17-8.17S0,371.318,0,375.83v10.894  c0,4.512,3.657,8.17,8.17,8.17h495.66c4.513,0,8.17-3.658,8.17-8.17V375.83C512,371.318,508.343,367.66,503.83,367.66z"/>
<path d="M503.83,29.957H8.17c-4.513,0-8.17,3.658-8.17,8.17v305.021c0,4.512,3.657,8.17,8.17,8.17h495.66  c4.513,0,8.17-3.658,8.17-8.17V38.128C512,33.616,508.343,29.957,503.83,29.957z M495.66,334.979H16.34V46.298H495.66V334.979z"/>
<path d="M256,275.064c46.552,0,84.426-37.873,84.426-84.426S302.552,106.213,256,106.213s-84.426,37.873-84.426,84.426  S209.448,275.064,256,275.064z M188.423,198.809h34.135c0.715,20.686,4.154,41.364,10.592,55.958  C209.282,246.236,191.54,224.744,188.423,198.809z M256,122.553c0.921,0,5.633,2.98,10.223,16.748  c3.891,11.674,6.276,26.774,6.873,43.167h-34.19c0.597-16.393,2.98-31.493,6.873-43.167  C250.367,125.534,255.079,122.553,256,122.553z M273.094,198.809c-0.597,16.393-2.98,31.493-6.873,43.167  c-4.589,13.767-9.302,16.748-10.223,16.748c-0.921,0-5.633-2.98-10.223-16.748c-3.891-11.674-6.276-26.774-6.873-43.167H273.094z   M278.84,254.77c6.441-14.595,9.888-35.269,10.603-55.962h34.135C320.46,224.748,302.712,246.243,278.84,254.77z M323.577,182.468  h-34.136c-0.715-20.691-4.159-41.366-10.601-55.962C302.713,135.035,320.46,156.529,323.577,182.468z M233.15,126.51  c-6.438,14.594-9.879,35.272-10.594,55.958h-34.133C191.54,156.533,209.283,135.041,233.15,126.51z"/>
<path d="M110.298,215.149c13.515,0,24.511-10.995,24.511-24.511c0-13.516-10.996-24.511-24.511-24.511s-24.511,10.995-24.511,24.511  C85.787,204.154,96.783,215.149,110.298,215.149z M110.298,182.468c4.506,0,8.17,3.665,8.17,8.17s-3.665,8.17-8.17,8.17  s-8.17-3.665-8.17-8.17S105.792,182.468,110.298,182.468z"/>
<path d="M401.702,215.149c13.515,0,24.511-10.995,24.511-24.511c0-13.516-10.996-24.511-24.511-24.511s-24.511,10.995-24.511,24.511  C377.191,204.154,388.188,215.149,401.702,215.149z M401.702,182.468c4.506,0,8.17,3.665,8.17,8.17s-3.665,8.17-8.17,8.17  s-8.17-3.665-8.17-8.17S397.197,182.468,401.702,182.468z"/>
<path d="M40.851,285.957c13.515,0,24.511,10.995,24.511,24.511c0,4.512,3.657,8.17,8.17,8.17h364.936c4.513,0,8.17-3.658,8.17-8.17  c0-13.516,10.996-24.511,24.511-24.511c4.513,0,8.17-3.658,8.17-8.17V103.489c0-4.512-3.657-8.17-8.17-8.17  c-13.515,0-24.511-10.995-24.511-24.511c0-4.512-3.657-8.17-8.17-8.17H73.532c-4.513,0-8.17,3.658-8.17,8.17  c0,13.516-10.996,24.511-24.511,24.511c-4.513,0-8.17,3.658-8.17,8.17v174.298C32.681,282.299,36.338,285.957,40.851,285.957z   M49.021,110.839c15.982-3.257,28.602-15.879,31.861-31.861h350.236c3.258,15.982,15.879,28.602,31.861,31.861v159.599  c-15.982,3.257-28.602,15.879-31.861,31.861H80.882c-3.258-15.983-15.879-28.603-31.861-31.862V110.839z"/>
<g>
</g>
<g>
</g>
<g>
</g>
<g>
</g>
<g>
</g>
<g>
</g>
<g>
</g>
<g>
</g>
<g>
</g>
<g>
</g>
<g>
</g>
<g>
</g>
<g>
</g>
<g>
</g>
<g>
</g>
</svg>
