<?xml version="1.0" encoding="iso-8859-1"?>
<!-- Generator: Adobe Illustrator 19.0.0, SVG Export Plug-In . SVG Version: 6.00 Build 0)  -->
<svg xmlns="http://www.w3.org/2000/svg" xmlns:xlink="http://www.w3.org/1999/xlink" version="1.1" id="Layer_1" x="0px" y="0px" viewBox="0 0 512 512" style="enable-background:new 0 0 512 512;" xml:space="preserve">
<polygon style="fill:#FFD159;" points="332.255,318.638 332.255,394.894 408.511,373.106 408.511,340.426 "/>
<polygon style="fill:#FFE08F;" points="364.936,318.638 364.936,394.894 103.489,373.106 103.489,340.426 "/>
<polygon style="fill:#FFEAB2;" points="408.511,73.532 408.511,340.426 364.936,340.426 310.468,206.979 364.936,73.532 "/>
<polygon style="fill:#FFD159;" points="351.319,384 351.319,460.255 427.574,438.468 427.574,405.787 "/>
<polygon style="fill:#FFE08F;" points="384,384 384,460.255 84.426,438.468 84.426,405.787 "/>
<path style="fill:#FFF3D4;" d="M321.362,73.532h-43.574L190.638,8.17h-87.149v332.255h261.447v-54.468  C364.936,297.995,321.362,73.532,321.362,73.532z"/>
<g>
	<path style="fill:#FFFFFF;" d="M190.638,8.17v277.787c0,12.037-9.75,21.787-21.787,21.787s-21.787-9.75-21.787-21.787V8.17H190.638   z"/>
	<path style="fill:#FFFFFF;" d="M277.787,73.532v212.426c0,12.037-9.75,21.787-21.787,21.787c-12.037,0-21.787-9.75-21.787-21.787   V40.851L277.787,73.532z"/>
	<path style="fill:#FFFFFF;" d="M364.936,73.532v212.426c0,12.037-9.75,21.787-21.787,21.787s-21.787-9.75-21.787-21.787V73.532   H364.936z"/>
</g>
<path style="fill:#FFF3D4;" d="M427.574,438.468h-32.681v65.362h32.681c18.051,0,32.681-14.63,32.681-32.681  S445.625,438.468,427.574,438.468z"/>
<path style="fill:#FFFFFF;" d="M394.894,438.468H84.426c-18.051,0-32.681,14.63-32.681,32.681s14.63,32.681,32.681,32.681h310.468  c18.051,0,32.681-14.63,32.681-32.681S412.944,438.468,394.894,438.468z"/>
<path style="fill:#FFF3D4;" d="M427.574,373.106h-32.681v32.681h32.681c9.02,0,16.34-7.321,16.34-16.34  C443.915,380.427,436.594,373.106,427.574,373.106z"/>
<path style="fill:#FFFFFF;" d="M394.894,373.106H84.426c-9.02,0-16.34,7.32-16.34,16.34c0,9.02,7.321,16.34,16.34,16.34h310.468  c9.02,0,16.34-7.321,16.34-16.34C411.234,380.427,403.914,373.106,394.894,373.106z"/>
<path d="M435.745,431.12v-18.568c9.509-3.373,16.34-12.454,16.34-23.105c0-13.516-10.996-24.511-24.511-24.511H84.426  c-13.515,0-24.511,10.995-24.511,24.511c0,10.651,6.831,19.733,16.34,23.105v18.568c-18.624,3.795-32.681,20.3-32.681,40.029  C43.574,493.675,61.9,512,84.426,512h343.149c22.526,0,40.851-18.325,40.851-40.851C468.426,451.421,454.368,434.916,435.745,431.12  z M84.426,381.277h343.149c4.506,0,8.17,3.665,8.17,8.17s-3.665,8.17-8.17,8.17H84.426c-4.506,0-8.17-3.665-8.17-8.17  S79.92,381.277,84.426,381.277z M427.574,495.66H84.426c-13.515,0-24.511-10.995-24.511-24.511s10.996-24.511,24.511-24.511h65.362  c4.513,0,8.17-3.658,8.17-8.17c0-4.512-3.657-8.17-8.17-8.17H92.596v-16.34h326.809v16.34H182.468c-4.513,0-8.17,3.658-8.17,8.17  c0,4.512,3.657,8.17,8.17,8.17h245.106c13.515,0,24.511,10.995,24.511,24.511S441.089,495.66,427.574,495.66z"/>
<path d="M84.426,348.596h343.149c4.513,0,8.17-3.658,8.17-8.17c0-4.512-3.657-8.17-8.17-8.17h-10.894V73.532  c0-4.512-3.657-8.17-8.17-8.17h-128L195.54,1.634C194.126,0.573,192.406,0,190.638,0h-87.149c-4.513,0-8.17,3.658-8.17,8.17v324.085  H84.426c-4.513,0-8.17,3.658-8.17,8.17C76.255,344.938,79.912,348.596,84.426,348.596z M111.66,16.34h76.255l84.97,63.728  c1.414,1.061,3.134,1.634,4.902,1.634H400.34v250.553H111.66V16.34z"/>
<path d="M190.638,40.851c-4.513,0-8.17,3.658-8.17,8.17v236.936c0,7.509-6.108,13.617-13.617,13.617s-13.617-6.108-13.617-13.617  V40.851c0-4.512-3.657-8.17-8.17-8.17s-8.17,3.658-8.17,8.17v245.106c0,16.519,13.439,29.957,29.957,29.957  s29.957-13.438,29.957-29.957V49.021C198.809,44.509,195.152,40.851,190.638,40.851z"/>
<path d="M277.787,98.043c-4.513,0-8.17,3.658-8.17,8.17v179.745c0,7.509-6.108,13.617-13.617,13.617  c-7.509,0-13.617-6.108-13.617-13.617V81.702c0-4.512-3.657-8.17-8.17-8.17s-8.17,3.658-8.17,8.17v204.255  c0,16.519,13.439,29.957,29.957,29.957s29.957-13.438,29.957-29.957V106.213C285.957,101.701,282.3,98.043,277.787,98.043z"/>
<path d="M364.936,98.043c-4.513,0-8.17,3.658-8.17,8.17v179.745c0,7.509-6.108,13.617-13.617,13.617s-13.617-6.108-13.617-13.617  V106.213c0-4.512-3.657-8.17-8.17-8.17c-4.513,0-8.17,3.658-8.17,8.17v179.745c0,16.519,13.439,29.957,29.957,29.957  s29.957-13.438,29.957-29.957V106.213C373.106,101.701,369.449,98.043,364.936,98.043z"/>
<g>
</g>
<g>
</g>
<g>
</g>
<g>
</g>
<g>
</g>
<g>
</g>
<g>
</g>
<g>
</g>
<g>
</g>
<g>
</g>
<g>
</g>
<g>
</g>
<g>
</g>
<g>
</g>
<g>
</g>
</svg>
