<?xml version="1.0" encoding="iso-8859-1"?>
<!-- Generator: Adobe Illustrator 19.0.0, SVG Export Plug-In . SVG Version: 6.00 Build 0)  -->
<svg xmlns="http://www.w3.org/2000/svg" xmlns:xlink="http://www.w3.org/1999/xlink" version="1.1" id="Layer_1" x="0px" y="0px" viewBox="0 0 512 512" style="enable-background:new 0 0 512 512;" xml:space="preserve">
<path style="fill:#F1866D;" d="M406.429,418.228h-32.681l1.307,50.71l31.374,0.033c14.009,0,25.371-11.362,25.371-25.371  C431.801,429.59,420.439,418.228,406.429,418.228z"/>
<g>
	<path style="fill:#FFAB97;" d="M373.749,418.228c14.009,0,25.371,11.362,25.371,25.371c0,13.573-10.665,24.663-24.064,25.339   c-0.065,0-0.12,0.011-0.185,0l-128.392-0.109v-50.601H373.749z"/>
	<path style="fill:#FFAB97;" d="M406.429,453.087h-32.681l1.307,50.71l31.374,0.033c14.009,0,25.371-11.362,25.371-25.371   S420.439,453.087,406.429,453.087z"/>
</g>
<path style="fill:#FFCDC1;" d="M373.749,453.087c14.009,0,25.371,11.362,25.371,25.371c0,13.573-10.665,24.663-24.064,25.339  c-0.065,0-0.12,0.011-0.185,0l-128.392-0.109c-5.785,0-14.652-2.331-19.696-5.164L64.043,398.031  c-5.044-2.843-13.911-5.164-19.707-5.164H13.551V291.404h117.618l132.02,161.683L373.749,453.087L373.749,453.087z"/>
<path style="fill:#FFAB97;" d="M185.086,313.735l96.047,96.047c9.908,9.908,9.908,25.97,0,35.878s-25.97,9.908-35.878,0  l-78.059-78.059h-43.667c-42.082,0-76.196-34.114-76.196-76.196h83.843C148.544,291.404,172.804,301.454,185.086,313.735z"/>
<path style="fill:#4CF5CB;" d="M397.07,385.55h-36.531v-54.468l49.555,21.787C410.094,369.078,397.07,385.55,397.07,385.55z"/>
<g>
	<path style="fill:#D1FDF2;" d="M373.562,352.869l-30.818-43.574l-41.586,43.574c0,16.21,13.024,32.681,13.024,32.681h46.357   C368.744,373.197,373.562,369.079,373.562,352.869z"/>
	<polygon style="fill:#D1FDF2;" points="373.562,352.869 347.925,276.614 410.094,276.614 410.094,352.869  "/>
</g>
<rect x="301.155" y="276.611" style="fill:#FFFFFF;" width="72.41" height="76.255"/>
<path style="fill:#FFD159;" d="M356.906,8.181l36.57,312.004h16.613l16.057-44.969c43.182-24.565,72.301-70.994,72.301-124.22  C498.448,72.541,435.199,8.867,356.906,8.181z"/>
<path style="fill:#FFE08F;" d="M356.907,8.181c54.218,0.991,97.966,64.556,97.966,142.815c0,53.226-20.24,99.655-50.241,124.22  l-11.155,44.969h-92.323l-16.046-44.969c-43.182-24.565-72.301-70.994-72.301-124.22c0-78.881,63.935-142.826,142.815-142.826  C356.046,8.17,356.481,8.17,356.907,8.181z"/>
<g>
	<path style="fill:#FFFFFF;" d="M377.412,295.677c-4.513,0-8.17-3.658-8.17-8.17v-54.468c0-7.509-6.108-13.617-13.616-13.617   c-7.509,0-13.618,6.108-13.618,13.617v54.468c0,4.512-3.657,8.17-8.17,8.17c-4.513,0-8.17-3.658-8.17-8.17v-54.468   c0-16.519,13.439-29.957,29.959-29.957c16.518,0,29.956,13.438,29.956,29.957v54.468   C385.582,292.019,381.925,295.677,377.412,295.677z"/>
	<path style="fill:#FFFFFF;" d="M377.413,252.102h-43.574c-3.453,0-6.533-2.171-7.694-5.423l-27.216-76.23   c-1.203-3.368-0.074-7.128,2.784-9.278c15.666-11.779,34.308-18.005,53.914-18.005c19.639,0,38.288,6.218,53.932,17.981   c2.858,2.149,3.986,5.909,2.784,9.278l-27.234,76.255C383.946,249.932,380.866,252.102,377.413,252.102z M339.597,235.762h32.059   l23.191-64.936c-11.712-7.423-25.154-11.32-39.221-11.32c-14.041,0-27.478,3.904-39.204,11.344L339.597,235.762z"/>
</g>
<path d="M406.425,410.06h-83.79c-4.513,0-8.17,3.658-8.17,8.17c0,4.512,3.657,8.17,8.17,8.17h83.79c9.484,0,17.2,7.716,17.2,17.2  c0,1.912-0.331,3.777-0.932,5.544c-4.822-2.686-10.367-4.222-16.267-4.222H291.988c7.69-12.877,6-29.838-5.078-40.915  l-96.047-96.047c-13.864-13.865-40.083-24.725-59.689-24.725H13.55c-4.512,0-8.17,3.658-8.17,8.17c0,4.512,3.658,8.17,8.17,8.17  h117.623c15.284,0,37.327,9.13,48.136,19.938l96.046,96.047c6.706,6.706,6.706,17.617,0,24.323c-6.704,6.706-17.617,6.706-24.323,0  l-78.059-78.059c-3.191-3.191-8.364-3.191-11.554,0c-3.191,3.191-3.191,8.364,0,11.554l78.059,78.059  c6.387,6.387,14.729,9.645,23.117,9.793c0.198,0.014,0.397,0.031,0.598,0.031h143.231c9.484,0,17.2,7.716,17.2,17.199  c0,9.484-7.716,17.2-17.192,17.2l-159.942-0.142c-4.342-0.003-11.711-1.924-15.577-4.047L68.335,391.074  c-0.095-0.059-0.191-0.115-0.289-0.17c-6.294-3.539-16.485-6.207-23.707-6.207H13.55c-4.512,0-8.17,3.658-8.17,8.17  c0,4.512,3.658,8.17,8.17,8.17h30.789c4.341,0,11.705,1.915,15.569,4.038l162.579,100.397c0.095,0.059,0.192,0.115,0.289,0.171  c6.292,3.537,16.481,6.209,23.7,6.216L406.425,512c18.495,0,33.54-15.046,33.54-33.54c0-6.376-1.79-12.341-4.891-17.423  c3.18-5.211,4.891-11.211,4.891-17.437C439.965,425.106,424.92,410.06,406.425,410.06z"/>
<path d="M355.625,0c-83.259,0-150.994,67.737-150.994,150.995c0,53.16,28.192,102.6,73.785,129.78l14.571,40.827v31.267  c0,18.83,14.18,36.984,14.783,37.747c1.55,1.96,3.911,3.104,6.41,3.104h82.892c2.499,0,4.86-1.144,6.41-3.104  c0.603-0.764,14.783-18.918,14.783-37.747v-31.268l14.572-40.827c45.594-27.18,73.785-76.62,73.785-129.78  C506.621,67.737,438.885,0,355.625,0z M401.923,344.698h-92.596v-16.34h92.596V344.698z M392.866,377.379h-74.495  c-2.583-3.908-5.973-9.992-7.779-16.34h90.055C398.832,367.368,395.443,373.463,392.866,377.379z M422.104,268.117  c-1.701,0.967-2.997,2.513-3.654,4.355l-14.115,39.546h-97.419l-14.114-39.546c-0.658-1.842-1.954-3.388-3.654-4.355  c-42.054-23.923-68.177-68.802-68.177-117.122C220.971,76.747,281.376,16.34,355.625,16.34S490.28,76.747,490.28,150.995  C490.281,199.315,464.157,244.193,422.104,268.117z"/>
<g>
</g>
<g>
</g>
<g>
</g>
<g>
</g>
<g>
</g>
<g>
</g>
<g>
</g>
<g>
</g>
<g>
</g>
<g>
</g>
<g>
</g>
<g>
</g>
<g>
</g>
<g>
</g>
<g>
</g>
</svg>
