<?xml version="1.0" encoding="iso-8859-1"?>
<!-- Generator: Adobe Illustrator 19.0.0, SVG Export Plug-In . SVG Version: 6.00 Build 0)  -->
<svg xmlns="http://www.w3.org/2000/svg" xmlns:xlink="http://www.w3.org/1999/xlink" version="1.1" id="Layer_1" x="0px" y="0px" viewBox="0 0 512 512" style="enable-background:new 0 0 512 512;" xml:space="preserve">
<path style="fill:#FFF3D4;" d="M119.83,236.933v212.426H87.149c-17.974,0-32.681-14.706-32.681-32.681V269.614  c0-17.974,14.706-32.681,32.681-32.681L119.83,236.933L119.83,236.933z"/>
<path style="fill:#FFE08F;" d="M457.532,269.614v147.064c0,17.974-14.706,32.681-32.681,32.681H392.17V236.933h32.681  C442.826,236.933,457.532,251.639,457.532,269.614z"/>
<path style="fill:#792A18;" d="M348.596,427.571v76.255h32.681c17.974,0,32.681-14.706,32.681-32.681v-21.787L348.596,427.571z"/>
<path style="fill:#95341D;" d="M98.043,449.358v21.787c0,17.974,14.706,32.681,32.681,32.681h32.681l21.787-36.312l21.787,36.312  h98.043l21.787-36.312l21.787,36.312c17.974,0,32.681-14.706,32.681-32.681v-21.787l-32.136-32.681H163.404L98.043,449.358z"/>
<polygon style="fill:#F5AC51;" points="294.128,171.571 381.277,449.358 413.957,449.358 413.957,171.571 "/>
<rect x="98.043" y="171.574" style="fill:#FFD159;" width="283.234" height="277.787"/>
<path style="fill:#E26142;" d="M348.596,57.188l-32.681,8.813l65.362,162.119c19.5-11.34,32.681-32.485,32.681-56.549V122.55  C413.957,86.601,384.545,57.188,348.596,57.188z"/>
<g>
	<path style="fill:#FFE08F;" d="M305.021,57.188L272.34,89.869V10.967C291.382,17.688,305.021,35.848,305.021,57.188z"/>
	<path style="fill:#FFE08F;" d="M239.66,10.967v78.902l-32.681-32.681C206.979,35.848,220.618,17.688,239.66,10.967z"/>
</g>
<path style="fill:#F1866D;" d="M348.596,66.001l-21.787,42.729l-21.787-51.542h-98.043l-21.787,51.542l-21.787-51.542  c-35.949,0-65.362,29.413-65.362,65.362v49.021c0,35.949,29.413,65.362,65.362,65.362l21.787-51.168l21.787,51.168h98.043  l21.787-51.168l21.787,51.168c11.885,0,23.051-3.214,32.681-8.813V122.55C381.277,98.486,368.095,77.341,348.596,66.001z"/>
<polygon style="fill:#FFD159;" points="315.915,57.188 348.596,66.001 348.596,57.188 "/>
<g>
	<rect x="305.021" y="334.979" style="fill:#FFF3D4;" width="43.574" height="168.851"/>
	<rect x="163.404" y="334.979" style="fill:#FFF3D4;" width="43.574" height="168.851"/>
	<rect x="305.021" y="236.936" style="fill:#FFF3D4;" width="43.574" height="54.468"/>
	<rect x="163.404" y="236.936" style="fill:#FFF3D4;" width="43.574" height="54.468"/>
</g>
<g>
	<path style="fill:#FFFFFF;" d="M348.596,291.401v43.574c0,12.037-9.75,21.787-21.787,21.787s-21.787-9.75-21.787-21.787v-43.574   H348.596z"/>
	<path style="fill:#FFFFFF;" d="M206.979,291.401v43.574c0,12.037-9.75,21.787-21.787,21.787s-21.787-9.75-21.787-21.787v-43.574   H206.979z"/>
</g>
<g>
	<rect x="163.404" y="57.191" style="fill:#FFE08F;" width="43.574" height="179.745"/>
	<path style="fill:#FFE08F;" d="M348.596,66.001v170.932h-43.574V57.188h10.894C327.8,57.188,338.966,60.402,348.596,66.001z"/>
</g>
<path d="M424.851,228.766h-2.723V122.553c0-40.546-32.986-73.532-73.532-73.532h-35.997c-3.045-21.189-17.742-38.659-37.375-45.688  c-0.198-0.075-0.398-0.145-0.604-0.205C268.779,1.111,262.519,0,256,0c-6.519,0-12.779,1.111-18.62,3.129  c-0.205,0.06-0.405,0.13-0.604,0.205c-19.631,7.029-34.329,24.499-37.375,45.688h-35.997c-40.546,0-73.532,32.986-73.532,73.532  v106.213h-2.723c-22.526,0-40.851,18.325-40.851,40.851v147.064c0,22.526,18.325,40.851,40.851,40.851h2.723v13.617  c0,22.526,18.325,40.851,40.851,40.851h250.553c22.526,0,40.851-18.325,40.851-40.851v-13.617h2.723  c22.526,0,40.851-18.325,40.851-40.851V269.617C465.702,247.091,447.377,228.766,424.851,228.766z M296.029,49.021h-15.518V24.532  C288.346,30.428,294.001,39.072,296.029,49.021z M264.17,17.163v31.858h-16.34V17.163c2.641-0.538,5.373-0.822,8.17-0.822  S261.53,16.625,264.17,17.163z M231.489,24.532v24.489h-15.518C217.999,39.072,223.654,30.428,231.489,24.532z M106.213,122.553  c0-31.536,25.656-57.191,57.191-57.191h185.191c31.536,0,57.191,25.656,57.191,57.191v49.021c0,28.761-21.344,52.621-49.021,56.599  V89.872c0-4.512-3.658-8.17-8.17-8.17s-8.17,3.658-8.17,8.17v138.894h-27.234V89.872c0-4.512-3.658-8.17-8.17-8.17  c-4.512,0-8.17,3.658-8.17,8.17v138.894h-81.702V89.872c0-4.512-3.658-8.17-8.17-8.17s-8.17,3.658-8.17,8.17v138.894h-27.234V89.872  c0-4.512-3.658-8.17-8.17-8.17s-8.17,3.658-8.17,8.17v138.301c-27.677-3.977-49.021-27.838-49.021-56.599V122.553z M171.574,299.571  h27.234v35.404c0,7.509-6.108,13.617-13.617,13.617s-13.617-6.108-13.617-13.617V299.571z M171.574,245.106h27.234v38.124h-27.234  V245.106z M296.851,299.571v141.62h-81.702v-141.62c4.512,0,8.17-3.658,8.17-8.17c0-4.512-3.658-8.17-8.17-8.17v-38.124h81.702  v38.124c-4.512,0-8.17,3.658-8.17,8.17C288.681,295.913,292.339,299.571,296.851,299.571z M215.149,457.532h81.702v38.128h-81.702  V457.532z M313.191,299.571h27.234v35.404c0,7.509-6.108,13.617-13.617,13.617s-13.617-6.108-13.617-13.617V299.571z   M313.191,283.231v-38.124h27.234v38.124H313.191z M87.149,441.191c-13.516,0-24.511-10.995-24.511-24.511V269.617  c0-13.516,10.995-24.511,24.511-24.511h2.723v196.085H87.149z M106.213,471.149V217.721c11.876,14.69,29.279,24.727,49.021,26.92  v38.588c-4.512,0-8.17,3.658-8.17,8.17c0,4.512,3.658,8.17,8.17,8.17v35.404c0,16.519,13.438,29.957,29.957,29.957  c4.902,0,9.529-1.191,13.617-3.288V495.66h-27.234V384.89c0-4.512-3.658-8.17-8.17-8.17s-8.17,3.658-8.17,8.17v56.301h-24.511  c-4.512,0-8.17,3.658-8.17,8.17c0,4.512,3.658,8.17,8.17,8.17h24.511v38.128h-24.511  C117.208,495.66,106.213,484.665,106.213,471.149z M405.787,471.149c0,13.516-10.995,24.511-24.511,24.511h-24.511v-38.128h24.511  c4.512,0,8.17-3.658,8.17-8.17c0-4.512-3.658-8.17-8.17-8.17h-24.511V384.89c0-4.512-3.658-8.17-8.17-8.17s-8.17,3.658-8.17,8.17  v110.77h-27.234V361.645c4.088,2.096,8.715,3.288,13.617,3.288c16.519,0,29.957-13.438,29.957-29.957v-35.404  c4.512,0,8.17-3.658,8.17-8.17c0-4.512-3.658-8.17-8.17-8.17v-38.588c19.742-2.193,37.145-12.23,49.021-26.92V471.149z   M449.362,416.681c0,13.516-10.995,24.511-24.511,24.511h-2.723V245.106h2.723c13.516,0,24.511,10.995,24.511,24.511V416.681z"/>
<g>
</g>
<g>
</g>
<g>
</g>
<g>
</g>
<g>
</g>
<g>
</g>
<g>
</g>
<g>
</g>
<g>
</g>
<g>
</g>
<g>
</g>
<g>
</g>
<g>
</g>
<g>
</g>
<g>
</g>
</svg>
