<?xml version="1.0" encoding="iso-8859-1"?>
<!-- Generator: Adobe Illustrator 19.0.0, SVG Export Plug-In . SVG Version: 6.00 Build 0)  -->
<svg xmlns="http://www.w3.org/2000/svg" xmlns:xlink="http://www.w3.org/1999/xlink" version="1.1" id="Layer_1" x="0px" y="0px" viewBox="0 0 512.001 512.001" style="enable-background:new 0 0 512.001 512.001;" xml:space="preserve">
<path style="fill:#C1B8B5;" d="M394.894,124.392v45.35l-28.4,2.843c-2.854,12.419-7.756,24.064-14.325,34.555l18.083,22.103  l-32.071,32.071l-22.103-18.083c-10.491,6.569-22.136,11.471-34.565,14.336l-2.832,28.389H233.32l-2.832-28.389  c-12.43-2.865-24.075-7.767-34.565-14.336l-22.103,18.083l-32.071-32.071l18.083-22.103c-6.569-10.491-11.471-22.136-14.325-34.555  l-28.4-2.843v-45.35l28.4-2.843c2.854-12.43,7.756-24.075,14.325-34.565l-18.083-22.092l32.071-32.071l22.103,18.073  c10.491-6.569,22.136-11.471,34.565-14.325l2.832-28.4h45.361l2.832,28.4c12.43,2.854,24.075,7.756,34.565,14.325l22.103-18.073  l32.071,32.071l-18.083,22.092c6.569,10.491,11.471,22.136,14.325,34.565L394.894,124.392z M319.184,147.062  c0-34.841-28.342-63.183-63.183-63.183s-63.183,28.342-63.183,63.183s28.342,63.183,63.183,63.183S319.184,181.903,319.184,147.062z  "/>
<path style="fill:#7F7774;" d="M256.001,223.317l-10.894-13.072l10.894-19.609c24.064,0,43.574-19.51,43.574-43.574  s-19.51-43.574-43.574-43.574l-10.894-19.609l10.894-13.072c42.049,0,76.255,34.206,76.255,76.255S298.05,223.317,256.001,223.317z"/>
<path style="fill:#A99E9B;" d="M256.001,190.636v32.681c-42.049,0-76.255-34.206-76.255-76.255s34.206-76.255,76.255-76.255v32.681  c-24.064,0-43.574,19.51-43.574,43.574S231.937,190.636,256.001,190.636z"/>
<path style="fill:#276AAD;" d="M334.979,336.284l-21.787,9.085l95.319,158.459h32.681  C441.192,429.805,397.759,365.925,334.979,336.284z"/>
<path style="fill:#3891E9;" d="M408.511,503.828h-73.532l-21.787-79.229l21.787-79.229  C379.055,377.832,408.511,436.647,408.511,503.828z"/>
<path style="fill:#D8D1D0;" d="M292.527,322.242l-11.58,1.536l54.032,21.591v-9.085  C321.624,329.976,307.397,325.216,292.527,322.242z"/>
<path style="fill:#3891E9;" d="M177.022,336.284l21.787,83.772l-21.787,83.772H70.809  C70.809,429.805,114.242,365.925,177.022,336.284z"/>
<path style="fill:#F0EBEA;" d="M291.841,323.778l-72.366-1.536c-14.87,2.974-29.097,7.734-42.452,14.042v167.544h157.957V345.369  C321.776,335.652,307.266,328.288,291.841,323.778z"/>
<path style="fill:#95341D;" d="M292.527,322.242c-7.321-1.468-14.796-2.503-22.399-3.076l-14.486,15.811v54.468l16.7-21.787  L292.527,322.242z"/>
<g>
	<path style="fill:#E26142;" d="M270.127,319.166c-4.016-0.303-8.069-0.477-12.155-0.519c-0.654-0.011-1.318-0.011-1.972-0.011   c-12.506,0-24.718,1.242-36.526,3.606l20.186,45.415l15.981,21.787l6.645-21.787L270.127,319.166z"/>
	<polygon style="fill:#E26142;" points="272.341,367.657 262.286,367.657 256.001,503.828 291.405,466.266  "/>
</g>
<polygon style="fill:#F1866D;" points="262.286,367.657 239.66,367.657 220.596,466.266 256.001,503.828 269.618,466.266 "/>
<path d="M256.001,198.809c28.531,0,51.745-23.213,51.745-51.745s-23.213-51.745-51.745-51.745s-51.745,23.213-51.745,51.745  S227.469,198.809,256.001,198.809z M256.001,111.66c19.521,0,35.404,15.883,35.404,35.404s-15.883,35.404-35.404,35.404  s-35.404-15.883-35.404-35.404S236.479,111.66,256.001,111.66z"/>
<path d="M116.293,177.87l22.712,2.271c2.58,9.145,6.225,17.935,10.887,26.25l-14.462,17.677c-2.658,3.248-2.422,7.983,0.546,10.95  l32.069,32.069c2.967,2.967,7.702,3.205,10.95,0.546l17.678-14.462c8.314,4.661,17.105,8.307,26.25,10.888l2.27,22.711  c0.417,4.177,3.933,7.358,8.13,7.358h45.353c4.197,0,7.713-3.181,8.13-7.358l2.27-22.711c9.145-2.58,17.936-6.227,26.25-10.888  l17.678,14.462c3.248,2.658,7.983,2.423,10.95-0.546l32.069-32.069c2.969-2.969,3.204-7.702,0.546-10.95l-14.462-17.677  c4.662-8.315,8.307-17.105,10.887-26.25l22.712-2.271c4.177-0.418,7.356-3.933,7.356-8.13v-45.352c0-4.197-3.18-7.712-7.356-8.13  l-22.712-2.271c-2.58-9.145-6.225-17.934-10.887-26.25l14.462-17.677c2.658-3.248,2.422-7.983-0.546-10.951l-32.069-32.069  c-2.967-2.967-7.701-3.205-10.951-0.546l-17.677,14.463c-8.314-4.661-17.105-8.307-26.25-10.888l-2.27-22.711  C286.389,3.181,282.874,0,278.677,0h-45.353c-4.197,0-7.713,3.181-8.13,7.358l-2.27,22.711c-9.145,2.58-17.936,6.227-26.25,10.888  l-17.676-14.463c-3.248-2.658-7.983-2.422-10.951,0.546l-32.07,32.07c-2.969,2.969-3.204,7.702-0.546,10.951l14.462,17.677  c-4.662,8.315-8.307,17.105-10.887,26.25l-22.712,2.271c-4.177,0.418-7.356,3.933-7.356,8.13v45.352  C108.937,173.937,112.117,177.453,116.293,177.87z M125.277,131.781l21.038-2.104c3.487-0.349,6.364-2.882,7.149-6.299  c2.61-11.349,7.083-22.135,13.296-32.059c1.86-2.971,1.618-6.797-0.601-9.509L152.76,65.435l21.613-21.613l16.376,13.399  c2.714,2.22,6.538,2.462,9.509,0.601c9.922-6.212,20.708-10.686,32.059-13.296c3.415-0.785,5.949-3.661,6.299-7.149l2.102-21.037  h30.565l2.104,21.038c0.349,3.488,2.882,6.364,6.299,7.149c11.35,2.61,22.137,7.084,32.059,13.296  c2.971,1.86,6.795,1.617,9.509-0.601l16.376-13.399l21.613,21.613l-13.399,16.376c-2.219,2.713-2.461,6.538-0.601,9.509  c6.213,9.923,10.686,20.71,13.296,32.059c0.785,3.416,3.661,5.95,7.149,6.299l21.037,2.102v30.565l-21.038,2.104  c-3.487,0.349-6.364,2.882-7.149,6.299c-2.61,11.349-7.083,22.135-13.296,32.059c-1.86,2.971-1.618,6.797,0.601,9.509l13.399,16.376  l-21.613,21.613l-16.377-13.399c-2.712-2.22-6.538-2.461-9.509-0.601c-9.922,6.212-20.708,10.686-32.059,13.296  c-3.415,0.785-5.949,3.661-6.299,7.149l-2.101,21.037h-30.565l-2.104-21.037c-0.349-3.488-2.882-6.364-6.299-7.149  c-11.35-2.61-22.137-7.084-32.059-13.296c-2.972-1.861-6.798-1.618-9.509,0.601l-16.377,13.399l-21.613-21.613l13.399-16.376  c2.219-2.713,2.461-6.538,0.601-9.509c-6.213-9.923-10.686-20.71-13.296-32.059c-0.785-3.416-3.661-5.95-7.149-6.299l-21.036-2.104  V131.781z"/>
<path d="M256.001,310.468c-106.62,0-193.362,86.742-193.362,193.362c0,4.512,3.658,8.17,8.17,8.17c4.512,0,8.17-3.658,8.17-8.17  c0-65.948,36.253-123.579,89.872-154.035V503.83c0,4.512,3.658,8.17,8.17,8.17s8.17-3.658,8.17-8.17V341.605  c9.447-4.14,19.32-7.477,29.536-9.926l16.423,36.952l-18.577,96.09c-0.499,2.58,0.273,5.243,2.076,7.155l35.404,37.559  c1.544,1.637,3.695,2.565,5.946,2.565c2.251,0,4.402-0.928,5.946-2.565l35.404-37.559c1.803-1.912,2.575-4.575,2.076-7.155  l-18.577-96.09l16.423-36.952c10.216,2.449,20.089,5.788,29.536,9.926V503.83c0,4.512,3.658,8.17,8.17,8.17s8.17-3.658,8.17-8.17  V349.795c53.619,30.455,89.872,88.088,89.872,154.035c0,4.512,3.658,8.17,8.17,8.17c4.512,0,8.17-3.658,8.17-8.17  C449.362,397.21,362.621,310.468,256.001,310.468z M256.001,326.809c8.41,0,16.68,0.603,24.781,1.743l-13.75,30.938H244.97  l-13.75-30.938C239.32,327.412,247.591,326.809,256.001,326.809z M282.589,463.713l-26.588,28.206l-26.588-28.206l16.99-87.883  h19.197L282.589,463.713z"/>
<circle cx="367.66" cy="471.149" r="8.17"/>
<circle cx="367.66" cy="427.574" r="8.17"/>
<g>
</g>
<g>
</g>
<g>
</g>
<g>
</g>
<g>
</g>
<g>
</g>
<g>
</g>
<g>
</g>
<g>
</g>
<g>
</g>
<g>
</g>
<g>
</g>
<g>
</g>
<g>
</g>
<g>
</g>
</svg>
