<?xml version="1.0" encoding="iso-8859-1"?>
<!-- Generator: Adobe Illustrator 19.0.0, SVG Export Plug-In . SVG Version: 6.00 Build 0)  -->
<svg xmlns="http://www.w3.org/2000/svg" xmlns:xlink="http://www.w3.org/1999/xlink" version="1.1" id="Layer_1" x="0px" y="0px" viewBox="0 0 512 512" style="enable-background:new 0 0 512 512;" xml:space="preserve">
<polygon style="fill:#E26142;" points="503.83,122.55 503.83,503.827 471.149,503.827 416.681,318.635 471.149,122.55 "/>
<path style="fill:#F1866D;" d="M471.149,122.55v381.277H8.17V122.55C8.17,122.55,471.149,122.55,471.149,122.55z"/>
<polygon style="fill:#F5AC51;" points="503.83,8.167 503.83,40.848 471.149,40.848 449.362,24.507 471.149,8.167 "/>
<path style="fill:#FFD159;" d="M471.149,8.167v32.681H24.511c-9.02,0-16.34-7.31-16.34-16.34c0-9.02,7.321-16.34,16.34-16.34  C24.511,8.167,471.149,8.167,471.149,8.167z"/>
<path style="fill:#95341D;" d="M190.638,220.592L256,460.252c13.17,0,24.162-9.358,26.689-21.787h155.779V220.592L190.638,220.592  L190.638,220.592z"/>
<path style="fill:#AB5D4A;" d="M106.213,220.592H73.532v217.872h155.779c2.527,12.43,13.519,21.787,26.689,21.787v-40.023  L106.213,220.592z"/>
<polygon style="fill:#FFCDC1;" points="373.106,187.912 340.426,302.295 373.106,405.784 405.787,405.784 405.787,187.912 "/>
<path style="fill:#FFEEEA;" d="M283.234,187.912c-11.34,0-21.362,5.861-27.234,14.685l-32.681,114.263L256,420.229  c5.893-8.693,16.003-14.445,27.234-14.445h89.872V187.912L283.234,187.912L283.234,187.912z"/>
<path style="fill:#FFFFFF;" d="M228.766,187.912H106.213v217.872h122.553c11.231,0,21.341,5.752,27.234,14.445V202.596  C250.128,193.772,240.106,187.912,228.766,187.912z"/>
<path d="M413.957,212.426v-24.511c0-4.512-3.657-8.17-8.17-8.17H283.234c-10.177,0-19.821,3.788-27.234,10.449  c-7.413-6.661-17.057-10.449-27.234-10.449H106.213c-4.513,0-8.17,3.658-8.17,8.17v24.511H73.532c-4.513,0-8.17,3.658-8.17,8.17  v217.872c0,4.512,3.657,8.17,8.17,8.17h149.782c5.409,12.945,18.238,21.787,32.686,21.787s27.278-8.842,32.686-21.787h149.782  c4.513,0,8.17-3.658,8.17-8.17V220.596c0-4.512-3.657-8.17-8.17-8.17H413.957z M114.383,196.085h114.383  c8.201,0,15.838,4.124,20.429,11.033c1.515,2.279,4.069,3.648,6.805,3.648s5.29-1.369,6.805-3.648  c4.591-6.909,12.228-11.033,20.429-11.033h114.383v201.532H283.234c-10.166,0-19.813,3.742-27.234,10.32  c-7.421-6.578-17.068-10.32-27.234-10.32H114.383V196.085z M430.298,430.298h-147.61c-3.886,0-7.234,2.736-8.007,6.545  c-1.793,8.831-9.65,15.242-18.681,15.242c-9.032,0-16.888-6.411-18.681-15.242c-0.772-3.808-4.12-6.545-8.007-6.545H81.702V228.766  h16.34v177.021c0,4.512,3.657,8.17,8.17,8.17h122.553c8.216,0,15.868,4.057,20.469,10.851c1.52,2.245,4.055,3.589,6.765,3.589  c2.71,0,5.245-1.344,6.765-3.589c4.601-6.793,12.253-10.851,20.469-10.851h122.553c4.513,0,8.17-3.658,8.17-8.17V228.766h16.34  V430.298z"/>
<path d="M256,387.187c4.513,0,8.17-3.658,8.17-8.17V235.278c0-4.512-3.657-8.17-8.17-8.17s-8.17,3.658-8.17,8.17v143.739  C247.83,383.529,251.487,387.187,256,387.187z"/>
<path d="M503.83,49.021c4.513,0,8.17-3.658,8.17-8.17s-3.657-8.17-8.17-8.17H24.511c-4.506,0-8.17-3.665-8.17-8.17  s3.665-8.17,8.17-8.17H503.83c4.513,0,8.17-3.658,8.17-8.17S508.343,0,503.83,0H24.511C10.996,0,0,10.995,0,24.511  s10.996,24.511,24.511,24.511h40.851v65.362H8.17c-4.513,0-8.17,3.658-8.17,8.17V503.83c0,4.512,3.657,8.17,8.17,8.17h495.66  c4.513,0,8.17-3.658,8.17-8.17V122.553c0-4.512-3.657-8.17-8.17-8.17h-57.191V49.021H503.83z M495.66,495.66H16.34V130.723H495.66  V495.66z M430.298,114.383H81.702V49.021h348.596V114.383z"/>
<g>
</g>
<g>
</g>
<g>
</g>
<g>
</g>
<g>
</g>
<g>
</g>
<g>
</g>
<g>
</g>
<g>
</g>
<g>
</g>
<g>
</g>
<g>
</g>
<g>
</g>
<g>
</g>
<g>
</g>
</svg>
