<?xml version="1.0" encoding="iso-8859-1"?>
<!-- Generator: Adobe Illustrator 19.0.0, SVG Export Plug-In . SVG Version: 6.00 Build 0)  -->
<svg xmlns="http://www.w3.org/2000/svg" xmlns:xlink="http://www.w3.org/1999/xlink" version="1.1" id="Layer_1" x="0px" y="0px" viewBox="0 0 512.001 512.001" style="enable-background:new 0 0 512.001 512.001;" xml:space="preserve">
<polygon style="fill:#FFFFFF;" points="405.787,401.703 503.83,379.915 503.83,281.873 405.787,260.086 "/>
<g>
	<polygon style="fill:#95341D;" points="503.83,379.914 503.83,412.595 438.468,412.595 416.681,379.914  "/>
	<polygon style="fill:#95341D;" points="503.83,249.191 503.83,281.872 416.681,281.872 438.468,249.191  "/>
</g>
<polygon style="fill:#AB5D4A;" points="405.787,249.191 384,330.893 405.787,412.595 438.468,412.595 438.468,249.191 "/>
<polygon style="fill:#C08577;" points="405.787,249.191 405.787,412.595 373.106,412.595 356.766,401.702 340.426,412.595   106.213,412.595 89.872,401.702 73.532,412.595 8.17,412.595 8.17,249.191 73.532,249.191 89.872,260.085 106.213,249.191   340.426,249.191 356.766,260.085 373.106,249.191 "/>
<g>
	<rect x="73.532" y="249.192" style="fill:#FFE08F;" width="32.681" height="163.404"/>
	<rect x="340.426" y="249.192" style="fill:#FFE08F;" width="32.681" height="163.404"/>
</g>
<g>
	<path style="fill:#D8D1D0;" d="M482.043,98.043h-35.146v43.574h35.146c12.033,0,21.787-9.754,21.787-21.787   S494.076,98.043,482.043,98.043z"/>
	<path style="fill:#D8D1D0;" d="M29.957,98.043c-12.033,0-21.787,9.754-21.787,21.787s9.754,21.787,21.787,21.787h35.145V98.043   H29.957z"/>
</g>
<path style="fill:#68AEF4;" d="M137.532,23.149L72.17,119.83l65.362,96.681c53.395,0,96.681-43.286,96.681-96.681  S190.927,23.149,137.532,23.149z"/>
<path style="fill:#7CC8EF;" d="M40.851,119.83c0,53.395,43.286,96.681,96.681,96.681V23.149  C84.137,23.149,40.851,66.435,40.851,119.83z"/>
<path style="fill:#4CF5CB;" d="M137.532,55.828v128c35.295,0,64-28.705,64-64C201.532,84.544,172.827,55.828,137.532,55.828z"/>
<path style="fill:#D1FDF2;" d="M137.532,55.828c17.266,0,31.319,28.716,31.319,64c0,35.295-14.053,64-31.319,64  c-35.284,0-64-28.705-64-64C73.532,84.544,102.247,55.828,137.532,55.828z"/>
<g>
	<path style="fill:#FFFFFF;" d="M107.094,135.331c-2.09,0-4.182-0.797-5.778-2.393c-3.191-3.191-3.191-8.364,0-11.554l37.768-37.768   c3.193-3.192,8.365-3.19,11.555,0c3.191,3.191,3.191,8.364,0,11.554l-37.768,37.768   C111.275,134.532,109.185,135.331,107.094,135.331z"/>
	<path style="fill:#FFFFFF;" d="M156.416,132.225c-2.09,0-4.182-0.797-5.778-2.393c-3.191-3.191-3.191-8.364,0-11.554l11.554-11.554   c3.192-3.191,8.364-3.191,11.555,0c3.191,3.191,3.191,8.364,0,11.554l-11.554,11.554   C160.598,131.428,158.506,132.225,156.416,132.225z"/>
</g>
<path style="fill:#68AEF4;" d="M374.468,23.149l-65.362,96.681l65.362,96.681c53.395,0,96.681-43.286,96.681-96.681  S427.863,23.149,374.468,23.149z"/>
<path style="fill:#7CC8EF;" d="M277.787,119.83c0,53.395,43.286,96.681,96.681,96.681V23.149  C321.073,23.149,277.787,66.435,277.787,119.83z"/>
<path style="fill:#4CF5CB;" d="M374.468,55.828v128c35.295,0,64-28.705,64-64C438.468,84.544,409.763,55.828,374.468,55.828z"/>
<path style="fill:#D1FDF2;" d="M374.468,55.828c17.266,0,31.319,28.716,31.319,64c0,35.295-14.053,64-31.319,64  c-35.284,0-64-28.705-64-64C310.468,84.544,339.184,55.828,374.468,55.828z"/>
<g>
	<path style="fill:#FFFFFF;" d="M344.03,135.331c-2.09,0-4.182-0.797-5.778-2.393c-3.191-3.191-3.191-8.364,0-11.554l37.768-37.768   c3.193-3.192,8.365-3.19,11.555,0c3.191,3.191,3.191,8.364,0,11.554l-37.768,37.768   C348.211,134.532,346.121,135.331,344.03,135.331z"/>
	<path style="fill:#FFFFFF;" d="M393.352,132.225c-2.09,0-4.182-0.797-5.778-2.393c-3.191-3.191-3.191-8.364,0-11.554l11.554-11.554   c3.192-3.191,8.364-3.191,11.555,0c3.191,3.191,3.191,8.364,0,11.554l-11.554,11.554   C397.534,131.428,395.443,132.225,393.352,132.225z"/>
</g>
<polygon style="fill:#E26142;" points="503.83,445.277 460.255,445.277 438.468,467.064 460.255,488.852 503.83,488.852 "/>
<polygon style="fill:#D8D1D0;" points="460.255,445.277 416.681,445.277 394.894,467.064 416.681,488.852 460.255,488.852 "/>
<polygon style="fill:#FFAB97;" points="8.17,467.062 73.532,488.852 95.319,467.064 73.532,445.277 "/>
<rect x="73.532" y="445.277" style="fill:#3891E9;" width="343.149" height="43.574"/>
<path d="M503.83,241.022H8.17c-4.513,0-8.17,3.658-8.17,8.17v163.404c0,4.512,3.657,8.17,8.17,8.17h495.66  c4.513,0,8.17-3.658,8.17-8.17v-32.681c0-4.512-3.657-8.17-8.17-8.17h-57.191v-16.34h57.191c4.513,0,8.17-3.658,8.17-8.17  c0-4.512-3.657-8.17-8.17-8.17h-57.191v-16.34h57.191c4.513,0,8.17-3.658,8.17-8.17c0-4.512-3.657-8.17-8.17-8.17h-57.191v-16.34  h57.191c4.513,0,8.17-3.658,8.17-8.17v-32.681C512,244.68,508.343,241.022,503.83,241.022z M430.298,404.426h-49.021v-57.191  c0-4.512-3.657-8.17-8.17-8.17c-4.513,0-8.17,3.658-8.17,8.17v57.191h-16.34V257.362h16.34v57.191c0,4.512,3.657,8.17,8.17,8.17  c4.513,0,8.17-3.658,8.17-8.17v-57.191h49.021V404.426z M114.383,257.362h217.872v147.064H114.383V257.362z M98.043,404.426h-16.34  V257.362h16.34V404.426z M16.34,257.362h49.021v147.064H16.34V257.362z M495.66,388.086v16.34h-49.021v-16.34H495.66z   M495.66,273.703h-49.021v-16.34h49.021V273.703z"/>
<path d="M29.957,149.788h7.092c12.922,43.263,53.075,74.894,100.483,74.894c55.895,0,101.712-43.966,104.693-99.13  c4.441-1.389,9.055-2.097,13.775-2.097c4.72,0,9.334,0.708,13.775,2.097c2.982,55.164,48.798,99.13,104.693,99.13  c47.408,0,87.562-31.631,100.483-74.894h7.092c16.518,0,29.957-13.438,29.957-29.957s-13.439-29.957-29.957-29.957h-7.092  c-12.922-43.263-53.075-74.894-100.483-74.894c-54.075,0-98.717,41.148-104.266,93.777c-4.629-1.078-9.374-1.642-14.202-1.642  s-9.572,0.563-14.202,1.642c-5.55-52.628-50.191-93.777-104.266-93.777c-47.408,0-87.562,31.631-100.483,74.894h-7.092  C13.439,89.873,0,103.311,0,119.83S13.439,149.788,29.957,149.788z M482.043,106.213c7.509,0,13.617,6.108,13.617,13.617  c0,7.509-6.108,13.617-13.617,13.617h-3.607c0.581-4.459,0.883-9.002,0.883-13.617c0-4.615-0.303-9.158-0.883-13.617H482.043z   M374.468,31.32c48.806,0,88.511,39.706,88.511,88.511s-39.705,88.511-88.511,88.511s-88.511-39.706-88.511-88.511  S325.662,31.32,374.468,31.32z M137.532,31.32c48.806,0,88.511,39.706,88.511,88.511s-39.705,88.511-88.511,88.511  s-88.511-39.706-88.511-88.511S88.726,31.32,137.532,31.32z M29.957,106.213h3.607c-0.581,4.459-0.883,9.002-0.883,13.617  c0,4.615,0.303,9.158,0.883,13.617h-3.607c-7.509,0-13.617-6.108-13.617-13.617C16.34,112.321,22.448,106.213,29.957,106.213z"/>
<path d="M374.468,192.001c39.794,0,72.17-32.376,72.17-72.17s-32.376-72.17-72.17-72.17s-72.17,32.376-72.17,72.17  S334.674,192.001,374.468,192.001z M374.468,64.001c30.785,0,55.83,25.046,55.83,55.83s-25.044,55.83-55.83,55.83  s-55.83-25.046-55.83-55.83S343.683,64.001,374.468,64.001z"/>
<path d="M137.532,192.001c39.794,0,72.17-32.376,72.17-72.17s-32.376-72.17-72.17-72.17c-12.742,0-25.296,3.399-36.3,9.828  c-3.897,2.276-5.209,7.28-2.933,11.176c2.277,3.896,7.281,5.207,11.176,2.933c8.507-4.97,18.209-7.597,28.058-7.597  c30.785,0,55.83,25.046,55.83,55.83s-25.044,55.83-55.83,55.83s-55.831-25.044-55.831-55.829c0-9.85,2.626-19.552,7.597-28.057  c2.277-3.896,0.964-8.899-2.931-11.176c-3.898-2.277-8.9-0.963-11.177,2.933c-6.43,11.004-9.829,23.555-9.829,36.3  C65.362,159.625,97.738,192.001,137.532,192.001z"/>
<path d="M503.83,437.107H73.532c-0.403,0-0.797,0.039-1.185,0.096c-0.073,0.011-0.146,0.021-0.219,0.034  c-0.391,0.068-0.773,0.16-1.144,0.281c-0.036,0.009-65.398,21.794-65.398,21.794C2.251,460.424,0,463.546,0,467.062  s2.25,6.639,5.586,7.751l65.362,21.789c0.407,0.131,0.789,0.222,1.179,0.29c0.074,0.013,0.147,0.023,0.222,0.034  c0.388,0.057,0.781,0.096,1.184,0.096h430.298c4.513,0,8.17-3.658,8.17-8.17v-43.574C512,440.765,508.343,437.107,503.83,437.107z   M81.702,453.447h326.809v27.234H81.702V453.447z M424.851,453.447h27.234v27.234h-27.234V453.447z M65.362,456.612v20.904  l-31.355-10.452L65.362,456.612z M495.66,480.681h-27.234v-27.234h27.234V480.681z"/>
<g>
</g>
<g>
</g>
<g>
</g>
<g>
</g>
<g>
</g>
<g>
</g>
<g>
</g>
<g>
</g>
<g>
</g>
<g>
</g>
<g>
</g>
<g>
</g>
<g>
</g>
<g>
</g>
<g>
</g>
</svg>
