<?xml version="1.0" encoding="iso-8859-1"?>
<!-- Generator: Adobe Illustrator 19.0.0, SVG Export Plug-In . SVG Version: 6.00 Build 0)  -->
<svg xmlns="http://www.w3.org/2000/svg" xmlns:xlink="http://www.w3.org/1999/xlink" version="1.1" id="Layer_1" x="0px" y="0px" viewBox="0 0 512 512" style="enable-background:new 0 0 512 512;" xml:space="preserve">
<polygon style="fill:#FFFFFF;" points="405.787,492.936 503.83,471.149 503.83,373.106 405.787,351.319 "/>
<g>
	<polygon style="fill:#95341D;" points="503.83,471.149 503.83,503.83 438.468,503.83 416.681,471.149  "/>
	<polygon style="fill:#95341D;" points="503.83,340.426 503.83,373.106 416.681,373.106 438.468,340.426  "/>
</g>
<polygon style="fill:#AB5D4A;" points="405.787,340.426 384,422.128 405.787,503.83 438.468,503.83 438.468,340.426 "/>
<polygon style="fill:#C08577;" points="405.787,340.426 405.787,503.83 373.106,503.83 356.766,492.936 340.426,503.83   106.213,503.83 89.872,492.936 73.532,503.83 8.17,503.83 8.17,340.426 73.532,340.426 89.872,351.319 106.213,340.426   340.426,340.426 356.766,351.319 373.106,340.426 "/>
<g>
	<rect x="73.532" y="340.426" style="fill:#FFE08F;" width="32.681" height="163.404"/>
	<rect x="340.426" y="340.426" style="fill:#FFE08F;" width="32.681" height="163.404"/>
</g>
<path style="fill:#E26142;" d="M362.213,57.571h-32.681l17.582,161.879h32.681l31.439-109.906  C414.23,80.959,392.17,57.571,362.213,57.571z"/>
<path style="fill:#F1866D;" d="M329.532,57.571c29.957,0,52.017,23.389,49.021,51.973L347.114,219.45H132.205L100.81,109.544  c-2.996-28.585,19.064-51.973,49.021-51.973H329.532z"/>
<path style="fill:#FFD159;" d="M446.638,85.785L409.6,275.062l-76.255,21.787l75.471-184.777  C428.947,98.051,446.638,85.785,446.638,85.785z"/>
<path style="fill:#FFE08F;" d="M408.816,112.071l-31.897,162.99l-137.26,21.787L102.4,275.062L65.362,85.785  c0,0,38.759,26.875,66.843,46.516c-0.959,2.93-1.482,6.068-1.482,9.314c0,16.547,13.41,29.957,29.957,29.957  s29.957-13.41,29.957-29.957c0-8.268-3.355-15.763-8.769-21.177L256,8.168l74.131,112.27c-5.414,5.414-8.769,12.909-8.769,21.177  c0,16.547,13.41,29.957,29.957,29.957c16.547,0,29.957-13.41,29.957-29.957c0-3.246-0.523-6.384-1.482-9.314  C388.902,125.928,399.142,118.793,408.816,112.071z"/>
<path style="fill:#FFD159;" d="M409.6,275.064H102.4c-9.024,0-16.34,7.316-16.34,16.34c0,9.024,7.316,16.34,16.34,16.34h307.2  c9.024,0,16.34-7.316,16.34-16.34C425.94,282.38,418.624,275.064,409.6,275.064z"/>
<circle style="fill:#E26142;" cx="256" cy="206.979" r="35.404"/>
<path d="M503.83,381.277c4.513,0,8.17-3.658,8.17-8.17v-32.681c0-4.512-3.657-8.17-8.17-8.17H8.17c-4.512,0-8.17,3.658-8.17,8.17  V503.83c0,4.512,3.658,8.17,8.17,8.17h495.66c4.513,0,8.17-3.658,8.17-8.17v-32.681c0-4.512-3.657-8.17-8.17-8.17h-57.191v-16.34  h57.191c4.513,0,8.17-3.658,8.17-8.17c0-4.512-3.657-8.17-8.17-8.17h-57.191v-16.34h57.191c4.513,0,8.17-3.658,8.17-8.17  c0-4.512-3.657-8.17-8.17-8.17h-57.191v-16.34H503.83z M495.66,364.936h-49.021v-16.34h49.021V364.936z M373.106,430.298  c-4.513,0-8.17,3.658-8.17,8.17v57.191h-16.34V348.596h16.34v57.191c0,4.512,3.657,8.17,8.17,8.17c4.513,0,8.17-3.658,8.17-8.17  v-57.191h49.021V495.66h-49.021v-57.191C381.277,433.956,377.62,430.298,373.106,430.298z M114.383,348.596h217.872V495.66H114.383  V348.596z M98.043,495.66h-16.34V348.596h16.34V495.66z M16.34,348.596h49.021V495.66H16.34V348.596z M495.66,479.319v16.34h-49.021  v-16.34H495.66z"/>
<path d="M256,250.553c24.027,0,43.574-19.548,43.574-43.574S280.027,163.404,256,163.404s-43.574,19.548-43.574,43.574  S231.973,250.553,256,250.553z M256,179.745c15.017,0,27.234,12.217,27.234,27.234c0,15.017-12.217,27.234-27.234,27.234  c-15.017,0-27.234-12.217-27.234-27.234C228.766,191.962,240.983,179.745,256,179.745z"/>
<path d="M92.855,268.829c-8.787,3.729-14.966,12.444-14.966,22.575c0,13.516,10.995,24.511,24.511,24.511h307.2  c13.515,0,24.511-10.995,24.511-24.511c0-10.131-6.179-18.846-14.966-22.575l35.511-181.473c0.638-3.264-0.765-6.588-3.548-8.408  c-2.782-1.819-6.392-1.77-9.126,0.124c-0.193,0.134-9.928,6.885-23.085,16.028c-1.684-10-6.104-19.261-13.026-26.946  c-10.732-11.915-26.646-18.749-43.659-18.749H327.79c-4.513,0-8.17,3.658-8.17,8.17s3.657,8.17,8.17,8.17h34.423  c12.573,0,23.767,4.74,31.517,13.345c6.612,7.341,9.95,16.795,9.564,26.861c-9.446,6.573-19.365,13.486-28.184,19.652  c-2.95,2.063-4.203,5.814-3.083,9.236c0.716,2.192,1.08,4.472,1.08,6.778c0,12.013-9.774,21.787-21.787,21.787  c-12.014,0-21.787-9.774-21.787-21.787c0-5.819,2.266-11.29,6.382-15.406c2.744-2.744,3.179-7.041,1.04-10.279L262.818,3.668  C261.305,1.378,258.745,0,256,0c-2.744,0-5.305,1.378-6.817,3.668l-30.204,45.737h-69.144c-17.015,0-32.927,6.834-43.659,18.749  c-6.928,7.693-11.351,16.964-13.031,26.975C79.967,85.971,70.21,79.206,70.017,79.071c-2.733-1.895-6.341-1.943-9.124-0.124  c-2.784,1.819-4.188,5.144-3.548,8.408L92.855,268.829z M118.318,79.09c7.751-8.605,18.944-13.345,31.517-13.345h58.353  l-33.142,50.186c-2.138,3.239-1.704,7.535,1.04,10.279c4.115,4.116,6.381,9.586,6.381,15.406c0,12.013-9.774,21.787-21.787,21.787  s-21.787-9.774-21.787-21.787c0-2.306,0.363-4.586,1.081-6.778c1.119-3.422-0.133-7.172-3.084-9.236  c-8.804-6.156-18.703-13.055-28.135-19.618C108.36,95.905,111.699,86.44,118.318,79.09z M122.994,135.828  c-0.293,1.911-0.441,3.844-0.441,5.789c0,21.024,17.104,38.128,38.128,38.128s38.128-17.104,38.128-38.128  c0-7.883-2.377-15.4-6.789-21.735L256,22.996l63.98,96.886c-4.413,6.334-6.789,13.852-6.789,21.735  c0,21.024,17.104,38.128,38.128,38.128c21.024,0,38.128-17.104,38.128-38.128c0-1.945-0.148-3.878-0.441-5.789  c15.384-10.744,33.138-23.089,45.748-31.846l-31.88,162.912H167.762c-4.512,0-8.17,3.658-8.17,8.17c0,4.512,3.658,8.17,8.17,8.17  h241.814c4.54,0.012,8.194,3.672,8.194,8.17c0,4.506-3.665,8.17-8.17,8.17H102.4c-4.506,0-8.17-3.665-8.17-8.17  s3.665-8.17,8.17-8.17h32.681c4.512,0,8.17-3.658,8.17-8.17c0-4.512-3.658-8.17-8.17-8.17h-25.954L77.248,103.982  C89.856,112.739,107.61,125.084,122.994,135.828z"/>
<g>
</g>
<g>
</g>
<g>
</g>
<g>
</g>
<g>
</g>
<g>
</g>
<g>
</g>
<g>
</g>
<g>
</g>
<g>
</g>
<g>
</g>
<g>
</g>
<g>
</g>
<g>
</g>
<g>
</g>
</svg>
