<?xml version="1.0" encoding="iso-8859-1"?>
<!-- Generator: Adobe Illustrator 19.0.0, SVG Export Plug-In . SVG Version: 6.00 Build 0)  -->
<svg xmlns="http://www.w3.org/2000/svg" xmlns:xlink="http://www.w3.org/1999/xlink" version="1.1" id="Layer_1" x="0px" y="0px" viewBox="0 0 512 512" style="enable-background:new 0 0 512 512;" xml:space="preserve">
<rect x="127.577" y="327.233" transform="matrix(0.7071 -0.7071 0.7071 0.7071 -193.6081 219.7339)" style="fill:#F0EBEA;" width="81.722" height="32.68"/>
<path style="fill:#4CF5CB;" d="M449.587,324.321c-72.323,72.323-189.582,72.323-261.906,0l112.573-149.332L449.586,62.416  C521.91,134.738,521.91,251.997,449.587,324.321z"/>
<path style="fill:#D1FDF2;" d="M449.587,62.415L187.68,324.321c-72.323-72.323-72.323-189.582,0-261.906  S377.263-9.908,449.587,62.415z"/>
<polygon style="fill:#A99E9B;" points="177.051,381.163 153.941,404.272 100.022,396.569 161.645,365.758 "/>
<path style="fill:#E26142;" d="M138.536,388.866L14.52,482.071l15.406,15.406c8.473,8.473,22.338,8.473,30.811,0l93.205-93.205  L138.536,388.866z"/>
<polygon style="fill:#D8D1D0;" points="161.645,365.758 138.536,388.866 100.022,396.569 107.725,358.054 130.833,334.946 "/>
<path style="fill:#F1866D;" d="M138.536,388.866l-93.205,93.205c-8.473,8.473-22.338,8.473-30.811,0s-8.473-22.338,0-30.811  l93.205-93.205L138.536,388.866z"/>
<path style="fill:#F0EBEA;" d="M320.111,46.325v294.091c80.546-0.795,145.58-66.33,145.58-147.051  C465.691,112.655,400.658,47.12,320.111,46.325z"/>
<path style="fill:#FFFFFF;" d="M320.111,46.325c-0.49-0.011-0.991-0.011-1.482-0.011c-81.211,0-147.051,65.84-147.051,147.051  c0,81.222,65.84,147.062,147.051,147.062c0.49,0,0.991,0,1.482-0.011c62.485-1.024,112.9-66.461,112.9-147.051  C433.01,112.786,382.595,47.349,320.111,46.325z"/>
<path style="fill:#AB5D4A;" d="M318.629,100.775v185.189c51.145,0,92.595-41.461,92.595-92.595  C411.223,142.225,369.774,100.775,318.629,100.775z"/>
<path style="fill:#C08577;" d="M318.629,100.775c33.094,0,59.914,41.45,59.914,92.595c0,51.134-26.82,92.595-59.914,92.595  c-51.134,0-92.595-41.461-92.595-92.595C226.034,142.225,267.495,100.775,318.629,100.775z"/>
<circle style="fill:#554F4E;" cx="318.634" cy="193.36" r="35.404"/>
<path d="M455.364,56.638c-36.521-36.523-85.08-56.636-136.729-56.636S218.426,20.115,181.904,56.637s-56.635,85.08-56.635,136.731  c0,43.388,14.199,84.59,40.389,118.312l-23.264,23.264l-5.777-5.777c-3.191-3.191-8.364-3.191-11.554,0L8.749,445.479  C3.107,451.12,0,458.643,0,466.662s3.107,15.542,8.749,21.182l15.406,15.406c5.641,5.642,13.164,8.749,21.182,8.749  s15.542-3.107,21.182-8.749l116.313-116.313c3.191-3.191,3.191-8.364,0-11.554l-5.776-5.776l23.263-23.264  c33.722,26.19,74.925,40.39,118.314,40.39c51.65,0,100.208-20.114,136.731-56.636S512,245.017,512,193.366  S491.886,93.159,455.364,56.638z M54.965,491.696c-2.556,2.555-5.974,3.962-9.629,3.962c-3.655,0-7.073-1.407-9.629-3.962  l-15.406-15.406c-5.309-5.309-5.309-13.948,0-19.257l87.428-87.428l34.663,34.663L54.965,491.696z M153.947,392.715l-34.663-34.663  l11.555-11.555l34.663,34.663L153.947,392.715z M165.502,358.054l-11.556-11.556l22.307-22.307c1.841,1.999,3.718,3.973,5.65,5.906  c1.933,1.932,3.906,3.809,5.905,5.649L165.502,358.054z M443.81,318.544c-33.435,33.435-77.891,51.85-125.176,51.85  s-91.741-18.414-125.176-51.85c-69.022-69.022-69.022-181.33,0-250.352c33.435-33.435,77.891-51.85,125.176-51.85  s91.741,18.413,125.176,51.85C512.832,137.214,512.832,249.521,443.81,318.544z"/>
<path d="M419.399,193.367c0-26.916-10.482-52.22-29.514-71.251c-19.032-19.032-44.336-29.514-71.251-29.514  s-52.22,10.482-71.251,29.514c-39.288,39.287-39.288,103.215,0,142.502c19.032,19.032,44.336,29.514,71.251,29.514  s52.22-10.482,71.251-29.514C408.917,245.587,419.399,220.283,419.399,193.367z M318.634,277.792  c-22.551,0-43.751-8.782-59.697-24.727c-32.917-32.917-32.917-86.477,0-119.395c15.946-15.946,37.147-24.727,59.697-24.727  c22.551,0,43.751,8.782,59.697,24.727s24.727,37.147,24.727,59.697s-8.782,43.751-24.727,59.697  C362.387,269.011,341.185,277.792,318.634,277.792z"/>
<path d="M318.631,149.791c-24.027,0-43.574,19.547-43.574,43.574s19.547,43.574,43.574,43.574s43.574-19.547,43.574-43.574  S342.658,149.791,318.631,149.791z M318.631,220.599c-15.017,0-27.234-12.217-27.234-27.234s12.217-27.234,27.234-27.234  s27.234,12.217,27.234,27.234S333.648,220.599,318.631,220.599z"/>
<path d="M428.396,83.606c-60.523-60.523-159.002-60.523-219.525,0s-60.523,159.001,0,219.524  c25.184,25.184,57.176,40.572,92.519,44.501c4.489,0.496,8.524-2.733,9.023-7.217c0.499-4.484-2.733-8.524-7.217-9.023  c-31.617-3.515-60.239-17.282-82.771-39.815c-54.151-54.151-54.151-142.263,0-196.416c54.153-54.151,142.264-54.151,196.417,0  c54.151,54.153,54.151,142.264,0,196.417c-22.532,22.532-51.154,36.299-82.77,39.813c-4.485,0.499-7.716,4.538-7.217,9.023  c0.464,4.178,4.002,7.268,8.11,7.268c0.302,0,0.607-0.016,0.913-0.05c35.344-3.929,67.336-19.316,92.519-44.5  C488.919,242.607,488.919,144.129,428.396,83.606z"/>
<g>
</g>
<g>
</g>
<g>
</g>
<g>
</g>
<g>
</g>
<g>
</g>
<g>
</g>
<g>
</g>
<g>
</g>
<g>
</g>
<g>
</g>
<g>
</g>
<g>
</g>
<g>
</g>
<g>
</g>
</svg>
