<?xml version="1.0" encoding="iso-8859-1"?>
<!-- Generator: Adobe Illustrator 19.0.0, SVG Export Plug-In . SVG Version: 6.00 Build 0)  -->
<svg xmlns="http://www.w3.org/2000/svg" xmlns:xlink="http://www.w3.org/1999/xlink" version="1.1" id="Capa_1" x="0px" y="0px" viewBox="0 0 512 512" style="enable-background:new 0 0 512 512;" xml:space="preserve">
<g>
	<circle style="fill:#FFDB66;" cx="119.734" cy="336.157" r="16.031"/>
	<circle style="fill:#FFDB66;" cx="71.64" cy="400.282" r="16.031"/>
	<circle style="fill:#FFDB66;" cx="408.297" cy="368.219" r="16.031"/>
	<circle style="fill:#FFDB66;" cx="456.391" cy="432.344" r="16.031"/>
	<circle style="fill:#FFDB66;" cx="488.454" cy="488.454" r="16.031"/>
	<circle style="fill:#FFDB66;" cx="23.546" cy="464.407" r="16.031"/>
</g>
<path style="fill:#3CBDE8;" d="M362.207,95.687c-15.284,0-29.134,6.119-39.253,16.031h-0.327c4.802-9.661,7.517-20.542,7.517-32.063  c0-39.843-32.298-72.141-72.141-72.141s-72.141,32.298-72.141,72.141c0,3.025,0.208,6.001,0.569,8.927  c-9.561-5.665-20.713-8.927-32.632-8.927c-35.415,0-64.125,28.71-64.125,64.125s28.71,64.125,64.125,64.125h208.407  c30.989,0,56.11-25.121,56.11-56.11S393.196,95.687,362.207,95.687z"/>
<path style="fill:#2C9DD4;" d="M376.235,183.859H167.828c-35.415,0-64.125-28.71-64.125-64.125c0-6.792,1.065-13.335,3.022-19.479  c-10.578,11.434-17.049,26.722-17.049,43.526c0,35.415,28.71,64.125,64.125,64.125h208.407c25.663,0,47.285-17.235,53.965-40.757  C405.999,177.462,391.865,183.859,376.235,183.859z"/>
<circle style="fill:#2A7DB5;" cx="256" cy="151.796" r="16.031"/>
<path d="M488.454,464.908c-10.356,0-19.165,6.723-22.31,16.031H279.546V215.421h17.033v216.924c0,4.151,3.364,7.515,7.515,7.515  h129.988c3.144,9.308,11.953,16.031,22.31,16.031c12.983,0,23.546-10.563,23.546-23.546s-10.563-23.546-23.546-23.546  c-10.356,0-19.165,6.723-22.31,16.031H311.609V215.421h25.049v152.798c0,4.151,3.364,7.515,7.515,7.515h41.816  c3.144,9.308,11.953,16.031,22.31,16.031c12.983,0,23.546-10.563,23.546-23.546s-10.563-23.546-23.546-23.546  c-10.356,0-19.165,6.723-22.31,16.031h-34.301V215.421h10.521c35.083,0,63.624-28.542,63.624-63.624s-28.542-63.624-63.624-63.624  c-9.006,0-17.744,1.87-25.758,5.423c0.806-4.562,1.21-9.215,1.21-13.939c0-12.015-2.61-23.567-7.76-34.334  c-1.79-3.743-6.278-5.328-10.022-3.536c-3.743,1.79-5.326,6.277-3.536,10.022c4.173,8.725,6.288,18.095,6.288,27.848  c0,10.071-2.264,19.733-6.731,28.717c-1.69,3.4-0.503,7.652,2.699,9.687c2.961,1.882,7.101,1.489,9.614-0.973  c9.141-8.953,21.214-13.885,33.995-13.885c26.795,0,48.595,21.8,48.595,48.595s-21.8,48.595-48.595,48.595H153.8  c-31.215,0-56.611-25.396-56.611-56.611S122.585,87.17,153.8,87.17c10.143,0,20.102,2.724,28.802,7.877  c5.269,3.126,12.038-1.321,11.288-7.385c-0.346-2.794-0.513-5.414-0.513-8.007c0-35.635,28.992-64.626,64.626-64.626  c12.326,0,24.309,3.481,34.654,10.066c3.454,2.2,8.176,1.15,10.374-2.305s1.149-8.176-2.305-10.374  C287.967,4.293,273.194,0,258.004,0c-42.866,0-77.932,34.033-79.593,76.499c-7.848-2.871-16.18-4.359-24.61-4.359  c-39.502,0-71.64,32.138-71.64,71.64s32.138,71.64,71.64,71.64h6.513v113.221h-18.27c-3.144-9.308-11.953-16.031-22.31-16.031  c-12.983,0-23.546,10.563-23.546,23.546s10.563,23.546,23.546,23.546c10.356,0,19.165-6.723,22.31-16.031h25.784  c4.15,0,7.515-3.364,7.515-7.515V215.421h25.049v177.346H93.949c-3.144-9.308-11.953-16.031-22.31-16.031  c-12.983,0-23.546,10.563-23.546,23.546s10.563,23.546,23.546,23.546c10.356,0,19.165-6.723,22.31-16.031h113.957  c4.15,0,7.515-3.364,7.515-7.515V215.421h17.058c-0.011,0.166-0.025,0.332-0.025,0.501V455.89H45.492  c-3.422-8.785-11.965-15.029-21.946-15.029C10.563,440.861,0,451.424,0,464.407s10.563,23.546,23.546,23.546  c10.724,0,19.79-7.209,22.622-17.033h193.801c4.15,0,7.515-3.364,7.515-7.515V215.922c0-0.169-0.014-0.335-0.025-0.501h17.058  v273.033c0,4.151,3.364,7.515,7.515,7.515h194.113c3.144,9.308,11.953,16.031,22.31,16.031C501.437,512,512,501.437,512,488.454  S501.437,464.908,488.454,464.908z M456.391,423.828c4.696,0,8.517,3.82,8.517,8.517c0,4.696-3.82,8.517-8.517,8.517  c-4.696,0-8.517-3.82-8.517-8.517C447.875,427.648,451.695,423.828,456.391,423.828z M408.297,359.703  c4.696,0,8.517,3.82,8.517,8.517c0,4.696-3.82,8.517-8.517,8.517c-4.696,0-8.517-3.82-8.517-8.517  C399.781,363.523,403.601,359.703,408.297,359.703z M119.734,344.673c-4.696,0-8.517-3.82-8.517-8.517  c0-4.696,3.82-8.517,8.517-8.517s8.517,3.82,8.517,8.517C128.25,340.853,124.43,344.673,119.734,344.673z M71.64,408.798  c-4.696,0-8.517-3.82-8.517-8.517c0-4.696,3.82-8.517,8.517-8.517s8.517,3.82,8.517,8.517  C80.157,404.978,76.336,408.798,71.64,408.798z M23.546,472.924c-4.696,0-8.517-3.82-8.517-8.517c0-4.696,3.82-8.517,8.517-8.517  s8.517,3.82,8.517,8.517C32.063,469.103,28.242,472.924,23.546,472.924z M488.454,496.971c-4.696,0-8.517-3.82-8.517-8.517  c0-4.696,3.82-8.517,8.517-8.517c4.696,0,8.517,3.82,8.517,8.517C496.971,493.15,493.15,496.971,488.454,496.971z"/>
<path d="M256,128.25c-12.983,0-23.546,10.563-23.546,23.546s10.563,23.546,23.546,23.546s23.546-10.563,23.546-23.546  S268.983,128.25,256,128.25z M256,160.313c-4.696,0-8.517-3.82-8.517-8.517s3.82-8.517,8.517-8.517s8.517,3.82,8.517,8.517  S260.696,160.313,256,160.313z"/>
<path d="M290.312,86.865c3.571,0,6.728-2.616,7.391-6.126c0.626-3.315-1.118-6.734-4.164-8.179  c-11.792-5.597-24.422-8.434-37.539-8.434c-13.117,0-25.746,2.838-37.539,8.434c-3.749,1.778-5.346,6.261-3.568,10.011  c1.778,3.749,6.26,5.348,10.011,3.567c9.764-4.633,20.227-6.983,31.097-6.983c10.871,0,21.333,2.35,31.095,6.983  C288.136,86.631,289.232,86.865,290.312,86.865z"/>
<path d="M283.38,111.549c1.778-3.749,0.181-8.231-3.569-10.011c-7.483-3.55-15.494-5.35-23.811-5.35  c-8.317,0-16.328,1.801-23.812,5.35c-3.749,1.779-5.347,6.261-3.568,10.011c1.778,3.749,6.261,5.348,10.011,3.569  c5.454-2.588,11.297-3.901,17.369-3.901c6.072,0,11.916,1.313,17.37,3.901C277.075,116.874,281.625,115.248,283.38,111.549z"/>
<g>
</g>
<g>
</g>
<g>
</g>
<g>
</g>
<g>
</g>
<g>
</g>
<g>
</g>
<g>
</g>
<g>
</g>
<g>
</g>
<g>
</g>
<g>
</g>
<g>
</g>
<g>
</g>
<g>
</g>
</svg>
