<?xml version="1.0" encoding="iso-8859-1"?>
<!-- Generator: Adobe Illustrator 19.0.0, SVG Export Plug-In . SVG Version: 6.00 Build 0)  -->
<svg xmlns="http://www.w3.org/2000/svg" xmlns:xlink="http://www.w3.org/1999/xlink" version="1.1" id="Capa_1" x="0px" y="0px" viewBox="0 0 512 512" style="enable-background:new 0 0 512 512;" xml:space="preserve">
<path style="fill:#3CBDE8;" d="M183.859,79.656c0-39.843,32.299-72.141,72.141-72.141s72.141,32.298,72.141,72.141  S256,199.89,256,199.89S183.859,119.498,183.859,79.656z"/>
<path style="fill:#2C9DD4;" d="M207.906,79.656c0-35.744,26.001-65.398,60.117-71.125c-3.912-0.656-7.924-1.016-12.023-1.016  c-39.843,0-72.141,32.298-72.141,72.141S256,199.89,256,199.89s4.848-5.405,12.023-14.094  C247.503,160.948,207.906,109.175,207.906,79.656z"/>
<circle style="fill:#F7C14D;" cx="256" cy="79.656" r="32.063"/>
<circle style="fill:#FFDB66;" cx="256" cy="79.656" r="16.031"/>
<path style="fill:#3CBDE8;" d="M360.204,135.765c0-39.843,32.299-72.141,72.141-72.141s72.141,32.298,72.141,72.141  S432.344,256,432.344,256S360.204,175.607,360.204,135.765z"/>
<path style="fill:#2C9DD4;" d="M384.25,135.765c0-35.744,26.001-65.398,60.117-71.124c-3.912-0.657-7.924-1.017-12.023-1.017  c-39.843,0-72.141,32.298-72.141,72.141S432.344,256,432.344,256s4.848-5.405,12.023-14.094  C423.848,217.058,384.25,165.285,384.25,135.765z"/>
<circle style="fill:#F7C14D;" cx="432.344" cy="135.765" r="32.063"/>
<circle style="fill:#FFDB66;" cx="432.344" cy="135.765" r="16.031"/>
<path style="fill:#3CBDE8;" d="M7.515,135.765c0-39.843,32.298-72.141,72.141-72.141s72.141,32.298,72.141,72.141  S79.656,256,79.656,256S7.515,175.607,7.515,135.765z"/>
<path style="fill:#2C9DD4;" d="M31.562,135.765c0-35.744,26.001-65.398,60.117-71.124c-3.912-0.657-7.924-1.017-12.023-1.017  c-39.843,0-72.141,32.298-72.141,72.141S79.656,256,79.656,256s4.848-5.405,12.023-14.094  C71.159,217.058,31.562,165.285,31.562,135.765z"/>
<circle style="fill:#F7C14D;" cx="79.656" cy="135.765" r="32.063"/>
<circle style="fill:#FFDB66;" cx="79.656" cy="135.765" r="16.031"/>
<rect x="127.75" y="424.329" style="fill:#8E9AA9;" width="256.501" height="80.157"/>
<polygon style="fill:#7C899B;" points="143.781,488.454 143.781,424.329 127.75,424.329 127.75,504.485 384.25,504.485   384.25,488.454 "/>
<rect x="272.031" y="448.376" style="fill:#B8E3A8;" width="88.172" height="32.063"/>
<g>
	<polygon style="fill:#7EC97D;" points="272.031,448.376 272.031,480.438 288.063,480.438 320.125,448.376  "/>
	<polygon style="fill:#7EC97D;" points="338.829,448.376 306.766,480.438 360.204,480.438 360.204,448.376  "/>
</g>
<circle style="fill:#F09B24;" cx="256" cy="320.125" r="24.047"/>
<circle style="fill:#F7C14D;" cx="256" cy="320.125" r="8.016"/>
<path d="M256,40.078c-21.823,0-39.577,17.755-39.577,39.577s17.755,39.577,39.577,39.577s39.577-17.755,39.577-39.577  S277.823,40.078,256,40.078z M256,104.204c-13.535,0-24.548-11.012-24.548-24.548S242.465,55.108,256,55.108  c13.535,0,24.548,11.012,24.548,24.548S269.535,104.204,256,104.204z"/>
<path d="M512,135.765c0-43.923-35.734-79.656-79.656-79.656s-79.656,35.733-79.656,79.656c0,18.13,12.612,44.86,37.484,79.446  c14.858,20.66,29.506,37.75,34.657,43.632v53.767H286.651c-2.789-11.376-11.76-20.346-23.136-23.136v-86.74  c5.15-5.882,19.798-22.972,34.657-43.632c24.873-34.587,37.484-61.316,37.484-79.446c0-12.719-2.911-24.878-8.651-36.135  c-1.885-3.698-6.411-5.166-10.108-3.281c-3.697,1.886-5.166,6.411-3.281,10.108c4.652,9.123,7.011,18.984,7.011,29.308  c0,27.731-42.454,82.968-64.627,108.829c-22.173-25.853-64.625-81.077-64.625-108.829c0-35.635,28.992-64.626,64.626-64.626  c12.07,0,23.839,3.347,34.034,9.677c3.526,2.188,8.159,1.105,10.348-2.421c2.189-3.526,1.106-8.159-2.421-10.348  C285.384,4.128,270.874,0,256,0c-43.922,0-79.656,35.733-79.656,79.656c0,18.13,12.612,44.86,37.484,79.446  c14.858,20.66,29.506,37.75,34.657,43.632v86.74c-11.376,2.79-20.346,11.76-23.136,23.136H87.17v-53.767  c5.15-5.882,19.798-22.972,34.657-43.632c24.873-34.587,37.484-61.316,37.484-79.446c0-43.923-35.734-79.656-79.656-79.656  S0,91.842,0,135.765c0,18.13,12.612,44.86,37.484,79.446c14.859,20.66,29.507,37.75,34.657,43.632v61.282  c0,4.151,3.365,7.515,7.515,7.515h145.694c2.789,11.376,11.76,20.346,23.136,23.136v66.038H127.75c-4.15,0-7.515,3.364-7.515,7.515  v80.157c0,4.151,3.365,7.515,7.515,7.515H384.25c4.15,0,7.515-3.364,7.515-7.515v-80.157c0-4.151-3.365-7.515-7.515-7.515H263.515  v-66.038c11.376-2.79,20.346-11.76,23.136-23.136h145.694c4.15,0,7.515-3.364,7.515-7.515v-61.282  c5.15-5.882,19.798-22.972,34.657-43.632C499.388,180.625,512,153.896,512,135.765z M15.029,135.765  c0-35.635,28.992-64.626,64.626-64.626s64.626,28.992,64.626,64.626c0,27.731-42.454,82.968-64.627,108.829  C57.481,218.74,15.029,163.516,15.029,135.765z M376.736,496.971H135.264v-65.127h241.472V496.971z M256,336.658  c-9.116,0-16.532-7.417-16.532-16.532s7.416-16.532,16.532-16.532s16.532,7.417,16.532,16.532S265.116,336.658,256,336.658z   M367.718,135.765c0-35.635,28.992-64.626,64.626-64.626s64.626,28.992,64.626,64.626c0,27.731-42.454,82.968-64.627,108.829  C410.17,218.74,367.718,163.516,367.718,135.765z"/>
<path d="M471.922,135.765c0-21.823-17.755-39.577-39.577-39.577s-39.577,17.755-39.577,39.577s17.755,39.577,39.577,39.577  S471.922,157.588,471.922,135.765z M407.796,135.765c0-13.536,11.013-24.548,24.548-24.548s24.548,11.011,24.548,24.548  s-11.013,24.548-24.548,24.548S407.796,149.302,407.796,135.765z"/>
<path d="M119.233,135.765c0-21.823-17.755-39.577-39.577-39.577s-39.577,17.755-39.577,39.577s17.755,39.577,39.577,39.577  S119.233,157.588,119.233,135.765z M55.108,135.765c0-13.536,11.013-24.548,24.548-24.548s24.548,11.011,24.548,24.548  s-11.013,24.548-24.548,24.548S55.108,149.302,55.108,135.765z"/>
<path d="M272.031,487.953h88.172c4.15,0,7.515-3.364,7.515-7.515v-32.063c0-4.151-3.365-7.515-7.515-7.515h-88.172  c-4.15,0-7.515,3.364-7.515,7.515v32.063C264.517,484.589,267.881,487.953,272.031,487.953z M279.546,455.89h73.143v17.033h-73.143  V455.89z"/>
<path d="M151.796,440.861c-4.15,0-7.515,3.364-7.515,7.515v32.063c0,4.151,3.365,7.515,7.515,7.515s7.515-3.364,7.515-7.515v-32.063  C159.311,444.225,155.947,440.861,151.796,440.861z"/>
<path d="M175.843,440.861c-4.15,0-7.515,3.364-7.515,7.515v32.063c0,4.151,3.365,7.515,7.515,7.515s7.515-3.364,7.515-7.515v-32.063  C183.358,444.225,179.994,440.861,175.843,440.861z"/>
<path d="M199.89,440.861c-4.15,0-7.515,3.364-7.515,7.515v32.063c0,4.151,3.365,7.515,7.515,7.515s7.515-3.364,7.515-7.515v-32.063  C207.405,444.225,204.041,440.861,199.89,440.861z"/>
<path d="M223.937,440.861c-4.15,0-7.515,3.364-7.515,7.515v32.063c0,4.151,3.365,7.515,7.515,7.515s7.515-3.364,7.515-7.515v-32.063  C231.452,444.225,228.087,440.861,223.937,440.861z"/>
<path d="M247.984,440.861c-4.15,0-7.515,3.364-7.515,7.515v1.002c0,4.151,3.365,7.515,7.515,7.515s7.515-3.364,7.515-7.515v-1.002  C255.499,444.225,252.134,440.861,247.984,440.861z"/>
<path d="M247.984,471.922c-4.15,0-7.515,3.364-7.515,7.515v1.002c0,4.151,3.365,7.515,7.515,7.515s7.515-3.364,7.515-7.515v-1.002  C255.499,475.285,252.134,471.922,247.984,471.922z"/>
<g>
</g>
<g>
</g>
<g>
</g>
<g>
</g>
<g>
</g>
<g>
</g>
<g>
</g>
<g>
</g>
<g>
</g>
<g>
</g>
<g>
</g>
<g>
</g>
<g>
</g>
<g>
</g>
<g>
</g>
</svg>
