<?xml version="1.0" encoding="iso-8859-1"?>
<!-- Generator: Adobe Illustrator 19.0.0, SVG Export Plug-In . SVG Version: 6.00 Build 0)  -->
<svg xmlns="http://www.w3.org/2000/svg" xmlns:xlink="http://www.w3.org/1999/xlink" version="1.1" id="Capa_1" x="0px" y="0px" viewBox="0 0 512 512" style="enable-background:new 0 0 512 512;" xml:space="preserve">
<path style="fill:#3CBDE8;" d="M320.125,63.624c-6.127,0-11.981,1.158-17.371,3.247c0.868-3.614,1.34-7.382,1.34-11.263  c0-26.562-21.532-48.094-48.094-48.094s-48.094,21.532-48.094,48.094c0,3.022,0.293,5.974,0.825,8.84  c-2.867-0.533-5.819-0.825-8.84-0.825c-26.562,0-48.094,21.532-48.094,48.094s21.532,48.094,48.094,48.094h120.235  c26.562,0,48.094-21.532,48.094-48.094S346.687,63.624,320.125,63.624z"/>
<g>
	<path style="fill:#2C9DD4;" d="M328.141,135.765H207.906c-26.562,0-48.094-21.532-48.094-48.094c0-0.891,0.028-1.774,0.076-2.652   c-5.109,7.639-8.092,16.82-8.092,26.699c0,26.562,21.532,48.094,48.094,48.094h120.235c25.671,0,46.64-20.114,48.018-45.442   C359.517,127.27,344.822,135.765,328.141,135.765z"/>
	<circle style="fill:#2C9DD4;" cx="256" cy="111.718" r="16.031"/>
</g>
<rect x="47.593" y="223.937" style="fill:#ECEEF1;" width="416.814" height="232.454"/>
<rect x="47.593" y="223.937" style="fill:#D9DDE2;" width="24.047" height="232.454"/>
<rect x="47.593" y="223.937" style="fill:#69788D;" width="416.814" height="40.078"/>
<rect x="47.593" y="223.937" style="fill:#56677E;" width="24.047" height="40.078"/>
<path style="fill:#69788D;" d="M472.423,504.485H39.577c-17.708,0-32.063-14.355-32.063-32.063v-16.031h496.971v16.031  C504.485,490.13,490.13,504.485,472.423,504.485z"/>
<path style="fill:#56677E;" d="M39.577,472.423v-16.031H7.515v16.031c0,17.708,14.355,32.063,32.063,32.063H71.64  C53.932,504.485,39.577,490.13,39.577,472.423z"/>
<rect x="231.953" y="456.391" style="fill:#F7C14D;" width="48.094" height="24.047"/>
<circle style="fill:#F09B24;" cx="256" cy="408.297" r="24.047"/>
<circle style="fill:#F7C14D;" cx="256" cy="408.297" r="8.016"/>
<path d="M472.924,111.718c0,31.563-9.549,61.862-27.614,87.62c-2.167,3.091-1.656,7.453,1.179,9.949  c3.318,2.922,8.589,2.297,11.126-1.319c19.848-28.301,30.338-61.583,30.338-96.251c0-34.667-10.491-67.95-30.337-96.251  c-2.383-3.399-7.07-4.22-10.467-1.838c-3.399,2.383-4.221,7.07-1.838,10.467C463.375,49.856,472.924,80.156,472.924,111.718z"/>
<path d="M381.466,163.83c3.354,2.353,8.117,1.514,10.467-1.838c10.377-14.8,15.863-32.183,15.863-50.274  s-5.486-35.474-15.864-50.274c-2.384-3.399-7.069-4.221-10.467-1.838c-3.399,2.383-4.221,7.07-1.838,10.467  c8.596,12.258,13.14,26.658,13.14,41.644s-4.544,29.386-13.14,41.644C377.245,156.76,378.067,161.447,381.466,163.83z"/>
<path d="M414.313,186.823c3.354,2.353,8.117,1.514,10.467-1.838c15.109-21.543,23.094-46.879,23.094-73.267  s-7.986-51.724-23.094-73.267c-2.383-3.398-7.07-4.22-10.467-1.838c-3.399,2.384-4.221,7.07-1.838,10.467  c13.326,19.001,20.37,41.353,20.37,64.637s-7.044,45.636-20.37,64.637C410.093,179.753,410.916,184.439,414.313,186.823z"/>
<path d="M60.543,211.169c5.987,0,9.564-6.958,6.146-11.831c-18.064-25.758-27.613-56.057-27.613-87.62s9.549-61.862,27.614-87.621  c2.383-3.399,1.56-8.084-1.838-10.467c-3.398-2.383-8.084-1.561-10.467,1.838C34.537,43.768,24.047,77.05,24.047,111.718  s10.49,67.95,30.337,96.251C55.847,210.054,58.177,211.169,60.543,211.169z"/>
<path d="M126.226,165.192c5.987,0,9.564-6.958,6.146-11.831c-8.595-12.256-13.139-26.655-13.139-41.642  c0-14.986,4.544-29.386,13.14-41.644c2.383-3.399,1.56-8.085-1.838-10.467c-3.398-2.383-8.084-1.562-10.467,1.838  c-10.378,14.8-15.864,32.183-15.864,50.274s5.486,35.475,15.864,50.273C121.529,164.076,123.859,165.192,126.226,165.192z"/>
<path d="M87.219,184.985c2.537,3.618,7.809,4.241,11.126,1.319c2.835-2.497,3.347-6.858,1.179-9.949  c-13.326-19-20.37-41.352-20.37-64.636s7.044-45.636,20.37-64.637c2.383-3.399,1.56-8.084-1.838-10.467  c-3.397-2.383-8.084-1.562-10.467,1.838C72.111,59.994,64.125,85.33,64.125,111.718S72.111,163.442,87.219,184.985z"/>
<path d="M504.485,448.877h-32.564V223.937c0-4.151-3.365-7.515-7.515-7.515H263.515v-49.096h56.611  c30.663,0,55.609-24.946,55.609-55.609S350.788,56.11,320.125,56.11c-2.872,0-5.719,0.219-8.529,0.654  c0.008-0.386,0.012-0.772,0.012-1.155C311.609,24.946,286.663,0,256,0s-55.609,24.946-55.609,55.609  c0,0.167,0.001,0.336,0.002,0.503c-0.167-0.001-0.336-0.002-0.503-0.002c-30.663,0-55.609,24.946-55.609,55.609  s24.946,55.609,55.609,55.609h48.595v49.096H47.593c-4.15,0-7.515,3.364-7.515,7.515v224.939H7.515c-4.15,0-7.515,3.364-7.515,7.515  v16.031C0,494.245,17.755,512,39.577,512h432.845C494.245,512,512,494.245,512,472.423v-16.031  C512,452.24,508.635,448.877,504.485,448.877z M199.89,152.297c-22.376,0-40.579-18.204-40.579-40.579s18.204-40.579,40.579-40.579  c2.464,0,4.976,0.234,7.467,0.697c5.098,0.962,9.709-3.669,8.762-8.76c-0.464-2.494-0.698-5.006-0.698-7.468  c0-22.376,18.204-40.579,40.579-40.579s40.579,18.204,40.579,40.579c0,3.182-0.381,6.38-1.131,9.509  c-1.388,5.779,4.48,10.913,10.023,8.761c4.689-1.818,9.621-2.739,14.655-2.739c22.376,0,40.579,18.204,40.579,40.579  s-18.204,40.579-40.579,40.579h-56.611v-18.27c9.308-3.144,16.031-11.953,16.031-22.31c0-12.983-10.563-23.546-23.546-23.546  s-23.546,10.563-23.546,23.546c0,10.355,6.723,19.164,16.031,22.31v18.27H199.89z M256,120.235c-4.696,0-8.517-3.82-8.517-8.517  s3.82-8.517,8.517-8.517s8.517,3.82,8.517,8.517S260.696,120.235,256,120.235z M55.108,271.53h324.801  c4.15,0,7.515-3.364,7.515-7.515s-3.365-7.515-7.515-7.515H55.108v-25.049h401.785v25.049h-40.579c-4.15,0-7.515,3.364-7.515,7.515  s3.365,7.515,7.515,7.515h40.579v177.346H55.108V271.53z M239.468,463.906h33.065v9.018h-33.065V463.906z M496.971,472.423  c0,13.536-11.013,24.548-24.548,24.548H39.577c-13.535,0-24.548-11.012-24.548-24.548v-8.517h209.409v16.532  c0,4.151,3.365,7.515,7.515,7.515h48.094c4.15,0,7.515-3.364,7.515-7.515v-16.532h209.409V472.423z"/>
<path d="M264.016,236.462h-16.031c-4.15,0-7.515,3.364-7.515,7.515s3.365,7.515,7.515,7.515h16.031c4.15,0,7.515-3.364,7.515-7.515  S268.166,236.462,264.016,236.462z"/>
<path d="M256,439.859c17.403,0,31.562-14.159,31.562-31.562c0-5.984-1.673-11.584-4.578-16.356l26.424-26.424  c2.935-2.936,2.935-7.693,0-10.628c-2.935-2.934-7.693-2.934-10.627,0l-26.424,26.425c-4.773-2.906-10.373-4.579-16.357-4.579  c-17.403,0-31.562,14.159-31.562,31.562S238.597,439.859,256,439.859z M256,391.765c9.116,0,16.532,7.417,16.532,16.532  S265.116,424.83,256,424.83c-9.116,0-16.532-7.417-16.532-16.532S246.884,391.765,256,391.765z"/>
<path d="M210.297,314.107c11.686-5.693,24.582-9.273,38.189-10.243v16.261c0,4.151,3.365,7.515,7.515,7.515  c4.15,0,7.515-3.364,7.515-7.515v-16.261c13.607,0.97,26.503,4.55,38.189,10.243l-8.125,14.073  c-1.888,3.268-0.995,7.569,2.049,9.806c3.564,2.621,8.759,1.533,10.967-2.291l8.114-14.052  c10.984,7.466,20.482,16.963,27.948,27.948l-14.052,8.113c-3.268,1.888-4.646,6.057-3.129,9.518  c1.773,4.045,6.809,5.711,10.644,3.499l14.072-8.125c6.731,13.817,10.513,29.325,10.513,45.702c0,4.151,3.365,7.515,7.515,7.515  s7.515-3.364,7.515-7.515c0-66.022-53.712-119.734-119.734-119.734s-119.734,53.712-119.734,119.734  c0,4.151,3.365,7.515,7.515,7.515s7.515-3.364,7.515-7.515c0-16.377,3.782-31.885,10.515-45.703l14.072,8.125  c3.834,2.212,8.87,0.546,10.644-3.499c1.517-3.46,0.139-7.63-3.129-9.518l-14.052-8.113c7.466-10.984,16.963-20.482,27.948-27.949  l8.113,14.053c2.208,3.825,7.403,4.914,10.967,2.291c3.043-2.238,3.937-6.538,2.049-9.806L210.297,314.107z"/>
<g>
</g>
<g>
</g>
<g>
</g>
<g>
</g>
<g>
</g>
<g>
</g>
<g>
</g>
<g>
</g>
<g>
</g>
<g>
</g>
<g>
</g>
<g>
</g>
<g>
</g>
<g>
</g>
<g>
</g>
</svg>
