<?xml version="1.0" encoding="iso-8859-1"?>
<!-- Generator: Adobe Illustrator 19.0.0, SVG Export Plug-In . SVG Version: 6.00 Build 0)  -->
<svg xmlns="http://www.w3.org/2000/svg" xmlns:xlink="http://www.w3.org/1999/xlink" version="1.1" id="Capa_1" x="0px" y="0px" viewBox="0 0 512 512" style="enable-background:new 0 0 512 512;" xml:space="preserve">
<path style="fill:#8E9AA9;" d="M380.493,331.995L181.526,133.028c14.195-32.387,8.039-71.545-18.473-98.057  S97.384,2.304,64.996,16.498l75.319,75.319l-45.477,45.477L19.519,61.975c-14.195,32.387-8.039,71.545,18.473,98.057  s65.67,32.668,98.057,18.473l198.967,198.967c-14.195,32.387-8.039,71.545,18.473,98.057c26.512,26.512,65.67,32.668,98.057,18.473  l-75.319-75.319l45.477-45.477l75.319,75.319c14.195-32.387,8.039-71.545-18.473-98.057  C452.038,323.956,412.881,317.8,380.493,331.995z"/>
<path style="fill:#7C899B;" d="M369.568,454.449c-26.512-26.512-32.668-65.67-18.473-98.057L152.129,157.425  c-32.387,14.195-71.545,8.039-98.057-18.473C35.378,120.259,26.82,95.28,28.364,70.819l-8.844-8.844  c-14.195,32.387-8.039,71.545,18.473,98.057s65.669,32.668,98.057,18.473l198.967,198.967  c-14.194,32.387-8.039,71.545,18.473,98.057c26.512,26.512,65.67,32.668,98.057,18.473l-13.846-13.846  C413.241,481.701,388.262,473.142,369.568,454.449z"/>
<rect x="250.11" y="55.378" transform="matrix(-0.7071 -0.7071 0.7071 -0.7071 281.6676 605.265)" style="fill:#B4BBC6;" width="32.156" height="377.838"/>
<polygon style="fill:#8E9AA9;" points="411.141,122.081 388.402,99.343 411.144,53.863 473.671,14.074 496.41,36.813   456.618,99.343 "/>
<rect x="68.281" y="281.417" transform="matrix(-0.7071 -0.7071 0.7071 -0.7071 -40.8539 738.8501)" style="fill:#7EC97D;" width="128.626" height="192.939"/>
<rect x="108.315" y="297.994" transform="matrix(-0.7071 -0.7071 0.7071 -0.7071 -24.2718 778.8735)" style="fill:#59AD57;" width="81.718" height="192.939"/>
<g>
	
		<rect x="138.349" y="310.431" transform="matrix(-0.7071 -0.7071 0.7071 -0.7071 -11.816 808.9055)" style="fill:#4E944D;" width="46.546" height="192.939"/>
	<polygon style="fill:#4E944D;" points="75.751,502.947 7.537,434.732 18.906,400.625 109.86,491.578  "/>
</g>
<polygon style="fill:#B8E3A8;" points="223.551,264.195 246.289,286.933 246.289,355.148 155.335,264.195 "/>
<path d="M510.47,395.963c-3.468-19.322-12.664-36.896-26.591-50.824c-13.928-13.927-31.503-23.123-50.824-26.591  c-17.15-3.077-34.595-1.488-50.767,4.585l-66.317-66.318c-2.944-2.942-7.716-2.942-10.659,0c-2.943,2.944-2.943,7.716,0,10.659  l69.852,69.852c2.196,2.195,5.514,2.821,8.355,1.573c30.749-13.475,65.959-6.845,89.702,16.899  c21.03,21.029,28.637,51.052,20.738,79.004l-66.924-66.925c-2.944-2.942-7.716-2.942-10.659,0l-45.477,45.477  c-2.943,2.944-2.943,7.716,0,10.659l66.925,66.924c-27.95,7.898-57.976,0.291-79.004-20.737  c-23.743-23.745-30.377-58.954-16.899-89.703c1.246-2.843,0.621-6.16-1.573-8.355l-62.818-62.818c-2.944-2.942-7.716-2.942-10.659,0  c-2.943,2.944-2.943,7.716,0,10.659l59.284,59.284c-6.073,16.173-7.662,33.615-4.584,50.767  c3.468,19.321,12.664,36.896,26.591,50.824c13.928,13.927,31.504,23.123,50.824,26.591c5.694,1.022,11.418,1.528,17.119,1.528  c13.192,0,26.252-2.719,38.469-8.073c4.773-2.091,5.993-8.542,2.304-12.233l-69.991-69.987l34.818-34.818l69.988,69.989  c3.693,3.689,10.139,2.468,12.233-2.304C511.594,434.056,513.857,414.833,510.47,395.963z"/>
<path d="M32.663,165.362c13.927,13.927,31.503,23.123,50.823,26.591c17.149,3.078,34.594,1.489,50.767-4.585l51.555,51.556  c3.066,3.064,8.241,2.86,11.06-0.433c2.525-2.95,2.343-7.482-0.4-10.227l-55.089-55.089c-2.196-2.194-5.512-2.819-8.355-1.573  c-30.748,13.475-65.96,6.843-89.702-16.899c-21.03-21.029-28.637-51.052-20.738-79.004l66.925,66.925  c2.944,2.942,7.716,2.942,10.659,0l45.477-45.477c2.901-2.903,2.901-7.756,0-10.659L78.72,19.564  c27.95-7.899,57.976-0.292,79.004,20.737c23.743,23.745,30.377,58.954,16.899,89.703c-1.246,2.843-0.621,6.16,1.573,8.355  l64.765,64.765c2.904,2.902,7.756,2.903,10.659,0c2.904-2.903,2.903-7.756,0-10.659l-61.232-61.232  c6.073-16.173,7.662-33.615,4.584-50.767c-3.468-19.321-12.664-36.896-26.591-50.824c-13.928-13.927-31.503-23.123-50.824-26.591  C98.688-0.334,79.466,1.928,61.97,9.595c-4.772,2.09-5.994,8.543-2.304,12.233l69.99,69.988l-34.818,34.818L24.849,56.645  c-3.692-3.69-10.139-2.468-12.233,2.304c-7.668,17.495-9.931,36.718-6.545,55.588C9.54,133.859,18.735,151.434,32.663,165.362z"/>
<path d="M255.164,288.717l160.443-160.442l44.381-22.191c1.222-0.61,2.254-1.542,2.988-2.695l39.792-62.531  c1.897-2.981,1.469-6.878-1.028-9.376L479.001,8.744c-2.497-2.495-6.394-2.925-9.376-1.028l-62.528,39.789  c-1.152,0.733-2.084,1.766-2.695,2.988l-22.194,44.384L220.428,256.659h-65.091c-1.976,0-3.933,0.81-5.33,2.207L13.576,395.295  c-0.818,0.819-1.454,1.847-1.821,2.946L0.387,432.349c-0.902,2.708-0.198,5.695,1.821,7.714l68.215,68.215  c1.999,1.998,5.032,2.713,7.714,1.821l34.107-11.368c1.101-0.367,2.124-1,2.946-1.821l136.43-136.43  c1.398-1.401,2.209-3.355,2.207-5.335v-65.369C254.3,289.478,254.752,289.129,255.164,288.717z M246.289,276.274l-12.079-12.079  l154.193-154.194l12.08,12.08L246.289,276.274z M109.86,480.919l-23.448-23.448l76.826-76.824c2.943-2.944,2.943-7.716,0-10.659  c-2.943-2.941-7.715-2.943-10.659,0l-76.826,76.825l-12.079-12.079l125.77-125.771l12.079,12.079l-24.158,24.158  c-2.743,2.744-2.926,7.276-0.4,10.227c2.818,3.292,7.994,3.496,11.06,0.432l24.158-24.158l23.448,23.448L109.86,480.919z   M155.335,274.853l23.448,23.448L53.013,424.073l-23.448-23.448L155.335,274.853z M173.532,271.732h46.897l18.323,18.323v46.897  L173.532,271.732z M416.952,59.101l55.666-35.422l14.187,14.187L451.38,93.534l-38.751,19.375l-15.056-15.056L416.952,59.101z   M77.787,494.323l-61.626-61.626l6.039-18.119l73.707,73.707L77.787,494.323z"/>
<g>
</g>
<g>
</g>
<g>
</g>
<g>
</g>
<g>
</g>
<g>
</g>
<g>
</g>
<g>
</g>
<g>
</g>
<g>
</g>
<g>
</g>
<g>
</g>
<g>
</g>
<g>
</g>
<g>
</g>
</svg>
