<?xml version="1.0" encoding="iso-8859-1"?>
<!-- Generator: Adobe Illustrator 19.0.0, SVG Export Plug-In . SVG Version: 6.00 Build 0)  -->
<svg xmlns="http://www.w3.org/2000/svg" xmlns:xlink="http://www.w3.org/1999/xlink" version="1.1" id="Capa_1" x="0px" y="0px" viewBox="0 0 512 512" style="enable-background:new 0 0 512 512;" xml:space="preserve">
<g>
	<path id="SVGCleanerId_0" style="fill:#A1ABB8;" d="M71.64,47.593v416.814c0,22.134,57.42,40.078,128.25,40.078   s128.25-17.944,128.25-40.078V47.593H71.64z"/>
</g>
<g>
	<path id="SVGCleanerId_0_1_" style="fill:#A1ABB8;" d="M71.64,47.593v416.814c0,22.134,57.42,40.078,128.25,40.078   s128.25-17.944,128.25-40.078V47.593H71.64z"/>
</g>
<g>
	<path id="SVGCleanerId_0_2_" style="fill:#A1ABB8;" d="M71.64,47.593v416.814c0,22.134,57.42,40.078,128.25,40.078   s128.25-17.944,128.25-40.078V47.593H71.64z"/>
</g>
<path style="fill:#8E9AA9;" d="M103.703,47.593H71.64v416.814c0,10.163,12.112,19.441,32.063,26.506V47.593z"/>
<g>
	<path style="fill:#7C899B;" d="M199.89,456.391c-70.83,0-128.25-17.944-128.25-40.078v48.094c0,22.134,57.42,40.078,128.25,40.078   s128.25-17.944,128.25-40.078v-48.094C328.141,438.447,270.721,456.391,199.89,456.391z"/>
	<path style="fill:#7C899B;" d="M199.89,183.859c-70.83,0-128.25-17.944-128.25-40.078v48.094c0,22.134,57.42,40.078,128.25,40.078   s128.25-17.944,128.25-40.078v-48.094C328.141,165.915,270.721,183.859,199.89,183.859z"/>
	<path style="fill:#7C899B;" d="M199.89,320.125c-70.83,0-128.25-17.944-128.25-40.078v48.094c0,22.134,57.42,40.078,128.25,40.078   s128.25-17.944,128.25-40.078v-48.094C328.141,302.181,270.721,320.125,199.89,320.125z"/>
</g>
<g>
	<path style="fill:#69788D;" d="M71.64,416.313v48.094c0,10.163,12.112,19.441,32.063,26.506v-48.094   C83.752,435.754,71.64,426.476,71.64,416.313z"/>
	<path style="fill:#69788D;" d="M71.64,143.781v48.094c0,10.163,12.112,19.441,32.063,26.506v-48.094   C83.752,163.222,71.64,153.944,71.64,143.781z"/>
	<path style="fill:#69788D;" d="M71.64,280.047v48.094c0,10.163,12.112,19.441,32.063,26.506v-48.094   C83.752,299.488,71.64,290.21,71.64,280.047z"/>
</g>
<ellipse style="fill:#D9DDE2;" cx="199.89" cy="47.593" rx="128.25" ry="40.078"/>
<path style="fill:#3CBDE8;" d="M440.36,480.438H264.016V368.219c0-17.708,14.355-32.063,32.063-32.063h112.219  c17.708,0,32.063,14.355,32.063,32.063V480.438z"/>
<path style="fill:#2C9DD4;" d="M320.125,336.157h-24.047c-17.708,0-32.063,14.355-32.063,32.063v112.219h24.047V368.219  C288.063,350.512,302.418,336.157,320.125,336.157z"/>
<path style="fill:#2A7DB5;" d="M368.219,384.25c0-8.854-7.177-16.031-16.031-16.031s-16.031,7.177-16.031,16.031  c0,5.56,2.832,10.455,7.13,13.331l-7.13,50.794h32.063l-7.13-50.794C365.388,394.706,368.219,389.81,368.219,384.25z"/>
<path d="M415.812,329.366v-65.351c0-21.823-17.755-39.577-39.577-39.577h-40.579V47.593C335.656,16.347,267.357,0,199.89,0  S64.125,16.347,64.125,47.593v416.814c0,31.245,68.298,47.593,135.765,47.593c50.656,0,96.338-9.047,119.222-23.61  c0.214-0.136,0.419-0.283,0.615-0.437H440.36c4.151,0,7.515-3.364,7.515-7.515V368.219  C447.875,348.966,434.053,332.888,415.812,329.366z M376.235,239.468c13.536,0,24.548,11.012,24.548,24.548v64.626h-65.127v-89.174  H376.235z M258.372,356.202c-17.882,2.945-38.076,4.503-58.481,4.503c-73.702,0-120.736-19.287-120.736-32.564v-25.058  c23.814,16.194,72.485,24.557,120.736,24.557c31.783,0,63.749-3.629,88.673-10.734v12.46  C274.292,332.122,262.729,342.564,258.372,356.202z M250.77,180.666c-0.464-4.124-4.193-7.097-8.307-6.628  c-13.624,1.531-27.948,2.307-42.572,2.307c-73.702,0-120.736-19.287-120.736-32.564V70.629  c23.814,16.194,72.485,24.557,120.736,24.557s96.922-8.363,120.736-24.557v73.152c0,6.737-13.33,16.824-43.11,24.174  c-3.868,0.954-6.367,4.913-5.559,8.815c0.853,4.115,5.074,6.787,9.16,5.776c17-4.196,30.296-9.583,39.51-15.869v25.197  c0,13.277-47.033,32.564-120.736,32.564S79.155,205.152,79.155,191.875v-25.058c23.814,16.194,72.485,24.557,120.736,24.557  c15.184,0,30.072-0.809,44.25-2.401C248.265,188.509,251.233,184.79,250.77,180.666z M199.89,239.468  c48.251,0,96.922-8.363,120.736-24.557v10.252c-18.241,3.522-32.063,19.599-32.063,38.853v37.081  c-20.996,6.587-51.425,11.513-88.673,11.513c-73.702,0-120.736-19.287-120.736-32.564v-65.136  C102.968,231.104,151.639,239.468,199.89,239.468z M320.626,280.047c0,4.736-5.989,10.236-17.033,15.353v-31.384  c0-10.915,7.163-20.185,17.033-23.367V280.047z M79.155,351.177c23.814,16.194,72.485,24.557,120.736,24.557  c19.591,0,39.035-1.391,56.611-4.026v72.969c-17.414,2.749-36.915,4.2-56.611,4.2c-73.702,0-120.736-19.287-120.736-32.564V351.177z   M303.593,311.84c6.535-2.604,12.279-5.524,17.033-8.757v25.559h-17.033V311.84z M199.89,15.029  c73.703,0,120.736,19.287,120.736,32.564S273.593,80.157,199.89,80.157c-73.702,0-120.736-19.287-120.736-32.564  S126.188,15.029,199.89,15.029z M199.89,496.971c-73.702,0-120.736-19.287-120.736-32.564v-25.058  c23.814,16.194,72.485,24.557,120.736,24.557c19.591,0,39.035-1.391,56.611-4.026v20.558c0,4.151,3.364,7.515,7.515,7.515h15.996  C258.037,493.647,229.684,496.971,199.89,496.971z M432.845,472.924H271.53V368.219c0-13.536,11.012-24.548,24.548-24.548h112.219  c13.536,0,24.548,11.012,24.548,24.548V472.924z"/>
<path d="M352.188,360.704c-12.983,0-23.546,10.563-23.546,23.546c0,6.186,2.415,12.03,6.629,16.377l-6.556,46.703  c-0.625,4.455,2.946,8.56,7.442,8.56h32.063c4.496,0,8.067-4.105,7.442-8.56l-6.556-46.703c4.214-4.347,6.629-10.191,6.629-16.377  C375.734,371.267,365.171,360.704,352.188,360.704z M353.648,398.627l5.929,42.234h-14.777l5.929-42.234  c0.401-2.856-0.867-5.688-3.263-7.29c-2.375-1.59-3.793-4.237-3.793-7.085c0-4.696,3.82-8.517,8.517-8.517  c4.696,0,8.517,3.82,8.517,8.517c0,2.848-1.419,5.495-3.793,7.085C354.514,392.938,353.247,395.771,353.648,398.627z"/>
<g>
</g>
<g>
</g>
<g>
</g>
<g>
</g>
<g>
</g>
<g>
</g>
<g>
</g>
<g>
</g>
<g>
</g>
<g>
</g>
<g>
</g>
<g>
</g>
<g>
</g>
<g>
</g>
<g>
</g>
</svg>
