<?xml version="1.0" encoding="iso-8859-1"?>
<!-- Generator: Adobe Illustrator 19.0.0, SVG Export Plug-In . SVG Version: 6.00 Build 0)  -->
<svg xmlns="http://www.w3.org/2000/svg" xmlns:xlink="http://www.w3.org/1999/xlink" version="1.1" id="Capa_1" x="0px" y="0px" viewBox="0 0 512 512" style="enable-background:new 0 0 512 512;" xml:space="preserve">
<path style="fill:#FFDB66;" d="M296.078,167.833H39.577c-17.708,0-32.063,14.355-32.063,32.063v200.391  c0,17.708,14.355,32.063,32.063,32.063h56.11l-8.016,72.141l88.84-72.141h119.567c17.708,0,32.063-14.355,32.063-32.063V199.896  C328.141,182.188,313.786,167.833,296.078,167.833z"/>
<path style="fill:#F7C14D;" d="M31.562,376.24V175.849c0-2.475,0.29-4.882,0.821-7.195c-14.242,3.267-24.868,16.009-24.868,31.242  v200.391c0,17.708,14.355,32.063,32.063,32.063h56.11l-8.016,72.141l24.047-24.047l8.016-72.141h-56.11  C45.917,408.303,31.562,393.948,31.562,376.24z"/>
<path style="fill:#56677E;" d="M223.01,347.569l-40.078-96.188c-1.867-4.481-6.245-7.399-11.099-7.399  c-4.853,0-9.232,2.919-11.099,7.399l-40.078,96.188c-2.554,6.129,0.345,13.17,6.475,15.723c6.129,2.555,13.169-0.345,15.723-6.475  l10.276-24.663h37.406l10.276,24.663c1.925,4.618,6.394,7.402,11.104,7.402c1.541,0,3.108-0.299,4.619-0.928  C222.665,360.739,225.564,353.698,223.01,347.569z M163.149,308.107l8.684-20.841l8.684,20.841H163.149z"/>
<path style="fill:#FF8C78;" d="M504.485,147.794c0-77.471-68.186-140.274-152.297-140.274S199.89,70.323,199.89,147.794  s68.186,140.274,152.297,140.274c8.718,0,17.262-0.684,25.579-1.981l94.656,50.075l-32.063-73.979  C479.169,236.759,504.485,194.999,504.485,147.794z"/>
<path style="fill:#DB6B5E;" d="M393.798,262.041c-8.318,1.296-16.861,1.981-25.579,1.981c-84.111,0-152.297-62.803-152.297-140.274  c0-21.811,5.406-42.459,15.048-60.871c-19.496,23.573-31.08,52.998-31.08,84.918c0,77.471,68.186,140.274,152.297,140.274  c8.718,0,17.262-0.684,25.579-1.981l94.656,50.075l-18.291-42.204L393.798,262.041z"/>
<path style="fill:#56677E;" d="M408.783,187.386l-11.446-11.446c4.53-9.666,6.953-20.701,6.953-32.154  c0-16.553-5.054-32.242-14.232-44.172c-9.897-12.867-23.347-19.953-37.87-19.953c-14.523,0-27.972,7.086-37.87,19.953  c-9.178,11.93-14.232,27.618-14.232,44.172s5.054,32.242,14.232,44.172c9.897,12.867,23.347,19.953,37.87,19.953  c11.315,0,21.97-4.319,30.809-12.304l8.783,8.783c2.348,2.348,5.425,3.522,8.502,3.522s6.154-1.174,8.502-3.522  C413.479,199.694,413.479,192.081,408.783,187.386z M352.188,183.864c-15.208,0-28.055-18.353-28.055-40.078  s12.847-40.078,28.055-40.078s28.055,18.353,28.055,40.078c0,4.666-0.596,9.175-1.677,13.381l-1.844-1.844  c-4.696-4.695-12.308-4.695-17.004,0c-4.695,4.696-4.695,12.308,0,17.004l6.208,6.208  C361.837,181.909,357.14,183.864,352.188,183.864z"/>
<path d="M178.768,284.377c-2.515-6.037-11.357-6.038-13.873,0l-8.684,20.841c-2.029,4.868,1.672,10.405,6.937,10.405h17.367  c5.264,0,8.967-5.537,6.937-10.405L178.768,284.377z"/>
<path d="M189.868,248.491c-3.043-7.304-10.123-12.023-18.035-12.023c-7.912,0-14.992,4.719-18.035,12.023l-40.078,96.188  c-4.102,9.843,0.7,21.458,10.52,25.55c9.845,4.105,21.46-0.702,25.551-10.521l8.349-20.039h27.386l8.349,20.039  c2.193,5.264,6.669,9.387,12.109,11.112c6.122,1.941,12.981,0.691,18.03-3.277c6.808-5.352,9.259-14.879,5.932-22.864  L189.868,248.491z M216.08,353.91c-1.5,3.64-6.821,3.64-8.331,0.017l-10.276-24.663c-1.166-2.8-3.903-4.624-6.937-4.624h-37.407  c-3.034,0-5.77,1.824-6.937,4.624l-10.276,24.663c-0.946,2.269-3.623,3.368-5.897,2.429c-2.267-0.937-3.371-3.632-2.428-5.897  l40.078-96.188c1.509-3.622,6.815-3.622,8.325,0l40.078,96.188C216.536,351.571,216.538,352.796,216.08,353.91z"/>
<path d="M449.72,264.883C488.836,236.972,512,193.646,512,147.794c0-35.737-13.971-70.228-39.341-97.12  c-2.849-3.02-7.604-3.158-10.623-0.31c-3.019,2.848-3.157,7.604-0.31,10.623c22.727,24.092,35.244,54.92,35.244,86.807  c0,42.78-22.702,83.191-60.729,108.102c-3.059,2.004-4.231,5.919-2.776,9.274l23.55,54.34l-75.734-40.065  c-1.432-0.757-3.069-1.031-4.671-0.783c-8.056,1.255-16.273,1.892-24.423,1.892c-79.834,0-144.783-59.555-144.783-132.759  S272.354,15.036,352.188,15.036c30.156,0,59.056,8.418,83.579,24.348c3.482,2.26,8.135,1.272,10.395-2.209  c2.26-3.481,1.272-8.134-2.208-10.395C416.988,9.264,385.256,0.006,352.188,0.006c-88.121,0-159.812,66.297-159.812,147.789  c0,4.219,0.203,8.394,0.579,12.524H39.577C17.755,160.319,0,178.074,0,199.897v200.391c0,21.823,17.755,39.577,39.577,39.577h47.714  l-7.089,63.797c-0.337,3.03,1.191,5.965,3.868,7.426c2.648,1.447,5.996,1.139,8.338-0.762l86.769-70.46h116.9  c21.823,0,39.577-17.755,39.577-39.577V294.796c5.436,0.519,10.95,0.788,16.532,0.788c8.083,0,16.226-0.571,24.243-1.7  l92.478,48.923c2.89,1.528,6.535,0.973,8.839-1.341c2.149-2.157,2.78-5.496,1.569-8.29L449.72,264.883z M320.626,400.287  c0,13.536-11.013,24.548-24.548,24.548H176.512c-1.725,0-3.398,0.594-4.737,1.681l-74.61,60.586l5.991-53.922  c0.488-4.385-3.057-8.344-7.469-8.344h-56.11c-13.535,0-24.548-11.011-24.548-24.548V199.897c0-13.536,11.013-24.548,24.548-24.548  h155.596c12.059,58.892,62.017,105.536,125.453,117.334L320.626,400.287L320.626,400.287z"/>
<path d="M396.014,95.032c-11.353-14.757-26.918-22.886-43.827-22.886s-32.473,8.128-43.827,22.886  c-10.182,13.237-15.79,30.552-15.79,48.754s5.608,35.517,15.79,48.754c11.353,14.758,26.918,22.886,43.827,22.886  c10.837,0,21.169-3.352,30.245-9.755l4.034,4.033c7.533,7.531,20.098,7.53,27.631-0.001c7.617-7.618,7.617-20.013,0-27.63  c0,0,0,0,0-0.001l-7.858-7.858c3.652-9.455,5.566-19.868,5.566-30.427C411.804,125.583,406.196,108.269,396.014,95.032z   M403.471,199.076c-1.737,1.737-4.64,1.738-6.377,0l-8.783-8.783c-2.792-2.791-7.419-2.911-10.351-0.262  c-7.507,6.782-16.419,10.366-25.772,10.366c-12.137,0-23.471-6.045-31.913-17.02c-8.172-10.624-12.673-24.684-12.673-39.59  s4.501-28.967,12.674-39.59c8.443-10.975,19.777-17.02,31.913-17.02s23.471,6.045,31.913,17.02  c8.173,10.624,12.674,24.684,12.674,39.59c0,10.235-2.158,20.251-6.242,28.965c-1.343,2.866-0.746,6.265,1.491,8.503l11.445,11.445  C405.228,194.458,405.228,197.319,403.471,199.076z"/>
<path d="M352.188,96.193c-19.613,0-35.569,21.351-35.569,47.593s15.956,47.593,35.569,47.593c6.528,0,12.932-2.437,18.519-7.047  c3.369-2.778,3.621-8.021,0.532-11.11l-6.208-6.208c-1.758-1.758-1.758-4.619-0.001-6.376c1.757-1.757,4.619-1.759,6.376-0.001  c1.87,1.87,3.606,3.73,6.416,4.01c3.644,0.363,7.11-2.063,8.021-5.608c1.27-4.941,1.915-10.073,1.915-15.253  C387.757,117.544,371.801,96.193,352.188,96.193z M372.717,144.818c-6.373-1.498-13.355,0.233-18.314,5.193  c-7.187,7.188-7.593,18.628-1.217,26.295c-0.333,0.029-0.665,0.044-0.998,0.044c-10.941,0-20.54-15.217-20.54-32.564  s9.599-32.564,20.54-32.564s20.54,15.217,20.54,32.564C372.728,144.131,372.724,144.474,372.717,144.818z"/>
<g>
</g>
<g>
</g>
<g>
</g>
<g>
</g>
<g>
</g>
<g>
</g>
<g>
</g>
<g>
</g>
<g>
</g>
<g>
</g>
<g>
</g>
<g>
</g>
<g>
</g>
<g>
</g>
<g>
</g>
</svg>
