<?xml version="1.0" encoding="iso-8859-1"?>
<!-- Generator: Adobe Illustrator 19.0.0, SVG Export Plug-In . SVG Version: 6.00 Build 0)  -->
<svg xmlns="http://www.w3.org/2000/svg" xmlns:xlink="http://www.w3.org/1999/xlink" version="1.1" id="Capa_1" x="0px" y="0px" viewBox="0 0 512 512" style="enable-background:new 0 0 512 512;" xml:space="preserve">
<rect x="19.538" y="7.515" style="fill:#69788D;" width="240.47" height="440.861"/>
<rect x="19.538" y="7.515" style="fill:#56677E;" width="24.047" height="440.861"/>
<circle style="fill:#F7C14D;" cx="139.773" cy="215.922" r="32.063"/>
<circle style="fill:#FFDB66;" cx="139.773" cy="215.922" r="16.031"/>
<rect x="51.601" y="31.562" style="fill:#435670;" width="176.344" height="64.125"/>
<rect x="67.632" y="47.593" style="fill:#56677E;" width="144.282" height="32.063"/>
<rect x="139.773" y="320.125" style="fill:#F7C14D;" width="288.564" height="184.36"/>
<path style="fill:#F09B24;" d="M274.238,456.226L139.773,344.172v-24.047h288.564v24.047L293.872,456.226  C288.185,460.965,279.925,460.965,274.238,456.226z"/>
<polygon style="fill:#FFDB66;" points="284.055,440.36 139.773,320.125 428.337,320.125 "/>
<circle style="fill:#59AD57;" cx="324.133" cy="264.016" r="24.047"/>
<circle style="fill:#7EC97D;" cx="324.133" cy="264.016" r="8.016"/>
<path d="M139.773,255.499c21.823,0,39.577-17.755,39.577-39.577s-17.755-39.577-39.577-39.577s-39.577,17.755-39.577,39.577  S117.95,255.499,139.773,255.499z M132.258,192.555v15.351c0,4.15,3.365,7.515,7.515,7.515s7.515-3.365,7.515-7.515v-15.351  c9.87,3.182,17.033,12.451,17.033,23.367c0,13.535-11.013,24.548-24.548,24.548s-24.548-11.013-24.548-24.548  C115.225,205.006,122.388,195.736,132.258,192.555z"/>
<path d="M51.601,287.562h152.297c4.15,0,7.515-3.365,7.515-7.515s-3.365-7.515-7.515-7.515H51.601c-4.15,0-7.515,3.365-7.515,7.515  S47.451,287.562,51.601,287.562z"/>
<path d="M51.601,103.202h176.344c4.15,0,7.515-3.365,7.515-7.515V31.562c0-4.15-3.365-7.515-7.515-7.515H51.601  c-4.15,0-7.515,3.365-7.515,7.515v64.125C44.086,99.837,47.451,103.202,51.601,103.202z M59.115,39.076h161.315v49.096H59.115  V39.076z"/>
<path d="M435.812,319.36c-0.379-3.81-3.711-6.749-7.522-6.749h-56.064c-4.151,0-7.515,3.365-7.515,7.515s3.364,7.515,7.515,7.515  h35.353L284.055,430.578L160.529,327.64h176.129c4.151,0,7.515-3.365,7.515-7.515s-3.364-7.515-7.515-7.515h-69.135V7.515  c0-4.15-3.364-7.515-7.515-7.515H19.538c-4.15,0-7.515,3.365-7.515,7.515v440.861c0,4.15,3.365,7.515,7.515,7.515h112.72v48.595  c0,4.15,3.365,7.515,7.515,7.515h288.564c4.151,0,7.515-3.365,7.515-7.515v-184.36C435.851,319.871,435.838,319.612,435.812,319.36z   M252.493,15.029v97.19H27.053v-97.19H252.493z M27.053,440.861V127.249h225.44v185.362H51.601c-4.15,0-7.515,3.365-7.515,7.515  s3.365,7.515,7.515,7.515h80.658v25.049H51.601c-4.15,0-7.515,3.365-7.515,7.515s3.365,7.515,7.515,7.515h80.658v73.143H27.053z   M147.288,496.971V336.17l131.956,109.964c2.753,2.294,6.868,2.294,9.623,0L420.822,336.17v160.801H147.288z"/>
<path d="M324.133,295.577c17.403,0,31.562-14.159,31.562-31.562s-14.159-31.562-31.562-31.562  c-17.403,0-31.562,14.159-31.562,31.562S306.73,295.577,324.133,295.577z M324.133,247.483c9.116,0,16.532,7.416,16.532,16.532  s-7.416,16.532-16.532,16.532c-9.116,0-16.532-7.417-16.532-16.532C307.601,254.9,315.017,247.483,324.133,247.483z"/>
<path d="M380.744,264.016c0,4.15,3.364,7.515,7.515,7.515c4.151,0,7.515-3.365,7.515-7.515c0-39.502-32.138-71.64-71.64-71.64  c-4.151,0-7.515,3.365-7.515,7.515s3.364,7.515,7.515,7.515C355.348,207.405,380.744,232.801,380.744,264.016z"/>
<path d="M324.133,144.282c-4.151,0-7.515,3.365-7.515,7.515s3.364,7.515,7.515,7.515c57.734,0,104.705,46.97,104.705,104.704  c0,4.15,3.364,7.515,7.515,7.515c4.151,0,7.515-3.365,7.515-7.515C443.867,197.994,390.155,144.282,324.133,144.282z"/>
<path d="M324.133,88.172c-4.151,0-7.515,3.365-7.515,7.515c0,4.15,3.364,7.515,7.515,7.515c88.673,0,160.814,72.141,160.814,160.814  c0,4.15,3.364,7.515,7.515,7.515c4.151,0,7.515-3.365,7.515-7.515C499.977,167.055,421.093,88.172,324.133,88.172z"/>
<g>
</g>
<g>
</g>
<g>
</g>
<g>
</g>
<g>
</g>
<g>
</g>
<g>
</g>
<g>
</g>
<g>
</g>
<g>
</g>
<g>
</g>
<g>
</g>
<g>
</g>
<g>
</g>
<g>
</g>
</svg>
