<?xml version="1.0" encoding="iso-8859-1"?>
<!-- Generator: Adobe Illustrator 19.0.0, SVG Export Plug-In . SVG Version: 6.00 Build 0)  -->
<svg xmlns="http://www.w3.org/2000/svg" xmlns:xlink="http://www.w3.org/1999/xlink" version="1.1" id="Capa_1" x="0px" y="0px" viewBox="0 0 512 512" style="enable-background:new 0 0 512 512;" xml:space="preserve">
<rect x="147.792" y="264.02" style="fill:#FFDB66;" width="208.411" height="48.095"/>
<g>
	<rect x="147.792" y="264.02" style="fill:#F7C14D;" width="24.047" height="48.095"/>
	<polygon style="fill:#F7C14D;" points="276.039,392.273 227.945,392.273 147.787,312.115 356.197,312.115  "/>
</g>
<polygon style="fill:#F09B24;" points="147.787,312.115 227.945,392.273 251.992,392.273 171.834,312.115 "/>
<polygon style="fill:#FFDB66;" points="276.039,488.463 227.945,504.494 227.945,392.273 276.039,392.273 "/>
<polygon style="fill:#F7C14D;" points="243.976,392.273 227.945,392.273 227.945,504.494 243.976,499.151 "/>
<path style="fill:#3CBDE8;" d="M364.213,95.689c-15.284,0-29.134,6.119-39.253,16.032h-0.327c4.802-9.661,7.517-20.542,7.517-32.063  c0-39.844-32.299-72.142-72.142-72.142s-72.142,32.299-72.142,72.142c0,3.025,0.208,6.001,0.569,8.928  c-9.561-5.665-20.714-8.928-32.632-8.928c-35.416,0-64.126,28.711-64.126,64.126s28.711,64.126,64.126,64.126h208.411  c30.989,0,56.111-25.122,56.111-56.111S395.202,95.689,364.213,95.689z"/>
<path style="fill:#2C9DD4;" d="M380.245,183.862H171.834c-35.416,0-64.126-28.711-64.126-64.126c0-7.952,1.458-15.56,4.103-22.587  c-12.389,11.692-20.135,28.254-20.135,46.634c0,35.416,28.711,64.126,64.126,64.126h208.411c24.68,0,45.623-15.94,53.134-38.082  C407.456,178.556,394.474,183.862,380.245,183.862z"/>
<polygon style="fill:#7C899B;" points="219.929,135.768 219.929,231.957 187.866,231.957 251.992,288.068 316.118,231.957   284.055,231.957 284.055,135.768 "/>
<polygon style="fill:#69788D;" points="243.976,247.989 243.976,135.768 219.929,135.768 219.929,231.957 187.866,231.957   251.992,288.068 269.093,273.105 "/>
<path d="M364.213,88.174c-9.006,0-17.744,1.87-25.759,5.423c0.806-4.562,1.21-9.215,1.21-13.939C339.665,35.734,303.931,0,260.008,0  c-42.866,0-77.934,34.034-79.595,76.501c-7.847-2.871-16.179-4.359-24.611-4.359c-39.503,0-71.641,32.138-71.641,71.641  s32.138,71.641,71.641,71.641h56.612v9.018h-24.548c-3.131,0-5.934,1.941-7.035,4.872c-1.101,2.931-0.27,6.237,2.086,8.299  l21.592,18.892h-56.722c-4.15,0-7.515,3.365-7.515,7.515v48.093c0,1.971,0.808,3.924,2.202,5.317l77.956,77.956v109.108  c0,5.039,5.099,8.725,9.891,7.129l48.095-16.032c3.069-1.023,5.138-3.895,5.138-7.129v-93.076l77.958-77.958  c1.39-1.404,2.202-3.34,2.2-5.318v-48.09c0-4.15-3.364-7.515-7.515-7.515h-56.723l21.592-18.892  c5.114-4.475,1.832-13.171-4.948-13.171H291.57v-9.018h72.643c35.083,0,63.625-28.542,63.625-63.625S399.296,88.174,364.213,88.174z   M268.525,483.046l-33.065,11.022v-30.153h8.517c4.15,0,7.515-3.365,7.515-7.515s-3.365-7.515-7.515-7.515h-8.517v-17.034h8.517  c4.15,0,7.515-3.365,7.515-7.515s-3.365-7.515-7.515-7.515h-8.517v-17.034h33.065V483.046z M348.683,271.535V304.6h-32.564  c-4.151,0-7.515,3.365-7.515,7.515s3.364,7.515,7.515,7.515h21.936l-65.128,65.128h-41.87l-65.128-65.128h115.121  c4.151,0,7.515-3.365,7.515-7.515s-3.364-7.515-7.515-7.515H155.301v-33.065h64.627c0.537,0,1.061-0.059,1.566-0.166l25.547,22.354  c2.798,2.447,7.1,2.449,9.897,0l25.36-22.188H348.683z M364.213,200.395H291.57v-64.627c0-4.15-3.364-7.515-7.515-7.515  s-7.515,3.365-7.515,7.515v96.19c0,4.15,3.364,7.515,7.515,7.515h12.063l-44.126,38.61l-44.126-38.61h12.063  c4.15,0,7.515-3.365,7.515-7.515v-96.19c0-4.15-3.365-7.515-7.515-7.515s-7.515,3.365-7.515,7.515v64.627h-56.612  c-31.216,0-56.612-25.396-56.612-56.612s25.396-56.612,56.612-56.612c10.143,0,20.103,2.724,28.803,7.879  c5.271,3.121,12.038-1.319,11.288-7.387c-0.345-2.794-0.513-5.413-0.513-8.007c0-35.635,28.992-64.627,64.627-64.627  s64.627,28.992,64.627,64.627c0,10.071-2.264,19.733-6.731,28.719c-1.691,3.4-0.502,7.652,2.699,9.686  c2.961,1.882,7.101,1.489,9.614-0.973c9.142-8.955,21.216-13.885,33.996-13.885c26.796,0,48.596,21.8,48.596,48.596  S391.01,200.395,364.213,200.395z"/>
<g>
</g>
<g>
</g>
<g>
</g>
<g>
</g>
<g>
</g>
<g>
</g>
<g>
</g>
<g>
</g>
<g>
</g>
<g>
</g>
<g>
</g>
<g>
</g>
<g>
</g>
<g>
</g>
<g>
</g>
</svg>
