<?xml version="1.0" encoding="iso-8859-1"?>
<!-- Generator: Adobe Illustrator 19.0.0, SVG Export Plug-In . SVG Version: 6.00 Build 0)  -->
<svg xmlns="http://www.w3.org/2000/svg" xmlns:xlink="http://www.w3.org/1999/xlink" version="1.1" id="Capa_1" x="0px" y="0px" viewBox="0 0 512 512" style="enable-background:new 0 0 512 512;" xml:space="preserve">
<rect x="7.515" y="63.624" style="fill:#ECEEF1;" width="496.971" height="424.83"/>
<rect x="7.515" y="63.624" style="fill:#D9DDE2;" width="32.063" height="424.83"/>
<rect x="7.515" y="63.624" style="fill:#8E9AA9;" width="496.971" height="72.141"/>
<rect x="7.515" y="63.624" style="fill:#7C899B;" width="32.063" height="72.141"/>
<g>
	<rect x="239.969" y="23.546" style="fill:#FFDB66;" width="32.063" height="64.125"/>
	<rect x="336.157" y="23.546" style="fill:#FFDB66;" width="32.063" height="64.125"/>
	<rect x="432.344" y="23.546" style="fill:#FFDB66;" width="32.063" height="64.125"/>
	<rect x="143.781" y="23.546" style="fill:#FFDB66;" width="32.063" height="64.125"/>
	<rect x="47.593" y="23.546" style="fill:#FFDB66;" width="32.063" height="64.125"/>
</g>
<polygon style="fill:#D9DDE2;" points="408.297,488.454 504.485,392.266 408.297,392.266 "/>
<g>
	<path style="fill:#FF8C78;" d="M416.313,242.641v-21.375l-18.203-3.64c-0.869-2.785-1.992-5.457-3.328-8l10.306-15.458   l-15.115-15.115l-15.458,10.306c-2.543-1.336-5.214-2.46-8-3.327l-3.64-18.203h-21.375l-3.64,18.203   c-2.785,0.869-5.457,1.992-8,3.327l-15.458-10.306l-15.115,15.115l10.306,15.458c-1.336,2.543-2.46,5.214-3.328,8l-18.203,3.64   v21.375l18.203,3.64c0.869,2.785,1.992,5.457,3.328,8l-10.306,15.458l15.115,15.115l15.458-10.305c2.543,1.336,5.214,2.46,8,3.328   l3.64,18.203h21.375l3.64-18.203c2.785-0.869,5.457-1.992,8-3.328l15.458,10.305l15.115-15.115l-10.306-15.458   c1.336-2.543,2.46-5.214,3.328-8L416.313,242.641z M352.188,253.328c-11.805,0-21.375-9.57-21.375-21.375   s9.57-21.375,21.375-21.375c11.805,0,21.375,9.57,21.375,21.375S363.993,253.328,352.188,253.328z"/>
	<path style="fill:#FF8C78;" d="M223.937,402.954v-21.375l-18.203-3.64c-0.869-2.785-1.992-5.457-3.327-8l10.306-15.458   l-15.115-15.115l-15.458,10.306c-2.543-1.336-5.214-2.46-8-3.328l-3.64-18.203h-21.375l-3.64,18.203   c-2.785,0.869-5.457,1.992-8,3.328l-15.458-10.306l-15.115,15.115l10.306,15.458c-1.336,2.543-2.46,5.214-3.327,8l-18.206,3.639   v21.375l18.203,3.64c0.869,2.785,1.992,5.457,3.327,8l-10.306,15.458l15.115,15.115l15.458-10.305c2.543,1.336,5.214,2.46,8,3.328   l3.64,18.203h21.375l3.64-18.203c2.785-0.869,5.457-1.992,8-3.328l15.458,10.305l15.115-15.115l-10.306-15.458   c1.336-2.543,2.46-5.214,3.327-8L223.937,402.954z M159.812,413.641c-11.805,0-21.375-9.57-21.375-21.375   c0-11.805,9.57-21.375,21.375-21.375s21.375,9.57,21.375,21.375C181.187,404.071,171.617,413.641,159.812,413.641z"/>
</g>
<g>
	<path style="fill:#DB6B5E;" d="M159.812,352.188c-22.134,0-40.078,17.944-40.078,40.078s17.944,40.078,40.078,40.078   s40.078-17.944,40.078-40.078S181.946,352.188,159.812,352.188z M159.812,416.313c-13.281,0-24.047-10.766-24.047-24.047   s10.766-24.047,24.047-24.047s24.047,10.766,24.047,24.047S173.093,416.313,159.812,416.313z"/>
	<path style="fill:#DB6B5E;" d="M352.188,191.875c-22.134,0-40.078,17.944-40.078,40.078s17.944,40.078,40.078,40.078   s40.078-17.944,40.078-40.078S374.322,191.875,352.188,191.875z M352.188,256c-13.281,0-24.047-10.766-24.047-24.047   s10.766-24.047,24.047-24.047s24.047,10.766,24.047,24.047S365.469,256,352.188,256z"/>
</g>
<polygon style="fill:#69788D;" points="227.424,215.519 199.085,187.18 176.414,175.843 159.409,192.848 199.085,232.523   176.414,255.194 136.738,215.519 119.734,232.523 131.07,255.194 159.409,283.534 199.085,277.866 289.772,368.553 284.104,408.228   312.443,436.568 335.115,447.904 352.119,430.9 312.443,391.224 335.115,368.553 374.79,408.228 391.794,391.224 380.458,368.553   352.119,340.214 312.443,345.882 221.756,255.194 "/>
<polygon style="fill:#56677E;" points="187.749,243.858 176.414,255.194 136.738,215.519 119.734,232.523 131.07,255.194   159.409,283.534 199.085,277.866 289.772,368.553 284.104,408.228 312.443,436.568 335.115,447.904 352.119,430.9 312.443,391.224   323.779,379.889 "/>
<path d="M504.485,56.11h-32.564V23.546c0-4.15-3.365-7.515-7.515-7.515h-32.063c-4.15,0-7.515,3.365-7.515,7.515V56.11h-49.096  V23.546c0-4.15-3.365-7.515-7.515-7.515h-32.063c-4.15,0-7.515,3.365-7.515,7.515V56.11h-49.096V23.546  c0-4.15-3.365-7.515-7.515-7.515h-32.063c-4.15,0-7.515,3.365-7.515,7.515V56.11h-49.096V23.546c0-4.15-3.365-7.515-7.515-7.515  h-32.063c-4.15,0-7.515,3.365-7.515,7.515V56.11H87.17V23.546c0-4.15-3.365-7.515-7.515-7.515H47.593  c-4.15,0-7.515,3.365-7.515,7.515V56.11H7.515C3.365,56.11,0,59.474,0,63.624v424.83c0,4.15,3.365,7.515,7.515,7.515h496.971  c4.15,0,7.515-3.365,7.515-7.515V63.624C512,59.474,508.635,56.11,504.485,56.11z M439.859,31.061h17.033v49.096h-17.033V31.061z   M343.671,31.061h17.033v49.096h-17.033V31.061z M247.483,31.061h17.033v49.096h-17.033V31.061z M151.296,31.061h17.033v49.096  h-17.033V31.061z M55.108,31.061h17.033v49.096H55.108V31.061z M15.029,143.28h397.777c4.15,0,7.515-3.365,7.515-7.515  s-3.365-7.515-7.515-7.515H15.029V71.139h25.049v16.532c0,4.15,3.365,7.515,7.515,7.515h32.063c4.15,0,7.515-3.365,7.515-7.515  V71.139h49.096v16.532c0,4.15,3.365,7.515,7.515,7.515h32.063c4.15,0,7.515-3.365,7.515-7.515V71.139h49.096v16.532  c0,4.15,3.365,7.515,7.515,7.515h32.063c4.15,0,7.515-3.365,7.515-7.515V71.139h49.096v16.532c0,4.15,3.365,7.515,7.515,7.515  h32.063c4.15,0,7.515-3.365,7.515-7.515V71.139h49.096v16.532c0,4.15,3.365,7.515,7.515,7.515h32.063  c4.15,0,7.515-3.365,7.515-7.515V71.139h25.049v57.112h-48.595c-4.15,0-7.515,3.365-7.515,7.515s3.365,7.515,7.515,7.515h48.595  v241.472h-88.673c-4.15,0-7.515,3.365-7.515,7.515v88.673H15.029V143.28z M486.344,399.781l-70.532,70.532v-70.532H486.344z   M426.439,480.939l70.532-70.532v70.532H426.439z"/>
<path d="M352.188,260.842c15.93,0,28.889-12.96,28.889-28.889s-12.96-28.889-28.889-28.889c-15.929,0-28.889,12.96-28.889,28.889  S336.258,260.842,352.188,260.842z M352.188,218.093c7.643,0,13.86,6.218,13.86,13.86s-6.218,13.86-13.86,13.86  s-13.86-6.218-13.86-13.86S344.545,218.093,352.188,218.093z"/>
<path d="M286.589,250.009l14.046,2.809c0.113,0.278,0.228,0.555,0.347,0.833l-7.947,11.92c-1.987,2.981-1.594,6.95,0.939,9.482  l15.115,15.115c2.533,2.533,6.502,2.927,9.482,0.939l11.92-7.948c0.277,0.118,0.554,0.233,0.832,0.347l2.809,14.046  c0.702,3.513,3.786,6.041,7.368,6.041h21.375c3.582,0,6.666-2.528,7.368-6.041l2.809-14.047c0.278-0.113,0.555-0.228,0.832-0.347  l11.92,7.948c2.981,1.987,6.951,1.595,9.482-0.939l15.115-15.115c2.533-2.533,2.926-6.502,0.939-9.482l-7.948-11.92  c0.118-0.277,0.233-0.554,0.347-0.832l14.047-2.809c3.512-0.702,6.041-3.786,6.041-7.368v-21.375c0-3.582-2.528-6.666-6.041-7.368  l-14.047-2.809c-0.113-0.278-0.228-0.555-0.347-0.832l7.948-11.92c1.987-2.981,1.594-6.95-0.939-9.482l-15.115-15.115  c-2.533-2.533-6.502-2.927-9.482-0.939l-11.92,7.948c-0.277-0.118-0.554-0.233-0.832-0.347l-2.809-14.047  c-0.702-3.512-3.786-6.041-7.368-6.041H341.5c-3.582,0-6.666,2.528-7.368,6.041l-2.809,14.046c-0.278,0.113-0.555,0.229-0.832,0.347  l-11.92-7.948c-2.98-1.986-6.949-1.594-9.482,0.939l-15.115,15.115c-2.533,2.533-2.926,6.502-0.939,9.482l7.947,11.92  c-0.118,0.277-0.233,0.554-0.347,0.833l-14.046,2.809c-3.512,0.702-6.041,3.786-6.041,7.368v21.375  C280.548,246.223,283.076,249.307,286.589,250.009z M295.577,227.426l12.162-2.433c2.696-0.54,4.883-2.508,5.7-5.133  c0.71-2.28,1.654-4.549,2.806-6.741c1.278-2.435,1.125-5.374-0.401-7.662l-6.888-10.333l6.403-6.403l10.333,6.888  c2.287,1.525,5.227,1.68,7.662,0.401c2.191-1.15,4.459-2.095,6.742-2.806c2.625-0.818,4.593-3.005,5.133-5.7l2.432-12.162h9.054  l2.433,12.162c0.539,2.695,2.508,4.882,5.132,5.7c2.283,0.711,4.552,1.656,6.742,2.806c2.434,1.277,5.374,1.125,7.662-0.401  l10.333-6.888l6.403,6.403l-6.888,10.333c-1.526,2.288-1.679,5.227-0.401,7.662c1.15,2.19,2.095,4.459,2.806,6.742  c0.819,2.624,3.005,4.593,5.7,5.132l12.162,2.433v9.054l-12.162,2.433c-2.695,0.539-4.882,2.508-5.7,5.132  c-0.711,2.283-1.656,4.552-2.806,6.742c-1.279,2.435-1.125,5.374,0.401,7.662l6.888,10.333l-6.403,6.403l-10.333-6.888  c-2.288-1.525-5.227-1.68-7.662-0.401c-2.19,1.15-4.459,2.095-6.742,2.806c-2.624,0.819-4.593,3.005-5.132,5.7l-2.433,12.162h-9.054  l-2.432-12.162c-0.539-2.696-2.508-4.883-5.133-5.7c-2.283-0.711-4.551-1.656-6.742-2.806c-2.436-1.279-5.375-1.125-7.662,0.401  l-10.333,6.888l-6.403-6.403l6.888-10.333c1.526-2.288,1.679-5.227,0.401-7.662c-1.151-2.192-2.096-4.461-2.806-6.741  c-0.818-2.625-3.005-4.593-5.7-5.133l-12.162-2.433V227.426z"/>
<path d="M159.812,363.377c-15.93,0-28.889,12.96-28.889,28.889c0,15.929,12.96,28.889,28.889,28.889s28.889-12.96,28.889-28.889  C188.702,376.337,175.742,363.377,159.812,363.377z M159.812,406.126c-7.643,0-13.86-6.218-13.86-13.86s6.218-13.86,13.86-13.86  s13.86,6.218,13.86,13.86S167.455,406.126,159.812,406.126z"/>
<path d="M225.411,374.21l-14.047-2.809c-0.113-0.278-0.228-0.555-0.347-0.832l7.948-11.92c1.987-2.981,1.594-6.95-0.939-9.482  l-15.115-15.115c-2.533-2.533-6.502-2.927-9.482-0.939l-11.92,7.948c-0.277-0.118-0.554-0.233-0.832-0.347l-2.809-14.047  c-0.702-3.512-3.786-6.041-7.368-6.041h-21.375c-3.582,0-6.666,2.528-7.368,6.041l-2.809,14.046  c-0.278,0.113-0.555,0.229-0.832,0.347l-11.92-7.948c-2.98-1.987-6.95-1.595-9.482,0.939l-15.115,15.115  c-2.533,2.533-2.926,6.502-0.939,9.482l7.947,11.92c-0.118,0.277-0.233,0.554-0.347,0.833l-14.046,2.809  c-3.514,0.702-6.042,3.786-6.042,7.368v21.375c0,3.582,2.528,6.666,6.041,7.368l14.046,2.809c0.113,0.278,0.228,0.555,0.347,0.833  l-7.947,11.92c-1.987,2.981-1.594,6.95,0.939,9.482l15.115,15.115c2.533,2.533,6.502,2.927,9.482,0.939l11.92-7.948  c0.277,0.118,0.554,0.233,0.832,0.347l2.809,14.046c0.702,3.513,3.786,6.041,7.368,6.041h21.375c3.582,0,6.666-2.528,7.368-6.041  l2.809-14.047c0.278-0.113,0.555-0.228,0.832-0.347l11.92,7.948c2.981,1.988,6.95,1.595,9.482-0.939l15.115-15.115  c2.533-2.533,2.926-6.502,0.939-9.482l-7.948-11.92c0.118-0.277,0.233-0.554,0.347-0.832l14.047-2.809  c3.512-0.702,6.041-3.786,6.041-7.368v-21.375C231.452,377.996,228.924,374.912,225.411,374.21z M216.423,396.793l-12.162,2.433  c-2.695,0.539-4.882,2.508-5.7,5.132c-0.711,2.283-1.656,4.552-2.806,6.742c-1.278,2.435-1.125,5.375,0.401,7.662l6.888,10.333  l-6.402,6.403l-10.333-6.888c-2.287-1.525-5.227-1.679-7.662-0.401c-2.19,1.15-4.459,2.095-6.742,2.806  c-2.624,0.819-4.593,3.005-5.132,5.7l-2.433,12.162h-9.054l-2.432-12.162c-0.539-2.696-2.508-4.883-5.133-5.7  c-2.283-0.711-4.551-1.656-6.742-2.806c-2.435-1.279-5.374-1.126-7.662,0.401l-10.333,6.888l-6.403-6.403l6.888-10.333  c1.526-2.288,1.679-5.227,0.401-7.662c-1.151-2.192-2.096-4.461-2.806-6.741c-0.818-2.625-3.005-4.593-5.7-5.133l-12.162-2.433  v-9.054l12.162-2.433c2.696-0.54,4.883-2.508,5.7-5.133c0.71-2.28,1.654-4.549,2.806-6.741c1.278-2.435,1.125-5.375-0.401-7.662  l-6.888-10.333l6.403-6.403l10.333,6.888c2.287,1.525,5.227,1.679,7.662,0.401c2.191-1.15,4.459-2.095,6.742-2.806  c2.625-0.818,4.593-3.005,5.133-5.7l2.432-12.162h9.054l2.433,12.162c0.539,2.695,2.508,4.882,5.132,5.7  c2.283,0.711,4.552,1.656,6.742,2.806c2.435,1.277,5.373,1.125,7.662-0.401l10.333-6.888l6.402,6.403l-6.888,10.333  c-1.526,2.288-1.679,5.227-0.401,7.662c1.15,2.19,2.095,4.459,2.806,6.742c0.819,2.624,3.005,4.593,5.7,5.132l12.162,2.433V396.793z  "/>
<path d="M398.515,387.864l-11.335-22.671c-0.361-0.722-29.747-30.292-29.747-30.292c-1.672-1.672-4.035-2.457-6.376-2.126  L315.1,337.91l-85.374-85.374l5.137-35.955c0.334-2.342-0.453-4.703-2.126-6.376c0,0-29.571-29.386-30.293-29.747l-22.671-11.335  c-2.894-1.447-6.387-0.88-8.674,1.408l-17.003,17.004c-2.935,2.935-2.935,7.693,0,10.627l34.361,34.361l-12.045,12.045  l-34.361-34.361c-2.934-2.935-7.692-2.935-10.627,0l-17.004,17.003c-2.287,2.287-2.855,5.781-1.408,8.674l11.335,22.671  c0.361,0.722,29.747,30.293,29.747,30.293c1.673,1.672,4.036,2.458,6.376,2.126l35.955-5.137L281.8,371.21l-5.136,35.956  c-0.334,2.342,0.453,4.704,2.126,6.376c0,0,29.57,29.386,30.292,29.747l22.671,11.335c2.862,1.432,6.413,0.854,8.674-1.408  l17.004-17.003c2.894-2.893,2.894-7.735,0-10.627l-34.362-34.362l12.045-12.045l34.362,34.362c2.893,2.894,7.735,2.894,10.627,0  l17.003-17.004C399.395,394.251,399.962,390.757,398.515,387.864z M374.791,397.602l-34.362-34.362  c-2.935-2.935-7.693-2.935-10.627,0l-22.671,22.671c-2.935,2.935-2.935,7.693,0,10.627l34.362,34.362l-7.86,7.86l-16.737-8.368  l-24.82-24.82l5.136-35.956c0.334-2.342-0.453-4.704-2.126-6.376l-90.687-90.687c-1.672-1.672-4.034-2.458-6.376-2.126  l-35.956,5.137l-24.82-24.82l-8.368-16.737l7.86-7.86l34.361,34.361c2.935,2.935,7.693,2.935,10.627,0l22.671-22.671  c2.935-2.935,2.935-7.693,0-10.627l-34.361-34.361l7.86-7.86l16.737,8.368l24.82,24.82l-5.137,35.956  c-0.334,2.342,0.453,4.703,2.126,6.376l90.687,90.687c1.673,1.672,4.035,2.46,6.376,2.126l35.956-5.136l24.82,24.82l8.368,16.737  L374.791,397.602z"/>
<g>
</g>
<g>
</g>
<g>
</g>
<g>
</g>
<g>
</g>
<g>
</g>
<g>
</g>
<g>
</g>
<g>
</g>
<g>
</g>
<g>
</g>
<g>
</g>
<g>
</g>
<g>
</g>
<g>
</g>
</svg>
