<?xml version="1.0" encoding="iso-8859-1"?>
<!-- Generator: Adobe Illustrator 19.0.0, SVG Export Plug-In . SVG Version: 6.00 Build 0)  -->
<svg xmlns="http://www.w3.org/2000/svg" xmlns:xlink="http://www.w3.org/1999/xlink" version="1.1" id="Capa_1" x="0px" y="0px" viewBox="0 0 512 512" style="enable-background:new 0 0 512 512;" xml:space="preserve">
<path style="fill:#2C9DD4;" d="M424.329,448.376H87.671c-13.281,0-24.047-10.766-24.047-24.047V87.671  c0-13.281,10.766-24.047,24.047-24.047h336.658c13.281,0,24.047,10.766,24.047,24.047v336.658  C448.376,437.61,437.61,448.376,424.329,448.376z"/>
<rect x="87.671" y="87.671" style="fill:#3CBDE8;" width="336.658" height="336.658"/>
<rect x="103.703" y="103.703" style="fill:#F9CE70;" width="304.595" height="304.595"/>
<rect x="127.75" y="127.75" style="fill:#FFE285;" width="256.501" height="256.501"/>
<g>
	<path style="fill:#59AD57;" d="M364.211,277.041h-12.023v-84.164c0-5.175-3.311-9.77-8.221-11.406   c-4.913-1.637-10.316,0.053-13.421,4.192l-72.141,96.188c-2.732,3.643-3.172,8.518-1.135,12.592   c2.037,4.074,6.2,6.646,10.754,6.646h60.117v12.023c0,6.64,5.383,12.023,12.023,12.023s12.023-5.384,12.023-12.023v-12.023h12.023   c6.64,0,12.023-5.384,12.023-12.023S370.851,277.041,364.211,277.041z M328.141,277.041h-36.07l36.07-48.094V277.041z"/>
	<path style="fill:#59AD57;" d="M189.611,219.974c8.176-8.138,16.184-14.666,21.275-18.316c5.405-3.86,6.656-11.369,2.795-16.773   c-3.861-5.404-11.372-6.656-16.772-2.795c-2.442,1.743-58.568,42.345-61.05,86.912c-0.01,0.178-0.023,0.355-0.031,0.534   c-0.038,0.831-0.063,1.662-0.063,2.495c0,28.729,23.373,52.102,52.102,52.102s52.102-23.373,52.102-52.102   C239.969,243.887,217.535,220.899,189.611,219.974z M187.867,300.086c-15.469,0-28.055-12.586-28.055-28.055   c0-0.684,0.04-1.373,0.084-2.063c1.061-14.509,13.196-25.992,27.971-25.992c15.469,0,28.055,12.586,28.055,28.055   S203.336,300.086,187.867,300.086z"/>
</g>
<path d="M256,23.045c4.151,0,7.515-3.365,7.515-7.515V7.515C263.515,3.365,260.151,0,256,0c-4.151,0-7.515,3.365-7.515,7.515v8.016  C248.485,19.68,251.849,23.045,256,23.045z"/>
<path d="M320.125,23.045c4.151,0,7.515-3.365,7.515-7.515V7.515c0-4.15-3.364-7.515-7.515-7.515s-7.515,3.365-7.515,7.515v8.016  C312.611,19.68,315.974,23.045,320.125,23.045z"/>
<path d="M384.25,23.045c4.151,0,7.515-3.365,7.515-7.515V7.515c0-4.15-3.364-7.515-7.515-7.515s-7.515,3.365-7.515,7.515v8.016  C376.736,19.68,380.099,23.045,384.25,23.045z"/>
<path d="M127.75,23.045c4.151,0,7.515-3.365,7.515-7.515V7.515c0-4.15-3.364-7.515-7.515-7.515c-4.151,0-7.515,3.365-7.515,7.515  v8.016C120.235,19.68,123.598,23.045,127.75,23.045z"/>
<path d="M191.875,23.045c4.151,0,7.515-3.365,7.515-7.515V7.515c0-4.15-3.364-7.515-7.515-7.515s-7.515,3.365-7.515,7.515v8.016  C184.36,19.68,187.724,23.045,191.875,23.045z"/>
<path d="M256,488.955c-4.151,0-7.515,3.365-7.515,7.515v8.016c0,4.15,3.364,7.515,7.515,7.515c4.151,0,7.515-3.365,7.515-7.515  v-8.016C263.515,492.32,260.151,488.955,256,488.955z"/>
<path d="M320.125,488.955c-4.151,0-7.515,3.365-7.515,7.515v8.016c0,4.15,3.364,7.515,7.515,7.515s7.515-3.365,7.515-7.515v-8.016  C327.64,492.32,324.276,488.955,320.125,488.955z"/>
<path d="M384.25,488.955c-4.151,0-7.515,3.365-7.515,7.515v8.016c0,4.15,3.364,7.515,7.515,7.515s7.515-3.365,7.515-7.515v-8.016  C391.765,492.32,388.402,488.955,384.25,488.955z"/>
<path d="M127.75,488.955c-4.151,0-7.515,3.365-7.515,7.515v8.016c0,4.15,3.364,7.515,7.515,7.515s7.515-3.365,7.515-7.515v-8.016  C135.264,492.32,131.901,488.955,127.75,488.955z"/>
<path d="M191.875,488.955c-4.151,0-7.515,3.365-7.515,7.515v8.016c0,4.15,3.364,7.515,7.515,7.515s7.515-3.365,7.515-7.515v-8.016  C199.389,492.32,196.026,488.955,191.875,488.955z"/>
<path d="M504.485,248.485h-8.016c-4.151,0-7.515,3.365-7.515,7.515c0,4.15,3.364,7.515,7.515,7.515h8.016  c4.151,0,7.515-3.365,7.515-7.515C512,251.85,508.636,248.485,504.485,248.485z"/>
<path d="M504.485,184.36h-8.016c-4.151,0-7.515,3.365-7.515,7.515s3.364,7.515,7.515,7.515h8.016c4.151,0,7.515-3.365,7.515-7.515  S508.636,184.36,504.485,184.36z"/>
<path d="M472.423,135.264c4.151,0,7.515-3.365,7.515-7.515c0-4.15-3.364-7.515-7.515-7.515H455.89V87.671  c0-17.403-14.159-31.562-31.562-31.562h-32.564V39.577c0-4.15-3.364-7.515-7.515-7.515s-7.515,3.365-7.515,7.515V56.11H327.64  V39.577c0-4.15-3.364-7.515-7.515-7.515s-7.515,3.365-7.515,7.515V56.11h-49.096V39.577c0-4.15-3.364-7.515-7.515-7.515  c-4.151,0-7.515,3.365-7.515,7.515V56.11h-49.096V39.577c0-4.15-3.364-7.515-7.515-7.515s-7.515,3.365-7.515,7.515V56.11h-49.096  V39.577c0-4.15-3.364-7.515-7.515-7.515c-4.151,0-7.515,3.365-7.515,7.515V56.11H87.671c-17.403,0-31.562,14.159-31.562,31.562  v32.564H39.577c-4.151,0-7.515,3.365-7.515,7.515c0,4.15,3.364,7.515,7.515,7.515H56.11v49.096H39.577  c-4.151,0-7.515,3.365-7.515,7.515s3.364,7.515,7.515,7.515H56.11v49.096H39.577c-4.151,0-7.515,3.365-7.515,7.515  c0,4.15,3.364,7.515,7.515,7.515H56.11v49.096H39.577c-4.151,0-7.515,3.365-7.515,7.515s3.364,7.515,7.515,7.515H56.11v49.096  H39.577c-4.151,0-7.515,3.365-7.515,7.515s3.364,7.515,7.515,7.515H56.11v32.564c0,17.403,14.159,31.562,31.562,31.562h32.564  v16.532c0,4.15,3.364,7.515,7.515,7.515s7.515-3.365,7.515-7.515V455.89h49.096v16.532c0,4.15,3.364,7.515,7.515,7.515  s7.515-3.365,7.515-7.515V455.89h49.096v16.532c0,4.15,3.364,7.515,7.515,7.515c4.151,0,7.515-3.365,7.515-7.515V455.89h49.096  v16.532c0,4.15,3.364,7.515,7.515,7.515s7.515-3.365,7.515-7.515V455.89h49.096v16.532c0,4.15,3.364,7.515,7.515,7.515  s7.515-3.365,7.515-7.515V455.89h32.564c17.403,0,31.562-14.159,31.562-31.562v-32.564h16.532c4.151,0,7.515-3.365,7.515-7.515  s-3.364-7.515-7.515-7.515H455.89V327.64h16.532c4.151,0,7.515-3.365,7.515-7.515s-3.364-7.515-7.515-7.515H455.89v-49.096h16.532  c4.151,0,7.515-3.365,7.515-7.515c0-4.15-3.364-7.515-7.515-7.515H455.89v-49.096h16.532c4.151,0,7.515-3.365,7.515-7.515  s-3.364-7.515-7.515-7.515H455.89v-49.096H472.423z M440.861,424.329c0,9.116-7.417,16.532-16.532,16.532H87.671  c-9.116,0-16.532-7.417-16.532-16.532V87.671c0-9.116,7.416-16.532,16.532-16.532h336.658c9.116,0,16.532,7.416,16.532,16.532  V424.329z"/>
<path d="M496.47,135.264h8.016c4.151,0,7.515-3.365,7.515-7.515c0-4.15-3.364-7.515-7.515-7.515h-8.016  c-4.151,0-7.515,3.365-7.515,7.515C488.955,131.9,492.319,135.264,496.47,135.264z"/>
<path d="M504.485,376.736h-8.016c-4.151,0-7.515,3.365-7.515,7.515s3.364,7.515,7.515,7.515h8.016c4.151,0,7.515-3.365,7.515-7.515  S508.636,376.736,504.485,376.736z"/>
<path d="M504.485,312.611h-8.016c-4.151,0-7.515,3.365-7.515,7.515s3.364,7.515,7.515,7.515h8.016c4.151,0,7.515-3.365,7.515-7.515  S508.636,312.611,504.485,312.611z"/>
<path d="M15.53,248.485H7.515C3.364,248.485,0,251.85,0,256c0,4.15,3.364,7.515,7.515,7.515h8.016c4.151,0,7.515-3.365,7.515-7.515  C23.045,251.85,19.681,248.485,15.53,248.485z"/>
<path d="M15.53,184.36H7.515c-4.151,0-7.515,3.365-7.515,7.515s3.364,7.515,7.515,7.515h8.016c4.151,0,7.515-3.365,7.515-7.515  S19.681,184.36,15.53,184.36z"/>
<path d="M15.53,120.235H7.515c-4.151,0-7.515,3.365-7.515,7.515c0,4.15,3.364,7.515,7.515,7.515h8.016  c4.151,0,7.515-3.365,7.515-7.515C23.045,123.599,19.681,120.235,15.53,120.235z"/>
<path d="M15.53,376.736H7.515C3.364,376.736,0,380.1,0,384.25s3.364,7.515,7.515,7.515h8.016c4.151,0,7.515-3.365,7.515-7.515  S19.681,376.736,15.53,376.736z"/>
<path d="M15.53,312.611H7.515c-4.151,0-7.515,3.365-7.515,7.515s3.364,7.515,7.515,7.515h8.016c4.151,0,7.515-3.365,7.515-7.515  S19.681,312.611,15.53,312.611z"/>
<path d="M408.297,96.188h-57.112c-4.151,0-7.515,3.365-7.515,7.515c0,4.15,3.364,7.515,7.515,7.515h49.597v289.566H111.217V111.217  h204.9c4.151,0,7.515-3.365,7.515-7.515c0-4.15-3.364-7.515-7.515-7.515H103.703c-4.151,0-7.515,3.365-7.515,7.515v304.595  c0,4.15,3.364,7.515,7.515,7.515h304.595c4.151,0,7.515-3.365,7.515-7.515V103.703C415.812,99.552,412.449,96.188,408.297,96.188z"/>
<path d="M292.07,284.556h36.07c4.151,0,7.515-3.365,7.515-7.515v-48.094c0-3.095-1.973-5.946-4.87-7.034  c-3.089-1.16-6.676-0.116-8.657,2.525l-36.07,48.094C282.413,277.395,286.006,284.556,292.07,284.556z M320.626,251.491v18.035  H307.1L320.626,251.491z"/>
<path d="M250.548,297.802c3.33,6.663,10.026,10.801,17.475,10.801h52.603v4.509c0,10.773,8.765,19.538,19.538,19.538  c10.773,0,19.538-8.765,19.538-19.538v-4.509h4.509c10.773,0,19.538-8.765,19.538-19.538c0-10.773-8.765-19.538-19.538-19.538  h-4.509v-76.65c0-8.423-5.368-15.872-13.359-18.536c-7.993-2.664-16.757,0.073-21.81,6.812l-72.141,96.188  C247.923,283.3,247.217,291.141,250.548,297.802z M264.416,286.359l72.142-96.189c2.544-3.395,8.115-1.513,8.115,2.706v84.164  c0,4.15,3.364,7.515,7.515,7.515h12.023c2.486,0,4.509,2.023,4.509,4.509s-2.023,4.509-4.509,4.509h-12.023  c-4.151,0-7.515,3.365-7.515,7.515v12.023c0,2.486-2.023,4.509-4.509,4.509c-2.486,0-4.509-2.023-4.509-4.509v-12.023  c0-4.15-3.364-7.515-7.515-7.515h-60.117C264.385,293.573,262.226,289.28,264.416,286.359z"/>
<path d="M152.398,269.489c-0.051,0.788-0.1,1.632-0.1,2.542c0,19.613,15.956,35.569,35.569,35.569s35.569-15.956,35.569-35.569  s-15.956-35.569-35.569-35.569C169.331,236.462,153.752,250.939,152.398,269.489z M167.391,270.516  c0.781-10.668,9.774-19.025,20.476-19.025c11.326,0,20.54,9.214,20.54,20.54s-9.214,20.54-20.54,20.54s-20.54-9.214-20.54-20.54  C167.327,271.506,167.362,270.977,167.391,270.516z"/>
<path d="M223.17,195.087c0.858-5.148-0.34-10.322-3.374-14.568c-6.184-8.659-18.584-10.742-27.253-4.543  c-1.653,1.181-16.589,12.009-31.676,28.429c-20.439,22.241-31.376,43.836-32.507,64.145l-0.008,0.129  c-0.012,0.176-0.022,0.352-0.029,0.513c-0.043,0.945-0.071,1.892-0.071,2.84c0,32.873,26.743,59.616,59.616,59.616  s59.616-26.743,59.616-59.616c0-15.552-5.977-30.28-16.828-41.468c-6.978-7.193-15.477-12.42-24.784-15.365  c4.605-3.926,8.036-6.459,9.383-7.425C219.501,204.74,222.313,200.235,223.17,195.087z M208.345,192.616  c-0.197,1.188-0.847,2.227-1.838,2.935c-6.737,4.83-15.035,11.969-22.197,19.097c-4.575,4.554-1.384,12.624,5.053,12.837  c24.163,0.8,43.091,20.367,43.091,44.546c0,24.586-20.002,44.587-44.587,44.587s-44.587-20.001-44.587-44.587  c0-0.871,0.026-1.742,0.083-2.61c2.284-41.031,57.358-80.818,57.918-81.217C204.481,185.915,208.994,188.738,208.345,192.616z"/>
<g>
</g>
<g>
</g>
<g>
</g>
<g>
</g>
<g>
</g>
<g>
</g>
<g>
</g>
<g>
</g>
<g>
</g>
<g>
</g>
<g>
</g>
<g>
</g>
<g>
</g>
<g>
</g>
<g>
</g>
</svg>
