<?xml version="1.0" encoding="iso-8859-1"?>
<!-- Generator: Adobe Illustrator 19.0.0, SVG Export Plug-In . SVG Version: 6.00 Build 0)  -->
<svg xmlns="http://www.w3.org/2000/svg" xmlns:xlink="http://www.w3.org/1999/xlink" version="1.1" id="Capa_1" x="0px" y="0px" viewBox="0 0 512.001 512.001" style="enable-background:new 0 0 512.001 512.001;" xml:space="preserve">
<path style="fill:#D9DDE2;" d="M488.955,467.955L288.558,267.557c-4.695-4.696-12.309-4.696-17.005,0  c-4.696,4.696-4.696,12.308,0,17.005L471.951,484.96c2.348,2.348,5.425,3.522,8.502,3.522c3.077,0,6.155-1.173,8.502-3.522  C493.652,480.263,493.652,472.651,488.955,467.955z"/>
<path style="fill:#3CBDE8;" d="M497.457,459.451l-88.175-88.175c-9.392-9.391-24.617-9.391-34.009,0  c-9.391,9.392-9.391,24.618,0,34.008l88.175,88.175c4.696,4.695,10.85,7.043,17.005,7.043c6.155,0,12.308-2.348,17.005-7.043  C506.848,484.069,506.848,468.843,497.457,459.451z"/>
<path style="fill:#2C9DD4;" d="M496.485,484.474c-6.155,0-12.308-2.348-17.005-7.043l-88.175-88.175  c-6.492-6.492-8.49-15.771-6.006-23.986c-3.669,1.109-7.127,3.107-10.027,6.007c-9.391,9.392-9.391,24.618,0,34.008l88.175,88.175  c4.696,4.695,10.85,7.043,17.005,7.043c6.155,0,12.308-2.348,17.005-7.043c2.899-2.899,4.897-6.356,6.006-10.023  C501.191,484.124,498.839,484.474,496.485,484.474z"/>
<circle style="fill:#7C899B;" cx="167.833" cy="171.851" r="160.318"/>
<circle style="fill:#69788D;" cx="167.833" cy="171.851" r="139.948"/>
<circle style="fill:#C7CCD4;" cx="167.833" cy="171.851" r="122.593"/>
<circle style="fill:#ECEEF1;" cx="167.833" cy="171.851" r="96.191"/>
<polygon style="fill:#FFDB66;" points="167.833,139.79 167.833,115.742 103.706,115.742 103.706,227.965 231.96,227.965   231.96,139.79 "/>
<polygon style="fill:#F7C14D;" points="127.754,203.917 127.754,115.742 103.706,115.742 103.706,227.965 231.96,227.965   231.96,203.917 "/>
<path d="M502.771,454.137l-88.176-88.175c-7.091-7.091-16.745-10.087-26.009-9.005l-85.65-85.65  c20.559-27.853,32.73-62.258,32.73-99.454c0-92.544-75.29-167.833-167.833-167.833C75.289,4.02,0,79.31,0,171.853  s75.289,167.833,167.833,167.833c41.289,0,79.135-14.996,108.401-39.815l84.719,84.718c-1.082,9.264,1.914,18.919,9.006,26.01  l88.176,88.175c9.283,9.283,23.794,11.863,35.699,6.285c3.318-1.554,6.349-3.696,8.938-6.285  C515.077,486.468,515.077,466.444,502.771,454.137z M15.03,171.853c0-84.256,68.547-152.803,152.803-152.803  s152.803,68.547,152.803,152.803s-68.547,152.803-152.803,152.803S15.03,256.108,15.03,171.853z M287.263,289.644  c2.112-2.141,4.165-4.341,6.161-6.592l79.955,79.954c-2.419,1.811-4.566,3.958-6.377,6.377L287.263,289.644z M492.144,488.146  c-6.373,6.372-17.009,6.374-23.381,0l-88.175-88.175c-6.447-6.447-6.447-16.935-0.001-23.38c6.364-6.362,17.018-6.364,23.381,0  l88.175,88.175C498.589,471.211,498.589,481.7,492.144,488.146z"/>
<path d="M267.182,87.833c-2.682-3.168-7.423-3.562-10.591-0.881c-3.168,2.681-3.562,7.424-0.881,10.591  c17.543,20.723,27.203,47.113,27.203,74.309c0,63.456-51.624,115.081-115.081,115.081s-115.08-51.624-115.08-115.08  S104.377,56.772,167.833,56.772c21.827,0,43.065,6.135,61.419,17.741c3.51,2.219,8.15,1.173,10.369-2.335  c2.218-3.508,1.172-8.15-2.335-10.369c-20.761-13.129-44.777-20.068-69.452-20.068c-71.743,0-130.111,58.368-130.111,130.111  s58.367,130.111,130.11,130.111s130.111-58.368,130.111-130.111C297.944,141.105,287.019,111.266,267.182,87.833z"/>
<path d="M167.833,108.227h-64.127c-4.15,0-7.515,3.365-7.515,7.515v112.223c0,4.15,3.365,7.515,7.515,7.515H231.96  c4.15,0,7.515-3.365,7.515-7.515V139.79c0-4.15-3.365-7.515-7.515-7.515h-56.612v-16.533  C175.348,111.592,171.983,108.227,167.833,108.227z M224.445,147.305v73.145H111.221v-97.193h49.097v16.533  c0,4.15,3.365,7.515,7.515,7.515H224.445z"/>
<path d="M160.318,179.869c0,4.15,3.365,7.515,7.515,7.515h1.002c4.15,0,7.515-3.365,7.515-7.515s-3.365-7.515-7.515-7.515h-1.002  C163.683,172.354,160.318,175.719,160.318,179.869z"/>
<path d="M199.897,187.384h1.002c4.15,0,7.515-3.365,7.515-7.515s-3.365-7.515-7.515-7.515h-1.002c-4.15,0-7.515,3.365-7.515,7.515  S195.746,187.384,199.897,187.384z"/>
<path d="M136.771,172.354h-1.002c-4.15,0-7.515,3.365-7.515,7.515s3.365,7.515,7.515,7.515h1.002c4.15,0,7.515-3.365,7.515-7.515  S140.922,172.354,136.771,172.354z"/>
<g>
</g>
<g>
</g>
<g>
</g>
<g>
</g>
<g>
</g>
<g>
</g>
<g>
</g>
<g>
</g>
<g>
</g>
<g>
</g>
<g>
</g>
<g>
</g>
<g>
</g>
<g>
</g>
<g>
</g>
</svg>
