<?xml version="1.0" encoding="iso-8859-1"?>
<!-- Generator: Adobe Illustrator 19.0.0, SVG Export Plug-In . SVG Version: 6.00 Build 0)  -->
<svg xmlns="http://www.w3.org/2000/svg" xmlns:xlink="http://www.w3.org/1999/xlink" version="1.1" id="Capa_1" x="0px" y="0px" viewBox="0 0 512 512" style="enable-background:new 0 0 512 512;" xml:space="preserve">
<path style="fill:#FFDB66;" d="M7.515,280.047c0,30.989,25.121,56.11,56.11,56.11V223.937  C32.636,223.937,7.515,249.058,7.515,280.047z"/>
<path style="fill:#F7C14D;" d="M9.851,264.016c-1.513,5.081-2.337,10.458-2.337,16.031c0,30.989,25.121,56.11,56.11,56.11v-32.063  C38.209,304.094,16.751,287.19,9.851,264.016z"/>
<path style="fill:#7EC97D;" d="M79.656,360.204H63.624c-17.708,0-32.063-14.355-32.063-32.063v-96.188  c0-17.708,14.355-32.063,32.063-32.063h16.031V360.204z"/>
<path style="fill:#59AD57;" d="M71.64,344.172c-13.281,0-24.047-10.766-24.047-24.047V215.922c0-4.704,1.021-9.166,2.841-13.191  c-11.126,5.031-18.872,16.218-18.872,29.222v96.188c0,17.708,14.355,32.063,32.063,32.063h16.031v-16.031H71.64z"/>
<path style="fill:#FFDB66;" d="M504.485,280.047c0,30.989-25.121,56.11-56.11,56.11V223.937  C479.364,223.937,504.485,249.058,504.485,280.047z"/>
<path style="fill:#F7C14D;" d="M448.376,304.094v32.063c30.989,0,56.11-25.121,56.11-56.11c0-5.573-0.825-10.95-2.337-16.031  C495.249,287.19,473.791,304.094,448.376,304.094z"/>
<path style="fill:#7EC97D;" d="M432.344,360.204h16.031c17.708,0,32.063-14.355,32.063-32.063v-96.188  c0-17.708-14.355-32.063-32.063-32.063h-16.031V360.204z"/>
<path style="fill:#59AD57;" d="M461.566,202.731c1.82,4.024,2.841,8.487,2.841,13.191v104.204c0,13.281-10.766,24.047-24.047,24.047  h-8.016v16.031h16.031c17.708,0,32.063-14.355,32.063-32.063v-96.188C480.438,218.949,472.692,207.762,461.566,202.731z"/>
<path style="fill:#7C899B;" d="M288.063,504.485H183.859v-48.094h104.204c13.281,0,24.047,10.766,24.047,24.047l0,0  C312.11,493.719,301.344,504.485,288.063,504.485z"/>
<path style="fill:#69788D;" d="M288.063,488.454H183.859v16.031h104.204c13.281,0,24.047-10.766,24.047-24.047l0,0  c0-2.811-0.487-5.508-1.374-8.016C307.434,481.761,298.532,488.454,288.063,488.454z"/>
<g>
	<path style="fill:#F09B24;" d="M235.961,336.157h-55.072c27.584-25.479,67.095-70.036,67.095-116.227   c0-33.149-26.969-60.117-60.117-60.117s-60.117,26.969-60.117,60.117c0,6.64,5.384,12.023,12.023,12.023   s12.023-5.384,12.023-12.023c0-19.89,16.181-36.07,36.07-36.07s36.07,16.181,36.07,36.07c0,57.207-82.393,117.923-83.221,118.526   c-4.212,3.063-5.973,8.49-4.363,13.442s6.226,8.305,11.434,8.305h88.172c6.64,0,12.023-5.384,12.023-12.023   S242.601,336.157,235.961,336.157z"/>
	<path style="fill:#F09B24;" d="M388.258,304.094h-28.055V171.836c0-5.576-3.834-10.42-9.261-11.702   c-5.425-1.279-11.023,1.337-13.516,6.325l-72.141,144.282c-1.864,3.727-1.664,8.154,0.526,11.698   c2.191,3.545,6.061,5.702,10.228,5.702h60.117v20.039c0,6.64,5.383,12.023,12.023,12.023s12.023-5.384,12.023-12.023v-20.039   h28.055c6.64,0,12.023-5.384,12.023-12.023S394.898,304.094,388.258,304.094z M336.157,304.094h-40.662l40.662-81.326V304.094z"/>
</g>
<path d="M512,280.047c0-19.266-8.59-37.283-23.566-49.433c-0.17-0.138-0.347-0.264-0.525-0.384  c-0.906-21.026-18.288-37.855-39.533-37.855h-8.517V87.671C439.859,39.329,400.53,0,352.188,0H159.812  C111.47,0,72.141,39.329,72.141,87.671v104.704h-8.517c-21.238,0-38.616,16.817-39.533,37.834c-0.072,0.054-0.147,0.1-0.218,0.157  C8.702,242.519,0,260.627,0,280.047c0,18.885,8.312,36.675,22.807,48.806c0.403,0.337,0.835,0.611,1.281,0.85  c0.825,21.101,18.239,38.015,39.537,38.015h8.517v80.658c0,21.823,17.755,39.577,39.577,39.577h64.626v16.532  c0,4.15,3.365,7.515,7.515,7.515h104.204c17.403,0,31.562-14.159,31.562-31.562s-14.159-31.562-31.562-31.562H183.859  c-4.15,0-7.515,3.365-7.515,7.515v16.532h-64.626c-13.535,0-24.548-11.013-24.548-24.548V87.671  c0-40.055,32.587-72.642,72.642-72.642h192.376c40.055,0,72.642,32.587,72.642,72.642v272.532c0,4.15,3.365,7.515,7.515,7.515  h16.031c21.239,0,38.618-16.819,39.533-37.837C503.221,317.726,512,299.61,512,280.047z M191.374,463.906h96.689  c9.116,0,16.532,7.417,16.532,16.532s-7.417,16.532-16.532,16.532h-96.689V463.906z M15.029,280.047  c0-10.28,3.198-20.076,9.018-28.214v56.394C18.239,300.08,15.029,290.278,15.029,280.047z M39.076,328.141v-96.188  c0-13.535,11.013-24.548,24.548-24.548h8.517v145.284h-8.517C50.089,352.689,39.076,341.676,39.076,328.141z M496.971,280.047  c0,10.312-3.195,20.098-9.018,28.228v-56.43C493.768,259.986,496.971,269.782,496.971,280.047z M472.924,328.141  c0,13.535-11.013,24.548-24.548,24.548h-8.517V207.405h8.517c13.535,0,24.548,11.012,24.548,24.548V328.141z"/>
<path d="M187.867,152.297c-37.293,0-67.632,30.339-67.632,67.632c0,10.773,8.765,19.538,19.538,19.538s19.538-8.765,19.538-19.538  c0-15.746,12.81-28.556,28.556-28.556s28.556,12.81,28.556,28.556c0,53.21-79.334,111.869-80.125,112.449  c-6.865,4.993-9.714,13.771-7.089,21.844s10.092,13.496,18.58,13.496h88.172c10.773,0,19.538-8.765,19.538-19.538  c0-10.773-8.765-19.538-19.538-19.538h-36.562c28.047-28.744,56.101-67.739,56.101-108.712  C255.499,182.637,225.16,152.297,187.867,152.297z M173.891,338.894c1.127,2.881,3.905,4.777,6.999,4.777h55.072  c2.486,0,4.509,2.023,4.509,4.509c0,2.486-2.023,4.509-4.509,4.509h-88.172c-4.269,0-6.103-5.646-2.647-8.159  c0.213-0.155,21.575-15.807,43.015-39.011c28.729-31.093,43.296-59.889,43.296-85.589c0-24.033-19.552-43.585-43.585-43.585  s-43.585,19.552-43.585,43.585c0,2.486-2.023,4.509-4.509,4.509s-4.509-2.023-4.509-4.509c0-29.006,23.597-52.603,52.603-52.603  s52.603,23.597,52.603,52.603c0,44.344-40.524,88.395-64.679,110.707C173.518,332.735,172.763,336.012,173.891,338.894z"/>
<path d="M388.258,296.579h-20.54v-52.77c0-4.15-3.365-7.515-7.515-7.515s-7.515,3.365-7.515,7.515v60.285  c0,4.15,3.365,7.515,7.515,7.515h28.055c2.486,0,4.509,2.023,4.509,4.509c0,2.486-2.023,4.509-4.509,4.509h-28.055  c-4.15,0-7.515,3.365-7.515,7.515v20.039c0,2.486-2.023,4.509-4.509,4.509c-2.486,0-4.509-2.023-4.509-4.509v-20.039  c0-4.15-3.365-7.515-7.515-7.515h-60.117c-3.289,0-5.51-3.571-4.033-6.526l72.141-144.282c2.076-4.152,8.541-2.624,8.541,2.017  v36.404c0,4.15,3.365,7.515,7.515,7.515c4.15,0,7.515-3.365,7.515-7.515v-36.404c0-9.104-6.188-16.924-15.05-19.016  c-8.861-2.089-17.893,2.136-21.963,10.278l-72.141,144.282c-3.204,6.407-2.607,14.155,1.514,20.009  c3.636,5.166,9.647,8.267,15.961,8.267h52.604v12.524c0,10.773,8.765,19.538,19.538,19.538c10.773,0,19.538-8.765,19.538-19.538  v-12.524h20.54c10.773,0,19.538-8.765,19.538-19.538C407.796,305.344,399.031,296.579,388.258,296.579z"/>
<path d="M329.435,219.408l-40.662,81.326c-2.457,4.912,1.24,10.875,6.721,10.875h40.662c4.15,0,7.515-3.365,7.515-7.515v-81.326  c0-3.393-2.365-6.439-5.652-7.278C334.633,214.623,330.999,216.279,329.435,219.408z M328.642,296.579h-20.989l20.989-41.978  V296.579z"/>
<g>
</g>
<g>
</g>
<g>
</g>
<g>
</g>
<g>
</g>
<g>
</g>
<g>
</g>
<g>
</g>
<g>
</g>
<g>
</g>
<g>
</g>
<g>
</g>
<g>
</g>
<g>
</g>
<g>
</g>
</svg>
