<?xml version="1.0" encoding="iso-8859-1"?>
<!-- Generator: Adobe Illustrator 19.0.0, SVG Export Plug-In . SVG Version: 6.00 Build 0)  -->
<svg xmlns="http://www.w3.org/2000/svg" xmlns:xlink="http://www.w3.org/1999/xlink" version="1.1" id="Capa_1" x="0px" y="0px" viewBox="0 0 512 512" style="enable-background:new 0 0 512 512;" xml:space="preserve">
<rect x="199.89" y="360.204" style="fill:#56677E;" width="112.219" height="144.282"/>
<rect x="199.89" y="360.204" style="fill:#435670;" width="112.219" height="64.125"/>
<rect x="7.515" y="7.515" style="fill:#ECEEF1;" width="496.971" height="392.767"/>
<rect x="7.515" y="7.515" style="fill:#D9DDE2;" width="32.063" height="392.767"/>
<rect x="7.515" y="336.157" style="fill:#8E9AA9;" width="496.971" height="64.125"/>
<rect x="7.515" y="336.157" style="fill:#7C899B;" width="32.063" height="64.125"/>
<circle style="fill:#2C9DD4;" cx="256" cy="127.75" r="24.047"/>
<circle style="fill:#3CBDE8;" cx="256" cy="127.75" r="8.016"/>
<circle style="fill:#F7C14D;" cx="384.25" cy="223.937" r="24.047"/>
<circle style="fill:#FFDB66;" cx="384.25" cy="223.937" r="8.016"/>
<circle style="fill:#F09B24;" cx="127.75" cy="191.875" r="24.047"/>
<circle style="fill:#F7C14D;" cx="127.75" cy="191.875" r="8.016"/>
<path d="M504.485,0H7.515C3.365,0,0,3.365,0,7.515v392.767c0,4.15,3.365,7.515,7.515,7.515h184.861v89.174h-16.532  c-4.15,0-7.515,3.365-7.515,7.515s3.365,7.515,7.515,7.515h160.313c4.15,0,7.515-3.365,7.515-7.515s-3.365-7.515-7.515-7.515  h-16.532v-89.174h184.861c4.15,0,7.515-3.365,7.515-7.515V7.515C512,3.365,508.635,0,504.485,0z M304.595,496.971h-97.19v-89.174  h97.19V496.971z M15.029,392.767v-49.096h398.278c4.15,0,7.515-3.365,7.515-7.515s-3.365-7.515-7.515-7.515H15.029V15.029h481.941  v313.613h-48.261c-4.15,0-7.515,3.365-7.515,7.515s3.365,7.515,7.515,7.515h48.261v49.096H15.029z"/>
<path d="M264.016,360.704h-16.031c-4.15,0-7.515,3.365-7.515,7.515s3.365,7.515,7.515,7.515h16.031c4.15,0,7.515-3.365,7.515-7.515  S268.166,360.704,264.016,360.704z"/>
<path d="M263.515,97.099V71.64c0-4.15-3.365-7.515-7.515-7.515c-4.15,0-7.515,3.365-7.515,7.515v25.459  c-13.786,3.381-24.047,15.837-24.047,30.651s10.261,27.269,24.047,30.651v113.631c0,4.15,3.365,7.515,7.515,7.515  c4.15,0,7.515-3.365,7.515-7.515V158.4c13.786-3.381,24.047-15.837,24.047-30.651S277.301,100.48,263.515,97.099z M256,144.282  c-9.116,0-16.532-7.416-16.532-16.532s7.416-16.532,16.532-16.532s16.532,7.416,16.532,16.532S265.116,144.282,256,144.282z"/>
<path d="M391.765,193.287V71.64c0-4.15-3.365-7.515-7.515-7.515s-7.515,3.365-7.515,7.515v121.647  c-13.786,3.381-24.047,15.837-24.047,30.651s10.261,27.269,24.047,30.651v17.443c0,4.15,3.365,7.515,7.515,7.515  s7.515-3.365,7.515-7.515v-17.443c13.786-3.381,24.047-15.837,24.047-30.651S405.551,196.668,391.765,193.287z M384.25,240.47  c-9.116,0-16.532-7.416-16.532-16.532s7.417-16.532,16.532-16.532s16.532,7.416,16.532,16.532S393.366,240.47,384.25,240.47z"/>
<path d="M135.264,161.224V71.64c0-4.15-3.365-7.515-7.515-7.515c-4.15,0-7.515,3.365-7.515,7.515v89.584  c-13.786,3.381-24.047,15.837-24.047,30.651s10.261,27.269,24.047,30.651v49.506c0,4.15,3.365,7.515,7.515,7.515  c4.15,0,7.515-3.365,7.515-7.515v-49.506c13.786-3.381,24.047-15.837,24.047-30.651S149.05,164.605,135.264,161.224z   M127.75,208.407c-9.116,0-16.532-7.416-16.532-16.532s7.416-16.532,16.532-16.532s16.532,7.416,16.532,16.532  S136.865,208.407,127.75,208.407z"/>
<g>
</g>
<g>
</g>
<g>
</g>
<g>
</g>
<g>
</g>
<g>
</g>
<g>
</g>
<g>
</g>
<g>
</g>
<g>
</g>
<g>
</g>
<g>
</g>
<g>
</g>
<g>
</g>
<g>
</g>
</svg>
