<?xml version="1.0" encoding="iso-8859-1"?>
<!-- Generator: Adobe Illustrator 19.0.0, SVG Export Plug-In . SVG Version: 6.00 Build 0)  -->
<svg xmlns="http://www.w3.org/2000/svg" xmlns:xlink="http://www.w3.org/1999/xlink" version="1.1" id="Capa_1" x="0px" y="0px" viewBox="0 0 512 512" style="enable-background:new 0 0 512 512;" xml:space="preserve">
<polygon style="fill:#D9DDE2;" points="127.757,41.058 127.757,8.994 7.515,8.994 7.515,329.639 408.322,329.639 408.322,41.058 "/>
<polygon style="fill:#C7CCD4;" points="31.564,305.591 31.564,8.994 7.515,8.994 7.515,329.639 408.322,329.639 408.322,305.591 "/>
<path style="fill:#FFDB66;" d="M504.276,233.446c-5.673,4.755-37.641,19.302-86.423,19.302c-30.404,0-51.555-14.227-57.349-18.85  c0,0-27.502,18.85-57.907,18.85c-48.782,0-80.751-14.547-86.424-19.302c-0.873,29.298-6.257,212.873,143.774,269.534h0.557  C510.533,446.318,505.149,262.744,504.276,233.446z"/>
<path style="fill:#56677E;" d="M360.225,468.391c-47.409-21.571-80.376-61.816-98.088-119.805  c-6.576-21.529-10.868-44.697-12.844-69.232c15.398,3.277,33.375,5.46,53.303,5.46c22.45,0,42.922-7.202,57.007-13.826  c13.705,6.908,33.589,13.826,58.249,13.826c19.929,0,37.905-2.183,53.303-5.46c-1.977,24.535-6.269,47.703-12.844,69.232  C440.601,406.573,407.635,446.818,360.225,468.391z"/>
<path style="fill:#69788D;" d="M360.225,441.506c-35.562-19.583-60.795-53.15-75.088-99.945c-3.289-10.77-5.972-22.071-8.03-33.806  c8.394,0.736,16.904,1.106,25.489,1.106c21.76,0,41.662-5.58,56.757-11.571c18.475,7.595,38.479,11.571,58.499,11.571  c8.585,0,17.096-0.371,25.489-1.106c-2.058,11.734-4.741,23.036-8.03,33.806C421.021,388.355,395.787,421.922,360.225,441.506z"/>
<path style="fill:#8E9AA9;" d="M239.983,210.733v-34.737l-29.581-5.916c-1.411-4.527-3.238-8.868-5.408-13l16.748-25.122  l-24.562-24.562l-25.122,16.748c-4.132-2.17-8.473-3.997-13-5.408l-5.916-29.581h-34.737l-5.916,29.581  c-4.527,1.411-8.868,3.238-13,5.408l-25.123-16.748l-24.562,24.562l16.748,25.122c-2.17,4.132-3.997,8.473-5.408,13l-29.581,5.916  v34.737l29.581,5.916c1.411,4.527,3.238,8.868,5.408,13l-16.748,25.122l24.562,24.562l25.122-16.748  c4.132,2.17,8.473,3.997,13,5.408l5.916,29.581h34.737l5.916-29.581c4.527-1.411,8.868-3.238,13-5.408l25.122,16.748l24.562-24.562  l-16.748-25.122c2.17-4.132,3.997-8.473,5.408-13L239.983,210.733z M135.773,228.101c-19.185,0-34.737-15.552-34.737-34.737  s15.552-34.737,34.737-34.737s34.737,15.552,34.737,34.737S154.958,228.101,135.773,228.101z"/>
<path style="fill:#56677E;" d="M368.064,117.533l-7.253-20.108l-18.359,2.751c-1.762-2.326-3.725-4.458-5.845-6.397l4.45-18.039  l-19.347-9.09l-11.046,14.94c-2.846-0.394-5.74-0.545-8.654-0.417l-9.6-15.889l-20.108,7.253l2.752,18.359  c-2.326,1.762-4.458,3.726-6.397,5.845l-18.039-4.45l-9.09,19.347l14.94,11.046c-0.394,2.846-0.545,5.74-0.417,8.654l-15.889,9.6  l7.253,20.108l18.359-2.751c1.762,2.326,3.725,4.458,5.845,6.397l-4.45,18.039l19.347,9.09l11.046-14.94  c2.846,0.394,5.74,0.545,8.654,0.417l9.6,15.889l20.108-7.253l-2.752-18.359c2.326-1.762,4.458-3.725,6.397-5.845l18.039,4.45  l9.091-19.347l-14.94-11.046c0.394-2.846,0.545-5.74,0.417-8.654L368.064,117.533z M311.365,149.344  c-11.105,4.005-23.356-1.751-27.361-12.856c-4.005-11.105,1.751-23.355,12.856-27.361c11.105-4.005,23.356,1.751,27.361,12.856  C328.226,133.089,322.47,145.338,311.365,149.344z"/>
<polygon style="fill:#FF8C78;" points="360.225,305.23 373.203,345.173 415.201,345.173 381.225,369.858 394.203,409.801   360.225,385.115 326.248,409.801 339.226,369.858 305.25,345.173 347.247,345.173 "/>
<path d="M208.929,209.28c-4.07,0.815-6.71,4.774-5.896,8.843c0.815,4.07,4.777,6.711,8.843,5.896l29.581-5.916  c3.513-0.702,6.041-3.787,6.041-7.369v-34.737c0-3.582-2.528-6.666-6.041-7.369l-25.347-5.069c-0.742-1.989-1.564-3.962-2.461-5.91  l14.346-21.52c1.987-2.981,1.594-6.95-0.939-9.482l-24.563-24.562c-2.533-2.533-6.503-2.925-9.483-0.939l-21.519,14.347  c-1.949-0.898-3.923-1.719-5.912-2.462l-5.069-25.347c-0.702-3.513-3.787-6.041-7.369-6.041h-34.736  c-3.582,0-6.666,2.528-7.369,6.041l-5.069,25.347c-1.989,0.741-3.963,1.563-5.912,2.462l-21.519-14.347  c-2.979-1.986-6.948-1.594-9.483,0.939l-24.561,24.56c-2.532,2.533-2.926,6.502-0.939,9.482l14.346,21.52  c-0.898,1.948-1.719,3.922-2.461,5.91l-25.347,5.069c-3.513,0.702-6.041,3.787-6.041,7.369v34.737c0,3.582,2.528,6.666,6.041,7.369  l25.347,5.069c0.741,1.989,1.564,3.962,2.461,5.91L43.551,250.6c-1.987,2.981-1.594,6.95,0.94,9.482l24.563,24.562  c2.533,2.534,6.503,2.926,9.482,0.939l21.519-14.346c1.949,0.898,3.923,1.719,5.912,2.462l5.069,25.347  c0.702,3.513,3.787,6.041,7.369,6.041h34.736c3.582,0,6.666-2.528,7.369-6.041l5.069-25.347c1.989-0.741,3.963-1.563,5.912-2.462  l21.519,14.346c3.453,2.303,8.119,1.37,10.421-2.084c2.303-3.453,1.369-8.119-2.084-10.421l-25.121-16.748  c-2.288-1.525-5.229-1.679-7.662-0.401c-3.813,2.002-7.763,3.646-11.743,4.887c-2.625,0.818-4.594,3.005-5.133,5.7l-4.707,23.539  h-22.414l-4.707-23.539c-0.539-2.696-2.508-4.883-5.133-5.7c-3.98-1.241-7.93-2.885-11.743-4.887  c-2.435-1.28-5.375-1.124-7.662,0.401l-19.996,13.332l-15.849-15.849l13.33-19.996c1.525-2.289,1.679-5.229,0.4-7.663  c-2-3.809-3.644-7.759-4.886-11.742c-0.818-2.625-3.005-4.593-5.7-5.133l-23.54-4.706v-22.415l23.539-4.707  c2.695-0.539,4.883-2.508,5.7-5.133c1.241-3.983,2.886-7.933,4.886-11.742c1.279-2.435,1.125-5.375-0.4-7.663l-13.33-19.996  l15.849-15.85l19.995,13.331c2.288,1.525,5.229,1.679,7.662,0.401c3.813-2.002,7.763-3.646,11.743-4.887  c2.625-0.818,4.594-3.005,5.133-5.7l4.707-23.539h22.414l4.707,23.539c0.539,2.696,2.508,4.883,5.133,5.7  c3.98,1.241,7.93,2.885,11.743,4.887c2.435,1.28,5.375,1.124,7.662-0.401l19.995-13.331l15.849,15.85l-13.33,19.996  c-1.525,2.289-1.679,5.229-0.4,7.663c2,3.809,3.644,7.759,4.886,11.742c0.818,2.625,3.005,4.593,5.7,5.133l23.542,4.707v22.415  L208.929,209.28z"/>
<path d="M135.773,151.113c-23.298,0-42.252,18.954-42.252,42.252s18.954,42.252,42.252,42.252s42.252-18.954,42.252-42.252  S159.071,151.113,135.773,151.113z M135.773,220.586c-15.009,0-27.222-12.212-27.222-27.222s12.213-27.222,27.222-27.222  c15.009,0,27.222,12.212,27.222,27.222S150.783,220.586,135.773,220.586z"/>
<path d="M236.274,134.506c-3.066,1.853-4.399,5.612-3.182,8.982l7.253,20.108c1.215,3.37,4.644,5.413,8.182,4.882l14.168-2.123  c0.2,0.223,0.403,0.445,0.607,0.665l-3.432,13.911c-0.857,3.478,0.859,7.077,4.101,8.601l19.347,9.09  c3.243,1.524,7.109,0.545,9.239-2.334l8.518-11.521c0.301,0.017,0.6,0.032,0.9,0.043l7.409,12.261  c1.83,3.029,5.65,4.384,8.982,3.183l20.108-7.253c3.369-1.215,5.413-4.64,4.882-8.183l-2.122-14.168  c0.223-0.2,0.444-0.403,0.664-0.607l13.911,3.431c3.478,0.856,7.077-0.859,8.601-4.1l9.091-19.347  c1.524-3.243,0.547-7.109-2.334-9.24l-11.521-8.518c0.018-0.3,0.031-0.6,0.044-0.9l12.261-7.409  c3.066-1.853,4.399-5.612,3.182-8.982l-7.253-20.108c-1.214-3.37-4.639-5.412-8.182-4.882l-14.168,2.123  c-0.2-0.223-0.403-0.445-0.607-0.665l3.432-13.911c0.857-3.478-0.859-7.077-4.101-8.601l-19.347-9.09  c-3.245-1.525-7.111-0.546-9.239,2.334l-8.518,11.521c-0.301-0.017-0.6-0.032-0.9-0.043l-7.409-12.261  c-1.853-3.066-5.608-4.4-8.982-3.183l-20.108,7.253c-3.369,1.215-5.413,4.64-4.882,8.183l2.122,14.168  c-0.223,0.2-0.444,0.403-0.664,0.607l-13.91-3.432c-3.483-0.857-7.078,0.858-8.602,4.1l-9.091,19.347  c-1.524,3.243-0.547,7.109,2.334,9.24l11.521,8.518c-0.018,0.3-0.031,0.6-0.044,0.9L236.274,134.506z M259.936,137.77  c2.354-1.423,3.743-4.017,3.62-6.765c-0.104-2.384,0.014-4.838,0.354-7.293c0.377-2.724-0.766-5.437-2.977-7.072l-9.986-7.383  l3.851-8.196l12.057,2.975c2.672,0.658,5.489-0.194,7.346-2.223c1.67-1.827,3.484-3.484,5.388-4.927  c2.192-1.66,3.303-4.385,2.895-7.104l-1.838-12.267l8.518-3.072l6.414,10.615c1.422,2.353,4.022,3.749,6.762,3.621  c2.392-0.104,4.844,0.014,7.296,0.353c2.729,0.381,5.438-0.766,7.072-2.976l7.383-9.986l8.195,3.851l-2.975,12.058  c-0.658,2.67,0.194,5.487,2.223,7.344c1.826,1.671,3.485,3.486,4.929,5.391c1.659,2.191,4.39,3.3,7.103,2.894l12.266-1.838  l3.071,8.517l-10.616,6.414c-2.354,1.423-3.743,4.017-3.62,6.765c0.104,2.384-0.014,4.838-0.354,7.293  c-0.377,2.724,0.766,5.437,2.977,7.072l9.986,7.383l-3.851,8.194l-12.058-2.974c-2.671-0.66-5.488,0.194-7.345,2.223  c-1.67,1.827-3.484,3.484-5.388,4.927c-2.192,1.66-3.303,4.385-2.895,7.104l1.838,12.267l-8.518,3.072l-6.414-10.615  c-1.364-2.259-3.809-3.629-6.431-3.629c-0.109,0-0.22,0.002-0.331,0.007c-2.39,0.105-4.844-0.014-7.296-0.353  c-2.727-0.38-5.438,0.766-7.072,2.976l-7.383,9.986l-8.195-3.851l2.975-12.058c0.658-2.67-0.194-5.487-2.223-7.344  c-1.826-1.671-3.485-3.486-4.929-5.391c-1.659-2.191-4.389-3.3-7.103-2.894l-12.266,1.838l-3.071-8.517L259.936,137.77z"/>
<path d="M291.825,155.385c3.905,1.835,8.079,2.758,12.269,2.758c3.305,0,6.619-0.575,9.821-1.729h-0.001  c7.26-2.618,13.065-7.907,16.347-14.891c3.282-6.985,3.648-14.829,1.03-22.088c-2.618-7.26-7.908-13.065-14.891-16.347  c-6.986-3.282-14.83-3.648-22.088-1.029c-7.26,2.618-13.065,7.907-16.347,14.891c-3.282,6.985-3.648,14.829-1.03,22.088  C279.552,146.296,284.842,152.102,291.825,155.385z M291.566,123.341c1.574-3.351,4.361-5.888,7.844-7.144  c1.535-0.554,3.125-0.83,4.711-0.83c2.01,0,4.012,0.443,5.885,1.324c3.352,1.574,5.889,4.36,7.144,7.843  c1.257,3.483,1.081,7.247-0.493,10.597c-1.574,3.351-4.361,5.888-7.843,7.144h-0.001c-3.482,1.256-7.245,1.081-10.596-0.494  c-3.352-1.574-5.889-4.36-7.144-7.843C289.817,130.455,289.992,126.692,291.566,123.341z"/>
<path d="M511.79,233.221c-0.183-6.139-7.615-9.494-12.339-5.536c-4.617,3.87-35.467,17.547-81.597,17.547  c-0.679,0-1.347-0.017-2.016-0.032V41.058c0-4.15-3.364-7.515-7.515-7.515h-273.05V8.994c0-4.15-3.364-7.515-7.515-7.515H7.515  C3.364,1.479,0,4.843,0,8.994v320.646c0,4.15,3.364,7.515,7.515,7.515h210.647c1.796,7.821,3.832,15.491,6.122,22.992  c10.117,33.125,24.895,61.938,43.921,85.638c23.376,29.12,53.348,50.727,89.086,64.224c1.808,0.682,4.058,0.682,5.866,0  c35.738-13.496,65.71-35.105,89.086-64.224c19.026-23.702,33.804-52.515,43.921-85.638  C507.896,321.74,513.152,279.037,511.79,233.221z M15.03,322.124V16.509h105.212v24.549c0,4.15,3.364,7.515,7.515,7.515h273.05  v194.996c-20.618-4.035-33.856-14.14-35.617-15.545c-2.584-2.061-6.21-2.191-8.936-0.325c-0.256,0.175-25.902,17.533-53.657,17.533  c-46.13,0-76.979-13.678-81.597-17.547c-4.724-3.958-12.155-0.603-12.339,5.536c-0.929,31.204,1.221,60.96,6.388,88.902H15.03  V322.124z M360.225,495.035c-120.833-47.298-136.758-181.54-136.724-249.08c15.509,6.697,43.206,14.308,79.097,14.308  c25.204,0,48.124-11.734,57.595-17.313c9.032,6.064,29.573,17.313,57.66,17.313c35.89,0,63.588-7.61,79.097-14.308  C496.984,313.495,481.059,447.736,360.225,495.035z"/>
<path d="M362.987,264.275c-2.064-1.04-4.49-1.073-6.581-0.089c-12.715,5.981-32.372,13.111-53.807,13.111  c-17.82,0-35.227-1.782-51.74-5.296c-4.841-1.024-9.452,3.022-9.054,7.954c2.017,25.035,6.44,48.864,13.147,70.825  c18.351,60.085,52.724,101.956,102.162,124.451c1.962,0.892,4.264,0.892,6.226,0c40.636-18.49,71.247-50.26,90.988-94.428  c1.692-3.79-0.006-8.234-3.795-9.927c-3.788-1.693-8.235,0.004-9.928,3.795c-17.688,39.58-44.719,68.303-80.378,85.425  c-43.68-20.971-74.255-59.209-90.9-113.706c-5.508-18.033-9.403-37.428-11.609-57.777c14.508,2.467,29.56,3.715,44.881,3.715  c22.398,0,42.81-6.767,56.907-13.032c13.374,6.282,33.525,13.032,58.348,13.032c15.322,0,30.374-1.247,44.881-3.715  c-2.206,20.349-6.101,39.745-11.609,57.777c-1.212,3.969,1.023,8.17,4.992,9.383c3.962,1.211,8.168-1.022,9.382-4.992  c6.707-21.961,11.13-45.789,13.147-70.825c0.398-4.932-4.213-8.978-9.054-7.954c-16.512,3.514-33.92,5.296-51.74,5.296  C393.856,277.297,374.773,270.216,362.987,264.275z"/>
<path d="M422.348,342.85c-1.006-3.096-3.892-5.192-7.147-5.192h-36.538l-11.292-34.75c-1.006-3.096-3.892-5.192-7.147-5.192  s-6.141,2.096-7.147,5.192l-11.292,34.75h-36.538c-3.256,0-6.141,2.096-7.147,5.192c-1.006,3.096,0.096,6.489,2.73,8.402  l29.56,21.477l-11.291,34.75c-0.962,2.961,0.049,6.298,2.495,8.225c2.613,2.059,6.378,2.133,9.069,0.177l29.56-21.476l29.56,21.476  c2.824,2.051,6.795,1.856,9.405-0.46c2.212-1.963,3.073-5.127,2.159-7.942l-11.291-34.75l29.56-21.477  C422.252,349.338,423.355,345.946,422.348,342.85z M376.808,363.778c-2.634,1.914-3.737,5.306-2.73,8.402l5.83,17.945l-15.265-11.09  c-1.317-0.957-2.867-1.436-4.417-1.436s-3.1,0.479-4.417,1.436l-15.265,11.09l5.83-17.945c1.006-3.096-0.096-6.488-2.73-8.402  l-15.265-11.091h18.869c3.256,0,6.141-2.096,7.147-5.192l5.831-17.946l5.831,17.946c1.006,3.096,3.892,5.192,7.147,5.192h18.869  L376.808,363.778z"/>
<g>
</g>
<g>
</g>
<g>
</g>
<g>
</g>
<g>
</g>
<g>
</g>
<g>
</g>
<g>
</g>
<g>
</g>
<g>
</g>
<g>
</g>
<g>
</g>
<g>
</g>
<g>
</g>
<g>
</g>
</svg>
