<?xml version="1.0" encoding="iso-8859-1"?>
<!-- Generator: Adobe Illustrator 19.0.0, SVG Export Plug-In . SVG Version: 6.00 Build 0)  -->
<svg xmlns="http://www.w3.org/2000/svg" xmlns:xlink="http://www.w3.org/1999/xlink" version="1.1" id="Capa_1" x="0px" y="0px" viewBox="0 0 512 512" style="enable-background:new 0 0 512 512;" xml:space="preserve">
<rect x="199.89" y="360.204" style="fill:#56677E;" width="112.219" height="144.282"/>
<rect x="199.89" y="360.204" style="fill:#435670;" width="112.219" height="64.125"/>
<rect x="7.515" y="7.515" style="fill:#ECEEF1;" width="496.971" height="392.767"/>
<rect x="7.515" y="7.515" style="fill:#D9DDE2;" width="24.047" height="392.767"/>
<rect x="7.515" y="336.157" style="fill:#8E9AA9;" width="496.971" height="64.125"/>
<rect x="7.515" y="336.157" style="fill:#69788D;" width="24.047" height="64.125"/>
<rect x="191.875" y="103.703" style="fill:#FF8C78;" width="128.25" height="120.235"/>
<rect x="191.875" y="103.703" style="fill:#DB6B5E;" width="24.047" height="120.235"/>
<polygon style="fill:#FFDB66;" points="320.125,103.703 191.875,103.703 256,39.577 "/>
<polygon style="fill:#F7C14D;" points="256,39.577 191.875,103.703 215.922,103.703 268.023,51.601 "/>
<rect x="231.953" y="143.781" style="fill:#F09B24;" width="48.094" height="80.157"/>
<circle style="fill:#FFDB66;" cx="256" cy="288.063" r="16.031"/>
<path d="M504.485,0H7.515C3.365,0,0,3.365,0,7.515v392.767c0,4.15,3.365,7.515,7.515,7.515h184.861v89.174h-16.532  c-4.15,0-7.515,3.365-7.515,7.515s3.365,7.515,7.515,7.515h160.313c4.151,0,7.515-3.365,7.515-7.515s-3.364-7.515-7.515-7.515  h-16.532v-89.174h184.861c4.151,0,7.515-3.365,7.515-7.515V7.515C512,3.365,508.636,0,504.485,0z M304.595,496.971h-97.19v-89.174  h97.19V496.971z M15.029,392.767v-49.096h397.276c4.151,0,7.515-3.365,7.515-7.515s-3.364-7.515-7.515-7.515H15.029V15.029h481.941  v313.613h-48.595c-4.151,0-7.515,3.365-7.515,7.515s3.364,7.515,7.515,7.515h48.595v49.096H15.029z"/>
<path d="M264.016,360.704h-16.031c-4.15,0-7.515,3.365-7.515,7.515s3.365,7.515,7.515,7.515h16.031c4.151,0,7.515-3.365,7.515-7.515  S268.167,360.704,264.016,360.704z"/>
<path d="M408.297,280.548H278.31c-2.347-6.947-7.848-12.448-14.795-14.795v-34.301h56.611c4.151,0,7.515-3.365,7.515-7.515v-120.23  c0.002-1.972-0.807-3.925-2.2-5.318l-64.125-64.125c-2.936-2.935-7.693-2.934-10.628,0l-64.124,64.124  c-1.395,1.394-2.202,3.347-2.202,5.317v120.232c0,4.15,3.365,7.515,7.515,7.515h56.611v34.301  c-6.947,2.347-12.448,7.848-14.795,14.795H103.703c-4.15,0-7.515,3.365-7.515,7.515s3.365,7.515,7.515,7.515H233.69  c3.144,9.308,11.953,16.031,22.31,16.031s19.165-6.723,22.31-16.031h129.988c4.151,0,7.515-3.365,7.515-7.515  S412.449,280.548,408.297,280.548z M256,50.204l45.983,45.984h-91.967L256,50.204z M199.389,111.217h113.221v105.205h-25.049  v-72.642c0-4.15-3.364-7.515-7.515-7.515h-48.094c-4.15,0-7.515,3.365-7.515,7.515v72.642h-25.049V111.217z M239.468,151.296h33.065  v65.127h-33.065V151.296z M256,296.579c-4.696,0-8.517-3.82-8.517-8.517c0-4.696,3.82-8.517,8.517-8.517s8.517,3.82,8.517,8.517  C264.517,292.759,260.696,296.579,256,296.579z"/>
<g>
</g>
<g>
</g>
<g>
</g>
<g>
</g>
<g>
</g>
<g>
</g>
<g>
</g>
<g>
</g>
<g>
</g>
<g>
</g>
<g>
</g>
<g>
</g>
<g>
</g>
<g>
</g>
<g>
</g>
</svg>
