<?xml version="1.0" encoding="iso-8859-1"?>
<!-- Generator: Adobe Illustrator 19.0.0, SVG Export Plug-In . SVG Version: 6.00 Build 0)  -->
<svg xmlns="http://www.w3.org/2000/svg" xmlns:xlink="http://www.w3.org/1999/xlink" version="1.1" id="Capa_1" x="0px" y="0px" viewBox="0 0 512 512" style="enable-background:new 0 0 512 512;" xml:space="preserve">
<path style="fill:#3CBDE8;" d="M360.204,95.687c-15.284,0-29.134,6.119-39.253,16.031h-0.327c4.802-9.661,7.517-20.542,7.517-32.063  c0-39.843-32.298-72.141-72.141-72.141s-72.141,32.298-72.141,72.141c0,3.025,0.208,6.001,0.569,8.927  c-9.561-5.665-20.713-8.927-32.632-8.927c-35.415,0-64.125,28.71-64.125,64.125s28.71,64.125,64.125,64.125h208.407  c30.989,0,56.11-25.121,56.11-56.11S391.192,95.687,360.204,95.687z"/>
<path style="fill:#2C9DD4;" d="M368.219,183.859H159.812c-35.415,0-64.125-28.71-64.125-64.125c0-2.664,0.181-5.284,0.497-7.863  c-5.406,9.399-8.513,20.29-8.513,31.91c0,35.415,28.71,64.125,64.125,64.125h208.407c29.208,0,53.194-22.32,55.855-50.832  C406.188,173.14,388.458,183.859,368.219,183.859z"/>
<path style="fill:#B4BBC6;" d="M167.828,328.141v144.282c0,17.708,39.476,32.063,88.172,32.063s88.172-14.355,88.172-32.063V328.141  H167.828z"/>
<path style="fill:#A1ABB8;" d="M191.875,328.141h-24.047v144.282c0,8.52,9.141,16.262,24.047,22.004V328.141z"/>
<ellipse style="fill:#D9DDE2;" cx="256" cy="328.141" rx="88.172" ry="32.063"/>
<polygon style="fill:#FFDB66;" points="288.063,159.812 320.125,159.812 256,103.703 191.875,159.812 223.937,159.812   223.937,280.047 191.875,280.047 256,336.157 320.125,280.047 288.063,280.047 "/>
<polygon style="fill:#F7C14D;" points="239.969,280.047 239.969,159.812 277.375,122.406 256,103.703 191.875,159.812   223.937,159.812 223.937,280.047 191.875,280.047 256,336.157 277.375,317.453 "/>
<path d="M360.204,88.172c-9.007,0-17.743,1.869-25.758,5.423c0.806-4.562,1.21-9.214,1.21-13.939C335.656,35.734,299.922,0,256,0  c-42.866,0-77.932,34.033-79.593,76.499c-7.848-2.871-16.18-4.359-24.61-4.359c-39.502,0-71.64,32.138-71.64,71.64  s32.138,71.64,71.64,71.64h64.626v57.112h-24.548c-6.779,0-10.062,8.695-4.949,13.171l11.7,10.237  c-24.52,7.151-38.313,18.587-38.313,32.201v144.282C160.313,498.405,208.449,512,256,512s95.687-13.595,95.687-39.577V328.141  c0-13.524-13.837-25.024-38.321-32.194l11.708-10.244c5.113-4.475,1.831-13.171-4.949-13.171h-24.548v-57.112h64.626  c35.083,0,63.624-28.542,63.624-63.624S395.286,88.172,360.204,88.172z M336.658,376.235c0,4.659-8.07,11.831-26.097,17.351  c-3.764,1.152-6.035,5.157-5.096,8.979c1.015,4.133,5.424,6.64,9.497,5.392c8.715-2.668,15.983-5.882,21.696-9.535v25.908  c0,3.698-5.469,10.006-20.879,15.609c-15.851,5.764-37.08,8.938-59.779,8.938s-43.928-3.174-59.779-8.938  c-15.41-5.604-20.879-11.911-20.879-15.609v-25.776c17.93,11.392,49.42,17.26,80.658,17.26c9.09,0,18.07-0.487,26.692-1.447  c4.125-0.46,7.097-4.176,6.637-8.3c-0.459-4.125-4.175-7.094-8.3-6.637c-8.072,0.899-16.492,1.356-25.029,1.356  c-22.698,0-43.928-3.174-59.779-8.938c-15.41-5.605-20.879-11.912-20.879-15.611v-25.776c17.93,11.392,49.42,17.26,80.658,17.26  s62.728-5.867,80.658-17.26V376.235z M315.779,488.032c-15.851,5.764-37.08,8.938-59.779,8.938s-43.928-3.174-59.779-8.938  c-15.41-5.604-20.879-11.911-20.879-15.609v-25.776c17.93,11.392,49.42,17.26,80.658,17.26s62.728-5.867,80.658-17.26v25.776  C336.658,476.121,331.189,482.428,315.779,488.032z M300.964,308.251c23.434,5.319,35.694,14.032,35.694,19.89  c0,3.698-5.469,10.006-20.879,15.609c-15.851,5.764-37.08,8.938-59.779,8.938s-43.928-3.174-59.779-8.938  c-15.41-5.604-20.879-11.911-20.879-15.609c0-4.95,9.911-14.292,37.021-20.18l38.688,33.852c2.798,2.448,7.099,2.448,9.897,0  l38.804-33.953C300.14,308.019,300.541,308.156,300.964,308.251z M300.125,287.562L256,326.171l-44.125-38.609h12.063  c4.15,0,7.515-3.365,7.515-7.515V159.812c0-4.15-3.365-7.515-7.515-7.515h-12.063L256,113.688l44.125,38.609h-12.063  c-4.15,0-7.515,3.365-7.515,7.515v120.235c0,4.15,3.365,7.515,7.515,7.515H300.125z M360.204,200.391h-64.626v-33.065h24.548  c6.779,0,10.062-8.695,4.949-13.171l-64.125-56.11c-2.834-2.479-7.064-2.479-9.897,0l-64.125,56.11  c-5.113,4.476-1.831,13.171,4.949,13.171h24.548v33.065h-64.626c-31.215,0-56.611-25.396-56.611-56.611s25.396-56.611,56.611-56.611  c10.143,0,20.102,2.724,28.802,7.878c5.27,3.122,12.038-1.32,11.288-7.386c-0.346-2.793-0.513-5.413-0.513-8.007  c0-35.635,28.992-64.626,64.626-64.626s64.626,28.992,64.626,64.626c0,10.071-2.264,19.733-6.731,28.718  c-1.69,3.4-0.503,7.652,2.699,9.686c2.962,1.882,7.101,1.489,9.614-0.973c9.142-8.954,21.215-13.885,33.995-13.885  c26.795,0,48.595,21.8,48.595,48.595S386.999,200.391,360.204,200.391z"/>
<path d="M451.596,187.913c-2.187-3.527-6.818-4.613-10.347-2.424c-3.527,2.188-4.612,6.82-2.424,10.347  c11.82,19.051,18.067,41.026,18.067,63.548c0,22.522-6.247,44.497-18.067,63.549c-1.99,3.207-1.233,7.534,1.737,9.866  c3.479,2.732,8.706,1.811,11.034-1.944c13.297-21.434,20.326-46.148,20.326-71.472C471.922,234.061,464.893,209.346,451.596,187.913  z"/>
<path d="M359.456,236.124c-3.527,2.188-4.612,6.82-2.424,10.347c2.403,3.874,3.673,8.339,3.673,12.914  c0,4.575-1.27,9.041-3.673,12.914c-1.99,3.207-1.233,7.534,1.737,9.866c3.479,2.732,8.706,1.811,11.034-1.944  c3.881-6.254,5.931-13.46,5.931-20.837c0-7.376-2.051-14.582-5.931-20.837C367.615,235.021,362.983,233.936,359.456,236.124z"/>
<path d="M400.347,210.81c-3.527,2.188-4.612,6.82-2.425,10.347c7.116,11.469,10.876,24.689,10.876,38.228  c0,13.539-3.76,26.758-10.876,38.228c-1.99,3.207-1.233,7.534,1.737,9.867c3.479,2.732,8.706,1.81,11.035-1.944  c8.592-13.851,13.134-29.81,13.134-46.151c0-16.341-4.542-32.299-13.134-46.15C408.507,209.708,403.874,208.623,400.347,210.81z"/>
<path d="M70.75,185.489c-3.526-2.19-8.161-1.103-10.347,2.424c-13.296,21.434-20.325,46.148-20.325,71.472  c0,25.323,7.029,50.039,20.326,71.472c2.329,3.753,7.556,4.676,11.035,1.944c2.971-2.334,3.726-6.659,1.736-9.867  c-11.82-19.051-18.067-41.026-18.067-63.548c0-22.521,6.247-44.496,18.067-63.548C75.362,192.31,74.277,187.678,70.75,185.489z"/>
<path d="M152.544,236.123c-3.529-2.189-8.16-1.102-10.347,2.425c-3.88,6.255-5.931,13.46-5.931,20.837  c0,7.377,2.051,14.582,5.931,20.837c2.301,3.708,7.507,4.697,10.94,1.972c2.948-2.339,3.832-6.668,1.831-9.895  c-2.403-3.874-3.673-8.339-3.673-12.914c0-4.575,1.27-9.041,3.673-12.914C157.156,242.943,156.071,238.31,152.544,236.123z"/>
<path d="M111.654,210.81c-3.528-2.188-8.159-1.103-10.347,2.424c-8.593,13.85-13.135,29.809-13.135,46.151  c0,16.342,4.542,32.3,13.134,46.15c2.329,3.754,7.555,4.676,11.034,1.944c2.971-2.334,3.727-6.659,1.737-9.866  c-7.115-11.469-10.875-24.688-10.875-38.228c0-13.539,3.76-26.758,10.876-38.227C116.266,217.631,115.181,212.998,111.654,210.81z"/>
<g>
</g>
<g>
</g>
<g>
</g>
<g>
</g>
<g>
</g>
<g>
</g>
<g>
</g>
<g>
</g>
<g>
</g>
<g>
</g>
<g>
</g>
<g>
</g>
<g>
</g>
<g>
</g>
<g>
</g>
</svg>
