<?xml version="1.0" encoding="iso-8859-1"?>
<!-- Generator: Adobe Illustrator 19.0.0, SVG Export Plug-In . SVG Version: 6.00 Build 0)  -->
<svg xmlns="http://www.w3.org/2000/svg" xmlns:xlink="http://www.w3.org/1999/xlink" version="1.1" id="Capa_1" x="0px" y="0px" viewBox="0 0 512 512" style="enable-background:new 0 0 512 512;" xml:space="preserve">
<rect x="7.515" y="155.794" style="fill:#8E9AA9;" width="192.376" height="344.673"/>
<rect x="7.515" y="155.794" style="fill:#7C899B;" width="24.047" height="344.673"/>
<circle style="fill:#F7C14D;" cx="103.703" cy="316.107" r="32.063"/>
<g>
	<circle style="fill:#FFDB66;" cx="103.703" cy="316.107" r="16.031"/>
	<rect x="39.577" y="179.841" style="fill:#FFDB66;" width="128.25" height="32.063"/>
</g>
<rect x="39.577" y="195.872" style="fill:#F7C14D;" width="128.25" height="16.031"/>
<path style="fill:#3CBDE8;" d="M456.391,75.633c-6.127,0-11.981,1.158-17.371,3.247c0.868-3.614,1.34-7.382,1.34-11.263  c0-26.562-21.532-48.094-48.094-48.094s-48.094,21.532-48.094,48.094c0,3.022,0.293,5.974,0.825,8.84  c-2.867-0.533-5.819-0.825-8.84-0.825c-26.562,0-48.094,21.532-48.094,48.094s21.532,48.094,48.094,48.094h120.235  c26.562,0,48.094-21.532,48.094-48.094S482.953,75.633,456.391,75.633z"/>
<path style="fill:#2C9DD4;" d="M472.423,147.773H352.188c-26.562,0-48.094-21.532-48.094-48.094c0-4.656,0.674-9.151,1.909-13.409  c-10.936,8.816-17.94,22.315-17.94,37.456c0,26.562,21.532,48.094,48.094,48.094h120.235c21.906,0,40.378-14.651,46.185-34.685  C494.327,143.785,483.843,147.773,472.423,147.773z"/>
<path d="M199.89,148.274H7.515c-4.151,0-7.515,3.365-7.515,7.515v344.673c0,4.15,3.364,7.515,7.515,7.515H199.89  c4.151,0,7.515-3.365,7.515-7.515V155.789C207.405,151.639,204.042,148.274,199.89,148.274z M192.376,163.304v65.127H15.029v-65.127  H192.376z M15.029,492.948V243.46h177.346v249.487H15.029z"/>
<path d="M103.703,355.68c21.823,0,39.577-17.755,39.577-39.577c0-21.823-17.755-39.577-39.577-39.577s-39.577,17.755-39.577,39.577  C64.125,337.925,81.88,355.68,103.703,355.68z M96.188,292.736v15.351c0,4.15,3.364,7.515,7.515,7.515  c4.151,0,7.515-3.365,7.515-7.515v-15.351c9.871,3.182,17.033,12.451,17.033,23.367c0,13.535-11.012,24.548-24.548,24.548  s-24.548-11.013-24.548-24.548C79.155,305.187,86.317,295.918,96.188,292.736z"/>
<path d="M143.781,372.713H63.624c-4.151,0-7.515,3.365-7.515,7.515c0,4.15,3.364,7.515,7.515,7.515h80.157  c4.151,0,7.515-3.365,7.515-7.515C151.296,376.077,147.932,372.713,143.781,372.713z"/>
<path d="M143.781,412.791H63.624c-4.151,0-7.515,3.365-7.515,7.515c0,4.15,3.364,7.515,7.515,7.515h80.157  c4.151,0,7.515-3.365,7.515-7.515C151.296,416.156,147.932,412.791,143.781,412.791z"/>
<path d="M143.781,452.869H63.624c-4.151,0-7.515,3.365-7.515,7.515c0,4.15,3.364,7.515,7.515,7.515h80.157  c4.151,0,7.515-3.365,7.515-7.515C151.296,456.234,147.932,452.869,143.781,452.869z"/>
<path d="M39.577,219.413h128.25c4.151,0,7.515-3.365,7.515-7.515v-32.063c0-4.15-3.364-7.515-7.515-7.515H39.577  c-4.151,0-7.515,3.365-7.515,7.515v32.063C32.063,216.049,35.426,219.413,39.577,219.413z M47.092,187.351h113.221v17.033H47.092  V187.351z"/>
<path d="M103.703,67.116c4.151,0,7.515-3.365,7.515-7.515v-8.517h150.688l-19.235,19.235c-2.735,2.735-2.918,7.255-0.399,10.196  c2.81,3.282,7.971,3.487,11.028,0.431l32.063-32.063c2.935-2.935,2.935-7.693,0-10.627L253.3,6.194  c-2.896-2.895-7.733-2.895-10.628,0c-2.895,2.895-2.895,7.732,0,10.627l19.235,19.235H103.703c-4.151,0-7.515,3.365-7.515,7.515  v16.031C96.188,63.751,99.551,67.116,103.703,67.116z"/>
<path d="M103.703,107.194c4.151,0,7.515-3.365,7.515-7.515V83.648c0-4.15-3.364-7.515-7.515-7.515c-4.151,0-7.515,3.365-7.515,7.515  V99.68C96.188,103.83,99.551,107.194,103.703,107.194z"/>
<path d="M103.703,131.241h1.002c4.151,0,7.515-3.365,7.515-7.515c0-4.15-3.364-7.515-7.515-7.515h-1.002  c-4.151,0-7.515,3.365-7.515,7.515C96.188,127.877,99.551,131.241,103.703,131.241z"/>
<path d="M408.297,260.494c-4.151,0-7.515,3.365-7.515,7.515V396.76H258.11l19.235-19.235c2.895-2.895,2.895-7.732,0-10.627  c-2.896-2.895-7.732-2.895-10.628,0l-32.063,32.063c-2.935,2.935-2.935,7.693,0,10.627l32.063,32.063  c3.057,3.056,8.217,2.851,11.028-0.431c2.518-2.941,2.337-7.461-0.399-10.196l-19.235-19.235h150.186  c4.151,0,7.515-3.365,7.515-7.515V268.008C415.812,263.858,412.449,260.494,408.297,260.494z"/>
<path d="M408.297,220.415c-4.151,0-7.515,3.365-7.515,7.515v16.031c0,4.15,3.364,7.515,7.515,7.515s7.515-3.365,7.515-7.515V227.93  C415.812,223.78,412.449,220.415,408.297,220.415z"/>
<path d="M409.299,196.368h-1.002c-4.151,0-7.515,3.365-7.515,7.515s3.364,7.515,7.515,7.515h1.002c4.151,0,7.515-3.365,7.515-7.515  S413.451,196.368,409.299,196.368z"/>
<path d="M456.391,68.118c-2.872,0-5.719,0.218-8.529,0.654c0.008-0.385,0.012-0.771,0.012-1.155  c0-30.663-24.946-55.609-55.609-55.609s-55.609,24.946-55.609,55.609c0,0.167,0.001,0.336,0.002,0.503  c-30.926-0.238-56.112,24.776-56.112,55.607c0,30.663,24.946,55.609,55.609,55.609h60.117c4.151,0,7.515-3.365,7.515-7.515  s-3.364-7.515-7.515-7.515h-60.117c-22.376,0-40.579-18.204-40.579-40.579s18.204-40.579,40.579-40.579  c2.462,0,4.974,0.234,7.468,0.698c5.099,0.95,9.709-3.665,8.76-8.762c-0.463-2.49-0.697-5.003-0.697-7.467  c0-22.376,18.204-40.579,40.579-40.579s40.579,18.204,40.579,40.579c0,3.182-0.381,6.381-1.132,9.509  c-1.388,5.78,4.48,10.912,10.024,8.761c4.689-1.818,9.62-2.739,14.655-2.739c22.376,0,40.579,18.204,40.579,40.579  s-18.204,40.579-40.579,40.579h-24.047c-4.151,0-7.515,3.365-7.515,7.515s3.364,7.515,7.515,7.515h24.047  c30.663,0,55.609-24.946,55.609-55.609S487.054,68.118,456.391,68.118z"/>
<g>
</g>
<g>
</g>
<g>
</g>
<g>
</g>
<g>
</g>
<g>
</g>
<g>
</g>
<g>
</g>
<g>
</g>
<g>
</g>
<g>
</g>
<g>
</g>
<g>
</g>
<g>
</g>
<g>
</g>
</svg>
