<?xml version="1.0" encoding="iso-8859-1"?>
<!-- Generator: Adobe Illustrator 19.0.0, SVG Export Plug-In . SVG Version: 6.00 Build 0)  -->
<svg xmlns="http://www.w3.org/2000/svg" xmlns:xlink="http://www.w3.org/1999/xlink" version="1.1" id="Capa_1" x="0px" y="0px" viewBox="0 0 512 512" style="enable-background:new 0 0 512 512;" xml:space="preserve">
<rect x="199.89" y="360.204" style="fill:#56677E;" width="112.219" height="144.282"/>
<rect x="199.89" y="360.204" style="fill:#435670;" width="112.219" height="64.125"/>
<rect x="7.515" y="7.515" style="fill:#ECEEF1;" width="496.971" height="392.767"/>
<rect x="7.515" y="7.515" style="fill:#D9DDE2;" width="32.063" height="392.767"/>
<rect x="7.515" y="336.157" style="fill:#8E9AA9;" width="496.971" height="64.125"/>
<rect x="7.515" y="336.157" style="fill:#7C899B;" width="32.063" height="64.125"/>
<path style="fill:#F7C14D;" d="M344.172,296.078H167.828V183.859c0-17.708,14.355-32.063,32.063-32.063H312.11  c17.708,0,32.063,14.355,32.063,32.063V296.078z"/>
<path style="fill:#F09B24;" d="M231.953,151.796H199.89c-17.708,0-32.063,14.355-32.063,32.063v112.219h32.063V183.859  C199.89,166.152,214.245,151.796,231.953,151.796z"/>
<path style="fill:#DB6B5E;" d="M272.031,199.89c0-8.854-7.177-16.031-16.031-16.031c-8.854,0-16.031,7.177-16.031,16.031  c0,5.56,2.832,10.455,7.13,13.331l-7.13,50.794h32.063l-7.13-50.794C269.2,210.346,272.031,205.45,272.031,199.89z"/>
<path d="M504.485,0H7.515C3.364,0,0,3.365,0,7.515v392.767c0,4.15,3.364,7.515,7.515,7.515h184.861v89.174h-16.532  c-4.151,0-7.515,3.365-7.515,7.515s3.364,7.515,7.515,7.515h160.313c4.151,0,7.515-3.365,7.515-7.515s-3.364-7.515-7.515-7.515  h-16.532v-89.174h184.861c4.151,0,7.515-3.365,7.515-7.515V7.515C512,3.365,508.636,0,504.485,0z M304.595,496.971h-97.19v-89.174  h97.19V496.971z M15.029,392.767v-49.096h364.712c4.151,0,7.515-3.365,7.515-7.515s-3.364-7.515-7.515-7.515H15.029V15.029h481.941  v313.613h-80.658c-4.151,0-7.515,3.365-7.515,7.515s3.364,7.515,7.515,7.515h80.658v49.096H15.029z"/>
<path d="M264.016,360.204h-16.031c-4.427,0-8.016,3.589-8.016,8.016s3.589,8.016,8.016,8.016h16.031  c4.427,0,8.016-3.589,8.016-8.016S268.442,360.204,264.016,360.204z"/>
<path d="M319.624,145.006V79.656c0-21.823-17.755-39.577-39.577-39.577h-48.094c-21.823,0-39.577,17.755-39.577,39.577v65.351  c-18.241,3.522-32.063,19.599-32.063,38.853v112.219c0,4.15,3.364,7.515,7.515,7.515h176.344c4.151,0,7.515-3.365,7.515-7.515  V183.859C351.687,164.605,337.865,148.528,319.624,145.006z M231.953,55.108h48.094c13.536,0,24.548,11.013,24.548,24.548v64.626  h-97.19V79.656C207.405,66.12,218.417,55.108,231.953,55.108z M336.658,288.564H175.342V183.859  c0-13.535,11.012-24.548,24.548-24.548H312.11c13.536,0,24.548,11.012,24.548,24.548V288.564z"/>
<path d="M256,176.344c-12.983,0-23.546,10.563-23.546,23.546c0,6.186,2.415,12.029,6.629,16.377l-6.556,46.704  c-0.625,4.455,2.946,8.559,7.442,8.559h32.063c4.496,0,8.067-4.104,7.442-8.559l-6.556-46.704c4.214-4.346,6.629-10.19,6.629-16.377  C279.546,186.907,268.983,176.344,256,176.344z M257.46,214.265l5.929,42.235h-14.777l5.929-42.235  c0.401-2.856-0.867-5.688-3.263-7.29c-2.376-1.589-3.793-4.237-3.793-7.085c0-4.696,3.82-8.517,8.517-8.517s8.517,3.82,8.517,8.517  c0,2.848-1.418,5.496-3.793,7.085C258.327,208.577,257.059,211.411,257.46,214.265z"/>
<g>
</g>
<g>
</g>
<g>
</g>
<g>
</g>
<g>
</g>
<g>
</g>
<g>
</g>
<g>
</g>
<g>
</g>
<g>
</g>
<g>
</g>
<g>
</g>
<g>
</g>
<g>
</g>
<g>
</g>
</svg>
