<?xml version="1.0" encoding="iso-8859-1"?>
<!-- Generator: Adobe Illustrator 19.0.0, SVG Export Plug-In . SVG Version: 6.00 Build 0)  -->
<svg xmlns="http://www.w3.org/2000/svg" xmlns:xlink="http://www.w3.org/1999/xlink" version="1.1" id="Capa_1" x="0px" y="0px" viewBox="0 0 512 512" style="enable-background:new 0 0 512 512;" xml:space="preserve">
<path style="fill:#7CD9F2;" d="M400.282,195.885c-17.459,0-33.912,4.3-48.366,11.889c5.349-13.615,8.288-28.44,8.288-43.952  c0-66.404-53.831-120.235-120.235-120.235S119.734,97.418,119.734,163.822c0,0.091,0.003,0.181,0.003,0.273  C57.07,168.219,7.515,220.346,7.515,284.057c0,66.404,53.831,120.235,120.235,120.235h272.532  c57.55,0,104.204-46.653,104.204-104.204S457.832,195.885,400.282,195.885z"/>
<path style="fill:#3CBDE8;" d="M416.313,372.229H143.781c-66.404,0-120.235-53.831-120.235-120.235  c0-12.932,2.042-25.389,5.821-37.061c-13.766,19.553-21.853,43.393-21.853,69.124c0,66.404,53.831,120.235,120.235,120.235h272.532  c47.181,0,87.031-31.359,99.862-74.37C481.163,355.586,450.683,372.229,416.313,372.229z"/>
<path style="fill:#DB6B5E;" d="M360.204,260.01c-4.712,3.949-24.047,16.031-56.11,16.031c-26.138,0-44.045-12.662-48.094-16.031  c-4.049,3.37-21.956,16.031-48.094,16.031c-32.063,0-51.397-12.083-56.11-16.031c-0.725,24.364,8.016,168.329,104.204,208.407  C352.188,428.339,360.929,284.374,360.204,260.01z"/>
<path style="fill:#FF8C78;" d="M256,450.825c-33.052-16.225-57.65-48.951-73.178-97.397c-8.001-24.961-11.926-49.191-13.712-67.121  c10.178,3.248,23.121,5.766,38.796,5.766c21.474,0,38.051-6.979,48.094-12.755c10.043,5.776,26.62,12.755,48.094,12.755  c15.675,0,28.618-2.519,38.796-5.766c-1.785,17.931-5.711,42.16-13.712,67.121C313.65,401.873,289.052,434.6,256,450.825z"/>
<rect x="239.969" y="300.086" style="fill:#FFDB66;" width="32.063" height="72.141"/>
<rect x="239.969" y="300.086" style="fill:#F7C14D;" width="16.031" height="72.141"/>
<circle style="fill:#FFDB66;" cx="256" cy="412.305" r="16.031"/>
<path d="M400.282,188.37c-12.339,0-24.627,2.063-36.247,6.036c2.448-9.949,3.683-20.183,3.683-30.584  c0-70.442-57.308-127.75-127.75-127.75c-68.231,0-124.14,53.769-127.582,121.16C48.829,164.865,0,219.292,0,284.057  c0,70.442,57.308,127.75,127.75,127.75h55.302c3.144,5.27,6.454,10.283,9.929,15.014c16.493,22.452,36.724,38.781,60.128,48.533  c1.838,0.766,3.944,0.766,5.781,0c31.755-13.231,54.242-36.929,70.167-63.685c0.461,0.088,0.935,0.138,1.421,0.138h69.803  c61.601,0,111.718-50.117,111.718-111.718S461.883,188.37,400.282,188.37z M400.282,396.777h-63.154  c10.453-21.2,17.334-43.407,21.857-63.273c0.921-4.047-1.612-8.074-5.659-8.996c-4.048-0.921-8.074,1.612-8.996,5.659  c-10.52,46.207-34.377,105.865-88.332,130.062c-37.107-16.621-64.446-51.661-81.287-104.204  c-10.438-32.566-14.123-64.052-15.126-82.577c11.088,5.22,27.596,10.106,48.319,10.106c23.066,0,40.124-9.024,48.094-14.271  c7.97,5.247,25.028,14.271,48.094,14.271c20.719,0,37.227-4.885,48.314-10.103c-0.388,7.058-1.158,15.842-2.477,25.633  c-0.553,4.113,2.332,7.896,6.446,8.45c4.114,0.547,7.895-2.333,8.451-6.446c2.489-18.491,3.111-33.807,2.888-41.306  c-0.182-6.139-7.615-9.494-12.338-5.536c-0.17,0.143-17.427,14.277-51.283,14.277c-25.819,0-42.585-13.709-43.287-14.292  c-2.785-2.319-6.829-2.319-9.616,0c-0.701,0.583-17.467,14.292-43.287,14.292c-33.856,0-51.113-14.134-51.283-14.277  c-4.723-3.957-12.156-0.604-12.338,5.536c-0.383,12.865,1.765,56.06,16.114,100.828c4.153,12.957,8.997,25.036,14.488,36.163H127.75  c-62.154,0-112.72-50.566-112.72-112.72c0-59.182,46.21-108.582,105.201-112.465c3.95-0.261,7.021-3.54,7.021-7.499l-0.003-0.27  c0-62.154,50.566-112.72,112.72-112.72s112.72,50.566,112.72,112.72c0,14.223-2.613,28.086-7.768,41.204  c-2.488,6.332,4.455,12.569,10.487,9.401c13.742-7.215,29.259-11.029,44.874-11.029c53.314,0,96.689,43.375,96.689,96.689  S453.596,396.777,400.282,396.777z"/>
<path d="M272.031,292.573h-32.063c-4.15,0-7.515,3.365-7.515,7.515v72.141c0,4.15,3.365,7.515,7.515,7.515h32.063  c4.15,0,7.515-3.365,7.515-7.515v-72.141C279.546,295.938,276.181,292.573,272.031,292.573z M264.517,364.714h-17.033v-57.112  h17.033V364.714z"/>
<path d="M256,388.761c-12.983,0-23.546,10.563-23.546,23.546s10.563,23.546,23.546,23.546s23.546-10.563,23.546-23.546  S268.983,388.761,256,388.761z M256,420.824c-4.696,0-8.517-3.82-8.517-8.517c0-4.696,3.82-8.517,8.517-8.517  s8.517,3.82,8.517,8.517C264.517,417.003,260.696,420.824,256,420.824z"/>
<g>
</g>
<g>
</g>
<g>
</g>
<g>
</g>
<g>
</g>
<g>
</g>
<g>
</g>
<g>
</g>
<g>
</g>
<g>
</g>
<g>
</g>
<g>
</g>
<g>
</g>
<g>
</g>
<g>
</g>
</svg>
