<?xml version="1.0" encoding="iso-8859-1"?>
<!-- Generator: Adobe Illustrator 19.0.0, SVG Export Plug-In . SVG Version: 6.00 Build 0)  -->
<svg xmlns="http://www.w3.org/2000/svg" xmlns:xlink="http://www.w3.org/1999/xlink" version="1.1" id="Capa_1" x="0px" y="0px" viewBox="0 0 512 512" style="enable-background:new 0 0 512 512;" xml:space="preserve">
<path style="fill:#7CD9F2;" d="M400.282,159.823c-17.459,0-33.912,4.3-48.366,11.889c5.349-13.615,8.288-28.44,8.288-43.952  c0-66.404-53.831-120.235-120.235-120.235S119.734,61.357,119.734,127.761c0,0.091,0.003,0.181,0.003,0.273  C57.07,132.157,7.515,184.285,7.515,247.996c0,66.404,53.831,120.235,120.235,120.235h272.532  c57.55,0,104.204-46.653,104.204-104.204S457.832,159.823,400.282,159.823z"/>
<path style="fill:#3CBDE8;" d="M416.313,336.168H143.781c-66.404,0-120.235-53.831-120.235-120.235  c0-12.932,2.042-25.389,5.821-37.061c-13.766,19.553-21.853,43.393-21.853,69.124c0,66.404,53.831,120.235,120.235,120.235h272.532  c47.181,0,87.031-31.359,99.862-74.37C481.163,319.524,450.683,336.168,416.313,336.168z"/>
<polygon style="fill:#FF8C78;" points="328.141,408.309 328.141,296.09 183.859,296.09 183.859,408.309 143.781,408.309   256,504.497 368.219,408.309 "/>
<polygon style="fill:#DB6B5E;" points="207.906,424.34 207.906,296.09 183.859,296.09 183.859,408.309 143.781,408.309 256,504.497   277.58,485.998 "/>
<path d="M400.282,152.309c-12.338,0-24.627,2.063-36.247,6.036c2.448-9.949,3.683-20.183,3.683-30.584  c0-70.442-57.308-127.75-127.75-127.75c-68.231,0-124.14,53.769-127.582,121.16C48.829,128.804,0,183.231,0,247.996  c0,70.442,57.308,127.749,127.75,127.749h48.595v25.049h-32.564c-6.815,0-10.078,8.774-4.891,13.22l112.219,96.188  c2.78,2.383,7.001,2.383,9.781,0l112.219-96.188c5.187-4.447,1.925-13.22-4.891-13.22h-32.564v-25.049h64.626  c61.601,0,111.718-50.117,111.718-111.718S461.883,152.309,400.282,152.309z M400.282,360.716h-64.626V296.09  c0-4.15-3.364-7.515-7.515-7.515h-16.365c-4.151,0-7.515,3.365-7.515,7.515c0,4.15,3.364,7.515,7.515,7.515h8.85v104.704  c0,4.15,3.364,7.515,7.515,7.515h19.765L256,494.599l-91.906-78.776h19.765c4.15,0,7.515-3.365,7.515-7.515V303.604h85.667  c4.151,0,7.515-3.365,7.515-7.515c0-4.15-3.364-7.515-7.515-7.515h-93.182c-4.15,0-7.515,3.365-7.515,7.515v64.626H127.75  c-62.154,0-112.72-50.566-112.72-112.72c0-59.182,46.21-108.582,105.201-112.465c3.95-0.26,7.021-3.54,7.021-7.499l-0.003-0.272  c0-62.154,50.566-112.72,112.72-112.72s112.72,50.566,112.72,112.72c0,14.223-2.613,28.086-7.768,41.204  c-2.488,6.331,4.455,12.57,10.487,9.401c13.742-7.215,29.259-11.029,44.874-11.029c53.314,0,96.689,43.375,96.689,96.689  S453.596,360.716,400.282,360.716z"/>
<path d="M328.141,256.512H183.859c-4.15,0-7.515,3.365-7.515,7.515c0,4.15,3.365,7.515,7.515,7.515h144.282  c4.151,0,7.515-3.365,7.515-7.515C335.656,259.877,332.292,256.512,328.141,256.512z"/>
<path d="M328.141,232.465H183.859c-4.15,0-7.515,3.365-7.515,7.515c0,4.15,3.365,7.515,7.515,7.515h144.282  c4.151,0,7.515-3.365,7.515-7.515C335.656,235.83,332.292,232.465,328.141,232.465z"/>
<path d="M328.141,208.418H183.859c-4.15,0-7.515,3.365-7.515,7.515c0,4.15,3.365,7.515,7.515,7.515h144.282  c4.151,0,7.515-3.365,7.515-7.515C335.656,211.783,332.292,208.418,328.141,208.418z"/>
<g>
</g>
<g>
</g>
<g>
</g>
<g>
</g>
<g>
</g>
<g>
</g>
<g>
</g>
<g>
</g>
<g>
</g>
<g>
</g>
<g>
</g>
<g>
</g>
<g>
</g>
<g>
</g>
<g>
</g>
</svg>
