<?xml version="1.0" encoding="iso-8859-1"?>
<!-- Generator: Adobe Illustrator 19.0.0, SVG Export Plug-In . SVG Version: 6.00 Build 0)  -->
<svg xmlns="http://www.w3.org/2000/svg" xmlns:xlink="http://www.w3.org/1999/xlink" version="1.1" id="Capa_1" x="0px" y="0px" viewBox="0 0 512 512" style="enable-background:new 0 0 512 512;" xml:space="preserve">
<polygon style="fill:#FFDB66;" points="135.765,71.64 135.765,7.515 7.515,7.515 7.515,384.25 504.485,384.25 504.485,71.64 "/>
<g>
	<rect x="312.11" y="31.562" style="fill:#F7C14D;" width="128.25" height="40.078"/>
	<polygon style="fill:#F7C14D;" points="39.577,352.188 39.577,7.515 7.515,7.515 7.515,384.25 504.485,384.25 504.485,352.188  "/>
</g>
<circle style="fill:#2C9DD4;" cx="256" cy="480.438" r="24.047"/>
<circle style="fill:#3CBDE8;" cx="256" cy="480.438" r="8.016"/>
<circle style="fill:#F09B24;" cx="256" cy="207.906" r="32.063"/>
<circle style="fill:#F7C14D;" cx="256" cy="207.906" r="16.031"/>
<circle style="fill:#F09B24;" cx="352.188" cy="207.906" r="32.063"/>
<circle style="fill:#F7C14D;" cx="352.188" cy="207.906" r="16.031"/>
<circle style="fill:#F09B24;" cx="159.812" cy="207.906" r="32.063"/>
<circle style="fill:#F7C14D;" cx="159.812" cy="207.906" r="16.031"/>
<path d="M504.485,391.765c4.15,0,7.515-3.365,7.515-7.515V71.64c0-4.15-3.365-7.515-7.515-7.515h-56.611V31.562  c0-4.15-3.365-7.515-7.515-7.515H312.11c-4.15,0-7.515,3.365-7.515,7.515v32.564H143.28V7.515c0-4.15-3.365-7.515-7.515-7.515H7.515  C3.365,0,0,3.365,0,7.515V384.25c0,4.15,3.365,7.515,7.515,7.515h83.663c4.15,0,7.515-3.365,7.515-7.515s-3.365-7.515-7.515-7.515  H15.029V15.029H128.25V71.64c0,4.15,3.365,7.515,7.515,7.515h361.205v297.581H128.25c-4.15,0-7.515,3.365-7.515,7.515  s3.365,7.515,7.515,7.515h120.235v58.022c-11.376,2.789-20.346,11.76-23.136,23.136H7.515c-4.15,0-7.515,3.365-7.515,7.515  s3.365,7.515,7.515,7.515h217.834C228.73,501.739,241.186,512,256,512c14.861,0,27.347-10.327,30.681-24.179  c0.449,0.083,0.909,0.132,1.382,0.132h216.423c4.15,0,7.515-3.365,7.515-7.515s-3.365-7.515-7.515-7.515H288.063  c-0.473,0-0.933,0.049-1.382,0.132c-2.752-11.438-11.747-20.467-23.166-23.268v-58.022H504.485z M319.624,64.125V39.076h113.221  v25.049H319.624z M272.532,480.438c0,9.116-7.417,16.532-16.532,16.532c-9.116,0-16.532-7.417-16.532-16.532  s7.416-16.532,16.532-16.532S272.532,471.323,272.532,480.438z"/>
<path d="M295.577,207.906c0-21.823-17.755-39.577-39.577-39.577s-39.577,17.755-39.577,39.577s17.755,39.577,39.577,39.577  S295.577,229.729,295.577,207.906z M231.452,207.906c0-13.535,11.012-24.548,24.548-24.548c13.535,0,24.548,11.012,24.548,24.548  c0,13.535-11.013,24.548-24.548,24.548C242.465,232.454,231.452,221.441,231.452,207.906z"/>
<path d="M391.765,207.906c0-21.823-17.755-39.577-39.577-39.577s-39.577,17.755-39.577,39.577s17.755,39.577,39.577,39.577  S391.765,229.729,391.765,207.906z M327.64,207.906c0-13.535,11.013-24.548,24.548-24.548s24.548,11.012,24.548,24.548  c0,13.535-11.013,24.548-24.548,24.548S327.64,221.441,327.64,207.906z"/>
<path d="M159.812,247.483c21.823,0,39.577-17.755,39.577-39.577s-17.755-39.577-39.577-39.577s-39.577,17.755-39.577,39.577  S137.99,247.483,159.812,247.483z M159.812,183.358c13.535,0,24.548,11.012,24.548,24.548c0,13.535-11.013,24.548-24.548,24.548  c-13.535,0-24.548-11.013-24.548-24.548C135.264,194.371,146.277,183.358,159.812,183.358z"/>
<g>
</g>
<g>
</g>
<g>
</g>
<g>
</g>
<g>
</g>
<g>
</g>
<g>
</g>
<g>
</g>
<g>
</g>
<g>
</g>
<g>
</g>
<g>
</g>
<g>
</g>
<g>
</g>
<g>
</g>
</svg>
