<?xml version="1.0" encoding="iso-8859-1"?>
<!-- Generator: Adobe Illustrator 19.0.0, SVG Export Plug-In . SVG Version: 6.00 Build 0)  -->
<svg version="1.1" id="Capa_1" xmlns="http://www.w3.org/2000/svg" xmlns:xlink="http://www.w3.org/1999/xlink" x="0px" y="0px"
	 viewBox="0 0 512.004 512.004" style="enable-background:new 0 0 512.004 512.004;" xml:space="preserve">
<path style="fill:#FEC9A3;" d="M255.952,77.108L255.952,77.108c-14.13,0-25.582-11.452-25.582-25.582V25.944l-8.527-17.055h42.637
	c9.423,0,17.055,7.632,17.055,17.055v25.582C281.534,65.656,270.082,77.108,255.952,77.108z"/>
<polyline style="fill:#787D82;" points="221.842,162.382 221.842,281.765 307.116,281.765 290.061,264.71 290.061,162.382 "/>
<path style="fill:#4398D1;" d="M324.171,128.272V94.163c0-9.423-7.632-17.055-17.055-17.055H187.733V26.882
	c0.341-8.655-5.662-16.279-14.155-17.993c-9.278-1.603-18.104,4.622-19.707,13.908c-0.179,1.04-0.264,2.098-0.247,3.147v59.692
	c0,14.13,11.452,25.582,25.582,25.582h42.637v51.164h68.219v-25.582c0,14.13,11.452,25.582,25.582,25.582h59.692
	c9.423,0,17.055-7.632,17.055-17.055l0,0c0-9.423-7.632-17.055-17.055-17.055H324.171z"/>
<path style="fill:#616569;" d="M260.983,281.765h24.047l-20.551-20.551v-73.25h-17.055v76.746c-0.017,2.268,0.878,4.443,2.473,6.054
	L260.983,281.765z"/>
<polygon style="fill:#DE4C3C;" points="358.28,68.581 435.026,34.471 358.28,8.889 "/>
<rect x="349.795" y="8.889" style="fill:#D9D9D9;" width="17.055" height="289.93"/>
<polygon style="fill:#3E8CC7;" points="341.225,256.183 324.171,256.183 315.643,281.765 204.788,281.765 153.623,349.984 
	119.514,349.984 8.658,503.476 503.245,503.476 "/>
<path style="fill:#3582BD;" d="M375.335,315.874C307.116,409.675,204.788,469.367,93.42,503.476h409.825L375.335,315.874z"/>
<g>
	<path style="fill:#D9D9D9;" d="M93.932,128.272c-4.724,0.034-9.397,1.015-13.729,2.899c-17.311-15.963-44.283-14.88-60.246,2.43
		c-7.231,7.845-11.265,18.112-11.299,28.78h119.383C128.041,143.545,112.777,128.272,93.932,128.272z"/>
	<path style="fill:#D9D9D9;" d="M469.136,196.491c-2.584,0.009-5.159,0.324-7.675,0.938c-7.487-6.046-16.807-9.389-26.435-9.465
		c-23.544,0-42.637,19.093-42.637,42.637h110.856C503.245,211.764,487.981,196.491,469.136,196.491z"/>
	<path style="fill:#D9D9D9;" d="M153.623,256.183c0-18.837-15.273-34.109-34.109-34.109l0,0c-18.837,0-34.109,15.273-34.109,34.109
		H153.623z"/>
</g>
<polygon style="fill:#4398D1;" points="247.424,409.675 213.315,349.984 153.623,349.984 119.514,349.984 8.658,503.476 
	350.691,503.476 298.589,409.675 "/>
<path d="M366.807,279.633V170.909h8.527c14.13,0,25.582-11.452,25.582-25.582s-11.452-25.582-25.582-25.582h-8.527V74.123
	l71.715-31.892c4.298-1.927,6.216-6.975,4.289-11.273c-0.972-2.166-2.805-3.829-5.057-4.588L361.009,0.788
	c-2.601-0.861-5.458-0.418-7.675,1.194c-2.234,1.595-3.573,4.161-3.581,6.907v110.856h-17.055V94.163
	c0-14.13-11.452-25.582-25.582-25.582h-21.83c3.104-5.151,4.75-11.043,4.775-17.055V25.944c0-14.13-11.452-25.582-25.582-25.582
	h-42.637c-4.707,0.017-8.519,3.846-8.502,8.553c0,1.322,0.316,2.626,0.912,3.812l7.589,15.264v23.536
	c0.026,6.012,1.671,11.904,4.775,17.055H196.26V26.882c0.316-12.859-8.689-24.064-21.318-26.52
	c-13.934-2.354-27.134,7.027-29.488,20.96c-0.256,1.526-0.375,3.078-0.358,4.622v59.692c0,18.837,15.273,34.109,34.109,34.109
	h34.109v153.493h-8.527c-2.686,0-5.21,1.262-6.822,3.411l-48.606,64.808h-29.846c-2.729-0.009-5.295,1.296-6.907,3.496
	L1.751,498.445c-1.91,2.609-2.174,6.08-0.682,8.954c1.467,2.831,4.4,4.613,7.589,4.605h494.587c3.121,0.009,6.003-1.697,7.504-4.434
	c1.526-2.635,1.526-5.892,0-8.527L366.807,279.633z M366.807,20.742l44.683,14.838l-44.683,19.869V20.742z M366.807,136.799h8.527
	c4.707,0,8.527,3.82,8.527,8.527s-3.82,8.527-8.527,8.527h-8.527V136.799z M264.479,17.416c4.707,0,8.527,3.82,8.527,8.527v25.582
	c0,9.423-7.632,17.055-17.055,17.055s-17.055-7.632-17.055-17.055V25.944c-0.009-1.339-0.333-2.652-0.938-3.837l-2.302-4.69
	C235.657,17.416,264.479,17.416,264.479,17.416z M179.205,102.69c-9.423,0-17.055-7.632-17.055-17.055V25.944
	c0-2.49,1.092-4.861,2.985-6.481c1.927-1.723,4.528-2.473,7.078-2.047c4.289,1.092,7.214,5.048,6.992,9.465v50.226
	c0,4.707,3.82,8.527,8.527,8.527h119.383c4.707,0,8.527,3.82,8.527,8.527v34.109c0,4.707,3.82,8.527,8.527,8.527h25.582v17.055
	h-34.109c-9.423,0-17.055-7.632-17.055-17.055V102.69h-17.055v51.164H230.37v-42.637c0-4.707-3.82-8.527-8.527-8.527H179.205z
	 M349.753,170.909v82.715l-1.364-2.132c-1.586-2.405-4.281-3.854-7.163-3.837h-17.055c-3.82-0.196-7.308,2.174-8.527,5.799
	l-6.31,18.931l-10.744-11.171v-94.91c5.185,3.01,11.06,4.596,17.055,4.605H349.753z M247.424,187.964v76.746
	c-0.017,2.268,0.878,4.443,2.473,6.054l2.558,2.473H230.37V170.909h51.164v93.801c-0.017,2.268,0.878,4.443,2.473,6.054l2.558,2.473
	h-10.062l-12.024-12.024v-73.25H247.424z M25.713,494.949l55.428-76.746h51.164l31.637,47.327l14.155-9.38l-34.109-51.164
	c-1.637-2.481-4.443-3.94-7.419-3.837h-43.49l30.784-42.637h84.506l31.637,55.428c1.526,2.652,4.357,4.272,7.419,4.264h46.133
	l41.869,76.746H25.713z M355.125,494.949l-27.884-51.164h35.303l23.024,30.698l13.644-10.233l-25.582-34.109
	c-1.612-2.149-4.136-3.411-6.822-3.411h-49.203l-11.512-21.148c-1.501-2.737-4.383-4.443-7.504-4.434H252.37l-31.637-55.428
	c-1.526-2.652-4.357-4.272-7.419-4.264h-42.637l38.373-51.164h106.592c3.82,0.196,7.308-2.174,8.527-5.799l6.14-19.783h6.31
	L487.47,494.949L355.125,494.949L355.125,494.949z"/>
<path d="M136.569,162.382c0-23.544-19.093-42.637-42.637-42.637c-4.076,0-8.127,0.597-12.024,1.791
	c-8.792-6.703-19.553-10.335-30.613-10.318c-28.26,0-51.164,22.905-51.164,51.164v8.527h136.438V162.382z M18.294,153.854
	c3.888-15.051,17.456-25.574,33.001-25.582c8.587,0.051,16.842,3.343,23.109,9.21l4.093,3.752l5.116-2.217
	c12.996-5.551,28.021,0.486,33.572,13.482c0.188,0.452,0.367,0.904,0.537,1.356H18.294z"/>
<path d="M469.136,187.964c-1.859,0.017-3.709,0.162-5.543,0.426c-8.382-5.841-18.351-8.962-28.567-8.954
	c-28.26,0-51.164,22.905-51.164,51.164v8.527h127.91V230.6C511.773,207.056,492.688,187.964,469.136,187.964z M402.025,222.073
	c4.826-18.206,23.501-29.053,41.716-24.226c4.528,1.202,8.758,3.326,12.433,6.234l3.24,2.558l4.008-0.938
	c1.876-0.418,3.795-0.648,5.713-0.682c10.847-0.009,20.517,6.83,24.132,17.055H402.025z"/>
<path d="M76.877,256.183v8.527h85.274v-8.527c0-23.544-19.093-42.637-42.637-42.637S76.877,232.639,76.877,256.183z
	 M143.646,247.655H95.381c4.69-13.328,19.297-20.329,32.626-15.639C135.324,234.591,141.08,240.347,143.646,247.655z"/>
<g>
</g>
<g>
</g>
<g>
</g>
<g>
</g>
<g>
</g>
<g>
</g>
<g>
</g>
<g>
</g>
<g>
</g>
<g>
</g>
<g>
</g>
<g>
</g>
<g>
</g>
<g>
</g>
<g>
</g>
</svg>
