<?xml version="1.0" encoding="iso-8859-1"?>
<!-- Generator: Adobe Illustrator 19.0.0, SVG Export Plug-In . SVG Version: 6.00 Build 0)  -->
<svg version="1.1" id="Capa_1" xmlns="http://www.w3.org/2000/svg" xmlns:xlink="http://www.w3.org/1999/xlink" x="0px" y="0px"
	 viewBox="0 0 512 512" style="enable-background:new 0 0 512 512;" xml:space="preserve">
<path style="fill:#87CED9;" d="M477.957,503.489V210.043c0-110.553-89.617-200.17-200.17-200.17l0,0
	c-96.162,0-178.723,68.409-196.596,162.894l-28.766,152H112v68.085c0,37.6,30.485,68.085,68.085,68.085h51.064v42.553H477.957z"/>
<path style="fill:#4398D1;" d="M426.894,239.66v-51.064h-37.106c-2.757-11.447-7.294-22.383-13.447-32.426l26.213-26.298
	l-36.085-36.085L340.17,120c-10.043-6.153-20.979-10.689-32.426-13.447V69.447h-51.064v37.106
	c-11.447,2.757-22.383,7.294-32.426,13.447l-26.298-26.213l-36.085,36.085l26.213,26.298c-6.153,10.043-10.689,20.979-13.447,32.426
	h-37.106v51.064h37.106c2.757,11.447,7.294,22.383,13.447,32.426l-26.213,26.298l36.085,36.085l26.298-26.213
	c10.043,6.153,20.979,10.689,32.426,13.447v37.106h51.064v-37.106c11.447-2.757,22.383-7.294,32.426-13.447l26.298,26.213
	l36.085-36.085l-26.213-26.298c6.153-10.043,10.689-20.979,13.447-32.426L426.894,239.66L426.894,239.66z"/>
<circle style="fill:#3E8CC7;" cx="282.213" cy="214.128" r="76.596"/>
<g>
	<path style="fill:#3582BD;" d="M282.213,290.723v-17.021c32.902,0,59.574-26.672,59.574-59.574h17.021
		C358.809,256.434,324.519,290.723,282.213,290.723z"/>
	<path style="fill:#3582BD;" d="M222.638,214.128h-17.021c0-42.306,34.289-76.596,76.596-76.596v17.021
		C249.311,154.553,222.638,181.226,222.638,214.128z"/>
</g>
<g>
	<circle style="fill:#87CED9;" cx="282.213" cy="214.128" r="25.532"/>
	<path style="fill:#87CED9;" d="M69.447,77.957L69.447,77.957c-2.894-17.464-16.579-31.149-34.043-34.043l0,0
		c17.464-2.894,31.149-16.579,34.043-34.043l0,0c2.894,17.464,16.579,31.149,34.043,34.043l0,0
		C86.026,46.809,72.34,60.494,69.447,77.957z"/>
</g>
<g>
	<path style="fill:#D9D9D9;" d="M435.404,346.468l-12.511-11.574c7.251-7.906,13.779-16.451,19.489-25.532l14.468,9.106
		C450.511,328.391,443.336,337.762,435.404,346.468z"/>
	<path style="fill:#D9D9D9;" d="M290.723,409.872h-8.511v-17.021h8.511c43.685,0.008,85.855-15.974,118.553-44.936l11.234,12.766
		C384.732,392.426,338.553,409.923,290.723,409.872z"/>
</g>
<path d="M248.17,69.447V100c-7.796,2.391-15.353,5.523-22.553,9.362L204,87.745c-3.311-3.336-8.698-3.362-12.034-0.051
	c-0.017,0.017-0.034,0.034-0.051,0.051L155.83,123.83c-3.336,3.311-3.362,8.698-0.051,12.034c0.017,0.017,0.034,0.034,0.051,0.051
	l21.617,21.617c-3.838,7.2-6.97,14.757-9.362,22.553h-30.553c-4.698,0-8.511,3.813-8.511,8.511v51.064
	c0,4.698,3.813,8.511,8.511,8.511h30.553c2.391,7.796,5.523,15.353,9.362,22.553L155.83,292.34
	c-3.336,3.311-3.362,8.698-0.051,12.034c0.017,0.017,0.034,0.034,0.051,0.051l36.085,36.085c1.609,1.591,3.779,2.485,6.043,2.468
	c2.264,0.017,4.434-0.877,6.043-2.468l21.617-21.617c7.2,3.838,14.757,6.97,22.553,9.362v30.553c0,4.698,3.813,8.511,8.511,8.511
	h51.064c4.698,0,8.511-3.813,8.511-8.511v-30.553c7.796-2.391,15.353-5.523,22.553-9.362l21.617,21.617
	c3.311,3.336,8.698,3.362,12.034,0.051c0.017-0.017,0.034-0.034,0.051-0.051l36.085-36.085c3.336-3.311,3.362-8.698,0.051-12.034
	c-0.017-0.017-0.034-0.034-0.051-0.051l-21.617-21.617c3.838-7.2,6.97-14.757,9.362-22.553h30.553c4.698,0,8.511-3.813,8.511-8.511
	v-51.064c0-4.698-3.813-8.511-8.511-8.511H396.34c-2.391-7.796-5.523-15.353-9.362-22.553l21.617-21.617
	c3.336-3.311,3.362-8.698,0.051-12.034c-0.017-0.017-0.034-0.034-0.051-0.051l-36.085-36.085c-1.609-1.591-3.779-2.485-6.043-2.468
	c-2.264-0.017-4.434,0.877-6.043,2.468l-21.617,21.617c-7.2-3.838-14.757-6.97-22.553-9.362V69.447c0-4.698-3.813-8.511-8.511-8.511
	h-51.064C251.983,60.936,248.17,64.749,248.17,69.447z M265.191,106.553V77.957h34.043v28.596c-0.111,4.034,2.63,7.583,6.553,8.511
	c10.579,2.545,20.681,6.74,29.957,12.426c3.345,2.068,7.677,1.574,10.468-1.191l20.255-20.255l24.085,24.085l-20.255,20.255
	c-2.766,2.791-3.26,7.123-1.191,10.468c5.685,9.277,9.881,19.379,12.426,29.957c0.928,3.923,4.477,6.664,8.511,6.553h28.34v34.043
	h-28.596c-4.034-0.111-7.583,2.63-8.511,6.553c-2.545,10.579-6.74,20.681-12.426,29.957c-2.068,3.345-1.574,7.677,1.191,10.468
	l20.255,20.255l-23.83,23.83l-20.255-20.255c-2.791-2.766-7.123-3.26-10.468-1.191c-9.277,5.685-19.379,9.881-29.957,12.426
	c-3.923,0.928-6.664,4.477-6.553,8.511v28.34h-34.043v-28.596c0.111-4.034-2.63-7.583-6.553-8.511
	c-10.579-2.545-20.681-6.74-29.957-12.426c-3.345-2.068-7.677-1.574-10.468,1.191l-20.255,20.511l-24.085-24.085l20.255-20.255
	c2.766-2.791,3.26-7.123,1.191-10.468c-5.685-9.277-9.881-19.379-12.426-29.957c-0.928-3.923-4.477-6.664-8.511-6.553h-28.34
	v-34.043h28.596c4.034,0.111,7.583-2.63,8.511-6.553c2.545-10.579,6.74-20.681,12.426-29.957c2.068-3.345,1.574-7.677-1.191-10.468
	l-20.511-20.255l24.085-24.085l20.255,20.255c2.791,2.766,7.123,3.26,10.468,1.191c9.277-5.685,19.379-9.881,29.957-12.426
	C262.468,113.906,265.183,110.485,265.191,106.553z"/>
<path d="M282.213,290.723c42.306,0,76.596-34.289,76.596-76.596h-17.021c0,32.902-26.672,59.574-59.574,59.574l0,0V290.723z"/>
<path d="M205.617,214.128h17.021c0-32.902,26.672-59.574,59.574-59.574v-17.021C239.906,137.532,205.617,171.821,205.617,214.128z"
	/>
<path d="M248.17,214.128c0,18.8,15.243,34.043,34.043,34.043s34.043-15.243,34.043-34.043s-15.243-34.043-34.043-34.043
	S248.17,195.328,248.17,214.128z M299.234,214.128c0,9.404-7.617,17.021-17.021,17.021c-9.404,0-17.021-7.617-17.021-17.021
	s7.617-17.021,17.021-17.021C291.617,197.106,299.234,204.723,299.234,214.128z"/>
<path d="M72.851,171.574L43.915,323.149c-0.894,4.613,2.119,9.081,6.74,9.974c0.579,0.111,1.174,0.162,1.77,0.153h51.064v59.574
	c0,42.306,34.289,76.596,76.596,76.596l0,0h42.553v34.043c0,4.698,3.813,8.511,8.511,8.511h246.809c4.698,0,8.511-3.813,8.511-8.511
	V210.043c0.009-115.2-93.37-208.604-208.579-208.613C177.506,1.421,91.353,72.911,72.851,171.574z M469.447,210.043v284.936H239.66
	v-34.043c0-4.698-3.813-8.511-8.511-8.511h-51.064c-32.902,0-59.574-26.672-59.574-59.574v-68.085c0-4.698-3.813-8.511-8.511-8.511
	H62.723l26.809-141.872C109.396,70.409,209.779,2.23,313.753,22.085C403.992,39.328,469.302,118.17,469.447,210.043z"/>
<path d="M34.043,52.426c13.762,2.357,24.536,13.132,26.894,26.894c0,4.698,3.813,8.511,8.511,8.511c4.698,0,8.511-3.813,8.511-8.511
	c2.357-13.762,13.132-24.536,26.894-26.894c4.698,0,8.511-3.813,8.511-8.511s-3.813-8.511-8.511-8.511
	C91.089,33.047,80.315,22.272,77.957,8.511C77.957,3.813,74.145,0,69.447,0c-4.698,0-8.511,3.813-8.511,8.511
	c-2.357,13.762-13.132,24.536-26.894,26.894c-4.698,0-8.511,3.813-8.511,8.511S29.345,52.426,34.043,52.426z M69.447,31.745
	c3.302,4.749,7.421,8.868,12.17,12.17c-4.749,3.302-8.868,7.421-12.17,12.17c-3.302-4.749-7.421-8.868-12.17-12.17
	C62.026,40.613,66.145,36.494,69.447,31.745z"/>
<path d="M435.404,346.468c7.932-8.706,15.106-18.077,21.447-28l-14.468-9.106c-5.711,9.081-12.238,17.626-19.489,25.532
	L435.404,346.468z"/>
<path d="M290.723,392.851h-8.511v17.021h8.511c47.83,0.051,94.009-17.447,129.787-49.191l-11.234-12.766
	C376.579,376.877,334.409,392.86,290.723,392.851z"/>
<g>
</g>
<g>
</g>
<g>
</g>
<g>
</g>
<g>
</g>
<g>
</g>
<g>
</g>
<g>
</g>
<g>
</g>
<g>
</g>
<g>
</g>
<g>
</g>
<g>
</g>
<g>
</g>
<g>
</g>
</svg>
