<?xml version="1.0" encoding="iso-8859-1"?>
<!-- Generator: Adobe Illustrator 19.0.0, SVG Export Plug-In . SVG Version: 6.00 Build 0)  -->
<svg version="1.1" id="Capa_1" xmlns="http://www.w3.org/2000/svg" xmlns:xlink="http://www.w3.org/1999/xlink" x="0px" y="0px"
	 viewBox="0 0 511.998 511.998" style="enable-background:new 0 0 511.998 511.998;" xml:space="preserve">
<path style="fill:#3E8CC7;" d="M264.531,462.267v-27.132h-17.064v27.132c-13.327,4.71-20.315,19.334-15.597,32.661
	c4.71,13.327,19.334,20.315,32.661,15.597c13.327-4.71,20.315-19.334,15.597-32.661
	C277.551,470.577,271.817,464.843,264.531,462.267z M255.999,494.859c-4.71,0-8.532-3.822-8.532-8.532
	c0-4.71,3.822-8.532,8.532-8.532c4.71,0,8.532,3.822,8.532,8.532C264.531,491.037,260.708,494.859,255.999,494.859z"/>
<rect x="25.591" y="42.66" style="fill:#D9D9D9;" width="460.731" height="392.474"/>
<g>
	<rect x="8.527" y="8.532" style="fill:#4398D1;" width="494.859" height="34.128"/>
	<rect x="0.037" y="426.603" style="fill:#4398D1;" width="511.923" height="17.064"/>
	<path style="fill:#4398D1;" d="M255.999,238.898l90.525-90.525c-24.009-24.001-56.576-37.473-90.525-37.456L255.999,238.898
		L255.999,238.898z"/>
</g>
<path style="fill:#FDB62F;" d="M346.524,148.372l-90.525,90.525l90.525,90.525c49.998-49.964,50.023-130.993,0.06-180.99
	C346.558,148.415,346.541,148.389,346.524,148.372z"/>
<path style="fill:#DE4C3C;" d="M255.999,238.898L255.999,238.898V110.917c-70.68,0.034-127.955,57.361-127.921,128.041
	c0.034,70.68,57.352,127.955,128.032,127.921c33.906-0.017,66.422-13.489,90.406-37.456L255.999,238.898z"/>
<g>
	<path style="fill:#BDBDBD;" d="M296.697,150.505l-13.139-10.921l42.66-51.192c1.621-1.954,4.036-3.072,6.57-3.072h42.66v17.064
		h-38.65L296.697,150.505z"/>
	<rect x="392.554" y="85.321" style="fill:#BDBDBD;" width="59.724" height="17.064"/>
	<rect x="392.554" y="119.449" style="fill:#BDBDBD;" width="42.66" height="17.064"/>
	<path style="fill:#BDBDBD;" d="M181.685,176.699l-31.569-31.654h-22.098v-17.064h25.596c2.27-0.017,4.445,0.879,6.058,2.474
		l34.128,34.128L181.685,176.699z"/>
	<rect x="59.719" y="127.981" style="fill:#BDBDBD;" width="51.192" height="17.064"/>
	<rect x="59.719" y="162.109" style="fill:#BDBDBD;" width="51.192" height="17.064"/>
	
		<rect x="366.949" y="262.395" transform="matrix(-0.7071 0.7071 -0.7071 -0.7071 852.1385 244.2599)" style="fill:#BDBDBD;" width="17.064" height="72.436"/>
	<rect x="392.554" y="349.814" style="fill:#BDBDBD;" width="59.724" height="17.064"/>
	<rect x="392.554" y="383.942" style="fill:#BDBDBD;" width="59.724" height="17.064"/>
	<rect x="59.719" y="349.814" style="fill:#BDBDBD;" width="59.724" height="17.064"/>
	<rect x="59.719" y="383.942" style="fill:#BDBDBD;" width="42.66" height="17.064"/>
	<rect x="59.719" y="315.686" style="fill:#BDBDBD;" width="59.724" height="17.064"/>
</g>
<rect x="25.591" y="42.66" style="fill:#D1D1D1;" width="460.731" height="17.064"/>
<path style="fill:#F5AB20;" d="M289.53,272.428l56.994,56.994c41.79-41.867,49.443-106.907,18.515-157.331
	C345.483,209.419,319.981,243.309,289.53,272.428z"/>
<path style="fill:#C94536;" d="M181.599,342.903c50.877,36.432,120.635,30.732,164.925-13.481l-56.994-56.994
	C258.021,302.146,221.47,326.01,181.599,342.903z"/>
<path d="M486.364,443.667H25.633c-4.71,0-8.532-3.814-8.532-8.532V42.66c0-4.71,3.822-8.532,8.532-8.532h460.731
	c4.718,0,8.532,3.822,8.532,8.532v392.474C494.896,439.853,491.074,443.667,486.364,443.667z M34.165,426.603h443.667V51.192H34.165
	C34.165,51.192,34.165,426.603,34.165,426.603z"/>
<path d="M503.428,51.192H8.569c-4.71,0-8.532-3.822-8.532-8.532V8.532C0.037,3.822,3.86,0,8.569,0h494.859
	c4.718,0,8.532,3.822,8.532,8.532V42.66C511.96,47.37,508.138,51.192,503.428,51.192z M17.101,34.128h477.795V17.064H17.101
	C17.101,17.064,17.101,34.128,17.101,34.128z"/>
<rect x="0.037" y="426.603" width="511.923" height="17.064"/>
<path d="M255.999,511.923c-14.112,0-25.596-11.484-25.596-25.596c0-14.112,11.484-25.596,25.596-25.596s25.596,11.484,25.596,25.596
	C281.595,500.439,270.111,511.923,255.999,511.923z M255.999,477.795c-4.701,0-8.532,3.822-8.532,8.532
	c0,4.71,3.831,8.532,8.532,8.532c4.71,0,8.532-3.822,8.532-8.532C264.531,481.617,260.7,477.795,255.999,477.795z"/>
<rect x="247.424" y="435.135" width="17.064" height="34.128"/>
<path d="M255.999,247.43c-1.101,0-2.21-0.213-3.268-0.648c-3.191-1.322-5.264-4.437-5.264-7.884V110.917
	c0-4.71,3.814-8.532,8.532-8.532c0.017,0,0.043,0,0.068,0c36.44,0,70.714,14.189,96.498,39.956c1.604,1.604,2.5,3.771,2.5,6.041
	c0,2.261-0.896,4.437-2.5,6.032l-90.525,90.525C260.393,246.559,258.209,247.43,255.999,247.43z M264.531,119.739v98.562
	l69.715-69.715C314.665,131.581,290.4,121.548,264.531,119.739z"/>
<path d="M373.315,308.519l21.671,21.757l12.115-12.115l-25.596-25.596c7.261-16.962,10.998-35.22,11.006-53.667
	c0.119-36.227-14.3-70.987-40.015-96.498c-3.328-3.31-8.703-3.31-12.03,0l-75.935,75.935V110.917c0-4.71-3.822-8.532-8.532-8.532
	c-33.232-0.068-65.321,12.081-90.184,34.128l-6.143-6.143c-1.621-1.57-3.805-2.423-6.058-2.389h-25.596v17.064h22.098l3.583,3.669
	c-50.339,56.124-45.655,142.434,10.469,192.773s142.434,45.655,192.773-10.469C363.144,324.099,368.63,316.556,373.315,308.519z
	 M255.999,358.346c-65.97-0.085-119.38-53.624-119.304-119.594c0.034-28.651,10.366-56.337,29.12-78.009l15.87,15.955l12.116-12.116
	l-15.955-15.955c19.393-17.081,43.846-27.328,69.622-29.18v119.449c0.017,1.118,0.247,2.218,0.683,3.242
	c0.435,1.032,1.041,1.988,1.792,2.816l84.297,84.211C312.541,348.04,284.743,358.406,255.999,358.346z M268.029,238.898
	l78.239-78.239c28.318,32.669,36.773,78.094,22.098,118.766l-12.457-12.457l-12.115,12.115l17.064,17.064
	c-4.104,7.525-8.993,14.59-14.59,21.074L268.029,238.898z"/>
<path d="M326.218,88.392l-42.66,51.192l13.139,10.921l40.101-48.121h38.65V85.321h-42.66
	C330.245,85.321,327.839,86.438,326.218,88.392z"/>
<rect x="392.554" y="85.321" width="59.724" height="17.064"/>
<rect x="392.554" y="119.449" width="42.66" height="17.064"/>
<rect x="59.719" y="127.981" width="51.192" height="17.064"/>
<rect x="59.719" y="162.109" width="51.192" height="17.064"/>
<rect x="392.554" y="349.814" width="59.724" height="17.064"/>
<rect x="392.554" y="383.942" width="59.724" height="17.064"/>
<rect x="59.719" y="349.814" width="59.724" height="17.064"/>
<rect x="59.719" y="383.942" width="42.66" height="17.064"/>
<rect x="59.719" y="315.686" width="59.724" height="17.064"/>
<g>
</g>
<g>
</g>
<g>
</g>
<g>
</g>
<g>
</g>
<g>
</g>
<g>
</g>
<g>
</g>
<g>
</g>
<g>
</g>
<g>
</g>
<g>
</g>
<g>
</g>
<g>
</g>
<g>
</g>
</svg>
