<?xml version="1.0" encoding="iso-8859-1"?>
<!-- Generator: Adobe Illustrator 19.0.0, SVG Export Plug-In . SVG Version: 6.00 Build 0)  -->
<svg version="1.1" id="Capa_1" xmlns="http://www.w3.org/2000/svg" xmlns:xlink="http://www.w3.org/1999/xlink" x="0px" y="0px"
	 viewBox="0 0 511.994 511.994" style="enable-background:new 0 0 511.994 511.994;" xml:space="preserve">
<rect x="76.986" y="42.63" style="fill:#D9D9D9;" width="392.193" height="332.512"/>
<rect x="111.09" y="272.83" style="fill:#87CED9;" width="119.363" height="51.156"/>
<path style="fill:#4398D1;" d="M362.656,495.698l-81.082-48.683v-71.874c0-4.706-3.82-8.526-8.526-8.526
	c-4.706,0-8.526,3.82-8.526,8.526v71.874l-81.082,48.683c-4.289,1.935-6.198,6.991-4.254,11.28c1.935,4.289,6.991,6.198,11.28,4.254
	c0.529-0.239,1.032-0.529,1.501-0.878l81.082-48.513l80.911,48.513c1.313,0.784,2.822,1.194,4.348,1.194
	c4.706,0,8.526-3.82,8.526-8.526C366.826,500.021,365.24,497.233,362.656,495.698z"/>
<rect x="264.557" y="375.142" style="fill:#3E8CC7;" width="17.052" height="25.578"/>
<rect x="59.934" y="8.526" style="fill:#4398D1;" width="426.297" height="34.104"/>
<g>
	<rect x="204.875" y="68.208" style="fill:#BDBDBD;" width="85.259" height="17.052"/>
	<rect x="307.187" y="68.208" style="fill:#BDBDBD;" width="34.104" height="17.052"/>
</g>
<rect x="59.934" y="366.616" style="fill:#4398D1;" width="426.297" height="17.052"/>
<g>
	<path style="fill:#BDBDBD;" d="M332.73,170.519H213.367c-4.706,0-8.526-3.82-8.526-8.526v-51.156c0-4.706,3.82-8.526,8.526-8.526
		H332.73c4.706,0,8.526,3.82,8.526,8.526v51.156C341.256,166.699,337.437,170.519,332.73,170.519z M221.893,153.467h102.311v-34.104
		H221.893L221.893,153.467L221.893,153.467z"/>
	<rect x="264.557" y="161.993" style="fill:#BDBDBD;" width="17.052" height="59.682"/>
	<path style="fill:#BDBDBD;" d="M383.886,272.83h-17.052v-42.63H179.263v42.63h-17.052v-51.156c0-4.706,3.82-8.526,8.526-8.526
		H375.36c4.706,0,8.526,3.82,8.526,8.526V272.83z"/>
	<path style="fill:#BDBDBD;" d="M435.042,332.512H315.678c-4.706,0-8.526-3.82-8.526-8.526V272.83c0-4.706,3.82-8.526,8.526-8.526
		h119.363c4.706,0,8.526,3.82,8.526,8.526v51.156C443.568,328.692,439.748,332.512,435.042,332.512z M324.204,315.46h102.311
		v-34.104H324.204V315.46z"/>
</g>
<rect x="76.986" y="42.63" style="fill:#D1D1D1;" width="392.193" height="17.052"/>
<path style="fill:#FEC9A3;" d="M119.582,119.363H34.322v59.682c0,23.54,19.09,42.63,42.63,42.63s42.63-19.09,42.63-42.63h17.052
	L119.582,119.363z"/>
<path style="fill:#5C3724;" d="M92.981,127.889H59.9l-25.578,34.104v-42.63c0-14.127,11.45-25.578,25.578-25.578h76.734
	C131.629,113.821,113.631,127.881,92.981,127.889z"/>
<polyline style="fill:#787D82;" points="25.796,341.038 25.796,503.031 145.16,503.031 128.108,477.453 128.108,341.038 "/>
<path style="fill:#4398D1;" d="M217.63,234.463l-38.367,38.367l-36.15-36.15c-9.609-9.617-22.645-15.014-36.235-15.006H59.9
	c-18.834,0-34.104,15.27-34.104,34.104v85.259h102.311V272.83l25.578,25.578c14.11,14.128,36.994,14.145,51.122,0.034
	c0.009-0.009,0.017-0.017,0.034-0.034l38.367-38.367c7.059-7.051,7.068-18.501,0.017-25.561c-0.009-0.009-0.009-0.009-0.017-0.017
	l0,0c-7.051-7.059-18.501-7.068-25.561-0.017C217.639,234.455,217.63,234.455,217.63,234.463z"/>
<rect x="68.46" y="221.675" style="fill:#3582BD;" width="17.052" height="93.785"/>
<path style="fill:#616569;" d="M84.455,503.031h20.803l-19.78-28.306v-99.583H68.426v102.311c-0.034,1.748,0.512,3.453,1.535,4.86
	L84.455,503.031z"/>
<circle style="fill:#5C3724;" cx="94.038" cy="153.467" r="8.526"/>
<g>
	<rect x="213.401" y="110.837" style="fill:#87CED9;" width="119.363" height="51.156"/>
	<rect x="315.713" y="272.83" style="fill:#87CED9;" width="119.363" height="51.156"/>
</g>
<circle cx="94.038" cy="153.467" r="8.526"/>
<path d="M25.796,511.557H145.16c3.146-0.009,6.028-1.748,7.503-4.519c1.39-2.711,1.228-5.968-0.426-8.526l-15.602-23.617v-91.228
	h127.889v63.348l-81.082,48.683c-4.289,1.935-6.198,6.991-4.254,11.28c1.935,4.289,6.991,6.198,11.28,4.254
	c0.529-0.239,1.032-0.529,1.501-0.878l81.082-48.513l80.911,48.513c1.313,0.784,2.822,1.194,4.348,1.194
	c4.706,0,8.526-3.82,8.526-8.526c0-3.01-1.586-5.798-4.178-7.332l-81.082-48.683v-63.339h213.149v-17.052h-17.052V51.156h8.526
	c4.706,0,8.526-3.82,8.526-8.526V8.526c0-4.706-3.82-8.526-8.526-8.526H59.9c-4.706,0-8.526,3.82-8.526,8.526V42.63
	c0,4.706,3.82,8.526,8.526,8.526h8.526v34.104H59.9c-18.834,0-34.104,15.27-34.104,34.104v59.682
	c0.077,14.46,6.275,28.212,17.052,37.855c-15.475,6.753-25.501,21.997-25.578,38.878v247.252
	C17.27,507.737,21.082,511.557,25.796,511.557z M460.62,366.616H136.634v-34.104h93.785c4.706,0,8.526-3.82,8.526-8.526v-47.66
	l10.316-10.231c9.745-9.762,10.376-25.373,1.449-35.894h116.123v34.104h-51.156c-4.706,0-8.526,3.82-8.526,8.526v51.156
	c0,4.706,3.82,8.526,8.526,8.526h119.363c4.706,0,8.526-3.82,8.526-8.526V272.83c0-4.706-3.82-8.526-8.526-8.526h-51.156v-42.63
	c0-4.706-3.82-8.526-8.526-8.526h-93.785v-42.63h51.156c4.706,0,8.526-3.82,8.526-8.526v-51.156c0-4.706-3.82-8.526-8.526-8.526
	H213.367c-4.706,0-8.526,3.82-8.526,8.526v51.156c0,4.706,3.82,8.526,8.526,8.526h51.156v42.63h-93.785
	c-4.706,0-8.526,3.82-8.526,8.526v22.082l-13.13-13.13c-9.327-9.413-21.545-15.423-34.701-17.052
	c6.753-7.239,11.28-16.268,13.045-26.004h9.208c2.686,0,5.209-1.262,6.821-3.41c1.586-2.123,2.089-4.868,1.364-7.418l-15.602-54.651
	c7.742-7.025,13.283-16.148,15.944-26.26c0.648-2.549,0.077-5.252-1.535-7.332c-1.68-2.131-4.28-3.334-6.991-3.24H85.478V51.156
	H460.62V366.616z M136.634,315.46v-22.082l10.998,11.084c5.295,5.141,11.766,8.918,18.842,10.998H136.634z M192.052,315.46
	c7.077-2.08,13.548-5.857,18.842-10.998l10.998-11.084v22.082H192.052z M426.516,281.356v34.104H324.204v-34.104H426.516z
	 M221.893,153.467v-34.104h102.311v34.104H221.893z M209.872,230.201l-30.608,30.608v-30.608H209.872z M68.426,17.052h409.245
	v17.052H68.426C68.426,34.104,68.426,17.052,68.426,17.052z M42.848,119.363c0-9.421,7.631-17.052,17.052-17.052h63.945
	c-6.676,10.606-18.331,17.043-30.864,17.052H59.9c-2.686,0-5.209,1.262-6.821,3.41l-10.231,13.642V119.363z M42.848,164.807
	l21.315-28.391h28.818c7.349-0.043,14.605-1.611,21.315-4.604l10.998,38.708h-5.712c-4.706,0-8.526,3.82-8.526,8.526
	c0,18.834-15.27,34.104-34.104,34.104s-34.104-15.27-34.104-34.104V164.807z M34.322,255.778c0-14.127,11.45-25.578,25.578-25.578
	h8.526v85.259h17.052v-85.259h21.4c11.314-0.017,22.167,4.459,30.182,12.448l36.15,36.235c3.317,3.342,8.714,3.368,12.056,0.051
	c0.017-0.017,0.034-0.034,0.051-0.051l38.367-38.367c3.462-3.982,9.489-4.408,13.471-0.946s4.408,9.489,0.946,13.471
	c-0.29,0.341-0.614,0.656-0.946,0.946l-38.367,38.367c-10.896,10.504-28.153,10.504-39.049,0l-25.578-25.578
	c-2.455-2.421-6.122-3.129-9.293-1.79c-3.18,1.304-5.269,4.399-5.286,7.844v59.682H34.322V255.778z M34.322,349.564h85.259v127.889
	c0.017,1.671,0.52,3.3,1.449,4.689l8.526,12.363H98.608l-13.13-19.61v-99.754H68.426v102.311c0.017,1.671,0.52,3.3,1.449,4.689
	l8.526,12.363H34.322V349.564z"/>
<rect x="204.875" y="68.208" width="85.259" height="17.052"/>
<rect x="307.187" y="68.208" width="34.104" height="17.052"/>
<g>
</g>
<g>
</g>
<g>
</g>
<g>
</g>
<g>
</g>
<g>
</g>
<g>
</g>
<g>
</g>
<g>
</g>
<g>
</g>
<g>
</g>
<g>
</g>
<g>
</g>
<g>
</g>
<g>
</g>
</svg>
