<?xml version="1.0" encoding="iso-8859-1"?>
<!-- Generator: Adobe Illustrator 19.0.0, SVG Export Plug-In . SVG Version: 6.00 Build 0)  -->
<svg version="1.1" id="Capa_1" xmlns="http://www.w3.org/2000/svg" xmlns:xlink="http://www.w3.org/1999/xlink" x="0px" y="0px"
	 viewBox="0 0 512 512" style="enable-background:new 0 0 512 512;" xml:space="preserve">
<rect x="60.255" y="180.085" style="fill:#88B337;" width="391.489" height="323.404"/>
<rect x="60.255" y="367.319" style="fill:#6B962A;" width="391.489" height="136.17"/>
<polygon style="fill:#638724;" points="119.83,503.489 451.745,503.489 451.745,367.319 366.638,367.319 "/>
<g>
	<rect x="60.255" y="392.851" style="fill:#587820;" width="391.489" height="17.021"/>
	<rect x="60.255" y="426.894" style="fill:#587820;" width="391.489" height="17.021"/>
	<rect x="60.255" y="460.936" style="fill:#587820;" width="391.489" height="17.021"/>
</g>
<g>
	<path style="fill:#FDB62F;" d="M230.468,77.957L230.468,77.957c-2.894-17.464-16.579-31.149-34.043-34.043l0,0
		c17.464-2.894,31.149-16.579,34.043-34.043l0,0c2.894,17.464,16.579,31.149,34.043,34.043l0,0
		C247.047,46.809,233.362,60.494,230.468,77.957z"/>
	<polygon style="fill:#FDB62F;" points="111.319,77.957 94.298,77.957 94.298,103.489 68.766,103.489 68.766,120.511 
		94.298,120.511 94.298,146.043 111.319,146.043 111.319,120.511 136.851,120.511 136.851,103.489 111.319,103.489 	"/>
	<polygon style="fill:#FDB62F;" points="460.255,69.447 434.723,69.447 434.723,43.915 417.702,43.915 417.702,69.447 
		392.17,69.447 392.17,86.468 417.702,86.468 417.702,112 434.723,112 434.723,86.468 460.255,86.468 	"/>
</g>
<rect x="60.255" y="180.085" style="fill:#88B337;" width="195.745" height="187.234"/>
<rect x="256" y="180.085" style="fill:#6B962A;" width="195.745" height="187.234"/>
<g>
	<path style="fill:#D9D9D9;" d="M111.319,180.085L111.319,180.085c0,28.204-22.86,51.064-51.064,51.064l0,0v-51.064H111.319z"/>
	<path style="fill:#D9D9D9;" d="M111.319,367.319L111.319,367.319c0-28.204-22.86-51.064-51.064-51.064l0,0v51.064H111.319z"/>
	<rect x="119.83" y="265.191" style="fill:#D9D9D9;" width="34.043" height="17.021"/>
</g>
<path style="fill:#88B337;" d="M400.681,333.277c0,18.8-15.243,34.043-34.043,34.043h-85.106V180.085h85.106
	c18.8,0,34.043-15.243,34.043-34.043V333.277z"/>
<path style="fill:#86B53F;" d="M358.128,112v187.234h8.511c18.8,0,34.043,15.243,34.043,34.043V146.043
	c0-18.8-15.243-34.043-34.043-34.043H358.128z"/>
<circle style="fill:#D9D9D9;" cx="256" cy="273.702" r="68.085"/>
<rect x="221.957" y="180.085" style="fill:#FDB62F;" width="68.085" height="323.404"/>
<rect x="221.957" y="367.319" style="fill:#F5AB20;" width="68.085" height="136.17"/>
<path d="M60.255,512h391.489c4.698,0,8.511-3.813,8.511-8.511V180.085c0-4.698-3.813-8.511-8.511-8.511h-42.553v-25.532
	c0-23.498-19.055-42.553-42.553-42.553h-8.511c-4.698,0-8.511,3.813-8.511,8.511v59.574H60.255c-4.698,0-8.511,3.813-8.511,8.511
	v323.404C51.745,508.187,55.557,512,60.255,512z M213.447,315.319c-22.596-23.14-22.596-60.094,0-83.234V315.319z M409.191,333.277
	V188.596h34.043v170.213h-42.553C406.247,351.464,409.243,342.494,409.191,333.277z M366.638,120.511
	c14.102,0,25.532,11.43,25.532,25.532v153.191c-7.362-5.523-16.323-8.511-25.532-8.511V120.511z M298.553,232.085
	c22.647,23.157,22.647,60.162,0,83.319V232.085z M298.553,337.277c35.089-23.634,44.374-71.226,20.749-106.315
	c-5.515-8.187-12.562-15.234-20.749-20.749v-21.617h51.064v110.638c0,4.698,3.813,8.511,8.511,8.511h8.511
	c14.102,0,25.532,11.43,25.532,25.532s-11.43,25.532-25.532,25.532h-68.085V337.277z M298.553,375.83h144.681v17.021H298.553V375.83
	z M298.553,409.872h144.681v17.021H298.553V409.872z M298.553,443.915h144.681v17.021H298.553V443.915z M298.553,477.957h144.681
	v17.021H298.553V477.957z M230.468,477.957V188.596h51.064v306.383h-51.064L230.468,477.957L230.468,477.957z M68.766,188.596
	h33.191c-3.413,16.715-16.477,29.779-33.191,33.191V188.596z M68.766,238.979c26.094-3.796,46.587-24.289,50.383-50.383h94.298
	v21.617c-35.064,23.668-44.306,71.277-20.638,106.34c5.489,8.136,12.502,15.149,20.638,20.638v21.617H119.83
	c-0.034-29.591-21.779-54.664-51.064-58.894V238.979z M68.766,317.106c19.813,4.043,34.043,21.481,34.043,41.702H68.766V317.106z
	 M68.766,375.83h144.681v17.021H68.766V375.83z M68.766,409.872h144.681v17.021H68.766V409.872z M68.766,443.915h144.681v17.021
	H68.766V443.915z M68.766,477.957h144.681v17.021H68.766V477.957z"/>
<path d="M238.979,8.511c0-4.698-3.813-8.511-8.511-8.511s-8.511,3.813-8.511,8.511c-2.357,13.762-13.132,24.536-26.894,26.894
	c-4.698,0-8.511,3.813-8.511,8.511s3.813,8.511,8.511,8.511c13.762,2.357,24.536,13.132,26.894,26.894
	c0,4.698,3.813,8.511,8.511,8.511s8.511-3.813,8.511-8.511c2.357-13.762,13.132-24.536,26.894-26.894
	c4.698,0,8.511-3.813,8.511-8.511s-3.813-8.511-8.511-8.511C252.111,33.047,241.336,22.272,238.979,8.511z M230.468,56.085
	c-3.302-4.749-7.421-8.868-12.17-12.17c4.749-3.302,8.868-7.421,12.17-12.17c3.302,4.749,7.421,8.868,12.17,12.17
	C237.889,47.217,233.77,51.336,230.468,56.085z"/>
<polygon points="111.319,146.043 111.319,120.511 136.851,120.511 136.851,103.489 111.319,103.489 111.319,77.957 94.298,77.957 
	94.298,103.489 68.766,103.489 68.766,120.511 94.298,120.511 94.298,146.043 "/>
<polygon points="434.723,112 434.723,86.468 460.255,86.468 460.255,69.447 434.723,69.447 434.723,43.915 417.702,43.915 
	417.702,69.447 392.17,69.447 392.17,86.468 417.702,86.468 417.702,112 "/>
<rect x="119.83" y="265.191" width="34.043" height="17.021"/>
<g>
</g>
<g>
</g>
<g>
</g>
<g>
</g>
<g>
</g>
<g>
</g>
<g>
</g>
<g>
</g>
<g>
</g>
<g>
</g>
<g>
</g>
<g>
</g>
<g>
</g>
<g>
</g>
<g>
</g>
</svg>
