<?xml version="1.0" encoding="iso-8859-1"?>
<!-- Generator: Adobe Illustrator 19.0.0, SVG Export Plug-In . SVG Version: 6.00 Build 0)  -->
<svg version="1.1" id="Capa_1" xmlns="http://www.w3.org/2000/svg" xmlns:xlink="http://www.w3.org/1999/xlink" x="0px" y="0px"
	 viewBox="0 0 512 512" style="enable-background:new 0 0 512 512;" xml:space="preserve">
<g>
	<rect x="477.867" y="409.6" style="fill:#DBDBDB;" width="17.067" height="59.733"/>
	<rect x="477.867" y="486.4" style="fill:#DBDBDB;" width="17.067" height="25.6"/>
	<rect x="17.067" y="34.133" style="fill:#DBDBDB;" width="17.067" height="93.867"/>
	<rect x="17.067" style="fill:#DBDBDB;" width="17.067" height="17.067"/>
	
		<rect x="28.83" y="388.277" transform="matrix(-0.7071 0.7071 -0.7071 -0.7071 360.6856 644.22)" style="fill:#DBDBDB;" width="36.181" height="17.067"/>
	<rect x="119.467" y="409.6" style="fill:#DBDBDB;" width="17.067" height="34.133"/>
	
		<rect x="66.236" y="409.677" transform="matrix(-0.4473 0.8944 -0.8944 -0.4473 497.5088 528.9748)" style="fill:#DBDBDB;" width="38.145" height="17.067"/>
	
		<rect x="446.977" y="106.668" transform="matrix(-0.7071 0.7071 -0.7071 -0.7071 875.3797 -132.1908)" style="fill:#DBDBDB;" width="36.181" height="17.067"/>
	<rect x="375.467" y="68.267" style="fill:#DBDBDB;" width="17.067" height="34.133"/>
	
		<rect x="407.63" y="85.42" transform="matrix(-0.4473 0.8944 -0.8944 -0.4473 701.5939 -245.6583)" style="fill:#DBDBDB;" width="38.145" height="17.067"/>
</g>
<path style="fill:#F7BB8F;" d="M68.267,324.267v8.533c0,18.85,15.283,34.133,34.133,34.133h59.733
	c18.85,0,34.133-15.283,34.133-34.133V153.6h-128V324.267z"/>
<rect x="59.733" style="fill:#4398D1;" width="145.067" height="119.467"/>
<rect x="145.067" style="fill:#3E8CC7;" width="59.733" height="119.467"/>
<rect x="68.267" y="119.467" style="fill:#DBDBDB;" width="128" height="34.133"/>
<rect x="145.067" y="119.467" style="fill:#D1D1D1;" width="51.2" height="34.133"/>
<rect x="162.133" y="76.8" style="fill:#D9D9D9;" width="17.067" height="17.067"/>
<path style="fill:#88B337;" d="M34.133,264.533v76.8l0,0c16.683-11.102,36.275-17.041,56.32-17.067h92.075
	c20.07-0.009,39.697-5.948,56.405-17.067l0,0V204.8l0,0c-16.708,11.119-36.335,17.058-56.405,17.067H76.8
	C53.239,221.867,34.133,240.973,34.133,264.533z"/>
<path style="fill:#FEC9A3;" d="M145.067,187.733L145.067,187.733c-16.119,21.487-41.404,34.133-68.267,34.133l0,0l-22.955,27.563
	c-11.179,13.5-30.763,16.341-45.312,6.571l0,0l59.733-102.4h102.4L145.067,187.733z"/>
<path style="fill:#6B962A;" d="M85.333,324.267h5.291h91.904c20.07-0.009,39.697-5.948,56.405-17.067l0,0V204.8
	c-15.232,10.163-32.913,16.06-51.2,17.067L85.333,324.267z"/>
<circle style="fill:#D9D9D9;" cx="136.533" cy="273.067" r="25.6"/>
<path style="fill:#F7BB8F;" d="M443.733,187.733V179.2c0-18.85-15.283-34.133-34.133-34.133h-59.733
	c-18.85,0-34.133,15.283-34.133,34.133v179.2h128V187.733z"/>
<rect x="307.2" y="392.533" style="fill:#4398D1;" width="145.067" height="119.467"/>
<rect x="392.533" y="392.533" style="fill:#3E8CC7;" width="59.733" height="119.467"/>
<rect x="315.733" y="358.4" style="fill:#DBDBDB;" width="128" height="34.133"/>
<rect x="332.8" y="418.133" style="fill:#D9D9D9;" width="17.067" height="17.067"/>
<path style="fill:#88B337;" d="M477.867,247.467v-76.8l0,0c-16.683,11.102-36.275,17.041-56.32,17.067h-92.075
	c-20.07,0.009-39.697,5.948-56.405,17.067l0,0v102.4l0,0c16.708-11.119,36.335-17.058,56.405-17.067H435.2
	C458.761,290.133,477.867,271.027,477.867,247.467z"/>
<path style="fill:#6B962A;" d="M324.267,290.133h5.376h92.075c19.985-0.043,39.518-5.982,56.149-17.067l0,0v-102.4
	c-15.215,10.197-32.905,16.094-51.2,17.067L324.267,290.133z"/>
<circle style="fill:#D9D9D9;" cx="375.467" cy="238.933" r="25.6"/>
<path style="fill:#FEC9A3;" d="M366.933,324.267L366.933,324.267c16.119-21.487,41.404-34.133,68.267-34.133l0,0l22.955-27.563
	c11.179-13.5,30.763-16.341,45.312-6.571l0,0l-59.733,102.4h-102.4L366.933,324.267z"/>
<rect x="392.533" y="358.4" style="fill:#D1D1D1;" width="59.733" height="34.133"/>
<rect x="477.867" y="409.6" width="17.067" height="59.733"/>
<rect x="477.867" y="486.4" width="17.067" height="25.6"/>
<path d="M136.533,238.933c-18.85,0-34.133,15.283-34.133,34.133s15.283,34.133,34.133,34.133s34.133-15.283,34.133-34.133
	S155.383,238.933,136.533,238.933z M136.533,290.133c-9.429,0-17.067-7.637-17.067-17.067S127.104,256,136.533,256
	s17.067,7.637,17.067,17.067S145.963,290.133,136.533,290.133z"/>
<path d="M3.84,263.083c6.46,4.326,13.995,6.784,21.76,7.083v71.168c0.009,3.149,1.749,6.033,4.523,7.509
	c2.714,1.391,5.973,1.229,8.533-0.427c6.716-4.412,13.969-7.936,21.589-10.496c2.577,21.35,20.651,37.444,42.155,37.547h59.733
	c23.561,0,42.667-19.106,42.667-42.667v-2.304c13.875-2.825,27.068-8.329,38.827-16.213c2.381-1.57,3.823-4.224,3.84-7.083V204.8
	c-0.009-3.149-1.749-6.033-4.523-7.509c-2.714-1.391-5.973-1.229-8.533,0.427c-9.045,5.982-19.063,10.342-29.611,12.885V128
	c4.71,0,8.533-3.823,8.533-8.533V0h-17.067v110.933h-128V0H51.2v119.467c0,4.71,3.823,8.533,8.533,8.533v23.296L1.195,251.733
	C-1.05,255.625,0.111,260.582,3.84,263.083z M187.733,332.8c0,14.14-11.46,25.6-25.6,25.6H102.4
	c-13.747,0.009-25.054-10.837-25.6-24.576c4.523-0.683,9.079-1.024,13.653-1.024h92.075H187.733z M230.4,219.477v83.029
	c-14.447,8.695-31.01,13.269-47.872,13.227H90.453c-16.546-0.009-32.887,3.729-47.787,10.923V267.52
	c6.895-2.637,13.005-6.98,17.749-12.629L80.811,230.4h101.717C199.108,230.417,215.467,226.679,230.4,219.477z M76.8,128h110.933
	v17.067H76.8V128z M73.131,162.133h114.603v51.2h-5.205H130.56c8.175-5.623,15.377-12.544,21.333-20.48l-13.653-10.24
	c-14.549,19.285-37.282,30.652-61.44,30.72c-2.534,0-4.949,1.118-6.571,3.072l-22.955,27.563
	c-6.417,7.902-16.905,11.247-26.709,8.533L73.131,162.133z"/>
<rect x="17.067" y="34.133" width="17.067" height="93.867"/>
<rect x="17.067" width="17.067" height="17.067"/>
<rect x="28.83" y="388.277" transform="matrix(-0.7071 0.7071 -0.7071 -0.7071 360.6856 644.22)" width="36.181" height="17.067"/>
<rect x="119.467" y="409.6" width="17.067" height="34.133"/>
<rect x="66.236" y="409.677" transform="matrix(-0.4473 0.8944 -0.8944 -0.4473 497.5088 528.9748)" width="38.145" height="17.067"/>
<path d="M264.533,204.8v102.4c0.009,3.149,1.749,6.033,4.523,7.509c2.714,1.391,5.973,1.229,8.533-0.427
	c9.045-5.982,19.063-10.342,29.611-12.885V384c-4.71,0-8.533,3.823-8.533,8.533V512h17.067V401.067h128V512H460.8V392.533
	c0-4.71-3.823-8.533-8.533-8.533v-23.296l58.539-100.437c2.244-3.891,1.084-8.849-2.645-11.349
	c-6.451-4.361-13.986-6.835-21.76-7.168v-71.083c-0.009-3.149-1.749-6.033-4.523-7.509c-2.714-1.391-5.973-1.229-8.533,0.427
	c-6.665,4.395-13.858,7.919-21.419,10.496c-2.586-21.419-20.753-37.53-42.325-37.547h-59.733c-23.561,0-42.667,19.106-42.667,42.667
	v2.304c-13.875,2.825-27.068,8.329-38.827,16.213C265.993,199.287,264.55,201.941,264.533,204.8z M435.2,384H324.267v-17.067H435.2
	V384z M491.435,259.755l-52.565,90.112H324.267v-51.2h5.205h51.968c-8.175,5.623-15.377,12.544-21.333,20.48l13.653,10.24
	c14.549-19.285,37.282-30.652,61.44-30.72c2.534,0,4.949-1.118,6.571-3.072l22.955-27.563
	C471.202,260.224,481.681,256.981,491.435,259.755z M324.267,179.2c0-14.14,11.46-25.6,25.6-25.6H409.6
	c13.747-0.009,25.054,10.837,25.6,24.576c-4.523,0.683-9.079,1.024-13.653,1.024h-92.075H324.267z M281.6,209.493
	c14.447-8.695,31.01-13.269,47.872-13.227h92.075c16.546,0.009,32.887-3.729,47.787-10.923v59.221
	c-6.903,2.577-13.013,6.903-17.749,12.544L431.189,281.6H329.472c-16.58-0.017-32.939,3.721-47.872,10.923V209.493z"/>
<path d="M375.467,273.067c18.85,0,34.133-15.283,34.133-34.133S394.317,204.8,375.467,204.8s-34.133,15.283-34.133,34.133
	S356.617,273.067,375.467,273.067z M375.467,221.867c9.429,0,17.067,7.637,17.067,17.067c0,9.429-7.637,17.067-17.067,17.067
	c-9.429,0-17.067-7.637-17.067-17.067C358.4,229.504,366.037,221.867,375.467,221.867z"/>
<rect x="446.977" y="106.668" transform="matrix(-0.7071 0.7071 -0.7071 -0.7071 875.3797 -132.1908)" width="36.181" height="17.067"/>
<rect x="375.467" y="68.267" width="17.067" height="34.133"/>
<rect x="407.63" y="85.42" transform="matrix(-0.4473 0.8944 -0.8944 -0.4473 701.5939 -245.6583)" width="38.145" height="17.067"/>
<rect x="332.8" y="418.133" width="17.067" height="17.067"/>
<rect x="162.133" y="76.8" width="17.067" height="17.067"/>
<g>
</g>
<g>
</g>
<g>
</g>
<g>
</g>
<g>
</g>
<g>
</g>
<g>
</g>
<g>
</g>
<g>
</g>
<g>
</g>
<g>
</g>
<g>
</g>
<g>
</g>
<g>
</g>
<g>
</g>
</svg>
