<?xml version="1.0" encoding="iso-8859-1"?>
<!-- Generator: Adobe Illustrator 19.0.0, SVG Export Plug-In . SVG Version: 6.00 Build 0)  -->
<svg version="1.1" id="Capa_1" xmlns="http://www.w3.org/2000/svg" xmlns:xlink="http://www.w3.org/1999/xlink" x="0px" y="0px"
	 viewBox="0 0 512.001 512.001" style="enable-background:new 0 0 512.001 512.001;" xml:space="preserve">
<path style="fill:#F2BB80;" d="M136.577,153.517l17.044,59.654h-17.044c0,23.529-19.081,42.61-42.61,42.61l0,0
	c-23.529,0-42.61-19.081-42.61-42.61v-59.654c0-14.121,11.445-25.566,25.566-25.566h34.088
	C125.132,127.951,136.577,139.396,136.577,153.517z"/>
<path style="fill:#4398D1;" d="M332.583,8.644H179.187c-14.121,0-25.566,11.445-25.566,25.566v51.132
	c0,14.121,11.445,25.566,25.566,25.566l0,0v25.566l42.61-25.566h110.786c14.121,0,25.566-11.445,25.566-25.566V34.21
	C358.149,20.089,346.704,8.644,332.583,8.644z"/>
<path style="fill:#87CED9;" d="M468.934,366.567H366.671v-76.698c0-18.825,15.263-34.088,34.088-34.088h34.088
	c18.825,0,34.088,15.263,34.088,34.088V366.567z"/>
<path style="fill:#4398D1;" d="M42.836,366.567h102.264v-76.698c0-18.825-15.263-34.088-34.088-34.088H76.924
	c-18.825,0-34.088,15.263-34.088,34.088C42.836,289.869,42.836,366.567,42.836,366.567z"/>
<circle style="fill:#6B402A;" cx="102.524" cy="187.571" r="8.522"/>
<path style="fill:#126099;" d="M42.836,366.567L42.836,366.567c0,23.529,19.081,42.61,42.61,42.61h59.654V511.44h59.654
	l-17.044-25.566v-85.22c0-18.825-15.263-34.088-34.088-34.088H42.836z"/>
<path style="fill:#D1D1D1;" d="M113.739,494.822l-45.337-15.084v-36.474H51.358v36.474L6.021,494.822
	c-4.585,1.508-7.09,6.451-5.582,11.036c1.508,4.585,6.451,7.09,11.036,5.582l48.405-16.618l48.405,16.618
	c0.903,0.119,1.824,0.119,2.727,0c3.664,0.009,6.92-2.327,8.096-5.795c1.517-4.457-0.869-9.297-5.326-10.806
	C113.773,494.831,113.756,494.831,113.739,494.822z"/>
<rect x="85.48" y="255.747" style="fill:#126099;" width="17.044" height="85.22"/>
<path style="fill:#6B402A;" d="M111.012,162.039H76.924l-25.566,34.088v-42.61c0-14.121,11.445-25.566,25.566-25.566h68.176
	C145.099,146.776,129.845,162.039,111.012,162.039z"/>
<path style="fill:#F2BB80;" d="M375.193,153.517l-17.044,59.654h17.044c0,23.529,19.081,42.61,42.61,42.61l0,0
	c23.529,0,42.61-19.081,42.61-42.61v-59.654H375.193z"/>
<path style="fill:#6B402A;" d="M460.412,153.517L460.412,153.517c0-14.121-11.445-25.566-25.566-25.566h-63.915
	c-7.056,0-12.783,5.727-12.783,12.783c0,7.056,5.727,12.783,12.783,12.783h55.393l34.088,42.61V153.517z"/>
<g>
	<rect x="179.221" y="34.176" style="fill:#3582BD;" width="153.395" height="17.044"/>
	<rect x="179.221" y="68.263" style="fill:#3582BD;" width="34.088" height="17.044"/>
	<rect x="230.353" y="68.263" style="fill:#3582BD;" width="102.264" height="17.044"/>
</g>
<path style="fill:#87CED9;" d="M307.017,110.907c14.121,0,25.566,11.445,25.566,25.566v17.044c0,14.121-11.445,25.566-25.566,25.566
	h-17.044v25.566l-42.61-25.566h-25.566c-14.121,0-25.566-11.445-25.566-25.566v-17.044c0-14.121,11.445-25.566,25.566-25.566
	H307.017z"/>
<rect x="145.133" y="323.923" style="fill:#6B402A;" width="221.571" height="25.566"/>
<path style="fill:#D1D1D1;" d="M505.749,494.822l-45.337-15.084v-36.474h-17.044v36.474l-45.337,15.084
	c-4.474,1.508-6.877,6.349-5.369,10.823c1.508,4.474,6.349,6.877,10.823,5.369l48.405-16.192l48.405,16.618
	c0.903,0.119,1.824,0.119,2.727,0c3.818,0.196,7.303-2.173,8.522-5.795c1.449-4.483-1.006-9.28-5.488-10.729
	C505.962,494.882,505.86,494.856,505.749,494.822z"/>
<rect x="409.315" y="255.747" style="fill:#4398D1;" width="17.044" height="85.22"/>
<g>
	<path style="fill:#6B402A;" d="M42.836,409.176h51.132c9.417,0,17.044,7.627,17.044,17.044l0,0c0,9.417-7.627,17.044-17.044,17.044
		H34.314c-14.121,0-25.566-11.445-25.566-25.566V298.391c0-9.417,7.627-17.044,17.044-17.044l0,0
		c9.417,0,17.044,7.627,17.044,17.044V409.176z"/>
	<path style="fill:#6B402A;" d="M468.934,409.176h-51.132c-9.417,0-17.044,7.627-17.044,17.044l0,0
		c0,9.417,7.627,17.044,17.044,17.044h59.654c14.121,0,25.566-11.445,25.566-25.566V298.391c0-9.417-7.627-17.044-17.044-17.044l0,0
		c-9.417,0-17.044,7.627-17.044,17.044V409.176z"/>
</g>
<path style="fill:#D1D1D1;" d="M221.797,323.957h-76.698v-17.044h70.818l23.435-62.636l16.021,5.965l-25.566,68.176
	C228.564,321.758,225.368,323.974,221.797,323.957z"/>
<path style="fill:#126099;" d="M468.934,366.567L468.934,366.567c0,23.529-19.081,42.61-42.61,42.61h-59.654V511.44h-59.654
	l17.044-25.566v-85.22c0-18.825,15.263-34.088,34.088-34.088H468.934z"/>
<polygon style="fill:#D1D1D1;" points="264.407,494.396 264.407,349.523 247.363,349.523 247.363,494.396 204.753,494.396 
	204.753,511.44 307.017,511.44 307.017,494.396 "/>
<g>
	<rect x="221.831" y="136.439" style="fill:#539FBD;" width="51.132" height="17.044"/>
	<rect x="290.007" y="136.439" style="fill:#539FBD;" width="17.044" height="17.044"/>
</g>
<circle style="fill:#6B402A;" cx="400.793" cy="187.571" r="8.522"/>
<circle cx="102.524" cy="187.571" r="8.522"/>
<circle cx="400.793" cy="187.571" r="8.522"/>
<rect x="179.221" y="34.176" width="153.395" height="17.044"/>
<rect x="179.221" y="68.263" width="34.088" height="17.044"/>
<rect x="230.353" y="68.263" width="102.264" height="17.044"/>
<path d="M366.671,85.342V34.21c0-18.825-15.263-34.088-34.088-34.088H179.187c-18.825,0-34.088,15.263-34.088,34.088v51.132
	c0.009,15.536,10.525,29.094,25.566,32.98v18.152c0.009,3.076,1.67,5.906,4.346,7.414c1.27,0.724,2.71,1.099,4.176,1.108
	c1.525,0,3.034-0.409,4.346-1.193l4.176-2.471v12.186c0,18.825,15.263,34.088,34.088,34.088h23.18l40.65,24.373
	c1.312,0.784,2.821,1.193,4.346,1.193c1.466-0.009,2.906-0.383,4.176-1.108c2.676-1.508,4.338-4.338,4.346-7.414v-17.044h8.522
	c18.825,0,34.088-15.263,34.088-34.088v-17.044c-0.085-6.025-1.798-11.905-4.943-17.044
	C353.581,117.589,366.773,102.854,366.671,85.342z M324.061,153.517c0,9.417-7.627,17.044-17.044,17.044h-17.044
	c-4.704,0-8.522,3.818-8.522,8.522v10.482l-29.742-17.811c-1.312-0.784-2.821-1.193-4.346-1.193h-25.566
	c-9.417,0-17.044-7.627-17.044-17.044v-22.413l19.43-11.675h82.834c9.417,0,17.044,7.627,17.044,17.044V153.517z M349.627,85.342
	c0,9.417-7.627,17.044-17.044,17.044H221.797c-1.525,0-3.034,0.409-4.346,1.193l-29.742,17.811v-10.482
	c0-4.704-3.818-8.522-8.522-8.522c-9.417,0-17.044-7.627-17.044-17.044V34.21c0-9.417,7.627-17.044,17.044-17.044h153.395
	c9.417,0,17.044,7.627,17.044,17.044V85.342z"/>
<rect x="221.831" y="136.439" width="51.132" height="17.044"/>
<rect x="290.007" y="136.439" width="17.044" height="17.044"/>
<path d="M485.978,272.825c-3.886,0.026-7.704,0.954-11.164,2.727c-3.963-10.976-12.246-19.848-22.924-24.543
	c10.772-9.638,16.967-23.384,17.044-37.838v-42.61c0-28.242-22.89-51.132-51.132-51.132h-46.871
	c-11.769,0.026-21.279,9.587-21.254,21.356c0.017,9.136,5.863,17.24,14.521,20.146l-14.573,49.939
	c-0.724,2.548-0.222,5.292,1.363,7.414c1.611,2.148,4.133,3.409,6.818,3.409h9.204c2.062,11.368,7.96,21.68,16.703,29.23
	c-15.493,6.758-25.523,22.038-25.566,38.945v17.044h-124.08l21.305-56.671l-16.021-5.965l-23.435,62.636h-62.296v-17.044
	c-0.043-16.908-10.073-32.187-25.566-38.945c8.616-7.602,14.394-17.913,16.362-29.23h9.204c2.684,0,5.207-1.261,6.818-3.409
	c1.585-2.122,2.088-4.866,1.364-7.414l-16.703-57.864c5.463-7.218,8.445-16.004,8.522-25.055c0-4.704-3.818-8.522-8.522-8.522
	H76.924c-18.825,0-34.088,15.263-34.088,34.088v59.654c0.077,14.453,6.272,28.199,17.044,37.838
	c-10.618,4.738-18.834,13.601-22.754,24.543c-3.511-1.798-7.397-2.736-11.334-2.727c-14.121,0-25.566,11.445-25.566,25.566v119.308
	c0,18.825,15.263,34.088,34.088,34.088h17.044v27.952L6.021,494.822c-4.585,1.508-7.09,6.451-5.582,11.036
	c1.508,4.585,6.451,7.09,11.036,5.582l48.405-16.618l48.405,16.618c0.903,0.119,1.824,0.119,2.727,0
	c3.664,0.009,6.92-2.327,8.096-5.795c1.517-4.457-0.869-9.297-5.326-10.806c-0.017-0.009-0.026-0.009-0.043-0.017l-45.337-15.084
	v-27.952h25.566c14.121-0.043,25.532-11.522,25.498-25.634c-0.009-2.88-0.503-5.735-1.466-8.454h18.578v85.22
	c0,4.704,3.818,8.522,8.522,8.522h221.571c4.704,0,8.522-3.818,8.522-8.522v-85.22h18.578c-4.704,13.311,2.267,27.918,15.578,32.622
	c2.719,0.963,5.573,1.457,8.454,1.466h25.566v27.952l-45.337,15.084c-4.474,1.508-6.877,6.349-5.369,10.823
	c1.508,4.474,6.349,6.877,10.823,5.369l48.405-16.192l48.405,16.618c0.903,0.119,1.824,0.119,2.727,0
	c3.818,0.196,7.303-2.173,8.522-5.795c1.517-4.457-0.869-9.297-5.326-10.806c-0.017-0.009-0.026-0.009-0.043-0.017l-45.763-15.084
	v-27.952h17.044c18.825,0,34.088-15.263,34.088-34.088V298.391C511.544,284.27,500.099,272.825,485.978,272.825z M450.697,162.039
	c0.75,2.778,1.15,5.642,1.193,8.522v1.619l-8.522-10.141H450.697z M366.671,140.734c0-2.352,1.909-4.261,4.261-4.261h46.871
	c8.224,0.051,16.158,3.076,22.328,8.522h-69.198C368.58,144.995,366.671,143.086,366.671,140.734z M375.193,204.649h-5.71
	l12.101-42.61h40.053l30.253,37.156v13.976c0,18.825-15.263,34.088-34.088,34.088c-18.825,0-34.088-15.263-34.088-34.088
	C383.715,208.467,379.905,204.649,375.193,204.649z M375.193,349.523v-59.654c0-14.121,11.445-25.566,25.566-25.566h8.522v76.698
	h17.044v-76.698h8.522c14.121,0,25.566,11.445,25.566,25.566v68.176h-85.22V349.523z M153.621,323.957h204.527v17.044H153.621
	L153.621,323.957L153.621,323.957z M59.88,153.517c0-9.417,7.627-17.044,17.044-17.044h58.205
	c-3.613,10.218-13.277,17.052-24.117,17.044H76.924c-2.684,0-5.207,1.261-6.818,3.409L59.88,170.561V153.517z M59.88,198.939
	l21.305-28.378h29.827c7.014-0.051,13.899-1.866,20.027-5.284l11.249,39.372h-5.71c-4.704,0-8.522,3.818-8.522,8.522
	c0,18.825-15.263,34.088-34.088,34.088S59.88,231.996,59.88,213.171C59.88,213.171,59.88,198.939,59.88,198.939z M51.358,315.435
	v-25.566c0-14.121,11.445-25.566,25.566-25.566h8.522v76.698h17.044v-76.698h8.522c14.121,0,25.566,11.445,25.566,25.566v68.176
	h-85.22C51.358,358.045,51.358,315.435,51.358,315.435z M93.968,434.742H34.314c-9.417,0-17.044-7.627-17.044-17.044V298.391
	c0-4.704,3.818-8.522,8.522-8.522s8.522,3.818,8.522,8.522v68.176c0.026,12.587,4.704,24.731,13.124,34.088h-4.602
	c-4.704,0-8.522,3.818-8.522,8.522c0,4.704,3.818,8.522,8.522,8.522h51.132c4.704,0,8.522,3.818,8.522,8.522
	C102.49,430.924,98.68,434.742,93.968,434.742z M153.621,494.396v-85.22c0-4.704-3.818-8.522-8.522-8.522H85.446
	c-15.536-0.009-29.094-10.525-32.98-25.566h101.156c14.121,0,25.566,11.445,25.566,25.566v76.698c0.017,1.67,0.52,3.298,1.449,4.687
	l8.522,12.357H153.621z M247.363,494.396h-38.008l-13.124-19.601v-74.141c0-23.529-19.081-42.61-42.61-42.61h93.742L247.363,494.396
	L247.363,494.396z M315.539,474.796l-13.124,19.601h-38.008V358.045h93.742c-23.529,0-42.61,19.081-42.61,42.61V474.796z
	 M366.671,400.654c-4.704,0-8.522,3.818-8.522,8.522v85.22h-35.196l8.522-12.357c0.81-1.423,1.193-3.051,1.108-4.687v-76.698
	c0-14.121,11.445-25.566,25.566-25.566h101.156c-3.886,15.041-17.444,25.557-32.98,25.566H366.671z M494.5,417.698
	c0,9.417-7.627,17.044-17.044,17.044h-59.654c-4.704,0-8.522-3.818-8.522-8.522c0-4.704,3.818-8.522,8.522-8.522h51.132
	c4.704,0,8.522-3.818,8.522-8.522c0-4.704-3.818-8.522-8.522-8.522h-4.602c8.42-9.357,13.098-21.501,13.124-34.088v-68.176
	c0-4.704,3.818-8.522,8.522-8.522c4.704,0,8.522,3.818,8.522,8.522V417.698z"/>
<g>
</g>
<g>
</g>
<g>
</g>
<g>
</g>
<g>
</g>
<g>
</g>
<g>
</g>
<g>
</g>
<g>
</g>
<g>
</g>
<g>
</g>
<g>
</g>
<g>
</g>
<g>
</g>
<g>
</g>
</svg>
