<?xml version="1.0" encoding="iso-8859-1"?>
<!-- Generator: Adobe Illustrator 19.0.0, SVG Export Plug-In . SVG Version: 6.00 Build 0)  -->
<svg version="1.1" id="Capa_1" xmlns="http://www.w3.org/2000/svg" xmlns:xlink="http://www.w3.org/1999/xlink" x="0px" y="0px"
	 viewBox="0 0 512 512" style="enable-background:new 0 0 512 512;" xml:space="preserve">
<circle style="fill:#4398D1;" cx="256" cy="256" r="247.467"/>
<path style="fill:#3E8CC7;" d="M372.139,37.461c64.162,120.678,18.347,270.515-102.323,334.677
	c-72.636,38.622-159.718,38.622-232.354,0c64.162,120.678,213.999,166.485,334.677,102.323s166.485-213.999,102.323-334.677
	C451.311,96.247,415.684,60.612,372.139,37.461z"/>
<g>
	<path style="fill:#88B337;" d="M281.6,76.8l63.232-51.797C298.18,7.066,247.185,3.669,198.571,15.275l48.896,27.392L281.6,76.8z"/>
	<path style="fill:#88B337;" d="M370.432,90.368l-80.299,80.299l42.667,51.2h68.267V358.4l60.245-37.632
		c5.001-3.123,8.03-8.61,8.021-14.507v-33.195c0-5.376,2.526-10.428,6.827-13.653l26.624-20.48
		c-3.866-57.532-27.785-111.881-67.584-153.6h-52.651C378.001,85.333,373.641,87.142,370.432,90.368z"/>
	<path style="fill:#88B337;" d="M76.8,426.667c41.079,43.238,96.435,70.127,155.819,75.691l-87.552-75.691H76.8z"/>
	<path style="fill:#88B337;" d="M170.667,256v128l51.2,42.667v-75.691c0.068-6.033,3.311-11.58,8.533-14.592l76.8-46.251
		l-93.867-102.4v-42.667H256l-37.547-52.565c-3.149-4.429-8.218-7.091-13.653-7.168h-128
		c-23.177,24.252-41.173,52.966-52.907,84.395L85.333,256H170.667z"/>
</g>
<path d="M256,0C114.611,0,0,114.611,0,256s114.611,256,256,256s256-114.611,256-256S397.389,0,256,0z M256,17.067
	c23.714-0.017,47.3,3.524,69.973,10.496l-43.947,37.632l-28.501-28.587c-0.666-0.614-1.408-1.135-2.219-1.536l-30.72-15.36
	C232.311,17.963,244.147,17.084,256,17.067z M80.725,93.867H204.8c2.773-0.017,5.385,1.323,6.997,3.584l27.648,39.083h-26.112
	c-4.71,0-8.533,3.823-8.533,8.533v42.667c-0.017,2.142,0.777,4.215,2.219,5.803l86.869,94.635l-68.267,40.875
	c-7.654,4.659-12.314,12.971-12.288,21.931v57.515L179.2,379.989V256c0-4.71-3.823-8.533-8.533-8.533H89.771l-55.637-79.701
	C44.988,140.476,60.783,115.43,80.725,93.867z M97.792,435.2h43.776l67.413,55.125c-41.122-8.329-79.326-27.341-110.763-55.125
	H97.792z M494.933,256c0,131.96-106.974,238.933-238.933,238.933c-4.949,0-9.813-0.171-14.592-0.512l-90.965-74.325
	c-1.51-1.254-3.413-1.946-5.376-1.963H80.725c-57.404-61.892-77.815-149.513-53.675-230.4l51.2,73.216
	c1.63,2.287,4.275,3.627,7.083,3.584h76.8V384c0,2.534,1.118,4.949,3.072,6.571l51.2,42.667c1.536,1.271,3.465,1.963,5.461,1.963
	c1.237,0.009,2.458-0.256,3.584-0.768c3.021-1.399,4.958-4.429,4.949-7.765v-75.691c0-3.012,1.587-5.803,4.181-7.339l76.8-46.165
	c2.227-1.323,3.738-3.584,4.096-6.144c0.375-2.534-0.41-5.103-2.133-6.997l-91.477-99.925V153.6H256
	c4.71-0.026,8.516-3.857,8.491-8.576c-0.009-1.758-0.563-3.473-1.579-4.907l-37.547-52.565c-4.745-6.665-12.39-10.658-20.565-10.752
	H98.219c27.494-24.141,60.16-41.66,95.488-51.2l48.725,24.32l33.109,33.195c1.655,1.502,3.823,2.304,6.059,2.219
	c2.031,0,4.002-0.725,5.547-2.048l57.344-49.152c25.37,10.155,48.802,24.585,69.291,42.667h-31.232
	c-6.784,0.009-13.295,2.705-18.091,7.509l-80.384,80.299c-3.132,3.123-3.354,8.132-0.512,11.52l42.667,51.2
	c1.621,1.954,4.036,3.072,6.571,3.072h59.733v128c-0.009,3.123,1.698,6.007,4.437,7.509c2.637,1.527,5.897,1.527,8.533,0
	l60.245-37.632c7.612-4.719,12.203-13.065,12.117-22.016v-33.195c0-2.688,1.263-5.214,3.413-6.827L494.933,256z M471.04,252.587
	c-6.443,4.838-10.24,12.425-10.24,20.48v33.195c0.009,2.953-1.51,5.692-4.011,7.253L409.6,343.04V221.867
	c0-4.71-3.823-8.533-8.533-8.533h-64.256l-35.157-42.155l74.837-74.837c1.638-1.562,3.797-2.441,6.059-2.475h48.725
	c36.07,38.861,58.146,88.653,62.72,141.483L471.04,252.587z"/>
<g>
</g>
<g>
</g>
<g>
</g>
<g>
</g>
<g>
</g>
<g>
</g>
<g>
</g>
<g>
</g>
<g>
</g>
<g>
</g>
<g>
</g>
<g>
</g>
<g>
</g>
<g>
</g>
<g>
</g>
</svg>
