<?xml version="1.0" encoding="iso-8859-1"?>
<!-- Generator: Adobe Illustrator 19.0.0, SVG Export Plug-In . SVG Version: 6.00 Build 0)  -->
<svg version="1.1" id="Capa_1" xmlns="http://www.w3.org/2000/svg" xmlns:xlink="http://www.w3.org/1999/xlink" x="0px" y="0px"
	 viewBox="0 0 512.001 512.001" style="enable-background:new 0 0 512.001 512.001;" xml:space="preserve">
<rect x="59.734" y="8.533" style="fill:#D1D1D1;" width="315.733" height="452.267"/>
<g>
	<rect x="102.401" y="51.2" style="fill:#BDBDBD;" width="34.133" height="17.067"/>
	<rect x="298.667" y="59.733" style="fill:#BDBDBD;" width="34.133" height="17.067"/>
	<rect x="290.134" y="102.4" style="fill:#BDBDBD;" width="42.667" height="17.067"/>
	<rect x="247.467" y="59.733" style="fill:#BDBDBD;" width="34.133" height="17.067"/>
</g>
<polygon style="fill:#EBEBEB;" points="324.267,145.067 324.267,503.467 8.534,503.467 8.534,59.733 238.934,59.733 "/>
<path id="SVGCleanerId_0" style="fill:#E0E0E0;" d="M8.534,438.357v65.109h315.733v-358.4l-22.272-22.272
	C234.923,271.104,98.134,380.16,8.534,438.357z"/>
<g>
	<path style="fill:#3582BD;" d="M469.334,460.8l-25.6,42.667l-25.6-42.667V128c0-14.14,11.46-25.6,25.6-25.6l0,0
		c14.14,0,25.6,11.46,25.6,25.6V460.8z"/>
	<path style="fill:#3582BD;" d="M443.734,102.4v401.067l25.6-42.667V128C469.334,113.86,457.874,102.4,443.734,102.4z"/>
</g>
<g>
	<path id="SVGCleanerId_0_1_" style="fill:#E0E0E0;" d="M8.534,438.357v65.109h315.733v-358.4l-22.272-22.272
		C234.923,271.104,98.134,380.16,8.534,438.357z"/>
</g>
<g>
	<path style="fill:#215280;" d="M512.001,298.667h-17.067V153.6c0-4.71-3.823-8.533-8.533-8.533h-76.8V128h76.8
		c14.14,0,25.6,11.46,25.6,25.6V298.667z"/>
	<rect x="418.134" y="281.6" style="fill:#215280;" width="51.2" height="17.067"/>
	<rect x="418.134" y="452.267" style="fill:#215280;" width="51.2" height="17.067"/>
</g>
<g>
	<rect x="93.867" y="264.533" style="fill:#88B337;" width="17.067" height="34.133"/>
	<rect x="128.001" y="230.4" style="fill:#88B337;" width="17.067" height="68.267"/>
	<rect x="162.134" y="204.8" style="fill:#88B337;" width="17.067" height="93.867"/>
	<rect x="196.267" y="230.4" style="fill:#88B337;" width="17.067" height="68.267"/>
	<rect x="230.401" y="213.333" style="fill:#88B337;" width="17.067" height="85.333"/>
</g>
<path style="fill:#4398D1;" d="M273.067,307.2h-204.8c-4.71,0-8.533-3.823-8.533-8.533V204.8h17.067v85.333h196.267V307.2z"/>
<g>
	<rect x="59.734" y="375.467" style="fill:#BDBDBD;" width="213.333" height="17.067"/>
	<rect x="59.734" y="418.133" style="fill:#BDBDBD;" width="128" height="17.067"/>
	<rect x="110.934" y="332.8" style="fill:#BDBDBD;" width="162.133" height="17.067"/>
	<rect x="59.734" y="332.8" style="fill:#BDBDBD;" width="34.133" height="17.067"/>
	<rect x="59.734" y="110.933" style="fill:#BDBDBD;" width="110.933" height="17.067"/>
	<rect x="59.734" y="153.6" style="fill:#BDBDBD;" width="76.8" height="17.067"/>
	<rect x="204.801" y="418.133" style="fill:#BDBDBD;" width="34.133" height="17.067"/>
</g>
<rect x="238.934" y="145.067" style="fill:#E0E0E0;" width="85.333" height="17.067"/>
<polygon style="fill:#FFFFFF;" points="324.267,145.067 238.934,145.067 238.934,59.733 "/>
<path d="M8.534,512h315.733c4.71,0,8.533-3.823,8.533-8.533v-34.133h42.667c4.71,0,8.533-3.823,8.533-8.533V8.533
	c0-4.71-3.823-8.533-8.533-8.533H59.734c-4.71,0-8.533,3.823-8.533,8.533V51.2H8.534c-4.71,0-8.533,3.823-8.533,8.533v443.733
	C0.001,508.177,3.824,512,8.534,512z M68.267,17.067h298.667v435.2h-34.133v-307.2c0.017-2.27-0.879-4.446-2.475-6.059
	l-19.627-19.541h22.101V102.4h-39.168l-25.6-25.6h13.568V59.733h-30.635l-5.973-6.059c-1.613-1.596-3.789-2.492-6.059-2.475H68.267
	V17.067z M303.702,136.533h-56.235V80.299L303.702,136.533z M17.067,68.267h213.333v76.8c0,4.71,3.823,8.533,8.533,8.533h76.8
	v341.333H17.067V68.267z"/>
<path d="M486.401,128h-8.533c0-18.85-15.283-34.133-34.133-34.133S409.601,109.15,409.601,128v332.8c0,1.527,0.41,3.038,1.195,4.352
	l25.6,42.667c2.406,4.053,7.637,5.393,11.691,2.987c1.229-0.725,2.253-1.758,2.987-2.987l25.6-42.667
	c0.785-1.314,1.195-2.825,1.195-4.352V145.067h8.533c4.71,0,8.533,3.823,8.533,8.533v145.067h17.067V153.6
	C512.001,139.46,500.54,128,486.401,128z M443.734,486.912l-10.496-17.579h20.992L443.734,486.912z M460.801,452.267h-34.133v-153.6
	h34.133V452.267z M460.801,281.6h-34.133V145.067h34.133V281.6z M426.667,128c0-9.429,7.637-17.067,17.067-17.067
	s17.067,7.637,17.067,17.067H426.667z"/>
<rect x="59.734" y="375.467" width="213.333" height="17.067"/>
<rect x="59.734" y="418.133" width="128" height="17.067"/>
<rect x="110.934" y="332.8" width="162.133" height="17.067"/>
<rect x="59.734" y="332.8" width="34.133" height="17.067"/>
<path d="M247.467,213.333h-17.067v76.8h-17.067V230.4h-17.067v59.733h-17.067V204.8h-17.067v85.333h-17.067V230.4h-17.067v59.733
	h-17.067v-25.6H93.867v25.6H76.801V204.8H59.734v93.867c0,4.71,3.823,8.533,8.533,8.533h204.8v-17.067h-25.6V213.333z"/>
<rect x="59.734" y="110.933" width="110.933" height="17.067"/>
<rect x="59.734" y="153.6" width="76.8" height="17.067"/>
<rect x="298.667" y="59.733" width="34.133" height="17.067"/>
<rect x="204.801" y="418.133" width="34.133" height="17.067"/>
<g>
</g>
<g>
</g>
<g>
</g>
<g>
</g>
<g>
</g>
<g>
</g>
<g>
</g>
<g>
</g>
<g>
</g>
<g>
</g>
<g>
</g>
<g>
</g>
<g>
</g>
<g>
</g>
<g>
</g>
</svg>
