<?xml version="1.0" encoding="iso-8859-1"?>
<!-- Generator: Adobe Illustrator 19.0.0, SVG Export Plug-In . SVG Version: 6.00 Build 0)  -->
<svg version="1.1" id="Capa_1" xmlns="http://www.w3.org/2000/svg" xmlns:xlink="http://www.w3.org/1999/xlink" x="0px" y="0px"
	 viewBox="0 0 512.002 512.002" style="enable-background:new 0 0 512.002 512.002;" xml:space="preserve">
<path style="fill:#DE4C3C;" d="M247.489,102.414c-28.267,0-51.177-22.91-51.177-51.177S219.223,0.06,247.489,0.06
	c28.267,0,51.177,22.91,51.177,51.177S275.747,102.414,247.489,102.414z M247.489,17.119c-18.842,0-34.118,15.276-34.118,34.118
	s15.276,34.118,34.118,34.118s34.118-15.276,34.118-34.118S266.331,17.119,247.489,17.119z"/>
<g>
	<polygon style="fill:#BDBDBD;" points="119.547,102.414 85.429,128.002 143.003,203.744 177.121,178.156 	"/>
	<polygon style="fill:#BDBDBD;" points="375.432,102.414 321.099,176.023 355.217,201.612 409.55,128.002 	"/>
</g>
<g>
	<circle style="fill:#D9D9D9;" cx="247.455" cy="307.147" r="196.178"/>
	<rect x="230.396" y="59.792" style="fill:#D9D9D9;" width="34.118" height="59.706"/>
</g>
<circle style="fill:#C94536;" cx="247.455" cy="307.147" r="162.06"/>
<circle style="fill:#DE4C3C;" cx="247.455" cy="307.147" r="145.001"/>
<path style="fill:#C94536;" d="M361.273,191.718c-6.909,157.028-105.254,225.435-195.667,255.032
	c77.414,44.925,176.586,18.594,221.511-58.819C424.067,324.249,413.456,243.654,361.273,191.718z"/>
<path style="fill:#FFFFFF;" d="M247.489,204.768L247.489,204.768c-47.108,0-85.295,38.187-85.295,85.295v51.177
	c0,9.425,7.634,17.059,17.059,17.059h17.059v34.118h102.354v-34.118h17.059c9.425,0,17.059-7.634,17.059-17.059v-51.177
	C332.784,242.954,294.589,204.768,247.489,204.768z"/>
<g>
	<rect x="221.867" y="358.324" style="fill:#BDBDBD;" width="17.059" height="34.118"/>
	<rect x="255.985" y="358.324" style="fill:#BDBDBD;" width="17.059" height="34.118"/>
</g>
<g>
	<circle style="fill:#DE4C3C;" cx="213.337" cy="307.147" r="17.059"/>
	<circle style="fill:#DE4C3C;" cx="281.573" cy="307.147" r="17.059"/>
	<rect x="383.927" y="34.203" style="fill:#DE4C3C;" width="17.059" height="34.118"/>
	<rect x="435.104" y="102.439" style="fill:#DE4C3C;" width="34.118" height="17.059"/>
	
		<rect x="421.363" y="55.496" transform="matrix(-0.7071 0.7071 -0.7071 -0.7071 795.4535 -201.4358)" style="fill:#DE4C3C;" width="36.165" height="17.059"/>
</g>
<g>
	<path style="fill:#5C3724;" d="M256.019,179.179v-33.692c-2.815,0-5.629-0.426-8.529-0.426c-2.9,0-5.715,0-8.529,0.426v33.692
		H256.019z"/>
	<path style="fill:#5C3724;" d="M238.96,418.005v51.177c2.815,0,5.629,0,8.529,0c2.9,0,5.715,0,8.529,0v-51.177H238.96z"/>
	<path style="fill:#5C3724;" d="M136.606,290.063H86.367c-0.614,5.664-0.93,11.361-0.938,17.059h51.177V290.063z"/>
	<path style="fill:#5C3724;" d="M358.373,290.063v17.059h51.177c-0.009-5.698-0.324-11.395-0.938-17.059H358.373z"/>
	<path style="fill:#5C3724;" d="M156.138,377.831l-32.753,33.436c3.676,4.359,7.574,8.512,11.685,12.453l33.18-34.118
		L156.138,377.831z"/>
	<path style="fill:#5C3724;" d="M338.84,219.353l25.077-24.821c-3.975-4.111-8.154-8.009-12.538-11.685l-24.65,24.394
		L338.84,219.353z"/>
	<path style="fill:#5C3724;" d="M168.25,207.241l-24.906-24.224c-4.359,3.676-8.512,7.574-12.453,11.685l25.589,24.65
		L168.25,207.241z"/>
	<path style="fill:#5C3724;" d="M326.728,389.943l33.094,34.118c4.162-3.915,8.095-8.077,11.771-12.453l-32.753-33.436
		L326.728,389.943z"/>
</g>
<path d="M393.429,163.741l22.944-30.621c2.823-3.77,2.064-9.118-1.706-11.941L380.549,95.59c-3.77-2.823-9.118-2.064-11.941,1.706
	l0,0l-22.774,30.706c-22.518-12.521-47.202-20.658-72.757-23.968v-8.529c24.48-14.133,32.864-45.428,18.731-69.908
	S246.38-7.267,221.901,6.866s-32.864,45.428-18.731,69.908c4.495,7.779,10.952,14.244,18.731,18.731v8.529
	c-25.554,3.309-50.239,11.447-72.757,23.968L126.37,97.296c-2.823-3.77-8.171-4.529-11.941-1.706l-34.118,25.588
	c-3.77,2.823-4.529,8.171-1.706,11.941l22.944,30.621c-79.282,80.604-78.215,210.209,2.388,289.491s210.209,78.216,289.491-2.388
	C471.781,371.187,471.781,243.406,393.429,163.741z M377.138,114.355l20.471,15.353l-17.059,22.347
	c-6.363-5.57-13.059-10.756-20.044-15.524L377.138,114.355z M213.371,51.237c0.017-18.842,15.31-34.101,34.152-34.084
	c18.842,0.017,34.101,15.31,34.084,34.152c-0.009,8.299-3.045,16.308-8.53,22.526V59.758c0-4.708-3.821-8.529-8.529-8.529H230.43
	c-4.708,0-8.529,3.821-8.529,8.529v14.074C216.391,67.596,213.363,59.562,213.371,51.237z M256.019,68.296v34.118
	c-2.815,0-5.629,0-8.529,0c-2.9,0-5.715,0-8.529,0V68.296H256.019z M97.37,129.708l20.471-15.353l16.633,22.177
	c-7.105,4.759-13.912,9.937-20.385,15.524L97.37,129.708z M247.489,494.77c-103.633,0-187.649-84.016-187.649-187.649
	s84.016-187.649,187.649-187.649s187.649,84.016,187.649,187.649S351.123,494.77,247.489,494.77z"/>
<path d="M247.489,136.532c-94.217,0-170.59,76.373-170.59,170.59s76.373,170.59,170.59,170.59s170.59-76.373,170.59-170.59
	S341.698,136.532,247.489,136.532z M365.793,404.87l-26.953-27.039l-12.112,12.112l27.465,27.38
	c-26.45,25.785-61.301,41.163-98.174,43.33v-42.647H238.96v42.647c-36.779-1.979-71.622-17.119-98.174-42.647l27.465-27.38
	l-12.112-12.112l-26.953,27.038c-22.944-27.653-35.423-62.496-35.227-98.43h42.647v-17.059H94.982
	c3.898-33.777,18.893-65.31,42.647-89.645l18.85,18.935l12.112-12.112l-18.509-18.424c25.153-20.786,56.295-32.984,88.877-34.8
	v25.162h17.059v-25.162c32.702,1.74,63.971,13.946,89.219,34.8l-18.509,18.424l12.112,12.112l18.85-18.935
	c23.755,24.335,38.749,55.868,42.647,89.645h-41.965v17.059h42.647C401.046,342.818,388.584,377.405,365.793,404.87z"/>
<path d="M247.489,196.238c-51.817,0-93.824,42.008-93.824,93.824v51.177c0,14.133,11.455,25.589,25.588,25.589h8.529v25.588
	c0,4.708,3.821,8.53,8.529,8.53h102.354c4.708,0,8.529-3.821,8.529-8.53v-25.588h8.53c14.133,0,25.588-11.455,25.588-25.589v-51.177
	C341.314,238.246,299.306,196.238,247.489,196.238z M324.255,341.24c0,4.708-3.821,8.53-8.529,8.53h-17.059
	c-4.708,0-8.53,3.821-8.53,8.529v25.589h-17.059v-25.589h-17.059v25.589H238.96v-25.589h-17.059v25.589h-17.059v-25.589
	c0-4.708-3.821-8.529-8.529-8.529h-17.059c-4.708,0-8.529-3.821-8.529-8.53v-51.177c0-42.4,34.365-76.765,76.765-76.765
	s76.765,34.365,76.765,76.765V341.24z"/>
<path d="M213.371,281.533c-14.133,0-25.588,11.455-25.588,25.588s11.455,25.589,25.588,25.589c14.133,0,25.588-11.455,25.588-25.589
	S227.496,281.533,213.371,281.533z M213.371,315.651c-4.708,0-8.529-3.821-8.529-8.53c0-4.708,3.821-8.529,8.529-8.529
	c4.708,0,8.529,3.821,8.529,8.529C221.901,311.83,218.08,315.651,213.371,315.651z"/>
<path d="M281.607,281.533c-14.133,0-25.589,11.455-25.589,25.588s11.455,25.589,25.589,25.589s25.588-11.455,25.588-25.589
	S295.732,281.533,281.607,281.533z M281.607,315.651c-4.708,0-8.53-3.821-8.53-8.53c0-4.708,3.821-8.529,8.53-8.529
	c4.708,0,8.529,3.821,8.529,8.529C290.137,311.83,286.316,315.651,281.607,315.651z"/>
<rect x="383.927" y="34.203" width="17.059" height="34.118"/>
<rect x="435.104" y="102.439" width="34.118" height="17.059"/>
<rect x="421.363" y="55.496" transform="matrix(-0.7071 0.7071 -0.7071 -0.7071 795.4535 -201.4358)" width="36.165" height="17.059"/>
<g>
</g>
<g>
</g>
<g>
</g>
<g>
</g>
<g>
</g>
<g>
</g>
<g>
</g>
<g>
</g>
<g>
</g>
<g>
</g>
<g>
</g>
<g>
</g>
<g>
</g>
<g>
</g>
<g>
</g>
</svg>
