<?xml version="1.0" encoding="iso-8859-1"?>
<!-- Generator: Adobe Illustrator 19.0.0, SVG Export Plug-In . SVG Version: 6.00 Build 0)  -->
<svg version="1.1" id="Capa_1" xmlns="http://www.w3.org/2000/svg" xmlns:xlink="http://www.w3.org/1999/xlink" x="0px" y="0px"
	 viewBox="0 0 512 512" style="enable-background:new 0 0 512 512;" xml:space="preserve">
<circle style="fill:#FDB62F;" cx="401.362" cy="358.128" r="102.128"/>
<circle style="fill:#FFA83D;" cx="401.362" cy="358.128" r="76.596"/>
<circle style="fill:#FDB62F;" cx="112" cy="358.128" r="102.128"/>
<circle style="fill:#FFA83D;" cx="112" cy="358.128" r="76.596"/>
<circle style="fill:#FDB62F;" cx="256.681" cy="145.362" r="102.128"/>
<circle style="fill:#FFA83D;" cx="256.681" cy="145.362" r="76.596"/>
<g>
	<path style="fill:#FD7B2F;" d="M256.681,221.957v-17.021c32.902,0,59.574-26.672,59.574-59.574h17.021
		C333.277,187.668,298.987,221.957,256.681,221.957z"/>
	<path style="fill:#FD7B2F;" d="M197.106,145.362h-17.021c0-42.306,34.289-76.596,76.596-76.596v17.021
		C223.779,85.787,197.106,112.46,197.106,145.362z"/>
	<path style="fill:#FD7B2F;" d="M290.723,136.851v-3.234c-0.043-12.298-10-22.255-22.298-22.298h-3.234v-8.511H248.17v8.511h-3.234
		c-12.315-0.17-22.434,9.677-22.604,21.983c-0.153,11.14,7.932,20.681,18.945,22.357l28,4.681c2.911,0.238,5.089,2.791,4.851,5.702
		c-0.238,2.911-2.791,5.089-5.702,4.851l0,0h-23.489c-2.911,0-5.277-2.366-5.277-5.277l0,0v-3.234h-17.021v3.234
		c0.043,12.298,10,22.255,22.298,22.298h3.234v8.511h17.021v-8.511h3.234c12.315,0.17,22.434-9.677,22.604-21.983
		c0.153-11.14-7.932-20.681-18.945-22.357l-28-4.681c-2.911-0.238-5.089-2.791-4.851-5.702c0.238-2.911,2.791-5.089,5.702-4.851
		h23.489c2.911,0,5.277,2.366,5.277,5.277v3.234L290.723,136.851L290.723,136.851z"/>
	<path style="fill:#FD7B2F;" d="M112,434.723v-17.021c32.902,0,59.574-26.672,59.574-59.574h17.021
		C188.596,400.434,154.306,434.723,112,434.723z"/>
	<path style="fill:#FD7B2F;" d="M52.426,358.128H35.404c0-42.306,34.289-76.596,76.596-76.596v17.021
		C79.098,298.553,52.426,325.226,52.426,358.128z"/>
	<path style="fill:#FD7B2F;" d="M401.362,434.723v-17.021c32.902,0,59.574-26.672,59.574-59.574h17.021
		C477.957,400.434,443.668,434.723,401.362,434.723z"/>
	<path style="fill:#FD7B2F;" d="M341.787,358.128h-17.021c0-42.306,34.289-76.596,76.596-76.596v17.021
		C368.46,298.553,341.787,325.226,341.787,358.128z"/>
	<path style="fill:#FD7B2F;" d="M392.851,375.149v-8.511h17.021v-17.021h-17.021v-12.766c0.008-7.047,5.728-12.757,12.774-12.757
		c3.379,0,6.621,1.345,9.013,3.736l12.255-12.255c-5.609-5.549-13.217-8.613-21.106-8.511
		c-16.451-0.094-29.864,13.166-29.957,29.617c0,0.06,0,0.111,0,0.17v12.766h-8.511v17.021h8.511v8.511
		c0,4.698-3.813,8.511-8.511,8.511c-4.698,0-8.511,3.813-8.511,8.511c0,4.698,3.813,8.511,8.511,8.511h51.064V383.66h-26.979
		C392.366,380.928,392.86,378.051,392.851,375.149z"/>
	<path style="fill:#FD7B2F;" d="M116.255,392.17c-6.698,0-13.004-3.149-17.021-8.511H112v-17.021H94.979v-8.511H112v-17.021H99.319
		c6.996-9.387,20.272-11.328,29.651-4.332c0.894,0.664,1.736,1.404,2.519,2.204l12.085-11.915
		c-14.723-15.055-38.868-15.319-53.915-0.596c-4.187,4.094-7.379,9.106-9.319,14.638H69.447v17.021h8.511v8.511h-8.511v17.021
		h10.809c5.438,15.234,19.83,25.438,36,25.532c10.289,0.043,20.153-4.111,27.319-11.489l-12.17-11.915
		C127.43,389.881,121.966,392.187,116.255,392.17z"/>
</g>
<g>
	<path style="fill:#87CED9;" d="M214.128,489.787c5.702,1.191,11.574,2.213,17.447,2.894l2.128-17.021
		c-5.447-0.681-10.809-1.617-16.085-2.638L214.128,489.787z"/>
	<path style="fill:#87CED9;" d="M180.085,479.745c5.532,2.128,11.149,4.085,17.021,5.702l4.851-16.255
		c-5.191-1.532-10.383-3.319-15.404-5.362L180.085,479.745z"/>
	<path style="fill:#87CED9;" d="M252.17,477.277h-2.383l-0.596,17.021h2.468c5.106,0,10.213,0,15.234,0l-0.766-17.021
		C261.532,477.277,256.681,477.277,252.17,477.277z"/>
	<path style="fill:#87CED9;" d="M282.213,475.745l2.128,17.021c5.872-0.681,11.745-1.702,17.021-2.894l-3.489-17.021
		C293.191,474.128,287.745,475.064,282.213,475.745z"/>
	<path style="fill:#87CED9;" d="M329.617,463.574c-5.021,2.043-10.213,3.83-15.404,5.362l4.936,16.34
		c5.617-1.702,11.234-3.66,17.021-5.872L329.617,463.574z"/>
	<path style="fill:#87CED9;" d="M461.787,204.255c-1.787-5.532-3.745-11.149-5.957-17.021L440,193.702
		c2.043,5.021,3.915,10.128,5.532,15.319L461.787,204.255z"/>
	<path style="fill:#87CED9;" d="M469.447,238.979c-0.766-5.872-1.872-11.745-3.149-17.021l-17.021,3.66
		c1.191,5.277,2.128,10.638,2.894,16L469.447,238.979z"/>
	<path style="fill:#87CED9;" d="M432.255,177.106l1.021,2.043l15.234-7.66l-1.191-2.213c-2.383-4.596-4.851-8.511-7.489-13.277
		l-14.468,8.936C427.745,168.851,430.043,172.936,432.255,177.106z"/>
	<path style="fill:#87CED9;" d="M416.255,151.404l13.702-10.128c-3.404-4.681-7.149-9.362-11.064-13.787l-12.851,11.149
		C409.872,142.723,413.106,146.979,416.255,151.404z"/>
	<path style="fill:#87CED9;" d="M382.723,116c4.17,3.404,8.511,7.064,12.17,10.809l11.83-12.17
		c-4.255-4.17-8.511-8.511-13.191-11.83L382.723,116z"/>
	<path style="fill:#87CED9;" d="M98.468,128.34c-4,4.34-7.915,8.511-11.574,13.447l13.362,10.553
		c3.404-4.255,6.979-8.511,10.638-12.34L98.468,128.34z"/>
	<path style="fill:#87CED9;" d="M124.766,104.936c-4.681,3.574-9.277,7.404-13.617,11.319l11.404,12.681
		c3.991-3.668,8.17-7.132,12.511-10.383L124.766,104.936z"/>
	<path style="fill:#87CED9;" d="M89.447,167.83l1.277-1.957l-14.213-9.362l-1.362,2.043c-2.809,4.34-5.362,8.511-7.83,13.021
		l14.894,8.511C84.426,175.745,86.468,171.745,89.447,167.83z"/>
	<path style="fill:#87CED9;" d="M74.894,194.383l-15.489-6.979c-2.383,5.362-4.596,10.979-6.553,16.511l16,5.617
		C70.638,204.426,72.681,199.319,74.894,194.383z"/>
	<path style="fill:#87CED9;" d="M60.936,241.106c0.936-5.362,2.043-10.723,3.404-16l-16.426-4.255
		c-1.532,5.702-2.723,11.489-3.745,17.021L60.936,241.106z"/>
</g>
<g>
	<polygon style="fill:#FFA83D;" points="477.957,43.234 452.426,43.234 452.426,17.702 435.404,17.702 435.404,43.234 
		409.872,43.234 409.872,60.255 435.404,60.255 435.404,85.787 452.426,85.787 452.426,60.255 477.957,60.255 	"/>
	<path style="fill:#FFA83D;" d="M43.915,136.851L43.915,136.851c-2.894-17.464-16.579-31.149-34.043-34.043l0,0
		c17.464-2.894,31.149-16.579,34.043-34.043l0,0c2.894,17.464,16.579,31.149,34.043,34.043l0,0
		C60.494,105.702,46.809,119.387,43.915,136.851z"/>
</g>
<path d="M256.681,221.957c42.306,0,76.596-34.289,76.596-76.596h-17.021c0,32.902-26.672,59.574-59.574,59.574V221.957z"/>
<path d="M197.106,145.362c0-32.902,26.672-59.574,59.574-59.574V68.766c-42.306,0-76.596,34.289-76.596,76.596H197.106z"/>
<path d="M248.17,111.319h-3.234c-12.315-0.17-22.434,9.677-22.604,21.983c-0.153,11.14,7.932,20.681,18.945,22.357l28,4.681
	c2.911,0.238,5.089,2.791,4.851,5.702c-0.238,2.911-2.791,5.089-5.702,4.851l0,0h-23.489c-2.911,0-5.277-2.366-5.277-5.277l0,0
	v-3.234h-17.021v3.234c0.043,12.298,10,22.255,22.298,22.298h3.234v8.511h17.021v-8.511h3.234
	c12.315,0.17,22.434-9.677,22.604-21.983c0.153-11.14-7.932-20.681-18.945-22.357l-28-4.681c-2.911-0.238-5.089-2.791-4.851-5.702
	c0.238-2.911,2.791-5.089,5.702-4.851h23.489c2.911,0,5.277,2.366,5.277,5.277v3.234h17.021v-3.234
	c-0.043-12.298-10-22.255-22.298-22.298h-3.234v-8.511H248.17L248.17,111.319L248.17,111.319z"/>
<path d="M256.681,256c61.106,0,110.638-49.532,110.638-110.638S317.787,34.723,256.681,34.723S146.043,84.255,146.043,145.362
	S195.574,256,256.681,256z M256.681,51.745c51.702,0,93.617,41.915,93.617,93.617s-41.915,93.617-93.617,93.617
	s-93.617-41.915-93.617-93.617S204.979,51.745,256.681,51.745z"/>
<path d="M112,434.723c42.306,0,76.596-34.289,76.596-76.596h-17.021c0,32.902-26.672,59.574-59.574,59.574V434.723z"/>
<path d="M112,298.553v-17.021c-42.306,0-76.596,34.289-76.596,76.596h17.021C52.426,325.226,79.098,298.553,112,298.553z"/>
<path d="M112,468.766c61.106,0,110.638-49.532,110.638-110.638S173.106,247.489,112,247.489S1.362,297.021,1.362,358.128
	S50.894,468.766,112,468.766z M112,264.511c51.702,0,93.617,41.915,93.617,93.617S163.702,451.745,112,451.745
	s-93.617-41.915-93.617-93.617S60.298,264.511,112,264.511z"/>
<path d="M401.362,417.702v17.021c42.306,0,76.596-34.289,76.596-76.596h-17.021C460.936,391.03,434.264,417.702,401.362,417.702z"/>
<path d="M401.362,298.553v-17.021c-42.306,0-76.596,34.289-76.596,76.596h17.021C341.787,325.226,368.46,298.553,401.362,298.553z"
	/>
<path d="M401.362,247.489c-61.106,0-110.638,49.532-110.638,110.638s49.532,110.638,110.638,110.638S512,419.234,512,358.128
	S462.468,247.489,401.362,247.489z M401.362,451.745c-51.702,0-93.617-41.915-93.617-93.617s41.915-93.617,93.617-93.617
	s93.617,41.915,93.617,93.617S453.064,451.745,401.362,451.745z"/>
<path d="M80.34,341.106H69.447v17.021h8.511v8.511h-8.511v17.021h10.809c5.438,15.234,19.83,25.438,36,25.532
	c10.289,0.043,20.153-4.111,27.319-11.489l-12.17-11.915c-3.974,4.094-9.438,6.4-15.149,6.383c-6.698,0-13.004-3.149-17.021-8.511
	H112v-17.021H94.979v-8.511H112v-17.021H99.319c6.996-9.387,20.272-11.328,29.651-4.332c0.894,0.664,1.736,1.404,2.519,2.204
	l12.085-11.915c-14.723-15.055-38.868-15.319-53.915-0.596C85.464,330.57,82.281,335.574,80.34,341.106z"/>
<path d="M418.383,383.66h-26.979c0.962-2.732,1.455-5.609,1.447-8.511v-8.511h17.021v-17.021h-17.021v-12.766
	c0.009-7.047,5.728-12.757,12.774-12.757c3.379,0,6.621,1.345,9.013,3.736l12.255-12.255c-5.609-5.549-13.217-8.613-21.106-8.511
	c-16.451-0.094-29.864,13.166-29.957,29.617c0,0.06,0,0.111,0,0.17v12.766h-8.511v17.021h8.511v8.511
	c0,4.698-3.813,8.511-8.511,8.511c-4.698,0-8.511,3.813-8.511,8.511c0,4.698,3.813,8.511,8.511,8.511h51.064L418.383,383.66
	L418.383,383.66z"/>
<path d="M217.532,473.191l-3.404,16.596c5.702,1.191,11.574,2.213,17.447,2.894l2.128-17.021
	C228.17,475.149,222.638,474.213,217.532,473.191z"/>
<path d="M186.298,463.83l-6.213,15.915c5.532,2.128,11.149,4.085,17.021,5.702l4.851-16.255
	C196.511,467.66,191.319,465.872,186.298,463.83z"/>
<path d="M266.128,477.277c-4.596,0-9.277,0-13.957,0h-2.383l-0.596,17.021h2.468c5.106,0,10.213,0,15.234,0L266.128,477.277z"/>
<path d="M282.213,475.745l2.128,17.021c5.872-0.681,11.745-1.702,17.021-2.894l-3.489-17.021
	C293.191,474.128,287.745,475.064,282.213,475.745z"/>
<path d="M329.617,463.574c-5.021,2.043-10.213,3.83-15.404,5.362l4.936,16.34c5.617-1.702,11.234-3.66,17.021-5.872L329.617,463.574
	z"/>
<path d="M461.787,204.255c-1.787-5.532-3.745-11.149-5.957-17.021L440,193.702c2.043,5.021,3.915,10.128,5.532,15.319
	L461.787,204.255z"/>
<path d="M469.447,238.979c-0.766-5.872-1.872-11.745-3.149-17.021l-17.021,3.66c1.191,5.277,2.128,10.638,2.894,16L469.447,238.979z
	"/>
<path d="M439.83,156l-14.468,8.936c2.383,3.915,4.681,8,6.894,12.17l1.021,2.043l15.234-7.66l-1.191-2.213
	C444.936,164.681,442.468,160.34,439.83,156z"/>
<path d="M416.255,151.404l13.702-10.128c-3.404-4.681-7.149-9.362-11.064-13.787l-12.851,11.149
	C409.872,142.723,413.106,146.979,416.255,151.404z"/>
<path d="M382.723,116c4.17,3.404,8.511,7.064,12.17,10.809l11.83-12.17c-4.255-4.17-8.511-8.511-13.191-11.83L382.723,116z"/>
<path d="M110.894,140.34l-12.426-12c-4,4.34-7.915,8.511-11.574,13.447l13.362,10.553
	C103.489,148.426,107.234,144.255,110.894,140.34z"/>
<path d="M135.064,118.553l-10.298-13.617c-4.681,3.574-9.277,7.404-13.617,11.319l11.404,12.681
	C126.545,125.268,130.723,121.804,135.064,118.553z"/>
<path d="M75.149,158.553c-2.809,4.34-5.362,8.511-7.83,13.021l14.894,8.511c2.213-4.085,4.596-8.085,7.234-12l1.277-1.957
	l-14.213-9.362L75.149,158.553z"/>
<path d="M74.894,194.383l-15.489-6.979c-2.383,5.362-4.596,10.979-6.553,16.511l16,5.617
	C70.638,204.426,72.681,199.319,74.894,194.383z"/>
<path d="M43.915,238.213l17.021,2.894c0.936-5.362,2.043-10.723,3.404-16l-16.426-4.255
	C46.128,226.553,44.936,232.34,43.915,238.213z"/>
<polygon points="435.404,17.702 435.404,43.234 409.872,43.234 409.872,60.255 435.404,60.255 435.404,85.787 452.426,85.787 
	452.426,60.255 477.957,60.255 477.957,43.234 452.426,43.234 452.426,17.702 "/>
<path d="M79.319,94.298C65.557,91.94,54.783,81.166,52.426,67.404c0-4.698-3.813-8.511-8.511-8.511s-8.511,3.813-8.511,8.511
	C33.047,81.166,22.272,91.94,8.511,94.298C3.813,94.298,0,98.111,0,102.809c0,4.698,3.813,8.511,8.511,8.511
	c13.762,2.357,24.536,13.132,26.894,26.894c0,4.698,3.813,8.511,8.511,8.511s8.511-3.813,8.511-8.511
	c2.357-13.762,13.132-24.536,26.894-26.894c4.698,0,8.511-3.813,8.511-8.511C87.83,98.111,84.017,94.298,79.319,94.298z
	 M43.915,114.979c-3.302-4.749-7.421-8.868-12.17-12.17c4.749-3.302,8.868-7.421,12.17-12.17c3.302,4.749,7.421,8.868,12.17,12.17
	C51.336,106.111,47.217,110.23,43.915,114.979z"/>
<g>
</g>
<g>
</g>
<g>
</g>
<g>
</g>
<g>
</g>
<g>
</g>
<g>
</g>
<g>
</g>
<g>
</g>
<g>
</g>
<g>
</g>
<g>
</g>
<g>
</g>
<g>
</g>
<g>
</g>
</svg>
