<?xml version="1.0" encoding="iso-8859-1"?>
<!-- Generator: Adobe Illustrator 19.0.0, SVG Export Plug-In . SVG Version: 6.00 Build 0)  -->
<svg version="1.1" id="Capa_1" xmlns="http://www.w3.org/2000/svg" xmlns:xlink="http://www.w3.org/1999/xlink" x="0px" y="0px"
	 viewBox="0 0 512 512" style="enable-background:new 0 0 512 512;" xml:space="preserve">
<g>
	<rect x="8.533" y="298.667" style="fill:#FDB62F;" width="204.8" height="51.2"/>
	<rect x="25.6" y="247.467" style="fill:#FDB62F;" width="204.8" height="51.2"/>
	<rect x="34.133" y="349.867" style="fill:#FDB62F;" width="204.8" height="51.2"/>
	<rect x="17.067" y="401.067" style="fill:#FDB62F;" width="204.8" height="51.2"/>
	<rect x="8.533" y="452.267" style="fill:#FDB62F;" width="204.8" height="51.2"/>
	<rect x="281.6" y="247.467" style="fill:#FDB62F;" width="204.8" height="51.2"/>
	<rect x="281.6" y="298.667" style="fill:#FDB62F;" width="204.8" height="51.2"/>
	<rect x="298.667" y="349.867" style="fill:#FDB62F;" width="204.8" height="51.2"/>
	<rect x="273.067" y="401.067" style="fill:#FDB62F;" width="204.8" height="51.2"/>
	<rect x="273.067" y="452.267" style="fill:#FDB62F;" width="204.8" height="51.2"/>
	<rect x="264.533" y="196.267" style="fill:#FDB62F;" width="204.8" height="51.2"/>
	<rect x="298.667" y="145.067" style="fill:#FDB62F;" width="204.8" height="51.2"/>
</g>
<g>
	<path style="fill:#FFA83D;" d="M213.333,298.667h-29.355c-30.123,28.501-73.557,43.435-111.701,51.2h141.056V298.667z"/>
	<path style="fill:#FFA83D;" d="M230.4,247.467h-29.355c-30.123,28.501-73.557,43.435-111.701,51.2H230.4V247.467z"/>
	<path style="fill:#FFA83D;" d="M238.933,349.867h-29.355c-30.123,28.501-73.557,43.435-111.701,51.2h141.056V349.867z"/>
	<path style="fill:#FFA83D;" d="M221.867,401.067h-29.355c-30.123,28.501-73.557,43.435-111.701,51.2h141.056V401.067z"/>
	<path style="fill:#FFA83D;" d="M213.333,452.267h-29.355c-30.123,28.501-73.557,43.435-111.701,51.2h141.056V452.267z"/>
	<path style="fill:#FFA83D;" d="M503.467,145.067h-29.355c-30.123,28.501-73.557,43.435-111.701,51.2h141.056V145.067z"/>
	<path style="fill:#FFA83D;" d="M469.333,196.267h-29.355c-30.123,28.501-73.557,43.435-111.701,51.2h141.056V196.267z"/>
	<path style="fill:#FFA83D;" d="M486.4,247.467h-29.355c-30.123,28.501-73.557,43.435-111.701,51.2H486.4V247.467z"/>
	<path style="fill:#FFA83D;" d="M486.4,298.667h-29.355c-30.123,28.501-73.557,43.435-111.701,51.2H486.4V298.667z"/>
	<path style="fill:#FFA83D;" d="M503.467,349.867h-29.355c-30.123,28.501-73.557,43.435-111.701,51.2h141.056V349.867z"/>
	<path style="fill:#FFA83D;" d="M477.867,401.067h-29.355c-30.123,28.501-73.557,43.435-111.701,51.2h141.056V401.067z"/>
	<path style="fill:#FFA83D;" d="M477.867,452.267h-29.355c-30.123,28.501-73.557,43.435-111.701,51.2h141.056V452.267z"/>
</g>
<circle style="fill:#FDB62F;" cx="128" cy="136.533" r="102.4"/>
<circle style="fill:#FFA83D;" cx="128" cy="136.533" r="76.8"/>
<g>
	<path style="fill:#FD7B2F;" d="M128,213.333v-17.067c32.99,0,59.733-26.743,59.733-59.733H204.8
		C204.8,178.953,170.419,213.333,128,213.333z"/>
	<path style="fill:#FD7B2F;" d="M68.267,136.533H51.2c0-42.419,34.381-76.8,76.8-76.8V76.8
		C95.01,76.8,68.267,103.543,68.267,136.533z"/>
</g>
<g>
	<path style="fill:#FDB62F;" d="M418.133,102.4L418.133,102.4C415.232,84.89,401.51,71.168,384,68.267l0,0
		c17.51-2.901,31.232-16.623,34.133-34.133l0,0c2.901,17.51,16.623,31.232,34.133,34.133l0,0
		C434.756,71.168,421.035,84.89,418.133,102.4z"/>
	<polygon style="fill:#FDB62F;" points="290.133,25.6 264.533,25.6 264.533,0 247.467,0 247.467,25.6 221.867,25.6 221.867,42.667 
		247.467,42.667 247.467,68.267 264.533,68.267 264.533,42.667 290.133,42.667 	"/>
</g>
<g>
	<path style="fill:#FD7B2F;" d="M162.133,128v-3.243c-0.043-12.331-10.027-22.315-22.357-22.357h-3.243v-8.533h-17.067v8.533h-3.243
		c-12.348-0.171-22.494,9.702-22.665,22.042c-0.154,11.17,7.953,20.736,18.995,22.417l28.075,4.693
		c2.918,0.239,5.103,2.799,4.864,5.717s-2.799,5.103-5.717,4.864l0,0h-23.552c-2.918,0-5.291-2.372-5.291-5.291l0,0V153.6H93.867
		v3.243c0.043,12.331,10.027,22.315,22.357,22.357h3.243v8.533h17.067V179.2h3.243c12.348,0.171,22.494-9.702,22.665-22.042
		c0.154-11.17-7.953-20.736-18.995-22.417l-28.075-4.693c-2.918-0.239-5.103-2.799-4.864-5.717c0.239-2.918,2.799-5.103,5.717-4.864
		h23.552c2.918,0,5.291,2.372,5.291,5.291l0,0V128H162.133z"/>
	<rect x="51.2" y="273.067" style="fill:#FD7B2F;" width="17.067" height="25.6"/>
	<rect x="85.333" y="273.067" style="fill:#FD7B2F;" width="17.067" height="25.6"/>
	<rect x="119.467" y="273.067" style="fill:#FD7B2F;" width="17.067" height="25.6"/>
	<rect x="153.6" y="273.067" style="fill:#FD7B2F;" width="17.067" height="25.6"/>
	<rect x="187.733" y="273.067" style="fill:#FD7B2F;" width="17.067" height="25.6"/>
	<rect x="34.133" y="324.267" style="fill:#FD7B2F;" width="17.067" height="25.6"/>
	<rect x="68.267" y="324.267" style="fill:#FD7B2F;" width="17.067" height="25.6"/>
	<rect x="102.4" y="324.267" style="fill:#FD7B2F;" width="17.067" height="25.6"/>
	<rect x="136.533" y="324.267" style="fill:#FD7B2F;" width="17.067" height="25.6"/>
	<rect x="170.667" y="324.267" style="fill:#FD7B2F;" width="17.067" height="25.6"/>
	<rect x="59.733" y="375.467" style="fill:#FD7B2F;" width="17.067" height="25.6"/>
	<rect x="93.867" y="375.467" style="fill:#FD7B2F;" width="17.067" height="25.6"/>
	<rect x="128" y="375.467" style="fill:#FD7B2F;" width="17.067" height="25.6"/>
	<rect x="162.133" y="375.467" style="fill:#FD7B2F;" width="17.067" height="25.6"/>
	<rect x="196.267" y="375.467" style="fill:#FD7B2F;" width="17.067" height="25.6"/>
	<rect x="42.667" y="426.667" style="fill:#FD7B2F;" width="17.067" height="25.6"/>
	<rect x="76.8" y="426.667" style="fill:#FD7B2F;" width="17.067" height="25.6"/>
	<rect x="110.933" y="426.667" style="fill:#FD7B2F;" width="17.067" height="25.6"/>
	<rect x="145.067" y="426.667" style="fill:#FD7B2F;" width="17.067" height="25.6"/>
	<rect x="179.2" y="426.667" style="fill:#FD7B2F;" width="17.067" height="25.6"/>
	<rect x="34.133" y="477.867" style="fill:#FD7B2F;" width="17.067" height="25.6"/>
	<rect x="68.267" y="477.867" style="fill:#FD7B2F;" width="17.067" height="25.6"/>
	<rect x="102.4" y="477.867" style="fill:#FD7B2F;" width="17.067" height="25.6"/>
	<rect x="136.533" y="477.867" style="fill:#FD7B2F;" width="17.067" height="25.6"/>
	<rect x="170.667" y="477.867" style="fill:#FD7B2F;" width="17.067" height="25.6"/>
	<rect x="307.2" y="273.067" style="fill:#FD7B2F;" width="17.067" height="25.6"/>
	<rect x="341.333" y="273.067" style="fill:#FD7B2F;" width="17.067" height="25.6"/>
	<rect x="375.467" y="273.067" style="fill:#FD7B2F;" width="17.067" height="25.6"/>
	<rect x="409.6" y="273.067" style="fill:#FD7B2F;" width="17.067" height="25.6"/>
	<rect x="443.733" y="273.067" style="fill:#FD7B2F;" width="17.067" height="25.6"/>
	<rect x="307.2" y="324.267" style="fill:#FD7B2F;" width="17.067" height="25.6"/>
	<rect x="341.333" y="324.267" style="fill:#FD7B2F;" width="17.067" height="25.6"/>
	<rect x="375.467" y="324.267" style="fill:#FD7B2F;" width="17.067" height="25.6"/>
	<rect x="409.6" y="324.267" style="fill:#FD7B2F;" width="17.067" height="25.6"/>
	<rect x="443.733" y="324.267" style="fill:#FD7B2F;" width="17.067" height="25.6"/>
	<rect x="324.267" y="375.467" style="fill:#FD7B2F;" width="17.067" height="25.6"/>
	<rect x="358.4" y="375.467" style="fill:#FD7B2F;" width="17.067" height="25.6"/>
	<rect x="392.533" y="375.467" style="fill:#FD7B2F;" width="17.067" height="25.6"/>
	<rect x="426.667" y="375.467" style="fill:#FD7B2F;" width="17.067" height="25.6"/>
	<rect x="460.8" y="375.467" style="fill:#FD7B2F;" width="17.067" height="25.6"/>
	<rect x="298.667" y="426.667" style="fill:#FD7B2F;" width="17.067" height="25.6"/>
	<rect x="332.8" y="426.667" style="fill:#FD7B2F;" width="17.067" height="25.6"/>
	<rect x="366.933" y="426.667" style="fill:#FD7B2F;" width="17.067" height="25.6"/>
	<rect x="401.067" y="426.667" style="fill:#FD7B2F;" width="17.067" height="25.6"/>
	<rect x="435.2" y="426.667" style="fill:#FD7B2F;" width="17.067" height="25.6"/>
	<rect x="298.667" y="477.867" style="fill:#FD7B2F;" width="17.067" height="25.6"/>
	<rect x="332.8" y="477.867" style="fill:#FD7B2F;" width="17.067" height="25.6"/>
	<rect x="366.933" y="477.867" style="fill:#FD7B2F;" width="17.067" height="25.6"/>
	<rect x="401.067" y="477.867" style="fill:#FD7B2F;" width="17.067" height="25.6"/>
	<rect x="435.2" y="477.867" style="fill:#FD7B2F;" width="17.067" height="25.6"/>
	<rect x="290.133" y="221.867" style="fill:#FD7B2F;" width="17.067" height="25.6"/>
	<rect x="324.267" y="221.867" style="fill:#FD7B2F;" width="17.067" height="25.6"/>
	<rect x="358.4" y="221.867" style="fill:#FD7B2F;" width="17.067" height="25.6"/>
	<rect x="392.533" y="221.867" style="fill:#FD7B2F;" width="17.067" height="25.6"/>
	<rect x="426.667" y="221.867" style="fill:#FD7B2F;" width="17.067" height="25.6"/>
	<rect x="324.267" y="170.667" style="fill:#FD7B2F;" width="17.067" height="25.6"/>
	<rect x="358.4" y="170.667" style="fill:#FD7B2F;" width="17.067" height="25.6"/>
	<rect x="392.533" y="170.667" style="fill:#FD7B2F;" width="17.067" height="25.6"/>
	<rect x="426.667" y="170.667" style="fill:#FD7B2F;" width="17.067" height="25.6"/>
	<rect x="460.8" y="170.667" style="fill:#FD7B2F;" width="17.067" height="25.6"/>
</g>
<path d="M128,213.333c42.419,0,76.8-34.381,76.8-76.8h-17.067c0,32.99-26.743,59.733-59.733,59.733V213.333z"/>
<path d="M128,59.733c-42.419,0-76.8,34.381-76.8,76.8h17.067C68.267,103.543,95.01,76.8,128,76.8V59.733z"/>
<path d="M426.667,32.768c0-4.71-3.823-8.533-8.533-8.533s-8.533,3.823-8.533,8.533c-2.364,13.798-13.167,24.602-26.965,26.965
	c-4.71,0-8.533,3.823-8.533,8.533s3.823,8.533,8.533,8.533c13.798,2.364,24.602,13.167,26.965,26.965
	c0,4.71,3.823,8.533,8.533,8.533s8.533-3.823,8.533-8.533c2.364-13.798,13.167-24.602,26.965-26.965c4.71,0,8.533-3.823,8.533-8.533
	s-3.823-8.533-8.533-8.533C439.834,57.37,429.03,46.566,426.667,32.768z M418.133,80.469c-3.311-4.762-7.441-8.892-12.203-12.203
	c4.762-3.311,8.892-7.441,12.203-12.203c3.311,4.762,7.441,8.892,12.203,12.203C425.574,71.578,421.444,75.708,418.133,80.469z"/>
<polygon points="264.533,68.267 264.533,42.667 290.133,42.667 290.133,25.6 264.533,25.6 264.533,0 247.467,0 247.467,25.6 
	221.867,25.6 221.867,42.667 247.467,42.667 247.467,68.267 "/>
<path d="M136.533,187.733V179.2h3.243c12.348,0.171,22.494-9.702,22.665-22.042c0.154-11.17-7.953-20.736-18.995-22.417
	l-28.075-4.693c-2.918-0.239-5.103-2.799-4.864-5.717c0.239-2.918,2.799-5.103,5.717-4.864h23.552c2.918,0,5.291,2.372,5.291,5.291
	l0,0V128h17.067v-3.243c-0.043-12.331-10.027-22.315-22.357-22.357h-3.243v-8.533h-17.067v8.533h-3.243
	c-12.348-0.171-22.494,9.702-22.665,22.042c-0.154,11.17,7.953,20.736,18.995,22.417l28.075,4.693
	c2.918,0.239,5.103,2.799,4.864,5.717s-2.799,5.103-5.717,4.864l0,0h-23.552c-2.918,0-5.291-2.372-5.291-5.291l0,0V153.6H93.867
	v3.243c0.043,12.331,10.027,22.315,22.357,22.357h3.243v8.533H136.533z"/>
<path d="M8.533,512h204.8c4.71,0,8.533-3.823,8.533-8.533V460.8c4.71,0,8.533-3.823,8.533-8.533V409.6h8.533
	c4.71,0,8.533-3.823,8.533-8.533v-51.2c0-4.71-3.823-8.533-8.533-8.533h-17.067V307.2h8.533c4.71,0,8.533-3.823,8.533-8.533v-51.2
	c0-4.71-3.823-8.533-8.533-8.533h-59.733c56.55-23.561,83.294-88.516,59.733-145.067S141.884,10.573,85.333,34.133
	S2.039,122.65,25.6,179.2c11.255,27.008,32.725,48.478,59.733,59.733H25.6c-4.71,0-8.533,3.823-8.533,8.533v42.667H8.533
	c-4.71,0-8.533,3.823-8.533,8.533v51.2c0,4.71,3.823,8.533,8.533,8.533H25.6v34.133h-8.533c-4.71,0-8.533,3.823-8.533,8.533v42.667
	c-4.71,0-8.533,3.823-8.533,8.533v51.2C0,508.177,3.823,512,8.533,512z M230.4,358.4v34.133h-17.067v-17.067h-17.067v17.067H179.2
	v-17.067h-17.067v17.067h-17.067v-17.067H128v17.067h-17.067v-17.067H93.867v17.067H76.8v-17.067H59.733v17.067H42.667V358.4H230.4z
	 M34.133,136.533c0-51.84,42.027-93.867,93.867-93.867s93.867,42.027,93.867,93.867S179.84,230.4,128,230.4
	S34.133,188.373,34.133,136.533z M34.133,256h187.733v34.133H204.8v-17.067h-17.067v17.067h-17.067v-17.067H153.6v17.067h-17.067
	v-17.067h-17.067v17.067H102.4v-17.067H85.333v17.067H68.267v-17.067H51.2v17.067H34.133V256z M17.067,341.333V307.2H204.8v34.133
	h-17.067v-17.067h-17.067v17.067H153.6v-17.067h-17.067v17.067h-17.067v-17.067H102.4v17.067H85.333v-17.067H68.267v17.067H51.2
	v-17.067H34.133v17.067H17.067z M25.6,409.6h187.733v34.133h-17.067v-17.067H179.2v17.067h-17.067v-17.067h-17.067v17.067H128
	v-17.067h-17.067v17.067H93.867v-17.067H76.8v17.067H59.733v-17.067H42.667v17.067H25.6V409.6z M17.067,460.8H204.8v34.133h-17.067
	v-17.067h-17.067v17.067H153.6v-17.067h-17.067v17.067h-17.067v-17.067H102.4v17.067H85.333v-17.067H68.267v17.067H51.2v-17.067
	H34.133v17.067H17.067V460.8z"/>
<path d="M503.467,204.8c4.71,0,8.533-3.823,8.533-8.533v-51.2c0-4.71-3.823-8.533-8.533-8.533h-204.8
	c-4.71,0-8.533,3.823-8.533,8.533v42.667h-25.6c-4.71,0-8.533,3.823-8.533,8.533v51.2c0,4.71,3.823,8.533,8.533,8.533h8.533v93.867
	c0,4.71,3.823,8.533,8.533,8.533h8.533v34.133h-17.067c-4.71,0-8.533,3.823-8.533,8.533v102.4c0,4.71,3.823,8.533,8.533,8.533h204.8
	c4.71,0,8.533-3.823,8.533-8.533V409.6h17.067c4.71,0,8.533-3.823,8.533-8.533v-51.2c0-4.71-3.823-8.533-8.533-8.533h-8.533v-93.867
	c0-4.71-3.823-8.533-8.533-8.533h-8.533V204.8H503.467z M281.6,238.933h-8.533V204.8H460.8v34.133h-17.067v-17.067h-17.067v17.067
	H409.6v-17.067h-17.067v17.067h-17.067v-17.067H358.4v17.067h-17.067v-17.067h-17.067v17.067H307.2v-17.067h-17.067v17.067H281.6z
	 M443.733,324.267v17.067h-17.067v-17.067H409.6v17.067h-17.067v-17.067h-17.067v17.067H358.4v-17.067h-17.067v17.067h-17.067
	v-17.067H307.2v17.067h-17.067V307.2h187.733v34.133H460.8v-17.067H443.733z M460.8,290.133v-17.067h-17.067v17.067h-17.067v-17.067
	H409.6v17.067h-17.067v-17.067h-17.067v17.067H358.4v-17.067h-17.067v17.067h-17.067v-17.067H307.2v17.067h-17.067V256h187.733
	v34.133H460.8z M469.333,494.933h-17.067v-17.067H435.2v17.067h-17.067v-17.067h-17.067v17.067H384v-17.067h-17.067v17.067h-17.067
	v-17.067H332.8v17.067h-17.067v-17.067h-17.067v17.067H281.6V460.8h187.733V494.933z M469.333,443.733h-17.067v-17.067H435.2v17.067
	h-17.067v-17.067h-17.067v17.067H384v-17.067h-17.067v17.067h-17.067v-17.067H332.8v17.067h-17.067v-17.067h-17.067v17.067H281.6
	V409.6h187.733V443.733z M486.4,358.4h8.533v34.133h-17.067v-17.067H460.8v17.067h-17.067v-17.067h-17.067v17.067H409.6v-17.067
	h-17.067v17.067h-17.067v-17.067H358.4v17.067h-17.067v-17.067h-17.067v17.067H307.2V358.4H486.4z M460.8,170.667v17.067h-17.067
	v-17.067h-17.067v17.067H409.6v-17.067h-17.067v17.067h-17.067v-17.067H358.4v17.067h-17.067v-17.067h-17.067v17.067H307.2V153.6
	h187.733v34.133h-17.067v-17.067H460.8z"/>
<g>
</g>
<g>
</g>
<g>
</g>
<g>
</g>
<g>
</g>
<g>
</g>
<g>
</g>
<g>
</g>
<g>
</g>
<g>
</g>
<g>
</g>
<g>
</g>
<g>
</g>
<g>
</g>
<g>
</g>
</svg>
