<?xml version="1.0" encoding="iso-8859-1"?>
<!-- Generator: Adobe Illustrator 19.0.0, SVG Export Plug-In . SVG Version: 6.00 Build 0)  -->
<svg version="1.1" id="Capa_1" xmlns="http://www.w3.org/2000/svg" xmlns:xlink="http://www.w3.org/1999/xlink" x="0px" y="0px"
	 viewBox="0 0 511.999 511.999" style="enable-background:new 0 0 511.999 511.999;" xml:space="preserve">
<polygon style="fill:#DBDBDB;" points="315.714,290.203 324.245,315.795 256,477.877 187.755,315.795 196.285,290.203 "/>
<polygon style="fill:#875339;" points="298.653,486.407 264.53,349.917 281.591,315.795 281.591,298.733 230.408,298.733 
	230.408,315.795 247.469,349.917 213.346,486.407 "/>
<path style="fill:#6B402A;" d="M213.346,486.407h85.306l-17.061-66.88c-18.947,10.373-38.55,19.492-58.691,27.298L213.346,486.407z"
	/>
<g>
	<polygon style="fill:#EBEBEB;" points="187.755,315.795 204.816,358.448 238.938,307.264 204.816,264.611 	"/>
	<polygon style="fill:#EBEBEB;" points="324.245,315.795 307.183,358.448 273.061,307.264 307.183,264.611 	"/>
</g>
<path style="fill:#787D82;" d="M358.367,315.795h-34.123L256,477.877l-68.245-162.082h-34.123
	c-37.688,0-68.245,30.557-68.245,68.245v127.959h341.225V384.04C426.612,346.351,396.064,315.795,358.367,315.795z"/>
<g>
	<path style="fill:#F7BB8F;" d="M128.04,145.182c0,14.135,11.457,25.592,25.592,25.592h8.531V119.59h-8.531
		C139.505,119.59,128.04,131.047,128.04,145.182z"/>
	<path style="fill:#F7BB8F;" d="M358.367,119.59h-8.531v51.184h8.531c14.135,0,25.592-11.457,25.592-25.592
		S372.502,119.59,358.367,119.59z"/>
</g>
<path style="fill:#FEC9A3;" d="M349.837,129.059c0-47.635-38.61-86.245-86.245-86.245c-0.06,0-0.111,0-0.171,0h-15.185
	c-40.435,0-75.436,28.091-84.197,67.563c-1.075,6.782-1.757,13.615-2.047,20.474c0,8.531,0,90.169,0,90.169
	c0,47.635,38.61,86.245,86.245,86.245l0,0h15.185c47.635,0.094,86.321-38.439,86.415-86.074c0-0.06,0-0.111,0-0.171v-1.791
	C349.837,211.038,349.837,129.059,349.837,129.059z"/>
<g>
	<circle style="fill:#875339;" cx="204.824" cy="145.191" r="17.061"/>
	<circle style="fill:#875339;" cx="307.192" cy="145.191" r="17.061"/>
</g>
<rect x="208.841" y="153.72" transform="matrix(-0.1241 0.9923 -0.9923 -0.1241 434.4006 -58.9548)" style="fill:#F0A789;" width="68.759" height="17.062"/>
<path style="fill:#ADADAD;" d="M196.285,68.406V30.104c-21.617,17.838-34.131,44.402-34.123,72.425v17.061
	C182.721,110.855,196.132,90.739,196.285,68.406z"/>
<g>
	<path style="fill:#B9B9B9;" d="M349.837,119.59l-9.981-4.009c-15.611-13.052-24.142-21.582-24.142-47.174H187.755
		c-18.844,0-34.123-15.278-34.123-34.123V8.692l42.653,8.531h102.368c28.271,0,51.184,22.913,51.184,51.184L349.837,119.59
		L349.837,119.59z"/>
	<path style="fill:#B9B9B9;" d="M326.377,200.119c-5.937,7.439-16.712,8.795-24.312,3.071c-27.298-20.474-64.833-20.474-92.131,0
		c-7.601,5.724-18.375,4.368-24.312-3.071l-23.459-27.042c0,23.545,0,47.942,0,47.942c0,47.635,38.61,86.245,86.245,86.245l0,0
		h15.185c47.635,0,86.245-38.61,86.245-86.245l0,0v-1.791c0-4.265,0-28.748,0-51.184L326.377,200.119z"/>
</g>
<path style="fill:#FEC9A3;" d="M245.422,239.019h-15.014v-17.061h15.014c11.218-0.017,22.282-2.619,32.331-7.592l7.678,15.185
	C273.018,235.777,259.318,239.019,245.422,239.019z"/>
<path style="fill:#71767A;" d="M267.772,449.981L256,477.877l-8.531-20.303c-52.472,17.812-106.889,29.269-162.082,34.123v20.303
	h341.225V384.04c-0.017-13.948-4.299-27.554-12.284-38.985C376.879,394.532,323.392,427.716,267.772,449.981z"/>
<rect x="307.192" y="418.171" style="fill:#616569;" width="76.776" height="17.061"/>
<path d="M93.918,384.04c0-32.979,26.735-59.714,59.714-59.714l0,0h28.492l66.027,156.878c1.843,4.334,6.859,6.355,11.192,4.504
	c2.03-0.862,3.643-2.474,4.504-4.504l66.027-156.878h28.492c32.979,0,59.714,26.735,59.714,59.714l0,0v127.959h17.061V384.04
	c0-42.406-34.37-76.776-76.776-76.776l0,0h-27.98l-4.777-14.417c15.398-13.35,26.104-31.29,30.54-51.184
	c1.467-6.782,2.209-13.7,2.218-20.644v-41.715c18.844,0,34.123-15.278,34.123-34.123s-15.278-34.123-34.123-34.123V68.406
	c0-32.979-26.735-59.714-59.714-59.714H197.138l-41.8-8.531c-2.508-0.495-5.11,0.162-7.08,1.791c-2.03,1.646-3.19,4.129-3.156,6.739
	v25.592c0.06,11.789,4.999,23.033,13.649,31.052c-4.248,14.852-5.98,30.301-5.118,45.724c-18.844,0-34.123,15.278-34.123,34.123
	s15.278,34.123,34.123,34.123v41.715c0.009,6.91,0.751,13.803,2.218,20.559c4.436,19.893,15.142,37.833,30.54,51.184l-4.777,14.502
	h-27.98c-42.406,0-76.776,34.37-76.776,76.776l0,0v127.959h17.061C93.918,511.999,93.918,384.04,93.918,384.04z M358.367,128.121
	c9.426,0,17.061,7.635,17.061,17.061s-7.635,17.061-17.061,17.061V128.121z M153.632,162.243c-9.426,0-17.061-7.635-17.061-17.061
	s7.635-17.061,17.061-17.061V162.243z M196.882,315.795l4.095-12.284c7.507,4.334,15.568,7.609,23.971,9.725l-17.914,26.786
	L196.882,315.795z M228.531,390.949l-13.564-32.502l15.44-23.289l7.848,15.782L228.531,390.949z M256,455.868l-16.464-39.07
	l14.587-58.35h3.753l14.587,58.35L256,455.868z M241.498,318.866l2.133-3.242h4.777h15.185h4.777l2.133,3.242l-11.26,22.521h-6.483
	L241.498,318.866z M283.468,390.608l-9.896-39.667l8.019-15.782l15.44,23.289L283.468,390.608z M304.965,339.424l-17.914-26.786
	c8.403-2.116,16.464-5.391,23.971-9.725l4.095,12.881L304.965,339.424z M162.163,34.284V19.099l32.416,6.654h1.706h102.368
	c23.553,0,42.653,19.1,42.653,42.653v37.279c-12.003-8.428-18.529-22.683-17.061-37.279c0-4.709-3.822-8.531-8.531-8.531H187.755
	C173.628,59.876,162.163,48.419,162.163,34.284z M182.039,76.34c-3.455,5.434-7.243,10.646-11.346,15.611
	c0.375-5.929,1.288-11.806,2.73-17.573C176.213,75.367,179.104,76.024,182.039,76.34z M170.693,115.837
	c12.719-10.8,23.161-24.022,30.71-38.9h105.78c1.877,22.606,11.687,32.502,26.871,45.212c0.682,0.58,1.467,1.049,2.303,1.365
	l4.607,1.877v42.653l-21.582,26.957c-3.063,3.608-8.411,4.206-12.199,1.365C292.4,185.327,274.451,179.339,256,179.305
	c-2.107,0-4.24,0-6.398,0l6.398-50.16l-17.061-2.047l-6.995,55.705c-9.768,2.892-18.955,7.481-27.127,13.564
	c-3.924,2.96-9.495,2.235-12.54-1.621l-21.583-26.957L170.693,115.837L170.693,115.837z M172.57,237.91
	c-1.271-5.596-1.902-11.32-1.877-17.061v-25.592l8.531,10.322c8.59,11.226,24.654,13.359,35.88,4.769
	c0.068-0.051,0.136-0.111,0.205-0.162c9-6.722,19.518-11.115,30.625-12.796h1.706l0,0c2.764-0.512,5.553-0.853,8.36-1.024
	c14.758,0.043,29.115,4.828,40.947,13.649c11.175,8.59,27.196,6.534,35.829-4.607l8.531-10.322v25.592
	c0.026,5.741-0.606,11.465-1.877,17.061c-7.515,35.803-39.258,61.327-75.837,60.994h-15.185
	C211.879,299.083,180.162,273.645,172.57,237.91z"/>
<rect x="307.192" y="418.171" width="76.776" height="17.061"/>
<circle cx="204.824" cy="145.191" r="17.061"/>
<circle cx="307.192" cy="145.191" r="17.061"/>
<path d="M285.43,229.55l-7.678-15.185c-10.049,4.973-21.113,7.575-32.331,7.592h-15.014v17.061h15.014
	C259.318,239.019,273.018,235.777,285.43,229.55z"/>
<g>
</g>
<g>
</g>
<g>
</g>
<g>
</g>
<g>
</g>
<g>
</g>
<g>
</g>
<g>
</g>
<g>
</g>
<g>
</g>
<g>
</g>
<g>
</g>
<g>
</g>
<g>
</g>
<g>
</g>
</svg>
