<?xml version="1.0" encoding="iso-8859-1"?>
<!-- Generator: Adobe Illustrator 19.0.0, SVG Export Plug-In . SVG Version: 6.00 Build 0)  -->
<svg version="1.1" id="Capa_1" xmlns="http://www.w3.org/2000/svg" xmlns:xlink="http://www.w3.org/1999/xlink" x="0px" y="0px"
	 viewBox="0 0 512 512" style="enable-background:new 0 0 512 512;" xml:space="preserve">
<polygon style="fill:#BDBDBD;" points="460.8,366.933 460.8,503.467 51.2,503.467 51.2,435.2 "/>
<rect x="51.2" y="460.8" style="fill:#ABABAB;" width="409.6" height="17.067"/>
<polygon style="fill:#D9D9D9;" points="460.8,34.133 460.8,366.933 392.533,435.2 51.2,435.2 51.2,34.133 "/>
<rect x="51.2" y="25.6" style="fill:#DE4C3C;" width="409.6" height="93.867"/>
<g>
	<path style="fill:#126099;" d="M128,68.267c-4.71,0-8.533-3.823-8.533-8.533v-51.2C119.467,3.823,123.29,0,128,0
		c4.71,0,8.533,3.823,8.533,8.533v51.2C136.533,64.444,132.71,68.267,128,68.267z"/>
	<path style="fill:#126099;" d="M384,68.267c-4.71,0-8.533-3.823-8.533-8.533v-51.2C375.467,3.823,379.29,0,384,0
		s8.533,3.823,8.533,8.533v51.2C392.533,64.444,388.71,68.267,384,68.267z"/>
	<path style="fill:#126099;" d="M213.333,68.267c-4.71,0-8.533-3.823-8.533-8.533v-51.2c0-4.71,3.823-8.533,8.533-8.533
		s8.533,3.823,8.533,8.533v51.2C221.867,64.444,218.044,68.267,213.333,68.267z"/>
	<path style="fill:#126099;" d="M298.667,68.267c-4.71,0-8.533-3.823-8.533-8.533v-51.2c0-4.71,3.823-8.533,8.533-8.533
		s8.533,3.823,8.533,8.533v51.2C307.2,64.444,303.377,68.267,298.667,68.267z"/>
</g>
<polyline style="fill:#FFFFFF;" points="460.8,366.933 392.533,366.933 392.533,435.2 460.8,366.933 "/>
<g>
	<rect x="290.133" y="179.2" style="fill:#4398D1;" width="68.267" height="68.267"/>
	<rect x="153.6" y="315.733" style="fill:#4398D1;" width="68.267" height="68.267"/>
</g>
<g>
	<path style="fill:#BDBDBD;" d="M426.667,170.667H153.6c-4.71,0-8.533,3.823-8.533,8.533v59.733H85.333
		c-4.71,0-8.533,3.823-8.533,8.533V384c0,4.71,3.823,8.533,8.533,8.533h204.8c4.71,0,8.533-3.823,8.533-8.533v-59.733h128
		c4.71,0,8.533-3.823,8.533-8.533V179.2C435.2,174.49,431.377,170.667,426.667,170.667z M418.133,238.933h-51.2v-51.2h51.2V238.933z
		 M281.6,307.2h-51.2V256h51.2V307.2z M162.133,307.2V256h51.2v51.2H162.133z M213.333,324.267v51.2h-51.2v-51.2H213.333z
		 M230.4,238.933v-51.2h51.2v51.2H230.4z M298.667,187.733h51.2v51.2h-51.2V187.733z M162.133,187.733h51.2v51.2h-51.2V187.733z
		 M145.067,256v51.2h-51.2V256H145.067z M93.867,324.267h51.2v51.2h-51.2V324.267z M281.6,375.467h-51.2v-51.2h51.2V375.467z
		 M298.667,256h51.2v51.2h-51.2V256z M366.933,307.2V256h51.2v51.2H366.933z"/>
	<rect x="315.733" y="341.333" style="fill:#BDBDBD;" width="25.6" height="25.6"/>
	<rect x="102.4" y="196.267" style="fill:#BDBDBD;" width="25.6" height="25.6"/>
</g>
<path d="M85.333,392.533h204.8c4.71,0,8.533-3.823,8.533-8.533v-59.733h128c4.71,0,8.533-3.823,8.533-8.533V179.2
	c0-4.71-3.823-8.533-8.533-8.533H153.6c-4.71,0-8.533,3.823-8.533,8.533v59.733H85.333c-4.71,0-8.533,3.823-8.533,8.533V384
	C76.8,388.71,80.623,392.533,85.333,392.533z M366.933,187.733h51.2v51.2h-51.2V187.733z M366.933,256h51.2v51.2h-51.2V256z
	 M298.667,187.733h51.2v51.2h-51.2V187.733z M298.667,256h51.2v51.2h-51.2V256z M230.4,187.733h51.2v51.2h-51.2V187.733z M230.4,256
	h51.2v51.2h-51.2V256z M230.4,324.267h51.2v51.2h-51.2V324.267z M162.133,187.733h51.2v51.2h-51.2V187.733z M162.133,256h51.2v51.2
	h-51.2V256z M162.133,324.267h51.2v51.2h-51.2V324.267z M93.867,256h51.2v51.2h-51.2V256z M93.867,324.267h51.2v51.2h-51.2V324.267z
	"/>
<path d="M469.333,503.467V34.133c0-4.71-3.823-8.533-8.533-8.533h-68.267V8.533C392.533,3.823,388.71,0,384,0
	s-8.533,3.823-8.533,8.533V25.6H307.2V8.533c0-4.71-3.823-8.533-8.533-8.533s-8.533,3.823-8.533,8.533V25.6h-68.267V8.533
	c0-4.71-3.823-8.533-8.533-8.533S204.8,3.823,204.8,8.533V25.6h-68.267V8.533C136.533,3.823,132.71,0,128,0
	c-4.71,0-8.533,3.823-8.533,8.533V25.6H51.2c-4.71,0-8.533,3.823-8.533,8.533v469.333c0,4.71,3.823,8.533,8.533,8.533h409.6
	C465.51,512,469.333,508.177,469.333,503.467z M452.267,494.933H59.733v-17.067h392.533V494.933z M452.267,460.8H59.733v-17.067
	h332.8c2.27,0.017,4.446-0.879,6.059-2.475l53.675-53.76V460.8z M401.067,414.635v-39.168h39.168L401.067,414.635z M452.267,358.4
	h-59.733c-4.71,0-8.533,3.823-8.533,8.533v59.733H59.733V136.533h392.533V358.4z M452.267,119.467H59.733v-76.8h59.733v17.067
	c0,4.71,3.823,8.533,8.533,8.533c4.71,0,8.533-3.823,8.533-8.533V42.667H204.8v17.067c0,4.71,3.823,8.533,8.533,8.533
	s8.533-3.823,8.533-8.533V42.667h68.267v17.067c0,4.71,3.823,8.533,8.533,8.533s8.533-3.823,8.533-8.533V42.667h68.267v17.067
	c0,4.71,3.823,8.533,8.533,8.533s8.533-3.823,8.533-8.533V42.667h59.733V119.467z"/>
<rect x="315.733" y="341.333" width="25.6" height="25.6"/>
<rect x="102.4" y="196.267" width="25.6" height="25.6"/>
<g>
</g>
<g>
</g>
<g>
</g>
<g>
</g>
<g>
</g>
<g>
</g>
<g>
</g>
<g>
</g>
<g>
</g>
<g>
</g>
<g>
</g>
<g>
</g>
<g>
</g>
<g>
</g>
<g>
</g>
</svg>
