<?xml version="1.0" encoding="iso-8859-1"?>
<!-- Generator: Adobe Illustrator 19.0.0, SVG Export Plug-In . SVG Version: 6.00 Build 0)  -->
<svg version="1.1" id="Capa_1" xmlns="http://www.w3.org/2000/svg" xmlns:xlink="http://www.w3.org/1999/xlink" x="0px" y="0px"
	 viewBox="0 0 511.999 511.999" style="enable-background:new 0 0 511.999 511.999;" xml:space="preserve">
<path style="fill:#F7BB8F;" d="M162.142,119.455h-8.532c-14.138,0-25.597,11.459-25.597,25.597l0,0
	c0,14.138,11.459,25.597,25.597,25.597h8.532"/>
<rect x="213.311" y="247.442" style="fill:#FEC9A3;" width="85.325" height="68.26"/>
<path style="fill:#F7BB8F;" d="M213.337,247.442v32.338c26.775,13.763,58.55,13.763,85.325,0v-32.338H213.337z"/>
<path style="fill:#FEC9A3;" d="M255.999,8.532L255.999,8.532c51.835,0,93.857,42.022,93.857,93.857v76.792
	c0,51.835-42.022,93.857-93.857,93.857l0,0c-51.835,0-93.857-42.022-93.857-93.857V102.39
	C162.142,50.555,204.165,8.532,255.999,8.532z"/>
<path style="fill:#F7BB8F;" d="M349.857,170.65h8.533c14.138,0,25.597-11.459,25.597-25.597l0,0
	c0-14.138-11.459-25.597-25.597-25.597h-8.533"/>
<g>
	<circle style="fill:#875339;" cx="204.779" cy="145.052" r="17.065"/>
	<circle style="fill:#875339;" cx="307.169" cy="145.052" r="17.065"/>
</g>
<g>
	<path style="fill:#F0A789;" d="M264.532,196.247h-25.597c-2.688,0-5.213-1.263-6.826-3.413c-1.587-2.125-2.09-4.872-1.365-7.423
		l17.065-59.727l16.382,4.608l-13.908,48.891h14.249V196.247z"/>
	<path style="fill:#F0A789;" d="M248.918,230.377h-9.983v-17.065h9.983c13.2,0.026,25.853-5.23,35.154-14.591l12.116,12.116
		C283.67,223.406,266.648,230.437,248.918,230.377z"/>
</g>
<path style="fill:#6B402A;" d="M196.272,68.26V29.949c-21.621,17.841-34.138,44.412-34.13,72.441v17.065
	C182.705,110.717,196.11,90.598,196.272,68.26z"/>
<path style="fill:#875339;" d="M162.142,8.532c0,32.987,26.741,59.727,59.727,59.727h93.857
	c1.451,21.928,14.445,41.425,34.13,51.195V93.857c0-47.125-38.2-85.325-85.325-85.325H162.142z"/>
<path style="fill:#DBDBDB;" d="M358.389,315.702H153.61c-37.697,0-68.26,30.563-68.26,68.26v127.987h341.299V383.962
	C426.649,346.265,396.086,315.702,358.389,315.702z"/>
<path style="fill:#D1D1D1;" d="M85.35,483.877v28.072h341.299V383.962c0.017-13.481-3.968-26.664-11.434-37.884
	C329.038,449.235,171.357,476.71,85.35,483.877z"/>
<polygon style="fill:#4398D1;" points="281.597,315.702 230.402,315.702 247.467,349.832 230.402,477.819 255.999,503.416 
	281.597,477.819 264.532,349.832 "/>
<g>
	<rect x="136.519" y="392.494" style="fill:#BDBDBD;" width="17.065" height="119.455"/>
	<rect x="358.364" y="392.494" style="fill:#BDBDBD;" width="17.065" height="119.455"/>
</g>
<path style="fill:#3E8CC7;" d="M230.402,477.819l25.597,25.597l25.597-25.597l-7.765-58.362
	c-12.278,7.031-25.017,13.217-38.14,18.516L230.402,477.819z"/>
<path d="M93.882,383.962c0-32.987,26.741-59.727,59.727-59.727l0,0h71.502l13.823,27.048L221.87,476.71
	c-0.358,2.628,0.52,5.282,2.389,7.167l25.597,25.597c3.319,3.345,8.72,3.37,12.065,0.051c0.017-0.017,0.034-0.034,0.051-0.051
	l25.597-25.597c1.869-1.886,2.747-4.539,2.389-7.167l-17.065-125.427l13.993-27.048h71.502c32.987,0,59.727,26.741,59.727,59.727
	l0,0v127.987h17.065V383.962c0-42.415-34.377-76.792-76.792-76.792l0,0h-51.195v-39.42c31.647-18.268,51.161-52.023,51.195-88.567
	c18.848,0,34.13-15.282,34.13-34.13s-15.282-34.13-34.13-34.13V93.857C358.389,42.022,316.367,0,264.532,0h-102.39
	c-4.71,0-8.532,3.823-8.532,8.532c0.026,15.111,5.068,29.787,14.335,41.724c-9.403,15.759-14.36,33.78-14.335,52.133v8.532
	c-18.848,0-34.13,15.282-34.13,34.13s15.282,34.13,34.13,34.13c0.034,36.545,19.548,70.299,51.195,88.567v39.42H153.61
	c-42.415,0-76.792,34.377-76.792,76.792l0,0v127.987h17.065V383.962z M358.389,127.987c9.428,0,17.065,7.637,17.065,17.065
	c0,9.428-7.637,17.065-17.065,17.065V127.987z M153.61,162.117c-9.428,0-17.065-7.637-17.065-17.065
	c0-9.428,7.637-17.065,17.065-17.065V162.117z M255.999,491.386l-16.553-17.065l15.529-115.956h2.048l15.529,116.383
	L255.999,491.386z M244.225,324.234h23.55l-8.533,17.065h-6.485L244.225,324.234z M290.129,307.169h-68.26v-31.57
	c22.056,7.961,46.203,7.961,68.26,0V307.169z M264.532,17.065c42.415,0,76.792,34.377,76.792,76.792v9.386
	c-9.983-9.275-16.075-21.988-17.065-35.58c-0.316-4.48-4.044-7.944-8.533-7.935H221.87c-24.992,0.017-46.348-18.021-50.512-42.662
	C171.357,17.065,264.532,17.065,264.532,17.065z M170.675,102.39c0.077-13.814,3.498-27.398,9.983-39.591
	c2.15,1.706,4.437,3.251,6.826,4.608c-0.776,13.746-6.903,26.638-17.065,35.922L170.675,102.39z M170.675,179.182v-54.864
	c18.106-10.768,30.367-29.147,33.362-50c5.802,1.647,11.8,2.474,17.833,2.474h86.605c3.626,19.847,15.58,37.185,32.85,47.611v54.779
	c0,47.125-38.2,85.325-85.325,85.325S170.675,226.307,170.675,179.182z"/>
<circle cx="204.779" cy="145.052" r="17.065"/>
<circle cx="307.169" cy="145.052" r="17.065"/>
<rect x="136.519" y="392.494" width="17.065" height="119.455"/>
<rect x="358.364" y="392.494" width="17.065" height="119.455"/>
<path d="M264.532,196.247v-17.065h-14.249l14.249-48.891l-17.065-4.608l-17.065,59.727c-0.725,2.551-0.222,5.299,1.365,7.423
	c1.613,2.15,4.138,3.413,6.826,3.413H264.532z"/>
<path d="M284.071,198.721c-9.3,9.36-21.954,14.616-35.154,14.591h-9.983v17.065h9.983c17.73,0.06,34.753-6.971,47.27-19.539
	L284.071,198.721z"/>
<g>
</g>
<g>
</g>
<g>
</g>
<g>
</g>
<g>
</g>
<g>
</g>
<g>
</g>
<g>
</g>
<g>
</g>
<g>
</g>
<g>
</g>
<g>
</g>
<g>
</g>
<g>
</g>
<g>
</g>
</svg>
