<?xml version="1.0" encoding="iso-8859-1"?>
<!-- Generator: Adobe Illustrator 19.0.0, SVG Export Plug-In . SVG Version: 6.00 Build 0)  -->
<svg version="1.1" id="Capa_1" xmlns="http://www.w3.org/2000/svg" xmlns:xlink="http://www.w3.org/1999/xlink" x="0px" y="0px"
	 viewBox="0 0 512 512" style="enable-background:new 0 0 512 512;" xml:space="preserve">
<path style="fill:#5C3724;" d="M418.133,110.933h85.333v358.4c0,18.85-15.283,34.133-34.133,34.133H42.667
	c-18.85,0-34.133-15.283-34.133-34.133v-358.4h85.333"/>
<path style="fill:#543221;" d="M470.869,110.933C388.779,336.469,157.867,454.997,37.717,502.955
	c1.63,0.299,3.285,0.469,4.949,0.512h426.667c18.85,0,34.133-15.283,34.133-34.133v-358.4H470.869z"/>
<path style="fill:#5C3724;" d="M290.133,8.533h-68.267c-32.99,0-59.733,26.743-59.733,59.733v42.667h34.133V68.267
	c0-14.14,11.46-25.6,25.6-25.6h68.267c14.14,0,25.6,11.46,25.6,25.6v42.667h34.133V68.267
	C349.867,35.277,323.123,8.533,290.133,8.533z"/>
<path style="fill:#75462E;" d="M8.533,110.933v179.2c0,18.85,15.283,34.133,34.133,34.133h426.667
	c18.85,0,34.133-15.283,34.133-34.133v-179.2H8.533z"/>
<path style="fill:#543221;" d="M469.333,324.267H42.667c-18.85,0-34.133-15.283-34.133-34.133v25.6
	c0,18.85,15.283,34.133,34.133,34.133h426.667c18.85,0,34.133-15.283,34.133-34.133v-25.6
	C503.467,308.983,488.184,324.267,469.333,324.267z"/>
<path style="fill:#6B402A;" d="M459.179,110.933c-44.032,96.085-122.453,167.595-180.651,213.333h190.805
	c18.85,0,34.133-15.283,34.133-34.133v-179.2H459.179z"/>
<path style="fill:#875339;" d="M349.867,256v213.333c0,18.85,15.283,34.133,34.133,34.133s34.133-15.283,34.133-34.133V256H349.867z
	"/>
<rect x="349.867" y="384" style="fill:#75462E;" width="68.267" height="17.067"/>
<rect x="349.867" y="93.867" style="fill:#875339;" width="68.267" height="102.144"/>
<path style="fill:#92989E;" d="M426.667,435.2h-8.533v-42.667c0-4.71-3.823-8.533-8.533-8.533h-51.2
	c-4.71,0-8.533,3.823-8.533,8.533V435.2h-8.533c-4.71,0-8.533-3.823-8.533-8.533v-34.133c0-14.14,11.46-25.6,25.6-25.6h51.2
	c14.14,0,25.6,11.46,25.6,25.6v34.133C435.2,431.377,431.377,435.2,426.667,435.2z"/>
<g>
	<path style="fill:#7D8287;" d="M332.8,426.667c0,4.71,3.823,8.533,8.533,8.533h8.533v-20.651
		c-6.059,2.048-11.861,3.84-17.067,5.376V426.667z"/>
	<path style="fill:#7D8287;" d="M426.667,373.931c-4.318,3.994-8.943,7.646-13.824,10.923c3.132,1.289,5.205,4.301,5.291,7.68V435.2
		h8.533c4.71,0,8.533-3.823,8.533-8.533v-34.133C435.064,385.417,431.974,378.675,426.667,373.931z"/>
</g>
<path style="fill:#92989E;" d="M384,349.867L384,349.867c4.71,0,8.533,3.823,8.533,8.533v42.667c0,4.71-3.823,8.533-8.533,8.533l0,0
	c-4.71,0-8.533-3.823-8.533-8.533V358.4C375.467,353.69,379.29,349.867,384,349.867z"/>
<rect x="349.867" y="435.2" style="fill:#75462E;" width="68.267" height="17.067"/>
<g>
	<rect x="375.467" y="315.733" style="fill:#5C3724;" width="17.067" height="17.067"/>
	<rect x="375.467" y="281.6" style="fill:#5C3724;" width="17.067" height="17.067"/>
	<rect x="324.267" y="247.467" style="fill:#5C3724;" width="119.467" height="17.067"/>
	<rect x="324.267" y="187.733" style="fill:#5C3724;" width="119.467" height="17.067"/>
</g>
<g>
	<path style="fill:#543221;" d="M315.733,68.267v42.667h34.133V68.267c-0.034-14.763-5.538-28.988-15.445-39.936
		c-10.112,6.639-20.659,12.604-31.573,17.835C310.784,50.705,315.691,59.127,315.733,68.267z"/>
	<path style="fill:#543221;" d="M162.133,110.933h34.133V81.152c-12.032,2.56-23.552,4.608-34.133,6.229V110.933z"/>
</g>
<path style="fill:#875339;" d="M93.867,256v213.333c0,18.85,15.283,34.133,34.133,34.133s34.133-15.283,34.133-34.133V256H93.867z"
	/>
<rect x="93.867" y="384" style="fill:#75462E;" width="68.267" height="17.067"/>
<rect x="93.867" y="93.867" style="fill:#875339;" width="68.267" height="102.144"/>
<path style="fill:#92989E;" d="M170.667,435.2h-8.533v-42.667c0-4.71-3.823-8.533-8.533-8.533h-51.2
	c-4.71,0-8.533,3.823-8.533,8.533V435.2h-8.533c-4.71,0-8.533-3.823-8.533-8.533v-34.133c0-14.14,11.46-25.6,25.6-25.6h51.2
	c14.14,0,25.6,11.46,25.6,25.6v34.133C179.2,431.377,175.377,435.2,170.667,435.2z"/>
<g>
	<path style="fill:#7D8287;" d="M76.8,426.667c0,4.71,3.823,8.533,8.533,8.533h8.533v-20.651c-6.059,2.048-11.861,3.84-17.067,5.376
		V426.667z"/>
	<path style="fill:#7D8287;" d="M170.667,373.931c-4.318,3.994-8.943,7.646-13.824,10.923c3.132,1.289,5.205,4.301,5.291,7.68V435.2
		h8.533c4.71,0,8.533-3.823,8.533-8.533v-34.133C179.063,385.417,175.974,378.675,170.667,373.931z"/>
</g>
<path style="fill:#92989E;" d="M128,349.867L128,349.867c4.71,0,8.533,3.823,8.533,8.533v42.667c0,4.71-3.823,8.533-8.533,8.533l0,0
	c-4.71,0-8.533-3.823-8.533-8.533V358.4C119.467,353.69,123.29,349.867,128,349.867z"/>
<rect x="93.867" y="435.2" style="fill:#75462E;" width="68.267" height="17.067"/>
<g>
	<rect x="119.467" y="315.733" style="fill:#5C3724;" width="17.067" height="17.067"/>
	<rect x="119.467" y="281.6" style="fill:#5C3724;" width="17.067" height="17.067"/>
	<rect x="68.267" y="247.467" style="fill:#5C3724;" width="119.467" height="17.067"/>
	<rect x="68.267" y="187.733" style="fill:#5C3724;" width="119.467" height="17.067"/>
</g>
<path d="M503.467,102.4h-76.8v-8.533c0-4.71-3.823-8.533-8.533-8.533H358.4V68.267C358.4,30.566,327.834,0,290.133,0h-68.267
	c-37.7,0-68.267,30.566-68.267,68.267v17.067H93.867c-4.71,0-8.533,3.823-8.533,8.533v8.533h-76.8
	c-4.147-0.077-7.748,2.842-8.533,6.912l0,0v360.021C0,492.894,19.106,512,42.667,512h426.667C492.894,512,512,492.894,512,469.333
	V107.861h-0.597C510.14,104.576,506.982,102.409,503.467,102.4z M358.4,110.933V102.4h51.2v85.333h-51.2V110.933z M170.667,93.867
	v-25.6c0-28.279,22.921-51.2,51.2-51.2h68.267c28.279,0,51.2,22.921,51.2,51.2V102.4h-17.067V68.267
	c0-18.85-15.283-34.133-34.133-34.133h-68.267c-18.85,0-34.133,15.283-34.133,34.133V102.4h-17.067V93.867z M307.2,68.267V102.4
	H204.8V68.267c0-9.429,7.637-17.067,17.067-17.067h68.267C299.563,51.2,307.2,58.837,307.2,68.267z M102.4,102.4h51.2v85.333h-51.2
	V102.4z M42.667,494.933c-14.14,0-25.6-11.46-25.6-25.6V324.267c7.364,5.581,16.358,8.585,25.6,8.533h42.667v40.789
	c-5.393,4.821-8.491,11.708-8.533,18.944v34.133c0,4.71,3.823,8.533,8.533,8.533v34.133c-0.051,9.242,2.953,18.236,8.533,25.6
	H42.667z M153.6,469.333c0,14.14-11.46,25.6-25.6,25.6c-14.14,0-25.6-11.46-25.6-25.6v-17.067h51.2V469.333z M153.6,435.2h-51.2V384
	h17.067v25.6h17.067V384H153.6V435.2z M153.6,366.933h-17.067v-17.067h-17.067v17.067H102.4v-102.4h51.2V366.933z M162.133,494.933
	c5.581-7.364,8.585-16.358,8.533-25.6V435.2c4.71,0,8.533-3.823,8.533-8.533v-34.133c-0.043-7.236-3.14-14.123-8.533-18.944V332.8
	h170.667v40.789c-5.393,4.821-8.491,11.708-8.533,18.944v34.133c0,4.71,3.823,8.533,8.533,8.533v34.133
	c-0.051,9.242,2.953,18.236,8.533,25.6H162.133z M409.6,469.333c0,14.14-11.46,25.6-25.6,25.6c-14.14,0-25.6-11.46-25.6-25.6
	v-17.067h51.2V469.333z M409.6,435.2h-51.2V384h17.067v25.6h17.067V384H409.6V435.2z M409.6,366.933h-17.067v-17.067h-17.067v17.067
	H358.4v-102.4h51.2V366.933z M494.933,469.333c0,14.14-11.46,25.6-25.6,25.6h-51.2c5.581-7.364,8.585-16.358,8.533-25.6V435.2
	c4.71,0,8.533-3.823,8.533-8.533v-34.133c-0.043-7.236-3.14-14.123-8.533-18.944V332.8h42.667c9.242,0.051,18.236-2.953,25.6-8.533
	V469.333z M494.933,290.133c0,14.14-11.46,25.6-25.6,25.6h-42.667v-51.2h17.067v-17.067H324.267v17.067h17.067v51.2H170.667v-51.2
	h17.067v-17.067H68.267v17.067h17.067v51.2H42.667c-14.14,0-25.6-11.46-25.6-25.6V119.467h68.267v68.267H68.267V204.8h119.467
	v-17.067h-17.067v-68.267h170.667v68.267h-17.067V204.8h119.467v-17.067h-17.067v-68.267h68.267V290.133z"/>
<rect x="119.467" y="315.733" width="17.067" height="17.067"/>
<rect x="119.467" y="281.6" width="17.067" height="17.067"/>
<rect x="375.467" y="315.733" width="17.067" height="17.067"/>
<rect x="375.467" y="281.6" width="17.067" height="17.067"/>
<g>
</g>
<g>
</g>
<g>
</g>
<g>
</g>
<g>
</g>
<g>
</g>
<g>
</g>
<g>
</g>
<g>
</g>
<g>
</g>
<g>
</g>
<g>
</g>
<g>
</g>
<g>
</g>
<g>
</g>
</svg>
