<?xml version="1.0" encoding="iso-8859-1"?>
<!-- Generator: Adobe Illustrator 19.0.0, SVG Export Plug-In . SVG Version: 6.00 Build 0)  -->
<svg version="1.1" id="Capa_1" xmlns="http://www.w3.org/2000/svg" xmlns:xlink="http://www.w3.org/1999/xlink" x="0px" y="0px"
	 viewBox="0 0 512 512" style="enable-background:new 0 0 512 512;" xml:space="preserve">
<g>
	<rect x="68.267" y="332.8" style="fill:#F46B27;" width="34.133" height="102.4"/>
	<rect x="145.067" y="162.133" style="fill:#F46B27;" width="34.133" height="273.067"/>
	<rect x="221.867" y="238.933" style="fill:#F46B27;" width="34.133" height="196.267"/>
	<rect x="298.667" y="102.4" style="fill:#F46B27;" width="34.133" height="332.8"/>
	<rect x="375.467" y="187.733" style="fill:#F46B27;" width="34.133" height="247.467"/>
	<rect x="452.267" y="281.6" style="fill:#F46B27;" width="34.133" height="153.6"/>
</g>
<g>
	<path style="fill:#EB5C15;" d="M68.267,435.2H102.4v-32c-13.995,0-25.6-0.597-34.133-1.024V435.2z"/>
	<path style="fill:#EB5C15;" d="M145.067,435.2H179.2v-33.451c-11.947,0.597-23.381,1.024-34.133,1.28V435.2z"/>
	<path style="fill:#EB5C15;" d="M221.867,435.2H256v-40.363c-11.605,1.536-23.04,2.731-34.133,3.755V435.2z"/>
	<path style="fill:#EB5C15;" d="M298.667,435.2H332.8v-53.504c-11.435,2.475-22.869,4.779-34.133,6.741V435.2z"/>
	<path style="fill:#EB5C15;" d="M375.467,435.2H409.6v-75.008c-11.264,3.925-22.699,7.509-34.133,10.752V435.2z"/>
	<path style="fill:#EB5C15;" d="M452.267,435.2H486.4V326.144c-11.093,6.144-22.443,11.861-34.133,17.067V435.2z"/>
</g>
<path style="fill:#4398D1;" d="M34.133,426.667V0H17.067v17.067H0v17.067h17.067v85.333H0v17.067h17.067v85.333H0v17.067h17.067
	v85.333H0v17.067h17.067V435.2c0,4.71,3.823,8.533,8.533,8.533H512v-17.067H34.133z"/>
<g>
	<rect x="162.133" y="494.933" style="fill:#87CED9;" width="17.067" height="17.067"/>
	<rect x="196.267" y="494.933" style="fill:#87CED9;" width="17.067" height="17.067"/>
	<rect x="230.4" y="494.933" style="fill:#87CED9;" width="17.067" height="17.067"/>
	<rect x="264.533" y="494.933" style="fill:#87CED9;" width="17.067" height="17.067"/>
	<rect x="298.667" y="494.933" style="fill:#87CED9;" width="17.067" height="17.067"/>
	<rect x="332.8" y="494.933" style="fill:#87CED9;" width="17.067" height="17.067"/>
</g>
<g>
	<rect x="59.733" y="460.8" style="fill:#DBDBDB;" width="51.2" height="17.067"/>
	<rect x="136.533" y="460.8" style="fill:#DBDBDB;" width="51.2" height="17.067"/>
	<rect x="213.333" y="460.8" style="fill:#DBDBDB;" width="51.2" height="17.067"/>
	<rect x="290.133" y="460.8" style="fill:#DBDBDB;" width="51.2" height="17.067"/>
	<rect x="366.933" y="460.8" style="fill:#DBDBDB;" width="51.2" height="17.067"/>
	<rect x="443.733" y="460.8" style="fill:#DBDBDB;" width="51.2" height="17.067"/>
</g>
<rect x="162.133" y="494.933" width="17.067" height="17.067"/>
<rect x="196.267" y="494.933" width="17.067" height="17.067"/>
<rect x="230.4" y="494.933" width="17.067" height="17.067"/>
<rect x="264.533" y="494.933" width="17.067" height="17.067"/>
<rect x="298.667" y="494.933" width="17.067" height="17.067"/>
<rect x="332.8" y="494.933" width="17.067" height="17.067"/>
<path d="M494.933,281.6c0-4.71-3.823-8.533-8.533-8.533h-34.133c-4.71,0-8.533,3.823-8.533,8.533v145.067h-25.6V187.733
	c0-4.71-3.823-8.533-8.533-8.533h-34.133c-4.71,0-8.533,3.823-8.533,8.533v238.933h-25.6V102.4c0-4.71-3.823-8.533-8.533-8.533
	h-34.133c-4.71,0-8.533,3.823-8.533,8.533v324.267h-25.6V238.933c0-4.71-3.823-8.533-8.533-8.533h-34.133
	c-4.71,0-8.533,3.823-8.533,8.533v187.733h-25.6V162.133c0-4.71-3.823-8.533-8.533-8.533h-34.133c-4.71,0-8.533,3.823-8.533,8.533
	v264.533h-25.6V332.8c0-4.71-3.823-8.533-8.533-8.533H68.267c-4.71,0-8.533,3.823-8.533,8.533v93.867h-25.6V0H17.067v17.067H0
	v17.067h17.067v85.333H0v17.067h17.067v85.333H0v17.067h17.067v85.333H0v17.067h17.067V435.2c0,4.71,3.823,8.533,8.533,8.533H512
	v-17.067h-17.067V281.6z M93.867,426.667H76.8v-85.333h17.067V426.667z M170.667,426.667H153.6v-256h17.067V426.667z
	 M247.467,426.667H230.4v-179.2h17.067V426.667z M324.267,426.667H307.2V110.933h17.067V426.667z M401.067,426.667H384v-230.4
	h17.067V426.667z M477.867,426.667H460.8V290.133h17.067V426.667z"/>
<rect x="59.733" y="460.8" width="51.2" height="17.067"/>
<rect x="136.533" y="460.8" width="51.2" height="17.067"/>
<rect x="213.333" y="460.8" width="51.2" height="17.067"/>
<rect x="290.133" y="460.8" width="51.2" height="17.067"/>
<rect x="366.933" y="460.8" width="51.2" height="17.067"/>
<rect x="443.733" y="460.8" width="51.2" height="17.067"/>
<g>
</g>
<g>
</g>
<g>
</g>
<g>
</g>
<g>
</g>
<g>
</g>
<g>
</g>
<g>
</g>
<g>
</g>
<g>
</g>
<g>
</g>
<g>
</g>
<g>
</g>
<g>
</g>
<g>
</g>
</svg>
