<?xml version="1.0" encoding="iso-8859-1"?>
<!-- Generator: Adobe Illustrator 19.0.0, SVG Export Plug-In . SVG Version: 6.00 Build 0)  -->
<svg version="1.1" id="Capa_1" xmlns="http://www.w3.org/2000/svg" xmlns:xlink="http://www.w3.org/1999/xlink" x="0px" y="0px"
	 viewBox="0 0 512 512" style="enable-background:new 0 0 512 512;" xml:space="preserve">
<polygon style="fill:#4398D1;" points="503.467,187.724 8.533,187.724 8.533,153.59 256,42.657 503.467,153.59 "/>
<circle style="fill:#3E8CC7;" cx="256" cy="119.457" r="34.133"/>
<g>
	<rect x="8.533" y="435.19" style="fill:#4398D1;" width="494.933" height="34.133"/>
	<rect x="42.667" y="221.857" style="fill:#4398D1;" width="68.267" height="179.2"/>
</g>
<rect x="68.267" y="247.457" style="fill:#3582BD;" width="17.067" height="128"/>
<g>
	<polyline style="fill:#4398D1;" points="25.6,435.19 25.6,401.057 486.4,401.057 486.4,435.19 	"/>
	<rect x="25.6" y="187.724" style="fill:#4398D1;" width="460.8" height="34.133"/>
</g>
<g>
	<rect x="25.6" y="187.724" style="fill:#3E8CC7;" width="460.8" height="17.067"/>
	<rect x="25.6" y="418.124" style="fill:#3E8CC7;" width="460.8" height="17.067"/>
</g>
<rect x="401.067" y="221.857" style="fill:#4398D1;" width="68.267" height="179.2"/>
<rect x="426.667" y="247.457" style="fill:#3582BD;" width="17.067" height="128"/>
<rect x="162.133" y="221.857" style="fill:#4398D1;" width="68.267" height="179.2"/>
<rect x="187.733" y="247.457" style="fill:#3582BD;" width="17.067" height="128"/>
<rect x="281.6" y="221.857" style="fill:#4398D1;" width="68.267" height="179.2"/>
<g>
	<rect x="42.667" y="221.857" style="fill:#3E8CC7;" width="68.267" height="17.067"/>
	<rect x="401.067" y="221.857" style="fill:#3E8CC7;" width="68.267" height="17.067"/>
	<rect x="162.133" y="221.857" style="fill:#3E8CC7;" width="68.267" height="17.067"/>
	<rect x="281.6" y="221.857" style="fill:#3E8CC7;" width="68.267" height="17.067"/>
</g>
<rect x="307.2" y="247.457" style="fill:#3582BD;" width="17.067" height="128"/>
<g>
	<rect x="8.533" y="452.257" style="fill:#3E8CC7;" width="494.933" height="17.067"/>
	<rect x="42.667" y="383.99" style="fill:#3E8CC7;" width="68.267" height="17.067"/>
	<rect x="401.067" y="383.99" style="fill:#3E8CC7;" width="68.267" height="17.067"/>
	<rect x="162.133" y="383.99" style="fill:#3E8CC7;" width="68.267" height="17.067"/>
	<rect x="281.6" y="383.99" style="fill:#3E8CC7;" width="68.267" height="17.067"/>
</g>
<path d="M506.965,145.825L259.499,34.892c-2.227-0.998-4.77-0.998-6.997,0L5.035,145.825C1.98,147.199,0.009,150.237,0,153.59
	v34.133c0,4.71,3.823,8.533,8.533,8.533h8.533v25.6c0,4.71,3.823,8.533,8.533,8.533h8.533v162.133H25.6
	c-4.71,0-8.533,3.823-8.533,8.533v25.6H8.533c-4.71,0-8.533,3.823-8.533,8.533v34.133c0,4.71,3.823,8.533,8.533,8.533h494.933
	c4.71,0,8.533-3.823,8.533-8.533V435.19c0-4.71-3.823-8.533-8.533-8.533h-8.533v-25.6c0-4.71-3.823-8.533-8.533-8.533h-8.533V230.39
	h8.533c4.71,0,8.533-3.823,8.533-8.533v-25.6h8.533c4.71,0,8.533-3.823,8.533-8.533V153.59
	C511.991,150.237,510.02,147.199,506.965,145.825z M34.133,409.59h443.733v17.067H34.133V409.59z M51.2,392.524V230.39h51.2v162.133
	H51.2z M119.467,392.524V230.39H153.6v162.133H119.467z M170.667,392.524V230.39h51.2v162.133H170.667z M238.933,392.524V230.39
	h34.133v162.133H238.933z M290.133,392.524V230.39h51.2v162.133H290.133z M358.4,392.524V230.39h34.133v162.133H358.4z
	 M409.6,392.524V230.39h51.2v162.133H409.6z M494.933,443.724v17.067H17.067v-17.067H494.933z M477.867,213.324H34.133v-17.067
	h443.733V213.324z M494.933,179.19H17.067v-20.053L256,52.044l238.933,107.093V179.19z"/>
<path d="M213.333,119.457c0,23.561,19.106,42.667,42.667,42.667c23.561,0,42.667-19.106,42.667-42.667S279.561,76.79,256,76.79
	S213.333,95.897,213.333,119.457z M281.6,119.457c0,14.14-11.46,25.6-25.6,25.6c-14.14,0-25.6-11.46-25.6-25.6s11.46-25.6,25.6-25.6
	C270.14,93.857,281.6,105.317,281.6,119.457z"/>
<rect x="68.267" y="247.457" width="17.067" height="128"/>
<rect x="426.667" y="247.457" width="17.067" height="128"/>
<rect x="187.733" y="247.457" width="17.067" height="128"/>
<rect x="307.2" y="247.457" width="17.067" height="128"/>
<g>
</g>
<g>
</g>
<g>
</g>
<g>
</g>
<g>
</g>
<g>
</g>
<g>
</g>
<g>
</g>
<g>
</g>
<g>
</g>
<g>
</g>
<g>
</g>
<g>
</g>
<g>
</g>
<g>
</g>
</svg>
