<?xml version="1.0" encoding="iso-8859-1"?>
<!-- Generator: Adobe Illustrator 19.0.0, SVG Export Plug-In . SVG Version: 6.00 Build 0)  -->
<svg version="1.1" id="Capa_1" xmlns="http://www.w3.org/2000/svg" xmlns:xlink="http://www.w3.org/1999/xlink" x="0px" y="0px"
	 viewBox="0 0 512 512" style="enable-background:new 0 0 512 512;" xml:space="preserve">
<polygon style="fill:#D9D9D9;" points="93.867,435.2 93.867,8.533 315.733,8.533 401.067,93.867 401.067,435.2 "/>
<polygon style="fill:#DBDBDB;" points="401.067,93.867 315.733,93.867 315.733,8.533 "/>
<g>
	<rect x="128" y="34.133" style="fill:#BDBDBD;" width="162.133" height="17.067"/>
	
		<rect x="140.814" y="55.068" transform="matrix(-0.0166 0.9999 -0.9999 -0.0166 228.2181 -71.6563)" style="fill:#BDBDBD;" width="17.067" height="42.668"/>
	<rect x="187.733" y="68.267" style="fill:#BDBDBD;" width="102.4" height="17.067"/>
	<path style="fill:#BDBDBD;" d="M358.4,128H247.467v17.067h102.4V179.2h-102.4v17.067h102.4V230.4h-102.4v17.067h102.4V281.6h-102.4
		v17.067h102.4V332.8h-102.4v17.067h102.4V384h-102.4v17.067H358.4c4.71,0,8.533-3.823,8.533-8.533v-256
		C366.933,131.823,363.11,128,358.4,128z"/>
</g>
<rect x="8.533" y="110.933" style="fill:#4398D1;" width="273.067" height="392.533"/>
<polygon style="fill:#3E8CC7;" points="46.421,503.467 281.6,503.467 281.6,110.933 239.616,110.933 "/>
<rect x="42.667" y="153.6" style="fill:#87CED9;" width="204.8" height="68.267"/>
<polygon style="fill:#4398D1;" points="469.333,68.267 469.333,366.933 452.267,384 435.2,366.933 435.2,68.267 "/>
<polygon style="fill:#6CBBC7;" points="92.928,221.867 247.467,221.867 247.467,153.6 200.789,153.6 "/>
<g>
	<rect x="102.4" y="179.2" style="fill:#3E8CC7;" width="17.067" height="17.067"/>
	<rect x="136.533" y="179.2" style="fill:#3E8CC7;" width="17.067" height="17.067"/>
	<rect x="170.667" y="179.2" style="fill:#3E8CC7;" width="17.067" height="17.067"/>
	<rect x="204.8" y="179.2" style="fill:#3E8CC7;" width="17.067" height="17.067"/>
</g>
<g>
	<rect x="51.2" y="273.067" style="fill:#FFA83D;" width="34.133" height="34.133"/>
	<rect x="102.4" y="273.067" style="fill:#FFA83D;" width="34.133" height="34.133"/>
	<rect x="153.6" y="273.067" style="fill:#FFA83D;" width="34.133" height="34.133"/>
	<rect x="204.8" y="273.067" style="fill:#FFA83D;" width="34.133" height="34.133"/>
	<rect x="51.2" y="324.267" style="fill:#FFA83D;" width="34.133" height="34.133"/>
	<rect x="102.4" y="324.267" style="fill:#FFA83D;" width="34.133" height="34.133"/>
	<rect x="153.6" y="324.267" style="fill:#FFA83D;" width="34.133" height="34.133"/>
	<rect x="204.8" y="324.267" style="fill:#FFA83D;" width="34.133" height="34.133"/>
	<rect x="51.2" y="375.467" style="fill:#FFA83D;" width="34.133" height="34.133"/>
	<rect x="102.4" y="375.467" style="fill:#FFA83D;" width="34.133" height="34.133"/>
	<rect x="153.6" y="375.467" style="fill:#FFA83D;" width="34.133" height="34.133"/>
</g>
<rect x="204.8" y="375.467" style="fill:#DE4C3C;" width="34.133" height="85.333"/>
<g>
	<rect x="51.2" y="426.667" style="fill:#FFA83D;" width="34.133" height="34.133"/>
	<rect x="102.4" y="426.667" style="fill:#FFA83D;" width="34.133" height="34.133"/>
	<rect x="153.6" y="426.667" style="fill:#FFA83D;" width="34.133" height="34.133"/>
</g>
<polygon style="fill:#3E8CC7;" points="452.267,68.267 452.267,384 469.333,366.933 469.333,68.267 "/>
<g>
	<path style="fill:#126099;" d="M512,221.867h-17.067V110.933H435.2V93.867h68.267c4.71,0,8.533,3.823,8.533,8.533V221.867z"/>
	<rect x="435.2" y="196.267" style="fill:#126099;" width="34.133" height="17.067"/>
</g>
<rect x="315.733" y="93.867" style="fill:#D1D1D1;" width="85.333" height="17.067"/>
<rect x="128" y="34.133" width="162.133" height="17.067"/>
<rect x="140.814" y="55.068" transform="matrix(-0.0166 0.9999 -0.9999 -0.0166 228.2181 -71.6563)" width="17.067" height="42.668"/>
<rect x="187.733" y="68.267" width="102.4" height="17.067"/>
<path d="M8.533,512H281.6c4.71,0,8.533-3.823,8.533-8.533v-59.733h110.933c4.71,0,8.533-3.823,8.533-8.533V93.867c0,0,0,0,0-0.512
	c-0.051-0.751-0.196-1.502-0.427-2.219c0.034-0.256,0.034-0.512,0-0.768c-0.41-0.93-0.956-1.792-1.621-2.56L322.219,2.475
	c-0.768-0.666-1.63-1.212-2.56-1.621h-0.768c-0.836-0.418-1.724-0.7-2.645-0.853H93.867c-4.71,0-8.533,3.823-8.533,8.533V102.4
	h-76.8c-4.71,0-8.533,3.823-8.533,8.533v392.533C0,508.177,3.823,512,8.533,512z M324.267,29.099l56.235,56.235h-56.235V29.099z
	 M102.4,17.067h204.8v76.8c0,4.71,3.823,8.533,8.533,8.533h76.8v324.267h-102.4v-25.6H358.4c4.71,0,8.533-3.823,8.533-8.533v-256
	c0-4.71-3.823-8.533-8.533-8.533h-68.267v-17.067c0-4.71-3.823-8.533-8.533-8.533H102.4V17.067z M349.867,196.267V230.4h-59.733
	v-34.133H349.867z M290.133,179.2v-34.133h59.733V179.2H290.133z M349.867,247.467V281.6h-59.733v-34.133H349.867z M349.867,298.667
	V332.8h-59.733v-34.133H349.867z M349.867,349.867V384h-59.733v-34.133H349.867z M17.067,119.467h256v375.467h-256V119.467z"/>
<path d="M247.467,145.067h-204.8c-4.71,0-8.533,3.823-8.533,8.533v68.267c0,4.71,3.823,8.533,8.533,8.533h204.8
	c4.71,0,8.533-3.823,8.533-8.533V153.6C256,148.89,252.177,145.067,247.467,145.067z M238.933,213.333H51.2v-51.2h187.733V213.333z"
	/>
<path d="M247.467,256h-204.8c-4.71,0-8.533,3.823-8.533,8.533v204.8c0,4.71,3.823,8.533,8.533,8.533h204.8
	c4.71,0,8.533-3.823,8.533-8.533v-204.8C256,259.823,252.177,256,247.467,256z M85.333,460.8H51.2v-34.133h34.133V460.8z
	 M85.333,409.6H51.2v-34.133h34.133V409.6z M85.333,358.4H51.2v-34.133h34.133V358.4z M85.333,307.2H51.2v-34.133h34.133V307.2z
	 M136.533,460.8H102.4v-34.133h34.133V460.8z M136.533,409.6H102.4v-34.133h34.133V409.6z M136.533,358.4H102.4v-34.133h34.133
	V358.4z M136.533,307.2H102.4v-34.133h34.133V307.2z M187.733,460.8H153.6v-34.133h34.133V460.8z M187.733,409.6H153.6v-34.133
	h34.133V409.6z M187.733,358.4H153.6v-34.133h34.133V358.4z M187.733,307.2H153.6v-34.133h34.133V307.2z M238.933,460.8H204.8
	v-85.333h34.133V460.8z M238.933,358.4H204.8v-34.133h34.133V358.4z M238.933,307.2H204.8v-34.133h34.133V307.2z"/>
<rect x="102.4" y="179.2" width="17.067" height="17.067"/>
<rect x="136.533" y="179.2" width="17.067" height="17.067"/>
<rect x="170.667" y="179.2" width="17.067" height="17.067"/>
<rect x="204.8" y="179.2" width="17.067" height="17.067"/>
<path d="M503.467,93.867h-25.6v-25.6c0-4.71-3.823-8.533-8.533-8.533H435.2c-4.71,0-8.533,3.823-8.533,8.533v298.667
	c-0.017,2.27,0.879,4.446,2.475,6.059l17.067,17.067c3.319,3.345,8.721,3.371,12.066,0.051c0.017-0.017,0.034-0.034,0.051-0.051
	l17.067-17.067c1.596-1.613,2.492-3.789,2.475-6.059v-256h17.067v110.933H512V102.4C512,97.69,508.177,93.867,503.467,93.867z
	 M460.8,363.435l-8.533,8.533l-8.533-8.533V213.333H460.8V363.435z M460.8,196.267h-17.067v-85.333H460.8V196.267z M460.8,93.867
	h-17.067V76.8H460.8V93.867z"/>
<g>
</g>
<g>
</g>
<g>
</g>
<g>
</g>
<g>
</g>
<g>
</g>
<g>
</g>
<g>
</g>
<g>
</g>
<g>
</g>
<g>
</g>
<g>
</g>
<g>
</g>
<g>
</g>
<g>
</g>
</svg>
