<?xml version="1.0" encoding="iso-8859-1"?>
<!-- Generator: Adobe Illustrator 19.0.0, SVG Export Plug-In . SVG Version: 6.00 Build 0)  -->
<svg version="1.1" id="Layer_1" xmlns="http://www.w3.org/2000/svg" xmlns:xlink="http://www.w3.org/1999/xlink" x="0px" y="0px"
	 viewBox="0 0 512 512" style="enable-background:new 0 0 512 512;" xml:space="preserve">
<polygon style="fill:#FF615C;" points="503.83,40.851 8.17,40.851 8.17,173.753 256,206.434 503.83,173.753 "/>
<rect x="8.17" y="173.753" style="fill:#FFFFFF;" width="495.66" height="330.077"/>
<g>
	<path style="fill:#BEC3CC;" d="M132.085,8.17c-12.033,0-21.787,9.754-21.787,21.787v67.54c0,12.033,9.754,21.787,21.787,21.787
		s21.787-9.754,21.787-21.787v-67.54C153.872,17.924,144.118,8.17,132.085,8.17z"/>
	<path style="fill:#BEC3CC;" d="M379.915,8.17c-12.033,0-21.787,9.754-21.787,21.787v67.54c0,12.033,9.754,21.787,21.787,21.787
		s21.787-9.754,21.787-21.787v-67.54C401.702,17.924,391.948,8.17,379.915,8.17z"/>
</g>
<g>
	<path style="fill:#A7AFBA;" d="M471.149,290.918H40.851c-4.512,0-8.17-3.657-8.17-8.17c0-4.513,3.658-8.17,8.17-8.17h430.298
		c4.512,0,8.17,3.657,8.17,8.17C479.319,287.261,475.661,290.918,471.149,290.918z"/>
	<path style="fill:#A7AFBA;" d="M471.149,401.458H40.851c-4.512,0-8.17-3.657-8.17-8.17c0-4.513,3.658-8.17,8.17-8.17h430.298
		c4.512,0,8.17,3.657,8.17,8.17C479.319,397.801,475.661,401.458,471.149,401.458z"/>
	<path style="fill:#A7AFBA;" d="M132.085,479.319c-4.512,0-8.17-3.657-8.17-8.17V206.434c0-4.513,3.658-8.17,8.17-8.17
		s8.17,3.657,8.17,8.17v264.715C140.255,475.662,136.597,479.319,132.085,479.319z"/>
	<path style="fill:#A7AFBA;" d="M256,479.319c-4.512,0-8.17-3.657-8.17-8.17V206.434c0-4.513,3.658-8.17,8.17-8.17
		s8.17,3.657,8.17,8.17v264.715C264.17,475.662,260.512,479.319,256,479.319z"/>
	<path style="fill:#A7AFBA;" d="M379.915,479.319c-4.512,0-8.17-3.657-8.17-8.17V206.434c0-4.513,3.658-8.17,8.17-8.17
		c4.512,0,8.17,3.657,8.17,8.17v264.715C388.085,475.662,384.427,479.319,379.915,479.319z"/>
</g>
<g>
	<path style="fill:#080342;" d="M132.085,127.455c16.519,0,29.957-13.439,29.957-29.957v-67.54C162.043,13.439,148.604,0,132.085,0
		s-29.957,13.439-29.957,29.957v67.54C102.128,114.016,115.566,127.455,132.085,127.455z M118.468,29.957
		c0-7.509,6.108-13.617,13.617-13.617c7.509,0,13.617,6.108,13.617,13.617v67.54c0,7.509-6.108,13.617-13.617,13.617
		s-13.617-6.108-13.617-13.617V29.957z"/>
	<path style="fill:#080342;" d="M379.915,127.455c16.519,0,29.957-13.439,29.957-29.957v-67.54C409.872,13.439,396.434,0,379.915,0
		s-29.957,13.439-29.957,29.957v67.54C349.957,114.016,363.396,127.455,379.915,127.455z M366.298,29.957
		c0-7.509,6.108-13.617,13.617-13.617s13.617,6.108,13.617,13.617v67.54c0,7.509-6.108,13.617-13.617,13.617
		s-13.617-6.108-13.617-13.617V29.957z"/>
	<path style="fill:#080342;" d="M186.553,49.021h138.894c4.512,0,8.17-3.657,8.17-8.17s-3.658-8.17-8.17-8.17H186.553
		c-4.512,0-8.17,3.657-8.17,8.17S182.041,49.021,186.553,49.021z"/>
	<path style="fill:#080342;" d="M503.83,32.681h-69.447c-4.512,0-8.17,3.657-8.17,8.17s3.658,8.17,8.17,8.17h61.277v116.562H16.34
		V49.021h61.277c4.512,0,8.17-3.657,8.17-8.17s-3.658-8.17-8.17-8.17H8.17c-4.512,0-8.17,3.657-8.17,8.17V503.83
		c0,4.513,3.658,8.17,8.17,8.17h495.66c4.512,0,8.17-3.657,8.17-8.17V40.851C512,36.338,508.342,32.681,503.83,32.681z
		 M16.34,495.66V181.923H495.66V495.66H16.34z"/>
	<path style="fill:#080342;" d="M471.149,290.918c4.512,0,8.17-3.657,8.17-8.17c0-4.513-3.658-8.17-8.17-8.17h-83.064v-68.144
		c0-4.513-3.658-8.17-8.17-8.17c-4.512,0-8.17,3.657-8.17,8.17v68.144H264.17v-68.144c0-4.513-3.658-8.17-8.17-8.17
		s-8.17,3.657-8.17,8.17v68.144H140.255v-68.144c0-4.513-3.658-8.17-8.17-8.17s-8.17,3.657-8.17,8.17v68.144H40.851
		c-4.512,0-8.17,3.657-8.17,8.17c0,4.513,3.658,8.17,8.17,8.17h83.064v94.2H40.851c-4.512,0-8.17,3.657-8.17,8.17
		c0,4.513,3.658,8.17,8.17,8.17h83.064v69.69c0,4.513,3.658,8.17,8.17,8.17s8.17-3.657,8.17-8.17v-69.691H247.83v69.691
		c0,4.513,3.658,8.17,8.17,8.17s8.17-3.657,8.17-8.17v-69.691h107.574v69.691c0,4.513,3.658,8.17,8.17,8.17
		c4.512,0,8.17-3.657,8.17-8.17v-69.691h83.064c4.512,0,8.17-3.657,8.17-8.17c0-4.513-3.658-8.17-8.17-8.17h-83.064v-94.2h83.064
		V290.918z M140.255,385.118v-94.2H247.83v94.2H140.255z M371.745,385.118H264.17v-94.2h107.574V385.118z"/>
</g>
<g>
</g>
<g>
</g>
<g>
</g>
<g>
</g>
<g>
</g>
<g>
</g>
<g>
</g>
<g>
</g>
<g>
</g>
<g>
</g>
<g>
</g>
<g>
</g>
<g>
</g>
<g>
</g>
<g>
</g>
</svg>
