<?xml version="1.0" encoding="iso-8859-1"?>
<!-- Generator: Adobe Illustrator 19.0.0, SVG Export Plug-In . SVG Version: 6.00 Build 0)  -->
<svg version="1.1" id="Layer_1" xmlns="http://www.w3.org/2000/svg" xmlns:xlink="http://www.w3.org/1999/xlink" x="0px" y="0px"
	 viewBox="0 0 512 512" style="enable-background:new 0 0 512 512;" xml:space="preserve">
<polygon style="fill:#D8DBE2;" points="503.83,78.979 256,235.376 8.17,78.979 8.17,433.021 256,276.624 503.83,433.021 "/>
<polygon style="fill:#BEC3CC;" points="204.62,256 8.17,433.021 503.83,433.021 307.38,256 "/>
<polygon style="fill:#FFFFFF;" points="8.17,78.979 256,302.298 503.83,78.979 "/>
<path style="fill:#080342;" d="M503.83,70.809H8.17c-4.512,0-8.17,3.658-8.17,8.17v354.043c0,4.512,3.658,8.17,8.17,8.17h495.66
	c4.513,0,8.17-3.658,8.17-8.17V78.979C512,74.467,508.343,70.809,503.83,70.809z M100.326,349.98
	c-3.021-3.353-8.188-3.622-11.539-0.6L16.34,414.661V97.339L192.416,256l-79.35,71.502c-3.352,3.021-3.621,8.187-0.6,11.539
	c1.613,1.791,3.838,2.701,6.072,2.701c1.949,0,3.904-0.693,5.466-2.1l80.616-72.644l45.91,41.37c1.555,1.401,3.512,2.1,5.47,2.1
	s3.915-0.7,5.47-2.1l45.91-41.37l175.178,157.854H29.442l70.283-63.332C103.078,358.498,103.347,353.332,100.326,349.98z
	 M301.913,249.927C301.889,249.95,256,291.3,256,291.3l-45.89-41.352C210.088,249.929,29.442,87.149,29.442,87.149h453.116
	L301.913,249.927z M319.584,256L495.66,97.339v317.322L319.584,256z"/>
<g>
</g>
<g>
</g>
<g>
</g>
<g>
</g>
<g>
</g>
<g>
</g>
<g>
</g>
<g>
</g>
<g>
</g>
<g>
</g>
<g>
</g>
<g>
</g>
<g>
</g>
<g>
</g>
<g>
</g>
</svg>
