<?xml version="1.0" encoding="iso-8859-1"?>
<!-- Generator: Adobe Illustrator 19.0.0, SVG Export Plug-In . SVG Version: 6.00 Build 0)  -->
<svg version="1.1" id="Layer_1" xmlns="http://www.w3.org/2000/svg" xmlns:xlink="http://www.w3.org/1999/xlink" x="0px" y="0px"
	 viewBox="0 0 512 512" style="enable-background:new 0 0 512 512;" xml:space="preserve">
<rect x="8.17" y="8.17" style="fill:#EDEDEF;" width="495.66" height="495.66"/>
<g>
	<polygon style="fill:#A7AFBA;" points="249.072,202.853 364.856,87.068 318.638,40.851 471.149,40.851 471.149,193.362 
		424.932,147.144 309.147,262.928 	"/>
	<polygon style="fill:#A7AFBA;" points="202.853,249.072 87.068,364.856 40.851,318.638 40.851,471.149 193.362,471.149 
		147.144,424.932 262.928,309.147 	"/>
</g>
<g>
	<path style="fill:#080342;" d="M503.83,0H8.17C3.658,0,0,3.658,0,8.17v495.66c0,4.512,3.658,8.17,8.17,8.17h495.66
		c4.513,0,8.17-3.658,8.17-8.17V8.17C512,3.658,508.343,0,503.83,0z M495.66,495.66H16.34V16.34H495.66V495.66z"/>
	<path style="fill:#080342;" d="M303.369,268.706c1.596,1.595,3.688,2.393,5.778,2.393c2.092,0,4.182-0.797,5.778-2.393
		l110.006-110.008l40.44,40.44c2.338,2.337,5.85,3.036,8.904,1.771c3.053-1.265,5.044-4.244,5.044-7.548V40.851
		c0-4.512-3.657-8.17-8.17-8.17H318.638c-3.304,0-6.285,1.99-7.548,5.044c-1.265,3.053-0.566,6.567,1.77,8.903l40.441,40.44
		L243.294,197.076c-1.533,1.532-2.393,3.61-2.393,5.777s0.861,4.245,2.393,5.777L303.369,268.706z M370.634,92.845
		c1.532-1.532,2.392-3.61,2.392-5.777s-0.861-4.245-2.392-5.777l-32.271-32.27h124.616v124.616l-32.27-32.27
		c-3.194-3.192-8.366-3.191-11.555,0L309.147,251.375l-48.521-48.521L370.634,92.845z"/>
	<path style="fill:#080342;" d="M40.851,479.319h152.511c3.305,0,6.283-1.99,7.548-5.044s0.565-6.567-1.771-8.903l-40.44-40.44
		l40.56-40.56c3.191-3.191,3.191-8.364,0-11.554c-3.191-3.191-8.364-3.191-11.554,0l-46.338,46.338
		c-3.191,3.191-3.191,8.364,0,11.554l32.271,32.269H49.021V338.362l32.27,32.27c3.191,3.192,8.364,3.191,11.554,0l110.008-110.007
		l48.521,48.521l-40.56,40.561c-3.191,3.191-3.191,8.364,0,11.554c3.191,3.191,8.364,3.191,11.554,0l46.338-46.338
		c3.191-3.191,3.191-8.364,0-11.554l-60.075-60.075c-3.191-3.192-8.364-3.191-11.554,0L87.068,353.302l-40.44-40.44
		c-2.337-2.337-5.852-3.035-8.903-1.771c-3.053,1.265-5.044,4.244-5.044,7.548v152.511
		C32.681,475.661,36.339,479.319,40.851,479.319z"/>
</g>
<g>
</g>
<g>
</g>
<g>
</g>
<g>
</g>
<g>
</g>
<g>
</g>
<g>
</g>
<g>
</g>
<g>
</g>
<g>
</g>
<g>
</g>
<g>
</g>
<g>
</g>
<g>
</g>
<g>
</g>
</svg>
