<?xml version="1.0" encoding="iso-8859-1"?>
<!-- Generator: Adobe Illustrator 19.0.0, SVG Export Plug-In . SVG Version: 6.00 Build 0)  -->
<svg version="1.1" id="Layer_1" xmlns="http://www.w3.org/2000/svg" xmlns:xlink="http://www.w3.org/1999/xlink" x="0px" y="0px"
	 viewBox="0 0 512 512" style="enable-background:new 0 0 512 512;" xml:space="preserve">
<polygon style="fill:#D8DBE2;" points="256,25.833 43.574,238.258 43.574,503.83 174.298,503.83 256,471.149 337.702,503.83 
	468.426,503.83 468.426,238.258 "/>
<rect x="174.298" y="301.208" style="fill:#A7AFBA;" width="163.404" height="202.621"/>
<path style="fill:#FF615C;" d="M499.043,244.446L267.554,12.957c-6.38-6.381-16.727-6.381-23.109,0L12.956,244.446
	c-6.381,6.381-6.381,16.727,0,23.109c6.38,6.382,16.727,6.382,23.109,0L256,47.62l219.936,219.935c6.38,6.381,16.727,6.381,23.109,0
	C505.425,261.173,505.425,250.828,499.043,244.446z"/>
<g>
	<circle style="fill:#080342;" cx="299.574" cy="402.574" r="8.17"/>
	<path style="fill:#080342;" d="M468.426,293.145c-4.512,0-8.17,3.658-8.17,8.17v84.917c0,4.512,3.658,8.17,8.17,8.17
		c4.512,0,8.17-3.658,8.17-8.17v-84.917C476.596,296.803,472.938,293.145,468.426,293.145z"/>
	<path style="fill:#080342;" d="M468.426,410.743c-4.512,0-8.17,3.658-8.17,8.17v76.747H345.872V301.315
		c0-4.512-3.658-8.17-8.17-8.17H174.298c-4.512,0-8.17,3.658-8.17,8.17V495.66H51.745V301.185c0-4.512-3.658-8.17-8.17-8.17
		s-8.17,3.658-8.17,8.17V503.83c0,4.512,3.658,8.17,8.17,8.17h424.851c4.512,0,8.17-3.658,8.17-8.17v-84.917
		C476.596,414.401,472.938,410.743,468.426,410.743z M329.532,495.66H182.468V309.485h147.064V495.66z"/>
	<path style="fill:#080342;" d="M504.821,238.668L273.332,7.179C268.703,2.549,262.547,0,256,0c-6.547,0-12.703,2.549-17.332,7.179
		L7.179,238.668C2.549,243.298,0,249.453,0,256c0,6.547,2.549,12.702,7.179,17.331c4.63,4.63,10.785,7.18,17.332,7.18
		s12.703-2.549,17.332-7.179L256,59.174l214.158,214.157c4.63,4.63,10.785,7.18,17.332,7.18c6.547,0,12.703-2.549,17.332-7.179
		c4.63-4.63,7.179-10.785,7.179-17.332S509.451,243.298,504.821,238.668z M493.266,261.778c-1.544,1.544-3.594,2.392-5.777,2.392
		s-4.233-0.85-5.777-2.393L261.777,41.842c-1.595-1.595-3.686-2.393-5.777-2.393s-4.182,0.797-5.777,2.393L30.288,261.778
		c-1.544,1.544-3.594,2.392-5.777,2.392s-4.233-0.85-5.777-2.393c-3.185-3.185-3.185-8.368,0-11.554L250.223,18.734
		c1.544-1.544,3.595-2.393,5.777-2.393s4.233,0.85,5.777,2.393l231.489,231.489C496.453,253.408,496.453,258.592,493.266,261.778z"
		/>
</g>
<g>
</g>
<g>
</g>
<g>
</g>
<g>
</g>
<g>
</g>
<g>
</g>
<g>
</g>
<g>
</g>
<g>
</g>
<g>
</g>
<g>
</g>
<g>
</g>
<g>
</g>
<g>
</g>
<g>
</g>
</svg>
