<?xml version="1.0" encoding="iso-8859-1"?>
<!-- Generator: Adobe Illustrator 19.0.0, SVG Export Plug-In . SVG Version: 6.00 Build 0)  -->
<svg version="1.1" id="Layer_1" xmlns="http://www.w3.org/2000/svg" xmlns:xlink="http://www.w3.org/1999/xlink" x="0px" y="0px"
	 viewBox="0 0 512 512" style="enable-background:new 0 0 512 512;" xml:space="preserve">
<rect x="8.17" y="78.979" style="fill:#EDEDEF;" width="495.66" height="354.043"/>
<rect x="51.745" y="122.553" style="fill:#FFFFFF;" width="408.511" height="266.894"/>
<polygon style="fill:#4AAEE2;" points="341.787,270.979 256,356.766 170.213,270.979 51.745,389.447 460.255,389.447 "/>
<circle style="fill:#FFD47D;" cx="256" cy="185.867" r="32.681"/>
<g>
	<path style="fill:#080342;" d="M503.83,70.809H8.17c-4.512,0-8.17,3.658-8.17,8.17v354.043c0,4.512,3.658,8.17,8.17,8.17h495.66
		c4.512,0,8.17-3.658,8.17-8.17V78.979C512,74.467,508.342,70.809,503.83,70.809z M495.66,424.851H16.34V87.149H495.66V424.851z"/>
	<path style="fill:#080342;" d="M296.851,187.915c0-22.526-18.325-40.851-40.851-40.851c-22.526,0-40.851,18.325-40.851,40.851
		s18.325,40.851,40.851,40.851C278.526,228.766,296.851,210.441,296.851,187.915z M231.489,187.915
		c0-13.516,10.995-24.511,24.511-24.511s24.511,10.995,24.511,24.511S269.516,212.426,256,212.426S231.489,201.431,231.489,187.915z
		"/>
	<path style="fill:#080342;" d="M164.436,265.202l-85.787,85.787c-3.191,3.191-3.191,8.364,0,11.554
		c3.191,3.191,8.364,3.191,11.554,0l80.01-80.01l80.01,80.01c3.191,3.191,8.364,3.191,11.554,0l80.01-80.01l80.01,80.01
		c1.595,1.595,3.686,2.393,5.777,2.393c2.09,0,4.182-0.797,5.777-2.393c3.191-3.191,3.191-8.364,0-11.554l-85.787-85.787
		c-3.191-3.191-8.364-3.191-11.554,0L256,345.212l-80.01-80.01C172.8,262.011,167.626,262.011,164.436,265.202z"/>
	<path style="fill:#080342;" d="M51.745,397.617h408.511c4.512,0,8.17-3.658,8.17-8.17V272.34c0-4.512-3.658-8.17-8.17-8.17
		c-4.512,0-8.17,3.658-8.17,8.17v108.936H59.915V130.723h392.17V239.66c0,4.512,3.658,8.17,8.17,8.17c4.512,0,8.17-3.658,8.17-8.17
		V122.553c0-4.512-3.658-8.17-8.17-8.17H51.745c-4.512,0-8.17,3.658-8.17,8.17v266.894
		C43.574,393.959,47.233,397.617,51.745,397.617z"/>
</g>
<g>
</g>
<g>
</g>
<g>
</g>
<g>
</g>
<g>
</g>
<g>
</g>
<g>
</g>
<g>
</g>
<g>
</g>
<g>
</g>
<g>
</g>
<g>
</g>
<g>
</g>
<g>
</g>
<g>
</g>
</svg>
