<?xml version="1.0" encoding="iso-8859-1"?>
<!-- Generator: Adobe Illustrator 19.0.0, SVG Export Plug-In . SVG Version: 6.00 Build 0)  -->
<svg version="1.1" id="Layer_1" xmlns="http://www.w3.org/2000/svg" xmlns:xlink="http://www.w3.org/1999/xlink" x="0px" y="0px"
	 viewBox="0 0 512 512" style="enable-background:new 0 0 512 512;" xml:space="preserve">
<path style="fill:#D8DBE2;" d="M471.149,386.723H40.851c-18.05,0-32.681,14.631-32.681,32.681c0,18.05,14.631,32.681,32.681,32.681
	h430.298c18.05,0,32.681-14.631,32.681-32.681C503.83,401.355,489.199,386.723,471.149,386.723z"/>
<circle style="fill:#FFA72E;" cx="138.894" cy="419.404" r="65.362"/>
<path style="fill:#D8DBE2;" d="M471.149,59.915H40.851c-18.05,0-32.681,14.631-32.681,32.681s14.631,32.681,32.681,32.681h430.298
	c18.05,0,32.681-14.631,32.681-32.681S489.199,59.915,471.149,59.915z"/>
<circle style="fill:#FFA72E;" cx="138.894" cy="92.596" r="65.362"/>
<path style="fill:#D8DBE2;" d="M471.149,223.319H40.851C22.801,223.319,8.17,237.95,8.17,256s14.631,32.681,32.681,32.681h430.298
	c18.05,0,32.681-14.631,32.681-32.681S489.199,223.319,471.149,223.319z"/>
<circle style="fill:#FFA72E;" cx="373.106" cy="256" r="65.362"/>
<g>
	<path style="fill:#080342;" d="M471.149,215.149h-36.936c-13.207-19.691-35.666-32.681-61.107-32.681
		c-40.546,0-73.532,32.986-73.532,73.532c0,8.593,1.496,16.839,4.216,24.511H40.851c-13.516,0-24.511-10.995-24.511-24.511
		s10.995-24.511,24.511-24.511H280.65c4.513,0,8.17-3.658,8.17-8.17c0-4.512-3.657-8.17-8.17-8.17H40.851
		C18.325,215.149,0,233.474,0,256c0,22.526,18.325,40.851,40.851,40.851H312c13.207,19.691,35.666,32.681,61.107,32.681
		c25.441,0,47.899-12.99,61.107-32.681h36.936C493.675,296.851,512,278.526,512,256C512,233.474,493.675,215.149,471.149,215.149z
		 M373.106,313.191c-31.535,0-57.191-25.656-57.191-57.191s25.657-57.191,57.191-57.191s57.191,25.656,57.191,57.191
		S404.641,313.191,373.106,313.191z M471.149,280.511h-28.726c2.721-7.671,4.216-15.918,4.216-24.511s-1.496-16.839-4.216-24.511
		h28.726c13.515,0,24.511,10.995,24.511,24.511S484.664,280.511,471.149,280.511z"/>
	<path style="fill:#080342;" d="M40.851,133.447h36.936c13.207,19.691,35.666,32.681,61.107,32.681s47.899-12.99,61.107-32.681
		h271.149c22.526,0,40.851-18.325,40.851-40.851s-18.325-40.851-40.851-40.851H231.35c-4.512,0-8.17,3.658-8.17,8.17
		s3.658,8.17,8.17,8.17h239.799c13.515,0,24.511,10.995,24.511,24.511s-10.996,24.511-24.511,24.511H208.21
		c2.721-7.671,4.216-15.918,4.216-24.511c0-40.546-32.986-73.532-73.532-73.532c-25.44,0-47.899,12.99-61.107,32.681H40.851
		C18.325,51.745,0,70.07,0,92.596S18.325,133.447,40.851,133.447z M138.894,35.404c31.536,0,57.191,25.656,57.191,57.191
		s-25.656,57.191-57.191,57.191s-57.191-25.656-57.191-57.191S107.358,35.404,138.894,35.404z M40.851,68.085h28.726
		c-2.72,7.671-4.216,15.918-4.216,24.511s1.496,16.839,4.216,24.511H40.851c-13.516,0-24.511-10.995-24.511-24.511
		S27.335,68.085,40.851,68.085z"/>
	<path style="fill:#080342;" d="M471.149,378.553H231.35c-4.512,0-8.17,3.658-8.17,8.17s3.658,8.17,8.17,8.17h239.799
		c13.515,0,24.511,10.995,24.511,24.511s-10.996,24.511-24.511,24.511H208.21c2.721-7.671,4.216-15.918,4.216-24.511
		c0-40.546-32.986-73.532-73.532-73.532c-25.44,0-47.899,12.99-61.107,32.681H40.851C18.325,378.553,0,396.878,0,419.404
		c0,22.526,18.325,40.851,40.851,40.851h36.936c13.207,19.691,35.666,32.681,61.107,32.681s47.899-12.99,61.107-32.681h271.149
		c22.526,0,40.851-18.325,40.851-40.851C512,396.878,493.675,378.553,471.149,378.553z M40.851,443.915
		c-13.516,0-24.511-10.995-24.511-24.511s10.995-24.511,24.511-24.511h28.726c-2.72,7.671-4.216,15.918-4.216,24.511
		c0,8.593,1.496,16.839,4.216,24.511H40.851z M138.894,476.596c-31.536,0-57.191-25.656-57.191-57.191s25.656-57.191,57.191-57.191
		s57.191,25.656,57.191,57.191S170.43,476.596,138.894,476.596z"/>
</g>
<g>
</g>
<g>
</g>
<g>
</g>
<g>
</g>
<g>
</g>
<g>
</g>
<g>
</g>
<g>
</g>
<g>
</g>
<g>
</g>
<g>
</g>
<g>
</g>
<g>
</g>
<g>
</g>
<g>
</g>
</svg>
