<?xml version="1.0" encoding="iso-8859-1"?>
<!-- Generator: Adobe Illustrator 19.0.0, SVG Export Plug-In . SVG Version: 6.00 Build 0)  -->
<svg version="1.1" id="Layer_1" xmlns="http://www.w3.org/2000/svg" xmlns:xlink="http://www.w3.org/1999/xlink" x="0px" y="0px"
	 viewBox="0 0 511.999 511.999" style="enable-background:new 0 0 511.999 511.999;" xml:space="preserve">
<path style="fill:#D8DBE2;" d="M469.852,42.176c45.377,45.366,45.377,118.928,0,164.305l-95.733,95.744
	c-12.889,12.889-28.043,22.106-44.19,27.673c-24.557,8.465-51.38,8.465-75.937,0c-16.146-5.567-31.301-14.784-44.189-27.673
	c-12.878-12.889-22.106-28.043-27.673-44.189l2.037-2.037c-2.037,2.037,35.907-36.645,35.907-36.645l35.955,36.645
	c19.807,19.818,52.045,19.818,71.862,0l2.037-2.037l93.707-93.707c19.807-19.807,19.807-52.045,0-71.862
	c-19.818-19.807-52.056-19.807-71.862,0l-93.707,93.707l-37.969,15.441l-37.969-15.441c5.567-16.135,14.784-31.301,27.673-44.189
	l95.744-95.733C350.924-3.201,424.486-3.201,469.852,42.176z"/>
<path style="fill:#A7AFBA;" d="M258.067,182.098c16.135,5.567,31.29,14.795,44.179,27.684
	c12.889,12.878,22.117,28.043,27.684,44.179l-2.037,2.037c-19.818,19.818-52.056,19.818-71.862,0
	c-19.818-19.807-52.056-19.807-71.862,0l-2.037,2.037l-93.707,93.707c-19.818,19.818-19.818,52.056,0,71.862
	c19.807,19.818,52.045,19.818,71.862,0l93.707-93.707c24.557,8.465,51.38,8.465,75.937,0c-5.567,16.146-14.795,31.301-27.684,44.19
	l-95.733,95.744c-45.377,45.366-118.939,45.366-164.316,0c-45.366-45.377-45.366-118.939,0-164.316l95.744-95.733
	c12.889-12.889,28.043-22.117,44.189-27.684C206.687,173.633,233.51,173.633,258.067,182.098z"/>
<path style="fill:#080342;" d="M475.635,36.393c-48.489-48.483-127.379-48.485-175.866,0l-95.742,95.743
	c-12.554,12.554-22.057,27.219-28.292,43.631c-15.893,6.042-30.79,15.451-43.572,28.232l-95.743,95.743
	C12.935,323.228,0,354.456,0,387.672s12.935,64.444,36.423,87.933c24.243,24.242,56.088,36.364,87.932,36.364
	s63.689-12.122,87.932-36.364l95.743-95.743c12.554-12.555,22.057-27.219,28.29-43.629c15.894-6.042,30.791-15.451,43.573-28.233
	l95.743-95.743C524.12,163.772,524.12,84.881,475.635,36.393z M296.474,368.307l-95.742,95.743
	c-42.115,42.114-110.639,42.114-152.753,0c-20.402-20.402-31.636-47.526-31.636-76.377c0-28.852,11.235-55.976,31.636-76.376
	l95.743-95.743c42.113-42.114,110.637-42.115,152.753-0.001c3.997,3.998,7.699,8.324,11.004,12.854
	c2.657,3.647,7.771,4.446,11.417,1.788c3.646-2.658,4.446-7.77,1.788-11.417c-3.8-5.212-8.057-10.185-12.65-14.78
	c-10.589-10.588-22.626-18.862-35.481-24.825l84.998-84.999c8.04-8.039,18.749-12.467,30.156-12.467
	c11.406,0,22.114,4.428,30.154,12.467s12.466,18.748,12.466,30.154s-4.427,22.114-12.467,30.154l-95.742,95.743
	c-8.038,8.038-18.747,12.466-30.154,12.466c-11.406,0-22.115-4.428-30.154-12.467c-22.998-22.997-60.42-22.997-83.42,0
	l-95.742,95.743c-11.126,11.126-17.253,25.94-17.253,41.71s6.127,30.583,17.253,41.708c11.126,11.127,25.938,17.254,41.71,17.254
	s30.584-6.127,41.71-17.253l90.213-90.211c11.622,3.46,23.652,5.194,35.684,5.194c7.988,0,15.975-0.764,23.843-2.289
	C310.775,351.683,304.314,360.468,296.474,368.307z M464.079,200.701l-95.743,95.743c-42.112,42.115-110.638,42.112-152.752,0.001
	c-3.997-3.998-7.699-8.324-11.003-12.853c-2.657-3.648-7.77-4.448-11.417-1.79c-3.646,2.658-4.447,7.77-1.789,11.417
	c3.8,5.211,8.057,10.185,12.652,14.78c10.588,10.588,22.626,18.862,35.48,24.826l-84.999,84.999
	c-8.039,8.04-18.748,12.467-30.155,12.467c-11.406,0-22.114-4.427-30.154-12.467c-8.038-8.038-12.466-18.747-12.466-30.153
	c0-11.407,4.428-22.115,12.467-30.155l95.742-95.742c16.626-16.626,43.674-16.626,60.301-0.008
	c11.132,11.133,25.945,17.261,41.716,17.261c15.772,0,30.584-6.127,41.71-17.253l95.741-95.742
	c11.127-11.126,17.254-25.94,17.254-41.71s-6.127-30.584-17.253-41.709c-11.126-11.127-25.938-17.254-41.709-17.254
	s-30.584,6.127-41.711,17.253l-90.21,90.213c-19.337-5.758-39.809-6.728-59.527-2.905c5.029-9.608,11.491-18.394,19.33-26.232
	l95.743-95.743c42.113-42.115,110.639-42.115,152.752,0C506.193,90.063,506.193,158.589,464.079,200.701z"/>
<g>
</g>
<g>
</g>
<g>
</g>
<g>
</g>
<g>
</g>
<g>
</g>
<g>
</g>
<g>
</g>
<g>
</g>
<g>
</g>
<g>
</g>
<g>
</g>
<g>
</g>
<g>
</g>
<g>
</g>
</svg>
