<?xml version="1.0" encoding="iso-8859-1"?>
<!-- Generator: Adobe Illustrator 19.0.0, SVG Export Plug-In . SVG Version: 6.00 Build 0)  -->
<svg version="1.1" id="Layer_1" xmlns="http://www.w3.org/2000/svg" xmlns:xlink="http://www.w3.org/1999/xlink" x="0px" y="0px"
	 viewBox="0 0 512 512" style="enable-background:new 0 0 512 512;" xml:space="preserve">
<path style="fill:#FFA72E;" d="M174.298,340.426c-91.603,0-166.128-74.524-166.128-166.128S82.695,8.17,174.298,8.17
	s166.128,74.524,166.128,166.128S265.901,340.426,174.298,340.426z"/>
<path style="fill:#FFFFFF;" d="M174.298,307.745c-73.583,0-133.447-59.864-133.447-133.447S100.715,40.851,174.298,40.851
	s133.447,59.864,133.447,133.447S247.881,307.745,174.298,307.745z"/>
<path style="fill:#D8DBE2;" d="M84.426,182.468c-4.513,0-8.17-3.658-8.17-8.17c0-54.061,43.982-98.043,98.043-98.043
	c4.513,0,8.17,3.658,8.17,8.17s-3.657,8.17-8.17,8.17c-45.051,0-81.702,36.652-81.702,81.702
	C92.596,178.81,88.939,182.468,84.426,182.468z"/>
<rect x="368.927" y="289.739" transform="matrix(-0.7071 0.7071 -0.7071 -0.7071 969.5716 401.6205)" style="fill:#A3E1FF;" width="65.361" height="223.753"/>
<g>
	<path style="fill:#080342;" d="M509.608,451.836L357.166,299.394l1.926-1.926c3.191-3.191,3.191-8.364,0-11.554
		c-3.192-3.191-8.364-3.191-11.555,0l-7.703,7.703c-0.001,0.001-17.332,17.332-17.332,17.332l-19.373-19.373
		c28.231-30.987,45.467-72.156,45.467-117.277C348.596,78.19,270.407,0,174.298,0S0,78.19,0,174.298s78.189,174.298,174.298,174.298
		c45.121,0,86.292-17.236,117.276-45.467l19.373,19.373l-25.035,25.035c-3.191,3.191-3.191,8.364,0,11.554
		c1.596,1.595,3.688,2.393,5.778,2.393c2.09,0,4.182-0.797,5.778-2.393l1.926-1.926l152.442,152.442
		c1.533,1.533,3.61,2.393,5.778,2.393s4.244-0.861,5.778-2.393l46.217-46.217C512.797,460.199,512.797,455.025,509.608,451.836z
		 M16.34,174.298C16.34,87.2,87.2,16.341,174.298,16.341S332.255,87.2,332.255,174.298c0,43.341-17.551,82.659-45.913,111.227
		c-0.145,0.125-0.291,0.249-0.429,0.388c-0.138,0.138-0.263,0.284-0.389,0.43c-28.569,28.362-67.885,45.912-111.226,45.912
		C87.2,332.255,16.34,261.396,16.34,174.298z M457.613,492.276L310.948,345.611l34.662-34.662l146.665,146.664L457.613,492.276z"/>
	<path style="fill:#080342;" d="M315.915,174.298c0-31.864-10.379-61.978-30.016-87.089c-2.781-3.556-7.917-4.182-11.469-1.403
		c-3.555,2.78-4.183,7.914-1.403,11.469c17.368,22.21,26.548,48.844,26.548,77.023c0,69.077-56.199,125.277-125.277,125.277
		S49.021,243.376,49.021,174.298S105.22,49.021,174.298,49.021c28.18,0,54.813,9.18,77.022,26.548
		c3.555,2.78,8.69,2.153,11.469-1.403c2.78-3.555,2.151-8.69-1.403-11.469c-25.109-19.637-55.224-30.016-87.088-30.016
		c-78.089,0-141.617,63.529-141.617,141.617s63.528,141.617,141.617,141.617S315.915,252.386,315.915,174.298z"/>
</g>
<g>
</g>
<g>
</g>
<g>
</g>
<g>
</g>
<g>
</g>
<g>
</g>
<g>
</g>
<g>
</g>
<g>
</g>
<g>
</g>
<g>
</g>
<g>
</g>
<g>
</g>
<g>
</g>
<g>
</g>
</svg>
