<?xml version="1.0" encoding="iso-8859-1"?>
<!-- Generator: Adobe Illustrator 19.0.0, SVG Export Plug-In . SVG Version: 6.00 Build 0)  -->
<svg version="1.1" id="Layer_1" xmlns="http://www.w3.org/2000/svg" xmlns:xlink="http://www.w3.org/1999/xlink" x="0px" y="0px"
	 viewBox="0 0 512 512" style="enable-background:new 0 0 512 512;" xml:space="preserve">
<path style="fill:#4AAEE2;" d="M187.915,95.319V389.8c-12.353-7.081-27.368-11.247-43.574-11.247
	c-42.115,0-76.255,28.044-76.255,62.638s34.141,62.638,76.255,62.638s76.255-28.045,76.255-62.638V176.254l190.638-64.898v185.847
	c-12.353-7.081-27.368-11.247-43.574-11.247c-42.115,0-76.255,28.045-76.255,62.638s34.141,62.638,76.255,62.638
	s76.255-28.045,76.255-62.638V8.17L187.915,95.319z"/>
<path style="fill:#080342;" d="M443.915,170.213c4.512,0,8.17-3.658,8.17-8.17V8.17c0-2.635-1.271-5.109-3.414-6.643
	c-2.142-1.535-4.893-1.941-7.389-1.09l-256,87.149c-3.312,1.126-5.537,4.237-5.537,7.734v281.565
	c-11.03-4.276-23.055-6.501-35.404-6.501c-46.552-0.001-84.426,31.764-84.426,70.807S97.789,512,144.34,512
	s84.426-31.765,84.426-70.809V182.104l174.298-59.335V284.29c-11.03-4.276-23.055-6.501-35.404-6.501
	c-46.552,0-84.426,31.765-84.426,70.809s37.874,70.809,84.426,70.809s84.426-31.765,84.426-70.809V194.724
	c0-4.512-3.658-8.17-8.17-8.17c-4.512,0-8.17,3.658-8.17,8.17v153.872c0,30.034-30.544,54.468-68.085,54.468
	s-68.085-24.434-68.085-54.468c0-30.034,30.544-54.468,68.085-54.468c14.248,0,27.911,3.515,39.512,10.165
	c2.528,1.449,5.637,1.442,8.159-0.02c2.521-1.461,4.074-4.155,4.074-7.069V111.356c0-2.635-1.271-5.109-3.414-6.643
	c-2.142-1.535-4.893-1.94-7.389-1.092L217.964,168.52c-3.312,1.127-5.537,4.238-5.537,7.734v264.937
	c0,30.034-30.544,54.468-68.085,54.468s-68.086-24.433-68.086-54.468c0-30.035,30.544-54.468,68.085-54.468
	c14.248,0,27.911,3.515,39.512,10.165c2.528,1.449,5.637,1.442,8.159-0.02c2.521-1.461,4.074-4.155,4.074-7.069V101.169
	l239.66-81.587v142.46C435.745,166.555,439.403,170.213,443.915,170.213z"/>
<g>
</g>
<g>
</g>
<g>
</g>
<g>
</g>
<g>
</g>
<g>
</g>
<g>
</g>
<g>
</g>
<g>
</g>
<g>
</g>
<g>
</g>
<g>
</g>
<g>
</g>
<g>
</g>
<g>
</g>
</svg>
