<?xml version="1.0" encoding="iso-8859-1"?>
<!-- Generator: Adobe Illustrator 19.0.0, SVG Export Plug-In . SVG Version: 6.00 Build 0)  -->
<svg version="1.1" id="Layer_1" xmlns="http://www.w3.org/2000/svg" xmlns:xlink="http://www.w3.org/1999/xlink" x="0px" y="0px"
	 viewBox="0 0 512 512" style="enable-background:new 0 0 512 512;" xml:space="preserve">
<path style="fill:#A3E1FF;" d="M424.851,73.532H87.149c-17.974,0-32.681,14.706-32.681,32.681v364.936
	c0,17.974,14.706,32.681,32.681,32.681h337.702c17.974,0,32.681-14.706,32.681-32.681V106.213
	C457.532,88.238,442.826,73.532,424.851,73.532z"/>
<rect x="87.149" y="106.213" style="fill:#FFFFFF;" width="337.702" height="364.936"/>
<path style="fill:#EDEDEF;" d="M337.702,40.851h-35.481C295.489,21.809,277.341,8.17,256,8.17s-39.489,13.639-46.222,32.681h-35.481
	c-17.974,0-32.681,14.706-32.681,32.681v65.362h228.766V73.532C370.383,55.557,355.677,40.851,337.702,40.851z M256,73.532
	c-9.02,0-16.34-7.321-16.34-16.34s7.321-16.34,16.34-16.34c9.031,0,16.34,7.321,16.34,16.34S265.031,73.532,256,73.532z"/>
<g>
	<path style="fill:#080342;" d="M424.851,65.362h-21.787c-4.513,0-8.17,3.657-8.17,8.17s3.657,8.17,8.17,8.17h21.787
		c13.515,0,24.511,10.996,24.511,24.511v364.936c0,13.515-10.996,24.511-24.511,24.511H87.149
		c-13.515,0-24.511-10.996-24.511-24.511V106.213c0-13.515,10.996-24.511,24.511-24.511h21.787c4.513,0,8.17-3.657,8.17-8.17
		s-3.657-8.17-8.17-8.17H87.149c-22.526,0-40.851,18.325-40.851,40.851v364.936c0,22.526,18.325,40.851,40.851,40.851h337.702
		c22.526,0,40.851-18.325,40.851-40.851V106.213C465.702,83.687,447.377,65.362,424.851,65.362z"/>
	<path style="fill:#080342;" d="M141.618,147.064h228.766c4.513,0,8.17-3.657,8.17-8.17V73.532
		c0-22.526-18.325-40.851-40.851-40.851h-30.026C298.297,12.914,278.211,0,256.001,0c-22.211,0-42.296,12.914-51.677,32.681h-30.026
		c-22.526,0-40.851,18.325-40.851,40.851v65.362C133.448,143.407,137.105,147.064,141.618,147.064z M149.788,73.532
		c0-13.515,10.996-24.511,24.511-24.511h35.481c3.463,0,6.549-2.182,7.703-5.447C223.242,27.285,238.721,16.34,256,16.34
		c17.278,0,32.757,10.945,38.517,27.234c1.155,3.265,4.241,5.447,7.703,5.447h35.482c13.515,0,24.511,10.996,24.511,24.511v57.191
		H149.786V73.532H149.788z"/>
	<path style="fill:#080342;" d="M108.936,114.383c4.513,0,8.17-3.657,8.17-8.17s-3.657-8.17-8.17-8.17H87.149
		c-4.513,0-8.17,3.657-8.17,8.17v364.936c0,4.513,3.657,8.17,8.17,8.17h337.702c4.513,0,8.17-3.657,8.17-8.17V106.213
		c0-4.513-3.657-8.17-8.17-8.17h-21.787c-4.513,0-8.17,3.657-8.17,8.17s3.657,8.17,8.17,8.17h13.617v348.596H95.319V114.383H108.936
		z"/>
	<path style="fill:#080342;" d="M256.001,32.681c-13.515,0-24.511,10.996-24.511,24.511s10.996,24.511,24.511,24.511
		c13.515,0,24.511-10.996,24.511-24.511S269.516,32.681,256.001,32.681z M256.001,65.362c-4.506,0-8.17-3.665-8.17-8.17
		s3.665-8.17,8.17-8.17c4.506,0,8.17,3.665,8.17,8.17S260.507,65.362,256.001,65.362z"/>
	<path style="fill:#080342;" d="M173.209,393.26h165.583c4.513,0,8.17-3.657,8.17-8.17c0-4.513-3.657-8.17-8.17-8.17H173.209
		c-4.513,0-8.17,3.657-8.17,8.17C165.038,389.603,168.695,393.26,173.209,393.26z"/>
	<path style="fill:#080342;" d="M173.209,339.881h165.583c4.513,0,8.17-3.657,8.17-8.17c0-4.513-3.657-8.17-8.17-8.17H173.209
		c-4.513,0-8.17,3.657-8.17,8.17C165.038,336.224,168.695,339.881,173.209,339.881z"/>
	<path style="fill:#080342;" d="M173.209,286.502h165.583c4.513,0,8.17-3.657,8.17-8.17c0-4.513-3.657-8.17-8.17-8.17H173.209
		c-4.513,0-8.17,3.657-8.17,8.17C165.038,282.845,168.695,286.502,173.209,286.502z"/>
	<path style="fill:#080342;" d="M173.209,233.123h165.583c4.513,0,8.17-3.657,8.17-8.17s-3.657-8.17-8.17-8.17H173.209
		c-4.513,0-8.17,3.657-8.17,8.17S168.695,233.123,173.209,233.123z"/>
</g>
<g>
</g>
<g>
</g>
<g>
</g>
<g>
</g>
<g>
</g>
<g>
</g>
<g>
</g>
<g>
</g>
<g>
</g>
<g>
</g>
<g>
</g>
<g>
</g>
<g>
</g>
<g>
</g>
<g>
</g>
</svg>
