<?xml version="1.0" encoding="iso-8859-1"?>
<!-- Generator: Adobe Illustrator 19.0.0, SVG Export Plug-In . SVG Version: 6.00 Build 0)  -->
<svg version="1.1" id="Layer_1" xmlns="http://www.w3.org/2000/svg" xmlns:xlink="http://www.w3.org/1999/xlink" x="0px" y="0px"
	 viewBox="0 0 512 512" style="enable-background:new 0 0 512 512;" xml:space="preserve">
<path style="fill:#A7AFBA;" d="M381.277,133.447v119.83h-43.574v-119.83c0-45.045-36.657-81.702-81.702-81.702
	c-45.056,0-81.702,36.657-81.702,81.702v119.83h-43.574v-119.83C130.723,64.37,186.924,8.17,256,8.17S381.277,64.37,381.277,133.447
	z"/>
<path style="fill:#D8DBE2;" d="M394.894,220.596H117.106c-17.974,0-32.681,14.706-32.681,32.681v217.872
	c0,17.974,14.706,32.681,32.681,32.681h277.787c17.974,0,32.681-14.706,32.681-32.681V253.277
	C427.574,235.302,412.868,220.596,394.894,220.596z"/>
<path style="fill:#A7AFBA;" d="M291.404,333.889c0,12.604-6.602,23.672-16.526,29.947l9.445,62.104h-56.647l9.445-62.104
	c-9.935-6.275-16.526-17.343-16.526-29.947c0-19.554,15.85-35.404,35.404-35.404S291.404,314.335,291.404,333.889z"/>
<g>
	<circle style="fill:#080342;" cx="337.702" cy="454.809" r="8.17"/>
	<circle style="fill:#080342;" cx="370.383" cy="422.128" r="8.17"/>
	<path style="fill:#080342;" d="M299.574,333.889c0-24.027-19.548-43.574-43.574-43.574s-43.574,19.548-43.574,43.574
		c0,13.182,5.843,25.397,15.868,33.63l-8.694,57.194c-0.357,2.354,0.329,4.747,1.881,6.554c1.552,1.806,3.815,2.844,6.196,2.844
		h56.647c2.381,0,4.644-1.039,6.196-2.844c1.552-1.805,2.239-4.198,1.881-6.554l-8.694-57.194
		C293.731,359.287,299.574,347.072,299.574,333.889z M270.518,356.925c-2.744,1.733-4.201,4.926-3.714,8.134l8.012,52.711h-37.635
		l8.012-52.711c0.487-3.208-0.97-6.401-3.714-8.134c-7.96-5.032-12.714-13.643-12.714-23.036c0-15.017,12.217-27.234,27.234-27.234
		c15.017,0,27.234,12.217,27.234,27.234C283.234,343.282,278.48,351.893,270.518,356.925z"/>
	<path style="fill:#080342;" d="M394.894,212.426h-5.922c0.302-0.853,0.475-1.767,0.475-2.723v-76.255
		C389.447,59.864,329.583,0,256,0S122.553,59.864,122.553,133.447v78.979h-5.447c-22.526,0-40.851,18.325-40.851,40.851v217.872
		c0,22.526,18.325,40.851,40.851,40.851h277.787c22.526,0,40.851-18.325,40.851-40.851V253.277
		C435.745,230.751,417.419,212.426,394.894,212.426z M138.894,133.447C138.894,68.874,191.427,16.34,256,16.34
		s117.106,52.533,117.106,117.106v76.255c0,0.956,0.173,1.87,0.475,2.723H182.468v-78.979c0-40.546,32.986-73.532,73.532-73.532
		s73.532,32.986,73.532,73.532v54.468c0,4.512,3.658,8.17,8.17,8.17s8.17-3.658,8.17-8.17v-54.468
		c0-49.556-40.316-89.872-89.872-89.872s-89.872,40.316-89.872,89.872v78.979h-27.234V133.447z M419.404,471.149
		c0,13.516-10.995,24.511-24.511,24.511H117.106c-13.516,0-24.511-10.995-24.511-24.511V253.277
		c0-13.516,10.995-24.511,24.511-24.511h277.787c13.516,0,24.511,10.995,24.511,24.511V471.149z"/>
</g>
<g>
</g>
<g>
</g>
<g>
</g>
<g>
</g>
<g>
</g>
<g>
</g>
<g>
</g>
<g>
</g>
<g>
</g>
<g>
</g>
<g>
</g>
<g>
</g>
<g>
</g>
<g>
</g>
<g>
</g>
</svg>
