<?xml version="1.0" encoding="iso-8859-1"?>
<!-- Generator: Adobe Illustrator 19.0.0, SVG Export Plug-In . SVG Version: 6.00 Build 0)  -->
<svg version="1.1" id="Layer_1" xmlns="http://www.w3.org/2000/svg" xmlns:xlink="http://www.w3.org/1999/xlink" x="0px" y="0px"
	 viewBox="0 0 512 512" style="enable-background:new 0 0 512 512;" xml:space="preserve">
<path style="fill:#FF615C;" d="M256.001,8.17c-97.768,0-177.025,79.257-177.025,177.025c0,138.018,177.025,318.634,177.025,318.634
	s177.025-180.616,177.025-318.634C433.026,87.428,353.769,8.17,256.001,8.17z"/>
<circle style="fill:#FFFFFF;" cx="256.007" cy="185.196" r="70.81"/>
<g>
	<circle style="fill:#080342;" cx="256.007" cy="396.265" r="8.17"/>
	<circle style="fill:#080342;" cx="288.688" cy="363.583" r="8.17"/>
	<path style="fill:#080342;" d="M256.001,0C153.884,0,70.805,83.079,70.805,185.196c0,58.965,30.286,131.571,90.018,215.8
		c44.121,62.216,88.895,108.098,89.342,108.553c1.537,1.568,3.64,2.451,5.835,2.451s4.299-0.883,5.835-2.451
		c0.447-0.455,45.22-46.337,89.342-108.553c59.732-84.228,90.018-156.834,90.018-215.8C441.197,83.079,358.118,0,256.001,0z
		 M337.984,391.351c-34.091,48.1-68.565,86.257-81.979,100.609C225.628,459.389,87.146,304.336,87.146,185.196
		c0-93.107,75.748-168.855,168.855-168.855s168.855,75.748,168.855,168.855C424.856,239.88,394.816,311.167,337.984,391.351z"/>
	<path style="fill:#080342;" d="M311.978,141.081c-3.839,2.372-5.028,7.407-2.656,11.246c6.096,9.865,9.318,21.231,9.318,32.869
		c0,34.54-28.1,62.64-62.64,62.64s-62.64-28.1-62.64-62.64s28.1-62.64,62.64-62.64c11.638,0,23.004,3.222,32.869,9.318
		c3.839,2.373,8.874,1.183,11.246-2.656c2.372-3.839,1.182-8.874-2.656-11.246c-12.448-7.692-26.785-11.757-41.459-11.757
		c-43.55,0-78.981,35.43-78.981,78.981s35.43,78.981,78.981,78.981s78.981-35.43,78.981-78.981c0-14.674-4.066-29.01-11.757-41.459
		C320.852,139.899,315.819,138.709,311.978,141.081z"/>
</g>
<g>
</g>
<g>
</g>
<g>
</g>
<g>
</g>
<g>
</g>
<g>
</g>
<g>
</g>
<g>
</g>
<g>
</g>
<g>
</g>
<g>
</g>
<g>
</g>
<g>
</g>
<g>
</g>
<g>
</g>
</svg>
