<?xml version="1.0" encoding="iso-8859-1"?>
<!-- Generator: Adobe Illustrator 19.0.0, SVG Export Plug-In . SVG Version: 6.00 Build 0)  -->
<svg version="1.1" id="Layer_1" xmlns="http://www.w3.org/2000/svg" xmlns:xlink="http://www.w3.org/1999/xlink" x="0px" y="0px"
	 viewBox="0 0 512 512" style="enable-background:new 0 0 512 512;" xml:space="preserve">
<path style="fill:#FFFFFF;" d="M503.83,62.638v283.234L256,367.66L8.17,345.872V62.638c0-17.974,14.706-32.681,32.681-32.681
	h430.298C489.123,29.957,503.83,44.664,503.83,62.638z"/>
<polygon style="fill:#A7AFBA;" points="318.638,400.34 329.532,482.043 182.468,482.043 193.362,400.34 256,378.553 "/>
<path style="fill:#BEC3CC;" d="M8.17,345.872v21.787c0,17.974,14.706,32.681,32.681,32.681h430.298
	c17.974,0,32.681-14.706,32.681-32.681v-21.787H8.17z"/>
<g>
	<path style="fill:#FFD47D;" d="M141.617,187.915l74.011,21.787L256,73.532C192.828,73.532,141.617,124.743,141.617,187.915z"/>
	<path style="fill:#FFD47D;" d="M256,73.532l40.372,136.17l74.011-21.787C370.383,124.743,319.172,73.532,256,73.532z"/>
</g>
<g>
	<path style="fill:#FF8B00;" d="M215.628,187.915h-74.011c0,63.172,51.211,114.383,114.383,114.383L215.628,187.915z"/>
	<path style="fill:#FF8B00;" d="M256,73.532c22.299,0,40.372,51.211,40.372,114.383L256,209.702l-40.372-21.787
		C215.628,124.743,233.701,73.532,256,73.532z"/>
	<path style="fill:#FF8B00;" d="M296.372,187.915L256,302.298c63.172,0,114.383-51.211,114.383-114.383H296.372z"/>
</g>
<path style="fill:#FFD47D;" d="M215.628,187.915h80.743c0,63.172-18.073,114.383-40.372,114.383S215.628,251.087,215.628,187.915z"
	/>
<g>
	<path style="fill:#080342;" d="M471.149,21.787H40.851C18.325,21.787,0,40.112,0,62.638V367.66
		c0,22.526,18.325,40.851,40.851,40.851H184.03l-8.715,65.362h-58.209c-4.512,0-8.17,3.657-8.17,8.17c0,4.513,3.658,8.17,8.17,8.17
		h65.356c0.039,0,147.037,0,147.037,0c0.039,0,65.394,0,65.394,0c4.512,0,8.17-3.657,8.17-8.17c0-4.513-3.658-8.17-8.17-8.17
		h-58.209l-8.715-65.362h143.179c22.526,0,40.851-18.325,40.851-40.851V62.638C512,40.112,493.675,21.787,471.149,21.787z
		 M320.2,473.872H191.8l8.715-65.362h110.971L320.2,473.872z M495.66,367.66c0,13.515-10.995,24.511-24.511,24.511H40.851
		c-13.516,0-24.511-10.996-24.511-24.511V62.638c0-13.515,10.995-24.511,24.511-24.511h430.298
		c13.516,0,24.511,10.996,24.511,24.511V367.66z"/>
	<path style="fill:#080342;" d="M471.149,337.702H40.851c-4.512,0-8.17,3.657-8.17,8.17c0,4.513,3.658,8.17,8.17,8.17h430.298
		c4.512,0,8.17-3.657,8.17-8.17C479.319,341.359,475.661,337.702,471.149,337.702z"/>
	<path style="fill:#080342;" d="M256,310.468c67.576,0,122.553-54.977,122.553-122.553S323.576,65.362,256,65.362
		s-122.553,54.977-122.553,122.553S188.424,310.468,256,310.468z M150.099,196.085h57.471c0.688,28.396,4.945,54.931,12.179,75.43
		c2.714,7.689,5.613,13.912,8.595,18.953C185.682,278.952,153.566,241.465,150.099,196.085z M256,81.702
		c12.568,0,30.567,37.93,32.085,98.043h-64.17C225.433,119.633,243.432,81.702,256,81.702z M288.085,196.085
		c-1.517,60.112-19.517,98.043-32.085,98.043c-12.568,0-30.567-37.93-32.085-98.043H288.085z M283.656,290.468
		c2.982-5.042,5.881-11.265,8.595-18.953c7.234-20.499,11.491-47.033,12.179-75.43h57.471
		C358.434,241.465,326.318,278.952,283.656,290.468z M361.901,179.745H304.43c-0.688-28.396-4.945-54.931-12.179-75.43
		c-2.714-7.689-5.613-13.912-8.595-18.953C326.318,96.878,358.434,134.365,361.901,179.745z M228.344,85.361
		c-2.982,5.042-5.881,11.265-8.595,18.953c-7.234,20.499-11.491,47.033-12.179,75.43h-57.471
		C153.566,134.365,185.682,96.878,228.344,85.361z"/>
</g>
<g>
</g>
<g>
</g>
<g>
</g>
<g>
</g>
<g>
</g>
<g>
</g>
<g>
</g>
<g>
</g>
<g>
</g>
<g>
</g>
<g>
</g>
<g>
</g>
<g>
</g>
<g>
</g>
<g>
</g>
</svg>
