<?xml version="1.0" encoding="iso-8859-1"?>
<!-- Generator: Adobe Illustrator 19.0.0, SVG Export Plug-In . SVG Version: 6.00 Build 0)  -->
<svg version="1.1" id="Layer_1" xmlns="http://www.w3.org/2000/svg" xmlns:xlink="http://www.w3.org/1999/xlink" x="0px" y="0px"
	 viewBox="0 0 512 512" style="enable-background:new 0 0 512 512;" xml:space="preserve">
<path style="fill:#EDEDEF;" d="M8.17,108.936v354.043h495.66V108.936L256,76.255L8.17,108.936z"/>
<polygon style="fill:#FFFFFF;" points="117.106,379.915 114.263,281.753 256,197.447 397.737,281.753 394.894,379.915 "/>
<polygon style="fill:#BEC3CC;" points="405.787,54.468 427.574,81.702 405.787,108.936 8.17,108.936 8.17,54.468 "/>
<rect x="405.787" y="54.468" style="fill:#FF615C;" width="98.043" height="54.468"/>
<path style="fill:#FFA72E;" d="M460.255,379.915h-65.362c0-38.291-15.578-73.02-40.731-98.162l0.054-0.054l0.151-43.726
	l46.059-2.485C437.39,272.449,460.255,323.519,460.255,379.915z"/>
<path style="fill:#FF615C;" d="M400.428,235.487l-46.211,46.211l-0.054,0.054c-25.153-25.153-59.871-40.731-98.162-40.731
	l-21.787-32.681L256,175.66C312.407,175.66,363.466,198.525,400.428,235.487z"/>
<path style="fill:#A7AFBA;" d="M256,358.128c12.037,0,21.787,9.75,21.787,21.787c0,12.037-9.75,21.787-21.787,21.787
	c-12.037,0-21.787-9.75-21.787-21.787C234.213,367.877,243.963,358.128,256,358.128z"/>
<path style="fill:#4AAEE2;" d="M256,175.66v65.362c-38.291,0-73.009,15.578-98.162,40.731l-0.054-0.054l-47.494-3.92l1.283-42.291
	C148.534,198.525,199.593,175.66,256,175.66z"/>
<path style="fill:#A3E1FF;" d="M157.783,281.698l0.054,0.054c-25.153,25.142-40.731,59.871-40.731,98.162H51.745
	c0-56.396,22.866-107.466,59.828-144.428L157.783,281.698z"/>
<g>
	<path style="fill:#080342;" d="M503.83,40.851H8.17c-4.513,0-8.17,3.658-8.17,8.17v217.872c0,4.512,3.657,8.17,8.17,8.17
		s8.17-3.658,8.17-8.17V117.106H495.66v337.702H16.34V299.574c0-4.512-3.657-8.17-8.17-8.17S0,295.062,0,299.574v163.404
		c0,4.512,3.657,8.17,8.17,8.17h495.66c4.513,0,8.17-3.658,8.17-8.17V49.021C512,44.509,508.343,40.851,503.83,40.851z
		 M16.34,57.191h381.277v43.574H16.34V57.191z M413.957,100.766V57.191h81.702v43.574H413.957z"/>
	<path style="fill:#080342;" d="M256,265.532c-4.513,0-8.17,3.658-8.17,8.17v77.397c-12.558,3.567-21.787,15.13-21.787,28.816
		c0,16.519,13.439,29.957,29.957,29.957s29.957-13.438,29.957-29.957c0-13.686-9.229-25.249-21.787-28.816v-77.397
		C264.17,269.19,260.513,265.532,256,265.532z M269.617,379.915c0,7.509-6.108,13.617-13.617,13.617
		c-7.509,0-13.617-6.108-13.617-13.617s6.108-13.617,13.617-13.617C263.509,366.298,269.617,372.406,269.617,379.915z"/>
	<path style="fill:#080342;" d="M302.298,379.915c0,4.512,3.657,8.17,8.17,8.17h149.787c4.513,0,8.17-3.658,8.17-8.17
		c0-58.092-23.448-110.806-61.367-149.195c-0.254-0.353-0.532-0.695-0.85-1.013s-0.66-0.595-1.013-0.85
		c-38.389-37.92-91.102-61.368-149.196-61.368s-110.808,23.45-149.197,61.369c-0.353,0.254-0.695,0.532-1.012,0.849
		c-0.318,0.318-0.595,0.66-0.85,1.013c-37.919,38.389-61.367,91.102-61.367,149.195c0,4.512,3.657,8.17,8.17,8.17h149.787
		c4.513,0,8.17-3.658,8.17-8.17c0-4.512-3.657-8.17-8.17-8.17h-75.993c4.232-68.289,61.124-122.553,130.461-122.553
		s126.228,54.264,130.461,122.553h-75.993C305.955,371.745,302.298,375.403,302.298,379.915z M353.998,270.362
		c-24.135-21.612-55.422-35.387-89.828-37.28v-49.07c47.913,1.975,91.446,21.213,124.518,51.661L353.998,270.362z M158.002,270.362
		l-34.69-34.69c33.072-30.448,76.605-49.686,124.518-51.661v49.07C213.424,234.975,182.137,248.75,158.002,270.362z M60.083,371.745
		c1.975-47.913,21.234-91.438,51.681-124.511l34.683,34.682c-21.612,24.135-35.387,55.422-37.28,89.828H60.083V371.745z
		 M365.553,281.917l34.683-34.682c30.447,33.073,49.706,76.597,51.681,124.511h-49.084
		C400.94,337.339,387.165,306.052,365.553,281.917z"/>
</g>
<g>
</g>
<g>
</g>
<g>
</g>
<g>
</g>
<g>
</g>
<g>
</g>
<g>
</g>
<g>
</g>
<g>
</g>
<g>
</g>
<g>
</g>
<g>
</g>
<g>
</g>
<g>
</g>
<g>
</g>
</svg>
