<?xml version="1.0" encoding="iso-8859-1"?>
<!-- Generator: Adobe Illustrator 19.0.0, SVG Export Plug-In . SVG Version: 6.00 Build 0)  -->
<svg version="1.1" id="Layer_1" xmlns="http://www.w3.org/2000/svg" xmlns:xlink="http://www.w3.org/1999/xlink" x="0px" y="0px"
	 viewBox="0 0 512 512" style="enable-background:new 0 0 512 512;" xml:space="preserve">
<g>
	<path style="fill:#FF615C;" d="M491.705,332.582l0.065,0.022c-24.434,75.253-83.903,134.721-159.167,159.167l-0.022-0.076
		l-41.912-61.931l5.724-49.434c39.653-12.898,71.037-44.283,83.935-83.935l49.885-5.579L491.705,332.582z"/>
	<path style="fill:#FF615C;" d="M179.418,20.295l38.911,52.702l-2.722,58.674c-39.653,12.898-71.037,44.283-83.935,83.935
		L60.592,228.73l-40.287-49.312l-0.076-0.022c24.445-75.264,83.914-134.732,159.167-159.167L179.418,20.295z"/>
	<path style="fill:#FF615C;" d="M215.606,380.329l4.725,52.509l-40.913,58.856l-0.022,0.076
		c-75.253-24.445-134.721-83.914-159.167-159.167l0.076-0.022l55.198-39.725l56.167,3.536
		C144.569,336.046,175.954,367.431,215.606,380.329z"/>
	<path style="fill:#FF615C;" d="M491.771,179.396l-0.065,0.022l-45.548,51.02l-65.828-14.832
		c-12.898-39.653-44.283-71.037-83.935-83.935l-6.111-62.407l42.3-48.969l0.022-0.065
		C407.868,44.664,467.336,104.132,491.771,179.396z"/>
</g>
<g>
	<path style="fill:#EDEDEF;" d="M20.306,179.418l111.365,36.189c-4.15,12.724-6.395,26.308-6.395,40.394s2.244,27.67,6.395,40.394
		L20.306,332.582l-0.076,0.022C12.397,308.475,8.17,282.733,8.17,256s4.227-52.475,12.059-76.604L20.306,179.418z"/>
	<path style="fill:#EDEDEF;" d="M332.582,491.694l0.022,0.076c-24.129,7.833-49.871,12.059-76.604,12.059
		s-52.475-4.227-76.604-12.059l0.022-0.076l36.189-111.365c12.724,4.151,26.308,6.395,40.394,6.395s27.67-2.244,40.394-6.395
		L332.582,491.694z"/>
	<path style="fill:#EDEDEF;" d="M491.771,179.396c7.833,24.129,12.059,49.871,12.059,76.604s-4.227,52.475-12.059,76.604
		l-0.065-0.022l-111.376-36.189c4.15-12.724,6.395-26.308,6.395-40.394s-2.244-27.67-6.395-40.394l111.376-36.189L491.771,179.396z"
		/>
	<path style="fill:#EDEDEF;" d="M332.604,20.229l-0.022,0.065l-36.189,111.376c-12.724-4.15-26.308-6.395-40.394-6.395
		s-27.67,2.244-40.394,6.395L179.418,20.295l-0.022-0.065C203.525,12.397,229.267,8.17,256,8.17S308.475,12.397,332.604,20.229z"/>
</g>
<path style="fill:#BEC3CC;" d="M394.894,512H117.106C52.534,512,0,459.467,0,394.894V117.106C0,52.533,52.534,0,117.106,0h277.787
	C459.466,0,512,52.533,512,117.106v277.787C512,459.467,459.466,512,394.894,512z M117.106,16.34
	C61.543,16.34,16.34,61.543,16.34,117.106v277.787c0,55.563,45.203,100.766,100.766,100.766h277.787
	c55.563,0,100.766-45.203,100.766-100.766V117.106c0-55.563-45.203-100.766-100.766-100.766H117.106z"/>
<g>
	<path style="fill:#080342;" d="M437.019,74.981C388.667,26.628,324.38,0,256,0S123.333,26.628,74.981,74.981
		C26.628,123.332,0,187.62,0,256s26.628,132.668,74.981,181.019C123.333,485.372,187.62,512,256,512s132.667-26.628,181.019-74.981
		C485.372,388.668,512,324.38,512,256S485.372,123.332,437.019,74.981z M256,495.66c-132.149,0-239.66-107.51-239.66-239.66
		S123.851,16.34,256,16.34S495.66,123.851,495.66,256S388.149,495.66,256,495.66z"/>
	<path style="fill:#080342;" d="M463.145,314.715l-72.743-23.636c2.928-11.21,4.491-22.965,4.491-35.08s-1.563-23.87-4.491-35.08
		l72.752-23.639c4.291-1.394,6.641-6.003,5.245-10.296c-1.393-4.291-6.008-6.64-10.294-5.245l-72.762,23.641
		c-14.113-35.938-42.789-64.614-78.727-78.727l23.639-72.754c1.394-4.291-0.954-8.9-5.245-10.294
		c-4.286-1.395-8.901,0.953-10.294,5.245l-23.636,72.744c-11.21-2.928-22.965-4.491-35.08-4.491s-23.87,1.563-35.08,4.491
		l-23.639-72.752c-1.393-4.292-6.009-6.639-10.294-5.245c-4.291,1.394-6.641,6.003-5.245,10.296l23.641,72.762
		c-35.938,14.113-64.614,42.789-78.727,78.727l-72.753-23.639c-4.287-1.394-8.901,0.954-10.294,5.245
		c-1.394,4.291,0.954,8.901,5.245,10.296l72.743,23.636c-2.928,11.21-4.491,22.965-4.491,35.08c0,12.115,1.563,23.87,4.491,35.08
		l-72.752,23.639c-4.291,1.394-6.641,6.003-5.245,10.296c1.121,3.452,4.325,5.647,7.768,5.647c0.838,0,1.689-0.13,2.526-0.402
		l72.762-23.641c14.113,35.938,42.789,64.614,78.727,78.727L181.744,458.1c-1.394,4.291,0.954,8.9,5.245,10.294
		c0.839,0.272,1.69,0.402,2.526,0.402c3.443,0,6.647-2.195,7.768-5.648l23.636-72.744c11.21,2.928,22.965,4.491,35.08,4.491
		s23.87-1.563,35.08-4.491l23.639,72.752c1.121,3.452,4.325,5.647,7.768,5.647c0.838,0,1.689-0.13,2.526-0.402
		c4.291-1.394,6.641-6.003,5.245-10.296l-23.641-72.762c35.938-14.113,64.614-42.789,78.727-78.727l72.753,23.639
		c0.839,0.272,1.69,0.402,2.526,0.402c3.443,0,6.647-2.195,7.768-5.647C469.786,320.719,467.437,316.11,463.145,314.715z
		 M293.893,372.55c-11.97,3.897-24.689,6.003-37.893,6.003s-25.924-2.108-37.85-5.989c-37.19-12.121-66.592-41.522-78.699-78.667
		c-3.898-11.975-6.005-24.694-6.005-37.897c0-13.206,2.108-25.928,5.991-37.855c12.121-37.189,41.526-66.59,78.676-78.697
		c11.962-3.893,24.682-6.001,37.886-6.001s25.924,2.108,37.85,5.989c37.185,12.117,66.59,41.519,78.699,78.667
		c3.897,11.968,6.005,24.689,6.005,37.896c0,13.203-2.107,25.921-5.988,37.847C360.441,331.042,331.04,360.443,293.893,372.55z"/>
</g>
<g>
</g>
<g>
</g>
<g>
</g>
<g>
</g>
<g>
</g>
<g>
</g>
<g>
</g>
<g>
</g>
<g>
</g>
<g>
</g>
<g>
</g>
<g>
</g>
<g>
</g>
<g>
</g>
<g>
</g>
</svg>
