<?xml version="1.0" encoding="iso-8859-1"?>
<!-- Generator: Adobe Illustrator 19.0.0, SVG Export Plug-In . SVG Version: 6.00 Build 0)  -->
<svg version="1.1" id="Layer_1" xmlns="http://www.w3.org/2000/svg" xmlns:xlink="http://www.w3.org/1999/xlink" x="0px" y="0px"
	 viewBox="0 0 511.999 511.999" style="enable-background:new 0 0 511.999 511.999;" xml:space="preserve">
<path style="fill:#FFD47D;" d="M374.178,126.35c0-65.269-52.91-118.179-118.179-118.179S137.82,61.081,137.82,126.35
	c-18.131,0-32.829,14.698-32.829,32.829s14.699,32.829,32.829,32.829h1.292c8.456,56.97,57.565,100.682,116.887,100.682
	c59.323,0,108.432-43.712,116.887-100.682h1.292c18.131,0,32.829-14.698,32.829-32.829S392.31,126.35,374.178,126.35z"/>
<path style="fill:#4AAEE2;" d="M357.636,351.079l-0.011,0.022l-203.264-0.022c-56.897,30.796-98.25,86.648-109.285,152.75h421.844
	C455.886,437.727,414.534,381.876,357.636,351.079z"/>
<path style="fill:#FF615C;" d="M327.646,337.735c0,0-6.602,64.033-71.647,64.033s-71.647-64.033-71.647-64.033
	c22.397-7.974,46.516-12.31,71.647-12.31C281.13,325.425,305.249,329.761,327.646,337.735z"/>
<path style="fill:#A3E1FF;" d="M357.636,351.079l-0.011,0.022c-8.595,16.515-21.09,30.666-36.581,41.374
	c-19.184,13.247-41.668,20.24-65.046,20.24s-45.862-6.994-65.046-20.24c-15.502-10.708-27.997-24.87-36.592-41.396
	c9.575-5.185,19.598-9.663,29.99-13.345c13.955,25.186,40.807,42.245,71.647,42.245s57.693-17.049,71.647-42.245
	C338.039,341.417,348.061,345.894,357.636,351.079z"/>
<g>
	<path style="fill:#080342;" d="M474.976,502.486c-5.465-32.745-17.927-63.18-37.04-90.462c-2.588-3.696-7.684-4.591-11.379-2.003
		c-3.696,2.589-4.593,7.684-2.003,11.379c15.837,22.605,26.745,47.546,32.49,74.26H54.953
		c12.37-57.618,48.087-105.233,96.234-133.617c8.931,14.621,20.944,27.361,35.12,37.15c20.552,14.192,44.651,21.695,69.692,21.695
		s49.139-7.502,69.692-21.695c14.143-9.767,26.132-22.47,35.055-37.045c15.898,9.451,30.634,21.136,43.824,34.914
		c3.119,3.259,8.291,3.373,11.552,0.251c3.259-3.12,3.373-8.291,0.252-11.552c-20.509-21.422-44.631-38.271-71.693-50.08
		c-28.024-12.226-57.86-18.426-88.681-18.426c-52.861,0-104.071,18.894-144.194,53.199c-39.678,33.925-66.235,80.814-74.781,132.031
		c-0.395,2.369,0.271,4.792,1.825,6.625c1.552,1.832,3.832,2.889,6.234,2.889h421.836c2.402,0,4.682-1.058,6.236-2.89
		C474.705,507.278,475.371,504.854,474.976,502.486z M346.353,354.351c-7.685,12.329-17.916,23.086-29.948,31.395
		c-17.811,12.3-38.697,18.801-60.406,18.801s-42.596-6.501-60.406-18.801c-12.047-8.318-22.287-19.092-29.978-31.443
		c4.965-2.415,10.042-4.632,15.217-6.648c16.58,25.14,44.775,40.498,75.167,40.498c30.386,0,58.575-15.351,75.156-40.482
		C336.309,349.691,341.38,351.914,346.353,354.351z M315.088,342.15c-13.8,18.505-35.65,29.663-59.089,29.663
		c-23.441,0-45.29-11.158-59.09-29.664c18.758-5.57,38.599-8.553,59.09-8.553C276.346,333.595,296.189,336.521,315.088,342.15z"/>
	<path style="fill:#080342;" d="M227.238,197.548c6.237,10.031,16.989,16.02,28.761,16.02c11.773,0,22.526-5.989,28.761-16.02
		c2.384-3.832,1.207-8.871-2.624-11.252c-3.83-2.384-8.871-1.208-11.252,2.624c-3.234,5.202-8.799,8.307-14.885,8.307
		c-6.086,0-11.651-3.106-14.885-8.307c-2.382-3.832-7.421-5.007-11.252-2.624C226.031,188.679,224.854,193.716,227.238,197.548z"/>
	<path style="fill:#080342;" d="M132.19,199.782c11.74,57.601,62.792,101.077,123.809,101.077s112.069-43.478,123.809-101.078
		c19.951-2.753,35.369-19.907,35.369-40.604c0-19.886-14.23-36.511-33.043-40.225C378.292,52.715,323.185,0,255.999,0
		S133.706,52.715,129.863,118.954c-18.813,3.714-33.043,20.338-33.043,40.225C96.82,179.875,112.239,197.03,132.19,199.782z
		 M137.82,134.52c4.513,0,8.17-3.657,8.17-8.17c0-60.659,49.349-110.009,110.009-110.009s110.009,49.35,110.009,110.009
		c0,4.513,3.657,8.17,8.17,8.17c13.596,0,24.659,11.061,24.659,24.659c0,10.83-7.022,20.046-16.75,23.352
		c0.167-2.653,0.261-5.325,0.261-8.019v-10.944c0-4.513-3.657-8.17-8.17-8.17s-8.17,3.657-8.17,8.17v10.944
		c0,60.66-49.35,110.009-110.009,110.009S145.99,235.17,145.99,174.511v-10.944c0-4.513-3.657-8.17-8.17-8.17
		c-4.513,0-8.17,3.657-8.17,8.17v10.944c0,2.694,0.095,5.366,0.261,8.019c-9.728-3.304-16.75-12.52-16.75-23.352
		C113.161,145.582,124.222,134.52,137.82,134.52z"/>
	<path style="fill:#080342;" d="M190.547,134.998h24.547v2.742c0,4.513,3.657,8.17,8.17,8.17s8.17-3.657,8.17-8.17v-10.912
		c0-4.513-3.657-8.17-8.17-8.17h-32.717c-4.513,0-8.17,3.657-8.17,8.17C182.377,131.341,186.034,134.998,190.547,134.998z"/>
	<path style="fill:#080342;" d="M288.734,145.909c4.513,0,8.17-3.657,8.17-8.17v-2.742h24.547c4.513,0,8.17-3.657,8.17-8.17
		s-3.657-8.17-8.17-8.17h-32.717c-4.513,0-8.17,3.657-8.17,8.17v10.912C280.564,142.252,284.221,145.909,288.734,145.909z"/>
</g>
<g>
</g>
<g>
</g>
<g>
</g>
<g>
</g>
<g>
</g>
<g>
</g>
<g>
</g>
<g>
</g>
<g>
</g>
<g>
</g>
<g>
</g>
<g>
</g>
<g>
</g>
<g>
</g>
<g>
</g>
</svg>
