<?xml version="1.0" encoding="iso-8859-1"?>
<!-- Generator: Adobe Illustrator 19.0.0, SVG Export Plug-In . SVG Version: 6.00 Build 0)  -->
<svg xmlns="http://www.w3.org/2000/svg" xmlns:xlink="http://www.w3.org/1999/xlink" version="1.1" id="Layer_1" x="0px" y="0px" viewBox="0 0 512 512" style="enable-background:new 0 0 512 512;" xml:space="preserve">
<path style="fill:#F0C087;" d="M302.496,159.445l-64.528-10.762V32.264C237.968,14.445,223.524,0,205.705,0l0,0  c-17.819,0-32.264,14.445-32.264,32.264v154.218l-0.63,5.117l-47.443-20.395c-16.37-7.037-35.346,0.529-42.383,16.899l0,0  c-7.037,16.37,0.529,35.346,16.899,42.383l64.819,27.864c0.345,91.626,56.025,105.119,56.025,105.119V512h136.738V363.469  c0,0,56.033-24.965,56.033-117.292l-46.383-65.209L302.496,159.445z"/>
<path style="fill:#E6B273;" d="M270.232,116.419L270.232,116.419c-17.819,0-32.264,14.445-32.264,32.264v65.624  c0,17.819,14.445,32.264,32.264,32.264l0,0c17.819,0,32.264-14.445,32.264-32.264v-65.624  C302.496,130.864,288.051,116.419,270.232,116.419z"/>
<path style="fill:#D9A86C;" d="M334.76,127.181L334.76,127.181c-17.819,0-32.264,14.445-32.264,32.264v65.624  c0,17.819,14.445,32.264,32.264,32.264l0,0c17.819,0,32.264-14.445,32.264-32.264v-65.624  C367.023,141.626,352.579,127.181,334.76,127.181z"/>
<path style="fill:#E6B273;" d="M399.381,148.705L399.381,148.705c-17.819,0-32.264,14.445-32.264,32.264v65.624  c0,17.819,14.445,32.264,32.264,32.264l0,0c17.819,0,32.264-14.445,32.264-32.264v-65.624  C431.645,163.15,417.2,148.705,399.381,148.705z"/>
<g>
</g>
<g>
</g>
<g>
</g>
<g>
</g>
<g>
</g>
<g>
</g>
<g>
</g>
<g>
</g>
<g>
</g>
<g>
</g>
<g>
</g>
<g>
</g>
<g>
</g>
<g>
</g>
<g>
</g>
</svg>
