<?xml version="1.0" encoding="iso-8859-1"?>
<!-- Generator: Adobe Illustrator 19.0.0, SVG Export Plug-In . SVG Version: 6.00 Build 0)  -->
<svg xmlns="http://www.w3.org/2000/svg" xmlns:xlink="http://www.w3.org/1999/xlink" version="1.1" id="Layer_1" x="0px" y="0px" viewBox="0 0 512 512" style="enable-background:new 0 0 512 512;" xml:space="preserve">
<path style="fill:#D6AB78;" d="M312.301,170.492c43.613,0,40.169-113.622,80.339-113.622s21.806,113.622,21.806,113.622  l-64.271,51.647L312.301,170.492z"/>
<polygon style="fill:#515262;" points="129.353,170.492 0,170.492 0,455.118 129.353,455.118 173.772,312.805 "/>
<path style="fill:#F0C087;" d="M512,206.07c0-19.65-15.929-35.579-35.579-35.579H218.19l-44.418,142.312l44.418,142.312h222.162  c19.65,0,35.579-15.928,35.579-35.577c0-19.65-15.929-35.579-35.579-35.579h12.023c19.65,0,35.579-15.928,35.579-35.577  c0-19.65-15.929-35.579-35.579-35.579h12.023c19.65,0,35.579-15.928,35.579-35.577c0-19.65-15.929-35.579-35.579-35.579h12.023  C496.071,241.648,512,225.72,512,206.07z"/>
<rect x="129.357" y="170.498" style="fill:#D5DEF2;" width="88.832" height="284.632"/>
<circle style="fill:#515262;" cx="173.773" cy="407.196" r="16.863"/>
<g>
</g>
<g>
</g>
<g>
</g>
<g>
</g>
<g>
</g>
<g>
</g>
<g>
</g>
<g>
</g>
<g>
</g>
<g>
</g>
<g>
</g>
<g>
</g>
<g>
</g>
<g>
</g>
<g>
</g>
</svg>
