<?xml version="1.0" encoding="iso-8859-1"?>
<!-- Generator: Adobe Illustrator 19.0.0, SVG Export Plug-In . SVG Version: 6.00 Build 0)  -->
<svg xmlns="http://www.w3.org/2000/svg" xmlns:xlink="http://www.w3.org/1999/xlink" version="1.1" id="Layer_1" x="0px" y="0px" viewBox="0 0 511.999 511.999" style="enable-background:new 0 0 511.999 511.999;" xml:space="preserve">
<path style="fill:#6AB2CC;" d="M452.896,37.37H147.64c-22.745,0-41.182,18.439-41.182,41.182v392.265  c0,22.744,18.439,41.182,41.182,41.182h305.256c22.745,0,41.182-18.439,41.182-41.182V78.553  C494.078,55.81,475.64,37.37,452.896,37.37z"/>
<path style="fill:#7DD2F0;" d="M401.277,0H96.021C73.277,0,54.839,18.438,54.839,41.182v392.265  c0,22.744,18.438,41.182,41.182,41.182h305.256c22.745,0,41.182-18.438,41.182-41.182V41.182C442.459,18.438,424.02,0,401.277,0z"/>
<rect x="147.27" y="96.734" style="fill:#FFFFFF;" width="202.762" height="113.782"/>
<g>
	<path style="fill:#515262;" d="M299.269,143.857H198.03c-5.345,0-9.679-4.332-9.679-9.679c0-5.346,4.333-9.679,9.679-9.679h101.239   c5.345,0,9.679,4.332,9.679,9.679C308.947,139.525,304.614,143.857,299.269,143.857z"/>
	<path style="fill:#515262;" d="M299.269,182.747H198.03c-5.345,0-9.679-4.332-9.679-9.679c0-5.347,4.333-9.679,9.679-9.679h101.239   c5.345,0,9.679,4.332,9.679,9.679C308.947,178.415,304.614,182.747,299.269,182.747z"/>
	<path style="fill:#515262;" d="M81.423,81.996H35.064c-9.468,0-17.144,7.675-17.144,17.144l0,0c0,9.468,7.676,17.144,17.144,17.144   h46.36c9.468,0,17.144-7.676,17.144-17.144l0,0C98.568,89.671,90.892,81.996,81.423,81.996z"/>
	<path style="fill:#515262;" d="M81.423,174.111H35.064c-9.468,0-17.144,7.675-17.144,17.144l0,0   c0,9.468,7.676,17.144,17.144,17.144h46.36c9.468,0,17.144-7.676,17.144-17.144l0,0C98.568,181.787,90.892,174.111,81.423,174.111z   "/>
	<path style="fill:#515262;" d="M81.423,266.228H35.064c-9.468,0-17.144,7.675-17.144,17.144l0,0   c0,9.468,7.676,17.144,17.144,17.144h46.36c9.468,0,17.144-7.676,17.144-17.144l0,0C98.568,273.904,90.892,266.228,81.423,266.228z   "/>
	<path style="fill:#515262;" d="M81.423,358.344H35.064c-9.468,0-17.144,7.674-17.144,17.144l0,0   c0,9.468,7.676,17.144,17.144,17.144h46.36c9.468,0,17.144-7.676,17.144-17.144l0,0C98.568,366.019,90.892,358.344,81.423,358.344z   "/>
</g>
<g>
</g>
<g>
</g>
<g>
</g>
<g>
</g>
<g>
</g>
<g>
</g>
<g>
</g>
<g>
</g>
<g>
</g>
<g>
</g>
<g>
</g>
<g>
</g>
<g>
</g>
<g>
</g>
<g>
</g>
</svg>
