<?xml version="1.0" encoding="iso-8859-1"?>
<!-- Generator: Adobe Illustrator 19.0.0, SVG Export Plug-In . SVG Version: 6.00 Build 0)  -->
<svg xmlns="http://www.w3.org/2000/svg" xmlns:xlink="http://www.w3.org/1999/xlink" version="1.1" id="Layer_1" x="0px" y="0px" viewBox="0 0 511.999 511.999" style="enable-background:new 0 0 511.999 511.999;" xml:space="preserve">
<path style="fill:#515262;" d="M459.279,129.618c-3.348-2.802-8.387-2.122-10.944,1.418L436.13,147.93  c-2.312,3.2-1.752,7.611,1.237,10.192c24.031,20.749,38.713,57.391,38.713,97.612s-14.684,76.863-38.715,97.613  c-2.989,2.58-3.549,6.991-1.236,10.192l12.204,16.893c2.556,3.539,7.596,4.219,10.944,1.418  c32.698-27.366,52.721-74.839,52.721-126.115C512,204.456,491.976,156.982,459.279,129.618z"/>
<polygon style="fill:#FF6465;" points="139.935,180.045 69.968,256.001 139.935,331.954 375.773,430.219 375.773,81.78 "/>
<path style="fill:#E65A5B;" d="M40.761,180.045C18.25,180.045,0,198.294,0,220.806v70.387c0,22.512,18.25,40.761,40.761,40.761  h99.174V180.045H40.761z"/>
<g>
</g>
<g>
</g>
<g>
</g>
<g>
</g>
<g>
</g>
<g>
</g>
<g>
</g>
<g>
</g>
<g>
</g>
<g>
</g>
<g>
</g>
<g>
</g>
<g>
</g>
<g>
</g>
<g>
</g>
</svg>
