<?xml version="1.0" encoding="iso-8859-1"?>
<!-- Generator: Adobe Illustrator 19.0.0, SVG Export Plug-In . SVG Version: 6.00 Build 0)  -->
<svg xmlns="http://www.w3.org/2000/svg" xmlns:xlink="http://www.w3.org/1999/xlink" version="1.1" id="Layer_1" x="0px" y="0px" viewBox="0 0 512 512" style="enable-background:new 0 0 512 512;" xml:space="preserve">
<path style="fill:#515262;" d="M161.754,18.809L161.754,18.809c-75.618,0-136.918,61.3-136.918,136.917v62.299h273.835v-62.299  C298.671,80.109,237.372,18.809,161.754,18.809z"/>
<path style="opacity:0.1;enable-background:new    ;" d="M161.754,18.808L161.754,18.808c-10.113,0-19.965,1.106-29.452,3.187  c61.46,13.475,107.466,68.227,107.466,133.732v62.299h58.904v-62.299C298.671,80.109,237.372,18.808,161.754,18.808z"/>
<path style="fill:#E6B696;" d="M44.78,182.07c-18.571,0-33.626,15.056-33.626,33.626l0,0c0,18.571,15.055,33.626,33.626,33.626  h16.352V182.07H44.78z"/>
<path style="fill:#FF6465;" d="M323.509,493.192c-17.975-44.352-53.661-79.633-98.288-97.068l-0.706-0.267H98.992  C54.038,413.195,18.07,448.609,0,493.192H323.509z"/>
<path style="fill:#E6B696;" d="M197.342,387.86v-63.175h-71.175v63.175c-9.353,1.941-18.434,4.625-27.175,7.997  c7.588,27.547,32.803,47.786,62.762,47.786s55.174-20.239,62.762-47.786C215.775,392.485,206.695,389.801,197.342,387.86z"/>
<path style="opacity:0.1;enable-background:new    ;" d="M126.165,324.683v58.257c11.423,2.743,23.336,4.205,35.587,4.205  c12.251,0,24.166-1.462,35.587-4.205v-58.257H126.165z"/>
<path style="fill:#F0C5A6;" d="M246.071,127.13c-11.642,0-21.079-9.438-21.079-21.079c0,11.642-9.438,21.079-21.079,21.079  c-11.642,0-21.079-9.438-21.079-21.079c0,11.642-9.438,21.079-21.079,21.079s-21.079-9.438-21.079-21.079  c0,11.642-9.438,21.079-21.079,21.079c-11.642,0-21.079-9.438-21.079-21.079c0,11.642-9.438,21.079-21.079,21.079  c-6.797,0-12.827-3.231-16.681-8.226c-10.213,16.495-16.112,35.941-16.112,56.767v59.023c0,64.678,52.432,117.11,117.111,117.11  s117.111-52.432,117.111-117.11V175.67c0-20.826-5.901-40.271-16.112-56.767C258.897,123.899,252.868,127.13,246.071,127.13z"/>
<path style="fill:#5A4146;" d="M350.245,18.809L350.245,18.809c-75.618,0-136.918,61.3-136.918,136.918v62.299h273.835v-62.299  C487.163,80.109,425.863,18.809,350.245,18.809z"/>
<path style="opacity:0.1;enable-background:new    ;" d="M350.245,18.808L350.245,18.808c-8.036,0-15.906,0.699-23.561,2.026  C391.072,32.003,440.04,88.143,440.04,155.726v62.299h47.123v-62.299C487.163,80.109,425.863,18.808,350.245,18.808z"/>
<g>
	<path style="fill:#E6B273;" d="M233.271,182.07c-18.571,0-33.626,15.056-33.626,33.626l0,0c0,18.571,15.055,33.626,33.626,33.626   h16.352V182.07H233.271z"/>
	<path style="fill:#E6B273;" d="M467.219,182.07c18.571,0,33.626,15.056,33.626,33.626l0,0c0,18.571-15.055,33.626-33.626,33.626   h-16.352V182.07H467.219z"/>
</g>
<path style="fill:#6AB2CC;" d="M512,493.192c-17.975-44.352-53.661-79.633-98.288-97.068l-0.706-0.267H287.483  c-44.954,17.339-80.922,52.753-98.992,97.336H512z"/>
<path style="fill:#F0C087;" d="M385.833,387.86v-63.175h-71.175v63.175c-9.353,1.941-18.434,4.625-27.175,7.997  c7.588,27.547,32.803,47.786,62.762,47.786s55.174-20.239,62.762-47.786C404.267,392.485,395.186,389.801,385.833,387.86z"/>
<path style="opacity:0.1;enable-background:new    ;" d="M314.657,324.683v58.257c11.423,2.743,23.336,4.205,35.587,4.205  c12.251,0,24.166-1.462,35.587-4.205v-58.257H314.657z"/>
<path style="fill:#F0C087;" d="M434.562,127.13c-11.642,0-21.079-9.438-21.079-21.079c0,11.642-9.438,21.079-21.079,21.079  c-11.642,0-21.079-9.438-21.079-21.079c0,11.642-9.438,21.079-21.079,21.079c-11.642,0-21.079-9.438-21.079-21.079  c0,11.642-9.438,21.079-21.079,21.079c-11.642,0-21.079-9.438-21.079-21.079c0,11.642-9.438,21.079-21.079,21.079  c-6.797,0-12.827-3.231-16.681-8.226c-10.213,16.495-16.112,35.941-16.112,56.767v59.023c0,64.678,52.432,117.11,117.111,117.11  s117.111-52.432,117.111-117.11V175.67c0-20.826-5.901-40.271-16.112-56.767C447.389,123.899,441.359,127.13,434.562,127.13z"/>
<g>
	<path style="fill:#5A4146;" d="M350.245,292.037c-13.892,0-26.364-2.777-33.364-7.43c-4.064-2.7-5.169-8.184-2.468-12.248   c2.701-4.063,8.185-5.169,12.25-2.468c3.243,2.155,12.007,4.475,23.584,4.475c11.576,0,20.339-2.321,23.583-4.475   c4.064-2.702,9.548-1.595,12.25,2.468c2.701,4.064,1.595,9.548-2.469,12.248C376.608,289.26,364.136,292.037,350.245,292.037z"/>
	<path style="fill:#5A4146;" d="M321.1,200.327c-1.967,0-3.947-0.654-5.588-1.994c-1.946-1.592-8.226-3.958-17.551-3.958   c-9.326,0-15.605,2.367-17.551,3.957c-3.778,3.088-9.344,2.528-12.433-1.249c-3.089-3.778-2.53-9.344,1.248-12.433   c6.087-4.976,16.829-7.947,28.736-7.947c11.907,0,22.648,2.971,28.737,7.948c3.778,3.089,4.336,8.656,1.248,12.433   C326.198,199.22,323.658,200.327,321.1,200.327z"/>
</g>
<circle style="fill:#353640;" cx="297.958" cy="216.694" r="12.826"/>
<path style="fill:#5A4146;" d="M379.392,200.327c-2.56,0-5.099-1.106-6.846-3.243c-3.089-3.777-2.531-9.344,1.248-12.433  c6.087-4.977,16.83-7.948,28.737-7.948c11.907,0,22.648,2.971,28.735,7.947c3.778,3.089,4.336,8.655,1.248,12.433  c-3.089,3.778-8.655,4.336-12.433,1.249c-1.946-1.592-8.225-3.957-17.551-3.957c-9.324,0-15.605,2.368-17.551,3.958  C383.337,199.674,381.358,200.327,379.392,200.327z"/>
<circle style="fill:#353640;" cx="402.535" cy="216.694" r="12.826"/>
<g>
</g>
<g>
</g>
<g>
</g>
<g>
</g>
<g>
</g>
<g>
</g>
<g>
</g>
<g>
</g>
<g>
</g>
<g>
</g>
<g>
</g>
<g>
</g>
<g>
</g>
<g>
</g>
<g>
</g>
</svg>
