<?xml version="1.0" encoding="iso-8859-1"?>
<!-- Generator: Adobe Illustrator 19.0.0, SVG Export Plug-In . SVG Version: 6.00 Build 0)  -->
<svg xmlns="http://www.w3.org/2000/svg" xmlns:xlink="http://www.w3.org/1999/xlink" version="1.1" id="Layer_1" x="0px" y="0px" viewBox="0 0 512 512" style="enable-background:new 0 0 512 512;" xml:space="preserve">
<g>
	<path style="fill:#353640;" d="M218.045,280.709c0,0,19.698,92.821,19.698,231.291h47.679c0-138.47,19.698-231.291,19.698-231.291   l-43.537-43.156L218.045,280.709z"/>
	<path style="fill:#353640;" d="M173.299,236.039H69.515c-19.935,0-37.55-12.71-43.835-31.628l-13.867-41.729   c-4.736-14.253-2.412-29.414,6.376-41.594s22.442-19.166,37.461-19.166h117.649c9.466,0,17.139,7.674,17.139,17.139v99.837   C190.438,228.364,182.764,236.039,173.299,236.039z M55.649,136.202c-3.873,0-7.395,1.801-9.662,4.943s-2.866,7.052-1.644,10.727   l13.867,41.731c1.621,4.878,6.164,8.156,11.305,8.156h86.644v-65.556H55.649z"/>
</g>
<path style="fill:#515262;" d="M440.546,33.078c0,0-12.173,173.071-135.427,247.631h-87.073  C94.791,206.147,82.618,33.078,82.618,33.078H440.546z"/>
<path style="opacity:0.1;enable-background:new    ;" d="M97.4,108.029h328.364c12.502-42.673,14.782-74.951,14.782-74.951H82.618  C82.618,33.078,84.898,65.356,97.4,108.029z"/>
<path style="fill:#353640;" d="M478.304,0H44.86C31.445,0,20.57,10.875,20.57,24.288v17.577c0,13.414,10.875,24.288,24.29,24.288  h433.444c13.415,0,24.29-10.875,24.29-24.288V24.288C502.594,10.875,491.719,0,478.304,0z"/>
<g>
</g>
<g>
</g>
<g>
</g>
<g>
</g>
<g>
</g>
<g>
</g>
<g>
</g>
<g>
</g>
<g>
</g>
<g>
</g>
<g>
</g>
<g>
</g>
<g>
</g>
<g>
</g>
<g>
</g>
</svg>
