<?xml version="1.0" encoding="iso-8859-1"?>
<!-- Generator: Adobe Illustrator 19.0.0, SVG Export Plug-In . SVG Version: 6.00 Build 0)  -->
<svg xmlns="http://www.w3.org/2000/svg" xmlns:xlink="http://www.w3.org/1999/xlink" version="1.1" id="Layer_1" x="0px" y="0px" viewBox="0 0 512 512" style="enable-background:new 0 0 512 512;" xml:space="preserve">
<path style="fill:#515262;" d="M385.563,353.924c36.749,47.013,85.179,58.184,112.01,95.447c26.831,37.263,5.22,54.403,5.22,54.403  s-17.14,21.61-54.403-5.22s-48.433-75.26-95.447-112.009L385.563,353.924z"/>
<polygon style="fill:#C7CFE2;" points="284.393,0.001 0.979,0.001 0.979,484.363 344.99,484.363 344.99,60.596 "/>
<polygon style="opacity:0.1;enable-background:new    ;" points="186.368,0.001 186.368,158.624 344.99,158.624 344.99,60.596   284.393,0.001 "/>
<polygon style="fill:#DCE5FA;" points="221.551,0.001 221.551,123.441 344.99,123.441 344.99,60.596 284.394,0 "/>
<path style="opacity:0.1;enable-background:new    ;" d="M385.563,353.924l-32.62,32.619c14.848,11.607,26.117,24.379,35.766,37.266  c6.525-4.641,12.71-9.858,18.487-15.634c5.812-5.813,11.011-12.009,15.613-18.501C409.928,380.029,397.164,368.765,385.563,353.924z  "/>
<circle style="fill:#7DD2F0;" cx="305.935" cy="306.908" r="108.022"/>
<circle style="fill:#FFFFFF;" cx="305.935" cy="306.908" r="76.381"/>
<path style="opacity:0.1;enable-background:new    ;" d="M273.034,268.151c23.666-23.667,58.992-28.535,87.479-14.646  c-0.194-0.197-0.374-0.403-0.57-0.599c-29.829-29.829-78.19-29.829-108.018,0s-29.829,78.19,0,108.017  c6.162,6.162,13.123,11.031,20.54,14.646C243.222,345.697,243.403,297.783,273.034,268.151z"/>
<path style="fill:#515262;" d="M334.626,315.71h-57.384c-4.858,0-8.796-3.937-8.796-8.796s3.938-8.796,8.796-8.796h57.384  c4.858,0,8.796,3.937,8.796,8.796S339.484,315.71,334.626,315.71z"/>
<g>
</g>
<g>
</g>
<g>
</g>
<g>
</g>
<g>
</g>
<g>
</g>
<g>
</g>
<g>
</g>
<g>
</g>
<g>
</g>
<g>
</g>
<g>
</g>
<g>
</g>
<g>
</g>
<g>
</g>
</svg>
