<?xml version="1.0" encoding="iso-8859-1"?>
<!-- Generator: Adobe Illustrator 19.0.0, SVG Export Plug-In . SVG Version: 6.00 Build 0)  -->
<svg xmlns="http://www.w3.org/2000/svg" xmlns:xlink="http://www.w3.org/1999/xlink" version="1.1" id="Layer_1" x="0px" y="0px" viewBox="0 0 512.001 512.001" style="enable-background:new 0 0 512.001 512.001;" xml:space="preserve">
<path style="fill:#FF6465;" d="M487.373,133.299l0.001-0.007l-0.005,0.003C458.528,96.62,407.266,44.35,349.329,44.35l0,0  l-31.241,46.665l-62.09,46.664l0,0l0,0l-62.089-46.664L162.668,44.35l0,0c-57.94,0-109.207,52.273-138.044,88.943l0.206,0.76  c0.002,0.006,0.005,0.013,0.007,0.019l14.387,52.707L92,210.236l17.025-11.814c0,0-4.153,152.416-4.153,269.23h302.253  c0-116.815-4.153-269.23-4.153-269.23l17.025,11.814l52.776-23.458l14.387-52.707c0.002-0.006,0.006-0.013,0.008-0.019l0.231-0.718  C487.392,133.323,487.382,133.31,487.373,133.299z"/>
<g>
	<path style="fill:#6AB2CC;" d="M315.064,44.35c0,32.568-26.496,59.064-59.064,59.064s-59.064-26.496-59.064-59.064h-34.267   c0,51.545,41.786,93.331,93.331,93.331S349.33,95.895,349.33,44.35L315.064,44.35z"/>
	<path style="fill:#6AB2CC;" d="M24.831,134.052l-0.206-0.76l-2.001,2.575C8.273,154.418,0,168.384,0,168.384   s5.563,32.263,54.514,67.864l37.489-26.012C45.487,177.518,29.788,147.235,24.831,134.052z"/>
	<path style="fill:#6AB2CC;" d="M488.851,135.187l-1.448-1.857l-0.232,0.722c-4.958,13.184-20.656,43.466-67.172,76.183   l37.489,26.012c48.951-35.601,54.514-67.864,54.514-67.864S503.526,154.076,488.851,135.187z"/>
</g>
<g>
</g>
<g>
</g>
<g>
</g>
<g>
</g>
<g>
</g>
<g>
</g>
<g>
</g>
<g>
</g>
<g>
</g>
<g>
</g>
<g>
</g>
<g>
</g>
<g>
</g>
<g>
</g>
<g>
</g>
</svg>
