<?xml version="1.0" encoding="iso-8859-1"?>
<!-- Generator: Adobe Illustrator 19.0.0, SVG Export Plug-In . SVG Version: 6.00 Build 0)  -->
<svg xmlns="http://www.w3.org/2000/svg" xmlns:xlink="http://www.w3.org/1999/xlink" version="1.1" id="Layer_1" x="0px" y="0px" viewBox="0 0 512.001 512.001" style="enable-background:new 0 0 512.001 512.001;" xml:space="preserve">
<path style="fill:#C7CFE2;" d="M203.2,419.438V459.2c0,29.16,23.639,52.8,52.799,52.8l0,0c29.16,0,52.799-23.639,52.799-52.8  v-39.763H203.2z"/>
<path style="opacity:0.1;enable-background:new    ;" d="M239.308,459.2v-39.763H203.2V459.2c0,29.16,23.639,52.8,52.799,52.8  c6.342,0,12.421-1.121,18.054-3.17C253.785,501.454,239.308,482.02,239.308,459.2z"/>
<path style="fill:#FFD782;" d="M258.277,0.015C167.315-1.216,91.165,73.864,91.165,164.835c0,36.258,11.716,69.775,31.556,96.991  c31.839,53.013,46.963,77.711,51.529,110.073c1.957,13.874,13.813,24.202,27.824,24.202h107.852  c14.012,0,25.867-10.328,27.824-24.202c4.565-32.36,19.689-57.06,51.529-110.073c19.84-27.216,31.556-60.732,31.556-96.991  C420.834,74.559,348.264,1.234,258.277,0.015z"/>
<path style="opacity:0.1;enable-background:new    ;" d="M222.394,371.898c-4.565-32.36-19.689-57.06-51.529-110.073  c-19.84-27.216-31.556-60.732-31.556-96.991c0-82.096,62.02-151.241,140.973-163.047c-7.195-1.063-14.538-1.671-22.004-1.772  C167.315-1.216,91.165,73.864,91.165,164.835c0,36.258,11.716,69.775,31.556,96.991c31.839,53.013,46.963,77.711,51.529,110.073  c1.957,13.874,13.813,24.202,27.824,24.202h48.145C236.206,396.1,224.351,385.772,222.394,371.898z"/>
<path style="fill:#B4BBCC;" d="M330.444,419.438L256,396.1l-74.445,23.338c-12.889,0-23.338,10.449-23.338,23.338  c0,12.889,10.449,23.338,23.338,23.338h148.889c12.889,0,23.338-10.449,23.338-23.338  C353.782,429.886,343.333,419.438,330.444,419.438z"/>
<path style="opacity:0.1;enable-background:new    ;" d="M206.361,442.776c0-12.889,10.449-23.338,23.338-23.338l50.372-15.791  L256,396.1l-74.445,23.338c-12.889,0-23.338,10.449-23.338,23.338c0,12.889,10.449,23.338,23.338,23.338H229.7  C216.81,466.115,206.361,455.665,206.361,442.776z"/>
<path style="fill:#C7CFE2;" d="M330.444,372.762H181.555c-12.889,0-23.338,10.449-23.338,23.338l0,0  c0,12.889,10.449,23.338,23.338,23.338h148.889c12.889,0,23.338-10.449,23.338-23.338l0,0  C353.782,383.21,343.333,372.762,330.444,372.762z"/>
<path style="opacity:0.1;enable-background:new    ;" d="M206.361,396.1c0-12.89,10.449-23.338,23.338-23.338h-48.145  c-12.889,0-23.338,10.449-23.338,23.338s10.449,23.338,23.338,23.338H229.7C216.81,419.438,206.361,408.989,206.361,396.1z"/>
<g>
</g>
<g>
</g>
<g>
</g>
<g>
</g>
<g>
</g>
<g>
</g>
<g>
</g>
<g>
</g>
<g>
</g>
<g>
</g>
<g>
</g>
<g>
</g>
<g>
</g>
<g>
</g>
<g>
</g>
</svg>
