<?xml version="1.0" encoding="iso-8859-1"?>
<!-- Generator: Adobe Illustrator 19.0.0, SVG Export Plug-In . SVG Version: 6.00 Build 0)  -->
<svg xmlns="http://www.w3.org/2000/svg" xmlns:xlink="http://www.w3.org/1999/xlink" version="1.1" id="Layer_1" x="0px" y="0px" viewBox="0 0 512 512" style="enable-background:new 0 0 512 512;" xml:space="preserve">
<path style="fill:#515262;" d="M256,512C574.387,425.057,493.084,66.416,493.084,66.416C342.141,94.189,256,0,256,0  S169.859,94.189,18.916,66.415C18.916,66.415-62.387,425.057,256,512z"/>
<path style="fill:#FFD782;" d="M235.738,67.878c-36.198,22.113-90.93,45.165-161.889,45.169c-0.008,0-0.013,0-0.021,0  c-6.609,0-13.275-0.204-19.976-0.61c-3.426,32.421-5.419,82.694,4.961,136.273c0.388,2.002,0.816,3.971,1.232,5.95h175.692V67.878  H235.738z"/>
<g>
	<path style="fill:#FFFFFF;" d="M458.072,112.442c-6.68,0.403-13.325,0.605-19.918,0.605   c-70.965,0.002-125.699-23.051-161.899-45.167V254.66h175.701c0.253-1.201,0.525-2.385,0.767-3.593   C463.554,196.977,461.533,145.487,458.072,112.442z"/>
	<path style="fill:#FFFFFF;" d="M235.738,295.176H71.086c10.93,32,26.252,60.264,45.801,84.391   C146.408,416,186.3,443.627,235.74,461.962V295.176H235.738z"/>
</g>
<path style="fill:#FFD782;" d="M276.255,295.176v166.789c48.985-18.164,88.6-45.45,118.03-81.381  c19.94-24.344,35.53-52.959,46.614-85.408L276.255,295.176L276.255,295.176z"/>
<path style="opacity:0.1;enable-background:new    ;" d="M142.913,62.76c-34.276,8.953-75.831,12.518-123.997,3.655  c0,0-81.303,358.642,237.084,445.586C166.905,387.592,75.473,276.01,142.913,62.76z"/>
<g>
</g>
<g>
</g>
<g>
</g>
<g>
</g>
<g>
</g>
<g>
</g>
<g>
</g>
<g>
</g>
<g>
</g>
<g>
</g>
<g>
</g>
<g>
</g>
<g>
</g>
<g>
</g>
<g>
</g>
</svg>
