<?xml version="1.0" encoding="iso-8859-1"?>
<!-- Generator: Adobe Illustrator 19.0.0, SVG Export Plug-In . SVG Version: 6.00 Build 0)  -->
<svg xmlns="http://www.w3.org/2000/svg" xmlns:xlink="http://www.w3.org/1999/xlink" version="1.1" id="Layer_1" x="0px" y="0px" viewBox="0 0 512 512" style="enable-background:new 0 0 512 512;" xml:space="preserve">
<path style="fill:#D9D9D9;" d="M256.001,144.744L0,209.617v226.189c0,24.857,20.151,45.008,45.008,45.008h421.984  c24.857,0,45.008-20.151,45.008-45.008V209.617L256.001,144.744z"/>
<path style="fill:#FF6465;" d="M475.781,79.868H36.22C16.216,79.868,0,96.085,0,116.089v93.529h512v-93.529  C512,96.085,495.784,79.868,475.781,79.868z"/>
<path style="opacity:0.1;enable-background:new    ;" d="M59.561,435.805V116.089c0-20.004,16.216-36.22,36.22-36.22H36.22  C16.216,79.868,0,96.085,0,116.089v319.718c0,24.857,20.151,45.008,45.008,45.008h59.561  C79.712,480.814,59.561,460.664,59.561,435.805z"/>
<g>
	<path style="fill:#515262;" d="M92.209,130.283c-11.513,0-20.846-9.333-20.846-20.846V52.032c0-11.513,9.333-20.846,20.846-20.846   s20.846,9.333,20.846,20.846v57.405C113.055,120.95,103.722,130.283,92.209,130.283z"/>
	<path style="fill:#515262;" d="M201.403,130.283c-11.513,0-20.846-9.333-20.846-20.846V52.032c0-11.513,9.333-20.846,20.846-20.846   c11.513,0,20.846,9.333,20.846,20.846v57.405C222.25,120.95,212.917,130.283,201.403,130.283z"/>
	<path style="fill:#515262;" d="M310.598,130.283c-11.513,0-20.846-9.333-20.846-20.846V52.032c0-11.513,9.333-20.846,20.846-20.846   c11.513,0,20.846,9.333,20.846,20.846v57.405C331.444,120.95,322.111,130.283,310.598,130.283z"/>
	<path style="fill:#515262;" d="M419.792,130.283c-11.513,0-20.846-9.333-20.846-20.846V52.032c0-11.513,9.333-20.846,20.846-20.846   c11.513,0,20.846,9.333,20.846,20.846v57.405C440.639,120.95,431.305,130.283,419.792,130.283z"/>
	<path style="fill:#515262;" d="M180.894,241.277c-23.259,0-42.394,13.837-54.759,32.68c-12.953,18.842-19.725,43.277-20.02,70.364   c0.294,26.791,7.065,51.52,20.02,70.363c12.365,18.549,31.501,32.68,54.759,32.68c22.67,0,42.101-14.131,54.466-32.68   c12.659-18.843,19.724-43.572,19.724-70.363c0-27.086-7.065-51.522-19.724-70.364C222.995,255.114,203.564,241.277,180.894,241.277   z M208.274,396.43c-8.537,12.66-18.253,18.253-27.38,18.253c-9.126,0-19.136-5.593-27.969-18.253   c-8.243-12.365-14.131-31.208-14.131-52.11c0-21.198,5.888-39.745,14.131-52.405c8.833-12.365,18.843-18.253,27.969-17.959   c9.127-0.295,18.842,5.593,27.38,17.959c8.244,12.66,14.133,31.208,14.133,52.405C222.406,365.222,216.518,384.065,208.274,396.43z   "/>
	<path style="fill:#515262;" d="M352.54,242.16c0,0-2.542,1.365-2.649,1.472l-36.212,21.491c-7.656,4.417-10.305,14.721-5.3,22.082   c2.944,5.299,8.243,8.243,13.836,8.243c2.649,0,5.594-0.588,8.244-2.356l11.776-6.771V431.17c0,9.127,7.065,16.192,16.192,16.192   c8.832,0,16.487-7.065,16.487-16.192V257.469c0-0.294,0-0.588,0-0.883C374.914,242.708,361.913,238.365,352.54,242.16z"/>
</g>
<g>
</g>
<g>
</g>
<g>
</g>
<g>
</g>
<g>
</g>
<g>
</g>
<g>
</g>
<g>
</g>
<g>
</g>
<g>
</g>
<g>
</g>
<g>
</g>
<g>
</g>
<g>
</g>
<g>
</g>
</svg>
