<?xml version="1.0" encoding="iso-8859-1"?>
<!-- Generator: Adobe Illustrator 19.0.0, SVG Export Plug-In . SVG Version: 6.00 Build 0)  -->
<svg xmlns="http://www.w3.org/2000/svg" xmlns:xlink="http://www.w3.org/1999/xlink" version="1.1" id="Layer_1" x="0px" y="0px" viewBox="0 0 511.999 511.999" style="enable-background:new 0 0 511.999 511.999;" xml:space="preserve">
<path style="fill:#806F71;" d="M343.615,178.332H168.385c-12.795,0-23.167-10.372-23.167-23.167V77.014  c0-25.242,20.536-45.777,45.777-45.777h130.01c25.242,0,45.777,20.536,45.777,45.777v78.151  C366.782,167.96,356.41,178.332,343.615,178.332z M191.553,131.998h128.893V77.573H191.553V131.998z"/>
<path style="opacity:0.1;enable-background:new    ;" d="M320.447,91.129v40.868H191.553V91.129h-46.335v64.036  c0,12.795,10.372,23.167,23.167,23.167h175.228c12.795,0,23.167-10.372,23.167-23.167V91.129H320.447z"/>
<path style="fill:#5B4F51;" d="M482.148,125.88H29.852C13.365,125.88,0,139.245,0,155.733v295.176  c0,16.487,13.365,29.852,29.852,29.852h452.294c16.487,0,29.852-13.365,29.852-29.852V155.733  C512,139.245,498.635,125.88,482.148,125.88z"/>
<path style="opacity:0.1;enable-background:new    ;" d="M57.919,450.91V155.734c0-16.487,13.365-29.852,29.852-29.852H29.852  C13.365,125.88,0,139.245,0,155.733v295.176c0,16.487,13.365,29.852,29.852,29.852h57.919  C71.284,480.762,57.919,467.397,57.919,450.91z"/>
<g>
</g>
<g>
</g>
<g>
</g>
<g>
</g>
<g>
</g>
<g>
</g>
<g>
</g>
<g>
</g>
<g>
</g>
<g>
</g>
<g>
</g>
<g>
</g>
<g>
</g>
<g>
</g>
<g>
</g>
</svg>
