<?xml version="1.0" encoding="iso-8859-1"?>
<!-- Generator: Adobe Illustrator 19.0.0, SVG Export Plug-In . SVG Version: 6.00 Build 0)  -->
<svg xmlns="http://www.w3.org/2000/svg" xmlns:xlink="http://www.w3.org/1999/xlink" version="1.1" id="Layer_1" x="0px" y="0px" viewBox="0 0 512.003 512.003" style="enable-background:new 0 0 512.003 512.003;" xml:space="preserve">
<path style="fill:#353640;" d="M398.077,142.082H113.923v163.496h101.026c4.926,18.056,21.433,31.333,41.051,31.333  s36.124-13.277,41.051-31.333h101.026V142.082H398.077z"/>
<circle style="fill:#515262;" cx="113.923" cy="256.002" r="113.923"/>
<circle style="fill:#A5EB78;" cx="113.923" cy="256.002" r="67.905"/>
<path style="opacity:0.1;enable-background:new    ;" d="M79.69,256.005c0-31.691,21.711-58.308,51.069-65.798  c-5.384-1.374-11.024-2.107-16.836-2.107c-37.503,0-67.905,30.402-67.905,67.905s30.402,67.905,67.905,67.905  c5.812,0,11.452-0.733,16.836-2.107C101.401,314.314,79.69,287.696,79.69,256.005z"/>
<circle style="fill:#515262;" cx="398.08" cy="256.002" r="113.923"/>
<circle style="fill:#A5EB78;" cx="398.08" cy="256.002" r="67.905"/>
<path style="opacity:0.1;enable-background:new    ;" d="M363.844,256.005c0-31.691,21.711-58.308,51.069-65.798  c-5.384-1.374-11.024-2.107-16.836-2.107c-37.503,0-67.905,30.402-67.905,67.905s30.402,67.905,67.905,67.905  c5.812,0,11.452-0.733,16.836-2.107C385.554,314.314,363.844,287.696,363.844,256.005z"/>
<g>
</g>
<g>
</g>
<g>
</g>
<g>
</g>
<g>
</g>
<g>
</g>
<g>
</g>
<g>
</g>
<g>
</g>
<g>
</g>
<g>
</g>
<g>
</g>
<g>
</g>
<g>
</g>
<g>
</g>
</svg>
