<?xml version="1.0" encoding="iso-8859-1"?>
<!-- Generator: Adobe Illustrator 19.0.0, SVG Export Plug-In . SVG Version: 6.00 Build 0)  -->
<svg xmlns="http://www.w3.org/2000/svg" xmlns:xlink="http://www.w3.org/1999/xlink" version="1.1" id="Layer_1" x="0px" y="0px" viewBox="0 0 512.001 512.001" style="enable-background:new 0 0 512.001 512.001;" xml:space="preserve">
<path style="fill:#7DD2F0;" d="M490.9,80.362H21.1C9.447,80.362,0,89.807,0,101.46v309.081c0,11.653,9.447,21.1,21.1,21.1h469.802  c11.653,0,21.1-9.447,21.1-21.1V101.46C512,89.807,502.553,80.362,490.9,80.362z"/>
<path style="fill:#FFFFFF;" d="M42.198,122.56h192.41v266.882H42.198V122.56z M469.802,389.442h-192.41V122.56h192.41V389.442z"/>
<g>
	<polygon style="fill:#515262;" points="109.374,342.174 109.374,169.828 204.992,256.001  "/>
	<polygon style="fill:#515262;" points="402.626,342.174 402.626,169.828 307.008,256.001  "/>
</g>
<path style="opacity:0.1;enable-background:new    ;" d="M77.15,410.541V101.46c0-11.653,9.447-21.1,21.1-21.1H21.1  C9.447,80.362,0,89.807,0,101.46v309.081c0,11.653,9.447,21.1,21.1,21.1h77.15C86.597,431.64,77.15,422.193,77.15,410.541z"/>
<g>
</g>
<g>
</g>
<g>
</g>
<g>
</g>
<g>
</g>
<g>
</g>
<g>
</g>
<g>
</g>
<g>
</g>
<g>
</g>
<g>
</g>
<g>
</g>
<g>
</g>
<g>
</g>
<g>
</g>
</svg>
