<?xml version="1.0" encoding="iso-8859-1"?>
<!-- Generator: Adobe Illustrator 19.0.0, SVG Export Plug-In . SVG Version: 6.00 Build 0)  -->
<svg xmlns="http://www.w3.org/2000/svg" xmlns:xlink="http://www.w3.org/1999/xlink" version="1.1" id="Layer_1" x="0px" y="0px" viewBox="0 0 512 512" style="enable-background:new 0 0 512 512;" xml:space="preserve">
<path style="fill:#29ABD9;" d="M503.924,286.544C503.924,411.06,392.924,512,255.999,512S8.075,411.06,8.075,286.544v-61.088h495.85  v61.088H503.924z"/>
<ellipse style="fill:#2DBFF2;" cx="255.994" cy="225.451" rx="247.919" ry="225.451"/>
<path style="fill:#A6E7FF;" d="M255.999,408.15c-113.128,0-205.163-81.957-205.163-182.694S142.872,42.762,255.999,42.762  s205.163,81.957,205.163,182.694S369.127,408.15,255.999,408.15z"/>
<path style="opacity:0.1;enable-background:new    ;" d="M77.715,252.335c0-100.738,92.035-182.694,205.163-182.694  c53.592,0,102.442,18.401,139.025,48.471c-37.336-45.631-97.791-75.35-165.904-75.35c-113.128,0-205.163,81.957-205.163,182.694  c0,53.015,25.498,100.82,66.137,134.224C92.3,329.522,77.715,292.419,77.715,252.335z"/>
<polygon style="fill:#FF6465;" points="154.691,326.764 221.204,190.66 357.308,124.148 290.795,260.252 "/>
<circle style="fill:#FFFFFF;" cx="255.994" cy="225.451" r="23.929"/>
<g>
</g>
<g>
</g>
<g>
</g>
<g>
</g>
<g>
</g>
<g>
</g>
<g>
</g>
<g>
</g>
<g>
</g>
<g>
</g>
<g>
</g>
<g>
</g>
<g>
</g>
<g>
</g>
<g>
</g>
</svg>
