<?xml version="1.0" encoding="iso-8859-1"?>
<!-- Generator: Adobe Illustrator 19.0.0, SVG Export Plug-In . SVG Version: 6.00 Build 0)  -->
<svg xmlns="http://www.w3.org/2000/svg" xmlns:xlink="http://www.w3.org/1999/xlink" version="1.1" id="Layer_1" x="0px" y="0px" viewBox="0 0 512 512" style="enable-background:new 0 0 512 512;" xml:space="preserve">
<path style="fill:#353640;" d="M223.511,27.428h-73.535c-12.325,0-22.316,9.992-22.316,22.316v439.94  c0,12.325,9.992,22.316,22.316,22.316h212.049c12.325,0,22.316-9.992,22.316-22.316V49.745c0-12.325-9.992-22.316-22.316-22.316  h-73.535V0h-64.977v27.428H223.511z"/>
<g>
	<rect x="162.298" y="364.467" style="fill:#A5EB78;" width="187.4" height="104.57"/>
	<rect x="162.298" y="217.431" style="fill:#A5EB78;" width="187.4" height="104.57"/>
	<rect x="162.298" y="70.392" style="fill:#A5EB78;" width="187.4" height="104.57"/>
</g>
<rect x="162.298" y="70.392" style="opacity:0.1;enable-background:new    ;" width="46.183" height="104.57"/>
<rect x="162.298" y="217.431" style="opacity:0.1;enable-background:new    ;" width="46.183" height="104.57"/>
<rect x="162.298" y="364.467" style="opacity:0.1;enable-background:new    ;" width="46.183" height="104.57"/>
<g>
</g>
<g>
</g>
<g>
</g>
<g>
</g>
<g>
</g>
<g>
</g>
<g>
</g>
<g>
</g>
<g>
</g>
<g>
</g>
<g>
</g>
<g>
</g>
<g>
</g>
<g>
</g>
<g>
</g>
</svg>
