<?xml version="1.0" encoding="iso-8859-1"?>
<!-- Generator: Adobe Illustrator 19.0.0, SVG Export Plug-In . SVG Version: 6.00 Build 0)  -->
<svg xmlns="http://www.w3.org/2000/svg" xmlns:xlink="http://www.w3.org/1999/xlink" version="1.1" id="Layer_1" x="0px" y="0px" viewBox="0 0 512 512" style="enable-background:new 0 0 512 512;" xml:space="preserve">
<polygon style="fill:#E6C275;" points="110.388,431.391 154.411,440.189 193.356,401.244 184.558,357.221 228.583,366.02   313.059,281.544 230.456,198.941 0,429.399 9.041,502.959 82.601,512 119.187,475.416 "/>
<path style="opacity:0.1;enable-background:new    ;" d="M156.792,272.607c10.225,16.417,22.48,31.879,36.601,46  c14.085,14.085,29.589,26.325,46.053,36.55l73.614-73.614l-82.601-82.602L156.792,272.607z"/>
<ellipse transform="matrix(0.7071 -0.7071 0.7071 0.7071 -28.0942 288.2908)" style="fill:#FF6465;" cx="333.951" cy="178.058" rx="153.812" ry="181.406"/>
<path style="opacity:0.1;enable-background:new    ;" d="M442.719,69.28c-22.306-22.306-48.111-38.449-74.873-48.232l-27.422,27.42  L301.888,9.933c-18.049,0.495-35.588,3.987-51.828,10.549l-10.687,252.143l252.143-10.685c6.561-16.24,10.054-33.778,10.549-51.828  l-38.536-38.536l27.42-27.42C481.168,117.391,465.026,91.587,442.719,69.28z"/>
<polygon style="fill:#E6E6E6;" points="399.94,171.575 512,59.514 452.486,0 340.425,112.06 293.188,64.823 286.373,225.627   447.176,218.812 "/>
<g>
</g>
<g>
</g>
<g>
</g>
<g>
</g>
<g>
</g>
<g>
</g>
<g>
</g>
<g>
</g>
<g>
</g>
<g>
</g>
<g>
</g>
<g>
</g>
<g>
</g>
<g>
</g>
<g>
</g>
</svg>
