<?xml version="1.0" encoding="iso-8859-1"?>
<!-- Generator: Adobe Illustrator 19.0.0, SVG Export Plug-In . SVG Version: 6.00 Build 0)  -->
<svg xmlns="http://www.w3.org/2000/svg" xmlns:xlink="http://www.w3.org/1999/xlink" version="1.1" id="Layer_1" x="0px" y="0px" viewBox="0 0 512 512" style="enable-background:new 0 0 512 512;" xml:space="preserve">
<polygon style="fill:#BFC7D9;" points="365.395,0 208.753,0 208.753,383.609 482.996,383.609 482.996,101.659 424.195,50.829 "/>
<polygon style="opacity:0.1;enable-background:new    ;" points="365.395,0 330.289,0 330.289,136.765 482.996,136.765   482.996,101.659 424.195,50.829 "/>
<g>
	<polygon style="fill:#C7CFE2;" points="426.892,0 365.395,0 365.395,101.659 482.996,101.659 482.996,56.104  "/>
	<polygon style="fill:#C7CFE2;" points="185.647,128.391 29.004,128.391 29.004,512 303.247,512 303.247,230.05 244.446,179.221     "/>
</g>
<polygon style="opacity:0.1;enable-background:new    ;" points="185.647,128.391 150.54,128.391 150.54,265.156 303.247,265.156   303.247,230.05 244.446,179.221 "/>
<polygon style="fill:#DCE5FA;" points="247.144,128.391 185.647,128.391 185.647,230.05 303.247,230.05 303.247,184.496 "/>
<g>
	<path style="fill:#515262;" d="M244.446,319.488H87.804c-4.847,0-8.777-3.93-8.777-8.777c0-4.847,3.93-8.777,8.777-8.777h156.642   c4.847,0,8.777,3.93,8.777,8.777C253.223,315.559,249.294,319.488,244.446,319.488z"/>
	<path style="fill:#515262;" d="M244.446,360.093H87.804c-4.847,0-8.777-3.93-8.777-8.777s3.93-8.777,8.777-8.777h156.642   c4.847,0,8.777,3.93,8.777,8.777S249.294,360.093,244.446,360.093z"/>
	<path style="fill:#515262;" d="M244.446,400.699H87.804c-4.847,0-8.777-3.93-8.777-8.777s3.93-8.777,8.777-8.777h156.642   c4.847,0,8.777,3.93,8.777,8.777S249.294,400.699,244.446,400.699z"/>
	<path style="fill:#515262;" d="M244.446,476.402h-78.321c-4.847,0-8.777-3.93-8.777-8.777s3.93-8.777,8.777-8.777h78.321   c4.847,0,8.777,3.93,8.777,8.777S249.294,476.402,244.446,476.402z"/>
</g>
<g>
</g>
<g>
</g>
<g>
</g>
<g>
</g>
<g>
</g>
<g>
</g>
<g>
</g>
<g>
</g>
<g>
</g>
<g>
</g>
<g>
</g>
<g>
</g>
<g>
</g>
<g>
</g>
<g>
</g>
</svg>
