<?xml version="1.0" encoding="iso-8859-1"?>
<!-- Generator: Adobe Illustrator 19.0.0, SVG Export Plug-In . SVG Version: 6.00 Build 0)  -->
<svg xmlns="http://www.w3.org/2000/svg" xmlns:xlink="http://www.w3.org/1999/xlink" version="1.1" id="Layer_1" x="0px" y="0px" viewBox="0 0 511.999 511.999" style="enable-background:new 0 0 511.999 511.999;" xml:space="preserve">
<path style="fill:#65667A;" d="M165.747,78.282h-53.495c-11.665,0-21.121,9.456-21.121,21.121v64.096h95.738V99.403  C186.868,87.738,177.412,78.282,165.747,78.282z"/>
<path style="opacity:0.1;enable-background:new    ;" d="M136.916,78.282h-24.664c-11.665,0-21.121,9.456-21.121,21.121v64.096  h24.664V99.403C115.795,87.738,125.251,78.282,136.916,78.282z"/>
<path style="fill:#65667A;" d="M470.249,125.949c-27.73,0-13.329-68.708-80.66-68.708h-68.781c-67.332,0-52.93,68.708-80.66,68.708  v37.55H470.25v-37.55H470.249z"/>
<path style="opacity:0.1;enable-background:new    ;" d="M357.804,57.241h-36.997c-67.333,0-52.93,68.708-80.66,68.708v37.55h36.997  v-37.55C304.874,125.949,290.471,57.241,357.804,57.241z"/>
<path style="fill:#515262;" d="M472.856,125.949H39.144C17.525,125.949,0,143.474,0,165.092v250.522  c0,21.618,17.525,39.144,39.144,39.144h433.711c21.618,0,39.144-17.525,39.144-39.144V165.092  C512,143.474,494.475,125.949,472.856,125.949z"/>
<circle style="fill:#C7CFE2;" cx="317.666" cy="290.35" r="113.925"/>
<circle style="fill:#65667A;" cx="317.666" cy="290.35" r="77.514"/>
<path style="opacity:0.1;enable-background:new    ;" d="M264.811,315.018c0-42.81,34.704-77.514,77.514-77.514  c15.087,0,29.158,4.326,41.068,11.782c-13.701-21.884-38.009-36.447-65.732-36.447c-42.81,0-77.514,34.705-77.514,77.514  c0,27.723,14.563,52.031,36.447,65.732C269.136,344.176,264.811,330.105,264.811,315.018z"/>
<circle style="fill:#FF6465;" cx="91.13" cy="197.167" r="33.666"/>
<path style="opacity:0.1;enable-background:new    ;" d="M69.797,209.497c0-18.593,15.074-33.666,33.666-33.666  c6.13,0,11.872,1.646,16.824,4.51c-5.821-10.066-16.693-16.842-29.156-16.842c-18.593,0-33.666,15.072-33.666,33.666  c0,12.463,6.778,23.335,16.842,29.156C71.443,221.369,69.797,215.627,69.797,209.497z"/>
<path style="fill:#C7CFE2;" d="M113.224,364.476H69.037c-9.878,0-17.885,8.007-17.885,17.885l0,0  c0,9.878,8.007,17.885,17.885,17.885h44.186c9.878,0,17.885-8.007,17.885-17.885l0,0  C131.109,372.485,123.102,364.476,113.224,364.476z"/>
<path style="opacity:0.1;enable-background:new    ;" d="M75.816,382.362c0-9.878,8.007-17.885,17.885-17.885H69.037  c-9.878,0-17.885,8.007-17.885,17.885c0,9.878,8.007,17.885,17.885,17.885h24.664C83.825,400.247,75.816,392.24,75.816,382.362z"/>
<g>
</g>
<g>
</g>
<g>
</g>
<g>
</g>
<g>
</g>
<g>
</g>
<g>
</g>
<g>
</g>
<g>
</g>
<g>
</g>
<g>
</g>
<g>
</g>
<g>
</g>
<g>
</g>
<g>
</g>
</svg>
