<?xml version="1.0" encoding="iso-8859-1"?>
<!-- Generator: Adobe Illustrator 19.0.0, SVG Export Plug-In . SVG Version: 6.00 Build 0)  -->
<svg xmlns="http://www.w3.org/2000/svg" xmlns:xlink="http://www.w3.org/1999/xlink" version="1.1" id="Layer_1" x="0px" y="0px" viewBox="0 0 512 512" style="enable-background:new 0 0 512 512;" xml:space="preserve">
<path style="fill:#7DD2F0;" d="M501.612,183.711H10.388C4.65,183.711,0,188.362,0,194.099v123.801  c0,5.737,4.651,10.388,10.388,10.388h491.224c5.738,0,10.388-4.651,10.388-10.388V194.099  C512,188.362,507.35,183.711,501.612,183.711z"/>
<g>
	<rect x="193.995" y="218.84" style="fill:#FFFFFF;" width="124.006" height="74.316"/>
	<rect x="34.748" y="218.84" style="fill:#FFFFFF;" width="124.006" height="74.316"/>
	<rect x="353.24" y="218.84" style="fill:#FFFFFF;" width="124.006" height="74.316"/>
</g>
<path style="opacity:0.1;enable-background:new    ;" d="M76.111,317.901V194.099c0-5.738,4.651-10.388,10.388-10.388H10.388  C4.651,183.711,0,188.362,0,194.099v123.801c0,5.737,4.651,10.388,10.388,10.388h76.111  C80.762,328.289,76.111,323.637,76.111,317.901z"/>
<g>
</g>
<g>
</g>
<g>
</g>
<g>
</g>
<g>
</g>
<g>
</g>
<g>
</g>
<g>
</g>
<g>
</g>
<g>
</g>
<g>
</g>
<g>
</g>
<g>
</g>
<g>
</g>
<g>
</g>
</svg>
