<?xml version="1.0" encoding="iso-8859-1"?>
<!-- Generator: Adobe Illustrator 19.0.0, SVG Export Plug-In . SVG Version: 6.00 Build 0)  -->
<svg xmlns="http://www.w3.org/2000/svg" xmlns:xlink="http://www.w3.org/1999/xlink" version="1.1" id="Layer_1" x="0px" y="0px" viewBox="0 0 512 512" style="enable-background:new 0 0 512 512;" xml:space="preserve">
<g>
	<path style="fill:#FF6465;" d="M256.001,512c-68.38,0-132.667-26.629-181.02-74.981C26.629,388.668,0,324.38,0,256.001   c0-68.38,26.629-132.667,74.98-181.02C123.334,26.629,187.619,0,256.001,0c68.379,0,132.667,26.629,181.018,74.981   C485.371,123.334,512,187.62,512,256.001s-26.63,132.667-74.981,181.02S324.38,512,256.001,512z M256.001,69.8   C153.329,69.8,69.8,153.329,69.8,256.001s83.529,186.2,186.201,186.2s186.201-83.529,186.201-186.2S358.671,69.8,256.001,69.8z"/>
	<polygon style="fill:#FF6465;" points="385.842,193.905 256.001,360.459 126.159,193.905  "/>
</g>
<g style="opacity:0.1;">
	<path d="M109.88,437.019C61.528,388.668,34.9,324.38,34.9,256.001s26.629-132.668,74.98-181.02   c44.217-44.216,101.76-70.25,163.57-74.384C267.666,0.211,261.85,0,255.999,0C187.619,0,123.332,26.629,74.98,74.981   C26.629,123.332,0,187.62,0,256.001s26.629,132.667,74.98,181.018C123.332,485.37,187.619,512,255.999,512   c5.85,0,11.667-0.209,17.45-0.597C211.639,507.27,154.097,481.235,109.88,437.019z"/>
</g>
<g>
</g>
<g>
</g>
<g>
</g>
<g>
</g>
<g>
</g>
<g>
</g>
<g>
</g>
<g>
</g>
<g>
</g>
<g>
</g>
<g>
</g>
<g>
</g>
<g>
</g>
<g>
</g>
<g>
</g>
</svg>
