<?xml version="1.0" encoding="iso-8859-1"?>
<!-- Generator: Adobe Illustrator 19.0.0, SVG Export Plug-In . SVG Version: 6.00 Build 0)  -->
<svg xmlns="http://www.w3.org/2000/svg" xmlns:xlink="http://www.w3.org/1999/xlink" version="1.1" id="Layer_1" x="0px" y="0px" viewBox="0 0 512 512" style="enable-background:new 0 0 512 512;" xml:space="preserve">
<g>
	<polygon style="fill:#FF6465;" points="427.82,157.598 352.923,120.519 352.923,31.677 427.82,31.677  "/>
	<polygon style="fill:#FF6465;" points="65.813,181.685 65.813,510.242 446.187,510.242 446.187,181.685 256,87.381  "/>
</g>
<path style="fill:#7DD2F0;" d="M256,175.706L256,175.706c-26.813,0-48.55,21.737-48.55,48.55v48.55h97.101v-48.55  C304.55,197.443,282.813,175.706,256,175.706z"/>
<rect x="207.446" y="326.829" style="fill:#FFD782;" width="97.098" height="183.406"/>
<polygon style="opacity:0.1;enable-background:new    ;" points="65.813,181.685 65.813,258.997 256,159.535 446.187,258.997   446.187,181.685 256,87.381 "/>
<polygon style="fill:#FFD782;" points="483.36,236.594 256,117.691 28.64,236.594 0,181.832 256,47.953 512,181.832 "/>
<rect x="352.92" y="31.677" style="opacity:0.1;enable-background:new    ;" width="74.9" height="58.672"/>
<rect x="334.554" y="1.758" style="fill:#FFD782;" width="111.633" height="51.514"/>
<g>
</g>
<g>
</g>
<g>
</g>
<g>
</g>
<g>
</g>
<g>
</g>
<g>
</g>
<g>
</g>
<g>
</g>
<g>
</g>
<g>
</g>
<g>
</g>
<g>
</g>
<g>
</g>
<g>
</g>
</svg>
