<?xml version="1.0" encoding="iso-8859-1"?>
<!-- Generator: Adobe Illustrator 19.0.0, SVG Export Plug-In . SVG Version: 6.00 Build 0)  -->
<svg xmlns="http://www.w3.org/2000/svg" xmlns:xlink="http://www.w3.org/1999/xlink" version="1.1" id="Layer_1" x="0px" y="0px" viewBox="0 0 512 512" style="enable-background:new 0 0 512 512;" xml:space="preserve">
<path style="fill:#FF6465;" d="M37.102,255.973l36.675,175.212c5.064,24.195,26.398,41.525,51.117,41.525h262.212  c24.719,0,46.053-17.33,51.117-41.525l36.675-175.211H37.102V255.973z"/>
<g>
	<path style="fill:#FFD782;" d="M381.516,329.714c-12.637,0-22.88,10.244-22.88,22.88v57.517c0,12.637,10.244,22.88,22.88,22.88   s22.88-10.244,22.88-22.88v-57.517C404.396,339.958,394.152,329.714,381.516,329.714z"/>
	<path style="fill:#FFD782;" d="M297.838,329.714c-12.637,0-22.88,10.244-22.88,22.88v57.517c0,12.637,10.244,22.88,22.88,22.88   c12.637,0,22.88-10.244,22.88-22.88v-57.517C320.719,339.958,310.475,329.714,297.838,329.714z"/>
	<path style="fill:#FFD782;" d="M214.161,329.714c-12.637,0-22.88,10.244-22.88,22.88v57.517c0,12.637,10.244,22.88,22.88,22.88   s22.88-10.244,22.88-22.88v-57.517C237.042,339.958,226.798,329.714,214.161,329.714z"/>
	<path style="fill:#FFD782;" d="M130.484,329.714c-12.637,0-22.88,10.244-22.88,22.88v57.517c0,12.637,10.244,22.88,22.88,22.88   s22.88-10.244,22.88-22.88v-57.517C153.365,339.958,143.121,329.714,130.484,329.714z"/>
</g>
<path style="opacity:0.1;enable-background:new    ;" d="M119.144,431.184L82.469,255.973H37.102l36.675,175.212  c5.064,24.195,26.398,41.525,51.117,41.525h45.368C145.542,472.709,124.21,455.379,119.144,431.184z"/>
<path style="fill:#FFD782;" d="M473.379,217.352H38.621C17.291,217.352,0,234.643,0,255.973l0,0  c0,21.33,17.291,38.621,38.621,38.621h434.757c21.33,0,38.621-17.291,38.621-38.621l0,0  C512,234.643,494.708,217.352,473.379,217.352z"/>
<path style="opacity:0.1;enable-background:new    ;" d="M45.368,255.973c0-21.33,17.291-38.621,38.621-38.621H38.621  C17.291,217.352,0,234.643,0,255.973s17.291,38.621,38.621,38.621h45.368C62.658,294.594,45.368,277.303,45.368,255.973z"/>
<path style="fill:#FF6465;" d="M111.524,260.419c-17.59-6.612-26.489-26.232-19.877-43.822l58.359-155.243  c6.612-17.59,26.233-26.489,43.823-19.877S220.317,67.71,213.705,85.3l-58.359,155.243  C148.733,258.132,129.113,267.031,111.524,260.419z"/>
<circle style="fill:#FFD782;" cx="124.046" cy="227.11" r="12.397"/>
<path style="fill:#FF6465;" d="M400.476,260.419c17.59-6.612,26.489-26.232,19.877-43.822L361.996,61.353  c-6.612-17.59-26.233-26.489-43.823-19.877c-17.59,6.612-26.489,26.233-19.877,43.823l58.359,155.243  C363.267,258.132,382.886,267.031,400.476,260.419z"/>
<circle style="fill:#FFD782;" cx="387.961" cy="227.11" r="12.397"/>
<g>
</g>
<g>
</g>
<g>
</g>
<g>
</g>
<g>
</g>
<g>
</g>
<g>
</g>
<g>
</g>
<g>
</g>
<g>
</g>
<g>
</g>
<g>
</g>
<g>
</g>
<g>
</g>
<g>
</g>
</svg>
