<?xml version="1.0" encoding="iso-8859-1"?>
<!-- Generator: Adobe Illustrator 19.0.0, SVG Export Plug-In . SVG Version: 6.00 Build 0)  -->
<svg xmlns="http://www.w3.org/2000/svg" xmlns:xlink="http://www.w3.org/1999/xlink" version="1.1" id="Layer_1" x="0px" y="0px" viewBox="0 0 512 512" style="enable-background:new 0 0 512 512;" xml:space="preserve">
<g>
	<path style="fill:#AFB6C7;" d="M256,0c-13.68,0-24.769,11.09-24.769,24.769v57.494h49.538V24.769C280.769,11.09,269.68,0,256,0z"/>
	<path style="fill:#AFB6C7;" d="M99.002,512c-3.144,0-6.333-0.757-9.295-2.355c-9.539-5.143-13.102-17.045-7.959-26.585   l131.191-243.319c5.142-9.537,17.045-13.104,26.585-7.959c9.539,5.143,13.102,17.045,7.959,26.585L116.291,501.686   C112.745,508.264,105.985,512,99.002,512z"/>
	<path style="fill:#AFB6C7;" d="M412.998,512c3.144,0,6.333-0.757,9.295-2.355c9.539-5.143,13.102-17.045,7.959-26.585   L299.062,239.741c-5.142-9.537-17.045-13.104-26.585-7.959c-9.539,5.143-13.102,17.045-7.959,26.585l131.191,243.319   C399.255,508.264,406.015,512,412.998,512z"/>
</g>
<rect x="79.107" y="44.011" style="fill:#FF6465;" width="353.789" height="239.922"/>
<rect x="112.745" y="77.649" style="fill:#FFFFFF;" width="286.511" height="151.441"/>
<polygon style="opacity:0.1;enable-background:new    ;" points="135.172,100.073 399.253,100.073 399.253,77.647 112.747,77.647   112.747,229.091 135.172,229.091 "/>
<path style="fill:#C7CFE2;" d="M442.545,262.73H69.455c-11.705,0-21.195,9.489-21.195,21.195l0,0  c0,11.705,9.489,21.195,21.195,21.195h373.09c11.705,0,21.195-9.489,21.195-21.195l0,0  C463.741,272.218,454.251,262.73,442.545,262.73z"/>
<polygon style="opacity:0.1;enable-background:new    ;" points="133.858,386.412 115.721,420.051 160.307,420.051 178.444,386.412   "/>
<polygon style="opacity:0.1;enable-background:new    ;" points="333.556,386.412 351.693,420.051 396.279,420.051 378.142,386.412   "/>
<path style="fill:#C7CFE2;" d="M425.314,386.412H86.686c-10.837,0-19.623-8.785-19.623-19.623s8.785-19.623,19.623-19.623h338.629  c10.837,0,19.623,8.785,19.623,19.623S436.152,386.412,425.314,386.412z"/>
<g>
</g>
<g>
</g>
<g>
</g>
<g>
</g>
<g>
</g>
<g>
</g>
<g>
</g>
<g>
</g>
<g>
</g>
<g>
</g>
<g>
</g>
<g>
</g>
<g>
</g>
<g>
</g>
<g>
</g>
</svg>
