<?xml version="1.0" encoding="iso-8859-1"?>
<!-- Generator: Adobe Illustrator 19.0.0, SVG Export Plug-In . SVG Version: 6.00 Build 0)  -->
<svg xmlns="http://www.w3.org/2000/svg" xmlns:xlink="http://www.w3.org/1999/xlink" version="1.1" id="Layer_1" x="0px" y="0px" viewBox="0 0 512 512" style="enable-background:new 0 0 512 512;" xml:space="preserve">
<path style="fill:#7DD2F0;" d="M196.005,40.779H24.239C10.852,40.779,0,51.631,0,65.017v44.927  c0,13.386,10.852,24.239,24.239,24.239h171.766c13.386,0,24.239-10.852,24.239-24.239V65.017  C220.244,51.631,209.393,40.779,196.005,40.779z"/>
<path style="opacity:0.1;enable-background:new    ;" d="M58.681,109.945V65.017c0-13.386,10.852-24.239,24.239-24.239H24.239  C10.852,40.779,0,51.631,0,65.017v44.927c0,13.386,10.852,24.239,24.239,24.239H82.92C69.533,134.184,58.681,123.332,58.681,109.945  z"/>
<path style="fill:#7DD2F0;" d="M315.995,40.779h171.766c13.386,0,24.239,10.852,24.239,24.239v44.927  c0,13.386-10.852,24.239-24.239,24.239H315.995c-13.386,0-24.239-10.852-24.239-24.239V65.017  C291.756,51.631,302.607,40.779,315.995,40.779z"/>
<g>
	<path style="fill:#78C9E6;" d="M196.005,209.298H24.239C10.852,209.298,0,220.15,0,233.536v44.927   c0,13.386,10.852,24.239,24.239,24.239h171.766c13.386,0,24.239-10.852,24.239-24.239v-44.927   C220.244,220.15,209.393,209.298,196.005,209.298z"/>
	<path style="fill:#78C9E6;" d="M315.995,209.298h171.766c13.386,0,24.239,10.852,24.239,24.239v44.927   c0,13.386-10.852,24.239-24.239,24.239H315.995c-13.386,0-24.239-10.852-24.239-24.239v-44.927   C291.756,220.15,302.607,209.298,315.995,209.298z"/>
</g>
<g>
	<path style="fill:#6AB2CC;" d="M196.005,377.817H24.239C10.852,377.817,0,388.668,0,402.055v44.927   c0,13.386,10.852,24.239,24.239,24.239h171.766c13.386,0,24.239-10.852,24.239-24.239v-44.927   C220.244,388.668,209.393,377.817,196.005,377.817z"/>
	<path style="fill:#6AB2CC;" d="M315.995,377.817h171.766c13.386,0,24.239,10.852,24.239,24.239v44.927   c0,13.386-10.852,24.239-24.239,24.239H315.995c-13.386,0-24.239-10.852-24.239-24.239v-44.927   C291.756,388.668,302.607,377.817,315.995,377.817z"/>
</g>
<path style="opacity:0.1;enable-background:new    ;" d="M350.437,109.945V65.017c0-13.386,10.852-24.239,24.239-24.239h-58.681  c-13.386,0-24.239,10.852-24.239,24.239v44.927c0,13.386,10.852,24.239,24.239,24.239h58.681  C361.288,134.184,350.437,123.332,350.437,109.945z"/>
<path style="opacity:0.1;enable-background:new    ;" d="M58.681,278.464v-44.927c0-13.386,10.852-24.239,24.239-24.239H24.239  C10.852,209.298,0,220.15,0,233.536v44.927c0,13.386,10.852,24.239,24.239,24.239H82.92  C69.533,302.702,58.681,291.85,58.681,278.464z"/>
<path style="opacity:0.1;enable-background:new    ;" d="M350.437,278.464v-44.927c0-13.386,10.852-24.239,24.239-24.239h-58.681  c-13.386,0-24.239,10.852-24.239,24.239v44.927c0,13.386,10.852,24.239,24.239,24.239h58.681  C361.288,302.702,350.437,291.85,350.437,278.464z"/>
<path style="opacity:0.1;enable-background:new    ;" d="M58.681,446.983v-44.927c0-13.386,10.852-24.239,24.239-24.239H24.239  C10.852,377.817,0,388.668,0,402.055v44.927c0,13.386,10.852,24.239,24.239,24.239H82.92  C69.533,471.221,58.681,460.369,58.681,446.983z"/>
<path style="opacity:0.1;enable-background:new    ;" d="M350.437,446.983v-44.927c0-13.386,10.852-24.239,24.239-24.239h-58.681  c-13.386,0-24.239,10.852-24.239,24.239v44.927c0,13.386,10.852,24.239,24.239,24.239h58.681  C361.288,471.221,350.437,460.369,350.437,446.983z"/>
<g>
</g>
<g>
</g>
<g>
</g>
<g>
</g>
<g>
</g>
<g>
</g>
<g>
</g>
<g>
</g>
<g>
</g>
<g>
</g>
<g>
</g>
<g>
</g>
<g>
</g>
<g>
</g>
<g>
</g>
</svg>
