<?xml version="1.0" encoding="iso-8859-1"?>
<!-- Generator: Adobe Illustrator 19.0.0, SVG Export Plug-In . SVG Version: 6.00 Build 0)  -->
<svg xmlns="http://www.w3.org/2000/svg" xmlns:xlink="http://www.w3.org/1999/xlink" version="1.1" id="Layer_1" x="0px" y="0px" viewBox="0 0 512 512" style="enable-background:new 0 0 512 512;" xml:space="preserve">
<g>
	<circle style="fill:#FF6465;" cx="256.001" cy="256.001" r="30.055"/>
	<path style="fill:#FF6465;" d="M503.527,247.526H474.1C469.739,133.892,378.108,42.261,264.474,37.9V8.473   c0-4.68-3.794-8.473-8.473-8.473c-4.68,0-8.473,3.794-8.473,8.473v29.428C133.892,42.262,42.262,133.892,37.901,247.526H8.473   c-4.68,0-8.473,3.794-8.473,8.473s3.794,8.473,8.473,8.473h29.428c4.361,113.634,95.992,205.265,209.626,209.626v29.428   c0,4.68,3.794,8.473,8.473,8.473c4.68,0,8.473-3.794,8.473-8.473v-29.428c113.634-4.361,205.265-95.992,209.626-209.626h29.427   c4.68,0,8.473-3.794,8.473-8.473C512,251.32,508.206,247.526,503.527,247.526z M264.473,457.14v-29.056   c0-4.68-3.794-8.473-8.473-8.473c-4.68,0-8.473,3.794-8.473,8.473v29.056C143.239,452.8,59.199,368.761,54.858,264.473h29.056   c4.68,0,8.473-3.794,8.473-8.473s-3.794-8.473-8.473-8.473H54.858c4.341-104.288,88.381-188.327,192.668-192.668v29.056   c0,4.68,3.794,8.473,8.473,8.473c4.68,0,8.473-3.794,8.473-8.473V54.858c104.288,4.341,188.327,88.379,192.668,192.668h-29.056   c-4.68,0-8.473,3.794-8.473,8.473s3.794,8.473,8.473,8.473h29.056C452.801,368.761,368.761,452.8,264.473,457.14z"/>
</g>
<g>
</g>
<g>
</g>
<g>
</g>
<g>
</g>
<g>
</g>
<g>
</g>
<g>
</g>
<g>
</g>
<g>
</g>
<g>
</g>
<g>
</g>
<g>
</g>
<g>
</g>
<g>
</g>
<g>
</g>
</svg>
