<?xml version="1.0" encoding="iso-8859-1"?>
<!-- Generator: Adobe Illustrator 19.0.0, SVG Export Plug-In . SVG Version: 6.00 Build 0)  -->
<svg xmlns="http://www.w3.org/2000/svg" xmlns:xlink="http://www.w3.org/1999/xlink" version="1.1" id="Layer_1" x="0px" y="0px" viewBox="0 0 512.001 512.001" style="enable-background:new 0 0 512.001 512.001;" xml:space="preserve">
<path style="fill:#515262;" d="M167.433,124.731h-53.894c-14.022,0-25.39,11.368-25.39,25.39v44.275h104.673v-44.275  C192.823,136.099,181.456,124.731,167.433,124.731z"/>
<path style="opacity:0.1;enable-background:new    ;" d="M147.876,124.731h-34.337c-14.022,0-25.39,11.368-25.39,25.39v44.275  h34.337v-44.275C122.487,136.099,133.854,124.731,147.876,124.731z"/>
<path style="fill:#515262;" d="M344.569,124.731h53.894c14.022,0,25.39,11.368,25.39,25.39v44.275H319.179v-44.275  C319.179,136.099,330.547,124.731,344.569,124.731z"/>
<path style="opacity:0.1;enable-background:new    ;" d="M378.907,124.731h-34.337c-14.022,0-25.39,11.368-25.39,25.39v44.275  h34.337v-44.275C353.516,136.099,364.884,124.731,378.907,124.731z"/>
<path style="fill:#C7CFE2;" d="M509.035,273.547c-6.176-38.922-23.57-113.49-66.214-113.49H69.179  c-42.644,0-60.038,74.567-66.214,113.49c-2.17,8.28-3.211,17.018-2.916,26.045c1.562,48.069,41.057,86.9,89.146,87.666  c25.481,0.405,48.602-9.701,65.311-26.266c8.751-8.676,20.47-13.702,32.793-13.702h137.402c12.324,0,24.042,5.026,32.793,13.702  c16.71,16.566,39.831,26.672,65.311,26.266c48.088-0.766,87.583-39.597,89.146-87.666  C512.246,290.565,511.205,281.827,509.035,273.547z"/>
<g style="opacity:0.1;">
	<path d="M34.387,299.592c-0.293-9.027,0.746-17.765,2.916-26.045c6.176-38.922,23.57-113.49,66.214-113.49H69.18   c-42.644,0-60.038,74.567-66.214,113.49c-2.17,8.28-3.209,17.018-2.916,26.045c1.562,48.069,41.057,86.9,89.146,87.666   c6.423,0.102,12.695-0.467,18.753-1.636C67.184,377.768,35.777,342.347,34.387,299.592z"/>
</g>
<g>
	<polygon style="fill:#515262;" points="138.801,255.293 113.056,255.293 113.056,229.548 82.806,229.548 82.806,255.293    57.062,255.293 57.062,285.543 82.806,285.543 82.806,311.289 113.056,311.289 113.056,285.543 138.801,285.543  "/>
	<circle style="fill:#515262;" cx="255.998" cy="217.127" r="26.497"/>
	<path style="fill:#515262;" d="M229.121,295.286h-30.632c-4.741,0-8.584-3.844-8.584-8.584c0-4.741,3.844-8.584,8.584-8.584h30.632   c4.741,0,8.584,3.844,8.584,8.584C237.705,291.443,233.862,295.286,229.121,295.286z"/>
	<path style="fill:#515262;" d="M313.513,295.286h-30.631c-4.741,0-8.584-3.844-8.584-8.584c0-4.741,3.844-8.584,8.584-8.584h30.631   c4.741,0,8.584,3.844,8.584,8.584C322.098,291.443,318.254,295.286,313.513,295.286z"/>
	<circle style="fill:#515262;" cx="408.513" cy="232.488" r="16.679"/>
	<circle style="fill:#515262;" cx="407.277" cy="311.624" r="16.679"/>
	<circle style="fill:#515262;" cx="447.464" cy="272.674" r="16.679"/>
	<circle style="fill:#515262;" cx="368.327" cy="271.438" r="16.679"/>
</g>
<g>
</g>
<g>
</g>
<g>
</g>
<g>
</g>
<g>
</g>
<g>
</g>
<g>
</g>
<g>
</g>
<g>
</g>
<g>
</g>
<g>
</g>
<g>
</g>
<g>
</g>
<g>
</g>
<g>
</g>
</svg>
