<?xml version="1.0" encoding="iso-8859-1"?>
<!-- Generator: Adobe Illustrator 19.0.0, SVG Export Plug-In . SVG Version: 6.00 Build 0)  -->
<svg xmlns="http://www.w3.org/2000/svg" xmlns:xlink="http://www.w3.org/1999/xlink" version="1.1" id="Layer_1" x="0px" y="0px" viewBox="0 0 512 512" style="enable-background:new 0 0 512 512;" xml:space="preserve">
<path style="fill:#7DD2F0;" d="M309.458,2.804v196.958c0,5.617,4.552,10.169,10.169,10.169h46.064  c7.846,0,12.737,8.509,8.787,15.288L264.786,413.495c-3.922,6.733-13.65,6.733-17.573,0L137.522,225.219  c-3.95-6.779,0.941-15.288,8.787-15.288h46.064c5.617,0,10.169-4.552,10.169-10.169V2.804C86.886,27.377,0.098,130.033,0,252.99  c-0.11,139.602,112.758,254.234,252.346,256.181C395.405,511.166,512,395.797,512,253.197C512,130.147,425.18,27.391,309.458,2.804z  "/>
<g style="opacity:0.1;">
	<path d="M57.394,252.99c0.08-101.583,59.333-189.302,145.148-230.59V2.804C86.886,27.377,0.098,130.033,0,252.99   c-0.11,139.602,112.758,254.234,252.346,256.181c10.97,0.153,21.782-0.391,32.4-1.577C156.924,493.268,57.29,384.155,57.394,252.99   z"/>
</g>
<g>
</g>
<g>
</g>
<g>
</g>
<g>
</g>
<g>
</g>
<g>
</g>
<g>
</g>
<g>
</g>
<g>
</g>
<g>
</g>
<g>
</g>
<g>
</g>
<g>
</g>
<g>
</g>
<g>
</g>
</svg>
