<?xml version="1.0" encoding="iso-8859-1"?>
<!-- Generator: Adobe Illustrator 19.0.0, SVG Export Plug-In . SVG Version: 6.00 Build 0)  -->
<svg xmlns="http://www.w3.org/2000/svg" xmlns:xlink="http://www.w3.org/1999/xlink" version="1.1" id="Layer_1" x="0px" y="0px" viewBox="0 0 512.001 512.001" style="enable-background:new 0 0 512.001 512.001;" xml:space="preserve">
<path style="fill:#7DD2F0;" d="M329,174.015c0-12.406-10.056-22.462-22.462-22.462h-102.2c-12.406,0-22.462,10.056-22.462,22.462  v161.724c0,12.406,10.056,22.462,22.462,22.462h102.2c12.406,0,22.462-10.056,22.462-22.462V174.015z"/>
<g>
	<rect x="223.426" y="273.965" style="fill:#FFFFFF;" width="64.016" height="44.923"/>
	<rect x="223.426" y="191.98" style="fill:#FFFFFF;" width="64.016" height="44.923"/>
</g>
<g>
	<rect x="182.433" y="29.132" style="fill:#7DD2F0;" width="147.124" height="80.199"/>
	<rect x="182.433" y="402.67" style="fill:#7DD2F0;" width="147.124" height="80.199"/>
	<rect y="29.132" style="fill:#7DD2F0;" width="147.124" height="80.199"/>
	<rect y="153.627" style="fill:#7DD2F0;" width="147.124" height="80.199"/>
	<rect y="278.12" style="fill:#7DD2F0;" width="147.124" height="80.199"/>
	<rect x="364.878" y="153.683" style="fill:#7DD2F0;" width="147.124" height="80.199"/>
	<rect x="364.878" y="278.176" style="fill:#7DD2F0;" width="147.124" height="80.199"/>
	<rect x="364.878" y="402.67" style="fill:#7DD2F0;" width="147.124" height="80.199"/>
</g>
<g>
</g>
<g>
</g>
<g>
</g>
<g>
</g>
<g>
</g>
<g>
</g>
<g>
</g>
<g>
</g>
<g>
</g>
<g>
</g>
<g>
</g>
<g>
</g>
<g>
</g>
<g>
</g>
<g>
</g>
</svg>
