<?xml version="1.0" encoding="iso-8859-1"?>
<!-- Generator: Adobe Illustrator 19.0.0, SVG Export Plug-In . SVG Version: 6.00 Build 0)  -->
<svg xmlns="http://www.w3.org/2000/svg" xmlns:xlink="http://www.w3.org/1999/xlink" version="1.1" id="Layer_1" x="0px" y="0px" viewBox="0 0 512 512" style="enable-background:new 0 0 512 512;" xml:space="preserve">
<polygon style="fill:#C7CFE2;" points="218.047,0 23.58,0 23.58,476.242 364.046,476.242 364.046,126.207 291.047,63.104 "/>
<polygon style="opacity:0.1;enable-background:new    ;" points="218.047,0 184.776,0 184.776,159.478 364.046,159.478   364.046,126.207 291.047,63.104 "/>
<polygon style="fill:#DCE5FA;" points="294.395,0 218.047,0 218.047,126.207 364.046,126.207 364.046,69.652 "/>
<path style="fill:#515262;" d="M388.215,385.742c29.353,37.551,68.035,46.473,89.465,76.235c21.43,29.762,4.169,43.452,4.169,43.452  s-13.69,17.261-43.452-4.169c-29.762-21.43-38.684-60.112-76.235-89.465L388.215,385.742z"/>
<ellipse transform="matrix(-0.7071 -0.7071 0.7071 -0.7071 347.476 919.412)" style="fill:#B4BBCC;" cx="364.154" cy="387.741" rx="24.155" ry="31.374"/>
<circle style="fill:#7DD2F0;" cx="292.929" cy="316.508" r="103.273"/>
<circle style="fill:#FFFFFF;" cx="292.929" cy="316.508" r="73.025"/>
<path style="opacity:0.1;enable-background:new    ;" d="M263.474,287.054c24.709-24.709,62.713-27.993,90.975-9.884  c-2.791-4.356-6.075-8.489-9.884-12.297c-28.518-28.518-74.755-28.518-103.272,0c-28.518,28.518-28.518,74.755,0,103.273  c3.808,3.808,7.941,7.092,12.297,9.884C235.481,349.768,238.765,311.763,263.474,287.054z"/>
<g>
</g>
<g>
</g>
<g>
</g>
<g>
</g>
<g>
</g>
<g>
</g>
<g>
</g>
<g>
</g>
<g>
</g>
<g>
</g>
<g>
</g>
<g>
</g>
<g>
</g>
<g>
</g>
<g>
</g>
</svg>
