<?xml version="1.0" encoding="iso-8859-1"?>
<!-- Generator: Adobe Illustrator 19.0.0, SVG Export Plug-In . SVG Version: 6.00 Build 0)  -->
<svg xmlns="http://www.w3.org/2000/svg" xmlns:xlink="http://www.w3.org/1999/xlink" version="1.1" id="Layer_1" x="0px" y="0px" viewBox="0 0 512 512" style="enable-background:new 0 0 512 512;" xml:space="preserve">
<path style="fill:#A5EB78;" d="M512,255.999C512,114.615,397.385,0,256.001,0C114.615,0,0,114.615,0,255.999  S114.615,512,255.999,512S512,397.385,512,255.999z"/>
<path style="fill:#FFFFFF;" d="M392.039,158.815l-48.308,93.111c-1.325,2.554-1.325,5.594,0,8.148l48.308,93.111  c3.767,7.261-3.494,15.306-11.102,12.302L124.533,264.227c-7.462-2.947-7.462-13.508,0-16.456l256.405-101.258  C388.545,143.509,395.806,151.555,392.039,158.815z"/>
<path style="opacity:0.1;enable-background:new    ;" d="M68.872,256.001c0-129.706,96.466-236.866,221.564-253.688  C279.172,0.798,267.68,0,256.001,0C114.615,0,0,114.615,0,256.001S114.615,512,256.001,512c11.68,0,23.171-0.798,34.436-2.313  C165.338,492.865,68.872,385.705,68.872,256.001z"/>
<g>
</g>
<g>
</g>
<g>
</g>
<g>
</g>
<g>
</g>
<g>
</g>
<g>
</g>
<g>
</g>
<g>
</g>
<g>
</g>
<g>
</g>
<g>
</g>
<g>
</g>
<g>
</g>
<g>
</g>
</svg>
