<?xml version="1.0" encoding="iso-8859-1"?>
<!-- Generator: Adobe Illustrator 19.0.0, SVG Export Plug-In . SVG Version: 6.00 Build 0)  -->
<svg xmlns="http://www.w3.org/2000/svg" xmlns:xlink="http://www.w3.org/1999/xlink" version="1.1" id="Layer_1" x="0px" y="0px" viewBox="0 0 512.001 512.001" style="enable-background:new 0 0 512.001 512.001;" xml:space="preserve">
<path style="fill:#C7CFE2;" d="M452.949,42.324H59.05C26.438,42.324,0,68.762,0,101.374v107.221l255.999,52.577l255.999-52.577  V101.374C512,68.762,485.562,42.324,452.949,42.324z"/>
<rect y="208.593" style="fill:#515262;" width="512.001" height="105.153"/>
<path style="opacity:0.1;enable-background:new    ;" d="M129.158,42.324H59.05C26.438,42.324,0,68.762,0,101.374v212.373h70.108  V101.374C70.108,68.762,96.546,42.324,129.158,42.324z"/>
<circle style="fill:#515262;" cx="403.953" cy="134.606" r="17.141"/>
<circle style="fill:#FF6465;" cx="461.032" cy="134.606" r="17.141"/>
<rect x="136.91" y="178.038" style="fill:#DCE5FA;" width="238.181" height="291.639"/>
<g>
	<path style="fill:#515262;" d="M340.605,269.935h-169.21c-4.841,0-8.764-3.923-8.764-8.764c0-4.841,3.923-8.764,8.764-8.764h169.21   c4.841,0,8.764,3.923,8.764,8.764C349.369,266.012,345.446,269.935,340.605,269.935z"/>
	<path style="fill:#515262;" d="M340.605,322.511h-169.21c-4.841,0-8.764-3.923-8.764-8.764c0-4.841,3.923-8.764,8.764-8.764h169.21   c4.841,0,8.764,3.923,8.764,8.764C349.369,318.589,345.446,322.511,340.605,322.511z"/>
	<path style="fill:#515262;" d="M340.605,375.089h-169.21c-4.841,0-8.764-3.923-8.764-8.764c0-4.841,3.923-8.764,8.764-8.764h169.21   c4.841,0,8.764,3.923,8.764,8.764C349.369,371.166,345.446,375.089,340.605,375.089z"/>
</g>
<g>
</g>
<g>
</g>
<g>
</g>
<g>
</g>
<g>
</g>
<g>
</g>
<g>
</g>
<g>
</g>
<g>
</g>
<g>
</g>
<g>
</g>
<g>
</g>
<g>
</g>
<g>
</g>
<g>
</g>
</svg>
