<?xml version="1.0" encoding="iso-8859-1"?>
<!-- Generator: Adobe Illustrator 19.0.0, SVG Export Plug-In . SVG Version: 6.00 Build 0)  -->
<svg xmlns="http://www.w3.org/2000/svg" xmlns:xlink="http://www.w3.org/1999/xlink" version="1.1" id="Layer_1" x="0px" y="0px" viewBox="0 0 512.001 512.001" style="enable-background:new 0 0 512.001 512.001;" xml:space="preserve">
<path style="fill:#B4BBCC;" d="M498.223,238.351c-39.74-9.946-53.07-59.694-23.628-88.178c13.608-13.166,0.556-35.772-17.648-30.569  l0,0c-39.389,11.256-75.807-25.161-64.551-64.551c5.202-18.206-17.403-31.258-30.568-17.649  c-28.485,29.443-78.233,16.113-88.179-23.627l0,0c-4.598-18.368-30.7-18.368-35.298,0l0,0c-9.947,39.74-59.695,53.069-88.178,23.627  l0,0c-13.165-13.608-35.772-0.557-30.568,17.649c11.256,39.39-25.162,75.807-64.551,64.551l0,0  c-18.205-5.202-31.256,17.403-17.648,30.569c29.443,28.484,16.113,78.232-23.628,88.178c-18.368,4.598-18.368,30.701,0,35.298l0,0  c39.74,9.946,53.071,59.694,23.628,88.178c-13.608,13.166-0.557,35.772,17.648,30.568l0,0  c39.389-11.256,75.807,25.162,64.551,64.552c-5.202,18.206,17.403,31.256,30.568,17.649l0,0  c28.484-29.443,78.232-16.113,88.178,23.628c4.598,18.368,30.7,18.368,35.298,0c9.947-39.741,59.694-53.071,88.179-23.628l0,0  c13.165,13.608,35.77,0.556,30.568-17.649c-11.256-39.39,25.162-75.807,64.551-64.552l0,0c18.205,5.203,31.256-17.403,17.648-30.568  c-29.443-28.484-16.113-78.232,23.628-88.178l0,0C516.592,269.052,516.592,242.949,498.223,238.351z M255.999,353.973  c-54.109,0-97.974-43.865-97.974-97.974s43.865-97.974,97.974-97.974s97.974,43.864,97.974,97.974S310.109,353.973,255.999,353.973z  "/>
<path style="opacity:0.1;enable-background:new    ;" d="M97.369,255.999c0-77.774,26.187-149.421,70.2-206.646  c-6.26-2.623-12.186-6.564-17.396-11.95l0,0c-13.165-13.608-35.772-0.557-30.568,17.649c11.256,39.39-25.162,75.807-64.551,64.551  l0,0c-18.205-5.202-31.256,17.403-17.648,30.569c29.443,28.484,16.113,78.232-23.628,88.178c-18.368,4.598-18.368,30.701,0,35.298  l0,0c39.74,9.946,53.071,59.694,23.628,88.178c-13.608,13.166-0.557,35.772,17.648,30.568l0,0  c39.389-11.256,75.807,25.162,64.551,64.552c-5.202,18.206,17.403,31.256,30.568,17.649l0,0c5.21-5.387,11.137-9.327,17.396-11.95  C123.558,405.42,97.369,333.774,97.369,255.999z"/>
<g>
</g>
<g>
</g>
<g>
</g>
<g>
</g>
<g>
</g>
<g>
</g>
<g>
</g>
<g>
</g>
<g>
</g>
<g>
</g>
<g>
</g>
<g>
</g>
<g>
</g>
<g>
</g>
<g>
</g>
</svg>
