<?xml version="1.0" encoding="iso-8859-1"?>
<!-- Generator: Adobe Illustrator 19.0.0, SVG Export Plug-In . SVG Version: 6.00 Build 0)  -->
<svg xmlns="http://www.w3.org/2000/svg" xmlns:xlink="http://www.w3.org/1999/xlink" version="1.1" id="Layer_1" x="0px" y="0px" viewBox="0 0 512.001 512.001" style="enable-background:new 0 0 512.001 512.001;" xml:space="preserve">
<path style="fill:#E65A5B;" d="M474.052,293.947c0,120.428-97.626,218.054-218.054,218.054S37.946,414.375,37.946,293.947v-75.893  h436.107V293.947z"/>
<circle style="fill:#FF6465;" cx="256.003" cy="218.053" r="218.053"/>
<g>
	<path style="fill:#FFFFFF;" d="M255.999,374.997c-86.539,0-156.944-70.404-156.944-156.944c0-32.257,9.753-63.267,28.207-89.681   c18.025-25.801,42.996-45.421,72.21-56.736c4.356-1.687,9.256,0.476,10.943,4.833c1.687,4.357-0.476,9.256-4.833,10.943   c-26.071,10.097-48.359,27.611-64.453,50.649c-16.458,23.559-25.158,51.22-25.158,79.993c0,77.211,62.815,140.027,140.027,140.027   c77.211,0,140.026-62.815,140.026-140.027c0-28.772-8.699-56.433-25.157-79.991c-16.094-23.037-38.38-40.552-64.449-50.649   c-4.356-1.687-6.52-6.586-4.833-10.943c1.687-4.356,6.586-6.521,10.943-4.833c29.214,11.317,54.183,30.935,72.208,56.736   c18.452,26.412,28.206,57.424,28.206,89.679C412.942,304.593,342.538,374.997,255.999,374.997z"/>
	<path style="fill:#FFFFFF;" d="M255.999,144.716c-4.671,0-8.459-3.787-8.459-8.459V40.969c0-4.671,3.787-8.459,8.459-8.459   c4.671,0,8.459,3.787,8.459,8.459v95.288C264.458,140.929,260.671,144.716,255.999,144.716z"/>
</g>
<g>
</g>
<g>
</g>
<g>
</g>
<g>
</g>
<g>
</g>
<g>
</g>
<g>
</g>
<g>
</g>
<g>
</g>
<g>
</g>
<g>
</g>
<g>
</g>
<g>
</g>
<g>
</g>
<g>
</g>
</svg>
