<?xml version="1.0" encoding="iso-8859-1"?>
<!-- Generator: Adobe Illustrator 19.0.0, SVG Export Plug-In . SVG Version: 6.00 Build 0)  -->
<svg xmlns="http://www.w3.org/2000/svg" xmlns:xlink="http://www.w3.org/1999/xlink" version="1.1" id="Layer_1" x="0px" y="0px" viewBox="0 0 512 512" style="enable-background:new 0 0 512 512;" xml:space="preserve">
<rect x="23.064" y="128.49" style="fill:#FFFFFF;" width="359.662" height="359.662"/>
<path style="fill:#B4BBCC;" d="M382.725,511.219H23.064C10.326,511.219,0,500.893,0,488.155V128.494  c0-12.738,10.326-23.064,23.064-23.064h359.661c12.738,0,23.064,10.326,23.064,23.064v359.661  C405.79,500.893,395.464,511.219,382.725,511.219z M46.128,465.091h313.533V151.558H46.128V465.091z"/>
<path style="opacity:0.1;enable-background:new    ;" d="M382.725,105.43H83.602v46.128h276.059v139.244h46.128V128.494  C405.79,115.756,395.464,105.43,382.725,105.43z"/>
<rect x="141.268" y="23.845" style="fill:#FFFFFF;" width="347.681" height="209.296"/>
<path style="fill:#7DD2F0;" d="M234.09,233.142v43.989l-67.43,50.995l-9.168-11.807c-4.789-6.169-14.395-5.14-17.771,1.903  l-38.03,79.351c-3.742,7.807,3.035,16.534,11.525,14.843l86.299-17.186c7.66-1.526,11.035-10.577,6.247-16.746l-10.809-13.92  l76.114-57.561c5.765-4.359,9.153-11.169,9.153-18.396v-55.464H234.09V233.142z"/>
<path style="opacity:0.1;enable-background:new    ;" d="M234.09,277.131l-18.078,13.671h64.092  c0.069-0.727,0.114-1.459,0.114-2.197v-55.464H234.09V277.131z"/>
<path style="fill:#C7CFE2;" d="M488.936,0.781H141.262c-12.738,0-23.064,10.326-23.064,23.064v209.297  c0,12.738,10.326,23.064,23.064,23.064h347.674c12.738,0,23.064-10.326,23.064-23.064V23.845  C512,11.108,501.674,0.781,488.936,0.781z M349.98,46.909v163.169h-69.762V46.909H349.98z M164.326,46.909h69.763v163.169h-69.763  V46.909z M465.872,210.078h-69.763V46.909h69.763V210.078z"/>
<g>
</g>
<g>
</g>
<g>
</g>
<g>
</g>
<g>
</g>
<g>
</g>
<g>
</g>
<g>
</g>
<g>
</g>
<g>
</g>
<g>
</g>
<g>
</g>
<g>
</g>
<g>
</g>
<g>
</g>
</svg>
