<?xml version="1.0" encoding="iso-8859-1"?>
<!-- Generator: Adobe Illustrator 19.0.0, SVG Export Plug-In . SVG Version: 6.00 Build 0)  -->
<svg xmlns="http://www.w3.org/2000/svg" xmlns:xlink="http://www.w3.org/1999/xlink" version="1.1" id="Layer_1" x="0px" y="0px" viewBox="0 0 512 512" style="enable-background:new 0 0 512 512;" xml:space="preserve">
<path style="fill:#FF6465;" d="M142.366,74.405L98.655,512h314.691c16.952,0,30.693-13.741,30.693-30.692V107.86L142.366,74.405z"/>
<path style="fill:#E65A5B;" d="M67.962,74.405v406.903c0,16.951,13.741,30.692,30.693,30.692h43.711V74.405H67.962z"/>
<path style="fill:#FFFFFF;" d="M126.66,20.763l-11.161,33.731c-4.137,5.568-6.588,12.458-6.588,19.911s2.452,14.343,6.588,19.909  l11.161,33.732l317.377-20.185v-0.002v-66.91L126.66,20.763z"/>
<path style="fill:#FF7374;" d="M142.366,40.949h301.671V0H142.366c-41.092,0-74.404,33.312-74.404,74.404v0.001  c0,41.092,33.312,74.404,74.404,74.404h301.671V107.86H142.366c-18.448,0-33.455-15.007-33.455-33.455  S123.919,40.949,142.366,40.949z"/>
<path style="fill:#FFFFFF;" d="M393.949,450.339l-31.469-54.788c-4.62-8.044-14.813-10.92-22.97-6.504  c-0.303,0.165-0.505,0.271-0.588,0.312c-27.693,15.186-90.774-95.394-63.764-111.665c8.184-4.548,11.064-14.912,6.402-23.032  l-31.809-55.379c-4.576-7.967-14.711-10.774-22.737-6.303c-0.276,0.154-0.44,0.245-0.471,0.263  c-88.905,52.144,69.264,328.075,160.467,280.766c0.035-0.018,0.083-0.042,0.142-0.073  C395.698,469.445,398.758,458.713,393.949,450.339z"/>
<g>
</g>
<g>
</g>
<g>
</g>
<g>
</g>
<g>
</g>
<g>
</g>
<g>
</g>
<g>
</g>
<g>
</g>
<g>
</g>
<g>
</g>
<g>
</g>
<g>
</g>
<g>
</g>
<g>
</g>
</svg>
