<?xml version="1.0" encoding="iso-8859-1"?>
<!-- Generator: Adobe Illustrator 19.0.0, SVG Export Plug-In . SVG Version: 6.00 Build 0)  -->
<svg xmlns="http://www.w3.org/2000/svg" xmlns:xlink="http://www.w3.org/1999/xlink" version="1.1" id="Layer_1" x="0px" y="0px" viewBox="0 0 512 512" style="enable-background:new 0 0 512 512;" xml:space="preserve">
<circle style="fill:#FF6465;" cx="243.368" cy="256" r="77.089"/>
<path style="opacity:0.1;enable-background:new    ;" d="M189.777,279.499c0-42.577,34.515-77.092,77.092-77.092  c15.273,0,29.496,4.459,41.473,12.121c-13.697-21.41-37.667-35.617-64.969-35.617c-42.577,0-77.092,34.515-77.092,77.092  c0,27.303,14.207,51.272,35.617,64.969C194.238,308.994,189.777,294.773,189.777,279.499z"/>
<path style="fill:#8CE0FF;" d="M124.138,459.571c-25.668,0-47.032-7.797-61.785-22.549C36.93,411.6,32.815,368.648,50.768,316.078  c17.233-50.468,52.95-104.488,100.57-152.109C220.137,95.172,301.09,52.435,362.607,52.435c25.669,0,47.032,7.797,61.785,22.549  c25.422,25.422,29.538,68.375,11.585,120.944c-17.234,50.468-52.95,104.488-100.571,152.109  C266.609,416.834,185.656,459.571,124.138,459.571z M362.607,70.056c-56.151,0-134.188,41.754-198.807,106.373  c-45.755,45.755-79.975,97.372-96.356,145.343c-15.663,45.868-13.046,82.373,7.369,102.789  c11.538,11.538,28.133,17.388,49.323,17.388c56.152,0,134.188-41.754,198.807-106.373c45.755-45.754,79.976-97.372,96.357-145.343  c15.663-45.869,13.046-82.373-7.369-102.79C400.394,75.907,383.799,70.056,362.607,70.056z"/>
<g>
	<path style="fill:#FFD782;" d="M362.607,459.571c-61.518,0-142.471-42.737-211.27-111.535   c-47.62-47.621-83.337-101.641-100.57-152.109c-17.952-52.57-13.837-95.522,11.585-120.944   c14.753-14.752,36.116-22.549,61.785-22.549c61.518,0,142.471,42.737,211.268,111.535   c47.621,47.621,83.337,101.641,100.571,152.109c17.952,52.57,13.837,95.523-11.585,120.944   C409.64,451.774,388.275,459.571,362.607,459.571z M124.138,70.056c-21.192,0-37.787,5.85-49.323,17.388   c-20.417,20.415-23.033,56.921-7.369,102.79c16.38,47.971,50.599,99.588,96.356,145.343   c64.62,64.619,142.656,106.373,198.807,106.373c21.191,0,37.786-5.849,49.323-17.388c20.417-20.415,23.033-56.921,7.369-102.789   c-16.38-47.971-50.6-99.588-96.357-145.343C258.327,111.811,180.289,70.056,124.138,70.056z"/>
	<circle style="fill:#FFD782;" cx="370.28" cy="61.503" r="35.977"/>
</g>
<path style="opacity:0.1;enable-background:new    ;" d="M346.051,73.255c0-19.869,16.107-35.977,35.977-35.977  c6.925,0,13.389,1.961,18.878,5.351c-6.338-10.259-17.68-17.099-30.625-17.099c-19.869,0-35.977,16.107-35.977,35.977  c0,12.945,6.84,24.289,17.099,30.625C348.012,86.646,346.051,80.181,346.051,73.255z"/>
<circle style="fill:#FFD782;" cx="116.468" cy="450.497" r="35.977"/>
<path style="opacity:0.1;enable-background:new    ;" d="M92.237,462.246c0-19.869,16.107-35.977,35.977-35.977  c6.924,0,13.389,1.961,18.878,5.351c-6.338-10.259-17.68-17.099-30.625-17.099c-19.869,0-35.977,16.107-35.977,35.977  c0,12.945,6.84,24.287,17.099,30.625C94.199,475.635,92.237,469.17,92.237,462.246z"/>
<path style="fill:#FF6465;" d="M255.999,380.928c-67.346,0-130.8-12.943-178.672-36.443C27.462,320.006,0,286.725,0,250.772  s27.462-69.234,77.328-93.712c47.871-23.5,111.326-36.443,178.672-36.443s130.8,12.943,178.673,36.443  C484.537,181.539,512,214.82,512,250.772s-27.463,69.234-77.328,93.714C386.8,367.986,323.345,380.928,255.999,380.928z   M255.999,138.24c-64.707,0-125.403,12.302-170.906,34.64c-43.51,21.358-67.471,49.021-67.471,77.893s23.961,56.535,67.471,77.894  c45.503,22.337,106.199,34.64,170.906,34.64s125.403-12.302,170.906-34.64c43.51-21.359,67.473-49.023,67.473-77.894  s-23.961-56.535-67.473-77.894C381.403,150.541,320.706,138.24,255.999,138.24z"/>
<g>
</g>
<g>
</g>
<g>
</g>
<g>
</g>
<g>
</g>
<g>
</g>
<g>
</g>
<g>
</g>
<g>
</g>
<g>
</g>
<g>
</g>
<g>
</g>
<g>
</g>
<g>
</g>
<g>
</g>
</svg>
