<?xml version="1.0" encoding="iso-8859-1"?>
<!-- Generator: Adobe Illustrator 19.0.0, SVG Export Plug-In . SVG Version: 6.00 Build 0)  -->
<svg xmlns="http://www.w3.org/2000/svg" xmlns:xlink="http://www.w3.org/1999/xlink" version="1.1" id="Layer_1" x="0px" y="0px" viewBox="0 0 512.002 512.002" style="enable-background:new 0 0 512.002 512.002;" xml:space="preserve">
<path style="fill:#C7CFE2;" d="M40.458,443.238c-53.943-53.943-53.944-141.714-0.001-195.656l174.36-174.36  c7.304-7.304,19.146-7.304,26.451,0c7.304,7.304,7.304,19.146,0,26.451L66.908,274.031c-39.357,39.357-39.357,103.396,0,142.755  c39.357,39.357,103.396,39.359,142.755,0l247.135-247.135c23.75-23.75,23.75-62.393,0-86.143c-23.75-23.75-62.394-23.75-86.144,0  L157.763,296.402c-8.332,8.332-8.332,21.89,0,30.223c8.332,8.332,21.89,8.332,30.223,0l140.118-140.118  c7.304-7.304,19.146-7.304,26.451,0c7.304,7.304,7.304,19.146,0,26.451L214.436,353.074c-22.917,22.917-60.207,22.917-83.124,0  s-22.917-60.207,0-83.124L344.205,57.058c38.335-38.335,100.71-38.335,139.045,0s38.335,100.71,0,139.045L236.114,443.238  C182.171,497.181,94.401,497.181,40.458,443.238z"/>
<g>
</g>
<g>
</g>
<g>
</g>
<g>
</g>
<g>
</g>
<g>
</g>
<g>
</g>
<g>
</g>
<g>
</g>
<g>
</g>
<g>
</g>
<g>
</g>
<g>
</g>
<g>
</g>
<g>
</g>
</svg>
