<?xml version="1.0" encoding="iso-8859-1"?>
<!-- Generator: Adobe Illustrator 19.0.0, SVG Export Plug-In . SVG Version: 6.00 Build 0)  -->
<svg xmlns="http://www.w3.org/2000/svg" xmlns:xlink="http://www.w3.org/1999/xlink" version="1.1" id="Layer_1" x="0px" y="0px" viewBox="0 0 512 512" style="enable-background:new 0 0 512 512;" xml:space="preserve">
<path style="fill:#FFD782;" d="M234.213,329.523l169.404,169.404c17.431,17.431,45.691,17.431,63.122,0l32.188-32.188  c17.431-17.431,17.431-45.691,0-63.122L329.523,234.213L234.213,329.523z"/>
<path style="opacity:0.1;enable-background:new    ;" d="M474.211,491.455l24.716-24.716c17.431-17.431,17.431-45.691,0-63.122  L329.523,234.213l-24.716,24.716l169.404,169.404C491.641,445.764,491.641,474.024,474.211,491.455z"/>
<path style="fill:#A9AFBF;" d="M300.709,263.028L120.431,82.75v-5.562c0-15.399-7.881-29.726-20.888-37.971L37.681,0L0,37.681  l39.216,61.863c8.245,13.005,22.572,20.888,37.971,20.888h5.562l180.277,180.277L300.709,263.028z"/>
<rect x="230.292" y="221.708" transform="matrix(-0.7071 0.7071 -0.7071 -0.7071 620.3063 256.9558)" style="opacity:0.1;enable-background:new    ;" width="53.287" height="70.479"/>
<path style="fill:#E6B95C;" d="M304.402,209.092l-95.311,95.311c-13.873,13.873-13.873,36.368,0,50.241l0,0  c13.873,13.873,36.368,13.873,50.241,0l95.31-95.311c13.873-13.873,13.873-36.368,0-50.241l0,0  C340.77,195.219,318.277,195.219,304.402,209.092z"/>
<path style="opacity:0.1;enable-background:new    ;" d="M329.927,233.809c13.873,13.873,13.875,36.367,0,50.241l24.716-24.716  c13.875-13.875,13.873-36.368,0-50.241s-36.367-13.875-50.241,0l-24.716,24.716C293.561,219.935,316.054,219.935,329.927,233.809z"/>
<g>
</g>
<g>
</g>
<g>
</g>
<g>
</g>
<g>
</g>
<g>
</g>
<g>
</g>
<g>
</g>
<g>
</g>
<g>
</g>
<g>
</g>
<g>
</g>
<g>
</g>
<g>
</g>
<g>
</g>
</svg>
