<?xml version="1.0" encoding="iso-8859-1"?>
<!-- Generator: Adobe Illustrator 19.0.0, SVG Export Plug-In . SVG Version: 6.00 Build 0)  -->
<svg xmlns="http://www.w3.org/2000/svg" xmlns:xlink="http://www.w3.org/1999/xlink" version="1.1" id="Layer_1" x="0px" y="0px" viewBox="0 0 512 512" style="enable-background:new 0 0 512 512;" xml:space="preserve">
<path style="fill:#B4BBCC;" d="M199.767,296.441H34.633v119.676c0,31.529,73.028,57.09,163.113,57.09  c0.676,0,1.347-0.007,2.02-0.009V296.441H199.767z"/>
<path style="fill:#C7CFE2;" d="M199.767,268.493c0-7.721,6.078-14.074,13.792-14.415l147.3-6.517v-70.795H34.633v119.676  c0,31.529,73.028,57.09,163.113,57.09c0.676,0,1.347-0.007,2.02-0.009v-85.03H199.767z"/>
<path style="fill:#B4BBCC;" d="M360.858,176.765c0,31.529-73.028,57.09-163.113,57.09s-163.113-25.561-163.113-57.09V57.09h326.225  V176.765z"/>
<ellipse style="fill:#C7CFE2;" cx="197.749" cy="57.085" rx="163.118" ry="57.085"/>
<path style="opacity:0.1;enable-background:new    ;" d="M99.911,461.799V57.09c0-27.618,56.03-50.653,130.474-55.945  c-5.271-0.374-10.634-0.66-16.075-0.853c-0.009,0-0.018,0-0.018,0c-2.721-0.096-5.454-0.169-8.204-0.217c-0.012,0-0.023,0-0.035,0  c-2.75-0.05-5.52-0.075-8.306-0.075C107.662,0,34.633,25.559,34.633,57.09v359.027C34.633,434.799,60.275,451.384,99.911,461.799z"/>
<path style="fill:#515262;" d="M462.302,243.071l-248.744,11.006c-7.714,0.342-13.792,6.694-13.792,14.415v218.072  c0,7.721,6.078,14.074,13.792,14.415l248.744,11.006c8.212,0.363,15.067-6.196,15.067-14.415V257.487  C477.369,249.267,470.514,242.708,462.302,243.071z"/>
<polygon style="fill:#A5EB78;" points="455.61,361.21 455.61,265.148 354.888,269.604 354.888,361.21 "/>
<polygon style="fill:#FFD782;" points="354.888,393.848 354.888,485.453 455.61,489.91 455.61,393.848 "/>
<polygon style="fill:#FF6465;" points="322.249,361.21 322.249,271.049 221.526,275.505 221.526,361.21 "/>
<polygon style="fill:#7DD2F0;" points="221.526,393.848 221.526,479.553 322.249,484.009 322.249,393.848 "/>
<g>
</g>
<g>
</g>
<g>
</g>
<g>
</g>
<g>
</g>
<g>
</g>
<g>
</g>
<g>
</g>
<g>
</g>
<g>
</g>
<g>
</g>
<g>
</g>
<g>
</g>
<g>
</g>
<g>
</g>
</svg>
