<?xml version="1.0" encoding="iso-8859-1"?>
<!-- Generator: Adobe Illustrator 19.0.0, SVG Export Plug-In . SVG Version: 6.00 Build 0)  -->
<svg xmlns="http://www.w3.org/2000/svg" xmlns:xlink="http://www.w3.org/1999/xlink" version="1.1" id="Layer_1" x="0px" y="0px" viewBox="0 0 512 512" style="enable-background:new 0 0 512 512;" xml:space="preserve">
<path style="fill:#E6E6E6;" d="M396.025,0h-280.05C98.06,0,83.537,14.523,83.537,32.439v447.123  c0,17.915,14.523,32.439,32.439,32.439h280.05c17.916,0,32.439-14.523,32.439-32.439V32.439C428.463,14.523,413.94,0,396.025,0z"/>
<path style="fill:#515262;" d="M371.089,34.758H140.912c-12.491,0-22.617,10.125-22.617,22.617v397.252  c0,12.491,10.126,22.617,22.617,22.617h230.178c12.491,0,22.617-10.125,22.617-22.617V57.374  C393.705,44.883,383.579,34.758,371.089,34.758z"/>
<path style="fill:#E6E6E6;" d="M278.516,357.841V311.72c5.364,1.825,11.113,2.82,17.095,2.82c29.335,0,53.115-23.78,53.115-53.115  c0-24.164-16.143-44.546-38.228-50.984v-13.575c0-30.098-24.399-54.498-54.498-54.498s-54.498,24.399-54.498,54.498v13.575  c-22.085,6.438-38.228,26.821-38.228,50.984c0,29.335,23.78,53.115,53.115,53.115c5.982,0,11.731-0.994,17.095-2.82v46.121H278.516z  "/>
<path style="opacity:0.1;enable-background:new    ;" d="M153.053,479.561V32.439C153.053,14.523,167.576,0,185.491,0h-69.516  C98.06,0,83.537,14.523,83.537,32.439v447.123c0,17.915,14.523,32.439,32.439,32.439h69.516  C167.576,512,153.053,497.477,153.053,479.561z"/>
<g>
</g>
<g>
</g>
<g>
</g>
<g>
</g>
<g>
</g>
<g>
</g>
<g>
</g>
<g>
</g>
<g>
</g>
<g>
</g>
<g>
</g>
<g>
</g>
<g>
</g>
<g>
</g>
<g>
</g>
</svg>
