<?xml version="1.0" encoding="iso-8859-1"?>
<!-- Generator: Adobe Illustrator 19.0.0, SVG Export Plug-In . SVG Version: 6.00 Build 0)  -->
<svg xmlns="http://www.w3.org/2000/svg" xmlns:xlink="http://www.w3.org/1999/xlink" version="1.1" id="Layer_1" x="0px" y="0px" viewBox="0 0 512 512" style="enable-background:new 0 0 512 512;" xml:space="preserve">
<path style="fill:#353640;" d="M90.587,421.414l0.55,54.452l-32.128,32.128c-5.342,5.342-14.003,5.341-19.344,0L4.007,472.335  c-5.341-5.341-5.341-14.001,0-19.344l32.128-32.128L90.587,421.414z"/>
<path style="opacity:0.1;enable-background:new    ;" d="M40.979,489.964l32.128-32.128l17.85,0.18l-0.37-36.602l-54.452-0.55  L4.007,452.991c-5.342,5.342-5.341,14.003,0,19.344l35.659,35.659c0.222,0.222,0.458,0.421,0.69,0.624  C35.661,503.245,35.859,495.084,40.979,489.964z"/>
<path style="fill:#515262;" d="M232.966,192.028l64.933,22.073l22.073,64.933c-3.009,2.393-6.128,4.868-9.388,7.447  c-80.564,63.728-191.19,157.519-219.447,189.385l-55.002-55.002C68,392.606,161.79,281.981,225.52,201.418  C228.098,198.156,230.573,195.039,232.966,192.028z"/>
<path style="opacity:0.1;enable-background:new    ;" d="M262.493,238.389c2.579-3.26,5.052-6.378,7.447-9.388l37.34,12.693  l-9.379-27.593l-64.933-22.073c-2.393,3.009-4.868,6.128-7.447,9.388C161.791,281.979,68,392.605,36.135,420.862l36.972,36.972  C104.972,429.578,198.764,318.953,262.493,238.389z"/>
<path style="fill:#353640;" d="M393.551,216.739c0,0-2.227,5.545-73.58,62.295l-87.005-87.005  c56.75-71.353,62.295-73.58,62.295-73.58L393.551,216.739z"/>
<path style="opacity:0.1;enable-background:new    ;" d="M332.234,155.422l-36.972-36.972c0,0-5.545,2.227-62.294,73.58  l36.972,36.972C326.689,157.648,332.234,155.422,332.234,155.422z"/>
<path style="fill:#515262;" d="M313.209,68.035l-24.561,24.561c-17.599,17.599-17.599,46.13,0,63.729l0,0l67.027,67.027l0,0  c17.599,17.599,46.13,17.599,63.729,0l24.561-24.561L313.209,68.035z"/>
<path style="opacity:0.1;enable-background:new    ;" d="M325.621,129.568l24.561-24.561l-36.972-36.972l-24.561,24.561  c-17.599,17.599-17.599,46.13,0,63.729l0,0l36.972,36.972C308.022,175.699,308.022,147.167,325.621,129.568z"/>
<path style="fill:#B4BBCC;" d="M484.919,27.081L484.919,27.081c36.107,36.107,36.108,94.648,0,130.756l-40.954,40.954  L313.208,68.035l40.954-40.954C390.27-9.027,448.811-9.027,484.919,27.081z"/>
<path style="opacity:0.1;enable-background:new    ;" d="M500.737,48.235c-4.137-7.59-9.396-14.732-15.818-21.154  c-36.107-36.107-94.648-36.108-130.756,0l-40.954,40.954l36.972,36.972l40.954-40.954C420.82,34.369,465.659,29.111,500.737,48.235z  "/>
<path style="fill:#C7CFE2;" d="M329.911,52.093l129.995,129.995c9.014,9.014,9.016,23.629,0,32.644l0,0  c-9.014,9.014-23.63,9.016-32.646,0L297.267,84.738c-9.014-9.014-9.014-23.63,0-32.646l0,0  C306.282,43.079,320.896,43.079,329.911,52.093z"/>
<path style="opacity:0.1;enable-background:new    ;" d="M334.24,89.065c9.014-9.014,23.63-9.014,32.644,0l-36.972-36.972  c-9.014-9.014-23.629-9.016-32.644,0s-9.016,23.63,0,32.646l36.972,36.972C325.225,112.696,325.225,98.081,334.24,89.065z"/>
<g>
</g>
<g>
</g>
<g>
</g>
<g>
</g>
<g>
</g>
<g>
</g>
<g>
</g>
<g>
</g>
<g>
</g>
<g>
</g>
<g>
</g>
<g>
</g>
<g>
</g>
<g>
</g>
<g>
</g>
</svg>
