<?xml version="1.0" encoding="iso-8859-1"?>
<!-- Generator: Adobe Illustrator 19.0.0, SVG Export Plug-In . SVG Version: 6.00 Build 0)  -->
<svg xmlns="http://www.w3.org/2000/svg" xmlns:xlink="http://www.w3.org/1999/xlink" version="1.1" id="Layer_1" x="0px" y="0px" viewBox="0 0 512 512" style="enable-background:new 0 0 512 512;" xml:space="preserve">
<path style="fill:#B4BBCC;" d="M477.552,475.159c19.025,0,34.448-15.423,34.448-34.448V71.289c0-19.025-15.423-34.448-34.448-34.448  H34.448C15.423,36.842,0,52.264,0,71.289v369.423c0,19.025,15.423,34.448,34.448,34.448L477.552,475.159L477.552,475.159z"/>
<rect x="51.324" y="152.735" style="fill:#FFFFFF;" width="409.353" height="269.718"/>
<circle style="fill:#A5EB78;" cx="440.777" cy="94.788" r="19.904"/>
<circle style="fill:#FF6465;" cx="380.829" cy="94.788" r="19.904"/>
<rect x="51.324" y="152.735" style="opacity:0.1;enable-background:new    ;" width="409.353" height="35.954"/>
<path style="opacity:0.1;enable-background:new    ;" d="M97.776,440.713V71.289c0-19.025,15.423-34.448,34.448-34.448H34.448  C15.423,36.842,0,52.264,0,71.289v369.423c0,19.025,15.423,34.448,34.448,34.448h97.776  C113.198,475.159,97.776,459.737,97.776,440.713z"/>
<g>
</g>
<g>
</g>
<g>
</g>
<g>
</g>
<g>
</g>
<g>
</g>
<g>
</g>
<g>
</g>
<g>
</g>
<g>
</g>
<g>
</g>
<g>
</g>
<g>
</g>
<g>
</g>
<g>
</g>
</svg>
