<?xml version="1.0" encoding="iso-8859-1"?>
<!-- Generator: Adobe Illustrator 19.0.0, SVG Export Plug-In . SVG Version: 6.00 Build 0)  -->
<svg xmlns="http://www.w3.org/2000/svg" xmlns:xlink="http://www.w3.org/1999/xlink" version="1.1" id="Layer_1" x="0px" y="0px" viewBox="0 0 512 512" style="enable-background:new 0 0 512 512;" xml:space="preserve">
<path style="fill:#4A4B59;" d="M460.357,478.179c0,18.679-15.143,33.821-33.821,33.821H85.464c-18.68,0-33.821-15.143-33.821-33.821  V358.197h408.714V478.179z"/>
<path style="fill:#515262;" d="M426.535,0H85.464C66.786,0,51.643,15.142,51.643,33.821v324.375  c0,18.679,15.143,33.821,33.821,33.821h341.07c18.68,0,33.821-15.143,33.821-33.821V33.821C460.357,15.142,445.214,0,426.535,0z"/>
<path style="opacity:0.1;enable-background:new    ;" d="M255.999,364.8c-93.072,0-168.791-75.719-168.791-168.791  S162.929,27.22,255.999,27.22c93.072,0,168.791,75.719,168.791,168.791S349.071,364.8,255.999,364.8z"/>
<circle style="fill:#B4BBCC;" cx="256.003" cy="196.013" r="132.795"/>
<circle style="fill:#515262;" cx="256.003" cy="196.013" r="32.073"/>
<path style="fill:#C7CFE2;" d="M299.115,341.689l-36.817-69.738c-3.542-6.709-0.974-15.019,5.735-18.562  c4.19-2.212,9.08-1.999,12.968,0.074l69.311,37.616c18.255,9.907,25.022,32.737,15.114,50.992  c-9.907,18.254-32.737,25.021-50.991,15.114C307.644,353.5,302.458,348.047,299.115,341.689z"/>
<g>
	<circle style="fill:#B4BBCC;" cx="108.618" cy="55.032" r="14.59"/>
	<circle style="fill:#B4BBCC;" cx="403.388" cy="55.032" r="14.59"/>
	<circle style="fill:#B4BBCC;" cx="108.618" cy="336.991" r="14.59"/>
	<circle style="fill:#B4BBCC;" cx="403.388" cy="336.991" r="14.59"/>
</g>
<g>
	<path style="fill:#515262;" d="M255.999,493.842c-4.97,0-8.999-4.029-8.999-8.999v-64.148c0-4.97,4.029-8.999,8.999-8.999   c4.97,0,8.999,4.029,8.999,8.999v64.148C264.998,489.813,260.969,493.842,255.999,493.842z"/>
	<path style="fill:#515262;" d="M290.931,493.842c-4.97,0-8.999-4.029-8.999-8.999v-64.148c0-4.97,4.029-8.999,8.999-8.999   s8.999,4.029,8.999,8.999v64.148C299.929,489.813,295.9,493.842,290.931,493.842z"/>
	<path style="fill:#515262;" d="M325.862,493.842c-4.97,0-8.999-4.029-8.999-8.999v-64.148c0-4.97,4.029-8.999,8.999-8.999   c4.97,0,8.999,4.029,8.999,8.999v64.148C334.861,489.813,330.832,493.842,325.862,493.842z"/>
	<path style="fill:#515262;" d="M360.793,493.842c-4.97,0-8.999-4.029-8.999-8.999v-64.148c0-4.97,4.029-8.999,8.999-8.999   c4.97,0,8.999,4.029,8.999,8.999v64.148C369.792,489.813,365.763,493.842,360.793,493.842z"/>
	<path style="fill:#515262;" d="M395.723,493.842c-4.97,0-8.999-4.029-8.999-8.999v-64.148c0-4.97,4.029-8.999,8.999-8.999   c4.97,0,8.999,4.029,8.999,8.999v64.148C404.722,489.813,400.693,493.842,395.723,493.842z"/>
</g>
<g>
</g>
<g>
</g>
<g>
</g>
<g>
</g>
<g>
</g>
<g>
</g>
<g>
</g>
<g>
</g>
<g>
</g>
<g>
</g>
<g>
</g>
<g>
</g>
<g>
</g>
<g>
</g>
<g>
</g>
</svg>
