<?xml version="1.0" encoding="iso-8859-1"?>
<!-- Generator: Adobe Illustrator 19.0.0, SVG Export Plug-In . SVG Version: 6.00 Build 0)  -->
<svg xmlns="http://www.w3.org/2000/svg" xmlns:xlink="http://www.w3.org/1999/xlink" version="1.1" id="Layer_1" x="0px" y="0px" viewBox="0 0 512 512" style="enable-background:new 0 0 512 512;" xml:space="preserve">
<g>
	<rect x="328.051" y="105.963" style="fill:#FFFFFF;" width="90.44" height="307.372"/>
	<rect x="93.504" y="105.963" style="fill:#FFFFFF;" width="90.44" height="307.372"/>
</g>
<polygon style="fill:#8CE0FF;" points="40.667,338.687 0,299.793 40.667,260.9 "/>
<g>
	<rect x="238.225" y="190.632" style="fill:#515262;" width="35.543" height="141.529"/>
	<rect x="238.225" y="39.476" style="fill:#515262;" width="35.543" height="99.156"/>
	<rect x="238.225" y="373.367" style="fill:#515262;" width="35.543" height="99.156"/>
</g>
<path style="fill:#C7CFE2;" d="M190.483,84.889H86.969c-9.631,0-17.438,7.807-17.438,17.438v130.728v183.908  c0,9.631,7.807,17.438,17.438,17.438h103.514c9.631,0,17.438-7.807,17.438-17.438V233.054V102.326  C207.921,92.696,200.114,84.889,190.483,84.889z M104.406,119.764h68.639v95.853h-68.639V119.764z M173.047,399.525h-68.639V250.492  h68.639V399.525z"/>
<polygon style="fill:#8CE0FF;" points="471.332,338.687 512,299.793 471.332,260.9 "/>
<path style="fill:#C7CFE2;" d="M304.078,102.326v130.728v183.908c0,9.631,7.807,17.438,17.438,17.438H425.03  c9.631,0,17.438-7.807,17.438-17.438V233.054V102.326c0-9.631-7.807-17.438-17.438-17.438H321.516  C311.885,84.889,304.078,92.696,304.078,102.326z M407.592,215.617h-68.639v-95.853h68.639V215.617z M338.953,250.492h68.639  v149.033h-68.639V250.492z"/>
<g>
</g>
<g>
</g>
<g>
</g>
<g>
</g>
<g>
</g>
<g>
</g>
<g>
</g>
<g>
</g>
<g>
</g>
<g>
</g>
<g>
</g>
<g>
</g>
<g>
</g>
<g>
</g>
<g>
</g>
</svg>
