<?xml version="1.0" encoding="iso-8859-1"?>
<!-- Generator: Adobe Illustrator 19.0.0, SVG Export Plug-In . SVG Version: 6.00 Build 0)  -->
<svg xmlns="http://www.w3.org/2000/svg" xmlns:xlink="http://www.w3.org/1999/xlink" version="1.1" id="Layer_1" x="0px" y="0px" viewBox="0 0 512.001 512.001" style="enable-background:new 0 0 512.001 512.001;" xml:space="preserve">
<path style="fill:#B4BBCC;" d="M479.019,63.386H32.981C14.766,63.386,0,78.151,0,96.365v319.269  c0,18.215,14.766,32.981,32.981,32.981H479.02c18.215,0,32.981-14.766,32.981-32.981V96.365  C512,78.151,497.233,63.386,479.019,63.386z"/>
<rect x="49.138" y="174.344" style="fill:#FFFFFF;" width="413.723" height="223.809"/>
<circle style="fill:#A5EB78;" cx="443.81" cy="118.865" r="19.057"/>
<circle style="fill:#FFD782;" cx="386.414" cy="118.865" r="19.057"/>
<circle style="fill:#FF6465;" cx="329.03" cy="118.865" r="19.057"/>
<path style="opacity:0.1;enable-background:new    ;" d="M80.321,415.636V96.365c0-18.215,14.766-32.98,32.981-32.98H32.981  C14.766,63.386,0,78.151,0,96.365v319.269c0,18.215,14.766,32.981,32.981,32.981h80.321  C95.088,448.616,80.321,433.85,80.321,415.636z"/>
<g>
</g>
<g>
</g>
<g>
</g>
<g>
</g>
<g>
</g>
<g>
</g>
<g>
</g>
<g>
</g>
<g>
</g>
<g>
</g>
<g>
</g>
<g>
</g>
<g>
</g>
<g>
</g>
<g>
</g>
</svg>
