<?xml version="1.0" encoding="iso-8859-1"?>
<!-- Generator: Adobe Illustrator 19.0.0, SVG Export Plug-In . SVG Version: 6.00 Build 0)  -->
<svg xmlns="http://www.w3.org/2000/svg" xmlns:xlink="http://www.w3.org/1999/xlink" version="1.1" id="Layer_1" x="0px" y="0px" viewBox="0 0 512.001 512.001" style="enable-background:new 0 0 512.001 512.001;" xml:space="preserve">
<path style="fill:#A9AFBF;" d="M195.846,295.992l-18.475,57.664h294.64c12.587,0,22.791,10.203,22.791,22.791  s-10.203,22.791-22.791,22.791H146.137c-7.279,0-14.12-3.477-18.41-9.357c-4.29-5.88-5.514-13.457-3.293-20.389l28.005-87.408  L195.846,295.992z"/>
<path style="fill:#E65A5B;" d="M473.46,76.993H109.49l68.891,221.667h257.967l64.392-183.159  C507.353,96.694,493.397,76.993,473.46,76.993z"/>
<path style="opacity:0.1;enable-background:new    ;" d="M134.916,336.772c10.368,10.214,24.53,16.273,39.967,16.273h2.684  l18.279-57.051l-43.408-13.908L134.916,336.772z"/>
<path style="fill:#C7CFE2;" d="M489.209,318.858H174.881c-10.061,0-18.931-6.597-21.827-16.23L84.989,76.149H22.791  C10.203,76.149,0,65.946,0,53.358s10.203-22.791,22.791-22.791h79.147c10.061,0,18.93,6.597,21.827,16.232l68.067,226.477H489.21  c12.587,0,22.791,10.203,22.791,22.791C512,308.655,501.797,318.858,489.209,318.858z"/>
<circle style="fill:#353640;" cx="200.012" cy="429.642" r="51.792"/>
<circle style="fill:#C7CFE2;" cx="200.012" cy="429.642" r="21.635"/>
<circle style="fill:#353640;" cx="397.71" cy="429.642" r="51.792"/>
<circle style="fill:#C7CFE2;" cx="397.71" cy="429.642" r="21.635"/>
<g>
</g>
<g>
</g>
<g>
</g>
<g>
</g>
<g>
</g>
<g>
</g>
<g>
</g>
<g>
</g>
<g>
</g>
<g>
</g>
<g>
</g>
<g>
</g>
<g>
</g>
<g>
</g>
<g>
</g>
</svg>
