<?xml version="1.0" encoding="iso-8859-1"?>
<!-- Generator: Adobe Illustrator 19.0.0, SVG Export Plug-In . SVG Version: 6.00 Build 0)  -->
<svg xmlns="http://www.w3.org/2000/svg" xmlns:xlink="http://www.w3.org/1999/xlink" version="1.1" id="Layer_1" x="0px" y="0px" viewBox="0 0 512 512" style="enable-background:new 0 0 512 512;" xml:space="preserve">
<circle style="fill:#FFE6B3;" cx="256" cy="256" r="247.507"/>
<path style="opacity:0.1;enable-background:new    ;" d="M76.433,289.97c0-136.695,110.813-247.507,247.507-247.507  c26.27,0,51.577,4.107,75.333,11.689C358.838,25.4,309.393,8.493,256,8.493C119.306,8.493,8.493,119.306,8.493,256  c0,110.425,72.32,203.945,172.175,235.818C117.585,446.961,76.433,373.271,76.433,289.97z"/>
<path style="fill:#CCB88F;" d="M437.02,74.98C388.668,26.629,324.381,0,256,0S123.332,26.629,74.98,74.98  C26.629,123.332,0,187.62,0,256s26.629,132.668,74.98,181.02c45.742,45.742,105.748,72.027,169.986,74.733  c0.256,0.024,0.512,0.04,0.767,0.04c0.035,0,0.07-0.007,0.105-0.008C249.215,511.916,252.601,512,256,512  c68.381,0,132.668-26.629,181.02-74.98C485.371,388.668,512,324.38,512,256S485.372,123.332,437.02,74.98z M463.743,137.909  c-13.844,1.825-27.3,4.704-40.23,8.336c-0.599,0.103-1.19,0.274-1.769,0.512c-29.852,8.576-56.846,21.092-79.304,33.727  c-0.135,0.065-0.271,0.121-0.403,0.194c-0.251,0.137-0.494,0.284-0.726,0.443c-8.67,4.912-16.66,9.831-23.851,14.532  c-31.341,20.489-53.033,40.019-61.298,47.861c-12.016-3.685-46.308-15.138-85.273-36.481c7.382-10.47,23.472-31.001,49.871-53.447  c34.376-29.229,93.702-67.678,181.914-86.17C427.346,86.646,448.157,110.6,463.743,137.909z M383.986,54.226  c-83.78,20.369-140.946,57.984-174.888,86.983c-28.553,24.395-45.482,46.4-53.031,57.341  c-18.816-11.262-38.174-24.797-56.228-40.812c5.604-9.926,19.533-32.025,43.996-55.621c30.08-29.011,82.736-66.266,163.069-79.657  C334.7,28.514,360.707,39.407,383.986,54.226z M256,16.985c0.198,0,0.396,0.007,0.593,0.008  c-58.83,18.404-99.64,48.741-125.142,73.472c-23.154,22.457-37.279,43.385-44.35,55.324c-9.001-8.949-17.528-18.584-25.32-28.938  C105.2,56.422,176.078,16.985,256,16.985z M51.86,131.799c9.56,12.116,20.021,23.215,30.919,33.351  c0.417,0.486,0.887,0.932,1.415,1.32c22.9,21.049,47.638,37.847,70.009,50.754c0.087,0.055,0.169,0.115,0.259,0.168  c0.087,0.05,0.178,0.084,0.265,0.131c8.063,4.637,15.818,8.776,23.056,12.416c34.238,17.221,62.633,26.575,73.654,29.906  c2.824,12.207,10.133,47.62,11.51,92.042c-12.991-1.148-39.37-4.774-72.93-16.228c-43.982-15.011-109.021-46.839-170.663-113.244  C23.989,189.619,35.289,158.934,51.86,131.799z M240.282,494.485c-86.376-5.636-160.378-57.35-197.599-130.752  c48.142,44.537,98.957,66.766,135.943,77.79c33.337,9.935,60.349,12.529,74.612,13.158  C249.945,468.117,245.699,481.478,240.282,494.485z M183.477,425.244C141.066,412.606,79.526,384.468,26.33,322.238  c-6.078-21.041-9.345-43.265-9.345-66.238c0-3.756,0.099-7.49,0.271-11.205c60.911,61.689,123.902,92.135,167.278,106.94  c36.66,12.512,65.128,16.164,78.629,17.23c-0.129,21.845-1.859,45.281-6.278,68.839  C244.875,437.445,217.633,435.424,183.477,425.244z M258.381,494.984c5.866-15.135,10.278-30.596,13.544-45.938  c0.219-0.648,0.363-1.327,0.419-2.03c6.212-30.085,8.066-59.622,7.857-85.239c0.027-0.27,0.044-0.544,0.045-0.82  c0.001-0.352-0.024-0.696-0.065-1.037c-0.104-8.578-0.429-16.709-0.899-24.243c-2.422-38.856-8.683-68.619-11.34-79.909  c7.868-7.428,29.102-26.515,59.16-46.125c4.742-3.095,9.855-6.289,15.281-9.511c5.289,11.994,14.968,37.143,21.188,72.435  c8.117,46.052,11.605,118.703-17.135,204.663C319.221,488.396,289.505,494.679,258.381,494.984z M433.354,416.055  c-18.747,20.754-41.079,38.203-66.004,51.382c24.636-82.714,20.927-152.565,12.952-197.82  c-6.792-38.532-17.458-65.521-23.057-77.904c18.61-10.033,40.117-19.73,63.533-26.952c5.388,10.596,16.596,35.183,24.149,69.336  C454.228,276.153,459.691,341.732,433.354,416.055z M461.356,229.726c-7.33-32.821-17.688-56.972-23.877-69.59  c11.224-2.75,22.802-4.87,34.651-6.127c14.665,30.951,22.886,65.528,22.886,101.992c0,44.176-12.061,85.581-33.042,121.123  C474.701,317.33,469.339,265.475,461.356,229.726z"/>
<g>
</g>
<g>
</g>
<g>
</g>
<g>
</g>
<g>
</g>
<g>
</g>
<g>
</g>
<g>
</g>
<g>
</g>
<g>
</g>
<g>
</g>
<g>
</g>
<g>
</g>
<g>
</g>
<g>
</g>
</svg>
