<?xml version="1.0" encoding="iso-8859-1"?>
<!-- Generator: Adobe Illustrator 19.0.0, SVG Export Plug-In . SVG Version: 6.00 Build 0)  -->
<svg xmlns="http://www.w3.org/2000/svg" xmlns:xlink="http://www.w3.org/1999/xlink" version="1.1" id="Layer_1" x="0px" y="0px" viewBox="0 0 512 512" style="enable-background:new 0 0 512 512;" xml:space="preserve">
<path style="fill:#FFD782;" d="M299.36,299.616l-86.978-86.978L3.838,421.184l-3.804,68.713c-0.69,12.464,9.606,22.76,22.07,22.07  l68.712-3.806l33.209-33.21v-33.993h33.993l37.889-37.889v-33.993h33.993L299.36,299.616z"/>
<path style="fill:#E6C275;" d="M53.305,469.232c-2.696,0-5.393-1.028-7.451-3.086c-4.115-4.115-4.115-10.787,0-14.9l205.142-205.143  c4.115-4.113,10.785-4.116,14.901,0c4.115,4.115,4.115,10.786,0,14.9L60.755,466.145C58.698,468.202,56.001,469.232,53.305,469.232z  "/>
<path style="opacity:0.1;enable-background:new    ;" d="M198.844,313.156c14.89,14.89,31.247,27.764,48.559,38.417l51.956-51.956  l-86.978-86.978l-52.03,52.03C170.886,281.714,183.718,298.028,198.844,313.156z"/>
<path style="fill:#FF6465;" d="M228.645,283.353c-73.592-73.592-82.559-179.921-20.415-242.064s168.472-53.177,242.064,20.415  s82.561,179.92,20.415,242.064S302.238,356.945,228.645,283.353z"/>
<path style="fill:#E65A5B;" d="M258.448,253.552c-56.881-56.881-65.849-137.029-20.415-182.462s125.581-36.466,182.462,20.415  s65.849,137.029,20.415,182.462S315.329,310.433,258.448,253.552z"/>
<ellipse transform="matrix(0.7071 -0.7071 0.7071 0.7071 -8.6654 296.3323)" style="fill:#FFFFFF;" cx="353.372" cy="158.626" rx="43.789" ry="67.382"/>
<path style="opacity:0.1;enable-background:new    ;" d="M319.78,139.073c17.1-17.1,52.295-9.63,78.609,16.684  c3.615,3.615,6.859,7.399,9.747,11.278c-3.566-13.252-11.676-27.256-23.796-39.375c-26.314-26.314-61.509-33.784-78.609-16.684  c-14.751,14.751-11.205,42.965,6.937,67.331C308.493,162.787,310.556,148.295,319.78,139.073z"/>
<g>
</g>
<g>
</g>
<g>
</g>
<g>
</g>
<g>
</g>
<g>
</g>
<g>
</g>
<g>
</g>
<g>
</g>
<g>
</g>
<g>
</g>
<g>
</g>
<g>
</g>
<g>
</g>
<g>
</g>
</svg>
