<?xml version="1.0" encoding="iso-8859-1"?>
<!-- Generator: Adobe Illustrator 19.0.0, SVG Export Plug-In . SVG Version: 6.00 Build 0)  -->
<svg xmlns="http://www.w3.org/2000/svg" xmlns:xlink="http://www.w3.org/1999/xlink" version="1.1" id="Layer_1" x="0px" y="0px" viewBox="0 0 512 512" style="enable-background:new 0 0 512 512;" xml:space="preserve">
<polygon style="fill:#515262;" points="450.564,0 398.209,0 241.811,167.75 241.811,167.75 136.28,0 14.466,0 14.466,510.817   497.534,510.817 497.534,37.531 "/>
<rect x="136.432" y="0.552" style="fill:#DCE5FA;" width="262.169" height="167.17"/>
<rect x="285.641" y="32.793" style="fill:#B4BBCC;" width="71.893" height="102.163"/>
<path style="fill:#FFFFFF;" d="M444.561,231.469c0-10.812-8.765-19.575-19.575-19.575H98.366c-10.812,0-19.575,8.765-19.575,19.575  v216.889c0,10.812,8.765,19.575,19.575,19.575h326.619c10.812,0,19.575-8.765,19.575-19.575V231.469H444.561z"/>
<g>
	<path style="fill:#515262;" d="M408.93,273.697H120.097c-5.224,0-9.46-4.234-9.46-9.46s4.235-9.46,9.46-9.46H408.93   c5.224,0,9.46,4.234,9.46,9.46S414.154,273.697,408.93,273.697z"/>
	<path style="fill:#515262;" d="M408.93,319.103H120.097c-5.224,0-9.46-4.234-9.46-9.46c0-5.225,4.235-9.46,9.46-9.46H408.93   c5.224,0,9.46,4.234,9.46,9.46C418.389,314.869,414.154,319.103,408.93,319.103z"/>
	<path style="fill:#515262;" d="M408.93,364.509H120.097c-5.224,0-9.46-4.234-9.46-9.46c0-5.225,4.235-9.46,9.46-9.46H408.93   c5.224,0,9.46,4.234,9.46,9.46C418.389,360.275,414.154,364.509,408.93,364.509z"/>
</g>
<g style="opacity:0.1;">
	<rect x="16.83" y="1.183" width="81.983" height="510.817"/>
</g>
<g>
</g>
<g>
</g>
<g>
</g>
<g>
</g>
<g>
</g>
<g>
</g>
<g>
</g>
<g>
</g>
<g>
</g>
<g>
</g>
<g>
</g>
<g>
</g>
<g>
</g>
<g>
</g>
<g>
</g>
</svg>
