<?xml version="1.0" encoding="iso-8859-1"?>
<!-- Generator: Adobe Illustrator 19.0.0, SVG Export Plug-In . SVG Version: 6.00 Build 0)  -->
<svg xmlns="http://www.w3.org/2000/svg" xmlns:xlink="http://www.w3.org/1999/xlink" version="1.1" id="Layer_1" x="0px" y="0px" viewBox="0 0 512 512" style="enable-background:new 0 0 512 512;" xml:space="preserve">
<path style="fill:#C0E3F0;" d="M400.463,123.454V26.999H111.538v96.456c0,59.34,35.782,110.312,86.941,132.546  c-51.16,22.233-86.941,73.207-86.941,132.546v96.456h288.926v-96.456c0-59.34-35.782-110.312-86.941-132.546  C364.682,233.767,400.463,182.794,400.463,123.454z"/>
<path style="fill:#5A4146;" d="M410.369,0H101.631C86.72,0,74.632,12.089,74.632,26.999l0,0c0,14.912,12.088,26.999,26.999,26.999  h308.738c14.911,0,26.999-12.088,26.999-26.999l0,0C437.369,12.089,425.28,0,410.369,0z"/>
<path style="opacity:0.1;enable-background:new    ;" d="M134.219,26.999C134.219,12.089,146.306,0,161.217,0h-59.586  C86.72,0,74.632,12.089,74.632,26.999c0,14.912,12.088,26.999,26.999,26.999h59.586C146.306,53.998,134.219,41.911,134.219,26.999z"/>
<path style="fill:#FFD782;" d="M364.712,123.454c0,59.944-48.768,108.712-108.712,108.712s-108.712-48.768-108.712-108.712H364.712z  "/>
<path style="opacity:0.1;enable-background:new    ;" d="M206.876,123.454H147.29c0,59.944,48.768,108.712,108.712,108.712  c10.327,0,20.321-1.448,29.793-4.151C240.287,215.03,206.876,173.071,206.876,123.454z"/>
<path style="fill:#FFD782;" d="M147.29,479.043v-42.828c0-59.944,48.768-108.712,108.712-108.712s108.712,48.768,108.712,108.712  v42.828H147.29z"/>
<path style="opacity:0.1;enable-background:new    ;" d="M285.793,331.654c-9.472-2.703-19.466-4.151-29.793-4.151  c-59.944,0-108.712,48.768-108.712,108.712v42.828h59.586v-42.828C206.876,386.598,240.287,344.639,285.793,331.654z"/>
<path style="fill:#5A4146;" d="M410.369,512H101.631c-14.911,0-26.999-12.089-26.999-26.999l0,0  c0-14.912,12.088-26.999,26.999-26.999h308.738c14.911,0,26.999,12.088,26.999,26.999l0,0C437.369,499.911,425.28,512,410.369,512z"/>
<path style="opacity:0.1;enable-background:new    ;" d="M134.219,485c0-14.912,12.088-26.999,26.999-26.999h-59.586  c-14.911,0-26.999,12.088-26.999,26.999c0,14.911,12.088,26.999,26.999,26.999h59.586C146.306,512,134.219,499.911,134.219,485z"/>
<g>
</g>
<g>
</g>
<g>
</g>
<g>
</g>
<g>
</g>
<g>
</g>
<g>
</g>
<g>
</g>
<g>
</g>
<g>
</g>
<g>
</g>
<g>
</g>
<g>
</g>
<g>
</g>
<g>
</g>
</svg>
