<?xml version="1.0" encoding="iso-8859-1"?>
<!-- Generator: Adobe Illustrator 19.0.0, SVG Export Plug-In . SVG Version: 6.00 Build 0)  -->
<svg xmlns="http://www.w3.org/2000/svg" xmlns:xlink="http://www.w3.org/1999/xlink" version="1.1" id="Layer_1" x="0px" y="0px" viewBox="0 0 511.999 511.999" style="enable-background:new 0 0 511.999 511.999;" xml:space="preserve">
<circle style="fill:#DCE5FA;" cx="255.999" cy="255.999" r="255.999"/>
<path style="opacity:0.1;enable-background:new    ;" d="M25.656,290.637c0-141.386,114.615-256.001,256.001-256.001  c76.614,0,145.355,33.665,192.269,86.997C428.827,48.644,348.101,0,256.001,0C114.615,0,0,114.615,0,256.001  c0,64.772,24.067,123.914,63.73,169.002C39.597,385.945,25.656,339.921,25.656,290.637z"/>
<circle style="fill:#C7CFE2;" cx="255.999" cy="255.999" r="105.435"/>
<circle style="fill:#FFFFFF;" cx="255.999" cy="255.999" r="39.767"/>
<g>
	<path style="fill:#C7CFE2;" d="M354.51,62.103l-33.018,69.575c31.697,16.765,56.252,45.292,67.803,79.737l67.956-37.914   C437.402,125.261,400.703,85.665,354.51,62.103z"/>
	<path style="fill:#C7CFE2;" d="M157.492,449.899l33.018-69.575c-31.697-16.765-56.252-45.293-67.803-79.737l-67.956,37.912   C74.6,386.74,111.297,426.335,157.492,449.899z"/>
</g>
<g>
</g>
<g>
</g>
<g>
</g>
<g>
</g>
<g>
</g>
<g>
</g>
<g>
</g>
<g>
</g>
<g>
</g>
<g>
</g>
<g>
</g>
<g>
</g>
<g>
</g>
<g>
</g>
<g>
</g>
</svg>
