<?xml version="1.0" encoding="iso-8859-1"?>
<!-- Generator: Adobe Illustrator 19.0.0, SVG Export Plug-In . SVG Version: 6.00 Build 0)  -->
<svg xmlns="http://www.w3.org/2000/svg" xmlns:xlink="http://www.w3.org/1999/xlink" version="1.1" id="Layer_1" x="0px" y="0px" viewBox="0 0 512 512" style="enable-background:new 0 0 512 512;" xml:space="preserve">
<path style="fill:#B34647;" d="M14.63,198.786c-9.545,0-16.531,8.997-14.167,18.245l7.149,27.961  c1.655,6.472,7.486,11.001,14.167,11.001h71.874v-57.206L14.63,198.786L14.63,198.786z"/>
<path style="fill:#CC5051;" d="M497.37,198.786c9.545,0,16.531,8.997,14.167,18.245l-7.149,27.961  c-1.655,6.472-7.486,11.001-14.167,11.001h-71.874v-57.206L497.37,198.786L497.37,198.786z"/>
<path style="fill:#353640;" d="M77.143,353.382v87.03c0,11.933,9.674,21.606,21.606,21.606h20.342  c11.933,0,21.606-9.673,21.606-21.606v-87.03H77.143z"/>
<path style="fill:#E65A5B;" d="M67.344,312.853l10.328-158.68c3.802-58.425,52.643-104.19,111.191-104.19h134.276  c58.548,0,107.39,45.767,111.191,104.191l10.327,158.68H67.344V312.853z"/>
<path style="fill:#7DD2F0;" d="M389.422,157.094c-2.274-34.937-31.274-62.111-66.284-62.111H188.862  c-35.01,0-64.01,27.174-66.284,62.111l-7.208,110.757H396.63L389.422,157.094z"/>
<path style="opacity:0.1;enable-background:new    ;" d="M267.615,49.981h-78.753c-58.548,0-107.389,45.766-111.191,104.19  l-10.328,158.68h78.753l10.328-158.68C160.226,95.747,209.068,49.981,267.615,49.981z"/>
<path style="fill:#353640;" d="M434.857,353.382v87.03c0,11.933-9.674,21.606-21.606,21.606h-20.342  c-11.933,0-21.606-9.673-21.606-21.606v-87.03H434.857z"/>
<path style="fill:#E65A5B;" d="M264.438,91.357v137.424c0,4.779-3.777,8.653-8.438,8.653c-4.661,0-8.438-3.874-8.438-8.653V91.357  H264.438z"/>
<path style="fill:#FF6465;" d="M417.98,228.995H94.02c-27.88,0-50.481,22.601-50.481,50.481v73.906H468.46v-73.906  C468.46,251.596,445.859,228.995,417.98,228.995z"/>
<path style="opacity:0.1;enable-background:new    ;" d="M161.522,228.995H94.02c-27.88,0-50.481,22.601-50.481,50.481v73.906  h67.503v-73.906C111.041,251.596,133.644,228.995,161.522,228.995z"/>
<rect x="77.144" y="353.387" style="opacity:0.1;enable-background:new    ;" width="63.554" height="62.582"/>
<rect x="371.298" y="353.387" style="opacity:0.1;enable-background:new    ;" width="63.554" height="62.582"/>
<rect x="28.76" y="324.552" style="fill:#C7CFE2;" width="454.472" height="57.658"/>
<rect x="28.76" y="324.552" style="opacity:0.1;enable-background:new    ;" width="67.503" height="57.658"/>
<rect x="177.801" y="356.694" style="fill:#FFD782;" width="156.392" height="51.043"/>
<rect x="177.801" y="356.694" style="opacity:0.1;enable-background:new    ;" width="45.002" height="51.043"/>
<g>
	<circle style="fill:#FFD782;" cx="108.589" cy="279.1" r="20.198"/>
	<circle style="fill:#FFD782;" cx="403.406" cy="279.1" r="20.198"/>
</g>
<g>
</g>
<g>
</g>
<g>
</g>
<g>
</g>
<g>
</g>
<g>
</g>
<g>
</g>
<g>
</g>
<g>
</g>
<g>
</g>
<g>
</g>
<g>
</g>
<g>
</g>
<g>
</g>
<g>
</g>
</svg>
