<?xml version="1.0" encoding="iso-8859-1"?>
<!-- Generator: Adobe Illustrator 19.0.0, SVG Export Plug-In . SVG Version: 6.00 Build 0)  -->
<svg xmlns="http://www.w3.org/2000/svg" xmlns:xlink="http://www.w3.org/1999/xlink" version="1.1" id="Layer_1" x="0px" y="0px" viewBox="0 0 512 512" style="enable-background:new 0 0 512 512;" xml:space="preserve">
<path style="fill:#C7CFE2;" d="M512,190.646c0-8.53-6.916-15.445-15.445-15.445H46.321c-8.53,0-15.445,6.916-15.445,15.445v130.708  c0,8.53,6.916,15.445,15.445,15.445h450.233c8.53,0,15.445-6.916,15.445-15.445V190.646H512z"/>
<rect x="70.051" y="218.048" style="fill:#FFFFFF;" width="402.773" height="75.902"/>
<path style="opacity:0.1;enable-background:new    ;" d="M31.688,191.19v130.708c0,8.53,6.914,15.445,15.445,15.445h6.845  l92.993-82.024l-90.217-79.575h-9.62C38.603,175.744,31.688,182.659,31.688,191.19z"/>
<polygon style="fill:#7DD2F0;" points="0,335.981 0,174.658 91.449,255.319 "/>
<g>
</g>
<g>
</g>
<g>
</g>
<g>
</g>
<g>
</g>
<g>
</g>
<g>
</g>
<g>
</g>
<g>
</g>
<g>
</g>
<g>
</g>
<g>
</g>
<g>
</g>
<g>
</g>
<g>
</g>
</svg>
