<?xml version="1.0" encoding="iso-8859-1"?>
<!-- Generator: Adobe Illustrator 19.0.0, SVG Export Plug-In . SVG Version: 6.00 Build 0)  -->
<svg xmlns="http://www.w3.org/2000/svg" xmlns:xlink="http://www.w3.org/1999/xlink" version="1.1" id="Capa_1" x="0px" y="0px" viewBox="0 0 512.001 512.001" style="enable-background:new 0 0 512.001 512.001;" xml:space="preserve">
<rect x="7.556" y="7.514" style="fill:#69788D;" width="240.448" height="496.925"/>
<rect x="7.556" y="7.514" style="fill:#56677E;" width="24.045" height="496.925"/>
<circle style="fill:#F7C14D;" cx="127.777" cy="432.305" r="32.06"/>
<circle style="fill:#FFDB66;" cx="127.777" cy="432.305" r="16.03"/>
<rect x="39.615" y="31.559" style="fill:#435670;" width="176.328" height="64.119"/>
<rect x="55.643" y="47.589" style="fill:#56677E;" width="144.269" height="32.06"/>
<rect x="39.615" y="143.768" style="fill:#435670;" width="176.328" height="64.119"/>
<rect x="55.643" y="159.797" style="fill:#56677E;" width="144.269" height="32.06"/>
<path style="fill:#F09B24;" d="M504.193,180.312c-6.817,5.713-45.229,23.193-103.846,23.193c-36.534,0-69.58-22.649-69.58-22.649  c-6.963,5.555-32.377,22.649-68.911,22.649c-58.617,0-97.03-17.481-103.846-23.193c-1.049,35.205-7.518,255.787,172.758,323.871  v0.257c0.112-0.042,0.222-0.086,0.335-0.128c0.112,0.042,0.222,0.086,0.335,0.128v-0.257  C511.71,436.099,505.241,215.516,504.193,180.312z"/>
<path style="fill:#FFDB66;" d="M331.736,469.709c-60.157-26.396-102.497-76.517-124.683-149.157  c-8.812-28.854-14.268-60.084-16.313-93.264c19.738,4.85,43.816,8.275,71.116,8.275c30.183,0,54.108-8.969,69.88-17.356  c16.275,7.997,41.181,17.356,68.611,17.356c27.298,0,51.379-3.426,71.115-8.275c-2.046,33.18-7.501,64.41-16.313,93.264  C432.964,393.192,391.893,443.313,331.736,469.709z"/>
<path style="fill:#F7C14D;" d="M400.347,235.564c-27.43,0-52.335-9.359-68.611-17.356c-15.772,8.388-39.697,17.356-69.88,17.356  c-27.301,0-51.379-3.425-71.116-8.275c2.046,33.18,7.501,64.41,16.313,93.264c22.186,72.639,64.526,122.76,124.683,149.157  c60.157-26.396,101.227-76.517,123.414-149.157c8.812-28.854,14.268-60.084,16.313-93.264  C451.725,232.138,427.645,235.564,400.347,235.564z M432.153,313.529c-10.141,33.204-24.613,61.343-43.016,83.637  c-15.867,19.224-35.145,34.65-57.412,45.962c-48.751-24.671-82.929-68.217-101.677-129.598c-5.458-17.873-9.563-36.872-12.27-56.755  c14.319,1.885,29.054,2.835,44.077,2.835c28.964,0,52.931-7.205,70.188-14.837c17.94,7.592,41.963,14.837,68.304,14.837  c15.022,0,29.756-0.95,44.076-2.836C441.716,276.658,437.612,295.655,432.153,313.529z"/>
<g>
	<path style="fill:#2C9DD4;" d="M331.736,469.709V351.154H218.129C241.93,407.422,280.436,447.199,331.736,469.709z"/>
	<path style="fill:#2C9DD4;" d="M455.149,320.553c8.812-28.854,14.268-60.084,16.313-93.264   c-19.737,4.849-43.818,8.275-71.115,8.275c-27.43,0-52.335-9.359-68.611-17.356v132.945h112.337   C448.182,341.44,451.883,331.247,455.149,320.553z"/>
</g>
<g>
	<path style="fill:#F7C14D;" d="M305.086,455.744c-0.094-0.058-0.19-0.114-0.285-0.172   C304.895,455.629,304.991,455.685,305.086,455.744z"/>
	<path style="fill:#F7C14D;" d="M455.149,320.553c-0.784,2.57-1.598,5.107-2.433,7.618   C453.549,325.657,454.364,323.122,455.149,320.553z"/>
	<path style="fill:#F7C14D;" d="M310.907,459.201c-0.439-0.251-0.88-0.501-1.316-0.755   C310.028,458.7,310.469,458.949,310.907,459.201z"/>
	<path style="fill:#F7C14D;" d="M321.335,464.81c-0.593-0.298-1.181-0.602-1.77-0.906   C320.155,464.208,320.742,464.512,321.335,464.81z"/>
	<path style="fill:#F7C14D;" d="M326.509,467.33c-0.533-0.25-1.059-0.511-1.589-0.765   C325.45,466.819,325.976,467.078,326.509,467.33z"/>
	<path style="fill:#F7C14D;" d="M452.344,329.269c-0.785,2.337-1.586,4.658-2.414,6.945   C450.755,333.924,451.56,331.609,452.344,329.269z"/>
	<path style="fill:#F7C14D;" d="M316.169,462.122c-0.557-0.299-1.113-0.6-1.666-0.904   C315.056,461.523,315.611,461.824,316.169,462.122z"/>
</g>
<g>
	<path style="fill:#3CBDE8;" d="M319.564,463.904c-1.139-0.585-2.272-1.178-3.396-1.782   C317.293,462.726,318.426,463.319,319.564,463.904z"/>
	<path style="fill:#3CBDE8;" d="M331.736,469.709c-1.758-0.771-3.499-1.568-5.227-2.379   C328.238,468.141,329.978,468.938,331.736,469.709z"/>
	<path style="fill:#3CBDE8;" d="M314.502,461.219c-1.207-0.662-2.404-1.336-3.595-2.019   C312.098,459.884,313.296,460.558,314.502,461.219z"/>
	<path style="fill:#3CBDE8;" d="M218.167,351.154h-0.038c19.433,45.943,48.674,80.886,86.672,104.417   C266.843,432.042,237.709,397.092,218.167,351.154z"/>
	<path style="fill:#3CBDE8;" d="M244.519,351.154c19.89,41.863,49.095,72.687,87.207,91.974c0.003-0.002,0.006-0.003,0.01-0.005   v-91.969H244.519z"/>
	<path style="fill:#3CBDE8;" d="M324.92,466.564c-1.201-0.576-2.398-1.158-3.585-1.754   C322.522,465.406,323.719,465.988,324.92,466.564z"/>
	<path style="fill:#3CBDE8;" d="M309.591,458.445c-1.515-0.884-3.018-1.783-4.504-2.702   C306.574,456.662,308.076,457.562,309.591,458.445z"/>
	<path style="fill:#3CBDE8;" d="M452.717,328.172c-0.122,0.369-0.25,0.73-0.373,1.098   C452.467,328.902,452.594,328.54,452.717,328.172z"/>
	<path style="fill:#3CBDE8;" d="M449.924,336.229c0.002-0.005,0.004-0.01,0.006-0.015   C449.928,336.219,449.926,336.224,449.924,336.229z"/>
	<path style="fill:#3CBDE8;" d="M417.789,351.154c5.47-11.69,10.275-24.238,14.364-37.625c5.458-17.873,9.563-36.872,12.27-56.756   c-14.32,1.887-29.054,2.836-44.076,2.836c-26.341,0-50.364-7.243-68.304-14.837c-0.1,0.044-0.206,0.088-0.308,0.132v106.249   H417.789z"/>
</g>
<path d="M127.779,392.731c-21.821,0-39.574,17.753-39.574,39.574s17.753,39.574,39.574,39.574s39.574-17.753,39.574-39.574  S149.6,392.731,127.779,392.731z M127.779,456.85c-13.535,0-24.546-11.01-24.546-24.546c0-10.914,7.161-20.184,17.032-23.364v15.35  c0,4.151,3.363,7.514,7.514,7.514s7.514-3.363,7.514-7.514v-15.35c9.87,3.182,17.032,12.45,17.032,23.365  C152.325,445.84,141.314,456.85,127.779,456.85z"/>
<path d="M39.615,103.192h176.328c4.151,0,7.514-3.363,7.514-7.514V31.559c0-4.151-3.363-7.514-7.514-7.514H39.615  c-4.151,0-7.514,3.363-7.514,7.514v64.119C32.101,99.829,35.465,103.192,39.615,103.192z M47.129,39.073h161.3v49.091h-161.3  C47.129,88.164,47.129,39.073,47.129,39.073z"/>
<path d="M511.704,180.087c-0.183-6.138-7.615-9.493-12.337-5.534c-5.642,4.728-43.168,21.438-99.019,21.438  c-33.674,0-65.026-21.124-65.333-21.334c-2.725-1.866-6.353-1.736-8.935,0.325c-2.695,2.15-27.393,21.009-64.224,21.009  c-2.143,0-4.25-0.032-6.339-0.08V7.514c0-4.151-3.363-7.514-7.514-7.514H7.557C3.406,0,0.043,3.363,0.043,7.514v496.925  c0,4.151,3.363,7.514,7.514,7.514h240.448c4.151,0,7.514-3.363,7.514-7.514v-35.368c20.82,17.439,44.53,31.332,70.899,41.494  c2.639,1.951,6.724,1.876,9.371,0c48.116-18.541,87.243-49.381,116.316-91.689c2.35-3.42,1.482-8.098-1.938-10.449  c-3.421-2.35-8.099-1.482-10.449,1.938c-27.176,39.548-63.713,68.439-108.616,85.9c-147.963-57.506-166.201-222.399-165.798-303.221  c17.914,8.161,51.871,17.975,96.553,17.975c34.226,0,58.983-14.048,69.23-21.08c10.682,6.396,38.554,21.08,69.262,21.08  c44.694,0,78.658-9.821,96.568-17.983c0.645,87.97-20.136,148.823-38.153,184.905c-1.829,3.663-0.298,8.25,3.365,10.08  c3.663,1.828,8.249,0.297,10.08-3.365C491.835,345.344,514.621,277.944,511.704,180.087z M215.944,136.254H39.615  c-4.151,0-7.514,3.363-7.514,7.514v64.119c0,4.151,3.363,7.514,7.514,7.514H150.58c0.103,3.019,0.229,6.024,0.384,9.017H15.07  v-97.181h225.42v67.919c-5.959-0.465-11.651-1.101-17.032-1.874v-49.514C223.458,139.617,220.093,136.254,215.944,136.254z   M240.489,15.028v97.181H15.07V15.028H240.489z M240.715,455.554c-0.142,0.577-0.225,1.176-0.225,1.797v39.574H15.07V239.446  h136.872c0.911,11.228,2.205,22.246,3.85,33.062H39.615c-4.151,0-7.514,3.363-7.514,7.514s3.363,7.514,7.514,7.514h118.699  c1.59,8.496,3.43,16.84,5.487,25.047H39.615c-4.151,0-7.514,3.363-7.514,7.514s3.363,7.514,7.514,7.514h128.272  c0.439,1.502,0.864,3.012,1.318,4.502c2.142,7.014,4.468,13.859,6.957,20.544H39.615c-4.151,0-7.514,3.363-7.514,7.514  c0,4.151,3.363,7.514,7.514,7.514h142.538c10.679,24.963,23.92,47.341,39.56,66.824  C227.681,441.946,234.033,448.946,240.715,455.554z M162.836,174.553c-4.722-3.958-12.154-0.603-12.337,5.534  c-0.203,6.821-0.283,13.583-0.241,20.286H47.129v-49.091h161.3v39.367C182.758,185.331,166.405,177.544,162.836,174.553z"/>
<path d="M478.962,227.752c0.308-4.973-4.449-8.95-9.291-7.759c-21.766,5.347-45.089,8.058-69.323,8.058  c-26.07,0-49.899-9.02-65.298-16.587c-2.164-1.063-4.71-1.023-6.842,0.109c-14.134,7.517-37.12,16.477-66.353,16.477  c-24.238,0-47.564-2.711-69.323-8.058c-4.842-1.188-9.601,2.785-9.292,7.759c2.078,33.717,7.672,65.678,16.627,94.995  c22.771,74.56,66.124,126.319,128.85,153.843c1.911,0.837,4.129,0.837,6.038,0c61.754-27.096,104.677-78.857,127.58-153.843  C471.29,293.43,476.884,261.469,478.962,227.752z M198.968,236.851c20.008,4.136,41.112,6.228,62.888,6.228  c25.599,0,46.851-6.219,62.366-12.937V343.64H223.167c-3.271-8.09-6.251-16.516-8.928-25.281  C206.517,293.077,201.392,265.702,198.968,236.851z M229.782,358.668h94.44v99.172C282.855,436.921,251.227,403.687,229.782,358.668  z M339.25,457.824v-99.157h93.257C411.161,403.914,379.927,437.145,339.25,457.824z M439.07,343.64h-99.821V229.866  c16.277,6.812,37.765,13.213,61.097,13.213c21.772,0,42.877-2.093,62.887-6.228c-2.424,28.851-7.549,56.226-15.27,81.507  C445.284,327.127,442.319,335.553,439.07,343.64z"/>
<g>
</g>
<g>
</g>
<g>
</g>
<g>
</g>
<g>
</g>
<g>
</g>
<g>
</g>
<g>
</g>
<g>
</g>
<g>
</g>
<g>
</g>
<g>
</g>
<g>
</g>
<g>
</g>
<g>
</g>
</svg>
