<?xml version="1.0" encoding="iso-8859-1"?>
<!-- Generator: Adobe Illustrator 19.0.0, SVG Export Plug-In . SVG Version: 6.00 Build 0)  -->
<svg xmlns="http://www.w3.org/2000/svg" xmlns:xlink="http://www.w3.org/1999/xlink" version="1.1" id="Capa_1" x="0px" y="0px" viewBox="0 0 512 512" style="enable-background:new 0 0 512 512;" xml:space="preserve">
<rect x="340.164" y="7.515" style="fill:#ECEEF1;" width="152.297" height="224.438"/>
<g>
	<polygon style="fill:#D9DDE2;" points="340.164,7.515 340.164,108.211 440.861,7.515  "/>
	<polygon style="fill:#D9DDE2;" points="340.164,186.865 340.164,231.953 347.178,231.953 492.462,86.669 492.462,34.568  "/>
	<polygon style="fill:#D9DDE2;" points="375.734,231.953 492.462,231.953 492.462,115.225  "/>
</g>
<rect x="340.164" y="191.875" style="fill:#69788D;" width="152.297" height="40.078"/>
<rect x="19.538" y="159.812" style="fill:#8E9AA9;" width="192.376" height="344.673"/>
<rect x="19.538" y="159.812" style="fill:#7C899B;" width="24.047" height="344.673"/>
<circle style="fill:#F7C14D;" cx="115.726" cy="320.125" r="32.063"/>
<g>
	<circle style="fill:#FFDB66;" cx="115.726" cy="320.125" r="16.031"/>
	<rect x="51.601" y="183.859" style="fill:#FFDB66;" width="128.25" height="32.063"/>
</g>
<rect x="51.601" y="199.89" style="fill:#F7C14D;" width="128.25" height="16.031"/>
<path d="M211.914,152.297H19.538c-4.15,0-7.515,3.364-7.515,7.515v344.673c0,4.151,3.365,7.515,7.515,7.515h192.376  c4.15,0,7.515-3.364,7.515-7.515V324.634c0-4.151-3.365-7.515-7.515-7.515s-7.515,3.364-7.515,7.515v172.337H27.053V247.483h177.346  v40.579c0,4.151,3.365,7.515,7.515,7.515s7.515-3.364,7.515-7.515v-128.25C219.429,155.661,216.064,152.297,211.914,152.297z   M27.053,232.454v-65.127h177.346v65.127H27.053z"/>
<path d="M155.303,320.125c0-21.823-17.755-39.577-39.577-39.577s-39.577,17.755-39.577,39.577s17.755,39.577,39.577,39.577  S155.303,341.948,155.303,320.125z M91.178,320.125c0-10.915,7.163-20.185,17.033-23.367v15.351c0,4.151,3.365,7.515,7.515,7.515  c4.15,0,7.515-3.364,7.515-7.515v-15.351c9.87,3.182,17.033,12.451,17.033,23.367c0,13.536-11.013,24.548-24.548,24.548  S91.178,333.662,91.178,320.125z"/>
<path d="M155.804,376.736H75.648c-4.15,0-7.515,3.364-7.515,7.515s3.365,7.515,7.515,7.515h80.157c4.15,0,7.515-3.364,7.515-7.515  S159.954,376.736,155.804,376.736z"/>
<path d="M155.804,416.814H75.648c-4.15,0-7.515,3.364-7.515,7.515s3.365,7.515,7.515,7.515h80.157c4.15,0,7.515-3.364,7.515-7.515  S159.954,416.814,155.804,416.814z"/>
<path d="M155.804,456.892H75.648c-4.15,0-7.515,3.364-7.515,7.515s3.365,7.515,7.515,7.515h80.157c4.15,0,7.515-3.364,7.515-7.515  S159.954,456.892,155.804,456.892z"/>
<path d="M179.851,176.344H51.601c-4.15,0-7.515,3.364-7.515,7.515v32.063c0,4.151,3.365,7.515,7.515,7.515h128.25  c4.15,0,7.515-3.364,7.515-7.515v-32.063C187.366,179.708,184.001,176.344,179.851,176.344z M172.337,208.407H59.115v-17.033  h113.221V208.407z"/>
<path d="M115.726,71.139c4.15,0,7.515-3.364,7.515-7.515v-8.517h166.719l-19.235,19.234c-2.736,2.736-2.918,7.255-0.4,10.197  c2.809,3.281,7.971,3.487,11.027,0.432l32.063-32.063c2.935-2.936,2.935-7.693,0-10.628l-32.063-32.063  c-2.935-2.934-7.693-2.934-10.627,0c-2.935,2.936-2.935,7.693,0,10.628l19.235,19.234H115.726c-4.15,0-7.515,3.364-7.515,7.515  v16.031C108.211,67.775,111.576,71.139,115.726,71.139z"/>
<path d="M115.726,111.217c4.15,0,7.515-3.364,7.515-7.515V87.671c0-4.151-3.365-7.515-7.515-7.515c-4.15,0-7.515,3.364-7.515,7.515  v16.031C108.211,107.854,111.576,111.217,115.726,111.217z"/>
<path d="M115.726,135.264h1.002c4.15,0,7.515-3.364,7.515-7.515c0-4.151-3.365-7.515-7.515-7.515h-1.002  c-4.15,0-7.515,3.364-7.515,7.515S111.576,135.264,115.726,135.264z"/>
<path d="M420.321,320.626c-4.15,0-7.515,3.364-7.515,7.515v72.642H270.135l19.235-19.234c2.895-2.896,2.896-7.733,0-10.628  c-2.895-2.895-7.732-2.894-10.627,0l-32.063,32.063c-2.935,2.936-2.935,7.693,0,10.628l32.063,32.063  c2.801,2.8,7.551,2.865,10.448,0.171c3.044-2.83,3.113-7.865,0.179-10.8l-19.236-19.234h150.186c4.15,0,7.515-3.364,7.515-7.515  v-80.157C427.836,323.99,424.471,320.626,420.321,320.626z"/>
<path d="M420.321,280.548c-4.15,0-7.515,3.364-7.515,7.515v16.031c0,4.151,3.365,7.515,7.515,7.515c4.15,0,7.515-3.364,7.515-7.515  v-16.031C427.836,283.911,424.471,280.548,420.321,280.548z"/>
<path d="M421.323,256.501h-1.002c-4.15,0-7.515,3.364-7.515,7.515s3.365,7.515,7.515,7.515h1.002c4.15,0,7.515-3.364,7.515-7.515  S425.473,256.501,421.323,256.501z"/>
<path d="M492.462,0H340.164c-4.15,0-7.515,3.364-7.515,7.515v224.438c0,4.151,3.365,7.515,7.515,7.515h152.297  c4.15,0,7.515-3.364,7.515-7.515V7.515C499.977,3.364,496.612,0,492.462,0z M484.947,15.029V184.36H347.679V15.029H484.947z   M347.679,224.438v-25.049h137.268v25.049H347.679z"/>
<path d="M420.321,204.399h-8.016c-4.15,0-7.515,3.364-7.515,7.515s3.365,7.515,7.515,7.515h8.016c4.15,0,7.515-3.364,7.515-7.515  S424.471,204.399,420.321,204.399z"/>
<g>
</g>
<g>
</g>
<g>
</g>
<g>
</g>
<g>
</g>
<g>
</g>
<g>
</g>
<g>
</g>
<g>
</g>
<g>
</g>
<g>
</g>
<g>
</g>
<g>
</g>
<g>
</g>
<g>
</g>
</svg>
