<?xml version="1.0" encoding="iso-8859-1"?>
<!-- Generator: Adobe Illustrator 19.0.0, SVG Export Plug-In . SVG Version: 6.00 Build 0)  -->
<svg xmlns="http://www.w3.org/2000/svg" xmlns:xlink="http://www.w3.org/1999/xlink" version="1.1" id="Capa_1" x="0px" y="0px" viewBox="0 0 512 512" style="enable-background:new 0 0 512 512;" xml:space="preserve">
<path style="fill:#3CBDE8;" d="M360.204,95.687c-15.284,0-29.134,6.119-39.253,16.031h-0.327c4.802-9.661,7.517-20.542,7.517-32.063  c0-39.843-32.298-72.141-72.141-72.141s-72.141,32.298-72.141,72.141c0,3.025,0.208,6.001,0.569,8.927  c-9.561-5.665-20.713-8.927-32.632-8.927c-35.415,0-64.125,28.71-64.125,64.125s28.71,64.125,64.125,64.125h208.407  c30.989,0,56.11-25.121,56.11-56.11S391.192,95.687,360.204,95.687z"/>
<path style="fill:#2C9DD4;" d="M368.219,183.859H159.812c-35.415,0-64.125-28.71-64.125-64.125c0-2.664,0.181-5.284,0.497-7.863  c-5.406,9.4-8.513,20.29-8.513,31.91c0,35.415,28.71,64.125,64.125,64.125h208.407c29.208,0,53.194-22.32,55.855-50.832  C406.188,173.14,388.458,183.859,368.219,183.859z"/>
<circle style="fill:#F7C14D;" cx="256" cy="280.047" r="24.047"/>
<g>
	<circle style="fill:#FFDB66;" cx="256" cy="280.047" r="8.016"/>
	<path style="fill:#FFDB66;" d="M143.781,504.485H15.53c-4.427,0-8.016-3.589-8.016-8.016V376.235c0-4.427,3.589-8.016,8.016-8.016   h128.25c4.427,0,8.016,3.589,8.016,8.016V496.47C151.796,500.896,148.207,504.485,143.781,504.485z"/>
</g>
<path style="fill:#F7C14D;" d="M31.562,488.454c-4.427,0-8.016-3.589-8.016-8.016V368.219H15.53c-4.427,0-8.016,3.589-8.016,8.016  V496.47c0,4.427,3.589,8.016,8.016,8.016h128.25c4.427,0,8.016-3.589,8.016-8.016v-8.016H31.562z"/>
<rect x="31.562" y="416.313" style="fill:#69788D;" width="96.188" height="64.125"/>
<g>
	<polygon style="fill:#56677E;" points="87.17,480.438 127.75,480.438 127.75,439.859  "/>
	<polygon style="fill:#56677E;" points="31.562,416.313 31.562,462.403 77.652,416.313  "/>
	<polygon style="fill:#56677E;" points="89.675,416.313 31.562,474.427 31.562,480.438 57.613,480.438 121.738,416.313  "/>
</g>
<path style="fill:#FFDB66;" d="M320.125,504.485h-128.25c-4.427,0-8.016-3.589-8.016-8.016V376.235c0-4.427,3.589-8.016,8.016-8.016  h128.25c4.427,0,8.016,3.589,8.016,8.016V496.47C328.141,500.896,324.552,504.485,320.125,504.485z"/>
<path style="fill:#F7C14D;" d="M207.906,488.454c-4.427,0-8.016-3.589-8.016-8.016V368.219h-8.016c-4.427,0-8.016,3.589-8.016,8.016  V496.47c0,4.427,3.589,8.016,8.016,8.016h128.25c4.427,0,8.016-3.589,8.016-8.016v-8.016H207.906z"/>
<rect x="207.906" y="416.313" style="fill:#69788D;" width="96.188" height="64.125"/>
<g>
	<polygon style="fill:#56677E;" points="263.515,480.438 304.094,480.438 304.094,439.859  "/>
	<polygon style="fill:#56677E;" points="207.906,416.313 207.906,462.403 253.996,416.313  "/>
	<polygon style="fill:#56677E;" points="266.02,416.313 207.906,474.427 207.906,480.438 233.957,480.438 298.082,416.313  "/>
</g>
<path style="fill:#FFDB66;" d="M496.47,504.485h-128.25c-4.427,0-8.016-3.589-8.016-8.016V376.235c0-4.427,3.589-8.016,8.016-8.016  h128.25c4.427,0,8.016,3.589,8.016,8.016V496.47C504.485,500.896,500.896,504.485,496.47,504.485z"/>
<path style="fill:#F7C14D;" d="M384.25,488.454c-4.427,0-8.016-3.589-8.016-8.016V368.219h-8.016c-4.427,0-8.016,3.589-8.016,8.016  V496.47c0,4.427,3.589,8.016,8.016,8.016h128.25c4.427,0,8.016-3.589,8.016-8.016v-8.016H384.25z"/>
<rect x="384.25" y="416.313" style="fill:#69788D;" width="96.188" height="64.125"/>
<g>
	<polygon style="fill:#56677E;" points="439.859,480.438 480.438,480.438 480.438,439.859  "/>
	<polygon style="fill:#56677E;" points="384.25,416.313 384.25,462.403 430.341,416.313  "/>
	<polygon style="fill:#56677E;" points="442.364,416.313 384.25,474.427 384.25,480.438 410.301,480.438 474.427,416.313  "/>
</g>
<path d="M24.047,416.313v64.125c0,4.15,3.365,7.515,7.515,7.515h96.188c4.15,0,7.515-3.365,7.515-7.515v-64.125  c0-4.15-3.365-7.515-7.515-7.515H31.562C27.412,408.798,24.047,412.163,24.047,416.313z M39.076,423.828h81.159v49.096H39.076  V423.828z"/>
<path d="M64.125,392.266c0,4.15,3.365,7.515,7.515,7.515h16.031c4.15,0,7.515-3.365,7.515-7.515s-3.365-7.515-7.515-7.515H71.64  C67.49,384.751,64.125,388.116,64.125,392.266z"/>
<path d="M111.718,399.781h8.016c4.15,0,7.515-3.365,7.515-7.515s-3.365-7.515-7.515-7.515h-8.016c-4.15,0-7.515,3.365-7.515,7.515  S107.568,399.781,111.718,399.781z"/>
<path d="M39.577,399.781h8.016c4.15,0,7.515-3.365,7.515-7.515s-3.365-7.515-7.515-7.515h-8.016c-4.15,0-7.515,3.365-7.515,7.515  S35.427,399.781,39.577,399.781z"/>
<path d="M496.47,360.704h-56.611v-80.658c0-4.15-3.365-7.515-7.515-7.515H286.651c-2.789-11.376-11.76-20.346-23.136-23.136v-33.975  h45.84c4.15,0,7.515-3.365,7.515-7.515s-3.365-7.515-7.515-7.515H151.796c-31.215,0-56.611-25.396-56.611-56.611  s25.396-56.611,56.611-56.611c10.143,0,20.102,2.724,28.802,7.878c5.27,3.122,12.038-1.32,11.288-7.386  c-0.346-2.793-0.513-5.413-0.513-8.007c0-35.635,28.992-64.626,64.626-64.626s64.626,28.992,64.626,64.626  c0,10.071-2.264,19.733-6.731,28.718c-1.69,3.4-0.503,7.652,2.699,9.686c2.962,1.882,7.101,1.489,9.614-0.973  c9.142-8.954,21.215-13.885,33.995-13.885c26.795,0,48.595,21.8,48.595,48.595s-21.8,48.595-48.595,48.595h-15.28  c-4.15,0-7.515,3.365-7.515,7.515s3.365,7.515,7.515,7.515h15.28c35.083,0,63.624-28.542,63.624-63.624  s-28.542-63.624-63.624-63.624c-9.007,0-17.743,1.869-25.758,5.423c0.806-4.562,1.21-9.214,1.21-13.939  C335.656,35.734,299.922,0,256,0c-42.866,0-77.932,34.033-79.593,76.499c-7.848-2.871-16.18-4.359-24.61-4.359  c-39.502,0-71.64,32.138-71.64,71.64s32.138,71.64,71.64,71.64h96.689v33.975c-11.376,2.789-20.346,11.76-23.136,23.136H79.656  c-4.15,0-7.515,3.365-7.515,7.515v80.658H15.53c-8.564,0-15.53,6.967-15.53,15.53V496.47C0,505.033,6.967,512,15.53,512h128.25  c8.564,0,15.53-6.967,15.53-15.53V376.235c0-8.564-6.967-15.53-15.53-15.53H87.17v-73.143h138.179  c2.789,11.376,11.76,20.346,23.136,23.136v50.007h-56.611c-8.564,0-15.53,6.967-15.53,15.53V496.47c0,8.564,6.967,15.53,15.53,15.53  h128.25c8.564,0,15.53-6.967,15.53-15.53V376.235c0-8.564-6.967-15.53-15.53-15.53h-56.611v-50.007  c11.376-2.789,20.346-11.76,23.136-23.136H424.83v73.143h-56.611c-8.564,0-15.53,6.967-15.53,15.53V496.47  c0,8.564,6.967,15.53,15.53,15.53h128.25c8.564,0,15.53-6.967,15.53-15.53V376.235C512,367.671,505.033,360.704,496.47,360.704z   M144.282,376.235V496.47c0,0.277-0.224,0.501-0.501,0.501H15.53c-0.277,0-0.501-0.224-0.501-0.501V376.235  c0-0.277,0.224-0.501,0.501-0.501h128.25C144.057,375.734,144.282,375.958,144.282,376.235z M320.626,376.235V496.47  c0,0.277-0.224,0.501-0.501,0.501h-128.25c-0.277,0-0.501-0.224-0.501-0.501V376.235c0-0.277,0.224-0.501,0.501-0.501h128.25  C320.402,375.734,320.626,375.958,320.626,376.235z M256,296.579c-9.116,0-16.532-7.417-16.532-16.532s7.416-16.532,16.532-16.532  s16.532,7.417,16.532,16.532S265.116,296.579,256,296.579z M496.971,496.47c0,0.277-0.224,0.501-0.501,0.501h-128.25  c-0.277,0-0.501-0.224-0.501-0.501V376.235c0-0.277,0.224-0.501,0.501-0.501h128.25c0.277,0,0.501,0.224,0.501,0.501V496.47z"/>
<path d="M480.438,408.798H384.25c-4.15,0-7.515,3.365-7.515,7.515v64.125c0,4.15,3.365,7.515,7.515,7.515h96.188  c4.15,0,7.515-3.365,7.515-7.515v-64.125C487.953,412.163,484.588,408.798,480.438,408.798z M472.924,472.924h-81.159v-49.096  h81.159V472.924z"/>
<path d="M424.329,399.781h16.031c4.15,0,7.515-3.365,7.515-7.515s-3.365-7.515-7.515-7.515h-16.031c-4.15,0-7.515,3.365-7.515,7.515  S420.179,399.781,424.329,399.781z"/>
<path d="M464.407,399.781h8.016c4.15,0,7.515-3.365,7.515-7.515s-3.365-7.515-7.515-7.515h-8.016c-4.15,0-7.515,3.365-7.515,7.515  S460.257,399.781,464.407,399.781z"/>
<path d="M392.266,399.781h8.016c4.15,0,7.515-3.365,7.515-7.515s-3.365-7.515-7.515-7.515h-8.016c-4.15,0-7.515,3.365-7.515,7.515  S388.116,399.781,392.266,399.781z"/>
<path d="M200.391,416.313v64.125c0,4.15,3.365,7.515,7.515,7.515h96.188c4.15,0,7.515-3.365,7.515-7.515v-64.125  c0-4.15-3.365-7.515-7.515-7.515h-96.188C203.756,408.798,200.391,412.163,200.391,416.313z M215.421,423.828h81.159v49.096h-81.159  V423.828z"/>
<path d="M240.47,392.266c0,4.15,3.365,7.515,7.515,7.515h16.031c4.15,0,7.515-3.365,7.515-7.515s-3.365-7.515-7.515-7.515h-16.031  C243.834,384.751,240.47,388.116,240.47,392.266z"/>
<path d="M288.063,399.781h8.016c4.15,0,7.515-3.365,7.515-7.515s-3.365-7.515-7.515-7.515h-8.016c-4.15,0-7.515,3.365-7.515,7.515  S283.913,399.781,288.063,399.781z"/>
<path d="M215.922,399.781h8.016c4.15,0,7.515-3.365,7.515-7.515s-3.365-7.515-7.515-7.515h-8.016c-4.15,0-7.515,3.365-7.515,7.515  S211.772,399.781,215.922,399.781z"/>
<g>
</g>
<g>
</g>
<g>
</g>
<g>
</g>
<g>
</g>
<g>
</g>
<g>
</g>
<g>
</g>
<g>
</g>
<g>
</g>
<g>
</g>
<g>
</g>
<g>
</g>
<g>
</g>
<g>
</g>
</svg>
