<?xml version="1.0" encoding="iso-8859-1"?>
<!-- Generator: Adobe Illustrator 19.0.0, SVG Export Plug-In . SVG Version: 6.00 Build 0)  -->
<svg xmlns="http://www.w3.org/2000/svg" xmlns:xlink="http://www.w3.org/1999/xlink" version="1.1" id="Capa_1" x="0px" y="0px" viewBox="0 0 512 512" style="enable-background:new 0 0 512 512;" xml:space="preserve">
<rect x="199.89" y="360.204" style="fill:#56677E;" width="112.219" height="144.282"/>
<rect x="199.89" y="360.204" style="fill:#435670;" width="112.219" height="64.125"/>
<rect x="7.515" y="7.515" style="fill:#ECEEF1;" width="496.971" height="392.767"/>
<rect x="7.515" y="7.515" style="fill:#D9DDE2;" width="24.047" height="392.767"/>
<rect x="7.515" y="336.157" style="fill:#8E9AA9;" width="496.971" height="64.125"/>
<rect x="7.515" y="336.157" style="fill:#7C899B;" width="24.047" height="64.125"/>
<rect x="159.812" y="143.781" style="fill:#F7C14D;" width="48.094" height="144.282"/>
<rect x="159.812" y="143.781" style="fill:#F09B24;" width="16.031" height="144.282"/>
<rect x="247.984" y="111.718" style="fill:#FF8C78;" width="48.094" height="176.344"/>
<rect x="247.984" y="111.718" style="fill:#DB6B5E;" width="16.031" height="176.344"/>
<rect x="336.157" y="71.64" style="fill:#3CBDE8;" width="48.094" height="216.423"/>
<rect x="336.157" y="71.64" style="fill:#2C9DD4;" width="16.031" height="216.423"/>
<path d="M504.485,0H7.515C3.364,0,0,3.365,0,7.515v392.767c0,4.15,3.364,7.515,7.515,7.515h184.861v89.174h-16.532  c-4.151,0-7.515,3.365-7.515,7.515s3.364,7.515,7.515,7.515h160.313c4.151,0,7.515-3.365,7.515-7.515s-3.364-7.515-7.515-7.515  h-16.532v-89.174h184.861c4.151,0,7.515-3.365,7.515-7.515V7.515C512,3.365,508.636,0,504.485,0z M304.595,496.971h-97.19v-89.174  h97.19V496.971z M15.029,392.767v-49.096H395.94c4.151,0,7.515-3.365,7.515-7.515s-3.364-7.515-7.515-7.515H15.029V15.029h481.941  v313.613h-64.626c-4.151,0-7.515,3.365-7.515,7.515s3.364,7.515,7.515,7.515h64.626v49.096H15.029z"/>
<path d="M264.016,360.704h-16.031c-4.151,0-7.515,3.365-7.515,7.515s3.364,7.515,7.515,7.515h16.031  c4.151,0,7.515-3.365,7.515-7.515S268.167,360.704,264.016,360.704z"/>
<path d="M439.859,288.063c0-4.15-3.364-7.515-7.515-7.515h-40.579V71.64c0-4.15-3.364-7.515-7.515-7.515h-48.094  c-4.151,0-7.515,3.365-7.515,7.515v208.908h-25.049v-168.83c0-4.15-3.364-7.515-7.515-7.515h-48.094  c-4.151,0-7.515,3.365-7.515,7.515v168.83h-25.049V143.781c0-4.15-3.364-7.515-7.515-7.515h-48.094  c-4.151,0-7.515,3.365-7.515,7.515v136.767h-49.096V63.624c0-4.15-3.364-7.515-7.515-7.515c-4.151,0-7.515,3.365-7.515,7.515v24.548  h-8.517c-4.151,0-7.515,3.365-7.515,7.515c0,4.15,3.364,7.515,7.515,7.515h8.517v49.096h-8.517c-4.151,0-7.515,3.365-7.515,7.515  s3.364,7.515,7.515,7.515h8.517v49.096h-8.517c-4.151,0-7.515,3.365-7.515,7.515s3.364,7.515,7.515,7.515h8.517v56.611  c0,4.15,3.364,7.515,7.515,7.515h336.658C436.496,295.577,439.859,292.213,439.859,288.063z M167.327,280.548V151.296h33.065  v129.252H167.327z M255.499,280.548V119.233h33.065v161.315H255.499z M343.671,280.548V79.155h33.065v201.393H343.671z"/>
<g>
</g>
<g>
</g>
<g>
</g>
<g>
</g>
<g>
</g>
<g>
</g>
<g>
</g>
<g>
</g>
<g>
</g>
<g>
</g>
<g>
</g>
<g>
</g>
<g>
</g>
<g>
</g>
<g>
</g>
</svg>
