<?xml version="1.0" encoding="iso-8859-1"?>
<!-- Generator: Adobe Illustrator 19.0.0, SVG Export Plug-In . SVG Version: 6.00 Build 0)  -->
<svg xmlns="http://www.w3.org/2000/svg" xmlns:xlink="http://www.w3.org/1999/xlink" version="1.1" id="Capa_1" x="0px" y="0px" viewBox="0 0 512 512" style="enable-background:new 0 0 512 512;" xml:space="preserve">
<path style="fill:#56677E;" d="M304.096,504.484h-96.195c-17.709,0-32.065-14.356-32.065-32.065V183.835  c0-17.709,14.356-32.065,32.065-32.065h96.195c17.709,0,32.065,14.356,32.065,32.065V472.42  C336.161,490.128,321.806,504.484,304.096,504.484z"/>
<path style="fill:#435670;" d="M328.145,480.436H215.918c-8.855,0-16.032-7.179-16.032-16.032V159.786  c0-2.475,0.29-4.882,0.821-7.196c-14.243,3.267-24.869,16.01-24.869,31.244V472.42c0,17.709,14.356,32.065,32.065,32.065h96.195  c15.234,0,27.977-10.627,31.244-24.869C333.027,480.146,330.621,480.436,328.145,480.436z"/>
<circle style="fill:#DB6B5E;" cx="255.998" cy="223.913" r="40.081"/>
<circle style="fill:#FF8C78;" cx="255.998" cy="223.913" r="24.049"/>
<circle style="fill:#F7C14D;" cx="255.998" cy="328.124" r="40.081"/>
<circle style="fill:#FFDB66;" cx="255.998" cy="328.124" r="24.049"/>
<circle style="fill:#59AD57;" cx="255.998" cy="432.335" r="40.081"/>
<circle style="fill:#7EC97D;" cx="255.998" cy="432.335" r="24.049"/>
<polygon style="fill:#F8C75F;" points="79.642,255.981 7.495,336.144 39.56,336.144 39.56,440.355 119.723,440.355 119.723,336.144   151.788,336.144 "/>
<polygon style="fill:#F09B24;" points="103.104,282.05 79.642,255.981 7.495,336.144 39.56,336.144 39.56,440.355 63.609,440.355   63.609,328.127 "/>
<polygon style="fill:#F8C75F;" points="432.356,7.478 360.21,87.64 392.275,87.64 392.275,440.355 472.437,440.355 472.437,87.64   504.502,87.64 "/>
<polygon style="fill:#F09B24;" points="455.818,33.547 432.356,7.478 360.21,87.64 392.275,87.64 392.275,440.355 416.323,440.355   416.323,79.624 "/>
<path d="M304.096,144.255h-96.195c-21.824,0-39.58,17.756-39.58,39.58V472.42c0,21.824,17.756,39.58,39.58,39.58h96.195  c21.824,0,39.58-17.756,39.58-39.58V293.056c0-4.15-3.364-7.515-7.515-7.515c-4.151,0-7.515,3.365-7.515,7.515V472.42  c0,13.536-11.012,24.55-24.55,24.55h-96.195c-13.537,0-24.55-11.013-24.55-24.55V183.835c0-13.536,11.012-24.55,24.55-24.55h96.195  c13.537,0,24.55,11.013,24.55,24.55v72.146c0,4.15,3.364,7.515,7.515,7.515c4.151,0,7.515-3.365,7.515-7.515v-72.146  C343.676,162.011,325.921,144.255,304.096,144.255z"/>
<path d="M255.999,176.32c-26.244,0-47.596,21.352-47.596,47.596s21.352,47.596,47.596,47.596s47.596-21.352,47.596-47.596  S282.244,176.32,255.999,176.32z M255.999,256.482c-17.957,0-32.566-14.61-32.566-32.566s14.609-32.566,32.566-32.566  s32.566,14.61,32.566,32.566S273.956,256.482,255.999,256.482z"/>
<path d="M255.999,280.531c-26.244,0-47.596,21.352-47.596,47.596s21.352,47.596,47.596,47.596s47.596-21.352,47.596-47.596  S282.244,280.531,255.999,280.531z M255.999,360.693c-17.957,0-32.566-14.61-32.566-32.566s14.609-32.566,32.566-32.566  s32.566,14.61,32.566,32.566S273.956,360.693,255.999,360.693z"/>
<path d="M255.999,384.742c-26.244,0-47.596,21.352-47.596,47.596s21.352,47.596,47.596,47.596s47.596-21.352,47.596-47.596  S282.244,384.742,255.999,384.742z M255.999,464.904c-17.957,0-32.566-14.61-32.566-32.566s14.609-32.566,32.566-32.566  s32.566,14.61,32.566,32.566S273.956,464.904,255.999,464.904z"/>
<path d="M85.229,250.954c-2.942-3.268-8.232-3.268-11.173,0L1.91,331.116c-4.27,4.746-0.777,12.542,5.586,12.542h24.55v96.696  c0,4.15,3.364,7.515,7.515,7.515h80.162c4.151,0,7.515-3.365,7.515-7.515v-96.696h24.55c6.363,0,9.857-7.796,5.586-12.542  L85.229,250.954z M119.723,328.628c-4.151,0-7.515,3.365-7.515,7.515v96.696H47.076v-96.696c0-4.15-3.364-7.515-7.515-7.515H24.37  l55.272-61.413l55.272,61.413H119.723z"/>
<path d="M119.723,464.904H39.56c-4.151,0-7.515,3.365-7.515,7.515c0,4.15,3.364,7.515,7.515,7.515h80.162  c4.151,0,7.515-3.365,7.515-7.515C127.238,468.269,123.874,464.904,119.723,464.904z"/>
<path d="M119.723,496.969H39.56c-4.151,0-7.515,3.365-7.515,7.515c0,4.15,3.364,7.515,7.515,7.515h80.162  c4.151,0,7.515-3.365,7.515-7.515C127.238,500.334,123.874,496.969,119.723,496.969z"/>
<path d="M510.089,82.613L437.943,2.451c-2.942-3.268-8.232-3.268-11.173,0l-72.146,80.162c-4.27,4.746-0.777,12.542,5.586,12.542  h24.55v345.199c0,4.15,3.364,7.515,7.515,7.515h80.162c4.151,0,7.515-3.365,7.515-7.515V95.155h24.55  C510.865,95.155,514.36,87.36,510.089,82.613z M472.437,80.125c-4.151,0-7.515,3.365-7.515,7.515v345.199H399.79V87.64  c0-4.15-3.364-7.515-7.515-7.515h-15.191l55.272-61.413l55.272,61.413L472.437,80.125L472.437,80.125z"/>
<path d="M472.437,464.904h-80.162c-4.151,0-7.515,3.365-7.515,7.515c0,4.15,3.364,7.515,7.515,7.515h80.162  c4.151,0,7.515-3.365,7.515-7.515C479.952,468.269,476.589,464.904,472.437,464.904z"/>
<path d="M472.437,496.969h-80.162c-4.151,0-7.515,3.365-7.515,7.515c0,4.15,3.364,7.515,7.515,7.515h80.162  c4.151,0,7.515-3.365,7.515-7.515C479.952,500.334,476.589,496.969,472.437,496.969z"/>
<g>
</g>
<g>
</g>
<g>
</g>
<g>
</g>
<g>
</g>
<g>
</g>
<g>
</g>
<g>
</g>
<g>
</g>
<g>
</g>
<g>
</g>
<g>
</g>
<g>
</g>
<g>
</g>
<g>
</g>
</svg>
