<?xml version="1.0" encoding="iso-8859-1"?>
<!-- Generator: Adobe Illustrator 19.0.0, SVG Export Plug-In . SVG Version: 6.00 Build 0)  -->
<svg xmlns="http://www.w3.org/2000/svg" xmlns:xlink="http://www.w3.org/1999/xlink" version="1.1" id="Capa_1" x="0px" y="0px" viewBox="0 0 512 512" style="enable-background:new 0 0 512 512;" xml:space="preserve">
<polygon style="fill:#FFDB66;" points="135.765,71.64 135.765,7.515 7.515,7.515 7.515,384.25 504.485,384.25 504.485,71.64 "/>
<g>
	<polygon style="fill:#F7C14D;" points="39.577,352.188 39.577,7.515 7.515,7.515 7.515,384.25 504.485,384.25 504.485,352.188  "/>
	<rect x="312.11" y="31.562" style="fill:#F7C14D;" width="128.25" height="40.078"/>
</g>
<g>
	<circle style="fill:#F09B24;" cx="256" cy="151.796" r="48.094"/>
	<path style="fill:#F09B24;" d="M328.141,352.188H183.859V247.984c0-17.708,14.355-32.063,32.063-32.063h80.157   c17.708,0,32.063,14.355,32.063,32.063V352.188z"/>
</g>
<g>
	<polygon style="fill:#FFDB66;" points="264.016,239.969 247.984,239.969 239.969,215.922 272.031,215.922  "/>
	<polygon style="fill:#FFDB66;" points="272.031,312.11 256,328.141 239.969,312.11 247.984,239.969 264.016,239.969  "/>
</g>
<circle style="fill:#A1ABB8;" cx="352.188" cy="392.266" r="112.219"/>
<path style="fill:#8E9AA9;" d="M376.235,488.454c-61.977,0-112.219-50.242-112.219-112.219c0-33.77,14.919-64.053,38.523-84.626  c-37.071,18.321-62.57,56.508-62.57,100.658c0,61.977,50.242,112.219,112.219,112.219c28.207,0,53.98-10.409,73.696-27.593  C410.915,484.29,394.063,488.454,376.235,488.454z"/>
<polygon style="fill:#DB6B5E;" points="416.313,376.235 368.219,376.235 368.219,328.141 336.157,328.141 336.157,376.235   288.063,376.235 288.063,408.297 336.157,408.297 336.157,456.391 368.219,456.391 368.219,408.297 416.313,408.297 "/>
<path d="M504.485,64.125h-56.611V31.562c0-4.15-3.365-7.515-7.515-7.515H312.11c-4.15,0-7.515,3.365-7.515,7.515v32.564H143.28  V7.515c0-4.15-3.365-7.515-7.515-7.515H7.515C3.365,0,0,3.365,0,7.515V384.25c0,4.15,3.365,7.515,7.515,7.515H232.46  c-0.001,0.167-0.006,0.334-0.006,0.501c0,66.022,53.712,119.734,119.734,119.734s119.734-53.712,119.734-119.734  c0-0.167-0.005-0.334-0.006-0.501h32.57c4.15,0,7.515-3.365,7.515-7.515V71.64C512,67.49,508.635,64.125,504.485,64.125z   M319.624,39.076h113.221v25.049H319.624V39.076z M234.552,223.436l5.781,17.343L232.5,311.28c-0.251,2.268,0.541,4.53,2.155,6.143  l14.283,14.283c-2.455,4.168-4.663,8.498-6.607,12.967h-50.958v-96.689c0-13.535,11.012-24.548,24.548-24.548H234.552z   M296.078,223.436c13.535,0,24.548,11.012,24.548,24.548v28.778c-15.704,4.296-30.132,11.711-42.568,21.543l-6.391-57.526  l5.781-17.343L296.078,223.436L296.078,223.436z M257.525,319.039l-9.689-9.689l6.874-61.867h2.579l7.057,63.512  C261.959,313.574,259.682,316.258,257.525,319.039z M258.599,232.454h-5.198l-3.006-9.018h11.21L258.599,232.454z M496.971,376.736  h-26.064c-3.021-23.101-12.729-44.943-28.089-62.719c-2.713-3.139-7.458-3.487-10.6-0.772c-3.14,2.713-3.486,7.459-0.773,10.6  c16.409,18.99,25.447,43.29,25.447,68.422c0,57.735-46.97,104.704-104.704,104.704s-104.704-46.97-104.704-104.704  s46.97-104.704,104.704-104.704c18.916,0,37.448,5.096,53.594,14.737c3.564,2.127,8.177,0.963,10.305-2.6  c2.128-3.563,0.964-8.177-2.6-10.304c-18.474-11.032-39.672-16.862-61.299-16.862c-5.609,0-11.127,0.397-16.532,1.147v-25.695  c0-21.823-17.755-39.577-39.577-39.577h-80.157c-21.823,0-39.577,17.755-39.577,39.577v104.204c0,4.15,3.365,7.515,7.515,7.515  h53.097c-1.564,5.527-2.738,11.215-3.496,17.033H15.029V15.029H128.25V71.64c0,4.15,3.365,7.515,7.515,7.515h361.205V376.736z"/>
<path d="M256,96.188c-30.663,0-55.609,24.946-55.609,55.609s24.946,55.609,55.609,55.609s55.609-24.946,55.609-55.609  S286.663,96.188,256,96.188z M256,192.376c-22.376,0-40.579-18.204-40.579-40.579s18.204-40.579,40.579-40.579  s40.579,18.204,40.579,40.579S278.376,192.376,256,192.376z"/>
<path d="M416.313,368.72h-40.579v-40.579c0-4.15-3.365-7.515-7.515-7.515h-32.063c-4.15,0-7.515,3.365-7.515,7.515v40.579h-40.579  c-4.15,0-7.515,3.365-7.515,7.515v32.063c0,4.15,3.365,7.515,7.515,7.515h40.579v40.579c0,4.15,3.365,7.515,7.515,7.515h32.063  c4.15,0,7.515-3.365,7.515-7.515v-40.579h40.579c4.15,0,7.515-3.365,7.515-7.515v-32.063  C423.828,372.085,420.463,368.72,416.313,368.72z M408.798,400.783h-40.579c-4.15,0-7.515,3.365-7.515,7.515v40.579h-17.033v-40.579  c0-4.15-3.365-7.515-7.515-7.515h-40.579V383.75h40.579c4.15,0,7.515-3.365,7.515-7.515v-40.579h17.033v40.579  c0,4.15,3.365,7.515,7.515,7.515h40.579V400.783z"/>
<g>
</g>
<g>
</g>
<g>
</g>
<g>
</g>
<g>
</g>
<g>
</g>
<g>
</g>
<g>
</g>
<g>
</g>
<g>
</g>
<g>
</g>
<g>
</g>
<g>
</g>
<g>
</g>
<g>
</g>
</svg>
