<?xml version="1.0" encoding="iso-8859-1"?>
<!-- Generator: Adobe Illustrator 19.0.0, SVG Export Plug-In . SVG Version: 6.00 Build 0)  -->
<svg xmlns="http://www.w3.org/2000/svg" xmlns:xlink="http://www.w3.org/1999/xlink" version="1.1" id="Capa_1" x="0px" y="0px" viewBox="0 0 512 512" style="enable-background:new 0 0 512 512;" xml:space="preserve">
<circle style="fill:#7C899B;" cx="256" cy="256" r="248.485"/>
<circle style="fill:#69788D;" cx="256" cy="256" r="224.438"/>
<circle style="fill:#C7CCD4;" cx="256" cy="256" r="208.407"/>
<circle style="fill:#ECEEF1;" cx="256" cy="256" r="184.36"/>
<path style="fill:#FF8C78;" d="M256,376.235c-66.404,0-120.235-53.831-120.235-120.235S189.596,135.765,256,135.765  c66.069,0,119.683,53.291,120.222,119.233H416.3C415.76,166.922,344.203,95.687,256,95.687  c-88.538,0-160.313,71.774-160.313,160.313c0,88.538,71.775,160.313,160.313,160.313c0.111,0,0.222-0.004,0.334-0.004v-40.078  C256.222,376.231,256.111,376.235,256,376.235z"/>
<path style="fill:#F09B24;" d="M95.687,256c0,88.538,71.775,160.313,160.313,160.313c0.111,0,0.222-0.004,0.334-0.004v-40.078  c-0.111,0-0.222,0.004-0.334,0.004c-66.404,0-120.235-53.831-120.235-120.235c0-0.167,0.006-0.334,0.006-0.501H95.693  C95.693,255.666,95.687,255.833,95.687,256z"/>
<path style="fill:#DB6B5E;" d="M257.002,95.7v40.078c65.607,0.537,118.684,53.613,119.22,119.22H416.3  C415.762,167.257,344.743,96.238,257.002,95.7z"/>
<polygon style="fill:#69788D;" points="262.942,260.008 289.922,229.307 304.094,172.699 262.156,213.276 249.058,251.992 "/>
<circle style="fill:#F9CE70;" cx="256" cy="256" r="24.047"/>
<circle style="fill:#F3AF50;" cx="256" cy="256" r="8.016"/>
<path d="M437.02,74.98C388.667,26.629,324.381,0,256,0S123.333,26.629,74.98,74.98C26.628,123.333,0,187.619,0,256  s26.628,132.667,74.98,181.02C123.333,485.371,187.619,512,256,512s132.667-26.629,181.02-74.98  C485.372,388.667,512,324.381,512,256S485.372,123.333,437.02,74.98z M256,496.971C123.128,496.971,15.029,388.872,15.029,256  S123.128,15.029,256,15.029S496.971,123.128,496.971,256S388.872,496.971,256,496.971z"/>
<path d="M453.873,169.45c-11.567-26.407-28.064-49.917-49.034-69.876c-3.008-2.862-7.763-2.743-10.625,0.263  c-2.861,3.006-2.743,7.763,0.262,10.625c40.249,38.308,62.415,89.995,62.415,145.539c0,110.772-90.12,200.892-200.892,200.892  S55.108,366.772,55.108,256S145.228,55.108,256,55.108c38.933,0,76.696,11.15,109.202,32.244c3.481,2.258,8.135,1.268,10.395-2.213  c2.258-3.482,1.268-8.135-2.213-10.394C338.435,52.066,297.845,40.078,256,40.078c-57.675,0-111.898,22.46-152.68,63.243  C62.538,144.102,40.078,198.325,40.078,256s22.46,111.898,63.242,152.679c40.783,40.783,95.006,63.243,152.68,63.243  s111.898-22.46,152.68-63.243c40.782-40.782,63.242-95.005,63.242-152.679C471.922,225.911,465.849,196.792,453.873,169.45z"/>
<path d="M421.63,260.295c1.411-1.42,2.196-3.343,2.185-5.343c-0.274-44.609-17.85-86.504-49.493-117.966  C342.666,105.508,300.645,88.172,256,88.172c-92.54,0-167.828,75.287-167.828,167.828S163.46,423.828,256,423.828l0.334-0.004  c4.151,0,7.515-3.365,7.515-7.515v-40.078c0-4.15-3.364-7.515-7.515-7.515l-0.347,0.004C193.839,368.714,143.28,318.15,143.28,256  c0-62.154,50.567-112.72,112.72-112.72c61.642,0,112.203,50.144,112.707,111.78c0.034,4.126,3.389,7.453,7.515,7.453H416.3  C418.301,262.513,420.22,261.715,421.63,260.295z M383.463,247.483c-2.037-31.091-15.186-60.033-37.484-82.163  C321.892,141.415,289.937,128.25,256,128.25c-70.442,0-127.75,57.308-127.75,127.75c0,68.034,53.452,123.816,120.568,127.55v25.082  C167.886,404.87,103.202,337.847,103.202,256c0-84.254,68.545-152.798,152.798-152.798c81.198,0,148.108,64.053,152.554,144.282  H383.463z"/>
<path d="M297.212,231.131l14.172-56.609c0.793-3.166-0.612-6.57-3.406-8.256c-2.885-1.741-6.686-1.315-9.109,1.031l-41.938,40.577  c-0.861,0.833-1.51,1.859-1.894,2.993l-4.77,14.103c-14.676,2.705-25.829,15.584-25.829,31.03c0,17.403,14.159,31.562,31.562,31.562  s31.562-14.159,31.562-31.562c0-3.699-0.645-7.25-1.821-10.552l9.826-11.181C296.358,233.368,296.922,232.293,297.212,231.131z   M256,272.532c-9.116,0-16.532-7.417-16.532-16.532c0-9.116,7.416-16.532,16.532-16.532s16.532,7.416,16.532,16.532  S265.116,272.532,256,272.532z M283.075,225.714l-5.995,6.821c-3.234-2.909-7.071-5.155-11.296-6.537l2.906-8.589l21.727-21.021  L283.075,225.714z"/>
<path d="M330.842,330.843c-2.935,2.935-2.935,7.693,0,10.627l32.063,32.063c3.057,3.056,8.217,2.851,11.028-0.431  c2.518-2.941,2.337-7.461-0.399-10.196l-32.063-32.063C338.535,327.908,333.778,327.908,330.842,330.843z"/>
<path d="M303.217,407.701c1.474,4.051,6.216,6.052,10.152,4.28c3.539-1.593,5.298-5.775,3.972-9.42l-15.508-42.609  c-1.42-3.899-5.73-5.915-9.632-4.492c-3.9,1.42-5.911,5.732-4.491,9.632L303.217,407.701z"/>
<path d="M405.13,317.796c3.683,0,6.896-2.781,7.436-6.422c0.517-3.486-1.556-6.952-4.865-8.156l-42.608-15.508  c-3.906-1.421-8.213,0.592-9.632,4.492c-1.42,3.9,0.592,8.212,4.491,9.632l42.608,15.508  C403.41,317.649,404.277,317.796,405.13,317.796z"/>
<g>
</g>
<g>
</g>
<g>
</g>
<g>
</g>
<g>
</g>
<g>
</g>
<g>
</g>
<g>
</g>
<g>
</g>
<g>
</g>
<g>
</g>
<g>
</g>
<g>
</g>
<g>
</g>
<g>
</g>
</svg>
