<?xml version="1.0" encoding="iso-8859-1"?>
<!-- Generator: Adobe Illustrator 19.0.0, SVG Export Plug-In . SVG Version: 6.00 Build 0)  -->
<svg xmlns="http://www.w3.org/2000/svg" xmlns:xlink="http://www.w3.org/1999/xlink" version="1.1" id="Capa_1" x="0px" y="0px" viewBox="0 0 512 512" style="enable-background:new 0 0 512 512;" xml:space="preserve">
<circle style="fill:#3CBDE8;" cx="256" cy="191.875" r="184.36"/>
<path style="fill:#2C9DD4;" d="M280.047,352.188c-101.819,0-184.36-82.541-184.36-184.36c0-44.786,15.975-85.839,42.531-117.782  C97.542,83.864,71.64,134.842,71.64,191.875c0,101.819,82.541,184.36,184.36,184.36c57.032,0,108.011-25.902,141.829-66.578  C365.886,336.213,324.833,352.188,280.047,352.188z"/>
<circle style="fill:#F7C14D;" cx="256" cy="480.438" r="24.047"/>
<circle style="fill:#FFDB66;" cx="256" cy="480.438" r="8.016"/>
<path d="M504.485,472.924H288.063c-0.473,0-0.933,0.049-1.382,0.132c-2.752-11.438-11.746-20.467-23.166-23.268V384.25  c0-0.223-0.014-0.443-0.033-0.66c102.345-3.946,184.393-88.422,184.393-191.715c0-53.834-22.828-105.525-62.63-141.819  c-3.066-2.795-7.819-2.577-10.617,0.49c-2.796,3.067-2.577,7.819,0.489,10.616c13.777,12.563,25.347,27.125,34.424,43.042h-39.769  c-5.802-17.023-13.33-32.798-22.459-46.796c-7.397-11.343-15.576-21.117-24.359-29.229c8.735,3.571,17.205,7.829,25.305,12.794  c3.539,2.168,8.165,1.057,10.333-2.482c2.169-3.539,1.058-8.165-2.481-10.333C326.052,9.737,291.432,0,256,0  C150.199,0,64.125,86.075,64.125,191.875c0,103.294,82.048,187.77,184.393,191.715c-0.019,0.218-0.033,0.438-0.033,0.66v65.537  c-11.376,2.789-20.346,11.76-23.136,23.136H7.515c-4.151,0-7.515,3.365-7.515,7.515s3.364,7.515,7.515,7.515h217.834  C228.73,501.739,241.186,512,256,512c14.861,0,27.347-10.327,30.681-24.179c0.449,0.083,0.909,0.132,1.382,0.132h216.423  c4.151,0,7.515-3.365,7.515-7.515S508.636,472.924,504.485,472.924z M94.796,264.574c-9.069-20.029-14.498-42.04-15.471-65.184  h49.03c0.574,22.656,3.734,44.633,9.28,65.127H95.687C95.384,264.517,95.089,264.54,94.796,264.574z M94.796,119.176  c0.293,0.034,0.588,0.057,0.891,0.057h41.948c-5.545,20.494-8.705,42.471-9.28,65.127h-49.03  C80.298,161.216,85.727,139.205,94.796,119.176z M288.486,63.7c3.705,12.177,6.814,25.808,9.284,40.503h-83.541  c2.47-14.695,5.579-28.326,9.284-40.503C234.436,27.815,247.456,15.029,256,15.029C264.544,15.029,277.564,27.815,288.486,63.7z   M432.675,199.389c-0.973,23.144-6.402,45.155-15.47,65.184c-0.293-0.035-0.589-0.057-0.891-0.057h-41.948  c5.545-20.494,8.705-42.471,9.28-65.127H432.675z M358.771,264.517h-43.71c2.712-20.962,4.229-43.127,4.512-65.127h49.04  C368.006,222.187,364.647,244.202,358.771,264.517z M223.514,320.049c-3.705-12.177-6.814-25.808-9.284-40.503h83.541  c-2.47,14.695-5.579,28.326-9.284,40.503C277.564,355.934,264.544,368.72,256,368.72S234.436,355.934,223.514,320.049z   M211.975,264.517c-2.698-20.352-4.241-42.355-4.52-65.127h97.091c-0.279,22.772-1.822,44.775-4.52,65.127H211.975z   M286.637,362.046c11.923-18.897,20.737-48.541,26.238-82.5h40.975c-5.135,13.977-11.54,26.955-19.124,38.586  C321.012,339.157,304.522,354.084,286.637,362.046z M319.572,184.36c-0.283-22-1.8-44.165-4.512-65.127h43.71  c5.876,20.315,9.235,42.33,9.842,65.127H319.572z M304.545,184.36h-97.09c0.279-22.772,1.822-44.775,4.52-65.127h88.05  C302.723,139.585,304.266,161.588,304.545,184.36z M225.363,21.703c-11.923,18.897-20.736,48.541-26.238,82.5H158.15  c5.135-13.977,11.54-26.955,19.124-38.586C190.988,44.592,207.478,29.666,225.363,21.703z M196.939,119.233  c-2.712,20.962-4.229,43.127-4.512,65.127h-49.04c0.607-22.798,3.966-44.813,9.842-65.127H196.939z M143.387,199.389h49.04  c0.283,22,1.8,44.165,4.512,65.127h-43.709C147.353,244.202,143.994,222.187,143.387,199.389z M199.125,279.546  c5.502,33.959,14.315,63.603,26.238,82.5c-17.885-7.964-34.376-22.889-48.089-43.914c-7.586-11.632-13.989-24.609-19.124-38.586  H199.125z M323.007,355.522c8.762-8.103,16.923-17.86,24.306-29.181c9.129-13.998,16.657-29.773,22.459-46.796h39.769  C390.048,313.552,359.58,340.492,323.007,355.522z M416.313,119.233c0.286,0,0.566-0.019,0.844-0.05  c9.199,20.394,14.542,42.511,15.513,65.177h-49.025c-0.574-22.656-3.734-44.633-9.28-65.127H416.313z M334.725,65.617  c7.586,11.632,13.989,24.609,19.124,38.586h-40.975c-5.502-33.959-14.315-63.603-26.238-82.5  C304.522,29.666,321.012,44.592,334.725,65.617z M188.993,28.227c-8.762,8.103-16.923,17.86-24.306,29.181  c-9.129,13.997-16.657,29.772-22.459,46.795h-39.769C121.952,70.197,152.42,43.257,188.993,28.227z M102.459,279.546h39.769  c5.802,17.023,13.33,32.798,22.459,46.796c7.383,11.321,15.544,21.078,24.306,29.181  C152.42,340.492,121.952,313.552,102.459,279.546z M256,496.971c-9.116,0-16.532-7.417-16.532-16.532s7.416-16.532,16.532-16.532  s16.532,7.417,16.532,16.532S265.116,496.971,256,496.971z"/>
<g>
</g>
<g>
</g>
<g>
</g>
<g>
</g>
<g>
</g>
<g>
</g>
<g>
</g>
<g>
</g>
<g>
</g>
<g>
</g>
<g>
</g>
<g>
</g>
<g>
</g>
<g>
</g>
<g>
</g>
</svg>
