<?xml version="1.0" encoding="iso-8859-1"?>
<!-- Generator: Adobe Illustrator 19.0.0, SVG Export Plug-In . SVG Version: 6.00 Build 0)  -->
<svg xmlns="http://www.w3.org/2000/svg" xmlns:xlink="http://www.w3.org/1999/xlink" version="1.1" id="Capa_1" x="0px" y="0px" viewBox="0 0 512.001 512.001" style="enable-background:new 0 0 512.001 512.001;" xml:space="preserve">
<polygon style="fill:#F7C14D;" points="95.687,39.577 95.687,7.515 23.546,7.515 23.546,167.828 199.891,167.828 199.891,39.577 "/>
<polygon style="fill:#F09B24;" points="47.593,143.781 47.593,7.515 23.546,7.515 23.546,167.828 199.891,167.828 199.891,143.781   "/>
<g>
	<circle style="fill:#3CBDE8;" cx="256" cy="191.875" r="16.031"/>
	<circle style="fill:#3CBDE8;" cx="256" cy="424.329" r="16.031"/>
</g>
<polygon style="fill:#FFDB66;" points="384.251,135.765 384.251,103.703 312.11,103.703 312.11,264.016 488.454,264.016   488.454,135.765 "/>
<polygon style="fill:#F7C14D;" points="336.157,239.969 336.157,103.703 312.11,103.703 312.11,264.016 488.454,264.016   488.454,239.969 "/>
<polygon style="fill:#FFDB66;" points="384.251,376.235 384.251,344.172 312.11,344.172 312.11,504.485 488.454,504.485   488.454,376.235 "/>
<polygon style="fill:#F7C14D;" points="336.157,480.438 336.157,344.172 312.11,344.172 312.11,504.485 488.454,504.485   488.454,480.438 "/>
<path d="M312.11,271.53h176.344c4.15,0,7.515-3.365,7.515-7.515v-128.25c0-4.15-3.365-7.515-7.515-7.515h-96.689v-24.548  c0-4.15-3.365-7.515-7.515-7.515H312.11c-4.15,0-7.515,3.365-7.515,7.515v80.658H278.31c-2.347-6.947-7.847-12.448-14.795-14.795  v-65.863c0-4.15-3.365-7.515-7.515-7.515h-48.595V39.577c0-4.15-3.365-7.515-7.515-7.515h-96.689V7.515  c0-4.15-3.365-7.515-7.515-7.515H23.546c-4.15,0-7.515,3.365-7.515,7.515v160.313c0,4.15,3.365,7.515,7.515,7.515h99.862  c4.15,0,7.515-3.365,7.515-7.515s-3.365-7.515-7.515-7.515H31.061V15.029h57.112v24.548c0,4.15,3.365,7.515,7.515,7.515h96.689  v113.221h-32.23c-4.15,0-7.515,3.365-7.515,7.515s3.365,7.515,7.515,7.515h39.745c4.15,0,7.515-3.365,7.515-7.515v-56.611h41.08  v58.348c-9.308,3.144-16.031,11.953-16.031,22.31c0,10.356,6.723,19.165,16.031,22.31V402.02  c-9.308,3.144-16.031,11.953-16.031,22.31c0,12.983,10.563,23.546,23.546,23.546c10.356,0,19.165-6.723,22.31-16.031h26.285v72.642  c0,4.15,3.365,7.515,7.515,7.515h176.344c4.15,0,7.515-3.365,7.515-7.515v-128.25c0-4.15-3.365-7.515-7.515-7.515h-96.689v-24.548  c0-4.15-3.365-7.515-7.515-7.515H312.11c-4.15,0-7.515,3.365-7.515,7.515v72.641H278.31c-2.347-6.947-7.847-12.448-14.795-14.795  V214.184c6.947-2.347,12.448-7.848,14.795-14.795h26.285v64.626C304.595,268.166,307.96,271.53,312.11,271.53z M319.625,351.687  h57.112v24.548c0,4.15,3.365,7.515,7.515,7.515h96.689v113.221H319.625V351.687z M256,432.845c-4.696,0-8.517-3.82-8.517-8.517  c0-4.694,3.817-8.514,8.512-8.517c0.002,0,0.003,0,0.005,0c0.002,0,0.003,0,0.005,0c4.694,0.003,8.512,3.821,8.512,8.517  C264.517,429.025,260.697,432.845,256,432.845z M256.006,200.391c-0.002,0-0.003,0-0.005,0c-0.002,0-0.003,0-0.005,0  c-4.694-0.003-8.512-3.821-8.512-8.517c0-4.696,3.82-8.517,8.517-8.517c4.696,0,8.517,3.82,8.517,8.517  C264.517,196.569,260.7,200.388,256.006,200.391z M319.625,111.217h57.112v24.548c0,4.15,3.365,7.515,7.515,7.515h96.689v113.221  H319.625V111.217z"/>
<g>
</g>
<g>
</g>
<g>
</g>
<g>
</g>
<g>
</g>
<g>
</g>
<g>
</g>
<g>
</g>
<g>
</g>
<g>
</g>
<g>
</g>
<g>
</g>
<g>
</g>
<g>
</g>
<g>
</g>
</svg>
