<?xml version="1.0" encoding="iso-8859-1"?>
<!-- Generator: Adobe Illustrator 19.0.0, SVG Export Plug-In . SVG Version: 6.00 Build 0)  -->
<svg xmlns="http://www.w3.org/2000/svg" xmlns:xlink="http://www.w3.org/1999/xlink" version="1.1" id="Capa_1" x="0px" y="0px" viewBox="0 0 512 512" style="enable-background:new 0 0 512 512;" xml:space="preserve">
<path style="fill:#7CD9F2;" d="M400.282,227.945c-17.459,0-33.912,4.3-48.366,11.889c5.349-13.615,8.288-28.44,8.288-43.952  c0-66.404-53.831-120.235-120.235-120.235s-120.235,53.831-120.235,120.235c0,0.091,0.003,0.181,0.003,0.273  C57.07,200.279,7.515,252.407,7.515,316.117c0,66.404,53.831,120.235,120.235,120.235h272.532  c57.55,0,104.204-46.653,104.204-104.204S457.832,227.945,400.282,227.945z"/>
<path style="fill:#3CBDE8;" d="M416.313,404.29H143.781c-66.404,0-120.235-53.831-120.235-120.235  c0-12.932,2.042-25.389,5.821-37.061c-13.766,19.553-21.853,43.393-21.853,69.124c0,66.404,53.831,120.235,120.235,120.235h272.532  c47.181,0,87.031-31.359,99.862-74.37C481.163,387.646,450.683,404.29,416.313,404.29z"/>
<path style="fill:#FFDB66;" d="M247.984,332.149v-32.063l-27.303-5.461c-1.303-4.178-2.989-8.185-4.992-11.999l15.458-23.188  l-22.671-22.671l-23.188,15.458c-3.814-2.004-7.821-3.689-11.999-4.992l-5.461-27.303h-32.063l-5.461,27.303  c-4.178,1.303-8.185,2.988-11.999,4.992l-23.188-15.458l-22.671,22.671l15.458,23.188c-2.004,3.814-3.689,7.821-4.992,11.999  l-27.303,5.461v32.063l27.303,5.461c1.303,4.178,2.988,8.185,4.992,11.999l-15.458,23.188l22.671,22.671l23.188-15.458  c3.814,2.004,7.821,3.689,11.999,4.992l5.461,27.303h32.063l5.461-27.303c4.178-1.303,8.185-2.988,11.999-4.992l23.188,15.458  l22.671-22.671l-15.458-23.188c2.004-3.814,3.689-7.821,4.992-11.999L247.984,332.149z M151.796,348.18  c-17.708,0-32.063-14.355-32.063-32.063c0-17.708,14.355-32.063,32.063-32.063s32.063,14.355,32.063,32.063  C183.859,333.825,169.504,348.18,151.796,348.18z"/>
<path style="fill:#F7C14D;" d="M151.796,260.008c-30.989,0-56.11,25.121-56.11,56.11s25.121,56.11,56.11,56.11  s56.11-25.121,56.11-56.11S182.785,260.008,151.796,260.008z M151.796,348.18c-17.708,0-32.063-14.355-32.063-32.063  c0-17.708,14.355-32.063,32.063-32.063s32.063,14.355,32.063,32.063C183.859,333.825,169.504,348.18,151.796,348.18z"/>
<path style="fill:#A1ABB8;" d="M344.172,308.102v64.125c0,8.854,21.532,16.031,48.094,16.031s48.094-7.177,48.094-16.031v-64.125  H344.172z"/>
<path style="fill:#8E9AA9;" d="M368.219,372.227v-64.125h-24.047v64.125c0,8.854,21.532,16.031,48.094,16.031  c4.152,0,8.181-0.175,12.023-0.505C383.546,385.974,368.219,379.697,368.219,372.227z"/>
<ellipse style="fill:#D9DDE2;" cx="392.266" cy="308.102" rx="48.094" ry="16.031"/>
<path style="fill:#A1ABB8;" d="M207.906,131.757v64.125c0,8.854,21.532,16.031,48.094,16.031s48.094-7.177,48.094-16.031v-64.125  H207.906z"/>
<path style="fill:#8E9AA9;" d="M231.953,195.883v-64.125h-24.047v64.125c0,8.854,21.532,16.031,48.094,16.031  c4.152,0,8.181-0.175,12.023-0.505C247.28,209.629,231.953,203.352,231.953,195.883z"/>
<ellipse style="fill:#D9DDE2;" cx="256" cy="131.757" rx="48.094" ry="16.031"/>
<path d="M400.282,220.431c-12.339,0-24.627,2.063-36.247,6.036c2.448-9.949,3.683-20.183,3.683-30.584  c0-70.442-57.308-127.75-127.75-127.75c-68.231,0-124.14,53.769-127.582,121.16C48.829,196.926,0,251.353,0,316.117  c0,70.442,57.308,127.75,127.75,127.75h188.702c4.15,0,7.515-3.365,7.515-7.515c0-4.15-3.365-7.515-7.515-7.515H127.75  c-62.154,0-112.72-50.566-112.72-112.72c0-59.182,46.21-108.582,105.201-112.465c3.95-0.26,7.021-3.54,7.021-7.499l-0.003-0.272  c0-62.154,50.566-112.72,112.72-112.72s112.72,50.566,112.72,112.72c0,14.223-2.613,28.086-7.768,41.204  c-2.488,6.332,4.455,12.569,10.487,9.401c13.742-7.215,29.259-11.029,44.874-11.029c53.314,0,96.689,43.375,96.689,96.689  s-43.375,96.689-96.689,96.689h-48.094c-4.15,0-7.515,3.365-7.515,7.515c0,4.15,3.365,7.515,7.515,7.515h48.094  C461.883,443.867,512,393.75,512,332.149S461.883,220.431,400.282,220.431z"/>
<path d="M151.796,276.54c-21.823,0-39.577,17.755-39.577,39.577c0,21.823,17.755,39.577,39.577,39.577s39.577-17.755,39.577-39.577  C191.374,294.295,173.619,276.54,151.796,276.54z M151.796,340.665c-13.535,0-24.548-11.012-24.548-24.548  c0-13.535,11.012-24.548,24.548-24.548c13.535,0,24.548,11.013,24.548,24.548C176.344,329.653,165.332,340.665,151.796,340.665z"/>
<path d="M249.458,339.517c3.513-0.702,6.041-3.786,6.041-7.368v-32.063c0-3.582-2.528-6.666-6.041-7.368l-23.081-4.616  c-0.622-1.647-1.303-3.282-2.041-4.9l13.064-19.595c1.987-2.981,1.594-6.95-0.939-9.482l-22.671-22.671  c-2.533-2.533-6.502-2.926-9.482-0.939l-19.595,13.064c-1.617-0.737-3.253-1.419-4.901-2.041l-4.616-23.081  c-0.702-3.513-3.786-6.041-7.368-6.041h-32.063c-3.582,0-6.666,2.528-7.368,6.041l-4.616,23.081c-1.647,0.622-3.282,1.303-4.9,2.041  l-19.595-13.064c-2.98-1.987-6.949-1.594-9.482,0.939l-22.671,22.671c-2.533,2.533-2.926,6.502-0.939,9.482l13.064,19.595  c-0.737,1.617-1.419,3.252-2.041,4.9l-23.081,4.616c-3.514,0.702-6.042,3.786-6.042,7.368v32.063c0,3.582,2.528,6.666,6.041,7.368  l23.081,4.616c0.622,1.647,1.303,3.282,2.041,4.901l-13.064,19.595c-1.987,2.981-1.594,6.95,0.939,9.482l22.671,22.671  c2.533,2.533,6.501,2.926,9.482,0.939l19.595-13.064c1.617,0.737,3.252,1.419,4.9,2.041l4.616,23.081  c0.702,3.513,3.786,6.041,7.368,6.041h32.063c3.582,0,6.666-2.528,7.368-6.041l4.616-23.081c1.647-0.622,3.282-1.303,4.901-2.041  l19.595,13.064c2.981,1.987,6.95,1.595,9.482-0.939l22.673-22.671c2.533-2.533,2.926-6.502,0.939-9.482l-13.064-19.595  c0.737-1.618,1.419-3.253,2.041-4.901L249.458,339.517z M209.436,353.777l12.042,18.062l-13.959,13.959l-18.062-12.042  c-2.288-1.526-5.228-1.679-7.663-0.4c-3.487,1.832-7.101,3.336-10.741,4.47c-2.625,0.818-4.594,3.005-5.133,5.7l-4.251,21.263  h-19.742l-4.252-21.263c-0.539-2.696-2.508-4.883-5.133-5.7c-3.64-1.134-7.254-2.639-10.741-4.47  c-2.437-1.281-5.375-1.126-7.663,0.4l-18.062,12.042L82.115,371.84l12.042-18.062c1.526-2.288,1.679-5.228,0.4-7.663  c-1.832-3.487-3.336-7.101-4.47-10.741c-0.818-2.625-3.005-4.594-5.7-5.133l-21.264-4.252v-19.742l21.263-4.252  c2.696-0.539,4.883-2.508,5.7-5.133c1.134-3.64,2.639-7.254,4.47-10.741c1.28-2.435,1.126-5.375-0.4-7.663l-12.042-18.062  l13.959-13.959l18.062,12.042c2.287,1.526,5.228,1.679,7.663,0.4c3.487-1.832,7.1-3.336,10.741-4.47  c2.625-0.818,4.593-3.005,5.133-5.7l4.252-21.264h19.742l4.252,21.263c0.539,2.696,2.508,4.883,5.133,5.7  c3.64,1.134,7.254,2.638,10.741,4.47c2.436,1.28,5.374,1.125,7.663-0.4l18.062-12.042l13.959,13.959l-12.042,18.062  c-1.526,2.288-1.679,5.227-0.4,7.663c1.832,3.487,3.335,7.1,4.47,10.741c0.818,2.625,3.005,4.593,5.7,5.133l21.264,4.252v19.742  l-21.263,4.252c-2.696,0.539-4.883,2.508-5.7,5.133c-1.134,3.64-2.638,7.254-4.47,10.741  C207.757,348.55,207.91,351.488,209.436,353.777z"/>
<path d="M447.875,372.227v-64.125c0-0.269-0.015-0.534-0.043-0.797c-0.904-15.702-28.345-22.749-55.566-22.749  s-54.662,7.048-55.566,22.749c-0.028,0.262-0.043,0.527-0.043,0.797v32.564h-32.564c-4.15,0-7.515,3.365-7.515,7.515  c0,4.15,3.365,7.515,7.515,7.515h32.564v16.532c0,16.265,27.93,23.546,55.609,23.546  C419.945,395.773,447.875,388.492,447.875,372.227z M351.687,325.02c10.653,4.505,25.648,6.628,40.579,6.628  s29.926-2.123,40.579-6.628v14.648c-2.063,2.829-15.827,9.014-40.579,9.014s-38.516-6.185-40.579-9.014V325.02z M392.266,299.585  c23.386,0,36.966,5.522,40.133,8.517c-3.167,2.995-16.747,8.517-40.133,8.517s-36.966-5.522-40.133-8.517  C355.3,305.107,368.88,299.585,392.266,299.585z M351.687,371.733v-14.651c10.653,4.505,25.648,6.628,40.579,6.628  s29.926-2.123,40.579-6.628v14.651c-2.071,2.831-15.837,9.011-40.579,9.011C367.524,380.744,353.758,374.564,351.687,371.733z"/>
<path d="M272.031,340.665c-4.15,0-7.515,3.365-7.515,7.515c0,4.15,3.365,7.515,7.515,7.515h8.016c4.15,0,7.515-3.365,7.515-7.515  c0-4.15-3.365-7.515-7.515-7.515H272.031z"/>
<path d="M311.609,195.883v-64.125c0-0.269-0.015-0.534-0.043-0.797c-0.904-15.702-28.345-22.749-55.566-22.749  s-54.662,7.048-55.566,22.749c-0.028,0.262-0.043,0.527-0.043,0.797v64.125c0,14.79,23.094,22.15,48.094,23.364v24.73  c0,4.15,3.365,7.515,7.515,7.515c4.15,0,7.515-3.365,7.515-7.515v-24.73C288.514,218.033,311.609,210.672,311.609,195.883z   M215.421,148.675c10.653,4.505,25.648,6.628,40.579,6.628c14.931,0,29.926-2.123,40.579-6.628v14.648  c-2.063,2.829-15.827,9.014-40.579,9.014s-38.516-6.185-40.579-9.014V148.675z M256,123.241c23.386,0,36.966,5.522,40.133,8.517  c-3.167,2.995-16.747,8.517-40.133,8.517s-36.966-5.522-40.133-8.517C219.034,128.762,232.614,123.241,256,123.241z M256,204.399  c-24.742,0-38.508-6.18-40.579-9.011v-14.651c10.653,4.505,25.648,6.628,40.579,6.628c14.931,0,29.926-2.123,40.579-6.628v14.651  C294.508,198.219,280.742,204.399,256,204.399z"/>
<path d="M263.515,276.039v-8.016c0-4.15-3.365-7.515-7.515-7.515c-4.15,0-7.515,3.365-7.515,7.515v8.016  c0,4.15,3.365,7.515,7.515,7.515C260.15,283.554,263.515,280.189,263.515,276.039z"/>
<g>
</g>
<g>
</g>
<g>
</g>
<g>
</g>
<g>
</g>
<g>
</g>
<g>
</g>
<g>
</g>
<g>
</g>
<g>
</g>
<g>
</g>
<g>
</g>
<g>
</g>
<g>
</g>
<g>
</g>
</svg>
