<?xml version="1.0" encoding="iso-8859-1"?>
<!-- Generator: Adobe Illustrator 19.0.0, SVG Export Plug-In . SVG Version: 6.00 Build 0)  -->
<svg xmlns="http://www.w3.org/2000/svg" xmlns:xlink="http://www.w3.org/1999/xlink" version="1.1" id="Capa_1" x="0px" y="0px" viewBox="0 0 512 512" style="enable-background:new 0 0 512 512;" xml:space="preserve">
<path style="fill:#7CD9F2;" d="M143.781,504.485H15.53c-4.427,0-8.016-3.589-8.016-8.016V376.235c0-4.427,3.589-8.016,8.016-8.016  h128.25c4.427,0,8.016,3.589,8.016,8.016V496.47C151.796,500.896,148.207,504.485,143.781,504.485z"/>
<path style="fill:#3CBDE8;" d="M31.562,488.454c-4.427,0-8.016-3.589-8.016-8.016V368.219H15.53c-4.427,0-8.016,3.589-8.016,8.016  V496.47c0,4.427,3.589,8.016,8.016,8.016h128.25c4.427,0,8.016-3.589,8.016-8.016v-8.016H31.562z"/>
<rect x="31.562" y="416.313" style="fill:#69788D;" width="96.188" height="64.125"/>
<g>
	<polygon style="fill:#56677E;" points="87.17,480.438 127.75,480.438 127.75,439.859  "/>
	<polygon style="fill:#56677E;" points="31.562,416.313 31.562,462.403 77.652,416.313  "/>
</g>
<path style="fill:#7CD9F2;" d="M320.125,504.485h-128.25c-4.427,0-8.016-3.589-8.016-8.016V376.235c0-4.427,3.589-8.016,8.016-8.016  h128.25c4.427,0,8.016,3.589,8.016,8.016V496.47C328.141,500.896,324.552,504.485,320.125,504.485z"/>
<path style="fill:#3CBDE8;" d="M207.906,488.454c-4.427,0-8.016-3.589-8.016-8.016V368.219h-8.016c-4.427,0-8.016,3.589-8.016,8.016  V496.47c0,4.427,3.589,8.016,8.016,8.016h128.25c4.427,0,8.016-3.589,8.016-8.016v-8.016H207.906z"/>
<rect x="207.906" y="416.313" style="fill:#69788D;" width="96.188" height="64.125"/>
<g>
	<polygon style="fill:#56677E;" points="263.515,480.438 304.094,480.438 304.094,439.859  "/>
	<polygon style="fill:#56677E;" points="207.906,416.313 207.906,462.403 253.996,416.313  "/>
</g>
<path style="fill:#7CD9F2;" d="M496.47,504.485h-128.25c-4.427,0-8.016-3.589-8.016-8.016V376.235c0-4.427,3.589-8.016,8.016-8.016  h128.25c4.427,0,8.016,3.589,8.016,8.016V496.47C504.485,500.896,500.896,504.485,496.47,504.485z"/>
<path style="fill:#3CBDE8;" d="M384.25,488.454c-4.427,0-8.016-3.589-8.016-8.016V368.219h-8.016c-4.427,0-8.016,3.589-8.016,8.016  V496.47c0,4.427,3.589,8.016,8.016,8.016h128.25c4.427,0,8.016-3.589,8.016-8.016v-8.016H384.25z"/>
<rect x="384.25" y="416.313" style="fill:#69788D;" width="96.188" height="64.125"/>
<g>
	<polygon style="fill:#56677E;" points="439.859,480.438 480.438,480.438 480.438,439.859  "/>
	<polygon style="fill:#56677E;" points="384.25,416.313 384.25,462.403 430.341,416.313  "/>
</g>
<path style="fill:#ECEEF1;" d="M368.219,191.875H143.781c-4.427,0-8.016-3.589-8.016-8.016V15.53c0-4.427,3.589-8.016,8.016-8.016  h224.438c4.427,0,8.016,3.589,8.016,8.016v168.329C376.235,188.286,372.646,191.875,368.219,191.875z"/>
<g>
	<path style="fill:#D9DDE2;" d="M143.781,7.515c-4.427,0-8.016,3.589-8.016,8.016v137.268L281.049,7.515H143.781z"/>
	<path style="fill:#D9DDE2;" d="M368.219,7.515h-30.56l-184.36,184.36h59.616L376.235,28.556V15.53   C376.235,11.104,372.646,7.515,368.219,7.515z"/>
</g>
<path style="fill:#ECEEF1;" d="M311.609,191.875h56.611c4.427,0,8.016-3.589,8.016-8.016v-56.611L311.609,191.875z"/>
<path style="fill:#7C899B;" d="M135.765,183.859c0,4.427,3.589,8.016,8.016,8.016h224.438c4.427,0,8.016-3.589,8.016-8.016v-40.078  h-240.47V183.859z"/>
<path style="fill:#69788D;" d="M159.812,183.859v-40.078h-24.047v40.078c0,4.427,3.589,8.016,8.016,8.016h24.047  C163.401,191.875,159.812,188.286,159.812,183.859z"/>
<rect x="223.937" y="191.875" style="fill:#56677E;" width="64.125" height="48.094"/>
<rect x="223.937" y="191.875" style="fill:#435670;" width="64.125" height="16.031"/>
<path d="M24.047,416.313v64.125c0,4.15,3.364,7.515,7.515,7.515h96.188c4.151,0,7.515-3.365,7.515-7.515v-64.125  c0-4.15-3.364-7.515-7.515-7.515H31.562C27.411,408.798,24.047,412.163,24.047,416.313z M39.076,423.828h81.159v49.096H39.076  V423.828z"/>
<path d="M64.125,392.266c0,4.15,3.364,7.515,7.515,7.515h16.031c4.151,0,7.515-3.365,7.515-7.515s-3.364-7.515-7.515-7.515H71.64  C67.489,384.751,64.125,388.116,64.125,392.266z"/>
<path d="M111.718,399.781h8.016c4.151,0,7.515-3.365,7.515-7.515s-3.364-7.515-7.515-7.515h-8.016c-4.151,0-7.515,3.365-7.515,7.515  S107.567,399.781,111.718,399.781z"/>
<path d="M39.577,399.781h8.016c4.151,0,7.515-3.365,7.515-7.515s-3.364-7.515-7.515-7.515h-8.016c-4.151,0-7.515,3.365-7.515,7.515  S35.426,399.781,39.577,399.781z"/>
<path d="M496.47,360.704h-56.611V312.11c0-4.15-3.364-7.515-7.515-7.515h-168.83v-57.112h48.595c4.151,0,7.515-3.365,7.515-7.515  s-3.364-7.515-7.515-7.515h-16.532v-33.065h72.642c8.564,0,15.53-6.967,15.53-15.53V15.53c0-8.564-6.967-15.53-15.53-15.53H143.781  c-8.564,0-15.53,6.967-15.53,15.53v168.329c0,8.564,6.967,15.53,15.53,15.53h72.642v33.065H199.89c-4.151,0-7.515,3.365-7.515,7.515  s3.364,7.515,7.515,7.515h48.595v57.112H79.656c-4.151,0-7.515,3.365-7.515,7.515v48.595H15.53c-8.564,0-15.53,6.967-15.53,15.53  V496.47C0,505.033,6.967,512,15.53,512h128.25c8.564,0,15.53-6.967,15.53-15.53V376.235c0-8.564-6.967-15.53-15.53-15.53H87.17  v-41.08h161.315v41.08h-56.611c-8.564,0-15.53,6.967-15.53,15.53V496.47c0,8.564,6.967,15.53,15.53,15.53h128.25  c8.564,0,15.53-6.967,15.53-15.53V376.235c0-8.564-6.967-15.53-15.53-15.53h-56.611v-41.08H424.83v41.08h-56.611  c-8.564,0-15.53,6.967-15.53,15.53V496.47c0,8.564,6.967,15.53,15.53,15.53h128.25c8.564,0,15.53-6.967,15.53-15.53V376.235  C512,367.671,505.033,360.704,496.47,360.704z M143.28,183.859v-32.564h140.775c4.151,0,7.515-3.365,7.515-7.515  s-3.364-7.515-7.515-7.515H143.28V15.53c0-0.277,0.225-0.501,0.501-0.501h224.438c0.276,0,0.501,0.224,0.501,0.501v120.736h-48.094  c-4.151,0-7.515,3.365-7.515,7.515s3.364,7.515,7.515,7.515h48.094v32.564c0,0.277-0.225,0.501-0.501,0.501H143.781  C143.505,184.36,143.28,184.136,143.28,183.859z M231.452,199.389h49.096v33.065h-49.096V199.389z M144.282,376.235V496.47  c0,0.277-0.225,0.501-0.501,0.501H15.53c-0.276,0-0.501-0.224-0.501-0.501V376.235c0-0.277,0.225-0.501,0.501-0.501h128.25  C144.056,375.734,144.282,375.958,144.282,376.235z M320.626,376.235V496.47c0,0.277-0.225,0.501-0.501,0.501h-128.25  c-0.276,0-0.501-0.224-0.501-0.501V376.235c0-0.277,0.225-0.501,0.501-0.501h128.25  C320.401,375.734,320.626,375.958,320.626,376.235z M496.971,496.47c0,0.277-0.225,0.501-0.501,0.501h-128.25  c-0.276,0-0.501-0.224-0.501-0.501V376.235c0-0.277,0.225-0.501,0.501-0.501h128.25c0.276,0,0.501,0.224,0.501,0.501V496.47z"/>
<path d="M480.438,408.798H384.25c-4.151,0-7.515,3.365-7.515,7.515v64.125c0,4.15,3.364,7.515,7.515,7.515h96.188  c4.151,0,7.515-3.365,7.515-7.515v-64.125C487.953,412.163,484.589,408.798,480.438,408.798z M472.924,472.924h-81.159v-49.096  h81.159V472.924z"/>
<path d="M424.329,399.781h16.031c4.151,0,7.515-3.365,7.515-7.515s-3.364-7.515-7.515-7.515h-16.031  c-4.151,0-7.515,3.365-7.515,7.515S420.178,399.781,424.329,399.781z"/>
<path d="M464.407,399.781h8.016c4.151,0,7.515-3.365,7.515-7.515s-3.364-7.515-7.515-7.515h-8.016c-4.151,0-7.515,3.365-7.515,7.515  S460.256,399.781,464.407,399.781z"/>
<path d="M392.266,399.781h8.016c4.151,0,7.515-3.365,7.515-7.515s-3.364-7.515-7.515-7.515h-8.016c-4.151,0-7.515,3.365-7.515,7.515  S388.115,399.781,392.266,399.781z"/>
<path d="M200.391,416.313v64.125c0,4.15,3.364,7.515,7.515,7.515h96.188c4.151,0,7.515-3.365,7.515-7.515v-64.125  c0-4.15-3.364-7.515-7.515-7.515h-96.188C203.755,408.798,200.391,412.163,200.391,416.313z M215.421,423.828h81.159v49.096h-81.159  V423.828z"/>
<path d="M240.47,392.266c0,4.15,3.364,7.515,7.515,7.515h16.031c4.151,0,7.515-3.365,7.515-7.515s-3.364-7.515-7.515-7.515h-16.031  C243.833,384.751,240.47,388.116,240.47,392.266z"/>
<path d="M288.063,399.781h8.016c4.151,0,7.515-3.365,7.515-7.515s-3.364-7.515-7.515-7.515h-8.016c-4.151,0-7.515,3.365-7.515,7.515  S283.911,399.781,288.063,399.781z"/>
<path d="M215.922,399.781h8.016c4.151,0,7.515-3.365,7.515-7.515s-3.364-7.515-7.515-7.515h-8.016c-4.151,0-7.515,3.365-7.515,7.515  S211.771,399.781,215.922,399.781z"/>
<path d="M247.984,175.342h16.031c4.151,0,7.515-3.365,7.515-7.515s-3.364-7.515-7.515-7.515h-16.031  c-4.151,0-7.515,3.365-7.515,7.515S243.833,175.342,247.984,175.342z"/>
<g>
</g>
<g>
</g>
<g>
</g>
<g>
</g>
<g>
</g>
<g>
</g>
<g>
</g>
<g>
</g>
<g>
</g>
<g>
</g>
<g>
</g>
<g>
</g>
<g>
</g>
<g>
</g>
<g>
</g>
</svg>
