<?xml version="1.0" encoding="iso-8859-1"?>
<!-- Generator: Adobe Illustrator 19.0.0, SVG Export Plug-In . SVG Version: 6.00 Build 0)  -->
<svg xmlns="http://www.w3.org/2000/svg" xmlns:xlink="http://www.w3.org/1999/xlink" version="1.1" id="Capa_1" x="0px" y="0px" viewBox="0 0 512 512" style="enable-background:new 0 0 512 512;" xml:space="preserve">
<rect x="7.515" y="7.515" style="fill:#7C899B;" width="496.971" height="144.282"/>
<polygon style="fill:#69788D;" points="31.562,127.75 31.562,7.515 7.515,7.515 7.515,151.796 504.485,151.796 504.485,127.75 "/>
<circle style="fill:#A1ABB8;" cx="304.094" cy="79.656" r="24.047"/>
<circle style="fill:#D9DDE2;" cx="304.094" cy="79.656" r="8.016"/>
<circle style="fill:#DB6B5E;" cx="448.376" cy="79.656" r="24.047"/>
<circle style="fill:#FF8C78;" cx="448.376" cy="79.656" r="8.016"/>
<circle style="fill:#F7C14D;" cx="376.235" cy="79.656" r="24.047"/>
<circle style="fill:#FFDB66;" cx="376.235" cy="79.656" r="8.016"/>
<rect x="7.515" y="360.204" style="fill:#7C899B;" width="496.971" height="144.282"/>
<polygon style="fill:#69788D;" points="31.562,480.438 31.562,360.204 7.515,360.204 7.515,504.485 504.485,504.485   504.485,480.438 "/>
<circle style="fill:#B4BBC6;" cx="304.094" cy="432.344" r="24.047"/>
<circle style="fill:#D9DDE2;" cx="304.094" cy="432.344" r="8.016"/>
<circle style="fill:#DB6B5E;" cx="448.376" cy="432.344" r="24.047"/>
<circle style="fill:#FF8C78;" cx="448.376" cy="432.344" r="8.016"/>
<circle style="fill:#F7C14D;" cx="376.235" cy="432.344" r="24.047"/>
<circle style="fill:#FFDB66;" cx="376.235" cy="432.344" r="8.016"/>
<polygon style="fill:#59AD57;" points="183.859,288.063 183.859,175.843 135.765,175.843 135.765,288.063 103.703,288.063   159.812,336.157 215.922,288.063 "/>
<polygon style="fill:#7EC97D;" points="328.141,223.937 328.141,336.157 376.235,336.157 376.235,223.937 408.297,223.937   352.188,175.843 296.078,223.937 "/>
<path d="M504.485,0H7.515C3.364,0,0,3.365,0,7.515v144.282c0,4.15,3.364,7.515,7.515,7.515h285.224c4.151,0,7.515-3.365,7.515-7.515  s-3.364-7.515-7.515-7.515H15.029V15.029h481.941v129.252h-168.83c-4.151,0-7.515,3.365-7.515,7.515s3.364,7.515,7.515,7.515  h176.344c4.151,0,7.515-3.365,7.515-7.515V7.515C512,3.365,508.636,0,504.485,0z"/>
<path d="M40.078,39.577v80.157c0,4.15,3.364,7.515,7.515,7.515s7.515-3.365,7.515-7.515V39.577c0-4.15-3.364-7.515-7.515-7.515  S40.078,35.427,40.078,39.577z"/>
<path d="M88.172,39.577v80.157c0,4.15,3.364,7.515,7.515,7.515c4.151,0,7.515-3.365,7.515-7.515V39.577  c0-4.15-3.364-7.515-7.515-7.515C91.536,32.063,88.172,35.427,88.172,39.577z"/>
<path d="M136.266,39.577v80.157c0,4.15,3.364,7.515,7.515,7.515s7.515-3.365,7.515-7.515V39.577c0-4.15-3.364-7.515-7.515-7.515  S136.266,35.427,136.266,39.577z"/>
<path d="M184.36,39.577v80.157c0,4.15,3.364,7.515,7.515,7.515s7.515-3.365,7.515-7.515V39.577c0-4.15-3.364-7.515-7.515-7.515  S184.36,35.427,184.36,39.577z"/>
<path d="M232.454,39.577v80.157c0,4.15,3.364,7.515,7.515,7.515s7.515-3.365,7.515-7.515V39.577c0-4.15-3.364-7.515-7.515-7.515  S232.454,35.427,232.454,39.577z"/>
<path d="M335.656,79.656c0-17.403-14.159-31.562-31.562-31.562s-31.562,14.159-31.562,31.562s14.159,31.562,31.562,31.562  S335.656,97.059,335.656,79.656z M304.094,96.188c-9.116,0-16.532-7.416-16.532-16.532s7.417-16.532,16.532-16.532  s16.532,7.416,16.532,16.532S313.21,96.188,304.094,96.188z"/>
<path d="M479.937,79.656c0-17.403-14.159-31.562-31.562-31.562s-31.562,14.159-31.562,31.562s14.159,31.562,31.562,31.562  S479.937,97.059,479.937,79.656z M431.843,79.656c0-9.116,7.417-16.532,16.532-16.532s16.532,7.416,16.532,16.532  s-7.417,16.532-16.532,16.532S431.843,88.771,431.843,79.656z"/>
<path d="M407.796,79.656c0-17.403-14.159-31.562-31.562-31.562s-31.562,14.159-31.562,31.562s14.159,31.562,31.562,31.562  S407.796,97.059,407.796,79.656z M359.703,79.656c0-9.116,7.417-16.532,16.532-16.532s16.532,7.416,16.532,16.532  s-7.417,16.532-16.532,16.532S359.703,88.771,359.703,79.656z"/>
<path d="M504.485,352.689H7.515c-4.151,0-7.515,3.365-7.515,7.515v144.282C0,508.635,3.364,512,7.515,512h496.971  c4.151,0,7.515-3.365,7.515-7.515V360.204C512,356.053,508.636,352.689,504.485,352.689z M496.971,496.971H15.029V367.718h481.941  V496.971z"/>
<path d="M47.593,479.937c4.151,0,7.515-3.365,7.515-7.515v-80.157c0-4.15-3.364-7.515-7.515-7.515s-7.515,3.365-7.515,7.515v80.157  C40.078,476.573,43.442,479.937,47.593,479.937z"/>
<path d="M95.687,479.937c4.151,0,7.515-3.365,7.515-7.515v-80.157c0-4.15-3.364-7.515-7.515-7.515c-4.151,0-7.515,3.365-7.515,7.515  v80.157C88.172,476.573,91.536,479.937,95.687,479.937z"/>
<path d="M143.781,479.937c4.151,0,7.515-3.365,7.515-7.515v-80.157c0-4.15-3.364-7.515-7.515-7.515s-7.515,3.365-7.515,7.515v80.157  C136.266,476.573,139.63,479.937,143.781,479.937z"/>
<path d="M191.875,479.937c4.151,0,7.515-3.365,7.515-7.515v-80.157c0-4.15-3.364-7.515-7.515-7.515s-7.515,3.365-7.515,7.515v80.157  C184.36,476.573,187.724,479.937,191.875,479.937z"/>
<path d="M239.969,479.937c4.151,0,7.515-3.365,7.515-7.515v-80.157c0-4.15-3.364-7.515-7.515-7.515s-7.515,3.365-7.515,7.515v80.157  C232.454,476.573,235.818,479.937,239.969,479.937z"/>
<path d="M304.094,463.906c17.403,0,31.562-14.159,31.562-31.562s-14.159-31.562-31.562-31.562s-31.562,14.159-31.562,31.562  S286.691,463.906,304.094,463.906z M304.094,415.812c9.116,0,16.532,7.417,16.532,16.532s-7.417,16.532-16.532,16.532  s-16.532-7.417-16.532-16.532S294.978,415.812,304.094,415.812z"/>
<path d="M448.376,463.906c17.403,0,31.562-14.159,31.562-31.562s-14.159-31.562-31.562-31.562s-31.562,14.159-31.562,31.562  S430.973,463.906,448.376,463.906z M448.376,415.812c9.116,0,16.532,7.417,16.532,16.532s-7.417,16.532-16.532,16.532  s-16.532-7.417-16.532-16.532S439.26,415.812,448.376,415.812z"/>
<path d="M376.235,463.906c17.403,0,31.562-14.159,31.562-31.562s-14.159-31.562-31.562-31.562s-31.562,14.159-31.562,31.562  S358.832,463.906,376.235,463.906z M376.235,415.812c9.116,0,16.532,7.417,16.532,16.532s-7.417,16.532-16.532,16.532  s-16.532-7.417-16.532-16.532S367.119,415.812,376.235,415.812z"/>
<path d="M183.859,168.329h-48.094c-4.151,0-7.515,3.365-7.515,7.515v104.704h-24.548c-6.815,0-10.078,8.774-4.891,13.22  l56.11,48.094c2.78,2.383,7.001,2.383,9.781,0l56.11-48.094c5.187-4.447,1.925-13.22-4.891-13.22h-24.548V175.843  C191.374,171.693,188.01,168.329,183.859,168.329z M195.608,295.577l-35.796,30.682l-35.796-30.682h11.749  c4.151,0,7.515-3.365,7.515-7.515V183.358h33.065v104.704c0,4.15,3.364,7.515,7.515,7.515H195.608z"/>
<path d="M328.141,343.671h48.094c4.151,0,7.515-3.365,7.515-7.515V231.452h24.548c6.815,0,10.078-8.774,4.891-13.22l-56.11-48.094  c-2.814-2.412-6.967-2.412-9.781,0l-56.11,48.094c-5.187,4.446-1.925,13.22,4.891,13.22h24.548v104.704  C320.626,340.307,323.99,343.671,328.141,343.671z M316.392,216.423l35.796-30.682l35.796,30.682h-11.749  c-4.151,0-7.515,3.365-7.515,7.515v104.704h-33.065V223.937c0-4.15-3.364-7.515-7.515-7.515H316.392z"/>
<g>
</g>
<g>
</g>
<g>
</g>
<g>
</g>
<g>
</g>
<g>
</g>
<g>
</g>
<g>
</g>
<g>
</g>
<g>
</g>
<g>
</g>
<g>
</g>
<g>
</g>
<g>
</g>
<g>
</g>
</svg>
