<?xml version="1.0" encoding="iso-8859-1"?>
<!-- Generator: Adobe Illustrator 19.0.0, SVG Export Plug-In . SVG Version: 6.00 Build 0)  -->
<svg xmlns="http://www.w3.org/2000/svg" xmlns:xlink="http://www.w3.org/1999/xlink" version="1.1" id="Layer_1" x="0px" y="0px" viewBox="0 0 512.002 512.002" style="enable-background:new 0 0 512.002 512.002;" xml:space="preserve">
<g>
	<path style="fill:#FBCB99;" d="M378.367,86.705c-1.606,1.607-3.987,2.261-6.188,1.693c-0.786-0.202-1.649-0.303-2.565-0.303   c-12.228,0-33.923,17.898-44.73,29.184l-11.699,12.782h67.574c3.573,0,6.478,2.906,6.478,6.478v36.85l0.041,1.62h1.62   c0.702,0,1.387,0.109,2.035,0.323c3.389,1.123,5.236,4.792,4.115,8.184c-2.488,7.589-4.914,21.981-0.835,28.287   c0.802,1.241,2.142,2.73,5.415,3.227l0.3,0.046l0.297-0.066c3.198-0.717,7.599-5.815,9.477-17.824   c2.087-13.352,7.159-20.687,11.235-26.582c5.756-8.322,10.302-14.895,7.055-38.439c-0.276-1.996,0.41-4.039,1.836-5.467   l11.62-11.62l-45.729-45.727L378.367,86.705z"/>
	<path style="fill:#FBCB99;" d="M421.345,373.453c3.056-11.916-18.135-37.007-28.896-47.309l-5.212-5.211v60.024   c0,3.573-2.906,6.478-6.478,6.478h-46.348l0.259,1.845c0.14,0.998,0.053,1.982-0.259,2.926c-0.88,2.658-3.352,4.444-6.147,4.444   c-0.69,0-1.375-0.111-2.043-0.333c-4.255-1.394-11.571-3.022-18.177-3.022c-4.458,0-7.857,0.737-10.103,2.19   c-1.241,0.802-2.73,2.142-3.227,5.416l-0.046,0.3l0.066,0.296c0.716,3.198,5.813,7.598,17.824,9.476   c13.355,2.088,20.689,7.161,26.584,11.239c6.307,4.361,11.753,8.127,24.702,8.127c3.99,0,8.482-0.352,13.733-1.075   c2.013-0.286,4.035,0.404,5.468,1.836l11.619,11.619l45.728-45.727l-17.35-17.349C421.427,378.032,420.778,375.66,421.345,373.453z   "/>
	<path style="fill:#FBCB99;" d="M123.386,380.956v-43.329l-0.042-1.62h-1.62c-0.702,0-1.387-0.109-2.035-0.323   c-3.387-1.121-5.234-4.79-4.116-8.18c2.489-7.591,4.916-21.983,0.835-28.292c-0.803-1.241-2.145-2.73-5.416-3.227l-0.3-0.046   l-0.297,0.066c-3.198,0.717-7.599,5.815-9.477,17.824c-2.087,13.355-7.159,20.69-11.235,26.584   c-5.755,8.323-10.301,14.896-7.055,38.438c0.275,1.998-0.411,4.04-1.836,5.467l-11.618,11.618l45.729,45.729l17.35-17.35   c1.606-1.606,3.984-2.258,6.189-1.693c0.781,0.201,1.638,0.301,2.547,0.301c0.001,0,0,0,0.001,0   c12.208,0,33.922-17.899,44.734-29.171l6.313-6.315h-62.174C126.292,387.435,123.386,384.529,123.386,380.956z"/>
	<path style="fill:#FBCB99;" d="M198.066,100.042c-13.354-2.088-20.689-7.16-26.584-11.237c-6.308-4.363-11.754-8.13-24.7-8.13   c-3.991,0-8.484,0.352-13.735,1.077c-2.012,0.271-4.035-0.405-5.467-1.836l-11.619-11.619l-45.729,45.729l17.349,17.348   c1.611,1.611,2.261,3.982,1.694,6.19c-3.054,11.915,18.136,37.006,28.896,47.308l5.214,5.213V130.06   c0-3.573,2.906-6.478,6.478-6.478h46.346l-0.259-1.845c-0.14-0.998-0.053-1.982,0.259-2.926c0.88-2.658,3.352-4.445,6.149-4.445   c0.688,0,1.372,0.111,2.036,0.331c4.255,1.394,11.573,3.023,18.185,3.023c4.458,0,7.856-0.736,10.101-2.188   c1.241-0.802,2.731-2.143,3.228-5.417l0.046-0.3l-0.066-0.297C215.173,106.32,210.074,101.92,198.066,100.042z"/>
</g>
<path style="fill:#6598CB;" d="M218.35,285.262c9.892,0,19.516,4.63,25.744,12.387l0.487,0.605h4.252v-36.267h-42.746  c-3.573,0-6.478-2.906-6.478-6.478v-14.168c0-2.275,1.216-4.41,3.172-5.57c6.148-3.651,9.819-10.088,9.819-17.222  c0-11.036-8.977-20.013-20.013-20.013c-11.036,0-20.013,8.977-20.013,20.013c0,7.025,3.763,13.624,9.821,17.223  c1.955,1.16,3.17,3.294,3.17,5.569v14.168c0,3.573-2.906,6.478-6.478,6.478h-42.743v112.492h112.491V338.21h-4.252l-0.486,0.606  c-6.228,7.757-15.852,12.388-25.744,12.388c-18.181,0-32.971-14.79-32.971-32.97C185.379,300.053,200.17,285.262,218.35,285.262z"/>
<polygon style="fill:#4982AA;" points="148.084,361.805 148.084,261.987 136.343,261.987 136.343,374.478 248.834,374.478   248.834,361.805 "/>
<path style="fill:#FCD638;" d="M338.554,262.527v3.453l0.404,0.324c7.882,6.329,12.588,16.111,12.588,26.166  c0,18.478-15.033,33.51-33.511,33.51s-33.51-15.032-33.51-33.51c0-10.057,4.706-19.837,12.587-26.165l0.404-0.324v-3.454h-35.186  v42.206c0,3.87-3.149,7.018-7.018,7.018h-14.168c-2.465,0-4.777-1.316-6.035-3.436c-3.553-5.984-9.819-9.557-16.758-9.557  c-10.738,0-19.474,8.736-19.474,19.474c0,10.737,8.736,19.473,19.474,19.473c6.939,0,13.204-3.573,16.759-9.558  c1.257-2.12,3.569-3.436,6.034-3.436h14.168c3.87,0,7.018,3.148,7.018,7.018v42.206H373.74v-111.41H338.554z"/>
<path style="fill:#EF4C35;" d="M292.274,172.773c-7.134,0-13.573,3.67-17.223,9.82c-1.161,1.956-3.295,3.172-5.57,3.172h-14.168  c-3.573,0-6.478-2.906-6.478-6.478v-42.746H136.343v112.491h36.264v-4.252l-0.606-0.487c-7.756-6.229-12.386-15.853-12.386-25.744  c0-18.18,14.79-32.97,32.97-32.97s32.97,14.79,32.97,32.97c0,9.894-4.63,19.517-12.386,25.745l-0.606,0.487v4.25h36.267v-42.745  c0-3.573,2.906-6.478,6.478-6.478h14.168c2.274,0,4.41,1.216,5.57,3.172c3.651,6.149,10.089,9.82,17.223,9.82  c11.035,0,20.012-8.978,20.012-20.014C312.286,181.749,303.309,172.773,292.274,172.773z"/>
<path style="fill:#F7971D;" d="M331.535,248.49h42.205V137.08H262.33v35.188h3.452l0.324-0.404  c6.328-7.882,16.112-12.588,26.168-12.588c18.477,0,33.509,15.032,33.509,33.509c0,18.478-15.032,33.511-33.509,33.511  c-10.056,0-19.838-4.706-26.168-12.588l-0.324-0.404h-3.452v35.187h42.204c3.87,0,7.018,3.149,7.018,7.018v14.169  c0,2.464-1.316,4.777-3.436,6.035c-5.983,3.552-9.556,9.817-9.556,16.759c0,10.737,8.736,19.473,19.473,19.473  c10.738,0,19.474-8.736,19.474-19.473c0-6.942-3.573-13.205-9.556-16.758c-2.12-1.259-3.437-3.572-3.437-6.036v-14.169  C324.517,251.639,327.665,248.49,331.535,248.49z"/>
<polygon style="fill:#6598CB;" points="401.446,54.466 401.455,54.476 458.358,111.375 491.767,77.969 432.854,19.058   399.447,52.468 401.438,54.459 "/>
<polygon style="fill:#DF3126;" points="146.601,145.717 247.214,145.717 247.214,138.159 137.963,138.159 137.963,247.411   146.601,247.411 "/>
<polygon style="fill:#F9B338;" points="362.539,361.805 362.539,261.987 374.28,261.987 374.28,374.478 261.79,374.478   261.79,361.805 "/>
<polygon style="fill:#F37521;" points="364.022,145.717 263.41,145.717 263.41,129.521 373.74,129.521 373.74,247.411   364.022,247.411 "/>
<g>
	<polygon style="fill:#6598CB;" points="56.413,109.39 56.422,109.379 56.432,109.369 111.304,54.498 111.314,54.487    111.324,54.477 112.254,53.548 77.766,19.058 19.936,76.892 54.424,111.377  "/>
	<polygon style="fill:#6598CB;" points="400.399,457.601 400.389,457.61 400.378,457.62 399.449,458.551 433.936,493.039    491.767,435.206 457.279,400.72  "/>
	<polygon style="fill:#6598CB;" points="109.176,456.551 109.175,456.55 54.297,401.67 54.286,401.66 54.276,401.649 53.347,400.72    19.936,434.127 78.847,493.039 112.254,459.63 109.177,456.552  "/>
</g>
<g>
	<path style="fill:#EDBA89;" d="M381.491,88.095c0.917,0,1.779,0.103,2.565,0.303c2.201,0.567,4.582-0.086,6.188-1.693   l11.414-11.413l-5.939-5.937l-17.353,17.35c-1.606,1.607-3.987,2.261-6.188,1.693c-0.786-0.202-1.649-0.303-2.565-0.303   c-12.228,0-33.923,17.898-44.73,29.184l-6.3,6.304h11.877l6.3-6.304C347.567,105.993,369.262,88.095,381.491,88.095z"/>
	<path style="fill:#EDBA89;" d="M406.925,183.517c1.121-3.393-0.726-7.062-4.115-8.184c-0.648-0.214-1.332-0.323-2.035-0.323h-1.62   l-0.041-1.62v-43.329c0-3.573-2.906-6.478-6.478-6.478h-11.877c3.573,0,6.478,2.906,6.478,6.478v43.329l0.041,1.62h1.62   c0.702,0,1.387,0.109,2.035,0.323c3.389,1.123,5.236,4.792,4.115,8.184c-2.488,7.589-4.914,21.981-0.835,28.287   c0.802,1.241,2.142,2.73,5.415,3.227l0.3,0.046l0.297-0.066c1.573-0.353,3.438-1.774,5.148-4.548   C402.332,203.642,404.599,190.61,406.925,183.517z"/>
	<path style="fill:#EDBA89;" d="M338.098,396.319c0.667,0.221,1.353,0.333,2.043,0.333c2.797,0,5.267-1.786,6.147-4.444   c0.312-0.944,0.4-1.928,0.259-2.926l-0.259-1.845h-11.877l0.259,1.845c0.14,0.998,0.053,1.982-0.259,2.926   c-0.343,1.04-0.936,1.938-1.691,2.656C334.773,395.325,336.623,395.836,338.098,396.319z"/>
	<path style="fill:#EDBA89;" d="M399.114,380.956v-47.925c-2.426-2.669-4.717-5.023-6.665-6.888l-5.212-5.211v60.024   c0,3.573-2.906,6.478-6.478,6.478h11.877C396.208,387.435,399.114,384.529,399.114,380.956z"/>
	<path style="fill:#EDBA89;" d="M351.018,422.214c-5.895-4.078-13.229-9.152-26.584-11.239c-12.011-1.878-17.108-6.279-17.824-9.476   l-0.066-0.296l0.046-0.3c0.498-3.273,1.987-4.614,3.227-5.416c1.237-0.8,2.835-1.375,4.755-1.736   c-2.166-0.281-4.385-0.453-6.529-0.453c-4.458,0-7.857,0.737-10.103,2.19c-1.241,0.802-2.73,2.142-3.227,5.416l-0.046,0.3   l0.066,0.296c0.716,3.198,5.813,7.598,17.824,9.476c13.355,2.088,20.689,7.161,26.584,11.239   c6.307,4.361,11.753,8.127,24.702,8.127c1.998,0,4.121-0.089,6.403-0.267C361.087,429.155,356.352,425.901,351.018,422.214z"/>
	<path style="fill:#EDBA89;" d="M394.92,431.103c-1.432-1.432-3.454-2.122-5.468-1.836c-2.771,0.381-5.327,0.656-7.713,0.835   c0.47,0.276,0.91,0.608,1.303,1.001l11.619,11.619l5.939-5.939L394.92,431.103z"/>
	<path style="fill:#EDBA89;" d="M81.052,395.934l11.618-11.618c1.424-1.425,2.111-3.469,1.836-5.467   c-3.246-23.542,1.3-30.115,7.055-38.438c4.076-5.894,9.149-13.229,11.235-26.584c0.954-6.102,2.56-10.413,4.329-13.278   c-0.213-0.476-0.448-0.926-0.715-1.339c-0.803-1.241-2.145-2.73-5.416-3.227l-0.3-0.046l-0.297,0.066   c-3.198,0.717-7.599,5.815-9.477,17.824c-2.087,13.355-7.159,20.69-11.235,26.584c-5.755,8.323-10.301,14.896-7.055,38.438   c0.275,1.998-0.411,4.04-1.836,5.467l-11.618,11.618l45.729,45.729l5.939-5.939L81.052,395.934z"/>
	<path style="fill:#EDBA89;" d="M101.153,137.564c0.566-2.208-0.083-4.579-1.694-6.19L82.11,114.026L121.9,74.235l-5.939-5.939   l-45.729,45.729l17.349,17.348c1.611,1.611,2.261,3.982,1.694,6.19c-3.054,11.915,18.136,37.006,28.896,47.308l5.214,5.213v-12.098   C112.412,165.916,98.652,147.323,101.153,137.564z"/>
	<path style="fill:#EDBA89;" d="M144.924,81.751c2.623-0.362,5.056-0.631,7.331-0.81c-1.673-0.167-3.475-0.267-5.473-0.267   c-1.883,0-3.884,0.081-6.017,0.241C142.004,81.64,143.466,81.948,144.924,81.751z"/>
	<path style="fill:#EDBA89;" d="M196.273,114.698c-0.664-0.22-1.349-0.331-2.036-0.331c-1.704,0-3.281,0.669-4.457,1.788   c3.87,0.87,8.482,1.566,12.8,1.566c2.004,0,3.781-0.158,5.349-0.452C203.421,116.685,199.148,115.639,196.273,114.698z"/>
</g>
<g>
	<polygon style="fill:#4982AA;" points="413.332,54.476 413.323,54.466 413.315,54.459 411.324,52.468 438.792,24.997    432.854,19.058 399.447,52.468 401.438,54.459 401.446,54.466 401.455,54.476 459.438,112.455 465.377,106.516  "/>
	<polygon style="fill:#4982AA;" points="31.813,76.892 83.705,24.997 77.766,19.058 19.936,76.892 53.344,110.298 55.333,108.31    55.342,108.299 55.353,108.289 59.283,104.359  "/>
	<polygon style="fill:#4982AA;" points="411.326,458.551 412.256,457.62 412.266,457.61 412.276,457.601 463.217,406.658    457.279,400.72 400.399,457.601 400.389,457.61 400.378,457.62 399.449,458.551 432.856,491.959 438.794,486.02  "/>
	<polygon style="fill:#4982AA;" points="31.813,434.127 59.285,406.658 54.297,401.67 54.286,401.66 54.276,401.649 53.347,400.72    19.936,434.127 78.847,493.039 84.785,487.1  "/>
</g>
<path style="fill:#202121;" d="M508.554,428.891l-44.86-44.859c-3.164-3.161-8.29-3.161-11.453,0l-2,2l-13.395-13.394  c0.783-22.258-27.339-50.502-33.543-56.451l-13.757-13.758V256v-29.087c2.851,1.715,6.164,2.795,9.865,3.187  c0.072,0.009,0.145,0.015,0.216,0.021c0.072,0.006,0.287,0.021,0.621,0.021c3.491,0,20.063-1.536,24.546-30.21  c1.572-10.059,4.932-14.917,8.823-20.542c6.334-9.158,12.874-18.616,10.008-44.685l7.678-7.678l0.942,0.942  c1.581,1.581,3.654,2.371,5.726,2.371c2.072,0,4.145-0.79,5.727-2.371l44.86-44.859c1.518-1.519,2.371-3.579,2.371-5.727  c0-2.148-0.853-4.207-2.371-5.727L439.27,2.371c-3.164-3.161-8.29-3.161-11.453,0l-44.86,44.861  c-1.518,1.519-2.371,3.579-2.371,5.727c0,2.148,0.853,4.207,2.372,5.727l1.999,1.999l-13.395,13.393  c-22.252-0.776-50.505,27.342-56.451,33.544l-14.831,14.832h-44.278h-28.705c2.118-3.08,3.438-6.765,3.881-10.94  c0.008-0.071,0.015-0.144,0.021-0.216c0.066-0.825,1.233-20.254-30.19-25.167c-10.058-1.572-14.917-4.932-20.542-8.824  c-9.158-6.334-18.617-12.873-44.685-10.008l-7.676-7.676l0.939-0.939c3.163-3.164,3.163-8.29,0-11.453L84.181,2.371  C82.662,0.853,80.602,0,78.455,0c-2.148,0-4.207,0.853-5.727,2.372L3.446,71.657c-3.163,3.163-3.163,8.289,0,11.452l44.86,44.859  c1.582,1.581,3.655,2.371,5.727,2.371s4.145-0.79,5.727-2.371l2-2l13.394,13.393c-0.782,22.259,27.341,50.504,33.542,56.45  l13.759,13.76v46.427v29.088c-2.852-1.716-6.165-2.797-9.867-3.188c-0.071-0.009-0.145-0.015-0.216-0.021  c-0.832-0.076-20.255-1.229-25.168,30.19c-1.572,10.06-4.931,14.918-8.821,20.543c-6.334,9.158-12.874,18.616-10.008,44.685  L60.7,384.97l-0.939-0.939c-3.164-3.163-8.291-3.164-11.452-0.001L3.447,428.892c-1.519,1.519-2.372,3.579-2.372,5.727  c0,2.148,0.853,4.207,2.371,5.727l69.283,69.284c1.519,1.518,3.578,2.371,5.727,2.371s4.207-0.853,5.727-2.371l44.86-44.861  c3.163-3.164,3.163-8.29,0-11.453l-1.999-1.999l13.395-13.394c0.302,0.011,0.609,0.016,0.916,0.016  c22.11,0,49.669-27.443,55.534-33.558l13.856-13.855c0.308-0.308,0.576-0.638,0.824-0.978h44.432h28.706  c-2.12,3.081-3.439,6.765-3.882,10.94c-0.008,0.071-0.015,0.144-0.021,0.214c-0.066,0.826-1.237,20.256,30.188,25.169  c10.059,1.573,14.917,4.932,20.542,8.824c9.158,6.334,18.615,12.868,44.686,10.008l7.676,7.676l-0.939,0.939  c-3.163,3.164-3.163,8.29,0,11.453l44.86,44.861c1.519,1.518,3.578,2.371,5.727,2.371s4.207-0.853,5.727-2.371l69.283-69.285  C511.716,437.182,511.716,432.054,508.554,428.891z M433.543,19.55l57.833,57.831l-33.407,33.406l-55.825-55.82  c-0.003-0.003-0.005-0.005-0.008-0.009c-0.003-0.003-0.007-0.005-0.009-0.008l-1.991-1.991L433.543,19.55z M326.624,119.012  c0.041-0.041,0.082-0.083,0.122-0.125c12.448-13,35.594-31.027,45.717-28.427c2.773,0.712,5.714-0.094,7.737-2.117l16.207-16.206  l43.439,43.437l-10.475,10.475c-1.792,1.793-2.642,4.322-2.296,6.833c3.161,22.917-1.227,29.263-6.782,37.295  c-4.169,6.029-9.359,13.532-11.504,27.254c-1.963,12.554-6.407,16.084-8.231,16.493c-2.601-0.396-3.634-1.48-4.297-2.506  c-3.574-5.522-1.559-19.055,1.013-26.904c1.402-4.243-0.902-8.82-5.145-10.226c-0.858-0.284-1.729-0.409-2.586-0.405v-43.329  c0-4.473-3.625-8.098-8.098-8.098h-16.03c-4.473,0-8.098,3.625-8.098,8.098c0,4.473,3.625,8.098,8.098,8.098h7.933v51.456  c0,0.003,0,0.005,0,0.009v57.787h-41.125c-4.473,0-8.098,3.625-8.098,8.098v14.169c0,2.858,1.507,5.505,3.965,6.963  c5.651,3.355,9.027,9.273,9.027,15.829c0,10.143-8.252,18.393-18.394,18.393c-10.142,0-18.393-8.251-18.393-18.393  c0-6.556,3.374-12.474,9.027-15.829c2.456-1.46,3.964-4.106,3.964-6.963V256c0-4.473-3.625-8.098-8.098-8.098h-41.124v-33.027h1.855  c6.513,8.112,16.482,12.991,27.01,12.991c19.073,0,34.588-15.517,34.588-34.591c0-19.073-15.516-34.588-34.588-34.588  c-10.527,0-20.497,4.882-27.01,12.991h-1.855v-33.028h75.405c4.473,0,8.098-3.625,8.098-8.098c0-4.473-3.625-8.098-8.098-8.098  h-16.321L326.624,119.012z M264.098,373.349v-41.126c0-4.473-3.625-8.098-8.098-8.098h-14.168c-2.857,0-5.505,1.506-6.962,3.964  c-3.358,5.654-9.276,9.029-15.83,9.029c-10.143,0-18.394-8.251-18.394-18.393c0-10.143,8.252-18.394,18.394-18.394  c6.555,0,12.473,3.375,15.83,9.028c1.459,2.457,4.105,3.964,6.962,3.964H256c4.473,0,8.098-3.625,8.098-8.098v-41.126h33.026v1.857  c-8.111,6.512-12.99,16.48-12.99,27.008c0,19.073,15.517,34.589,34.589,34.589c19.074,0,34.591-15.517,34.591-34.589  c0-10.527-4.88-20.495-12.991-27.009v-1.856h33.027v109.252L264.098,373.349L264.098,373.349z M138.651,373.349v-51.456  c0-0.003,0-0.008,0-0.011v-57.784h41.123c4.473,0,8.098-3.625,8.098-8.098v-14.168c0-2.857-1.506-5.505-3.963-6.962  c-5.568-3.308-9.028-9.373-9.028-15.83c0-10.143,8.251-18.393,18.393-18.393s18.393,8.251,18.393,18.393  c0,6.556-3.374,12.474-9.026,15.829c-2.457,1.459-3.965,4.105-3.965,6.963V256c0,4.473,3.625,8.098,8.098,8.098h41.126v33.028  h-1.856c-6.513-8.111-16.482-12.991-27.008-12.991c-19.074,0-34.591,15.517-34.591,34.591c0,19.073,15.517,34.59,34.591,34.59  c10.525,0,20.493-4.882,27.008-12.993h1.856v33.028H138.651V373.349z M247.902,138.651v41.126c0,4.473,3.625,8.098,8.098,8.098  h14.168c2.858,0,5.506-1.506,6.963-3.965c3.355-5.652,9.273-9.027,15.83-9.027c10.142,0,18.392,8.251,18.392,18.392  c0,10.143-8.251,18.394-18.392,18.394c-6.556,0-12.475-3.375-15.83-9.027c-1.46-2.457-4.105-3.965-6.963-3.965H256  c-4.473,0-8.098,3.625-8.098,8.098v41.125h-33.028v-1.855c8.11-6.512,12.99-16.481,12.99-27.009  c0-19.073-15.517-34.589-34.589-34.589s-34.589,15.517-34.589,34.589c0,10.525,4.882,20.493,12.99,27.008v1.856H138.65V138.651  H247.902z M20.625,77.383l57.83-57.832l33.408,33.408l-0.929,0.929c-0.003,0.003-0.008,0.006-0.012,0.011  c-0.003,0.003-0.006,0.008-0.011,0.012L56.043,108.78c-0.003,0.003-0.008,0.006-0.012,0.011c-0.004,0.004-0.006,0.008-0.011,0.012  l-1.988,1.988L20.625,77.383z M120.087,184.3c-0.042-0.042-0.083-0.083-0.126-0.123c-12.999-12.447-31.024-35.586-28.427-45.719  c0.71-2.772-0.094-5.714-2.118-7.737l-16.205-16.204l43.438-43.438l10.473,10.473c1.791,1.791,4.319,2.64,6.833,2.296  c22.923-3.161,29.263,1.228,37.295,6.783c6.029,4.169,13.532,9.358,27.254,11.504c12.554,1.962,16.084,6.406,16.493,8.229  c-0.396,2.602-1.481,3.637-2.507,4.3c-5.523,3.572-19.054,1.557-26.903-1.015c-4.244-1.404-8.823,0.902-10.227,5.145  c-0.404,1.221-0.492,2.468-0.326,3.661h-44.482c-4.473,0-8.098,3.625-8.098,8.098v56.115L120.087,184.3z M78.456,492.45  l-57.831-57.832l33.409-33.407l0.93,0.93c0.003,0.003,0.006,0.008,0.01,0.011s0.008,0.006,0.011,0.01l54.879,54.88l0,0l0,0l2,2  L78.456,492.45z M185.375,392.988c-0.04,0.04-0.082,0.083-0.121,0.123c-12.466,12.997-35.625,31.021-45.719,28.431  c-2.774-0.712-5.714,0.094-7.737,2.117l-16.206,16.205l-43.438-43.438l10.472-10.472c1.792-1.792,2.641-4.321,2.296-6.833  c-3.16-22.918,1.229-29.263,6.783-37.295c4.169-6.029,9.358-13.532,11.502-27.255c1.963-12.554,6.407-16.084,8.231-16.493  c2.602,0.396,3.635,1.481,4.3,2.507c3.574,5.524,1.557,19.06-1.015,26.907c-1.398,4.243,0.904,8.818,5.146,10.223  c0.858,0.284,1.73,0.409,2.587,0.405v43.329c0,4.473,3.625,8.098,8.098,8.098h58.264L185.375,392.988z M384.878,430.448  c-1.792-1.791-4.317-2.641-6.833-2.296c-22.924,3.16-29.265-1.228-37.296-6.782c-6.029-4.17-13.531-9.359-27.253-11.505  c-12.556-1.962-16.085-6.406-16.493-8.229c0.396-2.602,1.48-3.635,2.506-4.298c5.524-3.574,19.051-1.559,26.897,1.011  c4.25,1.406,8.826-0.898,10.232-5.143c0.404-1.221,0.492-2.468,0.326-3.661h44.484c4.473,0,8.098-3.625,8.098-8.098v-56.114  l2.365,2.366c0.042,0.042,0.083,0.083,0.126,0.123c13,12.447,31.025,35.587,28.427,45.719c-0.712,2.773,0.094,5.715,2.118,7.738  l16.206,16.205l-43.438,43.438L384.878,430.448z M433.545,492.45l-33.407-33.408l0.931-0.931c0.003-0.003,0.007-0.005,0.01-0.009  c0.003-0.003,0.005-0.007,0.009-0.01l56.882-56.882l33.407,33.406L433.545,492.45z"/>
<g>
</g>
<g>
</g>
<g>
</g>
<g>
</g>
<g>
</g>
<g>
</g>
<g>
</g>
<g>
</g>
<g>
</g>
<g>
</g>
<g>
</g>
<g>
</g>
<g>
</g>
<g>
</g>
<g>
</g>
</svg>
