<?xml version="1.0" encoding="iso-8859-1"?>
<!-- Generator: Adobe Illustrator 19.0.0, SVG Export Plug-In . SVG Version: 6.00 Build 0)  -->
<svg xmlns="http://www.w3.org/2000/svg" xmlns:xlink="http://www.w3.org/1999/xlink" version="1.1" id="Layer_1" x="0px" y="0px" viewBox="0 0 511.999 511.999" style="enable-background:new 0 0 511.999 511.999;" xml:space="preserve">
<g>
	<path style="fill:#FBCB99;" d="M145.009,289.509v-37.932c0-1.819-0.662-3.485-1.754-4.776l0.462-0.258l-1.977-1.106   c-0.918-0.619-1.983-1.032-3.129-1.189c-0.041-0.006-0.082-0.014-0.124-0.019c-0.29-0.034-0.584-0.058-0.883-0.058h-0.843   c-4.084,0-7.406,3.322-7.406,7.406v16.199c0,0.289-0.025,0.572-0.064,0.852c-0.009,0.069-0.02,0.138-0.031,0.206   c-0.042,0.253-0.096,0.503-0.167,0.746c-0.006,0.025-0.012,0.051-0.019,0.074c-0.081,0.266-0.182,0.522-0.295,0.774   c-0.027,0.061-0.058,0.12-0.086,0.179c-0.102,0.208-0.214,0.41-0.338,0.606c-0.027,0.043-0.052,0.089-0.08,0.131   c-0.146,0.22-0.307,0.428-0.479,0.629c-0.051,0.059-0.104,0.114-0.157,0.172c-0.149,0.16-0.304,0.314-0.47,0.461   c-0.044,0.039-0.085,0.08-0.13,0.117c-0.207,0.174-0.428,0.335-0.658,0.481c-0.05,0.032-0.102,0.064-0.154,0.094   c-0.232,0.14-0.471,0.269-0.722,0.381c-0.019,0.009-0.037,0.019-0.057,0.027l-0.07,0.03c-0.766,0.32-1.605,0.499-2.486,0.499   c-3.564,0-6.462-2.898-6.462-6.462v-21.786c0-1.825-0.668-3.497-1.768-4.789l0.466-0.262l-2.017-1.118   c-0.909-0.604-1.959-1.008-3.089-1.16c-0.04-0.006-0.08-0.014-0.12-0.019c-0.289-0.034-0.58-0.057-0.878-0.057h-0.843   c-2.811,0-5.343,1.553-6.606,4.053l-0.173,0.344v20.831c0,0.289-0.025,0.572-0.062,0.853c-0.009,0.068-0.02,0.137-0.031,0.204   c-0.042,0.254-0.096,0.506-0.168,0.751c-0.006,0.023-0.011,0.047-0.017,0.069c-0.082,0.267-0.184,0.526-0.297,0.78   c-0.026,0.058-0.056,0.114-0.083,0.171c-0.103,0.212-0.219,0.419-0.344,0.617c-0.025,0.04-0.047,0.082-0.073,0.121   c-0.148,0.222-0.31,0.432-0.484,0.635c-0.048,0.056-0.1,0.11-0.151,0.164c-0.151,0.164-0.308,0.32-0.475,0.467   c-0.043,0.038-0.084,0.079-0.127,0.115c-0.207,0.173-0.426,0.333-0.656,0.48c-0.053,0.033-0.109,0.066-0.162,0.098   c-0.222,0.135-0.452,0.258-0.694,0.366c-0.034,0.016-0.068,0.034-0.103,0.05l-0.032,0.015c-0.769,0.324-1.614,0.504-2.5,0.504   c-3.563,0-6.462-2.898-6.462-6.462v-23.092c0-1.827-0.668-3.498-1.768-4.79l0.46-0.26l-1.982-1.102   c-0.915-0.614-1.977-1.023-3.119-1.178c-0.039-0.006-0.078-0.014-0.116-0.019c-0.291-0.033-0.583-0.057-0.881-0.057h-0.843   c-2.725,0-5.219,1.495-6.509,3.9l-0.193,0.358v26.241c0,0.289-0.025,0.572-0.064,0.853c-0.009,0.068-0.019,0.137-0.031,0.204   c-0.042,0.254-0.096,0.506-0.168,0.751c-0.006,0.023-0.011,0.047-0.017,0.069c-0.082,0.267-0.184,0.526-0.297,0.78   c-0.026,0.058-0.056,0.114-0.083,0.171c-0.103,0.212-0.219,0.419-0.344,0.617c-0.025,0.04-0.047,0.082-0.073,0.121   c-0.148,0.222-0.31,0.432-0.484,0.635c-0.048,0.056-0.1,0.11-0.151,0.164c-0.151,0.164-0.308,0.32-0.475,0.467   c-0.043,0.038-0.084,0.079-0.127,0.115c-0.207,0.173-0.426,0.333-0.656,0.48c-0.053,0.033-0.109,0.066-0.162,0.098   c-0.222,0.135-0.452,0.258-0.694,0.366c-0.034,0.016-0.068,0.034-0.103,0.05l-0.032,0.015c-0.769,0.324-1.614,0.504-2.5,0.504   c-3.564,0-6.462-2.898-6.462-6.462v-31.183c0-1.819-0.662-3.485-1.754-4.776l0.462-0.258l-1.977-1.106   c-0.918-0.619-1.983-1.032-3.129-1.189c-0.041-0.006-0.082-0.014-0.124-0.019c-0.29-0.034-0.584-0.058-0.883-0.058h-0.852   c-4.084,0-7.406,3.322-7.406,7.406v48.413c0,0.289-0.025,0.572-0.064,0.852c-0.009,0.07-0.02,0.138-0.031,0.206   c-0.042,0.253-0.096,0.503-0.167,0.746c-0.006,0.024-0.012,0.051-0.019,0.074c-0.081,0.266-0.182,0.522-0.295,0.774   c-0.027,0.061-0.058,0.12-0.086,0.18c-0.102,0.207-0.214,0.408-0.337,0.604c-0.028,0.044-0.053,0.09-0.082,0.134   c-0.145,0.219-0.306,0.426-0.477,0.627c-0.052,0.06-0.106,0.116-0.16,0.176c-0.145,0.158-0.299,0.309-0.462,0.453   c-0.046,0.041-0.09,0.085-0.138,0.126c-0.205,0.171-0.423,0.33-0.65,0.475c-0.056,0.036-0.112,0.068-0.169,0.102   c-0.221,0.134-0.449,0.256-0.689,0.364c-0.034,0.016-0.068,0.034-0.103,0.05l-0.032,0.015c-0.77,0.324-1.614,0.504-2.5,0.504   c-3.564,0-6.462-2.898-6.462-6.462v-9.948l7.574-1.463l-9.942-1.286c-0.02-0.003-0.039-0.003-0.06-0.006   c-0.571-0.072-1.124-0.129-1.661-0.17c-0.08-0.006-0.156-0.011-0.236-0.016c-0.492-0.033-0.971-0.057-1.433-0.064   c-0.117-0.001-0.229,0.001-0.345,0.001c-0.417,0-0.825,0.008-1.214,0.031c-0.149,0.009-0.288,0.024-0.431,0.036   c-0.345,0.028-0.687,0.061-1.01,0.109c-0.172,0.025-0.332,0.061-0.498,0.092c-0.278,0.052-0.559,0.102-0.818,0.169   c-0.192,0.05-0.367,0.112-0.549,0.169c-0.213,0.068-0.433,0.129-0.633,0.209c-0.215,0.084-0.408,0.187-0.606,0.286   c-0.144,0.071-0.3,0.134-0.435,0.212c-0.324,0.187-0.624,0.392-0.895,0.619c-5.671,4.745-4.718,20.458-3.877,34.322   c1.175,19.399,21.689,38.682,29.494,44.475c1.635,1.213,2.611,3.152,2.611,5.188v19.385h9.693h71.019v-27.193   c0-1.905,0.834-3.703,2.286-4.933c15.106-12.787,15.937-41.25,14.983-51.135C145.019,289.926,145.009,289.718,145.009,289.509z"/>
	<path style="fill:#FBCB99;" d="M343.736,62.252l-2.183-1.117c-0.621-0.369-1.306-0.652-2.043-0.827l-0.827-0.197   c-0.561-0.134-1.138-0.202-1.711-0.202c-3.443,0-6.405,2.342-7.216,5.746l-7.079,22.615c-0.092,0.291-0.209,0.564-0.337,0.834   c-0.046,0.096-0.094,0.192-0.144,0.284c-0.082,0.154-0.176,0.3-0.269,0.446c-0.685,1.048-1.667,1.894-2.854,2.409l-0.541,0.235   c-0.639,0.209-1.317,0.322-2.018,0.322c-0.654,0-1.305-0.1-1.936-0.298c-1.647-0.516-2.994-1.643-3.793-3.173   c-0.799-1.53-0.955-3.279-0.437-4.926l6.886-21.945l1.254-5.27c0.586-2.462-0.141-4.934-1.722-6.683l0.467-0.285l-2.55-1.318   c-0.011-0.005-0.023-0.01-0.032-0.015c-0.244-0.124-0.495-0.238-0.755-0.336c-0.024-0.009-0.046-0.02-0.07-0.028   c-0.269-0.099-0.545-0.186-0.83-0.254l-0.815-0.193c-2.862-0.687-5.939,0.46-7.671,2.827l-0.165,0.226l-7.914,26.727   c-0.089,0.302-0.207,0.589-0.337,0.869c-0.034,0.075-0.071,0.15-0.11,0.223c-0.123,0.241-0.258,0.472-0.409,0.694   c-0.036,0.052-0.069,0.103-0.107,0.154c-0.151,0.207-0.318,0.402-0.49,0.589c-0.093,0.099-0.187,0.194-0.285,0.288   c-0.101,0.096-0.207,0.185-0.313,0.275c-0.468,0.39-0.992,0.724-1.567,0.975c-0.799,0.353-1.668,0.565-2.575,0.565   c-0.617,0-1.235-0.09-1.837-0.268c-1.655-0.49-3.021-1.594-3.844-3.112c-0.824-1.516-1.007-3.262-0.517-4.917l8.461-28.58   l0.027-0.108c0.423-1.901,0.098-3.852-0.917-5.497c-0.242-0.392-0.518-0.754-0.822-1.089l0.458-0.28l-2.118-1.089   c-0.647-0.389-1.356-0.685-2.112-0.864l-0.826-0.197c-2.691-0.64-5.581,0.321-7.362,2.44l-0.221,0.262l-9.288,32.185   c-0.087,0.303-0.204,0.592-0.333,0.873c-0.037,0.079-0.073,0.157-0.112,0.234c-0.117,0.232-0.248,0.454-0.39,0.669   c-0.048,0.071-0.097,0.143-0.148,0.212c-0.141,0.194-0.294,0.376-0.454,0.551c-0.101,0.111-0.207,0.216-0.316,0.32   c-0.084,0.08-0.171,0.154-0.258,0.229c-0.486,0.411-1.03,0.761-1.633,1.024l-0.407,0.177c-0.681,0.244-1.405,0.382-2.154,0.382   c-0.604,0-1.208-0.086-1.796-0.255c-3.424-0.988-5.404-4.577-4.417-8.001l9.535-33.045l0.819-3.454   c0.459-1.926,0.139-3.915-0.899-5.599c-0.226-0.366-0.485-0.703-0.764-1.02l0.527-0.293l-2.264-1.155   c-0.644-0.384-1.346-0.675-2.096-0.853l-0.807-0.191c-1.917-0.45-3.941-0.129-5.607,0.898c-1.683,1.037-2.861,2.669-3.322,4.604   l-14.462,53.742c-0.085,0.316-0.2,0.616-0.328,0.909c-0.03,0.07-0.064,0.14-0.096,0.208c-0.135,0.28-0.283,0.552-0.454,0.807   c-0.003,0.005-0.005,0.011-0.009,0.015c-0.178,0.263-0.38,0.506-0.592,0.739c-0.051,0.055-0.102,0.108-0.155,0.159   c-0.179,0.182-0.368,0.352-0.568,0.513c-0.053,0.042-0.101,0.088-0.155,0.128c-0.229,0.172-0.472,0.326-0.722,0.467   c-0.107,0.06-0.218,0.112-0.327,0.165c-0.866,0.425-1.825,0.674-2.835,0.674c-0.563,0-1.13-0.074-1.681-0.223   c-2.007-0.54-3.641-2.033-4.372-3.993l-0.243-0.653l-8.196-3.461l0,0l-8.684-3.666l-0.536,1.688   c-1.977,6.225-3.354,14.118-4.567,21.083c-0.376,2.151-0.519,4.336-0.473,6.531c0.397,19.021,15.11,38.75,18.298,42.804   c0.367,0.468,0.582,0.727,0.603,0.752c0.974,1.165,1.511,2.64,1.512,4.151l0.03,40.323h9.693h70.166l0.093-26.307   c0.009-2.437,1.366-4.637,3.539-5.74c21.08-10.69,26.341-45.942,26.392-46.302c0.039-0.277,0.097-0.561,0.171-0.833l11.967-43.282   c0.521-2.407-0.22-4.822-1.774-6.538L343.736,62.252z"/>
	<path style="fill:#FBCB99;" d="M496.971,244.964V207.03c0-1.818-0.661-3.483-1.753-4.774l0.461-0.258l-1.978-1.108   c-0.917-0.619-1.982-1.031-3.125-1.188c-0.041-0.006-0.082-0.014-0.123-0.019c-0.292-0.034-0.585-0.058-0.884-0.058h-0.843   c-4.085,0-7.408,3.322-7.408,7.405v16.199c0,0.289-0.025,0.572-0.064,0.852c-0.009,0.069-0.02,0.138-0.031,0.206   c-0.042,0.253-0.096,0.503-0.167,0.746c-0.006,0.025-0.012,0.051-0.019,0.074c-0.081,0.266-0.182,0.522-0.295,0.774   c-0.027,0.061-0.058,0.12-0.086,0.179c-0.102,0.208-0.214,0.41-0.337,0.606c-0.027,0.043-0.052,0.089-0.08,0.131   c-0.146,0.22-0.307,0.429-0.479,0.629c-0.051,0.059-0.104,0.114-0.157,0.172c-0.149,0.162-0.304,0.314-0.47,0.461   c-0.044,0.039-0.085,0.08-0.13,0.117c-0.207,0.174-0.428,0.335-0.658,0.481c-0.05,0.032-0.102,0.064-0.154,0.094   c-0.232,0.14-0.47,0.269-0.722,0.381c-0.019,0.009-0.037,0.019-0.057,0.027l-0.07,0.03c-0.766,0.32-1.605,0.499-2.486,0.499   c-3.564,0-6.462-2.898-6.462-6.462v-21.785c0-1.825-0.667-3.496-1.767-4.788l0.463-0.258l-1.977-1.1   c-0.915-0.616-1.979-1.026-3.123-1.183c-0.04-0.006-0.08-0.014-0.12-0.019c-0.29-0.033-0.582-0.057-0.879-0.057h-0.843   c-2.812,0-5.344,1.552-6.606,4.053l-0.173,0.342v20.832c0,0.289-0.025,0.572-0.064,0.852c-0.009,0.069-0.02,0.138-0.031,0.206   c-0.042,0.253-0.096,0.503-0.167,0.746c-0.006,0.025-0.012,0.051-0.019,0.074c-0.081,0.266-0.182,0.522-0.295,0.774   c-0.027,0.061-0.058,0.12-0.086,0.179c-0.102,0.208-0.214,0.41-0.338,0.606c-0.027,0.043-0.052,0.089-0.08,0.131   c-0.146,0.22-0.307,0.429-0.479,0.629c-0.051,0.059-0.104,0.114-0.157,0.172c-0.149,0.16-0.304,0.314-0.468,0.461   c-0.044,0.039-0.085,0.08-0.13,0.117c-0.207,0.174-0.429,0.335-0.658,0.481c-0.05,0.032-0.102,0.064-0.154,0.094   c-0.232,0.14-0.47,0.269-0.722,0.381c-0.019,0.009-0.037,0.019-0.057,0.027l-0.07,0.03c-0.766,0.32-1.605,0.499-2.486,0.499   c-3.564,0-6.462-2.898-6.462-6.462v-23.091c0-1.828-0.669-3.5-1.771-4.793l0.459-0.258l-1.983-1.103   c-0.914-0.613-1.972-1.02-3.111-1.176c-0.04-0.005-0.08-0.014-0.121-0.019c-0.289-0.033-0.582-0.057-0.88-0.057h-0.843   c-2.725,0-5.221,1.494-6.511,3.898l-0.193,0.359v26.241c0,0.289-0.025,0.572-0.064,0.852c-0.009,0.069-0.019,0.138-0.031,0.206   c-0.042,0.253-0.096,0.503-0.167,0.746c-0.006,0.025-0.012,0.051-0.019,0.074c-0.081,0.266-0.182,0.522-0.295,0.774   c-0.027,0.061-0.058,0.12-0.086,0.18c-0.102,0.207-0.214,0.408-0.336,0.604c-0.028,0.044-0.053,0.09-0.082,0.134   c-0.145,0.219-0.306,0.426-0.477,0.627c-0.052,0.06-0.106,0.116-0.159,0.176c-0.145,0.157-0.299,0.309-0.462,0.453   c-0.046,0.041-0.09,0.085-0.138,0.126c-0.205,0.171-0.423,0.33-0.649,0.475c-0.056,0.036-0.112,0.069-0.169,0.102   c-0.221,0.134-0.449,0.256-0.689,0.364c-0.034,0.016-0.068,0.034-0.103,0.05l-0.032,0.015c-0.77,0.324-1.614,0.504-2.5,0.504   c-3.564,0-6.462-2.898-6.462-6.462v-31.182c0-1.818-0.661-3.483-1.753-4.775l0.457-0.255l-1.96-1.101   c-0.919-0.624-1.988-1.039-3.138-1.197c-0.042-0.006-0.084-0.015-0.126-0.02c-0.292-0.034-0.585-0.058-0.884-0.058h-0.843   c-4.083,0-7.404,3.322-7.404,7.406v48.413c0,0.289-0.025,0.572-0.064,0.852c-0.009,0.069-0.02,0.138-0.031,0.206   c-0.042,0.253-0.096,0.503-0.167,0.746c-0.006,0.025-0.012,0.051-0.019,0.074c-0.081,0.266-0.182,0.522-0.295,0.774   c-0.027,0.061-0.058,0.12-0.086,0.18c-0.102,0.207-0.214,0.408-0.337,0.604c-0.028,0.044-0.053,0.09-0.082,0.134   c-0.145,0.219-0.306,0.426-0.477,0.627c-0.052,0.06-0.106,0.116-0.159,0.176c-0.145,0.157-0.299,0.309-0.462,0.453   c-0.046,0.041-0.09,0.085-0.138,0.126c-0.205,0.171-0.423,0.33-0.651,0.475c-0.056,0.036-0.112,0.069-0.169,0.102   c-0.221,0.134-0.449,0.256-0.689,0.364c-0.034,0.016-0.068,0.034-0.103,0.05l-0.032,0.015c-0.77,0.324-1.614,0.504-2.5,0.504   c-3.564,0-6.462-2.898-6.462-6.462v-9.95l7.565-1.463l-9.937-1.285c-0.025-0.003-0.048-0.004-0.073-0.008   c-0.568-0.072-1.119-0.129-1.652-0.169c-0.074-0.006-0.148-0.011-0.221-0.015c-0.501-0.034-0.986-0.057-1.455-0.064   c-0.107-0.002-0.208,0-0.312,0c-0.426,0-0.844,0.009-1.243,0.032c-0.139,0.009-0.269,0.022-0.404,0.033   c-0.353,0.029-0.701,0.062-1.031,0.111c-0.169,0.025-0.326,0.06-0.489,0.09c-0.28,0.052-0.561,0.102-0.823,0.169   c-0.197,0.051-0.377,0.114-0.563,0.173c-0.207,0.066-0.423,0.127-0.616,0.204c-0.229,0.09-0.435,0.198-0.646,0.304   c-0.13,0.066-0.274,0.123-0.397,0.195c-0.324,0.187-0.625,0.393-0.897,0.621c-5.671,4.745-4.718,20.458-3.877,34.321   c1.413,23.315,29.221,44.27,29.5,44.478c1.633,1.218,2.606,3.157,2.606,5.186v19.385h9.693h71.016V301.65   c0-1.905,0.832-3.703,2.286-4.932c15.106-12.787,15.937-41.25,14.983-51.133C496.982,245.381,496.971,245.172,496.971,244.964z"/>
</g>
<g>
	<path style="fill:#EDBA89;" d="M53.063,348.821c-7.805-5.793-28.319-25.075-29.494-44.475c-0.841-13.864-1.794-29.577,3.877-34.322   c0.271-0.227,0.571-0.432,0.895-0.619c0.135-0.079,0.292-0.141,0.435-0.212c0.198-0.099,0.391-0.202,0.606-0.286   c0.2-0.08,0.42-0.142,0.633-0.209c0.182-0.058,0.358-0.12,0.549-0.169c0.061-0.016,0.128-0.025,0.191-0.04l-1.101-0.142   c-0.02-0.003-0.039-0.003-0.06-0.006c-0.571-0.072-1.124-0.129-1.661-0.17c-0.08-0.006-0.156-0.011-0.236-0.016   c-0.492-0.033-0.971-0.057-1.433-0.064c-0.117-0.001-0.229,0.001-0.345,0.001c-0.417,0-0.825,0.008-1.214,0.031   c-0.149,0.009-0.288,0.024-0.431,0.036c-0.345,0.028-0.687,0.061-1.01,0.109c-0.172,0.025-0.332,0.061-0.498,0.092   c-0.278,0.052-0.559,0.102-0.818,0.169c-0.192,0.05-0.367,0.112-0.549,0.169c-0.213,0.068-0.433,0.129-0.633,0.209   c-0.215,0.084-0.408,0.187-0.606,0.286c-0.144,0.071-0.3,0.134-0.435,0.212c-0.324,0.187-0.624,0.392-0.895,0.619   c-5.671,4.745-4.718,20.458-3.877,34.322c1.175,19.399,21.689,38.682,29.494,44.475c1.635,1.213,2.611,3.152,2.611,5.188v19.385   h8.616v-19.385C55.672,351.972,54.697,350.033,53.063,348.821z"/>
	<path style="fill:#EDBA89;" d="M131.506,274.238c0.88,0,1.72-0.179,2.486-0.499l0.07-0.03c0.02-0.009,0.038-0.019,0.057-0.027   c0.251-0.112,0.49-0.241,0.722-0.381c0.052-0.03,0.104-0.061,0.154-0.094c0.23-0.148,0.451-0.307,0.658-0.481   c0.045-0.038,0.086-0.079,0.13-0.117c0.165-0.146,0.321-0.299,0.47-0.461c0.053-0.058,0.107-0.113,0.157-0.172   c0.172-0.201,0.334-0.409,0.479-0.629c0.028-0.042,0.053-0.088,0.08-0.131c0.123-0.196,0.236-0.397,0.337-0.606   c0.028-0.059,0.059-0.117,0.086-0.179c0.113-0.251,0.214-0.508,0.295-0.774c0.008-0.024,0.013-0.051,0.019-0.074   c0.071-0.244,0.125-0.493,0.167-0.746c0.012-0.068,0.023-0.137,0.031-0.206c0.038-0.28,0.064-0.563,0.064-0.852v-16.199   c0-2.657,1.411-4.984,3.518-6.292c-0.859-0.531-1.831-0.895-2.877-1.038c-0.041-0.006-0.082-0.014-0.124-0.019   c-0.29-0.034-0.584-0.058-0.883-0.058h-0.843c-4.084,0-7.406,3.322-7.406,7.406v16.199c0,0.289-0.025,0.572-0.064,0.852   c-0.009,0.069-0.02,0.138-0.031,0.206c-0.042,0.253-0.096,0.503-0.167,0.746c-0.006,0.025-0.012,0.051-0.019,0.074   c-0.081,0.266-0.182,0.522-0.295,0.774c-0.027,0.061-0.058,0.12-0.086,0.179c-0.102,0.208-0.214,0.41-0.338,0.606   c-0.027,0.043-0.052,0.089-0.08,0.131c-0.146,0.22-0.307,0.428-0.479,0.629c-0.051,0.059-0.104,0.114-0.157,0.172   c-0.139,0.151-0.285,0.293-0.438,0.431C128.342,273.606,129.85,274.238,131.506,274.238z"/>
	<path style="fill:#EDBA89;" d="M103.553,270.274c0.885,0,1.731-0.18,2.5-0.504l0.032-0.015c0.034-0.015,0.069-0.033,0.103-0.05   c0.241-0.108,0.472-0.232,0.694-0.366c0.054-0.032,0.109-0.065,0.162-0.098c0.229-0.149,0.449-0.307,0.656-0.48   c0.043-0.037,0.084-0.078,0.127-0.115c0.167-0.149,0.325-0.304,0.475-0.467c0.051-0.055,0.102-0.109,0.151-0.164   c0.173-0.202,0.337-0.414,0.484-0.635c0.026-0.039,0.048-0.081,0.073-0.121c0.125-0.199,0.241-0.405,0.344-0.617   c0.027-0.057,0.057-0.113,0.083-0.171c0.113-0.253,0.215-0.513,0.297-0.78c0.006-0.022,0.011-0.046,0.017-0.069   c0.072-0.246,0.126-0.496,0.168-0.751c0.012-0.068,0.023-0.136,0.031-0.204c0.038-0.281,0.064-0.565,0.064-0.853v-20.831   l0.173-0.344c0.627-1.241,1.568-2.247,2.699-2.947c-0.857-0.527-1.825-0.888-2.867-1.03c-0.04-0.006-0.08-0.014-0.12-0.019   c-0.289-0.034-0.58-0.057-0.878-0.057h-0.843c-2.811,0-5.343,1.553-6.606,4.053l-0.173,0.344v20.831   c0,0.289-0.025,0.572-0.062,0.853c-0.009,0.068-0.02,0.137-0.031,0.204c-0.042,0.254-0.096,0.506-0.168,0.751   c-0.006,0.023-0.011,0.047-0.017,0.069c-0.082,0.267-0.184,0.526-0.297,0.78c-0.026,0.058-0.056,0.114-0.083,0.171   c-0.103,0.212-0.219,0.419-0.344,0.617c-0.025,0.04-0.047,0.082-0.073,0.121c-0.148,0.222-0.31,0.432-0.484,0.635   c-0.048,0.056-0.1,0.11-0.151,0.164c-0.14,0.153-0.289,0.296-0.443,0.435C100.389,269.642,101.897,270.274,103.553,270.274z"/>
	<path style="fill:#EDBA89;" d="M75.679,270.274c0.885,0,1.731-0.18,2.5-0.504l0.032-0.015c0.034-0.015,0.068-0.033,0.103-0.05   c0.241-0.108,0.472-0.232,0.694-0.366c0.054-0.032,0.109-0.065,0.162-0.098c0.229-0.149,0.449-0.307,0.656-0.48   c0.043-0.037,0.084-0.078,0.127-0.115c0.167-0.149,0.325-0.304,0.475-0.467c0.051-0.055,0.102-0.109,0.151-0.164   c0.173-0.202,0.337-0.414,0.484-0.635c0.026-0.039,0.048-0.081,0.073-0.121c0.125-0.199,0.241-0.405,0.344-0.617   c0.027-0.057,0.057-0.113,0.083-0.171c0.113-0.253,0.215-0.513,0.297-0.78c0.006-0.022,0.011-0.046,0.017-0.069   c0.072-0.246,0.126-0.496,0.168-0.751c0.012-0.068,0.023-0.136,0.031-0.204c0.038-0.281,0.064-0.565,0.064-0.853v-26.241   l0.193-0.358c0.626-1.166,1.539-2.113,2.62-2.785c-0.863-0.532-1.837-0.897-2.885-1.039c-0.039-0.006-0.078-0.014-0.116-0.019   c-0.291-0.033-0.583-0.057-0.881-0.057h-0.843c-2.725,0-5.219,1.495-6.509,3.9l-0.193,0.358v26.241   c0,0.289-0.025,0.572-0.064,0.853c-0.009,0.068-0.019,0.137-0.031,0.204c-0.042,0.254-0.096,0.506-0.168,0.751   c-0.006,0.023-0.011,0.047-0.017,0.069c-0.082,0.267-0.184,0.526-0.297,0.78c-0.026,0.058-0.056,0.114-0.083,0.171   c-0.103,0.212-0.219,0.419-0.344,0.617c-0.025,0.04-0.047,0.082-0.073,0.121c-0.148,0.222-0.31,0.432-0.484,0.635   c-0.048,0.056-0.1,0.11-0.151,0.164c-0.14,0.153-0.289,0.296-0.443,0.435C72.514,269.642,74.022,270.274,75.679,270.274z"/>
	<path style="fill:#EDBA89;" d="M48.212,269.631l-3.266,0.631v10.78c0,0.289-0.025,0.572-0.064,0.852   c-0.009,0.07-0.02,0.138-0.031,0.206c-0.042,0.253-0.096,0.503-0.167,0.746c-0.006,0.024-0.012,0.051-0.019,0.074   c-0.081,0.266-0.182,0.522-0.295,0.774c-0.027,0.061-0.058,0.12-0.086,0.18c-0.102,0.207-0.214,0.408-0.337,0.604   c-0.028,0.044-0.053,0.09-0.082,0.134c-0.145,0.219-0.306,0.426-0.477,0.627c-0.052,0.06-0.106,0.116-0.16,0.176   c-0.137,0.15-0.284,0.292-0.436,0.429c1.144,1.027,2.653,1.66,4.309,1.66c0.885,0,1.73-0.18,2.5-0.504l0.032-0.015   c0.036-0.015,0.068-0.033,0.103-0.05c0.24-0.108,0.468-0.23,0.689-0.364c0.057-0.033,0.113-0.067,0.169-0.102   c0.227-0.146,0.445-0.304,0.65-0.475c0.047-0.041,0.092-0.085,0.138-0.126c0.162-0.144,0.317-0.295,0.462-0.453   c0.055-0.059,0.109-0.115,0.16-0.176c0.171-0.2,0.333-0.408,0.477-0.627c0.029-0.043,0.054-0.089,0.082-0.134   c0.122-0.196,0.235-0.396,0.337-0.604c0.028-0.06,0.059-0.118,0.086-0.18c0.113-0.251,0.214-0.508,0.295-0.774   c0.008-0.024,0.013-0.051,0.019-0.074c0.071-0.244,0.125-0.493,0.167-0.746c0.012-0.069,0.023-0.137,0.031-0.206   c0.038-0.28,0.064-0.563,0.064-0.852v-48.413c0-2.657,1.411-4.984,3.518-6.292c-0.859-0.531-1.831-0.895-2.877-1.038   c-0.041-0.006-0.082-0.014-0.124-0.019c-0.29-0.034-0.584-0.058-0.883-0.058h-0.846c-4.084,0-7.406,3.322-7.406,7.406v36.579   L48.212,269.631z"/>
	<path style="fill:#EDBA89;" d="M322.341,89.104c-0.046,0.096-0.094,0.192-0.144,0.284c-0.082,0.154-0.176,0.3-0.269,0.446   c-0.311,0.477-0.691,0.906-1.119,1.286c0.683,0.616,1.482,1.099,2.385,1.381c0.631,0.199,1.282,0.298,1.936,0.298   c0.701,0,1.38-0.112,2.018-0.322l0.541-0.235c1.188-0.516,2.17-1.362,2.854-2.409c0.094-0.145,0.187-0.292,0.269-0.446   c0.051-0.093,0.098-0.188,0.144-0.284c0.127-0.269,0.246-0.544,0.337-0.834l7.079-22.615c0.462-1.936,1.633-3.508,3.178-4.521   c-0.62-0.368-1.305-0.65-2.041-0.826l-0.827-0.197c-0.561-0.134-1.138-0.202-1.711-0.202c-3.443,0-6.405,2.342-7.216,5.746   l-7.079,22.615C322.585,88.561,322.468,88.835,322.341,89.104z"/>
	<path style="fill:#EDBA89;" d="M296.09,78.726c-0.034,0.075-0.071,0.15-0.11,0.223c-0.123,0.241-0.258,0.472-0.409,0.694   c-0.036,0.052-0.069,0.103-0.107,0.154c-0.151,0.207-0.318,0.402-0.49,0.589c-0.093,0.099-0.187,0.194-0.285,0.288   c-0.05,0.047-0.103,0.09-0.154,0.136c0.706,0.639,1.538,1.133,2.478,1.412c0.602,0.178,1.22,0.268,1.837,0.268   c0.907,0,1.776-0.212,2.575-0.565c0.575-0.251,1.099-0.585,1.567-0.975c0.107-0.089,0.212-0.179,0.313-0.275   c0.098-0.094,0.193-0.188,0.285-0.288c0.172-0.187,0.339-0.381,0.49-0.589c0.037-0.051,0.07-0.102,0.107-0.154   c0.151-0.221,0.286-0.452,0.409-0.694c0.038-0.073,0.074-0.148,0.11-0.223c0.13-0.28,0.248-0.566,0.337-0.869l7.914-26.727   l0.165-0.226c0.532-0.728,1.202-1.324,1.944-1.803l-0.383-0.199c-0.011-0.005-0.023-0.01-0.032-0.015   c-0.244-0.124-0.495-0.238-0.755-0.336c-0.024-0.009-0.046-0.02-0.07-0.028c-0.269-0.099-0.545-0.186-0.83-0.254l-0.815-0.193   c-2.862-0.687-5.94,0.46-7.671,2.827l-0.165,0.226l-7.914,26.727C296.337,78.159,296.22,78.446,296.09,78.726z"/>
	<path style="fill:#EDBA89;" d="M268.986,72.247c-0.037,0.079-0.073,0.157-0.112,0.234c-0.117,0.232-0.248,0.454-0.39,0.669   c-0.048,0.071-0.097,0.143-0.148,0.212c-0.141,0.194-0.294,0.376-0.454,0.551c-0.101,0.111-0.207,0.216-0.316,0.32   c-0.053,0.051-0.108,0.096-0.162,0.143c0.705,0.638,1.556,1.134,2.53,1.414c0.588,0.169,1.192,0.255,1.796,0.255   c0.749,0,1.473-0.139,2.154-0.382l0.407-0.177c0.603-0.263,1.146-0.613,1.633-1.024c0.087-0.075,0.174-0.15,0.258-0.229   c0.109-0.103,0.214-0.209,0.316-0.32c0.159-0.176,0.313-0.358,0.454-0.551c0.051-0.069,0.099-0.141,0.148-0.212   c0.143-0.214,0.272-0.437,0.39-0.669c0.039-0.076,0.075-0.155,0.112-0.234c0.128-0.281,0.246-0.57,0.333-0.873l9.288-32.185   l0.221-0.262c0.468-0.557,1.014-1.027,1.611-1.416c-0.628-0.368-1.311-0.654-2.039-0.827l-0.826-0.197   c-2.691-0.64-5.581,0.321-7.362,2.44l-0.221,0.262l-9.288,32.185C269.23,71.678,269.114,71.966,268.986,72.247z"/>
	<path style="fill:#EDBA89;" d="M238.259,85.986c0.551,0.149,1.117,0.223,1.681,0.223c1.009,0,1.969-0.249,2.835-0.674   c0.11-0.054,0.221-0.106,0.327-0.165c0.25-0.141,0.492-0.294,0.722-0.467c0.054-0.04,0.102-0.086,0.155-0.128   c0.2-0.159,0.389-0.331,0.568-0.513c0.053-0.053,0.104-0.106,0.155-0.159c0.212-0.233,0.415-0.475,0.592-0.739   c0.003-0.004,0.005-0.01,0.009-0.015c0.171-0.254,0.32-0.527,0.454-0.807c0.032-0.068,0.066-0.138,0.096-0.208   c0.128-0.292,0.243-0.593,0.328-0.909l14.462-53.742c0.445-1.87,1.564-3.45,3.156-4.49c-0.628-0.368-1.309-0.649-2.035-0.823   l-0.807-0.191c-1.917-0.45-3.941-0.129-5.607,0.898c-1.683,1.037-2.861,2.669-3.322,4.604l-14.462,53.742   c-0.085,0.316-0.2,0.616-0.328,0.909c-0.03,0.07-0.064,0.14-0.096,0.208c-0.135,0.28-0.283,0.552-0.454,0.807   c-0.003,0.005-0.005,0.011-0.009,0.015c-0.178,0.263-0.38,0.506-0.592,0.739c-0.051,0.055-0.102,0.108-0.155,0.159   c-0.098,0.099-0.206,0.187-0.31,0.28C236.364,85.217,237.265,85.719,238.259,85.986z"/>
	<path style="fill:#EDBA89;" d="M230.088,147.071c-0.022-0.025-0.236-0.284-0.603-0.752c-3.188-4.054-17.9-23.783-18.298-42.804   c-0.046-2.195,0.098-4.38,0.473-6.531c1.117-6.41,2.379-13.592,4.113-19.551l-7.625-3.219l-0.536,1.688   c-1.977,6.225-3.354,14.118-4.567,21.083c-0.376,2.151-0.519,4.336-0.473,6.531c0.397,19.021,15.11,38.75,18.298,42.804   c0.367,0.468,0.582,0.727,0.603,0.752c0.974,1.165,1.511,2.64,1.512,4.151l0.03,40.323h8.616l-0.03-40.323   C231.599,149.711,231.061,148.236,230.088,147.071z"/>
	<path style="fill:#EDBA89;" d="M455.519,225.729c0.88,0,1.72-0.179,2.486-0.499l0.07-0.03c0.02-0.009,0.038-0.019,0.057-0.027   c0.251-0.112,0.49-0.241,0.722-0.381c0.052-0.03,0.104-0.061,0.154-0.094c0.23-0.148,0.451-0.307,0.658-0.481   c0.045-0.038,0.086-0.079,0.13-0.117c0.165-0.146,0.321-0.299,0.468-0.461c0.053-0.058,0.107-0.113,0.157-0.172   c0.172-0.2,0.334-0.409,0.479-0.629c0.028-0.042,0.053-0.088,0.08-0.131c0.123-0.196,0.236-0.397,0.338-0.606   c0.028-0.059,0.059-0.117,0.086-0.179c0.113-0.251,0.214-0.508,0.295-0.774c0.008-0.025,0.013-0.051,0.019-0.074   c0.071-0.244,0.125-0.493,0.167-0.746c0.012-0.068,0.023-0.137,0.031-0.206c0.038-0.28,0.064-0.563,0.064-0.852v-20.832   l0.173-0.342c0.627-1.241,1.567-2.248,2.699-2.947c-0.857-0.527-1.824-0.887-2.866-1.03c-0.04-0.006-0.08-0.014-0.12-0.019   c-0.29-0.033-0.582-0.057-0.879-0.057h-0.843c-2.812,0-5.344,1.552-6.606,4.053l-0.173,0.342v20.832   c0,0.289-0.025,0.572-0.064,0.852c-0.009,0.069-0.02,0.138-0.031,0.206c-0.042,0.253-0.096,0.503-0.167,0.746   c-0.006,0.025-0.012,0.051-0.019,0.074c-0.081,0.266-0.182,0.522-0.295,0.774c-0.027,0.061-0.058,0.12-0.086,0.179   c-0.102,0.208-0.214,0.41-0.338,0.606c-0.027,0.043-0.052,0.089-0.08,0.131c-0.146,0.22-0.307,0.429-0.479,0.629   c-0.051,0.059-0.104,0.114-0.157,0.172c-0.139,0.151-0.285,0.293-0.438,0.431C452.354,225.096,453.863,225.729,455.519,225.729z"/>
	<path style="fill:#EDBA89;" d="M483.47,229.691c0.88,0,1.72-0.179,2.486-0.499l0.071-0.03c0.019-0.009,0.038-0.019,0.057-0.027   c0.251-0.112,0.49-0.241,0.722-0.381c0.052-0.03,0.104-0.061,0.154-0.094c0.23-0.148,0.451-0.307,0.658-0.481   c0.045-0.038,0.086-0.079,0.13-0.117c0.165-0.146,0.321-0.299,0.47-0.461c0.053-0.058,0.107-0.113,0.156-0.172   c0.172-0.2,0.334-0.409,0.479-0.629c0.028-0.042,0.053-0.088,0.08-0.131c0.123-0.196,0.236-0.397,0.338-0.606   c0.028-0.059,0.059-0.117,0.086-0.179c0.113-0.251,0.214-0.508,0.295-0.774c0.008-0.024,0.013-0.051,0.019-0.074   c0.071-0.244,0.125-0.493,0.167-0.746c0.012-0.069,0.023-0.137,0.031-0.206c0.038-0.28,0.064-0.563,0.064-0.852v-16.199   c0-2.656,1.412-4.983,3.52-6.291c-0.859-0.531-1.832-0.895-2.876-1.038c-0.041-0.006-0.082-0.014-0.123-0.019   c-0.292-0.034-0.585-0.058-0.884-0.058h-0.843c-4.085,0-7.408,3.322-7.408,7.405v16.199c0,0.289-0.025,0.572-0.064,0.852   c-0.009,0.069-0.02,0.138-0.031,0.206c-0.042,0.253-0.096,0.503-0.167,0.746c-0.007,0.025-0.012,0.051-0.019,0.074   c-0.081,0.266-0.182,0.522-0.295,0.774c-0.027,0.061-0.058,0.12-0.086,0.179c-0.102,0.208-0.214,0.41-0.337,0.606   c-0.027,0.043-0.052,0.089-0.08,0.131c-0.146,0.22-0.307,0.429-0.479,0.629c-0.051,0.059-0.104,0.114-0.157,0.172   c-0.139,0.151-0.285,0.294-0.438,0.431C480.305,229.06,481.813,229.691,483.47,229.691z"/>
	<path style="fill:#EDBA89;" d="M400.167,225.085l-3.257,0.63v10.784c0,0.289-0.025,0.572-0.064,0.852   c-0.009,0.069-0.02,0.138-0.031,0.206c-0.042,0.253-0.096,0.503-0.167,0.746c-0.007,0.025-0.012,0.051-0.019,0.074   c-0.081,0.266-0.182,0.522-0.295,0.774c-0.027,0.061-0.058,0.12-0.086,0.18c-0.102,0.207-0.214,0.408-0.337,0.604   c-0.028,0.044-0.053,0.09-0.082,0.134c-0.145,0.219-0.306,0.426-0.477,0.627c-0.052,0.06-0.106,0.116-0.159,0.176   c-0.137,0.15-0.284,0.291-0.436,0.429c1.145,1.027,2.653,1.66,4.309,1.66c0.885,0,1.73-0.18,2.5-0.504l0.032-0.015   c0.036-0.015,0.069-0.033,0.103-0.05c0.24-0.108,0.468-0.23,0.689-0.364c0.057-0.033,0.114-0.066,0.169-0.102   c0.227-0.146,0.445-0.304,0.651-0.475c0.047-0.041,0.092-0.085,0.138-0.126c0.162-0.144,0.317-0.295,0.462-0.453   c0.055-0.059,0.109-0.115,0.159-0.176c0.171-0.2,0.333-0.408,0.477-0.627c0.029-0.043,0.054-0.089,0.082-0.134   c0.122-0.196,0.235-0.396,0.337-0.604c0.028-0.06,0.059-0.118,0.086-0.18c0.113-0.251,0.214-0.508,0.295-0.774   c0.008-0.025,0.013-0.051,0.019-0.074c0.071-0.244,0.125-0.493,0.167-0.746c0.012-0.068,0.024-0.137,0.031-0.206   c0.038-0.28,0.064-0.563,0.064-0.852v-48.413c0-2.656,1.41-4.983,3.515-6.291c-0.858-0.53-1.828-0.895-2.872-1.038   c-0.042-0.006-0.084-0.015-0.126-0.02c-0.292-0.034-0.585-0.058-0.884-0.058h-0.843c-4.083,0-7.404,3.322-7.404,7.406v36.579   L400.167,225.085z"/>
	<path style="fill:#EDBA89;" d="M427.642,225.729c0.885,0,1.731-0.18,2.5-0.504l0.032-0.015c0.036-0.015,0.069-0.033,0.103-0.05   c0.24-0.108,0.468-0.23,0.689-0.364c0.057-0.033,0.113-0.066,0.169-0.102c0.227-0.146,0.445-0.304,0.649-0.475   c0.047-0.041,0.092-0.085,0.138-0.126c0.162-0.144,0.317-0.295,0.462-0.453c0.055-0.059,0.109-0.115,0.159-0.176   c0.171-0.2,0.333-0.408,0.477-0.627c0.029-0.043,0.054-0.089,0.082-0.134c0.122-0.196,0.235-0.396,0.336-0.604   c0.028-0.06,0.059-0.118,0.086-0.18c0.113-0.251,0.214-0.508,0.295-0.774c0.008-0.025,0.013-0.051,0.019-0.074   c0.071-0.244,0.125-0.493,0.167-0.746c0.012-0.068,0.023-0.137,0.031-0.206c0.038-0.28,0.064-0.563,0.064-0.852v-26.241   l0.193-0.359c0.626-1.165,1.539-2.112,2.62-2.783c-0.861-0.532-1.833-0.896-2.88-1.039c-0.04-0.005-0.08-0.014-0.121-0.019   c-0.289-0.033-0.582-0.057-0.88-0.057h-0.843c-2.725,0-5.221,1.494-6.511,3.898l-0.193,0.359v26.241   c0,0.289-0.025,0.572-0.064,0.852c-0.009,0.069-0.019,0.138-0.031,0.206c-0.042,0.253-0.096,0.503-0.167,0.746   c-0.006,0.025-0.012,0.051-0.019,0.074c-0.081,0.266-0.182,0.522-0.295,0.774c-0.027,0.061-0.058,0.12-0.086,0.18   c-0.102,0.207-0.214,0.408-0.336,0.604c-0.028,0.044-0.053,0.09-0.082,0.134c-0.145,0.219-0.306,0.426-0.477,0.627   c-0.052,0.06-0.106,0.116-0.159,0.176c-0.137,0.15-0.284,0.291-0.436,0.429C424.477,225.096,425.985,225.729,427.642,225.729z"/>
	<path style="fill:#EDBA89;" d="M405.032,304.277c-0.279-0.207-28.086-21.161-29.5-44.478c-0.841-13.863-1.794-29.576,3.877-34.321   c0.272-0.228,0.573-0.434,0.897-0.621c0.124-0.071,0.267-0.128,0.397-0.195c0.21-0.106,0.417-0.213,0.646-0.304   c0.194-0.076,0.409-0.138,0.616-0.204c0.186-0.059,0.366-0.123,0.563-0.173c0.061-0.016,0.128-0.025,0.191-0.039l-1.103-0.143   c-0.025-0.003-0.048-0.004-0.073-0.008c-0.568-0.072-1.119-0.129-1.652-0.169c-0.074-0.006-0.148-0.011-0.221-0.015   c-0.501-0.034-0.986-0.057-1.455-0.064c-0.107-0.002-0.208,0-0.312,0c-0.426,0-0.844,0.009-1.243,0.032   c-0.139,0.009-0.269,0.022-0.404,0.033c-0.353,0.029-0.701,0.062-1.031,0.111c-0.169,0.025-0.326,0.06-0.489,0.09   c-0.28,0.052-0.561,0.102-0.823,0.169c-0.197,0.051-0.377,0.114-0.563,0.173c-0.207,0.066-0.423,0.127-0.616,0.204   c-0.229,0.09-0.435,0.198-0.646,0.304c-0.13,0.066-0.274,0.123-0.397,0.195c-0.324,0.187-0.625,0.393-0.897,0.621   c-5.671,4.745-4.718,20.458-3.877,34.321c1.413,23.315,29.221,44.27,29.5,44.478c1.633,1.218,2.606,3.157,2.606,5.186v19.385h8.616   v-19.385C407.638,307.434,406.664,305.495,405.032,304.277z"/>
</g>
<polygon style="fill:#FBCB99;" points="158.503,35.831 166.542,18.905 139.383,17.156 "/>
<g>
	<path style="fill:#FBB616;" d="M346.995,118.611l15.905,6.717l9.717-21.235l-19.495-8.193l-5.893,21.306   C347.176,117.551,347.098,118.027,346.995,118.611z"/>
	<polygon style="fill:#FBB616;" points="234.011,45.902 180.72,23.505 171.264,43.414 228.208,67.465  "/>
</g>
<path style="fill:#ED2C40;" d="M376.71,130.775l9.995,4.222c1.335,0.563,2.811,0.575,4.151,0.028  c1.343-0.544,2.393-1.579,2.955-2.913l4.757-11.264c0.564-1.334,0.574-2.809,0.029-4.151c-0.546-1.342-1.581-2.392-2.914-2.955  l-9.376-3.941L376.71,130.775z"/>
<polygon style="fill:#DFE0E4;" points="36.359,387.933 36.359,413.329 139.256,413.329 139.256,387.933 134.231,387.933   40.595,387.933 "/>
<rect x="36.359" y="429.484" style="fill:#4982AA;" width="102.894" height="63.875"/>
<polygon style="fill:#EFF2F9;" points="53.728,387.933 53.728,413.329 139.256,413.329 139.256,387.933 135.078,387.933   57.249,387.933 "/>
<rect x="53.728" y="429.484" style="fill:#6598CB;" width="85.533" height="63.875"/>
<rect x="388.322" y="384.94" style="fill:#4982AA;" width="102.894" height="108.419"/>
<polygon style="fill:#DFE0E4;" points="388.324,343.387 388.324,368.782 491.218,368.782 491.218,343.387 486.193,343.387   392.56,343.387 "/>
<rect x="410.562" y="384.94" style="fill:#6598CB;" width="80.654" height="108.419"/>
<polygon style="fill:#EFF2F9;" points="410.565,343.387 410.565,368.782 491.218,368.782 491.218,343.387 487.28,343.387   413.885,343.387 "/>
<rect x="209.826" y="206.917" style="fill:#DFE0E4;" width="102.894" height="25.396"/>
<rect x="209.826" y="248.467" style="fill:#4982AA;" width="102.894" height="244.892"/>
<rect x="226.045" y="206.917" style="fill:#EFF2F9;" width="86.675" height="25.396"/>
<rect x="226.045" y="248.467" style="fill:#6598CB;" width="94.181" height="244.892"/>
<g>
	<polygon style="fill:#F7971E;" points="174.85,33.095 169.828,43.666 229.787,68.991 232.807,57.768  "/>
	<path style="fill:#F7971E;" d="M367.226,114.949l-18.557-7.9l-2.747,9.931c-0.056,0.367-0.139,0.872-0.247,1.492l16.897,7.137   l4.654-10.168v-0.492H367.226z"/>
</g>
<g>
	<path style="fill:#202121;" d="M419.248,227.834c-4.462,0-8.077-3.615-8.077-8.077v-27.436c0-4.462,3.615-8.077,8.077-8.077   c4.462,0,8.077,3.615,8.077,8.077v27.436C427.325,224.218,423.71,227.834,419.248,227.834z"/>
	<path style="fill:#202121;" d="M447.125,227.834c-4.461,0-8.077-3.615-8.077-8.077v-23.092c0-4.462,3.616-8.077,8.077-8.077   c4.462,0,8.077,3.615,8.077,8.077v23.091C455.202,224.218,451.587,227.834,447.125,227.834z"/>
	<path style="fill:#202121;" d="M475.076,231.797c-4.462,0-8.077-3.615-8.077-8.077v-16.199c0-4.462,3.615-8.077,8.077-8.077   s8.077,3.615,8.077,8.077v16.199C483.153,228.181,479.537,231.797,475.076,231.797z"/>
	<path style="fill:#202121;" d="M499.517,327.723h-5.025v-22.061c19.878-20.116,17.616-56.008,17.24-60.56v-37.58   c0-12.1-9.845-21.944-21.943-21.944h-0.843c-3.826,0-7.427,0.984-10.563,2.713c-4.024-5.052-10.227-8.298-17.173-8.298h-0.843   c-3.705,0-7.226,0.91-10.324,2.552c-4.028-4.781-10.059-7.824-16.786-7.824h-0.843c-3.068,0-6.018,0.633-8.708,1.794   c-3.929-5.95-10.677-9.884-18.326-9.884h-0.843c-12.099,0-21.943,9.845-21.943,21.945v21.147   c-8.815-0.947-15.701,0.737-20.909,5.097c-11.294,9.453-10.158,28.21-9.058,46.351c1.501,24.76,23.574,45.534,32.08,52.662v13.89   h-4.237c-4.462,0-8.077,3.615-8.077,8.077v41.55v124.573c0,4.462,3.615,8.077,8.077,8.077h119.049c4.462,0,8.077-3.615,8.077-8.077   V377.35V335.8C507.595,331.338,503.979,327.723,499.517,327.723z M388.545,343.878h4.237h93.633h5.025v25.395H388.545   L388.545,343.878L388.545,343.878z M397.605,303.473c-0.276-0.205-27.489-20.76-28.854-43.28   c-0.778-12.814-1.744-28.763,3.301-32.984c1.874-1.57,5.549-1.971,10.541-1.19v10.97c0,4.462,3.615,8.077,8.077,8.077   s8.077-3.615,8.077-8.077v-48.413c0-3.193,2.597-5.791,5.789-5.791h0.843c3.193,0,5.791,2.598,5.791,5.791v3.746   c0,3.966,2.88,7.346,6.796,7.975c3.916,0.63,7.71-1.68,8.953-5.446c0.784-2.378,2.992-3.976,5.495-3.976h0.843   c3.193,0,5.791,2.598,5.791,5.791v1.141c0,3.992,2.916,7.385,6.862,7.986c3.95,0.599,7.741-1.773,8.927-5.585   c0.756-2.429,2.979-4.061,5.529-4.061h0.843c3.192,0,5.789,2.598,5.789,5.79v5.586c0,4.462,3.615,8.077,8.077,8.077   s8.077-3.615,8.077-8.077c0-3.192,2.599-5.79,5.793-5.79h0.843c3.192,0,5.789,2.598,5.789,5.79v37.934   c0,0.258,0.013,0.517,0.037,0.775c0.932,9.655,0.155,37.413-14.418,49.75c-1.814,1.535-2.858,3.79-2.858,6.166v25.578h-77.478   v-17.77C400.859,307.404,399.647,304.997,397.605,303.473z M491.44,493.846H388.545V385.427H491.44V493.846z"/>
	<path style="fill:#202121;" d="M67.285,272.38c-4.462,0-8.077-3.615-8.077-8.077v-27.435c0-4.462,3.615-8.077,8.077-8.077   c4.462,0,8.077,3.615,8.077,8.077v27.436C75.363,268.764,71.746,272.38,67.285,272.38z"/>
	<path style="fill:#202121;" d="M95.159,272.38c-4.462,0-8.077-3.615-8.077-8.077V241.21c0-4.462,3.615-8.077,8.077-8.077   c4.462,0,8.077,3.615,8.077,8.077v23.092C103.237,268.764,99.621,272.38,95.159,272.38z"/>
	<path style="fill:#202121;" d="M123.113,276.344c-4.462,0-8.077-3.615-8.077-8.077v-16.199c0-4.462,3.615-8.077,8.077-8.077   s8.077,3.615,8.077,8.077v16.199C131.191,272.728,127.574,276.344,123.113,276.344z"/>
	<path style="fill:#202121;" d="M147.555,372.269h-5.025v-22.061c19.878-20.116,17.616-56.009,17.24-60.561v-37.579   c0-12.101-9.845-21.945-21.945-21.945h-0.843c-3.826,0-7.427,0.984-10.562,2.713c-4.024-5.053-10.228-8.298-17.174-8.298h-0.843   c-3.704,0-7.225,0.911-10.322,2.553c-4.029-4.782-10.06-7.826-16.788-7.826h-0.843c-3.067,0-6.017,0.633-8.706,1.793   c-3.929-5.949-10.677-9.883-18.326-9.883h-0.843c-12.101,0-21.945,9.845-21.945,21.945v21.148   c-8.818-0.953-15.698,0.737-20.907,5.096c-11.294,9.452-10.158,28.21-9.058,46.352c1.501,24.76,23.572,45.534,32.078,52.662v13.89   h-4.237c-4.462,0-8.077,3.615-8.077,8.077v41.551v80.026c0,4.462,3.615,8.077,8.077,8.077h119.051c4.462,0,8.077-3.615,8.077-8.077   v-80.026v-41.551C155.632,375.885,152.016,372.269,147.555,372.269z M36.581,388.423h4.236h93.635h5.025v25.396H36.581V388.423z    M45.631,348.013c-7.637-5.668-27.706-24.488-28.843-43.275c-0.778-12.814-1.744-28.764,3.301-32.985   c1.873-1.568,5.55-1.971,10.539-1.191v10.971c0,4.462,3.615,8.077,8.077,8.077s8.077-3.615,8.077-8.077V233.12   c0-3.193,2.598-5.791,5.791-5.791h0.844c3.193,0,5.791,2.598,5.791,5.791v3.747c0,3.966,2.88,7.346,6.796,7.975   c3.917,0.63,7.71-1.68,8.952-5.446c0.785-2.379,2.991-3.977,5.493-3.977h0.843c3.193,0,5.791,2.598,5.791,5.791v1.143   c0,3.991,2.915,7.384,6.861,7.986c3.946,0.593,7.739-1.773,8.927-5.583c0.757-2.431,2.98-4.063,5.53-4.063h0.843   c3.193,0,5.791,2.598,5.791,5.79v5.587c0,4.462,3.615,8.077,8.077,8.077c4.462,0,8.077-3.615,8.077-8.077   c0-3.193,2.598-5.791,5.791-5.791h0.843c3.193,0,5.791,2.598,5.791,5.791V290c0,0.258,0.013,0.517,0.037,0.775   c0.932,9.655,0.156,37.414-14.418,49.751c-1.814,1.535-2.858,3.79-2.858,6.166v25.578h-77.48V354.5   C48.894,351.942,47.683,349.536,45.631,348.013z M139.478,493.846H36.581v-63.872h102.897V493.846z"/>
	<path style="fill:#202121;" d="M412.582,110.729c-2.139-5.267-6.201-9.385-11.449-11.601l-43.864-18.436l2.028-7.333   c0.026-0.096,0.052-0.192,0.073-0.288c1.355-5.704,0.407-11.593-2.668-16.581c-3.074-4.991-7.909-8.484-13.605-9.837l-0.828-0.197   c-3.725-0.886-7.454-0.759-10.904,0.199c-2.747-5.847-8.033-10.437-14.793-12.044l-0.817-0.194   c-3.6-0.854-7.235-0.784-10.623,0.096c-0.283-0.559-0.591-1.109-0.923-1.649c-3.075-4.991-7.91-8.484-13.606-9.837l-0.827-0.197   c-2.98-0.708-5.991-0.778-8.871-0.268c-0.507-1.384-1.157-2.726-1.948-4.01c-3.076-4.991-7.909-8.485-13.624-9.842l-0.808-0.191   c-5.705-1.355-11.595-0.407-16.583,2.669c-4.952,3.052-8.431,7.836-9.806,13.484l-1.438,5.342L179.82,6.113   c-3.98-1.674-8.573,0.079-10.426,3.98l-16.009,33.704c-1.707,3.594-0.543,7.895,2.743,10.138c1.171,0.798,2.426,1.482,3.728,2.031   l34.59,14.609c-2.551,7.49-4.106,16.388-5.503,24.402c-4.414,25.322,13.653,51.585,19.726,59.551l0.028,36.724h-6.724   c-4.462,0-8.077,3.615-8.077,8.077v41.551v261.045c0,4.462,3.615,8.077,8.077,8.077h119.049c4.462,0,8.077-3.615,8.077-8.077   V299.799c0-4.462-3.615-8.077-8.077-8.077s-8.077,3.615-8.077,8.077v194.046H210.051v-244.89h102.895v13.464v8.974   c0,4.462,3.615,8.077,8.077,8.077s8.077-3.615,8.077-8.077v-8.974v-21.542v-41.551c0-4.462-3.615-8.077-8.077-8.077h-3.386   l0.073-20.866c13.642-9.036,21.3-24.73,25.429-37.009l36.951,15.606c2.664,1.125,5.471,1.688,8.279,1.688   c2.711,0,5.423-0.524,8.008-1.575c5.269-2.139,9.387-6.202,11.597-11.437l4.495-10.642   C414.681,121.779,414.721,115.995,412.582,110.729z M171.486,43.34l9.189-19.346l51.784,21.763l-5.639,20.952L171.486,43.34z    M210.051,232.801v-25.396h102.895v25.396H210.051z M343.679,69.227l-11.946,43.194c-0.094,0.337-0.166,0.692-0.214,1.038   c-0.05,0.346-5.115,34.737-25.523,45.085c-2.704,1.372-4.413,4.143-4.423,7.176l-0.087,24.697h-76.634l-0.029-38.707   c-0.001-1.892-0.674-3.733-1.889-5.185c-0.22-0.263-21.95-26.548-18.075-48.774c1.222-7.009,2.576-14.763,4.516-20.872   l14.606,6.169c0.881,2.364,2.844,4.283,5.466,4.989c4.302,1.158,8.74-1.393,9.898-5.7l14.417-53.566   c0.022-0.078,0.041-0.155,0.059-0.234c0.358-1.503,1.279-2.78,2.596-3.592c1.317-0.811,2.869-1.06,4.387-0.7l0.809,0.191   c1.503,0.358,2.78,1.279,3.592,2.597c0.811,1.317,1.061,2.87,0.702,4.378l-0.82,3.455l-9.515,32.968   c-1.236,4.287,1.234,8.764,5.521,10.001c0.749,0.215,1.503,0.319,2.244,0.319c3.507,0,6.735-2.303,7.756-5.839l9.194-31.856   c1.391-1.657,3.605-2.419,5.75-1.908l0.828,0.197c1.505,0.358,2.781,1.281,3.593,2.597c0.797,1.293,1.045,2.816,0.714,4.299   l-8.462,28.58c-1.267,4.278,1.175,8.772,5.453,10.037c0.765,0.226,1.537,0.334,2.296,0.334c3.485,0,6.702-2.273,7.741-5.787   l7.834-26.458c1.366-1.866,3.695-2.758,5.992-2.21l0.817,0.194c3.106,0.739,5.034,3.865,4.295,6.973l-1.226,5.158l-6.886,21.945   c-1.335,4.256,1.033,8.789,5.289,10.125c0.805,0.252,1.619,0.373,2.42,0.373c3.436,0,6.621-2.21,7.705-5.662l6.973-22.223   c0.03-0.097,0.048-0.194,0.075-0.291c0.024-0.088,0.055-0.172,0.076-0.262c0.738-3.107,3.865-5.033,6.966-4.296l0.828,0.197   C342.426,63.099,344.343,66.158,343.679,69.227z M362.042,123.822l-14.826-6.262c0.096-0.545,0.168-0.988,0.218-1.309l5.493-19.86   l18.173,7.638L362.042,123.822z M397.588,120.73l-4.495,10.644c-0.532,1.261-1.524,2.239-2.793,2.754   c-1.268,0.516-2.662,0.507-3.923-0.027l-9.445-3.989l9.069-19.819l8.86,3.724c1.26,0.532,2.238,1.524,2.754,2.793   C398.13,118.076,398.121,119.469,397.588,120.73z"/>
	<path style="fill:#202121;" d="M160.679,55.34c-2.035,0-4.071-0.765-5.642-2.299l-38.075-37.187   c-2.418-2.361-3.11-5.977-1.735-9.064c1.374-3.086,4.495-4.996,7.898-4.775l54.084,3.483c4.451,0.286,7.828,4.128,7.541,8.58   c-0.286,4.451-4.092,7.831-8.58,7.541l-32.317-2.082l22.47,21.946c3.192,3.117,3.252,8.231,0.135,11.421   C164.877,54.527,162.779,55.34,160.679,55.34z"/>
</g>
<g>
</g>
<g>
</g>
<g>
</g>
<g>
</g>
<g>
</g>
<g>
</g>
<g>
</g>
<g>
</g>
<g>
</g>
<g>
</g>
<g>
</g>
<g>
</g>
<g>
</g>
<g>
</g>
<g>
</g>
</svg>
