<?xml version="1.0" encoding="iso-8859-1"?>
<!-- Generator: Adobe Illustrator 19.0.0, SVG Export Plug-In . SVG Version: 6.00 Build 0)  -->
<svg xmlns="http://www.w3.org/2000/svg" xmlns:xlink="http://www.w3.org/1999/xlink" version="1.1" id="Layer_1" x="0px" y="0px" viewBox="0 0 512 512" style="enable-background:new 0 0 512 512;" xml:space="preserve">
<path style="fill:#694B4B;" d="M331.651,111.968h-4.065c-23.753,0-43.078,19.324-43.078,43.08v13.245l3.766-1.274  c0.602-0.205,1.214-0.308,1.852-0.308c0.359,0,36.202-0.261,52.422-22.686c1.293-1.786,3.587-2.683,5.761-2.24  c2.189,0.45,3.923,2.146,4.427,4.368c0.176,0.721,4.433,17.647,17.856,20.699c0.147,0.034,0.294,0.081,0.437,0.127l3.699,1.158  v-13.089C374.728,131.292,355.405,111.968,331.651,111.968z"/>
<g>
	<path style="fill:#FBCB99;" d="M333.962,226.678h-8.53c-1.007,0-2.075-0.044-3.357-0.14l-2.619-0.198v9.559l10.053,9.791   l10.43-10.827v-8.525l-2.619,0.197C336.045,226.633,334.979,226.678,333.962,226.678z"/>
	<path style="fill:#FBCB99;" d="M383.159,170.558h-14.739v-5.326l-3.247,1.153c-0.866,0.303-1.793,0.357-2.696,0.154   c-7.508-1.708-13.611-6.501-18.14-14.245l-1.449-2.484l-2.213,1.843c-17.803,14.838-43.562,15.008-44.65,15.008l-0.208-0.002   c-0.535-0.004-1.07-0.096-1.595-0.283l-3.246-1.141v5.324h-15.289V188.2h15.777c2.735,16.282,16.921,28.734,33.971,28.734h8.53   c17.047,0,31.234-12.451,33.975-28.734h15.222v-17.642H383.159z"/>
</g>
<path style="fill:#6598CB;" d="M392.6,267.396c-4.854-11.27-15.085-15.039-15.568-15.21c-0.072-0.023-0.111-0.04-0.194-0.074  L348,240.547l-14.871,15.436c-0.891,0.927-2.143,1.471-3.507,1.492c-1.277,0-2.485-0.491-3.4-1.383l-15.664-15.26l-28.853,11.298  c-0.065,0.027-0.129,0.051-0.263,0.096c-0.429,0.155-10.589,3.924-15.435,15.184l-0.732,1.69l1.429,1.163  c17.642,14.356,39.873,22.264,62.593,22.264c22.727,0,44.961-7.91,62.607-22.276l1.426-1.163L392.6,267.396z"/>
<path style="fill:#563B3B;" d="M298.19,155.048c0-22.126,16.773-40.407,38.271-42.806c-1.579-0.176-3.184-0.274-4.809-0.274h-4.065  c-23.753,0-43.078,19.324-43.078,43.08v13.245l3.766-1.274c0.602-0.205,1.214-0.308,1.852-0.308c0.104,0,3.262-0.027,8.063-0.621  v-11.043H298.19z"/>
<g>
	<path style="fill:#EDBA89;" d="M337.124,226.678h2.817v-0.339l-2.619,0.197c-0.637,0.05-1.225,0.083-1.775,0.108   C336.1,226.666,336.622,226.678,337.124,226.678z"/>
	<path style="fill:#EDBA89;" d="M331.153,235.899v-9.222h-5.721c-1.007,0-2.075-0.044-3.357-0.14l-2.619-0.198v9.559l10.053,9.791   l5.662-5.876L331.153,235.899z"/>
	<path style="fill:#EDBA89;" d="M305.972,170.26c0.554,0.193,1.117,0.293,1.679,0.296l0.22,0.002   c1.029,0,22.936-0.154,40.965-11.449c-0.849-1.146-1.662-2.363-2.424-3.671l-1.528-2.612l-2.326,1.938   c-12.201,10.168-27.946,13.79-37.766,15.078L305.972,170.26z"/>
	<path style="fill:#EDBA89;" d="M302.67,182.475V170.13c-3.815,0.41-6.324,0.427-6.645,0.427l-0.208-0.002   c-0.535-0.003-1.07-0.096-1.595-0.283l-3.246-1.142v13.344c0,18.998,15.459,34.459,34.458,34.459h8.53   c0.532,0,1.057-0.016,1.582-0.04C317.277,216.063,302.67,200.946,302.67,182.475z"/>
</g>
<g>
	<path style="fill:#202121;" d="M333.273,229.934h-7.804c-24.315,0-44.096-21.291-44.096-47.459v-17.23   c0-4.491,3.639-8.129,8.129-8.129s8.129,3.639,8.129,8.129v17.23c0,17.204,12.487,31.201,27.838,31.201h7.804   c15.349,0,27.837-13.996,27.837-31.201v-17.23c0-4.491,3.639-8.129,8.129-8.129c4.491,0,8.129,3.639,8.129,8.129v17.23   C377.368,208.644,357.588,229.934,333.273,229.934z"/>
	<path style="fill:#202121;" d="M365.519,173.496c-0.65,0-1.31-0.078-1.969-0.243c-10.468-2.606-17.011-10.366-20.944-17.502   c-19.941,17.657-47.983,17.738-49.421,17.743c-4.489-0.024-8.11-3.683-8.085-8.174c0.024-4.474,3.659-8.085,8.128-8.085   c0.009,0,0.017,0,0.025,0l0,0c0,0,0,0,0.001,0c0.322,0,31.308-0.238,45.267-21.338c1.811-2.737,5.083-4.119,8.315-3.499   c3.225,0.62,5.759,3.119,6.424,6.334c0.028,0.129,3.758,16.141,14.216,18.743c4.357,1.085,7.009,5.495,5.926,9.852   C372.481,171.026,369.165,173.496,365.519,173.496z"/>
	<path style="fill:#202121;" d="M374.66,177.709c-4.491,0-8.129-3.639-8.129-8.129v-13.408c0-21.772-15.887-39.486-35.417-39.486   h-3.627c-19.528,0-35.417,17.714-35.417,39.486v13.408c0,4.491-3.639,8.129-8.129,8.129s-8.129-3.639-8.129-8.129v-13.408   c0-30.737,23.182-55.744,51.675-55.744h3.627c28.493,0,51.675,25.006,51.675,55.744v13.408   C382.789,174.07,379.15,177.709,374.66,177.709z"/>
	<path style="fill:#202121;" d="M314.585,244.129c-4.491,0-8.129-3.639-8.129-8.129v-15.16c0-4.491,3.639-8.129,8.129-8.129   s8.129,3.639,8.129,8.129V236C322.714,240.49,319.075,244.129,314.585,244.129z"/>
	<path style="fill:#202121;" d="M344.815,244.129c-4.491,0-8.129-3.639-8.129-8.129v-15.16c0-4.491,3.639-8.129,8.129-8.129   c4.489,0,8.129,3.639,8.129,8.129V236C352.944,240.49,349.305,244.129,344.815,244.129z"/>
	<path style="fill:#202121;" d="M329.62,260.729c-2.117,0-4.152-0.827-5.672-2.305l-15.036-14.645   c-3.216-3.133-3.283-8.28-0.152-11.496c3.135-3.214,8.28-3.283,11.496-0.152l9.18,8.943l9.523-9.885   c3.117-3.233,8.263-3.326,11.495-0.214c3.232,3.115,3.329,8.261,0.214,11.495l-15.194,15.77c-1.502,1.559-3.562,2.454-5.725,2.487   C329.706,260.729,329.664,260.729,329.62,260.729z"/>
	<path style="fill:#202121;" d="M261.183,274.385c-1.008,0-2.031-0.189-3.023-0.586c-4.168-1.67-6.191-6.404-4.52-10.57   c6.625-16.522,21.158-22.414,23.427-23.245l34.553-13.531c4.185-1.637,8.898,0.426,10.534,4.604   c1.638,4.181-0.425,8.896-4.604,10.534l-34.649,13.57c-0.124,0.049-0.248,0.094-0.375,0.137   c-0.319,0.115-9.613,3.552-13.796,13.982C267.457,272.454,264.405,274.385,261.183,274.385z"/>
	<path style="fill:#202121;" d="M398.173,276.503c-3.421,0-6.604-2.176-7.725-5.604c-3.825-11.695-14.029-15.473-14.462-15.628   c-0.147-0.05-0.218-0.077-0.362-0.135l-33.836-13.57c-4.166-1.671-6.19-6.404-4.519-10.571c1.671-4.168,6.401-6.191,10.571-4.519   l33.713,13.52c2.507,0.923,18.315,7.408,24.347,25.848c1.396,4.268-0.931,8.859-5.198,10.253   C399.863,276.373,399.011,276.503,398.173,276.503z"/>
	<path style="fill:#202121;" d="M373.788,202.882c-4.491,0-8.129-3.639-8.129-8.129s3.639-8.129,8.129-8.129   c2.46,0,4.463-2.425,4.463-5.406c0-2.979-2.003-5.401-4.463-5.401c-4.491,0-8.129-3.639-8.129-8.129s3.639-8.129,8.129-8.129   c11.426,0,20.722,9.717,20.722,21.659C394.51,193.163,385.215,202.882,373.788,202.882z"/>
	<path style="fill:#202121;" d="M284.86,202.882c-11.423,0-20.716-9.719-20.716-21.665c0-11.943,9.293-21.659,20.716-21.659   c4.491,0,8.129,3.639,8.129,8.129s-3.639,8.129-8.129,8.129c-2.459,0-4.458,2.422-4.458,5.401c0,2.982,2,5.406,4.458,5.406   c4.491,0,8.129,3.639,8.129,8.129C292.99,199.244,289.351,202.882,284.86,202.882z"/>
</g>
<path style="fill:#C8D0E2;" d="M198.246,386.482c-3.795,0-7.084-2.625-7.926-6.324c-1.96-8.608-5.348-16.778-10.069-24.284  c-2.02-3.212-1.551-7.394,1.133-10.078l9.548-9.548l-15.841-15.842l-9.549,9.549c-2.683,2.684-6.866,3.152-10.078,1.132  c-7.506-4.724-15.676-8.111-24.282-10.068c-3.7-0.841-6.327-4.133-6.327-7.927v-13.493H102.45v13.493  c0,3.795-2.625,7.085-6.327,7.927c-8.606,1.957-16.775,5.345-24.282,10.068c-3.213,2.02-7.394,1.552-10.078-1.133l-9.548-9.549  l-15.841,15.844l9.548,9.547c2.684,2.684,3.153,6.865,1.133,10.078c-4.724,7.508-8.111,15.678-10.069,24.283  c-0.841,3.7-4.132,6.326-7.926,6.326H15.567v22.404H29.06c3.795,0,7.085,2.626,7.926,6.326c1.959,8.608,5.346,16.778,10.069,24.284  c2.021,3.212,1.551,7.394-1.133,10.078l-9.548,9.548l15.842,15.841l9.548-9.549c2.683-2.684,6.865-3.152,10.078-1.132  c7.503,4.721,15.673,8.11,24.284,10.07c3.699,0.841,6.324,4.131,6.324,7.926v13.491h22.403v-13.491c0-3.795,2.625-7.084,6.324-7.926  c8.609-1.961,16.78-5.349,24.283-10.07c3.212-2.022,7.394-1.552,10.078,1.132l9.549,9.549l15.841-15.841l-9.549-9.55  c-2.683-2.684-3.153-6.865-1.132-10.078c4.721-7.503,8.11-15.673,10.069-24.282c0.842-3.7,4.132-6.326,7.926-6.326h13.493v-22.404  L198.246,386.482L198.246,386.482z M113.653,444.638c-25.87,0-46.841-20.972-46.841-46.841c0-25.869,20.971-46.841,46.841-46.841  c25.869,0,46.841,20.972,46.841,46.841C160.494,423.666,139.522,444.638,113.653,444.638z"/>
<path style="fill:#ACB7C9;" d="M160.751,397.629c0-30.529-24.748-55.278-55.278-55.278c-30.529,0-55.278,24.749-55.278,55.278  s24.748,55.278,55.278,55.278C136.002,452.907,160.751,428.158,160.751,397.629z M66.812,397.797  c0-25.869,20.971-46.841,46.841-46.841c25.869,0,46.841,20.972,46.841,46.841c0,25.869-20.972,46.841-46.841,46.841  C87.783,444.638,66.812,423.666,66.812,397.797z"/>
<g>
	<path style="fill:#C8D0E2;" d="M329.681,73.722c-60.421,0-109.402,48.98-109.402,109.402s48.982,109.401,109.402,109.401   c60.42,0,109.4-48.979,109.4-109.401S390.101,73.722,329.681,73.722z M329.607,279.129c-53.449,0-96.778-43.33-96.778-96.778   s43.328-96.778,96.778-96.778s96.778,43.33,96.778,96.778S383.056,279.129,329.607,279.129z"/>
	<path style="fill:#C8D0E2;" d="M461.301,152.549c-3.374-14.824-9.208-28.893-17.34-41.818c-2.02-3.212-1.551-7.394,1.132-10.077   L464.645,81.1l-33.722-33.722l-19.553,19.554c-2.685,2.683-6.865,3.153-10.078,1.132c-12.926-8.133-26.995-13.967-41.818-17.339   c-3.7-0.842-6.326-4.133-6.326-7.926V15.163h-47.691v27.635c0,3.795-2.625,7.084-6.326,7.926   c-14.823,3.372-28.892,9.205-41.818,17.339c-3.213,2.021-7.395,1.551-10.077-1.133l-19.553-19.553l-33.723,33.724l19.553,19.551   c2.684,2.684,3.153,6.866,1.133,10.078c-8.132,12.925-13.967,26.995-17.339,41.818c-0.841,3.7-4.132,6.326-7.926,6.326h-27.636   v47.691h27.635c3.795,0,7.085,2.625,7.926,6.326c3.373,14.826,9.208,28.896,17.339,41.82c2.021,3.212,1.551,7.394-1.132,10.078   l-19.553,19.551l33.723,33.722l19.553-19.552c2.683-2.683,6.864-3.153,10.077-1.132c12.921,8.13,26.99,13.964,41.819,17.34   c3.699,0.841,6.324,4.131,6.324,7.926v27.632h47.691v-27.632c0-3.795,2.625-7.084,6.324-7.926   c14.83-3.376,28.898-9.21,41.819-17.34c3.213-2.021,7.394-1.551,10.077,1.132l19.554,19.552l33.722-33.722l-19.553-19.554   c-2.683-2.684-3.152-6.865-1.132-10.077c8.131-12.922,13.966-26.991,17.34-41.818c0.841-3.7,4.132-6.326,7.926-6.326h27.635   v-47.691h-27.635C465.432,158.875,462.143,156.25,461.301,152.549z M329.305,287.628c-57.847,0-104.909-47.061-104.909-104.905   c0-57.848,47.062-104.91,104.909-104.91s104.907,47.062,104.907,104.91C434.212,240.567,387.151,287.628,329.305,287.628z"/>
</g>
<path style="fill:#ACB7C9;" d="M313.282,286.405c-50.269-7.737-88.886-51.285-88.886-103.683c0-50.81,36.309-93.293,84.341-102.88  c-53.76,3.698-96.225,48.473-96.225,103.171C212.513,239.245,257.391,284.995,313.282,286.405z"/>
<g>
	<path style="fill:#202121;" d="M360.993,365.932h-63.577c-4.491,0-8.129-3.639-8.129-8.129v-29.213   c-12.123-3.318-23.748-8.139-34.694-14.386l-20.67,20.667c-3.175,3.174-8.322,3.174-11.496,0l-44.957-44.956   c-1.525-1.525-2.381-3.592-2.381-5.749c0-2.156,0.857-4.224,2.381-5.749l20.67-20.666c-6.25-10.948-11.07-22.572-14.387-34.697   h-29.214c-4.489,0-8.129-3.639-8.129-8.129v-63.577c0-4.491,3.64-8.129,8.129-8.129h29.214   c3.318-12.123,8.138-23.747,14.386-34.695l-20.668-20.666c-1.524-1.524-2.381-3.592-2.381-5.749c0-2.156,0.856-4.223,2.381-5.748   l44.957-44.958c1.524-1.524,3.592-2.38,5.748-2.38c2.156,0,4.224,0.856,5.748,2.38l20.67,20.67   c10.948-6.251,22.571-11.071,34.694-14.387V8.472c0-4.489,3.639-8.129,8.129-8.129h63.577c4.491,0,8.129,3.64,8.129,8.129v29.214   c12.123,3.318,23.747,8.138,34.695,14.387l20.668-20.67c3.176-3.174,8.322-3.174,11.498,0l44.955,44.956   c3.175,3.176,3.175,8.322,0,11.496l-20.668,20.67c6.25,10.947,11.07,22.571,14.387,34.695h29.214c4.491,0,8.129,3.639,8.129,8.129   v63.577c0,4.491-3.639,8.129-8.129,8.129h-29.214c-3.318,12.125-8.14,23.75-14.386,34.696l20.667,20.668   c3.175,3.175,3.175,8.321,0,11.496l-44.956,44.956c-3.176,3.174-8.323,3.174-11.497,0l-20.67-20.667   c-10.946,6.249-22.571,11.069-34.695,14.386v29.213C369.122,362.293,365.483,365.932,360.993,365.932z M305.544,349.674h47.319   v-27.425c0-3.795,2.625-7.084,6.324-7.926c14.736-3.356,28.72-9.152,41.562-17.234c3.213-2.021,7.394-1.551,10.077,1.132   l19.407,19.405l33.459-33.459l-19.406-19.407c-2.684-2.684-3.153-6.865-1.132-10.078c8.08-12.841,13.879-26.823,17.231-41.56   c0.842-3.7,4.133-6.326,7.926-6.326h27.428v-47.319h-27.428c-3.795,0-7.084-2.625-7.926-6.326   c-3.352-14.734-9.15-28.717-17.231-41.561c-2.02-3.212-1.552-7.393,1.132-10.077l19.406-19.407l-33.459-33.459l-19.406,19.407   c-2.686,2.684-6.867,3.151-10.078,1.132c-12.845-8.082-26.828-13.881-41.561-17.231c-3.7-0.842-6.326-4.133-6.326-7.926V16.601   h-47.319v27.428c0,3.795-2.625,7.084-6.326,7.926c-14.733,3.351-28.715,9.149-41.56,17.231c-3.21,2.019-7.394,1.552-10.077-1.132   l-19.407-19.407l-33.46,33.461l19.406,19.404c2.684,2.684,3.153,6.866,1.133,10.078c-8.082,12.846-13.88,26.829-17.233,41.561   c-0.842,3.7-4.132,6.326-7.926,6.326h-27.425v47.319h27.426c3.795,0,7.084,2.625,7.926,6.326   c3.352,14.735,9.151,28.718,17.233,41.563c2.021,3.212,1.551,7.394-1.132,10.078l-19.407,19.404l33.46,33.459l19.407-19.405   c2.683-2.683,6.864-3.153,10.077-1.132c12.843,8.08,26.825,13.878,41.561,17.234c3.699,0.841,6.324,4.131,6.324,7.926v27.424   H305.544z"/>
	<path style="fill:#202121;" d="M329.205,287.483c-57.538,0-104.347-46.808-104.347-104.344   c0-57.538,46.809-104.348,104.347-104.348c29.243,0,57.334,12.392,77.066,33.997c3.027,3.316,2.794,8.456-0.52,11.485   c-3.315,3.027-8.458,2.794-11.485-0.52c-16.659-18.241-40.373-28.702-65.06-28.702c-48.573,0-88.089,39.517-88.089,88.09   c0,48.57,39.516,88.086,88.089,88.086c48.572,0,88.088-39.515,88.088-88.086c0-13.211-2.851-25.911-8.472-37.747   c-1.926-4.055-0.201-8.904,3.855-10.83c4.058-1.926,8.905-0.201,10.83,3.855c6.665,14.032,10.045,29.079,10.045,44.723   C433.551,240.675,386.742,287.483,329.205,287.483z"/>
	<path style="fill:#202121;" d="M132.945,511.658H94.509c-4.489,0-8.129-3.639-8.129-8.129v-15.242   c-5.955-1.799-11.706-4.185-17.2-7.133l-10.784,10.784c-3.175,3.174-8.322,3.174-11.496,0l-27.179-27.178   c-1.525-1.525-2.381-3.592-2.381-5.749c0-2.156,0.856-4.224,2.381-5.749l10.784-10.783c-2.948-5.493-5.334-11.245-7.133-17.2H8.129   c-4.489,0-8.129-3.639-8.129-8.129v-38.438c0-4.491,3.64-8.129,8.129-8.129h15.243c1.799-5.955,4.184-11.706,7.133-17.199   L19.721,342.6c-3.175-3.176-3.175-8.322,0-11.497L46.9,303.924c1.524-1.524,3.592-2.38,5.748-2.38l0,0   c2.156,0,4.224,0.856,5.749,2.381l10.784,10.784c5.494-2.95,11.245-5.335,17.2-7.133v-15.243c0-4.491,3.64-8.129,8.129-8.129   h38.436c4.489,0,8.129,3.639,8.129,8.129v15.243c5.954,1.798,11.706,4.183,17.2,7.133l10.785-10.785   c1.524-1.524,3.592-2.38,5.748-2.38c2.156,0,4.224,0.856,5.748,2.38l27.178,27.179c3.175,3.176,3.175,8.322,0,11.497   l-10.784,10.782c2.949,5.493,5.334,11.245,7.133,17.2h15.243c4.489,0,8.129,3.639,8.129,8.129v38.438   c0,4.491-3.64,8.129-8.129,8.129h-15.243c-1.799,5.955-4.185,11.708-7.133,17.199l10.784,10.786c3.175,3.175,3.174,8.321,0,11.497   l-27.178,27.178c-3.175,3.174-8.322,3.174-11.496,0l-10.785-10.784c-5.493,2.948-11.244,5.334-17.2,7.133v15.24   C141.074,508.019,137.435,511.658,132.945,511.658z M102.638,495.399h22.178v-13.365c0-3.795,2.625-7.084,6.324-7.926   c8.553-1.948,16.671-5.313,24.129-10.006c3.212-2.021,7.394-1.551,10.077,1.132l9.46,9.46l15.683-15.683l-9.46-9.462   c-2.684-2.684-3.153-6.866-1.132-10.078c4.692-7.454,8.058-15.571,10.004-24.126c0.842-3.7,4.132-6.326,7.926-6.326h13.367v-22.179   h-13.366c-3.795,0-7.084-2.625-7.926-6.326c-1.947-8.553-5.313-16.671-10.005-24.128c-2.02-3.212-1.551-7.394,1.133-10.078   l9.459-9.459l-15.683-15.684l-9.46,9.46c-2.684,2.684-6.866,3.152-10.078,1.132c-7.46-4.694-15.577-8.061-24.126-10.003   c-3.701-0.841-6.327-4.132-6.327-7.927v-13.364h-22.178v13.369c0,3.796-2.626,7.085-6.327,7.927   c-8.549,1.943-16.666,5.309-24.126,10.003c-3.213,2.019-7.395,1.552-10.078-1.133l-9.459-9.46l-15.684,15.684l9.459,9.459   c2.683,2.684,3.153,6.866,1.133,10.078c-4.693,7.459-8.059,15.576-10.004,24.128c-0.841,3.699-4.132,6.326-7.926,6.326H16.258   v22.179h13.367c3.795,0,7.085,2.626,7.926,6.326c1.946,8.553,5.311,16.671,10.004,24.129c2.02,3.212,1.551,7.394-1.133,10.078   l-9.459,9.459l15.683,15.683l9.459-9.46c2.684-2.684,6.864-3.152,10.077-1.132c7.457,4.691,15.576,8.059,24.129,10.006   c3.699,0.841,6.324,4.131,6.324,7.926v13.362H102.638z"/>
	<path style="fill:#202121;" d="M113.728,453.083c-11.052,0-21.718-3.258-30.843-9.422c-3.721-2.512-4.7-7.565-2.186-11.286   c2.514-3.721,7.567-4.698,11.286-2.186c6.427,4.342,13.945,6.637,21.742,6.637c21.447,0,38.894-17.447,38.894-38.893   c0-21.447-17.447-38.895-38.894-38.895s-38.895,17.448-38.895,38.895c0,5.255,1.028,10.347,3.053,15.136   c1.748,4.135-0.185,8.905-4.32,10.653c-4.133,1.748-8.904-0.185-10.653-4.319c-2.878-6.805-4.337-14.028-4.337-21.471   c0-30.411,24.742-55.153,55.153-55.153s55.152,24.742,55.152,55.153C168.88,428.342,144.138,453.083,113.728,453.083z"/>
</g>
<g>
</g>
<g>
</g>
<g>
</g>
<g>
</g>
<g>
</g>
<g>
</g>
<g>
</g>
<g>
</g>
<g>
</g>
<g>
</g>
<g>
</g>
<g>
</g>
<g>
</g>
<g>
</g>
<g>
</g>
</svg>
