<?xml version="1.0" encoding="iso-8859-1"?>
<!-- Generator: Adobe Illustrator 19.0.0, SVG Export Plug-In . SVG Version: 6.00 Build 0)  -->
<svg xmlns="http://www.w3.org/2000/svg" xmlns:xlink="http://www.w3.org/1999/xlink" version="1.1" id="Layer_1" x="0px" y="0px" viewBox="0 0 512.001 512.001" style="enable-background:new 0 0 512.001 512.001;" xml:space="preserve">
<path style="fill:#694B4B;" d="M113.289,113.539c0,0-63.473,1.793-63.473,56.732v28.009c0,0,71.616-6.106,86.261-34.651  c0,0,8.985,33.214,41.977,34.651C178.054,198.279,190.042,113.539,113.289,113.539z"/>
<path style="fill:#563B3B;" d="M68.702,170.27c0-43.36,39.531-53.612,56.196-56.01c-3.629-0.463-7.483-0.722-11.609-0.722  c0,0-63.473,1.793-63.473,56.732v28.009c0,0,7.853-0.67,18.886-2.601V170.27z"/>
<g>
	<polygon style="fill:#EF4C35;" points="119.149,346.036 122.083,338.226 113.532,331.934 105.137,338.112 108.457,346.036  "/>
	<polygon style="fill:#EF4C35;" points="109.66,358.963 103.37,397.948 124.413,397.948 118.123,358.963  "/>
</g>
<g>
	<path style="fill:#FBCB99;" d="M54.557,227.739l2.526,1.721v-22.638l-2.526,1.721c-3.186,2.171-5.089,5.759-5.089,9.598   C49.468,221.981,51.371,225.569,54.557,227.739z"/>
	<path style="fill:#FBCB99;" d="M178.314,218.142c0-3.84-1.902-7.429-5.088-9.598l-2.526-1.721v22.637l2.526-1.721   C176.412,225.567,178.314,221.98,178.314,218.142z"/>
	<path style="fill:#FBCB99;" d="M108.965,273.09h9.854c21.479,0,38.954-17.476,38.954-38.956V200.23l-0.996-0.414   c-11.421-4.746-18.29-14.447-22.044-21.748l-0.967-1.883l-1.561,1.429c-19.181,17.571-45.703,22.456-59.86,23.809   c-0.294,0.038-0.585,0.075-0.89,0.109l-1.446,0.153v32.449C70.009,255.614,87.484,273.09,108.965,273.09z"/>
	<path style="fill:#FBCB99;" d="M108.965,286.017c-3.023,0-6.112-0.28-9.182-0.832l-1.901-0.34v14.384l15.747,15.337l16.273-16.892   v-12.829l-1.901,0.34c-3.072,0.552-6.162,0.831-9.181,0.831H108.965z"/>
</g>
<g>
	<path style="fill:#EDBA89;" d="M84.012,234.135v-32.449l1.446-0.153c0.305-0.032,0.597-0.07,0.89-0.109   c12.276-1.174,33.845-5.009,51.866-17.461c-1.376-2.039-2.529-4.044-3.481-5.896l-0.967-1.883l-1.561,1.429   c-19.181,17.571-45.703,22.456-59.86,23.809c-0.294,0.038-0.585,0.075-0.89,0.109l-1.446,0.153v32.449   c0,21.48,17.476,38.956,38.957,38.956h9.854c0.696,0,1.387-0.02,2.076-0.057C100.374,271.95,84.012,254.918,84.012,234.135z"/>
	<path style="fill:#EDBA89;" d="M122.969,286.017h6.933v-1.171l-1.901,0.34c-2.371,0.426-4.752,0.685-7.104,0.783   C121.59,285.997,122.282,286.017,122.969,286.017z"/>
	<path style="fill:#EDBA89;" d="M111.886,299.228v-13.212h-2.92c-3.023,0-6.112-0.28-9.182-0.832l-1.901-0.34v14.384l15.747,15.337   l6.779-7.036L111.886,299.228z"/>
</g>
<g>
	<path style="fill:#324A5E;" d="M42.178,321.751c-0.127,0.054-0.257,0.102-0.415,0.156c-1.133,0.396-27.759,10.131-27.759,43.785   v32.794h25.314v-34.555c0-3.267,2.659-5.925,5.925-5.925s5.925,2.658,5.925,5.925v41.018h43.264l-30.497-92.264L42.178,321.751z"/>
	<path style="fill:#324A5E;" d="M184.79,321.897c-0.131-0.044-0.262-0.093-0.393-0.148l-20.601-8.585l-23.901,85.321h35.517V363.93   c0-3.267,2.658-5.925,5.925-5.925c3.266,0,5.925,2.658,5.925,5.925v34.555h25.315v-32.794   C212.576,331.629,185.067,321.99,184.79,321.897z"/>
</g>
<g>
	<path style="fill:#283D4C;" d="M51.986,321.907c0.157-0.054,0.288-0.102,0.415-0.156l11.146-4.644l-1.238-4.422l-21.757,9.066   c-0.127,0.054-0.257,0.102-0.415,0.156c-1.134,0.397-27.76,10.132-27.76,43.785v32.794h11.849v-32.794   C24.226,332.039,50.851,322.304,51.986,321.907z"/>
	<path style="fill:#283D4C;" d="M55.464,358.006c-3.266,0-5.925,2.658-5.925,5.925v34.555h11.849v-34.555   C61.389,360.664,58.731,358.006,55.464,358.006z"/>
</g>
<g>
	<path style="fill:#EFF2F9;" d="M101.314,322.872l-15.532-15.13c-1.043-1.015-1.745-2.245-2.121-3.551l-5.674,3.744l11.501,23.639   L101.314,322.872z"/>
	<path style="fill:#EFF2F9;" d="M95.811,353.493l-2.084-4.977l-2.473,1.819c-0.6,0.442-1.258,0.775-1.942,1.032l4.341,15.499   L95.811,353.493z"/>
	<path style="fill:#EFF2F9;" d="M134.158,367.052l4.327-15.447c-0.951-0.257-1.863-0.67-2.676-1.269l-2.146-1.579l-1.718,4.575   L134.158,367.052z"/>
	<path style="fill:#EFF2F9;" d="M142.184,305.885l-16.393,17.017l9.01,6.63c0.005,0.004,0.012,0.009,0.017,0.013l2.758,2.029   l11.501-23.639l-5.656-3.734C143.087,304.8,142.681,305.369,142.184,305.885z"/>
</g>
<g>
	<path style="fill:#202121;" d="M189.538,308.721l-26.955-11.232l-18.138-11.971v-4.436c13.868-7.6,24.009-21.17,26.97-37.224   c12.179-2.223,21.441-12.905,21.441-25.715c0-6.716-2.547-12.848-6.723-17.484v-25.47c0-38.448-31.279-69.729-69.727-69.729h-5.139   c-38.445,0-69.724,31.28-69.724,69.729v25.593c-4.112,4.621-6.617,10.703-6.617,17.362c0,12.811,9.263,23.492,21.442,25.715   c2.962,16.055,13.103,29.624,26.971,37.224v3.962l-18.197,12.008c-0.238,0.074-0.474,0.156-0.709,0.254l-27.394,11.415   C24.057,313.223,0,330.734,0,365.692v38.71c0,4.463,3.616,8.089,8.079,8.089h53.056c4.463,0,8.079-3.616,8.079-8.079   c0-4.463-3.616-8.079-8.079-8.079h-7.814v-32.401c0-4.463-3.616-8.079-8.079-8.079s-8.079,3.616-8.079,8.079v32.401H16.158v-30.639   c0-32.158,25.291-41.392,26.319-41.753c0.181-0.061,0.359-0.127,0.534-0.201l19.505-8.129l22.67,80.929   c-3.596,0.819-6.281,4.028-6.281,7.871c0,4.463,3.616,8.079,8.079,8.079h8.768c0.009,0,0.016,0.002,0.025,0.002   c0.01,0,0.02-0.002,0.03-0.002h36.201h0.015h0.036c0.01,0,0.02,0.002,0.03,0.002c0.009,0,0.016-0.002,0.025-0.002h14.573h71.815   c4.463,0,8.079-3.693,8.079-8.155v-38.643C226.579,330.734,202.522,313.223,189.538,308.721z M99.498,289.478   c0-0.004,0-0.01,0-0.014v-2.688c3.075,0.552,6.236,0.856,9.468,0.856h9.853c3.232,0,6.391-0.304,9.467-0.855v10.245l-14.694,15.252   l-14.094-13.728v-9.069H99.498z M135.809,350.337c0.812,0.599,1.725,1.01,2.677,1.269l-4.327,15.447l-2.214-13.721l1.718-4.575   L135.809,350.337z M91.255,350.337l2.473-1.821l2.084,4.977l-2.158,13.375l-4.342-15.499   C89.995,351.11,90.655,350.778,91.255,350.337z M109.532,344.421l-2.413-5.761l6.413-4.72l6.609,4.864l-2.109,5.618   L109.532,344.421L109.532,344.421z M137.575,331.575l-2.757-2.029c-0.005-0.004-0.012-0.009-0.017-0.013l-9.01-6.631l16.393-17.016   c0.498-0.516,0.903-1.085,1.236-1.683l5.656,3.734L137.575,331.575z M172.317,226.403V209.88c2.642,1.8,4.381,4.831,4.381,8.263   C176.698,221.573,174.959,224.603,172.317,226.403z M111.266,121.618h5.139c29.538,0,53.569,24.032,53.569,53.57v14.579   c-0.064-0.065-0.134-0.124-0.199-0.185c-0.104-0.098-0.209-0.196-0.318-0.29c-0.087-0.073-0.178-0.143-0.267-0.213   c-0.114-0.089-0.229-0.178-0.349-0.261c-0.099-0.069-0.203-0.132-0.305-0.197c-0.115-0.073-0.231-0.145-0.35-0.213   c-0.122-0.068-0.247-0.129-0.372-0.192c-0.107-0.053-0.211-0.107-0.321-0.154c-0.151-0.067-0.306-0.124-0.461-0.182   c-0.092-0.033-0.181-0.07-0.274-0.1c-0.175-0.057-0.353-0.104-0.533-0.15c-0.066-0.017-0.128-0.04-0.195-0.055   c-16.758-3.812-22.027-25.54-22.072-25.732c-0.7-3.096-3.151-5.495-6.261-6.13c-3.112-0.637-6.305,0.608-8.165,3.18   c-20.397,28.197-65.35,28.481-65.954,28.481h-0.003c-0.01,0-0.02,0-0.029,0c-0.278,0-0.553,0.014-0.824,0.042   c-0.095,0.01-0.186,0.03-0.28,0.043c-0.175,0.024-0.35,0.044-0.52,0.08c-0.118,0.025-0.233,0.06-0.349,0.089   c-0.141,0.036-0.284,0.066-0.423,0.109c-0.126,0.039-0.247,0.089-0.369,0.135c-0.124,0.045-0.25,0.085-0.372,0.136   c-0.128,0.054-0.25,0.12-0.375,0.18c-0.11,0.053-0.223,0.101-0.33,0.159c-0.124,0.067-0.24,0.144-0.36,0.218   c-0.101,0.062-0.207,0.118-0.305,0.185c-0.112,0.075-0.217,0.161-0.324,0.241c-0.099,0.074-0.203,0.144-0.297,0.223   c-0.099,0.081-0.189,0.17-0.283,0.256c-0.097,0.088-0.198,0.171-0.291,0.264c-0.048,0.048-0.093,0.102-0.14,0.152v-14.698   C57.7,145.649,81.73,121.618,111.266,121.618z M51.084,218.142c0-3.432,1.74-6.464,4.382-8.263v16.526   C52.824,224.604,51.084,221.573,51.084,218.142z M71.624,234.135v-31.018c13.665-1.206,41.595-5.919,61.672-24.31   c4.154,8.082,11.287,17.691,22.862,22.501v32.826c0,20.589-16.751,37.34-37.339,37.34h-9.853   C88.375,271.474,71.624,254.724,71.624,234.135z M83.66,304.192c0.375,1.306,1.078,2.535,2.121,3.551l15.532,15.13l-11.825,8.703   l-11.503-23.64L83.66,304.192z M105.268,396.332l5.767-35.753h5.711l5.767,35.753H105.268z M210.421,396.332h-21.006v-32.401   c0-4.463-3.616-8.079-8.079-8.079s-8.079,3.616-8.079,8.079v32.401h-26.572h-3.949l22.476-80.242l18.354,7.648   c0.143,0.06,0.338,0.132,0.486,0.184c1.076,0.378,26.368,9.612,26.368,41.769v30.64H210.421z"/>
	<path style="fill:#202121;" d="M425.144,40.017c-4.463,0-8.079,3.617-8.079,8.079v9.264C371.555,20.354,314.969,0.16,255.84,0.16   c-65.173,0-127.261,24.53-174.827,69.073c-3.256,3.051-3.424,8.163-0.375,11.42c3.05,3.256,8.162,3.426,11.421,0.375   c44.559-41.728,102.725-64.709,163.781-64.709c54.96,0,107.571,18.629,150.032,52.784h-13.016c-4.463,0-8.079,3.617-8.079,8.079   c0,4.462,3.616,8.079,8.079,8.079h32.289c4.463,0,8.079-3.617,8.079-8.079V48.096C433.223,43.634,429.607,40.017,425.144,40.017z"/>
	<path style="fill:#202121;" d="M424.51,437.654c-2.93-3.366-8.03-3.719-11.398-0.79c-43.581,37.929-99.435,58.818-157.272,58.818   c-52.005,0-102.401-16.897-143.719-47.876h13.43c4.463,0,8.079-3.617,8.079-8.079c0-4.463-3.616-8.079-8.079-8.079H93.264   c-4.463,0-8.079,3.616-8.079,8.079v29.085c0,4.462,3.616,8.079,8.079,8.079c4.463,0,8.079-3.617,8.079-8.079v-8.884   c44.306,33.588,98.532,51.912,154.497,51.912c61.737,0,121.358-22.298,167.881-62.788   C427.086,446.124,427.44,441.02,424.51,437.654z"/>
</g>
<path style="fill:#694B4B;" d="M398.71,113.539c0,0-63.473,1.793-63.473,56.732v28.009c0,0,71.616-6.106,86.261-34.651  c0,0,8.985,33.214,41.977,34.651C463.474,198.279,475.463,113.539,398.71,113.539z"/>
<path style="fill:#563B3B;" d="M354.122,170.27c0-43.36,39.531-53.612,56.196-56.01c-3.629-0.463-7.483-0.722-11.609-0.722  c0,0-63.473,1.793-63.473,56.732v28.009c0,0,7.853-0.67,18.886-2.601V170.27z"/>
<g>
	<polygon style="fill:#EF4C35;" points="404.57,346.036 407.503,338.226 398.952,331.934 390.557,338.112 393.877,346.036  "/>
	<polygon style="fill:#EF4C35;" points="395.081,358.963 388.791,397.948 409.833,397.948 403.543,358.963  "/>
</g>
<g>
	<path style="fill:#FBCB99;" d="M339.976,227.739l2.526,1.721v-22.638l-2.526,1.721c-3.186,2.171-5.089,5.759-5.089,9.598   C334.889,221.981,336.79,225.569,339.976,227.739z"/>
	<path style="fill:#FBCB99;" d="M463.734,218.142c0-3.84-1.902-7.429-5.088-9.598l-2.526-1.721v22.637l2.526-1.721   C461.833,225.567,463.734,221.98,463.734,218.142z"/>
	<path style="fill:#FBCB99;" d="M394.386,273.09h9.853c21.48,0,38.954-17.476,38.954-38.956V200.23l-0.996-0.414   c-11.421-4.746-18.29-14.447-22.044-21.748l-0.967-1.883l-1.561,1.429c-19.181,17.571-45.703,22.456-59.86,23.809   c-0.293,0.038-0.585,0.075-0.89,0.109l-1.446,0.153v32.449C355.429,255.614,372.905,273.09,394.386,273.09z"/>
	<path style="fill:#FBCB99;" d="M394.386,286.017c-3.023,0-6.112-0.28-9.182-0.832l-1.901-0.34v14.384l15.747,15.337l16.272-16.892   v-12.829l-1.901,0.34c-3.072,0.552-6.162,0.831-9.181,0.831H394.386z"/>
</g>
<g>
	<path style="fill:#EDBA89;" d="M369.433,234.135v-32.449l1.446-0.153c0.305-0.032,0.597-0.07,0.89-0.109   c12.276-1.174,33.845-5.009,51.866-17.461c-1.376-2.039-2.529-4.044-3.48-5.896l-0.967-1.883l-1.561,1.429   c-19.181,17.571-45.703,22.456-59.86,23.809c-0.293,0.038-0.585,0.075-0.89,0.109l-1.446,0.153v32.449   c0,21.48,17.476,38.956,38.957,38.956h9.853c0.697,0,1.387-0.02,2.076-0.057C385.795,271.95,369.433,254.918,369.433,234.135z"/>
	<path style="fill:#EDBA89;" d="M408.39,286.017h6.933v-1.171l-1.901,0.34c-2.371,0.426-4.752,0.685-7.104,0.783   C407.011,285.997,407.702,286.017,408.39,286.017z"/>
	<path style="fill:#EDBA89;" d="M397.306,299.228v-13.212h-2.92c-3.023,0-6.112-0.28-9.182-0.832l-1.901-0.34v14.384l15.747,15.337   l6.779-7.036L397.306,299.228z"/>
</g>
<g>
	<path style="fill:#324A5E;" d="M327.598,321.751c-0.127,0.054-0.257,0.102-0.415,0.156c-1.134,0.397-27.76,10.132-27.76,43.785   v32.794h25.314v-34.555c0-3.267,2.659-5.925,5.925-5.925s5.925,2.658,5.925,5.925v41.018h43.264l-30.497-92.264L327.598,321.751z"/>
	<path style="fill:#324A5E;" d="M470.21,321.897c-0.131-0.044-0.262-0.093-0.393-0.148l-20.601-8.585l-23.901,85.321h35.517V363.93   c0-3.267,2.658-5.925,5.925-5.925c3.266,0,5.925,2.658,5.925,5.925v34.555h25.315v-32.794   C497.996,331.629,470.487,321.99,470.21,321.897z"/>
</g>
<g>
	<path style="fill:#283D4C;" d="M337.406,321.907c0.156-0.054,0.288-0.102,0.415-0.156l11.146-4.644l-1.238-4.422l-21.757,9.066   c-0.127,0.054-0.257,0.102-0.415,0.156c-1.134,0.397-27.76,10.132-27.76,43.785v32.794h11.849v-32.794   C309.646,332.039,336.272,322.304,337.406,321.907z"/>
	<path style="fill:#283D4C;" d="M340.884,358.006c-3.266,0-5.925,2.658-5.925,5.925v34.555h11.849v-34.555   C346.809,360.664,344.151,358.006,340.884,358.006z"/>
</g>
<g>
	<path style="fill:#EFF2F9;" d="M386.734,322.872l-15.532-15.13c-1.043-1.015-1.745-2.245-2.121-3.551l-5.674,3.744l11.501,23.639   L386.734,322.872z"/>
	<path style="fill:#EFF2F9;" d="M381.232,353.493l-2.083-4.977l-2.473,1.819c-0.6,0.442-1.258,0.775-1.942,1.032l4.341,15.499   L381.232,353.493z"/>
	<path style="fill:#EFF2F9;" d="M419.579,367.052l4.327-15.447c-0.951-0.257-1.864-0.67-2.676-1.269l-2.146-1.579l-1.718,4.575   L419.579,367.052z"/>
	<path style="fill:#EFF2F9;" d="M427.604,305.885l-16.393,17.017l9.01,6.63c0.005,0.004,0.012,0.009,0.017,0.013l2.758,2.029   l11.501-23.639l-5.656-3.734C428.508,304.8,428.102,305.369,427.604,305.885z"/>
</g>
<path style="fill:#202121;" d="M474.959,308.721l-26.955-11.232l-18.138-11.971v-4.436c13.868-7.6,24.009-21.17,26.97-37.224  c12.178-2.223,21.441-12.905,21.441-25.715c0-6.716-2.547-12.848-6.723-17.484v-25.47c0-38.448-31.279-69.729-69.727-69.729h-5.139  c-38.445,0-69.724,31.28-69.724,69.729v25.593c-4.112,4.621-6.617,10.703-6.617,17.362c0,12.811,9.263,23.492,21.443,25.715  c2.961,16.055,13.102,29.624,26.971,37.224v3.962l-18.198,12.008c-0.237,0.074-0.474,0.156-0.709,0.254l-27.394,11.415  c-12.984,4.502-37.04,22.014-37.04,56.971v38.71c0,4.463,3.616,8.089,8.079,8.089h53.056c4.463,0,8.079-3.616,8.079-8.079  c0-4.463-3.616-8.079-8.079-8.079h-7.814v-32.401c0-4.463-3.616-8.079-8.079-8.079c-4.463,0-8.079,3.616-8.079,8.079v32.401h-21.004  v-30.639c0-32.158,25.291-41.392,26.319-41.753c0.181-0.061,0.359-0.127,0.534-0.201l19.505-8.129l22.67,80.929  c-3.596,0.819-6.281,4.028-6.281,7.871c0,4.463,3.616,8.079,8.079,8.079h8.768c0.009,0,0.016,0.002,0.025,0.002  c0.01,0,0.02-0.002,0.03-0.002h36.201h0.015h0.036c0.01,0,0.02,0.002,0.03,0.002c0.009,0,0.016-0.002,0.025-0.002h14.573h71.815  c4.463,0,8.079-3.693,8.079-8.155v-38.643C512,330.734,487.942,313.223,474.959,308.721z M384.918,289.476c0-0.003,0-0.005,0-0.009  v-2.691c3.075,0.552,6.236,0.856,9.468,0.856h9.853c3.232,0,6.391-0.304,9.467-0.855v10.245l-14.694,15.253l-14.094-13.728v-9.072  H384.918z M421.229,350.337c0.813,0.599,1.725,1.01,2.676,1.269l-4.327,15.447l-2.214-13.721l1.718-4.575L421.229,350.337z   M376.675,350.337l2.473-1.821l2.084,4.977l-2.158,13.375l-4.341-15.499C375.416,351.111,376.075,350.778,376.675,350.337z   M394.952,344.421l-2.413-5.761l6.413-4.72l6.608,4.864l-2.109,5.618L394.952,344.421L394.952,344.421z M422.996,331.575  l-2.758-2.029c-0.005-0.004-0.011-0.008-0.015-0.012l-9.011-6.632l16.393-17.016c0.498-0.516,0.903-1.085,1.236-1.683l5.656,3.734  L422.996,331.575z M457.737,226.403V209.88c2.642,1.8,4.381,4.831,4.381,8.263C462.118,221.573,460.378,224.603,457.737,226.403z   M396.687,121.618h5.139c29.537,0,53.569,24.032,53.569,53.57v14.579c-0.065-0.065-0.134-0.124-0.2-0.186  c-0.103-0.098-0.208-0.196-0.318-0.289c-0.087-0.074-0.178-0.143-0.268-0.213c-0.114-0.089-0.228-0.178-0.348-0.261  c-0.099-0.069-0.203-0.132-0.305-0.197c-0.115-0.073-0.231-0.145-0.35-0.213c-0.122-0.068-0.247-0.129-0.372-0.192  c-0.107-0.053-0.211-0.107-0.321-0.154c-0.151-0.067-0.306-0.124-0.462-0.182c-0.092-0.033-0.181-0.07-0.274-0.1  c-0.174-0.057-0.354-0.104-0.534-0.15c-0.066-0.017-0.128-0.04-0.195-0.055c-16.758-3.812-22.027-25.54-22.072-25.732  c-0.7-3.096-3.151-5.495-6.261-6.13c-3.111-0.637-6.306,0.608-8.165,3.18c-20.397,28.197-65.35,28.481-65.954,28.481h-0.003  c-0.01,0-0.02,0-0.029,0c-0.278,0-0.553,0.014-0.824,0.042c-0.085,0.009-0.168,0.027-0.252,0.039  c-0.184,0.025-0.368,0.047-0.548,0.084c-0.116,0.024-0.227,0.059-0.341,0.087c-0.144,0.037-0.29,0.067-0.431,0.111  c-0.123,0.038-0.24,0.087-0.361,0.131c-0.127,0.046-0.256,0.087-0.38,0.139c-0.128,0.054-0.25,0.12-0.375,0.18  c-0.11,0.053-0.223,0.101-0.331,0.159c-0.126,0.069-0.247,0.148-0.368,0.223c-0.098,0.06-0.2,0.115-0.296,0.18  c-0.114,0.076-0.221,0.164-0.331,0.246c-0.097,0.073-0.198,0.141-0.292,0.218c-0.101,0.083-0.194,0.175-0.29,0.262  c-0.095,0.086-0.193,0.168-0.283,0.257c-0.048,0.048-0.093,0.102-0.14,0.153v-14.698  C343.121,145.649,367.15,121.618,396.687,121.618z M336.504,218.142c0-3.432,1.74-6.464,4.382-8.263v16.526  C338.244,224.604,336.504,221.573,336.504,218.142z M357.045,234.135v-31.019c13.665-1.208,41.598-5.921,61.672-24.309  c4.154,8.082,11.287,17.691,22.862,22.501v32.826c0,20.589-16.751,37.34-37.339,37.34h-9.853  C373.796,271.474,357.045,254.724,357.045,234.135z M369.081,304.192c0.375,1.306,1.078,2.535,2.121,3.551l15.532,15.13  l-11.825,8.703l-11.501-23.639L369.081,304.192z M390.689,396.332l5.767-35.753h5.711l5.767,35.753H390.689z M495.842,396.332  h-21.006v-32.401c0-4.463-3.616-8.079-8.079-8.079c-4.463,0-8.079,3.616-8.079,8.079v32.401h-26.572h-3.949l22.476-80.242  l18.355,7.648c0.143,0.06,0.338,0.132,0.486,0.184c1.076,0.378,26.368,9.612,26.368,41.769V396.332z"/>
<g>
</g>
<g>
</g>
<g>
</g>
<g>
</g>
<g>
</g>
<g>
</g>
<g>
</g>
<g>
</g>
<g>
</g>
<g>
</g>
<g>
</g>
<g>
</g>
<g>
</g>
<g>
</g>
<g>
</g>
</svg>
