<?xml version="1.0" encoding="iso-8859-1"?>
<!-- Generator: Adobe Illustrator 19.0.0, SVG Export Plug-In . SVG Version: 6.00 Build 0)  -->
<svg xmlns="http://www.w3.org/2000/svg" xmlns:xlink="http://www.w3.org/1999/xlink" version="1.1" id="Layer_1" x="0px" y="0px" viewBox="0 0 512 512" style="enable-background:new 0 0 512 512;" xml:space="preserve">
<path style="fill:#C8D0E2;" d="M331.696,115.355c-3.775,0-7.046-2.612-7.883-6.292c-1.741-7.656-4.754-14.926-8.959-21.607  c-2.009-3.195-1.541-7.353,1.127-10.022l8.044-8.043l-13.162-13.164l-8.045,8.046c-2.669,2.668-6.828,3.137-10.022,1.125  c-6.679-4.202-13.948-7.217-21.606-8.957c-3.68-0.836-6.292-4.11-6.292-7.884v-11.37h-18.615v11.37c0,3.774-2.612,7.046-6.292,7.884  c-7.658,1.741-14.928,4.756-21.606,8.957c-3.194,2.011-7.352,1.542-10.022-1.125l-8.045-8.046l-13.161,13.163l8.044,8.045  c2.669,2.669,3.135,6.827,1.125,10.021c-4.202,6.676-7.215,13.948-8.961,21.61c-0.836,3.679-4.109,6.29-7.883,6.29h-11.369v18.614  h11.369c3.774,0,7.045,2.611,7.883,6.29c1.745,7.665,4.76,14.936,8.961,21.609c2.009,3.194,1.544,7.353-1.125,10.022l-8.044,8.046  l13.161,13.162l8.046-8.045c2.669-2.668,6.827-3.136,10.021-1.125c6.675,4.201,13.947,7.214,21.609,8.961  c3.679,0.836,6.29,4.108,6.29,7.883v11.367h18.615v-11.37c0-3.774,2.611-7.045,6.29-7.883c7.662-1.745,14.933-4.759,21.609-8.961  c3.194-2.01,7.353-1.542,10.021,1.125l8.046,8.045l13.162-13.162l-8.045-8.044c-2.669-2.669-3.134-6.828-1.125-10.022  c4.204-6.68,7.216-13.95,8.958-21.609c0.836-3.68,4.108-6.292,7.883-6.292h11.37v-18.614h-11.37V115.355z M302.729,143.145  c-0.134,0.342-0.262,0.687-0.404,1.025c-0.027,0.068-0.052,0.137-0.08,0.204c-0.032,0.077-0.073,0.149-0.109,0.224  c-3.795,8.86-10.066,16.508-18.157,21.993c-0.025,0.017-0.046,0.037-0.071,0.054c-0.6,0.406-1.21,0.794-1.825,1.173  c-0.003,0.001-0.005,0.003-0.005,0.003l-0.544,0.328c-0.075,0.045-0.143,0.083-0.217,0.127c-0.47,0.278-0.945,0.548-1.423,0.81  l-0.368,0.204c-0.018,0.01-0.034,0.018-0.054,0.027c-0.554,0.296-1.113,0.584-1.678,0.86c-0.061,0.03-0.122,0.064-0.183,0.094  c-0.042,0.022-0.081,0.039-0.122,0.059c-1.461,0.702-2.954,1.326-4.471,1.882l-0.259,0.096c0,0-0.019,0.006-0.027,0.01  c-0.64,0.23-1.282,0.448-1.931,0.652c-0.038,0.012-0.073,0.026-0.112,0.038c-0.018,0.005-0.109,0.034-0.126,0.04  c-0.002,0.001-0.003,0.001-0.003,0.001c-0.193,0.059-0.385,0.113-0.578,0.17c-0.261,0.077-0.525,0.153-0.795,0.227  c-1.029,0.287-2.067,0.539-3.115,0.759c-0.208,0.045-0.387,0.083-0.559,0.116c-0.017,0.003-0.036,0.006-0.054,0.01  c-0.619,0.122-1.241,0.233-1.864,0.333c-0.088,0.014-0.172,0.032-0.262,0.046c-0.06,0.01-0.093,0.015-0.137,0.022l-0.018,0.002  c-0.808,0.121-1.621,0.218-2.438,0.3l-0.427,0.041c-0.019,0.002-0.039,0.002-0.057,0.004c-0.537,0.05-1.074,0.089-1.614,0.122  l-0.014,0.001l-0.675,0.039c-0.019,0.001-0.039,0.001-0.06,0.001c-0.756,0.034-1.511,0.057-2.271,0.057  c-0.008,0-0.015,0.001-0.015,0.001h-0.015h-0.001h-0.001c-0.029,0-0.058-0.002-0.087-0.002c-0.757-0.002-1.505-0.023-2.248-0.056  l-0.042-0.002c-0.199-0.01-0.397-0.023-0.595-0.034l-0.064-0.003c-0.568-0.033-1.135-0.075-1.699-0.128l-0.12-0.012  c-0.172-0.016-0.345-0.031-0.517-0.05l-0.064-0.006c-0.746-0.08-1.495-0.172-2.234-0.286c-0.055-0.009-0.112-0.017-0.157-0.025  c-0.758-0.117-1.441-0.244-2.121-0.38c-0.026-0.005-0.059-0.013-0.086-0.018c-0.121-0.024-0.243-0.051-0.363-0.075  c-0.049-0.011-0.092-0.019-0.141-0.029c-0.612-0.13-1.152-0.255-1.688-0.388l-0.289-0.072c-0.065-0.016-0.129-0.031-0.195-0.049  l-0.148-0.037c-0.753-0.198-1.457-0.396-2.151-0.61c-0.033-0.011-0.096-0.03-0.137-0.043c-0.706-0.222-1.367-0.448-2.02-0.684  l-0.622-0.231c-0.525-0.197-1.022-0.395-1.517-0.598l-0.604-0.25c-0.701-0.302-1.351-0.593-1.99-0.899  c-0.041-0.02-0.083-0.041-0.125-0.061c-0.638-0.308-1.269-0.634-1.893-0.968l-0.61-0.337c-0.439-0.241-0.899-0.507-1.354-0.777  l-0.593-0.355c-0.611-0.377-1.204-0.755-1.787-1.147c-7.565-5.095-13.51-12.029-17.372-20.081c-0.004-0.008-0.008-0.015-0.011-0.022  c-0.32-0.669-0.627-1.345-0.919-2.03c-0.084-0.197-0.164-0.397-0.247-0.596c-0.203-0.494-0.4-0.99-0.587-1.491  c-0.137-0.361-0.265-0.725-0.393-1.091c-0.12-0.343-0.238-0.688-0.349-1.035c-0.162-0.494-0.314-0.991-0.459-1.49  c-0.068-0.231-0.135-0.461-0.198-0.694c-0.162-0.586-0.314-1.177-0.456-1.772c-0.018-0.079-0.041-0.156-0.06-0.235  c-0.017-0.069-0.026-0.14-0.042-0.209c-0.182-0.795-0.345-1.599-0.488-2.407c-0.023-0.13-0.049-0.261-0.069-0.391  c-0.135-0.793-0.248-1.593-0.346-2.398c-0.018-0.149-0.04-0.295-0.057-0.445c-0.086-0.776-0.152-1.558-0.203-2.345  c-0.011-0.164-0.027-0.33-0.037-0.495c-0.052-0.926-0.081-1.857-0.081-2.796c0-0.868,0.023-1.731,0.066-2.592  c0.004-0.074,0.013-0.149,0.017-0.224c0.318-5.838,1.623-11.51,3.901-16.896c6.256-14.791,18.939-25.456,34.004-29.325  c0.011-0.002,0.023-0.005,0.033-0.008c0.722-0.185,1.451-0.352,2.183-0.507c0.154-0.031,0.305-0.064,0.459-0.094  c0.696-0.14,1.398-0.266,2.103-0.377c0.071-0.012,0.141-0.025,0.212-0.036c0.76-0.115,1.524-0.211,2.293-0.292  c0.198-0.02,0.396-0.037,0.594-0.055c0.587-0.056,1.176-0.1,1.767-0.135c0.225-0.014,0.448-0.027,0.674-0.038  c0.774-0.034,1.55-0.059,2.33-0.059c0.781,0,1.556,0.024,2.33,0.059c0.225,0.011,0.448,0.024,0.673,0.038  c0.592,0.034,1.18,0.08,1.768,0.135c0.198,0.018,0.397,0.034,0.594,0.055c0.769,0.081,1.534,0.178,2.293,0.292  c0.071,0.011,0.141,0.024,0.21,0.036c0.707,0.111,1.409,0.237,2.107,0.377c0.152,0.03,0.303,0.063,0.455,0.094  c0.735,0.154,1.465,0.321,2.188,0.507c0.01,0.003,0.02,0.005,0.03,0.008c15.066,3.87,27.75,14.534,34.007,29.325  c2.278,5.386,3.583,11.058,3.901,16.896c0.004,0.075,0.013,0.15,0.017,0.224c0.042,0.861,0.066,1.726,0.066,2.592  c0,1.007-0.038,2.006-0.097,3.002c-0.014,0.248-0.036,0.497-0.055,0.745c-0.058,0.798-0.135,1.594-0.23,2.385  c-0.026,0.216-0.053,0.431-0.081,0.648c-0.129,0.969-0.282,1.936-0.468,2.894c-0.003,0.015-0.005,0.03-0.008,0.045  C304.709,137.368,303.849,140.293,302.729,143.145z"/>
<g>
	<path style="fill:#ACB7C9;" d="M250.734,175.061c-0.172-0.016-0.345-0.031-0.517-0.05l22.495-11.359   c-13.892,5.166-52.917,5.284-58.967-31.31c-6.175-37.356,29.983-55.383,35.518-57.909c0.32-0.04,0.64-0.089,0.963-0.123   c0.198-0.02,0.396-0.037,0.594-0.055c0.154-0.015,0.306-0.023,0.459-0.034c-0.435-0.037-0.871-0.073-1.309-0.1   c-0.224-0.014-0.447-0.027-0.673-0.038c-0.774-0.034-1.55-0.059-2.33-0.059c-0.781,0-1.556,0.024-2.33,0.059   c-0.225,0.011-0.448,0.024-0.674,0.038c-0.591,0.034-1.179,0.079-1.767,0.135c-0.198,0.018-0.396,0.034-0.594,0.055   c-0.769,0.081-1.533,0.177-2.293,0.292c-0.071,0.011-0.141,0.024-0.212,0.036c-0.705,0.111-1.407,0.237-2.103,0.377   c-0.154,0.03-0.305,0.063-0.459,0.094c-0.733,0.154-1.461,0.321-2.183,0.507c-0.012,0.002-0.023,0.005-0.033,0.008   c-15.066,3.87-27.748,14.534-34.004,29.325c-2.278,5.386-3.583,11.058-3.901,16.896c-0.004,0.075-0.013,0.15-0.017,0.224   c-0.042,0.861-0.066,1.726-0.066,2.592c0,0.939,0.029,1.869,0.081,2.796c0.01,0.165,0.026,0.331,0.037,0.495   c0.052,0.787,0.116,1.569,0.203,2.345c0.017,0.15,0.039,0.296,0.057,0.445c0.098,0.805,0.211,1.604,0.346,2.398   c0.022,0.13,0.046,0.261,0.069,0.391c0.143,0.809,0.306,1.611,0.488,2.407c0.016,0.069,0.025,0.14,0.042,0.209   c0.019,0.079,0.042,0.156,0.06,0.235c0.142,0.595,0.293,1.186,0.456,1.772c0.064,0.233,0.13,0.463,0.198,0.694   c0.146,0.499,0.296,0.996,0.459,1.49c0.112,0.347,0.23,0.692,0.349,1.035c0.128,0.365,0.257,0.73,0.393,1.091   c0.188,0.501,0.385,0.997,0.587,1.491c0.083,0.199,0.163,0.399,0.247,0.596c0.292,0.684,0.599,1.36,0.919,2.03   c0.003,0.008,0.006,0.015,0.011,0.022c3.862,8.052,9.809,14.986,17.372,20.081c0.583,0.392,1.176,0.771,1.787,1.147l0.593,0.355   c0.455,0.271,0.915,0.536,1.354,0.777l0.61,0.337c0.624,0.335,1.255,0.66,1.893,0.968c0.042,0.02,0.084,0.041,0.125,0.061   c0.639,0.306,1.288,0.597,1.99,0.899l0.604,0.25c0.495,0.203,0.992,0.401,1.517,0.598l0.622,0.231   c0.653,0.236,1.314,0.462,2.02,0.684c0.041,0.013,0.103,0.032,0.137,0.043c0.695,0.215,1.398,0.413,2.151,0.61l0.148,0.037   c0.066,0.017,0.13,0.032,0.195,0.048l0.289,0.072c0.536,0.133,1.076,0.258,1.688,0.388c0.05,0.011,0.093,0.019,0.141,0.029   c0.121,0.025,0.243,0.052,0.363,0.075c0.027,0.005,0.06,0.013,0.086,0.018c0.68,0.137,1.364,0.262,2.121,0.38   c0.045,0.009,0.102,0.017,0.157,0.025c0.739,0.112,1.489,0.205,2.234,0.286l0.064,0.006c0.171,0.018,0.344,0.033,0.517,0.05   l0.12,0.012c0.564,0.053,1.131,0.095,1.699,0.128l0.064,0.003c0.198,0.012,0.396,0.026,0.595,0.034l0.042,0.002   c0.743,0.033,1.492,0.054,2.248,0.056c0.029,0,0.058,0.002,0.087,0.002h0.001h0.001h0.006c0,0,0.016-0.001,0.023-0.001   c0.76,0,1.516-0.023,2.271-0.057c0.022,0,0.04,0,0.06-0.001l0.675-0.039l0.014-0.001c0.423-0.025,0.841-0.06,1.26-0.096   c-0.141-0.012-0.282-0.019-0.424-0.031L250.734,175.061z M242.941,75.624c0.011-0.002,0.023-0.005,0.033-0.008   c0.722-0.185,1.451-0.352,2.183-0.507c0.154-0.031,0.305-0.064,0.459-0.094c0.696-0.14,1.398-0.266,2.103-0.377   c0.071-0.012,0.141-0.025,0.212-0.036c0.122-0.019,0.247-0.029,0.37-0.047c-11.489,3.041-20.154,7.454-26.667,12.543   C227.674,81.64,234.967,77.673,242.941,75.624z"/>
	<path style="fill:#ACB7C9;" d="M272.713,163.652c1.456-0.542,2.638-1.139,3.475-1.755L272.713,163.652z"/>
</g>
<g>
	<path style="fill:#202121;" d="M166.177,287.306c-1.373,0-2.766-0.35-4.04-1.088c-3.865-2.236-5.187-7.181-2.95-11.045l25.59-44.24   c2.236-3.866,7.181-5.186,11.045-2.95c3.865,2.236,5.187,7.181,2.95,11.045l-25.59,44.24   C171.684,285.859,168.969,287.306,166.177,287.306z"/>
	<path style="fill:#202121;" d="M345.486,287.306c-2.785,0-5.495-1.44-6.996-4.022l-25.728-44.24   c-2.244-3.86-0.936-8.809,2.924-11.053c3.859-2.244,8.807-0.936,11.053,2.924l25.728,44.24c2.244,3.86,0.936,8.809-2.924,11.053   C348.263,286.953,346.865,287.306,345.486,287.306z"/>
	<path style="fill:#202121;" d="M280.141,395.423h-51.384c-4.466,0-8.084-3.618-8.084-8.084s3.618-8.084,8.084-8.084h51.384   c4.466,0,8.084,3.618,8.084,8.084S284.605,395.423,280.141,395.423z"/>
	<path style="fill:#202121;" d="M272.982,228.305h-34.784c-4.466,0-8.084-3.618-8.084-8.084v-13.254   c-5.079-1.57-9.994-3.609-14.704-6.097l-9.378,9.377c-3.157,3.156-8.276,3.157-11.432-0.001l-24.593-24.594   c-3.157-3.157-3.157-8.275,0-11.431l9.376-9.378c-2.489-4.707-4.527-9.623-6.097-14.705h-13.255c-4.466,0-8.084-3.618-8.084-8.084   v-34.783c0-4.466,3.618-8.084,8.084-8.084h13.255c1.569-5.079,3.609-9.995,6.098-14.705l-9.377-9.377   c-3.157-3.157-3.157-8.275,0-11.431l24.593-24.595c1.516-1.517,3.572-2.368,5.717-2.368s4.199,0.852,5.717,2.367l9.377,9.378   c4.709-2.49,9.626-4.527,14.704-6.097V29.103c0-4.466,3.618-8.084,8.084-8.084h34.784c4.466,0,8.084,3.618,8.084,8.084v13.255   c5.078,1.569,9.993,3.608,14.704,6.097l9.377-9.378c1.517-1.516,3.573-2.367,5.717-2.367l0,0c2.144,0,4.201,0.852,5.717,2.368   l24.594,24.596c3.157,3.157,3.157,8.276-0.001,11.432l-9.377,9.376c2.491,4.71,4.528,9.626,6.098,14.704h13.255   c4.466,0,8.084,3.618,8.084,8.084v34.783c0,4.466-3.618,8.084-8.084,8.084h-13.255c-1.569,5.079-3.608,9.994-6.097,14.705   l9.377,9.377c3.157,3.158,3.157,8.276,0,11.433l-24.594,24.594c-3.158,3.156-8.277,3.156-11.432,0l-9.378-9.377   c-4.708,2.489-9.625,4.526-14.704,6.097v13.254C281.066,224.685,277.447,228.305,272.982,228.305z M246.283,212.136h18.615v-11.367   c0-3.774,2.611-7.045,6.29-7.883c7.662-1.745,14.933-4.759,21.609-8.961c3.195-2.01,7.353-1.542,10.021,1.125l8.046,8.045   l13.162-13.162l-8.045-8.044c-2.669-2.669-3.134-6.828-1.125-10.022c4.203-6.68,7.216-13.95,8.958-21.609   c0.836-3.68,4.108-6.292,7.883-6.292h11.37v-18.614h-11.37c-3.775,0-7.046-2.612-7.883-6.292   c-1.741-7.656-4.755-14.926-8.959-21.607c-2.009-3.195-1.541-7.353,1.127-10.022l8.044-8.043l-13.162-13.164l-8.045,8.046   c-2.669,2.668-6.827,3.136-10.022,1.125c-6.679-4.202-13.948-7.216-21.606-8.957c-3.68-0.836-6.292-4.11-6.292-7.884V37.187   h-18.615v11.37c0,3.774-2.612,7.046-6.292,7.884c-7.658,1.741-14.928,4.756-21.606,8.957c-3.195,2.01-7.352,1.542-10.022-1.125   l-8.045-8.046l-13.161,13.163l8.044,8.045c2.669,2.669,3.135,6.827,1.125,10.021c-4.202,6.676-7.215,13.948-8.961,21.61   c-0.836,3.679-4.109,6.29-7.883,6.29h-11.369v18.614h11.369c3.774,0,7.045,2.611,7.883,6.29c1.745,7.665,4.76,14.936,8.961,21.609   c2.009,3.194,1.544,7.353-1.125,10.022l-8.044,8.046l13.161,13.162l8.046-8.045c2.668-2.668,6.826-3.136,10.021-1.125   c6.675,4.201,13.947,7.214,21.609,8.961c3.679,0.836,6.29,4.108,6.29,7.883V212.136z"/>
	<path style="fill:#202121;" d="M255.598,175.299c-0.795,0-1.572-0.023-2.344-0.058l-0.7-0.04c-0.568-0.033-1.135-0.075-1.699-0.128   l-0.7-0.068c-0.746-0.08-1.495-0.172-2.234-0.286c-0.055-0.009-0.111-0.017-0.156-0.025c-0.756-0.119-1.442-0.245-2.122-0.382   c-0.18-0.034-0.385-0.079-0.591-0.123c-0.614-0.13-1.156-0.257-1.691-0.389l-0.628-0.156c-0.752-0.198-1.456-0.396-2.15-0.61   c-0.035-0.011-0.1-0.031-0.141-0.045c-0.708-0.222-1.365-0.447-2.016-0.682l-0.622-0.231c-0.525-0.198-1.023-0.395-1.517-0.598   l-0.604-0.25c-0.702-0.302-1.351-0.593-1.99-0.899c-0.04-0.019-0.08-0.039-0.12-0.059c-0.642-0.31-1.274-0.636-1.898-0.97   l-0.61-0.337c-0.439-0.243-0.899-0.508-1.355-0.778l-0.591-0.355c-0.612-0.377-1.205-0.753-1.788-1.147   c-3.704-2.493-4.687-7.517-2.192-11.22c2.493-3.704,7.518-4.688,11.22-2.192c0.402,0.269,0.81,0.528,1.222,0.783l0.334,0.199   c0.359,0.213,0.669,0.392,0.983,0.566l0.446,0.247c0.409,0.22,0.838,0.442,1.276,0.654c0.012,0.005,0.037,0.018,0.066,0.031l0,0   c0.441,0.211,0.889,0.412,1.342,0.607l0.37,0.153c0.383,0.157,0.723,0.293,1.068,0.423l0.441,0.165   c0.461,0.166,0.926,0.327,1.398,0.473c0.022,0.006,0.057,0.018,0.088,0.027c0.486,0.15,0.947,0.278,1.411,0.4l0.429,0.107   c0.384,0.096,0.741,0.178,1.099,0.253c0.013,0.003,0.129,0.028,0.142,0.03l0.318,0.068c0.518,0.105,1.012,0.195,1.508,0.272   c0.019,0.003,0.049,0.008,0.077,0.012c0.497,0.075,0.999,0.136,1.504,0.19l0.465,0.044c0.399,0.037,0.785,0.067,1.172,0.089   l0.496,0.028c1.024,0.046,2.14,0.047,3.187-0.001l0.471-0.027c0.387-0.023,0.773-0.053,1.155-0.088l0.475-0.044   c0.513-0.055,1.018-0.115,1.518-0.192c0.022-0.003,0.045-0.008,0.068-0.011l0,0c0.497-0.077,0.991-0.168,1.482-0.266l0.455-0.097   c0.389-0.082,0.747-0.165,1.103-0.253l0.501-0.124c0.439-0.115,0.922-0.25,1.397-0.398c0.051-0.017,0.057-0.019,0.109-0.033   c0.42-0.132,0.885-0.291,1.347-0.458l0.465-0.174c0.321-0.12,0.661-0.255,1.001-0.396l0.462-0.192   c0.4-0.172,0.846-0.371,1.284-0.581c0.032-0.016,0.064-0.03,0.084-0.04c0.483-0.237,0.885-0.445,1.284-0.659l0.402-0.223   c0.34-0.188,0.651-0.366,0.957-0.549l0.399-0.239c0.4-0.247,0.807-0.506,1.209-0.775c6.974-4.697,11.984-11.744,14.106-19.834   c0.749-2.854,1.13-5.807,1.13-8.774c0-4.657-0.911-9.17-2.706-13.413c-5.411-12.79-17.878-21.055-31.762-21.055   c-13.887,0-26.353,8.264-31.764,21.055c-1.795,4.245-2.706,8.757-2.706,13.413c0,2.61,0.304,5.244,0.905,7.83   c0.2,0.869,0.44,1.741,0.71,2.598c1.347,4.257-1.012,8.799-5.27,10.145c-4.257,1.352-8.8-1.011-10.145-5.27   c-0.398-1.258-0.75-2.543-1.047-3.819c-0.877-3.779-1.324-7.644-1.324-11.484c0-6.833,1.34-13.464,3.983-19.713   c7.945-18.786,26.258-30.924,46.652-30.924c20.396,0,38.709,12.139,46.654,30.924c2.643,6.249,3.983,12.88,3.983,19.713   c0,4.353-0.558,8.686-1.659,12.878c-3.12,11.895-10.477,22.245-20.715,29.141c-0.586,0.396-1.179,0.773-1.779,1.143l-0.543,0.327   c-0.515,0.306-0.975,0.571-1.441,0.828l-0.566,0.314c-0.642,0.344-1.274,0.669-1.913,0.98c-0.013,0.006-0.046,0.022-0.071,0.034   c-0.017,0.009-0.033,0.016-0.051,0.024c-0.639,0.306-1.287,0.597-1.94,0.877l-0.608,0.253c-0.538,0.221-1.036,0.418-1.537,0.607   l-0.646,0.239c-0.684,0.247-1.372,0.482-2.07,0.7c-0.017,0.005-0.107,0.033-0.124,0.039c-0.659,0.204-1.362,0.402-2.07,0.589   l-0.64,0.16c-0.572,0.142-1.111,0.267-1.657,0.383c-0.274,0.059-0.475,0.102-0.678,0.142c-0.712,0.143-1.447,0.277-2.185,0.389   c-0.025,0.004-0.048,0.009-0.073,0.012l0,0c-0.739,0.112-1.489,0.205-2.24,0.287l-0.71,0.068c-0.549,0.052-1.115,0.094-1.683,0.127   l-0.675,0.039C257.154,175.275,256.379,175.299,255.598,175.299z"/>
</g>
<path style="fill:#C8D0E2;" d="M484.461,378.032c-3.774,0-7.044-2.612-7.883-6.292c-1.741-7.655-4.754-14.926-8.961-21.607  c-2.008-3.195-1.54-7.353,1.129-10.022l8.044-8.043l-13.162-13.164l-8.045,8.046c-2.669,2.668-6.828,3.137-10.022,1.125  c-6.678-4.202-13.949-7.217-21.606-8.958c-3.68-0.836-6.292-4.11-6.292-7.884v-11.37h-18.615v11.37c0,3.774-2.612,7.046-6.292,7.884  c-7.657,1.741-14.928,4.756-21.606,8.958c-3.194,2.011-7.352,1.542-10.022-1.125l-8.045-8.046l-13.161,13.163l8.044,8.045  c2.669,2.668,3.135,6.827,1.125,10.021c-4.201,6.676-7.215,13.948-8.961,21.61c-0.836,3.679-4.108,6.289-7.883,6.289h-11.369v18.614  h11.369c3.774,0,7.045,2.611,7.883,6.289c1.745,7.665,4.76,14.935,8.961,21.609c2.009,3.194,1.544,7.353-1.125,10.022l-8.044,8.046  l13.161,13.162l8.046-8.045c2.669-2.668,6.827-3.136,10.021-1.125c6.675,4.201,13.947,7.214,21.609,8.961  c3.679,0.836,6.29,4.108,6.29,7.883v11.365h18.615v-11.367c0-3.774,2.611-7.045,6.29-7.883c7.662-1.745,14.932-4.759,21.609-8.961  c3.194-2.01,7.353-1.542,10.021,1.125l8.046,8.045l13.162-13.162l-8.045-8.044c-2.669-2.668-3.135-6.828-1.125-10.022  c4.204-6.68,7.217-13.95,8.958-21.609c0.838-3.68,4.108-6.292,7.883-6.292h11.371V378.03h-11.371V378.032z M455.495,405.822  c-0.134,0.342-0.261,0.687-0.404,1.025c-0.027,0.068-0.052,0.137-0.08,0.205c-0.032,0.077-0.073,0.149-0.109,0.224  c-3.794,8.86-10.066,16.508-18.157,21.993c-0.025,0.017-0.046,0.037-0.071,0.054c-0.6,0.406-1.21,0.794-1.825,1.173l-0.007,0.004  l-0.543,0.327c-0.075,0.045-0.143,0.083-0.217,0.127c-0.47,0.278-0.945,0.548-1.423,0.81l-0.368,0.204  c-0.018,0.01-0.034,0.018-0.054,0.027c-0.554,0.296-1.113,0.584-1.678,0.86c-0.061,0.03-0.122,0.065-0.183,0.094  c-0.042,0.022-0.081,0.039-0.122,0.059c-1.461,0.702-2.954,1.326-4.471,1.882l-0.259,0.096c-0.009,0.003-0.019,0.006-0.019,0.006  c-0.649,0.233-1.29,0.452-1.939,0.654c-0.038,0.012-0.073,0.027-0.112,0.038c-0.018,0.005-0.109,0.035-0.126,0.04l-0.003,0.001  c-0.193,0.059-0.385,0.113-0.578,0.17c-0.261,0.077-0.525,0.153-0.795,0.227c-1.029,0.287-2.067,0.539-3.115,0.759  c-0.207,0.045-0.387,0.083-0.558,0.116c-0.017,0.003-0.036,0.007-0.053,0.01c-0.62,0.122-1.242,0.233-1.865,0.333  c-0.088,0.014-0.172,0.032-0.262,0.046c-0.06,0.01-0.093,0.015-0.137,0.022c-0.005,0.001-0.012,0.001-0.018,0.002  c-0.808,0.121-1.621,0.218-2.438,0.3l-0.427,0.041c-0.019,0.002-0.039,0.002-0.057,0.004c-0.537,0.05-1.074,0.089-1.614,0.122  l-0.014,0.001l-0.675,0.039c-0.02,0.001-0.039,0.001-0.06,0.001c-0.756,0.035-1.511,0.057-2.271,0.057l-0.015,0.001h-0.015h-0.001  h-0.001c-0.029,0-0.057-0.002-0.088-0.002c-0.756-0.002-1.505-0.023-2.247-0.056l-0.043-0.002c-0.198-0.01-0.396-0.024-0.594-0.035  l-0.064-0.003c-0.568-0.033-1.135-0.075-1.699-0.128l-0.12-0.012c-0.172-0.016-0.345-0.031-0.516-0.05l-0.064-0.007  c-0.746-0.08-1.494-0.172-2.234-0.286c-0.055-0.009-0.112-0.017-0.156-0.025c-0.759-0.117-1.442-0.244-2.122-0.379  c-0.026-0.005-0.059-0.013-0.086-0.018c-0.121-0.025-0.243-0.051-0.363-0.075c-0.049-0.011-0.092-0.019-0.141-0.029  c-0.611-0.13-1.152-0.255-1.688-0.388l-0.289-0.072c-0.064-0.016-0.129-0.031-0.195-0.049l-0.148-0.037  c-0.753-0.198-1.457-0.396-2.151-0.61c-0.033-0.011-0.095-0.03-0.137-0.043c-0.707-0.222-1.367-0.448-2.02-0.684l-0.622-0.231  c-0.525-0.197-1.022-0.395-1.517-0.598l-0.604-0.25c-0.701-0.302-1.35-0.593-1.99-0.899c-0.041-0.021-0.083-0.041-0.124-0.061  c-0.639-0.308-1.27-0.634-1.894-0.968l-0.61-0.338c-0.439-0.241-0.899-0.507-1.354-0.777l-0.593-0.355  c-0.611-0.377-1.204-0.755-1.787-1.147c-7.565-5.095-13.51-12.029-17.372-20.081c-0.004-0.008-0.008-0.015-0.008-0.015  c-0.323-0.677-0.631-1.353-0.922-2.037c-0.084-0.197-0.164-0.397-0.248-0.596c-0.203-0.494-0.4-0.99-0.587-1.491  c-0.137-0.361-0.265-0.725-0.393-1.091c-0.12-0.343-0.238-0.688-0.349-1.035c-0.162-0.494-0.314-0.991-0.459-1.49  c-0.068-0.231-0.135-0.461-0.198-0.693c-0.162-0.586-0.314-1.177-0.456-1.772c-0.018-0.079-0.041-0.156-0.06-0.235  c-0.017-0.069-0.026-0.14-0.042-0.209c-0.183-0.796-0.345-1.597-0.488-2.407c-0.023-0.13-0.049-0.261-0.07-0.391  c-0.135-0.793-0.248-1.593-0.346-2.398c-0.018-0.149-0.04-0.295-0.056-0.445c-0.087-0.776-0.153-1.558-0.205-2.346  c-0.011-0.164-0.027-0.33-0.037-0.495c-0.052-0.926-0.081-1.857-0.081-2.796c0-0.868,0.023-1.731,0.066-2.592  c0.004-0.074,0.013-0.149,0.017-0.224c0.318-5.838,1.623-11.51,3.901-16.896c6.256-14.791,18.939-25.456,34.004-29.325  c0.011-0.002,0.023-0.005,0.033-0.008c0.722-0.185,1.451-0.352,2.183-0.507c0.153-0.031,0.305-0.064,0.459-0.094  c0.697-0.14,1.398-0.266,2.103-0.377c0.071-0.012,0.141-0.025,0.212-0.036c0.76-0.115,1.524-0.211,2.293-0.292  c0.198-0.021,0.396-0.037,0.594-0.055c0.587-0.056,1.176-0.1,1.767-0.135c0.225-0.014,0.448-0.027,0.674-0.038  c0.774-0.035,1.55-0.059,2.33-0.059s1.556,0.024,2.33,0.059c0.225,0.011,0.448,0.024,0.673,0.038c0.592,0.035,1.18,0.08,1.768,0.135  c0.198,0.018,0.396,0.034,0.594,0.055c0.769,0.081,1.534,0.178,2.293,0.292c0.071,0.011,0.141,0.024,0.21,0.036  c0.707,0.111,1.409,0.237,2.107,0.377c0.152,0.03,0.303,0.063,0.455,0.094c0.735,0.154,1.465,0.321,2.188,0.507  c0.01,0.003,0.021,0.005,0.03,0.008c15.066,3.87,27.75,14.534,34.007,29.325c2.278,5.386,3.583,11.058,3.901,16.896  c0.004,0.075,0.013,0.15,0.017,0.224c0.042,0.861,0.065,1.726,0.065,2.592c0,1.007-0.038,2.006-0.097,3.002  c-0.014,0.248-0.036,0.497-0.055,0.745c-0.058,0.798-0.135,1.594-0.23,2.385c-0.026,0.216-0.053,0.431-0.081,0.648  c-0.129,0.969-0.282,1.936-0.468,2.894c-0.003,0.015-0.005,0.03-0.008,0.045C457.476,400.046,456.615,402.971,455.495,405.822z"/>
<g>
	<path style="fill:#ACB7C9;" d="M403.501,437.737c-0.172-0.016-0.345-0.031-0.516-0.05l22.495-11.359   c-13.892,5.166-52.917,5.284-58.967-31.31c-6.175-37.356,29.982-55.383,35.518-57.909c0.32-0.04,0.64-0.089,0.963-0.123   c0.198-0.02,0.396-0.037,0.594-0.055c0.154-0.015,0.306-0.023,0.459-0.035c-0.435-0.037-0.871-0.073-1.309-0.1   c-0.224-0.014-0.447-0.027-0.673-0.038c-0.774-0.035-1.55-0.059-2.33-0.059s-1.556,0.024-2.33,0.059   c-0.225,0.011-0.448,0.024-0.674,0.038c-0.591,0.035-1.179,0.079-1.767,0.135c-0.198,0.018-0.396,0.035-0.594,0.055   c-0.769,0.081-1.533,0.177-2.293,0.292c-0.071,0.011-0.141,0.024-0.212,0.036c-0.705,0.111-1.407,0.237-2.103,0.377   c-0.153,0.03-0.305,0.063-0.459,0.094c-0.733,0.154-1.461,0.321-2.183,0.507c-0.012,0.002-0.024,0.005-0.033,0.008   c-15.066,3.87-27.748,14.534-34.004,29.325c-2.278,5.386-3.583,11.058-3.901,16.896c-0.004,0.075-0.013,0.15-0.017,0.224   c-0.042,0.861-0.066,1.726-0.066,2.592c0,0.939,0.029,1.869,0.081,2.796c0.01,0.165,0.026,0.331,0.037,0.495   c0.052,0.787,0.116,1.569,0.205,2.345c0.016,0.15,0.038,0.296,0.056,0.445c0.098,0.805,0.211,1.604,0.346,2.398   c0.022,0.13,0.046,0.261,0.07,0.391c0.143,0.81,0.305,1.611,0.488,2.407c0.016,0.07,0.025,0.14,0.042,0.209   c0.019,0.079,0.042,0.156,0.06,0.235c0.142,0.595,0.294,1.186,0.456,1.772c0.064,0.233,0.13,0.463,0.198,0.693   c0.146,0.499,0.296,0.996,0.459,1.49c0.112,0.347,0.23,0.692,0.349,1.035c0.128,0.365,0.257,0.73,0.393,1.091   c0.188,0.501,0.385,0.997,0.587,1.491c0.083,0.199,0.163,0.399,0.248,0.596c0.291,0.684,0.599,1.36,0.918,2.03   c0,0,0.007,0.015,0.011,0.022c3.862,8.052,9.809,14.986,17.372,20.081c0.583,0.392,1.176,0.771,1.787,1.147l0.593,0.355   c0.455,0.271,0.915,0.536,1.354,0.777l0.61,0.338c0.624,0.335,1.255,0.66,1.894,0.968c0.041,0.019,0.083,0.041,0.124,0.061   c0.64,0.306,1.288,0.597,1.99,0.899l0.604,0.25c0.495,0.204,0.992,0.401,1.517,0.598l0.622,0.231   c0.653,0.236,1.313,0.462,2.02,0.684c0.042,0.013,0.103,0.032,0.137,0.043c0.695,0.215,1.398,0.413,2.151,0.61l0.148,0.037   c0.066,0.017,0.13,0.032,0.195,0.049l0.289,0.072c0.536,0.133,1.077,0.258,1.688,0.388c0.05,0.011,0.093,0.019,0.141,0.029   c0.121,0.025,0.243,0.052,0.363,0.075c0.027,0.005,0.06,0.013,0.086,0.018c0.68,0.137,1.364,0.262,2.122,0.379   c0.044,0.009,0.101,0.017,0.156,0.025c0.742,0.112,1.489,0.205,2.234,0.286l0.064,0.007c0.171,0.018,0.344,0.033,0.516,0.05   l0.12,0.012c0.564,0.053,1.131,0.095,1.699,0.128l0.064,0.003c0.198,0.012,0.396,0.025,0.594,0.035l0.043,0.002   c0.743,0.033,1.492,0.054,2.247,0.056c0.031,0,0.059,0.002,0.088,0.002h0.001h0.001h0.006l0.024-0.001   c0.76,0,1.516-0.022,2.271-0.057c0.022,0,0.04,0,0.06-0.001l0.675-0.039l0.014-0.001c0.423-0.025,0.841-0.06,1.26-0.096   c-0.141-0.012-0.282-0.019-0.424-0.031L403.501,437.737z M395.707,338.3c0.011-0.002,0.023-0.005,0.033-0.008   c0.722-0.185,1.451-0.352,2.183-0.507c0.153-0.031,0.305-0.064,0.459-0.094c0.697-0.14,1.398-0.266,2.103-0.377   c0.071-0.012,0.141-0.025,0.212-0.036c0.122-0.019,0.247-0.029,0.371-0.047c-11.49,3.041-20.156,7.454-26.668,12.543   C380.44,344.317,387.734,340.35,395.707,338.3z"/>
	<path style="fill:#ACB7C9;" d="M425.478,426.33c1.456-0.542,2.638-1.139,3.475-1.755L425.478,426.33z"/>
</g>
<g>
	<path style="fill:#202121;" d="M425.748,490.981h-34.784c-4.466,0-8.084-3.62-8.084-8.084v-13.254   c-5.079-1.57-9.995-3.609-14.704-6.097l-9.378,9.377c-3.157,3.157-8.276,3.156-11.433-0.001l-24.593-24.594   c-3.157-3.157-3.157-8.275,0-11.431l9.376-9.378c-2.489-4.707-4.527-9.623-6.097-14.705h-13.255c-4.466,0-8.084-3.618-8.084-8.084   v-34.783c0-4.465,3.618-8.084,8.084-8.084h13.255c1.569-5.079,3.609-9.995,6.098-14.705l-9.377-9.377   c-3.157-3.157-3.157-8.275,0-11.431l24.593-24.595c1.516-1.517,3.573-2.368,5.717-2.368c2.144,0,4.199,0.852,5.717,2.367   l9.377,9.378c4.709-2.49,9.626-4.527,14.704-6.097v-13.255c0-4.466,3.618-8.084,8.084-8.084h34.784   c4.466,0,8.084,3.618,8.084,8.084v13.255c5.078,1.569,9.993,3.608,14.704,6.097l9.377-9.378c1.517-1.516,3.572-2.367,5.717-2.367   l0,0c2.144,0,4.201,0.852,5.717,2.368l24.594,24.596c3.157,3.157,3.157,8.276-0.001,11.433l-9.377,9.376   c2.491,4.71,4.528,9.626,6.097,14.704h13.256c4.466,0,8.084,3.62,8.084,8.084v34.783c0,4.466-3.618,8.084-8.084,8.084H490.66   c-1.568,5.079-3.607,9.994-6.097,14.705l9.378,9.377c1.516,1.517,2.367,3.572,2.367,5.717c0,2.144-0.852,4.201-2.367,5.717   l-24.594,24.594c-3.158,3.156-8.277,3.156-11.432,0l-9.378-9.377c-4.708,2.489-9.624,4.526-14.704,6.097v13.252   C433.832,487.361,430.214,490.981,425.748,490.981z M399.05,474.813h18.615v-11.367c0-3.774,2.611-7.045,6.289-7.883   c7.662-1.745,14.932-4.759,21.609-8.961c3.195-2.01,7.353-1.542,10.021,1.125l8.046,8.045l13.162-13.162l-8.045-8.044   c-2.669-2.668-3.135-6.828-1.125-10.022c4.203-6.681,7.217-13.95,8.957-21.607c0.836-3.681,4.108-6.293,7.884-6.293h11.369V378.03   h-11.371c-3.775,0-7.046-2.612-7.884-6.293c-1.74-7.655-4.754-14.925-8.958-21.606c-2.009-3.195-1.541-7.353,1.127-10.022   l8.044-8.043L463.628,318.9l-8.045,8.046c-2.669,2.668-6.827,3.137-10.022,1.125c-6.679-4.203-13.949-7.217-21.606-8.958   c-3.68-0.836-6.292-4.11-6.292-7.884v-11.37h-18.615v11.37c0,3.774-2.612,7.046-6.292,7.884   c-7.657,1.741-14.928,4.755-21.606,8.958c-3.195,2.011-7.352,1.542-10.022-1.125l-8.045-8.046l-13.161,13.163l8.044,8.045   c2.669,2.668,3.135,6.827,1.125,10.021c-4.201,6.676-7.215,13.948-8.961,21.61c-0.836,3.679-4.108,6.289-7.883,6.289h-11.369   v18.614h11.369c3.774,0,7.045,2.611,7.883,6.289c1.745,7.665,4.76,14.935,8.961,21.609c2.009,3.194,1.544,7.353-1.125,10.022   l-8.044,8.046l13.161,13.162l8.046-8.045c2.668-2.668,6.826-3.136,10.021-1.125c6.675,4.201,13.946,7.214,21.609,8.961   c3.679,0.836,6.29,4.108,6.29,7.883v11.368H399.05z"/>
	<path style="fill:#202121;" d="M408.364,437.976c-0.796,0-1.572-0.023-2.344-0.058l-0.7-0.04c-0.568-0.033-1.135-0.075-1.699-0.128   l-0.7-0.068c-0.746-0.08-1.495-0.172-2.234-0.286c-0.055-0.009-0.111-0.017-0.156-0.024c-0.756-0.119-1.442-0.245-2.122-0.38   c-0.18-0.034-0.385-0.079-0.591-0.123c-0.614-0.13-1.155-0.257-1.691-0.389l-0.628-0.157c-0.752-0.198-1.456-0.396-2.15-0.61   c-0.034-0.011-0.1-0.031-0.141-0.045c-0.708-0.222-1.365-0.447-2.016-0.682l-0.622-0.231c-0.525-0.198-1.023-0.395-1.517-0.598   l-0.604-0.25c-0.702-0.302-1.351-0.593-1.99-0.899c-0.04-0.019-0.08-0.039-0.12-0.059c-0.645-0.311-1.277-0.638-1.902-0.973   l-0.515-0.284c-0.53-0.293-0.991-0.558-1.447-0.829l-0.591-0.355c-0.612-0.377-1.205-0.753-1.788-1.147   c-3.704-2.493-4.687-7.517-2.192-11.22c2.494-3.704,7.518-4.688,11.22-2.192c0.402,0.269,0.81,0.528,1.222,0.783l0.334,0.201   c0.359,0.213,0.669,0.392,0.983,0.566l0.429,0.237c0.429,0.232,0.857,0.453,1.292,0.663c0.012,0.005,0.037,0.018,0.066,0.031l0,0   c0.441,0.211,0.889,0.412,1.342,0.607l0.37,0.153c0.383,0.158,0.723,0.293,1.068,0.423l0.441,0.165   c0.461,0.166,0.926,0.327,1.398,0.474c0.022,0.006,0.057,0.018,0.088,0.027c0.486,0.15,0.947,0.278,1.411,0.4l0.429,0.107   c0.384,0.096,0.739,0.178,1.099,0.253c0.013,0.003,0.129,0.028,0.142,0.03l0.318,0.068c0.517,0.105,1.012,0.195,1.507,0.272   c0.021,0.003,0.049,0.008,0.077,0.012c0.497,0.075,0.999,0.136,1.504,0.19l0.465,0.044c0.399,0.037,0.784,0.066,1.172,0.089   l0.496,0.028c1.024,0.047,2.141,0.046,3.187-0.001l0.47-0.027c0.387-0.023,0.773-0.053,1.155-0.088l0.474-0.044   c0.513-0.055,1.018-0.115,1.518-0.192c0.023-0.003,0.045-0.008,0.069-0.011l0,0c0.497-0.077,0.991-0.168,1.482-0.266l0.373-0.079   c0.014-0.003,0.098-0.022,0.112-0.024c0.36-0.075,0.718-0.158,1.073-0.247l0.501-0.124c0.439-0.115,0.922-0.25,1.397-0.398   c0.012-0.003,0.097-0.03,0.109-0.033c0.42-0.132,0.885-0.291,1.347-0.458l0.465-0.174c0.321-0.12,0.661-0.255,1.001-0.396   l0.462-0.192c0.4-0.172,0.846-0.371,1.284-0.581c0.032-0.016,0.064-0.03,0.084-0.04c0.483-0.237,0.885-0.445,1.283-0.659   l0.402-0.223c0.34-0.188,0.65-0.366,0.957-0.549l0.379-0.226c0.42-0.259,0.828-0.517,1.23-0.787   c6.974-4.697,11.984-11.744,14.106-19.834c0.749-2.854,1.13-5.807,1.13-8.774c0-4.657-0.911-9.17-2.706-13.413   c-5.411-12.79-17.878-21.055-31.762-21.055c-13.887,0-26.353,8.264-31.764,21.055c-1.795,4.245-2.706,8.757-2.706,13.413   c0,2.61,0.304,5.244,0.905,7.83c0.201,0.869,0.44,1.741,0.71,2.598c1.347,4.257-1.012,8.799-5.27,10.145   c-4.256,1.351-8.799-1.011-10.145-5.27c-0.398-1.258-0.75-2.543-1.047-3.819c-0.878-3.779-1.324-7.644-1.324-11.484   c0-6.833,1.34-13.464,3.983-19.713c7.945-18.786,26.258-30.924,46.652-30.924c20.396,0,38.709,12.139,46.655,30.924   c2.643,6.249,3.983,12.88,3.983,19.713c0,4.353-0.558,8.686-1.659,12.878c-3.12,11.895-10.477,22.245-20.715,29.141   c-0.586,0.396-1.179,0.773-1.779,1.143l-0.512,0.307c-0.548,0.326-1.008,0.591-1.472,0.846l-0.566,0.314   c-0.642,0.344-1.274,0.669-1.913,0.98c-0.013,0.007-0.046,0.023-0.071,0.035c-0.017,0.009-0.033,0.016-0.051,0.025   c-0.639,0.306-1.287,0.597-1.94,0.877l-0.609,0.253c-0.538,0.221-1.036,0.418-1.537,0.608l-0.646,0.239   c-0.684,0.246-1.372,0.482-2.07,0.698c-0.784,0.244-1.486,0.441-2.194,0.627l-0.64,0.16c-0.572,0.142-1.111,0.267-1.657,0.383   c-0.245,0.053-0.461,0.099-0.678,0.142c-0.712,0.143-1.447,0.277-2.185,0.389c-0.024,0.004-0.048,0.009-0.073,0.012l0,0   c-0.739,0.112-1.489,0.205-2.24,0.287l-0.71,0.068c-0.549,0.052-1.115,0.094-1.683,0.127l-0.675,0.039   C409.921,437.953,409.145,437.976,408.364,437.976z"/>
</g>
<path style="fill:#C8D0E2;" d="M179.749,378.032c-3.775,0-7.046-2.612-7.884-6.292c-1.741-7.655-4.754-14.926-8.958-21.607  c-2.009-3.195-1.541-7.353,1.127-10.022l8.044-8.043l-13.162-13.164l-8.045,8.046c-2.669,2.668-6.828,3.137-10.022,1.125  c-6.679-4.202-13.948-7.217-21.606-8.958c-3.68-0.836-6.292-4.11-6.292-7.884v-11.37H94.335v11.37c0,3.774-2.612,7.046-6.292,7.884  c-7.657,1.741-14.927,4.756-21.606,8.958c-3.194,2.011-7.352,1.542-10.022-1.125l-8.045-8.046l-13.16,13.163l8.043,8.045  c2.669,2.668,3.135,6.827,1.125,10.021c-4.202,6.676-7.215,13.948-8.961,21.61c-0.835,3.679-4.109,6.289-7.883,6.289H16.168v18.614  h11.369c3.774,0,7.046,2.611,7.883,6.289c1.745,7.665,4.76,14.935,8.961,21.609c2.009,3.194,1.544,7.353-1.125,10.022l-8.043,8.046  l13.16,13.162l8.046-8.045c2.669-2.668,6.827-3.136,10.021-1.125c6.675,4.201,13.948,7.214,21.609,8.961  c3.679,0.836,6.29,4.108,6.29,7.883v11.365h18.615v-11.367c0-3.774,2.611-7.045,6.29-7.883c7.662-1.745,14.933-4.759,21.609-8.961  c3.194-2.01,7.353-1.542,10.021,1.125l8.046,8.045l13.162-13.162l-8.045-8.044c-2.669-2.668-3.135-6.828-1.125-10.022  c4.204-6.68,7.217-13.95,8.958-21.609c0.836-3.68,4.109-6.292,7.884-6.292h11.37V378.03h-11.373V378.032z M150.781,405.822  c-0.134,0.342-0.262,0.687-0.404,1.025c-0.027,0.068-0.052,0.137-0.08,0.205c-0.032,0.077-0.073,0.149-0.108,0.224  c-3.795,8.86-10.068,16.508-18.158,21.993c-0.025,0.017-0.046,0.037-0.071,0.054c-0.6,0.406-1.21,0.794-1.825,1.173l-0.008,0.004  l-0.542,0.327c-0.075,0.045-0.143,0.083-0.217,0.127c-0.47,0.278-0.945,0.548-1.423,0.81l-0.368,0.204  c-0.018,0.01-0.034,0.018-0.054,0.027c-0.554,0.296-1.113,0.584-1.678,0.86c-0.061,0.03-0.122,0.065-0.183,0.094  c-0.042,0.022-0.081,0.039-0.122,0.059c-1.461,0.702-2.955,1.326-4.471,1.882l-0.259,0.096c-0.009,0.003-0.019,0.006-0.027,0.01  c-0.64,0.23-1.283,0.448-1.931,0.651c-0.038,0.012-0.073,0.027-0.112,0.038c-0.018,0.005-0.109,0.035-0.126,0.04l-0.003,0.001  c-0.193,0.059-0.385,0.113-0.578,0.17c-0.261,0.077-0.525,0.153-0.795,0.227c-1.029,0.287-2.067,0.539-3.114,0.759  c-0.209,0.045-0.388,0.083-0.561,0.116c-0.017,0.003-0.036,0.007-0.054,0.01c-0.619,0.122-1.241,0.233-1.864,0.333  c-0.088,0.014-0.172,0.032-0.261,0.046c-0.061,0.01-0.093,0.015-0.137,0.022c-0.006,0.001-0.013,0.001-0.013,0.001  c-0.815,0.122-1.628,0.219-2.445,0.301l-0.427,0.041c-0.019,0.002-0.039,0.002-0.057,0.004c-0.537,0.05-1.074,0.089-1.614,0.122  l-0.014,0.001l-0.675,0.039c-0.02,0.001-0.039,0.001-0.06,0.001c-0.756,0.035-1.511,0.057-2.271,0.057  c-0.008,0-0.015,0.001-0.015,0.001h-0.015h-0.001h-0.001c-0.029,0-0.058-0.002-0.087-0.002c-0.757-0.002-1.505-0.023-2.248-0.056  l-0.042-0.002c-0.199-0.01-0.397-0.024-0.595-0.035l-0.064-0.003c-0.568-0.033-1.135-0.075-1.699-0.128l-0.12-0.012  c-0.172-0.016-0.345-0.031-0.516-0.05l-0.064-0.007c-0.746-0.08-1.495-0.172-2.234-0.286c-0.055-0.009-0.112-0.017-0.157-0.025  c-0.758-0.117-1.441-0.244-2.121-0.379c-0.026-0.005-0.059-0.013-0.086-0.018c-0.121-0.025-0.243-0.051-0.363-0.075  c-0.049-0.011-0.092-0.019-0.14-0.029c-0.613-0.13-1.153-0.255-1.689-0.388l-0.288-0.072c-0.066-0.016-0.13-0.031-0.196-0.049  l-0.148-0.037c-0.753-0.198-1.457-0.396-2.151-0.61c-0.033-0.011-0.096-0.03-0.137-0.043c-0.706-0.222-1.367-0.448-2.02-0.684  l-0.622-0.231c-0.525-0.197-1.022-0.395-1.517-0.598l-0.604-0.25c-0.701-0.302-1.351-0.593-1.99-0.899  c-0.041-0.021-0.083-0.041-0.125-0.061c-0.638-0.308-1.269-0.634-1.893-0.968l-0.61-0.338c-0.439-0.241-0.899-0.507-1.354-0.777  l-0.593-0.355c-0.611-0.377-1.204-0.755-1.787-1.147c-7.565-5.095-13.51-12.029-17.372-20.081c-0.004-0.008-0.008-0.015-0.008-0.015  c-0.323-0.677-0.631-1.353-0.922-2.037c-0.084-0.197-0.164-0.397-0.247-0.596c-0.203-0.494-0.4-0.99-0.587-1.491  c-0.137-0.361-0.265-0.725-0.393-1.091c-0.12-0.343-0.238-0.688-0.349-1.035c-0.162-0.494-0.314-0.991-0.459-1.49  c-0.068-0.231-0.135-0.461-0.198-0.693c-0.162-0.586-0.314-1.177-0.456-1.772c-0.018-0.079-0.041-0.156-0.06-0.235  c-0.017-0.069-0.026-0.14-0.042-0.209c-0.182-0.796-0.345-1.597-0.488-2.407c-0.024-0.13-0.049-0.261-0.069-0.391  c-0.135-0.793-0.248-1.593-0.346-2.398c-0.018-0.149-0.04-0.295-0.057-0.445c-0.086-0.776-0.151-1.558-0.203-2.346  c-0.011-0.164-0.027-0.33-0.036-0.495c-0.053-0.926-0.082-1.857-0.082-2.796c0-0.868,0.023-1.731,0.066-2.592  c0.004-0.074,0.013-0.149,0.017-0.224c0.318-5.838,1.623-11.51,3.901-16.896c6.256-14.791,18.939-25.456,34.004-29.325  c0.011-0.002,0.023-0.005,0.033-0.008c0.722-0.185,1.451-0.352,2.183-0.507c0.154-0.031,0.305-0.064,0.459-0.094  c0.696-0.14,1.398-0.266,2.103-0.377c0.071-0.012,0.141-0.025,0.212-0.036c0.76-0.115,1.524-0.211,2.293-0.292  c0.198-0.021,0.396-0.037,0.594-0.055c0.587-0.056,1.176-0.1,1.767-0.135c0.225-0.014,0.448-0.027,0.674-0.038  c0.775-0.035,1.55-0.059,2.33-0.059s1.556,0.024,2.33,0.059c0.225,0.011,0.448,0.024,0.673,0.038c0.592,0.035,1.18,0.08,1.768,0.135  c0.198,0.018,0.397,0.035,0.594,0.055c0.769,0.081,1.534,0.178,2.293,0.292c0.071,0.011,0.141,0.024,0.21,0.036  c0.707,0.111,1.409,0.237,2.107,0.377c0.152,0.03,0.303,0.063,0.455,0.094c0.735,0.154,1.465,0.321,2.188,0.507  c0,0,0.02,0.005,0.03,0.008c15.066,3.87,27.75,14.534,34.007,29.325c2.278,5.386,3.583,11.058,3.901,16.896  c0.004,0.075,0.013,0.15,0.017,0.224c0.042,0.861,0.066,1.726,0.066,2.592c0,1.007-0.038,2.006-0.097,3.002  c-0.014,0.248-0.036,0.497-0.055,0.745c-0.058,0.798-0.135,1.594-0.23,2.385c-0.026,0.216-0.053,0.431-0.081,0.648  c-0.129,0.969-0.282,1.936-0.468,2.894c-0.003,0.015-0.005,0.03-0.008,0.045C152.762,400.046,151.901,402.971,150.781,405.822z"/>
<g>
	<path style="fill:#ACB7C9;" d="M98.787,437.737c-0.172-0.016-0.345-0.031-0.516-0.05l22.495-11.359   c-13.892,5.166-52.917,5.284-58.967-31.31c-6.175-37.356,29.982-55.383,35.518-57.909c0.32-0.04,0.64-0.089,0.963-0.123   c0.198-0.02,0.396-0.037,0.594-0.055c0.154-0.015,0.306-0.023,0.459-0.035c-0.435-0.037-0.871-0.073-1.309-0.1   c-0.224-0.014-0.447-0.027-0.673-0.038c-0.774-0.035-1.55-0.059-2.33-0.059s-1.555,0.024-2.33,0.059   c-0.225,0.011-0.448,0.024-0.674,0.038c-0.591,0.035-1.179,0.079-1.767,0.135c-0.198,0.018-0.396,0.035-0.594,0.055   c-0.769,0.081-1.533,0.177-2.293,0.292c-0.071,0.011-0.141,0.024-0.212,0.036c-0.705,0.111-1.407,0.237-2.103,0.377   c-0.154,0.03-0.305,0.063-0.459,0.094c-0.733,0.154-1.461,0.321-2.183,0.507c-0.012,0.002-0.024,0.005-0.033,0.008   c-15.066,3.87-27.748,14.534-34.004,29.325c-2.278,5.386-3.583,11.058-3.901,16.896c-0.004,0.075-0.013,0.15-0.017,0.224   c-0.042,0.861-0.066,1.726-0.066,2.592c0,0.939,0.029,1.869,0.082,2.796c0.009,0.165,0.025,0.331,0.036,0.495   c0.053,0.787,0.116,1.569,0.203,2.345c0.017,0.15,0.039,0.296,0.057,0.445c0.098,0.805,0.211,1.604,0.346,2.398   c0.022,0.13,0.046,0.261,0.069,0.391c0.143,0.81,0.306,1.611,0.488,2.407c0.016,0.07,0.025,0.14,0.042,0.209   c0.019,0.079,0.042,0.156,0.06,0.235c0.142,0.595,0.293,1.186,0.456,1.772c0.064,0.233,0.13,0.463,0.198,0.693   c0.146,0.499,0.296,0.996,0.459,1.49c0.112,0.347,0.23,0.692,0.349,1.035c0.128,0.365,0.257,0.73,0.393,1.091   c0.188,0.501,0.386,0.997,0.587,1.491c0.083,0.199,0.163,0.399,0.247,0.596c0.292,0.684,0.599,1.36,0.919,2.03   c0,0,0.006,0.015,0.011,0.022c3.862,8.052,9.809,14.986,17.372,20.081c0.583,0.392,1.176,0.771,1.787,1.147l0.593,0.355   c0.455,0.271,0.915,0.536,1.354,0.777l0.61,0.338c0.624,0.335,1.255,0.66,1.893,0.968c0.042,0.019,0.084,0.041,0.125,0.061   c0.639,0.306,1.288,0.597,1.99,0.899l0.604,0.25c0.495,0.204,0.992,0.401,1.517,0.598l0.622,0.231   c0.653,0.236,1.314,0.462,2.02,0.684c0.041,0.013,0.103,0.032,0.137,0.043c0.695,0.215,1.398,0.413,2.151,0.61l0.148,0.037   c0.066,0.017,0.13,0.032,0.196,0.049l0.288,0.072c0.536,0.133,1.076,0.258,1.689,0.388c0.049,0.011,0.092,0.019,0.14,0.029   c0.121,0.025,0.243,0.052,0.363,0.075c0.027,0.005,0.06,0.013,0.086,0.018c0.68,0.137,1.364,0.262,2.121,0.379   c0.045,0.009,0.102,0.017,0.157,0.025c0.741,0.112,1.489,0.205,2.234,0.286l0.064,0.007c0.171,0.018,0.344,0.033,0.516,0.05   l0.12,0.012c0.564,0.053,1.131,0.095,1.699,0.128l0.064,0.003c0.198,0.012,0.396,0.025,0.595,0.035l0.042,0.002   c0.743,0.033,1.492,0.054,2.248,0.056c0.029,0,0.058,0.002,0.087,0.002h0.001h0.001h0.006c0,0,0.016-0.001,0.023-0.001   c0.76,0,1.516-0.022,2.271-0.057c0.022,0,0.04,0,0.06-0.001l0.675-0.039l0.014-0.001c0.423-0.025,0.841-0.06,1.26-0.096   c-0.141-0.012-0.282-0.019-0.423-0.031L98.787,437.737z M90.994,338.3c0.011-0.002,0.023-0.005,0.033-0.008   c0.722-0.185,1.451-0.352,2.183-0.507c0.154-0.031,0.305-0.064,0.459-0.094c0.696-0.14,1.398-0.266,2.103-0.377   c0.071-0.012,0.141-0.025,0.212-0.036c0.122-0.019,0.247-0.029,0.37-0.047c-11.489,3.041-20.154,7.454-26.667,12.543   C75.726,344.317,83.021,340.35,90.994,338.3z"/>
	<path style="fill:#ACB7C9;" d="M120.765,426.33c1.456-0.542,2.638-1.139,3.475-1.755L120.765,426.33z"/>
</g>
<g>
	<path style="fill:#202121;" d="M121.035,490.981H86.251c-4.466,0-8.084-3.62-8.084-8.084v-13.254   c-5.079-1.57-9.994-3.609-14.704-6.097l-9.378,9.377c-3.157,3.157-8.276,3.156-11.432-0.001L18.06,448.328   c-3.157-3.157-3.157-8.275,0-11.431l9.376-9.378c-2.489-4.707-4.527-9.623-6.097-14.705H8.084c-4.466,0-8.084-3.618-8.084-8.084   v-34.783c0-4.465,3.618-8.084,8.084-8.084h13.255c1.569-5.079,3.609-9.995,6.098-14.705l-9.377-9.377   c-3.157-3.157-3.157-8.275,0-11.431l24.593-24.595c1.516-1.517,3.572-2.368,5.717-2.368s4.199,0.852,5.717,2.367l9.377,9.378   c4.709-2.49,9.626-4.527,14.704-6.097v-13.255c0-4.466,3.618-8.084,8.084-8.084h34.784c4.466,0,8.084,3.618,8.084,8.084v13.255   c5.078,1.569,9.993,3.608,14.704,6.097l9.377-9.378c1.517-1.516,3.572-2.367,5.717-2.367l0,0c2.144,0,4.199,0.852,5.717,2.368   l24.595,24.596c1.516,1.516,2.367,3.572,2.367,5.716s-0.852,4.201-2.368,5.717l-9.377,9.376c2.49,4.709,4.527,9.626,6.097,14.704   h13.255c4.466,0,8.084,3.62,8.084,8.084v34.783c0,4.466-3.618,8.084-8.084,8.084h-13.256c-1.569,5.08-3.608,9.995-6.097,14.705   l9.377,9.377c1.517,1.516,2.368,3.572,2.368,5.717c0,2.144-0.852,4.201-2.368,5.717l-24.595,24.594   c-3.156,3.156-8.276,3.156-11.431,0l-9.378-9.377c-4.708,2.489-9.625,4.526-14.704,6.097v13.252   C129.119,487.361,125.5,490.981,121.035,490.981z M94.336,474.813h18.615v-11.367c0-3.774,2.611-7.045,6.29-7.883   c7.662-1.745,14.933-4.759,21.609-8.961c3.195-2.01,7.353-1.542,10.021,1.125l8.046,8.045l13.162-13.162l-8.044-8.044   c-2.67-2.668-3.137-6.828-1.126-10.023c4.202-6.676,7.215-13.947,8.958-21.607c0.836-3.68,4.109-6.292,7.884-6.292h11.37V378.03   h-11.37c-3.775,0-7.046-2.612-7.884-6.292c-1.741-7.657-4.755-14.928-8.958-21.607c-2.01-3.194-1.544-7.353,1.126-10.022   l8.045-8.044l-13.163-13.163l-8.045,8.046c-2.67,2.668-6.827,3.137-10.022,1.125c-6.679-4.203-13.948-7.217-21.606-8.958   c-3.68-0.836-6.292-4.11-6.292-7.884v-11.37H94.336v11.37c0,3.774-2.612,7.046-6.292,7.884c-7.657,1.741-14.928,4.755-21.606,8.958   c-3.195,2.011-7.353,1.542-10.022-1.125l-8.045-8.046l-13.161,13.163l8.044,8.045c2.669,2.668,3.135,6.827,1.125,10.021   c-4.202,6.676-7.215,13.948-8.961,21.61c-0.836,3.679-4.109,6.289-7.883,6.289H16.168v18.614h11.369   c3.774,0,7.045,2.611,7.883,6.289c1.745,7.665,4.76,14.935,8.961,21.609c2.009,3.194,1.544,7.353-1.125,10.022l-8.044,8.046   l13.161,13.162l8.046-8.045c2.668-2.668,6.826-3.136,10.021-1.125c6.675,4.201,13.947,7.214,21.609,8.961   c3.679,0.836,6.29,4.108,6.29,7.883v11.368H94.336z"/>
	<path style="fill:#202121;" d="M103.65,437.976c-0.795,0-1.572-0.023-2.344-0.058l-0.7-0.04c-0.568-0.033-1.135-0.075-1.699-0.128   l-0.701-0.068c-0.746-0.08-1.495-0.172-2.234-0.286c-0.055-0.009-0.111-0.017-0.156-0.024c-0.756-0.119-1.442-0.245-2.122-0.38   c-0.168-0.032-0.363-0.074-0.558-0.116l-0.121-0.025c-0.526-0.112-1.067-0.238-1.603-0.371l-0.628-0.157   c-0.752-0.198-1.456-0.396-2.15-0.61c-0.034-0.011-0.1-0.031-0.141-0.045c-0.708-0.222-1.365-0.447-2.016-0.682l-0.622-0.231   c-0.525-0.198-1.023-0.395-1.517-0.598l-0.604-0.25c-0.702-0.302-1.351-0.593-1.99-0.899c-0.04-0.019-0.08-0.039-0.12-0.059   c-0.642-0.31-1.274-0.636-1.898-0.97l-0.61-0.337c-0.439-0.243-0.899-0.508-1.355-0.778l-0.571-0.343   c-0.632-0.388-1.224-0.765-1.808-1.159c-3.705-2.493-4.687-7.517-2.192-11.22c2.493-3.704,7.518-4.688,11.22-2.192   c0.402,0.269,0.81,0.528,1.222,0.783l0.391,0.235c0.301,0.179,0.611,0.358,0.925,0.531l0.446,0.247   c0.409,0.22,0.838,0.442,1.276,0.653c0.012,0.005,0.037,0.018,0.066,0.031l0,0c0.441,0.211,0.889,0.412,1.342,0.607l0.37,0.153   c0.383,0.158,0.723,0.293,1.068,0.423l0.441,0.165c0.461,0.166,0.926,0.327,1.398,0.474c0.022,0.006,0.057,0.018,0.088,0.027   c0.486,0.15,0.947,0.278,1.411,0.4l0.429,0.107c0.384,0.096,0.741,0.178,1.099,0.253l0.46,0.098   c0.517,0.105,1.011,0.195,1.507,0.272c0.02,0.003,0.049,0.008,0.077,0.012c0.497,0.075,0.999,0.136,1.504,0.19l0.465,0.044   c0.399,0.037,0.785,0.066,1.172,0.089l0.496,0.028c1.024,0.047,2.141,0.046,3.187-0.001l0.471-0.027   c0.387-0.023,0.773-0.053,1.156-0.088l0.474-0.044c0.513-0.055,1.018-0.115,1.518-0.192c0.023-0.003,0.045-0.008,0.068-0.011l0,0   c0.497-0.077,0.991-0.168,1.482-0.266l0.455-0.097c0.389-0.082,0.747-0.165,1.102-0.253l0.501-0.124   c0.439-0.115,0.921-0.25,1.397-0.398c0.051-0.017,0.057-0.019,0.109-0.033c0.42-0.132,0.885-0.291,1.347-0.458l0.465-0.174   c0.321-0.12,0.661-0.255,1.001-0.396l0.462-0.192c0.4-0.172,0.846-0.371,1.284-0.581c0.032-0.016,0.064-0.03,0.084-0.04   c0.485-0.238,0.889-0.447,1.29-0.662l0.395-0.22c0.34-0.188,0.651-0.366,0.957-0.549l0.399-0.239   c0.4-0.246,0.807-0.506,1.209-0.775c6.974-4.697,11.984-11.744,14.106-19.834c0.749-2.854,1.13-5.807,1.13-8.774   c0-4.656-0.911-9.17-2.706-13.413c-5.411-12.79-17.878-21.055-31.762-21.055c-13.887,0-26.353,8.264-31.764,21.055   c-1.795,4.245-2.706,8.757-2.706,13.413c0,2.61,0.304,5.244,0.905,7.83c0.202,0.869,0.44,1.741,0.71,2.598   c1.347,4.257-1.012,8.799-5.27,10.145c-4.253,1.351-8.799-1.011-10.145-5.27c-0.398-1.258-0.75-2.543-1.047-3.819   c-0.877-3.779-1.324-7.644-1.324-11.484c0-6.833,1.34-13.464,3.983-19.713c7.945-18.786,26.258-30.924,46.652-30.924   c20.396,0,38.709,12.139,46.655,30.924c2.643,6.249,3.983,12.88,3.983,19.713c0,4.353-0.558,8.686-1.659,12.878   c-3.12,11.895-10.477,22.245-20.715,29.141c-0.586,0.396-1.179,0.773-1.779,1.143l-0.543,0.327   c-0.516,0.306-0.975,0.571-1.441,0.828l-0.546,0.303c-0.666,0.357-1.295,0.681-1.934,0.991c-0.013,0.007-0.046,0.023-0.071,0.035   c-0.017,0.009-0.033,0.016-0.051,0.025c-0.639,0.306-1.287,0.597-1.94,0.877l-0.608,0.253c-0.538,0.221-1.036,0.418-1.537,0.608   l-0.646,0.239c-0.684,0.246-1.372,0.482-2.07,0.698c-0.017,0.005-0.107,0.033-0.124,0.039c-0.659,0.204-1.362,0.402-2.07,0.589   l-0.64,0.16c-0.572,0.142-1.111,0.267-1.657,0.383c-0.274,0.059-0.475,0.102-0.678,0.142c-0.712,0.143-1.447,0.277-2.185,0.389   c-0.024,0.004-0.049,0.009-0.073,0.012l0,0c-0.741,0.112-1.489,0.205-2.24,0.287l-0.71,0.068c-0.549,0.052-1.115,0.094-1.684,0.127   l-0.675,0.039C105.207,437.953,104.432,437.976,103.65,437.976z"/>
</g>
<g>
</g>
<g>
</g>
<g>
</g>
<g>
</g>
<g>
</g>
<g>
</g>
<g>
</g>
<g>
</g>
<g>
</g>
<g>
</g>
<g>
</g>
<g>
</g>
<g>
</g>
<g>
</g>
<g>
</g>
</svg>
