<?xml version="1.0" encoding="iso-8859-1"?>
<!-- Generator: Adobe Illustrator 19.0.0, SVG Export Plug-In . SVG Version: 6.00 Build 0)  -->
<svg xmlns="http://www.w3.org/2000/svg" xmlns:xlink="http://www.w3.org/1999/xlink" version="1.1" id="Layer_1" x="0px" y="0px" viewBox="0 0 512 512" style="enable-background:new 0 0 512 512;" xml:space="preserve">
<path style="fill:#694B4B;" d="M336.75,199.062h-2.708c-15.856,0-28.755,12.9-28.755,28.756v6.449l2.511-0.924l0.525-0.154  c0.065-0.014,0.129-0.02,0.245-0.036l0.125-0.02c0.125-0.014,0.249-0.02,0.397-0.02c0.24,0,24.145-0.172,34.967-15.133  c0.846-1.171,2.354-1.76,3.775-1.47c1.436,0.294,2.571,1.408,2.902,2.864c0.115,0.481,2.965,11.791,11.9,13.824l0.141,0.04  c0.075,0.02,0.151,0.038,0.265,0.074l2.463,0.855v-6.351C365.505,211.962,352.606,199.062,336.75,199.062z"/>
<g>
	<path style="fill:#EDBA89;" d="M338.04,284.659h-5.164c-1.091,0-2.191-0.071-3.366-0.215l-2.093-0.258v6.902l7.893,7.691   l8.192-8.499v-6.093l-2.094,0.258C340.249,284.585,339.116,284.659,338.04,284.659z"/>
	<path style="fill:#EDBA89;" d="M302.116,245.292l-0.672,0.102l-0.449,0.508c-1.075,1.215-1.666,2.768-1.666,4.38   c0,2.312,1.184,4.418,3.167,5.634l2.846,1.747v-13.468l-2.51,0.918C302.602,245.196,302.362,245.256,302.116,245.292z"/>
</g>
<g>
	<path style="fill:#FBCB99;" d="M346.868,229.333l-1.113-1.92l-1.701,1.426c-9.794,8.21-22.735,10.669-29.575,11.402l-1.667,0.179   v16.7c0,11.066,9.001,20.066,20.065,20.066h5.164c11.066,0,20.067-9.001,20.067-20.066v-17.495l-1.078-0.503   C352.949,237.214,349.53,233.922,346.868,229.333z"/>
	<path style="fill:#FBCB99;" d="M369.15,245.279l-0.592-0.109c-0.172-0.032-0.345-0.079-0.515-0.136l-2.465-0.833v13.533   l2.915-1.975c1.823-1.235,2.911-3.283,2.911-5.478c0-1.705-0.652-3.329-1.838-4.566L369.15,245.279z"/>
</g>
<path style="fill:#6598CB;" d="M372.417,303.714c-0.067-0.024-0.133-0.046-0.205-0.077l-22.511-9.026l-11.618,12.057  c-0.684,0.709-1.644,1.126-2.688,1.144c-0.98,0-1.906-0.377-2.607-1.061l-12.233-11.917l-22.514,8.817  c-0.057,0.023-0.112,0.042-0.204,0.072c-0.576,0.206-14.099,9.714-14.099,26.827l-2.987,41.886h102.805l2.987-41.886  C386.545,313.132,372.553,303.758,372.417,303.714z"/>
<path style="fill:#563B3B;" d="M314.253,227.818c0-14.799,11.238-27.018,25.626-28.583c-1.028-0.113-2.072-0.174-3.128-0.174h-2.708  c-15.856,0-28.755,12.9-28.755,28.756v6.449l2.511-0.924l0.525-0.154c0.065-0.014,0.129-0.02,0.245-0.036l0.125-0.02  c0.125-0.014,0.249-0.02,0.397-0.02c0.069,0,2.078-0.015,5.16-0.385v-4.91H314.253z"/>
<path style="fill:#EDBA89;" d="M321.774,257.12v-16.7l1.669-0.179c5.859-0.629,16.192-2.535,25.191-8.228  c-0.617-0.841-1.213-1.726-1.767-2.681l-1.113-1.92l-1.701,1.426c-9.794,8.21-22.735,10.669-29.575,11.402l-1.667,0.179v16.7  c0,11.066,9.001,20.066,20.065,20.066h5.164c0.642,0,1.276-0.032,1.902-0.093C329.764,276.135,321.774,267.544,321.774,257.12z"/>
<path style="fill:#4982AA;" d="M306.804,303.721c0.091-0.03,0.147-0.051,0.203-0.072l16.121-6.312l-2.572-2.504l-22.514,8.817  c-0.057,0.023-0.112,0.042-0.204,0.072c-0.576,0.206-14.099,5.232-14.099,22.345v41.885h8.965v-41.885  C292.706,308.953,306.228,303.928,306.804,303.721z"/>
<path style="fill:#202121;" d="M376.5,292.623l-21.18-8.493v-0.232c5.66-3.666,10.09-9.072,12.524-15.458  c8.713-1.463,15.379-9.038,15.379-18.158c0-5.322-2.28-10.11-5.899-13.477v-8.985c0-22.373-18.201-40.575-40.574-40.575h-2.708  c-22.373,0-40.575,18.202-40.575,40.575v8.931c-3.653,3.371-5.959,8.181-5.959,13.532c0,9.189,6.767,16.808,15.576,18.188  c2.436,6.374,6.86,11.768,12.511,15.428v0.184l-21.776,8.527c-2.707,0.998-21.899,8.95-21.899,33.457v45.622  c0,4.466,3.618,8.084,8.084,8.084h18.031c0.083,0,0.165-0.01,0.247-0.013c0.083,0.002,0.164,0.013,0.247,0.013h20.017h34.097h37.637  c4.466,0,8.084-3.618,8.084-8.084v-45.622C398.365,301.667,379.34,293.677,376.5,292.623z M317.159,244.268  c7.306-1.014,18.25-3.615,27.459-10.359c2.281,3.236,5.296,6.276,9.139,8.411v14.801c0,8.667-7.05,15.718-15.718,15.718h-5.164  c-8.666,0-15.717-7.051-15.717-15.718L317.159,244.268L317.159,244.268z M331.764,288.979c0.37,0.013,0.738,0.028,1.111,0.028h5.164  c0.222,0,0.442-0.012,0.663-0.017l-3.489,3.621l-3.449-3.36L331.764,288.979L331.764,288.979z M334.043,203.411h2.708  c13.456,0,24.406,10.948,24.406,24.407v0.081c-4.433-2.824-6.177-9.482-6.184-9.512c-0.702-3.099-3.153-5.499-6.265-6.135  c-3.111-0.634-6.309,0.607-8.17,3.182c-8.685,12.005-27.487,13.2-30.9,13.318v-0.932  C309.637,214.359,320.585,203.411,334.043,203.411z M382.197,363.604h-29.553h-34.097H298.53c-0.083,0-0.165,0.01-0.247,0.013  c-0.083-0.002-0.164-0.013-0.247-0.013h-9.947v-37.538c0-13.745,10.112-17.845,11.168-18.233c0.194-0.06,0.184-0.063,0.372-0.136  l19.9-7.793l10.225,9.961c1.51,1.471,3.534,2.294,5.641,2.294c0.042,0,0.085,0,0.128-0.001c2.151-0.033,4.199-0.924,5.693-2.474  l9.584-9.947l19.792,7.937c0.207,0.084,0.122,0.061,0.337,0.126c1.152,0.423,11.266,4.521,11.266,18.266L382.197,363.604  L382.197,363.604z"/>
<path style="fill:#694B4B;" d="M177.761,199.062h-2.708c-15.856,0-28.755,12.9-28.755,28.756v6.449l2.512-0.924l0.525-0.154  c0.065-0.014,0.129-0.02,0.245-0.036l0.125-0.02c0.125-0.014,0.249-0.02,0.397-0.02c0.24,0,24.145-0.172,34.966-15.133  c0.846-1.171,2.354-1.76,3.775-1.47c1.436,0.294,2.571,1.408,2.902,2.864c0.115,0.481,2.965,11.791,11.9,13.824l0.141,0.04  c0.075,0.02,0.151,0.038,0.265,0.074l2.463,0.855v-6.351C206.516,211.962,193.617,199.062,177.761,199.062z"/>
<g>
	<path style="fill:#EDBA89;" d="M179.05,284.659h-5.164c-1.091,0-2.191-0.071-3.366-0.215l-2.093-0.258v6.902l7.893,7.691   l8.192-8.499v-6.093l-2.094,0.258C181.26,284.585,180.127,284.659,179.05,284.659z"/>
	<path style="fill:#EDBA89;" d="M143.126,245.292l-0.672,0.102l-0.449,0.508c-1.075,1.215-1.666,2.768-1.666,4.38   c0,2.312,1.184,4.418,3.167,5.634l2.846,1.747v-13.468l-2.51,0.918C143.612,245.196,143.373,245.256,143.126,245.292z"/>
</g>
<g>
	<path style="fill:#FBCB99;" d="M187.878,229.333l-1.113-1.92l-1.701,1.426c-9.794,8.21-22.735,10.669-29.575,11.402l-1.667,0.179   v16.7c0,11.066,9.001,20.066,20.065,20.066h5.164c11.066,0,20.067-9.001,20.067-20.066v-17.495l-1.078-0.503   C193.96,237.214,190.539,233.922,187.878,229.333z"/>
	<path style="fill:#FBCB99;" d="M210.16,245.279l-0.592-0.109c-0.172-0.032-0.345-0.079-0.515-0.136l-2.465-0.833v13.533   l2.915-1.975c1.822-1.235,2.911-3.283,2.911-5.478c0-1.705-0.653-3.329-1.838-4.566L210.16,245.279z"/>
</g>
<path style="fill:#6598CB;" d="M213.427,303.714c-0.067-0.024-0.133-0.046-0.204-0.077l-22.511-9.026l-11.618,12.057  c-0.684,0.709-1.644,1.126-2.688,1.144c-0.98,0-1.906-0.377-2.607-1.061l-12.233-11.917l-22.514,8.817  c-0.057,0.023-0.112,0.042-0.204,0.072c-0.576,0.206-14.099,9.714-14.099,26.827l-2.987,41.886h102.805l2.987-41.886  C227.555,313.132,213.563,303.758,213.427,303.714z"/>
<path style="fill:#563B3B;" d="M155.263,227.818c0-14.799,11.238-27.018,25.626-28.583c-1.028-0.113-2.072-0.174-3.128-0.174h-2.708  c-15.856,0-28.755,12.9-28.755,28.756v6.449l2.511-0.924l0.525-0.154c0.065-0.014,0.129-0.02,0.245-0.036l0.125-0.02  c0.125-0.014,0.249-0.02,0.397-0.02c0.069,0,2.078-0.015,5.16-0.385v-4.91H155.263z"/>
<path style="fill:#EDBA89;" d="M162.784,257.12v-16.7l1.669-0.179c5.861-0.629,16.193-2.535,25.191-8.228  c-0.617-0.841-1.213-1.726-1.767-2.681l-1.113-1.92l-1.701,1.426c-9.794,8.21-22.735,10.669-29.575,11.402l-1.667,0.179v16.7  c0,11.066,9.001,20.066,20.065,20.066h5.164c0.642,0,1.276-0.032,1.902-0.093C170.774,276.135,162.784,267.544,162.784,257.12z"/>
<path style="fill:#4982AA;" d="M147.815,303.721c0.091-0.03,0.147-0.051,0.203-0.072l16.121-6.312l-2.572-2.504l-22.514,8.817  c-0.057,0.023-0.112,0.042-0.204,0.072c-0.576,0.206-14.099,5.232-14.099,22.345v41.885h8.965v-41.885  C133.716,308.953,147.238,303.928,147.815,303.721z"/>
<path style="fill:#202121;" d="M217.511,292.623l-21.18-8.493v-0.232c5.66-3.666,10.09-9.072,12.524-15.458  c8.713-1.463,15.379-9.038,15.379-18.158c0-5.322-2.28-10.11-5.899-13.477v-8.985c0-22.373-18.201-40.575-40.574-40.575h-2.708  c-22.373,0-40.575,18.202-40.575,40.575v8.931c-3.653,3.371-5.959,8.181-5.959,13.532c0,9.189,6.767,16.808,15.576,18.188  c2.436,6.374,6.86,11.768,12.511,15.428v0.184l-21.776,8.527c-2.707,0.998-21.899,8.95-21.899,33.457v45.622  c0,4.466,3.618,8.084,8.084,8.084h18.031c0.083,0,0.165-0.01,0.247-0.013c0.083,0.002,0.164,0.013,0.247,0.013h20.016h34.097h37.637  c4.466,0,8.084-3.618,8.084-8.084v-45.622C239.376,301.667,220.351,293.677,217.511,292.623z M158.169,244.268  c7.306-1.014,18.25-3.615,27.459-10.359c2.281,3.236,5.296,6.276,9.139,8.411v14.801c0,8.667-7.051,15.718-15.718,15.718h-5.164  c-8.666,0-15.717-7.051-15.717-15.718L158.169,244.268L158.169,244.268z M172.775,288.979c0.37,0.013,0.738,0.028,1.111,0.028h5.164  c0.222,0,0.442-0.012,0.663-0.017l-3.489,3.621l-3.449-3.36L172.775,288.979L172.775,288.979z M175.053,203.411h2.708  c13.456,0,24.406,10.948,24.406,24.407v0.081c-4.433-2.824-6.177-9.482-6.184-9.512c-0.702-3.099-3.153-5.499-6.265-6.135  c-3.11-0.634-6.309,0.607-8.17,3.182c-8.685,12.005-27.487,13.2-30.9,13.318v-0.932  C150.648,214.359,161.596,203.411,175.053,203.411z M223.207,363.604h-29.553h-34.097h-20.017c-0.083,0-0.165,0.01-0.247,0.013  c-0.083-0.002-0.164-0.013-0.247-0.013h-9.947v-37.538c0-13.745,10.112-17.845,11.168-18.233c0.194-0.06,0.184-0.063,0.372-0.136  l19.9-7.793l10.225,9.961c1.51,1.471,3.534,2.294,5.641,2.294c0.042,0,0.085,0,0.128-0.001c2.151-0.033,4.199-0.924,5.693-2.474  l9.584-9.947l19.792,7.937c0.207,0.084,0.122,0.061,0.337,0.126c1.152,0.423,11.266,4.521,11.266,18.266V363.604z"/>
<path style="fill:#694B4B;" d="M257.862,173.442h-3.725c-21.813,0-39.561,17.746-39.561,39.561v8.871l3.456-1.27l0.723-0.212  c0.088-0.018,0.179-0.027,0.337-0.05l0.172-0.027c0.172-0.019,0.344-0.026,0.545-0.026c0.331,0,33.221-0.238,48.105-20.818  c1.166-1.611,3.24-2.422,5.194-2.023c1.974,0.403,3.538,1.935,3.991,3.94c0.161,0.662,4.08,16.222,16.372,19.019l0.193,0.055  c0.106,0.027,0.209,0.052,0.366,0.102l3.39,1.177v-8.736C297.421,191.189,279.675,173.442,257.862,173.442z"/>
<g>
	<path style="fill:#EDBA89;" d="M259.635,291.204h-7.104c-1.503,0-3.017-0.097-4.632-0.294l-2.882-0.354v9.494l10.862,10.582   l11.268-11.694v-8.382l-2.882,0.354C262.674,291.103,261.117,291.204,259.635,291.204z"/>
	<path style="fill:#EDBA89;" d="M210.211,237.046l-0.924,0.14l-0.619,0.697c-1.476,1.671-2.291,3.808-2.291,6.024   c0,3.18,1.628,6.078,4.354,7.752l3.915,2.403v-18.528l-3.451,1.262C210.88,236.912,210.549,236.996,210.211,237.046z"/>
</g>
<g>
	<path style="fill:#FBCB99;" d="M271.779,215.089l-1.533-2.64l-2.341,1.961c-13.474,11.296-31.276,14.676-40.688,15.687   l-2.294,0.247v22.976c0,15.222,12.384,27.607,27.607,27.607h7.104c15.223,0,27.607-12.385,27.607-27.607v-24.072l-1.481-0.692   C280.147,225.932,275.442,221.4,271.779,215.089z"/>
	<path style="fill:#FBCB99;" d="M302.435,237.025l-0.816-0.151c-0.236-0.044-0.473-0.107-0.707-0.185l-3.391-1.147v18.618   l4.011-2.717c2.507-1.699,4.007-4.516,4.007-7.536c0-2.347-0.899-4.578-2.529-6.282L302.435,237.025z"/>
</g>
<path style="fill:#6598CB;" d="M306.928,317.418c-0.091-0.031-0.18-0.064-0.281-0.105l-30.968-12.418l-15.983,16.588  c-0.942,0.978-2.261,1.551-3.7,1.573c-1.347,0-2.62-0.517-3.586-1.458l-16.83-16.397l-30.972,12.131  c-0.078,0.03-0.154,0.058-0.28,0.1c-0.791,0.283-19.396,13.364-19.396,36.907l-4.111,42.797h141.438l4.111-42.797  C326.367,330.377,307.116,317.48,306.928,317.418z"/>
<path style="fill:#563B3B;" d="M226.908,213.003c0-20.36,15.461-37.17,35.257-39.322c-1.414-0.154-2.85-0.239-4.303-0.239h-3.725  c-21.813,0-39.561,17.746-39.561,39.561v8.871l3.456-1.27l0.723-0.212c0.088-0.018,0.179-0.027,0.337-0.05l0.172-0.027  c0.172-0.019,0.344-0.026,0.545-0.026c0.095,0,2.86-0.023,7.099-0.531v-6.755H226.908z"/>
<path style="fill:#EDBA89;" d="M237.254,253.319v-22.976l2.297-0.247c8.062-0.867,22.278-3.488,34.659-11.32  c-0.85-1.156-1.67-2.374-2.432-3.687l-1.533-2.64l-2.341,1.961c-13.474,11.296-31.276,14.676-40.688,15.687l-2.294,0.247v22.976  c0,15.222,12.384,27.607,27.607,27.607h7.104c0.883,0,1.756-0.046,2.616-0.127C248.249,279.476,237.254,267.659,237.254,253.319z"/>
<path style="fill:#4982AA;" d="M216.66,317.431c0.125-0.042,0.202-0.069,0.28-0.1l22.177-8.686l-3.538-3.445l-30.972,12.131  c-0.078,0.03-0.154,0.058-0.28,0.1c-0.791,0.284-19.396,7.197-19.396,30.742v42.797h12.332v-42.797  C197.263,324.628,215.868,317.714,216.66,317.431z"/>
<path style="fill:#202121;" d="M311.429,304.984l-31.057-12.453v-4.06c8.418-4.985,14.897-12.903,18.023-22.34  c11.394-0.998,20.366-10.576,20.366-22.223c0-6.916-3.163-13.106-8.115-17.204v-13.7c0-29.105-23.679-52.785-52.783-52.785h-3.725  c-29.105,0-52.785,23.679-52.785,52.785v13.635c-5,4.097-8.197,10.315-8.197,17.269c0,11.733,9.106,21.36,20.621,22.236  c3.129,9.431,9.605,17.344,18.019,22.326v4.013l-31.89,12.487c-3.013,1.091-28.197,11.169-28.197,43.201v47.935  c0,4.466,3.618,8.084,8.084,8.084h24.805c0.115,0,0.227-0.013,0.341-0.017c0.114,0.004,0.226,0.017,0.341,0.017h27.539h46.91h51.779  c4.466,0,8.084-3.618,8.084-8.084v-47.935C339.59,316.271,314.608,306.144,311.429,304.984z M247.962,293.886  c1.5,0.168,3.023,0.262,4.568,0.262h7.104c1.545,0,3.067-0.094,4.567-0.262v3.862l-8.388,8.705l-7.851-7.649L247.962,293.886  L247.962,293.886z M300.465,248.548v-8.921c0.165,0.044,0.33,0.091,0.499,0.125c1.007,1.096,1.628,2.552,1.628,4.154  C302.592,245.759,301.765,247.419,300.465,248.548z M254.135,176.388h3.725c20.189,0,36.615,16.425,36.615,36.616v4.624  c-0.026-0.008-0.052-0.013-0.078-0.02c-0.075-0.019-0.147-0.045-0.223-0.063c-10.672-2.427-14.185-16.742-14.21-16.848  c-0.702-3.098-3.153-5.498-6.265-6.134c-3.109-0.632-6.31,0.607-8.17,3.181c-14.006,19.361-45.268,19.599-45.719,19.6  c-0.01,0-0.019,0-0.028,0c-0.278,0-0.553,0.014-0.825,0.042c-0.08,0.009-0.157,0.026-0.237,0.036  c-0.189,0.025-0.378,0.048-0.564,0.086c-0.122,0.025-0.238,0.061-0.358,0.092c-0.094,0.024-0.188,0.045-0.28,0.071v-4.667  C217.52,192.813,233.945,176.388,254.135,176.388z M209.322,243.908c0-1.512,0.55-2.896,1.458-3.969  c0.313-0.053,0.62-0.12,0.919-0.207v9.023C210.255,247.629,209.322,245.877,209.322,243.908z M227.868,232.994  c10.165-1.131,27.85-4.715,41.591-16.047c3.105,5.234,7.846,10.833,14.838,14.169v22.201c0,13.599-11.064,24.662-24.662,24.662  h-7.104c-13.599,0-24.662-11.064-24.662-24.662L227.868,232.994L227.868,232.994z M323.421,388.022h-43.695h-46.91h-27.539  c-0.115,0-0.227,0.013-0.341,0.017c-0.114-0.004-0.226-0.017-0.341-0.017h-16.72v-39.851c0-21.493,16.789-27.733,17.436-27.964  c0.125-0.042,0.249-0.087,0.372-0.136l29.2-11.435l15.471,15.07c1.51,1.471,3.534,2.294,5.641,2.294c0.042,0,0.085,0,0.128-0.001  c2.15-0.033,4.199-0.924,5.692-2.474l14.607-15.158l29.129,11.68c0.142,0.058,0.288,0.111,0.432,0.16  c0.175,0.059,17.437,6.113,17.437,27.964L323.421,388.022L323.421,388.022z"/>
<path style="fill:#C8D0E2;" d="M453.449,218.965c-3.774,0-7.045-2.611-7.883-6.291c-4.845-21.294-13.224-41.502-24.903-60.064  c-2.008-3.194-1.544-7.352,1.125-10.021l29.985-29.989l-52.376-52.376l-29.986,29.988c-2.668,2.67-6.826,3.137-10.023,1.126  c-18.557-11.679-38.765-20.057-60.062-24.904c-3.68-0.838-6.291-4.11-6.291-7.883V16.17h-74.072v42.383  c0,3.774-2.611,7.045-6.291,7.883c-21.297,4.846-41.505,13.226-60.062,24.904c-3.195,2.01-7.353,1.544-10.023-1.126l-29.986-29.988  l-52.378,52.38l29.986,29.984c2.67,2.669,3.137,6.828,1.126,10.022c-11.679,18.561-20.056,38.77-24.903,60.064  c-0.836,3.68-4.11,6.291-7.883,6.291H16.168v74.072h42.383c3.774,0,7.046,2.611,7.883,6.291  c4.845,21.296,13.226,41.504,24.904,60.066c2.01,3.194,1.544,7.353-1.126,10.022l-29.987,29.984l52.377,52.376l29.987-29.985  c2.67-2.668,6.827-3.135,10.021-1.125c18.558,11.677,38.766,20.056,60.065,24.905c3.679,0.836,6.29,4.108,6.29,7.883v42.379h74.072  v-42.379c0-3.774,2.611-7.045,6.29-7.883c21.298-4.848,41.506-13.228,60.065-24.905c3.196-2.011,7.354-1.542,10.021,1.125  l29.987,29.985l52.376-52.376l-29.985-29.989c-2.669-2.669-3.133-6.827-1.125-10.021c11.678-18.558,20.056-38.765,24.903-60.061  c0.838-3.68,4.11-6.291,7.883-6.291h42.383v-74.072L453.449,218.965L453.449,218.965z M399.558,289.272  c-0.273,1.182-0.562,2.365-0.866,3.543c-0.604,2.355-1.274,4.711-1.989,7.002c-0.357,1.149-0.731,2.301-1.119,3.445  c-20.253,59.85-76.348,100.069-139.583,100.069h-0.004c-32.704,0-63.676-10.491-89.568-30.342  c-25.063-19.215-43.592-46.44-52.175-76.66c-0.33-1.169-0.644-2.33-0.945-3.496c-0.609-2.369-1.162-4.769-1.648-7.148  c-1.987-9.709-2.993-19.695-2.993-29.685c0-1.343,0.02-2.684,0.056-4.021l0.049-1.301c0.033-0.91,0.068-1.812,0.115-2.709  c0.017-0.319,0.039-0.654,0.061-0.99l0.032-0.512c0.057-0.863,0.111-1.677,0.177-2.487c0.027-0.349,0.061-0.719,0.095-1.089  l0.042-0.472c0.075-0.819,0.153-1.595,0.234-2.369c0.061-0.565,0.123-1.103,0.189-1.644c0.093-0.773,0.193-1.551,0.297-2.325  c0.065-0.506,0.141-1.04,0.218-1.572c0.117-0.806,0.244-1.6,0.373-2.391l0.06-0.37c0.063-0.378,0.124-0.756,0.19-1.132  c0.135-0.801,0.294-1.636,0.455-2.474l0.043-0.234c0.071-0.379,0.142-0.759,0.22-1.138c0.189-0.931,0.386-1.862,0.594-2.79  l0.068-0.314c0.054-0.255,0.109-0.511,0.169-0.764c0.562-2.466,1.218-5.014,1.928-7.49c0.053-0.185,0.116-0.4,0.181-0.613  l0.077-0.255c0.277-0.938,0.555-1.873,0.847-2.807c0.096-0.307,0.202-0.63,0.308-0.953l0.092-0.279  c0.257-0.794,0.528-1.62,0.811-2.438c0.089-0.263,0.198-0.569,0.306-0.876l0.142-0.401c0.287-0.803,0.564-1.569,0.847-2.33  c0.16-0.433,0.333-0.886,0.507-1.34c0.299-0.772,0.594-1.517,0.894-2.258c0.169-0.424,0.351-0.874,0.537-1.323  c0.314-0.753,0.626-1.483,0.943-2.216c0.185-0.429,0.378-0.867,0.571-1.304c0.347-0.775,0.69-1.517,1.036-2.258l0.403-0.882  c0.055-0.116,0.112-0.232,0.172-0.345c6.221-13.016,14.312-25.036,24.055-35.73c0.037-0.042,0.073-0.083,0.11-0.124  c0.157-0.174,0.319-0.345,0.481-0.516l0.212-0.227c0.562-0.608,1.133-1.223,1.716-1.83c0.235-0.246,0.472-0.487,0.711-0.73  l0.246-0.25c0.513-0.525,1.04-1.065,1.572-1.596l1.535-1.497c0.365-0.354,0.73-0.708,1.099-1.056l1.122-1.043  c0.514-0.479,1.036-0.96,1.562-1.433c0.386-0.347,0.781-0.696,1.177-1.046c0.513-0.451,1.012-0.887,1.514-1.323l1.272-1.075  c0.521-0.435,1.037-0.864,1.553-1.287c0.347-0.282,0.697-0.563,1.048-0.844l2.061-1.621c0.366-0.282,0.735-0.564,1.105-0.842  c0.494-0.375,1.027-0.774,1.56-1.165c0.444-0.329,0.902-0.664,1.366-0.996c0.527-0.378,1.053-0.748,1.583-1.121l0.171-0.12  c0.407-0.285,0.813-0.566,1.222-0.846c0.571-0.387,1.115-0.749,1.662-1.111c0.444-0.295,0.91-0.604,1.376-0.908  c0.587-0.379,1.146-0.73,1.704-1.079l0.151-0.095c0.423-0.266,0.843-0.53,1.268-0.79c0.571-0.35,1.154-0.696,1.739-1.041  l0.337-0.202c0.374-0.223,0.746-0.445,1.125-0.661c0.462-0.268,0.992-0.565,1.521-0.862l0.692-0.386  c0.314-0.178,0.629-0.355,0.945-0.526c0.481-0.262,0.97-0.52,1.461-0.778l0.938-0.495c0.283-0.152,0.566-0.302,0.852-0.448  c0.689-0.352,1.382-0.695,2.076-1.037l1.594-0.778c0.981-0.47,1.954-0.925,2.934-1.366c0.322-0.147,0.675-0.3,1.027-0.454  l0.813-0.356c0.506-0.221,1.012-0.443,1.523-0.66c0.358-0.152,0.731-0.302,1.105-0.453l0.857-0.349  c0.489-0.202,0.978-0.401,1.47-0.594c0.409-0.161,0.812-0.312,1.216-0.463l0.711-0.268c0.513-0.195,1.026-0.389,1.545-0.578  c0.412-0.149,0.8-0.285,1.188-0.419l0.629-0.221c0.569-0.199,1.137-0.397,1.71-0.587c0.453-0.152,0.929-0.306,1.404-0.459  l0.703-0.225c0.48-0.153,0.961-0.306,1.445-0.454c0.569-0.175,1.15-0.345,1.73-0.516c0.63-0.184,1.237-0.36,1.842-0.529  c0.604-0.167,1.191-0.326,1.783-0.482c0.621-0.164,1.239-0.324,1.854-0.479c0.583-0.149,1.19-0.296,1.798-0.44  c0.617-0.149,1.244-0.292,1.873-0.432c0.596-0.135,1.208-0.268,1.823-0.397c0.493-0.105,1.012-0.209,1.534-0.314l0.322-0.065  c0.64-0.125,1.244-0.243,1.848-0.352c0.64-0.117,1.284-0.23,1.926-0.338c0.59-0.102,1.198-0.203,1.81-0.3  c0.668-0.105,1.326-0.2,1.983-0.293l0.291-0.042c0.509-0.073,1.016-0.148,1.528-0.212c0.54-0.07,1.092-0.136,1.646-0.203  l0.975-0.113c0.389-0.045,0.779-0.089,1.172-0.13c0.517-0.055,1.056-0.105,1.595-0.154l1.023-0.093  c0.407-0.038,0.815-0.074,1.225-0.107c0.624-0.05,1.268-0.089,1.914-0.13l1.892-0.12c0.773-0.04,1.504-0.066,2.239-0.091l0.7-0.027  c0.32-0.014,0.642-0.027,0.965-0.037c1.278-0.031,2.536-0.05,3.797-0.052h0.239c1.275,0.002,2.533,0.019,3.783,0.051  c0,0,125.705,16.371,139.358,151.467c0.737,7.305,1.469,13.744,2.194,19.396c-0.135,0.832-0.269,1.664-0.417,2.491  C400.601,284.483,400.105,286.907,399.558,289.272z"/>
<g>
	<path style="fill:#202121;" d="M503.916,202.797h-44.118c-4.865-18.692-12.273-36.558-22.086-53.264l31.212-31.216   c3.157-3.157,3.157-8.275,0-11.432l-63.808-63.808c-1.517-1.516-3.572-2.367-5.717-2.367c-2.144,0-4.199,0.852-5.717,2.368   l-31.213,31.214c-16.704-9.814-34.569-17.223-53.264-22.086V8.085c0-4.465-3.618-8.084-8.084-8.084h-90.24   c-4.466,0-8.084,3.618-8.084,8.084v44.119c-18.695,4.865-36.559,12.273-53.264,22.086l-31.213-31.214   c-1.517-1.517-3.572-2.368-5.717-2.368c-2.144,0-4.199,0.852-5.717,2.368l-63.81,63.811c-1.516,1.517-2.367,3.573-2.367,5.717   c0,2.144,0.852,4.201,2.368,5.717l31.213,31.21c-9.814,16.706-17.223,34.572-22.086,53.264H8.084c-4.466,0-8.084,3.618-8.084,8.084   v90.24c0,4.466,3.618,8.084,8.084,8.084h44.119c4.865,18.694,12.273,36.56,22.087,53.266l-31.215,31.21   c-1.517,1.516-2.368,3.572-2.368,5.717c0,2.144,0.852,4.199,2.367,5.717l63.81,63.808c3.157,3.155,8.276,3.157,11.432,0   l31.214-31.211c16.704,9.812,34.57,17.221,53.264,22.087v44.115c0,4.466,3.618,8.084,8.084,8.084h90.24   c4.466,0,8.084-3.618,8.084-8.084V459.8c18.694-4.867,36.56-12.275,53.264-22.087l31.214,31.211c3.156,3.156,8.275,3.156,11.432,0   l63.808-63.808c3.157-3.158,3.157-8.276,0-11.432L437.71,362.47c9.813-16.703,17.221-34.57,22.085-53.263h44.12   c4.465,0,8.084-3.618,8.084-8.084v-90.24C512,206.415,508.38,202.797,503.916,202.797z M495.832,293.036h-42.383   c-3.774,0-7.045,2.611-7.883,6.291c-4.845,21.296-13.225,41.503-24.903,60.061c-2.009,3.194-1.544,7.352,1.125,10.021   l29.985,29.989l-52.376,52.376l-29.987-29.985c-2.669-2.668-6.826-3.136-10.021-1.125c-18.558,11.677-38.766,20.056-60.065,24.905   c-3.679,0.836-6.29,4.108-6.29,7.883v42.379h-74.072v-42.379c0-3.774-2.611-7.045-6.29-7.883   c-21.298-4.848-41.507-13.228-60.065-24.905c-3.193-2.009-7.352-1.542-10.021,1.125l-29.987,29.985l-52.377-52.376l29.987-29.984   c2.67-2.669,3.137-6.828,1.126-10.022c-11.679-18.561-20.059-38.77-24.904-60.066c-0.838-3.68-4.11-6.291-7.883-6.291H16.168   v-74.072h42.383c3.774,0,7.045-2.611,7.883-6.291c4.845-21.294,13.224-41.502,24.903-60.064c2.01-3.194,1.544-7.353-1.126-10.022   l-29.986-29.984l52.378-52.38l29.986,29.988c2.67,2.67,6.828,3.137,10.023,1.126c18.557-11.679,38.765-20.057,60.062-24.904   c3.68-0.838,6.291-4.11,6.291-7.883V16.169h74.072v42.383c0,3.774,2.611,7.045,6.291,7.883   c21.297,4.846,41.505,13.226,60.062,24.904c3.197,2.01,7.356,1.544,10.023-1.126l29.986-29.988l52.376,52.376l-29.985,29.989   c-2.669,2.669-3.135,6.827-1.125,10.021c11.679,18.561,20.056,38.77,24.903,60.064c0.838,3.68,4.11,6.291,7.883,6.291h42.382   V293.036z"/>
	<path style="fill:#202121;" d="M403.226,250.695c-0.03-0.904-0.067-1.808-0.113-2.715c-0.018-0.335-0.04-0.672-0.063-1.008   l-0.033-0.522c-0.054-0.827-0.11-1.649-0.175-2.455c-0.033-0.414-0.07-0.827-0.108-1.237l-0.031-0.358   c-0.073-0.792-0.151-1.581-0.237-2.389c-0.06-0.545-0.122-1.091-0.18-1.551c-0.092-0.795-0.195-1.59-0.301-2.392   c-0.07-0.522-0.143-1.044-0.218-1.551c-0.117-0.808-0.245-1.614-0.379-2.437l-0.069-0.424c-0.056-0.343-0.111-0.687-0.171-1.026   c-0.15-0.858-0.308-1.711-0.462-2.497l-0.038-0.201c-0.071-0.382-0.141-0.761-0.217-1.135c-0.198-0.977-0.407-1.949-0.61-2.863   l-0.043-0.202c-0.056-0.264-0.112-0.528-0.157-0.719c-0.581-2.543-1.24-5.106-1.95-7.583l-0.213-0.724   c-0.293-1.004-0.593-2.005-0.922-3.049l-0.33-1.009c-0.281-0.871-0.568-1.736-0.86-2.586c-0.142-0.42-0.292-0.839-0.421-1.196   c-0.29-0.827-0.589-1.653-0.87-2.397c-0.119-0.324-0.243-0.648-0.365-0.969l-0.132-0.345c-0.306-0.789-0.612-1.576-0.933-2.365   l-0.495-1.212c-0.326-0.781-0.656-1.558-0.988-2.321c-0.175-0.403-0.349-0.804-0.523-1.193c-0.358-0.805-0.728-1.604-1.108-2.42   l-0.101-0.222c-0.088-0.196-0.177-0.392-0.271-0.586c-0.041-0.086-0.085-0.174-0.13-0.26   c-6.221-13.017-14.305-25.033-24.034-35.723c-0.059-0.068-0.119-0.135-0.179-0.201l-0.861-0.921   c-0.503-0.543-1.009-1.089-1.48-1.577c-0.244-0.255-0.488-0.507-0.736-0.757l-0.296-0.302c-0.511-0.524-1.021-1.046-1.544-1.565   c-0.268-0.267-0.538-0.529-0.807-0.79l-0.291-0.283c-0.502-0.488-1.004-0.977-1.511-1.459c-3.242-3.069-8.358-2.933-11.429,0.307   c-3.071,3.241-2.933,8.358,0.307,11.43c0.456,0.431,0.906,0.87,1.35,1.301l0.979,0.957c0.46,0.458,0.914,0.922,1.367,1.387   l0.344,0.35c0.182,0.184,0.363,0.369,0.585,0.604c0.44,0.455,0.871,0.921,1.299,1.384l0.714,0.762   c0.033,0.038,0.068,0.075,0.101,0.112c8.779,9.617,16.06,20.442,21.64,32.177c0.032,0.068,0.066,0.137,0.102,0.205l0.245,0.536   c0.331,0.704,0.655,1.409,0.977,2.131c0.154,0.344,0.303,0.689,0.458,1.046c0.303,0.7,0.604,1.401,0.88,2.064l0.462,1.134   c0.285,0.701,0.558,1.406,0.816,2.067l0.125,0.33c0.095,0.245,0.19,0.493,0.307,0.815c0.264,0.702,0.521,1.412,0.791,2.181   c0.119,0.333,0.239,0.667,0.358,1.014c0.264,0.771,0.52,1.542,0.78,2.351l0.298,0.908c0.28,0.894,0.549,1.79,0.789,2.615   l0.203,0.683c0.639,2.232,1.224,4.51,1.758,6.844l0.152,0.702c0.194,0.868,0.379,1.735,0.558,2.618   c0.059,0.291,0.112,0.583,0.167,0.876l0.052,0.275c0.146,0.749,0.286,1.502,0.418,2.258l0.211,1.281   c0.116,0.719,0.231,1.437,0.338,2.171c0.066,0.448,0.128,0.899,0.188,1.339c0.093,0.698,0.184,1.4,0.275,2.188   c0.058,0.457,0.11,0.914,0.157,1.351c0.075,0.71,0.147,1.422,0.209,2.112l0.125,1.437c0.06,0.73,0.11,1.464,0.156,2.176   l0.037,0.577c0.018,0.262,0.036,0.524,0.049,0.778c0.042,0.805,0.073,1.616,0.102,2.44l0.045,1.131   c0.03,1.198,0.051,2.399,0.051,3.604c0,7.797-0.691,15.612-2.051,23.235c-0.382,2.143-0.821,4.293-1.308,6.396   c-0.245,1.056-0.502,2.109-0.773,3.163c-0.537,2.091-1.13,4.18-1.766,6.217c-0.318,1.022-0.648,2.039-0.995,3.06   c-18.032,53.29-67.973,89.092-124.277,89.092c-58.368,0-110.259-39.169-126.183-95.234c-0.293-1.046-0.578-2.099-0.848-3.139   c-0.538-2.092-1.03-4.228-1.463-6.344c-1.769-8.646-2.666-17.542-2.666-26.445c0-1.2,0.018-2.398,0.049-3.558l0.045-1.175   c0.029-0.808,0.059-1.616,0.103-2.436l0.086-1.369c0.047-0.72,0.094-1.442,0.155-2.18l0.123-1.404   c0.067-0.716,0.137-1.429,0.209-2.117c0.051-0.475,0.107-0.947,0.164-1.427c0.083-0.698,0.172-1.398,0.271-2.125   c0.061-0.462,0.127-0.925,0.192-1.372c0.103-0.703,0.213-1.404,0.328-2.099l0.231-1.386c0.122-0.728,0.262-1.451,0.405-2.199   l0.049-0.263c0.057-0.3,0.112-0.6,0.174-0.9c0.168-0.831,0.345-1.658,0.523-2.458l0.205-0.939c0.518-2.266,1.099-4.526,1.736-6.751   l0.218-0.731c0.249-0.848,0.501-1.693,0.77-2.551c0.073-0.235,0.151-0.468,0.227-0.701l0.113-0.345   c0.235-0.724,0.472-1.449,0.737-2.214c0.079-0.234,0.161-0.466,0.244-0.696l0.152-0.43c0.246-0.689,0.494-1.374,0.758-2.083   c0.147-0.398,0.298-0.79,0.439-1.159c0.258-0.667,0.52-1.331,0.799-2.022c0.161-0.399,0.323-0.799,0.48-1.179   c0.275-0.662,0.556-1.318,0.846-1.987c0.167-0.389,0.337-0.777,0.498-1.138c0.3-0.67,0.607-1.334,0.908-1.979l0.296-0.648   c0.037-0.072,0.073-0.148,0.109-0.221c5.575-11.729,12.855-22.553,21.639-32.173c0.028-0.031,0.057-0.064,0.085-0.095l0.537-0.572   c0.5-0.541,1.002-1.083,1.514-1.618l0.852-0.871c0.478-0.49,0.957-0.982,1.404-1.429l1.401-1.365   c0.312-0.303,0.624-0.607,0.928-0.894l1.04-0.967c0.446-0.415,0.895-0.831,1.355-1.243c0.357-0.321,0.716-0.637,1.058-0.941   c0.471-0.413,0.943-0.827,1.355-1.184l1.129-0.952c0.463-0.388,0.929-0.777,1.399-1.16c0.309-0.252,0.622-0.503,0.933-0.752   l1.802-1.417c0.316-0.244,0.633-0.486,0.987-0.752c0.466-0.352,0.933-0.703,1.417-1.058c0.397-0.293,0.792-0.584,1.191-0.871   c0.484-0.346,0.968-0.689,1.434-1.014l0.15-0.105c0.369-0.257,0.734-0.512,1.074-0.744c0.49-0.333,0.983-0.661,1.498-1.001   c0.418-0.278,0.838-0.556,1.229-0.811c0.499-0.321,1.002-0.637,1.516-0.958l0.175-0.111c0.361-0.227,0.722-0.455,1.092-0.681   c0.501-0.307,1.009-0.607,1.528-0.914l0.393-0.235c0.277-0.165,0.553-0.332,0.895-0.526c0.446-0.259,0.898-0.512,1.35-0.764   l0.732-0.41c0.248-0.14,0.498-0.281,0.755-0.421c0.412-0.224,0.828-0.442,1.242-0.66l1.02-0.539   c0.207-0.111,0.414-0.221,0.624-0.33c0.61-0.313,1.223-0.613,1.837-0.917l1.442-0.704c0.856-0.409,1.715-0.812,2.609-1.214   c0.271-0.123,0.542-0.241,0.815-0.36l0.863-0.377c0.439-0.193,0.877-0.385,1.333-0.579c0.278-0.117,0.557-0.23,0.836-0.342   l0.947-0.385c0.417-0.17,0.831-0.341,1.244-0.503c0.329-0.129,0.659-0.252,0.99-0.377l0.761-0.288   c0.445-0.168,0.89-0.337,1.314-0.492l1.651-0.581c0.496-0.174,0.991-0.346,1.507-0.518c0.409-0.137,0.822-0.271,1.234-0.403   l0.655-0.209c0.418-0.134,0.835-0.266,1.263-0.397c0.518-0.16,1.041-0.313,1.541-0.46c0.553-0.16,1.108-0.321,1.647-0.472   c0.53-0.148,1.058-0.289,1.581-0.427c0.55-0.147,1.104-0.29,1.679-0.434c0.521-0.133,1.047-0.259,1.581-0.386   c0.553-0.132,1.104-0.258,1.671-0.385c0.528-0.119,1.057-0.234,1.613-0.35c0.452-0.096,0.907-0.188,1.361-0.278l0.298-0.06   c0.541-0.106,1.085-0.211,1.63-0.312c0.57-0.106,1.144-0.204,1.734-0.304c0.534-0.093,1.066-0.181,1.589-0.263   c0.582-0.092,1.166-0.177,1.763-0.261l0.31-0.045c0.426-0.063,0.853-0.123,1.291-0.18c0.49-0.065,0.982-0.122,1.476-0.181   l0.939-0.109c0.323-0.038,0.648-0.075,0.992-0.112c0.459-0.049,0.921-0.091,1.381-0.133l1.033-0.094   c0.322-0.029,0.646-0.06,0.992-0.086c0.564-0.044,1.126-0.079,1.69-0.114l1.738-0.111c0.64-0.032,1.281-0.055,1.921-0.077   l0.846-0.033c0.24-0.01,0.48-0.022,0.693-0.026c1.129-0.028,2.262-0.044,3.383-0.046h0.211c1.135,0.002,2.268,0.018,3.37,0.045   l1.585,0.061c0.635,0.023,1.271,0.044,1.866,0.074l1.775,0.112c0.565,0.034,1.127,0.07,1.711,0.116   c0.324,0.024,0.649,0.055,0.972,0.084l1.039,0.095c0.459,0.041,0.917,0.083,1.394,0.134c0.362,0.038,0.722,0.08,1.084,0.122   l0.513,0.06c0.596,0.069,1.191,0.139,1.801,0.219c0.44,0.056,0.878,0.119,1.317,0.182l0.582,0.085   c0.482,0.069,0.964,0.14,1.442,0.215c0.545,0.086,1.092,0.178,1.627,0.268c0.576,0.098,1.15,0.198,1.689,0.295   c0.546,0.102,1.094,0.208,1.633,0.315c0.565,0.112,1.13,0.224,1.674,0.337c0.538,0.115,1.076,0.231,1.644,0.36   c0.548,0.122,1.095,0.247,1.635,0.377c0.541,0.128,1.079,0.26,1.63,0.399c0.55,0.137,1.096,0.281,1.633,0.423   c0.527,0.139,1.055,0.28,1.585,0.428c0.538,0.15,1.073,0.306,1.644,0.473c0.517,0.151,1.035,0.302,1.562,0.465   c0.529,0.161,1.055,0.329,1.597,0.504c0.522,0.167,1.044,0.335,1.548,0.502c0.527,0.178,1.053,0.361,1.599,0.553l0.372,0.129   c0.39,0.136,0.783,0.272,1.163,0.41c0.47,0.17,0.933,0.347,1.396,0.523l0.482,0.182c0.403,0.152,0.807,0.303,1.207,0.46   c0.393,0.155,0.786,0.315,1.176,0.473l0.947,0.385c0.31,0.126,0.62,0.251,0.924,0.38c0.49,0.206,0.975,0.421,1.463,0.636   l0.65,0.285c0.303,0.13,0.608,0.263,0.897,0.392c0.78,0.352,1.554,0.716,2.356,1.101c0.527,0.249,1.052,0.507,1.566,0.759   l0.301,0.149c0.542,0.266,1.083,0.531,1.638,0.819c0.279,0.142,0.554,0.29,0.829,0.434l0.764,0.404   c0.434,0.23,0.869,0.457,1.29,0.687c0.288,0.157,0.571,0.317,0.856,0.476l0.702,0.395c0.43,0.24,0.863,0.481,1.285,0.726   c0.428,0.247,0.852,0.502,1.312,0.777l0.292,0.172c0.401,0.237,0.802,0.473,1.209,0.724c0.306,0.189,0.611,0.379,0.916,0.57   l0.38,0.238c0.492,0.308,0.983,0.617,1.447,0.916c0.435,0.283,0.868,0.569,1.299,0.855c3.72,2.464,8.736,1.444,11.203-2.279   c2.464-3.723,1.444-8.738-2.279-11.204c-0.466-0.308-0.93-0.615-1.423-0.937c-0.55-0.356-1.106-0.704-1.671-1.057l-0.366-0.23   c-0.351-0.221-0.703-0.441-1.047-0.651c-0.476-0.292-0.96-0.579-1.442-0.864l-0.246-0.144c-0.489-0.294-0.98-0.586-1.478-0.876   c-0.498-0.289-1.004-0.57-1.506-0.852l-0.653-0.368c-0.347-0.196-0.696-0.391-1.056-0.589c-0.497-0.269-0.996-0.532-1.497-0.797   l-0.696-0.368c-0.35-0.188-0.701-0.374-1.036-0.544c-0.625-0.323-1.258-0.635-1.893-0.946l-0.304-0.15   c-0.591-0.29-1.182-0.58-1.747-0.847c-0.88-0.421-1.76-0.832-2.659-1.24c-0.369-0.165-0.738-0.326-1.107-0.486l-0.563-0.247   c-0.568-0.25-1.134-0.499-1.71-0.742c-0.374-0.157-0.748-0.309-1.124-0.462l-0.918-0.374c-0.459-0.188-0.919-0.374-1.38-0.555   c-0.47-0.184-0.941-0.362-1.413-0.54l-0.433-0.164c-0.538-0.204-1.078-0.409-1.631-0.609c-0.452-0.163-0.908-0.322-1.361-0.48   l-0.334-0.115c-0.599-0.211-1.198-0.42-1.816-0.627c-0.579-0.193-1.16-0.379-1.722-0.559c-0.609-0.197-1.22-0.391-1.823-0.576   c-0.597-0.183-1.195-0.36-1.764-0.524c-0.607-0.179-1.214-0.355-1.817-0.524c-0.604-0.168-1.207-0.331-1.821-0.493   c-0.609-0.16-1.216-0.319-1.815-0.469c-0.6-0.152-1.203-0.298-1.813-0.444c-0.621-0.148-1.244-0.292-1.837-0.424   c-0.611-0.139-1.223-0.272-1.854-0.405c-0.62-0.13-1.243-0.253-1.871-0.379c-0.605-0.12-1.21-0.237-1.851-0.356   c-0.633-0.114-1.267-0.225-1.91-0.335c-0.604-0.102-1.209-0.204-1.815-0.299c-0.54-0.085-1.082-0.164-1.625-0.245l-0.61-0.088   c-0.521-0.074-1.042-0.15-1.548-0.213c-0.665-0.087-1.333-0.165-2.016-0.246l-0.489-0.057c-0.433-0.051-0.866-0.101-1.281-0.144   c-0.535-0.057-1.07-0.107-1.607-0.156l-1.04-0.094c-0.404-0.038-0.808-0.073-1.19-0.103c-0.647-0.052-1.295-0.093-1.947-0.134   l-1.925-0.121c-0.722-0.037-1.449-0.064-2.174-0.087l-0.732-0.029c-0.319-0.014-0.638-0.026-0.986-0.037   c-1.25-0.03-2.508-0.049-3.783-0.051h-0.239c-1.261,0.002-2.519,0.019-3.797,0.052c-0.323,0.01-0.644,0.023-0.963,0.037   l-0.71,0.027c-0.731,0.025-1.459,0.052-2.23,0.091l-1.885,0.119c-0.649,0.041-1.295,0.082-1.92,0.132   c-0.411,0.031-0.817,0.068-1.224,0.106l-1.021,0.094c-0.541,0.05-1.08,0.099-1.599,0.154c-0.392,0.041-0.783,0.085-1.172,0.13   l-0.978,0.113c-0.554,0.067-1.105,0.132-1.644,0.203c-0.513,0.066-1.023,0.139-1.533,0.212l-0.288,0.042   c-0.656,0.094-1.315,0.19-1.983,0.293c-0.61,0.097-1.219,0.198-1.81,0.3c-0.642,0.11-1.286,0.221-1.927,0.338   c-0.603,0.111-1.207,0.227-1.846,0.352l-0.328,0.066c-0.518,0.105-1.038,0.208-1.53,0.313c-0.613,0.129-1.227,0.262-1.822,0.397   c-0.629,0.141-1.257,0.285-1.873,0.432c-0.608,0.144-1.215,0.292-1.797,0.439c-0.617,0.156-1.233,0.316-1.856,0.48   c-0.592,0.157-1.179,0.315-1.782,0.482c-0.605,0.169-1.212,0.345-1.839,0.528c-0.581,0.17-1.162,0.342-1.734,0.516   c-0.481,0.148-0.96,0.3-1.44,0.453l-0.707,0.226c-0.474,0.153-0.952,0.306-1.406,0.459c-0.571,0.191-1.139,0.388-1.708,0.587   l-0.625,0.219c-0.388,0.136-0.778,0.273-1.192,0.421c-0.52,0.19-1.034,0.384-1.549,0.579l-0.707,0.267   c-0.403,0.152-0.807,0.303-1.215,0.463c-0.494,0.194-0.983,0.393-1.473,0.595l-0.854,0.347c-0.374,0.151-0.747,0.302-1.105,0.454   c-0.511,0.216-1.016,0.438-1.522,0.66l-0.811,0.355c-0.355,0.154-0.708,0.308-1.03,0.455c-0.98,0.44-1.953,0.896-2.935,1.366   l-1.597,0.781c-0.693,0.341-1.384,0.682-2.07,1.034c-0.286,0.147-0.568,0.296-0.853,0.448l-0.94,0.496   c-0.489,0.258-0.978,0.515-1.457,0.776c-0.317,0.172-0.632,0.349-0.945,0.526l-0.694,0.388c-0.529,0.295-1.057,0.593-1.52,0.861   c-0.379,0.216-0.752,0.438-1.126,0.662l-0.337,0.202c-0.584,0.344-1.167,0.69-1.739,1.04c-0.421,0.258-0.839,0.52-1.258,0.785   l-0.162,0.101c-0.558,0.35-1.116,0.701-1.703,1.079c-0.469,0.304-0.932,0.611-1.376,0.908c-0.548,0.362-1.091,0.724-1.662,1.111   c-0.41,0.28-0.815,0.562-1.222,0.846l-0.171,0.12c-0.529,0.373-1.055,0.742-1.583,1.121c-0.463,0.332-0.922,0.668-1.366,0.996   c-0.532,0.391-1.066,0.79-1.56,1.165c-0.371,0.278-0.738,0.561-1.105,0.842l-2.059,1.62c-0.35,0.281-0.702,0.563-1.049,0.845   c-0.517,0.424-1.033,0.852-1.554,1.288l-1.272,1.072c-0.502,0.435-1.002,0.872-1.514,1.324c-0.396,0.348-0.79,0.697-1.177,1.046   c-0.527,0.472-1.048,0.954-1.562,1.433l-1.122,1.043c-0.37,0.349-0.735,0.703-1.099,1.057l-1.535,1.496   c-0.53,0.531-1.057,1.071-1.57,1.596l-0.246,0.25c-0.239,0.243-0.476,0.484-0.711,0.73c-0.583,0.607-1.154,1.223-1.715,1.83   l-0.213,0.227c-0.161,0.17-0.323,0.342-0.481,0.516c-0.037,0.041-0.073,0.082-0.11,0.124c-9.743,10.695-17.836,22.713-24.055,35.73   c-0.06,0.113-0.117,0.229-0.172,0.345l-0.403,0.882c-0.346,0.742-0.689,1.483-1.036,2.257c-0.194,0.439-0.386,0.876-0.571,1.305   c-0.317,0.733-0.629,1.462-0.943,2.216c-0.185,0.448-0.369,0.899-0.537,1.323c-0.301,0.741-0.595,1.486-0.894,2.259   c-0.174,0.453-0.346,0.907-0.507,1.339c-0.285,0.761-0.562,1.527-0.847,2.33l-0.142,0.4c-0.109,0.307-0.217,0.613-0.306,0.876   c-0.282,0.818-0.554,1.643-0.811,2.438l-0.093,0.281c-0.107,0.322-0.212,0.645-0.307,0.951c-0.292,0.932-0.571,1.868-0.847,2.807   l-0.077,0.254c-0.064,0.215-0.128,0.429-0.181,0.614c-0.71,2.476-1.367,5.025-1.928,7.49c-0.061,0.253-0.115,0.509-0.169,0.764   l-0.068,0.314c-0.207,0.928-0.405,1.858-0.595,2.79c-0.077,0.382-0.149,0.761-0.22,1.141l-0.041,0.222   c-0.161,0.839-0.32,1.678-0.456,2.481c-0.066,0.378-0.128,0.758-0.191,1.138l-0.059,0.362c-0.129,0.791-0.254,1.586-0.373,2.392   c-0.077,0.531-0.154,1.066-0.219,1.572c-0.105,0.774-0.204,1.552-0.296,2.325c-0.066,0.541-0.127,1.079-0.189,1.643   c-0.081,0.775-0.157,1.551-0.235,2.371l-0.042,0.475c-0.033,0.369-0.067,0.736-0.094,1.084c-0.067,0.806-0.12,1.617-0.177,2.487   l-0.032,0.511c-0.023,0.335-0.044,0.672-0.061,0.99c-0.049,0.898-0.082,1.8-0.115,2.709l-0.049,1.302   c-0.036,1.337-0.056,2.677-0.056,4.021c0,9.99,1.008,19.977,2.993,29.684c0.486,2.38,1.039,4.779,1.648,7.149   c0.302,1.165,0.615,2.326,0.945,3.496c8.583,30.22,27.112,57.445,52.176,76.66c25.891,19.851,56.863,30.342,89.572,30.342   c63.235,0,119.33-40.217,139.583-100.069c0.388-1.144,0.762-2.296,1.119-3.445c0.715-2.291,1.384-4.647,1.989-7.002   c0.303-1.178,0.593-2.361,0.866-3.543c0.548-2.365,1.043-4.789,1.471-7.199c1.528-8.552,2.303-17.324,2.303-26.073   c0-1.339-0.022-2.675-0.057-4.056L403.226,250.695z"/>
</g>
<path style="fill:#ACB7C9;" d="M114.255,296.329c-0.33-1.169-0.644-2.33-0.945-3.496c-0.609-2.369-1.162-4.769-1.648-7.148  c-1.987-9.709-2.993-19.695-2.993-29.685c0-1.343,0.02-2.684,0.056-4.021l0.049-1.301c0.033-0.91,0.068-1.812,0.115-2.709  c0.017-0.319,0.039-0.654,0.061-0.99l0.032-0.512c0.057-0.863,0.111-1.677,0.177-2.487c0.027-0.349,0.061-0.719,0.095-1.089  l0.042-0.472c0.075-0.819,0.153-1.595,0.234-2.369c0.061-0.565,0.123-1.103,0.189-1.644c0.093-0.773,0.193-1.551,0.298-2.325  c0.065-0.506,0.141-1.04,0.218-1.572c0.117-0.806,0.244-1.6,0.373-2.391l0.06-0.37c0.063-0.378,0.124-0.756,0.19-1.132  c0.135-0.801,0.294-1.636,0.455-2.474l0.043-0.234c0.071-0.379,0.142-0.759,0.22-1.138c0.189-0.931,0.386-1.862,0.594-2.79  l0.068-0.314c0.054-0.255,0.109-0.511,0.169-0.764c0.562-2.466,1.218-5.014,1.928-7.49c0.053-0.185,0.116-0.4,0.181-0.613  l0.077-0.255c0.277-0.938,0.555-1.873,0.847-2.807c0.096-0.307,0.202-0.629,0.308-0.953l0.092-0.279  c0.257-0.794,0.528-1.62,0.811-2.438c0.089-0.263,0.198-0.569,0.306-0.876l0.142-0.401c0.287-0.803,0.564-1.569,0.847-2.33  c0.16-0.433,0.333-0.886,0.507-1.34c0.299-0.772,0.594-1.517,0.894-2.258c0.169-0.424,0.351-0.874,0.537-1.323  c0.314-0.753,0.626-1.483,0.943-2.216c0.185-0.429,0.378-0.867,0.571-1.304c0.347-0.775,0.69-1.517,1.036-2.258l0.403-0.882  c0.055-0.116,0.112-0.232,0.172-0.345c6.221-13.016,14.312-25.036,24.055-35.73c0.037-0.042,0.073-0.083,0.11-0.124  c0.157-0.174,0.319-0.345,0.481-0.516l0.212-0.227c0.562-0.608,1.133-1.223,1.716-1.83c0.235-0.246,0.472-0.487,0.711-0.73  l0.246-0.25c0.513-0.525,1.04-1.065,1.572-1.596l1.535-1.497c0.365-0.354,0.73-0.708,1.099-1.056l1.122-1.043  c0.514-0.479,1.036-0.96,1.562-1.433c0.386-0.347,0.781-0.696,1.177-1.046c0.513-0.451,1.012-0.887,1.514-1.323l1.272-1.075  c0.521-0.435,1.037-0.864,1.553-1.287c0.347-0.282,0.697-0.563,1.048-0.844l2.061-1.621c0.366-0.282,0.735-0.564,1.105-0.842  c0.494-0.375,1.027-0.774,1.56-1.165c0.444-0.329,0.902-0.664,1.366-0.996c0.527-0.378,1.053-0.748,1.583-1.121l0.171-0.12  c0.407-0.285,0.813-0.566,1.222-0.846c0.571-0.387,1.115-0.749,1.662-1.111c0.444-0.295,0.91-0.604,1.376-0.908  c0.587-0.379,1.146-0.73,1.704-1.079l0.151-0.095c0.423-0.266,0.843-0.53,1.268-0.79c0.571-0.35,1.154-0.696,1.739-1.041  l0.337-0.202c0.374-0.223,0.746-0.445,1.125-0.661c0.462-0.268,0.992-0.565,1.521-0.862l0.692-0.386  c0.314-0.178,0.629-0.355,0.945-0.526c0.481-0.262,0.97-0.52,1.461-0.778l0.938-0.495c0.283-0.152,0.566-0.302,0.852-0.448  c0.689-0.352,1.382-0.695,2.076-1.037l1.594-0.778c0.981-0.47,1.954-0.925,2.934-1.366c0.322-0.147,0.675-0.3,1.027-0.454  l0.813-0.356c0.506-0.221,1.012-0.443,1.523-0.66c0.358-0.152,0.731-0.302,1.105-0.453l0.857-0.349  c0.489-0.202,0.978-0.401,1.47-0.594c0.409-0.161,0.812-0.312,1.216-0.463l0.711-0.268c0.513-0.195,1.026-0.389,1.545-0.578  c0.412-0.149,0.8-0.285,1.188-0.419l0.629-0.221c0.569-0.199,1.137-0.397,1.71-0.587c0.453-0.152,0.929-0.306,1.404-0.459  l0.703-0.225c0.48-0.153,0.961-0.306,1.445-0.454c0.569-0.175,1.15-0.345,1.73-0.516c0.63-0.184,1.237-0.36,1.842-0.529  c0.604-0.167,1.191-0.326,1.783-0.482c0.621-0.164,1.239-0.324,1.854-0.479c0.583-0.149,1.19-0.296,1.798-0.44  c0.617-0.149,1.244-0.292,1.873-0.432c0.596-0.135,1.208-0.268,1.823-0.397c0.493-0.105,1.012-0.209,1.534-0.314l0.322-0.065  c0.64-0.125,1.244-0.243,1.848-0.352c0.64-0.117,1.284-0.23,1.926-0.338c0.59-0.102,1.198-0.203,1.81-0.3  c0.668-0.105,1.326-0.2,1.983-0.293l0.291-0.042c0.509-0.073,1.016-0.148,1.528-0.212c0.54-0.07,1.092-0.136,1.646-0.203  l0.975-0.113c0.389-0.045,0.779-0.089,1.172-0.13c0.517-0.055,1.056-0.105,1.595-0.154l1.023-0.093  c0.407-0.038,0.815-0.074,1.224-0.107c0.624-0.05,1.268-0.089,1.914-0.13l1.892-0.12c0.268-0.014,0.526-0.024,0.786-0.034  c-0.455-0.019-0.91-0.04-1.365-0.056l-0.723-0.027c-0.319-0.015-0.64-0.027-0.988-0.038c-1.25-0.03-2.508-0.049-3.783-0.051h-0.239  c-1.261,0.002-2.519,0.019-3.797,0.052c-0.323,0.01-0.646,0.023-0.965,0.037l-0.7,0.027c-0.735,0.025-1.466,0.051-2.239,0.091  l-1.892,0.12c-0.648,0.041-1.29,0.081-1.914,0.13c-0.41,0.031-0.817,0.068-1.224,0.107l-1.023,0.093  c-0.54,0.05-1.078,0.099-1.595,0.154c-0.392,0.041-0.783,0.085-1.172,0.13l-0.975,0.113c-0.555,0.067-1.106,0.132-1.646,0.203  c-0.512,0.066-1.02,0.139-1.528,0.212l-0.291,0.042c-0.658,0.094-1.315,0.19-1.983,0.293c-0.611,0.097-1.22,0.198-1.81,0.3  c-0.642,0.11-1.286,0.221-1.926,0.338c-0.604,0.111-1.207,0.227-1.848,0.352l-0.322,0.065c-0.521,0.105-1.041,0.209-1.534,0.314  c-0.614,0.128-1.228,0.262-1.823,0.397c-0.629,0.141-1.257,0.285-1.873,0.432c-0.608,0.144-1.215,0.292-1.798,0.44  c-0.614,0.154-1.233,0.315-1.854,0.479c-0.593,0.157-1.18,0.315-1.783,0.482c-0.605,0.169-1.213,0.345-1.842,0.529  c-0.58,0.17-1.161,0.341-1.73,0.516c-0.484,0.148-0.965,0.301-1.445,0.454l-0.703,0.225c-0.474,0.153-0.952,0.307-1.404,0.459  c-0.572,0.191-1.14,0.388-1.71,0.587l-0.629,0.221c-0.387,0.135-0.776,0.271-1.188,0.419c-0.517,0.189-1.032,0.383-1.545,0.578  l-0.711,0.268c-0.404,0.152-0.807,0.303-1.216,0.463c-0.493,0.193-0.981,0.392-1.47,0.594l-0.857,0.349  c-0.375,0.151-0.747,0.301-1.105,0.453c-0.511,0.217-1.018,0.439-1.523,0.66l-0.813,0.356c-0.352,0.154-0.705,0.307-1.027,0.454  c-0.98,0.44-1.953,0.896-2.934,1.366l-1.594,0.778c-0.694,0.342-1.387,0.684-2.076,1.037c-0.286,0.147-0.568,0.296-0.852,0.448  l-0.938,0.495c-0.489,0.258-0.979,0.516-1.461,0.778c-0.316,0.171-0.632,0.348-0.945,0.526l-0.692,0.386  c-0.529,0.296-1.058,0.594-1.521,0.862c-0.379,0.216-0.751,0.438-1.125,0.661l-0.337,0.202c-0.584,0.345-1.167,0.691-1.739,1.041  c-0.424,0.26-0.845,0.524-1.268,0.79l-0.151,0.095c-0.558,0.349-1.117,0.701-1.704,1.079c-0.468,0.304-0.932,0.611-1.376,0.908  c-0.548,0.362-1.091,0.724-1.662,1.111c-0.41,0.28-0.815,0.562-1.222,0.846l-0.171,0.12c-0.53,0.373-1.055,0.743-1.583,1.121  c-0.463,0.332-0.921,0.667-1.366,0.996c-0.532,0.391-1.066,0.79-1.56,1.165c-0.371,0.278-0.739,0.561-1.105,0.842l-2.061,1.621  c-0.349,0.281-0.7,0.562-1.048,0.844c-0.516,0.424-1.033,0.852-1.553,1.287l-1.272,1.075c-0.502,0.434-1.002,0.872-1.514,1.323  c-0.396,0.349-0.79,0.697-1.177,1.046c-0.526,0.472-1.048,0.954-1.562,1.433l-1.122,1.043c-0.37,0.348-0.734,0.703-1.099,1.056  l-1.535,1.497c-0.531,0.531-1.058,1.071-1.572,1.596l-0.246,0.25c-0.239,0.243-0.476,0.484-0.711,0.73  c-0.583,0.607-1.154,1.223-1.716,1.83l-0.212,0.227c-0.162,0.17-0.323,0.342-0.481,0.516c-0.037,0.041-0.073,0.082-0.111,0.124  c-9.743,10.695-17.836,22.714-24.055,35.73c-0.06,0.113-0.117,0.229-0.172,0.345l-0.403,0.882c-0.346,0.742-0.689,1.483-1.036,2.258  c-0.194,0.438-0.386,0.876-0.571,1.304c-0.317,0.733-0.629,1.462-0.943,2.216c-0.185,0.448-0.368,0.899-0.537,1.323  c-0.3,0.742-0.595,1.486-0.894,2.258c-0.174,0.454-0.346,0.907-0.507,1.34c-0.285,0.761-0.562,1.527-0.847,2.33l-0.142,0.401  c-0.109,0.306-0.217,0.612-0.306,0.876c-0.282,0.818-0.554,1.643-0.811,2.438l-0.092,0.279c-0.108,0.323-0.212,0.646-0.308,0.953  c-0.292,0.932-0.57,1.868-0.847,2.807l-0.077,0.255c-0.064,0.213-0.128,0.429-0.181,0.613c-0.71,2.476-1.367,5.024-1.928,7.49  c-0.061,0.253-0.115,0.509-0.169,0.764l-0.068,0.314c-0.207,0.928-0.405,1.858-0.594,2.79c-0.078,0.378-0.149,0.759-0.22,1.138  l-0.043,0.234c-0.16,0.836-0.32,1.673-0.455,2.474c-0.065,0.376-0.127,0.753-0.19,1.132l-0.06,0.37  c-0.129,0.79-0.254,1.585-0.373,2.391c-0.077,0.531-0.154,1.066-0.218,1.572c-0.106,0.774-0.205,1.552-0.297,2.325  c-0.066,0.541-0.127,1.079-0.189,1.644c-0.081,0.774-0.157,1.55-0.234,2.369l-0.042,0.472c-0.033,0.37-0.068,0.739-0.095,1.089  c-0.067,0.81-0.12,1.623-0.177,2.487l-0.032,0.512c-0.023,0.335-0.044,0.67-0.061,0.99c-0.049,0.897-0.082,1.799-0.115,2.709  l-0.049,1.301c-0.036,1.337-0.056,2.677-0.056,4.021c0,9.99,1.008,19.977,2.993,29.685c0.486,2.379,1.039,4.778,1.648,7.148  c0.302,1.165,0.615,2.326,0.945,3.496c8.583,30.22,27.112,57.445,52.175,76.66c25.891,19.851,56.863,30.342,89.568,30.342h0.004  c2.301,0,4.589-0.068,6.869-0.175c-30.064-1.416-58.429-11.767-82.429-30.167C141.367,353.774,122.838,326.549,114.255,296.329z"/>
<g>
</g>
<g>
</g>
<g>
</g>
<g>
</g>
<g>
</g>
<g>
</g>
<g>
</g>
<g>
</g>
<g>
</g>
<g>
</g>
<g>
</g>
<g>
</g>
<g>
</g>
<g>
</g>
<g>
</g>
</svg>
