<?xml version="1.0" encoding="iso-8859-1"?>
<!-- Generator: Adobe Illustrator 19.0.0, SVG Export Plug-In . SVG Version: 6.00 Build 0)  -->
<svg xmlns="http://www.w3.org/2000/svg" xmlns:xlink="http://www.w3.org/1999/xlink" version="1.1" id="Layer_1" x="0px" y="0px" viewBox="0 0 512 512" style="enable-background:new 0 0 512 512;" xml:space="preserve">
<g>
	<polygon style="fill:#324A5E;" points="490.609,97.078 495.832,97.078 495.832,72.126 87.75,72.126 87.75,97.078 92.973,97.078     "/>
	<path style="fill:#324A5E;" d="M490.609,356.377H207.287v13.913c0,3.198-0.836,6.098-2.192,8.259h290.737v-24.413h-0.544   C493.967,355.54,492.354,356.377,490.609,356.377z"/>
</g>
<rect x="238.344" y="231.262" style="fill:#6598CB;" width="32.499" height="75.938"/>
<rect x="296.443" y="194.614" style="fill:#EF4C35;" width="32.499" height="109.891"/>
<rect x="354.541" y="215.094" style="fill:#F7971D;" width="30.774" height="89.415"/>
<rect x="412.64" y="148.232" style="fill:#FCD638;" width="32.499" height="156.284"/>
<path style="fill:#F3E2C2;" d="M101.057,248.758h19.978c4.466,0,8.084,3.618,8.084,8.084v13.255  c5.079,1.569,9.993,3.608,14.704,6.097l9.377-9.378c1.517-1.516,3.572-2.367,5.717-2.367c2.144,0,4.202,0.852,5.717,2.368  l24.593,24.595c3.157,3.157,3.157,8.275,0,11.431l-9.377,9.377c2.49,4.708,4.528,9.626,6.098,14.705h13.255  c4.466,0,8.084,3.618,8.084,8.084v7.808h275.239V104.624H101.057V248.758z M404.551,140.146c0-4.466,3.62-8.084,8.084-8.084h32.497  c4.466,0,8.084,3.618,8.084,8.084v172.448c0,4.466-3.618,8.084-8.084,8.084h-32.497c-4.465,0-8.084-3.618-8.084-8.084V140.146z   M346.453,207.01c0-4.466,3.618-8.084,8.084-8.084h32.497c4.466,0,8.084,3.618,8.084,8.084v105.583c0,4.466-3.618,8.084-8.084,8.084  h-32.497c-4.466,0-8.084-3.618-8.084-8.084V207.01z M288.354,186.53c0-4.466,3.618-8.084,8.084-8.084h32.497  c4.466,0,8.084,3.618,8.084,8.084v126.063c0,4.466-3.618,8.084-8.084,8.084h-32.497c-4.466,0-8.084-3.618-8.084-8.084V186.53z   M230.254,225.876c0-4.466,3.618-8.084,8.084-8.084h32.497c4.466,0,8.084,3.618,8.084,8.084v86.716c0,4.466-3.618,8.084-8.084,8.084  h-32.497c-4.466,0-8.084-3.618-8.084-8.084V225.876z M134.727,152.387h43.089c4.466,0,8.084,3.618,8.084,8.084  s-3.618,8.084-8.084,8.084h-43.089c-4.466,0-8.084-3.618-8.084-8.084C126.643,156.007,130.262,152.387,134.727,152.387z   M134.727,177.898h66.63c4.466,0,8.084,3.618,8.084,8.084s-3.618,8.084-8.084,8.084h-66.63c-4.466,0-8.084-3.618-8.084-8.084  C126.643,181.517,130.262,177.898,134.727,177.898z M134.727,203.407h66.63c4.466,0,8.084,3.62,8.084,8.084  c0,4.466-3.618,8.084-8.084,8.084h-66.63c-4.466,0-8.084-3.618-8.084-8.084C126.643,207.027,130.262,203.407,134.727,203.407z   M134.727,228.918h66.63c4.466,0,8.084,3.618,8.084,8.084c0,4.466-3.618,8.084-8.084,8.084h-66.63c-4.466,0-8.084-3.618-8.084-8.084  C126.643,232.537,130.262,228.918,134.727,228.918z"/>
<polygon style="fill:#FBD7B1;" points="112.914,115.403 482.525,115.403 482.525,97.078 101.057,97.078 101.057,248.758   112.914,248.758 "/>
<g>
	<polygon style="fill:#283D4C;" points="87.75,72.126 87.75,88.455 92.973,88.455 100.685,88.455 100.685,72.126  "/>
	<path style="fill:#283D4C;" d="M220.221,360.485h-12.935v9.307c0,2.139-0.836,4.079-2.192,5.524h12.935   c1.356-1.445,2.192-3.386,2.192-5.524V360.485z"/>
</g>
<path style="fill:#C8D0E2;" d="M179.75,343.093c-3.774,0-7.045-2.611-7.883-6.29c-1.744-7.662-4.759-14.932-8.961-21.61  c-2.009-3.194-1.544-7.352,1.125-10.021l8.044-8.045l-13.161-13.163l-8.045,8.046c-2.67,2.669-6.827,3.136-10.023,1.125  c-6.676-4.203-13.946-7.216-21.605-8.958c-3.68-0.836-6.292-4.108-6.292-7.883v-11.37H94.334v11.37c0,3.774-2.612,7.046-6.292,7.883  c-7.658,1.742-14.929,4.756-21.606,8.958c-3.195,2.01-7.352,1.544-10.022-1.125l-8.045-8.046l-13.162,13.164l8.044,8.043  c2.669,2.669,3.137,6.827,1.127,10.022c-4.204,6.682-7.218,13.951-8.959,21.607c-0.836,3.68-4.108,6.292-7.883,6.292H16.168v18.614  h11.37c3.775,0,7.046,2.612,7.883,6.292c1.741,7.657,4.755,14.929,8.958,21.609c2.009,3.194,1.544,7.353-1.125,10.022l-8.045,8.044  l13.162,13.162l8.048-8.045c2.667-2.668,6.825-3.137,10.02-1.125c6.675,4.199,13.946,7.214,21.609,8.961  c3.679,0.836,6.29,4.108,6.29,7.883v11.367h18.615v-11.367c0-3.774,2.611-7.045,6.29-7.883c7.663-1.745,14.933-4.759,21.607-8.961  c3.196-2.011,7.354-1.542,10.023,1.125l8.045,8.045l13.161-13.162l-8.044-8.046c-2.669-2.669-3.135-6.828-1.125-10.022  c4.199-6.673,7.214-13.944,8.961-21.609c0.836-3.679,4.108-6.29,7.883-6.29h11.369v-18.614L179.75,343.093L179.75,343.093z   M150.566,371.406c-0.17,0.42-0.345,0.838-0.527,1.251c-0.207,0.475-0.419,0.95-0.642,1.417c-0.136,0.287-0.278,0.567-0.42,0.85  c-3.131,6.3-7.57,11.932-13.108,16.506c-0.029,0.024-0.059,0.049-0.088,0.072c-1.253,1.029-2.543,2.02-3.904,2.936  c-0.568,0.383-1.157,0.759-1.753,1.124l-0.573,0.345c-0.47,0.28-0.924,0.54-1.383,0.794l-0.579,0.32  c-0.658,0.352-1.281,0.673-1.911,0.978l-0.006-0.013c-0.034,0.018-0.07,0.037-0.107,0.054l0.006,0.012  c-0.68,0.326-1.329,0.617-1.982,0.897l-0.601,0.251c-0.527,0.218-1.026,0.414-1.531,0.604l-0.65,0.243  c-0.675,0.244-1.358,0.475-2.048,0.692c-0.053,0.017-0.105,0.032-0.147,0.045c-0.653,0.204-1.36,0.402-2.07,0.587  c-0.051,0.014-0.108,0.026-0.161,0.04c-0.082,0.022-0.164,0.042-0.246,0.064c-0.073,0.018-0.146,0.037-0.219,0.055  c-0.584,0.144-1.12,0.268-1.658,0.383l-0.196,0.041c-0.127,0.027-0.253,0.055-0.382,0.08l-0.109,0.024  c-0.715,0.143-1.448,0.277-2.188,0.39c-0.815,0.124-1.561,0.216-2.311,0.296c-0.024,0.003-0.052,0.005-0.074,0.008  c-0.157,0.017-0.316,0.03-0.473,0.045c-0.022,0.002-0.042,0.004-0.065,0.006c-0.647,0.06-1.212,0.102-1.782,0.137l-0.108,0.006  c-0.18,0.01-0.36,0.022-0.541,0.03l-0.027,0.001c-0.795,0.036-1.573,0.059-2.353,0.059h-0.006c-0.765,0-1.53-0.023-2.291-0.057  c-0.016-0.001-0.03,0-0.046-0.001l-0.701-0.04l-0.014-0.001c-0.537-0.031-1.071-0.072-1.605-0.121  c-0.026-0.002-0.054-0.004-0.08-0.007c-0.244-0.023-0.425-0.039-0.599-0.057c-0.765-0.08-1.528-0.175-2.286-0.289  c-0.016-0.003-0.031-0.004-0.046-0.006c-0.043-0.007-0.113-0.018-0.157-0.025c-0.418-0.066-0.812-0.134-1.195-0.204  c-0.283-0.051-0.564-0.106-0.846-0.161c-0.025-0.005-0.053-0.01-0.078-0.015l-0.409-0.085c-1.568-0.327-3.118-0.72-4.645-1.194  c-0.005-0.001-0.01-0.002-0.014-0.003c-0.025-0.009-0.056-0.018-0.093-0.029c-0.037-0.012-0.072-0.025-0.11-0.037  c-0.644-0.203-1.281-0.419-1.914-0.647c-0.013-0.004-0.025-0.009-0.037-0.013l-0.26-0.097c-1.541-0.564-3.057-1.2-4.539-1.914  l-0.163-0.08c-0.313-0.151-0.658-0.326-1.011-0.509c-0.212-0.11-0.426-0.221-0.638-0.335c-0.042-0.023-0.084-0.043-0.127-0.066  l-0.59-0.327c-0.428-0.237-0.854-0.481-1.276-0.732c-0.039-0.023-0.079-0.044-0.117-0.068l-0.589-0.354  c-0.004-0.002-0.009-0.005-0.012-0.008c-0.615-0.379-1.228-0.769-1.828-1.175c-0.059-0.039-0.111-0.084-0.167-0.125  c-8.046-5.48-14.197-13.043-17.956-21.702c-0.072-0.148-0.151-0.291-0.215-0.444c-0.144-0.341-0.269-0.688-0.405-1.029  c-0.097-0.245-0.196-0.486-0.289-0.732c-0.307-0.808-0.594-1.623-0.858-2.444c-0.024-0.074-0.052-0.148-0.074-0.222  c-0.604-1.901-1.087-3.832-1.459-5.788c-0.029-0.161-0.056-0.323-0.084-0.485c-0.141-0.784-0.264-1.569-0.366-2.361  c-0.034-0.252-0.067-0.507-0.096-0.76c-0.083-0.72-0.15-1.444-0.203-2.17c-0.02-0.274-0.045-0.545-0.06-0.82  c-0.052-0.909-0.082-1.822-0.085-2.738c-0.001-0.055-0.005-0.11-0.005-0.165c0-27.921,22.716-50.637,50.636-50.637h0.001h0.001  c25.305,0,46.331,18.656,50.052,42.936c0.385,2.511,0.585,5.083,0.585,7.702c0,0.981-0.036,1.954-0.091,2.922  c-0.017,0.286-0.044,0.568-0.066,0.853c-0.051,0.695-0.113,1.385-0.192,2.072c-0.037,0.314-0.078,0.626-0.12,0.939  c-0.091,0.675-0.196,1.343-0.314,2.009c-0.051,0.29-0.099,0.58-0.155,0.869c-0.147,0.755-0.313,1.502-0.492,2.244  c-0.045,0.188-0.083,0.378-0.13,0.566c-0.233,0.912-0.488,1.815-0.77,2.707c-0.089,0.284-0.193,0.562-0.286,0.843  c-0.198,0.587-0.398,1.173-0.615,1.751C150.898,370.588,150.732,370.996,150.566,371.406z"/>
<g>
	<path style="fill:#202121;" d="M503.916,104.624c4.466,0,8.084-3.618,8.084-8.084V64.042c0-4.466-3.618-8.084-8.084-8.084H79.666   c-4.465,0-8.084,3.618-8.084,8.084V96.54c0,4.466,3.62,8.084,8.084,8.084h5.222v144.258c-3.815,0.649-6.721,3.961-6.721,7.96   v13.255c-5.079,1.569-9.994,3.608-14.704,6.097l-9.377-9.378c-1.517-1.516-3.572-2.367-5.717-2.367   c-2.144,0-4.202,0.852-5.717,2.368l-24.594,24.596c-3.157,3.157-3.157,8.276,0.001,11.432l9.377,9.376   c-2.491,4.71-4.528,9.626-6.098,14.704H8.084c-4.466,0-8.084,3.618-8.084,8.084v34.783c0,4.466,3.618,8.084,8.084,8.084h13.255   c1.569,5.079,3.608,9.994,6.097,14.705l-9.377,9.377c-3.157,3.158-3.157,8.276,0,11.433l24.594,24.594   c3.157,3.156,8.276,3.156,11.433,0l9.378-9.378c4.708,2.49,9.623,4.527,14.704,6.098v13.254c0,4.466,3.618,8.084,8.084,8.084   h34.783c4.466,0,8.084-3.618,8.084-8.084v-13.254c5.08-1.57,9.995-3.608,14.704-6.097l9.378,9.377   c3.156,3.156,8.275,3.157,11.432-0.001l24.593-24.594c3.157-3.157,3.157-8.275,0-11.431l-9.376-9.378   c0.191-0.361,0.361-0.732,0.548-1.096h323.518c4.466,0,8.084-3.618,8.084-8.084v-32.497c0-4.466-3.618-8.084-8.084-8.084h-5.222   V104.624H503.916z M158.916,420.835l-8.046-8.045c-2.668-2.668-6.827-3.136-10.022-1.125c-6.673,4.201-13.945,7.214-21.607,8.961   c-3.679,0.836-6.29,4.109-6.29,7.883v11.367H94.335v-11.368c0-3.774-2.611-7.045-6.29-7.883c-7.663-1.745-14.933-4.76-21.609-8.961   c-3.195-2.01-7.353-1.542-10.021,1.125l-8.046,8.045l-13.162-13.162l8.045-8.044c2.669-2.669,3.135-6.828,1.125-10.022   c-4.203-6.68-7.217-13.95-8.957-21.609c-0.836-3.68-4.109-6.292-7.883-6.292h-11.37v-18.614h11.37c3.775,0,7.046-2.612,7.883-6.292   c1.741-7.656,4.755-14.926,8.959-21.607c2.009-3.195,1.541-7.353-1.127-10.022l-8.044-8.043l13.162-13.164l8.045,8.046   c2.67,2.668,6.827,3.137,10.022,1.125c6.678-4.202,13.947-7.215,21.606-8.958c3.68-0.836,6.292-4.11,6.292-7.883v-11.37h18.614   v11.37c0,3.775,2.612,7.046,6.292,7.883c7.658,1.741,14.929,4.755,21.605,8.958c3.195,2.011,7.353,1.542,10.023-1.125l8.045-8.046   l13.161,13.163l-8.044,8.045c-2.669,2.669-3.135,6.827-1.125,10.021c4.202,6.676,7.215,13.947,8.961,21.61   c0.836,3.679,4.109,6.29,7.883,6.29h11.369v18.614h-11.37c-3.774,0-7.045,2.611-7.883,6.29c-1.745,7.665-4.76,14.935-8.961,21.609   c-2.009,3.194-1.544,7.353,1.125,10.022l8.044,8.046L158.916,420.835z M495.832,375.315H205.093   c1.356-1.445,2.192-3.385,2.192-5.524v-9.307h283.324c1.745,0,3.358-0.558,4.678-1.499h0.544V375.315z M482.525,342.817H207.287   v-7.808c0-4.466-3.618-8.084-8.084-8.084h-13.255c-1.569-5.079-3.609-9.995-6.098-14.705l9.377-9.377   c3.157-3.157,3.157-8.275,0-11.431l-24.593-24.595c-1.516-1.517-3.572-2.368-5.717-2.368c-2.145,0-4.199,0.852-5.717,2.367   l-9.377,9.378c-4.709-2.49-9.625-4.527-14.704-6.097v-13.255c0-4.466-3.618-8.084-8.084-8.084h-19.978V104.624h307.434   c4.466,0,8.084-3.618,8.084-8.084c0-4.466-3.618-8.084-8.084-8.084H87.75V72.126h408.081v16.329h-59.321   c-4.466,0-8.084,3.618-8.084,8.084c0,4.466,3.618,8.084,8.084,8.084h46.014V342.817z"/>
	<path style="fill:#202121;" d="M270.837,217.792H238.34c-4.466,0-8.084,3.618-8.084,8.084v86.716c0,4.466,3.618,8.084,8.084,8.084   h32.497c4.466,0,8.084-3.618,8.084-8.084v-86.716C278.921,221.411,275.302,217.792,270.837,217.792z M262.753,304.507h-16.329   V233.96h16.329V304.507z"/>
	<path style="fill:#202121;" d="M328.936,178.445h-32.497c-4.466,0-8.084,3.618-8.084,8.084v126.063   c0,4.466,3.618,8.084,8.084,8.084h32.497c4.466,0,8.084-3.618,8.084-8.084V186.53C337.02,182.065,333.401,178.445,328.936,178.445z    M320.852,304.508h-16.329V194.614h16.329V304.508z"/>
	<path style="fill:#202121;" d="M387.034,198.925h-32.497c-4.466,0-8.084,3.618-8.084,8.084v105.583   c0,4.466,3.618,8.084,8.084,8.084h32.497c4.466,0,8.084-3.618,8.084-8.084V207.01C395.118,202.545,391.5,198.925,387.034,198.925z    M378.95,304.508h-16.329v-89.415h16.329V304.508z"/>
	<path style="fill:#202121;" d="M404.551,140.146v172.448c0,4.466,3.618,8.084,8.084,8.084h32.497c4.466,0,8.084-3.618,8.084-8.084   V140.146c0-4.466-3.618-8.084-8.084-8.084h-32.497C408.171,132.062,404.551,135.68,404.551,140.146z M420.72,148.23h16.329v156.28   H420.72V148.23z"/>
	<path style="fill:#202121;" d="M134.727,168.556h43.089c4.466,0,8.084-3.618,8.084-8.084s-3.618-8.084-8.084-8.084h-43.089   c-4.466,0-8.084,3.618-8.084,8.084S130.262,168.556,134.727,168.556z"/>
	<path style="fill:#202121;" d="M201.358,177.898h-66.63c-4.466,0-8.084,3.618-8.084,8.084s3.618,8.084,8.084,8.084h66.63   c4.466,0,8.084-3.618,8.084-8.084S205.823,177.898,201.358,177.898z"/>
	<path style="fill:#202121;" d="M201.358,203.407h-66.63c-4.466,0-8.084,3.618-8.084,8.084c0,4.466,3.618,8.084,8.084,8.084h66.63   c4.466,0,8.084-3.618,8.084-8.084C209.442,207.026,205.823,203.407,201.358,203.407z"/>
	<path style="fill:#202121;" d="M201.358,228.918h-66.63c-4.466,0-8.084,3.618-8.084,8.084c0,4.466,3.618,8.084,8.084,8.084h66.63   c4.466,0,8.084-3.618,8.084-8.084C209.442,232.536,205.823,228.918,201.358,228.918z"/>
</g>
<path style="fill:#ACB7C9;" d="M96.022,402.465c-0.016-0.003-0.031-0.004-0.046-0.006c-0.043-0.007-0.113-0.018-0.157-0.025  c-0.418-0.066-0.812-0.134-1.195-0.204c-0.283-0.051-0.564-0.106-0.846-0.161c-0.025-0.005-0.053-0.01-0.078-0.015l-0.409-0.085  c-1.568-0.327-3.118-0.72-4.645-1.194l8.48-6.319c-22.214-3.125-33.122-26.557-33.122-26.557s-5.774-2.214-8.72-0.492  c-0.562-1.812-1.024-3.648-1.379-5.509c-0.029-0.161-0.056-0.323-0.084-0.485c-0.141-0.784-0.264-1.569-0.366-2.361  c-0.034-0.252-0.067-0.507-0.096-0.76c-0.083-0.72-0.15-1.444-0.203-2.17c-0.02-0.274-0.045-0.545-0.06-0.82  c-0.052-0.909-0.082-1.822-0.085-2.738c-0.001-0.055-0.005-0.11-0.005-0.165c0-26.292,20.144-47.96,45.806-50.401  c-1.602-0.154-3.225-0.236-4.869-0.236h-0.001h-0.001c-27.921,0-50.637,22.716-50.637,50.637c0,0.056,0.004,0.111,0.005,0.165  c0.003,0.917,0.033,1.829,0.085,2.738c0.015,0.275,0.04,0.546,0.06,0.82c0.053,0.725,0.119,1.45,0.203,2.17  c0.029,0.253,0.061,0.508,0.096,0.76c0.102,0.79,0.225,1.577,0.366,2.361c0.028,0.162,0.055,0.324,0.084,0.485  c0.373,1.957,0.856,3.888,1.459,5.788c0.023,0.074,0.051,0.148,0.074,0.222c0.264,0.82,0.551,1.635,0.858,2.444  c0.093,0.246,0.192,0.487,0.289,0.732c0.136,0.342,0.261,0.689,0.405,1.029c0.065,0.153,0.142,0.296,0.215,0.444  c3.759,8.66,9.909,16.222,17.956,21.702c0.057,0.041,0.109,0.086,0.167,0.125c0.601,0.406,1.213,0.795,1.828,1.175  c0.003,0.002,0.008,0.005,0.012,0.008l0.589,0.354c0.039,0.024,0.079,0.044,0.117,0.068c0.423,0.25,0.847,0.495,1.276,0.732  l0.59,0.327c0.043,0.023,0.085,0.044,0.127,0.066c0.212,0.113,0.426,0.225,0.638,0.335c0.354,0.183,0.698,0.358,1.011,0.509  l0.163,0.08c1.482,0.715,2.998,1.351,4.539,1.914l0.26,0.097c0.012,0.004,0.024,0.009,0.037,0.013  c0.634,0.227,1.272,0.444,1.914,0.647c0.037,0.012,0.072,0.025,0.11,0.037c0.037,0.012,0.068,0.022,0.093,0.029  c0.004,0.001,0.009,0.002,0.014,0.003c1.526,0.474,3.076,0.868,4.645,1.194l0.409,0.083c0.025,0.005,0.053,0.01,0.078,0.015  c0.282,0.056,0.563,0.111,0.846,0.161c0.384,0.07,0.778,0.139,1.195,0.204c0.044,0.008,0.114,0.019,0.157,0.025  c0.015,0.002,0.03,0.003,0.046,0.006c0.758,0.113,1.521,0.208,2.286,0.289c0.175,0.018,0.356,0.035,0.599,0.057  c0.026,0.002,0.054,0.004,0.08,0.007c0.534,0.049,1.068,0.089,1.605,0.121l0.014,0.001l0.701,0.04c0.016,0.001,0.03,0,0.046,0.001  c0.761,0.033,1.525,0.057,2.291,0.057h0.006c0.78,0,1.556-0.023,2.353-0.059l0.027-0.001c0.181-0.009,0.361-0.022,0.541-0.03  l0.108-0.006c0.57-0.035,1.136-0.077,1.782-0.137c0.012-0.001,0.023-0.002,0.032-0.003c-0.183-0.017-0.341-0.031-0.484-0.046  C97.543,402.675,96.78,402.58,96.022,402.465z"/>
<path style="fill:#202121;" d="M103.65,403.038c-0.794,0-1.572-0.023-2.344-0.058l-0.7-0.04c-0.569-0.033-1.135-0.075-1.699-0.128  c-0.29-0.026-0.498-0.045-0.704-0.068c-0.741-0.08-1.486-0.171-2.227-0.285c-0.041-0.007-0.109-0.017-0.153-0.025  c-0.757-0.117-1.442-0.244-2.126-0.38l-0.683-0.143c-0.526-0.112-1.062-0.237-1.594-0.369c-0.262-0.065-0.475-0.118-0.688-0.172  c-0.696-0.183-1.404-0.382-2.101-0.598c-0.025-0.009-0.057-0.018-0.093-0.029l0,0c-0.694-0.216-1.381-0.451-2.061-0.695l-0.565-0.21  c-4.176-1.578-6.332-6.263-4.752-10.438c1.579-4.177,6.195-6.306,10.37-4.723l0.427,0.16c0.462,0.166,0.924,0.326,1.393,0.472  c0.023,0.008,0.047,0.015,0.071,0.023c0.523,0.161,0.974,0.287,1.427,0.405l0.377,0.094c0.441,0.11,0.802,0.194,1.164,0.271  l0.462,0.098c0.508,0.101,1,0.193,1.497,0.268c0.023,0.004,0.058,0.01,0.091,0.015c0.504,0.075,0.997,0.135,1.492,0.188l0.46,0.044  c0.403,0.037,0.787,0.066,1.175,0.088l0.496,0.029c1.026,0.046,2.143,0.047,3.186-0.001l0.472-0.027  c0.388-0.023,0.773-0.053,1.156-0.088l0.471-0.044c0.521-0.055,1.029-0.116,1.535-0.194c0.068-0.012,0.07-0.012,0.137-0.022  c0.417-0.064,0.91-0.156,1.4-0.253l0.467-0.099c0.375-0.079,0.736-0.163,1.096-0.252l0.445-0.111  c0.49-0.129,0.966-0.261,1.436-0.407v0.001c0.025-0.009,0.051-0.017,0.075-0.024c0.468-0.147,0.93-0.305,1.389-0.471l0.429-0.161  c0.357-0.135,0.695-0.267,1.03-0.405l0.452-0.189c0.421-0.18,0.849-0.372,1.274-0.574c0.018-0.009,0.033-0.016,0.043-0.019  c0.509-0.247,0.937-0.469,1.361-0.696l0.403-0.224c0.317-0.175,0.626-0.352,0.932-0.535l0.423-0.252  c0.396-0.244,0.786-0.492,1.17-0.75c9.564-6.433,15.269-17.133,15.269-28.629c0-19.007-15.462-34.469-34.469-34.469  c-19.008,0-34.47,15.462-34.47,34.469c0,7.575,2.409,14.76,6.966,20.777c2.696,3.559,1.996,8.63-1.563,11.325  c-3.56,2.697-8.631,1.995-11.325-1.563c-6.703-8.851-10.246-19.411-10.246-30.54c0-27.921,22.716-50.637,50.636-50.637  c27.922,0,50.639,22.716,50.639,50.637c0,16.887-8.376,32.602-22.405,42.039c-0.57,0.385-1.16,0.762-1.759,1.129l-0.567,0.341  c-0.47,0.28-0.924,0.54-1.383,0.794l-0.579,0.32c-0.658,0.352-1.281,0.673-1.911,0.978c-0.042,0.022-0.11,0.055-0.152,0.074  c-0.639,0.305-1.284,0.596-1.937,0.874l-0.601,0.251c-0.527,0.218-1.025,0.414-1.53,0.604l-0.651,0.243  c-0.675,0.244-1.358,0.476-2.049,0.693c-0.052,0.016-0.102,0.031-0.142,0.044c-0.655,0.204-1.364,0.402-2.073,0.589  c-0.199,0.052-0.413,0.106-0.625,0.157c-0.582,0.144-1.118,0.268-1.657,0.383l-0.688,0.144c-0.714,0.143-1.447,0.277-2.187,0.39  c-0.815,0.124-1.561,0.216-2.311,0.296c-0.197,0.022-0.405,0.04-0.613,0.059c-0.646,0.06-1.21,0.102-1.781,0.137l-0.677,0.038  C105.207,403.014,104.431,403.038,103.65,403.038z"/>
<g>
</g>
<g>
</g>
<g>
</g>
<g>
</g>
<g>
</g>
<g>
</g>
<g>
</g>
<g>
</g>
<g>
</g>
<g>
</g>
<g>
</g>
<g>
</g>
<g>
</g>
<g>
</g>
<g>
</g>
</svg>
