<?xml version="1.0" encoding="iso-8859-1"?>
<!-- Generator: Adobe Illustrator 19.0.0, SVG Export Plug-In . SVG Version: 6.00 Build 0)  -->
<svg xmlns="http://www.w3.org/2000/svg" xmlns:xlink="http://www.w3.org/1999/xlink" version="1.1" id="Layer_1" x="0px" y="0px" viewBox="0 0 512 512" style="enable-background:new 0 0 512 512;" xml:space="preserve">
<path style="fill:#F7971D;" d="M62.594,288.048h104.776l-2.43-7.181c-17.281-50.994-17.674-86.183-16.372-102.621l0.465-5.866H80.93  l0.465,5.867c1.304,16.433,0.912,51.617-16.369,102.621L62.594,288.048z"/>
<g>
	<polygon style="fill:#EB8423;" points="54.642,318.923 175.324,318.923 170.793,293.484 59.173,293.484  "/>
	<polygon style="fill:#EB8423;" points="177.442,385.376 10.872,385.376 10.872,410.816 170.545,410.816  "/>
</g>
<path style="fill:#F7971D;" d="M195.234,359.369c0.109-0.604,0.398-1.122,0.862-1.541l2.592-2.334l-1.014-3.229l-7.585-27.905  H39.869L24.806,379.94h166.769L195.234,359.369z"/>
<g>
	<polygon style="fill:#EB8423;" points="334.555,385.375 341.455,410.816 501.128,410.816 501.128,385.375  "/>
	<rect x="151.887" y="454.454" style="fill:#EB8423;" width="208.217" height="25.44"/>
</g>
<g>
	<path style="fill:#F7971D;" d="M341.928,166.943h110.181c4.38,0,7.946-3.563,7.946-7.944v-10.242c0-4.378-3.564-7.942-7.946-7.942   h-15.305c-1.047,0-2.013-0.612-2.459-1.559c-0.446-0.947-0.304-2.081,0.36-2.888c7.179-8.709,11.133-19.729,11.133-31.035   c0-26.919-21.901-48.819-48.819-48.819c-26.918,0-48.819,21.901-48.819,48.82c0,9.93,2.978,19.505,8.613,27.693l1.62,2.353h53.101   c1.499,0,2.718,1.219,2.718,2.718c0,1.499-1.219,2.718-2.718,2.718h-69.605c-4.382,0-7.947,3.563-7.947,7.942v10.242   C333.982,163.379,337.546,166.943,341.928,166.943z"/>
	<path style="fill:#F7971D;" d="M203.611,357.126h104.775l-2.43-7.181c-17.278-50.991-17.673-86.182-16.369-102.62l0.465-5.866   h-68.105l0.465,5.867c1.304,16.431,0.912,51.616-16.372,102.619L203.611,357.126z"/>
	<path style="fill:#F7971D;" d="M59.892,166.944h110.182c4.38,0,7.946-3.563,7.946-7.944v-10.242c0-4.379-3.564-7.943-7.946-7.943   h-15.305c-1.047,0-2.012-0.612-2.458-1.558c-0.447-0.947-0.304-2.081,0.361-2.889c7.179-8.712,11.132-19.733,11.132-31.035   c0-26.919-21.901-48.819-48.82-48.819s-48.818,21.901-48.818,48.819c0,9.931,2.977,19.506,8.611,27.691l1.62,2.355h53.101   c1.499,0,2.718,1.219,2.718,2.718c0,1.499-1.219,2.718-2.718,2.718H59.892c-4.38,0-7.946,3.563-7.946,7.943v10.242   C51.945,163.38,55.511,166.944,59.892,166.944z"/>
	<path style="fill:#F7971D;" d="M313.235,355.428l2.669,2.397c0.464,0.419,0.755,0.937,0.863,1.541l3.66,20.573h166.769   l-15.068-55.581H321.905l-7.445,27.474L313.235,355.428z"/>
</g>
<g>
	<polygon style="fill:#EB8423;" points="336.678,318.922 457.358,318.922 452.83,293.483 341.206,293.483  "/>
	<polygon style="fill:#EB8423;" points="195.66,388.002 316.342,388.002 311.814,362.562 200.188,362.562  "/>
</g>
<g>
	<path style="fill:#F7971D;" d="M200.907,236.023h110.185c4.38,0,7.944-3.563,7.944-7.944v-10.242c0-4.38-3.563-7.944-7.944-7.944   h-15.308c-1.047,0-2.013-0.612-2.458-1.559c-0.447-0.947-0.306-2.08,0.36-2.887c7.179-8.709,11.133-19.729,11.133-31.035   c0-26.919-21.901-48.819-48.819-48.819c-26.919,0-48.819,21.901-48.819,48.819c0,9.931,2.978,19.505,8.613,27.692l1.62,2.353   h53.101c1.499,0,2.718,1.219,2.718,2.718s-1.219,2.718-2.718,2.718h-69.606c-4.38,0-7.944,3.563-7.944,7.944v10.242   C192.963,232.46,196.527,236.023,200.907,236.023z"/>
	<path style="fill:#F7971D;" d="M344.629,288.047h104.777l-2.431-7.181c-17.283-51.001-17.675-86.186-16.371-102.62l0.464-5.867   h-68.104l0.465,5.866c1.303,16.435,0.91,51.622-16.371,102.623L344.629,288.047z"/>
	<polygon style="fill:#F7971D;" points="169.374,446.301 342.626,446.301 329.031,396.156 182.968,396.156  "/>
</g>
<g>
	<polygon style="fill:#F37521;" points="334.555,385.375 341.455,410.816 357.763,410.816 350.864,385.375  "/>
	<rect x="151.887" y="454.454" style="fill:#F37521;" width="16.309" height="25.44"/>
	<path style="fill:#F37521;" d="M358.432,135.379h16.309l-1.62-2.353c-5.635-8.187-8.613-17.763-8.613-27.693   c0-24.139,17.617-44.232,40.665-48.126c-2.654-0.449-5.374-0.695-8.154-0.695c-26.919,0-48.819,21.901-48.819,48.819   c0,9.93,2.978,19.505,8.613,27.693L358.432,135.379z"/>
	<path style="fill:#F37521;" d="M350.291,158.998v-10.242c0-4.378,3.564-7.942,7.947-7.942h-16.309   c-4.382,0-7.947,3.563-7.947,7.942v10.242c0,4.38,3.564,7.944,7.947,7.944h16.309C353.855,166.943,350.291,163.379,350.291,158.998   z"/>
	<path style="fill:#F37521;" d="M238.722,247.325l-0.465-5.867h-16.309l0.465,5.867c1.304,16.431,0.912,51.616-16.372,102.619   l-2.43,7.18h16.309l2.43-7.18C239.634,298.941,240.026,263.758,238.722,247.325z"/>
	<path style="fill:#F37521;" d="M97.704,178.247l-0.465-5.867H80.93l0.465,5.867c1.304,16.433,0.912,51.617-16.369,102.621   l-2.431,7.18h16.309l2.431-7.18C98.616,229.863,99.007,194.68,97.704,178.247z"/>
	<polygon style="fill:#F37521;" points="59.173,293.484 54.642,318.923 70.951,318.923 75.482,293.484  "/>
	<rect x="10.872" y="385.371" style="fill:#F37521;" width="16.309" height="25.439"/>
	<polygon style="fill:#F37521;" points="39.869,324.36 24.805,379.94 41.114,379.94 56.178,324.36  "/>
	<path style="fill:#F37521;" d="M68.254,158.999v-10.242c0-4.379,3.565-7.943,7.946-7.943H59.891c-4.38,0-7.946,3.563-7.946,7.943   v10.242c0,4.38,3.565,7.944,7.946,7.944h16.309C71.82,166.944,68.254,163.38,68.254,158.999z"/>
	<path style="fill:#F37521;" d="M76.396,135.379h16.309l-1.62-2.355c-5.634-8.184-8.611-17.76-8.611-27.691   c0-24.139,17.615-44.232,40.664-48.126c-2.653-0.449-5.375-0.695-8.154-0.695c-26.919,0-48.818,21.901-48.818,48.819   c0,9.931,2.977,19.506,8.611,27.691L76.396,135.379z"/>
	<path style="fill:#F37521;" d="M332.213,357.826l-2.669-2.397l1.224-3.597l7.445-27.475h-16.309l-7.445,27.475l-1.224,3.597   l2.669,2.397c0.464,0.419,0.755,0.937,0.863,1.541l3.66,20.573h16.309l-3.66-20.573   C332.968,358.764,332.676,358.244,332.213,357.826z"/>
	<polygon style="fill:#F37521;" points="341.206,293.483 336.678,318.922 352.987,318.922 357.514,293.483  "/>
	<polygon style="fill:#F37521;" points="200.188,362.562 195.66,388.002 211.969,388.002 216.496,362.562  "/>
	<path style="fill:#F37521;" d="M209.272,228.078v-10.242c0-4.38,3.563-7.944,7.944-7.944h-16.309c-4.38,0-7.944,3.563-7.944,7.944   v10.242c0,4.38,3.563,7.944,7.944,7.944h16.309C212.836,236.023,209.272,232.46,209.272,228.078z"/>
	<path style="fill:#F37521;" d="M217.414,204.457h16.309l-1.62-2.353c-5.635-8.186-8.613-17.761-8.613-27.692   c0-24.14,17.617-44.232,40.665-48.126c-2.654-0.448-5.374-0.695-8.154-0.695c-26.919,0-48.819,21.901-48.819,48.819   c0,9.931,2.978,19.505,8.613,27.692L217.414,204.457z"/>
	<path style="fill:#F37521;" d="M379.74,178.243l-0.465-5.866h-16.309l0.465,5.866c1.303,16.435,0.91,51.622-16.371,102.623   l-2.431,7.18h16.309l2.431-7.18C380.65,229.866,381.043,194.679,379.74,178.243z"/>
	<polygon style="fill:#F37521;" points="182.968,396.156 169.374,446.301 185.683,446.301 199.277,396.156  "/>
</g>
<path style="fill:#202121;" d="M503.846,374.503h-6.858l-14.91-54.997c-0.963-3.553-4.188-6.02-7.869-6.02h-6.775l-4.299-24.151  c-0.406-2.282-1.742-4.195-3.57-5.391c-19.625-54.734-19.213-91.901-17.975-106.13h10.519c10.375,0,18.818-8.441,18.818-18.817  v-10.242c0-10.374-8.442-18.815-18.818-18.815h-0.712c3.473-7.684,5.314-16.081,5.314-24.61c0-30.147-22.469-55.131-51.537-59.121  V29.385c0-4.504-3.65-8.154-8.154-8.154c-4.504,0-8.154,3.65-8.154,8.154v16.827c-29.068,3.99-51.537,28.974-51.537,59.121  c0,8.528,1.841,16.925,5.314,24.61h-0.712c-10.377,0-18.819,8.44-18.819,18.815v10.242c0,10.376,8.442,18.817,18.819,18.817h10.551  c1.277,14.122,1.732,51.056-18.024,106.141c-1.82,1.197-3.149,3.105-3.553,5.38l-4.299,24.151h-6.777  c-3.682,0-6.907,2.468-7.871,6.021l-1.857,6.85c-11.007-40.177-10.551-67.683-9.526-79.462h10.519  c10.376,0,18.817-8.441,18.817-18.817v-10.242c0-10.376-8.441-18.817-18.817-18.817h-0.714c3.473-7.682,5.314-16.08,5.314-24.609  c0-30.147-22.469-55.131-51.537-59.121V98.464c0-4.504-3.65-8.154-8.154-8.154c-4.503,0-8.154,3.65-8.154,8.154v16.827  c-29.068,3.99-51.537,28.974-51.537,59.121c0,8.528,1.841,16.925,5.313,24.609h-0.714c-10.376,0-18.817,8.441-18.817,18.817v10.242  c0,10.376,8.441,18.817,18.817,18.817h10.521c1.023,11.779,1.48,39.285-9.53,79.466l-1.858-6.853  c-0.963-3.553-4.188-6.02-7.871-6.02h-6.772l-4.301-24.151c-0.406-2.281-1.741-4.192-3.567-5.389  c-19.626-54.735-19.213-91.903-17.976-106.132h10.518c10.376,0,18.818-8.441,18.818-18.817v-10.242  c0-10.374-8.441-18.816-18.818-18.816h-0.712c3.474-7.685,5.316-16.082,5.316-24.61c0-30.147-22.47-55.131-51.538-59.121V29.385  c0-4.504-3.651-8.154-8.154-8.154c-4.503,0-8.154,3.65-8.154,8.154v16.827c-29.068,3.99-51.536,28.974-51.536,59.121  c0,8.529,1.841,16.925,5.313,24.61h-0.713c-10.377,0-18.818,8.441-18.818,18.816V159c0,10.376,8.442,18.817,18.818,18.817h10.551  c1.279,14.122,1.734,51.056-18.024,106.142c-1.82,1.197-3.148,3.105-3.552,5.38l-4.299,24.151H37.79  c-3.682,0-6.907,2.468-7.871,6.021l-14.906,54.996H8.154c-4.503,0-8.154,3.65-8.154,8.154v30.875c0,4.504,3.651,8.154,8.154,8.154  h153.812l-5.935,21.895h-6.858c-4.503,0-8.154,3.65-8.154,8.154v30.875c0,4.504,3.651,8.154,8.154,8.154h213.656  c4.504,0,8.154-3.65,8.154-8.154v-30.875c0-4.504-3.65-8.154-8.154-8.154h-6.859l-5.936-21.896h153.813  c4.504,0,8.154-3.65,8.154-8.154v-30.875C512,378.154,508.35,374.503,503.846,374.503z M339.418,158.998v-10.242  c0-1.382,1.125-2.506,2.51-2.506h10.958h4.347h54.299c4.504,0,8.154-3.65,8.154-8.154c0-4.504-3.65-8.154-8.154-8.154h-50.243  c-4.957-7.202-7.653-15.808-7.653-24.61c0-23.921,19.462-43.383,43.383-43.383s43.383,19.462,43.383,43.383  c0,10.045-3.512,19.839-9.891,27.577c-2.008,2.435-2.429,5.811-1.083,8.665c1.346,2.855,4.22,4.676,7.375,4.676h15.305  c1.384,0,2.509,1.124,2.509,2.506v10.242c0,1.382-1.125,2.508-2.509,2.508h-17.596c-0.008,0-0.015,0-0.022,0H359.54  c-0.003,0-0.008,0-0.011,0h-17.601C340.544,161.507,339.418,160.381,339.418,158.998z M368.851,177.815h56.334  c-1.3,16.39-1.055,52.572,16.641,104.796h-89.616C369.904,230.387,370.15,194.205,368.851,177.815z M345.761,298.919h102.515  l2.593,14.567H343.168L345.761,298.919z M326.064,329.795h7.369h127.169c0.007,0,0.015,0,0.022,0h7.346l12.121,44.708H327.724  h-2.741l-2.864-16.089c-0.328-1.847-1.269-3.45-2.582-4.631c0.054-0.16,0.113-0.317,0.158-0.483L326.064,329.795z M204.743,367.998  H307.26l2.593,14.568H202.15L204.743,367.998z M198.399,228.078v-10.242c0-1.382,1.125-2.508,2.508-2.508h10.962h4.347h54.298  c4.504,0,8.154-3.65,8.154-8.154c0-4.504-3.65-8.154-8.154-8.154H220.27c-4.958-7.201-7.654-15.807-7.654-24.609  c0-23.921,19.462-43.383,43.383-43.383s43.383,19.462,43.383,43.383c0,10.045-3.512,19.839-9.892,27.576  c-2.008,2.434-2.429,5.81-1.083,8.665c1.346,2.855,4.218,4.676,7.375,4.676h15.308c1.383,0,2.508,1.125,2.508,2.508v10.242  c0,1.382-1.125,2.508-2.508,2.508h-17.602c-0.003,0-0.005,0-0.009,0h-92.574C199.524,230.586,198.399,229.461,198.399,228.078z   M227.833,246.895h56.336c-1.3,16.391-1.056,52.572,16.638,104.795h-89.615C228.888,299.467,229.132,263.285,227.833,246.895z   M57.381,158.999v-10.242c0-1.382,1.126-2.507,2.509-2.507H70.85h4.347h54.298c4.503,0,8.154-3.65,8.154-8.154  c0-4.504-3.651-8.154-8.154-8.154H79.253c-4.957-7.201-7.653-15.808-7.653-24.61c0-23.921,19.46-43.383,43.382-43.383  c23.923,0,43.384,19.462,43.384,43.383c0,10.043-3.514,19.837-9.893,27.578c-2.007,2.435-2.428,5.81-1.082,8.665  c1.346,2.854,4.218,4.675,7.375,4.675h15.305c1.383,0,2.509,1.124,2.509,2.507v10.242c0,1.382-1.125,2.508-2.509,2.508h-17.596  c-0.009,0-0.018,0-0.027,0h-74.91c-0.022,0-0.045,0-0.066,0H59.892C58.508,161.508,57.381,160.382,57.381,158.999z M86.815,177.816  h56.336c-1.3,16.39-1.056,52.572,16.64,104.796H70.176C87.869,230.387,88.114,194.206,86.815,177.816z M63.725,298.92H166.24  l2.594,14.567H61.132L63.725,298.92z M44.029,329.796h7.369h127.17c0.008,0,0.014,0,0.022,0h7.343l6.405,23.627  c0.034,0.125,0.08,0.245,0.12,0.367c-1.31,1.18-2.247,2.781-2.575,4.624l-2.864,16.09H31.91L44.029,329.796z M16.309,405.381  v-14.567h4.944h149.083l-3.949,14.567H16.309z M354.674,474.459H157.327v-14.567h4.941h187.464c0.005,0,0.012,0,0.023,0h4.92  V474.459z M172.927,443.583l12.119-44.708h7.368h127.171c0.007,0,0.015,0,0.022,0h7.344l12.121,44.708H172.927z M495.691,405.379  H345.612l-3.949-14.567h149.088h4.941v14.567H495.691z"/>
<g>
</g>
<g>
</g>
<g>
</g>
<g>
</g>
<g>
</g>
<g>
</g>
<g>
</g>
<g>
</g>
<g>
</g>
<g>
</g>
<g>
</g>
<g>
</g>
<g>
</g>
<g>
</g>
<g>
</g>
</svg>
