<?xml version="1.0" encoding="iso-8859-1"?>
<!-- Generator: Adobe Illustrator 19.0.0, SVG Export Plug-In . SVG Version: 6.00 Build 0)  -->
<svg xmlns="http://www.w3.org/2000/svg" xmlns:xlink="http://www.w3.org/1999/xlink" version="1.1" id="Layer_1" x="0px" y="0px" viewBox="0 0 512.002 512.002" style="enable-background:new 0 0 512.002 512.002;" xml:space="preserve">
<path style="fill:#C8D0E2;" d="M170.693,321.162H91.588l-39.556,68.51l39.556,68.508h79.105l39.555-68.508L170.693,321.162z   M174.931,392.958c-0.057,0.758-0.132,1.511-0.241,2.36l-0.033,0.264c-1.136,8.396-4.674,16.245-10.228,22.696l-0.264,0.304  c-0.515,0.59-1.048,1.167-1.598,1.732l-0.267,0.28c-0.586,0.59-1.188,1.161-1.805,1.717c-0.156,0.14-0.316,0.277-0.475,0.413  l-0.231,0.199c-0.398,0.343-0.802,0.682-1.212,1.009c-0.29,0.234-0.581,0.466-0.881,0.693c-0.427,0.326-0.865,0.64-1.304,0.951  c-0.36,0.253-0.72,0.504-1.089,0.747c-0.547,0.363-1.102,0.714-1.676,1.058l-0.325,0.207c-0.178,0.106-0.38,0.22-0.579,0.333  l-0.733,0.4c-0.631,0.344-1.227,0.657-1.782,0.926c-0.575,0.276-1.18,0.542-1.821,0.814l-2.206,0.878  c-0.694,0.256-1.309,0.467-1.995,0.683c-0.581,0.18-1.194,0.351-1.873,0.527l-0.895,0.224c-0.244,0.059-0.481,0.112-0.69,0.158  l-0.133,0.025c-1.843,0.407-3.739,0.695-5.705,0.868l-0.926,0.067c-0.316,0.02-0.633,0.04-0.96,0.054  c-0.058,0.003-0.111,0.004-0.168,0.006c2.212-2.819,1.179-5.594-8.452-7.003c-24.006-3.512-29.745-28.267-29.745-28.267  l-7.118-3.648c-0.064-0.568-0.128-1.136-0.171-1.713l-0.044-0.58c-0.056-0.93-0.082-1.767-0.085-2.554l-0.004-0.118  c0-24.22,19.705-43.924,43.926-43.924h0.002c22.622,0,41.408,16.955,43.698,39.44c0.152,1.474,0.228,2.982,0.228,4.485  c0,0.809-0.028,1.661-0.09,2.675L174.931,392.958z"/>
<path style="fill:#A6B7D0;" d="M206.577,157.275l-1.391,2.433c-10.804,18.902-27.644,34.27-47.418,43.271l-2.811,1.279  l150.54,150.539l1.392-2.428c10.845-18.906,27.707-34.251,47.479-43.207l2.817-1.277L206.577,157.275z M321.553,297.084  c-0.006,1.573-0.625,3.049-1.742,4.157c-1.11,1.1-2.582,1.707-4.146,1.707c-1.582,0-3.066-0.619-4.18-1.742L211.463,200.361  c-1.108-1.117-1.715-2.598-1.708-4.171c0.006-1.573,0.625-3.049,1.742-4.157c1.11-1.1,2.582-1.707,4.145-1.707  c1.583,0,3.067,0.619,4.181,1.742l100.023,100.845C320.952,294.03,321.559,295.511,321.553,297.084z M295.943,321.556  c-1.585,0-3.073-0.621-4.188-1.749l-99.302-100.454c-1.105-1.119-1.71-2.6-1.7-4.172c0.01-1.574,0.631-3.049,1.748-4.153  c1.11-1.097,2.581-1.701,4.141-1.701c1.586,0,3.072,0.621,4.187,1.749l99.302,100.454c1.105,1.119,1.71,2.6,1.7,4.172  c-0.01,1.574-0.63,3.049-1.748,4.153C298.973,320.951,297.504,321.556,295.943,321.556z"/>
<path style="fill:#C8D0E2;" d="M141.911,195.376c0.597-0.191,1.247-0.287,2.033-0.287h0.009l0.279,0.003l0.263-0.09  c23.451-8.045,45.071-20.213,55.583-42.718l4.406-5.619l0.022-0.294c0.056-0.756-0.845-1.462-0.565-2.1  c15.408-35.224,11.017-75.54-16.155-102.711C170.3,24.071,138.483,14.44,113.744,14.44c-6.936,0-13.852,0.771-20.559,2.29  l-2.839,0.643l48.613,48.612c1.445,1.446,2.121,3.514,1.804,5.534l-9.31,59.563c-0.427,2.736-2.549,4.882-5.281,5.342L65.76,146.583  c-2.044,0.347-4.142-0.328-5.608-1.793l-39.217-39.22l0.115,4.037c0.678,23.855,10.299,46.241,27.092,63.033  c17.491,17.491,40.754,27.125,65.502,27.125C123.266,199.763,132.777,198.287,141.911,195.376z"/>
<path style="fill:#ACB7C9;" d="M490.951,402.392c-0.678-23.852-10.299-46.237-27.091-63.03  c-17.495-17.493-40.758-27.126-65.507-27.126c-9.622,0-19.134,1.477-28.269,4.389c-0.497,0.158-1.038,0.255-1.608,0.286  l-0.217,0.013l-0.206,0.067c-23.691,7.932-43.371,25.514-53.994,48.237l-0.118,0.253l-0.025,0.278  c-0.067,0.696-7.601,2.365-7.869,2.975c-15.408,35.223-5.832,80.41,21.341,107.584c17.489,17.487,46.137,21.242,70.876,21.242  c6.938,0,13.853-0.77,20.552-2.288l2.839-0.642l-48.612-48.612c-1.445-1.445-2.12-3.514-1.803-5.534l9.31-59.564  c0.427-2.736,2.55-4.882,5.282-5.342l60.413-10.158c2.052-0.339,4.146,0.329,5.608,1.792l39.215,39.218L490.951,402.392z"/>
<path style="fill:#89A2C0;" d="M167.803,204.26l2.811-1.279c17.79-8.098,33.188-21.358,43.968-37.699l-8.006-8.006l-1.391,2.433  c-10.804,18.902-27.644,34.27-47.418,43.271l-2.811,1.279l150.54,150.539l1.392-2.428c1.089-1.897,2.253-3.747,3.46-5.569  L167.803,204.26z"/>
<g>
	<path style="fill:#ACB7C9;" d="M140.762,71.518l-9.31,59.563c-0.427,2.736-2.549,4.882-5.281,5.342l-52.627,8.851   c1.416,1.125,3.26,1.615,5.062,1.309l60.412-10.159c2.732-0.46,4.852-2.607,5.281-5.342l9.31-59.563   c0.318-2.02-0.359-4.088-1.804-5.534L103.19,17.372l2.839-0.643c4.599-1.042,9.297-1.721,14.03-2.052   c-2.094-0.141-4.197-0.238-6.316-0.238c-6.936,0-13.852,0.771-20.559,2.29l-2.839,0.643l48.613,48.612   C140.403,67.429,141.08,69.498,140.762,71.518z"/>
	<path style="fill:#ACB7C9;" d="M60.988,172.64c-14.49-14.488-23.624-33.145-26.296-53.314L20.936,105.57l0.115,4.037   c0.678,23.855,10.299,46.241,27.092,63.033c17.491,17.491,40.754,27.125,65.502,27.125c2.179,0,4.353-0.087,6.518-0.238   C97.799,198.027,76.979,188.631,60.988,172.64z"/>
</g>
<path style="fill:#C8D0E2;" d="M503.797,402.392c-0.678-23.852-10.299-46.237-27.091-63.03  c-17.495-17.493-40.758-27.126-65.507-27.126c-9.622,0-19.134,1.477-28.269,4.389c-0.497,0.158-1.038,0.255-1.608,0.286  l-0.217,0.013l-0.206,0.067c-23.691,7.932-43.371,25.514-53.994,48.237l-0.118,0.253l-0.025,0.278  c-0.067,0.696-0.236,1.361-0.503,1.971c-15.408,35.223-7.806,75.54,19.367,102.713c17.49,17.487,40.745,27.117,65.485,27.117  c6.938,0,13.853-0.77,20.552-2.288l2.839-0.642l-48.612-48.612c-1.445-1.445-2.12-3.514-1.803-5.534l9.31-59.564  c0.427-2.736,2.55-4.882,5.282-5.342l60.413-10.158c2.052-0.339,4.146,0.329,5.608,1.792l39.216,39.218L503.797,402.392z"/>
<polygon style="fill:#ACB7C9;" points="104.433,321.162 91.588,321.162 52.031,389.672 91.588,458.179 104.433,458.179   64.876,389.672 "/>
<g>
	<path style="fill:#202121;" d="M174.401,472.631H87.88c-2.869,0-5.518-1.531-6.953-4.014l-43.264-74.931   c-1.434-2.483-1.434-5.545,0-8.029l43.264-74.933c1.434-2.483,4.084-4.014,6.953-4.014h86.522c2.869,0,5.518,1.531,6.953,4.014   l43.263,74.933c1.434,2.483,1.434,5.545,0,8.029l-43.263,74.931C179.919,471.1,177.27,472.631,174.401,472.631z M92.515,456.574   h77.251l38.628-66.902l-38.628-66.904H92.515l-38.629,66.904L92.515,456.574z"/>
	<path style="fill:#202121;" d="M474.078,329.143c-27.289-27.286-66.602-37.668-103.637-27.681l-21.287-21.288   c-0.03-0.031-0.062-0.063-0.093-0.094L214.294,145.31c4.311-11.537,6.673-24.018,6.673-37.041c0-0.558-0.057-1.103-0.166-1.628   c-0.058-14.806-3.166-29.595-9.324-43.356c-1.81-4.049-6.561-5.86-10.607-4.049c-4.046,1.811-5.861,6.56-4.049,10.607   c10.466,23.391,10.574,50.284,0.295,73.782c-0.371,0.848-0.569,1.736-0.636,2.626c-10.301,22.054-29.272,39.26-52.509,47.231   c-0.852-0.012-1.712,0.095-2.549,0.362c-32.651,10.407-67.96,1.848-92.148-22.341c-16.555-16.554-25.966-38.864-26.623-61.944   l36.362,36.364c1.838,1.838,4.444,2.673,7.009,2.242l60.413-10.159c3.408-0.574,6.066-3.264,6.601-6.678l9.31-59.563   c0.396-2.533-0.442-5.104-2.254-6.917L93.541,18.297c30.203-6.834,62.282,2.13,84.545,24.397c2.386,2.386,4.658,4.92,6.753,7.533   c2.773,3.461,7.827,4.02,11.285,1.245c3.46-2.773,4.019-7.826,1.245-11.285c-2.461-3.071-5.128-6.047-7.927-8.847   C159.658,1.553,114.95-7.997,75.538,7c-2.544,0.969-4.425,3.161-4.995,5.823c-0.569,2.661,0.248,5.432,2.173,7.357l53.137,53.136   l-7.786,49.813l-50.623,8.513l-45.94-45.941c-2.135-2.136-5.284-2.892-8.153-1.961c-2.871,0.93-4.976,3.391-5.453,6.37   c-5.411,33.864,5.813,68.536,30.024,92.748c20.402,20.401,47.523,31.349,75.396,31.401c0.489,0.093,0.993,0.147,1.509,0.147   c9.359,0,18.437-1.224,27.088-3.508l20.976,20.976c0.021,0.021,0.042,0.043,0.064,0.064l134.807,134.809   c-1.394,3.716-2.597,7.521-3.569,11.414c-0.2,0.8-0.271,1.6-0.229,2.382c-5.797,24.643-2.704,50.606,9.141,73.54   c1.427,2.762,4.233,4.347,7.14,4.347c1.241,0,2.5-0.289,3.678-0.897c3.94-2.035,5.484-6.879,3.45-10.817   c-12.463-24.129-13.395-53.415-2.491-78.341c0.349-0.798,0.551-1.629,0.629-2.465c10.362-22.161,29.533-39.52,53.051-47.395   c0.673-0.036,1.348-0.148,2.007-0.358c32.652-10.41,67.964-1.849,92.154,22.341c16.554,16.555,25.965,38.862,26.621,61.94   l-36.361-36.362c-1.837-1.836-4.449-2.665-7.008-2.24l-60.415,10.158c-3.409,0.573-6.067,3.264-6.602,6.678l-9.31,59.565   c-0.396,2.533,0.442,5.104,2.254,6.917l46.55,46.55c-30.198,6.832-62.279-2.134-84.544-24.397   c-0.869-0.869-1.741-1.775-2.589-2.697c-3.007-3.256-8.085-3.459-11.346-0.455c-3.259,3.008-3.461,8.087-0.455,11.346   c0.994,1.077,2.016,2.14,3.036,3.16c20.432,20.429,47.88,31.338,75.828,31.338c12.794,0,25.7-2.29,38.073-6.998   c2.546-0.968,4.426-3.16,4.996-5.822c0.569-2.662-0.248-5.433-2.173-7.358l-53.137-53.137l7.788-49.816l50.626-8.512l45.94,45.941   c2.134,2.132,5.283,2.888,8.153,1.96c2.871-0.93,4.977-3.391,5.453-6.37C509.513,388.026,498.289,353.356,474.078,329.143z    M305.031,351.306L174.29,220.563c-0.001,0-0.001-0.001-0.002-0.001c-0.006-0.006-0.012-0.012-0.018-0.018l-15.616-15.615   c20.386-9.28,37.34-24.823,48.392-44.158l130.611,130.612c0.025,0.025,0.049,0.05,0.074,0.075l15.753,15.755   C333.056,316.467,316.093,332.02,305.031,351.306z"/>
	<path style="fill:#202121;" d="M202.351,209.571c-3.117-3.154-8.201-3.181-11.353-0.066c-3.154,3.117-3.184,8.201-0.066,11.353   l99.302,100.454c1.57,1.589,3.64,2.385,5.71,2.385c2.039,0,4.08-0.773,5.644-2.319c3.154-3.117,3.184-8.201,0.066-11.353   L202.351,209.571z"/>
	<path style="fill:#202121;" d="M221.342,190.561c-3.124-3.148-8.207-3.169-11.353-0.047c-3.148,3.123-3.17,8.206-0.047,11.353   l100.022,100.845c1.57,1.583,3.635,2.375,5.7,2.375c2.044,0,4.088-0.776,5.653-2.328c3.148-3.123,3.17-8.206,0.047-11.353   L221.342,190.561z"/>
	<path style="fill:#202121;" d="M131.141,435.201c-0.959,0-1.947-0.036-3.112-0.116c-0.264-0.018-0.513-0.036-0.763-0.058   c-2.033-0.172-4.061-0.482-6.033-0.92c-0.244-0.053-0.489-0.11-0.734-0.168c-1.109-0.268-2.021-0.516-2.878-0.78   c-0.032-0.011-0.064-0.021-0.096-0.03c-0.829-0.259-1.695-0.564-2.718-0.958l-0.699-0.276c-4.114-1.654-6.107-6.33-4.452-10.445   c1.654-4.114,6.331-6.106,10.445-4.452l0.481,0.191c0.696,0.267,1.267,0.469,1.776,0.626c0.028,0.01,0.056,0.018,0.084,0.026   c0.505,0.155,1.083,0.31,1.809,0.485l0.464,0.107c1.277,0.284,2.589,0.484,3.905,0.595l0.508,0.039   c1.569,0.108,2.452,0.107,4.042,0l0.5-0.039c1.311-0.111,2.623-0.311,3.896-0.594l0.476-0.109c0.718-0.172,1.295-0.328,1.801-0.483   c0.028-0.009,0.056-0.017,0.083-0.026c0.51-0.157,1.08-0.36,1.798-0.635l0.459-0.182c0.66-0.268,1.203-0.503,1.693-0.738   c0.018-0.009,0.034-0.017,0.048-0.024c0.497-0.24,1.028-0.52,1.671-0.883l0.388-0.223c9.036-5.292,14.633-15.043,14.633-25.46   c0-16.252-13.222-29.473-29.474-29.473c-16.254,0-29.476,13.222-29.476,29.473c0,4.893,1.224,9.736,3.537,14.004   c2.113,3.899,0.666,8.771-3.233,10.885c-3.899,2.114-8.771,0.666-10.885-3.233c-3.583-6.611-5.477-14.099-5.477-21.656   c0-25.106,20.426-45.53,45.531-45.53c25.107,0,45.533,20.424,45.533,45.53c0,16.094-8.641,31.153-22.552,39.301   c-0.186,0.11-0.398,0.231-0.61,0.351c-0.945,0.534-1.778,0.973-2.569,1.356c-0.028,0.014-0.059,0.028-0.08,0.039   c-0.801,0.384-1.676,0.768-2.674,1.171l-0.69,0.273c-1.045,0.401-1.911,0.707-2.74,0.966c-0.032,0.01-0.064,0.02-0.096,0.03   c-0.859,0.265-1.769,0.513-2.87,0.778c-0.254,0.061-0.5,0.117-0.747,0.171c-1.968,0.437-3.995,0.746-6.024,0.918   c-0.256,0.021-0.504,0.04-0.755,0.058C133.086,435.164,132.097,435.201,131.141,435.201z"/>
</g>
<path style="fill:#C8D0E2;" d="M420.48,53.543h-79.105l-39.556,68.51l39.556,68.508h79.105l39.555-68.508L420.48,53.543z   M424.718,125.339c-0.057,0.758-0.132,1.512-0.241,2.36l-0.033,0.264c-1.136,8.396-4.674,16.245-10.228,22.696l-0.264,0.304  c-0.515,0.59-1.048,1.167-1.598,1.732l-0.265,0.28c-0.587,0.59-1.189,1.161-1.805,1.717c-0.156,0.14-0.316,0.277-0.475,0.413  l-0.231,0.199c-0.398,0.343-0.802,0.682-1.212,1.009c-0.29,0.234-0.581,0.466-0.881,0.693c-0.427,0.326-0.865,0.64-1.304,0.951  c-0.36,0.253-0.72,0.504-1.089,0.747c-0.547,0.363-1.102,0.714-1.676,1.058l-0.325,0.207c-0.178,0.106-0.38,0.221-0.579,0.334  l-0.733,0.4c-0.63,0.344-1.227,0.657-1.782,0.926c-0.575,0.276-1.181,0.542-1.821,0.814l-2.206,0.878  c-0.693,0.256-1.309,0.467-1.995,0.683c-0.581,0.18-1.194,0.351-1.873,0.527l-0.895,0.224c-0.244,0.059-0.481,0.112-0.691,0.158  l-0.133,0.025c-1.843,0.407-3.739,0.695-5.705,0.868l-0.926,0.067c-0.316,0.02-0.633,0.04-0.961,0.054  c-0.058,0.003-0.11,0.004-0.168,0.006c2.212-2.819,1.179-5.593-8.452-7.003c-24.006-3.512-29.745-28.267-29.745-28.267l-7.118-3.648  c-0.064-0.568-0.128-1.137-0.171-1.714l-0.044-0.58c-0.056-0.93-0.082-1.767-0.085-2.554l-0.004-0.118  c0-24.22,19.705-43.924,43.926-43.924h0.002c22.622,0,41.408,16.955,43.698,39.44c0.152,1.474,0.228,2.982,0.228,4.484  c0,0.809-0.028,1.661-0.09,2.675L424.718,125.339z"/>
<polygon style="fill:#ACB7C9;" points="354.219,53.543 341.374,53.543 301.818,122.053 341.374,190.561 354.219,190.561   314.663,122.053 "/>
<g>
	<path style="fill:#202121;" d="M424.188,205.012h-86.522c-2.869,0-5.518-1.531-6.953-4.014l-43.264-74.931   c-1.434-2.483-1.434-5.545,0-8.029l43.264-74.933c1.434-2.483,4.084-4.014,6.953-4.014h86.522c2.869,0,5.518,1.531,6.953,4.014   l43.263,74.933c1.434,2.483,1.434,5.545,0,8.029l-43.263,74.931C429.706,203.481,427.056,205.012,424.188,205.012z    M342.302,188.955h77.251l38.628-66.902l-38.628-66.904h-77.251l-38.629,66.904L342.302,188.955z"/>
	<path style="fill:#202121;" d="M380.928,167.582c-0.959,0-1.947-0.036-3.112-0.116c-0.264-0.018-0.513-0.036-0.763-0.058   c-2.033-0.172-4.061-0.482-6.033-0.92c-0.244-0.054-0.489-0.109-0.734-0.168c-1.109-0.268-2.021-0.515-2.878-0.781   c-0.032-0.011-0.064-0.021-0.096-0.03c-0.829-0.259-1.695-0.564-2.718-0.958l-0.699-0.276c-4.114-1.654-6.107-6.33-4.452-10.445   c1.654-4.114,6.333-6.106,10.445-4.452l0.481,0.191c0.696,0.267,1.267,0.469,1.776,0.626c0.028,0.01,0.056,0.018,0.083,0.027   c0.505,0.155,1.083,0.31,1.809,0.485l0.464,0.107c1.277,0.284,2.589,0.484,3.905,0.595l0.508,0.039c1.57,0.107,2.457,0.107,4.041,0   l0.501-0.039c1.311-0.111,2.623-0.312,3.897-0.594l0.476-0.11c0.718-0.172,1.295-0.328,1.801-0.483   c0.028-0.009,0.056-0.017,0.084-0.027c0.51-0.157,1.08-0.36,1.798-0.635l0.459-0.182c0.66-0.268,1.203-0.503,1.693-0.736   c0.018-0.009,0.034-0.017,0.048-0.025c0.497-0.24,1.028-0.52,1.671-0.883l0.387-0.223c9.035-5.292,14.633-15.043,14.633-25.46   c0-16.252-13.222-29.473-29.474-29.473c-16.254,0-29.476,13.222-29.476,29.473c0,4.893,1.224,9.736,3.537,14.004   c2.113,3.899,0.666,8.771-3.233,10.885c-3.9,2.114-8.771,0.666-10.884-3.233c-3.583-6.611-5.477-14.099-5.477-21.656   c0-25.106,20.426-45.53,45.531-45.53c25.107,0,45.533,20.425,45.533,45.53c0,16.094-8.641,31.154-22.552,39.301   c-0.186,0.11-0.398,0.231-0.61,0.351c-0.945,0.534-1.778,0.973-2.569,1.357c-0.028,0.014-0.059,0.028-0.08,0.039   c-0.801,0.384-1.675,0.768-2.674,1.171l-0.69,0.273c-1.044,0.401-1.911,0.707-2.74,0.966c-0.032,0.01-0.064,0.02-0.096,0.03   c-0.859,0.265-1.77,0.514-2.87,0.779c-0.257,0.061-0.505,0.118-0.756,0.173c-1.959,0.435-3.987,0.744-6.015,0.916   c-0.256,0.021-0.504,0.04-0.755,0.058C382.875,167.546,381.887,167.582,380.928,167.582z"/>
</g>
<g>
</g>
<g>
</g>
<g>
</g>
<g>
</g>
<g>
</g>
<g>
</g>
<g>
</g>
<g>
</g>
<g>
</g>
<g>
</g>
<g>
</g>
<g>
</g>
<g>
</g>
<g>
</g>
<g>
</g>
</svg>
