<?xml version="1.0" encoding="iso-8859-1"?>
<!-- Generator: Adobe Illustrator 19.0.0, SVG Export Plug-In . SVG Version: 6.00 Build 0)  -->
<svg xmlns="http://www.w3.org/2000/svg" xmlns:xlink="http://www.w3.org/1999/xlink" version="1.1" id="Layer_1" x="0px" y="0px" viewBox="0 0 512 512" style="enable-background:new 0 0 512 512;" xml:space="preserve">
<path style="fill:#ACB7C9;" d="M326.396,199.861c-3.774,0-7.044-2.611-7.883-6.29c-1.89-8.294-5.151-16.163-9.697-23.387  c-2.009-3.194-1.544-7.353,1.125-10.022l9.059-9.058l-14.974-14.976l-9.061,9.06c-2.668,2.668-6.825,3.136-10.021,1.125  c-7.226-4.548-15.094-7.809-23.384-9.695c-3.68-0.836-6.292-4.11-6.292-7.883v-12.803h-21.178v12.803  c0,3.774-2.611,7.045-6.291,7.883c-8.292,1.886-16.16,5.148-23.383,9.695c-3.196,2.01-7.354,1.542-10.022-1.125l-9.061-9.06  l-14.975,14.977l9.058,9.056c2.669,2.669,3.136,6.827,1.127,10.021c-4.551,7.236-7.813,15.103-9.695,23.385  c-0.836,3.681-4.108,6.293-7.883,6.293h-12.804v21.177h12.804c3.775,0,7.046,2.612,7.883,6.293  c1.882,8.284,5.144,16.151,9.695,23.385c2.008,3.194,1.541,7.352-1.126,10.02l-9.059,9.06l14.975,14.975l9.061-9.059  c2.668-2.668,6.827-3.133,10.022-1.125c7.223,4.546,15.091,7.807,23.385,9.697c3.679,0.838,6.288,4.11,6.288,7.883v12.8h21.178  v-12.8c0-3.774,2.611-7.045,6.29-7.883c8.292-1.888,16.161-5.151,23.386-9.697c3.196-2.011,7.353-1.542,10.021,1.125l9.06,9.058  l8.748-8.748c0.024-0.023,0.046-0.045,0.069-0.069l6.158-6.157l-9.059-9.061c-2.669-2.669-3.135-6.828-1.125-10.022  c4.546-7.221,7.807-15.088,9.697-23.385c0.838-3.679,4.109-6.29,7.883-6.29h12.802v-21.177L326.396,199.861L326.396,199.861z   M298.388,213.074c-0.014,0.292-0.041,0.58-0.06,0.871c-0.037,0.576-0.075,1.151-0.13,1.726c-0.033,0.348-0.079,0.694-0.12,1.04  c-0.059,0.508-0.12,1.014-0.194,1.52c-0.055,0.377-0.117,0.75-0.18,1.125c-0.078,0.466-0.16,0.929-0.25,1.392  c-0.078,0.398-0.16,0.792-0.247,1.188c-0.095,0.429-0.194,0.859-0.299,1.286c-0.101,0.414-0.205,0.826-0.316,1.235  c-0.11,0.401-0.224,0.801-0.342,1.201c-0.123,0.42-0.249,0.84-0.384,1.256c-0.126,0.392-0.262,0.784-0.398,1.174  c-0.141,0.405-0.281,0.81-0.431,1.21c-0.041,0.111-0.075,0.224-0.119,0.335c-0.186,0.487-0.385,0.966-0.584,1.447  c-0.046,0.112-0.088,0.225-0.136,0.337c-4.064,9.608-10.753,17.749-19.446,23.621c-0.01,0.006-0.018,0.013-0.027,0.019  c-0.637,0.429-1.286,0.842-1.945,1.245l-0.568,0.341c-0.506,0.302-1.012,0.594-1.525,0.877l-0.092,0.051  c-0.172,0.097-0.345,0.193-0.517,0.286c-1.368,0.734-2.795,1.421-4.228,2.036l-0.626,0.261c-0.553,0.227-1.099,0.443-1.65,0.651  l-0.623,0.232c-1.521,0.549-3.053,1.025-4.58,1.426l-0.204,0.051c-0.061,0.016-0.122,0.03-0.182,0.045l-0.328,0.082  c-0.544,0.136-1.132,0.272-1.72,0.397l-0.125,0.026c-0.03,0.006-0.063,0.013-0.093,0.019c-0.123,0.026-0.247,0.053-0.37,0.078  c-0.044,0.009-0.088,0.019-0.132,0.027c-0.716,0.143-1.467,0.281-2.227,0.399c-0.046,0.009-0.092,0.016-0.138,0.023  c-0.794,0.121-1.597,0.22-2.404,0.306l-0.056,0.005c-0.195,0.022-0.39,0.038-0.586,0.056l-0.108,0.011  c-0.589,0.055-1.19,0.1-1.795,0.137l-0.095,0.005c-0.207,0.012-0.414,0.025-0.621,0.034l-0.027,0.001  c-0.818,0.037-1.644,0.063-2.473,0.063h-0.009c-0.82,0-1.637-0.025-2.45-0.061c-0.012-0.001-0.022-0.001-0.032-0.001l-0.751-0.042  c-0.008,0-0.016-0.001-0.025-0.002c-0.579-0.034-1.158-0.079-1.734-0.132c-0.012-0.001-0.023-0.002-0.036-0.003l-0.307-0.029  c-0.928-0.092-1.854-0.201-2.772-0.338c-0.022-0.003-0.042-0.005-0.064-0.009c-0.046-0.006-0.092-0.014-0.138-0.023  c-0.106-0.016-0.208-0.039-0.313-0.056c-0.638-0.103-1.274-0.217-1.906-0.342c-0.015-0.003-0.03-0.005-0.045-0.009  c-0.121-0.023-0.271-0.056-0.416-0.087c-2.457-0.51-4.872-1.19-7.228-2.039c-0.01-0.003-0.018-0.005-0.026-0.009l-0.216-0.08  c-2.366-0.866-4.674-1.896-6.906-3.094c-0.015-0.008-0.029-0.015-0.044-0.022c-0.16-0.085-0.333-0.181-0.506-0.278l-0.099-0.055  c-0.495-0.275-0.985-0.557-1.472-0.847l5.395-6.223c-25.841-15.738-23.276-45.425-23.276-45.425l-8.371,6.92  c-0.014-0.496-0.036-0.991-0.036-1.49c0-0.825,0.025-1.648,0.064-2.473c0.011-0.252,0.027-0.506,0.042-0.758  c0.036-0.603,0.082-1.203,0.138-1.804c0.023-0.238,0.043-0.475,0.068-0.711c0.086-0.815,0.184-1.627,0.307-2.432  c0.196-1.281,0.455-2.545,0.743-3.802c1.535-6.717,4.325-12.961,8.12-18.465c0.001-0.002,0.003-0.004,0.004-0.006  c0.485-0.703,0.985-1.395,1.504-2.073c0.112-0.149,0.23-0.292,0.344-0.439c0.407-0.522,0.818-1.041,1.243-1.548  c0.225-0.268,0.459-0.529,0.689-0.792c0.324-0.373,0.649-0.745,0.983-1.107c0.327-0.356,0.663-0.702,1-1.05  c0.25-0.257,0.499-0.516,0.753-0.769c0.414-0.41,0.836-0.808,1.263-1.204c0.194-0.179,0.385-0.36,0.581-0.536  c0.478-0.43,0.966-0.85,1.459-1.264c0.162-0.136,0.324-0.272,0.487-0.405c0.516-0.423,1.041-0.833,1.573-1.237  c0.163-0.124,0.328-0.247,0.492-0.369c0.265-0.197,0.522-0.402,0.79-0.594c0.349-0.248,0.706-0.484,1.06-0.724  c0.013-0.009,0.025-0.017,0.038-0.025c5.087-3.434,10.646-5.94,16.49-7.457c0.083-0.022,0.166-0.043,0.25-0.065  c0.773-0.197,1.55-0.378,2.331-0.54c0.066-0.014,0.129-0.028,0.195-0.041c1.657-0.337,3.333-0.595,5.024-0.775  c0.211-0.022,0.424-0.041,0.637-0.061c0.632-0.059,1.265-0.108,1.9-0.146c0.233-0.013,0.462-0.028,0.696-0.04  c0.831-0.038,1.667-0.064,2.505-0.064h0.001h0c0,0,0.004,0,0.006,0c0.834,0,1.665,0.025,2.495,0.064  c0.238,0.012,0.475,0.027,0.714,0.041c0.625,0.037,1.248,0.085,1.87,0.143c0.222,0.022,0.444,0.04,0.666,0.065  c1.683,0.179,3.347,0.434,4.995,0.77c0.083,0.017,0.166,0.036,0.249,0.054c0.76,0.157,1.516,0.334,2.268,0.524  c0.1,0.025,0.201,0.051,0.299,0.077c2.502,0.651,4.952,1.482,7.336,2.492c0.012,0.004,0.023,0.01,0.032,0.014  c0.787,0.333,1.566,0.688,2.338,1.058c0.014,0.006,0.026,0.013,0.039,0.019c2.311,1.116,4.55,2.403,6.706,3.857  c0.025,0.018,0.051,0.034,0.077,0.053c0.346,0.235,0.693,0.465,1.036,0.707c0.264,0.188,0.515,0.389,0.775,0.581  c0.176,0.13,0.35,0.262,0.525,0.395c0.522,0.396,1.036,0.798,1.541,1.212c0.175,0.143,0.347,0.289,0.52,0.433  c0.484,0.405,0.96,0.816,1.427,1.236c0.208,0.186,0.411,0.377,0.614,0.566c0.416,0.386,0.83,0.775,1.232,1.175  c0.267,0.263,0.526,0.532,0.787,0.801c0.326,0.337,0.652,0.673,0.969,1.016c0.344,0.374,0.679,0.757,1.012,1.141  c0.22,0.252,0.444,0.503,0.66,0.761c0.433,0.517,0.855,1.048,1.27,1.582c0.107,0.136,0.216,0.268,0.32,0.405  c4.55,5.969,7.874,12.915,9.612,20.463c0.296,1.286,0.563,2.58,0.763,3.889c0.123,0.806,0.223,1.62,0.308,2.435  c0.025,0.235,0.045,0.471,0.066,0.706c0.057,0.603,0.103,1.205,0.139,1.81c0.015,0.251,0.031,0.502,0.042,0.753  c0.038,0.826,0.064,1.65,0.064,2.475C298.455,211.328,298.43,212.202,298.388,213.074z"/>
<path style="fill:#6598CB;" d="M268.743,124.519l1.911,0.58c5.523,1.678,10.908,3.912,16.006,6.637l1.762,0.943l11.794-11.794  c1.018-1.018,2.371-1.578,3.81-1.578c1.44,0,2.794,0.562,3.811,1.579l26.406,26.408c2.101,2.101,2.101,5.52,0,7.622l-11.793,11.792  l0.943,1.762c2.724,5.096,4.958,10.481,6.637,16.006l0.58,1.911h16.671c2.972,0,5.389,2.418,5.389,5.389v37.346  c0,2.972-2.418,5.389-5.389,5.389h-16.67l-0.58,1.911c-1.679,5.525-3.913,10.91-6.637,16.006l-0.943,1.762l11.792,11.794  c1.668,1.668,2.052,4.283,0.938,6.357l-2.133,3.97h35.58c1.42,0,2.809,0.576,3.814,1.581l54.464,54.543v-50.733  c0-2.972,2.418-5.389,5.389-5.389h66.23V106.771H268.743V124.519z M368.436,206.237h92.699c2.972,0,5.389,2.418,5.389,5.389  s-2.418,5.389-5.389,5.389h-92.699c-2.972,0-5.389-2.418-5.389-5.389C363.047,208.655,365.464,206.237,368.436,206.237z   M461.135,153.061h-92.699c-2.972,0-5.389-2.418-5.389-5.389s2.418-5.389,5.389-5.389h92.699c2.972,0,5.389,2.418,5.389,5.389  S464.106,153.061,461.135,153.061z M368.436,174.26h92.699c2.972,0,5.389,2.418,5.389,5.389s-2.418,5.389-5.389,5.389h-92.699  c-2.972,0-5.389-2.418-5.389-5.389S365.464,174.26,368.436,174.26z M369.514,238.215h92.699c2.972,0,5.389,2.418,5.389,5.389  c0,2.972-2.418,5.389-5.389,5.389h-92.699c-2.972,0-5.389-2.418-5.389-5.389C364.125,240.632,366.542,238.215,369.514,238.215z"/>
<path style="fill:#75BF4D;" d="M271.438,298.38v14.67c0,4.466-3.618,8.084-8.084,8.084h-37.347c-4.466,0-8.084-3.618-8.084-8.084  v-14.67c-5.709-1.734-11.222-4.021-16.492-6.839l-10.381,10.379c-3.156,3.156-8.276,3.156-11.431,0l-26.407-26.406  c-3.158-3.157-3.158-8.276-0.001-11.432l10.38-10.381c-2.82-5.273-5.106-10.788-6.839-16.493h-14.672  c-4.466,0-8.084-3.618-8.084-8.084v-37.346c0-4.466,3.618-8.084,8.084-8.084h14.672c0.937-3.083,2.049-6.106,3.306-9.07H16.168  v157.685h63.534c4.466,0,8.084,3.618,8.084,8.084v44.223l49.862-49.936c1.517-1.518,3.575-2.371,5.721-2.371h138.703v-37.928  C278.613,295.925,275.069,297.277,271.438,298.38z"/>
<path style="fill:#202121;" d="M244.689,264.223c-0.844,0-1.67-0.025-2.49-0.063l-0.751-0.042c-0.593-0.036-1.195-0.081-1.796-0.137  l-0.733-0.069c-0.812-0.087-1.615-0.186-2.409-0.307c-0.046-0.006-0.094-0.015-0.14-0.023c-0.759-0.117-1.511-0.255-2.26-0.406  c-0.164-0.031-0.362-0.073-0.559-0.116l-0.137-0.029c-0.577-0.122-1.164-0.258-1.745-0.402l-0.633-0.157  c-1.572-0.414-3.103-0.889-4.598-1.428l-0.623-0.232c-0.573-0.215-1.124-0.432-1.67-0.658l-0.608-0.252  c-1.455-0.624-2.883-1.312-4.265-2.053c-0.16-0.085-0.333-0.182-0.507-0.278l-0.106-0.059c-0.5-0.277-1.011-0.57-1.513-0.872  l-0.577-0.345c-0.648-0.397-1.299-0.812-1.937-1.242c-0.009-0.006-0.018-0.012-0.026-0.018c-2.144-1.45-4.197-3.066-6.103-4.801  c-3.302-3.006-3.54-8.119-0.534-11.42c3.006-3.302,8.12-3.541,11.42-0.534c1.333,1.215,2.771,2.345,4.274,3.361  c0.001,0.001,0.003,0.002,0.004,0.002l0,0c0.446,0.302,0.903,0.592,1.365,0.875l0.405,0.241c0.366,0.22,0.715,0.419,1.067,0.613  l0.399,0.222c0.983,0.527,1.981,1.009,2.981,1.437l0.417,0.172c0.396,0.163,0.783,0.316,1.172,0.462l0.472,0.177  c1.02,0.366,2.09,0.7,3.157,0.98l0.444,0.11c0.434,0.109,0.834,0.2,1.237,0.286l0.467,0.1c0.58,0.115,1.127,0.217,1.68,0.301  c0.04,0.006,0.079,0.013,0.117,0.019c0.526,0.078,1.056,0.141,1.591,0.199l0.497,0.046c0.432,0.04,0.857,0.072,1.282,0.098  l0.511,0.029c1.175,0.053,2.363,0.053,3.505,0l0.503-0.029c0.435-0.025,0.859-0.058,1.281-0.097l0.514-0.048  c0.528-0.057,1.058-0.12,1.586-0.198c0.039-0.006,0.078-0.013,0.117-0.019c0.553-0.084,1.101-0.185,1.645-0.293l0.489-0.105  c0.415-0.088,0.815-0.18,1.213-0.28l0.525-0.13c1.022-0.268,2.092-0.603,3.139-0.978l0.48-0.18c0.351-0.132,0.739-0.285,1.123-0.443  l0.469-0.195c0.963-0.413,1.961-0.894,2.929-1.413l0.399-0.221c0.37-0.204,0.721-0.405,1.067-0.612l0.409-0.245  c0.472-0.29,0.929-0.579,1.375-0.881c0.006-0.003,0.012-0.008,0.018-0.012c6.451-4.362,11.329-10.506,14.103-17.768  c1.639-4.29,2.471-8.801,2.471-13.41c0-1.922-0.147-3.852-0.433-5.738c-1.521-9.952-7.14-19.038-15.416-24.923  c-6.388-4.543-13.91-6.944-21.755-6.944c-7.845,0-15.369,2.4-21.757,6.944c-8.276,5.885-13.895,14.971-15.416,24.924  c-0.288,1.884-0.433,3.815-0.433,5.737c0,3.828,0.579,7.611,1.719,11.247c1.338,4.26-1.032,8.797-5.291,10.133  c-4.258,1.34-8.797-1.032-10.133-5.291c-1.634-5.203-2.462-10.617-2.462-16.089c0-2.737,0.208-5.489,0.619-8.178  c2.178-14.256,10.209-27.252,22.029-35.66c9.141-6.5,19.904-9.936,31.125-9.936c11.223,0,21.987,3.436,31.127,9.936  c11.82,8.408,19.849,21.404,22.028,35.659c0.411,2.69,0.619,5.442,0.619,8.179c0,6.59-1.189,13.045-3.535,19.182  c-3.968,10.384-10.94,19.169-20.166,25.402c-0.008,0.005-0.015,0.011-0.022,0.015c-0.639,0.431-1.29,0.846-1.95,1.249l-0.568,0.341  c-0.506,0.302-1.012,0.594-1.525,0.877l-0.091,0.051c-0.172,0.096-0.346,0.193-0.521,0.286c-1.366,0.734-2.793,1.421-4.226,2.036  l-0.624,0.26c-0.554,0.229-1.101,0.444-1.651,0.651l-0.623,0.232c-1.521,0.549-3.053,1.024-4.58,1.426l-0.714,0.178  c-0.544,0.136-1.132,0.272-1.72,0.397l-0.125,0.026c-0.198,0.043-0.399,0.086-0.601,0.125c-0.708,0.142-1.459,0.28-2.218,0.398  c-0.046,0.008-0.094,0.016-0.14,0.023c-0.794,0.121-1.597,0.22-2.404,0.306l-0.749,0.071c-0.589,0.055-1.19,0.1-1.795,0.137  l-0.743,0.041C246.343,264.197,245.517,264.223,244.689,264.223z"/>
<g>
	<path style="fill:#4982AA;" d="M347.283,234.512h12.935c2.972,0,5.389-2.418,5.389-5.389v-12.93   c-1.531-0.952-2.56-2.635-2.56-4.566c0-1.93,1.029-3.615,2.56-4.566v-15.283c0-2.972-2.418-5.389-5.389-5.389h-12.935   c2.972,0,5.389,2.418,5.389,5.389v37.346C352.672,232.094,350.253,234.512,347.283,234.512z"/>
	<path style="fill:#4982AA;" d="M322.451,166.708l0.943,1.762c2.724,5.096,4.958,10.481,6.637,16.006l0.58,1.911h12.935l-0.58-1.911   c-1.679-5.524-3.913-10.909-6.637-16.006l-0.943-1.762l11.793-11.792c2.101-2.102,2.101-5.521,0-7.622l-26.406-26.408   c-1.018-1.018-2.371-1.579-3.811-1.579c-1.439,0-2.793,0.561-3.81,1.578l-2.657,2.657l23.75,23.752c2.101,2.101,2.101,5.52,0,7.622   L322.451,166.708z"/>
	<path style="fill:#4982AA;" d="M283.59,125.099l-1.911-0.58v-11.281h-12.935v11.281l1.911,0.58   c5.523,1.678,10.908,3.912,16.006,6.637l1.762,0.943l4.247-4.247C289.701,127.161,286.67,126.035,283.59,125.099z"/>
	<path style="fill:#4982AA;" d="M347.179,265.987l-11.792-11.794l0.943-1.762c2.724-5.095,4.958-10.48,6.637-16.006l0.58-1.911   h-12.935l-0.58,1.911c-1.679,5.525-3.913,10.91-6.637,16.006l-0.943,1.762l11.792,11.794c1.668,1.668,2.052,4.283,0.938,6.357   l-2.133,3.97h12.935l2.133-3.97C349.231,270.268,348.847,267.654,347.179,265.987z"/>
	<path style="fill:#4982AA;" d="M385.378,277.895c-1.005-1.006-2.394-1.581-3.814-1.581h-12.935c1.42,0,2.809,0.576,3.814,1.581   l54.464,54.543v-12.954L385.378,277.895z"/>
</g>
<g>
	<path style="fill:#56A846;" d="M192.553,301.92c3.156,3.156,8.276,3.156,11.431,0l6.268-6.267   c-3.006-1.216-5.953-2.578-8.822-4.111l-9.63,9.628L192.553,301.92z"/>
	<path style="fill:#56A846;" d="M282.073,318.691V294.38c-3.461,1.546-7.004,2.897-10.636,4v14.67c0,4.466-3.618,8.084-8.084,8.084   h12.935C278.558,321.135,280.605,320.197,282.073,318.691z"/>
	<rect x="16.168" y="174.619" style="fill:#56A846;" width="12.935" height="157.685"/>
	<path style="fill:#56A846;" d="M100.722,371.661v-31.27c0-4.466-3.618-8.084-8.084-8.084H79.703c4.466,0,8.084,3.618,8.084,8.084   v44.223L100.722,371.661z"/>
</g>
<g>
	<path style="fill:#202121;" d="M503.916,99.765H464.37c-4.466,0-8.084,3.618-8.084,8.084s3.618,8.084,8.084,8.084h31.462v157.686   h-63.534c-4.466,0-8.084,3.618-8.084,8.084v44.221l-49.863-49.934c-1.516-1.518-3.573-2.371-5.72-2.371h-31.074   c1.644-3.061,1.177-6.955-1.406-9.538L325.77,253.7c2.818-5.269,5.104-10.783,6.839-16.493h14.672c4.466,0,8.084-3.618,8.084-8.084   v-37.346c0-4.466-3.618-8.084-8.084-8.084h-14.672c-1.734-5.709-4.021-11.223-6.839-16.493l10.38-10.379   c3.157-3.158,3.157-8.276,0-11.432l-26.406-26.408c-1.516-1.517-3.572-2.368-5.717-2.368c-2.145,0-4.199,0.852-5.716,2.367   l-10.381,10.381c-5.271-2.819-10.785-5.105-16.493-6.839v-6.588h163.83c4.466,0,8.084-3.618,8.084-8.084s-3.618-8.084-8.084-8.084   H263.353h-0.004h-37.344c-4.466,0-8.084,3.618-8.084,8.084v14.672c-5.707,1.733-11.221,4.019-16.492,6.839l-10.381-10.381   c-1.516-1.516-3.571-2.367-5.716-2.367c-2.145,0-4.201,0.852-5.717,2.368l-26.407,26.409c-3.157,3.157-3.157,8.276,0.001,11.432   l1.632,1.632H8.084c-4.466,0-8.084,3.618-8.084,8.084v173.854c0,4.466,3.618,8.084,8.084,8.084h63.534v55.675   c0,3.27,1.97,6.219,4.994,7.47c0.999,0.414,2.048,0.614,3.088,0.614c2.106,0,4.176-0.824,5.724-2.371l61.298-61.388h143.435   c4.466,0,8.084-3.618,8.084-8.084V301.85l0.069,0.069c3.158,3.156,8.275,3.156,11.432,0l12.133-12.133h43.401l61.299,61.386   c1.547,1.549,3.615,2.371,5.723,2.371c1.04,0,2.089-0.202,3.088-0.614c3.023-1.25,4.994-4.199,4.994-7.47v-55.673h63.535   c4.466,0,8.084-3.618,8.084-8.084V107.849C512,103.383,508.382,99.765,503.916,99.765z M143.371,332.307   c-2.146,0-4.204,0.854-5.721,2.371l-49.862,49.936v-44.223c0-4.466-3.618-8.084-8.084-8.084H16.168V174.622h143.888   c-1.257,2.964-2.369,5.987-3.306,9.07h-14.672c-4.466,0-8.084,3.618-8.084,8.084v37.346c0,4.466,3.618,8.084,8.084,8.084h14.672   c1.732,5.705,4.019,11.22,6.839,16.493l-10.38,10.381c-3.157,3.157-3.157,8.276,0.001,11.432l26.407,26.406   c3.155,3.155,8.275,3.157,11.431,0l10.381-10.379c5.27,2.818,10.783,5.104,16.492,6.839v14.67c0,4.466,3.618,8.084,8.084,8.084   h37.347c4.466,0,8.084-3.618,8.084-8.084v-14.67c3.631-1.103,7.174-2.455,10.636-4v37.928H143.371z M304.027,284.77l-9.06-9.058   c-2.668-2.668-6.827-3.136-10.021-1.125c-7.225,4.546-15.094,7.808-23.386,9.697c-3.679,0.836-6.29,4.109-6.29,7.883v12.8h-21.178   v-12.8c0-3.773-2.61-7.044-6.288-7.883c-8.294-1.89-16.162-5.151-23.386-9.697c-3.194-2.009-7.352-1.542-10.021,1.125l-9.061,9.059   l-14.976-14.974l9.059-9.06c2.668-2.668,3.135-6.826,1.126-10.02c-4.551-7.234-7.813-15.102-9.695-23.385   c-0.836-3.681-4.109-6.293-7.883-6.293h-12.804v-21.177h12.804c3.775,0,7.046-2.612,7.883-6.293   c1.882-8.283,5.144-16.149,9.695-23.385c2.008-3.194,1.541-7.352-1.127-10.021l-9.058-9.056l14.975-14.977l9.061,9.06   c2.668,2.668,6.827,3.136,10.022,1.125c7.223-4.547,15.091-7.808,23.383-9.695c3.68-0.838,6.291-4.11,6.291-7.883v-12.803h21.178   v12.803c0,3.774,2.612,7.046,6.292,7.883c8.29,1.885,16.158,5.147,23.383,9.695c3.198,2.01,7.354,1.542,10.022-1.125l9.061-9.06   l14.974,14.976l-9.059,9.058c-2.669,2.669-3.135,6.828-1.125,10.022c4.546,7.224,7.807,15.093,9.697,23.387   c0.838,3.679,4.109,6.29,7.883,6.29h12.802v21.177h-12.802c-3.774,0-7.044,2.611-7.883,6.29c-1.89,8.297-5.151,16.164-9.697,23.385   c-2.009,3.194-1.544,7.353,1.125,10.022l9.059,9.061l-6.158,6.157c-0.023,0.023-0.045,0.045-0.068,0.068L304.027,284.77z"/>
	<path style="fill:#202121;" d="M461.135,139.587h-92.699c-4.466,0-8.084,3.618-8.084,8.084s3.618,8.084,8.084,8.084h92.699   c4.466,0,8.084-3.618,8.084-8.084S465.6,139.587,461.135,139.587z"/>
	<path style="fill:#202121;" d="M368.436,187.734h92.699c4.466,0,8.084-3.618,8.084-8.084c0-4.466-3.618-8.084-8.084-8.084h-92.699   c-4.466,0-8.084,3.618-8.084,8.084C360.352,184.115,363.971,187.734,368.436,187.734z"/>
	<path style="fill:#202121;" d="M368.436,219.71h92.699c4.466,0,8.084-3.618,8.084-8.084c0-4.466-3.618-8.084-8.084-8.084h-92.699   c-4.466,0-8.084,3.618-8.084,8.084C360.352,216.092,363.971,219.71,368.436,219.71z"/>
	<path style="fill:#202121;" d="M369.514,251.688h92.699c4.466,0,8.084-3.618,8.084-8.084c0-4.466-3.618-8.084-8.084-8.084h-92.699   c-4.466,0-8.084,3.618-8.084,8.084C361.43,248.07,365.048,251.688,369.514,251.688z"/>
</g>
<path style="fill:#C8D0E2;" d="M326.396,199.861c-3.774,0-7.044-2.611-7.883-6.29c-1.89-8.294-5.151-16.163-9.697-23.387  c-2.009-3.194-1.544-7.353,1.125-10.022l9.059-9.058l-14.974-14.976l-9.061,9.06c-2.668,2.668-6.825,3.136-10.021,1.125  c-7.226-4.548-15.094-7.809-23.384-9.695c-3.68-0.836-6.292-4.11-6.292-7.883v-12.803h-21.178v12.803  c0,3.774-2.611,7.045-6.291,7.883c-8.292,1.886-16.16,5.148-23.383,9.695c-3.196,2.01-7.354,1.542-10.022-1.125l-9.061-9.06  l-14.975,14.977l9.058,9.056c2.669,2.669,3.136,6.827,1.127,10.021c-4.551,7.236-7.813,15.103-9.695,23.385  c-0.836,3.681-4.108,6.293-7.883,6.293h-12.804v21.177h12.804c3.775,0,7.046,2.612,7.883,6.293  c1.882,8.284,5.144,16.151,9.695,23.385c2.008,3.194,1.541,7.352-1.126,10.02l-9.059,9.06l14.975,14.975l9.061-9.059  c2.668-2.668,6.827-3.133,10.022-1.125c7.223,4.546,15.091,7.807,23.385,9.697c3.679,0.838,6.288,4.11,6.288,7.883v12.8h21.178  v-12.8c0-3.774,2.611-7.045,6.29-7.883c8.292-1.888,16.161-5.151,23.386-9.697c3.196-2.011,7.353-1.542,10.021,1.125l9.06,9.058  l8.748-8.748c0.024-0.023,0.046-0.045,0.069-0.069l6.158-6.157l-9.059-9.061c-2.669-2.669-3.135-6.828-1.125-10.022  c4.546-7.221,7.807-15.088,9.697-23.385c0.838-3.679,4.109-6.29,7.883-6.29h12.802v-21.177L326.396,199.861L326.396,199.861z   M298.388,213.074c-0.014,0.292-0.041,0.58-0.06,0.871c-0.037,0.576-0.075,1.151-0.13,1.726c-0.033,0.348-0.079,0.694-0.12,1.04  c-0.059,0.508-0.12,1.014-0.194,1.52c-0.055,0.377-0.117,0.75-0.18,1.125c-0.078,0.466-0.16,0.929-0.25,1.392  c-0.078,0.398-0.16,0.792-0.247,1.188c-0.095,0.429-0.194,0.859-0.299,1.286c-0.101,0.414-0.205,0.826-0.316,1.235  c-0.11,0.401-0.224,0.801-0.342,1.201c-0.123,0.42-0.249,0.84-0.384,1.256c-0.126,0.392-0.262,0.784-0.398,1.174  c-0.141,0.405-0.281,0.81-0.431,1.21c-0.041,0.111-0.075,0.224-0.119,0.335c-0.186,0.487-0.385,0.966-0.584,1.447  c-0.046,0.112-0.088,0.225-0.136,0.337c-4.064,9.608-10.753,17.749-19.446,23.621c-0.01,0.006-0.018,0.013-0.027,0.019  c-0.637,0.429-1.286,0.842-1.945,1.245l-0.568,0.341c-0.506,0.302-1.012,0.594-1.525,0.877l-0.092,0.051  c-0.172,0.097-0.345,0.193-0.517,0.286c-1.368,0.734-2.795,1.421-4.228,2.036l-0.626,0.261c-0.553,0.227-1.099,0.443-1.65,0.651  l-0.623,0.232c-1.521,0.549-3.053,1.025-4.58,1.426l-0.204,0.051c-0.061,0.016-0.122,0.03-0.182,0.045l-0.328,0.082  c-0.544,0.136-1.132,0.272-1.72,0.397l-0.125,0.026c-0.03,0.006-0.063,0.013-0.093,0.019c-0.123,0.026-0.247,0.053-0.37,0.078  c-0.044,0.009-0.088,0.019-0.132,0.027c-0.716,0.143-1.467,0.281-2.227,0.399c-0.046,0.009-0.092,0.016-0.138,0.023  c-0.794,0.121-1.597,0.22-2.404,0.306l-0.056,0.005c-0.195,0.022-0.39,0.038-0.586,0.056l-0.108,0.011  c-0.589,0.055-1.19,0.1-1.795,0.137l-0.095,0.005c-0.207,0.012-0.414,0.025-0.621,0.034l-0.027,0.001  c-0.818,0.037-1.644,0.063-2.473,0.063h-0.009c-0.82,0-1.637-0.025-2.45-0.061c-0.012-0.001-0.022-0.001-0.032-0.001l-0.751-0.042  c-0.008,0-0.016-0.001-0.025-0.002c-0.579-0.034-1.158-0.079-1.734-0.132c-0.012-0.001-0.023-0.002-0.036-0.003l-0.307-0.029  c-0.928-0.092-1.854-0.201-2.772-0.338c-0.022-0.003-0.042-0.005-0.064-0.009c-0.046-0.006-0.092-0.014-0.138-0.023  c-0.02-0.003-0.04-0.008-0.06-0.011c-29.307-0.23-52.997-24.05-52.997-53.412c0-29.503,23.917-53.422,53.422-53.422  c1.195,0,2.379,0.054,3.555,0.13c0.396-0.031,0.791-0.068,1.189-0.091c0.233-0.013,0.462-0.028,0.696-0.04  c0.831-0.038,1.667-0.064,2.505-0.064h0.001h-0.001c0,0,0.004,0,0.006,0c0.834,0,1.665,0.025,2.495,0.064  c0.238,0.012,0.475,0.027,0.714,0.041c0.625,0.037,1.248,0.085,1.87,0.143c0.222,0.022,0.444,0.04,0.666,0.065  c1.683,0.179,3.347,0.434,4.995,0.77c0.083,0.017,0.166,0.036,0.249,0.054c0.76,0.157,1.516,0.334,2.268,0.524  c0.1,0.025,0.201,0.051,0.299,0.077c2.502,0.651,4.952,1.482,7.336,2.492c0.012,0.004,0.023,0.01,0.032,0.014  c0.787,0.333,1.566,0.688,2.338,1.058c0.014,0.006,0.026,0.013,0.039,0.019c2.311,1.116,4.55,2.403,6.706,3.857  c0.025,0.018,0.051,0.034,0.077,0.053c0.346,0.235,0.693,0.465,1.036,0.707c0.264,0.188,0.515,0.389,0.775,0.581  c0.176,0.13,0.35,0.262,0.525,0.395c0.522,0.396,1.036,0.798,1.541,1.212c0.175,0.143,0.347,0.289,0.52,0.433  c0.484,0.405,0.96,0.816,1.427,1.236c0.208,0.186,0.411,0.377,0.614,0.566c0.416,0.386,0.83,0.775,1.232,1.175  c0.267,0.263,0.526,0.532,0.787,0.801c0.326,0.337,0.652,0.673,0.969,1.016c0.344,0.374,0.679,0.757,1.012,1.141  c0.22,0.252,0.444,0.503,0.66,0.761c0.433,0.517,0.855,1.048,1.27,1.582c0.107,0.136,0.216,0.268,0.32,0.405  c4.55,5.969,7.874,12.915,9.612,20.463c0.296,1.286,0.563,2.58,0.763,3.889c0.123,0.806,0.223,1.62,0.308,2.435  c0.025,0.235,0.045,0.471,0.066,0.706c0.057,0.603,0.103,1.205,0.139,1.81c0.015,0.251,0.031,0.502,0.042,0.753  c0.038,0.826,0.064,1.65,0.064,2.475C298.455,211.328,298.43,212.202,298.388,213.074z"/>
<g>
</g>
<g>
</g>
<g>
</g>
<g>
</g>
<g>
</g>
<g>
</g>
<g>
</g>
<g>
</g>
<g>
</g>
<g>
</g>
<g>
</g>
<g>
</g>
<g>
</g>
<g>
</g>
<g>
</g>
</svg>
