<?xml version="1.0" encoding="iso-8859-1"?>
<!-- Generator: Adobe Illustrator 19.0.0, SVG Export Plug-In . SVG Version: 6.00 Build 0)  -->
<svg xmlns="http://www.w3.org/2000/svg" xmlns:xlink="http://www.w3.org/1999/xlink" version="1.1" id="Layer_1" x="0px" y="0px" viewBox="0 0 512.001 512.001" style="enable-background:new 0 0 512.001 512.001;" xml:space="preserve">
<path style="fill:#E4F1FB;" d="M429.96,444.196h56.152V112.961h-88.582c-4.488,0-8.126-3.637-8.126-8.126V16.253H203.98  l0.078,34.031h121.036c0.088,0,0.173,0.011,0.261,0.013c0.101,0.003,0.198,0.009,0.297,0.015c0.333,0.023,0.662,0.061,0.986,0.122  c0.017,0.003,0.034,0.004,0.052,0.009c0.338,0.068,0.667,0.164,0.994,0.274c0.09,0.029,0.178,0.063,0.267,0.095  c0.306,0.115,0.607,0.244,0.897,0.394c0.022,0.012,0.044,0.021,0.066,0.031c0.308,0.164,0.602,0.355,0.887,0.559  c0.074,0.053,0.147,0.107,0.22,0.163c0.285,0.218,0.561,0.447,0.818,0.703l96.708,96.708c0.257,0.257,0.488,0.533,0.704,0.819  c0.055,0.072,0.111,0.144,0.161,0.218c0.204,0.287,0.397,0.582,0.561,0.891c0.01,0.018,0.016,0.037,0.026,0.055  c0.154,0.295,0.285,0.601,0.401,0.913c0.033,0.085,0.063,0.168,0.091,0.252c0.112,0.332,0.209,0.666,0.278,1.011  c0,0.003,0.001,0.008,0.002,0.011c0.066,0.339,0.104,0.683,0.127,1.029c0.007,0.091,0.011,0.181,0.014,0.273  c0.003,0.091,0.014,0.182,0.014,0.274v289.08C429.939,444.197,429.949,444.196,429.96,444.196z"/>
<path style="fill:#F3E2C2;" d="M325.094,163.244c-4.488,0-8.126-3.637-8.126-8.126V66.536H131.542l0.362,159.209  c0.119-0.017,0.238-0.036,0.356-0.053l0.294-0.042c0.454-0.065,0.91-0.13,1.367-0.19c0.682-0.09,1.38-0.171,2.08-0.251l0.173-0.021  c0.479-0.057,0.958-0.114,1.44-0.164c0.606-0.064,1.216-0.119,1.828-0.174l0.757-0.069c0.384-0.035,0.765-0.069,1.151-0.101  c0.234-0.018,0.472-0.031,0.708-0.049c0.131-0.01,0.264-0.017,0.395-0.026c0.254-0.017,0.505-0.036,0.758-0.052l0.911-0.059  c0.33-0.023,0.66-0.044,0.992-0.062c0.544-0.028,1.093-0.046,1.642-0.066c0.376-0.016,0.752-0.033,1.129-0.046l0.154-0.007  c0.289-0.013,0.576-0.024,0.867-0.031c1.172-0.03,2.363-0.044,3.557-0.047c0.078,0,0.157-0.004,0.235-0.004  c1.276,0,2.551,0.018,3.824,0.052c0.267,0.008,0.55,0.018,0.834,0.03l0.397,0.016c0.846,0.028,1.69,0.059,2.53,0.102  c0.329,0.017,0.659,0.039,0.989,0.062l0.911,0.059c0.623,0.039,1.247,0.079,1.868,0.128c0.38,0.029,0.762,0.065,1.144,0.1  l0.758,0.069c0.611,0.055,1.222,0.111,1.83,0.174c0.479,0.051,0.958,0.107,1.437,0.164l0.2,0.023  c0.674,0.077,1.373,0.158,2.068,0.25c0.442,0.057,0.898,0.122,1.353,0.187l0.294,0.042c0.677,0.098,1.357,0.195,2.032,0.301  c0.554,0.088,1.107,0.181,1.662,0.276c0.653,0.111,1.321,0.226,1.986,0.349c0.542,0.099,1.094,0.205,1.645,0.314  c0.667,0.131,1.32,0.263,1.97,0.4c0.542,0.114,1.085,0.234,1.629,0.354c0.667,0.15,1.319,0.299,1.967,0.455  c0.534,0.126,1.08,0.259,1.625,0.397c0.634,0.158,1.283,0.327,1.931,0.499c0.535,0.143,1.068,0.286,1.599,0.433  c0.65,0.181,1.29,0.366,1.932,0.555c0.51,0.151,1.036,0.303,1.558,0.464c0.649,0.199,1.286,0.403,1.923,0.608l0.334,0.107  c0.404,0.13,0.809,0.26,1.212,0.394c0.65,0.218,1.292,0.442,1.934,0.667l0.252,0.088c0.411,0.144,0.822,0.287,1.231,0.434  c0.537,0.195,1.074,0.398,1.61,0.601l0.776,0.294c0.332,0.124,0.661,0.248,0.989,0.377c0.586,0.231,1.164,0.467,1.741,0.703  l0.66,0.269c0.319,0.129,0.637,0.257,0.952,0.391c0.716,0.3,1.443,0.621,2.168,0.942l0.423,0.184c0.231,0.1,0.46,0.2,0.689,0.302  c1.095,0.494,2.18,1,3.257,1.519l0.27,0.133c0.986,0.478,1.962,0.963,2.93,1.459c0.243,0.125,0.476,0.248,0.706,0.372l0.36,0.192  c0.747,0.39,1.425,0.748,2.096,1.112c0.298,0.163,0.597,0.332,0.896,0.499l0.462,0.26c0.586,0.326,1.17,0.652,1.75,0.986  c0.351,0.204,0.692,0.407,1.033,0.61l0.472,0.28c0.521,0.31,1.045,0.619,1.561,0.935c0.314,0.192,0.623,0.386,0.933,0.581  l0.376,0.236c0.576,0.361,1.145,0.718,1.708,1.082c0.426,0.275,0.845,0.555,1.266,0.834c0.597,0.393,1.15,0.762,1.697,1.136  c0.385,0.263,0.765,0.528,1.145,0.792l0.154,0.107c0.549,0.385,1.088,0.764,1.624,1.151c0.426,0.306,0.857,0.621,1.287,0.938  c0.518,0.38,1.045,0.774,1.57,1.171c0.411,0.31,0.832,0.634,1.253,0.96c0.535,0.416,1.052,0.822,1.565,1.232  c0.401,0.32,0.816,0.651,1.225,0.986c0.516,0.42,1.025,0.843,1.533,1.27c0.388,0.326,0.787,0.661,1.183,1  c0.517,0.443,1.019,0.882,1.518,1.324l0.148,0.131c0.083,0.074,0.168,0.15,0.251,0.224c0.016,0.014,0.033,0.027,0.048,0.042  c0.233,0.205,0.466,0.411,0.696,0.618c0.475,0.426,0.946,0.862,1.418,1.299l0.295,0.274c0.03,0.027,0.061,0.056,0.09,0.085  c0.137,0.126,0.273,0.251,0.408,0.379c0.129,0.121,0.26,0.242,0.389,0.363c0.52,0.493,1.026,0.984,1.53,1.477l0.139,0.133  c0.036,0.035,0.07,0.069,0.108,0.106c0.2,0.195,0.4,0.389,0.599,0.586c0.06,0.06,0.12,0.117,0.18,0.177  c0.515,0.509,1.031,1.04,1.552,1.573l0.19,0.192c0.224,0.233,0.453,0.463,0.677,0.697c0.018,0.02,0.036,0.037,0.054,0.056  c0.526,0.549,1.043,1.105,1.559,1.662l0.316,0.338c0.12,0.128,0.239,0.256,0.358,0.384c0.03,0.034,0.064,0.067,0.094,0.101  c0.002,0.002,0.003,0.005,0.005,0.008c0.042,0.044,0.082,0.091,0.122,0.137c9.487,10.417,17.362,22.123,23.414,34.804  c0.038,0.072,0.074,0.145,0.108,0.217c0.002,0.003,0.003,0.007,0.004,0.01c0.002,0.003,0.004,0.007,0.005,0.01  c0.037,0.077,0.069,0.155,0.107,0.232c0.03,0.068,0.063,0.135,0.093,0.204l0.055,0.12c0.407,0.866,0.809,1.74,1.202,2.622  l0.011,0.025c8.017,17.984,12.148,37.137,12.307,57.007c0.003,0.395,0.017,0.789,0.017,1.186c0,1.557-0.034,3.104-0.083,4.649  c-0.013,0.389-0.028,0.778-0.044,1.166c-0.051,1.271-0.118,2.539-0.202,3.801c-0.022,0.295-0.036,0.593-0.057,0.886  c-0.112,1.53-0.247,3.053-0.406,4.57c-0.028,0.272-0.064,0.542-0.093,0.813c-0.141,1.269-0.298,2.531-0.472,3.789  c-0.051,0.372-0.102,0.743-0.157,1.113c-0.438,3.006-0.971,5.982-1.594,8.925c-0.072,0.34-0.148,0.68-0.222,1.021  c-0.271,1.232-0.557,2.457-0.859,3.676c-0.065,0.263-0.126,0.528-0.193,0.791c-0.373,1.468-0.766,2.928-1.183,4.377  c-0.055,0.186-0.112,0.371-0.167,0.556c-0.371,1.269-0.76,2.53-1.165,3.784c-0.1,0.308-0.199,0.615-0.299,0.923  c-0.946,2.863-1.978,5.684-3.097,8.463c-0.103,0.254-0.206,0.506-0.31,0.758c-0.5,1.218-1.012,2.427-1.543,3.63  c-0.086,0.192-0.167,0.385-0.254,0.576c-0.626,1.402-1.273,2.792-1.943,4.17c-0.03,0.063-0.063,0.124-0.093,0.186  c-0.628,1.287-1.281,2.564-1.946,3.829c-0.115,0.219-0.23,0.438-0.346,0.656c-1.43,2.686-2.944,5.322-4.538,7.904  c-0.09,0.146-0.182,0.29-0.272,0.436c-0.749,1.204-1.515,2.397-2.299,3.577c-0.068,0.104-0.135,0.208-0.205,0.312  c-1.716,2.569-3.514,5.078-5.388,7.527c-0.093,0.121-0.186,0.245-0.282,0.366c-1.896,2.462-3.868,4.861-5.916,7.193  c-0.04,0.046-0.08,0.09-0.12,0.135c-1.014,1.153-2.049,2.288-3.099,3.409c-0.027,0.028-0.055,0.057-0.081,0.086  c-2.157,2.295-4.391,4.516-6.695,6.665c-0.053,0.05-0.106,0.1-0.159,0.148c-5.821,5.413-12.089,10.348-18.745,14.742  c-0.027,0.018-0.053,0.035-0.078,0.052c-4.008,2.642-8.156,5.089-12.43,7.328h194.76V163.244H325.094z"/>
<polygon style="fill:#6598CB;" points="405.657,96.708 474.619,96.708 405.657,27.744 "/>
<polygon style="fill:#F7971D;" points="333.22,78.029 333.22,146.992 402.183,146.992 "/>
<g>
	<path style="fill:#B1D9EE;" d="M442.93,155.118c0-0.092-0.011-0.183-0.014-0.274c-0.003-0.092-0.008-0.182-0.014-0.273   c-0.023-0.347-0.062-0.691-0.127-1.029c-0.001-0.003-0.002-0.008-0.002-0.011c-0.069-0.343-0.167-0.679-0.278-1.011   c-0.028-0.085-0.059-0.168-0.091-0.252c-0.116-0.312-0.247-0.618-0.401-0.913c-0.011-0.018-0.017-0.037-0.026-0.055   c-0.164-0.309-0.356-0.605-0.561-0.891c-0.052-0.074-0.107-0.146-0.161-0.218c-0.216-0.286-0.446-0.561-0.704-0.819l-36.41-36.41   h-6.609c-4.488,0-8.126-3.637-8.126-8.126v-6.609l-45.562-45.562c-0.257-0.256-0.533-0.485-0.818-0.703   c-0.073-0.056-0.146-0.111-0.22-0.163c-0.286-0.204-0.58-0.394-0.887-0.559c-0.023-0.012-0.046-0.021-0.066-0.031   c-0.291-0.152-0.592-0.28-0.897-0.394c-0.089-0.033-0.177-0.066-0.267-0.095c-0.326-0.111-0.656-0.206-0.994-0.274   c-0.018-0.004-0.035-0.005-0.052-0.009c-0.324-0.063-0.654-0.1-0.986-0.122c-0.1-0.007-0.197-0.012-0.297-0.015   c-0.088-0.002-0.173-0.013-0.261-0.013h-13.002c0.088,0,0.173,0.011,0.261,0.013c0.101,0.003,0.198,0.009,0.297,0.015   c0.333,0.023,0.662,0.061,0.986,0.122c0.017,0.003,0.034,0.004,0.052,0.009c0.338,0.068,0.667,0.164,0.994,0.274   c0.09,0.029,0.178,0.063,0.267,0.095c0.306,0.115,0.607,0.244,0.897,0.394c0.022,0.012,0.044,0.021,0.066,0.031   c0.308,0.164,0.602,0.355,0.887,0.559c0.074,0.053,0.147,0.107,0.22,0.163c0.285,0.218,0.561,0.447,0.818,0.703l96.708,96.708   c0.257,0.257,0.488,0.533,0.704,0.819c0.055,0.072,0.111,0.144,0.161,0.218c0.204,0.287,0.397,0.582,0.561,0.891   c0.01,0.018,0.016,0.037,0.026,0.055c0.154,0.295,0.285,0.601,0.401,0.913c0.033,0.085,0.063,0.168,0.091,0.252   c0.112,0.332,0.209,0.666,0.278,1.011c0,0.003,0.001,0.008,0.002,0.011c0.066,0.339,0.104,0.683,0.127,1.029   c0.007,0.091,0.011,0.181,0.014,0.273c0.003,0.091,0.014,0.182,0.014,0.274v289.08c0.011-0.001,0.022-0.002,0.031-0.002h12.971   V155.118z"/>
	<polygon style="fill:#B1D9EE;" points="203.98,16.253 204.058,50.284 217.06,50.284 216.982,16.253  "/>
</g>
<g>
	<path style="fill:#FBD7B1;" d="M308.935,366.301c-0.158-19.869-4.291-39.024-12.307-57.007l-0.011-0.025   c-0.392-0.882-0.794-1.756-1.202-2.622l-0.055-0.12c-0.03-0.068-0.063-0.135-0.093-0.204c-0.037-0.077-0.069-0.155-0.107-0.232   c-0.001-0.003-0.003-0.007-0.005-0.01c-0.001-0.003-0.002-0.007-0.004-0.01c-0.034-0.072-0.069-0.145-0.108-0.217   c-6.051-12.68-13.927-24.387-23.414-34.804c-0.04-0.046-0.08-0.092-0.122-0.137c-0.002-0.002-0.003-0.005-0.005-0.008   c-0.03-0.034-0.064-0.067-0.094-0.101c-0.118-0.128-0.237-0.256-0.358-0.384l-0.316-0.338c-0.517-0.558-1.034-1.113-1.559-1.662   c-0.018-0.02-0.036-0.037-0.054-0.056c-0.224-0.234-0.453-0.464-0.677-0.697l-0.19-0.192c-0.52-0.533-1.037-1.064-1.552-1.573   c-0.06-0.06-0.12-0.117-0.18-0.177c-0.199-0.197-0.399-0.391-0.599-0.586c-0.037-0.036-0.072-0.07-0.108-0.106l-0.139-0.133   c-0.504-0.493-1.01-0.984-1.53-1.477c-0.129-0.121-0.26-0.242-0.389-0.363c-0.135-0.127-0.272-0.252-0.408-0.379   c-0.029-0.028-0.06-0.057-0.09-0.085l-0.295-0.274c-0.472-0.437-0.944-0.874-1.418-1.299c-0.231-0.207-0.464-0.413-0.696-0.618   c-0.015-0.015-0.031-0.028-0.048-0.042c-0.083-0.075-0.168-0.151-0.251-0.224l-0.148-0.131c-0.501-0.441-1.002-0.881-1.518-1.324   c-0.397-0.339-0.794-0.674-1.183-1c-0.508-0.426-1.017-0.849-1.533-1.27c-0.41-0.336-0.825-0.666-1.225-0.986   c-0.514-0.41-1.029-0.816-1.565-1.232c-0.421-0.326-0.842-0.65-1.253-0.96c-0.525-0.398-1.053-0.791-1.57-1.171   c-0.429-0.317-0.861-0.633-1.287-0.938c-0.536-0.387-1.075-0.766-1.624-1.151l-0.154-0.107c-0.38-0.264-0.76-0.529-1.145-0.792   c-0.548-0.374-1.101-0.742-1.697-1.136c-0.42-0.28-0.84-0.559-1.266-0.834c-0.563-0.364-1.131-0.722-1.708-1.082l-0.376-0.236   c-0.31-0.195-0.619-0.389-0.933-0.581c-0.518-0.316-1.04-0.625-1.561-0.935l-0.472-0.28c-0.34-0.204-0.682-0.406-1.033-0.61   c-0.58-0.335-1.164-0.66-1.75-0.986l-0.462-0.26c-0.299-0.168-0.599-0.337-0.896-0.499c-0.671-0.365-1.349-0.722-2.096-1.112   l-0.36-0.192c-0.232-0.124-0.465-0.247-0.706-0.372c-0.969-0.496-1.944-0.981-2.93-1.46l-0.27-0.133   c-1.077-0.519-2.162-1.025-3.257-1.519c-0.229-0.103-0.458-0.204-0.689-0.302l-0.423-0.184c-0.725-0.321-1.452-0.641-2.168-0.942   c-0.315-0.134-0.634-0.262-0.952-0.391l-0.66-0.269c-0.578-0.237-1.155-0.473-1.741-0.703c-0.328-0.128-0.658-0.252-0.989-0.377   l-0.776-0.294c-0.536-0.204-1.073-0.406-1.61-0.601c-0.408-0.148-0.82-0.29-1.231-0.434l-0.252-0.088   c-0.643-0.225-1.285-0.45-1.934-0.667c-0.403-0.134-0.808-0.264-1.212-0.394l-0.334-0.107c-0.637-0.205-1.274-0.408-1.923-0.608   c-0.521-0.16-1.048-0.313-1.558-0.464c-0.641-0.189-1.283-0.374-1.932-0.555c-0.531-0.148-1.064-0.291-1.599-0.433   c-0.649-0.172-1.297-0.341-1.931-0.499c-0.545-0.138-1.091-0.271-1.625-0.397c-0.649-0.156-1.299-0.306-1.967-0.455   c-0.544-0.12-1.087-0.241-1.629-0.354c-0.651-0.137-1.302-0.269-1.97-0.4c-0.552-0.109-1.103-0.216-1.645-0.314   c-0.665-0.122-1.333-0.239-1.986-0.349c-0.555-0.095-1.108-0.189-1.662-0.276c-0.675-0.107-1.354-0.204-2.032-0.301l-0.294-0.042   c-0.455-0.065-0.911-0.13-1.353-0.187c-0.697-0.092-1.394-0.173-2.068-0.25l-0.2-0.023c-0.479-0.057-0.958-0.114-1.437-0.164   c-0.609-0.064-1.22-0.119-1.83-0.174l-0.758-0.069c-0.382-0.035-0.764-0.069-1.144-0.1c-0.62-0.049-1.244-0.089-1.868-0.128   l-0.911-0.059c-0.33-0.023-0.66-0.044-0.989-0.062c-0.84-0.043-1.684-0.073-2.53-0.102l-0.397-0.016   c-0.285-0.013-0.568-0.023-0.834-0.03c-1.273-0.034-2.548-0.052-3.824-0.052c-0.078,0-0.157,0.004-0.235,0.004   c-1.194,0.002-2.385,0.016-3.557,0.047c-0.29,0.008-0.578,0.02-0.867,0.031l-0.154,0.007c-0.377,0.013-0.753,0.029-1.129,0.046   c-0.185,0.007-0.371,0.016-0.556,0.023c0.36,0.015,0.722,0.025,1.08,0.043c0.329,0.017,0.659,0.039,0.989,0.062l0.911,0.059   c0.623,0.039,1.247,0.079,1.868,0.128c0.38,0.029,0.762,0.065,1.144,0.1l0.758,0.069c0.611,0.055,1.222,0.111,1.83,0.174   c0.479,0.051,0.958,0.107,1.437,0.164l0.2,0.023c0.674,0.077,1.373,0.158,2.068,0.25c0.442,0.057,0.898,0.122,1.353,0.187   l0.294,0.042c0.677,0.098,1.357,0.195,2.032,0.301c0.554,0.088,1.107,0.181,1.662,0.276c0.653,0.111,1.321,0.226,1.986,0.349   c0.542,0.099,1.094,0.205,1.645,0.314c0.667,0.131,1.32,0.263,1.97,0.4c0.542,0.114,1.085,0.234,1.629,0.354   c0.667,0.15,1.319,0.299,1.967,0.455c0.534,0.126,1.08,0.259,1.625,0.397c0.634,0.158,1.283,0.327,1.931,0.499   c0.535,0.143,1.068,0.286,1.599,0.433c0.65,0.181,1.29,0.366,1.932,0.555c0.51,0.151,1.036,0.303,1.558,0.464   c0.649,0.199,1.286,0.403,1.923,0.608l0.334,0.107c0.404,0.13,0.809,0.26,1.212,0.394c0.65,0.218,1.292,0.442,1.934,0.667   l0.252,0.088c0.411,0.144,0.822,0.287,1.231,0.434c0.537,0.195,1.074,0.398,1.61,0.601l0.776,0.294   c0.332,0.124,0.661,0.248,0.989,0.377c0.586,0.231,1.164,0.467,1.741,0.703l0.66,0.269c0.319,0.129,0.637,0.257,0.952,0.391   c0.716,0.3,1.443,0.621,2.168,0.942l0.423,0.184c0.231,0.1,0.46,0.2,0.689,0.302c1.095,0.494,2.18,1,3.257,1.519l0.27,0.133   c0.986,0.478,1.962,0.963,2.93,1.46c0.243,0.125,0.476,0.248,0.706,0.372l0.36,0.192c0.747,0.39,1.425,0.748,2.096,1.112   c0.298,0.163,0.597,0.332,0.896,0.499l0.462,0.26c0.586,0.326,1.17,0.652,1.75,0.986c0.351,0.204,0.692,0.407,1.033,0.61   l0.472,0.28c0.521,0.31,1.045,0.619,1.561,0.935c0.314,0.192,0.623,0.386,0.933,0.581l0.376,0.236   c0.576,0.361,1.145,0.718,1.708,1.082c0.426,0.275,0.845,0.555,1.266,0.834c0.597,0.393,1.15,0.762,1.697,1.136   c0.385,0.263,0.765,0.528,1.145,0.792l0.154,0.107c0.549,0.385,1.088,0.764,1.624,1.151c0.426,0.306,0.857,0.621,1.287,0.938   c0.518,0.38,1.045,0.774,1.57,1.171l7.78,14.23l7.333,7.427l9.423,2.022c7.262,8.886,13.44,18.579,18.384,28.936   c0.038,0.072,0.074,0.145,0.108,0.217c0.002,0.003,0.003,0.007,0.004,0.01c0.002,0.003,0.004,0.007,0.005,0.01   c0.037,0.077,0.069,0.155,0.107,0.232c0.03,0.068,0.063,0.135,0.093,0.204l0.055,0.12c0.407,0.866,0.809,1.74,1.202,2.622   l0.011,0.025c8.017,17.984,12.148,37.137,12.307,57.007c0.003,0.395,0.017,0.789,0.017,1.186c0,1.557-0.034,3.104-0.083,4.649   c-0.013,0.389-0.028,0.778-0.044,1.166c-0.051,1.271-0.118,2.539-0.202,3.801c-0.022,0.295-0.036,0.593-0.057,0.886   c-0.112,1.53-0.247,3.053-0.406,4.57c-0.028,0.272-0.064,0.542-0.093,0.813c-0.141,1.269-0.298,2.531-0.472,3.789   c-0.051,0.372-0.102,0.743-0.157,1.113c-0.438,3.006-0.971,5.982-1.594,8.925c-0.072,0.34-0.148,0.68-0.222,1.021   c-0.271,1.232-0.557,2.457-0.859,3.676c-0.065,0.263-0.126,0.528-0.193,0.791c-0.373,1.468-0.766,2.928-1.183,4.377   c-0.055,0.186-0.112,0.371-0.167,0.556c-0.371,1.269-0.76,2.53-1.165,3.784c-0.1,0.308-0.199,0.615-0.299,0.923   c-0.946,2.863-1.978,5.684-3.097,8.463c-0.103,0.254-0.206,0.506-0.31,0.758c-0.499,1.218-1.012,2.427-1.543,3.63   c-0.086,0.192-0.167,0.385-0.254,0.576c-0.626,1.402-1.273,2.792-1.943,4.17c-0.03,0.063-0.063,0.124-0.093,0.186   c-0.628,1.287-1.281,2.564-1.946,3.829c-0.115,0.219-0.23,0.438-0.346,0.656c-1.43,2.686-2.944,5.322-4.538,7.904   c-0.09,0.146-0.182,0.29-0.272,0.436c-0.749,1.204-1.515,2.397-2.299,3.577c-0.068,0.104-0.135,0.208-0.205,0.312   c-1.716,2.569-3.514,5.078-5.388,7.527c-0.093,0.121-0.186,0.245-0.282,0.366c-1.896,2.462-3.868,4.861-5.916,7.193   c-0.04,0.046-0.08,0.09-0.12,0.135c-1.014,1.153-2.049,2.288-3.099,3.409c-0.027,0.028-0.055,0.057-0.081,0.086   c-2.157,2.295-4.391,4.516-6.695,6.665c-0.053,0.05-0.106,0.1-0.159,0.148c-5.821,5.413-12.089,10.348-18.745,14.742   c-0.027,0.018-0.053,0.035-0.078,0.052c-4.008,2.642-8.156,5.089-12.43,7.328h13.002c4.273-2.237,8.422-4.685,12.43-7.328   c0.025-0.017,0.052-0.034,0.078-0.052c6.656-4.396,12.924-9.329,18.745-14.742c0.054-0.049,0.107-0.099,0.159-0.148   c2.304-2.149,4.538-4.37,6.695-6.665c0.026-0.028,0.054-0.057,0.081-0.086c1.051-1.12,2.085-2.257,3.099-3.409   c0.04-0.046,0.08-0.09,0.12-0.135c2.048-2.332,4.02-4.731,5.916-7.193c0.095-0.121,0.189-0.245,0.282-0.366   c1.873-2.45,3.672-4.958,5.388-7.527c0.069-0.104,0.137-0.208,0.205-0.312c0.784-1.18,1.551-2.372,2.299-3.577   c0.09-0.146,0.182-0.29,0.272-0.436c1.594-2.582,3.106-5.217,4.538-7.904c0.116-0.218,0.231-0.437,0.346-0.656   c0.665-1.266,1.318-2.542,1.946-3.829c0.03-0.063,0.063-0.124,0.093-0.186c0.67-1.377,1.316-2.768,1.943-4.17   c0.087-0.192,0.168-0.385,0.254-0.576c0.531-1.202,1.043-2.412,1.543-3.63c0.104-0.252,0.207-0.505,0.31-0.758   c1.118-2.779,2.151-5.602,3.097-8.463c0.101-0.307,0.2-0.614,0.299-0.923c0.405-1.254,0.794-2.515,1.165-3.784   c0.055-0.185,0.112-0.369,0.167-0.556c0.417-1.45,0.81-2.91,1.183-4.377c0.066-0.263,0.128-0.528,0.193-0.791   c0.302-1.22,0.588-2.445,0.859-3.676c0.074-0.34,0.151-0.68,0.222-1.021c0.623-2.944,1.155-5.919,1.594-8.925   c0.055-0.371,0.106-0.742,0.157-1.113c0.173-1.258,0.332-2.52,0.472-3.789c0.029-0.271,0.065-0.541,0.093-0.813   c0.159-1.516,0.295-3.04,0.406-4.57c0.022-0.294,0.036-0.592,0.057-0.886c0.082-1.262,0.151-2.53,0.202-3.801   c0.016-0.388,0.031-0.777,0.044-1.166c0.05-1.545,0.083-3.092,0.083-4.649C308.953,367.091,308.938,366.698,308.935,366.301z"/>
	<path style="fill:#FBD7B1;" d="M131.542,66.536l0.362,159.209c0.119-0.017,0.238-0.036,0.356-0.053l0.294-0.042   c0.454-0.065,0.91-0.13,1.367-0.19c0.682-0.09,1.38-0.171,2.08-0.251l0.173-0.021c0.479-0.057,0.958-0.114,1.44-0.164   c0.606-0.064,1.216-0.119,1.828-0.174l0.757-0.069c0.384-0.035,0.765-0.069,1.151-0.101c0.234-0.018,0.472-0.031,0.708-0.049   c0.131-0.01,0.264-0.017,0.395-0.026c0.254-0.017,0.505-0.036,0.758-0.052l0.911-0.059c0.259-0.018,0.519-0.033,0.779-0.048   l-0.359-157.911C144.545,66.536,131.542,66.536,131.542,66.536z"/>
</g>
<path style="fill:#F7971D;" d="M296.668,363.515c-0.008-0.953-0.015-1.908-0.04-2.857c-0.015-0.528-0.04-1.055-0.062-1.583  c-0.027-0.735-0.053-1.469-0.091-2.201c-0.031-0.566-0.072-1.129-0.108-1.691c-0.046-0.691-0.091-1.379-0.145-2.066  c-0.049-0.575-0.103-1.15-0.154-1.725c-0.064-0.672-0.127-1.345-0.202-2.015c-0.062-0.572-0.127-1.144-0.196-1.715  c-0.079-0.671-0.166-1.34-0.255-2.009c-0.074-0.561-0.153-1.12-0.235-1.679c-0.1-0.682-0.205-1.359-0.315-2.037  c-0.089-0.539-0.176-1.078-0.27-1.616c-0.121-0.705-0.255-1.406-0.387-2.106c-0.096-0.506-0.189-1.012-0.29-1.515  c-0.155-0.773-0.324-1.54-0.491-2.309c-0.095-0.424-0.181-0.849-0.277-1.273c-0.262-1.141-0.537-2.276-0.826-3.407  c-0.014-0.047-0.023-0.095-0.036-0.143c-0.303-1.181-0.624-2.352-0.959-3.52c-0.104-0.367-0.216-0.729-0.326-1.094  c-0.235-0.804-0.475-1.606-0.724-2.404c-0.135-0.426-0.275-0.846-0.413-1.27c-0.239-0.734-0.478-1.465-0.728-2.192  c-0.153-0.441-0.309-0.881-0.467-1.321c-0.249-0.708-0.505-1.414-0.767-2.117c-0.163-0.436-0.33-0.871-0.496-1.305  c-0.272-0.706-0.55-1.411-0.832-2.112c-0.169-0.417-0.339-0.835-0.512-1.25c-0.3-0.725-0.61-1.445-0.921-2.164  c-0.167-0.381-0.33-0.763-0.502-1.143c-0.343-0.775-0.7-1.544-1.06-2.311c-0.109-0.235-0.213-0.476-0.326-0.711l-0.017-0.029  c-5.964-12.546-13.742-24.062-23.003-34.203l-0.016-0.023c-0.317-0.349-0.647-0.69-0.971-1.036  c-0.415-0.445-0.828-0.892-1.247-1.333c-0.387-0.404-0.783-0.801-1.175-1.201c-0.411-0.419-0.819-0.841-1.234-1.255  c-0.407-0.402-0.817-0.8-1.23-1.198c-0.413-0.401-0.826-0.803-1.244-1.199c-0.417-0.395-0.84-0.788-1.263-1.178  c-0.42-0.388-0.84-0.778-1.266-1.159c-0.43-0.389-0.867-0.771-1.301-1.156c-0.426-0.375-0.854-0.749-1.285-1.118  c-0.44-0.38-0.886-0.753-1.333-1.128c-0.434-0.365-0.87-0.727-1.311-1.086c-0.452-0.369-0.907-0.736-1.364-1.099  c-0.442-0.352-0.885-0.702-1.334-1.05c-0.46-0.358-0.925-0.714-1.391-1.066c-0.453-0.341-0.906-0.679-1.363-1.016  c-0.468-0.348-0.939-0.693-1.416-1.033c-0.462-0.333-0.926-0.66-1.393-0.986c-0.477-0.334-0.956-0.667-1.437-0.996  c-0.469-0.322-0.945-0.636-1.419-0.95c-0.487-0.324-0.971-0.648-1.463-0.963c-0.481-0.311-0.965-0.614-1.45-0.919  c-0.492-0.31-0.984-0.621-1.48-0.925c-0.492-0.299-0.988-0.593-1.482-0.886c-0.497-0.298-0.994-0.595-1.496-0.885  c-0.506-0.293-1.017-0.575-1.53-0.862c-0.497-0.28-0.995-0.562-1.494-0.835c-0.534-0.29-1.072-0.57-1.609-0.853  c-0.486-0.257-0.971-0.52-1.463-0.77c-0.617-0.317-1.241-0.622-1.863-0.929c-0.698-0.345-1.399-0.687-2.104-1.02  c-0.747-0.353-1.492-0.705-2.246-1.048c-0.471-0.212-0.948-0.414-1.422-0.621c-0.595-0.26-1.188-0.524-1.786-0.778  c-0.499-0.211-1.004-0.411-1.509-0.615c-0.578-0.236-1.153-0.475-1.737-0.703c-0.517-0.203-1.037-0.394-1.559-0.593  c-0.575-0.217-1.149-0.437-1.729-0.648c-0.527-0.192-1.058-0.374-1.587-0.56c-0.578-0.202-1.156-0.405-1.738-0.599  c-0.537-0.179-1.077-0.352-1.618-0.525c-0.581-0.186-1.162-0.372-1.747-0.552c-0.544-0.167-1.091-0.327-1.636-0.486  c-0.588-0.171-1.177-0.342-1.768-0.508c-0.548-0.154-1.099-0.299-1.649-0.446c-0.596-0.158-1.194-0.314-1.793-0.465  c-0.55-0.138-1.103-0.271-1.656-0.404c-0.606-0.144-1.212-0.284-1.821-0.42c-0.553-0.124-1.108-0.245-1.661-0.362  c-0.615-0.129-1.234-0.254-1.852-0.377c-0.557-0.108-1.111-0.217-1.67-0.319c-0.621-0.114-1.247-0.223-1.872-0.33  c-0.558-0.094-1.116-0.189-1.674-0.276c-0.637-0.101-1.276-0.194-1.919-0.286c-0.55-0.078-1.103-0.158-1.656-0.232  c-0.656-0.085-1.311-0.161-1.969-0.238c-0.545-0.064-1.09-0.13-1.636-0.187c-0.679-0.07-1.361-0.13-2.042-0.193  c-0.531-0.047-1.059-0.1-1.591-0.141c-0.721-0.056-1.444-0.1-2.168-0.146c-0.497-0.029-0.99-0.066-1.488-0.094  c-0.807-0.041-1.62-0.068-2.43-0.098c-0.42-0.014-0.834-0.037-1.256-0.048c-1.215-0.031-2.438-0.049-3.663-0.049  c-0.013,0-0.027-0.001-0.04-0.001h-0.003l0,0c-0.016,0-0.028,0.001-0.043,0.001c-1.225,0-2.445,0.017-3.663,0.049  c-0.42,0.011-0.835,0.034-1.253,0.048c-0.813,0.028-1.623,0.056-2.434,0.098c-0.497,0.027-0.99,0.065-1.488,0.094  c-0.724,0.047-1.448,0.09-2.168,0.146c-0.53,0.041-1.06,0.094-1.59,0.141c-0.68,0.063-1.364,0.121-2.041,0.193  c-0.548,0.057-1.09,0.124-1.636,0.187c-0.656,0.076-1.314,0.154-1.968,0.238c-0.557,0.073-1.106,0.154-1.659,0.232  c-0.639,0.092-1.279,0.185-1.919,0.286c-0.558,0.088-1.116,0.182-1.671,0.276c-0.626,0.107-1.25,0.216-1.874,0.33  c-0.559,0.102-1.113,0.21-1.67,0.319c-0.615,0.122-1.235,0.248-1.848,0.377c-0.556,0.117-1.111,0.238-1.661,0.362  c-0.611,0.137-1.218,0.276-1.825,0.42c-0.554,0.133-1.104,0.267-1.653,0.404c-0.601,0.151-1.196,0.307-1.795,0.465  c-0.55,0.147-1.101,0.294-1.647,0.446c-0.592,0.165-1.181,0.337-1.766,0.508c-0.547,0.16-1.095,0.32-1.638,0.486  c-0.583,0.18-1.167,0.365-1.748,0.552c-0.541,0.173-1.08,0.347-1.618,0.525c-0.58,0.194-1.158,0.398-1.738,0.599  c-0.529,0.186-1.061,0.368-1.587,0.56c-0.578,0.21-1.153,0.43-1.729,0.648c-0.52,0.198-1.042,0.39-1.559,0.593  c-0.584,0.23-1.159,0.468-1.738,0.703c-0.502,0.205-1.01,0.404-1.509,0.615c-0.598,0.252-1.192,0.518-1.785,0.778  c-0.475,0.207-0.95,0.408-1.422,0.621c-0.754,0.342-1.501,0.695-2.245,1.048c-0.704,0.334-1.405,0.675-2.105,1.02  c-0.622,0.307-1.246,0.611-1.863,0.929c-0.49,0.25-0.973,0.514-1.461,0.77c-0.537,0.283-1.077,0.563-1.61,0.853  c-0.502,0.274-0.999,0.557-1.495,0.835c-0.509,0.287-1.021,0.569-1.529,0.862c-0.502,0.291-0.999,0.588-1.499,0.885  c-0.493,0.294-0.99,0.587-1.479,0.886c-0.497,0.303-0.991,0.614-1.483,0.925c-0.483,0.303-0.968,0.608-1.45,0.919  c-0.489,0.315-0.975,0.639-1.463,0.963c-0.475,0.314-0.947,0.628-1.418,0.95c-0.482,0.328-0.961,0.662-1.437,0.996  c-0.467,0.326-0.933,0.654-1.394,0.986c-0.475,0.339-0.944,0.685-1.416,1.033c-0.456,0.337-0.91,0.674-1.361,1.016  c-0.466,0.352-0.932,0.709-1.393,1.066c-0.445,0.347-0.892,0.698-1.334,1.05c-0.457,0.363-0.91,0.729-1.363,1.099  c-0.438,0.359-0.877,0.721-1.31,1.086c-0.449,0.375-0.891,0.748-1.335,1.128c-0.429,0.37-0.858,0.744-1.284,1.118  c-0.436,0.385-0.871,0.767-1.302,1.156c-0.426,0.382-0.844,0.771-1.263,1.159c-0.423,0.39-0.848,0.782-1.266,1.178  c-0.418,0.397-0.831,0.799-1.243,1.199c-0.41,0.399-0.823,0.796-1.229,1.198c-0.415,0.414-0.826,0.835-1.236,1.255  c-0.391,0.4-0.787,0.796-1.173,1.201c-0.42,0.441-0.833,0.887-1.248,1.333c-0.323,0.346-0.653,0.687-0.971,1.036l-0.015,0.023  c-9.261,10.142-17.039,21.657-23.001,34.203l-0.021,0.029c-0.113,0.235-0.217,0.477-0.326,0.711  c-0.36,0.767-0.713,1.536-1.061,2.311c-0.168,0.38-0.335,0.762-0.5,1.143c-0.313,0.718-0.622,1.439-0.923,2.164  c-0.172,0.416-0.342,0.834-0.513,1.25c-0.282,0.701-0.56,1.405-0.832,2.112c-0.166,0.433-0.333,0.868-0.495,1.303  c-0.262,0.705-0.519,1.414-0.771,2.125c-0.156,0.437-0.311,0.873-0.462,1.311c-0.249,0.729-0.492,1.464-0.731,2.197  c-0.138,0.424-0.277,0.843-0.411,1.268c-0.251,0.797-0.489,1.6-0.726,2.404c-0.107,0.365-0.222,0.727-0.326,1.094  c-0.335,1.168-0.656,2.339-0.959,3.52c-0.013,0.048-0.023,0.096-0.035,0.143c-0.288,1.13-0.562,2.266-0.826,3.407  c-0.096,0.424-0.183,0.849-0.278,1.273c-0.167,0.769-0.337,1.536-0.491,2.309c-0.102,0.504-0.194,1.01-0.29,1.515  c-0.133,0.7-0.265,1.401-0.387,2.106c-0.095,0.537-0.182,1.077-0.269,1.616c-0.109,0.678-0.216,1.355-0.317,2.037  c-0.082,0.559-0.158,1.117-0.235,1.676c-0.089,0.672-0.176,1.342-0.254,2.016c-0.069,0.568-0.135,1.137-0.197,1.705  c-0.072,0.673-0.138,1.348-0.199,2.023c-0.053,0.572-0.107,1.146-0.153,1.722c-0.056,0.687-0.102,1.376-0.146,2.066  c-0.038,0.563-0.078,1.126-0.109,1.691c-0.038,0.731-0.064,1.467-0.092,2.201c-0.021,0.528-0.046,1.055-0.062,1.583  c-0.023,0.949-0.033,1.904-0.038,2.857c-0.002,0.3-0.013,0.6-0.013,0.903c0,77.019,62.436,139.452,139.457,139.452l0,0h0.003  c77.018,0,139.456-62.433,139.456-139.452C296.681,364.116,296.668,363.815,296.668,363.515z"/>
<path style="fill:#F37521;" d="M41.244,364.418c0-0.302,0.011-0.602,0.013-0.903c0.005-0.953,0.016-1.908,0.039-2.857  c0.015-0.528,0.04-1.055,0.061-1.583c0.028-0.735,0.054-1.469,0.092-2.201c0.029-0.566,0.07-1.129,0.111-1.691  c0.042-0.691,0.089-1.379,0.144-2.066c0.047-0.575,0.1-1.15,0.154-1.722c0.062-0.675,0.128-1.35,0.199-2.023  c0.061-0.569,0.127-1.138,0.196-1.705c0.079-0.674,0.165-1.345,0.255-2.016c0.076-0.559,0.154-1.117,0.234-1.676  c0.103-0.682,0.209-1.359,0.32-2.037c0.087-0.539,0.172-1.078,0.267-1.616c0.122-0.705,0.255-1.406,0.387-2.106  c0.098-0.506,0.189-1.012,0.29-1.515c0.157-0.773,0.324-1.54,0.493-2.309c0.093-0.424,0.18-0.849,0.277-1.273  c0.262-1.141,0.537-2.276,0.826-3.407c0.013-0.047,0.023-0.095,0.036-0.143c0.302-1.181,0.624-2.352,0.958-3.52  c0.105-0.367,0.219-0.729,0.326-1.094c0.237-0.804,0.475-1.606,0.726-2.404c0.132-0.425,0.273-0.844,0.411-1.268  c0.239-0.735,0.481-1.468,0.731-2.197c0.151-0.438,0.304-0.874,0.462-1.311c0.251-0.711,0.509-1.418,0.771-2.125  c0.163-0.436,0.329-0.87,0.494-1.303c0.273-0.706,0.55-1.411,0.834-2.112c0.167-0.417,0.339-0.835,0.513-1.25  c0.3-0.725,0.609-1.445,0.922-2.164c0.166-0.381,0.332-0.763,0.499-1.143c0.346-0.775,0.7-1.544,1.06-2.311  c0.111-0.235,0.213-0.476,0.326-0.711l0.022-0.029c5.961-12.546,13.739-24.062,23-34.203l0.015-0.023  c0.32-0.349,0.648-0.69,0.971-1.036c0.415-0.445,0.828-0.892,1.248-1.333c0.387-0.404,0.782-0.801,1.175-1.201  c0.41-0.419,0.82-0.841,1.236-1.255c0.404-0.402,0.817-0.8,1.228-1.198c0.413-0.401,0.826-0.803,1.242-1.199  c0.419-0.396,0.844-0.788,1.268-1.178c0.417-0.388,0.838-0.778,1.263-1.159c0.429-0.389,0.866-0.771,1.301-1.156  c0.426-0.375,0.853-0.749,1.284-1.118c0.443-0.38,0.886-0.753,1.335-1.128c0.432-0.365,0.871-0.727,1.309-1.086  c0.454-0.369,0.908-0.736,1.363-1.099c0.444-0.352,0.888-0.702,1.336-1.05c0.462-0.358,0.926-0.714,1.393-1.066  c0.451-0.341,0.905-0.679,1.36-1.016c0.472-0.348,0.944-0.693,1.418-1.033c0.461-0.333,0.926-0.66,1.392-0.986  c0.477-0.334,0.956-0.667,1.437-0.996c0.472-0.322,0.946-0.636,1.42-0.95c0.485-0.324,0.972-0.648,1.463-0.963  c0.48-0.311,0.965-0.614,1.449-0.919c0.492-0.31,0.986-0.621,1.482-0.925c0.49-0.299,0.986-0.593,1.481-0.886  c0.498-0.298,0.995-0.595,1.497-0.885c0.507-0.293,1.019-0.575,1.529-0.862c0.496-0.28,0.992-0.562,1.495-0.835  c0.532-0.29,1.072-0.57,1.609-0.853c0.486-0.257,0.972-0.52,1.461-0.77c0.617-0.317,1.24-0.622,1.863-0.929  c0.7-0.345,1.401-0.687,2.106-1.02c0.744-0.353,1.491-0.705,2.244-1.048c0.472-0.212,0.948-0.414,1.423-0.621  c0.594-0.26,1.188-0.524,1.786-0.778c0.5-0.211,1.006-0.411,1.508-0.615c0.579-0.236,1.154-0.475,1.738-0.703  c0.518-0.203,1.039-0.394,1.558-0.593c0.575-0.217,1.152-0.437,1.73-0.648c0.528-0.192,1.058-0.374,1.587-0.56  c0.579-0.202,1.156-0.405,1.738-0.599c0.537-0.179,1.078-0.352,1.618-0.526c0.581-0.186,1.164-0.372,1.748-0.552  c0.542-0.167,1.09-0.327,1.638-0.486c0.586-0.171,1.175-0.342,1.765-0.508c0.548-0.154,1.099-0.299,1.648-0.446  c0.599-0.158,1.195-0.314,1.796-0.465c0.55-0.138,1.101-0.271,1.652-0.404c0.606-0.144,1.212-0.284,1.825-0.42  c0.55-0.124,1.105-0.245,1.661-0.362c0.613-0.129,1.233-0.254,1.85-0.377c0.555-0.108,1.111-0.217,1.668-0.319  c0.624-0.114,1.248-0.223,1.874-0.33c0.557-0.094,1.113-0.189,1.672-0.276c0.639-0.101,1.279-0.194,1.919-0.286  c0.554-0.078,1.104-0.158,1.658-0.232c0.656-0.085,1.312-0.161,1.97-0.238c0.544-0.064,1.088-0.13,1.635-0.187  c0.678-0.07,1.361-0.13,2.041-0.193c0.3-0.026,0.601-0.052,0.899-0.079c-0.23-0.022-0.459-0.043-0.691-0.062  c-0.721-0.056-1.444-0.1-2.168-0.146c-0.497-0.029-0.99-0.066-1.488-0.094c-0.807-0.041-1.62-0.068-2.43-0.098  c-0.42-0.014-0.834-0.037-1.256-0.048c-1.215-0.031-2.438-0.049-3.663-0.049c-0.013,0-0.027-0.001-0.04-0.001h-0.003l0,0  c-0.016,0-0.028,0.001-0.043,0.001c-1.225,0-2.445,0.017-3.663,0.049c-0.42,0.011-0.835,0.034-1.253,0.048  c-0.813,0.028-1.623,0.056-2.434,0.098c-0.497,0.027-0.99,0.065-1.488,0.094c-0.724,0.047-1.448,0.09-2.168,0.146  c-0.53,0.041-1.06,0.094-1.59,0.141c-0.68,0.063-1.364,0.121-2.041,0.193c-0.548,0.057-1.09,0.124-1.636,0.187  c-0.656,0.076-1.314,0.154-1.968,0.238c-0.557,0.073-1.106,0.154-1.659,0.232c-0.639,0.092-1.279,0.185-1.919,0.286  c-0.558,0.088-1.116,0.182-1.671,0.276c-0.626,0.107-1.25,0.216-1.874,0.33c-0.559,0.102-1.113,0.21-1.67,0.319  c-0.615,0.122-1.235,0.248-1.848,0.377c-0.556,0.117-1.111,0.238-1.661,0.362c-0.611,0.137-1.218,0.276-1.825,0.42  c-0.554,0.133-1.104,0.267-1.653,0.404c-0.601,0.151-1.196,0.307-1.795,0.465c-0.55,0.147-1.101,0.294-1.647,0.446  c-0.592,0.165-1.181,0.337-1.766,0.508c-0.547,0.16-1.095,0.32-1.638,0.486c-0.583,0.18-1.167,0.365-1.748,0.552  c-0.541,0.173-1.08,0.347-1.618,0.526c-0.58,0.194-1.158,0.398-1.738,0.599c-0.529,0.186-1.061,0.368-1.587,0.56  c-0.578,0.21-1.153,0.43-1.729,0.648c-0.52,0.198-1.042,0.39-1.559,0.593c-0.584,0.23-1.159,0.468-1.738,0.703  c-0.502,0.205-1.01,0.404-1.509,0.615c-0.598,0.252-1.192,0.518-1.785,0.778c-0.475,0.207-0.95,0.408-1.422,0.621  c-0.754,0.342-1.501,0.695-2.245,1.048c-0.704,0.334-1.405,0.675-2.105,1.02c-0.622,0.307-1.246,0.611-1.863,0.929  c-0.49,0.25-0.973,0.514-1.461,0.77c-0.537,0.283-1.077,0.563-1.61,0.853c-0.502,0.274-0.999,0.557-1.495,0.835  c-0.509,0.287-1.021,0.569-1.529,0.862c-0.502,0.291-0.999,0.588-1.499,0.885c-0.493,0.294-0.99,0.587-1.479,0.886  c-0.497,0.303-0.991,0.614-1.483,0.925c-0.483,0.303-0.968,0.608-1.45,0.919c-0.489,0.315-0.975,0.639-1.463,0.963  c-0.475,0.314-0.947,0.628-1.418,0.95c-0.482,0.328-0.961,0.662-1.437,0.996c-0.467,0.326-0.933,0.654-1.394,0.986  c-0.475,0.339-0.944,0.685-1.416,1.033c-0.456,0.337-0.91,0.674-1.361,1.016c-0.466,0.352-0.932,0.709-1.393,1.066  c-0.445,0.347-0.892,0.698-1.334,1.05c-0.457,0.363-0.91,0.729-1.363,1.099c-0.438,0.359-0.877,0.721-1.31,1.086  c-0.449,0.375-0.891,0.748-1.335,1.128c-0.429,0.369-0.858,0.744-1.284,1.118c-0.436,0.385-0.871,0.767-1.302,1.156  c-0.426,0.382-0.844,0.771-1.263,1.159c-0.423,0.39-0.848,0.782-1.266,1.178c-0.418,0.397-0.831,0.799-1.243,1.199  c-0.41,0.399-0.823,0.796-1.229,1.198c-0.415,0.414-0.826,0.835-1.236,1.255c-0.391,0.4-0.787,0.796-1.173,1.201  c-0.42,0.441-0.833,0.887-1.248,1.333c-0.323,0.346-0.653,0.687-0.971,1.036l-0.015,0.023  c-9.261,10.142-17.039,21.657-23.001,34.203l-0.021,0.029c-0.113,0.235-0.217,0.477-0.326,0.711  c-0.36,0.767-0.713,1.536-1.061,2.311c-0.168,0.38-0.335,0.762-0.5,1.143c-0.313,0.718-0.622,1.439-0.923,2.164  c-0.172,0.416-0.342,0.834-0.513,1.25c-0.282,0.701-0.56,1.405-0.832,2.112c-0.166,0.433-0.333,0.868-0.495,1.303  c-0.262,0.705-0.519,1.414-0.771,2.125c-0.156,0.437-0.311,0.873-0.462,1.311c-0.249,0.729-0.492,1.464-0.731,2.197  c-0.138,0.424-0.277,0.843-0.411,1.268c-0.251,0.797-0.489,1.6-0.726,2.404c-0.107,0.365-0.222,0.727-0.326,1.094  c-0.335,1.168-0.656,2.339-0.959,3.52c-0.013,0.048-0.023,0.096-0.035,0.143c-0.288,1.13-0.562,2.266-0.826,3.407  c-0.096,0.424-0.183,0.849-0.278,1.273c-0.167,0.769-0.337,1.536-0.491,2.309c-0.102,0.504-0.194,1.01-0.29,1.515  c-0.133,0.7-0.265,1.401-0.387,2.106c-0.095,0.537-0.182,1.077-0.269,1.616c-0.109,0.678-0.216,1.355-0.317,2.037  c-0.082,0.559-0.158,1.117-0.235,1.676c-0.089,0.672-0.176,1.342-0.254,2.016c-0.069,0.568-0.135,1.137-0.197,1.705  c-0.072,0.673-0.138,1.348-0.199,2.023c-0.053,0.572-0.107,1.146-0.153,1.722c-0.056,0.687-0.102,1.376-0.146,2.066  c-0.038,0.563-0.078,1.126-0.109,1.691c-0.038,0.731-0.064,1.467-0.092,2.201c-0.021,0.528-0.046,1.055-0.062,1.583  c-0.023,0.949-0.033,1.904-0.038,2.857c-0.002,0.3-0.013,0.6-0.013,0.903c0,77.019,62.436,139.452,139.457,139.452l0,0h0.003  c3.953,0,7.866-0.173,11.737-0.496C97.434,497.412,41.244,437.484,41.244,364.418z"/>
<path style="fill:#694B4B;" d="M160.291,263.63h-5.26c-30.747,0-55.761,25.015-55.761,55.763v17.144l4.874-1.648  c0.779-0.265,1.572-0.399,2.398-0.399c0.466,0,46.862-0.337,67.857-29.362c1.674-2.315,4.641-3.476,7.456-2.903  c2.833,0.581,5.078,2.777,5.731,5.655c0.226,0.931,5.737,22.842,23.111,26.793c0.193,0.043,0.381,0.106,0.567,0.163l4.79,1.5  v-16.944C216.053,288.645,191.038,263.63,160.291,263.63z"/>
<g>
	<path style="fill:#FBCB99;" d="M163.283,412.114h-11.041c-1.303,0-2.686-0.06-4.346-0.183l-3.389-0.254v12.373l13.014,12.675   l13.503-14.014v-11.039l-3.391,0.257C165.978,412.055,164.597,412.114,163.283,412.114z"/>
	<path style="fill:#FBCB99;" d="M226.964,339.47h-19.078v-6.894l-4.203,1.491c-1.119,0.393-2.32,0.463-3.491,0.199   c-9.717-2.211-17.617-8.416-23.479-18.437l-1.877-3.216l-2.864,2.384c-23.045,19.206-56.391,19.427-57.798,19.427l-0.272-0.002   c-0.691-0.004-1.384-0.126-2.063-0.366l-4.202-1.478v6.892h-19.79v22.838h20.42c3.541,21.075,21.904,37.191,43.973,37.191h11.041   c22.067,0,40.431-16.115,43.977-37.191h19.705V339.47H226.964z"/>
</g>
<path style="fill:#6598CB;" d="M239.184,464.82c-6.282-14.588-19.526-19.467-20.151-19.69c-0.095-0.03-0.146-0.052-0.251-0.096  l-37.33-14.969l-19.248,19.979c-1.155,1.199-2.775,1.905-4.541,1.931c-1.653,0-3.218-0.636-4.401-1.79l-20.277-19.751  l-37.348,14.625c-0.083,0.033-0.168,0.066-0.341,0.122c-0.555,0.2-13.705,5.081-19.98,19.655l-0.945,2.189l1.85,1.506  c22.836,18.582,51.611,28.819,81.02,28.819c29.42,0,58.199-10.239,81.041-28.836l1.846-1.505L239.184,464.82z"/>
<path style="fill:#563B3B;" d="M116.978,319.391c0-28.642,21.71-52.3,49.537-55.408c-2.042-0.226-4.12-0.355-6.224-0.355h-5.26  c-30.747,0-55.761,25.015-55.761,55.763v17.144l4.874-1.648c0.779-0.265,1.572-0.399,2.398-0.399c0.134,0,4.225-0.035,10.437-0.803  v-14.295H116.978z"/>
<g>
	<path style="fill:#EDBA89;" d="M167.376,412.114h3.646v-0.441l-3.391,0.257c-0.827,0.063-1.585,0.108-2.298,0.139   C166.049,412.098,166.724,412.114,167.376,412.114z"/>
	<path style="fill:#EDBA89;" d="M159.644,424.049v-11.935h-7.404c-1.303,0-2.686-0.06-4.346-0.183l-3.389-0.254v12.373   l13.014,12.675l7.327-7.607L159.644,424.049z"/>
	<path style="fill:#EDBA89;" d="M127.051,339.082c0.717,0.252,1.446,0.381,2.172,0.384l0.286,0.003   c1.331,0,29.689-0.199,53.025-14.82c-1.099-1.483-2.15-3.06-3.138-4.751l-1.977-3.384l-3.011,2.508   c-15.794,13.161-36.173,17.85-48.885,19.518L127.051,339.082z"/>
	<path style="fill:#EDBA89;" d="M122.777,354.895v-15.979c-4.941,0.53-8.186,0.554-8.601,0.554l-0.272-0.003   c-0.691-0.003-1.384-0.125-2.063-0.365l-4.202-1.479v17.272c0,24.594,20.009,44.604,44.603,44.604h11.041   c0.688,0,1.368-0.022,2.048-0.052C141.684,398.373,122.777,378.804,122.777,354.895z"/>
</g>
<path style="fill:#4982AA;" d="M91.357,468.529l-1.85-1.506l0.943-2.189c6.278-14.573,19.425-19.454,19.982-19.655  c0.173-0.057,0.258-0.09,0.341-0.122l26.551-10.396l-4.342-4.229l-37.348,14.625c-0.083,0.033-0.168,0.066-0.341,0.122  c-0.555,0.2-13.705,5.081-19.98,19.655l-0.945,2.189l1.85,1.506c22.836,18.582,51.611,28.819,81.02,28.819  c2.53,0,5.051-0.103,7.568-0.252C138.064,495.498,112.229,485.514,91.357,468.529z"/>
<path style="fill:#202121;" d="M502.351,104.559c-0.003-0.091-0.008-0.181-0.013-0.271c-0.024-0.347-0.061-0.691-0.128-1.03  c-0.001-0.003-0.001-0.008-0.001-0.011c-0.068-0.345-0.167-0.679-0.278-1.011c-0.028-0.085-0.059-0.168-0.09-0.252  c-0.117-0.311-0.247-0.617-0.401-0.912c-0.01-0.018-0.017-0.038-0.027-0.057c-0.165-0.309-0.357-0.604-0.56-0.891  c-0.053-0.074-0.106-0.146-0.161-0.219c-0.218-0.285-0.447-0.562-0.704-0.818L403.278,2.379c-0.257-0.256-0.533-0.486-0.818-0.703  c-0.074-0.056-0.146-0.111-0.221-0.164c-0.285-0.203-0.579-0.393-0.885-0.557c-0.026-0.014-0.053-0.024-0.079-0.038  c-0.285-0.148-0.581-0.275-0.881-0.388c-0.092-0.035-0.184-0.068-0.278-0.1c-0.315-0.106-0.636-0.199-0.963-0.265  c-0.035-0.007-0.07-0.012-0.105-0.018c-0.312-0.06-0.628-0.095-0.948-0.118c-0.105-0.008-0.21-0.012-0.316-0.015  C397.698,0.01,397.615,0,397.531,0H195.835c-2.158,0-4.228,0.859-5.753,2.387c-1.526,1.528-2.378,3.599-2.373,5.758l0.096,42.139  h-64.407c-2.158,0-4.228,0.859-5.753,2.387c-1.525,1.528-2.378,3.599-2.373,5.757l0.374,164.351l-0.563,0.166  c-0.369,0.108-0.739,0.217-1.13,0.337c-0.523,0.16-1.042,0.328-1.56,0.494l-0.842,0.271c-0.376,0.119-0.751,0.239-1.125,0.364  c-0.495,0.165-0.984,0.338-1.474,0.509l-0.675,0.236c-0.461,0.158-0.921,0.317-1.354,0.476c-0.49,0.177-0.976,0.362-1.463,0.547  l-1.012,0.384c-0.33,0.122-0.661,0.247-1.014,0.384c-0.808,0.319-1.612,0.65-2.403,0.975c-0.764,0.314-1.516,0.636-2.291,0.969  l-0.228,0.099c-0.606,0.261-1.209,0.522-1.768,0.776c-0.452,0.203-0.898,0.412-1.345,0.621l-0.647,0.3  c-0.458,0.211-0.918,0.424-1.384,0.649c-0.412,0.199-0.822,0.403-1.233,0.608l-0.86,0.427c-0.39,0.194-0.78,0.386-1.182,0.592  c-0.508,0.26-1.014,0.528-1.516,0.795l-0.322,0.169c-0.468,0.247-0.935,0.493-1.401,0.745c-0.498,0.271-0.991,0.548-1.485,0.826  l-0.115,0.065c-0.53,0.295-1.061,0.592-1.606,0.905c-0.537,0.31-1.072,0.628-1.592,0.938c-0.526,0.31-1.053,0.621-1.527,0.913  c-0.536,0.325-1.067,0.657-1.585,0.983c-0.517,0.324-1.035,0.648-1.533,0.971c-0.521,0.336-1.039,0.676-1.545,1.011  c-0.499,0.33-0.994,0.662-1.496,1.002c-0.515,0.349-1.023,0.701-1.501,1.034c-0.498,0.345-0.994,0.697-1.518,1.071  c-0.494,0.356-0.987,0.713-1.491,1.084c-0.481,0.355-0.962,0.712-1.435,1.069c-0.486,0.367-0.966,0.734-1.456,1.111  c-0.482,0.372-0.963,0.751-1.419,1.115c-0.49,0.387-0.974,0.773-1.422,1.138c-0.488,0.393-0.973,0.797-1.425,1.179l-0.303,0.252  c-0.366,0.304-0.732,0.61-1.094,0.92c-0.473,0.404-0.939,0.815-1.379,1.203l-0.319,0.278c-0.346,0.303-0.692,0.607-1.041,0.92  c-0.39,0.35-0.777,0.706-1.162,1.063l-0.511,0.47c-0.343,0.316-0.688,0.632-1.002,0.931c-0.424,0.398-0.839,0.803-1.255,1.208  l-0.356,0.342c-0.291,0.278-0.582,0.558-0.869,0.841c-0.062,0.062-0.122,0.124-0.184,0.189  c-10.274,10.195-18.973,21.809-25.857,34.523c-0.044,0.077-0.089,0.156-0.131,0.234c-0.096,0.178-0.19,0.358-0.281,0.536  L26.85,295.2c-0.421,0.792-0.84,1.59-1.247,2.39l-0.604,1.205c-0.363,0.737-0.726,1.476-1.068,2.196  c-0.208,0.434-0.412,0.87-0.624,1.326c-0.333,0.722-0.662,1.446-1.029,2.273c-0.19,0.427-0.379,0.853-0.542,1.235  c-0.32,0.735-0.63,1.475-0.925,2.191c-0.194,0.464-0.384,0.926-0.57,1.391c-0.307,0.762-0.604,1.529-0.879,2.25  c-0.178,0.459-0.353,0.916-0.511,1.342c-0.309,0.83-0.605,1.668-0.897,2.5l-0.408,1.154c-0.417,1.221-0.82,2.447-1.188,3.63  l-0.037,0.12c-0.009,0.024-0.016,0.05-0.023,0.074c-0.366,1.177-0.715,2.358-1.053,3.544c-0.087,0.304-0.169,0.612-0.252,0.921  l-0.113,0.422c-0.001,0.003-0.028,0.106-0.029,0.109c-0.208,0.764-0.415,1.527-0.611,2.291c-0.095,0.37-0.185,0.739-0.275,1.108  l-0.163,0.672c-0.163,0.677-0.326,1.354-0.477,2.025c-0.128,0.565-0.25,1.132-0.365,1.672c-0.156,0.714-0.304,1.43-0.454,2.174  c-0.113,0.574-0.224,1.152-0.34,1.773c-0.128,0.696-0.254,1.393-0.372,2.081c-0.102,0.589-0.199,1.18-0.302,1.817  c-0.111,0.699-0.213,1.401-0.32,2.133l-0.075,0.524c-0.061,0.416-0.119,0.834-0.179,1.274c-0.093,0.722-0.178,1.448-0.26,2.159  l-0.059,0.49c-0.053,0.433-0.105,0.868-0.153,1.331c-0.061,0.604-0.115,1.21-0.17,1.817l-0.094,1.039  c-0.034,0.369-0.068,0.739-0.095,1.091c-0.07,0.906-0.125,1.817-0.18,2.729l-0.04,0.646c-0.014,0.194-0.027,0.388-0.038,0.599  c-4.134,81.27,58.62,150.752,139.89,154.887c2.545,0.129,5.064,0.194,7.585,0.194c6.503,0,12.917-0.438,19.216-1.267h245.282  c4.489,0,8.126-3.637,8.126-8.126v-42.161c0.011,0,0.021,0.001,0.031,0.001h64.278c4.489,0,8.126-3.637,8.126-8.126V104.834  C502.365,104.742,502.354,104.651,502.351,104.559z M474.619,96.708h-68.963V27.744L474.619,96.708z M175.458,494.481h-22.761  c-1.397,0-2.711,0.353-3.858,0.973c-27.528-1.755-52.608-11.922-72.826-27.884c0.231-0.379,0.438-0.779,0.609-1.205  c5.847-14.579,18.825-19.306,19.318-19.482c0.125-0.041,0.249-0.087,0.373-0.135l36.242-14.193l19.439,18.933  c1.519,1.478,3.554,2.305,5.67,2.305c0.043,0,0.086,0,0.129-0.001c2.163-0.035,4.222-0.93,5.723-2.488l18.396-19.096l36.193,14.514  c0.143,0.059,0.232,0.092,0.379,0.142c0.591,0.208,14.267,5.205,19.848,20.757C220.442,481.701,198.87,491.206,175.458,494.481z   M113.858,340.771c10.034-0.531,40.051-3.831,61.278-24.343c4.479,9.149,12.413,19.947,25.685,23.817v14.65  c0,23.59-17.24,42.784-38.431,42.784h-10.101c-21.191,0-38.431-19.193-38.431-42.784L113.858,340.771L113.858,340.771z   M110.588,324.622c-0.011,0-0.022,0-0.031,0c-0.749,0-1.47,0.109-2.159,0.299c-0.555-0.193-1.133-0.33-1.736-0.399v-3.672  c0-29.504,21.641-53.508,48.239-53.508h4.695c26.6,0,48.241,24.003,48.241,53.508v3.7c-0.536,0.074-1.056,0.198-1.554,0.372  c-0.066-0.018-0.129-0.042-0.196-0.06c-15.24-3.791-20.126-25.902-20.17-26.102c-0.665-3.214-3.199-5.711-6.422-6.332  c-3.225-0.618-6.502,0.758-8.313,3.496C152.395,324.321,111.102,324.622,110.588,324.622z M169.202,413.457v8.286  c0,0.012,0,0.023,0,0.035v0.198l-11.723,12.169l-11.154-10.864v-9.707c1.96,0.231,3.948,0.358,5.964,0.358h10.101  C164.699,413.931,166.969,413.758,169.202,413.457z M413.675,494.481H226.848c44.029-23.669,75.035-69.111,77.756-122.579  l0.037-0.949c0.043-0.997,0.082-1.996,0.111-3.045c0.01-0.457,0.013-0.914,0.017-1.372l0.005-0.53  c0.011-0.691,0.021-1.383,0.018-2.049c0-0.471-0.008-0.942-0.016-1.412l-0.007-0.393c-0.01-0.74-0.021-1.476-0.042-2.197  c-0.012-0.376-0.027-0.751-0.04-1.126l-0.028-0.736c-0.031-0.704-0.065-1.41-0.103-2.09c-0.033-0.609-0.073-1.217-0.113-1.835  c-0.049-0.709-0.105-1.416-0.166-2.172l-0.021-0.247c-0.043-0.507-0.087-1.015-0.135-1.513c-0.069-0.722-0.144-1.438-0.224-2.176  l-0.036-0.323c-0.051-0.468-0.103-0.935-0.16-1.391c-0.091-0.753-0.194-1.503-0.299-2.273l-0.07-0.518  c-0.05-0.363-0.1-0.725-0.15-1.054c-0.107-0.729-0.226-1.452-0.347-2.177l-0.276-1.671c-0.215-1.222-0.445-2.437-0.69-3.645  c-0.002-0.012-0.005-0.023-0.008-0.035c-0.008-0.039-0.018-0.091-0.022-0.113c-0.256-1.266-0.533-2.521-0.828-3.801l-0.316-1.3  c-0.196-0.812-0.391-1.621-0.604-2.44c-0.085-0.327-0.173-0.652-0.262-0.976l-0.106-0.387c-0.213-0.792-0.429-1.583-0.648-2.334  c-0.128-0.453-0.262-0.901-0.425-1.439c-0.228-0.764-0.46-1.526-0.698-2.274l-0.458-1.428c-0.248-0.756-0.504-1.513-0.755-2.241  c-0.16-0.467-0.324-0.932-0.478-1.36c-0.278-0.784-0.565-1.564-0.868-2.371l-0.465-1.225c-0.323-0.831-0.653-1.655-0.971-2.437  l-0.33-0.823c-0.03-0.073-0.063-0.147-0.096-0.222c-2.245-5.395-4.84-10.714-7.712-15.81c-2.204-3.91-7.161-5.29-11.07-3.088  c-3.909,2.205-5.292,7.161-3.088,11.07c2.589,4.589,4.92,9.379,6.933,14.238c0.023,0.054,0.046,0.108,0.069,0.163l0.215,0.539  c0.302,0.745,0.604,1.492,0.874,2.192l0.429,1.131c0.258,0.69,0.514,1.38,0.773,2.111c0.138,0.384,0.274,0.769,0.414,1.178  c0.234,0.676,0.464,1.357,0.659,1.949l0.426,1.328c0.212,0.672,0.418,1.345,0.624,2.037l0.031,0.105  c0.113,0.376,0.225,0.749,0.342,1.16c0.2,0.692,0.388,1.387,0.579,2.092l0.324,1.195c0.187,0.724,0.363,1.453,0.539,2.182  l0.282,1.155c0.256,1.114,0.504,2.233,0.725,3.321c0.009,0.042,0.021,0.111,0.035,0.177c0.217,1.075,0.423,2.156,0.61,3.226  l0.254,1.541c0.104,0.62,0.207,1.238,0.302,1.893c0.043,0.288,0.082,0.576,0.122,0.866l0.077,0.564  c0.092,0.664,0.182,1.329,0.265,2.009c0.049,0.397,0.092,0.795,0.137,1.195l0.035,0.315c0.07,0.648,0.139,1.294,0.202,1.952  c0.043,0.451,0.082,0.904,0.121,1.357l0.018,0.204c0.051,0.637,0.103,1.276,0.145,1.906c0.036,0.54,0.072,1.08,0.102,1.644  c0.037,0.646,0.066,1.29,0.092,1.851l0.063,1.696c0.02,0.643,0.027,1.286,0.037,1.943l0.008,0.434  c0.007,0.379,0.013,0.758,0.013,1.16c0.002,0.594-0.008,1.191-0.016,1.786l-0.008,0.652c-0.003,0.388-0.005,0.776-0.012,1.108  c-0.025,0.904-0.062,1.814-0.096,2.644c-0.012,0.212-0.02,0.425-0.025,0.637l-0.011,0.281  c-1.691,33.241-15.673,62.995-37.305,85.096c-8.83-17.409-24.617-23.719-27.06-24.605l-38.551-15.46v-7.717  c12.02-6.063,21.669-16.706,27.016-29.841c0.748,0.228,1.541,0.352,2.363,0.352c13.469,0,24.426-11.504,24.426-25.645  c0-10.703-6.279-19.89-15.171-23.728v-8.694c0-38.466-28.932-69.761-64.494-69.761h-4.695c-35.561,0-64.492,31.295-64.492,69.761  v8.721c-8.858,3.853-15.105,13.024-15.105,23.701c0,14.141,10.955,25.645,24.422,25.645c0.861,0,1.69-0.137,2.469-0.385  c5.47,13.458,15.455,24.3,27.879,30.289v7.253l-39.571,15.495c-2.312,0.836-18.23,7.131-27.104,24.649  c-24.736-25.298-39.274-60.425-37.34-98.457l0.02-0.281c0.016-0.216,0.03-0.43,0.036-0.562l0.017-0.274  c0.049-0.813,0.096-1.623,0.16-2.447c0.022-0.282,0.048-0.562,0.074-0.842l0.098-1.075c0.05-0.555,0.1-1.109,0.153-1.636  c0.036-0.343,0.077-0.687,0.118-1.029l0.067-0.557c0.075-0.649,0.15-1.296,0.231-1.918c0.049-0.363,0.101-0.725,0.153-1.087  l0.076-0.532c0.092-0.64,0.187-1.28,0.28-1.871c0.088-0.541,0.177-1.078,0.272-1.63c0.109-0.637,0.224-1.272,0.333-1.864  c0.101-0.533,0.204-1.064,0.302-1.572c0.127-0.632,0.257-1.259,0.4-1.916c0.107-0.501,0.213-1.002,0.33-1.513  c0.137-0.604,0.281-1.201,0.426-1.799l0.159-0.661c0.072-0.297,0.144-0.594,0.221-0.894c0.177-0.691,0.364-1.377,0.574-2.153  l0.137-0.506c0.06-0.223,0.118-0.446,0.183-0.672c0.298-1.047,0.606-2.085,0.925-3.119c0.023-0.072,0.043-0.14,0.06-0.192  c0.339-1.093,0.697-2.177,1.051-3.217l0.369-1.041c0.261-0.743,0.523-1.486,0.809-2.256c0.138-0.373,0.282-0.742,0.443-1.159  c0.257-0.676,0.517-1.35,0.788-2.023c0.157-0.392,0.319-0.784,0.493-1.202c0.271-0.652,0.541-1.301,0.842-1.994  c0.155-0.362,0.315-0.723,0.517-1.177c0.293-0.656,0.588-1.309,0.881-1.938c0.177-0.381,0.354-0.761,0.546-1.162  c0.32-0.672,0.649-1.341,0.958-1.968l0.534-1.067c0.361-0.71,0.731-1.416,1.1-2.105l0.276-0.531  c0.031-0.055,0.062-0.111,0.092-0.166c6.176-11.454,14.007-21.908,23.271-31.07c0.057-0.057,0.114-0.115,0.17-0.174  c0.169-0.165,0.34-0.328,0.511-0.491l0.466-0.449c0.353-0.343,0.705-0.688,1.089-1.049c0.268-0.254,0.54-0.504,0.813-0.753  l0.566-0.52c0.327-0.302,0.653-0.606,0.975-0.894c0.294-0.263,0.593-0.524,0.892-0.787l0.359-0.314  c0.397-0.351,0.795-0.702,1.198-1.048c0.309-0.264,0.621-0.523,0.933-0.784l0.345-0.288c0.393-0.33,0.79-0.661,1.228-1.015  c0.418-0.341,0.839-0.676,1.283-1.027c0.41-0.326,0.822-0.653,1.23-0.968c0.444-0.341,0.885-0.678,1.335-1.017  c0.426-0.322,0.857-0.643,1.277-0.952c0.451-0.332,0.899-0.656,1.321-0.96c0.429-0.304,0.856-0.61,1.322-0.931  c0.451-0.315,0.903-0.627,1.349-0.931c0.443-0.3,0.886-0.597,1.346-0.9c0.457-0.303,0.917-0.605,1.388-0.909  c0.443-0.286,0.891-0.567,1.351-0.855c0.456-0.286,0.913-0.573,1.422-0.881c0.433-0.267,0.875-0.526,1.375-0.821  c0.468-0.28,0.936-0.558,1.389-0.82c0.467-0.268,0.934-0.528,1.427-0.803l0.141-0.079c0.427-0.241,0.854-0.479,1.284-0.713  c0.402-0.218,0.808-0.431,1.215-0.647l0.376-0.198c0.431-0.23,0.865-0.459,1.288-0.677c0.33-0.168,0.66-0.332,0.991-0.495  l0.891-0.442c0.355-0.177,0.712-0.354,1.058-0.521c0.376-0.18,0.753-0.354,1.131-0.528l0.745-0.347  c0.352-0.166,0.704-0.333,1.102-0.509c0.51-0.232,1.025-0.453,1.541-0.675l0.217-0.094c0.68-0.293,1.354-0.582,2.05-0.867  c0.722-0.298,1.445-0.596,2.15-0.874c0.255-0.1,0.514-0.196,0.77-0.293l1.107-0.418c0.399-0.153,0.8-0.306,1.228-0.46  c0.364-0.132,0.73-0.258,1.098-0.385l0.778-0.271c0.404-0.142,0.807-0.285,1.218-0.421c0.307-0.103,0.615-0.202,0.924-0.299  l0.882-0.283c0.453-0.146,0.905-0.293,1.337-0.426l1.845-0.545c0.012-0.003,0.024-0.007,0.036-0.011  c0.983,0.421,2.064,0.657,3.201,0.657c0.007,0,0.012,0,0.018,0c2.555-0.007,4.829-1.192,6.315-3.038  c0.503-0.106,1.004-0.211,1.489-0.306l0.199-0.039c0.467-0.09,0.932-0.18,1.405-0.267c0.57-0.106,1.139-0.208,1.759-0.312  c0.517-0.09,1.039-0.176,1.567-0.26c0.584-0.093,1.177-0.18,1.821-0.274c0.493-0.069,0.984-0.141,1.505-0.207  c0.599-0.078,1.196-0.153,1.776-0.221l0.148-0.017c0.477-0.056,0.954-0.113,1.461-0.165c0.601-0.065,1.202-0.12,1.82-0.177  c0.519-0.049,1.038-0.096,1.549-0.138c0.62-0.049,1.243-0.089,1.889-0.131l0.172-0.012c0.453-0.03,0.907-0.062,1.362-0.086  c0.438-0.024,0.875-0.041,1.313-0.059l1.164-0.047c0.317-0.013,0.634-0.026,0.952-0.035c0.58-0.016,1.163-0.023,1.743-0.028  l1.694-0.023c0.661,0,1.326,0.01,1.989,0.021l0.869,0.012c0.203,0.001,0.403,0.003,0.634,0.01c1.143,0.027,2.294,0.07,3.448,0.129  c0.028,0.002,0.057,0.002,0.083,0.004c1.156,0.06,2.305,0.133,3.456,0.221c0.211,0.016,0.423,0.036,0.633,0.056l0.922,0.082  c0.637,0.055,1.272,0.111,1.872,0.171l1.944,0.222c0.504,0.059,1.009,0.115,1.506,0.18c0.309,0.041,0.618,0.086,0.926,0.13  l0.954,0.135c0.509,0.072,1.017,0.143,1.513,0.221c0.394,0.063,0.79,0.129,1.184,0.196l0.554,0.093  c0.542,0.092,1.084,0.183,1.648,0.288c0.404,0.074,0.807,0.153,1.209,0.231l0.327,0.063c0.599,0.118,1.197,0.236,1.789,0.361  c0.522,0.111,1.049,0.226,1.562,0.34c0.589,0.132,1.177,0.265,1.751,0.401c0.504,0.119,1.004,0.244,1.558,0.38  c0.579,0.145,1.151,0.293,1.714,0.441c0.519,0.138,1.039,0.28,1.552,0.421c0.567,0.158,1.128,0.317,1.684,0.479  c0.518,0.153,1.033,0.303,1.534,0.458c0.557,0.17,1.114,0.347,1.665,0.523c0.52,0.167,1.041,0.335,1.512,0.49  c0.559,0.19,1.114,0.382,1.676,0.576c0.499,0.174,1.002,0.349,1.508,0.533c0.504,0.182,1.004,0.372,1.503,0.559l0.509,0.194  c0.367,0.14,0.735,0.278,1.112,0.427c0.376,0.146,0.75,0.298,1.124,0.451l0.987,0.402c0.315,0.129,0.631,0.257,0.948,0.391  c0.444,0.187,0.885,0.381,1.327,0.573l0.718,0.314c0.325,0.142,0.648,0.282,0.983,0.433c0.421,0.191,0.838,0.386,1.254,0.581  l0.886,0.415c0.278,0.13,0.558,0.259,0.852,0.402c0.418,0.202,0.832,0.411,1.247,0.618l0.91,0.454  c0.263,0.13,0.527,0.26,0.786,0.392c0.689,0.354,1.371,0.721,2.07,1.099c0.649,0.347,1.293,0.703,1.924,1.056l0.31,0.172  c0.462,0.257,0.924,0.516,1.4,0.791c0.339,0.196,0.674,0.398,1.01,0.6l0.768,0.458c0.347,0.205,0.695,0.41,1.026,0.612  c0.351,0.215,0.697,0.433,1.042,0.653l0.77,0.485c0.317,0.2,0.635,0.399,0.948,0.602c0.452,0.293,0.897,0.592,1.372,0.909  l0.192,0.127c0.384,0.254,0.766,0.509,1.17,0.786c0.391,0.265,0.778,0.539,1.162,0.808l0.477,0.336  c0.335,0.235,0.669,0.469,1.03,0.731c0.387,0.278,0.77,0.562,1.155,0.846l0.286,0.212c0.387,0.286,0.774,0.57,1.146,0.854  c0.442,0.338,0.883,0.678,1.32,1.018c0.418,0.325,0.836,0.652,1.274,1.001c0.423,0.337,0.842,0.679,1.272,1.033  c0.411,0.337,0.821,0.674,1.242,1.027c0.423,0.353,0.839,0.71,1.271,1.081c0.392,0.337,0.781,0.676,1.185,1.035  c0.415,0.365,0.828,0.732,1.223,1.09c0.397,0.36,0.79,0.722,1.176,1.079l0.118,0.111c0.362,0.338,0.724,0.673,1.099,1.031  c0.382,0.362,0.76,0.728,1.132,1.092l0.368,0.361c0.271,0.263,0.542,0.527,0.831,0.817c0.378,0.376,0.75,0.757,1.123,1.14  c0.38,0.388,0.761,0.779,1.137,1.172c0.296,0.31,0.586,0.623,0.878,0.937l0.231,0.248c3.056,3.285,8.198,3.475,11.485,0.417  c3.286-3.056,3.474-8.197,0.417-11.485l-0.221-0.238c-0.341-0.368-0.684-0.736-1.03-1.1c-0.42-0.44-0.843-0.875-1.268-1.309  c-0.428-0.438-0.855-0.875-1.264-1.284c-0.32-0.32-0.644-0.636-0.969-0.952l-0.343-0.337c-0.434-0.426-0.874-0.851-1.299-1.254  c-0.406-0.388-0.818-0.771-1.232-1.156l-0.124-0.115c-0.438-0.406-0.881-0.813-1.338-1.229c-0.457-0.412-0.917-0.821-1.359-1.211  c-0.459-0.407-0.922-0.813-1.375-1.199c-0.47-0.403-0.939-0.806-1.401-1.192c-0.459-0.387-0.925-0.771-1.379-1.143  c-0.484-0.399-0.971-0.794-1.437-1.166c-0.475-0.38-0.957-0.755-1.436-1.129c-0.479-0.373-0.962-0.747-1.457-1.125  c-0.442-0.336-0.886-0.664-1.333-0.994l-0.264-0.197c-0.455-0.337-0.909-0.673-1.336-0.98c-0.394-0.285-0.792-0.564-1.191-0.844  l-0.464-0.325c-0.455-0.321-0.913-0.643-1.351-0.939c-0.444-0.304-0.893-0.604-1.342-0.901l-0.159-0.106  c-0.517-0.347-1.034-0.693-1.558-1.033c-0.377-0.245-0.756-0.482-1.136-0.722l-0.724-0.456c-0.414-0.261-0.827-0.522-1.258-0.788  c-0.406-0.248-0.817-0.491-1.228-0.735l-0.666-0.397c-0.417-0.25-0.836-0.503-1.238-0.736c-0.541-0.313-1.088-0.619-1.633-0.924  l-0.311-0.173c-0.722-0.401-1.442-0.8-2.148-1.177c-0.77-0.416-1.545-0.831-2.332-1.236c-0.336-0.172-0.674-0.34-1.014-0.508  l-0.815-0.406c-0.495-0.248-0.991-0.498-1.471-0.73c-0.356-0.172-0.715-0.339-1.074-0.506l-0.834-0.39  c-0.486-0.229-0.973-0.456-1.453-0.673c-0.4-0.182-0.802-0.356-1.205-0.532l-0.675-0.294c-0.515-0.226-1.029-0.452-1.546-0.67  c-0.372-0.156-0.743-0.308-1.116-0.46l-1.005-0.41c-0.447-0.182-0.895-0.363-1.332-0.533c-0.416-0.163-0.835-0.323-1.255-0.481  l-0.549-0.209c-0.564-0.211-1.129-0.425-1.687-0.626c-0.565-0.205-1.137-0.405-1.718-0.608c-0.6-0.209-1.199-0.417-1.852-0.637  c-0.562-0.186-1.128-0.368-1.696-0.552c-0.618-0.199-1.242-0.394-1.872-0.589c-0.573-0.174-1.149-0.345-1.734-0.517  c-0.632-0.185-1.266-0.366-1.912-0.545c-0.573-0.158-1.149-0.315-1.729-0.47c-0.645-0.17-1.289-0.337-2.026-0.519  c-0.549-0.137-1.103-0.273-1.668-0.407c-0.646-0.153-1.294-0.299-1.956-0.447c-0.58-0.129-1.158-0.256-1.742-0.38  c-0.667-0.141-1.336-0.273-2.035-0.411l-0.343-0.067c-0.46-0.089-0.921-0.178-1.355-0.257c-0.627-0.117-1.261-0.224-1.894-0.332  l-0.546-0.092c-0.451-0.076-0.903-0.153-1.366-0.225c-0.588-0.093-1.178-0.177-1.769-0.259l-0.907-0.129  c-0.381-0.055-0.76-0.109-1.146-0.159c-0.583-0.075-1.167-0.143-1.751-0.21l-2.106-0.241c-0.716-0.073-1.435-0.137-2.154-0.199  l-0.817-0.073c-0.303-0.028-0.609-0.056-0.908-0.079c-1.238-0.094-2.479-0.174-3.727-0.239c-0.04-0.003-0.079-0.007-0.118-0.009  c-0.068-0.004-0.146-0.008-0.223-0.01c-1.258-0.063-2.512-0.109-3.733-0.139c-0.301-0.009-0.601-0.012-0.899-0.015l-0.787-0.011  c-1.059-0.016-2.145-0.028-3.246-0.01l-0.859,0.012c-0.67,0.008-1.342,0.015-2.013,0.034c-0.389,0.011-0.779,0.026-1.168,0.042  l-1.129,0.046c-0.521,0.021-1.04,0.041-1.559,0.068c-0.528,0.028-1.056,0.065-1.583,0.101l-0.144,0.01  c-0.696,0.044-1.397,0.091-2.102,0.146c-0.594,0.048-1.188,0.102-1.764,0.156c-0.687,0.064-1.368,0.128-2.022,0.198  c-0.55,0.057-1.101,0.12-1.648,0.185l-0.165,0.02c-0.66,0.079-1.321,0.159-1.956,0.244c-0.578,0.074-1.15,0.156-1.827,0.252  c-0.657,0.096-1.318,0.193-1.962,0.296c-0.6,0.094-1.198,0.195-1.748,0.29c-0.119,0.02-0.235,0.042-0.353,0.063l-0.347-152.465  h185.426v88.582c0,4.489,3.637,8.126,8.126,8.126h88.582v331.236H413.675z M216.612,362.432c0.294-2.47,0.462-4.982,0.462-7.537  v-8.648c0.843-0.116,1.644-0.36,2.384-0.713c2.142,1.695,3.551,4.529,3.551,7.737C223.008,357.747,220.266,361.496,216.612,362.432z   M98.072,362.469c-3.714-0.882-6.515-4.671-6.515-9.198c0-3.195,1.399-6.02,3.526-7.718c0.782,0.368,1.63,0.62,2.525,0.722v8.62  C97.606,357.463,97.776,359.986,98.072,362.469z M333.22,146.992V78.029l68.963,68.962H333.22z M429.959,444.196  c-0.011,0-0.021,0.001-0.031,0.001V155.118c0-0.092-0.011-0.183-0.014-0.274c-0.003-0.091-0.008-0.182-0.013-0.273  c-0.024-0.346-0.061-0.689-0.128-1.026c-0.001-0.004-0.001-0.01-0.002-0.014c-0.068-0.343-0.167-0.679-0.278-1.01  c-0.028-0.086-0.058-0.169-0.091-0.252c-0.117-0.311-0.247-0.617-0.401-0.911c-0.01-0.018-0.017-0.039-0.027-0.057  c-0.165-0.309-0.357-0.604-0.56-0.891c-0.053-0.074-0.106-0.146-0.161-0.219c-0.218-0.285-0.447-0.562-0.704-0.818l-96.708-96.708  c-0.257-0.257-0.534-0.486-0.82-0.705c-0.072-0.055-0.143-0.108-0.217-0.16c-0.287-0.205-0.582-0.397-0.892-0.561  c-0.02-0.011-0.04-0.017-0.06-0.028c-0.293-0.153-0.596-0.283-0.905-0.399c-0.088-0.033-0.174-0.065-0.263-0.094  c-0.327-0.111-0.659-0.208-0.999-0.275c-0.015-0.003-0.031-0.004-0.047-0.007c-0.325-0.063-0.654-0.1-0.987-0.122  c-0.1-0.007-0.198-0.012-0.297-0.015c-0.088-0.003-0.173-0.013-0.261-0.013H204.058l-0.078-34.031h185.425v88.582  c0,4.489,3.637,8.126,8.126,8.126h88.582v331.235L429.959,444.196L429.959,444.196z"/>
<g>
</g>
<g>
</g>
<g>
</g>
<g>
</g>
<g>
</g>
<g>
</g>
<g>
</g>
<g>
</g>
<g>
</g>
<g>
</g>
<g>
</g>
<g>
</g>
<g>
</g>
<g>
</g>
<g>
</g>
</svg>
