<?xml version="1.0" encoding="iso-8859-1"?>
<!-- Generator: Adobe Illustrator 19.0.0, SVG Export Plug-In . SVG Version: 6.00 Build 0)  -->
<svg xmlns="http://www.w3.org/2000/svg" xmlns:xlink="http://www.w3.org/1999/xlink" version="1.1" id="Layer_1" x="0px" y="0px" viewBox="0 0 512.001 512.001" style="enable-background:new 0 0 512.001 512.001;" xml:space="preserve">
<g>
	<path style="fill:#75BF4D;" d="M447.83,114.863c27.955,0,50.697-22.743,50.697-50.696s-22.741-50.693-50.697-50.693   c-27.952,0-50.692,22.741-50.692,50.693C397.137,92.122,419.878,114.863,447.83,114.863z M429.501,59.348l12.716,12.209   l23.938-23.066c1.011-0.973,2.338-1.509,3.74-1.509c1.478,0,2.855,0.586,3.882,1.649c0.998,1.037,1.534,2.4,1.507,3.841   c-0.026,1.439-0.612,2.782-1.648,3.781l-27.672,26.664c-1.011,0.972-2.338,1.508-3.74,1.508c-1.399,0-2.724-0.534-3.733-1.503   l-16.455-15.8c-2.144-2.058-2.214-5.477-0.155-7.62c1.025-1.068,2.406-1.657,3.888-1.657   C427.166,57.846,428.492,58.378,429.501,59.348z"/>
	<path style="fill:#75BF4D;" d="M447.83,397.137c-27.952,0-50.692,22.741-50.692,50.693c0,27.954,22.741,50.696,50.692,50.696   c27.955,0,50.697-22.742,50.697-50.696C498.526,419.878,475.785,397.137,447.83,397.137z M421.882,443.165   c1.025-1.068,2.406-1.657,3.888-1.657c1.397,0,2.723,0.534,3.732,1.504l12.716,12.209l23.938-23.066   c1.01-0.972,2.338-1.509,3.739-1.509c1.479,0,2.856,0.585,3.883,1.648c0.998,1.037,1.534,2.4,1.507,3.841   c-0.026,1.439-0.612,2.782-1.648,3.781l-27.672,26.664c-1.011,0.972-2.338,1.508-3.74,1.508c-1.399,0-2.724-0.534-3.733-1.503   l-16.455-15.8C419.892,448.728,419.822,445.309,421.882,443.165z"/>
	<path style="fill:#75BF4D;" d="M64.166,397.137c-27.952,0-50.692,22.741-50.692,50.693c0,27.954,22.741,50.696,50.692,50.696   c27.955,0,50.697-22.742,50.697-50.696C114.864,419.878,92.121,397.137,64.166,397.137z M38.218,443.166   c1.026-1.069,2.407-1.658,3.888-1.658c1.397,0,2.722,0.534,3.732,1.504l12.716,12.209l23.938-23.066   c1.01-0.972,2.338-1.509,3.739-1.509c1.478,0,2.856,0.585,3.883,1.648c0.999,1.037,1.534,2.4,1.507,3.841   c-0.026,1.439-0.612,2.782-1.648,3.781L62.3,466.58c-1.01,0.972-2.338,1.508-3.74,1.508c-1.399,0-2.724-0.534-3.733-1.503   l-16.454-15.8C36.229,448.728,36.159,445.309,38.218,443.166z"/>
	<path style="fill:#75BF4D;" d="M64.166,13.474c-27.951,0-50.692,22.741-50.692,50.693c0,27.954,22.741,50.696,50.692,50.696   c27.955,0,50.697-22.743,50.697-50.696C114.864,36.216,92.121,13.474,64.166,13.474z M38.218,59.502   c1.025-1.068,2.406-1.657,3.888-1.657c1.399,0,2.723,0.532,3.732,1.502l12.716,12.209l23.938-23.066   c1.011-0.973,2.338-1.509,3.74-1.509c1.478,0,2.855,0.586,3.882,1.649c0.999,1.037,1.534,2.4,1.507,3.841   c-0.026,1.439-0.612,2.782-1.648,3.781L62.3,82.917c-1.01,0.972-2.338,1.508-3.74,1.508c-1.399,0-2.724-0.534-3.733-1.503   l-16.454-15.8C36.229,65.064,36.159,61.645,38.218,59.502z"/>
</g>
<g>
	<path style="fill:#56A846;" d="M26.408,64.707c0-24.273,18.114-44.381,41.53-47.55c-2.117-0.288-4.274-0.448-6.467-0.448   c-26.466,0-47.998,21.533-47.998,47.999c0,26.468,21.532,48.001,47.998,48.001c2.194,0,4.35-0.161,6.467-0.447   C44.522,109.09,26.408,88.98,26.408,64.707z"/>
	<path style="fill:#56A846;" d="M410.072,64.707c0-24.273,18.114-44.381,41.53-47.55c-2.117-0.288-4.274-0.448-6.467-0.448   c-26.467,0-47.998,21.533-47.998,47.999c0,26.468,21.532,48.001,47.998,48.001c2.194,0,4.35-0.161,6.467-0.447   C428.185,109.09,410.072,88.98,410.072,64.707z"/>
	<path style="fill:#56A846;" d="M26.408,447.831c0-24.273,18.114-44.381,41.53-47.55c-2.117-0.288-4.274-0.448-6.467-0.448   c-26.467,0-47.998,21.533-47.998,47.999c0,26.467,21.532,48.001,47.998,48.001c2.194,0,4.35-0.161,6.467-0.447   C44.522,492.215,26.408,472.103,26.408,447.831z"/>
	<path style="fill:#56A846;" d="M410.072,447.831c0-24.273,18.114-44.381,41.53-47.55c-2.117-0.288-4.274-0.448-6.467-0.448   c-26.467,0-47.998,21.533-47.998,47.999c0,26.468,21.532,48.001,47.998,48.001c2.194,0,4.35-0.161,6.467-0.447   C428.185,492.215,410.072,472.103,410.072,447.831z"/>
</g>
<path style="fill:#694B4B;" d="M257.665,126.268h-4.215c-24.91,0-45.177,20.268-45.177,45.18v6.836l0.052,4.291l4.014-1.963  c0.053-0.026,0.105-0.054,0.237-0.105l0.914-0.282c0.111-0.022,0.223-0.034,0.39-0.057l0.156-0.027  c0.181-0.018,0.366-0.027,0.581-0.027c0.376,0,37.799-0.272,54.765-23.729c1.222-1.69,3.391-2.542,5.448-2.121  c2.071,0.424,3.709,2.029,4.185,4.129c0.184,0.758,4.665,18.615,18.845,21.841l0.197,0.056c0.116,0.029,0.234,0.059,0.35,0.097  l0.189,0.07c0.095,0.036,0.19,0.069,0.281,0.11l3.967,1.802v-10.922C302.843,146.535,282.577,126.268,257.665,126.268z"/>
<g>
	<path style="fill:#FBCB99;" d="M259.673,259.489h-8.036c-1.91,0-3.883-0.139-5.862-0.415l-3.066-0.426v11.449l12.723,12.391   l12.409-12.874l0.755-0.798v-10.169l-3.066,0.426C263.554,259.35,261.582,259.489,259.673,259.489z"/>
	<path style="fill:#FBCB99;" d="M308.236,198.191l-0.857-0.137c-0.498-0.079-0.979-0.227-1.431-0.439l-3.838-1.799v22.111   l3.876-1.89c3.725-1.815,6.039-5.505,6.039-9.63c0-2.873-1.126-5.573-3.171-7.605L308.236,198.191z"/>
</g>
<path style="fill:#EDBA89;" d="M203.544,198.253l-0.969,0.119l-0.668,0.711c-1.876,1.999-2.908,4.6-2.908,7.323  c0,4.25,2.522,8.104,6.426,9.815l3.777,1.656v-22.119l-3.905,1.963C204.744,197.999,204.155,198.178,203.544,198.253z"/>
<path style="fill:#FBCB99;" d="M273.417,172.971l-1.61-2.872l-2.496,2.145c-15.387,13.226-35.994,17.067-46.908,18.181l-2.421,0.247  v26.381c0,17.454,14.202,31.656,31.658,31.656h8.036c17.455,0,31.657-14.201,31.657-31.656v-27.517l-1.586-0.716  C283.135,185.835,277.641,180.503,273.417,172.971z"/>
<path style="fill:#6598CB;" d="M313.249,289.147c-0.086-0.029-0.137-0.049-0.234-0.088l-35.299-14.156l-18.281,18.97  c-0.987,1.025-2.37,1.627-3.88,1.649c-1.413,0-2.749-0.543-3.76-1.528l-19.238-18.738l-35.299,13.823  c-0.078,0.031-0.157,0.06-0.279,0.101c-0.909,0.322-22.241,8.195-22.241,35.178v33.739H335.59v-33.739  C335.591,297.354,314.194,289.481,313.249,289.147z"/>
<path style="fill:#563B3B;" d="M221.209,178.283v-6.836c0-23.441,17.945-42.764,40.817-44.965c-1.436-0.138-2.889-0.215-4.36-0.215  h-4.215c-24.91,0-45.177,20.268-45.177,45.18v6.836l0.052,4.291l4.014-1.963c0.053-0.026,0.105-0.054,0.237-0.105l0.914-0.282  c0.111-0.022,0.223-0.034,0.39-0.057l0.156-0.027c0.181-0.018,0.366-0.027,0.581-0.027c0.096,0,2.626-0.02,6.607-0.439  L221.209,178.283z"/>
<g>
	<path style="fill:#EDBA89;" d="M264.572,259.489h4.025v-0.84l-3.066,0.426c-1.145,0.158-2.282,0.26-3.41,0.328   C262.945,259.45,263.766,259.489,264.572,259.489z"/>
	<path style="fill:#EDBA89;" d="M255.646,270.098v-10.61h-4.009c-1.91,0-3.883-0.139-5.862-0.415l-3.066-0.426v11.449l12.723,12.391   l6.261-6.498L255.646,270.098z"/>
	<path style="fill:#EDBA89;" d="M232.915,217.054v-26.381l2.421-0.247c9.483-0.968,26.281-4.004,40.618-13.458   c-0.884-1.262-1.741-2.577-2.536-3.997l-1.61-2.872l-2.496,2.145c-15.387,13.226-35.994,17.067-46.908,18.181l-2.421,0.247v26.381   c0,17.454,14.202,31.656,31.658,31.656h8.036c0.826,0,1.639-0.042,2.449-0.105C245.808,247.35,232.915,233.684,232.915,217.054z"/>
</g>
<path style="fill:#4982AA;" d="M209.915,289.179c0.121-0.041,0.2-0.07,0.279-0.101l26.073-10.211l-3.709-3.613l-35.299,13.823  c-0.078,0.031-0.157,0.06-0.279,0.101c-0.909,0.322-22.241,8.195-22.241,35.178v26.194h12.935v-26.194  C187.673,297.374,209.006,289.501,209.915,289.179z"/>
<g>
	<path style="fill:#202121;" d="M447.83,383.664c-14.782,0-28.403,5.038-39.263,13.469l-36.13-36.13   c-3.158-3.156-8.276-3.156-11.433,0c-3.157,3.158-3.157,8.276,0,11.433l36.13,36.13c-8.431,10.861-13.469,24.482-13.469,39.264   c0,35.383,28.785,64.169,64.166,64.169c35.384,0,64.17-28.786,64.17-64.169C512,412.449,483.214,383.664,447.83,383.664z    M447.83,495.832c-26.467,0-47.998-21.534-47.998-48.001c0-26.467,21.532-47.999,47.998-47.999   c26.469,0,48.002,21.533,48.002,47.999C495.832,474.298,474.297,495.832,447.83,495.832z"/>
	<path style="fill:#202121;" d="M464.285,430.213l-22.072,21.268l-10.847-10.415c-3.221-3.094-8.337-2.988-11.43,0.233   c-3.091,3.22-2.988,8.337,0.233,11.43l16.455,15.8c1.564,1.503,3.581,2.253,5.599,2.253c2.022,0,4.044-0.755,5.609-2.264   l27.672-26.664c3.214-3.098,3.309-8.216,0.211-11.43C472.62,427.212,467.502,427.114,464.285,430.213z"/>
	<path style="fill:#202121;" d="M80.622,46.55L58.55,67.818L47.703,57.404c-3.22-3.092-8.339-2.989-11.43,0.233   c-3.091,3.22-2.988,8.338,0.233,11.43l16.455,15.8c1.564,1.503,3.581,2.253,5.599,2.253c2.022,0,4.044-0.755,5.609-2.264   l27.672-26.664c3.214-3.098,3.309-8.216,0.211-11.43C88.956,43.549,83.839,43.452,80.622,46.55z"/>
	<path style="fill:#202121;" d="M173.027,161.594l-58.161-58.16c8.432-10.862,13.47-24.482,13.47-39.266   c0.001-35.383-28.786-64.168-64.17-64.168C28.785,0.001,0,28.786,0,64.168c0,35.383,28.785,64.169,64.166,64.169   c14.783,0,28.405-5.038,39.267-13.47l58.161,58.161c1.579,1.578,3.649,2.367,5.717,2.367c2.068,0,4.138-0.789,5.717-2.367   C176.184,169.87,176.184,164.752,173.027,161.594z M16.168,64.168c0-26.466,21.532-47.999,47.998-47.999   c26.469,0,48.002,21.533,48.002,47.999c0,26.468-21.534,48.001-48.002,48.001C37.7,112.169,16.168,90.635,16.168,64.168z"/>
	<path style="fill:#202121;" d="M447.83,0.001c-35.381,0-64.166,28.785-64.166,64.167c0,14.783,5.038,28.405,13.469,39.267   l-61.869,61.869c-3.157,3.158-3.157,8.276,0,11.433c1.579,1.578,3.649,2.367,5.717,2.367s4.138-0.789,5.717-2.367l61.869-61.869   c10.861,8.431,24.481,13.469,39.263,13.469c35.384,0,64.17-28.786,64.17-64.169C512,28.786,483.214,0.001,447.83,0.001z    M447.83,112.169c-26.467,0-47.998-21.534-47.998-48.001S421.364,16.17,447.83,16.17c26.468-0.001,48.002,21.532,48.002,47.998   C495.832,90.635,474.297,112.169,447.83,112.169z"/>
	<path style="fill:#202121;" d="M464.285,46.55l-22.072,21.268l-10.847-10.415c-3.221-3.092-8.337-2.989-11.43,0.233   c-3.091,3.22-2.988,8.338,0.233,11.43l16.455,15.8c1.564,1.503,3.581,2.253,5.599,2.253c2.022,0,4.044-0.755,5.609-2.264   l27.672-26.664c3.214-3.098,3.309-8.216,0.211-11.43C472.62,43.549,467.502,43.452,464.285,46.55z"/>
	<path style="fill:#202121;" d="M80.622,430.213L58.55,451.481l-10.847-10.415c-3.22-3.094-8.339-2.988-11.43,0.233   c-3.091,3.22-2.988,8.337,0.233,11.43l16.455,15.8c1.564,1.503,3.581,2.253,5.599,2.253c2.022,0,4.044-0.755,5.609-2.264   l27.672-26.664c3.214-3.098,3.309-8.216,0.211-11.43C88.956,427.212,83.839,427.114,80.622,430.213z"/>
	<path style="fill:#202121;" d="M150.998,361.003c-3.158-3.156-8.276-3.156-11.433,0l-36.131,36.131   c-10.862-8.431-24.483-13.469-39.268-13.469C28.785,383.664,0,412.449,0,447.831C0,483.214,28.785,512,64.166,512   c35.384,0,64.17-28.786,64.17-64.169c0-14.782-5.038-28.403-13.469-39.264l36.131-36.131   C154.155,369.279,154.155,364.161,150.998,361.003z M64.166,495.832c-26.466,0-47.998-21.534-47.998-48.001   c0-26.467,21.532-47.999,47.998-47.999c26.469,0,48.002,21.533,48.002,47.999C112.169,474.298,90.635,495.832,64.166,495.832z"/>
	<path style="fill:#202121;" d="M318.571,277.037l-35.948-14.416v-5.977c9.796-5.62,17.306-14.789,20.744-25.75   c12.712-0.738,22.829-11.309,22.829-24.2c0-7.693-3.606-14.556-9.212-19.001v-16.078c0-32.434-26.386-58.82-58.819-58.82h-4.229   c-32.434,0-58.821,26.386-58.821,58.82v16.005c-5.659,4.443-9.304,11.338-9.304,19.074c0,12.99,10.271,23.624,23.119,24.217   c3.441,10.954,10.948,20.116,20.739,25.734v5.93l-36.896,14.45c-3.17,1.14-31.303,12.273-31.303,48.014v31.679   c0,4.465,3.618,8.092,8.084,8.092h28.154c4.466,0,8.084-3.618,8.084-8.084c0-4.466-3.618-8.084-8.084-8.084h-20.069V325.04   c0-25.212,19.752-32.496,20.534-32.773c0.125-0.042,0.249-0.087,0.373-0.136l33.798-13.237l18.064,17.597   c1.51,1.471,3.535,2.294,5.641,2.294c0.042,0,0.085,0,0.128-0.001c2.151-0.033,4.199-0.924,5.693-2.474l17.088-17.735   l33.745,13.532c0.142,0.058,0.288,0.111,0.432,0.16c0.206,0.068,20.536,7.197,20.536,32.773v23.602h-50.688h-53.244h-3.75   c-4.466,0-8.084,3.618-8.084,8.084c0,4.466,3.618,8.084,8.084,8.084h3.75h53.244h58.772c4.466,0,8.084-3.681,8.084-8.147v-31.624   C349.84,289.428,321.914,278.246,318.571,277.037z M305.431,213.969v-13.694c0.686,0.327,1.422,0.557,2.197,0.68   c1.48,1.465,2.398,3.495,2.398,5.737C310.027,209.899,308.145,212.666,305.431,213.969z M253.937,128.963h4.229   c23.517,0,42.65,19.134,42.65,42.651v6.805c-0.071-0.033-0.141-0.068-0.213-0.099c-0.147-0.065-0.298-0.121-0.448-0.177   c-0.096-0.036-0.191-0.073-0.289-0.106c-0.168-0.055-0.34-0.1-0.513-0.144c-0.071-0.018-0.14-0.043-0.212-0.059   c-12.794-2.909-16.92-19.811-16.953-19.946c-0.701-3.098-3.152-5.498-6.265-6.134c-3.112-0.638-6.31,0.607-8.17,3.182   c-16.249,22.464-52.338,22.698-52.78,22.698c-0.01,0-0.019,0-0.028,0c-0.278,0-0.553,0.014-0.825,0.042   c-0.087,0.009-0.172,0.028-0.259,0.04c-0.181,0.025-0.364,0.046-0.541,0.083c-0.122,0.025-0.239,0.061-0.359,0.092   c-0.138,0.034-0.279,0.065-0.414,0.107c-0.141,0.044-0.278,0.1-0.416,0.152c-0.108,0.04-0.219,0.074-0.324,0.119   c-0.164,0.069-0.32,0.15-0.477,0.23c-0.014,0.008-0.029,0.014-0.044,0.02v-6.902C211.285,148.097,230.418,128.963,253.937,128.963z    M201.98,206.693c0-2.137,0.841-4.079,2.201-5.525c0.955-0.115,1.857-0.399,2.68-0.818v13.756   C203.993,212.865,201.98,210.011,201.98,206.693z M223.029,193.33c11.445-1.162,32.621-5.166,48.588-18.905   c3.5,6.251,9.081,13.204,17.645,17.068v25.882c0,16.037-13.047,29.084-29.084,29.084h-8.063c-16.038,0-29.086-13.047-29.086-29.084   V193.33H223.029z M255.866,279.233l-10.029-9.769v-7.283c2.053,0.287,4.147,0.445,6.278,0.445h8.063   c2.13,0,4.223-0.158,6.276-0.445v6.036c0,0.009,0,0.017,0,0.026L255.866,279.233z"/>
</g>
<g>
</g>
<g>
</g>
<g>
</g>
<g>
</g>
<g>
</g>
<g>
</g>
<g>
</g>
<g>
</g>
<g>
</g>
<g>
</g>
<g>
</g>
<g>
</g>
<g>
</g>
<g>
</g>
<g>
</g>
</svg>
