<?xml version="1.0" encoding="iso-8859-1"?>
<!-- Generator: Adobe Illustrator 19.0.0, SVG Export Plug-In . SVG Version: 6.00 Build 0)  -->
<svg xmlns="http://www.w3.org/2000/svg" xmlns:xlink="http://www.w3.org/1999/xlink" version="1.1" id="Layer_1" x="0px" y="0px" viewBox="0 0 512 512" style="enable-background:new 0 0 512 512;" xml:space="preserve">
<path style="fill:#694B4B;" d="M120.664,209.924h-5.361c-32.505,0-58.95,26.445-58.95,58.95v22.821l4.966-7.823l0.081-0.136  c0.997-1.476,2.632-2.358,4.37-2.361c0.047,0,0.094-0.001,0.14-0.003l0.125-0.002c2.929-0.04,49.301-1.171,70.728-30.795  c1.223-1.689,3.389-2.539,5.444-2.12c2.069,0.423,3.708,2.028,4.18,4.108c0.057,0.245,5.97,24.578,25.1,28.929l0.197,0.056  c0.116,0.029,0.234,0.059,0.429,0.126l0.11,0.042c0.097,0.034,0.195,0.069,0.279,0.108l0.232,0.112  c0.082,0.04,0.164,0.08,0.252,0.129c0.074,0.041,0.145,0.087,0.283,0.173l0.162,0.107c0.068,0.045,0.128,0.096,0.248,0.189  l0.144,0.113c0.07,0.06,0.138,0.124,0.226,0.208c0.053,0.048,0.106,0.097,0.157,0.151c0.062,0.065,0.121,0.131,0.183,0.203  c0.054,0.063,0.11,0.122,0.174,0.205c0.043,0.054,0.083,0.111,0.151,0.2l4.898,6.989v-21.727  C179.611,236.369,153.166,209.924,120.664,209.924z"/>
<path style="fill:#EDBA89;" d="M56.808,298.521l-0.988,0.19l-0.623,0.791c-0.98,1.247-2.452,1.995-4.038,2.051l-1,0.034  l-0.735,0.679c-3.096,2.861-4.871,6.902-4.871,11.086c0,7.385,5.511,13.799,12.819,14.918l3.101,0.475v-30.773l-3.207,0.475  C57.114,298.469,56.96,298.492,56.808,298.521z"/>
<g>
	<path style="fill:#FBCB99;" d="M123.219,379.414h-10.225c-3.184,0-6.428-0.304-9.64-0.904l-3.186-0.595v17.087l17.691,17.232   l18.185-18.869v-15.448l-3.186,0.594C129.643,379.109,126.401,379.414,123.219,379.414z"/>
	<path style="fill:#FBCB99;" d="M186.109,301.984l-0.669-0.585l-0.885-0.071c-1.41-0.113-2.698-0.769-3.628-1.845l-0.585-0.679   l-0.877-0.193c-0.177-0.038-0.353-0.072-0.53-0.107l-3.2-0.614v30.893l3.179-0.584c7.173-1.317,12.379-7.562,12.379-14.848   C191.292,309.006,189.403,304.863,186.109,301.984z"/>
	<path style="fill:#FBCB99;" d="M140.732,267.772l-1.613-3.185l-2.62,2.425c-20.04,18.555-47.943,23.465-62.792,24.741l-2.463,0.212   v34.931c0,23.019,18.728,41.746,41.747,41.746h10.225c23.017,0,41.743-18.727,41.743-41.746v-36.069l-1.673-0.685   C151.577,285.346,144.557,275.33,140.732,267.772z"/>
</g>
<path style="fill:#6598CB;" d="M191.929,417.25c-0.098-0.033-0.196-0.069-0.298-0.111l-45.825-18.378l-23.945,24.846  c-1.004,1.04-2.352,1.626-3.88,1.648c-1.412,0-2.746-0.543-3.757-1.527l-23.194-22.591c-0.159-0.156-0.303-0.321-0.439-0.489  l-1.24-1.532l-46.061,18.04c-0.081,0.031-0.162,0.061-0.276,0.1c-1.198,0.419-29.323,10.667-29.323,46.157v41.259h207.588v-41.258  C221.275,427.522,192.212,417.345,191.929,417.25z"/>
<polygon style="fill:#F7971D;" points="404.016,107.881 484.313,107.881 444.164,67.733 404.016,27.583 "/>
<path style="fill:#F3E2C2;" d="M395.937,124.039c-4.463,0-8.079-3.616-8.079-8.079V16.158h-259.38v180.729  c36.265,3.91,64.599,34.698,64.599,71.987v21.453c7.077,5.206,11.681,13.587,11.681,23.025c0,15.705-12.738,28.486-28.425,28.569  c-4.089,14.431-13.895,26.485-26.824,33.515v10.305l46.934,18.822c13.386,4.609,38.298,22.69,38.298,58.852v32.102h260.998V124.039  H395.937z M217.69,138.664h127.493c4.463,0,8.079,3.616,8.079,8.079c0,4.463-3.616,8.079-8.079,8.079H217.69  c-4.463,0-8.079-3.616-8.079-8.079C209.611,142.28,213.227,138.664,217.69,138.664z M410.289,376.311H217.69  c-4.463,0-8.079-3.616-8.079-8.079c0-4.463,3.616-8.079,8.079-8.079h192.599c4.463,0,8.079,3.616,8.079,8.079  C418.368,372.693,414.751,376.311,410.289,376.311z M410.289,320.939H217.69c-4.463,0-8.079-3.617-8.079-8.079  c0-4.463,3.616-8.079,8.079-8.079h192.599c4.463,0,8.079,3.616,8.079,8.079C418.368,317.322,414.751,320.939,410.289,320.939z   M410.289,265.565H217.69c-4.463,0-8.079-3.616-8.079-8.079c0-4.463,3.616-8.079,8.079-8.079h192.599  c4.463,0,8.079,3.616,8.079,8.079C418.368,261.949,414.751,265.565,410.289,265.565z M410.289,210.193H217.69  c-4.463,0-8.079-3.616-8.079-8.079s3.616-8.079,8.079-8.079h192.599c4.463,0,8.079,3.616,8.079,8.079  C418.368,206.576,414.751,210.193,410.289,210.193z"/>
<path style="fill:#563B3B;" d="M69.279,268.874c0-31.233,24.42-56.856,55.167-58.816c-1.252-0.08-2.511-0.135-3.783-0.135h-5.361  c-32.505,0-58.95,26.445-58.95,58.95v22.821l4.966-7.823l0.081-0.136c0.997-1.476,2.632-2.358,4.37-2.361  c0.047,0,0.094-0.001,0.14-0.003l0.125-0.002c0.383-0.005,1.521-0.03,3.245-0.135v-12.361H69.279z"/>
<g>
	<path style="fill:#EDBA89;" d="M125.92,379.414h10.123v-1.496l-3.186,0.594c-2.761,0.515-5.541,0.797-8.288,0.871   C125.02,379.394,125.47,379.414,125.92,379.414z"/>
	<path style="fill:#EDBA89;" d="M113.093,395.002v-15.588h-0.1c-3.184,0-6.428-0.304-9.64-0.904l-3.186-0.595v17.087l17.691,17.232   l6.259-6.494L113.093,395.002z"/>
	<path style="fill:#EDBA89;" d="M84.173,326.896v-34.931l2.463-0.212c13.363-1.148,37.297-5.246,56.561-19.579   c-0.936-1.519-1.756-3.002-2.464-4.401l-1.613-3.185l-2.62,2.425c-20.04,18.555-47.943,23.465-62.792,24.741l-2.463,0.212v34.931   c0,23.019,18.728,41.746,41.747,41.746h10.225c0.453,0,0.902-0.02,1.351-0.033C102.175,367.89,84.173,349.461,84.173,326.896z"/>
</g>
<path style="fill:#4982AA;" d="M55.937,417.257c0.113-0.039,0.195-0.069,0.276-0.1l36.56-14.319l-1.745-1.7  c-0.159-0.156-0.303-0.321-0.439-0.489l-1.24-1.532l-46.061,18.04c-0.081,0.031-0.162,0.061-0.276,0.1  c-1.198,0.419-29.323,10.667-29.323,46.157v34.794h12.926v-34.795C26.614,427.924,54.738,417.675,55.937,417.257z"/>
<path style="fill:#FBD7B1;" d="M209.369,404.561l-46.934-18.822v-10.305c12.929-7.03,22.734-19.084,26.824-33.515  c13.088-0.069,24.118-8.981,27.414-21.052c-3.98-0.502-7.062-3.891-7.062-8.009c0-4.023,2.943-7.35,6.794-7.968  c-1.834-5.899-5.533-10.983-10.402-14.565v-21.453c0-37.289-28.334-68.076-64.599-71.987V16.158h-12.926v180.729  c36.265,3.91,64.599,34.698,64.599,71.987v21.453c7.077,5.206,11.681,13.587,11.681,23.025c0,15.705-12.738,28.486-28.425,28.569  c-4.089,14.431-13.895,26.485-26.824,33.515v10.305l46.934,18.822c13.386,4.609,38.298,22.69,38.298,58.852v32.102h12.926v-32.102  C247.667,427.253,222.755,409.172,209.369,404.561z"/>
<g>
	<path style="fill:#202121;" d="M511.883,115.687c-0.003-0.09-0.008-0.18-0.013-0.269c-0.023-0.345-0.06-0.687-0.127-1.023   c-0.001-0.003-0.001-0.008-0.001-0.011c-0.068-0.341-0.166-0.675-0.277-1.005c-0.028-0.084-0.058-0.167-0.089-0.251   c-0.116-0.31-0.247-0.614-0.4-0.907c-0.01-0.018-0.016-0.038-0.026-0.055c-0.164-0.307-0.354-0.6-0.557-0.885   c-0.053-0.073-0.106-0.145-0.16-0.218c-0.216-0.283-0.445-0.559-0.7-0.813l-62.352-62.353l-45.531-45.53   c-0.255-0.255-0.531-0.485-0.815-0.701c-0.071-0.054-0.142-0.107-0.214-0.158c-0.285-0.204-0.58-0.394-0.888-0.558   c-0.018-0.01-0.038-0.017-0.056-0.027c-0.292-0.153-0.596-0.282-0.904-0.397c-0.085-0.032-0.17-0.062-0.257-0.092   c-0.326-0.11-0.657-0.207-0.996-0.275c-0.014-0.003-0.029-0.003-0.044-0.006c-0.324-0.062-0.653-0.1-0.985-0.123   c-0.098-0.006-0.195-0.011-0.293-0.014C396.11,0.01,396.024,0,395.937,0H120.399c-4.463,0-8.079,3.616-8.079,8.079v188.455   c-38.59,1.571-69.503,33.44-69.503,72.408v21.399c-7.151,5.203-11.812,13.631-11.812,23.131c0,15.767,12.83,28.594,28.599,28.594   c0.072,0,0.142-0.009,0.214-0.011c4.09,14.453,13.913,26.523,26.861,33.563v10.278l-48.213,18.882   c-13.39,4.596-38.363,22.694-38.363,58.92v40.213c0,4.462,3.616,8.089,8.079,8.089h35.74c4.463,0,8.079-3.616,8.079-8.079   c0-4.463-3.616-8.079-8.079-8.079H16.263v-32.144c0-33.642,26.472-43.293,27.553-43.672c0.126-0.042,0.25-0.087,0.374-0.136   l44.28-17.342c0.201,0.25,0.415,0.493,0.651,0.724l23.224,22.621c1.509,1.47,3.532,2.292,5.637,2.292c0.042,0,0.085,0,0.128-0.001   c2.15-0.033,4.197-0.923,5.689-2.472l22.712-23.571l44.2,17.725c0.143,0.058,0.289,0.111,0.434,0.159   c0.276,0.093,27.555,9.653,27.555,43.672v32.144H152.17H84.585H72.283c-4.463,0-8.079,3.616-8.079,8.079   c0,4.463,3.616,8.079,8.079,8.079h12.302h67.586h74.607c0.776,0,1.523-0.118,2.233-0.326h274.804c4.463,0,8.079-3.616,8.079-8.079   V115.96C511.896,115.869,511.885,115.778,511.883,115.687z M404.016,27.584l25.271,25.272c0.004,0.004,0.009,0.006,0.012,0.011   l6.454,6.454l27.795,27.795c0.003,0.003,0.006,0.006,0.01,0.011l20.239,20.239l0.516,0.516h-80.297V27.584H404.016z M115.3,212.617   h5.367c31.057,0,56.324,25.267,56.324,56.325v13.233c-0.018-0.026-0.039-0.051-0.057-0.077c-0.07-0.096-0.14-0.193-0.213-0.285   c-0.082-0.102-0.168-0.2-0.254-0.298c-0.087-0.1-0.176-0.199-0.268-0.294c-0.083-0.085-0.169-0.166-0.255-0.248   c-0.104-0.098-0.209-0.196-0.318-0.289c-0.086-0.073-0.177-0.142-0.266-0.212c-0.115-0.089-0.231-0.179-0.35-0.262   c-0.098-0.068-0.199-0.13-0.301-0.195c-0.117-0.074-0.234-0.148-0.355-0.215c-0.12-0.067-0.242-0.127-0.365-0.187   c-0.109-0.054-0.217-0.109-0.329-0.158c-0.146-0.065-0.297-0.121-0.449-0.177c-0.096-0.036-0.191-0.073-0.288-0.106   c-0.168-0.055-0.339-0.1-0.513-0.144c-0.072-0.018-0.14-0.043-0.212-0.059c-17.605-4.004-23.117-26.764-23.165-26.967   c-0.7-3.096-3.15-5.495-6.261-6.13c-3.11-0.638-6.305,0.606-8.165,3.18c-21.283,29.423-68.124,29.717-68.771,29.717   c-0.001,0-0.002,0-0.003,0c-0.011,0-0.02,0-0.03,0c-0.278,0-0.553,0.014-0.824,0.042c-0.08,0.009-0.157,0.026-0.237,0.036   c-0.189,0.025-0.378,0.048-0.563,0.086c-0.122,0.025-0.238,0.061-0.358,0.092c-0.139,0.034-0.279,0.065-0.415,0.107   c-0.144,0.045-0.283,0.102-0.424,0.155c-0.106,0.039-0.213,0.072-0.316,0.115c-0.168,0.071-0.329,0.154-0.49,0.235   c-0.071,0.036-0.144,0.066-0.214,0.103c-0.167,0.09-0.326,0.193-0.486,0.294c-0.059,0.038-0.121,0.07-0.179,0.109   c-0.157,0.106-0.307,0.223-0.456,0.339c-0.054,0.042-0.112,0.08-0.166,0.124c-0.141,0.115-0.273,0.241-0.405,0.366   c-0.055,0.052-0.115,0.1-0.168,0.153c-0.125,0.124-0.24,0.257-0.357,0.39c-0.054,0.061-0.113,0.118-0.166,0.182   c-0.109,0.131-0.207,0.27-0.307,0.408c-0.052,0.071-0.109,0.139-0.158,0.212c-0.05,0.073-0.093,0.153-0.14,0.228v-13.6   C58.974,237.884,84.242,212.617,115.3,212.617z M178.485,301.246c0.158,0.029,0.316,0.059,0.473,0.094   c1.346,1.56,3.278,2.597,5.455,2.773c2.611,2.282,4.272,5.626,4.272,9.359c0,6.093-4.408,11.165-10.2,12.224V301.246z    M47.163,313.472c0-3.61,1.554-6.854,4.019-9.128c2.461-0.086,4.638-1.268,6.063-3.079c0.158-0.03,0.32-0.048,0.48-0.073v24.559   C51.756,324.841,47.163,319.689,47.163,313.472z M73.883,327.031v-32.51c14.109-1.211,43.514-6.065,64.473-25.477   c4.285,8.465,11.739,18.672,23.972,23.679v34.308c0,21.562-17.541,39.104-39.104,39.104h-10.236   C91.425,366.134,73.883,348.592,73.883,327.031z M117.799,408.651l-14.962-14.575v-12.735c3.293,0.614,6.683,0.951,10.152,0.951   h10.236c3.469,0,6.857-0.336,10.151-0.951v10.191c0,0.012,0,0.023,0,0.034v0.92L117.799,408.651z M234.858,495.515v-31.817   c0-36.199-24.934-54.296-38.332-58.909l-46.993-18.846v-10.326c12.946-7.037,22.767-19.105,26.858-33.555   c15.702-0.079,28.453-12.873,28.453-28.591c0-9.448-4.609-17.837-11.693-23.047v-21.483c0-37.328-28.366-68.147-64.672-72.057   V16.158h259.38v99.802c0,4.463,3.616,8.079,8.079,8.079h99.801v371.476H234.858z"/>
	<path style="fill:#202121;" d="M217.69,154.822h127.493c4.463,0,8.079-3.616,8.079-8.079c0-4.463-3.616-8.079-8.079-8.079H217.69   c-4.463,0-8.079,3.616-8.079,8.079C209.611,151.205,213.227,154.822,217.69,154.822z"/>
	<path style="fill:#202121;" d="M410.289,194.035H217.69c-4.463,0-8.079,3.616-8.079,8.079s3.616,8.079,8.079,8.079h192.599   c4.463,0,8.079-3.616,8.079-8.079S414.751,194.035,410.289,194.035z"/>
	<path style="fill:#202121;" d="M410.289,249.407H217.69c-4.463,0-8.079,3.616-8.079,8.079c0,4.463,3.616,8.079,8.079,8.079h192.599   c4.463,0,8.079-3.616,8.079-8.079C418.369,253.023,414.751,249.407,410.289,249.407z"/>
	<path style="fill:#202121;" d="M410.289,304.781H217.69c-4.463,0-8.079,3.616-8.079,8.079c0,4.463,3.616,8.079,8.079,8.079h192.599   c4.463,0,8.079-3.616,8.079-8.079C418.369,308.397,414.751,304.781,410.289,304.781z"/>
	<path style="fill:#202121;" d="M410.289,360.152H217.69c-4.463,0-8.079,3.616-8.079,8.079c0,4.463,3.616,8.079,8.079,8.079h192.599   c4.463,0,8.079-3.616,8.079-8.079C418.369,363.769,414.751,360.152,410.289,360.152z"/>
</g>
<g>
</g>
<g>
</g>
<g>
</g>
<g>
</g>
<g>
</g>
<g>
</g>
<g>
</g>
<g>
</g>
<g>
</g>
<g>
</g>
<g>
</g>
<g>
</g>
<g>
</g>
<g>
</g>
<g>
</g>
</svg>
