<?xml version="1.0" encoding="iso-8859-1"?>
<!-- Generator: Adobe Illustrator 19.0.0, SVG Export Plug-In . SVG Version: 6.00 Build 0)  -->
<svg xmlns="http://www.w3.org/2000/svg" xmlns:xlink="http://www.w3.org/1999/xlink" version="1.1" id="Layer_1" x="0px" y="0px" viewBox="0 0 512 512" style="enable-background:new 0 0 512 512;" xml:space="preserve">
<path style="fill:#B3DCF4;" d="M322.186,25.462c15.419,12.66,29.568,29.853,41.872,51.198c9.146,15.867,16.925,33.449,23.256,52.309  c22.889-4.469,51.26-13.269,68.354-19.941C424.703,67.838,378.063,25.462,322.186,25.462z"/>
<path style="fill:#6CB8DD;" d="M140.77,131.824c32.646,5.347,69.254,8.43,107.146,8.815V16.617  c-32.171,3.436-62.439,27.306-85.965,68.118C153.699,99.05,146.613,114.862,140.77,131.824z"/>
<path style="fill:#B3DCF4;" d="M392.105,144.467c9.066,31.962,14.153,67.06,14.808,103.449h88.768  c-1.497-44.909-15.391-86.728-38.376-122.135C439.058,133.237,416.925,139.536,392.105,144.467z"/>
<g>
	<path style="fill:#6CB8DD;" d="M64.204,112.169c17.08,6.662,37.587,12.314,60.488,16.782c6.329-18.853,14.106-36.431,23.249-52.292   c12.304-21.344,26.453-38.538,41.872-51.198C139.067,40.053,95.167,70.984,64.204,112.169z"/>
	<path style="fill:#6CB8DD;" d="M105.086,247.916c0.656-36.397,5.744-71.502,14.815-103.469   c-24.83-4.93-46.995-11.215-65.212-18.661c-22.981,35.407-36.875,77.224-38.37,122.13H105.086z"/>
</g>
<g>
	<path style="fill:#96CEEE;" d="M406.917,264.084c-0.101,5.529-0.313,11.051-0.618,16.532c26.792,3.402,47.58,26.325,47.58,54.027   v14.369c5.136,4.197,8.423,10.574,8.423,17.708c0,11.995-9.29,21.841-21.052,22.771c-3.214,9.868-9.983,18.141-18.791,23.306v4.6   l7.969,3.196c40.325-42.718,63.31-97.991,65.254-156.508h-88.765V264.084z"/>
	<path style="fill:#96CEEE;" d="M325.064,292.22v18.948c6.396,4.856,10.534,12.536,10.534,21.167   c0,14.398-11.521,26.152-25.827,26.547c-3.794,12.818-12.532,23.527-24.001,29.907v8.292l41.812,16.769   c5.476,1.891,13.047,6.242,19.753,13.412l25.317-9.914v-4.553c-8.803-5.164-15.569-13.431-18.787-23.292   c-11.887-0.801-21.32-10.699-21.32-22.785c0-7.171,3.325-13.576,8.509-17.77v-14.306c0-28.211,21.555-51.479,49.06-54.208   c0.31-5.419,0.527-10.88,0.631-16.351h-71.983C322.797,272.628,325.064,282.163,325.064,292.22z"/>
</g>
<g>
	<path style="fill:#6CB8DD;" d="M204.161,247.916c0.303,0,0.601,0.02,0.896,0.053c10.804-11.969,25.913-19.97,42.859-21.557V156.81   c-39.578-0.398-77.902-3.704-112.058-9.445c-8.928,30.916-13.938,65.056-14.6,100.55H204.161z"/>
	<path style="fill:#6CB8DD;" d="M171.843,334.644v14.368c5.137,4.197,8.424,10.574,8.424,17.708   c0,11.995-9.291,21.841-21.053,22.771c-3.215,9.869-9.986,18.142-18.793,23.308v4.598l24.467,9.812   c6.708-7.152,14.27-11.489,19.734-13.369l42.908-16.803v-8.245c-11.469-6.379-20.206-17.086-24-29.899   c-14.461-0.222-26.158-12.047-26.158-26.556c0-8.68,4.185-16.4,10.642-21.251v-18.864c0-10.058,2.268-19.594,6.304-28.137h-73.06   c0.103,5.449,0.316,10.889,0.624,16.281C149.813,282.67,171.843,306.125,171.843,334.644z"/>
</g>
<g>
	<path style="fill:#B3DCF4;" d="M264.084,16.617V140.64c37.982-0.383,74.56-3.454,107.155-8.79   c-5.844-16.971-12.934-32.794-21.189-47.115C326.523,43.923,296.255,20.052,264.084,16.617z"/>
	<path style="fill:#B3DCF4;" d="M264.084,156.81v69.52c17.359,1.34,32.864,9.395,43.893,21.587c0.009,0,0.017-0.001,0.017-0.001   h82.749c-0.661-35.488-5.671-69.622-14.596-100.533C342.039,153.116,303.755,156.414,264.084,156.81z"/>
</g>
<path style="fill:#6CB8DD;" d="M81.782,420.807l8.831-3.458v-4.553c-8.803-5.164-15.568-13.431-18.786-23.292  c-11.887-0.802-21.32-10.7-21.32-22.785c0-7.171,3.326-13.576,8.51-17.771v-14.305c0-27.396,20.328-50.123,46.69-53.915  c-0.309-5.516-0.523-11.076-0.624-16.645H16.319C18.263,322.727,41.321,378.056,81.782,420.807z"/>
<path style="fill:#B3DCF4;" d="M260.251,6.81c-18.235,0-36.004,1.968-53.114,5.67c-36.778,42.631-59.021,98.152-59.021,158.872  c0,134.394,108.948,243.342,243.342,243.342c20.195,0,39.809-2.477,58.572-7.114c35.866-42.389,57.464-96.966,57.464-156.533  C507.492,116.16,396.8,6.81,260.251,6.81z"/>
<g>
	<path style="fill:#694B4B;" d="M117.365,293.637h-3.867c-22.611,0-41.006,18.395-41.006,41.007v9.079l3.593-1.27l0.656-0.191   c0.11-0.022,0.221-0.035,0.385-0.056l0.162-0.028c0.181-0.018,0.366-0.027,0.58-0.027c0.343,0,34.45-0.247,49.888-21.588   c1.221-1.69,3.387-2.541,5.446-2.12c2.071,0.424,3.709,2.029,4.184,4.125c0.165,0.686,4.187,16.802,16.949,19.704l0.273,0.075   c0.079,0.02,0.158,0.038,0.236,0.064l3.526,1.145v-8.912C158.37,312.032,139.974,293.637,117.365,293.637z"/>
	<path style="fill:#694B4B;" d="M399.401,293.637h-3.866c-22.612,0-41.007,18.395-41.007,41.006v9.079l3.593-1.27l0.679-0.194   c0.093-0.019,0.186-0.029,0.355-0.052l0.17-0.028c0.182-0.018,0.366-0.028,0.581-0.028c0.343,0,34.449-0.246,49.886-21.586   c1.221-1.69,3.393-2.541,5.447-2.121c2.071,0.424,3.709,2.029,4.183,4.12c0.163,0.684,4.148,16.797,16.957,19.71l0.222,0.063   c0.097,0.024,0.195,0.047,0.29,0.078l3.515,1.122v-8.893C440.405,312.032,422.011,293.637,399.401,293.637z"/>
	<path style="fill:#694B4B;" d="M258.957,239.585h-4.835c-29.022,0-52.634,23.612-52.634,52.636v15.991l4.464-3.88l0.41-0.332   c0.057-0.044,0.112-0.088,0.167-0.124l0.276-0.169c0.052-0.031,0.102-0.067,0.182-0.107l0.294-0.142   c0.053-0.026,0.105-0.054,0.237-0.105l0.914-0.282c0.11-0.023,0.221-0.035,0.386-0.056l0.161-0.028   c0.181-0.018,0.366-0.027,0.584-0.027c0.435,0,43.782-0.315,63.486-27.555c1.221-1.69,3.395-2.54,5.447-2.121   c2.071,0.424,3.709,2.029,4.182,4.118c0.211,0.89,5.378,21.848,22.234,25.68l0.206,0.059c0.11,0.028,0.218,0.055,0.331,0.092   l0.225,0.083c0.093,0.035,0.185,0.069,0.251,0.097l0.469,0.234c0.083,0.046,0.163,0.098,0.263,0.162l0.182,0.116   c0.082,0.057,0.161,0.117,0.224,0.167l4.529,3.632v-15.503C311.59,263.198,287.979,239.585,258.957,239.585z"/>
</g>
<g>
	<path style="fill:#563B3B;" d="M86.504,334.644c0-20.893,15.709-38.174,35.934-40.682c-1.664-0.206-3.354-0.326-5.073-0.326h-3.867   c-22.611,0-41.006,18.395-41.006,41.007v9.079l3.593-1.27l0.656-0.191c0.11-0.022,0.221-0.035,0.385-0.056l0.162-0.028   c0.181-0.018,0.366-0.027,0.58-0.027c0.108,0,3.523-0.024,8.636-0.711v-6.796H86.504z"/>
	<path style="fill:#563B3B;" d="M368.54,334.643c0-20.892,15.709-38.173,35.934-40.681c-1.663-0.206-3.353-0.326-5.073-0.326h-3.866   c-22.612,0-41.007,18.395-41.007,41.006v9.079l3.593-1.27l0.679-0.194c0.093-0.019,0.186-0.029,0.355-0.052l0.17-0.028   c0.182-0.018,0.366-0.028,0.581-0.028c0.108,0,3.521-0.024,8.635-0.711V334.643z"/>
	<path style="fill:#563B3B;" d="M215.5,292.22c0-27.476,21.166-50.09,48.045-52.423c-1.513-0.131-3.041-0.212-4.589-0.212h-4.835   c-29.022,0-52.634,23.612-52.634,52.636v15.991l4.464-3.88l0.41-0.332c0.057-0.044,0.112-0.088,0.167-0.124l0.276-0.169   c0.052-0.031,0.102-0.067,0.182-0.107l0.294-0.142c0.053-0.026,0.105-0.054,0.237-0.105l0.914-0.282   c0.11-0.023,0.221-0.035,0.386-0.056l0.161-0.028c0.181-0.018,0.366-0.027,0.584-0.027c0.097,0,2.324-0.017,5.939-0.341V292.22   H215.5z"/>
</g>
<path style="fill:#FBCB99;" d="M401.242,415.866h-7.373c-1.532,0-3.077-0.097-4.729-0.294l-3.016-0.362v9.76l11.218,10.928  l11.642-12.08v-8.607l-3.016,0.362C404.319,415.77,402.773,415.866,401.242,415.866z"/>
<path style="fill:#E9B280;" d="M349.972,359.651l-0.97,0.149l-0.648,0.737c-1.506,1.718-2.335,3.913-2.335,6.182  c0,3.199,1.614,6.148,4.316,7.89l4.154,2.676v-19.112l-3.579,1.243C350.607,359.524,350.291,359.602,349.972,359.651z"/>
<g>
	<path style="fill:#FBCB99;" d="M413.845,336.915l-1.606-2.755l-2.448,2.045c-13.976,11.674-32.386,15.181-42.117,16.233   l-2.405,0.26v23.79c0,15.77,12.83,28.599,28.601,28.599h7.373c15.771,0,28.6-12.829,28.6-28.599V351.54l-1.55-0.728   C422.498,348.093,417.638,343.418,413.845,336.915z"/>
	<path style="fill:#FBCB99;" d="M131.808,336.915l-1.606-2.756l-2.448,2.045c-13.953,11.655-32.378,15.165-42.118,16.221   l-2.404,0.26v23.802c0,15.771,12.83,28.6,28.601,28.6h7.374c15.77,0,28.599-12.829,28.599-28.6v-24.948l-1.55-0.728   C140.46,348.095,135.601,343.42,131.808,336.915z"/>
	<path style="fill:#FBCB99;" d="M119.207,415.867h-7.374c-1.533,0-3.078-0.097-4.73-0.294l-3.016-0.362v9.759l11.22,10.928   l11.64-12.08v-8.606l-3.016,0.362C122.282,415.772,120.737,415.867,119.207,415.867z"/>
	<path style="fill:#FBCB99;" d="M163.615,359.636l-0.856-0.161c-0.221-0.042-0.438-0.095-0.649-0.163l-3.526-1.144V377.4l4.26-3.038   c2.473-1.764,3.949-4.62,3.949-7.641c0-2.406-0.917-4.696-2.579-6.45L163.615,359.636z"/>
	<path style="fill:#FBCB99;" d="M445.645,359.633l-0.859-0.161c-0.22-0.04-0.434-0.094-0.645-0.161l-3.521-1.135v19.224l4.26-3.04   c2.472-1.764,3.947-4.62,3.947-7.64c0-2.406-0.917-4.697-2.582-6.453L445.645,359.633z"/>
	<path style="fill:#FBCB99;" d="M277.046,292.35l-1.614-3.054l-2.57,2.308c-17.926,16.093-42.464,20.513-55.495,21.716l-2.447,0.225   v31.008c0,20.467,16.651,37.118,37.121,37.118h9.222c20.465,0,37.116-16.651,37.116-37.118v-32.158l-1.636-0.698   C286.627,307.377,280.449,298.791,277.046,292.35z"/>
</g>
<g>
	<path style="fill:#EDBA89;" d="M377.125,376.488v-23.79l2.405-0.26c8.48-0.917,23.552-3.703,36.536-12.13   c-0.772-1.076-1.521-2.191-2.222-3.392l-1.606-2.755l-2.448,2.045c-13.976,11.674-32.386,15.181-42.117,16.233l-2.405,0.26v23.79   c0,15.77,12.83,28.599,28.601,28.599h7.373c0.755,0,1.502-0.038,2.242-0.097C388.759,403.843,377.125,391.502,377.125,376.488z"/>
	<path style="fill:#EDBA89;" d="M95.089,376.488v-23.802l2.404-0.26c8.487-0.921,23.565-3.708,36.536-12.119   c-0.772-1.075-1.52-2.191-2.22-3.391l-1.606-2.756l-2.448,2.045c-13.953,11.655-32.378,15.165-42.118,16.221l-2.404,0.26v23.802   c0,15.771,12.83,28.6,28.601,28.6h7.374c0.755,0,1.502-0.039,2.241-0.096C106.722,403.844,95.089,391.504,95.089,376.488z"/>
	<path style="fill:#EDBA89;" d="M226.777,344.551v-31.008l2.447-0.225c11.737-1.082,32.807-4.782,49.974-17.262   c-0.815-1.281-1.531-2.531-2.153-3.707l-1.614-3.054l-2.57,2.308c-17.926,16.093-42.464,20.513-55.495,21.716l-2.447,0.225v31.008   c0,20.467,16.651,37.118,37.121,37.118h9.222c0.442,0,0.878-0.018,1.318-0.033C242.72,380.94,226.777,364.576,226.777,344.551z"/>
</g>
<path style="fill:#FBCB99;" d="M317.224,322.105l-0.869-0.1c-1.03-0.119-1.997-0.527-2.793-1.182l-4.406-3.624v28.697l3.428-0.968  c5.618-1.588,9.542-6.765,9.542-12.592c0-3.645-1.551-7.158-4.257-9.64L317.224,322.105z"/>
<path style="fill:#E9B280;" d="M196.488,322.216l-0.984,0.069l-0.706,0.691c-2.548,2.49-3.953,5.813-3.953,9.36  c0,6.027,4.094,11.249,9.953,12.698l3.343,0.827v-28.939l-4.48,3.96C198.77,321.67,197.673,322.131,196.488,322.216z"/>
<path style="fill:#FBCB99;" d="M261.262,392.45h-9.222c-2.6,0-5.258-0.223-7.899-0.663l-3.138-0.523v14.489l15.412,15.011  l15.881-16.477v-13.021l-3.137,0.522C266.517,392.226,263.86,392.45,261.262,392.45z"/>
<g>
	<path style="fill:#EDBA89;" d="M405.726,415.866h3.258v-0.656l-3.016,0.362c-0.853,0.102-1.677,0.175-2.487,0.224   C404.241,415.841,404.987,415.866,405.726,415.866z"/>
	<path style="fill:#EDBA89;" d="M397.982,424.97v-9.103h-4.112c-1.532,0-3.077-0.097-4.729-0.294l-3.016-0.362v9.76l11.218,10.928   l5.741-5.956L397.982,424.97z"/>
	<path style="fill:#EDBA89;" d="M123.689,415.867h3.257v-0.656l-3.016,0.362c-0.85,0.102-1.672,0.176-2.479,0.224   C122.207,415.842,122.95,415.867,123.689,415.867z"/>
	<path style="fill:#EDBA89;" d="M115.944,424.97v-9.102h-4.111c-1.533,0-3.078-0.097-4.73-0.294l-3.016-0.362v9.759l11.22,10.928   l5.74-5.956L115.944,424.97z"/>
	<path style="fill:#EDBA89;" d="M252.86,405.753V392.45h-0.82c-2.6,0-5.258-0.223-7.899-0.663l-3.138-0.523v14.489l15.412,15.011   l5.741-5.956L252.86,405.753z"/>
	<path style="fill:#EDBA89;" d="M263.897,392.45h8.399v-1.185l-3.137,0.522c-2.198,0.365-4.403,0.571-6.579,0.634   C263.02,392.433,263.46,392.45,263.897,392.45z"/>
</g>
<path style="fill:#E9B280;" d="M67.934,359.651l-0.97,0.149l-0.648,0.737c-1.505,1.718-2.335,3.913-2.335,6.182  c0,3.199,1.614,6.148,4.316,7.89l4.154,2.676v-19.12l-3.584,1.253C68.572,359.524,68.259,359.601,67.934,359.651z"/>
<g>
	<path style="fill:#6598CB;" d="M322.989,426.521c-0.083-0.028-0.137-0.05-0.226-0.085l-40.999-16.442l-21.349,22.152   c-0.987,1.025-2.37,1.627-3.88,1.649c-1.413,0-2.749-0.543-3.761-1.528l-20.954-20.415l-1.39-1.48l-41.068,16.083   c-0.081,0.031-0.162,0.061-0.281,0.101c-1.064,0.375-26.073,9.54-26.073,41.122v37.317h21.038h28.022h137.099v-37.317   C349.167,436.1,324.106,426.912,322.989,426.521z"/>
	<path style="fill:#6598CB;" d="M119.308,447.278c-0.987,1.025-2.37,1.627-3.88,1.649c-1.413,0-2.749-0.543-3.76-1.528   l-17.446-16.993l-32.114,12.578c-0.081,0.031-0.162,0.061-0.291,0.106c-0.821,0.291-20.096,7.442-20.096,31.853v23.584h110.507   v-30.849c0-9.325,1.906-17.953,5.663-25.643l1.274-2.605l-23.293-9.34L119.308,447.278z"/>
	<path style="fill:#6598CB;" d="M450.246,443.05c-0.085-0.029-0.132-0.047-0.227-0.086l-32.109-12.875l-16.565,17.189   c-0.987,1.025-2.37,1.627-3.88,1.649c-1.412,0-2.749-0.543-3.761-1.53l-17.444-16.993l-23.212,9.091l1.277,2.625   c3.729,7.666,5.621,16.264,5.621,25.557v30.849h110.506v-23.585C470.451,450.501,451.108,443.355,450.246,443.05z"/>
</g>
<g>
	<path style="fill:#4982AA;" d="M202.016,426.554c0.119-0.04,0.201-0.069,0.281-0.101l31.749-12.434l-2.226-2.17l-1.39-1.48   l-41.068,16.083c-0.081,0.031-0.162,0.061-0.281,0.101c-1.064,0.375-26.073,9.54-26.073,41.122v30.849h12.935v-30.849   C175.942,436.095,200.952,426.929,202.016,426.554z"/>
	<path style="fill:#4982AA;" d="M74.753,443.088c0.128-0.044,0.209-0.073,0.291-0.106l22.888-8.964l-3.709-3.613l-32.115,12.578   c-0.081,0.031-0.162,0.061-0.291,0.106c-0.821,0.291-20.096,7.442-20.096,31.853v23.584h12.935v-23.585   C54.657,450.531,73.932,443.38,74.753,443.088z"/>
	<path style="fill:#4982AA;" d="M367.259,442.12l-1.277-2.625l13.988-5.478l-3.709-3.613l-23.212,9.091l1.277,2.625   c3.73,7.666,5.621,16.264,5.621,25.557v30.849h12.935v-30.849C372.88,458.384,370.989,449.786,367.259,442.12z"/>
</g>
<path style="fill:#202121;" d="M454.889,430.401l-8.412-3.373C488.78,379.969,512,319.525,512,256  c0-51.971-15.712-101.979-44.338-144.015c-0.347-0.682-0.777-1.297-1.276-1.833c-12.541-18.075-27.47-34.654-44.603-49.227  c-3.401-2.893-8.502-2.481-11.395,0.921c-2.893,3.401-2.481,8.504,0.921,11.396c13.744,11.691,25.977,24.758,36.589,38.902  c-17.112,6.688-37.652,12.351-60.582,16.827c-6.33-18.86-14.11-36.444-23.256-52.31c-12.328-21.385-26.507-38.604-41.958-51.271  c24.05,6.876,46.962,17.529,67.987,31.734c3.7,2.499,8.724,1.526,11.224-2.174c2.499-3.699,1.526-8.724-2.174-11.224  C356.796,15.12,307.3,0,256,0C187.619,0,123.333,26.628,74.982,74.982C26.628,123.333,0,187.62,0,256  c0,63.608,23.252,124.059,65.624,171.135l-8.306,3.253c-3.059,1.105-29.07,11.48-29.07,44.553v28.967  c0,4.466,3.618,8.092,8.084,8.092h46.504h7.239h8.623h41.362h15.266c0.39,0,0.771-0.037,1.147-0.091  c0.375,0.054,0.756,0.091,1.145,0.091h32.894c4.466,0,8.084-3.618,8.084-8.084s-3.618-8.084-8.084-8.084h-24.81v-28.155  c0-29.704,23.332-38.248,24.274-38.58c0.125-0.042,0.249-0.087,0.373-0.136l39.368-15.418c0.086,0.092,0.165,0.188,0.255,0.276  l20.922,20.378c1.511,1.47,3.535,2.293,5.641,2.293c0.042,0,0.085,0,0.127-0.001c2.151-0.033,4.202-0.924,5.693-2.474l20.089-20.844  l39.315,15.766c0.143,0.058,0.237,0.094,0.383,0.142c0.993,0.349,24.328,8.896,24.328,38.598v28.155H287.34h-62.511h-9.051  c-4.466,0-8.084,3.618-8.084,8.084s3.618,8.084,8.084,8.084h9.051h62.511h67.215h0.001h0.001h10.314h7.238h8.625h41.36h53.745  c4.466,0,8.084-3.676,8.084-8.141v-28.918C483.925,441.995,458.11,431.572,454.889,430.401z M422.459,417.397v-4.6  c8.807-5.166,15.576-13.439,18.791-23.307c11.761-0.93,21.052-10.776,21.052-22.771c0-7.134-3.288-13.51-8.423-17.707v-14.369  c0-27.702-20.788-50.626-47.579-54.028c0.305-5.481,0.517-11.003,0.618-16.531h88.765c-1.942,58.516-24.928,113.791-65.254,156.508  L422.459,417.397z M348.714,366.72c0-1.687,0.633-3.226,1.666-4.405c0.487-0.075,0.96-0.192,1.415-0.35v10.381  C349.944,371.153,348.714,369.079,348.714,366.72z M261.262,378.976h-9.222c-18.982,0-34.426-15.442-34.426-34.425V316  c12.901-1.192,38.414-5.663,57.049-22.392c3.932,7.443,10.526,16.084,21.02,20.566v30.377  C295.683,363.534,280.242,378.976,261.262,378.976z M193.54,332.335c0-2.911,1.206-5.543,3.14-7.433  c1.824-0.13,3.476-0.863,4.766-2.004v19.519C196.914,341.297,193.54,337.209,193.54,332.335z M204.161,247.916h-82.904  c0.663-35.494,5.673-69.635,14.601-100.55c34.156,5.74,72.48,9.047,112.058,9.443v69.603c-16.947,1.586-32.055,9.588-42.859,21.556  C204.762,247.935,204.464,247.916,204.161,247.916z M106.782,418.248c1.658,0.199,3.34,0.314,5.051,0.314h7.374  c1.708,0,3.39-0.114,5.047-0.314v4.481l-9.006,9.346l-8.465-8.244v-5.583H106.782z M119.207,402.393h-7.374  c-14.285,0-25.906-11.621-25.906-25.905v-21.364c10.529-1.137,29.176-4.841,43.554-16.851c3.221,5.522,8.201,11.494,15.629,14.981  v23.235C145.11,390.772,133.49,402.393,119.207,402.393z M66.676,366.72c0-1.687,0.633-3.226,1.666-4.405  c0.487-0.075,0.96-0.192,1.415-0.35v10.38C67.907,371.153,66.676,369.079,66.676,366.72z M161.279,361.876  c0.318,0.102,0.645,0.184,0.979,0.247c1.138,1.201,1.841,2.818,1.841,4.597c0,2.246-1.117,4.233-2.82,5.448V361.876z   M155.675,339.848c-0.154-0.05-0.314-0.089-0.472-0.129c-0.072-0.018-0.142-0.044-0.216-0.06  c-11.267-2.562-14.954-17.606-14.981-17.72c-0.701-3.098-3.152-5.498-6.265-6.134c-3.113-0.639-6.308,0.607-8.169,3.182  c-14.65,20.249-47.31,20.471-47.704,20.471c-0.01,0-0.018,0-0.027,0c-0.278,0-0.553,0.014-0.825,0.042  c-0.085,0.009-0.167,0.027-0.252,0.039c-0.184,0.025-0.369,0.047-0.549,0.084c-0.116,0.024-0.227,0.059-0.342,0.087  c-0.144,0.037-0.29,0.067-0.431,0.111c-0.087,0.027-0.17,0.064-0.257,0.093v-5.268c0-21.126,17.186-38.313,38.312-38.313h3.867  c21.125,0,38.309,17.187,38.309,38.313V339.848z M16.319,247.916c1.495-44.906,15.389-86.723,38.37-122.129  c18.216,7.443,40.381,13.729,65.21,18.659c-9.07,31.968-14.158,67.073-14.815,103.469H16.319z M308.896,292.222v9.88  c-0.054-0.044-0.112-0.082-0.167-0.125c-0.118-0.092-0.235-0.182-0.358-0.267c-0.095-0.066-0.194-0.127-0.292-0.189  c-0.12-0.075-0.24-0.152-0.364-0.221c-0.115-0.065-0.235-0.123-0.354-0.182c-0.113-0.056-0.225-0.113-0.342-0.165  c-0.142-0.063-0.29-0.117-0.437-0.171c-0.099-0.037-0.197-0.077-0.3-0.11c-0.165-0.054-0.334-0.098-0.504-0.142  c-0.073-0.018-0.143-0.044-0.219-0.061c-15.357-3.492-20.222-23.515-20.263-23.689c-0.701-3.098-3.152-5.498-6.265-6.134  c-3.112-0.638-6.308,0.607-8.17,3.182c-18.931,26.172-60.75,26.44-61.302,26.44c-0.001,0-0.002,0-0.002,0c-0.011,0-0.019,0-0.029,0  c-0.278,0-0.553,0.014-0.825,0.042c-0.085,0.009-0.167,0.027-0.252,0.039c-0.184,0.025-0.369,0.047-0.549,0.084  c-0.116,0.024-0.227,0.059-0.342,0.087c-0.144,0.037-0.29,0.067-0.431,0.111c-0.123,0.038-0.24,0.087-0.361,0.132  c-0.127,0.046-0.257,0.087-0.38,0.139c-0.135,0.057-0.263,0.125-0.393,0.189c-0.103,0.051-0.21,0.095-0.312,0.15  c-0.136,0.073-0.264,0.158-0.396,0.239c-0.089,0.055-0.183,0.106-0.269,0.164c-0.124,0.084-0.24,0.178-0.36,0.267  c-0.087,0.066-0.178,0.127-0.263,0.196c-0.074,0.061-0.142,0.129-0.215,0.194v-10.077c0-27.538,22.402-49.941,49.939-49.941h4.835  C286.494,242.279,308.896,264.684,308.896,292.222z M247.916,16.617v124.023c-37.892-0.385-74.5-3.468-107.146-8.814  c5.842-16.963,12.929-32.776,21.181-47.09C185.477,43.923,215.745,20.053,247.916,16.617z M311.851,322.905  c1.168,0.96,2.613,1.595,4.195,1.777c2.074,1.902,3.384,4.624,3.384,7.654c0,4.755-3.212,8.764-7.579,9.999V322.905z   M307.977,247.917c-11.029-12.192-26.535-20.248-43.893-21.587v-69.52c39.671-0.395,77.954-3.694,112.062-9.427  c8.925,30.911,13.934,65.046,14.596,100.533h-82.74C307.993,247.916,307.986,247.917,307.977,247.917z M395.535,296.332h3.866  c21.125,0,38.309,17.186,38.309,38.312v5.203c-0.153-0.05-0.31-0.088-0.468-0.128c-0.073-0.019-0.143-0.044-0.218-0.061  c-11.27-2.563-14.956-17.604-14.983-17.718c-0.701-3.098-3.152-5.498-6.265-6.134c-3.113-0.639-6.308,0.607-8.17,3.182  c-14.64,20.239-47.274,20.47-47.702,20.47c-0.009,0-0.018,0-0.027,0c-0.278,0-0.553,0.014-0.825,0.042  c-0.087,0.009-0.172,0.028-0.259,0.04c-0.181,0.025-0.364,0.046-0.541,0.083c-0.122,0.025-0.239,0.061-0.36,0.092  c-0.138,0.034-0.278,0.065-0.414,0.107c-0.087,0.027-0.171,0.064-0.258,0.094v-5.269  C357.222,313.518,374.409,296.332,395.535,296.332z M443.315,361.875c0.317,0.102,0.642,0.183,0.975,0.246  c1.138,1.201,1.842,2.818,1.842,4.598c0,2.245-1.116,4.231-2.818,5.446V361.875z M367.963,355.113  c10.53-1.14,29.184-4.837,43.555-16.84c3.22,5.521,8.201,11.492,15.629,14.98v23.236c0,14.283-11.621,25.904-25.905,25.904h-7.373  c-14.285,0-25.906-11.621-25.906-25.904L367.963,355.113L367.963,355.113z M388.82,418.247c1.657,0.199,3.339,0.314,5.05,0.314  h7.373c1.71,0,3.392-0.114,5.049-0.314v4.482l-9.008,9.346l-8.464-8.244V418.247z M457.383,125.748  c23.417,36.176,36.826,78.29,38.298,122.167h-88.767c-0.656-36.389-5.742-71.486-14.809-103.449  C416.96,139.529,439.121,133.22,457.383,125.748z M350.05,84.734c8.256,14.321,15.345,30.143,21.189,47.115  c-32.594,5.337-69.172,8.408-107.155,8.79V16.617C296.255,20.053,326.523,43.923,350.05,84.734z M189.813,25.462  c-15.418,12.66-29.567,29.853-41.871,51.198c-9.143,15.861-16.92,33.438-23.249,52.292c-22.901-4.469-43.409-10.12-60.489-16.782  C95.167,70.985,139.066,40.053,189.813,25.462z M16.318,264.084h88.766c0.101,5.568,0.316,11.129,0.624,16.645  c-26.362,3.792-46.69,26.519-46.69,53.915v14.305c-5.184,4.195-8.51,10.599-8.51,17.771c0,12.084,9.433,21.983,21.32,22.783  c3.216,9.863,9.982,18.129,18.786,23.293v4.552l-8.831,3.459C41.321,378.056,18.264,322.728,16.318,264.084z M98.697,495.832h-8.623  h-7.238H44.417v-20.891c0-22.539,17.62-29.071,18.305-29.314c0.125-0.042,0.25-0.087,0.373-0.136l30.491-11.941l16.202,15.78  c1.51,1.471,3.534,2.293,5.64,2.293c0.042,0,0.085,0,0.128-0.001c2.151-0.033,4.199-0.924,5.692-2.474l15.304-15.882l18.917,7.585  c-3.587,7.34-5.937,16.231-5.937,26.826v28.155h-9.474H98.697z M184.622,413.839c-5.464,1.88-13.026,6.217-19.734,13.369  l-24.467-9.811v-4.598c8.809-5.166,15.577-13.439,18.792-23.309c11.762-0.929,21.053-10.776,21.053-22.771  c0-7.134-3.288-13.511-8.424-17.708v-14.368c0-28.519-22.03-51.974-49.962-54.28c-0.308-5.393-0.522-10.832-0.624-16.281h73.06  c-4.036,8.543-6.304,18.078-6.304,28.137v18.863c-6.458,4.852-10.642,12.571-10.642,21.251c0,14.51,11.697,26.333,26.157,26.556  c3.795,12.814,12.532,23.52,24,29.899v8.245L184.622,413.839z M256.355,416.944l-12.657-12.328v-10.171  c2.715,0.453,5.499,0.7,8.342,0.7h9.222c2.841,0,5.624-0.247,8.339-0.7v8.231c0,0.012,0,0.023,0,0.035v0.488L256.355,416.944z   M327.581,413.851l-41.812-16.768v-8.292c11.471-6.381,20.208-17.09,24.001-29.907c14.307-0.396,25.827-12.148,25.827-26.547  c0-8.631-4.139-16.311-10.534-21.167v-18.948c0-10.058-2.268-19.594-6.304-28.137h71.983c-0.104,5.47-0.319,10.932-0.631,16.35  c-27.506,2.73-49.06,25.999-49.06,54.209v14.306c-5.184,4.195-8.508,10.599-8.508,17.771c0,12.084,9.433,21.984,21.32,22.783  c3.217,9.863,9.983,18.129,18.787,23.293v4.553l-25.317,9.914C340.628,420.094,333.057,415.742,327.581,413.851z M467.757,495.832  h-45.661h-41.36h-8.625h-7.238h-2.232v-28.155c0-10.552-2.329-19.413-5.893-26.736l18.876-7.392l16.2,15.779  c1.51,1.471,3.534,2.294,5.641,2.294c0.042,0,0.085,0,0.127-0.001c2.151-0.033,4.201-0.924,5.693-2.474l15.306-15.882l30.425,12.2  c0.142,0.058,0.221,0.088,0.368,0.138c0.75,0.266,18.374,6.799,18.374,29.338V495.832z"/>
<g>
	<path style="fill:#6CB8DD;" d="M465.736,349.013v-14.369c0-13.849-5.195-26.503-13.739-36.121   c-0.285-0.295-0.572-0.606-0.864-0.931c-3.719-3.998-8.028-7.436-12.791-10.175c-15.481-8.43-32.043-6.799-32.043-6.799   c26.792,3.402,47.58,26.325,47.58,54.027v14.369c5.136,4.197,8.423,10.574,8.423,17.708c0,11.995-9.29,21.841-21.052,22.771   c-3.214,9.868-9.983,18.141-18.791,23.306v4.6l7.969,3.196c1.315-1.394,2.61-2.803,3.888-4.221v-3.574   c3.418-2.004,6.525-4.482,9.24-7.335c1.862-2.33,3.676-4.69,5.443-7.077c1.696-2.77,3.083-5.751,4.107-8.894   c0.806-0.065,1.597-0.178,2.379-0.323c6.505-9.719,12.272-19.861,17.255-30.356C471.311,354.95,468.87,351.574,465.736,349.013z"/>
	<path style="fill:#6CB8DD;" d="M339.438,413.851l-41.812-16.769v-8.292c11.471-6.38,20.208-17.089,24.001-29.907   c5.608-0.155,10.784-2.061,15.01-5.183c1.243-1.783,2.728-3.387,4.416-4.751v-14.306c0-5.635,0.873-11.067,2.468-16.184   c-1.735-2.818-3.974-5.296-6.601-7.291V292.22c0-10.058-2.267-19.594-6.304-28.137H318.76c4.036,8.543,6.304,18.08,6.304,28.137   v18.948c6.396,4.856,10.534,12.536,10.534,21.167c0,14.398-11.521,26.152-25.827,26.547c-3.794,12.818-12.532,23.527-24.001,29.907   v8.292l41.812,16.769c5.476,1.891,13.047,6.242,19.753,13.412l8.472-3.318C350.038,418.73,344.008,415.429,339.438,413.851z"/>
	<path style="fill:#6CB8DD;" d="M187.887,353.484c-6.385-4.855-10.515-12.527-10.515-21.148c0-5.053,1.425-9.774,3.884-13.8   c-3.028-9.756-8.727-18.346-16.238-24.909h-0.001c-4.322-3.777-9.247-6.875-14.604-9.146c-14.547-5.901-28.531-4.114-28.531-4.114   c27.933,2.306,49.963,25.761,49.963,54.28v14.368c5.137,4.197,8.424,10.574,8.424,17.708c0,11.995-9.291,21.841-21.053,22.771   c-3.215,9.869-9.986,18.142-18.793,23.308v4.598l24.467,9.812c1.131-1.205,2.286-2.323,3.45-3.371l-16.061-6.442V412.8   c8.807-5.166,15.577-13.439,18.793-23.308c11.762-0.929,21.053-10.776,21.053-22.771   C192.124,361.79,190.552,357.222,187.887,353.484z"/>
	<path style="fill:#6CB8DD;" d="M307.977,247.917c0.009,0,0.017-0.001,0.017-0.001h11.839c-4.066-4.494-8.741-8.419-13.891-11.66   c-9.189-5.575-23.035-10.862-41.858-9.926C281.443,227.67,296.948,235.724,307.977,247.917z"/>
</g>
<g>
</g>
<g>
</g>
<g>
</g>
<g>
</g>
<g>
</g>
<g>
</g>
<g>
</g>
<g>
</g>
<g>
</g>
<g>
</g>
<g>
</g>
<g>
</g>
<g>
</g>
<g>
</g>
<g>
</g>
</svg>
