<?xml version="1.0" encoding="iso-8859-1"?>
<!-- Generator: Adobe Illustrator 19.0.0, SVG Export Plug-In . SVG Version: 6.00 Build 0)  -->
<svg xmlns="http://www.w3.org/2000/svg" xmlns:xlink="http://www.w3.org/1999/xlink" version="1.1" id="Layer_1" x="0px" y="0px" viewBox="0 0 512 512" style="enable-background:new 0 0 512 512;" xml:space="preserve">
<path style="fill:#75BF4D;" d="M447.831,397.493c-27.358,0-49.614,22.257-49.614,49.616c0,27.359,22.257,49.618,49.614,49.618  c27.36,0,49.619-22.259,49.619-49.618C497.449,419.751,475.191,397.493,447.831,397.493z M421.104,441.697  c1.232-1.283,2.889-1.99,4.665-1.99c1.679,0,3.268,0.641,4.479,1.803l11.969,11.491l23.192-22.347  c1.212-1.167,2.805-1.81,4.486-1.81c1.774,0,3.429,0.702,4.658,1.979c1.199,1.243,1.841,2.88,1.81,4.607  c-0.032,1.728-0.735,3.338-1.979,4.537l-27.672,26.664c-1.212,1.167-2.806,1.811-4.486,1.811c-1.679,0-3.27-0.64-4.48-1.802  l-16.455-15.8C418.718,448.371,418.635,444.27,421.104,441.697z"/>
<path style="fill:#56A846;" d="M412.767,447.108c0-24.272,18.114-44.381,41.53-47.55c-2.117-0.288-4.274-0.448-6.467-0.448  c-26.467,0-47.998,21.533-47.998,47.999c0,26.468,21.532,48.001,47.998,48.001c2.194,0,4.35-0.162,6.467-0.447  C430.881,491.491,412.767,471.381,412.767,447.108z"/>
<path style="fill:#75BF4D;" d="M255.998,397.493c-27.358,0-49.614,22.257-49.614,49.616c0,27.359,22.256,49.618,49.614,49.618  c27.36,0,49.619-22.259,49.619-49.618C305.617,419.751,283.358,397.493,255.998,397.493z M229.271,441.697  c1.232-1.283,2.889-1.99,4.665-1.99c1.678,0,3.268,0.641,4.479,1.803l11.969,11.491l23.192-22.347  c1.212-1.167,2.805-1.81,4.486-1.81c1.774,0,3.429,0.702,4.658,1.979c1.199,1.243,1.841,2.88,1.81,4.607  c-0.032,1.728-0.735,3.338-1.979,4.537l-27.672,26.664c-1.212,1.167-2.805,1.811-4.487,1.811c-1.678,0-3.269-0.64-4.479-1.802  l-16.455-15.8C226.885,448.371,226.802,444.27,229.271,441.697z"/>
<path style="fill:#56A846;" d="M220.935,447.108c0-24.272,18.114-44.381,41.53-47.55c-2.117-0.288-4.274-0.448-6.467-0.448  c-26.467,0-47.998,21.533-47.998,47.999c0,26.468,21.532,48.001,47.998,48.001c2.194,0,4.35-0.162,6.467-0.447  C239.048,491.491,220.935,471.381,220.935,447.108z"/>
<path style="fill:#75BF4D;" d="M64.166,397.493c-27.358,0-49.614,22.257-49.614,49.616c0,27.359,22.256,49.618,49.614,49.618  c27.36,0,49.619-22.259,49.619-49.618C113.786,419.751,91.526,397.493,64.166,397.493z M37.44,441.697  c1.232-1.283,2.889-1.99,4.665-1.99c1.678,0,3.268,0.641,4.479,1.803l11.969,11.491l23.192-22.347  c1.212-1.167,2.805-1.81,4.486-1.81c1.774,0,3.429,0.702,4.658,1.979c1.199,1.243,1.841,2.88,1.81,4.607  c-0.032,1.728-0.735,3.338-1.979,4.537l-27.672,26.664c-1.212,1.167-2.806,1.811-4.487,1.811c-1.678,0-3.269-0.64-4.479-1.802  l-16.455-15.8C35.054,448.371,34.97,444.27,37.44,441.697z"/>
<path style="fill:#694B4B;" d="M258.246,14.194h-3.907c-22.878,0-41.49,18.613-41.49,41.49v9.305l3.624-1.331l0.759-0.223  c0.093-0.018,0.188-0.029,0.354-0.052l0.181-0.029c0.18-0.019,0.36-0.027,0.571-0.027c0.346,0,34.84-0.25,50.453-21.835  c1.222-1.689,3.396-2.54,5.448-2.121c2.071,0.424,3.709,2.029,4.187,4.132c0.168,0.694,4.279,17.013,17.171,19.946l0.203,0.058  c0.111,0.028,0.219,0.055,0.383,0.108l3.555,1.234v-9.163C299.736,32.807,281.125,14.194,258.246,14.194z"/>
<g>
	<path style="fill:#EDBA89;" d="M260.108,137.701h-7.45c-1.576,0-3.166-0.101-4.859-0.308l-3.022-0.371v9.955l11.392,11.099   l11.818-12.264v-8.79l-3.023,0.371C263.295,137.596,261.661,137.701,260.108,137.701z"/>
	<path style="fill:#EDBA89;" d="M208.271,80.901l-0.968,0.147l-0.649,0.733c-1.55,1.752-2.403,3.995-2.403,6.318   c0,3.335,1.707,6.375,4.566,8.131l4.106,2.521V79.316l-3.62,1.325C208.973,80.76,208.627,80.848,208.271,80.901z"/>
</g>
<g>
	<path style="fill:#FBCB99;" d="M272.843,57.873l-1.607-2.769l-2.454,2.057c-14.131,11.847-32.802,15.392-42.673,16.453   l-2.407,0.258v24.096c0,15.966,12.99,28.953,28.955,28.953h7.45c15.966,0,28.953-12.989,28.953-28.953V72.721l-1.553-0.725   C281.618,69.244,276.685,64.493,272.843,57.873z"/>
	<path style="fill:#FBCB99;" d="M304.995,80.88l-0.856-0.157c-0.247-0.046-0.497-0.112-0.742-0.194l-3.558-1.203v19.526l4.206-2.851   c2.63-1.782,4.201-4.737,4.201-7.903c0-2.461-0.942-4.801-2.652-6.588L304.995,80.88z"/>
</g>
<path style="fill:#6598CB;" d="M309.707,165.193c-0.095-0.031-0.189-0.066-0.293-0.108l-32.48-13.025l-16.763,17.397  c-0.987,1.025-2.37,1.627-3.88,1.649c-1.413,0-2.749-0.543-3.761-1.53l-17.652-17.196l-32.484,12.721  c-0.081,0.032-0.162,0.063-0.292,0.107c-0.83,0.296-20.343,14.015-20.343,38.706l-4.312,23.888h148.337l4.312-23.888  C330.094,178.786,309.904,165.26,309.707,165.193z"/>
<path style="fill:#563B3B;" d="M225.783,55.686c0-21.353,16.215-38.983,36.977-41.24c-1.483-0.162-2.989-0.25-4.514-0.25h-3.907  c-22.878,0-41.49,18.613-41.49,41.49v9.305l3.624-1.331l0.759-0.223c0.093-0.018,0.188-0.029,0.354-0.052l0.181-0.029  c0.18-0.019,0.36-0.027,0.571-0.027c0.099,0,2.999-0.023,7.445-0.557v-7.086H225.783z"/>
<path style="fill:#EDBA89;" d="M236.636,97.967V73.871l2.407-0.258c8.456-0.909,23.364-3.658,36.351-11.872  c-0.892-1.214-1.752-2.491-2.55-3.869l-1.607-2.769l-2.454,2.057c-14.131,11.847-32.802,15.392-42.673,16.453l-2.407,0.258v24.096  c0,15.966,12.99,28.953,28.955,28.953h7.45c0.925,0,1.84-0.049,2.742-0.134C248.164,125.401,236.636,113.007,236.636,97.967z"/>
<path style="fill:#4982AA;" d="M215.036,165.208c0.13-0.044,0.211-0.073,0.292-0.107l23.259-9.108l-3.709-3.613l-32.485,12.721  c-0.081,0.032-0.162,0.063-0.292,0.107c-0.83,0.296-20.343,7.547-20.343,32.239v23.888h12.935v-23.888  C194.693,172.756,214.206,165.505,215.036,165.208z"/>
<g>
	<path style="fill:#202121;" d="M314.284,152.523l-32.824-13.163v-4.752c8.918-5.217,15.77-13.59,19.01-23.582   c11.868-0.909,21.252-10.833,21.252-22.927c0-7.196-3.323-13.626-8.511-17.85V55.686c0-30.307-24.657-54.964-54.963-54.964h-3.907   c-30.307,0-54.964,24.657-54.964,54.964v14.498c-5.236,4.223-8.598,10.68-8.598,17.915c0,12.186,9.526,22.163,21.52,22.941   c3.242,9.985,10.091,18.352,19.005,23.568v4.705l-33.699,13.197c-3.074,1.11-29.319,11.57-29.319,44.939v29.27   c0,4.466,3.618,8.092,8.084,8.092h26.015c4.466,0,8.084-3.618,8.084-8.084c0-4.466-3.618-8.084-8.084-8.084h-17.931v-21.194   c0-22.837,17.859-29.452,18.555-29.701c0.125-0.042,0.249-0.087,0.373-0.136l30.861-12.086l16.408,15.983   c1.51,1.471,3.534,2.294,5.641,2.294c0.042,0,0.085,0,0.128-0.001c2.151-0.033,4.199-0.924,5.692-2.474l15.503-16.09l30.795,12.349   c0.142,0.058,0.288,0.111,0.433,0.16c0.185,0.063,18.556,6.504,18.556,29.701v21.194h-46.222H231.98h-3.465   c-4.466,0-8.084,3.618-8.084,8.084c0,4.466,3.618,8.084,8.084,8.084h3.465h49.197h54.306c4.466,0,8.084-3.677,8.084-8.141v-29.221   C343.568,164.208,317.524,153.7,314.284,152.523z M302.535,93.771V83.081c0.361,0.122,0.732,0.22,1.115,0.291   c1.176,1.231,1.904,2.893,1.904,4.727C305.553,90.455,304.354,92.538,302.535,93.771z M254.339,16.889h3.907   c21.392,0,38.795,17.405,38.795,38.796v5.372c-0.025-0.009-0.051-0.013-0.075-0.022c-0.163-0.053-0.33-0.097-0.497-0.14   c-0.075-0.019-0.148-0.045-0.224-0.063c-11.439-2.602-15.174-17.851-15.203-17.967c-0.701-3.098-3.152-5.497-6.265-6.134   c-3.111-0.639-6.309,0.608-8.17,3.182c-14.821,20.491-47.85,20.719-48.269,20.719c-0.009,0-0.018,0-0.027,0   c-0.278,0-0.553,0.014-0.825,0.042c-0.08,0.009-0.157,0.026-0.237,0.036c-0.189,0.025-0.378,0.049-0.564,0.086   c-0.122,0.025-0.238,0.061-0.358,0.092c-0.139,0.036-0.279,0.065-0.415,0.107c-0.126,0.039-0.246,0.089-0.37,0.135v-5.444   C215.543,34.294,232.947,16.889,254.339,16.889z M206.945,88.098c0-1.739,0.656-3.322,1.727-4.531   c0.538-0.081,1.057-0.214,1.555-0.396v10.762C208.262,92.726,206.945,90.565,206.945,88.098z M226.396,76.297   c10.635-1.143,29.57-4.879,44.117-17.072c3.252,5.603,8.3,11.682,15.854,15.211v23.53c0,14.479-11.78,26.259-26.259,26.259h-7.45   c-14.48,0-26.261-11.78-26.261-26.259v-21.67H226.396z M256.109,154.255l-8.638-8.415v-5.773c1.701,0.208,3.43,0.329,5.187,0.329   h7.45c1.756,0,3.484-0.12,5.185-0.328v4.658L256.109,154.255z"/>
	<path style="fill:#202121;" d="M255.998,511.278c-35.381,0-64.166-28.786-64.166-64.169c0-35.382,28.785-64.167,64.166-64.167   c35.384,0,64.17,28.785,64.17,64.167C320.168,482.492,291.382,511.278,255.998,511.278z M255.998,399.109   c-26.467,0-47.998,21.533-47.998,47.999c0,26.468,21.532,48.001,47.998,48.001c26.469,0,48.002-21.534,48.002-48.001   C304,420.642,282.467,399.109,255.998,399.109z"/>
	<path style="fill:#202121;" d="M250.392,470.06c-2.018,0-4.035-0.75-5.599-2.253l-16.455-15.8c-3.221-3.092-3.324-8.21-0.233-11.43   c3.092-3.221,8.209-3.325,11.431-0.233l10.847,10.415l22.072-21.269c3.216-3.099,8.335-3.001,11.431,0.211   c3.098,3.214,3.003,8.333-0.211,11.431l-27.672,26.664C254.436,469.305,252.414,470.06,250.392,470.06z"/>
	<path style="fill:#202121;" d="M64.166,511.278C28.785,511.278,0,482.492,0,447.108c0-35.382,28.785-64.167,64.166-64.167   c35.384,0,64.17,28.785,64.17,64.167C128.337,482.492,99.55,511.278,64.166,511.278z M64.166,399.109   c-26.467,0-47.998,21.533-47.998,47.999c0,26.468,21.532,48.001,47.998,48.001c26.469,0,48.002-21.534,48.002-48.001   C112.169,420.642,90.635,399.109,64.166,399.109z"/>
	<path style="fill:#202121;" d="M58.56,470.06c-2.018,0-4.035-0.75-5.599-2.253l-16.455-15.8c-3.221-3.092-3.324-8.21-0.233-11.43   c3.091-3.221,8.21-3.325,11.43-0.233l10.847,10.415l22.072-21.269c3.216-3.099,8.334-3.001,11.43,0.211   c3.098,3.214,3.003,8.333-0.211,11.431l-27.672,26.664C62.604,469.305,60.582,470.06,58.56,470.06z"/>
	<path style="fill:#202121;" d="M447.831,511.278c-35.381,0-64.166-28.786-64.166-64.169c0-35.382,28.785-64.167,64.166-64.167   c35.383,0,64.169,28.785,64.169,64.167C512,482.492,483.214,511.278,447.831,511.278z M447.831,399.109   c-26.467,0-47.998,21.533-47.998,47.999c0,26.468,21.532,48.001,47.998,48.001c26.468,0,48.001-21.534,48.001-48.001   C495.832,420.642,474.297,399.109,447.831,399.109z"/>
	<path style="fill:#202121;" d="M442.224,470.06c-2.018,0-4.035-0.75-5.599-2.253l-16.454-15.8c-3.221-3.092-3.324-8.21-0.233-11.43   c3.092-3.221,8.209-3.325,11.431-0.233l10.845,10.415l22.073-21.269c3.216-3.099,8.334-3.001,11.43,0.211   c3.098,3.214,3.003,8.333-0.211,11.431l-27.673,26.664C446.267,469.305,444.246,470.06,442.224,470.06z"/>
	<path style="fill:#202121;" d="M447.833,292.312H264.084v-42.418c0-4.466-3.618-8.084-8.084-8.084s-8.084,3.618-8.084,8.084v42.418   H64.166c-4.466,0-8.084,3.618-8.084,8.084v63.754c0,4.466,3.618,8.084,8.084,8.084s8.084-3.618,8.084-8.084v-55.67h175.666v55.67   c0,4.466,3.618,8.084,8.084,8.084s8.084-3.618,8.084-8.084v-55.67h175.664v55.67c0,4.466,3.618,8.084,8.084,8.084   s8.084-3.618,8.084-8.084v-63.754C455.917,295.93,452.298,292.312,447.833,292.312z"/>
</g>
<path style="fill:#56A846;" d="M29.103,447.108c0-24.272,18.114-44.381,41.53-47.55c-2.117-0.288-4.274-0.448-6.467-0.448  c-26.467,0-47.998,21.533-47.998,47.999c0,26.468,21.532,48.001,47.998,48.001c2.194,0,4.35-0.162,6.467-0.447  C47.217,491.491,29.103,471.381,29.103,447.108z"/>
<g>
</g>
<g>
</g>
<g>
</g>
<g>
</g>
<g>
</g>
<g>
</g>
<g>
</g>
<g>
</g>
<g>
</g>
<g>
</g>
<g>
</g>
<g>
</g>
<g>
</g>
<g>
</g>
<g>
</g>
</svg>
