<?xml version="1.0" encoding="iso-8859-1"?>
<!-- Generator: Adobe Illustrator 19.0.0, SVG Export Plug-In . SVG Version: 6.00 Build 0)  -->
<svg xmlns="http://www.w3.org/2000/svg" xmlns:xlink="http://www.w3.org/1999/xlink" version="1.1" id="Layer_1" x="0px" y="0px" viewBox="0 0 512 512" style="enable-background:new 0 0 512 512;" xml:space="preserve">
<path style="fill:#694B4B;" d="M257.921,50.059h-3.236c-18.947,0-34.362,15.415-34.362,34.361v7.706l3.003-1.102l0.628-0.185  c0.076-0.016,0.156-0.024,0.292-0.043l0.151-0.025c0.149-0.016,0.298-0.023,0.472-0.023c0.288,0,28.854-0.205,41.783-18.082  c1.012-1.399,2.813-2.103,4.511-1.757c1.715,0.35,3.072,1.68,3.467,3.422c0.14,0.574,3.544,14.089,14.221,16.519l0.168,0.047  c0.092,0.024,0.182,0.046,0.317,0.089l2.944,1.021v-7.589C292.28,65.474,276.868,50.059,257.921,50.059z"/>
<g>
	<path style="fill:#EDBA89;" d="M259.462,152.342h-6.17c-1.305,0-2.622-0.084-4.024-0.256l-2.503-0.306v8.245l9.435,9.192   l9.787-10.157v-7.28l-2.503,0.306C262.102,152.255,260.749,152.342,259.462,152.342z"/>
	<path style="fill:#EDBA89;" d="M216.533,105.302l-0.802,0.121l-0.538,0.606c-1.283,1.45-1.991,3.308-1.991,5.232   c0,2.761,1.415,5.279,3.782,6.733l3.4,2.088v-16.095l-2.996,1.097C217.115,105.185,216.828,105.259,216.533,105.302z"/>
</g>
<g>
	<path style="fill:#FBCB99;" d="M270.01,86.232l-1.331-2.294l-2.033,1.704c-11.705,9.812-27.166,12.748-35.34,13.625l-1.993,0.214   v19.956c0,13.222,10.758,23.978,23.98,23.978h6.17c13.222,0,23.978-10.757,23.978-23.978V98.528l-1.287-0.601   C277.277,95.648,273.192,91.714,270.01,86.232z"/>
	<path style="fill:#FBCB99;" d="M296.636,105.285l-0.707-0.131c-0.205-0.038-0.412-0.092-0.614-0.16l-2.947-0.997v16.171l3.483-2.36   c2.179-1.476,3.479-3.923,3.479-6.545c0-2.038-0.781-3.976-2.196-5.456L296.636,105.285z"/>
</g>
<path style="fill:#6598CB;" d="M300.539,175.111c-0.078-0.026-0.157-0.054-0.244-0.089l-26.899-10.787l-13.882,14.407  c-0.818,0.849-1.963,1.347-3.214,1.366c-1.17,0-2.275-0.449-3.116-1.266l-14.618-14.241l-26.902,10.535  c-0.068,0.027-0.134,0.052-0.243,0.088c-0.688,0.246-16.847,11.607-16.847,32.055l-3.57,19.783h122.847l3.57-19.783  C317.423,186.366,300.702,175.166,300.539,175.111z"/>
<path style="fill:#563B3B;" d="M231.037,84.419c0-17.682,13.428-32.284,30.622-34.153c-1.229-0.134-2.475-0.207-3.738-0.207h-3.236  c-18.947,0-34.362,15.415-34.362,34.361v7.706l3.003-1.102l0.628-0.185c0.076-0.016,0.156-0.024,0.292-0.043l0.151-0.025  c0.149-0.016,0.298-0.023,0.472-0.023c0.082,0,2.485-0.019,6.167-0.461v-5.868H231.037z"/>
<path style="fill:#EDBA89;" d="M240.024,119.436V99.481l1.993-0.214c7.003-0.752,19.35-3.029,30.105-9.832  c-0.74-1.005-1.451-2.062-2.113-3.203l-1.331-2.294l-2.033,1.704c-11.705,9.812-27.166,12.748-35.34,13.625l-1.993,0.214v19.956  c0,13.222,10.758,23.978,23.98,23.978h6.17c0.767,0,1.523-0.04,2.271-0.11C249.571,142.155,240.024,131.891,240.024,119.436z"/>
<path style="fill:#4982AA;" d="M222.135,175.123c0.109-0.037,0.175-0.061,0.242-0.088l19.263-7.543l-3.072-2.992l-26.902,10.535  c-0.068,0.027-0.134,0.052-0.243,0.088c-0.688,0.246-16.847,6.25-16.847,26.699v19.783h10.712v-19.783  C205.288,181.373,221.448,175.369,222.135,175.123z"/>
<path style="fill:#202121;" d="M304.829,163.343l-26.316-10.552v-2.23c7.09-4.356,12.581-11.066,15.387-19.033  c10.101-1.228,17.957-9.839,17.957-20.265c0-6.145-2.74-11.653-7.05-15.401V84.419c0-25.854-21.033-46.887-46.887-46.887h-3.236  c-25.854,0-46.887,21.033-46.887,46.887v11.376c-4.351,3.75-7.121,9.287-7.121,15.467c0,10.506,7.974,19.178,18.187,20.3  c2.809,7.952,8.295,14.648,15.375,18.997v2.182l-27.035,10.587c-2.863,1.045-25.153,10.095-25.153,38.493v24.241  c0,4.454,3.609,8.07,8.063,8.07h18.459h3.086h24.512h40.743h44.974c4.454,0,8.063-3.658,8.063-8.111v-24.2  C329.949,173.539,307.838,164.449,304.829,163.343z M250.366,155.814c0.967,0.077,1.941,0.128,2.926,0.128h6.17  c0.986,0,1.959-0.051,2.925-0.128v1.794l-6.267,6.503l-5.755-5.606V155.814z M254.686,53.659h3.236  c16.961,0,30.76,13.799,30.76,30.76v2.642c-7.838-2.611-10.531-13.488-10.548-13.559c-0.699-3.09-3.145-5.485-6.249-6.118  c-3.104-0.635-6.293,0.605-8.149,3.174c-11.867,16.407-38.591,16.593-38.866,16.593c-0.009,0-0.016,0-0.023,0  c-0.277,0-0.552,0.014-0.822,0.042c-0.034,0.003-0.067,0.012-0.101,0.015V84.42C223.924,67.458,237.724,53.659,254.686,53.659z   M232.912,102.705c8.839-1.083,23.233-4.218,34.818-13.312c2.688,4.239,6.588,8.615,12.112,11.419v18.624  c0,11.236-9.142,20.378-20.379,20.378h-6.17c-11.237,0-20.38-9.142-20.38-20.378v-16.731H232.912z M313.823,218.006h-36.911h-40.743  h-24.512h-3.086h-10.395v-16.184c0-17.59,13.026-22.792,14.433-23.301c0.125-0.042,0.248-0.087,0.371-0.135l24.738-9.687  l12.956,12.621c1.506,1.468,3.526,2.288,5.626,2.288c0.042,0,0.085,0,0.127-0.001c2.146-0.033,4.19-0.921,5.679-2.467l12.2-12.661  l24.649,9.884c0.142,0.058,0.287,0.11,0.432,0.159c0.144,0.048,14.435,5.062,14.435,23.301v16.184H313.823z"/>
<path style="fill:#694B4B;" d="M348.946,168.615h-3.236c-18.947,0-34.362,15.415-34.362,34.361v7.706l3.003-1.102l0.628-0.185  c0.076-0.016,0.156-0.025,0.292-0.043l0.151-0.024c0.149-0.016,0.298-0.023,0.472-0.023c0.288,0,28.854-0.205,41.783-18.082  c1.012-1.399,2.813-2.103,4.511-1.757c1.715,0.35,3.072,1.68,3.467,3.422c0.14,0.574,3.544,14.089,14.221,16.519l0.168,0.047  c0.092,0.025,0.182,0.046,0.317,0.089l2.944,1.021v-7.589C383.305,184.029,367.892,168.615,348.946,168.615z"/>
<g>
	<path style="fill:#EDBA89;" d="M350.487,270.897h-6.17c-1.305,0-2.622-0.084-4.024-0.256l-2.503-0.306v8.245l9.435,9.192   l9.787-10.157v-7.28l-2.503,0.306C353.127,270.81,351.774,270.897,350.487,270.897z"/>
	<path style="fill:#EDBA89;" d="M307.558,223.858l-0.802,0.122l-0.538,0.606c-1.283,1.45-1.991,3.308-1.991,5.232   c0,2.761,1.415,5.279,3.782,6.733l3.4,2.088v-16.095l-2.996,1.097C308.139,223.742,307.852,223.815,307.558,223.858z"/>
</g>
<g>
	<path style="fill:#FBCB99;" d="M361.035,204.787l-1.331-2.294l-2.033,1.704c-11.705,9.812-27.166,12.747-35.34,13.625l-1.993,0.214   v19.956c0,13.222,10.758,23.978,23.98,23.978h6.17c13.222,0,23.978-10.757,23.978-23.978v-20.908l-1.287-0.601   C368.302,214.204,364.217,210.27,361.035,204.787z"/>
	<path style="fill:#FBCB99;" d="M387.661,223.842l-0.707-0.131c-0.205-0.038-0.412-0.092-0.614-0.16l-2.947-0.997v16.171l3.483-2.36   c2.179-1.476,3.479-3.922,3.479-6.545c0-2.037-0.781-3.976-2.196-5.456L387.661,223.842z"/>
</g>
<path style="fill:#6598CB;" d="M391.564,293.666c-0.078-0.026-0.157-0.054-0.244-0.089l-26.899-10.787l-13.882,14.407  c-0.818,0.849-1.963,1.347-3.214,1.366c-1.17,0-2.275-0.449-3.115-1.267l-14.618-14.241l-26.902,10.535  c-0.068,0.027-0.134,0.052-0.243,0.088c-0.688,0.246-16.847,11.607-16.847,32.055l-3.57,19.783h122.847l3.57-19.783  C408.448,304.923,391.727,293.722,391.564,293.666z"/>
<path style="fill:#563B3B;" d="M322.062,202.976c0-17.682,13.428-32.284,30.621-34.153c-1.229-0.134-2.475-0.207-3.738-0.207h-3.236  c-18.947,0-34.362,15.415-34.362,34.361v7.706l3.003-1.102l0.628-0.185c0.076-0.016,0.156-0.025,0.292-0.043l0.151-0.024  c0.149-0.016,0.298-0.023,0.472-0.023c0.082,0,2.485-0.019,6.167-0.461v-5.869H322.062z"/>
<path style="fill:#EDBA89;" d="M331.049,237.992v-19.956l1.993-0.214c7.003-0.752,19.35-3.029,30.105-9.832  c-0.74-1.005-1.451-2.062-2.113-3.203l-1.331-2.294l-2.033,1.704c-11.705,9.812-27.166,12.747-35.34,13.625l-1.993,0.214v19.956  c0,13.222,10.758,23.978,23.98,23.978h6.17c0.767,0,1.523-0.04,2.271-0.111C340.596,260.712,331.049,250.448,331.049,237.992z"/>
<path style="fill:#4982AA;" d="M313.16,293.679c0.109-0.037,0.175-0.061,0.242-0.088l19.263-7.543l-3.072-2.992l-26.902,10.535  c-0.068,0.027-0.134,0.052-0.243,0.088c-0.688,0.246-16.847,6.25-16.847,26.699v19.783h10.712v-19.783  C296.313,299.929,312.473,293.924,313.16,293.679z"/>
<path style="fill:#202121;" d="M395.854,281.899l-26.316-10.552v-2.23c7.09-4.356,12.581-11.066,15.387-19.033  c10.101-1.228,17.957-9.839,17.957-20.265c0-6.145-2.74-11.653-7.05-15.401v-11.441c0-25.854-21.033-46.887-46.887-46.887h-3.236  c-25.854,0-46.887,21.034-46.887,46.887v11.376c-4.351,3.75-7.12,9.287-7.12,15.467c0,10.506,7.974,19.179,18.187,20.3  c2.809,7.952,8.295,14.647,15.374,18.997v2.182l-27.035,10.587c-2.863,1.045-25.153,10.095-25.153,38.493v24.241  c0,4.454,3.609,8.07,8.063,8.07h18.459h3.086h24.512h40.743h44.974c4.454,0,8.063-3.658,8.063-8.111v-24.2  C420.975,292.096,398.863,283.004,395.854,281.899z M341.391,274.369c0.967,0.077,1.941,0.128,2.926,0.128h6.17  c0.986,0,1.959-0.051,2.925-0.128v1.794l-6.267,6.503l-5.755-5.606V274.369z M345.711,172.215h3.236  c16.961,0,30.76,13.799,30.76,30.76v2.64c-7.838-2.611-10.531-13.488-10.548-13.559c-0.699-3.09-3.145-5.485-6.249-6.118  c-3.103-0.636-6.293,0.606-8.149,3.174c-11.867,16.407-38.591,16.593-38.866,16.593c-0.009,0-0.016,0-0.023,0  c-0.277,0-0.552,0.014-0.822,0.042c-0.034,0.003-0.067,0.012-0.101,0.015v-2.787C314.949,186.014,328.748,172.215,345.711,172.215z   M323.937,221.258c8.84-1.084,23.239-4.221,34.818-13.31c2.688,4.239,6.588,8.615,12.112,11.419v18.624  c0,11.236-9.142,20.378-20.379,20.378h-6.17c-11.237,0-20.38-9.142-20.38-20.378v-16.733H323.937z M404.848,336.561h-36.911h-40.743  h-24.512h-3.086h-10.395v-16.184c0-17.59,13.026-22.793,14.433-23.301c0.125-0.042,0.248-0.087,0.371-0.135l24.738-9.687  l12.956,12.621c1.506,1.467,3.526,2.288,5.626,2.288c0.042,0,0.085,0,0.127-0.001c2.146-0.033,4.19-0.921,5.679-2.467l12.2-12.661  l24.649,9.884c0.142,0.058,0.287,0.111,0.432,0.159c0.144,0.048,14.435,5.062,14.435,23.301v16.184H404.848z"/>
<path style="fill:#694B4B;" d="M166.896,168.615h-3.236c-18.947,0-34.362,15.415-34.362,34.361v7.706l3.003-1.102l0.628-0.185  c0.076-0.016,0.155-0.025,0.292-0.043l0.151-0.024c0.149-0.016,0.298-0.023,0.472-0.023c0.288,0,28.854-0.205,41.783-18.082  c1.012-1.399,2.813-2.103,4.511-1.757c1.715,0.35,3.072,1.68,3.467,3.422c0.14,0.574,3.544,14.089,14.221,16.519l0.168,0.047  c0.092,0.025,0.182,0.046,0.317,0.089l2.944,1.021v-7.589C201.256,184.029,185.843,168.615,166.896,168.615z"/>
<g>
	<path style="fill:#EDBA89;" d="M168.438,270.897h-6.17c-1.305,0-2.621-0.084-4.024-0.256l-2.503-0.306v8.245l9.435,9.192   l9.787-10.157v-7.28l-2.503,0.306C171.077,270.81,169.725,270.897,168.438,270.897z"/>
	<path style="fill:#EDBA89;" d="M125.508,223.858l-0.802,0.122l-0.538,0.606c-1.283,1.45-1.99,3.308-1.99,5.232   c0,2.761,1.415,5.279,3.781,6.733l3.4,2.088v-16.095l-2.996,1.097C126.09,223.742,125.803,223.815,125.508,223.858z"/>
</g>
<g>
	<path style="fill:#FBCB99;" d="M178.985,204.787l-1.331-2.294l-2.033,1.704c-11.705,9.812-27.166,12.747-35.34,13.625l-1.993,0.214   v19.956c0,13.222,10.758,23.978,23.98,23.978h6.17c13.222,0,23.978-10.757,23.978-23.978v-20.908l-1.287-0.601   C186.252,214.204,182.166,210.27,178.985,204.787z"/>
	<path style="fill:#FBCB99;" d="M205.611,223.842l-0.707-0.131c-0.205-0.038-0.412-0.092-0.614-0.16l-2.947-0.997v16.171l3.483-2.36   c2.179-1.476,3.479-3.922,3.479-6.545c0-2.037-0.781-3.976-2.196-5.456L205.611,223.842z"/>
</g>
<path style="fill:#6598CB;" d="M209.515,293.666c-0.078-0.026-0.156-0.054-0.244-0.089l-26.899-10.787l-13.882,14.407  c-0.818,0.849-1.963,1.347-3.214,1.366c-1.17,0-2.275-0.449-3.115-1.267l-14.618-14.241l-26.902,10.535  c-0.068,0.027-0.134,0.052-0.243,0.088c-0.688,0.246-16.847,11.607-16.847,32.055l-3.57,19.783h122.847l3.57-19.783  C226.398,304.923,209.677,293.722,209.515,293.666z"/>
<path style="fill:#563B3B;" d="M140.011,202.976c0-17.682,13.428-32.284,30.621-34.153c-1.229-0.134-2.475-0.207-3.738-0.207h-3.236  c-18.947,0-34.362,15.415-34.362,34.361v7.706l3.003-1.102l0.628-0.185c0.076-0.016,0.155-0.025,0.292-0.043l0.151-0.024  c0.149-0.016,0.298-0.023,0.472-0.023c0.082,0,2.485-0.019,6.167-0.461v-5.869H140.011z"/>
<path style="fill:#EDBA89;" d="M148.999,237.992v-19.956l1.993-0.214c7.003-0.752,19.35-3.029,30.105-9.832  c-0.74-1.005-1.451-2.062-2.113-3.203l-1.331-2.294l-2.033,1.704c-11.705,9.812-27.166,12.747-35.34,13.625l-1.993,0.214v19.956  c0,13.222,10.758,23.978,23.98,23.978h6.17c0.767,0,1.523-0.04,2.271-0.111C158.547,260.712,148.999,250.448,148.999,237.992z"/>
<path style="fill:#4982AA;" d="M131.111,293.679c0.109-0.037,0.175-0.061,0.242-0.088l19.263-7.543l-3.072-2.992l-26.902,10.535  c-0.068,0.027-0.134,0.052-0.243,0.088c-0.688,0.246-16.847,6.25-16.847,26.699v19.783h10.712v-19.783  C114.263,299.929,130.424,293.924,131.111,293.679z"/>
<path style="fill:#202121;" d="M213.804,281.899l-26.316-10.552v-2.23c7.09-4.356,12.581-11.066,15.387-19.033  c10.101-1.228,17.957-9.839,17.957-20.265c0-6.145-2.74-11.653-7.05-15.401v-11.441c0-25.854-21.033-46.887-46.887-46.887h-3.236  c-25.854,0-46.887,21.034-46.887,46.887v11.376c-4.351,3.75-7.121,9.287-7.121,15.467c0,10.506,7.974,19.179,18.187,20.3  c2.809,7.952,8.295,14.648,15.375,18.997v2.181l-27.035,10.587c-2.863,1.045-25.153,10.095-25.153,38.494v24.241  c0,4.454,3.609,8.07,8.063,8.07h20.609h0.935h24.512h40.743h44.974c4.454,0,8.063-3.658,8.063-8.111v-24.2  C238.924,292.096,216.814,283.004,213.804,281.899z M159.341,274.369c0.967,0.077,1.941,0.128,2.926,0.128h6.17  c0.986,0,1.959-0.051,2.925-0.128v1.794l-6.267,6.503l-5.755-5.606V274.369z M163.661,172.215h3.236  c16.961,0,30.76,13.799,30.76,30.76v2.64c-7.838-2.611-10.531-13.488-10.548-13.559c-0.699-3.09-3.145-5.485-6.249-6.118  c-3.105-0.636-6.293,0.606-8.149,3.174c-11.867,16.407-38.591,16.593-38.865,16.593c-0.009,0-0.016,0-0.023,0  c-0.277,0-0.552,0.014-0.822,0.042c-0.033,0.003-0.067,0.012-0.101,0.015v-2.787C132.9,186.014,146.699,172.215,163.661,172.215z   M141.888,221.258c8.84-1.084,23.239-4.221,34.818-13.31c2.688,4.239,6.588,8.615,12.112,11.419v18.624  c0,11.236-9.142,20.378-20.379,20.378h-6.17c-11.237,0-20.38-9.142-20.38-20.378v-16.733H141.888z M222.798,336.561h-36.911h-40.743  h-24.512h-0.935h-12.546v-16.184c0-17.59,13.026-22.793,14.433-23.301c0.125-0.042,0.248-0.087,0.371-0.135l24.738-9.688  l12.956,12.621c1.506,1.468,3.526,2.288,5.626,2.288c0.042,0,0.085,0,0.127-0.001c2.146-0.033,4.19-0.921,5.679-2.467l12.2-12.661  l24.649,9.884c0.142,0.058,0.287,0.111,0.432,0.159c0.144,0.048,14.435,5.062,14.435,23.301v16.185H222.798z"/>
<path style="fill:#694B4B;" d="M439.97,290.391h-3.236c-18.947,0-34.362,15.415-34.362,34.361v7.706l3.003-1.102l0.628-0.185  c0.076-0.016,0.156-0.024,0.292-0.043l0.151-0.024c0.149-0.016,0.298-0.024,0.472-0.024c0.288,0,28.854-0.205,41.783-18.082  c1.012-1.399,2.813-2.103,4.511-1.757c1.715,0.35,3.072,1.68,3.467,3.422c0.14,0.574,3.544,14.089,14.221,16.519l0.168,0.047  c0.092,0.024,0.182,0.046,0.317,0.089l2.944,1.021v-7.589C474.33,305.806,458.918,290.391,439.97,290.391z"/>
<g>
	<path style="fill:#EDBA89;" d="M441.512,392.675h-6.17c-1.305,0-2.622-0.084-4.024-0.256l-2.503-0.306v8.245l9.435,9.192   l9.787-10.157v-7.281l-2.503,0.306C444.151,392.588,442.799,392.675,441.512,392.675z"/>
	<path style="fill:#EDBA89;" d="M398.583,345.635l-0.802,0.122l-0.538,0.607c-1.283,1.45-1.991,3.308-1.991,5.232   c0,2.761,1.415,5.279,3.782,6.733l3.4,2.088v-16.095l-2.996,1.097C399.164,345.518,398.877,345.592,398.583,345.635z"/>
</g>
<g>
	<path style="fill:#FBCB99;" d="M452.06,326.565l-1.331-2.294l-2.033,1.704c-11.705,9.812-27.166,12.748-35.34,13.625l-1.993,0.214   v19.955c0,13.222,10.758,23.978,23.98,23.978h6.17c13.222,0,23.978-10.757,23.978-23.978v-20.908l-1.287-0.601   C459.327,335.981,455.241,332.047,452.06,326.565z"/>
	<path style="fill:#FBCB99;" d="M478.685,345.618l-0.707-0.131c-0.205-0.038-0.412-0.092-0.614-0.16l-2.947-0.997v16.171l3.483-2.36   c2.179-1.476,3.479-3.922,3.479-6.545c0-2.038-0.781-3.976-2.196-5.456L478.685,345.618z"/>
</g>
<path style="fill:#6598CB;" d="M482.589,415.444c-0.078-0.026-0.157-0.054-0.244-0.089l-26.899-10.787l-13.882,14.407  c-0.818,0.849-1.963,1.347-3.214,1.365c-1.17,0-2.275-0.449-3.116-1.266l-14.618-14.241l-26.902,10.535  c-0.068,0.027-0.134,0.052-0.243,0.088c-0.688,0.246-16.847,11.607-16.847,32.056l-3.57,19.783h122.847l3.57-19.783  C499.473,426.699,482.751,415.499,482.589,415.444z"/>
<path style="fill:#563B3B;" d="M413.087,324.752c0-17.682,13.428-32.284,30.621-34.153c-1.229-0.134-2.475-0.207-3.738-0.207h-3.236  c-18.947,0-34.362,15.415-34.362,34.361v7.706l3.003-1.102l0.628-0.185c0.076-0.016,0.156-0.024,0.292-0.043l0.151-0.024  c0.149-0.016,0.298-0.024,0.472-0.024c0.082,0,2.485-0.018,6.167-0.461v-5.868H413.087z"/>
<path style="fill:#EDBA89;" d="M422.074,359.769v-19.955l1.992-0.214c7.003-0.752,19.35-3.029,30.105-9.832  c-0.74-1.004-1.451-2.062-2.113-3.203l-1.331-2.294l-2.033,1.704c-11.705,9.812-27.166,12.748-35.34,13.625l-1.993,0.214v19.955  c0,13.222,10.758,23.978,23.98,23.978h6.17c0.767,0,1.523-0.04,2.271-0.111C431.621,382.488,422.074,372.224,422.074,359.769z"/>
<path style="fill:#4982AA;" d="M404.185,415.456c0.108-0.037,0.175-0.061,0.242-0.088l19.263-7.543l-3.072-2.992l-26.902,10.535  c-0.068,0.027-0.134,0.052-0.243,0.088c-0.688,0.246-16.847,6.251-16.847,26.699v19.783h10.712v-19.783  C387.338,421.706,403.498,415.702,404.185,415.456z"/>
<path style="fill:#202121;" d="M486.878,403.674l-26.315-10.551v-2.23c7.09-4.356,12.581-11.066,15.387-19.033  c10.101-1.228,17.957-9.84,17.957-20.265c0-6.145-2.741-11.653-7.05-15.401v-11.441c0-25.854-21.033-46.887-46.887-46.887h-3.236  c-25.854,0-46.887,21.033-46.887,46.887v11.376c-4.351,3.75-7.12,9.287-7.12,15.467c0,10.506,7.974,19.178,18.187,20.3  c2.809,7.952,8.295,14.648,15.375,18.997v2.182l-27.035,10.587c-2.863,1.045-25.153,10.095-25.153,38.494v24.241  c0,4.454,3.609,8.07,8.063,8.07h21.544c4.454,0,8.063-3.609,8.063-8.063c0-4.454-3.609-8.063-8.063-8.063h-13.482v-16.184  c0-17.59,13.026-22.793,14.433-23.301c0.125-0.042,0.248-0.087,0.371-0.135l24.738-9.688l12.956,12.621  c1.506,1.468,3.526,2.288,5.626,2.288c0.042,0,0.085,0,0.127-0.001c2.146-0.033,4.19-0.921,5.679-2.467l12.2-12.661l24.649,9.884  c0.142,0.058,0.287,0.111,0.432,0.16c0.144,0.048,14.435,5.062,14.435,23.301v16.184h-36.911H418.22h-2.87  c-4.454,0-8.063,3.609-8.063,8.063c0,4.454,3.609,8.063,8.063,8.063h2.87h40.743h44.974c4.454,0,8.063-3.658,8.063-8.111v-24.2  C512,413.871,489.886,404.78,486.878,403.674z M436.735,293.992h3.236c16.961,0,30.76,13.799,30.76,30.76v2.64  c-7.838-2.611-10.531-13.488-10.548-13.559c-0.699-3.09-3.145-5.485-6.249-6.119c-3.104-0.635-6.293,0.606-8.149,3.174  c-11.867,16.407-38.591,16.593-38.865,16.593c-0.009,0-0.016,0-0.023,0c-0.277,0-0.552,0.014-0.822,0.042  c-0.033,0.003-0.067,0.012-0.101,0.015v-2.787C405.974,307.791,419.773,293.992,436.735,293.992z M414.962,343.031  c8.839-1.083,23.233-4.212,34.818-13.306c2.688,4.239,6.588,8.615,12.112,11.419v18.624c0,11.236-9.142,20.378-20.379,20.378h-6.17  c-11.237,0-20.38-9.142-20.38-20.378v-16.737H414.962z M438.171,404.444l-5.755-5.606v-2.692c0.967,0.077,1.941,0.128,2.926,0.128  h6.17c0.986,0,1.959-0.051,2.925-0.128v1.794L438.171,404.444z"/>
<path style="fill:#694B4B;" d="M257.921,290.391h-3.236c-18.947,0-34.362,15.415-34.362,34.361v7.706l3.003-1.102l0.628-0.185  c0.076-0.016,0.156-0.024,0.292-0.043l0.151-0.024c0.149-0.016,0.298-0.024,0.472-0.024c0.288,0,28.854-0.205,41.783-18.082  c1.012-1.399,2.813-2.103,4.511-1.757c1.715,0.35,3.072,1.68,3.467,3.422c0.14,0.574,3.544,14.089,14.221,16.519l0.168,0.047  c0.092,0.024,0.182,0.046,0.317,0.089l2.944,1.021v-7.589C292.28,305.806,276.868,290.391,257.921,290.391z"/>
<g>
	<path style="fill:#EDBA89;" d="M259.462,392.675h-6.17c-1.305,0-2.622-0.084-4.024-0.256l-2.503-0.306v8.245l9.435,9.192   l9.787-10.157v-7.281l-2.503,0.306C262.102,392.588,260.749,392.675,259.462,392.675z"/>
	<path style="fill:#EDBA89;" d="M216.533,345.635l-0.802,0.122l-0.538,0.607c-1.283,1.45-1.991,3.308-1.991,5.232   c0,2.761,1.415,5.279,3.782,6.733l3.4,2.088v-16.095l-2.996,1.097C217.115,345.518,216.828,345.592,216.533,345.635z"/>
</g>
<g>
	<path style="fill:#FBCB99;" d="M270.01,326.565l-1.331-2.294l-2.033,1.704c-11.705,9.812-27.166,12.748-35.34,13.625l-1.993,0.214   v19.955c0,13.222,10.758,23.978,23.98,23.978h6.17c13.222,0,23.978-10.757,23.978-23.978v-20.908l-1.287-0.601   C277.277,335.981,273.192,332.047,270.01,326.565z"/>
	<path style="fill:#FBCB99;" d="M296.636,345.618l-0.707-0.131c-0.205-0.038-0.412-0.092-0.614-0.16l-2.947-0.997v16.171l3.483-2.36   c2.179-1.476,3.479-3.922,3.479-6.545c0-2.038-0.781-3.976-2.196-5.456L296.636,345.618z"/>
</g>
<path style="fill:#6598CB;" d="M300.539,415.444c-0.078-0.026-0.157-0.054-0.244-0.089l-26.899-10.787l-13.882,14.407  c-0.818,0.849-1.963,1.347-3.214,1.365c-1.17,0-2.275-0.449-3.116-1.266l-14.618-14.241l-26.902,10.535  c-0.068,0.027-0.134,0.052-0.243,0.088c-0.688,0.246-16.847,11.607-16.847,32.056l-3.57,19.783h122.847l3.57-19.783  C317.423,426.699,300.702,415.499,300.539,415.444z"/>
<path style="fill:#563B3B;" d="M231.037,324.752c0-17.682,13.428-32.284,30.622-34.153c-1.229-0.134-2.475-0.207-3.738-0.207h-3.236  c-18.947,0-34.362,15.415-34.362,34.361v7.706l3.003-1.102l0.628-0.185c0.076-0.016,0.156-0.024,0.292-0.043l0.151-0.024  c0.149-0.016,0.298-0.024,0.472-0.024c0.082,0,2.485-0.018,6.167-0.461v-5.868H231.037z"/>
<path style="fill:#EDBA89;" d="M240.024,359.769v-19.955l1.993-0.214c7.003-0.752,19.35-3.029,30.105-9.832  c-0.74-1.004-1.451-2.062-2.113-3.203l-1.331-2.294l-2.033,1.704c-11.705,9.812-27.166,12.748-35.34,13.625l-1.993,0.214v19.955  c0,13.222,10.758,23.978,23.98,23.978h6.17c0.767,0,1.523-0.04,2.271-0.111C249.571,382.488,240.024,372.224,240.024,359.769z"/>
<path style="fill:#4982AA;" d="M222.135,415.456c0.109-0.037,0.175-0.061,0.242-0.088l19.263-7.543l-3.072-2.992l-26.902,10.535  c-0.068,0.027-0.134,0.052-0.243,0.088c-0.688,0.246-16.847,6.251-16.847,26.699v19.783h10.712v-19.783  C205.288,421.706,221.448,415.702,222.135,415.456z"/>
<path style="fill:#202121;" d="M304.828,403.674l-26.315-10.551v-2.23c7.09-4.356,12.581-11.066,15.387-19.033  c10.101-1.228,17.957-9.84,17.957-20.265c0-6.145-2.741-11.653-7.05-15.401v-11.441c0-25.854-21.033-46.887-46.887-46.887h-3.236  c-25.854,0-46.887,21.033-46.887,46.887v11.376c-4.351,3.75-7.12,9.287-7.12,15.467c0,10.506,7.974,19.178,18.187,20.3  c2.809,7.952,8.295,14.648,15.375,18.997v2.182l-27.035,10.587c-2.863,1.045-25.153,10.095-25.153,38.494v24.241  c0,4.454,3.609,8.07,8.063,8.07h21.544c4.454,0,8.063-3.609,8.063-8.063c0-4.454-3.609-8.063-8.063-8.063h-13.482v-16.184  c0-17.59,13.026-22.793,14.433-23.301c0.125-0.042,0.248-0.087,0.371-0.135l24.738-9.687l12.956,12.621  c1.506,1.468,3.526,2.288,5.626,2.288c0.042,0,0.085,0,0.127-0.001c2.146-0.033,4.19-0.921,5.679-2.467l12.2-12.661l24.649,9.884  c0.142,0.058,0.287,0.111,0.432,0.16c0.144,0.048,14.435,5.062,14.435,23.301v16.184h-36.911H236.17h-2.869  c-4.454,0-8.063,3.609-8.063,8.063s3.609,8.063,8.063,8.063h2.869h40.743h44.974c4.454,0,8.063-3.658,8.063-8.111v-24.2  C329.949,413.871,307.836,404.78,304.828,403.674z M254.686,293.992h3.236c16.961,0,30.76,13.799,30.76,30.76v2.642  c-7.838-2.611-10.531-13.488-10.548-13.559c-0.699-3.09-3.145-5.485-6.249-6.118c-3.104-0.635-6.293,0.606-8.149,3.174  c-11.867,16.407-38.591,16.593-38.866,16.593c-0.009,0-0.016,0-0.023,0c-0.277,0-0.552,0.014-0.822,0.042  c-0.034,0.003-0.067,0.012-0.101,0.015v-2.787C223.924,307.791,237.724,293.992,254.686,293.992z M232.912,343.031  c8.839-1.083,23.233-4.212,34.818-13.306c2.688,4.239,6.588,8.615,12.112,11.419v18.624c0,11.236-9.142,20.378-20.379,20.378h-6.17  c-11.237,0-20.38-9.142-20.38-20.378v-16.737H232.912z M256.121,404.444l-5.755-5.606v-2.693c0.967,0.077,1.941,0.128,2.926,0.128  h6.17c0.986,0,1.959-0.051,2.925-0.128v1.794L256.121,404.444z"/>
<path style="fill:#694B4B;" d="M75.871,290.391h-3.236c-18.947,0-34.362,15.415-34.362,34.361v7.706l3.003-1.102l0.628-0.185  c0.076-0.016,0.156-0.024,0.292-0.043l0.151-0.024c0.149-0.016,0.298-0.024,0.472-0.024c0.288,0,28.854-0.205,41.783-18.082  c1.012-1.399,2.813-2.103,4.511-1.757c1.715,0.35,3.072,1.68,3.467,3.422c0.14,0.574,3.544,14.089,14.221,16.519l0.168,0.047  c0.092,0.024,0.182,0.046,0.317,0.089l2.944,1.021v-7.589C110.231,305.806,94.818,290.391,75.871,290.391z"/>
<g>
	<path style="fill:#EDBA89;" d="M77.413,392.675h-6.17c-1.305,0-2.621-0.084-4.024-0.256l-2.503-0.306v8.245l9.435,9.192   l9.787-10.157v-7.281l-2.503,0.306C80.052,392.588,78.7,392.675,77.413,392.675z"/>
	<path style="fill:#EDBA89;" d="M34.483,345.635l-0.802,0.122l-0.538,0.607c-1.283,1.45-1.991,3.308-1.991,5.232   c0,2.761,1.415,5.279,3.782,6.733l3.4,2.088v-16.095l-2.996,1.097C35.065,345.518,34.778,345.592,34.483,345.635z"/>
</g>
<g>
	<path style="fill:#FBCB99;" d="M87.96,326.565l-1.331-2.294l-2.033,1.704c-11.705,9.812-27.166,12.748-35.34,13.625l-1.993,0.214   v19.955c0,13.222,10.758,23.978,23.98,23.978h6.17c13.222,0,23.978-10.757,23.978-23.978v-20.908l-1.287-0.601   C95.227,335.981,91.141,332.047,87.96,326.565z"/>
	<path style="fill:#FBCB99;" d="M114.586,345.618l-0.707-0.131c-0.205-0.038-0.412-0.092-0.614-0.16l-2.947-0.997v16.171l3.483-2.36   c2.179-1.476,3.479-3.922,3.479-6.545c0-2.038-0.781-3.976-2.196-5.456L114.586,345.618z"/>
</g>
<path style="fill:#6598CB;" d="M118.49,415.444c-0.078-0.026-0.157-0.054-0.244-0.089l-26.899-10.787l-13.882,14.407  c-0.818,0.849-1.963,1.347-3.214,1.365c-1.17,0-2.275-0.449-3.115-1.266l-14.618-14.241l-26.902,10.535  c-0.068,0.027-0.134,0.052-0.243,0.088c-0.688,0.246-16.847,11.607-16.847,32.056l-3.57,19.783h122.847l3.57-19.783  C135.373,426.699,118.652,415.499,118.49,415.444z"/>
<path style="fill:#563B3B;" d="M48.987,324.752c0-17.682,13.428-32.284,30.621-34.153c-1.229-0.134-2.475-0.207-3.738-0.207h-3.236  c-18.947,0-34.362,15.415-34.362,34.361v7.706l3.003-1.102l0.628-0.185c0.076-0.016,0.156-0.024,0.292-0.043l0.151-0.024  c0.149-0.016,0.298-0.024,0.472-0.024c0.082,0,2.485-0.018,6.167-0.461v-5.868H48.987z"/>
<path style="fill:#EDBA89;" d="M57.975,359.769v-19.955l1.993-0.214c7.003-0.752,19.35-3.029,30.105-9.832  c-0.74-1.004-1.451-2.062-2.113-3.203l-1.331-2.294l-2.033,1.704c-11.705,9.812-27.166,12.748-35.34,13.625l-1.993,0.214v19.955  c0,13.222,10.758,23.978,23.98,23.978h6.17c0.767,0,1.523-0.04,2.271-0.111C67.522,382.488,57.975,372.224,57.975,359.769z"/>
<path style="fill:#4982AA;" d="M40.086,415.456c0.109-0.037,0.175-0.061,0.242-0.088l19.263-7.543l-3.072-2.992l-26.902,10.535  c-0.068,0.027-0.134,0.052-0.243,0.088c-0.688,0.246-16.847,6.251-16.847,26.699v19.783H23.24v-19.783  C23.239,421.706,39.399,415.702,40.086,415.456z"/>
<path style="fill:#202121;" d="M122.778,403.674l-26.315-10.551v-2.23c7.09-4.356,12.581-11.066,15.387-19.033  c10.101-1.228,17.957-9.84,17.957-20.265c0-6.145-2.74-11.653-7.05-15.401v-11.441c0-25.854-21.033-46.887-46.887-46.887h-3.236  c-25.854,0-46.887,21.033-46.887,46.887v11.376c-4.351,3.75-7.121,9.287-7.121,15.467c0,10.506,7.974,19.178,18.187,20.3  c2.809,7.952,8.295,14.648,15.375,18.997v2.182l-27.035,10.587C22.29,404.707,0,413.757,0,442.155v24.241  c0,4.454,3.609,8.07,8.063,8.07h21.544c4.454,0,8.063-3.609,8.063-8.063s-3.609-8.063-8.063-8.063H16.127v-16.184  c0-17.59,13.026-22.793,14.433-23.301c0.125-0.042,0.248-0.087,0.371-0.135l24.738-9.687l12.956,12.621  c1.506,1.468,3.526,2.288,5.626,2.288c0.042,0,0.085,0,0.127-0.001c2.146-0.033,4.19-0.921,5.679-2.467l12.2-12.661l24.649,9.884  c0.142,0.058,0.287,0.111,0.432,0.16c0.144,0.048,14.435,5.062,14.435,23.301v16.184H94.862H54.119H51.25  c-4.454,0-8.063,3.609-8.063,8.063c0,4.454,3.609,8.063,8.063,8.063h2.869h40.743h44.974c4.454,0,8.063-3.658,8.063-8.111v-24.2  C147.9,413.871,125.787,404.78,122.778,403.674z M72.636,293.992h3.236c16.961,0,30.76,13.799,30.76,30.76v2.64  c-7.838-2.611-10.531-13.488-10.548-13.559c-0.699-3.09-3.145-5.485-6.249-6.119c-3.103-0.635-6.293,0.606-8.149,3.174  c-11.867,16.407-38.591,16.593-38.866,16.593c-0.009,0-0.016,0-0.023,0c-0.277,0-0.552,0.014-0.822,0.042  c-0.034,0.003-0.067,0.012-0.101,0.015v-2.787C41.875,307.791,55.674,293.992,72.636,293.992z M50.863,343.031  c8.839-1.083,23.232-4.212,34.818-13.306c2.688,4.239,6.588,8.615,12.112,11.419v18.624c0,11.236-9.142,20.378-20.379,20.378h-6.17  c-11.237,0-20.38-9.142-20.38-20.378v-16.737H50.863z M74.071,404.444l-5.755-5.606v-2.692c0.967,0.077,1.941,0.128,2.926,0.128  h6.17c0.986,0,1.959-0.051,2.925-0.128v1.794L74.071,404.444z"/>
<g>
</g>
<g>
</g>
<g>
</g>
<g>
</g>
<g>
</g>
<g>
</g>
<g>
</g>
<g>
</g>
<g>
</g>
<g>
</g>
<g>
</g>
<g>
</g>
<g>
</g>
<g>
</g>
<g>
</g>
</svg>
