<?xml version="1.0" encoding="iso-8859-1"?>
<!-- Generator: Adobe Illustrator 19.0.0, SVG Export Plug-In . SVG Version: 6.00 Build 0)  -->
<svg xmlns="http://www.w3.org/2000/svg" xmlns:xlink="http://www.w3.org/1999/xlink" version="1.1" id="Layer_1" x="0px" y="0px" viewBox="0 0 512 512" style="enable-background:new 0 0 512 512;" xml:space="preserve">
<g>
	<path style="fill:#6598CB;" d="M263.108,137.241h76.416l-1.116-2.327c-1.469-3.057-3.291-6.063-5.571-9.187   c-20.85-28.577-5.468-42.228-4.795-42.802l0.126-0.105c4.689-3.791,9.791-5.713,15.165-5.713c1.6,0,3.229,0.177,4.844,0.524   c5.999,1.296,12.081,5.043,18.078,11.136l2.782,2.827V37.111c0-0.963,0.089-2.002,0.271-3.177l0.29-1.872h-106.49v105.18H263.108z    M323.194,50.45c0,3.583-2.914,6.497-6.497,6.497h-5.59c-3.583,0-6.497-2.914-6.497-6.497s2.914-6.497,6.497-6.497h5.59   C320.279,43.953,323.194,46.868,323.194,50.45z M295.528,50.45c0,3.583-2.914,6.497-6.497,6.497h-5.591   c-3.583,0-6.497-2.914-6.497-6.497s2.914-6.497,6.497-6.497h5.591C292.614,43.953,295.528,46.868,295.528,50.45z"/>
	<path style="fill:#6598CB;" d="M124.445,179.061c-9.894,7.219-19.062,10.879-27.252,10.879c-10.244,0-15.331-5.827-15.551-6.083   l-0.104-0.126c-4.91-6.072-6.703-12.991-5.189-20.008c1.295-5.998,5.042-12.08,11.136-18.077l2.827-2.782H35.83   c-0.965,0-1.974-0.086-3.178-0.27l-1.87-0.287v106.485h105.18v-76.417l-2.327,1.116   C130.574,174.961,127.569,176.782,124.445,179.061z M49.171,216.372c3.583,0,6.497,2.914,6.497,6.497v5.59   c0,3.583-2.914,6.497-6.497,6.497c-3.583,0-6.497-2.914-6.497-6.497v-5.59C42.674,219.286,45.589,216.372,49.171,216.372z    M49.171,207.29c-3.583,0-6.497-2.914-6.497-6.497v-5.59c0-3.583,2.914-6.497,6.497-6.497c3.583,0,6.497,2.914,6.497,6.497v5.59   C55.669,204.376,52.755,207.29,49.171,207.29z"/>
	<path style="fill:#6598CB;" d="M374.657,264.389v76.415l2.327-1.116c3.059-1.469,6.065-3.292,9.188-5.571   c9.895-7.219,19.063-10.881,27.251-10.881c10.252,0,15.332,5.827,15.552,6.085l0.104,0.126c4.91,6.073,6.704,12.992,5.189,20.009   c-1.295,5.999-5.043,12.081-11.136,18.078l-2.827,2.782h60.981c0.971,0,1.981,0.086,3.177,0.27l1.872,0.288V264.388H374.657   V264.389z M461.449,296.808c-3.583,0-6.497-2.914-6.497-6.497v-5.59c0-3.583,2.914-6.497,6.497-6.497s6.497,2.914,6.497,6.497v5.59   C467.946,293.894,465.031,296.808,461.449,296.808z M461.449,305.89c3.583,0,6.497,2.914,6.497,6.497v5.59   c0,3.583-2.914,6.497-6.497,6.497s-6.497-2.914-6.497-6.497v-5.59C454.952,308.804,457.866,305.89,461.449,305.89z"/>
	<path style="fill:#6598CB;" d="M172.21,378.266c1.469,3.059,3.292,6.065,5.571,9.188c20.852,28.577,5.47,42.228,4.796,42.803   l-0.126,0.104c-4.69,3.792-9.792,5.714-15.164,5.714c-1.597,0-3.227-0.177-4.845-0.525c-5.999-1.296-12.08-5.043-18.077-11.136   l-2.782-2.827v60.98c0,0.971-0.086,1.982-0.27,3.177l-0.289,1.872h106.487V375.938h-76.417L172.21,378.266z M187.425,462.728   c0-3.582,2.914-6.497,6.497-6.497h5.591c3.583,0,6.497,2.915,6.497,6.497c0,3.583-2.914,6.497-6.497,6.497h-5.591   C190.339,469.225,187.425,466.31,187.425,462.728z M215.091,462.728c0-3.582,2.914-6.497,6.497-6.497h5.591   c3.583,0,6.497,2.915,6.497,6.497c0,3.583-2.914,6.497-6.497,6.497h-5.591C218.005,469.225,215.091,466.31,215.091,462.728z"/>
</g>
<g>
	<path style="fill:#FBCB99;" d="M336.443,92.895c-2.768,3.462-2.624,12.132,6.89,25.171c9.432,12.927,11.252,22.907,12.858,31.715   c2.24,12.289,4.011,21.996,27.264,39.611c1.611,1.221,2.574,3.158,2.574,5.179v21.134h80.632v-30.912   c0-2.285,1.221-4.428,3.187-5.591c12.794-7.572,16.819-44.575,16.352-66.116l-0.002-41.503c0-4.342-3.532-7.876-7.873-7.876h-0.581   c-4.342,0-7.873,3.533-7.873,7.876v34.991c0,3.583-2.914,6.497-6.497,6.497s-6.497-2.914-6.497-6.497V37.11   c0-4.341-3.531-7.872-7.872-7.872h-0.581c-3.723,0-6.967,2.644-7.713,6.29l-0.033,12.387c0,0.347-0.034,0.709-0.103,1.11   l-0.024,0.138l0.024,0.615c0.068,0.401,0.103,0.763,0.103,1.11v55.688c0,3.583-2.914,6.497-6.497,6.497   c-3.583,0-6.497-2.914-6.497-6.497V56.313l-0.024-0.277c-0.068-0.401-0.103-0.763-0.103-1.11V37.111   c0-0.708,0.04-1.448,0.118-2.196l0.009-11.833c0-4.341-3.531-7.872-7.872-7.872h-0.581c-4.342,0-7.875,3.531-7.875,7.872v83.494   c0,3.583-2.914,6.497-6.497,6.497s-6.497-2.914-6.497-6.497l0.004-68.928l0.01-0.287l-0.014-0.249c0-4.341-3.532-7.872-7.873-7.872   h-0.58c-4.341,0-7.873,3.531-7.873,7.872v74.772c0,0.07-0.007,0.141-0.011,0.21l-0.016,0.263l0.008,0.105   c0.195,2.634-1.203,5.1-3.562,6.286c-0.916,0.46-1.895,0.694-2.911,0.694c-2.472,0-4.699-1.372-5.811-3.581   c-4.629-9.159-14.924-23.516-24.309-25.532c-0.741-0.158-1.427-0.237-2.1-0.237c-2.213,0-4.37,0.827-6.596,2.527L336.443,92.895z"/>
	<path style="fill:#FBCB99;" d="M155.899,370.723l-0.018-0.074c-0.6-2.57-1.053-5.055-1.453-7.249   c-2.24-12.289-4.011-21.996-27.264-39.611c-1.611-1.221-2.574-3.158-2.574-5.179v-21.134H43.959v30.912   c0,2.285-1.221,4.428-3.187,5.591c-12.765,7.555-16.804,44.566-16.351,66.117l0.002,41.502c0,4.342,3.532,7.875,7.873,7.875h0.58   c4.342,0,7.875-3.533,7.875-7.875v-34.993c0-3.583,2.914-6.497,6.497-6.497c3.583,0,6.497,2.914,6.497,6.497v69.464   c0,4.341,3.531,7.872,7.872,7.872h0.581c3.722,0,6.965-2.644,7.713-6.289l0.032-12.389c0-0.346,0.034-0.709,0.103-1.11l0.024-0.138   l-0.024-0.615c-0.068-0.401-0.103-0.763-0.103-1.11v-55.686c0-3.583,2.914-6.497,6.497-6.497s6.497,2.914,6.497,6.497v50.262   l0.024,0.277c0.068,0.401,0.103,0.763,0.103,1.11v17.815c0,0.708-0.04,1.448-0.118,2.196l-0.009,11.833   c0,4.341,3.531,7.872,7.872,7.872h0.581c4.342,0,7.873-3.531,7.873-7.872v-83.494c0-3.583,2.914-6.497,6.497-6.497   c3.583,0,6.497,2.914,6.497,6.497l-0.004,68.928l-0.01,0.287l0.014,0.249c0,4.341,3.531,7.872,7.871,7.872h0.581   c4.342,0,7.873-3.531,7.873-7.872v-74.772c0-0.069,0.007-0.139,0.011-0.207l0.016-0.263l-0.008-0.106   c-0.196-2.635,1.202-5.102,3.56-6.288c0.916-0.459,1.894-0.693,2.911-0.693c2.473,0,4.7,1.371,5.812,3.58   c4.629,9.159,14.924,23.516,24.307,25.531c0.743,0.16,1.43,0.239,2.104,0.239c2.212,0,4.368-0.827,6.592-2.528l0.282-0.276   c2.768-3.463,2.623-12.134-6.89-25.171C159.876,384.959,157.307,376.745,155.899,370.723z"/>
	<path style="fill:#FBCB99;" d="M488.819,412.632h-83.495c-3.583,0-6.497-2.914-6.497-6.497s2.914-6.497,6.497-6.497l68.929,0.004   l0.288,0.01l0.248-0.014c4.341,0,7.872-3.531,7.872-7.872v-0.58c0-4.342-3.531-7.873-7.872-7.873h-74.772   c-0.073,0-0.144-0.007-0.215-0.011l-0.262-0.016l-0.104,0.008c-2.647,0.194-5.105-1.214-6.284-3.562   c-1.606-3.197-0.313-7.108,2.884-8.719c9.16-4.631,23.52-14.927,25.535-24.311c0.41-1.911,0.618-4.892-2.29-8.695l-0.277-0.284   c-1.244-0.993-3.17-1.54-5.42-1.54c-3.739,0-10.201,1.464-19.75,8.432c-12.931,9.434-22.91,11.253-31.715,12.857   c-12.288,2.24-21.995,4.01-39.61,27.265c-1.221,1.611-3.158,2.574-5.179,2.574h-21.135v80.631h30.912   c2.285,0,4.428,1.221,5.591,3.187c7.67,12.963,44.369,16.388,62.701,16.388c1.166,0,2.305-0.013,3.412-0.036l41.507-0.002   c4.342,0,7.875-3.532,7.875-7.872v-0.581c0-4.342-3.532-7.875-7.875-7.875h-34.993c-3.583,0-6.497-2.914-6.497-6.497   s2.914-6.497,6.497-6.497h69.465c4.341,0,7.872-3.531,7.872-7.872v-0.58c0-3.721-2.642-6.964-6.284-7.712l-12.393-0.034   c-0.344,0-0.71-0.034-1.118-0.105l-0.136-0.024l-0.602,0.024c-0.407,0.07-0.773,0.105-1.118,0.105h-55.687   c-3.583,0-6.497-2.915-6.497-6.497c0-3.583,2.914-6.497,6.497-6.497h50.255l0.275-0.024c0.409-0.07,0.775-0.105,1.12-0.105h17.815   c0.715,0,1.455,0.04,2.2,0.118l11.829,0.01c4.341,0,7.872-3.531,7.872-7.872v-0.583   C496.692,416.164,493.16,412.632,488.819,412.632z"/>
	<path style="fill:#FBCB99;" d="M177.921,42.051c-7.672-12.962-44.348-16.387-62.67-16.387c-1.177,0-2.326,0.012-3.446,0.036   l-41.503,0.002c-4.342,0-7.875,3.532-7.875,7.873v0.583c0,4.342,3.532,7.873,7.875,7.873h34.993c3.583,0,6.497,2.914,6.497,6.497   c0,3.583-2.914,6.497-6.497,6.497H35.83c-4.341,0-7.873,3.531-7.873,7.872v0.58c0,3.72,2.643,6.964,6.286,7.713l12.392,0.032   c0.344,0,0.71,0.034,1.119,0.105l0.138,0.023l0.599-0.023c0.408-0.07,0.774-0.105,1.119-0.105h55.687   c3.583,0,6.497,2.914,6.497,6.497s-2.914,6.497-6.497,6.497H55.038l-0.276,0.023c-0.407,0.07-0.773,0.105-1.118,0.105H35.83   c-0.715,0-1.455-0.04-2.2-0.118L21.8,84.218c-4.341,0-7.872,3.531-7.872,7.872v0.583c0,4.342,3.531,7.873,7.872,7.873h83.495   c3.583,0,6.497,2.914,6.497,6.497c0,3.583-2.914,6.497-6.497,6.497l-68.929-0.004l-0.287-0.01l-0.249,0.014   c-4.341,0-7.873,3.532-7.873,7.873v0.579c0,4.342,3.532,7.875,7.873,7.875h74.772c0.069,0,0.14,0.007,0.208,0.011l0.261,0.016   l0.106-0.008c2.628-0.215,5.108,1.211,6.289,3.562c1.607,3.199,0.313,7.11-2.888,8.721c-9.159,4.63-23.515,14.926-25.529,24.309   c-0.41,1.911-0.618,4.891,2.289,8.694l0.276,0.283c1.244,0.994,3.17,1.542,5.421,1.542c3.737,0,10.198-1.463,19.75-8.433   c12.93-9.434,22.91-11.253,31.715-12.857c12.288-2.24,21.995-4.01,39.611-27.265c1.221-1.611,3.158-2.574,5.179-2.574h21.134   V45.239h-30.912C181.226,45.239,179.084,44.017,177.921,42.051z"/>
</g>
<g>
	<path style="fill:#EDBA89;" d="M437.543,112.121c0.571,3.003,3.213,5.282,6.38,5.282c3.583,0,6.497-2.914,6.497-6.497V55.221   c0-0.347-0.034-0.709-0.103-1.11l-0.024-0.615l0.024-0.138c0.068-0.401,0.103-0.763,0.103-1.11l0.032-12.387   c0.607-2.966,2.87-5.27,5.698-6.025c-1.245-2.707-3.977-4.596-7.149-4.596h-0.581c-3.723,0-6.967,2.644-7.713,6.29l-0.033,12.387   c0,0.347-0.034,0.709-0.103,1.11l-0.024,0.138l0.024,0.615c0.068,0.401,0.103,0.763,0.103,1.11v55.684   C440.674,108.925,439.417,110.981,437.543,112.121z"/>
	<path style="fill:#EDBA89;" d="M473.117,117.403c3.583,0,6.497-2.914,6.497-6.497V75.915c0-3.646,2.494-6.712,5.863-7.605   c-1.245-2.71-3.979-4.601-7.152-4.601h-0.581c-4.342,0-7.873,3.533-7.873,7.876v34.99c0,2.35-1.257,4.405-3.131,5.546   C467.309,115.125,469.949,117.403,473.117,117.403z"/>
	<path style="fill:#EDBA89;" d="M378.655,118.625c0.29,0.535,0.565,1.06,0.822,1.566c1.112,2.209,3.338,3.581,5.811,3.581   c1.016,0,1.995-0.234,2.911-0.694c2.358-1.186,3.756-3.652,3.562-6.286l-0.008-0.105l0.016-0.263   c0.004-0.069,0.011-0.14,0.011-0.21V41.442c0-3.644,2.494-6.708,5.86-7.602c-1.245-2.711-3.979-4.602-7.152-4.602h-0.58   c-4.341,0-7.873,3.531-7.873,7.872v74.772c0,0.07-0.007,0.141-0.011,0.21l-0.016,0.263l0.008,0.105   C382.201,115.014,380.883,117.401,378.655,118.625z"/>
	<path style="fill:#EDBA89;" d="M395.775,215.705v-16.803c0-2.022-0.963-3.958-2.574-5.179   c-23.253-17.616-25.023-27.322-27.264-39.611c-1.606-8.808-3.426-18.789-12.858-31.715c-9.514-13.039-9.658-21.709-6.89-25.171   l0.283-0.276c2.225-1.7,4.382-2.527,6.596-2.527c0.056,0,0.113,0.009,0.17,0.01c-2.584-2.056-5.233-3.55-7.816-4.104   c-0.741-0.158-1.427-0.237-2.1-0.237c-2.213,0-4.37,0.827-6.596,2.527l-0.283,0.276c-2.768,3.462-2.624,12.132,6.89,25.171   c9.432,12.927,11.252,22.907,12.858,31.715c2.24,12.289,4.011,21.996,27.264,39.611c1.611,1.221,2.574,3.158,2.574,5.179v21.134   H395.775z"/>
	<path style="fill:#EDBA89;" d="M414.601,117.403c3.583,0,6.497-2.914,6.497-6.497V27.413c0-3.644,2.493-6.708,5.862-7.602   c-1.245-2.711-3.978-4.602-7.152-4.602h-0.581c-4.342,0-7.875,3.531-7.875,7.872v83.494c0,2.35-1.257,4.405-3.132,5.546   C408.793,115.125,411.434,117.403,414.601,117.403z"/>
	<path style="fill:#EDBA89;" d="M150.635,401.651c-1.112-2.209-3.338-3.58-5.812-3.58c-1.017,0-1.995,0.234-2.911,0.693   c-0.07,0.036-0.133,0.083-0.201,0.121c4.945,9.144,14.621,22.061,23.485,23.965c0.68,0.147,1.314,0.217,1.934,0.23   C160.326,417.66,153.992,408.291,150.635,401.651z"/>
	<path style="fill:#EDBA89;" d="M34.169,445.928l-0.002-41.502c-0.453-21.55,3.586-58.562,16.351-66.117   c1.965-1.163,3.187-3.306,3.187-5.591v-30.912h70.886v-4.331H43.959v30.912c0,2.285-1.221,4.428-3.187,5.591   c-12.765,7.555-16.804,44.566-16.351,66.117l0.002,41.502c0,4.342,3.532,7.875,7.873,7.875h0.58c0.696,0,1.37-0.101,2.013-0.271   C34.431,448.203,34.169,447.097,34.169,445.928z"/>
	<path style="fill:#EDBA89;" d="M63.491,480.401v-69.464c0-3.583-2.914-6.497-6.497-6.497c-1.233,0-2.383,0.351-3.366,0.951   c0.074,0.394,0.117,0.799,0.117,1.215v69.464c0,4.341,3.531,7.872,7.872,7.872h0.581c0.693,0,1.369-0.092,2.014-0.265   C63.754,482.678,63.491,481.571,63.491,480.401z"/>
	<path style="fill:#EDBA89;" d="M122.007,480.401l-0.014-0.249l0.01-0.287l0.004-68.928c0-3.583-2.914-6.497-6.497-6.497   c-1.233,0-2.383,0.351-3.367,0.951c0.075,0.394,0.118,0.799,0.118,1.215l-0.004,68.928l-0.01,0.287l0.014,0.249   c0,4.341,3.531,7.872,7.871,7.872h0.581c0.697,0,1.369-0.1,2.012-0.271C122.269,482.674,122.007,481.568,122.007,480.401z"/>
	<path style="fill:#EDBA89;" d="M92.685,494.431l0.009-11.833c0.078-0.748,0.118-1.488,0.118-2.196v-17.815   c0-0.347-0.034-0.709-0.103-1.11l-0.024-0.277v-50.262c0-3.583-2.914-6.497-6.497-6.497c-1.233,0-2.383,0.351-3.367,0.951   c0.075,0.394,0.118,0.799,0.118,1.215v50.262l0.024,0.277c0.068,0.401,0.103,0.763,0.103,1.11v17.815   c0,0.708-0.04,1.448-0.118,2.196l-0.009,11.833c0,4.341,3.531,7.872,7.872,7.872h0.581c0.697,0,1.369-0.1,2.012-0.271   C92.947,496.704,92.685,495.598,92.685,494.431z"/>
	<path style="fill:#EDBA89;" d="M408.951,412.632c0.894,2.52,3.296,4.331,6.118,4.331h80.77c-1.298-2.565-3.955-4.331-7.02-4.331   H408.951z"/>
	<path style="fill:#EDBA89;" d="M476.378,441.988l-12.393-0.034c-0.344,0-0.71-0.034-1.118-0.105l-0.136-0.024l-0.602,0.024   c-0.407,0.07-0.773,0.105-1.118,0.105h-52.059c0.894,2.519,3.296,4.331,6.118,4.331h55.687c0.344,0,0.71-0.034,1.118-0.105   l0.602-0.024l0.136,0.024c0.407,0.07,0.773,0.105,1.118,0.105l8.153,0.022C480.843,444.144,478.84,442.495,476.378,441.988z"/>
	<path style="fill:#EDBA89;" d="M440.318,471.147h-31.367c0.894,2.519,3.296,4.331,6.118,4.331h32.27   C446.041,472.913,443.385,471.147,440.318,471.147z"/>
	<path style="fill:#EDBA89;" d="M402.898,384.061c1.179,2.348,3.636,3.755,6.284,3.562l0.104-0.008l0.262,0.016   c0.072,0.004,0.143,0.011,0.216,0.011h72.047c-1.299-2.565-3.954-4.331-7.02-4.331h-72.206   C402.674,383.564,402.774,383.816,402.898,384.061z"/>
	<path style="fill:#EDBA89;" d="M342.443,475.459c-1.163-1.965-3.306-3.187-5.591-3.187h-3.382   c2.888,3.816,8.396,6.745,15.135,8.966C345.88,479.562,343.74,477.65,342.443,475.459z"/>
	<path style="fill:#EDBA89;" d="M305.94,391.64h21.135c2.022,0,3.958-0.963,5.179-2.574c17.616-23.255,27.322-25.024,39.61-27.265   c8.805-1.604,18.783-3.423,31.715-12.857c7.75-5.656,13.465-7.685,17.343-8.248c-0.383-0.844-0.915-1.742-1.642-2.692l-0.277-0.284   c-1.244-0.993-3.17-1.54-5.42-1.54c-3.739,0-10.201,1.464-19.75,8.432c-12.931,9.434-22.91,11.253-31.715,12.857   c-12.288,2.24-21.995,4.01-39.61,27.265c-1.221,1.611-3.158,2.574-5.179,2.574h-21.135v80.631h9.746V391.64z"/>
	<path style="fill:#EDBA89;" d="M34.242,71.191l4.239,0.012c-0.498-1.036-0.78-2.188-0.78-3.394v-0.58   c0-4.341,3.532-7.872,7.873-7.872h69.465c3.583,0,6.497-2.914,6.497-6.497c0-3.583-2.914-6.497-6.497-6.497h-3.629   c0.241,0.679,0.38,1.406,0.38,2.166c0,3.583-2.914,6.497-6.497,6.497H35.83c-4.341,0-7.873,3.531-7.873,7.872v0.58   C27.956,67.198,30.6,70.441,34.242,71.191z"/>
	<path style="fill:#EDBA89;" d="M70.302,42.031h2.723c-0.54-1.066-0.851-2.268-0.851-3.542v-0.583c0-4.341,3.532-7.872,7.873-7.872   l41.503-0.002c1.119-0.025,2.269-0.036,3.446-0.036c12.125,0,32.282,1.504,46.759,6.275c-13.4-8.236-41.281-10.607-56.505-10.607   c-1.177,0-2.326,0.012-3.446,0.036l-41.503,0.002c-4.342,0-7.875,3.532-7.875,7.873v0.583   C62.428,38.499,65.96,42.031,70.302,42.031z"/>
	<path style="fill:#EDBA89;" d="M187.667,46.382c1.163,1.965,3.306,3.187,5.591,3.187h21.167v-4.331h-27.531   C187.175,45.612,187.435,45.992,187.667,46.382z"/>
	<path style="fill:#EDBA89;" d="M98.793,170.811c2.014-9.383,16.371-19.679,25.529-24.309c3.201-1.61,4.495-5.523,2.888-8.721   c-1.181-2.351-3.661-3.777-6.289-3.562l-0.106,0.008l-0.261-0.016c-0.068-0.004-0.139-0.011-0.208-0.011h-2.567   c1.076,3.037-0.248,6.483-3.202,7.97c-9.159,4.63-23.515,14.926-25.529,24.309c-0.41,1.911-0.618,4.891,2.289,8.694l0.276,0.283   c1.244,0.994,3.17,1.542,5.421,1.542c0.705,0,1.507-0.053,2.408-0.184C98.291,174.281,98.486,172.245,98.793,170.811z"/>
	<path style="fill:#EDBA89;" d="M37.702,126.325v-0.579c0-4.341,3.532-7.873,7.873-7.873l0.249-0.014l0.287,0.01l68.929,0.004   c3.583,0,6.497-2.914,6.497-6.497c0-3.583-2.914-6.497-6.497-6.497h-3.629c0.241,0.679,0.38,1.406,0.38,2.166   c0,3.583-2.914,6.497-6.497,6.497l-68.929-0.004l-0.287-0.01l-0.249,0.014c-4.341,0-7.873,3.532-7.873,7.873v0.579   c0,4.342,3.532,7.875,7.873,7.875h2.726C38.013,128.802,37.702,127.6,37.702,126.325z"/>
	<path style="fill:#EDBA89;" d="M23.673,97.005v-0.583c0-4.341,3.531-7.872,7.872-7.872l11.829,0.01   c0.745,0.078,1.486,0.118,2.2,0.118h17.815c0.344,0,0.71-0.034,1.118-0.105l0.276-0.023h50.257c3.583,0,6.497-2.914,6.497-6.497   c0-3.583-2.914-6.497-6.497-6.497h-3.629c0.241,0.679,0.38,1.406,0.38,2.166c0,3.583-2.914,6.497-6.497,6.497H55.038l-0.276,0.023   c-0.407,0.07-0.773,0.105-1.118,0.105H35.83c-0.715,0-1.455-0.04-2.2-0.118L21.8,84.218c-4.341,0-7.872,3.531-7.872,7.872v0.583   c0,4.342,3.531,7.873,7.872,7.873h2.726C23.984,99.481,23.673,98.279,23.673,97.005z"/>
</g>
<g>
	<rect x="376.282" y="230.324" style="fill:#EFF2F9;" width="101.929" height="19.447"/>
	<rect x="32.406" y="263.405" style="fill:#EFF2F9;" width="101.929" height="19.447"/>
	<rect x="262.127" y="377.56" style="fill:#EFF2F9;" width="19.446" height="101.929"/>
	<rect x="229.046" y="33.688" style="fill:#EFF2F9;" width="19.447" height="101.929"/>
</g>
<g style="opacity:0.27;">
	<rect x="25.623" y="137.241" style="fill:#202121;" width="23.985" height="153.95"/>
</g>
<g style="opacity:0.27;">
	<rect x="367.544" y="225.137" style="fill:#202121;" width="23.985" height="114.556"/>
</g>
<g style="opacity:0.27;">
	<rect x="132.509" y="463.474" style="fill:#202121;" width="153.95" height="23.985"/>
</g>
<g style="opacity:0.27;">
	<rect x="223.48" y="119.288" style="fill:#202121;" width="117.598" height="23.985"/>
</g>
<g>
	<path style="fill:#202121;" d="M49.862,214.158c-4.486,0-8.121,3.635-8.121,8.121v5.59c0,4.485,3.635,8.121,8.121,8.121   s8.121-3.636,8.121-8.121v-5.59C57.984,217.793,54.348,214.158,49.862,214.158z"/>
	<path style="fill:#202121;" d="M49.862,186.492c-4.486,0-8.121,3.635-8.121,8.121v5.59c0,4.486,3.635,8.121,8.121,8.121   s8.121-3.635,8.121-8.121v-5.59C57.984,190.128,54.348,186.492,49.862,186.492z"/>
	<path style="fill:#202121;" d="M470.26,284.131c0-4.486-3.635-8.121-8.121-8.121c-4.486,0-8.121,3.635-8.121,8.121v5.59   c0,4.486,3.635,8.121,8.121,8.121c4.486,0,8.121-3.635,8.121-8.121V284.131z"/>
	<path style="fill:#202121;" d="M462.139,303.676c-4.486,0-8.121,3.635-8.121,8.121v5.59c0,4.486,3.635,8.121,8.121,8.121   c4.486,0,8.121-3.635,8.121-8.121v-5.59C470.26,307.311,466.625,303.676,462.139,303.676z"/>
	<path style="fill:#202121;" d="M496.71,398.605c0.816-2.327,1.26-4.827,1.26-7.429v-0.58c0-3.953-1.033-7.668-2.832-10.899   c0.001-0.058,0.009-0.116,0.009-0.174v-74.211c0-4.486-3.635-8.121-8.121-8.121c-4.486,0-8.121,3.635-8.121,8.121v63.082   c-1.12-0.172-2.257-0.289-3.424-0.289h-0.601h-40.762h-9.157c5.371-5.285,10.032-11.7,11.585-18.894   c1.623-7.513-0.284-14.904-5.514-21.372c-0.045-0.056-0.091-0.113-0.139-0.167c-0.608-0.711-15.215-17.18-44.988,4.546   c-3.212,2.343-6.158,4.086-8.935,5.419v-72.21h101.933v12.273c0,4.486,3.635,8.121,8.121,8.121c4.486,0,8.121-3.635,8.121-8.121   v-56.084c0-4.485-3.635-8.121-8.121-8.121h-5.056v-25.186c8.759-7.624,14.504-21.943,17.502-43.533   c2.274-16.372,2.062-31.066,2.035-32.503V70.993c0-12.403-10.09-22.494-22.492-22.494h-0.581c-2.168,0-4.264,0.308-6.249,0.884   V36.52c0-12.401-10.089-22.49-22.491-22.49h-0.581c-2.569,0-5.028,0.454-7.329,1.251C438.767,6.409,430.375,0,420.499,0h-0.581   c-9.885,0-18.301,6.409-21.311,15.291c-2.327-0.818-4.828-1.262-7.431-1.262h-0.58c-3.971,0-7.699,1.044-10.941,2.858   c-0.239-0.022-0.481-0.037-0.726-0.037H221.611c-4.486,0-8.121,3.635-8.121,8.121v5.057h-25.186   c-7.624-8.759-21.943-14.504-43.533-17.502c-16.373-2.274-31.065-2.062-32.503-2.035H70.993c-12.402,0-22.492,10.089-22.492,22.492   v0.583c0,2.168,0.308,4.264,0.883,6.249H36.52c-12.402,0-22.492,10.089-22.492,22.491v0.58c0,2.569,0.454,5.028,1.251,7.33   C6.408,73.231,0,81.624,0,91.5v0.583c0,9.884,6.409,18.3,15.29,21.311c-0.818,2.327-1.262,4.828-1.262,7.431v0.579   c0,3.949,1.03,7.658,2.824,10.887v158.098c0,4.486,3.635,8.121,8.121,8.121h5.056v25.186c-8.759,7.624-14.504,21.943-17.501,43.533   c-2.274,16.372-2.062,31.065-2.035,32.503v41.275c0,12.403,10.089,22.493,22.492,22.493h0.58c2.168,0,4.265-0.309,6.25-0.883   v12.862c0,12.401,10.089,22.49,22.491,22.49h0.581c2.569,0,5.028-0.454,7.329-1.251C73.233,505.591,81.625,512,91.501,512h0.581   c9.885,0,18.301-6.409,21.311-15.29c2.327,0.816,4.827,1.26,7.429,1.26h0.581c3.948,0,7.657-1.03,10.885-2.823h29.364   c4.486,0,8.121-3.635,8.121-8.121c0-4.486-3.635-8.121-8.121-8.121h-18.045c0.172-1.12,0.289-2.257,0.289-3.424v-0.601v-40.761   v-9.156c5.285,5.371,11.699,10.032,18.893,11.584c1.738,0.376,3.471,0.562,5.187,0.562c5.698,0,11.214-2.056,16.185-6.076   c0.057-0.045,0.113-0.091,0.167-0.139c0.711-0.607,17.176-15.217-4.546-44.988c-2.343-3.212-4.085-6.157-5.419-8.935h72.213   v101.932h-59.663c-4.486,0-8.121,3.635-8.121,8.121s3.635,8.121,8.121,8.121h103.474c4.486,0,8.121-3.635,8.121-8.121v-5.057   h25.186c7.624,8.759,21.943,14.504,43.533,17.502c13.239,1.838,25.38,2.051,30.302,2.051c1.165,0,1.925-0.012,2.2-0.017h41.277   c12.402,0,22.492-10.089,22.492-22.492v-0.581c0-2.168-0.309-4.266-0.883-6.251h12.862c12.401,0,22.491-10.089,22.491-22.49v-0.58   c0-2.569-0.454-5.028-1.251-7.329c8.871-3.015,15.28-11.407,15.28-21.284v-0.583C512,410.031,505.591,401.613,496.71,398.605z    M376.972,249.181v-19.447h101.933v19.447H376.972z M391.176,30.273c3.446,0,6.249,2.802,6.249,6.247c0,0.102,0.012,0.2,0.015,0.3   c-0.003,0.101-0.015,0.199-0.015,0.3v68.864c0,4.486,3.635,8.121,8.121,8.121s8.121-3.635,8.121-8.121V37.121   c0-0.102-0.011-0.2-0.015-0.3c0.003-0.101,0.015-0.199,0.015-0.3V22.491c0-3.446,2.803-6.248,6.249-6.248h0.581   c3.446,0,6.248,2.802,6.248,6.248v11.665c-0.081,0.777-0.127,1.566-0.127,2.365v17.815c0,0.474,0.049,0.936,0.127,1.387v50.262   c0,4.486,3.635,8.121,8.121,8.121c4.486,0,8.121-3.635,8.121-8.121V50.3c0-0.474-0.049-0.936-0.127-1.387v-0.199   c0.078-0.452,0.127-0.914,0.127-1.387V35.264c0.584-2.846,3.107-4.992,6.121-4.992h0.581c3.446,0,6.248,2.802,6.248,6.247v28.658   v5.816v34.991c0,4.486,3.635,8.121,8.121,8.121c4.486,0,8.121-3.635,8.121-8.121V70.993c0-3.447,2.804-6.251,6.249-6.251h0.581   c3.447,0,6.249,2.805,6.249,6.251v41.358c0,0.06,0.001,0.117,0.002,0.177c0.494,22.744-4.005,57.851-15.554,64.686   c-2.469,1.462-3.985,4.119-3.985,6.989v29.288h-77.383v-19.51c0-2.543-1.191-4.938-3.217-6.473   c-22.751-17.235-24.47-26.668-26.647-38.608c-1.637-8.977-3.492-19.151-13.144-32.38c-9.656-13.234-8.813-20.849-6.934-23.2   c3.226-2.465,5.628-2.367,7.368-1.992c8.766,1.882,18.883,16.132,23.201,24.676c2.016,4.004,6.896,5.618,10.9,3.605   c3.027-1.52,4.687-4.676,4.452-7.856c0.009-0.153,0.023-0.304,0.023-0.459V77.881v-40.76V36.52c0-3.446,2.804-6.247,6.249-6.247   C390.594,30.273,391.176,30.273,391.176,30.273z M368.104,36.52v0.601v40.761v9.157c-5.285-5.371-11.7-10.032-18.894-11.585   c-7.511-1.621-14.904,0.284-21.372,5.514c-0.056,0.045-0.113,0.091-0.167,0.139c-0.711,0.606-17.177,15.217,4.545,44.988   c2.343,3.212,4.085,6.157,5.419,8.934h-72.21V33.094h102.97C368.22,34.215,368.104,35.353,368.104,36.52z M229.733,33.094h19.447   v101.933h-19.447V33.094z M16.243,91.5c0-3.446,2.802-6.247,6.248-6.247h11.658c0.78,0.082,1.57,0.128,2.371,0.128h17.815   c0.476,0,0.94-0.049,1.394-0.128h50.257c4.486,0,8.121-3.636,8.121-8.121c0-4.486-3.635-8.121-8.121-8.121H50.299   c-0.476,0-0.94,0.049-1.394,0.128H48.72c-0.454-0.079-0.917-0.128-1.394-0.128H35.26c-2.844-0.585-4.988-3.108-4.988-6.121v-0.581   c0-3.446,2.804-6.248,6.249-6.248h28.657h5.816h34.993c4.486,0,8.121-3.635,8.121-8.121s-3.635-8.121-8.121-8.121H70.993   c-3.447,0-6.249-2.804-6.249-6.249v-0.584c0-3.446,2.804-6.249,6.249-6.249h41.358c0.06,0,0.117-0.001,0.177-0.002   c22.729-0.499,57.851,4.005,64.686,15.554c1.462,2.469,4.119,3.985,6.989,3.985h29.288v77.382h-19.51   c-2.543,0-4.939,1.191-6.474,3.217c-17.236,22.752-26.668,24.472-38.608,26.648c-8.977,1.636-19.152,3.492-32.38,13.143   c-13.231,9.655-20.847,8.817-23.2,6.935c-2.465-3.225-2.366-5.623-1.991-7.368c1.881-8.765,16.13-18.88,24.674-23.2   c4.004-2.014,5.619-6.893,3.606-10.9c-1.52-3.028-4.679-4.688-7.859-4.453c-0.152-0.009-0.301-0.023-0.455-0.023h-33.41H37.12   h-0.601c-3.446,0-6.249-2.805-6.249-6.251v-0.579c0-3.446,2.804-6.248,6.249-6.248c0.102,0,0.2-0.012,0.3-0.015   c0.101,0.003,0.199,0.015,0.3,0.015h68.865c4.486,0,8.121-3.636,8.121-8.121c0-4.486-3.635-8.121-8.121-8.121H37.12   c-0.102,0-0.2,0.012-0.3,0.015c-0.101-0.003-0.199-0.015-0.3-0.015h-14.03c-3.446,0-6.248-2.804-6.248-6.25V91.5z M135.027,282.266   H33.095v-19.447h101.932C135.027,262.819,135.027,282.266,135.027,282.266z M135.027,246.576H33.095V143.607   c1.12,0.172,2.257,0.289,3.424,0.289h0.601h40.761h9.156c-5.371,5.285-10.031,11.699-11.584,18.893   c-1.622,7.513,0.284,14.904,5.513,21.372c0.045,0.056,0.092,0.113,0.14,0.167c0.368,0.431,5.876,6.647,16.782,6.645   c7.094,0,16.474-2.63,28.206-11.191c3.212-2.343,6.158-4.086,8.935-5.419v72.213H135.027z M173.596,418.681   c-3.223,2.466-5.623,2.368-7.367,1.992c-8.766-1.882-18.882-16.132-23.2-24.676c-2.016-4.004-6.896-5.615-10.9-3.606   c-3.028,1.521-4.688,4.679-4.453,7.859c-0.009,0.152-0.023,0.302-0.023,0.456v33.41v40.761v0.601c0,3.446-2.804,6.247-6.249,6.247   h-0.581c-3.446,0-6.248-2.802-6.248-6.247c0-0.102-0.011-0.2-0.015-0.3c0.003-0.101,0.015-0.199,0.015-0.3v-68.864   c0-4.486-3.635-8.121-8.121-8.121s-8.121,3.635-8.121,8.121v68.864c0,0.102,0.011,0.2,0.015,0.3   c-0.003,0.101-0.015,0.199-0.015,0.3v14.029c0,3.446-2.804,6.248-6.249,6.248h-0.581c-3.446,0-6.248-2.802-6.248-6.248v-11.663   c0.081-0.777,0.127-1.567,0.127-2.366v-17.815c0-0.474-0.049-0.936-0.127-1.388v-50.262c0-4.486-3.635-8.121-8.121-8.121   c-4.486,0-8.121,3.635-8.121,8.121V461.7c0,0.474,0.049,0.936,0.127,1.388v0.198c-0.078,0.452-0.127,0.914-0.127,1.388v12.062   c-0.584,2.845-3.107,4.991-6.121,4.991h-0.581c-3.446,0-6.248-2.802-6.248-6.247v-28.657v-5.816v-34.993   c0-4.486-3.635-8.121-8.121-8.121s-8.121,3.635-8.121,8.121v34.993c0,3.447-2.805,6.25-6.25,6.25h-0.58   c-3.446,0-6.249-2.805-6.249-6.25V399.65c0-0.057-0.001-0.116-0.002-0.173c-0.478-22.756,4.031-57.869,15.553-64.689   c2.469-1.462,3.985-4.119,3.985-6.989v-29.288h77.383v19.51c0,2.543,1.191,4.939,3.217,6.473   c22.751,17.235,24.47,26.668,26.647,38.608c0.431,2.365,0.881,4.818,1.482,7.383c0.001,0.008,0.004,0.015,0.005,0.023   c1.678,7.165,4.553,15.242,11.655,24.974C176.318,408.714,175.476,416.329,173.596,418.681z M169.5,360.188   c-2.374-13.02-4.826-26.468-29.601-46.148v-15.53h3.25c4.486,0,8.121-3.635,8.121-8.121v-120.79c0.181-0.032,0.361-0.066,0.541-0.1   c13.02-2.374,26.468-4.826,46.148-29.602h15.53v3.251c0,4.486,3.635,8.121,8.121,8.121h120.79c0.034,0.181,0.066,0.361,0.1,0.543   c2.374,13.021,4.826,26.468,29.601,46.148v15.53h-3.251c-4.486,0-8.121,3.636-8.121,8.121V342.4   c-0.181,0.032-0.359,0.066-0.54,0.099c-13.021,2.374-26.469,4.826-46.148,29.602h-15.531v-3.25c0-4.486-3.635-8.121-8.121-8.121   H169.599C169.566,360.549,169.533,360.37,169.5,360.188z M282.266,478.904H262.82V376.972h19.446V478.904z M481.728,449.691   c0,3.446-2.802,6.247-6.248,6.247h-28.657h-5.815h-34.994c-4.486,0-8.121,3.635-8.121,8.121c0,4.486,3.635,8.121,8.121,8.121   h34.994c3.447,0,6.249,2.805,6.249,6.251v0.581c0,3.446-2.803,6.249-6.249,6.249h-41.36c-0.06,0-0.117,0.001-0.176,0.002   c-22.737,0.489-57.851-4.004-64.686-15.554c-1.462-2.469-4.119-3.985-6.989-3.985h-29.288v-77.382h19.511   c2.543,0,4.939-1.191,6.474-3.217c17.235-22.752,26.666-24.471,38.607-26.648c8.978-1.636,19.153-3.492,32.38-13.143   c13.231-9.655,20.847-8.812,23.2-6.935c2.466,3.225,2.367,5.623,1.992,7.369c-1.882,8.766-16.137,18.883-24.679,23.202   c-4.001,2.016-5.615,6.893-3.602,10.899c1.519,3.024,4.673,4.684,7.851,4.452c0.155,0.009,0.308,0.024,0.465,0.024h33.409h40.762   h0.601c3.446,0,6.248,2.804,6.248,6.249v0.58c0,3.446-2.802,6.247-6.248,6.247c-0.102,0-0.2,0.012-0.3,0.015   c-0.101-0.003-0.199-0.015-0.3-0.015h-68.865c-4.486,0-8.121,3.636-8.121,8.121c0,4.486,3.635,8.121,8.121,8.121h68.865   c0.102,0,0.2-0.012,0.3-0.015c0.101,0.003,0.199,0.015,0.3,0.015h14.029c3.446,0,6.248,2.803,6.248,6.25v0.583   c0,3.446-2.802,6.247-6.248,6.247h-11.658c-0.78-0.082-1.57-0.128-2.371-0.128h-17.815c-0.476,0-0.94,0.049-1.394,0.128h-50.257   c-4.486,0-8.121,3.636-8.121,8.121c0,4.486,3.635,8.121,8.121,8.121h55.687c0.476,0,0.94-0.049,1.394-0.128h0.186   c0.454,0.079,0.917,0.128,1.394,0.128h12.066c2.842,0.585,4.987,3.108,4.987,6.121v0.58H481.728z"/>
	<path style="fill:#202121;" d="M227.87,470.259c4.486,0,8.121-3.635,8.121-8.121c0-4.486-3.635-8.121-8.121-8.121h-5.591   c-4.486,0-8.121,3.635-8.121,8.121c0,4.486,3.635,8.121,8.121,8.121H227.87z"/>
	<path style="fill:#202121;" d="M194.613,470.259h5.591c4.486,0,8.121-3.635,8.121-8.121c0-4.486-3.635-8.121-8.121-8.121h-5.591   c-4.486,0-8.121,3.635-8.121,8.121C186.492,466.623,190.127,470.259,194.613,470.259z"/>
	<path style="fill:#202121;" d="M284.131,57.982h5.591c4.486,0,8.121-3.635,8.121-8.121s-3.635-8.121-8.121-8.121h-5.591   c-4.486,0-8.121,3.635-8.121,8.121C276.01,54.346,279.645,57.982,284.131,57.982z"/>
	<path style="fill:#202121;" d="M311.797,57.982h5.59c4.486,0,8.121-3.635,8.121-8.121s-3.635-8.121-8.121-8.121h-5.59   c-4.486,0-8.121,3.635-8.121,8.121S307.312,57.982,311.797,57.982z"/>
</g>
<g>
</g>
<g>
</g>
<g>
</g>
<g>
</g>
<g>
</g>
<g>
</g>
<g>
</g>
<g>
</g>
<g>
</g>
<g>
</g>
<g>
</g>
<g>
</g>
<g>
</g>
<g>
</g>
<g>
</g>
</svg>
