<?xml version="1.0" encoding="iso-8859-1"?>
<!-- Generator: Adobe Illustrator 19.0.0, SVG Export Plug-In . SVG Version: 6.00 Build 0)  -->
<svg version="1.1" id="Capa_1" xmlns="http://www.w3.org/2000/svg" xmlns:xlink="http://www.w3.org/1999/xlink" x="0px" y="0px"
	 viewBox="0 0 512 512" style="enable-background:new 0 0 512 512;" xml:space="preserve">
<path style="fill:#00448F;" d="M503.467,332.8v170.667H409.6v-59.733l-1.024-1.024c18.603-17.749,41.984-40.533,56.32-54.528
	c6.963-7.108,6.835-18.517-0.273-25.472c-6.955-6.81-18.057-6.861-25.071-0.128L409.6,392.533V384c0-28.279,22.921-51.2,51.2-51.2
	H503.467z"/>
<path style="fill:#F5D0C7;" d="M503.467,221.867V307.2h-51.2c-23.561,0-42.667-19.106-42.667-42.667v-42.667H503.467z"/>
<path style="fill:#FFCB5A;" d="M503.467,221.867H409.6V204.8c0.026-9.412,7.654-17.041,17.067-17.067h42.667
	C488.184,187.733,503.467,203.017,503.467,221.867z"/>
<path style="fill:#62BEFF;" d="M464.981,362.581c7.049,7.014,7.066,18.415,0.051,25.463c-0.043,0.043-0.094,0.094-0.137,0.137
	c-14.336,13.995-37.717,36.779-56.32,54.528c-15.616,15.104-27.904,26.624-28.757,26.624h-89.685L256,435.2h110.933l42.667-42.667
	l29.952-29.952C446.609,355.644,457.924,355.644,464.981,362.581z"/>
<rect x="231.875" y="445.176" transform="matrix(-0.7071 0.7071 -0.7071 -0.7071 768.8931 620.1381)" style="fill:#F5D0C7;" width="48.273" height="48.273"/>
<path style="fill:#62BEFF;" d="M256,435.2l-34.133,34.133h-89.685c-0.597,0-12.971-11.691-28.672-26.709
	c-18.603-17.835-41.984-40.533-56.32-54.443c-7.066-6.972-7.142-18.364-0.171-25.429c6.972-7.066,18.364-7.142,25.429-0.171
	l29.952,29.952l42.667,42.667H256z"/>
<path style="fill:#00448F;" d="M103.509,442.624l-1.109,1.109v59.733H8.533V332.8H51.2c28.279,0,51.2,22.921,51.2,51.2v8.533
	l-29.952-29.952c-7.066-6.972-18.458-6.895-25.429,0.171c-6.972,7.066-6.895,18.458,0.171,25.429
	C61.525,402.091,84.907,424.789,103.509,442.624z"/>
<path style="fill:#F5D0C7;" d="M102.4,221.867v42.667c0,23.561-19.106,42.667-42.667,42.667h-51.2v-85.333H102.4z"/>
<path style="fill:#FF8030;" d="M102.4,187.733v34.133H8.533c0-18.85,15.283-34.133,34.133-34.133H102.4z"/>
<g>
	<path style="fill:#FFCB5A;" d="M204.8,119.467c-28.203-0.068-51.012-22.989-50.944-51.2c0.068-28.203,22.989-51.012,51.2-50.944
		s51.012,22.989,50.944,51.2c-0.034,13.483-5.402,26.411-14.925,35.951C231.458,114.091,218.402,119.484,204.8,119.467z
		 M204.8,34.133c-18.773,0.077-33.937,15.351-33.86,34.133c0.077,18.782,15.351,33.937,34.133,33.86
		c18.782-0.077,33.937-15.351,33.86-34.133c-0.034-8.986-3.627-17.596-9.993-23.936C222.515,37.692,213.845,34.125,204.8,34.133z"/>
	<rect x="196.267" y="110.933" style="fill:#FFCB5A;" width="17.067" height="25.6"/>
	<rect x="196.267" style="fill:#FFCB5A;" width="17.067" height="25.6"/>
	
		<rect x="235.51" y="94.726" transform="matrix(-0.7071 0.7071 -0.7071 -0.7071 492.6341 10.979)" style="fill:#FFCB5A;" width="17.067" height="25.583"/>
	
		<rect x="157.012" y="16.225" transform="matrix(-0.7071 0.7071 -0.7071 -0.7071 303.122 -67.5238)" style="fill:#FFCB5A;" width="17.067" height="25.583"/>
	<rect x="247.467" y="59.733" style="fill:#FFCB5A;" width="25.6" height="17.067"/>
	<rect x="136.533" y="59.733" style="fill:#FFCB5A;" width="25.6" height="17.067"/>
	
		<rect x="231.258" y="20.495" transform="matrix(-0.7071 0.7071 -0.7071 -0.7071 437.144 -123.0138)" style="fill:#FFCB5A;" width="25.583" height="17.067"/>
	
		<rect x="152.757" y="98.984" transform="matrix(-0.7071 0.7071 -0.7071 -0.7071 358.6352 66.4837)" style="fill:#FFCB5A;" width="25.583" height="17.067"/>
	<path style="fill:#FFCB5A;" d="M273.067,221.867c-28.203-0.068-51.012-22.989-50.944-51.2c0.068-28.203,22.989-51.012,51.2-50.944
		c28.203,0.068,51.012,22.989,50.944,51.2c-0.034,13.483-5.402,26.411-14.925,35.951
		C299.725,216.491,286.669,221.884,273.067,221.867z M273.067,136.533c-18.773,0.077-33.937,15.351-33.86,34.133
		c0.077,18.773,15.351,33.937,34.133,33.86c18.773-0.077,33.937-15.351,33.86-34.133c-0.034-8.986-3.627-17.596-9.993-23.936
		C290.782,140.092,282.112,136.525,273.067,136.533z"/>
</g>
<g>
	<path style="fill:#F5B05C;" d="M367.462,210.321l-15.736-6.613c4.412-10.453,6.682-21.692,6.673-33.041h17.067
		C375.484,184.286,372.762,197.769,367.462,210.321z"/>
	<path style="fill:#F5B05C;" d="M346.232,126.78c-10.641-17.673-27.281-30.925-46.882-37.342l5.282-16.213
		c23.492,7.689,43.443,23.569,56.201,44.74L346.232,126.78z"/>
	<path style="fill:#F5B05C;" d="M192.358,233.6c-14.106-17.937-21.751-40.115-21.692-62.933h17.067
		c-0.051,19.012,6.323,37.487,18.074,52.437L192.358,233.6z"/>
	<path style="fill:#F5B05C;" d="M273.067,273.067c-8.559-0.009-17.092-1.067-25.395-3.157l4.19-16.555
		c6.929,1.758,14.054,2.645,21.205,2.645V273.067z"/>
</g>
<g>
	<rect x="264.533" y="213.333" style="fill:#FFCB5A;" width="17.067" height="25.6"/>
	<rect x="264.533" y="102.4" style="fill:#FFCB5A;" width="17.067" height="25.6"/>
	
		<rect x="221.015" y="201.388" transform="matrix(-0.7071 0.7071 -0.7071 -0.7071 547.5693 193.0315)" style="fill:#FFCB5A;" width="25.583" height="17.067"/>
	
		<rect x="299.516" y="122.89" transform="matrix(-0.7071 0.7071 -0.7071 -0.7071 626.0721 3.5194)" style="fill:#FFCB5A;" width="25.583" height="17.067"/>
	<rect x="204.8" y="162.133" style="fill:#FFCB5A;" width="25.6" height="17.067"/>
	<rect x="315.733" y="162.133" style="fill:#FFCB5A;" width="25.6" height="17.067"/>
	
		<rect x="225.279" y="118.62" transform="matrix(-0.7071 0.7071 -0.7071 -0.7071 492.0646 59.0034)" style="fill:#FFCB5A;" width="17.067" height="25.583"/>
	
		<rect x="303.777" y="197.164" transform="matrix(-0.7071 0.7071 -0.7071 -0.7071 681.6069 137.5791)" style="fill:#FFCB5A;" width="17.067" height="25.583"/>
</g>
<g>
	<path style="fill:#E3BAAF;" d="M42.667,264.533H25.6v-17.067c0-4.71,3.823-8.533,8.533-8.533H51.2V256h-8.533V264.533z"/>
	<path style="fill:#E3BAAF;" d="M486.4,264.533h-17.067V256H460.8v-17.067h17.067c4.71,0,8.533,3.823,8.533,8.533V264.533z"/>
</g>
<path d="M136.533,59.733V76.8h17.835c1.28,7.603,4.275,14.814,8.747,21.086l-12.621,12.621l12.066,12.066l12.621-12.621
	c6.272,4.471,13.483,7.467,21.086,8.747v17.835h17.067v-17.835c7.603-1.28,14.814-4.275,21.086-8.747l12.621,12.621l12.066-12.066
	l-12.621-12.621c4.471-6.272,7.467-13.483,8.747-21.086h17.835V59.733h-17.835c-1.28-7.603-4.275-14.814-8.747-21.086l12.621-12.621
	L247.04,13.961l-12.621,12.621c-6.272-4.471-13.483-7.467-21.086-8.747V0h-17.067v17.835c-7.603,1.28-14.814,4.275-21.086,8.747
	L162.56,13.961l-12.066,12.066l12.621,12.621c-4.471,6.272-7.467,13.483-8.747,21.086H136.533z M204.8,34.133
	c18.85,0,34.133,15.283,34.133,34.133S223.65,102.4,204.8,102.4s-34.133-15.283-34.133-34.133S185.95,34.133,204.8,34.133z"/>
<path d="M351.753,203.691l15.727,6.622c5.291-12.544,8.013-26.027,7.987-39.646H358.4
	C358.417,182.007,356.156,193.237,351.753,203.691z"/>
<path d="M299.375,89.481c19.601,6.383,36.241,19.635,46.857,37.308l14.618-8.798c-12.74-21.197-32.7-37.086-56.209-44.74
	L299.375,89.481z"/>
<path d="M170.667,170.667c-0.068,22.81,7.561,44.979,21.658,62.916l13.449-10.496c-11.742-14.95-18.091-33.417-18.039-52.42H170.667
	z"/>
<path d="M247.654,269.875c8.303,2.125,16.845,3.191,25.412,3.191V256c-7.142,0.009-14.251-0.887-21.171-2.662L247.654,269.875z"/>
<path d="M341.333,179.2v-17.067h-17.835c-1.28-7.603-4.275-14.814-8.747-21.086l12.621-12.621l-12.066-12.066l-12.621,12.621
	c-6.272-4.471-13.483-7.467-21.086-8.747V102.4h-17.067v17.835c-7.603,1.28-14.814,4.275-21.086,8.747l-12.621-12.621
	l-12.066,12.066l12.621,12.621c-4.471,6.272-7.467,13.483-8.747,21.086H204.8V179.2h17.835c1.28,7.603,4.275,14.814,8.747,21.086
	l-12.621,12.621l12.066,12.066l12.621-12.621c6.272,4.471,13.483,7.467,21.086,8.747v17.835H281.6v-17.835
	c7.603-1.28,14.814-4.275,21.086-8.747l12.621,12.621l12.066-12.066l-12.621-12.621c4.471-6.272,7.467-13.483,8.747-21.086H341.333z
	 M273.067,204.8c-18.85,0-34.133-15.283-34.133-34.133s15.283-34.133,34.133-34.133s34.133,15.283,34.133,34.133
	S291.917,204.8,273.067,204.8z"/>
<path d="M0,221.867V307.2c0,4.71,3.823,8.533,8.533,8.533h51.2c28.262-0.026,51.174-22.938,51.2-51.2v-76.8
	c0-4.71-3.823-8.533-8.533-8.533H42.667C19.115,179.226,0.026,198.315,0,221.867z M59.733,298.667H17.067V230.4h76.8v34.133
	C93.867,283.383,78.583,298.667,59.733,298.667z M93.867,213.333h-75.23c3.601-10.189,13.218-17.024,24.03-17.067h51.2V213.333z"/>
<path d="M25.6,247.467v17.067h17.067V256H51.2v-17.067H34.133C29.423,238.933,25.6,242.756,25.6,247.467z"/>
<path d="M469.333,179.2h-42.667c-14.14,0-25.6,11.46-25.6,25.6v59.733c0.026,28.262,22.938,51.174,51.2,51.2h51.2
	c4.71,0,8.533-3.823,8.533-8.533v-85.333C511.974,198.315,492.885,179.226,469.333,179.2z M426.667,196.267h42.667
	c10.812,0.043,20.429,6.878,24.03,17.067h-75.23V204.8C418.133,200.09,421.956,196.267,426.667,196.267z M452.267,298.667
	c-18.85,0-34.133-15.283-34.133-34.133V230.4h76.8v68.267H452.267z"/>
<path d="M477.867,238.933H460.8V256h8.533v8.533H486.4v-17.067C486.4,242.756,482.577,238.933,477.867,238.933z"/>
<path d="M503.467,324.267H460.8c-32.973,0.043-59.691,26.761-59.733,59.733v5.001l-37.666,37.666H259.533L244.966,412.1
	L232.9,424.166l2.5,2.5h-86.801l-37.666-37.666V384c-0.043-32.973-26.761-59.691-59.733-59.733H8.533
	C3.823,324.267,0,328.09,0,332.8v170.667C0,508.177,3.823,512,8.533,512H102.4c4.71,0,8.533-3.823,8.533-8.533v-41.813
	c17.152,16.213,18.432,16.213,21.205,16.213h86.187l31.633,31.633c3.328,3.328,8.738,3.328,12.066,0l31.642-31.633h86.187
	c2.714,0,4.147,0,21.214-16.043v41.643c0,4.71,3.823,8.533,8.533,8.533h93.867c4.71,0,8.533-3.823,8.533-8.533V332.8
	C512,328.09,508.177,324.267,503.467,324.267z M93.867,494.933h-76.8v-153.6H51.2c17.766,0.043,33.647,11.11,39.834,27.767
	l-12.527-12.553c-10.342-10.368-27.136-10.385-37.504-0.043c-5.035,5.026-7.842,11.853-7.791,18.961
	c0.026,7.083,2.91,13.858,8.004,18.773c23.236,22.605,40.166,39.057,52.651,51.098V494.933z M53.12,382.046
	c-3.721-3.652-3.78-9.626-0.128-13.346c0.017-0.017,0.043-0.043,0.06-0.06c3.695-3.678,9.668-3.678,13.363,0l72.619,72.619
	c1.604,1.587,3.772,2.483,6.033,2.475h90.334L218.334,460.8h-83.183C128.418,454.827,104.183,431.718,53.12,382.046z M256,491.401
	l-22.067-22.067L256,447.266l22.067,22.067L256,491.401z M376.96,460.8h-83.294l-17.067-17.067h90.334
	c2.261,0,4.437-0.896,6.033-2.5l72.602-72.593c3.686-3.721,9.685-3.746,13.406-0.06c1.818,1.801,2.825,4.258,2.807,6.818
	c-0.009,2.517-1.033,4.932-2.842,6.682C407.893,431.957,383.625,454.972,376.96,460.8z M494.933,494.933h-76.8v-49.382
	c12.501-12.049,29.457-28.553,52.71-51.268c10.505-10.223,10.726-27.025,0.495-37.53c-10.223-10.505-27.025-10.726-37.53-0.495
	c-0.102,0.102-0.205,0.205-0.316,0.307l-12.535,12.535c6.195-16.657,22.076-27.725,39.842-27.768h34.133V494.933z"/>
<g>
</g>
<g>
</g>
<g>
</g>
<g>
</g>
<g>
</g>
<g>
</g>
<g>
</g>
<g>
</g>
<g>
</g>
<g>
</g>
<g>
</g>
<g>
</g>
<g>
</g>
<g>
</g>
<g>
</g>
</svg>
