<?xml version="1.0" encoding="iso-8859-1"?>
<!-- Generator: Adobe Illustrator 19.0.0, SVG Export Plug-In . SVG Version: 6.00 Build 0)  -->
<svg version="1.1" id="Capa_1" xmlns="http://www.w3.org/2000/svg" xmlns:xlink="http://www.w3.org/1999/xlink" x="0px" y="0px"
	 viewBox="0 0 512 512" style="enable-background:new 0 0 512 512;" xml:space="preserve">
<path style="fill:#00448F;" d="M503.467,328.533V499.2H409.6v-59.733l-1.024-1.024c18.603-17.749,41.984-40.533,56.32-54.528
	c6.963-7.108,6.835-18.517-0.273-25.472c-6.955-6.81-18.057-6.861-25.071-0.128L409.6,388.267v-8.533
	c0-28.279,22.921-51.2,51.2-51.2H503.467z"/>
<path style="fill:#F5D0C7;" d="M503.467,217.6v85.333h-51.2c-23.561,0-42.667-19.106-42.667-42.667V217.6H503.467z"/>
<path style="fill:#FFCB5A;" d="M503.467,217.6H409.6v-17.067c0.026-9.412,7.654-17.041,17.067-17.067h42.667
	C488.184,183.467,503.467,198.75,503.467,217.6z"/>
<path style="fill:#62BEFF;" d="M464.981,358.315c7.049,7.014,7.066,18.415,0.051,25.463c-0.043,0.043-0.094,0.094-0.137,0.137
	c-14.336,13.995-37.717,36.779-56.32,54.528c-15.616,15.104-27.904,26.624-28.757,26.624h-89.685L256,430.933h110.933l42.667-42.667
	l29.952-29.952C446.609,351.377,457.924,351.377,464.981,358.315z"/>
<rect x="231.851" y="440.97" transform="matrix(-0.7071 0.7071 -0.7071 -0.7071 765.8779 612.9758)" style="fill:#F5D0C7;" width="48.273" height="48.273"/>
<path style="fill:#62BEFF;" d="M256,430.933l-34.133,34.133h-89.685c-0.597,0-12.971-11.691-28.672-26.709
	c-18.603-17.835-41.984-40.533-56.32-54.443c-7.066-6.972-7.142-18.364-0.171-25.429c6.972-7.066,18.364-7.142,25.429-0.171
	l4.352,4.352l25.6,25.6l8.533,8.533l25.6,25.6l8.533,8.533H256z"/>
<polygon style="fill:#F5D0C7;" points="247.467,311.467 247.467,345.6 204.8,354.133 196.267,362.667 170.667,337.067 
	179.2,328.533 196.267,311.467 "/>
<rect x="111.403" y="361.643" transform="matrix(-0.7071 0.7071 -0.7071 -0.7071 530.798 539.6296)" style="fill:#62BEFF;" width="84.471" height="36.207"/>
<path style="fill:#00448F;" d="M103.509,438.357l-1.109,1.109V499.2H8.533V328.533H51.2c28.279,0,51.2,22.921,51.2,51.2v8.533
	l-25.6-25.6l-4.352-4.352c-7.066-6.972-18.458-6.895-25.429,0.171c-6.972,7.066-6.895,18.458,0.171,25.429
	C61.525,397.824,84.907,420.523,103.509,438.357z"/>
<path style="fill:#F5D0C7;" d="M102.4,217.6v42.667c0,23.561-19.106,42.667-42.667,42.667h-51.2V217.6H102.4z"/>
<path style="fill:#FF8030;" d="M102.4,183.467V217.6H8.533c0-18.85,15.283-34.133,34.133-34.133H102.4z"/>
<g>
	<path style="fill:#E3BAAF;" d="M42.667,260.267H25.6V243.2c0-4.71,3.823-8.533,8.533-8.533H51.2v17.067h-8.533V260.267z"/>
	<path style="fill:#E3BAAF;" d="M486.4,260.267h-17.067v-8.533H460.8v-17.067h17.067c4.71,0,8.533,3.823,8.533,8.533V260.267z"/>
</g>
<g>
	<path style="fill:#FB5968;" d="M238.933,98.133c-2.261,0-4.437-0.896-6.033-2.5l-45.167-45.167l-45.167,45.167L130.5,83.567
		l51.2-51.2c3.328-3.328,8.738-3.328,12.066,0l45.167,45.167L284.1,32.367c1.647-1.604,3.857-2.5,6.161-2.5
		c2.313,0.034,4.506,0.998,6.093,2.679l20.378,21.666l53.026-47.787l11.418,12.681l-59.221,53.333
		c-3.447,3.123-8.764,2.901-11.947-0.486l-20.07-21.333l-44.988,44.979C243.362,97.212,241.195,98.116,238.933,98.133z"/>
	<path style="fill:#FB5968;" d="M384,46.933h-17.067v-25.6h-25.6V4.267h34.133c4.71,0,8.533,3.823,8.533,8.533V46.933z"/>
</g>
<path d="M0,217.6v85.333c0,4.71,3.823,8.533,8.533,8.533h51.2c28.262-0.026,51.174-22.938,51.2-51.2v-76.8
	c0-4.71-3.823-8.533-8.533-8.533H42.667C19.115,174.959,0.026,194.048,0,217.6z M59.733,294.4H17.067v-68.267h76.8v34.133
	C93.867,279.117,78.583,294.4,59.733,294.4z M93.867,209.067h-75.23c3.601-10.189,13.218-17.024,24.03-17.067h51.2V209.067z"/>
<path d="M25.6,243.2v17.067h17.067v-8.533H51.2v-17.067H34.133C29.423,234.667,25.6,238.49,25.6,243.2z"/>
<path d="M512,217.6c-0.026-23.552-19.115-42.641-42.667-42.667h-42.667c-14.14,0-25.6,11.46-25.6,25.6v59.733
	c0.026,28.262,22.938,51.174,51.2,51.2h51.2c4.71,0,8.533-3.823,8.533-8.533V217.6z M426.667,192h42.667
	c10.812,0.043,20.429,6.878,24.03,17.067h-75.23v-8.533C418.133,195.823,421.956,192,426.667,192z M452.267,294.4
	c-18.85,0-34.133-15.283-34.133-34.133v-34.133h76.8V294.4H452.267z"/>
<path d="M477.867,234.667H460.8v17.067h8.533v8.533H486.4V243.2C486.4,238.49,482.577,234.667,477.867,234.667z"/>
<path d="M512,328.533c0-4.71-3.823-8.533-8.533-8.533H460.8c-32.973,0.043-59.691,26.761-59.733,59.733v5.001L363.401,422.4H259.533
	l-14.566-14.566L232.9,419.9l2.5,2.5h-86.801l60.407-60.407l40.107-8.03c3.994-0.785,6.878-4.292,6.886-8.363v-34.133
	c0-4.71-3.823-8.533-8.533-8.533h-51.2c-2.261,0-4.437,0.896-6.033,2.5l-79.3,79.3v-5.001C110.891,346.761,84.173,320.043,51.2,320
	H8.533C3.823,320,0,323.823,0,328.533V499.2c0,4.71,3.823,8.533,8.533,8.533H102.4c4.71,0,8.533-3.823,8.533-8.533v-41.813
	c17.152,16.213,18.432,16.213,21.205,16.213h86.187l31.633,31.633c3.328,3.328,8.738,3.328,12.066,0l31.642-31.633h86.187
	c2.714,0,4.147,0,21.214-16.043V499.2c0,4.71,3.823,8.533,8.533,8.533h93.867c4.71,0,8.533-3.823,8.533-8.533V328.533z M199.799,320
	h39.134v18.611l-35.84,7.159c-1.655,0.333-3.166,1.143-4.361,2.33l-2.466,2.5l-13.534-13.534L199.799,320z M170.667,349.133
	l13.534,13.534l-47.667,47.667L122.999,396.8L170.667,349.133z M93.867,490.667h-76.8v-153.6H51.2
	c17.766,0.043,33.647,11.11,39.834,27.767l-8.201-8.201l-4.352-4.352c-10.359-10.351-27.153-10.351-37.504,0.009
	c-5.009,5.009-7.808,11.819-7.765,18.91c0.026,7.083,2.91,13.858,8.004,18.773c23.236,22.605,40.166,39.057,52.651,51.098V490.667z
	 M53.12,377.779c-3.721-3.652-3.78-9.626-0.128-13.346c0.017-0.017,0.043-0.043,0.06-0.06c3.695-3.678,9.668-3.678,13.363,0
	l4.352,4.352l34.133,34.133l34.133,34.133c1.604,1.587,3.772,2.483,6.033,2.475h90.334l-17.067,17.067h-83.183
	C128.418,450.56,104.183,427.452,53.12,377.779z M256,487.134l-22.067-22.067L256,443l22.067,22.067L256,487.134z M376.96,456.533
	h-83.294l-17.067-17.067h90.334c2.261,0,4.437-0.896,6.033-2.5l72.602-72.593c3.686-3.721,9.685-3.746,13.406-0.06
	c1.818,1.801,2.825,4.258,2.807,6.818c-0.009,2.517-1.033,4.932-2.842,6.682C407.893,427.691,383.625,450.705,376.96,456.533z
	 M494.933,490.667h-76.8v-49.382c12.501-12.049,29.457-28.553,52.71-51.268c10.505-10.223,10.726-27.025,0.495-37.53
	c-10.223-10.505-27.025-10.726-37.53-0.495c-0.102,0.102-0.205,0.205-0.316,0.307l-12.535,12.535
	c6.187-16.657,22.067-27.725,39.834-27.767h34.133v153.6H494.933z"/>
<path d="M384,46.933V12.8c0-4.71-3.823-8.533-8.533-8.533h-34.133v17.067h11.947l-36.523,32.879l-20.412-21.666
	c-1.579-1.681-3.78-2.645-6.084-2.679c-2.304,0-4.514,0.896-6.161,2.5l-45.167,45.167l-45.167-45.167
	c-3.328-3.328-8.738-3.328-12.066,0l-51.2,51.2l12.066,12.066l45.167-45.167L232.9,95.633c3.328,3.328,8.738,3.328,12.066,0
	l44.988-44.979l20.105,21.333c3.183,3.388,8.499,3.61,11.947,0.486l44.928-40.499v14.959H384z"/>
<g>
</g>
<g>
</g>
<g>
</g>
<g>
</g>
<g>
</g>
<g>
</g>
<g>
</g>
<g>
</g>
<g>
</g>
<g>
</g>
<g>
</g>
<g>
</g>
<g>
</g>
<g>
</g>
<g>
</g>
</svg>
