<?xml version="1.0" encoding="iso-8859-1"?>
<!-- Generator: Adobe Illustrator 19.0.0, SVG Export Plug-In . SVG Version: 6.00 Build 0)  -->
<svg version="1.1" id="Capa_1" xmlns="http://www.w3.org/2000/svg" xmlns:xlink="http://www.w3.org/1999/xlink" x="0px" y="0px"
	 viewBox="0 0 512 512" style="enable-background:new 0 0 512 512;" xml:space="preserve">
<g>
	<path style="fill:#F5D0C7;" d="M477.867,119.467v17.067c0,14.14-11.46,25.6-25.6,25.6h-8.533c-14.14,0-25.6-11.46-25.6-25.6v-25.6
		c0-2.603,0.401-5.197,1.195-7.68l24.405,16.213H477.867z"/>
	<path style="fill:#F5D0C7;" d="M477.867,110.933v8.533h-34.133l-24.405-16.213c3.319-10.684,13.218-17.954,24.405-17.92h8.533
		C466.406,85.333,477.867,96.794,477.867,110.933z"/>
	<path style="fill:#F5D0C7;" d="M59.733,68.267h8.533c18.85,0,34.133,15.283,34.133,34.133V128c0,18.85-15.283,34.133-34.133,34.133
		h-8.533C40.883,162.133,25.6,146.85,25.6,128v-25.6C25.6,83.55,40.883,68.267,59.733,68.267z"/>
</g>
<path style="fill:#00448F;" d="M85.333,162.133H51.2c-18.85,0-34.133,15.283-34.133,34.133v93.867c0,4.71,3.823,8.533,8.533,8.533
	h59.733c4.71,0,8.533-3.823,8.533-8.533V170.667C93.867,165.956,90.044,162.133,85.333,162.133z"/>
<g>
	<path style="fill:#002874;" d="M42.667,512H8.533c-4.71,0-8.533-3.823-8.525-8.542c0-0.913,0.145-1.826,0.435-2.688l33.442-100.326
		l-16.674-91.716l16.777-3.055l17.067,93.867c0.273,1.425,0.171,2.893-0.299,4.267l-30.379,91.127h22.289V512z"/>
	<path style="fill:#002874;" d="M102.4,512H68.267c-4.71,0-8.533-3.823-8.525-8.542c0-0.913,0.145-1.826,0.435-2.688l33.442-100.326
		l-16.674-91.716l16.777-3.055l17.067,93.867c0.273,1.425,0.171,2.893-0.299,4.267l-30.379,91.127H102.4V512z"/>
</g>
<path style="fill:#62BEFF;" d="M64.179,203.554l-8.892-14.575l79.599-48.58l64-61.235c0.35-0.35,0.742-0.657,1.152-0.93l25.6-17.067
	l9.472,14.199l-24.977,16.649l-64.145,61.355c-0.444,0.418-0.93,0.794-1.451,1.118L64.179,203.554z"/>
<g>
	<path style="fill:#FFCB5A;" d="M221.867,119.467c-13.568,0.017-26.59-5.35-36.207-14.925c-0.307-0.299-0.589-0.614-0.853-0.947
		c-19.541-20.48-18.782-52.932,1.698-72.474s52.932-18.782,72.474,1.698s18.782,52.932-1.698,72.474
		C247.74,114.398,235.051,119.475,221.867,119.467z M198.05,92.783c13.611,12.535,34.611,12.373,48.026-0.375
		c13.355-13.346,13.372-34.987,0.026-48.341c-13.346-13.355-34.987-13.372-48.341-0.026c-6.434,6.417-10.035,15.138-10.027,24.226
		c-0.051,8.943,3.447,17.536,9.737,23.893C197.649,92.314,197.854,92.553,198.05,92.783z"/>
	<rect x="213.333" y="110.933" style="fill:#FFCB5A;" width="17.067" height="25.6"/>
	<rect x="213.333" style="fill:#FFCB5A;" width="17.067" height="25.6"/>
	
		<rect x="252.578" y="94.724" transform="matrix(-0.7071 0.7071 -0.7071 -0.7071 521.7704 -1.093)" style="fill:#FFCB5A;" width="17.067" height="25.583"/>
	
		<rect x="174.081" y="16.241" transform="matrix(-0.7071 0.7071 -0.7071 -0.7071 332.2704 -79.5667)" style="fill:#FFCB5A;" width="17.067" height="25.583"/>
	<rect x="264.533" y="59.733" style="fill:#FFCB5A;" width="25.6" height="17.067"/>
	<rect x="153.6" y="59.733" style="fill:#FFCB5A;" width="25.6" height="17.067"/>
	
		<rect x="248.326" y="20.485" transform="matrix(-0.7071 0.7071 -0.7071 -0.7071 466.2744 -135.1005)" style="fill:#FFCB5A;" width="25.583" height="17.067"/>
	
		<rect x="169.819" y="98.977" transform="matrix(-0.7071 0.7071 -0.7071 -0.7071 387.757 54.4056)" style="fill:#FFCB5A;" width="25.583" height="17.067"/>
</g>
<path style="fill:#F5D0C7;" d="M452.267,76.8h-8.533c-18.842,0.026-34.108,15.292-34.133,34.133v25.6
	c0,18.85,15.283,34.133,34.133,34.133h8.533c18.85,0,34.133-15.283,34.133-34.133v-25.6C486.4,92.083,471.117,76.8,452.267,76.8z
	 M469.333,136.533c0,9.429-7.637,17.067-17.067,17.067h-8.533c-9.429,0-17.067-7.637-17.067-17.067v-25.6
	c0-1.741,0.265-3.465,0.785-5.12v-0.077c2.227-7.108,8.832-11.93,16.282-11.87h8.533c9.429,0,17.067,7.637,17.067,17.067V136.533z"
	/>
<path style="fill:#00448F;" d="M460.8,170.667h-34.133c-4.71,0-8.533,3.823-8.533,8.533v119.467c0,4.71,3.823,8.533,8.533,8.533
	H486.4c4.71,0,8.533-3.823,8.533-8.533V204.8C494.933,185.95,479.65,170.667,460.8,170.667z"/>
<g>
	<path style="fill:#002874;" d="M503.467,512h-34.133v-17.067h22.289l-30.379-91.17c-0.478-1.408-0.572-2.918-0.273-4.369
		l17.067-85.333l16.725,3.345l-16.623,83.115l33.417,100.25c1.493,4.471-0.93,9.301-5.402,10.795
		C505.293,511.855,504.38,512,503.467,512z"/>
	<path style="fill:#002874;" d="M443.733,512H409.6v-17.067h22.289l-30.379-91.17c-0.478-1.408-0.572-2.918-0.273-4.369
		l17.067-85.333l16.725,3.345l-16.623,83.115l33.417,100.25c1.493,4.471-0.93,9.301-5.402,10.795
		C445.56,511.855,444.646,512,443.733,512z"/>
</g>
<path style="fill:#62BEFF;" d="M384,281.6c-1.451,0-2.876-0.367-4.139-1.075l-74.871-41.591H281.6v-17.067h25.6
	c1.451,0,2.876,0.367,4.139,1.075l71.518,39.723l72.269-64.239l11.349,12.749l-76.8,68.267C388.113,280.832,386.091,281.6,384,281.6
	z"/>
<path style="fill:#FFCB5A;" d="M290.133,221.867c-28.203-0.068-51.012-22.989-50.944-51.2c0.068-28.203,22.989-51.012,51.2-50.944
	c28.203,0.068,51.012,22.989,50.944,51.2c-0.034,13.483-5.402,26.411-14.925,35.951
	C316.792,216.491,303.736,221.884,290.133,221.867z M290.133,136.533c-18.773,0.077-33.937,15.351-33.86,34.133
	c0.077,18.782,15.351,33.937,34.133,33.86c18.773-0.077,33.937-15.351,33.86-34.133c-0.034-8.986-3.627-17.596-9.993-23.936
	C307.849,140.092,299.179,136.525,290.133,136.533z"/>
<g>
	<path style="fill:#F5B05C;" d="M384.529,210.321l-15.736-6.613c4.412-10.453,6.682-21.692,6.673-33.041h17.067
		C392.55,184.286,389.828,197.769,384.529,210.321z"/>
	<path style="fill:#F5B05C;" d="M363.298,126.78c-10.641-17.673-27.281-30.925-46.882-37.342l5.282-16.213
		c23.492,7.689,43.443,23.569,56.201,44.74L363.298,126.78z"/>
	<path style="fill:#F5B05C;" d="M209.425,233.6c-14.106-17.937-21.751-40.115-21.692-62.933H204.8
		c-0.051,19.012,6.323,37.487,18.074,52.437L209.425,233.6z"/>
	<path style="fill:#F5B05C;" d="M290.133,273.067c-8.559-0.009-17.092-1.067-25.395-3.157l4.19-16.555
		c6.929,1.758,14.054,2.645,21.205,2.645V273.067z"/>
</g>
<g>
	<rect x="281.6" y="213.333" style="fill:#FFCB5A;" width="17.067" height="25.6"/>
	<rect x="281.6" y="102.4" style="fill:#FFCB5A;" width="17.067" height="25.6"/>
	
		<rect x="238.084" y="201.386" transform="matrix(-0.7071 0.7071 -0.7071 -0.7071 576.7056 180.9594)" style="fill:#FFCB5A;" width="25.583" height="17.067"/>
	
		<rect x="316.584" y="122.889" transform="matrix(-0.7071 0.7071 -0.7071 -0.7071 655.2084 -8.5527)" style="fill:#FFCB5A;" width="25.583" height="17.067"/>
	<rect x="221.867" y="162.133" style="fill:#FFCB5A;" width="25.6" height="17.067"/>
	<rect x="332.8" y="162.133" style="fill:#FFCB5A;" width="25.6" height="17.067"/>
	
		<rect x="242.347" y="118.619" transform="matrix(-0.7071 0.7071 -0.7071 -0.7071 521.201 46.9313)" style="fill:#FFCB5A;" width="17.067" height="25.583"/>
	
		<rect x="320.836" y="197.119" transform="matrix(-0.7071 0.7071 -0.7071 -0.7071 710.6985 125.4402)" style="fill:#FFCB5A;" width="17.067" height="25.583"/>
</g>
<path d="M42.667,494.933H20.378l30.379-91.17c0.469-1.374,0.572-2.842,0.299-4.267L33.988,305.63l-16.777,3.055l16.674,91.759
	L0.444,500.77c-1.493,4.471,0.93,9.301,5.402,10.795C6.707,511.855,7.62,512,8.533,512h34.133V494.933z"/>
<path d="M61.338,508.459c1.604,2.227,4.181,3.541,6.929,3.541H102.4v-17.067H80.111l30.379-91.17
	c0.469-1.374,0.572-2.842,0.299-4.267L93.722,305.63l-16.777,3.055l16.674,91.716L60.177,500.77
	C59.307,503.373,59.733,506.232,61.338,508.459z"/>
<path d="M179.627,122.573l12.621-12.621c6.272,4.471,13.483,7.467,21.086,8.747v17.835H230.4v-17.835
	c7.603-1.28,14.814-4.275,21.086-8.747l12.621,12.621l12.066-12.066l-12.621-12.621c4.471-6.272,7.467-13.483,8.747-21.086h17.835
	V59.733h-17.835c-1.28-7.603-4.275-14.814-8.747-21.086l12.621-12.621l-12.066-12.066l-12.621,12.621
	c-6.272-4.471-13.483-7.467-21.086-8.747V0h-17.067v17.835c-7.603,1.28-14.814,4.275-21.086,8.747l-12.621-12.621l-12.066,12.066
	l12.621,12.621c-4.471,6.272-7.467,13.483-8.747,21.086H153.6V76.8h17.835c1.246,7.407,4.105,14.438,8.388,20.608l-44.996,42.991
	l-42.385,25.873c-1.485-2.526-4.181-4.096-7.108-4.139H68.267c18.85,0,34.133-15.283,34.133-34.133v-25.6
	c0-18.85-15.283-34.133-34.133-34.133h-8.533C40.883,68.267,25.6,83.55,25.6,102.4V128c0,18.85,15.283,34.133,34.133,34.133H51.2
	c-18.85,0-34.133,15.283-34.133,34.133v93.867c0,4.71,3.823,8.533,8.533,8.533h59.733c4.71,0,8.533-3.823,8.533-8.533V185.429
	l50.671-30.976c0.521-0.324,1.007-0.7,1.451-1.118l32.939-31.497L179.627,122.573z M42.667,128v-25.6
	c0-9.429,7.637-17.067,17.067-17.067h8.533c9.429,0,17.067,7.637,17.067,17.067V128c0,9.429-7.637,17.067-17.067,17.067h-8.533
	C50.304,145.067,42.667,137.429,42.667,128z M76.8,281.6H34.133v-85.333c0-9.429,7.637-17.067,17.067-17.067h20.105l-16.017,9.779
	l8.892,14.575l12.621-7.68V281.6z M187.733,68.267c0-18.85,15.283-34.133,34.133-34.133S256,49.417,256,68.267
	S240.717,102.4,221.867,102.4c-6.144-0.026-12.16-1.732-17.408-4.932l5.7-5.453l24.977-16.649l-9.472-14.199l-25.6,17.067
	c-0.41,0.273-0.802,0.589-1.161,0.93l-6.434,6.17C189.397,80.171,187.759,74.274,187.733,68.267z"/>
<path d="M510.396,508.459c1.596-2.227,2.031-5.086,1.161-7.68L478.14,400.521l16.623-83.081l-16.725-3.413l-17.067,85.333
	c-0.299,1.451-0.205,2.961,0.273,4.369l30.379,91.204h-22.289V512h34.133C506.214,512,508.792,510.686,510.396,508.459z"/>
<path d="M450.662,508.459c1.596-2.227,2.031-5.086,1.161-7.68l-33.417-100.258l16.623-83.081l-16.725-3.413l-17.067,85.333
	c-0.299,1.451-0.205,2.961,0.273,4.369l30.379,91.204H409.6V512h34.133C446.481,512,449.058,510.686,450.662,508.459z"/>
<path d="M389.666,279.441l28.467-25.301v44.527c0,4.71,3.823,8.533,8.533,8.533H486.4c4.71,0,8.533-3.823,8.533-8.533V204.8
	c0-18.85-15.283-34.133-34.133-34.133h-8.533c18.85,0,34.133-15.283,34.133-34.133v-25.6c0-18.85-15.283-34.133-34.133-34.133
	h-8.533c-18.85,0-34.133,15.283-34.133,34.133v25.6c0,18.85,15.283,34.133,34.133,34.133h-17.067c-4.71,0-8.533,3.823-8.533,8.533
	v52.113l-35.285,31.351l-71.509-39.723c-1.263-0.708-2.688-1.075-4.139-1.075h-8.533v-0.768c7.603-1.28,14.814-4.275,21.086-8.747
	l12.621,12.621l12.066-12.066l-12.621-12.621c4.471-6.272,7.467-13.483,8.747-21.086H358.4v-17.067h-17.835
	c-1.28-7.603-4.275-14.814-8.747-21.086l12.621-12.621l-12.066-12.066l-12.621,12.621c-6.272-4.471-13.483-7.467-21.086-8.747V102.4
	H281.6v17.835c-7.603,1.28-14.814,4.275-21.086,8.747l-12.621-12.621l-12.066,12.066l12.621,12.621
	c-4.471,6.272-7.467,13.483-8.747,21.086h-17.835V179.2h17.835c1.28,7.603,4.275,14.814,8.747,21.086l-12.621,12.621l12.066,12.066
	l12.621-12.621c6.272,4.471,13.483,7.467,21.086,8.747v17.835h23.39l74.871,41.591C383.027,282.283,386.961,281.847,389.666,279.441
	z M443.733,93.867h8.533c9.429,0,17.067,7.637,17.067,17.067h-23.04l-15.872-10.581C433.63,96.265,438.537,93.875,443.733,93.867z
	 M426.667,136.533V118.34l12.331,8.226c1.399,0.93,3.046,1.434,4.736,1.434h25.6v8.533c0,9.429-7.637,17.067-17.067,17.067h-8.533
	C434.304,153.6,426.667,145.963,426.667,136.533z M435.2,187.733h25.6c9.429,0,17.067,7.637,17.067,17.067v85.333H435.2v-51.2
	l31.266-27.793l-11.332-12.749L435.2,216.141V187.733z M256,170.667c0-18.85,15.283-34.133,34.133-34.133
	s34.133,15.283,34.133,34.133S308.983,204.8,290.133,204.8S256,189.517,256,170.667z"/>
<path d="M368.819,203.691l15.727,6.622c5.291-12.544,8.013-26.027,7.987-39.646h-17.067
	C375.484,182.007,373.222,193.237,368.819,203.691z"/>
<path d="M316.442,89.481c19.601,6.383,36.241,19.635,46.857,37.308l14.618-8.798c-12.74-21.197-32.7-37.086-56.209-44.74
	L316.442,89.481z"/>
<path d="M209.391,233.583l13.449-10.496c-11.742-14.95-18.091-33.417-18.039-52.42h-17.067
	C187.665,193.476,195.294,215.646,209.391,233.583z"/>
<path d="M290.133,256c-7.142,0.009-14.251-0.887-21.171-2.662l-4.267,16.538c8.311,2.125,16.862,3.191,25.438,3.191V256z"/>
<g>
</g>
<g>
</g>
<g>
</g>
<g>
</g>
<g>
</g>
<g>
</g>
<g>
</g>
<g>
</g>
<g>
</g>
<g>
</g>
<g>
</g>
<g>
</g>
<g>
</g>
<g>
</g>
<g>
</g>
</svg>
