<?xml version="1.0" encoding="iso-8859-1"?>
<!-- Generator: Adobe Illustrator 19.0.0, SVG Export Plug-In . SVG Version: 6.00 Build 0)  -->
<svg version="1.1" id="Capa_1" xmlns="http://www.w3.org/2000/svg" xmlns:xlink="http://www.w3.org/1999/xlink" x="0px" y="0px"
	 viewBox="0 0 512.004 512.004" style="enable-background:new 0 0 512.004 512.004;" xml:space="preserve">
<path style="fill:#168DE2;" d="M150.355,257.802c-0.051-97.509,78.958-176.586,176.466-176.637
	c97.509-0.051,176.586,78.958,176.637,176.466s-78.958,176.586-176.466,176.637c-0.026,0-0.06,0-0.085,0
	C229.44,434.26,150.415,355.268,150.355,257.802z M202.322,257.802c0.026,68.829,55.841,124.61,124.67,124.585
	c68.829-0.026,124.61-55.841,124.585-124.67c-0.026-68.829-55.841-124.61-124.67-124.585
	C258.103,133.209,202.356,188.99,202.322,257.802z"/>
<path style="fill:#FB5968;" d="M202.322,257.802c-0.026-68.829,55.756-124.644,124.585-124.67s124.644,55.756,124.67,124.585
	c0.026,68.829-55.756,124.644-124.585,124.67c-0.026,0-0.06,0-0.085,0C258.138,382.293,202.407,326.571,202.322,257.802z
	 M254.204,257.802c0,40.149,32.554,72.703,72.703,72.703s72.703-32.554,72.703-72.703s-32.554-72.703-72.703-72.703l0,0
	C286.775,185.15,254.255,217.67,254.204,257.802z"/>
<path style="fill:#168DE2;" d="M254.204,257.802c-0.051-40.149,32.469-72.737,72.617-72.788
	c40.149-0.051,72.737,32.469,72.788,72.617c0.051,40.149-32.469,72.737-72.617,72.788c-0.026,0-0.06,0-0.085,0
	C286.809,330.36,254.315,297.891,254.204,257.802z M306.171,257.802c0.026,11.477,9.344,20.761,20.821,20.736
	c11.477-0.026,20.761-9.344,20.736-20.821c-0.026-11.477-9.344-20.761-20.821-20.736c-11.469,0.017-20.753,9.318-20.736,20.787
	C306.171,257.776,306.171,257.785,306.171,257.802z"/>
<path style="fill:#FB5968;" d="M306.171,257.802c-0.026-11.477,9.258-20.795,20.736-20.821c11.477-0.026,20.795,9.259,20.821,20.736
	c0.026,11.477-9.258,20.795-20.736,20.821c-0.026,0-0.06,0-0.085,0C315.464,278.512,306.196,269.245,306.171,257.802z"/>
<g>
	<polygon style="fill:#FFDB6F;" points="83.881,213.856 111.102,257.802 36.181,257.802 36.01,258.058 8.619,213.856 	"/>
	<polygon style="fill:#FFDB6F;" points="111.102,258.314 83.881,302.26 8.619,302.26 36.01,258.058 36.181,258.314 	"/>
</g>
<g>
	<path style="fill:#454545;" d="M326.907,442.802c-102.193-0.026-185.025-82.891-185-185.085s82.891-185.025,185.085-185
		c102.194,0.017,185.025,82.883,185,185.085C511.855,359.944,429.057,442.708,326.907,442.802z M326.907,89.784
		c-92.773,0.026-167.959,75.246-167.933,168.019c0.026,92.773,75.246,167.959,168.018,167.933
		c92.739-0.026,167.908-75.194,167.933-167.933C494.823,165.046,419.654,89.886,326.907,89.784z"/>
	<path style="fill:#454545;" d="M326.907,390.92c-73.539-0.026-133.143-59.664-133.118-133.203s59.664-133.143,133.203-133.118
		s133.143,59.664,133.118,133.203C460.033,331.316,400.428,390.886,326.907,390.92z M326.907,141.665
		c-64.118,0.026-116.077,52.018-116.051,116.137s52.018,116.077,116.137,116.051c64.084-0.026,116.026-51.967,116.051-116.051
		C442.992,193.684,391.025,141.717,326.907,141.665z"/>
	<path style="fill:#454545;" d="M326.907,338.953c-44.842-0.026-81.176-36.394-81.151-81.236s36.394-81.176,81.236-81.151
		c44.842,0.026,81.176,36.394,81.151,81.236C408.066,302.618,371.723,338.919,326.907,338.953z M326.907,193.632
		c-35.413,0.026-64.11,28.757-64.084,64.17s28.757,64.11,64.17,64.084c35.387-0.026,64.059-28.697,64.084-64.084
		C391.042,222.372,362.328,193.667,326.907,193.632z"/>
	<path style="fill:#454545;" d="M326.907,287.071c-16.187-0.026-29.294-13.167-29.269-29.354
		c0.026-16.187,13.167-29.294,29.354-29.269c16.187,0.026,29.294,13.167,29.269,29.354c-0.017,16.179-13.141,29.286-29.32,29.269
		C326.932,287.071,326.915,287.071,326.907,287.071z M326.907,245.514c-6.767,0.026-12.228,5.521-12.202,12.288
		c0.026,6.767,5.521,12.228,12.288,12.202c6.733-0.026,12.177-5.47,12.202-12.202c0.017-6.767-5.453-12.271-12.22-12.288
		C326.949,245.514,326.932,245.514,326.907,245.514z"/>
	<path style="fill:#454545;" d="M326.907,266.335H111.443c-4.71,0-8.533-3.823-8.533-8.533s3.823-8.533,8.533-8.533h215.463
		c4.71,0,8.533,3.823,8.533,8.533S331.617,266.335,326.907,266.335z"/>
	<path style="fill:#454545;" d="M83.881,310.793H8.619c-4.71,0-8.533-3.823-8.533-8.533c0-1.587,0.444-3.149,1.28-4.497
		l27.392-44.202c1.604-2.568,4.395-4.173,7.424-4.267h74.921c3.174-0.009,6.11,1.69,7.68,4.446c1.545,2.714,1.485,6.059-0.162,8.712
		l-0.162,0.256l-27.306,44.065C89.59,309.283,86.834,310.802,83.881,310.793z M23.953,293.727h55.176l16.964-27.392H40.959
		L23.953,293.727z"/>
	<path style="fill:#454545;" d="M111.443,266.847H36.181c-2.807,0-5.436-1.382-7.023-3.695L1.365,218.353
		c-2.483-4.002-1.254-9.267,2.756-11.75c1.348-0.836,2.91-1.28,4.497-1.28h75.263c2.961,0,5.709,1.527,7.262,4.045l27.212,43.946
		l-6.929,4.651l6.98-4.582l0.171,0.256c2.586,3.942,1.476,9.233-2.458,11.81C114.729,266.361,113.107,266.847,111.443,266.847z
		 M40.917,249.781h55.184l-16.973-27.392H23.944L40.917,249.781z"/>
	<rect x="85.332" y="0.007" style="fill:#454545;" width="68.266" height="17.066"/>
	<rect x="153.597" y="59.738" style="fill:#454545;" width="68.266" height="17.066"/>
	<rect x="51.199" y="0.007" style="fill:#454545;" width="17.066" height="17.066"/>
	<rect x="34.133" y="162.136" style="fill:#454545;" width="68.266" height="17.066"/>
	<rect y="162.136" style="fill:#454545;" width="17.066" height="17.066"/>
	<rect x="68.266" y="349.867" style="fill:#454545;" width="51.199" height="17.066"/>
	<rect x="34.133" y="349.867" style="fill:#454545;" width="17.066" height="17.066"/>
	<rect x="170.664" y="426.665" style="fill:#454545;" width="17.066" height="17.066"/>
	<rect x="34.133" y="494.931" style="fill:#454545;" width="68.266" height="17.066"/>
	<rect y="494.931" style="fill:#454545;" width="17.066" height="17.066"/>
</g>
<path d="M142.078,249.235h-26.205l-24.746-39.91c-1.553-2.509-4.301-4.036-7.253-4.036H8.584c-4.71,0-8.533,3.823-8.533,8.533
	c0,1.587,0.444,3.149,1.28,4.497l24.635,39.713L1.331,297.754c-2.483,4.002-1.254,9.267,2.756,11.75
	c1.348,0.836,2.91,1.28,4.497,1.28h75.288c2.952,0,5.7-1.527,7.253-4.036l25.079-40.447h25.873
	c4.71,102.1,91.297,181.04,193.396,176.33s181.04-91.305,176.33-193.396c-4.71-102.1-91.297-181.049-193.396-176.33
	C222.913,77.308,146.489,153.731,142.078,249.235z M79.12,222.355l16.674,26.88H40.592l-16.699-26.88H79.12z M79.12,293.718H23.893
	l16.674-26.88h55.201L79.12,293.718z M326.932,89.775c92.781-0.119,168.095,74.998,168.223,167.78
	c0.119,92.781-74.998,168.095-167.78,168.223c-89.556,0.119-163.462-70.032-168.001-159.477h34.858
	c4.71,73.368,68.01,129.022,141.378,124.312c73.368-4.71,129.022-68.01,124.312-141.378s-68.01-129.022-141.378-124.312
	c-66.798,4.292-120.019,57.514-124.312,124.312h-34.858C163.94,159.978,237.564,89.912,326.932,89.775z M246.165,266.301
	c4.71,44.612,44.697,76.952,89.3,72.233s76.952-44.697,72.233-89.3c-4.71-44.612-44.697-76.952-89.3-72.233
	c-38.101,4.028-68.214,34.133-72.233,72.233H211.29c4.71-63.922,60.347-111.913,124.269-107.202
	c63.922,4.71,111.913,60.347,107.202,124.269c-4.71,63.922-60.347,111.913-124.269,107.202
	c-57.36-4.232-102.979-49.842-107.202-107.202H246.165z M299.071,266.301c4.71,15.479,21.086,24.209,36.565,19.498
	c15.479-4.71,24.209-21.086,19.498-36.565s-21.086-24.209-36.565-19.498c-9.344,2.842-16.657,10.155-19.498,19.498h-35.669
	c4.71-35.114,37-59.758,72.114-55.048c35.114,4.71,59.758,37,55.048,72.114s-37,59.758-72.114,55.048
	c-28.663-3.848-51.199-26.393-55.048-55.048H299.071z M326.958,249.235h-8.772c4.71-4.847,12.467-4.958,17.314-0.247
	c4.847,4.71,4.958,12.467,0.247,17.314c-4.71,4.847-12.467,4.958-17.314,0.247c-0.085-0.085-0.171-0.162-0.247-0.247h8.738
	c4.71,0,8.533-3.823,8.533-8.533c0-4.71-3.823-8.533-8.533-8.533H326.958z"/>
<rect x="85.332" y="0.007" width="68.266" height="17.066"/>
<rect x="153.597" y="59.738" width="68.266" height="17.066"/>
<rect x="51.199" y="0.007" width="17.066" height="17.066"/>
<rect x="34.133" y="162.136" width="68.266" height="17.066"/>
<rect y="162.136" width="17.066" height="17.066"/>
<rect x="68.266" y="349.867" width="51.199" height="17.066"/>
<rect x="34.133" y="349.867" width="17.066" height="17.066"/>
<rect x="170.664" y="426.665" width="17.066" height="17.066"/>
<rect x="34.133" y="494.931" width="68.266" height="17.066"/>
<rect y="494.931" width="17.066" height="17.066"/>
<g>
</g>
<g>
</g>
<g>
</g>
<g>
</g>
<g>
</g>
<g>
</g>
<g>
</g>
<g>
</g>
<g>
</g>
<g>
</g>
<g>
</g>
<g>
</g>
<g>
</g>
<g>
</g>
<g>
</g>
</svg>
