<?xml version="1.0" encoding="iso-8859-1"?>
<!-- Generator: Adobe Illustrator 19.0.0, SVG Export Plug-In . SVG Version: 6.00 Build 0)  -->
<svg version="1.1" id="Capa_1" xmlns="http://www.w3.org/2000/svg" xmlns:xlink="http://www.w3.org/1999/xlink" x="0px" y="0px"
	 viewBox="0 0 512 512" style="enable-background:new 0 0 512 512;" xml:space="preserve">
<g>
	<path style="fill:#F5D0C7;" d="M153.6,298.667V332.8c-0.026,9.412-7.654,17.041-17.067,17.067H93.355
		c-5.274,0.017-10.479-1.212-15.189-3.584l-9.899-4.949H51.2v-42.667h17.067c0.026-9.412,7.654-17.041,17.067-17.067h51.2
		C145.946,281.626,153.574,289.254,153.6,298.667z"/>
	<path style="fill:#F5D0C7;" d="M349.867,384v34.645c0.017,5.274-1.212,10.479-3.584,15.189l-4.949,9.899V460.8h-42.667v-17.067
		c-9.412-0.026-17.041-7.654-17.067-17.067v-51.2c0.026-9.412,7.654-17.041,17.067-17.067H332.8
		c9.412,0.026,17.041,7.654,17.067,17.067V384z"/>
	<path style="fill:#F5D0C7;" d="M460.8,170.667v42.667h-17.067c-0.026,9.412-7.654,17.041-17.067,17.067h-51.2
		c-9.412-0.026-17.041-7.654-17.067-17.067V179.2c0.026-9.412,7.654-17.041,17.067-17.067h43.179
		c5.274-0.017,10.479,1.212,15.189,3.584l9.899,4.949H460.8z"/>
	<path style="fill:#F5D0C7;" d="M230.4,128v8.533c-0.026,9.412-7.654,17.041-17.067,17.067H179.2
		c-9.412-0.026-17.041-7.654-17.067-17.067V93.355c-0.017-5.274,1.212-10.479,3.584-15.189l4.949-9.899V51.2h42.667v17.067
		c9.412,0.026,17.041,7.654,17.067,17.067V128z"/>
</g>
<g>
	<rect x="298.667" y="460.8" style="fill:#00448F;" width="42.667" height="51.2"/>
	<rect x="460.8" y="170.667" style="fill:#00448F;" width="51.2" height="42.667"/>
	<rect x="170.667" style="fill:#00448F;" width="42.667" height="51.2"/>
	<rect y="298.667" style="fill:#00448F;" width="51.2" height="42.667"/>
</g>
<path style="fill:#FF8030;" d="M384,256v128h-34.133v-8.533c-0.026-9.412-7.654-17.041-17.067-17.067h-34.133
	c-9.412,0.026-17.041,7.654-17.067,17.067V384H256v-52.821c-4.139,3.806-9.566,5.905-15.189,5.888
	c-12.51,0.026-22.673-10.095-22.699-22.613c-0.026-12.51,10.095-22.673,22.613-22.699c5.649-0.009,11.102,2.091,15.283,5.888V256
	h50.176c-10.095,7.356-12.322,21.495-4.966,31.59c7.356,10.095,21.495,12.322,31.59,4.966c10.095-7.356,12.322-21.495,4.966-31.59
	c-1.391-1.903-3.072-3.575-4.975-4.966H384z"/>
<path style="fill:#62BEFF;" d="M384,230.4V256h-51.2c10.155,7.356,12.425,21.547,5.077,31.701s-21.547,12.425-31.701,5.077
	c-10.155-7.356-12.425-21.547-5.077-31.701c1.408-1.946,3.123-3.661,5.077-5.077H256v-47.019c9.071,8.619,23.415,8.252,32.026-0.828
	c8.619-9.071,8.252-23.415-0.828-32.026c-8.747-8.303-22.46-8.303-31.206,0V128h128v34.133h-8.533
	c-9.412,0.026-17.041,7.654-17.067,17.067v34.133c0.026,9.412,7.654,17.041,17.067,17.067H384z"/>
<path style="fill:#FFDB6F;" d="M256,176.128c9.071-8.619,23.415-8.252,32.026,0.828c8.619,9.071,8.252,23.415-0.828,32.026
	c-8.747,8.303-22.46,8.303-31.206,0V256h-45.568c3.089-3.908,4.779-8.755,4.779-13.739c0.034-12.51-10.078-22.69-22.588-22.724
	c-12.51-0.034-22.69,10.078-22.724,22.588c-0.017,5.018,1.638,9.899,4.693,13.875H128V128h34.133v8.533
	c0.026,9.412,7.654,17.041,17.067,17.067h34.133c9.412-0.026,17.041-7.654,17.067-17.067V128H256V176.128z"/>
<path style="fill:#03AA6F;" d="M256,331.179V384H128v-34.133h8.533c9.412-0.026,17.041-7.654,17.067-17.067v-34.133
	c-0.026-9.412-7.654-17.041-17.067-17.067H128V256h46.592c-7.612-9.924-5.734-24.141,4.19-31.753
	c9.924-7.612,24.141-5.734,31.753,4.19c3.038,3.968,4.685,8.823,4.676,13.824c0,4.983-1.69,9.83-4.779,13.739H256v41.643
	c-9.276-8.38-23.586-7.654-31.966,1.621c-8.38,9.276-7.654,23.586,1.621,31.966c4.156,3.755,9.549,5.828,15.147,5.837
	C246.434,337.084,251.861,334.985,256,331.179z"/>
<rect x="298.667" y="452.267" width="42.667" height="17.067"/>
<path d="M74.308,353.894c5.931,2.953,12.459,4.497,19.081,4.506h26.078V384c0,4.71,3.823,8.533,8.533,8.533h126.618
	c-0.299,0.179-0.58,0.375-0.853,0.589c-3.328,3.328-3.328,8.738,0,12.066l19.302,19.337v2.142
	c0.017,10.846,6.844,20.514,17.067,24.141V512H307.2v-42.667h25.6V512h17.067v-66.253l4.036-8.055
	c2.944-5.931,4.489-12.459,4.497-19.081v-26.078H384c4.71,0,8.533-3.823,8.533-8.533V257.374c0.179,0.299,0.375,0.58,0.589,0.853
	c3.328,3.328,8.738,3.328,12.066,0l19.328-19.294h2.15c10.846-0.017,20.514-6.844,24.141-17.067H512V204.8h-42.667v-25.6H512
	v-17.067h-66.253l-8.055-4.028c-5.931-2.953-12.459-4.497-19.081-4.506h-26.078V128c0-4.71-3.823-8.533-8.533-8.533H257.382
	c0.299-0.179,0.58-0.375,0.853-0.589c3.328-3.337,3.328-8.73,0-12.066l-19.302-19.337v-2.142
	c-0.017-10.846-6.844-20.514-17.067-24.141V0H204.8v42.667h-25.6V0h-17.067v66.253l-4.036,8.055
	c-2.944,5.931-4.489,12.459-4.497,19.081v26.078H128c-4.71,0-8.533,3.823-8.533,8.533v126.626c-0.179-0.299-0.375-0.58-0.589-0.853
	c-3.337-3.328-8.73-3.328-12.066,0l-19.328,19.294h-2.15c-10.846,0.017-20.514,6.844-24.141,17.067H0V307.2h42.667v25.6H0v17.067
	h66.253L74.308,353.894z M136.533,358.4c14.14,0,25.6-11.46,25.6-25.6v-34.133c0-14.14-11.46-25.6-25.6-25.6v-8.533h38.084
	c4.71,0,8.533-3.823,8.533-8.533c0-1.877-0.623-3.703-1.766-5.197c-4.804-6.161-3.703-15.044,2.449-19.849
	c6.161-4.804,15.044-3.703,19.849,2.449c3.985,5.111,3.985,12.279,0,17.391c-2.867,3.738-2.167,9.097,1.57,11.964
	c1.493,1.152,3.319,1.775,5.197,1.775h37.018v19.405c-2.167-0.478-4.386-0.725-6.613-0.725
	c-17.229-0.282-31.437,13.457-31.718,30.686c-0.282,17.229,13.457,31.437,30.686,31.718c0.341,0.009,0.691,0.009,1.033,0
	c2.227,0,4.446-0.247,6.613-0.725v30.575H136.533V358.4z M265.796,393.122c-0.273-0.213-0.555-0.41-0.853-0.589h8.124v7.851
	L265.796,393.122z M341.333,418.611c0,3.968-0.93,7.885-2.697,11.443l-4.941,9.856c-0.589,1.186-0.896,2.5-0.896,3.823v8.533h-25.6
	v-8.533c0-4.71-3.823-8.533-8.533-8.533s-8.533-3.823-8.533-8.533v-51.2c0-4.71,3.823-8.533,8.533-8.533H332.8
	c4.71,0,8.533,3.823,8.533,8.533V418.611z M375.467,375.467H358.4c0-14.14-11.46-25.6-25.6-25.6h-34.133
	c-14.14,0-25.6,11.46-25.6,25.6h-8.533V331.17c0-4.71-3.823-8.533-8.533-8.533c-2.116,0-4.156,0.785-5.726,2.21
	c-5.76,5.274-14.703,4.881-19.977-0.879c-5.274-5.76-4.881-14.703,0.879-19.977c5.402-4.949,13.696-4.949,19.098,0
	c3.49,3.166,8.892,2.893,12.049-0.597c1.425-1.57,2.21-3.61,2.21-5.726v-33.135h25.327c-1.058,3.14-1.596,6.434-1.596,9.745
	c0.282,17.229,14.49,30.967,31.718,30.686c16.828-0.282,30.404-13.858,30.686-30.686c0-3.311-0.538-6.605-1.596-9.745h26.394
	V375.467z M393.122,246.204c-0.213,0.273-0.41,0.555-0.589,0.853v-8.124h7.859L393.122,246.204z M430.08,173.372l9.865,4.932
	c1.178,0.589,2.475,0.896,3.789,0.896h8.533v25.6h-8.533c-4.71,0-8.533,3.823-8.533,8.533s-3.823,8.533-8.533,8.533h-51.2
	c-4.71,0-8.533-3.823-8.533-8.533V179.2c0-4.71,3.823-8.533,8.533-8.533h43.145C422.596,170.667,426.522,171.588,430.08,173.372z
	 M375.467,153.6c-14.14,0-25.6,11.46-25.6,25.6v34.133c0,14.14,11.46,25.6,25.6,25.6v8.533H332.8c-4.71,0-8.533,3.814-8.542,8.525
	c0,2.731,1.297,5.291,3.507,6.903c3.678,2.62,5.862,6.861,5.862,11.383c-0.188,7.808-6.673,13.978-14.481,13.79
	c-7.535-0.188-13.602-6.255-13.79-13.79c0-4.523,2.193-8.764,5.871-11.383c3.806-2.773,4.642-8.115,1.869-11.921
	c-1.613-2.21-4.19-3.516-6.929-3.507h-41.634v-24.533c16.794,3.891,33.553-6.562,37.444-23.356
	c3.891-16.794-6.562-33.553-23.347-37.444c-4.634-1.075-9.463-1.075-14.097,0v-25.6h110.933V153.6z M246.204,118.878
	c0.273,0.213,0.555,0.41,0.853,0.589h-8.124v-7.851L246.204,118.878z M170.667,93.389c0-3.968,0.93-7.885,2.697-11.443l4.941-9.856
	c0.589-1.186,0.896-2.5,0.896-3.823v-8.533h25.6v8.533c0,4.71,3.823,8.533,8.533,8.533s8.533,3.823,8.533,8.533v51.2
	c0,4.71-3.823,8.533-8.533,8.533H179.2c-4.71,0-8.533-3.823-8.533-8.533V93.389z M136.533,136.533H153.6
	c0,14.14,11.46,25.6,25.6,25.6h34.133c14.14,0,25.6-11.46,25.6-25.6h8.533v40.644h0.154c0.546,4.642,4.745,7.962,9.387,7.415
	c1.826-0.213,3.541-1.024,4.864-2.295c5.658-5.376,14.601-5.154,19.977,0.503c5.376,5.658,5.154,14.601-0.503,19.977
	c-5.453,5.188-14.02,5.188-19.473,0c-3.422-3.243-8.823-3.098-12.066,0.324c-1.493,1.579-2.338,3.669-2.338,5.845v38.519h-24.175
	c2.91-16.99-8.499-33.118-25.489-36.028c-16.99-2.91-33.118,8.499-36.028,25.489c-0.597,3.49-0.597,7.049,0,10.539h-25.242V136.533z
	 M118.878,265.796c0.213-0.273,0.41-0.555,0.589-0.853v8.124h-7.859L118.878,265.796z M59.733,307.2h8.533
	c4.71,0,8.533-3.823,8.533-8.533s3.823-8.533,8.533-8.533h51.2c4.71,0,8.533,3.823,8.533,8.533V332.8
	c0,4.71-3.823,8.533-8.533,8.533H93.389c-3.977,0-7.893-0.93-11.443-2.705l-9.865-4.932c-1.186-0.589-2.492-0.896-3.814-0.896
	h-8.533V307.2z"/>
<g>
</g>
<g>
</g>
<g>
</g>
<g>
</g>
<g>
</g>
<g>
</g>
<g>
</g>
<g>
</g>
<g>
</g>
<g>
</g>
<g>
</g>
<g>
</g>
<g>
</g>
<g>
</g>
<g>
</g>
</svg>
