<?xml version="1.0" encoding="iso-8859-1"?>
<!-- Generator: Adobe Illustrator 19.0.0, SVG Export Plug-In . SVG Version: 6.00 Build 0)  -->
<svg version="1.1" id="Capa_1" xmlns="http://www.w3.org/2000/svg" xmlns:xlink="http://www.w3.org/1999/xlink" x="0px" y="0px"
	 viewBox="0 0 511.983 511.983" style="enable-background:new 0 0 511.983 511.983;" xml:space="preserve">
<path style="fill:#62BEFF;" d="M501.048,8.45v312.659H10.935V8.45H501.048z M450.347,80.277c0-11.67-9.456-21.126-21.126-21.126
	c-11.67,0-21.126,9.456-21.126,21.126s9.456,21.126,21.126,21.126C440.891,101.403,450.347,91.947,450.347,80.277z M365.845,122.528
	c0-11.67-9.456-21.126-21.126-21.126c-11.67,0-21.126,9.456-21.126,21.126s9.456,21.126,21.126,21.126
	C356.389,143.654,365.845,134.198,365.845,122.528z M281.342,223.931c0-11.67-9.456-21.126-21.126-21.126
	c-11.67,0-21.126,9.456-21.126,21.126s9.456,21.126,21.126,21.126C271.878,245.057,281.342,235.601,281.342,223.931z M188.39,164.78
	c0-11.67-9.456-21.126-21.126-21.126s-21.126,9.456-21.126,21.126s9.456,21.126,21.126,21.126S188.39,176.449,188.39,164.78z
	 M103.887,249.282c0-11.67-9.456-21.126-21.126-21.126s-21.126,9.456-21.126,21.126s9.456,21.126,21.126,21.126
	S103.887,260.952,103.887,249.282z"/>
<g>
	<circle style="fill:#00448F;" cx="429.221" cy="80.277" r="21.126"/>
	<circle style="fill:#00448F;" cx="344.719" cy="122.528" r="21.126"/>
	<circle style="fill:#00448F;" cx="260.217" cy="223.931" r="21.126"/>
	<circle style="fill:#00448F;" cx="167.264" cy="164.78" r="21.126"/>
	<circle style="fill:#00448F;" cx="82.762" cy="249.282" r="21.126"/>
</g>
<g>
	<path style="fill:#454545;" d="M501.048,329.559H10.935c-4.665,0-8.45-3.786-8.45-8.45V8.45C2.484,3.786,6.27,0,10.935,0h490.114
		c4.665,0,8.45,3.786,8.45,8.45v312.659C509.499,325.774,505.713,329.559,501.048,329.559z M19.385,312.659h473.213V16.9H19.385
		L19.385,312.659L19.385,312.659z"/>
	<rect x="247.584" y="321.109" style="fill:#454545;" width="16.9" height="135.204"/>
	<rect x="247.584" y="456.313" style="fill:#454545;" width="16.9" height="50.701"/>
</g>
<g>
	<path style="fill:#FFDB6F;" d="M167.264,194.355c-16.334,0-29.576-13.242-29.576-29.576s13.242-29.576,29.576-29.576
		s29.576,13.242,29.576,29.576S183.598,194.355,167.264,194.355L167.264,194.355z M167.264,152.104
		c-6.997,0-12.675,5.679-12.675,12.675s5.679,12.675,12.675,12.675s12.675-5.679,12.675-12.675S174.261,152.104,167.264,152.104z"/>
	<path style="fill:#FFDB6F;" d="M82.762,278.858c-16.334,0-29.576-13.242-29.576-29.576s13.242-29.576,29.576-29.576
		s29.576,13.242,29.576,29.576S99.096,278.858,82.762,278.858z M82.762,236.607c-6.997,0-12.675,5.679-12.675,12.675
		c0,6.997,5.679,12.675,12.675,12.675c6.997,0,12.675-5.679,12.675-12.675l0,0C95.437,242.285,89.758,236.607,82.762,236.607z"/>
	<path style="fill:#FFDB6F;" d="M260.217,253.507c-16.334,0-29.576-13.242-29.576-29.576s13.242-29.576,29.576-29.576
		s29.576,13.242,29.576,29.576S276.551,253.507,260.217,253.507z M260.217,211.256c-6.997,0-12.675,5.679-12.675,12.675
		c0,6.997,5.679,12.675,12.675,12.675s12.675-5.679,12.675-12.675C272.892,216.935,267.213,211.256,260.217,211.256z"/>
	<path style="fill:#FFDB6F;" d="M344.719,152.104c-16.334,0-29.576-13.242-29.576-29.576s13.242-29.576,29.576-29.576
		c16.334,0,29.576,13.242,29.576,29.576S361.053,152.104,344.719,152.104z M344.719,109.853c-6.997,0-12.675,5.679-12.675,12.675
		c0,6.997,5.679,12.675,12.675,12.675s12.675-5.679,12.675-12.675C357.394,115.532,351.716,109.853,344.719,109.853z"/>
	<path style="fill:#FFDB6F;" d="M429.221,109.853c-16.334,0-29.576-13.242-29.576-29.576s13.242-29.576,29.576-29.576
		s29.576,13.242,29.576,29.576S445.556,109.853,429.221,109.853z M429.221,67.602c-6.997,0-12.675,5.679-12.675,12.675
		c0,6.997,5.679,12.675,12.675,12.675s12.675-5.679,12.675-12.675C441.897,73.28,436.218,67.602,429.221,67.602z"/>
	
		<rect x="107.079" y="198.579" transform="matrix(-0.7071 0.7071 -0.7071 -0.7071 359.7893 265.028)" style="fill:#FFDB6F;" width="35.854" height="16.9"/>
	
		<rect x="282.392" y="163.032" transform="matrix(-0.6397 0.7686 -0.7686 -0.6397 630.3783 47.4736)" style="fill:#FFDB6F;" width="43.34" height="16.9"/>
	
		<rect x="380.422" y="92.635" transform="matrix(-0.8956 0.4449 -0.4449 -0.8956 779.5981 19.1993)" style="fill:#FFDB6F;" width="14.247" height="16.901"/>
	
		<rect x="207.879" y="182.607" transform="matrix(-0.5491 0.8358 -0.8358 -0.5491 498.0807 121.2555)" style="fill:#FFDB6F;" width="16.901" height="24.769"/>
</g>
<g>
	
		<rect x="425.023" y="299.086" transform="matrix(-0.8087 0.5882 -0.5882 -0.8087 1027.5493 493.8486)" style="fill:#454545;" width="16.9" height="229.844"/>
	
		<rect x="-36.388" y="405.619" transform="matrix(-0.5884 0.8086 -0.8086 -0.5884 459.557 594.1972)" style="fill:#454545;" width="229.852" height="16.901"/>
</g>
<path d="M10.935,329.559h118.608L4.098,502.046l13.672,9.937L150.44,329.559h97.102v177.455h16.9V329.559h97.102l132.669,182.424
	l13.672-9.937L382.441,329.559h118.608c4.665,0,8.45-3.786,8.45-8.45V8.45c0-4.665-3.786-8.45-8.45-8.45H10.935
	c-4.665,0-8.45,3.786-8.45,8.45v312.659C2.484,325.774,6.262,329.559,10.935,329.559z M19.385,16.9h473.213v295.758H19.385
	L19.385,16.9L19.385,16.9z"/>
<path d="M167.264,135.204c-16.334,0-29.576,13.242-29.576,29.576s13.242,29.576,29.576,29.576s29.576-13.242,29.576-29.576l0,0
	C196.84,148.445,183.598,135.204,167.264,135.204z M167.264,177.455c-6.997,0-12.675-5.679-12.675-12.675
	s5.679-12.675,12.675-12.675s12.675,5.679,12.675,12.675S174.261,177.455,167.264,177.455z"/>
<path d="M82.762,219.706c-16.334,0-29.576,13.242-29.576,29.576s13.242,29.576,29.576,29.576s29.576-13.242,29.576-29.576
	S99.096,219.706,82.762,219.706z M82.762,261.957c-6.997,0-12.675-5.679-12.675-12.675c0-6.997,5.679-12.675,12.675-12.675
	c6.997,0,12.675,5.679,12.675,12.675C95.437,256.279,89.758,261.957,82.762,261.957L82.762,261.957z"/>
<path d="M260.217,194.355c-16.334,0-29.576,13.242-29.576,29.576s13.242,29.576,29.576,29.576s29.576-13.242,29.576-29.576
	S276.551,194.355,260.217,194.355z M260.217,236.607c-6.997,0-12.675-5.679-12.675-12.675c0-6.997,5.679-12.675,12.675-12.675
	s12.675,5.679,12.675,12.675C272.892,230.928,267.213,236.607,260.217,236.607z"/>
<path d="M344.719,92.953c-16.334,0-29.576,13.242-29.576,29.576s13.242,29.576,29.576,29.576c16.334,0,29.576-13.242,29.576-29.576
	S361.053,92.953,344.719,92.953z M344.719,135.204c-6.997,0-12.675-5.679-12.675-12.675c0-6.997,5.679-12.675,12.675-12.675
	s12.675,5.679,12.675,12.675C357.394,129.525,351.716,135.204,344.719,135.204z"/>
<path d="M429.221,50.701c-16.334,0-29.576,13.242-29.576,29.576s13.242,29.576,29.576,29.576s29.576-13.242,29.576-29.576
	S445.556,50.701,429.221,50.701z M429.221,92.953c-6.997,0-12.675-5.679-12.675-12.675c0-6.997,5.679-12.675,12.675-12.675
	s12.675,5.679,12.675,12.675C441.897,87.274,436.218,92.953,429.221,92.953z"/>
<rect x="107.079" y="198.579" transform="matrix(-0.7071 0.7071 -0.7071 -0.7071 359.7893 265.028)" width="35.854" height="16.9"/>
<rect x="282.234" y="163.076" transform="matrix(-0.6402 0.7682 -0.7682 -0.6402 630.1776 47.9038)" width="43.273" height="16.9"/>
<rect x="380.408" y="92.652" transform="matrix(-0.8944 0.4472 -0.4472 -0.8944 779.4036 18.2126)" width="14.289" height="16.9"/>
<rect x="207.871" y="182.615" transform="matrix(-0.5506 0.8347 -0.8347 -0.5506 498.1972 121.7776)" width="16.9" height="24.741"/>
<g>
</g>
<g>
</g>
<g>
</g>
<g>
</g>
<g>
</g>
<g>
</g>
<g>
</g>
<g>
</g>
<g>
</g>
<g>
</g>
<g>
</g>
<g>
</g>
<g>
</g>
<g>
</g>
<g>
</g>
</svg>
