<?xml version="1.0" encoding="iso-8859-1"?>
<!-- Generator: Adobe Illustrator 19.0.0, SVG Export Plug-In . SVG Version: 6.00 Build 0)  -->
<svg version="1.1" id="Capa_1" xmlns="http://www.w3.org/2000/svg" xmlns:xlink="http://www.w3.org/1999/xlink" x="0px" y="0px"
	 viewBox="0 0 512.007 512.007" style="enable-background:new 0 0 512.007 512.007;" xml:space="preserve">
<g>
	<circle style="fill:#168DE2;" cx="463.829" cy="255.973" r="39.591"/>
	<path style="fill:#168DE2;" d="M431.005,81.006c15.478,15.478,15.486,40.58,0,56.058c-15.486,15.478-40.58,15.486-56.058,0
		c-15.452-15.452-15.486-40.487-0.085-55.982l0.085-0.085C390.441,65.553,415.51,65.553,431.005,81.006z"/>
	<circle style="fill:#168DE2;" cx="402.993" cy="402.987" r="39.642"/>
</g>
<g>
	<path style="fill:#FFCB5A;" d="M332.199,213.344c-14.3-0.162-25.76-11.894-25.597-26.195c0.162-14.3,11.894-25.76,26.195-25.597
		c14.3,0.162,25.76,11.894,25.597,26.195c-0.162,14.07-11.527,25.435-25.597,25.597H332.199z"/>
	<path style="fill:#FFCB5A;" d="M332.796,307.202c15.111-0.973,28.149,10.486,29.121,25.597
		c0.973,15.111-10.486,28.149-25.597,29.121s-28.149-10.486-29.121-25.597c-0.947-14.71,9.906-27.534,24.574-29.036l0.427,0.427
		v-0.512L332.796,307.202L332.796,307.202z"/>
</g>
<g>
	<circle style="fill:#168DE2;" cx="255.978" cy="48.155" r="39.591"/>
	<circle style="fill:#168DE2;" cx="255.978" cy="463.824" r="39.591"/>
</g>
<g>
	<path style="fill:#FFCB5A;" d="M188.341,213.344h-0.597c-13.968-0.162-25.162-11.621-25-25.597
		c0.162-13.968,11.621-25.162,25.597-25c13.968,0.162,25.162,11.621,25,25.597C213.179,202.081,202.078,213.182,188.341,213.344z"/>
	<path style="fill:#FFCB5A;" d="M188.341,307.202c14.3,0.162,25.76,11.894,25.597,26.195s-11.894,25.76-26.195,25.597
		s-25.76-11.894-25.597-26.195c0.162-14.07,11.527-25.435,25.597-25.597H188.341z"/>
</g>
<g>
	<circle style="fill:#168DE2;" cx="109.032" cy="109.035" r="39.642"/>
	<circle style="fill:#168DE2;" cx="109.032" cy="402.987" r="39.642"/>
	<circle style="fill:#168DE2;" cx="48.152" cy="255.973" r="39.591"/>
</g>
<path style="fill:#FF8030;" d="M332.796,366.929c-18.848-0.418-33.78-16.033-33.371-34.881c0.384-17.492,13.934-31.852,31.374-33.26
	c0.461-0.077,0.93-0.119,1.399-0.119h0.597c18.848,0,34.13,15.282,34.13,34.13C366.926,351.647,351.644,366.929,332.796,366.929z
	 M332.958,315.734c-0.282,0.043-0.572,0.068-0.853,0.077c-8.763,1.024-15.034,8.959-14.01,17.722
	c1.024,8.763,8.959,15.034,17.722,14.01c8.763-1.024,15.034-8.959,14.01-17.722C348.837,321.383,341.431,315.197,332.958,315.734z"
	/>
<g>
	<path style="fill:#00448F;" d="M256.004,96.279c-26.579,0-48.123-21.545-48.123-48.123s21.545-48.123,48.123-48.123
		s48.123,21.545,48.123,48.123l0,0C304.101,74.717,282.574,96.245,256.004,96.279z M256.004,17.097
		c-17.15,0-31.058,13.908-31.058,31.058s13.908,31.058,31.058,31.058c17.15,0,31.058-13.908,31.058-31.058l0,0
		C287.045,31.005,273.154,17.114,256.004,17.097z"/>
	<path style="fill:#00448F;" d="M48.152,304.13c-26.579,0-48.123-21.545-48.123-48.123s21.545-48.123,48.123-48.123
		s48.123,21.545,48.123,48.123l0,0C96.241,282.568,74.714,304.096,48.152,304.13z M48.152,224.948
		c-17.15,0-31.058,13.908-31.058,31.058s13.908,31.058,31.058,31.058s31.058-13.908,31.058-31.058l0,0
		C79.194,238.856,65.303,224.966,48.152,224.948z"/>
	<path style="fill:#00448F;" d="M463.855,304.13c-26.579,0-48.123-21.545-48.123-48.123s21.545-48.123,48.123-48.123
		s48.123,21.545,48.123,48.123l0,0C511.944,282.568,490.416,304.096,463.855,304.13z M463.855,224.948
		c-17.15,0-31.058,13.908-31.058,31.058s13.908,31.058,31.058,31.058s31.058-13.908,31.058-31.058l0,0
		C494.896,238.856,481.005,224.966,463.855,224.948z"/>
	<path style="fill:#00448F;" d="M256.004,511.981c-26.579,0-48.123-21.545-48.123-48.123c0-26.579,21.545-48.123,48.123-48.123
		s48.123,21.545,48.123,48.123l0,0C304.101,490.42,282.574,511.947,256.004,511.981z M256.004,432.8
		c-17.15,0-31.058,13.908-31.058,31.058s13.908,31.058,31.058,31.058c17.15,0,31.058-13.908,31.058-31.058l0,0
		C287.045,446.708,273.154,432.817,256.004,432.8z"/>
</g>
<g>
	<path style="fill:#FF8030;" d="M332.796,221.877c-18.848,0-34.13-15.282-34.13-34.13s15.282-34.13,34.13-34.13
		c18.848,0,34.13,15.282,34.13,34.13S351.644,221.877,332.796,221.877z M332.796,170.682c-9.428,0-17.065,7.637-17.065,17.065
		c0,9.428,7.637,17.065,17.065,17.065c9.428,0,17.065-7.637,17.065-17.065C349.861,178.318,342.224,170.682,332.796,170.682z"/>
	<path style="fill:#FF8030;" d="M188.546,221.877c-18.848,0.444-34.48-14.471-34.923-33.319
		c-0.444-18.848,14.471-34.48,33.319-34.923c18.848-0.444,34.48,14.471,34.923,33.319c0.009,0.265,0.009,0.529,0.009,0.794
		C221.976,206.322,207.121,221.535,188.546,221.877z M187.744,170.682c-9.428,0-17.065,7.637-17.065,17.065
		c0,9.428,7.637,17.065,17.065,17.065s17.065-7.637,17.065-17.065C204.809,178.318,197.172,170.682,187.744,170.682z"/>
	<path style="fill:#FF8030;" d="M187.744,366.929c-18.848,0-34.13-15.282-34.13-34.13c0-18.848,15.282-34.13,34.13-34.13
		s34.13,15.282,34.13,34.13C221.874,351.647,206.592,366.929,187.744,366.929z M188.128,315.734
		c-9.42-0.213-17.236,7.253-17.44,16.672c-0.213,9.42,7.253,17.236,16.672,17.44c9.42,0.205,17.236-7.253,17.44-16.672
		c0-0.128,0.009-0.256,0.009-0.375C204.86,323.499,197.428,315.888,188.128,315.734z"/>
	<polygon style="fill:#FF8030;" points="179.809,307.714 179.809,213.344 196.874,212.832 196.874,307.202 	"/>
	<polygon style="fill:#FF8030;" points="323.666,307.714 323.666,213.344 340.731,212.832 340.731,307.202 	"/>
	<polygon style="fill:#FF8030;" points="326.2,313.78 208.358,193.455 220.543,181.527 337.864,301.323 	"/>
</g>
<g>
	<path style="fill:#00448F;" d="M109.023,157.115c-26.579-0.009-48.123-21.562-48.123-48.14s21.562-48.123,48.14-48.123
		c12.765,0,25.009,5.077,34.028,14.104l0,0c18.806,18.754,18.848,49.19,0.094,67.995c-9.053,9.079-21.357,14.164-34.181,14.13
		L109.023,157.115z M109.023,78.002c-17.142,0.06-30.981,14.002-30.922,31.135c0.06,17.133,14.002,30.981,31.135,30.922
		c17.133-0.06,30.981-14.002,30.922-31.135c-0.026-8.217-3.311-16.084-9.13-21.877C125.184,81.236,117.274,77.985,109.023,78.002
		L109.023,78.002z"/>
	<path style="fill:#00448F;" d="M109.023,451.059c-26.553,0.068-48.132-21.408-48.2-47.961c-0.034-12.816,5.051-25.111,14.13-34.164
		l0,0c18.771-18.857,49.275-18.925,68.132-0.162c18.857,18.763,18.925,49.275,0.162,68.132c-9.07,9.113-21.399,14.215-34.249,14.19
		L109.023,451.059z M87.061,380.973c-12.159,12.142-12.167,31.835-0.026,43.993s31.835,12.167,43.993,0.026
		c12.159-12.142,12.167-31.835,0.026-43.993c-0.009-0.009-0.017-0.017-0.026-0.026C118.844,368.934,99.245,368.934,87.061,380.973z"
		/>
	<path style="fill:#00448F;" d="M402.967,157.115c-26.553,0.043-48.115-21.451-48.157-48.004
		c-0.017-12.748,5.026-24.992,14.027-34.019l0,0l0.085-0.085c18.763-18.865,49.258-18.951,68.132-0.196
		c18.865,18.763,18.951,49.258,0.196,68.132c-9.07,9.121-21.408,14.232-34.266,14.207L402.967,157.115z M374.861,81.091l6.067,5.973
		c-12.142,12.159-12.133,31.852,0.026,43.993c12.159,12.142,31.852,12.133,43.993-0.026c12.133-12.15,12.133-31.826,0-43.968
		c-12.21-12.056-31.852-12.022-44.028,0.068L374.861,81.091z"/>
	<path style="fill:#00448F;" d="M402.967,451.059c-26.579-0.009-48.123-21.562-48.123-48.14
		c0.009-26.579,21.562-48.123,48.14-48.123c12.765,0,25.009,5.077,34.027,14.104l0,0c18.806,18.754,18.848,49.19,0.094,67.995
		c-9.061,9.087-21.391,14.181-34.224,14.13L402.967,451.059z M402.967,371.946c-17.142,0.051-30.99,13.993-30.93,31.126
		c0.06,17.133,13.993,30.99,31.126,30.93s30.99-13.993,30.93-31.126c-0.026-8.225-3.319-16.109-9.147-21.903
		C419.111,375.171,411.209,371.929,402.967,371.946L402.967,371.946z"/>
	
		<rect x="56.063" y="292.326" transform="matrix(-0.924 0.3825 -0.3825 -0.924 252.5229 620.3763)" style="fill:#00448F;" width="17.066" height="85.926"/>
	
		<rect x="168.214" y="404.496" transform="matrix(-0.3826 0.9239 -0.9239 -0.3826 657.7417 455.2989)" style="fill:#00448F;" width="17.065" height="85.836"/>
	
		<rect x="292.301" y="438.909" transform="matrix(-0.924 0.3824 -0.3824 -0.924 816.0624 732.6896)" style="fill:#00448F;" width="85.837" height="17.065"/>
	
		<rect x="404.453" y="326.72" transform="matrix(-0.3828 0.9238 -0.9238 -0.3828 928.4029 50.2583)" style="fill:#00448F;" width="85.92" height="17.064"/>
	
		<rect x="438.943" y="133.78" transform="matrix(-0.924 0.3825 -0.3825 -0.924 928.5283 168.8931)" style="fill:#00448F;" width="17.066" height="85.926"/>
	
		<rect x="326.667" y="21.745" transform="matrix(-0.3833 0.9236 -0.9236 -0.3833 523.368 -220.2082)" style="fill:#00448F;" width="17.065" height="85.75"/>
	
		<rect x="133.796" y="56.05" transform="matrix(-0.924 0.3824 -0.3824 -0.924 364.6954 56.6812)" style="fill:#00448F;" width="85.837" height="17.065"/>
	
		<rect x="21.621" y="168.192" transform="matrix(-0.3828 0.9238 -0.9238 -0.3828 252.5655 184.7147)" style="fill:#00448F;" width="85.92" height="17.064"/>
</g>
<path d="M298.666,332.799c-0.051,18.848,15.188,34.173,34.036,34.224c18.848,0.051,34.173-15.188,34.224-34.036
	c0.043-15.819-10.785-29.591-26.169-33.277v-78.857c18.422-4.326,29.838-22.765,25.512-41.186
	c-4.326-18.422-22.765-29.838-41.186-25.512c-18.422,4.326-29.838,22.765-25.512,41.186c2.858,12.15,12.099,21.792,24.121,25.154
	v66.357l-102.39-104.574c-3.003-18.575-20.495-31.203-39.07-28.2c-18.575,3.003-31.203,20.495-28.2,39.07
	c2.193,13.584,12.347,24.514,25.734,27.705v78.857c-18.422,4.326-29.838,22.765-25.512,41.186
	c4.326,18.422,22.765,29.838,41.186,25.512c18.422-4.326,29.838-22.765,25.512-41.186c-2.858-12.15-12.099-21.792-24.121-25.154
	v-79.574c9.138-2.551,16.8-8.806,21.135-17.244l97.953,100.06C305.287,309.318,298.7,320.581,298.666,332.799z M349.861,332.799
	c0,9.428-7.637,17.065-17.065,17.065c-9.428,0-17.065-7.637-17.065-17.065c0-9.428,7.637-17.065,17.065-17.065
	C342.224,315.734,349.861,323.371,349.861,332.799z M315.731,187.747c0-9.428,7.637-17.065,17.065-17.065
	c9.428,0,17.065,7.637,17.065,17.065c0,9.428-7.637,17.065-17.065,17.065C323.368,204.812,315.731,197.167,315.731,187.747z
	 M204.809,332.799c0,9.428-7.637,17.065-17.065,17.065s-17.065-7.637-17.065-17.065c0-9.428,7.637-17.065,17.065-17.065
	S204.809,323.371,204.809,332.799z M187.744,204.812c-9.428,0-17.065-7.637-17.065-17.065c0-9.428,7.637-17.065,17.065-17.065
	s17.065,7.637,17.065,17.065C204.809,197.175,197.172,204.812,187.744,204.812z"/>
<path d="M451.099,402.987c-0.034-10.683-3.66-21.05-10.307-29.42l28.925-69.838c26.357-3.2,45.128-27.159,41.937-53.507
	c-2.662-21.963-19.975-39.266-41.937-41.937l-28.925-69.838c16.374-20.751,12.824-50.854-7.927-67.227
	c-17.415-13.737-41.98-13.72-59.369,0.051l-69.762-29.01c-3.234-26.357-27.227-45.111-53.593-41.869
	c-21.911,2.688-39.181,19.957-41.869,41.869l-69.83,28.934c-20.725-16.399-50.828-12.893-67.227,7.833
	c-13.771,17.406-13.771,41.988,0,59.395l-28.925,69.838c-26.357,3.2-45.128,27.159-41.937,53.507
	c2.662,21.963,19.975,39.266,41.937,41.937l28.925,69.838c-16.399,20.725-12.893,50.828,7.833,67.227
	c17.406,13.771,41.988,13.771,59.395,0l69.83,28.934c3.234,26.357,27.227,45.111,53.592,41.869
	c21.911-2.688,39.181-19.957,41.869-41.869l69.83-28.934c20.845,16.34,50.982,12.688,67.321-8.157
	c6.63-8.456,10.23-18.899,10.213-29.65L451.099,402.987z M494.913,256.007c0,17.15-13.908,31.058-31.058,31.058
	s-31.058-13.908-31.058-31.058s13.908-31.058,31.058-31.058l0,0C481.005,224.966,494.896,238.856,494.913,256.007z M402.976,77.976
	c17.15-0.009,31.067,13.891,31.067,31.05c0,8.242-3.268,16.143-9.096,21.971c-12.295,11.732-31.63,11.732-43.925,0
	c-12.133-12.125-12.133-31.792,0-43.925c5.828-5.828,13.729-9.096,21.963-9.096H402.976z M256.004,17.097
	c17.15,0,31.058,13.908,31.058,31.058s-13.908,31.058-31.058,31.058s-31.058-13.908-31.058-31.058l0,0
	C224.962,31.005,238.862,17.114,256.004,17.097z M87.061,87.064c12.133-12.133,31.792-12.133,43.925,0
	c12.133,12.133,12.133,31.792,0,43.925c-12.295,11.732-31.63,11.732-43.925,0C74.936,118.856,74.936,99.188,87.061,87.064z
	 M17.094,256.007c0-17.15,13.908-31.058,31.058-31.058s31.058,13.908,31.058,31.058s-13.908,31.058-31.058,31.058l0,0
	C31.011,287.039,17.111,273.148,17.094,256.007z M87.061,424.95c-12.125-12.133-12.125-31.792,0-43.925
	c12.133-12.125,31.792-12.125,43.925,0c12.125,12.125,12.125,31.792,0,43.917C118.699,436.682,99.356,436.682,87.061,424.95z
	 M256.004,494.916c-17.15,0-31.058-13.908-31.058-31.058s13.908-31.058,31.058-31.058c17.15,0,31.058,13.908,31.058,31.058l0,0
	C287.045,481,273.154,494.891,256.004,494.916z M256.004,415.735c-21.886,0.034-40.999,14.829-46.519,36.016l-59.104-24.48
	c13.558-22.696,6.143-52.082-16.553-65.64c-15.12-9.027-33.976-9.027-49.087,0l-24.48-59.104
	c25.683-6.689,41.075-32.935,34.386-58.618c-4.386-16.843-17.543-29.992-34.386-34.386l24.48-59.104
	c22.688,13.567,52.074,6.169,65.632-16.519c9.044-15.128,9.044-33.993,0-49.121l59.113-24.48
	c6.689,25.683,32.935,41.075,58.618,34.386c16.843-4.386,29.992-17.543,34.386-34.386l59.07,24.539
	c-13.541,22.696-6.118,52.082,16.579,65.623c15.137,9.027,34.002,9.01,49.121-0.051l24.48,59.104
	c-25.683,6.689-41.075,32.935-34.386,58.618c4.386,16.843,17.543,29.992,34.386,34.386l-24.471,59.122
	c-22.688-13.567-52.074-6.169-65.64,16.51c-9.044,15.128-9.044,33.993,0,49.121l-59.105,24.48
	C297.002,430.564,277.898,415.769,256.004,415.735z M424.947,424.95c-12.295,11.732-31.63,11.732-43.925,0
	c-12.125-12.133-12.125-31.792,0-43.925c12.133-12.125,31.792-12.125,43.925,0C437.071,393.158,437.071,412.817,424.947,424.95z"/>
<g>
</g>
<g>
</g>
<g>
</g>
<g>
</g>
<g>
</g>
<g>
</g>
<g>
</g>
<g>
</g>
<g>
</g>
<g>
</g>
<g>
</g>
<g>
</g>
<g>
</g>
<g>
</g>
<g>
</g>
</svg>
