<?xml version="1.0" encoding="iso-8859-1"?>
<!-- Generator: Adobe Illustrator 19.0.0, SVG Export Plug-In . SVG Version: 6.00 Build 0)  -->
<svg version="1.1" id="Capa_1" xmlns="http://www.w3.org/2000/svg" xmlns:xlink="http://www.w3.org/1999/xlink" x="0px" y="0px"
	 viewBox="0 0 512 512" style="enable-background:new 0 0 512 512;" xml:space="preserve">
<path style="fill:#62BEFF;" d="M503.467,256v247.467H256V401.323c-17.886,16.299-45.602,15.019-61.901-2.867
	c-16.299-17.886-15.019-45.602,2.867-61.901c16.725-15.249,42.308-15.249,59.034,0V256h97.024
	c-19.635,14.182-24.055,41.6-9.865,61.235c14.182,19.635,41.6,24.055,61.235,9.865s24.055-41.6,9.865-61.235
	c-2.739-3.797-6.076-7.125-9.865-9.865L503.467,256L503.467,256z"/>
<path style="fill:#FB5968;" d="M503.467,206.507V256h-99.072c19.635,14.182,24.055,41.6,9.865,61.235
	c-14.182,19.635-41.6,24.055-61.235,9.865s-24.055-41.6-9.865-61.235c2.739-3.797,6.076-7.125,9.865-9.865H256v-90.965
	c17.536,16.649,45.244,15.932,61.884-1.604c16.649-17.536,15.932-45.244-1.604-61.884c-16.896-16.043-43.392-16.043-60.288,0V8.533
	h247.467v197.973H503.467z"/>
<path style="fill:#03AA6F;" d="M256,101.547c17.536-16.717,45.295-16.051,62.012,1.476s16.051,45.295-1.476,62.012
	c-16.947,16.154-43.588,16.154-60.535,0V256h-88.064c14.78-19.132,11.247-46.626-7.885-61.406
	c-19.132-14.78-46.626-11.247-61.406,7.885c-12.177,15.761-12.177,37.751,0,53.521H8.533V8.533H256V101.547z"/>
<path style="fill:#FFCB5A;" d="M256,401.323v102.144H8.533V256h90.112c-14.857-19.132-11.383-46.686,7.748-61.542
	s46.686-11.383,61.542,7.748c12.288,15.829,12.288,37.973,0,53.794H256v80.555c-17.886-16.299-45.602-15.019-61.901,2.867
	c-16.299,17.886-15.019,45.602,2.867,61.901C213.692,416.572,239.275,416.572,256,401.323z"/>
<g>
	<path style="fill:#026340;" d="M123.733,153.6H115.2c-16.495,0-29.867-13.372-29.867-29.867v-4.267H102.4v4.267
		c0,7.066,5.734,12.8,12.8,12.8h8.533c7.066,0,12.8-5.734,12.8-12.8s-5.734-12.8-12.8-12.8H115.2
		c-7.927,0.034-15.539-3.115-21.137-8.73c-11.674-11.657-11.691-30.566-0.034-42.24c5.606-5.615,13.227-8.772,21.171-8.764h8.533
		c16.495,0,29.867,13.372,29.867,29.867v4.267h-17.067v-4.267c0-7.066-5.734-12.8-12.8-12.8H115.2c-7.066,0-12.8,5.734-12.8,12.8
		c0,7.066,5.734,12.8,12.8,12.8h8.533c16.495,0,29.867,13.372,29.867,29.867S140.228,153.6,123.733,153.6z"/>
	<rect x="110.933" y="42.667" style="fill:#026340;" width="17.067" height="17.067"/>
	<rect x="110.933" y="145.067" style="fill:#026340;" width="17.067" height="17.067"/>
</g>
<g>
	<path style="fill:#B8414D;" d="M392.533,119.467c-2.594,0-5.043-1.178-6.665-3.2L351.736,73.6l13.329-10.667l27.469,34.347
		l27.469-34.338l13.329,10.667l-34.133,42.667C397.577,118.298,395.128,119.467,392.533,119.467z"/>
	<rect x="384" y="110.933" style="fill:#B8414D;" width="17.067" height="68.267"/>
	<rect x="366.933" y="119.467" style="fill:#B8414D;" width="51.2" height="17.067"/>
</g>
<g>
	<path style="fill:#C29A44;" d="M153.6,443.733h-34.133c-18.85,0-34.133-15.283-34.133-34.133v-42.667
		c0-18.85,15.283-34.133,34.133-34.133H153.6v17.067h-34.133c-9.429,0-17.067,7.637-17.067,17.067V409.6
		c0,9.429,7.637,17.067,17.067,17.067H153.6V443.733z"/>
	<rect x="76.8" y="366.933" style="fill:#C29A44;" width="42.667" height="17.067"/>
	<rect x="76.8" y="392.533" style="fill:#C29A44;" width="42.667" height="17.067"/>
</g>
<rect x="366.933" y="145.067" style="fill:#B8414D;" width="51.2" height="17.067"/>
<g>
	<path style="fill:#3C769E;" d="M409.6,452.267h-68.267c-4.71,0-8.533-3.823-8.533-8.533c0-2.261,0.896-4.429,2.5-6.033l9.557-9.557
		c3.191-3.2,4.992-7.535,5.009-12.058v-40.619c0-14.14,11.46-25.6,25.6-25.6H409.6v17.067h-34.133c-4.71,0-8.533,3.823-8.533,8.533
		v40.619c-0.017,6.81-2.065,13.466-5.879,19.115H409.6V452.267z"/>
	<rect x="341.333" y="384" style="fill:#3C769E;" width="42.667" height="17.067"/>
</g>
<path d="M503.467,0H8.533C3.823,0,0,3.823,0,8.533v494.933C0,508.177,3.823,512,8.533,512h494.933c4.71,0,8.533-3.823,8.533-8.533
	V8.533C512,3.823,508.177,0,503.467,0z M494.933,247.467h-90.505c-4.71,0-8.533,3.814-8.542,8.525c0,2.731,1.297,5.291,3.507,6.903
	c9.182,6.571,14.618,17.161,14.609,28.45c-0.307,19.49-16.35,35.046-35.84,34.739c-19.063-0.299-34.441-15.676-34.739-34.739
	c-0.017-11.281,5.427-21.879,14.601-28.45c3.806-2.773,4.642-8.115,1.869-11.921c-1.613-2.21-4.173-3.507-6.903-3.507h-88.457
	v-66.492c6.758,3.089,14.106,4.685,21.538,4.685c28.919,0.367,52.659-22.775,53.026-51.686
	c0.367-28.919-22.775-52.659-51.686-53.026c-0.444-0.009-0.887-0.009-1.34,0c-7.433,0-14.78,1.596-21.538,4.676V17.067h230.4
	V247.467z M17.067,17.067h230.4v86.554h0.299c1.101,4.548,5.675,7.347,10.223,6.246c1.451-0.35,2.79-1.084,3.874-2.116
	c14.114-13.449,36.454-12.911,49.894,1.203c13.44,14.114,12.911,36.454-1.195,49.894c-13.636,12.996-35.063,12.996-48.7,0
	c-3.422-3.234-8.823-3.089-12.066,0.341c-1.493,1.579-2.33,3.678-2.33,5.854v82.423h-65.092c2.167-5.769,3.277-11.87,3.277-18.031
	c0.367-28.919-22.775-52.659-51.686-53.026s-52.659,22.775-53.026,51.686c-0.009,0.444-0.009,0.887,0,1.34
	c0,6.161,1.109,12.271,3.285,18.031H17.067V17.067z M17.067,264.533h81.596c4.71,0,8.533-3.823,8.533-8.533
	c0-1.877-0.623-3.703-1.766-5.197c-4.77-6.093-7.381-13.594-7.424-21.333c-0.307-19.49,15.249-35.533,34.739-35.84
	c19.49-0.307,35.533,15.249,35.84,34.739c0.009,0.367,0.009,0.734,0,1.101c-0.043,7.74-2.645,15.241-7.415,21.333
	c-2.867,3.738-2.167,9.097,1.57,11.964c1.493,1.143,3.319,1.766,5.197,1.766h79.531v56.431c-6.545-2.884-13.611-4.369-20.762-4.378
	c-28.919,0.367-52.053,24.107-51.686,53.026c0.358,28.399,23.296,51.328,51.686,51.686c7.151-0.009,14.217-1.502,20.762-4.386v78.02
	h-230.4V264.533z M494.933,494.933h-230.4v-93.611c0-4.71-3.823-8.533-8.533-8.533c-2.116,0-4.156,0.785-5.726,2.21
	c-14.387,13.15-36.719,12.143-49.86-2.253c-13.141-14.396-12.143-36.719,2.253-49.86c13.483-12.314,34.133-12.314,47.607,0
	c3.49,3.166,8.892,2.893,12.049-0.597c1.425-1.57,2.21-3.618,2.21-5.734v-72.021h69.316c-14.916,24.772-6.929,56.951,17.843,71.868
	c24.772,14.916,56.951,6.929,71.868-17.843c10.01-16.614,10.01-37.402,0-54.025h71.373V494.933z"/>
<path d="M110.933,153.165v8.969H128v-8.969c16.29-2.321,27.614-17.417,25.293-33.707c-2.099-14.703-14.703-25.617-29.559-25.591
	H115.2c-7.066,0-12.8-5.734-12.8-12.8c0-7.066,5.734-12.8,12.8-12.8h8.533c7.066,0,12.8,5.734,12.8,12.8v4.267H153.6v-4.267
	c-0.043-14.805-10.94-27.341-25.6-29.431v-8.969h-17.067v8.969c-16.29,2.321-27.614,17.417-25.293,33.707
	c2.099,14.703,14.703,25.617,29.559,25.591h8.533c7.066,0,12.8,5.734,12.8,12.8s-5.734,12.8-12.8,12.8H115.2
	c-7.066,0-12.8-5.734-12.8-12.8v-4.267H85.333v4.267C85.376,138.539,96.273,151.074,110.933,153.165z"/>
<polygon points="384,119.467 366.933,119.467 366.933,136.533 384,136.533 384,145.067 366.933,145.067 366.933,162.133 
	384,162.133 384,179.2 401.067,179.2 401.067,162.133 418.133,162.133 418.133,145.067 401.067,145.067 401.067,136.533 
	418.133,136.533 418.133,119.467 401.067,119.467 401.067,113.929 433.331,73.6 420.002,62.933 392.533,97.271 365.065,62.933 
	351.736,73.6 384,113.929 "/>
<path d="M85.333,366.933H76.8V384h8.533v8.533H76.8V409.6h8.533c0,18.85,15.283,34.133,34.133,34.133H153.6v-17.067h-34.133
	c-9.429,0-17.067-7.637-17.067-17.067h17.067v-17.067H102.4V384h17.067v-17.067H102.4c0-9.429,7.637-17.067,17.067-17.067H153.6
	V332.8h-34.133C100.617,332.8,85.333,348.083,85.333,366.933z"/>
<path d="M349.867,375.467V384h-8.533v17.067h8.533v15.002c-0.009,4.523-1.809,8.858-5.001,12.066L335.3,437.7
	c-3.328,3.337-3.328,8.738,0,12.066c1.604,1.604,3.772,2.5,6.033,2.5H409.6V435.2h-48.546c3.814-5.649,5.862-12.314,5.879-19.132
	v-15.002H384V384h-17.067v-8.533c0-4.71,3.823-8.533,8.533-8.533H409.6v-17.067h-34.133
	C361.327,349.867,349.867,361.327,349.867,375.467z"/>
<g>
</g>
<g>
</g>
<g>
</g>
<g>
</g>
<g>
</g>
<g>
</g>
<g>
</g>
<g>
</g>
<g>
</g>
<g>
</g>
<g>
</g>
<g>
</g>
<g>
</g>
<g>
</g>
<g>
</g>
</svg>
