<?xml version="1.0" encoding="iso-8859-1"?>
<!-- Generator: Adobe Illustrator 19.0.0, SVG Export Plug-In . SVG Version: 6.00 Build 0)  -->
<svg version="1.1" id="Capa_1" xmlns="http://www.w3.org/2000/svg" xmlns:xlink="http://www.w3.org/1999/xlink" x="0px" y="0px"
	 viewBox="0 0 512.073 512.073" style="enable-background:new 0 0 512.073 512.073;" xml:space="preserve">
<polygon style="fill:#DAEFF6;" points="489.106,8.475 489.106,322.061 404.947,322.061 336.551,322.061 268.156,322.061 
	217.898,322.061 234.848,305.11 243.323,296.635 285.7,288.159 285.7,254.258 234.848,254.258 217.898,271.209 209.422,279.684 
	183.996,305.11 183.996,8.475 "/>
<path style="fill:#454545;" d="M489.106,330.536H192.972v-16.951h287.659V16.951H192.472v305.11h-16.951V8.475
	c0-4.678,3.797-8.475,8.475-8.475h305.11c4.678,0,8.475,3.797,8.475,8.475v313.585C497.582,326.739,493.785,330.536,489.106,330.536
	z"/>
<polygon style="fill:#F5D0C7;" points="285.7,254.258 285.7,288.159 243.323,296.635 234.848,305.11 209.422,279.684 
	217.898,271.209 234.848,254.258 "/>
<g>
	<polygon style="fill:#62BEFF;" points="234.848,305.11 217.898,322.061 150.095,389.863 116.194,355.962 116.194,313.585 
		116.194,305.11 150.095,339.011 183.996,305.11 209.422,279.684 	"/>
	<rect x="22.966" y="440.714" style="fill:#62BEFF;" width="93.228" height="59.327"/>
</g>
<path style="fill:#00448F;" d="M116.194,404.271v36.444H22.966V254.258h42.376c28.087,0,50.852,22.765,50.852,50.852v50.852
	l-38.224-38.224c-7.018-6.924-18.332-6.848-25.256,0.169s-6.848,18.332,0.17,25.256C69.072,358.843,96.955,385.964,116.194,404.271z
	"/>
<path style="fill:#62BEFF;" d="M116.194,364.437v39.834c-19.239-18.307-47.123-45.427-63.31-61.107
	c-7.018-6.924-7.094-18.239-0.17-25.256s18.239-7.094,25.256-0.169l38.224,38.223C116.194,355.962,116.194,364.437,116.194,364.437z
	"/>
<path style="fill:#F5D0C7;" d="M116.194,144.08v42.376c0,23.4-18.976,42.376-42.376,42.376H22.966V144.08H116.194z"/>
<path style="fill:#FFCB5A;" d="M116.194,110.179v33.901H22.966c0-18.722,15.179-33.901,33.901-33.901H116.194z"/>
<g>
	<rect x="328.076" y="322.061" style="fill:#454545;" width="16.951" height="135.604"/>
	
		<rect x="438.588" y="313.043" transform="matrix(-0.9115 0.4114 -0.4114 -0.9115 1025.4032 610.0021)" style="fill:#454545;" width="16.943" height="204.602"/>
	
		<rect x="123.773" y="406.834" transform="matrix(-0.4113 0.9115 -0.9115 -0.4113 697.603 380.0578)" style="fill:#454545;" width="204.593" height="16.942"/>
</g>
<path style="fill:#E3BAAF;" d="M56.867,186.456H39.917v-16.951c0-4.678,3.797-8.475,8.475-8.475h16.951v16.951h-8.475V186.456z"/>
<path style="fill:#FB5968;" d="M455.205,101.703h-33.901v16.951h13.442l-38.868,38.868l-19.434-19.434
	c-3.305-3.305-8.679-3.305-11.984,0l-61.81,61.81l-36.384-36.384c-3.305-3.305-8.679-3.305-11.984,0l-42.376,42.376l11.984,11.984
	l36.384-36.384l36.384,36.384c3.305,3.305,8.679,3.305,11.984,0l61.81-61.81l19.434,19.434c3.305,3.305,8.679,3.305,11.984,0
	l44.86-44.86v13.442h16.951v-33.901C463.681,105.5,459.884,101.703,455.205,101.703z"/>
<polygon style="fill:#F5D0C7;" points="294.175,423.764 260.274,457.665 226.373,423.764 222.22,423.764 237.56,389.863 
	260.274,389.863 "/>
<path style="fill:#62BEFF;" d="M237.56,389.863l-15.34,33.901h-84.922c-0.509,0-9.153-8.052-21.103-19.493v-48.309l33.901,33.901
	H237.56z"/>
<path d="M418.058,330.536h71.048c4.678,0,8.475-3.797,8.475-8.475V8.475c0-4.678-3.797-8.475-8.475-8.475h-305.11
	c-4.678,0-8.475,3.797-8.475,8.475v293.126l-25.426,25.426l-25.612-25.612c-1.949-31.24-27.841-55.598-59.14-55.632H22.966
	c-4.678,0-8.475,3.797-8.475,8.475v245.783c0,4.678,3.797,8.475,8.475,8.475h93.228c4.678,0,8.475-3.797,8.475-8.475v-76.04
	c9.136,8.221,10.382,8.238,12.586,8.238h71.879l-32.859,72.794L191.717,512l34.494-76.413l28.07,28.07
	c3.305,3.305,8.679,3.305,11.984,0l33.901-33.901c3.305-3.305,3.305-8.679,0-11.984l-33.901-33.901
	c-1.593-1.593-3.746-2.483-5.992-2.483h-9.594l22.951-50.852h54.445v127.129h16.951V330.536h54.445L481.385,512l15.442-6.967
	L418.058,330.536z M192.472,16.951h288.159v296.635H238.357l9.145-9.145l39.834-7.975c3.966-0.78,6.831-4.263,6.84-8.306v-33.901
	c0-4.678-3.797-8.475-8.475-8.475h-50.852c-2.246,0-4.407,0.89-5.992,2.483l-36.384,36.384L192.472,16.951L192.472,16.951z
	 M237.331,290.643l-2.483,2.483l-13.442-13.442l16.951-16.951h38.868v18.485l-35.596,7.111
	C240.001,288.659,238.501,289.465,237.331,290.643z M156.087,345.003l53.335-53.335l13.442,13.442l-72.769,72.769l-25.426-25.426
	v-26.884l19.434,19.434C147.409,348.309,152.773,348.309,156.087,345.003z M107.719,384.464
	C95.32,372.539,79.25,356.987,58.774,337.07c-3.704-3.619-3.771-9.552-0.153-13.255c0.025-0.025,0.059-0.059,0.085-0.085
	c3.67-3.653,9.602-3.653,13.272,0l35.74,35.74V384.464z M107.719,491.566H31.441V449.19h76.278V491.566z M107.719,432.239H31.441
	V262.734h33.901c23.392,0.025,42.351,18.985,42.376,42.376v30.392l-23.731-23.731c-10.272-10.297-26.951-10.314-37.249-0.042
	c-5,4.983-7.78,11.755-7.738,18.807c0.025,7.035,2.89,13.764,7.95,18.646c28.816,28.045,47.911,46.614,60.768,58.886V432.239z
	 M140.247,415.289c-2.543-2.263-7.568-6.958-15.578-14.586v-24.282l19.434,19.434c0.788,0.797,1.729,1.424,2.771,1.839
	c1.026,0.424,2.119,0.644,3.221,0.644h74.337l-7.628,16.951L140.247,415.289L140.247,415.289z M256.765,398.338l25.426,25.426
	l-21.917,21.917l-26.604-26.612l9.357-20.73H256.765z M232.085,381.388h-61.531l50.852-50.852h33.638L232.085,381.388z"/>
<path d="M22.966,237.308h50.852c28.07-0.025,50.826-22.782,50.852-50.852v-76.278c0-4.678-3.797-8.475-8.475-8.475H56.867
	c-23.392,0.025-42.351,18.985-42.376,42.376v84.753C14.491,233.511,18.279,237.308,22.966,237.308z M73.818,220.357H31.441v-67.802
	h76.278v33.901C107.719,205.178,92.54,220.357,73.818,220.357z M56.867,118.654h50.852v16.951H33.001
	C36.577,125.485,46.129,118.696,56.867,118.654z"/>
<path d="M39.917,169.506v16.951h16.951v-8.475h8.475V161.03H48.392C43.705,161.03,39.917,164.827,39.917,169.506z"/>
<path d="M296.658,217.874c3.305,3.305,8.679,3.305,11.984,0l61.81-61.81l19.434,19.434c3.305,3.305,8.679,3.305,11.984,0
	l44.86-44.86v13.442h16.951v-33.901c0-4.678-3.797-8.475-8.475-8.475h-33.901v16.951h13.442l-38.868,38.868l-19.434-19.434
	c-3.305-3.305-8.679-3.305-11.984,0l-61.81,61.81l-36.384-36.384c-3.305-3.305-8.679-3.305-11.984,0l-42.376,42.376l11.984,11.984
	l36.384-36.384L296.658,217.874z"/>
<g>
</g>
<g>
</g>
<g>
</g>
<g>
</g>
<g>
</g>
<g>
</g>
<g>
</g>
<g>
</g>
<g>
</g>
<g>
</g>
<g>
</g>
<g>
</g>
<g>
</g>
<g>
</g>
<g>
</g>
</svg>
