<?xml version="1.0" encoding="iso-8859-1"?>
<!-- Generator: Adobe Illustrator 19.0.0, SVG Export Plug-In . SVG Version: 6.00 Build 0)  -->
<svg version="1.1" id="Capa_1" xmlns="http://www.w3.org/2000/svg" xmlns:xlink="http://www.w3.org/1999/xlink" x="0px" y="0px"
	 viewBox="0 0 512 512" style="enable-background:new 0 0 512 512;" xml:space="preserve">
<path style="fill:#F3F3F3;" d="M503.467,363.262V493.31H419.84V346.281l0.171-0.085l0.085,0.085l40.704-40.704v-0.256
	C486.153,313.231,503.433,336.698,503.467,363.262z"/>
<g>
	<path style="fill:#F5D0C7;" d="M484.523,174.675v48.64c-0.009,30.814-24.994,55.799-55.808,55.808h-8.533
		c-30.848,0.026-55.868-24.96-55.893-55.808l0,0v-48.64c0.026-30.848,25.045-55.834,55.893-55.808l0,0h8.533
		C459.529,118.876,484.514,143.853,484.523,174.675z"/>
	<path style="fill:#F5D0C7;" d="M460.8,305.321v0.256l-40.704,40.704l-0.085-0.085l-40.789-40.789
		c5.897-1.903,12.066-2.85,18.261-2.816h45.312C448.896,302.581,454.972,303.503,460.8,305.321z"/>
</g>
<path style="fill:#F3F3F3;" d="M420.011,346.195l-0.171,0.085V493.31h-52.907V330.494c0.034-6.46-0.683-12.902-2.133-19.2
	l2.133-0.512c3.866-2.27,7.996-4.079,12.288-5.376L420.011,346.195z"/>
<path style="fill:#E6E6E6;" d="M324.949,493.31h-68.096V302.59l44.288-58.027c32.009,8.627,56.542,34.355,63.659,66.731
	c1.451,6.298,2.167,12.74,2.133,19.2V493.31L324.949,493.31L324.949,493.31z"/>
<g>
	<path style="fill:#F5D0C7;" d="M328.192,90.11v48.128c-0.009,39.868-32.333,72.192-72.201,72.183
		c-39.859-0.009-72.175-32.316-72.183-72.183V90.11c0.009-39.868,32.333-72.192,72.201-72.183
		C295.876,17.935,328.183,50.242,328.192,90.11z"/>
	<path style="fill:#F5D0C7;" d="M301.141,244.563l-44.288,58.027l-41.984-58.027l-0.171-0.597c6.921-1.724,14.029-2.586,21.163-2.56
		h41.984C285.713,241.406,293.555,242.473,301.141,244.563z"/>
</g>
<path style="fill:#E6E6E6;" d="M189.867,493.31h-43.093V330.494c0-5.905,0.572-11.785,1.707-17.579
	c6.844-33.877,32.649-60.74,66.219-68.949l0.171,0.597l41.984,58.027v190.72L189.867,493.31L189.867,493.31z"/>
<path style="fill:#F5D0C7;" d="M91.904,118.867h8.533c30.822,0,55.808,24.986,55.808,55.808v48.64
	c0,30.822-24.986,55.808-55.808,55.808h-8.533c-30.822,0-55.808-24.986-55.808-55.808v-48.64
	C36.096,143.853,61.082,118.867,91.904,118.867z"/>
<path style="fill:#F3F3F3;" d="M148.48,312.915c-1.135,5.794-1.707,11.674-1.707,17.579V493.31H91.904V346.281l0.171-0.085
	l0.085,0.085l40.704-40.704v-0.085C138.428,307.121,143.701,309.63,148.48,312.915z"/>
<path style="fill:#F5D0C7;" d="M132.864,305.491v0.085L92.16,346.281l-0.085-0.085L51.2,305.321
	c5.828-1.818,11.904-2.739,18.005-2.731h45.312C120.747,302.547,126.95,303.529,132.864,305.491z"/>
<path style="fill:#F3F3F3;" d="M51.2,493.31H8.533V363.262c0.034-26.564,17.314-50.031,42.667-57.941l40.875,40.875l-0.171,0.085
	V493.31L51.2,493.31L51.2,493.31z"/>
<g>
	<rect x="42.667" y="379.561" style="fill:#D1D1D1;" width="17.067" height="113.749"/>
	<rect x="452.267" y="376.403" style="fill:#D1D1D1;" width="17.067" height="115.456"/>
</g>
<g>
	<rect x="181.333" y="330.75" style="fill:#F3F3F3;" width="17.067" height="162.56"/>
	<rect x="316.416" y="330.75" style="fill:#F3F3F3;" width="17.067" height="162.56"/>
</g>
<path d="M91.921,287.657h8.533c35.533-0.043,64.324-28.834,64.367-64.367v-48.589c-0.043-35.533-28.843-64.333-64.375-64.367h-8.533
	c-35.533,0.043-64.324,28.834-64.367,64.367v48.589C27.588,258.822,56.388,287.614,91.921,287.657z M44.621,174.701
	c0.026-26.112,21.188-47.275,47.3-47.3h8.533c26.112,0.026,47.275,21.188,47.3,47.3v48.589c-0.026,26.112-21.188,47.275-47.3,47.3
	h-8.533c-26.112-0.026-47.275-21.188-47.3-47.3V174.701z"/>
<path d="M8.533,501.818h494.933c4.71,0,8.533-3.823,8.533-8.533V363.27c-0.043-38.221-31.019-69.197-69.239-69.248h-45.286
	c-9.318,0.009-18.534,1.894-27.102,5.547c-13.321-39.782-50.543-66.628-92.501-66.697h-42.027
	c-42.24,0.068-79.65,27.264-92.749,67.413c-8.969-4.105-18.705-6.229-28.57-6.246H69.239C31.019,294.082,0.051,325.05,0,363.27
	v130.014C0,497.995,3.823,501.818,8.533,501.818z M377.045,315.27l34.261,34.227v135.253h-35.84V330.494
	c-0.034-4.642-0.401-9.276-1.101-13.867C375.262,316.158,376.132,315.655,377.045,315.27z M494.933,363.27v121.481h-25.6V376.446
	h-17.067v108.305h-23.893v-134.63l34.842-34.842C482.432,323.488,494.908,342.364,494.933,363.27z M442.761,311.089
	c0.145,0,0.29,0,0.444,0l-23.091,23.04l-23.04-23.04c0.145,0,0.29,0,0.435,0H442.761z M358.4,330.494v154.283h-24.892V330.776
	h-17.067v153.975h-51.055V305.44l38.869-50.961C336.632,265.726,358.349,296.216,358.4,330.494z M277.871,249.939
	c2.731,0,5.419,0.145,8.081,0.41l-28.911,37.905l-27.494-37.973c2.082-0.162,4.164-0.324,6.289-0.324L277.871,249.939z
	 M155.307,330.494c0.051-34.918,22.571-65.826,55.782-76.595l37.231,51.422v179.43H198.4V330.776h-17.067v153.975h-26.027V330.494z
	 M138.24,330.494v154.283h-37.82V350.121l34.679-34.679c1.408,0.606,2.773,1.289,4.13,2.022
	C138.607,321.781,138.283,326.133,138.24,330.494z M114.509,311.115c0.239,0,0.469,0.051,0.717,0.06l-23.04,23.04L69.12,311.098
	h45.44L114.509,311.115z M17.067,363.27c0.026-20.992,12.612-39.936,31.957-48.094l34.33,34.321v135.253h-23.62V379.595H42.667
	v105.156h-25.6V363.27z"/>
<path d="M256,218.989c44.57-0.051,80.691-36.173,80.742-80.742V90.101c-0.461-44.595-36.983-80.375-81.579-79.915
	c-43.947,0.452-79.462,35.968-79.915,79.915v48.145C175.3,182.816,211.422,218.938,256,218.989z M192.316,90.136
	c0.41-35.166,29.244-63.351,64.418-62.942c34.594,0.401,62.541,28.348,62.942,62.942v48.145
	c-0.06,35.14-28.535,63.607-63.676,63.642l0,0c-35.149-0.034-63.642-28.527-63.684-63.676L192.316,90.136L192.316,90.136z"/>
<path d="M420.156,287.657h8.533c35.533-0.043,64.324-28.834,64.367-64.367v-48.589c-0.043-35.533-28.843-64.333-64.375-64.367
	h-8.533c-35.533,0.043-64.324,28.834-64.367,64.367v48.589C355.823,258.822,384.623,287.614,420.156,287.657z M372.855,174.701
	c0.026-26.112,21.188-47.275,47.3-47.3h8.533c26.112,0.026,47.275,21.188,47.3,47.3v48.589c-0.034,26.112-21.188,47.266-47.3,47.3
	h-8.533c-26.112-0.026-47.275-21.188-47.3-47.3V174.701z"/>
<g>
</g>
<g>
</g>
<g>
</g>
<g>
</g>
<g>
</g>
<g>
</g>
<g>
</g>
<g>
</g>
<g>
</g>
<g>
</g>
<g>
</g>
<g>
</g>
<g>
</g>
<g>
</g>
<g>
</g>
</svg>
