<?xml version="1.0" encoding="iso-8859-1"?>
<!-- Generator: Adobe Illustrator 19.0.0, SVG Export Plug-In . SVG Version: 6.00 Build 0)  -->
<svg version="1.1" id="Capa_1" xmlns="http://www.w3.org/2000/svg" xmlns:xlink="http://www.w3.org/1999/xlink" x="0px" y="0px"
	 viewBox="0 0 512 512" style="enable-background:new 0 0 512 512;" xml:space="preserve">
<g>
	<path style="fill:#DAEFF6;" d="M502.347,340.992c0.102,19.533-3.396,38.912-10.325,57.173
		c-3.157,1.963-25.344,14.848-71.339,22.869c8.03-25.856,11.972-52.804,11.691-79.872L502.347,340.992z"/>
	<path style="fill:#DAEFF6;" d="M502.347,340.565v0.427l-69.973,0.171v-0.256c0.085-26.923-4.036-53.7-12.203-79.36
		c46.763,8.021,69.035,21.248,71.936,23.04C498.831,302.49,502.304,321.442,502.347,340.565z"/>
	<path style="fill:#DAEFF6;" d="M403.616,192.085c40.883,17.468,72.858,50.884,88.491,92.501
		c-2.901-1.792-25.173-15.019-71.936-23.04c-3.447-10.982-7.936-21.606-13.397-31.744h-0.085
		C407.627,217.148,406.594,204.425,403.616,192.085z"/>
	<path style="fill:#DAEFF6;" d="M420.683,421.035c45.995-8.021,68.181-20.907,71.339-22.869
		c-23.569,63.087-83.703,105.011-151.04,105.301C375.285,503.296,405.067,470.101,420.683,421.035z"/>
	<path style="fill:#DAEFF6;" d="M432.373,341.163c0.282,27.068-3.661,54.016-11.691,79.872c-26.505,4.446-53.342,6.588-80.213,6.4
		h-0.085l-0.171-86.101L432.373,341.163z"/>
	<path style="fill:#DAEFF6;" d="M432.373,340.907v0.256l-92.16,0.171v-9.301c11.196-5.811,21.41-13.321,30.293-22.272
		c14.276-14.208,24.858-31.701,30.805-50.944c6.656,0.768,12.971,1.707,18.859,2.731
		C428.337,287.206,432.459,313.984,432.373,340.907z"/>
</g>
<path style="fill:#00448F;" d="M340.213,332.032c-7.415,3.942-15.223,7.091-23.296,9.387c-22.212,6.34-45.739,6.46-68.011,0.341
	c-0.384-0.009-0.759-0.102-1.109-0.256c-20.719-5.837-39.595-16.913-54.784-32.171c-3.277-3.277-6.383-6.724-9.301-10.325v-0.085
	c-43.008-54.161-33.954-132.932,20.207-175.94s132.932-33.954,175.94,20.207c11.401,14.362,19.516,31.053,23.757,48.896
	c2.978,12.339,4.011,25.062,3.072,37.717c-0.597,9.856-2.406,19.601-5.376,29.013c-5.948,19.243-16.529,36.736-30.805,50.944
	C361.623,318.711,351.401,326.229,340.213,332.032z M365.728,185.771c-0.683-1.621-1.451-3.243-2.219-4.864
	c-4.489-9.062-10.428-17.34-17.579-24.491c-17.169-17.306-40.559-27.017-64.939-26.965c-50.039-0.102-90.692,40.38-90.795,90.419
	c0,0.179,0,0.367,0,0.546c0.017,13.935,3.226,27.691,9.387,40.192c2.722,5.538,5.982,10.803,9.728,15.701
	c2.432,3.115,5.052,6.084,7.851,8.875c9.293,9.344,20.506,16.563,32.853,21.163c30.677,11.486,65.169,5.658,90.368-15.275
	c2.091-1.707,4.087-3.533,5.973-5.461c8.533-8.499,15.266-18.628,19.797-29.781C375.285,233.344,375.132,208.145,365.728,185.771z"
	/>
<path style="fill:#62BEFF;" d="M372.896,221.184c0.026,11.878-2.27,23.646-6.741,34.645c-8.107-0.341-16.64-0.597-25.685-0.597
	h-0.427l-0.171-76.032c1.024,0,2.048,0.085,3.072,0.085c7.97,0.529,15.736,2.739,22.784,6.485
	C370.43,196.983,372.87,209.024,372.896,221.184z"/>
<path style="fill:#DAEFF6;" d="M340.469,427.435c26.871,0.188,53.709-1.954,80.213-6.4c-15.616,49.067-45.397,82.261-79.701,82.432
	h-0.427l-0.171-76.032H340.469z"/>
<g>
	<path style="fill:#62BEFF;" d="M366.155,255.829c-4.531,11.153-11.264,21.282-19.797,29.781c-1.886,1.929-3.883,3.755-5.973,5.461
		l-0.256-0.256l-0.085-35.584h0.427C349.515,255.232,358.048,255.488,366.155,255.829z"/>
	<path style="fill:#62BEFF;" d="M345.931,156.416c7.151,7.151,13.09,15.428,17.579,24.491c-6.81-1.015-13.679-1.562-20.565-1.621
		c-1.024,0-2.048-0.085-3.072-0.085h-0.427c-57.805,0.239-111.104,31.258-139.861,81.408c-6.161-12.501-9.37-26.257-9.387-40.192
		c-0.196-50.039,40.209-90.769,90.249-90.965c0.179,0,0.367,0,0.546,0C305.372,129.399,328.753,139.11,345.931,156.416z"/>
</g>
<g>
	<path style="fill:#DAEFF6;" d="M340.384,427.435l0.171,76.032h-0.341c-34.304-0.341-64.256-33.621-80.128-82.773
		C286.59,425.361,313.47,427.622,340.384,427.435z"/>
	<path style="fill:#DAEFF6;" d="M340.213,341.333l0.171,86.101c-26.914,0.188-53.794-2.074-80.299-6.741
		c-7.757-24.576-11.81-50.176-12.032-75.947l0.853-2.987c22.272,6.118,45.798,5.999,68.011-0.341L340.213,341.333z"/>
</g>
<g>
	<path style="fill:#62BEFF;" d="M340.128,290.816l0.256,0.256c-25.199,20.932-59.691,26.761-90.368,15.275
		c1.801-15.019,4.966-29.85,9.472-44.288c26.59-4.702,53.555-6.989,80.555-6.827L340.128,290.816z"/>
	<path style="fill:#62BEFF;" d="M339.872,179.2l0.171,76.032c-26.999-0.162-53.965,2.125-80.555,6.827
		c15.616-49.323,45.483-82.688,79.957-82.859H339.872z"/>
	<path style="fill:#62BEFF;" d="M339.445,179.2c-34.475,0.171-64.341,33.536-79.957,82.859
		c-16.956,3.038-33.579,7.663-49.664,13.824l-0.512,0.427c-3.746-4.898-7.006-10.163-9.728-15.701
		C228.341,210.466,281.641,179.439,339.445,179.2z"/>
</g>
<path style="fill:#DAEFF6;" d="M260.085,420.693c15.872,49.152,45.824,82.432,80.128,82.773
	c-68.156,0.034-129.05-42.607-152.32-106.667l0.939-0.341C188.832,396.459,210.421,411.563,260.085,420.693z"/>
<path style="fill:#62BEFF;" d="M209.824,275.883c16.085-6.161,32.708-10.786,49.664-13.824c-4.506,14.438-7.671,29.269-9.472,44.288
	c-12.348-4.599-23.561-11.819-32.853-21.163c-2.799-2.79-5.419-5.76-7.851-8.875L209.824,275.883z"/>
<g>
	<path style="fill:#DAEFF6;" d="M248.907,341.76l-0.853,2.987c0.222,25.771,4.275,51.371,12.032,75.947
		c-49.664-9.131-71.253-24.235-71.253-24.235l-0.939,0.341c-6.451-17.519-9.771-36.028-9.813-54.699v-0.427l69.717-0.171
		C248.147,341.666,248.523,341.751,248.907,341.76z"/>
	<path style="fill:#DAEFF6;" d="M247.797,341.504l-69.717,0.171c0-6.161,0.341-12.314,1.024-18.432l13.909-13.909
		C208.203,324.591,227.07,335.667,247.797,341.504z"/>
</g>
<path style="fill:#EC9821;" d="M152.309,365.227c6.972,6.921,7.014,18.185,0.094,25.165l-0.009,0.009L50.08,492.715L9.632,452.267
	l102.315-102.315c6.972-6.929,18.236-6.895,25.165,0.077l0.009,0.009l7.595,7.595L152.309,365.227z"/>
<path d="M364.482,189.619c-0.563-0.102-1.135-0.171-1.707-0.205c-6.605-0.998-13.278-1.527-19.959-1.596l0.222-17.067
	c7.279,0.06,14.541,0.631,21.734,1.707c1.015,0.085,2.031,0.222,3.038,0.418L364.482,189.619z"/>
<path d="M206.982,264.866l-14.797-8.533c30.387-52.668,86.417-85.274,147.226-85.666l0.077,17.067
	C284.755,188.092,234.315,217.446,206.982,264.866z"/>
<path d="M340.213,512c-71.697-0.119-135.714-44.954-160.341-112.29c-6.793-18.441-10.283-37.922-10.325-57.574
	c-0.017-6.63,0.341-13.261,1.075-19.849c0.973-8.619,2.594-17.143,4.855-25.515l16.469,4.471c-2.031,7.535-3.49,15.206-4.361,22.963
	c-0.649,5.803-0.973,11.631-0.973,17.468c0,17.801,3.14,35.456,9.284,52.164c22.161,60.621,79.778,100.983,144.316,101.094V512z"/>
<path d="M341.067,512l-0.085-17.067c63.701-0.529,120.525-40.158,143.044-99.746c6.571-17.297,9.89-35.661,9.788-54.161
	c0.009-18.253-3.277-36.361-9.694-53.453c-14.848-39.407-45.124-71.057-83.84-87.637l6.682-15.701
	c43.008,18.423,76.638,53.581,93.133,97.365c14.413,38.571,14.379,81.058-0.094,119.603
	C474.972,467.405,411.834,511.411,341.067,512z"/>
<path d="M258.481,307.405l-16.93-2.116c1.86-15.539,5.146-30.882,9.805-45.824c17.289-54.579,51.021-88.619,88.047-88.798
	l3.541,0.085c9.344,0.555,18.466,3.098,26.743,7.458l-7.194,15.497c-6.195-3.396-13.056-5.402-20.105-5.897l-2.517-0.077
	c-29.739,0.145-57.276,29.611-72.252,76.902C263.277,278.588,260.213,292.898,258.481,307.405z"/>
<path d="M340.734,512h-0.606c-36.83-0.367-70.613-34.347-88.166-88.687c-7.987-25.387-12.177-51.814-12.442-78.43l17.067-0.273
	c0.23,24.917,4.147,49.664,11.614,73.438c15.223,47.138,42.846,76.595,72.098,76.885c29.867-0.145,57.284-29.457,72.252-76.484
	c15.215-50.313,15.053-104.021-0.486-154.24c-3.294-10.487-7.586-20.642-12.8-30.319l14.985-8.166
	c5.717,10.607,10.419,21.734,14.037,33.229c16.631,53.615,16.811,110.985,0.503,164.693c-17.271,54.306-50.901,88.175-87.723,88.354
	H340.734z"/>
<rect x="331.461" y="179.211" transform="matrix(-1 0.0023 -0.0023 -1 680.5285 469.2566)" width="17.067" height="111.616"/>
<polygon points="332.021,503.484 331.68,332.032 348.747,331.776 349.088,503.45 "/>
<path d="M489.487,292.693c-0.657-0.213-1.28-0.495-1.869-0.853c-2.313-1.425-23.893-14.165-68.89-21.888
	c-5.76-1.007-11.947-1.92-18.389-2.662l1.946-16.964c6.827,0.794,13.312,1.758,19.354,2.807
	c26.121,3.482,51.413,11.614,74.667,24.013c0.853,0.444,1.638,1.024,2.321,1.707l-12.356,11.793l6.178-5.888L489.487,292.693z"/>
<path d="M212.947,283.827l-6.246-15.881c16.589-6.34,33.724-11.119,51.2-14.268c27.11-4.779,54.596-7.108,82.125-6.972
	c9.591,0,18.253,0.256,26.453,0.606l-0.717,17.067c-7.996-0.341-16.41-0.589-25.327-0.589c-26.633-0.162-53.214,2.082-79.445,6.69
	C244.589,273.417,228.503,277.888,212.947,283.827z"/>
<path d="M340.469,435.968c-27.46,0.171-54.878-2.133-81.92-6.886c-50.91-9.387-73.668-24.969-74.607-25.6l9.754-14.003
	c0.205,0.145,21.146,14.259,67.934,22.852c26.001,4.565,52.361,6.775,78.754,6.605c26.402,0.179,52.779-1.92,78.822-6.272
	c45.09-7.859,66.074-20.318,68.309-21.709c0.205-0.128,0.853-0.503,1.041-0.606l7.782,15.189
	c-3.942,2.475-26.94,15.693-74.189,23.936C395.159,433.98,367.827,436.156,340.469,435.968z"/>
<polygon points="178.097,350.208 178.063,333.141 247.772,332.971 248.48,341.504 248.48,350.037 "/>
<rect x="316.916" y="332.679" transform="matrix(-1 0.0034 -0.0034 -1 820.4209 681.0294)" width="185.43" height="17.067"/>
<path style="fill:#00448F;" d="M282.272,354.807c-11.802,0-23.543-1.562-34.935-4.634c-0.742-0.111-1.476-0.299-2.185-0.546
	c-21.99-6.289-42.01-18.082-58.172-34.261c-3.499-3.482-6.801-7.151-9.899-10.991c-0.222-0.273-0.418-0.555-0.606-0.853
	c-45.577-58.138-35.388-142.217,22.758-187.793s142.217-35.388,187.793,22.758c11.921,15.215,20.412,32.828,24.875,51.627
	c5.513,23.543,4.668,48.119-2.458,71.228c-6.391,20.557-17.69,39.245-32.922,54.451c-9.515,9.574-20.454,17.604-32.427,23.825
	c-7.91,4.198-16.239,7.552-24.849,10.001C307.215,353.058,294.773,354.799,282.272,354.807z M250.255,333.338
	c0.307,0.043,0.623,0.111,0.922,0.196c20.762,5.726,42.692,5.615,63.394-0.324c7.492-2.133,14.737-5.052,21.623-8.704
	c10.445-5.419,19.985-12.433,28.279-20.779c13.261-13.244,23.091-29.517,28.646-47.42v-0.051
	c6.204-20.173,6.938-41.626,2.142-62.174c-14.336-62.95-76.988-102.366-139.947-88.03s-102.366,76.988-88.03,139.947
	c3.959,17.408,11.861,33.673,23.083,47.548c0.188,0.239,0.367,0.486,0.529,0.734c2.56,3.132,5.239,6.076,8.149,8.986
	c14.174,14.199,31.753,24.525,51.055,29.986L250.255,333.338z"/>
<path style="fill:#3AA5F0;" d="M282.187,320.683c-26.658,0.009-52.233-10.59-71.057-29.466c-3.046-3.046-5.897-6.281-8.533-9.677
	c-4.113-5.367-7.689-11.136-10.667-17.212c-24.192-49.374-3.772-109.005,45.602-133.197c38.332-18.782,84.361-11.034,114.432,19.251
	c7.817,7.808,14.293,16.836,19.191,26.735c0.956,2.022,1.707,3.678,2.441,5.333c5.137,12.245,7.799,25.395,7.834,38.673
	c0.043,13.005-2.466,25.899-7.381,37.939c-4.941,12.211-12.305,23.296-21.649,32.58c-2.074,2.108-4.258,4.105-6.545,5.973
	C327.994,312.533,305.457,320.7,282.187,320.683z M280.992,137.984c-45.5,0.051-82.338,36.983-82.287,82.475
	c0.017,12.621,2.927,25.071,8.525,36.395c4.019,8.294,9.412,15.855,15.966,22.34c8.414,8.482,18.577,15.027,29.781,19.191
	c27.81,10.428,59.068,5.154,81.92-13.815l0,0c1.86-1.519,3.635-3.14,5.316-4.855c7.791-7.714,13.926-16.922,18.048-27.076
	c8.286-20.395,8.149-43.247-0.375-63.539c-0.606-1.451-1.289-2.884-1.971-4.318c-4.079-8.269-9.481-15.812-16-22.332
	C324.333,146.748,303.11,137.941,280.992,137.984z"/>
<rect x="134.694" y="324.935" transform="matrix(-0.7071 0.7071 -0.7071 -0.7071 524.0762 449.856)" style="fill:#454545;" width="68.351" height="17.067"/>
<g>
	<path style="fill:#FB5968;" d="M13.276,157.67L1.21,145.604l49.237-49.237c3.337-3.328,8.738-3.328,12.066,0l13.167,13.167
		l50.116-50.116c3.328-3.328,8.73-3.328,12.058,0l14.268,14.217l56.559-56.567h-17.374V0h37.973c4.71,0,8.533,3.823,8.533,8.533
		c0,2.261-0.896,4.429-2.5,6.033l-77.141,77.141c-3.328,3.328-8.73,3.328-12.058,0l-14.268-14.217l-50.133,50.125
		c-3.337,3.328-8.73,3.328-12.066,0l-13.167-13.15L13.276,157.67z"/>
	<rect x="220.747" y="8.533" style="fill:#FB5968;" width="17.067" height="34.133"/>
</g>
<rect x="391.413" y="51.2" style="fill:#FFDB6F;" width="17.067" height="34.133"/>
<rect x="425.547" y="34.133" style="fill:#62BEFF;" width="17.067" height="51.2"/>
<rect x="459.68" y="17.067" style="fill:#03AA6F;" width="17.067" height="68.267"/>
<rect x="493.813" style="fill:#FF8030;" width="17.067" height="85.333"/>
<path d="M340.717,512h0.29c94.259-0.521,170.24-77.346,169.728-171.605c-0.367-66.594-39.433-126.891-100.062-154.436
	C391.763,114.534,318.53,71.97,247.106,90.88s-113.988,92.143-95.078,163.567c4.429,16.725,12.058,32.435,22.468,46.259
	c-1.519,6.135-2.705,12.356-3.541,18.62l-26.223,26.223l-1.553-1.553c-10.283-10.291-26.948-10.317-37.265-0.06L3.616,446.234
	c-3.328,3.328-3.328,8.738,0,12.066l40.431,40.431c3.337,3.328,8.738,3.328,12.066,0l102.34-102.306
	c10.257-10.317,10.231-26.982-0.06-37.265l-1.553-1.553l12.885-12.885c1.911,92.834,77.636,167.134,170.487,167.279H340.717z
	 M146.353,384.358L50.08,480.632l-28.365-28.365l96.273-96.273c1.732-1.732,4.079-2.697,6.519-2.688l0,0
	c2.475,0,4.855,0.99,6.596,2.748l15.189,15.147c1.758,1.741,2.748,4.122,2.748,6.596
	C149.067,380.254,148.094,382.626,146.353,384.358z M187.066,350.225l52.676-0.128c0.555,19.985,3.277,39.851,8.115,59.255
	c-18.62-3.678-36.565-10.189-53.214-19.302C190.359,377.173,187.808,363.776,187.066,350.225z M187.356,327.057l5.973-5.973
	c4.915,4.386,10.138,8.405,15.642,12.032l-22.11,0.051C186.98,331.093,187.168,329.088,187.356,327.057z M256.911,352.35
	c20.113,3.874,40.849,3.038,60.587-2.432l14.182-0.051l0.162,68.838c-21.837-0.256-43.631-2.159-65.186-5.692
	C260.964,393.259,257.696,372.89,256.911,352.35z M406.987,268.177c2.27,0.316,4.514,0.64,6.682,0.981
	c5.982,20.642,9.327,41.958,9.941,63.445l-67.9,0.196c23.535-15.522,41.498-38.144,51.277-64.589V268.177z M493.472,332.442
	l-52.796,0.128c-0.597-20.241-3.43-40.346-8.448-59.964c18.33,3.49,36.096,9.463,52.804,17.758
	C489.803,303.923,492.644,318.089,493.472,332.442z M484.939,392.354c-16.469,8.132-33.954,14.02-51.985,17.51
	c4.787-19.729,7.407-39.927,7.799-60.228l52.676-0.128c-0.768,14.618-3.635,29.047-8.516,42.846H484.939z M349.097,494.08
	l-0.128-58.308c19.593-0.213,39.151-1.604,58.581-4.147C393.871,465.715,372.845,489.532,349.097,494.08z M348.926,418.705
	l-0.179-68.838l74.897-0.179c-0.486,21.564-3.746,42.974-9.685,63.71c-21.521,3.328-43.255,5.111-65.033,5.333L348.926,418.705
	L348.926,418.705z M331.902,435.772l0.128,58.291c-24.03-4.651-45.227-28.373-59.034-62.686
	C292.521,434.082,312.19,435.55,331.902,435.772L331.902,435.772z M396.465,484.096c13.909-16.307,24.422-35.226,30.933-55.646
	c16.043-2.901,31.795-7.177,47.095-12.8C457.171,446.797,429.6,470.98,396.465,484.096L396.465,484.096z M474.647,267.093
	c-15.59-5.734-31.659-10.095-48.017-13.013c-3.149-9.088-6.963-17.929-11.418-26.453c0.358-6.852,0.188-13.73-0.512-20.557
	C439.925,221.047,460.704,241.852,474.647,267.093z M198.645,137.882c21.828-21.828,51.456-34.057,82.321-33.988
	c64.333,0.051,116.446,52.233,116.395,116.565s-52.233,116.446-116.565,116.395S164.35,284.621,164.401,220.288
	C164.427,189.363,176.74,159.718,198.645,137.882z M204.994,414.054c15.693,6.195,31.949,10.897,48.529,14.029
	c6.775,20.838,17.681,40.09,32.077,56.61C251.151,471.535,222.564,446.473,204.994,414.054z"/>
<path d="M282.187,320.683c54.793,0.026,99.234-44.365,99.26-99.157c0-0.128,0-0.247,0-0.375
	c-0.213-55.364-45.107-100.164-100.48-100.25c-54.793-0.051-99.251,44.322-99.302,99.115c0,0.145,0,0.282,0,0.427
	C181.877,275.823,226.805,320.623,282.187,320.683z M209.466,260.949c17.545-28.39,43.827-50.33,74.906-62.507
	c-14.123,16.469-24.781,35.601-31.351,56.277c-13.798,2.679-27.366,6.383-40.61,11.093c-1.05-1.604-2.057-3.243-2.987-4.898
	L209.466,260.949z M331.33,188.587l0.128,58.231c-19.755,0.247-39.475,1.758-59.042,4.523
	C286.18,216.636,307.556,193.126,331.33,188.587z M348.397,188.749c3.644,0.7,7.194,1.809,10.581,3.311
	c6.75,17.681,7.185,37.146,1.237,55.108c-3.866-0.128-7.765-0.222-11.691-0.265L348.397,188.749z M247.524,273.289
	c-1.655,6.665-3.081,13.568-4.267,20.702c-7.074-3.772-13.577-8.533-19.302-14.148C230.748,277.598,238.564,275.354,247.524,273.289
	z M259.548,300.45c1.527-10.419,3.738-20.727,6.63-30.857c21.598-3.55,43.435-5.453,65.323-5.7l0.051,23.177
	c-14.208,10.761-31.548,16.572-49.365,16.546C274.532,303.607,266.912,302.541,259.548,300.45z M348.585,269.781v-5.803
	c1.289,0,2.56,0.06,3.831,0.085C351.221,266.027,349.941,267.93,348.585,269.781z M222.786,162.022
	c15.403-15.471,36.352-24.132,58.18-24.055c22.127-0.051,43.358,8.764,58.94,24.474c2.637,2.679,5.094,5.53,7.356,8.533
	c-2.62-0.111-5.231-0.29-7.842-0.299c-54.639,0.401-105.813,26.837-137.762,71.168c-1.903-6.989-2.884-14.191-2.927-21.436
	C198.594,198.511,207.264,177.476,222.786,162.022z"/>
<path d="M50.447,96.367L1.201,145.613l12.066,12.066l43.213-43.213l13.167,13.167c3.337,3.328,8.738,3.328,12.066,0l50.142-50.142
	l14.234,14.234c3.328,3.337,8.73,3.337,12.066,0.009l0.009-0.009l62.583-62.592v13.534h17.067V8.533h-0.077
	c0.128-4.582-3.482-8.405-8.064-8.533c-0.128,0-0.256,0-0.393,0h-37.965v17.067h17.365l-56.559,56.55l-14.225-14.234
	c-3.328-3.337-8.73-3.337-12.066-0.009l-0.009,0.009l-50.142,50.15L62.513,96.367C59.177,93.039,53.775,93.039,50.447,96.367z"/>
<rect x="391.413" y="51.2" width="17.067" height="34.133"/>
<rect x="425.547" y="34.133" width="17.067" height="51.2"/>
<rect x="459.68" y="17.067" width="17.067" height="68.267"/>
<rect x="493.813" width="17.067" height="85.333"/>
<g>
</g>
<g>
</g>
<g>
</g>
<g>
</g>
<g>
</g>
<g>
</g>
<g>
</g>
<g>
</g>
<g>
</g>
<g>
</g>
<g>
</g>
<g>
</g>
<g>
</g>
<g>
</g>
<g>
</g>
</svg>
