<?xml version="1.0" encoding="iso-8859-1"?>
<!-- Generator: Adobe Illustrator 19.0.0, SVG Export Plug-In . SVG Version: 6.00 Build 0)  -->
<svg version="1.1" id="Capa_1" xmlns="http://www.w3.org/2000/svg" xmlns:xlink="http://www.w3.org/1999/xlink" x="0px" y="0px"
	 viewBox="0 0 512 512" style="enable-background:new 0 0 512 512;" xml:space="preserve">
<path style="fill:#00448F;" d="M473.277,456.107l-47.445,47.36L305.938,383.573c-6.605-6.673-7.962-16.922-3.328-25.088
	c0.939-1.621,2.082-3.115,3.413-4.437l17.749-17.749c0.802-0.836,1.69-1.579,2.645-2.219c8.294-5.99,19.712-5.086,26.965,2.133
	L473.277,456.107z"/>
<path style="fill:#EC9821;" d="M268.989,276.736l57.429,57.344c-0.956,0.64-1.843,1.382-2.645,2.219l-17.749,17.749
	c-1.331,1.323-2.475,2.816-3.413,4.437l-57.856-57.856c4.762-3.729,9.293-7.748,13.568-12.032
	C262.077,284.834,265.635,280.875,268.989,276.736z"/>
<path style="fill:#00448F;" d="M258.834,80.555c52.924,53.231,57.301,137.771,10.155,196.181
	c-3.345,4.139-6.912,8.098-10.667,11.861c-4.275,4.284-8.806,8.303-13.568,12.032c-64.188,49.502-156.356,37.598-205.858-26.59
	S1.29,117.692,65.477,68.19C123.879,23.142,206.644,28.433,258.834,80.555z M261.65,184.405
	c0.179-58.735-47.283-106.487-106.018-106.667c-0.102,0-0.205,0-0.307,0c-59.392,0.094-107.546,48.137-107.776,107.52
	c-0.29,58.573,46.95,106.291,105.523,106.581c0.265,0,0.538,0,0.802,0C213.258,291.831,261.445,243.789,261.65,184.405z"/>
<path style="fill:#DAEFF6;" d="M230.503,108.885c20.096,19.977,31.317,47.189,31.147,75.52
	c-0.205,59.383-48.393,107.418-107.776,107.435c-58.914-0.171-106.53-48.077-106.351-106.982
	c0.085-28.348,11.452-55.501,31.599-75.46c20.156-20.309,47.59-31.71,76.203-31.659C183.536,77.67,210.604,88.883,230.503,108.885z"
	/>
<g>
	<path style="fill:#03AA6F;" d="M345.883,117.41l-11.093-12.954l59.733-51.2c3.413-2.927,8.525-2.705,11.665,0.521l19.226,19.746
		l56.448-56.457h-17.374V0h37.973c4.71,0,8.533,3.823,8.533,8.533c0,2.261-0.896,4.429-2.5,6.033l-77.141,77.141
		c-1.63,1.596-3.814,2.492-6.093,2.5c-2.278-0.009-4.454-0.93-6.05-2.56l-19.678-20.224L345.883,117.41z"/>
	<rect x="493.927" y="8.533" style="fill:#03AA6F;" width="17.067" height="34.133"/>
</g>
<path d="M338.271,247.467c-3.268,0-6.255-1.869-7.68-4.813L312.304,204.8l-5.709,10.982c-2.287,4.122-7.475,5.615-11.597,3.328
	c-3.968-2.202-5.521-7.117-3.541-11.196l13.568-26.112c1.399-2.935,4.429-4.753,7.68-4.599c3.234,0.051,6.161,1.92,7.561,4.83
	l15.428,31.966l7.603-30.336c1.178-4.565,5.837-7.305,10.394-6.127c4.514,1.169,7.262,5.743,6.161,10.274l-13.312,53.163
	c-0.87,3.482-3.831,6.05-7.407,6.417C338.86,247.467,338.561,247.467,338.271,247.467z"/>
<path d="M107.794,247.467c-0.333,0-0.666-0.017-0.99-0.06c-3.524-0.41-6.426-2.961-7.287-6.4l-23.467-93.79
	c-1.067-4.591,1.792-9.173,6.383-10.24c4.48-1.041,8.977,1.655,10.172,6.101l17.98,71.859l38.101-73.702
	c1.51-2.842,4.463-4.617,7.68-4.617c3.234,0.043,6.161,1.911,7.569,4.821l35.063,72.533l17.749-70.938
	c1.22-4.548,5.905-7.253,10.453-6.033c4.446,1.195,7.142,5.692,6.101,10.172l-23.45,93.833c-0.87,3.482-3.831,6.05-7.407,6.417
	c-3.558,0.333-6.955-1.57-8.533-4.779l-37.905-78.413l-40.636,78.618C113.904,245.683,110.977,247.467,107.794,247.467z"/>
<path d="M464.743,247.467c-3.277,0-6.255-1.877-7.68-4.821l-18.261-37.794l-19.627,37.999c-2.167,4.181-7.313,5.82-11.503,3.661
	c-2.176-1.126-3.755-3.123-4.352-5.504l-13.312-53.163c-1.178-4.565,1.562-9.216,6.127-10.394c4.565-1.178,9.216,1.562,10.394,6.127
	c0.009,0.043,0.017,0.077,0.034,0.119l7.825,31.249l17.109-33.092c1.451-2.893,4.446-4.685,7.68-4.617
	c3.234,0.043,6.161,1.911,7.569,4.821l15.445,31.966l7.595-30.327c1.178-4.565,5.837-7.305,10.394-6.127
	c4.514,1.169,7.262,5.743,6.161,10.274l-13.312,53.163c-0.87,3.482-3.831,6.05-7.407,6.417
	C465.324,247.458,465.034,247.475,464.743,247.467z"/>
<path d="M375.655,244.821c-4.727,0.026-8.576-3.789-8.593-8.508c-0.026-4.727,3.789-8.576,8.516-8.593s8.576,3.789,8.593,8.516
	C384.189,240.964,380.374,244.796,375.655,244.821z"/>
<path d="M502.546,244.736c-4.71,0.026-8.55-3.78-8.576-8.491c-0.026-4.71,3.78-8.55,8.491-8.576c4.71-0.026,8.55,3.78,8.576,8.491
	C511.054,240.87,507.257,244.71,502.546,244.736z"/>
<rect x="41.661" y="469.333" style="fill:#00448F;" width="17.067" height="42.667"/>
<rect x="75.794" y="443.733" style="fill:#FB5968;" width="17.067" height="68.267"/>
<rect x="109.927" y="418.133" style="fill:#79DCA0;" width="17.067" height="93.867"/>
<rect x="144.061" y="392.533" style="fill:#FFDB6F;" width="17.067" height="119.467"/>
<path d="M44.323,295.083c53.581,53.325,137.771,60.356,199.45,16.649l48.905,48.905c-3.063,10.257-0.282,21.367,7.253,28.971
	L419.824,509.5c3.328,3.328,8.738,3.328,12.066,0l47.386-47.377c3.328-3.328,3.328-8.738,0-12.066L359.374,330.155
	c-8.252-8.192-20.548-10.752-31.386-6.537l-47.787-47.787c13.201-18.074,22.34-38.784,26.803-60.715l5.308-10.24l18.27,37.828
	c1.425,2.944,4.403,4.821,7.68,4.821c0.299,0,0.589,0,0.853,0c3.575-0.367,6.537-2.935,7.407-6.417l13.303-53.205
	c1.143-4.574-1.638-9.207-6.212-10.351s-9.207,1.638-10.351,6.212l0,0l-7.578,30.345l-15.454-31.983
	c-1.408-2.91-4.335-4.779-7.561-4.821c-0.981,0.026-1.954,0.222-2.867,0.572c-1.425-38.852-17.485-75.733-44.954-103.253
	c-62.165-59.614-160.887-57.54-220.501,4.625C-13.49,139.563-13.499,234.752,44.323,295.083z M338.621,338.654
	c3.243-0.009,6.366,1.271,8.661,3.567L461.177,456.09l-35.319,35.311L312.005,377.54c-4.796-4.847-4.77-12.655,0.06-17.468
	l17.783-17.775C332.17,339.968,335.327,338.654,338.621,338.654z M314.096,333.884l-12.032,12.032l-44.843-44.86
	c2.406-2.125,4.855-4.164,7.151-6.46c1.766-1.766,3.302-3.669,4.966-5.495L314.096,333.884z M252.793,86.613
	c54.511,53.965,54.946,141.892,0.981,196.403s-141.892,54.946-196.403,0.981S2.425,142.106,56.381,87.595
	c0.162-0.162,0.324-0.324,0.486-0.486C110.875,32.964,198.512,32.742,252.793,86.613z"/>
<path d="M72.611,266.795c21.521,21.598,50.799,33.69,81.289,33.579c64.068-0.077,116.036-51.908,116.284-115.977
	c0.239-63.386-50.944-114.961-114.33-115.2c-0.188,0-0.384,0-0.572,0C91.18,69.274,39.203,121.148,38.998,185.25
	C38.819,215.842,50.928,245.214,72.611,266.795z M85.181,115.388c18.551-18.671,43.802-29.15,70.118-29.099
	c53.956-0.068,97.749,43.605,97.818,97.562c0,0.154,0,0.316,0,0.469c-0.205,54.673-44.544,98.91-99.217,98.987
	c-22.451,0.068-44.237-7.637-61.653-21.811c-0.41-1.135-1.041-2.167-1.86-3.055c-1.05-0.956-2.33-1.63-3.721-1.946
	c-0.649-0.614-1.348-1.161-1.988-1.801c-18.466-18.381-28.774-43.401-28.612-69.453C56.082,159.01,66.561,133.871,85.181,115.388z"
	/>
<path d="M406.179,53.76c-3.14-3.234-8.252-3.465-11.674-0.529l-59.733,51.2l11.093,12.954l53.649-45.986l19.627,20.215
	c1.596,1.63,3.78,2.551,6.059,2.56c2.278-0.017,4.463-0.913,6.093-2.5l62.635-62.541v13.534h17.067V8.533h-0.077
	c0.128-4.582-3.482-8.405-8.064-8.533c-0.128,0-0.256,0-0.393,0h-37.965v17.067h17.365L425.388,73.54L406.179,53.76z"/>
<path d="M76.05,147.191l23.45,93.815c0.862,3.447,3.772,5.99,7.296,6.4c0.324,0.043,0.657,0.06,0.99,0.06
	c3.191,0,6.11-1.783,7.578-4.617l40.644-78.652l37.879,78.447c2.048,4.241,7.151,6.025,11.392,3.985
	c2.287-1.101,3.959-3.157,4.574-5.623l23.45-93.815c1.178-4.565-1.57-9.216-6.127-10.394c-4.565-1.178-9.216,1.57-10.394,6.127
	c-0.009,0.043-0.017,0.077-0.026,0.119l-17.741,70.963l-35.063-72.602c-1.408-2.91-4.335-4.779-7.561-4.821
	c-3.183,0.102-6.093,1.843-7.68,4.608l-38.127,73.745l-17.971-71.893c-1.109-4.582-5.726-7.39-10.308-6.281
	c-4.582,1.109-7.39,5.726-6.281,10.308C76.025,147.115,76.033,147.157,76.05,147.191z"/>
<path d="M469.77,183.663l-7.578,30.345l-15.445-31.983c-1.408-2.91-4.335-4.779-7.569-4.821c-3.209,0.034-6.144,1.801-7.68,4.608
	l-17.126,33.126l-7.825-31.275c-1.067-4.591-5.649-7.45-10.24-6.383s-7.45,5.649-6.383,10.24c0.026,0.094,0.043,0.188,0.068,0.282
	l13.295,53.205c0.862,3.447,3.772,5.99,7.296,6.4c0.324,0.043,0.657,0.06,0.99,0.06c3.191,0,6.11-1.783,7.578-4.617l19.652-38.05
	l18.27,37.828c2.057,4.241,7.159,6.016,11.401,3.968c2.27-1.101,3.942-3.149,4.557-5.606l13.303-53.205
	c1.143-4.574-1.638-9.207-6.212-10.351c-4.574-1.143-9.207,1.638-10.351,6.212l0,0L469.77,183.663L469.77,183.663z"/>
<path d="M367.037,236.245c-0.026,4.736,3.797,8.593,8.533,8.619c4.736,0.026,8.593-3.797,8.619-8.533
	c0.026-4.736-3.797-8.593-8.533-8.619c-0.026,0-0.06,0-0.085,0C370.868,227.755,367.071,231.552,367.037,236.245z"/>
<circle cx="502.503" cy="236.16" r="8.533"/>
<rect x="41.661" y="469.333" width="17.067" height="42.667"/>
<rect x="75.794" y="443.733" width="17.067" height="68.267"/>
<rect x="109.927" y="418.133" width="17.067" height="93.867"/>
<rect x="144.061" y="392.533" width="17.067" height="119.467"/>
<g>
</g>
<g>
</g>
<g>
</g>
<g>
</g>
<g>
</g>
<g>
</g>
<g>
</g>
<g>
</g>
<g>
</g>
<g>
</g>
<g>
</g>
<g>
</g>
<g>
</g>
<g>
</g>
<g>
</g>
</svg>
