<?xml version="1.0" encoding="iso-8859-1"?>
<!-- Generator: Adobe Illustrator 19.0.0, SVG Export Plug-In . SVG Version: 6.00 Build 0)  -->
<svg version="1.1" id="Capa_1" xmlns="http://www.w3.org/2000/svg" xmlns:xlink="http://www.w3.org/1999/xlink" x="0px" y="0px"
	 viewBox="0 0 511.996 511.996" style="enable-background:new 0 0 511.996 511.996;" xml:space="preserve">
<g>
	<path style="fill:#454545;" d="M459.854,298.868l-57.597-6.314c-1.937-0.205-3.737-1.067-5.12-2.44l-37.63-37.545l12.048-12.083
		l35.514,35.429l54.611,5.973L459.854,298.868z"/>
	<path style="fill:#454545;" d="M62.212,306.829l-4.949-16.332l47.042-13.994l36.103-36.017l12.048,12.1l-37.63,37.545
		c-1.007,0.998-2.244,1.741-3.601,2.142L62.212,306.829z"/>
</g>
<path style="fill:#62BEFF;" d="M366.922,280.232v1.365H273.06v-38.739c-6.784,6.195-17.313,5.717-23.508-1.067
	s-5.717-17.313,1.067-23.508c6.357-5.802,16.085-5.802,22.442,0v-30.548h36.777c-7.407,5.393-9.045,15.777-3.644,23.184
	c5.393,7.407,15.777,9.045,23.184,3.644c7.407-5.401,9.045-15.777,3.644-23.184c-1.015-1.399-2.244-2.628-3.644-3.644h37.545
	L366.922,280.232L366.922,280.232z"/>
<path style="fill:#FFDB6F;" d="M145.066,247.892v-60.157h34.217c-3.157-3.993-4.266-9.233-2.987-14.165
	c1.536-6.238,6.57-11.007,12.885-12.202c8.994-1.766,17.714,4.087,19.481,13.089c0.913,4.668-0.213,9.506-3.097,13.277h33.364
	v30.548c-6.784-6.195-17.313-5.717-23.508,1.067c-6.195,6.784-5.717,17.313,1.067,23.508c6.357,5.802,16.085,5.802,22.442,0v38.739
	h-93.862V247.892z"/>
<path style="fill:#F5D0C7;" d="M460.784,206.593c-16.631,0.017-30.104,13.491-30.121,30.121v13.311
	c0.043,16.605,13.516,30.044,30.121,30.036h0.768c16.579-0.017,30.019-13.456,30.036-30.036v-13.311
	c-0.085-16.725-13.712-30.215-30.437-30.121C461.023,206.584,460.903,206.584,460.784,206.593z"/>
<g>
	<path style="fill:#454545;" d="M447.046,511.985h-25.087V494.92h15.658l-5.29-53.254c-0.102-1.032-0.017-2.082,0.256-3.089
		l18.772-68.946l16.46,4.488l-18.354,67.41l6.067,61.061c0.478,4.685-2.935,8.874-7.628,9.352
		C447.617,511.968,447.327,511.985,447.046,511.985z"/>
	<path style="fill:#454545;" d="M503.448,511.985h-25.087V494.92h12.467l-19.267-48.109c-0.93-2.44-1.638-4.958-2.116-7.517
		l-12.023-65.883l16.784-3.072l12.031,65.959c0.29,1.51,0.708,2.986,1.254,4.42l23.892,59.56c1.749,4.377-0.375,9.344-4.744,11.093
		C505.624,511.772,504.54,511.985,503.448,511.985z"/>
	<path style="fill:#454545;" d="M90.029,511.985H64.942c-4.71,0-8.533-3.823-8.533-8.533c0-0.282,0.017-0.572,0.043-0.853
		l6.067-61.061l-18.354-67.41l16.426-4.497l18.772,68.946c0.273,1.007,0.358,2.056,0.256,3.089l-5.248,53.254h15.658V511.985z"/>
	<path style="fill:#454545;" d="M33.626,511.985H8.54c-4.71,0-8.533-3.823-8.533-8.533c0-1.084,0.205-2.167,0.614-3.174
		l23.977-59.816c0.486-1.331,0.862-2.696,1.135-4.087l12.048-66.036l16.784,3.072l-12.04,65.959
		c-0.452,2.449-1.126,4.855-1.997,7.185L21.16,494.92h12.467C33.626,494.92,33.626,511.985,33.626,511.985z"/>
</g>
<path style="fill:#00448F;" d="M461.466,281.853h-0.683c-14.89,0.017-26.947,12.074-26.964,26.964v63.058
	c0,4.71,3.823,8.533,8.533,8.533h37.63c4.71,0,8.533-3.823,8.533-8.533v-63.058C488.482,293.901,476.373,281.836,461.466,281.853z"
	/>
<path style="fill:#454545;" d="M460.784,324.773H392.52c-2.765,0-5.35-1.331-6.954-3.584l-40.275-56.659H332.79v-17.066h16.895
	c2.765,0,5.35,1.331,6.954,3.584l40.284,56.659h63.86V324.773z"/>
<path style="fill:#F5D0C7;" d="M50.436,206.593c-16.605,0.043-30.044,13.516-30.036,30.121v13.311
	c0.017,16.579,13.456,30.019,30.036,30.036h0.768c16.605,0.009,30.078-13.431,30.121-30.036v-13.311
	c-0.111-16.75-13.781-30.232-30.522-30.13C50.675,206.584,50.556,206.584,50.436,206.593z"/>
<path style="fill:#00448F;" d="M71.99,291.563l-0.196-0.222c-5.359-6.127-13.132-9.6-21.273-9.489
	c-14.907-0.009-27.015,12.057-27.049,26.964v63.058c0,4.71,3.823,8.533,8.533,8.533h37.63c4.71,0,8.533-3.823,8.533-8.533v-63.058
	C78.177,302.52,75.992,296.419,71.99,291.563z"/>
<path style="fill:#454545;" d="M51.247,324.773l-0.085-17.066l71.873-0.512l31.683-55.464c1.527-2.645,4.36-4.275,7.415-4.266
	h25.599v17.066H167.09l-31.683,55.464c-1.519,2.628-4.318,4.249-7.347,4.266L51.247,324.773z"/>
<g>
	<rect x="42.663" y="170.652" style="fill:#62BEFF;" width="17.066" height="17.066"/>
	<rect x="42.663" y="136.52" style="fill:#62BEFF;" width="17.066" height="17.066"/>
	<rect x="42.663" y="102.389" style="fill:#62BEFF;" width="17.066" height="17.066"/>
	<rect x="42.663" y="68.257" style="fill:#62BEFF;" width="17.066" height="17.066"/>
	<rect x="42.663" y="34.126" style="fill:#62BEFF;" width="17.066" height="17.066"/>
	<rect x="42.663" y="0.011" style="fill:#62BEFF;" width="17.066" height="17.066"/>
	<rect x="76.794" y="0.011" style="fill:#62BEFF;" width="17.066" height="17.066"/>
	<rect x="110.926" y="0.011" style="fill:#62BEFF;" width="17.066" height="17.066"/>
	<rect x="145.058" y="0.011" style="fill:#62BEFF;" width="17.066" height="17.066"/>
	<rect x="179.189" y="0.011" style="fill:#62BEFF;" width="17.066" height="17.066"/>
	<rect x="213.321" y="0.011" style="fill:#62BEFF;" width="17.066" height="17.066"/>
	<rect x="247.453" y="0.011" style="fill:#62BEFF;" width="17.066" height="17.066"/>
</g>
<g>
	<rect x="281.584" y="0.011" style="fill:#FFDB6F;" width="17.066" height="17.066"/>
	<rect x="315.716" y="0.011" style="fill:#FFDB6F;" width="17.066" height="17.066"/>
	<rect x="349.847" y="0.011" style="fill:#FFDB6F;" width="17.066" height="17.066"/>
	<rect x="383.979" y="0.011" style="fill:#FFDB6F;" width="17.066" height="17.066"/>
	<rect x="418.111" y="0.011" style="fill:#FFDB6F;" width="17.066" height="17.066"/>
	<rect x="452.242" y="0.011" style="fill:#FFDB6F;" width="17.066" height="17.066"/>
	<rect x="452.242" y="34.126" style="fill:#FFDB6F;" width="17.066" height="17.066"/>
	<rect x="452.242" y="68.257" style="fill:#FFDB6F;" width="17.066" height="17.066"/>
	<rect x="452.242" y="102.389" style="fill:#FFDB6F;" width="17.066" height="17.066"/>
	<rect x="452.242" y="136.52" style="fill:#FFDB6F;" width="17.066" height="17.066"/>
	<rect x="452.242" y="170.652" style="fill:#FFDB6F;" width="17.066" height="17.066"/>
</g>
<path d="M430.68,236.697v13.328c0.017,16.614,13.491,30.07,30.104,30.07h0.785c16.588-0.034,30.019-13.482,30.044-30.07v-13.328
	c-0.282-16.827-14.148-30.241-30.974-29.959C444.204,207.011,430.953,220.262,430.68,236.697z M447.745,236.697
	c0.102-7.296,6.092-13.124,13.388-13.021c0.137,0,0.264,0.009,0.401,0.009c7.185,0.009,13.004,5.828,13.013,13.013v13.328
	c-0.009,7.185-5.828,13.004-13.013,13.013h-0.751c-7.193,0.009-13.03-5.811-13.038-13.004v-0.009V236.697z"/>
<path d="M478.387,511.985h25.061c4.71,0,8.533-3.814,8.541-8.524c0-1.092-0.205-2.167-0.614-3.183l-23.952-59.858
	c-0.529-1.348-0.93-2.739-1.203-4.156l-10.163-55.891h3.891c4.71,0,8.533-3.823,8.533-8.533v-63.016
	c-0.111-14.753-11.997-26.708-26.751-26.904l0,0l-54.611-5.973l-31.666-31.632v-56.582c0-4.71-3.823-8.533-8.533-8.533h-37.545
	c-4.71,0-8.533,3.823-8.533,8.533c0,2.722,1.306,5.29,3.507,6.895c2.099,1.502,3.353,3.925,3.353,6.511
	c0,4.48-3.626,8.106-8.106,8.106c-4.48,0-8.106-3.626-8.106-8.106c0-2.585,1.246-5.009,3.353-6.502
	c3.814-2.773,4.659-8.106,1.886-11.92c-1.604-2.201-4.156-3.507-6.878-3.516H273.06c-4.71,0-8.533,3.823-8.533,8.533v17.817
	c-0.853-0.085-1.707-0.137-2.56-0.137c-5.205,0-10.274,1.63-14.506,4.659v-22.339c0-4.71-3.823-8.533-8.533-8.533h-21.443
	c0-0.512,0.051-1.032,0.051-1.544c0.034-13.892-11.204-25.172-25.087-25.206c-13.883-0.034-25.172,11.204-25.206,25.087
	c0,0.555,0.017,1.109,0.051,1.664h-22.228c-4.71,0-8.533,3.823-8.533,8.533v56.582l-32.212,32.212l-36.905,10.965
	c-4.855-3.686-10.786-5.674-16.878-5.666c-14.907,0.017-26.981,12.091-27.007,26.998v63.016c0,4.71,3.823,8.533,8.533,8.533h3.882
	l-10.154,55.873c-0.265,1.425-0.674,2.824-1.212,4.173L0.613,500.278c-1.749,4.377,0.375,9.344,4.744,11.093
	c1.015,0.41,2.091,0.614,3.183,0.614h25.07V494.92H21.143l19.25-48.151c0.973-2.406,1.69-4.898,2.15-7.449l7.808-42.733
	l12.211,44.917l-6.11,61.096c-0.469,4.693,2.944,8.874,7.637,9.344c0.282,0.026,0.572,0.043,0.853,0.043H90.02V494.92H74.371
	l5.333-53.288c0.102-1.041,0.017-2.091-0.256-3.097l-15.863-58.16h6.058c4.71,0,8.533-3.823,8.533-8.533v-47.23l49.883-0.35
	c3.029-0.017,5.828-1.638,7.347-4.266l17.066-29.865h86.455c4.71,0,8.533-3.823,8.533-8.533v-30.531
	c4.232,3.029,9.301,4.659,14.506,4.659c0.853,0,1.707-0.043,2.56-0.128v26c0,4.71,3.823,8.533,8.533,8.533h90.449l22.092,31.077
	c1.596,2.253,4.19,3.592,6.954,3.592h41.291v47.042c0,4.71,3.823,8.533,8.533,8.533h6.058l-15.897,58.16
	c-0.273,1.007-0.358,2.056-0.256,3.097l5.333,53.288h-15.649v17.066h25.078c4.71,0,8.533-3.823,8.533-8.533
	c0-0.282-0.017-0.572-0.043-0.853l-6.11-61.096l12.211-44.917l7.773,42.758c0.461,2.534,1.178,5.026,2.142,7.415l19.293,48.16
	h-12.458V511.985z M61.111,363.308H40.572v-54.483c0.094-5.581,4.693-10.035,10.274-9.941c0.119,0,0.239,0.009,0.358,0.009
	c4.992,0.043,9.156,3.814,9.693,8.772l-9.728,0.068l0.119,17.066l9.847-0.068L61.111,363.308z M123.026,307.196l-44.977,0.316
	c-0.077-1.749-0.333-3.49-0.751-5.197l33.944-10.077c1.365-0.384,2.603-1.109,3.609-2.108l21.682-21.682v13.149
	c0.051,0.503,0.154,0.998,0.299,1.476L123.026,307.196z M230.395,273.064h-68.186l4.872-8.533h20.65v-17.066h-25.599
	c-3.055-0.009-5.879,1.621-7.407,4.266l-1.126,2.005v-57.469h25.65c4.71,0,8.533-3.823,8.533-8.533c0-1.877-0.614-3.703-1.758-5.188
	c-1.544-1.946-2.091-4.505-1.468-6.912c0.794-2.978,3.191-5.256,6.203-5.913c2.406-0.503,4.906,0.128,6.784,1.707
	c3.362,2.748,3.9,7.68,1.22,11.093c-2.876,3.729-2.193,9.088,1.544,11.972c1.493,1.152,3.328,1.775,5.214,1.775h24.873v9.284
	c-0.853-0.085-1.707-0.137-2.56-0.137c-13.9,0-25.172,11.272-25.172,25.172c0,13.9,11.272,25.172,25.172,25.172
	c0.853,0,1.707-0.043,2.56-0.128V273.064z M227.835,238.659c-4.471,0.051-8.132-3.533-8.175-8.004
	c-0.043-4.471,3.533-8.132,8.004-8.175c2.048-0.026,4.028,0.734,5.538,2.116c1.143,0.981,2.534,1.647,4.019,1.911
	c-0.546,2.679-0.546,5.453,0,8.132c-1.485,0.265-2.876,0.922-4.019,1.903C231.743,237.891,229.824,238.642,227.835,238.659z
	 M281.593,273.064v-30.206c0-4.71-3.814-8.533-8.524-8.541c-2.116,0-4.164,0.785-5.734,2.21c-1.468,1.357-3.388,2.125-5.384,2.133
	c-4.48,0-8.106-3.626-8.106-8.106c0-4.48,3.626-8.106,8.106-8.106c1.997,0.009,3.917,0.776,5.384,2.133
	c3.49,3.166,8.891,2.893,12.048-0.597c1.408-1.562,2.193-3.584,2.21-5.691v-22.023h13.337c-2.705,13.627,6.144,26.87,19.771,29.575
	c13.627,2.705,26.87-6.144,29.575-19.771c0.64-3.234,0.64-6.57,0-9.804h14.113v57.247l-1.707-2.466
	c-1.604-2.253-4.198-3.584-6.963-3.584H332.79v17.066h12.492l6.067,8.533H281.593z M375.455,277.527v-9.079l21.682,21.682
	c1.374,1.374,3.183,2.244,5.12,2.449l34.755,3.78c-1.86,3.516-2.91,7.398-3.08,11.374h-37.007L375.455,277.527z M460.784,324.799
	v-17.066h-9.685c0.631-5.197,5.145-9.036,10.376-8.84c5.487,0,9.932,4.446,9.941,9.932v54.483h-20.539v-38.509L460.784,324.799
	L460.784,324.799z"/>
<path d="M50.453,206.618c-16.605,0.017-30.061,13.473-30.078,30.078v13.328c0.017,16.605,13.473,30.061,30.078,30.079h0.751
	c16.614,0,30.087-13.465,30.104-30.079v-13.328c-0.111-16.725-13.755-30.189-30.48-30.087
	C50.701,206.61,50.581,206.61,50.453,206.618z M64.243,250.025c-0.009,7.193-5.845,13.013-13.038,13.004l0,0h-0.751
	c-7.176-0.009-12.996-5.828-13.013-13.004v-13.328c0.111-7.296,6.11-13.132,13.414-13.021c0.119,0,0.239,0.009,0.35,0.009
	c7.185,0.009,12.996,5.828,13.004,13.013L64.243,250.025z"/>
<rect x="42.663" y="170.652" width="17.066" height="17.066"/>
<rect x="42.663" y="136.52" width="17.066" height="17.066"/>
<rect x="42.663" y="102.389" width="17.066" height="17.066"/>
<rect x="42.663" y="68.257" width="17.066" height="17.066"/>
<rect x="42.663" y="34.126" width="17.066" height="17.066"/>
<rect x="42.663" y="0.011" width="17.066" height="17.066"/>
<rect x="76.794" y="0.011" width="17.066" height="17.066"/>
<rect x="110.926" y="0.011" width="17.066" height="17.066"/>
<rect x="145.058" y="0.011" width="17.066" height="17.066"/>
<rect x="179.189" y="0.011" width="17.066" height="17.066"/>
<rect x="213.321" y="0.011" width="17.066" height="17.066"/>
<rect x="247.453" y="0.011" width="17.066" height="17.066"/>
<rect x="281.584" y="0.011" width="17.066" height="17.066"/>
<rect x="315.716" y="0.011" width="17.066" height="17.066"/>
<rect x="349.847" y="0.011" width="17.066" height="17.066"/>
<rect x="383.979" y="0.011" width="17.066" height="17.066"/>
<rect x="418.111" y="0.011" width="17.066" height="17.066"/>
<rect x="452.242" y="0.011" width="17.066" height="17.066"/>
<rect x="452.242" y="34.126" width="17.066" height="17.066"/>
<rect x="452.242" y="68.257" width="17.066" height="17.066"/>
<rect x="452.242" y="102.389" width="17.066" height="17.066"/>
<rect x="452.242" y="136.52" width="17.066" height="17.066"/>
<rect x="452.242" y="170.652" width="17.066" height="17.066"/>
<g>
</g>
<g>
</g>
<g>
</g>
<g>
</g>
<g>
</g>
<g>
</g>
<g>
</g>
<g>
</g>
<g>
</g>
<g>
</g>
<g>
</g>
<g>
</g>
<g>
</g>
<g>
</g>
<g>
</g>
</svg>
