<?xml version="1.0" encoding="iso-8859-1"?>
<!-- Generator: Adobe Illustrator 19.0.0, SVG Export Plug-In . SVG Version: 6.00 Build 0)  -->
<svg version="1.1" id="Capa_1" xmlns="http://www.w3.org/2000/svg" xmlns:xlink="http://www.w3.org/1999/xlink" x="0px" y="0px"
	 viewBox="0 0 512.005 512.005" style="enable-background:new 0 0 512.005 512.005;" xml:space="preserve">
<g>
	<polygon style="fill:#DAEFF6;" points="477.817,204.877 460.755,204.877 418.098,273.127 375.441,221.939 375.441,324.316 
		503.411,324.316 503.411,204.877 	"/>
	<path style="fill:#DAEFF6;" d="M503.411,93.969v110.907h-42.657l-42.657,68.251l-42.657-51.188
		c-0.026-9.41-7.653-17.037-17.063-17.063H337.05v-17.063c16.491,0,29.86-13.369,29.86-29.86v-17.063
		c0-16.491-13.369-29.86-29.86-29.86V93.969H503.411z"/>
</g>
<path style="fill:#F5D0C7;" d="M366.91,140.892v17.063c0,16.491-13.369,29.86-29.86,29.86c-16.491,0-29.86-13.369-29.86-29.86
	v-21.328c0-14.136,11.458-25.594,25.594-25.594h4.266C353.541,111.032,366.91,124.401,366.91,140.892z"/>
<path style="fill:#5B5B5B;" d="M324.253,8.656c18.846,0,34.125,15.28,34.125,34.125s-15.28,34.125-34.125,34.125
	s-34.125-15.28-34.125-34.125S305.408,8.656,324.253,8.656z"/>
<g>
	<path style="fill:#DAEFF6;" d="M337.05,187.814v17.063h-21.328c-9.41,0.026-17.037,7.653-17.063,17.063l-42.657,42.657
		l-51.188-59.719h-17.063l-8.702-1.194c0.085-1.024,0.171-2.048,0.171-3.071v-17.063c0-16.491-13.369-29.86-29.86-29.86l0,0h-4.266
		V93.969H337.05v17.063h-4.266c-14.136,0-25.594,11.458-25.594,25.594v21.328C307.191,174.445,320.559,187.814,337.05,187.814z"/>
	<path style="fill:#DAEFF6;" d="M298.659,221.939v102.376h-97.599l-13.309-59.719c-0.026-9.41-7.653-17.037-17.063-17.063h-21.328
		v-17.063c15.297-0.009,28.119-11.568,29.689-26.788l8.702,1.194h17.063l51.188,59.719L298.659,221.939z"/>
</g>
<path style="fill:#F5D0C7;" d="M179.22,183.548v17.063c0,1.024-0.085,2.048-0.171,3.071c-1.757,16.397-16.474,28.264-32.871,26.507
	c-15.126-1.621-26.618-14.358-26.678-29.578v-46.922h29.86C165.852,153.689,179.22,167.057,179.22,183.548L179.22,183.548z"/>
<path style="fill:#FFDB6F;" d="M110.97,76.907v34.125c-0.026,9.41-7.653,17.037-17.063,17.063l-8.531,34.125l-25.594-34.125H25.656
	c-9.41-0.026-17.037-7.653-17.063-17.063V76.907c0.026-9.41,7.653-17.037,17.063-17.063h68.251
	C103.317,59.878,110.944,67.497,110.97,76.907z"/>
<g>
	<path style="fill:#454545;" d="M153.626,153.689h-17.063V93.969c0-4.709,3.822-8.531,8.531-8.531h136.501v17.063h-127.97V153.689z"
		/>
	<path style="fill:#454545;" d="M324.253,85.438c-11.296,0-22.13-4.47-30.133-12.439l-0.085-0.085
		c-16.679-16.687-16.662-43.732,0.026-60.41s43.732-16.662,60.41,0.026c16.679,16.687,16.662,43.732-0.026,60.41
		C346.435,80.942,335.574,85.438,324.253,85.438z M306.141,60.893c10.152,9.683,26.114,9.683,36.267,0
		c9.973-10.016,9.948-26.217-0.068-36.198c-10.016-9.982-26.217-9.948-36.198,0.068C296.194,34.762,296.194,50.912,306.141,60.893z"
		/>
</g>
<rect x="315.747" y="34.216" style="fill:#DAEFF6;" width="17.063" height="17.063"/>
<path style="fill:#454545;" d="M366.91,102.501h-85.313c-4.709,0-8.531-3.822-8.531-8.531c0-1.689,0.495-3.336,1.433-4.735
	l17.063-25.594l14.196,9.47l-8.224,12.328h53.44l-8.224-12.328l14.196-9.47l17.063,25.594c2.619,3.916,1.561,9.214-2.363,11.833
	C370.246,102.006,368.599,102.501,366.91,102.501z"/>
<path style="fill:#F5D0C7;" d="M337.05,196.345c-21.192-0.026-38.365-17.199-38.391-38.391v-21.328
	c0-18.846,15.28-34.125,34.125-34.125h4.266c21.192,0.026,38.365,17.199,38.391,38.391v17.063
	C375.416,179.146,358.242,196.32,337.05,196.345z M332.785,119.563c-9.427,0-17.063,7.636-17.063,17.063v21.328
	c0,11.782,9.547,21.328,21.328,21.328s21.328-9.547,21.328-21.328v-17.063c0-11.782-9.547-21.328-21.328-21.328H332.785z"/>
<g>
	<path style="fill:#62BEFF;" d="M256.003,273.127h-0.324c-2.372-0.094-4.607-1.169-6.151-2.969l-48.637-56.75h-13.138v-17.063
		h17.063c2.491,0,4.854,1.092,6.475,2.977l45.216,52.724l36.139-36.139l12.063,12.063l-42.657,42.657
		C260.447,272.232,258.272,273.136,256.003,273.127z"/>
	<path style="fill:#62BEFF;" d="M418.098,281.659c-2.534,0-4.94-1.126-6.561-3.071l-42.657-51.188l13.121-10.92l35.106,42.145
		l36.412-58.261c1.553-2.5,4.291-4.018,7.235-4.018h17.063v17.063H465.49l-40.157,64.241c-1.45,2.321-3.924,3.805-6.654,3.993
		L418.098,281.659z"/>
</g>
<path style="fill:#F5D0C7;" d="M149.361,239.002c-21.192-0.026-38.365-17.199-38.391-38.391v-46.922
	c0-4.709,3.822-8.531,8.531-8.531h29.86c21.192,0.026,38.365,17.199,38.391,38.391v17.063c0,1.254-0.094,2.508-0.188,3.762
	C185.662,224.038,169.119,239.036,149.361,239.002z M128.032,162.22v38.391c0.068,11.782,9.675,21.269,21.456,21.2
	c10.826-0.068,19.887-8.233,21.072-18.999c0.051-0.614,0.128-1.408,0.128-2.201v-17.063c0-11.782-9.547-21.328-21.328-21.328
	L128.032,162.22L128.032,162.22z"/>
<path style="fill:#62BEFF;" d="M68.313,315.784h-0.324c-2.372-0.094-4.607-1.169-6.151-2.969L13.2,256.065H0.062v-17.063h17.063
	c2.491,0,4.854,1.092,6.475,2.977l45.216,52.724l36.139-36.139l12.063,12.063l-42.657,42.657
	C72.758,314.888,70.582,315.793,68.313,315.784z"/>
<g>
	<rect x="153.652" y="358.407" style="fill:#454545;" width="17.063" height="153.564"/>
	<rect x="119.527" y="358.407" style="fill:#454545;" width="17.063" height="153.564"/>
</g>
<g>
	<rect x="256.028" y="460.783" style="fill:#62BEFF;" width="17.063" height="17.063"/>
	<rect x="290.153" y="460.783" style="fill:#62BEFF;" width="17.063" height="17.063"/>
	<rect x="324.279" y="460.783" style="fill:#62BEFF;" width="17.063" height="17.063"/>
	<rect x="358.404" y="460.783" style="fill:#62BEFF;" width="17.063" height="17.063"/>
	<rect x="392.53" y="460.783" style="fill:#62BEFF;" width="17.063" height="17.063"/>
	<rect x="426.655" y="460.783" style="fill:#62BEFF;" width="17.063" height="17.063"/>
	<rect x="426.655" y="426.657" style="fill:#62BEFF;" width="17.063" height="17.063"/>
	<rect x="426.655" y="392.532" style="fill:#62BEFF;" width="17.063" height="17.063"/>
	<rect x="426.655" y="358.407" style="fill:#62BEFF;" width="17.063" height="17.063"/>
</g>
<path style="fill:#EC9821;" d="M85.376,170.751c-2.687,0-5.213-1.263-6.825-3.413l-23.035-30.713h-29.86
	c-14.136,0-25.594-11.458-25.594-25.594V76.907c0-14.136,11.458-25.594,25.594-25.594h68.251c14.136,0,25.594,11.458,25.594,25.594
	v34.125c0,11.475-7.644,21.55-18.692,24.647l-7.158,28.614c-0.802,3.191-3.361,5.639-6.586,6.288
	C86.51,170.7,85.947,170.751,85.376,170.751z M25.656,68.375c-4.709,0-8.531,3.822-8.531,8.531v34.125
	c0,4.709,3.822,8.531,8.531,8.531h34.125c2.687,0,5.213,1.263,6.825,3.413l14.836,19.784l4.189-16.738
	c0.947-3.796,4.36-6.458,8.275-6.458c4.709,0,8.531-3.822,8.531-8.531V76.907c0-4.709-3.822-8.531-8.531-8.531H25.656z"/>
<path style="fill:#62BEFF;" d="M252.189,425.839l-17.063-8.531c-1.655-0.828-2.995-2.167-3.822-3.822l-34.125-68.251
	c-0.316-0.631-0.546-1.297-0.7-1.979l-17.063-76.782l16.653-3.703l16.841,75.767l32.419,64.761l14.503,7.252L252.189,425.839z"/>
<path style="fill:#00448F;" d="M358.379,196.345h-42.657c-14.136,0-25.594,11.458-25.594,25.594v102.376
	c0,4.709,3.822,8.531,8.531,8.531h76.782c4.709,0,8.531-3.822,8.531-8.531V221.939C383.973,207.803,372.515,196.345,358.379,196.345
	z"/>
<path style="fill:#454545;" d="M503.411,85.438H366.91v17.063h127.97v213.284H196.283v17.063h307.128
	c4.709,0,8.531-3.822,8.531-8.531V93.969C511.943,89.26,508.121,85.438,503.411,85.438z"/>
<path style="fill:#00448F;" d="M170.689,239.002h-42.657c-14.136,0-25.594,11.458-25.594,25.594v93.845
	c0,4.709,3.822,8.531,8.531,8.531h76.782c4.709,0,8.531-3.822,8.531-8.531v-93.845C196.283,250.46,184.826,239.002,170.689,239.002z
	"/>
<rect x="315.747" y="34.216" width="17.063" height="17.063"/>
<path d="M61.838,312.807c1.544,1.809,3.779,2.884,6.151,2.977h0.324c2.261,0,4.436-0.896,6.032-2.5l28.094-28.094v73.25
	c0,4.709,3.822,8.531,8.531,8.531h8.531v145.033h17.063V366.972h17.063v145.033h17.063V366.972h17.063
	c4.709,0,8.531-3.822,8.531-8.531v-16.116l0.196,0.904c0.162,0.683,0.392,1.339,0.7,1.962l34.125,68.251
	c0.828,1.655,2.167,2.995,3.822,3.822l17.063,8.531l7.627-15.271l-14.503-7.252l-32.419-64.77l-1.254-5.656h291.772
	c4.709,0,8.531-3.822,8.531-8.531V93.969c0-4.709-3.822-8.531-8.531-8.531H371.474l-12.242-18.359
	c13.488-19.315,8.753-45.907-10.562-59.395c-19.315-13.488-45.907-8.753-59.395,10.562c-10.238,14.665-10.238,34.16,0,48.833
	l-12.242,18.359H145.095c-4.709,0-8.531,3.822-8.531,8.531v51.188h-17.063c-4.709,0-8.531,3.822-8.531,8.531v46.922
	c0,21.2,17.191,38.391,38.391,38.391s38.391-17.191,38.391-38.391v12.797h13.138l48.629,56.742c1.544,1.8,3.779,2.875,6.151,2.969
	h0.333c2.261,0,4.436-0.896,6.032-2.5l28.094-28.085v73.25h-82.259l-11.765-52.894c-0.87-13.411-11.978-23.845-25.415-23.888
	h-42.657c-12.584,0.051-23.256,9.231-25.193,21.661l-34.04,34.04L23.583,241.98c-1.621-1.885-3.976-2.969-6.458-2.977H0.062v17.063
	h13.138L61.838,312.807z M324.253,17.187c14.136,0,25.594,11.458,25.594,25.594s-11.458,25.594-25.594,25.594
	c-14.136,0-25.594-11.458-25.594-25.594S310.117,17.187,324.253,17.187z M301.876,78.929c13.659,8.676,31.097,8.676,44.755,0
	l4.342,6.509h-53.44L301.876,78.929z M170.689,200.611c0,11.782-9.547,21.328-21.328,21.328c-11.782,0-21.328-9.547-21.328-21.328
	V162.22h21.328c11.782,0,21.328,9.547,21.328,21.328V200.611z M256.489,252.047l-45.216-52.724
	c-1.621-1.885-3.976-2.969-6.458-2.977h-17.063v-12.797c-0.06-19.494-14.751-35.832-34.125-37.956v-43.092h179.158
	c-18.846,0-34.125,15.28-34.125,34.125v21.328c0,21.2,17.191,38.391,38.391,38.391s38.391-17.191,38.391-38.391v-17.063
	c-0.026-21.192-17.199-38.365-38.391-38.391h157.83v213.284H383.973v-70.281l27.565,33.085c1.621,1.945,4.027,3.071,6.561,3.071
	h0.58c2.73-0.188,5.204-1.672,6.654-3.993l40.157-64.258h12.328v-17.063h-17.063c-2.943,0-5.673,1.519-7.235,4.01l-36.412,58.269
	l-33.494-40.191c-1.749-12.618-12.498-22.028-25.236-22.088h-42.657c-12.584,0.051-23.256,9.231-25.193,21.661L256.489,252.047z
	 M337.05,119.563c11.782,0,21.328,9.547,21.328,21.328v17.063c0,11.782-9.547,21.328-21.328,21.328s-21.328-9.547-21.328-21.328
	v-21.328c0-9.427,7.636-17.063,17.063-17.063H337.05z M307.191,221.939c0-4.709,3.822-8.531,8.531-8.531h42.657
	c4.709,0,8.531,3.822,8.531,8.531v93.845h-59.719V221.939z M119.501,264.596c0-4.709,3.822-8.531,8.531-8.531h42.657
	c4.709,0,8.531,3.822,8.531,8.531v85.313h-59.719V264.596z"/>
<rect x="256.028" y="460.783" width="17.063" height="17.063"/>
<rect x="290.153" y="460.783" width="17.063" height="17.063"/>
<rect x="324.279" y="460.783" width="17.063" height="17.063"/>
<rect x="358.404" y="460.783" width="17.063" height="17.063"/>
<rect x="392.53" y="460.783" width="17.063" height="17.063"/>
<rect x="426.655" y="460.783" width="17.063" height="17.063"/>
<rect x="426.655" y="426.657" width="17.063" height="17.063"/>
<rect x="426.655" y="392.532" width="17.063" height="17.063"/>
<rect x="426.655" y="358.407" width="17.063" height="17.063"/>
<path d="M25.656,136.626h29.86l23.035,30.713c1.612,2.15,4.138,3.413,6.825,3.413c0.572,0,1.143-0.051,1.706-0.171
	c3.225-0.648,5.784-3.097,6.586-6.288l7.158-28.614c11.048-3.105,18.675-13.172,18.675-24.647V76.907
	c0-14.136-11.458-25.594-25.594-25.594H25.656c-14.136,0-25.594,11.458-25.594,25.594v34.125
	C0.062,125.168,11.52,136.626,25.656,136.626z M17.125,76.907c0-4.709,3.822-8.531,8.531-8.531h68.251
	c4.709,0,8.531,3.822,8.531,8.531v34.125c0,4.709-3.822,8.531-8.531,8.531c-3.916,0-7.328,2.662-8.275,6.458l-4.189,16.738
	l-14.836-19.784c-1.612-2.15-4.138-3.413-6.825-3.413H25.656c-4.709,0-8.531-3.822-8.531-8.531
	C17.125,111.032,17.125,76.907,17.125,76.907z"/>
<g>
</g>
<g>
</g>
<g>
</g>
<g>
</g>
<g>
</g>
<g>
</g>
<g>
</g>
<g>
</g>
<g>
</g>
<g>
</g>
<g>
</g>
<g>
</g>
<g>
</g>
<g>
</g>
<g>
</g>
</svg>
