<?xml version="1.0" encoding="iso-8859-1"?>
<!-- Generator: Adobe Illustrator 19.0.0, SVG Export Plug-In . SVG Version: 6.00 Build 0)  -->
<svg version="1.1" id="Capa_1" xmlns="http://www.w3.org/2000/svg" xmlns:xlink="http://www.w3.org/1999/xlink" x="0px" y="0px"
	 viewBox="0 0 512 512" style="enable-background:new 0 0 512 512;" xml:space="preserve">
<path style="fill:#DAEFF6;" d="M256.427,46.933H42.667v264.533h48.384l20.224-20.224c5.973-5.939,15.625-5.914,21.564,0.06
	c0.009,0.009,0.017,0.017,0.026,0.026l6.571,6.571l6.485,6.485c1.988,1.997,3.379,4.506,4.011,7.253l0.512-0.171h318.891V46.933
	L256.427,46.933L256.427,46.933z"/>
<path style="fill:#6F6F6F;" d="M503.467,12.8v332.8H128l-0.853-0.853l18.773-18.773c3.789-3.729,5.316-9.182,4.011-14.336
	l0.512-0.171h318.891V46.933H42.667v264.533h48.384L56.917,345.6H8.533V12.8H503.467z"/>
<path style="fill:#5B5B5B;" d="M384,473.6v25.6H128v-25.6h42.325c9.591,0.017,17.391-7.748,17.408-17.34c0-0.026,0-0.043,0-0.068
	V345.6h136.533v110.592c-0.017,9.591,7.748,17.391,17.34,17.408c0.026,0,0.043,0,0.068,0H384z"/>
<path style="fill:#FFDB6F;" d="M316.928,130.133c11.913,14.14,18.441,32.034,18.432,50.517c0.145,20.122-7.569,39.501-21.504,54.016
	h-0.085c-0.375,0.444-0.777,0.879-1.195,1.28c-14.566,14.703-34.432,22.938-55.125,22.869c-35.61-0.102-66.773-23.945-76.203-58.283
	c-1.801-6.707-2.748-13.619-2.816-20.565c-0.162-42.965,34.534-77.918,77.5-78.08c0.162,0,0.333,0,0.495,0
	c20.941-0.043,41.037,8.286,55.808,23.125C313.89,126.635,315.452,128.35,316.928,130.133z"/>
<g>
	<rect x="247.467" y="121.6" style="fill:#002874;" width="85.333" height="17.067"/>
	<rect x="237.739" y="157.867" style="fill:#002874;" width="103.595" height="17.067"/>
	<polygon style="fill:#002874;" points="282.795,209.067 170.667,209.067 170.325,192 282.795,192 	"/>
	<rect x="199.595" y="157.867" style="fill:#002874;" width="19.115" height="17.067"/>
	<rect x="295.424" y="192" style="fill:#002874;" width="19.115" height="17.067"/>
	<polygon style="fill:#002874;" points="324.361,243.2 231.851,243.2 231.851,226.133 324.267,226.133 	"/>
</g>
<g>
	<path style="fill:#454545;" d="M503.467,4.267H8.533C3.823,4.267,0,8.09,0,12.8v332.8c0,4.71,3.823,8.533,8.533,8.533h48.384
		L76.8,337.067H17.067V21.333h477.867v315.733H128l-25.6,17.067h401.067c4.71,0,8.533-3.823,8.533-8.533V12.8
		C512,8.09,508.177,4.267,503.467,4.267z"/>
	
		<rect x="128.769" y="263.515" transform="matrix(-0.7071 0.7071 -0.7071 -0.7071 474.3044 347.6335)" style="fill:#454545;" width="72.772" height="17.067"/>
</g>
<path style="fill:#168DE2;" d="M256.427,81.067c-54.81,0.691-98.679,45.687-97.997,100.497
	c0.683,54.187,44.698,97.809,98.893,97.997h0.06c54.81-0.7,98.679-45.696,97.98-100.506
	C354.671,124.86,310.63,81.237,256.427,81.067z M313.856,234.667h-0.085c-0.375,0.444-0.777,0.879-1.195,1.28
	c-14.566,14.703-34.432,22.938-55.125,22.869c-35.61-0.102-66.773-23.945-76.203-58.283c-1.801-6.707-2.748-13.619-2.816-20.565
	c-0.162-42.965,34.534-77.918,77.5-78.08c0.162,0,0.333,0,0.495,0c20.941-0.043,41.037,8.286,55.808,23.125
	c1.655,1.621,3.217,3.337,4.693,5.12c11.913,14.14,18.441,32.034,18.432,50.517C335.505,200.772,327.791,220.151,313.856,234.667z"
	/>
<path style="fill:#002874;" d="M149.931,311.637c1.306,5.154-0.222,10.607-4.011,14.336l-18.773,18.773l-69.035,69.12
	l-34.731-34.731L56.917,345.6l34.133-34.133l20.224-20.224c5.973-5.939,15.625-5.914,21.564,0.06
	c0.009,0.009,0.017,0.017,0.026,0.026l6.571,6.571l6.485,6.485C147.908,306.381,149.299,308.89,149.931,311.637z"/>
<path d="M8.533,354.133h27.767l-18.978,18.978c-3.328,3.328-3.328,8.738,0,12.066L52.053,419.9c3.337,3.328,8.73,3.328,12.066,0
	l65.766-65.766H179.2v102.042c-0.009,4.907-3.985,8.883-8.892,8.892H128c-4.71,0-8.533,3.823-8.533,8.533v25.6
	c0,4.71,3.823,8.533,8.533,8.533h256c4.71,0,8.533-3.823,8.533-8.533v-25.6c0-4.71-3.823-8.533-8.533-8.533h-42.308
	c-4.907-0.009-8.883-3.985-8.892-8.892V354.133h170.667c4.71,0,8.533-3.823,8.533-8.533V12.8c0-4.71-3.823-8.533-8.533-8.533H8.533
	C3.823,4.267,0,8.09,0,12.8v332.8C0,350.31,3.823,354.133,8.533,354.133z M58.086,401.801l-22.665-22.656l81.843-81.843
	c2.662-2.628,6.946-2.611,9.583,0.051l0,0l13.03,13.039c1.289,1.271,2.005,3.004,2.005,4.813c0.009,1.783-0.691,3.499-1.963,4.753
	L58.086,401.801z M155.46,302.933c-0.981-1.673-2.159-3.226-3.516-4.617l-0.486-0.486l29.705-29.696
	c21.052,18.347,48.026,28.467,75.947,28.501h0.273c64.239-0.196,116.156-52.429,115.968-116.676
	C373.163,115.712,320.913,63.804,256.674,64h-0.282c-64.026,0.068-115.874,52.028-115.806,116.062
	c0.034,27.947,10.155,54.938,28.501,76.006l-29.696,29.696l-0.478-0.478c-9.31-9.293-24.38-9.318-33.715-0.051l-17.698,17.698H51.2
	V55.467h409.6v247.467H155.46z M157.653,180.053c-0.188-54.485,43.836-98.799,98.321-98.987c0.145,0,0.282,0,0.427,0h0.23
	c54.895,0.171,99.354,44.629,99.524,99.524c0.196,54.477-43.81,98.79-98.287,98.987c-0.154,0-0.299,0-0.452,0h-0.239
	C202.283,279.407,157.824,234.948,157.653,180.053z M341.692,482.133h33.775v8.533H136.533v-8.533h33.775
	c14.327-0.017,25.941-11.631,25.958-25.958V354.133h119.467v102.042C315.75,470.502,327.364,482.116,341.692,482.133z
	 M17.067,21.333h477.867v315.733H146.953l5.043-5.035c3.294-3.285,5.538-7.475,6.46-12.032h310.878c4.71,0,8.533-3.823,8.533-8.533
	V46.933c0-4.71-3.823-8.533-8.533-8.533H42.667c-4.71,0-8.533,3.823-8.533,8.533v264.533c0,4.71,3.823,8.533,8.533,8.533h27.767
	l-17.067,17.067H17.067V21.333z"/>
<path d="M257.417,267.324c47.718,0.043,86.434-38.605,86.477-86.323c0-0.128,0-0.247,0-0.375
	c-0.171-48.222-39.27-87.236-87.492-87.305c-47.71-0.06-86.434,38.562-86.494,86.272c0,0.154,0,0.307,0,0.461
	C170.103,228.267,209.203,267.264,257.417,267.324z M207.275,130.688c13.005-13.056,30.694-20.361,49.126-20.301
	c13.483-0.009,26.684,3.883,37.999,11.213h-46.933v17.067h65.229c4.395,5.828,7.851,12.305,10.24,19.2h-85.154v17.067h88.747
	c0.154,1.903,0.282,3.806,0.29,5.726c0.085,16.691-5.897,32.853-16.819,45.474h-78.191V243.2h56.064
	c-9.481,4.642-19.9,7.057-30.455,7.057c-27.563-0.017-52.574-16.111-64.009-41.19h89.344V192h-94.66
	c-0.717-3.968-1.092-7.987-1.118-12.023C186.863,161.493,194.176,143.735,207.275,130.688z"/>
<rect x="295.467" y="192" width="19.098" height="17.067"/>
<rect x="199.586" y="157.867" width="19.098" height="17.067"/>
<g>
</g>
<g>
</g>
<g>
</g>
<g>
</g>
<g>
</g>
<g>
</g>
<g>
</g>
<g>
</g>
<g>
</g>
<g>
</g>
<g>
</g>
<g>
</g>
<g>
</g>
<g>
</g>
<g>
</g>
</svg>
