<?xml version="1.0" encoding="iso-8859-1"?>
<!-- Generator: Adobe Illustrator 19.0.0, SVG Export Plug-In . SVG Version: 6.00 Build 0)  -->
<svg version="1.1" id="Capa_1" xmlns="http://www.w3.org/2000/svg" xmlns:xlink="http://www.w3.org/1999/xlink" x="0px" y="0px"
	 viewBox="0 0 512 512" style="enable-background:new 0 0 512 512;" xml:space="preserve">
<polygon style="fill:#F3F3F3;" points="435.166,138.489 435.251,115.294 512,115.294 511.659,285.847 434.91,285.847 
	434.995,257.876 "/>
<path style="fill:#E6C2BB;" d="M435.166,138.489l-0.171,119.387h-77.26l-60.717-60.717l-44.344,44.344
	c-6.66,6.66-17.456,6.669-24.116,0.017c-0.009-0.009-0.009-0.009-0.017-0.017l-26.947-26.947l67.88-67.88l0.341,0.341h44.77
	c7.99,0,15.674-3.053,21.49-8.528L435.166,138.489z"/>
<path style="fill:#F5D0C7;" d="M336.075,138.489c-5.816,5.475-13.499,8.528-21.49,8.528h-44.77l-0.341-0.341l-67.88,67.88
	l26.947,26.947c6.66,6.66,17.456,6.669,24.116,0.017c0.009-0.009,0.009-0.009,0.017-0.017l44.344-44.344l60.717,60.717l9.38,9.38
	c9.38,9.406,9.38,24.619,0,34.025l-84.083,84.083c-9.406,9.38-24.619,9.38-34.025,0l22.854-22.854c9.38-9.406,9.38-24.619,0-34.025
	l-84.083-84.083c-9.44-9.38-24.67-9.38-34.111,0l-22.854,22.854l-9.295-9.38h-44.77V138.489H188.12l36.925-36.839h120.837v14.071
	C345.898,124.342,342.351,132.579,336.075,138.489z"/>
<path style="fill:#E6C2BB;" d="M271.861,328.485c9.38,9.406,9.38,24.619,0,34.025l-22.854,22.854l-19.017,18.931L111.883,286.188
	l18.931-18.931l22.854-22.854c9.44-9.38,24.67-9.38,34.111,0L271.861,328.485z"/>
<polygon style="fill:#F3F3F3;" points="76.749,257.876 76.749,285.847 0,285.847 0,115.294 76.749,115.294 76.749,138.489 "/>
<g>
	
		<rect x="137.131" y="295.073" transform="matrix(-0.7071 0.7071 -0.7071 -0.7071 478.4213 409.0319)" style="fill:#D6ABA1;" width="34.733" height="17.055"/>
	
		<rect x="166.23" y="324.226" transform="matrix(-0.7071 0.7071 -0.7071 -0.7071 548.7109 438.2232)" style="fill:#D6ABA1;" width="34.733" height="17.055"/>
	
		<rect x="195.366" y="353.364" transform="matrix(-0.7071 0.7071 -0.7071 -0.7071 618.9512 467.405)" style="fill:#D6ABA1;" width="34.613" height="17.055"/>
</g>
<g>
	<path style="fill:#454545;" d="M230.246,456.4c-2.26,0-4.434-0.895-6.029-2.499l-25.583-25.583l12.058-12.058l19.554,19.554
		L249.8,416.26l12.058,12.058l-25.583,25.583C234.681,455.504,232.506,456.4,230.246,456.4z"/>
	
		<rect x="289.627" y="383.916" transform="matrix(-0.7071 0.7071 -0.7071 -0.7071 823.3851 443.8308)" style="fill:#454545;" width="60.29" height="17.055"/>
	<path style="fill:#454545;" d="M185.11,104.268l-12.058-12.058l34.111-34.111c1.595-1.603,3.769-2.499,6.029-2.499h34.111v17.055
		h-30.58L185.11,104.268z"/>
</g>
<path d="M85.276,285.847v-19.426h32.695l0.853,0.853l-12.928,12.936c-3.326,3.326-3.326,8.732,0,12.058L223.979,410.35
	c3.326,3.326,8.732,3.326,12.058,0l13.823-13.84c12.698,7.419,28.806,5.313,39.167-5.117l84.074-84.074
	c10.89-10.915,12.655-27.971,4.221-40.882h49.06v19.409c0,4.707,3.82,8.528,8.528,8.528h76.749v-17.055h-68.221l0.298-153.498
	h68.221v-17.055h-76.749c-4.707,0-8.528,3.82-8.528,8.528v14.702h-75.043c1.782-4.528,2.712-9.346,2.737-14.216v-14.13
	c0-4.707-3.82-8.528-8.528-8.528H225.019c-2.26,0-4.434,0.895-6.029,2.499l-34.366,34.366H85.276v-14.693
	c0-4.707-3.82-8.528-8.528-8.528H0v17.055h68.221v153.498H0v17.055h76.749C81.456,294.374,85.276,290.554,85.276,285.847z
	 M230.008,392.263l-17.848-17.848l18.761-18.761l-12.058-12.058l-18.761,18.761l-17.055-17.055l18.812-18.812L189.8,314.431
	l-18.812,18.761l-17.055-17.055l18.863-18.863l-12.058-12.058l-18.838,18.94l-17.951-17.908l35.816-35.816
	c6.08-6.055,15.904-6.055,21.984,0l84.074,84.083c6.072,6.063,6.072,15.904,0,21.976l0,0L230.008,392.263z M426.451,249.365h-65.185
	l-58.244-58.244c-3.326-3.326-8.732-3.326-12.058,0l-44.344,44.344c-3.326,3.326-8.732,3.326-12.058,0l-20.91-20.91l59.003-58.994
	h41.956c8.835-0.034,17.396-3.036,24.312-8.528h87.724L426.451,249.365z M188.154,147.034c2.26,0,4.434-0.895,6.029-2.499
	l34.358-34.358h108.804v5.594c-0.017,12.553-10.182,22.726-22.735,22.743H271.93c-0.767-0.35-1.612-0.469-2.447-0.358
	c-2.26,0-4.434,0.895-6.029,2.499l-67.889,67.88c-3.326,3.326-3.326,8.732,0,12.058l26.939,26.939c9.986,9.986,26.18,9.986,36.174,0
	l38.315-38.315l64.06,64.06c6.055,6.072,6.055,15.904,0,21.976l-84.083,84.074c-3.701,3.692-9.005,5.279-14.122,4.213l15-14.975
	c12.732-12.715,12.74-33.343,0.026-46.066c-0.009-0.009-0.017-0.017-0.026-0.026l-84.074-84.083c-12.74-12.706-33.36-12.706-46.1,0
	l-16.817,16.757l-3.326-3.317c-1.595-1.603-3.769-2.499-6.029-2.499H85.276V147L188.154,147.034z"/>
<path d="M230.246,435.814l-19.554-19.554l-12.058,12.058l25.583,25.583c3.326,3.326,8.732,3.326,12.058,0l25.583-25.583
	L249.8,416.26L230.246,435.814z"/>
<rect x="289.627" y="383.916" transform="matrix(-0.7071 0.7071 -0.7071 -0.7071 823.3851 443.8308)" width="60.29" height="17.055"/>
<path d="M216.722,72.656h30.58V55.6h-34.111c-2.26,0-4.434,0.895-6.029,2.499l-34.111,34.111l12.058,12.058L216.722,72.656z"/>
<g>
</g>
<g>
</g>
<g>
</g>
<g>
</g>
<g>
</g>
<g>
</g>
<g>
</g>
<g>
</g>
<g>
</g>
<g>
</g>
<g>
</g>
<g>
</g>
<g>
</g>
<g>
</g>
<g>
</g>
</svg>
