<?xml version="1.0" encoding="iso-8859-1"?>
<!-- Generator: Adobe Illustrator 19.0.0, SVG Export Plug-In . SVG Version: 6.00 Build 0)  -->
<svg version="1.1" id="Capa_1" xmlns="http://www.w3.org/2000/svg" xmlns:xlink="http://www.w3.org/1999/xlink" x="0px" y="0px"
	 viewBox="0 0 512 512" style="enable-background:new 0 0 512 512;" xml:space="preserve">
<path style="fill:#B5B5B5;" d="M503.467,59.733h-51.2c0-14.14,11.46-25.6,25.6-25.6S503.467,45.594,503.467,59.733z"/>
<path style="fill:#E6E6E6;" d="M85.333,34.133h392.533c-14.14,0-25.6,11.46-25.6,25.6v281.6h-59.733V307.2l-0.171-0.341
	l22.016-10.069l-13.312-23.723l13.312-23.723l-24.747-11.349l-3.157-27.051l-26.709,5.291l-18.432-19.968l-18.432,19.968
	l-26.709-5.291l-3.157,27.051l-24.747,11.349l13.312,23.723l-13.312,23.723l22.016,10.069l-0.171,0.341v34.133h-230.4v-281.6
	C59.733,45.594,71.194,34.133,85.333,34.133z"/>
<path style="fill:#B5B5B5;" d="M392.533,341.333h59.733c0,14.14-11.46,25.6-25.6,25.6h-34.133V341.333z"/>
<path style="fill:#FF8030;" d="M414.379,249.344l-13.312,23.723l13.312,23.723l-22.016,10.069l-2.731,1.28l-3.157,27.051
	l-26.709-5.291l-18.432,19.968l-18.432-19.968l-26.709,5.291l-3.157-27.051l-2.731-1.28l-22.016-10.069l13.312-23.723
	l-13.312-23.723l24.747-11.349l3.157-27.051l26.709,5.291l18.432-19.968l18.432,19.968l26.709-5.291l3.157,27.051L414.379,249.344z
	 M375.467,273.067c0-18.85-15.283-34.133-34.133-34.133S307.2,254.217,307.2,273.067s15.283,34.133,34.133,34.133
	S375.467,291.917,375.467,273.067z"/>
<polygon style="fill:#FB5968;" points="392.533,366.933 392.533,477.867 341.333,426.667 290.133,477.867 290.133,366.933 
	290.133,341.333 290.133,307.2 290.304,306.859 293.035,308.139 296.192,335.189 322.901,329.899 341.333,349.867 359.765,329.899 
	386.475,335.189 389.632,308.139 392.363,306.859 392.533,307.2 392.533,341.333 "/>
<circle style="fill:#FFDB6F;" cx="341.333" cy="273.067" r="34.133"/>
<path style="fill:#B5B5B5;" d="M290.133,341.333v25.6h-256c-14.14,0-25.6-11.46-25.6-25.6H290.133z"/>
<g>
	<rect x="187.733" y="76.8" style="fill:#454545;" width="136.533" height="17.067"/>
	<rect x="102.4" y="128" style="fill:#454545;" width="307.2" height="17.067"/>
	<rect x="102.4" y="162.133" style="fill:#454545;" width="307.2" height="17.067"/>
	<rect x="110.933" y="273.067" style="fill:#454545;" width="110.933" height="17.067"/>
</g>
<path d="M34.133,375.467H281.6v102.4c0,4.71,3.823,8.533,8.533,8.533c2.261,0,4.429-0.896,6.033-2.5l45.167-45.167L386.5,483.9
	c1.596,1.604,3.772,2.5,6.033,2.5c1.118,0,2.236-0.213,3.268-0.649c3.191-1.323,5.265-4.437,5.265-7.885v-102.4h25.6
	c18.85,0,34.133-15.283,34.133-34.133V68.267h42.667c4.71,0,8.533-3.823,8.533-8.533c0-18.85-15.283-34.133-34.133-34.133H85.333
	C66.483,25.6,51.2,40.883,51.2,59.733V332.8H8.533c-4.71,0-8.533,3.823-8.533,8.533C0,360.183,15.283,375.467,34.133,375.467z
	 M492.638,51.2h-29.542c4.719-8.158,15.164-10.94,23.322-6.221C488.994,46.473,491.145,48.614,492.638,51.2z M59.733,349.867
	h213.333V332.8h-204.8V59.733c0-9.429,7.637-17.067,17.067-17.067h363.145c-3.072,5.163-4.71,11.059-4.745,17.067V332.8H409.6
	v17.067h31.838c-3.046,5.274-8.678,8.533-14.771,8.533h-25.6v-8.533H384v107.401l-36.634-36.634c-3.328-3.328-8.738-3.328-12.066,0
	l-36.634,36.634V349.867H281.6v8.533H34.133c-6.093,0-11.725-3.26-14.771-8.533H59.733z"/>
<path d="M287.727,336.213c0.555,4.676,4.804,8.021,9.481,7.467c0.213-0.026,0.435-0.06,0.649-0.102l21.999-4.361l15.215,16.478
	c3.2,3.456,8.602,3.669,12.058,0.469c0.162-0.154,0.316-0.307,0.469-0.469l15.215-16.478l21.999,4.361
	c2.33,0.478,4.753-0.06,6.673-1.468c1.903-1.408,3.14-3.541,3.413-5.897l2.628-22.272l20.369-9.344
	c4.284-1.963,6.17-7.023,4.207-11.315c-0.102-0.213-0.205-0.427-0.324-0.631l-10.931-19.584L421.82,253.5
	c2.313-4.105,0.862-9.31-3.251-11.622c-0.205-0.119-0.418-0.222-0.631-0.324l-20.369-9.327l-2.628-22.272
	c-0.555-4.676-4.804-8.021-9.481-7.467c-0.213,0.026-0.435,0.06-0.649,0.102l-21.999,4.361l-15.215-16.478
	c-3.405-3.456-8.969-3.499-12.433-0.094c-0.034,0.034-0.068,0.068-0.094,0.094l-15.215,16.478l-21.999-4.361
	c-4.625-0.913-9.114,2.091-10.027,6.716c-0.043,0.213-0.077,0.435-0.102,0.649l-2.628,22.272l-20.369,9.344
	c-4.284,1.963-6.17,7.023-4.207,11.315c0.102,0.213,0.205,0.427,0.324,0.631l10.974,19.55l-10.974,19.567
	c-2.313,4.105-0.862,9.31,3.251,11.622c0.205,0.119,0.418,0.222,0.631,0.324l20.369,9.344L287.727,336.213z M289.041,268.928
	l-8.781-15.667l16.316-7.484c2.705-1.237,4.565-3.806,4.915-6.758l2.099-17.86l17.638,3.49c2.91,0.597,5.914-0.375,7.919-2.56
	l12.186-13.235l12.186,13.193c2.005,2.193,5.009,3.166,7.919,2.56l17.638-3.49l2.099,17.86c0.35,2.953,2.21,5.521,4.915,6.758
	l16.316,7.484l-8.781,15.667c-1.451,2.594-1.451,5.751,0,8.346l8.781,15.667l-16.316,7.484c-2.705,1.237-4.565,3.806-4.915,6.758
	l-2.099,17.86l-17.638-3.49c-2.91-0.606-5.914,0.367-7.919,2.56l-12.186,13.21l-12.186-13.193c-1.613-1.749-3.883-2.739-6.263-2.739
	c-0.555,0-1.109,0.051-1.655,0.171l-17.638,3.49l-2.099-17.86c-0.35-2.953-2.21-5.521-4.915-6.758l-16.316-7.484l8.781-15.667
	c1.468-2.603,1.502-5.76,0-8.346L289.041,268.928z"/>
<path d="M341.333,315.733c23.561,0,42.667-19.106,42.667-42.667S364.894,230.4,341.333,230.4s-42.667,19.106-42.667,42.667
	C298.692,296.619,317.781,315.708,341.333,315.733z M341.333,247.467c14.14,0,25.6,11.46,25.6,25.6s-11.46,25.6-25.6,25.6
	s-25.6-11.46-25.6-25.6S327.194,247.467,341.333,247.467z"/>
<rect x="187.733" y="76.8" width="136.533" height="17.067"/>
<rect x="102.4" y="128" width="307.2" height="17.067"/>
<rect x="102.4" y="162.133" width="307.2" height="17.067"/>
<rect x="110.933" y="273.067" width="110.933" height="17.067"/>
<g>
</g>
<g>
</g>
<g>
</g>
<g>
</g>
<g>
</g>
<g>
</g>
<g>
</g>
<g>
</g>
<g>
</g>
<g>
</g>
<g>
</g>
<g>
</g>
<g>
</g>
<g>
</g>
<g>
</g>
</svg>
