<?xml version="1.0" encoding="iso-8859-1"?>
<!-- Generator: Adobe Illustrator 19.0.0, SVG Export Plug-In . SVG Version: 6.00 Build 0)  -->
<svg version="1.1" id="Capa_1" xmlns="http://www.w3.org/2000/svg" xmlns:xlink="http://www.w3.org/1999/xlink" x="0px" y="0px"
	 viewBox="0 0 512 512" style="enable-background:new 0 0 512 512;" xml:space="preserve">
<g>
	<path style="fill:#EC9821;" d="M310.706,248.672c-11.733-4.528-24.213-6.831-36.787-6.797h-34.578
		c-12.565-0.008-25.029,2.268-36.787,6.712c-8.725,3.305-16.958,7.791-24.468,13.338c-29.098,3.602-54.951,20.313-70.175,45.368
		l-0.51-0.255c-28.937-52.3-14.995-117.922,32.709-153.944c-1.155-5.242-1.589-10.611-1.274-15.972
		c1.402-23.652,17.357-43.949,40.015-50.89v53.269c0,42.233,34.23,76.462,76.462,76.462h2.634c42.233,0,76.462-34.23,76.462-76.462
		V86.657c22.021,7.315,37.365,27.306,38.741,50.465c0.314,5.361-0.119,10.73-1.274,15.972
		c47.534,35.878,61.569,101.194,32.964,153.434c-15.369-25.36-41.57-42.224-71.025-45.707l-0.085,0.085
		C326.636,255.809,318.896,251.688,310.706,248.672z"/>
	<path style="fill:#EC9821;" d="M281.991,18.946c-13.848,44.008-49.616,64.483-103.139,66.012c0-42.233,34.23-76.462,76.462-76.462
		h2.634c8.87-0.017,17.671,1.538,25.997,4.588l-1.359,4.078C282.424,17.765,282.22,18.368,281.991,18.946z"/>
	<path style="fill:#EC9821;" d="M334.41,84.958c-40.27-6.372-51.145-35.767-52.419-66.012c0.238-0.578,0.433-1.181,0.595-1.784
		l1.359-4.078C314.232,24.009,334.418,52.759,334.41,84.958z"/>
</g>
<g>
	<path style="fill:#F5D0C7;" d="M334.41,86.657v52.844c0,42.233-34.23,76.462-76.462,76.462h-2.634
		c-42.233,0-76.462-34.23-76.462-76.462V84.958c53.524-1.529,89.291-22.004,103.139-66.012
		c1.274,30.245,12.149,59.641,52.419,66.012V86.657z"/>
	<path style="fill:#F5D0C7;" d="M310.706,248.672l-54.033,49.361l-54.118-49.446c11.758-4.443,24.222-6.72,36.787-6.712h34.578
		C286.493,241.842,298.965,244.144,310.706,248.672z"/>
</g>
<rect x="241.518" y="304.301" transform="matrix(-0.7071 0.7071 -0.7071 -0.7071 664.0201 363.8348)" style="fill:#00448F;" width="30.279" height="30.279"/>
<g>
	<path style="fill:#E6E6E6;" d="M339.337,265.154l-48.086,68.136l-13.168-13.848l-21.409-21.409l54.033-49.361
		c8.19,3.016,15.938,7.136,23.024,12.234C335.684,262.198,337.562,263.616,339.337,265.154z"/>
	<path style="fill:#E6E6E6;" d="M178.087,261.926c7.51-5.548,15.743-10.034,24.468-13.338l54.118,49.446l-21.409,21.409
		l-14.613,13.848l-46.727-68.221C175.283,264.05,176.643,262.945,178.087,261.926z"/>
	<path style="fill:#E6E6E6;" d="M173.924,265.069c-20.56,16.72-33.941,40.669-37.382,66.947c-0.85,7.425-0.85,14.919,0,22.344
		l8.666,120.386l-9.091,33.304H94.913V355.125c-0.068-16.822,4.426-33.355,12.999-47.831c15.224-25.054,41.077-41.765,70.175-45.368
		C176.643,262.945,175.283,264.05,173.924,265.069z"/>
	<path style="fill:#E6E6E6;" d="M339.337,265.154c-1.776-1.538-3.645-2.957-5.607-4.248l0.085-0.085
		c29.455,3.483,55.656,20.347,71.025,45.707c9.269,15.012,14.154,32.318,14.103,49.955l-1.189,151.565h-50.805l-5.862-33.304
		l14.953-116.393C381.417,322.951,367.407,287.379,339.337,265.154z"/>
</g>
<path style="fill:#F3F3F3;" d="M371.961,311.541c4.919,15.089,6.312,31.103,4.078,46.812l-14.953,116.393l5.862,33.304H136.118
	l9.091-33.304l-8.666-120.386c-0.85-7.425-0.85-14.919,0-22.344c3.441-26.278,16.822-50.227,37.382-66.947l46.727,68.221
	l14.613-13.848l21.409,21.409l21.409-21.409l13.169,13.848l48.086-68.136C354.324,277.269,365.632,293.335,371.961,311.541z"/>
<path d="M86.417,355.125v152.925h16.992V355.125c-0.161-31.384,17.153-60.261,44.917-74.899
	c-10.858,14.97-17.799,32.403-20.212,50.737c-0.935,7.961-0.952,16.006-0.042,23.967l8.496,119.009l-9.099,33.601l16.397,4.46
	l9.507-34.994c0.255-0.926,0.348-1.886,0.28-2.838l-8.615-120.7c-0.799-6.746-0.816-13.568-0.042-20.313
	c2.744-20.968,12.438-40.415,27.535-55.223l41.145,60.201c1.41,2.056,3.645,3.381,6.117,3.645c0.28,0.034,0.569,0.051,0.85,0.051
	c2.183-0.008,4.282-0.841,5.862-2.345l8.589-8.147l15.53,15.522c3.313,3.313,8.7,3.313,12.013,0l15.216-15.224l7.179,7.578
	c1.606,1.691,3.832,2.651,6.159,2.651c0.204,0,0.416,0,0.62,0c2.54-0.187,4.86-1.495,6.329-3.577l42.64-60.473
	c10.407,10.237,18.325,22.743,23.126,36.532c4.545,13.84,5.811,28.546,3.687,42.963l-14.902,116.393
	c-0.11,0.85-0.093,1.708,0.059,2.549l5.845,33.278l16.728-2.94l-5.616-32.004l14.732-115.161c4.333-28.3-2.863-57.16-19.982-80.107
	c28.317,15.326,45.962,44.943,45.962,77.142l-1.164,151.523l16.992,0.136l1.164-151.599c-0.008-17.561-4.452-34.841-12.905-50.236
	c26.813-53.609,12.965-118.644-33.372-156.671c0.62-4.307,0.799-8.666,0.535-13.007c-1.597-24.366-16.601-45.835-38.945-55.699
	C340.561,35.657,303.273,0.059,257.973,0h-2.634c-45.087,0.059-82.273,35.334-84.72,80.353
	c-23.041,9.549-38.656,31.35-40.287,56.234c-0.263,4.341-0.085,8.691,0.535,12.999c-46.727,38.35-60.371,104.091-32.768,157.869
	C90.376,322.153,86.366,338.524,86.417,355.125z M222.053,320.292l-36.396-53.167c4.809-3.288,9.906-6.134,15.233-8.496
	l43.482,39.701l-14.961,14.953l0,0L222.053,320.292z M256.665,286.538l-37.22-33.983c6.533-1.436,13.202-2.175,19.897-2.2h34.569
	c6.712,0.017,13.398,0.748,19.948,2.175L256.665,286.538z M256.665,328.805l-9.345-9.345l9.345-9.345l9.345,9.345L256.665,328.805z
	 M290.257,319.961l-6.049-6.38l0,0c-0.059-0.059-0.076-0.136-0.127-0.195l-15.106-15.097l43.524-39.743
	c5.284,2.336,10.348,5.157,15.131,8.411L290.257,319.961z M187.373,93.029c42.479-2.838,72.869-18.181,90.718-45.741
	c6.295,22.641,24.799,39.803,47.848,44.382v47.797c-0.042,37.518-30.449,67.924-67.966,67.966h-2.634
	c-37.518-0.042-67.924-30.449-67.966-67.966L187.373,93.029z M325.005,74.007c-20.296-6.652-31.214-22.403-33.915-48.35
	c18.062,10.127,30.525,27.917,33.881,48.35H325.005z M255.339,16.992h2.634c5.089,0.017,10.152,0.603,15.106,1.75
	c-12.022,35.003-39.888,53.829-85.043,57.236C192.555,42.25,221.305,17.051,255.339,16.992z M101.123,242.131
	c2.005-32.547,18.147-62.597,44.178-82.239c2.659-2.022,3.883-5.412,3.135-8.666c-4.673-20.203,4.188-41.12,21.953-51.824v40.015
	c0.051,46.897,38.061,84.907,84.958,84.958h2.634c46.897-0.051,84.907-38.061,84.958-84.958v-39.166
	c16.907,10.968,25.148,31.333,20.645,50.975c-0.731,3.262,0.518,6.652,3.194,8.657c39.964,30.186,54.9,83.301,36.532,129.892
	c-16.694-20.263-40.423-33.473-66.437-36.999c-18.563-12.633-40.491-19.396-62.945-19.413h-34.586
	c-23.075,0.017-45.572,7.179-64.407,20.5c-25.793,3.662-49.284,16.847-65.843,36.965C102.822,275.4,100.104,258.757,101.123,242.131
	z"/>
<g>
</g>
<g>
</g>
<g>
</g>
<g>
</g>
<g>
</g>
<g>
</g>
<g>
</g>
<g>
</g>
<g>
</g>
<g>
</g>
<g>
</g>
<g>
</g>
<g>
</g>
<g>
</g>
<g>
</g>
</svg>
