<?xml version="1.0" encoding="iso-8859-1"?>
<!-- Generator: Adobe Illustrator 19.0.0, SVG Export Plug-In . SVG Version: 6.00 Build 0)  -->
<svg version="1.1" id="Capa_1" xmlns="http://www.w3.org/2000/svg" xmlns:xlink="http://www.w3.org/1999/xlink" x="0px" y="0px"
	 viewBox="0 0 512 512" style="enable-background:new 0 0 512 512;" xml:space="preserve">
<g>
	<path style="fill:#EC9821;" d="M283.742,13.141l-1.365,4.096c-25.557,38.443-61.764,68.599-104.192,86.784V85.333
		c0-42.419,34.381-76.8,76.8-76.8h2.645C266.539,8.525,275.379,10.078,283.742,13.141z"/>
	<path style="fill:#EC9821;" d="M334.43,85.333v9.984c-30.131-14.771-50.005-44.587-52.053-78.08l1.365-4.096
		C314.163,24.115,334.438,52.992,334.43,85.333z"/>
</g>
<g>
	<path style="fill:#F5D0C7;" d="M334.43,95.317v44.715c0,42.419-34.381,76.8-76.8,76.8h-2.645c-42.419,0-76.8-34.381-76.8-76.8
		v-36.011c42.428-18.185,78.635-48.341,104.192-86.784C284.425,50.731,304.299,80.546,334.43,95.317z"/>
	<path style="fill:#F5D0C7;" d="M311.475,248.064l-0.768,1.621l-54.357,49.664l-54.443-49.664l-1.451-3.669
		c12.041-4.71,24.866-7.117,37.803-7.083h30.549C283.52,238.899,298.069,242.014,311.475,248.064z"/>
</g>
<g>
	<path style="fill:#EBEBEB;" d="M172.553,262.827c-0.256,0-0.512,0.085-0.768,0.085c8.61-7.1,18.287-12.809,28.672-16.896
		l1.451,3.669l54.443,49.664l-21.504,21.504l-14.677,13.909l-46.933-68.523L172.553,262.827z"/>
	<path style="fill:#EBEBEB;" d="M334.089,262.059c1.783,1.357,3.49,2.807,5.12,4.352l-48.213,68.352l-13.227-13.909l-21.419-21.504
		l54.357-49.664l0.768-1.621C319.607,251.691,327.211,256.401,334.089,262.059z"/>
</g>
<g>
	<path style="fill:#F3F3F3;" d="M241.843,327.851L242.185,512H134.067V343.125c-0.026-31.027,13.807-60.442,37.717-80.213
		c0.256,0,0.512-0.085,0.768-0.085l0.683,3.413l46.933,68.523l14.677-13.909L241.843,327.851z"/>
	<path style="fill:#F3F3F3;" d="M171.785,262.912c-23.91,19.772-37.743,49.186-37.717,80.213V512H92.681V358.059
		C92.706,311.441,125.952,271.454,171.785,262.912z"/>
	<path style="fill:#F3F3F3;" d="M339.209,266.411c-1.63-1.545-3.337-2.995-5.12-4.352c48.597,5.82,85.18,47.053,85.163,96V512
		h-46.251V343.125C373.035,313.941,360.764,286.089,339.209,266.411z"/>
	<path style="fill:#F3F3F3;" d="M271.113,512V331.264l-1.877-1.877l8.533-8.533l13.227,13.909l48.213-68.352
		c21.555,19.678,33.826,47.531,33.792,76.715V512H271.113z"/>
</g>
<g>
	<polygon style="fill:#00448F;" points="256.35,299.349 277.769,320.853 269.235,329.387 256.35,342.272 241.843,327.851 
		234.846,320.853 	"/>
	<polygon style="fill:#00448F;" points="271.113,324.267 271.113,512 242.185,512 241.843,327.851 256.35,342.272 269.235,329.387 	
		"/>
</g>
<g>
	<rect x="364.467" y="343.125" style="fill:#D3D3D3;" width="17.067" height="168.875"/>
	<polyline style="fill:#D3D3D3;" points="142.601,343.125 142.601,512 125.534,512 125.534,343.125 	"/>
</g>
<path d="M254.985,225.399h2.645c47.104-0.051,85.282-38.229,85.333-85.333V85.333C342.912,38.229,304.734,0.051,257.63,0h-2.645
	c-47.104,0.051-85.282,38.229-85.333,85.333v54.733C169.702,187.17,207.881,225.348,254.985,225.399z M325.615,79.829
	C307.994,67.2,296.081,48.111,292.48,26.735C311.467,38.033,323.814,57.813,325.615,79.829z M254.985,17.067h2.645
	c4.429,0.009,8.841,0.444,13.184,1.306c-21.717,30.618-50.586,55.467-84.096,72.38v-5.419
	C186.761,47.65,217.301,17.109,254.985,17.067z M186.718,109.491c35.738-16.102,66.961-40.764,90.914-71.799
	c6.707,26.633,24.192,49.28,48.265,62.507v39.868c-0.043,37.683-30.583,68.224-68.267,68.267h-2.645
	c-37.683-0.043-68.224-30.583-68.267-68.267L186.718,109.491z"/>
<path d="M101.205,358.067c0-30.549,15.821-58.923,41.813-74.982c-11.409,17.937-17.476,38.758-17.485,60.015V512h17.067V343.1
	c0-24.951,9.779-48.905,27.247-66.722l43.281,63.249c1.417,2.065,3.661,3.405,6.153,3.669c0.299,0,0.597,0.043,0.853,0.043
	c2.193,0,4.301-0.836,5.888-2.347l7.296-6.955L233.668,512h17.067l-0.29-163.541c3.328,3.226,8.627,3.183,11.895-0.111l0.265-0.265
	V512h17.067V335.198l5.12,5.444c1.613,1.698,3.849,2.662,6.195,2.662h0.614c2.551-0.188,4.881-1.502,6.357-3.593l42.266-59.955
	c15.59,17.417,24.218,39.97,24.243,63.343V512h17.067V343.1c0.009-22.963-7.04-45.38-20.198-64.205
	c30.242,14.788,49.417,45.508,49.417,79.172V512h17.067V358.067c0.026-52.335-38.46-96.725-90.274-104.107
	c-19.652-15.266-43.827-23.552-68.71-23.561h-30.601c-25.463,0.009-50.159,8.678-70.033,24.593
	c-48.93,10.044-84.045,53.12-84.019,103.074V512h17.067L101.205,358.067z M221.525,321.681l-38.639-56.439
	c4.497-3.2,9.267-5.999,14.251-8.371l46.805,42.735l-15.019,15.027L221.525,321.681z M256.29,330.214l-9.387-9.387l9.387-9.387
	l9.387,9.387L256.29,330.214z M290.039,321.331l-6.076-6.409l0,0c-0.06-0.06-0.077-0.137-0.128-0.196l-15.181-15.121l44.885-40.96
	c5.009,2.679,9.771,5.786,14.234,9.301L290.039,321.331z M268.834,247.467c9.225,0.009,18.398,1.357,27.23,4.002l-39.757,36.309
	l-40.96-37.427c7.484-1.886,15.172-2.85,22.886-2.884H268.834z"/>
<g>
</g>
<g>
</g>
<g>
</g>
<g>
</g>
<g>
</g>
<g>
</g>
<g>
</g>
<g>
</g>
<g>
</g>
<g>
</g>
<g>
</g>
<g>
</g>
<g>
</g>
<g>
</g>
<g>
</g>
</svg>
