<?xml version="1.0" encoding="iso-8859-1"?>
<!-- Generator: Adobe Illustrator 19.0.0, SVG Export Plug-In . SVG Version: 6.00 Build 0)  -->
<svg version="1.1" id="Capa_1" xmlns="http://www.w3.org/2000/svg" xmlns:xlink="http://www.w3.org/1999/xlink" x="0px" y="0px"
	 viewBox="0 0 512 512" style="enable-background:new 0 0 512 512;" xml:space="preserve">
<polygon style="fill:#F3F3F3;" points="375.467,332.8 375.467,503.467 290.133,503.467 264.277,359.424 281.6,341.333 
	332.8,290.133 "/>
<path style="fill:#FFDB6F;" d="M375.467,110.933V281.6h-51.2L307.2,264.533h-17.067V230.4h-17.067
	c37.7,0,68.267-30.566,68.267-68.267V102.4C294.204,102.4,256,64.196,256,17.067V8.533h17.067
	C329.617,8.533,375.467,54.383,375.467,110.933z"/>
<path style="fill:#F5D0C7;" d="M341.333,102.4v59.733c0,37.7-30.566,68.267-68.267,68.267h-34.133
	c-37.7,0-68.267-30.566-68.267-68.267V102.4c47.13,0,85.333-38.204,85.333-85.333C256,64.196,294.204,102.4,341.333,102.4z"/>
<polygon style="fill:#E6E6E6;" points="332.8,290.133 281.6,341.333 256,315.733 307.2,264.533 324.267,281.6 "/>
<polygon style="fill:#F5D0C7;" points="307.2,264.533 256,315.733 204.8,264.533 221.867,264.533 290.133,264.533 "/>
<polygon style="fill:#00448F;" points="264.277,359.424 290.133,503.467 221.867,503.467 247.467,358.4 230.4,341.333 256,315.733 
	281.6,341.333 "/>
<path style="fill:#FFDB6F;" d="M256,8.533v8.533c0,47.13-38.204,85.333-85.333,85.333v59.733c0,37.7,30.566,68.267,68.267,68.267
	h-17.067v34.133H204.8L187.733,281.6h-51.2V110.933c0-56.55,45.85-102.4,102.4-102.4H256z"/>
<polygon style="fill:#E6E6E6;" points="256,315.733 230.4,341.333 179.2,290.133 187.733,281.6 204.8,264.533 "/>
<polygon style="fill:#F3F3F3;" points="247.467,358.4 221.867,503.467 136.533,503.467 136.533,332.8 179.2,290.133 230.4,341.333 
	"/>
<path style="fill:#F5D0C7;" d="M221.867,221.867h68.267c4.71,0,8.533,3.823,8.533,8.533v34.133c0,4.71-3.823,8.533-8.533,8.533
	h-68.267c-4.71,0-8.533-3.823-8.533-8.533V230.4C213.333,225.69,217.156,221.867,221.867,221.867z"/>
<g>
	<rect x="281.6" y="110.933" style="fill:#454545;" width="25.6" height="17.067"/>
	<rect x="204.8" y="110.933" style="fill:#454545;" width="25.6" height="17.067"/>
	<path style="fill:#454545;" d="M264.533,170.667h-17.067c-4.71,0-8.533-3.823-8.533-8.533c0-0.572,0.06-1.143,0.171-1.707
		l8.533-42.667l16.725,3.345l-6.485,32.495h6.656V170.667z"/>
	<path style="fill:#454545;" d="M269.568,204.8h-27.136c-9.975-0.034-19.533-3.994-26.598-11.034L227.9,181.7
		c3.857,3.84,9.062,6.007,14.507,6.033h27.136c5.444-0.026,10.65-2.193,14.507-6.033l12.066,12.066
		C289.058,200.789,279.526,204.757,269.568,204.8z"/>
</g>
<path d="M128,110.933V281.6c0,4.71,3.823,8.533,8.533,8.533h30.601L130.5,326.767c-1.604,1.596-2.5,3.772-2.5,6.033v170.667
	c0,4.71,3.823,8.533,8.533,8.533h238.933c4.71,0,8.533-3.823,8.533-8.533V332.8c0-2.261-0.896-4.437-2.5-6.033l-36.634-36.634
	h30.601c4.71,0,8.533-3.823,8.533-8.533V110.933C383.932,49.698,334.302,0.068,273.067,0h-34.133
	C177.698,0.068,128.068,49.698,128,110.933z M273.067,221.867h-34.133c-32.973-0.034-59.699-26.761-59.733-59.733v-51.584
	c33.476-3.098,62.754-23.834,76.8-54.383c14.046,30.549,43.324,51.285,76.8,54.383v51.584
	C332.766,195.106,306.039,221.833,273.067,221.867z M230.4,238.933h51.2V256h-51.2V238.933z M286.601,273.067L256,303.667
	l-30.601-30.601H286.601z M256,327.799l13.653,13.653l-11.571,12.1c-1.041,1.118-1.758,2.5-2.082,3.994
	c-0.205-1.954-1.067-3.772-2.458-5.163l-11.076-11.051L256,327.799z M281.6,329.267l-13.534-13.534l39.134-39.134l13.534,13.534
	L281.6,329.267z M243.934,315.733L230.4,329.267l-39.134-39.134l13.534-13.534L243.934,315.733z M145.067,336.333l34.133-34.133
	l45.167,45.167l13.926,13.926l-23.586,133.641h-69.641V336.333z M232.038,494.933l23.748-134.554c0,0.196,0,0.401,0.077,0.597
	l24.073,133.956H232.038z M366.933,494.933h-69.666l-23.834-132.702l14.242-14.925l45.124-45.107l34.133,34.133V494.933z
	 M273.067,17.067c51.814,0.06,93.807,42.052,93.867,93.867v162.133h-39.134L313.233,258.5c-0.794-0.802-1.741-1.434-2.79-1.852
	c-1.024-0.427-2.133-0.649-3.243-0.649h-8.533v-21.547c30.643-10.854,51.14-39.808,51.2-72.32V102.4c0-4.71-3.823-8.533-8.533-8.533
	c-42.394-0.051-76.749-34.406-76.8-76.8H273.067z M238.933,17.067h8.533c-0.051,42.394-34.406,76.749-76.8,76.8
	c-4.71,0-8.533,3.823-8.533,8.533v59.733c0.06,32.512,20.557,61.466,51.2,72.32V256H204.8c-1.109,0-2.219,0.222-3.243,0.649
	c-1.05,0.418-1.997,1.05-2.79,1.852l-14.566,14.566h-39.134V110.933C145.126,59.119,187.119,17.126,238.933,17.067z"/>
<rect x="281.6" y="110.933" width="25.6" height="17.067"/>
<rect x="204.8" y="110.933" width="25.6" height="17.067"/>
<path d="M247.467,170.667h17.067V153.6h-6.656l6.485-32.427l-16.725-3.413l-8.533,42.667c-0.939,4.617,2.039,9.122,6.656,10.069
	C246.323,170.607,246.895,170.667,247.467,170.667z"/>
<path d="M269.534,187.733h-27.068c-5.47,0.009-10.709-2.167-14.566-6.042l-12.066,12.083c7.049,7.083,16.64,11.051,26.633,11.025
	h27.068c9.993,0.026,19.584-3.942,26.633-11.025L284.1,181.692C280.243,185.566,275.004,187.742,269.534,187.733z"/>
<g>
</g>
<g>
</g>
<g>
</g>
<g>
</g>
<g>
</g>
<g>
</g>
<g>
</g>
<g>
</g>
<g>
</g>
<g>
</g>
<g>
</g>
<g>
</g>
<g>
</g>
<g>
</g>
<g>
</g>
</svg>
