<?xml version="1.0" encoding="iso-8859-1"?>
<!-- Generator: Adobe Illustrator 19.0.0, SVG Export Plug-In . SVG Version: 6.00 Build 0)  -->
<svg version="1.1" id="Capa_1" xmlns="http://www.w3.org/2000/svg" xmlns:xlink="http://www.w3.org/1999/xlink" x="0px" y="0px"
	 viewBox="0 0 512 512" style="enable-background:new 0 0 512 512;" xml:space="preserve">
<polygon style="fill:#D1A749;" points="503.467,119.467 503.467,503.467 477.867,345.6 477.867,153.6 460.8,153.6 460.8,119.467 "/>
<polygon style="fill:#FFCB5A;" points="477.867,345.6 503.467,503.467 59.733,503.467 8.533,187.733 42.667,187.733 
	452.267,187.733 "/>
<polygon style="fill:#EBBB52;" points="477.867,153.6 503.467,503.467 452.267,187.733 42.667,187.733 42.667,153.6 76.8,153.6 
	162.133,153.6 460.8,153.6 "/>
<polygon style="fill:#E6E6E6;" points="460.8,119.467 460.8,153.6 162.133,153.6 162.133,119.467 162.133,8.533 460.8,8.533 "/>
<polygon style="fill:#D1A749;" points="162.133,119.467 162.133,153.6 76.8,153.6 76.8,119.467 136.533,119.467 "/>
<g>
	<rect x="196.267" y="42.667" style="fill:#454545;" width="230.4" height="17.067"/>
	<rect x="196.267" y="76.8" style="fill:#454545;" width="230.4" height="17.067"/>
	<rect x="196.267" y="110.933" style="fill:#454545;" width="230.4" height="17.067"/>
</g>
<path d="M503.467,110.933h-34.133V8.533c0-4.71-3.823-8.533-8.533-8.533H161.954c-4.71,0-8.533,3.823-8.533,8.533
	c0,0.572,0.068,1.143,0.179,1.707v100.693H76.8c-4.71,0-8.533,3.823-8.533,8.533v25.6h-25.6c-4.71,0-8.533,3.823-8.533,8.533v25.6
	h-25.6c-4.71,0-8.533,3.823-8.533,8.533c0,0.461,0.034,0.913,0.111,1.365l51.2,315.733c0.666,4.13,4.233,7.168,8.422,7.168h443.733
	c1.195-0.009,2.372-0.264,3.456-0.759c0.956-0.631,1.886-1.314,2.782-2.039c0.077-0.085,0.188-0.119,0.264-0.205
	c0.486-0.93,0.981-1.852,1.476-2.782c0.145-0.486,0.247-0.981,0.299-1.485c0.119-0.41,0.205-0.836,0.256-1.263v-384
	C512,114.756,508.177,110.933,503.467,110.933z M494.933,128v269.525L486.4,344.9V153.6c0-4.71-3.823-8.533-8.533-8.533h-8.533V128
	H494.933z M170.667,17.067h281.6v128h-281.6V17.067z M85.333,128H153.6v17.067H85.333V128z M51.2,162.133h418.133v77.525
	l-8.644-53.291c-0.674-4.13-4.241-7.168-8.422-7.168H51.2V162.133z M66.995,494.933L18.56,196.267h426.445l24.329,150.025v3.575
	h0.58l23.526,145.067H66.995z"/>
<rect x="196.267" y="42.667" width="230.4" height="17.067"/>
<rect x="196.267" y="76.8" width="230.4" height="17.067"/>
<rect x="196.267" y="110.933" width="230.4" height="17.067"/>
<g>
</g>
<g>
</g>
<g>
</g>
<g>
</g>
<g>
</g>
<g>
</g>
<g>
</g>
<g>
</g>
<g>
</g>
<g>
</g>
<g>
</g>
<g>
</g>
<g>
</g>
<g>
</g>
<g>
</g>
</svg>
