<?xml version="1.0" encoding="iso-8859-1"?>
<!-- Generator: Adobe Illustrator 19.0.0, SVG Export Plug-In . SVG Version: 6.00 Build 0)  -->
<svg xmlns="http://www.w3.org/2000/svg" xmlns:xlink="http://www.w3.org/1999/xlink" version="1.1" id="Capa_1" x="0px" y="0px" viewBox="0 0 512.701 512.701" style="enable-background:new 0 0 512.701 512.701;" xml:space="preserve">
<path style="fill:#1E81CE;" d="M461.205,391.869l-194.311,111.11c-4.947,2.818-11.01,2.818-15.947,0L56.635,391.869  c-10.756-6.143-10.797-21.644-0.061-27.838l18.339-10.584l175.972-101.611c4.968-2.869,11.091-2.869,16.058,0l175.982,101.611  l18.339,10.584C471.992,370.225,471.961,385.726,461.205,391.869z"/>
<path style="fill:#1A6FB0;" d="M442.926,353.446L266.894,454.094c-4.947,2.828-11.01,2.828-15.947,0L74.914,353.446l175.972-101.611  c4.968-2.869,11.091-2.869,16.058,0L442.926,353.446z"/>
<path style="fill:#5AAAE7;" d="M461.205,310.726l-194.311,111.11c-4.947,2.818-11.01,2.818-15.947,0L56.635,310.726  c-10.756-6.144-10.797-21.644-0.061-27.849l18.339-10.584l175.972-101.601c4.968-2.869,11.091-2.869,16.058,0l175.982,101.601  l18.339,10.584C471.992,289.081,471.961,304.583,461.205,310.726z"/>
<path style="fill:#3D9AE2;" d="M442.926,272.293L266.894,372.951c-4.947,2.818-11.01,2.818-15.947,0L74.914,272.293l175.972-101.601  c4.968-2.869,11.091-2.869,16.058,0L442.926,272.293z"/>
<path style="fill:#78B9EB;" d="M461.205,229.583l-194.311,111.11c-4.947,2.818-11.01,2.818-15.947,0L56.635,229.583  c-10.756-6.154-10.797-21.654-0.061-27.849l15.186-8.769L250.886,89.549c4.968-2.869,11.091-2.869,16.058,0l161.576,93.278  l32.745,18.907C471.992,207.928,471.961,223.428,461.205,229.583z"/>
<path style="fill:#5AAAE7;" d="M428.522,182.826v6.103c0,10.858-5.819,20.884-15.247,26.277L296.75,281.832l-29.349,16.778  c-3.376,1.926-7.512,1.926-10.878,0L71.761,192.964L250.886,89.548c4.968-2.869,11.091-2.869,16.058,0L428.522,182.826z"/>
<path style="fill:#B3D8F4;" d="M425.48,102.058v68.947L293.709,246.35l-29.349,16.778c-3.376,1.926-7.512,1.926-10.878,0  L48.921,146.168c-7.34-4.197-7.36-14.781-0.041-18.998L253.442,9.064c3.386-1.957,7.563-1.957,10.959,0l26.662,15.389  L425.48,102.058z"/>
<path style="fill:#D1E7F8;" d="M425.478,102.064v68.941l-57.51-27.579c-5.661-2.715-5.676-10.769-0.025-13.505L425.478,102.064z"/>
<path d="M52.854,317.325l34.864,19.941l-10.959,6.326c-6.691,3.869-3.962,14.183,3.812,14.183c3.559,0,3.966-1.491,22.435-11.78  l76.054,43.491c1.196,0.679,2.484,1.004,3.771,1.004c2.636,0,5.201-1.369,6.6-3.832c2.088-3.64,0.821-8.283-2.818-10.371  c-29.839-17.061-95.266-54.47-126.206-72.161c-5.664-3.228-5.69-11.401-0.03-14.659l42.65-24.625  c4.853,2.308,10.428-1.085,10.817-6.245c0.243-2.849-1.146-5.718-3.802-7.228l-7.076-4.045l-42.559-24.341  c-5.697-3.263-5.652-11.423-0.03-14.659l40.764-23.54l112.753,64.476c1.196,0.679,2.484,1.004,3.771,1.004  c2.636,0,5.201-1.379,6.6-3.832c2.088-3.65,0.821-8.293-2.818-10.381c-129.712-74.16-39.506-22.59-168.754-96.482  c-2.243-1.284-2.261-4.521-0.01-5.819l51.409-29.673c3.639-2.099,4.886-6.752,2.778-10.391c-2.099-3.639-6.742-4.886-10.381-2.778  L45.078,120.58c-12.378,7.15-12.391,25.051,0.071,32.188l40.713,23.276l-33.09,19.11c-15.802,9.122-15.788,31.973,0.081,41.028  l34.864,19.941l-34.945,20.174C36.969,285.421,36.991,308.274,52.854,317.325z"/>
<path d="M126.637,89.883c3.88,0-2.978,2.449,130.605-74.229c3.206-1.859-0.825-1.636,106.295,59.428  c3.629,2.099,8.283,0.852,10.381-2.788c2.099-3.629,0.852-8.283-2.778-10.381C265.702,2.008,267.875,0.001,258.915,0.001  c-8.88,0-1.116-1.219-136.09,75.699C116.108,79.575,118.879,89.883,126.637,89.883z"/>
<path d="M465.068,357.44l-34.955-20.184l34.864-19.931c7.461-4.268,11.922-11.942,11.922-20.539c0-8.556-4.42-16.21-11.831-20.488  l-34.945-20.174l34.854-19.941c7.461-4.268,11.922-11.942,11.922-20.539c0-8.556-4.42-16.21-11.831-20.489l-31.986-18.47  c0.001-80.496,0.771-76.438-1.784-79.492c-1.638-1.959-0.786-0.789-33.819-20.073c-3.639-2.099-8.293-0.862-10.391,2.778  c-2.099,3.639-0.852,8.293,2.788,10.391l19.378,11.183l-58.624,28.385c-2.628,1.272-4.295,3.938-4.289,6.857  c0.006,2.921,1.683,5.58,4.316,6.842l58.471,28.039c-22.743,13.004-136.771,78.206-148.538,84.935c-1.014,0.578-2.322,0.578-3.335,0  l-9.408-5.373c-3.65-2.088-8.293-0.821-10.371,2.818c-2.088,3.65-0.821,8.293,2.818,10.381l9.418,5.373  c2.798,1.602,5.981,2.453,9.205,2.453c3.234,0,6.417-0.852,9.215-2.453l148.559-84.945l40.774,23.54  c5.636,3.252,5.655,11.404-0.03,14.659c-109.129,62.16-63.086,36.064-194.322,111.1c-2.555,1.46-5.839,1.46-8.394,0l-118.278-67.619  c-3.639-2.088-8.283-0.821-10.371,2.828c-2.088,3.639-0.821,8.283,2.828,10.371l118.278,67.629c3.569,2.038,7.634,3.112,11.74,3.112  c4.116,0,8.181-1.075,11.75-3.112l144.068-82.491l42.731,24.665c5.636,3.252,5.655,11.404-0.03,14.659  c-4.009,2.292-3.293,1.891-194.322,111.11c-2.555,1.46-5.839,1.45-8.394,0l-41.707-23.854c-3.65-2.088-8.293-0.821-10.371,2.828  c-2.088,3.639-0.821,8.293,2.818,10.371l41.717,23.854c3.569,2.038,7.624,3.122,11.74,3.122c4.116,0,8.181-1.085,11.75-3.122  l144.17-82.441l42.629,24.615c5.646,3.258,5.644,11.425-0.03,14.659l-35.776,20.458c-6.753,3.855-3.966,14.203,3.781,14.203  c3.603,0,2.212-0.518,39.537-21.452C480.829,389.411,480.895,366.577,465.068,357.44z M417.876,158.926l-46.417-22.259  l46.417-22.475V158.926z"/>
<path d="M395.258,420.822l-132.146,75.557c-2.555,1.46-5.839,1.46-8.394,0l-24.108-13.787c-3.65-2.088-8.293-0.821-10.371,2.828  c-2.088,3.639-0.821,8.293,2.828,10.371c21.793,11.61,25.714,16.91,35.847,16.91c11.125,0,4.148-0.018,143.896-78.68  c3.639-2.078,4.907-6.732,2.818-10.371C403.552,420.001,398.899,418.734,395.258,420.822z"/>
<path d="M204.212,467.496L60.407,385.268c-5.335-3.04-5.559-10.279-1.237-13.828c3.244-2.666,3.721-7.451,1.054-10.695  c-2.666-3.254-7.451-3.721-10.695-1.054c-12.483,10.214-11.347,30.394,3.325,38.787c151.636,86.258,143.731,83.221,147.576,83.221  C208.215,481.699,210.948,471.343,204.212,467.496z"/>
<g>
</g>
<g>
</g>
<g>
</g>
<g>
</g>
<g>
</g>
<g>
</g>
<g>
</g>
<g>
</g>
<g>
</g>
<g>
</g>
<g>
</g>
<g>
</g>
<g>
</g>
<g>
</g>
<g>
</g>
</svg>
