<?xml version="1.0" encoding="iso-8859-1"?>
<!-- Generator: Adobe Illustrator 19.0.0, SVG Export Plug-In . SVG Version: 6.00 Build 0)  -->
<svg xmlns="http://www.w3.org/2000/svg" xmlns:xlink="http://www.w3.org/1999/xlink" version="1.1" id="Capa_1" x="0px" y="0px" viewBox="0 0 511.909 511.909" style="enable-background:new 0 0 511.909 511.909;" xml:space="preserve">
<path style="fill:#FFA733;" d="M254.653,249.227h-34.848c-40.067,0-72.848-32.782-72.848-72.848V60.453  c0-10.594,8.668-19.262,19.262-19.262h142.022c10.594,0,19.262,8.668,19.262,19.262v115.926  C327.503,216.444,294.72,249.227,254.653,249.227z"/>
<path style="fill:#78B9EB;" d="M497.973,158.657l-22.08,11.699l-43.542,23.084c-4.319,2.291-8.982,3.802-13.787,4.481  c-1.946,0.274-3.913,0.416-5.89,0.416H58.306c-0.679,0-1.358-0.01-2.028-0.041c-8.161-0.324-15.876-2.575-22.648-6.326  c-15.115-8.354-25.547-24.158-25.851-42.518c-0.314-19.171,10.209-35.898,25.851-44.464c6.752-3.7,14.457-5.88,22.648-6.073  c0.406-0.02,0.821-0.02,1.227-0.02h355.178c6.853,0,13.605,1.673,19.657,4.876l43.582,23.064l22.04,11.658  C506.063,142.781,506.063,154.368,497.973,158.657z"/>
<path style="fill:#FF6243;" d="M56.279,98.915v99.381c-26.368-1.034-48.063-22.263-48.499-48.844  c-0.152-9.154,2.18-17.761,6.346-25.182C22.459,109.458,38.172,99.34,56.279,98.915z"/>
<path style="fill:#FF7956;" d="M56.279,98.915v50.922c-17.974-0.71-33.779-10.797-42.153-25.568  C22.459,109.458,38.172,99.34,56.279,98.915z"/>
<path style="fill:#FFC477;" d="M497.973,158.657l-22.08,11.699l-43.542,23.084c-6.062,3.214-12.814,4.897-19.677,4.897h-0.831  l0.193-0.994V98.894h0.649c6.853,0,13.605,1.673,19.657,4.876l43.582,23.064l22.04,11.658  C506.063,142.781,506.063,154.368,497.973,158.657z"/>
<path style="fill:#D8D7DA;" d="M100.773,98.894v99.442H58.306c-0.679,0-1.358-0.01-2.028-0.041V98.915  c0.406-0.02,0.821-0.02,1.227-0.02L100.773,98.894L100.773,98.894z"/>
<polygon style="fill:#3D9AE2;" points="412.035,149.837 412.035,197.343 411.842,198.336 100.773,198.336 100.773,149.837 "/>
<path style="fill:#FFC477;" d="M305.233,7.603h-0.597c-10.628,0-19.574,7.553-21.746,17.556  c-2.172-10.002-11.117-17.556-21.746-17.556h-2.129c-11.111,0-20.387,8.254-22.002,18.932  c-1.616-10.678-10.891-18.932-22.002-18.932h-0.94c-11.462,0-20.971,8.783-22.133,19.951c-1.161-11.168-10.671-19.951-22.133-19.951  h-0.597c-12.239,0-22.252,10.014-22.252,22.252V102.2c0,12.239,10.014,22.253,22.252,22.253h0.597  c11.462,0,20.971-8.783,22.133-19.951c1.161,11.168,10.671,19.951,22.133,19.951h0.94c11.111,0,20.387-8.253,22.002-18.932  c1.616,10.679,10.891,18.932,22.002,18.932h2.129c10.628,0,19.574-7.553,21.746-17.556c2.172,10.002,11.117,17.556,21.746,17.556  h0.597c12.239,0,22.253-10.013,22.253-22.252V29.856C327.485,17.616,317.471,7.603,305.233,7.603z"/>
<path style="fill:#FFB655;" d="M372.601,127.803V65.822c0-16.764-13.716-30.48-30.48-30.48l0,0c-8.042,0-14.623,6.58-14.623,14.623  v52.319c0,4.145-2.961,7.689-7.037,8.447c-56.117,10.439-98.951,59.942-98.951,118.966l0,0c0,10.736,8.784,19.52,19.52,19.52h47.538  c46.229,0,84.054-37.824,84.054-84.054V128.22C372.622,128.079,372.604,127.943,372.601,127.803z"/>
<path style="fill:#C6C5CA;" d="M333.396,263.857v221.187c0,10.594-8.668,19.262-19.262,19.262h-116.22  c-10.594,0-19.262-8.668-19.262-19.262V263.857c0-10.594,8.668-19.262,19.262-19.262h116.22  C324.729,244.595,333.396,253.263,333.396,263.857z"/>
<path style="fill:#E0E0E2;" d="M333.396,331.78v153.263c0,10.594-8.668,19.262-19.262,19.262H210.079V351.042  c0-10.594,8.668-19.262,19.262-19.262H333.396z"/>
<path style="fill:#ACABB1;" d="M172.354,218.402h174.868c15.054,0,27.371,12.316,27.371,27.371v25.391  c0,15.054-12.316,27.371-27.371,27.371H172.354c-15.054,0-27.371-12.316-27.371-27.371v-25.391  C144.983,230.719,157.301,218.402,172.354,218.402z"/>
<path style="fill:#3D9AE2;" d="M475.894,170.358c-5.054-5.824-8.116-13.431-8.116-21.745c0-8.325,3.074-15.942,8.148-21.776  l22.04,11.66c8.094,4.282,8.098,15.875,0.007,20.162L475.894,170.358z"/>
<path style="fill:#ACABB1;" d="M100.773,149.837v48.499H58.306c-0.679,0-1.358-0.01-2.028-0.041v-48.459H100.773z"/>
<path d="M436.051,200.091c-0.026,0.014-0.049,0.025-0.066,0.034C436.005,200.115,436.029,200.103,436.051,200.091z"/>
<path d="M436.145,200.041C436.162,200.032,436.165,200.031,436.145,200.041L436.145,200.041z"/>
<path d="M505.738,134.802c-3.249-3.09-4.565-2.978-26.257-14.69c-0.01,0-0.01-0.01-0.02-0.01l-13.838-7.32  c-3.71-1.967-8.313-0.547-10.27,3.163c-1.967,3.71-0.547,8.313,3.163,10.28l6.377,3.376c-6.28,11.819-6.308,26.087-0.03,37.997  l-36.07,19.12c-2.879,1.531-5.971,2.636-9.154,3.295h-0.001v-82.796h0.001c6.384,1.301,10.153,3.921,11.993,4.785  c3.731,1.966,8.317,0.53,10.28-3.163c1.967-3.71,0.547-8.313-3.163-10.28l-2.849-1.511c-7.127-3.771-15.156-5.758-23.216-5.758  h-32.482V65.825c0-14.522-8.247-28.71-24.128-35.442c-0.03-0.01-0.061-0.03-0.091-0.03c-5.927-2.369-14.583-3.65-20.874-1.47  c-0.02-0.01-0.03,0-0.051,0.01C334.562,12.875,321.372,0,305.233,0h-0.598c-8.84,0-16.788,3.863-22.253,9.976  C276.918,3.863,268.97,0,260.13,0h-0.598c-8.84,0-16.788,3.863-22.263,9.976C231.795,3.863,223.846,0,215.006,0h-0.598  c-8.86,0-16.829,3.883-22.303,10.026C186.631,3.883,178.662,0,169.802,0h-0.598c-16.464,0-29.856,13.392-29.856,29.856v61.435  H57.505c-20.184,0-38.503,10.3-49.006,27.555c-2.19,3.579-1.044,8.262,2.534,10.442c3.618,2.195,8.28,1.039,10.452-2.534  c6.154-10.107,15.957-16.971,27.19-19.333v82.238c-18.086-4.096-31.975-19.454-33.211-38.28c-0.274-4.197-3.903-7.36-8.08-7.096  c-4.197,0.274-7.37,3.893-7.096,8.09c1.906,28.994,25.699,51.916,54.835,53.477c0.102,0.049,0.954,0.106,1.587,0.071  c0.015,0.004,0.03,0.007,0.045,0c1.593,0.031-5.296,0.02,88.229,0.02c1.673,4.238,3.7,8.293,6.042,12.135  c-8.293,6.397-13.645,16.433-13.645,27.697v25.395c0,18.846,14.974,34.256,33.668,34.955V418.61c0,4.207,3.406,7.603,7.603,7.603  s7.603-3.396,7.603-7.603V306.142h54.856c4.207,0,7.603-3.406,7.603-7.603c0-4.207-3.396-7.603-7.603-7.603  c-22.781,0-45.739,0-68.755,0c-0.436,0-0.872-0.01-1.308-0.051c-10.29-0.669-18.461-9.256-18.461-19.718v-25.395  c0-6.285,2.95-11.892,7.532-15.511c3.366-2.666,7.624-4.258,12.236-4.258h5.14h36.466h15.217c29.966,0,94.403,0,118.045,0  c2.646,0,5.17,0.517,7.472,1.48c0.243,0.091,0.487,0.203,0.73,0.314c6.823,3.112,11.567,9.996,11.567,17.974v25.395  c0,10.898-8.871,19.769-19.769,19.769c-22.958,0-54.009,0-75.699,0c-4.197,0-7.603,3.396-7.603,7.603  c0,4.197,3.406,7.603,7.603,7.603h54.268v21.624c0,4.197,3.406,7.603,7.603,7.603c4.197,0,7.603-3.406,7.603-7.603v-21.624h6.225  c19.282,0,34.975-15.693,34.975-34.975v-25.395c0-12.794-6.904-24.006-17.184-30.099c0.03-0.051,0.061-0.101,0.101-0.152  l0.162-1.622c1.666-2.584,3.188-5.242,4.586-7.958h42.808c8.07,0,16.109-1.997,23.246-5.779l0,0c0,0,0.003-0.001,0.006-0.003  c0,0,0.001-0.001,0.002-0.001h-0.001c0.005-0.003,0.013-0.007,0.025-0.013c-0.001,0.001-0.002,0.001-0.003,0.002  c0.003-0.001,0.005-0.003,0.008-0.004c0.008-0.004,0.017-0.009,0.028-0.015c-0.007,0.004-0.013,0.007-0.02,0.011  c0.039-0.021,0.072-0.039,0.098-0.052c-0.004,0.002-0.008,0.004-0.012,0.006c0.015-0.008,0.03-0.016,0.049-0.026  c0.02-0.011,0.036-0.019,0.046-0.024c-0.006,0.003-0.014,0.007-0.023,0.012c1.375-0.729,11.035-5.851,65.409-34.675  C512.969,159.316,515.155,143.807,505.738,134.802z M289.985,91.291V29.856c0-8.08,6.569-14.649,14.649-14.649h0.598  c8.08,0,14.649,6.569,14.649,14.649c0,0.101,0.022,72.466-0.03,73.256c-10.404,1.878-13.355,3.295-13.919,3.295  c-5.395,1.64-9.932,3.321-12.966,4.623C288.183,104.793,290.702,98.78,289.985,91.291z M244.882,91.291V29.856  c0-8.08,6.569-14.649,14.649-14.649h0.598c8.08,0,14.649,6.569,14.649,14.649v61.435c-0.027,10.649,0.273,12.311-0.649,15.207  c-1.835,5.991-7.421,10.351-14,10.351c-0.101-0.034-11.261,0.544-14.598-10.351C244.609,103.596,244.935,101.86,244.882,91.291z   M199.759,29.856c0-8.08,6.579-14.649,14.649-14.649h0.598c8.08,0,14.649,6.569,14.649,14.649c0,3.182,0,69.353,0,72.343  c0,19.085-29.896,19.849-29.896,0C199.759,85.778,199.759,44.746,199.759,29.856z M154.554,91.291V29.856  c0-8.08,6.579-14.649,14.649-14.649h0.598c8.08,0,14.649,6.569,14.649,14.649v61.435c-0.029,11.488,0.228,12.448-0.649,15.207  c-1.835,5.991-7.421,10.351-14,10.351c-0.101-0.034-11.262,0.544-14.598-10.351c-0.01-0.02-0.01-0.041-0.01-0.051  C154.03,102.683,154.835,100.062,154.554,91.291z M108.373,106.498c12.179,0,20.038,0,31.289,0  c3.622,25.057,35.553,34.485,52.443,15.531c11.924,13.382,33.203,13.406,45.164,0.051c5.353,5.981,13.068,9.803,21.675,9.955  c-3.293,2.783-7.025,6.356-10.589,10.199c-14.077,0-129.844,0.019-139.982,0.021L108.373,106.498L108.373,106.498z M93.166,190.733  H63.882v-84.235h29.284V190.733z M215.311,210.796h-42.954c-2.555,0-5.038,0.274-7.441,0.801c-1.176-1.825-2.261-3.71-3.254-5.657  c1.083,0,53.573,0,54.46,0C215.812,207.667,215.559,209.019,215.311,210.796z M227.993,171.278c-0.01,0.01-0.02,0.01-0.01,0.02  c-3.042,5.895-5.687,12.675-5.687,12.784c-0.852,2.154-1.614,4.458-2.314,6.65c-0.163,0-7.125,0-7.022,0  c-33.049,0-72.186,0-104.586,0V157.42c10.138,0.002,120.196,0.021,127.838,0.021C234.202,160.274,230.62,166.11,227.993,171.278z   M360.605,188.949c-2.778,7.928-6.802,15.308-11.8,21.888c-0.527-0.03-1.054-0.041-1.582-0.041H230.689  c4.288-26.119,19.363-51.824,37.885-66.991c0.02-0.02,0.041-0.041,0.061-0.051c10.615-9.491,27.032-18.915,44.17-23.479  c0.03-0.02,0.061-0.03,0.101-0.03c14.302-3.908,16.093-1.902,19.657-4.947c0.01,0,0.02-0.02,0.02-0.02  c1.233-1.137,1.51-1.895,1.997-2.869c0.01-0.01,0.01-0.03,0.01-0.03c0.827-2.081,0.376-4.203,0.507-5.88c0-9.994,0-41.966,0-56.539  c0-1.511,0.487-2.92,1.318-4.065c2.665-3.808,7.987-3.288,12.47-1.926c0.02,0,0.03,0.01,0.051,0.02  c7.235,2.174,12.879,8.108,15.024,15.045c0.01,0,0.01,0,0,0.01c1.728,5.584,0.782,10.831,1.034,17.447  C364.55,165.062,366.895,171.148,360.605,188.949z M404.431,190.733h-28.366c5.257-17.058,3.949-30.045,4.137-33.293h24.228  L404.431,190.733L404.431,190.733z M404.431,142.234h-24.228v-35.736h24.228V142.234z M494.415,151.935l-16.119,8.546  c-3.898-7.485-3.897-16.331,0.03-23.773l16.079,8.506C497.116,146.652,497.107,150.515,494.415,151.935z"/>
<path d="M435.95,200.146c-0.007,0.004-0.013,0.007-0.021,0.011C435.933,200.154,435.941,200.15,435.95,200.146z"/>
<path d="M333.396,350.576c-4.197,0-7.603,3.406-7.603,7.603v126.865c0,6.427-5.231,11.658-11.658,11.658h-116.22  c-6.427,0-11.658-5.231-11.658-11.658v-36.02c0-4.197-3.406-7.603-7.603-7.603s-7.603,3.406-7.603,7.603v36.02  c0,14.811,12.054,26.865,26.865,26.865h116.22c14.811,0,26.865-12.054,26.865-26.865V358.179  C340.999,353.982,337.594,350.576,333.396,350.576z"/>
<g>
</g>
<g>
</g>
<g>
</g>
<g>
</g>
<g>
</g>
<g>
</g>
<g>
</g>
<g>
</g>
<g>
</g>
<g>
</g>
<g>
</g>
<g>
</g>
<g>
</g>
<g>
</g>
<g>
</g>
</svg>
