<?xml version="1.0" encoding="iso-8859-1"?>
<!-- Generator: Adobe Illustrator 19.0.0, SVG Export Plug-In . SVG Version: 6.00 Build 0)  -->
<svg xmlns="http://www.w3.org/2000/svg" xmlns:xlink="http://www.w3.org/1999/xlink" version="1.1" id="Capa_1" x="0px" y="0px" viewBox="0 0 512.973 512.973" style="enable-background:new 0 0 512.973 512.973;" xml:space="preserve">
<path style="fill:#FFDE55;" d="M302.614,26.865v55.758c0,10.594-8.668,19.262-19.262,19.262h-53.73  c-10.594,0-19.262-8.668-19.262-19.262V26.865c0-10.594,8.668-19.262,19.262-19.262h53.73  C293.946,7.603,302.614,16.271,302.614,26.865z"/>
<path style="fill:#FFCD00;" d="M295.01,149.533h-77.047c-10.594,0-19.262-8.668-19.262-19.262V93.775  c0-10.594,8.668-19.262,19.262-19.262h77.047c10.594,0,19.262,8.668,19.262,19.262v36.496  C314.272,140.865,305.604,149.533,295.01,149.533z"/>
<rect x="235.876" y="74.513" style="fill:#FFDE55;" width="41.227" height="43.593"/>
<path style="fill:#DDB200;" d="M327.451,134.833v351.275c0,10.493-8.495,19.09-18.948,19.252c-0.101,0.01-0.213,0.01-0.314,0.01  H204.784c-0.101,0-0.213,0-0.314-0.01c-10.452-0.162-18.948-8.759-18.948-19.252V134.833c0-9.236,7.492-16.727,16.727-16.727  h108.475C319.959,118.105,327.451,125.597,327.451,134.833z"/>
<path style="fill:#EEBF00;" d="M327.451,134.833v274.735h-89.213c-0.101,0-0.213,0-0.314-0.01  c-10.452-0.162-18.948-8.759-18.948-19.252v-272.2h91.747C319.959,118.105,327.451,125.597,327.451,134.833z"/>
<path style="fill:#FFDA44;" d="M327.451,445.557v40.551c0,10.493-8.495,19.09-18.948,19.252c-0.101,0.01-0.213,0.01-0.314,0.01  H204.784c-0.101,0-0.213,0-0.314-0.01c-10.452-0.162-18.948-8.759-18.948-19.252v-40.551H327.451z"/>
<path style="fill:#FFD422;" d="M284.872,118.105v107.461c0,8.921-7.299,16.221-16.22,16.221s-16.221-7.299-16.221-16.221V118.105  H284.872z"/>
<path style="fill:#FFDE55;" d="M284.872,118.105v75.02c0,8.921-7.299,16.221-16.22,16.221s-16.221-7.299-16.221-16.221v-75.02  H284.872z"/>
<path d="M327.451,311.535c-4.197,0-7.603,3.406-7.603,7.603v118.815H193.125v-64.537c0-4.197-3.406-7.603-7.603-7.603  s-7.603,3.406-7.603,7.603v112.692c0,14.811,12.054,26.865,26.865,26.865h103.406c14.811,0,26.865-12.054,26.865-26.865v-166.97  C335.055,314.941,331.648,311.535,327.451,311.535z M319.848,486.108c0,6.256-4.96,11.365-11.152,11.633V474.28  c0-4.2-3.404-7.603-7.603-7.603c-4.199,0-7.603,3.403-7.603,7.603v23.486h-14.531V474.28c0-4.2-3.404-7.603-7.603-7.603  c-4.199,0-7.603,3.403-7.603,7.603v23.486h-14.531V474.28c0-4.2-3.404-7.603-7.603-7.603s-7.603,3.403-7.603,7.603v23.486h-14.532  V474.28c0-4.2-3.404-7.603-7.603-7.603s-7.603,3.403-7.603,7.603v23.461c-6.191-0.269-11.152-5.376-11.152-11.633V453.16h126.723  V486.108z"/>
<path d="M321.875,113.219V93.775c0-9.175-4.623-17.285-11.658-22.131V49.665c0-4.207-3.406-7.603-7.603-7.603  s-7.603,3.396-7.603,7.603V66.91H277.1c-7.205,0-52.621,0-59.137,0V26.865c0-6.427,5.231-11.658,11.658-11.658h53.73  c4.704,0,8.921,2.818,10.756,7.188c1.632,3.873,6.083,5.687,9.955,4.065c3.873-1.632,5.697-6.093,4.065-9.955  C303.911,6.478,294.189,0,283.352,0h-53.73c-14.811,0-26.865,12.054-26.865,26.865v44.779c-7.036,4.846-11.658,12.956-11.658,22.131  v19.444c-7.816,4.045-13.179,12.216-13.179,21.614v208.17c0,4.197,3.406,7.603,7.603,7.603s7.603-3.406,7.603-7.603  c0-6.819,0-195.486,0-208.17c0-5.028,4.096-9.124,9.124-9.124c16.042,0,28.589,0,42.579,0c0,10.6,0,89.169,0,99.857  c0,13.137,10.687,23.824,23.824,23.824c13.137,0,23.824-10.687,23.824-23.824v-29.528c0-4.2-3.404-7.603-7.603-7.603  c-4.199,0-7.603,3.403-7.603,7.603v29.528c0,4.752-3.866,8.617-8.617,8.617s-8.617-3.866-8.617-8.617c0-10.688,0-89.259,0-99.857  c6.689,0,11.045,0,17.234,0v39.916c0,4.2,3.404,7.603,7.603,7.603c4.199,0,7.603-3.403,7.603-7.603v-39.916  c6.24,0,12.929,0,18.248,0c5.028,0,9.124,4.096,9.124,9.124c0,20.251,0,137.377,0,153.892c0,4.207,3.406,7.603,7.603,7.603  c4.197,0,7.603-3.396,7.603-7.603V134.833C335.055,125.435,329.692,117.264,321.875,113.219z M228.27,110.502h-21.966  c0-3.907,0-13.328,0-16.727c0-6.427,5.231-11.658,11.658-11.658h10.307L228.27,110.502L228.27,110.502z M269.496,110.502  c-1.079,0-25.07,0-26.021,0V82.116h26.021L269.496,110.502L269.496,110.502z M306.669,110.502c-8.654,0-14.022,0-21.966,0V82.116  h10.307c6.427,0,11.658,5.231,11.658,11.658C306.669,97.987,306.669,106.182,306.669,110.502z"/>
<g>
</g>
<g>
</g>
<g>
</g>
<g>
</g>
<g>
</g>
<g>
</g>
<g>
</g>
<g>
</g>
<g>
</g>
<g>
</g>
<g>
</g>
<g>
</g>
<g>
</g>
<g>
</g>
<g>
</g>
</svg>
