<?xml version="1.0" encoding="iso-8859-1"?>
<!-- Generator: Adobe Illustrator 19.0.0, SVG Export Plug-In . SVG Version: 6.00 Build 0)  -->
<svg xmlns="http://www.w3.org/2000/svg" xmlns:xlink="http://www.w3.org/1999/xlink" version="1.1" id="Capa_1" x="0px" y="0px" viewBox="0 0 512.446 512.446" style="enable-background:new 0 0 512.446 512.446;" xml:space="preserve">
<path style="fill:#D8D7DA;" d="M493.683,380.537H18.763c-6.197,0-11.183-5.16-10.904-11.351c0.442-9.806,1.453-19.466,2.999-28.947  c0.811-5.028,1.784-10.006,2.91-14.923c2.494-11.03,5.738-21.786,9.661-32.218c0.882-2.372,1.815-4.734,2.778-7.076  c0.963-2.342,1.967-4.674,3.001-6.975c4.603-10.3,9.895-20.235,15.815-29.734c2.676-4.309,5.495-8.526,8.425-12.652  c6.519-9.175,13.635-17.883,21.32-26.064c1.734-1.855,3.487-3.68,5.282-5.474c1.784-1.794,3.599-3.558,5.444-5.302  c8.161-7.715,16.849-14.892,26.003-21.452c4.116-2.95,8.323-5.779,12.622-8.475c9.479-5.971,19.404-11.314,29.694-15.967  c2.311-1.044,4.633-2.058,6.975-3.031c2.342-0.973,4.694-1.906,7.066-2.808c10.442-3.974,21.218-7.259,32.279-9.813  c4.917-1.135,9.894-2.119,14.923-2.96c10.959-1.835,22.161-2.94,33.566-3.275c2.524-0.081,5.059-0.122,7.603-0.122  s5.079,0.041,7.603,0.122c11.405,0.335,22.607,1.44,33.576,3.275c5.028,0.841,10.006,1.825,14.923,2.97  c11.06,2.545,21.837,5.829,32.269,9.803c2.372,0.902,4.724,1.835,7.066,2.808s4.663,1.987,6.975,3.031  c10.29,4.653,20.215,9.996,29.694,15.967c4.309,2.697,8.516,5.525,12.632,8.485c9.144,6.559,17.832,13.727,25.993,21.441  c1.845,1.744,3.66,3.508,5.444,5.302c1.794,1.794,3.548,3.619,5.282,5.474c7.684,8.181,14.801,16.89,21.32,26.064  c2.94,4.126,5.748,8.354,8.435,12.662c5.91,9.499,11.202,19.424,15.805,29.724c1.034,2.301,2.038,4.633,3.001,6.975  c0.963,2.342,1.896,4.704,2.778,7.076c3.923,10.432,7.167,21.188,9.661,32.228c1.125,4.917,2.099,9.895,2.91,14.923  c1.546,9.473,2.557,19.131,2.999,28.936C504.866,375.377,499.881,380.537,493.683,380.537z"/>
<path style="fill:#C6C5CA;" d="M277.512,132.82c-6.711,0.568-13.341,1.399-19.88,2.494c-5.028,0.841-10.006,1.825-14.923,2.96  c-11.06,2.555-21.837,5.839-32.279,9.813c-2.372,0.902-4.724,1.835-7.066,2.808c-2.342,0.973-4.663,1.987-6.975,3.031  c-10.29,4.653-20.215,9.996-29.694,15.967c-4.298,2.697-8.506,5.525-12.622,8.475c-9.154,6.559-17.843,13.737-26.003,21.452  c-1.845,1.744-3.66,3.508-5.444,5.302c-1.794,1.794-3.548,3.619-5.282,5.474c-7.684,8.181-14.801,16.89-21.32,26.064  c-2.93,4.126-5.748,8.343-8.425,12.652c-5.92,9.499-11.212,19.434-15.815,29.734c-1.034,2.301-2.038,4.633-3.001,6.975  c-0.963,2.342-1.896,4.704-2.778,7.076c-3.923,10.432-7.167,21.188-9.661,32.218c-1.125,4.917-2.099,9.895-2.91,14.923  c-1.541,9.479-2.555,19.14-3.001,28.943c-0.274,6.194,4.704,11.354,10.908,11.354H18.765c-6.204,0-11.182-5.16-10.908-11.354  c0.446-9.803,1.46-19.465,3.001-28.943c0.811-5.028,1.784-10.006,2.91-14.923c2.494-11.03,5.738-21.786,9.661-32.218  c0.882-2.372,1.815-4.734,2.778-7.076c0.963-2.342,1.967-4.674,3.001-6.975c4.603-10.3,9.895-20.235,15.815-29.734  c2.676-4.309,5.495-8.526,8.425-12.652c6.519-9.175,13.635-17.883,21.32-26.064c1.734-1.855,3.487-3.68,5.282-5.474  c1.784-1.794,3.599-3.558,5.444-5.302c8.161-7.715,16.849-14.892,26.003-21.452c4.116-2.95,8.323-5.779,12.622-8.475  c9.479-5.971,19.404-11.314,29.694-15.967c2.311-1.044,4.633-2.058,6.975-3.031s4.694-1.906,7.066-2.808  c10.442-3.974,21.218-7.259,32.279-9.813c4.917-1.135,9.894-2.119,14.923-2.96c10.959-1.835,22.161-2.94,33.566-3.275  c2.524-0.081,5.059-0.122,7.603-0.122c2.545,0,5.079,0.041,7.603,0.122C268.419,132.171,272.991,132.434,277.512,132.82z"/>
<path d="M493.272,283.135C423.916,114.462,197.981,66.104,68.02,206.682c-2.851,3.083-2.661,7.893,0.423,10.745  c3.083,2.85,7.893,2.662,10.745-0.423c0.315-0.342,0.643-0.68,0.962-1.021c24.823,24.819,117.395,117.406,118.257,118.238  c-3.202,3.545-6.049,7.355-8.53,11.375L36.241,281.955c4.391-9.781,9.457-19.27,15.126-28.398  c42.5,27.852,40.736,28.458,44.875,28.458c7.496,0,10.471-9.756,4.233-13.925l-40.687-27.197c0.253-0.356,0.495-0.72,0.75-1.075  c2.455-3.406,1.683-8.159-1.724-10.613c-3.404-2.454-8.157-1.684-10.613,1.724C17.961,272.897,0,324.577,0,380.541  c0,4.2,3.403,7.603,7.603,7.603c378.598,0.038,280.776,0,343.745,0c4.2,0,7.603-3.403,7.603-7.603c0-4.2-3.403-7.603-7.603-7.603  h-17.675c-0.842-4.767-2.122-9.419-3.812-13.906l152.124-63.014c3.779,10.075,6.862,20.349,9.241,30.788l-47.506,9.448  c-4.119,0.819-6.793,4.822-5.974,8.94c0.822,4.14,4.848,6.792,8.94,5.974l47.448-9.437c1.661,10.275,2.666,20.686,2.99,31.207  H381.762c-4.2,0-7.603,3.403-7.603,7.603c0,4.2,3.403,7.603,7.603,7.603h123.081c4.2,0,7.603-3.403,7.603-7.603  C512.446,346.819,505.995,314.046,493.272,283.135z M179.463,372.939H15.323c0.323-10.524,1.329-20.94,2.991-31.216l48.115,9.578  c0.501,0.1,1,0.148,1.492,0.148c3.553,0,6.729-2.503,7.449-6.12c0.82-4.118-1.854-8.121-5.973-8.941l-48.174-9.589  c2.378-10.435,5.46-20.705,9.239-30.777l152.723,63.264C181.541,363.692,180.289,368.259,179.463,372.939z M384.118,176.21  l-26.897,40.253c-3.397,5.086,0.317,11.829,6.315,11.829c2.454,0,4.863-1.186,6.329-3.38l26.874-40.219  c8.686,6.248,16.971,13.09,24.823,20.51c-123.468,123.325-118.06,117.855-118.535,118.433c-3.727-2.751-7.663-5.16-11.776-7.194  l64.466-155.474C365.555,165.428,375.031,170.515,384.118,176.21z M263.826,139.656c10.823,0.333,21.532,1.378,32.093,3.125  l-9.462,47.541c-0.82,4.119,1.854,8.121,5.973,8.941c4.101,0.818,8.118-1.84,8.941-5.973l9.463-47.55  c10.457,2.424,20.749,5.555,30.841,9.387l-64.66,155.946c-4.3-1.16-8.707-1.972-13.189-2.385V139.656z M201.62,145.737l9.484,47.683  c0.822,4.14,4.848,6.792,8.94,5.974c4.119-0.819,6.793-4.822,5.974-8.94l-9.483-47.675c10.559-1.747,21.264-2.791,32.084-3.123  v169.108c-4.367,0.442-8.664,1.25-12.855,2.402l-64.982-156.044C180.873,151.292,191.164,148.161,201.62,145.737z M90.88,205.206  c7.857-7.423,16.144-14.268,24.836-20.518l27.09,40.539c1.465,2.194,3.874,3.38,6.328,3.38c1.453,0,2.92-0.416,4.217-1.283  c3.491-2.333,4.43-7.054,2.096-10.545l-27.113-40.573c9.088-5.695,18.564-10.783,28.404-15.243l64.814,155.635  c-4.177,2.089-8.171,4.567-11.942,7.399C209.213,323.502,90.985,205.309,90.88,205.206z M194.969,372.939  c6.331-28.273,31.929-49.38,61.598-49.38c29.67,0,55.268,21.107,61.598,49.38H194.969z M323.113,345.368  c-2.55-4.101-5.488-7.976-8.788-11.577l117.967-117.811c7.383,7.886,14.187,16.197,20.394,24.907l-40.235,26.887  c-3.491,2.333-4.43,7.055-2.096,10.545c2.321,3.474,7.036,4.442,10.545,2.096l40.213-26.873c5.646,9.096,10.682,18.576,15.09,28.412  L323.113,345.368z"/>
<g>
</g>
<g>
</g>
<g>
</g>
<g>
</g>
<g>
</g>
<g>
</g>
<g>
</g>
<g>
</g>
<g>
</g>
<g>
</g>
<g>
</g>
<g>
</g>
<g>
</g>
<g>
</g>
<g>
</g>
</svg>
