<?xml version="1.0" encoding="iso-8859-1"?>
<!-- Generator: Adobe Illustrator 19.0.0, SVG Export Plug-In . SVG Version: 6.00 Build 0)  -->
<svg xmlns="http://www.w3.org/2000/svg" xmlns:xlink="http://www.w3.org/1999/xlink" version="1.1" id="Capa_1" x="0px" y="0px" viewBox="0 0 512 512" style="enable-background:new 0 0 512 512;" xml:space="preserve">
<path style="fill:#3D9AE2;" d="M315.029,131.986v337.275c0,19.401-15.729,35.13-35.14,35.13h-47.766  c-19.411,0-35.14-15.729-35.14-35.13V131.956c0-3.813,0.436-7.596,1.298-11.277c0.963-4.178,2.475-8.235,4.503-12.048l27.372-78.039  l5.791-10.943c8.275-15.628,30.262-16.074,39.298-1.318c0.264,0.426,0.517,0.862,0.75,1.308l5.831,10.993l27.392,77.988  c2.028,3.823,3.539,7.87,4.513,12.058C314.593,124.37,315.029,128.163,315.029,131.986z"/>
<path style="fill:#78B9EB;" d="M315.029,131.986v337.275c0,19.401-15.729,35.13-35.14,35.13h-9.229  c-19.411,0-35.14-15.729-35.14-35.13V131.956c0-3.813,0.436-7.596,1.298-11.277c0.963-4.178,2.475-8.235,4.503-12.048l27.372-78.039  l5.791-10.943c0.243-0.456,0.487-0.892,0.761-1.318c0.264,0.426,0.517,0.862,0.75,1.308l5.831,10.993l27.392,77.988  c2.028,3.823,3.539,7.87,4.513,12.058C314.593,124.37,315.029,128.163,315.029,131.986z"/>
<path style="fill:#1A6FB0;" d="M315.029,131.986v337.275c0,19.401-15.729,35.13-35.14,35.13h-47.766  c-19.411,0-35.14-15.729-35.14-35.13V131.956c0-3.813,0.436-7.596,1.298-11.277h115.45  C314.593,124.37,315.029,128.163,315.029,131.986z"/>
<path style="fill:#3D9AE2;" d="M315.029,131.986v337.275c0,19.401-15.729,35.13-35.14,35.13h-9.229  c-19.411,0-35.14-15.729-35.14-35.13V131.956c0-3.813,0.436-7.596,1.298-11.277h76.913  C314.593,124.37,315.029,128.163,315.029,131.986z"/>
<rect x="196.978" y="179.504" style="fill:#165C92;" width="118.047" height="264.844"/>
<rect x="235.516" y="179.504" style="fill:#1E81CE;" width="79.509" height="264.844"/>
<path d="M316.213,105.576l-33.496-89.494c-11.356-21.446-42.13-21.443-53.495,0.015l-13.839,33.645  c-1.39,3.963,0.696,8.304,4.66,9.695c3.961,1.39,8.304-0.695,9.695-4.66l12.93-31.565c5.659-10.684,20.934-10.721,26.608-0.004  l33.661,89.861h-93.864c1.57-3.128,0.036,0.014,10.593-29.584c1.39-3.963-0.696-8.304-4.66-9.695  c-3.959-1.388-8.304,0.696-9.695,4.66l-10.625,29.394c-3.479,7.523-5.307,15.796-5.307,24.116v47.31  c-0.002,0.079-0.012,0.156-0.012,0.235c0.002,51.447-0.006,264.497,0.012,265.082v24.67c0,15.346,8.295,29.594,21.647,37.182  c3.668,2.085,8.305,0.781,10.372-2.854c2.076-3.653,0.797-8.296-2.854-10.372c-8.605-4.89-13.952-14.07-13.952-23.956v-17.3h102.832  v17.3c0,15.181-12.35,27.53-27.53,27.53H244.41c-4.202,0-7.606,3.404-7.606,7.606c0,4.202,3.404,7.606,7.606,7.606h35.483  c23.568,0,42.742-19.174,42.742-42.742V131.986C322.635,125.262,316.213,105.576,316.213,105.576z M307.416,436.746H204.591V187.112  h37.458c4.202,0,7.606-3.404,7.606-7.606s-3.404-7.606-7.606-7.606h-37.458v-43.618h102.651V171.9h-34.768  c-4.202,0-7.606,3.404-7.606,7.606s3.404,7.606,7.606,7.606h34.943v249.633H307.416z"/>
<g>
</g>
<g>
</g>
<g>
</g>
<g>
</g>
<g>
</g>
<g>
</g>
<g>
</g>
<g>
</g>
<g>
</g>
<g>
</g>
<g>
</g>
<g>
</g>
<g>
</g>
<g>
</g>
<g>
</g>
</svg>
