<?xml version="1.0" encoding="iso-8859-1"?>
<!-- Generator: Adobe Illustrator 19.0.0, SVG Export Plug-In . SVG Version: 6.00 Build 0)  -->
<svg xmlns="http://www.w3.org/2000/svg" xmlns:xlink="http://www.w3.org/1999/xlink" version="1.1" id="Capa_1" x="0px" y="0px" viewBox="0 0 512 512" style="enable-background:new 0 0 512 512;" xml:space="preserve">
<path style="fill:#ACABB1;" d="M306.328,314.85l-60.621,16.342L178.34,81.628c-7.517-27.886,4.991-56.452,28.718-70.42  c0.893-0.538,1.796-1.035,2.719-1.522c6.421-3.358,14.303,0.02,16.302,6.979l1.623,5.691l70.44,262.052L306.328,314.85z"/>
<path style="fill:#C6C5CA;" d="M298.141,284.408l-23.017,6.208L207.757,41.051c-2.719-10.104-2.82-20.288-0.7-29.844  c0.893-0.538,1.796-1.035,2.719-1.522c6.421-3.358,14.303,0.02,16.302,6.979l1.623,5.691L298.141,284.408z"/>
<path style="fill:#E0E0E2;" d="M333.797,81.628l-67.357,249.565l-35.9-9.677l-24.731-6.665l78.627-292.494l1.633-5.691  c1.988-6.959,9.88-10.337,16.291-6.979c4.626,2.414,8.856,5.376,12.65,8.775C332.124,33.768,340.188,57.941,333.797,81.628z"/>
<path style="fill:#C6C5CA;" d="M333.797,81.628l-67.357,249.565l-35.9-9.677l78.241-291.044l1.633-5.691  c0.781-2.719,2.455-4.889,4.595-6.32C332.124,33.768,340.188,57.941,333.797,81.628z"/>
<path style="fill:#78B9EB;" d="M446.47,392.872c-12.782-47.444-61.605-75.533-109.039-62.751c-8.795,2.364-16.92,5.985-24.244,10.59  l-26.821-99.513c-4.504-16.738-21.739-26.659-38.476-22.145c-14.009,3.774-23.24,16.444-23.24,30.29  c0,2.708,0.355,5.458,1.096,8.196l49.371,183.222l0.041-0.01c13.441,46.46,61.666,73.788,108.562,61.159  C431.162,489.129,459.251,440.306,446.47,392.872z M409.677,418.557c-1.41,27.125-24.528,47.971-51.654,46.561  c-27.115-1.41-47.961-24.528-46.551-51.654c1.41-27.115,24.528-47.961,51.654-46.551  C390.241,368.314,411.087,391.442,409.677,418.557z"/>
<path style="fill:#96C8EF;" d="M264.106,218.8c-16.738-4.514-33.973,5.407-38.487,22.145l-26.811,99.513  c-7.324-4.605-15.449-8.227-24.244-10.59c-47.444-12.782-96.257,15.307-109.039,62.751c-12.782,47.434,15.307,96.257,62.751,109.039  c46.896,12.629,95.121-14.699,108.562-61.159l0.041,0.01l49.371-183.222c0.741-2.739,1.096-5.488,1.096-8.196  C287.346,235.243,278.115,222.574,264.106,218.8z M198.889,428.549c-7.06,26.222-34.044,41.753-60.266,34.683  c-26.222-7.06-41.743-34.044-34.683-60.266c7.07-26.222,34.054-41.753,60.266-34.683  C190.429,375.343,205.96,402.337,198.889,428.549z"/>
<circle cx="255.997" cy="251.036" r="10.764"/>
<path d="M410.226,411.889c-4.174-0.355-7.862,2.77-8.207,6.958c-1.831,22.243-21.334,39.257-43.572,38.069  c-22.099-1.146-39.411-19.36-39.411-41.465c0-42.44,55.86-57.292,77.303-21.263c2.151,3.61,6.82,4.793,10.429,2.647  c3.611-2.15,4.796-6.819,2.647-10.429c-10.238-17.202-28.682-27.776-48.858-27.776c-31.38,0-56.738,25.425-56.738,56.821  c0,31.392,25.438,56.739,56.821,56.739c29.301,0,54.137-22.883,56.542-52.094C417.53,415.909,414.413,412.234,410.226,411.889z"/>
<path d="M183.353,377.257c-3.161,2.768-3.479,7.575-0.71,10.735c6.663,7.608,10.334,17.335,10.334,27.389  c0,3.64-0.486,7.288-1.445,10.843c-4.88,18.111-21.37,30.761-40.1,30.761c-23.006,0-41.605-18.724-41.605-41.543  c0-26.741,25.004-46.668,51.121-40.482c4.094,0.97,8.188-1.562,9.156-5.649c0.969-4.089-1.561-8.188-5.649-9.156  c-35.607-8.438-69.844,18.694-69.844,55.288c0,31.117,25.33,56.759,56.821,56.759c25.595,0,48.126-17.278,54.793-42.019  c1.306-4.846,1.967-9.828,1.967-14.802c0-13.744-5.009-27.031-14.103-37.414C191.321,374.807,186.514,374.488,183.353,377.257z"/>
<path d="M294.487,197.313c0.012-0.045,0.022-0.084,0.032-0.12C294.507,197.237,294.496,197.279,294.487,197.313z"/>
<path d="M294.589,196.935c0.003-0.011,0.002-0.007-0.002,0.007C294.588,196.94,294.588,196.938,294.589,196.935L294.589,196.935z"/>
<path d="M263.951,368.898c0,0.001,0,0.002-0.001,0.003c-0.015,0.056-0.026,0.099-0.037,0.136c0.019-0.071,0.044-0.162,0.067-0.249  C263.97,368.827,263.96,368.864,263.951,368.898z"/>
<path d="M335.479,322.164c0,0.01,0,0.01,0,0.01c-6.046,1.623-11.889,3.814-17.458,6.553c-18.249-67.85-21.179-78.742-21.545-80.105  c0,0-0.001-0.002-0.001-0.003c-0.009-0.034-0.017-0.063-0.023-0.085c-0.003-0.01-0.006-0.021-0.009-0.033  c0,0.001,0.001,0.003,0.001,0.005c-0.003-0.013-0.006-0.022-0.008-0.03v0.001c-0.001-0.003-0.001-0.005-0.002-0.008l12.842-47.566  c1.096-4.058-1.309-8.237-5.366-9.333c-4.058-1.085-8.227,1.309-9.322,5.366c-0.002,0.008-0.007,0.026-0.014,0.054  c0.006-0.02,0.01-0.037,0.012-0.047c-0.017,0.064-0.031,0.118-0.045,0.166c-0.007,0.025-0.014,0.053-0.022,0.084  c0.001-0.005,0.003-0.011,0.004-0.017c-0.023,0.088-0.039,0.144-0.048,0.176c0.003-0.011,0.007-0.025,0.01-0.041  c-0.004,0.016-0.009,0.034-0.014,0.052c0-0.002,0.001-0.003,0.001-0.004c-0.005,0.02-0.008,0.028-0.008,0.028  c-0.408,1.51-2.014,7.46-7.455,27.625c-10.616-13.786-29.653-19.158-46.095-12.224c3.001-11.165,28.75-106.952,33.81-125.776  c1.085-4.058-1.319-8.237-5.376-9.322c-4.058-1.085-8.227,1.309-9.322,5.366l-4.027,14.983  c-23.026-85.671-20.68-77.117-22.743-84.226C229.907,2.19,216.754-3.403,206.12,2.179c-28.646,15.01-43.976,48.319-35.261,80.666  l44.705,165.612c-8.827,32.952-6.5,24.328-21.587,80.27c-5.569-2.739-11.412-4.93-17.458-6.553c0,0,0,0,0-0.01  C93.98,299.932,24.899,389.229,67.704,463.572c42.354,73.618,152.841,60.137,176.507-21.424l11.787-43.751  c12.391,45.891,11.727,43.755,12.102,44.664c7.182,24.062,23.169,44.096,45.08,56.452c45.946,25.947,104.533,10.259,131.112-35.94  C487.113,389.206,417.986,299.959,335.479,322.164z M296.491,248.676c-0.002-0.008-0.006-0.022-0.011-0.044  C296.484,248.651,296.489,248.667,296.491,248.676z M294.567,197.016c-0.003,0.011-0.006,0.022-0.01,0.038  C294.561,197.039,294.564,197.027,294.567,197.016z M185.55,78.889c-6.665-24.762,4.95-51.349,27.632-63.228  c2.128-1.117,4.777,0.005,5.447,2.343c25.751,95.481,29.104,107.918,29.453,109.211c0-0.002,0.002,0.008,0.009,0.033  c-0.004-0.017-0.008-0.029-0.009-0.032c0.012,0.045,0.02,0.075,0.026,0.095l0,0v0.001c0.004,0.014,0.006,0.023,0.008,0.029  c0,0.001,0,0.002,0.001,0.003v-0.001c0.001,0.006,0.002,0.007,0.001,0.004l-24.691,91.875L185.55,78.889z M261.854,318.157  c-0.865,3.215-31.156,115.738-32.339,119.883c-12.234,42.291-56.776,67.377-99.28,55.914  c-43.421-11.695-69.077-56.295-57.385-99.706c14.267-52.947,75.88-76.668,121.891-47.697c4.354,2.716,10.073,0.465,11.402-4.463  c0-0.002,0.001-0.005,0.003-0.01c-0.001,0.005-0.002,0.009-0.003,0.01l0,0c0.007-0.025,0.012-0.046,0.018-0.068  c0.001-0.005,0.003-0.01,0.004-0.015c0.008-0.03,0.016-0.06,0.023-0.087c-0.005,0.018-0.01,0.037-0.014,0.053  c0.021-0.078,0.053-0.197,0.1-0.373c0.015-0.055,0.017-0.062,0.011-0.04c0.478-1.775,2.376-8.819,8.845-32.833l8.359-31  l9.464-35.149c2.716-10.086,11.923-17.819,23.839-17.59c15.674,0.713,25.993,15.525,22.094,29.976l-17.022,63.198H261.854z   M431.108,455.985c-35.746,62.152-128.857,50.375-148.621-17.945c-1.322-4.641-14.141-52.36-18.604-68.888  c0.001-0.004,0.003-0.01,0.004-0.016c-0.002,0.007-0.003,0.011-0.004,0.016l0,0c0.003-0.01,0.005-0.018,0.007-0.027  c0-0.002,0.001-0.004,0.002-0.006c0.004-0.016,0.008-0.03,0.012-0.046c-0.002,0.007-0.004,0.014-0.006,0.021  c0.004-0.016,0.009-0.034,0.015-0.057c-0.002,0.006-0.003,0.012-0.005,0.018c0.015-0.057,0.029-0.109,0.042-0.154  c0-0.001,0-0.002,0.001-0.003c0.029-0.111,0.052-0.194,0.068-0.252c0.507-1.883,2.648-9.833,10.252-38.072h0.01  c8.96-33.279,5.418-20.092,14.242-52.81c24.189,89.737,9.654,35.822,17.336,64.324c0.629,2.333,2.333,4.23,4.575,5.102  c6.911,2.708,8.377-4.772,29.002-10.327C408.94,318.128,467.184,393.349,431.108,455.985z"/>
<path d="M294.467,197.389c0.002-0.008,0.004-0.016,0.006-0.023C294.469,197.38,294.467,197.388,294.467,197.389z"/>
<path d="M296.437,248.476c0.002,0.009,0.004,0.016,0.006,0.024C296.441,248.492,296.439,248.484,296.437,248.476z"/>
<path d="M206.272,341.607c-0.008,0.03-0.018,0.069-0.03,0.113C206.255,341.671,206.264,341.635,206.272,341.607z"/>
<path d="M206.285,341.556c-0.004,0.013-0.007,0.027-0.011,0.04c-0.001,0.003-0.002,0.007-0.003,0.011  C206.278,341.585,206.282,341.568,206.285,341.556z"/>
<path d="M206.188,341.918c0.017-0.063,0.037-0.134,0.053-0.197C206.228,341.772,206.209,341.837,206.188,341.918z"/>
<path d="M248.119,127.347l-0.001-0.003L248.119,127.347z"/>
<path d="M263.988,368.76c-0.002,0.009-0.005,0.018-0.007,0.027C263.983,368.778,263.986,368.769,263.988,368.76z"/>
<path d="M206.142,342.088L206.142,342.088C206.142,342.09,206.142,342.09,206.142,342.088z"/>
<path d="M264.026,368.617C264.062,368.486,264.053,368.518,264.026,368.617L264.026,368.617z"/>
<path d="M248.092,127.249c0.005,0.019,0.011,0.043,0.017,0.062C248.101,127.284,248.096,127.263,248.092,127.249z"/>
<path d="M263.892,369.118c-0.001,0.002-0.001,0.004-0.002,0.006c-0.001,0.005-0.002,0.008-0.003,0.012  c0.003-0.011,0.007-0.026,0.011-0.043C263.897,369.102,263.894,369.111,263.892,369.118z"/>
<path d="M264.026,368.617c-0.002,0.009-0.005,0.017-0.008,0.028c-0.011,0.041-0.021,0.079-0.03,0.114  C264.002,368.706,264.016,368.656,264.026,368.617z"/>
<path d="M282.751,57.177c0.007-0.026,0.014-0.052,0.02-0.074c-0.004,0.013-0.007,0.027-0.012,0.044  C282.757,57.156,282.753,57.167,282.751,57.177z"/>
<path d="M273.296,62.993c4.058,1.096,8.236-1.309,9.333-5.366c-0.005,0.017-0.005,0.02,0,0l0,0c0.001-0.004,0.002-0.007,0.003-0.011  c0.003-0.011,0.008-0.028,0.013-0.049c0.037-0.136,0.066-0.243,0.088-0.325c0.006-0.021,0.011-0.044,0.018-0.066  c-0.004,0.013-0.007,0.027-0.011,0.042c0.007-0.027,0.013-0.051,0.019-0.072c0.011-0.042,0.022-0.084,0.035-0.132  c0.003-0.011-0.007,0.026-0.023,0.088c0.014-0.052,0.021-0.081,0.023-0.088c0.569-2.097,2.832-10.444,10.577-39.011  c0.652-2.272,3.284-3.483,5.447-2.343c22.818,11.949,34.406,38.029,27.632,63.228l-23.94,88.669  c-1.096,4.058,1.309,8.227,5.366,9.322c3.955,1.096,8.21-1.237,9.333-5.356c23.173-88.62,26.375-91.143,26.375-107.03  c0-26.263-14.445-50.132-37.695-62.315c-10.812-5.648-23.876,0.235-27.146,11.635c-2.008,6.997-0.062-0.212-10.814,39.856  C266.834,57.728,269.239,61.908,273.296,62.993z M282.702,57.357c0.004-0.014,0.008-0.031,0.012-0.047  C282.711,57.326,282.707,57.341,282.702,57.357z M282.666,57.49c0.006-0.023,0.013-0.051,0.022-0.081  C282.68,57.437,282.673,57.464,282.666,57.49z"/>
<g>
</g>
<g>
</g>
<g>
</g>
<g>
</g>
<g>
</g>
<g>
</g>
<g>
</g>
<g>
</g>
<g>
</g>
<g>
</g>
<g>
</g>
<g>
</g>
<g>
</g>
<g>
</g>
<g>
</g>
</svg>
