<?xml version="1.0" encoding="iso-8859-1"?>
<!-- Generator: Adobe Illustrator 19.0.0, SVG Export Plug-In . SVG Version: 6.00 Build 0)  -->
<svg xmlns="http://www.w3.org/2000/svg" xmlns:xlink="http://www.w3.org/1999/xlink" version="1.1" id="Capa_1" x="0px" y="0px" viewBox="0 0 512 512" style="enable-background:new 0 0 512 512;" xml:space="preserve">
<path style="fill:#C6C5CA;" d="M504.38,99.707v44.733c0,10.271-8.324,18.605-18.595,18.605H164.916v322.745  c0,10.281-8.324,18.605-18.595,18.605h-44.743c-10.271,0-18.595-8.324-18.595-18.605V106.054c0-13.779,11.163-24.952,24.952-24.952  h377.851C496.056,81.102,504.38,89.436,504.38,99.707z"/>
<g>
	<rect x="82.978" y="315.384" style="fill:#ACABB1;" width="81.933" height="77.553"/>
	<rect x="311.318" y="81.102" style="fill:#ACABB1;" width="35.77" height="81.944"/>
</g>
<path style="fill:#D8D7DA;" d="M429.027,26.209v379.737c0,13.779-11.173,24.952-24.952,24.952H26.225  c-10.271,0-18.605-8.324-18.605-18.595V367.56c0-10.271,8.334-18.595,18.605-18.595h320.859V26.209  c0-10.271,8.334-18.605,18.605-18.605h44.733C420.693,7.604,429.027,15.939,429.027,26.209z"/>
<path d="M485.786,73.498h-49.154V26.209C436.632,11.761,424.87,0,410.422,0h-44.733c-14.448,0-26.209,11.761-26.209,26.209v47.288  H305.99c-4.198,0-7.604,3.407-7.604,7.604c0,4.208,3.407,7.604,7.604,7.604h33.489v66.735h-25.221v-17.034  c0-4.201-3.404-7.604-7.604-7.604s-7.604,3.404-7.604,7.604v17.034h-31.723V125.05c0-4.201-3.404-7.604-7.604-7.604  c-4.201,0-7.604,3.404-7.604,7.604v30.392h-32.125v-17.034c0-4.201-3.404-7.604-7.604-7.604c-4.201,0-7.604,3.404-7.604,7.604  v17.034h-32.262V125.05c0-4.201-3.404-7.604-7.604-7.604c-4.201,0-7.604,3.404-7.604,7.604v37.956c0,0.013-0.002,0.026-0.002,0.04  v57.214c0,4.198,3.407,7.604,7.604,7.604c4.198,0,7.604-3.407,7.604-7.604v-49.61H339.48v90.673c0,4.208,3.407,7.604,7.604,7.604  c4.208,0,7.604-3.397,7.604-7.604c0-32.848,0-202.288,0-235.114c0-6.063,4.938-11.001,11.001-11.001h44.733  c6.063,0,11.001,4.938,11.001,11.001c0,45.798,0,333.755,0,379.737c0,9.561-7.787,17.348-17.348,17.348H236.427  c-4.198,0-7.604,3.407-7.604,7.604s3.407,7.604,7.604,7.604h167.649c17.946,0,32.556-14.61,32.556-32.556V170.65h49.154  c14.448,0,26.199-11.761,26.199-26.209V99.707C511.985,85.259,500.234,73.498,485.786,73.498z M496.776,144.44  c0,6.063-4.928,11.001-10.991,11.001h-13.158V125.05c0-4.201-3.404-7.604-7.604-7.604c-4.201,0-7.604,3.404-7.604,7.604v30.392  h-20.787V88.706h49.154c6.063,0,10.991,4.938,10.991,11.001V144.44z"/>
<path d="M206.01,423.294c-22.249,0-158.717,0-179.785,0c-6.063,0-11.001-4.938-11.001-10.991V367.56  c0-6.063,4.938-10.991,11.001-10.991H51.88v30.385c0,4.201,3.404,7.604,7.604,7.604s7.604-3.404,7.604-7.604v-30.385  c8.078,0,23.689,0,31.723,0v19.092c0,4.201,3.404,7.604,7.604,7.604s7.604-3.404,7.604-7.604v-19.092h31.723v30.387  c0,3.822,2.829,6.986,6.499,7.513c0.365,0.061,0.73,0.091,1.105,0.091c4.198,0,7.604-3.407,7.604-7.604v-30.387  c11.657,0,20.66,0,31.723,0v19.092c0,4.201,3.404,7.604,7.604,7.604c4.201,0,7.604-3.404,7.604-7.604v-19.092h31.723v30.385  c0,4.201,3.404,7.604,7.604,7.604c4.201,0,7.604-3.404,7.604-7.604v-30.385h32.125v19.092c0,4.201,3.404,7.604,7.604,7.604  s7.604-3.404,7.604-7.604v-19.092h37.332v30.385c0,4.201,3.404,7.604,7.604,7.604c4.201,0,7.604-3.404,7.604-7.604v-40.883  c0-0.005-0.001-0.01-0.001-0.015V291.74c0-4.198-3.397-7.604-7.604-7.604c-4.198,0-7.604,3.407-7.604,7.604v49.62H172.52v-90.683  c0-4.198-3.407-7.604-7.604-7.604c-4.198,0-7.604,3.407-7.604,7.604v90.683H90.587V106.054c0-9.561,7.777-17.348,17.348-17.348  h167.638c4.208,0,7.604-3.397,7.604-7.604c0-4.198-3.397-7.604-7.604-7.604H107.935c-17.956,0-32.556,14.61-32.556,32.556V341.36  H26.225c-14.448,0-26.209,11.751-26.209,26.199v44.743c0,14.448,11.761,26.199,26.209,26.199h49.154v47.288  c0,14.458,11.751,26.209,26.199,26.209h44.743c14.448,0,26.199-11.751,26.199-26.209v-47.288h33.489  c4.198,0,7.604-3.407,7.604-7.604S210.207,423.294,206.01,423.294z M157.312,485.791c0,6.063-4.928,11.001-10.991,11.001h-44.743  c-6.063,0-10.991-4.938-10.991-11.001v-47.288h66.725V485.791z"/>
<g>
</g>
<g>
</g>
<g>
</g>
<g>
</g>
<g>
</g>
<g>
</g>
<g>
</g>
<g>
</g>
<g>
</g>
<g>
</g>
<g>
</g>
<g>
</g>
<g>
</g>
<g>
</g>
<g>
</g>
</svg>
