<?xml version="1.0" encoding="iso-8859-1"?>
<!-- Generator: Adobe Illustrator 19.0.0, SVG Export Plug-In . SVG Version: 6.00 Build 0)  -->
<svg xmlns="http://www.w3.org/2000/svg" xmlns:xlink="http://www.w3.org/1999/xlink" version="1.1" id="Capa_1" x="0px" y="0px" viewBox="0 0 512 512" style="enable-background:new 0 0 512 512;" xml:space="preserve">
<path style="fill:#B3D8F4;" d="M361.468,75.943V273.11c0,5.404-4.38,9.784-9.784,9.784H160.316c-5.404,0-9.784-4.38-9.784-9.784  V75.943c0-37.738,30.59-68.338,68.338-68.338h74.26c25.449,0,47.654,13.911,59.406,34.544  C358.224,52.116,361.468,63.654,361.468,75.943z"/>
<path style="fill:#C2DFF6;" d="M361.468,75.943V273.11c0,5.404-4.38,9.784-9.784,9.784H188.047V91.162  c0-27.112,21.972-49.084,49.074-49.084h112.789c0.882,0,1.754,0.02,2.626,0.071C358.224,52.116,361.468,63.654,361.468,75.943z"/>
<path style="fill:#1E81CE;" d="M396.631,198.465V490.18c0,7.858-6.367,14.215-14.225,14.215H129.594  c-7.858,0-14.225-6.357-14.225-14.215V198.465c0-7.858,6.367-14.215,14.225-14.215h252.811  C390.263,184.25,396.631,190.607,396.631,198.465z"/>
<path style="fill:#3D9AE2;" d="M396.631,198.465V464.65H171.956c-7.848,0-14.215-6.367-14.215-14.215V184.25h224.665  C390.263,184.25,396.631,190.607,396.631,198.465z"/>
<rect x="115.364" y="275.381" style="fill:#D1E7F8;" width="281.262" height="137.934"/>
<rect x="115.364" y="275.381" style="fill:#C2DFF6;" width="42.372" height="137.934"/>
<path d="M382.406,176.645h-13.333v-85.93c0-4.208-3.407-7.604-7.604-7.604c-4.198,0-7.604,3.397-7.604,7.604v85.93H158.136v-20.238  c0-4.198-3.407-7.604-7.604-7.604c-4.208,0-7.604,3.407-7.604,7.604v20.238h-13.343c-12.025,0-21.82,9.784-21.82,21.82  c0,27.393,0,257.574,0,291.715c0,12.035,9.794,21.82,21.82,21.82h252.821c12.035,0,21.83-9.784,21.83-21.82  c0-66.782,0-224.186,0-291.715C404.235,186.43,394.441,176.645,382.406,176.645z M389.026,267.777h-58.625  c-4.198,0-7.604,3.407-7.604,7.604c0,4.208,3.407,7.604,7.604,7.604h58.625c0,14.835,0,107.622,0,122.725H218.911  c-4.198,0-7.604,3.407-7.604,7.604c0,4.208,3.407,7.604,7.604,7.604h170.116v69.261c0,3.65-2.971,6.611-6.621,6.611H129.584  c-3.64,0-6.611-2.961-6.611-6.611v-69.261h65.52c4.198,0,7.604-3.397,7.604-7.604c0-4.198-3.407-7.604-7.604-7.604h-65.52V282.986  h177.01c4.198,0,7.604-3.397,7.604-7.604c0-4.198-3.407-7.604-7.604-7.604h-177.01v-69.312c0-3.65,2.971-6.611,6.611-6.611h252.821  c3.65,0,6.621,2.961,6.621,6.611V267.777z"/>
<path d="M150.532,133.594c4.198,0,7.604-3.397,7.604-7.604V75.943c0-33.49,27.244-60.734,60.734-60.734h74.26  c28.42,0,52.754,19.305,59.162,46.945c0.953,4.096,5.039,6.641,9.125,5.688c4.096-0.953,6.641-5.039,5.688-9.125  c-3.812-16.436-13.191-31.34-26.403-41.976C327.279,5.942,310.387,0,293.13,0h-74.26c-41.875,0-75.943,34.068-75.943,75.943v50.047  C142.927,130.198,146.324,133.594,150.532,133.594z"/>
<g>
</g>
<g>
</g>
<g>
</g>
<g>
</g>
<g>
</g>
<g>
</g>
<g>
</g>
<g>
</g>
<g>
</g>
<g>
</g>
<g>
</g>
<g>
</g>
<g>
</g>
<g>
</g>
<g>
</g>
</svg>
