<?xml version="1.0" encoding="iso-8859-1"?>
<!-- Generator: Adobe Illustrator 19.0.0, SVG Export Plug-In . SVG Version: 6.00 Build 0)  -->
<svg xmlns="http://www.w3.org/2000/svg" xmlns:xlink="http://www.w3.org/1999/xlink" version="1.1" id="Capa_1" x="0px" y="0px" viewBox="0 0 512 512" style="enable-background:new 0 0 512 512;" xml:space="preserve">
<path style="fill:#FFB655;" d="M501.787,477.011v-0.01c-1.873-3.097,27.018,26.177-463.15-464.062  c-1.459-1.459-3.049-2.603-4.721-3.444C22.55,3.721,7.71,11.673,7.71,25.743V486.29c0,10.008,8.114,18.112,18.122,18.112  l460.314-0.101C500.683,504.301,508.675,488.488,501.787,477.011z M288.329,418.237l-182.906,0.041  c-5.541,0-10.039-4.498-10.039-10.039V225.242c0-8.945,10.809-13.422,17.13-7.101L295.42,401.108  C301.741,407.429,297.264,418.227,288.329,418.237z"/>
<path style="fill:#FFC477;" d="M133.767,108.099c1.169,1.16-51.48-51.503-80.503-80.533l-1.996-1.996v422.225  c0,10.008,8.114,18.112,18.122,18.112l421.993-0.091C438.177,412.593,187.894,162.227,133.767,108.099z M288.329,418.237  l-182.906,0.041c-5.541,0-10.039-4.498-10.039-10.039V225.242c0-8.945,10.809-13.422,17.13-7.101L295.42,401.108  C301.741,407.429,297.264,418.227,288.329,418.237z"/>
<path d="M396.909,496.724l-371.081,0.081c-5.8,0-10.519-4.716-10.519-10.514V124.068c0-4.196-3.401-7.597-7.597-7.597  s-7.597,3.402-7.597,7.597v362.223C0.114,500.467,11.649,512,25.83,512l371.083-0.081c4.196-0.001,7.596-3.403,7.595-7.598  C404.507,500.124,401.105,496.723,396.909,496.724z"/>
<path d="M504.328,468.014L44.005,7.568C39.126,2.687,32.716,0,25.954,0C11.706,0,0.114,11.549,0.114,25.745v67.933  c0,4.196,3.401,7.597,7.597,7.597s7.597-3.402,7.597-7.597V25.745c0-6.604,5.411-10.55,10.645-10.55  c1.912,0,4.731,0.541,7.306,3.117l14.543,14.547L27.204,53.378c-4.78,4.762-1.386,12.979,5.362,12.979  c5.479,0,6.019-3.861,25.98-22.754l24.19,24.197l-8.059,7.933c-2.99,2.944-3.029,7.753-0.085,10.744  c2.934,2.981,7.744,3.038,10.743,0.085l8.144-8.016l24.245,24.251l-20.589,20.511c-2.973,2.961-2.981,7.772-0.021,10.744  c2.961,2.972,7.772,2.983,10.744,0.021l20.608-20.53l24.191,24.197l-8.05,7.924c-2.99,2.944-3.029,7.753-0.085,10.744  c2.934,2.981,7.744,3.038,10.743,0.085l8.134-8.007l24.245,24.252l-20.58,20.501c-2.973,2.961-2.981,7.772-0.021,10.744  c2.955,2.968,7.767,2.987,10.744,0.021l20.599-20.52l24.19,24.196l-8.04,7.915c-2.989,2.944-3.028,7.753-0.084,10.744  c2.943,2.99,7.752,3.029,10.744,0.085l8.124-7.997l24.245,24.251l-20.571,20.492c-2.973,2.961-2.981,7.772-0.021,10.744  c2.955,2.968,7.767,2.987,10.744,0.021l20.59-20.511l24.19,24.197l-8.03,7.904c-2.99,2.944-3.029,7.753-0.085,10.744  c2.941,2.987,7.75,3.031,10.744,0.085l8.114-7.987l24.245,24.251L306.923,333.1c-2.973,2.961-2.981,7.772-0.021,10.744  c2.955,2.968,7.767,2.987,10.744,0.021l20.581-20.501l24.19,24.196l-8.021,7.895c-2.989,2.944-3.028,7.753-0.084,10.744  c2.943,2.99,7.752,3.029,10.744,0.085l8.105-7.978l24.394,24.4l-20.553,20.473c-2.973,2.961-2.981,7.772-0.021,10.744  c2.955,2.968,7.767,2.987,10.744,0.021l20.572-20.492l24.19,24.197l-8.011,7.886c-2.99,2.944-3.029,7.753-0.085,10.744  c1.487,1.51,3.449,2.268,5.414,2.268c1.924,0,3.85-0.726,5.33-2.183l8.096-7.969l24.245,24.251l-20.542,20.463  c-2.973,2.961-2.981,7.772-0.021,10.744c1.484,1.49,3.434,2.236,5.382,2.236c1.94,0,3.879-0.738,5.362-2.215l20.562-20.483  l15.358,15.362c2.575,2.575,3.115,5.393,3.115,7.303c0,5.231-3.947,10.643-10.549,10.645l-58.85,0.013  c-4.196,0.001-7.596,3.403-7.595,7.598c0.001,4.196,3.403,7.597,7.599,7.596l58.85-0.013c14.193-0.003,25.74-11.595,25.74-25.839  C511.892,479.302,509.205,472.892,504.328,468.014z"/>
<path d="M95.382,294.506c4.197,0,7.597-3.402,7.597-7.597v-67.548l54.502,54.516c2.965,2.967,7.776,2.968,10.744,0.001  c2.968-2.967,2.968-7.777,0.001-10.745l-67.471-67.49c-2.173-2.174-5.441-2.824-8.28-1.647c-2.839,1.176-4.69,3.947-4.69,7.019  v85.894C87.785,291.105,91.187,294.506,95.382,294.506z"/>
<path d="M198.522,418.256c0.001,4.196,3.402,7.596,7.597,7.596c0,0,0.001,0,0.002,0l106.421-0.023c3.071,0,5.842-1.852,7.018-4.69  c1.175-2.838,0.526-6.105-1.647-8.278l-128.2-128.236c-2.968-2.967-7.777-2.968-10.744-0.001s-2.968,7.778-0.001,10.745  l115.238,115.268l-88.088,0.02C201.922,410.657,198.521,414.06,198.522,418.256z"/>
<path d="M87.785,418.278c0,2.015,0.8,3.948,2.226,5.373c1.424,1.424,3.356,2.225,5.372,2.225c0,0,0.001,0,0.002,0l80.347-0.018  c4.196-0.001,7.596-3.403,7.595-7.598c-0.001-4.196-3.402-7.596-7.597-7.596c0,0-0.001,0-0.002,0l-72.747,0.016v-93.381  c0-4.196-3.401-7.597-7.597-7.597c-4.197,0-7.597,3.402-7.597,7.597V418.278z"/>
<g>
</g>
<g>
</g>
<g>
</g>
<g>
</g>
<g>
</g>
<g>
</g>
<g>
</g>
<g>
</g>
<g>
</g>
<g>
</g>
<g>
</g>
<g>
</g>
<g>
</g>
<g>
</g>
<g>
</g>
</svg>
