<?xml version="1.0" encoding="iso-8859-1"?>
<!-- Generator: Adobe Illustrator 19.0.0, SVG Export Plug-In . SVG Version: 6.00 Build 0)  -->
<svg xmlns="http://www.w3.org/2000/svg" xmlns:xlink="http://www.w3.org/1999/xlink" version="1.1" id="Capa_1" x="0px" y="0px" viewBox="0 0 512 512" style="enable-background:new 0 0 512 512;" xml:space="preserve">
<path style="fill:#ACABB1;" d="M282.808,34.41v73.746c0,9.254-4.754,17.453-11.94,22.278c-4.257,2.858-9.375,4.531-14.869,4.531  c-14.747,0-26.808-12.061-26.808-26.808V34.41c0-14.747,12.061-26.808,26.808-26.808c5.493,0,10.612,1.672,14.869,4.531  c1.46,0.983,2.828,2.098,4.064,3.345C279.798,20.332,282.808,27.031,282.808,34.41z"/>
<path style="fill:#C6C5CA;" d="M282.808,34.41v73.746c0,9.254-4.754,17.453-11.94,22.278c-7.196-4.814-11.95-13.014-11.95-22.278  V34.41c0-9.264,4.754-17.463,11.95-22.278c1.46,0.983,2.828,2.098,4.064,3.345C279.798,20.332,282.808,27.031,282.808,34.41z"/>
<path style="fill:#ACABB1;" d="M101.008,462.79l-22.955,13.194L240.788,85.961l24.678,10.498L123.685,437.227  C119.108,447.988,111.145,456.962,101.008,462.79z"/>
<circle style="fill:#3E3D42;" cx="125.558" cy="397.564" r="26.649"/>
<path style="fill:#ACABB1;" d="M410.591,462.79l22.954,13.194L270.81,85.961l-24.679,10.498l141.782,340.768  C392.491,447.988,400.452,456.962,410.591,462.79z"/>
<circle style="fill:#3E3D42;" cx="386.222" cy="397.666" r="26.649"/>
<path style="fill:#787680;" d="M283.892,170.104c-0.993,0.618-2.007,1.196-3.031,1.723c-24.518,13.034-55.269,4.936-70.056-19.024  c-15.416-24.964-7.662-57.691,17.301-73.097c9.781-6.041,20.747-8.524,31.41-7.804c16.531,1.105,32.302,9.923,41.677,25.106  C316.61,121.97,308.856,154.698,283.892,170.104z"/>
<path style="fill:#898890;" d="M283.892,170.104c-0.993,0.618-2.007,1.196-3.031,1.723c-16.531-1.105-32.302-9.923-41.677-25.106  c-15.416-24.964-7.662-57.691,17.301-73.097c0.993-0.618,2.007-1.196,3.031-1.723c16.531,1.105,32.302,9.923,41.677,25.106  C316.61,121.97,308.856,154.698,283.892,170.104z"/>
<circle style="fill:#3E3D42;" cx="256.002" cy="124.9" r="16.626"/>
<path d="M453.027,501.421l-12.087-28.412c-0.001-0.002-0.002-0.003-0.002-0.005l-24.879-59.628  c9.256-18.509-0.328-41.227-19.876-47.627v-0.01l-87.702-210.2c15.875-27.162,8.258-62.593-18.072-80.719V60.377  c0-4.196-3.395-7.602-7.602-7.602c-4.196,0-7.602,3.406-7.602,7.602v6.882c-12.002-3.968-25.575-4.264-38.413,0.051v-32.9  c0-10.592,8.615-19.207,19.207-19.207c9.264,0,17.413,6.892,18.943,16.044c0.699,4.135,4.602,6.933,8.757,6.243  c4.145-0.699,6.933-4.612,6.243-8.757C287.146,12.081,272.875,0,256,0c-18.974,0-34.41,15.436-34.41,34.41v40.481  c-4.612,3.152-8.737,6.912-12.294,11.19c-2.686,3.233-2.24,8.027,0.983,10.713c3.233,2.676,8.027,2.24,10.713-0.993  c30.372-36.751,90.63-7.031,79.229,39.934c-9.296,38.478-61.419,47.932-82.949,13.075c-5.363-8.693-7.715-18.991-6.456-29.403  c0.507-4.166-2.453-7.956-6.618-8.463s-7.966,2.453-8.473,6.629c-1.645,13.671,1.363,26.824,7.825,37.907L114.833,368.1  c-1.009,1.57-1.428,3.602-1.014,5.585c0.851,4.115,4.875,6.75,8.99,5.899c3.729-0.769,7.642-0.429,11.301,1.135  c19.172,8.139,13.031,36.579-7.47,36.579c-12.219,0-21.331-11.452-18.558-23.322c0.962-4.137-1.648-8.199-5.686-9.122  c-4.085-0.953-8.169,1.601-9.122,5.686c-1.716,7.337-0.98,15.498,2.656,22.866l-24.868,59.598c-0.001,0.002-0.002,0.003-0.002,0.005  l-12.087,28.412c-1.643,3.864,0.156,8.327,4.02,9.97c0.971,0.414,1.979,0.609,2.973,0.609c2.957,0,5.767-1.735,6.998-4.628  l11.09-26.068l20.746-11.919c22.649-13.042,27.303-34.023,29.444-37.734c22.96-5.19,33.926-31.634,21.457-51.569l82.057-197.226  c11.619,3.644,24.457,3.772,36.467-0.03L356.3,380.081c0,0.01,0,0.01,0,0.01c-2.978,4.816-4.723,10.023-5.129,15.7  c-0.223,3.081,1.429,5.868,3.973,7.237c4.785,2.605,10.81-0.646,11.19-6.152c0.378-5.572,3.353-10.843,7.642-13.906v-0.01  c16.483-12.245,37.296,6.694,28.278,24.052l-0.01,0.01c-4.514,8.624-15.315,13.458-25.866,8.027c-0.14-0.045-2.603-1.674-5.858-0.77  c-6.424,1.758-8.052,10.813-0.973,14.352c2.605,1.358,5.362,2.362,8.2,3v0.01c2.156,3.737,6.793,24.695,29.454,37.745l20.746,11.919  l11.09,26.068c1.652,3.883,6.128,5.656,9.97,4.019C452.87,509.748,454.67,505.283,453.027,501.421z M97.217,456.198l-3.517,2.027  l13.318-31.917c3.419,2.375,7.162,4.071,10.875,5.047C117.243,432.431,113.148,447.057,97.217,456.198z M143.962,368.688  c-3.591-2.102-7.395-3.464-11.169-4.145l81.54-195.432c2.949,2.797,6.162,5.281,9.588,7.409L143.962,368.688z M368.027,368.698  l-79.979-192.23c3.487-2.169,6.7-4.632,9.608-7.379l81.55,195.453C375.798,365.111,371.768,366.503,368.027,368.698z   M414.782,456.198c-15.814-9.073-20.091-23.873-20.676-24.842v-0.01c3.943-1.034,7.612-2.757,10.875-5.047l13.318,31.927  L414.782,456.198z"/>
<path d="M256,133.928c-4.685,0-8.547-3.509-8.984-8.163c-0.392-4.18-4.098-7.25-8.279-6.858c-14.1,1.324-5.221,30.224,17.263,30.224  c13.36,0,24.227-10.868,24.227-24.229c-0.002-21.408-26.829-31.188-29.037-17.63c-0.675,4.143,2.137,8.05,6.281,8.725  c4.375,0.713,7.552,4.459,7.553,8.906C265.023,129.88,260.975,133.928,256,133.928z"/>
<circle cx="126.825" cy="398.324" r="11.45"/>
<circle cx="385.462" cy="398.172" r="11.45"/>
<g>
</g>
<g>
</g>
<g>
</g>
<g>
</g>
<g>
</g>
<g>
</g>
<g>
</g>
<g>
</g>
<g>
</g>
<g>
</g>
<g>
</g>
<g>
</g>
<g>
</g>
<g>
</g>
<g>
</g>
</svg>
