<?xml version="1.0" encoding="iso-8859-1"?>
<!-- Generator: Adobe Illustrator 19.0.0, SVG Export Plug-In . SVG Version: 6.00 Build 0)  -->
<svg xmlns="http://www.w3.org/2000/svg" xmlns:xlink="http://www.w3.org/1999/xlink" version="1.1" id="Capa_1" x="0px" y="0px" viewBox="0 0 512 512" style="enable-background:new 0 0 512 512;" xml:space="preserve">
<path style="fill:#96C8EF;" d="M504.396,193.457v125.075c0,10.25-8.313,18.553-18.553,18.553H26.157  c-10.25,0-18.553-8.303-18.553-18.553V193.457c0-10.088,8.05-18.289,18.087-18.533c0.152-0.01,0.314-0.01,0.466-0.01h459.687  c0.568,0,1.125,0.03,1.683,0.071C496.975,175.837,504.396,183.786,504.396,193.457z"/>
<path style="fill:#78B9EB;" d="M504.396,243.712v74.82c0,10.25-8.313,18.553-18.553,18.553H26.157  c-10.25,0-18.553-8.303-18.553-18.553v-74.82H504.396z"/>
<path style="fill:#5AAAE7;" d="M504.396,277.503v41.029c0,10.25-8.313,18.553-18.553,18.553H26.157  c-10.25,0-18.553-8.303-18.553-18.553v-41.029c0,10.25,8.303,18.553,18.553,18.553h459.687  C496.083,296.056,504.396,287.753,504.396,277.503z"/>
<path d="M504.396,210.885c4.197,0,7.604-3.406,7.604-7.604v-28.367c0-4.207-3.406-7.604-7.604-7.604c-315.542,0-190.262,0-496.793,0  c-4.207,0-7.604,3.396-7.604,7.604v162.171c0,4.197,3.396,7.604,7.604,7.604h44.608c4.197,0,7.604-3.406,7.604-7.604  s-3.406-7.604-7.604-7.604H15.207v-78.166h481.585v78.166H82.626c-4.197,0-7.604,3.406-7.604,7.604s3.406,7.604,7.604,7.604h421.77  c4.197,0,7.604-3.406,7.604-7.604V233.696c0-4.207-3.406-7.604-7.604-7.604c-4.207,0-7.604,3.396-7.604,7.604v2.413H15.207v-53.591  h35.494v33.537c0,4.197,3.406,7.604,7.604,7.604s7.604-3.406,7.604-7.604v-33.537h24.727v20.641c0,4.197,3.406,7.604,7.604,7.604  s7.604-3.406,7.604-7.604v-20.641h23.936v33.537c0,4.197,3.406,7.604,7.604,7.604c4.197,0,7.604-3.406,7.604-7.604v-33.537h24.727  v20.641c0,4.197,3.406,7.604,7.604,7.604c4.197,0,7.604-3.406,7.604-7.604v-20.641h23.936v33.537c0,4.197,3.406,7.604,7.604,7.604  s7.604-3.406,7.604-7.604v-33.537h24.727v20.641c0,4.197,3.406,7.604,7.604,7.604c4.207,0,7.604-3.406,7.604-7.604v-20.641h23.936  v33.537c0,4.197,3.406,7.604,7.604,7.604s7.604-3.406,7.604-7.604v-33.537h24.727v20.641c0,4.197,3.406,7.604,7.604,7.604  c4.207,0,7.604-3.406,7.604-7.604v-20.641h23.936v33.537c0,4.197,3.406,7.604,7.604,7.604s7.604-3.406,7.604-7.604v-33.537h24.727  v20.641c0,4.197,3.406,7.604,7.604,7.604c4.207,0,7.604-3.406,7.604-7.604v-20.641h23.936v33.537c0,4.197,3.406,7.604,7.604,7.604  s7.604-3.406,7.604-7.604v-33.537h35.494v20.763C496.793,207.479,500.189,210.885,504.396,210.885z"/>
<g>
</g>
<g>
</g>
<g>
</g>
<g>
</g>
<g>
</g>
<g>
</g>
<g>
</g>
<g>
</g>
<g>
</g>
<g>
</g>
<g>
</g>
<g>
</g>
<g>
</g>
<g>
</g>
<g>
</g>
</svg>
