<?xml version="1.0" encoding="iso-8859-1"?>
<!-- Generator: Adobe Illustrator 19.0.0, SVG Export Plug-In . SVG Version: 6.00 Build 0)  -->
<svg xmlns="http://www.w3.org/2000/svg" xmlns:xlink="http://www.w3.org/1999/xlink" version="1.1" id="Capa_1" x="0px" y="0px" viewBox="0 0 512 512" style="enable-background:new 0 0 512 512;" xml:space="preserve">
<path style="fill:#EE8700;" d="M435.957,404.737L330.113,76.524c-7.639-23.678-27.994-40.638-52.056-44.295  c-3.202-0.486-6.484-0.74-9.797-0.74h-24.488c-14.103,0-27.406,4.549-38.257,12.452c-10.861,7.903-19.27,19.169-23.596,32.583  L76.063,404.737c-12.067,37.436,15.846,75.774,55.187,75.774c7.7,0,15.147-1.52,21.986-4.326c4.255-1.743,8.267-3.972,11.965-6.646  c9.645-6.981,17.163-16.91,21.094-28.784l9.544-28.855c7.244-21.884,27.7-36.666,50.759-36.666h18.835  c4.316,0,8.541,0.517,12.614,1.51c0,0,0,0,0.01,0c6.778,1.651,13.11,4.6,18.673,8.612c8.906,6.434,15.826,15.603,19.453,26.545  l9.554,28.855c7.862,23.738,30.04,39.756,55.045,39.756c7.903,0,15.339-1.55,22.087-4.326c21.479-8.825,35.937-30.091,35.937-53.556  C438.804,416.753,437.892,410.735,435.957,404.737z M234.025,302.641c-8.703,0-14.924-8.409-12.381-16.737l23.029-75.298  c3.992-13.07,22.502-13.07,26.494,0l23.029,75.298c2.543,8.328-3.678,16.737-12.381,16.737H234.025z"/>
<path style="fill:#FF9811;" d="M435.957,404.737L330.113,76.524c-7.639-23.678-27.994-40.638-52.056-44.295  c-10.436,1.581-20.172,5.664-28.47,11.712c-10.861,7.903-19.27,19.169-23.596,32.583L120.135,404.737  c-9.645,29.919,6.241,60.405,33.1,71.448c4.255-1.743,8.267-3.972,11.965-6.646c9.645-6.981,17.163-16.91,21.094-28.784  l9.544-28.855c7.244-21.884,27.7-36.666,50.759-36.666h18.835c4.316,0,8.541,0.517,12.614,1.51c0,0,0,0,0.01,0  c6.778,1.651,13.11,4.6,18.673,8.612c8.906,6.434,15.826,15.603,19.453,26.545l9.554,28.855  c7.862,23.738,30.04,39.756,55.045,39.756c7.903,0,15.339-1.55,22.087-4.326c21.479-8.825,35.937-30.091,35.937-53.556  C438.804,416.753,437.892,410.735,435.957,404.737z M234.025,302.641c-8.703,0-14.924-8.409-12.381-16.737l23.029-75.298  c3.992-13.07,22.502-13.07,26.494,0l23.029,75.298c2.543,8.328-3.678,16.737-12.381,16.737H234.025z"/>
<g>
	<path style="fill:#96C8EF;" d="M67.275,55.355H36.01c-4.554,0-8.246-3.692-8.246-8.246V15.844c0-4.554,3.692-8.246,8.246-8.246   h31.265c4.554,0,8.246,3.692,8.246,8.246v31.265C75.521,51.663,71.829,55.355,67.275,55.355z"/>
	<path style="fill:#96C8EF;" d="M272.18,55.355h-31.265c-4.554,0-8.246-3.692-8.246-8.246V15.844c0-4.554,3.692-8.246,8.246-8.246   h31.265c4.554,0,8.246,3.692,8.246,8.246v31.265C280.426,51.663,276.734,55.355,272.18,55.355z"/>
	<path style="fill:#96C8EF;" d="M475.99,55.355h-31.265c-4.554,0-8.246-3.692-8.246-8.246V15.844c0-4.554,3.692-8.246,8.246-8.246   h31.265c4.554,0,8.246,3.692,8.246,8.246v31.265C484.236,51.663,480.544,55.355,475.99,55.355z"/>
	<path style="fill:#96C8EF;" d="M67.275,504.4H36.01c-4.554,0-8.246-3.692-8.246-8.246v-31.265c0-4.554,3.692-8.246,8.246-8.246   h31.265c4.554,0,8.246,3.692,8.246,8.246v31.265C75.521,500.708,71.829,504.4,67.275,504.4z"/>
	<path style="fill:#96C8EF;" d="M271.848,504.4h-30.601c-4.738,0-8.578-3.841-8.578-8.578V465.22c0-4.738,3.841-8.578,8.578-8.578   h30.601c4.738,0,8.578,3.841,8.578,8.578v30.601C280.426,500.559,276.585,504.4,271.848,504.4z"/>
	<path style="fill:#96C8EF;" d="M475.99,504.4h-31.265c-4.554,0-8.246-3.692-8.246-8.246v-31.265c0-4.554,3.692-8.246,8.246-8.246   h31.265c4.554,0,8.246,3.692,8.246,8.246v31.265C484.236,500.708,480.544,504.4,475.99,504.4z"/>
	<path style="fill:#96C8EF;" d="M67.275,280.445H36.01c-4.554,0-8.246-3.692-8.246-8.246v-31.265c0-4.554,3.692-8.246,8.246-8.246   h31.265c4.554,0,8.246,3.692,8.246,8.246v31.265C75.521,276.754,71.829,280.445,67.275,280.445z"/>
	<path style="fill:#96C8EF;" d="M475.99,280.445h-31.265c-4.554,0-8.246-3.692-8.246-8.246v-31.265c0-4.554,3.692-8.246,8.246-8.246   h31.265c4.554,0,8.246,3.692,8.246,8.246v31.265C484.236,276.754,480.544,280.445,475.99,280.445z"/>
</g>
<path d="M278.441,208.387c-6.206-20.262-34.842-20.25-41.043,0l-23.019,75.298c-1.925,6.292-0.79,12.938,3.131,18.227  c3.911,5.299,9.939,8.328,16.514,8.328h47.791c13.825,0,23.689-13.339,19.645-26.555L278.441,208.387z M281.815,295.042h-47.791  c-3.595,0-6.161-3.466-5.116-6.92l23.029-75.298c1.813-5.92,10.159-5.902,11.965,0l23.029,75.298  C287.985,291.536,285.43,295.042,281.815,295.042z"/>
<path d="M484.234,62.958c4.205,0,7.599-3.404,7.599-7.599V7.599c0-4.194-3.394-7.599-7.599-7.599h-47.76  c-4.194,0-7.599,3.404-7.599,7.599V23.88H288.026V7.599c0-4.194-3.404-7.599-7.599-7.599h-47.76c-4.194,0-7.599,3.404-7.599,7.599  V23.88H83.125V7.599C83.125,3.404,79.72,0,75.526,0h-47.76c-4.194,0-7.599,3.404-7.599,7.599v47.76c0,4.194,3.404,7.599,7.599,7.599  h16.251v162.136H27.766c-4.194,0-7.599,3.394-7.599,7.599v47.75c0,4.205,3.404,7.599,7.599,7.599h16.251v161.001H27.766  c-4.194,0-7.599,3.404-7.599,7.599v47.76c0,4.194,3.404,7.599,7.599,7.599h47.76c4.194,0,7.599-3.404,7.599-7.599V488.11h141.944  v16.292c0,4.194,3.404,7.599,7.599,7.599h47.76c4.195,0,7.599-3.404,7.599-7.599V488.11h140.849v16.292  c0,4.194,3.404,7.599,7.599,7.599h47.76c4.205,0,7.599-3.404,7.599-7.599v-47.76c0-4.194-3.394-7.599-7.599-7.599h-16.231V288.041  h16.231c4.205,0,7.599-3.394,7.599-7.599v-47.75c0-4.205-3.394-7.599-7.599-7.599h-16.231V62.958H484.234z M240.266,15.197h32.563  c0,11.949,0,20.706,0,32.563h-32.563C240.266,41.087,240.266,25.804,240.266,15.197z M35.364,47.76V15.197h32.563  c0,7.877,0,24.705,0,32.563C60.059,47.76,43.213,47.76,35.364,47.76z M35.364,272.844v-32.553c7.846,0,24.698,0,32.563,0v32.553  C60.045,272.844,43.23,272.844,35.364,272.844z M67.927,496.803H35.364V464.24c7.846,0,24.698,0,32.563,0  C67.927,472.504,67.927,488.556,67.927,496.803z M83.125,472.912v-5.816c1.915,2.067,3.972,4.012,6.14,5.816H83.125z   M272.829,496.803h-32.563c0-7.868,0-24.698,0-32.563h32.563C272.829,472.124,272.829,488.969,272.829,496.803z M428.875,472.912  h-6.109c2.158-1.793,4.205-3.728,6.109-5.785V472.912z M443.191,402.407l-91.235-282.925c-1.297-3.992-5.572-6.19-9.564-4.894  c-4.002,1.287-6.19,5.562-4.904,9.564l91.245,282.915c15.979,49.614-44.02,86.592-81.549,53.009  c-3.131-2.796-7.933-2.523-10.729,0.598c-2.796,3.131-2.533,7.933,0.598,10.729c0.578,0.517,1.155,1.023,1.753,1.51h-50.78v-16.271  c0-4.194-3.404-7.599-7.599-7.599h-47.76c-4.194,0-7.599,3.404-7.599,7.599v16.271h-51.813  c21.075-17.563,21.589-38.322,29.807-58.632c6.221-18.804,23.718-31.448,43.535-31.448h18.835c19.817,0,37.315,12.644,43.535,31.448  l9.503,28.703c1.317,3.982,5.613,6.14,9.605,4.823c3.982-1.317,6.14-5.613,4.823-9.605l-9.503-28.693  c-8.288-25.045-31.58-41.874-57.963-41.874h-18.835c-26.383,0-49.675,16.829-57.973,41.874l-9.544,28.855  c-6.849,20.668-26.069,34.549-47.831,34.549c-27.811,0-50.425-22.553-50.425-50.283c0-13.224,4.143-18.665,18.976-66.747  c1.287-3.992-0.902-8.278-4.894-9.564c-3.992-1.287-8.278,0.912-9.564,4.904l-16.504,51.185  c-5.016,15.477-4.105,32.038,2.371,46.636H59.214V288.041h16.312c4.194,0,7.599-3.394,7.599-7.599v-47.75  c0-4.205-3.404-7.599-7.599-7.599H59.214V62.958h16.312c4.194,0,7.599-3.404,7.599-7.599V39.078h116.128  c-11.246,8.733-19.949,20.81-24.569,35.116L94.675,322.296c-1.59,4.892,2.067,9.929,7.224,9.929c3.212,0,6.201-2.047,7.234-5.268  l80.009-248.092c5.684-17.609,19.169-30.932,35.927-36.666v13.161c0,4.194,3.404,7.599,7.599,7.599h47.76  c4.195,0,7.599-3.404,7.599-7.599V42.573c16.261,5.927,29.301,19.058,34.853,36.291l5.279,16.363  c1.287,3.992,5.572,6.18,9.564,4.894c3.992-1.287,6.19-5.572,4.904-9.564c-4.157-9.558-6.174-33.111-29.848-51.479h116.098v16.281  c0,4.194,3.404,7.599,7.599,7.599h16.332v162.136h-16.332c-4.194,0-7.599,3.394-7.599,7.599v47.75c0,4.205,3.404,7.599,7.599,7.599  h16.332v161.001h-11.986C447.216,434.627,448.266,418.163,443.191,402.407z M476.636,464.24v32.563h-32.563  c0-8.259,0-24.316,0-32.563C451.93,464.24,468.773,464.24,476.636,464.24z M476.636,240.291v32.553c-8.255,0-24.318,0-32.563,0  v-32.553C452.32,240.291,468.384,240.291,476.636,240.291z M444.073,47.76c0-8.247,0-24.302,0-32.563h32.563V47.76  C468.38,47.76,452.318,47.76,444.073,47.76z"/>
<g>
</g>
<g>
</g>
<g>
</g>
<g>
</g>
<g>
</g>
<g>
</g>
<g>
</g>
<g>
</g>
<g>
</g>
<g>
</g>
<g>
</g>
<g>
</g>
<g>
</g>
<g>
</g>
<g>
</g>
</svg>
