<?xml version="1.0" encoding="iso-8859-1"?>
<!-- Generator: Adobe Illustrator 19.0.0, SVG Export Plug-In . SVG Version: 6.00 Build 0)  -->
<svg xmlns="http://www.w3.org/2000/svg" xmlns:xlink="http://www.w3.org/1999/xlink" version="1.1" id="Capa_1" x="0px" y="0px" viewBox="0 0 512 512" style="enable-background:new 0 0 512 512;" xml:space="preserve">
<path style="fill:#D8D7DA;" d="M389.276,157.78v299.606c0,3.519-0.396,6.947-1.136,10.254c-4.706,20.974-23.54,36.755-45.872,36.755  H169.732c-25.852,0-47.008-21.146-47.008-47.008V157.78c0-0.943,0.061-1.886,0.183-2.799c1.369-10.953,10.71-19.412,22.028-19.412  h222.131c11.319,0,20.669,8.469,22.028,19.422C389.216,155.903,389.276,156.836,389.276,157.78z"/>
<path style="fill:#E0E0E2;" d="M389.276,157.78v299.606c0,3.519-0.396,6.947-1.136,10.254c-1.582,0.162-3.174,0.243-4.797,0.243  H210.807c-25.852,0-47.008-21.146-47.008-47.008V135.568h203.267c11.319,0,20.669,8.469,22.028,19.422  C389.216,155.903,389.276,156.836,389.276,157.78z"/>
<path style="fill:#96C8EF;" d="M367.062,135.566H144.938c-12.268,0-22.212,9.945-22.212,22.212v31.51h32.368  c11.412,0,20.662,9.252,20.662,20.662v56.61c0,12.711,9.615,23.648,22.29,24.598c7.333,0.55,14.081-2.252,18.849-7.008  c4.37-4.38,7.077-10.404,7.077-17.037l0.02,70.429c0,13.256,10.848,24.104,24.104,24.104c6.633,0,12.656-2.717,17.037-7.077  c4.36-4.37,7.077-10.394,7.077-17.026V209.953c0-11.412,9.251-20.662,20.662-20.662h6.86c11.412,0,20.662,9.252,20.662,20.662v56.61  c0,12.711,9.615,23.648,22.29,24.598c7.333,0.55,14.081-2.252,18.849-7.008c4.37-4.38,7.077-10.404,7.077-17.037v-57.164  c0-11.412,9.251-20.662,20.662-20.662l0,0V157.78C389.274,145.512,379.33,135.566,367.062,135.566z"/>
<path style="fill:#C6C5CA;" d="M321.193,19.777v30.264c0,6.694-5.477,12.17-12.17,12.17H202.978c-6.694,0-12.17-5.477-12.17-12.17  V19.777c0-6.694,5.477-12.17,12.17-12.17h106.045C315.716,7.607,321.193,13.083,321.193,19.777z"/>
<path style="fill:#D8D7DA;" d="M321.193,19.777v14.037H237.46c-6.694,0-12.17-5.477-12.17-12.17V7.607h83.733  C315.716,7.607,321.193,13.083,321.193,19.777z"/>
<g>
	<path style="fill:#78B9EB;" d="M248.099,327.334c-13.256,0-24.108-10.852-24.108-24.108l-0.019-66.084   c-0.207-0.413-0.389-0.03-0.389-0.03c-0.895,4.913-3.289,9.317-6.691,12.727c-4.767,4.757-11.511,7.556-18.844,7.008   c-12.678-0.953-22.292-11.886-22.292-24.594v34.311c0,12.708,9.615,23.651,22.292,24.594c7.333,0.558,14.077-2.252,18.844-7.008   c4.371-4.381,7.079-10.396,7.079-17.028l0.02,70.426c0,13.256,10.852,24.097,24.108,24.097c6.633,0,12.657-2.718,17.039-7.069   c4.351-4.371,7.069-10.396,7.069-17.028v-34.321c0,6.633-2.718,12.657-7.069,17.028   C260.757,324.616,254.732,327.334,248.099,327.334z"/>
	<path style="fill:#78B9EB;" d="M361.538,249.839c-4.767,4.757-11.521,7.556-18.854,7.008   c-12.678-0.953-22.292-11.886-22.292-24.594v34.311c0,12.708,9.615,23.651,22.292,24.594c7.333,0.558,14.087-2.252,18.854-7.008   c4.371-4.381,7.069-10.396,7.069-17.028V232.8C368.607,239.433,365.909,245.457,361.538,249.839z"/>
</g>
<path d="M328.81,28.195v-8.418C328.81,8.864,319.935,0,309.033,0h-52.414c-4.199,0-7.607,3.398-7.607,7.607  c0,4.199,3.408,7.607,7.607,7.607h52.414c2.465,0,4.564,2.089,4.564,4.564c0,18.669,0,11.752,0,30.264  c0,2.475-2.099,4.564-4.564,4.564H202.967c-2.465,0-4.564-2.089-4.564-4.564c0-16.809,0-11.964,0-30.264  c0-2.475,2.099-4.564,4.564-4.564h23.225c4.199,0,7.607-3.408,7.607-7.607c0-4.209-3.408-7.607-7.607-7.607h-23.225  c-10.903,0-19.777,8.864-19.777,19.777v8.418C119.874,33.327,70.056,82.201,70.056,141.562v55.67  c0,17.688,15.456,32.079,34.463,32.079h10.598v228.074c0,30.122,24.503,54.615,54.615,54.615h172.536  c30.112,0,54.615-24.493,54.615-54.615V229.311h10.598c19.006,0,34.463-14.392,34.463-32.079v-55.67  C441.944,82.201,392.126,33.327,328.81,28.195z M381.67,182.719c-11.907,3.337-20.659,14.28-20.659,27.231v57.171  c0,9.443-8.096,17.179-17.759,16.45c-8.55-0.639-15.254-8.114-15.254-17.008v-0.456c0-4.199-3.398-7.607-7.607-7.607  c-4.199,0-7.607,3.408-7.607,7.607v0.456c0,16.815,12.891,30.953,29.331,32.181c18.391,1.397,34.108-13.23,34.108-31.623V209.95  c0-4.361,2.15-8.235,5.446-10.598v258.033c0,21.734-17.678,39.402-39.402,39.402H169.732c-21.724,0-39.402-17.667-39.402-39.402  V196.897h24.767c7.191,0,13.053,5.852,13.053,13.053v47.657c0,4.199,3.408,7.607,7.607,7.607c4.199,0,7.607-3.408,7.607-7.607  V209.95c0-15.588-12.678-28.266-28.266-28.266H130.33V157.78c0-8.053,6.552-14.605,14.605-14.605  c238.521,0,222.46-0.022,223.175,0.041c3.33,0.196,6.852,1.692,9.767,4.746c0.01,0.02,0.03,0.051,0.061,0.071  C383.933,154.884,380.817,160.356,381.67,182.719z M426.731,197.232c0,9.3-8.641,16.866-19.25,16.866h-10.598  c0-58.91,2.398-65.766-8.337-76.968c-0.01,0-0.01-0.01-0.01-0.01c-4.23-4.598-10.731-8.096-18.296-8.986  c-2.409-0.268,11.725-0.172-225.305-0.172c-16.44,0-29.818,13.377-29.818,29.818c0,11.792,0,44.564,0,56.319h-10.598  c-10.609,0-19.25-7.566-19.25-16.866v-55.67c0-51.004,43.002-93.084,97.921-98.114v6.592c0,10.903,8.874,19.777,19.777,19.777  h106.065c10.903,0,19.777-8.874,19.777-19.777v-6.592c54.919,5.03,97.921,47.11,97.921,98.114L426.731,197.232L426.731,197.232z"/>
<path d="M272.988,333.064c-4.168-0.527-7.982,2.414-8.519,6.572c-1.023,8.029-7.958,14.402-16.369,14.402  c-9.097,0-16.501-7.394-16.501-16.491l-0.02-70.436c0-4.199-3.408-7.596-7.607-7.596c-4.199,0-7.607,3.398-7.607,7.607  c0,14.04-16.558,21.59-26.998,12.596c-3.185-2.738-7.982-2.373-10.72,0.811c-2.748,3.185-2.383,7.992,0.801,10.73  c10.757,9.244,25.737,9.803,36.927,2.931l0.01,43.357c0,28.13,34.133,42.322,54.128,22.394c4.949-4.959,8.164-11.481,9.047-18.367  C280.097,337.415,277.146,333.602,272.988,333.064z"/>
<path d="M299.732,181.684h-6.856c-15.588,0-28.276,12.678-28.276,28.266v100.244c0,4.199,3.408,7.607,7.607,7.607  s7.607-3.408,7.607-7.607V209.95c0-7.201,5.862-13.053,13.063-13.053h6.856c7.201,0,13.053,5.852,13.053,13.053v25.73  c0,4.209,3.408,7.607,7.607,7.607c4.209,0,7.607-3.398,7.607-7.607v-25.73C327.998,194.362,315.321,181.684,299.732,181.684z"/>
<g>
</g>
<g>
</g>
<g>
</g>
<g>
</g>
<g>
</g>
<g>
</g>
<g>
</g>
<g>
</g>
<g>
</g>
<g>
</g>
<g>
</g>
<g>
</g>
<g>
</g>
<g>
</g>
<g>
</g>
</svg>
