<?xml version="1.0" encoding="iso-8859-1"?>
<!-- Generator: Adobe Illustrator 19.0.0, SVG Export Plug-In . SVG Version: 6.00 Build 0)  -->
<svg xmlns="http://www.w3.org/2000/svg" xmlns:xlink="http://www.w3.org/1999/xlink" version="1.1" id="Capa_1" x="0px" y="0px" viewBox="0 0 512 512" style="enable-background:new 0 0 512 512;" xml:space="preserve">
<path style="fill:#787680;" d="M242.602,34.773v39.835c0,5.843-4.169,10.763-9.687,11.919c-0.801,0.162-1.633,0.254-2.485,0.254  h-29.985c-6.695,0-12.173-5.478-12.173-12.173V34.773c0-14.942,12.223-27.165,27.165-27.165c6.634,0,12.751,2.414,17.478,6.421  c0.588,0.497,1.156,1.014,1.704,1.562C239.549,20.511,242.602,27.297,242.602,34.773z"/>
<path style="fill:#898890;" d="M242.602,34.773v39.835c0,5.843-4.169,10.763-9.687,11.919c-5.518-1.156-9.697-6.076-9.697-11.919  V34.773c0-8.308,3.773-15.764,9.697-20.744c0.588,0.497,1.156,1.014,1.704,1.562C239.549,20.511,242.602,27.297,242.602,34.773z"/>
<path style="fill:#C6C5CA;" d="M308.162,146.345v329.746c0,15.003-11.686,27.581-26.658,28.261c-0.558,0.03-1.116,0.041-1.674,0.041  H150.821c-0.477,0-0.943-0.01-1.42-0.03c-14.982-0.578-26.678-13.248-26.678-28.251V146.345c0-43.801,35.838-79.629,79.629-79.629  h26.181c1.227,0,2.445,0.03,3.652,0.091C274.302,68.724,308.162,103.771,308.162,146.345z"/>
<path style="fill:#D8D7DA;" d="M308.162,146.345v329.746c0,15.003-11.686,27.581-26.658,28.261c-0.558,0.03-1.116,0.041-1.674,0.041  h-95.535c-0.477,0-0.943-0.01-1.42-0.03c-14.982-0.578-26.678-13.248-26.678-28.251V146.345c0-42.584,33.87-77.621,75.987-79.538  C274.302,68.724,308.162,103.771,308.162,146.345z"/>
<path style="fill:#3FA45A;" d="M308.162,179.069v298.179c0,14.389-11.686,26.453-26.658,27.105  c-0.558,0.029-1.116,0.039-1.674,0.039H150.821c-0.477,0-0.943-0.01-1.42-0.029c-14.982-0.555-26.678-12.706-26.678-27.095V179.069  H308.162z"/>
<path style="fill:#4CBA68;" d="M308.162,179.069v263.339c0,14.389-11.686,26.453-26.658,27.105  c-0.558,0.029-1.116,0.039-1.674,0.039h-95.535c-0.477,0-0.943-0.01-1.42-0.029c-14.982-0.555-26.678-12.706-26.678-27.095V179.069  H308.162z"/>
<path style="fill:#3FA45A;" d="M308.162,254.641v167.373h-54.888c-14.232,0-25.867-11.645-25.867-25.867v-115.64  c0-13.004,9.748-23.879,22.316-25.613c1.156-0.172,2.343-0.254,3.55-0.254H308.162z"/>
<path d="M250.21,61.837V34.773c0-18.979-15.439-34.58-34.418-34.773h-0.081c-4.169,0-7.567,3.358-7.608,7.537  c-0.041,4.2,3.337,7.638,7.537,7.679c9.434,0.101,17.305,6.949,19.01,15.916c0.001,0.004,0.001,0.008,0.002,0.012  c-0.904-0.326-1.874-0.512-2.889-0.512c-4.715,0-8.538,3.822-8.538,8.538c0,4.715,3.822,8.538,8.538,8.538  c1.145,0,2.235-0.229,3.233-0.638v12.272c-2.13-0.152-4.291-0.233-6.462-0.233h-26.181c-2.161,0-4.321,0.081-6.472,0.243V34.773  c0-3.033,0.69-5.954,2.039-8.663c1.877-3.753,0.355-8.328-3.408-10.205c-3.753-1.877-8.328-0.345-10.205,3.408  c-2.414,4.839-3.642,10.042-3.642,15.459v27.094c-7.699,1.988-15.114,5.031-22.032,9.058c-3.631,2.11-4.859,6.766-2.739,10.397  c2.12,3.632,6.776,4.859,10.397,2.739c4.626-2.698,9.525-4.849,14.607-6.441c4.859-1.532,9.89-2.536,14.982-2.992  c2.15-0.203,4.311-0.304,6.472-0.304h26.181c2.181,0,4.331,0.101,6.462,0.294c5.173,0.456,10.195,1.471,14.993,2.972  c29.265,9.15,50.567,36.508,50.567,68.755v21.586c0,2.475-2.09,4.565-4.565,4.565H134.896c-2.475,0-4.565-2.09-4.565-4.565v-21.586  c0-16.179,5.295-31.486,15.327-44.278c2.587-3.307,2.008-8.085-1.298-10.681c-3.297-2.587-8.085-2.019-10.681,1.288  c-12.142,15.5-18.563,34.063-18.563,53.671v320.434c0,24.934,19.933,45.221,44.43,45.221h21.464c4.2,0,7.608-3.408,7.608-7.608  c0-4.21-3.408-7.608-7.608-7.608h-21.464c-16.108,0-29.214-13.461-29.214-30.005V187.174c1.461,0.355,2.992,0.538,4.565,0.538  H295.99c1.572,0,3.094-0.183,4.565-0.538v59.859h-47.28c-18.462,0-33.475,15.023-33.475,33.475v115.64  c0,18.452,15.013,33.475,33.475,33.475h47.28v37.157c0,16.545-13.106,30.005-29.224,30.005h-59.889c-4.2,0-7.608,3.398-7.608,7.608  c0,4.2,3.408,7.608,7.608,7.608h59.889c24.508,0,44.44-20.288,44.44-45.221v-44.765V254.641V146.345  C315.77,105.719,287.864,71.494,250.21,61.837z M300.554,414.406h-47.28c-10.063,0-18.259-8.196-18.259-18.259v-115.64  c0-10.063,8.196-18.259,18.259-18.259h47.28V414.406z"/>
<path d="M389.982,86.471c-4.728-3.935-10.568-7.783-17.357-11.436c-3.701-1.99-8.313-0.604-10.304,3.095  c-1.991,3.7-0.606,8.314,3.095,10.305c5.896,3.171,10.885,6.445,14.831,9.731c1.422,1.184,3.149,1.761,4.864,1.761  c2.181,0,4.347-0.933,5.851-2.741C393.649,93.956,393.21,89.159,389.982,86.471z"/>
<path d="M294.831,48.66c-11.491-2.556-19.087-3.82-19.405-3.873c-4.152-0.686-8.061,2.119-8.747,6.263  c-0.687,4.145,2.117,8.061,6.262,8.749c0.074,0.012,7.538,1.257,18.586,3.715c0.557,0.124,1.113,0.183,1.66,0.183  c3.487,0,6.631-2.412,7.419-5.957C301.518,53.638,298.932,49.573,294.831,48.66z"/>
<path d="M343.636,62.456c-5.865-2.095-12.182-4.142-18.773-6.083c-4.035-1.187-8.262,1.12-9.447,5.15  c-1.187,4.03,1.119,8.26,5.149,9.447c6.317,1.859,12.356,3.816,17.951,5.815c0.846,0.302,1.71,0.445,2.559,0.445  c3.124,0,6.053-1.94,7.165-5.051C349.654,68.222,347.593,63.87,343.636,62.456z"/>
<path d="M273.27,40.153c0.365,0,0.735-0.026,1.107-0.081l19.072-2.778c4.159-0.607,7.038-4.467,6.432-8.625  s-4.471-7.036-8.625-6.431l-19.072,2.779c-4.159,0.606-7.038,4.467-6.432,8.625C266.303,37.428,269.555,40.153,273.27,40.153z"/>
<path d="M340.441,15.07l-19.071,2.779c-4.159,0.606-7.038,4.467-6.432,8.625c0.552,3.786,3.803,6.511,7.519,6.511  c0.365,0,0.735-0.026,1.107-0.081l19.071-2.779c4.159-0.606,7.038-4.467,6.432-8.625C348.46,17.343,344.596,14.465,340.441,15.07z"/>
<path d="M395.979,6.087c-1.985-3.703-6.597-5.094-10.3-3.108c-4.811,2.581-10.359,4.854-16.489,6.758  c-4.013,1.246-6.256,5.509-5.01,9.521c1.013,3.262,4.019,5.354,7.264,5.354c0.747,0,1.506-0.111,2.258-0.344  c7.055-2.19,13.504-4.842,19.169-7.88C396.574,14.401,397.965,9.79,395.979,6.087z"/>
<g>
</g>
<g>
</g>
<g>
</g>
<g>
</g>
<g>
</g>
<g>
</g>
<g>
</g>
<g>
</g>
<g>
</g>
<g>
</g>
<g>
</g>
<g>
</g>
<g>
</g>
<g>
</g>
<g>
</g>
</svg>
