<?xml version="1.0" encoding="iso-8859-1"?>
<!-- Generator: Adobe Illustrator 19.0.0, SVG Export Plug-In . SVG Version: 6.00 Build 0)  -->
<svg xmlns="http://www.w3.org/2000/svg" xmlns:xlink="http://www.w3.org/1999/xlink" version="1.1" id="Capa_1" x="0px" y="0px" viewBox="0 0 512.001 512.001" style="enable-background:new 0 0 512.001 512.001;" xml:space="preserve">
<path style="fill:#D8D7DA;" d="M500.498,263.633c-27.409,29.486-110.384,108.144-222.704,117.429  c-77.553,6.406-169.114-20.252-266.037-119.03c-5.352-5.453-5.555-14.11-0.487-19.837c28.858-32.598,128.406-129.896,273.578-109.32  c63.514,8.991,135.755,40.545,214.636,109.958C505.617,248.236,506.073,257.653,500.498,263.633z"/>
<path style="fill:#E0E0E2;" d="M500.498,263.633c-27.409,29.486-110.384,108.144-222.704,117.429  c-62.967-9.457-132.583-42.988-205.219-117.003c-5.352-5.453-5.555-14.11-0.487-19.837  c24.621-27.814,100.734-102.762,212.761-111.347c63.514,8.991,135.755,40.545,214.636,109.958  C505.617,248.236,506.073,257.653,500.498,263.633z"/>
<path style="fill:#3E3D42;" d="M339.412,347.146c-14.15,12.974-31.524,22.817-51.33,28.148  c-65.886,17.718-133.657-21.337-151.375-87.213c-16.634-61.852,16.765-125.355,75.414-147.554c3.821-1.46,7.764-2.737,11.799-3.821  c65.886-17.718,133.657,21.337,151.375,87.213C387.681,269.999,372.304,317,339.412,347.146z"/>
<path style="fill:#57565C;" d="M339.412,347.146c-3.821,1.46-7.764,2.737-11.799,3.821  c-65.886,17.718-133.657-21.337-151.375-87.213c-12.387-46.08,2.99-93.082,35.882-123.227c3.821-1.46,7.764-2.737,11.799-3.821  c65.886-17.718,133.657,21.337,151.375,87.213C387.681,269.999,372.304,317,339.412,347.146z"/>
<path style="fill:#1D1D1F;" d="M294.61,264.454c-1.176,5.463-3.548,10.755-7.156,15.488c-13.228,17.374-38.031,20.739-55.395,7.511  c-17.374-13.228-20.739-38.031-7.511-55.395c6.203-8.139,14.941-13.208,24.266-14.921c10.582-1.966,21.904,0.385,31.129,7.41  C292.572,234.167,297.803,249.908,294.61,264.454z"/>
<circle style="fill:#E0E0E2;" cx="309.36" cy="194.728" r="22.245"/>
<path d="M504.506,236.853c-16.244-14.296-32.74-27.444-49.027-39.077c-3.418-2.44-8.164-1.648-10.605,1.768  c-2.441,3.417-1.649,8.165,1.768,10.605c15.871,11.336,31.96,24.161,47.82,38.119c2.969,2.613,3.094,7.098,0.473,9.917  c-19.714,21.2-79.963,79.803-163.22,104.59c71.727-50.812,74.056-155.732,5.59-209.896c28.081,9.345,56.296,22.884,84.472,40.58  c3.556,2.235,8.248,1.161,10.481-2.394c2.233-3.556,1.162-8.248-2.394-10.481C319.385,111.195,200.265,99.33,87.69,168.286  c-40.673,24.913-68.906,53.674-82.118,68.6c-7.601,8.593-7.498,21.78,0.76,30.197c40.589,41.364,82.8,72.652,125.458,92.992  c1.056,0.504,2.17,0.742,3.267,0.742c8.081,0,10.554-10.997,3.277-14.466c-41.049-19.573-81.809-49.826-121.15-89.917  c-2.597-2.646-2.604-6.783-0.226-9.471c18.987-21.454,80.419-83.406,170.943-103.332c-17.375,10.54-32.165,25.064-43.148,42.671  c-2.222,3.562-1.136,8.252,2.427,10.474c3.562,2.223,8.251,1.136,10.474-2.427c21.486-34.444,58.924-54.58,98.423-54.58  c63.77,0,115.882,51.963,115.882,116.036c0,52.277-35.306,98.281-85.856,111.875c-62.135,16.707-125.526-20.382-142.054-81.849  c-2.66-9.89-4.008-20.043-4.008-30.179c0-12.046,1.885-23.985,5.605-35.486c1.291-3.995-0.899-8.28-4.895-9.573  c-3.994-1.292-8.28,0.9-9.573,4.895c-4.209,13.014-6.342,26.528-6.342,40.165c0,11.468,1.523,22.95,4.529,34.127  c8.12,30.199,26.471,55.583,50.691,72.819c-4.809-1.458-9.604-3.039-14.381-4.772c-3.947-1.432-8.307,0.607-9.739,4.553  c-1.432,3.947,0.607,8.308,4.553,9.739c89.086,32.322,177.131,17.423,257.055-31.347c42.957-26.212,73.901-56.506,88.523-72.231  C514.62,259.342,513.777,245.013,504.506,236.853z"/>
<path d="M212.05,272.762c1.515,3.917,5.92,5.862,9.833,4.348c3.916-1.514,5.863-5.917,4.348-9.833  c-11.564-29.899,23.48-56.471,49.111-36.954c24.149,18.386,11.22,57.332-19.37,57.332c-4.647,0-9.132-0.983-13.328-2.921  c-3.811-1.762-8.329-0.096-10.09,3.715c-1.761,3.811-0.097,8.329,3.715,10.09c19.289,8.908,43.314,4.019,57.231-14.26  c23.263-30.553,1.92-75.686-37.47-75.686C222.813,208.592,200.118,241.91,212.05,272.762z"/>
<path d="M315.327,223.696L315.327,223.696c16.125-3.293,26.565-19.09,23.273-35.215c-5.27-25.814-39.435-32.74-54.145-10.486  C269.901,200.019,289.266,229.014,315.327,223.696z M297.141,186.378c7.213-10.915,23.978-7.522,26.563,5.144  c1.615,7.911-3.506,15.662-11.418,17.276l0,0C299.438,211.423,290.024,197.145,297.141,186.378z"/>
<path d="M256.002,89.154c4.198,0,7.602-3.404,7.602-7.602V31.379c0-4.198-3.404-7.602-7.602-7.602c-4.198,0-7.602,3.404-7.602,7.602  v50.173C248.399,85.75,251.803,89.154,256.002,89.154z"/>
<path d="M150.005,101.276c1.124,3.088,4.039,5.004,7.144,5.004c5.247,0,8.953-5.231,7.143-10.204l-17.16-47.146  c-1.437-3.946-5.799-5.979-9.744-4.544c-3.946,1.436-5.979,5.799-4.544,9.744L150.005,101.276z"/>
<path d="M58.211,145.354c1.503,1.792,3.657,2.716,5.827,2.716c6.369,0,9.999-7.507,5.819-12.489l-32.25-38.434  c-2.699-3.216-7.495-3.636-10.71-0.937c-3.216,2.698-3.636,7.494-0.937,10.71L58.211,145.354z"/>
<path d="M440.648,150.447c3.237,2.717,8.029,2.258,10.71-0.937l32.25-38.434c2.699-3.216,2.28-8.012-0.937-10.71  c-3.216-2.699-8.011-2.281-10.71,0.937l-32.25,38.434C437.012,142.953,437.431,147.749,440.648,150.447z"/>
<path d="M354.748,106.873c3.105,0,6.021-1.917,7.144-5.004l17.16-47.147c1.436-3.945-0.598-8.308-4.544-9.744  c-3.945-1.437-8.309,0.599-9.744,4.544l-17.16,47.148C345.796,101.64,349.498,106.873,354.748,106.873z"/>
<path d="M253.568,422.847c-4.198,0-7.602,3.404-7.602,7.602v50.173c0,4.198,3.404,7.602,7.602,7.602  c4.198,0,7.602-3.404,7.602-7.602v-50.173C261.17,426.25,257.766,422.847,253.568,422.847z"/>
<path d="M359.564,410.725c-1.436-3.946-5.801-5.98-9.744-4.544c-3.946,1.436-5.979,5.799-4.544,9.744l17.16,47.147  c1.439,3.954,5.808,5.977,9.744,4.544c3.946-1.436,5.979-5.799,4.544-9.744L359.564,410.725z"/>
<path d="M451.358,366.647c-2.699-3.216-7.495-3.636-10.71-0.937c-3.216,2.698-3.636,7.494-0.937,10.71l32.25,38.434  c1.503,1.792,3.657,2.715,5.827,2.715c6.369,0,9.999-7.507,5.819-12.489L451.358,366.647z"/>
<path d="M68.921,361.552c-3.216-2.699-8.012-2.281-10.71,0.937l-32.25,38.434c-2.699,3.216-2.28,8.012,0.937,10.71  c3.237,2.715,8.029,2.259,10.71-0.937l32.25-38.434C72.557,369.046,72.138,364.251,68.921,361.552z"/>
<path d="M157.421,405.588c-3.944-1.436-8.308,0.599-9.744,4.544l-17.16,47.146c-1.436,3.945,0.598,8.308,4.544,9.744  c3.954,1.438,8.311-0.608,9.744-4.544l17.16-47.146C163.401,411.386,161.366,407.024,157.421,405.588z"/>
<g>
</g>
<g>
</g>
<g>
</g>
<g>
</g>
<g>
</g>
<g>
</g>
<g>
</g>
<g>
</g>
<g>
</g>
<g>
</g>
<g>
</g>
<g>
</g>
<g>
</g>
<g>
</g>
<g>
</g>
</svg>
