<?xml version="1.0" encoding="iso-8859-1"?>
<!-- Generator: Adobe Illustrator 19.0.0, SVG Export Plug-In . SVG Version: 6.00 Build 0)  -->
<svg xmlns="http://www.w3.org/2000/svg" xmlns:xlink="http://www.w3.org/1999/xlink" version="1.1" id="Capa_1" x="0px" y="0px" viewBox="0 0 512 512" style="enable-background:new 0 0 512 512;" xml:space="preserve">
<path style="fill:#C2DFF6;" d="M7.541,134.863c0,0.608,0.02,1.217,0.03,1.825h-0.03V134.863z"/>
<path style="fill:#D1E7F8;" d="M504.395,107.099v335.303l-458.042,0.03c-0.375,0-0.75-0.01-1.126-0.01  c-20.544-0.588-37.083-17.178-37.611-37.732c-0.01-0.335-0.01-0.669-0.01-1.004V107.099H504.395z"/>
<path style="fill:#64C37D;" d="M476.032,279.648v87.593c0,3.61-2.931,6.541-6.541,6.541H151.073c-3.61,0-6.541-2.931-6.541-6.541  v-87.593c0-3.62,2.931-6.551,6.541-6.551h318.419C473.102,273.097,476.032,276.028,476.032,279.648z"/>
<path style="fill:#7CCC92;" d="M476.032,278.958v52.972c0,3.23-2.931,5.852-6.541,5.852H151.073c-3.61,0-6.541-2.622-6.541-5.852  v-52.972c0-3.239,2.931-5.861,6.541-5.861h318.419C473.102,273.097,476.032,275.719,476.032,278.958z"/>
<path style="fill:#B3D8F4;" d="M114.862,89.23v258.094c0,10.859-8.803,19.662-19.662,19.662H44.903  c-18.963,0-34.751,14.339-37.002,32.733H7.617V108.488h0.03c-0.01-0.375-0.03-0.75-0.03-1.126v-0.507  c0-20.508,16.779-37.286,37.286-37.286H95.2C106.059,69.569,114.862,78.372,114.862,89.23z"/>
<path style="fill:#96C8EF;" d="M45.228,69.569v297.418h-0.324c-18.963,0-34.751,14.339-37.002,32.733H7.617V108.488h0.03  c-0.01-0.375-0.03-0.75-0.03-1.126v-0.507c0-20.504,16.782-37.286,37.286-37.286L45.228,69.569L45.228,69.569z"/>
<path d="M504.395,99.493H122.467V69.569c0-4.198-3.407-7.605-7.605-7.605H44.903c-24.753,0-44.892,20.139-44.892,44.892  c-0.01,0.02-0.01,0.03,0,0.051c-0.017,0.102-0.01-4.973-0.01,296.779c0,25.564,20.798,46.352,46.362,46.352l149.53-0.01  c4.198,0,7.605-3.407,7.605-7.605s-3.407-7.605-7.605-7.605l-149.54,0.01c-17.168,0-31.141-13.963-31.141-31.141l0.233-3.042  c1.825-14.856,14.491-26.051,29.458-26.051h14.095c4.198,0,7.605-3.407,7.605-7.605c0-4.198-3.407-7.605-7.605-7.605  c-7.814,0.92-26.509-4.005-43.776,11.236c0.336-277.74-0.836-264.207,0.923-271.124c3.285-12.817,14.927-22.319,28.758-22.319  h62.353c0,35.964,0,250.23,0,282.207H89.42c-4.198,0-7.605,3.407-7.605,7.605c0,4.198,3.407,7.605,7.605,7.605h25.442  c2.018,0,3.945-0.801,5.374-2.231s2.231-3.356,2.231-5.374V114.704H496.79v68.326c0,4.198,3.397,7.605,7.605,7.605  c4.198,0,7.605-3.407,7.605-7.605v-75.931C512,102.9,508.593,99.493,504.395,99.493z"/>
<path d="M504.395,205.846c-4.208,0-7.605,3.407-7.605,7.605v221.345l-270.475,0.02c-4.198,0-7.605,3.407-7.605,7.605  s3.407,7.605,7.605,7.605l278.08-0.02c4.198,0,7.605-3.407,7.605-7.605v-228.95C512,209.253,508.593,205.846,504.395,205.846z"/>
<path d="M136.927,273.101v100.682c0,4.2,3.404,7.605,7.605,7.605h207.984c4.201,0,7.605-3.405,7.605-7.605s-3.404-7.605-7.605-7.605  H152.138v-85.471h6.305v38.374c0,4.2,3.404,7.605,7.605,7.605c4.201,0,7.605-3.405,7.605-7.605v-38.374h8.839v16.888  c0,4.2,3.404,7.605,7.605,7.605s7.605-3.405,7.605-7.605v-16.888h8.839v16.888c0,4.2,3.404,7.605,7.605,7.605  s7.605-3.405,7.605-7.605v-16.888h8.839v16.888c0,4.2,3.404,7.605,7.605,7.605s7.605-3.405,7.605-7.605v-16.888h8.839v38.374  c0,4.2,3.404,7.605,7.605,7.605s7.605-3.405,7.605-7.605v-38.374h8.84v16.888c0,4.2,3.404,7.605,7.605,7.605  s7.605-3.405,7.605-7.605v-16.888h8.839v16.888c0,4.2,3.404,7.605,7.605,7.605c4.201,0,7.605-3.405,7.605-7.605v-16.888h8.839  v16.888c0,4.2,3.404,7.605,7.605,7.605s7.605-3.405,7.605-7.605v-16.888h8.839v38.374c0,4.2,3.404,7.605,7.605,7.605  s7.605-3.405,7.605-7.605v-38.374h8.84v16.888c0,4.2,3.404,7.605,7.605,7.605s7.605-3.405,7.605-7.605v-16.888h8.839v16.888  c0,4.2,3.404,7.605,7.605,7.605s7.605-3.405,7.605-7.605v-16.888h8.839v16.888c0,4.2,3.404,7.605,7.605,7.605  s7.605-3.405,7.605-7.605v-16.888h8.839v38.374c0,4.2,3.404,7.605,7.605,7.605s7.605-3.405,7.605-7.605v-38.374h6.172v85.471  h-85.488c-4.201,0-7.605,3.405-7.605,7.605s3.404,7.605,7.605,7.605h93.093c4.201,0,7.605-3.405,7.605-7.605V273.101  c0-4.2-3.404-7.605-7.605-7.605H144.533C140.332,265.496,136.927,268.901,136.927,273.101z"/>
<path d="M270.781,199.883h9.126c15.656,0,28.393-12.737,28.393-28.393v-2.028c0-15.656-12.737-28.393-28.393-28.393H156.701  c-4.201,0-7.605,3.405-7.605,7.605s3.404,7.605,7.605,7.605h123.206c7.269,0,13.183,5.914,13.183,13.183v2.028  c0,7.269-5.914,13.183-13.183,13.183h-9.126c-15.656,0-28.393,12.737-28.393,28.393s12.737,28.393,28.393,28.393h152.613  c4.201,0,7.605-3.405,7.605-7.605s-3.404-7.605-7.605-7.605H270.781c-7.269,0-13.183-5.914-13.183-13.183  C257.598,205.797,263.512,199.883,270.781,199.883z"/>
<g>
</g>
<g>
</g>
<g>
</g>
<g>
</g>
<g>
</g>
<g>
</g>
<g>
</g>
<g>
</g>
<g>
</g>
<g>
</g>
<g>
</g>
<g>
</g>
<g>
</g>
<g>
</g>
<g>
</g>
</svg>
