<?xml version="1.0" encoding="iso-8859-1"?>
<!-- Generator: Adobe Illustrator 19.0.0, SVG Export Plug-In . SVG Version: 6.00 Build 0)  -->
<svg xmlns="http://www.w3.org/2000/svg" xmlns:xlink="http://www.w3.org/1999/xlink" version="1.1" id="Capa_1" x="0px" y="0px" viewBox="0 0 512 512" style="enable-background:new 0 0 512 512;" xml:space="preserve">
<path style="fill:#B3D8F4;" d="M504.396,133.784v281.225c0,4.562-0.73,8.952-2.068,13.069c-5.495,16.84-21.332,29.007-40.007,29.007  H49.679c-23.238,0-42.075-18.838-42.075-42.075V133.784c0-18.625,12.106-34.431,28.885-39.956c0.517-0.172,1.044-0.335,1.571-0.487  c3.69-1.065,7.584-1.632,11.619-1.632h412.642C485.559,91.709,504.396,110.546,504.396,133.784z"/>
<path style="fill:#D1E7F8;" d="M504.396,133.784v275.142c0,4.562-0.73,8.952-2.068,13.069c-3.69,1.065-7.584,1.632-11.619,1.632  H78.067c-23.238,0-42.075-18.838-42.075-42.075V100.327c0-2.21,0.172-4.38,0.497-6.499c0.517-0.172,1.044-0.335,1.571-0.487  c3.69-1.065,7.584-1.632,11.619-1.632h412.642C485.559,91.709,504.396,110.546,504.396,133.784z"/>
<g>
	<path style="fill:#ACABB1;" d="M134.844,69.11v43.596c0,7.807-6.387,14.194-14.194,14.194s-14.194-6.387-14.194-14.194V69.11   c0-7.807,6.387-14.194,14.194-14.194S134.844,61.303,134.844,69.11z"/>
	<path style="fill:#ACABB1;" d="M225.077,69.11v43.596c0,7.807-6.387,14.194-14.194,14.194s-14.194-6.387-14.194-14.194V69.11   c0-7.807,6.387-14.194,14.194-14.194S225.077,61.303,225.077,69.11z"/>
	<path style="fill:#ACABB1;" d="M315.311,69.11v43.596c0,7.807-6.387,14.194-14.194,14.194c-7.807,0-14.194-6.387-14.194-14.194   V69.11c0-7.807,6.387-14.194,14.194-14.194C308.924,54.916,315.311,61.303,315.311,69.11z"/>
	<path style="fill:#ACABB1;" d="M405.545,69.11v43.596c0,7.807-6.387,14.194-14.194,14.194c-7.807,0-14.194-6.387-14.194-14.194   V69.11c0-7.807,6.387-14.194,14.194-14.194C399.157,54.916,405.545,61.303,405.545,69.11z"/>
</g>
<g>
	<path style="fill:#C6C5CA;" d="M134.844,69.11v11.659c0,7.807-6.387,14.194-14.194,14.194s-14.194-6.387-14.194-14.194V69.11   c0-7.807,6.387-14.194,14.194-14.194S134.844,61.303,134.844,69.11z"/>
	<path style="fill:#C6C5CA;" d="M225.077,69.11v11.659c0,7.807-6.387,14.194-14.194,14.194s-14.194-6.387-14.194-14.194V69.11   c0-7.807,6.387-14.194,14.194-14.194S225.077,61.303,225.077,69.11z"/>
	<path style="fill:#C6C5CA;" d="M315.311,69.11v11.659c0,7.807-6.387,14.194-14.194,14.194c-7.807,0-14.194-6.387-14.194-14.194   V69.11c0-7.807,6.387-14.194,14.194-14.194C308.924,54.916,315.311,61.303,315.311,69.11z"/>
	<path style="fill:#C6C5CA;" d="M405.545,69.11v11.659c0,7.807-6.387,14.194-14.194,14.194c-7.807,0-14.194-6.387-14.194-14.194   V69.11c0-7.807,6.387-14.194,14.194-14.194C399.157,54.916,405.545,61.303,405.545,69.11z"/>
</g>
<path style="fill:#FFC477;" d="M466.204,243.514l-23.44,23.451l-83.562,83.552c-1.653,1.653-3.488,3.102-5.455,4.329  c-0.01,0-0.01,0.01-0.02,0.01c-2.22,1.389-4.623,2.484-7.148,3.265l-34.258,10.544l-25.083,7.726  c-3.062,0.943-5.931-1.926-4.988-4.988l7.715-25.124l10.514-34.248c0.781-2.535,1.876-4.948,3.275-7.178  c1.217-1.967,2.677-3.802,4.329-5.455l83.562-83.552l23.025-23.035c0.142-0.142,0.284-0.284,0.426-0.416  c14.052-13.616,36.58-14.083,50.683-0.436c4.603,4.451,7.756,9.804,9.48,15.512C478.979,219.81,475.957,233.761,466.204,243.514z"/>
<path style="fill:#4CBA68;" d="M289.965,346.276c5.591,0.396,11.076,2.731,15.351,7.006c4.28,4.28,6.615,9.775,7.006,15.383  l-25.085,7.727c-3.063,0.944-5.934-1.925-4.992-4.989L289.965,346.276z"/>
<path style="fill:#3FA45A;" d="M442.763,266.965l-83.562,83.552c-1.653,1.653-3.488,3.102-5.455,4.329c-0.01,0-0.01,0.01-0.02,0.01  l-0.477-0.507l-25.499-25.499l-23.998-23.998c1.217-1.967,2.677-3.802,4.329-5.455l83.562-83.552L442.763,266.965z"/>
<path style="fill:#FF6243;" d="M466.204,243.514l-51.109-51.119c14.052-13.616,36.58-14.083,50.683-0.436  C480.327,206.042,480.469,229.249,466.204,243.514z"/>
<path style="fill:#64C37D;" d="M442.763,266.965l-83.562,83.552c-1.653,1.653-3.488,3.102-5.455,4.329l-0.497-0.497l-25.499-25.499  c1.217-1.967,2.677-3.802,4.329-5.455l83.562-83.552L442.763,266.965z"/>
<path style="fill:#FF6243;" d="M466.204,243.514l-27.111-27.121l-23.998-23.998c14.052-13.616,36.58-14.083,50.683-0.436  c4.603,4.451,7.756,9.804,9.48,15.512C478.979,219.81,475.957,233.761,466.204,243.514z"/>
<path style="fill:#FF7956;" d="M466.204,243.514l-27.111-27.121c9.834-9.53,23.826-12.623,36.164-8.922  C478.979,219.81,475.957,233.761,466.204,243.514z"/>
<path style="fill:#C6C5CA;" d="M466.204,243.514l-23.44,23.451l-51.119-51.119l23.025-23.035c0.142-0.142,0.284-0.284,0.426-0.416  L466.204,243.514z"/>
<path id="SVGCleanerId_0" style="fill:#E0E0E2;" d="M466.204,243.514l-23.44,23.451l-27.121-27.121l23.025-23.035  c0.142-0.142,0.284-0.284,0.426-0.416L466.204,243.514z"/>
<g>
	<path id="SVGCleanerId_0_1_" style="fill:#E0E0E2;" d="M466.204,243.514l-23.44,23.451l-27.121-27.121l23.025-23.035   c0.142-0.142,0.284-0.284,0.426-0.416L466.204,243.514z"/>
</g>
<path d="M491.043,93.24c-3.427-2.433-8.172-1.622-10.605,1.805s-1.622,8.172,1.805,10.595c9.104,6.468,14.549,16.992,14.549,28.145  v281.225c0,19.01-15.461,34.471-34.471,34.471H302.739c-4.197,0-7.604,3.407-7.604,7.604c0,4.208,3.407,7.604,7.604,7.604h159.582  c27.395,0,49.679-22.285,49.679-49.679V133.784C512,117.704,504.163,102.557,491.043,93.24z"/>
<path d="M272.323,449.48H49.679c-19.01,0-34.471-15.461-34.471-34.471V196.846c0-4.197-3.407-7.604-7.604-7.604S0,192.649,0,196.846  v218.163c0,27.395,22.285,49.679,49.679,49.679h222.644c4.197,0,7.604-3.396,7.604-7.604  C279.927,452.887,276.521,449.48,272.323,449.48z"/>
<path d="M7.604,174.034c4.197,0,7.604-3.407,7.604-7.604v-32.646c0-19.01,15.461-34.471,34.471-34.471h49.172v13.393  c0,12.024,9.784,21.798,21.798,21.798c12.014,0,21.798-9.774,21.798-21.798V99.313h46.638v13.393  c0,12.024,9.784,21.798,21.798,21.798s21.798-9.774,21.798-21.798V99.313h46.638v13.393c0,12.024,9.774,21.798,21.798,21.798  s21.798-9.774,21.798-21.798V99.313h46.638v13.393c0,12.024,9.774,21.798,21.798,21.798s21.798-9.774,21.798-21.798V99.313h44.691  c4.208,0,7.604-3.407,7.604-7.604c0-4.197-3.396-7.604-7.604-7.604h-44.691V69.11c0-12.014-9.774-21.798-21.798-21.798  s-21.798,9.784-21.798,21.798v14.995h-46.638V69.11c0-12.014-9.774-21.798-21.798-21.798s-21.798,9.784-21.798,21.798v14.995  h-46.638V69.11c0-12.014-9.784-21.798-21.798-21.798s-21.798,9.784-21.798,21.798v14.995h-46.638V69.11  c0-12.014-9.784-21.798-21.798-21.798S98.851,57.096,98.851,69.11v14.995H49.679C22.285,84.105,0,106.39,0,133.784v32.646  C0,170.628,3.407,174.034,7.604,174.034z M384.76,99.313V84.105V69.11c0-3.63,2.96-6.59,6.59-6.59s6.59,2.96,6.59,6.59  c0,16.765,0,28.624,0,43.596c0,3.64-2.961,6.59-6.59,6.59s-6.59-2.95-6.59-6.59V99.313z M294.527,69.11c0-3.63,2.961-6.59,6.59-6.59  s6.59,2.96,6.59,6.59c0,16.765,0,28.624,0,43.596c0,3.64-2.96,6.59-6.59,6.59s-6.59-2.95-6.59-6.59  C294.527,98.345,294.527,86.186,294.527,69.11z M204.293,69.11c0-3.63,2.96-6.59,6.59-6.59s6.59,2.96,6.59,6.59  c0,16.765,0,28.624,0,43.596c0,3.64-2.96,6.59-6.59,6.59s-6.59-2.95-6.59-6.59C204.293,98.345,204.293,86.186,204.293,69.11z   M114.059,69.11c0-3.63,2.96-6.59,6.59-6.59c3.63,0,6.59,2.96,6.59,6.59c0,16.765,0,28.624,0,43.596c0,3.64-2.96,6.59-6.59,6.59  c-3.63,0-6.59-2.95-6.59-6.59C114.059,98.345,114.059,86.186,114.059,69.11z"/>
<path d="M43.192,160.549c-4.199,0-7.604,3.405-7.604,7.604v48.663c0,36.057,29.334,65.391,65.391,65.391h26.613  c23.059,0,41.82,18.76,41.82,41.82c0,31.445,25.582,57.027,57.028,57.027h25.092c4.199,0,7.604-3.405,7.604-7.604  s-3.405-7.604-7.604-7.604h-25.092c-23.059,0-41.82-18.759-41.82-41.82c0-31.445-25.582-57.028-57.028-57.028h-26.613  c-27.671,0-50.183-22.512-50.183-50.183v-48.663C50.795,163.954,47.391,160.549,43.192,160.549z"/>
<path d="M370.604,349.867c2.97-2.97,2.97-7.784,0-10.753c-2.971-2.97-7.784-2.97-10.754,0l-5.54,5.541l-14.806-14.805l77.697-77.697  l14.805,14.805l-50.649,50.649c-4.806,4.806-1.335,12.98,5.378,12.98c5.918,0,3.805-1.822,61.086-57.937  c0.112-0.099,0.225-0.194,0.333-0.3c0.107-0.107,0.202-0.222,0.301-0.334l23.086-23.086c0.015-0.015,0.031-0.027,0.047-0.042  c0.029-0.029,0.054-0.062,0.083-0.092c18.431-18.533,16.628-48.959-3.867-65.156c-3.295-2.603-8.076-2.045-10.68,1.251  c-2.604,3.295-2.045,8.076,1.25,10.681c6.649,5.255,10.821,13.322,10.821,22.371c0,5.02-1.295,9.839-3.712,14.087l-38.811-38.811  c2.811-1.55,5.865-2.65,9.086-3.218c4.136-0.73,6.896-4.674,6.166-8.809c-0.73-4.137-4.668-6.899-8.809-6.167  c-21.213,3.744-28.233,18.867-46.527,35.114c-0.101,0.09-84.545,84.214-85.395,86.041c-7.665,4.956-10.807,25.439-28.43,80.196  c-1.788,5.818,3.671,11.296,9.507,9.501l66.552-20.493C361.195,361.574,366.511,353.401,370.604,349.867z M415.088,203.145  l40.365,40.365l-12.693,12.693l-40.365-40.365L415.088,203.145z M391.641,226.592l14.805,14.805l-77.697,77.697l-14.805-14.805  L391.641,226.592z M291.517,367.117l3.624-11.795c3.561,1.633,6.48,4.504,8.149,8.169L291.517,367.117z M317.88,358.999  c-3.131-8.181-9.586-14.944-18.258-18.274l6.873-22.376l33.761,33.761L317.88,358.999z"/>
<g>
</g>
<g>
</g>
<g>
</g>
<g>
</g>
<g>
</g>
<g>
</g>
<g>
</g>
<g>
</g>
<g>
</g>
<g>
</g>
<g>
</g>
<g>
</g>
<g>
</g>
<g>
</g>
<g>
</g>
</svg>
