<?xml version="1.0" encoding="iso-8859-1"?>
<!-- Generator: Adobe Illustrator 19.0.0, SVG Export Plug-In . SVG Version: 6.00 Build 0)  -->
<svg xmlns="http://www.w3.org/2000/svg" xmlns:xlink="http://www.w3.org/1999/xlink" version="1.1" id="Capa_1" x="0px" y="0px" viewBox="0 0 512 512" style="enable-background:new 0 0 512 512;" xml:space="preserve">
<path style="fill:#FFC477;" d="M304.487,109.395V455.09c0,0.264,0,0.527-0.01,0.791c-0.304,19.547-11.994,36.641-28.814,44.265  c-5.769,2.616-12.136,4.126-18.858,4.238c-27.171,0.446-49.324-21.443-49.324-48.503V109.375c0-3.133,0.355-6.245,1.065-9.277  c0.801-3.437,2.038-6.762,3.701-9.895l22.497-42.521L252.7,13.748c1.379-2.616,5.12-2.616,6.499-0.01l18.006,33.974l22.508,42.481  c1.673,3.133,2.91,6.468,3.711,9.905c0.051,0.213,0.101,0.426,0.142,0.639C304.183,103.566,304.487,106.465,304.487,109.395z"/>
<path style="fill:#C6C5CA;" d="M304.487,411.393v43.697c0,0.264,0,0.527-0.01,0.791h-96.996v-44.488H304.487z"/>
<path style="fill:#3D9AE2;" d="M277.201,47.713c-5.682,4.929-13.102,7.918-21.213,7.918c-8.121,0-15.552-2.998-21.243-7.949  l17.955-33.94c1.381-2.61,5.118-2.611,6.5-0.002L277.201,47.713z"/>
<path style="fill:#FF6243;" d="M304.477,455.881c-0.304,19.547-11.994,36.641-28.814,44.265c-5.769,2.616-12.136,4.126-18.858,4.238  c-27.171,0.446-49.324-21.443-49.324-48.503H304.477z"/>
<path style="fill:#E0E0E2;" d="M304.487,411.393v43.697c0,0.264,0,0.527-0.01,0.791h-57.455v-44.488H304.487z"/>
<path style="fill:#FF7956;" d="M304.477,455.881c-0.304,19.547-11.994,36.641-28.814,44.265  c-16.891-7.584-28.641-24.556-28.641-44.265H304.477z"/>
<path style="fill:#3D9AE2;" d="M304.487,109.395v301.998h-97.006V109.375c0-3.133,0.355-6.245,1.065-9.277h94.877  c0.051,0.213,0.101,0.426,0.142,0.639C304.183,103.566,304.487,106.465,304.487,109.395z"/>
<path style="fill:#78B9EB;" d="M304.487,109.395v301.998h-50.876l-0.009-311.295h49.943c0.045,0.213,0.09,0.426,0.126,0.639  C304.219,103.566,304.487,106.465,304.487,109.395z"/>
<path d="M312.126,411.389c0-0.206-0.015-0.407-0.03-0.608V345.62c0-4.199-3.404-7.604-7.604-7.604s-7.604,3.405-7.604,7.604v58.165  h-33.313c0.005-0.107,0.016-0.213,0.016-0.321V107.705h33.245c0.028,0.562,0.052,1.123,0.052,1.686v205.813  c0,4.199,3.404,7.604,7.604,7.604s7.604-3.405,7.604-7.604V109.391c0-7.614-1.895-15.661-5.659-22.764L262.665,4.043  C261.347,1.555,258.762,0,255.946,0c-0.001,0-0.002,0-0.003,0c-2.815,0.001-5.401,1.558-6.719,4.048l-21.203,40.079  c-0.001,0.001-0.001,0.003-0.002,0.005l-22.496,42.511c-3.693,6.978-5.644,14.839-5.644,22.734v136.567  c0,4.199,3.404,7.604,7.604,7.604c4.2,0,7.604-3.405,7.604-7.604c0.024-146.207-0.052-136.21,0.052-138.237h33.245v295.758  c0,0.108,0.011,0.214,0.016,0.321h-33.313V276.358c0-4.199-3.404-7.604-7.604-7.604c-4.2,0-7.604,3.405-7.604,7.604  c-0.002,13.651-0.009,165.797,0,179.447c0,0.026-0.004,0.052-0.004,0.078c0,0.041,0.005,0.08,0.006,0.121  c0.022,10.178,2.795,20.14,8.028,28.819c1.428,2.368,3.942,3.679,6.519,3.679c5.874,0,9.568-6.451,6.505-11.531  c-2.507-4.16-4.223-8.73-5.118-13.484h80.229c-3.803,18.681-20.005,32.979-39.363,33.297c-5.827,0.096-11.431-1-16.706-3.247  c-3.868-1.648-8.331,0.151-9.976,4.014c-1.646,3.864,0.15,8.33,4.014,9.976c37.029,15.781,78.089-12.266,78.089-51.644  c0-0.172-0.004-43.712-0.004-43.886C312.112,411.795,312.126,411.595,312.126,411.389z M255.952,23.854  c9.543,18.009,11.023,20.799,11.174,21.086c0.001,0.003,0.003,0.006,0.005,0.009c-0.001-0.002-0.002-0.003-0.003-0.005  c0.013,0.024,0.016,0.029,0.012,0.022c0.034,0.065,0.087,0.164,0.17,0.321c-3.479,1.787-7.357,2.738-11.324,2.738  c-3.981,0-7.874-0.96-11.362-2.762L255.952,23.854z M219.631,92.497l17.885-33.796c5.665,2.953,11.994,4.534,18.471,4.534  c6.468,0,12.787-1.575,18.444-4.517l17.904,33.779H219.631z M296.888,448.279h-81.802v-29.286h81.802V448.279z"/>
<g>
</g>
<g>
</g>
<g>
</g>
<g>
</g>
<g>
</g>
<g>
</g>
<g>
</g>
<g>
</g>
<g>
</g>
<g>
</g>
<g>
</g>
<g>
</g>
<g>
</g>
<g>
</g>
<g>
</g>
</svg>
