<?xml version="1.0" encoding="iso-8859-1"?>
<!-- Generator: Adobe Illustrator 19.0.0, SVG Export Plug-In . SVG Version: 6.00 Build 0)  -->
<svg xmlns="http://www.w3.org/2000/svg" xmlns:xlink="http://www.w3.org/1999/xlink" version="1.1" id="Capa_1" x="0px" y="0px" viewBox="0 0 511.999 511.999" style="enable-background:new 0 0 511.999 511.999;" xml:space="preserve">
<path style="fill:#FFDAAA;" d="M430.893,225.192c-4.522,15.492-11.204,30.062-19.69,43.375c-5.789,9.074-10.169,18.909-13.1,29.16  c-2.93,10.261-4.41,20.937-4.41,31.705v164.515c0,5.769-4.674,10.453-10.453,10.453H228.276c-5.769,0-10.443-4.684-10.443-10.453  v-49.549c0-4.35-3.904-7.655-8.192-6.935l-48.424,8.111c-18.696,0-33.854-15.158-33.854-33.854v-63.642  c0-3.873-3.143-7.016-7.016-7.026l-13.465-0.02c-23.441-1.065-38.964-24.932-31.421-47.146l30.944-91.251  c-1.511-9.034-2.312-18.311-2.312-27.771c0-62.77,34.584-117.47,85.735-146.082c0.01,0,0.02-0.01,0.03-0.01  c24.374-13.627,52.51-21.332,82.46-21.16c90.805,0.507,164.089,72.423,166.239,163.197  C439.015,189.797,436.287,208.088,430.893,225.192z"/>
<path style="fill:#57565C;" d="M296.43,325.973v6.073c0,9.125-4.897,17.115-12.217,21.474c-0.091,0.061-0.193,0.122-0.284,0.172  c-3.68,2.139-7.949,3.356-12.512,3.356c-13.809,0-25.013-11.193-25.013-25.003v-6.073H296.43z"/>
<path style="fill:#898890;" d="M296.43,325.973v6.073c0,9.125-4.897,17.115-12.217,21.474c-7.31-4.36-12.207-12.349-12.207-21.474  v-6.073H296.43z"/>
<path style="fill:#FFCD00;" d="M325.042,230.576c-9.784,9.044-15.594,21.596-15.594,34.919v49.488c0,3.731-1.511,7.107-3.964,9.551  c-0.456,0.456-0.953,0.882-1.47,1.278c-0.345,0.264-0.71,0.507-1.075,0.73c-2.048,1.247-4.441,1.957-7.006,1.957h-49.032  c-2.565,0-4.958-0.71-7.006-1.957c-0.365-0.223-0.73-0.466-1.075-0.73c-0.517-0.395-1.014-0.821-1.47-1.278  c-2.454-2.444-3.964-5.82-3.964-9.551v-49.306c0-13.11-5.313-25.783-15.036-34.584c-15.959-14.468-25.976-35.355-25.976-58.583  c0-44.287,36.429-80.078,80.96-79.023c3.468,0.081,6.874,0.395,10.22,0.923c0.568,0.091,1.125,0.183,1.683,0.284  c36.602,6.519,64.707,38.528,65.214,76.722C350.775,194.816,340.92,215.905,325.042,230.576z"/>
<path style="fill:#FFDA44;" d="M325.042,230.576c-9.784,9.044-15.594,21.596-15.594,34.919v49.478  c0,7.472-6.053,13.525-13.515,13.525h-21.322c-7.462,0-13.515-6.053-13.515-13.525v-49.296c0-13.11-5.313-25.783-15.036-34.584  c-15.959-14.468-25.976-35.355-25.976-58.583c0-38.913,28.115-71.257,65.153-77.817c36.602,6.519,64.707,38.528,65.214,76.722  C350.775,194.816,340.92,215.905,325.042,230.576z"/>
<rect x="233.389" y="268.48" style="fill:#ACABB1;" width="76.063" height="30.113"/>
<path style="fill:#898890;" d="M309.449,298.588v16.395c0,3.731-1.511,7.107-3.964,9.551c-0.446,0.456-0.943,0.892-1.47,1.278  c-0.345,0.264-0.71,0.507-1.075,0.73c-2.048,1.247-4.441,1.957-7.006,1.957h-49.032c-2.565,0-4.958-0.71-7.006-1.957  c-0.365-0.223-0.73-0.466-1.075-0.73c-0.527-0.385-1.024-0.821-1.47-1.278c-2.454-2.444-3.964-5.82-3.964-9.551v-16.395H309.449z"/>
<rect x="261.099" y="268.48" style="fill:#C6C5CA;" width="48.353" height="30.113"/>
<path style="fill:#ACABB1;" d="M309.449,298.588v16.395c0,3.731-1.511,7.107-3.964,9.551c-0.446,0.456-0.943,0.892-1.47,1.278  c-0.345,0.264-0.71,0.507-1.075,0.73c-2.048,1.247-4.441,1.957-7.006,1.957h-21.322c-7.462,0-13.515-6.043-13.515-13.515v-16.395  L309.449,298.588L309.449,298.588z"/>
<path d="M283.926,496.792h-55.649c-1.567,0-2.843-1.275-2.843-2.843v-57.857c0-2.237-0.984-4.36-2.692-5.805  c-1.707-1.445-3.962-2.067-6.169-1.695l-55.95,9.372c-14.205-0.316-25.663-11.97-25.663-26.25v-70.648  c0-4.194-3.397-7.596-7.59-7.604c-0.19,0-16.436-0.03-16.323-0.03c-4.192,0-7.596,3.396-7.604,7.59c-0.008,4.2,3.39,7.61,7.59,7.618  l8.717,0.016v63.058c0,22.863,18.601,41.464,41.464,41.464c1.197,0-1.354,0.296,49.009-8.104v48.873  c0,9.953,8.098,18.051,18.051,18.051h55.649c4.2,0,7.604-3.405,7.604-7.604S288.125,496.792,283.926,496.792z"/>
<path d="M82.658,296.321l30.947-91.243c0.403-1.188,0.506-2.459,0.299-3.697c-1.463-8.753-2.204-17.676-2.204-26.522  c0-53.239,26.408-102.792,70.64-132.556c3.485-2.345,4.408-7.07,2.064-10.555c-2.345-3.485-7.069-4.409-10.555-2.063  C125.411,62.28,96.493,116.551,96.492,174.86c0,9.041,0.708,18.155,2.105,27.122c-30.255,91.434-32.664,90.985-32.664,103.469  c0,11.153,4.43,22.174,12.153,30.236c2.901,3.027,7.714,3.14,10.751,0.231c3.033-2.906,3.136-7.719,0.231-10.751  C82.039,317.83,79.109,306.784,82.658,296.321z"/>
<path d="M394.012,49.932C341.031-2.073,263.949-12.637,201.698,14.426c-3.852,1.674-5.617,6.153-3.942,10.005  c1.674,3.851,6.152,5.617,10.005,3.942c33.143-14.407,59.604-12.673,64.515-13.161c106.169,0.6,185,102.092,150.23,211.427  c-1.272,4.003,0.941,8.278,4.943,9.551c4.002,1.271,8.278-0.94,9.551-4.943C459.076,161.812,439.344,94.429,394.012,49.932z"/>
<path d="M421.548,250.227c-3.708-1.968-8.312-0.56-10.283,3.149c-7.11,13.389-25.178,35.499-25.178,76.05v164.521  c0,1.568-1.275,2.843-2.843,2.843h-68.902c-4.2,0-7.604,3.405-7.604,7.604s3.405,7.604,7.604,7.604h68.902  c9.953,0,18.051-8.098,18.051-18.051v-164.52c0-35.881,15.662-54.343,23.403-68.918C426.667,256.8,425.258,252.197,421.548,250.227z  "/>
<path d="M160.146,243.973c1.29,0,2.598-0.329,3.795-1.02l18.44-10.646c3.637-2.1,4.883-6.751,2.783-10.387  c-2.101-3.637-6.751-4.883-10.387-2.783l-18.44,10.646c-3.637,2.1-4.883,6.751-2.783,10.387  C154.962,242.609,157.518,243.973,160.146,243.973z"/>
<path d="M365.017,220.892c-3.638-2.101-8.288-0.854-10.387,2.783c-2.1,3.637-0.854,8.288,2.783,10.387  c18.418,10.259,18.709,11.666,22.235,11.666c7.76,0,10.526-10.313,3.809-14.192L365.017,220.892z"/>
<path d="M317.055,314.977v-49.484c0-2.835,0.317-5.681,0.946-8.456c0.927-4.096-1.644-8.168-5.74-9.095  c-4.098-0.93-8.168,1.644-9.095,5.74c-0.535,2.368-0.889,4.775-1.099,7.192h-9.441v-78.042h7.418  c11.85,0,21.493-9.641,21.493-21.493c0-11.851-9.641-21.493-21.493-21.493h-1.135c-11.85,0-21.493,9.641-21.493,21.493v6.284  h-12.002v-6.284c0-11.851-9.641-21.493-21.493-21.493h-1.134c-11.85,0-21.493,9.641-21.493,21.493  c0,11.85,9.641,21.493,21.493,21.493h7.418v78.042h-9.442c-1.178-13.665-7.329-26.373-17.308-35.418  c-14.922-13.523-23.48-32.822-23.48-52.945c0-39.392,32.047-71.439,71.438-71.439c0.579,0,1.16,0.007,1.738,0.02  c37.918,0.897,69.183,32.491,69.696,70.429c0.004,0.332,0.007,0.661,0.007,0.992c0,19.712-7.858,38.068-22.126,51.684  c-3.038,2.9-3.15,7.713-0.251,10.751c2.899,3.038,7.713,3.15,10.751,0.251c34.862-33.269,36.119-88.773,1.694-123.562  c-15.906-16.074-37.006-25.22-59.415-25.75c-48.753-1.126-88.741,38.15-88.741,86.623c0,24.408,10.378,47.812,28.474,64.213  c7.966,7.221,12.536,17.776,12.536,28.957v49.297c0,8.818,5.434,16.381,13.127,19.541c1.269,16.831,15.36,30.141,32.511,30.141  c17.15,0,31.241-13.309,32.511-30.141C311.62,331.358,317.055,323.795,317.055,314.977z M292.627,161.34  c0-8.397,13.702-8.413,13.702,0c0,3.464-2.819,6.284-6.284,6.284h-7.418V161.34z M265.417,182.832h12.002v78.042h-12.002V182.832z   M242.791,167.624c-3.464,0-6.284-2.819-6.284-6.284c0-8.397,13.702-8.413,13.702,0v6.284H242.791z M271.417,349.45  c-8.199,0-15.074-5.705-16.909-13.35h33.818C286.492,343.744,279.617,349.45,271.417,349.45z M301.847,314.977  c0,3.262-2.653,5.914-5.915,5.914h-49.028c-3.262,0-5.914-2.653-5.914-5.914v-8.786h60.858v8.786H301.847z M301.847,290.983h-60.858  v-14.9h60.858V290.983z"/>
<path d="M279.022,68.431V47.139c0-4.2-3.405-7.604-7.604-7.604s-7.604,3.405-7.604,7.604v21.292c0,4.2,3.405,7.604,7.604,7.604  S279.022,72.631,279.022,68.431z"/>
<path d="M222.361,88.637c3.637-2.1,4.883-6.751,2.783-10.387l-10.646-18.44c-2.1-3.637-6.751-4.883-10.387-2.783  c-3.637,2.1-4.883,6.751-2.783,10.387l10.646,18.44C214.081,89.502,218.735,90.731,222.361,88.637z"/>
<path d="M186.178,124.078c2.1-3.637,0.854-8.288-2.783-10.387l-18.44-10.646c-3.637-2.101-8.288-0.854-10.387,2.783  c-2.1,3.637-0.854,8.288,2.783,10.387c18.418,10.259,18.709,11.666,22.235,11.666C182.214,127.882,184.77,126.517,186.178,124.078z"/>
<path d="M172.562,172.863c0-4.2-3.405-7.604-7.604-7.604h-21.292c-4.2,0-7.604,3.405-7.604,7.604c0,4.2,3.405,7.604,7.604,7.604  h21.292C169.158,180.467,172.562,177.062,172.562,172.863z"/>
<path d="M404.745,174.89c0-4.2-3.405-7.604-7.604-7.604h-21.292c-4.2,0-7.604,3.405-7.604,7.604c0,4.2,3.405,7.604,7.604,7.604  h21.292C401.34,182.495,404.745,179.09,404.745,174.89z"/>
<path d="M376.867,104.801l-18.44,10.646c-3.637,2.1-4.883,6.751-2.783,10.387c2.106,3.649,6.761,4.878,10.387,2.783l18.44-10.646  c3.637-2.1,4.883-6.751,2.783-10.387C385.154,103.947,380.504,102.701,376.867,104.801z"/>
<path d="M330.59,86.867l10.646-18.44c2.1-3.637,0.854-8.288-2.783-10.387c-3.638-2.101-8.289-0.854-10.387,2.783l-10.646,18.44  c-2.1,3.637-0.854,8.288,2.783,10.387C323.825,91.743,328.482,90.519,330.59,86.867z"/>
<g>
</g>
<g>
</g>
<g>
</g>
<g>
</g>
<g>
</g>
<g>
</g>
<g>
</g>
<g>
</g>
<g>
</g>
<g>
</g>
<g>
</g>
<g>
</g>
<g>
</g>
<g>
</g>
<g>
</g>
</svg>
