<?xml version="1.0" encoding="iso-8859-1"?>
<!-- Generator: Adobe Illustrator 19.0.0, SVG Export Plug-In . SVG Version: 6.00 Build 0)  -->
<svg version="1.1" id="Layer_1" xmlns="http://www.w3.org/2000/svg" xmlns:xlink="http://www.w3.org/1999/xlink" x="0px" y="0px"
	 viewBox="0 0 512.001 512.001" style="enable-background:new 0 0 512.001 512.001;" xml:space="preserve">
<path style="fill:#FD6568;" d="M331.402,208.726c-28.814,0-55.094,6.475-75.01,22.765c-19.915-16.29-46.196-22.765-75.01-22.765
	c-62.19,0-112.605,30.13-112.605,124.121s92.726,170.187,135.737,170.187c10.082,0,20.351-4.189,30.168-11.811
	c12.738-9.89,30.682-9.89,43.421,0c9.817,7.622,20.087,11.811,30.168,11.811c43.012,0,135.737-76.195,135.737-170.187
	S393.592,208.726,331.402,208.726z"/>
<path style="fill:#E04F56;" d="M145.035,332.847c0-73.736,31.029-108.165,74.429-119.581c-11.897-3.122-24.71-4.54-38.081-4.54
	c-62.19,0-112.605,30.13-112.605,124.121c0,93.992,92.726,170.187,135.737,170.187c10.082,0,20.351-4.189,30.168-11.811
	c1.423-1.105,2.92-2.068,4.458-2.926C195.423,461.747,145.035,402.135,145.035,332.847z"/>
<path style="fill:#7FE2B5;" d="M247.005,171.297V151.24c0-78.57,63.694-142.264,142.264-142.264h20.057v20.057
	c0,78.57-63.694,142.264-142.264,142.264H247.005z"/>
<path d="M416.801,229.018c-20.526-19.421-49.39-29.269-85.79-29.269c-26.169,0-48.478,5.126-66.588,15.237
	c-0.694-8.084-2.15-18.279-5.157-28.833c-0.573-2.012-1.185-3.975-1.835-5.889h9.237c83.392,0,151.236-67.845,151.236-151.236V8.971
	c0-4.955-4.016-8.971-8.971-8.971h-20.057c-81.888,0-148.778,65.421-151.163,146.742c-9.31-9.446-20.797-15.597-34.221-18.179
	c-4.865-0.937-9.568,2.251-10.504,7.116c-0.935,4.866,2.25,9.57,7.116,10.505c34.761,6.686,43.866,45.324,46.191,68.109
	c-17.878-9.647-39.748-14.543-65.305-14.543c-36.401,0-65.266,9.847-85.79,29.269c-23.747,22.468-35.787,57.4-35.787,103.824
	c0,98.045,95.809,179.158,144.709,179.158c11.963,0,23.965-4.609,35.669-13.696c9.544-7.409,22.872-7.409,32.417,0
	c11.705,9.089,23.705,13.696,35.669,13.696c48.899,0,144.709-81.113,144.709-179.158
	C452.586,286.418,440.546,251.487,416.801,229.018z M255.605,149.612c0.293-24.418,7.18-47.275,18.966-66.871l5.111,42.794
	L255.605,149.612z M268.293,162.3l52.66-52.66l48.129,4.604C344.934,143.215,308.755,161.813,268.293,162.3z M351.074,54.142
	l-2.345-30.017c12.183-3.857,25.118-6.001,38.524-6.162L351.074,54.142z M399.941,30.651c-0.293,24.353-7.145,47.154-18.875,66.716
	l-43.664-4.177L399.941,30.651z M331.273,31.046l3.108,39.792l-38.556,38.555l-5.686-47.605
	C301.676,49.064,315.632,38.573,331.273,31.046z M385.298,447.082c-29.928,32.275-61.111,46.976-77.419,46.976
	c-7.885,0-16.183-3.34-24.666-9.925c-8.012-6.221-17.612-9.33-27.214-9.33c-9.598,0-19.201,3.111-27.211,9.33
	c-8.483,6.586-16.781,9.926-24.666,9.926c-16.309,0-47.491-14.7-77.419-46.976c-18.43-19.875-49.347-61.145-49.347-114.24
	c0-41.298,10.152-71.845,30.176-90.79c17.082-16.163,41.796-24.359,73.457-24.359c29.18,0,52.506,6.977,69.33,20.738
	c0.028,0.023,0.059,0.037,0.087,0.06c0.361,0.289,0.745,0.553,1.151,0.784c0.056,0.032,0.112,0.06,0.169,0.091
	c0.41,0.224,0.835,0.421,1.282,0.579c0.023,0.008,0.044,0.013,0.067,0.022c0.42,0.145,0.855,0.254,1.3,0.336
	c0.061,0.011,0.12,0.026,0.181,0.036c0.34,0.055,0.684,0.097,1.036,0.112c0.135,0.006,0.27,0.008,0.404,0.01
	c0.001,0,0.002,0,0.004,0c0.002,0,0.004,0,0.006,0c0.47,0,0.929-0.047,1.382-0.117c0.061-0.01,0.122-0.017,0.183-0.027
	c0.447-0.079,0.883-0.194,1.305-0.337c0.066-0.023,0.129-0.045,0.195-0.069c0.428-0.157,0.842-0.342,1.237-0.559
	c0.056-0.031,0.11-0.066,0.166-0.098c0.408-0.234,0.798-0.496,1.161-0.792c0.014-0.011,0.03-0.018,0.044-0.03
	c16.822-13.761,40.148-20.738,69.329-20.738c31.661,0,56.376,8.196,73.457,24.359c20.023,18.947,30.176,49.493,30.176,90.79
	C434.643,385.938,403.727,427.208,385.298,447.082z"/>
<path d="M411.14,310.274c0.529,0,1.066-0.048,1.605-0.145c4.876-0.88,8.115-5.548,7.235-10.424
	c-3.831-21.215-11.817-37.689-23.734-48.966c-14.786-13.992-36.735-21.085-65.236-21.085c-6.396,0-12.541,0.362-18.267,1.077
	c-4.916,0.614-8.404,5.097-7.792,10.013c0.612,4.916,5.097,8.401,10.013,7.792c4.991-0.623,10.389-0.939,16.045-0.939
	c23.76,0,41.56,5.443,52.903,16.176c9.079,8.591,15.273,21.753,18.409,39.122C403.105,307.233,406.883,310.274,411.14,310.274z"/>
<circle cx="413.705" cy="332.842" r="8.971"/>
<g>
</g>
<g>
</g>
<g>
</g>
<g>
</g>
<g>
</g>
<g>
</g>
<g>
</g>
<g>
</g>
<g>
</g>
<g>
</g>
<g>
</g>
<g>
</g>
<g>
</g>
<g>
</g>
<g>
</g>
</svg>
