<?xml version="1.0" encoding="iso-8859-1"?>
<!-- Generator: Adobe Illustrator 19.0.0, SVG Export Plug-In . SVG Version: 6.00 Build 0)  -->
<svg version="1.1" id="Layer_1" xmlns="http://www.w3.org/2000/svg" xmlns:xlink="http://www.w3.org/1999/xlink" x="0px" y="0px"
	 viewBox="0 0 512.003 512.003" style="enable-background:new 0 0 512.003 512.003;" xml:space="preserve">
<g>
	<polygon style="fill:#E04F56;" points="453.76,468.599 453.76,502.145 59.107,502.145 59.107,468.599 77.564,468.599 
		435.289,468.599 	"/>
	<rect x="59.107" y="9.878" style="fill:#E04F56;" width="394.653" height="33.533"/>
</g>
<polygon style="fill:#FD6568;" points="435.289,272.779 435.289,468.599 77.564,468.599 77.564,272.779 77.564,239.232 
	77.564,43.425 435.289,43.425 435.289,239.232 "/>
<g>
	<polygon style="fill:#E04F56;" points="136.552,272.779 136.552,468.599 77.564,468.599 77.564,272.779 77.564,239.232 
		77.564,43.425 136.552,43.425 136.552,239.232 	"/>
	<polygon style="fill:#E04F56;" points="435.289,272.779 435.289,468.599 404.912,468.599 404.912,272.779 404.912,239.232 
		404.912,43.425 435.289,43.425 435.289,239.232 	"/>
</g>
<g>
	<path style="fill:#F8DF70;" d="M240.463,229.122c-9.247,5.465-15.442,15.53-15.442,27.045H156.3
		c0-36.713,19.757-68.809,49.215-86.236L240.463,229.122z"/>
	<path style="fill:#F8DF70;" d="M356.564,256.167h-68.721c0-11.515-6.194-21.579-15.442-27.045l34.948-59.191
		C336.806,187.358,356.564,219.454,356.564,256.167z"/>
	<path style="fill:#F8DF70;" d="M305.652,343.383c-14.53,8.224-31.329,12.916-49.221,12.916c-18.243,0-35.344-4.875-50.075-13.4
		l34.37-59.53c4.618,2.676,9.982,4.208,15.705,4.208c5.609,0,10.874-1.469,15.435-4.059L305.652,343.383z"/>
</g>
<path d="M155.869,266.028h68.721c5.45,0,9.867-4.418,9.867-9.867c0-7.695,3.961-14.63,10.595-18.552
	c4.689-2.772,6.245-8.819,3.476-13.511l-34.948-59.191c-1.331-2.255-3.503-3.889-6.04-4.54c-2.534-0.653-5.227-0.27-7.482,1.064
	c-33.343,19.727-54.056,56.024-54.056,94.728C146.002,261.611,150.42,266.028,155.869,266.028z M201.885,183.917l25.248,42.762
	c-5.464,5.371-9.354,12.183-11.201,19.616h-49.649C169.035,221.589,181.999,198.875,201.885,183.917z"/>
<path d="M266.949,237.61c6.537,3.864,10.597,10.972,10.597,18.552c0,5.449,4.416,9.867,9.867,9.867h68.721
	c5.45,0,9.867-4.418,9.867-9.867c0-38.704-20.713-75.001-54.059-94.728c-2.254-1.334-4.946-1.715-7.48-1.064
	c-2.536,0.651-4.708,2.285-6.04,4.54L263.473,224.1C260.704,228.79,262.26,234.838,266.949,237.61z M310.115,183.917
	c19.889,14.958,32.852,37.67,35.603,62.378h-49.649c-1.846-7.432-5.737-14.245-11.202-19.616L310.115,183.917z"/>
<path d="M280.028,278.664c-1.288-2.282-3.431-3.958-5.956-4.658c-2.527-0.7-5.228-0.367-7.505,0.927
	c-6.458,3.664-14.891,3.624-21.324-0.107c-2.268-1.314-4.961-1.672-7.493-0.996c-2.531,0.676-4.69,2.33-6,4.599l-34.369,59.53
	c-2.722,4.716-1.11,10.745,3.602,13.474c16.65,9.634,35.674,14.726,55.016,14.726c18.969,0,37.67-4.908,54.081-14.196
	c4.739-2.682,6.408-8.695,3.732-13.437L280.028,278.664z M256.001,346.427c-12.557,0-24.943-2.611-36.328-7.61l24.831-43.008
	c7.304,2.115,15.274,2.156,22.604,0.109l24.409,43.249C280.357,343.935,268.248,346.427,256.001,346.427z"/>
<path d="M453.324,53.279c5.45,0,9.867-4.418,9.867-9.867V9.867c0-5.449-4.416-9.867-9.867-9.867H58.678
	c-5.45,0-9.867,4.418-9.867,9.867v33.545c0,5.449,4.416,9.867,9.867,9.867h8.593v66.158h-3.314c-5.45,0-9.867,4.418-9.867,9.867
	c0,5.449,4.416,9.867,9.867,9.867h3.314v233.67h-3.314c-5.45,0-9.867,4.418-9.867,9.867c0,5.449,4.416,9.867,9.867,9.867h3.314
	v66.151h-8.593c-5.45,0-9.867,4.418-9.867,9.867v33.545c0,5.449,4.416,9.867,9.867,9.867h394.646c5.45,0,9.867-4.418,9.867-9.867
	v-33.545c0-5.449-4.416-9.867-9.867-9.867h-8.595v-66.151h3.314c5.45,0,9.867-4.418,9.867-9.867c0-5.449-4.416-9.867-9.867-9.867
	h-3.314V139.17h3.314c5.45,0,9.867-4.418,9.867-9.867c0-5.449-4.416-9.867-9.867-9.867h-3.314V53.279H453.324z M443.458,492.267
	H68.545v-13.812h374.913L443.458,492.267L443.458,492.267z M424.997,458.723H87.005v-66.151h337.992L424.997,458.723
	L424.997,458.723z M424.997,372.838H87.005V139.17h337.992L424.997,372.838L424.997,372.838z M87.005,119.436V53.284h337.992v66.153
	L87.005,119.436L87.005,119.436z M68.545,19.733h374.913v13.812H68.545V19.733z"/>
<circle cx="255.573" cy="256.756" r="9.867"/>
<g>
</g>
<g>
</g>
<g>
</g>
<g>
</g>
<g>
</g>
<g>
</g>
<g>
</g>
<g>
</g>
<g>
</g>
<g>
</g>
<g>
</g>
<g>
</g>
<g>
</g>
<g>
</g>
<g>
</g>
</svg>
