<?xml version="1.0" encoding="iso-8859-1"?>
<!-- Generator: Adobe Illustrator 19.0.0, SVG Export Plug-In . SVG Version: 6.00 Build 0)  -->
<svg version="1.1" id="Layer_1" xmlns="http://www.w3.org/2000/svg" xmlns:xlink="http://www.w3.org/1999/xlink" x="0px" y="0px"
	 viewBox="0 0 511.999 511.999" style="enable-background:new 0 0 511.999 511.999;" xml:space="preserve">
<g>
	<rect x="339.375" y="96.041" style="fill:#E6E6E6;" width="70.884" height="30.824"/>
	<rect x="358.042" y="43.82" style="fill:#E6E6E6;" width="33.545" height="52.221"/>
	<rect x="39.071" y="96.041" style="fill:#E6E6E6;" width="70.884" height="30.824"/>
	<rect x="57.736" y="43.82" style="fill:#E6E6E6;" width="33.545" height="52.221"/>
</g>
<rect x="9.248" y="126.865" style="fill:#F8DF70;" width="430.832" height="63.102"/>
<polygon style="fill:#FD6568;" points="424.025,250.212 424.025,189.962 25.301,189.962 25.301,468.183 424.025,468.183 
	424.025,438.056 "/>
<path d="M508.089,308.131c-4.06-2.735-9.566-1.661-12.3,2.397l-8.592,12.75c-9.718-33.08-40.329-57.309-76.51-57.309
	c-43.972,0-79.745,35.774-79.745,79.745s35.773,79.745,79.745,79.745c23.222,0,45.244-10.094,60.419-27.697
	c3.196-3.706,2.781-9.302-0.925-12.498c-3.706-3.196-9.302-2.781-12.497,0.925c-11.806,13.693-28.935,21.548-46.997,21.548
	c-34.2,0-62.023-27.823-62.023-62.023s27.823-62.023,62.023-62.023c28.534,0,52.613,19.374,59.814,45.653l-15.985-10.771
	c-4.06-2.735-9.565-1.661-12.3,2.397c-2.734,4.058-1.661,9.565,2.397,12.3l32.007,21.565c1.474,0.994,3.199,1.512,4.952,1.512
	c0.565,0,1.132-0.054,1.695-0.164c2.307-0.449,4.341-1.797,5.653-3.745l21.565-32.007
	C513.22,316.373,512.148,310.865,508.089,308.131z"/>
<path d="M423.637,429.19c-4.894,0-8.861,3.967-8.861,8.861v21.266H33.774V198.818h381.002v51.389c0,4.894,3.967,8.861,8.861,8.861
	s8.861-3.967,8.861-8.861v-51.389h7.192c4.894,0,8.861-3.967,8.861-8.861V126.86c0-4.894-3.967-8.861-8.861-8.861h-20.957V96.036
	c0-4.894-3.967-8.861-8.861-8.861h-9.809V43.821c0-4.894-3.967-8.861-8.861-8.861h-33.545c-4.894,0-8.861,3.967-8.861,8.861v43.354
	h-9.809c-4.894,0-8.861,3.967-8.861,8.861v21.963H118.424V96.036c0-4.894-3.967-8.861-8.861-8.861h-9.809V43.821
	c0-4.894-3.967-8.861-8.861-8.861H57.348c-4.894,0-8.861,3.967-8.861,8.861v43.354h-9.809c-4.894,0-8.861,3.967-8.861,8.861v21.963
	H8.861c-4.894,0-8.861,3.967-8.861,8.861v63.097c0,4.894,3.967,8.861,8.861,8.861h7.192v269.359c0,4.894,3.967,8.861,8.861,8.861
	h398.724c4.894,0,8.861-3.967,8.861-8.861v-30.127C432.498,433.157,428.531,429.19,423.637,429.19z M366.519,52.682h15.823v34.493
	h-15.823V52.682z M347.849,104.896h53.162v13.102h-53.162V104.896z M66.209,52.682h15.823v34.493H66.209V52.682z M47.54,104.896
	h9.809h33.545h9.809v13.102H47.54V104.896z M17.722,135.721h413.107v45.375H17.722V135.721z"/>
<path d="M83.392,271.475c4.894,0,8.861-3.967,8.861-8.861v-10.633h10.633c4.894,0,8.861-3.967,8.861-8.861s-3.967-8.861-8.861-8.861
	H92.253v-10.632c0-4.894-3.967-8.861-8.861-8.861c-4.894,0-8.861,3.967-8.861,8.861v10.632H63.899c-4.894,0-8.861,3.967-8.861,8.861
	s3.967,8.861,8.861,8.861h10.632v10.633C74.531,267.508,78.499,271.475,83.392,271.475z"/>
<path d="M343.893,234.259c-4.894,0-8.861,3.967-8.861,8.861s3.967,8.861,8.861,8.861h38.986c4.894,0,8.861-3.967,8.861-8.861
	s-3.967-8.861-8.861-8.861H343.893z"/>
<g>
</g>
<g>
</g>
<g>
</g>
<g>
</g>
<g>
</g>
<g>
</g>
<g>
</g>
<g>
</g>
<g>
</g>
<g>
</g>
<g>
</g>
<g>
</g>
<g>
</g>
<g>
</g>
<g>
</g>
</svg>
