<?xml version="1.0" encoding="iso-8859-1"?>
<!-- Generator: Adobe Illustrator 19.0.0, SVG Export Plug-In . SVG Version: 6.00 Build 0)  -->
<svg version="1.1" id="Layer_1" xmlns="http://www.w3.org/2000/svg" xmlns:xlink="http://www.w3.org/1999/xlink" x="0px" y="0px"
	 viewBox="0 0 512 512" style="enable-background:new 0 0 512 512;" xml:space="preserve">
<g>
	<path style="fill:#FD6568;" d="M228.872,140.032V87.054c0-10.734-8.701-19.434-19.434-19.434H38.183
		c-10.734,0-19.434,8.701-19.434,19.434v395.869c0,10.734,8.701,19.434,19.434,19.434h171.254c10.734,0,19.434-8.701,19.434-19.434
		V381.225V140.032H228.872z"/>
	<path style="fill:#FD6568;" d="M494.094,140.032V87.054c0-10.734-8.701-19.434-19.434-19.434H303.406
		c-10.734,0-19.434,8.701-19.434,19.434v395.869c0,10.734,8.701,19.434,19.434,19.434H474.66c10.734,0,19.434-8.701,19.434-19.434
		V381.225V140.032z"/>
</g>
<g>
	<path style="fill:#F8DF70;" d="M196.711,360v110.197H50.909v-325.12h70.12c41.797,0,75.681,33.883,75.681,75.681V360H196.711z"/>
	<polygon style="fill:#F8DF70;" points="461.933,360 461.933,470.196 316.132,470.196 316.132,355.745 461.933,355.745 	"/>
</g>
<path style="fill:#7FE2B5;" d="M371.257,381.67H344.35c-105.406,0-190.855-85.449-190.855-190.855v-26.907h26.907
	c105.406,0,190.855,85.449,190.855,190.855V381.67z"/>
<g>
	<rect x="72.362" y="9.653" style="fill:#E04F56;" width="102.888" height="57.967"/>
	<rect x="337.586" y="9.653" style="fill:#E04F56;" width="102.888" height="57.967"/>
</g>
<path d="M179.98,154.255h-26.907c-5.33,0-9.648,4.32-9.648,9.648v26.907c0,110.559,89.946,200.503,200.503,200.503h26.907
	c5.33,0,9.648-4.32,9.648-9.648v-26.907C380.484,244.201,290.538,154.255,179.98,154.255z M274.18,200.014l-6.23,65.119
	l-91.584-91.584h3.614C214.457,173.551,246.713,183.233,274.18,200.014z M162.721,187.196l56.305,56.305l-47.311,3.695
	c-5.828-17.755-8.993-36.707-8.993-56.386C162.721,190.81,162.721,187.196,162.721,187.196z M179.064,265.978l57.915-4.523
	l55.979,55.979l-69.811,8.337C204.63,309.181,189.534,288.852,179.064,265.978z M245.052,342.587l65.266-7.794l37.224,37.224h-3.614
	C307.473,372.017,273.504,361.186,245.052,342.587z M361.188,358.372l-75.546-75.546l6.709-70.123
	c41.907,33.22,68.837,84.549,68.837,142.056V358.372z"/>
<path d="M228.45,371.57c-5.33,0-9.648,4.32-9.648,9.648v101.698c0,5.397-4.391,9.786-9.786,9.786H37.762
	c-5.395,0-9.786-4.391-9.786-9.786V87.048c0-5.397,4.391-9.786,9.786-9.786h171.254c5.395,0,9.786,4.391,9.786,9.786v52.978
	c0,5.328,4.319,9.648,9.648,9.648s9.648-4.32,9.648-9.648V87.048c0-16.037-13.047-29.082-29.082-29.082h-24.534V9.648
	c0-5.328-4.319-9.648-9.648-9.648H71.945c-5.33,0-9.648,4.32-9.648,9.648v48.317H37.762c-16.037,0-29.082,13.047-29.082,29.082
	v395.869C8.678,498.953,21.725,512,37.762,512h171.254c16.037,0,29.082-13.047,29.082-29.082V381.22
	C238.098,375.89,233.779,371.57,228.45,371.57z M81.593,19.296h83.591v38.669H81.593V19.296z"/>
<path d="M134.409,154.719c5.33,0,9.648-4.32,9.648-9.648s-4.319-9.648-9.648-9.648H50.487c-5.33,0-9.648,4.32-9.648,9.648v325.12
	c0,5.328,4.319,9.648,9.648,9.648h145.802c5.33,0,9.648-4.32,9.648-9.648V359.994c0-5.328-4.319-9.648-9.648-9.648
	s-9.648,4.32-9.648,9.648v100.549H60.136V154.719H134.409z"/>
<path d="M474.238,57.965h-24.535V9.648c0-5.328-4.319-9.648-9.648-9.648H337.167c-5.33,0-9.648,4.32-9.648,9.648v48.317h-24.535
	c-16.037,0-29.082,13.047-29.082,29.082v70.343c0,5.328,4.319,9.648,9.648,9.648c5.33,0,9.648-4.32,9.648-9.648V87.048
	c0-5.397,4.391-9.786,9.786-9.786h171.255c5.395,0,9.786,4.391,9.786,9.786v395.869c0,5.397-4.391,9.786-9.786,9.786H302.983
	c-5.395,0-9.786-4.391-9.786-9.786v-82.404c0-5.328-4.319-9.648-9.648-9.648c-5.33,0-9.648,4.32-9.648,9.648v82.404
	c0,16.037,13.047,29.082,29.082,29.082h171.255c16.037,0,29.082-13.047,29.082-29.082V87.048
	C503.322,71.011,490.275,57.965,474.238,57.965z M346.816,57.965V19.296h83.591v38.669H346.816z"/>
<path d="M325.358,460.543v-48.451c0-5.328-4.319-9.648-9.648-9.648c-5.33,0-9.648,4.32-9.648,9.648v58.099
	c0,5.328,4.319,9.648,9.648,9.648h145.802c5.33,0,9.648-4.32,9.648-9.648V355.738c0-5.328-4.319-9.648-9.648-9.648h-56.962
	c-5.33,0-9.648,4.32-9.648,9.648s4.319,9.648,9.648,9.648h47.314v95.156H325.358z"/>
<g>
</g>
<g>
</g>
<g>
</g>
<g>
</g>
<g>
</g>
<g>
</g>
<g>
</g>
<g>
</g>
<g>
</g>
<g>
</g>
<g>
</g>
<g>
</g>
<g>
</g>
<g>
</g>
<g>
</g>
</svg>
