<?xml version="1.0" encoding="iso-8859-1"?>
<!-- Generator: Adobe Illustrator 19.0.0, SVG Export Plug-In . SVG Version: 6.00 Build 0)  -->
<svg version="1.1" id="Layer_1" xmlns="http://www.w3.org/2000/svg" xmlns:xlink="http://www.w3.org/1999/xlink" x="0px" y="0px"
	 viewBox="0 0 512 512" style="enable-background:new 0 0 512 512;" xml:space="preserve">
<rect x="250.364" y="8.927" style="fill:#E6E6E6;" width="67.797" height="39.251"/>
<polygon style="fill:#80D2EE;" points="334.224,198.045 334.224,48.178 220.038,48.178 105.853,48.178 105.853,503.084 
	334.224,503.084 334.224,396.087 "/>
<polyline style="fill:#68B9DA;" points="105.853,48.178 220.038,140.953 334.224,48.178 "/>
<path d="M333.834,387.16c-4.927,0-8.921,3.994-8.921,8.921v98.076H114.384V66.916l99.639,80.957
	c1.639,1.332,3.633,1.997,5.625,1.997c1.992,0,3.987-0.666,5.625-1.997l99.639-80.957V198.04c0,4.927,3.994,8.921,8.921,8.921
	s8.921-3.994,8.921-8.921V48.173c0-4.927-3.994-8.921-8.921-8.921h-7.137V8.921c0-4.927-3.994-8.921-8.921-8.921h-67.797
	c-4.927,0-8.921,3.994-8.921,8.921v30.331H105.463c-4.927,0-8.921,3.994-8.921,8.921v454.906c0,4.927,3.994,8.921,8.921,8.921
	h228.371c4.927,0,8.921-3.994,8.921-8.921V396.082C342.755,391.154,338.761,387.16,333.834,387.16z M219.649,129.453l-89.058-72.36
	h178.116L219.649,129.453z M258.9,17.842h49.955v21.41H258.9V17.842z"/>
<path d="M411.522,257.892c-4.087-2.754-9.63-1.672-12.384,2.413l-8.65,12.837c-9.784-33.304-40.603-57.699-77.03-57.699
	c-44.27,0-80.287,36.017-80.287,80.287s36.017,80.287,80.287,80.287c23.379,0,45.551-10.163,60.829-27.885
	c3.218-3.731,2.8-9.365-0.931-12.582c-3.731-3.218-9.365-2.8-12.582,0.931c-11.887,13.786-29.132,21.694-47.317,21.694
	c-34.432,0-62.445-28.012-62.445-62.445s28.012-62.445,62.445-62.445c28.727,0,52.97,19.505,60.22,45.963l-16.095-10.845
	c-4.088-2.754-9.63-1.672-12.384,2.413c-2.752,4.086-1.672,9.63,2.413,12.384l32.224,21.712c1.53,1.03,3.263,1.524,4.977,1.524
	c2.868,0,5.683-1.381,7.407-3.937l21.712-32.224C416.688,266.189,415.608,260.644,411.522,257.892z"/>
<g>
</g>
<g>
</g>
<g>
</g>
<g>
</g>
<g>
</g>
<g>
</g>
<g>
</g>
<g>
</g>
<g>
</g>
<g>
</g>
<g>
</g>
<g>
</g>
<g>
</g>
<g>
</g>
<g>
</g>
</svg>
