<?xml version="1.0" encoding="iso-8859-1"?>
<!-- Generator: Adobe Illustrator 19.0.0, SVG Export Plug-In . SVG Version: 6.00 Build 0)  -->
<svg version="1.1" id="Layer_1" xmlns="http://www.w3.org/2000/svg" xmlns:xlink="http://www.w3.org/1999/xlink" x="0px" y="0px"
	 viewBox="0 0 512 512" style="enable-background:new 0 0 512 512;" xml:space="preserve">
<polyline style="fill:#B3B3B3;" points="101.016,473.129 101.016,502.908 315.2,502.908 315.2,473.129 313.264,71.617 
	295.839,41.851 120.376,41.851 102.952,71.617 "/>
<polygon style="fill:#FD6568;" points="336.477,372.96 336.477,473.127 79.745,473.127 79.745,71.623 336.477,71.623 
	336.477,169.199 "/>
<g>
	<polygon style="fill:#E04F56;" points="140.724,372.96 140.724,473.127 79.745,473.127 79.745,71.623 140.724,71.623 
		140.724,169.199 	"/>
	<polygon style="fill:#E04F56;" points="336.477,372.96 336.477,473.127 292.789,473.127 292.789,71.623 336.477,71.623 
		336.477,169.199 	"/>
</g>
<path d="M437.736,233.786c-4.168-2.807-9.821-1.705-12.628,2.461l-8.82,13.09c-9.976-33.96-41.403-58.835-78.547-58.835
	c-45.142,0-81.868,36.726-81.868,81.868s36.726,81.868,81.868,81.868c23.84,0,46.449-10.363,62.027-28.434
	c3.281-3.805,2.855-9.549-0.95-12.83c-3.806-3.281-9.551-2.855-12.83,0.95c-12.121,14.058-29.706,22.121-48.249,22.121
	c-35.11,0-63.674-28.564-63.674-63.674s28.564-63.674,63.674-63.674c29.292,0,54.014,19.888,61.406,46.867l-16.411-11.057
	c-4.169-2.807-9.821-1.705-12.628,2.461c-2.807,4.166-1.705,9.82,2.461,12.628l32.859,22.139c1.56,1.05,3.327,1.554,5.075,1.554
	c2.924,0,5.795-1.408,7.553-4.015l22.139-32.859C443.004,242.246,441.902,236.593,437.736,233.786z"/>
<path d="M336.079,363.858c-5.024,0-9.097,4.073-9.097,9.097v91.069H88.444V80.714h238.538v88.481c0,5.024,4.073,9.097,9.097,9.097
	s9.097-4.073,9.097-9.097V71.617c0-5.024-4.073-9.097-9.097-9.097h-17.994l-14.793-25.271c-1.633-2.787-4.62-4.501-7.851-4.501
	H165.644L141.691,3.351c-3.174-3.895-8.905-4.481-12.799-1.306c-3.895,3.174-4.479,8.904-1.306,12.799l14.589,17.905h-22.196
	c-3.231,0-6.219,1.714-7.851,4.501L97.335,62.52H79.347c-5.024,0-9.097,4.073-9.097,9.097v401.504c0,5.024,4.073,9.097,9.097,9.097
	H91.52v20.685c0,5.024,4.073,9.097,9.097,9.097h214.185c5.024,0,9.097-4.073,9.097-9.097v-20.685h12.18
	c5.024,0,9.097-4.073,9.097-9.097V372.955C345.176,367.931,341.103,363.858,336.079,363.858z M125.194,50.941h165.032l6.778,11.578
	H118.416L125.194,50.941z M305.705,493.806H109.714v-11.588h195.992L305.705,493.806L305.705,493.806z"/>
<g>
</g>
<g>
</g>
<g>
</g>
<g>
</g>
<g>
</g>
<g>
</g>
<g>
</g>
<g>
</g>
<g>
</g>
<g>
</g>
<g>
</g>
<g>
</g>
<g>
</g>
<g>
</g>
<g>
</g>
</svg>
