<?xml version="1.0" encoding="iso-8859-1"?>
<!-- Generator: Adobe Illustrator 19.0.0, SVG Export Plug-In . SVG Version: 6.00 Build 0)  -->
<svg version="1.1" id="Layer_1" xmlns="http://www.w3.org/2000/svg" xmlns:xlink="http://www.w3.org/1999/xlink" x="0px" y="0px"
	 viewBox="0 0 512 512" style="enable-background:new 0 0 512 512;" xml:space="preserve">
<path style="fill:#7FE2B5;" d="M256.366,136.299h-15.804c-61.912,0-112.101-50.189-112.101-112.101V8.395h15.804
	c61.912,0,112.101,50.189,112.101,112.101V136.299z"/>
<circle style="fill:#90C666;" cx="256.37" cy="333.852" r="169.762"/>
<ellipse style="fill:#9DDA74;" cx="256.37" cy="333.852" rx="103.39" ry="169.762"/>
<path d="M264.389,155.893v-19.598v-15.804C264.389,54.052,210.337,0,143.899,0h-15.804c-4.634,0-8.39,3.757-8.39,8.39v15.804
	c0,66.439,54.052,120.491,120.491,120.491h7.414v11.208c-94.354,4.396-169.764,82.529-169.764,177.952
	C77.846,432.079,157.765,512,256,512s178.154-79.919,178.154-178.155C434.154,238.423,358.743,160.29,264.389,155.893z
	 M389.222,342.235h27.935c-1.896,36.833-16.202,70.437-38.805,96.712c-31.064-18.375-70.981-28.936-113.963-30.153v-66.56h66.105
	c4.635,0,8.39-3.757,8.39-8.39c0-4.634-3.755-8.39-8.39-8.39h-66.105v-66.554c25.34-0.717,49.61-4.686,71.633-11.586
	c9.738,25.654,14.974,55.388,14.974,86.531c0,22.213-2.645,43.742-7.859,63.987c-1.156,4.487,1.545,9.063,6.032,10.218
	c0.703,0.181,1.406,0.267,2.099,0.267c3.736,0,7.145-2.514,8.119-6.299c5.568-21.612,8.39-44.549,8.39-68.173
	c0-32.995-5.553-64.655-15.928-92.15c9.386-3.749,18.26-8.07,26.506-12.949c22.601,26.275,36.906,59.878,38.802,96.709h-27.935
	c-4.635,0-8.39,3.757-8.39,8.39C380.832,338.477,384.587,342.235,389.222,342.235z M264.389,173.114
	c21.477,3.257,41.658,18.958,57.549,45.052c2.628,4.315,5.071,8.852,7.363,13.552c-20.065,6.088-42.18,9.681-64.912,10.393
	L264.389,173.114L264.389,173.114z M336.271,209.439c-5.756-9.451-12.064-17.734-18.813-24.797
	c18.225,7.534,34.777,18.312,48.937,31.613c-6.596,3.666-13.672,6.974-21.124,9.913C342.506,220.34,339.505,214.751,336.271,209.439
	z M247.609,242.112c-22.732-0.713-44.85-4.306-64.918-10.396c6.749-13.9,14.844-25.911,24.01-35.47
	c12.498-13.035,26.496-20.896,40.907-23.108V242.112z M166.71,226.159c-7.446-2.937-14.515-6.241-21.106-9.904
	c14.125-13.269,30.63-24.026,48.801-31.558C183.825,195.753,174.451,209.717,166.71,226.159z M160.166,241.699
	c-1.794,4.785-3.475,9.72-5.008,14.832c-1.33,4.439,1.188,9.115,5.627,10.446c4.437,1.331,9.115-1.188,10.446-5.626
	c1.446-4.824,3.036-9.504,4.75-14.037c22.024,6.899,46.292,10.868,71.627,11.586v66.554h-86.476
	c0.256-8.356,0.895-16.661,1.907-24.786c0.573-4.599-2.69-8.791-7.288-9.363c-4.607-0.574-8.79,2.69-9.363,7.288
	c-1.097,8.809-1.779,17.811-2.04,26.861H94.841c1.896-36.831,16.201-70.434,38.801-96.708
	C141.894,233.627,150.775,237.95,160.166,241.699z M247.609,408.795c-25.336,0.718-49.605,4.687-71.63,11.587
	c-8.861-23.343-13.996-50.058-14.846-78.147h86.476L247.609,408.795L247.609,408.795z M247.609,425.583v68.993
	c-9.285-1.408-18.359-5.152-27.066-11.199c-11.345-7.879-21.6-19.27-30.482-33.855c-2.627-4.313-5.069-8.848-7.36-13.545
	C202.767,429.889,224.88,426.296,247.609,425.583z M144.346,342.235c0.859,29.965,6.314,58.608,15.807,83.767
	c-9.386,3.748-18.259,8.069-26.507,12.945c-22.602-26.275-36.908-59.879-38.804-96.712H144.346z M166.732,441.528
	c2.763,5.826,5.763,11.412,8.998,16.722c5.756,9.451,12.064,17.734,18.813,24.798c-18.224-7.534-34.775-18.311-48.934-31.611
	C152.204,447.772,159.279,444.466,166.732,441.528z M330.817,451.459c-3.872-2.547-9.074-1.474-11.622,2.396
	c-15.426,23.443-34.63,37.625-54.806,40.717v-68.99c37.944,1.187,74.177,10.393,102.001,25.854
	c-14.177,13.317-30.754,24.104-49.005,31.64c5.605-5.844,10.905-12.517,15.828-19.998
	C335.761,459.209,334.688,454.006,330.817,451.459z M160.728,52.887l-19.742,1.542c-2.498-8.18-4.008-16.785-4.394-25.678
	L160.728,52.887z M148.457,16.887c17.416,0.757,33.727,5.828,47.897,14.172l-2.944,30.781L148.457,16.887z M235.638,127.798
	c-16.364-0.711-31.755-5.23-45.309-12.695l29.135-3.479L235.638,127.798z M247.504,115.934l-38.71-38.71l3.327-34.777
	C232.788,60.536,246.232,86.681,247.504,115.934z M147.54,70.749l28.8-2.25l28.028,28.028l-34.209,4.085
	C160.929,92.148,153.235,82.036,147.54,70.749z"/>
<g>
</g>
<g>
</g>
<g>
</g>
<g>
</g>
<g>
</g>
<g>
</g>
<g>
</g>
<g>
</g>
<g>
</g>
<g>
</g>
<g>
</g>
<g>
</g>
<g>
</g>
<g>
</g>
<g>
</g>
</svg>
