<?xml version="1.0" encoding="iso-8859-1"?>
<!-- Generator: Adobe Illustrator 19.0.0, SVG Export Plug-In . SVG Version: 6.00 Build 0)  -->
<svg version="1.1" id="Layer_1" xmlns="http://www.w3.org/2000/svg" xmlns:xlink="http://www.w3.org/1999/xlink" x="0px" y="0px"
	 viewBox="0 0 512 512" style="enable-background:new 0 0 512 512;" xml:space="preserve">
<path style="fill:#666666;" d="M486.613,57.209H259.621c-11.362,0-20.574,9.212-20.574,20.574v52.052h-30.7V77.783
	c0-11.362-9.212-20.574-20.574-20.574H145.31c-11.362,0-20.574,9.211-20.574,20.574v52.052H95.343V77.783
	c0-11.362-9.211-20.574-20.574-20.574H55.17c-11.363,0-20.576-9.213-20.576-20.576l0,0c0-11.363,9.213-20.576,20.576-20.576h377.215
	c25.144,0,47.24,16.672,54.141,40.851L486.613,57.209z"/>
<g>
	<polygon style="fill:#FD6568;" points="237.944,117.745 242.656,164.037 198.306,164.037 198.293,164.037 203.005,117.745 	"/>
	<polygon style="fill:#FD6568;" points="125.064,117.745 129.776,164.037 85.413,164.037 90.125,117.745 	"/>
</g>
<g>
	<polygon style="fill:#E6E6E6;" points="419.861,231.429 419.861,323.569 327.722,323.569 327.722,270.721 	"/>
	<polygon style="fill:#E6E6E6;" points="242.656,164.037 258.908,323.569 182.042,323.569 198.293,164.037 198.306,164.037 	"/>
	<polygon style="fill:#E6E6E6;" points="129.776,164.037 146.027,323.569 69.162,323.569 85.413,164.037 	"/>
</g>
<polygon style="fill:#C79175;" points="464.695,323.569 464.695,495.95 48.112,495.95 48.112,323.569 69.162,323.569 
	146.027,323.569 182.042,323.569 258.908,323.569 327.722,323.569 419.861,323.569 "/>
<path d="M163.865,357.388H93.851c-5.123,0-9.276,4.153-9.276,9.276s4.153,9.276,9.276,9.276h70.013c5.123,0,9.276-4.153,9.276-9.276
	S168.988,357.388,163.865,357.388z"/>
<path d="M163.865,400.481H93.851c-5.123,0-9.276,4.153-9.276,9.276c0,5.123,4.153,9.276,9.276,9.276h70.013
	c5.123,0,9.276-4.153,9.276-9.276C173.14,404.634,168.988,400.481,163.865,400.481z"/>
<path d="M163.865,443.574H93.851c-5.123,0-9.276,4.153-9.276,9.276c0,5.123,4.153,9.276,9.276,9.276h70.013
	c5.123,0,9.276-4.153,9.276-9.276C173.14,447.727,168.988,443.574,163.865,443.574z"/>
<path d="M291.007,357.388h-70.014c-5.123,0-9.276,4.153-9.276,9.276s4.153,9.276,9.276,9.276h70.014
	c5.123,0,9.276-4.153,9.276-9.276S296.13,357.388,291.007,357.388z"/>
<path d="M291.007,400.481h-70.014c-5.123,0-9.276,4.153-9.276,9.276c0,5.123,4.153,9.276,9.276,9.276h70.014
	c5.123,0,9.276-4.153,9.276-9.276C300.283,404.634,296.13,400.481,291.007,400.481z"/>
<path d="M291.007,443.574h-70.014c-5.123,0-9.276,4.153-9.276,9.276c0,5.123,4.153,9.276,9.276,9.276h70.014
	c5.123,0,9.276-4.153,9.276-9.276C300.283,447.727,296.13,443.574,291.007,443.574z"/>
<path d="M418.149,357.388h-70.013c-5.123,0-9.276,4.153-9.276,9.276s4.153,9.276,9.276,9.276h70.013
	c5.123,0,9.276-4.153,9.276-9.276S423.271,357.388,418.149,357.388z"/>
<path d="M418.149,400.481h-70.013c-5.123,0-9.276,4.153-9.276,9.276c0,5.123,4.153,9.276,9.276,9.276h70.013
	c5.123,0,9.276-4.153,9.276-9.276C427.424,404.634,423.271,400.481,418.149,400.481z"/>
<path d="M418.149,443.574h-70.013c-5.123,0-9.276,4.153-9.276,9.276c0,5.123,4.153,9.276,9.276,9.276h70.013
	c5.123,0,9.276-4.153,9.276-9.276C427.424,447.727,423.271,443.574,418.149,443.574z"/>
<path d="M54.764,66.48h19.599c6.23,0,11.298,5.068,11.298,11.298v12.087c0,5.123,4.153,9.276,9.276,9.276s9.276-4.153,9.276-9.276
	V77.778c0-16.459-13.391-29.85-29.85-29.85H54.764c-6.231,0-11.3-5.07-11.3-11.3s5.07-11.3,11.3-11.3h385.065
	c5.123,0,9.276-4.153,9.276-9.276s-4.153-9.276-9.276-9.276H54.764c-16.46,0-29.852,13.392-29.852,29.852S38.304,66.48,54.764,66.48
	z"/>
<path d="M207.941,99.141c5.123,0,9.276-4.153,9.276-9.276V77.778c0-16.459-13.391-29.85-29.85-29.85h-42.463
	c-16.459,0-29.85,13.391-29.85,29.85v12.087c0,5.123,4.153,9.276,9.276,9.276s9.276-4.153,9.276-9.276V77.778
	c0-6.23,5.068-11.298,11.298-11.298h42.463c6.23,0,11.298,5.068,11.298,11.298v12.087C198.666,94.988,202.819,99.141,207.941,99.141
	z"/>
<path d="M229.367,77.778v12.087c0,5.123,4.153,9.276,9.276,9.276c5.123,0,9.276-4.153,9.276-9.276V77.778
	c0-6.23,5.068-11.298,11.298-11.298h226.991c5.123,0,9.276-4.153,9.276-9.276s-4.153-9.276-9.276-9.276H259.216
	C242.757,47.929,229.367,61.319,229.367,77.778z"/>
<path d="M471.968,94.438c0-5.123-4.153-9.276-9.276-9.276H286.326c-5.123,0-9.276,4.153-9.276,9.276s4.153,9.276,9.276,9.276
	h176.367C467.815,103.713,471.968,99.56,471.968,94.438z"/>
<path d="M428.855,143.428c0-5.123-4.153-9.276-9.276-9.276H311.801c-5.123,0-9.276,4.153-9.276,9.276
	c0,5.123,4.153,9.276,9.276,9.276h107.779C424.703,152.703,428.855,148.55,428.855,143.428z"/>
<path d="M284.367,178.151c-5.123,0-9.276,4.153-9.276,9.276s4.153,9.276,9.276,9.276h56.83c5.123,0,9.276-4.153,9.276-9.276
	s-4.153-9.276-9.276-9.276H284.367z"/>
<path d="M502.724,486.672h-29.156V323.567c0-5.123-4.153-9.276-9.276-9.276h-35.566v-82.864c0-3.115-1.563-6.022-4.163-7.74
	c-2.598-1.717-5.887-2.013-8.751-0.793l-92.14,39.294c-3.418,1.458-5.637,4.816-5.637,8.533v43.57h-51.152L246.77,116.801
	c-0.482-4.734-4.47-8.336-9.228-8.336h-34.939c-4.759,0-8.745,3.601-9.228,8.336l-20.114,197.491h-19.264l-20.115-197.491
	c-0.482-4.734-4.47-8.336-9.228-8.336H89.717c-4.759,0-8.746,3.601-9.228,8.336L60.374,314.292H47.707
	c-5.123,0-9.276,4.153-9.276,9.276v163.105H9.276c-5.123,0-9.276,4.153-9.276,9.276c0,5.123,4.153,9.276,9.276,9.276h493.448
	c5.123,0,9.276-4.153,9.276-9.276C512,490.825,507.847,486.672,502.724,486.672z M336.587,276.85l73.588-31.382v68.824h-73.588
	V276.85z M229.163,127.017l2.826,27.743h-23.831l2.826-27.743H229.163z M206.267,173.312h27.61l14.358,140.98h-56.326
	L206.267,173.312z M116.277,127.017l2.826,27.743H95.27l2.826-27.743H116.277z M93.381,173.312h27.611l14.358,140.98H79.022
	L93.381,173.312z M56.983,486.672V332.843h398.035v153.829H56.983z"/>
<g>
</g>
<g>
</g>
<g>
</g>
<g>
</g>
<g>
</g>
<g>
</g>
<g>
</g>
<g>
</g>
<g>
</g>
<g>
</g>
<g>
</g>
<g>
</g>
<g>
</g>
<g>
</g>
<g>
</g>
</svg>
