<?xml version="1.0" encoding="iso-8859-1"?>
<!-- Generator: Adobe Illustrator 19.0.0, SVG Export Plug-In . SVG Version: 6.00 Build 0)  -->
<svg version="1.1" id="Layer_1" xmlns="http://www.w3.org/2000/svg" xmlns:xlink="http://www.w3.org/1999/xlink" x="0px" y="0px"
	 viewBox="0 0 512 512" style="enable-background:new 0 0 512 512;" xml:space="preserve">
<path style="fill:#FD6568;" d="M266.81,89.122H142.074c-28.918,0-52.362,23.444-52.362,52.362v361.832h229.46V141.484
	C319.172,112.566,295.729,89.122,266.81,89.122z"/>
<path style="fill:#E04F56;" d="M185.514,89.122h-43.44c-28.918,0-52.362,23.444-52.362,52.362v361.832h43.44V141.484
	C133.152,112.566,156.595,89.122,185.514,89.122z"/>
<path style="fill:#F8DF70;" d="M260.517,153.293h-112.15c-8.231,0-14.902,6.672-14.902,14.902v57.701
	c0,8.231,6.672,14.902,14.902,14.902h112.15c8.231,0,14.902-6.672,14.902-14.902v-57.701
	C275.419,159.966,268.747,153.293,260.517,153.293z"/>
<path style="fill:#64BF94;" d="M146.526,427.504h14.313c56.068,0,101.52-45.452,101.52-101.52v-14.313h-14.313
	c-56.068,0-101.52,45.452-101.52,101.52V427.504z"/>
<path d="M260.137,144.6h-112.15c-13.008,0-23.591,10.582-23.591,23.591v57.701c0,13.008,10.582,23.591,23.591,23.591h112.15
	c13.008,0,23.591-10.582,23.591-23.591v-57.701C283.727,155.183,273.145,144.6,260.137,144.6z M266.35,225.892
	c0,3.427-2.787,6.214-6.214,6.214h-112.15c-3.427,0-6.214-2.787-6.214-6.214v-57.701c0-3.427,2.787-6.214,6.214-6.214h112.15
	c3.427,0,6.214,2.787,6.214,6.214V225.892z"/>
<path d="M180.726,174.741c-4.798,0-8.688,3.89-8.688,8.688v27.224c0,4.798,3.89,8.688,8.688,8.688s8.688-3.89,8.688-8.688v-27.224
	C189.414,178.631,185.524,174.741,180.726,174.741z"/>
<path d="M227.398,174.741c-4.798,0-8.688,3.89-8.688,8.688v27.224c0,4.798,3.89,8.688,8.688,8.688c4.798,0,8.688-3.89,8.688-8.688
	v-27.224C236.086,178.631,232.197,174.741,227.398,174.741z"/>
<path d="M275.039,270.588H133.085c-4.798,0-8.688,3.89-8.688,8.688c0,4.798,3.89,8.688,8.688,8.688h141.954
	c4.798,0,8.688-3.89,8.688-8.688C283.727,274.478,279.838,270.588,275.039,270.588z"/>
<path d="M275.039,458.462H133.085c-4.798,0-8.688,3.89-8.688,8.688c0,4.798,3.89,8.688,8.688,8.688h141.954
	c4.798,0,8.688-3.89,8.688-8.688C283.727,462.352,279.838,458.462,275.039,458.462z"/>
<path d="M401.444,312.798c-14.899-37.121-22.453-76.225-22.453-116.225v-1.953h6.221c4.798,0,8.688-3.89,8.688-8.688
	c0-4.798-3.89-8.688-8.688-8.688h-4.923v-34.481h5.954c15.303,0,27.753-12.45,27.753-27.753c0-19.602-5.236-38.904-15.143-55.821
	l-1.085-1.854l31.906-43.508c2.838-3.869,2.002-9.307-1.869-12.144c-3.869-2.837-9.307-2.002-12.144,1.869l-35.212,48.018
	c-0.021,0.028-0.041,0.056-0.06,0.082l-6.899,9.408c-6.919,9.436-10.577,20.608-10.577,32.309v83.875h-6.87
	c-4.798,0-8.688,3.89-8.688,8.688c0,4.798,3.89,8.688,8.688,8.688h5.573v1.953c0,42.228,7.975,83.509,23.703,122.697l24.968,62.206
	c5.398,13.45,3.838,28.048-4.279,40.055c-8.117,12.005-21.085,18.891-35.577,18.891c-23.681,0-42.947-19.266-42.947-42.947V251.099
	h19.114c4.798,0,8.688-3.89,8.688-8.688c0-4.798-3.89-8.688-8.688-8.688h-19.114V141.48c0-33.663-27.387-61.05-61.05-61.05h-124.74
	c-33.663,0-61.05,27.387-61.05,61.05v361.832c0,4.798,3.89,8.688,8.688,8.688h229.46c4.798,0,8.688-3.89,8.688-8.688v-63.528
	c10.947,11.112,26.154,18.015,42.947,18.015c20.056,0,38.737-9.92,49.973-26.534c11.235-16.614,13.482-37.646,6.011-56.26
	L401.444,312.798z M386.242,125.385h-5.954V93.368c0-7.379,2.158-14.437,6.21-20.547c6.63,13.043,10.12,27.514,10.12,42.188
	C396.618,120.731,391.963,125.385,386.242,125.385z M310.104,494.624H98.021V141.48c0-24.082,19.592-43.674,43.674-43.674H266.43
	c24.082,0,43.674,19.592,43.674,43.674V494.624z"/>
<path d="M160.459,436.187c60.769,0,110.208-49.439,110.208-110.208v-14.311c0-4.798-3.89-8.688-8.688-8.688h-14.311
	c-60.769,0-110.208,49.439-110.208,110.208v14.311c0,4.798,3.89,8.688,8.688,8.688H160.459z M253.002,332.93
	c-0.495,6.643-1.684,13.09-3.509,19.274l-14.623-1.142L253.002,332.93z M203.695,357.665l-2.378-24.858
	c11.757-6.806,25.131-11.101,39.399-12.164L203.695,357.665z M179.63,406.302l22.348,2.669c-10.542,5.295-22.22,8.632-34.568,9.551
	L179.63,406.302z M223.498,394.041l-28.236-3.372l23.441-23.44l23.927,1.869C237.692,378.471,231.203,386.899,223.498,394.041z
	 M185.004,344.764l2.758,28.832l-32.64,32.64C156.929,381.975,168.078,360.278,185.004,344.764z"/>
<g>
</g>
<g>
</g>
<g>
</g>
<g>
</g>
<g>
</g>
<g>
</g>
<g>
</g>
<g>
</g>
<g>
</g>
<g>
</g>
<g>
</g>
<g>
</g>
<g>
</g>
<g>
</g>
<g>
</g>
</svg>
