<?xml version="1.0" encoding="iso-8859-1"?>
<!-- Generator: Adobe Illustrator 19.0.0, SVG Export Plug-In . SVG Version: 6.00 Build 0)  -->
<svg version="1.1" id="Layer_1" xmlns="http://www.w3.org/2000/svg" xmlns:xlink="http://www.w3.org/1999/xlink" x="0px" y="0px"
	 viewBox="0 0 512 512" style="enable-background:new 0 0 512 512;" xml:space="preserve">
<rect x="9.995" y="259.115" style="fill:#68B9DA;" width="492.848" height="48.519"/>
<g>
	<path style="fill:#80D2EE;" d="M111.205,430.303L111.205,430.303c-15.457-15.457-15.457-40.518,0-55.977l27.988-27.988
		l27.988,27.988c15.457,15.457,15.457,40.518,0,55.977l0,0C151.723,445.76,126.662,445.76,111.205,430.303z"/>
	<path style="fill:#80D2EE;" d="M228.43,430.303L228.43,430.303c-15.457-15.457-15.457-40.518,0-55.977l27.988-27.988l27.988,27.988
		c15.457,15.457,15.457,40.518,0,55.977l0,0C268.949,445.76,243.888,445.76,228.43,430.303z"/>
	<path style="fill:#80D2EE;" d="M345.656,430.303L345.656,430.303c-15.457-15.457-15.457-40.518,0-55.977l27.988-27.988
		l27.988,27.988c15.457,15.457,15.457,40.518,0,55.977l0,0C386.176,445.76,361.115,445.76,345.656,430.303z"/>
	<polygon style="fill:#80D2EE;" points="102.023,259.109 128.188,174.8 163.074,180.615 221.217,70.141 282.269,96.306 
		325.877,198.058 386.928,198.058 436.35,259.109 	"/>
</g>
<path d="M9.576,268.68h492.848c5.29,0,9.576-4.288,9.576-9.576c0-5.289-4.286-9.576-9.576-9.576H440.5l-46.549-57.501
	c-1.818-2.246-4.553-3.551-7.443-3.551h-54.737l-41.12-95.947c-0.969-2.261-2.769-4.062-5.029-5.029l-61.051-26.164
	c-4.593-1.97-9.922-0.077-12.246,4.341l-54.922,104.35l-28.06-4.677c-4.729-0.79-9.302,2.035-10.72,6.607l-24.073,77.571H9.576
	c-5.29,0-9.576,4.288-9.576,9.576C0,264.392,4.286,268.68,9.576,268.68z M134.438,185.615l61.528,10.254
	c0.534,0.089,1.064,0.132,1.586,0.132c4.598,0,8.653-3.32,9.436-8.003c0.87-5.217-2.656-10.151-7.872-11.02l-21.816-3.636
	l47.853-90.92l49.402,21.173l42.099,98.231c1.509,3.521,4.972,5.804,8.802,5.804h56.482l33.918,41.898H319.94l-16.323-35.157
	c-1.569-3.381-4.959-5.544-8.686-5.544h-27.619c-5.29,0-9.576,4.288-9.576,9.576c0,5.289,4.286,9.576,9.576,9.576h21.507
	l10.005,21.549h-184.22L134.438,185.615z"/>
<path d="M502.424,298.046H9.576c-5.29,0-9.576,4.288-9.576,9.576s4.286,9.576,9.576,9.576h492.848c5.29,0,9.576-4.288,9.576-9.576
	S507.714,298.046,502.424,298.046z"/>
<path d="M145.545,339.562c-1.796-1.796-4.231-2.805-6.772-2.805s-4.974,1.009-6.772,2.805l-27.986,27.988
	c-9.285,9.284-14.399,21.628-14.399,34.759c0,13.131,5.114,25.475,14.397,34.76c9.585,9.585,22.17,14.376,34.761,14.374
	c12.585,0,25.177-4.792,34.759-14.374c9.285-9.284,14.399-21.628,14.399-34.76c0-13.131-5.114-25.475-14.397-34.759L145.545,339.562
	z M159.99,423.526c-11.697,11.698-30.733,11.699-42.432,0c0,0,0,0-0.001,0c-5.666-5.666-8.788-13.202-8.788-21.217
	s3.121-15.549,8.79-21.217l21.215-21.217l21.218,21.217c5.666,5.666,8.788,13.202,8.788,21.217
	C168.779,410.324,165.658,417.858,159.99,423.526z"/>
<path d="M262.772,339.562c-1.796-1.796-4.231-2.805-6.772-2.805c-2.541,0-4.974,1.009-6.772,2.805l-27.989,27.988
	c-19.165,19.166-19.165,50.352,0,69.518c9.585,9.585,22.17,14.374,34.761,14.374c12.586,0,25.177-4.792,34.759-14.374
	c9.285-9.284,14.399-21.628,14.399-34.759s-5.114-25.475-14.397-34.759L262.772,339.562z M277.215,423.526
	c-11.697,11.698-30.733,11.699-42.432,0c-11.698-11.699-11.698-30.734,0-42.433L256,359.876l21.217,21.217
	c5.666,5.666,8.788,13.202,8.788,21.217S282.884,417.858,277.215,423.526z"/>
<path d="M379.997,339.562c-1.796-1.796-4.231-2.805-6.772-2.805s-4.974,1.009-6.772,2.805l-27.986,27.988
	c-9.285,9.284-14.399,21.628-14.399,34.759c0,13.131,5.114,25.475,14.397,34.76c9.584,9.584,22.172,14.374,34.76,14.374
	s25.177-4.791,34.761-14.374c19.165-19.166,19.165-50.352,0-69.518L379.997,339.562z M394.442,423.526
	c-5.666,5.666-13.201,8.788-21.215,8.788c-8.013,0-15.549-3.121-21.215-8.788c0,0,0,0-0.001,0
	c-5.666-5.666-8.788-13.202-8.788-21.217s3.121-15.549,8.79-21.217l21.215-21.217l21.217,21.217
	C406.142,392.792,406.141,411.827,394.442,423.526z"/>
<g>
</g>
<g>
</g>
<g>
</g>
<g>
</g>
<g>
</g>
<g>
</g>
<g>
</g>
<g>
</g>
<g>
</g>
<g>
</g>
<g>
</g>
<g>
</g>
<g>
</g>
<g>
</g>
<g>
</g>
</svg>
