<?xml version="1.0" encoding="iso-8859-1"?>
<!-- Generator: Adobe Illustrator 19.0.0, SVG Export Plug-In . SVG Version: 6.00 Build 0)  -->
<svg version="1.1" id="Layer_1" xmlns="http://www.w3.org/2000/svg" xmlns:xlink="http://www.w3.org/1999/xlink" x="0px" y="0px"
	 viewBox="0 0 511.999 511.999" style="enable-background:new 0 0 511.999 511.999;" xml:space="preserve">
<g>
	<path style="fill:#FD6568;" d="M435.282,203.073c15.309,28.514,23.994,61.126,23.994,95.772
		c0,112.023-90.815,202.824-202.824,202.824V203.073L435.282,203.073L435.282,203.073z"/>
	<path style="fill:#FD6568;" d="M256.452,203.073v298.595c-112.023,0-202.837-90.801-202.837-202.824
		c0-34.646,8.685-67.257,24.008-95.772H256.452z"/>
</g>
<path style="fill:#4D4D4D;" d="M256.452,37.777c40.887,0,74.222,32.365,75.779,72.87c-23.421-9.437-48.985-14.626-75.779-14.626
	c-26.794,0-52.358,5.189-75.779,14.626C182.23,70.142,215.551,37.777,256.452,37.777z"/>
<path style="fill:#808080;" d="M332.231,110.647c44.206,17.822,80.695,50.761,103.051,92.426H256.452H77.623
	c22.342-41.665,58.845-74.618,103.051-92.426c23.421-9.437,48.985-14.626,75.779-14.626
	C283.246,96.021,308.81,101.21,332.231,110.647z"/>
<g>
	<circle style="fill:#666666;" cx="151.189" cy="295.167" r="42.931"/>
	<circle style="fill:#666666;" cx="192.991" cy="407.763" r="23.725"/>
	<circle style="fill:#666666;" cx="361.701" cy="295.167" r="42.931"/>
	<circle style="fill:#666666;" cx="319.899" cy="407.763" r="23.725"/>
</g>
<path d="M203.916,295.16c0-29.32-23.853-53.174-53.174-53.174S97.569,265.84,97.569,295.16c0,29.32,23.853,53.174,53.174,53.174
	S203.916,324.48,203.916,295.16z M118.053,295.16c0-18.025,14.664-32.689,32.689-32.689s32.689,14.664,32.689,32.689
	s-14.664,32.689-32.689,32.689S118.053,313.185,118.053,295.16z"/>
<path d="M158.577,407.762c0,18.73,15.238,33.967,33.967,33.967s33.967-15.238,33.967-33.967c0-18.73-15.238-33.967-33.967-33.967
	S158.577,389.032,158.577,407.762z M206.027,407.762c0,7.435-6.048,13.483-13.483,13.483c-7.435,0-13.483-6.048-13.483-13.483
	c0-7.434,6.048-13.483,13.483-13.483C199.979,394.279,206.027,400.327,206.027,407.762z"/>
<path d="M361.259,241.986c-29.32,0-53.174,23.854-53.174,53.174c0,29.32,23.854,53.174,53.174,53.174
	c29.32,0,53.174-23.853,53.174-53.174C414.432,265.84,390.578,241.986,361.259,241.986z M361.259,327.849
	c-18.025,0-32.689-14.664-32.689-32.689s14.664-32.689,32.689-32.689c18.025,0,32.689,14.664,32.689,32.689
	S379.282,327.849,361.259,327.849z"/>
<path d="M319.457,373.794c-18.73,0-33.967,15.238-33.967,33.967c0,18.73,15.238,33.967,33.967,33.967
	c18.73,0,33.967-15.238,33.967-33.967C353.424,389.032,338.186,373.794,319.457,373.794z M319.457,421.245
	c-7.435,0-13.483-6.048-13.483-13.483c0-7.435,6.048-13.483,13.483-13.483c7.434,0,13.483,6.048,13.483,13.483
	C332.94,415.196,326.891,421.245,319.457,421.245z"/>
<path d="M501.758,288.595h-32.94c-2.83-59.498-30.18-112.674-72.142-149.639l26.786-26.785c4-4,4-10.484,0-14.484
	c-3.999-4-10.484-4-14.484,0l-28.402,28.402c-12.134-8.774-25.223-16.3-39.082-22.395c-2.229-19.651-10.961-37.175-23.991-50.449
	l35.669-35.669c4-4,4-10.484,0-14.484c-4-4-10.485-4-14.484,0L301.4,40.378c-13.176-8.147-28.719-12.849-45.395-12.849
	c-16.489,0-31.872,4.595-44.952,12.576L174.04,3.092c-4-4-10.485-4-14.484,0c-4,4-4,10.484,0,14.484l35.31,35.31
	c-13.226,13.315-22.097,30.975-24.346,50.803c-13.863,6.096-26.956,13.624-39.093,22.4l-28.404-28.402c-4-4-10.485-4-14.484,0
	c-4,4-4,10.485,0,14.484l26.785,26.785c-41.963,36.966-69.313,90.141-72.142,149.639h-32.94C4.586,288.595,0,293.181,0,298.838
	c0,5.656,4.586,10.242,10.242,10.242h32.94c2.845,59.809,30.465,113.234,72.799,150.222l-27.444,27.442c-4,4-4,10.485,0,14.484
	c1.999,2.001,4.621,3,7.242,3c2.621,0,5.243-1,7.242-3l29.121-29.119c34.927,25.037,77.699,39.797,123.857,39.797
	c46.157,0,88.929-14.758,123.856-39.797l29.121,29.119c1.999,1.999,4.621,3,7.242,3c2.621,0,5.243-1,7.242-3c4-4,4-10.485,0-14.484
	l-27.444-27.442c42.336-36.988,69.954-90.413,72.799-150.222h32.94c5.656,0,10.242-4.586,10.242-10.242
	C511.999,293.181,507.416,288.595,501.758,288.595z M256.005,48.013c29.932,0,55.135,19.795,63.023,47.273
	c-19.927-6.184-41.095-9.517-63.028-9.517c-21.929,0-43.094,3.334-63.017,9.514C200.872,67.807,226.074,48.013,256.005,48.013z
	 M256,106.254c67.05,0,126.197,34.451,160.697,86.574H95.303C129.803,140.704,188.95,106.254,256,106.254z M63.416,298.838
	c0-30.704,7.234-59.744,20.068-85.527h162.274v277.838C144.309,485.808,63.416,401.595,63.416,298.838z M266.242,491.15V213.311
	h162.274c12.834,25.783,20.068,54.823,20.068,85.527C448.584,401.595,367.691,485.808,266.242,491.15z"/>
<g>
</g>
<g>
</g>
<g>
</g>
<g>
</g>
<g>
</g>
<g>
</g>
<g>
</g>
<g>
</g>
<g>
</g>
<g>
</g>
<g>
</g>
<g>
</g>
<g>
</g>
<g>
</g>
<g>
</g>
</svg>
