<?xml version="1.0" encoding="iso-8859-1"?>
<!-- Generator: Adobe Illustrator 19.0.0, SVG Export Plug-In . SVG Version: 6.00 Build 0)  -->
<svg version="1.1" id="Layer_1" xmlns="http://www.w3.org/2000/svg" xmlns:xlink="http://www.w3.org/1999/xlink" x="0px" y="0px"
	 viewBox="0 0 512.002 512.002" style="enable-background:new 0 0 512.002 512.002;" xml:space="preserve">
<path style="fill:#E6E6E6;" d="M220.162,467.047H292.6c0,20.011-16.214,36.225-36.213,36.225
	C236.375,503.272,220.162,487.058,220.162,467.047z"/>
<g>
	<path style="fill:#B3B3B3;" d="M328.138,443.903v3.052c0,11.1-8.992,20.093-20.093,20.093H292.6h-72.438h-15.445
		c-11.1,0-20.093-8.992-20.093-20.093v-3.052c0-11.1,8.992-20.093,20.093-20.093h103.329
		C319.145,423.81,328.138,432.802,328.138,443.903z"/>
	<path style="fill:#B3B3B3;" d="M335.348,400.654v3.063c0,11.089-8.992,20.093-20.093,20.093h-7.21H204.716h-7.21
		c-11.1,0-20.093-9.004-20.093-20.093v-3.063c0-11.1,8.992-20.093,20.093-20.093h117.749
		C326.355,380.561,335.348,389.553,335.348,400.654z"/>
	<path style="fill:#B3B3B3;" d="M330.421,338.687c7.501,2.9,12.824,10.192,12.824,18.718v3.063c0,11.1-8.992,20.093-20.093,20.093
		h-7.897H197.506h-7.897c-11.089,0-20.093-8.992-20.093-20.093v-3.063c0-9.773,6.989-17.914,16.237-19.708
		c1.246-0.245,2.539-0.373,3.855-0.373h39.906h57.145h36.493C325.715,337.324,328.161,337.802,330.421,338.687z"/>
</g>
<path style="fill:#999999;" d="M223.691,446.954v-3.052c0-11.1,8.992-20.093,20.093-20.093h-7.21
	c-11.1,0-20.093-9.004-20.093-20.093v-3.063c0-11.1,8.992-20.093,20.093-20.093h-7.897c-11.089,0-20.093-8.992-20.093-20.093v-3.063
	c0-9.773,6.989-17.914,16.237-19.708c1.246-0.245,2.539-0.373,3.855-0.373h-39.067c-1.316,0-2.609,0.128-3.855,0.373
	c-9.248,1.794-16.237,9.936-16.237,19.708v3.063c0,11.1,9.004,20.093,20.093,20.093h7.897c-11.1,0-20.093,8.992-20.093,20.093v3.063
	c0,11.089,8.992,20.093,20.093,20.093h7.21c-11.1,0-20.093,8.992-20.093,20.093v3.052c0,11.1,8.992,20.093,20.093,20.093h15.445
	h23.622C232.683,467.047,223.691,458.055,223.691,446.954z"/>
<g>
	<path style="fill:#D8C05B;" d="M185.754,296.463c6.406,1.456,13.29,1.165,19.93-1.211l23.832-8.503v50.575h-39.906
		c-1.316,0-2.609,0.128-3.855,0.373V296.463z"/>
	<path style="fill:#D8C05B;" d="M330.421,250.722v87.965c-2.26-0.885-4.706-1.363-7.268-1.363h-36.493v-70.982L330.421,250.722z"/>
	<path style="fill:#D8C05B;" d="M256.363,28.957l-76.597,27.349c-7.035,2.516-12.801,7-16.878,12.615
		c-3.96-6.162-6.15-13.395-6.15-20.861c0-4.298,0.722-8.666,2.26-12.952c7.152-20.046,29.201-30.494,49.247-23.331L256.363,28.957z"
		/>
</g>
<g>
	<path style="fill:#F8DF70;" d="M162.889,68.921c4.077-5.614,9.842-10.099,16.878-12.615l76.597-27.349l50.715-18.112
		c18.637-6.651,39.125,3.063,45.776,21.688l1.84,5.148c6.651,18.625-3.063,39.114-21.688,45.765l-127.323,45.45
		c-18.625,6.651-39.125-3.052-45.776-21.688l-1.829-5.137C153.943,90.482,156.133,78.17,162.889,68.921z"/>
	<path style="fill:#F8DF70;" d="M354.695,121.582c6.651,18.625-3.063,39.114-21.688,45.765l-127.323,45.45
		c-18.625,6.651-39.125-3.052-45.776-21.688l-1.829-5.137c-6.651-18.625,3.063-39.114,21.688-45.765l127.312-45.462
		c18.637-6.651,39.125,3.063,45.776,21.688L354.695,121.582z"/>
	<path style="fill:#F8DF70;" d="M354.695,204.026c6.651,18.637-3.063,39.125-21.688,45.776l-2.586,0.92l-43.761,15.62
		l-57.145,20.395v0.012l-23.832,8.503c-6.639,2.376-13.523,2.667-19.93,1.211c-11.555-2.621-21.572-10.914-25.847-22.9l-1.829-5.137
		c-6.651-18.625,3.063-39.125,21.688-45.776l127.312-45.45c18.637-6.651,39.125,3.063,45.776,21.688L354.695,204.026z"/>
</g>
<g>
	<path style="fill:#D8C05B;" d="M227.684,282.486c-11.555-2.621-21.572-10.914-25.847-22.9l-1.829-5.137
		c-6.651-18.625,3.063-39.125,21.688-45.776l-41.93,13.976c-18.625,6.651-28.339,27.151-21.688,45.776l1.829,5.137
		c4.275,11.986,14.292,20.279,25.847,22.9c6.406,1.456,13.29,1.165,19.93-1.211l23.832-8.503v-0.012l10.113-3.61
		C235.579,283.594,231.544,283.364,227.684,282.486z"/>
	<path style="fill:#D8C05B;" d="M227.684,200.03c-11.555-2.621-21.572-10.914-25.847-22.9l-1.829-5.137
		c-6.651-18.625,3.063-39.125,21.688-45.776l-41.93,13.976c-18.625,6.651-28.339,27.151-21.688,45.776l1.829,5.137
		c4.275,11.986,14.292,20.279,25.847,22.9c6.406,1.456,13.29,1.165,19.93-1.211l23.832-8.503v-0.012l10.113-3.61
		C235.579,201.138,231.544,200.909,227.684,200.03z"/>
	<path style="fill:#D8C05B;" d="M227.684,116.13c-11.555-2.621-21.572-10.914-25.847-22.9l-1.829-5.137
		c-6.651-18.625,3.063-39.125,21.688-45.776l-41.93,13.976c-18.625,6.651-28.339,27.151-21.688,45.776l1.829,5.137
		c4.275,11.986,14.292,20.279,25.847,22.9c6.406,1.456,13.29,1.165,19.93-1.211l23.832-8.503v-0.012l10.113-3.61
		C235.579,117.238,231.544,117.009,227.684,116.13z"/>
</g>
<path d="M360.838,68.79c5.096-10.753,5.699-22.849,1.698-34.056l-1.835-5.138C356.701,18.388,348.575,9.41,337.82,4.314
	c-10.755-5.095-22.85-5.698-34.056-1.697l-47.782,17.058l-45.18-16.136c-11.894-4.248-24.727-3.609-36.136,1.797
	c-11.411,5.407-20.034,14.937-24.28,26.836c-1.835,5.143-2.765,10.485-2.765,15.884c0,7.187,1.619,14.191,4.726,20.588
	c-0.412,0.756-0.811,1.522-1.182,2.306c-5.096,10.755-5.698,22.849-1.698,34.056l1.835,5.138
	c3.667,10.272,10.807,18.662,20.252,23.917c-8.921,4.425-16.06,11.654-20.388,20.79c-5.096,10.755-5.698,22.849-1.698,34.056
	l1.835,5.138c3.492,9.783,10.129,17.867,18.912,23.153c-8.297,4.469-14.937,11.43-19.049,20.107
	c-5.096,10.753-5.698,22.849-1.698,34.056l1.835,5.138c4.001,11.208,12.127,20.186,22.881,25.282
	c0.812,0.384,1.632,0.738,2.458,1.073v28.627c-9.603,4.682-16.236,14.544-16.236,25.927v3.06c0,10.002,5.123,18.828,12.879,23.999
	c-3.144,4.617-4.985,10.19-4.985,16.185v3.06c0,9.802,4.921,18.471,12.419,23.682c-3.279,4.679-5.211,10.367-5.211,16.502v3.061
	c0,15.895,12.933,28.827,28.827,28.827h7.573c4.078,20.619,22.296,36.218,44.094,36.218s40.016-15.598,44.094-36.218h7.573
	c15.895,0,28.827-12.933,28.827-28.827v-3.061c0-6.134-1.932-11.823-5.211-16.502c7.498-5.211,12.419-13.881,12.419-23.682v-3.06
	c0-5.995-1.842-11.568-4.985-16.185c7.756-5.172,12.879-13.997,12.879-23.999v-3.06c0-9.975-5.095-18.782-12.817-23.96v-76.728
	c9.7-4.325,17.461-11.875,22.058-21.574c5.096-10.755,5.699-22.849,1.698-34.056l-1.835-5.138
	c-3.492-9.783-10.129-17.866-18.912-23.153c8.297-4.469,14.937-11.43,19.049-20.107c5.096-10.753,5.699-22.849,1.698-34.056
	l-1.835-5.138c-3.667-10.272-10.807-18.662-20.252-23.917C349.368,85.155,356.508,77.926,360.838,68.79z M166.842,38.043
	c2.677-7.5,8.112-13.509,15.305-16.916c7.191-3.408,15.281-3.81,22.779-1.133l25.077,8.956l-53.557,19.12
	c-3.894,1.39-7.511,3.288-10.796,5.612c-0.355-1.844-0.556-3.722-0.556-5.625C165.093,44.665,165.682,41.295,166.842,38.043z
	 M334.126,360.466c0,6.262-5.095,11.357-11.356,11.357H189.232c-6.261,0-11.356-5.095-11.356-11.357v-3.06
	c0-6.261,5.095-11.356,11.356-11.356H322.77c6.261,0,11.356,5.095,11.356,11.356V360.466z M326.232,403.71
	c0,6.262-5.095,11.357-11.356,11.357H197.125c-6.261,0-11.356-5.095-11.356-11.357v-3.06c0-6.261,5.095-11.356,11.356-11.356
	h117.751c6.261,0,11.356,5.095,11.356,11.356V403.71z M295.013,328.578v-56.08l26.294-9.387v65.467H295.013z M277.541,328.578
	h-39.67v-35.68l39.67-14.163V328.578z M220.4,328.578h-26.288v-22.503c4.755-0.096,9.516-0.953,14.125-2.599l12.162-4.342v29.444
	H220.4z M256.001,494.528c-12.1,0-22.391-7.864-26.051-18.746h52.1C278.392,486.664,268.101,494.528,256.001,494.528z
	 M319.024,446.954c0,6.261-5.095,11.356-11.356,11.356H204.333c-6.261,0-11.356-5.095-11.356-11.356v-3.061
	c0-6.261,5.095-11.356,11.356-11.356h103.336c6.261,0,11.356,5.095,11.356,11.356V446.954z M346.08,206.962
	c2.432,6.813,2.065,14.164-1.032,20.699c-3.097,6.536-8.554,11.476-15.366,13.908l-127.319,45.452
	c-6.812,2.432-14.163,2.065-20.699-1.032c-6.537-3.097-11.476-8.554-13.908-15.367l-1.835-5.138
	c-2.432-6.813-2.065-14.164,1.032-20.699c3.097-6.536,8.554-11.476,15.366-13.908l127.319-45.452
	c2.976-1.062,6.053-1.591,9.123-1.591c3.956,0,7.896,0.878,11.577,2.622c6.537,3.097,11.475,8.554,13.908,15.367L346.08,206.962z
	 M346.08,124.509c5.02,14.063-2.335,29.587-16.398,34.607l-127.319,45.452c-6.812,2.431-14.163,2.065-20.699-1.032
	c-6.537-3.097-11.476-8.554-13.908-15.367l-1.835-5.138c-2.432-6.813-2.065-14.164,1.032-20.699
	c3.097-6.536,8.554-11.476,15.366-13.908l127.319-45.452c2.976-1.062,6.055-1.591,9.124-1.591c3.956,0,7.896,0.878,11.577,2.622
	c6.537,3.097,11.475,8.554,13.908,15.367L346.08,124.509z M329.682,75.216l-127.319,45.452c-6.812,2.432-14.163,2.065-20.699-1.032
	c-6.537-3.097-11.476-8.554-13.908-15.367l-1.835-5.138c-2.432-6.813-2.065-14.164,1.032-20.699
	c3.097-6.536,8.554-11.476,15.366-13.908l127.319-45.452c2.976-1.062,6.053-1.591,9.123-1.591c3.956,0,7.896,0.878,11.577,2.622
	c6.537,3.097,11.476,8.554,13.908,15.367l1.835,5.138C351.1,54.671,343.745,70.196,329.682,75.216z"/>
<path d="M395.143,71.972c2.235,0,4.472-0.853,6.177-2.559l34.012-34.012c3.412-3.412,3.412-8.943,0-12.354
	c-3.412-3.412-8.943-3.412-12.354,0l-34.012,34.012c-3.412,3.412-3.412,8.943,0,12.354
	C390.672,71.119,392.908,71.972,395.143,71.972z"/>
<path d="M110.682,209.693L76.67,243.705c-3.412,3.412-3.412,8.943,0,12.354c1.705,1.705,3.942,2.559,6.177,2.559
	s4.472-0.853,6.177-2.559l34.012-34.012c3.412-3.412,3.412-8.943,0-12.354C119.624,206.282,114.092,206.282,110.682,209.693z"/>
<path d="M474.856,130.817h-48.1c-4.825,0-8.736,3.911-8.736,8.736c0,4.825,3.911,8.736,8.736,8.736h48.1
	c4.825,0,8.736-3.911,8.736-8.736C483.592,134.729,479.68,130.817,474.856,130.817z"/>
<path d="M93.983,139.553c0-4.825-3.911-8.736-8.736-8.736H37.146c-4.825,0-8.736,3.911-8.736,8.736c0,4.825,3.911,8.736,8.736,8.736
	h48.1C90.072,148.289,93.983,144.378,93.983,139.553z"/>
<path d="M89.024,23.047c-3.412-3.412-8.943-3.412-12.354,0c-3.412,3.412-3.412,8.943,0,12.354l34.012,34.012
	c1.705,1.705,3.942,2.559,6.177,2.559c2.235,0,4.472-0.853,6.177-2.559c3.412-3.412,3.412-8.943,0-12.354L89.024,23.047z"/>
<path d="M401.321,209.693c-3.412-3.412-8.943-3.412-12.354,0c-3.412,3.412-3.412,8.943,0,12.354l34.012,34.012
	c1.705,1.705,3.942,2.559,6.177,2.559c2.235,0,4.472-0.853,6.177-2.559c3.412-3.412,3.412-8.943,0-12.354L401.321,209.693z"/>
<g>
</g>
<g>
</g>
<g>
</g>
<g>
</g>
<g>
</g>
<g>
</g>
<g>
</g>
<g>
</g>
<g>
</g>
<g>
</g>
<g>
</g>
<g>
</g>
<g>
</g>
<g>
</g>
<g>
</g>
</svg>
