<?xml version="1.0" encoding="iso-8859-1"?>
<!-- Generator: Adobe Illustrator 19.0.0, SVG Export Plug-In . SVG Version: 6.00 Build 0)  -->
<svg version="1.1" id="Layer_1" xmlns="http://www.w3.org/2000/svg" xmlns:xlink="http://www.w3.org/1999/xlink" x="0px" y="0px"
	 viewBox="0 0 512 512" style="enable-background:new 0 0 512 512;" xml:space="preserve">
<path style="fill:#CCCCCC;" d="M203.521,468.72h105.703c-8.892,20.357-29.202,34.593-52.852,34.593
	C232.735,503.313,212.413,489.077,203.521,468.72z"/>
<g>
	<path style="fill:#999999;" d="M334.38,430.278c10.619,0,19.221,8.602,19.221,19.221c0,5.309-2.156,10.109-5.634,13.587
		c-3.478,3.478-8.277,5.634-13.587,5.634h-25.156H203.521h-25.145c-10.607,0-19.221-8.613-19.221-19.221
		c0-5.309,2.156-10.109,5.634-13.587c3.478-3.478,8.289-5.634,13.587-5.634H334.38z"/>
	<path style="fill:#999999;" d="M343.991,391.836c10.619,0,19.221,8.602,19.221,19.221c0,5.309-2.145,10.109-5.622,13.587
		s-8.289,5.634-13.598,5.634h-9.61H178.376h-9.61c-10.607,0-19.221-8.613-19.221-19.221c0-5.309,2.156-10.109,5.634-13.587
		c3.478-3.478,8.277-5.634,13.587-5.634H343.991z"/>
	<path style="fill:#999999;" d="M343.991,353.395c10.619,0,19.221,8.602,19.221,19.221c0,5.309-2.145,10.109-5.622,13.587
		s-8.289,5.634-13.598,5.634H168.766c-10.607,0-19.221-8.602-19.221-19.221c0-5.309,2.156-10.109,5.634-13.587
		c3.478-3.478,8.277-5.634,13.587-5.634H343.991z"/>
</g>
<path style="fill:#666666;" d="M213.058,449.499c0-5.309,2.156-10.109,5.634-13.587c3.478-3.478,8.289-5.634,13.587-5.634h-9.61
	c-10.607,0-19.221-8.613-19.221-19.221c0-5.309,2.156-10.109,5.634-13.587c3.478-3.478,8.277-5.634,13.587-5.634
	c-10.607,0-19.221-8.602-19.221-19.221c0-5.309,2.156-10.109,5.634-13.587c3.478-3.478,8.277-5.634,13.587-5.634h-53.904
	c-5.31,0-10.109,2.156-13.587,5.634c-3.478,3.478-5.634,8.277-5.634,13.587c0,10.619,8.613,19.221,19.221,19.221
	c-5.31,0-10.109,2.156-13.587,5.634c-3.478,3.478-5.634,8.277-5.634,13.587c0,10.607,8.613,19.221,19.221,19.221h9.61
	c-5.298,0-10.109,2.156-13.587,5.634c-3.478,3.478-5.634,8.277-5.634,13.587c0,10.607,8.613,19.221,19.221,19.221h25.145h28.759
	C221.672,468.72,213.058,460.106,213.058,449.499z"/>
<path style="fill:#80D2EE;" d="M414.243,166.565c0,35.741-11.883,68.71-31.915,95.177c-19.673,25.991-30.86,57.407-30.86,90.006
	v1.646h-7.477H168.766h-7.477v-0.846c0-32.344-10.202-64.039-29.956-89.635c-21.18-27.44-33.526-62.045-32.784-99.559
	C100.229,78.715,169.473,9.889,254.135,8.718C342.345,7.489,414.243,78.634,414.243,166.565z"/>
<path style="fill:#68B9DA;" d="M254.135,8.718c0.29,0,0.58-0.012,0.869,0c-51.912,1.171-94.354,69.997-95.385,154.636
	c-0.452,37.514,7.106,72.119,20.102,99.559c12.103,25.597,18.363,57.292,18.363,89.635v0.846h-36.796v-0.846
	c0-32.344-10.202-64.039-29.956-89.635c-21.18-27.44-33.526-62.045-32.784-99.559C100.229,78.715,169.473,9.889,254.135,8.718z"/>
<path style="fill:#7FE2B5;" d="M308.54,276.952v1.148c0,28.17-22.838,51.008-51.008,51.008h-1.148v-1.148
	c0-28.17,22.838-51.008,51.008-51.008L308.54,276.952L308.54,276.952z"/>
<path style="fill:#F8DF70;" d="M256.384,100.73c32.97,0,59.714,26.733,59.714,59.714s-26.745,59.714-59.714,59.714
	c-32.981,0-59.714-26.733-59.714-59.714S223.403,100.73,256.384,100.73z"/>
<path style="fill:#F2F2F2;" d="M336.235,127.37c11.141,6.793,18.583,19.07,18.583,33.074c0,14.004-7.443,26.281-18.583,33.074
	c3.072,12.694-0.336,26.629-10.248,36.529c-9.9,9.912-23.846,13.32-36.529,10.26c-6.805,11.141-19.07,18.572-33.074,18.572
	c-14.016,0-26.281-7.431-33.086-18.572c-12.683,3.061-26.617-0.348-36.529-10.26c-9.9-9.9-13.32-23.835-10.248-36.529
	c-11.141-6.793-18.583-19.07-18.583-33.074c0-14.004,7.443-26.281,18.583-33.074c-3.072-12.694,0.348-26.629,10.248-36.529
	c9.912-9.912,23.846-13.332,36.529-10.26c6.805-11.141,19.07-18.583,33.086-18.583c14.004,0,26.269,7.443,33.074,18.583
	c12.682-3.072,26.629,0.348,36.529,10.26C335.899,100.742,339.307,114.676,336.235,127.37z M316.099,160.444
	c0-32.981-26.745-59.714-59.714-59.714c-32.981,0-59.714,26.733-59.714,59.714s26.733,59.714,59.714,59.714
	C289.354,220.159,316.099,193.426,316.099,160.444z"/>
<path d="M422.556,166.555c0-44.927-17.619-87.043-49.609-118.593C340.963,16.419,298.603-0.584,253.633,0.015
	c-43.212,0.602-84.025,17.842-114.918,48.547c-30.895,30.707-48.381,71.414-49.237,114.62
	c-0.76,38.409,11.202,74.731,34.592,105.038c17.636,22.851,27.544,51.771,28.095,81.694c-7.07,5.069-11.69,13.35-11.69,22.694
	c0,7.444,2.934,14.21,7.7,19.22c-4.766,5.009-7.7,11.776-7.7,19.22c0,10.184,5.485,19.108,13.653,23.984
	c-2.564,4.219-4.042,9.169-4.042,14.456c0,15.392,12.523,27.915,27.915,27.915h19.737C209.287,498.592,231.56,512,255.996,512
	s46.709-13.407,58.258-34.596h19.749c15.392,0,27.915-12.523,27.915-27.915c0-5.287-1.478-10.238-4.042-14.456
	c8.168-4.876,13.653-13.8,13.653-23.984c0-7.444-2.934-14.21-7.7-19.22c4.766-5.009,7.7-11.777,7.7-19.22
	c0-9.351-4.627-17.636-11.705-22.704c0.399-29.652,10.408-58.289,29.056-82.922C410.91,237.878,422.556,203.151,422.556,166.555z
	 M180.67,186.096c-9.027-5.509-14.417-15.101-14.417-25.657s5.389-20.147,14.417-25.657c3.225-1.968,4.81-5.794,3.921-9.467
	c-2.488-10.278,0.483-20.872,7.948-28.336c7.465-7.463,18.057-10.436,28.336-7.948c3.669,0.888,7.498-0.696,9.467-3.921
	c5.509-9.027,15.101-14.417,25.657-14.417s20.147,5.389,25.657,14.417c1.968,3.225,5.793,4.809,9.467,3.921
	c10.282-2.485,20.872,0.485,28.336,7.948c7.465,7.465,10.436,18.058,7.948,28.336c-0.889,3.673,0.697,7.498,3.921,9.467
	c9.027,5.509,14.417,15.101,14.417,25.657s-5.389,20.147-14.417,25.657c-3.225,1.968-4.81,5.794-3.921,9.467
	c2.488,10.278-0.483,20.872-7.948,28.336c-7.465,7.463-18.057,10.436-28.336,7.948c-3.671-0.888-7.498,0.696-9.467,3.921
	c-5.509,9.027-15.101,14.417-25.657,14.417s-20.148-5.389-25.657-14.417c-1.603-2.627-4.439-4.165-7.421-4.165
	c-0.678,0-1.366,0.08-2.046,0.245c-10.279,2.487-20.872-0.485-28.336-7.948c-7.465-7.465-10.436-18.058-7.948-28.336
	C185.48,191.89,183.894,188.064,180.67,186.096z M343.612,362.085c5.803,0,10.525,4.722,10.525,10.525
	c0,5.803-4.722,10.526-10.525,10.526H168.388c-5.803,0-10.525-4.722-10.525-10.526c0-5.805,4.722-10.525,10.525-10.525H343.612z
	 M354.137,411.049c0,5.803-4.722,10.526-10.525,10.526h-9.61H177.998h-9.61c-5.803,0-10.525-4.722-10.525-10.526
	s4.722-10.525,10.525-10.525h175.224C349.415,400.524,354.137,405.246,354.137,411.049z M255.993,494.611
	c-14.579,0-28.119-6.466-37.275-17.207h74.552C284.113,488.146,270.572,494.611,255.993,494.611z M334.001,460.016H177.998
	c-5.803,0-10.526-4.722-10.526-10.526s4.722-10.525,10.526-10.525h156.003c5.803,0,10.526,4.722,10.526,10.525
	S339.805,460.016,334.001,460.016z M342.554,344.695h-77.859v-7.388c29.368-3.722,52.157-28.846,52.157-59.209v-1.149
	c0-4.802-3.893-8.695-8.695-8.695h-1.149c-16.521,0-31.494,6.748-42.314,17.629v-19.111c11.178-2.051,21.184-8.013,28.322-16.966
	c14.261,1.604,28.399-3.274,38.738-13.612c10.338-10.338,15.219-24.475,13.612-38.738c11.222-8.948,17.767-22.395,17.767-37.017
	c0-14.622-6.545-28.068-17.767-37.017c1.607-14.264-3.274-28.4-13.612-38.738c-10.338-10.338-24.476-15.219-38.738-13.612
	C284.069,59.85,270.622,53.305,256,53.305c-14.622,0-28.068,6.544-37.018,17.767c-14.265-1.606-28.4,3.274-38.738,13.612
	c-10.338,10.338-15.219,24.475-13.612,38.738c-11.222,8.95-17.767,22.396-17.767,37.017s6.545,28.067,17.767,37.017
	c-1.607,14.264,3.274,28.4,13.612,38.74c10.34,10.338,24.47,15.219,38.738,13.612c7.139,8.953,17.146,14.915,28.324,16.966v61.184
	v1.149v15.589h-77.892c-1.565-31.891-12.638-62.558-31.578-87.099c-20.944-27.136-31.654-59.665-30.972-94.07
	c0.766-38.671,16.43-75.12,44.109-102.631c27.678-27.509,64.223-42.956,102.902-43.494c40.283-0.549,78.215,14.69,106.861,42.941
	c28.652,28.256,44.431,65.976,44.431,106.212c0,32.775-10.428,63.873-30.155,89.932C355.144,282.731,343.997,313.09,342.554,344.695
	z M265.527,319.579c3.353-16.622,16.479-29.749,33.102-33.102C295.277,303.099,282.15,316.226,265.527,319.579z"/>
<path d="M256,228.848c37.721,0,68.408-30.688,68.408-68.409S293.72,92.03,256,92.03c-37.721,0-68.409,30.688-68.409,68.409
	S218.28,228.848,256,228.848z M306.263,151.744H256c-4.802,0-8.695,3.893-8.695,8.695s3.893,8.695,8.695,8.695h50.263
	c-4.141,24.003-25.096,42.325-50.263,42.325c-12.869,0-24.632-4.799-33.618-12.691h41.174c4.802,0,8.695-3.893,8.695-8.695
	s-3.893-8.695-8.695-8.695h-54.062c-1.742-3.853-3.018-7.957-3.757-12.245h17.517c4.802,0,8.695-3.893,8.695-8.695
	s-3.893-8.695-8.695-8.695h-17.517c0.74-4.288,2.016-8.393,3.757-12.245h54.062c4.802,0,8.695-3.893,8.695-8.695
	c0-4.802-3.893-8.695-8.695-8.695h-41.173c8.986-7.89,20.748-12.689,33.617-12.689C281.167,109.419,302.122,127.741,306.263,151.744
	z"/>
<g>
</g>
<g>
</g>
<g>
</g>
<g>
</g>
<g>
</g>
<g>
</g>
<g>
</g>
<g>
</g>
<g>
</g>
<g>
</g>
<g>
</g>
<g>
</g>
<g>
</g>
<g>
</g>
<g>
</g>
</svg>
