<?xml version="1.0" encoding="iso-8859-1"?>
<!-- Generator: Adobe Illustrator 19.0.0, SVG Export Plug-In . SVG Version: 6.00 Build 0)  -->
<svg version="1.1" id="Layer_1" xmlns="http://www.w3.org/2000/svg" xmlns:xlink="http://www.w3.org/1999/xlink" x="0px" y="0px"
	 viewBox="0 0 511.998 511.998" style="enable-background:new 0 0 511.998 511.998;" xml:space="preserve">
<path style="fill:#4D4D4D;" d="M166.895,468.719h105.703c-8.892,20.357-29.202,34.593-52.852,34.593
	C196.109,503.312,175.787,489.076,166.895,468.719z"/>
<g>
	<path style="fill:#B3B3B3;" d="M297.754,430.277c10.619,0,19.221,8.602,19.221,19.221c0,5.309-2.156,10.109-5.634,13.587
		c-3.478,3.478-8.277,5.634-13.587,5.634h-25.156H166.895H141.75c-10.607,0-19.221-8.613-19.221-19.221
		c0-5.309,2.156-10.109,5.634-13.587c3.478-3.478,8.289-5.634,13.587-5.634H297.754z"/>
	<path style="fill:#B3B3B3;" d="M307.365,391.836c10.619,0,19.221,8.602,19.221,19.221c0,5.309-2.145,10.109-5.623,13.587
		c-3.478,3.478-8.289,5.634-13.598,5.634h-9.61H141.75h-9.61c-10.607,0-19.221-8.613-19.221-19.221
		c0-5.309,2.156-10.109,5.634-13.587c3.478-3.478,8.277-5.634,13.587-5.634H307.365z"/>
	<path style="fill:#B3B3B3;" d="M307.365,353.394c10.619,0,19.221,8.602,19.221,19.221c0,5.309-2.145,10.109-5.623,13.587
		c-3.478,3.478-8.289,5.634-13.598,5.634H132.14c-10.607,0-19.221-8.602-19.221-19.221c0-5.309,2.156-10.109,5.634-13.587
		c3.478-3.478,8.277-5.634,13.587-5.634H307.365z"/>
</g>
<path style="fill:#999999;" d="M176.432,449.498c0-5.309,2.156-10.109,5.634-13.587c3.478-3.478,8.289-5.634,13.587-5.634h-9.61
	c-10.607,0-19.221-8.613-19.221-19.221c0-5.309,2.156-10.109,5.634-13.587c3.478-3.478,8.277-5.634,13.587-5.634
	c-10.607,0-19.221-8.602-19.221-19.221c0-5.309,2.156-10.109,5.634-13.587c3.478-3.478,8.277-5.634,13.587-5.634h-53.904
	c-5.309,0-10.109,2.156-13.587,5.634s-5.634,8.277-5.634,13.587c0,10.619,8.613,19.221,19.221,19.221
	c-5.309,0-10.109,2.156-13.587,5.634s-5.634,8.277-5.634,13.587c0,10.607,8.613,19.221,19.221,19.221h9.61
	c-5.298,0-10.109,2.156-13.587,5.634c-3.478,3.478-5.634,8.277-5.634,13.587c0,10.607,8.613,19.221,19.221,19.221h25.145h28.759
	C185.046,468.719,176.432,460.106,176.432,449.498z"/>
<path style="fill:#80D2EE;" d="M377.617,166.565c0,35.741-11.883,68.71-31.915,95.177c-19.673,25.991-30.86,57.407-30.86,90.006
	v1.646h-7.477H132.14h-7.477v-0.846c0-32.344-10.202-64.039-29.956-89.635c-21.18-27.44-33.526-62.045-32.784-99.559
	C63.603,78.715,132.847,9.888,217.509,8.717C305.719,7.489,377.617,78.633,377.617,166.565z"/>
<path style="fill:#68B9DA;" d="M217.509,8.716c0.29,0,0.58-0.012,0.869,0c-51.912,1.171-94.354,69.997-95.385,154.636
	c-0.452,37.514,7.106,72.119,20.102,99.559c12.103,25.597,18.363,57.292,18.363,89.635v0.846h-36.796v-0.846
	c0-32.344-10.202-64.039-29.956-89.635c-21.18-27.44-33.526-62.045-32.784-99.559C63.603,78.715,132.847,9.887,217.509,8.716z"/>
<rect x="195.987" y="263.052" style="fill:#F8DF70;" width="47.527" height="90.336"/>
<path d="M327.263,391.789c3.3-3.488,3.147-8.991-0.341-12.292c-3.489-3.3-8.992-3.147-12.292,0.342
	c-2.009,2.124-4.725,3.294-7.648,3.294H131.761c-5.805,0-10.526-4.722-10.526-10.526s4.722-10.525,10.526-10.525h157.9h0.001
	c4.803,0,8.695-3.893,8.695-8.695s-3.892-8.695-8.695-8.695h-0.001H251.83v-78.175c0.017-0.039,0.041-0.073,0.058-0.114
	l45.061-107.813c1.853-4.431-0.239-9.523-4.668-11.375c-4.431-1.851-9.523,0.239-11.376,4.67l-42.828,102.471h-36.678
	L158.57,151.886c-1.851-4.431-6.944-6.522-11.375-4.67c-4.43,1.851-6.521,6.944-4.668,11.375l44.388,106.204v79.897h-54.128
	c-1.566-31.892-12.638-62.559-31.578-87.099c-20.944-27.136-31.654-59.665-30.974-94.07c0.766-38.671,16.432-75.12,44.111-102.631
	c27.678-27.509,64.223-42.956,102.903-43.494c40.269-0.549,78.217,14.69,106.861,42.941c28.652,28.256,44.43,65.977,44.43,106.212
	c0,10.394-1.075,20.775-3.194,30.854c-0.988,4.699,2.021,9.309,6.72,10.297c4.695,0.985,9.308-2.021,10.298-6.719
	c2.365-11.253,3.565-22.837,3.565-34.432c0-44.927-17.618-87.043-49.609-118.593C304.333,16.417,261.936-0.572,217.005,0.015
	c-43.212,0.602-84.025,17.842-114.919,48.547c-30.895,30.707-48.381,71.414-49.238,114.62C52.088,201.59,64.05,237.911,87.44,268.22
	c17.636,22.851,27.544,51.77,28.095,81.694c-7.07,5.07-11.69,13.349-11.69,22.693c0,7.444,2.934,14.21,7.7,19.22
	c-4.766,5.009-7.7,11.776-7.7,19.22c0,10.184,5.485,19.108,13.653,23.984c-2.564,4.219-4.042,9.169-4.042,14.456
	c0,15.392,12.523,27.915,27.914,27.915h19.738c11.549,21.189,33.821,34.596,58.257,34.596s46.709-13.407,58.257-34.596h19.751
	c15.392,0,27.914-12.523,27.914-27.915c0-5.287-1.478-10.236-4.042-14.456c8.168-4.876,13.653-13.8,13.653-23.984
	c0-7.437-2.93-14.199-7.687-19.207C327.228,391.823,327.246,391.807,327.263,391.789z M204.303,271.747h30.138v72.946h-30.138
	V271.747z M306.983,400.523c5.803,0,10.525,4.722,10.525,10.525c0,5.803-4.722,10.526-10.525,10.526H131.761
	c-5.805,0-10.526-4.722-10.526-10.526c0-5.805,4.722-10.525,10.526-10.525H306.983z M219.365,494.61
	c-14.58,0-28.121-6.466-37.277-17.207h74.553C247.486,488.144,233.945,494.61,219.365,494.61z M297.373,460.014H141.37
	c-5.803,0-10.525-4.722-10.525-10.526c0-5.804,4.722-10.525,10.525-10.525h156.003c5.803,0,10.525,4.722,10.525,10.525
	C307.898,455.291,303.176,460.014,297.373,460.014z"/>
<path d="M455.348,254.881c-3.982-2.684-9.386-1.63-12.068,2.352l-8.429,12.511c-9.535-32.459-39.571-56.233-75.074-56.233
	c-43.146,0-78.248,35.102-78.248,78.248s35.102,78.248,78.248,78.248c22.784,0,44.393-9.905,59.286-27.177
	c3.135-3.637,2.729-9.127-0.908-12.263c-3.637-3.135-9.126-2.73-12.263,0.908c-11.584,13.436-28.392,21.143-46.114,21.143
	c-33.558,0-60.859-27.301-60.859-60.859s27.301-60.859,60.859-60.859c27.998,0,51.625,19.01,58.691,44.796l-15.687-10.569
	c-3.982-2.684-9.386-1.63-12.068,2.352c-2.683,3.983-1.63,9.385,2.352,12.069l31.407,21.16c1.446,0.975,3.139,1.484,4.857,1.484
	c0.555,0,1.112-0.053,1.664-0.161c2.264-0.441,4.259-1.763,5.547-3.675l21.16-31.406
	C460.383,262.967,459.33,257.563,455.348,254.881z"/>
<g>
</g>
<g>
</g>
<g>
</g>
<g>
</g>
<g>
</g>
<g>
</g>
<g>
</g>
<g>
</g>
<g>
</g>
<g>
</g>
<g>
</g>
<g>
</g>
<g>
</g>
<g>
</g>
<g>
</g>
</svg>
