<?xml version="1.0" encoding="iso-8859-1"?>
<!-- Generator: Adobe Illustrator 19.0.0, SVG Export Plug-In . SVG Version: 6.00 Build 0)  -->
<svg version="1.1" id="Layer_1" xmlns="http://www.w3.org/2000/svg" xmlns:xlink="http://www.w3.org/1999/xlink" x="0px" y="0px"
	 viewBox="0 0 512.001 512.001" style="enable-background:new 0 0 512.001 512.001;" xml:space="preserve">
<g>
	<path style="fill:#D8C05B;" d="M504.056,433.015H382.539h-0.011c-65.523-75.33-78.012-199.728-78.544-279.225h140.588
		C444.571,153.79,423.495,340.42,504.056,433.015z"/>
	<path style="fill:#D8C05B;" d="M382.527,433.015H209.184H8.68C110.804,315.609,84.099,78.991,84.099,78.991h223.01
		c0,0-3.435,30.396-3.125,74.798C304.516,233.287,317.004,357.685,382.527,433.015z"/>
</g>
<path style="fill:#F8DF70;" d="M301.634,433.015H188.92H58.545c66.405-117.406,49.04-354.024,49.04-354.024h145.009
	c0,0-2.234,30.396-2.032,74.798C250.909,233.287,259.029,357.685,301.634,433.015z"/>
<path style="fill:#4D4D4D;" d="M150.42,390.629v42.386h-34.906v-42.386c0-9.63,7.812-17.442,17.453-17.442
	C142.607,373.187,150.42,381,150.42,390.629z"/>
<g>
	<path style="fill:#E04F56;" d="M442.743,237.243l-0.532,0.022h-133.13c-1.895-15.713-3.147-31.027-3.945-45.533h137.075h0.1
		C441.967,204.63,441.956,220.155,442.743,237.243z"/>
	<path style="fill:#E04F56;" d="M304.793,184.795l-0.676,0.033H86.969l-0.554-0.022c0.997-21.664,0.986-41.344,0.554-57.7h217.27
		c-0.211,8.123-0.321,17.076-0.255,26.684C304.05,163.508,304.294,173.902,304.793,184.795z"/>
</g>
<path style="fill:#FD6568;" d="M109.109,184.828c0.632-21.675,0.632-41.366,0.355-57.722h141.264
	c-0.144,8.123-0.211,17.076-0.166,26.684c0.044,9.729,0.199,20.135,0.521,31.039H109.109z"/>
<path d="M509.96,427.553c-40.079-46.066-53.616-117.468-57.914-169.256c-4.715-56.807,0.367-103.122,0.418-103.583
	c0.265-2.351-0.485-4.704-2.062-6.468c-1.577-1.764-3.831-2.774-6.197-2.774H311.931c0.146-38.875,3.031-65.164,3.075-65.556
	c0.265-2.351-0.485-4.704-2.062-6.468c-1.577-1.764-3.831-2.773-6.197-2.773H83.734c-2.367,0-4.621,1.01-6.198,2.774
	c-1.577,1.765-2.327,4.118-2.061,6.469c0.066,0.583,6.518,59.184,0.565,131.37c-5.453,66.124-22.718,157.32-73.999,216.27
	c-2.138,2.457-2.643,5.936-1.293,8.899c1.35,2.964,4.306,4.866,7.563,4.866l495.378-0.006c3.257,0,6.213-1.903,7.563-4.866
	C512.604,433.489,512.097,430.011,509.96,427.553z M433.726,228.947H316.139c-0.649-5.936-1.208-11.739-1.672-17.35
	c-0.322-3.896-0.607-7.75-0.861-11.561h119.84C433.334,208.811,433.39,218.53,433.726,228.947z M295.762,176.507H94.719
	c0.525-14.947,0.591-28.792,0.401-41.098h200.243C295.172,147.716,295.237,161.561,295.762,176.507z M433.872,183.414H312.687
	c-0.325-7.354-0.532-14.479-0.647-21.32h123.063C434.692,167.312,434.218,174.564,433.872,183.414z M297.617,87.297
	c-0.585,7.053-1.332,17.864-1.826,31.491H94.69c-0.494-13.627-1.241-24.436-1.826-31.491H297.617z M71.131,330.601
	c10.666-34.803,17.892-74.486,21.475-117.947c0.549-6.645,0.991-13.159,1.35-19.525h202.571c0.359,6.366,0.801,12.88,1.35,19.525
	c3.584,43.461,10.81,83.143,21.475,117.947c11.328,36.965,26.604,68.532,45.508,94.096l-206.492,0.006V390.63
	c0-14.206-11.558-25.764-25.763-25.764c-14.206,0-25.764,11.558-25.764,25.764v34.073H25.617
	C44.524,399.137,59.801,367.568,71.131,330.601z M123.462,424.703V390.63c0-5.041,4.101-9.142,9.142-9.142
	c5.04,0,9.141,4.101,9.141,9.142v34.073H123.462z M386.041,424.697c-41.189-49.195-59.732-119.454-67.864-179.128h116.307
	c0.266,4.508,0.585,9.105,0.971,13.786c5.808,70.442,22.982,125.951,51.118,165.342H386.041z"/>
<g>
</g>
<g>
</g>
<g>
</g>
<g>
</g>
<g>
</g>
<g>
</g>
<g>
</g>
<g>
</g>
<g>
</g>
<g>
</g>
<g>
</g>
<g>
</g>
<g>
</g>
<g>
</g>
<g>
</g>
</svg>
