<?xml version="1.0" encoding="iso-8859-1"?>
<!-- Generator: Adobe Illustrator 19.0.0, SVG Export Plug-In . SVG Version: 6.00 Build 0)  -->
<svg version="1.1" id="Layer_1" xmlns="http://www.w3.org/2000/svg" xmlns:xlink="http://www.w3.org/1999/xlink" x="0px" y="0px"
	 viewBox="0 0 512.001 512.001" style="enable-background:new 0 0 512.001 512.001;" xml:space="preserve">
<rect x="345.444" y="9.28" style="fill:#666666;" width="63.076" height="30.66"/>
<g>
	<polygon style="fill:#E04F56;" points="441.913,471.19 441.913,502.728 70.893,502.728 70.893,471.19 88.257,471.19 
		424.561,471.19 	"/>
	<polygon style="fill:#E04F56;" points="424.561,287.109 88.257,287.109 70.893,287.109 70.893,255.571 88.257,255.571 
		424.561,255.571 441.913,255.571 441.913,287.109 	"/>
	<polygon style="fill:#E04F56;" points="441.913,39.939 441.913,71.477 424.561,71.477 88.257,71.477 70.893,71.477 70.893,39.939 
		345.445,39.939 408.52,39.939 	"/>
</g>
<g>
	<rect x="88.256" y="287.105" style="fill:#FD6568;" width="336.304" height="184.082"/>
	<path style="fill:#FD6568;" d="M424.561,255.558v0.012H88.257v-0.012V71.477h336.304V255.558z"/>
</g>
<g>
	<rect x="88.256" y="287.105" style="fill:#E04F56;" width="54.333" height="184.082"/>
	<path style="fill:#E04F56;" d="M142.591,255.558v0.012H88.257v-0.012V71.477h54.333v184.082H142.591z"/>
	<rect x="396.201" y="287.105" style="fill:#E04F56;" width="28.362" height="184.082"/>
	<path style="fill:#E04F56;" d="M424.561,255.558v0.012H396.2v-0.012V71.477h28.362V255.558z"/>
</g>
<path style="fill:#666666;" d="M382.325,140.192c18.23,18.218,18.23,47.764,0,65.982c-9.115,9.115-21.05,13.679-32.985,13.679
	c-11.947,0-23.894-4.564-32.997-13.679c-18.218-18.218-18.218-47.764,0-65.982l32.997-32.997L382.325,140.192z"/>
<path d="M388.485,133.627l-32.993-32.993c-3.624-3.623-9.496-3.623-13.118,0l-32.992,32.993
	c-10.566,10.565-16.384,24.611-16.384,39.552c0,14.94,5.818,28.988,16.382,39.552c0,0,0,0,0.001,0
	c10.903,10.905,25.226,16.356,39.551,16.356c14.323,0,28.647-5.452,39.552-16.356c10.565-10.565,16.382-24.612,16.382-39.552
	C404.867,158.239,399.049,144.192,388.485,133.627z M375.366,199.614c-14.575,14.575-38.292,14.575-52.867,0
	c-7.062-7.061-10.95-16.449-10.95-26.435c0-9.986,3.888-19.374,10.95-26.435l26.434-26.435l26.434,26.435
	c7.062,7.061,10.95,16.449,10.95,26.435C386.316,183.165,382.428,192.552,375.366,199.614z"/>
<path d="M441.506,80.747c5.124,0,9.276-4.153,9.276-9.276V39.935c0-5.123-4.152-9.276-9.276-9.276H417.39V9.276
	c0-5.123-4.152-9.276-9.276-9.276h-63.072c-5.124,0-9.276,4.153-9.276,9.276V30.66H70.494c-5.123,0-9.276,4.153-9.276,9.276v31.537
	c0,5.123,4.153,9.276,9.276,9.276h8.079v165.539h-8.079c-5.123,0-9.276,4.153-9.276,9.276v31.537c0,5.123,4.153,9.276,9.276,9.276
	h8.079v165.539h-8.079c-5.123,0-9.276,4.153-9.276,9.276v31.537c0,5.123,4.153,9.276,9.276,9.276h371.014
	c5.124,0,9.276-4.153,9.276-9.276v-31.537c0-5.123-4.152-9.276-9.276-9.276h-8.079v-165.54h8.079c5.124,0,9.276-4.153,9.276-9.276
	v-31.536c0-5.123-4.152-9.276-9.276-9.276h-8.079V80.747H441.506z M432.23,264.837v12.985H79.77v-12.985H432.23z M432.23,493.448
	H79.77v-12.985h8.043c0.012,0,0.023,0.001,0.036,0.001h336.304c0.012,0,0.023-0.001,0.036-0.001h8.043V493.448z M414.876,461.912
	H97.124V296.373h317.752V461.912z M97.124,246.285V80.751h317.752v165.534L97.124,246.285L97.124,246.285z M354.319,18.552h44.52
	V30.66h-44.52V18.552z M79.77,49.211h352.462v12.985H79.77V49.211z"/>
<g>
</g>
<g>
</g>
<g>
</g>
<g>
</g>
<g>
</g>
<g>
</g>
<g>
</g>
<g>
</g>
<g>
</g>
<g>
</g>
<g>
</g>
<g>
</g>
<g>
</g>
<g>
</g>
<g>
</g>
</svg>
