<?xml version="1.0" encoding="iso-8859-1"?>
<!-- Generator: Adobe Illustrator 19.0.0, SVG Export Plug-In . SVG Version: 6.00 Build 0)  -->
<svg version="1.1" id="Layer_1" xmlns="http://www.w3.org/2000/svg" xmlns:xlink="http://www.w3.org/1999/xlink" x="0px" y="0px"
	 viewBox="0 0 512 512" style="enable-background:new 0 0 512 512;" xml:space="preserve">
<path style="fill:#80D2EE;" d="M400.866,69.169L400.866,69.169c79.811,79.811,79.811,209.21,0,289.021L256.356,502.7l-144.51-144.51
	c-79.811-79.811-79.811-209.21,0-289.021l0,0C191.657-10.642,321.055-10.642,400.866,69.169z"/>
<circle style="fill:#FD6568;" cx="256.354" cy="213.674" r="134.951"/>
<path style="fill:#7FE2B5;" d="M179.885,290.15v-18.897c0-74.03,60.013-134.043,134.043-134.043h18.897v18.897
	c0,74.03-60.013,134.043-134.043,134.043H179.885z"/>
<path d="M332.42,127.898h-18.897c-79.043,0-143.348,64.306-143.348,143.348v18.897c0,5.139,4.165,9.305,9.305,9.305h18.896
	c79.043,0,143.35-64.307,143.35-143.35v-18.897C341.725,132.064,337.56,127.898,332.42,127.898z M278.611,177.854l-2.012-25.766
	c10.572-3.283,21.742-5.192,33.3-5.524L278.611,177.854z M323.059,159.726c-0.625,21.809-6.88,42.23-17.352,59.865l-38.802-3.712
	L323.059,159.726z M258.495,159.325l2.8,35.845l-34.809,34.809l-5.103-42.726C231.851,175.78,244.429,166.268,258.495,159.325z
	 M188.841,267.624c0.608-21.168,6.511-41.033,16.433-58.308l4.468,37.407L188.841,267.624z M202.001,280.784l47.842-47.842
	l43.327,4.145C271.005,262.991,238.437,279.738,202.001,280.784z"/>
<path d="M407.04,62.584C366.681,22.226,313.023,0,255.949,0c-57.075,0-110.733,22.226-151.09,62.584
	c-83.311,83.311-83.311,218.869,0,302.18L249.37,509.274c1.818,1.816,4.2,2.726,6.581,2.726c2.381,0,4.763-0.908,6.581-2.726
	l144.511-144.511c40.356-40.358,62.582-94.016,62.582-151.09S447.397,102.941,407.04,62.584z M393.879,351.604l-137.93,137.932
	L118.02,351.604c-36.843-36.843-57.133-85.827-57.133-137.93s20.29-101.088,57.133-137.93
	c36.841-36.843,85.826-57.133,137.929-57.133s101.088,20.29,137.929,57.133h0.001c36.843,36.843,57.133,85.827,57.133,137.93
	S430.723,314.762,393.879,351.604z"/>
<path d="M255.949,69.421c-79.542,0-144.254,64.711-144.254,144.253c0,79.54,64.711,144.253,144.254,144.253
	c79.54,0,144.253-64.711,144.253-144.253S335.491,69.421,255.949,69.421z M255.949,339.316c-69.28,0-125.644-56.363-125.644-125.642
	S186.669,88.032,255.949,88.032s125.642,56.363,125.642,125.642S325.229,339.316,255.949,339.316z"/>
<g>
</g>
<g>
</g>
<g>
</g>
<g>
</g>
<g>
</g>
<g>
</g>
<g>
</g>
<g>
</g>
<g>
</g>
<g>
</g>
<g>
</g>
<g>
</g>
<g>
</g>
<g>
</g>
<g>
</g>
</svg>
