<?xml version="1.0" encoding="iso-8859-1"?>
<!-- Generator: Adobe Illustrator 19.0.0, SVG Export Plug-In . SVG Version: 6.00 Build 0)  -->
<svg version="1.1" id="Layer_1" xmlns="http://www.w3.org/2000/svg" xmlns:xlink="http://www.w3.org/1999/xlink" x="0px" y="0px"
	 viewBox="0 0 512 512" style="enable-background:new 0 0 512 512;" xml:space="preserve">
<g>
	<path style="fill:#FD6568;" d="M457.302,459.659c4.64,4.651,7.508,11.051,7.508,18.137c0,14.16-11.486,25.634-25.645,25.634H73.581
		c-7.074,0-13.497-2.869-18.137-7.508s-7.508-11.04-7.508-18.125c0-14.16,11.486-25.645,25.645-25.645h13.44h338.705h13.44
		C446.251,452.15,452.651,455.019,457.302,459.659z"/>
	<path style="fill:#FD6568;" d="M438.605,421.054c3.303,3.303,5.337,7.851,5.337,12.88c0,10.068-8.148,18.217-18.217,18.217H87.021
		c-5.029,0-9.588-2.034-12.88-5.337c-3.291-3.291-5.337-7.851-5.337-12.88c0-10.057,8.16-18.217,18.217-18.217h7.84h91.176
		c-0.011,0-0.011,0.011-0.011,0.011h140.707v-0.011h91.153h7.84C430.754,415.716,435.314,417.751,438.605,421.054z"/>
</g>
<g>
	<path style="fill:#E04F56;" d="M126.3,495.921c4.64,4.64,11.063,7.508,18.137,7.508H73.581c-7.074,0-13.497-2.869-18.137-7.508
		s-7.508-11.04-7.508-18.125c0-14.16,11.486-25.645,25.645-25.645h70.856c-14.16,0-25.645,11.486-25.645,25.645
		C118.792,484.881,121.66,491.281,126.3,495.921z"/>
	<path style="fill:#E04F56;" d="M144.997,446.813c3.291,3.303,7.851,5.337,12.88,5.337H87.021c-5.029,0-9.588-2.034-12.88-5.337
		c-3.291-3.291-5.337-7.851-5.337-12.88c0-10.057,8.16-18.217,18.217-18.217h70.856c-10.057,0-18.217,8.16-18.217,18.217
		C139.66,438.962,141.706,443.522,144.997,446.813z"/>
	<path style="fill:#E04F56;" d="M386.446,495.921c-4.64,4.64-11.063,7.508-18.137,7.508h70.856c7.074,0,13.497-2.869,18.137-7.508
		s7.508-11.04,7.508-18.125c0-14.16-11.486-25.645-25.645-25.645h-70.856c14.16,0,25.645,11.486,25.645,25.645
		C393.954,484.881,391.086,491.281,386.446,495.921z"/>
	<path style="fill:#E04F56;" d="M367.749,446.813c-3.291,3.303-7.851,5.337-12.88,5.337h70.856c5.029,0,9.588-2.034,12.88-5.337
		c3.291-3.291,5.337-7.851,5.337-12.88c0-10.057-8.16-18.217-18.217-18.217h-70.856c10.057,0,18.217,8.16,18.217,18.217
		C373.086,438.962,371.04,443.522,367.749,446.813z"/>
</g>
<path style="fill:#80D2EE;" d="M417.886,223.536v192.181h-91.153H94.861V223.536c0-89.199,72.308-161.507,161.518-161.507
	C345.578,62.029,417.886,134.337,417.886,223.536z"/>
<path style="fill:#68B9DA;" d="M285.518,64.656c-9.452-1.722-19.189-2.627-29.139-2.627c-89.21,0-161.518,72.308-161.518,161.507
	v192.181h58.282V223.536C153.142,144.286,210.221,78.376,285.518,64.656z"/>
<g>
	<path style="fill:#7FE2B5;" d="M370.652,181.022v14.114c0,55.314-44.845,100.159-100.159,100.159h-14.114v-14.126
		c0-55.314,44.834-100.147,100.147-100.147H370.652z"/>
	<path style="fill:#7FE2B5;" d="M326.732,415.716v0.011H186.025c0,0,0-0.011,0.011-0.011h140.684H326.732z"/>
</g>
<path style="fill:#F8DF70;" d="M326.721,415.716H186.037c14.571-23.531,40.617-39.222,70.342-39.222S312.15,392.185,326.721,415.716
	z"/>
<path style="fill:#80D2EE;" d="M256.379,8.578c14.754,0,26.72,11.966,26.72,26.72c0,14.766-11.966,26.731-26.72,26.731
	c-14.766,0-26.731-11.966-26.731-26.731C229.648,20.544,241.613,8.578,256.379,8.578z"/>
<path style="fill:#7FE2B5;" d="M256.379,281.169v14.126h-14.126c-55.314,0-100.147-44.845-100.147-100.159v-14.114h14.114
	C211.534,181.022,256.379,225.856,256.379,281.169z"/>
<path d="M449.588,445.333c1.635-3.462,2.553-7.324,2.553-11.4c0-14.526-11.624-26.38-26.057-26.77v-183.63
	c0-84.023-61.245-153.999-141.436-167.659c4.176-5.798,6.647-12.903,6.647-20.578C291.295,15.833,275.462,0,256.001,0
	c-19.463,0-35.296,15.833-35.296,35.296c0,7.675,2.47,14.78,6.647,20.578c-80.191,13.66-141.436,83.637-141.436,167.66v183.631
	c-14.433,0.39-26.057,12.244-26.057,26.77c0,4.075,0.919,7.939,2.553,11.4c-13.59,4.531-23.418,17.363-23.418,32.456
	c0,18.864,15.347,34.21,34.211,34.21h365.59c18.864,0,34.211-15.346,34.211-34.21C473.006,462.697,463.178,449.865,449.588,445.333z
	 M256.001,17.143c10.009,0,18.153,8.143,18.153,18.153c0,10.009-8.143,18.153-18.153,18.153c-10.01,0-18.153-8.143-18.153-18.153
	C237.846,25.285,245.99,17.143,256.001,17.143z M103.058,223.533c0-84.333,68.61-152.942,152.942-152.942
	s152.942,68.61,152.942,152.942v183.612h-77.975c-15.455-22.3-39.571-36.356-66.396-38.835v-64.452h5.547
	c59.95,0,108.723-48.773,108.723-108.723v-14.119c0-4.734-3.838-8.571-8.571-8.571h-14.119c-44.95,0-83.616,27.42-100.152,66.413
	c-16.535-38.993-55.202-66.413-100.152-66.413H141.73c-4.734,0-8.571,3.838-8.571,8.571v14.119
	c0,59.95,48.773,108.723,108.723,108.723h5.549v64.452c-26.825,2.479-50.941,16.535-66.396,38.835h-77.976V223.533z
	 M309.177,254.233l28.443,2.721c-15.305,16.698-36.709,27.697-60.644,29.48L309.177,254.233z M349.417,240.861l-24.522-2.346
	l36.522-36.523C360.368,216.068,356.131,229.263,349.417,240.861z M331.407,207.759l-1.127-14.426
	c6.101-1.8,12.462-2.974,19.015-3.462L331.407,207.759z M313.615,200.104l1.843,23.604l-23.124,23.124l-3.327-27.856
	C296.053,211.376,304.368,204.975,313.615,200.104z M274.277,240.21l2.633,22.045l-12.056,12.056
	C265.762,262.13,269.054,250.609,274.277,240.21z M235.09,262.255l2.633-22.047c5.224,10.4,8.515,21.921,9.423,34.102
	L235.09,262.255z M219.666,246.833l-23.124-23.124l1.843-23.604c9.247,4.872,17.562,11.272,24.608,18.874L219.666,246.833z
	 M180.593,207.759l-17.888-17.888c6.553,0.488,12.915,1.662,19.015,3.462L180.593,207.759z M187.106,238.515l-24.523,2.346
	c-6.714-11.599-10.952-24.793-12-38.868L187.106,238.515z M202.823,254.233l32.201,32.201c-23.935-1.782-45.339-12.782-60.644-29.48
	L202.823,254.233z M256.001,385.055c20.226,0,39.054,8.046,52.821,22.09H203.179C216.945,393.101,235.774,385.055,256.001,385.055z
	 M86.647,424.288h7.84h323.027h7.84c5.319,0,9.646,4.327,9.646,9.646s-4.327,9.646-9.646,9.646H86.647
	c-5.319,0-9.646-4.327-9.646-9.646S81.328,424.288,86.647,424.288z M438.795,494.857H73.205c-9.411,0-17.068-7.656-17.068-17.067
	c0-9.411,7.657-17.067,17.068-17.067h13.442h338.707h13.442c9.411,0,17.068,7.656,17.068,17.067
	C455.865,487.201,448.206,494.857,438.795,494.857z"/>
<g>
</g>
<g>
</g>
<g>
</g>
<g>
</g>
<g>
</g>
<g>
</g>
<g>
</g>
<g>
</g>
<g>
</g>
<g>
</g>
<g>
</g>
<g>
</g>
<g>
</g>
<g>
</g>
<g>
</g>
</svg>
