<?xml version="1.0" encoding="iso-8859-1"?>
<!-- Generator: Adobe Illustrator 19.0.0, SVG Export Plug-In . SVG Version: 6.00 Build 0)  -->
<svg version="1.1" id="Layer_1" xmlns="http://www.w3.org/2000/svg" xmlns:xlink="http://www.w3.org/1999/xlink" x="0px" y="0px"
	 viewBox="0 0 511.999 511.999" style="enable-background:new 0 0 511.999 511.999;" xml:space="preserve">
<path style="fill:#7FE2B5;" d="M86.658,332.808l-19.549-19.549c-76.58-76.58-76.58-200.742,0-277.324l19.549-19.549l19.549,19.549
	c76.58,76.58,76.58,200.742,0,277.324L86.658,332.808z"/>
<path style="fill:#E04F56;" d="M481.289,184.955H365.236v63.229c0,32.048,25.98,58.026,58.026,58.026l0,0l0,0
	c32.048,0,58.026-25.98,58.026-58.026V184.955z"/>
<path style="fill:#FD6568;" d="M460.452,216.67h-74.378v46.692c0,23.665,16.65,42.849,37.188,42.849l0,0l0,0
	c20.539,0,37.188-19.184,37.188-42.849V216.67H460.452z"/>
<path d="M294.246,450.266l-28.369,28.37l-9.089-24.798c-1.099-2.999-3.653-5.232-6.773-5.919c-3.125-0.686-6.375,0.263-8.635,2.522
	l-34.195,34.197c-3.655,3.655-3.655,9.582,0,13.236c3.657,3.655,9.582,3.655,13.238,0l23.832-23.833l9.089,24.798
	c1.099,2.999,3.653,5.232,6.773,5.919c0.67,0.147,1.345,0.22,2.016,0.22c2.455,0,4.845-0.967,6.619-2.742l38.733-38.733
	c3.655-3.655,3.655-9.582,0-13.236C303.829,446.612,297.904,446.611,294.246,450.266z"/>
<path d="M176.97,468.154h-23.884c-31.693,0-57.477-25.784-57.477-57.477V336.68l16.807-16.807
	c80.107-80.107,80.107-210.453,0-290.561L92.868,9.763c-1.756-1.756-4.136-2.742-6.619-2.742s-4.862,0.986-6.618,2.742L60.08,29.312
	c-80.107,80.107-80.107,210.453,0,290.561l16.808,16.807v73.998c0,42.016,34.182,76.197,76.197,76.197h23.884
	c5.171,0,9.36-4.191,9.36-9.36C186.33,472.346,182.14,468.154,176.97,468.154z M99.178,306.636l-3.568,3.569V198.839l56.807-46.887
	C159.084,207.003,141.34,264.475,99.178,306.636z M148.616,130.815l-53.007,43.749V38.98l3.568,3.569
	C124.389,67.759,140.863,98.447,148.616,130.815z M73.318,42.548l3.571-3.571v84.352L38.586,90.577
	C47.301,73.247,58.87,56.997,73.318,42.548z M30.725,108.485l46.164,39.476v82.734l-57.868-45.52
	C17.563,159.251,21.456,133.079,30.725,108.485z M22.408,211.655l54.481,42.857v55.694l-3.569-3.569
	C46.371,279.688,29.408,246.483,22.408,211.655z"/>
<path d="M502.64,175.59h-21.76h-11.191v-60.741c0-5.169-4.19-9.36-9.36-9.36c-5.171,0-9.36,4.191-9.36,9.36v60.741h-56.232v-60.741
	c0-5.169-4.19-9.36-9.36-9.36c-5.171,0-9.36,4.191-9.36,9.36v60.741h-11.191h-21.76c-5.171,0-9.36,4.191-9.36,9.36
	c0,5.169,4.19,9.36,9.36,9.36h12.4v53.869c0,33.98,25.285,62.15,58.026,66.722v95.776c0,31.693-25.783,57.477-57.476,57.477H330.97
	c-5.171,0-9.36,4.191-9.36,9.36s4.19,9.36,9.36,9.36h25.046c42.014,0,76.196-34.182,76.196-76.197v-95.776
	c32.742-4.571,58.026-32.743,58.026-66.722V194.31h12.4c5.171,0,9.36-4.191,9.36-9.36C511.999,179.781,507.809,175.59,502.64,175.59
	z M471.52,248.179c0,26.835-21.831,48.666-48.666,48.666c-26.835,0-48.666-21.831-48.666-48.666V194.31h11.191h74.952h11.191v53.869
	H471.52z"/>
<circle cx="402.621" cy="240.13" r="9.36"/>
<circle cx="443.081" cy="240.13" r="9.36"/>
<g>
</g>
<g>
</g>
<g>
</g>
<g>
</g>
<g>
</g>
<g>
</g>
<g>
</g>
<g>
</g>
<g>
</g>
<g>
</g>
<g>
</g>
<g>
</g>
<g>
</g>
<g>
</g>
<g>
</g>
</svg>
