<?xml version="1.0" encoding="iso-8859-1"?>
<!-- Generator: Adobe Illustrator 19.0.0, SVG Export Plug-In . SVG Version: 6.00 Build 0)  -->
<svg version="1.1" id="Layer_1" xmlns="http://www.w3.org/2000/svg" xmlns:xlink="http://www.w3.org/1999/xlink" x="0px" y="0px"
	 viewBox="0 0 512 512" style="enable-background:new 0 0 512 512;" xml:space="preserve">
<polygon style="fill:#80D2EE;" points="423.808,95.966 88.983,95.966 67.38,502.963 445.411,502.963 "/>
<path style="fill:#7FE2B5;" d="M149.887,431.785v-26.32c0-103.11,83.587-186.696,186.696-186.696h26.32v26.32
	c0,103.11-83.587,186.696-186.696,186.696H149.887z"/>
<path d="M454.045,502.478L432.444,95.481c-0.254-4.801-4.221-8.565-9.03-8.565H322.473V66.472C322.473,29.819,292.653,0,255.999,0
	c-36.652,0-66.472,29.819-66.472,66.472v20.445H88.587c-4.809,0-8.776,3.763-9.03,8.565L57.955,502.478
	c-0.131,2.478,0.761,4.901,2.468,6.702c1.707,1.801,4.08,2.82,6.562,2.82h378.03c2.482,0,4.854-1.02,6.562-2.82
	C453.286,507.379,454.178,504.956,454.045,502.478z M207.614,66.472c0-26.679,21.705-48.386,48.386-48.386
	c26.679,0,48.386,21.705,48.386,48.386v20.445h-96.771L207.614,66.472L207.614,66.472z M76.521,493.913l20.642-388.91h92.365v43.866
	c0,4.994,4.049,9.043,9.043,9.043c4.994,0,9.043-4.049,9.043-9.043v-43.866h96.771v43.866c0,4.994,4.049,9.043,9.043,9.043
	c4.994,0,9.043-4.049,9.043-9.043v-43.866h92.365l20.642,388.91L76.521,493.913L76.521,493.913z"/>
<path d="M362.508,209.72h-26.32c-107.932,0-195.739,87.809-195.739,195.739v26.32c0,4.994,4.049,9.043,9.043,9.043h26.32
	c107.932,0,195.739-87.809,195.739-195.739v-26.321C371.552,213.769,367.503,209.72,362.508,209.72z M340.675,227.807
	l-56.357,56.357l-3.705-47.445c17.492-5.776,36.173-8.913,55.576-8.913h4.487V227.807z M263.007,243.588l4.483,57.402
	l-55.462,55.462l-8.273-69.272C220.166,268.828,240.317,253.888,263.007,243.588z M187.981,307.621l7.775,65.105l-37.221,37.221
	v-4.488C158.535,369.333,169.384,335.698,187.981,307.621z M175.811,422.736h-4.488l74.703-74.704l69.51,6.65
	C282.983,396.094,232.45,422.736,175.811,422.736z M327.388,337.648l-64.777-6.198l90.854-90.854v4.488
	C353.465,278.973,343.921,310.673,327.388,337.648z"/>
<g>
</g>
<g>
</g>
<g>
</g>
<g>
</g>
<g>
</g>
<g>
</g>
<g>
</g>
<g>
</g>
<g>
</g>
<g>
</g>
<g>
</g>
<g>
</g>
<g>
</g>
<g>
</g>
<g>
</g>
</svg>
