<?xml version="1.0" encoding="iso-8859-1"?>
<!-- Generator: Adobe Illustrator 19.0.0, SVG Export Plug-In . SVG Version: 6.00 Build 0)  -->
<svg version="1.1" id="Layer_1" xmlns="http://www.w3.org/2000/svg" xmlns:xlink="http://www.w3.org/1999/xlink" x="0px" y="0px"
	 viewBox="0 0 512 512" style="enable-background:new 0 0 512 512;" xml:space="preserve">
<path style="fill:#DDC55F;" d="M468.756,10.246H44.139c-18.474,0-33.451,14.977-33.451,33.451v424.617
	c0,18.474,14.977,33.451,33.451,33.451h424.617c18.474,0,33.451-14.977,33.451-33.451V43.697
	C502.207,25.223,487.23,10.246,468.756,10.246z"/>
<rect x="44.823" y="44.381" style="fill:#F8DF70;" width="423.246" height="423.246"/>
<path style="fill:#DDC55F;" d="M375.677,256.007c0-14.547,11.114-26.487,25.313-27.817
	c-13.005-67.982-72.769-119.362-144.542-119.362s-131.536,51.38-144.542,119.362c14.199,1.33,25.313,13.27,25.313,27.817
	c0,14.546-11.114,26.487-25.313,27.816c13.005,67.982,72.769,119.363,144.542,119.363s131.536-51.38,144.542-119.363
	C386.792,282.493,375.677,270.552,375.677,256.007z"/>
<g>
	<circle style="fill:#666666;" cx="196.658" cy="256.012" r="25.357"/>
	<circle style="fill:#666666;" cx="316.226" cy="256.012" r="25.357"/>
</g>
<path d="M196.217,291.597c19.629,0,35.597-15.968,35.597-35.597s-15.968-35.597-35.597-35.597S160.62,236.371,160.62,256
	S176.588,291.597,196.217,291.597z M196.217,240.884c8.334,0,15.116,6.782,15.116,15.116c0,8.334-6.782,15.116-15.116,15.116
	s-15.116-6.782-15.116-15.116C181.101,247.666,187.883,240.884,196.217,240.884z"/>
<path d="M315.781,291.597c19.629,0,35.597-15.968,35.597-35.597s-15.968-35.597-35.597-35.597
	c-19.629,0-35.597,15.968-35.597,35.597S296.152,291.597,315.781,291.597z M315.781,240.884c8.334,0,15.116,6.782,15.116,15.116
	c0,8.334-6.782,15.116-15.116,15.116c-8.334,0-15.116-6.782-15.116-15.116C300.665,247.666,307.447,240.884,315.781,240.884z"/>
<path d="M110.503,273.62c-2.873,0.269-5.5,1.738-7.233,4.046c-1.734,2.308-2.413,5.239-1.871,8.075
	c14.154,73.983,79.173,127.678,154.601,127.678c75.427,0,140.445-53.697,154.6-127.678c0.542-2.835-0.137-5.766-1.869-8.075
	c-1.734-2.308-4.36-3.777-7.234-4.046c-9.137-0.855-16.027-8.431-16.027-17.62s6.891-16.764,16.027-17.62
	c2.873-0.269,5.5-1.738,7.234-4.046c1.734-2.308,2.413-5.239,1.869-8.074c-14.154-73.983-79.171-127.678-154.6-127.678
	S115.554,152.279,101.4,226.26c-0.542,2.835,0.137,5.766,1.869,8.074c1.734,2.308,4.36,3.777,7.233,4.046
	c9.137,0.856,16.028,8.431,16.028,17.62S119.64,272.766,110.503,273.62z M147.011,256c0-15.836-9.495-29.452-23.37-35.229
	c15.755-59.474,69.963-101.71,132.359-101.71c62.395,0,116.601,42.236,132.358,101.71c-13.875,5.777-23.369,19.393-23.369,35.229
	c0,15.837,9.494,29.452,23.369,35.23C372.602,350.704,318.396,392.939,256,392.939S139.396,350.703,123.641,291.23
	C137.518,285.452,147.011,271.837,147.011,256z"/>
<path d="M468.309,0H43.691C19.599,0,0,19.6,0,43.691v424.617C0,492.401,19.599,512,43.691,512h424.617
	C492.401,512,512,492.401,512,468.309V43.691C512,19.6,492.401,0,468.309,0z M491.519,468.309c0,12.799-10.413,23.21-23.21,23.21
	H43.691c-12.799,0-23.21-10.411-23.21-23.21V43.691c0-12.798,10.411-23.21,23.21-23.21h424.617c12.798,0,23.21,10.411,23.21,23.21
	V468.309z"/>
<path d="M467.625,34.135H44.375c-5.655,0-10.24,4.585-10.24,10.24v423.249c0,5.655,4.585,10.24,10.24,10.24h423.249
	c5.657,0,10.24-4.585,10.24-10.24V44.375C477.865,38.72,473.281,34.135,467.625,34.135z M457.384,457.384H54.616V54.616h402.768
	V457.384z"/>
<g>
</g>
<g>
</g>
<g>
</g>
<g>
</g>
<g>
</g>
<g>
</g>
<g>
</g>
<g>
</g>
<g>
</g>
<g>
</g>
<g>
</g>
<g>
</g>
<g>
</g>
<g>
</g>
<g>
</g>
</svg>
