<?xml version="1.0" encoding="iso-8859-1"?>
<!-- Generator: Adobe Illustrator 19.0.0, SVG Export Plug-In . SVG Version: 6.00 Build 0)  -->
<svg version="1.1" id="Layer_1" xmlns="http://www.w3.org/2000/svg" xmlns:xlink="http://www.w3.org/1999/xlink" x="0px" y="0px"
	 viewBox="0 0 512 512" style="enable-background:new 0 0 512 512;" xml:space="preserve">
<polygon style="fill:#F8DF70;" points="431.175,206.611 81.014,206.611 38.044,433.094 474.145,433.094 "/>
<path d="M439.656,204.922c-0.808-4.265-4.537-7.351-8.876-7.351H80.619c-4.341,0-8.068,3.086-8.877,7.351L50.283,318.018
	c-0.001,0.008-21.512,113.388-21.512,113.388c-0.502,2.644,0.201,5.374,1.918,7.447c1.717,2.072,4.267,3.272,6.958,3.272h64.909
	l-27.709,56.88c-2.185,4.486-0.32,9.894,4.166,12.08c1.275,0.62,2.623,0.914,3.95,0.914c3.347,0,6.564-1.868,8.129-5.08
	l31.564-64.794h266.085l31.566,64.795c2.184,4.486,7.592,6.352,12.08,4.166c4.486-2.185,6.35-7.594,4.165-12.08l-27.711-56.881
	h64.909c2.691,0,5.243-1.2,6.958-3.272c1.717-2.073,2.42-4.803,1.918-7.447L439.656,204.922z M88.101,215.641h65.922l-7.67,77.186
	c-0.494,4.966,3.132,9.391,8.098,9.885c4.962,0.482,9.391-3.132,9.885-8.098l7.846-78.973h74.482v95.171H70.044L88.101,215.641z
	 M150.82,339.241c-4.972-0.492-9.391,3.132-9.885,8.098l-7.623,76.715h-16.304h-68.45l18.057-95.171h180.048v95.171h-95.191
	l7.445-74.928C159.411,344.16,155.786,339.735,150.82,339.241z M264.733,424.054v-95.171h65.962c4.991,0,9.035-4.045,9.035-9.035
	s-4.044-9.035-9.035-9.035h-65.962v-95.171h74.482l20.71,208.413H264.733z M394.389,424.054h-16.304l-20.71-208.413h65.922
	l18.057,95.171h-52.833c-4.991,0-9.035,4.045-9.035,9.035s4.044,9.035,9.035,9.035h56.262l18.057,95.171H394.389z"/>
<path d="M154.504,154.201c2.312,0,4.625-0.882,6.389-2.647L297.025,15.423c3.529-3.529,3.529-9.25,0-12.777
	c-3.53-3.529-9.25-3.529-12.778,0L148.116,138.778c-3.529,3.529-3.529,9.25,0,12.777
	C149.879,153.318,152.191,154.201,154.504,154.201z"/>
<path d="M239.973,151.555c1.764,1.764,4.077,2.647,6.389,2.647c2.312,0,4.625-0.882,6.389-2.647L388.882,15.423
	c3.529-3.529,3.529-9.25,0-12.777c-3.53-3.529-9.25-3.529-12.778,0L239.973,138.778
	C236.444,142.305,236.444,148.026,239.973,151.555z"/>
<path d="M331.831,151.555c1.765,1.764,4.078,2.647,6.39,2.647s4.625-0.882,6.39-2.647L480.742,15.423
	c3.529-3.529,3.529-9.25,0-12.777c-3.53-3.529-9.25-3.529-12.778,0L331.833,138.778
	C328.304,142.305,328.304,148.026,331.831,151.555z"/>
<g>
</g>
<g>
</g>
<g>
</g>
<g>
</g>
<g>
</g>
<g>
</g>
<g>
</g>
<g>
</g>
<g>
</g>
<g>
</g>
<g>
</g>
<g>
</g>
<g>
</g>
<g>
</g>
<g>
</g>
</svg>
