<?xml version="1.0" encoding="iso-8859-1"?>
<!-- Generator: Adobe Illustrator 19.0.0, SVG Export Plug-In . SVG Version: 6.00 Build 0)  -->
<svg version="1.1" id="Layer_1" xmlns="http://www.w3.org/2000/svg" xmlns:xlink="http://www.w3.org/1999/xlink" x="0px" y="0px"
	 viewBox="0 0 512 512" style="enable-background:new 0 0 512 512;" xml:space="preserve">
<circle style="fill:#F8DF70;" cx="256.385" cy="256.007" r="140.954"/>
<path d="M256.001,106.179c-82.613,0-149.822,67.209-149.822,149.822s67.209,149.822,149.822,149.822s149.822-67.209,149.822-149.822
	S338.613,106.179,256.001,106.179z M256.001,388.081c-72.829,0-132.081-59.252-132.081-132.081s59.252-132.081,132.081-132.081
	s132.081,59.252,132.081,132.081S328.83,388.081,256.001,388.081z"/>
<path d="M256.001,138.139c-64.988,0-117.86,52.872-117.86,117.86s52.872,117.86,117.86,117.86s117.86-52.872,117.86-117.86
	S320.989,138.139,256.001,138.139z M256.001,356.121c-55.207,0-100.12-44.914-100.12-100.12s44.914-100.12,100.12-100.12
	s100.12,44.914,100.12,100.12S311.208,356.121,256.001,356.121z"/>
<path d="M285.309,222.425c-3.464,3.464-3.464,9.081,0,12.544c7.829,7.829,12.142,18.238,12.142,29.31
	c0,11.071-4.312,21.481-12.142,29.31c-7.828,7.829-18.237,12.14-29.308,12.14c-11.071,0-21.481-4.312-29.31-12.14
	c-16.162-16.162-16.162-42.458,0-58.619c3.464-3.464,3.464-9.081,0-12.544c-3.465-3.465-9.081-3.464-12.545,0
	c-23.078,23.078-23.078,60.63,0,83.708c11.18,11.18,26.044,17.337,41.856,17.337s30.674-6.157,41.853-17.337
	c11.18-11.18,17.337-26.044,17.337-41.854s-6.157-30.674-17.337-41.854C294.391,218.96,288.774,218.961,285.309,222.425z"/>
<path d="M256.001,93.926c4.9,0,8.87-3.971,8.87-8.87V8.87c0-4.899-3.97-8.87-8.87-8.87c-4.9,0-8.87,3.971-8.87,8.87v76.186
	C247.13,89.955,251.102,93.926,256.001,93.926z"/>
<path d="M256.001,418.075c-4.9,0-8.87,3.971-8.87,8.87v76.185c0,4.899,3.97,8.87,8.87,8.87c4.9,0,8.87-3.971,8.87-8.87v-76.185
	C264.871,422.046,260.901,418.075,256.001,418.075z"/>
<path d="M376.877,143.993c2.27,0,4.54-0.866,6.273-2.598l53.871-53.871c3.464-3.464,3.464-9.081,0-12.544
	c-3.465-3.464-9.081-3.464-12.545,0l-53.871,53.871c-3.464,3.464-3.464,9.081,0,12.544
	C372.337,143.128,374.607,143.993,376.877,143.993z"/>
<path d="M128.851,370.604l-53.871,53.871c-3.464,3.464-3.464,9.081,0,12.544c1.733,1.731,4.003,2.598,6.273,2.598
	s4.54-0.866,6.273-2.598l53.871-53.871c3.464-3.464,3.464-9.081,0-12.544C137.932,367.141,132.317,367.141,128.851,370.604z"/>
<path d="M503.13,247.13h-76.185c-4.9,0-8.87,3.971-8.87,8.87c0,4.899,3.97,8.87,8.87,8.87h76.185c4.9,0,8.87-3.971,8.87-8.87
	C512,251.102,508.03,247.13,503.13,247.13z"/>
<path d="M93.926,256.001c0-4.899-3.97-8.87-8.87-8.87H8.87c-4.9,0-8.87,3.971-8.87,8.87c0,4.899,3.97,8.87,8.87,8.87h76.186
	C89.956,264.871,93.926,260.899,93.926,256.001z"/>
<path d="M128.851,141.396c1.733,1.731,4.003,2.598,6.273,2.598s4.54-0.866,6.273-2.598c3.464-3.464,3.464-9.081,0-12.544
	L87.527,74.981c-3.465-3.464-9.081-3.464-12.545,0c-3.464,3.464-3.464,9.081,0,12.544L128.851,141.396z"/>
<path d="M383.15,370.604c-3.464-3.464-9.08-3.465-12.545,0c-3.464,3.464-3.464,9.081,0,12.544l53.871,53.871
	c1.733,1.733,4.002,2.598,6.273,2.598c2.27,0,4.54-0.866,6.273-2.598c3.464-3.464,3.464-9.081,0-12.544L383.15,370.604z"/>
<path d="M256.001,261.641c4.9,0,8.87-3.971,8.87-8.87v-54.404c0-4.899-3.97-8.87-8.87-8.87c-4.9,0-8.87,3.972-8.87,8.87v54.404
	C247.13,257.669,251.102,261.641,256.001,261.641z"/>
<g>
</g>
<g>
</g>
<g>
</g>
<g>
</g>
<g>
</g>
<g>
</g>
<g>
</g>
<g>
</g>
<g>
</g>
<g>
</g>
<g>
</g>
<g>
</g>
<g>
</g>
<g>
</g>
<g>
</g>
</svg>
