<?xml version="1.0" encoding="iso-8859-1"?>
<!-- Generator: Adobe Illustrator 19.0.0, SVG Export Plug-In . SVG Version: 6.00 Build 0)  -->
<svg version="1.1" id="Layer_1" xmlns="http://www.w3.org/2000/svg" xmlns:xlink="http://www.w3.org/1999/xlink" x="0px" y="0px"
	 viewBox="0 0 512.001 512.001" style="enable-background:new 0 0 512.001 512.001;" xml:space="preserve">
<path style="fill:#EFBF8B;" d="M43.054,456.448l59.282-30.093c7.698-3.907,16.569-4.833,24.908-2.597l162.044,43.448
	c16.13,4.325,33.279,2.694,48.305-4.593l149.497-72.506c14.443-7.004,20.441-24.417,13.373-38.831l0,0
	c-6.735-13.736-22.986-19.87-37.116-14.011l-114.714,47.56c-8.893,3.688-18.775,4.247-28.029,1.588l-104.108-29.915
	c-11.299-3.246-18.198-14.642-15.834-26.16l0,0c2.625-12.792,15.548-20.673,28.123-17.15l90.804,25.435
	c12.17,3.409,24.921-3.086,29.317-14.936l0,0c4.816-12.979-2.177-27.352-15.362-31.574l-143.439-45.926
	c-1.058-0.339-2.12-0.659-3.187-0.958c-26.336-7.415-54.65-1.42-76.527,15.01L9.34,336.124L43.054,456.448z"/>
<path style="fill:#F8DF70;" d="M463.349,337.267l-114.713,47.556c-8.9,3.687-18.779,4.247-28.037,1.587l-104.107-29.91
	c-11.298-3.245-18.194-14.639-15.832-26.164c2.195-10.714,11.632-17.979,22.036-17.979c2.004,0,4.044,0.262,6.085,0.835
	l90.804,25.436c12.169,3.4,24.923-3.09,29.326-14.937c1.038-2.792,1.515-5.643,1.515-8.435c0-10.248-6.526-19.829-16.882-23.145
	l-89.814-28.753C243.73,263.355,363.884,237.8,463.349,337.267z"/>
<path style="fill:#7FE2B5;" d="M424.754,42.435v16.309c0,63.853-51.767,115.62-115.62,115.62h-16.309v-16.297
	c0-63.865,51.767-115.632,115.632-115.632H424.754z"/>
<path d="M508.107,347.331c-7.877-16.063-25.817-24.191-42.732-20.214c-52.087-50.16-109.144-67.4-148.262-72.968
	c-5.454-0.775-10.707-1.354-15.727-1.773v-69.065h7.353c68.691,0,124.575-55.884,124.575-124.575V42.434
	c0-4.942-4.006-8.948-8.948-8.948h-16.301c-68.691,0-124.575,55.884-124.575,124.576v16.301v77.123
	c-19.897-0.321-34.11,1.711-39.569,2.657l-51.476-16.481c-1.16-0.372-2.325-0.722-3.492-1.05
	c-28.418-8.002-59.942-1.844-84.326,16.468L3.575,328.964c-3.951,2.967-4.748,8.576-1.781,12.527s8.575,4.75,12.528,1.782
	l101.051-75.886c19.953-14.985,45.644-20.051,68.729-13.551c0.964,0.271,1.923,0.56,2.882,0.866l143.439,45.926
	c4.027,1.29,7.263,4.093,9.114,7.896s2.059,8.079,0.588,12.044c-2.755,7.426-10.883,11.572-18.514,9.432l-90.804-25.435
	c-8.376-2.346-17.439-1.094-24.863,3.435c-7.427,4.529-12.688,12.013-14.437,20.534c-3.282,15.992,6.438,32.051,22.128,36.559
	l104.108,29.915c11.154,3.206,23.204,2.523,33.927-1.922l114.714-47.561c9.744-4.039,21.012,0.215,25.656,9.685
	c2.362,4.819,2.701,10.265,0.953,15.339c-1.748,5.074-5.369,9.158-10.197,11.5l-149.497,72.505
	c-13.089,6.347-28.036,7.77-42.083,4.002l-162.044-43.448c-10.487-2.812-21.593-1.654-31.275,3.261l-59.282,30.093
	c-4.406,2.237-6.165,7.622-3.928,12.03c2.237,4.406,7.622,6.165,12.03,3.928l59.281-30.093c5.74-2.915,12.327-3.599,18.54-1.934
	l162.044,43.448c6.67,1.79,13.497,2.675,20.304,2.675c11.768,0,23.479-2.649,34.224-7.859l149.498-72.506
	c9.142-4.435,16-12.167,19.309-21.775C513.222,366.77,512.58,356.455,508.107,347.331z M301.523,152.623
	c0.818-16.23,5.285-31.514,12.588-45.05l3.464,28.999L301.523,152.623z M314.177,165.278l39.3-39.3l35.158,3.363
	C370.199,150.181,343.76,163.784,314.177,165.278z M378.711,75.436l-1.522-19.491c8.116-2.459,16.636-3.98,25.437-4.424
	L378.711,75.436z M415.281,64.174c-0.886,17.567-6.046,34.023-14.453,48.356l-30.943-2.96L415.281,64.174z M359.785,62.949
	l2.275,29.136l-28.387,28.387l-4.126-34.549C338.141,76.578,348.373,68.765,359.785,62.949z M344.815,376.554
	c-6.995,2.899-14.855,3.345-22.13,1.254l-104.108-29.915c-6.765-1.943-10.955-8.867-9.541-15.76
	c0.766-3.728,2.976-6.872,6.224-8.853c3.25-1.98,7.057-2.508,10.72-1.481l90.804,25.435c16.526,4.631,34.15-4.35,40.119-20.44
	c3.187-8.591,2.734-17.86-1.274-26.098c-4.009-8.239-11.023-14.316-19.749-17.11l-43.321-13.871
	c6.826,0.365,14.205,1.038,22.032,2.152c34.953,4.974,85.278,19.948,132.226,62.396L344.815,376.554z"/>
<g>
</g>
<g>
</g>
<g>
</g>
<g>
</g>
<g>
</g>
<g>
</g>
<g>
</g>
<g>
</g>
<g>
</g>
<g>
</g>
<g>
</g>
<g>
</g>
<g>
</g>
<g>
</g>
<g>
</g>
</svg>
