<?xml version="1.0" encoding="iso-8859-1"?>
<!-- Generator: Adobe Illustrator 19.0.0, SVG Export Plug-In . SVG Version: 6.00 Build 0)  -->
<svg version="1.1" id="Layer_1" xmlns="http://www.w3.org/2000/svg" xmlns:xlink="http://www.w3.org/1999/xlink" x="0px" y="0px"
	 viewBox="0 0 512.001 512.001" style="enable-background:new 0 0 512.001 512.001;" xml:space="preserve">
<g>
	<path style="fill:#EFBF8B;" d="M88.806,219.483l12.263,3.777c13.998,4.312,18.948,21.586,9.358,32.657l-17.613,20.332"/>
	<path style="fill:#EFBF8B;" d="M423.9,219.483l-12.263,3.777c-13.999,4.312-18.948,21.586-9.358,32.657l17.613,20.332"/>
</g>
<circle style="fill:#F8DF70;" cx="256.358" cy="152.103" r="70.449"/>
<path style="fill:#D8C05B;" d="M226.223,152.102c0-31.9,21.209-58.834,50.29-67.506c-6.389-1.905-13.151-2.943-20.16-2.943
	c-38.908,0-70.449,31.541-70.449,70.449s31.541,70.449,70.449,70.449c7.008,0,13.771-1.038,20.16-2.943
	C247.431,210.935,226.223,184.002,226.223,152.102z"/>
<g>
	<path style="fill:#EFBF8B;" d="M142.093,503.94l0.273-44.058c0.035-5.721-2.045-11.253-5.841-15.534l-73.768-83.184
		c-7.343-8.28-11.458-18.928-11.59-29.996l-1.315-110.103c-0.127-10.637,8.418-19.351,19.055-19.433l0,0
		c10.137-0.077,18.589,7.738,19.303,17.851l5.797,82.093c0.449,6.364,3.045,12.388,7.363,17.086l48.58,52.85
		c5.273,5.736,14.072,6.448,20.198,1.635l0,0c6.805-5.346,7.648-15.343,1.834-21.752l-41.983-46.291
		c-5.627-6.204-5.554-15.687,0.168-21.804l0,0c6.268-6.701,16.86-6.814,23.268-0.249l69.725,71.42
		c0.514,0.527,1.018,1.062,1.513,1.605c12.199,13.415,17.034,31.974,13.777,49.811l-15.043,82.387"/>
	<path style="fill:#EFBF8B;" d="M370.612,503.94l-0.273-44.058c-0.035-5.721,2.045-11.253,5.841-15.534l73.768-83.184
		c7.343-8.28,11.458-18.928,11.59-29.996l1.315-110.103c0.127-10.637-8.418-19.351-19.055-19.433l0,0
		c-10.137-0.077-18.589,7.738-19.303,17.851l-5.797,82.093c-0.449,6.364-3.045,12.388-7.363,17.086l-48.58,52.85
		c-5.273,5.736-14.072,6.448-20.199,1.635l0,0c-6.805-5.346-7.648-15.343-1.834-21.752l41.983-46.291
		c5.627-6.204,5.554-15.687-0.168-21.804l0,0c-6.268-6.701-16.86-6.814-23.268-0.249l-69.725,71.42
		c-0.514,0.527-1.018,1.062-1.513,1.605c-12.199,13.415-17.034,31.974-13.777,49.811l15.043,82.387"/>
</g>
<path d="M256.001,230.611c43.292,0,78.514-35.221,78.514-78.514s-35.221-78.514-78.514-78.514
	c-43.293,0-78.515,35.221-78.515,78.514S212.707,230.611,256.001,230.611z M256.001,89.712c34.399,0,62.385,27.986,62.385,62.385
	s-27.985,62.385-62.385,62.385s-62.386-27.986-62.386-62.385S221.602,89.712,256.001,89.712z"/>
<path d="M256.001,60.53c4.455,0,8.064-3.611,8.064-8.064V8.064c0-4.454-3.61-8.064-8.064-8.064s-8.064,3.611-8.064,8.064v44.402
	C247.936,56.921,251.546,60.53,256.001,60.53z"/>
<path d="M256.001,243.663c-4.455,0-8.064,3.611-8.064,8.064v44.402c0,4.454,3.61,8.064,8.064,8.064s8.064-3.611,8.064-8.064v-44.402
	C264.065,247.274,260.454,243.663,256.001,243.663z"/>
<path d="M326.449,89.712c2.063,0,4.128-0.787,5.703-2.362l31.397-31.397c3.149-3.149,3.149-8.255,0-11.404
	c-3.15-3.149-8.256-3.149-11.405,0l-31.397,31.397c-3.149,3.149-3.149,8.255,0,11.404C322.322,88.924,324.386,89.712,326.449,89.712
	z"/>
<path d="M179.848,216.844l-31.397,31.397c-3.149,3.149-3.149,8.255,0,11.404c1.575,1.575,3.64,2.362,5.703,2.362
	s4.128-0.787,5.703-2.362l31.397-31.397c3.149-3.149,3.149-8.255,0-11.404C188.103,213.694,182.998,213.694,179.848,216.844z"/>
<path d="M347.567,152.097c0,4.454,3.61,8.064,8.064,8.064h44.402c4.455,0,8.064-3.611,8.064-8.064c0-4.454-3.61-8.064-8.064-8.064
	h-44.402C351.176,144.033,347.567,147.644,347.567,152.097z"/>
<path d="M111.968,160.162h44.403c4.455,0,8.064-3.611,8.064-8.064c0-4.454-3.61-8.064-8.064-8.064h-44.403
	c-4.455,0-8.064,3.611-8.064,8.064C103.903,156.551,107.513,160.162,111.968,160.162z"/>
<path d="M179.848,87.35c1.575,1.575,3.64,2.362,5.703,2.362c2.063,0,4.128-0.787,5.703-2.362c3.149-3.149,3.149-8.255,0-11.404
	l-31.397-31.397c-3.15-3.149-8.256-3.149-11.405,0s-3.149,8.255,0,11.404L179.848,87.35z"/>
<path d="M320.747,216.844c-3.149,3.149-3.149,8.255,0,11.404l31.397,31.397c1.575,1.575,3.64,2.362,5.703,2.362
	c2.063,0,4.128-0.787,5.703-2.362c3.149-3.149,3.149-8.255,0-11.404l-31.397-31.397
	C329.002,213.694,323.896,213.694,320.747,216.844z"/>
<path d="M228.58,348.833l-69.725-71.42c-4.653-4.765-10.913-7.33-17.542-7.28c-6.66,0.071-12.835,2.789-17.385,7.655
	c-8.523,9.112-8.633,23.489-0.251,32.73l41.983,46.29c1.291,1.425,1.914,3.264,1.753,5.18c-0.161,1.916-1.084,3.626-2.595,4.814
	c-2.797,2.197-6.873,1.869-9.281-0.752l-48.58-52.85c-3.069-3.34-4.936-7.671-5.256-12.196l-1.509-21.367l15.978-18.444
	c6.294-7.266,8.473-17.122,5.825-26.365c-2.648-9.243-9.715-16.45-18.904-19.28L94.815,213c-3.393-11.293-13.89-19.437-26.11-19.437
	c-0.069,0-0.141,0-0.211,0.001c-7.305,0.056-14.146,2.959-19.261,8.176c-5.116,5.216-7.885,12.113-7.797,19.418l1.316,110.103
	c0.156,13.003,4.992,25.522,13.619,35.249l73.768,83.183c2.481,2.797,3.832,6.395,3.81,10.134l-0.273,44.058
	c-0.027,4.454,3.561,8.087,8.014,8.114c0.018,0,0.034,0,0.052,0c4.43,0,8.036-3.577,8.063-8.015l0.273-44.058
	c0.048-7.722-2.747-15.157-7.871-20.935l-73.769-83.182c-6.056-6.829-9.45-15.615-9.56-24.741l-1.316-110.103
	c-0.034-2.984,1.097-5.801,3.186-7.932c2.089-2.131,4.884-3.317,7.869-3.34c0.028,0,0.057,0,0.086,0
	c5.827,0,10.7,4.532,11.11,10.355l5.797,82.093c0.575,8.154,3.939,15.958,9.471,21.975l48.58,52.85
	c8.072,8.779,21.739,9.887,31.118,2.519c4.996-3.926,8.169-9.809,8.702-16.14c0.534-6.332-1.607-12.663-5.876-17.37l-41.983-46.291
	c-2.786-3.072-2.75-7.849,0.083-10.877c1.512-1.617,3.563-2.52,5.778-2.544c2.214-0.029,4.284,0.837,5.831,2.419l69.725,71.421
	c0.447,0.458,0.885,0.923,1.316,1.397c10.247,11.268,14.663,27.32,11.81,42.937l-15.043,82.387c-0.8,4.382,2.103,8.581,6.485,9.381
	c4.377,0.801,8.58-2.103,9.381-6.485l15.043-82.387c3.749-20.531-2.136-41.721-15.743-56.683
	C229.732,350.034,229.162,349.429,228.58,348.833z M106.489,239.271c1.158,4.042,0.244,8.183-2.511,11.361l-5.396,6.228
	l-1.863-26.397l1.623,0.5C102.361,232.2,105.331,235.229,106.489,239.271z"/>
<path d="M462.766,201.74c-5.115-5.216-11.954-8.119-19.26-8.175c-0.071,0-0.141-0.001-0.211-0.001
	c-12.22,0-22.716,8.144-26.11,19.437l-8.275,2.548c-9.188,2.83-16.254,10.037-18.903,19.279c-2.648,9.242-0.471,19.098,5.823,26.365
	l15.979,18.445l-1.509,21.366c-0.319,4.525-2.186,8.856-5.257,12.196l-48.581,52.85c-2.407,2.619-6.484,2.946-9.279,0.75
	c-1.512-1.188-2.434-2.898-2.595-4.814c-0.161-1.916,0.461-3.756,1.753-5.179l41.983-46.291c8.381-9.242,8.27-23.619-0.252-32.729
	c-4.549-4.864-10.724-7.583-17.384-7.655c-6.641-0.044-12.891,2.515-17.542,7.28l-69.725,71.419c-0.58,0.594-1.147,1.198-1.71,1.814
	c-13.607,14.964-19.493,36.155-15.744,56.685l15.043,82.387c0.8,4.382,5.005,7.285,9.381,6.485c4.382-0.8,7.285-5,6.485-9.381
	l-15.043-82.387c-2.852-15.618,1.562-31.669,11.805-42.933c0.431-0.474,0.872-0.941,1.321-1.401l69.726-71.42
	c1.545-1.584,3.656-2.444,5.83-2.419c2.214,0.024,4.265,0.927,5.777,2.544c2.833,3.028,2.87,7.806,0.084,10.877l-41.983,46.291
	c-4.269,4.707-6.412,11.038-5.877,17.37c0.533,6.332,3.705,12.216,8.704,16.141c9.38,7.37,23.048,6.261,31.116-2.519l48.58-52.85
	c5.532-6.018,8.895-13.822,9.472-21.975l5.797-82.094c0.413-5.85,5.298-10.416,11.196-10.353c2.984,0.023,5.778,1.209,7.867,3.34
	c2.089,2.131,3.221,4.948,3.186,7.933l-1.315,110.103c-0.11,9.127-3.505,17.913-9.561,24.741l-73.768,83.184
	c-5.125,5.778-7.919,13.214-7.871,20.935l0.274,44.058c0.027,4.436,3.633,8.014,8.063,8.014c0.017,0,0.034,0,0.052,0
	c4.454-0.028,8.042-3.66,8.014-8.114l-0.274-44.059c-0.023-3.738,1.329-7.336,3.81-10.133l73.768-83.183
	c8.628-9.728,13.464-22.247,13.62-35.251l1.315-110.103C470.651,213.852,467.882,206.956,462.766,201.74z M408.022,250.633
	c-2.754-3.178-3.668-7.319-2.51-11.362c1.158-4.042,4.128-7.071,8.146-8.308l1.624-0.5l-1.863,26.399L408.022,250.633z"/>
<g>
</g>
<g>
</g>
<g>
</g>
<g>
</g>
<g>
</g>
<g>
</g>
<g>
</g>
<g>
</g>
<g>
</g>
<g>
</g>
<g>
</g>
<g>
</g>
<g>
</g>
<g>
</g>
<g>
</g>
</svg>
