<?xml version="1.0" encoding="iso-8859-1"?>
<!-- Generator: Adobe Illustrator 19.0.0, SVG Export Plug-In . SVG Version: 6.00 Build 0)  -->
<svg version="1.1" id="Layer_1" xmlns="http://www.w3.org/2000/svg" xmlns:xlink="http://www.w3.org/1999/xlink" x="0px" y="0px"
	 viewBox="0 0 512 512" style="enable-background:new 0 0 512 512;" xml:space="preserve">
<path style="fill:#F8DF70;" d="M333.728,389.259c0-88.787-54.213-101.055-54.213-101.055l-0.007-98.182
	c78.329,0,147.259,51.69,169.19,126.886l21.109,72.351H333.728z"/>
<rect x="219.507" y="117.635" style="fill:#E04F56;" width="60.011" height="196.305"/>
<rect x="8.877" y="139.261" style="fill:#FD6568;" width="210.628" height="153.052"/>
<rect x="8.877" y="266.184" style="fill:#E04F56;" width="210.628" height="26.129"/>
<path d="M341.108,263.395c-3.992-2.478-9.233-1.251-11.711,2.741c-2.478,3.991-1.251,9.235,2.741,11.711
	c0.504,0.313,50.353,31.801,50.353,79.022c0,4.697,3.808,8.505,8.505,8.505c4.697,0,8.505-3.808,8.505-8.505
	c0-23.612-10.162-47.307-29.39-68.523C355.881,272.642,341.705,263.764,341.108,263.395z"/>
<path d="M503.495,385.863h-26.188l-20.814-71.342c-11.28-38.676-34.279-71.894-66.509-96.065
	c-29.95-22.461-65.172-35.075-102.336-36.747v-64.079c0-4.697-3.808-8.505-8.505-8.505h-60.01c-4.697,0-8.505,3.808-8.505,8.505
	v13.122H8.505c-4.697,0-8.505,3.808-8.505,8.505c0,4.697,3.808,8.505,8.505,8.505h202.122v136.038H8.505
	c-4.697,0-8.505,3.808-8.505,8.505c0,4.697,3.808,8.505,8.505,8.505h202.122v13.121c0,4.697,3.808,8.505,8.505,8.505h60.011
	c4.697,0,8.505-3.808,8.505-8.505v-12.797c13.769,8.27,36.275,30.111,37.172,84.726H137.878c-4.697,0-8.505,3.808-8.505,8.505
	s3.808,8.505,8.505,8.505h365.616c4.697,0,8.505-3.808,8.505-8.505S508.192,385.863,503.495,385.863z M227.638,305.427V126.136h43
	v179.292H227.638z M312.395,299.55c-9.262-9.68-18.674-14.808-24.746-17.369V198.74c33.453,1.659,65.147,13.089,92.129,33.324
	c29.262,21.945,50.143,52.104,60.385,87.219l19.425,66.578H341.831C341.402,359.305,335.743,323.952,312.395,299.55z"/>
<path d="M183.708,181.744c4.697,0,8.505-3.808,8.505-8.505c0-4.697-3.808-8.505-8.505-8.505H27.216
	c-4.697,0-8.505,3.808-8.505,8.505c0,4.697,3.808,8.505,8.505,8.505H183.708z"/>
<g>
</g>
<g>
</g>
<g>
</g>
<g>
</g>
<g>
</g>
<g>
</g>
<g>
</g>
<g>
</g>
<g>
</g>
<g>
</g>
<g>
</g>
<g>
</g>
<g>
</g>
<g>
</g>
<g>
</g>
</svg>
