<?xml version="1.0" encoding="iso-8859-1"?>
<!-- Generator: Adobe Illustrator 19.0.0, SVG Export Plug-In . SVG Version: 6.00 Build 0)  -->
<svg version="1.1" id="Layer_1" xmlns="http://www.w3.org/2000/svg" xmlns:xlink="http://www.w3.org/1999/xlink" x="0px" y="0px"
	 viewBox="0 0 512 512" style="enable-background:new 0 0 512 512;" xml:space="preserve">
<path style="fill:#9DDA74;" d="M455.295,341.269c-3.974,18.579-10.567,36.723-19.767,53.832
	c-9.213,17.109-21.045,33.184-35.483,47.622c-39.866,39.866-92.127,59.799-144.375,59.799s-104.508-19.933-144.375-59.799
	C78.943,410.37,59.725,369.878,53.617,327.84c28.251,18.131,51.519,39.636,106.668,39.636c95.372,0,95.372-64.284,190.757-64.284
	C404.619,303.192,428.104,323.483,455.295,341.269z"/>
<path style="fill:#80D2EE;" d="M400.045,153.962c37.196,37.208,57.039,85.189,59.531,133.897
	c-29.12-18.374-52.171-40.825-108.533-40.825c-95.385,0-95.385,64.284-190.757,64.284c-55.378,0-78.608-21.671-107.013-39.853
	c5.673-42.971,25.006-84.486,58.023-117.503L255.67,9.587L400.045,153.962z"/>
<path style="fill:#90C666;" d="M254.009,501.948c-51.647-0.409-103.154-20.316-142.547-59.723
	C79.3,410.064,60.121,369.827,53.937,328.044c21.083,13.57,39.457,28.967,70.52,35.816c6.619,28.635,17.684,55.532,33.196,78.365
	C184.307,481.427,219.088,501.334,254.009,501.948z"/>
<path style="fill:#68B9DA;" d="M117.161,305.875c-26.986-7.564-44.134-21.748-63.722-34.308
	c4.958-38.167,20.713-75.184,47.239-106.144c0.128-0.128,0.243-0.256,0.345-0.396c0.486-0.562,0.984-1.124,1.469-1.674
	c0.575-0.652,1.15-1.303,1.738-1.942c0.575-0.652,1.176-1.291,1.763-1.929c1.776-1.929,3.603-3.821,5.469-5.686L255.67,9.587
	l-98.017,144.208C129.235,195.617,115.729,251.084,117.161,305.875z"/>
<path d="M159.868,320.899c-50.615,0-76.091-17.172-100.73-33.779c-3.737-2.518-7.603-5.124-11.455-7.589
	c-3.133-2.005-4.822-5.64-4.337-9.328c6.198-46.937,27.205-89.477,60.746-123.019L248.472,2.807C250.269,1.009,252.707,0,255.248,0
	s4.979,1.009,6.776,2.807l144.377,144.377c37.484,37.484,59.617,87.265,62.322,140.175c0.183,3.574-1.642,6.952-4.73,8.76
	c-3.088,1.807-6.927,1.744-9.954-0.166c-4.604-2.904-9.075-5.917-13.399-8.832c-23.276-15.688-45.261-30.507-90.024-30.507
	c-44.759,0-66.743,14.818-90.018,30.505c-12.132,8.176-24.676,16.633-40.509,23.036
	C202.215,317.384,182.516,320.899,159.868,320.899z M63.224,266.784c2.245,1.489,4.458,2.98,6.629,4.443
	c23.274,15.688,45.258,30.505,90.017,30.505s66.743-14.818,90.018-30.505c12.132-8.176,24.676-16.633,40.509-23.036
	c17.876-7.23,37.575-10.743,60.221-10.743c48.038,0,73.436,15.467,96.961,31.239c-6.253-40.74-25.291-78.512-54.729-107.951
	l-137.601-137.6l-137.601,137.6C88.531,189.853,69.793,226.41,63.224,266.784z"/>
<path d="M255.247,512c-54.739,0-109.48-20.837-151.153-62.509c-32.842-32.842-53.721-74.434-60.378-120.276
	c-0.539-3.714,1.14-7.401,4.295-9.434c3.156-2.032,7.207-2.035,10.365-0.009c3.918,2.515,7.762,5.106,11.479,7.612
	c23.273,15.687,45.257,30.505,90.013,30.505c44.759,0,66.743-14.817,90.018-30.505c12.132-8.176,24.676-16.633,40.509-23.036
	c17.876-7.23,37.575-10.743,60.221-10.743c50.616,0,76.093,17.172,100.731,33.779c2.911,1.961,5.82,3.924,8.776,5.856
	c3.316,2.168,4.956,6.152,4.127,10.027c-8.618,40.264-28.622,76.997-57.851,106.224C364.729,491.163,309.988,512,255.247,512z
	 M67.227,348.681c8.742,32.928,25.926,62.761,50.421,87.256c75.874,75.872,199.329,75.874,275.201,0
	c25.071-25.071,42.688-56.202,51.199-90.366c-1.138-0.764-2.274-1.529-3.41-2.295c-23.276-15.688-45.26-30.505-90.02-30.505
	c-44.759,0-66.743,14.818-90.018,30.505c-12.132,8.176-24.676,16.633-40.509,23.035c-17.876,7.23-37.575,10.743-60.221,10.743
	C114.749,377.055,89.607,363.409,67.227,348.681z"/>
<g>
</g>
<g>
</g>
<g>
</g>
<g>
</g>
<g>
</g>
<g>
</g>
<g>
</g>
<g>
</g>
<g>
</g>
<g>
</g>
<g>
</g>
<g>
</g>
<g>
</g>
<g>
</g>
<g>
</g>
</svg>
