<?xml version="1.0" encoding="iso-8859-1"?>
<!-- Generator: Adobe Illustrator 19.0.0, SVG Export Plug-In . SVG Version: 6.00 Build 0)  -->
<svg version="1.1" id="Layer_1" xmlns="http://www.w3.org/2000/svg" xmlns:xlink="http://www.w3.org/1999/xlink" x="0px" y="0px"
	 viewBox="0 0 512 512" style="enable-background:new 0 0 512 512;" xml:space="preserve">
<g>
	<polygon style="fill:#F2F2F2;" points="124.918,9.676 133.437,111.131 163.466,468.489 185.543,468.489 327.311,468.489 
		349.375,468.489 378.322,124.006 387.936,9.676 	"/>
	<rect x="185.548" y="468.491" style="fill:#F2F2F2;" width="141.768" height="33.857"/>
</g>
<path style="fill:#80D2EE;" d="M378.322,124.006l-28.946,344.483h-22.064H185.543h-22.077l-30.029-357.358l0.541-0.052
	c40.649,0,40.649,12.888,81.285,12.888c40.649,0,40.649-12.888,81.297-12.888s40.649,12.888,81.285,12.888L378.322,124.006z"/>
<polygon style="fill:#E6E6E6;" points="189.977,121.725 205.829,468.489 163.466,468.489 133.437,111.131 124.918,9.676 
	184.847,9.676 189.487,111.131 "/>
<path style="fill:#68B9DA;" d="M189.977,121.725l15.852,346.764h-42.363l-30.029-357.358l0.541-0.052
	C163.84,111.079,171.766,118.039,189.977,121.725z"/>
<path d="M394.623,3.123C392.791,1.133,390.211,0,387.507,0H124.493c-2.704,0-5.285,1.133-7.115,3.123
	c-1.83,1.991-2.743,4.658-2.517,7.353l38.554,458.813c0.421,5.007,4.607,8.857,9.632,8.857h12.403v24.189
	c0,5.338,4.328,9.666,9.666,9.666h141.768c5.338,0,9.666-4.328,9.666-9.666v-24.189h12.402c5.024,0,9.211-3.85,9.632-8.857
	L397.14,10.475C397.365,7.78,396.453,5.114,394.623,3.123z M376.994,19.332l-7.961,94.745c-13.392-0.728-21.183-3.185-29.331-5.769
	c-10.692-3.39-21.748-6.896-43.568-6.896s-32.875,3.506-43.568,6.896c-9.718,3.082-18.896,5.992-37.724,5.992
	c-18.825,0-28.004-2.91-37.722-5.992c-9.229-2.927-18.746-5.934-35.204-6.703l-6.912-82.273H376.994z M317.219,492.668H194.783
	v-14.523h122.436V492.668z M340.065,458.813h-13.181H185.117h-13.182l-28.381-337.752c12.427,0.831,19.907,3.196,27.725,5.676
	c10.692,3.391,21.748,6.896,43.565,6.896c21.818,0,32.875-3.506,43.568-6.896c9.718-3.082,18.896-5.992,37.724-5.992
	s28.006,2.91,37.724,5.992c8.915,2.826,18.106,5.726,33.554,6.614L340.065,458.813z"/>
<path d="M205.038,175.144c-18.657,0-33.834,15.177-33.834,33.834s15.177,33.834,33.834,33.834s33.834-15.177,33.834-33.834
	S223.693,175.144,205.038,175.144z M205.038,223.479c-7.996,0-14.502-6.506-14.502-14.502c0-7.996,6.506-14.502,14.502-14.502
	c7.996,0,14.502,6.506,14.502,14.502C219.539,216.973,213.033,223.479,205.038,223.479z"/>
<circle cx="293.009" cy="289.207" r="9.666"/>
<circle cx="238.879" cy="355.258" r="9.666"/>
<g>
</g>
<g>
</g>
<g>
</g>
<g>
</g>
<g>
</g>
<g>
</g>
<g>
</g>
<g>
</g>
<g>
</g>
<g>
</g>
<g>
</g>
<g>
</g>
<g>
</g>
<g>
</g>
<g>
</g>
</svg>
