<?xml version="1.0" encoding="iso-8859-1"?>
<!-- Generator: Adobe Illustrator 19.0.0, SVG Export Plug-In . SVG Version: 6.00 Build 0)  -->
<svg version="1.1" id="Layer_1" xmlns="http://www.w3.org/2000/svg" xmlns:xlink="http://www.w3.org/1999/xlink" x="0px" y="0px"
	 viewBox="0 0 512 512" style="enable-background:new 0 0 512 512;" xml:space="preserve">
<polyline style="fill:#999999;" points="274.226,258.353 274.226,503.183 238.557,503.183 238.557,258.353 "/>
<path style="fill:#FD6568;" d="M281.164,255.287c0.212,1.318,0.329,2.682,0.329,4.059c0,11.27-7.411,20.799-17.634,23.975
	c-2.365,0.729-4.87,1.129-7.47,1.129c-2.6,0-5.106-0.4-7.47-1.129c-10.223-3.176-17.646-12.705-17.646-23.975
	c0-1.376,0.118-2.741,0.329-4.059h0.012c0.941-5.917,3.964-11.129,8.294-14.893c4.411-3.835,10.164-6.164,16.481-6.164
	c6.317,0,12.07,2.329,16.481,6.164C277.188,244.158,280.211,249.381,281.164,255.287z"/>
<g>
	<path style="fill:#80D2EE;" d="M248.919,283.32v0.012l-8.646,27.798L83.06,401.1c-4.623,2.647-9.67,3.906-14.658,3.906
		c-9.917,0-19.587-5-25.163-14.023c-8.376-13.564-4.482-31.316,8.788-40.138l150.849-100.276l28.728,4.717
		c-0.212,1.318-0.329,2.682-0.329,4.059C231.273,270.615,238.697,280.144,248.919,283.32z"/>
	<path style="fill:#80D2EE;" d="M460.752,350.845c13.27,8.823,17.152,26.575,8.776,40.138c-5.576,9.023-15.246,14.023-25.163,14.023
		c-4.988,0-10.035-1.259-14.658-3.906l-157.201-89.97l-8.646-27.798v-0.012c10.223-3.176,17.634-12.705,17.634-23.975
		c0-1.376-0.118-2.741-0.329-4.059h0.012l28.739-4.717L460.752,350.845z"/>
	<path style="fill:#80D2EE;" d="M285.929,37.395l6.058,181.023l-19.116,21.975c-4.411-3.835-10.164-6.164-16.481-6.164
		s-12.07,2.329-16.481,6.164l-19.105-21.975l6.047-181.023c0.541-15.928,13.599-28.563,29.539-28.563
		c7.976,0,15.223,3.153,20.552,8.305C282.27,22.29,285.658,29.431,285.929,37.395z"/>
</g>
<path d="M465.247,343.49L314.41,243.213c-1.858-1.235-4.115-1.721-6.314-1.359l-21.196,3.48c-0.783-1.721-1.698-3.37-2.746-4.924
	l14.1-16.21c1.463-1.682,2.235-3.856,2.161-6.085L294.36,37.092C293.663,16.292,276.816,0,256.004,0
	c-20.81,0-37.656,16.292-38.352,37.09l-6.056,181.023c-0.075,2.228,0.696,4.402,2.159,6.084l14.094,16.212
	c-1.048,1.553-1.962,3.202-2.745,4.922l-21.189-3.479c-2.2-0.361-4.456,0.124-6.314,1.359L46.754,343.489
	c-17.331,11.52-22.341,34.414-11.406,52.121c7.268,11.767,19.735,18.265,32.585,18.263c6.484,0,13.067-1.655,19.126-5.122
	l157.207-89.973c1.935-1.107,3.38-2.908,4.042-5.037l6.378-20.504c0.438,0.016,0.874,0.033,1.316,0.033
	c0.44,0,0.876-0.016,1.313-0.033l6.378,20.504c0.662,2.129,2.107,3.929,4.042,5.037l157.207,89.973
	c6.058,3.468,12.639,5.122,19.125,5.122c12.849,0,25.32-6.497,32.586-18.265C487.586,377.903,482.577,355.009,465.247,343.49z
	 M256.001,275.624c-8.982,0-16.288-7.307-16.288-16.288c0-8.982,7.307-16.288,16.288-16.288s16.288,7.307,16.288,16.288
	C272.29,268.317,264.983,275.624,256.001,275.624z M235.287,37.681c0.375-11.235,9.476-20.035,20.72-20.035
	c11.24,0,20.341,8.801,20.716,20.035l5.94,177.555l-11.822,13.59c-4.486-2.19-9.522-3.424-14.84-3.424
	c-5.32,0-10.355,1.233-14.84,3.423l-11.813-13.589L235.287,37.681z M232.489,305.187L78.293,393.436
	c-9.755,5.584-22.024,2.467-27.931-7.098c-5.907-9.564-3.201-21.93,6.161-28.153l147.958-98.356l17.758,2.915
	c1.062,10.609,7.036,19.786,15.602,25.236L232.489,305.187z M461.637,386.338c-5.905,9.565-18.175,12.682-27.931,7.098
	L279.51,305.187l-5.351-17.205c8.568-5.45,14.543-14.627,15.606-25.237l17.766-2.916l147.948,98.356
	C464.838,364.407,467.544,376.774,461.637,386.338z"/>
<path d="M313.77,100.329c32.099,11.716,59.588,32.691,79.495,60.658c20.337,28.575,31.087,62.29,31.087,97.501
	c0,11.698-1.206,23.348-3.586,34.622c-1.006,4.768,2.043,9.449,6.811,10.455c0.614,0.129,1.227,0.192,1.83,0.192
	c4.082,0,7.748-2.849,8.624-7.003c2.632-12.472,3.967-25.345,3.967-38.267c0-38.9-11.88-76.154-34.358-107.733
	c-21.986-30.89-52.353-54.059-87.821-67.004c-4.576-1.669-9.642,0.686-11.313,5.263C306.837,93.594,309.193,98.658,313.77,100.329z"
	/>
<path d="M359.547,391.212c-18.001,14.072-38.275,24.161-60.257,29.984c-4.71,1.248-7.517,6.078-6.269,10.789
	c1.048,3.953,4.617,6.565,8.523,6.565c0.748,0,1.508-0.096,2.266-0.296c24.303-6.44,46.712-17.589,66.605-33.14
	c3.839-3.001,4.519-8.545,1.518-12.385C368.933,388.889,363.387,388.208,359.547,391.212z"/>
<path d="M212.721,421.207c-21.979-5.823-42.256-15.915-60.269-29.997c-3.841-3.002-9.385-2.322-12.385,1.518
	c-3.001,3.84-2.322,9.384,1.518,12.385c19.905,15.56,42.318,26.714,66.617,33.152c0.758,0.2,1.518,0.296,2.266,0.296
	c3.904,0,7.475-2.613,8.523-6.565C220.238,427.286,217.431,422.455,212.721,421.207z"/>
<path d="M82.6,303.762c4.873,0,8.823-3.956,8.823-8.829c0-0.613-0.064-1.222-0.191-1.821c-2.379-11.278-3.586-22.927-3.586-34.624
	c0-70.468,44.444-134.028,110.593-158.159c4.577-1.67,6.935-6.735,5.266-11.312c-1.669-4.579-6.736-6.934-11.312-5.266
	c-35.467,12.939-65.838,36.107-87.828,66.999c-22.481,31.583-34.364,68.838-34.364,107.738c0,12.832,1.316,25.621,3.914,38.016
	C74.651,300.633,78.259,303.762,82.6,303.762z"/>
<path d="M273.84,334.282c-4.873,0-8.823,3.95-8.823,8.823v151.249h-18.023V343.105c0-4.873-3.95-8.823-8.823-8.823
	c-4.873,0-8.823,3.95-8.823,8.823v160.072c0,4.873,3.95,8.823,8.823,8.823h35.669c4.873,0,8.823-3.95,8.823-8.823V343.105
	C282.663,338.233,278.713,334.282,273.84,334.282z"/>
<g>
</g>
<g>
</g>
<g>
</g>
<g>
</g>
<g>
</g>
<g>
</g>
<g>
</g>
<g>
</g>
<g>
</g>
<g>
</g>
<g>
</g>
<g>
</g>
<g>
</g>
<g>
</g>
<g>
</g>
</svg>
